<?xml version="1.0" encoding="UTF-8"?>
<svg xmlns="http://www.w3.org/2000/svg" xmlns:xlink="http://www.w3.org/1999/xlink" width="99px" height="75px" viewBox="0 0 99 75" version="1.1">
<g id="surface1">
<path style=" stroke:none;fill-rule:nonzero;fill:rgb(0%,0%,0%);fill-opacity:1;" d="M 72.984375 45 C 72.277344 46.3125 71.199219 45.675781 70.191406 45.488281 C 69.410156 51.601562 66.097656 56.398438 62.230469 60.824219 C 59.699219 63.710938 56.871094 66.375 54.078125 69.039062 C 51.101562 71.851562 47.488281 73.164062 43.359375 72.824219 C 41.945312 72.710938 40.640625 72.226562 39.710938 71.175781 C 37.292969 68.4375 34.6875 65.851562 33.308594 62.324219 C 31.671875 58.238281 29.960938 54.1875 27.019531 50.738281 C 25.085938 48.488281 24.972656 45.675781 26.238281 42.976562 C 26.683594 42.074219 26.574219 41.4375 26.128906 40.574219 C 25.160156 38.699219 24.378906 36.710938 24.042969 34.613281 C 24.863281 35.175781 24.5625 36.414062 25.457031 36.898438 C 27.503906 34.800781 30.332031 34.085938 32.9375 35.4375 C 34.722656 36.375 34.984375 35.8125 35.171875 34.164062 C 35.355469 32.210938 34.203125 30.226562 32.527344 30.523438 C 31.1875 30.75 30.109375 30.335938 28.917969 30.074219 C 26.609375 29.625 24.972656 30.300781 24.191406 31.949219 C 23.746094 32.886719 24.453125 33.789062 24.078125 34.6875 C 22.851562 33.148438 23.410156 31.273438 23.410156 29.625 C 23.371094 25.949219 22.332031 22.3125 23 18.636719 C 24.042969 12.976562 27.652344 9.261719 32.34375 6.449219 C 32.902344 6.113281 33.347656 6.148438 33.867188 6.523438 C 37.253906 8.851562 40.867188 10.726562 44.960938 11.8125 C 43.0625 12.113281 41.164062 12.375 39.300781 12.75 C 33.496094 13.988281 28.25 16.164062 24.9375 21.5625 C 24.078125 22.949219 23.820312 24.375 23.820312 26.210938 C 25.867188 24.300781 28.023438 24.113281 30.480469 24.976562 C 24.675781 25.351562 23.410156 26.289062 23.894531 30.414062 C 25.269531 28.050781 27.132812 27.261719 29.441406 27.75 C 31.636719 28.199219 33.347656 29.585938 34.984375 31.011719 C 35.65625 31.574219 35.914062 32.289062 35.765625 33.1875 C 35.207031 36.675781 34.6875 40.164062 33.941406 43.648438 C 33.535156 42.414062 34.128906 41.25 34.128906 39.710938 C 32.378906 41.550781 30.371094 42.414062 28.101562 42.5625 C 27.390625 42.601562 27.058594 43.164062 26.835938 43.761719 C 26.238281 45.261719 26.089844 46.800781 26.5 48.375 C 27.132812 50.8125 27.949219 51.113281 29.886719 49.539062 C 30.519531 49.011719 31.078125 48.449219 31.597656 47.8125 C 32.082031 47.25 32.492188 46.613281 33.050781 45.824219 C 33.421875 47.625 34.390625 48.710938 36.660156 48.976562 C 34.800781 49.761719 34.054688 48.710938 33.199219 48 C 32.863281 49.085938 32.675781 50.136719 32.195312 51.074219 C 31.746094 51.976562 31.785156 52.574219 32.527344 53.175781 C 33.347656 53.851562 34.128906 53.773438 34.910156 53.175781 C 35.65625 52.574219 36.0625 51.710938 36.621094 51 C 37.144531 50.289062 36.996094 48.675781 38.410156 49.011719 C 39.710938 49.3125 40.492188 50.398438 40.34375 51.824219 C 40.234375 52.726562 40.640625 52.574219 41.164062 52.5 C 42.128906 52.351562 41.980469 51.9375 41.609375 51.261719 C 40.234375 48.789062 40.679688 47.960938 43.507812 47.699219 C 46.410156 47.398438 49.351562 47.886719 52.253906 47.398438 C 53.816406 47.136719 55.082031 46.5 55.976562 45.1875 C 56.273438 44.773438 56.570312 44.289062 56.273438 43.800781 C 56.011719 43.351562 55.492188 43.648438 55.082031 43.648438 C 54.078125 43.648438 53.109375 43.726562 52.105469 43.6875 C 50.46875 43.613281 48.828125 42.898438 48.234375 45.636719 C 47.863281 47.363281 44.808594 48 43.320312 46.800781 C 42.09375 45.789062 41.386719 46.199219 40.53125 47.136719 C 39.675781 48.113281 38.78125 48.824219 37.554688 47.699219 C 36.808594 46.988281 36.25 48.9375 35.507812 47.851562 C 34.949219 47.023438 36.398438 46.6875 36.027344 45.863281 C 35.691406 45.074219 35.097656 44.398438 35.023438 43.3125 C 35.953125 44.136719 36.734375 44.925781 37.777344 45.335938 C 39.152344 45.898438 40.492188 46.085938 41.832031 45.113281 C 42.316406 44.773438 42.949219 44.550781 43.507812 44.398438 C 44.179688 44.25 44.886719 44.289062 45.441406 44.8125 C 46.148438 45.488281 45.109375 45.9375 45.109375 46.539062 C 47.714844 46.164062 48.199219 45.375 47.75 42.226562 C 50.019531 42.523438 52.253906 43.085938 54.5625 42.75 C 55.640625 42.601562 55.640625 42.5625 54.820312 41.136719 C 58.246094 43.238281 60.441406 40.800781 63.121094 39.335938 C 61.820312 46.539062 59.511719 53.136719 55.9375 59.511719 C 55.640625 58.613281 56.125 58.125 56.347656 57.601562 C 58.359375 52.875 60.21875 48.148438 61.410156 43.125 C 61.519531 42.710938 61.855469 42.226562 61.484375 41.886719 C 61 41.4375 60.589844 41.960938 60.144531 42.148438 C 59.027344 42.636719 57.6875 42.824219 58.359375 44.8125 C 58.765625 46.050781 57.726562 47.175781 56.792969 48.039062 C 55.046875 49.648438 53 50.925781 50.726562 51.601562 C 47.824219 52.5 45.035156 53.625 42.167969 54.675781 C 41.015625 55.085938 39.785156 55.386719 38.519531 55.3125 C 37.738281 55.238281 37.105469 55.460938 36.4375 55.875 C 33.90625 57.375 33.460938 57.226562 31.820312 54.75 C 31.636719 54.449219 31.410156 54.148438 31.152344 53.738281 C 32.230469 58.199219 33.757812 59.175781 37.21875 58.875 C 40.640625 58.574219 43.695312 57.488281 46.859375 56.398438 C 50.394531 55.164062 53.964844 54.113281 56.757812 50.886719 C 56.71875 52.050781 56.125 52.351562 55.714844 52.761719 C 54.039062 54.449219 52.066406 55.835938 49.910156 56.773438 C 47.789062 57.710938 45.59375 58.238281 47.007812 61.5 C 47.414062 62.4375 46.820312 63.824219 46.671875 64.988281 C 46.597656 65.550781 46.484375 66.113281 46.523438 66.675781 C 46.632812 68.289062 46.484375 70.085938 48.160156 70.988281 C 49.796875 71.886719 51.0625 70.539062 52.105469 69.636719 C 58.097656 64.273438 63.976562 58.835938 67.511719 51.335938 C 69.152344 47.925781 69.1875 44.4375 68.21875 40.949219 C 67.550781 38.550781 66.582031 36.226562 65.765625 33.898438 C 65.652344 33.601562 65.539062 33.148438 65.316406 33.113281 C 63.160156 32.511719 63.941406 31.011719 64.164062 29.625 C 64.3125 28.835938 64.199219 28.011719 64.015625 27.226562 C 62.9375 22.949219 60.890625 19.199219 57.761719 16.125 C 55.789062 14.175781 53.59375 12.710938 50.800781 12.074219 C 47.75 11.363281 44.734375 10.273438 41.757812 9.226562 C 40.492188 8.773438 39.226562 8.175781 38.035156 7.539062 C 37.253906 7.125 36.175781 6.710938 36.289062 5.585938 C 36.4375 4.460938 37.589844 4.3125 38.445312 4.125 C 44.734375 2.8125 50.988281 2.550781 57.203125 4.460938 C 67.03125 7.539062 74.175781 16.949219 74.585938 27.226562 C 74.621094 27.9375 74.808594 28.5 75.253906 29.0625 C 76.484375 30.601562 77.003906 32.4375 76.78125 34.3125 C 76.371094 37.800781 75.328125 41.136719 73.730469 44.289062 C 73.503906 44.699219 73.28125 45.1875 72.722656 45.335938 C 74.363281 42.449219 75.253906 39.261719 75.925781 36.039062 C 76.335938 34.050781 76.261719 32.0625 75.179688 30.226562 C 73.878906 27.976562 71.683594 27.636719 69.746094 29.363281 C 69.449219 29.625 69.375 30.113281 68.777344 30.113281 C 67.03125 30.074219 66.621094 30.636719 67.066406 32.289062 C 67.738281 34.648438 68.480469 37.011719 69.261719 39.601562 C 70.15625 38.625 70.976562 37.949219 69.894531 36.675781 C 69.113281 35.8125 69.597656 35.175781 70.640625 35.023438 C 71.382812 34.914062 72.128906 34.914062 72.722656 35.550781 C 73.320312 36.1875 73.097656 36.9375 72.871094 37.648438 C 72.464844 38.886719 71.644531 39.75 70.378906 39.898438 C 69.375 40.050781 69.335938 40.5 69.523438 41.289062 C 69.671875 41.8125 69.710938 42.414062 69.785156 42.9375 C 70.269531 44.925781 70.898438 45.375 72.984375 45 Z M 44.734375 71.886719 C 43.917969 70.164062 43.136719 68.625 42.464844 67.050781 C 41.722656 65.25 40.640625 63.5625 41.125 61.386719 C 41.386719 60.300781 40.308594 59.738281 39.300781 59.851562 C 37.402344 60.113281 35.542969 59.925781 33.683594 59.289062 C 33.535156 64.875 39.785156 72.113281 44.734375 71.886719 Z M 30.667969 35.625 C 30.183594 35.664062 29.8125 35.625 29.476562 35.699219 C 28.25 35.960938 26.945312 36.148438 26.5 37.574219 C 26.050781 39.039062 26.574219 40.351562 27.542969 41.363281 C 28.582031 42.375 29.738281 41.550781 30.855469 41.210938 C 31.261719 41.101562 31.636719 40.835938 32.007812 40.613281 C 33.234375 39.824219 34.722656 38.699219 34.390625 37.351562 C 34.015625 35.8125 32.082031 35.738281 30.667969 35.625 Z M 30.667969 35.625 "/>
<path style=" stroke:none;fill-rule:nonzero;fill:rgb(0%,0%,0%);fill-opacity:1;" d="M 60.21875 26.886719 C 60.292969 28.164062 59.363281 28.800781 58.65625 29.699219 C 59.882812 30.226562 61.261719 30.148438 62.339844 31.011719 C 61.78125 31.273438 61.410156 31.011719 61 30.9375 C 58.730469 30.5625 56.683594 30.488281 54.5625 32.136719 C 51.359375 34.648438 47.488281 35.4375 43.46875 34.199219 C 40.53125 33.300781 39.675781 30.335938 41.609375 28.011719 C 42.949219 26.398438 44.214844 24.675781 45.851562 23.324219 C 48.605469 21.148438 51.546875 20.886719 54.785156 22.460938 C 48.382812 20.289062 45.109375 24.414062 41.980469 28.761719 C 41.3125 29.699219 41.050781 30.789062 41.871094 31.875 C 44.660156 26.363281 49.6875 24.863281 55.15625 27.898438 C 57.875 29.324219 57.984375 29.324219 60.21875 26.886719 Z M 43.804688 33.335938 C 46.894531 34.5 52.03125 33.523438 54.113281 31.5 C 54.414062 31.199219 54.523438 30.710938 54.820312 30.414062 C 55.417969 29.851562 55.34375 29.476562 54.710938 28.988281 C 53 27.789062 51.101562 27.039062 48.980469 27.113281 C 45.777344 27.226562 43.359375 28.988281 42.761719 31.5 C 42.6875 31.835938 42.355469 32.25 42.800781 32.511719 C 43.171875 32.738281 43.695312 32.699219 44.027344 32.398438 C 44.402344 32.0625 44.660156 31.613281 44.960938 31.238281 C 46.375 29.4375 48.199219 28.574219 50.503906 28.875 C 51.660156 29.023438 53.257812 29.101562 53.445312 30.335938 C 53.59375 31.460938 51.992188 31.613281 51.101562 31.988281 C 49.539062 32.664062 47.9375 32.960938 46.226562 33 C 45.441406 33 44.699219 32.773438 43.804688 33.335938 Z M 43.804688 33.335938 "/>
<path style=" stroke:none;fill-rule:nonzero;fill:rgb(0%,0%,0%);fill-opacity:1;" d="M 55.640625 21.261719 C 55.007812 21.75 54.523438 21.488281 54.078125 21.335938 C 50.320312 19.949219 47.117188 21.074219 44.253906 23.511719 C 43.097656 24.488281 42.128906 25.613281 41.089844 26.664062 C 40.53125 27.261719 39.859375 27.335938 39.265625 26.773438 C 38.707031 26.289062 38.855469 25.648438 39.191406 25.050781 C 42.28125 19.613281 50.207031 17.699219 55.640625 21.261719 Z M 55.640625 21.261719 "/>
<path style=" stroke:none;fill-rule:nonzero;fill:rgb(0%,0%,0%);fill-opacity:1;" d="M 74.027344 39.300781 C 74.25 36.113281 75.21875 32.738281 70.640625 31.050781 C 71.308594 32.625 70.75 33.414062 69.636719 33.9375 C 69.335938 34.085938 69.039062 34.164062 68.777344 33.9375 C 68.40625 33.675781 68.480469 33.261719 68.667969 32.925781 C 69.558594 31.273438 70.75 29.960938 72.648438 29.511719 C 74.0625 29.175781 74.769531 30.039062 75.105469 31.199219 C 75.886719 34.011719 75.441406 36.710938 74.027344 39.300781 Z M 74.027344 39.300781 "/>
<path style=" stroke:none;fill-rule:nonzero;fill:rgb(0%,0%,0%);fill-opacity:1;" d="M 33.199219 33.5625 C 30.890625 33.113281 28.882812 31.6875 26.574219 31.3125 C 29.105469 31.050781 31.113281 32.4375 33.199219 33.5625 Z M 33.199219 33.5625 "/>
<path style=" stroke:none;fill-rule:nonzero;fill:rgb(0%,0%,0%);fill-opacity:1;" d="M 27.578125 39.414062 C 27.578125 37.800781 29.140625 36.675781 31.1875 36.75 C 32.121094 36.789062 33.382812 36.75 33.683594 37.539062 C 34.015625 38.511719 32.75 38.960938 32.042969 39.449219 C 31.226562 40.011719 30.332031 40.425781 29.441406 40.761719 C 28.0625 41.324219 27.691406 40.5 27.578125 39.414062 Z M 27.578125 39.414062 "/>
</g>
</svg>
