<?xml version="1.0" encoding="UTF-8"?>
<svg xmlns="http://www.w3.org/2000/svg" xmlns:xlink="http://www.w3.org/1999/xlink" width="100px" height="86px" viewBox="0 0 100 86" version="1.1">
<g id="surface1">
<path style=" stroke:none;fill-rule:nonzero;fill:rgb(0%,0%,0%);fill-opacity:1;" d="M 100.125 26.472656 C 100.125 26.558594 100.125 26.632812 100.125 26.71875 C 99.9375 26.644531 99.738281 26.582031 99.566406 26.484375 C 98.375 25.824219 97.183594 25.152344 95.992188 24.507812 C 92.777344 22.742188 89.453125 21.25 85.855469 20.445312 C 83.324219 19.871094 80.78125 19.859375 78.226562 20.355469 C 77.777344 20.445312 77.554688 20.628906 77.59375 21.152344 C 77.605469 21.414062 77.371094 21.75 77.144531 21.949219 C 76.921875 22.132812 76.589844 22.183594 76.300781 22.296875 C 75.050781 22.769531 74.316406 24.132812 74.675781 25.265625 C 74.828125 25.726562 75.023438 25.925781 75.519531 25.675781 C 76.527344 25.191406 77.566406 25.179688 78.671875 25.289062 C 79.378906 25.363281 80.136719 25.167969 80.855469 25.015625 C 81.066406 24.96875 81.226562 24.679688 81.414062 24.507812 C 81.203125 24.382812 80.992188 24.183594 80.757812 24.132812 C 79.902344 23.910156 79.03125 23.75 78.175781 23.527344 C 77.988281 23.476562 77.839844 23.265625 77.679688 23.128906 C 77.839844 22.992188 77.988281 22.828125 78.164062 22.707031 C 78.261719 22.644531 78.398438 22.617188 78.511719 22.59375 C 80.050781 22.246094 81.601562 22.296875 83.101562 22.753906 C 84.058594 23.042969 84.988281 23.3125 86.003906 23.101562 C 86.75 22.941406 87.296875 23.300781 87.628906 23.960938 C 87.855469 24.394531 87.988281 24.894531 88.25 25.304688 C 88.375 25.5 88.660156 25.699219 88.882812 25.699219 C 89.617188 25.714844 90.148438 26.035156 90.558594 26.59375 C 90.683594 26.757812 90.707031 27.003906 90.78125 27.203125 C 90.570312 27.203125 90.359375 27.253906 90.160156 27.203125 C 89.390625 27.03125 88.90625 27.214844 88.597656 27.925781 C 88.425781 28.324219 88.238281 28.769531 88.277344 29.167969 C 88.363281 30.136719 87.855469 30.796875 87.320312 31.503906 C 86.972656 31.964844 86.664062 32.484375 86.476562 33.03125 C 86.289062 33.59375 86.015625 33.953125 85.472656 34.164062 C 85.113281 34.300781 84.789062 34.535156 84.453125 34.734375 C 84.480469 34.796875 84.492188 34.871094 84.515625 34.933594 C 85.285156 34.996094 86.054688 35.058594 86.8125 35.132812 C 86.8125 35.195312 86.824219 35.257812 86.824219 35.308594 C 86.179688 35.753906 85.535156 36.203125 84.902344 36.648438 C 84.914062 36.738281 84.925781 36.824219 84.949219 36.921875 C 85.820312 37.097656 86.6875 37.257812 87.667969 37.445312 C 87.144531 37.792969 86.675781 38.101562 86.242188 38.390625 C 86.539062 38.710938 86.8125 38.9375 87.011719 39.222656 C 87.492188 39.894531 87.492188 39.894531 88.300781 39.804688 C 88.3125 39.894531 88.335938 39.96875 88.324219 40.054688 C 88.125 40.925781 88.488281 41.457031 89.242188 41.84375 C 89.617188 42.03125 89.902344 42.390625 90.222656 42.664062 C 90.199219 42.714844 90.160156 42.777344 90.136719 42.824219 C 89.304688 42.960938 88.363281 42.789062 87.65625 43.570312 C 88.546875 43.832031 89.355469 44.070312 90.261719 44.34375 C 90.210938 44.253906 90.234375 44.28125 90.25 44.316406 C 90.261719 44.355469 90.273438 44.40625 90.261719 44.441406 C 89.925781 45.472656 89.988281 46.691406 88.808594 47.289062 C 88.683594 47.351562 88.574219 47.460938 88.472656 47.5625 C 87.554688 48.355469 87.480469 48.59375 88.125 49.597656 C 88.5625 50.28125 88.5625 50.902344 88.125 51.5625 C 88.066406 51.648438 88.027344 51.738281 87.976562 51.835938 C 87.667969 52.445312 87.765625 52.617188 88.4375 52.605469 C 88.796875 52.605469 89.144531 52.605469 89.566406 52.605469 C 88.710938 53.191406 88.722656 53.339844 89.492188 53.925781 C 89.765625 54.121094 90.011719 54.335938 90.273438 54.546875 C 90.25 54.59375 90.222656 54.644531 90.199219 54.695312 C 89.566406 54.632812 88.945312 54.582031 88.214844 54.519531 C 88.785156 55.242188 89.253906 55.824219 89.714844 56.421875 C 89.675781 56.472656 89.640625 56.535156 89.601562 56.582031 C 88.945312 56.535156 88.113281 56.085938 87.878906 57.367188 C 88.335938 57.253906 88.683594 57.15625 89.105469 57.054688 C 88.945312 57.539062 88.671875 57.976562 88.722656 58.347656 C 88.773438 58.707031 89.179688 59.007812 89.503906 59.429688 C 88.324219 59.492188 87.792969 60.347656 87.121094 61.046875 C 86.6875 61.503906 86.179688 61.890625 85.683594 62.289062 C 85.285156 62.585938 85.039062 63.417969 85.324219 63.730469 C 85.644531 64.101562 85.992188 64.4375 86.378906 64.859375 C 85.78125 64.984375 85.308594 65.070312 84.75 65.183594 C 84.960938 65.359375 85.085938 65.457031 85.273438 65.605469 C 84.714844 65.730469 84.230469 65.828125 83.636719 65.964844 C 84.441406 66.375 85.097656 66.722656 85.324219 67.707031 C 84.765625 67.53125 84.328125 67.40625 83.90625 67.269531 C 83.933594 67.347656 83.957031 67.40625 83.984375 67.484375 C 83.683594 67.667969 83.375 67.855469 83.050781 68.066406 C 83.175781 68.253906 83.351562 68.515625 83.5625 68.835938 C 83.300781 68.863281 83.113281 68.875 82.941406 68.898438 C 82.976562 68.949219 83.003906 69 83.039062 69.046875 C 82.816406 69.261719 82.617188 69.558594 82.355469 69.65625 C 81.253906 70.042969 81.253906 70.03125 81.996094 71.035156 C 81.699219 71 81.464844 70.988281 81.226562 70.949219 C 80.199219 70.738281 79.21875 70.8125 78.289062 71.324219 C 78.015625 71.472656 77.730469 71.597656 77.445312 71.71875 C 76.699219 72.019531 76.300781 71.90625 75.832031 71.261719 C 75.59375 70.9375 75.398438 70.601562 75.1875 70.277344 C 74.132812 68.675781 72.566406 67.855469 70.730469 67.542969 C 70.410156 67.496094 70.0625 67.679688 69.714844 67.757812 C 69.902344 68.042969 70.0625 68.328125 70.261719 68.601562 C 70.371094 68.75 70.546875 68.875 70.757812 69.0625 C 70.222656 69.347656 69.777344 69.582031 69.242188 69.882812 C 69.539062 70.019531 69.703125 70.105469 69.863281 70.167969 C 71.152344 70.738281 72.023438 71.660156 72.371094 73.050781 C 72.457031 73.386719 72.59375 73.722656 72.753906 74.03125 C 73.4375 75.4375 73.214844 75.820312 71.648438 75.984375 C 71.5625 75.996094 71.464844 75.957031 71.402344 75.996094 C 71.117188 76.167969 70.804688 76.304688 70.582031 76.542969 C 70.421875 76.703125 70.398438 76.988281 70.308594 77.226562 C 70.171875 77.585938 69.960938 77.734375 69.617188 77.449219 C 68.648438 76.679688 67.519531 76.617188 66.378906 76.753906 C 65.792969 76.828125 65.234375 77.078125 64.664062 77.25 C 64.675781 77.335938 64.691406 77.425781 64.703125 77.511719 C 65.136719 77.550781 65.582031 77.5625 66.015625 77.609375 C 66.550781 77.6875 67.121094 77.722656 67.617188 77.921875 C 68.1875 78.144531 68.164062 78.628906 67.605469 78.917969 C 66.722656 79.375 65.804688 79.550781 64.902344 78.964844 C 64.40625 78.644531 63.921875 78.703125 63.375 78.855469 C 62.382812 79.113281 61.363281 79.277344 60.347656 79.425781 C 60.113281 79.464844 59.664062 79.328125 59.601562 79.152344 C 59.40625 78.628906 59.117188 78.792969 58.832031 78.953125 C 57.988281 79.402344 57.085938 79.539062 56.140625 79.464844 C 55.484375 79.414062 54.8125 79.386719 54.167969 79.300781 C 51.402344 78.941406 50.023438 77.535156 49.9375 74.800781 C 49.886719 73.136719 50.59375 71.621094 51.601562 70.367188 C 52.234375 69.570312 53.25 69.097656 54.082031 68.464844 C 54.527344 68.128906 55.011719 67.832031 55.371094 67.433594 C 55.71875 67.046875 55.769531 66.5 55.472656 66.042969 C 55.160156 65.582031 54.675781 65.59375 54.179688 65.730469 C 53.277344 65.980469 52.644531 66.550781 52.144531 67.332031 C 51.8125 67.867188 51.402344 68.390625 50.929688 68.800781 C 49.464844 70.078125 48.140625 70.066406 46.6875 68.75 C 46.042969 68.167969 45.484375 67.496094 44.863281 66.898438 C 44.515625 66.5625 44.117188 66.226562 43.699219 66.015625 C 43.050781 65.691406 42.382812 65.929688 42.011719 66.476562 C 41.664062 66.972656 41.722656 67.445312 42.355469 67.992188 C 42.953125 68.5 43.636719 68.898438 44.28125 69.347656 C 45.160156 69.957031 46.105469 70.503906 46.910156 71.1875 C 48.410156 72.453125 48.808594 74.117188 48.363281 76.019531 C 47.941406 77.824219 46.648438 78.703125 44.988281 79.089844 C 42.480469 79.675781 39.925781 79.835938 37.355469 79.835938 C 36.886719 79.835938 36.511719 79.699219 36.511719 79.078125 C 35.894531 79.265625 35.335938 79.4375 34.75 79.613281 C 34.777344 79.402344 34.789062 79.277344 34.828125 79.054688 C 34.132812 79.175781 33.511719 79.328125 32.890625 79.386719 C 32.433594 79.425781 31.910156 79.449219 31.511719 79.265625 C 31.078125 79.054688 30.804688 79.078125 30.472656 79.375 C 30.074219 79.722656 29.628906 79.949219 29.070312 79.785156 C 28.796875 78.109375 30.1875 77.710938 31.277344 76.964844 C 30.023438 76.441406 28.921875 76.230469 27.777344 76.867188 C 27.40625 77.078125 27.011719 77.277344 26.601562 77.386719 C 26.351562 77.449219 25.957031 77.4375 25.832031 77.277344 C 25.695312 77.113281 25.71875 76.714844 25.832031 76.492188 C 26.015625 76.109375 26.300781 75.773438 26.589844 75.460938 C 26.921875 75.101562 26.960938 74.816406 26.5625 74.480469 C 25.792969 73.820312 25.695312 73.324219 26.378906 72.554688 C 26.921875 71.933594 27.628906 71.433594 28.289062 70.898438 C 28.585938 70.652344 28.921875 70.441406 29.242188 70.214844 C 29.21875 70.15625 29.195312 70.078125 29.179688 70.019531 C 28.933594 69.980469 28.671875 69.882812 28.425781 69.894531 C 27.234375 70.003906 26.054688 70.15625 24.863281 70.253906 C 24.539062 70.277344 24.207031 70.214844 23.871094 70.191406 C 23.984375 69.894531 24.09375 69.59375 24.195312 69.285156 C 24.269531 69.046875 24.328125 68.800781 24.40625 68.550781 C 24.132812 68.515625 23.832031 68.378906 23.597656 68.441406 C 22.257812 68.789062 20.980469 69.347656 20.097656 70.429688 C 19.316406 71.371094 16.601562 71.769531 15.558594 71.359375 C 15.398438 71.296875 15.1875 70.925781 15.234375 70.839844 C 15.535156 70.316406 15.199219 70.054688 14.851562 69.820312 C 14.390625 69.507812 13.882812 69.261719 13.425781 68.949219 C 12.828125 68.550781 12.828125 68.363281 13.398438 67.96875 C 13.535156 67.878906 13.710938 67.84375 13.871094 67.792969 C 13.808594 67.695312 13.746094 67.59375 13.683594 67.496094 C 13.164062 67.40625 12.628906 67.308594 12.097656 67.222656 C 12.554688 66.625 12.554688 66.402344 12.035156 65.828125 C 11.773438 65.542969 11.464844 65.28125 11.191406 65.007812 C 10.917969 64.722656 10.65625 64.414062 10.398438 64.113281 C 10.65625 63.867188 10.84375 63.691406 11.152344 63.394531 C 10.097656 63.21875 9.21875 63.070312 8.199219 62.910156 C 8.410156 62.609375 8.5 62.472656 8.609375 62.351562 C 9.058594 61.828125 9.03125 61.691406 8.449219 61.394531 C 8.199219 61.269531 7.953125 61.144531 7.53125 60.933594 C 8.140625 60.535156 8.621094 60.238281 9.082031 59.925781 C 9.453125 59.679688 9.664062 59.378906 9.21875 58.980469 C 8.882812 58.695312 9.042969 58.484375 9.367188 58.324219 C 9.492188 58.261719 9.628906 58.210938 9.765625 58.148438 C 10.296875 57.863281 10.371094 57.554688 9.925781 57.144531 C 9.589844 56.832031 9.207031 56.597656 8.847656 56.324219 C 8.574219 56.097656 8.300781 55.863281 8.003906 55.613281 C 8.984375 54.992188 9.019531 54.867188 8.4375 54.023438 C 8.300781 53.824219 8.140625 53.625 7.988281 53.425781 C 7.394531 52.617188 7.394531 52.617188 8.015625 51.898438 C 7.890625 51.773438 7.765625 51.636719 7.644531 51.5 C 7.132812 50.992188 7.183594 50.78125 7.867188 50.480469 C 8.125 50.355469 8.386719 50.21875 8.648438 50.097656 C 8.636719 50.046875 8.621094 50.007812 8.609375 49.960938 C 7.816406 49.898438 7.035156 49.835938 6.242188 49.773438 C 6.351562 49.535156 6.476562 49.460938 6.574219 49.375 C 6.921875 49.078125 7.257812 48.777344 7.605469 48.480469 C 7.28125 48.195312 6.984375 47.859375 6.625 47.625 C 5.941406 47.175781 5.917969 47 6.613281 46.542969 C 7.46875 45.96875 7.65625 45.511719 7.40625 44.492188 C 7.355469 44.292969 7.28125 44.09375 7.246094 43.894531 C 7.144531 43.371094 7.269531 43 7.878906 42.914062 C 8.101562 42.886719 8.3125 42.789062 8.648438 42.675781 C 7.691406 42.328125 7.605469 42.003906 8.238281 41.421875 C 8.683594 41 9.207031 40.652344 9.703125 40.277344 C 9.886719 40.128906 10.0625 39.980469 10.296875 39.769531 C 9.738281 39.46875 9.28125 39.222656 8.609375 38.863281 C 9.292969 38.414062 9.8125 38.066406 10.335938 37.730469 C 10.929688 37.34375 11.054688 36.585938 10.546875 36.164062 C 10.296875 35.953125 9.960938 35.867188 9.675781 35.691406 C 9.292969 35.457031 8.882812 35.246094 8.5625 34.945312 C 8.351562 34.746094 8.1875 34.324219 8.636719 34.1875 C 9.390625 33.964844 9.925781 33.59375 9.925781 32.660156 C 11.066406 33.792969 11.066406 33.792969 11.6875 33.367188 C 11.738281 33.53125 11.8125 33.679688 11.835938 33.839844 C 11.933594 34.636719 12.023438 35.445312 12.132812 36.238281 C 12.222656 36.875 12.417969 36.972656 13.003906 36.675781 C 13.1875 36.574219 13.363281 36.464844 13.535156 36.351562 C 14.726562 35.605469 15.832031 34.660156 17.40625 34.808594 C 16.191406 34.289062 14.976562 33.988281 13.585938 34.398438 C 13.648438 33.941406 13.699219 33.554688 13.757812 33.167969 C 13.894531 32.398438 13.699219 32.015625 12.929688 31.863281 C 12.554688 31.800781 12.109375 31.890625 11.761719 32.050781 C 10.746094 32.535156 9.589844 31.890625 9.640625 30.746094 C 9.664062 30.261719 9.875 29.753906 10.125 29.328125 C 10.410156 28.820312 10.609375 27.976562 10.261719 27.800781 C 9.9375 27.640625 9.453125 27.726562 9.058594 27.789062 C 8.757812 27.839844 8.460938 27.976562 8.199219 28.148438 C 7.132812 28.855469 6.09375 29.589844 5.039062 30.3125 C 4.601562 30.597656 4.15625 30.859375 3.722656 31.132812 C 3.660156 31.070312 3.609375 31.007812 3.546875 30.945312 C 3.796875 30.609375 3.996094 30.222656 4.304688 29.949219 C 5.359375 29.019531 6.453125 28.136719 7.507812 27.214844 C 7.953125 26.832031 8.425781 26.421875 8.734375 25.9375 C 9.117188 25.339844 8.796875 24.855469 8.089844 24.90625 C 7.554688 24.941406 7.023438 25.054688 6.527344 25.226562 C 4.492188 25.898438 2.902344 27.253906 1.300781 28.597656 C 0.882812 28.84375 0.496094 29.082031 0.125 29.328125 C 0.125 29.242188 0.125 29.167969 0.125 29.082031 C 0.160156 29.054688 0.199219 29.042969 0.222656 29.019531 C 1.773438 26.695312 3.832031 24.894531 6.003906 23.191406 C 6.128906 23.089844 6.242188 22.964844 6.351562 22.84375 C 6.328125 22.792969 6.289062 22.742188 6.265625 22.691406 C 5.285156 22.941406 4.292969 23.179688 3.3125 23.425781 C 3.289062 23.375 3.277344 23.328125 3.25 23.277344 C 3.472656 23.117188 3.699219 22.929688 3.933594 22.792969 C 4.703125 22.359375 5.496094 21.960938 6.253906 21.5 C 6.5 21.351562 6.6875 21.078125 6.898438 20.867188 C 6.859375 20.804688 6.824219 20.742188 6.785156 20.679688 C 5.371094 20.566406 4.058594 21.214844 2.644531 21.277344 C 2.839844 21.089844 3.066406 20.964844 3.300781 20.855469 C 6.03125 19.511719 8.820312 18.355469 11.773438 17.621094 C 13.574219 17.175781 15.296875 16.480469 17.097656 16.042969 C 19.207031 15.535156 19.539062 15.785156 20.347656 17.820312 C 20.78125 18.914062 20.78125 18.925781 21.949219 18.867188 C 22.628906 18.828125 23.152344 19.015625 23.488281 19.648438 C 23.648438 19.957031 23.871094 20.257812 24.132812 20.46875 C 24.28125 20.59375 24.617188 20.628906 24.777344 20.542969 C 25.160156 20.320312 25.261719 19.648438 24.976562 19.289062 C 24.738281 18.988281 24.777344 18.777344 25.039062 18.554688 C 25.148438 18.457031 25.25 18.332031 25.445312 18.121094 C 24.988281 17.984375 24.640625 17.910156 24.304688 17.785156 C 23.546875 17.5 22.554688 17.375 22.097656 16.828125 C 21.167969 15.707031 20.113281 14.765625 19.042969 13.808594 C 19.019531 13.78125 18.996094 13.746094 18.96875 13.707031 C 18.066406 12.75 17.207031 11.730469 16.242188 10.835938 C 14.105469 8.847656 11.574219 7.433594 9.105469 5.929688 C 8.449219 5.53125 7.679688 5.28125 6.933594 5.058594 C 6.191406 4.835938 5.882812 5.082031 5.707031 5.867188 C 5.644531 6.152344 5.59375 6.4375 5.609375 6.722656 C 5.632812 7.679688 5.621094 8.636719 5.730469 9.570312 C 5.96875 11.445312 6.300781 13.324219 6.574219 15.199219 C 6.675781 15.882812 7.058594 16.117188 7.742188 16.042969 C 9.789062 15.796875 11.847656 15.585938 13.894531 15.347656 C 15.535156 15.160156 17.171875 14.964844 18.808594 14.777344 C 19.390625 14.714844 19.949219 14.800781 20.347656 15.25 C 20.496094 15.410156 20.484375 15.722656 20.535156 15.96875 C 20.324219 15.96875 20.113281 16.007812 19.902344 15.980469 C 19.070312 15.871094 18.226562 15.570312 17.417969 15.671875 C 15.746094 15.871094 14.082031 16.191406 12.445312 16.617188 C 10.894531 17.011719 9.40625 17.648438 7.742188 17.4375 C 7.308594 17.375 6.984375 17.574219 7.171875 18.15625 C 7.34375 18.730469 6.996094 19.140625 6.4375 19.039062 C 6.214844 19.003906 5.992188 18.765625 5.84375 18.578125 C 5.460938 18.09375 5.050781 17.734375 4.378906 17.820312 C 4.007812 17.871094 3.648438 17.933594 3.277344 17.996094 C 2.644531 18.09375 2.023438 18.207031 1.390625 18.304688 C 1.378906 18.242188 1.363281 18.183594 1.351562 18.132812 C 2.28125 17.808594 3.199219 17.472656 4.144531 17.1875 C 4.578125 17.0625 4.703125 16.800781 4.664062 16.417969 C 4.640625 16.167969 4.578125 15.933594 4.503906 15.695312 C 3.277344 11.609375 3.199219 7.394531 3.113281 3.207031 C 3.101562 2.632812 3.324219 2.039062 3.523438 1.480469 C 3.722656 0.933594 4.179688 0.683594 4.765625 0.796875 C 5.421875 0.90625 6.078125 1.007812 6.699219 1.191406 C 10.308594 2.285156 13.351562 4.335938 16.167969 6.785156 C 18.847656 9.121094 21.511719 11.484375 24.28125 13.707031 C 25.398438 14.613281 26.785156 15.1875 28.066406 15.882812 C 28.226562 15.96875 28.488281 15.859375 28.699219 15.832031 C 28.648438 15.648438 28.621094 15.433594 28.535156 15.261719 C 28.277344 14.777344 27.988281 14.316406 27.617188 13.683594 C 28.027344 13.734375 28.261719 13.695312 28.4375 13.78125 C 28.808594 13.96875 29.144531 14.191406 29.492188 14.429688 C 29.851562 14.664062 30.171875 14.964844 30.558594 15.175781 C 30.730469 15.273438 31.042969 15.296875 31.191406 15.199219 C 31.328125 15.113281 31.363281 14.8125 31.363281 14.601562 C 31.378906 14.339844 31.300781 14.09375 31.242188 13.644531 C 31.699219 13.894531 32.035156 14.042969 32.332031 14.242188 C 33.078125 14.75 33.894531 14.988281 34.789062 14.914062 C 36.105469 14.8125 37.417969 14.714844 38.734375 14.589844 C 39.949219 14.476562 41.152344 14.28125 42.355469 14.191406 C 43.363281 14.117188 44.378906 14.191406 45.382812 14.144531 C 47.257812 14.042969 49.132812 13.90625 51.003906 13.78125 C 53.027344 13.65625 55.023438 13.832031 57.035156 14.21875 C 59.253906 14.640625 61.574219 15.1875 63.621094 13.519531 C 63.757812 13.410156 63.996094 13.421875 64.195312 13.382812 C 64.230469 13.597656 64.292969 13.808594 64.292969 14.019531 C 64.28125 14.429688 64.207031 14.828125 64.167969 15.238281 C 64.269531 15.285156 64.355469 15.324219 64.453125 15.375 C 64.8125 14.925781 65.1875 14.476562 65.535156 14.03125 C 65.894531 13.558594 66.242188 13.0625 66.625 12.539062 C 67.070312 13.199219 67.121094 13.929688 66.875 15.050781 C 66.722656 15.734375 67.011719 16.042969 67.679688 15.820312 C 68.226562 15.632812 68.773438 15.398438 69.230469 15.0625 C 70.957031 13.78125 72.667969 12.488281 74.355469 11.148438 C 75.324219 10.363281 76.363281 9.71875 77.605469 9.617188 C 78.375 9.558594 78.984375 9.257812 79.589844 8.847656 C 79.988281 8.585938 80.382812 8.3125 80.757812 8.027344 C 83.300781 6.039062 85.695312 3.878906 88.546875 2.3125 C 90.050781 1.492188 91.5625 0.695312 93.261719 0.359375 C 94.839844 0.0625 95.285156 0.421875 95.410156 2.027344 C 95.410156 2.085938 95.421875 2.148438 95.421875 2.210938 C 95.335938 3.753906 95.324219 5.308594 95.160156 6.847656 C 94.851562 9.804688 94.441406 12.75 93.25 15.523438 C 93.089844 15.894531 93.164062 16.15625 93.460938 16.390625 C 93.699219 16.589844 93.957031 16.765625 94.179688 16.976562 C 94.578125 17.347656 94.949219 17.734375 95.335938 18.105469 C 95.296875 18.15625 95.25 18.207031 95.210938 18.257812 C 94.839844 18.019531 94.464844 17.757812 94.070312 17.574219 C 93.699219 17.398438 93.277344 17.027344 92.828125 17.609375 C 93.710938 18.34375 94.925781 18.59375 95.59375 19.597656 C 95.234375 19.535156 94.914062 19.398438 94.601562 19.261719 C 94.09375 19.050781 93.585938 18.816406 93.066406 18.628906 C 92.941406 18.578125 92.765625 18.667969 92.617188 18.679688 C 92.667969 18.828125 92.679688 19.027344 92.777344 19.113281 C 93.027344 19.324219 93.3125 19.5 93.597656 19.648438 C 94.328125 20.019531 95.074219 20.382812 95.804688 20.753906 C 95.980469 20.839844 96.128906 20.992188 96.289062 21.113281 C 96.265625 21.140625 96.242188 21.175781 96.214844 21.203125 C 95.285156 20.855469 94.355469 20.519531 93.4375 20.171875 C 93.410156 20.230469 93.386719 20.308594 93.363281 20.367188 C 94.851562 21.164062 96.339844 21.960938 97.828125 22.769531 C 97.792969 22.84375 97.753906 22.917969 97.730469 22.992188 C 96.152344 22.34375 94.578125 21.710938 93.003906 21.066406 C 92.953125 21.128906 92.914062 21.203125 92.867188 21.265625 C 93.039062 21.5 93.1875 21.785156 93.398438 21.972656 C 93.832031 22.34375 94.292969 22.707031 94.777344 23.015625 C 96.203125 23.960938 97.65625 24.867188 99.09375 25.800781 C 99.441406 26.035156 99.777344 26.246094 100.125 26.472656 Z M 89.886719 16.328125 C 90.136719 15.648438 90.410156 14.886719 90.683594 14.128906 C 91.699219 11.335938 92.617188 8.511719 92.753906 5.492188 C 92.792969 4.5625 92.691406 4.460938 91.785156 4.683594 C 89.527344 5.246094 87.46875 6.300781 85.644531 7.679688 C 83.300781 9.445312 81.117188 11.394531 78.871094 13.296875 C 78.660156 13.472656 78.4375 13.894531 78.511719 14.066406 C 78.609375 14.304688 78.996094 14.492188 79.28125 14.527344 C 80.039062 14.640625 80.804688 14.628906 81.5625 14.726562 C 83.871094 15.023438 86.054688 15.746094 88.152344 16.765625 C 89.007812 17.175781 89.9375 17.4375 90.90625 17.421875 C 90.957031 17.347656 90.992188 17.273438 91.042969 17.1875 C 90.695312 16.9375 90.359375 16.679688 89.886719 16.328125 Z M 29.527344 44.28125 C 29.390625 44.230469 29.28125 44.15625 29.167969 44.144531 C 27.46875 43.96875 25.769531 43.796875 24.058594 43.644531 C 23.699219 43.621094 23.300781 43.683594 22.964844 43.808594 C 22.691406 43.90625 22.320312 44.105469 22.269531 44.328125 C 22.222656 44.527344 22.480469 44.902344 22.703125 45.050781 C 23.5625 45.632812 23.996094 46.46875 24.269531 47.425781 C 24.875 49.648438 26.390625 51.066406 28.425781 51.960938 C 29.960938 52.644531 31.613281 52.96875 33.289062 53.015625 C 34.492188 53.054688 35.730469 53.003906 36.898438 52.753906 C 37.867188 52.542969 38.671875 52.59375 39.464844 53.164062 C 39.652344 53.300781 39.902344 53.339844 40.113281 53.425781 C 40.1875 53.179688 40.335938 52.929688 40.308594 52.695312 C 40.125 51.140625 39.578125 49.734375 38.425781 48.628906 C 37.121094 47.386719 35.621094 46.46875 33.996094 45.722656 C 33.859375 45.660156 33.710938 45.621094 33.5 45.546875 C 33.523438 46.070312 33.574219 46.53125 33.5625 46.976562 C 33.523438 48.195312 33.511719 49.414062 33.375 50.617188 C 33.289062 51.425781 32.867188 51.574219 32.246094 51.054688 C 31.75 50.644531 31.277344 50.132812 30.941406 49.585938 C 29.9375 47.984375 29.417969 46.21875 29.527344 44.28125 Z M 67.742188 44.007812 C 67.878906 46.09375 67.308594 47.933594 66.253906 49.597656 C 65.894531 50.171875 65.324219 50.628906 64.800781 51.078125 C 64.441406 51.390625 64.09375 51.238281 63.96875 50.765625 C 63.882812 50.433594 63.785156 50.082031 63.773438 49.734375 C 63.746094 48.269531 63.757812 46.804688 63.757812 45.335938 C 60.359375 46.019531 56.527344 51.238281 57.703125 53.652344 C 57.867188 53.574219 58.050781 53.539062 58.1875 53.425781 C 59.105469 52.667969 60.148438 52.707031 61.289062 52.753906 C 63.722656 52.867188 66.191406 52.878906 68.488281 51.910156 C 70.445312 51.078125 71.996094 49.75 72.617188 47.648438 C 72.964844 46.480469 73.386719 45.496094 74.515625 44.902344 C 74.726562 44.789062 74.839844 44.464844 75 44.230469 C 74.765625 44.082031 74.554688 43.859375 74.304688 43.808594 C 72.121094 43.3125 69.949219 43.507812 67.742188 44.007812 Z M 16.214844 30.859375 C 16.378906 30.808594 16.722656 30.707031 17.070312 30.621094 C 16.910156 30.3125 16.800781 29.964844 16.589844 29.691406 C 16.09375 29.007812 16.078125 28.644531 16.625 27.914062 C 17.160156 27.191406 17.046875 26.644531 16.191406 26.421875 C 15.472656 26.234375 14.691406 26.210938 13.933594 26.183594 C 13.535156 26.171875 13.113281 26.285156 12.730469 26.421875 C 12.222656 26.621094 12.171875 26.941406 12.59375 27.292969 C 12.839844 27.503906 13.152344 27.652344 13.410156 27.839844 C 13.710938 28.050781 14.132812 28.199219 13.984375 28.683594 C 13.820312 29.179688 13.375 29.265625 12.929688 29.242188 C 12.730469 29.230469 12.519531 29.191406 12.332031 29.117188 C 11.949219 28.957031 11.601562 28.894531 11.4375 29.402344 C 11.300781 29.828125 11.601562 30.285156 12.085938 30.359375 C 13.398438 30.523438 14.703125 30.671875 16.214844 30.859375 Z M 17.195312 23.449219 C 17.207031 23.363281 17.234375 23.289062 17.246094 23.203125 C 16.738281 23.003906 16.214844 22.816406 15.707031 22.605469 C 15.433594 22.496094 15.050781 22.40625 14.925781 22.195312 C 14.417969 21.3125 14.167969 21.078125 13.289062 21.3125 C 11.539062 21.773438 10.0625 22.667969 9.144531 24.285156 C 9.019531 24.507812 9.03125 24.816406 8.996094 25.089844 C 9.28125 25.066406 9.566406 25.066406 9.851562 25.015625 C 9.988281 24.992188 10.125 24.90625 10.234375 24.832031 C 11.664062 23.921875 13.238281 23.648438 14.886719 23.585938 C 15.671875 23.5625 16.425781 23.5 17.195312 23.449219 Z M 76.960938 34.625 C 77.804688 34.734375 78.410156 34.449219 78.933594 34.050781 C 80.546875 32.808594 82.308594 31.863281 84.207031 31.144531 C 84.8125 30.90625 85.296875 30.359375 85.84375 29.949219 C 85.832031 29.890625 85.832031 29.839844 85.820312 29.777344 C 85.496094 29.777344 85.148438 29.726562 84.839844 29.789062 C 83.039062 30.113281 81.5 31.042969 79.976562 31.988281 C 78.871094 32.683594 77.914062 33.542969 76.960938 34.625 Z M 87.070312 26.0625 C 85.433594 25.652344 81.378906 26.496094 80.398438 28.660156 C 80.867188 28.84375 81.527344 28.71875 82.234375 28.308594 C 82.394531 28.210938 82.628906 28.085938 82.777344 28.136719 C 84.777344 28.757812 85.820312 27.277344 87.058594 26.234375 C 87.097656 26.210938 87.070312 26.148438 87.070312 26.0625 Z M 80.96875 16.578125 C 80.84375 16.367188 80.832031 16.34375 80.820312 16.328125 C 80.757812 16.304688 80.707031 16.28125 80.644531 16.28125 C 79.8125 16.28125 79.058594 16.167969 78.621094 15.296875 C 78.5625 15.160156 78.199219 15.050781 78.039062 15.113281 C 77.878906 15.175781 77.742188 15.433594 77.679688 15.632812 C 77.554688 15.980469 77.566406 16.378906 77.40625 16.691406 C 76.910156 17.695312 76.09375 18.355469 75.0625 18.789062 C 74.777344 18.902344 74.527344 19.078125 74.253906 19.226562 C 74.578125 19.3125 74.839844 19.300781 75.097656 19.25 C 76.179688 19.039062 77.28125 18.828125 77.988281 17.894531 C 78.472656 17.25 79.058594 16.914062 79.863281 16.875 C 80.210938 16.839844 80.558594 16.691406 80.96875 16.578125 Z M 80.96875 16.578125 "/>
<path style=" stroke:none;fill-rule:nonzero;fill:rgb(100%,100%,100%);fill-opacity:1;" d="M 0.125 29.328125 C 0.496094 29.082031 0.882812 28.84375 1.226562 28.558594 C 2.828125 27.214844 4.429688 25.863281 6.453125 25.191406 C 6.960938 25.03125 7.492188 24.90625 8.015625 24.867188 C 8.722656 24.816406 9.042969 25.304688 8.660156 25.898438 C 8.351562 26.382812 7.878906 26.792969 7.433594 27.179688 C 6.378906 28.097656 5.273438 28.980469 4.230469 29.914062 C 3.921875 30.1875 3.722656 30.570312 3.472656 30.90625 C 3.535156 30.96875 3.585938 31.03125 3.648438 31.09375 C 4.09375 30.820312 4.539062 30.558594 4.960938 30.273438 C 6.015625 29.566406 7.058594 28.820312 8.125 28.113281 C 8.375 27.9375 8.683594 27.800781 8.984375 27.75 C 9.378906 27.6875 9.863281 27.601562 10.1875 27.761719 C 10.535156 27.9375 10.324219 28.796875 10.050781 29.292969 C 9.800781 29.726562 9.589844 30.222656 9.566406 30.707031 C 9.515625 31.851562 10.671875 32.5 11.6875 32.015625 C 12.035156 31.851562 12.492188 31.753906 12.855469 31.828125 C 13.621094 31.964844 13.820312 32.347656 13.683594 33.132812 C 13.621094 33.503906 13.574219 33.890625 13.511719 34.363281 C 14.902344 33.953125 16.128906 34.25 17.332031 34.773438 C 15.769531 34.625 14.652344 35.582031 13.460938 36.3125 C 13.289062 36.425781 13.113281 36.539062 12.929688 36.636719 C 12.34375 36.933594 12.144531 36.835938 12.058594 36.203125 C 11.949219 35.40625 11.875 34.597656 11.761719 33.804688 C 11.738281 33.640625 11.675781 33.492188 11.613281 33.332031 C 11.003906 33.753906 11.003906 33.753906 9.851562 32.621094 C 9.851562 33.554688 9.316406 33.929688 8.5625 34.152344 C 8.113281 34.277344 8.277344 34.710938 8.488281 34.910156 C 8.808594 35.207031 9.21875 35.429688 9.601562 35.65625 C 9.886719 35.828125 10.222656 35.917969 10.472656 36.128906 C 10.980469 36.550781 10.855469 37.308594 10.261719 37.691406 C 9.738281 38.027344 9.21875 38.375 8.535156 38.824219 C 9.207031 39.183594 9.664062 39.433594 10.222656 39.730469 C 9.976562 39.941406 9.800781 40.09375 9.628906 40.242188 C 9.144531 40.625 8.621094 40.960938 8.164062 41.382812 C 7.53125 41.980469 7.617188 42.292969 8.574219 42.640625 C 8.238281 42.738281 8.027344 42.839844 7.804688 42.875 C 7.195312 42.949219 7.070312 43.335938 7.171875 43.859375 C 7.207031 44.054688 7.28125 44.253906 7.332031 44.453125 C 7.582031 45.472656 7.40625 45.945312 6.539062 46.503906 C 5.84375 46.964844 5.867188 47.125 6.550781 47.585938 C 6.910156 47.820312 7.207031 48.15625 7.53125 48.441406 C 7.183594 48.742188 6.847656 49.050781 6.5 49.339844 C 6.402344 49.425781 6.277344 49.5 6.167969 49.734375 C 6.960938 49.796875 7.742188 49.859375 8.535156 49.921875 C 8.546875 49.972656 8.5625 50.007812 8.574219 50.058594 C 8.3125 50.183594 8.066406 50.320312 7.792969 50.445312 C 7.109375 50.742188 7.070312 50.953125 7.566406 51.464844 C 7.691406 51.585938 7.816406 51.722656 7.941406 51.859375 C 7.320312 52.582031 7.320312 52.59375 7.914062 53.390625 C 8.066406 53.589844 8.226562 53.789062 8.363281 53.984375 C 8.933594 54.832031 8.90625 54.957031 7.929688 55.578125 C 8.226562 55.824219 8.488281 56.0625 8.773438 56.285156 C 9.132812 56.570312 9.527344 56.808594 9.851562 57.105469 C 10.285156 57.515625 10.222656 57.828125 9.691406 58.113281 C 9.566406 58.175781 9.429688 58.222656 9.292969 58.285156 C 8.96875 58.449219 8.820312 58.648438 9.144531 58.945312 C 9.589844 59.34375 9.378906 59.628906 9.007812 59.890625 C 8.535156 60.199219 8.066406 60.5 7.457031 60.894531 C 7.878906 61.105469 8.125 61.230469 8.375 61.355469 C 8.96875 61.640625 8.984375 61.789062 8.535156 62.3125 C 8.4375 62.4375 8.351562 62.574219 8.125 62.871094 C 9.144531 63.046875 10.023438 63.183594 11.078125 63.355469 C 10.769531 63.65625 10.582031 63.828125 10.324219 64.078125 C 10.582031 64.375 10.84375 64.675781 11.117188 64.972656 C 11.390625 65.257812 11.699219 65.507812 11.960938 65.792969 C 12.480469 66.363281 12.480469 66.585938 12.023438 67.183594 C 12.554688 67.269531 13.078125 67.371094 13.609375 67.457031 C 13.671875 67.558594 13.734375 67.65625 13.796875 67.757812 C 13.636719 67.816406 13.460938 67.84375 13.324219 67.929688 C 12.753906 68.328125 12.753906 68.515625 13.351562 68.910156 C 13.808594 69.222656 14.316406 69.472656 14.777344 69.78125 C 15.113281 70.019531 15.445312 70.277344 15.160156 70.800781 C 15.113281 70.886719 15.324219 71.261719 15.484375 71.324219 C 16.527344 71.734375 19.242188 71.347656 20.023438 70.390625 C 20.90625 69.308594 22.183594 68.75 23.523438 68.402344 C 23.773438 68.339844 24.058594 68.464844 24.328125 68.515625 C 24.253906 68.761719 24.195312 69.011719 24.117188 69.246094 C 24.019531 69.546875 23.90625 69.84375 23.796875 70.15625 C 24.132812 70.179688 24.464844 70.253906 24.789062 70.214844 C 25.980469 70.105469 27.160156 69.957031 28.351562 69.855469 C 28.597656 69.832031 28.847656 69.929688 29.105469 69.980469 C 29.132812 70.042969 29.15625 70.117188 29.167969 70.179688 C 28.847656 70.402344 28.523438 70.613281 28.214844 70.863281 C 27.566406 71.398438 26.859375 71.882812 26.300781 72.515625 C 25.621094 73.285156 25.71875 73.785156 26.488281 74.441406 C 26.886719 74.777344 26.859375 75.0625 26.511719 75.425781 C 26.214844 75.734375 25.941406 76.082031 25.757812 76.457031 C 25.644531 76.679688 25.621094 77.089844 25.757812 77.238281 C 25.882812 77.386719 26.289062 77.414062 26.527344 77.351562 C 26.933594 77.238281 27.332031 77.039062 27.703125 76.828125 C 28.847656 76.195312 29.949219 76.40625 31.203125 76.929688 C 30.113281 77.671875 28.710938 78.070312 28.996094 79.75 C 29.554688 79.910156 30 79.699219 30.398438 79.339844 C 30.730469 79.039062 31.003906 79.027344 31.4375 79.226562 C 31.835938 79.414062 32.355469 79.386719 32.816406 79.351562 C 33.449219 79.300781 34.058594 79.140625 34.75 79.015625 C 34.726562 79.238281 34.703125 79.363281 34.675781 79.574219 C 35.261719 79.402344 35.820312 79.226562 36.4375 79.039062 C 36.4375 79.660156 36.8125 79.796875 37.28125 79.796875 C 39.851562 79.785156 42.40625 79.636719 44.914062 79.054688 C 46.574219 78.667969 47.867188 77.785156 48.289062 75.984375 C 48.734375 74.082031 48.335938 72.429688 46.835938 71.148438 C 46.03125 70.453125 45.085938 69.917969 44.207031 69.308594 C 43.5625 68.863281 42.878906 68.464844 42.28125 67.953125 C 41.648438 67.40625 41.601562 66.9375 41.933594 66.4375 C 42.308594 65.890625 42.988281 65.667969 43.621094 65.980469 C 44.058594 66.191406 44.441406 66.527344 44.789062 66.859375 C 45.421875 67.457031 45.980469 68.128906 46.613281 68.714844 C 48.066406 70.03125 49.390625 70.054688 50.855469 68.761719 C 51.328125 68.351562 51.722656 67.832031 52.070312 67.296875 C 52.566406 66.511719 53.199219 65.941406 54.105469 65.691406 C 54.589844 65.554688 55.085938 65.542969 55.398438 66.003906 C 55.695312 66.464844 55.644531 67.011719 55.296875 67.394531 C 54.9375 67.804688 54.453125 68.105469 54.007812 68.425781 C 53.164062 69.046875 52.160156 69.535156 51.527344 70.328125 C 50.519531 71.582031 49.800781 73.101562 49.863281 74.765625 C 49.949219 77.5 51.328125 78.902344 54.09375 79.265625 C 54.75 79.351562 55.410156 79.375 56.066406 79.425781 C 57.011719 79.5 57.914062 79.375 58.757812 78.917969 C 59.042969 78.765625 59.34375 78.605469 59.527344 79.113281 C 59.589844 79.277344 60.039062 79.425781 60.273438 79.386719 C 61.289062 79.238281 62.308594 79.078125 63.300781 78.816406 C 63.859375 78.667969 64.328125 78.605469 64.828125 78.929688 C 65.730469 79.511719 66.648438 79.339844 67.53125 78.878906 C 68.089844 78.582031 68.101562 78.109375 67.542969 77.882812 C 67.046875 77.6875 66.476562 77.648438 65.941406 77.574219 C 65.507812 77.511719 65.0625 77.5 64.628906 77.472656 C 64.617188 77.386719 64.601562 77.300781 64.589844 77.214844 C 65.160156 77.039062 65.71875 76.792969 66.300781 76.714844 C 67.445312 76.566406 68.574219 76.628906 69.539062 77.414062 C 69.886719 77.699219 70.097656 77.550781 70.234375 77.1875 C 70.324219 76.953125 70.347656 76.667969 70.507812 76.503906 C 70.730469 76.269531 71.042969 76.121094 71.328125 75.957031 C 71.390625 75.921875 71.488281 75.945312 71.574219 75.945312 C 73.140625 75.785156 73.363281 75.398438 72.679688 73.996094 C 72.53125 73.683594 72.382812 73.347656 72.296875 73.011719 C 71.949219 71.621094 71.066406 70.703125 69.789062 70.128906 C 69.628906 70.054688 69.453125 69.980469 69.167969 69.84375 C 69.714844 69.558594 70.160156 69.308594 70.683594 69.023438 C 70.472656 68.824219 70.296875 68.714844 70.1875 68.5625 C 69.988281 68.289062 69.828125 68.003906 69.640625 67.71875 C 69.976562 67.644531 70.335938 67.457031 70.65625 67.507812 C 72.492188 67.816406 74.058594 68.636719 75.113281 70.242188 C 75.324219 70.566406 75.535156 70.914062 75.757812 71.222656 C 76.226562 71.871094 76.613281 71.980469 77.371094 71.683594 C 77.65625 71.570312 77.941406 71.433594 78.214844 71.285156 C 79.144531 70.777344 80.136719 70.703125 81.152344 70.914062 C 81.378906 70.960938 81.613281 70.976562 81.921875 71 C 81.179688 69.992188 81.179688 70.019531 82.28125 69.621094 C 82.554688 69.519531 82.742188 69.222656 82.964844 69.011719 C 82.929688 68.960938 82.902344 68.910156 82.867188 68.863281 C 83.039062 68.851562 83.214844 68.824219 83.488281 68.800781 C 83.277344 68.476562 83.101562 68.214844 82.976562 68.03125 C 83.3125 67.816406 83.609375 67.632812 83.90625 67.445312 C 83.882812 67.371094 83.859375 67.308594 83.832031 67.234375 C 84.269531 67.371094 84.703125 67.496094 85.25 67.667969 C 85.039062 66.6875 84.367188 66.339844 83.5625 65.929688 C 84.15625 65.804688 84.640625 65.691406 85.199219 65.570312 C 85.011719 65.417969 84.886719 65.320312 84.675781 65.144531 C 85.234375 65.035156 85.707031 64.949219 86.300781 64.824219 C 85.917969 64.414062 85.558594 64.066406 85.25 63.691406 C 84.976562 63.367188 85.222656 62.550781 85.609375 62.25 C 86.105469 61.867188 86.613281 61.46875 87.046875 61.007812 C 87.71875 60.300781 88.25 59.453125 89.429688 59.390625 C 89.105469 58.96875 88.699219 58.671875 88.648438 58.3125 C 88.585938 57.9375 88.871094 57.503906 89.03125 57.019531 C 88.609375 57.128906 88.261719 57.21875 87.804688 57.328125 C 88.039062 56.050781 88.871094 56.496094 89.527344 56.546875 C 89.566406 56.496094 89.601562 56.433594 89.640625 56.382812 C 89.167969 55.800781 88.710938 55.203125 88.140625 54.484375 C 88.859375 54.546875 89.492188 54.609375 90.125 54.65625 C 90.148438 54.609375 90.171875 54.558594 90.199219 54.507812 C 89.9375 54.296875 89.675781 54.085938 89.417969 53.886719 C 88.636719 53.300781 88.636719 53.152344 89.492188 52.570312 C 89.070312 52.570312 88.710938 52.570312 88.363281 52.570312 C 87.691406 52.582031 87.59375 52.40625 87.902344 51.800781 C 87.953125 51.710938 88.003906 51.613281 88.050781 51.527344 C 88.488281 50.867188 88.488281 50.246094 88.050781 49.5625 C 87.417969 48.554688 87.480469 48.320312 88.398438 47.523438 C 88.511719 47.425781 88.609375 47.3125 88.734375 47.25 C 89.914062 46.652344 89.863281 45.421875 90.1875 44.40625 C 90.199219 44.367188 90.1875 44.316406 90.171875 44.28125 C 90.160156 44.242188 90.136719 44.207031 90.1875 44.304688 C 89.28125 44.03125 88.472656 43.796875 87.582031 43.535156 C 88.289062 42.75 89.230469 42.925781 90.0625 42.789062 C 90.085938 42.738281 90.125 42.675781 90.148438 42.628906 C 89.828125 42.355469 89.539062 41.992188 89.167969 41.808594 C 88.410156 41.410156 88.039062 40.875 88.25 40.015625 C 88.261719 39.941406 88.238281 39.855469 88.226562 39.769531 C 87.40625 39.867188 87.417969 39.855469 86.933594 39.183594 C 86.738281 38.910156 86.464844 38.675781 86.167969 38.351562 C 86.601562 38.066406 87.058594 37.753906 87.59375 37.40625 C 86.613281 37.222656 85.746094 37.046875 84.875 36.886719 C 84.863281 36.796875 84.851562 36.710938 84.828125 36.613281 C 85.472656 36.164062 86.117188 35.71875 86.75 35.269531 C 86.75 35.207031 86.738281 35.144531 86.738281 35.097656 C 85.96875 35.035156 85.199219 34.972656 84.441406 34.898438 C 84.417969 34.835938 84.40625 34.761719 84.378906 34.699219 C 84.714844 34.511719 85.039062 34.277344 85.398438 34.125 C 85.941406 33.914062 86.226562 33.554688 86.402344 32.996094 C 86.574219 32.449219 86.898438 31.925781 87.246094 31.46875 C 87.777344 30.757812 88.289062 30.113281 88.199219 29.128906 C 88.164062 28.734375 88.363281 28.285156 88.523438 27.886719 C 88.832031 27.179688 89.316406 26.980469 90.085938 27.167969 C 90.285156 27.214844 90.496094 27.167969 90.707031 27.167969 C 90.632812 26.957031 90.609375 26.71875 90.484375 26.558594 C 90.074219 26 89.527344 25.675781 88.808594 25.664062 C 88.585938 25.664062 88.289062 25.464844 88.175781 25.265625 C 87.929688 24.84375 87.777344 24.359375 87.554688 23.921875 C 87.222656 23.277344 86.664062 22.917969 85.929688 23.066406 C 84.914062 23.277344 83.984375 23.015625 83.027344 22.71875 C 81.527344 22.257812 79.976562 22.222656 78.4375 22.554688 C 78.3125 22.582031 78.1875 22.605469 78.089844 22.667969 C 77.914062 22.792969 77.765625 22.941406 77.605469 23.089844 C 77.765625 23.226562 77.914062 23.4375 78.101562 23.488281 C 78.957031 23.710938 79.828125 23.875 80.683594 24.097656 C 80.917969 24.160156 81.117188 24.347656 81.339844 24.46875 C 81.152344 24.644531 80.992188 24.941406 80.78125 24.980469 C 80.0625 25.128906 79.316406 25.328125 78.597656 25.253906 C 77.492188 25.140625 76.453125 25.140625 75.445312 25.636719 C 74.949219 25.886719 74.75 25.6875 74.601562 25.226562 C 74.242188 24.097656 74.976562 22.730469 76.226562 22.257812 C 76.511719 22.144531 76.859375 22.097656 77.070312 21.910156 C 77.296875 21.722656 77.53125 21.375 77.519531 21.113281 C 77.480469 20.59375 77.703125 20.40625 78.152344 20.320312 C 80.695312 19.820312 83.238281 19.835938 85.78125 20.40625 C 89.378906 21.214844 92.703125 22.707031 95.917969 24.457031 C 97.109375 25.117188 98.300781 25.789062 99.492188 26.433594 C 99.664062 26.535156 99.863281 26.59375 100.050781 26.671875 C 100.050781 46.453125 100.050781 66.253906 100.050781 86.074219 C 83.585938 86.074219 67.132812 86.074219 50.671875 86.074219 C 51.265625 85.824219 51.875 85.613281 52.457031 85.339844 C 52.953125 85.105469 53.386719 84.707031 53.90625 84.582031 C 54.703125 84.382812 55.546875 84.371094 56.351562 84.222656 C 56.710938 84.148438 57.171875 84.035156 57.382812 83.777344 C 58.003906 83.03125 58.710938 82.433594 59.515625 81.921875 C 59.617188 81.863281 59.703125 81.761719 59.789062 81.675781 C 60.085938 81.300781 60.023438 81.003906 59.554688 81.003906 C 58.808594 81.003906 58.039062 81.078125 57.320312 81.265625 C 56.800781 81.402344 56.4375 81.363281 56.03125 81.003906 C 55.804688 80.804688 55.433594 80.730469 55.113281 80.71875 C 54.589844 80.691406 54.042969 80.855469 53.535156 80.769531 C 52.628906 80.605469 51.738281 80.332031 50.855469 80.058594 C 49.960938 79.785156 49.167969 79.898438 48.375 80.382812 C 48.113281 80.542969 47.730469 80.53125 47.394531 80.570312 C 47.195312 80.59375 46.984375 80.558594 46.785156 80.582031 C 46.003906 80.691406 45.210938 80.804688 44.390625 80.929688 C 44.40625 80.65625 44.417969 80.519531 44.429688 80.320312 C 43.90625 80.542969 43.472656 80.792969 43.003906 80.917969 C 42.667969 81.003906 42.234375 81.042969 41.960938 80.890625 C 41.5625 80.691406 41.378906 80.792969 41.242188 81.117188 C 40.980469 81.699219 40.535156 81.8125 39.960938 81.699219 C 39.601562 81.636719 39.230469 81.550781 38.859375 81.527344 C 38.660156 81.511719 38.363281 81.574219 38.277344 81.710938 C 38.1875 81.863281 38.238281 82.171875 38.335938 82.332031 C 38.523438 82.59375 38.773438 82.855469 39.058594 82.992188 C 40.695312 83.8125 42.34375 84.609375 44.019531 85.367188 C 44.304688 85.492188 44.789062 85.527344 45.023438 85.367188 C 45.632812 84.945312 46.242188 85.003906 46.859375 85.167969 C 47.855469 85.441406 48.832031 85.765625 49.8125 86.0625 C 33.238281 86.0625 16.664062 86.0625 0.0625 86.0625 C 0.125 67.195312 0.125 48.257812 0.125 29.328125 Z M 0.125 29.328125 "/>
<path style=" stroke:none;fill-rule:nonzero;fill:rgb(100%,100%,100%);fill-opacity:1;" d="M 100.125 26.472656 C 99.777344 26.246094 99.441406 26.035156 99.09375 25.8125 C 97.65625 24.894531 96.203125 23.972656 94.777344 23.027344 C 94.292969 22.71875 93.832031 22.359375 93.398438 21.984375 C 93.175781 21.796875 93.039062 21.511719 92.867188 21.277344 C 92.914062 21.214844 92.953125 21.140625 93.003906 21.078125 C 94.578125 21.722656 96.152344 22.359375 97.730469 23.003906 C 97.765625 22.929688 97.804688 22.855469 97.828125 22.78125 C 96.339844 21.984375 94.851562 21.1875 93.363281 20.382812 C 93.386719 20.320312 93.410156 20.246094 93.4375 20.183594 C 94.367188 20.53125 95.296875 20.867188 96.214844 21.214844 C 96.242188 21.1875 96.265625 21.152344 96.289062 21.128906 C 96.128906 21.003906 95.980469 20.867188 95.804688 20.765625 C 95.074219 20.394531 94.328125 20.046875 93.597656 19.660156 C 93.3125 19.511719 93.027344 19.335938 92.777344 19.125 C 92.679688 19.039062 92.667969 18.839844 92.617188 18.691406 C 92.765625 18.667969 92.941406 18.59375 93.066406 18.640625 C 93.585938 18.828125 94.09375 19.0625 94.601562 19.277344 C 94.925781 19.414062 95.234375 19.535156 95.59375 19.609375 C 94.9375 18.605469 93.710938 18.355469 92.828125 17.621094 C 93.277344 17.039062 93.699219 17.398438 94.070312 17.585938 C 94.464844 17.773438 94.828125 18.03125 95.210938 18.269531 C 95.25 18.21875 95.296875 18.167969 95.335938 18.121094 C 94.949219 17.734375 94.578125 17.347656 94.179688 16.988281 C 93.957031 16.777344 93.699219 16.601562 93.460938 16.40625 C 93.164062 16.167969 93.101562 15.894531 93.25 15.535156 C 94.441406 12.761719 94.851562 9.816406 95.160156 6.859375 C 95.324219 5.320312 95.347656 3.765625 95.421875 2.222656 C 95.421875 2.164062 95.421875 2.101562 95.410156 2.039062 C 95.285156 0.433594 94.839844 0.0742188 93.261719 0.371094 C 91.5625 0.695312 90.039062 1.503906 88.535156 2.324219 C 85.683594 3.878906 83.289062 6.050781 80.746094 8.039062 C 80.371094 8.339844 79.976562 8.601562 79.578125 8.859375 C 78.96875 9.257812 78.363281 9.558594 77.59375 9.632812 C 76.351562 9.742188 75.308594 10.390625 74.34375 11.160156 C 72.667969 12.503906 70.957031 13.792969 69.21875 15.074219 C 68.757812 15.410156 68.214844 15.648438 67.667969 15.832031 C 66.996094 16.058594 66.722656 15.746094 66.859375 15.0625 C 67.097656 13.929688 67.046875 13.210938 66.613281 12.550781 C 66.226562 13.074219 65.882812 13.570312 65.519531 14.042969 C 65.171875 14.503906 64.800781 14.9375 64.441406 15.386719 C 64.34375 15.335938 64.253906 15.296875 64.15625 15.25 C 64.207031 14.839844 64.269531 14.441406 64.28125 14.03125 C 64.292969 13.820312 64.21875 13.609375 64.179688 13.398438 C 63.984375 13.433594 63.746094 13.421875 63.609375 13.535156 C 61.5625 15.199219 59.242188 14.664062 57.023438 14.230469 C 55.011719 13.84375 53.027344 13.671875 50.992188 13.792969 C 49.117188 13.90625 47.246094 14.054688 45.371094 14.15625 C 44.367188 14.203125 43.351562 14.128906 42.34375 14.203125 C 41.128906 14.292969 39.925781 14.492188 38.722656 14.601562 C 37.40625 14.726562 36.09375 14.828125 34.777344 14.925781 C 33.882812 15 33.066406 14.75 32.320312 14.253906 C 32.023438 14.054688 31.6875 13.90625 31.226562 13.65625 C 31.289062 14.09375 31.351562 14.355469 31.351562 14.613281 C 31.351562 14.828125 31.316406 15.125 31.179688 15.210938 C 31.03125 15.3125 30.71875 15.285156 30.546875 15.1875 C 30.171875 14.976562 29.839844 14.691406 29.480469 14.441406 C 29.144531 14.21875 28.796875 13.980469 28.425781 13.792969 C 28.25 13.707031 28.015625 13.734375 27.605469 13.695312 C 27.976562 14.339844 28.261719 14.800781 28.523438 15.273438 C 28.609375 15.449219 28.636719 15.648438 28.683594 15.84375 C 28.472656 15.871094 28.214844 15.980469 28.050781 15.894531 C 26.773438 15.199219 25.382812 14.628906 24.269531 13.71875 C 21.5 11.496094 18.832031 9.121094 16.152344 6.796875 C 13.351562 4.335938 10.308594 2.273438 6.699219 1.191406 C 6.078125 1.007812 5.421875 0.90625 4.765625 0.78125 C 4.179688 0.683594 3.722656 0.917969 3.523438 1.464844 C 3.324219 2.027344 3.101562 2.621094 3.113281 3.195312 C 3.214844 7.394531 3.289062 11.59375 4.503906 15.671875 C 4.578125 15.90625 4.640625 16.15625 4.664062 16.390625 C 4.703125 16.777344 4.589844 17.039062 4.144531 17.164062 C 3.199219 17.4375 2.28125 17.785156 1.351562 18.105469 C 1.363281 18.167969 1.378906 18.230469 1.390625 18.28125 C 2.023438 18.183594 2.644531 18.070312 3.277344 17.96875 C 3.648438 17.910156 4.007812 17.847656 4.378906 17.796875 C 5.039062 17.710938 5.460938 18.082031 5.84375 18.554688 C 6.003906 18.753906 6.226562 18.976562 6.4375 19.015625 C 6.996094 19.113281 7.34375 18.703125 7.171875 18.132812 C 6.996094 17.546875 7.308594 17.347656 7.742188 17.410156 C 9.40625 17.621094 10.894531 17 12.445312 16.589844 C 14.070312 16.167969 15.746094 15.84375 17.417969 15.648438 C 18.226562 15.546875 19.070312 15.859375 19.902344 15.957031 C 20.113281 15.980469 20.324219 15.945312 20.535156 15.945312 C 20.472656 15.695312 20.496094 15.398438 20.347656 15.222656 C 19.949219 14.777344 19.390625 14.691406 18.808594 14.75 C 17.171875 14.9375 15.535156 15.136719 13.894531 15.324219 C 11.847656 15.558594 9.789062 15.769531 7.742188 16.019531 C 7.058594 16.105469 6.6875 15.859375 6.574219 15.175781 C 6.289062 13.296875 5.96875 11.421875 5.730469 9.542969 C 5.609375 8.601562 5.632812 7.644531 5.609375 6.699219 C 5.59375 6.414062 5.644531 6.113281 5.707031 5.839844 C 5.882812 5.058594 6.179688 4.820312 6.933594 5.035156 C 7.679688 5.246094 8.449219 5.503906 9.105469 5.902344 C 11.574219 7.394531 14.117188 8.824219 16.242188 10.8125 C 17.207031 11.707031 18.066406 12.726562 18.96875 13.683594 C 18.996094 13.707031 19.019531 13.757812 19.042969 13.78125 C 20.097656 14.738281 21.167969 15.683594 22.097656 16.800781 C 22.554688 17.347656 23.546875 17.472656 24.304688 17.757812 C 24.640625 17.882812 25 17.96875 25.445312 18.09375 C 25.25 18.304688 25.148438 18.429688 25.039062 18.53125 C 24.777344 18.753906 24.726562 18.964844 24.976562 19.261719 C 25.261719 19.625 25.160156 20.292969 24.777344 20.519531 C 24.617188 20.605469 24.28125 20.566406 24.132812 20.445312 C 23.871094 20.21875 23.648438 19.921875 23.488281 19.625 C 23.152344 18.988281 22.628906 18.804688 21.949219 18.839844 C 20.78125 18.902344 20.78125 18.878906 20.347656 17.796875 C 19.554688 15.757812 19.207031 15.511719 17.097656 16.019531 C 15.296875 16.453125 13.574219 17.148438 11.773438 17.597656 C 8.808594 18.332031 6.015625 19.488281 3.300781 20.828125 C 3.066406 20.941406 2.855469 21.078125 2.644531 21.25 C 4.042969 21.1875 5.371094 20.542969 6.785156 20.65625 C 6.824219 20.71875 6.859375 20.777344 6.898438 20.839844 C 6.6875 21.050781 6.5 21.324219 6.253906 21.476562 C 5.496094 21.933594 4.703125 22.332031 3.933594 22.769531 C 3.699219 22.90625 3.472656 23.089844 3.25 23.253906 C 3.277344 23.300781 3.289062 23.351562 3.3125 23.402344 C 4.292969 23.152344 5.285156 22.917969 6.265625 22.667969 C 6.289062 22.71875 6.328125 22.769531 6.351562 22.816406 C 6.242188 22.929688 6.128906 23.066406 6.003906 23.164062 C 3.832031 24.867188 1.773438 26.671875 0.222656 28.992188 C 0.199219 29.019531 0.160156 29.03125 0.125 29.054688 C 0.125 19.425781 0.125 9.78125 0.125 0.125 C 33.460938 0.125 66.785156 0.125 100.125 0.125 C 100.125 8.910156 100.125 17.683594 100.125 26.472656 Z M 100.125 26.472656 "/>
<path style=" stroke:none;fill-rule:nonzero;fill:rgb(0%,0%,0%);fill-opacity:1;" d="M 49.875 86.125 C 48.894531 85.824219 47.914062 85.503906 46.921875 85.230469 C 46.300781 85.054688 45.695312 85.003906 45.085938 85.429688 C 44.851562 85.589844 44.367188 85.550781 44.082031 85.429688 C 42.40625 84.671875 40.769531 83.863281 39.117188 83.054688 C 38.832031 82.917969 38.585938 82.65625 38.398438 82.394531 C 38.289062 82.246094 38.238281 81.921875 38.335938 81.773438 C 38.425781 81.636719 38.722656 81.574219 38.921875 81.589844 C 39.292969 81.601562 39.652344 81.6875 40.023438 81.761719 C 40.582031 81.863281 41.042969 81.75 41.300781 81.179688 C 41.453125 80.855469 41.625 80.742188 42.023438 80.953125 C 42.308594 81.101562 42.742188 81.066406 43.066406 80.980469 C 43.535156 80.855469 43.96875 80.605469 44.492188 80.382812 C 44.480469 80.582031 44.480469 80.730469 44.453125 80.992188 C 45.273438 80.867188 46.054688 80.742188 46.847656 80.644531 C 47.046875 80.617188 47.257812 80.65625 47.457031 80.632812 C 47.792969 80.59375 48.164062 80.605469 48.4375 80.445312 C 49.230469 79.960938 50.039062 79.847656 50.917969 80.121094 C 51.800781 80.394531 52.691406 80.667969 53.597656 80.828125 C 54.105469 80.917969 54.652344 80.753906 55.171875 80.78125 C 55.484375 80.792969 55.855469 80.867188 56.09375 81.066406 C 56.5 81.414062 56.859375 81.453125 57.382812 81.328125 C 58.101562 81.140625 58.871094 81.066406 59.617188 81.066406 C 60.074219 81.066406 60.148438 81.363281 59.851562 81.738281 C 59.777344 81.835938 59.691406 81.921875 59.578125 81.984375 C 58.773438 82.496094 58.066406 83.09375 57.445312 83.835938 C 57.234375 84.097656 56.773438 84.210938 56.414062 84.285156 C 55.609375 84.433594 54.765625 84.445312 53.96875 84.644531 C 53.460938 84.78125 53.015625 85.179688 52.519531 85.402344 C 51.933594 85.675781 51.328125 85.902344 50.730469 86.136719 C 50.460938 86.125 50.160156 86.125 49.875 86.125 Z M 49.875 86.125 "/>
<path style=" stroke:none;fill-rule:nonzero;fill:rgb(100%,100%,100%);fill-opacity:1;" d="M 89.886719 16.328125 C 90.347656 16.679688 90.695312 16.953125 91.042969 17.210938 C 90.992188 17.285156 90.957031 17.363281 90.90625 17.449219 C 89.9375 17.449219 89.019531 17.199219 88.152344 16.789062 C 86.054688 15.785156 83.871094 15.050781 81.5625 14.75 C 80.804688 14.652344 80.039062 14.664062 79.28125 14.554688 C 78.996094 14.515625 78.609375 14.316406 78.511719 14.09375 C 78.4375 13.917969 78.660156 13.496094 78.871094 13.324219 C 81.105469 11.421875 83.300781 9.457031 85.632812 7.707031 C 87.457031 6.324219 89.515625 5.269531 91.773438 4.710938 C 92.679688 4.488281 92.777344 4.574219 92.742188 5.519531 C 92.605469 8.527344 91.6875 11.347656 90.671875 14.15625 C 90.410156 14.875 90.136719 15.632812 89.886719 16.328125 Z M 89.886719 16.328125 "/>
<path style=" stroke:none;fill-rule:nonzero;fill:rgb(100%,100%,100%);fill-opacity:1;" d="M 29.527344 44.28125 C 29.417969 46.21875 29.9375 47.984375 30.917969 49.597656 C 31.253906 50.144531 31.722656 50.65625 32.222656 51.066406 C 32.855469 51.585938 33.261719 51.425781 33.351562 50.628906 C 33.488281 49.425781 33.5 48.207031 33.535156 46.988281 C 33.546875 46.542969 33.5 46.082031 33.472656 45.558594 C 33.683594 45.632812 33.832031 45.671875 33.96875 45.734375 C 35.59375 46.480469 37.109375 47.398438 38.398438 48.640625 C 39.554688 49.75 40.113281 51.152344 40.285156 52.707031 C 40.308594 52.941406 40.160156 53.191406 40.085938 53.4375 C 39.863281 53.351562 39.628906 53.300781 39.441406 53.179688 C 38.648438 52.617188 37.855469 52.558594 36.875 52.769531 C 35.707031 53.027344 34.464844 53.066406 33.261719 53.027344 C 31.589844 52.980469 29.9375 52.65625 28.398438 51.972656 C 26.363281 51.066406 24.851562 49.660156 24.242188 47.4375 C 23.984375 46.480469 23.535156 45.648438 22.679688 45.0625 C 22.457031 44.914062 22.195312 44.527344 22.246094 44.34375 C 22.308594 44.117188 22.667969 43.917969 22.941406 43.820312 C 23.289062 43.707031 23.671875 43.632812 24.03125 43.660156 C 25.730469 43.796875 27.445312 43.980469 29.144531 44.15625 C 29.28125 44.167969 29.390625 44.230469 29.527344 44.28125 Z M 29.527344 44.28125 "/>
<path style=" stroke:none;fill-rule:nonzero;fill:rgb(100%,100%,100%);fill-opacity:1;" d="M 67.742188 44.007812 C 69.949219 43.507812 72.121094 43.3125 74.292969 43.808594 C 74.539062 43.871094 74.765625 44.09375 74.988281 44.230469 C 74.828125 44.453125 74.726562 44.789062 74.503906 44.902344 C 73.375 45.484375 72.953125 46.480469 72.605469 47.648438 C 71.984375 49.75 70.433594 51.089844 68.472656 51.910156 C 66.167969 52.878906 63.710938 52.867188 61.277344 52.753906 C 60.148438 52.707031 59.105469 52.667969 58.175781 53.425781 C 58.039062 53.539062 57.855469 53.574219 57.691406 53.652344 C 56.511719 51.238281 60.347656 46.019531 63.746094 45.335938 C 63.746094 46.804688 63.734375 48.269531 63.757812 49.734375 C 63.757812 50.082031 63.859375 50.433594 63.957031 50.765625 C 64.082031 51.253906 64.429688 51.390625 64.789062 51.078125 C 65.324219 50.628906 65.882812 50.171875 66.242188 49.597656 C 67.308594 47.933594 67.878906 46.09375 67.742188 44.007812 Z M 67.742188 44.007812 "/>
<path style=" stroke:none;fill-rule:nonzero;fill:rgb(100%,100%,100%);fill-opacity:1;" d="M 16.214844 30.859375 C 14.703125 30.671875 13.398438 30.523438 12.085938 30.335938 C 11.613281 30.273438 11.316406 29.800781 11.4375 29.378906 C 11.601562 28.871094 11.949219 28.945312 12.332031 29.09375 C 12.519531 29.167969 12.730469 29.207031 12.929688 29.21875 C 13.386719 29.242188 13.820312 29.167969 13.984375 28.660156 C 14.132812 28.171875 13.710938 28.023438 13.410156 27.8125 C 13.140625 27.625 12.839844 27.464844 12.59375 27.265625 C 12.171875 26.917969 12.207031 26.582031 12.730469 26.398438 C 13.113281 26.261719 13.535156 26.148438 13.933594 26.160156 C 14.691406 26.183594 15.460938 26.210938 16.191406 26.398438 C 17.046875 26.621094 17.160156 27.167969 16.625 27.886719 C 16.078125 28.621094 16.09375 28.980469 16.589844 29.664062 C 16.785156 29.949219 16.910156 30.285156 17.070312 30.597656 C 16.722656 30.722656 16.378906 30.820312 16.214844 30.859375 Z M 16.214844 30.859375 "/>
<path style=" stroke:none;fill-rule:nonzero;fill:rgb(100%,100%,100%);fill-opacity:1;" d="M 17.195312 23.449219 C 16.425781 23.5 15.65625 23.5625 14.886719 23.601562 C 13.238281 23.664062 11.648438 23.9375 10.234375 24.84375 C 10.113281 24.917969 9.988281 25.003906 9.851562 25.03125 C 9.566406 25.078125 9.28125 25.078125 8.996094 25.105469 C 9.042969 24.832031 9.019531 24.519531 9.144531 24.296875 C 10.074219 22.679688 11.550781 21.785156 13.289062 21.324219 C 14.167969 21.089844 14.417969 21.324219 14.925781 22.207031 C 15.050781 22.417969 15.421875 22.507812 15.707031 22.617188 C 16.214844 22.828125 16.738281 23.015625 17.246094 23.214844 C 17.234375 23.277344 17.222656 23.363281 17.195312 23.449219 Z M 17.195312 23.449219 "/>
<path style=" stroke:none;fill-rule:nonzero;fill:rgb(100%,100%,100%);fill-opacity:1;" d="M 76.960938 34.625 C 77.902344 33.542969 78.859375 32.683594 79.976562 31.988281 C 81.5 31.042969 83.039062 30.113281 84.839844 29.789062 C 85.160156 29.726562 85.496094 29.777344 85.820312 29.777344 C 85.832031 29.839844 85.832031 29.890625 85.84375 29.949219 C 85.296875 30.359375 84.8125 30.921875 84.207031 31.144531 C 82.308594 31.863281 80.535156 32.796875 78.933594 34.050781 C 78.410156 34.449219 77.816406 34.734375 76.960938 34.625 Z M 76.960938 34.625 "/>
<path style=" stroke:none;fill-rule:nonzero;fill:rgb(100%,100%,100%);fill-opacity:1;" d="M 87.070312 26.0625 C 87.070312 26.160156 87.085938 26.222656 87.070312 26.234375 C 85.832031 27.277344 84.789062 28.769531 82.792969 28.136719 C 82.644531 28.085938 82.40625 28.210938 82.246094 28.308594 C 81.539062 28.71875 80.882812 28.84375 80.410156 28.660156 C 81.390625 26.496094 85.445312 25.652344 87.070312 26.0625 Z M 87.070312 26.0625 "/>
<path style=" stroke:none;fill-rule:nonzero;fill:rgb(100%,100%,100%);fill-opacity:1;" d="M 80.96875 16.578125 C 80.558594 16.691406 80.210938 16.851562 79.851562 16.863281 C 79.042969 16.902344 78.472656 17.226562 77.976562 17.882812 C 77.269531 18.828125 76.167969 19.039062 75.085938 19.238281 C 74.828125 19.289062 74.566406 19.300781 74.242188 19.214844 C 74.515625 19.0625 74.765625 18.890625 75.050781 18.777344 C 76.078125 18.34375 76.898438 17.683594 77.394531 16.679688 C 77.554688 16.355469 77.542969 15.957031 77.667969 15.621094 C 77.730469 15.421875 77.867188 15.160156 78.027344 15.101562 C 78.1875 15.039062 78.535156 15.148438 78.609375 15.285156 C 79.03125 16.15625 79.800781 16.269531 80.632812 16.269531 C 80.695312 16.269531 80.757812 16.292969 80.804688 16.316406 C 80.832031 16.328125 80.84375 16.367188 80.96875 16.578125 Z M 80.96875 16.578125 "/>
</g>
</svg>
