<?xml version="1.0" encoding="UTF-8"?>
<svg xmlns="http://www.w3.org/2000/svg" xmlns:xlink="http://www.w3.org/1999/xlink" width="100px" height="100px" viewBox="0 0 100 100" version="1.1">
<g id="surface1">
<path style=" stroke:none;fill-rule:nonzero;fill:rgb(100%,100%,100%);fill-opacity:1;" d="M 1.246094 100.136719 C 0.929688 100.136719 0.59375 100.136719 0.277344 100.136719 C 0.25 99.792969 0.222656 99.445312 0.222656 99.101562 C 0.222656 66.632812 0.222656 34.183594 0.222656 1.71875 C 0.207031 1.203125 0.234375 0.664062 0.261719 0.136719 C 0.554688 0.167969 0.84375 0.207031 1.148438 0.207031 C 26.996094 0.207031 52.839844 0.207031 78.683594 0.207031 C 79.003906 0.207031 79.320312 0.167969 79.640625 0.136719 C 79.679688 0.136719 79.738281 0.136719 79.777344 0.136719 C 80.054688 0.167969 80.320312 0.207031 80.59375 0.207031 C 86.746094 0.207031 92.894531 0.207031 99.03125 0.207031 C 99.390625 0.207031 99.765625 0.25 100.125 0.261719 C 100.125 0.582031 100.125 0.914062 100.125 1.234375 C 100.097656 1.578125 100.054688 1.910156 100.054688 2.257812 C 100.054688 34.335938 100.054688 66.414062 100.054688 98.492188 C 100.054688 98.738281 100.042969 99.003906 100.054688 99.253906 C 100.109375 99.847656 99.863281 100.109375 99.253906 100.054688 C 99.015625 100.027344 98.796875 100.054688 98.558594 100.054688 C 66.480469 100.054688 34.40625 100.054688 2.328125 100.054688 C 1.980469 100.070312 1.605469 100.109375 1.246094 100.136719 Z M 16.855469 70.804688 C 17.464844 73.574219 19.113281 75.59375 21.246094 77.285156 C 23.796875 79.308594 26.691406 80.625 29.738281 81.632812 C 31.203125 82.132812 31.273438 82.214844 30.996094 83.753906 C 30.984375 83.796875 30.96875 83.835938 30.957031 83.890625 C 30.222656 86.21875 29.488281 88.53125 28.765625 90.859375 C 28.128906 92.921875 26.605469 94.085938 24.652344 94.695312 C 23.890625 94.929688 23.449219 95.359375 23.117188 96.011719 C 22.492188 97.230469 22.851562 98.171875 24.195312 98.460938 C 25.207031 98.683594 26.246094 98.808594 27.269531 98.878906 C 28.960938 99.003906 30.386719 98.433594 31.507812 97.132812 C 31.648438 96.980469 31.882812 96.871094 32.089844 96.828125 C 33.433594 96.566406 34.527344 95.886719 35.429688 94.890625 C 35.652344 94.652344 35.804688 94.320312 35.886719 94.003906 C 36.300781 92.367188 36.691406 90.734375 38.128906 89.625 C 38.296875 89.5 38.40625 89.320312 38.53125 89.15625 C 41.082031 86.023438 42.730469 82.394531 43.960938 78.601562 C 44.320312 77.507812 44.875 76.660156 45.746094 75.984375 C 47.894531 74.308594 50.027344 72.617188 52.203125 70.996094 C 53.683594 69.890625 55.289062 69.003906 57.105469 68.519531 C 59.679688 67.8125 61.9375 68.796875 62.730469 71.328125 C 62.867188 71.757812 63.089844 72.175781 63.296875 72.589844 C 64.972656 75.96875 67.394531 78.765625 70.152344 81.289062 C 71.925781 82.921875 73.710938 84.558594 75.941406 85.625 C 76.621094 85.941406 77.230469 86.539062 77.699219 87.132812 C 79.140625 88.960938 79.390625 91.121094 79.140625 93.351562 C 79.113281 93.613281 78.890625 93.878906 78.726562 94.113281 C 78.28125 94.75 77.742188 95.347656 77.394531 96.039062 C 76.882812 97.050781 77.203125 98.0625 78.253906 98.421875 C 79.347656 98.78125 80.527344 99.03125 81.675781 99.042969 C 83.117188 99.058594 83.878906 97.910156 84.417969 96.730469 C 84.679688 96.136719 85.015625 95.996094 85.609375 96.011719 C 87.964844 96.039062 89.445312 95.027344 90.179688 92.785156 C 90.472656 91.898438 90.636719 90.941406 90.691406 90.015625 C 90.859375 87.492188 90.484375 85 89.945312 82.546875 C 88.644531 76.566406 86.539062 70.859375 84.183594 65.222656 C 84.015625 64.820312 83.933594 64.335938 83.960938 63.890625 C 84.003906 62.949219 84.15625 62.023438 84.238281 61.082031 C 84.542969 57.394531 84.363281 53.753906 83.367188 50.179688 C 82.214844 45.996094 80.207031 42.328125 76.660156 39.652344 C 76.441406 39.488281 76.300781 39.195312 76.175781 38.933594 C 74.777344 36.011719 73.519531 33.003906 71.964844 30.167969 C 70.359375 27.230469 69.957031 24.28125 70.984375 21.136719 C 72.230469 17.300781 74.667969 14.265625 77.5625 11.550781 C 79.167969 10.042969 80.734375 8.503906 81.691406 6.496094 C 82.0625 5.707031 82.355469 4.792969 82.367188 3.933594 C 82.410156 1.757812 80.414062 0.566406 78.503906 1.566406 C 78.035156 1.800781 77.589844 2.105469 77.175781 2.4375 C 76.234375 3.214844 75.347656 4.058594 74.40625 4.832031 C 70.777344 7.785156 67.546875 11.082031 65.402344 15.289062 C 62.148438 21.660156 61.828125 28.089844 65.136719 34.570312 C 65.375 35.042969 65.582031 35.539062 65.71875 36.039062 C 66.203125 37.757812 65.375 38.738281 63.601562 38.613281 C 62.617188 38.546875 61.621094 38.460938 60.636719 38.394531 C 55.707031 38.046875 50.777344 38.089844 45.898438 38.976562 C 41.855469 39.710938 37.992188 40.957031 34.585938 43.324219 C 31.8125 45.25 29.625 47.632812 28.546875 50.929688 C 28.394531 51.398438 27.910156 51.84375 27.464844 52.105469 C 26.441406 52.730469 24.695312 51.703125 24.652344 50.511719 C 24.613281 49.542969 24.570312 48.574219 24.488281 47.617188 C 24.460938 47.367188 24.335938 47.007812 24.15625 46.925781 C 23.988281 46.84375 23.644531 47.023438 23.449219 47.175781 C 22.507812 47.867188 21.566406 48.574219 20.652344 49.320312 C 20.261719 49.640625 19.957031 49.667969 19.488281 49.460938 C 18.988281 49.238281 18.433594 49.128906 17.894531 49.070312 C 15.679688 48.835938 13.53125 49.253906 11.414062 49.832031 C 10.816406 50 10.332031 49.972656 9.777344 49.710938 C 8.933594 49.292969 8.0625 48.917969 7.175781 48.601562 C 6.507812 48.367188 6.164062 48.710938 6.289062 49.417969 C 6.632812 51.316406 6.953125 53.226562 7.3125 55.125 C 7.421875 55.691406 7.285156 56.164062 7.105469 56.703125 C 6.785156 57.605469 6.539062 58.558594 6.523438 59.5 C 6.496094 61.371094 7.230469 63.046875 8.40625 64.445312 C 9.847656 66.148438 11.414062 67.742188 13.019531 69.292969 C 14.042969 70.222656 15.332031 70.761719 16.855469 70.804688 Z M 16.855469 70.804688 "/>
<path style=" stroke:none;fill-rule:nonzero;fill:rgb(0%,0%,0%);fill-opacity:1;" d="M 1.246094 100.136719 C 1.605469 100.109375 1.980469 100.070312 2.339844 100.070312 C 34.417969 100.070312 66.496094 100.070312 98.574219 100.070312 C 98.808594 100.070312 99.03125 100.054688 99.265625 100.070312 C 99.875 100.125 100.125 99.863281 100.070312 99.265625 C 100.042969 99.015625 100.070312 98.753906 100.070312 98.503906 C 100.070312 66.425781 100.070312 34.347656 100.070312 2.269531 C 100.070312 1.925781 100.109375 1.59375 100.136719 1.246094 C 100.136719 34.210938 100.136719 67.175781 100.136719 100.136719 C 67.175781 100.136719 34.210938 100.136719 1.246094 100.136719 Z M 1.246094 100.136719 "/>
<path style=" stroke:none;fill-rule:nonzero;fill:rgb(0%,0%,0%);fill-opacity:1;" d="M 0.261719 0.136719 C 0.234375 0.664062 0.207031 1.203125 0.207031 1.730469 C 0.207031 34.195312 0.207031 66.648438 0.207031 99.113281 C 0.207031 99.460938 0.25 99.804688 0.261719 100.152344 C 0.222656 100.125 0.136719 100.109375 0.125 100.082031 C 0.109375 99.902344 0.125 99.710938 0.125 99.527344 C 0.125 66.605469 0.125 33.699219 0.125 0.777344 C 0.136719 0.554688 0.234375 0.347656 0.277344 0.136719 Z M 0.261719 0.136719 "/>
<path style=" stroke:none;fill-rule:nonzero;fill:rgb(0%,0%,0%);fill-opacity:1;" d="M 0.261719 0.136719 L 0.277344 0.136719 C 26.730469 0.136719 53.1875 0.136719 79.640625 0.136719 C 79.320312 0.167969 79.003906 0.207031 78.683594 0.207031 C 52.839844 0.207031 26.996094 0.207031 1.148438 0.207031 C 0.84375 0.207031 0.554688 0.167969 0.261719 0.136719 Z M 0.261719 0.136719 "/>
<path style=" stroke:none;fill-rule:nonzero;fill:rgb(0%,0%,0%);fill-opacity:1;" d="M 100.136719 0.277344 C 99.777344 0.25 99.40625 0.222656 99.042969 0.222656 C 92.894531 0.222656 86.746094 0.222656 80.609375 0.222656 C 80.332031 0.222656 80.070312 0.179688 79.792969 0.152344 C 86.398438 0.152344 92.992188 0.152344 99.597656 0.152344 C 99.765625 0.136719 99.957031 0.234375 100.136719 0.277344 Z M 100.136719 0.277344 "/>
<path style=" stroke:none;fill-rule:nonzero;fill:rgb(0%,0%,0%);fill-opacity:1;" d="M 16.855469 70.804688 C 15.332031 70.761719 14.058594 70.222656 13.046875 69.238281 C 11.441406 67.6875 9.875 66.09375 8.433594 64.390625 C 7.257812 63.003906 6.523438 61.316406 6.550781 59.445312 C 6.566406 58.503906 6.8125 57.535156 7.132812 56.648438 C 7.328125 56.109375 7.453125 55.636719 7.339844 55.070312 C 6.980469 53.171875 6.660156 51.261719 6.316406 49.363281 C 6.191406 48.65625 6.523438 48.308594 7.203125 48.546875 C 8.089844 48.863281 8.949219 49.238281 9.804688 49.652344 C 10.359375 49.917969 10.84375 49.945312 11.441406 49.777344 C 13.558594 49.195312 15.707031 48.78125 17.921875 49.015625 C 18.460938 49.070312 19.015625 49.183594 19.515625 49.40625 C 19.972656 49.613281 20.289062 49.585938 20.679688 49.265625 C 21.578125 48.519531 22.519531 47.8125 23.476562 47.117188 C 23.683594 46.964844 24.03125 46.785156 24.183594 46.871094 C 24.363281 46.953125 24.5 47.3125 24.515625 47.5625 C 24.597656 48.53125 24.640625 49.5 24.679688 50.457031 C 24.722656 51.632812 26.480469 52.671875 27.492188 52.050781 C 27.9375 51.773438 28.421875 51.328125 28.574219 50.871094 C 29.640625 47.578125 31.84375 45.195312 34.613281 43.269531 C 38.019531 40.886719 41.882812 39.652344 45.929688 38.917969 C 50.816406 38.035156 55.734375 37.992188 60.664062 38.339844 C 61.648438 38.40625 62.644531 38.492188 63.628906 38.558594 C 65.402344 38.699219 66.234375 37.699219 65.746094 35.984375 C 65.609375 35.472656 65.402344 34.984375 65.167969 34.515625 C 61.871094 28.035156 62.1875 21.605469 65.429688 15.234375 C 67.578125 11.023438 70.804688 7.730469 74.433594 4.777344 C 75.375 4.003906 76.261719 3.171875 77.203125 2.382812 C 77.605469 2.050781 78.0625 1.746094 78.53125 1.507812 C 80.441406 0.527344 82.4375 1.703125 82.394531 3.878906 C 82.382812 4.738281 82.089844 5.652344 81.71875 6.441406 C 80.746094 8.476562 79.167969 10.015625 77.5625 11.523438 C 74.667969 14.238281 72.230469 17.269531 70.984375 21.109375 C 69.957031 24.265625 70.375 27.214844 71.964844 30.136719 C 73.519531 32.976562 74.777344 35.984375 76.175781 38.90625 C 76.300781 39.167969 76.441406 39.460938 76.660156 39.625 C 80.207031 42.3125 82.214844 45.96875 83.367188 50.152344 C 84.347656 53.726562 84.542969 57.367188 84.238281 61.050781 C 84.15625 61.996094 84.003906 62.921875 83.960938 63.863281 C 83.933594 64.308594 84.015625 64.777344 84.183594 65.195312 C 86.539062 70.816406 88.644531 76.539062 89.945312 82.519531 C 90.484375 84.984375 90.859375 87.464844 90.691406 89.984375 C 90.625 90.914062 90.472656 91.871094 90.179688 92.757812 C 89.445312 95 87.964844 96.023438 85.609375 95.984375 C 85.015625 95.96875 84.695312 96.109375 84.417969 96.703125 C 83.878906 97.882812 83.117188 99.03125 81.675781 99.015625 C 80.527344 99.015625 79.347656 98.753906 78.253906 98.394531 C 77.203125 98.046875 76.871094 97.023438 77.394531 96.011719 C 77.742188 95.320312 78.28125 94.738281 78.726562 94.085938 C 78.890625 93.851562 79.113281 93.585938 79.140625 93.324219 C 79.375 91.082031 79.128906 88.933594 77.699219 87.105469 C 77.230469 86.507812 76.621094 85.914062 75.941406 85.59375 C 73.710938 84.527344 71.9375 82.894531 70.152344 81.261719 C 67.410156 78.738281 64.984375 75.941406 63.296875 72.5625 C 63.089844 72.148438 62.867188 71.746094 62.730469 71.300781 C 61.9375 68.765625 59.679688 67.796875 57.105469 68.492188 C 55.289062 68.988281 53.683594 69.863281 52.203125 70.96875 C 50.015625 72.589844 47.894531 74.28125 45.746094 75.957031 C 44.875 76.632812 44.308594 77.480469 43.960938 78.574219 C 42.730469 82.382812 41.082031 85.996094 38.53125 89.128906 C 38.40625 89.292969 38.28125 89.472656 38.128906 89.597656 C 36.691406 90.707031 36.300781 92.339844 35.886719 93.976562 C 35.804688 94.292969 35.652344 94.625 35.429688 94.863281 C 34.527344 95.859375 33.421875 96.539062 32.089844 96.800781 C 31.882812 96.84375 31.632812 96.953125 31.507812 97.105469 C 30.386719 98.40625 28.960938 98.976562 27.269531 98.851562 C 26.246094 98.78125 25.207031 98.65625 24.195312 98.433594 C 22.851562 98.128906 22.492188 97.203125 23.117188 95.984375 C 23.449219 95.332031 23.878906 94.902344 24.652344 94.667969 C 26.605469 94.058594 28.128906 92.894531 28.765625 90.832031 C 29.488281 88.503906 30.222656 86.191406 30.957031 83.863281 C 30.96875 83.824219 30.984375 83.78125 30.996094 83.726562 C 31.273438 82.1875 31.21875 82.105469 29.738281 81.605469 C 26.691406 80.582031 23.78125 79.265625 21.246094 77.257812 C 19.113281 75.59375 17.453125 73.574219 16.855469 70.804688 Z M 18.394531 62.632812 C 19.128906 63.492188 19.527344 63.65625 20.136719 63.367188 C 20.886719 63.003906 21.136719 62.4375 20.941406 61.578125 C 20.25 61.703125 19.75 62.050781 19.652344 62.949219 C 19.5 62.589844 19.417969 62.410156 19.320312 62.1875 C 19.015625 62.328125 18.726562 62.464844 18.394531 62.632812 Z M 11.785156 62.589844 C 11.746094 62.5625 11.703125 62.519531 11.648438 62.492188 C 11.605469 62.230469 11.578125 61.980469 11.539062 61.71875 C 11.246094 61.632812 10.984375 61.566406 10.734375 61.496094 C 10.59375 62.394531 10.886719 62.9375 11.621094 63.1875 C 12.257812 63.40625 12.742188 63.242188 13.128906 62.632812 C 12.839844 62.421875 12.535156 62.214844 12.105469 61.925781 C 11.980469 62.160156 11.882812 62.367188 11.785156 62.589844 Z M 11.785156 62.589844 "/>
<path style=" stroke:none;fill-rule:nonzero;fill:rgb(100%,100%,100%);fill-opacity:1;" d="M 18.394531 62.632812 C 18.726562 62.464844 19.003906 62.339844 19.320312 62.1875 C 19.417969 62.410156 19.5 62.605469 19.652344 62.949219 C 19.75 62.050781 20.234375 61.691406 20.941406 61.578125 C 21.136719 62.453125 20.886719 63.019531 20.136719 63.367188 C 19.542969 63.65625 19.128906 63.492188 18.394531 62.632812 Z M 18.394531 62.632812 "/>
<path style=" stroke:none;fill-rule:nonzero;fill:rgb(100%,100%,100%);fill-opacity:1;" d="M 11.785156 62.589844 C 11.882812 62.382812 11.996094 62.175781 12.105469 61.925781 C 12.535156 62.230469 12.824219 62.4375 13.128906 62.632812 C 12.742188 63.253906 12.257812 63.421875 11.621094 63.1875 C 10.898438 62.921875 10.59375 62.394531 10.734375 61.496094 C 10.996094 61.566406 11.246094 61.632812 11.539062 61.71875 C 11.578125 61.964844 11.605469 62.230469 11.648438 62.492188 C 11.691406 62.519531 11.730469 62.546875 11.785156 62.589844 Z M 11.785156 62.589844 "/>
</g>
</svg>
