<?xml version="1.0" encoding="UTF-8"?>
<svg xmlns="http://www.w3.org/2000/svg" xmlns:xlink="http://www.w3.org/1999/xlink" width="84px" height="99px" viewBox="0 0 84 99" version="1.1">
<g id="surface1">
<path style=" stroke:none;fill-rule:nonzero;fill:rgb(99.607843%,99.607843%,99.607843%);fill-opacity:1;" d="M 0.167969 49.667969 C 0.167969 33.390625 0.167969 17.117188 0.152344 0.839844 C 0.152344 0.269531 0.269531 0.152344 0.84375 0.152344 C 28.394531 0.167969 55.945312 0.167969 83.492188 0.152344 C 84.066406 0.152344 84.1875 0.269531 84.1875 0.839844 C 84.167969 33.390625 84.167969 65.945312 84.1875 98.496094 C 84.1875 99.066406 84.066406 99.183594 83.492188 99.183594 C 55.945312 99.167969 28.394531 99.167969 0.84375 99.183594 C 0.269531 99.183594 0.152344 99.066406 0.152344 98.496094 C 0.167969 82.21875 0.167969 65.945312 0.167969 49.667969 Z M 0.167969 49.667969 "/>
<path style=" stroke:none;fill-rule:nonzero;fill:rgb(0%,0%,0%);fill-opacity:1;" d="M 60.894531 66.632812 C 59.238281 68.730469 56.976562 69.6875 54.40625 70.15625 C 49.117188 71.113281 43.773438 71.230469 38.433594 71.128906 C 37.707031 71.113281 37.183594 71.230469 36.675781 71.882812 C 35.914062 72.839844 35.019531 73.695312 34.546875 74.871094 C 33.007812 78.664062 33.785156 82.101562 36.21875 85.242188 C 37.199219 86.515625 38.316406 87.671875 39.515625 88.796875 C 39.160156 87.320312 38.738281 85.863281 38.484375 84.367188 C 38.097656 82.121094 38.265625 79.9375 39.515625 77.90625 C 40.917969 75.609375 40.730469 74.519531 38.804688 72.589844 C 38.550781 72.335938 38.246094 72.136719 38.078125 71.632812 C 39.820312 71.632812 41.492188 71.632812 43.167969 71.632812 C 44.824219 71.632812 46.480469 71.632812 48.355469 71.632812 C 47.914062 72.101562 47.578125 72.453125 47.238281 72.808594 C 45.734375 74.332031 45.464844 75.675781 46.582031 77.472656 C 48.1875 80.054688 48.203125 82.808594 47.628906 85.644531 C 47.324219 87.152344 47.035156 88.664062 46.75 90.175781 C 46.582031 91.0625 46.582031 90.996094 47.425781 90.863281 C 49.640625 90.507812 51.328125 89.199219 53.019531 87.890625 C 61.082031 81.648438 67.910156 74.300781 73.148438 65.542969 C 74.316406 63.59375 75.398438 61.613281 76.410156 59.585938 C 76.75 59.566406 76.683594 59.769531 76.613281 59.96875 C 75.871094 62.488281 74.601562 64.753906 73.183594 66.933594 C 70.480469 71.113281 67.910156 75.390625 64.5625 79.132812 C 60.660156 83.511719 56.535156 87.65625 51.820312 91.179688 C 50.433594 92.203125 48.8125 92.539062 47.171875 92.773438 C 46.394531 92.890625 46.140625 93.175781 46.023438 93.882812 C 45.871094 94.855469 45.582031 95.777344 44.652344 96.367188 C 43.386719 97.136719 41.882812 96.71875 41.257812 95.375 C 41.121094 95.105469 40.984375 94.804688 40.984375 94.503906 C 40.933594 93.394531 40.410156 92.960938 39.261719 92.859375 C 36.320312 92.605469 33.820312 91.265625 31.519531 89.4375 C 26.652344 85.578125 22.445312 81.097656 18.710938 76.179688 C 15.414062 71.816406 12.40625 67.320312 10.125 62.421875 C 7.84375 57.519531 6.136719 52.417969 5.257812 47.066406 C 4.175781 40.539062 3.734375 33.980469 4.34375 27.367188 C 4.648438 24.046875 5.054688 20.757812 6.238281 17.617188 C 7.875 13.324219 10.683594 9.96875 15.144531 8.492188 C 22.105469 6.15625 29.679688 6.914062 35.054688 13.070312 C 35.339844 13.40625 35.660156 13.707031 35.882812 14.195312 C 35.308594 14.179688 35.019531 13.828125 34.664062 13.589844 C 32.027344 11.828125 29.257812 10.335938 26.046875 10 C 22.78125 9.648438 19.589844 9.898438 16.699219 11.730469 C 16.648438 11.828125 16.582031 11.878906 16.496094 11.945312 C 16.394531 11.980469 16.460938 11.847656 16.460938 11.964844 C 16.460938 12.015625 16.511719 12.015625 16.5625 11.964844 C 16.683594 11.914062 16.78125 11.914062 16.902344 11.914062 C 19.453125 11.375 22.023438 11.257812 24.589844 11.8125 C 27.582031 12.433594 30.21875 13.859375 32.804688 15.402344 C 34.140625 16.191406 35.390625 17.097656 36.589844 18.070312 C 37.488281 18.792969 37.875 19.765625 37.945312 20.855469 C 37.996094 21.59375 37.742188 22.25 36.894531 22.550781 C 38.144531 23.609375 39.296875 24.714844 40.003906 26.160156 C 40.632812 27.433594 40.917969 28.8125 40.902344 30.21875 C 40.800781 36.863281 40.546875 43.507812 40.191406 50.136719 C 40.140625 51.128906 39.820312 52.386719 40.78125 52.941406 C 42.066406 53.679688 43.605469 53.644531 45.042969 53.089844 C 45.886719 52.773438 46.613281 52.21875 47.339844 51.699219 C 48.421875 50.925781 49.621094 50.523438 50.957031 50.523438 C 51.53125 50.523438 52.074219 50.675781 52.53125 51.042969 C 52.851562 51.296875 53.085938 51.613281 53.003906 52.050781 C 52.917969 52.488281 52.597656 52.722656 52.191406 52.804688 C 51.125 53.023438 50.046875 53.109375 49.082031 52.539062 C 48.390625 52.132812 48.050781 52.671875 47.59375 52.90625 C 47.339844 53.039062 47.578125 53.242188 47.710938 53.375 C 49.25 54.96875 50.621094 56.699219 52.242188 58.226562 C 52.613281 58.578125 53.003906 58.746094 53.527344 58.730469 C 55.386719 58.695312 57.246094 58.710938 59.085938 58.542969 C 59.492188 58.511719 59.863281 58.410156 60.167969 58.160156 C 62.179688 56.414062 64.226562 54.703125 65.679688 52.4375 C 66.4375 51.261719 66.421875 51.261719 65.085938 50.960938 C 62.671875 50.421875 60.339844 49.652344 58.140625 48.492188 C 58.105469 48.441406 58.089844 48.410156 58.105469 48.359375 C 58.125 48.324219 58.140625 48.292969 58.15625 48.292969 C 59.339844 48.609375 60.523438 48.980469 61.722656 49.214844 C 65.390625 49.953125 69.007812 49.886719 72.457031 48.308594 C 75.3125 47 77.578125 45.019531 78.085938 41.78125 C 78.640625 38.089844 78.457031 34.433594 76.5625 31.042969 C 76.15625 30.320312 75.632812 29.734375 75.007812 29.195312 C 75.023438 29.078125 75.125 29.078125 75.210938 29.0625 C 76.460938 29.53125 77.105469 30.621094 77.710938 31.679688 C 79.996094 35.691406 80.535156 39.9375 79.148438 44.347656 C 78.589844 46.128906 77.542969 47.671875 76.089844 48.878906 C 75.515625 49.367188 75.328125 50.035156 75.058594 50.675781 C 72.1875 57.488281 68.550781 63.878906 64.496094 70.070312 C 63.515625 71.566406 62.671875 73.140625 61.539062 74.535156 C 61.4375 74.519531 61.417969 74.417969 61.367188 74.332031 C 62.703125 71.765625 64.257812 69.316406 65.695312 66.800781 C 67.875 62.992188 69.902344 59.113281 71.527344 55.039062 C 71.679688 54.683594 71.78125 54.300781 71.847656 53.914062 C 72.152344 52.453125 71.847656 51.867188 70.460938 51.3125 C 69.769531 51.195312 69.769531 51.195312 69.601562 51.511719 C 70.105469 51.664062 70.191406 51.984375 69.972656 52.417969 C 68.332031 55.539062 66.589844 58.59375 64.140625 61.195312 C 62.976562 62.4375 61.367188 62.589844 59.832031 62.90625 C 56.179688 63.660156 52.445312 63.5625 48.742188 63.796875 C 47.105469 63.898438 46.089844 63.140625 45.160156 62.066406 C 44.46875 61.261719 43.792969 60.441406 43.148438 59.601562 C 42.84375 59.199219 42.675781 59.25 42.320312 59.601562 C 41.171875 60.808594 40.34375 62.320312 38.957031 63.328125 C 38.46875 63.679688 38.011719 63.828125 37.417969 63.8125 C 34.15625 63.710938 30.894531 63.695312 27.652344 63.292969 C 27.226562 63.242188 26.824219 63.175781 26.367188 63.089844 C 26.46875 63.511719 26.804688 63.695312 27.058594 63.929688 C 28.851562 65.609375 30.929688 66.867188 33.023438 68.125 C 35.761719 69.769531 38.722656 69.988281 41.761719 70.089844 C 46.34375 70.222656 50.875 69.9375 55.351562 68.980469 C 57.246094 68.578125 58.953125 67.738281 60.523438 66.632812 C 60.660156 66.515625 60.777344 66.515625 60.894531 66.632812 Z M 60.894531 66.632812 "/>
<path style=" stroke:none;fill-rule:nonzero;fill:rgb(0%,0%,0%);fill-opacity:1;" d="M 75.515625 18.15625 C 74.332031 16.8125 72.863281 15.824219 71.308594 14.96875 C 69.601562 14.042969 67.722656 14.128906 65.863281 14.328125 C 60.710938 14.851562 56.519531 17.332031 52.730469 20.65625 C 51.835938 21.445312 50.890625 22.117188 49.707031 22.402344 C 48.238281 22.753906 47.375 22.03125 47.527344 20.554688 C 47.609375 19.664062 47.933594 18.828125 48.625 18.257812 C 52.226562 15.335938 56.128906 12.902344 60.710938 11.8125 C 64.039062 11.023438 67.367188 11.242188 70.546875 12.585938 C 73.03125 13.625 74.671875 15.503906 75.753906 17.921875 C 75.785156 18.121094 75.683594 18.1875 75.515625 18.15625 Z M 75.515625 18.15625 "/>
<path style=" stroke:none;fill-rule:nonzero;fill:rgb(0%,0%,0%);fill-opacity:1;" d="M 59.59375 31.09375 C 57.550781 30.957031 55.503906 30.839844 53.460938 30.707031 C 53.035156 30.671875 52.582031 30.671875 52.410156 30.1875 C 52.242188 29.714844 52.5625 29.382812 52.867188 29.097656 C 54.710938 27.234375 57.058594 26.328125 59.5625 25.789062 C 62.296875 25.203125 65.054688 25 67.824219 25.65625 C 69.480469 26.058594 70.832031 27 72.253906 27.835938 C 72.691406 28.089844 72.40625 28.273438 72.21875 28.457031 C 71.390625 29.265625 70.378906 29.714844 69.296875 30.050781 C 66.117188 31.007812 62.855469 31.175781 59.59375 31.09375 Z M 59.59375 31.09375 "/>
<path style=" stroke:none;fill-rule:nonzero;fill:rgb(0%,0%,0%);fill-opacity:1;" d="M 56.957031 64.097656 C 55.269531 65.121094 53.410156 65.507812 51.53125 65.808594 C 45.582031 66.714844 39.652344 66.53125 33.703125 65.828125 C 31.875 65.609375 30.136719 65.136719 28.53125 64.214844 C 38.011719 64.449219 47.476562 64.71875 56.957031 64.097656 Z M 56.957031 64.097656 "/>
<path style=" stroke:none;fill-rule:nonzero;fill:rgb(0%,0%,0%);fill-opacity:1;" d="M 77.59375 15.101562 C 75.246094 9.648438 69.667969 7.164062 63.550781 7.535156 C 58.882812 7.820312 54.488281 8.992188 50.398438 11.257812 C 50.195312 11.34375 50.011719 11.359375 50.027344 11.058594 C 54.421875 7.585938 59.359375 5.386719 65.054688 5.554688 C 70.511719 5.722656 75.9375 8.742188 77.761719 14.582031 C 77.796875 14.78125 78 15.035156 77.59375 15.101562 Z M 77.59375 15.101562 "/>
<path style=" stroke:none;fill-rule:nonzero;fill:rgb(0.784314%,0.784314%,0.784314%);fill-opacity:1;" d="M 70.78125 30.605469 C 69.902344 31.796875 68.703125 32.585938 67.386719 33.039062 C 62.332031 34.785156 57.429688 34.265625 52.683594 31.933594 C 52.582031 31.882812 52.511719 31.796875 52.429688 31.730469 C 52.410156 31.714844 52.429688 31.679688 52.445312 31.5625 C 58.648438 33.054688 64.832031 34.011719 70.78125 30.605469 Z M 70.78125 30.605469 "/>
<path style=" stroke:none;fill-rule:nonzero;fill:rgb(2.745098%,2.745098%,2.745098%);fill-opacity:1;" d="M 76.714844 19.800781 C 77.914062 22.234375 77.730469 24.617188 76.34375 26.863281 C 75.703125 27.90625 74.570312 28.257812 73.316406 28.15625 C 73.335938 28.074219 73.335938 27.988281 73.351562 27.972656 C 75.921875 27.382812 76.277344 25.238281 76.714844 23.191406 C 76.953125 22.117188 76.800781 21.023438 76.5625 19.949219 C 76.480469 19.800781 76.582031 19.785156 76.714844 19.800781 Z M 76.714844 19.800781 "/>
<path style=" stroke:none;fill-rule:nonzero;fill:rgb(15.686275%,15.686275%,15.686275%);fill-opacity:1;" d="M 76.582031 59.9375 C 76.511719 59.800781 76.445312 59.683594 76.378906 59.550781 C 76.445312 59.0625 76.664062 58.628906 76.902344 58.207031 C 77.003906 58.226562 77.070312 58.292969 77.085938 58.394531 C 77.019531 58.945312 76.832031 59.449219 76.582031 59.9375 Z M 76.582031 59.9375 "/>
<path style=" stroke:none;fill-rule:nonzero;fill:rgb(23.137255%,23.137255%,23.137255%);fill-opacity:1;" d="M 50.011719 11.058594 C 50.078125 11.242188 50.246094 11.207031 50.382812 11.257812 C 50.128906 11.492188 49.859375 11.679688 49.519531 11.746094 C 49.335938 11.796875 49.285156 11.710938 49.316406 11.542969 C 49.503906 11.308594 49.722656 11.125 50.011719 11.058594 Z M 50.011719 11.058594 "/>
<path style=" stroke:none;fill-rule:nonzero;fill:rgb(5.882353%,5.882353%,5.882353%);fill-opacity:1;" d="M 58.140625 48.308594 C 58.140625 48.375 58.140625 48.441406 58.140625 48.492188 C 57.582031 48.460938 57.246094 48.039062 56.601562 47.671875 C 57.363281 47.703125 57.734375 48.039062 58.140625 48.308594 Z M 58.140625 48.308594 "/>
<path style=" stroke:none;fill-rule:nonzero;fill:rgb(21.960784%,21.960784%,21.960784%);fill-opacity:1;" d="M 77.59375 15.101562 C 77.8125 14.984375 77.679688 14.75 77.761719 14.582031 C 77.882812 14.96875 78 15.335938 78.117188 15.722656 C 78.152344 15.890625 78.289062 16.074219 77.964844 16.109375 C 77.832031 15.773438 77.710938 15.4375 77.59375 15.101562 Z M 77.59375 15.101562 "/>
<path style=" stroke:none;fill-rule:nonzero;fill:rgb(69.01961%,69.01961%,69.01961%);fill-opacity:1;" d="M 78.421875 17.117188 C 78.660156 17.402344 78.574219 17.703125 78.472656 18.070312 C 78.152344 17.835938 78.269531 17.535156 78.253906 17.265625 C 78.304688 17.199219 78.355469 17.148438 78.421875 17.117188 Z M 78.421875 17.117188 "/>
<path style=" stroke:none;fill-rule:nonzero;fill:rgb(20.392157%,20.392157%,20.392157%);fill-opacity:1;" d="M 77.085938 58.394531 C 77.019531 58.324219 76.96875 58.277344 76.902344 58.207031 C 76.984375 57.972656 77.070312 57.722656 77.136719 57.488281 C 77.207031 57.503906 77.273438 57.519531 77.339844 57.539062 C 77.339844 57.839844 77.289062 58.140625 77.085938 58.394531 Z M 77.085938 58.394531 "/>
<path style=" stroke:none;fill-rule:nonzero;fill:rgb(25.490198%,25.490198%,25.490198%);fill-opacity:1;" d="M 69.632812 51.511719 C 69.480469 51.53125 69.347656 51.496094 69.296875 51.347656 C 69.246094 51.195312 69.378906 51.179688 69.480469 51.179688 C 69.820312 51.210938 70.191406 50.992188 70.496094 51.3125 C 70.191406 51.378906 69.855469 51.160156 69.632812 51.511719 Z M 69.632812 51.511719 "/>
<path style=" stroke:none;fill-rule:nonzero;fill:rgb(81.176472%,81.176472%,81.176472%);fill-opacity:1;" d="M 54.421875 46.480469 C 54.152344 46.3125 53.796875 46.261719 53.660156 45.808594 C 54 45.910156 54.289062 45.992188 54.421875 46.296875 C 54.472656 46.328125 54.472656 46.378906 54.472656 46.414062 C 54.457031 46.460938 54.4375 46.480469 54.421875 46.480469 Z M 54.421875 46.480469 "/>
<path style=" stroke:none;fill-rule:nonzero;fill:rgb(21.960784%,21.960784%,21.960784%);fill-opacity:1;" d="M 60.894531 66.632812 C 60.777344 66.632812 60.640625 66.632812 60.523438 66.632812 C 60.792969 66.363281 61.03125 66.0625 61.589844 65.808594 C 61.367188 66.261719 61.167969 66.464844 60.894531 66.632812 Z M 60.894531 66.632812 "/>
<path style=" stroke:none;fill-rule:nonzero;fill:rgb(34.901962%,34.901962%,34.901962%);fill-opacity:1;" d="M 75.515625 18.15625 C 75.601562 18.089844 75.667969 18.003906 75.753906 17.9375 C 75.988281 18.105469 76.039062 18.375 76.105469 18.625 C 76.039062 18.710938 75.953125 18.710938 75.871094 18.640625 C 75.734375 18.492188 75.53125 18.390625 75.515625 18.15625 Z M 75.515625 18.15625 "/>
<path style=" stroke:none;fill-rule:nonzero;fill:rgb(0%,0%,0%);fill-opacity:1;" d="M 61.367188 74.332031 C 61.417969 74.402344 61.46875 74.46875 61.539062 74.535156 C 61.46875 74.738281 61.386719 74.9375 61.082031 75.039062 C 61.03125 74.71875 61.199219 74.535156 61.367188 74.332031 Z M 61.367188 74.332031 "/>
<path style=" stroke:none;fill-rule:nonzero;fill:rgb(69.01961%,69.01961%,69.01961%);fill-opacity:1;" d="M 54.421875 46.480469 C 54.421875 46.429688 54.421875 46.363281 54.421875 46.3125 C 54.675781 46.363281 54.914062 46.445312 55.097656 46.664062 C 55.066406 46.730469 55.015625 46.78125 54.945312 46.816406 C 54.761719 46.699219 54.589844 46.597656 54.421875 46.480469 Z M 54.421875 46.480469 "/>
<path style=" stroke:none;fill-rule:nonzero;fill:rgb(56.078434%,56.078434%,56.078434%);fill-opacity:1;" d="M 55.605469 47.152344 C 55.910156 46.964844 56.097656 47.101562 56.332031 47.386719 C 55.945312 47.519531 55.757812 47.367188 55.605469 47.152344 Z M 55.605469 47.152344 "/>
<path style=" stroke:none;fill-rule:nonzero;fill:rgb(0%,0%,0%);fill-opacity:1;" d="M 75.210938 29.078125 C 75.144531 29.128906 75.074219 29.164062 75.007812 29.214844 C 74.789062 29.195312 74.671875 28.945312 74.417969 28.996094 C 74.738281 28.710938 74.957031 28.960938 75.210938 29.078125 Z M 75.210938 29.078125 "/>
<path style=" stroke:none;fill-rule:nonzero;fill:rgb(53.333336%,53.333336%,53.333336%);fill-opacity:1;" d="M 78.421875 17.117188 C 78.371094 17.164062 78.320312 17.214844 78.253906 17.28125 C 78.117188 17.082031 78.050781 16.863281 78.085938 16.613281 C 78.152344 16.542969 78.21875 16.542969 78.269531 16.613281 C 78.488281 16.730469 78.390625 16.949219 78.421875 17.117188 Z M 78.421875 17.117188 "/>
<path style=" stroke:none;fill-rule:nonzero;fill:rgb(67.058825%,67.058825%,67.058825%);fill-opacity:1;" d="M 73.503906 28.609375 C 73.722656 28.542969 73.945312 28.441406 74.128906 28.691406 C 73.875 28.929688 73.707031 28.574219 73.503906 28.609375 Z M 73.503906 28.609375 "/>
<path style=" stroke:none;fill-rule:nonzero;fill:rgb(24.313726%,24.313726%,24.313726%);fill-opacity:1;" d="M 78.289062 16.613281 C 78.21875 16.613281 78.167969 16.613281 78.101562 16.613281 C 78.050781 16.445312 78 16.277344 77.964844 16.109375 C 78.015625 15.972656 78.066406 15.855469 78.117188 15.722656 C 78.269531 15.992188 78.269531 16.308594 78.289062 16.613281 Z M 78.289062 16.613281 "/>
<path style=" stroke:none;fill-rule:nonzero;fill:rgb(56.078434%,56.078434%,56.078434%);fill-opacity:1;" d="M 54.929688 46.816406 C 54.980469 46.765625 55.03125 46.714844 55.082031 46.664062 C 55.285156 46.796875 55.640625 46.78125 55.589844 47.167969 C 55.589844 47.167969 55.605469 47.152344 55.605469 47.152344 C 55.386719 47.035156 55.167969 46.914062 54.929688 46.816406 Z M 54.929688 46.816406 "/>
<path style=" stroke:none;fill-rule:nonzero;fill:rgb(65.882355%,65.882355%,65.882355%);fill-opacity:1;" d="M 16.902344 11.914062 C 16.832031 12.066406 16.699219 12.066406 16.5625 12.097656 C 16.394531 12.132812 16.328125 12.046875 16.359375 11.898438 C 16.460938 11.8125 16.546875 11.695312 16.699219 11.746094 C 16.851562 11.710938 16.867188 11.828125 16.902344 11.914062 Z M 16.902344 11.914062 "/>
<path style=" stroke:none;fill-rule:nonzero;fill:rgb(73.725492%,73.725492%,73.725492%);fill-opacity:1;" d="M 78 55.121094 C 78.136719 55.457031 77.949219 55.609375 77.847656 55.808594 C 77.644531 55.523438 77.863281 55.355469 78 55.121094 Z M 78 55.121094 "/>
<path style=" stroke:none;fill-rule:nonzero;fill:rgb(48.235294%,48.235294%,48.235294%);fill-opacity:1;" d="M 77.660156 55.992188 C 77.8125 56.429688 77.730469 56.613281 77.375 56.933594 C 77.492188 56.53125 77.5625 56.328125 77.660156 55.992188 Z M 77.660156 55.992188 "/>
<path style=" stroke:none;fill-rule:nonzero;fill:rgb(25.490198%,25.490198%,25.490198%);fill-opacity:1;" d="M 49.335938 11.542969 C 49.402344 11.613281 49.46875 11.679688 49.539062 11.746094 C 49.367188 11.929688 49.21875 12.113281 48.894531 12.03125 C 48.929688 11.761719 49.117188 11.628906 49.335938 11.542969 Z M 49.335938 11.542969 "/>
<path style=" stroke:none;fill-rule:nonzero;fill:rgb(18.431373%,18.431373%,18.431373%);fill-opacity:1;" d="M 76.714844 19.800781 C 76.664062 19.851562 76.613281 19.902344 76.5625 19.949219 C 76.480469 19.800781 76.15625 19.632812 76.394531 19.464844 C 76.5625 19.347656 76.714844 19.566406 76.714844 19.800781 Z M 76.714844 19.800781 "/>
<path style=" stroke:none;fill-rule:nonzero;fill:rgb(56.078434%,56.078434%,56.078434%);fill-opacity:1;" d="M 75.855469 18.640625 C 75.9375 18.640625 76.023438 18.625 76.089844 18.625 C 76.242188 18.777344 76.359375 18.960938 76.292969 19.210938 C 76.039062 19.09375 75.988281 18.84375 75.855469 18.640625 Z M 75.855469 18.640625 "/>
<path style=" stroke:none;fill-rule:nonzero;fill:rgb(99.607843%,99.607843%,99.607843%);fill-opacity:1;" d="M 17.054688 32.804688 C 21.753906 34.648438 26.382812 34.363281 30.980469 32.636719 C 31.417969 32.46875 31.640625 32.585938 31.910156 32.871094 C 33.277344 34.347656 33.449219 36.410156 32.316406 38.558594 C 31.351562 40.421875 29.730469 41.511719 27.820312 42.25 C 26.535156 42.753906 25.167969 42.988281 23.832031 43.273438 C 22.175781 43.628906 21.835938 44.113281 21.972656 45.773438 C 22.023438 46.445312 22.105469 47.101562 22.15625 47.773438 C 22.207031 48.441406 21.871094 48.878906 21.277344 49.148438 C 20.296875 49.601562 19.25 49.566406 18.21875 49.582031 C 17.933594 49.582031 17.761719 49.382812 17.59375 49.199219 C 16.496094 48.074219 15.617188 46.78125 14.855469 45.40625 C 14.332031 44.433594 14.5 43.410156 14.753906 42.386719 C 15.277344 40.269531 16.226562 38.308594 16.75 36.195312 C 17.054688 35.085938 17.085938 33.960938 17.054688 32.804688 Z M 17.054688 32.804688 "/>
<path style=" stroke:none;fill-rule:nonzero;fill:rgb(99.607843%,99.607843%,99.607843%);fill-opacity:1;" d="M 30.710938 19.3125 C 29.746094 19.09375 28.800781 18.910156 27.683594 18.808594 C 28.359375 19.296875 28.953125 19.699219 29.511719 20.136719 C 30.488281 20.90625 31.351562 21.78125 31.976562 22.855469 C 32.636719 23.976562 32.585938 24.582031 31.742188 25.589844 C 31.269531 26.144531 30.894531 26.949219 30.289062 27.167969 C 29.679688 27.382812 28.984375 26.695312 28.292969 26.460938 C 24.742188 25.253906 21.125 24.851562 17.425781 25.691406 C 16.816406 25.824219 16.242188 26.058594 15.703125 26.359375 C 15.398438 26.527344 15.195312 26.5625 15.175781 26.09375 C 15.109375 22.71875 15.9375 19.664062 18.457031 17.25 C 20.144531 15.636719 22.984375 14.648438 26.027344 16.175781 C 27.566406 16.949219 29.035156 17.820312 30.40625 18.84375 C 30.574219 18.976562 30.742188 19.042969 30.710938 19.3125 Z M 30.710938 19.3125 "/>
<path style=" stroke:none;fill-rule:nonzero;fill:rgb(99.215686%,99.215686%,99.215686%);fill-opacity:1;" d="M 30.945312 31.980469 C 26.535156 32.921875 22.191406 33.375 17.796875 32.097656 C 16.632812 31.765625 16.445312 30.976562 16.054688 30.019531 C 20.417969 31.359375 24.761719 31.175781 29.105469 30.890625 C 30.035156 30.839844 30.539062 31.195312 30.945312 31.980469 Z M 30.945312 31.980469 "/>
<path style=" stroke:none;fill-rule:nonzero;fill:rgb(24.313726%,24.313726%,24.313726%);fill-opacity:1;" d="M 16.359375 11.898438 C 16.429688 11.964844 16.496094 12.03125 16.5625 12.097656 C 16.394531 12.265625 16.140625 12.351562 16.023438 12.132812 C 15.953125 12.015625 16.191406 11.914062 16.359375 11.898438 Z M 16.359375 11.898438 "/>
</g>
</svg>
