<?xml version="1.0" encoding="UTF-8"?>
<svg xmlns="http://www.w3.org/2000/svg" xmlns:xlink="http://www.w3.org/1999/xlink" width="83px" height="99px" viewBox="0 0 83 99" version="1.1">
<g id="surface1">
<path style=" stroke:none;fill-rule:nonzero;fill:rgb(100%,100%,100%);fill-opacity:1;" d="M 83.183594 99.128906 C 55.496094 99.128906 27.75 99.128906 0.0625 99.128906 C 0 66.164062 0 33.140625 0 0.175781 C 27.6875 0.175781 55.4375 0.175781 83.125 0.175781 C 83.183594 33.140625 83.183594 66.164062 83.183594 99.128906 Z M 32.609375 96.558594 C 33.039062 96.925781 33.59375 97.234375 34.148438 96.375 C 34.148438 96.316406 34.210938 96.316406 34.269531 96.316406 C 34.824219 96.070312 35.441406 95.886719 35.992188 95.640625 C 36.484375 95.398438 36.976562 95.398438 37.46875 95.640625 C 38.824219 96.375 40.300781 96.375 41.777344 96.253906 C 43.621094 96.070312 45.46875 96.007812 47.375 95.886719 C 47.929688 95.886719 48.542969 96.070312 49.035156 95.519531 C 49.097656 95.460938 49.28125 95.460938 49.46875 95.460938 C 51.066406 95.824219 52.484375 95.519531 53.714844 94.359375 C 54.019531 94.113281 54.265625 93.808594 54.636719 93.625 C 55.558594 93.136719 56.175781 93.503906 56.234375 94.480469 C 56.296875 94.847656 56.234375 95.277344 56.175781 95.640625 C 56.113281 96.804688 57.097656 98.394531 58.203125 98.882812 C 58.203125 98.882812 58.265625 98.824219 58.328125 98.824219 C 58.203125 97.964844 58.019531 97.171875 57.898438 96.316406 C 57.957031 96.253906 58.082031 96.253906 58.144531 96.191406 C 58.328125 96.375 58.636719 96.558594 58.695312 96.742188 C 58.882812 97.109375 58.941406 97.539062 59.128906 97.90625 C 59.25 98.148438 59.621094 98.457031 59.742188 98.394531 C 60.789062 98.089844 61.835938 97.722656 62.820312 97.417969 C 62.820312 97.355469 62.820312 97.234375 62.820312 97.171875 C 62.574219 96.925781 62.386719 96.683594 62.082031 96.5 C 61.21875 95.949219 61.15625 95.765625 62.082031 95.214844 C 62.820312 94.726562 63.066406 94.113281 62.878906 93.257812 C 62.757812 92.707031 62.632812 92.21875 62.574219 91.667969 C 62.449219 90.996094 62.386719 90.320312 62.878906 89.773438 C 63.25 89.40625 63.3125 88.976562 63.125 88.488281 C 62.511719 88.855469 62.328125 88.363281 62.265625 87.9375 C 62.140625 87.324219 62.082031 86.652344 62.082031 85.980469 C 62.082031 85.734375 62.328125 85.367188 62.574219 85.183594 C 74.078125 78.152344 80.90625 68 82.816406 54.667969 C 83.617188 48.980469 83.125 43.414062 81.460938 37.910156 C 79.921875 32.710938 77.402344 28.003906 74.015625 23.722656 C 73.832031 23.476562 73.710938 23.109375 73.769531 22.804688 C 74.203125 21.519531 74.324219 20.296875 73.894531 19.011719 C 73.710938 18.402344 73.832031 17.914062 74.261719 17.484375 C 74.753906 16.996094 74.941406 16.445312 74.816406 15.773438 C 74.632812 14.855469 74.941406 14.121094 75.738281 13.570312 C 76.476562 13.082031 76.664062 12.347656 76.664062 11.492188 C 76.601562 10.390625 76.910156 9.535156 77.894531 8.863281 C 78.753906 8.25 78.753906 7.945312 78.078125 7.148438 C 77.648438 6.539062 77.214844 5.925781 77.585938 5.191406 C 78.261719 3.90625 78.015625 2.683594 77.648438 1.460938 C 77.339844 0.421875 76.847656 -0.0664062 75.863281 0.300781 C 74.324219 0.851562 72.847656 1.582031 71.433594 2.316406 C 71.125 2.441406 71.003906 3.050781 70.941406 3.480469 C 70.816406 4.273438 70.511719 4.765625 69.832031 4.640625 C 68.789062 4.457031 68.109375 4.886719 67.433594 5.558594 C 67.1875 5.804688 66.820312 5.925781 66.511719 6.171875 C 65.957031 6.539062 65.402344 6.90625 64.972656 7.394531 C 64.050781 8.433594 63.25 9.59375 62.449219 10.757812 C 62.265625 11.003906 62.328125 11.429688 62.328125 11.796875 C 62.386719 12.46875 62.449219 13.082031 62.574219 13.9375 C 51.253906 7.820312 39.683594 6.539062 27.75 10.820312 C 15.75 15.097656 7.445312 23.417969 2.953125 35.21875 C -0.863281 45.1875 -0.738281 55.277344 3.382812 65.0625 C 8.984375 78.394531 19.195312 86.53125 33.410156 90.015625 C 33.101562 90.199219 32.855469 90.320312 32.609375 90.445312 C 32.238281 90.75 31.808594 90.996094 31.441406 91.363281 C 30.949219 91.910156 30.457031 92.460938 30.023438 93.011719 C 29.839844 93.320312 29.59375 93.746094 29.65625 94.050781 C 29.777344 94.726562 30.148438 95.335938 30.394531 96.007812 C 30.578125 96.558594 30.824219 97.050781 31.5 97.050781 C 31.808594 97.171875 32.117188 96.867188 32.609375 96.558594 Z M 32.609375 96.558594 "/>
<path style=" stroke:none;fill-rule:nonzero;fill:rgb(0%,0%,0%);fill-opacity:1;" d="M 32.609375 96.558594 C 32.117188 96.867188 31.808594 97.171875 31.441406 97.171875 C 30.824219 97.234375 30.578125 96.683594 30.332031 96.132812 C 30.085938 95.460938 29.71875 94.847656 29.59375 94.175781 C 29.53125 93.867188 29.777344 93.441406 29.964844 93.136719 C 30.394531 92.523438 30.886719 91.972656 31.378906 91.484375 C 31.6875 91.117188 32.117188 90.871094 32.546875 90.566406 C 32.730469 90.445312 32.976562 90.320312 33.347656 90.136719 C 19.136719 86.652344 8.984375 78.519531 3.324219 65.1875 C -0.800781 55.339844 -0.921875 45.3125 2.890625 35.34375 C 7.382812 23.539062 15.6875 15.28125 27.6875 11.003906 C 39.625 6.722656 51.253906 8.003906 62.511719 14.121094 C 62.386719 13.324219 62.328125 12.652344 62.265625 11.980469 C 62.265625 11.613281 62.203125 11.183594 62.386719 10.941406 C 63.1875 9.777344 63.988281 8.679688 64.910156 7.578125 C 65.339844 7.089844 65.957031 6.722656 66.449219 6.355469 C 66.757812 6.109375 67.125 6.046875 67.371094 5.742188 C 68.050781 5.070312 68.664062 4.640625 69.773438 4.824219 C 70.511719 4.949219 70.757812 4.519531 70.878906 3.664062 C 70.941406 3.234375 71.0625 2.683594 71.371094 2.5 C 72.785156 1.765625 74.261719 0.972656 75.800781 0.484375 C 76.847656 0.117188 77.277344 0.605469 77.585938 1.644531 C 77.953125 2.929688 78.199219 4.152344 77.523438 5.375 C 77.15625 6.109375 77.585938 6.722656 78.015625 7.332031 C 78.632812 8.1875 78.691406 8.496094 77.832031 9.046875 C 76.847656 9.71875 76.539062 10.574219 76.601562 11.675781 C 76.664062 12.46875 76.417969 13.203125 75.679688 13.753906 C 74.878906 14.304688 74.570312 15.039062 74.753906 15.957031 C 74.878906 16.628906 74.695312 17.179688 74.203125 17.667969 C 73.769531 18.097656 73.585938 18.585938 73.832031 19.195312 C 74.324219 20.480469 74.140625 21.703125 73.710938 22.988281 C 73.648438 23.234375 73.769531 23.660156 73.957031 23.90625 C 77.402344 28.125 79.863281 32.835938 81.398438 38.09375 C 83 43.597656 83.554688 49.164062 82.753906 54.851562 C 80.90625 68.183594 74.015625 78.335938 62.511719 85.367188 C 62.265625 85.492188 62.019531 85.859375 62.019531 86.164062 C 62.019531 86.835938 62.082031 87.507812 62.203125 88.121094 C 62.265625 88.488281 62.449219 88.976562 63.066406 88.671875 C 63.25 89.222656 63.1875 89.589844 62.820312 89.953125 C 62.265625 90.503906 62.386719 91.179688 62.511719 91.851562 C 62.574219 92.402344 62.757812 92.890625 62.820312 93.441406 C 63.003906 94.234375 62.757812 94.910156 62.019531 95.398438 C 61.15625 95.949219 61.15625 96.132812 62.019531 96.683594 C 62.265625 96.867188 62.511719 97.109375 62.757812 97.355469 C 62.757812 97.417969 62.757812 97.539062 62.757812 97.597656 C 61.710938 97.964844 60.726562 98.332031 59.679688 98.578125 C 59.496094 98.640625 59.1875 98.273438 59.066406 98.089844 C 58.882812 97.722656 58.820312 97.292969 58.636719 96.925781 C 58.511719 96.683594 58.265625 96.558594 58.082031 96.375 C 58.019531 96.4375 57.898438 96.4375 57.835938 96.5 C 57.957031 97.355469 58.144531 98.148438 58.265625 99.007812 C 58.203125 99.007812 58.144531 99.066406 58.144531 99.066406 C 57.097656 98.578125 56.113281 96.988281 56.113281 95.824219 C 56.113281 95.460938 56.175781 95.03125 56.175781 94.664062 C 56.113281 93.625 55.496094 93.320312 54.574219 93.808594 C 54.265625 93.992188 53.960938 94.296875 53.652344 94.542969 C 52.421875 95.703125 51.007812 96.007812 49.40625 95.640625 C 49.28125 95.640625 49.097656 95.582031 48.976562 95.703125 C 48.484375 96.191406 47.929688 96.007812 47.3125 96.070312 C 45.46875 96.132812 43.5625 96.253906 41.714844 96.4375 C 40.238281 96.558594 38.761719 96.558594 37.410156 95.824219 C 36.917969 95.582031 36.425781 95.582031 35.933594 95.824219 C 35.378906 96.070312 34.761719 96.253906 34.210938 96.5 C 34.148438 96.5 34.085938 96.5 34.085938 96.558594 C 33.59375 97.234375 33.039062 96.925781 32.609375 96.558594 Z M 34.761719 88.914062 C 34.761719 88.730469 34.824219 88.609375 34.761719 88.425781 C 34.515625 86.898438 34.394531 85.367188 34.023438 83.902344 C 33.226562 80.71875 32.300781 77.480469 31.316406 74.359375 C 30.886719 73.015625 30.394531 71.667969 29.777344 70.445312 C 29.410156 69.710938 29.226562 69.160156 29.472656 68.367188 C 29.839844 67.203125 29.285156 66.226562 28.117188 65.921875 C 27.257812 65.675781 26.578125 65.308594 26.085938 64.515625 C 25.65625 63.71875 24.855469 63.71875 24.363281 64.453125 C 24.058594 65.003906 23.871094 65.675781 23.8125 66.289062 C 23.75 67.449219 23.933594 68.550781 23.933594 69.710938 C 23.933594 71.546875 22.640625 72.464844 20.859375 71.976562 C 20.488281 71.851562 20.179688 71.730469 19.8125 71.609375 C 18.703125 71.179688 18.273438 70.203125 18.027344 69.160156 C 17.964844 68.976562 18.152344 68.734375 18.273438 68.550781 C 18.519531 68.613281 18.703125 68.671875 18.890625 68.792969 C 19.011719 68.855469 19.074219 69.039062 19.136719 69.160156 C 19.75 69.773438 20.367188 69.710938 20.671875 68.917969 C 20.859375 68.488281 20.917969 68 21.105469 67.570312 C 21.164062 67.328125 21.289062 67.019531 21.410156 66.960938 C 22.703125 66.472656 22.886719 65.308594 23.011719 64.207031 C 23.074219 63.71875 22.949219 63.167969 22.765625 62.742188 C 22.703125 62.558594 22.148438 62.375 21.902344 62.433594 C 21.71875 62.496094 21.410156 62.863281 21.410156 63.105469 C 21.410156 63.597656 21.226562 63.902344 20.859375 64.085938 C 19.996094 64.515625 19.136719 64.878906 18.273438 65.308594 C 17.78125 65.554688 17.226562 65.675781 16.859375 66.042969 C 15.382812 67.449219 14.890625 67.753906 12.980469 66.289062 C 11.875 65.492188 10.644531 64.820312 9.167969 65.125 C 9.042969 65.125 8.796875 64.878906 8.738281 64.699219 C 8.367188 63.839844 8.121094 62.925781 7.753906 62.007812 C 7.507812 61.332031 7.382812 60.660156 7.507812 59.925781 C 7.691406 58.765625 7.445312 57.726562 6.582031 56.808594 C 6.214844 56.441406 5.84375 56.074219 5.660156 55.585938 C 4.800781 53.75 4.859375 51.792969 4.800781 49.835938 C 4.800781 49.101562 5.660156 48.796875 6.214844 49.285156 C 6.644531 49.652344 6.953125 50.140625 7.320312 50.570312 C 7.691406 51.058594 7.9375 51.546875 8.304688 52.039062 C 8.984375 52.832031 9.78125 52.832031 10.335938 51.914062 C 10.460938 51.730469 10.519531 51.609375 10.644531 51.425781 C 11.136719 50.507812 11.875 49.957031 12.859375 49.652344 C 13.660156 49.410156 14.457031 49.285156 15.257812 49.042969 C 16.121094 48.796875 17.105469 48.492188 17.472656 47.632812 C 18.027344 46.351562 18.519531 45.003906 18.890625 43.660156 C 19.195312 42.679688 19.074219 41.582031 19.8125 40.785156 C 20.304688 40.234375 20.671875 40.296875 20.980469 40.90625 C 21.105469 41.089844 21.164062 41.273438 21.226562 41.457031 C 21.78125 43.539062 22.335938 45.617188 22.949219 47.632812 C 23.195312 48.550781 23.320312 49.589844 24.117188 50.507812 C 24.304688 50.019531 24.488281 49.714844 24.488281 49.347656 C 24.609375 47.085938 24.734375 44.761719 24.855469 42.496094 C 24.855469 41.703125 24.980469 40.96875 25.535156 40.296875 C 25.839844 39.929688 25.964844 39.5 26.148438 39.074219 C 26.394531 38.460938 26.640625 37.851562 26.824219 37.238281 C 27.070312 36.503906 27.257812 35.769531 27.5625 35.097656 C 27.871094 34.363281 28.179688 33.691406 28.609375 33.078125 C 29.101562 32.34375 29.777344 31.796875 30.332031 31.121094 C 31.070312 30.265625 31.808594 29.472656 32.484375 28.613281 C 33.347656 27.515625 34.210938 26.414062 34.886719 25.25 C 35.625 23.96875 35.6875 23.90625 36.546875 25.128906 C 37.164062 25.984375 37.714844 26.046875 38.453125 25.3125 C 38.761719 25.007812 38.945312 24.578125 39.253906 24.394531 C 39.5 24.210938 39.992188 24.089844 40.175781 24.210938 C 40.792969 24.519531 41.285156 24.457031 41.839844 24.089844 C 42.144531 23.84375 42.515625 23.601562 42.882812 23.417969 C 43.992188 22.742188 44.421875 22.867188 44.605469 24.152344 C 44.667969 24.824219 45.039062 25.191406 45.53125 25.558594 C 46.328125 26.046875 47.128906 26.65625 47.929688 27.085938 C 48.667969 27.453125 49.46875 27.820312 50.328125 27.941406 C 51.375 28.125 52.050781 28.613281 52.296875 29.65625 C 52.421875 30.082031 52.605469 30.570312 52.605469 31 C 52.484375 33.386719 54.082031 35.097656 55.128906 36.992188 C 55.25 37.238281 55.621094 37.300781 55.867188 37.484375 C 55.988281 37.238281 56.296875 36.933594 56.296875 36.6875 C 56.234375 35.769531 56.113281 34.914062 55.867188 34.058594 C 55.558594 33.019531 55.375 32.101562 55.742188 31.0625 C 55.988281 30.265625 55.929688 29.410156 55.621094 28.613281 C 55.3125 27.757812 54.945312 26.964844 54.636719 26.109375 C 54.328125 25.25 54.636719 24.945312 55.558594 25.191406 C 55.683594 25.191406 55.742188 25.191406 55.867188 25.25 C 56.296875 25.433594 56.542969 25.3125 56.605469 24.824219 C 56.726562 24.089844 56.914062 23.417969 56.972656 22.683594 C 57.035156 21.460938 57.652344 20.359375 57.28125 19.074219 C 57.160156 18.707031 57.28125 17.851562 57.898438 17.730469 C 58.941406 17.546875 59.433594 16.933594 59.558594 15.957031 C 59.621094 15.527344 59.804688 15.097656 59.925781 14.671875 C 47.253906 7.945312 30.148438 8.371094 16.921875 18.585938 C 4.246094 28.125 -1.414062 45.371094 3.199219 60.84375 C 7.9375 76.929688 21.65625 86.835938 34.761719 88.914062 Z M 65.710938 33.203125 C 65.957031 33.570312 66.140625 33.875 66.386719 34.179688 C 67.25 35.160156 67.371094 36.199219 66.695312 37.238281 C 66.019531 38.339844 65.28125 39.378906 64.542969 40.355469 C 64.109375 40.90625 63.679688 41.398438 63.066406 41.765625 C 62.203125 42.253906 61.710938 42.925781 61.527344 43.84375 C 61.28125 45.066406 60.972656 46.289062 60.171875 47.390625 C 59.988281 47.632812 59.925781 48.125 60.113281 48.367188 C 60.789062 49.410156 60.480469 50.324219 59.988281 51.242188 C 59.558594 52.097656 59.804688 53.140625 60.605469 53.75 C 60.851562 53.933594 61.15625 54.117188 61.464844 54.300781 C 62.632812 54.972656 62.695312 55.15625 61.835938 56.257812 C 61.589844 56.5625 61.34375 56.871094 61.097656 57.175781 C 60.726562 57.726562 60.359375 58.335938 60.050781 58.949219 C 59.925781 59.253906 59.867188 59.742188 60.050781 59.988281 C 60.726562 60.90625 60.417969 61.761719 60.113281 62.679688 C 59.867188 63.414062 59.679688 64.207031 59.496094 65.003906 C 59.375 65.429688 59.3125 65.980469 59.066406 66.347656 C 58.449219 67.203125 58.390625 67.328125 59.066406 68.0625 C 59.558594 68.613281 59.558594 68.976562 59.066406 69.527344 C 58.265625 70.386719 58.390625 71.058594 59.496094 71.609375 C 59.558594 71.609375 59.558594 71.667969 59.621094 71.667969 C 60.359375 72.035156 60.359375 72.34375 59.925781 73.015625 C 59.804688 73.199219 59.621094 73.566406 59.679688 73.75 C 60.113281 74.726562 60.480469 75.765625 61.648438 76.257812 C 62.449219 76.5625 62.757812 77.234375 62.695312 78.089844 C 62.632812 78.824219 62.574219 79.558594 62.449219 80.292969 C 62.328125 81.515625 62.140625 82.738281 62.019531 83.960938 C 62.082031 84.023438 62.203125 84.023438 62.265625 84.082031 C 73.710938 76.683594 80.476562 66.289062 81.460938 52.589844 C 82.261719 42.3125 79.183594 33.078125 72.664062 24.882812 C 72.292969 25.496094 71.925781 25.925781 71.679688 26.414062 C 71.496094 26.839844 71.1875 27.390625 71.25 27.757812 C 71.496094 28.613281 70.941406 29.226562 70.511719 29.472656 C 69.527344 30.023438 68.972656 30.878906 68.355469 31.734375 C 67.742188 32.652344 67.125 33.507812 65.832031 33.203125 C 66.019531 33.078125 65.957031 33.078125 65.710938 33.203125 Z M 42.390625 61.699219 C 42.332031 61.699219 42.207031 61.761719 42.144531 61.761719 C 42.144531 62.191406 42.085938 62.679688 42.085938 63.105469 C 42.144531 65.613281 42.269531 68.121094 42.207031 70.628906 C 42.207031 71.914062 42.144531 73.199219 42.515625 74.480469 C 42.636719 74.972656 42.578125 75.707031 42.269531 76.074219 C 41.714844 76.804688 41.59375 77.601562 41.714844 78.394531 C 42.085938 81.085938 42.269531 83.777344 42.269531 86.53125 C 42.269531 87.570312 42.761719 88.488281 43.375 89.34375 C 43.4375 89.464844 43.683594 89.589844 43.867188 89.527344 C 46.574219 89.097656 49.34375 88.671875 52.050781 88.242188 C 52.484375 88.179688 52.667969 87.9375 52.667969 87.507812 C 52.542969 86.46875 52.421875 85.429688 52.296875 84.390625 C 51.929688 81.453125 51.746094 78.457031 50.082031 75.828125 C 49.960938 75.582031 49.898438 75.277344 49.714844 75.03125 C 49.222656 74.117188 48.789062 73.136719 48.113281 72.34375 C 46.453125 70.445312 45.285156 68.304688 44.421875 65.980469 C 44.054688 65.003906 43.5625 64.023438 43.128906 63.046875 C 42.882812 62.558594 42.636719 62.128906 42.390625 61.699219 Z M 39.378906 89.464844 C 39.253906 88.976562 39.132812 88.609375 39.007812 88.242188 C 38.453125 86.898438 38.332031 85.492188 38.453125 84.082031 C 38.515625 83.410156 38.453125 82.738281 38.394531 82.066406 C 38.269531 80.660156 38.023438 79.3125 37.902344 77.90625 C 37.59375 74.789062 37.347656 71.667969 37.039062 68.613281 C 36.917969 67.328125 36.546875 66.164062 35.625 65.246094 C 35.441406 65.0625 35.132812 64.941406 34.886719 64.941406 C 34.761719 64.941406 34.578125 65.371094 34.515625 65.554688 C 34.515625 66.53125 34.457031 67.570312 34.515625 68.550781 C 34.703125 71.363281 34.578125 74.175781 35.992188 76.746094 C 36.300781 77.296875 36.117188 78.03125 36.117188 78.703125 C 36.117188 79.4375 35.933594 80.230469 36.054688 80.902344 C 36.300781 82.125 36.730469 83.351562 36.976562 84.574219 C 37.285156 86.101562 37.46875 87.691406 37.714844 89.28125 C 38.269531 89.40625 38.699219 89.464844 39.378906 89.464844 Z M 55.003906 87.324219 C 56.050781 86.898438 56.914062 86.589844 57.710938 86.222656 C 59.066406 85.613281 59.003906 85.613281 58.820312 84.207031 C 58.328125 80.84375 57.097656 77.847656 55.128906 75.09375 C 54.820312 74.664062 54.453125 74.238281 54.082031 73.808594 C 53.960938 73.6875 53.714844 73.625 53.589844 73.6875 C 53.46875 73.75 53.40625 73.992188 53.40625 74.175781 C 53.46875 74.421875 53.527344 74.726562 53.652344 74.910156 C 54.144531 75.707031 54.636719 76.5625 55.191406 77.296875 C 55.683594 77.96875 55.867188 78.703125 55.867188 79.496094 C 55.867188 80.230469 55.742188 80.902344 55.683594 81.636719 C 55.4375 83.472656 55.25 85.308594 55.003906 87.324219 Z M 19.074219 64.453125 C 19.382812 64.332031 19.933594 64.207031 20.179688 63.902344 C 21.226562 62.800781 21.78125 61.457031 21.84375 59.988281 C 21.84375 59.742188 21.410156 59.316406 21.164062 59.253906 C 20.304688 59.011719 19.441406 59.5 19.011719 60.292969 C 18.828125 60.660156 18.644531 61.027344 18.519531 61.457031 C 18.027344 62.617188 17.167969 63.230469 15.8125 63.289062 C 15.195312 63.289062 14.644531 63.351562 14.027344 63.414062 C 13.167969 63.535156 12.859375 64.269531 13.351562 64.941406 C 13.660156 65.371094 14.152344 65.738281 14.644531 65.980469 C 15.566406 66.347656 16.367188 65.921875 16.675781 64.941406 C 17.042969 63.964844 17.105469 63.902344 18.027344 64.269531 C 18.335938 64.269531 18.582031 64.332031 19.074219 64.453125 Z M 53.835938 92.890625 C 53.898438 93.011719 53.960938 93.136719 54.019531 93.257812 C 55.496094 92.828125 56.972656 92.460938 58.390625 91.972656 C 59.925781 91.421875 60.234375 90.871094 60.050781 89.222656 C 59.988281 88.488281 59.742188 87.691406 59.558594 86.898438 C 58.265625 87.449219 57.097656 87.996094 55.867188 88.363281 C 55.191406 88.609375 54.882812 88.855469 55.191406 89.589844 C 55.558594 90.503906 55.375 91.363281 54.574219 91.972656 C 54.328125 92.277344 54.082031 92.585938 53.835938 92.890625 Z M 44.421875 92.953125 C 43.808594 93.011719 43.316406 93.074219 42.824219 93.136719 C 42.085938 93.257812 41.839844 93.625 42.332031 94.234375 C 42.636719 94.601562 43.007812 94.910156 43.4375 95.03125 C 44.175781 95.214844 44.976562 95.214844 45.777344 95.214844 C 47.5 95.152344 47.992188 94.726562 48.296875 93.011719 C 48.484375 92.15625 48.730469 91.300781 48.914062 90.382812 C 47.375 90.566406 45.714844 90.75 44.054688 90.933594 C 44.175781 91.605469 44.300781 92.21875 44.421875 92.953125 Z M 16.734375 56.929688 C 16.734375 57.664062 17.226562 58.03125 17.78125 57.664062 C 19.136719 56.746094 20.425781 55.769531 21.65625 54.789062 C 22.089844 54.421875 21.964844 53.996094 21.535156 53.6875 C 20.859375 53.140625 19.8125 53.078125 19.136719 53.6875 C 18.398438 54.421875 17.71875 55.277344 17.042969 56.136719 C 16.921875 56.320312 16.859375 56.6875 16.734375 56.929688 Z M 11.074219 61.273438 C 11.566406 61.027344 12.121094 60.90625 12.488281 60.601562 C 12.796875 60.292969 13.167969 59.683594 13.105469 59.316406 C 13.042969 58.949219 12.429688 58.582031 11.996094 58.460938 C 11.566406 58.335938 10.953125 58.398438 10.519531 58.519531 C 9.78125 58.703125 9.414062 59.375 9.535156 59.925781 C 9.660156 60.660156 10.214844 61.148438 11.074219 61.273438 Z M 17.167969 60.109375 C 16.425781 60.539062 15.8125 60.785156 15.320312 61.210938 C 14.765625 61.640625 15.011719 62.25 15.6875 62.433594 C 16.550781 62.679688 17.78125 61.761719 17.71875 60.90625 C 17.71875 60.722656 17.414062 60.476562 17.167969 60.109375 Z M 21.71875 70.628906 C 22.335938 70.628906 23.132812 69.40625 22.765625 68.671875 C 22.703125 68.550781 22.210938 68.429688 22.148438 68.488281 C 21.71875 68.976562 21.289062 69.40625 20.980469 69.957031 C 20.796875 70.386719 21.042969 70.691406 21.71875 70.628906 Z M 36.671875 94.96875 C 36.792969 94.847656 37.101562 94.601562 37.222656 94.296875 C 37.347656 93.867188 36.671875 93.320312 36.238281 93.378906 C 35.808594 93.441406 35.316406 93.5625 35.316406 94.113281 C 35.316406 94.601562 35.871094 95.03125 36.671875 94.96875 Z M 41.347656 95.519531 C 41.714844 95.152344 41.898438 94.910156 42.085938 94.726562 C 41.777344 94.480469 41.46875 94.175781 41.101562 94.050781 C 40.976562 93.992188 40.484375 94.480469 40.484375 94.542969 C 40.730469 94.847656 40.976562 95.09375 41.347656 95.519531 Z M 41.347656 95.519531 "/>
<path style=" stroke:none;fill-rule:nonzero;fill:rgb(100%,100%,100%);fill-opacity:1;" d="M 34.761719 88.914062 C 21.65625 86.835938 7.9375 76.929688 3.199219 60.84375 C -1.414062 45.371094 4.246094 28.125 17.042969 18.28125 C 30.332031 8.066406 47.4375 7.636719 60.050781 14.425781 C 59.925781 14.855469 59.804688 15.28125 59.679688 15.710938 C 59.496094 16.691406 59.066406 17.300781 58.019531 17.484375 C 57.34375 17.605469 57.28125 18.464844 57.40625 18.828125 C 57.773438 20.113281 57.160156 21.214844 57.097656 22.4375 C 57.035156 23.171875 56.851562 23.90625 56.726562 24.578125 C 56.667969 25.066406 56.421875 25.191406 55.988281 25.007812 C 55.929688 24.945312 55.804688 24.945312 55.683594 24.945312 C 54.820312 24.761719 54.511719 25.007812 54.757812 25.863281 C 55.066406 26.71875 55.375 27.574219 55.742188 28.371094 C 56.050781 29.164062 56.113281 29.960938 55.867188 30.816406 C 55.558594 31.855469 55.683594 32.835938 55.988281 33.8125 C 56.234375 34.667969 56.296875 35.585938 56.421875 36.441406 C 56.421875 36.6875 56.175781 36.992188 55.988281 37.238281 C 55.742188 37.054688 55.375 36.992188 55.25 36.75 C 54.144531 34.851562 52.605469 33.140625 52.730469 30.753906 C 52.730469 30.328125 52.542969 29.839844 52.421875 29.410156 C 52.113281 28.429688 51.5 27.882812 50.453125 27.699219 C 49.652344 27.574219 48.851562 27.207031 48.050781 26.839844 C 47.191406 26.414062 46.453125 25.800781 45.652344 25.3125 C 45.160156 25.007812 44.792969 24.578125 44.730469 23.90625 C 44.546875 22.621094 44.113281 22.4375 43.007812 23.171875 C 42.636719 23.417969 42.332031 23.601562 41.960938 23.84375 C 41.46875 24.210938 40.914062 24.273438 40.300781 23.96875 C 40.054688 23.84375 39.625 23.96875 39.378906 24.152344 C 39.070312 24.394531 38.886719 24.824219 38.578125 25.066406 C 37.839844 25.800781 37.285156 25.742188 36.671875 24.882812 C 35.808594 23.660156 35.746094 23.722656 35.007812 25.007812 C 34.332031 26.167969 33.410156 27.269531 32.609375 28.371094 C 31.933594 29.226562 31.195312 30.082031 30.457031 30.878906 C 29.902344 31.550781 29.226562 32.164062 28.734375 32.835938 C 28.300781 33.445312 27.996094 34.179688 27.6875 34.851562 C 27.378906 35.527344 27.195312 36.257812 26.949219 36.992188 C 26.765625 37.605469 26.519531 38.214844 26.273438 38.828125 C 26.085938 39.257812 25.964844 39.683594 25.65625 40.050781 C 25.101562 40.722656 25.042969 41.457031 24.980469 42.253906 C 24.917969 44.515625 24.796875 46.839844 24.609375 49.101562 C 24.609375 49.46875 24.363281 49.835938 24.242188 50.265625 C 23.441406 49.347656 23.320312 48.308594 23.074219 47.390625 C 22.519531 45.3125 21.964844 43.230469 21.351562 41.214844 C 21.289062 41.03125 21.226562 40.847656 21.105469 40.664062 C 20.734375 40.050781 20.367188 39.988281 19.933594 40.539062 C 19.195312 41.398438 19.320312 42.4375 19.011719 43.414062 C 18.644531 44.761719 18.152344 46.105469 17.597656 47.390625 C 17.226562 48.308594 16.304688 48.550781 15.382812 48.796875 C 14.582031 49.042969 13.78125 49.164062 12.980469 49.410156 C 11.996094 49.652344 11.199219 50.265625 10.765625 51.183594 C 10.707031 51.367188 10.582031 51.546875 10.460938 51.671875 C 9.84375 52.527344 9.105469 52.589844 8.429688 51.792969 C 8.058594 51.367188 7.8125 50.816406 7.445312 50.324219 C 7.136719 49.898438 6.769531 49.410156 6.335938 49.042969 C 5.785156 48.796875 4.921875 49.101562 4.921875 49.835938 C 4.984375 51.792969 4.921875 53.75 5.785156 55.585938 C 5.96875 56.011719 6.398438 56.441406 6.707031 56.808594 C 7.566406 57.664062 7.875 58.765625 7.628906 59.925781 C 7.507812 60.660156 7.628906 61.332031 7.875 62.007812 C 8.183594 62.925781 8.492188 63.78125 8.859375 64.699219 C 8.921875 64.878906 9.167969 65.125 9.289062 65.125 C 10.765625 64.820312 11.996094 65.492188 13.105469 66.289062 C 15.011719 67.753906 15.503906 67.449219 16.980469 66.042969 C 17.351562 65.675781 17.90625 65.554688 18.398438 65.308594 C 19.257812 64.878906 20.121094 64.515625 20.980469 64.085938 C 21.351562 63.902344 21.597656 63.597656 21.535156 63.105469 C 21.535156 62.863281 21.84375 62.496094 22.027344 62.433594 C 22.273438 62.375 22.828125 62.558594 22.886719 62.742188 C 23.074219 63.167969 23.195312 63.71875 23.132812 64.207031 C 23.011719 65.308594 22.828125 66.472656 21.535156 66.960938 C 21.351562 67.019531 21.289062 67.328125 21.226562 67.570312 C 21.105469 68 20.980469 68.488281 20.796875 68.917969 C 20.488281 69.710938 19.8125 69.773438 19.257812 69.160156 C 19.136719 69.039062 19.136719 68.917969 19.011719 68.792969 C 18.828125 68.671875 18.582031 68.613281 18.398438 68.550781 C 18.335938 68.792969 18.152344 68.976562 18.152344 69.160156 C 18.398438 70.203125 18.828125 71.179688 19.933594 71.609375 C 20.304688 71.730469 20.613281 71.914062 20.980469 71.976562 C 22.765625 72.464844 24.058594 71.609375 24.058594 69.710938 C 24.058594 68.550781 23.871094 67.386719 23.933594 66.289062 C 23.933594 65.675781 24.117188 65.003906 24.488281 64.453125 C 24.917969 63.71875 25.78125 63.71875 26.210938 64.515625 C 26.703125 65.371094 27.316406 65.675781 28.242188 65.921875 C 29.410156 66.226562 29.964844 67.203125 29.59375 68.367188 C 29.347656 69.101562 29.53125 69.710938 29.902344 70.445312 C 30.515625 71.730469 31.007812 73.015625 31.441406 74.359375 C 32.363281 77.539062 33.285156 80.71875 34.148438 83.902344 C 34.515625 85.367188 34.640625 86.898438 34.886719 88.425781 C 34.824219 88.609375 34.761719 88.730469 34.761719 88.914062 Z M 34.761719 88.914062 "/>
<path style=" stroke:none;fill-rule:nonzero;fill:rgb(100%,100%,100%);fill-opacity:1;" d="M 65.710938 33.203125 C 65.957031 33.078125 66.019531 33.078125 66.019531 33.078125 C 67.3125 33.324219 67.925781 32.46875 68.542969 31.613281 C 69.15625 30.753906 69.710938 29.898438 70.695312 29.347656 C 71.125 29.105469 71.742188 28.492188 71.433594 27.636719 C 71.308594 27.269531 71.617188 26.71875 71.863281 26.292969 C 72.109375 25.800781 72.417969 25.375 72.847656 24.761719 C 79.371094 32.957031 82.382812 42.191406 81.644531 52.464844 C 80.601562 66.164062 73.894531 76.5 62.449219 83.960938 C 62.386719 83.902344 62.265625 83.902344 62.203125 83.839844 C 62.328125 82.617188 62.511719 81.394531 62.632812 80.171875 C 62.695312 79.4375 62.820312 78.703125 62.878906 77.96875 C 62.941406 77.113281 62.632812 76.4375 61.835938 76.132812 C 60.664062 75.644531 60.296875 74.664062 59.867188 73.625 C 59.804688 73.441406 59.925781 73.074219 60.113281 72.890625 C 60.605469 72.21875 60.542969 71.914062 59.804688 71.546875 C 59.742188 71.546875 59.742188 71.484375 59.679688 71.484375 C 58.636719 70.933594 58.449219 70.261719 59.25 69.40625 C 59.804688 68.855469 59.804688 68.488281 59.25 67.9375 C 58.511719 67.203125 58.574219 67.082031 59.25 66.226562 C 59.496094 65.859375 59.558594 65.371094 59.679688 64.878906 C 59.867188 64.085938 60.050781 63.289062 60.296875 62.558594 C 60.605469 61.640625 60.910156 60.785156 60.234375 59.867188 C 60.050781 59.621094 60.113281 59.132812 60.234375 58.828125 C 60.542969 58.214844 60.910156 57.664062 61.28125 57.054688 C 61.464844 56.746094 61.773438 56.441406 62.019531 56.136719 C 62.878906 55.035156 62.820312 54.914062 61.648438 54.179688 C 61.34375 53.996094 61.035156 53.8125 60.789062 53.628906 C 60.050781 53.078125 59.742188 51.976562 60.171875 51.121094 C 60.664062 50.140625 60.972656 49.226562 60.296875 48.246094 C 60.171875 48 60.234375 47.511719 60.359375 47.269531 C 61.15625 46.226562 61.402344 45.003906 61.710938 43.722656 C 61.894531 42.742188 62.386719 42.128906 63.25 41.640625 C 63.804688 41.273438 64.296875 40.785156 64.726562 40.234375 C 65.464844 39.195312 66.203125 38.15625 66.878906 37.117188 C 67.558594 36.074219 67.433594 35.035156 66.574219 34.058594 C 66.203125 33.875 65.957031 33.570312 65.710938 33.203125 Z M 65.710938 33.203125 "/>
<path style=" stroke:none;fill-rule:nonzero;fill:rgb(100%,100%,100%);fill-opacity:1;" d="M 42.390625 61.699219 C 42.636719 62.128906 42.882812 62.558594 43.128906 63.046875 C 43.5625 64.023438 44.054688 65.003906 44.421875 65.980469 C 45.285156 68.304688 46.453125 70.445312 48.113281 72.34375 C 48.789062 73.136719 49.222656 74.117188 49.714844 75.03125 C 49.835938 75.277344 49.898438 75.582031 50.082031 75.828125 C 51.746094 78.457031 51.929688 81.453125 52.296875 84.390625 C 52.421875 85.429688 52.542969 86.46875 52.667969 87.507812 C 52.730469 87.9375 52.542969 88.179688 52.050781 88.242188 C 49.34375 88.671875 46.574219 89.097656 43.867188 89.527344 C 43.746094 89.527344 43.5 89.464844 43.375 89.34375 C 42.761719 88.488281 42.269531 87.570312 42.269531 86.53125 C 42.269531 83.839844 42.085938 81.085938 41.714844 78.394531 C 41.59375 77.539062 41.714844 76.804688 42.269531 76.074219 C 42.578125 75.707031 42.636719 74.972656 42.515625 74.480469 C 42.207031 73.199219 42.207031 71.976562 42.207031 70.628906 C 42.269531 68.121094 42.144531 65.613281 42.085938 63.105469 C 42.085938 62.679688 42.144531 62.191406 42.144531 61.761719 C 42.207031 61.761719 42.332031 61.699219 42.390625 61.699219 Z M 42.390625 61.699219 "/>
<path style=" stroke:none;fill-rule:nonzero;fill:rgb(100%,100%,100%);fill-opacity:1;" d="M 39.378906 89.464844 C 38.761719 89.40625 38.269531 89.40625 37.839844 89.40625 C 37.59375 87.753906 37.410156 86.222656 37.101562 84.695312 C 36.855469 83.472656 36.425781 82.25 36.179688 81.027344 C 36.054688 80.292969 36.238281 79.558594 36.238281 78.824219 C 36.238281 78.152344 36.363281 77.355469 36.117188 76.867188 C 34.703125 74.300781 34.761719 71.484375 34.640625 68.671875 C 34.578125 67.695312 34.578125 66.65625 34.640625 65.675781 C 34.640625 65.429688 34.824219 65.0625 35.007812 65.0625 C 35.253906 65.003906 35.5625 65.1875 35.746094 65.371094 C 36.671875 66.289062 37.039062 67.511719 37.164062 68.734375 C 37.46875 71.851562 37.714844 74.972656 38.023438 78.03125 C 38.148438 79.4375 38.332031 80.78125 38.515625 82.1875 C 38.578125 82.859375 38.640625 83.535156 38.578125 84.207031 C 38.453125 85.613281 38.578125 87.019531 39.132812 88.363281 C 39.132812 88.671875 39.253906 89.039062 39.378906 89.464844 Z M 39.378906 89.464844 "/>
<path style=" stroke:none;fill-rule:nonzero;fill:rgb(100%,100%,100%);fill-opacity:1;" d="M 55.003906 87.324219 C 55.25 85.308594 55.4375 83.472656 55.621094 81.636719 C 55.683594 80.902344 55.804688 80.230469 55.804688 79.496094 C 55.804688 78.703125 55.621094 77.96875 55.128906 77.296875 C 54.574219 76.5 54.082031 75.707031 53.589844 74.910156 C 53.46875 74.664062 53.34375 74.421875 53.34375 74.175781 C 53.34375 73.992188 53.40625 73.75 53.527344 73.6875 C 53.652344 73.625 53.898438 73.6875 54.019531 73.808594 C 54.390625 74.238281 54.757812 74.664062 55.066406 75.09375 C 57.035156 77.847656 58.265625 80.84375 58.757812 84.207031 C 58.941406 85.675781 59.003906 85.675781 57.652344 86.222656 C 56.914062 86.589844 56.050781 86.898438 55.003906 87.324219 Z M 55.003906 87.324219 "/>
<path style=" stroke:none;fill-rule:nonzero;fill:rgb(100%,100%,100%);fill-opacity:1;" d="M 19.074219 64.453125 C 18.644531 64.332031 18.335938 64.269531 18.089844 64.148438 C 17.167969 63.78125 17.105469 63.78125 16.734375 64.820312 C 16.367188 65.796875 15.628906 66.289062 14.703125 65.859375 C 14.210938 65.675781 13.71875 65.246094 13.414062 64.820312 C 12.921875 64.148438 13.226562 63.472656 14.089844 63.289062 C 14.644531 63.167969 15.257812 63.167969 15.875 63.167969 C 17.167969 63.167969 18.027344 62.496094 18.582031 61.332031 C 18.765625 60.96875 18.890625 60.539062 19.074219 60.171875 C 19.503906 59.375 20.367188 58.949219 21.226562 59.132812 C 21.535156 59.191406 21.964844 59.621094 21.902344 59.867188 C 21.84375 61.332031 21.289062 62.742188 20.242188 63.78125 C 19.875 64.207031 19.382812 64.269531 19.074219 64.453125 Z M 19.074219 64.453125 "/>
<path style=" stroke:none;fill-rule:nonzero;fill:rgb(100%,100%,100%);fill-opacity:1;" d="M 53.835938 92.890625 C 54.082031 92.585938 54.328125 92.277344 54.636719 92.035156 C 55.4375 91.363281 55.683594 90.566406 55.25 89.648438 C 54.945312 88.914062 55.191406 88.671875 55.929688 88.425781 C 57.160156 87.996094 58.328125 87.449219 59.621094 86.957031 C 59.804688 87.753906 60.050781 88.488281 60.113281 89.28125 C 60.234375 90.933594 59.988281 91.421875 58.449219 92.035156 C 57.035156 92.585938 55.496094 92.890625 54.082031 93.320312 C 53.960938 93.136719 53.898438 93.011719 53.835938 92.890625 Z M 53.835938 92.890625 "/>
<path style=" stroke:none;fill-rule:nonzero;fill:rgb(100%,100%,100%);fill-opacity:1;" d="M 44.421875 92.953125 C 44.300781 92.21875 44.175781 91.605469 44.113281 90.933594 C 45.777344 90.75 47.4375 90.566406 48.976562 90.382812 C 48.789062 91.238281 48.542969 92.09375 48.359375 93.011719 C 47.992188 94.726562 47.558594 95.152344 45.835938 95.214844 C 45.039062 95.277344 44.238281 95.214844 43.5 95.03125 C 43.070312 94.96875 42.699219 94.601562 42.390625 94.234375 C 41.898438 93.683594 42.085938 93.257812 42.882812 93.136719 C 43.316406 93.011719 43.808594 93.011719 44.421875 92.953125 Z M 44.421875 92.953125 "/>
<path style=" stroke:none;fill-rule:nonzero;fill:rgb(100%,100%,100%);fill-opacity:1;" d="M 16.734375 56.929688 C 16.796875 56.6875 16.859375 56.320312 17.105469 56.074219 C 17.78125 55.21875 18.398438 54.363281 19.195312 53.628906 C 19.875 53.015625 20.859375 53.078125 21.597656 53.628906 C 22.027344 53.933594 22.148438 54.363281 21.71875 54.730469 C 20.425781 55.707031 19.136719 56.6875 17.84375 57.601562 C 17.289062 57.96875 16.734375 57.664062 16.734375 56.929688 Z M 16.734375 56.929688 "/>
<path style=" stroke:none;fill-rule:nonzero;fill:rgb(100%,100%,100%);fill-opacity:1;" d="M 11.074219 61.273438 C 10.214844 61.148438 9.660156 60.660156 9.535156 59.925781 C 9.414062 59.375 9.84375 58.703125 10.519531 58.519531 C 11.011719 58.398438 11.566406 58.277344 11.996094 58.460938 C 12.429688 58.582031 12.980469 58.949219 13.105469 59.316406 C 13.167969 59.683594 12.796875 60.292969 12.488281 60.601562 C 12.121094 60.90625 11.566406 61.027344 11.074219 61.273438 Z M 11.074219 61.273438 "/>
<path style=" stroke:none;fill-rule:nonzero;fill:rgb(100%,100%,100%);fill-opacity:1;" d="M 17.167969 60.109375 C 17.414062 60.476562 17.660156 60.722656 17.71875 60.96875 C 17.78125 61.824219 16.550781 62.742188 15.6875 62.496094 C 15.011719 62.3125 14.765625 61.699219 15.320312 61.273438 C 15.8125 60.785156 16.425781 60.539062 17.167969 60.109375 Z M 17.167969 60.109375 "/>
<path style=" stroke:none;fill-rule:nonzero;fill:rgb(100%,100%,100%);fill-opacity:1;" d="M 21.71875 70.628906 C 21.042969 70.628906 20.734375 70.386719 20.980469 69.957031 C 21.289062 69.40625 21.71875 68.917969 22.148438 68.488281 C 22.210938 68.429688 22.703125 68.550781 22.765625 68.671875 C 23.195312 69.40625 22.335938 70.628906 21.71875 70.628906 Z M 21.71875 70.628906 "/>
<path style=" stroke:none;fill-rule:nonzero;fill:rgb(100%,100%,100%);fill-opacity:1;" d="M 36.671875 94.96875 C 35.871094 94.96875 35.316406 94.601562 35.316406 94.175781 C 35.316406 93.5625 35.808594 93.503906 36.238281 93.441406 C 36.671875 93.378906 37.347656 93.992188 37.222656 94.359375 C 37.101562 94.664062 36.792969 94.847656 36.671875 94.96875 Z M 36.671875 94.96875 "/>
<path style=" stroke:none;fill-rule:nonzero;fill:rgb(100%,100%,100%);fill-opacity:1;" d="M 41.347656 95.519531 C 40.976562 95.09375 40.667969 94.847656 40.546875 94.542969 C 40.546875 94.480469 41.039062 93.992188 41.160156 94.050781 C 41.53125 94.175781 41.839844 94.480469 42.144531 94.726562 C 41.898438 94.910156 41.714844 95.152344 41.347656 95.519531 Z M 41.347656 95.519531 "/>
</g>
</svg>
