<?xml version="1.0" encoding="UTF-8"?>
<svg xmlns="http://www.w3.org/2000/svg" xmlns:xlink="http://www.w3.org/1999/xlink" width="100px" height="100px" viewBox="0 0 100 100" version="1.1">
<g id="surface1">
<path style=" stroke:none;fill-rule:nonzero;fill:rgb(100%,100%,100%);fill-opacity:1;" d="M 0.0507812 0.0507812 C 33.386719 0.0507812 66.714844 0.0507812 100.050781 0.0507812 C 100.050781 33.386719 100.050781 66.714844 100.050781 100.050781 C 66.714844 100.050781 33.386719 100.050781 0.0507812 100.050781 C 0.0507812 66.714844 0.0507812 33.386719 0.0507812 0.0507812 Z M 0.25 50.085938 C 0.226562 77.539062 22.535156 99.898438 49.980469 99.941406 C 77.566406 99.980469 99.945312 77.648438 99.945312 50.089844 C 99.941406 22.601562 77.648438 0.289062 50.148438 0.25 C 22.625 0.214844 0.273438 22.535156 0.25 50.085938 Z M 0.25 50.085938 "/>
<path style=" stroke:none;fill-rule:nonzero;fill:rgb(0%,0%,0%);fill-opacity:1;" d="M 0.25 50.085938 C 0.273438 22.535156 22.625 0.214844 50.148438 0.25 C 77.648438 0.285156 99.941406 22.601562 99.945312 50.089844 C 99.949219 77.648438 77.566406 99.980469 49.980469 99.941406 C 22.535156 99.90625 0.230469 77.539062 0.25 50.085938 Z M 83.101562 19.40625 C 83.023438 19.453125 82.976562 19.480469 82.929688 19.515625 C 82.351562 19.980469 81.910156 20.566406 81.554688 21.214844 C 80.464844 23.203125 80.328125 25.320312 80.78125 27.496094 C 81.230469 29.671875 82.191406 31.625 83.375 33.484375 C 84.578125 35.375 86.035156 37.066406 87.515625 38.738281 C 89 40.421875 90.464844 42.113281 91.773438 43.933594 C 92.875 45.460938 93.605469 47.101562 93.605469 49.035156 C 93.605469 50.398438 93.679688 51.765625 93.808594 53.125 C 93.941406 54.480469 94.195312 55.824219 94.601562 57.136719 C 94.785156 57.730469 95.058594 58.285156 95.441406 58.835938 C 95.464844 58.726562 95.484375 58.648438 95.5 58.578125 C 95.921875 56.363281 96.164062 54.136719 96.265625 51.886719 C 96.410156 48.484375 96.179688 45.109375 95.585938 41.761719 C 94.996094 38.421875 94.046875 35.183594 92.714844 32.066406 C 88.890625 23.101562 82.871094 15.980469 74.628906 10.773438 C 68.300781 6.773438 61.386719 4.496094 53.925781 3.859375 C 51.246094 3.636719 48.566406 3.648438 45.886719 3.890625 C 43.023438 4.144531 40.210938 4.65625 37.449219 5.441406 C 30.683594 7.363281 24.65625 10.648438 19.40625 15.320312 C 12.421875 21.53125 7.726562 29.171875 5.296875 38.199219 C 5.246094 38.390625 5.28125 38.5 5.414062 38.636719 C 6.878906 40.09375 8.335938 41.558594 9.796875 43.023438 C 9.859375 43.089844 9.925781 43.148438 10.023438 43.238281 C 10.054688 43.191406 10.070312 43.148438 10.09375 43.121094 C 11.570312 41.34375 13.199219 39.730469 14.976562 38.261719 C 17.503906 36.160156 20.261719 34.441406 23.371094 33.324219 C 27.113281 31.984375 30.90625 31.753906 34.761719 32.808594 C 35.863281 33.113281 36.960938 33.46875 38.078125 33.71875 C 40.226562 34.203125 42.183594 33.78125 43.890625 32.359375 C 44.554688 31.804688 45.210938 31.234375 45.839844 30.640625 C 47.664062 28.925781 49.539062 27.28125 51.636719 25.898438 C 54.699219 23.890625 58.015625 22.421875 61.480469 21.273438 C 66.148438 19.726562 70.898438 18.558594 75.84375 18.378906 C 77.628906 18.316406 79.410156 18.394531 81.164062 18.761719 C 81.816406 18.890625 82.449219 19.066406 83.101562 19.40625 Z M 59.015625 95.328125 C 58.929688 95.238281 58.871094 95.175781 58.804688 95.109375 C 52.429688 88.710938 46.054688 82.308594 39.683594 75.910156 C 39.523438 75.75 39.371094 75.585938 39.199219 75.441406 C 36.273438 72.878906 33.515625 70.148438 30.808594 67.363281 C 27.855469 64.324219 24.976562 61.203125 22 58.183594 C 16.300781 52.40625 10.554688 46.671875 4.828125 40.921875 C 4.796875 40.886719 4.753906 40.859375 4.714844 40.828125 C 2.246094 52.601562 4.210938 68.878906 16.558594 81.851562 C 28.71875 94.625 45.28125 98.085938 59.015625 95.328125 Z M 95.296875 59.609375 C 95.179688 59.566406 95.089844 59.523438 94.996094 59.496094 C 93.710938 59.050781 92.378906 58.839844 91.03125 58.765625 C 88.09375 58.601562 85.253906 59.105469 82.515625 60.144531 C 78.921875 61.511719 75.804688 63.625 72.980469 66.203125 C 70.566406 68.410156 68.449219 70.886719 66.523438 73.519531 C 66.441406 73.636719 66.355469 73.75 66.246094 73.835938 C 65.445312 74.460938 64.65625 75.105469 63.824219 75.683594 C 62.761719 76.425781 61.609375 77.015625 60.34375 77.324219 C 59.539062 77.519531 58.730469 77.578125 57.941406 77.253906 C 57.125 76.921875 56.695312 76.15625 56.839844 75.289062 C 56.945312 74.671875 57.261719 74.171875 57.75 73.789062 C 58.523438 73.183594 59.324219 72.609375 59.964844 71.851562 C 60.164062 71.609375 60.308594 71.324219 60.460938 71.050781 C 60.550781 70.886719 60.46875 70.738281 60.316406 70.648438 C 60.210938 70.589844 60.089844 70.519531 59.96875 70.511719 C 59.460938 70.453125 58.945312 70.371094 58.429688 70.390625 C 57.648438 70.421875 56.863281 70.488281 56.09375 70.613281 C 55.011719 70.785156 53.921875 70.960938 52.863281 71.246094 C 51.554688 71.605469 50.378906 72.300781 49.269531 73.058594 C 47.554688 74.238281 45.878906 75.476562 44.183594 76.683594 C 44.023438 76.800781 43.863281 76.921875 43.695312 77.050781 C 43.769531 77.128906 43.828125 77.195312 43.894531 77.261719 C 49.648438 83.039062 55.410156 88.820312 61.160156 94.601562 C 61.320312 94.761719 61.453125 94.804688 61.679688 94.746094 C 65.121094 93.835938 68.429688 92.585938 71.566406 90.898438 C 81.789062 85.40625 89.023438 77.246094 93.269531 66.441406 C 94.144531 64.234375 94.800781 61.960938 95.296875 59.609375 Z M 60.355469 68.855469 C 57.363281 64.238281 54.398438 59.664062 51.425781 55.070312 C 51.285156 55.160156 51.175781 55.234375 51.058594 55.308594 C 54.039062 59.910156 57.003906 64.488281 59.984375 69.089844 C 60.113281 69.003906 60.226562 68.933594 60.355469 68.855469 Z M 60.355469 68.855469 "/>
<path style=" stroke:none;fill-rule:nonzero;fill:rgb(100%,100%,100%);fill-opacity:1;" d="M 83.101562 19.40625 C 82.449219 19.058594 81.816406 18.890625 81.164062 18.753906 C 79.410156 18.390625 77.628906 18.308594 75.84375 18.375 C 70.898438 18.554688 66.148438 19.726562 61.480469 21.269531 C 58.015625 22.421875 54.699219 23.890625 51.636719 25.894531 C 49.535156 27.269531 47.660156 28.921875 45.839844 30.636719 C 45.210938 31.230469 44.554688 31.800781 43.890625 32.355469 C 42.183594 33.773438 40.226562 34.199219 38.078125 33.714844 C 36.960938 33.460938 35.871094 33.109375 34.761719 32.804688 C 30.910156 31.75 27.113281 31.980469 23.371094 33.320312 C 20.261719 34.433594 17.503906 36.15625 14.976562 38.253906 C 13.199219 39.726562 11.570312 41.34375 10.09375 43.113281 C 10.070312 43.144531 10.050781 43.183594 10.023438 43.234375 C 9.925781 43.144531 9.859375 43.085938 9.796875 43.019531 C 8.335938 41.554688 6.878906 40.089844 5.414062 38.628906 C 5.28125 38.496094 5.246094 38.386719 5.296875 38.195312 C 7.726562 29.164062 12.421875 21.53125 19.40625 15.316406 C 24.65625 10.644531 30.683594 7.363281 37.449219 5.433594 C 40.210938 4.648438 43.023438 4.144531 45.886719 3.886719 C 48.566406 3.644531 51.246094 3.628906 53.925781 3.855469 C 61.386719 4.488281 68.304688 6.769531 74.628906 10.769531 C 82.871094 15.980469 88.890625 23.09375 92.714844 32.058594 C 94.046875 35.179688 94.988281 38.414062 95.585938 41.753906 C 96.179688 45.105469 96.410156 48.480469 96.265625 51.878906 C 96.171875 54.128906 95.921875 56.359375 95.5 58.574219 C 95.484375 58.644531 95.464844 58.71875 95.441406 58.828125 C 95.058594 58.285156 94.785156 57.726562 94.601562 57.128906 C 94.195312 55.820312 93.945312 54.476562 93.808594 53.121094 C 93.679688 51.761719 93.605469 50.394531 93.605469 49.03125 C 93.605469 47.09375 92.875 45.453125 91.773438 43.929688 C 90.460938 42.109375 89 40.410156 87.515625 38.734375 C 86.035156 37.058594 84.578125 35.371094 83.375 33.480469 C 82.191406 31.621094 81.226562 29.664062 80.78125 27.488281 C 80.328125 25.316406 80.46875 23.199219 81.554688 21.210938 C 81.910156 20.558594 82.351562 19.980469 82.929688 19.511719 C 82.976562 19.484375 83.023438 19.453125 83.101562 19.40625 Z M 83.101562 19.40625 "/>
<path style=" stroke:none;fill-rule:nonzero;fill:rgb(100%,100%,100%);fill-opacity:1;" d="M 59.015625 95.328125 C 45.28125 98.085938 28.71875 94.625 16.558594 81.851562 C 4.210938 68.878906 2.25 52.601562 4.714844 40.828125 C 4.753906 40.863281 4.800781 40.890625 4.828125 40.921875 C 10.554688 46.675781 16.300781 52.40625 21.996094 58.183594 C 24.96875 61.203125 27.851562 64.320312 30.804688 67.363281 C 33.511719 70.148438 36.269531 72.878906 39.195312 75.441406 C 39.363281 75.589844 39.519531 75.75 39.679688 75.910156 C 46.054688 82.308594 52.429688 88.710938 58.800781 95.109375 C 58.863281 95.175781 58.929688 95.238281 59.015625 95.328125 Z M 59.015625 95.328125 "/>
<path style=" stroke:none;fill-rule:nonzero;fill:rgb(100%,100%,100%);fill-opacity:1;" d="M 95.296875 59.609375 C 94.800781 61.960938 94.144531 64.234375 93.273438 66.445312 C 89.03125 77.25 81.796875 85.410156 71.570312 90.90625 C 68.433594 92.589844 65.125 93.839844 61.683594 94.75 C 61.460938 94.808594 61.324219 94.765625 61.164062 94.605469 C 55.410156 88.820312 49.65625 83.046875 43.898438 77.265625 C 43.835938 77.199219 43.773438 77.136719 43.699219 77.054688 C 43.871094 76.925781 44.03125 76.804688 44.191406 76.691406 C 45.886719 75.480469 47.558594 74.246094 49.273438 73.066406 C 50.386719 72.300781 51.558594 71.605469 52.871094 71.25 C 53.925781 70.960938 55.015625 70.789062 56.101562 70.621094 C 56.871094 70.496094 57.65625 70.425781 58.433594 70.394531 C 58.945312 70.375 59.460938 70.460938 59.976562 70.515625 C 60.09375 70.523438 60.210938 70.59375 60.320312 70.65625 C 60.476562 70.746094 60.554688 70.890625 60.464844 71.054688 C 60.316406 71.328125 60.171875 71.613281 59.96875 71.855469 C 59.335938 72.613281 58.535156 73.191406 57.753906 73.796875 C 57.265625 74.175781 56.949219 74.675781 56.84375 75.296875 C 56.699219 76.160156 57.125 76.925781 57.945312 77.261719 C 58.734375 77.585938 59.546875 77.523438 60.351562 77.328125 C 61.621094 77.019531 62.769531 76.433594 63.828125 75.691406 C 64.660156 75.109375 65.449219 74.464844 66.25 73.839844 C 66.359375 73.753906 66.445312 73.636719 66.53125 73.523438 C 68.453125 70.886719 70.570312 68.414062 72.984375 66.210938 C 75.804688 63.628906 78.925781 61.515625 82.519531 60.148438 C 85.261719 59.109375 88.101562 58.605469 91.035156 58.769531 C 92.386719 58.84375 93.714844 59.054688 95 59.5 C 95.089844 59.523438 95.179688 59.566406 95.296875 59.609375 Z M 56.359375 75.386719 C 56.453125 74.789062 56.699219 74.324219 57.046875 73.910156 C 57.550781 73.308594 58.148438 72.828125 58.800781 72.40625 C 59.054688 72.238281 59.324219 72.074219 59.546875 71.863281 C 59.894531 71.53125 59.796875 71.089844 59.34375 70.910156 C 59.214844 70.859375 59.074219 70.816406 58.941406 70.800781 C 58.046875 70.675781 57.144531 70.71875 56.25 70.835938 C 55.710938 70.90625 55.171875 71.019531 54.640625 71.160156 C 54.238281 71.265625 54.054688 71.609375 54.128906 72.015625 C 54.171875 72.234375 54.234375 72.453125 54.328125 72.65625 C 54.828125 73.660156 55.558594 74.5 56.359375 75.386719 Z M 56.359375 75.386719 "/>
<path style=" stroke:none;fill-rule:nonzero;fill:rgb(100%,100%,100%);fill-opacity:1;" d="M 60.355469 68.855469 C 60.226562 68.933594 60.113281 69.003906 59.984375 69.089844 C 57.011719 64.496094 54.039062 59.910156 51.058594 55.308594 C 51.179688 55.234375 51.285156 55.160156 51.425781 55.070312 C 54.398438 59.660156 57.363281 64.238281 60.355469 68.855469 Z M 60.355469 68.855469 "/>
<path style=" stroke:none;fill-rule:nonzero;fill:rgb(0%,0%,0%);fill-opacity:1;" d="M 56.359375 75.386719 C 55.558594 74.5 54.828125 73.660156 54.335938 72.644531 C 54.238281 72.445312 54.175781 72.226562 54.136719 72.003906 C 54.058594 71.601562 54.246094 71.261719 54.644531 71.148438 C 55.175781 71.011719 55.714844 70.898438 56.253906 70.824219 C 57.148438 70.710938 58.046875 70.664062 58.945312 70.789062 C 59.085938 70.808594 59.21875 70.851562 59.351562 70.898438 C 59.796875 71.078125 59.898438 71.519531 59.550781 71.855469 C 59.328125 72.066406 59.058594 72.230469 58.804688 72.394531 C 58.148438 72.820312 57.550781 73.300781 57.050781 73.898438 C 56.699219 74.324219 56.453125 74.789062 56.359375 75.386719 Z M 56.359375 75.386719 "/>
</g>
</svg>
