<?xml version="1.0" encoding="UTF-8"?>
<svg xmlns="http://www.w3.org/2000/svg" xmlns:xlink="http://www.w3.org/1999/xlink" width="57px" height="100px" viewBox="0 0 57 100" version="1.1">
<g id="surface1">
<path style=" stroke:none;fill-rule:nonzero;fill:rgb(99.607843%,99.607843%,99.607843%);fill-opacity:1;" d="M 41.070312 100.300781 C 27.789062 100.300781 14.511719 100.300781 1.230469 100.300781 C 0.417969 100.300781 0.214844 100.203125 0.214844 99.296875 C 0.214844 66.597656 0.214844 33.804688 0.214844 1.105469 C 0.214844 0.203125 0.417969 0.101562 1.332031 0.101562 C 19.679688 0.101562 38.03125 0.101562 56.378906 0.101562 C 57.1875 0.101562 57.492188 0.203125 57.492188 1.105469 C 57.492188 33.804688 57.492188 66.597656 57.492188 99.296875 C 57.492188 100.101562 57.289062 100.300781 56.480469 100.300781 C 51.714844 100.300781 46.949219 100.300781 42.085938 100.300781 C 42.085938 99.699219 42.691406 99.699219 43.097656 99.597656 C 45.125 98.792969 47.050781 97.886719 48.773438 96.679688 C 51.511719 94.871094 53.539062 92.453125 55.160156 89.738281 C 56.582031 87.425781 56.277344 86.519531 54.453125 84.507812 C 48.269531 77.261719 41.171875 70.824219 34.480469 63.984375 C 33.46875 62.878906 32.25 61.972656 31.136719 60.964844 C 29.414062 59.355469 27.183594 58.753906 24.851562 58.550781 C 22.925781 58.449219 21.300781 57.746094 19.984375 56.339844 C 17.347656 53.722656 14.914062 50.90625 12.484375 48.1875 C 11.875 47.585938 11.265625 46.882812 10.453125 46.480469 C 9.746094 46.175781 9.542969 45.675781 9.542969 44.96875 C 9.542969 43.761719 9.644531 42.554688 9.949219 41.347656 C 10.453125 39.539062 11.367188 38.832031 13.292969 38.832031 C 15.21875 38.832031 16.742188 39.636719 17.753906 41.148438 C 19.273438 43.5625 22.113281 43.359375 24.34375 42.453125 C 25.15625 42.152344 25.660156 41.550781 25.863281 40.746094 C 25.863281 40.542969 25.761719 40.542969 25.660156 40.542969 C 24.75 40.84375 24.039062 40.746094 23.632812 39.839844 C 23.328125 39.136719 23.734375 38.027344 24.546875 37.523438 C 25.355469 37.023438 26.269531 37.023438 27.285156 37.222656 C 29.414062 37.726562 31.441406 38.53125 33.570312 38.632812 C 36.40625 38.832031 39.042969 38.128906 41.070312 36.015625 C 42.1875 34.910156 42.589844 33.5 42.488281 31.890625 C 42.386719 31.289062 42.289062 30.886719 41.578125 31.386719 C 39.855469 32.695312 37.929688 31.992188 36.8125 30.382812 C 35.699219 28.773438 36 27.0625 37.625 25.652344 C 38.535156 24.847656 39.652344 24.546875 40.867188 24.347656 C 44.214844 23.84375 46.644531 22.132812 47.558594 18.8125 C 48.167969 16.902344 48.066406 14.789062 47.253906 12.777344 C 46.746094 13.078125 46.746094 13.480469 46.644531 13.78125 C 45.835938 15.792969 44.113281 16.5 42.1875 16.699219 C 40.96875 16.800781 40.058594 16.296875 39.347656 15.191406 C 37.523438 12.171875 38.738281 8.148438 41.984375 6.539062 C 43.097656 5.9375 43.199219 5.835938 42.1875 4.929688 C 41.070312 4.023438 39.855469 3.621094 38.332031 3.824219 C 35.496094 4.324219 32.148438 6.238281 31.644531 10.058594 C 31.238281 12.574219 29.210938 14.285156 26.675781 14.585938 C 25.558594 14.6875 24.546875 14.386719 23.734375 13.480469 C 22.925781 12.476562 23.027344 11.269531 24.039062 10.363281 C 24.851562 9.65625 25.761719 9.15625 26.777344 8.953125 C 30.324219 8.046875 31.339844 4.828125 29.3125 1.609375 C 29.109375 1.507812 29.007812 1.710938 29.007812 1.8125 C 27.992188 4.023438 26.167969 5.332031 23.835938 6.035156 C 22.316406 6.539062 20.695312 6.839844 19.070312 7.242188 C 11.570312 9.253906 6.703125 15.695312 6.90625 23.441406 C 6.90625 24.445312 7.109375 25.351562 7.414062 26.257812 C 7.820312 27.363281 7.414062 28.070312 6.398438 28.570312 C 5.285156 29.175781 4.371094 29.878906 3.359375 30.582031 C 2.34375 31.289062 1.738281 32.09375 1.636719 33.300781 C 1.332031 35.914062 1.027344 38.128906 1.027344 40.34375 C 0.925781 41.953125 0.722656 43.460938 0.722656 45.070312 C 0.722656 45.976562 1.027344 46.679688 1.839844 47.285156 C 3.054688 48.089844 4.066406 49.09375 5.285156 49.699219 C 7.3125 53.117188 10.253906 55.835938 12.785156 58.953125 C 13.496094 59.859375 14.105469 60.664062 14.511719 61.671875 C 14.914062 62.777344 14.8125 63.984375 14.710938 65.089844 C 14.410156 68.410156 15.21875 71.628906 16.941406 74.445312 C 18.261719 76.660156 19.882812 78.570312 21.707031 80.382812 C 27.082031 85.714844 32.453125 91.148438 37.929688 96.378906 C 39.042969 97.484375 39.957031 98.691406 41.070312 99.699219 C 41.070312 100 41.070312 100.101562 41.070312 100.300781 Z M 41.070312 100.300781 "/>
<path style=" stroke:none;fill-rule:nonzero;fill:rgb(1.568628%,1.176471%,1.960784%);fill-opacity:1;" d="M 41.070312 100.300781 C 39.246094 98.492188 37.421875 96.578125 35.597656 94.769531 C 30.730469 89.839844 25.761719 85.011719 20.898438 80.082031 C 18.261719 77.363281 15.929688 74.347656 15.015625 70.523438 C 14.511719 68.511719 14.105469 66.597656 14.613281 64.488281 C 14.8125 63.582031 14.511719 62.675781 14.410156 61.769531 C 14.308594 61.46875 14.207031 61.167969 14.511719 60.964844 C 15.21875 61.066406 15.21875 61.769531 15.421875 62.273438 C 15.929688 63.78125 15.625 65.390625 15.726562 66.902344 C 15.929688 71.125 17.652344 74.648438 20.492188 77.765625 C 25.054688 82.796875 30.019531 87.324219 34.683594 92.152344 C 36.507812 93.964844 38.128906 95.976562 40.058594 97.6875 C 40.257812 97.886719 40.359375 98.089844 40.765625 98.089844 C 41.171875 97.382812 41.375 96.578125 41.78125 95.875 C 44.417969 91.347656 48.472656 88.230469 53.132812 86.117188 C 54.453125 85.511719 54.453125 85.511719 53.4375 84.40625 C 46.34375 76.761719 38.839844 69.417969 31.441406 62.074219 C 29.714844 60.261719 27.6875 59.253906 25.054688 59.253906 C 23.429688 59.253906 22.011719 58.652344 20.796875 57.746094 C 18.363281 55.53125 16.132812 53.019531 13.902344 50.503906 C 13.496094 50.101562 13.089844 49.597656 12.683594 49.195312 C 12.484375 48.992188 12.382812 48.894531 12.179688 48.691406 C 10.453125 46.980469 9.136719 46.980469 7.515625 48.894531 C 7.109375 49.394531 6.90625 49.898438 6.5 50.300781 C 5.996094 50.503906 5.894531 49.796875 5.488281 49.796875 C 3.867188 49.09375 2.546875 47.886719 1.230469 46.78125 C 0.722656 46.378906 0.722656 45.773438 0.722656 45.171875 C 0.722656 41.953125 1.332031 38.730469 1.332031 35.613281 C 1.230469 31.789062 3.765625 30.382812 6.398438 28.875 C 7.414062 28.269531 7.617188 27.867188 7.3125 26.761719 C 4.777344 18.308594 10.253906 9.457031 18.769531 7.34375 C 20.390625 6.941406 22.011719 6.640625 23.632812 6.136719 C 25.964844 5.433594 27.789062 4.125 28.601562 1.710938 C 28.703125 1.507812 28.804688 1.308594 29.007812 1.105469 C 30.527344 3.019531 30.933594 6.238281 29.613281 7.847656 C 28.90625 8.652344 27.992188 9.15625 27.082031 9.558594 C 26.269531 9.859375 25.355469 10.058594 24.648438 10.5625 C 23.734375 11.066406 22.925781 11.871094 23.328125 13.078125 C 23.632812 14.183594 25.054688 14.988281 26.371094 14.789062 C 28.703125 14.488281 30.933594 13.078125 31.441406 9.960938 C 31.945312 6.339844 36.609375 3.21875 40.160156 4.023438 C 41.375 4.324219 42.289062 5.03125 42.996094 5.835938 C 43.503906 6.4375 43.503906 6.742188 42.691406 6.941406 C 39.347656 7.746094 37.421875 12.574219 39.652344 15.695312 C 40.257812 16.5 40.867188 16.902344 41.882812 16.902344 C 44.113281 16.902344 45.734375 15.59375 46.644531 13.179688 C 46.746094 12.976562 46.644531 12.476562 47.050781 12.574219 C 47.253906 12.574219 47.558594 12.878906 47.660156 13.179688 C 49.789062 19.417969 46.242188 24.648438 40.5625 25.050781 C 39.347656 25.152344 38.230469 25.652344 37.421875 26.558594 C 36.203125 28.070312 36.203125 29.777344 37.625 31.1875 C 38.839844 32.394531 40.5625 32.394531 41.882812 31.085938 C 42.085938 30.984375 42.085938 30.582031 42.386719 30.683594 C 43.300781 35.210938 40.867188 38.429688 36.40625 39.136719 C 33.773438 39.539062 31.339844 38.933594 28.804688 38.230469 C 27.585938 37.925781 26.472656 37.425781 25.15625 37.828125 C 24.445312 38.027344 23.9375 38.53125 23.835938 39.234375 C 23.734375 39.738281 23.835938 40.242188 24.34375 40.644531 C 24.851562 40.945312 25.257812 40.84375 25.660156 40.441406 C 25.863281 40.34375 25.964844 40.039062 26.371094 40.039062 C 26.472656 41.347656 25.964844 42.355469 24.851562 42.855469 C 23.226562 43.5625 21.503906 43.964844 19.679688 43.359375 C 18.871094 43.058594 18.261719 42.453125 17.855469 41.75 C 16.335938 39.636719 14.003906 38.730469 11.773438 39.539062 C 11.367188 39.636719 10.960938 39.941406 10.757812 40.34375 C 10.253906 41.851562 9.746094 43.257812 9.847656 44.871094 C 9.949219 45.675781 10.050781 46.277344 11.0625 46.480469 C 11.875 46.679688 12.28125 47.484375 12.886719 48.089844 C 14.914062 50.300781 17.042969 52.515625 18.96875 54.828125 C 21 57.242188 23.429688 58.449219 26.574219 58.550781 C 28.5 58.652344 30.222656 59.558594 31.644531 60.863281 C 37.929688 66.597656 43.910156 72.636719 49.890625 78.773438 C 51.917969 80.886719 53.640625 83.199219 55.667969 85.210938 C 56.683594 86.316406 56.683594 87.523438 56.074219 88.832031 C 53.742188 93.5625 49.992188 96.882812 45.226562 99.09375 C 44.214844 99.597656 43.199219 99.898438 42.1875 100.300781 C 41.679688 100.300781 41.375 100.300781 41.070312 100.300781 Z M 41.070312 100.300781 "/>
<path style=" stroke:none;fill-rule:nonzero;fill:rgb(4.313726%,6.666667%,4.705882%);fill-opacity:1;" d="M 5.183594 49.796875 C 5.691406 49.699219 5.792969 50.300781 6.195312 50.300781 C 9.035156 53.320312 11.570312 56.640625 14.207031 59.859375 C 14.410156 60.160156 14.8125 60.460938 14.511719 60.863281 C 14.410156 61.167969 14.410156 61.367188 14.308594 61.671875 C 12.785156 58.851562 10.453125 56.640625 8.425781 54.226562 C 7.210938 52.816406 5.792969 51.609375 5.183594 49.796875 Z M 5.183594 49.796875 "/>
<path style=" stroke:none;fill-rule:nonzero;fill:rgb(96.862745%,61.960787%,34.901962%);fill-opacity:1;" d="M 7.515625 22.03125 C 8.226562 15.089844 12.886719 9.253906 21.503906 7.546875 C 23.128906 7.242188 24.75 6.839844 26.167969 5.9375 C 27.484375 5.128906 28.5 4.125 29.210938 2.714844 C 30.527344 4.929688 29.714844 7.445312 27.386719 8.351562 C 26.574219 8.652344 25.761719 8.851562 24.953125 9.15625 C 22.824219 10.058594 21.707031 11.871094 22.316406 13.683594 C 22.824219 15.292969 25.054688 16.296875 27.082031 15.894531 C 29.816406 15.292969 31.644531 13.179688 31.945312 10.460938 C 32.453125 6.640625 36.304688 3.824219 40.058594 4.628906 C 40.359375 4.726562 40.765625 4.828125 41.070312 5.03125 C 42.289062 5.734375 42.289062 5.9375 41.070312 6.640625 C 38.332031 8.351562 36.914062 11.871094 37.828125 14.890625 C 38.839844 18.210938 42.792969 19.015625 45.53125 16.5 C 46.140625 15.996094 46.445312 15.292969 46.949219 14.6875 C 47.863281 18.511719 45.53125 22.535156 41.679688 23.441406 C 40.765625 23.640625 39.753906 23.742188 38.839844 23.945312 C 36 24.648438 34.480469 27.0625 35.089844 29.679688 C 35.699219 32.496094 38.839844 34.207031 41.984375 31.789062 C 42.085938 34.105469 40.460938 36.21875 37.828125 37.222656 C 35.292969 38.230469 32.859375 38.027344 30.324219 37.324219 C 29.210938 37.023438 28.195312 36.621094 26.777344 36.621094 C 27.992188 35.914062 29.210938 35.914062 30.324219 35.511719 C 31.136719 35.3125 31.441406 34.910156 31.238281 34.105469 C 30.730469 31.992188 30.222656 29.980469 29.816406 27.96875 C 29.714844 27.363281 29.3125 27.261719 28.804688 27.363281 C 27.082031 27.765625 25.863281 27.464844 25.355469 25.554688 C 25.054688 24.546875 24.140625 23.640625 23.027344 23.441406 C 21.808594 23.238281 21.707031 22.335938 21.605469 21.527344 C 21.300781 19.515625 21.300781 19.417969 19.476562 20.625 C 15.828125 22.9375 12.179688 25.050781 8.425781 27.0625 C 8.226562 27.164062 7.921875 27.261719 7.617188 27.464844 C 7.515625 26.457031 7.414062 25.652344 7.3125 24.75 C 7.617188 23.945312 7.617188 23.039062 7.515625 22.03125 Z M 7.515625 22.03125 "/>
<path style=" stroke:none;fill-rule:nonzero;fill:rgb(33.725491%,57.254905%,42.352942%);fill-opacity:1;" d="M 14.410156 60.964844 C 12.179688 57.644531 9.441406 54.628906 6.804688 51.507812 C 6.5 51.105469 6.097656 50.90625 6.195312 50.300781 C 6.703125 48.589844 8.125 47.6875 9.644531 47.082031 C 10.152344 46.882812 10.65625 47.183594 11.0625 47.484375 C 11.570312 47.988281 12.078125 48.492188 12.582031 49.09375 C 12.484375 49.195312 12.28125 49.296875 12.078125 49.296875 C 11.875 49.296875 11.671875 49.09375 11.46875 48.992188 C 10.355469 48.1875 9.035156 48.390625 8.226562 49.496094 C 7.71875 50.203125 7.71875 50.90625 8.324219 51.609375 C 10.355469 53.824219 12.28125 56.238281 14.308594 58.449219 C 16.03125 60.363281 17.042969 62.476562 16.742188 64.988281 C 16.132812 70.121094 18.667969 74.042969 21.910156 77.664062 C 26.777344 82.996094 32.25 87.828125 37.117188 93.257812 C 37.828125 94.0625 38.636719 94.667969 39.449219 95.371094 C 40.058594 95.976562 40.460938 95.773438 40.867188 95.070312 C 41.476562 93.863281 42.289062 92.855469 42.996094 91.75 C 45.023438 88.933594 47.964844 87.324219 51.003906 85.914062 C 52.222656 85.414062 52.324219 85.210938 51.410156 84.207031 C 46.445312 78.570312 41.070312 73.339844 35.699219 68.109375 C 33.773438 66.296875 31.945312 64.386719 29.816406 62.675781 C 28.296875 61.367188 26.371094 60.964844 24.34375 60.765625 C 22.722656 60.5625 21.503906 59.757812 20.390625 58.652344 C 20.1875 58.449219 19.984375 58.148438 20.085938 57.847656 C 20.289062 57.644531 20.390625 57.445312 20.695312 57.644531 C 22.519531 58.953125 24.648438 59.054688 26.777344 59.253906 C 28.398438 59.355469 29.613281 60.261719 30.730469 61.269531 C 37.726562 68.210938 44.820312 75.050781 51.613281 82.191406 C 52.730469 83.300781 53.742188 84.507812 54.757812 85.714844 C 48.371094 88.328125 43.199219 92.050781 40.664062 98.691406 C 39.449219 97.484375 38.03125 96.277344 36.710938 94.96875 C 31.742188 89.941406 26.675781 85.011719 21.808594 79.980469 C 19.679688 77.765625 17.652344 75.453125 16.4375 72.636719 C 15.421875 70.320312 15.015625 67.90625 15.117188 65.390625 C 15.21875 63.683594 15.21875 62.273438 14.410156 60.964844 Z M 14.410156 60.964844 "/>
<path style=" stroke:none;fill-rule:nonzero;fill:rgb(69.01961%,73.725492%,64.313728%);fill-opacity:1;" d="M 30.121094 34.609375 C 27.585938 35.511719 24.851562 35.816406 22.214844 36.316406 C 18.667969 36.921875 15.015625 37.324219 11.570312 38.429688 C 10.554688 38.730469 9.847656 39.335938 9.644531 40.441406 C 9.136719 42.253906 8.628906 43.964844 9.136719 45.875 C 9.238281 46.277344 9.136719 46.480469 8.832031 46.679688 C 8.324219 46.980469 7.820312 47.183594 7.3125 47.484375 C 7.007812 47.585938 6.703125 47.6875 6.703125 47.183594 C 7.3125 46.980469 6.703125 46.679688 6.703125 46.480469 C 6.804688 45.773438 6.296875 45.273438 6.5 44.667969 C 6.601562 44.769531 6.5 44.96875 6.296875 45.070312 C 5.792969 43.460938 6.398438 41.851562 6.804688 40.34375 C 7.007812 39.738281 7.210938 39.234375 7.515625 38.730469 C 8.226562 37.925781 8.425781 37.023438 8.933594 36.117188 C 9.949219 34.808594 11.265625 34.207031 12.785156 33.703125 C 17.449219 32.09375 22.011719 30.28125 26.777344 28.875 C 28.195312 28.671875 29.007812 29.277344 29.109375 30.785156 C 29.109375 31.386719 29.515625 32.191406 29.816406 32.796875 C 30.019531 33.402344 30.425781 34.003906 30.121094 34.609375 Z M 30.121094 34.609375 "/>
<path style=" stroke:none;fill-rule:nonzero;fill:rgb(69.01961%,74.117649%,64.705884%);fill-opacity:1;" d="M 6.703125 47.183594 C 6.804688 47.382812 7.109375 47.484375 7.3125 47.484375 C 6.804688 48.390625 6.296875 48.1875 5.691406 47.484375 C 3.359375 45.171875 3.054688 42.453125 3.664062 39.4375 C 3.765625 39.035156 3.867188 38.632812 3.96875 38.328125 C 4.574219 34.609375 6.804688 32.09375 10.050781 30.28125 C 13.191406 28.570312 16.539062 27.164062 19.679688 25.152344 C 19.78125 25.050781 19.882812 25.050781 19.984375 24.949219 C 20.695312 24.648438 21.097656 23.640625 22.214844 24.042969 C 23.429688 24.445312 24.445312 25.152344 24.953125 26.359375 C 24.953125 26.359375 24.851562 26.457031 24.851562 26.457031 C 25.15625 28.269531 25.15625 28.269531 23.53125 29.074219 C 20.390625 30.28125 17.246094 31.691406 14.003906 32.59375 C 9.542969 33.804688 7.3125 36.820312 6.195312 41.046875 C 6.097656 41.648438 5.996094 42.253906 5.792969 42.855469 C 5.488281 43.5625 5.488281 44.265625 5.792969 44.96875 C 6.195312 45.675781 6.195312 46.578125 6.703125 47.183594 Z M 6.703125 47.183594 "/>
<path style=" stroke:none;fill-rule:nonzero;fill:rgb(69.411767%,74.117649%,64.705884%);fill-opacity:1;" d="M 4.066406 31.1875 C 5.386719 29.878906 7.109375 28.972656 8.730469 27.96875 C 11.671875 26.257812 14.613281 24.546875 17.550781 22.835938 C 18.363281 22.835938 18.96875 22.335938 19.476562 21.832031 C 19.679688 21.628906 19.984375 21.429688 20.289062 21.328125 C 21.300781 22.03125 21.402344 22.636719 20.695312 23.542969 C 20.492188 23.742188 20.1875 23.945312 20.085938 24.246094 C 17.855469 25.957031 15.421875 27.0625 12.988281 28.269531 C 10.960938 29.375 8.832031 30.484375 7.007812 31.890625 C 5.792969 32.796875 4.980469 33.902344 4.574219 35.414062 C 4.066406 37.121094 3.5625 38.933594 3.15625 40.746094 C 2.953125 42.253906 2.75 43.660156 3.664062 45.070312 C 4.066406 46.175781 4.878906 47.382812 6.097656 48.1875 C 6.804688 48.691406 5.792969 48.992188 5.894531 49.699219 C 4.777344 48.492188 3.359375 47.785156 2.445312 46.679688 C 1.636719 45.574219 1.839844 44.265625 1.738281 43.058594 C 1.941406 40.84375 2.039062 38.730469 2.242188 36.519531 C 2.546875 36.015625 2.648438 35.414062 2.648438 34.910156 C 2.445312 33.402344 3.054688 32.292969 4.066406 31.1875 Z M 4.066406 31.1875 "/>
<path style=" stroke:none;fill-rule:nonzero;fill:rgb(20%,32.549021%,22.745098%);fill-opacity:1;" d="M 40.96875 99.296875 C 42.691406 95.273438 45.328125 92.355469 48.675781 90.140625 C 50.296875 89.035156 52.019531 87.925781 53.945312 87.425781 C 54.25 87.324219 54.65625 87.121094 54.859375 87.425781 C 55.160156 87.726562 54.757812 88.027344 54.65625 88.230469 C 52.019531 93.964844 47.355469 97.484375 40.96875 99.296875 Z M 40.96875 99.296875 "/>
<path style=" stroke:none;fill-rule:nonzero;fill:rgb(96.470588%,62.352943%,34.901962%);fill-opacity:1;" d="M 23.226562 38.429688 C 22.824219 39.539062 23.226562 40.34375 24.039062 41.046875 C 24.242188 41.347656 24.546875 41.75 24.039062 42.050781 C 21.605469 42.855469 19.476562 42.757812 17.957031 40.34375 C 17.449219 39.539062 16.539062 39.136719 15.523438 38.429688 C 17.855469 38.230469 19.78125 37.425781 21.910156 37.625 C 22.417969 37.625 22.621094 37.222656 23.027344 37.222656 C 23.734375 37.625 23.027344 38.128906 23.226562 38.429688 Z M 23.226562 38.429688 "/>
<path style=" stroke:none;fill-rule:nonzero;fill:rgb(40.000001%,62.7451%,49.411765%);fill-opacity:1;" d="M 20.695312 57.546875 C 20.492188 57.644531 20.390625 57.746094 20.1875 57.847656 C 19.273438 57.546875 18.769531 56.839844 18.160156 56.136719 C 16.4375 54.125 14.410156 52.3125 12.683594 50.203125 C 12.382812 49.898438 11.976562 49.597656 12.078125 49.09375 C 12.28125 49.09375 12.484375 49.09375 12.683594 49.09375 C 15.320312 51.910156 17.957031 54.726562 20.695312 57.546875 Z M 20.695312 57.546875 "/>
<path style=" stroke:none;fill-rule:nonzero;fill:rgb(69.01961%,74.509805%,66.666669%);fill-opacity:1;" d="M 29.816406 32.695312 C 29.515625 31.691406 28.703125 30.984375 28.804688 29.777344 C 28.90625 29.277344 28.5 28.972656 27.890625 29.175781 C 27.484375 29.277344 26.980469 29.578125 26.878906 28.875 C 27.183594 28.773438 27.585938 28.671875 27.890625 28.570312 C 28.601562 28.269531 28.90625 28.671875 29.007812 29.277344 C 29.3125 30.382812 29.613281 31.589844 29.917969 32.695312 C 30.019531 32.796875 29.917969 32.796875 29.816406 32.695312 Z M 29.816406 32.695312 "/>
<path style=" stroke:none;fill-rule:nonzero;fill:rgb(75.686276%,78.823531%,71.372551%);fill-opacity:1;" d="M 4.066406 31.1875 C 4.066406 31.289062 4.167969 31.386719 4.167969 31.386719 C 2.648438 32.695312 2.851562 34.507812 2.546875 36.117188 C 2.546875 36.316406 2.34375 36.417969 2.140625 36.519531 C 2.34375 34.609375 1.941406 32.496094 4.066406 31.1875 Z M 4.066406 31.1875 "/>
<path style=" stroke:none;fill-rule:nonzero;fill:rgb(77.254903%,80.392158%,71.372551%);fill-opacity:1;" d="M 19.882812 24.246094 C 19.679688 24.042969 19.882812 23.84375 19.984375 23.742188 C 21 22.9375 21 22.132812 20.085938 21.328125 C 20.695312 20.824219 21 20.722656 21.097656 21.730469 C 21.199219 22.835938 21 23.742188 19.882812 24.246094 Z M 19.882812 24.246094 "/>
<path style=" stroke:none;fill-rule:nonzero;fill:rgb(74.509805%,77.64706%,71.372551%);fill-opacity:1;" d="M 9.136719 36.015625 C 8.933594 37.023438 8.730469 38.027344 7.71875 38.632812 C 7.921875 37.625 8.425781 36.820312 9.136719 36.015625 Z M 9.136719 36.015625 "/>
<path style=" stroke:none;fill-rule:nonzero;fill:rgb(80.392158%,83.92157%,76.47059%);fill-opacity:1;" d="M 3.359375 44.96875 C 2.851562 44.871094 2.75 44.367188 2.75 44.0625 C 2.546875 42.957031 2.648438 41.75 2.75 40.644531 C 2.75 40.644531 2.851562 40.644531 2.851562 40.644531 C 2.851562 40.644531 2.953125 40.644531 2.953125 40.746094 C 2.75 42.152344 2.851562 43.5625 3.359375 44.96875 Z M 3.359375 44.96875 "/>
<path style=" stroke:none;fill-rule:nonzero;fill:rgb(78.823531%,81.960785%,74.117649%);fill-opacity:1;" d="M 23.53125 29.074219 C 23.632812 28.972656 23.835938 28.773438 23.9375 28.671875 C 24.953125 28.371094 25.457031 27.867188 24.648438 26.859375 C 24.445312 26.558594 24.648438 26.457031 24.851562 26.359375 C 24.851562 26.359375 24.851562 26.457031 24.851562 26.457031 C 25.863281 28.671875 25.863281 28.671875 23.53125 29.074219 Z M 23.53125 29.074219 "/>
<path style=" stroke:none;fill-rule:nonzero;fill:rgb(81.176472%,85.09804%,78.039217%);fill-opacity:1;" d="M 1.636719 43.058594 C 1.839844 44.265625 2.140625 45.472656 2.34375 46.679688 C 1.230469 45.675781 1.738281 44.265625 1.636719 43.058594 Z M 1.636719 43.058594 "/>
<path style=" stroke:none;fill-rule:nonzero;fill:rgb(76.078433%,78.823531%,70.588237%);fill-opacity:1;" d="M 19.375 21.832031 C 19.070312 22.636719 18.464844 23.039062 17.449219 22.835938 C 18.058594 22.535156 18.769531 22.132812 19.375 21.832031 Z M 19.375 21.832031 "/>
<path style=" stroke:none;fill-rule:nonzero;fill:rgb(92.156863%,72.941178%,44.705883%);fill-opacity:1;" d="M 24.039062 42.152344 C 24.34375 41.75 23.835938 41.449219 24.039062 41.148438 C 24.445312 41.246094 24.75 41.449219 25.257812 41.347656 C 24.953125 41.953125 24.546875 42.050781 24.039062 42.152344 Z M 24.039062 42.152344 "/>
<path style=" stroke:none;fill-rule:nonzero;fill:rgb(98.431373%,75.294119%,47.058824%);fill-opacity:1;" d="M 7.515625 22.03125 C 7.820312 23.039062 7.820312 23.945312 7.515625 24.949219 C 7.515625 23.945312 7.515625 23.039062 7.515625 22.03125 Z M 7.515625 22.03125 "/>
<path style=" stroke:none;fill-rule:nonzero;fill:rgb(76.862746%,80.000001%,73.333335%);fill-opacity:1;" d="M 29.816406 32.695312 C 29.917969 32.695312 29.917969 32.695312 30.019531 32.695312 C 30.121094 33.300781 30.730469 34.003906 30.019531 34.609375 C 30.019531 34.003906 29.917969 33.300781 29.816406 32.695312 Z M 29.816406 32.695312 "/>
<path style=" stroke:none;fill-rule:nonzero;fill:rgb(93.333334%,69.01961%,44.705883%);fill-opacity:1;" d="M 23.226562 38.429688 C 22.824219 38.128906 23.328125 37.625 23.027344 37.324219 C 23.328125 37.324219 23.632812 37.222656 24.039062 37.222656 C 23.734375 37.726562 23.53125 38.128906 23.226562 38.429688 Z M 23.226562 38.429688 "/>
<path style=" stroke:none;fill-rule:nonzero;fill:rgb(80.392158%,83.137256%,76.47059%);fill-opacity:1;" d="M 6.5 45.070312 C 6.5 44.871094 6.601562 44.667969 6.601562 44.566406 C 6.5 45.273438 7.3125 45.773438 6.804688 46.480469 C 6.601562 45.976562 6.398438 45.574219 6.5 45.070312 Z M 6.5 45.070312 "/>
<path style=" stroke:none;fill-rule:nonzero;fill:rgb(81.960785%,85.490197%,78.039217%);fill-opacity:1;" d="M 5.792969 44.96875 C 5.183594 44.265625 5.488281 43.5625 5.589844 42.855469 C 5.589844 42.855469 5.691406 42.855469 5.691406 42.855469 C 5.691406 42.855469 5.792969 42.855469 5.792969 42.957031 C 5.792969 43.5625 5.792969 44.265625 5.792969 44.96875 Z M 5.792969 44.96875 "/>
<path style=" stroke:none;fill-rule:nonzero;fill:rgb(1.176471%,1.568628%,0.784314%);fill-opacity:1;" d="M 12.078125 49.09375 C 14.8125 52.011719 17.550781 54.828125 20.1875 57.746094 C 21.503906 59.65625 23.328125 60.460938 25.660156 60.664062 C 27.6875 60.863281 29.414062 61.671875 30.933594 63.078125 C 38.128906 69.71875 45.226562 76.660156 51.816406 83.902344 C 51.917969 84.003906 52.121094 84.207031 52.222656 84.40625 C 53.132812 85.414062 53.132812 85.511719 51.816406 86.015625 C 47.152344 87.625 43.707031 90.644531 41.375 95.070312 C 40.5625 96.578125 40.460938 96.679688 39.144531 95.371094 C 32.757812 89.035156 26.167969 82.898438 20.289062 76.15625 C 17.753906 73.238281 16.03125 69.917969 16.539062 65.996094 C 16.941406 62.675781 15.523438 60.058594 13.292969 57.644531 C 11.570312 55.835938 10.050781 53.921875 8.324219 52.011719 C 7.3125 50.804688 7.210938 50 8.226562 49.09375 C 9.644531 47.785156 10.65625 47.6875 11.671875 48.792969 C 11.773438 48.894531 11.875 48.992188 12.078125 49.09375 Z M 12.078125 49.09375 "/>
<path style=" stroke:none;fill-rule:nonzero;fill:rgb(29.411766%,24.313726%,16.862746%);fill-opacity:1;" d="M 51.816406 85.210938 C 46.644531 87.121094 42.691406 90.242188 40.058594 95.371094 C 32.859375 87.324219 24.445312 80.683594 18.363281 71.832031 C 20.1875 72.738281 21.910156 73.339844 23.9375 72.738281 C 25.15625 72.433594 26.167969 72.03125 26.066406 70.421875 C 26.066406 69.71875 26.371094 69.316406 27.285156 69.214844 C 29.816406 68.914062 32.351562 69.214844 34.886719 68.410156 C 35.597656 68.210938 35.902344 68.613281 36.304688 69.015625 C 40.359375 72.9375 44.214844 77.0625 48.066406 81.1875 C 49.28125 82.59375 50.5 83.804688 51.816406 85.210938 Z M 51.816406 85.210938 "/>
<path style=" stroke:none;fill-rule:nonzero;fill:rgb(49.411765%,52.156866%,45.490196%);fill-opacity:1;" d="M 21.199219 63.28125 C 21.605469 66.296875 22.417969 69.214844 22.722656 72.234375 C 20.289062 72.535156 19.070312 71.628906 18.566406 69.316406 C 18.058594 66.800781 17.753906 64.285156 16.941406 61.769531 C 16.4375 60.261719 15.421875 59.054688 14.308594 57.847656 C 12.382812 55.734375 10.453125 53.519531 8.425781 51.410156 C 7.617188 50.503906 7.921875 49.796875 8.628906 49.195312 C 9.542969 48.289062 10.453125 48.1875 11.164062 48.992188 C 12.382812 50.300781 13.597656 51.609375 14.8125 52.816406 C 16.742188 54.929688 18.667969 57.042969 20.695312 59.054688 C 21.503906 59.859375 22.519531 60.5625 23.226562 61.367188 C 25.054688 63.28125 26.066406 65.59375 25.457031 68.308594 C 25.355469 69.015625 25.355469 69.71875 25.355469 70.320312 C 25.355469 70.722656 25.355469 71.125 24.953125 71.429688 C 24.445312 71.832031 23.734375 72.132812 23.226562 72.03125 C 22.722656 71.929688 23.027344 71.226562 23.027344 70.722656 C 22.824219 68.308594 22.316406 65.695312 21.199219 63.28125 Z M 21.199219 63.28125 "/>
<path style=" stroke:none;fill-rule:nonzero;fill:rgb(43.529412%,52.156866%,33.725491%);fill-opacity:1;" d="M 35.089844 67.90625 C 33.265625 68.613281 31.441406 68.511719 29.714844 68.613281 C 28.703125 68.710938 27.484375 69.015625 26.574219 68.613281 C 25.558594 68.210938 26.269531 66.800781 26.066406 65.894531 C 25.660156 63.984375 24.546875 62.476562 23.226562 60.964844 C 26.167969 61.066406 28.804688 61.769531 30.832031 63.984375 C 32.148438 65.292969 33.570312 66.5 35.089844 67.90625 Z M 35.089844 67.90625 "/>
<path style=" stroke:none;fill-rule:nonzero;fill:rgb(20.392157%,19.215687%,16.470589%);fill-opacity:1;" d="M 17.652344 68.410156 C 17.855469 69.316406 18.058594 70.121094 18.261719 71.027344 C 17.652344 70.222656 17.347656 69.417969 17.652344 68.410156 Z M 17.652344 68.410156 "/>
</g>
</svg>
