<?xml version="1.0" encoding="UTF-8"?>
<svg xmlns="http://www.w3.org/2000/svg" xmlns:xlink="http://www.w3.org/1999/xlink" width="100px" height="94px" viewBox="0 0 100 94" version="1.1">
<g id="surface1">
<path style=" stroke:none;fill-rule:nonzero;fill:rgb(0%,0%,0%);fill-opacity:1;" d="M 0.0664062 11.625 C 0.0664062 11.378906 0.0664062 11.136719 0.0664062 10.890625 C 0.207031 10.796875 0.125 10.648438 0.160156 10.527344 C 0.566406 8.746094 1.128906 7.015625 1.96875 5.390625 C 2.679688 4.027344 3.492188 2.734375 4.871094 1.925781 C 5.0625 1.808594 5.03125 1.691406 4.882812 1.558594 C 4.761719 1.449219 4.574219 1.441406 4.449219 1.269531 C 5.519531 0.957031 6.59375 1.015625 7.660156 1.003906 C 7.675781 0.613281 7.433594 0.359375 7.273438 0.0664062 C 7.40625 0.0664062 7.542969 0.0664062 7.675781 0.0664062 C 7.707031 0.152344 7.789062 0.125 7.847656 0.125 C 8.304688 0.125 8.757812 0.195312 9.203125 0.261719 C 12.652344 0.773438 15.417969 2.445312 17.570312 5.164062 C 19.21875 7.25 20.21875 9.648438 20.976562 12.171875 C 22.105469 15.960938 22.566406 19.867188 23.105469 23.765625 C 23.300781 25.167969 23.515625 26.570312 23.886719 27.945312 C 23.976562 28.265625 24.074219 28.394531 24.449219 28.347656 C 25.992188 28.171875 27.535156 28.328125 29.085938 28.332031 C 29.277344 28.332031 29.480469 28.402344 29.757812 28.332031 C 29.199219 28.066406 28.652344 27.9375 28.210938 27.539062 C 30.261719 27.222656 32.277344 27.25 34.375 27.257812 C 34.0625 27.0625 33.753906 27.03125 33.585938 26.722656 C 34.226562 26.625 34.855469 26.597656 35.472656 26.609375 C 36.8125 26.636719 38.15625 26.738281 39.484375 26.925781 C 41.15625 27.15625 42.832031 27.386719 44.414062 27.964844 C 46.859375 28.855469 49.371094 29.441406 51.902344 29.976562 C 52.203125 30.042969 52.511719 30.144531 52.851562 30.125 C 52.679688 29.636719 52.332031 29.308594 51.96875 28.921875 C 53.261719 28.921875 54.480469 28.921875 55.765625 28.921875 C 55.585938 28.695312 55.445312 28.519531 55.285156 28.320312 C 56.3125 28.132812 57.308594 28.207031 58.296875 28.300781 C 60.074219 28.460938 61.851562 28.480469 63.628906 28.332031 C 63.722656 28.328125 63.800781 28.3125 63.847656 28.21875 C 64.09375 27.757812 64.347656 27.296875 64.617188 26.808594 C 64.441406 26.804688 64.316406 26.796875 64.15625 26.785156 C 64.570312 26.089844 64.957031 25.425781 65.378906 24.71875 C 65.117188 24.71875 64.921875 24.71875 64.667969 24.71875 C 65.109375 24.089844 65.523438 23.496094 65.953125 22.882812 C 65.578125 22.84375 65.277344 22.808594 64.929688 22.769531 C 65.363281 22.121094 65.777344 21.492188 66.207031 20.878906 C 66.347656 20.683594 66.398438 20.53125 66.210938 20.335938 C 66.132812 20.25 66.066406 20.167969 66.210938 20.042969 C 66.820312 19.535156 67.195312 18.847656 67.582031 18.171875 C 67.65625 18.046875 67.640625 17.957031 67.5625 17.84375 C 66.292969 15.980469 65.953125 13.863281 65.953125 11.671875 C 65.953125 10.515625 66.058594 9.367188 66.3125 8.230469 C 66.351562 8.058594 66.324219 7.945312 66.140625 7.863281 C 65.992188 7.804688 65.824219 7.738281 65.699219 7.574219 C 66.367188 7.53125 67 7.488281 67.667969 7.449219 C 67.527344 7.214844 67.328125 7.160156 67.175781 7.035156 C 67.675781 6.90625 68.164062 6.976562 68.644531 7.0625 C 69.691406 7.25 70.609375 7.742188 71.488281 8.304688 C 72.636719 9.027344 73.695312 9.882812 74.804688 10.65625 C 74.917969 10.734375 75.011719 10.871094 75.203125 10.730469 C 76.105469 10.089844 77.140625 9.839844 78.214844 9.6875 C 78.785156 9.605469 79.359375 9.605469 79.988281 9.574219 C 79.625 9.113281 79.296875 8.683594 78.925781 8.199219 C 79.597656 8.398438 80.148438 8.671875 80.566406 9.121094 C 80.753906 9.3125 80.820312 9.273438 80.96875 9.113281 C 81.222656 8.84375 81.484375 8.585938 81.824219 8.34375 C 81.769531 8.671875 81.722656 8.933594 81.691406 9.191406 C 81.664062 9.367188 81.703125 9.460938 81.917969 9.507812 C 82.851562 9.734375 83.773438 9.988281 84.667969 10.355469 C 84.882812 10.441406 85.117188 10.617188 85.3125 10.582031 C 85.523438 10.542969 85.625 10.242188 85.785156 10.054688 C 85.839844 9.996094 85.886719 9.933594 85.9375 9.882812 C 87.929688 7.890625 90.335938 6.652344 93.039062 5.964844 C 93.121094 5.945312 93.238281 5.925781 93.300781 5.972656 C 93.640625 6.234375 93.996094 6.121094 94.347656 6.039062 C 94.367188 6.058594 94.382812 6.078125 94.402344 6.105469 C 94.328125 6.253906 94.261719 6.40625 94.183594 6.554688 C 94.140625 6.628906 94.113281 6.714844 94.207031 6.746094 C 94.503906 6.855469 94.390625 7.023438 94.300781 7.207031 C 94.222656 7.375 94.160156 7.554688 94.113281 7.738281 C 93.582031 9.613281 92.933594 11.449219 91.902344 13.121094 C 91.429688 13.890625 91.203125 14.664062 91.375 15.546875 C 91.523438 16.300781 91.675781 17.035156 92.238281 17.628906 C 92.59375 18.011719 92.90625 18.433594 93.207031 18.859375 C 93.707031 19.5625 94.042969 20.335938 94.046875 21.230469 C 93.628906 21.136719 93.238281 21.152344 92.824219 21.265625 C 93.40625 22.226562 94.027344 23.15625 94.054688 24.359375 C 93.722656 24.226562 93.433594 24.21875 93.144531 24.265625 C 92.914062 24.304688 92.773438 24.359375 92.90625 24.644531 C 92.992188 24.832031 93.058594 25.054688 93.058594 25.253906 C 93.046875 26.054688 93.558594 26.410156 94.1875 26.695312 C 94.308594 26.75 94.421875 26.816406 94.542969 26.878906 C 95.679688 27.40625 96.878906 27.746094 98.054688 28.160156 C 98.796875 28.425781 99.574219 28.65625 100.066406 29.355469 C 100.066406 29.375 100.066406 29.402344 100.066406 29.421875 C 100.035156 29.414062 100 29.421875 99.964844 29.410156 C 98.117188 28.566406 96.160156 28.011719 94.234375 27.363281 C 94.113281 27.324219 93.988281 27.222656 93.839844 27.304688 C 93.847656 27.410156 93.929688 27.4375 93.988281 27.484375 C 94.457031 27.859375 94.988281 28.125 95.511719 28.425781 C 95.898438 28.65625 96.3125 28.855469 96.578125 29.242188 C 96.558594 29.261719 96.53125 29.277344 96.511719 29.296875 C 96.414062 29.25 96.3125 29.207031 96.210938 29.15625 C 95.296875 28.679688 94.421875 28.148438 93.480469 27.726562 C 93.238281 27.617188 93.152344 27.730469 93.011719 27.878906 C 92.851562 28.046875 92.945312 28.152344 93.046875 28.273438 C 93.351562 28.648438 93.660156 29.023438 93.988281 29.421875 C 93.765625 29.421875 93.582031 29.410156 93.398438 29.421875 C 93 29.457031 92.578125 29.515625 92.332031 29.871094 C 92.089844 30.21875 91.785156 30.476562 91.457031 30.726562 C 91.167969 30.945312 90.910156 31.191406 90.867188 31.582031 C 90.847656 31.753906 90.914062 31.933594 90.902344 32.109375 C 90.800781 33.082031 90.863281 34.066406 90.839844 35.042969 C 90.835938 35.289062 90.882812 35.523438 90.960938 35.757812 C 91.261719 36.65625 91.5625 37.558594 91.855469 38.457031 C 91.890625 38.5625 91.964844 38.667969 91.851562 38.796875 C 91.730469 38.636719 91.601562 38.480469 91.488281 38.320312 C 91.328125 38.109375 91.175781 37.894531 91.007812 37.679688 C 90.96875 37.625 90.929688 37.527344 90.828125 37.578125 C 90.753906 37.621094 90.796875 37.699219 90.796875 37.761719 C 90.789062 38.0625 90.800781 38.363281 90.769531 38.664062 C 90.628906 40.058594 90.574219 41.453125 90.527344 42.851562 C 90.472656 44.5625 90.402344 46.273438 90.300781 47.980469 C 90.273438 48.394531 90.253906 48.824219 90.132812 49.230469 C 90.105469 49.3125 90.113281 49.433594 90.007812 49.445312 C 89.886719 49.464844 89.839844 49.34375 89.792969 49.265625 C 89.6875 49.085938 89.597656 48.890625 89.5 48.710938 C 89.453125 48.625 89.398438 48.511719 89.285156 48.515625 C 89.164062 48.523438 89.113281 48.648438 89.085938 48.757812 C 88.804688 49.820312 88.238281 50.773438 87.828125 51.785156 C 87.007812 53.835938 86.234375 55.898438 85.425781 57.957031 C 85.144531 58.679688 84.855469 59.398438 84.480469 60.082031 C 84.421875 60.1875 84.375 60.363281 84.214844 60.335938 C 84.0625 60.308594 84.09375 60.140625 84.074219 60.027344 C 84.027344 59.800781 84 59.566406 83.941406 59.347656 C 83.882812 59.105469 83.746094 59.097656 83.59375 59.273438 C 83.539062 59.332031 83.5 59.398438 83.460938 59.460938 C 82.785156 60.457031 82.097656 61.4375 81.324219 62.351562 C 80.300781 63.570312 79.183594 64.664062 77.742188 65.390625 C 75.542969 66.507812 73.261719 67.4375 70.941406 68.273438 C 70.761719 68.339844 70.648438 68.40625 70.648438 68.632812 C 70.648438 68.972656 70.59375 69.320312 70.566406 69.660156 C 70.453125 71.246094 70.5 72.828125 70.769531 74.386719 C 71.054688 76.054688 71.117188 77.710938 70.957031 79.390625 C 70.875 80.183594 70.78125 81 70.960938 81.78125 C 71.242188 83.003906 71.417969 84.246094 71.589844 85.480469 C 71.757812 86.636719 72.316406 87.558594 73.167969 88.328125 C 73.566406 88.695312 74 88.761719 74.476562 88.476562 C 74.597656 88.402344 74.730469 88.339844 74.855469 88.273438 C 75.390625 87.988281 75.953125 87.945312 76.53125 88.101562 C 77.929688 88.46875 79.179688 89.90625 79.339844 91.335938 C 79.390625 91.84375 79.25 92.257812 78.804688 92.535156 C 78.324219 92.835938 77.78125 92.878906 77.242188 92.925781 C 77.109375 92.9375 77.082031 92.878906 77.066406 92.75 C 76.980469 92.144531 76.671875 91.65625 76.238281 91.234375 C 76.144531 91.140625 76.023438 91.074219 75.910156 91.011719 C 75.804688 90.960938 75.691406 90.988281 75.605469 91.066406 C 75.496094 91.167969 75.605469 91.246094 75.644531 91.328125 C 75.796875 91.59375 75.957031 91.863281 76.117188 92.128906 C 76.292969 92.421875 76.386719 92.730469 76.378906 93.078125 C 76.367188 93.574219 76.246094 93.710938 75.75 93.726562 C 75.351562 93.738281 74.949219 93.699219 74.550781 93.734375 C 73.632812 93.804688 72.71875 93.90625 71.796875 94 C 71.371094 94 70.949219 94 70.519531 94 C 70.3125 93.972656 70.101562 93.960938 69.894531 93.917969 C 68.925781 93.738281 68.214844 93.246094 67.957031 92.242188 C 67.875 91.941406 67.816406 91.636719 67.789062 91.328125 C 67.707031 90.445312 67.476562 89.625 67.007812 88.855469 C 66.019531 87.226562 64.976562 85.621094 63.929688 84.03125 C 63.320312 83.101562 62.773438 82.148438 62.457031 81.074219 C 62.3125 80.566406 62.125 80.070312 61.929688 79.488281 C 61.855469 79.597656 61.832031 79.65625 61.785156 79.703125 C 61.714844 79.777344 61.644531 79.871094 61.53125 79.828125 C 61.417969 79.78125 61.449219 79.65625 61.441406 79.570312 C 61.421875 79.269531 61.34375 78.980469 61.253906 78.695312 C 60.519531 76.324219 59.40625 74.105469 58.605469 71.753906 C 58.371094 71.066406 57.9375 70.457031 57.554688 69.828125 C 56.753906 68.519531 55.878906 67.261719 54.871094 66.101562 C 54.769531 65.988281 54.695312 65.800781 54.46875 65.878906 C 53.273438 66.300781 52.050781 66.289062 50.816406 66.132812 C 50.28125 66.066406 49.746094 65.96875 49.210938 65.78125 C 49.304688 65.671875 49.378906 65.605469 49.433594 65.527344 C 49.539062 65.371094 49.644531 65.207031 49.519531 65.011719 C 49.386719 64.8125 49.21875 64.8125 48.996094 64.871094 C 47.636719 65.226562 46.265625 65.546875 44.882812 65.785156 C 44.429688 65.867188 43.960938 65.980469 43.453125 65.925781 C 43.59375 65.808594 43.707031 65.71875 43.808594 65.613281 C 43.914062 65.5 44.015625 65.378906 44.074219 65.230469 C 44.160156 65.011719 44.175781 64.824219 43.894531 64.738281 C 43.714844 64.675781 43.546875 64.597656 43.367188 64.539062 C 41.597656 63.957031 39.832031 64.097656 38.0625 64.570312 C 37.074219 64.839844 36.191406 65.21875 35.636719 66.140625 C 35.605469 66.195312 35.550781 66.242188 35.503906 66.289062 C 33.773438 68.230469 31.902344 70.050781 30.09375 71.917969 C 29.539062 72.496094 28.976562 73.070312 28.609375 73.796875 C 28.398438 74.21875 28.390625 74.632812 28.699219 75.011719 C 29.21875 75.65625 29.632812 76.363281 30.082031 77.050781 C 30.882812 78.285156 31.664062 79.535156 32.566406 80.710938 C 32.972656 81.246094 33.433594 81.554688 34.121094 81.445312 C 34.253906 81.425781 34.390625 81.433594 34.523438 81.445312 C 35.144531 81.492188 35.765625 81.539062 36.304688 81.894531 C 37.09375 82.410156 37.300781 83.21875 37.335938 84.085938 C 37.363281 84.753906 37.28125 85.394531 36.820312 85.929688 C 36.453125 86.355469 35.824219 86.5625 35.425781 86.398438 C 35.21875 86.316406 35.164062 86.222656 35.332031 86.035156 C 35.605469 85.722656 35.703125 85.363281 35.578125 84.953125 C 35.355469 84.21875 34.875 83.679688 34.300781 83.203125 C 34.148438 83.078125 33.929688 83.082031 33.726562 83.097656 C 33.605469 83.101562 33.515625 83.144531 33.472656 83.269531 C 33.421875 83.445312 33.582031 83.445312 33.667969 83.484375 C 34.527344 83.910156 34.941406 84.660156 34.828125 85.601562 C 34.757812 86.214844 34.488281 86.457031 33.867188 86.464844 C 33.132812 86.46875 32.390625 86.390625 31.664062 86.492188 C 30.707031 86.617188 29.894531 86.390625 29.25 85.664062 C 28.578125 84.894531 27.902344 84.125 27.269531 83.324219 C 25.785156 81.464844 24.5625 79.421875 23.238281 77.445312 C 22.546875 76.410156 21.878906 75.367188 20.816406 74.644531 C 20.242188 74.257812 20.035156 73.664062 20.121094 72.957031 C 20.179688 72.480469 20.375 72.039062 20.40625 71.558594 C 20.5 70.050781 20.3125 68.566406 20.113281 67.074219 C 19.894531 65.417969 19.597656 63.769531 19.273438 62.132812 C 19.136719 61.464844 19.003906 60.800781 18.851562 60.054688 C 18.628906 60.457031 18.375 60.710938 18.074219 60.921875 C 17.882812 61.0625 17.648438 61.136719 17.480469 61.316406 C 17.402344 61.265625 17.441406 61.203125 17.453125 61.136719 C 17.589844 60.546875 17.523438 59.96875 17.421875 59.386719 C 17.148438 57.824219 16.625 56.328125 16.070312 54.851562 C 15.972656 54.589844 15.890625 54.476562 15.589844 54.589844 C 15.203125 54.742188 14.796875 54.789062 14.390625 54.636719 C 14.234375 54.574219 14.167969 54.496094 14.25 54.308594 C 14.363281 54.054688 14.390625 53.78125 14.394531 53.5 C 14.410156 52.175781 13.933594 50.988281 13.433594 49.800781 C 13.367188 49.640625 13.292969 49.652344 13.167969 49.738281 C 12.960938 49.878906 12.71875 49.988281 12.503906 50.121094 C 12.246094 50.285156 12.171875 50.179688 12.117188 49.914062 C 11.949219 49.0625 11.96875 48.210938 11.996094 47.355469 C 12.015625 46.574219 12.097656 45.796875 12.152344 44.976562 C 11.984375 45.117188 11.910156 45.28125 11.757812 45.375 C 11.550781 45.496094 11.464844 45.484375 11.410156 45.242188 C 11.234375 44.476562 11.210938 43.707031 11.296875 42.925781 C 11.417969 41.828125 11.710938 40.773438 12.136719 39.757812 C 12.230469 39.539062 12.117188 39.539062 11.96875 39.558594 C 11.644531 39.597656 11.355469 39.75 11.0625 39.964844 C 11.117188 39.484375 11.183594 39.0625 11.300781 38.640625 C 11.761719 37.027344 12.503906 35.527344 13.234375 34.027344 C 13.3125 33.867188 13.359375 33.703125 13.375 33.519531 C 13.46875 31.867188 13.566406 30.210938 13.675781 28.5625 C 13.773438 27.117188 13.902344 25.679688 13.996094 24.238281 C 14.082031 22.882812 14.113281 21.527344 14.226562 20.175781 C 14.480469 17.003906 13.847656 14.003906 12.597656 11.109375 C 12.171875 10.128906 11.628906 9.207031 10.773438 8.519531 C 9.285156 7.308594 7.316406 7.824219 6.59375 9.601562 C 6.285156 10.355469 6.179688 11.15625 6.050781 11.957031 C 5.933594 12.726562 6.113281 13.488281 6.050781 14.257812 C 6.011719 14.796875 5.9375 15.324219 5.542969 15.765625 C 5.378906 15.574219 5.183594 15.445312 4.96875 15.351562 C 4.84375 15.300781 4.75 15.265625 4.6875 15.472656 C 4.550781 15.90625 4.335938 16.316406 4.0625 16.730469 C 3.640625 16.179688 3.140625 16 2.511719 16.289062 C 2.429688 16.328125 2.339844 16.328125 2.257812 16.363281 C 2.011719 16.488281 1.871094 16.429688 1.808594 16.148438 C 1.714844 15.667969 1.421875 15.320312 1.027344 15.046875 C 0.921875 14.972656 0.816406 14.886719 0.78125 14.746094 C 0.628906 14.171875 0.472656 13.589844 0.308594 13.019531 C 0.195312 12.574219 0.21875 12.085938 0.0664062 11.625 Z M 89.292969 18.4375 C 89.03125 18.714844 88.992188 18.953125 89.171875 19.273438 C 89.292969 19.488281 89.445312 19.660156 89.726562 19.542969 C 89.746094 19.675781 89.78125 19.800781 89.78125 19.9375 C 89.773438 20.238281 89.792969 20.589844 89.445312 20.699219 C 89.097656 20.804688 88.90625 20.496094 88.738281 20.257812 C 88.449219 19.828125 88.308594 19.339844 88.296875 18.773438 C 87.941406 19.085938 87.808594 19.449219 87.777344 19.855469 C 87.707031 20.765625 87.875 21.671875 87.753906 22.589844 C 88.042969 21.980469 88.578125 21.691406 89.144531 21.445312 C 89.480469 21.296875 89.828125 21.164062 90.09375 20.90625 C 90.835938 20.183594 91.117188 19.035156 89.917969 18.398438 C 89.699219 18.277344 89.464844 18.207031 89.183594 18.273438 C 89.230469 18.34375 89.257812 18.390625 89.292969 18.4375 Z M 80.066406 19.027344 C 79.652344 19.09375 79.453125 19.507812 79.613281 19.96875 C 79.734375 20.308594 79.867188 20.371094 80.214844 20.257812 C 80.1875 20.65625 80.121094 21.050781 79.894531 21.398438 C 79.632812 21.800781 79.292969 21.804688 79.019531 21.40625 C 78.777344 21.050781 78.710938 20.652344 78.691406 20.238281 C 78.65625 19.660156 78.757812 19.113281 79.03125 18.59375 C 78.582031 18.546875 78.167969 18.578125 77.769531 18.644531 C 77.128906 18.753906 76.507812 18.925781 75.972656 19.3125 C 75.597656 19.589844 75.589844 19.714844 75.886719 20.0625 C 76.445312 20.730469 77.160156 21.160156 77.96875 21.453125 C 79.632812 22.058594 81.449219 22.160156 83.039062 23.042969 C 82.59375 22.402344 82.292969 21.707031 82.0625 20.976562 C 81.957031 20.636719 81.851562 20.296875 81.703125 19.976562 C 81.375 19.242188 80.75 18.914062 79.972656 18.746094 C 80.007812 18.859375 80.035156 18.945312 80.066406 19.027344 Z M 83.386719 29.796875 C 83.546875 29.796875 83.640625 29.816406 83.722656 29.796875 C 84.683594 29.550781 85.597656 29.203125 86.371094 28.5625 C 86.527344 28.433594 86.621094 28.445312 86.761719 28.527344 C 87.167969 28.761719 87.535156 29.046875 87.890625 29.347656 C 88.042969 29.476562 88.164062 29.648438 88.375 29.75 C 88.351562 29.582031 88.277344 29.488281 88.203125 29.394531 C 87.910156 29.023438 87.582031 28.667969 87.242188 28.332031 C 87.082031 28.179688 86.992188 28.011719 86.96875 27.785156 C 86.925781 27.433594 86.832031 27.085938 86.746094 26.664062 C 86.023438 28.152344 84.890625 29.101562 83.386719 29.796875 Z M 84.78125 24.511719 C 85.449219 24.363281 85.757812 24.773438 86.011719 25.265625 C 86.113281 25.460938 86.238281 25.648438 86.359375 25.835938 C 86.398438 25.894531 86.460938 25.980469 86.546875 25.933594 C 86.621094 25.894531 86.613281 25.800781 86.601562 25.722656 C 86.574219 25.566406 86.53125 25.414062 86.519531 25.261719 C 86.507812 25.125 86.578125 25.046875 86.707031 25.039062 C 86.855469 25.035156 86.847656 25.152344 86.847656 25.253906 C 86.847656 25.386719 86.832031 25.519531 86.820312 25.65625 C 86.8125 25.726562 86.765625 25.828125 86.855469 25.863281 C 86.96875 25.902344 87 25.78125 87.035156 25.707031 C 87.132812 25.488281 87.222656 25.261719 87.320312 25.035156 C 87.394531 24.871094 87.441406 24.691406 87.589844 24.578125 C 87.742188 24.453125 87.921875 24.550781 88.097656 24.558594 C 87.722656 23.71875 85.683594 23.75 84.78125 24.511719 Z M 93.78125 27.222656 L 93.761719 27.210938 L 93.761719 27.230469 Z M 93.78125 27.222656 "/>
<path style=" stroke:none;fill-rule:nonzero;fill:rgb(99.607843%,99.607843%,99.607843%);fill-opacity:1;" d="M 17.523438 61.316406 C 17.6875 61.136719 17.921875 61.0625 18.117188 60.921875 C 18.417969 60.710938 18.671875 60.457031 18.890625 60.054688 C 19.039062 60.796875 19.179688 61.464844 19.304688 62.132812 C 19.632812 63.777344 19.917969 65.417969 20.148438 67.074219 C 20.347656 68.558594 20.535156 70.050781 20.441406 71.558594 C 20.414062 72.039062 20.214844 72.480469 20.152344 72.957031 C 20.066406 73.664062 20.273438 74.257812 20.847656 74.644531 C 21.910156 75.367188 22.578125 76.410156 23.273438 77.445312 C 24.589844 79.421875 25.816406 81.460938 27.300781 83.324219 C 27.9375 84.117188 28.609375 84.894531 29.285156 85.664062 C 29.925781 86.382812 30.742188 86.617188 31.695312 86.492188 C 32.425781 86.398438 33.167969 86.46875 33.902344 86.464844 C 34.523438 86.457031 34.789062 86.222656 34.863281 85.601562 C 34.976562 84.660156 34.554688 83.910156 33.699219 83.484375 C 33.621094 83.445312 33.460938 83.449219 33.507812 83.269531 C 33.546875 83.144531 33.640625 83.101562 33.761719 83.097656 C 33.960938 83.082031 34.183594 83.078125 34.335938 83.203125 C 34.910156 83.671875 35.390625 84.21875 35.609375 84.953125 C 35.730469 85.363281 35.636719 85.722656 35.363281 86.035156 C 35.195312 86.222656 35.257812 86.316406 35.457031 86.398438 C 35.859375 86.558594 36.484375 86.351562 36.855469 85.929688 C 37.316406 85.394531 37.394531 84.753906 37.367188 84.085938 C 37.335938 83.210938 37.132812 82.410156 36.339844 81.894531 C 35.796875 81.539062 35.175781 81.492188 34.554688 81.445312 C 34.421875 81.441406 34.289062 81.425781 34.15625 81.445312 C 33.46875 81.554688 33.007812 81.246094 32.597656 80.710938 C 31.703125 79.535156 30.921875 78.285156 30.113281 77.050781 C 29.664062 76.363281 29.25 75.65625 28.730469 75.011719 C 28.421875 74.640625 28.429688 74.222656 28.644531 73.796875 C 29.011719 73.074219 29.566406 72.496094 30.125 71.917969 C 31.9375 70.050781 33.808594 68.230469 35.539062 66.289062 C 35.585938 66.242188 35.636719 66.195312 35.671875 66.140625 C 36.226562 65.21875 37.109375 64.839844 38.097656 64.570312 C 39.867188 64.097656 41.628906 63.949219 43.398438 64.539062 C 43.582031 64.597656 43.746094 64.675781 43.929688 64.738281 C 44.207031 64.832031 44.195312 65.011719 44.109375 65.230469 C 44.046875 65.378906 43.949219 65.5 43.839844 65.613281 C 43.742188 65.714844 43.628906 65.800781 43.488281 65.925781 C 43.996094 65.980469 44.460938 65.867188 44.917969 65.785156 C 46.300781 65.539062 47.667969 65.226562 49.03125 64.871094 C 49.25 64.8125 49.417969 64.8125 49.550781 65.011719 C 49.679688 65.210938 49.574219 65.371094 49.464844 65.527344 C 49.414062 65.605469 49.339844 65.679688 49.246094 65.78125 C 49.78125 65.972656 50.3125 66.066406 50.847656 66.132812 C 52.078125 66.289062 53.304688 66.292969 54.503906 65.878906 C 54.730469 65.800781 54.804688 65.992188 54.902344 66.101562 C 55.910156 67.261719 56.785156 68.511719 57.589844 69.828125 C 57.96875 70.449219 58.402344 71.066406 58.636719 71.753906 C 59.433594 74.097656 60.546875 76.324219 61.289062 78.695312 C 61.375 78.980469 61.449219 79.269531 61.476562 79.570312 C 61.484375 79.65625 61.449219 79.789062 61.5625 79.828125 C 61.675781 79.871094 61.75 79.777344 61.816406 79.703125 C 61.863281 79.65625 61.890625 79.597656 61.964844 79.488281 C 62.15625 80.070312 62.34375 80.566406 62.492188 81.074219 C 62.804688 82.148438 63.351562 83.101562 63.960938 84.03125 C 65.011719 85.628906 66.046875 87.226562 67.039062 88.855469 C 67.507812 89.625 67.742188 90.445312 67.824219 91.328125 C 67.847656 91.636719 67.914062 91.941406 67.988281 92.242188 C 68.25 93.246094 68.957031 93.738281 69.925781 93.917969 C 70.132812 93.960938 70.339844 93.972656 70.554688 94 C 70.554688 94.019531 70.5625 94.039062 70.554688 94.058594 C 47.167969 94.058594 23.78125 94.058594 0.394531 94.066406 C 0.121094 94.066406 0.0742188 94.007812 0.0742188 93.738281 C 0.0664062 66.375 0.0664062 38.996094 0.0664062 11.625 C 0.21875 12.085938 0.195312 12.574219 0.328125 13.035156 C 0.496094 13.609375 0.648438 14.183594 0.800781 14.757812 C 0.839844 14.898438 0.941406 14.984375 1.046875 15.058594 C 1.449219 15.332031 1.738281 15.679688 1.832031 16.160156 C 1.882812 16.433594 2.03125 16.5 2.277344 16.375 C 2.359375 16.335938 2.453125 16.335938 2.53125 16.300781 C 3.160156 16.007812 3.660156 16.1875 4.082031 16.742188 C 4.355469 16.335938 4.570312 15.925781 4.710938 15.484375 C 4.777344 15.277344 4.863281 15.3125 4.988281 15.367188 C 5.203125 15.460938 5.402344 15.578125 5.566406 15.78125 C 5.957031 15.339844 6.023438 14.8125 6.070312 14.269531 C 6.132812 13.503906 5.953125 12.742188 6.070312 11.972656 C 6.199219 11.175781 6.304688 10.367188 6.613281 9.613281 C 7.335938 7.835938 9.296875 7.320312 10.796875 8.53125 C 11.648438 9.21875 12.191406 10.140625 12.617188 11.125 C 13.867188 14.015625 14.507812 17.007812 14.25 20.191406 C 14.140625 21.539062 14.101562 22.894531 14.015625 24.25 C 13.921875 25.695312 13.792969 27.132812 13.695312 28.574219 C 13.582031 30.222656 13.488281 31.882812 13.394531 33.53125 C 13.378906 33.710938 13.332031 33.871094 13.253906 34.039062 C 12.53125 35.542969 11.785156 37.046875 11.324219 38.65625 C 11.203125 39.070312 11.136719 39.496094 11.082031 39.976562 C 11.375 39.765625 11.664062 39.609375 11.992188 39.570312 C 12.136719 39.550781 12.25 39.550781 12.15625 39.769531 C 11.730469 40.785156 11.4375 41.835938 11.316406 42.9375 C 11.230469 43.71875 11.253906 44.488281 11.429688 45.257812 C 11.484375 45.496094 11.578125 45.515625 11.777344 45.390625 C 11.9375 45.296875 12.003906 45.128906 12.171875 44.988281 C 12.117188 45.8125 12.042969 46.59375 12.015625 47.367188 C 11.992188 48.222656 11.96875 49.078125 12.136719 49.925781 C 12.191406 50.195312 12.265625 50.300781 12.523438 50.132812 C 12.738281 50 12.980469 49.894531 13.1875 49.753906 C 13.320312 49.664062 13.386719 49.652344 13.453125 49.8125 C 13.960938 50.996094 14.433594 52.191406 14.414062 53.515625 C 14.410156 53.792969 14.382812 54.070312 14.269531 54.320312 C 14.183594 54.507812 14.253906 54.589844 14.410156 54.648438 C 14.816406 54.796875 15.222656 54.75 15.609375 54.601562 C 15.910156 54.484375 16 54.597656 16.09375 54.863281 C 16.648438 56.347656 17.167969 57.835938 17.441406 59.398438 C 17.542969 59.980469 17.609375 60.5625 17.476562 61.148438 C 17.480469 61.203125 17.449219 61.269531 17.523438 61.316406 C 17.515625 61.296875 17.5 61.285156 17.496094 61.265625 C 17.496094 61.265625 17.480469 61.265625 17.480469 61.265625 C 17.496094 61.285156 17.507812 61.304688 17.523438 61.316406 Z M 18.558594 61.183594 C 18.210938 61.382812 17.894531 61.570312 17.582031 61.746094 C 17.363281 61.863281 17.132812 61.910156 16.878906 61.863281 C 16.714844 61.839844 16.671875 61.804688 16.761719 61.632812 C 16.988281 61.183594 17.0625 60.703125 17.035156 60.207031 C 16.945312 58.484375 16.351562 56.90625 15.652344 55.359375 C 15.542969 55.125 15.335938 55.265625 15.183594 55.238281 C 14.996094 55.203125 15.011719 55.382812 14.988281 55.484375 C 14.648438 56.960938 14.175781 58.402344 13.632812 59.8125 C 13.214844 60.910156 12.738281 61.980469 11.996094 62.914062 C 11.09375 64.050781 10.402344 65.3125 9.945312 66.695312 C 9.738281 67.328125 9.578125 67.972656 9.664062 68.652344 C 9.773438 69.488281 10.152344 70.1875 10.722656 70.789062 C 11.1875 71.292969 11.578125 71.847656 11.695312 72.535156 C 11.742188 72.820312 11.835938 73.089844 11.957031 73.355469 C 12.453125 74.453125 13.125 75.441406 13.765625 76.449219 C 14.921875 78.261719 16.21875 79.976562 17.09375 81.96875 C 17.515625 82.929688 18.214844 83.679688 19.332031 83.871094 C 19.886719 83.964844 20.441406 83.917969 20.988281 83.796875 C 22.25 83.519531 23.515625 83.3125 24.816406 83.371094 C 25.070312 83.382812 25.324219 83.378906 25.578125 83.304688 C 25.859375 83.222656 25.984375 83.0625 25.945312 82.769531 C 25.90625 82.488281 25.765625 82.25 25.625 82.007812 C 25.058594 81.03125 24.375 80.152344 23.675781 79.269531 C 23.292969 78.789062 22.867188 78.667969 22.277344 78.855469 C 21.46875 79.109375 20.6875 78.875 20.140625 78.226562 C 19.640625 77.632812 19.332031 76.929688 19.050781 76.222656 C 18.445312 74.671875 18.082031 73.054688 17.636719 71.457031 C 17.523438 71.050781 17.523438 70.675781 17.636719 70.289062 C 18.003906 69.058594 18.65625 67.984375 19.433594 66.984375 C 19.558594 66.820312 19.605469 66.683594 19.550781 66.46875 C 19.453125 66.027344 19.398438 65.574219 19.320312 65.125 C 19.070312 63.828125 18.859375 62.519531 18.558594 61.183594 Z M 18.558594 61.183594 "/>
<path style=" stroke:none;fill-rule:nonzero;fill:rgb(99.607843%,99.607843%,99.607843%);fill-opacity:1;" d="M 100.066406 29.328125 C 99.578125 28.628906 98.804688 28.402344 98.054688 28.132812 C 96.878906 27.710938 95.679688 27.378906 94.542969 26.851562 C 94.421875 26.796875 94.308594 26.722656 94.1875 26.671875 C 93.558594 26.390625 93.046875 26.027344 93.058594 25.226562 C 93.066406 25.027344 92.992188 24.804688 92.90625 24.617188 C 92.773438 24.332031 92.917969 24.277344 93.144531 24.238281 C 93.441406 24.191406 93.722656 24.203125 94.054688 24.332031 C 94.027344 23.128906 93.40625 22.199219 92.824219 21.238281 C 93.234375 21.125 93.628906 21.113281 94.046875 21.207031 C 94.042969 20.308594 93.707031 19.542969 93.207031 18.832031 C 92.90625 18.40625 92.59375 17.984375 92.238281 17.605469 C 91.675781 17.007812 91.523438 16.273438 91.375 15.519531 C 91.203125 14.632812 91.4375 13.863281 91.902344 13.09375 C 92.925781 11.425781 93.582031 9.585938 94.113281 7.710938 C 94.167969 7.53125 94.222656 7.347656 94.300781 7.183594 C 94.390625 6.996094 94.503906 6.828125 94.207031 6.722656 C 94.113281 6.6875 94.140625 6.605469 94.183594 6.527344 C 94.261719 6.378906 94.328125 6.226562 94.402344 6.078125 C 94.410156 6.058594 94.421875 6.03125 94.429688 6.011719 C 94.402344 6.011719 94.375 6.011719 94.347656 6.011719 C 93.996094 6.09375 93.640625 6.207031 93.300781 5.945312 C 93.246094 5.90625 93.125 5.917969 93.039062 5.9375 C 90.335938 6.621094 87.929688 7.863281 85.9375 9.855469 C 85.886719 9.90625 85.832031 9.96875 85.785156 10.027344 C 85.625 10.207031 85.523438 10.515625 85.3125 10.554688 C 85.117188 10.589844 84.882812 10.414062 84.667969 10.328125 C 83.78125 9.960938 82.851562 9.707031 81.917969 9.480469 C 81.703125 9.425781 81.664062 9.339844 81.691406 9.167969 C 81.730469 8.90625 81.769531 8.644531 81.824219 8.316406 C 81.484375 8.558594 81.222656 8.820312 80.96875 9.085938 C 80.820312 9.238281 80.753906 9.285156 80.566406 9.09375 C 80.140625 8.644531 79.597656 8.371094 78.925781 8.171875 C 79.296875 8.660156 79.632812 9.085938 79.988281 9.546875 C 79.367188 9.585938 78.785156 9.582031 78.214844 9.660156 C 77.148438 9.8125 76.105469 10.0625 75.203125 10.703125 C 75.011719 10.84375 74.917969 10.710938 74.804688 10.628906 C 73.695312 9.855469 72.636719 9 71.488281 8.277344 C 70.609375 7.714844 69.6875 7.230469 68.644531 7.035156 C 68.164062 6.949219 67.683594 6.882812 67.175781 7.007812 C 67.328125 7.136719 67.527344 7.1875 67.667969 7.421875 C 67 7.46875 66.367188 7.507812 65.699219 7.550781 C 65.824219 7.710938 65.992188 7.777344 66.140625 7.835938 C 66.324219 7.917969 66.351562 8.03125 66.3125 8.203125 C 66.058594 9.339844 65.953125 10.488281 65.953125 11.644531 C 65.953125 13.835938 66.285156 15.953125 67.5625 17.816406 C 67.640625 17.9375 67.65625 18.023438 67.582031 18.144531 C 67.199219 18.820312 66.828125 19.507812 66.210938 20.015625 C 66.066406 20.144531 66.132812 20.222656 66.210938 20.308594 C 66.398438 20.496094 66.339844 20.652344 66.207031 20.851562 C 65.773438 21.464844 65.363281 22.09375 64.929688 22.742188 C 65.269531 22.78125 65.578125 22.816406 65.953125 22.855469 C 65.523438 23.46875 65.109375 24.058594 64.667969 24.691406 C 64.921875 24.691406 65.117188 24.691406 65.378906 24.691406 C 64.964844 25.394531 64.570312 26.054688 64.15625 26.757812 C 64.316406 26.761719 64.441406 26.769531 64.617188 26.785156 C 64.347656 27.269531 64.101562 27.730469 63.847656 28.191406 C 63.800781 28.285156 63.722656 28.300781 63.628906 28.308594 C 61.851562 28.445312 60.074219 28.433594 58.296875 28.273438 C 57.308594 28.1875 56.3125 28.105469 55.285156 28.292969 C 55.445312 28.492188 55.585938 28.667969 55.765625 28.894531 C 54.480469 28.894531 53.261719 28.894531 51.96875 28.894531 C 52.332031 29.289062 52.679688 29.609375 52.851562 30.097656 C 52.503906 30.117188 52.203125 30.011719 51.902344 29.949219 C 49.371094 29.414062 46.859375 28.828125 44.414062 27.9375 C 42.832031 27.363281 41.15625 27.132812 39.484375 26.898438 C 38.148438 26.710938 36.8125 26.617188 35.472656 26.582031 C 34.855469 26.570312 34.226562 26.589844 33.585938 26.695312 C 33.746094 27.003906 34.054688 27.042969 34.375 27.230469 C 32.277344 27.222656 30.261719 27.199219 28.210938 27.511719 C 28.65625 27.914062 29.199219 28.039062 29.757812 28.308594 C 29.480469 28.378906 29.277344 28.3125 29.085938 28.308594 C 27.542969 28.292969 25.992188 28.140625 24.449219 28.320312 C 24.066406 28.367188 23.976562 28.238281 23.886719 27.917969 C 23.515625 26.542969 23.300781 25.148438 23.105469 23.738281 C 22.566406 19.84375 22.105469 15.933594 20.976562 12.144531 C 20.21875 9.621094 19.21875 7.222656 17.570312 5.136719 C 15.417969 2.417969 12.652344 0.75 9.203125 0.234375 C 8.75 0.167969 8.304688 0.101562 7.847656 0.101562 C 7.789062 0.101562 7.714844 0.125 7.675781 0.0390625 C 38.363281 0.0390625 69.042969 0.0390625 99.734375 0.0351562 C 100.039062 0.0351562 100.066406 0.121094 100.066406 0.386719 C 100.066406 10.046875 100.066406 19.6875 100.066406 29.328125 Z M 81.851562 8.304688 C 81.84375 8.3125 81.832031 8.316406 81.832031 8.324219 C 81.832031 8.332031 81.84375 8.335938 81.851562 8.34375 C 81.855469 8.332031 81.863281 8.324219 81.871094 8.3125 C 81.863281 8.3125 81.855469 8.304688 81.851562 8.304688 Z M 81.851562 8.304688 "/>
<path style=" stroke:none;fill-rule:nonzero;fill:rgb(99.607843%,99.607843%,99.607843%);fill-opacity:1;" d="M 96.578125 29.222656 C 96.3125 28.835938 95.898438 28.632812 95.511719 28.40625 C 94.996094 28.105469 94.457031 27.839844 93.988281 27.464844 C 93.929688 27.417969 93.847656 27.390625 93.839844 27.285156 C 93.988281 27.203125 94.113281 27.304688 94.234375 27.34375 C 96.160156 27.984375 98.117188 28.539062 99.964844 29.390625 C 99.992188 29.402344 100.035156 29.394531 100.066406 29.402344 C 100.066406 50.863281 100.066406 72.3125 100.074219 93.773438 C 100.074219 94.019531 100.019531 94.082031 99.765625 94.082031 C 90.449219 94.074219 81.128906 94.074219 71.808594 94.074219 C 71.808594 94.054688 71.808594 94.035156 71.808594 94.019531 C 72.726562 93.925781 73.640625 93.828125 74.5625 93.753906 C 74.964844 93.71875 75.363281 93.757812 75.765625 93.746094 C 76.257812 93.734375 76.378906 93.59375 76.394531 93.097656 C 76.40625 92.75 76.304688 92.441406 76.132812 92.148438 C 75.980469 91.882812 75.8125 91.613281 75.65625 91.347656 C 75.617188 91.273438 75.511719 91.1875 75.617188 91.085938 C 75.703125 91 75.816406 90.972656 75.925781 91.035156 C 76.039062 91.09375 76.160156 91.160156 76.253906 91.253906 C 76.6875 91.675781 76.992188 92.164062 77.082031 92.769531 C 77.101562 92.898438 77.128906 92.949219 77.253906 92.945312 C 77.796875 92.90625 78.34375 92.859375 78.816406 92.558594 C 79.265625 92.277344 79.40625 91.863281 79.351562 91.355469 C 79.191406 89.925781 77.949219 88.488281 76.546875 88.121094 C 75.964844 87.96875 75.402344 88.007812 74.871094 88.292969 C 74.742188 88.363281 74.617188 88.421875 74.488281 88.496094 C 74.015625 88.777344 73.582031 88.707031 73.179688 88.347656 C 72.332031 87.578125 71.769531 86.65625 71.601562 85.5 C 71.421875 84.265625 71.253906 83.023438 70.976562 81.800781 C 70.796875 81.019531 70.886719 80.203125 70.96875 79.410156 C 71.136719 77.730469 71.070312 76.070312 70.78125 74.40625 C 70.515625 72.847656 70.46875 71.265625 70.582031 69.679688 C 70.609375 69.339844 70.660156 68.992188 70.660156 68.652344 C 70.660156 68.425781 70.773438 68.351562 70.957031 68.292969 C 73.28125 67.464844 75.558594 66.527344 77.753906 65.414062 C 79.191406 64.683594 80.3125 63.589844 81.335938 62.371094 C 82.109375 61.449219 82.800781 60.46875 83.472656 59.480469 C 83.519531 59.414062 83.554688 59.347656 83.605469 59.292969 C 83.761719 59.117188 83.894531 59.125 83.953125 59.367188 C 84.015625 59.59375 84.042969 59.820312 84.089844 60.046875 C 84.113281 60.160156 84.074219 60.328125 84.226562 60.355469 C 84.394531 60.382812 84.441406 60.207031 84.496094 60.101562 C 84.863281 59.417969 85.15625 58.699219 85.4375 57.976562 C 86.238281 55.917969 87.019531 53.855469 87.84375 51.804688 C 88.25 50.789062 88.8125 49.839844 89.097656 48.777344 C 89.125 48.671875 89.179688 48.550781 89.296875 48.535156 C 89.40625 48.53125 89.457031 48.644531 89.511719 48.730469 C 89.613281 48.910156 89.699219 49.105469 89.804688 49.285156 C 89.851562 49.363281 89.898438 49.484375 90.019531 49.464844 C 90.125 49.445312 90.121094 49.332031 90.148438 49.25 C 90.265625 48.84375 90.289062 48.417969 90.3125 48.003906 C 90.414062 46.292969 90.488281 44.582031 90.542969 42.871094 C 90.585938 41.476562 90.640625 40.070312 90.78125 38.683594 C 90.816406 38.382812 90.796875 38.082031 90.808594 37.78125 C 90.808594 37.71875 90.773438 37.632812 90.839844 37.601562 C 90.941406 37.546875 90.976562 37.648438 91.023438 37.699219 C 91.1875 37.90625 91.34375 38.128906 91.503906 38.339844 C 91.625 38.5 91.742188 38.65625 91.863281 38.816406 C 91.976562 38.683594 91.910156 38.582031 91.871094 38.476562 C 91.570312 37.574219 91.277344 36.671875 90.976562 35.777344 C 90.894531 35.542969 90.855469 35.308594 90.855469 35.0625 C 90.875 34.085938 90.816406 33.105469 90.914062 32.128906 C 90.933594 31.953125 90.867188 31.773438 90.882812 31.601562 C 90.921875 31.21875 91.175781 30.964844 91.46875 30.746094 C 91.796875 30.5 92.105469 30.238281 92.34375 29.890625 C 92.59375 29.535156 93.011719 29.476562 93.414062 29.441406 C 93.601562 29.429688 93.78125 29.441406 94 29.441406 C 93.675781 29.042969 93.367188 28.667969 93.058594 28.292969 C 92.960938 28.167969 92.867188 28.058594 93.027344 27.898438 C 93.167969 27.757812 93.253906 27.640625 93.492188 27.746094 C 94.433594 28.167969 95.3125 28.699219 96.226562 29.175781 C 96.324219 29.230469 96.425781 29.269531 96.527344 29.316406 C 96.585938 29.375 96.648438 29.449219 96.734375 29.347656 C 96.714844 29.371094 96.640625 29.347656 96.6875 29.414062 C 96.699219 29.394531 96.71875 29.371094 96.734375 29.347656 C 96.648438 29.324219 96.632812 29.234375 96.578125 29.222656 Z M 83.453125 84.601562 C 83.59375 84.492188 83.648438 84.625 83.726562 84.695312 C 84.273438 85.167969 84.507812 85.800781 84.648438 86.492188 C 84.730469 86.871094 84.597656 87.265625 84.722656 87.644531 C 85.984375 87.023438 86.492188 85.589844 85.625 84.453125 C 85.316406 84.046875 84.929688 83.730469 84.460938 83.53125 C 82.820312 82.828125 81.804688 81.59375 81.277344 79.917969 C 81.183594 79.617188 81.128906 79.308594 81.183594 79 C 81.355469 78.085938 81.550781 77.175781 81.730469 76.269531 C 82.003906 74.867188 82.453125 73.503906 82.546875 72.066406 C 82.578125 71.527344 82.5 70.996094 82.152344 70.558594 C 81.855469 70.1875 81.664062 69.769531 81.503906 69.328125 C 81.335938 68.859375 81.195312 68.378906 81.023438 67.910156 C 80.65625 66.894531 80.152344 65.96875 79.246094 65.3125 C 79.097656 65.207031 78.996094 65.179688 78.835938 65.292969 C 78.582031 65.464844 78.308594 65.613281 78.03125 65.746094 C 75.898438 66.816406 73.707031 67.730469 71.515625 68.660156 C 71.296875 68.753906 71.214844 68.875 71.203125 69.101562 C 71.175781 69.542969 71.140625 69.988281 71.082031 70.429688 C 71.046875 70.65625 71.109375 70.769531 71.335938 70.832031 C 71.515625 70.878906 71.683594 70.972656 71.851562 71.058594 C 73.707031 72.011719 75.15625 73.441406 76.394531 75.101562 C 76.605469 75.386719 76.671875 75.726562 76.578125 76.082031 C 76.519531 76.328125 76.464844 76.578125 76.378906 76.816406 C 75.898438 78.21875 75.890625 79.667969 75.984375 81.125 C 76.050781 82.28125 76.300781 83.410156 76.359375 84.566406 C 76.398438 85.367188 76.648438 86.117188 77.160156 86.75 C 77.730469 87.4375 78.382812 88.039062 79.125 88.542969 C 79.632812 88.882812 80.1875 89.054688 80.796875 88.929688 C 81.617188 88.753906 82.445312 88.714844 83.273438 88.65625 C 83.839844 88.613281 84.128906 88.261719 84.15625 87.679688 C 84.167969 87.386719 84.136719 87.097656 84.089844 86.816406 C 83.976562 86.050781 83.839844 85.289062 83.453125 84.601562 Z M 83.453125 84.601562 "/>
<path style=" stroke:none;fill-rule:nonzero;fill:rgb(99.215686%,99.215686%,99.215686%);fill-opacity:1;" d="M 7.28125 0.0664062 C 7.433594 0.359375 7.683594 0.613281 7.667969 1.003906 C 6.601562 1.015625 5.523438 0.949219 4.457031 1.269531 C 4.574219 1.441406 4.761719 1.449219 4.890625 1.558594 C 5.035156 1.691406 5.070312 1.808594 4.875 1.925781 C 3.492188 2.734375 2.679688 4.027344 1.96875 5.390625 C 1.128906 7.015625 0.566406 8.746094 0.160156 10.527344 C 0.132812 10.648438 0.207031 10.796875 0.0664062 10.890625 C 0.0664062 7.367188 0.0664062 3.839844 0.0585938 0.320312 C 0.0585938 0.121094 0.09375 0.0585938 0.3125 0.0585938 C 2.636719 0.0742188 4.957031 0.0664062 7.28125 0.0664062 Z M 7.28125 0.0664062 "/>
<path style=" stroke:none;fill-rule:nonzero;fill:rgb(97.647059%,98.039216%,1.176471%);fill-opacity:1;" d="M 80.066406 19.027344 C 80.039062 18.945312 80.011719 18.859375 79.972656 18.746094 C 80.75 18.914062 81.375 19.242188 81.703125 19.976562 C 81.851562 20.296875 81.957031 20.636719 82.0625 20.976562 C 82.292969 21.707031 82.59375 22.402344 83.039062 23.042969 C 81.449219 22.160156 79.632812 22.054688 77.96875 21.453125 C 77.160156 21.160156 76.445312 20.730469 75.886719 20.0625 C 75.589844 19.714844 75.597656 19.582031 75.972656 19.3125 C 76.507812 18.925781 77.128906 18.753906 77.769531 18.644531 C 78.175781 18.578125 78.582031 18.546875 79.03125 18.59375 C 78.757812 19.113281 78.65625 19.660156 78.691406 20.238281 C 78.71875 20.652344 78.785156 21.058594 79.019531 21.40625 C 79.285156 21.800781 79.625 21.800781 79.894531 21.398438 C 80.121094 21.050781 80.1875 20.65625 80.214844 20.257812 C 80.546875 19.753906 80.488281 19.289062 80.066406 19.027344 Z M 80.066406 19.027344 "/>
<path style=" stroke:none;fill-rule:nonzero;fill:rgb(96.862745%,96.862745%,1.568628%);fill-opacity:1;" d="M 89.292969 18.4375 C 89.265625 18.390625 89.230469 18.34375 89.183594 18.277344 C 89.464844 18.210938 89.699219 18.285156 89.917969 18.40625 C 91.117188 19.046875 90.835938 20.195312 90.09375 20.910156 C 89.828125 21.171875 89.480469 21.304688 89.144531 21.453125 C 88.578125 21.699219 88.042969 21.980469 87.753906 22.59375 C 87.875 21.679688 87.707031 20.765625 87.777344 19.863281 C 87.808594 19.453125 87.9375 19.09375 88.296875 18.78125 C 88.308594 19.347656 88.449219 19.835938 88.738281 20.261719 C 88.90625 20.511719 89.097656 20.816406 89.445312 20.703125 C 89.792969 20.597656 89.773438 20.238281 89.78125 19.941406 C 89.785156 19.808594 89.746094 19.683594 89.726562 19.546875 C 90.035156 19.074219 89.8125 18.507812 89.292969 18.4375 Z M 89.292969 18.4375 "/>
<path style=" stroke:none;fill-rule:nonzero;fill:rgb(96.470588%,96.470588%,96.470588%);fill-opacity:1;" d="M 83.386719 29.796875 C 84.890625 29.101562 86.03125 28.152344 86.738281 26.664062 C 86.828125 27.078125 86.921875 27.433594 86.960938 27.785156 C 86.988281 28.011719 87.082031 28.179688 87.234375 28.332031 C 87.574219 28.667969 87.902344 29.015625 88.195312 29.394531 C 88.269531 29.488281 88.351562 29.582031 88.371094 29.75 C 88.15625 29.648438 88.03125 29.476562 87.882812 29.347656 C 87.527344 29.046875 87.160156 28.761719 86.753906 28.527344 C 86.613281 28.445312 86.527344 28.433594 86.367188 28.5625 C 85.589844 29.203125 84.675781 29.550781 83.714844 29.796875 C 83.640625 29.816406 83.546875 29.796875 83.386719 29.796875 Z M 83.386719 29.796875 "/>
<path style=" stroke:none;fill-rule:nonzero;fill:rgb(90.980393%,34.117648%,14.509805%);fill-opacity:1;" d="M 84.78125 24.511719 C 85.691406 23.75 87.722656 23.710938 88.097656 24.558594 C 87.921875 24.550781 87.742188 24.453125 87.589844 24.578125 C 87.441406 24.691406 87.394531 24.871094 87.320312 25.035156 C 87.222656 25.253906 87.132812 25.488281 87.035156 25.707031 C 87 25.78125 86.96875 25.902344 86.855469 25.863281 C 86.765625 25.828125 86.8125 25.726562 86.820312 25.65625 C 86.832031 25.519531 86.847656 25.386719 86.847656 25.253906 C 86.847656 25.152344 86.859375 25.035156 86.707031 25.039062 C 86.574219 25.046875 86.5 25.125 86.519531 25.261719 C 86.539062 25.414062 86.574219 25.566406 86.601562 25.722656 C 86.613281 25.800781 86.621094 25.894531 86.546875 25.933594 C 86.464844 25.980469 86.398438 25.894531 86.359375 25.835938 C 86.238281 25.648438 86.113281 25.46875 86.011719 25.265625 C 85.75 24.773438 85.445312 24.363281 84.78125 24.511719 Z M 84.78125 24.511719 "/>
<path style=" stroke:none;fill-rule:nonzero;fill:rgb(97.254902%,97.254902%,94.901961%);fill-opacity:1;" d="M 80.066406 19.027344 C 80.488281 19.289062 80.546875 19.753906 80.21875 20.257812 C 79.867188 20.371094 79.738281 20.308594 79.621094 19.96875 C 79.445312 19.507812 79.644531 19.09375 80.066406 19.027344 Z M 80.066406 19.027344 "/>
<path style=" stroke:none;fill-rule:nonzero;fill:rgb(96.470588%,96.470588%,94.509804%);fill-opacity:1;" d="M 89.292969 18.4375 C 89.8125 18.507812 90.035156 19.074219 89.726562 19.542969 C 89.4375 19.660156 89.292969 19.496094 89.171875 19.273438 C 88.992188 18.953125 89.03125 18.714844 89.292969 18.4375 Z M 89.292969 18.4375 "/>
<path style=" stroke:none;fill-rule:nonzero;fill:rgb(99.607843%,99.607843%,99.607843%);fill-opacity:1;" d="M 93.78125 27.222656 L 93.753906 27.230469 L 93.753906 27.21875 Z M 93.78125 27.222656 "/>
<path style=" stroke:none;fill-rule:nonzero;fill:rgb(0.392157%,0.392157%,0.392157%);fill-opacity:1;" d="M 18.558594 61.183594 C 18.859375 62.511719 19.078125 63.824219 19.304688 65.132812 C 19.386719 65.578125 19.4375 66.035156 19.539062 66.476562 C 19.585938 66.6875 19.539062 66.820312 19.417969 66.988281 C 18.644531 67.996094 17.988281 69.066406 17.621094 70.296875 C 17.507812 70.691406 17.507812 71.066406 17.621094 71.464844 C 18.070312 73.0625 18.429688 74.6875 19.039062 76.230469 C 19.320312 76.945312 19.621094 77.636719 20.125 78.234375 C 20.675781 78.882812 21.457031 79.113281 22.265625 78.859375 C 22.851562 78.675781 23.28125 78.792969 23.660156 79.273438 C 24.355469 80.15625 25.042969 81.039062 25.609375 82.015625 C 25.75 82.253906 25.890625 82.488281 25.933594 82.777344 C 25.972656 83.070312 25.851562 83.230469 25.566406 83.3125 C 25.3125 83.378906 25.058594 83.382812 24.804688 83.378906 C 23.507812 83.316406 22.238281 83.523438 20.976562 83.804688 C 20.425781 83.925781 19.875 83.972656 19.320312 83.878906 C 18.203125 83.683594 17.5 82.9375 17.082031 81.972656 C 16.207031 79.988281 14.910156 78.265625 13.753906 76.457031 C 13.113281 75.445312 12.4375 74.457031 11.945312 73.363281 C 11.824219 73.101562 11.730469 72.828125 11.683594 72.539062 C 11.5625 71.847656 11.175781 71.296875 10.707031 70.796875 C 10.140625 70.1875 9.757812 69.488281 9.652344 68.660156 C 9.566406 67.976562 9.726562 67.335938 9.933594 66.703125 C 10.386719 65.320312 11.089844 64.054688 11.984375 62.921875 C 12.726562 61.980469 13.199219 60.917969 13.621094 59.820312 C 14.167969 58.402344 14.636719 56.96875 14.976562 55.492188 C 14.996094 55.390625 14.984375 55.210938 15.171875 55.246094 C 15.332031 55.269531 15.53125 55.128906 15.636719 55.363281 C 16.347656 56.914062 16.941406 58.492188 17.019531 60.214844 C 17.046875 60.710938 16.972656 61.191406 16.746094 61.636719 C 16.660156 61.804688 16.707031 61.839844 16.867188 61.871094 C 17.121094 61.917969 17.355469 61.871094 17.570312 61.75 C 17.894531 61.570312 18.210938 61.382812 18.558594 61.183594 Z M 18.558594 61.183594 "/>
<path style=" stroke:none;fill-rule:nonzero;fill:rgb(0%,0%,0%);fill-opacity:1;" d="M 17.523438 61.316406 C 17.507812 61.296875 17.496094 61.285156 17.476562 61.265625 C 17.480469 61.265625 17.488281 61.265625 17.488281 61.265625 C 17.5 61.285156 17.515625 61.304688 17.523438 61.316406 Z M 17.523438 61.316406 "/>
<path style=" stroke:none;fill-rule:nonzero;fill:rgb(0%,0%,0%);fill-opacity:1;" d="M 94.355469 6.03125 C 94.382812 6.03125 94.410156 6.03125 94.433594 6.03125 C 94.429688 6.054688 94.414062 6.078125 94.410156 6.101562 C 94.390625 6.078125 94.375 6.054688 94.355469 6.03125 Z M 94.355469 6.03125 "/>
<path style=" stroke:none;fill-rule:nonzero;fill:rgb(0%,0%,0%);fill-opacity:1;" d="M 81.851562 8.304688 C 81.855469 8.3125 81.863281 8.3125 81.871094 8.316406 C 81.863281 8.332031 81.855469 8.335938 81.851562 8.351562 C 81.84375 8.34375 81.832031 8.335938 81.832031 8.332031 C 81.832031 8.316406 81.84375 8.3125 81.851562 8.304688 Z M 81.851562 8.304688 "/>
<path style=" stroke:none;fill-rule:nonzero;fill:rgb(0.392157%,0.392157%,0.392157%);fill-opacity:1;" d="M 83.453125 84.601562 C 83.839844 85.289062 83.976562 86.042969 84.101562 86.804688 C 84.148438 87.09375 84.183594 87.378906 84.167969 87.667969 C 84.136719 88.246094 83.847656 88.601562 83.285156 88.640625 C 82.457031 88.703125 81.628906 88.742188 80.808594 88.914062 C 80.199219 89.042969 79.644531 88.867188 79.136719 88.527344 C 78.398438 88.027344 77.742188 87.433594 77.175781 86.738281 C 76.652344 86.101562 76.414062 85.355469 76.371094 84.554688 C 76.3125 83.398438 76.066406 82.269531 76 81.113281 C 75.910156 79.65625 75.917969 78.207031 76.394531 76.804688 C 76.472656 76.5625 76.527344 76.316406 76.59375 76.070312 C 76.6875 75.714844 76.621094 75.375 76.40625 75.085938 C 75.171875 73.429688 73.722656 72.007812 71.863281 71.042969 C 71.695312 70.957031 71.53125 70.863281 71.347656 70.816406 C 71.121094 70.757812 71.070312 70.644531 71.09375 70.417969 C 71.15625 69.976562 71.1875 69.535156 71.214844 69.085938 C 71.230469 68.859375 71.308594 68.738281 71.53125 68.644531 C 73.722656 67.71875 75.910156 66.800781 78.042969 65.734375 C 78.316406 65.59375 78.597656 65.453125 78.851562 65.277344 C 79.011719 65.164062 79.113281 65.191406 79.257812 65.300781 C 80.167969 65.953125 80.667969 66.875 81.035156 67.898438 C 81.203125 68.367188 81.347656 68.839844 81.515625 69.3125 C 81.671875 69.753906 81.863281 70.167969 82.164062 70.542969 C 82.519531 70.984375 82.597656 71.511719 82.558594 72.054688 C 82.464844 73.488281 82.023438 74.851562 81.742188 76.253906 C 81.5625 77.164062 81.371094 78.078125 81.195312 78.988281 C 81.136719 79.296875 81.1875 79.601562 81.289062 79.902344 C 81.824219 81.582031 82.839844 82.816406 84.476562 83.519531 C 84.9375 83.71875 85.324219 84.03125 85.636719 84.441406 C 86.507812 85.582031 86 87.011719 84.734375 87.632812 C 84.601562 87.253906 84.734375 86.863281 84.664062 86.476562 C 84.523438 85.789062 84.296875 85.15625 83.742188 84.679688 C 83.648438 84.632812 83.59375 84.492188 83.453125 84.601562 C 83.46875 84.585938 83.488281 84.578125 83.5 84.566406 C 83.5 84.566406 83.492188 84.558594 83.492188 84.554688 C 83.480469 84.566406 83.46875 84.585938 83.453125 84.601562 Z M 83.453125 84.601562 "/>
<path style=" stroke:none;fill-rule:nonzero;fill:rgb(0%,0%,0%);fill-opacity:1;" d="M 96.71875 29.308594 C 96.632812 29.410156 96.574219 29.328125 96.511719 29.277344 C 96.53125 29.253906 96.558594 29.242188 96.578125 29.222656 C 96.632812 29.234375 96.648438 29.324219 96.71875 29.308594 Z M 96.71875 29.308594 "/>
<path style=" stroke:none;fill-rule:nonzero;fill:rgb(0%,0%,0%);fill-opacity:1;" d="M 96.71875 29.308594 C 96.707031 29.328125 96.6875 29.355469 96.671875 29.375 C 96.625 29.308594 96.699219 29.328125 96.71875 29.308594 Z M 96.71875 29.308594 "/>
<path style=" stroke:none;fill-rule:nonzero;fill:rgb(99.607843%,99.607843%,99.607843%);fill-opacity:1;" d="M 83.453125 84.601562 C 83.46875 84.578125 83.480469 84.566406 83.492188 84.546875 C 83.492188 84.554688 83.5 84.558594 83.5 84.558594 C 83.488281 84.578125 83.46875 84.59375 83.453125 84.601562 Z M 83.453125 84.601562 "/>
</g>
</svg>
