<?xml version="1.0" encoding="UTF-8"?>
<svg xmlns="http://www.w3.org/2000/svg" xmlns:xlink="http://www.w3.org/1999/xlink" width="100px" height="95px" viewBox="0 0 100 95" version="1.1">
<g id="surface1">
<path style=" stroke:none;fill-rule:nonzero;fill:rgb(100%,100%,100%);fill-opacity:1;" d="M 0 95 C 0 63.332031 0 31.667969 0 0 C 33.339844 0 66.660156 0 100 0 C 100 31.667969 100 63.332031 100 95 C 66.660156 95 33.339844 95 0 95 Z M 10.199219 85.441406 C 10.554688 85.402344 10.671875 85.421875 10.75 85.363281 C 14.109375 83.539062 17.449219 81.679688 19.863281 78.59375 C 20.414062 77.878906 20.929688 77.703125 21.679688 78.238281 C 22.132812 78.574219 22.628906 78.808594 23.101562 79.128906 C 28.578125 82.75 34.128906 86.210938 40.15625 88.824219 C 42.054688 89.65625 44.03125 90.546875 46.027344 90.765625 C 50.117188 91.179688 54.230469 91.160156 58.339844 91.257812 C 59.863281 91.300781 61.246094 90.765625 62.550781 89.992188 C 66.5625 87.558594 70.335938 84.808594 73.753906 81.601562 C 74.03125 81.34375 74.347656 81.125 74.742188 80.808594 C 75.769531 83.242188 76.324219 85.738281 77.824219 87.972656 C 78.558594 87.320312 79.171875 86.785156 79.761719 86.230469 C 80.949219 85.164062 81.324219 83.9375 80.613281 82.433594 C 80.296875 81.777344 80.15625 81.027344 79.941406 80.335938 C 80.039062 80.273438 80.117188 80.195312 80.21875 80.136719 C 81.007812 80.730469 81.796875 81.324219 82.667969 81.976562 C 82.785156 81.363281 82.847656 80.929688 82.984375 80.234375 C 83.558594 80.691406 84.011719 81.007812 84.40625 81.363281 C 86.125 82.988281 87.785156 84.6875 89.546875 86.273438 C 90.238281 86.90625 91.125 87.320312 91.9375 87.835938 C 92.015625 87.757812 92.09375 87.695312 92.195312 87.617188 C 91.660156 86.3125 91.164062 85.003906 90.574219 83.71875 C 88.636719 79.5625 86.660156 75.425781 84.664062 71.308594 C 84.269531 70.496094 84.25 69.785156 84.722656 68.992188 C 86.640625 65.847656 88.539062 62.679688 90.414062 59.511719 C 91.816406 57.160156 93.320312 54.902344 93.476562 52.011719 C 93.675781 48.113281 93.121094 44.3125 92.054688 40.59375 C 91.066406 37.050781 89.84375 33.625 87.46875 30.714844 C 82.371094 24.480469 76.285156 19.375 69.625 14.941406 C 68.121094 13.933594 66.5625 13.023438 65.019531 12.054688 C 64.109375 11.480469 63.953125 10.824219 64.269531 9.71875 C 64.960938 7.304688 65.394531 4.808594 65.929688 2.355469 C 65.828125 2.316406 65.710938 2.257812 65.613281 2.214844 C 63.183594 4.273438 60.730469 6.3125 58.300781 8.371094 C 58.222656 8.3125 58.140625 8.253906 58.0625 8.195312 C 58.835938 6.730469 59.605469 5.285156 60.355469 3.820312 C 60.257812 3.761719 60.136719 3.679688 60.039062 3.621094 C 58.28125 4.414062 56.71875 5.460938 55.535156 7.007812 C 55 7.679688 54.625 7.621094 54.128906 7.066406 C 53.8125 6.710938 53.519531 6.351562 53.023438 5.800781 C 52.984375 6.589844 52.964844 7.105469 52.925781 7.621094 C 52.824219 8.707031 52.550781 8.945312 51.480469 8.886719 C 50.691406 8.847656 49.902344 8.726562 49.128906 8.769531 C 44.742188 9.066406 40.472656 10.113281 36.285156 11.359375 C 31.246094 12.863281 26.105469 14.210938 22.3125 18.308594 C 19.882812 20.941406 17.015625 23.253906 14.960938 26.144531 C 12.667969 29.371094 11.007812 33.050781 9.191406 36.59375 C 8.101562 38.691406 7.054688 40.871094 6.363281 43.125 C 5.238281 46.789062 5.632812 50.585938 6.660156 54.167969 C 7.707031 57.8125 9.308594 61.335938 10.871094 64.796875 C 12.113281 67.589844 13.4375 70.378906 15.671875 72.574219 C 15.871094 72.753906 15.828125 73.367188 15.671875 73.683594 C 14.40625 76.355469 13.0625 79.007812 11.796875 81.699219 C 11.246094 82.847656 10.769531 84.054688 10.199219 85.441406 Z M 10.199219 85.441406 "/>
<path style=" stroke:none;fill-rule:nonzero;fill:rgb(0%,0%,0%);fill-opacity:1;" d="M 10.199219 85.441406 C 10.769531 84.074219 11.246094 82.847656 11.796875 81.660156 C 13.082031 78.988281 14.40625 76.335938 15.671875 73.644531 C 15.808594 73.328125 15.851562 72.734375 15.671875 72.535156 C 13.4375 70.339844 12.113281 67.550781 10.871094 64.757812 C 9.308594 61.273438 7.707031 57.773438 6.660156 54.128906 C 5.632812 50.566406 5.238281 46.746094 6.363281 43.085938 C 7.054688 40.832031 8.101562 38.671875 9.191406 36.554688 C 11.007812 33.011719 12.667969 29.332031 14.960938 26.105469 C 17.015625 23.214844 19.882812 20.898438 22.3125 18.269531 C 26.105469 14.191406 31.226562 12.824219 36.285156 11.320312 C 40.472656 10.074219 44.742188 9.023438 49.128906 8.726562 C 49.902344 8.667969 50.710938 8.789062 51.480469 8.847656 C 52.550781 8.90625 52.824219 8.667969 52.925781 7.582031 C 52.964844 7.066406 52.984375 6.550781 53.023438 5.757812 C 53.519531 6.3125 53.8125 6.667969 54.128906 7.027344 C 54.625 7.601562 55.019531 7.660156 55.535156 6.964844 C 56.71875 5.421875 58.28125 4.375 60.039062 3.582031 C 60.136719 3.640625 60.257812 3.722656 60.355469 3.78125 C 59.585938 5.246094 58.8125 6.691406 58.0625 8.152344 C 58.140625 8.214844 58.222656 8.273438 58.300781 8.332031 C 60.730469 6.273438 63.183594 4.234375 65.613281 2.175781 C 65.710938 2.214844 65.828125 2.277344 65.929688 2.316406 C 65.394531 4.769531 64.960938 7.261719 64.269531 9.679688 C 63.953125 10.785156 64.109375 11.441406 65.019531 12.011719 C 66.5625 12.984375 68.121094 13.894531 69.625 14.902344 C 76.285156 19.335938 82.371094 24.441406 87.46875 30.675781 C 89.84375 33.585938 91.066406 37.011719 92.054688 40.554688 C 93.101562 44.292969 93.675781 48.074219 93.476562 51.972656 C 93.320312 54.863281 91.816406 57.136719 90.414062 59.472656 C 88.519531 62.640625 86.640625 65.808594 84.722656 68.953125 C 84.230469 69.746094 84.269531 70.4375 84.664062 71.269531 C 86.660156 75.386719 88.617188 79.523438 90.574219 83.679688 C 91.164062 84.945312 91.660156 86.273438 92.195312 87.578125 C 92.113281 87.65625 92.035156 87.714844 91.9375 87.796875 C 91.144531 87.28125 90.257812 86.847656 89.546875 86.230469 C 87.785156 84.648438 86.125 82.964844 84.40625 81.324219 C 84.011719 80.949219 83.578125 80.652344 82.984375 80.195312 C 82.867188 80.867188 82.785156 81.304688 82.667969 81.9375 C 81.796875 81.285156 81.007812 80.691406 80.21875 80.097656 C 80.117188 80.15625 80.039062 80.234375 79.941406 80.292969 C 80.15625 81.007812 80.316406 81.738281 80.613281 82.394531 C 81.324219 83.917969 80.949219 85.125 79.761719 86.191406 C 79.148438 86.746094 78.539062 87.28125 77.824219 87.933594 C 76.324219 85.699219 75.769531 83.203125 74.742188 80.769531 C 74.347656 81.085938 74.03125 81.304688 73.753906 81.5625 C 70.335938 84.789062 66.5625 87.539062 62.550781 89.953125 C 61.265625 90.746094 59.863281 91.257812 58.339844 91.21875 C 54.230469 91.121094 50.097656 91.140625 46.027344 90.726562 C 44.03125 90.527344 42.054688 89.617188 40.15625 88.785156 C 34.128906 86.171875 28.578125 82.691406 23.101562 79.085938 C 22.628906 78.769531 22.132812 78.535156 21.679688 78.195312 C 20.929688 77.644531 20.414062 77.839844 19.863281 78.554688 C 17.449219 81.640625 14.109375 83.519531 10.75 85.320312 C 10.671875 85.421875 10.554688 85.402344 10.199219 85.441406 Z M 35.988281 55.675781 C 35.910156 55.632812 35.851562 55.59375 35.769531 55.554688 C 35.554688 55.753906 35.277344 55.929688 35.117188 56.167969 C 32.945312 59.355469 30.769531 62.523438 28.65625 65.746094 C 27.488281 67.527344 27.488281 67.6875 29.328125 68.675781 C 33.183594 70.753906 37.09375 72.695312 41.007812 74.675781 C 43.617188 75.980469 46.382812 76.613281 49.328125 76.375 C 52.964844 76.097656 56.621094 75.863281 60.257812 75.566406 C 61.085938 75.484375 61.878906 75.1875 62.6875 74.992188 C 62.707031 74.890625 62.726562 74.792969 62.746094 74.695312 C 61.71875 73.980469 60.671875 73.269531 59.484375 72.457031 C 60.21875 72.277344 60.769531 72.140625 61.324219 72.003906 C 63.992188 71.328125 66.71875 70.835938 69.171875 69.429688 C 69.761719 69.09375 69.84375 68.757812 69.605469 68.164062 C 67.667969 63.371094 65.75 58.5625 63.792969 53.773438 C 63.65625 53.457031 63.261719 53.082031 62.925781 53.023438 C 56.898438 51.816406 50.851562 50.667969 44.800781 49.480469 C 43.855469 49.300781 43.121094 49.558594 42.570312 50.351562 C 42.3125 50.726562 42.015625 51.101562 41.777344 51.476562 C 40.117188 54.210938 38.496094 56.960938 36.796875 59.671875 C 36.421875 60.285156 35.828125 60.742188 35.335938 61.273438 C 35.21875 61.214844 35.097656 61.15625 34.980469 61.097656 C 35.335938 59.277344 35.652344 57.476562 35.988281 55.675781 Z M 84.605469 42.078125 C 84.289062 37.722656 83.140625 33.644531 80.59375 30.0625 C 78.003906 26.421875 74.683594 23.511719 70.949219 21.117188 C 68.300781 19.414062 65.472656 18.011719 62.6875 16.527344 C 62.035156 16.167969 61.226562 16.03125 60.613281 16.761719 C 60.019531 17.476562 59.761719 18.1875 60.199219 19.117188 C 63.8125 26.878906 67.410156 34.65625 70.988281 42.414062 C 71.363281 43.207031 71.898438 43.621094 72.765625 43.71875 C 75.730469 44.054688 78.714844 44.453125 81.679688 44.808594 C 84.269531 45.125 84.585938 44.828125 84.585938 42.195312 C 84.605469 42.15625 84.605469 42.117188 84.605469 42.078125 Z M 20.058594 39.207031 C 20.375 39.265625 20.535156 39.324219 20.671875 39.324219 C 24.484375 39.5625 28.300781 39.820312 32.113281 40 C 32.449219 40.019531 32.925781 39.644531 33.101562 39.324219 C 34.210938 37.328125 35.257812 35.308594 36.285156 33.289062 C 38.753906 28.441406 41.207031 23.589844 43.65625 18.742188 C 43.855469 18.367188 43.933594 17.929688 44.148438 17.296875 C 42.945312 17.734375 41.976562 18.070312 41.027344 18.425781 C 36.957031 19.890625 33.222656 21.890625 30.039062 24.878906 C 26.917969 27.828125 24.546875 31.332031 22.429688 35.03125 C 21.660156 36.398438 20.890625 37.742188 20.058594 39.207031 Z M 61.007812 41.957031 C 61.144531 41.859375 61.304688 41.78125 61.441406 41.679688 C 59.980469 36.101562 57.90625 30.714844 56.066406 24.957031 C 53.0625 30.558594 50.179688 35.921875 47.234375 41.382812 C 51.304688 41.839844 55.238281 42.292969 59.269531 42.75 C 59.050781 41.839844 58.875 41.085938 58.65625 40.136719 C 59.546875 40.832031 60.277344 41.382812 61.007812 41.957031 Z M 17.867188 47.5 C 17.765625 47.519531 17.648438 47.539062 17.550781 47.558594 C 18.140625 50.546875 18.65625 53.554688 19.367188 56.523438 C 19.703125 57.949219 20.394531 59.277344 20.988281 60.640625 C 21.324219 61.414062 21.777344 61.316406 22.214844 60.699219 C 22.390625 60.464844 22.570312 60.226562 22.707031 59.96875 C 24.605469 56.207031 26.582031 52.488281 28.378906 48.6875 C 29.585938 46.152344 29.308594 46.589844 27.035156 45.996094 C 24.664062 45.363281 22.234375 44.886719 19.820312 44.414062 C 18.359375 44.117188 18.023438 44.414062 17.886719 45.917969 C 17.804688 46.429688 17.867188 46.964844 17.867188 47.5 Z M 79.527344 56.367188 C 78.953125 56.625 78.003906 55.972656 77.886719 57.097656 C 77.785156 57.988281 78.65625 59.257812 79.230469 59.296875 C 79.84375 59.316406 81.085938 57.910156 81.046875 57.078125 C 80.988281 55.972656 80.019531 56.644531 79.527344 56.367188 Z M 78.894531 53.714844 C 78.855469 53.8125 78.8125 53.914062 78.792969 54.011719 C 79.40625 54.269531 80 54.566406 80.613281 54.785156 C 81.957031 55.257812 82.707031 54.527344 82.429688 52.960938 C 81.246094 53.199219 80.078125 53.457031 78.894531 53.714844 Z M 78.894531 53.714844 "/>
<path style=" stroke:none;fill-rule:nonzero;fill:rgb(100%,100%,100%);fill-opacity:1;" d="M 35.988281 55.675781 C 35.652344 57.476562 35.335938 59.296875 35 61.097656 C 35.117188 61.15625 35.238281 61.214844 35.355469 61.273438 C 35.851562 60.742188 36.441406 60.265625 36.816406 59.671875 C 38.496094 56.960938 40.136719 54.210938 41.796875 51.476562 C 42.035156 51.082031 42.3125 50.726562 42.589844 50.351562 C 43.140625 49.558594 43.875 49.300781 44.820312 49.480469 C 50.871094 50.667969 56.898438 51.816406 62.945312 53.023438 C 63.28125 53.082031 63.675781 53.457031 63.8125 53.773438 C 65.769531 58.5625 67.6875 63.371094 69.625 68.164062 C 69.863281 68.757812 69.78125 69.074219 69.191406 69.429688 C 66.738281 70.835938 64.011719 71.328125 61.34375 72.003906 C 60.789062 72.140625 60.21875 72.277344 59.507812 72.457031 C 60.710938 73.269531 61.738281 73.980469 62.765625 74.695312 C 62.746094 74.792969 62.726562 74.890625 62.707031 74.992188 C 61.898438 75.1875 61.085938 75.484375 60.277344 75.566406 C 56.640625 75.882812 52.984375 76.097656 49.347656 76.375 C 46.402344 76.59375 43.636719 75.980469 41.027344 74.675781 C 37.113281 72.714844 33.203125 70.753906 29.347656 68.675781 C 27.511719 67.6875 27.511719 67.507812 28.675781 65.746094 C 30.789062 62.523438 32.964844 59.355469 35.136719 56.167969 C 35.296875 55.929688 35.574219 55.753906 35.789062 55.554688 C 35.851562 55.574219 35.910156 55.632812 35.988281 55.675781 Z M 35.988281 55.675781 "/>
<path style=" stroke:none;fill-rule:nonzero;fill:rgb(100%,100%,100%);fill-opacity:1;" d="M 84.605469 42.078125 C 84.605469 42.117188 84.605469 42.136719 84.605469 42.175781 C 84.605469 44.828125 84.289062 45.105469 81.699219 44.789062 C 78.734375 44.433594 75.769531 44.035156 72.785156 43.699219 C 71.917969 43.601562 71.363281 43.183594 71.007812 42.394531 C 67.429688 34.617188 63.835938 26.855469 60.21875 19.097656 C 59.78125 18.167969 60.039062 17.457031 60.632812 16.742188 C 61.246094 16.011719 62.054688 16.148438 62.707031 16.507812 C 65.492188 17.992188 68.320312 19.394531 70.96875 21.097656 C 74.683594 23.492188 78.023438 26.402344 80.613281 30.042969 C 83.140625 33.644531 84.289062 37.742188 84.605469 42.078125 Z M 84.605469 42.078125 "/>
<path style=" stroke:none;fill-rule:nonzero;fill:rgb(100%,100%,100%);fill-opacity:1;" d="M 20.058594 39.207031 C 20.890625 37.742188 21.660156 36.398438 22.429688 35.03125 C 24.546875 31.332031 26.917969 27.828125 30.039062 24.878906 C 33.222656 21.871094 36.957031 19.890625 41.027344 18.425781 C 41.976562 18.089844 42.945312 17.734375 44.148438 17.296875 C 43.933594 17.929688 43.855469 18.367188 43.65625 18.742188 C 41.207031 23.589844 38.753906 28.441406 36.285156 33.289062 C 35.257812 35.308594 34.210938 37.328125 33.101562 39.324219 C 32.925781 39.644531 32.429688 40.019531 32.113281 40 C 28.300781 39.820312 24.484375 39.5625 20.671875 39.324219 C 20.535156 39.324219 20.375 39.265625 20.058594 39.207031 Z M 20.058594 39.207031 "/>
<path style=" stroke:none;fill-rule:nonzero;fill:rgb(100%,100%,100%);fill-opacity:1;" d="M 61.007812 41.957031 C 60.277344 41.382812 59.546875 40.832031 58.65625 40.136719 C 58.875 41.085938 59.050781 41.839844 59.269531 42.75 C 55.238281 42.292969 51.304688 41.859375 47.234375 41.382812 C 50.179688 35.902344 53.0625 30.558594 56.066406 24.957031 C 57.90625 30.714844 59.980469 36.101562 61.441406 41.679688 C 61.304688 41.78125 61.144531 41.859375 61.007812 41.957031 Z M 61.007812 41.957031 "/>
<path style=" stroke:none;fill-rule:nonzero;fill:rgb(100%,100%,100%);fill-opacity:1;" d="M 17.867188 47.5 C 17.867188 46.964844 17.824219 46.449219 17.867188 45.917969 C 18.023438 44.414062 18.339844 44.117188 19.800781 44.414062 C 22.214844 44.886719 24.644531 45.363281 27.015625 45.996094 C 29.269531 46.589844 29.546875 46.152344 28.359375 48.6875 C 26.5625 52.488281 24.585938 56.207031 22.6875 59.96875 C 22.550781 60.226562 22.371094 60.464844 22.195312 60.699219 C 21.757812 61.316406 21.285156 61.414062 20.96875 60.640625 C 20.394531 59.296875 19.683594 57.949219 19.347656 56.523438 C 18.636719 53.554688 18.121094 50.546875 17.53125 47.558594 C 17.648438 47.539062 17.746094 47.519531 17.867188 47.5 Z M 17.867188 47.5 "/>
<path style=" stroke:none;fill-rule:nonzero;fill:rgb(100%,100%,100%);fill-opacity:1;" d="M 79.527344 56.367188 C 80.019531 56.644531 80.988281 55.972656 81.046875 57.058594 C 81.105469 57.890625 79.863281 59.296875 79.230469 59.277344 C 78.65625 59.257812 77.785156 57.96875 77.886719 57.078125 C 78.003906 55.972656 78.972656 56.625 79.527344 56.367188 Z M 79.527344 56.367188 "/>
<path style=" stroke:none;fill-rule:nonzero;fill:rgb(100%,100%,100%);fill-opacity:1;" d="M 78.894531 53.714844 C 80.058594 53.457031 81.246094 53.21875 82.410156 52.960938 C 82.707031 54.527344 81.9375 55.238281 80.59375 54.785156 C 79.980469 54.566406 79.386719 54.269531 78.773438 54.011719 C 78.835938 53.914062 78.875 53.8125 78.894531 53.714844 Z M 78.894531 53.714844 "/>
</g>
</svg>
