<?xml version="1.0" encoding="UTF-8"?>
<svg xmlns="http://www.w3.org/2000/svg" xmlns:xlink="http://www.w3.org/1999/xlink" width="100px" height="100px" viewBox="0 0 100 100" version="1.1">
<g id="surface1">
<path style=" stroke:none;fill-rule:nonzero;fill:rgb(100%,100%,100%);fill-opacity:1;" d="M 0.148438 100.148438 C 0.148438 66.8125 0.148438 33.480469 0.148438 0.148438 C 33.480469 0.148438 66.8125 0.148438 100.148438 0.148438 C 100.148438 33.480469 100.148438 66.8125 100.148438 100.148438 C 66.8125 100.148438 33.480469 100.148438 0.148438 100.148438 Z M 12.226562 38.847656 C 12.300781 40.457031 12.300781 43.390625 12.625 46.28125 C 13.125 50.722656 13.761719 55.132812 14.5 59.542969 C 15.191406 63.644531 16.460938 67.597656 17.875 71.488281 C 19.320312 75.5 21.859375 78.777344 24.957031 81.59375 C 29.394531 85.648438 33.9375 89.601562 38.464844 93.570312 C 40.707031 95.53125 43.246094 97.007812 46.105469 97.875 C 47.683594 98.363281 49.308594 98.761719 50.957031 98.4375 C 53.910156 97.863281 56.667969 96.785156 59.054688 94.925781 C 64.808594 90.457031 70.28125 85.679688 75.425781 80.53125 C 78.570312 77.390625 80.765625 73.730469 82.167969 69.527344 C 85.574219 59.320312 86.84375 48.777344 87.152344 38.082031 C 87.285156 33.65625 86.917969 29.246094 86.28125 24.867188 C 85.78125 21.460938 85.03125 18.113281 83.761719 14.898438 C 81.476562 9.085938 77.550781 5.28125 71.222656 4.085938 C 64.925781 2.890625 58.597656 2.269531 52.210938 2.09375 C 47.167969 1.960938 42.136719 2.078125 37.136719 2.789062 C 33.671875 3.273438 30.191406 3.789062 26.753906 4.46875 C 22.800781 5.25 19.765625 7.433594 17.609375 10.871094 C 15.546875 14.175781 14.378906 17.789062 13.570312 21.546875 C 12.449219 26.828125 12.285156 32.167969 12.226562 38.847656 Z M 12.226562 38.847656 "/>
<path style=" stroke:none;fill-rule:nonzero;fill:rgb(0%,0%,0%);fill-opacity:1;" d="M 12.226562 38.847656 C 12.285156 32.167969 12.449219 26.8125 13.585938 21.546875 C 14.394531 17.789062 15.558594 14.160156 17.625 10.871094 C 19.777344 7.433594 22.816406 5.25 26.769531 4.46875 C 30.207031 3.789062 33.671875 3.289062 37.152344 2.789062 C 42.152344 2.078125 47.183594 1.945312 52.226562 2.09375 C 58.613281 2.269531 64.957031 2.890625 71.238281 4.085938 C 77.566406 5.28125 81.488281 9.101562 83.777344 14.898438 C 85.042969 18.113281 85.796875 21.460938 86.296875 24.867188 C 86.933594 29.246094 87.285156 33.65625 87.167969 38.082031 C 86.859375 48.777344 85.589844 59.308594 82.183594 69.527344 C 80.78125 73.730469 78.585938 77.390625 75.441406 80.53125 C 70.296875 85.691406 64.824219 90.472656 59.070312 94.925781 C 56.679688 96.785156 53.910156 97.863281 50.972656 98.4375 C 49.320312 98.761719 47.699219 98.363281 46.121094 97.875 C 43.257812 96.992188 40.722656 95.53125 38.480469 93.570312 C 33.953125 89.601562 29.410156 85.648438 24.96875 81.59375 C 21.875 78.761719 19.335938 75.5 17.890625 71.488281 C 16.488281 67.582031 15.207031 63.628906 14.511719 59.542969 C 13.777344 55.148438 13.125 50.722656 12.640625 46.28125 C 12.300781 43.390625 12.300781 40.457031 12.226562 38.847656 Z M 50.707031 97.375 C 50.972656 97.34375 51.152344 97.34375 51.3125 97.300781 C 53.644531 96.652344 55.945312 95.914062 57.890625 94.441406 C 63.847656 89.925781 69.453125 84.984375 74.734375 79.691406 C 77.566406 76.84375 79.632812 73.570312 80.929688 69.792969 C 83.894531 61.238281 85.222656 52.375 85.824219 43.378906 C 86.179688 38.246094 86.152344 33.113281 85.574219 27.992188 C 85.089844 23.789062 84.394531 19.632812 82.863281 15.664062 C 81.960938 13.304688 80.738281 11.136719 79.042969 9.246094 C 76.726562 6.667969 73.613281 5.722656 70.382812 5.042969 C 65.679688 4.054688 60.914062 3.613281 56.136719 3.332031 C 51.003906 3.039062 45.871094 2.949219 40.753906 3.523438 C 36.59375 3.996094 32.417969 4.527344 28.289062 5.207031 C 25.945312 5.589844 23.644531 6.328125 21.726562 7.847656 C 19.308594 9.765625 17.789062 12.332031 16.636719 15.132812 C 14.453125 20.472656 13.703125 26.078125 13.453125 31.769531 C 13.15625 38.40625 13.347656 45.03125 14.277344 51.621094 C 15.058594 57.199219 16.152344 62.683594 17.816406 68.082031 C 19.292969 72.863281 21.621094 77.066406 25.324219 80.457031 C 28.65625 83.511719 31.992188 86.5625 35.398438 89.542969 C 37.449219 91.328125 39.574219 93.054688 41.769531 94.660156 C 43.703125 96.078125 45.957031 96.84375 48.363281 97.34375 C 48.320312 97.199219 48.304688 97.125 48.273438 97.066406 C 46.488281 92.109375 45.796875 87.066406 47.09375 81.886719 C 47.507812 80.28125 47.257812 79.011719 46.105469 77.863281 C 45.8125 77.566406 45.605469 77.199219 45.28125 76.726562 C 48.257812 76.726562 51.019531 76.726562 53.9375 76.726562 C 53.585938 77.152344 53.347656 77.464844 53.082031 77.757812 C 51.992188 78.96875 51.503906 80.25 52.019531 81.933594 C 52.417969 83.230469 52.625 84.632812 52.65625 85.988281 C 52.757812 89.835938 52.242188 93.644531 50.707031 97.375 Z M 50.707031 97.375 "/>
<path style=" stroke:none;fill-rule:nonzero;fill:rgb(100%,100%,100%);fill-opacity:1;" d="M 50.707031 97.375 C 52.242188 93.644531 52.757812 89.835938 52.65625 85.957031 C 52.625 84.601562 52.402344 83.199219 52.019531 81.902344 C 51.503906 80.222656 51.992188 78.9375 53.082031 77.730469 C 53.332031 77.449219 53.570312 77.136719 53.9375 76.695312 C 51.019531 76.695312 48.257812 76.695312 45.28125 76.695312 C 45.621094 77.167969 45.824219 77.535156 46.105469 77.832031 C 47.257812 78.980469 47.507812 80.25 47.09375 81.859375 C 45.78125 87.035156 46.488281 92.078125 48.273438 97.035156 C 48.304688 97.109375 48.320312 97.167969 48.363281 97.316406 C 45.957031 96.828125 43.71875 96.046875 41.769531 94.632812 C 39.574219 93.023438 37.449219 91.3125 35.398438 89.511719 C 31.992188 86.535156 28.65625 83.496094 25.324219 80.425781 C 21.621094 77.035156 19.292969 72.832031 17.816406 68.054688 C 16.164062 62.65625 15.058594 57.167969 14.277344 51.59375 C 13.347656 45 13.15625 38.378906 13.453125 31.742188 C 13.703125 26.046875 14.453125 20.441406 16.636719 15.117188 C 17.789062 12.316406 19.320312 9.75 21.726562 7.832031 C 23.644531 6.3125 25.945312 5.574219 28.289062 5.191406 C 32.433594 4.511719 36.59375 3.980469 40.753906 3.511719 C 45.871094 2.933594 51.019531 3.023438 56.136719 3.320312 C 60.914062 3.585938 65.679688 4.042969 70.382812 5.03125 C 73.613281 5.707031 76.726562 6.652344 79.042969 9.234375 C 80.738281 11.121094 81.960938 13.289062 82.863281 15.648438 C 84.378906 19.617188 85.089844 23.777344 85.574219 27.980469 C 86.164062 33.097656 86.179688 38.230469 85.824219 43.363281 C 85.207031 52.359375 83.894531 61.210938 80.929688 69.777344 C 79.617188 73.554688 77.550781 76.828125 74.734375 79.675781 C 69.453125 84.984375 63.847656 89.910156 57.890625 94.425781 C 55.945312 95.898438 53.644531 96.636719 51.3125 97.285156 C 51.152344 97.34375 50.972656 97.34375 50.707031 97.375 Z M 64.308594 82.550781 C 64.425781 82.65625 64.558594 82.773438 64.675781 82.875 C 64.808594 82.640625 64.882812 82.375 65.058594 82.167969 C 66.621094 80.339844 68.289062 78.585938 69.75 76.679688 C 74.425781 70.621094 78.894531 64.425781 81.34375 57.050781 C 81.667969 56.078125 81.902344 55.074219 82.183594 54.070312 C 82.109375 54.042969 82.050781 54.011719 81.976562 53.96875 C 81.695312 54.1875 81.402344 54.394531 81.136719 54.644531 C 80.117188 55.664062 78.953125 56.34375 77.492188 56.578125 C 76.859375 56.679688 76.28125 57.050781 75.664062 57.257812 C 75.425781 57.34375 75.132812 57.390625 74.898438 57.332031 C 73.921875 57.09375 72.980469 56.753906 72.007812 56.535156 C 69.113281 55.855469 66.371094 54.824219 63.96875 53.023438 C 63.363281 52.566406 62.980469 52.699219 62.640625 53.363281 C 62.332031 53.96875 62.582031 54.601562 63.464844 55.101562 C 66.371094 56.726562 69.425781 57.863281 72.832031 57.800781 C 73.039062 57.800781 73.230469 57.816406 73.4375 57.832031 C 73.480469 57.90625 73.539062 57.980469 73.585938 58.054688 C 71.726562 60.355469 69.882812 62.667969 67.992188 64.957031 C 67.789062 65.207031 67.285156 65.308594 66.933594 65.324219 C 65.382812 65.367188 63.835938 65.339844 62.285156 65.339844 C 59.867188 65.324219 57.714844 64.75 56.195312 62.683594 C 55.738281 62.066406 55.28125 61.460938 54.824219 60.855469 C 54.542969 60.472656 54.203125 60.367188 53.730469 60.558594 C 53.246094 60.765625 52.714844 60.972656 52.199219 61.046875 C 49.898438 61.386719 47.597656 61.59375 45.414062 60.53125 C 44.808594 60.234375 44.511719 60.414062 44.1875 60.929688 C 43.71875 61.652344 43.171875 62.316406 42.640625 62.992188 C 41.710938 64.160156 40.515625 64.957031 39.042969 65.074219 C 36.8125 65.25 34.585938 65.28125 32.34375 65.382812 C 31.667969 65.414062 31.179688 65.101562 30.78125 64.585938 C 29.425781 62.875 28.039062 61.195312 26.667969 59.484375 C 26.296875 59.011719 25.988281 58.496094 25.648438 58.007812 C 25.765625 57.90625 25.796875 57.863281 25.839844 57.847656 C 25.957031 57.832031 26.078125 57.800781 26.210938 57.816406 C 29.277344 57.90625 32.125 57.019531 34.851562 55.722656 C 35.414062 55.457031 35.945312 55.058594 36.386719 54.617188 C 36.8125 54.1875 36.917969 53.628906 36.429688 53.097656 C 35.945312 52.566406 35.472656 52.863281 35.074219 53.171875 C 32.699219 55.042969 29.867188 55.871094 27.007812 56.578125 C 26.386719 56.726562 25.707031 56.710938 25.148438 56.976562 C 24.367188 57.34375 23.71875 57.550781 23.007812 56.886719 C 22.890625 56.769531 22.640625 56.769531 22.449219 56.742188 C 20.765625 56.519531 19.308594 55.824219 18.097656 54.617188 C 17.90625 54.425781 17.640625 54.320312 17.402344 54.1875 C 17.34375 54.234375 17.300781 54.261719 17.242188 54.308594 C 17.316406 54.703125 17.375 55.101562 17.476562 55.488281 C 18.453125 58.777344 19.792969 61.902344 21.503906 64.867188 C 25.191406 71.28125 29.617188 77.152344 34.617188 82.609375 C 34.703125 82.714844 34.867188 82.742188 35.058594 82.832031 C 32.210938 78.453125 29.425781 74.160156 26.636719 69.882812 C 26.726562 69.808594 26.8125 69.734375 26.886719 69.660156 C 27.183594 69.898438 27.507812 70.101562 27.773438 70.355469 C 29.824219 72.34375 32.269531 73.65625 34.984375 74.484375 C 35.546875 74.660156 36.152344 74.71875 36.726562 74.835938 C 36.710938 74.644531 36.679688 74.574219 36.621094 74.558594 C 36.136719 74.378906 35.664062 74.203125 35.175781 74.027344 C 30.605469 72.507812 27.078125 69.617188 24.644531 65.5 C 23.289062 63.199219 22.242188 60.722656 21.0625 58.320312 C 20.929688 58.054688 20.886719 57.742188 20.8125 57.449219 C 20.871094 57.390625 20.929688 57.316406 20.988281 57.257812 C 21.34375 57.449219 21.828125 57.566406 22.019531 57.863281 C 23.378906 59.957031 24.601562 62.152344 26.019531 64.21875 C 27.019531 65.691406 28.230469 67.035156 29.378906 68.40625 C 30 69.144531 30.855469 69.410156 31.8125 69.425781 C 35.839844 69.453125 39.882812 69.5 43.910156 69.558594 C 44.378906 69.558594 44.675781 69.410156 44.957031 69.042969 C 46.121094 67.523438 47.300781 66.019531 48.511719 64.527344 C 49.292969 63.570312 49.808594 63.539062 50.589844 64.484375 C 51.621094 65.738281 52.640625 66.992188 53.570312 68.332031 C 54.203125 69.246094 55 69.558594 56.0625 69.542969 C 60 69.484375 63.921875 69.484375 67.863281 69.441406 C 68.125 69.441406 68.464844 69.351562 68.65625 69.175781 C 69.703125 68.1875 70.898438 67.285156 71.726562 66.136719 C 73.570312 63.554688 75.222656 60.855469 76.933594 58.1875 C 77.433594 57.417969 77.800781 57.226562 78.703125 57.566406 C 77.476562 60.03125 76.355469 62.550781 75 64.925781 C 72.535156 69.320312 68.921875 72.417969 64.128906 74.042969 C 63.570312 74.234375 63.007812 74.453125 62.449219 74.660156 C 62.476562 74.734375 62.492188 74.792969 62.523438 74.867188 C 64.394531 74.644531 66.179688 74.101562 67.789062 73.113281 C 69.394531 72.125 70.898438 70.945312 72.449219 69.851562 C 72.507812 69.882812 72.550781 69.910156 72.609375 69.941406 C 69.925781 74.1875 67.300781 78.480469 64.308594 82.550781 Z M 22.933594 19.734375 C 25.148438 17.949219 27.65625 16.976562 30.5 17.300781 C 31.164062 17.375 31.945312 17.699219 32.359375 18.171875 C 32.714844 18.585938 33.023438 18.804688 33.496094 18.9375 C 35.589844 19.527344 37.699219 20.117188 39.792969 20.691406 C 40.117188 20.78125 40.441406 20.871094 40.765625 20.945312 C 40.679688 20.648438 40.53125 20.457031 40.339844 20.339844 C 37.847656 18.804688 35.28125 17.402344 32.433594 16.652344 C 30.058594 16.03125 27.683594 15.824219 25.367188 16.933594 C 23.761719 17.699219 22.492188 18.820312 21.578125 20.398438 C 20.886719 21.59375 20 22.683594 19.234375 23.847656 C 19.027344 24.175781 18.9375 24.585938 18.804688 24.957031 C 18.878906 25.03125 18.953125 25.101562 19.027344 25.175781 C 19.644531 24.835938 20.28125 24.5 20.898438 24.144531 C 21.195312 23.980469 21.488281 23.644531 21.769531 23.644531 C 23.199219 23.671875 24.632812 23.761719 26.0625 23.863281 C 27.019531 23.9375 27.992188 23.96875 28.910156 24.203125 C 31.976562 24.96875 34.75 26.371094 37.226562 28.320312 C 39.441406 30.058594 41.414062 32.035156 43.023438 34.351562 C 43.320312 34.765625 43.6875 35.132812 44.113281 35.632812 C 44.335938 34.160156 42.667969 29.632812 41.519531 28.511719 C 41.402344 28.820312 41.253906 29.054688 41.222656 29.308594 C 41.179688 29.574219 41.253906 29.835938 41.28125 30.296875 C 36.726562 25.753906 31.578125 22.890625 25.164062 22.683594 C 25.308594 22.597656 25.457031 22.507812 25.605469 22.523438 C 26.933594 22.640625 28.273438 22.699219 29.574219 22.949219 C 31.609375 23.332031 33.585938 23.9375 35.398438 24.96875 C 36.769531 25.753906 38.214844 26.429688 39.542969 27.269531 C 40.691406 27.992188 41.886719 28.347656 43.214844 28.304688 C 43.539062 28.289062 43.996094 28.054688 44.144531 27.789062 C 44.292969 27.523438 44.21875 27.050781 44.113281 26.710938 C 44.042969 26.445312 43.777344 26.222656 43.570312 26.03125 C 42.699219 25.234375 41.828125 24.441406 40.957031 23.65625 C 37.964844 21.003906 34.261719 19.734375 30.589844 18.511719 C 29.054688 17.992188 27.269531 18.140625 25.648438 18.6875 C 24.734375 19.027344 23.835938 19.394531 22.933594 19.734375 Z M 15.425781 42.535156 C 15.488281 42.609375 15.558594 42.667969 15.621094 42.742188 C 16.078125 42.390625 16.519531 41.976562 17.019531 41.679688 C 18.125 41.019531 19.203125 40.265625 20.398438 39.808594 C 21.695312 39.320312 23.039062 39.277344 24.320312 40.175781 C 25 40.648438 25.886719 40.886719 26.695312 41.136719 C 29.835938 42.109375 33.007812 41.785156 36.164062 41.195312 C 37.890625 40.871094 39.574219 40.398438 40.957031 39.261719 C 42.609375 37.890625 42.683594 36.488281 41.222656 34.910156 C 40.324219 33.9375 39.175781 33.320312 37.949219 32.863281 C 35 31.753906 31.917969 31.519531 28.820312 31.785156 C 27.949219 31.859375 27.050781 32.210938 26.269531 32.640625 C 24.703125 33.511719 23.6875 34.941406 22.667969 36.371094 C 21.742188 37.683594 20.132812 38.464844 18.71875 36.710938 C 18.320312 36.210938 17.964844 35.679688 17.597656 35.164062 C 17.433594 34.957031 17.257812 34.765625 17.078125 34.558594 C 17.019531 34.601562 16.960938 34.644531 16.902344 34.691406 C 17.285156 36.046875 18.097656 37.199219 18.910156 38.257812 C 18.007812 38.9375 17.152344 39.574219 16.296875 40.222656 C 16.355469 40.296875 16.402344 40.382812 16.460938 40.457031 C 17.625 40 18.554688 38.96875 19.910156 38.996094 C 19.128906 39.574219 18.304688 40.03125 17.523438 40.589844 C 16.742188 41.152344 15.945312 41.710938 15.425781 42.535156 Z M 82.332031 34.867188 C 82.269531 34.835938 82.226562 34.792969 82.167969 34.765625 C 81.992188 35 81.800781 35.234375 81.621094 35.472656 C 81.152344 36.105469 80.738281 36.785156 80.207031 37.34375 C 79.21875 38.40625 78.214844 38.421875 77.199219 37.390625 C 76.488281 36.679688 75.839844 35.898438 75.222656 35.101562 C 73.703125 33.171875 71.828125 32.050781 69.308594 32.066406 C 66.28125 32.078125 63.320312 32.300781 60.515625 33.523438 C 59.378906 34.027344 58.332031 34.675781 57.597656 35.691406 C 56.59375 37.066406 56.667969 38.363281 57.992188 39.378906 C 58.953125 40.101562 60.058594 40.738281 61.195312 41.121094 C 63.847656 41.992188 66.636719 42.167969 69.425781 42.035156 C 71.429688 41.933594 73.390625 41.535156 75.101562 40.457031 C 75.738281 40.058594 76.34375 39.984375 77.035156 39.925781 C 78.257812 39.835938 79.378906 40.164062 80.382812 40.824219 C 81.164062 41.328125 81.886719 41.917969 82.625 42.476562 C 82.949219 42.730469 83.273438 42.980469 83.597656 43.230469 C 83.644531 43.15625 83.703125 43.097656 83.746094 43.023438 C 82.667969 41.253906 80.78125 40.457031 79.128906 39.367188 C 79.1875 39.277344 79.234375 39.1875 79.292969 39.101562 C 80.472656 39.691406 81.636719 40.28125 82.816406 40.871094 C 82.863281 40.796875 82.921875 40.738281 82.964844 40.664062 C 82.066406 39.96875 81.152344 39.277344 80.207031 38.554688 C 81.253906 37.464844 81.902344 36.222656 82.332031 34.867188 Z M 80.28125 25.265625 C 80.367188 24.925781 80.398438 24.867188 80.398438 24.792969 C 80.382812 24.675781 80.367188 24.542969 80.308594 24.441406 C 79.574219 23.007812 78.894531 21.5625 77.476562 20.589844 C 75.78125 19.441406 73.996094 18.570312 71.933594 18.390625 C 70.398438 18.257812 68.953125 18.496094 67.449219 18.996094 C 64.1875 20.089844 61.046875 21.371094 58.363281 23.570312 C 57.210938 24.511719 56.179688 25.605469 55.148438 26.695312 C 54.585938 27.285156 54.957031 28.289062 55.707031 28.304688 C 56.859375 28.332031 57.992188 28.273438 59.054688 27.667969 C 61.003906 26.5625 62.933594 25.382812 64.96875 24.46875 C 66.960938 23.570312 69.027344 22.730469 71.28125 22.640625 C 71.445312 22.640625 71.621094 22.550781 71.785156 22.535156 C 72.464844 22.523438 73.140625 22.535156 73.835938 22.535156 C 73.835938 22.597656 73.835938 22.667969 73.835938 22.730469 C 71.296875 22.757812 68.894531 23.40625 66.578125 24.378906 C 63.644531 25.605469 61.0625 27.375 58.746094 29.542969 C 58.539062 29.734375 58.289062 29.898438 57.933594 30.164062 C 58.023438 29.835938 58.113281 29.691406 58.082031 29.558594 C 58.039062 29.292969 57.933594 29.042969 57.863281 28.789062 C 57.640625 28.894531 57.390625 28.96875 57.199219 29.128906 C 57.035156 29.261719 56.917969 29.484375 56.84375 29.691406 C 56.222656 31.519531 55.605469 33.347656 55 35.175781 C 54.957031 35.308594 55.015625 35.488281 55.058594 35.839844 C 55.367188 35.457031 55.558594 35.222656 55.765625 34.984375 C 56.945312 33.570312 58.039062 32.078125 59.335938 30.765625 C 64.203125 25.839844 69.957031 23.082031 77.066406 23.953125 C 77.183594 23.96875 77.34375 23.980469 77.417969 23.921875 C 77.847656 23.496094 78.066406 23.878906 78.390625 24.101562 C 78.996094 24.527344 79.601562 24.851562 80.28125 25.265625 Z M 58.820312 70.472656 C 58.820312 70.382812 58.820312 70.28125 58.804688 70.191406 C 58.453125 70.101562 58.097656 69.941406 57.742188 69.925781 C 54.246094 69.867188 50.765625 69.824219 47.269531 69.808594 C 45.25 69.808594 43.246094 69.867188 41.222656 69.941406 C 40.957031 69.957031 40.691406 70.191406 40.441406 70.339844 C 40.679688 70.5 40.914062 70.765625 41.164062 70.78125 C 43.511719 70.988281 45.855469 71.296875 48.199219 71.28125 C 51.355469 71.269531 54.527344 71.019531 57.683594 70.839844 C 58.082031 70.824219 58.453125 70.605469 58.820312 70.472656 Z M 58.464844 20.839844 C 58.496094 20.898438 58.523438 20.945312 58.539062 21.003906 C 58.789062 20.929688 59.042969 20.871094 59.308594 20.796875 C 61.371094 20.191406 63.453125 19.601562 65.5 18.953125 C 66.03125 18.789062 66.546875 18.523438 66.992188 18.199219 C 68.390625 17.125 70.042969 17.050781 71.621094 17.316406 C 73.554688 17.625 75.234375 18.644531 76.785156 19.851562 C 77.09375 20.101562 77.449219 20.28125 77.800781 20.515625 C 77.832031 20.382812 77.863281 20.355469 77.847656 20.339844 C 77.816406 20.265625 77.800781 20.207031 77.757812 20.148438 C 75.53125 17.210938 72.625 15.796875 68.921875 16.28125 C 65.191406 16.785156 61.945312 18.523438 58.835938 20.5 C 58.703125 20.589844 58.585938 20.722656 58.464844 20.839844 Z M 54.085938 57.921875 C 54.011719 57.847656 53.9375 57.757812 53.847656 57.683594 C 52.492188 58.378906 51.0625 59.027344 49.542969 58.878906 C 48.066406 58.730469 46.636719 58.230469 45.175781 57.875 C 45.414062 58.746094 46.121094 59.394531 47.242188 59.46875 C 48.746094 59.574219 50.28125 59.558594 51.785156 59.46875 C 52.316406 59.441406 52.875 59.160156 53.332031 58.863281 C 53.671875 58.671875 53.847656 58.246094 54.085938 57.921875 Z M 60.457031 57.550781 C 62.226562 56.164062 61.003906 52.199219 59.558594 51.152344 C 58.878906 52.035156 58.878906 52.035156 59.527344 52.890625 C 59.644531 53.054688 59.75 53.214844 59.898438 53.347656 C 60.824219 54.320312 60.898438 55.472656 60.632812 56.695312 C 60.574219 56.960938 60.53125 57.210938 60.457031 57.550781 Z M 39.601562 51.28125 C 37.90625 52.535156 37.226562 56.652344 38.628906 57.464844 C 38.613281 57.300781 38.628906 57.136719 38.597656 57.019531 C 38.054688 55.382812 38.703125 54.042969 39.71875 52.832031 C 40.355469 52.050781 40.382812 52.066406 39.601562 51.28125 Z M 55.441406 60.089844 C 56.535156 60 57.375 59.703125 57.980469 58.96875 C 58.363281 58.496094 58.246094 58.039062 57.730469 57.980469 C 56.695312 57.847656 55.796875 58.171875 55.101562 58.953125 C 54.925781 59.144531 54.867188 59.558594 54.925781 59.824219 C 54.957031 59.957031 55.339844 60.042969 55.441406 60.089844 Z M 41.695312 57.921875 C 41.5625 57.992188 41.089844 58.097656 41.046875 58.289062 C 41.003906 58.585938 41.152344 59.085938 41.386719 59.21875 C 42.035156 59.574219 42.742188 59.824219 43.453125 60.042969 C 43.65625 60.101562 44.113281 59.96875 44.144531 59.851562 C 44.203125 59.585938 44.160156 59.203125 43.996094 58.980469 C 43.480469 58.304688 42.730469 58.039062 41.695312 57.921875 Z M 53.804688 36.578125 C 53.703125 36.578125 53.585938 36.59375 53.480469 36.59375 C 53.421875 38.304688 53.332031 40 53.304688 41.710938 C 53.304688 41.902344 53.570312 42.183594 53.761719 42.242188 C 53.894531 42.285156 54.203125 42.050781 54.292969 41.875 C 54.394531 41.679688 54.378906 41.402344 54.367188 41.164062 C 54.246094 40.101562 54.113281 39.027344 53.980469 37.964844 C 53.9375 37.507812 53.863281 37.050781 53.804688 36.578125 Z M 45.871094 42.210938 C 45.855469 40.355469 46.003906 38.511719 45.53125 36.679688 C 45.355469 37.417969 45.25 38.171875 45.164062 38.910156 C 45.074219 39.660156 45.015625 40.414062 44.898438 41.164062 C 44.777344 42.019531 44.882812 42.136719 45.871094 42.210938 Z M 43.980469 55.117188 C 43.921875 55.621094 43.730469 56.121094 43.863281 56.519531 C 44.011719 56.933594 44.46875 57.242188 44.792969 57.597656 C 44.867188 57.550781 44.941406 57.507812 45.015625 57.449219 C 44.925781 56.800781 44.898438 56.152344 44.734375 55.515625 C 44.691406 55.355469 44.261719 55.265625 43.980469 55.117188 Z M 55.382812 55.28125 C 54.527344 55.546875 54.070312 56.652344 54.46875 57.492188 C 55.28125 57.125 55.691406 56.105469 55.382812 55.28125 Z M 55.382812 55.28125 "/>
<path style=" stroke:none;fill-rule:nonzero;fill:rgb(0%,0%,0%);fill-opacity:1;" d="M 64.308594 82.550781 C 67.300781 78.480469 69.910156 74.1875 72.609375 69.941406 C 72.550781 69.910156 72.507812 69.882812 72.449219 69.851562 C 70.898438 70.945312 69.394531 72.125 67.789062 73.113281 C 66.179688 74.101562 64.394531 74.644531 62.523438 74.867188 C 62.492188 74.792969 62.476562 74.734375 62.449219 74.660156 C 63.007812 74.453125 63.554688 74.234375 64.128906 74.042969 C 68.921875 72.417969 72.535156 69.320312 75.015625 64.957031 C 76.371094 62.566406 77.492188 60.058594 78.71875 57.597656 C 77.800781 57.257812 77.433594 57.449219 76.945312 58.214844 C 75.234375 60.886719 73.570312 63.585938 71.742188 66.164062 C 70.914062 67.316406 69.734375 68.214844 68.671875 69.203125 C 68.480469 69.378906 68.140625 69.46875 67.875 69.46875 C 63.9375 69.511719 60.015625 69.527344 56.078125 69.574219 C 55.015625 69.585938 54.21875 69.277344 53.585938 68.363281 C 52.65625 67.035156 51.636719 65.765625 50.605469 64.511719 C 49.824219 63.570312 49.308594 63.597656 48.523438 64.558594 C 47.316406 66.046875 46.136719 67.550781 44.96875 69.070312 C 44.691406 69.441406 44.394531 69.601562 43.921875 69.585938 C 39.898438 69.527344 35.855469 69.484375 31.828125 69.453125 C 30.871094 69.441406 30.015625 69.175781 29.394531 68.4375 C 28.246094 67.066406 27.050781 65.722656 26.03125 64.246094 C 24.617188 62.183594 23.390625 60 22.035156 57.890625 C 21.84375 57.597656 21.355469 57.476562 21.003906 57.285156 C 20.945312 57.34375 20.886719 57.417969 20.824219 57.476562 C 20.914062 57.773438 20.957031 58.082031 21.078125 58.347656 C 22.257812 60.753906 23.304688 63.230469 24.660156 65.53125 C 27.09375 69.644531 30.605469 72.535156 35.191406 74.054688 C 35.679688 74.21875 36.164062 74.394531 36.636719 74.585938 C 36.695312 74.601562 36.742188 74.675781 36.742188 74.867188 C 36.164062 74.75 35.558594 74.691406 35 74.511719 C 32.285156 73.6875 29.835938 72.375 27.789062 70.382812 C 27.523438 70.117188 27.199219 69.910156 26.902344 69.691406 C 26.8125 69.765625 26.726562 69.835938 26.652344 69.910156 C 29.441406 74.203125 32.226562 78.480469 35.074219 82.863281 C 34.882812 82.773438 34.71875 82.730469 34.632812 82.640625 C 29.632812 77.199219 25.207031 71.328125 21.519531 64.898438 C 19.808594 61.917969 18.464844 58.789062 17.492188 55.515625 C 17.375 55.132812 17.332031 54.734375 17.257812 54.335938 C 17.316406 54.292969 17.359375 54.261719 17.417969 54.21875 C 17.65625 54.367188 17.933594 54.46875 18.113281 54.644531 C 19.320312 55.855469 20.78125 56.535156 22.464844 56.769531 C 22.65625 56.800781 22.890625 56.800781 23.023438 56.917969 C 23.71875 57.582031 24.378906 57.390625 25.164062 57.007812 C 25.722656 56.742188 26.402344 56.753906 27.019531 56.609375 C 29.898438 55.898438 32.714844 55.074219 35.089844 53.199219 C 35.5 52.875 35.957031 52.582031 36.445312 53.125 C 36.933594 53.65625 36.828125 54.203125 36.402344 54.644531 C 35.957031 55.089844 35.425781 55.488281 34.867188 55.753906 C 32.136719 57.050781 29.292969 57.933594 26.222656 57.847656 C 26.105469 57.847656 25.988281 57.863281 25.855469 57.875 C 25.8125 57.890625 25.78125 57.933594 25.664062 58.039062 C 26.003906 58.523438 26.3125 59.042969 26.679688 59.511719 C 28.039062 61.222656 29.425781 62.921875 30.796875 64.617188 C 31.210938 65.132812 31.679688 65.441406 32.359375 65.414062 C 34.585938 65.308594 36.828125 65.28125 39.054688 65.101562 C 40.546875 64.984375 41.742188 64.1875 42.65625 63.023438 C 43.1875 62.34375 43.730469 61.679688 44.203125 60.957031 C 44.542969 60.457031 44.824219 60.265625 45.425781 60.558594 C 47.609375 61.621094 49.910156 61.414062 52.210938 61.078125 C 52.742188 61.003906 53.257812 60.796875 53.746094 60.589844 C 54.21875 60.382812 54.558594 60.5 54.835938 60.886719 C 55.296875 61.488281 55.753906 62.09375 56.210938 62.714844 C 57.730469 64.777344 59.898438 65.355469 62.300781 65.367188 C 63.847656 65.367188 65.398438 65.398438 66.945312 65.355469 C 67.316406 65.339844 67.800781 65.234375 68.007812 64.984375 C 69.898438 62.714844 71.742188 60.398438 73.597656 58.082031 C 73.554688 58.007812 73.496094 57.933594 73.453125 57.863281 C 73.246094 57.847656 73.054688 57.832031 72.847656 57.832031 C 69.453125 57.890625 66.386719 56.753906 63.480469 55.132812 C 62.597656 54.632812 62.359375 53.996094 62.65625 53.390625 C 62.992188 52.714844 63.390625 52.597656 63.980469 53.054688 C 66.386719 54.867188 69.113281 55.886719 72.019531 56.5625 C 72.992188 56.785156 73.9375 57.125 74.910156 57.359375 C 75.148438 57.417969 75.441406 57.359375 75.679688 57.285156 C 76.296875 57.078125 76.886719 56.695312 77.507812 56.609375 C 78.96875 56.371094 80.132812 55.691406 81.152344 54.675781 C 81.402344 54.425781 81.710938 54.21875 81.992188 53.996094 C 82.066406 54.027344 82.125 54.054688 82.199219 54.101562 C 81.917969 55.089844 81.679688 56.089844 81.355469 57.078125 C 78.910156 64.453125 74.441406 70.648438 69.765625 76.710938 C 68.304688 78.613281 66.636719 80.367188 65.074219 82.199219 C 64.898438 82.390625 64.824219 82.667969 64.691406 82.90625 C 64.558594 82.773438 64.441406 82.65625 64.308594 82.550781 Z M 64.308594 82.550781 "/>
<path style=" stroke:none;fill-rule:nonzero;fill:rgb(0%,0%,0%);fill-opacity:1;" d="M 22.933594 19.734375 C 23.847656 19.394531 24.75 19.027344 25.664062 18.71875 C 27.285156 18.171875 29.070312 18.023438 30.605469 18.539062 C 34.277344 19.765625 37.980469 21.046875 40.972656 23.6875 C 41.859375 24.46875 42.730469 25.265625 43.585938 26.0625 C 43.804688 26.253906 44.054688 26.488281 44.128906 26.742188 C 44.234375 27.078125 44.320312 27.550781 44.160156 27.816406 C 44.011719 28.082031 43.554688 28.320312 43.230469 28.332031 C 41.917969 28.378906 40.707031 28.023438 39.558594 27.300781 C 38.230469 26.460938 36.785156 25.78125 35.414062 25 C 33.597656 23.953125 31.621094 23.363281 29.585938 22.980469 C 28.289062 22.730469 26.945312 22.683594 25.621094 22.550781 C 25.472656 22.535156 25.324219 22.625 25.175781 22.714844 C 31.59375 22.921875 36.742188 25.78125 41.296875 30.324219 C 41.269531 29.882812 41.195312 29.601562 41.238281 29.335938 C 41.269531 29.085938 41.414062 28.835938 41.535156 28.539062 C 42.683594 29.660156 44.351562 34.1875 44.128906 35.664062 C 43.703125 35.164062 43.332031 34.808594 43.039062 34.378906 C 41.429688 32.050781 39.453125 30.074219 37.242188 28.347656 C 34.75 26.402344 31.992188 25 28.921875 24.234375 C 28.007812 23.996094 27.035156 23.96875 26.078125 23.894531 C 24.644531 23.789062 23.214844 23.6875 21.785156 23.671875 C 21.488281 23.671875 21.210938 24.011719 20.914062 24.175781 C 20.296875 24.527344 19.660156 24.867188 19.042969 25.207031 C 18.96875 25.132812 18.894531 25.058594 18.820312 24.984375 C 18.96875 24.617188 19.042969 24.203125 19.246094 23.878906 C 20.015625 22.714844 20.886719 21.621094 21.59375 20.425781 C 22.507812 18.863281 23.777344 17.730469 25.382812 16.960938 C 27.683594 15.871094 30.074219 16.0625 32.449219 16.679688 C 35.308594 17.433594 37.875 18.820312 40.355469 20.367188 C 40.546875 20.488281 40.691406 20.664062 40.78125 20.972656 C 40.457031 20.886719 40.132812 20.8125 39.808594 20.722656 C 37.714844 20.132812 35.605469 19.542969 33.511719 18.96875 C 33.039062 18.835938 32.730469 18.613281 32.375 18.199219 C 31.960938 17.714844 31.179688 17.402344 30.515625 17.332031 C 27.640625 16.976562 25.148438 17.949219 22.933594 19.734375 Z M 22.933594 19.734375 "/>
<path style=" stroke:none;fill-rule:nonzero;fill:rgb(0%,0%,0%);fill-opacity:1;" d="M 15.425781 42.535156 C 15.945312 41.710938 16.742188 41.152344 17.523438 40.589844 C 18.289062 40.03125 19.128906 39.574219 19.910156 38.996094 C 18.554688 38.96875 17.625 40.015625 16.460938 40.457031 C 16.402344 40.382812 16.355469 40.296875 16.296875 40.222656 C 17.152344 39.585938 18.007812 38.9375 18.910156 38.257812 C 18.097656 37.199219 17.285156 36.046875 16.902344 34.691406 C 16.960938 34.644531 17.019531 34.601562 17.078125 34.558594 C 17.257812 34.765625 17.433594 34.957031 17.597656 35.164062 C 17.980469 35.679688 18.320312 36.210938 18.71875 36.710938 C 20.132812 38.464844 21.742188 37.683594 22.667969 36.371094 C 23.6875 34.941406 24.703125 33.511719 26.269531 32.640625 C 27.035156 32.210938 27.949219 31.859375 28.820312 31.785156 C 31.933594 31.519531 35 31.753906 37.949219 32.863281 C 39.175781 33.320312 40.324219 33.9375 41.222656 34.910156 C 42.683594 36.488281 42.609375 37.890625 40.957031 39.261719 C 39.574219 40.414062 37.890625 40.886719 36.164062 41.195312 C 33.007812 41.785156 29.835938 42.109375 26.695312 41.136719 C 25.886719 40.886719 25 40.648438 24.320312 40.175781 C 23.039062 39.277344 21.695312 39.320312 20.398438 39.808594 C 19.203125 40.265625 18.125 41.019531 17.019531 41.679688 C 16.519531 41.976562 16.089844 42.390625 15.621094 42.742188 C 15.546875 42.667969 15.488281 42.609375 15.425781 42.535156 Z M 41.078125 36.328125 C 41.105469 36.28125 41.121094 36.253906 41.152344 36.210938 C 41.105469 36.136719 41.078125 36.046875 41.019531 35.988281 C 40.796875 35.796875 40.574219 35.605469 40.339844 35.425781 C 37.050781 33.082031 33.332031 32.34375 29.425781 32.949219 C 27.257812 33.289062 25.296875 34.246094 24.246094 36.414062 C 23.597656 37.742188 23.746094 38.230469 25.03125 38.894531 C 25.441406 39.101562 25.871094 39.320312 26.328125 39.410156 C 27.625 39.660156 28.921875 39.941406 30.234375 40.03125 C 33.113281 40.234375 35.988281 40.25 38.746094 39.246094 C 39.527344 38.96875 40.265625 38.585938 41.03125 38.246094 C 41.003906 38.171875 40.972656 38.097656 40.945312 38.023438 C 40.191406 38.230469 39.453125 38.480469 38.703125 38.644531 C 35.546875 39.351562 32.359375 39.335938 29.175781 38.996094 C 27.890625 38.863281 26.609375 38.378906 25.382812 37.933594 C 24.617188 37.65625 24.574219 37.125 25.175781 36.578125 C 25.679688 36.121094 26.222656 35.679688 26.8125 35.339844 C 30.691406 33.082031 34.632812 33.304688 38.585938 35.148438 C 39.425781 35.53125 40.25 35.929688 41.078125 36.328125 Z M 41.078125 36.328125 "/>
<path style=" stroke:none;fill-rule:nonzero;fill:rgb(0%,0%,0%);fill-opacity:1;" d="M 82.332031 34.867188 C 81.902344 36.222656 81.269531 37.464844 80.222656 38.570312 C 81.164062 39.292969 82.078125 39.984375 82.980469 40.679688 C 82.933594 40.753906 82.875 40.8125 82.832031 40.886719 C 81.652344 40.296875 80.488281 39.703125 79.308594 39.113281 C 79.246094 39.203125 79.203125 39.292969 79.144531 39.378906 C 80.796875 40.472656 82.683594 41.269531 83.761719 43.039062 C 83.71875 43.113281 83.65625 43.171875 83.613281 43.246094 C 83.289062 42.992188 82.964844 42.742188 82.640625 42.492188 C 81.886719 41.933594 81.164062 41.34375 80.398438 40.839844 C 79.394531 40.175781 78.273438 39.851562 77.050781 39.941406 C 76.355469 39.984375 75.753906 40.074219 75.117188 40.472656 C 73.390625 41.546875 71.445312 41.960938 69.441406 42.050781 C 66.652344 42.199219 63.878906 42.007812 61.210938 41.136719 C 60.074219 40.765625 58.96875 40.132812 58.007812 39.394531 C 56.667969 38.378906 56.59375 37.078125 57.609375 35.707031 C 58.363281 34.691406 59.394531 34.042969 60.53125 33.539062 C 63.332031 32.316406 66.3125 32.078125 69.320312 32.078125 C 71.84375 32.078125 73.730469 33.199219 75.234375 35.117188 C 75.855469 35.914062 76.503906 36.679688 77.210938 37.402344 C 78.230469 38.421875 79.21875 38.421875 80.222656 37.359375 C 80.753906 36.785156 81.164062 36.105469 81.636719 35.488281 C 81.8125 35.25 82.007812 35.015625 82.183594 34.777344 C 82.210938 34.792969 82.269531 34.835938 82.332031 34.867188 Z M 57.980469 36.84375 C 58.039062 36.902344 58.097656 36.945312 58.15625 37.007812 C 58.214844 36.976562 58.289062 36.960938 58.347656 36.933594 C 60.855469 35.234375 63.570312 34.160156 66.652344 34.113281 C 69.453125 34.070312 71.828125 35.074219 73.953125 36.785156 C 74.792969 37.464844 74.734375 37.949219 73.746094 38.421875 C 73.125 38.71875 72.464844 38.921875 71.800781 39.085938 C 68.777344 39.792969 65.722656 39.867188 62.65625 39.378906 C 61.136719 39.128906 59.585938 38.9375 58.273438 38.039062 C 58.246094 38.023438 58.15625 38.097656 57.980469 38.1875 C 58.199219 38.390625 58.363281 38.613281 58.585938 38.71875 C 59.410156 39.128906 60.234375 39.617188 61.121094 39.851562 C 65.148438 40.945312 69.1875 40.886719 73.1875 39.675781 C 73.804688 39.484375 74.394531 39.144531 74.96875 38.835938 C 75.355469 38.628906 75.425781 38.304688 75.296875 37.832031 C 74.808594 36.03125 73.628906 34.851562 72.007812 34.085938 C 69.644531 32.949219 67.167969 32.964844 64.660156 33.40625 C 62.566406 33.777344 60.664062 34.585938 58.953125 35.824219 C 58.570312 36.0625 58.304688 36.488281 57.980469 36.84375 Z M 57.980469 36.84375 "/>
<path style=" stroke:none;fill-rule:nonzero;fill:rgb(0%,0%,0%);fill-opacity:1;" d="M 80.28125 25.265625 C 79.601562 24.851562 78.980469 24.511719 78.421875 24.113281 C 78.097656 23.894531 77.875 23.511719 77.449219 23.9375 C 77.390625 23.996094 77.210938 23.980469 77.09375 23.96875 C 69.96875 23.097656 64.234375 25.855469 59.367188 30.78125 C 58.082031 32.078125 56.992188 33.585938 55.796875 35 C 55.605469 35.234375 55.414062 35.472656 55.089844 35.855469 C 55.058594 35.488281 54.984375 35.324219 55.03125 35.191406 C 55.632812 33.363281 56.253906 31.535156 56.875 29.703125 C 56.945312 29.5 57.066406 29.277344 57.226562 29.144531 C 57.402344 28.980469 57.667969 28.921875 57.890625 28.804688 C 57.964844 29.054688 58.066406 29.308594 58.113281 29.574219 C 58.125 29.703125 58.054688 29.851562 57.964844 30.175781 C 58.320312 29.910156 58.570312 29.75 58.777344 29.558594 C 61.089844 27.390625 63.671875 25.621094 66.609375 24.394531 C 68.921875 23.421875 71.328125 22.789062 73.863281 22.742188 C 73.863281 22.683594 73.863281 22.609375 73.863281 22.550781 C 73.1875 22.550781 72.507812 22.550781 71.8125 22.550781 C 71.652344 22.550781 71.476562 22.640625 71.3125 22.65625 C 69.054688 22.730469 67.007812 23.585938 65 24.484375 C 62.964844 25.398438 61.03125 26.578125 59.085938 27.683594 C 58.023438 28.289062 56.886719 28.347656 55.738281 28.320312 C 54.984375 28.304688 54.617188 27.300781 55.175781 26.710938 C 56.195312 25.621094 57.242188 24.527344 58.390625 23.585938 C 61.0625 21.386719 64.203125 20.101562 67.476562 19.011719 C 68.980469 18.511719 70.414062 18.273438 71.960938 18.40625 C 74.027344 18.585938 75.8125 19.453125 77.507812 20.605469 C 78.921875 21.5625 79.601562 23.023438 80.339844 24.453125 C 80.398438 24.558594 80.414062 24.691406 80.425781 24.808594 C 80.414062 24.867188 80.367188 24.941406 80.28125 25.265625 Z M 80.28125 25.265625 "/>
<path style=" stroke:none;fill-rule:nonzero;fill:rgb(0%,0%,0%);fill-opacity:1;" d="M 58.820312 70.472656 C 58.453125 70.605469 58.082031 70.824219 57.699219 70.855469 C 54.542969 71.03125 51.386719 71.296875 48.214844 71.296875 C 45.871094 71.3125 43.523438 71.003906 41.179688 70.796875 C 40.929688 70.78125 40.691406 70.5 40.457031 70.355469 C 40.722656 70.222656 40.972656 69.96875 41.238281 69.957031 C 43.257812 69.882812 45.265625 69.808594 47.285156 69.824219 C 50.78125 69.824219 54.261719 69.882812 57.757812 69.941406 C 58.113281 69.941406 58.464844 70.117188 58.820312 70.207031 C 58.820312 70.28125 58.820312 70.367188 58.820312 70.472656 Z M 58.820312 70.472656 "/>
<path style=" stroke:none;fill-rule:nonzero;fill:rgb(0%,0%,0%);fill-opacity:1;" d="M 58.464844 20.839844 C 58.585938 20.722656 58.703125 20.605469 58.835938 20.515625 C 61.960938 18.523438 65.191406 16.785156 68.921875 16.296875 C 72.625 15.8125 75.53125 17.226562 77.757812 20.164062 C 77.800781 20.222656 77.816406 20.296875 77.847656 20.355469 C 77.847656 20.367188 77.832031 20.398438 77.800781 20.53125 C 77.449219 20.296875 77.09375 20.101562 76.785156 19.867188 C 75.25 18.644531 73.554688 17.640625 71.621094 17.332031 C 70.03125 17.078125 68.390625 17.136719 66.992188 18.214844 C 66.5625 18.554688 66.03125 18.804688 65.5 18.96875 C 63.453125 19.601562 61.371094 20.191406 59.308594 20.8125 C 59.054688 20.886719 58.804688 20.945312 58.539062 21.019531 C 58.523438 20.945312 58.496094 20.898438 58.464844 20.839844 Z M 58.464844 20.839844 "/>
<path style=" stroke:none;fill-rule:nonzero;fill:rgb(0%,0%,0%);fill-opacity:1;" d="M 54.085938 57.921875 C 53.847656 58.246094 53.671875 58.65625 53.347656 58.863281 C 52.890625 59.160156 52.332031 59.441406 51.800781 59.46875 C 50.296875 59.542969 48.761719 59.574219 47.257812 59.46875 C 46.136719 59.394531 45.425781 58.730469 45.191406 57.875 C 46.652344 58.230469 48.082031 58.730469 49.558594 58.878906 C 51.078125 59.027344 52.492188 58.363281 53.863281 57.683594 C 53.9375 57.757812 54.011719 57.847656 54.085938 57.921875 Z M 54.085938 57.921875 "/>
<path style=" stroke:none;fill-rule:nonzero;fill:rgb(0%,0%,0%);fill-opacity:1;" d="M 60.457031 57.550781 C 60.53125 57.199219 60.574219 56.960938 60.632812 56.710938 C 60.898438 55.488281 60.824219 54.320312 59.898438 53.363281 C 59.765625 53.214844 59.644531 53.054688 59.527344 52.90625 C 58.878906 52.050781 58.878906 52.050781 59.558594 51.164062 C 61.003906 52.210938 62.226562 56.164062 60.457031 57.550781 Z M 60.457031 57.550781 "/>
<path style=" stroke:none;fill-rule:nonzero;fill:rgb(0%,0%,0%);fill-opacity:1;" d="M 39.601562 51.28125 C 40.367188 52.066406 40.355469 52.035156 39.703125 52.816406 C 38.6875 54.042969 38.054688 55.367188 38.585938 57.007812 C 38.628906 57.136719 38.613281 57.285156 38.613281 57.449219 C 37.226562 56.667969 37.921875 52.535156 39.601562 51.28125 Z M 39.601562 51.28125 "/>
<path style=" stroke:none;fill-rule:nonzero;fill:rgb(0%,0%,0%);fill-opacity:1;" d="M 55.441406 60.089844 C 55.339844 60.03125 54.957031 59.957031 54.925781 59.808594 C 54.867188 59.542969 54.925781 59.128906 55.101562 58.9375 C 55.796875 58.171875 56.695312 57.832031 57.730469 57.964844 C 58.257812 58.039062 58.378906 58.480469 57.980469 58.953125 C 57.375 59.703125 56.535156 60 55.441406 60.089844 Z M 55.441406 60.089844 "/>
<path style=" stroke:none;fill-rule:nonzero;fill:rgb(0%,0%,0%);fill-opacity:1;" d="M 41.695312 57.921875 C 42.730469 58.054688 43.496094 58.304688 44.011719 58.980469 C 44.175781 59.1875 44.21875 59.574219 44.160156 59.851562 C 44.128906 59.96875 43.671875 60.101562 43.464844 60.042969 C 42.757812 59.824219 42.035156 59.585938 41.402344 59.21875 C 41.164062 59.085938 41.003906 58.585938 41.0625 58.289062 C 41.078125 58.097656 41.5625 57.992188 41.695312 57.921875 Z M 41.695312 57.921875 "/>
<path style=" stroke:none;fill-rule:nonzero;fill:rgb(0%,0%,0%);fill-opacity:1;" d="M 53.804688 36.578125 C 53.863281 37.035156 53.9375 37.507812 53.996094 37.964844 C 54.128906 39.027344 54.261719 40.089844 54.378906 41.164062 C 54.410156 41.402344 54.410156 41.679688 54.308594 41.875 C 54.203125 42.050781 53.910156 42.285156 53.777344 42.242188 C 53.585938 42.183594 53.320312 41.902344 53.320312 41.710938 C 53.347656 40 53.421875 38.304688 53.496094 36.59375 C 53.585938 36.59375 53.703125 36.59375 53.804688 36.578125 Z M 53.804688 36.578125 "/>
<path style=" stroke:none;fill-rule:nonzero;fill:rgb(0%,0%,0%);fill-opacity:1;" d="M 45.871094 42.210938 C 44.867188 42.152344 44.777344 42.019531 44.910156 41.164062 C 45.015625 40.414062 45.074219 39.660156 45.175781 38.910156 C 45.265625 38.15625 45.367188 37.417969 45.546875 36.679688 C 46.003906 38.511719 45.855469 40.355469 45.871094 42.210938 Z M 45.871094 42.210938 "/>
<path style=" stroke:none;fill-rule:nonzero;fill:rgb(0%,0%,0%);fill-opacity:1;" d="M 43.980469 55.117188 C 44.261719 55.265625 44.691406 55.339844 44.734375 55.53125 C 44.898438 56.152344 44.941406 56.8125 45.015625 57.464844 C 44.941406 57.507812 44.867188 57.550781 44.792969 57.609375 C 44.46875 57.257812 44.011719 56.945312 43.863281 56.535156 C 43.730469 56.136719 43.921875 55.621094 43.980469 55.117188 Z M 43.980469 55.117188 "/>
<path style=" stroke:none;fill-rule:nonzero;fill:rgb(0%,0%,0%);fill-opacity:1;" d="M 55.382812 55.28125 C 55.691406 56.105469 55.28125 57.125 54.46875 57.492188 C 54.070312 56.636719 54.527344 55.546875 55.382812 55.28125 Z M 55.382812 55.28125 "/>
<path style=" stroke:none;fill-rule:nonzero;fill:rgb(100%,100%,100%);fill-opacity:1;" d="M 41.078125 36.328125 C 40.25 35.929688 39.425781 35.53125 38.585938 35.148438 C 34.632812 33.304688 30.691406 33.097656 26.8125 35.339844 C 26.222656 35.679688 25.679688 36.121094 25.175781 36.578125 C 24.574219 37.125 24.617188 37.65625 25.382812 37.933594 C 26.609375 38.390625 27.890625 38.863281 29.175781 38.996094 C 32.359375 39.335938 35.546875 39.335938 38.703125 38.644531 C 39.453125 38.480469 40.191406 38.230469 40.945312 38.023438 C 40.972656 38.097656 41.003906 38.171875 41.03125 38.246094 C 40.28125 38.585938 39.527344 38.96875 38.746094 39.246094 C 35.988281 40.25 33.097656 40.234375 30.234375 40.03125 C 28.921875 39.941406 27.625 39.644531 26.328125 39.410156 C 25.886719 39.320312 25.441406 39.113281 25.03125 38.894531 C 23.746094 38.230469 23.597656 37.730469 24.246094 36.414062 C 25.296875 34.246094 27.257812 33.289062 29.425781 32.949219 C 33.347656 32.34375 37.050781 33.082031 40.339844 35.425781 C 40.574219 35.605469 40.796875 35.796875 41.019531 35.988281 C 41.078125 36.046875 41.105469 36.136719 41.152344 36.210938 C 41.136719 36.253906 41.105469 36.296875 41.078125 36.328125 Z M 41.078125 36.328125 "/>
<path style=" stroke:none;fill-rule:nonzero;fill:rgb(100%,100%,100%);fill-opacity:1;" d="M 57.980469 36.84375 C 58.304688 36.488281 58.570312 36.0625 58.9375 35.796875 C 60.648438 34.558594 62.550781 33.746094 64.644531 33.378906 C 67.152344 32.933594 69.632812 32.921875 71.992188 34.054688 C 73.613281 34.835938 74.792969 36.003906 75.28125 37.800781 C 75.414062 38.273438 75.339844 38.597656 74.957031 38.804688 C 74.378906 39.128906 73.789062 39.453125 73.171875 39.644531 C 69.175781 40.855469 65.132812 40.914062 61.105469 39.824219 C 60.222656 39.585938 59.410156 39.085938 58.570312 38.6875 C 58.347656 38.585938 58.1875 38.363281 57.964844 38.15625 C 58.140625 38.066406 58.230469 37.992188 58.257812 38.007812 C 59.585938 38.910156 61.121094 39.113281 62.640625 39.351562 C 65.707031 39.835938 68.761719 39.777344 71.785156 39.054688 C 72.449219 38.894531 73.113281 38.6875 73.730469 38.390625 C 74.71875 37.921875 74.777344 37.433594 73.9375 36.753906 C 71.8125 35.042969 69.441406 34.042969 66.636719 34.085938 C 63.554688 34.144531 60.839844 35.207031 58.332031 36.902344 C 58.273438 36.945312 58.214844 36.960938 58.140625 36.976562 C 58.097656 36.945312 58.039062 36.886719 57.980469 36.84375 Z M 57.980469 36.84375 "/>
</g>
</svg>
