<?xml version="1.0" encoding="UTF-8"?>
<svg xmlns="http://www.w3.org/2000/svg" xmlns:xlink="http://www.w3.org/1999/xlink" width="84px" height="99px" viewBox="0 0 84 99" version="1.1">
<g id="surface1">
<path style=" stroke:none;fill-rule:nonzero;fill:rgb(0.392157%,0.392157%,0.392157%);fill-opacity:1;" d="M 0.152344 32.398438 C 0.152344 32.054688 0.152344 31.695312 0.152344 31.351562 C 0.332031 29.910156 0.347656 28.46875 0.484375 27.03125 C 0.726562 24.675781 1.5 22.46875 2.390625 20.296875 C 3.996094 16.378906 6.460938 13.09375 9.59375 10.261719 C 13.484375 6.75 18.027344 4.363281 22.945312 2.683594 C 26.984375 1.304688 31.117188 0.300781 35.429688 0.316406 C 35.6875 0.316406 35.929688 0.300781 36.15625 0.164062 C 39.53125 0.164062 42.921875 0.164062 46.296875 0.164062 C 47.386719 0.433594 48.492188 0.375 49.597656 0.433594 C 52.640625 0.585938 55.5625 1.320312 58.4375 2.175781 C 62.78125 3.464844 66.761719 5.445312 70.289062 8.308594 C 73.691406 11.054688 76.402344 14.371094 78.566406 18.148438 C 79.382812 19.558594 80.035156 21.046875 80.730469 22.515625 C 81.425781 23.953125 81.519531 25.5 81.730469 27.03125 C 82.246094 30.585938 82.789062 34.140625 83.441406 37.679688 C 83.773438 39.480469 83.941406 41.28125 84.046875 43.109375 C 84.046875 43.214844 84.046875 43.304688 84.121094 43.394531 C 84.121094 43.738281 84.121094 44.101562 84.121094 44.445312 C 84 46.09375 84 47.746094 84.121094 49.394531 C 84.121094 50.101562 84.121094 50.789062 84.121094 51.496094 C 83.96875 52.351562 84 53.234375 83.984375 54.089844 C 83.910156 58.183594 83.605469 62.265625 82.910156 66.316406 C 82.394531 69.375 81.804688 72.421875 80.851562 75.375 C 80.003906 77.984375 78.535156 80.25 76.765625 82.320312 C 72.679688 87.058594 67.667969 90.703125 62.386719 94.035156 C 60.148438 95.445312 57.847656 96.734375 55.335938 97.621094 C 53.003906 98.445312 50.628906 99.058594 48.128906 99.058594 C 47.855469 99.058594 47.570312 99.074219 47.328125 99.210938 C 46.828125 99.210938 46.3125 99.210938 45.8125 99.210938 C 44.90625 99.089844 43.996094 99.089844 43.089844 99.210938 C 42.589844 99.210938 42.074219 99.210938 41.578125 99.210938 C 40.957031 98.941406 40.289062 99.015625 39.652344 98.984375 C 37.503906 98.863281 35.539062 98.128906 33.613281 97.246094 C 31.511719 96.269531 29.558594 95.011719 27.515625 93.929688 C 24.625 92.398438 21.765625 90.824219 18.980469 89.101562 C 16.164062 87.375 13.53125 85.425781 11.140625 83.128906 C 7.808594 79.933594 5.675781 76.078125 4.40625 71.683594 C 2.996094 66.628906 2.117188 61.5 1.484375 56.339844 C 0.984375 52.273438 0.589844 48.210938 0.5 44.101562 C 0.46875 41.953125 0.347656 39.796875 0.152344 37.648438 C 0.152344 37.246094 0.152344 36.855469 0.152344 36.449219 C 0.273438 35.101562 0.273438 33.75 0.152344 32.398438 Z M 0.152344 32.398438 "/>
<path style=" stroke:none;fill-rule:nonzero;fill:rgb(99.607843%,99.607843%,99.607843%);fill-opacity:1;" d="M 0.152344 37.648438 C 0.46875 38.191406 0.332031 38.804688 0.410156 39.375 C 0.9375 43.453125 0.953125 47.578125 1.363281 51.691406 C 2.074219 58.816406 3.058594 65.894531 5.191406 72.765625 C 7.007812 78.585938 10.820312 82.875 15.710938 86.371094 C 19.675781 89.21875 23.988281 91.5 28.273438 93.839844 C 30.105469 94.84375 31.90625 95.878906 33.765625 96.824219 C 36.023438 97.964844 38.457031 98.59375 40.972656 98.878906 C 41.214844 98.910156 41.484375 98.878906 41.605469 99.164062 C 28 99.164062 14.378906 99.164062 0.773438 99.179688 C 0.210938 99.179688 0.121094 99.046875 0.121094 98.519531 C 0.152344 78.226562 0.152344 57.929688 0.152344 37.648438 Z M 0.152344 37.648438 "/>
<path style=" stroke:none;fill-rule:nonzero;fill:rgb(99.607843%,99.607843%,99.607843%);fill-opacity:1;" d="M 47.371094 99.148438 C 47.75 98.683594 48.3125 98.863281 48.78125 98.804688 C 53.972656 98.101562 58.632812 96.074219 62.960938 93.210938 C 66.792969 90.691406 70.515625 88.050781 73.828125 84.871094 C 76.234375 82.558594 78.386719 80.054688 79.824219 77.023438 C 80.867188 74.820312 81.382812 72.449219 81.867188 70.078125 C 82.699219 66.03125 83.257812 61.921875 83.589844 57.796875 C 83.757812 55.785156 83.941406 53.773438 84 51.75 C 84 51.628906 84 51.496094 84.152344 51.433594 C 84.152344 67.125 84.152344 82.800781 84.167969 98.488281 C 84.167969 99.015625 84.074219 99.148438 83.515625 99.148438 C 71.46875 99.148438 59.421875 99.148438 47.371094 99.148438 Z M 47.371094 99.148438 "/>
<path style=" stroke:none;fill-rule:nonzero;fill:rgb(99.607843%,99.607843%,99.607843%);fill-opacity:1;" d="M 84.152344 43.351562 C 83.847656 41.746094 83.53125 40.15625 83.242188 38.550781 C 82.378906 33.765625 81.640625 28.964844 80.941406 24.164062 C 80.777344 22.964844 80.078125 21.886719 79.550781 20.789062 C 76.570312 14.609375 72.316406 9.511719 66.320312 5.984375 C 61.601562 3.195312 56.453125 1.710938 51.097656 0.898438 C 49.75 0.691406 48.402344 0.585938 47.054688 0.421875 C 46.796875 0.390625 46.496094 0.421875 46.3125 0.148438 C 58.722656 0.148438 71.136719 0.148438 83.546875 0.136719 C 84.058594 0.136719 84.167969 0.238281 84.167969 0.75 C 84.152344 14.953125 84.152344 29.144531 84.152344 43.351562 Z M 84.152344 43.351562 "/>
<path style=" stroke:none;fill-rule:nonzero;fill:rgb(99.607843%,99.607843%,99.607843%);fill-opacity:1;" d="M 36.171875 0.148438 C 35.507812 0.691406 34.675781 0.464844 33.933594 0.570312 C 26.304688 1.558594 19.128906 3.75 12.789062 8.191406 C 5.976562 12.960938 1.96875 19.453125 0.710938 27.628906 C 0.542969 28.800781 0.363281 29.953125 0.300781 31.109375 C 0.300781 31.214844 0.273438 31.304688 0.152344 31.351562 C 0.152344 21.164062 0.152344 10.980469 0.136719 0.78125 C 0.136719 0.238281 0.257812 0.136719 0.800781 0.136719 C 12.59375 0.148438 24.382812 0.148438 36.171875 0.148438 Z M 36.171875 0.148438 "/>
<path style=" stroke:none;fill-rule:nonzero;fill:rgb(9.803922%,9.803922%,9.803922%);fill-opacity:1;" d="M 84.152344 49.351562 C 83.820312 48.195312 84.058594 47.023438 84.015625 45.871094 C 84 45.390625 83.894531 44.863281 84.152344 44.398438 C 84.152344 46.050781 84.152344 47.699219 84.152344 49.351562 Z M 84.152344 49.351562 "/>
<path style=" stroke:none;fill-rule:nonzero;fill:rgb(10.196079%,10.196079%,10.196079%);fill-opacity:1;" d="M 0.152344 32.398438 C 0.394531 33.75 0.394531 35.101562 0.152344 36.449219 C 0.152344 35.101562 0.152344 33.75 0.152344 32.398438 Z M 0.152344 32.398438 "/>
<path style=" stroke:none;fill-rule:nonzero;fill:rgb(14.901961%,14.901961%,14.901961%);fill-opacity:1;" d="M 43.136719 99.148438 C 44.042969 98.910156 44.953125 98.910156 45.859375 99.148438 C 44.953125 99.148438 44.042969 99.148438 43.136719 99.148438 Z M 43.136719 99.148438 "/>
<path style=" stroke:none;fill-rule:nonzero;fill:rgb(99.607843%,99.607843%,99.607843%);fill-opacity:1;" d="M 70.96875 59.578125 C 70.96875 59.851562 71 59.953125 70.96875 60.03125 C 69.726562 62.925781 68.289062 65.683594 66.050781 67.949219 C 64.839844 69.164062 63.402344 69.898438 61.691406 70.171875 C 58.238281 70.695312 54.773438 70.84375 51.292969 70.980469 C 45.496094 71.191406 39.699219 71.429688 33.902344 71.25 C 30.558594 71.144531 27.214844 71.011719 23.898438 70.410156 C 22.445312 70.15625 21.265625 69.480469 20.234375 68.460938 C 17.679688 65.941406 15.664062 63 13.757812 60 C 13.394531 59.429688 13.015625 59.28125 12.257812 59.519531 C 18.753906 68.878906 25.109375 78.269531 34.21875 85.589844 C 34.207031 84.960938 33.8125 84.734375 33.539062 84.433594 C 30.953125 81.675781 28.226562 79.019531 25.773438 76.125 C 24.777344 74.941406 23.792969 73.726562 23.019531 72.375 C 22.839844 72.058594 22.613281 71.761719 22.582031 71.28125 C 24.761719 71.804688 26.925781 72.074219 29.105469 72.269531 C 32.085938 72.539062 35.082031 72.796875 38.078125 72.886719 C 38.640625 72.898438 39.09375 73.035156 39.53125 73.394531 C 40.53125 74.25 41.5625 75.046875 42.4375 76.003906 C 42.816406 76.410156 42.863281 76.753906 42.589844 77.265625 C 41.699219 79.003906 40.972656 80.804688 41.363281 82.800781 C 42.179688 86.894531 43.121094 90.945312 44.511719 94.890625 C 44.84375 95.863281 45.027344 96.074219 45.753906 96.75 C 43.847656 96.855469 42.03125 96.796875 40.230469 96.496094 C 37.488281 96.046875 34.917969 95.144531 32.527344 93.765625 C 28.46875 91.425781 24.277344 89.355469 20.296875 86.878906 C 16.648438 84.601562 13.242188 82.050781 10.5625 78.660156 C 8.128906 75.570312 6.902344 71.96875 5.976562 68.234375 C 4.753906 63.328125 3.949219 58.351562 3.496094 53.324219 C 3.027344 48.03125 2.511719 42.734375 2.226562 37.425781 C 1.847656 30.496094 2.832031 23.804688 6.675781 17.789062 C 9.550781 13.246094 13.621094 9.960938 18.417969 7.515625 C 24.5625 4.378906 31.164062 2.894531 38.035156 2.503906 C 44.453125 2.144531 50.761719 2.746094 56.953125 4.484375 C 66.625 7.199219 73.496094 13.183594 77.871094 22.125 C 79.050781 24.539062 79.414062 27.058594 79.777344 29.609375 C 80.414062 33.886719 81.15625 38.128906 81.941406 42.375 C 82.304688 44.398438 82.199219 46.453125 82.183594 48.511719 C 82.136719 51.703125 81.910156 54.898438 81.652344 58.078125 C 81.609375 58.574219 81.457031 58.980469 81.167969 59.386719 C 79.714844 61.394531 78.292969 63.421875 76.839844 65.445312 C 76.703125 65.625 76.613281 65.878906 76.21875 66.03125 C 76.476562 65.429688 76.691406 64.933594 76.902344 64.441406 C 78.824219 59.984375 79.519531 55.289062 79.714844 50.488281 C 79.746094 49.726562 79.929688 48.945312 79.277344 48.253906 C 78.507812 51.601562 76.023438 53.535156 73.464844 55.425781 C 72.84375 55.875 72.210938 55.875 71.527344 55.753906 C 69.242188 55.378906 67.15625 54.40625 65.113281 53.386719 C 62.328125 52.019531 59.679688 50.445312 57.042969 48.796875 C 56.757812 48.613281 56.558594 48.359375 56.378906 48.105469 C 55.273438 46.558594 53.804688 45.449219 52.230469 44.429688 C 52.1875 44.398438 52.09375 44.414062 51.945312 44.398438 C 52.867188 45.34375 53.761719 46.199219 54.488281 47.203125 C 55.167969 48.148438 55.667969 49.171875 55.878906 50.324219 C 56.210938 52.171875 55.410156 53.683594 53.699219 54.511719 C 52.804688 54.945312 51.824219 55.019531 50.808594 55.230469 C 54.078125 55.890625 56.664062 54.136719 57.105469 51 C 57.164062 50.59375 57.257812 50.460938 57.648438 50.714844 C 60.917969 52.710938 64.1875 54.691406 67.457031 56.65625 C 67.761719 56.835938 67.804688 57 67.609375 57.300781 C 66.078125 59.746094 64.128906 61.378906 60.980469 61.199219 C 59.4375 61.109375 57.921875 60.988281 56.410156 60.734375 C 54.984375 60.496094 53.820312 59.773438 52.777344 58.84375 C 51.703125 57.886719 50.734375 56.851562 49.871094 55.695312 C 49.460938 55.140625 49.644531 54.914062 50.234375 54.796875 C 50.929688 54.644531 51.609375 54.523438 52.308594 54.34375 C 52.640625 54.253906 52.988281 54.136719 53.289062 53.96875 C 53.851562 53.671875 54.167969 53.203125 54.046875 52.558594 C 53.910156 51.886719 53.382812 51.660156 52.746094 51.628906 C 51.550781 51.585938 50.398438 51.945312 49.886719 52.980469 C 48.824219 55.125 46.964844 55.363281 44.9375 55.394531 C 44.148438 55.410156 43.378906 55.363281 42.589844 55.289062 C 41.710938 55.214844 41.046875 54.734375 40.441406 54.148438 C 39.183594 52.933594 37.703125 52.109375 35.960938 51.839844 C 35.039062 51.691406 34.296875 51.976562 34.085938 52.574219 C 33.855469 53.203125 34.191406 53.894531 34.976562 54.375 C 35.671875 54.808594 36.460938 55.09375 37.261719 55.453125 C 33.238281 55.980469 30.753906 53.835938 30.890625 50.476562 C 30.953125 48.886719 31.84375 47.609375 32.828125 46.410156 C 33.160156 46.003906 33.523438 45.613281 33.871094 45.210938 C 33.601562 45.046875 33.492188 45.285156 33.359375 45.375 C 32.011719 46.320312 31.011719 47.566406 30.253906 49.003906 C 30.105469 49.289062 29.953125 49.558594 29.632812 49.738281 C 24.820312 52.394531 19.933594 54.855469 14.636719 56.429688 C 14.515625 56.460938 14.378906 56.476562 14.273438 56.535156 C 12.472656 57.359375 10.988281 56.820312 9.609375 55.558594 C 8.871094 54.886719 8.066406 54.269531 7.386719 53.519531 C 7.296875 53.429688 7.203125 53.355469 6.960938 53.386719 C 7.128906 53.609375 7.265625 53.820312 7.417969 54.015625 C 8.535156 55.441406 9.777344 56.746094 11.277344 57.796875 C 11.804688 58.15625 12.351562 58.46875 13.03125 58.273438 C 13.441406 58.15625 13.621094 58.410156 13.847656 58.648438 C 15.710938 60.660156 17.570312 62.65625 19.601562 64.5 C 19.84375 64.726562 20.097656 64.921875 20.328125 65.160156 C 21.386719 66.253906 22.703125 66.601562 24.1875 66.390625 C 25.335938 66.226562 26.441406 66.554688 27.578125 66.601562 C 31.253906 66.765625 34.933594 66.570312 38.609375 66.496094 C 45.042969 66.359375 51.472656 66.300781 57.890625 66.195312 C 60.207031 66.148438 62.523438 66.015625 64.839844 66.105469 C 65.398438 66.121094 65.714844 65.746094 66.035156 65.414062 C 67.546875 63.914062 68.851562 62.21875 70.167969 60.539062 C 70.410156 60.269531 70.636719 59.984375 70.96875 59.578125 Z M 70.96875 59.578125 "/>
<path style=" stroke:none;fill-rule:nonzero;fill:rgb(99.607843%,99.607843%,99.607843%);fill-opacity:1;" d="M 46.449219 96.703125 C 47.628906 95.386719 47.992188 93.765625 48.476562 92.203125 C 49.324219 89.503906 49.886719 86.746094 50.097656 83.925781 C 50.277344 81.511719 49.792969 79.261719 48.628906 77.144531 C 48.417969 76.753906 48.433594 76.5 48.691406 76.140625 C 49.566406 74.941406 50.398438 73.726562 51.339844 72.585938 C 51.59375 72.269531 51.882812 72.121094 52.292969 72.089844 C 55.804688 71.804688 59.328125 71.535156 62.78125 70.816406 C 63.644531 70.636719 64.476562 70.394531 65.339844 70.035156 C 65.414062 70.46875 65.171875 70.753906 65.019531 71.039062 C 63.671875 73.53125 62.007812 75.824219 60.511719 78.238281 C 59.753906 79.453125 58.996094 80.65625 58.480469 82.003906 C 58.390625 82.246094 58.195312 82.484375 58.359375 82.875 C 58.859375 82.199219 59.316406 81.585938 59.769531 80.96875 C 63.824219 75.210938 67.820312 69.40625 71.390625 63.34375 C 72.226562 61.949219 73.011719 60.523438 73.617188 59.011719 C 73.664062 58.890625 73.707031 58.769531 73.785156 58.664062 C 75.449219 56.324219 77.113281 53.96875 78.855469 51.523438 C 79.1875 52.648438 78.976562 53.699219 78.808594 54.734375 C 77.824219 60.480469 75.601562 65.746094 72.300781 70.558594 C 68.820312 75.601562 65.082031 80.476562 61.449219 85.441406 C 61.144531 85.84375 60.84375 86.265625 60.648438 86.746094 C 68.015625 78.660156 74.3125 69.75 81.320312 61.15625 C 81.125 62.578125 80.941406 63.824219 80.761719 65.070312 C 80.429688 67.363281 79.929688 69.628906 79.398438 71.894531 C 78.519531 75.765625 76.507812 78.988281 73.769531 81.824219 C 68.851562 86.894531 63.128906 90.929688 56.816406 94.125 C 53.746094 95.671875 50.386719 96.421875 46.949219 96.71875 C 46.796875 96.71875 46.660156 96.703125 46.449219 96.703125 Z M 46.449219 96.703125 "/>
<path style=" stroke:none;fill-rule:nonzero;fill:rgb(99.607843%,99.607843%,99.607843%);fill-opacity:1;" d="M 37.609375 55.769531 C 36.640625 57.855469 35.660156 59.746094 33.386719 60.523438 C 30.542969 61.515625 27.589844 61.980469 24.578125 62.160156 C 24.171875 62.191406 23.792969 62.085938 23.445312 61.816406 C 21.960938 60.628906 20.71875 59.21875 19.449219 57.839844 C 19.039062 57.40625 19.554688 57.34375 19.734375 57.226562 C 22.292969 55.636719 24.867188 54.058594 27.441406 52.46875 C 28.015625 52.109375 28.605469 51.765625 29.179688 51.40625 C 29.5 51.195312 29.589844 51.285156 29.664062 51.628906 C 30.253906 54.375 32.175781 55.90625 35.023438 55.949219 C 35.855469 55.964844 36.671875 55.84375 37.609375 55.769531 Z M 37.609375 55.769531 "/>
<path style=" stroke:none;fill-rule:nonzero;fill:rgb(99.607843%,99.607843%,99.607843%);fill-opacity:1;" d="M 51.15625 64.769531 C 46.675781 65.011719 42.210938 64.933594 37.671875 64.949219 C 39.578125 63.554688 40.910156 61.726562 42.589844 60.238281 C 43.074219 59.804688 43.574219 59.386719 44.027344 58.921875 C 44.511719 58.425781 44.90625 58.515625 45.375 58.964844 C 46.660156 60.238281 47.78125 61.664062 48.8125 63.136719 C 49.324219 63.855469 49.914062 64.335938 50.761719 64.53125 C 50.914062 64.558594 51.082031 64.546875 51.15625 64.769531 Z M 51.15625 64.769531 "/>
<path style=" stroke:none;fill-rule:nonzero;fill:rgb(0.392157%,0.392157%,0.392157%);fill-opacity:1;" d="M 52.214844 20.851562 C 51.382812 21.210938 50.566406 21.585938 49.734375 21.945312 C 48.855469 22.335938 48.113281 22.003906 47.886719 21.074219 C 47.675781 20.234375 47.886719 19.5 48.582031 18.929688 C 51.808594 16.273438 55.484375 14.566406 59.617188 13.800781 C 60.859375 13.574219 62.113281 13.484375 63.386719 13.53125 C 64.613281 13.574219 65.824219 13.710938 67.09375 14.101562 C 66.898438 13.621094 66.503906 13.605469 66.214844 13.53125 C 62.703125 12.539062 59.238281 12.78125 55.820312 13.980469 C 52.609375 15.121094 49.839844 16.949219 47.25 19.09375 C 47.085938 19.230469 46.964844 19.453125 46.539062 19.289062 C 46.902344 18.976562 47.265625 18.675781 47.628906 18.359375 C 48.007812 18.03125 48.355469 17.671875 48.734375 17.339844 C 51.808594 14.640625 55.242188 12.585938 59.34375 11.910156 C 63.175781 11.28125 66.898438 11.578125 70.210938 13.859375 C 71.453125 14.714844 72.347656 15.871094 73.101562 17.175781 C 74.027344 18.765625 74.738281 20.371094 74.828125 22.273438 C 74.917969 24.105469 75.507812 25.816406 76.460938 27.433594 C 78.082031 30.210938 76.78125 33.75 73.707031 35.023438 C 74.964844 35.761719 76.128906 36.511719 77.054688 37.589844 C 77.945312 38.640625 78.671875 39.796875 78.992188 41.191406 C 77.492188 38.414062 75.3125 36.523438 72.179688 35.851562 C 75.023438 37.078125 77.113281 39.074219 78.355469 41.910156 C 78.871094 43.078125 79.261719 44.296875 79.351562 45.71875 C 79.097656 45.40625 79.082031 45.164062 79.003906 44.941406 C 78.265625 42.34375 76.992188 40.078125 74.738281 38.488281 C 72.84375 37.15625 70.785156 36.703125 68.457031 37.273438 C 62.933594 38.640625 57.484375 38.519531 52.171875 36.285156 C 51.339844 35.925781 50.519531 35.519531 49.855469 34.890625 C 48.75 33.855469 48.660156 32.640625 49.6875 31.515625 C 50.976562 30.105469 52.671875 29.308594 54.367188 28.546875 C 56.894531 27.421875 59.558594 26.835938 62.355469 26.804688 C 64.265625 26.773438 65.835938 27.421875 67.230469 28.679688 C 68.199219 29.566406 69.03125 30.570312 69.847656 31.589844 C 70.257812 32.101562 70.664062 32.609375 71.105469 33.089844 C 72.300781 34.410156 73.828125 34.425781 75.101562 33.164062 C 76.386719 31.875 76.78125 29.28125 75.855469 27.554688 C 75.085938 26.128906 74.765625 24.613281 74.648438 23.039062 C 74.617188 22.726562 74.570312 22.46875 74.296875 22.261719 C 73.390625 21.511719 72.527344 20.683594 71.574219 20.011719 C 68.878906 18.074219 65.898438 17.414062 62.628906 18.179688 C 58.980469 19.035156 55.589844 20.476562 52.550781 22.636719 C 51.550781 23.339844 50.429688 23.789062 49.355469 24.328125 C 47.628906 25.214844 46.570312 26.609375 46.132812 28.453125 C 45.859375 29.65625 46.191406 30.839844 46.3125 32.023438 C 46.660156 35.550781 47.070312 39.074219 47.449219 42.601562 C 47.523438 43.304688 47.691406 43.996094 47.402344 44.730469 C 47.3125 44.160156 47.207031 43.574219 47.128906 43.003906 C 46.554688 38.371094 45.964844 33.75 45.300781 29.128906 C 44.9375 26.625 45.964844 24.613281 48.207031 23.371094 C 49.660156 22.558594 51.125 21.808594 52.59375 21.03125 C 52.972656 20.535156 53.59375 20.429688 54.03125 20.191406 C 53.425781 20.371094 52.898438 20.820312 52.214844 20.851562 Z M 52.214844 20.851562 "/>
<path style=" stroke:none;fill-rule:nonzero;fill:rgb(0.392157%,0.392157%,0.392157%);fill-opacity:1;" d="M 35.234375 19.066406 C 32.648438 17.21875 29.953125 15.585938 26.878906 14.640625 C 22.6875 13.363281 18.570312 13.15625 14.589844 15.390625 C 13.894531 15.78125 13.226562 16.214844 12.59375 16.738281 C 12.835938 16.859375 13.015625 16.785156 13.199219 16.679688 C 18.191406 14.011719 23.171875 14.488281 28.152344 16.738281 C 30.496094 17.804688 32.722656 19.050781 34.839844 20.519531 C 35.71875 21.136719 35.839844 21.539062 35.429688 22.453125 C 35.054688 23.324219 34.3125 23.699219 33.417969 23.488281 C 32.722656 23.324219 32.101562 22.996094 31.511719 22.589844 C 29.921875 21.523438 28.300781 20.503906 26.53125 19.785156 C 25.230469 19.246094 23.867188 18.871094 22.519531 18.496094 C 22.234375 18.421875 21.945312 18.390625 21.613281 18.496094 C 26.394531 20.25 30.617188 22.980469 35.054688 25.304688 C 37.65625 26.671875 39.15625 28.800781 39.261719 31.84375 C 39.351562 34.410156 39.640625 36.976562 39.835938 39.539062 C 39.835938 39.960938 40.09375 40.410156 39.683594 40.785156 C 39.277344 37.425781 38.867188 34.050781 38.457031 30.691406 C 38.320312 29.578125 37.609375 28.859375 36.777344 28.214844 C 35.976562 27.601562 35.144531 27.046875 34.234375 26.59375 C 31.542969 25.273438 29.058594 23.609375 26.59375 21.914062 C 23.988281 20.113281 21.113281 18.976562 17.90625 18.71875 C 14.589844 18.449219 11.882812 19.589844 9.703125 22.050781 C 9.234375 22.574219 8.808594 23.128906 8.339844 23.65625 C 8.007812 24.015625 7.597656 24.316406 7.082031 24.046875 C 6.613281 23.789062 6.597656 23.324219 6.675781 22.859375 C 6.8125 22.019531 7.203125 21.285156 7.644531 20.59375 C 10.292969 16.558594 13.820312 13.769531 18.722656 12.976562 C 20.78125 12.644531 22.839844 12.855469 24.867188 13.320312 C 28.878906 14.265625 32.34375 16.230469 35.417969 18.914062 C 35.429688 19.050781 35.386719 19.125 35.234375 19.066406 Z M 35.234375 19.066406 "/>
<path style=" stroke:none;fill-rule:nonzero;fill:rgb(0.784314%,0.784314%,0.784314%);fill-opacity:1;" d="M 6.234375 42.390625 C 7.78125 40.484375 9.703125 39.089844 11.882812 37.679688 C 8.976562 37.46875 7.613281 39.703125 5.707031 40.949219 C 6.507812 39.734375 7.566406 38.746094 8.628906 37.695312 C 6.023438 36.945312 5.84375 34.679688 5.480469 32.671875 C 4.875 29.21875 5.101562 25.753906 5.570312 22.289062 C 5.570312 22.246094 5.613281 22.214844 5.644531 22.171875 C 5.84375 22.230469 5.75 22.394531 5.765625 22.515625 C 5.78125 22.636719 5.765625 22.769531 5.765625 22.890625 C 5.675781 25.636719 5.691406 28.378906 6.039062 31.125 C 6.21875 32.550781 6.613281 33.914062 7.144531 35.234375 C 7.492188 36.105469 8.113281 36.628906 9.082031 36.675781 C 10.867188 36.75 12.351562 36.238281 13.320312 34.636719 C 14.058594 33.421875 14.785156 32.191406 15.726562 31.09375 C 18.042969 28.394531 21.054688 27.480469 24.519531 27.703125 C 26.730469 27.839844 28.847656 28.335938 30.921875 29.070312 C 32.3125 29.566406 33.554688 30.328125 34.582031 31.394531 C 36.15625 33.046875 35.929688 34.769531 33.949219 35.925781 C 32.253906 36.914062 30.347656 37.320312 28.4375 37.695312 C 25.304688 38.308594 22.15625 38.863281 18.917969 38.699219 C 17.328125 38.625 15.753906 38.476562 14.226562 38.039062 C 13.742188 37.90625 13.320312 37.949219 12.863281 38.191406 C 10.640625 39.375 8.386719 40.515625 6.628906 42.359375 C 6.539062 42.433594 6.417969 42.464844 6.234375 42.390625 Z M 6.234375 42.390625 "/>
<path style=" stroke:none;fill-rule:nonzero;fill:rgb(1.176471%,1.176471%,1.176471%);fill-opacity:1;" d="M 9.898438 70.695312 C 11.367188 71.085938 24.457031 84.179688 25.078125 85.890625 C 22.476562 84.269531 11.398438 73.171875 9.898438 70.695312 Z M 9.898438 70.695312 "/>
<path style=" stroke:none;fill-rule:nonzero;fill:rgb(13.333334%,13.333334%,13.333334%);fill-opacity:1;" d="M 39.683594 40.800781 C 39.894531 40.394531 39.746094 39.960938 39.835938 39.554688 C 40.046875 40.921875 40.214844 42.285156 39.972656 43.679688 C 39.867188 42.703125 39.773438 41.746094 39.683594 40.800781 Z M 39.683594 40.800781 "/>
<path style=" stroke:none;fill-rule:nonzero;fill:rgb(86.666667%,86.666667%,86.666667%);fill-opacity:1;" d="M 52.214844 20.851562 C 52.988281 20.386719 53.820312 20.085938 54.636719 19.769531 C 54.667969 19.828125 54.699219 19.890625 54.730469 19.949219 C 54.003906 20.308594 53.277344 20.683594 52.535156 21.046875 C 52.429688 20.96875 52.320312 20.910156 52.214844 20.851562 Z M 52.214844 20.851562 "/>
<path style=" stroke:none;fill-rule:nonzero;fill:rgb(16.078432%,16.078432%,16.078432%);fill-opacity:1;" d="M 35.234375 19.066406 C 35.296875 19.003906 35.355469 18.960938 35.417969 18.898438 C 35.792969 19.125 36.128906 19.394531 36.507812 19.933594 C 35.871094 19.710938 35.566406 19.363281 35.234375 19.066406 Z M 35.234375 19.066406 "/>
<path style=" stroke:none;fill-rule:nonzero;fill:rgb(99.215686%,99.215686%,99.215686%);fill-opacity:1;" d="M 62.8125 37.320312 C 58.601562 37.289062 55.273438 36.675781 52.15625 35.101562 C 51.566406 34.800781 51.003906 34.484375 50.550781 33.988281 C 50.023438 33.421875 49.992188 32.96875 50.519531 32.398438 C 50.839844 32.054688 51.203125 31.738281 51.609375 31.46875 C 54.820312 29.386719 58.332031 28.230469 62.175781 28.066406 C 64.128906 27.988281 65.65625 28.753906 66.914062 30.136719 C 67.761719 31.078125 68.546875 32.101562 69.304688 33.136719 C 70.257812 34.453125 69.847656 35.683594 68.335938 36.285156 C 66.308594 37.109375 64.203125 37.246094 62.8125 37.320312 Z M 62.8125 37.320312 "/>
<path style=" stroke:none;fill-rule:nonzero;fill:rgb(99.215686%,99.215686%,99.215686%);fill-opacity:1;" d="M 20.976562 37.921875 C 18.222656 37.90625 16.042969 37.558594 14.015625 36.570312 C 13.621094 36.375 13.578125 36.269531 13.847656 35.894531 C 14.621094 34.84375 15.316406 33.734375 16.074219 32.683594 C 18.054688 29.910156 20.8125 28.769531 24.171875 28.933594 C 26.378906 29.039062 28.515625 29.519531 30.589844 30.238281 C 31.738281 30.644531 32.78125 31.261719 33.660156 32.113281 C 34.796875 33.238281 34.691406 34.199219 33.328125 35.023438 C 32.027344 35.820312 30.558594 36.195312 29.105469 36.601562 C 26.257812 37.351562 23.382812 37.84375 20.976562 37.921875 Z M 20.976562 37.921875 "/>
<path style=" stroke:none;fill-rule:nonzero;fill:rgb(0.392157%,0.392157%,0.392157%);fill-opacity:1;" d="M 60.753906 35.25 C 57.890625 35.308594 55.0625 35.085938 52.414062 33.871094 C 52.003906 33.691406 51.472656 33.554688 51.519531 32.984375 C 51.550781 32.488281 52.019531 32.371094 52.414062 32.191406 C 53.382812 31.753906 54.320312 31.273438 55.273438 30.824219 C 56.90625 30.058594 58.617188 29.578125 60.417969 29.445312 C 62.691406 29.28125 64.703125 29.863281 66.414062 31.410156 C 67.078125 32.023438 67.683594 32.683594 68.230469 33.421875 C 68.683594 34.019531 68.652344 34.199219 67.925781 34.5 C 66.578125 35.054688 65.125 35.113281 63.703125 35.234375 C 62.71875 35.324219 61.722656 35.25 60.753906 35.25 Z M 60.753906 35.25 "/>
<path style=" stroke:none;fill-rule:nonzero;fill:rgb(0.392157%,0.392157%,0.392157%);fill-opacity:1;" d="M 20.160156 36.71875 C 18.570312 36.601562 17.101562 36.613281 15.679688 36.179688 C 15.136719 36.015625 15.042969 35.804688 15.332031 35.28125 C 16.980469 32.234375 19.691406 31.019531 23.003906 30.734375 C 26.410156 30.449219 29.453125 31.515625 32.375 33.105469 C 32.933594 33.421875 32.738281 33.808594 32.417969 34.15625 C 31.964844 34.648438 31.34375 34.890625 30.722656 35.101562 C 28.53125 35.878906 26.230469 36.179688 23.929688 36.433594 C 22.640625 36.585938 21.324219 36.628906 20.160156 36.71875 Z M 20.160156 36.71875 "/>
</g>
</svg>
