<?xml version="1.0" encoding="UTF-8"?>
<svg xmlns="http://www.w3.org/2000/svg" xmlns:xlink="http://www.w3.org/1999/xlink" width="78px" height="99px" viewBox="0 0 78 99" version="1.1">
<g id="surface1">
<path style=" stroke:none;fill-rule:nonzero;fill:rgb(99.607843%,99.607843%,99.607843%);fill-opacity:1;" d="M 0.234375 96.222656 C 0.234375 64.582031 0.234375 32.914062 0.210938 1.273438 C 0.210938 0.417969 0.398438 0.207031 1.285156 0.207031 C 21.25 0.230469 41.21875 0.230469 61.1875 0.230469 C 62.074219 3.515625 64.710938 5.644531 66.671875 8.1875 C 67.28125 8.976562 67.933594 9.714844 68.449219 10.59375 C 68.796875 11.195312 69.195312 11.75 69.828125 12.097656 C 72.652344 15.683594 72 19.359375 70.011719 23.015625 C 69.429688 24.054688 68.890625 25.121094 68.308594 26.183594 C 67.609375 26.484375 67.5625 27.226562 67.210938 27.78125 C 65.597656 30.253906 63.964844 32.730469 61.957031 34.90625 C 60.90625 36.222656 59.855469 37.496094 58.59375 38.628906 C 58.21875 38.953125 57.871094 39.300781 57.378906 39.484375 C 56.820312 39.785156 56.46875 40.457031 55.722656 40.410156 C 54.761719 40.292969 54.015625 41.171875 53.035156 40.964844 C 51.796875 41.21875 50.558594 41.472656 49.414062 42.050781 C 48.457031 41.890625 47.710938 42.46875 46.894531 42.722656 C 46.425781 42.863281 46.007812 43.207031 45.492188 43.230469 C 44.136719 43.671875 43.0625 44.621094 41.800781 45.222656 C 41.5 45.359375 41.21875 45.589844 40.890625 45.707031 C 39.492188 46.839844 38.113281 47.996094 36.804688 49.269531 C 35.730469 50.171875 34.890625 51.28125 34.140625 52.4375 C 32.882812 53.917969 32.0625 55.652344 31.152344 57.339844 C 30.640625 58.289062 30.03125 59.097656 28.910156 59.375 C 27.324219 60.371094 25.875 61.503906 24.589844 62.871094 C 23.285156 64.1875 22.511719 65.851562 21.648438 67.472656 C 21.273438 68.074219 21.066406 68.746094 20.996094 69.4375 C 20.878906 70.410156 20.339844 70.917969 19.40625 71.171875 C 17.867188 71.613281 16.394531 72.214844 15.039062 73.070312 C 14.246094 73.578125 13.589844 73.417969 12.960938 72.792969 C 12.285156 72.121094 11.605469 71.40625 10.789062 70.871094 C 9.832031 70.273438 9.363281 70.503906 9.222656 71.589844 C 8.851562 74.296875 9.109375 76.957031 9.855469 79.59375 C 10.089844 80.449219 10.160156 81.257812 9.925781 82.089844 C 9.410156 83.894531 9.644531 85.5625 10.671875 87.15625 C 11.417969 88.335938 11.328125 88.636719 10.367188 89.679688 C 8.5 91.738281 6.28125 93.332031 3.738281 94.488281 C 2.824219 94.90625 1.867188 95.300781 1.191406 96.0625 C 0.910156 96.316406 0.605469 96.433594 0.234375 96.222656 Z M 0.234375 96.222656 "/>
<path style=" stroke:none;fill-rule:nonzero;fill:rgb(99.607843%,99.607843%,99.607843%);fill-opacity:1;" d="M 78.234375 19.890625 C 78.234375 46.03125 78.234375 72.167969 78.257812 98.304688 C 78.257812 99.09375 78.09375 99.253906 77.300781 99.253906 C 52.707031 99.230469 28.09375 99.230469 3.503906 99.230469 C 3.339844 98.558594 3.898438 98.46875 4.320312 98.351562 C 7.753906 97.265625 10.53125 95.277344 12.609375 92.339844 C 13.148438 91.574219 13.730469 91.4375 14.597656 91.921875 C 17.210938 93.378906 18.285156 93.21875 20.410156 91.042969 C 20.667969 90.789062 20.949219 90.601562 21.226562 90.417969 C 22.441406 89.746094 23.773438 89.308594 25.082031 88.867188 C 25.570312 88.707031 26.015625 88.523438 26.390625 88.152344 C 27.183594 87.410156 27.953125 86.625 28.492188 85.699219 C 29.285156 84.335938 30.523438 83.894531 32.015625 83.964844 C 33 84.082031 33.980469 83.917969 34.984375 83.847656 C 35.101562 83.847656 35.214844 83.894531 35.332031 83.964844 C 35.425781 84.035156 35.496094 84.125 35.542969 84.242188 C 35.753906 84.890625 35.332031 85.351562 34.984375 85.792969 C 34.304688 86.625 33.652344 87.480469 33.023438 88.359375 C 32.109375 89.632812 31.992188 90.347656 32.554688 90.949219 C 33.207031 91.644531 34.890625 91.921875 35.824219 91.4375 C 36.175781 91.273438 36.523438 91.089844 36.851562 90.882812 C 38.625 89.125 39.46875 86.808594 40.519531 84.636719 C 40.890625 83.824219 41.570312 83.085938 41.40625 82.089844 C 42.269531 80.773438 42.761719 79.246094 43.367188 77.8125 C 43.859375 76.609375 44.675781 75.570312 45.046875 74.320312 C 45.65625 73.023438 46.519531 71.9375 47.875 71.359375 C 48.316406 71.171875 48.667969 70.941406 48.878906 70.503906 C 49.4375 70.109375 50 69.714844 50.535156 69.277344 C 51.84375 68.191406 51.820312 68.191406 52.941406 69.324219 C 53.710938 70.339844 53.96875 71.683594 55.089844 72.46875 C 55.183594 72.539062 55.277344 72.609375 55.347656 72.675781 C 55.535156 73.140625 55.8125 73.53125 56.1875 73.855469 C 56.632812 74.320312 56.398438 74.78125 56.1875 75.246094 C 55.371094 76.957031 54.507812 78.621094 53.640625 80.308594 C 53.058594 81.421875 51.75 81.90625 51.144531 83.015625 C 51.003906 83.246094 50.792969 83.433594 50.628906 83.640625 C 50.164062 84.3125 49.671875 85.027344 50.257812 85.863281 C 50.839844 86.671875 51.726562 86.808594 52.660156 86.695312 C 53.199219 86.625 53.734375 86.417969 54.132812 86.023438 C 55.089844 85.027344 55.953125 83.941406 56.585938 82.691406 C 58.289062 80.632812 59.574219 78.296875 61.046875 76.078125 C 61.535156 75.335938 62.074219 74.621094 62.421875 73.808594 C 62.984375 72.585938 62.726562 71.796875 61.582031 71.058594 C 61.1875 70.804688 60.765625 70.617188 60.34375 70.410156 C 58.195312 69.277344 57.753906 67.84375 58.96875 65.761719 C 59.785156 64.328125 60.695312 62.9375 61.511719 61.480469 C 62.445312 59.792969 63.359375 58.105469 63.917969 56.230469 C 64.945312 52.855469 64.199219 49.777344 62.445312 46.816406 C 62.214844 46.421875 61.933594 46.03125 61.675781 45.660156 C 60.578125 44.085938 60.601562 44.085938 61.933594 42.699219 C 62.167969 42.445312 62.304688 42.144531 62.328125 41.796875 C 64.476562 39.4375 66.417969 36.917969 68.589844 34.582031 C 70.269531 32.476562 72.023438 30.441406 73.632812 28.265625 C 75.269531 26.089844 76.597656 23.777344 77.230469 21.09375 C 77.300781 20.539062 77.300781 19.777344 78.234375 19.890625 Z M 78.234375 19.890625 "/>
<path style=" stroke:none;fill-rule:nonzero;fill:rgb(0.392157%,0.392157%,0.392157%);fill-opacity:1;" d="M 21.484375 90.859375 C 20.925781 91.367188 20.386719 91.898438 19.804688 92.382812 C 18.074219 93.84375 16.675781 93.957031 14.621094 92.570312 C 13.730469 91.96875 13.429688 92.175781 12.84375 92.941406 C 10.554688 95.992188 7.636719 98.191406 3.785156 99.023438 C 3.691406 99.046875 3.621094 99.160156 3.527344 99.230469 C 3.128906 99.230469 2.753906 99.230469 2.359375 99.230469 C 1.191406 99.140625 0.351562 98.675781 0.257812 97.378906 C 0.257812 96.988281 0.257812 96.617188 0.257812 96.222656 C 1.144531 94.976562 2.453125 94.398438 3.804688 93.796875 C 6.257812 92.664062 8.429688 91.113281 10.207031 89.054688 C 10.578125 88.613281 10.882812 88.246094 10.414062 87.664062 C 8.96875 85.839844 8.851562 83.78125 9.480469 81.628906 C 9.644531 81.074219 9.621094 80.609375 9.457031 80.054688 C 8.429688 77.003906 8.40625 73.832031 8.757812 70.6875 C 8.921875 69.253906 9.269531 69.113281 10.554688 69.878906 C 11.699219 70.550781 12.632812 71.496094 13.542969 72.445312 C 13.964844 72.910156 14.292969 72.929688 14.804688 72.5625 C 16.207031 71.566406 17.820312 70.941406 19.476562 70.503906 C 20.199219 70.316406 20.574219 70.015625 20.667969 69.207031 C 20.738281 68.492188 20.878906 67.703125 21.367188 67.054688 C 22.023438 67.054688 22.140625 67.496094 22.046875 68.003906 C 21.296875 73.070312 21.859375 78.183594 21.648438 83.269531 C 21.625 83.617188 21.578125 83.964844 21.53125 84.289062 C 21.554688 85.304688 21.042969 85.90625 20.039062 86.164062 C 20.503906 86.183594 21.019531 85.90625 21.414062 86.347656 C 21.601562 86.507812 21.765625 86.695312 21.742188 86.925781 C 21.507812 88.265625 21.742188 89.585938 21.484375 90.859375 Z M 21.484375 90.859375 "/>
<path style=" stroke:none;fill-rule:nonzero;fill:rgb(18.039216%,18.039216%,18.039216%);fill-opacity:1;" d="M 78.234375 19.890625 C 78.140625 20.007812 77.976562 20.101562 77.953125 20.238281 C 77.207031 24.589844 74.636719 27.964844 71.953125 31.25 C 70.949219 32.476562 69.917969 33.65625 68.890625 34.859375 C 67.839844 34.925781 67.398438 34.394531 67.421875 33.402344 C 67.445312 30.902344 67.140625 28.382812 67.792969 25.929688 C 68.589844 24.425781 69.40625 22.945312 70.152344 21.417969 C 71.71875 18.226562 71.53125 15.175781 69.335938 12.28125 C 69.3125 11.425781 68.519531 10.964844 68.238281 10.246094 C 68.050781 9.761719 67.910156 9.320312 68.121094 8.8125 C 68.285156 8.417969 68.308594 8.003906 68.332031 7.5625 C 68.425781 5.667969 68.496094 5.574219 70.410156 5.113281 C 70.855469 5.15625 71.226562 5.414062 71.53125 5.691406 C 73.820312 7.726562 75.945312 9.898438 77.300781 12.675781 C 78 14.085938 77.882812 15.636719 78.234375 17.117188 C 78.234375 18.042969 78.234375 18.96875 78.234375 19.890625 Z M 78.234375 19.890625 "/>
<path style=" stroke:none;fill-rule:nonzero;fill:rgb(99.607843%,99.607843%,99.607843%);fill-opacity:1;" d="M 78.234375 17.117188 C 77.976562 17.023438 77.976562 16.769531 77.929688 16.539062 C 77.019531 11.75 74.007812 8.417969 70.292969 5.550781 C 69.382812 5.414062 68.683594 4.925781 67.957031 4.417969 C 66.300781 3.214844 64.546875 2.175781 62.726562 1.25 C 62.328125 1.039062 61.699219 0.925781 61.910156 0.230469 C 67.117188 0.230469 72.347656 0.230469 77.554688 0.207031 C 78.140625 0.207031 78.28125 0.347656 78.28125 0.925781 C 78.234375 6.316406 78.234375 11.726562 78.234375 17.117188 Z M 78.234375 17.117188 "/>
<path style=" stroke:none;fill-rule:nonzero;fill:rgb(16.470589%,16.470589%,16.470589%);fill-opacity:1;" d="M 61.886719 0.230469 C 64.664062 1.503906 67.1875 3.121094 69.617188 4.949219 C 69.851562 5.136719 70.058594 5.367188 70.292969 5.550781 C 69.171875 5.78125 68.753906 6.476562 68.914062 7.5625 C 68.984375 8.074219 68.960938 8.511719 68.707031 8.996094 C 68.332031 9.691406 68.683594 10.316406 69.007812 10.941406 C 69.242188 11.355469 69.710938 11.726562 69.3125 12.28125 C 66.765625 9.160156 64.058594 6.175781 61.699219 2.914062 C 61.371094 2.453125 61.117188 1.917969 60.859375 1.410156 C 60.601562 0.925781 60.742188 0.53125 61.1875 0.230469 C 61.417969 0.230469 61.652344 0.230469 61.886719 0.230469 Z M 61.886719 0.230469 "/>
<path style=" stroke:none;fill-rule:nonzero;fill:rgb(98.431373%,98.431373%,98.431373%);fill-opacity:1;" d="M 0.234375 97.378906 C 0.746094 98.214844 1.425781 98.839844 2.335938 99.230469 C 2.265625 99.230469 2.171875 99.230469 2.101562 99.230469 C 0.234375 99.230469 0.234375 99.230469 0.234375 97.378906 Z M 0.234375 97.378906 "/>
<path style=" stroke:none;fill-rule:nonzero;fill:rgb(14.509805%,14.509805%,14.509805%);fill-opacity:1;" d="M 62.679688 41.890625 C 62.609375 42.5625 62.074219 42.976562 61.675781 43.417969 C 61.207031 43.925781 61.253906 44.296875 61.675781 44.804688 C 62.445312 45.730469 63.078125 46.746094 63.613281 47.8125 C 65.4375 51.417969 65.25 55.027344 63.589844 58.613281 C 62.539062 60.902344 61.1875 63.007812 59.902344 65.160156 C 59.667969 65.554688 59.433594 65.945312 59.222656 66.363281 C 58.429688 68.003906 58.757812 68.90625 60.390625 69.785156 C 60.929688 70.085938 61.511719 70.339844 62.027344 70.664062 C 63.519531 71.589844 63.824219 72.421875 62.960938 73.949219 C 61.140625 77.09375 59.175781 80.125 57.003906 83.039062 C 56.726562 83.246094 56.539062 83.734375 56.046875 83.410156 C 55.628906 83.132812 55.558594 82.714844 55.746094 82.300781 C 56.933594 79.730469 56.257812 77.003906 56.445312 74.34375 C 56.515625 73.441406 56.445312 72.515625 56.445312 71.613281 C 56.421875 61.96875 56.445312 52.300781 56.421875 42.652344 C 56.421875 41.402344 56.585938 40.203125 57.238281 39.113281 C 58.875 37.796875 60.089844 36.105469 61.605469 34.695312 C 62.398438 34.558594 62.585938 35.019531 62.46875 35.621094 C 62.214844 37.054688 62.421875 38.535156 62.144531 39.96875 C 61.980469 40.6875 62.351562 41.289062 62.679688 41.890625 Z M 62.679688 41.890625 "/>
<path style=" stroke:none;fill-rule:nonzero;fill:rgb(7.843138%,7.843138%,7.843138%);fill-opacity:1;" d="M 42.035156 82.367188 C 41.007812 85.121094 39.816406 87.828125 38.136719 90.28125 C 37.855469 90.671875 37.597656 91.136719 37.109375 91.320312 C 36.152344 91.042969 35.871094 90.582031 36.128906 89.679688 C 36.5 88.359375 36.710938 87.042969 35.847656 85.792969 C 35.589844 85.421875 35.636719 84.9375 35.894531 84.589844 C 36.476562 83.710938 36.429688 82.738281 36.429688 81.746094 C 36.429688 71.9375 36.5 62.128906 36.429688 52.320312 C 36.429688 52.160156 36.453125 51.929688 36.382812 51.8125 C 35.894531 50.796875 36.199219 49.824219 36.429688 48.828125 C 37.714844 47.535156 39.070312 46.332031 40.632812 45.359375 C 41.289062 45.105469 41.359375 45.566406 41.40625 46.007812 C 41.476562 46.539062 41.453125 47.09375 41.453125 47.625 C 41.453125 56.601562 41.476562 65.554688 41.429688 74.527344 C 41.429688 76.65625 41.777344 78.738281 41.664062 80.867188 C 41.617188 81.398438 42.035156 81.8125 42.035156 82.367188 Z M 42.035156 82.367188 "/>
<path style=" stroke:none;fill-rule:nonzero;fill:rgb(13.333334%,13.333334%,13.333334%);fill-opacity:1;" d="M 57.214844 39.089844 C 57.285156 39.183594 57.425781 39.300781 57.402344 39.367188 C 56.75 41.589844 56.980469 43.878906 56.980469 46.144531 C 56.957031 54.335938 56.980469 62.546875 56.980469 70.734375 C 56.980469 73.601562 56.980469 76.46875 56.980469 79.363281 C 56.980469 80.402344 56.957031 81.445312 56.328125 82.347656 C 56.164062 82.601562 55.976562 82.945312 56.257812 83.179688 C 56.398438 83.292969 56.75 83.132812 56.980469 83.085938 C 56.375 84.242188 55.558594 85.285156 54.714844 86.277344 C 53.96875 87.15625 52.941406 87.503906 51.796875 87.386719 C 49.414062 87.132812 48.621094 85.375 50.023438 83.480469 C 50.394531 82.992188 50.746094 82.4375 51.238281 82.089844 C 53.710938 80.21875 54.367188 77.234375 55.792969 74.734375 C 55.882812 74.550781 55.8125 74.296875 55.835938 74.066406 C 55.769531 73.464844 55.183594 73.300781 54.832031 72.929688 L 54.855469 72.953125 C 53.128906 70.179688 53.386719 67.078125 53.386719 64.003906 C 53.386719 57.316406 53.410156 50.632812 53.363281 43.925781 C 53.339844 42.027344 54.039062 40.734375 55.8125 40.015625 C 56.28125 39.691406 56.75 39.390625 57.214844 39.089844 Z M 57.214844 39.089844 "/>
<path style=" stroke:none;fill-rule:nonzero;fill:rgb(5.882353%,5.882353%,5.882353%);fill-opacity:1;" d="M 35.03125 84.171875 C 34.027344 84.449219 33.042969 84.683594 31.992188 84.636719 C 31.433594 84.425781 30.851562 84.566406 30.265625 84.496094 C 29.050781 84.335938 28.722656 84.082031 28.65625 82.878906 C 28.585938 81.652344 28.5625 80.425781 28.703125 79.199219 C 28.746094 78.738281 28.769531 78.273438 28.722656 77.835938 C 29.753906 75.246094 29.332031 72.675781 28.421875 70.15625 C 28.351562 69.972656 28.398438 69.785156 28.375 69.601562 C 28.398438 66.523438 28.398438 63.449219 28.375 60.371094 C 28.375 59.863281 28.445312 59.398438 28.679688 58.9375 C 30.78125 58.128906 31.011719 55.90625 32.132812 54.359375 C 32.71875 53.546875 33.113281 52.621094 33.863281 51.953125 C 34.46875 52.089844 34.609375 52.554688 34.65625 53.085938 C 34.703125 53.710938 34.703125 54.3125 34.703125 54.9375 C 34.703125 62.476562 34.703125 70.015625 34.703125 77.535156 C 34.679688 79.753906 34.5625 81.976562 35.03125 84.171875 Z M 35.03125 84.171875 "/>
<path style=" stroke:none;fill-rule:nonzero;fill:rgb(9.411765%,9.411765%,9.411765%);fill-opacity:1;" d="M 42.035156 82.367188 C 41.007812 82.808594 40.867188 82.691406 40.867188 81.628906 C 40.867188 69.761719 40.867188 57.917969 40.890625 46.054688 C 40.890625 45.777344 40.914062 45.5 40.632812 45.335938 C 42.082031 44.320312 43.554688 43.324219 45.28125 42.769531 C 45.914062 42.792969 45.820312 43.230469 45.679688 43.601562 C 45.140625 45.011719 45.1875 46.46875 45.1875 47.925781 C 45.1875 54.9375 45.1875 61.945312 45.1875 68.953125 C 45.1875 69.878906 45.234375 70.804688 45.023438 71.707031 C 44.769531 72.722656 45.398438 73.554688 45.5625 74.480469 C 44.371094 77.117188 43.203125 79.730469 42.035156 82.367188 Z M 42.035156 82.367188 "/>
<path style=" stroke:none;fill-rule:nonzero;fill:rgb(10.588235%,10.588235%,10.588235%);fill-opacity:1;" d="M 45.539062 74.480469 C 44.652344 74.710938 44.324219 74.34375 44.371094 73.488281 C 44.511719 70.964844 44.628906 68.421875 44.628906 65.898438 C 44.605469 58.984375 44.699219 52.066406 44.628906 45.128906 C 44.628906 44.203125 45.375 43.625 45.28125 42.769531 C 46.519531 42.121094 47.828125 41.660156 49.207031 41.359375 C 49.8125 41.3125 49.671875 41.726562 49.601562 42.050781 C 49.320312 43.117188 49.390625 44.203125 49.390625 45.265625 C 49.390625 52.414062 49.390625 59.585938 49.390625 66.734375 C 49.390625 68.144531 49.296875 69.578125 49.277344 70.988281 C 47.898438 72.03125 46.261719 72.792969 45.539062 74.480469 Z M 45.539062 74.480469 "/>
<path style=" stroke:none;fill-rule:nonzero;fill:rgb(12.156863%,12.156863%,12.156863%);fill-opacity:1;" d="M 49.253906 70.988281 C 48.457031 70.871094 48.203125 70.433594 48.503906 69.691406 C 48.808594 68.953125 48.785156 68.191406 48.785156 67.425781 C 48.785156 59.5625 48.785156 51.699219 48.785156 43.832031 C 48.785156 42.976562 48.785156 42.167969 49.183594 41.382812 C 50.375 40.894531 51.632812 40.617188 52.917969 40.480469 C 53.621094 40.269531 53.6875 40.6875 53.550781 41.148438 C 53.246094 42.214844 53.339844 43.300781 53.339844 44.363281 C 53.316406 52.066406 53.339844 59.792969 53.316406 67.496094 C 53.316406 67.957031 53.339844 68.421875 53.246094 68.882812 C 53.175781 69.300781 53.082031 69.738281 52.476562 69.671875 C 52.03125 68.699219 51.609375 68.769531 50.957031 69.554688 C 50.511719 70.085938 49.835938 70.503906 49.253906 70.988281 Z M 49.253906 70.988281 "/>
<path style=" stroke:none;fill-rule:nonzero;fill:rgb(6.666667%,6.666667%,6.666667%);fill-opacity:1;" d="M 35.03125 84.171875 C 34.097656 83.847656 34.097656 83.085938 34.097656 82.277344 C 34.097656 72.929688 34.097656 63.585938 34.097656 54.242188 C 34.097656 53.476562 34.074219 52.714844 33.816406 51.953125 C 34.585938 50.820312 35.425781 49.753906 36.40625 48.804688 C 36.570312 50.171875 36.851562 51.535156 36.851562 52.878906 C 36.898438 62.546875 36.921875 72.214844 36.828125 81.882812 C 36.804688 83.894531 36.105469 85.886719 36.828125 87.921875 C 36.96875 88.335938 36.734375 88.890625 36.617188 89.378906 C 36.429688 90.09375 36.5 90.742188 37.085938 91.296875 C 35.941406 92.429688 34.609375 92.546875 33.160156 92.039062 C 31.433594 91.4375 31.035156 90.535156 31.925781 88.960938 C 32.835938 87.320312 34.140625 85.929688 35.238281 84.40625 C 35.871094 84.011719 35.683594 83.386719 35.683594 82.832031 C 35.683594 73.210938 35.683594 63.585938 35.683594 53.964844 C 35.683594 63.609375 35.683594 73.253906 35.660156 82.902344 C 35.660156 83.339844 35.988281 84.011719 35.171875 84.195312 C 35.148438 84.21875 35.101562 84.195312 35.03125 84.171875 Z M 35.03125 84.171875 "/>
<path style=" stroke:none;fill-rule:nonzero;fill:rgb(2.745098%,2.745098%,2.745098%);fill-opacity:1;" d="M 21.019531 84.683594 C 21.019531 79.964844 21.042969 75.246094 20.996094 70.527344 C 20.996094 69.648438 21.34375 68.882812 21.414062 68.050781 C 21.4375 67.726562 21.648438 67.378906 21.273438 67.101562 C 21.953125 65.367188 22.792969 63.726562 24.21875 62.429688 C 24.894531 62.246094 25.105469 62.683594 25.292969 63.171875 C 25.59375 63.910156 25.523438 64.675781 25.523438 65.460938 C 25.523438 66.339844 25.570312 67.242188 25.523438 68.121094 C 25.457031 69 25.851562 69.671875 26.34375 70.316406 C 26.460938 71.152344 25.6875 71.21875 25.246094 71.589844 C 24.777344 71.984375 24.335938 72.398438 23.820312 72.746094 C 23.867188 72.722656 23.914062 72.675781 23.9375 72.652344 C 24.378906 72.351562 24.753906 71.984375 25.152344 71.636719 C 25.457031 71.449219 25.78125 71.171875 26.109375 71.589844 C 26.390625 72.375 25.804688 73.046875 25.78125 73.808594 C 25.734375 77.996094 25.757812 82.160156 25.78125 86.347656 C 25.78125 86.808594 25.898438 87.273438 26.25 87.621094 C 26.507812 87.875 26.714844 88.152344 26.574219 88.542969 C 25.035156 89.679688 23.144531 90.070312 21.4375 90.882812 C 20.691406 89.933594 21.042969 88.824219 21.019531 87.78125 C 21.019531 87.320312 21.15625 86.878906 20.949219 86.441406 C 20.738281 86.140625 20.855469 85.886719 21.019531 85.605469 C 21.25 85.285156 21.320312 84.984375 21.019531 84.683594 Z M 21.019531 84.683594 "/>
<path style=" stroke:none;fill-rule:nonzero;fill:rgb(16.078432%,16.078432%,16.078432%);fill-opacity:1;" d="M 62.679688 41.890625 C 61.417969 42.304688 61.535156 42.304688 61.488281 40.988281 C 61.441406 39.484375 62.074219 38.027344 61.628906 36.523438 C 61.441406 35.921875 62.515625 35.273438 61.605469 34.648438 C 63.871094 31.875 65.761719 28.84375 67.792969 25.90625 C 68.191406 28.105469 67.910156 30.324219 67.957031 32.546875 C 67.980469 33.46875 68.027344 34.304688 68.914062 34.835938 C 67.023438 37.078125 65.15625 39.300781 63.265625 41.542969 C 63.078125 41.726562 62.9375 41.914062 62.679688 41.890625 Z M 62.679688 41.890625 "/>
<path style=" stroke:none;fill-rule:nonzero;fill:rgb(3.921569%,3.921569%,3.921569%);fill-opacity:1;" d="M 26.15625 70.527344 C 25.152344 70.59375 24.871094 70.179688 24.964844 69.160156 C 25.082031 67.679688 25.011719 66.152344 24.988281 64.652344 C 24.988281 63.816406 24.847656 63.03125 24.242188 62.40625 C 25.457031 60.925781 26.972656 59.816406 28.65625 58.9375 C 28.910156 59.261719 28.910156 59.65625 28.910156 60.023438 C 28.933594 62.9375 28.933594 65.832031 28.933594 68.746094 C 28.933594 69.046875 28.769531 69.324219 28.703125 69.625 C 28.445312 69.972656 28.070312 70.226562 27.765625 70.503906 C 27.625 70.617188 27.464844 70.640625 27.277344 70.664062 C 26.902344 70.664062 26.484375 70.988281 26.15625 70.527344 Z M 26.15625 70.527344 "/>
<path style=" stroke:none;fill-rule:nonzero;fill:rgb(13.333334%,13.333334%,13.333334%);fill-opacity:1;" d="M 52.5 69.648438 C 53.082031 68.46875 52.730469 67.21875 52.730469 65.992188 C 52.800781 58.195312 52.753906 50.425781 52.753906 42.628906 C 52.753906 42.214844 52.707031 41.773438 52.613281 41.382812 C 52.542969 41.035156 52.523438 40.824219 52.988281 40.757812 C 53.410156 40.6875 53.082031 40.546875 52.917969 40.457031 C 53.851562 40.179688 54.808594 39.992188 55.792969 39.992188 C 54.179688 41.449219 53.851562 43.253906 53.898438 45.359375 C 54.015625 52.507812 53.898438 59.65625 53.96875 66.800781 C 53.992188 68.492188 54.085938 70.203125 54.878906 71.773438 C 55.066406 72.144531 54.925781 72.539062 54.832031 72.910156 C 53.875 71.960938 53.128906 70.851562 52.5 69.648438 Z M 52.5 69.648438 "/>
<path style=" stroke:none;fill-rule:nonzero;fill:rgb(4.313726%,4.313726%,4.313726%);fill-opacity:1;" d="M 27.324219 70.316406 C 27.394531 70.25 27.464844 70.15625 27.535156 70.085938 C 28.234375 69.992188 28.421875 70.339844 28.679688 70.964844 C 29.449219 72.976562 29.472656 75.082031 29.378906 77.164062 C 29.378906 77.417969 29.261719 77.695312 29.425781 77.949219 C 29.378906 79.269531 29.144531 80.585938 29.191406 81.929688 C 29.261719 83.988281 29.355469 84.125 31.457031 84.472656 C 31.644531 84.496094 31.832031 84.589844 31.992188 84.660156 C 30.3125 84.40625 29.285156 85.191406 28.5625 86.625 C 28.140625 87.433594 27.488281 88.105469 26.621094 88.542969 C 25.175781 88.589844 25.199219 87.664062 25.222656 86.578125 C 25.269531 82.691406 25.269531 78.828125 25.222656 74.945312 C 25.199219 73.71875 25.339844 72.585938 25.945312 71.496094 C 26.015625 70.6875 26.878906 70.757812 27.324219 70.316406 Z M 27.324219 70.316406 "/>
<path style=" stroke:none;fill-rule:nonzero;fill:rgb(7.843138%,7.843138%,7.843138%);fill-opacity:1;" d="M 35.214844 84.21875 C 35.519531 83.78125 35.496094 83.269531 35.496094 82.761719 C 35.496094 73.210938 35.496094 63.679688 35.496094 54.125 C 35.496094 53.457031 35.402344 52.832031 35.171875 52.207031 C 35.054688 51.859375 35.125 51.441406 35.542969 51.375 C 36.011719 51.304688 35.917969 51.765625 35.941406 52.042969 C 35.964844 52.277344 35.941406 52.507812 35.941406 52.738281 C 35.941406 62.707031 35.941406 72.675781 35.941406 82.648438 C 35.941406 83.292969 36.175781 84.082031 35.261719 84.425781 C 35.261719 84.359375 35.238281 84.289062 35.214844 84.21875 Z M 35.214844 84.21875 "/>
<path style=" stroke:none;fill-rule:nonzero;fill:rgb(14.509805%,14.509805%,14.509805%);fill-opacity:1;" d="M 54.808594 72.886719 C 55.253906 73.164062 56.585938 72.699219 55.8125 74.019531 C 55.488281 73.648438 55.136719 73.253906 54.808594 72.886719 Z M 54.808594 72.886719 "/>
<path style=" stroke:none;fill-rule:nonzero;fill:rgb(95.686275%,95.686275%,95.686275%);fill-opacity:1;" d="M 21.019531 84.683594 C 21.367188 84.472656 21.71875 84.335938 22.023438 84.726562 C 22.300781 85.097656 21.953125 85.351562 21.765625 85.605469 C 21.554688 85.90625 21.25 86.164062 20.996094 86.417969 C 20.925781 86.441406 20.855469 86.464844 20.785156 86.484375 C 20.152344 86.695312 19.453125 87.480469 18.941406 86.925781 C 18.425781 86.347656 19.101562 85.539062 19.265625 84.820312 C 19.898438 84.867188 19.875 85.46875 20.316406 85.628906 C 20.644531 85.421875 20.808594 85.027344 21.019531 84.683594 Z M 21.019531 84.683594 "/>
<path style=" stroke:none;fill-rule:nonzero;fill:rgb(97.254902%,97.254902%,97.254902%);fill-opacity:1;" d="M 11.863281 85.445312 C 12.378906 85.375 12.5625 84.425781 12.984375 84.890625 C 13.429688 85.375 13.453125 86.183594 13.21875 86.855469 C 13.101562 87.15625 12.75 86.996094 12.492188 86.902344 C 11.628906 86.578125 10.929688 86.070312 10.460938 85.285156 C 10.277344 84.984375 9.925781 84.636719 10.414062 84.289062 C 10.882812 83.964844 11.117188 84.289062 11.328125 84.636719 C 11.488281 84.890625 11.652344 85.144531 11.863281 85.445312 Z M 11.863281 85.445312 "/>
<path style=" stroke:none;fill-rule:nonzero;fill:rgb(43.137255%,43.137255%,43.137255%);fill-opacity:1;" d="M 29.425781 77.949219 C 28.910156 76.679688 29.214844 75.335938 29.003906 74.019531 C 28.839844 73 28.65625 72.007812 28.328125 71.011719 C 28.1875 70.59375 27.953125 70.273438 27.535156 70.085938 C 27.859375 69.761719 28.234375 69.578125 28.703125 69.625 C 29.683594 72.351562 29.960938 75.105469 29.425781 77.949219 Z M 29.425781 77.949219 "/>
<path style=" stroke:none;fill-rule:nonzero;fill:rgb(7.843138%,7.843138%,7.843138%);fill-opacity:1;" d="M 35.753906 89.492188 C 35.378906 88.335938 35.472656 87.503906 35.683594 86.671875 C 36.082031 87.457031 36.011719 88.3125 35.753906 89.492188 Z M 35.753906 89.492188 "/>
<path style=" stroke:none;fill-rule:nonzero;fill:rgb(27.058825%,27.058825%,27.058825%);fill-opacity:1;" d="M 27.324219 70.316406 C 27.066406 70.941406 26.367188 71.082031 25.921875 71.472656 C 25.6875 71.613281 25.433594 71.75 25.199219 71.867188 C 24.824219 71.890625 24.824219 71.707031 25.011719 71.472656 C 25.386719 71.152344 25.78125 70.828125 26.15625 70.503906 C 26.550781 70.457031 26.925781 70.386719 27.324219 70.316406 Z M 27.324219 70.316406 "/>
<path style=" stroke:none;fill-rule:nonzero;fill:rgb(19.607843%,19.607843%,19.607843%);fill-opacity:1;" d="M 25.011719 71.496094 C 25.082031 71.636719 25.152344 71.773438 25.199219 71.890625 C 24.941406 72.375 24.449219 72.5625 24.054688 72.863281 C 23.773438 73.046875 23.585938 73 23.585938 72.628906 C 24.054688 72.261719 24.519531 71.867188 25.011719 71.496094 Z M 25.011719 71.496094 "/>
<path style=" stroke:none;fill-rule:nonzero;fill:rgb(11.764706%,11.764706%,11.764706%);fill-opacity:1;" d="M 23.585938 72.628906 C 23.75 72.699219 23.914062 72.792969 24.054688 72.863281 C 23.609375 73.1875 23.261719 73.671875 22.582031 73.808594 C 22.746094 73.164062 23.191406 72.929688 23.585938 72.628906 Z M 23.585938 72.628906 "/>
</g>
</svg>
