<?xml version="1.0" encoding="UTF-8"?>
<svg xmlns="http://www.w3.org/2000/svg" xmlns:xlink="http://www.w3.org/1999/xlink" width="99px" height="92px" viewBox="0 0 99 92" version="1.1">
<g id="surface1">
<path style=" stroke:none;fill-rule:nonzero;fill:rgb(0%,0%,0%);fill-opacity:1;" d="M 0.15625 69.738281 C 2.800781 68.507812 5.429688 67.25 8.121094 66.144531 C 8.308594 66.066406 8.492188 65.941406 8.617188 65.785156 C 11.058594 62.921875 14.292969 61.363281 17.773438 60.257812 C 21.871094 58.96875 26.097656 58.34375 30.363281 57.988281 C 31.355469 57.910156 32.390625 57.988281 33.351562 57.644531 C 33.597656 57.550781 34.109375 57.660156 33.984375 57.175781 C 33.875 56.789062 33.753906 56.289062 33.195312 56.242188 C 33.042969 56.226562 32.886719 56.242188 32.730469 56.242188 C 29.636719 56.289062 26.558594 56.539062 23.496094 56.851562 C 19.953125 57.207031 16.441406 57.722656 12.992188 58.59375 C 10.210938 59.292969 7.488281 60.164062 5.105469 61.832031 C 4.007812 62.578125 3.109375 63.511719 2.628906 64.773438 C 2.582031 64.882812 2.535156 65.023438 2.304688 65.054688 C 2.335938 64.183594 2.832031 63.558594 3.339844 62.96875 C 4.902344 61.160156 6.992188 60.210938 9.15625 59.402344 C 12.636719 58.109375 16.257812 57.457031 19.910156 56.945312 C 24.070312 56.351562 28.246094 56.085938 32.4375 55.871094 C 32.683594 55.855469 33.195312 56.039062 33.164062 55.605469 C 33.132812 55.183594 32.949219 54.703125 32.3125 54.6875 C 31.125 54.65625 29.949219 54.5625 28.773438 54.546875 C 24.164062 54.5 19.550781 54.5625 14.972656 55.167969 C 13.441406 55.371094 11.925781 55.652344 10.457031 56.179688 C 9.574219 56.492188 8.800781 56.976562 8.074219 57.566406 C 8.183594 56.960938 8.679688 56.710938 9.125 56.460938 C 10.796875 55.527344 12.652344 55.183594 14.507812 54.902344 C 20.171875 54.046875 25.863281 54.296875 31.554688 54.296875 C 31.867188 54.296875 32.390625 54.484375 32.4375 54.125 C 32.515625 53.613281 31.925781 53.707031 31.617188 53.660156 C 26.527344 52.832031 21.410156 52.242188 16.242188 52.523438 C 14.988281 52.585938 13.734375 52.800781 12.53125 53.222656 C 12.3125 53.300781 12.097656 53.519531 11.757812 53.316406 C 12.3125 52.847656 12.976562 52.742188 13.613281 52.601562 C 16.148438 52.054688 18.71875 52.023438 21.300781 52.179688 C 24.6875 52.382812 28.058594 52.742188 31.417969 53.332031 C 31.957031 53.425781 32.128906 53.238281 31.898438 52.695312 C 31.523438 51.804688 31.214844 50.902344 30.84375 50.015625 C 30.289062 48.675781 30.273438 47.292969 30.472656 45.890625 C 30.519531 45.59375 30.675781 45.207031 30.148438 45.222656 C 29.578125 45.238281 29.621094 44.972656 29.824219 44.597656 C 29.992188 44.289062 30.148438 43.992188 29.792969 43.710938 C 29.636719 43.601562 29.667969 43.414062 29.792969 43.292969 C 30.378906 42.636719 30.242188 41.84375 30.242188 41.082031 C 30.257812 37.21875 31.015625 33.5625 33.070312 30.246094 C 33.320312 29.855469 33.535156 29.421875 33.84375 29.09375 C 34.417969 28.488281 34.292969 27.941406 33.953125 27.289062 C 33.289062 26.027344 32.671875 24.75 32.066406 23.460938 C 31.804688 22.898438 31.679688 22.355469 32.128906 21.714844 C 32.5 21.203125 32.253906 20.453125 32.222656 19.816406 C 32.019531 15.941406 30.691406 12.328125 29.578125 8.671875 C 29.128906 7.191406 28.476562 5.757812 28.308594 4.203125 C 28.246094 3.582031 28.230469 2.972656 28.324219 2.351562 C 28.632812 0.21875 29.453125 0.0625 31.355469 0.359375 C 32.609375 0.542969 33.644531 1.277344 34.632812 2.023438 C 37.1875 3.9375 39.335938 6.289062 41.640625 8.484375 C 42.632812 9.433594 43.652344 10.335938 44.796875 11.113281 C 45.726562 11.738281 46.730469 12.21875 47.859375 12.28125 C 48.480469 12.3125 48.925781 12.578125 49.207031 13.152344 C 49.191406 12.875 49.160156 12.609375 49.144531 12.328125 C 49.144531 12.140625 49.160156 11.941406 49.375 11.894531 C 49.609375 11.847656 49.6875 12.0625 49.730469 12.21875 C 49.839844 12.53125 49.917969 12.859375 50.058594 13.308594 C 50.460938 12.421875 51.046875 12.65625 51.648438 12.859375 C 52.484375 13.136719 53.289062 13.621094 54.234375 13.03125 C 54.652344 12.765625 54.480469 13.433594 54.929688 13.574219 C 55.070312 13.386719 55.253906 13.105469 55.472656 12.859375 C 55.625 12.6875 55.828125 12.5 56.074219 12.65625 C 56.273438 12.796875 56.167969 13.046875 56.152344 13.230469 C 56.136719 13.402344 56.074219 13.574219 56.011719 13.824219 C 56.585938 13.871094 56.941406 13.480469 57.359375 13.292969 C 57.730469 13.121094 58.070312 12.9375 58.347656 13.417969 C 58.457031 13.621094 58.671875 13.652344 58.890625 13.652344 C 61.007812 13.667969 63.050781 14.273438 65.15625 14.476562 C 66.097656 14.570312 67.042969 14.679688 68 14.742188 C 68.464844 14.773438 68.542969 14.945312 68.292969 15.316406 C 67.753906 16.144531 67.210938 16.953125 66.671875 17.777344 C 66.546875 17.964844 66.421875 18.167969 66.316406 18.367188 C 66.238281 18.507812 66.207031 18.679688 66.34375 18.789062 C 66.515625 18.914062 66.625 18.742188 66.714844 18.632812 C 67.074219 18.199219 67.429688 17.746094 67.785156 17.308594 C 70.152344 14.476562 72.640625 11.800781 75.796875 9.824219 C 77.25 8.902344 78.796875 8.203125 80.5625 8.203125 C 82.804688 8.203125 84.460938 9.261719 85.542969 11.191406 C 86.78125 13.417969 86.796875 15.863281 86.5625 18.304688 C 86.175781 22.570312 85.03125 26.695312 84.273438 30.898438 C 83.625 34.449219 83.640625 37.921875 84.535156 41.4375 C 85.203125 44.039062 85.292969 46.699219 85.078125 49.378906 C 84.984375 50.5625 84.414062 51.605469 84.027344 52.695312 C 83.886719 53.066406 83.5 53.394531 84.042969 53.890625 C 84.320312 54.140625 83.902344 54.765625 83.59375 55.105469 C 83.066406 55.714844 82.542969 56.304688 81.96875 56.882812 C 81.566406 57.300781 81.226562 57.675781 82.15625 57.957031 C 81.257812 58.90625 80.144531 59.449219 79.308594 60.304688 C 79.476562 60.617188 79.835938 60.351562 80.035156 60.679688 C 79.449219 61.472656 78.582031 62.003906 77.761719 62.5625 C 77.359375 62.84375 76.601562 63.203125 76.632812 63.371094 C 76.742188 63.886719 77.421875 63.917969 77.871094 64.136719 C 82.773438 66.5625 87.523438 69.273438 92.550781 71.453125 C 94.683594 72.371094 96.878906 73.117188 99.109375 73.769531 C 99.109375 73.816406 99.109375 73.878906 99.109375 73.925781 C 98.675781 74.019531 98.304688 73.832031 97.902344 73.722656 C 93.847656 72.558594 90.058594 70.75 86.300781 68.835938 C 83.144531 67.234375 80.003906 65.613281 76.863281 64.027344 C 76.554688 63.871094 76.230469 63.574219 75.859375 63.746094 C 74.480469 64.367188 73.121094 65.023438 71.605469 65.738281 C 75.164062 67.328125 78.566406 68.867188 82.171875 70.472656 C 81.675781 70.671875 81.519531 70.519531 81.335938 70.441406 C 78.550781 69.195312 75.765625 67.996094 73.011719 66.703125 C 71.867188 66.160156 70.832031 65.847656 69.609375 66.5 C 68.960938 66.84375 68.171875 66.9375 67.289062 67.171875 C 67.707031 67.464844 67.96875 67.652344 68.25 67.839844 C 74.296875 72.027344 80.34375 76.214844 86.082031 80.824219 C 87.941406 82.316406 89.78125 83.8125 91.296875 85.664062 C 91.464844 85.867188 91.683594 86.054688 91.605469 86.566406 C 90.832031 85.554688 90.089844 84.699219 89.238281 83.953125 C 82.355469 77.851562 74.730469 72.757812 67.210938 67.511719 C 66.703125 67.15625 66.238281 67.234375 65.679688 67.542969 C 68.882812 69.769531 71.835938 72.167969 74.40625 75.046875 C 77.929688 79.015625 80.515625 83.5 82.0625 88.589844 C 82.417969 89.742188 82.851562 90.894531 82.851562 92.140625 C 82.804688 92.140625 82.742188 92.140625 82.695312 92.140625 C 82.617188 91.921875 82.542969 91.703125 82.496094 91.472656 C 80.207031 81.132812 74.0625 73.601562 65.496094 67.824219 C 65.046875 67.511719 64.566406 67.496094 64.054688 67.730469 C 64.101562 67.824219 64.117188 67.871094 64.148438 67.902344 C 64.320312 68.027344 64.472656 68.152344 64.644531 68.261719 C 67.800781 70.472656 70.832031 72.835938 73.460938 75.6875 C 74.867188 77.210938 76.105469 78.878906 76.726562 80.902344 C 76.800781 81.132812 76.957031 81.398438 76.679688 81.773438 C 76.398438 80.933594 76.183594 80.183594 75.828125 79.5 C 74.746094 77.492188 73.246094 75.824219 71.605469 74.269531 C 69.191406 71.996094 66.5625 69.988281 63.839844 68.105469 C 63.46875 67.839844 63.144531 67.375 62.632812 67.902344 C 62.648438 68.089844 62.804688 68.167969 62.910156 68.277344 C 64.84375 69.832031 66.640625 71.546875 68.277344 73.414062 C 70.894531 76.402344 73.042969 79.671875 74.125 83.546875 C 74.375 84.433594 74.652344 85.304688 74.496094 86.285156 C 73.816406 82.410156 72.144531 79 69.839844 75.871094 C 67.460938 72.652344 62.617188 68.011719 61.410156 67.980469 C 63.4375 69.613281 65.140625 71.40625 66.515625 73.476562 C 67.921875 75.578125 68.976562 77.851562 69.734375 80.261719 C 70.628906 83.097656 71.1875 86.675781 70.832031 87.5625 C 70.644531 86.910156 70.613281 86.300781 70.554688 85.695312 C 70.492188 85.058594 70.367188 84.417969 70.257812 83.78125 C 69.128906 77.742188 66.453125 72.589844 61.6875 68.617188 C 61.148438 68.167969 60.605469 67.855469 59.800781 68.152344 C 61.921875 70.222656 63.621094 72.542969 64.84375 75.203125 C 66.066406 77.820312 66.886719 80.558594 67.089844 83.453125 C 66.792969 83.082031 66.777344 82.613281 66.6875 82.175781 C 65.773438 77.148438 63.730469 72.695312 60.171875 69.007812 C 59.214844 68.011719 58.84375 67.964844 57.652344 68.742188 C 56.847656 69.273438 56.214844 70.003906 55.546875 70.671875 C 54.804688 71.421875 53.554688 71.652344 52.824219 71.203125 C 52.824219 71.546875 53.335938 71.824219 53.011719 72.167969 C 52.734375 72.464844 52.394531 72.074219 52.019531 72.042969 C 52.019531 72.308594 52.207031 72.789062 51.648438 72.605469 C 51.355469 72.511719 51.109375 72.277344 50.800781 72.074219 C 50.875 72.417969 51.308594 72.636719 51.015625 72.960938 C 50.675781 73.335938 50.382812 72.789062 50.042969 72.820312 C 49.964844 73.070312 50.226562 73.460938 49.824219 73.570312 C 49.269531 73.707031 49.175781 73.054688 48.726562 72.851562 C 48.773438 73.242188 48.679688 73.570312 48.214844 73.460938 C 47.613281 73.320312 46.949219 73.210938 46.515625 72.789062 C 46.066406 72.355469 45.230469 72.679688 44.984375 71.933594 C 44.984375 71.933594 44.875 71.933594 44.84375 71.964844 C 44.316406 72.402344 44.070312 72.121094 43.929688 71.59375 C 43.898438 71.46875 43.808594 71.46875 43.699219 71.515625 C 43.050781 71.792969 42.910156 71.328125 42.816406 70.8125 C 42.339844 71.140625 41.8125 71.714844 41.78125 70.566406 C 41.78125 70.441406 41.734375 70.378906 41.59375 70.394531 C 40.898438 70.503906 41.054688 69.988281 41.054688 69.597656 C 40.265625 69.988281 40.21875 69.941406 40.265625 68.945312 C 40.019531 68.960938 39.507812 69.289062 39.585938 68.960938 C 39.722656 68.324219 39.121094 68.183594 39.058594 67.730469 C 38.996094 67.21875 38.902344 66.703125 38.84375 66.191406 C 38.734375 65.195312 38.65625 64.230469 37.898438 63.402344 C 36.96875 62.390625 37.046875 62.328125 35.855469 63.03125 C 32.808594 64.820312 29.667969 66.453125 26.871094 68.648438 C 23.789062 71.0625 21.128906 73.800781 20.015625 77.710938 C 19.984375 77.820312 19.921875 77.957031 19.738281 77.882812 C 19.597656 77.664062 19.738281 77.476562 19.800781 77.289062 C 20.652344 74.472656 22.351562 72.214844 24.457031 70.253906 C 26.882812 67.980469 29.683594 66.207031 32.546875 64.554688 C 33.816406 63.824219 35.082031 63.078125 36.351562 62.328125 C 36.523438 62.21875 36.753906 62.128906 36.675781 61.863281 C 36.613281 61.660156 36.507812 61.472656 36.320312 61.378906 C 36.042969 61.253906 35.824219 61.441406 35.59375 61.535156 C 32.375 62.84375 29.160156 64.183594 26.019531 65.691406 C 21.996094 67.636719 18.050781 69.738281 14.695312 72.757812 C 12.683594 74.566406 10.984375 76.589844 10.75 79.484375 C 10.734375 79.59375 10.6875 79.671875 10.550781 79.671875 C 10.410156 79.234375 10.410156 79.234375 10.472656 78.878906 C 10.859375 76.433594 12.265625 74.613281 13.984375 72.976562 C 17 70.113281 20.558594 68.089844 24.222656 66.222656 C 27.890625 64.351562 31.679688 62.796875 35.46875 61.222656 C 35.671875 61.148438 35.980469 61.117188 35.980469 60.835938 C 35.980469 60.570312 35.792969 60.351562 35.609375 60.179688 C 35.363281 59.964844 35.113281 60.179688 34.898438 60.273438 C 27.796875 62.9375 20.742188 65.707031 13.859375 68.882812 C 10.226562 70.566406 6.605469 72.246094 3.386719 74.707031 C 3.308594 74.765625 3.203125 74.8125 3.09375 74.691406 C 3.140625 74.613281 3.171875 74.519531 3.25 74.457031 C 3.695312 74.113281 4.128906 73.738281 4.609375 73.445312 C 8.277344 71.046875 12.25 69.257812 16.242188 67.480469 C 22.273438 64.789062 28.417969 62.375 34.605469 60.089844 C 35.207031 59.871094 35.4375 59.636719 35.003906 59.0625 C 34.835938 58.828125 34.710938 58.578125 34.574219 58.328125 C 34.433594 58.078125 34.277344 57.941406 33.953125 57.988281 C 33.320312 58.078125 32.671875 58.0625 32.050781 58.25 C 24.734375 60.398438 17.496094 62.78125 10.347656 65.488281 C 8.753906 66.097656 7.84375 67.078125 7.300781 68.585938 C 7.191406 68.882812 7.101562 69.179688 6.976562 69.460938 C 6.914062 69.597656 6.976562 69.847656 6.621094 69.816406 C 6.730469 68.648438 7.363281 67.683594 7.921875 66.5 C 6.636719 67.0625 5.507812 67.558594 4.363281 68.027344 C 2.90625 68.632812 1.5625 69.476562 0.078125 69.988281 C 0.15625 69.941406 0.15625 69.847656 0.15625 69.738281 Z M 36.816406 17.589844 C 37.914062 17.355469 39.042969 17.371094 40.171875 17.324219 C 38.484375 16.734375 36.753906 16.84375 35.003906 16.84375 C 36.492188 15.988281 38.175781 16.066406 39.941406 15.816406 C 38.949219 15.132812 37.945312 15.023438 36.832031 14.898438 C 37.355469 14.445312 37.992188 14.617188 38.515625 14.257812 C 37.339844 14.105469 36.273438 13.980469 35.222656 13.839844 C 35.902344 13.511719 36.597656 13.480469 37.3125 13.511719 C 38.007812 13.527344 38.71875 13.589844 39.414062 13.636719 C 38.332031 13.152344 37.171875 13.03125 36.027344 12.828125 C 37.0625 12.421875 38.191406 12.515625 39.367188 12.1875 C 38.097656 12.0625 36.953125 11.941406 35.808594 11.816406 C 35.808594 11.769531 35.808594 11.722656 35.808594 11.675781 C 36.414062 11.425781 37.015625 11.175781 37.789062 10.835938 C 36.660156 10.695312 35.71875 10.898438 34.742188 10.679688 C 34.976562 10.195312 35.53125 10.132812 35.75 9.714844 C 35.390625 9.574219 35.003906 9.808594 34.742188 9.386719 C 35.484375 9.246094 35.207031 8.964844 34.867188 8.671875 C 34.402344 8.265625 33.96875 7.832031 33.519531 7.410156 C 33.582031 7.644531 33.722656 7.816406 33.859375 7.984375 C 34.664062 8.933594 34.664062 8.933594 33.566406 9.527344 C 33.535156 9.542969 33.535156 9.605469 33.472656 9.761719 C 34.015625 9.761719 34.527344 9.761719 35.269531 9.761719 C 34.945312 9.960938 34.835938 10.039062 34.742188 10.101562 C 34.542969 10.242188 34.1875 10.320312 34.246094 10.617188 C 34.308594 10.867188 34.632812 10.789062 34.867188 10.820312 C 35.347656 10.898438 35.824219 10.960938 36.398438 11.050781 C 35.839844 11.550781 35.160156 11.535156 34.648438 11.925781 C 35.003906 12.109375 35.316406 12.003906 35.609375 12.046875 C 35.886719 12.09375 36.210938 11.972656 36.476562 12.265625 C 36.105469 12.5625 35.59375 12.5 35.300781 12.828125 C 35.4375 13.089844 35.886719 12.828125 35.886719 13.261719 C 35.316406 13.589844 34.632812 13.480469 33.953125 13.761719 C 35.035156 14.011719 36.105469 13.933594 37.109375 14.304688 C 36.707031 14.695312 36.195312 14.523438 35.671875 14.757812 C 36.460938 15.285156 37.386719 15.101562 38.222656 15.628906 C 36.582031 15.722656 35.222656 16.203125 34.015625 17.09375 C 35.285156 17.046875 36.523438 16.890625 37.992188 17.09375 C 37.433594 17.355469 37.125 17.480469 36.816406 17.589844 C 36.582031 17.667969 36.304688 17.667969 36.152344 17.980469 C 36.910156 18.089844 37.636719 18.183594 38.363281 18.320312 C 38.734375 18.382812 39.257812 18.320312 39.382812 18.695312 C 39.476562 18.976562 38.902344 19.054688 38.734375 19.335938 C 38.71875 19.363281 38.71875 19.425781 38.71875 19.535156 C 39.878906 19.738281 40.929688 20.222656 41.9375 20.84375 C 41.457031 20.253906 40.835938 19.878906 40.15625 19.597656 C 39.910156 19.488281 39.507812 19.519531 39.460938 19.195312 C 39.414062 18.867188 39.894531 18.914062 40.046875 18.632812 C 39.136719 18.214844 38.207031 17.980469 37.21875 17.933594 C 37.046875 17.917969 36.597656 18.105469 36.816406 17.589844 Z M 30.722656 58.3125 C 26.4375 58.625 22.214844 59.199219 18.113281 60.460938 C 15.359375 61.316406 12.761719 62.453125 10.519531 64.320312 C 10.101562 64.664062 9.652344 64.992188 9.359375 65.644531 C 16.457031 62.84375 23.574219 60.507812 30.722656 58.3125 Z M 60.003906 33.65625 C 59.910156 34.355469 59.398438 34.542969 59.214844 35.023438 C 60.003906 34.652344 60.542969 34.027344 61.441406 33.703125 C 61.164062 34.417969 60.929688 34.996094 60.699219 35.585938 C 60.730469 35.617188 60.777344 35.632812 60.808594 35.664062 C 61.117188 35.429688 61.441406 35.195312 61.75 34.949219 C 61.78125 34.980469 61.828125 34.996094 61.859375 35.023438 C 61.644531 35.429688 61.410156 35.835938 61.117188 36.363281 C 61.75 36.128906 61.96875 35.523438 62.648438 35.414062 C 62.277344 36.007812 61.984375 36.472656 61.660156 36.988281 C 62.199219 37.019531 62.554688 36.582031 63.050781 36.691406 C 63.066406 37.113281 62.617188 37.3125 62.570312 37.71875 C 63.160156 37.5625 63.5625 37.066406 64.273438 36.988281 C 63.902344 37.65625 63.25 37.984375 62.863281 38.777344 C 64.691406 37.78125 66.285156 36.816406 67.582031 35.429688 C 66.453125 35.742188 65.371094 36.175781 64.164062 36.285156 C 64.289062 35.820312 64.796875 35.835938 64.90625 35.429688 C 64.394531 35.289062 63.949219 35.695312 63.34375 35.507812 C 64.132812 35.023438 64.828125 34.589844 65.542969 34.152344 C 65.527344 34.121094 65.511719 34.089844 65.496094 34.058594 C 64.769531 34.246094 64.023438 34.417969 63.296875 34.605469 C 63.265625 34.542969 63.234375 34.480469 63.207031 34.402344 C 64.117188 33.90625 65.03125 33.390625 65.941406 32.894531 C 64.519531 33.1875 63.191406 33.71875 61.828125 34.152344 C 62.710938 33.234375 63.996094 32.925781 65.078125 31.972656 C 63.546875 32.253906 62.386719 32.96875 61.054688 33.28125 C 61.613281 32.800781 62.167969 32.332031 62.726562 31.851562 C 62.695312 31.820312 62.664062 31.773438 62.632812 31.742188 C 61.660156 32.285156 60.683594 32.832031 59.710938 33.375 C 59.664062 33.3125 59.617188 33.234375 59.554688 33.171875 C 60.792969 32.003906 62.015625 30.839844 63.25 29.671875 C 63.222656 29.625 63.191406 29.59375 63.160156 29.546875 C 61.75 30.480469 60.328125 31.414062 58.78125 32.441406 C 58.875 32.035156 58.90625 31.851562 58.953125 31.664062 C 58.921875 31.648438 58.90625 31.648438 58.875 31.632812 C 58.472656 32.253906 58.070312 32.863281 57.589844 33.609375 C 57.480469 33 57.761719 32.613281 57.652344 32.175781 C 57.34375 32.953125 57.019531 33.71875 56.648438 34.621094 C 57.511719 34.230469 58.023438 33.515625 59.011719 33.15625 C 58.472656 33.875 58.070312 34.417969 57.667969 34.949219 C 57.683594 34.964844 57.714844 34.996094 57.730469 35.011719 C 58.457031 34.574219 59.152344 34.167969 60.003906 33.65625 Z M 46.578125 45.191406 C 46.066406 44.722656 46.003906 44.257812 45.847656 43.835938 C 45.695312 43.414062 45.554688 42.980469 45.417969 42.542969 C 45.339844 43.386719 45.554688 44.148438 45.789062 44.910156 C 46.128906 46.09375 46.128906 46.09375 45.074219 46.4375 C 46.28125 46.558594 46.949219 47.632812 47.984375 48.164062 C 47.367188 47.089844 48.496094 46.933594 48.867188 46.34375 C 48.570312 46.453125 48.355469 46.527344 48.152344 46.605469 C 47.457031 46.855469 47.367188 46.792969 47.488281 46.09375 C 47.566406 45.640625 47.644531 45.207031 47.722656 44.753906 C 47.425781 44.769531 47.335938 45.191406 47.085938 44.988281 C 46.933594 44.863281 47.023438 44.597656 47.070312 44.398438 C 47.378906 42.917969 47.691406 41.4375 48.015625 39.882812 C 47.597656 40.179688 47.488281 40.769531 46.824219 40.863281 C 47.566406 38.761719 48.632812 36.910156 49.484375 34.902344 C 49.082031 34.902344 48.851562 35.242188 48.402344 35.039062 C 49.269531 33.59375 50.117188 32.191406 50.96875 30.761719 C 50.675781 30.667969 50.503906 31.085938 50.210938 30.839844 C 50.691406 29.949219 51.203125 29.078125 51.648438 28.175781 C 52.097656 27.273438 52.46875 26.339844 52.625 25.328125 C 52.5 25.46875 52.4375 25.636719 52.347656 25.792969 C 51.773438 26.867188 51.355469 28.175781 50.429688 28.84375 C 49.546875 29.484375 49.640625 30.339844 49.269531 31.085938 C 49.003906 31.632812 48.882812 32.269531 48.695312 32.863281 C 48.617188 33.109375 48.601562 33.40625 48.292969 33.609375 C 48.261719 33.328125 48.246094 33.09375 48.199219 32.722656 C 47.691406 34.746094 47.472656 36.675781 47.117188 38.574219 C 47.070312 38.792969 47.164062 39.074219 46.933594 39.210938 C 46.683594 39.367188 46.652344 38.839844 46.34375 39.027344 C 46.25 41.003906 46.546875 42.996094 46.578125 45.191406 Z M 58.410156 45.828125 C 60.929688 45.8125 62.941406 44.644531 63.871094 42.902344 C 64.273438 42.140625 64.210938 41.984375 63.375 41.828125 C 62.355469 41.65625 61.316406 41.859375 60.296875 41.578125 C 59.878906 41.46875 59.632812 41.75 59.863281 42.1875 C 60.21875 42.808594 59.941406 43.339844 59.726562 43.882812 C 59.664062 44.023438 59.601562 44.195312 59.414062 44.195312 C 59.199219 44.210938 59.105469 44.023438 59.027344 43.867188 C 58.828125 43.445312 58.6875 42.996094 58.71875 42.511719 C 58.75 41.890625 58.59375 41.65625 57.914062 41.859375 C 57.21875 42.0625 56.570312 42.339844 55.949219 42.730469 C 55.410156 43.058594 55.285156 43.371094 55.917969 43.726562 C 56.121094 43.835938 56.289062 43.976562 56.367188 44.226562 C 56.769531 45.425781 57.621094 45.90625 58.410156 45.828125 Z M 72.332031 52.054688 C 72.316406 52.101562 72.300781 52.148438 72.285156 52.210938 C 72.917969 52.664062 73.554688 53.097656 74.28125 53.613281 C 73.691406 53.785156 73.351562 53.378906 72.890625 53.503906 C 73.261719 53.984375 73.910156 54.078125 74.328125 54.71875 C 73.027344 54.46875 71.898438 54.234375 70.753906 54.015625 C 70.738281 54.0625 70.722656 54.09375 70.707031 54.140625 C 72.253906 55.058594 73.816406 55.992188 75.363281 56.914062 C 74.929688 56.226562 74.1875 55.871094 73.800781 55.074219 C 75.410156 55.730469 77.019531 56.367188 78.628906 57.019531 C 78.644531 56.976562 78.675781 56.945312 78.691406 56.898438 C 77.453125 56.054688 76.214844 55.214844 74.976562 54.390625 C 75.007812 54.328125 75.039062 54.265625 75.070312 54.203125 C 76.152344 54.578125 77.21875 54.964844 78.304688 55.339844 C 77.375 54.609375 76.230469 54.234375 75.378906 53.347656 C 76.539062 53.503906 77.699219 53.644531 78.859375 53.800781 C 78.023438 53.253906 77.066406 53.066406 76.277344 52.507812 C 78.226562 52.679688 80.128906 53.160156 82.078125 53.144531 C 79.136719 52.226562 76.136719 51.667969 73.074219 51.246094 C 73.769531 51.714844 74.464844 52.179688 75.148438 52.632812 C 75.117188 52.695312 75.101562 52.742188 75.070312 52.800781 C 74.1875 52.554688 73.261719 52.304688 72.332031 52.054688 Z M 33.148438 36.378906 C 35.902344 36.738281 38.546875 37.3125 40.851562 38.996094 C 40.417969 38.480469 39.957031 38.046875 39.492188 37.59375 C 39.382812 37.5 39.136719 37.34375 39.257812 37.265625 C 39.894531 36.832031 39.183594 36.816406 39.074219 36.644531 C 38.964844 36.488281 38.734375 36.410156 38.6875 36.191406 C 38.886719 35.992188 39.183594 36.394531 39.367188 36.113281 C 38.996094 35.695312 38.996094 35.695312 39.257812 35.148438 C 39.320312 35.039062 39.304688 34.949219 39.246094 34.871094 C 39.042969 34.636719 38.980469 34.464844 39.320312 34.277344 C 39.539062 34.152344 39.367188 33.96875 39.273438 33.8125 C 39.152344 33.578125 38.828125 33.453125 38.859375 33.125 C 39.074219 33 39.246094 33.296875 39.476562 33.125 C 39.011719 32.394531 38.53125 31.679688 37.699219 30.992188 C 37.835938 31.289062 37.882812 31.398438 37.945312 31.507812 C 38.039062 31.695312 38.238281 31.894531 38.113281 32.066406 C 37.960938 32.316406 37.683594 32.128906 37.480469 32.066406 C 37.03125 31.957031 36.613281 31.910156 36.074219 32.003906 C 36.769531 32.613281 37.574219 32.925781 38.023438 33.828125 C 37.0625 33.65625 36.273438 33.265625 35.300781 33.203125 C 36.042969 33.765625 36.847656 34.089844 37.386719 34.808594 C 36.613281 34.652344 35.839844 34.480469 34.882812 34.292969 C 35.59375 34.839844 36.335938 35.011719 36.9375 35.648438 C 36.136719 35.695312 35.5 35.429688 34.835938 35.570312 C 35.59375 35.851562 36.398438 35.867188 37.234375 36.425781 C 35.75 36.316406 34.449219 36.207031 33.148438 36.378906 Z M 52.484375 21.046875 C 52.53125 21.09375 52.578125 21.15625 52.625 21.203125 C 51.882812 22.308594 51.125 23.398438 50.382812 24.503906 C 50.398438 24.519531 50.429688 24.535156 50.445312 24.550781 C 51.140625 23.847656 51.851562 23.164062 52.578125 22.449219 C 52.347656 22.371094 52.300781 22.710938 51.992188 22.523438 C 52.78125 21.359375 53.554688 20.207031 54.339844 19.039062 C 54.296875 19.007812 54.265625 18.960938 54.21875 18.929688 C 53.566406 19.550781 52.933594 20.191406 52.285156 20.8125 C 52.222656 20.75 52.175781 20.703125 52.113281 20.640625 C 52.546875 19.957031 52.964844 19.257812 53.507812 18.382812 C 52.59375 18.898438 52.082031 19.644531 51.203125 19.863281 C 51.914062 18.851562 52.609375 17.855469 53.320312 16.84375 C 53.289062 16.828125 53.257812 16.796875 53.226562 16.78125 C 52.453125 17.433594 51.679688 18.074219 50.90625 18.726562 C 50.859375 18.679688 50.800781 18.632812 50.753906 18.585938 C 51.386719 17.589844 52.019531 16.59375 52.640625 15.597656 C 51.757812 16.34375 51 17.1875 50.042969 17.824219 C 50.644531 16.796875 51.261719 15.753906 51.929688 14.632812 C 50.800781 15.285156 50.503906 16.578125 49.253906 17.0625 C 48.554688 17.324219 48.246094 18.554688 47.753906 19.347656 C 48.449219 18.914062 48.867188 18.214844 49.640625 17.730469 C 49.53125 18.320312 49.097656 18.632812 48.941406 19.117188 C 49.453125 18.929688 49.777344 18.476562 50.519531 18.335938 C 49.714844 19.410156 49.019531 20.332031 48.324219 21.25 C 48.339844 21.265625 48.371094 21.28125 48.386719 21.296875 C 49.359375 20.453125 50.351562 19.628906 51.324219 18.789062 C 51.371094 18.851562 51.433594 18.898438 51.480469 18.960938 C 50.816406 19.800781 50.148438 20.640625 49.484375 21.480469 C 49.5 21.511719 49.515625 21.527344 49.546875 21.558594 C 50.304688 21.09375 51.078125 20.625 51.835938 20.160156 C 51.867188 20.207031 51.914062 20.253906 51.945312 20.300781 C 51.527344 20.90625 51.109375 21.511719 50.691406 22.121094 C 50.738281 22.152344 50.769531 22.183594 50.816406 22.214844 C 51.371094 21.855469 51.929688 21.449219 52.484375 21.046875 Z M 40.140625 41.5 C 39.753906 40.847656 39.675781 40.242188 39.707031 39.617188 C 39.738281 39.152344 39.570312 38.824219 39.152344 38.605469 C 38.671875 38.355469 38.207031 38.09375 37.710938 37.84375 C 37.171875 37.5625 36.832031 37.8125 36.628906 38.324219 C 36.507812 38.652344 36.539062 38.980469 36.566406 39.320312 C 36.753906 41.285156 37.929688 42.355469 39.707031 42.902344 C 40.683594 43.199219 41.441406 42.855469 41.875 41.96875 C 42.105469 41.5 41.765625 40.503906 41.238281 40.300781 C 40.652344 40.085938 40.652344 40.722656 40.417969 41.003906 C 40.359375 41.128906 40.296875 41.269531 40.140625 41.5 Z M 40.480469 62.828125 C 41.238281 62.9375 41.964844 62.640625 42.679688 62.90625 C 42.816406 62.953125 43.003906 63.046875 43.113281 62.90625 C 43.28125 62.71875 43.050781 62.578125 42.957031 62.453125 C 42.429688 61.785156 42.121094 61.023438 42.074219 60.164062 C 42.011719 59.046875 41.59375 58.0625 40.914062 57.175781 C 40.542969 56.710938 40.25 56.179688 40.078125 55.621094 C 39.988281 55.292969 39.785156 54.875 40.203125 54.640625 C 40.574219 54.4375 40.898438 54.6875 41.132812 54.996094 C 41.363281 55.277344 41.550781 55.589844 41.78125 55.871094 C 41.964844 56.085938 42.183594 56.335938 42.492188 56.117188 C 42.863281 55.855469 43.097656 55.464844 43.066406 54.996094 C 43.050781 54.65625 42.753906 54.546875 42.445312 54.53125 C 41.875 54.5 41.332031 54.390625 40.777344 54.21875 C 40.390625 54.09375 39.972656 53.832031 39.644531 54.25 C 39.304688 54.6875 39.257812 55.183594 39.523438 55.714844 C 39.832031 56.304688 40.140625 56.914062 40.40625 57.535156 C 41.054688 59.015625 41.039062 59.015625 39.832031 59.964844 C 40.03125 60.179688 40.40625 59.886719 40.574219 60.242188 C 40.375 60.398438 40.171875 60.570312 39.894531 60.789062 C 40.652344 60.664062 40.667969 60.679688 40.558594 61.253906 C 40.527344 61.410156 40.511719 61.488281 40.699219 61.503906 C 41.132812 61.535156 40.945312 61.800781 40.867188 62.003906 C 40.761719 62.28125 40.621094 62.546875 40.480469 62.828125 Z M 50.117188 56.289062 C 50.953125 56.289062 51.261719 56.101562 51.125 55.761719 C 50.96875 55.371094 49.808594 54.796875 49.3125 54.875 C 48.726562 54.964844 48.632812 55.386719 48.601562 55.902344 C 48.554688 56.492188 48.246094 56.460938 47.890625 56.117188 C 47.488281 55.746094 47.195312 55.277344 46.980469 54.78125 C 46.730469 54.203125 46.515625 53.472656 45.789062 53.535156 C 45.089844 53.597656 44.9375 54.359375 44.71875 54.933594 C 44.550781 55.386719 44.332031 55.960938 44.703125 56.335938 C 45.105469 56.742188 45.617188 56.382812 46.066406 56.210938 C 46.207031 56.164062 46.34375 56.085938 46.484375 56.007812 C 46.933594 55.730469 47.304688 55.636719 47.613281 56.226562 C 47.9375 56.851562 47.722656 57.191406 47.195312 57.488281 C 46.824219 57.691406 46.4375 57.816406 46.019531 57.832031 C 45.664062 57.832031 45.371094 57.972656 45.105469 58.1875 C 44.8125 58.421875 44.828125 58.734375 44.984375 59.03125 C 45.136719 59.339844 45.355469 59.605469 45.757812 59.558594 C 45.972656 59.527344 46.21875 59.386719 46.160156 59.167969 C 45.957031 58.328125 46.578125 58.21875 47.085938 58.046875 C 47.859375 57.800781 48.496094 57.425781 48.757812 56.585938 C 48.867188 56.226562 49.128906 56.117188 49.484375 56.179688 C 49.746094 56.226562 49.996094 56.273438 50.117188 56.289062 Z M 82.371094 38.714844 C 79.988281 39.539062 77.621094 40.347656 75.238281 41.175781 C 75.625 41.253906 76.011719 41.128906 76.507812 41.359375 C 75.828125 41.734375 75.238281 42.046875 74.636719 42.355469 C 74.652344 42.386719 74.667969 42.433594 74.683594 42.464844 C 75.582031 42.328125 76.492188 42.1875 77.574219 42.015625 C 76.757812 42.808594 75.859375 43.199219 75.101562 44.054688 C 77.113281 43.757812 78.921875 43.476562 80.453125 42.328125 C 79.355469 42.667969 78.242188 43.011719 77.035156 42.964844 C 78.070312 42.402344 79.121094 41.84375 80.160156 41.285156 C 79.152344 41.375 78.226562 41.703125 77.203125 41.625 C 79 40.738281 80.824219 39.976562 82.371094 38.714844 Z M 43.527344 66.238281 C 43.453125 65.660156 43.484375 65.242188 43.558594 64.835938 C 43.667969 64.292969 43.808594 63.980469 44.550781 63.996094 C 45.664062 64.027344 46.808594 63.902344 47.828125 63.25 C 48.140625 63.046875 48.632812 62.859375 49.050781 63.234375 C 49.253906 63.402344 49.421875 63.277344 49.625 63.21875 C 50.382812 63.015625 50.859375 63.261719 51.125 64.027344 C 51.234375 64.335938 51.261719 64.664062 51.355469 65.054688 C 51.757812 64.679688 51.851562 64.246094 51.945312 63.792969 C 52.007812 63.496094 51.992188 63.109375 52.269531 62.953125 C 53.167969 62.4375 52.394531 62.328125 52.082031 62.144531 C 51.820312 61.972656 51.496094 61.988281 51.1875 61.988281 C 49.980469 61.957031 48.867188 62.390625 47.738281 62.71875 C 46.28125 63.140625 44.890625 63.808594 43.3125 63.558594 C 42.941406 63.496094 42.601562 63.667969 42.664062 64.121094 C 42.726562 64.851562 42.847656 65.566406 43.527344 66.238281 Z M 39.585938 49.535156 C 40.003906 48.988281 40.390625 48.507812 40.746094 48.007812 C 40.835938 47.882812 41.070312 47.585938 40.652344 47.601562 C 40.125 47.617188 40.359375 47.417969 40.496094 47.214844 C 40.792969 46.761719 41.117188 46.328125 41.363281 45.84375 C 41.765625 45.035156 41.566406 44.628906 40.589844 44.195312 C 41.300781 45.472656 40.652344 46.390625 39.957031 47.277344 C 39.800781 47.480469 39.617188 47.664062 39.460938 47.867188 C 39.382812 47.960938 39.257812 48.148438 39.429688 48.179688 C 40.28125 48.351562 39.507812 48.613281 39.429688 48.691406 C 38.917969 49.300781 38.363281 49.859375 38.144531 50.65625 C 38.425781 50.792969 38.625 50.359375 38.886719 50.65625 C 38.457031 51.355469 37.820312 51.945312 37.527344 52.910156 C 37.867188 52.679688 38.070312 52.523438 38.285156 52.398438 C 38.5 52.257812 38.703125 51.992188 39.058594 52.164062 C 38.917969 52.726562 38.5 53.160156 38.441406 53.785156 C 39.199219 52.832031 39.199219 52.832031 40.296875 53.207031 C 39.289062 51.820312 39.691406 50.609375 40.527344 49.425781 C 40.09375 49.378906 39.957031 49.671875 39.585938 49.535156 Z M 35.238281 40.628906 C 35.65625 40.847656 34.449219 41.128906 35.421875 41.238281 C 35.625 41.253906 35.53125 41.40625 35.4375 41.515625 C 35.363281 41.609375 35.144531 41.8125 35.5 41.75 C 35.902344 41.6875 36.027344 42 36.226562 42.21875 C 36.984375 43.089844 37.820312 43.867188 38.980469 44.117188 C 39.257812 44.179688 39.707031 44.320312 39.816406 43.976562 C 39.925781 43.617188 39.476562 43.539062 39.214844 43.414062 C 38.996094 43.324219 38.78125 43.261719 38.5625 43.183594 C 36.414062 42.386719 35.4375 40.832031 35.75 38.527344 C 35.824219 38 35.640625 37.796875 35.191406 37.75 C 34.246094 37.65625 33.304688 37.40625 32.390625 37.734375 C 33.101562 37.90625 33.875 37.890625 34.632812 38.167969 C 34.261719 38.496094 33.84375 38.417969 33.445312 38.511719 C 33.953125 38.589844 34.433594 38.683594 34.976562 38.777344 C 34.664062 39.152344 34.21875 39.042969 33.9375 39.289062 C 34.230469 39.414062 34.835938 39.335938 34.757812 39.460938 C 34.292969 40.164062 35.300781 39.585938 35.128906 39.945312 C 34.992188 40.316406 34.464844 40.285156 34.308594 40.722656 C 34.679688 40.691406 35.003906 40.660156 35.238281 40.628906 Z M 66.46875 24.734375 C 66.917969 24.703125 67.179688 24.347656 67.675781 24.410156 C 67.148438 24.984375 66.6875 25.484375 66.222656 25.980469 C 66.253906 26.027344 66.269531 26.058594 66.300781 26.105469 C 68.433594 25.25 70.554688 24.394531 72.6875 23.535156 C 72.671875 23.507812 72.65625 23.476562 72.65625 23.445312 C 71.3125 23.769531 69.980469 24.097656 68.636719 24.425781 C 68.621094 24.378906 68.589844 24.316406 68.574219 24.269531 C 69.453125 23.769531 70.335938 23.273438 71.21875 22.773438 C 71.1875 22.726562 71.171875 22.695312 71.140625 22.648438 C 69.855469 23.085938 68.589844 23.523438 67.304688 23.957031 C 67.273438 23.910156 67.242188 23.863281 67.210938 23.816406 C 67.613281 23.320312 68.015625 22.820312 68.417969 22.324219 C 68.371094 22.292969 68.339844 22.246094 68.292969 22.214844 C 67.550781 22.789062 66.808594 23.351562 65.929688 24.035156 C 66.328125 24.003906 66.546875 23.832031 66.808594 23.988281 C 66.703125 24.222656 66.59375 24.457031 66.46875 24.734375 Z M 44.550781 12.5 C 44.472656 13.046875 44.859375 13.511719 44.628906 14.148438 C 44.117188 13.386719 43.667969 12.71875 43.21875 12.03125 C 43.1875 12.046875 43.15625 12.078125 43.125 12.09375 C 43.761719 13.496094 44.410156 14.898438 45.074219 16.375 C 45.230469 15.800781 45.015625 15.285156 45.261719 14.632812 C 45.894531 15.613281 46.453125 16.46875 47.007812 17.324219 C 47.054688 17.292969 47.085938 17.277344 47.132812 17.25 C 46.683594 15.894531 46.25 14.523438 45.804688 13.167969 C 45.679688 13.636719 45.957031 14.074219 45.773438 14.601562 C 45.292969 13.917969 45.074219 13.136719 44.550781 12.5 Z M 37.078125 20.578125 C 37.636719 21.527344 38.144531 22.417969 38.671875 23.304688 C 38.609375 23.351562 38.5625 23.382812 38.5 23.429688 C 37.851562 22.976562 37.203125 22.523438 36.398438 21.980469 C 36.644531 22.835938 37.21875 23.335938 37.324219 24.144531 C 36.894531 23.894531 36.550781 23.707031 36.058594 23.429688 C 36.476562 24.207031 36.800781 24.828125 37.125 25.4375 C 37.25 24.984375 36.816406 24.734375 36.9375 24.285156 C 37.386719 24.410156 37.605469 24.90625 38.113281 25.015625 C 37.773438 24.285156 37.480469 23.628906 37.078125 22.757812 C 37.929688 23.164062 38.347656 23.832031 39.167969 24.144531 C 38.5625 22.789062 38.671875 21.25 37.078125 20.578125 Z M 50.273438 65.925781 C 50.273438 66.453125 50.472656 67 50.042969 67.203125 C 49.453125 67.464844 48.925781 67.886719 48.183594 67.902344 C 47.394531 67.902344 46.546875 67.730469 45.820312 68.355469 C 45.570312 68.570312 45.214844 68.402344 45 68.136719 C 44.796875 67.902344 44.644531 67.636719 44.472656 67.390625 C 44.597656 68.804688 45.214844 69.179688 46.453125 68.554688 C 46.730469 68.417969 46.992188 68.246094 47.320312 68.277344 C 48.355469 68.371094 49.300781 68.027344 50.257812 67.746094 C 51.109375 67.496094 51.203125 67.21875 50.707031 66.46875 C 50.613281 66.332031 50.488281 66.207031 50.273438 65.925781 Z M 59.246094 22.929688 C 58.796875 21.761719 59.261719 20.378906 58.378906 19.347656 C 58.347656 20.035156 58.75 20.609375 58.75 21.480469 C 58.425781 21 58.195312 20.671875 57.960938 20.316406 C 57.621094 21 57.851562 21.730469 57.683594 22.402344 C 57.21875 22.277344 57.25 21.730469 56.894531 21.558594 C 56.816406 22.027344 56.878906 21.980469 57.1875 22.308594 C 57.480469 22.601562 57.621094 23.023438 57.835938 23.398438 C 57.882812 23.382812 57.945312 23.382812 57.992188 23.367188 C 57.992188 22.585938 57.992188 21.824219 57.992188 21.046875 C 58.054688 21.03125 58.101562 21.03125 58.164062 21.015625 C 58.535156 21.652344 58.890625 22.292969 59.246094 22.929688 Z M 61.953125 18.351562 C 62.152344 18.789062 61.9375 19.394531 62.773438 19.535156 C 63.328125 19.613281 63.808594 20.378906 64.382812 20.890625 C 64.257812 20.222656 63.792969 19.769531 63.777344 19.085938 C 64.425781 19.425781 64.722656 20.050781 65.433594 20.515625 C 65.078125 19.707031 64.796875 19.101562 64.503906 18.445312 C 64.320312 18.710938 64.628906 18.945312 64.382812 19.179688 C 64.070312 18.898438 63.761719 18.632812 63.390625 18.304688 C 63.453125 18.804688 63.484375 19.195312 63.5625 19.785156 C 62.925781 19.226562 62.433594 18.789062 61.953125 18.351562 Z M 62 22.914062 C 62.03125 22.898438 62.0625 22.898438 62.105469 22.882812 C 61.84375 21.902344 61.566406 20.90625 61.300781 19.925781 C 61.363281 19.878906 61.425781 19.832031 61.488281 19.785156 C 62.046875 20.40625 62.601562 21.03125 63.160156 21.667969 C 63.207031 21.621094 63.25 21.574219 63.296875 21.511719 C 63.066406 21.0625 63.035156 20.546875 62.355469 20.332031 C 61.796875 20.144531 61.488281 19.394531 60.902344 19.023438 C 60.929688 19.597656 61.226562 20.050781 61.179688 20.546875 C 60.960938 20.546875 60.960938 20.285156 60.730469 20.347656 C 61.148438 21.21875 61.582031 22.074219 62 22.914062 Z M 42.445312 21.3125 C 42.230469 21.421875 42.632812 21.902344 42.246094 21.714844 C 41.410156 21.328125 41.378906 21.933594 41.238281 22.539062 C 40.898438 22.167969 40.636719 21.855469 40.328125 21.527344 C 40.296875 21.683594 40.28125 21.730469 40.28125 21.777344 C 40.21875 22.214844 40.683594 22.835938 40.234375 23.054688 C 39.832031 23.257812 39.570312 22.523438 39.367188 22.433594 C 39.632812 22.710938 40.03125 23.148438 40.496094 23.644531 C 40.449219 22.773438 40.714844 22.386719 41.609375 23.070312 C 41.410156 21.777344 42.089844 21.839844 42.894531 22.136719 C 42.816406 21.730469 42.648438 21.542969 42.445312 21.3125 Z M 42.445312 21.3125 "/>
</g>
</svg>
