<?xml version="1.0" encoding="UTF-8"?>
<svg xmlns="http://www.w3.org/2000/svg" xmlns:xlink="http://www.w3.org/1999/xlink" width="78px" height="99px" viewBox="0 0 78 99" version="1.1">
<g id="surface1">
<path style=" stroke:none;fill-rule:nonzero;fill:rgb(99.607843%,99.607843%,99.607843%);fill-opacity:1;" d="M 2.335938 99.230469 C 1.632812 99.230469 0.652344 99.507812 0.304688 99.160156 C -0.046875 98.816406 0.234375 97.84375 0.234375 97.148438 C 0.234375 65.183594 0.234375 33.238281 0.210938 1.273438 C 0.210938 0.417969 0.398438 0.207031 1.285156 0.207031 C 21.089844 0.230469 40.914062 0.230469 60.71875 0.230469 C 62.191406 4.117188 65.320312 6.824219 67.816406 9.96875 C 68.660156 11.035156 69.476562 12.074219 70.222656 13.230469 C 71.625 15.382812 71.835938 17.648438 70.992188 20.054688 C 70.292969 22.066406 69.242188 23.894531 68.191406 25.746094 C 66.066406 29.074219 63.894531 32.359375 61.300781 35.367188 C 60.695312 35.992188 60.132812 36.683594 59.550781 37.355469 C 57.800781 39.367188 55.605469 40.457031 52.941406 40.734375 C 48.878906 41.519531 45.046875 42.882812 41.523438 45.058594 C 37.644531 47.535156 34.609375 50.796875 32.25 54.703125 C 31.96875 55.167969 31.714844 55.628906 31.457031 56.09375 C 30.804688 57.664062 29.820312 58.914062 28.140625 59.539062 C 27.605469 59.746094 27.183594 60.164062 26.714844 60.535156 C 25.222656 61.734375 23.796875 62.984375 22.910156 64.742188 C 21.789062 66.0625 21.273438 67.632812 20.949219 69.253906 C 20.761719 70.109375 20.339844 70.59375 19.5 70.851562 C 17.933594 71.3125 16.394531 71.867188 15.015625 72.769531 C 14.269531 73.277344 13.636719 73.09375 13.054688 72.492188 C 12.261719 71.683594 11.464844 70.894531 10.507812 70.292969 C 9.527344 69.671875 9.132812 69.855469 8.992188 71.011719 C 8.617188 73.972656 8.757812 76.933594 9.621094 79.800781 C 9.832031 80.519531 9.855469 81.234375 9.667969 81.953125 C 9.15625 83.824219 9.316406 85.628906 10.4375 87.273438 C 11.023438 88.128906 10.859375 88.800781 10.183594 89.539062 C 8.148438 91.738281 5.722656 93.355469 2.988281 94.558594 C 2.429688 94.8125 1.84375 95.066406 1.402344 95.507812 C 0.46875 96.457031 0.605469 97.84375 1.679688 98.605469 C 1.9375 98.722656 2.382812 98.746094 2.335938 99.230469 Z M 2.335938 99.230469 "/>
<path style=" stroke:none;fill-rule:nonzero;fill:rgb(99.607843%,99.607843%,99.607843%);fill-opacity:1;" d="M 78.234375 19.660156 C 78.234375 45.867188 78.234375 72.097656 78.257812 98.304688 C 78.257812 99.09375 78.09375 99.253906 77.300781 99.253906 C 52.613281 99.230469 27.953125 99.230469 3.269531 99.230469 C 3.246094 98.699219 3.714844 98.769531 3.992188 98.675781 C 7.566406 97.75 10.367188 95.738281 12.5625 92.847656 C 13.476562 91.644531 13.542969 91.621094 14.804688 92.40625 C 16.769531 93.585938 18.332031 93.449219 19.96875 91.828125 C 20.785156 91.019531 21.671875 90.371094 22.746094 89.980469 C 24.3125 89.378906 25.96875 88.984375 27.160156 87.6875 C 27.582031 87.132812 28.1875 86.71875 28.492188 86.09375 C 29.214844 84.660156 30.359375 84.125 31.925781 84.359375 C 32.742188 84.40625 33.535156 84.171875 34.351562 84.058594 C 34.65625 84.011719 35.007812 83.917969 35.214844 84.195312 C 35.496094 84.542969 35.261719 84.867188 35.078125 85.144531 C 34.421875 86.070312 33.699219 86.902344 33.042969 87.804688 C 32.953125 87.921875 32.859375 88.035156 32.765625 88.175781 C 32.226562 89.078125 31.316406 89.957031 32.15625 91.089844 C 32.835938 92.015625 35.054688 92.269531 36.199219 91.667969 C 37.527344 90.949219 38.253906 89.703125 38.953125 88.453125 C 40.425781 85.746094 41.617188 82.902344 42.738281 80.03125 C 43.578125 77.996094 44.535156 76.03125 45.539062 74.066406 C 46.03125 73.117188 46.660156 72.351562 47.617188 71.796875 C 49.113281 70.964844 50.394531 69.832031 51.585938 68.605469 C 52.078125 68.46875 52.289062 68.8125 52.476562 69.160156 C 53.386719 70.734375 54.4375 72.214844 55.652344 73.578125 C 56.140625 74.132812 56.164062 74.644531 55.835938 75.269531 C 55.019531 76.886719 54.203125 78.507812 53.386719 80.125 C 53.175781 80.542969 52.871094 80.910156 52.5 81.1875 C 51.609375 81.835938 50.933594 82.691406 50.304688 83.570312 C 49.742188 84.359375 49.253906 85.144531 49.90625 86.09375 C 50.417969 86.855469 51.726562 87.273438 52.730469 87.019531 C 53.527344 86.808594 54.25 86.441406 54.761719 85.769531 C 57.566406 82.066406 60.066406 78.160156 62.46875 74.203125 C 63.449219 72.585938 63.101562 71.660156 61.417969 70.710938 C 61.046875 70.503906 60.648438 70.339844 60.273438 70.132812 C 58.40625 69.136719 58.03125 67.914062 59.082031 66.015625 C 59.925781 64.535156 60.859375 63.125 61.675781 61.621094 C 62.703125 59.722656 63.730469 57.828125 64.269531 55.699219 C 65.085938 52.367188 64.222656 49.382812 62.515625 46.539062 C 62.191406 46.007812 61.839844 45.5 61.464844 45.011719 C 61 44.433594 60.929688 43.832031 61.417969 43.230469 C 63.941406 40.480469 66.207031 37.519531 68.707031 34.765625 C 70.738281 32.265625 72.863281 29.816406 74.707031 27.15625 C 76.039062 25.234375 77.019531 23.175781 77.507812 20.886719 C 77.601562 20.472656 77.648438 20.054688 77.90625 19.707031 C 78.023438 19.59375 78.117188 19.59375 78.234375 19.660156 Z M 78.234375 19.660156 "/>
<path style=" stroke:none;fill-rule:nonzero;fill:rgb(0.784314%,0%,1.176471%);fill-opacity:1;" d="M 22.886719 90.1875 C 21.859375 90.671875 20.972656 91.296875 20.128906 92.0625 C 18.167969 93.886719 16.769531 94.003906 14.503906 92.546875 C 13.800781 92.082031 13.476562 92.015625 12.890625 92.800781 C 10.507812 96.015625 7.496094 98.375 3.363281 99.046875 C 3.316406 99.046875 3.292969 99.160156 3.246094 99.230469 C 2.941406 99.230469 2.617188 99.230469 2.3125 99.230469 C 1.796875 98.792969 1.050781 98.746094 0.699219 98.050781 C -0.046875 96.640625 0.515625 95.207031 2.3125 94.441406 C 4.179688 93.65625 5.933594 92.707031 7.542969 91.484375 C 8.570312 90.71875 9.503906 89.839844 10.320312 88.84375 C 10.671875 88.429688 10.71875 88.105469 10.34375 87.644531 C 8.945312 85.863281 8.757812 83.824219 9.386719 81.722656 C 9.597656 81.050781 9.503906 80.472656 9.316406 79.824219 C 8.335938 76.75 8.3125 73.601562 8.734375 70.433594 C 8.898438 69.230469 9.203125 69.136719 10.277344 69.714844 C 11.488281 70.386719 12.449219 71.335938 13.382812 72.332031 C 13.824219 72.816406 14.152344 73 14.804688 72.515625 C 16.183594 71.496094 17.796875 70.894531 19.476562 70.480469 C 20.128906 70.316406 20.480469 70.085938 20.597656 69.300781 C 20.832031 67.679688 21.4375 66.175781 22.347656 64.789062 C 22.488281 64.558594 22.628906 64.464844 22.886719 64.441406 C 23.375 64.972656 23.167969 65.574219 22.933594 66.0625 C 21.695312 68.582031 21.648438 71.335938 21.71875 73.972656 C 21.789062 76.863281 21.742188 79.730469 21.859375 82.625 C 21.882812 83.015625 21.953125 83.410156 22.253906 83.6875 C 23.285156 84.660156 22.980469 85.699219 22.441406 86.742188 C 22.277344 87.042969 22.070312 87.320312 21.976562 87.664062 C 21.8125 88.40625 21.71875 89.125 22.722656 89.425781 C 23.027344 89.609375 23.421875 89.792969 22.886719 90.1875 Z M 22.886719 90.1875 "/>
<path style=" stroke:none;fill-rule:nonzero;fill:rgb(16.862746%,17.647059%,19.607843%);fill-opacity:1;" d="M 78.046875 19.683594 C 77.484375 23.6875 75.453125 26.949219 72.957031 30 C 71.625 31.644531 70.246094 33.261719 68.890625 34.882812 C 67.886719 34.8125 67.445312 34.1875 67.421875 33.285156 C 67.351562 31.367188 67.398438 29.445312 67.398438 27.527344 C 67.398438 26.832031 67.980469 26.347656 67.933594 25.675781 C 68.890625 23.871094 69.941406 22.113281 70.644531 20.191406 C 71.601562 17.554688 71.273438 15.128906 69.664062 12.835938 C 67.609375 9.945312 65.085938 7.402344 62.9375 4.578125 C 61.957031 3.285156 60.671875 2.082031 60.742188 0.253906 C 61.140625 0.253906 61.511719 0.253906 61.910156 0.253906 C 64.105469 0.695312 65.855469 1.964844 67.632812 3.167969 C 71.226562 5.574219 74.542969 8.328125 76.691406 12.214844 C 77.578125 13.808594 78.1875 15.496094 78.117188 17.371094 C 78.070312 18.132812 78.210938 18.921875 78.046875 19.683594 Z M 78.046875 19.683594 "/>
<path style=" stroke:none;fill-rule:nonzero;fill:rgb(99.607843%,99.607843%,99.607843%);fill-opacity:1;" d="M 78.046875 17.09375 C 77.230469 11.703125 73.726562 8.140625 69.664062 4.972656 C 67.234375 3.121094 64.664062 1.503906 61.886719 0.230469 C 67.09375 0.230469 72.324219 0.230469 77.53125 0.207031 C 78.117188 0.207031 78.257812 0.347656 78.257812 0.925781 C 78.234375 6.316406 78.234375 11.726562 78.234375 17.117188 C 78.164062 17.234375 78.09375 17.210938 78.046875 17.09375 Z M 78.046875 17.09375 "/>
<path style=" stroke:none;fill-rule:nonzero;fill:rgb(12.941177%,13.333334%,15.294118%);fill-opacity:1;" d="M 61.675781 43.324219 C 61.164062 43.808594 61.1875 44.25 61.628906 44.804688 C 62.492188 45.84375 63.195312 47 63.777344 48.226562 C 65.414062 51.71875 65.132812 55.167969 63.589844 58.613281 C 62.5625 60.902344 61.1875 63.007812 59.902344 65.160156 C 59.621094 65.621094 59.339844 66.085938 59.105469 66.570312 C 58.429688 68.074219 58.734375 68.953125 60.179688 69.738281 C 60.882812 70.132812 61.628906 70.480469 62.304688 70.917969 C 63.402344 71.636719 63.660156 72.398438 63.078125 73.578125 C 62.585938 74.621094 61.957031 75.589844 61.324219 76.5625 C 59.292969 79.707031 57.308594 82.878906 55.019531 85.839844 C 53.828125 87.363281 52.195312 87.78125 50.582031 86.996094 C 49.183594 86.324219 48.832031 85.285156 49.601562 83.988281 C 50 83.339844 50.464844 82.667969 51.050781 82.183594 C 52.847656 80.703125 53.710938 78.667969 54.832031 76.726562 C 55.835938 74.988281 55.929688 73.695312 54.273438 72.332031 C 53.363281 71.566406 52.824219 70.457031 52.265625 69.371094 C 52.125 69.09375 52.101562 68.652344 51.585938 68.769531 C 50.863281 68.699219 50.628906 68.191406 50.535156 67.589844 C 50.464844 67.101562 50.488281 66.59375 50.488281 66.085938 C 50.488281 58.9375 50.558594 51.765625 50.441406 44.621094 C 50.417969 42.605469 50.675781 41.058594 52.894531 40.457031 C 56.398438 40.222656 58.640625 38.027344 60.671875 35.503906 C 60.789062 35.367188 60.953125 35.273438 61.117188 35.160156 C 61.886719 35.503906 61.347656 35.945312 61.164062 36.292969 C 60.414062 37.726562 59.878906 39.230469 60.042969 40.894531 C 60.132812 41.820312 60.132812 42.769531 61.417969 42.90625 C 61.652344 42.90625 61.792969 43.09375 61.675781 43.324219 Z M 61.675781 43.324219 "/>
<path style=" stroke:none;fill-rule:nonzero;fill:rgb(6.27451%,5.882353%,7.843138%);fill-opacity:1;" d="M 42.992188 80.054688 C 41.824219 83.246094 40.519531 86.371094 38.789062 89.308594 C 38.300781 90.140625 37.738281 90.925781 36.96875 91.550781 C 35.636719 92.617188 33.371094 92.59375 32.085938 91.503906 C 31.410156 90.949219 31.386719 90.257812 31.691406 89.515625 C 32.25 88.128906 33.300781 87.066406 34.164062 85.90625 C 34.539062 85.398438 35.054688 84.9375 35.238281 84.21875 C 34.121094 84.289062 33.066406 84.726562 31.992188 84.636719 C 31.738281 84.425781 31.410156 84.472656 31.105469 84.40625 C 30.21875 84.21875 29.613281 83.710938 29.589844 82.761719 C 29.542969 81.144531 29.496094 79.570312 29.960938 77.949219 C 30.59375 75.730469 30.289062 73.441406 29.9375 71.195312 C 29.378906 67.613281 29.519531 63.980469 29.613281 60.371094 C 29.636719 59.167969 30.523438 58.175781 30.894531 57.039062 C 31.011719 56.671875 31.292969 56.371094 31.246094 55.953125 C 33.488281 51.675781 36.59375 48.136719 40.542969 45.3125 C 40.773438 45.128906 41.078125 45.011719 41.335938 44.875 C 41.894531 44.964844 41.707031 45.382812 41.640625 45.660156 C 41.523438 46.261719 41.453125 46.886719 41.453125 47.488281 C 41.453125 58.429688 41.453125 69.347656 41.453125 80.289062 C 41.453125 80.542969 41.382812 80.820312 41.570312 81.167969 C 41.894531 80.820312 41.988281 80.332031 42.339844 80.054688 C 42.527344 79.917969 42.785156 79.476562 42.992188 80.054688 Z M 42.992188 80.054688 "/>
<path style=" stroke:none;fill-rule:nonzero;fill:rgb(10.196079%,10.196079%,12.156863%);fill-opacity:1;" d="M 42.992188 80.054688 C 42.339844 79.894531 42.433594 80.519531 42.269531 80.796875 C 41.988281 81.28125 41.894531 81.882812 41.359375 82.230469 C 40.9375 82 41.125 81.605469 41.125 81.304688 C 41.125 69.808594 41.125 58.3125 41.078125 46.816406 C 41.078125 46.121094 41.6875 45.566406 41.335938 44.875 C 44.863281 42.515625 48.785156 41.148438 52.964844 40.457031 C 52.871094 40.734375 52.660156 40.941406 52.335938 41.058594 C 51.285156 41.425781 50.886719 42.050781 50.886719 43.207031 C 50.933594 51.121094 50.933594 59.054688 50.910156 66.964844 C 50.910156 67.703125 51.027344 68.304688 51.65625 68.746094 C 50.628906 70.132812 49.277344 71.152344 47.804688 71.984375 C 46.964844 72.46875 46.402344 73.140625 45.9375 73.949219 C 44.769531 75.914062 43.996094 78.042969 42.992188 80.054688 Z M 42.992188 80.054688 "/>
<path style=" stroke:none;fill-rule:nonzero;fill:rgb(3.529412%,2.745098%,4.705882%);fill-opacity:1;" d="M 22.886719 90.1875 C 22.910156 90.023438 23.074219 89.792969 22.746094 89.746094 C 22.300781 89.679688 21.695312 89.886719 21.554688 89.285156 C 21.390625 88.5 21.296875 87.664062 21.859375 86.972656 C 22.164062 86.601562 22.347656 86.230469 22.464844 85.769531 C 22.699219 85.027344 22.722656 84.449219 21.929688 84.011719 C 21.460938 83.757812 21.460938 83.269531 21.460938 82.785156 C 21.460938 80.65625 21.507812 78.550781 21.4375 76.425781 C 21.390625 74.851562 21.484375 73.300781 21.414062 71.75 C 21.296875 69.554688 22.070312 67.613281 22.699219 65.597656 C 22.816406 65.230469 22.886719 64.859375 22.839844 64.464844 C 22.628906 63.957031 23.050781 63.679688 23.304688 63.378906 C 24.242188 62.222656 25.199219 61.089844 26.507812 60.300781 C 27.253906 60.371094 27.019531 60.902344 26.808594 61.179688 C 26.15625 62.015625 26.203125 62.914062 26.226562 63.910156 C 26.273438 65.183594 26.273438 66.453125 26.203125 67.726562 C 26.15625 68.605469 26.414062 69.300781 27.089844 69.855469 C 27.160156 70.039062 27.089844 70.203125 26.972656 70.339844 C 26.109375 70.894531 25.222656 71.449219 24.425781 72.074219 C 23.890625 72.5625 23.261719 72.929688 22.769531 73.441406 C 22.652344 73.578125 22.511719 73.648438 22.441406 73.808594 C 22.605469 73.832031 22.652344 73.671875 22.769531 73.601562 C 23.285156 73.070312 23.960938 72.699219 24.472656 72.144531 C 25.152344 71.730469 25.640625 70.851562 26.667969 71.265625 C 26.855469 72.238281 26.25 73.09375 26.25 74.066406 C 26.226562 78.183594 26.460938 82.300781 26.132812 86.417969 C 26.085938 86.996094 26.273438 87.386719 26.902344 87.503906 C 27.113281 87.550781 27.394531 87.550781 27.347656 87.898438 C 26.109375 89.167969 24.519531 89.703125 22.886719 90.1875 Z M 22.886719 90.1875 "/>
<path style=" stroke:none;fill-rule:nonzero;fill:rgb(3.921569%,3.137255%,5.098039%);fill-opacity:1;" d="M 27.089844 70.039062 C 26.015625 69.714844 25.898438 68.953125 25.875 67.933594 C 25.851562 66.199219 26.203125 64.464844 25.710938 62.730469 C 25.570312 62.246094 26.015625 61.828125 26.320312 61.414062 C 26.53125 61.113281 27.136719 60.789062 26.53125 60.300781 C 26.925781 60 27.277344 59.632812 27.71875 59.421875 C 29.355469 58.683594 30.546875 57.574219 31.246094 55.929688 C 31.316406 57.109375 30.828125 58.175781 30.335938 59.167969 C 30.054688 59.746094 29.867188 60.277344 29.890625 60.902344 C 30.007812 63.308594 29.960938 65.738281 30.03125 68.144531 C 30.101562 70.894531 31.011719 73.554688 30.617188 76.332031 C 30.546875 76.75 30.640625 77.164062 30.453125 77.582031 C 29.753906 79.109375 29.960938 80.726562 29.890625 82.324219 C 29.820312 83.503906 30.40625 84.011719 31.457031 84.171875 C 31.761719 84.21875 31.992188 84.289062 32.015625 84.613281 C 30.453125 84.40625 29.355469 84.984375 28.679688 86.441406 C 28.421875 87.019531 27.8125 87.433594 27.371094 87.921875 C 25.617188 87.804688 25.640625 87.710938 25.898438 85.792969 C 26.0625 84.496094 25.96875 83.179688 25.96875 81.882812 C 25.96875 79.570312 25.96875 77.28125 25.96875 74.96875 C 25.96875 73.808594 25.828125 72.652344 26.574219 71.636719 C 26.667969 71.496094 26.574219 71.335938 26.4375 71.242188 C 26.460938 70.59375 27.042969 70.570312 27.441406 70.363281 C 28.257812 70.203125 28.539062 70.710938 28.746094 71.335938 C 29.355469 73.117188 29.472656 74.945312 29.449219 76.816406 C 29.425781 76.65625 29.449219 76.515625 29.449219 76.355469 C 29.613281 75.589844 29.636719 74.851562 29.449219 74.109375 C 29.261719 73.347656 29.144531 72.5625 28.980469 71.773438 C 28.65625 70.132812 28.632812 70.132812 27.089844 70.039062 Z M 27.089844 70.039062 "/>
<path style=" stroke:none;fill-rule:nonzero;fill:rgb(14.509805%,15.294118%,17.254902%);fill-opacity:1;" d="M 61.675781 43.324219 C 61.605469 43.230469 61.511719 43.09375 61.441406 43.09375 C 59.832031 43.347656 59.878906 42.144531 59.785156 41.171875 C 59.597656 39.277344 59.996094 37.519531 61.117188 35.945312 C 61.253906 35.738281 61.558594 35.4375 61.164062 35.160156 C 63.683594 32.175781 65.738281 28.890625 67.910156 25.675781 C 68.097656 25.789062 68.214844 25.953125 68.121094 26.160156 C 67.257812 28.542969 67.910156 31.019531 67.703125 33.425781 C 67.609375 34.324219 68.542969 34.347656 68.867188 34.882812 C 66.488281 37.679688 64.082031 40.503906 61.675781 43.324219 Z M 61.675781 43.324219 "/>
<path style=" stroke:none;fill-rule:nonzero;fill:rgb(87.843138%,51.372552%,24.313726%);fill-opacity:1;" d="M 13.242188 85.953125 C 13.335938 86.855469 13.125 87.066406 12.539062 86.808594 C 11.652344 86.464844 10.953125 85.886719 10.4375 85.074219 C 10.277344 84.796875 10.113281 84.519531 10.507812 84.289062 C 10.835938 84.105469 11.023438 84.289062 11.1875 84.519531 C 11.375 84.773438 11.511719 85.027344 11.675781 85.304688 C 11.769531 85.46875 11.863281 85.628906 12.121094 85.492188 C 12.402344 85.304688 12.5625 84.636719 12.960938 84.984375 C 13.242188 85.238281 13.195312 85.839844 13.242188 85.953125 Z M 13.242188 85.953125 "/>
<path style=" stroke:none;fill-rule:nonzero;fill:rgb(89.803922%,50.196081%,21.960784%);fill-opacity:1;" d="M 19.453125 84.867188 C 19.734375 85.214844 19.96875 85.515625 20.246094 85.863281 C 20.550781 85.46875 20.808594 85.144531 21.089844 84.84375 C 21.25 84.660156 21.460938 84.382812 21.765625 84.636719 C 22.070312 84.890625 22 85.167969 21.765625 85.445312 C 21.179688 86.070312 20.597656 86.671875 19.734375 86.949219 C 18.960938 87.203125 18.707031 86.925781 18.917969 86.183594 C 19.03125 85.746094 19.078125 85.304688 19.453125 84.867188 Z M 19.453125 84.867188 "/>
<path style=" stroke:none;fill-rule:nonzero;fill:rgb(42.352942%,42.745098%,44.313726%);fill-opacity:1;" d="M 29.683594 76.332031 C 29.589844 76.792969 29.472656 77.28125 29.378906 77.742188 C 29.332031 77.742188 29.285156 77.742188 29.214844 77.71875 C 29.121094 76.492188 29.027344 75.269531 28.957031 74.042969 C 28.910156 73.070312 28.632812 72.167969 28.375 71.242188 C 28.210938 70.640625 27.882812 70.433594 27.277344 70.550781 C 26.996094 70.734375 26.808594 70.6875 26.808594 70.316406 C 26.902344 70.226562 26.972656 70.15625 27.066406 70.0625 C 28.632812 69.414062 28.746094 69.4375 29.144531 71.128906 C 29.378906 72.097656 29.519531 73.070312 29.683594 74.042969 C 29.796875 74.804688 29.820312 75.570312 29.683594 76.332031 Z M 29.683594 76.332031 "/>
<path style=" stroke:none;fill-rule:nonzero;fill:rgb(25.098041%,25.490198%,27.058825%);fill-opacity:1;" d="M 26.832031 70.316406 C 26.925781 70.503906 27.113281 70.527344 27.300781 70.550781 C 26.996094 70.78125 26.691406 71.011719 26.390625 71.242188 C 25.757812 71.636719 25.152344 72.03125 24.519531 72.421875 C 24.125 72.421875 24.125 72.214844 24.289062 71.9375 C 25.105469 71.335938 25.78125 70.527344 26.832031 70.316406 Z M 26.832031 70.316406 "/>
<path style=" stroke:none;fill-rule:nonzero;fill:rgb(12.156863%,12.156863%,13.333334%);fill-opacity:1;" d="M 24.289062 71.9375 C 24.289062 72.121094 24.335938 72.308594 24.519531 72.421875 C 24.125 73.070312 23.398438 73.300781 22.886719 73.789062 C 22.488281 73.789062 22.488281 73.601562 22.652344 73.324219 C 23.027344 72.675781 23.773438 72.421875 24.289062 71.9375 Z M 24.289062 71.9375 "/>
<path style=" stroke:none;fill-rule:nonzero;fill:rgb(3.921569%,3.137255%,5.098039%);fill-opacity:1;" d="M 22.652344 73.324219 C 22.652344 73.511719 22.699219 73.695312 22.886719 73.789062 C 22.699219 74.089844 22.535156 74.390625 22.140625 74.410156 C 22.046875 74.410156 21.882812 74.296875 21.882812 74.226562 C 21.90625 73.71875 22.324219 73.554688 22.652344 73.324219 Z M 22.652344 73.324219 "/>
<path style=" stroke:none;fill-rule:nonzero;fill:rgb(6.27451%,5.882353%,7.843138%);fill-opacity:1;" d="M 29.683594 76.332031 C 29.683594 75.570312 29.683594 74.804688 29.683594 74.042969 C 30.007812 74.804688 30.007812 75.570312 29.683594 76.332031 Z M 29.683594 76.332031 "/>
</g>
</svg>
