<?xml version="1.0" encoding="UTF-8"?>
<svg xmlns="http://www.w3.org/2000/svg" xmlns:xlink="http://www.w3.org/1999/xlink" width="57px" height="100px" viewBox="0 0 57 100" version="1.1">
<g id="surface1">
<path style=" stroke:none;fill-rule:nonzero;fill:rgb(99.607843%,99.607843%,99.607843%);fill-opacity:1;" d="M 41.070312 100.300781 C 27.789062 100.300781 14.511719 100.300781 1.230469 100.300781 C 0.417969 100.300781 0.214844 100.203125 0.214844 99.296875 C 0.214844 66.597656 0.214844 33.804688 0.214844 1.105469 C 0.214844 0.203125 0.417969 0.101562 1.332031 0.101562 C 19.679688 0.101562 38.03125 0.101562 56.378906 0.101562 C 57.1875 0.101562 57.492188 0.203125 57.492188 1.105469 C 57.492188 33.804688 57.492188 66.597656 57.492188 99.296875 C 57.492188 100.101562 57.289062 100.300781 56.480469 100.300781 C 51.714844 100.300781 46.949219 100.300781 42.085938 100.300781 C 42.085938 99.699219 42.589844 99.796875 42.894531 99.597656 C 44.820312 98.792969 46.644531 97.886719 48.472656 96.882812 C 51.410156 95.070312 53.539062 92.453125 55.261719 89.4375 C 56.480469 87.324219 56.175781 86.417969 54.554688 84.507812 C 48.371094 77.261719 41.273438 70.824219 34.582031 64.085938 C 33.46875 62.976562 32.25 62.074219 31.136719 60.964844 C 29.414062 59.355469 27.183594 58.753906 24.851562 58.550781 C 22.925781 58.449219 21.300781 57.746094 19.984375 56.339844 C 17.347656 53.722656 14.914062 50.90625 12.484375 48.1875 C 11.976562 47.585938 11.46875 46.980469 10.757812 46.679688 C 9.644531 46.277344 9.441406 45.273438 9.542969 44.164062 C 9.542969 42.957031 9.949219 41.648438 10.355469 40.542969 C 10.554688 39.941406 11.0625 39.4375 11.671875 39.234375 C 13.597656 38.53125 15.320312 38.933594 16.941406 40.242188 C 17.550781 40.746094 18.058594 41.449219 18.566406 42.050781 C 20.085938 43.863281 24.445312 43.5625 25.761719 41.550781 C 25.863281 41.347656 26.066406 41.046875 25.964844 40.746094 C 24.546875 40.945312 23.835938 40.644531 23.632812 39.738281 C 23.429688 38.730469 24.140625 37.726562 25.257812 37.425781 C 25.863281 37.222656 26.472656 37.324219 27.082031 37.425781 C 29.210938 37.828125 31.238281 38.632812 33.46875 38.832031 C 36.304688 39.035156 38.941406 38.429688 40.96875 36.316406 C 42.085938 35.109375 42.589844 33.703125 42.386719 32.09375 C 42.289062 31.488281 42.1875 31.1875 41.476562 31.589844 C 39.550781 32.695312 38.03125 32.394531 36.8125 30.785156 C 35.699219 29.277344 35.902344 27.566406 37.320312 26.15625 C 38.230469 25.25 39.449219 24.949219 40.765625 24.75 C 44.113281 24.246094 46.546875 22.433594 47.457031 19.214844 C 48.066406 17.203125 47.863281 15.191406 47.152344 13.179688 C 46.644531 13.480469 46.644531 13.882812 46.445312 14.183594 C 45.632812 15.996094 43.707031 17.203125 41.679688 17.203125 C 40.5625 17.203125 39.753906 16.699219 39.144531 15.792969 C 37.21875 12.777344 38.433594 8.652344 41.679688 7.042969 C 42.894531 6.4375 42.894531 6.339844 41.882812 5.433594 C 40.765625 4.527344 39.550781 4.125 38.03125 4.324219 C 35.191406 4.828125 31.84375 6.742188 31.339844 10.5625 C 30.933594 13.078125 28.90625 14.789062 26.371094 15.191406 C 25.257812 15.390625 24.242188 14.988281 23.53125 14.183594 C 22.621094 13.179688 22.722656 11.769531 23.734375 10.863281 C 24.546875 10.160156 25.457031 9.757812 26.371094 9.457031 C 29.613281 8.652344 30.933594 6.035156 29.3125 2.515625 C 29.414062 2.214844 29.3125 2.011719 29.210938 1.910156 C 29.109375 1.910156 29.007812 1.910156 29.007812 2.011719 C 27.789062 4.726562 25.558594 6.136719 22.824219 6.742188 C 21.402344 7.042969 20.085938 7.34375 18.667969 7.746094 C 12.382812 9.65625 8.527344 13.78125 7.109375 20.222656 C 6.601562 22.433594 6.703125 24.75 7.414062 26.859375 C 7.71875 27.765625 7.515625 28.371094 6.601562 28.875 C 5.488281 29.476562 4.371094 30.28125 3.257812 31.085938 C 2.34375 31.789062 1.738281 32.59375 1.636719 33.804688 C 1.332031 35.816406 1.027344 38.027344 1.027344 40.140625 C 0.925781 41.75 0.722656 43.257812 0.722656 44.871094 C 0.722656 45.976562 1.128906 46.78125 2.039062 47.285156 C 3.054688 47.988281 3.96875 48.792969 4.980469 49.394531 C 5.183594 49.496094 5.488281 49.699219 5.589844 49.898438 C 7.414062 53.117188 10.152344 55.632812 12.484375 58.449219 C 14.105469 60.460938 15.015625 62.476562 14.710938 65.292969 C 14.308594 69.515625 15.828125 73.339844 18.464844 76.761719 C 19.78125 78.371094 21.097656 79.980469 22.621094 81.488281 C 27.6875 86.417969 32.65625 91.449219 37.726562 96.378906 C 38.839844 97.484375 39.753906 98.691406 40.867188 99.699219 C 40.96875 99.898438 41.171875 100.101562 41.070312 100.300781 Z M 41.070312 100.300781 "/>
<path style=" stroke:none;fill-rule:nonzero;fill:rgb(0.392157%,0.392157%,0.392157%);fill-opacity:1;" d="M 41.070312 100.300781 C 38.332031 97.585938 35.699219 94.871094 32.960938 92.152344 C 29.210938 88.328125 25.355469 84.609375 21.503906 80.785156 C 18.566406 77.867188 15.929688 74.648438 14.914062 70.523438 C 14.410156 68.511719 14.003906 66.597656 14.410156 64.488281 C 14.710938 62.777344 14.105469 61.269531 13.089844 59.960938 C 10.960938 57.445312 8.832031 54.929688 6.703125 52.414062 C 6.195312 51.8125 5.488281 51.308594 5.488281 50.402344 C 5.488281 50.101562 5.285156 50.101562 5.082031 50 C 3.96875 49.296875 3.054688 48.289062 1.839844 47.585938 C 0.925781 46.980469 0.417969 46.175781 0.417969 45.070312 C 0.519531 41.148438 0.824219 37.121094 1.332031 33.199219 C 1.535156 31.589844 2.851562 30.984375 3.867188 30.28125 C 4.777344 29.578125 5.792969 29.074219 6.804688 28.371094 C 7.109375 28.167969 7.3125 27.96875 7.210938 27.464844 C 4.371094 18.914062 9.949219 9.15625 19.679688 7.042969 C 21.199219 6.742188 22.722656 6.4375 24.242188 5.9375 C 26.371094 5.230469 27.890625 3.921875 28.703125 1.8125 C 28.804688 1.609375 28.90625 1.308594 29.109375 1.105469 C 30.832031 3.320312 31.035156 6.136719 29.714844 7.847656 C 29.109375 8.753906 28.09375 9.15625 27.183594 9.558594 C 26.371094 9.859375 25.457031 10.058594 24.75 10.5625 C 23.835938 11.066406 23.027344 11.871094 23.429688 13.078125 C 23.835938 14.183594 25.15625 14.988281 26.472656 14.789062 C 28.804688 14.488281 31.035156 12.976562 31.441406 9.960938 C 31.945312 6.339844 36.609375 3.21875 40.160156 4.023438 C 41.476562 4.324219 42.386719 5.128906 43.199219 6.035156 C 43.503906 6.339844 43.503906 6.742188 42.996094 6.839844 C 40.359375 7.546875 39.246094 9.457031 38.839844 11.972656 C 38.636719 13.582031 39.144531 14.988281 40.160156 16.195312 C 40.5625 16.699219 41.171875 16.902344 41.882812 16.902344 C 44.113281 16.902344 45.835938 15.59375 46.746094 13.179688 C 46.847656 12.976562 46.746094 12.476562 47.152344 12.574219 C 47.355469 12.574219 47.660156 12.878906 47.761719 13.179688 C 49.789062 19.417969 46.34375 24.648438 40.664062 25.050781 C 39.449219 25.152344 38.332031 25.652344 37.523438 26.558594 C 36.304688 27.96875 36.304688 29.679688 37.625 31.085938 C 38.839844 32.394531 40.460938 32.394531 41.882812 31.1875 C 42.085938 30.984375 42.085938 30.683594 42.488281 30.683594 C 43.402344 35.3125 41.070312 38.328125 36.304688 39.136719 C 33.671875 39.539062 31.339844 38.933594 28.804688 38.230469 C 27.585938 37.925781 26.472656 37.425781 25.15625 37.828125 C 24.445312 38.027344 23.9375 38.53125 23.835938 39.234375 C 23.734375 39.738281 23.835938 40.242188 24.34375 40.644531 C 24.851562 40.945312 25.257812 40.84375 25.660156 40.441406 C 25.863281 40.34375 25.964844 40.039062 26.269531 40.039062 C 26.371094 41.550781 25.761719 42.355469 24.445312 42.957031 C 23.53125 43.359375 22.519531 43.5625 21.503906 43.5625 C 19.984375 43.660156 18.667969 43.058594 17.753906 41.75 C 16.234375 39.539062 13.902344 38.730469 11.671875 39.539062 C 11.265625 39.738281 10.859375 39.941406 10.65625 40.34375 C 10.050781 42.050781 9.542969 43.761719 9.847656 45.574219 C 9.847656 45.875 9.949219 46.175781 10.253906 46.277344 C 11.570312 46.578125 12.179688 47.6875 12.988281 48.492188 C 15.625 51.207031 17.957031 54.125 20.695312 56.742188 C 21.808594 57.847656 23.226562 58.351562 24.851562 58.449219 C 27.585938 58.652344 29.917969 59.457031 31.945312 61.367188 C 37.929688 66.902344 43.707031 72.636719 49.382812 78.472656 C 51.511719 80.683594 53.4375 83.199219 55.566406 85.414062 C 56.785156 86.621094 56.378906 88.027344 55.667969 89.4375 C 53.234375 93.863281 49.6875 97.183594 45.023438 99.296875 C 44.011719 99.699219 42.996094 100.101562 41.984375 100.503906 C 41.679688 100.300781 41.375 100.300781 41.070312 100.300781 Z M 41.070312 100.300781 "/>
<path style=" stroke:none;fill-rule:nonzero;fill:rgb(34.901962%,34.901962%,34.901962%);fill-opacity:1;" d="M 33.773438 37.925781 C 31.84375 37.726562 29.917969 37.222656 27.992188 36.71875 C 28.703125 36.015625 29.714844 35.914062 30.527344 35.714844 C 31.339844 35.511719 31.644531 35.011719 31.441406 34.207031 C 30.933594 32.191406 30.425781 30.179688 30.019531 28.167969 C 29.917969 27.664062 29.714844 27.566406 29.3125 27.566406 C 29.109375 27.566406 28.804688 27.566406 28.601562 27.566406 C 27.285156 27.765625 26.269531 27.566406 25.863281 25.957031 C 25.558594 24.75 24.445312 23.84375 23.226562 23.441406 C 22.417969 23.140625 22.011719 22.835938 22.011719 21.929688 C 22.011719 21.527344 21.910156 21.027344 21.910156 20.625 C 21.910156 19.71875 21.503906 19.617188 20.796875 20.019531 C 17.550781 21.929688 14.308594 23.945312 11.0625 25.855469 C 10.253906 26.359375 9.441406 26.761719 8.628906 27.164062 C 8.324219 27.363281 7.71875 27.566406 7.921875 26.761719 C 8.023438 25.050781 7.71875 23.441406 7.71875 21.730469 C 8.125 19.113281 8.832031 16.699219 10.355469 14.488281 C 12.28125 11.671875 14.8125 9.65625 18.058594 8.550781 C 19.984375 7.847656 22.011719 7.546875 23.9375 6.941406 C 26.371094 6.238281 28.296875 5.03125 29.414062 2.714844 C 30.832031 5.332031 29.714844 7.644531 27.484375 8.449219 C 26.066406 8.953125 24.445312 9.253906 23.328125 10.460938 C 22.316406 11.167969 22.011719 12.476562 22.519531 13.78125 C 24.140625 16.097656 26.574219 16.699219 29.007812 15.191406 C 29.414062 14.988281 29.816406 14.6875 30.222656 14.488281 C 30.730469 14.085938 31.339844 13.78125 31.441406 13.078125 C 32.046875 12.074219 32.148438 10.964844 32.25 9.859375 C 32.554688 7.445312 33.972656 6.136719 36.101562 5.332031 C 37.523438 4.726562 39.042969 4.726562 40.5625 4.726562 C 40.765625 4.828125 40.96875 4.929688 41.171875 5.03125 C 42.386719 5.734375 42.386719 6.035156 41.273438 6.640625 C 39.957031 7.445312 39.144531 8.550781 38.433594 9.757812 C 37.828125 10.261719 37.726562 10.964844 37.929688 11.671875 C 37.929688 11.871094 37.929688 12.074219 37.726562 12.171875 C 37.421875 13.179688 37.625 14.085938 38.03125 15.089844 C 39.957031 18.914062 44.316406 19.113281 46.746094 15.492188 C 46.949219 15.292969 46.949219 14.890625 47.457031 14.789062 C 47.355469 15.695312 47.660156 16.5 47.253906 17.304688 C 47.050781 18.109375 46.746094 18.914062 46.546875 19.820312 C 45.429688 22.535156 43.199219 23.640625 40.460938 23.84375 C 37.320312 24.144531 35.191406 26.15625 35.292969 29.074219 C 35.394531 30.785156 36.101562 32.09375 37.726562 32.796875 C 39.144531 33.402344 40.664062 33.300781 41.882812 32.191406 C 41.984375 32.09375 42.085938 32.09375 42.1875 31.992188 C 42.691406 34.304688 40.160156 37.023438 36.914062 37.828125 C 35.800781 37.523438 34.785156 37.828125 33.773438 37.925781 Z M 33.773438 37.925781 "/>
<path style=" stroke:none;fill-rule:nonzero;fill:rgb(33.333334%,33.333334%,33.333334%);fill-opacity:1;" d="M 18.667969 55.632812 C 20.1875 57.042969 21.707031 58.550781 23.9375 58.851562 C 24.140625 58.851562 24.445312 58.953125 24.648438 58.953125 C 27.484375 58.753906 29.613281 60.058594 31.644531 61.972656 C 36.507812 66.902344 41.578125 71.832031 46.445312 76.761719 C 49.179688 79.578125 52.019531 82.292969 54.453125 85.3125 C 54.554688 85.414062 54.554688 85.511719 54.65625 85.613281 C 48.269531 88.128906 43.199219 91.953125 40.664062 98.589844 C 39.246094 97.285156 37.828125 95.875 36.40625 94.46875 C 31.945312 89.839844 27.386719 85.414062 22.824219 80.785156 C 20.085938 78.070312 17.449219 75.25 16.132812 71.429688 C 15.320312 69.214844 14.914062 66.902344 15.21875 64.488281 C 15.523438 62.273438 14.410156 60.460938 13.089844 58.851562 C 10.960938 56.238281 8.832031 53.621094 6.5 51.105469 C 6.296875 50.90625 6.097656 50.703125 6.097656 50.300781 C 6.296875 48.894531 8.527344 47.082031 10.152344 47.082031 C 10.757812 47.382812 9.949219 47.6875 10.152344 47.988281 C 9.746094 48.492188 9.136719 48.589844 8.730469 48.894531 C 7.617188 49.699219 7.515625 50.605469 8.425781 51.609375 C 10.65625 53.921875 12.582031 56.539062 14.710938 58.953125 C 15.828125 60.261719 16.742188 61.769531 16.539062 63.683594 C 16.4375 64.890625 16.4375 65.996094 16.539062 67.203125 C 16.742188 71.527344 19.273438 74.75 22.011719 77.765625 C 25.558594 81.691406 29.515625 85.210938 33.164062 89.035156 C 35.089844 91.046875 37.015625 93.160156 39.144531 94.96875 C 40.160156 95.875 40.257812 95.875 40.867188 94.667969 C 43.097656 90.34375 46.546875 87.425781 51.105469 85.714844 C 52.324219 85.210938 52.324219 85.109375 51.511719 84.207031 C 46.949219 79.277344 42.289062 74.445312 37.523438 69.820312 C 34.988281 67.40625 32.453125 64.988281 29.816406 62.574219 C 28.601562 61.46875 27.082031 60.964844 25.457031 60.863281 C 21.910156 60.765625 20.085938 58.351562 18.058594 55.9375 C 17.957031 55.734375 17.855469 55.53125 18.058594 55.433594 C 18.363281 55.433594 18.566406 55.53125 18.667969 55.632812 Z M 18.667969 55.632812 "/>
<path style=" stroke:none;fill-rule:nonzero;fill:rgb(64.313728%,64.313728%,64.313728%);fill-opacity:1;" d="M 14.613281 37.523438 C 13.800781 37.726562 12.988281 38.027344 12.078125 38.230469 C 10.554688 38.53125 9.746094 39.4375 9.441406 40.84375 C 9.339844 41.550781 9.136719 42.253906 8.933594 42.855469 C 8.628906 43.761719 8.628906 44.769531 9.035156 45.675781 C 9.339844 46.078125 9.238281 46.378906 8.832031 46.578125 C 8.324219 46.882812 7.820312 47.082031 7.414062 47.382812 C 7.109375 47.484375 6.804688 47.585938 6.804688 47.082031 C 7.414062 46.882812 6.804688 46.578125 6.804688 46.378906 C 7.007812 45.675781 6.398438 45.171875 6.601562 44.566406 C 6.703125 44.667969 6.601562 44.769531 6.398438 44.96875 C 5.996094 43.359375 6.398438 41.953125 6.90625 40.441406 C 7.109375 39.839844 7.414062 39.234375 7.617188 38.53125 C 8.324219 37.726562 8.527344 36.820312 9.035156 35.914062 C 10.050781 34.609375 11.570312 33.902344 13.089844 33.402344 C 17.855469 31.789062 22.519531 29.878906 27.285156 28.472656 C 28.5 28.167969 28.90625 28.371094 29.210938 29.476562 C 29.414062 30.484375 29.714844 31.488281 30.019531 32.496094 C 29.714844 33.097656 30.527344 33.804688 30.019531 34.40625 C 27.484375 35.3125 24.851562 35.613281 22.214844 36.015625 C 21.402344 35.816406 20.59375 36.21875 19.882812 36.316406 C 18.769531 36.71875 17.550781 36.820312 16.4375 37.023438 C 15.828125 37.023438 15.21875 37.324219 14.613281 37.523438 Z M 14.613281 37.523438 "/>
<path style=" stroke:none;fill-rule:nonzero;fill:rgb(64.705884%,64.705884%,64.705884%);fill-opacity:1;" d="M 6.703125 47.183594 C 6.804688 47.382812 7.109375 47.484375 7.3125 47.484375 C 6.804688 48.289062 6.296875 48.289062 5.691406 47.585938 C 5.386719 47.183594 5.082031 46.882812 4.777344 46.480469 C 4.675781 45.773438 4.472656 45.273438 4.066406 44.667969 C 3.359375 43.460938 3.5625 42.152344 3.664062 40.84375 C 3.664062 40.644531 3.765625 40.441406 3.5625 40.242188 C 4.066406 36.71875 4.980469 33.402344 8.425781 31.289062 C 10.355469 30.179688 12.28125 29.074219 14.207031 28.070312 C 16.539062 26.960938 18.769531 25.753906 20.898438 24.246094 C 21.199219 24.042969 21.503906 23.945312 21.910156 24.042969 C 23.632812 24.445312 25.15625 26.054688 25.355469 27.867188 C 25.457031 28.371094 25.257812 28.671875 24.75 28.773438 C 20.59375 29.980469 16.640625 31.691406 12.582031 33.097656 C 9.644531 34.105469 7.921875 36.015625 6.90625 38.832031 C 6.5 40.242188 6.097656 41.648438 5.792969 43.058594 C 5.589844 43.660156 5.488281 44.367188 5.792969 44.96875 C 6.097656 45.675781 6.097656 46.578125 6.703125 47.183594 Z M 6.703125 47.183594 "/>
<path style=" stroke:none;fill-rule:nonzero;fill:rgb(64.705884%,64.705884%,64.705884%);fill-opacity:1;" d="M 3.359375 44.96875 C 4.066406 46.175781 4.878906 47.382812 6.097656 48.1875 C 6.804688 48.691406 6.097656 48.894531 5.996094 49.195312 C 5.792969 49.699219 5.488281 49.394531 5.285156 49.195312 C 4.371094 48.390625 3.359375 47.484375 2.445312 46.679688 C 1.636719 45.574219 1.839844 44.265625 1.738281 43.058594 C 1.738281 42.65625 1.738281 42.152344 1.941406 41.75 C 2.039062 41.953125 2.039062 42.152344 2.039062 42.050781 C 1.941406 41.449219 2.140625 40.542969 1.941406 39.636719 C 2.039062 38.632812 2.140625 37.523438 2.140625 36.519531 C 2.445312 36.015625 2.546875 35.414062 2.546875 34.910156 C 2.445312 33.402344 3.054688 32.292969 4.066406 31.1875 C 5.386719 29.878906 7.109375 28.972656 8.730469 27.96875 C 11.671875 26.257812 14.613281 24.546875 17.550781 22.835938 C 18.363281 22.835938 18.871094 22.335938 19.476562 21.832031 C 19.78125 21.628906 20.085938 21.429688 20.289062 21.226562 C 21.097656 20.625 21.300781 21.027344 21.097656 21.832031 C 21.199219 22.835938 20.59375 23.542969 19.882812 24.246094 C 17.753906 25.855469 15.421875 26.960938 13.089844 28.167969 C 11.570312 28.972656 10.050781 29.878906 8.527344 30.683594 C 5.691406 32.191406 4.269531 34.707031 3.5625 37.726562 C 3.359375 38.730469 3.054688 39.738281 2.851562 40.746094 C 2.648438 42.152344 2.445312 43.660156 3.359375 44.96875 Z M 3.359375 44.96875 "/>
<path style=" stroke:none;fill-rule:nonzero;fill:rgb(19.607843%,19.607843%,19.607843%);fill-opacity:1;" d="M 41.070312 99.296875 C 43.097656 93.863281 50.902344 87.222656 55.058594 87.425781 C 52.425781 93.660156 47.660156 97.285156 41.070312 99.296875 Z M 41.070312 99.296875 "/>
<path style=" stroke:none;fill-rule:nonzero;fill:rgb(34.901962%,34.901962%,34.901962%);fill-opacity:1;" d="M 17.957031 40.140625 C 17.246094 39.636719 16.539062 39.136719 15.726562 38.53125 C 16.839844 38.328125 17.753906 38.128906 18.769531 37.925781 C 20.1875 38.230469 21.503906 37.625 22.925781 37.425781 C 23.429688 37.121094 23.835938 37.222656 23.632812 37.828125 C 23.128906 40.242188 23.128906 40.242188 24.953125 41.648438 C 23.835938 42.65625 21.605469 42.855469 19.984375 42.152344 C 19.273438 41.449219 18.464844 40.945312 17.957031 40.140625 Z M 17.957031 40.140625 "/>
<path style=" stroke:none;fill-rule:nonzero;fill:rgb(38.431373%,38.431373%,38.431373%);fill-opacity:1;" d="M 10.152344 47.886719 C 9.949219 47.6875 10.453125 47.382812 10.152344 47.183594 C 11.367188 47.6875 12.28125 48.589844 13.089844 49.597656 C 14.511719 51.105469 16.132812 52.515625 17.246094 54.226562 C 17.144531 54.324219 17.042969 54.324219 16.941406 54.425781 C 16.335938 54.324219 16.03125 53.921875 15.726562 53.519531 C 14.003906 51.507812 12.179688 49.597656 10.152344 47.886719 Z M 10.152344 47.886719 "/>
<path style=" stroke:none;fill-rule:nonzero;fill:rgb(67.058825%,67.058825%,67.058825%);fill-opacity:1;" d="M 3.664062 40.140625 C 4.269531 40.84375 3.96875 41.75 3.96875 42.453125 C 3.96875 43.359375 3.96875 44.0625 4.675781 44.667969 C 5.082031 45.070312 5.082031 45.773438 4.878906 46.378906 C 3.460938 44.566406 2.953125 42.453125 3.664062 40.140625 Z M 3.664062 40.140625 "/>
<path style=" stroke:none;fill-rule:nonzero;fill:rgb(70.588237%,70.588237%,70.588237%);fill-opacity:1;" d="M 4.066406 31.1875 C 4.066406 31.289062 4.167969 31.386719 4.167969 31.386719 C 2.648438 32.695312 2.851562 34.507812 2.546875 36.117188 C 2.546875 36.316406 2.34375 36.417969 2.140625 36.519531 C 2.34375 34.609375 1.941406 32.496094 4.066406 31.1875 Z M 4.066406 31.1875 "/>
<path style=" stroke:none;fill-rule:nonzero;fill:rgb(39.607844%,39.607844%,39.607844%);fill-opacity:1;" d="M 40.5625 4.726562 C 39.042969 4.929688 37.523438 5.03125 36.101562 5.332031 C 37.421875 4.425781 38.941406 4.324219 40.5625 4.726562 Z M 40.5625 4.726562 "/>
<path style=" stroke:none;fill-rule:nonzero;fill:rgb(44.705883%,44.705883%,44.705883%);fill-opacity:1;" d="M 7.515625 21.832031 C 7.617188 23.542969 8.125 25.152344 7.71875 26.859375 C 7.515625 25.152344 7.3125 23.542969 7.515625 21.832031 Z M 7.515625 21.832031 "/>
<path style=" stroke:none;fill-rule:nonzero;fill:rgb(71.372551%,71.372551%,71.372551%);fill-opacity:1;" d="M 9.136719 36.015625 C 8.933594 37.023438 8.628906 38.027344 7.71875 38.632812 C 7.921875 37.625 8.425781 36.71875 9.136719 36.015625 Z M 9.136719 36.015625 "/>
<path style=" stroke:none;fill-rule:nonzero;fill:rgb(76.47059%,76.47059%,76.47059%);fill-opacity:1;" d="M 3.359375 44.96875 C 2.851562 44.871094 2.75 44.367188 2.75 44.0625 C 2.546875 42.957031 2.648438 41.75 2.75 40.644531 C 2.75 40.644531 2.851562 40.644531 2.851562 40.644531 C 2.851562 40.644531 2.953125 40.644531 2.953125 40.746094 C 2.75 42.152344 2.851562 43.5625 3.359375 44.96875 Z M 3.359375 44.96875 "/>
<path style=" stroke:none;fill-rule:nonzero;fill:rgb(44.705883%,44.705883%,44.705883%);fill-opacity:1;" d="M 22.316406 13.882812 C 22.316406 13.882812 22.316406 13.984375 22.316406 13.984375 C 22.316406 13.984375 22.316406 14.085938 22.316406 14.085938 C 21.503906 13.078125 22.011719 10.964844 23.226562 10.460938 C 22.214844 11.46875 22.113281 12.574219 22.316406 13.882812 Z M 22.316406 13.882812 "/>
<path style=" stroke:none;fill-rule:nonzero;fill:rgb(44.313726%,44.313726%,44.313726%);fill-opacity:1;" d="M 22.824219 37.425781 C 21.503906 37.828125 20.1875 38.53125 18.667969 37.925781 C 20.085938 37.828125 21.402344 37.625 22.824219 37.425781 Z M 22.824219 37.425781 "/>
<path style=" stroke:none;fill-rule:nonzero;fill:rgb(78.039217%,78.039217%,78.039217%);fill-opacity:1;" d="M 1.636719 43.058594 C 1.839844 44.265625 2.140625 45.472656 2.34375 46.679688 C 1.230469 45.675781 1.738281 44.265625 1.636719 43.058594 Z M 1.636719 43.058594 "/>
<path style=" stroke:none;fill-rule:nonzero;fill:rgb(43.921569%,43.921569%,43.921569%);fill-opacity:1;" d="M 17.957031 40.140625 C 18.769531 40.644531 19.476562 41.246094 19.882812 42.152344 C 18.96875 41.75 18.363281 41.046875 17.957031 40.140625 Z M 17.957031 40.140625 "/>
<path style=" stroke:none;fill-rule:nonzero;fill:rgb(43.921569%,43.921569%,43.921569%);fill-opacity:1;" d="M 33.773438 37.925781 C 34.785156 37.523438 35.800781 37.222656 36.914062 37.625 C 35.800781 37.828125 34.785156 38.128906 33.773438 37.925781 Z M 33.773438 37.925781 "/>
<path style=" stroke:none;fill-rule:nonzero;fill:rgb(74.509805%,74.509805%,74.509805%);fill-opacity:1;" d="M 19.882812 24.246094 C 19.882812 24.144531 19.78125 23.945312 19.78125 23.945312 C 20.59375 23.441406 20.695312 22.535156 21 21.832031 C 21.300781 22.9375 21 23.742188 19.882812 24.246094 Z M 19.882812 24.246094 "/>
<path style=" stroke:none;fill-rule:nonzero;fill:rgb(74.901962%,74.901962%,74.901962%);fill-opacity:1;" d="M 9.035156 45.675781 C 8.324219 44.667969 8.628906 43.660156 8.832031 42.554688 C 8.832031 42.554688 8.933594 42.554688 8.933594 42.554688 C 8.933594 42.65625 9.035156 42.65625 9.035156 42.757812 C 8.933594 43.761719 9.035156 44.769531 9.035156 45.675781 Z M 9.035156 45.675781 "/>
<path style=" stroke:none;fill-rule:nonzero;fill:rgb(70.588237%,70.588237%,70.588237%);fill-opacity:1;" d="M 19.375 21.832031 C 19.070312 22.636719 18.464844 23.140625 17.449219 22.835938 C 18.058594 22.535156 18.769531 22.132812 19.375 21.832031 Z M 19.375 21.832031 "/>
<path style=" stroke:none;fill-rule:nonzero;fill:rgb(45.09804%,45.09804%,45.09804%);fill-opacity:1;" d="M 46.445312 19.71875 C 46.242188 18.8125 47.050781 18.109375 46.949219 17.203125 C 46.949219 17.203125 47.050781 17.203125 47.050781 17.203125 C 47.050781 17.203125 47.152344 17.203125 47.152344 17.304688 C 47.152344 18.109375 46.949219 19.015625 46.445312 19.71875 Z M 46.445312 19.71875 "/>
<path style=" stroke:none;fill-rule:nonzero;fill:rgb(76.078433%,76.078433%,76.078433%);fill-opacity:1;" d="M 1.941406 39.738281 C 2.34375 40.644531 2.039062 41.648438 2.039062 42.65625 C 2.039062 42.355469 1.941406 42.152344 1.941406 41.851562 C 1.839844 41.046875 1.839844 40.34375 1.941406 39.738281 Z M 1.941406 39.738281 "/>
<path style=" stroke:none;fill-rule:nonzero;fill:rgb(74.509805%,74.509805%,74.509805%);fill-opacity:1;" d="M 14.613281 37.523438 C 15.21875 37.121094 15.726562 36.621094 16.539062 37.222656 C 15.828125 37.324219 15.21875 37.425781 14.613281 37.523438 Z M 14.613281 37.523438 "/>
<path style=" stroke:none;fill-rule:nonzero;fill:rgb(75.294119%,75.294119%,75.294119%);fill-opacity:1;" d="M 19.882812 36.519531 C 20.59375 36.117188 21.402344 35.816406 22.214844 36.21875 C 21.503906 36.316406 20.695312 36.621094 19.882812 36.519531 Z M 19.882812 36.519531 "/>
<path style=" stroke:none;fill-rule:nonzero;fill:rgb(45.490196%,45.490196%,45.490196%);fill-opacity:1;" d="M 37.929688 15.089844 C 37.320312 14.183594 37.21875 13.179688 37.625 12.171875 C 37.523438 13.179688 37.828125 14.085938 37.929688 15.089844 Z M 37.929688 15.089844 "/>
<path style=" stroke:none;fill-rule:nonzero;fill:rgb(47.450981%,47.450981%,47.450981%);fill-opacity:1;" d="M 16.839844 54.226562 C 16.941406 54.226562 17.042969 54.226562 17.246094 54.226562 C 17.753906 54.726562 18.261719 55.230469 18.667969 55.734375 C 18.464844 55.734375 18.363281 55.734375 18.160156 55.734375 C 17.449219 55.433594 17.042969 54.929688 16.839844 54.226562 Z M 16.839844 54.226562 "/>
<path style=" stroke:none;fill-rule:nonzero;fill:rgb(45.490196%,45.490196%,45.490196%);fill-opacity:1;" d="M 31.339844 13.078125 C 31.441406 13.984375 30.832031 14.285156 30.121094 14.488281 C 30.527344 14.085938 30.933594 13.582031 31.339844 13.078125 Z M 31.339844 13.078125 "/>
<path style=" stroke:none;fill-rule:nonzero;fill:rgb(45.882353%,45.882353%,45.882353%);fill-opacity:1;" d="M 37.828125 11.671875 C 37.421875 10.863281 37.523438 10.261719 38.332031 9.757812 C 38.128906 10.363281 37.929688 10.964844 37.828125 11.671875 Z M 37.828125 11.671875 "/>
<path style=" stroke:none;fill-rule:nonzero;fill:rgb(76.862746%,76.862746%,76.862746%);fill-opacity:1;" d="M 6.5 45.070312 C 6.5 44.871094 6.601562 44.667969 6.601562 44.566406 C 6.5 45.273438 7.3125 45.773438 6.804688 46.480469 C 6.601562 45.976562 6.398438 45.574219 6.5 45.070312 Z M 6.5 45.070312 "/>
<path style=" stroke:none;fill-rule:nonzero;fill:rgb(73.333335%,73.333335%,73.333335%);fill-opacity:1;" d="M 30.121094 34.609375 C 30.324219 34.003906 29.515625 33.300781 30.121094 32.695312 C 30.121094 33.300781 30.730469 34.003906 30.121094 34.609375 Z M 30.121094 34.609375 "/>
<path style=" stroke:none;fill-rule:nonzero;fill:rgb(77.254903%,77.254903%,77.254903%);fill-opacity:1;" d="M 5.792969 44.96875 C 5.285156 44.265625 5.488281 43.5625 5.589844 42.855469 C 5.589844 42.855469 5.691406 42.855469 5.691406 42.855469 C 5.691406 42.957031 5.792969 42.957031 5.792969 43.058594 C 5.792969 43.761719 5.792969 44.367188 5.792969 44.96875 Z M 5.792969 44.96875 "/>
<path style=" stroke:none;fill-rule:nonzero;fill:rgb(0.392157%,0.392157%,0.392157%);fill-opacity:1;" d="M 16.839844 54.226562 C 17.246094 54.726562 17.753906 55.128906 18.160156 55.632812 C 19.273438 56.839844 20.390625 58.148438 21.605469 59.355469 C 22.519531 60.363281 23.9375 60.5625 25.15625 60.5625 C 27.789062 60.765625 29.816406 62.074219 31.742188 63.882812 C 37.726562 69.617188 43.707031 75.351562 49.484375 81.488281 C 50.5 82.496094 51.410156 83.601562 52.324219 84.609375 C 52.933594 85.210938 52.933594 85.613281 52.019531 85.914062 C 47.050781 87.523438 43.503906 90.746094 41.171875 95.273438 C 40.5625 96.480469 40.359375 96.480469 39.449219 95.574219 C 33.46875 89.636719 27.285156 83.804688 21.605469 77.464844 C 19.375 75.050781 17.449219 72.433594 16.742188 69.113281 C 16.640625 68.511719 16.742188 67.90625 16.539062 67.304688 C 16.4375 65.996094 16.4375 64.789062 16.539062 63.480469 C 16.4375 61.570312 15.523438 60.058594 14.308594 58.652344 C 12.179688 56.238281 10.152344 53.824219 8.125 51.410156 C 7.3125 50.503906 7.515625 49.597656 8.527344 48.691406 C 9.035156 48.289062 9.746094 47.988281 10.253906 47.6875 C 12.179688 48.589844 13.394531 50.300781 14.8125 51.710938 C 15.421875 52.617188 16.132812 53.421875 16.839844 54.226562 Z M 16.839844 54.226562 "/>
<path style=" stroke:none;fill-rule:nonzero;fill:rgb(43.529412%,43.529412%,43.529412%);fill-opacity:1;" d="M 16.4375 63.582031 C 16.4375 64.890625 16.4375 66.097656 16.4375 67.40625 C 16.132812 66.195312 16.132812 64.890625 16.4375 63.582031 Z M 16.4375 63.582031 "/>
<path style=" stroke:none;fill-rule:nonzero;fill:rgb(16.862746%,16.862746%,16.862746%);fill-opacity:1;" d="M 18.667969 71.929688 C 20.1875 72.738281 21.707031 73.238281 23.429688 72.9375 C 25.054688 72.636719 26.167969 72.03125 26.167969 70.222656 C 26.167969 69.617188 26.371094 69.515625 27.082031 69.417969 C 29.714844 69.113281 32.351562 69.515625 34.886719 68.613281 C 35.394531 68.410156 35.699219 68.613281 36.101562 68.914062 C 39.753906 72.535156 43.300781 76.15625 46.746094 79.980469 C 48.167969 81.589844 49.6875 83.199219 51.207031 84.707031 C 51.714844 85.210938 51.714844 85.511719 51.003906 85.714844 C 48.066406 86.820312 45.53125 88.429688 43.402344 90.746094 C 42.386719 91.851562 41.375 92.957031 40.765625 94.367188 C 40.359375 95.371094 39.855469 95.273438 39.246094 94.667969 C 37.726562 93.160156 36.203125 91.75 34.785156 90.242188 C 31.238281 86.417969 27.585938 82.898438 23.9375 79.277344 C 22.011719 77.261719 20.289062 75.050781 18.769531 72.835938 C 18.667969 72.433594 18.464844 72.234375 18.667969 71.929688 Z M 18.667969 71.929688 "/>
<path style=" stroke:none;fill-rule:nonzero;fill:rgb(45.882353%,45.882353%,45.882353%);fill-opacity:1;" d="M 21.199219 63.28125 C 21.605469 66.296875 22.417969 69.214844 22.722656 72.234375 C 20.390625 72.535156 19.070312 71.628906 18.566406 69.515625 C 18.160156 67.605469 17.753906 65.792969 17.449219 63.882812 C 17.042969 61.570312 15.929688 59.757812 14.410156 58.148438 C 12.382812 56.035156 10.453125 53.722656 8.425781 51.609375 C 7.617188 50.703125 7.921875 50 8.628906 49.394531 C 9.441406 48.589844 10.554688 48.492188 11.265625 49.296875 C 12.886719 50.90625 14.410156 52.617188 15.929688 54.324219 C 17.652344 56.238281 19.375 58.148438 21.199219 59.960938 C 22.417969 61.167969 23.835938 62.074219 24.648438 63.683594 C 25.457031 65.191406 25.863281 66.800781 25.457031 68.511719 C 25.355469 69.214844 25.355469 69.917969 25.355469 70.722656 C 25.355469 71.628906 24.242188 72.636719 23.328125 72.535156 C 22.722656 72.433594 23.027344 71.929688 23.027344 71.730469 C 22.925781 68.613281 22.316406 65.894531 21.199219 63.28125 Z M 21.199219 63.28125 "/>
<path style=" stroke:none;fill-rule:nonzero;fill:rgb(33.725491%,33.725491%,33.725491%);fill-opacity:1;" d="M 25.457031 61.167969 C 27.6875 61.367188 29.414062 62.375 30.933594 63.984375 C 32.25 65.292969 33.570312 66.5 35.089844 67.90625 C 33.265625 68.511719 31.441406 68.410156 29.714844 68.613281 C 29.3125 68.613281 29.007812 68.613281 28.601562 68.613281 C 26.167969 68.613281 26.167969 68.613281 26.269531 66.195312 C 26.269531 64.789062 25.761719 63.683594 24.953125 62.574219 C 24.140625 61.570312 24.140625 61.367188 25.457031 61.167969 Z M 25.457031 61.167969 "/>
<path style=" stroke:none;fill-rule:nonzero;fill:rgb(40.000001%,40.000001%,40.000001%);fill-opacity:1;" d="M 25.457031 61.167969 C 24.445312 61.46875 24.445312 61.871094 25.054688 62.574219 C 25.863281 63.582031 26.574219 64.789062 26.167969 66.195312 C 25.660156 64.285156 24.851562 62.476562 23.027344 60.863281 C 24.140625 61.066406 24.75 61.167969 25.457031 61.167969 Z M 25.457031 61.167969 "/>
</g>
</svg>
