<?xml version="1.0" encoding="UTF-8"?>
<svg xmlns="http://www.w3.org/2000/svg" xmlns:xlink="http://www.w3.org/1999/xlink" width="57px" height="100px" viewBox="0 0 57 100" version="1.1">
<g id="surface1">
<path style=" stroke:none;fill-rule:nonzero;fill:rgb(99.607843%,99.607843%,99.607843%);fill-opacity:1;" d="M 41.070312 100.300781 C 27.789062 100.300781 14.511719 100.300781 1.230469 100.300781 C 0.417969 100.300781 0.214844 100.203125 0.214844 99.296875 C 0.214844 66.597656 0.214844 33.804688 0.214844 1.105469 C 0.214844 0.203125 0.417969 0.101562 1.332031 0.101562 C 19.679688 0.101562 38.03125 0.101562 56.378906 0.101562 C 57.1875 0.101562 57.492188 0.203125 57.492188 1.105469 C 57.492188 33.804688 57.492188 66.597656 57.492188 99.296875 C 57.492188 100.101562 57.289062 100.300781 56.480469 100.300781 C 51.816406 100.300781 47.050781 100.300781 42.386719 100.300781 C 43.199219 99.699219 44.214844 99.496094 45.125 99.09375 C 49.890625 96.882812 53.640625 93.5625 55.972656 88.832031 C 56.582031 87.523438 56.683594 86.21875 55.667969 85.210938 C 53.539062 82.996094 51.714844 80.582031 49.585938 78.371094 C 43.910156 72.535156 38.128906 66.800781 32.148438 61.269531 C 30.121094 59.355469 27.6875 58.449219 24.953125 58.351562 C 23.429688 58.25 22.011719 57.746094 20.898438 56.742188 C 18.058594 54.125 15.726562 51.105469 13.089844 48.390625 C 12.28125 47.585938 11.671875 46.578125 10.453125 46.378906 C 10.050781 46.277344 10.050781 45.976562 9.949219 45.675781 C 9.644531 43.863281 10.152344 42.152344 10.757812 40.542969 C 10.960938 40.039062 11.367188 39.839844 11.875 39.636719 C 14.105469 38.933594 16.4375 39.636719 17.957031 41.953125 C 18.871094 43.359375 20.289062 43.761719 21.808594 43.761719 C 22.722656 43.761719 23.53125 43.460938 24.445312 43.257812 C 25.761719 42.855469 26.777344 41.75 26.472656 40.242188 C 26.167969 40.242188 25.964844 40.542969 25.761719 40.644531 C 25.355469 40.945312 24.953125 41.046875 24.546875 40.746094 C 24.140625 40.441406 23.9375 40.039062 23.9375 39.636719 C 23.9375 38.832031 24.34375 38.328125 25.15625 38.027344 C 26.167969 37.625 27.183594 37.925781 28.09375 38.230469 C 30.832031 38.933594 33.46875 39.839844 36.40625 39.335938 C 41.171875 38.53125 43.402344 35.511719 42.589844 30.886719 C 42.289062 30.886719 42.289062 31.085938 42.1875 31.1875 C 40.867188 32.496094 39.246094 32.59375 38.03125 31.589844 C 37.117188 30.785156 36.507812 29.777344 36.710938 28.570312 C 37.015625 27.0625 38.128906 25.957031 39.652344 25.554688 C 40.664062 25.25 41.78125 25.25 42.792969 24.949219 C 48.269531 22.9375 49.28125 18.109375 47.761719 13.378906 C 47.660156 13.078125 47.355469 12.878906 47.152344 12.878906 C 46.644531 12.375 46.746094 12.777344 46.644531 13.078125 C 45.734375 15.492188 44.113281 16.800781 41.984375 16.800781 C 40.96875 16.800781 40.257812 16.398438 39.652344 15.59375 C 37.523438 12.476562 39.347656 7.746094 42.691406 6.839844 C 43.402344 6.640625 43.605469 6.339844 42.996094 5.835938 C 42.1875 4.929688 41.273438 4.226562 40.160156 4.023438 C 36.609375 3.21875 31.945312 6.238281 31.339844 9.859375 C 30.832031 12.675781 29.210938 14.285156 26.472656 14.6875 C 25.355469 14.890625 24.34375 14.585938 23.734375 13.683594 C 23.027344 12.675781 23.226562 11.671875 24.140625 10.964844 C 25.15625 10.160156 26.371094 9.859375 27.484375 9.457031 C 29.210938 8.753906 30.324219 7.644531 30.527344 5.835938 C 30.628906 4.125 30.019531 2.714844 29.210938 1.308594 C 28.804688 1.410156 28.804688 1.710938 28.703125 2.011719 C 27.789062 4.726562 25.558594 5.9375 23.027344 6.640625 C 21.707031 7.042969 20.289062 7.34375 18.96875 7.644531 C 10.050781 9.457031 4.371094 18.8125 7.210938 27.363281 C 7.3125 27.765625 7.210938 28.070312 6.90625 28.269531 C 5.589844 29.074219 4.269531 29.980469 2.953125 30.886719 C 2.140625 31.386719 1.535156 32.09375 1.332031 33.097656 C 0.824219 37.023438 0.519531 40.945312 0.417969 44.96875 C 0.417969 46.175781 0.824219 46.980469 1.839844 47.585938 C 2.953125 48.289062 3.867188 49.296875 5.183594 49.898438 C 5.386719 50 5.589844 50.101562 5.589844 50.402344 C 5.589844 51.105469 6.097656 51.609375 6.5 52.011719 C 8.425781 54.324219 10.453125 56.539062 12.382812 58.851562 C 13.699219 60.460938 14.914062 62.171875 14.410156 64.386719 C 14.105469 66.097656 14.308594 67.707031 14.613281 69.316406 C 15.320312 73.640625 17.753906 76.960938 20.695312 79.980469 C 25.054688 84.507812 29.613281 88.933594 34.074219 93.359375 C 36.507812 95.675781 38.738281 97.988281 41.070312 100.300781 Z M 41.070312 100.300781 "/>
<path style=" stroke:none;fill-rule:nonzero;fill:rgb(6.27451%,5.490196%,4.705882%);fill-opacity:1;" d="M 41.070312 100.300781 C 38.738281 97.988281 36.507812 95.675781 34.175781 93.359375 C 29.714844 88.933594 25.15625 84.507812 20.796875 79.980469 C 17.855469 76.960938 15.421875 73.640625 14.710938 69.316406 C 14.410156 67.707031 14.207031 66.097656 14.511719 64.386719 C 14.914062 62.171875 13.800781 60.460938 12.484375 58.851562 C 10.554688 56.539062 8.527344 54.324219 6.601562 52.011719 C 6.195312 51.507812 5.691406 51.105469 5.691406 50.402344 C 5.691406 50.101562 5.488281 50 5.285156 49.898438 C 3.867188 49.296875 2.953125 48.289062 1.839844 47.585938 C 0.925781 46.980469 0.417969 46.175781 0.417969 44.96875 C 0.519531 41.046875 0.824219 37.023438 1.332031 33.097656 C 1.433594 31.992188 2.140625 31.386719 2.953125 30.886719 C 4.269531 29.980469 5.589844 29.175781 6.90625 28.269531 C 7.3125 28.070312 7.414062 27.765625 7.210938 27.363281 C 4.371094 18.8125 10.050781 9.355469 18.871094 7.242188 C 20.1875 6.941406 21.605469 6.640625 22.925781 6.238281 C 25.457031 5.53125 27.6875 4.324219 28.601562 1.609375 C 28.703125 1.410156 28.804688 1.105469 29.109375 0.90625 C 29.917969 2.3125 30.527344 3.824219 30.425781 5.433594 C 30.222656 7.34375 29.109375 8.449219 27.386719 9.054688 C 26.269531 9.457031 25.054688 9.859375 24.039062 10.5625 C 23.128906 11.269531 22.824219 12.375 23.632812 13.28125 C 24.34375 14.183594 25.355469 14.488281 26.371094 14.285156 C 29.109375 13.882812 30.730469 12.273438 31.238281 9.457031 C 31.84375 5.835938 36.40625 2.714844 40.058594 3.621094 C 41.273438 3.921875 42.085938 4.628906 42.894531 5.433594 C 43.402344 6.035156 43.300781 6.339844 42.589844 6.4375 C 39.246094 7.242188 37.421875 12.074219 39.550781 15.191406 C 40.160156 15.996094 40.867188 16.5 41.882812 16.398438 C 44.113281 16.296875 45.734375 15.089844 46.546875 12.675781 C 46.644531 12.476562 46.546875 11.972656 46.949219 12.074219 C 47.152344 12.074219 47.457031 12.273438 47.558594 12.574219 C 49.078125 17.40625 48.066406 22.132812 42.589844 24.144531 C 41.578125 24.546875 40.460938 24.546875 39.449219 24.75 C 37.929688 25.152344 36.8125 26.257812 36.507812 27.765625 C 36.203125 28.972656 36.914062 29.980469 37.828125 30.785156 C 39.042969 31.789062 40.664062 31.691406 41.984375 30.382812 C 42.085938 30.28125 42.1875 29.980469 42.386719 30.082031 C 43.300781 34.707031 40.96875 37.726562 36.203125 38.53125 C 33.265625 39.035156 30.628906 38.128906 27.890625 37.425781 C 26.878906 37.121094 25.964844 36.921875 24.953125 37.222656 C 24.140625 37.523438 23.734375 38.027344 23.734375 38.832031 C 23.734375 39.234375 23.835938 39.738281 24.34375 39.941406 C 24.75 40.242188 25.15625 40.039062 25.558594 39.839844 C 25.761719 39.636719 25.964844 39.4375 26.269531 39.4375 C 26.472656 40.945312 25.457031 42.050781 24.242188 42.453125 C 23.429688 42.757812 22.519531 42.957031 21.605469 42.957031 C 20.085938 43.058594 18.769531 42.554688 17.753906 41.148438 C 16.234375 38.933594 14.003906 38.128906 11.671875 38.832031 C 11.164062 39.035156 10.757812 39.234375 10.554688 39.738281 C 10.050781 41.449219 9.441406 43.058594 9.746094 44.871094 C 9.847656 45.171875 9.847656 45.472656 10.253906 45.574219 C 11.46875 45.875 12.078125 46.882812 12.886719 47.585938 C 15.523438 50.300781 17.957031 53.320312 20.695312 55.9375 C 21.808594 56.941406 23.226562 57.445312 24.75 57.546875 C 27.484375 57.746094 29.917969 58.652344 31.945312 60.460938 C 37.929688 65.996094 43.707031 71.730469 49.382812 77.566406 C 51.511719 79.777344 53.335938 82.191406 55.464844 84.40625 C 56.480469 85.511719 56.378906 86.71875 55.769531 88.027344 C 53.4375 92.757812 49.6875 96.078125 44.921875 98.289062 C 44.011719 98.691406 42.996094 98.894531 42.1875 99.496094 C 41.882812 100.300781 41.476562 100.300781 41.070312 100.300781 Z M 5.792969 47.585938 C 6.601562 47.886719 9.035156 46.679688 9.136719 45.976562 C 9.136719 45.875 9.136719 45.773438 9.035156 45.675781 C 8.527344 43.660156 9.238281 41.75 9.847656 39.839844 C 10.050781 39.335938 10.355469 38.933594 10.757812 38.832031 C 11.875 38.328125 13.089844 37.828125 14.207031 37.625 C 16.839844 37.121094 19.476562 36.820312 22.011719 36.417969 C 24.546875 36.015625 26.980469 35.613281 29.515625 35.011719 C 30.222656 34.808594 30.425781 34.40625 30.222656 33.804688 C 29.816406 32.496094 29.414062 31.1875 29.109375 29.878906 C 28.90625 28.773438 28.5 28.570312 27.285156 28.875 C 22.316406 30.28125 17.449219 32.292969 12.582031 33.902344 C 10.253906 34.707031 8.425781 36.21875 7.515625 38.632812 C 6.5 41.449219 5.488281 44.265625 7.007812 47.382812 C 6.296875 46.980469 5.996094 46.480469 5.894531 45.976562 C 5.691406 44.871094 5.589844 43.660156 5.792969 42.554688 C 6.601562 37.523438 9.136719 33.804688 14.308594 32.496094 C 17.855469 31.488281 21.097656 29.777344 24.648438 28.972656 C 25.355469 28.875 25.457031 28.371094 25.257812 27.867188 C 24.75 26.15625 23.734375 24.847656 21.910156 24.347656 C 21.503906 24.246094 21.199219 24.246094 20.898438 24.445312 C 17.652344 26.859375 13.902344 28.371094 10.355469 30.28125 C 7.3125 31.890625 4.777344 34.003906 4.066406 37.625 C 3.867188 38.730469 3.460938 39.839844 3.257812 40.945312 C 2.851562 43.058594 3.460938 44.96875 4.574219 46.78125 C 5.082031 46.980469 5.792969 46.980469 5.792969 47.585938 C 5.386719 47.886719 5.082031 47.484375 4.878906 47.285156 C 3.664062 45.976562 2.953125 44.367188 2.851562 42.554688 C 2.75 39.4375 3.664062 36.519531 4.980469 33.804688 C 5.691406 32.394531 6.90625 31.386719 8.425781 30.582031 C 10.859375 29.277344 13.292969 27.765625 15.828125 26.558594 C 17.042969 25.957031 17.957031 25.152344 19.070312 24.445312 C 21.097656 23.238281 21.402344 23.542969 21 20.824219 C 19.578125 21.628906 18.261719 22.636719 16.839844 23.238281 C 14.8125 24.246094 12.988281 25.554688 10.960938 26.660156 C 8.933594 27.664062 7.007812 29.074219 5.082031 30.382812 C 3.460938 31.488281 2.34375 32.796875 2.34375 35.011719 C 2.34375 37.425781 2.039062 39.839844 1.738281 42.253906 C 1.535156 43.660156 1.433594 45.273438 2.445312 46.480469 C 3.054688 47.484375 4.066406 48.1875 5.082031 48.992188 C 5.285156 49.195312 5.488281 49.796875 5.894531 49.394531 C 6.195312 49.09375 6.195312 48.589844 5.996094 48.1875 C 5.894531 47.988281 5.488281 47.886719 5.792969 47.585938 Z M 24.546875 62.878906 C 23.734375 62.878906 23.734375 61.972656 23.226562 61.570312 C 21.808594 60.460938 20.289062 59.253906 19.171875 57.847656 C 16.941406 55.03125 14.207031 52.617188 11.976562 49.796875 C 11.164062 48.691406 10.253906 48.492188 9.035156 48.894531 C 8.933594 48.792969 8.933594 48.792969 8.832031 48.691406 C 10.152344 47.6875 10.65625 47.785156 11.773438 48.792969 C 12.484375 49.496094 13.292969 50.203125 14.003906 50.90625 C 14.914062 52.214844 16.03125 53.21875 17.246094 54.226562 C 16.4375 52.917969 15.320312 51.8125 14.207031 50.703125 C 13.496094 49.898438 12.785156 49.09375 11.976562 48.289062 C 10.453125 46.679688 9.238281 46.679688 7.617188 48.1875 C 5.996094 49.699219 5.996094 50.300781 7.3125 51.910156 C 9.542969 54.527344 11.671875 57.144531 13.800781 59.757812 C 14.207031 60.261719 14.710938 60.664062 14.914062 61.46875 C 15.21875 62.777344 15.21875 64.085938 15.21875 65.390625 C 15.117188 67.605469 15.523438 69.71875 16.234375 71.730469 C 17.347656 74.949219 19.578125 77.363281 21.808594 79.679688 C 24.75 82.695312 27.6875 85.613281 30.730469 88.632812 C 32.148438 90.039062 33.773438 91.246094 35.089844 92.757812 C 36.710938 94.566406 38.230469 96.277344 39.957031 97.988281 C 40.460938 98.492188 40.765625 98.289062 41.070312 97.785156 C 41.375 97.183594 41.578125 96.578125 41.882812 96.078125 C 44.417969 91.550781 48.269531 88.53125 52.933594 86.417969 C 54.453125 85.714844 54.554688 85.3125 53.335938 84.105469 C 51.714844 82.394531 50.09375 80.582031 48.371094 78.875 C 42.1875 72.636719 36 66.195312 29.414062 60.363281 C 28.398438 59.457031 27.183594 59.054688 26.066406 59.054688 C 24.242188 59.15625 22.722656 58.550781 21.199219 57.746094 C 20.898438 57.546875 20.59375 57.445312 20.1875 57.746094 C 21.300781 59.15625 22.519531 60.160156 24.445312 60.460938 C 27.082031 60.765625 29.613281 61.570312 31.441406 63.683594 C 32.757812 65.089844 34.277344 66.398438 35.597656 67.707031 C 41.375 73.140625 46.949219 78.773438 52.222656 84.609375 C 52.933594 85.414062 52.832031 85.714844 51.816406 86.117188 C 49.28125 86.921875 47.050781 88.328125 45.023438 90.039062 C 43.402344 91.449219 42.1875 93.359375 41.171875 95.273438 C 40.359375 96.679688 39.652344 96.78125 38.636719 95.472656 C 36.609375 92.957031 34.175781 90.746094 31.945312 88.429688 C 27.992188 84.207031 23.429688 80.582031 19.984375 75.957031 C 19.171875 74.949219 18.261719 73.945312 17.652344 72.835938 C 16.4375 70.222656 16.4375 67.40625 16.335938 64.585938 C 16.335938 62.878906 16.03125 61.066406 14.710938 59.65625 C 12.988281 57.847656 11.46875 55.835938 9.847656 53.921875 C 9.542969 53.519531 9.035156 53.21875 9.035156 52.617188 C 9.238281 52.714844 9.339844 52.714844 9.441406 52.816406 C 11.976562 55.128906 14.105469 57.746094 16.234375 60.5625 C 16.839844 61.367188 17.144531 62.273438 17.246094 63.179688 C 17.652344 65.292969 18.261719 67.503906 18.566406 69.617188 C 18.769531 71.328125 19.78125 71.929688 21.199219 72.335938 C 22.113281 72.535156 22.722656 72.132812 22.519531 71.226562 C 22.113281 69.617188 22.113281 67.90625 21.605469 66.296875 C 21.300781 65.390625 21 64.386719 21.300781 63.078125 C 22.417969 66.097656 23.027344 68.914062 23.128906 71.832031 C 23.128906 72.132812 23.027344 72.433594 23.53125 72.433594 C 24.34375 72.433594 25.457031 71.628906 25.457031 70.824219 C 25.761719 68.007812 25.761719 65.292969 24.546875 62.878906 C 25.054688 62.675781 25.054688 63.179688 25.257812 63.480469 C 26.066406 64.789062 26.371094 66.195312 26.269531 67.707031 C 26.269531 68.308594 26.371094 68.710938 27.082031 68.613281 C 29.414062 68.511719 31.644531 68.511719 33.972656 68.109375 C 34.277344 68.007812 34.582031 68.109375 34.683594 67.808594 C 34.785156 67.503906 34.480469 67.304688 34.277344 67.101562 C 33.265625 66.097656 32.25 65.191406 31.238281 64.183594 C 29.109375 62.171875 26.472656 61.269531 23.53125 60.863281 C 23.632812 61.671875 24.648438 61.972656 24.546875 62.878906 Z M 7.921875 27.566406 C 8.324219 27.363281 8.730469 27.261719 8.933594 26.960938 C 9.949219 25.753906 11.46875 25.25 12.785156 24.648438 C 14.8125 23.640625 16.539062 22.234375 18.566406 21.429688 C 18.871094 21.328125 19.171875 21.125 19.375 20.925781 C 19.78125 20.222656 20.695312 20.421875 21.199219 19.917969 C 21.402344 19.71875 21.808594 19.917969 21.808594 20.421875 C 21.808594 20.722656 21.808594 21.027344 21.808594 21.226562 C 22.011719 22.234375 21.910156 23.339844 23.429688 23.742188 C 24.648438 24.042969 25.558594 25.050781 25.863281 26.257812 C 26.269531 27.664062 27.082031 27.96875 28.296875 27.664062 C 28.5 27.664062 28.703125 27.664062 28.90625 27.566406 C 29.613281 27.363281 29.917969 27.664062 30.121094 28.371094 C 30.425781 29.980469 30.832031 31.691406 31.339844 33.199219 C 31.84375 35.011719 31.742188 35.3125 30.019531 35.816406 C 29.515625 36.015625 28.5 35.914062 28.601562 36.621094 C 28.601562 37.222656 29.515625 36.921875 30.019531 37.121094 C 33.367188 38.429688 36.609375 38.328125 39.753906 36.417969 C 40.867188 35.714844 42.589844 33.804688 42.289062 31.890625 C 42.1875 31.890625 42.085938 31.890625 42.085938 31.992188 C 40.5625 33.199219 38.03125 33.402344 37.015625 32.394531 C 35.089844 30.484375 34.683594 27.765625 36.203125 25.957031 C 37.523438 24.445312 39.144531 23.84375 41.171875 23.640625 C 45.632812 23.238281 47.964844 18.914062 47.253906 14.789062 C 46.949219 15.292969 46.644531 15.695312 46.242188 16.195312 C 44.515625 18.210938 42.386719 18.511719 40.257812 17.808594 C 38.128906 17.101562 37.523438 14.285156 37.828125 12.273438 C 38.128906 9.757812 39.449219 7.847656 41.679688 6.640625 C 42.1875 6.339844 42.1875 6.136719 41.78125 5.734375 C 40.867188 4.929688 39.855469 4.425781 38.636719 4.628906 C 36.710938 4.828125 35.089844 5.835938 33.773438 7.042969 C 33.0625 7.644531 32.65625 8.449219 32.554688 9.355469 C 32.25 10.765625 32.148438 12.273438 31.441406 13.683594 C 30.628906 15.191406 26.777344 16.597656 24.953125 15.996094 C 22.316406 15.089844 21.605469 12.375 23.53125 10.363281 C 24.546875 9.253906 25.964844 9.054688 27.183594 8.652344 C 29.917969 7.847656 30.527344 5.128906 29.515625 2.917969 C 28.296875 4.929688 27.6875 5.53125 25.15625 6.839844 C 23.53125 7.644531 21.808594 7.847656 20.085938 8.148438 C 15.929688 8.953125 12.785156 11.367188 10.355469 14.6875 C 7.515625 18.410156 6.90625 22.835938 7.921875 27.566406 Z M 40.058594 95.273438 C 40.257812 94.769531 40.460938 94.566406 40.5625 94.367188 C 42.1875 91.550781 44.214844 89.136719 47.152344 87.425781 C 48.269531 86.71875 49.484375 86.117188 50.703125 85.613281 C 51.207031 85.414062 51.714844 85.210938 51.105469 84.507812 C 48.976562 82.191406 46.847656 79.878906 44.617188 77.664062 C 44.113281 77.164062 43.503906 76.859375 43.097656 76.359375 C 40.867188 73.640625 38.332031 71.226562 35.902344 68.8125 C 35.597656 68.511719 35.292969 68.410156 34.886719 68.613281 C 32.554688 69.417969 30.019531 69.214844 27.585938 69.417969 C 26.371094 69.515625 25.964844 69.917969 25.964844 71.027344 C 25.964844 71.730469 25.660156 72.335938 25.054688 72.535156 C 23.835938 73.039062 22.621094 73.339844 21.300781 72.9375 C 20.492188 72.738281 19.679688 72.433594 18.769531 72.234375 C 18.667969 72.335938 18.566406 72.433594 18.566406 72.535156 C 24.648438 80.984375 32.960938 87.523438 40.058594 95.273438 Z M 54.859375 87.523438 C 54.757812 87.121094 54.351562 87.222656 54.046875 87.324219 C 52.933594 87.726562 51.917969 88.128906 50.902344 88.632812 C 46.949219 90.84375 43.707031 93.761719 41.578125 97.785156 C 41.476562 98.089844 41.070312 98.390625 41.375 98.792969 C 41.679688 99.195312 42.085938 98.792969 42.386719 98.691406 C 46.847656 97.082031 50.703125 94.667969 53.132812 90.542969 C 53.84375 89.738281 54.554688 88.832031 54.859375 87.523438 Z M 21.808594 42.554688 C 22.316406 42.65625 23.027344 42.453125 23.632812 42.355469 C 24.140625 42.253906 24.953125 42.152344 24.039062 41.246094 C 23.226562 40.441406 22.824219 39.4375 23.429688 38.230469 C 23.835938 37.523438 23.53125 37.324219 22.722656 37.425781 C 20.898438 37.726562 19.171875 38.429688 17.347656 38.328125 C 17.144531 38.328125 16.839844 38.429688 16.640625 38.53125 C 16.03125 38.632812 16.234375 39.035156 16.539062 39.136719 C 17.449219 39.636719 17.957031 40.34375 18.566406 41.148438 C 19.273438 42.152344 20.390625 42.65625 21.808594 42.554688 Z M 21.808594 42.554688 "/>
<path style=" stroke:none;fill-rule:nonzero;fill:rgb(96.078432%,62.352943%,34.901962%);fill-opacity:1;" d="M 7.921875 27.566406 C 6.90625 22.835938 7.515625 18.410156 10.253906 14.585938 C 12.582031 11.269531 15.828125 8.753906 19.984375 8.046875 C 21.707031 7.746094 23.429688 7.546875 25.054688 6.742188 C 27.585938 5.433594 28.195312 4.828125 29.414062 2.816406 C 30.425781 5.128906 29.816406 7.746094 27.082031 8.550781 C 25.761719 8.953125 24.34375 9.253906 23.328125 10.261719 C 21.402344 12.273438 22.113281 14.988281 24.75 15.894531 C 26.574219 16.5 30.425781 15.089844 31.238281 13.582031 C 31.945312 12.273438 32.148438 10.765625 32.351562 9.253906 C 32.554688 8.25 32.960938 7.546875 33.570312 6.941406 C 34.988281 5.734375 36.507812 4.828125 38.433594 4.527344 C 39.652344 4.324219 40.664062 4.828125 41.578125 5.632812 C 42.085938 6.035156 42.085938 6.238281 41.578125 6.539062 C 39.347656 7.746094 38.03125 9.65625 37.726562 12.171875 C 37.523438 14.285156 38.03125 17.003906 40.160156 17.707031 C 42.289062 18.410156 44.417969 18.109375 46.140625 16.097656 C 46.445312 15.695312 46.746094 15.191406 47.152344 14.6875 C 47.863281 18.8125 45.429688 23.140625 41.070312 23.542969 C 39.042969 23.742188 37.421875 24.347656 36.101562 25.855469 C 34.582031 27.664062 34.988281 30.382812 36.914062 32.292969 C 37.929688 33.300781 40.460938 33.097656 41.984375 31.890625 C 42.085938 31.890625 42.085938 31.789062 42.1875 31.789062 C 42.488281 33.601562 40.867188 35.511719 39.652344 36.316406 C 36.507812 38.328125 33.367188 38.429688 29.917969 37.023438 C 29.414062 36.820312 28.5 37.222656 28.5 36.519531 C 28.5 35.816406 29.414062 35.914062 29.917969 35.714844 C 31.644531 35.109375 31.84375 34.910156 31.238281 33.097656 C 30.730469 31.488281 30.324219 29.878906 30.019531 28.269531 C 29.917969 27.566406 29.515625 27.363281 28.804688 27.464844 C 28.601562 27.464844 28.398438 27.464844 28.195312 27.566406 C 26.980469 27.867188 26.167969 27.566406 25.761719 26.15625 C 25.457031 24.949219 24.546875 23.945312 23.328125 23.640625 C 21.808594 23.339844 21.910156 22.234375 21.707031 21.125 C 21.707031 20.824219 21.707031 20.523438 21.707031 20.320312 C 21.707031 19.917969 21.300781 19.617188 21.097656 19.820312 C 20.59375 20.320312 19.679688 20.121094 19.273438 20.824219 C 19.171875 21.027344 18.769531 21.226562 18.464844 21.328125 C 16.335938 22.132812 14.613281 23.640625 12.683594 24.546875 C 11.46875 25.152344 9.847656 25.652344 8.832031 26.859375 C 8.730469 27.261719 8.324219 27.363281 7.921875 27.566406 Z M 7.921875 27.566406 "/>
<path style=" stroke:none;fill-rule:nonzero;fill:rgb(29.411766%,24.313726%,16.862746%);fill-opacity:1;" d="M 40.058594 95.273438 C 32.960938 87.523438 24.648438 80.984375 18.566406 72.433594 C 18.667969 72.335938 18.769531 72.234375 18.769531 72.132812 C 19.578125 72.335938 20.390625 72.636719 21.300781 72.835938 C 22.621094 73.238281 23.835938 72.835938 25.054688 72.433594 C 25.660156 72.234375 25.964844 71.628906 25.964844 70.925781 C 25.964844 69.917969 26.371094 69.417969 27.585938 69.316406 C 30.019531 69.113281 32.554688 69.417969 34.886719 68.511719 C 35.292969 68.410156 35.597656 68.511719 35.902344 68.710938 C 38.332031 71.125 40.867188 73.542969 43.097656 76.257812 C 43.503906 76.761719 44.113281 77.0625 44.617188 77.566406 C 46.746094 79.878906 48.976562 82.191406 51.105469 84.40625 C 51.714844 85.109375 51.207031 85.3125 50.703125 85.511719 C 49.484375 86.015625 48.269531 86.621094 47.152344 87.324219 C 44.316406 89.035156 42.1875 91.347656 40.5625 94.265625 C 40.460938 94.566406 40.359375 94.871094 40.058594 95.273438 Z M 40.058594 95.273438 "/>
<path style=" stroke:none;fill-rule:nonzero;fill:rgb(49.411765%,51.764709%,45.490196%);fill-opacity:1;" d="M 9.035156 48.894531 C 10.253906 48.492188 11.164062 48.691406 11.976562 49.796875 C 14.207031 52.617188 16.941406 55.03125 19.171875 57.847656 C 20.289062 59.253906 21.808594 60.460938 23.226562 61.570312 C 23.734375 61.972656 23.632812 62.878906 24.546875 62.878906 C 25.761719 65.390625 25.863281 68.007812 25.558594 70.722656 C 25.355469 71.429688 24.34375 72.234375 23.53125 72.234375 C 23.027344 72.234375 23.128906 71.929688 23.128906 71.628906 C 23.027344 68.710938 22.417969 65.894531 21.300781 62.878906 C 20.898438 64.183594 21.300781 65.191406 21.605469 66.097656 C 22.113281 67.707031 22.113281 69.417969 22.519531 71.027344 C 22.722656 71.929688 22.113281 72.335938 21.199219 72.132812 C 19.78125 71.832031 18.769531 71.125 18.566406 69.417969 C 18.261719 67.203125 17.652344 65.089844 17.246094 62.976562 C 17.042969 61.972656 16.742188 61.066406 16.234375 60.363281 C 14.207031 57.644531 11.976562 55.03125 9.441406 52.617188 C 9.339844 52.515625 9.238281 52.515625 9.035156 52.414062 C 9.136719 53.019531 9.542969 53.421875 9.847656 53.722656 C 11.46875 55.632812 12.988281 57.546875 14.710938 59.457031 C 16.03125 60.863281 16.335938 62.675781 16.335938 64.386719 C 16.335938 67.203125 16.335938 70.019531 17.652344 72.636719 C 18.160156 73.742188 19.171875 74.75 19.984375 75.753906 C 23.429688 80.382812 27.992188 84.003906 31.945312 88.230469 C 34.175781 90.644531 36.609375 92.757812 38.636719 95.273438 C 39.652344 96.578125 40.359375 96.480469 41.171875 95.070312 C 42.1875 93.160156 43.402344 91.347656 45.023438 89.839844 C 47.050781 88.128906 49.28125 86.71875 51.816406 85.914062 C 52.832031 85.613281 52.933594 85.210938 52.222656 84.40625 C 46.949219 78.570312 41.375 72.9375 35.597656 67.503906 C 34.175781 66.195312 32.65625 64.890625 31.441406 63.480469 C 29.515625 61.367188 27.082031 60.5625 24.445312 60.261719 C 22.519531 60.058594 21.300781 59.054688 20.1875 57.546875 C 20.59375 57.34375 20.898438 57.34375 21.199219 57.546875 C 22.722656 58.449219 24.242188 58.953125 26.066406 58.851562 C 27.183594 58.851562 28.398438 59.253906 29.414062 60.160156 C 36 65.996094 42.1875 72.335938 48.371094 78.671875 C 50.09375 80.382812 51.714844 82.191406 53.335938 83.902344 C 54.453125 85.109375 54.351562 85.613281 52.933594 86.21875 C 48.269531 88.328125 44.417969 91.347656 41.882812 95.875 C 41.578125 96.480469 41.273438 96.980469 41.070312 97.585938 C 40.867188 98.1875 40.460938 98.390625 39.957031 97.785156 C 38.332031 96.078125 36.710938 94.367188 35.089844 92.554688 C 33.773438 91.046875 32.148438 89.839844 30.730469 88.429688 C 27.789062 85.511719 24.75 82.59375 21.808594 79.476562 C 19.578125 77.0625 17.347656 74.648438 16.234375 71.527344 C 15.523438 69.417969 15.117188 67.304688 15.21875 65.191406 C 15.21875 63.882812 15.21875 62.574219 14.8125 61.269531 C 14.613281 60.5625 14.105469 60.058594 13.699219 59.558594 C 11.570312 56.941406 9.441406 54.324219 7.210938 51.710938 C 5.792969 50.101562 5.792969 49.394531 7.515625 47.988281 C 9.136719 46.480469 10.253906 46.480469 11.875 48.089844 C 12.683594 48.894531 13.394531 49.699219 14.105469 50.503906 C 14.003906 50.605469 14.003906 50.605469 13.902344 50.703125 C 13.191406 50 12.382812 49.296875 11.671875 48.589844 C 10.554688 47.585938 10.050781 47.484375 8.832031 48.492188 C 8.125 48.792969 7.617188 49.394531 7.210938 50 C 7.109375 50.300781 6.90625 50.605469 7.210938 50.703125 C 7.820312 51.007812 8.125 51.710938 8.832031 51.910156 C 8.023438 51.007812 7.921875 49.898438 9.035156 48.894531 Z M 9.035156 48.894531 "/>
<path style=" stroke:none;fill-rule:nonzero;fill:rgb(69.411767%,73.725492%,64.705884%);fill-opacity:1;" d="M 5.792969 47.6875 C 5.792969 47.082031 5.082031 46.980469 4.777344 46.578125 C 3.664062 44.769531 3.054688 42.855469 3.460938 40.746094 C 3.664062 39.636719 4.066406 38.53125 4.269531 37.425781 C 4.980469 33.804688 7.515625 31.789062 10.554688 30.082031 C 14.105469 28.167969 17.855469 26.660156 21.097656 24.246094 C 21.402344 24.042969 21.707031 24.042969 22.113281 24.144531 C 23.9375 24.648438 24.953125 25.957031 25.457031 27.664062 C 25.660156 28.269531 25.558594 28.671875 24.851562 28.773438 C 21.300781 29.578125 17.957031 31.289062 14.511719 32.292969 C 9.441406 33.703125 6.90625 37.324219 5.996094 42.355469 C 5.792969 43.5625 5.894531 44.667969 6.097656 45.773438 C 6.195312 46.277344 6.398438 46.78125 7.210938 47.183594 C 5.691406 43.964844 6.703125 41.246094 7.71875 38.429688 C 8.628906 35.914062 10.453125 34.40625 12.785156 33.703125 C 17.753906 32.09375 22.519531 30.082031 27.484375 28.671875 C 28.601562 28.371094 29.007812 28.570312 29.3125 29.679688 C 29.613281 30.984375 30.019531 32.292969 30.425781 33.601562 C 30.628906 34.304688 30.425781 34.707031 29.714844 34.808594 C 27.285156 35.414062 24.75 35.914062 22.214844 36.21875 C 19.578125 36.621094 16.941406 36.921875 14.410156 37.425781 C 13.191406 37.625 12.078125 38.230469 10.960938 38.632812 C 10.554688 38.832031 10.152344 39.136719 10.050781 39.636719 C 9.441406 41.550781 8.832031 43.460938 9.238281 45.472656 C 9.136719 45.773438 9.136719 45.875 9.136719 46.078125 C 8.933594 46.78125 6.5 47.886719 5.792969 47.6875 Z M 5.792969 47.6875 "/>
<path style=" stroke:none;fill-rule:nonzero;fill:rgb(69.411767%,73.725492%,64.705884%);fill-opacity:1;" d="M 5.792969 47.585938 C 5.488281 47.886719 5.894531 47.988281 5.996094 48.089844 C 6.195312 48.492188 6.195312 48.992188 5.894531 49.296875 C 5.488281 49.699219 5.285156 49.09375 5.082031 48.894531 C 4.066406 48.1875 3.054688 47.484375 2.34375 46.480469 C 1.332031 45.171875 1.535156 43.660156 1.636719 42.253906 C 1.941406 39.839844 2.140625 37.425781 2.242188 35.011719 C 2.242188 32.796875 3.460938 31.488281 4.980469 30.382812 C 6.90625 29.074219 8.832031 27.765625 10.859375 26.660156 C 12.886719 25.652344 14.710938 24.246094 16.742188 23.238281 C 18.160156 22.535156 19.476562 21.628906 20.898438 20.824219 C 21.300781 23.542969 21 23.339844 18.96875 24.445312 C 17.855469 25.152344 16.941406 25.957031 15.726562 26.558594 C 13.191406 27.765625 10.859375 29.277344 8.324219 30.582031 C 6.90625 31.386719 5.589844 32.394531 4.878906 33.804688 C 3.5625 36.519531 2.648438 39.4375 2.75 42.554688 C 2.851562 44.367188 3.5625 45.976562 4.777344 47.285156 C 5.082031 47.484375 5.386719 47.886719 5.792969 47.585938 C 5.792969 47.6875 5.792969 47.585938 5.792969 47.585938 Z M 5.792969 47.585938 "/>
<path style=" stroke:none;fill-rule:nonzero;fill:rgb(29.411766%,24.313726%,16.862746%);fill-opacity:1;" d="M 54.859375 87.523438 C 54.554688 88.832031 53.84375 89.738281 53.234375 90.644531 C 50.703125 94.769531 46.847656 97.183594 42.488281 98.792969 C 42.1875 98.894531 41.78125 99.195312 41.476562 98.894531 C 41.171875 98.492188 41.476562 98.1875 41.679688 97.886719 C 43.808594 93.863281 47.050781 90.945312 51.003906 88.730469 C 52.019531 88.128906 53.03125 87.828125 54.148438 87.425781 C 54.351562 87.222656 54.757812 87.121094 54.859375 87.523438 Z M 54.859375 87.523438 "/>
<path style=" stroke:none;fill-rule:nonzero;fill:rgb(49.411765%,51.764709%,45.490196%);fill-opacity:1;" d="M 24.546875 62.878906 C 24.648438 61.972656 23.734375 61.671875 23.429688 60.964844 C 26.371094 61.269531 29.007812 62.171875 31.136719 64.285156 C 32.148438 65.292969 33.164062 66.195312 34.175781 67.203125 C 34.378906 67.40625 34.683594 67.605469 34.582031 67.90625 C 34.480469 68.210938 34.175781 68.210938 33.871094 68.210938 C 31.644531 68.613281 29.3125 68.613281 26.980469 68.710938 C 26.269531 68.710938 26.167969 68.410156 26.167969 67.808594 C 26.269531 66.296875 25.964844 64.890625 25.15625 63.582031 C 25.054688 63.179688 25.054688 62.675781 24.546875 62.878906 Z M 24.546875 62.878906 "/>
<path style=" stroke:none;fill-rule:nonzero;fill:rgb(96.078432%,62.352943%,34.901962%);fill-opacity:1;" d="M 21.808594 42.554688 C 20.390625 42.554688 19.273438 42.152344 18.464844 41.046875 C 17.957031 40.242188 17.347656 39.539062 16.4375 39.035156 C 16.132812 38.832031 16.03125 38.53125 16.539062 38.429688 C 16.742188 38.328125 17.042969 38.230469 17.246094 38.230469 C 19.070312 38.328125 20.796875 37.625 22.621094 37.324219 C 23.328125 37.222656 23.734375 37.324219 23.328125 38.128906 C 22.722656 39.335938 23.128906 40.441406 23.9375 41.148438 C 24.851562 42.050781 24.039062 42.050781 23.53125 42.253906 C 23.027344 42.453125 22.316406 42.65625 21.808594 42.554688 Z M 21.808594 42.554688 "/>
<path style=" stroke:none;fill-rule:nonzero;fill:rgb(49.411765%,51.764709%,45.490196%);fill-opacity:1;" d="M 14.105469 50.703125 C 15.21875 51.8125 16.335938 52.917969 17.144531 54.226562 C 15.929688 53.21875 14.8125 52.214844 13.902344 50.90625 C 14.003906 50.90625 14.003906 50.804688 14.105469 50.703125 Z M 14.105469 50.703125 "/>
<path style=" stroke:none;fill-rule:nonzero;fill:rgb(6.27451%,5.490196%,4.705882%);fill-opacity:1;" d="M 9.035156 48.894531 C 8.023438 49.898438 8.023438 51.007812 8.832031 52.113281 C 8.125 51.910156 7.820312 51.207031 7.210938 50.90625 C 6.90625 50.804688 7.109375 50.402344 7.210938 50.203125 C 7.617188 49.496094 8.023438 48.992188 8.832031 48.691406 C 8.832031 48.792969 8.933594 48.894531 9.035156 48.894531 Z M 9.035156 48.894531 "/>
</g>
</svg>
