<?xml version="1.0" encoding="UTF-8"?>
<svg xmlns="http://www.w3.org/2000/svg" xmlns:xlink="http://www.w3.org/1999/xlink" width="100px" height="100px" viewBox="0 0 100 100" version="1.1">
<g id="surface1">
<path style=" stroke:none;fill-rule:nonzero;fill:rgb(49.803922%,49.803922%,49.803922%);fill-opacity:1;" d="M 100.136719 50.234375 C 100.136719 66.660156 100.136719 83.101562 100.152344 99.527344 C 100.152344 100 100.097656 100.152344 99.570312 100.152344 C 66.605469 100.136719 33.65625 100.136719 0.691406 100.152344 C 0.207031 100.152344 0.125 100.042969 0.125 99.585938 C 0.136719 66.621094 0.136719 33.65625 0.125 0.707031 C 0.125 0.136719 0.320312 0.136719 0.746094 0.136719 C 33.683594 0.136719 66.621094 0.136719 99.558594 0.125 C 100.070312 0.125 100.152344 0.25 100.152344 0.734375 C 100.136719 17.230469 100.136719 33.738281 100.136719 50.234375 Z M 100.136719 50.234375 "/>
<path style=" stroke:none;fill-rule:nonzero;fill:rgb(99.607843%,99.607843%,99.607843%);fill-opacity:1;" d="M 0.320312 50.136719 C 0.320312 33.835938 0.320312 17.546875 0.320312 1.246094 C 0.320312 0.320312 0.320312 0.320312 1.191406 0.320312 C 27.535156 0.320312 53.863281 0.320312 80.207031 0.320312 C 86.507812 0.320312 92.8125 0.332031 99.113281 0.304688 C 99.765625 0.304688 99.972656 0.457031 99.972656 1.148438 C 99.957031 33.796875 99.957031 66.425781 99.957031 99.070312 C 99.957031 99.957031 99.957031 99.972656 99.042969 99.972656 C 66.398438 99.972656 33.765625 99.972656 1.121094 99.984375 C 0.414062 99.984375 0.304688 99.738281 0.304688 99.113281 C 0.320312 82.785156 0.320312 66.453125 0.320312 50.136719 Z M 0.320312 50.136719 "/>
<path style=" stroke:none;fill-rule:nonzero;fill:rgb(2.352941%,2.745098%,3.529412%);fill-opacity:1;" d="M 85.691406 96.011719 C 84.984375 95.777344 84.652344 96.203125 84.335938 96.871094 C 83.796875 98.003906 83.035156 98.988281 81.632812 99.058594 C 80.457031 99.113281 79.292969 98.949219 78.214844 98.421875 C 77.230469 97.949219 76.925781 97.078125 77.339844 96.066406 C 77.660156 95.289062 78.199219 94.652344 78.78125 94.058594 C 78.988281 93.851562 79.113281 93.628906 79.140625 93.339844 C 79.347656 91.121094 79.085938 89.015625 77.730469 87.160156 C 77.242188 86.496094 76.660156 85.914062 75.914062 85.582031 C 73.671875 84.570312 71.898438 82.910156 70.125 81.273438 C 67.382812 78.753906 64.957031 75.957031 63.28125 72.589844 C 62.992188 72.023438 62.757812 71.414062 62.507812 70.832031 C 61.730469 68.960938 59.945312 68.003906 57.9375 68.339844 C 55.816406 68.683594 54.003906 69.710938 52.285156 70.914062 C 50 72.519531 47.769531 74.183594 45.664062 76.023438 C 44.875 76.71875 44.308594 77.492188 43.960938 78.53125 C 42.714844 82.339844 41.082031 85.984375 38.53125 89.128906 C 38.40625 89.292969 38.296875 89.472656 38.128906 89.597656 C 36.632812 90.71875 36.234375 92.410156 35.871094 94.101562 C 35.816406 94.335938 35.746094 94.527344 35.59375 94.710938 C 34.625 95.777344 33.492188 96.566406 32.050781 96.8125 C 31.773438 96.855469 31.59375 96.980469 31.414062 97.175781 C 30.207031 98.601562 28.613281 99.042969 26.828125 98.863281 C 25.941406 98.78125 25.042969 98.671875 24.167969 98.460938 C 22.8125 98.144531 22.4375 97.203125 23.101562 95.957031 C 23.433594 95.347656 23.835938 94.917969 24.585938 94.695312 C 26.523438 94.085938 28.019531 92.9375 28.726562 90.886719 C 29.527344 88.574219 30.441406 86.289062 30.914062 83.878906 C 30.929688 83.835938 30.941406 83.796875 30.957031 83.738281 C 31.234375 82.230469 31.164062 82.132812 29.710938 81.632812 C 25.957031 80.347656 22.410156 78.710938 19.597656 75.816406 C 18.339844 74.527344 17.394531 73.046875 16.953125 71.289062 C 16.871094 70.957031 16.773438 70.777344 16.34375 70.746094 C 15.167969 70.679688 14.101562 70.207031 13.226562 69.417969 C 11.496094 67.8125 9.695312 66.21875 8.296875 64.253906 C 7.257812 62.8125 6.566406 61.21875 6.507812 59.417969 C 6.480469 58.601562 6.539062 57.757812 6.953125 57.078125 C 7.535156 56.121094 7.355469 55.207031 7.1875 54.238281 C 6.898438 52.589844 6.578125 50.941406 6.289062 49.292969 C 6.175781 48.65625 6.550781 48.324219 7.203125 48.558594 C 8.128906 48.90625 9.03125 49.308594 9.917969 49.738281 C 10.402344 49.972656 10.84375 49.972656 11.355469 49.832031 C 13.492188 49.238281 15.652344 48.835938 17.894531 49.03125 C 18.546875 49.085938 19.183594 49.210938 19.738281 49.527344 C 20.042969 49.695312 20.222656 49.640625 20.457031 49.460938 C 21.441406 48.699219 22.421875 47.9375 23.40625 47.1875 C 23.644531 47.007812 23.863281 46.71875 24.183594 46.898438 C 24.472656 47.050781 24.5 47.382812 24.515625 47.6875 C 24.570312 48.628906 24.625 49.570312 24.652344 50.511719 C 24.695312 51.691406 26.425781 52.6875 27.480469 52.105469 C 27.976562 51.828125 28.394531 51.480469 28.574219 50.914062 C 29.585938 47.605469 31.8125 45.234375 34.570312 43.308594 C 37.964844 40.941406 41.828125 39.695312 45.859375 38.949219 C 51.109375 37.976562 56.398438 38.046875 61.703125 38.394531 C 62.339844 38.433594 62.976562 38.546875 63.628906 38.585938 C 65.402344 38.710938 66.234375 37.714844 65.734375 36.011719 C 65.582031 35.484375 65.375 34.972656 65.125 34.488281 C 62.089844 28.558594 62.160156 22.578125 64.804688 16.550781 C 66.621094 12.421875 69.5 9.101562 72.851562 6.148438 C 74.265625 4.902344 75.746094 3.738281 77.148438 2.464844 C 77.5625 2.089844 78.035156 1.800781 78.519531 1.550781 C 80.429688 0.582031 82.355469 1.746094 82.421875 3.917969 C 82.464844 5.167969 81.953125 6.246094 81.316406 7.269531 C 80.457031 8.671875 79.375 9.902344 78.15625 11.011719 C 75.347656 13.585938 72.894531 16.425781 71.425781 20 C 69.957031 23.558594 70.125 26.953125 72.117188 30.347656 C 73.726562 33.089844 75.042969 36.011719 76.21875 38.976562 C 76.316406 39.222656 76.398438 39.472656 76.648438 39.652344 C 80.207031 42.300781 82.214844 45.957031 83.378906 50.125 C 84.375 53.710938 84.570312 57.382812 84.253906 61.082031 C 84.167969 62.023438 84.058594 62.949219 83.949219 63.890625 C 83.890625 64.363281 83.976562 64.777344 84.167969 65.222656 C 86.550781 70.816406 88.644531 76.523438 89.945312 82.480469 C 90.484375 84.984375 90.84375 87.507812 90.71875 90.082031 C 90.664062 91.21875 90.472656 92.328125 89.984375 93.367188 C 89.167969 95.136719 87.730469 95.996094 85.691406 96.011719 Z M 85.691406 96.011719 "/>
<path style=" stroke:none;fill-rule:nonzero;fill:rgb(2.745098%,3.921569%,0.784314%);fill-opacity:1;" d="M 21.191406 61.355469 C 21.21875 61.953125 21.453125 62.605469 20.761719 63.003906 C 20.59375 62.742188 20.804688 62.519531 20.84375 62.285156 C 20.84375 62.089844 20.96875 61.871094 20.679688 61.773438 C 20.59375 61.757812 20.5 61.746094 20.414062 61.71875 C 20.152344 61.578125 19.875 61.46875 19.527344 61.648438 C 19.597656 61.84375 19.902344 61.828125 19.917969 62.050781 C 19.875 62.394531 20.015625 62.910156 19.347656 62.632812 C 19.222656 62.4375 18.976562 62.464844 18.835938 62.3125 C 18.613281 61.898438 18.378906 61.675781 18.046875 62.214844 C 17.8125 62.050781 17.910156 61.8125 17.882812 61.621094 C 18.394531 61.425781 18.765625 60.996094 19.265625 60.789062 C 19.640625 60.761719 20.179688 60.96875 20.097656 60.234375 C 20.554688 60.027344 21.023438 60.027344 21.480469 60.234375 C 21.648438 60.097656 21.785156 59.832031 22.050781 60.015625 C 22.257812 60.152344 21.996094 60.347656 22.035156 60.511719 C 21.800781 60.707031 21.578125 60.679688 21.34375 60.511719 C 21.082031 60.71875 20.664062 60.691406 20.511719 61.066406 C 20.679688 61.273438 20.941406 61.175781 21.136719 61.289062 C 21.148438 61.316406 21.175781 61.34375 21.191406 61.355469 Z M 21.191406 61.355469 "/>
<path style=" stroke:none;fill-rule:nonzero;fill:rgb(85.882354%,86.274511%,33.725491%);fill-opacity:1;" d="M 19.375 62.453125 C 19.40625 62.578125 19.558594 62.699219 19.597656 62.644531 C 19.722656 62.480469 19.847656 62.285156 19.820312 62.050781 C 19.902344 61.675781 20.207031 61.660156 20.5 61.621094 C 20.582031 61.621094 20.652344 61.605469 20.734375 61.605469 C 21.234375 61.675781 20.859375 62.105469 21.023438 62.328125 C 20.941406 62.546875 20.859375 62.769531 20.761719 63.003906 C 20.582031 63.1875 20.414062 63.367188 20.207031 63.492188 C 19.765625 63.765625 19.335938 63.835938 18.976562 63.339844 C 18.738281 63.128906 18.519531 62.910156 18.253906 62.671875 C 18.460938 62.589844 18.613281 62.519531 18.78125 62.464844 C 18.976562 62.382812 19.183594 62.328125 19.375 62.453125 Z M 19.375 62.453125 "/>
<path style=" stroke:none;fill-rule:nonzero;fill:rgb(85.490197%,85.490197%,35.686275%);fill-opacity:1;" d="M 10.941406 61.46875 C 11.136719 61.71875 11.71875 61.496094 11.648438 62.050781 C 11.746094 62.035156 11.648438 62.367188 11.871094 62.175781 C 12.050781 62.007812 12.269531 62.023438 12.464844 62.160156 C 12.757812 62.367188 13.253906 62.4375 13.003906 63.003906 C 12.578125 63.476562 12.078125 63.628906 11.496094 63.296875 C 11.316406 63.15625 11.136719 63.003906 10.941406 62.867188 C 10.679688 62.8125 10.609375 62.605469 10.566406 62.367188 C 10.625 62.105469 10.777344 61.882812 10.816406 61.621094 C 10.859375 61.566406 10.898438 61.507812 10.941406 61.46875 Z M 10.941406 61.46875 "/>
<path style=" stroke:none;fill-rule:nonzero;fill:rgb(2.745098%,3.921569%,1.176471%);fill-opacity:1;" d="M 11.496094 63.296875 C 12.035156 63.40625 12.535156 63.253906 13.003906 63.003906 C 12.964844 63.324219 13.726562 63.394531 13.324219 63.738281 C 13.003906 64.015625 12.519531 63.90625 12.050781 63.546875 C 12.105469 63.78125 12.132812 63.851562 12.148438 63.933594 C 12.175781 64.070312 12.367188 64.222656 12.160156 64.347656 C 12.035156 64.433594 11.882812 64.390625 11.785156 64.28125 C 11.550781 64.058594 11.289062 64.070312 11.023438 64.183594 C 10.898438 64.238281 10.761719 64.460938 10.679688 64.15625 C 10.636719 63.960938 10.761719 63.835938 10.957031 63.851562 C 11.398438 63.890625 11.550781 63.683594 11.496094 63.296875 Z M 11.496094 63.296875 "/>
<path style=" stroke:none;fill-rule:nonzero;fill:rgb(1.960784%,3.921569%,0.392157%);fill-opacity:1;" d="M 10.109375 61.082031 C 9.679688 60.804688 9.679688 60.527344 10.109375 60.25 C 10.25 60.289062 10.289062 60.441406 10.386719 60.527344 C 10.457031 60.527344 10.566406 60.554688 10.582031 60.527344 C 11.164062 59.652344 11.703125 60.71875 12.285156 60.566406 C 12.394531 60.539062 12.453125 60.691406 12.464844 60.816406 C 12.105469 60.777344 11.882812 61.21875 11.496094 61.09375 C 11.328125 61.234375 11.050781 61.136719 10.941406 61.371094 C 10.941406 61.414062 10.941406 61.441406 10.929688 61.480469 C 10.929688 61.480469 10.941406 61.523438 10.941406 61.523438 C 10.871094 61.550781 10.832031 61.539062 10.789062 61.480469 C 10.746094 61.441406 10.691406 61.398438 10.652344 61.371094 C 10.527344 61.164062 10.25 61.273438 10.109375 61.082031 Z M 10.109375 61.082031 "/>
<path style=" stroke:none;fill-rule:nonzero;fill:rgb(2.745098%,4.705882%,0.784314%);fill-opacity:1;" d="M 18.976562 63.339844 C 19.695312 63.878906 20.195312 63.253906 20.761719 63.003906 C 20.804688 63.253906 20.472656 63.339844 20.5 63.574219 C 20.429688 63.78125 20.332031 63.917969 20.082031 63.851562 C 19.847656 63.835938 19.75 63.933594 19.640625 64.167969 C 19.460938 64.542969 19.167969 64.558594 18.976562 64.128906 C 18.78125 63.949219 18.890625 63.753906 18.976562 63.574219 C 18.976562 63.492188 18.976562 63.40625 18.976562 63.339844 Z M 18.976562 63.339844 "/>
<path style=" stroke:none;fill-rule:nonzero;fill:rgb(4.705882%,3.137255%,8.235294%);fill-opacity:1;" d="M 10.664062 62.300781 C 10.761719 62.492188 10.84375 62.671875 10.941406 62.867188 C 10.84375 63.1875 11.136719 63.28125 11.300781 63.449219 C 10.984375 63.726562 10.84375 63.449219 10.664062 63.296875 C 10.136719 63.074219 10.179688 62.480469 9.890625 62.089844 C 9.929688 61.882812 10.027344 61.773438 10.25 61.910156 C 10.347656 61.910156 10.441406 61.910156 10.539062 61.910156 C 10.679688 62.007812 10.59375 62.175781 10.664062 62.300781 Z M 10.664062 62.300781 "/>
<path style=" stroke:none;fill-rule:nonzero;fill:rgb(2.352941%,2.352941%,6.666667%);fill-opacity:1;" d="M 19.253906 60.804688 C 18.917969 61.289062 18.546875 61.71875 17.867188 61.632812 C 17.910156 61.011719 18.613281 61.011719 18.878906 60.566406 C 18.960938 60.429688 19.222656 60.554688 19.253906 60.804688 Z M 19.253906 60.804688 "/>
<path style=" stroke:none;fill-rule:nonzero;fill:rgb(1.568628%,3.921569%,0.784314%);fill-opacity:1;" d="M 10.25 61.910156 C 10.070312 61.925781 9.972656 62.007812 9.972656 62.1875 C 9.929688 62.230469 9.875 62.242188 9.832031 62.1875 C 8.90625 62.242188 9.585938 61.480469 9.292969 61.21875 C 9.722656 61.328125 10.109375 61.453125 10.25 61.910156 Z M 10.25 61.910156 "/>
<path style=" stroke:none;fill-rule:nonzero;fill:rgb(1.568628%,3.921569%,0.392157%);fill-opacity:1;" d="M 21.605469 62.480469 C 21.59375 62.214844 21.605469 61.996094 21.746094 61.785156 C 21.828125 61.660156 21.964844 61.605469 22.089844 61.660156 C 22.3125 61.746094 22.175781 61.855469 22.089844 61.964844 C 21.996094 62.105469 22.007812 62.269531 22.0625 62.421875 C 22.148438 62.671875 22.089844 62.9375 21.84375 62.964844 C 21.480469 62.992188 21.660156 62.644531 21.605469 62.480469 Z M 21.605469 62.480469 "/>
<path style=" stroke:none;fill-rule:nonzero;fill:rgb(1.176471%,4.705882%,0%);fill-opacity:1;" d="M 9.832031 62.1875 C 9.875 62.1875 9.929688 62.1875 9.972656 62.1875 C 10.320312 62.480469 10.414062 62.9375 10.664062 63.296875 C 10.566406 63.65625 10.414062 63.628906 10.222656 63.367188 C 9.945312 63.019531 9.738281 62.660156 9.832031 62.1875 Z M 9.832031 62.1875 "/>
<path style=" stroke:none;fill-rule:nonzero;fill:rgb(1.568628%,3.137255%,0.392157%);fill-opacity:1;" d="M 20.082031 63.851562 C 20.222656 63.753906 20.359375 63.671875 20.5 63.574219 C 20.859375 63.851562 21.023438 63.046875 21.441406 63.433594 C 20.984375 63.710938 20.691406 64.183594 20.167969 64.292969 C 20.136719 64.15625 20.109375 64.003906 20.082031 63.851562 Z M 20.082031 63.851562 "/>
<path style=" stroke:none;fill-rule:nonzero;fill:rgb(0.784314%,4.705882%,0.392157%);fill-opacity:1;" d="M 18.699219 64.128906 C 18.671875 64.222656 18.585938 64.417969 18.519531 64.292969 C 18.378906 64.070312 18.296875 63.835938 17.976562 63.765625 C 17.839844 63.738281 17.839844 63.53125 17.921875 63.40625 C 18.019531 63.253906 18.214844 63.242188 18.339844 63.351562 C 18.476562 63.492188 18.585938 63.671875 18.699219 63.835938 C 18.765625 63.949219 18.78125 64.03125 18.699219 64.128906 Z M 18.699219 64.128906 "/>
<path style=" stroke:none;fill-rule:nonzero;fill:rgb(2.352941%,1.960784%,7.058824%);fill-opacity:1;" d="M 21.46875 60.25 C 21.011719 60.25 20.539062 60.25 20.082031 60.25 C 20.457031 59.847656 21.09375 59.847656 21.46875 60.25 Z M 21.46875 60.25 "/>
<path style=" stroke:none;fill-rule:nonzero;fill:rgb(2.745098%,1.568628%,9.411765%);fill-opacity:1;" d="M 12.464844 60.804688 C 12.480469 60.789062 12.507812 60.777344 12.519531 60.761719 C 12.6875 60.582031 12.851562 60.402344 13.089844 60.636719 C 13.1875 60.734375 13.1875 60.929688 13.046875 60.996094 C 12.8125 61.121094 12.546875 61.175781 12.464844 60.804688 Z M 12.464844 60.804688 "/>
<path style=" stroke:none;fill-rule:nonzero;fill:rgb(10.588235%,7.843138%,2.745098%);fill-opacity:1;" d="M 12.464844 62.160156 C 12.269531 62.203125 12.078125 62.148438 11.882812 62.285156 C 11.660156 62.453125 11.648438 62.421875 11.632812 62.050781 C 11.828125 61.855469 12.0625 61.828125 12.3125 61.898438 C 12.367188 61.855469 12.410156 61.871094 12.453125 61.910156 C 12.464844 61.996094 12.464844 62.078125 12.464844 62.160156 Z M 12.464844 62.160156 "/>
<path style=" stroke:none;fill-rule:nonzero;fill:rgb(87.450981%,89.411765%,30.19608%);fill-opacity:1;" d="M 10.664062 62.300781 C 10.625 62.175781 10.582031 62.035156 10.539062 61.910156 C 10.625 61.757812 10.566406 61.539062 10.804688 61.46875 C 10.859375 61.480469 10.898438 61.496094 10.957031 61.507812 C 10.941406 61.8125 10.984375 62.117188 10.664062 62.300781 Z M 10.664062 62.300781 "/>
<path style=" stroke:none;fill-rule:nonzero;fill:rgb(3.137255%,1.568628%,7.843138%);fill-opacity:1;" d="M 21.328125 60.527344 C 21.566406 60.527344 21.785156 60.527344 22.023438 60.527344 C 22.132812 60.566406 22.355469 60.664062 22.148438 60.734375 C 21.898438 60.832031 21.496094 61.011719 21.328125 60.527344 Z M 21.328125 60.527344 "/>
<path style=" stroke:none;fill-rule:nonzero;fill:rgb(4.313726%,1.960784%,13.333334%);fill-opacity:1;" d="M 10.941406 61.355469 C 10.859375 60.71875 11.175781 60.898438 11.496094 61.082031 C 11.523438 61.605469 11.121094 61.246094 10.941406 61.355469 Z M 10.941406 61.355469 "/>
<path style=" stroke:none;fill-rule:nonzero;fill:rgb(2.745098%,3.921569%,0.784314%);fill-opacity:1;" d="M 21.191406 61.21875 C 21.425781 60.984375 21.675781 61.109375 22.007812 61.121094 C 21.746094 61.480469 21.425781 61.300781 21.191406 61.355469 C 21.148438 61.328125 21.121094 61.300781 21.148438 61.261719 C 21.164062 61.234375 21.175781 61.21875 21.191406 61.21875 Z M 21.191406 61.21875 "/>
<path style=" stroke:none;fill-rule:nonzero;fill:rgb(2.745098%,2.745098%,10.196079%);fill-opacity:1;" d="M 10.109375 61.082031 C 10.332031 61.109375 10.625 60.984375 10.664062 61.355469 C 10.472656 61.289062 10.070312 61.632812 10.109375 61.082031 Z M 10.109375 61.082031 "/>
<path style=" stroke:none;fill-rule:nonzero;fill:rgb(3.137255%,1.960784%,8.627451%);fill-opacity:1;" d="M 21.191406 61.21875 C 21.191406 61.261719 21.191406 61.316406 21.191406 61.355469 C 20.941406 61.300781 20.59375 61.523438 20.5 61.082031 C 20.746094 61.066406 20.984375 61.09375 21.191406 61.21875 Z M 21.191406 61.21875 "/>
<path style=" stroke:none;fill-rule:nonzero;fill:rgb(1.960784%,2.745098%,11.372549%);fill-opacity:1;" d="M 18.699219 64.128906 C 18.699219 64.03125 18.699219 63.949219 18.699219 63.851562 C 18.710938 63.671875 18.796875 63.574219 18.976562 63.574219 C 19.113281 63.753906 18.90625 63.949219 18.976562 64.128906 C 18.878906 64.128906 18.796875 64.128906 18.699219 64.128906 Z M 18.699219 64.128906 "/>
<path style=" stroke:none;fill-rule:nonzero;fill:rgb(2.352941%,1.568628%,10.196079%);fill-opacity:1;" d="M 10.386719 60.527344 C 10.207031 60.527344 10.125 60.429688 10.109375 60.25 C 10.125 60.152344 10.152344 60.015625 10.25 60.054688 C 10.484375 60.125 10.347656 60.359375 10.386719 60.527344 Z M 10.386719 60.527344 "/>
<path style=" stroke:none;fill-rule:nonzero;fill:rgb(83.137256%,81.960785%,50.196081%);fill-opacity:1;" d="M 19.375 62.453125 C 19.167969 62.453125 18.976562 62.453125 18.765625 62.453125 C 18.78125 62.410156 18.796875 62.367188 18.808594 62.328125 C 18.976562 62.507812 19.347656 61.773438 19.375 62.453125 Z M 19.375 62.453125 "/>
<path style=" stroke:none;fill-rule:nonzero;fill:rgb(3.137255%,3.529412%,8.235294%);fill-opacity:1;" d="M 12.464844 61.910156 C 12.421875 61.910156 12.367188 61.898438 12.328125 61.898438 C 12.339844 61.785156 12.355469 61.675781 12.507812 61.691406 C 12.5625 61.691406 12.632812 61.757812 12.644531 61.800781 C 12.644531 61.910156 12.546875 61.898438 12.464844 61.910156 Z M 12.464844 61.910156 "/>
<path style=" stroke:none;fill-rule:nonzero;fill:rgb(4.705882%,3.137255%,7.843138%);fill-opacity:1;" d="M 20.484375 61.632812 C 20.261719 61.773438 20.027344 61.910156 19.804688 62.0625 C 19.738281 62.023438 19.652344 61.964844 19.585938 61.925781 C 19.460938 61.871094 19.210938 62.007812 19.222656 61.757812 C 19.222656 61.566406 19.363281 61.414062 19.570312 61.386719 C 19.902344 61.328125 20.261719 61.289062 20.484375 61.632812 Z M 20.484375 61.632812 "/>
<path style=" stroke:none;fill-rule:nonzero;fill:rgb(86.274511%,82.745099%,58.039218%);fill-opacity:1;" d="M 21.023438 62.328125 C 20.789062 62.148438 21.050781 61.757812 20.734375 61.605469 C 20.871094 61.480469 21.011719 61.414062 21.050781 61.660156 C 21.066406 61.898438 21.023438 62.117188 21.023438 62.328125 Z M 21.023438 62.328125 "/>
<path style=" stroke:none;fill-rule:nonzero;fill:rgb(91.37255%,87.843138%,24.705882%);fill-opacity:1;" d="M 20.554688 61.898438 C 20.625 62.242188 20.746094 62.492188 20.5 62.671875 C 20.386719 62.757812 20.222656 62.644531 20.152344 62.535156 C 20 62.203125 20.332031 62.148438 20.554688 61.898438 Z M 20.554688 61.898438 "/>
<path style=" stroke:none;fill-rule:nonzero;fill:rgb(89.019608%,89.411765%,24.313726%);fill-opacity:1;" d="M 11.480469 62.617188 C 11.386719 62.660156 11.328125 62.714844 11.289062 62.714844 C 11.246094 62.699219 11.203125 62.632812 11.164062 62.589844 C 11.21875 62.5625 11.261719 62.492188 11.316406 62.492188 C 11.355469 62.492188 11.398438 62.5625 11.480469 62.617188 Z M 11.480469 62.617188 "/>
</g>
</svg>
