<?xml version="1.0" encoding="utf-8"?>
<!-- Generator: Adobe Illustrator 21.0.0, SVG Export Plug-In . SVG Version: 6.00 Build 0)  -->
<svg version="1.2" baseProfile="tiny" id="Layer_1" xmlns="http://www.w3.org/2000/svg" xmlns:xlink="http://www.w3.org/1999/xlink"
	 x="0px" y="0px" viewBox="0 0 100 100" xml:space="preserve">
<path d="M84.5,41.3c-13.3-1.5-27.3,7.8-30,26.4c-0.1,0.6-0.2,1.3-0.2,2h-0.8C54.6,57,59.8,48.3,63,42.5c4.1-7.5,0.8-15-0.8-18.3
	C60.3,20.4,52.1,5.2,50,0c-2.1,5.2-10.3,20.4-12.1,24.2c-1.6,3.3-4.9,10.8-0.8,18.3c3.1,5.8,8.4,14.6,9.6,27.2h-0.9
	c-0.1-0.7-0.1-1.3-0.2-2c-2.6-18.6-16.6-27.9-30-26.4C0.6,43-7.4,66.6,15.7,72.3c-3.7-6.9,2.1-19.4,15.5-12.3c4.4,2.3,7.4,6,8.7,9.7
	h-2.3c-2.1,0-3.9,1.2-3.9,2.8c0,1.5,1.7,2.8,3.9,2.8h2.7c-0.2,1.2-0.7,2.4-1.4,3.4c-3.2,4.6-13.9,2.1-7.9-7.9
	c-10.1-1.3-12.8,8.2-9.8,13.3c3.2,6.5,17.2,8.5,22.5-0.8c1.3-2.2,1.9-5,2.1-8h1.1c0,2.2-0.1,4.5-0.4,7c-3.5,2.3-2.2,7.2-6.6,10.1
	c2.8,0.1,5.1-0.5,5.8-1.5c0,3,2.7,5.5,4.4,9.2c1.6-3.7,4.3-6.7,4.3-9.2c0.7,1,3,1.6,5.8,1.5c-4.1-2.5-2.5-7.1-6.5-10.4
	c-0.3-2.3-0.4-4.5-0.4-6.7h0.9c0.2,2.9,0.8,5.7,2.1,8c5.3,9.3,19.3,7.4,22.5,0.8c2.9-5.1,0.2-14.6-9.8-13.3c6,10-4.7,12.5-7.9,7.9
	c-0.7-1-1.2-2.2-1.4-3.4h3c2.1,0,3.9-1.2,3.9-2.8c0-1.5-1.7-2.8-3.9-2.8h-2.5c1.3-3.8,4.3-7.4,8.7-9.7c13.5-7.1,19.3,5.4,15.5,12.3
	C107.4,66.6,99.4,43,84.5,41.3z"/>
</svg>
