<?xml version="1.0" encoding="utf-8" ?>
<svg baseProfile="full" height="100px" version="1.1" width="150px" xmlns="http://www.w3.org/2000/svg" xmlns:ev="http://www.w3.org/2001/xml-events" xmlns:xlink="http://www.w3.org/1999/xlink"><defs /><rect fill="#009966" height="100" stroke="none" width="150" x="0" y="0" /><rect fill="#0066cc" height="100" stroke="none" width="46.827309224807045" x="0" y="0" /><g transform="translate(50, 25) scale(0.5) rotate(90, 50, 50)"><path d="M 84.5,41.3 C 71.2,39.8 57.2,49.099999999999994 54.5,67.69999999999999 C 54.4,68.29999999999998 54.3,68.99999999999999 54.3,69.69999999999999 L 53.5,69.69999999999999 C 54.6,57.0 59.8,48.3 63.0,42.5 C 67.1,35.0 63.8,27.5 62.2,24.2 C 60.3,20.4 52.1,5.2 50.0,0.0 C 47.9,5.2 39.7,20.4 37.9,24.2 C 36.3,27.5 33.0,35.0 37.1,42.5 C 40.2,48.3 45.5,57.1 46.7,69.7 L 45.800000000000004,69.7 C 45.7,69.0 45.7,68.4 45.6,67.7 C 43.0,49.1 29.0,39.8 15.6,41.3 C 0.5999999999999996,43.0 -7.4,66.6 15.7,72.3 C 12.0,65.4 17.8,52.9 31.2,60.0 C 35.6,62.3 38.6,66.0 39.9,69.7 L 37.6,69.7 C 35.5,69.7 33.7,70.9 33.7,72.5 C 33.7,74.0 35.400000000000006,75.3 37.6,75.3 L 40.300000000000004,75.3 C 40.1,76.5 39.6,77.7 38.900000000000006,78.7 C 35.7,83.3 25.000000000000007,80.8 31.000000000000007,70.8 C 20.900000000000006,69.5 18.200000000000006,79.0 21.200000000000006,84.1 C 24.400000000000006,90.6 38.400000000000006,92.6 43.7,83.3 C 45.0,81.1 45.6,78.3 45.800000000000004,75.3 L 46.900000000000006,75.3 C 46.900000000000006,77.5 46.800000000000004,79.8 46.50000000000001,82.3 C 43.00000000000001,84.6 44.300000000000004,89.5 39.900000000000006,92.39999999999999 C 42.7,92.49999999999999 45.00000000000001,91.89999999999999 45.7,90.89999999999999 C 45.7,93.89999999999999 48.400000000000006,96.39999999999999 50.1,100.1 C 51.7,96.39999999999999 54.4,93.39999999999999 54.4,90.89999999999999 C 55.1,91.89999999999999 57.4,92.49999999999999 60.199999999999996,92.39999999999999 C 56.099999999999994,89.89999999999999 57.699999999999996,85.3 53.699999999999996,81.99999999999999 C 53.4,79.69999999999999 53.3,77.49999999999999 53.3,75.29999999999998 L 54.199999999999996,75.29999999999998 C 54.4,78.19999999999999 54.99999999999999,80.99999999999999 56.3,83.29999999999998 C 61.599999999999994,92.59999999999998 75.6,90.69999999999999 78.8,84.09999999999998 C 81.7,79.0 79.0,69.5 69.0,70.8 C 75.0,80.8 64.3,83.3 61.1,78.7 C 60.4,77.7 59.9,76.5 59.7,75.3 L 62.7,75.3 C 64.8,75.3 66.60000000000001,74.1 66.60000000000001,72.5 C 66.60000000000001,71.0 64.9,69.7 62.70000000000001,69.7 L 60.20000000000001,69.7 C 61.50000000000001,65.9 64.50000000000001,62.300000000000004 68.9,60.0 C 82.4,52.9 88.2,65.4 84.4,72.3 C 107.4,66.6 99.4,43.0 84.5,41.3" fill="pink" stroke="none" /></g></svg>