<?xml version="1.0" encoding="UTF-8"?>
<svg xmlns="http://www.w3.org/2000/svg" xmlns:xlink="http://www.w3.org/1999/xlink" width="100px" height="100px" viewBox="0 0 100 100" version="1.1">
<g id="surface1">
<path style=" stroke:none;fill-rule:evenodd;fill:rgb(38.431373%,49.411765%,91.764706%);fill-opacity:1;" d="M 100 50 C 100 77.613281 77.613281 100 50 100 C 22.386719 100 0 77.613281 0 50 C 0 22.386719 22.386719 0 50 0 C 77.613281 0 100 22.386719 100 50 Z M 100 50 "/>
<path style=" stroke:none;fill-rule:nonzero;fill:rgb(100%,100%,100%);fill-opacity:0.602;" d="M 51.554688 12.5 L 51.554688 40.21875 L 74.984375 50.6875 Z M 51.554688 12.5 "/>
<path style=" stroke:none;fill-rule:nonzero;fill:rgb(100%,100%,100%);fill-opacity:1;" d="M 51.554688 12.5 L 28.125 50.6875 L 51.554688 40.21875 Z M 51.554688 12.5 "/>
<path style=" stroke:none;fill-rule:nonzero;fill:rgb(100%,100%,100%);fill-opacity:0.602;" d="M 51.554688 68.648438 L 51.554688 87.484375 L 75 55.050781 Z M 51.554688 68.648438 "/>
<path style=" stroke:none;fill-rule:nonzero;fill:rgb(100%,100%,100%);fill-opacity:1;" d="M 51.554688 87.484375 L 51.554688 68.648438 L 28.125 55.050781 Z M 51.554688 87.484375 "/>
<path style=" stroke:none;fill-rule:nonzero;fill:rgb(100%,100%,100%);fill-opacity:0.2;" d="M 51.554688 64.289062 L 74.984375 50.6875 L 51.554688 40.226562 Z M 51.554688 64.289062 "/>
<path style=" stroke:none;fill-rule:nonzero;fill:rgb(100%,100%,100%);fill-opacity:0.602;" d="M 28.125 50.6875 L 51.554688 64.289062 L 51.554688 40.226562 Z M 28.125 50.6875 "/>
</g>
</svg>
