<?xml version="1.0" encoding="UTF-8"?>
<svg xmlns="http://www.w3.org/2000/svg" xmlns:xlink="http://www.w3.org/1999/xlink" width="100px" height="100px" viewBox="0 0 100 100" version="1.1">
<g id="surface1">
<path style=" stroke:none;fill-rule:evenodd;fill:rgb(92.54902%,69.803923%,26.666668%);fill-opacity:1;" d="M 100 50 C 100 77.613281 77.613281 100 50 100 C 22.386719 100 0 77.613281 0 50 C 0 22.386719 22.386719 0 50 0 C 77.613281 0 100 22.386719 100 50 Z M 100 50 "/>
<path style=" stroke:none;fill-rule:nonzero;fill:rgb(100%,100%,100%);fill-opacity:1;" d="M 47.175781 62.019531 L 66.851562 62.019531 L 66.851562 72.488281 L 54.742188 72.488281 C 54.945312 75.480469 55.046875 78.257812 55.246094 81.25 L 45.054688 81.25 L 45.054688 72.59375 L 32.945312 72.59375 C 32.945312 69.179688 32.539062 65.757812 33.148438 62.554688 C 33.449219 60.84375 35.265625 59.347656 36.375 57.851562 C 40.214844 53.054688 44.082031 48.285156 47.980469 43.539062 C 49.496094 41.71875 51.007812 40.007812 52.726562 37.980469 L 33.851562 37.980469 L 33.851562 27.511719 L 45.054688 27.511719 L 45.054688 18.75 L 54.84375 18.75 L 54.84375 27.296875 L 67.054688 27.296875 C 67.054688 30.820312 67.460938 34.242188 66.851562 37.445312 C 66.550781 39.15625 64.734375 40.652344 63.523438 42.148438 C 59.6875 46.945312 55.816406 51.714844 51.917969 56.460938 C 50.394531 58.363281 48.8125 60.21875 47.175781 62.019531 Z M 47.175781 62.019531 "/>
</g>
</svg>
