<?xml version="1.0" encoding="UTF-8"?>
<svg xmlns="http://www.w3.org/2000/svg" xmlns:xlink="http://www.w3.org/1999/xlink" width="100px" height="100px" viewBox="0 0 100 100" version="1.1">
<g id="surface1">
<path style=" stroke:none;fill-rule:nonzero;fill:rgb(100%,100%,100%);fill-opacity:1;" d="M 0.46875 100.703125 C 0.46875 67.449219 0.46875 33.957031 0.46875 0.703125 C 33.722656 0.703125 67.214844 0.703125 100.46875 0.703125 C 100.46875 33.957031 100.46875 67.449219 100.46875 100.703125 C 67.214844 100.703125 33.957031 100.703125 0.46875 100.703125 Z M 19.671875 48.242188 C 29.507812 54.097656 39.34375 59.71875 48.945312 65.574219 C 49.648438 66.042969 50.820312 65.808594 51.289062 65.574219 C 61.125 59.953125 70.960938 54.097656 80.5625 48.476562 C 70.492188 33.253906 60.1875 18.265625 50.117188 3.042969 C 39.8125 18.03125 29.742188 33.019531 19.671875 48.242188 Z M 81.5 51.523438 C 81.265625 51.289062 81.265625 51.289062 81.03125 51.054688 C 72.132812 56.207031 63.230469 61.359375 54.566406 66.746094 C 51.289062 68.851562 48.710938 68.851562 45.433594 66.746094 C 36.769531 61.125 27.632812 56.207031 18.734375 51.054688 C 18.734375 51.054688 18.5 51.289062 18.5 51.289062 C 29.039062 66.980469 39.578125 82.667969 50.117188 98.359375 C 60.890625 82.667969 71.195312 66.980469 81.5 51.523438 Z M 81.5 51.523438 "/>
<path style=" stroke:none;fill-rule:nonzero;fill:rgb(0%,0%,0%);fill-opacity:1;" d="M 19.671875 48.242188 C 29.976562 33.019531 40.046875 18.03125 50.117188 2.808594 C 60.421875 18.03125 70.492188 33.253906 80.5625 48.242188 C 70.960938 53.863281 61.125 59.71875 51.289062 65.339844 C 50.585938 65.808594 49.414062 65.808594 48.945312 65.339844 C 39.109375 59.71875 29.507812 53.863281 19.671875 48.242188 Z M 22.484375 48.007812 C 31.617188 53.394531 40.28125 58.546875 49.179688 63.699219 C 49.179688 53.160156 49.179688 42.855469 49.179688 32.320312 C 40.28125 37.472656 31.617188 42.621094 22.484375 48.007812 Z M 51.289062 32.320312 C 51.289062 42.855469 51.289062 52.925781 51.289062 63.464844 C 60.1875 58.3125 68.851562 53.160156 77.75 47.773438 C 68.851562 42.621094 60.1875 37.472656 51.289062 32.320312 Z M 24.355469 44.496094 C 24.589844 44.496094 24.824219 44.730469 24.824219 44.730469 C 32.550781 40.046875 40.515625 35.597656 48.242188 30.914062 C 48.945312 30.445312 49.414062 29.039062 49.414062 28.101562 C 49.648438 22.949219 49.414062 17.796875 49.414062 12.644531 C 49.414062 11.007812 49.414062 9.367188 49.414062 7.726562 C 49.179688 7.726562 48.945312 7.726562 48.945312 7.726562 C 40.75 19.90625 32.550781 32.085938 24.355469 44.496094 Z M 51.757812 7.960938 C 51.523438 7.960938 51.289062 7.960938 51.289062 8.195312 C 51.289062 14.988281 51.289062 22.015625 51.289062 28.804688 C 51.289062 29.507812 51.757812 30.445312 52.460938 30.914062 C 60.1875 35.597656 68.148438 40.28125 75.878906 44.730469 C 75.878906 44.730469 76.113281 44.496094 76.113281 44.496094 C 67.914062 32.320312 59.71875 20.140625 51.757812 7.960938 Z M 51.757812 7.960938 "/>
<path style=" stroke:none;fill-rule:nonzero;fill:rgb(0%,0%,0%);fill-opacity:1;" d="M 81.5 51.523438 C 71.195312 66.980469 60.65625 82.4375 50.117188 98.359375 C 39.578125 82.4375 29.039062 66.980469 18.5 51.289062 C 18.5 51.289062 18.734375 51.054688 18.734375 51.054688 C 27.632812 56.207031 36.769531 61.359375 45.433594 66.746094 C 48.710938 68.851562 51.289062 68.851562 54.566406 66.746094 C 63.230469 61.359375 72.132812 56.207031 81.03125 51.054688 C 81.265625 51.289062 81.5 51.523438 81.5 51.523438 Z M 25.058594 56.675781 C 24.824219 56.910156 24.824219 56.910156 24.589844 57.144531 C 32.785156 69.320312 40.75 81.265625 48.945312 93.441406 C 49.414062 86.183594 49.414062 79.15625 49.414062 72.132812 C 49.414062 71.664062 48.945312 70.726562 48.242188 70.492188 C 40.515625 65.808594 32.785156 61.125 25.058594 56.675781 Z M 76.113281 56.675781 C 76.113281 56.675781 75.878906 56.441406 75.878906 56.441406 C 68.148438 60.890625 60.421875 65.574219 52.691406 70.023438 C 51.992188 70.492188 51.289062 71.898438 51.054688 72.832031 C 50.820312 78.921875 51.054688 85.011719 51.054688 91.101562 C 51.054688 91.804688 51.289062 92.503906 51.289062 93.675781 C 59.71875 81.03125 67.914062 68.851562 76.113281 56.675781 Z M 76.113281 56.675781 "/>
<path style=" stroke:none;fill-rule:nonzero;fill:rgb(100%,100%,100%);fill-opacity:1;" d="M 22.484375 48.007812 C 31.617188 42.621094 40.28125 37.703125 49.179688 32.320312 C 49.179688 42.855469 49.179688 53.160156 49.179688 63.699219 C 40.28125 58.3125 31.617188 53.160156 22.484375 48.007812 Z M 22.484375 48.007812 "/>
<path style=" stroke:none;fill-rule:nonzero;fill:rgb(100%,100%,100%);fill-opacity:1;" d="M 51.289062 32.320312 C 60.1875 37.472656 68.851562 42.621094 77.75 48.007812 C 68.851562 53.394531 60.1875 58.3125 51.289062 63.699219 C 51.289062 52.925781 51.289062 42.855469 51.289062 32.320312 Z M 51.289062 32.320312 "/>
<path style=" stroke:none;fill-rule:nonzero;fill:rgb(100%,100%,100%);fill-opacity:1;" d="M 24.355469 44.496094 C 32.550781 32.320312 40.75 20.140625 48.945312 7.726562 C 49.179688 7.726562 49.414062 7.726562 49.414062 7.726562 C 49.414062 9.367188 49.414062 11.007812 49.414062 12.644531 C 49.414062 17.796875 49.414062 22.949219 49.414062 28.101562 C 49.414062 29.039062 48.945312 30.445312 48.242188 30.914062 C 40.515625 35.597656 32.550781 40.046875 24.824219 44.730469 C 24.589844 44.730469 24.355469 44.496094 24.355469 44.496094 Z M 24.355469 44.496094 "/>
<path style=" stroke:none;fill-rule:nonzero;fill:rgb(100%,100%,100%);fill-opacity:1;" d="M 51.757812 7.960938 C 59.953125 20.140625 67.914062 32.320312 76.113281 44.261719 C 76.113281 44.261719 75.878906 44.496094 75.878906 44.496094 C 67.914062 39.8125 60.1875 35.363281 52.460938 30.679688 C 51.992188 30.445312 51.523438 29.273438 51.289062 28.570312 C 51.289062 21.78125 51.289062 14.753906 51.289062 7.960938 C 51.289062 7.960938 51.523438 7.960938 51.757812 7.960938 Z M 51.757812 7.960938 "/>
<path style=" stroke:none;fill-rule:nonzero;fill:rgb(100%,100%,100%);fill-opacity:1;" d="M 25.058594 56.675781 C 32.785156 61.125 40.515625 65.808594 48.242188 70.257812 C 48.710938 70.492188 49.414062 71.429688 49.414062 71.898438 C 49.414062 78.921875 49.414062 85.949219 48.945312 93.207031 C 40.75 81.03125 32.785156 69.085938 24.589844 56.910156 C 24.824219 56.910156 24.824219 56.910156 25.058594 56.675781 Z M 25.058594 56.675781 "/>
<path style=" stroke:none;fill-rule:nonzero;fill:rgb(100%,100%,100%);fill-opacity:1;" d="M 76.113281 56.675781 C 67.914062 68.851562 59.71875 81.03125 51.289062 93.675781 C 51.289062 92.503906 51.054688 91.804688 51.054688 91.101562 C 51.054688 85.011719 51.054688 78.921875 51.054688 72.832031 C 51.054688 71.898438 51.757812 70.492188 52.691406 70.023438 C 60.421875 65.339844 68.148438 60.890625 75.878906 56.441406 C 75.878906 56.441406 76.113281 56.441406 76.113281 56.675781 Z M 76.113281 56.675781 "/>
</g>
</svg>
