<?xml version="1.0" encoding="UTF-8"?>
<svg xmlns="http://www.w3.org/2000/svg" xmlns:xlink="http://www.w3.org/1999/xlink" width="100px" height="100px" viewBox="0 0 100 100" version="1.1">
<g id="surface1">
<path style=" stroke:none;fill-rule:nonzero;fill:rgb(0%,0%,0%);fill-opacity:1;" d="M 50 100 C 22.382812 100 0 77.617188 0 50 C 0 22.382812 22.382812 0 50 0 C 77.617188 0 100 22.382812 100 50 C 100 77.617188 77.617188 100 50 100 Z M 72.09375 25 L 57.800781 39.132812 C 53.472656 43.40625 46.515625 43.40625 42.1875 39.132812 L 27.90625 25 L 18.859375 25 L 37.671875 43.617188 C 44.511719 50.351562 55.488281 50.351562 62.328125 43.617188 L 81.128906 25 Z M 27.796875 76.757812 L 42.199219 62.5 C 46.527344 58.226562 53.484375 58.226562 57.8125 62.5 L 72.203125 76.757812 L 81.25 76.757812 L 62.328125 58.03125 C 55.488281 51.292969 44.511719 51.292969 37.671875 58.03125 L 18.75 76.757812 Z M 27.796875 76.757812 "/>
</g>
</svg>
