<?xml version="1.0" encoding="UTF-8"?>
<svg xmlns="http://www.w3.org/2000/svg" xmlns:xlink="http://www.w3.org/1999/xlink" width="100px" height="100px" viewBox="0 0 100 100" version="1.1">
<g id="surface1">
<path style=" stroke:none;fill-rule:nonzero;fill:rgb(0%,0%,0%);fill-opacity:1;" d="M 95.082031 51.054688 C 95.082031 76.347656 74.941406 96.253906 49.648438 96.019531 C 25.292969 96.019531 5.152344 75.410156 5.152344 50.820312 C 5.152344 26.230469 25.761719 5.855469 50.585938 5.855469 C 75.175781 6.089844 95.082031 26.230469 95.082031 51.054688 Z M 27.632812 72.367188 C 27.632812 76.816406 27.632812 76.816406 32.085938 76.816406 C 33.488281 76.816406 34.660156 76.816406 36.066406 76.816406 C 41.6875 76.816406 41.21875 76.582031 41.21875 81.96875 C 41.21875 84.074219 41.921875 84.542969 44.027344 84.777344 C 46.839844 85.011719 47.074219 83.371094 47.074219 81.265625 C 46.839844 76.816406 47.074219 76.816406 51.523438 76.816406 C 53.394531 76.816406 54.097656 77.515625 54.097656 79.390625 C 54.097656 80.5625 54.097656 81.734375 54.097656 82.667969 C 54.097656 84.074219 54.800781 84.542969 56.207031 84.777344 C 59.015625 85.011719 59.71875 84.542969 59.484375 81.5 C 59.25 77.984375 60.421875 76.347656 63.933594 74.707031 C 73.535156 70.726562 75.878906 59.484375 69.789062 52.226562 C 68.851562 51.054688 68.851562 50.117188 69.789062 49.179688 C 75.410156 43.324219 74.238281 30.914062 63.464844 26.699219 C 60.1875 25.527344 59.015625 23.652344 59.484375 20.609375 C 59.484375 20.140625 59.484375 19.671875 59.484375 19.203125 C 59.484375 17.796875 58.78125 17.097656 57.378906 17.097656 C 54.566406 16.863281 54.097656 17.332031 53.863281 20.375 C 53.863281 22.015625 54.800781 23.886719 52.691406 24.824219 C 49.179688 26.230469 46.839844 24.824219 46.839844 20.84375 C 46.839844 20.375 46.839844 19.671875 46.839844 19.203125 C 47.074219 17.5625 45.902344 17.097656 44.496094 17.097656 C 43.089844 17.097656 41.453125 16.628906 41.21875 18.96875 C 40.984375 20.84375 42.15625 23.183594 40.28125 24.355469 C 38.640625 25.527344 36.535156 24.589844 34.425781 24.824219 C 33.957031 24.824219 33.488281 24.824219 33.019531 24.824219 C 27.167969 24.824219 27.867188 24.355469 27.632812 29.976562 C 27.632812 32.785156 28.570312 33.957031 31.382812 33.488281 C 33.488281 33.253906 34.894531 34.425781 34.894531 36.769531 C 34.894531 45.902344 34.894531 55.035156 34.894531 64.167969 C 34.894531 66.277344 33.722656 67.449219 31.617188 67.679688 C 27.632812 68.617188 27.632812 68.617188 27.632812 72.367188 Z M 27.632812 72.367188 "/>
<path style=" stroke:none;fill-rule:nonzero;fill:rgb(0%,0%,0%);fill-opacity:1;" d="M 51.523438 46.839844 C 49.648438 46.839844 47.773438 46.839844 45.902344 46.839844 C 44.027344 46.839844 43.089844 46.136719 43.089844 44.261719 C 43.089844 41.6875 43.089844 39.109375 43.089844 36.535156 C 43.089844 34.894531 43.792969 33.957031 45.667969 33.957031 C 49.648438 33.957031 53.628906 33.957031 57.609375 33.957031 C 61.125 34.191406 63.699219 36.769531 63.699219 40.28125 C 63.699219 43.792969 61.125 46.605469 57.378906 46.839844 C 55.503906 46.839844 53.394531 46.839844 51.523438 46.839844 Z M 51.523438 46.839844 "/>
<path style=" stroke:none;fill-rule:nonzero;fill:rgb(0%,0%,0%);fill-opacity:1;" d="M 51.757812 55.269531 C 53.863281 55.269531 55.738281 55.269531 57.84375 55.269531 C 61.125 55.503906 63.464844 57.84375 63.699219 60.890625 C 63.933594 64.167969 62.0625 67.214844 58.78125 67.679688 C 54.097656 68.617188 49.414062 68.148438 44.964844 67.914062 C 43.558594 67.914062 43.089844 66.980469 43.089844 65.574219 C 43.089844 62.761719 43.089844 59.953125 43.089844 57.144531 C 43.089844 55.738281 43.792969 55.035156 45.433594 55.035156 C 47.539062 55.269531 49.648438 55.269531 51.757812 55.269531 Z M 51.757812 55.269531 "/>
</g>
</svg>
