<?xml version="1.0" encoding="UTF-8"?>
<svg xmlns="http://www.w3.org/2000/svg" xmlns:xlink="http://www.w3.org/1999/xlink" width="100px" height="100px" viewBox="0 0 100 100" version="1.1">
<g id="surface1">
<path style=" stroke:none;fill-rule:nonzero;fill:rgb(100%,100%,100%);fill-opacity:1;" d="M 0.46875 0.46875 C 33.722656 0.46875 67.214844 0.46875 100.46875 0.46875 C 100.46875 33.722656 100.46875 67.214844 100.46875 100.46875 C 67.214844 100.46875 33.722656 100.46875 0.46875 100.46875 C 0.46875 67.214844 0.46875 33.957031 0.46875 0.46875 Z M 95.082031 51.054688 C 95.082031 26.464844 74.941406 6.324219 50.351562 6.089844 C 25.527344 6.089844 5.386719 26.230469 5.386719 51.054688 C 5.386719 75.644531 25.292969 95.785156 49.882812 95.785156 C 74.941406 96.019531 94.847656 76.113281 95.082031 51.054688 Z M 95.082031 51.054688 "/>
<path style=" stroke:none;fill-rule:nonzero;fill:rgb(0%,0%,0%);fill-opacity:1;" d="M 95.082031 51.054688 C 94.847656 76.113281 74.941406 96.019531 49.882812 96.019531 C 25.527344 96.019531 5.621094 75.878906 5.386719 51.289062 C 5.386719 26.464844 25.527344 6.324219 50.351562 6.324219 C 74.941406 6.324219 95.082031 26.464844 95.082031 51.054688 Z M 53.394531 24.589844 C 51.054688 24.589844 49.179688 24.589844 47.074219 24.589844 C 47.074219 22.015625 47.074219 19.671875 47.074219 17.097656 C 44.730469 17.097656 42.855469 17.097656 40.515625 17.097656 C 40.515625 19.671875 40.515625 22.25 40.515625 24.824219 C 35.832031 24.824219 31.617188 24.824219 27.167969 24.824219 C 27.167969 28.101562 27.167969 31.148438 27.167969 34.191406 C 28.101562 34.191406 29.039062 34.425781 29.742188 34.425781 C 33.722656 34.425781 34.191406 34.894531 34.191406 38.875 C 34.191406 46.605469 34.191406 54.332031 34.191406 62.0625 C 34.191406 66.511719 35.128906 68.148438 28.570312 67.914062 C 28.101562 67.914062 27.632812 67.914062 27.167969 68.148438 C 27.167969 71.429688 27.167969 74.472656 27.167969 77.75 C 31.617188 77.75 35.832031 77.75 40.515625 77.75 C 40.515625 80.328125 40.515625 82.902344 40.515625 85.480469 C 42.855469 85.480469 44.964844 85.480469 47.308594 85.480469 C 47.308594 82.902344 47.308594 80.328125 47.308594 77.984375 C 49.648438 77.984375 51.523438 77.984375 53.628906 77.984375 C 53.628906 80.5625 53.628906 83.136719 53.628906 85.480469 C 55.738281 85.480469 57.609375 85.480469 59.71875 85.480469 C 59.71875 82.667969 59.71875 80.09375 59.71875 77.285156 C 65.574219 75.644531 70.492188 72.597656 72.367188 66.746094 C 74.472656 60.890625 73.066406 55.503906 68.617188 51.054688 C 75.878906 43.558594 74.238281 31.851562 65.339844 27.632812 C 60.421875 25.292969 58.78125 22.714844 59.484375 17.796875 C 59.484375 17.5625 59.25 17.332031 59.25 16.863281 C 57.378906 16.863281 55.503906 16.863281 53.160156 16.863281 C 53.394531 19.4375 53.394531 22.015625 53.394531 24.589844 Z M 53.394531 24.589844 "/>
<path style=" stroke:none;fill-rule:nonzero;fill:rgb(100%,100%,100%);fill-opacity:1;" d="M 53.394531 24.589844 C 53.394531 22.015625 53.394531 19.671875 53.394531 17.097656 C 55.503906 17.097656 57.378906 17.097656 59.484375 17.097656 C 59.484375 17.5625 59.71875 17.796875 59.71875 18.03125 C 59.015625 22.949219 60.421875 25.761719 65.574219 27.867188 C 74.472656 31.851562 76.347656 43.792969 68.851562 51.289062 C 73.066406 55.738281 74.472656 61.125 72.597656 66.980469 C 70.257812 72.597656 65.574219 75.644531 59.71875 77.285156 C 59.71875 80.09375 59.71875 82.667969 59.71875 85.480469 C 57.609375 85.480469 55.738281 85.480469 53.628906 85.480469 C 53.628906 83.136719 53.628906 80.5625 53.628906 77.984375 C 51.523438 77.984375 49.648438 77.984375 47.308594 77.984375 C 47.308594 80.328125 47.308594 82.902344 47.308594 85.480469 C 44.964844 85.480469 42.855469 85.480469 40.515625 85.480469 C 40.515625 82.902344 40.515625 80.5625 40.515625 77.75 C 35.832031 77.75 31.617188 77.75 27.167969 77.75 C 27.167969 74.472656 27.167969 71.429688 27.167969 68.148438 C 27.632812 68.148438 28.101562 67.914062 28.570312 67.914062 C 35.363281 68.148438 34.191406 66.746094 34.191406 62.0625 C 34.191406 54.332031 34.191406 46.605469 34.191406 38.875 C 34.191406 34.894531 33.722656 34.425781 29.742188 34.425781 C 28.804688 34.425781 28.101562 34.425781 27.167969 34.191406 C 27.167969 30.914062 27.167969 28.101562 27.167969 24.824219 C 31.617188 24.824219 35.832031 24.824219 40.515625 24.824219 C 40.515625 22.25 40.515625 19.671875 40.515625 17.097656 C 42.855469 17.097656 44.964844 17.097656 47.074219 17.097656 C 47.074219 19.671875 47.074219 22.015625 47.074219 24.589844 C 49.179688 24.589844 51.054688 24.589844 53.394531 24.589844 Z M 43.792969 34.425781 C 43.792969 38.640625 43.792969 42.621094 43.792969 46.605469 C 48.242188 46.605469 52.691406 46.605469 57.144531 46.605469 C 60.65625 46.605469 63.230469 44.027344 63.464844 40.75 C 63.699219 37.472656 61.359375 34.660156 57.84375 34.425781 C 53.160156 34.191406 48.710938 34.425781 43.792969 34.425781 Z M 43.792969 67.914062 C 48.710938 67.914062 53.394531 68.148438 58.078125 67.914062 C 61.125 67.679688 63.464844 65.105469 63.464844 62.296875 C 63.699219 59.25 61.828125 56.441406 58.546875 56.207031 C 53.628906 55.738281 48.710938 56.207031 43.792969 56.207031 C 43.792969 59.953125 43.792969 63.699219 43.792969 67.914062 Z M 43.792969 67.914062 "/>
<path style=" stroke:none;fill-rule:nonzero;fill:rgb(0%,0%,0%);fill-opacity:1;" d="M 43.792969 34.425781 C 48.476562 34.425781 53.160156 34.191406 57.609375 34.425781 C 61.125 34.660156 63.464844 37.472656 63.230469 40.75 C 62.996094 44.027344 60.421875 46.371094 56.910156 46.605469 C 52.460938 46.605469 48.242188 46.605469 43.558594 46.605469 C 43.792969 42.621094 43.792969 38.640625 43.792969 34.425781 Z M 43.792969 34.425781 "/>
<path style=" stroke:none;fill-rule:nonzero;fill:rgb(0%,0%,0%);fill-opacity:1;" d="M 43.792969 67.914062 C 43.792969 63.699219 43.792969 59.953125 43.792969 55.972656 C 48.710938 55.972656 53.628906 55.738281 58.546875 55.972656 C 61.828125 56.207031 63.464844 59.015625 63.464844 62.0625 C 63.230469 65.105469 61.125 67.679688 58.078125 67.679688 C 53.394531 68.148438 48.710938 67.914062 43.792969 67.914062 Z M 43.792969 67.914062 "/>
</g>
</svg>
