<?xml version="1.0" encoding="UTF-8"?>
<svg xmlns="http://www.w3.org/2000/svg" xmlns:xlink="http://www.w3.org/1999/xlink" width="100px" height="100px" viewBox="0 0 100 100" version="1.1">
<g id="surface1">
<path style=" stroke:none;fill-rule:evenodd;fill:rgb(0%,0%,0%);fill-opacity:1;" d="M 50 100 C 22.382812 100 0 77.617188 0 50 C 0 22.382812 22.382812 0 50 0 C 77.617188 0 100 22.382812 100 50 C 100 77.617188 77.617188 100 50 100 Z M 78.054688 59.285156 C 77.824219 59.15625 77.589844 59.046875 77.34375 58.953125 L 77.34375 41.398438 C 77.621094 41.304688 77.898438 41.152344 78.179688 41.035156 C 81.054688 39.457031 82.101562 35.878906 80.496094 33.058594 C 79.636719 31.574219 78.183594 30.519531 76.503906 30.167969 C 74.820312 29.816406 73.070312 30.195312 71.683594 31.210938 L 55.921875 22.265625 C 55.953125 21.992188 55.984375 21.75 55.984375 21.476562 C 55.984375 18.230469 53.296875 15.625 50.015625 15.625 C 46.742188 15.625 43.992188 18.292969 43.992188 21.507812 C 43.992188 21.78125 44.023438 22.023438 44.054688 22.292969 L 28.40625 31.179688 C 26.703125 29.875 24.4375 29.570312 22.449219 30.371094 C 20.472656 31.15625 19.074219 32.949219 18.792969 35.058594 C 18.527344 37.160156 19.429688 39.242188 21.144531 40.488281 C 21.363281 40.636719 21.578125 40.789062 21.824219 40.941406 C 22.074219 41.09375 22.347656 41.214844 22.628906 41.304688 L 22.628906 58.832031 C 19.566406 60.042969 18.085938 63.441406 19.320312 66.441406 C 20.585938 69.460938 24.042969 70.90625 27.082031 69.6875 C 27.363281 69.597656 27.605469 69.445312 27.855469 69.324219 C 28.109375 69.175781 28.355469 69.011719 28.597656 68.839844 L 44.085938 77.601562 C 43.554688 80.785156 45.785156 83.789062 49.027344 84.304688 C 52.273438 84.820312 55.335938 82.632812 55.859375 79.449219 C 55.921875 79.117188 55.921875 78.816406 55.921875 78.480469 C 55.917969 78.195312 55.898438 77.914062 55.859375 77.632812 L 71.253906 68.929688 C 71.503906 69.113281 71.75 69.292969 72.027344 69.445312 C 74.902344 71.023438 78.550781 70.023438 80.15625 67.203125 C 81.710938 64.429688 80.777344 60.925781 78.054688 59.289062 Z M 79.136719 66.621094 C 77.832031 68.757812 75.066406 69.46875 72.894531 68.230469 C 71.171875 67.261719 70.304688 65.269531 70.757812 63.351562 L 63.523438 59.195312 C 61.21875 61.46875 57.789062 62.167969 54.777344 60.980469 C 53.695312 61.316406 51.378906 61.527344 51.378906 61.527344 L 51.378906 74.019531 C 52.582031 74.371094 53.597656 75.191406 54.191406 76.300781 C 54.785156 77.40625 54.90625 78.703125 54.535156 79.902344 C 53.761719 82.386719 51.070312 83.753906 48.535156 82.996094 C 48.503906 82.996094 48.472656 82.964844 48.441406 82.964844 C 48.238281 82.902344 48.042969 82.820312 47.855469 82.722656 C 46.726562 82.179688 45.863281 81.203125 45.460938 80.019531 C 45.0625 78.832031 45.15625 77.53125 45.722656 76.414062 C 46.308594 75.261719 47.363281 74.414062 48.597656 74.023438 L 48.597656 61.289062 C 47.691406 61.011719 46.804688 60.679688 45.941406 60.289062 C 43.148438 60.835938 40.257812 60.136719 38.023438 58.375 L 29.398438 63.257812 C 29.675781 64.425781 29.472656 65.660156 28.832031 66.679688 C 28.195312 67.699219 27.175781 68.417969 26 68.679688 C 23.535156 69.257812 21.058594 67.769531 20.46875 65.351562 C 20.191406 64.179688 20.394531 62.945312 21.035156 61.925781 C 21.671875 60.90625 22.695312 60.183594 23.867188 59.921875 C 25.363281 59.570312 26.9375 59.980469 28.070312 61.015625 L 36.140625 56.433594 C 33.414062 52.675781 33.863281 47.484375 37.191406 44.246094 L 28.007812 39.089844 C 26.167969 40.789062 23.304688 40.695312 21.582031 38.882812 C 20.753906 38.019531 20.308594 36.859375 20.351562 35.667969 C 20.390625 34.472656 20.914062 33.347656 21.796875 32.542969 C 23.636719 30.84375 26.5 30.9375 28.226562 32.757812 C 29.265625 33.832031 29.6875 35.363281 29.335938 36.820312 L 39.507812 42.546875 C 40.847656 41.84375 42.328125 41.460938 43.835938 41.425781 C 45.257812 40.273438 48.902344 39.09375 48.902344 39.09375 L 48.902344 25.449219 C 47.828125 25.144531 46.921875 24.417969 46.386719 23.4375 C 45.851562 22.457031 45.734375 21.300781 46.058594 20.230469 C 46.742188 18.019531 49.121094 16.804688 51.378906 17.476562 C 53.632812 18.140625 54.902344 20.476562 54.222656 22.691406 C 53.804688 24.039062 52.734375 25.089844 51.378906 25.476562 L 51.378906 38.851562 C 51.378906 38.851562 58.054688 40.488281 60.160156 42.945312 L 70.976562 36.914062 C 70.707031 35.742188 70.917969 34.511719 71.5625 33.496094 C 72.207031 32.480469 73.230469 31.765625 74.40625 31.511719 C 76.882812 30.96875 79.351562 32.453125 79.910156 34.878906 C 80.179688 36.050781 79.964844 37.28125 79.320312 38.292969 C 78.675781 39.308594 77.652344 40.019531 76.476562 40.273438 C 74.988281 40.605469 73.429688 40.1875 72.304688 39.152344 L 61.609375 45.097656 C 61.917969 45.730469 62.195312 46.367188 62.382812 47.035156 C 65.691406 49.25 66.867188 53.492188 65.101562 57.039062 L 72.179688 61.070312 C 73.660156 59.730469 75.832031 59.5 77.558594 60.496094 C 79.695312 61.742188 80.433594 64.46875 79.136719 66.621094 Z M 24.949219 62.378906 C 23.902344 62.367188 23.042969 63.210938 23.03125 64.257812 C 23.03125 65.296875 23.890625 66.136719 24.949219 66.136719 C 26.007812 66.136719 26.867188 65.292969 26.867188 64.257812 C 26.859375 63.929688 26.773438 63.605469 26.617188 63.320312 C 26.261719 62.738281 25.628906 62.382812 24.949219 62.382812 Z M 52.027344 21.476562 C 52.019531 20.429688 51.160156 19.585938 50.109375 19.597656 C 49.0625 19.589844 48.203125 20.429688 48.195312 21.476562 C 48.195312 22.515625 49.054688 23.355469 50.109375 23.355469 C 51.15625 23.363281 52.011719 22.523438 52.027344 21.476562 Z M 75.398438 37.789062 C 76.460938 37.789062 77.316406 36.945312 77.316406 35.910156 C 77.304688 34.859375 76.445312 34.019531 75.398438 34.027344 C 74.347656 34.019531 73.492188 34.859375 73.480469 35.910156 C 73.5 36.953125 74.351562 37.789062 75.398438 37.789062 Z M 25.84375 34.179688 C 24.933594 33.660156 23.777344 33.96875 23.25 34.875 C 22.996094 35.304688 22.925781 35.820312 23.0625 36.300781 C 23.195312 36.78125 23.519531 37.1875 23.960938 37.421875 C 24.867188 37.941406 26.027344 37.628906 26.554688 36.726562 C 26.804688 36.296875 26.871094 35.78125 26.738281 35.300781 C 26.605469 34.820312 26.28125 34.414062 25.84375 34.179688 Z M 76.167969 62.742188 C 75.875 62.570312 75.546875 62.476562 75.210938 62.464844 C 74.523438 62.453125 73.882812 62.808594 73.527344 63.398438 C 73.179688 63.980469 73.179688 64.710938 73.527344 65.292969 C 73.882812 65.882812 74.523438 66.238281 75.210938 66.226562 C 75.890625 66.21875 76.519531 65.863281 76.882812 65.289062 C 77.132812 64.855469 77.203125 64.34375 77.066406 63.859375 C 76.933594 63.378906 76.609375 62.972656 76.167969 62.738281 Z M 48.195312 78.414062 C 48.144531 78.933594 48.3125 79.457031 48.65625 79.851562 C 49 80.246094 49.496094 80.484375 50.019531 80.507812 C 50.976562 80.511719 51.804688 79.839844 51.996094 78.898438 C 52.132812 77.875 51.414062 76.929688 50.386719 76.792969 C 49.363281 76.636719 48.398438 77.328125 48.226562 78.351562 C 48.207031 78.371094 48.195312 78.390625 48.195312 78.414062 Z M 59.199219 49.398438 L 59.105469 48.699219 C 59.074219 48.535156 59.035156 48.375 58.980469 48.214844 C 58.980469 48.152344 58.949219 48.09375 58.949219 48.035156 C 58.886719 47.851562 58.824219 47.640625 58.765625 47.457031 L 58.765625 47.425781 C 58.277344 46.167969 57.480469 45.050781 56.445312 44.183594 L 56.414062 44.152344 C 56.234375 43.992188 56.035156 43.851562 55.828125 43.726562 L 55.796875 43.695312 C 55.613281 43.578125 55.398438 43.425781 55.210938 43.335938 L 55.179688 43.304688 C 54.980469 43.191406 54.773438 43.089844 54.5625 43 L 54.5 42.96875 C 54.277344 42.871094 54.050781 42.78125 53.820312 42.695312 L 53.789062 42.664062 C 53.539062 42.605469 53.324219 42.515625 53.078125 42.484375 L 53.046875 42.484375 C 52.800781 42.429688 52.554688 42.390625 52.304688 42.367188 L 52.273438 42.367188 C 50.960938 42.183594 49.621094 42.335938 48.382812 42.820312 L 48.226562 42.941406 C 48.039062 43.003906 47.730469 43.152344 47.546875 43.242188 C 47.449219 43.304688 47.34375 43.355469 47.234375 43.394531 C 47.144531 43.425781 46.992188 43.546875 46.898438 43.605469 L 46.460938 43.910156 L 46.367188 43.972656 C 46.183594 44.09375 46.03125 44.242188 45.84375 44.398438 L 45.691406 44.546875 C 45.515625 44.710938 45.351562 44.882812 45.195312 45.0625 C 44.828125 45.003906 44.457031 44.972656 44.085938 44.972656 C 43.960938 44.972656 43.867188 44.972656 43.773438 45.003906 C 41.621094 45.105469 39.679688 46.324219 38.648438 48.214844 L 38.613281 48.277344 C 38.519531 48.453125 38.433594 48.636719 38.363281 48.824219 C 38.332031 48.882812 38.332031 48.914062 38.300781 48.976562 C 38.234375 49.132812 38.183594 49.292969 38.148438 49.460938 C 38.117188 49.523438 38.117188 49.613281 38.085938 49.671875 L 37.992188 50.15625 C 37.992188 50.21875 37.960938 50.28125 37.960938 50.367188 C 37.9375 50.601562 37.925781 50.832031 37.929688 51.066406 C 37.929688 51.257812 37.9375 51.453125 37.960938 51.644531 C 37.960938 51.707031 37.992188 51.765625 37.992188 51.855469 C 38.023438 51.976562 38.023438 52.097656 38.054688 52.21875 C 38.085938 52.339844 38.085938 52.371094 38.117188 52.460938 C 38.152344 52.550781 38.175781 52.640625 38.179688 52.734375 C 38.179688 52.828125 38.242188 52.914062 38.273438 53.007812 C 38.296875 53.078125 38.328125 53.152344 38.367188 53.21875 C 38.414062 53.316406 38.453125 53.417969 38.492188 53.523438 C 38.523438 53.585938 38.550781 53.617188 38.550781 53.675781 C 38.984375 54.675781 39.71875 55.519531 40.652344 56.101562 C 41.117188 56.371094 41.582031 56.617188 42.074219 56.765625 C 42.265625 56.832031 42.460938 56.882812 42.664062 56.917969 L 42.726562 56.949219 L 43.28125 57.039062 L 43.40625 57.070312 C 43.617188 57.101562 43.835938 57.101562 44.085938 57.101562 C 44.917969 57.101562 45.722656 56.945312 46.460938 56.617188 C 46.648438 56.738281 46.804688 56.859375 46.992188 56.976562 L 47.054688 57.007812 C 47.207031 57.101562 47.390625 57.191406 47.578125 57.28125 L 47.609375 57.28125 C 49.382812 58.164062 51.414062 58.371094 53.328125 57.859375 L 53.359375 57.859375 C 53.636719 57.796875 53.902344 57.707031 54.160156 57.585938 L 54.992188 57.222656 C 55.789062 57.832031 56.769531 58.160156 57.773438 58.160156 C 57.992188 58.160156 58.179688 58.128906 58.394531 58.128906 L 58.550781 58.101562 C 58.945312 58.046875 59.332031 57.933594 59.695312 57.769531 L 59.789062 57.738281 C 59.972656 57.644531 60.125 57.554688 60.3125 57.464844 C 61.320312 56.820312 62.023438 55.789062 62.257812 54.617188 L 62.257812 54.523438 C 62.289062 54.402344 62.289062 54.28125 62.320312 54.160156 C 62.320312 54.007812 62.351562 53.855469 62.351562 53.703125 C 62.351562 51.703125 61.085938 49.976562 59.195312 49.398438 Z M 59.199219 49.398438 "/>
</g>
</svg>
