<?xml version="1.0" encoding="UTF-8"?>
<svg xmlns="http://www.w3.org/2000/svg" xmlns:xlink="http://www.w3.org/1999/xlink" width="100px" height="100px" viewBox="0 0 100 100" version="1.1">
<g id="surface1">
<path style=" stroke:none;fill-rule:nonzero;fill:rgb(100%,100%,100%);fill-opacity:1;" d="M 100.703125 100.703125 C 67.449219 100.703125 33.957031 100.703125 0.703125 100.703125 C 0.703125 67.449219 0.703125 33.957031 0.703125 0.703125 C 33.957031 0.703125 67.449219 0.703125 100.703125 0.703125 C 100.703125 33.957031 100.703125 67.214844 100.703125 100.703125 Z M 50.820312 63.464844 C 50.820312 52.925781 50.820312 42.621094 50.820312 32.085938 C 41.921875 37.472656 33.253906 42.390625 24.121094 47.773438 C 33.253906 53.160156 41.921875 58.3125 50.820312 63.464844 Z M 79.390625 48.007812 C 70.492188 42.855469 61.828125 37.703125 52.925781 32.320312 C 52.925781 42.855469 52.925781 52.925781 52.925781 63.464844 C 61.828125 58.3125 70.492188 53.160156 79.390625 48.007812 Z M 50.585938 94.847656 C 50.820312 94.847656 51.054688 94.847656 51.054688 94.613281 C 51.054688 86.652344 51.054688 78.6875 51.054688 70.960938 C 51.054688 70.257812 49.882812 69.320312 49.179688 68.851562 C 43.792969 65.574219 38.640625 62.527344 33.253906 59.484375 C 29.976562 57.609375 26.699219 55.503906 23.417969 53.628906 C 23.417969 53.628906 23.183594 53.863281 23.183594 53.863281 C 32.320312 67.679688 41.453125 81.265625 50.585938 94.847656 Z M 52.691406 94.613281 C 52.925781 94.613281 53.160156 94.613281 53.160156 94.613281 C 62.0625 81.265625 71.195312 67.679688 80.328125 54.097656 C 79.859375 54.097656 79.625 53.863281 79.390625 54.097656 C 70.960938 59.015625 62.296875 64.167969 53.863281 69.085938 C 53.394531 69.320312 52.691406 70.257812 52.691406 70.726562 C 52.691406 78.6875 52.691406 86.652344 52.691406 94.613281 Z M 24.355469 45.433594 C 24.355469 45.667969 24.589844 45.667969 24.589844 45.902344 C 33.019531 40.984375 41.453125 36.066406 49.882812 30.914062 C 50.585938 30.445312 51.054688 29.039062 51.054688 28.101562 C 51.054688 22.25 51.054688 16.628906 51.054688 10.773438 C 51.054688 9.367188 51.054688 7.726562 51.054688 6.324219 C 50.820312 6.324219 50.585938 6.324219 50.585938 6.324219 C 41.6875 19.203125 33.019531 32.320312 24.355469 45.433594 Z M 78.921875 45.433594 C 79.15625 45.199219 79.15625 45.199219 79.390625 44.964844 C 70.726562 32.085938 62.0625 19.203125 53.394531 6.324219 C 52.925781 12.878906 53.160156 19.203125 52.691406 25.761719 C 52.460938 29.039062 53.628906 30.914062 56.441406 32.550781 C 64.167969 36.535156 71.429688 41.21875 78.921875 45.433594 Z M 78.921875 45.433594 "/>
<path style=" stroke:none;fill-rule:nonzero;fill:rgb(0%,0%,0%);fill-opacity:1;" d="M 50.820312 63.464844 C 41.921875 58.3125 33.253906 53.160156 24.121094 47.773438 C 33.019531 42.390625 41.6875 37.472656 50.820312 32.085938 C 50.820312 42.855469 50.820312 52.925781 50.820312 63.464844 Z M 50.820312 63.464844 "/>
<path style=" stroke:none;fill-rule:nonzero;fill:rgb(0%,0%,0%);fill-opacity:1;" d="M 79.390625 48.007812 C 70.492188 53.160156 61.828125 58.3125 52.925781 63.699219 C 52.925781 53.160156 52.925781 43.089844 52.925781 32.550781 C 61.828125 37.472656 70.492188 42.621094 79.390625 48.007812 Z M 79.390625 48.007812 "/>
<path style=" stroke:none;fill-rule:nonzero;fill:rgb(0%,0%,0%);fill-opacity:1;" d="M 50.585938 94.847656 C 41.453125 81.265625 32.320312 67.679688 22.949219 53.863281 C 22.949219 53.863281 23.183594 53.628906 23.183594 53.628906 C 26.464844 55.503906 29.742188 57.609375 33.019531 59.484375 C 38.40625 62.527344 43.558594 65.808594 48.945312 68.851562 C 49.648438 69.320312 50.820312 70.257812 50.820312 70.960938 C 51.054688 78.921875 50.820312 86.886719 50.820312 94.613281 C 50.820312 94.847656 50.585938 94.847656 50.585938 94.847656 Z M 50.585938 94.847656 "/>
<path style=" stroke:none;fill-rule:nonzero;fill:rgb(0%,0%,0%);fill-opacity:1;" d="M 52.691406 94.613281 C 52.691406 86.652344 52.691406 78.6875 52.691406 70.960938 C 52.691406 70.492188 53.394531 69.554688 53.863281 69.320312 C 62.296875 64.167969 70.960938 59.25 79.390625 54.332031 C 79.625 54.332031 79.625 54.332031 80.328125 54.332031 C 71.195312 67.914062 62.296875 81.5 53.160156 94.847656 C 53.160156 94.613281 52.925781 94.613281 52.691406 94.613281 Z M 52.691406 94.613281 "/>
<path style=" stroke:none;fill-rule:nonzero;fill:rgb(0%,0%,0%);fill-opacity:1;" d="M 24.355469 45.433594 C 33.019531 32.320312 41.921875 19.203125 50.585938 6.324219 C 50.820312 6.324219 51.054688 6.324219 51.054688 6.324219 C 51.054688 7.726562 51.054688 9.367188 51.054688 10.773438 C 51.054688 16.628906 51.054688 22.25 51.054688 28.101562 C 51.054688 29.039062 50.585938 30.445312 49.882812 30.914062 C 41.453125 36.066406 33.019531 40.984375 24.589844 45.902344 C 24.355469 45.667969 24.355469 45.433594 24.355469 45.433594 Z M 24.355469 45.433594 "/>
<path style=" stroke:none;fill-rule:nonzero;fill:rgb(0%,0%,0%);fill-opacity:1;" d="M 78.921875 45.433594 C 71.429688 40.984375 64.167969 36.535156 56.441406 32.320312 C 53.394531 30.679688 52.460938 28.804688 52.691406 25.527344 C 52.925781 19.203125 52.691406 12.644531 53.394531 6.089844 C 62.0625 18.96875 70.726562 31.851562 79.390625 44.730469 C 79.15625 45.199219 78.921875 45.433594 78.921875 45.433594 Z M 78.921875 45.433594 "/>
</g>
</svg>
