<?xml version="1.0" encoding="UTF-8"?>
<svg xmlns="http://www.w3.org/2000/svg" xmlns:xlink="http://www.w3.org/1999/xlink" width="100px" height="100px" viewBox="0 0 100 100" version="1.1">
<g id="surface1">
<path style=" stroke:none;fill-rule:evenodd;fill:rgb(40.392157%,69.803923%,90.980393%);fill-opacity:1;" d="M 100 50 C 100 77.613281 77.613281 100 50 100 C 22.386719 100 0 77.613281 0 50 C 0 22.386719 22.386719 0 50 0 C 77.613281 0 100 22.386719 100 50 Z M 100 50 "/>
<path style=" stroke:none;fill-rule:evenodd;fill:rgb(100%,100%,100%);fill-opacity:1;" d="M 19.203125 37.355469 C 18.910156 34.953125 18.757812 32.535156 18.75 30.113281 C 22.851562 27.777344 27.203125 25.910156 31.726562 24.554688 C 38.066406 22.644531 44.671875 21.746094 51.292969 21.886719 C 53.070312 21.921875 55.636719 22.117188 57.585938 22.328125 C 52.574219 25.015625 49.054688 29.832031 48.007812 35.421875 C 47.820312 36.402344 47.71875 37.421875 47.683594 38.507812 C 47.632812 40.183594 47.472656 41.503906 47.121094 42.738281 C 45.511719 48.433594 40.523438 52.527344 34.621094 52.996094 C 28.71875 53.464844 23.144531 50.210938 20.65625 44.835938 C 20.519531 44.535156 20.414062 44.222656 20.34375 43.898438 C 19.847656 41.742188 19.46875 39.554688 19.203125 37.355469 Z M 71.117188 64.105469 C 70.375 65.261719 69.585938 66.386719 68.769531 67.496094 C 68.792969 64.339844 68.007812 61.230469 66.488281 58.464844 C 64.921875 55.550781 62.605469 53.109375 59.78125 51.394531 L 59.5 51.222656 C 59.34375 51.128906 59.1875 51.035156 59.035156 50.941406 C 55.480469 48.679688 53.316406 45.519531 52.554688 41.4375 C 51.179688 34.054688 55.824219 26.886719 63.125 25.128906 C 65.6875 24.507812 68.21875 24.597656 70.742188 25.386719 C 72.675781 25.996094 74.632812 26.792969 77.015625 27.910156 C 78.390625 28.554688 79.777344 29.273438 81.253906 30.109375 C 81.234375 34.46875 80.757812 38.8125 79.839844 43.070312 C 78.238281 50.554688 75.28125 57.683594 71.121094 64.105469 Z M 61.628906 75.585938 C 58.101562 78.945312 54.199219 81.894531 50.003906 84.375 C 48.917969 83.75 47.859375 83.082031 46.824219 82.378906 C 36.800781 75.636719 28.902344 66.183594 24.050781 55.121094 C 26.363281 56.480469 28.941406 57.320312 31.613281 57.574219 C 35.539062 57.972656 39.488281 57.128906 42.90625 55.160156 C 44.550781 54.222656 46.359375 53.617188 48.238281 53.382812 C 55.109375 52.511719 61.597656 56.757812 63.554688 63.398438 C 64.601562 66.902344 64.296875 70.34375 62.671875 73.734375 C 62.535156 74.023438 62.414062 74.253906 62.132812 74.804688 L 61.996094 75.078125 C 61.902344 75.265625 61.78125 75.4375 61.628906 75.585938 Z M 61.628906 75.585938 "/>
</g>
</svg>
