<?xml version="1.0" encoding="UTF-8"?>
<svg xmlns="http://www.w3.org/2000/svg" xmlns:xlink="http://www.w3.org/1999/xlink" width="100px" height="100px" viewBox="0 0 100 100" version="1.1">
<g id="surface1">
<path style=" stroke:none;fill-rule:evenodd;fill:rgb(14.901961%,51.372552%,100%);fill-opacity:1;" d="M 100 50 C 100 77.613281 77.613281 100 50 100 C 22.386719 100 0 77.613281 0 50 C 0 22.386719 22.386719 0 50 0 C 77.613281 0 100 22.386719 100 50 Z M 100 50 "/>
<path style=" stroke:none;fill-rule:nonzero;fill:rgb(100%,100%,100%);fill-opacity:1;" d="M 78.054688 59.285156 C 80.78125 60.921875 81.710938 64.425781 80.15625 67.199219 C 78.550781 70.019531 74.898438 71.019531 72.027344 69.445312 C 71.746094 69.289062 71.503906 69.109375 71.253906 68.929688 L 55.859375 77.628906 C 55.898438 77.910156 55.917969 78.195312 55.921875 78.476562 C 55.921875 78.8125 55.921875 79.117188 55.859375 79.445312 C 55.335938 82.632812 52.273438 84.816406 49.027344 84.300781 C 45.785156 83.785156 43.558594 80.78125 44.085938 77.601562 L 28.59375 68.835938 C 28.355469 69.007812 28.105469 69.171875 27.851562 69.320312 C 27.601562 69.445312 27.355469 69.59375 27.078125 69.683594 C 24.039062 70.902344 20.585938 69.457031 19.320312 66.441406 C 18.085938 63.441406 19.570312 60.042969 22.628906 58.832031 L 22.628906 41.304688 C 22.347656 41.214844 22.078125 41.09375 21.824219 40.941406 C 21.59375 40.796875 21.367188 40.644531 21.144531 40.488281 C 19.429688 39.242188 18.527344 37.160156 18.792969 35.054688 C 19.074219 32.949219 20.472656 31.15625 22.449219 30.371094 C 24.4375 29.570312 26.703125 29.875 28.40625 31.179688 L 44.050781 22.292969 C 44.019531 22.023438 43.988281 21.78125 43.988281 21.507812 C 43.988281 18.292969 46.738281 15.625 50.015625 15.625 C 53.289062 15.625 55.976562 18.230469 55.980469 21.476562 C 55.980469 21.75 55.949219 21.992188 55.917969 22.265625 L 71.683594 31.210938 C 73.070312 30.195312 74.820312 29.816406 76.503906 30.167969 C 78.183594 30.519531 79.636719 31.574219 80.496094 33.058594 C 82.101562 35.878906 81.050781 39.457031 78.175781 41.035156 C 77.898438 41.152344 77.617188 41.304688 77.339844 41.398438 L 77.339844 58.953125 C 77.585938 59.046875 77.824219 59.15625 78.050781 59.285156 Z M 79.136719 66.621094 C 79.753906 65.605469 79.933594 64.378906 79.636719 63.226562 C 79.339844 62.074219 78.589844 61.089844 77.558594 60.496094 C 75.832031 59.5 73.660156 59.734375 72.183594 61.074219 L 65.101562 57.042969 C 66.855469 53.5 65.691406 49.207031 62.382812 47.039062 C 62.183594 46.367188 61.925781 45.71875 61.609375 45.097656 L 72.304688 39.152344 C 73.417969 40.183594 74.984375 40.605469 76.476562 40.277344 C 77.652344 40.023438 78.679688 39.308594 79.324219 38.296875 C 79.96875 37.28125 80.179688 36.050781 79.910156 34.878906 C 79.351562 32.453125 76.878906 30.96875 74.410156 31.511719 C 73.234375 31.765625 72.210938 32.480469 71.5625 33.492188 C 70.917969 34.507812 70.707031 35.738281 70.976562 36.910156 L 60.15625 42.945312 C 58.054688 40.488281 51.378906 38.851562 51.378906 38.851562 L 51.378906 25.476562 C 52.734375 25.089844 53.804688 24.039062 54.222656 22.691406 C 54.546875 21.621094 54.429688 20.464844 53.894531 19.484375 C 53.359375 18.503906 52.453125 17.777344 51.378906 17.472656 C 49.121094 16.804688 46.742188 18.019531 46.058594 20.234375 C 45.734375 21.304688 45.851562 22.457031 46.386719 23.4375 C 46.921875 24.417969 47.828125 25.144531 48.902344 25.449219 L 48.902344 39.09375 C 48.902344 39.09375 45.257812 40.273438 43.835938 41.425781 C 42.328125 41.460938 40.84375 41.84375 39.507812 42.550781 L 29.335938 36.820312 C 29.6875 35.363281 29.265625 33.832031 28.226562 32.757812 C 26.5 30.9375 23.636719 30.84375 21.796875 32.542969 C 20.914062 33.347656 20.390625 34.472656 20.347656 35.667969 C 20.308594 36.859375 20.75 38.019531 21.578125 38.882812 C 23.304688 40.699219 26.167969 40.792969 28.007812 39.09375 L 37.191406 44.246094 C 33.863281 47.484375 33.414062 52.675781 36.140625 56.433594 L 28.070312 61.011719 C 26.9375 59.976562 25.363281 59.570312 23.867188 59.921875 C 22.695312 60.183594 21.671875 60.90625 21.035156 61.925781 C 20.394531 62.945312 20.191406 64.179688 20.46875 65.351562 C 21.058594 67.769531 23.535156 69.257812 26 68.679688 C 27.175781 68.417969 28.195312 67.699219 28.832031 66.679688 C 29.472656 65.660156 29.675781 64.425781 29.398438 63.257812 L 38.023438 58.375 C 40.242188 60.132812 43.140625 60.835938 45.9375 60.285156 C 46.800781 60.679688 47.6875 61.011719 48.59375 61.285156 L 48.59375 74.023438 C 47.355469 74.40625 46.320312 75.265625 45.722656 76.414062 C 45.15625 77.53125 45.0625 78.832031 45.460938 80.019531 C 45.863281 81.203125 46.726562 82.179688 47.855469 82.722656 C 48.042969 82.816406 48.226562 82.902344 48.445312 82.964844 C 48.476562 82.964844 48.507812 82.996094 48.539062 82.996094 C 51.070312 83.753906 53.761719 82.386719 54.535156 79.902344 C 54.90625 78.703125 54.785156 77.40625 54.191406 76.300781 C 53.597656 75.191406 52.582031 74.371094 51.378906 74.019531 L 51.378906 61.53125 C 51.378906 61.53125 53.695312 61.320312 54.777344 60.984375 C 57.792969 62.171875 61.242188 61.46875 63.527344 59.195312 L 70.757812 63.351562 C 70.304688 65.273438 71.171875 67.265625 72.894531 68.234375 C 75.066406 69.472656 77.832031 68.761719 79.136719 66.625 Z M 24.949219 62.378906 C 25.636719 62.382812 26.269531 62.738281 26.617188 63.316406 C 26.777344 63.605469 26.859375 63.929688 26.867188 64.257812 C 26.855469 65.304688 25.996094 66.144531 24.949219 66.136719 C 23.902344 66.148438 23.042969 65.308594 23.03125 64.257812 C 23.03125 63.21875 23.890625 62.378906 24.949219 62.378906 Z M 52.027344 21.476562 C 52.011719 22.523438 51.15625 23.363281 50.109375 23.355469 C 49.0625 23.363281 48.207031 22.523438 48.195312 21.476562 C 48.195312 20.4375 49.054688 19.597656 50.109375 19.597656 C 51.171875 19.597656 52.027344 20.441406 52.027344 21.476562 Z M 75.398438 37.789062 C 74.351562 37.789062 73.5 36.953125 73.480469 35.910156 C 73.480469 34.871094 74.339844 34.027344 75.398438 34.027344 C 76.460938 34.027344 77.316406 34.871094 77.316406 35.910156 C 77.304688 36.957031 76.445312 37.796875 75.398438 37.789062 Z M 25.84375 34.179688 C 26.28125 34.414062 26.605469 34.820312 26.742188 35.300781 C 26.875 35.78125 26.808594 36.292969 26.554688 36.726562 C 26.03125 37.632812 24.871094 37.945312 23.960938 37.421875 C 23.519531 37.1875 23.195312 36.78125 23.058594 36.300781 C 22.925781 35.820312 22.992188 35.304688 23.246094 34.875 C 23.773438 33.96875 24.933594 33.65625 25.84375 34.179688 Z M 76.167969 62.742188 C 76.605469 62.976562 76.929688 63.382812 77.0625 63.863281 C 77.199219 64.339844 77.132812 64.855469 76.882812 65.285156 C 76.519531 65.863281 75.890625 66.21875 75.210938 66.226562 C 74.523438 66.238281 73.882812 65.882812 73.527344 65.292969 C 73.179688 64.710938 73.179688 63.980469 73.527344 63.398438 C 73.882812 62.808594 74.523438 62.453125 75.210938 62.464844 C 75.546875 62.476562 75.875 62.570312 76.167969 62.738281 Z M 48.195312 78.414062 C 48.195312 78.390625 48.207031 78.367188 48.226562 78.351562 C 48.402344 77.328125 49.363281 76.636719 50.386719 76.792969 C 51.414062 76.929688 52.132812 77.875 51.996094 78.898438 C 51.804688 79.839844 50.976562 80.511719 50.019531 80.507812 C 49.496094 80.484375 49 80.246094 48.65625 79.851562 C 48.3125 79.457031 48.144531 78.933594 48.195312 78.414062 Z M 59.199219 49.398438 C 61.085938 49.976562 62.371094 51.726562 62.351562 53.703125 C 62.351562 53.855469 62.320312 54.007812 62.320312 54.160156 C 62.289062 54.28125 62.289062 54.402344 62.257812 54.523438 L 62.257812 54.617188 C 62.195312 54.886719 62.132812 55.160156 62.007812 55.429688 C 61.667969 56.265625 61.074219 56.976562 60.3125 57.460938 C 60.125 57.554688 59.96875 57.648438 59.789062 57.738281 L 59.695312 57.769531 C 59.332031 57.9375 58.945312 58.050781 58.550781 58.101562 L 58.394531 58.132812 C 58.179688 58.132812 57.992188 58.164062 57.777344 58.164062 C 56.769531 58.164062 55.789062 57.832031 54.996094 57.222656 L 54.160156 57.585938 C 53.902344 57.710938 53.632812 57.800781 53.355469 57.859375 L 53.324219 57.859375 C 51.410156 58.371094 49.378906 58.164062 47.605469 57.28125 L 47.574219 57.28125 C 47.390625 57.191406 47.207031 57.101562 47.050781 57.007812 L 46.988281 56.976562 C 46.804688 56.859375 46.648438 56.738281 46.460938 56.617188 C 45.714844 56.945312 44.902344 57.109375 44.085938 57.101562 C 43.835938 57.101562 43.617188 57.101562 43.402344 57.070312 L 43.277344 57.039062 L 42.722656 56.949219 L 42.660156 56.917969 C 42.460938 56.882812 42.265625 56.832031 42.074219 56.765625 C 41.578125 56.601562 41.097656 56.375 40.652344 56.101562 C 39.722656 55.523438 38.988281 54.679688 38.550781 53.675781 C 38.550781 53.613281 38.519531 53.582031 38.488281 53.523438 C 38.453125 53.417969 38.410156 53.316406 38.363281 53.21875 C 38.324219 53.152344 38.292969 53.078125 38.269531 53.007812 C 38.238281 52.914062 38.179688 52.824219 38.179688 52.734375 C 38.171875 52.640625 38.152344 52.550781 38.117188 52.460938 C 38.085938 52.367188 38.085938 52.335938 38.054688 52.21875 C 38.023438 52.097656 38.023438 51.976562 37.992188 51.855469 C 37.992188 51.761719 37.960938 51.703125 37.960938 51.644531 C 37.9375 51.453125 37.925781 51.257812 37.929688 51.066406 C 37.925781 50.832031 37.9375 50.601562 37.960938 50.367188 C 37.960938 50.277344 37.992188 50.21875 37.992188 50.15625 C 38.023438 49.976562 38.054688 49.824219 38.085938 49.671875 C 38.117188 49.609375 38.117188 49.523438 38.148438 49.460938 C 38.1875 49.292969 38.238281 49.132812 38.304688 48.976562 C 38.335938 48.914062 38.335938 48.882812 38.367188 48.824219 C 38.433594 48.636719 38.515625 48.453125 38.613281 48.277344 L 38.644531 48.214844 C 39.675781 46.324219 41.621094 45.105469 43.773438 45.003906 C 43.867188 44.972656 43.960938 44.972656 44.085938 44.972656 C 44.457031 44.972656 44.828125 45.003906 45.195312 45.066406 C 45.351562 44.878906 45.507812 44.726562 45.691406 44.546875 L 45.847656 44.398438 C 46.03125 44.242188 46.183594 44.09375 46.371094 43.972656 L 46.464844 43.910156 C 46.585938 43.820312 46.804688 43.667969 46.898438 43.605469 C 46.992188 43.546875 47.144531 43.425781 47.238281 43.394531 C 47.347656 43.355469 47.449219 43.304688 47.546875 43.242188 C 47.730469 43.148438 48.039062 43 48.226562 42.941406 L 48.382812 42.820312 C 49.621094 42.335938 50.960938 42.183594 52.273438 42.367188 L 52.304688 42.367188 C 52.554688 42.390625 52.804688 42.429688 53.046875 42.484375 L 53.078125 42.484375 C 53.328125 42.515625 53.542969 42.609375 53.789062 42.667969 L 53.820312 42.699219 C 54.070312 42.789062 54.285156 42.878906 54.5 42.972656 L 54.5625 43.003906 C 54.773438 43.089844 54.980469 43.191406 55.179688 43.304688 L 55.210938 43.335938 C 55.398438 43.429688 55.613281 43.578125 55.800781 43.695312 L 55.832031 43.726562 C 56.046875 43.851562 56.230469 44 56.414062 44.152344 L 56.445312 44.183594 C 57.480469 45.054688 58.277344 46.167969 58.765625 47.429688 L 58.765625 47.460938 C 58.828125 47.640625 58.890625 47.851562 58.953125 48.035156 C 58.953125 48.097656 58.984375 48.15625 58.984375 48.214844 C 59.035156 48.371094 59.078125 48.539062 59.105469 48.699219 Z M 59.199219 49.398438 "/>
</g>
</svg>
