<?xml version="1.0" encoding="UTF-8"?>
<svg xmlns="http://www.w3.org/2000/svg" xmlns:xlink="http://www.w3.org/1999/xlink" width="100px" height="100px" viewBox="0 0 100 100" version="1.1">
<g id="surface1">
<path style=" stroke:none;fill-rule:evenodd;fill:rgb(0%,38.039216%,28.627452%);fill-opacity:1;" d="M 100 50 C 100 77.613281 77.613281 100 50 100 C 22.386719 100 0 77.613281 0 50 C 0 22.386719 22.386719 0 50 0 C 77.613281 0 100 22.386719 100 50 Z M 100 50 "/>
<path style=" stroke:none;fill-rule:nonzero;fill:rgb(100%,100%,100%);fill-opacity:1;" d="M 75.550781 53.699219 L 73.058594 53.078125 L 73.816406 50.046875 L 81.582031 51.988281 L 79.644531 59.753906 L 76.609375 58.996094 L 77.28125 56.304688 L 49.554688 73.46875 L 18.808594 58.105469 L 18.808594 46.382812 L 50.757812 26.398438 L 80.054688 40.691406 L 80.054688 45.515625 L 49.558594 64.460938 L 26.914062 53.234375 L 28.300781 50.433594 L 49.390625 60.890625 L 76.929688 43.777344 L 76.929688 42.644531 L 50.945312 29.96875 L 21.9375 48.113281 L 21.9375 56.175781 L 49.398438 69.894531 Z M 75.550781 53.699219 "/>
</g>
</svg>
