<?xml version="1.0" encoding="UTF-8"?>
<svg xmlns="http://www.w3.org/2000/svg" xmlns:xlink="http://www.w3.org/1999/xlink" width="100px" height="100px" viewBox="0 0 100 100" version="1.1">
<g id="surface1">
<path style=" stroke:none;fill-rule:evenodd;fill:rgb(0%,0%,0%);fill-opacity:1;" d="M 50 100 C 22.382812 100 0 77.617188 0 50 C 0 22.382812 22.382812 0 50 0 C 77.617188 0 100 22.382812 100 50 C 100 77.617188 77.617188 100 50 100 Z M 29.6875 84.375 L 47.339844 71.289062 L 40.992188 31.914062 Z M 41.210938 31.609375 L 47.632812 71.136719 L 58.390625 71.324219 L 41.210938 31.605469 Z M 41.46875 31.308594 L 58.757812 71.324219 L 63.972656 34.507812 Z M 59.15625 70.757812 L 67.546875 39.054688 L 64.226562 34.84375 Z M 63.898438 34.164062 L 61.710938 24.539062 L 41.941406 31.042969 L 63.898438 34.167969 Z M 41.835938 30.707031 L 61.710938 24.199219 L 55.289062 21.378906 L 41.832031 30.707031 Z M 41.503906 30.59375 L 55.070312 21.226562 L 44.09375 25.628906 Z M 44.097656 25.40625 L 54.378906 21.226562 L 45.335938 21.527344 L 44.09375 25.402344 Z M 45.261719 21.226562 L 54.449219 20.929688 L 48.179688 18.105469 L 45.261719 21.230469 Z M 48.363281 17.917969 L 58.394531 22.394531 L 52.738281 15.773438 Z M 53.359375 16.039062 L 58.71875 22.429688 L 59.886719 18.898438 L 53.355469 16.039062 Z M 58.9375 22.542969 L 61.601562 23.898438 L 60.140625 18.933594 Z M 52.882812 15.625 L 59.859375 18.492188 C 59.921875 18.519531 59.996094 18.496094 60.035156 18.441406 C 60.078125 18.386719 60.074219 18.308594 60.027344 18.257812 L 57.664062 15.625 Z M 60.433594 18.632812 L 61.894531 24.050781 L 70.148438 21.785156 C 70.25 21.761719 70.324219 21.667969 70.324219 21.566406 C 70.324219 21.460938 70.25 21.371094 70.148438 21.347656 L 60.429688 18.632812 Z M 60.433594 18.632812 "/>
</g>
</svg>
