<?xml version="1.0" encoding="UTF-8"?>
<svg xmlns="http://www.w3.org/2000/svg" xmlns:xlink="http://www.w3.org/1999/xlink" width="100px" height="100px" viewBox="0 0 100 100" version="1.1">
<g id="surface1">
<path style=" stroke:none;fill-rule:nonzero;fill:rgb(0%,0%,0%);fill-opacity:1;" d="M 50 0 C 77.617188 0 100 22.382812 100 50 C 100 77.617188 77.617188 100 50 100 C 22.382812 100 0 77.617188 0 50 C 0 22.382812 22.382812 0 50 0 Z M 50 18.75 L 44.378906 22.046875 L 29.0625 31.078125 L 23.4375 34.375 L 23.4375 65.625 L 29.058594 68.921875 L 44.519531 77.953125 L 50.140625 81.25 L 55.761719 77.953125 L 70.941406 68.921875 L 76.5625 65.625 L 76.5625 34.375 L 70.941406 31.078125 L 55.621094 22.046875 Z M 50 31.9375 L 65.320312 40.96875 L 65.320312 59.03125 L 50 68.0625 L 34.679688 59.03125 L 34.679688 40.96875 Z M 50 31.9375 "/>
</g>
</svg>
