<?xml version="1.0" encoding="UTF-8"?>
<svg xmlns="http://www.w3.org/2000/svg" xmlns:xlink="http://www.w3.org/1999/xlink" width="100px" height="100px" viewBox="0 0 100 100" version="1.1">
<g id="surface1">
<path style=" stroke:none;fill-rule:nonzero;fill:rgb(0%,0%,0%);fill-opacity:1;" d="M 50 0 C 77.617188 0 100 22.382812 100 50 C 100 77.617188 77.617188 100 50 100 C 22.382812 100 0 77.617188 0 50 C 0 22.382812 22.382812 0 50 0 Z M 59.664062 21.875 L 52.164062 21.875 L 51.992188 22.136719 L 44.972656 34.289062 L 37.777344 46.742188 L 30.632812 59.15625 L 23.4375 71.613281 L 32.03125 71.613281 L 39.226562 59.15625 L 46.417969 46.742188 L 53.570312 34.289062 L 54.757812 32.3125 L 55.277344 34.289062 L 57.472656 42.488281 L 55.015625 46.742188 L 47.824219 59.15625 L 40.675781 71.613281 L 49.269531 71.613281 L 56.460938 59.15625 L 60.191406 52.710938 L 61.945312 59.15625 L 65.277344 71.613281 L 72.996094 71.613281 L 69.664062 59.15625 L 66.332031 46.742188 L 65.457031 43.539062 L 70.804688 34.289062 L 63 34.289062 L 62.734375 33.367188 L 60.015625 23.191406 Z M 59.664062 21.875 "/>
</g>
</svg>
