<?xml version="1.0" encoding="UTF-8"?>
<svg xmlns="http://www.w3.org/2000/svg" xmlns:xlink="http://www.w3.org/1999/xlink" width="100px" height="100px" viewBox="0 0 100 100" version="1.1">
<g id="surface1">
<path style=" stroke:none;fill-rule:nonzero;fill:rgb(0%,0%,0%);fill-opacity:1;" d="M 51.289062 95.785156 C 25.527344 95.785156 5.386719 74.238281 6.324219 49.179688 C 7.027344 24.589844 28.101562 4.683594 53.160156 5.386719 C 76.816406 6.089844 96.957031 26.699219 96.722656 50.820312 C 96.253906 75.644531 75.878906 96.019531 51.289062 95.785156 Z M 51.289062 9.367188 C 28.335938 9.367188 10.070312 27.632812 10.070312 50.351562 C 10.070312 73.300781 28.335938 91.804688 51.289062 92.039062 C 74.003906 92.039062 92.738281 73.300781 92.738281 50.585938 C 92.738281 27.867188 74.003906 9.601562 51.289062 9.367188 Z M 51.289062 9.367188 "/>
<path style=" stroke:none;fill-rule:nonzero;fill:rgb(0%,0%,0%);fill-opacity:1;" d="M 86.652344 50.585938 C 86.652344 70.257812 70.960938 86.183594 51.289062 86.183594 C 31.617188 86.183594 15.691406 70.492188 15.691406 50.820312 C 15.691406 31.382812 31.617188 15.222656 50.820312 15.222656 C 70.726562 15.222656 86.652344 30.679688 86.652344 50.585938 Z M 17.796875 50.585938 C 17.796875 69.085938 32.785156 84.308594 51.289062 84.308594 C 69.554688 84.308594 84.777344 69.085938 85.011719 51.054688 C 85.011719 32.320312 70.023438 17.332031 51.523438 17.097656 C 32.785156 17.097656 17.796875 32.085938 17.796875 50.585938 Z M 17.796875 50.585938 "/>
<path style=" stroke:none;fill-rule:nonzero;fill:rgb(0%,0%,0%);fill-opacity:1;" d="M 38.40625 29.507812 C 38.640625 29.507812 38.875 29.507812 39.34375 29.507812 C 43.558594 29.507812 43.792969 29.507812 43.792969 25.292969 C 43.792969 22.949219 45.199219 23.183594 46.605469 23.183594 C 48.476562 23.183594 49.414062 23.417969 48.945312 25.527344 C 48.945312 25.996094 48.945312 26.699219 48.945312 27.167969 C 48.710938 29.273438 49.648438 29.507812 51.523438 29.507812 C 53.394531 29.507812 54.097656 29.039062 54.097656 26.933594 C 54.097656 25.527344 52.460938 23.183594 55.972656 22.949219 C 58.3125 22.949219 59.71875 23.417969 59.25 25.996094 C 58.78125 28.570312 59.71875 29.742188 62.296875 30.914062 C 70.023438 33.957031 72.367188 42.390625 67.214844 49.414062 C 66.511719 50.351562 66.511719 50.820312 67.214844 51.757812 C 72.367188 58.078125 69.789062 66.980469 62.296875 70.023438 C 59.484375 71.195312 58.546875 72.597656 59.015625 75.410156 C 59.25 77.515625 58.78125 77.984375 56.441406 78.21875 C 53.628906 78.21875 53.863281 76.816406 53.863281 74.941406 C 53.863281 73.300781 54.097656 71.664062 51.523438 71.664062 C 48.710938 71.664062 48.710938 72.832031 48.945312 74.941406 C 49.179688 77.050781 48.945312 78.21875 46.371094 78.21875 C 44.027344 78.21875 43.558594 77.285156 43.792969 75.410156 C 44.261719 72.367188 42.855469 71.429688 40.046875 71.898438 C 39.34375 71.898438 38.640625 71.898438 37.703125 71.898438 C 32.550781 71.898438 32.785156 71.898438 32.550781 66.980469 C 32.550781 64.636719 33.019531 63.699219 35.363281 64.167969 C 37.472656 64.402344 38.40625 63.230469 38.40625 61.125 C 38.40625 54.097656 38.40625 47.308594 38.40625 40.28125 C 38.40625 37.9375 37.472656 37.003906 35.128906 37.238281 C 32.785156 37.472656 32.320312 36.300781 32.550781 34.425781 C 32.785156 29.507812 32.785156 29.273438 38.40625 29.507812 Z M 52.226562 37.238281 C 51.054688 37.238281 49.882812 37.238281 48.476562 37.238281 C 46.605469 37.003906 45.667969 37.703125 45.902344 39.578125 C 46.136719 41.453125 45.902344 43.324219 45.902344 45.199219 C 45.902344 46.371094 46.136719 47.074219 47.539062 47.074219 C 50.585938 47.074219 53.628906 47.074219 56.910156 47.074219 C 59.953125 46.839844 61.828125 44.964844 61.828125 42.15625 C 61.828125 39.34375 59.71875 37.472656 56.675781 37.472656 C 55.269531 37.003906 53.628906 37.238281 52.226562 37.238281 Z M 52.691406 54.332031 C 45.902344 54.332031 45.902344 54.332031 45.902344 61.125 C 45.902344 61.59375 45.902344 61.828125 45.902344 62.296875 C 45.902344 63.464844 46.136719 63.933594 47.539062 63.933594 C 50.820312 63.933594 54.097656 63.933594 57.378906 63.933594 C 60.1875 63.699219 62.0625 61.59375 61.828125 58.78125 C 61.828125 56.207031 59.953125 54.332031 57.144531 54.332031 C 55.738281 54.332031 54.332031 54.332031 52.691406 54.332031 Z M 52.691406 54.332031 "/>
</g>
</svg>
