<?xml version="1.0" encoding="UTF-8"?>
<svg xmlns="http://www.w3.org/2000/svg" xmlns:xlink="http://www.w3.org/1999/xlink" width="100px" height="85px" viewBox="0 0 100 85" version="1.1">
<g id="surface1">
<path style=" stroke:none;fill-rule:nonzero;fill:rgb(13.725491%,16.078432%,18.431373%);fill-opacity:1;" d="M 85.347656 0 L 99.8125 0 L 69.722656 30.5625 C 64.519531 35.871094 57.414062 38.863281 50 38.863281 C 42.585938 38.863281 35.480469 35.871094 30.277344 30.5625 L 0.183594 0 L 14.644531 0 L 37.507812 23.222656 C 40.804688 26.585938 45.304688 28.480469 50 28.480469 C 54.695312 28.480469 59.195312 26.585938 62.492188 23.222656 Z M 85.347656 0 "/>
<path style=" stroke:none;fill-rule:nonzero;fill:rgb(13.725491%,16.078432%,18.431373%);fill-opacity:1;" d="M 14.460938 85 L 0 85 L 30.277344 54.246094 C 35.480469 48.9375 42.585938 45.949219 50 45.949219 C 57.414062 45.949219 64.519531 48.9375 69.722656 54.246094 L 100 85 L 85.539062 85 L 62.492188 61.59375 C 59.195312 58.230469 54.695312 56.335938 50 56.335938 C 45.304688 56.335938 40.804688 58.230469 37.507812 61.59375 Z M 14.460938 85 "/>
</g>
</svg>
