<?xml version="1.0" encoding="UTF-8"?>
<svg xmlns="http://www.w3.org/2000/svg" xmlns:xlink="http://www.w3.org/1999/xlink" width="100px" height="100px" viewBox="0 0 100 100" version="1.1">
<g id="surface1">
<path style=" stroke:none;fill-rule:nonzero;fill:rgb(100%,100%,100%);fill-opacity:1;" d="M 100.703125 50.585938 C 100.703125 66.511719 100.703125 82.667969 100.703125 98.59375 C 100.703125 100.234375 100.46875 100.703125 98.59375 100.703125 C 66.511719 100.703125 34.425781 100.703125 2.574219 100.703125 C 0.9375 100.703125 0.46875 100.46875 0.46875 98.59375 C 0.46875 66.511719 0.46875 34.425781 0.46875 2.574219 C 0.46875 0.9375 0.703125 0.46875 2.574219 0.46875 C 34.660156 0.46875 66.746094 0.46875 98.59375 0.46875 C 100.234375 0.46875 100.703125 0.703125 100.703125 2.574219 C 100.46875 18.5 100.703125 34.660156 100.703125 50.585938 Z M 100.703125 50.585938 "/>
<path style=" stroke:none;fill-rule:nonzero;fill:rgb(3.529412%,3.529412%,3.529412%);fill-opacity:1;" d="M 58.078125 33.019531 C 61.125 33.019531 63.699219 35.363281 63.699219 38.40625 C 63.699219 41.453125 61.125 44.261719 58.078125 44.261719 C 55.035156 44.261719 52.226562 41.453125 52.226562 38.40625 C 52.226562 35.597656 55.035156 33.019531 58.078125 33.019531 Z M 58.078125 33.019531 "/>
<path style=" stroke:none;fill-rule:nonzero;fill:rgb(3.529412%,3.529412%,3.529412%);fill-opacity:1;" d="M 30.914062 50.820312 C 30.914062 47.773438 33.488281 44.964844 36.535156 44.964844 C 39.578125 44.964844 42.15625 47.539062 42.15625 50.820312 C 42.15625 53.863281 39.578125 56.441406 36.535156 56.441406 C 33.488281 56.675781 30.914062 54.097656 30.914062 50.820312 Z M 30.914062 50.820312 "/>
<path style=" stroke:none;fill-rule:nonzero;fill:rgb(3.529412%,3.529412%,3.529412%);fill-opacity:1;" d="M 59.484375 50.820312 C 59.484375 47.539062 62.0625 44.964844 65.105469 45.199219 C 68.148438 45.199219 70.726562 48.007812 70.726562 50.820312 C 70.726562 53.863281 68.148438 56.675781 65.105469 56.675781 C 61.828125 56.675781 59.484375 54.097656 59.484375 50.820312 Z M 59.484375 50.820312 "/>
<path style=" stroke:none;fill-rule:nonzero;fill:rgb(3.529412%,3.529412%,3.529412%);fill-opacity:1;" d="M 48.945312 63.464844 C 48.710938 66.746094 46.371094 68.851562 42.855469 68.851562 C 39.8125 68.617188 37.472656 66.042969 37.472656 62.996094 C 37.703125 59.953125 40.515625 57.378906 43.324219 57.378906 C 46.839844 57.609375 49.179688 60.1875 48.945312 63.464844 Z M 48.945312 63.464844 "/>
<path style=" stroke:none;fill-rule:nonzero;fill:rgb(3.529412%,3.529412%,3.529412%);fill-opacity:1;" d="M 58.078125 68.617188 C 54.800781 68.617188 52.226562 66.042969 52.226562 62.996094 C 52.226562 59.953125 55.035156 57.144531 58.078125 57.378906 C 61.125 57.378906 63.464844 59.953125 63.699219 62.996094 C 63.933594 66.042969 61.359375 68.617188 58.078125 68.617188 Z M 58.078125 68.617188 "/>
<path style=" stroke:none;fill-rule:nonzero;fill:rgb(3.529412%,3.529412%,3.529412%);fill-opacity:1;" d="M 48.945312 38.640625 C 48.945312 41.921875 46.371094 44.496094 43.324219 44.261719 C 40.28125 44.261719 37.703125 41.453125 37.703125 38.40625 C 37.703125 35.363281 40.28125 33.019531 43.324219 33.019531 C 46.605469 33.019531 48.945312 35.363281 48.945312 38.640625 Z M 48.945312 38.640625 "/>
<path style=" stroke:none;fill-rule:nonzero;fill:rgb(4.313726%,4.313726%,4.313726%);fill-opacity:1;" d="M 66.980469 27.867188 C 64.636719 27.632812 63.464844 26.464844 63.230469 24.355469 C 62.996094 22.484375 64.871094 20.609375 66.980469 20.84375 C 69.085938 21.078125 70.257812 22.25 70.257812 24.589844 C 70.257812 26.699219 68.617188 27.632812 66.980469 27.867188 Z M 66.980469 27.867188 "/>
<path style=" stroke:none;fill-rule:nonzero;fill:rgb(4.705882%,4.705882%,4.705882%);fill-opacity:1;" d="M 29.507812 35.363281 C 31.851562 35.597656 33.019531 36.769531 33.253906 38.875 C 33.488281 40.75 31.382812 42.621094 29.507812 42.390625 C 27.402344 42.15625 25.996094 40.984375 26.230469 38.640625 C 25.996094 36.535156 27.402344 35.363281 29.507812 35.363281 Z M 29.507812 35.363281 "/>
<path style=" stroke:none;fill-rule:nonzero;fill:rgb(4.313726%,4.313726%,4.313726%);fill-opacity:1;" d="M 71.898438 42.390625 C 70.023438 42.15625 68.617188 41.21875 68.617188 38.875 C 68.617188 36.769531 69.789062 35.363281 71.898438 35.363281 C 74.003906 35.128906 75.878906 37.003906 75.644531 38.875 C 75.644531 40.984375 74.472656 42.15625 71.898438 42.390625 Z M 71.898438 42.390625 "/>
<path style=" stroke:none;fill-rule:nonzero;fill:rgb(4.313726%,4.313726%,4.313726%);fill-opacity:1;" d="M 81.734375 54.566406 C 79.625 54.097656 78.21875 53.160156 78.21875 50.820312 C 78.21875 48.945312 80.328125 47.074219 82.203125 47.308594 C 84.308594 47.539062 85.714844 48.945312 85.480469 51.054688 C 85.246094 53.160156 83.839844 54.332031 81.734375 54.566406 Z M 81.734375 54.566406 "/>
<path style=" stroke:none;fill-rule:nonzero;fill:rgb(4.313726%,4.313726%,4.313726%);fill-opacity:1;" d="M 50.351562 78.921875 C 48.476562 78.6875 47.074219 77.515625 47.074219 75.410156 C 47.074219 73.300781 48.242188 71.898438 50.585938 71.898438 C 52.925781 71.898438 54.097656 73.300781 54.097656 75.410156 C 54.332031 77.515625 52.925781 78.6875 50.351562 78.921875 Z M 50.351562 78.921875 "/>
<path style=" stroke:none;fill-rule:nonzero;fill:rgb(4.313726%,4.313726%,4.313726%);fill-opacity:1;" d="M 50.585938 29.976562 C 48.476562 29.742188 47.308594 28.804688 47.308594 26.464844 C 47.308594 24.121094 48.710938 22.949219 50.820312 22.949219 C 52.691406 22.949219 54.566406 24.589844 54.332031 26.464844 C 54.097656 28.335938 53.160156 29.742188 50.585938 29.976562 Z M 50.585938 29.976562 "/>
<path style=" stroke:none;fill-rule:nonzero;fill:rgb(4.313726%,4.313726%,4.313726%);fill-opacity:1;" d="M 29.273438 66.277344 C 27.167969 66.042969 25.996094 64.871094 25.996094 62.761719 C 25.996094 60.890625 27.632812 59.25 29.507812 59.25 C 31.382812 59.25 33.253906 61.125 33.019531 62.996094 C 32.785156 64.871094 31.617188 66.277344 29.273438 66.277344 Z M 29.273438 66.277344 "/>
<path style=" stroke:none;fill-rule:nonzero;fill:rgb(4.313726%,4.313726%,4.313726%);fill-opacity:1;" d="M 68.617188 62.296875 C 68.851562 60.421875 70.257812 59.25 72.132812 59.25 C 74.238281 59.25 75.644531 60.65625 75.644531 62.761719 C 75.878906 64.636719 73.769531 66.277344 71.898438 66.277344 C 70.023438 66.277344 68.382812 64.636719 68.617188 62.296875 Z M 68.617188 62.296875 "/>
<path style=" stroke:none;fill-rule:nonzero;fill:rgb(4.705882%,4.705882%,4.705882%);fill-opacity:1;" d="M 66.980469 73.769531 C 68.851562 74.238281 70.492188 75.175781 70.257812 77.285156 C 70.257812 79.390625 69.085938 80.796875 66.746094 80.796875 C 64.636719 80.796875 62.761719 78.921875 62.996094 77.050781 C 63.464844 75.175781 64.636719 74.003906 66.980469 73.769531 Z M 66.980469 73.769531 "/>
<path style=" stroke:none;fill-rule:nonzero;fill:rgb(3.921569%,3.921569%,3.921569%);fill-opacity:1;" d="M 16.160156 51.054688 C 16.160156 48.710938 17.332031 47.539062 19.4375 47.074219 C 21.3125 46.839844 23.417969 48.710938 23.183594 50.585938 C 22.949219 52.691406 21.78125 54.097656 19.671875 54.097656 C 17.796875 54.566406 16.394531 53.160156 16.160156 51.054688 Z M 16.160156 51.054688 "/>
<path style=" stroke:none;fill-rule:nonzero;fill:rgb(4.313726%,4.313726%,4.313726%);fill-opacity:1;" d="M 38.171875 77.984375 C 37.9375 79.859375 36.769531 81.03125 34.660156 81.03125 C 32.320312 81.03125 31.382812 79.625 31.382812 77.285156 C 31.382812 75.410156 33.019531 73.535156 35.128906 73.769531 C 37.003906 74.003906 38.40625 75.175781 38.171875 77.984375 Z M 38.171875 77.984375 "/>
<path style=" stroke:none;fill-rule:nonzero;fill:rgb(3.921569%,3.921569%,3.921569%);fill-opacity:1;" d="M 38.40625 24.121094 C 38.171875 26.699219 37.003906 27.867188 34.894531 27.867188 C 32.785156 27.867188 31.382812 26.464844 31.382812 24.355469 C 31.382812 22.25 32.550781 20.84375 34.894531 20.84375 C 37.003906 20.84375 38.171875 22.25 38.40625 24.121094 Z M 38.40625 24.121094 "/>
<path style=" stroke:none;fill-rule:nonzero;fill:rgb(6.27451%,6.27451%,6.27451%);fill-opacity:1;" d="M 85.011719 29.273438 C 86.183594 29.507812 87.121094 29.976562 87.121094 31.382812 C 87.121094 32.785156 86.417969 33.722656 85.011719 33.722656 C 83.605469 33.722656 82.902344 32.785156 82.667969 31.851562 C 82.667969 30.445312 83.605469 29.742188 85.011719 29.273438 Z M 85.011719 29.273438 "/>
<path style=" stroke:none;fill-rule:nonzero;fill:rgb(6.666667%,6.666667%,6.666667%);fill-opacity:1;" d="M 52.925781 11.476562 C 52.925781 12.878906 51.992188 13.582031 50.820312 13.582031 C 49.414062 13.582031 48.476562 12.644531 48.476562 11.476562 C 48.476562 10.070312 49.414062 9.367188 50.820312 9.367188 C 52.226562 9.601562 52.925781 10.304688 52.925781 11.476562 Z M 52.925781 11.476562 "/>
<path style=" stroke:none;fill-rule:nonzero;fill:rgb(5.490196%,5.490196%,5.490196%);fill-opacity:1;" d="M 72.597656 16.394531 C 71.195312 16.394531 70.492188 15.457031 70.492188 14.285156 C 70.492188 12.878906 71.429688 11.945312 72.832031 11.945312 C 74.003906 11.945312 74.941406 12.878906 74.941406 14.050781 C 74.941406 15.691406 74.238281 16.394531 72.597656 16.394531 Z M 72.597656 16.394531 "/>
<path style=" stroke:none;fill-rule:nonzero;fill:rgb(6.27451%,6.27451%,6.27451%);fill-opacity:1;" d="M 16.628906 33.722656 C 14.988281 33.722656 14.285156 32.785156 14.285156 31.617188 C 14.285156 30.445312 15.222656 29.507812 16.394531 29.507812 C 17.796875 29.507812 18.734375 30.210938 18.734375 31.851562 C 18.734375 33.019531 18.03125 33.722656 16.628906 33.722656 Z M 16.628906 33.722656 "/>
<path style=" stroke:none;fill-rule:nonzero;fill:rgb(5.882353%,5.882353%,5.882353%);fill-opacity:1;" d="M 95.785156 50.820312 C 95.785156 52.226562 95.082031 52.925781 93.675781 53.160156 C 92.273438 53.160156 91.335938 52.226562 91.335938 51.054688 C 91.335938 49.648438 92.273438 48.945312 93.675781 48.945312 C 94.847656 48.710938 95.550781 49.648438 95.785156 50.820312 Z M 95.785156 50.820312 "/>
<path style=" stroke:none;fill-rule:nonzero;fill:rgb(6.666667%,6.666667%,6.666667%);fill-opacity:1;" d="M 87.121094 69.789062 C 87.121094 71.664062 86.183594 72.367188 85.011719 72.367188 C 83.605469 72.367188 82.667969 71.429688 82.667969 70.023438 C 82.667969 68.617188 83.605469 67.914062 85.011719 67.914062 C 86.417969 67.914062 87.121094 68.851562 87.121094 69.789062 Z M 87.121094 69.789062 "/>
<path style=" stroke:none;fill-rule:nonzero;fill:rgb(6.27451%,6.27451%,6.27451%);fill-opacity:1;" d="M 30.914062 87.355469 C 30.914062 88.992188 29.742188 89.929688 28.570312 89.695312 C 27.402344 89.695312 26.464844 88.757812 26.464844 87.585938 C 26.464844 86.183594 27.402344 85.480469 28.804688 85.480469 C 30.210938 85.480469 30.914062 86.183594 30.914062 87.355469 Z M 30.914062 87.355469 "/>
<path style=" stroke:none;fill-rule:nonzero;fill:rgb(5.098039%,5.098039%,5.098039%);fill-opacity:1;" d="M 74.941406 87.355469 C 74.941406 88.757812 74.003906 89.695312 72.832031 89.695312 C 71.664062 89.695312 70.726562 88.757812 70.726562 87.585938 C 70.726562 86.417969 71.195312 85.480469 72.597656 85.246094 C 74.003906 85.246094 74.707031 85.949219 74.941406 87.355469 Z M 74.941406 87.355469 "/>
<path style=" stroke:none;fill-rule:nonzero;fill:rgb(5.098039%,5.098039%,5.098039%);fill-opacity:1;" d="M 26.464844 14.285156 C 26.699219 12.878906 27.402344 11.945312 28.804688 11.945312 C 29.976562 11.945312 30.914062 12.644531 30.914062 14.050781 C 30.914062 15.457031 29.976562 16.160156 28.570312 16.160156 C 27.167969 16.394531 26.699219 15.222656 26.464844 14.285156 Z M 26.464844 14.285156 "/>
<path style=" stroke:none;fill-rule:nonzero;fill:rgb(5.098039%,5.098039%,5.098039%);fill-opacity:1;" d="M 10.070312 50.820312 C 10.070312 52.226562 9.132812 52.925781 7.960938 52.925781 C 6.558594 52.925781 5.621094 51.992188 5.621094 50.820312 C 5.621094 49.414062 6.558594 48.710938 7.960938 48.710938 C 9.367188 48.710938 10.304688 49.648438 10.070312 50.820312 Z M 10.070312 50.820312 "/>
<path style=" stroke:none;fill-rule:nonzero;fill:rgb(5.882353%,5.882353%,5.882353%);fill-opacity:1;" d="M 16.628906 67.914062 C 18.03125 67.914062 18.734375 68.851562 18.734375 70.023438 C 18.734375 71.429688 17.796875 72.367188 16.394531 72.132812 C 15.222656 72.132812 14.285156 71.195312 14.285156 70.023438 C 14.285156 68.851562 15.222656 67.914062 16.628906 67.914062 Z M 16.628906 67.914062 "/>
<path style=" stroke:none;fill-rule:nonzero;fill:rgb(6.27451%,6.27451%,6.27451%);fill-opacity:1;" d="M 52.925781 90.398438 C 52.925781 91.335938 52.460938 92.273438 51.054688 92.273438 C 49.648438 92.503906 48.710938 91.570312 48.476562 90.164062 C 48.476562 88.757812 49.414062 87.820312 50.820312 87.820312 C 51.992188 87.820312 52.925781 88.523438 52.925781 90.398438 Z M 52.925781 90.398438 "/>
</g>
</svg>
