<?xml version="1.0" encoding="UTF-8"?>
<svg xmlns="http://www.w3.org/2000/svg" xmlns:xlink="http://www.w3.org/1999/xlink" width="100px" height="100px" viewBox="0 0 100 100" version="1.1">
<g id="surface1">
<path style=" stroke:none;fill-rule:nonzero;fill:rgb(100%,100%,100%);fill-opacity:1;" d="M 50.585938 100.703125 C 34.660156 100.703125 18.5 100.703125 2.574219 100.703125 C 0.703125 100.703125 0.703125 100.234375 0.703125 98.59375 C 0.703125 66.511719 0.703125 34.425781 0.703125 2.574219 C 0.703125 0.703125 1.171875 0.703125 2.808594 0.703125 C 34.894531 0.703125 66.980469 0.703125 98.828125 0.703125 C 100.703125 0.703125 100.703125 1.171875 100.703125 2.808594 C 100.703125 34.894531 100.703125 66.980469 100.703125 98.828125 C 100.703125 100.703125 100.234375 100.703125 98.59375 100.703125 C 82.667969 100.46875 66.511719 100.703125 50.585938 100.703125 Z M 50.585938 100.703125 "/>
<path style=" stroke:none;fill-rule:nonzero;fill:rgb(3.137255%,3.137255%,3.137255%);fill-opacity:1;" d="M 49.882812 5.621094 C 49.882812 25.761719 49.882812 44.964844 49.882812 64.636719 C 47.539062 63.230469 45.433594 62.0625 43.324219 60.890625 C 36.535156 56.910156 29.976562 52.925781 23.183594 49.179688 C 22.25 48.710938 21.078125 48.476562 22.015625 46.839844 C 31.382812 33.253906 40.28125 19.671875 49.882812 5.621094 Z M 49.882812 5.621094 "/>
<path style=" stroke:none;fill-rule:nonzero;fill:rgb(3.137255%,3.137255%,3.137255%);fill-opacity:1;" d="M 51.757812 64.636719 C 51.757812 44.964844 51.757812 25.761719 51.757812 5.855469 C 53.863281 8.898438 55.503906 11.242188 57.144531 13.582031 C 64.402344 24.355469 71.429688 35.128906 78.6875 45.667969 C 79.859375 47.539062 79.625 48.242188 77.75 49.414062 C 69.085938 54.332031 60.65625 59.25 51.757812 64.636719 Z M 51.757812 64.636719 "/>
<path style=" stroke:none;fill-rule:nonzero;fill:rgb(3.137255%,3.137255%,3.137255%);fill-opacity:1;" d="M 22.484375 53.863281 C 26.230469 56.207031 30.210938 58.3125 33.957031 60.65625 C 38.640625 63.464844 43.558594 66.277344 48.242188 69.085938 C 49.179688 69.554688 50.117188 70.257812 50.117188 71.664062 C 50.117188 79.390625 50.117188 87.121094 49.648438 95.082031 C 40.515625 81.5 31.382812 67.914062 22.25 54.332031 C 22.25 54.097656 22.25 53.863281 22.484375 53.863281 Z M 22.484375 53.863281 "/>
<path style=" stroke:none;fill-rule:nonzero;fill:rgb(3.137255%,3.137255%,3.137255%);fill-opacity:1;" d="M 51.757812 94.613281 C 51.757812 86.652344 51.757812 78.921875 51.757812 70.960938 C 51.757812 70.023438 52.226562 69.554688 52.925781 69.320312 C 61.59375 64.167969 70.257812 59.25 79.390625 54.332031 C 70.257812 67.914062 61.359375 81.265625 52.226562 94.847656 C 51.992188 94.613281 51.757812 94.613281 51.757812 94.613281 Z M 51.757812 94.613281 "/>
</g>
</svg>
