<?xml version="1.0" encoding="UTF-8"?>
<svg xmlns="http://www.w3.org/2000/svg" xmlns:xlink="http://www.w3.org/1999/xlink" width="100px" height="100px" viewBox="0 0 100 100" version="1.1">
<g id="surface1">
<path style=" stroke:none;fill-rule:nonzero;fill:rgb(0%,0%,0%);fill-opacity:1;" d="M 50 0 C 77.617188 0 100 22.382812 100 50 C 100 77.617188 77.617188 100 50 100 C 22.382812 100 0 77.617188 0 50 C 0 22.382812 22.382812 0 50 0 Z M 43.105469 21.9375 C 38.886719 21.59375 35.628906 22.65625 33.941406 25.078125 L 22.332031 41.664062 C 20.644531 44.082031 20.699219 47.597656 22.386719 51.570312 C 24.722656 57.039062 30.117188 63.519531 37.539062 68.933594 C 44.933594 74.375 52.664062 77.542969 58.484375 78.058594 C 62.671875 78.40625 65.960938 77.339844 67.648438 74.921875 L 79.230469 58.335938 C 80.917969 55.917969 80.863281 52.402344 79.175781 48.429688 C 76.867188 42.960938 71.445312 36.480469 64.050781 31.039062 C 56.628906 25.625 48.925781 22.429688 43.105469 21.9375 Z M 67.445312 60.835938 C 69.648438 61.226562 71.601562 61.300781 73.210938 61.039062 C 73.429688 61.015625 73.628906 61.167969 73.664062 61.386719 C 73.699219 61.605469 73.558594 61.8125 73.34375 61.863281 C 71.632812 62.144531 69.585938 62.066406 67.300781 61.664062 C 67.074219 61.621094 66.925781 61.40625 66.964844 61.179688 C 67.003906 60.953125 67.21875 60.800781 67.445312 60.835938 Z M 64.101562 60.074219 L 64.234375 60.089844 C 64.773438 60.242188 65.304688 60.382812 65.828125 60.503906 C 66.046875 60.5625 66.175781 60.78125 66.128906 61 C 66.078125 61.21875 65.863281 61.359375 65.640625 61.320312 C 65.101562 61.195312 64.558594 61.054688 64.007812 60.898438 C 63.792969 60.828125 63.671875 60.601562 63.730469 60.386719 C 63.792969 60.167969 64.015625 60.035156 64.234375 60.089844 Z M 35.546875 26.257812 C 36.898438 24.328125 39.570312 23.695312 42.941406 23.984375 C 48.476562 24.445312 55.816406 27.523438 62.871094 32.710938 C 69.957031 37.890625 75.160156 44.023438 77.378906 49.238281 C 78.699219 52.402344 78.980469 55.226562 77.632812 57.128906 L 77.546875 57.273438 C 76.171875 59.085938 73.554688 59.691406 70.238281 59.429688 C 64.699219 58.96875 57.363281 55.886719 50.304688 50.707031 C 43.25 45.523438 38.050781 39.386719 35.828125 34.148438 C 34.507812 31.039062 34.226562 28.304688 35.492188 26.371094 Z M 33.222656 33.910156 C 33.441406 33.84375 33.675781 33.972656 33.738281 34.191406 C 35.132812 38.976562 38.78125 43.613281 44.539062 48.871094 L 45.1875 49.460938 C 45.519531 49.757812 45.851562 50.054688 46.195312 50.351562 C 46.277344 50.421875 46.332031 50.527344 46.339844 50.636719 C 46.34375 50.75 46.308594 50.859375 46.234375 50.945312 C 46.160156 51.027344 46.058594 51.078125 45.949219 51.085938 C 45.839844 51.089844 45.730469 51.054688 45.648438 50.980469 C 45.199219 50.589844 44.757812 50.191406 44.316406 49.792969 L 43.675781 49.210938 C 37.988281 43.96875 34.363281 39.316406 32.941406 34.429688 C 32.875 34.207031 33 33.976562 33.222656 33.910156 Z M 49.632812 33.023438 C 48.054688 32.910156 46.792969 33.167969 46.175781 34.0625 C 45.554688 34.953125 45.726562 36.25 46.34375 37.71875 C 47.4375 40.335938 50.054688 43.390625 53.59375 45.984375 C 57.136719 48.574219 60.792969 50.128906 63.574219 50.359375 C 65.121094 50.503906 66.386719 50.242188 67.007812 49.351562 C 67.652344 48.460938 67.484375 47.164062 66.835938 45.695312 C 65.742188 43.070312 63.125 39.992188 59.585938 37.402344 C 56.070312 34.808594 52.386719 33.285156 49.632812 33.023438 Z M 32.765625 30.59375 C 32.875 30.589844 32.984375 30.628906 33.0625 30.703125 C 33.144531 30.78125 33.191406 30.882812 33.195312 30.992188 C 33.21875 31.523438 33.277344 32.0625 33.367188 32.601562 C 33.398438 32.75 33.347656 32.90625 33.230469 33.003906 C 33.117188 33.101562 32.957031 33.128906 32.8125 33.074219 C 32.671875 33.023438 32.570312 32.894531 32.550781 32.742188 C 32.453125 32.175781 32.390625 31.601562 32.367188 31.027344 C 32.359375 30.917969 32.398438 30.808594 32.476562 30.726562 C 32.550781 30.644531 32.65625 30.59375 32.765625 30.589844 Z M 32.765625 30.59375 "/>
</g>
</svg>
