<?xml version="1.0" encoding="UTF-8"?>
<svg xmlns="http://www.w3.org/2000/svg" xmlns:xlink="http://www.w3.org/1999/xlink" width="100px" height="100px" viewBox="0 0 100 100" version="1.1">
<g id="surface1">
<path style=" stroke:none;fill-rule:nonzero;fill:rgb(0%,0%,0%);fill-opacity:1;" d="M 50 0 C 77.617188 0 100 22.382812 100 50 C 100 77.617188 77.617188 100 50 100 C 22.382812 100 0 77.617188 0 50 C 0 22.382812 22.382812 0 50 0 Z M 49.464844 25 L 28.992188 25 L 28.992188 41.230469 L 21.875 41.230469 L 21.875 47.046875 L 28.992188 47.046875 L 28.992188 53.148438 L 21.875 53.148438 L 21.875 58.960938 L 28.992188 58.960938 L 28.992188 75 L 49.464844 75 C 61.777344 75 71.148438 68.453125 74.75 58.964844 L 81.25 58.964844 L 81.25 53.152344 L 76.175781 53.152344 C 76.300781 52.121094 76.363281 51.066406 76.363281 49.996094 L 76.363281 49.851562 C 76.363281 48.902344 76.3125 47.964844 76.214844 47.046875 L 81.25 47.046875 L 81.25 41.234375 L 74.871094 41.234375 C 71.359375 31.605469 61.917969 25 49.464844 25 Z M 68.476562 58.964844 C 65.332031 65.449219 58.570312 69.785156 49.464844 69.785156 L 34.714844 69.785156 L 34.714844 58.964844 Z M 70.242188 47.046875 C 70.371094 48.007812 70.441406 48.992188 70.441406 49.996094 L 70.441406 50.136719 C 70.441406 51.164062 70.367188 52.167969 70.230469 53.148438 L 34.710938 53.148438 L 34.710938 47.046875 Z M 49.46875 30.207031 C 58.613281 30.207031 65.398438 34.65625 68.523438 41.230469 L 34.710938 41.230469 L 34.710938 30.207031 Z M 49.46875 30.207031 "/>
</g>
</svg>
