<?xml version="1.0" encoding="UTF-8"?>
<svg xmlns="http://www.w3.org/2000/svg" xmlns:xlink="http://www.w3.org/1999/xlink" width="100px" height="100px" viewBox="0 0 100 100" version="1.1">
<g id="surface1">
<path style=" stroke:none;fill-rule:evenodd;fill:rgb(0%,0%,0%);fill-opacity:1;" d="M 50 100 C 22.382812 100 0 77.617188 0 50 C 0 22.382812 22.382812 0 50 0 C 77.617188 0 100 22.382812 100 50 C 100 77.617188 77.617188 100 50 100 Z M 56.007812 43.101562 L 56.007812 35.710938 L 72.925781 35.710938 L 72.925781 24.433594 L 26.859375 24.433594 L 26.859375 35.710938 L 43.777344 35.710938 L 43.777344 43.101562 C 30.027344 43.730469 19.6875 46.457031 19.6875 49.71875 C 19.6875 52.980469 30.027344 55.703125 43.777344 56.335938 L 43.777344 80.03125 L 56.007812 80.03125 L 56.007812 56.332031 C 69.734375 55.699219 80.050781 52.976562 80.050781 49.71875 C 80.050781 46.460938 69.734375 43.738281 56.007812 43.101562 Z M 56.007812 54.320312 L 56.007812 54.316406 C 55.664062 54.339844 53.890625 54.445312 49.9375 54.445312 C 46.78125 54.445312 44.558594 54.351562 43.777344 54.316406 L 43.777344 54.324219 C 31.628906 53.789062 22.558594 51.675781 22.558594 49.144531 C 22.558594 46.617188 31.628906 44.5 43.777344 43.957031 L 43.777344 52.21875 C 44.570312 52.273438 46.847656 52.410156 49.992188 52.410156 C 53.761719 52.410156 55.652344 52.253906 56.007812 52.222656 L 56.007812 43.960938 C 68.132812 44.503906 77.179688 46.617188 77.179688 49.144531 C 77.179688 51.675781 68.132812 53.785156 56.007812 54.320312 Z M 56.007812 54.320312 "/>
</g>
</svg>
