<?xml version="1.0" encoding="UTF-8"?>
<svg xmlns="http://www.w3.org/2000/svg" xmlns:xlink="http://www.w3.org/1999/xlink" width="100px" height="100px" viewBox="0 0 100 100" version="1.1">
<g id="surface1">
<path style=" stroke:none;fill-rule:nonzero;fill:rgb(0%,0%,0%);fill-opacity:1;" d="M 50 0 C 77.617188 0 100 22.382812 100 50 C 100 77.617188 77.617188 100 50 100 C 22.382812 100 0 77.617188 0 50 C 0 22.382812 22.382812 0 50 0 Z M 77.207031 60.992188 L 32.3125 60.992188 C 31.828125 60.988281 31.359375 61.179688 31.015625 61.523438 L 22.148438 70.320312 C 21.882812 70.578125 21.804688 70.972656 21.945312 71.316406 C 22.089844 71.65625 22.421875 71.878906 22.792969 71.875 L 67.6875 71.875 C 68.171875 71.875 68.640625 71.683594 68.984375 71.34375 L 77.851562 62.542969 C 78.113281 62.285156 78.191406 61.890625 78.050781 61.550781 C 77.910156 61.210938 77.574219 60.988281 77.207031 60.992188 Z M 67.6875 44.453125 L 22.792969 44.453125 L 22.582031 44.476562 C 22.257812 44.550781 22 44.792969 21.910156 45.113281 C 21.820312 45.429688 21.910156 45.773438 22.144531 46.007812 L 31.019531 54.804688 L 31.238281 54.992188 C 31.550781 55.210938 31.925781 55.335938 32.3125 55.335938 L 77.207031 55.335938 L 77.417969 55.316406 C 77.742188 55.242188 78 54.996094 78.089844 54.679688 C 78.179688 54.359375 78.089844 54.019531 77.855469 53.785156 L 68.980469 44.984375 L 68.761719 44.796875 C 68.449219 44.574219 68.074219 44.453125 67.6875 44.453125 Z M 77.207031 28.125 L 32.3125 28.125 C 31.828125 28.125 31.359375 28.316406 31.015625 28.65625 L 22.148438 37.457031 C 21.886719 37.714844 21.808594 38.109375 21.949219 38.449219 C 22.089844 38.789062 22.425781 39.011719 22.792969 39.007812 L 67.6875 39.007812 C 68.171875 39.011719 68.640625 38.820312 68.984375 38.476562 L 77.851562 29.679688 C 78.117188 29.421875 78.195312 29.027344 78.054688 28.683594 C 77.910156 28.34375 77.578125 28.121094 77.207031 28.125 Z M 77.207031 28.125 "/>
</g>
</svg>
