<?xml version="1.0" encoding="UTF-8"?>
<svg xmlns="http://www.w3.org/2000/svg" xmlns:xlink="http://www.w3.org/1999/xlink" width="100px" height="100px" viewBox="0 0 100 100" version="1.1">
<g id="surface1">
<path style=" stroke:none;fill-rule:nonzero;fill:rgb(0%,0%,0%);fill-opacity:1;" d="M 50 100 C 22.382812 100 0 77.617188 0 50 C 0 22.382812 22.382812 0 50 0 C 77.617188 0 100 22.382812 100 50 C 100 77.617188 77.617188 100 50 100 Z M 72.28125 29.039062 L 64.78125 32.863281 L 28.539062 51.320312 C 27.484375 43.230469 31.082031 35.238281 37.835938 30.660156 C 44.589844 26.085938 53.34375 25.707031 60.46875 29.679688 L 64.761719 27.492188 L 65.402344 27.164062 C 57.085938 21.128906 46.019531 20.476562 37.050781 25.488281 C 28.078125 30.5 22.835938 40.269531 23.617188 50.515625 C 23.765625 52.445312 22.738281 54.273438 21.011719 55.152344 L 18.746094 56.308594 L 18.746094 61.695312 L 25.414062 58.296875 L 27.574219 57.195312 L 29.703125 56.109375 L 67.910156 36.640625 L 72.203125 34.457031 L 81.078125 29.933594 L 81.078125 24.550781 Z M 81.082031 35.324219 L 31.878906 60.375 L 27.585938 62.5625 L 18.75 67.070312 L 18.75 72.457031 L 27.523438 67.988281 L 35.027344 64.164062 L 71.308594 45.675781 C 72.378906 53.777344 68.78125 61.789062 62.015625 66.375 C 55.246094 70.957031 46.472656 71.328125 39.34375 67.332031 L 39.078125 67.472656 L 34.421875 69.847656 C 42.742188 75.886719 53.808594 76.539062 62.78125 71.523438 C 71.753906 66.507812 76.996094 56.738281 76.210938 46.488281 C 76.066406 44.558594 77.089844 42.734375 78.8125 41.851562 L 81.082031 40.695312 Z M 81.082031 35.324219 "/>
</g>
</svg>
