<?xml version="1.0" encoding="UTF-8"?>
<svg xmlns="http://www.w3.org/2000/svg" xmlns:xlink="http://www.w3.org/1999/xlink" width="100px" height="100px" viewBox="0 0 100 100" version="1.1">
<g id="surface1">
<path style=" stroke:none;fill-rule:nonzero;fill:rgb(0%,0%,0%);fill-opacity:1;" d="M 50 0 C 77.617188 0 100 22.382812 100 50 C 100 77.617188 77.617188 100 50 100 C 22.382812 100 0 77.617188 0 50 C 0 22.382812 22.382812 0 50 0 Z M 50.757812 21.875 L 49.28125 21.875 C 47.429688 21.875 46.035156 22.945312 45.089844 25.132812 L 37.820312 43.554688 L 32.316406 43.554688 C 30.664062 43.5625 29.328125 44.957031 29.316406 46.679688 L 29.316406 46.726562 C 29.328125 48.453125 30.664062 49.847656 32.316406 49.851562 L 35.273438 49.851562 L 28.332031 67.417969 C 28.199219 67.804688 28.128906 68.210938 28.125 68.617188 C 28.125 69.601562 28.414062 70.375 28.945312 70.976562 C 29.476562 71.574219 30.21875 71.875 31.164062 71.875 C 31.789062 71.863281 32.394531 71.65625 32.890625 71.273438 C 33.421875 70.890625 33.792969 70.332031 34.078125 69.691406 L 41.722656 49.851562 L 47.023438 49.851562 C 48.667969 49.847656 50.007812 48.449219 50.023438 46.726562 L 50.023438 46.640625 C 50.007812 44.914062 48.667969 43.515625 47.023438 43.511719 L 44.1875 43.511719 L 50.019531 28.304688 L 65.914062 69.6875 C 66.203125 70.328125 66.570312 70.886719 67.105469 71.273438 C 67.609375 71.652344 68.210938 71.867188 68.835938 71.871094 C 69.777344 71.871094 70.519531 71.570312 71.054688 70.972656 C 71.585938 70.371094 71.871094 69.601562 71.871094 68.617188 C 71.886719 68.207031 71.820312 67.796875 71.667969 67.414062 L 54.949219 25.128906 C 54 22.945312 52.605469 21.875 50.757812 21.875 Z M 50.757812 21.875 "/>
</g>
</svg>
