<?xml version="1.0" encoding="UTF-8"?>
<svg xmlns="http://www.w3.org/2000/svg" xmlns:xlink="http://www.w3.org/1999/xlink" width="100px" height="100px" viewBox="0 0 100 100" version="1.1">
<g id="surface1">
<path style=" stroke:none;fill-rule:evenodd;fill:rgb(0%,0%,0%);fill-opacity:1;" d="M 79.101562 73.863281 C 78.796875 74.417969 78.632812 75.046875 78.632812 75.679688 C 78.632812 77.730469 80.273438 79.394531 82.289062 79.394531 C 84.304688 79.394531 85.9375 77.730469 85.9375 75.679688 C 85.9375 73.632812 84.304688 71.96875 82.289062 71.96875 C 81.394531 71.96875 80.53125 72.300781 79.867188 72.898438 L 73.878906 67.566406 L 78.554688 52.472656 C 79.222656 52.488281 79.863281 52.234375 80.339844 51.765625 C 80.8125 51.300781 81.078125 50.660156 81.070312 49.996094 C 81.078125 49.316406 80.800781 48.667969 80.308594 48.199219 C 79.816406 47.734375 79.152344 47.488281 78.476562 47.527344 L 74.488281 34.441406 C 75.183594 33.976562 75.597656 33.195312 75.59375 32.363281 C 75.605469 31.007812 74.515625 29.902344 73.164062 29.886719 C 72.535156 29.886719 71.9375 30.132812 71.488281 30.570312 L 60.394531 22.414062 C 60.589844 22.046875 60.6875 21.640625 60.6875 21.226562 C 60.699219 19.871094 59.609375 18.765625 58.257812 18.75 C 57.078125 18.757812 56.070312 19.601562 55.863281 20.761719 L 42.394531 20.761719 C 42.183594 19.605469 41.179688 18.757812 40.003906 18.75 C 38.648438 18.761719 37.558594 19.871094 37.570312 21.226562 C 37.570312 21.660156 37.683594 22.089844 37.898438 22.46875 L 26.734375 30.53125 C 26.289062 30.117188 25.703125 29.886719 25.097656 29.886719 C 23.742188 29.898438 22.652344 31.007812 22.664062 32.363281 C 22.664062 33.304688 23.179688 34.125 23.945312 34.542969 L 19.9375 47.542969 C 19.238281 47.460938 18.535156 47.679688 18.007812 48.152344 C 17.480469 48.621094 17.183594 49.292969 17.1875 50 C 17.179688 50.691406 17.46875 51.355469 17.976562 51.824219 C 18.484375 52.296875 19.167969 52.53125 19.859375 52.46875 L 23.929688 65.46875 C 23.144531 65.910156 22.660156 66.738281 22.664062 67.640625 C 22.664062 69.007812 23.753906 70.117188 25.097656 70.117188 C 25.695312 70.113281 26.269531 69.890625 26.710938 69.492188 L 37.789062 77.742188 C 37.644531 78.066406 37.570312 78.417969 37.570312 78.773438 C 37.570312 80.144531 38.660156 81.253906 40.003906 81.253906 C 41.191406 81.253906 42.179688 80.386719 42.394531 79.242188 L 55.863281 79.242188 C 56.070312 80.398438 57.078125 81.246094 58.257812 81.253906 C 59.601562 81.253906 60.6875 80.144531 60.6875 78.777344 C 60.6875 78.417969 60.613281 78.0625 60.460938 77.738281 L 72.9375 68.378906 L 79.101562 73.867188 Z M 58.460938 76.308594 C 58.078125 76.277344 57.695312 76.335938 57.335938 76.480469 L 50.941406 67.433594 C 51.246094 67.085938 51.453125 66.660156 51.527344 66.199219 L 62.308594 64.632812 C 62.449219 65.105469 62.726562 65.527344 63.109375 65.84375 Z M 59.691406 76.777344 C 59.664062 76.757812 59.640625 76.738281 59.613281 76.722656 L 64.214844 66.359375 C 65.109375 66.523438 66.023438 66.164062 66.570312 65.4375 L 71.78125 67.707031 L 59.6875 76.773438 Z M 56.363281 77.21875 C 56.175781 77.453125 56.035156 77.714844 55.945312 78 L 42.3125 78 C 42.222656 77.714844 42.078125 77.453125 41.894531 77.21875 L 48.332031 68.117188 C 48.847656 68.300781 49.40625 68.300781 49.921875 68.117188 L 56.359375 77.21875 Z M 77.386719 52.125 L 73.554688 64.488281 L 72.726562 52.34375 C 73.71875 51.996094 74.382812 51.054688 74.378906 50 C 74.382812 48.9375 73.710938 47.992188 72.707031 47.648438 L 73.550781 35.539062 L 77.320312 47.917969 C 76.621094 48.378906 76.199219 49.164062 76.203125 50 C 76.203125 50.902344 76.679688 51.695312 77.390625 52.125 Z M 70.34375 48.132812 C 69.8125 48.609375 69.507812 49.289062 69.507812 50 C 69.507812 50.710938 69.804688 51.351562 70.277344 51.804688 L 65.214844 61.519531 C 64.898438 61.441406 64.570312 61.425781 64.246094 61.480469 L 59.765625 51.941406 C 60.351562 51.464844 60.691406 50.753906 60.6875 50 C 60.6875 49.261719 60.363281 48.558594 59.792969 48.085938 L 64.144531 38.5 C 64.558594 38.585938 64.992188 38.5625 65.394531 38.429688 Z M 71.511719 52.4375 L 72.484375 66.667969 L 67.046875 64.300781 C 67.171875 63.488281 66.886719 62.664062 66.289062 62.101562 L 71.34375 52.398438 C 71.398438 52.414062 71.457031 52.425781 71.511719 52.4375 Z M 71.492188 47.570312 C 71.472656 47.570312 71.453125 47.574219 71.429688 47.578125 L 66.421875 37.765625 C 66.960938 37.179688 67.1875 36.375 67.03125 35.59375 L 71.210938 33.847656 C 71.507812 34.25 71.917969 34.550781 72.386719 34.710938 Z M 58.65625 52.445312 L 63.132812 61.980469 C 62.691406 62.335938 62.386719 62.832031 62.265625 63.386719 L 51.429688 64.960938 C 51.328125 64.671875 51.175781 64.402344 50.976562 64.167969 L 57.609375 52.386719 C 57.949219 52.480469 58.308594 52.5 58.65625 52.441406 Z M 58.6875 47.566406 C 58.308594 47.496094 57.917969 47.519531 57.546875 47.632812 L 50.863281 35.648438 C 51.082031 35.421875 51.253906 35.152344 51.375 34.863281 L 62.234375 36.441406 C 62.320312 37.023438 62.609375 37.558594 63.054688 37.949219 L 58.691406 47.566406 Z M 56.554688 51.773438 L 49.976562 63.460938 C 49.503906 63.28125 48.992188 63.257812 48.507812 63.386719 L 41.726562 51.746094 C 42.183594 51.28125 42.4375 50.652344 42.4375 50 C 42.4375 49.34375 42.1875 48.746094 41.773438 48.304688 L 48.671875 36.34375 C 49.054688 36.417969 49.445312 36.394531 49.820312 36.285156 L 56.507812 48.277344 C 56.0625 48.742188 55.816406 49.359375 55.820312 50 C 55.820312 50.695312 56.101562 51.320312 56.554688 51.773438 Z M 21.003906 52.039062 C 21.664062 51.570312 22.058594 50.808594 22.054688 50 C 22.058594 49.21875 21.695312 48.484375 21.070312 48.011719 L 24.894531 35.589844 L 25.839844 47.570312 C 24.691406 47.8125 23.875 48.828125 23.882812 50 C 23.882812 51.1875 24.703125 52.179688 25.800781 52.417969 L 24.882812 64.429688 Z M 33.152344 61.492188 L 27.996094 51.789062 C 28.476562 51.316406 28.75 50.671875 28.746094 50 C 28.75 49.308594 28.460938 48.648438 27.957031 48.175781 L 33.203125 38.519531 C 33.503906 38.570312 33.816406 38.5625 34.117188 38.5 L 38.464844 48.082031 C 37.894531 48.554688 37.566406 49.257812 37.570312 50 C 37.570312 50.800781 37.945312 51.511719 38.523438 51.964844 L 34.242188 61.527344 C 33.886719 61.433594 33.511719 61.421875 33.152344 61.492188 Z M 34.164062 66.335938 L 38.664062 76.710938 C 38.628906 76.734375 38.59375 76.757812 38.5625 76.78125 L 27.390625 68.460938 C 27.519531 68.097656 27.558594 67.707031 27.511719 67.320312 L 31.726562 65.484375 C 32.308594 66.214844 33.257812 66.546875 34.164062 66.335938 Z M 31.21875 64.359375 L 27.0625 66.171875 C 26.800781 65.808594 26.445312 65.523438 26.03125 65.351562 L 27.011719 52.539062 L 32.054688 62.023438 C 31.378906 62.597656 31.0625 63.488281 31.21875 64.359375 Z M 36 63.425781 C 35.902344 62.9375 35.660156 62.488281 35.304688 62.140625 L 39.648438 52.449219 C 39.992188 52.5 40.34375 52.476562 40.679688 52.378906 L 47.445312 63.992188 C 47.164062 64.265625 46.953125 64.601562 46.828125 64.96875 Z M 35.9375 64.664062 L 46.730469 66.207031 C 46.808594 66.675781 47.019531 67.097656 47.320312 67.433594 L 40.917969 76.480469 C 40.570312 76.335938 40.191406 76.277344 39.816406 76.304688 L 35.242188 65.761719 C 35.566406 65.464844 35.808594 65.089844 35.9375 64.667969 Z M 31.242188 35.535156 C 31.042969 36.453125 31.371094 37.40625 32.089844 38.007812 L 27.039062 47.304688 L 26.039062 34.648438 C 26.460938 34.464844 26.820312 34.171875 27.082031 33.796875 L 31.238281 35.535156 Z M 34.210938 33.675781 C 33.328125 33.449219 32.390625 33.742188 31.796875 34.429688 L 27.515625 32.640625 C 27.554688 32.28125 27.515625 31.914062 27.402344 31.570312 L 38.507812 23.550781 Z M 36.027344 36.402344 L 46.875 34.855469 C 47.027344 35.230469 47.265625 35.554688 47.566406 35.8125 L 40.746094 47.644531 C 40.367188 47.519531 39.960938 47.492188 39.566406 47.566406 L 35.203125 37.949219 C 35.65625 37.550781 35.949219 37 36.023438 36.402344 Z M 35.277344 34.273438 L 39.773438 23.691406 C 40.1875 23.730469 40.609375 23.660156 40.992188 23.488281 L 47.210938 32.386719 C 46.933594 32.75 46.757812 33.179688 46.710938 33.632812 L 35.882812 35.175781 C 35.75 34.832031 35.546875 34.523438 35.28125 34.273438 Z M 64.414062 33.613281 L 59.816406 23.511719 L 70.839844 31.617188 C 70.730469 31.96875 70.699219 32.339844 70.75 32.703125 L 66.5 34.476562 C 65.992188 33.863281 65.207031 33.539062 64.414062 33.613281 Z M 62.363281 35.207031 L 51.550781 33.636719 C 51.5 33.183594 51.328125 32.75 51.050781 32.386719 L 57.269531 23.488281 C 57.667969 23.667969 58.113281 23.734375 58.550781 23.679688 L 63.269531 34.035156 C 62.855469 34.324219 62.539062 34.734375 62.363281 35.210938 Z M 56.3125 22.71875 L 50.082031 31.632812 C 49.472656 31.371094 48.78125 31.371094 48.175781 31.632812 L 41.945312 22.71875 C 42.105469 22.5 42.230469 22.257812 42.316406 22 L 55.941406 22 C 56.027344 22.257812 56.152344 22.5 56.316406 22.71875 Z M 50 100 C 22.382812 100 0 77.617188 0 50 C 0 22.382812 22.382812 0 50 0 C 77.617188 0 100 22.382812 100 50 C 100 77.617188 77.617188 100 50 100 Z M 50 100 "/>
</g>
</svg>
