<?xml version="1.0" encoding="UTF-8"?>
<svg xmlns="http://www.w3.org/2000/svg" xmlns:xlink="http://www.w3.org/1999/xlink" width="100px" height="100px" viewBox="0 0 100 100" version="1.1">
<g id="surface1">
<path style=" stroke:none;fill-rule:nonzero;fill:rgb(100%,100%,100%);fill-opacity:1;" d="M 0.46875 0.46875 C 33.722656 0.46875 67.214844 0.46875 100.46875 0.46875 C 100.46875 33.722656 100.46875 67.214844 100.46875 100.46875 C 67.214844 100.46875 33.722656 100.46875 0.46875 100.46875 C 0.46875 67.214844 0.46875 33.957031 0.46875 0.46875 Z M 50.351562 9.601562 C 37.003906 9.601562 22.949219 12.644531 10.773438 18.265625 C 8.195312 19.4375 6.792969 20.609375 7.726562 23.652344 C 8.195312 25.292969 8.195312 27.402344 8.429688 29.273438 C 12.644531 56.207031 26.230469 77.285156 48.476562 92.738281 C 49.882812 93.675781 50.820312 93.675781 52.226562 92.738281 C 59.71875 87.585938 66.511719 81.5 72.132812 74.238281 C 84.308594 59.25 91.335938 41.6875 92.738281 22.25 C 92.972656 20.375 92.273438 19.671875 90.632812 18.96875 C 77.984375 12.878906 64.402344 9.835938 50.351562 9.601562 Z M 50.351562 9.601562 "/>
<path style=" stroke:none;fill-rule:nonzero;fill:rgb(0%,0%,0%);fill-opacity:1;" d="M 50.351562 9.601562 C 64.402344 9.835938 77.984375 12.878906 90.632812 18.734375 C 92.273438 19.4375 92.738281 20.375 92.738281 22.015625 C 91.335938 41.6875 84.308594 59.25 71.898438 74.472656 C 66.277344 81.5 59.484375 87.585938 51.992188 92.972656 C 50.585938 93.910156 49.882812 94.144531 48.242188 92.972656 C 26.230469 77.285156 12.644531 56.207031 8.429688 29.273438 C 8.195312 27.402344 8.195312 25.527344 7.726562 23.652344 C 6.792969 20.609375 8.195312 19.4375 10.773438 18.265625 C 22.949219 12.644531 36.769531 9.601562 50.351562 9.601562 Z M 58.546875 15.222656 C 58.3125 14.988281 58.3125 14.753906 58.3125 14.753906 C 42.855469 13.582031 27.867188 15.691406 13.816406 22.25 C 13.113281 22.484375 12.414062 24.121094 12.414062 25.058594 C 12.878906 29.273438 13.582031 33.488281 14.753906 37.703125 C 16.863281 45.902344 24.824219 51.523438 32.785156 50.585938 C 41.6875 49.414062 47.539062 42.621094 47.773438 33.722656 C 47.773438 31.851562 48.242188 29.742188 48.710938 27.867188 C 50.351562 22.25 53.863281 18.03125 58.546875 15.222656 Z M 71.664062 66.746094 C 72.132812 66.277344 72.367188 66.277344 72.367188 66.042969 C 73.300781 64.636719 74.238281 63.230469 75.175781 61.828125 C 82.203125 50.351562 86.652344 37.9375 87.820312 24.355469 C 87.820312 23.652344 87.585938 22.484375 87.121094 22.25 C 80.796875 19.671875 74.707031 16.394531 67.679688 17.097656 C 60.65625 17.796875 54.800781 22.484375 52.925781 29.507812 C 51.289062 36.066406 53.628906 43.558594 59.484375 47.074219 C 66.980469 51.757812 71.195312 57.84375 71.664062 66.746094 Z M 50.585938 88.523438 C 54.800781 84.777344 59.015625 81.265625 62.761719 77.285156 C 66.277344 73.535156 67.679688 68.851562 66.511719 63.699219 C 64.167969 51.992188 52.925781 46.371094 42.15625 51.992188 C 37.9375 54.097656 33.488281 55.503906 28.570312 54.800781 C 25.761719 54.332031 22.949219 53.394531 20.140625 52.460938 C 26.933594 67.214844 37.003906 78.921875 50.585938 88.523438 Z M 50.585938 88.523438 "/>
<path style=" stroke:none;fill-rule:nonzero;fill:rgb(100%,100%,100%);fill-opacity:1;" d="M 58.546875 15.222656 C 53.863281 18.03125 50.351562 22.25 48.710938 27.867188 C 48.242188 29.742188 47.773438 31.617188 47.773438 33.722656 C 47.539062 42.855469 41.453125 49.648438 32.785156 50.585938 C 25.058594 51.523438 16.863281 45.902344 14.753906 37.703125 C 13.816406 33.488281 13.113281 29.273438 12.414062 25.058594 C 12.179688 24.121094 13.113281 22.714844 13.816406 22.25 C 27.867188 15.691406 42.855469 13.582031 58.3125 14.753906 C 58.3125 14.753906 58.3125 14.988281 58.546875 15.222656 Z M 58.546875 15.222656 "/>
<path style=" stroke:none;fill-rule:nonzero;fill:rgb(100%,100%,100%);fill-opacity:1;" d="M 71.664062 66.746094 C 71.429688 57.84375 67.214844 51.757812 59.71875 47.308594 C 53.863281 43.792969 51.289062 36.300781 53.160156 29.742188 C 55.035156 22.949219 60.890625 18.03125 67.914062 17.332031 C 74.941406 16.628906 81.03125 19.90625 87.355469 22.484375 C 87.820312 22.714844 88.054688 23.886719 88.054688 24.589844 C 86.886719 38.171875 82.4375 50.585938 75.410156 62.0625 C 74.472656 63.464844 73.535156 64.871094 72.597656 66.277344 C 72.367188 66.277344 72.132812 66.511719 71.664062 66.746094 Z M 71.664062 66.746094 "/>
<path style=" stroke:none;fill-rule:nonzero;fill:rgb(100%,100%,100%);fill-opacity:1;" d="M 50.585938 88.523438 C 37.003906 78.921875 27.167969 66.980469 20.375 52.691406 C 23.183594 53.394531 25.996094 54.566406 28.804688 55.035156 C 33.488281 55.738281 37.9375 54.566406 42.390625 52.226562 C 53.160156 46.605469 64.402344 52.226562 66.746094 63.933594 C 67.679688 69.085938 66.511719 73.769531 62.996094 77.515625 C 59.015625 81.5 54.566406 84.777344 50.585938 88.523438 Z M 50.585938 88.523438 "/>
</g>
</svg>
