<?xml version="1.0" encoding="UTF-8"?>
<svg xmlns="http://www.w3.org/2000/svg" xmlns:xlink="http://www.w3.org/1999/xlink" width="100px" height="100px" viewBox="0 0 100 100" version="1.1">
<g id="surface1">
<path style=" stroke:none;fill-rule:nonzero;fill:rgb(100%,100%,100%);fill-opacity:1;" d="M 100.703125 100.703125 C 67.449219 100.703125 33.957031 100.703125 0.703125 100.703125 C 0.703125 67.449219 0.703125 33.957031 0.703125 0.703125 C 33.957031 0.703125 67.449219 0.703125 100.703125 0.703125 C 100.703125 33.957031 100.703125 67.214844 100.703125 100.703125 Z M 60.890625 28.101562 C 60.1875 29.039062 59.953125 29.507812 59.484375 29.976562 C 48.242188 43.558594 37.003906 57.378906 25.761719 70.960938 C 25.292969 71.664062 24.355469 72.597656 24.355469 73.300781 C 24.121094 77.285156 24.355469 81.265625 24.355469 85.480469 C 31.851562 85.480469 39.109375 85.480469 46.605469 85.480469 C 46.605469 89.226562 46.605469 92.503906 46.605469 95.785156 C 49.648438 95.785156 52.226562 95.785156 55.035156 95.785156 C 55.035156 92.273438 55.035156 88.992188 55.035156 85.246094 C 62.296875 85.246094 69.554688 85.246094 76.582031 85.246094 C 76.582031 81.03125 76.582031 76.816406 76.582031 72.597656 C 64.402344 72.597656 52.691406 72.597656 40.515625 72.597656 C 40.984375 71.898438 41.453125 71.429688 41.6875 70.960938 C 52.925781 57.144531 64.167969 43.558594 75.410156 29.742188 C 75.878906 29.039062 76.816406 28.101562 76.816406 27.402344 C 77.050781 23.417969 76.816406 19.4375 76.816406 14.988281 C 69.320312 14.988281 62.296875 14.988281 54.800781 14.988281 C 54.800781 11.476562 54.800781 8.195312 54.800781 4.917969 C 51.992188 4.917969 49.179688 4.917969 46.371094 4.917969 C 46.371094 8.429688 46.371094 11.710938 46.371094 15.222656 C 38.875 15.222656 31.851562 15.222656 24.589844 15.222656 C 24.589844 19.671875 24.589844 23.652344 24.589844 28.101562 C 36.769531 28.101562 48.476562 28.101562 60.890625 28.101562 Z M 60.890625 28.101562 "/>
<path style=" stroke:none;fill-rule:nonzero;fill:rgb(0%,0%,0%);fill-opacity:1;" d="M 60.890625 28.101562 C 48.476562 28.101562 36.769531 28.101562 24.589844 28.101562 C 24.589844 23.886719 24.589844 19.671875 24.589844 15.222656 C 31.851562 15.222656 38.875 15.222656 46.371094 15.222656 C 46.371094 11.710938 46.371094 8.429688 46.371094 4.917969 C 49.179688 4.917969 51.992188 4.917969 54.800781 4.917969 C 54.800781 8.195312 54.800781 11.476562 54.800781 14.988281 C 62.296875 14.988281 69.320312 14.988281 76.816406 14.988281 C 76.816406 19.203125 76.816406 23.417969 76.816406 27.402344 C 76.816406 28.101562 76.113281 29.039062 75.410156 29.742188 C 64.167969 43.558594 52.925781 57.378906 41.6875 70.960938 C 41.453125 71.429688 40.984375 71.898438 40.515625 72.597656 C 52.691406 72.597656 64.636719 72.597656 76.582031 72.597656 C 76.582031 76.816406 76.582031 81.03125 76.582031 85.246094 C 69.554688 85.246094 62.296875 85.246094 55.035156 85.246094 C 55.035156 88.757812 55.035156 92.039062 55.035156 95.785156 C 52.226562 95.785156 49.414062 95.785156 46.605469 95.785156 C 46.605469 92.503906 46.605469 89.226562 46.605469 85.480469 C 39.109375 85.480469 32.085938 85.480469 24.355469 85.480469 C 24.355469 81.265625 24.355469 77.285156 24.355469 73.300781 C 24.355469 72.597656 25.292969 71.664062 25.761719 70.960938 C 37.003906 57.378906 48.242188 43.558594 59.484375 29.976562 C 59.953125 29.507812 60.1875 29.039062 60.890625 28.101562 Z M 60.890625 28.101562 "/>
</g>
</svg>
