<?xml version="1.0" encoding="UTF-8"?>
<svg xmlns="http://www.w3.org/2000/svg" xmlns:xlink="http://www.w3.org/1999/xlink" width="100px" height="100px" viewBox="0 0 100 100" version="1.1">
<g id="surface1">
<path style=" stroke:none;fill-rule:nonzero;fill:rgb(18.039216%,19.215687%,28.235295%);fill-opacity:1;" d="M 100 50 C 100 77.613281 77.613281 100 50 100 C 22.386719 100 0 77.613281 0 50 C 0 22.386719 22.386719 0 50 0 C 77.613281 0 100 22.386719 100 50 Z M 100 50 "/>
<path style=" stroke:none;fill-rule:nonzero;fill:rgb(10.588235%,11.764706%,21.176471%);fill-opacity:1;" d="M 79.011719 50 C 79.011719 66.023438 66.023438 79.011719 50 79.011719 C 33.976562 79.011719 20.988281 66.023438 20.988281 50 C 20.988281 33.976562 33.976562 20.988281 50 20.988281 C 66.023438 20.988281 79.011719 33.976562 79.011719 50 Z M 79.011719 50 "/>
<path style=" stroke:none;fill-rule:nonzero;fill:rgb(43.529412%,45.09804%,56.470591%);fill-opacity:1;" d="M 50.101562 6.378906 C 44.707031 6.378906 40.332031 25.953125 40.332031 50.101562 C 40.332031 74.25 44.707031 93.828125 50.101562 93.828125 C 55.5 93.828125 59.875 74.25 59.875 50.101562 C 59.875 25.957031 55.5 6.378906 50.101562 6.378906 Z M 50.777344 91.359375 C 50.160156 92.183594 49.542969 91.566406 49.542969 91.566406 C 47.058594 88.683594 45.816406 83.335938 45.816406 83.335938 C 41.46875 69.34375 42.503906 39.300781 42.503906 39.300781 C 44.546875 15.453125 48.261719 9.816406 49.527344 8.566406 C 49.792969 8.304688 50.210938 8.269531 50.515625 8.488281 C 52.351562 9.789062 53.890625 15.226562 53.890625 15.226562 C 58.4375 32.097656 58.023438 47.941406 58.023438 47.941406 C 58.4375 61.730469 55.746094 77.160156 55.746094 77.160156 C 53.675781 88.890625 50.777344 91.359375 50.777344 91.359375 Z M 50.777344 91.359375 "/>
<path style=" stroke:none;fill-rule:nonzero;fill:rgb(43.529412%,45.09804%,56.470591%);fill-opacity:1;" d="M 88.027344 28.34375 C 85.339844 23.660156 66.1875 29.605469 45.234375 41.625 C 24.277344 53.644531 9.492188 67.179688 12.179688 71.863281 C 14.863281 76.546875 34.023438 70.601562 54.976562 58.582031 C 75.933594 46.5625 90.714844 33.027344 88.03125 28.34375 Z M 14.652344 71.21875 C 13.625 71.089844 13.859375 70.242188 13.859375 70.242188 C 15.117188 66.65625 19.136719 62.914062 19.136719 62.914062 C 29.113281 52.179688 55.6875 38.128906 55.6875 38.128906 C 77.390625 28.03125 84.128906 28.457031 85.839844 28.925781 C 86.203125 29.027344 86.441406 29.375 86.402344 29.75 C 86.195312 31.988281 82.234375 36.03125 82.234375 36.03125 C 69.871094 48.375 55.921875 55.90625 55.921875 55.90625 C 44.167969 63.125 29.441406 68.46875 29.441406 68.46875 C 18.238281 72.503906 14.652344 71.21875 14.652344 71.21875 Z M 14.652344 71.21875 "/>
<path style=" stroke:none;fill-rule:nonzero;fill:rgb(43.529412%,45.09804%,56.470591%);fill-opacity:1;" d="M 87.933594 72.019531 C 90.640625 67.347656 75.898438 53.746094 55.011719 41.640625 C 34.128906 29.53125 14.976562 23.511719 12.269531 28.191406 C 9.566406 32.871094 24.308594 46.464844 45.203125 58.570312 C 66.097656 70.675781 85.226562 76.695312 87.933594 72.019531 Z M 14.066406 29.992188 C 13.664062 29.046875 14.511719 28.816406 14.511719 28.816406 C 18.25 28.113281 23.5 29.71875 23.5 29.71875 C 37.785156 32.972656 63.257812 48.929688 63.257812 48.929688 C 82.871094 62.652344 85.882812 68.699219 86.332031 70.414062 C 86.425781 70.777344 86.246094 71.15625 85.902344 71.308594 C 83.859375 72.246094 78.378906 70.851562 78.378906 70.851562 C 61.496094 66.324219 47.996094 58.03125 47.996094 58.03125 C 35.863281 51.488281 23.867188 41.417969 23.867188 41.417969 C 14.753906 33.746094 14.070312 30.003906 14.070312 30.003906 Z M 14.066406 29.992188 "/>
<path style=" stroke:none;fill-rule:nonzero;fill:rgb(71.764708%,72.549021%,78.431374%);fill-opacity:1;" d="M 55.144531 50 C 55.144531 52.839844 52.839844 55.144531 50 55.144531 C 47.160156 55.144531 44.855469 52.839844 44.855469 50 C 44.855469 47.160156 47.160156 44.855469 50 44.855469 C 52.839844 44.855469 55.144531 47.160156 55.144531 50 Z M 55.144531 50 "/>
<path style=" stroke:none;fill-rule:nonzero;fill:rgb(71.764708%,72.549021%,78.431374%);fill-opacity:1;" d="M 74.074219 30.246094 C 74.074219 31.953125 72.738281 33.332031 71.089844 33.332031 C 69.441406 33.332031 68.105469 31.953125 68.105469 30.246094 C 68.105469 28.542969 69.441406 27.160156 71.089844 27.160156 C 72.738281 27.160156 74.074219 28.542969 74.074219 30.246094 Z M 74.074219 30.246094 "/>
<path style=" stroke:none;fill-rule:nonzero;fill:rgb(71.764708%,72.549021%,78.431374%);fill-opacity:1;" d="M 25.101562 40.742188 C 25.101562 42.445312 23.765625 43.828125 22.121094 43.828125 C 20.472656 43.828125 19.136719 42.445312 19.136719 40.742188 C 19.136719 39.035156 20.472656 37.65625 22.121094 37.65625 C 23.765625 37.65625 25.101562 39.035156 25.101562 40.742188 Z M 25.101562 40.742188 "/>
<path style=" stroke:none;fill-rule:nonzero;fill:rgb(71.764708%,72.549021%,78.431374%);fill-opacity:1;" d="M 46.914062 78.601562 C 46.914062 80.304688 45.578125 81.6875 43.929688 81.6875 C 42.28125 81.6875 40.945312 80.304688 40.945312 78.601562 C 40.945312 76.894531 42.28125 75.515625 43.929688 75.515625 C 45.578125 75.515625 46.914062 76.894531 46.914062 78.601562 Z M 46.914062 78.601562 "/>
</g>
</svg>
