<?xml version="1.0" encoding="UTF-8"?>
<svg xmlns="http://www.w3.org/2000/svg" xmlns:xlink="http://www.w3.org/1999/xlink" width="100px" height="100px" viewBox="0 0 100 100" version="1.1">
<g id="surface1">
<path style=" stroke:none;fill-rule:evenodd;fill:rgb(100%,40.000001%,0%);fill-opacity:1;" d="M 100 50 C 100 77.613281 77.613281 100 50 100 C 22.386719 100 0 77.613281 0 50 C 0 22.386719 22.386719 0 50 0 C 77.613281 0 100 22.386719 100 50 Z M 100 50 "/>
<path style=" stroke:none;fill-rule:nonzero;fill:rgb(100%,100%,100%);fill-opacity:1;" d="M 49.90625 16.359375 C 68.609375 16.359375 83.734375 31.484375 83.734375 50.183594 C 83.722656 53.828125 83.132812 57.449219 81.992188 60.910156 L 71.910156 60.910156 L 71.910156 32.492188 L 49.910156 54.492188 L 27.910156 32.492188 L 27.910156 60.910156 L 17.824219 60.910156 C 16.683594 57.449219 16.097656 53.828125 16.085938 50.183594 C 16.085938 31.484375 31.210938 16.359375 49.910156 16.359375 Z M 44.867188 59.4375 L 50 64.484375 L 55.039062 59.441406 L 64.574219 49.816406 L 64.574219 67.691406 L 78.785156 67.691406 C 72.65625 77.773438 61.707031 83.921875 49.910156 83.914062 C 37.714844 83.914062 26.992188 77.410156 21.035156 67.691406 L 35.242188 67.691406 L 35.242188 49.816406 L 44.867188 59.441406 Z M 44.867188 59.4375 "/>
</g>
</svg>
