<?xml version="1.0" encoding="UTF-8"?>
<svg xmlns="http://www.w3.org/2000/svg" xmlns:xlink="http://www.w3.org/1999/xlink" width="100px" height="100px" viewBox="0 0 100 100" version="1.1">
<g id="surface1">
<path style=" stroke:none;fill-rule:evenodd;fill:rgb(0%,0%,0%);fill-opacity:1;" d="M 89.140625 50 C 89.140625 71.617188 71.617188 89.140625 50 89.140625 C 28.382812 89.140625 10.859375 71.617188 10.859375 50 C 10.859375 28.382812 28.382812 10.859375 50 10.859375 C 71.617188 10.859375 89.140625 28.382812 89.140625 50 Z M 89.140625 50 "/>
<path style=" stroke:none;fill-rule:evenodd;fill:rgb(0%,0%,0%);fill-opacity:1;" d="M 84.851562 50 C 84.851562 69.296875 69.210938 84.9375 49.914062 84.9375 C 30.617188 84.9375 14.976562 69.296875 14.976562 50 C 14.976562 30.703125 30.617188 15.0625 49.914062 15.0625 C 69.210938 15.0625 84.851562 30.703125 84.851562 50 Z M 84.851562 50 "/>
<path style=" stroke:none;fill-rule:nonzero;fill:rgb(100%,100%,100%);fill-opacity:1;" d="M 66.480469 36.886719 C 65.644531 35.015625 64.867188 31.316406 62.730469 30.496094 C 59.980469 29.4375 58.277344 36.363281 57.871094 38.113281 L 57.460938 38.113281 C 56.769531 35.117188 55.835938 30.863281 52.542969 29.917969 C 51.019531 36.320312 54.136719 43.230469 57.054688 48.769531 C 60.164062 47.28125 61.683594 42.625 61.972656 39.34375 L 62.378906 39.34375 L 65.660156 49.179688 C 68.296875 48.421875 69.214844 45.8125 70.167969 43.441406 C 72.210938 38.355469 73.925781 32.101562 72.625 26.640625 C 68.691406 27.753906 67.492188 33.382812 66.480469 36.886719 M 27.136719 50 C 30.65625 48.316406 32.332031 42.996094 32.871094 39.34375 L 33.28125 39.34375 C 33.699219 41.105469 34.8125 45.644531 37.011719 45.933594 C 39.8125 46.304688 41.28125 40.089844 41.480469 38.113281 L 41.890625 38.113281 C 42.78125 41.199219 43.722656 45.214844 46.808594 46.722656 C 47.945312 41.941406 46.582031 36.847656 44.835938 32.378906 C 44.386719 31.226562 43.464844 28.128906 41.878906 28.128906 C 39.28125 28.128906 37.824219 34.972656 37.378906 36.886719 L 36.972656 36.886719 L 33.691406 27.050781 C 27.925781 29.804688 24.792969 44.449219 27.136719 50 M 20.988281 54.917969 C 25.265625 73.585938 45.007812 84.167969 62.789062 76.285156 C 69.261719 73.417969 74.394531 68.304688 77.355469 61.886719 C 78.121094 60.226562 79.621094 57.222656 78.746094 55.046875 C 77.875 52.878906 69.414062 56.421875 67.300781 57.347656 C 67.003906 57.480469 66.796875 57.753906 66.746094 58.074219 C 66.679688 58.527344 66.800781 58.992188 67.085938 59.351562 C 67.375 59.710938 67.796875 59.9375 68.253906 59.972656 C 69.804688 60.09375 71.808594 60.246094 71.808594 60.246094 C 65.378906 72.691406 47.996094 78.191406 35.742188 68.25 C 33 66.027344 30.550781 63.382812 28.90625 60.246094 C 28.109375 58.730469 27.371094 56.789062 26.015625 55.75 C 24.714844 54.75 22.742188 54.40625 20.988281 54.917969 Z M 20.988281 54.917969 "/>
</g>
</svg>
