<?xml version="1.0" encoding="UTF-8"?>
<svg xmlns="http://www.w3.org/2000/svg" xmlns:xlink="http://www.w3.org/1999/xlink" width="100px" height="100px" viewBox="0 0 100 100" version="1.1">
<g id="surface1">
<path style=" stroke:none;fill-rule:evenodd;fill:rgb(8.235294%,74.117649%,100%);fill-opacity:1;" d="M 100 50 C 100 77.613281 77.613281 100 50 100 C 22.386719 100 0 77.613281 0 50 C 0 22.386719 22.386719 0 50 0 C 77.613281 0 100 22.386719 100 50 Z M 100 50 "/>
<path style=" stroke:none;fill-rule:nonzero;fill:rgb(100%,100%,100%);fill-opacity:1;" d="M 46.054688 77.292969 L 22 28.269531 C 21.820312 27.902344 21.84375 27.46875 22.058594 27.121094 C 22.277344 26.777344 22.65625 26.566406 23.0625 26.5625 L 31.398438 26.5625 C 31.847656 26.5625 32.265625 26.8125 32.460938 27.207031 L 50.03125 62.773438 C 51.59375 65.960938 56.128906 65.960938 57.695312 62.773438 L 75.207031 27.234375 C 75.410156 26.839844 75.820312 26.589844 76.269531 26.589844 L 77.304688 26.589844 C 77.921875 26.589844 78.3125 27.234375 78.035156 27.765625 L 53.722656 77.296875 C 52.15625 80.484375 47.625 80.484375 46.054688 77.296875 Z M 46.054688 77.292969 "/>
</g>
</svg>
