<?xml version="1.0" encoding="UTF-8"?>
<svg xmlns="http://www.w3.org/2000/svg" xmlns:xlink="http://www.w3.org/1999/xlink" width="100px" height="100px" viewBox="0 0 100 100" version="1.1">
<g id="surface1">
<path style=" stroke:none;fill-rule:nonzero;fill:rgb(100%,100%,99.607843%);fill-opacity:1;" d="M 0.714844 50.355469 C 0.714844 34.285156 0.714844 18.214844 0.644531 2.144531 C 0.644531 0.355469 1.070312 -0.0703125 2.855469 0 C 34.785156 0 66.644531 0 98.570312 0 C 100.355469 0 100.785156 0.429688 100.785156 2.214844 C 100.714844 34.355469 100.714844 66.5 100.785156 98.644531 C 100.785156 100.429688 100.355469 100.855469 98.570312 100.855469 C 66.644531 100.785156 34.785156 100.785156 2.855469 100.855469 C 1.070312 100.855469 0.644531 100.429688 0.644531 98.644531 C 0.714844 82.5 0.714844 66.429688 0.714844 50.355469 Z M 0.714844 50.355469 "/>
<path style=" stroke:none;fill-rule:nonzero;fill:rgb(14.117648%,12.54902%,12.54902%);fill-opacity:1;" d="M 98 50.285156 C 98 76.714844 77 97.929688 50.644531 97.929688 C 24 98 2.855469 77 2.855469 50.5 C 2.855469 23.785156 24 2.855469 50.855469 2.855469 C 76.855469 2.855469 98 24.070312 98 50.285156 Z M 98 50.285156 "/>
<path style=" stroke:none;fill-rule:nonzero;fill:rgb(94.509804%,94.117647%,93.725491%);fill-opacity:1;" d="M 71.429688 73.929688 C 71.355469 76.429688 70 77.785156 67.714844 77.785156 C 65.570312 77.714844 64.214844 76.355469 64.285156 74.144531 C 64.285156 71.929688 65.5 70.644531 67.785156 70.644531 C 70 70.644531 71.285156 71.714844 71.429688 73.929688 Z M 71.429688 73.929688 "/>
<path style=" stroke:none;fill-rule:nonzero;fill:rgb(93.333334%,92.54902%,92.54902%);fill-opacity:1;" d="M 64.429688 19.785156 C 66.144531 19.929688 67.429688 21.070312 67.355469 23.355469 C 67.285156 25.714844 65.929688 26.929688 63.714844 26.929688 C 61.5 26.929688 60.144531 25.355469 60.144531 23.285156 C 60.214844 21.070312 61.570312 19.714844 64.429688 19.785156 Z M 64.429688 19.785156 "/>
<path style=" stroke:none;fill-rule:nonzero;fill:rgb(95.294118%,94.117647%,94.117647%);fill-opacity:1;" d="M 21.644531 55.785156 C 19.285156 55.714844 18.144531 54.144531 18.214844 52.070312 C 18.285156 49.929688 19.644531 48.570312 21.929688 48.714844 C 24.285156 48.855469 25.429688 50.355469 25.355469 52.429688 C 25.355469 54.5 23.929688 55.855469 21.644531 55.785156 Z M 21.644531 55.785156 "/>
<path style=" stroke:none;fill-rule:nonzero;fill:rgb(93.333334%,92.54902%,92.156863%);fill-opacity:1;" d="M 62.214844 70.355469 C 62 72.355469 60.855469 73.355469 58.929688 73.285156 C 57.070312 73.214844 55.929688 71.929688 56 70.285156 C 56.070312 68.570312 57.070312 67.070312 59.144531 67.144531 C 61.144531 67.214844 62 68.429688 62.214844 70.355469 Z M 62.214844 70.355469 "/>
<path style=" stroke:none;fill-rule:nonzero;fill:rgb(94.509804%,93.725491%,93.725491%);fill-opacity:1;" d="M 29.355469 49.644531 C 27.644531 49.429688 26.429688 48.285156 26.5 46.429688 C 26.570312 44.714844 27.570312 43.570312 29.429688 43.570312 C 31.429688 43.570312 32.644531 44.644531 32.644531 46.570312 C 32.714844 48.5 31.5 49.5 29.355469 49.644531 Z M 29.355469 49.644531 "/>
<path style=" stroke:none;fill-rule:nonzero;fill:rgb(94.509804%,92.941177%,93.333334%);fill-opacity:1;" d="M 75.855469 34.144531 C 75.785156 36.144531 74.5 37.144531 72.644531 37 C 71 36.855469 69.855469 35.855469 69.855469 34 C 69.855469 31.929688 71 30.855469 72.855469 30.855469 C 74.785156 30.855469 75.855469 32.070312 75.855469 34.144531 Z M 75.855469 34.144531 "/>
<path style=" stroke:none;fill-rule:nonzero;fill:rgb(95.686275%,95.294118%,95.294118%);fill-opacity:1;" d="M 64.785156 35.855469 C 62.570312 35.714844 61.714844 34.429688 61.785156 32.570312 C 61.929688 30.570312 63.214844 29.644531 65.144531 29.855469 C 66.929688 30 67.929688 31.070312 67.785156 32.929688 C 67.714844 34.855469 66.570312 35.785156 64.785156 35.855469 Z M 64.785156 35.855469 "/>
<path style=" stroke:none;fill-rule:nonzero;fill:rgb(95.294118%,94.117647%,94.117647%);fill-opacity:1;" d="M 57.144531 76.644531 C 56.929688 78.714844 55.785156 79.714844 53.929688 79.644531 C 52.144531 79.570312 51 78.429688 51.070312 76.644531 C 51.070312 74.785156 52.070312 73.429688 54.144531 73.5 C 56.070312 73.644531 57 74.785156 57.144531 76.644531 Z M 57.144531 76.644531 "/>
<path style=" stroke:none;fill-rule:nonzero;fill:rgb(96.078432%,95.686275%,95.294118%);fill-opacity:1;" d="M 26.644531 42.144531 C 24.785156 41.855469 23.570312 41.070312 23.570312 39 C 23.570312 36.929688 24.785156 35.785156 26.570312 35.855469 C 28.355469 35.929688 29.570312 37.214844 29.5 39.144531 C 29.429688 40.929688 28.429688 41.929688 26.644531 42.144531 Z M 26.644531 42.144531 "/>
<path style=" stroke:none;fill-rule:nonzero;fill:rgb(94.117647%,92.941177%,92.941177%);fill-opacity:1;" d="M 50.144531 71.144531 C 50.070312 73.429688 49.285156 74.355469 47.570312 74.355469 C 45.855469 74.285156 45 73.355469 45.070312 71.644531 C 45.144531 70.070312 46 69.285156 47.5 69.214844 C 49.144531 69.144531 50 70 50.144531 71.144531 Z M 50.144531 71.144531 "/>
<path style=" stroke:none;fill-rule:nonzero;fill:rgb(94.117647%,92.54902%,92.54902%);fill-opacity:1;" d="M 52.714844 67.929688 C 50.855469 67.855469 50 66.929688 50 65.214844 C 50 63.355469 51.144531 62.714844 52.714844 62.785156 C 54.214844 62.785156 55.070312 63.644531 55.070312 65.214844 C 55.070312 66.929688 54.285156 67.855469 52.714844 67.929688 Z M 52.714844 67.929688 "/>
<path style=" stroke:none;fill-rule:nonzero;fill:rgb(92.941177%,91.764706%,91.764706%);fill-opacity:1;" d="M 74.355469 42.285156 C 74.285156 44.070312 73.285156 44.855469 71.644531 44.644531 C 70.070312 44.5 69.070312 43.5 69.214844 41.785156 C 69.355469 40.144531 70.355469 39.214844 72 39.355469 C 73.714844 39.5 74.5 40.644531 74.355469 42.285156 Z M 74.355469 42.285156 "/>
<path style=" stroke:none;fill-rule:nonzero;fill:rgb(93.333334%,92.156863%,92.156863%);fill-opacity:1;" d="M 32.714844 26.429688 C 34.5 26.429688 35.570312 27.429688 35.570312 29 C 35.644531 30.570312 34.570312 31.644531 32.855469 31.644531 C 31.285156 31.644531 30.355469 30.714844 30.285156 29.214844 C 30.214844 27.644531 31.070312 26.570312 32.714844 26.429688 Z M 32.714844 26.429688 "/>
<path style=" stroke:none;fill-rule:nonzero;fill:rgb(92.941177%,91.764706%,91.764706%);fill-opacity:1;" d="M 44.929688 76.070312 C 44.644531 77.570312 44 78.644531 42.214844 78.644531 C 40.355469 78.644531 39.644531 77.5 39.644531 75.929688 C 39.644531 74.5 40.5 73.570312 42.070312 73.5 C 43.855469 73.429688 44.714844 74.355469 44.929688 76.070312 Z M 44.929688 76.070312 "/>
<path style=" stroke:none;fill-rule:nonzero;fill:rgb(94.901961%,93.333334%,93.725491%);fill-opacity:1;" d="M 66.429688 40.929688 C 66.355469 42.5 65.5 43.5 63.855469 43.570312 C 62.144531 43.570312 61.285156 42.644531 61.285156 40.855469 C 61.285156 39.285156 62.214844 38.355469 63.644531 38.355469 C 65.285156 38.285156 66.355469 39 66.429688 40.929688 Z M 66.429688 40.929688 "/>
<path style=" stroke:none;fill-rule:nonzero;fill:rgb(94.509804%,94.117647%,94.117647%);fill-opacity:1;" d="M 39.714844 43.285156 C 39.5 45.144531 38.644531 46.070312 36.929688 46 C 35.429688 45.929688 34.429688 45 34.429688 43.5 C 34.429688 41.929688 35.355469 40.785156 37.070312 40.785156 C 38.785156 40.714844 39.5 41.855469 39.714844 43.285156 Z M 39.714844 43.285156 "/>
<path style=" stroke:none;fill-rule:nonzero;fill:rgb(94.901961%,93.725491%,93.725491%);fill-opacity:1;" d="M 80.855469 44.070312 C 80.855469 45.929688 80.070312 47 78.429688 47.070312 C 76.714844 47.144531 75.785156 46.144531 75.714844 44.5 C 75.644531 42.714844 76.785156 42 78.429688 41.929688 C 79.929688 41.929688 80.714844 42.785156 80.855469 44.070312 Z M 80.855469 44.070312 "/>
<path style=" stroke:none;fill-rule:nonzero;fill:rgb(94.509804%,94.117647%,94.117647%);fill-opacity:1;" d="M 34.355469 33.285156 C 35.5 33.355469 36.5 33.929688 36.5 35.570312 C 36.570312 37.285156 35.714844 38.355469 34.070312 38.429688 C 32.429688 38.570312 31.429688 37.5 31.355469 35.855469 C 31.355469 34.144531 32.355469 33.355469 34.355469 33.285156 Z M 34.355469 33.285156 "/>
<path style=" stroke:none;fill-rule:nonzero;fill:rgb(86.274511%,84.705883%,84.705883%);fill-opacity:1;" d="M 78.285156 51.070312 C 78.214844 52.429688 77.429688 53.214844 76.070312 53.285156 C 74.714844 53.355469 73.785156 52.570312 73.644531 51.214844 C 73.5 49.644531 74.5 48.714844 76 48.714844 C 77.355469 48.714844 78.144531 49.644531 78.285156 51.070312 Z M 78.285156 51.070312 "/>
<path style=" stroke:none;fill-rule:nonzero;fill:rgb(91.37255%,89.803922%,90.196079%);fill-opacity:1;" d="M 40.429688 30 C 38.355469 30.144531 37.644531 29.355469 37.570312 28 C 37.5 26.714844 38 25.714844 39.5 25.644531 C 41.070312 25.570312 42 26.355469 42 27.855469 C 42.070312 29.214844 41.144531 29.929688 40.429688 30 Z M 40.429688 30 "/>
<path style=" stroke:none;fill-rule:nonzero;fill:rgb(91.37255%,90.588236%,90.588236%);fill-opacity:1;" d="M 68.714844 46.355469 C 70.785156 46.285156 71.785156 46.855469 71.714844 48.285156 C 71.714844 49.5 71.285156 50.570312 69.785156 50.714844 C 68.214844 50.855469 67.285156 50.070312 67.285156 48.5 C 67.214844 47.214844 68 46.429688 68.714844 46.355469 Z M 68.714844 46.355469 "/>
<path style=" stroke:none;fill-rule:nonzero;fill:rgb(93.333334%,92.156863%,92.156863%);fill-opacity:1;" d="M 50.429688 60.070312 C 50.144531 61.429688 49.570312 62.285156 48.070312 62.214844 C 46.644531 62.144531 45.855469 61.355469 45.855469 60.070312 C 45.855469 58.570312 46.785156 57.714844 48.355469 57.785156 C 49.785156 57.929688 50.285156 58.855469 50.429688 60.070312 Z M 50.429688 60.070312 "/>
<path style=" stroke:none;fill-rule:nonzero;fill:rgb(91.764706%,90.196079%,90.588236%);fill-opacity:1;" d="M 45.5 66.5 C 45.144531 67.714844 44.570312 68.714844 43.070312 68.644531 C 41.5 68.570312 40.644531 67.644531 40.785156 66.144531 C 40.929688 64.855469 41.855469 64.144531 43.285156 64.214844 C 44.785156 64.285156 45.214844 65.355469 45.5 66.5 Z M 45.5 66.5 "/>
<path style=" stroke:none;fill-rule:nonzero;fill:rgb(92.54902%,91.764706%,91.764706%);fill-opacity:1;" d="M 61.5 45.070312 C 62.929688 45.285156 63.570312 46.070312 63.570312 47.429688 C 63.570312 48.855469 62.785156 49.714844 61.5 49.644531 C 60 49.644531 59.144531 48.785156 59.285156 47.214844 C 59.355469 45.855469 60.285156 45.214844 61.5 45.070312 Z M 61.5 45.070312 "/>
<path style=" stroke:none;fill-rule:nonzero;fill:rgb(92.156863%,90.980393%,90.980393%);fill-opacity:1;" d="M 43.144531 34.355469 C 43.144531 35.855469 42.355469 36.785156 41.070312 36.855469 C 39.644531 36.929688 38.644531 36.144531 38.570312 34.570312 C 38.570312 33.070312 39.644531 32.5 40.855469 32.429688 C 42.214844 32.214844 42.855469 33.285156 43.144531 34.355469 Z M 43.144531 34.355469 "/>
<path style=" stroke:none;fill-rule:nonzero;fill:rgb(87.450981%,87.058824%,87.058824%);fill-opacity:1;" d="M 46.214844 42 C 46 43.429688 45.429688 44.355469 44 44.429688 C 42.570312 44.5 41.644531 43.714844 41.570312 42.429688 C 41.5 41 42.285156 40 43.929688 40 C 45.5 39.855469 45.785156 41 46.214844 42 Z M 46.214844 42 "/>
<path style=" stroke:none;fill-rule:nonzero;fill:rgb(94.509804%,93.333334%,93.333334%);fill-opacity:1;" d="M 37.785156 73 C 36.285156 72.929688 35.5 72.214844 35.570312 70.785156 C 35.570312 69.355469 36.355469 68.570312 37.785156 68.644531 C 39.144531 68.714844 40 69.429688 40 70.855469 C 40 72.285156 39.144531 72.929688 37.785156 73 Z M 37.785156 73 "/>
<path style=" stroke:none;fill-rule:nonzero;fill:rgb(87.058824%,86.666667%,86.666667%);fill-opacity:1;" d="M 66.285156 55.5 C 65.214844 55.285156 64.285156 54.570312 64.355469 53.355469 C 64.429688 52.144531 65.285156 51.355469 66.5 51.5 C 67.714844 51.644531 68.429688 52.5 68.285156 53.714844 C 68.144531 54.714844 67.5 55.5 66.285156 55.5 Z M 66.285156 55.5 "/>
<path style=" stroke:none;fill-rule:nonzero;fill:rgb(89.411765%,87.843138%,87.843138%);fill-opacity:1;" d="M 72.929688 57.929688 C 71.644531 57.929688 70.929688 57.214844 70.855469 56.070312 C 70.785156 54.785156 71.570312 54.144531 72.785156 54.144531 C 73.855469 54.144531 74.644531 54.714844 74.644531 55.785156 C 74.644531 56.785156 74.285156 57.785156 72.929688 57.929688 Z M 72.929688 57.929688 "/>
<path style=" stroke:none;fill-rule:nonzero;fill:rgb(87.450981%,85.882354%,86.274511%);fill-opacity:1;" d="M 37.070312 65.5 C 36.714844 67.070312 35.855469 67.570312 34.714844 67.355469 C 33.644531 67.214844 33.070312 66.5 33.214844 65.355469 C 33.355469 64.144531 34.070312 63.355469 35.355469 63.570312 C 36.5 63.714844 36.929688 64.714844 37.070312 65.5 Z M 37.070312 65.5 "/>
<path style=" stroke:none;fill-rule:nonzero;fill:rgb(89.019608%,87.450981%,87.843138%);fill-opacity:1;" d="M 45.355469 26.214844 C 46.785156 26.214844 47.570312 26.855469 47.5 28.144531 C 47.429688 29.144531 47 29.929688 45.855469 30.070312 C 44.644531 30.144531 43.785156 29.5 43.714844 28.355469 C 43.570312 27.070312 44.285156 26.355469 45.355469 26.214844 Z M 45.355469 26.214844 "/>
<path style=" stroke:none;fill-rule:nonzero;fill:rgb(93.333334%,92.941177%,92.54902%);fill-opacity:1;" d="M 49.785156 44.355469 C 48.429688 44.429688 47.855469 43.714844 47.855469 42.5 C 47.929688 41.214844 48.714844 40.714844 49.929688 40.714844 C 51.144531 40.714844 51.644531 41.429688 51.644531 42.429688 C 51.714844 43.5 51.144531 44.355469 49.785156 44.355469 Z M 49.785156 44.355469 "/>
<path style=" stroke:none;fill-rule:nonzero;fill:rgb(87.843138%,87.058824%,87.058824%);fill-opacity:1;" d="M 48.644531 34.714844 C 48.570312 36.355469 47.785156 37 46.570312 36.929688 C 45.570312 36.855469 44.855469 36.214844 44.855469 35.070312 C 44.855469 33.785156 45.570312 33 46.785156 33 C 48.070312 32.855469 48.644531 33.785156 48.644531 34.714844 Z M 48.644531 34.714844 "/>
<path style=" stroke:none;fill-rule:nonzero;fill:rgb(93.725491%,92.941177%,92.941177%);fill-opacity:1;" d="M 60.070312 52.355469 C 60 53.570312 59.5 54.355469 58.144531 54.285156 C 57 54.214844 56.429688 53.570312 56.355469 52.5 C 56.285156 51.144531 57.070312 50.570312 58.355469 50.570312 C 59.5 50.570312 60.144531 51.144531 60.070312 52.355469 Z M 60.070312 52.355469 "/>
<path style=" stroke:none;fill-rule:nonzero;fill:rgb(92.156863%,90.980393%,90.980393%);fill-opacity:1;" d="M 47.214844 54.5 C 47.285156 55.785156 46.785156 56.5 45.644531 56.570312 C 44.5 56.644531 43.5 56.285156 43.5 54.855469 C 43.5 53.570312 44.144531 52.855469 45.429688 52.855469 C 46.570312 52.855469 47.144531 53.570312 47.214844 54.5 Z M 47.214844 54.5 "/>
<path style=" stroke:none;fill-rule:nonzero;fill:rgb(92.941177%,91.37255%,91.37255%);fill-opacity:1;" d="M 42.285156 60.855469 C 42.285156 62.429688 41.644531 63 40.5 62.929688 C 39.214844 62.929688 38.5 62.285156 38.570312 60.929688 C 38.644531 59.785156 39.285156 59.214844 40.429688 59.144531 C 41.714844 59.214844 42.214844 60.070312 42.285156 60.855469 Z M 42.285156 60.855469 "/>
<path style=" stroke:none;fill-rule:nonzero;fill:rgb(90.980393%,89.411765%,89.411765%);fill-opacity:1;" d="M 70.785156 59.285156 C 70.855469 60.429688 70.214844 61.070312 69.214844 61.144531 C 68.355469 61.144531 67.644531 60.570312 67.644531 59.644531 C 67.570312 58.644531 68.070312 57.785156 69.285156 57.855469 C 70.070312 57.855469 70.714844 58.285156 70.785156 59.285156 Z M 70.785156 59.285156 "/>
<path style=" stroke:none;fill-rule:nonzero;fill:rgb(81.960785%,81.568629%,81.176472%);fill-opacity:1;" d="M 54.644531 45.570312 C 53.570312 45.214844 52.785156 44.785156 52.929688 43.570312 C 53.070312 42.644531 53.644531 42.144531 54.570312 42.144531 C 55.644531 42.144531 56.355469 42.785156 56.355469 43.855469 C 56.355469 45 55.429688 45.355469 54.644531 45.570312 Z M 54.644531 45.570312 "/>
<path style=" stroke:none;fill-rule:nonzero;fill:rgb(82.352942%,80.784315%,81.176472%);fill-opacity:1;" d="M 54.5 57.644531 C 53.5 57.285156 52.714844 56.855469 52.929688 55.644531 C 53.144531 54.570312 53.855469 54.070312 54.929688 54.214844 C 55.855469 54.355469 56.285156 55 56.285156 55.929688 C 56.355469 57.214844 55.355469 57.429688 54.5 57.644531 Z M 54.5 57.644531 "/>
<path style=" stroke:none;fill-rule:nonzero;fill:rgb(90.196079%,88.627452%,89.019608%);fill-opacity:1;" d="M 33.929688 62.285156 C 32.855469 62.285156 32.144531 61.855469 32.144531 60.644531 C 32.144531 59.644531 32.785156 59.144531 33.714844 59.144531 C 34.785156 59.144531 35.570312 59.644531 35.570312 60.785156 C 35.570312 61.714844 34.855469 62.214844 33.929688 62.285156 Z M 33.929688 62.285156 "/>
<path style=" stroke:none;fill-rule:nonzero;fill:rgb(85.882354%,84.313726%,84.705883%);fill-opacity:1;" d="M 50.070312 27.855469 C 51.5 27.785156 52.144531 28.355469 52.144531 29.5 C 52.214844 30.5 51.5 31 50.644531 31.070312 C 49.5 31.214844 48.855469 30.429688 48.785156 29.429688 C 48.714844 28.429688 49.429688 28 50.070312 27.855469 Z M 50.070312 27.855469 "/>
<path style=" stroke:none;fill-rule:nonzero;fill:rgb(88.627452%,88.235295%,88.235295%);fill-opacity:1;" d="M 53.070312 36.285156 C 53 37.144531 52.644531 37.855469 51.644531 37.929688 C 50.5 38 49.929688 37.429688 49.929688 36.285156 C 49.929688 35.285156 50.5 34.714844 51.355469 34.644531 C 52.429688 34.5 53 35.214844 53.070312 36.285156 Z M 53.070312 36.285156 "/>
<path style=" stroke:none;fill-rule:nonzero;fill:rgb(95.294118%,94.901961%,94.509804%);fill-opacity:1;" d="M 62.855469 55.355469 C 63.785156 55.570312 64.429688 56 64.285156 57 C 64.144531 58.144531 63.5 58.644531 62.355469 58.570312 C 61.285156 58.429688 61.070312 57.570312 61.144531 56.785156 C 61.214844 55.785156 61.855469 55.355469 62.855469 55.355469 Z M 62.855469 55.355469 "/>
<path style=" stroke:none;fill-rule:nonzero;fill:rgb(92.54902%,90.980393%,91.37255%);fill-opacity:1;" d="M 44.355469 51.5 C 43.355469 51.570312 42.785156 51.070312 42.714844 50.144531 C 42.570312 49.214844 43 48.429688 43.929688 48.355469 C 44.929688 48.285156 45.785156 48.644531 45.785156 49.929688 C 45.785156 50.929688 45.285156 51.429688 44.355469 51.5 Z M 44.355469 51.5 "/>
<path style=" stroke:none;fill-rule:nonzero;fill:rgb(92.941177%,91.37255%,91.37255%);fill-opacity:1;" d="M 40.785156 56.285156 C 40.785156 57.5 40.070312 57.929688 39 57.929688 C 38 57.929688 37.714844 57.144531 37.714844 56.285156 C 37.714844 55.285156 38.285156 54.855469 39.285156 54.929688 C 40.214844 54.855469 40.785156 55.285156 40.785156 56.285156 Z M 40.785156 56.285156 "/>
<path style=" stroke:none;fill-rule:nonzero;fill:rgb(87.058824%,85.490197%,85.490197%);fill-opacity:1;" d="M 55.570312 31.429688 C 55.570312 32.214844 55.214844 32.785156 54.429688 32.855469 C 53.5 33 52.855469 32.644531 52.785156 31.570312 C 52.785156 30.785156 53.070312 30.214844 53.855469 30.070312 C 54.855469 29.929688 55.355469 30.5 55.570312 31.429688 Z M 55.570312 31.429688 "/>
<path style=" stroke:none;fill-rule:nonzero;fill:rgb(80.000001%,79.215688%,79.215688%);fill-opacity:1;" d="M 55.144531 37.070312 C 55.929688 36.929688 56.5 37.214844 56.570312 38.144531 C 56.644531 39 56.429688 39.785156 55.355469 39.855469 C 54.570312 39.929688 53.929688 39.429688 53.785156 38.714844 C 53.644531 37.785156 54.070312 37.144531 55.144531 37.070312 Z M 55.144531 37.070312 "/>
<path style=" stroke:none;fill-rule:nonzero;fill:rgb(84.705883%,83.137256%,83.529413%);fill-opacity:1;" d="M 65.5 60.144531 C 66.355469 60.285156 66.929688 60.785156 66.929688 61.714844 C 66.929688 62.570312 66.355469 62.929688 65.570312 62.929688 C 64.785156 63 64.144531 62.714844 64.070312 61.855469 C 64.070312 61 64.570312 60.355469 65.5 60.144531 Z M 65.5 60.144531 "/>
<path style=" stroke:none;fill-rule:nonzero;fill:rgb(87.450981%,85.882354%,86.274511%);fill-opacity:1;" d="M 39 50.714844 C 40.144531 50.855469 40.714844 51.355469 40.570312 52.355469 C 40.429688 53.070312 39.929688 53.570312 39.070312 53.570312 C 38 53.570312 37.644531 52.855469 37.714844 51.929688 C 37.785156 51.070312 38.355469 50.714844 39 50.714844 Z M 39 50.714844 "/>
<path style=" stroke:none;fill-rule:nonzero;fill:rgb(87.450981%,85.882354%,86.274511%);fill-opacity:1;" d="M 35.144531 56.285156 C 35.144531 57.214844 34.785156 57.855469 33.714844 57.855469 C 32.929688 57.785156 32.355469 57.285156 32.355469 56.570312 C 32.355469 55.714844 32.855469 55.070312 33.855469 55 C 34.785156 55 35.070312 55.570312 35.144531 56.285156 Z M 35.144531 56.285156 "/>
<path style=" stroke:none;fill-rule:nonzero;fill:rgb(87.450981%,85.882354%,85.882354%);fill-opacity:1;" d="M 59 57.855469 C 59.855469 57.785156 60.355469 58.355469 60.5 59 C 60.570312 59.855469 60.144531 60.570312 59.144531 60.714844 C 58.285156 60.785156 57.855469 60.285156 57.785156 59.570312 C 57.644531 58.644531 57.855469 57.855469 59 57.855469 Z M 59 57.855469 "/>
<path style=" stroke:none;fill-rule:nonzero;fill:rgb(79.607844%,78.039217%,78.039217%);fill-opacity:1;" d="M 62.144531 61.5 C 62.855469 61.714844 63.5 62.144531 63.355469 63 C 63.214844 63.714844 62.644531 64.355469 61.855469 64.144531 C 61.355469 64 60.714844 63.644531 60.785156 62.929688 C 60.855469 62 61.355469 61.570312 62.144531 61.5 Z M 62.144531 61.5 "/>
<path style=" stroke:none;fill-rule:nonzero;fill:rgb(81.176472%,79.607844%,79.607844%);fill-opacity:1;" d="M 35.785156 52.785156 C 35.644531 53.714844 35.214844 54.214844 34.355469 54.144531 C 33.570312 54 33.214844 53.355469 33.355469 52.570312 C 33.429688 52 33.855469 51.429688 34.570312 51.570312 C 35.285156 51.644531 35.714844 52.144531 35.785156 52.785156 Z M 35.785156 52.785156 "/>
</g>
</svg>
