<?xml version="1.0" encoding="UTF-8"?>
<svg xmlns="http://www.w3.org/2000/svg" xmlns:xlink="http://www.w3.org/1999/xlink" width="100px" height="85px" viewBox="0 0 100 85" version="1.1">
<g id="surface1">
<path style=" stroke:none;fill-rule:nonzero;fill:rgb(0%,0%,0%);fill-opacity:1;" d="M 85.886719 11.164062 L 73.84375 17.320312 L 15.699219 47.023438 C 15.503906 45.519531 15.40625 44.003906 15.40625 42.488281 C 15.421875 30.171875 21.9375 18.785156 32.53125 12.558594 C 43.125 6.332031 56.210938 6.195312 66.933594 12.203125 L 73.824219 8.679688 L 74.851562 8.152344 C 61.980469 -1.21875 44.953125 -2.554688 30.78125 4.691406 C 16.609375 11.9375 7.691406 26.546875 7.691406 42.5 C 7.691406 43.582031 7.734375 44.65625 7.8125 45.730469 C 8.046875 48.835938 6.398438 51.777344 3.632812 53.1875 L 0 55.046875 L 0 63.71875 L 10.699219 58.246094 L 14.164062 56.472656 L 17.578125 54.730469 L 78.875 23.402344 L 85.761719 19.886719 L 100 12.609375 L 100 3.941406 Z M 85.886719 11.164062 "/>
<path style=" stroke:none;fill-rule:nonzero;fill:rgb(0%,0%,0%);fill-opacity:1;" d="M 100 21.28125 L 21.0625 61.597656 L 14.171875 65.121094 L 0 72.367188 L 0 81.027344 L 14.074219 73.835938 L 26.117188 67.679688 L 84.320312 37.933594 C 84.515625 39.449219 84.617188 40.972656 84.617188 42.5 C 84.609375 54.832031 78.085938 66.234375 67.476562 72.460938 C 56.867188 78.691406 43.761719 78.8125 33.039062 72.78125 L 32.617188 73.007812 L 25.144531 76.824219 C 38.015625 86.199219 55.039062 87.539062 69.207031 80.296875 C 83.378906 73.054688 92.304688 58.453125 92.308594 42.5 C 92.308594 41.410156 92.265625 40.320312 92.1875 39.242188 C 91.953125 36.136719 93.597656 33.195312 96.363281 31.78125 L 100 29.921875 Z M 100 21.28125 "/>
</g>
</svg>
