<?xml version="1.0" encoding="UTF-8"?>
<svg xmlns="http://www.w3.org/2000/svg" xmlns:xlink="http://www.w3.org/1999/xlink" width="100px" height="100px" viewBox="0 0 100 100" version="1.1">
<g id="surface1">
<path style=" stroke:none;fill-rule:evenodd;fill:rgb(0%,0%,0%);fill-opacity:1;" d="M 50 100 C 22.382812 100 0 77.617188 0 50 C 0 22.382812 22.382812 0 50 0 C 77.617188 0 100 22.382812 100 50 C 100 77.617188 77.617188 100 50 100 Z M 19.203125 37.355469 C 19.464844 39.542969 19.847656 41.726562 20.34375 43.898438 C 20.421875 44.242188 20.523438 44.550781 20.65625 44.835938 C 23.144531 50.210938 28.714844 53.464844 34.621094 53 C 40.523438 52.53125 45.515625 48.4375 47.125 42.738281 C 47.46875 41.503906 47.632812 40.183594 47.6875 38.507812 C 47.816406 31.722656 51.605469 25.535156 57.589844 22.328125 C 55.5 22.101562 53.398438 21.953125 51.292969 21.890625 C 44.671875 21.746094 38.066406 22.644531 31.726562 24.554688 C 27.203125 25.914062 22.851562 27.777344 18.75 30.117188 C 18.757812 32.488281 18.90625 34.898438 19.203125 37.355469 Z M 71.117188 64.105469 C 76.722656 55.460938 80.117188 45.574219 81.007812 35.308594 C 81.164062 33.527344 81.242188 31.800781 81.25 30.109375 C 79.867188 29.320312 78.453125 28.585938 77.011719 27.910156 C 74.628906 26.792969 72.671875 25.996094 70.738281 25.386719 C 68.273438 24.597656 65.636719 24.507812 63.121094 25.128906 C 55.824219 26.890625 51.179688 34.054688 52.554688 41.4375 C 53.316406 45.519531 55.480469 48.679688 59.035156 50.9375 C 59.28125 51.09375 59.53125 51.246094 59.78125 51.394531 C 62.609375 53.109375 64.925781 55.550781 66.492188 58.460938 C 68.007812 61.230469 68.792969 64.339844 68.769531 67.492188 C 69.589844 66.390625 70.375 65.257812 71.117188 64.105469 Z M 61.628906 75.585938 C 61.78125 75.4375 61.902344 75.265625 61.996094 75.078125 L 62.132812 74.804688 C 62.414062 74.253906 62.535156 74.023438 62.671875 73.734375 C 64.296875 70.34375 64.601562 66.902344 63.554688 63.398438 C 61.597656 56.757812 55.109375 52.511719 48.238281 53.382812 C 46.359375 53.617188 44.550781 54.222656 42.90625 55.164062 C 37.066406 58.523438 29.875 58.507812 24.050781 55.121094 C 27.117188 62.117188 31.417969 68.5 36.746094 73.96875 C 39.808594 77.113281 43.183594 79.929688 46.824219 82.378906 C 48.101562 83.238281 49.351562 84.015625 50.007812 84.375 C 54.203125 81.894531 58.101562 78.945312 61.632812 75.585938 Z M 61.628906 75.585938 "/>
</g>
</svg>
