<?xml version="1.0" encoding="UTF-8"?>
<svg xmlns="http://www.w3.org/2000/svg" xmlns:xlink="http://www.w3.org/1999/xlink" width="100px" height="100px" viewBox="0 0 100 100" version="1.1">
<g id="surface1">
<path style=" stroke:none;fill-rule:evenodd;fill:rgb(34.509805%,74.901962%,0%);fill-opacity:1;" d="M 100 50 C 100 77.613281 77.613281 100 50 100 C 22.386719 100 0 77.613281 0 50 C 0 22.386719 22.386719 0 50 0 C 77.613281 0 100 22.386719 100 50 Z M 100 50 "/>
<path style=" stroke:none;fill-rule:nonzero;fill:rgb(100%,100%,100%);fill-opacity:1;" d="M 78.125 70.5625 L 56.28125 60.382812 L 56.28125 37.820312 L 78.125 30.070312 Z M 46.320312 81.25 L 25 71.316406 L 25 31.117188 L 46.320312 41.054688 Z M 77.601562 28.617188 L 77.25 28.742188 L 56.28125 36.179688 L 55.757812 36.367188 L 46.871094 39.519531 L 25.839844 29.71875 L 55.757812 19.105469 L 56.019531 19.011719 L 56.570312 18.816406 L 56.765625 18.75 L 77.796875 28.550781 Z M 77.601562 28.617188 "/>
</g>
</svg>
