<?xml version="1.0" encoding="UTF-8"?>
<svg xmlns="http://www.w3.org/2000/svg" xmlns:xlink="http://www.w3.org/1999/xlink" width="100px" height="100px" viewBox="0 0 100 100" version="1.1">
<g id="surface1">
<path style=" stroke:none;fill-rule:nonzero;fill:rgb(0%,0%,0%);fill-opacity:1;" d="M 50 100 C 22.382812 100 0 77.617188 0 50 C 0 22.382812 22.382812 0 50 0 C 77.617188 0 100 22.382812 100 50 C 100 77.617188 77.617188 100 50 100 Z M 84.875 39.5625 L 84.875 32.6875 L 62.5 45.71875 L 48.6875 21.90625 L 48.6875 37.53125 L 55.71875 49.71875 L 52.875 51.40625 L 48.6875 44.03125 L 44.1875 52.03125 L 41.0625 50.75 L 48.6875 37.53125 L 48.6875 21.90625 L 33.5625 47.65625 L 12.5 38.9375 L 12.5 46.90625 L 31.25 51.53125 L 19.375 71.90625 L 48.6875 71.90625 L 48.6875 63.5 L 33.71875 63.5 L 39.3125 53.6875 L 42.6875 54.53125 L 39.3125 60.46875 L 58.0625 60.46875 L 55.25 55.5 L 58.96875 55.21875 L 63.75 63.5 L 48.6875 63.5 L 48.6875 71.90625 L 78.125 71.90625 L 68 54.625 L 85 53.375 L 85 46.46875 L 65.875 51.1875 L 84.96875 46.28125 L 84.96875 40.03125 L 64.25 48.4375 Z M 57.6875 53.15625 L 54.3125 54 L 57.625 53.15625 Z M 56.625 51.28125 L 53.5 52.53125 L 56.625 51.25 Z M 56.625 51.28125 "/>
</g>
</svg>
