<?xml version="1.0" encoding="UTF-8"?>
<svg xmlns="http://www.w3.org/2000/svg" xmlns:xlink="http://www.w3.org/1999/xlink" width="100px" height="100px" viewBox="0 0 100 100" version="1.1">
<g id="surface1">
<path style=" stroke:none;fill-rule:evenodd;fill:rgb(0%,0%,0%);fill-opacity:1;" d="M 50 100 C 22.382812 100 0 77.617188 0 50 C 0 22.382812 22.382812 0 50 0 C 77.617188 0 100 22.382812 100 50 C 100 77.617188 77.617188 100 50 100 Z M 46.054688 77.292969 C 47.625 80.484375 52.15625 80.484375 53.722656 77.292969 L 78.035156 27.765625 C 78.164062 27.515625 78.152344 27.210938 78.003906 26.972656 C 77.855469 26.730469 77.589844 26.585938 77.304688 26.589844 L 76.273438 26.589844 C 75.824219 26.589844 75.414062 26.839844 75.210938 27.234375 L 57.695312 62.773438 C 56.132812 65.960938 51.597656 65.960938 50.03125 62.773438 L 32.460938 27.207031 C 32.257812 26.808594 31.847656 26.5625 31.398438 26.5625 L 23.0625 26.5625 C 22.65625 26.566406 22.277344 26.777344 22.058594 27.121094 C 21.84375 27.46875 21.820312 27.902344 22 28.269531 Z M 46.054688 77.292969 "/>
</g>
</svg>
