<?xml version="1.0" encoding="UTF-8"?>
<svg xmlns="http://www.w3.org/2000/svg" xmlns:xlink="http://www.w3.org/1999/xlink" width="100px" height="100px" viewBox="0 0 100 100" version="1.1">
<g id="surface1">
<path style=" stroke:none;fill-rule:nonzero;fill:rgb(0%,0%,0%);fill-opacity:1;" d="M 27.167969 87.585938 C 24.824219 87.355469 21.078125 88.992188 19.4375 86.886719 C 18.03125 85.246094 18.96875 81.5 18.96875 78.6875 C 18.96875 74.707031 18.96875 74.707031 22.949219 74.707031 C 27.632812 74.707031 28.101562 74.238281 28.101562 69.554688 C 28.101562 58.3125 28.101562 46.839844 28.101562 35.597656 C 28.101562 31.851562 27.167969 30.914062 23.652344 30.914062 C 18.96875 30.914062 18.96875 30.914062 19.203125 26.464844 C 19.203125 23.886719 18.03125 20.609375 19.671875 18.96875 C 21.3125 17.5625 24.589844 18.5 26.933594 18.5 C 29.507812 18.5 32.085938 18.5 34.425781 18.5 C 36.066406 18.5 36.535156 18.03125 36.535156 16.394531 C 36.535156 14.285156 36.535156 12.179688 36.535156 9.835938 C 36.535156 8.429688 37.003906 7.960938 38.40625 7.960938 C 44.964844 7.726562 44.964844 7.726562 44.964844 14.050781 C 44.964844 18.5 44.964844 18.5 49.414062 18.5 C 53.863281 18.5 53.160156 18.734375 53.160156 14.519531 C 53.160156 14.285156 53.160156 14.050781 53.160156 14.050781 C 53.160156 7.261719 53.160156 7.261719 59.953125 7.960938 C 61.125 8.195312 61.59375 8.664062 61.59375 9.835938 C 61.59375 12.179688 61.59375 14.285156 61.59375 16.628906 C 61.359375 18.5 62.0625 19.203125 63.933594 19.90625 C 71.664062 22.484375 77.050781 27.402344 78.6875 35.832031 C 79.859375 41.921875 77.984375 47.074219 74.238281 51.757812 C 73.535156 52.691406 73.066406 53.160156 74.003906 54.332031 C 83.605469 64.871094 78.921875 81.265625 64.167969 86.183594 C 62.0625 86.886719 61.359375 87.820312 61.59375 89.929688 C 61.59375 90.632812 61.59375 91.335938 61.59375 91.804688 C 61.59375 98.359375 61.59375 98.359375 55.035156 98.125 C 53.394531 98.125 53.160156 97.425781 53.160156 96.019531 C 53.160156 93.910156 53.160156 91.804688 53.160156 89.460938 C 53.160156 88.054688 52.691406 87.585938 51.289062 87.585938 C 44.964844 87.355469 44.964844 87.355469 44.964844 93.675781 C 44.964844 97.890625 44.964844 97.890625 40.515625 97.890625 C 40.046875 97.890625 39.34375 97.890625 38.875 97.890625 C 36.769531 98.125 36.300781 97.191406 36.535156 95.316406 C 36.769531 93.675781 36.535156 92.039062 36.535156 90.632812 C 36.769531 88.289062 36.066406 87.355469 33.722656 87.585938 C 31.851562 87.585938 29.742188 87.585938 27.167969 87.585938 Z M 51.054688 59.015625 C 48.242188 59.015625 45.199219 59.015625 42.390625 59.015625 C 40.984375 59.015625 40.28125 59.25 40.515625 60.890625 C 40.515625 64.871094 40.515625 68.851562 40.515625 73.066406 C 40.515625 74.238281 40.75 74.941406 42.15625 74.941406 C 47.773438 74.941406 53.628906 75.175781 59.25 74.941406 C 63.699219 74.707031 66.746094 70.960938 66.511719 66.511719 C 66.277344 62.296875 63.230469 59.25 58.78125 59.25 C 56.207031 59.015625 53.628906 59.015625 51.054688 59.015625 Z M 50.585938 46.839844 C 53.160156 46.839844 55.738281 46.839844 58.3125 46.839844 C 62.996094 46.605469 66.277344 43.558594 66.277344 39.34375 C 66.277344 34.894531 63.230469 31.382812 58.546875 31.148438 C 53.160156 30.914062 47.539062 31.148438 41.921875 31.148438 C 40.515625 31.148438 40.046875 31.617188 40.28125 33.019531 C 40.28125 37.238281 40.28125 41.21875 40.28125 45.433594 C 40.28125 47.074219 40.984375 47.308594 42.390625 47.308594 C 45.199219 46.839844 47.773438 46.839844 50.585938 46.839844 Z M 50.585938 46.839844 "/>
</g>
</svg>
