<?xml version="1.0" encoding="UTF-8"?>
<svg xmlns="http://www.w3.org/2000/svg" xmlns:xlink="http://www.w3.org/1999/xlink" width="100px" height="100px" viewBox="0 0 100 100" version="1.1">
<g id="surface1">
<path style=" stroke:none;fill-rule:nonzero;fill:rgb(100%,100%,100%);fill-opacity:1;" d="M 100.714844 100.714844 C 67.355469 100.714844 34.070312 100.714844 0.785156 100.714844 C 0.714844 67.144531 0.714844 33.570312 0.714844 0 C 34.070312 0 67.355469 0 100.714844 0 C 100.714844 33.644531 100.714844 67.144531 100.714844 100.714844 Z M 50.855469 97.929688 C 76.929688 98 98.429688 77 98.570312 51.214844 C 98.714844 24.429688 77.855469 2.929688 51.5 2.855469 C 24.714844 2.785156 3.570312 23.714844 3.5 50.285156 C 3.429688 76.714844 24.429688 97.855469 50.855469 97.929688 Z M 50.855469 97.929688 "/>
<path style=" stroke:none;fill-rule:nonzero;fill:rgb(0%,0%,0%);fill-opacity:1;" d="M 50.855469 97.929688 C 24.429688 97.855469 3.429688 76.714844 3.5 50.285156 C 3.570312 23.714844 24.714844 2.785156 51.5 2.855469 C 77.855469 2.929688 98.714844 24.429688 98.570312 51.214844 C 98.429688 77 77 98 50.855469 97.929688 Z M 41.714844 28.070312 C 37.5 28.070312 33.855469 28.070312 30.144531 28.070312 C 30.070312 29.355469 29.929688 30.285156 29.929688 31.214844 C 29.929688 32.214844 30.070312 33.285156 30.070312 34.214844 C 37.285156 34.714844 37.285156 34.714844 37.214844 41.785156 C 37.214844 47.429688 37.214844 53 37.144531 58.570312 C 37.070312 64.714844 37.070312 64.714844 30.714844 65.570312 C 30.355469 67.644531 29.929688 69.785156 29.5 72.285156 C 33.570312 72.5 37.285156 72.714844 41.429688 72.929688 C 41.429688 76.285156 41.429688 79.285156 41.429688 82.355469 C 43.5 82.355469 45.285156 82.355469 47.070312 82.355469 C 47.214844 79.070312 47.355469 76.070312 47.5 72.855469 C 49.214844 72.929688 50.429688 73 52.144531 73.070312 C 52.144531 76.355469 52.144531 79.355469 52.144531 82.355469 C 54.285156 82.355469 56 82.355469 57.929688 82.355469 C 57.929688 79.144531 57.929688 76.144531 57.929688 72.929688 C 65.429688 71.570312 73.929688 71.714844 75.570312 61.714844 C 76.570312 55.570312 75 50.429688 68.144531 48.285156 C 76.785156 39.714844 73.070312 32.070312 58.5 27.785156 C 58.5 24.855469 58.5 21.855469 58.5 18.714844 C 56.285156 18.714844 54.5 18.714844 52.5 18.714844 C 52.355469 21.855469 52.214844 24.785156 52.070312 27.714844 C 50.5 27.714844 49.355469 27.714844 47.855469 27.714844 C 47.855469 24.644531 47.855469 21.714844 47.855469 18.785156 C 45.644531 18.785156 43.855469 18.785156 41.714844 18.785156 C 41.714844 21.855469 41.714844 24.714844 41.714844 28.070312 Z M 41.714844 28.070312 "/>
<path style=" stroke:none;fill-rule:nonzero;fill:rgb(100%,100%,100%);fill-opacity:1;" d="M 41.714844 28.070312 C 41.714844 24.714844 41.714844 21.855469 41.714844 18.785156 C 43.855469 18.785156 45.644531 18.785156 47.855469 18.785156 C 47.855469 21.714844 47.855469 24.644531 47.855469 27.714844 C 49.355469 27.714844 50.570312 27.714844 52.070312 27.714844 C 52.214844 24.855469 52.355469 21.929688 52.5 18.714844 C 54.429688 18.714844 56.285156 18.714844 58.5 18.714844 C 58.5 21.855469 58.5 24.929688 58.5 27.785156 C 73.070312 32 76.785156 39.714844 68.144531 48.285156 C 75 50.355469 76.570312 55.5 75.570312 61.714844 C 73.929688 71.714844 65.429688 71.570312 57.929688 72.929688 C 57.929688 76.144531 57.929688 79.070312 57.929688 82.355469 C 56 82.355469 54.285156 82.355469 52.144531 82.355469 C 52.144531 79.355469 52.144531 76.285156 52.144531 73.070312 C 50.5 73 49.214844 72.929688 47.5 72.855469 C 47.355469 76.070312 47.214844 79.070312 47.070312 82.355469 C 45.285156 82.355469 43.570312 82.355469 41.429688 82.355469 C 41.429688 79.285156 41.429688 76.285156 41.429688 72.929688 C 37.355469 72.714844 33.644531 72.5 29.5 72.285156 C 29.929688 69.785156 30.355469 67.644531 30.714844 65.570312 C 37.070312 64.714844 37.070312 64.714844 37.144531 58.570312 C 37.214844 53 37.214844 47.355469 37.285156 41.785156 C 37.355469 34.714844 37.355469 34.714844 30.144531 34.214844 C 30.070312 33.214844 30 32.214844 30 31.214844 C 30 30.285156 30.144531 29.355469 30.214844 28.070312 C 33.855469 28.070312 37.5 28.070312 41.714844 28.070312 Z M 48 52.285156 C 47.855469 54.285156 47.714844 55.355469 47.785156 56.429688 C 47.929688 59.429688 48.214844 62.429688 48.429688 65.429688 C 52.285156 65 56.144531 64.855469 60 64.144531 C 62.355469 63.714844 63.785156 61.929688 63.855469 59.285156 C 63.929688 56.429688 62.355469 54.644531 59.929688 54.070312 C 56.070312 53.214844 52.214844 52.929688 48 52.285156 Z M 48 46.785156 C 51.285156 46.429688 54.285156 46.214844 57.144531 45.714844 C 59.785156 45.214844 61.714844 43.285156 61.144531 40.714844 C 60.714844 38.855469 58.855469 36.714844 57.144531 36.070312 C 54.429688 35.070312 51.214844 35.214844 48 34.855469 C 48 39 48 42.5 48 46.785156 Z M 48 46.785156 "/>
<path style=" stroke:none;fill-rule:nonzero;fill:rgb(0%,0%,0%);fill-opacity:1;" d="M 48 52.285156 C 52.214844 52.855469 56.144531 53.214844 59.855469 54 C 62.355469 54.570312 63.855469 56.355469 63.785156 59.214844 C 63.714844 61.855469 62.285156 63.644531 59.929688 64.070312 C 56.144531 64.785156 52.214844 64.929688 48.355469 65.355469 C 48.144531 62.355469 47.855469 59.355469 47.714844 56.355469 C 47.714844 55.429688 47.855469 54.355469 48 52.285156 Z M 48 52.285156 "/>
<path style=" stroke:none;fill-rule:nonzero;fill:rgb(0%,0%,0%);fill-opacity:1;" d="M 48 46.785156 C 48 42.5 48 39 48 34.785156 C 51.214844 35.144531 54.429688 35 57.144531 36 C 58.855469 36.644531 60.714844 38.855469 61.144531 40.644531 C 61.714844 43.214844 59.714844 45.144531 57.144531 45.644531 C 54.285156 46.214844 51.285156 46.429688 48 46.785156 Z M 48 46.785156 "/>
</g>
</svg>
