<?xml version="1.0" encoding="UTF-8"?>
<svg xmlns="http://www.w3.org/2000/svg" xmlns:xlink="http://www.w3.org/1999/xlink" width="100px" height="100px" viewBox="0 0 100 100" version="1.1">
<g id="surface1">
<path style=" stroke:none;fill-rule:nonzero;fill:rgb(100%,100%,100%);fill-opacity:1;" d="M 0.714844 50.355469 C 0.714844 34.285156 0.714844 18.214844 0.644531 2.144531 C 0.644531 0.355469 1.070312 -0.0703125 2.855469 0 C 34.785156 0 66.644531 0 98.570312 0 C 100.355469 0 100.785156 0.429688 100.785156 2.214844 C 100.714844 34.355469 100.714844 66.5 100.785156 98.644531 C 100.785156 100.429688 100.355469 100.855469 98.570312 100.855469 C 66.644531 100.785156 34.785156 100.785156 2.855469 100.855469 C 1.070312 100.855469 0.644531 100.429688 0.644531 98.644531 C 0.714844 82.5 0.714844 66.429688 0.714844 50.355469 Z M 0.714844 50.355469 "/>
<path style=" stroke:none;fill-rule:nonzero;fill:rgb(9.019608%,9.019608%,9.019608%);fill-opacity:1;" d="M 98.214844 50.5 C 97.785156 77.855469 76.570312 98.429688 49.429688 98 C 23.070312 97.570312 2.355469 75.714844 2.855469 48.855469 C 3.355469 22.929688 25.355469 2.355469 52.070312 2.785156 C 77.5 3.285156 98.644531 25.070312 98.214844 50.5 Z M 98.214844 50.5 "/>
<path style=" stroke:none;fill-rule:nonzero;fill:rgb(99.607843%,99.607843%,99.607843%);fill-opacity:1;" d="M 77.5 75 C 73 75 69.570312 75 66.144531 75 C 65.285156 75 64.5 74.785156 63.855469 74.214844 C 58.144531 69.214844 52.429688 64.285156 45.855469 58.570312 C 50.855469 58.570312 54.855469 58.570312 58.785156 58.570312 C 65.070312 58.5 69.285156 54.785156 69.285156 49.355469 C 69.285156 43.785156 65.285156 40.144531 59 39.929688 C 54.785156 39.785156 52.714844 38.429688 46.355469 31.429688 C 53.355469 31.785156 59.855469 30.429688 66.144531 32.644531 C 73.070312 35.144531 76.929688 40.429688 77.644531 47.644531 C 78.355469 54.429688 75.570312 60.144531 69.785156 63.785156 C 66.855469 65.644531 67.644531 66.570312 69.644531 68.214844 C 72.070312 70.144531 74.355469 72.214844 77.5 75 Z M 77.5 75 "/>
<path style=" stroke:none;fill-rule:nonzero;fill:rgb(99.607843%,99.607843%,99.607843%);fill-opacity:1;" d="M 31.785156 41 C 28.285156 37.855469 25.144531 35.070312 21.429688 31.714844 C 28.214844 31.355469 34.070312 30.285156 39.070312 35.714844 C 42.855469 40 47.644531 43.429688 52.855469 48 C 47.644531 48 43.570312 47.929688 39.5 48 C 35.570312 48.144531 32.355469 49.644531 30.570312 53.355469 C 28.929688 56.644531 29.285156 59.785156 31.355469 62.785156 C 32.714844 64.714844 34.5 66.5 36.855469 66.285156 C 43.714844 65.714844 47.644531 70.285156 52.570312 75 C 44.855469 74.714844 37.785156 76.5 31.070312 73.285156 C 19.070312 67.570312 17.785156 50.570312 28.785156 42.929688 C 29.570312 42.355469 30.5 41.855469 31.785156 41 Z M 31.785156 41 "/>
</g>
</svg>
