<?xml version="1.0" encoding="UTF-8"?>
<svg xmlns="http://www.w3.org/2000/svg" xmlns:xlink="http://www.w3.org/1999/xlink" width="99px" height="79px" viewBox="0 0 99 79" version="1.1">
<g id="surface1">
<path style=" stroke:none;fill-rule:nonzero;fill:rgb(0%,0%,0%);fill-opacity:1;" d="M 11.347656 54.066406 L 17.425781 43.429688 L 23.507812 32.835938 L 29.550781 22.203125 L 30.554688 20.515625 L 30.996094 22.203125 L 32.851562 29.203125 L 30.773438 32.835938 L 24.695312 43.429688 L 18.652344 54.066406 L 25.917969 54.066406 L 32 43.429688 L 35.152344 37.925781 L 36.632812 43.429688 L 39.453125 54.066406 L 45.976562 54.066406 L 43.160156 43.429688 L 40.339844 32.835938 L 39.601562 30.101562 L 44.125 22.203125 L 37.523438 22.203125 L 37.300781 21.417969 L 35.003906 12.730469 L 34.707031 11.605469 L 28.363281 11.605469 L 28.21875 11.832031 L 22.285156 22.203125 L 16.203125 32.835938 L 10.160156 43.429688 L 4.078125 54.066406 Z M 11.347656 54.066406 "/>
</g>
</svg>
