<?xml version="1.0" encoding="UTF-8"?>
<svg xmlns="http://www.w3.org/2000/svg" xmlns:xlink="http://www.w3.org/1999/xlink" width="100px" height="86px" viewBox="0 0 100 86" version="1.1">
<defs>
<linearGradient id="linear0" gradientUnits="userSpaceOnUse" x1="0" y1="0.5" x2="0.699237" y2="0.5" gradientTransform="matrix(50,0,0,23.566406,0,23.566406)">
<stop offset="0" style="stop-color:rgb(100%,100%,100%);stop-opacity:0;"/>
<stop offset="1" style="stop-color:rgb(100%,100%,100%);stop-opacity:1;"/>
</linearGradient>
<linearGradient id="linear1" gradientUnits="userSpaceOnUse" x1="0.968343" y1="0.315784" x2="0.320565" y2="0.348029" gradientTransform="matrix(50,0,0,30.136719,50,14.898437)">
<stop offset="0" style="stop-color:rgb(99.215686%,46.27451%,99.215686%);stop-opacity:0;"/>
<stop offset="1" style="stop-color:rgb(100%,31.764707%,100%);stop-opacity:1;"/>
</linearGradient>
<linearGradient id="linear2" gradientUnits="userSpaceOnUse" x1="0.95948" y1="0.444308" x2="0.450289" y2="0.444308" gradientTransform="matrix(49.960938,0.000000000000006122,0.000000000000001619,-13.226563,50,47.128906)">
<stop offset="0" style="stop-color:rgb(32.549021%,0%,100%);stop-opacity:0;"/>
<stop offset="1" style="stop-color:rgb(61.56863%,43.137255%,100%);stop-opacity:1;"/>
</linearGradient>
<linearGradient id="linear3" gradientUnits="userSpaceOnUse" x1="0.969659" y1="0.354091" x2="0.441485" y2="0.423121" gradientTransform="matrix(50,0,0,21.515625,50,24.792969)">
<stop offset="0" style="stop-color:rgb(68.235296%,37.64706%,83.92157%);stop-opacity:0;"/>
<stop offset="1" style="stop-color:rgb(67.058825%,21.960784%,90.196079%);stop-opacity:1;"/>
</linearGradient>
</defs>
<g id="surface1">
<path style=" stroke:none;fill-rule:evenodd;fill:rgb(4.313726%,46.27451%,100%);fill-opacity:1;" d="M 50 57.519531 L 70.664062 57.519531 L 50.007812 21.707031 L 50.003906 21.710938 L 50.007812 0 L 90.496094 69.046875 L 50 69.046875 Z M 50 57.519531 "/>
<path style=" stroke:none;fill-rule:evenodd;fill:rgb(14.117648%,75.686276%,100%);fill-opacity:1;" d="M 50 57.519531 L 29.335938 57.519531 L 49.992188 21.707031 L 49.996094 21.710938 L 49.992188 0 L 9.503906 69.046875 L 50 69.046875 Z M 50 57.519531 "/>
<path style=" stroke:none;fill-rule:nonzero;fill:rgb(14.509805%,75.686276%,100%);fill-opacity:1;" d="M 21.074219 85.925781 L 21.074219 77.390625 C 21.558594 77.367188 22.765625 77.316406 23.710938 77.316406 C 25.789062 77.316406 26.636719 78.261719 26.636719 79.453125 C 26.636719 80.347656 26.289062 80.949219 25.640625 81.363281 L 25.640625 81.390625 C 26.277344 81.621094 26.886719 82.246094 26.886719 83.351562 C 26.886719 85.152344 25.46875 86 23.574219 86 C 22.742188 86 21.585938 85.976562 21.074219 85.925781 Z M 23.835938 82.480469 L 23.066406 82.480469 L 23.066406 84.085938 C 23.203125 84.125 23.363281 84.160156 23.738281 84.160156 C 24.507812 84.160156 24.894531 83.828125 24.894531 83.253906 C 24.894531 82.714844 24.484375 82.480469 23.835938 82.480469 Z M 23.6875 79.15625 C 23.4375 79.15625 23.289062 79.179688 23.066406 79.207031 L 23.066406 80.761719 L 23.726562 80.761719 C 24.234375 80.761719 24.644531 80.554688 24.644531 79.929688 C 24.644531 79.414062 24.171875 79.15625 23.6875 79.15625 Z M 37.046875 85.949219 L 37.046875 77.367188 L 42.210938 77.367188 L 42.210938 79.207031 L 39.039062 79.207031 L 39.039062 80.714844 L 41.839844 80.714844 L 41.839844 82.554688 L 39.039062 82.554688 L 39.039062 84.113281 L 42.335938 84.113281 L 42.335938 85.949219 Z M 51.378906 85.949219 L 55 77.367188 L 56.78125 77.367188 L 60.402344 85.949219 L 58.273438 85.949219 L 57.550781 84.148438 L 54.105469 84.148438 L 53.382812 85.949219 Z M 55.835938 79.878906 L 54.851562 82.308594 L 56.804688 82.308594 Z M 69.816406 85.949219 L 69.816406 77.367188 L 71.820312 77.367188 L 74.507812 80.984375 L 77.046875 77.367188 L 78.925781 77.367188 L 78.925781 85.949219 L 76.933594 85.949219 L 76.933594 80.480469 L 74.507812 83.828125 L 74.222656 83.828125 L 71.808594 80.519531 L 71.808594 85.949219 Z M 69.816406 85.949219 "/>
<path style=" stroke:none;fill-rule:evenodd;fill:rgb(22.352941%,100%,94.901961%);fill-opacity:1;" d="M 50 30.597656 L 50 53.3125 L 37.191406 53.335938 Z M 50 30.597656 "/>
<path style=" stroke:none;fill-rule:evenodd;fill:rgb(0%,88.627452%,76.078433%);fill-opacity:1;" d="M 50 30.597656 L 50 53.3125 L 62.808594 53.335938 Z M 50 30.597656 "/>
<path style=" stroke:none;fill-rule:evenodd;fill:url(#linear0);" d="M 0 23.566406 L 50 44.242188 L 50 47.132812 L 0 34.730469 Z M 0 23.566406 "/>
<path style=" stroke:none;fill-rule:evenodd;fill:url(#linear1);" d="M 100 14.898438 L 50 44.242188 L 50 45.035156 L 100 24.394531 Z M 100 14.898438 "/>
<path style=" stroke:none;fill-rule:evenodd;fill:url(#linear2);" d="M 99.960938 43.414062 L 50 47.128906 L 50 46.308594 L 99.960938 33.902344 Z M 99.960938 43.414062 "/>
<path style=" stroke:none;fill-rule:evenodd;fill:url(#linear3);" d="M 100 24.792969 L 50 45.082031 L 50 46.308594 L 100 33.492188 Z M 100 24.792969 "/>
</g>
</svg>
