<?xml version="1.0" encoding="UTF-8"?>
<svg xmlns="http://www.w3.org/2000/svg" xmlns:xlink="http://www.w3.org/1999/xlink" width="100px" height="100px" viewBox="0 0 100 100" version="1.1">
<g id="surface1">
<path style=" stroke:none;fill-rule:nonzero;fill:rgb(100%,100%,100%);fill-opacity:1;" d="M 0.46875 100.703125 C 0.46875 67.214844 0.46875 33.957031 0.46875 0.703125 C 33.722656 0.703125 67.214844 0.703125 100.46875 0.703125 C 100.46875 33.957031 100.46875 67.449219 100.46875 100.703125 C 67.214844 100.703125 33.957031 100.703125 0.46875 100.703125 Z M 45.667969 96.722656 C 61.125 74.707031 76.113281 53.394531 91.335938 31.617188 C 87.355469 29.039062 83.605469 26.230469 79.625 23.886719 C 77.75 22.714844 75.878906 21.546875 74.003906 21.078125 C 56.910156 16.863281 40.046875 12.878906 23.183594 8.898438 C 19.203125 7.960938 15.222656 7.027344 11.007812 6.089844 C 22.484375 36.535156 33.957031 66.511719 45.667969 96.722656 Z M 45.667969 96.722656 "/>
<path style=" stroke:none;fill-rule:nonzero;fill:rgb(0%,0%,0%);fill-opacity:1;" d="M 45.667969 96.722656 C 33.957031 66.511719 22.714844 36.535156 11.007812 6.089844 C 15.222656 7.027344 19.203125 7.960938 23.183594 8.898438 C 40.046875 12.878906 56.910156 16.863281 73.769531 21.078125 C 75.878906 21.546875 77.75 22.714844 79.390625 23.886719 C 83.371094 26.464844 87.121094 29.039062 91.101562 31.617188 C 76.113281 53.394531 60.890625 74.707031 45.667969 96.722656 Z M 50.117188 48.007812 C 57.609375 40.046875 64.871094 32.550781 72.597656 24.589844 C 54.332031 20.375 36.535156 16.160156 18.265625 11.710938 C 29.039062 24.121094 39.578125 36.066406 50.117188 48.007812 Z M 45.199219 85.480469 C 45.433594 84.542969 45.433594 84.308594 45.433594 83.839844 C 46.605469 73.066406 47.539062 62.527344 48.476562 51.757812 C 48.476562 50.820312 48.007812 49.882812 47.308594 49.179688 C 41.21875 41.921875 34.894531 34.894531 28.570312 27.867188 C 25.761719 24.121094 22.714844 20.609375 19.4375 17.097656 C 19.4375 17.097656 19.203125 17.332031 19.203125 17.332031 C 27.867188 39.8125 36.535156 62.296875 45.199219 85.480469 Z M 48.007812 86.886719 C 59.953125 69.789062 71.664062 53.160156 83.839844 35.832031 C 73.066406 40.75 62.761719 45.433594 52.691406 50.351562 C 51.992188 50.585938 51.289062 51.757812 51.289062 52.691406 C 50.117188 63.699219 49.179688 74.941406 48.007812 86.886719 Z M 75.175781 25.527344 C 68.851562 32.320312 62.527344 38.875 56.207031 45.199219 C 56.207031 45.433594 56.441406 45.433594 56.441406 45.667969 C 65.808594 41.21875 75.410156 37.003906 85.246094 32.320312 C 81.734375 29.976562 78.6875 27.867188 75.175781 25.527344 Z M 75.175781 25.527344 "/>
<path style=" stroke:none;fill-rule:nonzero;fill:rgb(100%,100%,100%);fill-opacity:1;" d="M 50.117188 48.007812 C 39.34375 35.832031 29.039062 24.121094 18.03125 11.476562 C 36.535156 15.925781 54.332031 20.140625 72.367188 24.355469 C 65.105469 32.550781 57.84375 40.28125 50.117188 48.007812 Z M 50.117188 48.007812 "/>
<path style=" stroke:none;fill-rule:nonzero;fill:rgb(100%,100%,100%);fill-opacity:1;" d="M 45.199219 85.480469 C 36.535156 62.296875 27.867188 39.8125 19.203125 17.097656 C 19.203125 17.097656 19.4375 16.863281 19.4375 16.863281 C 22.714844 20.375 25.761719 24.121094 29.039062 27.632812 C 35.363281 34.660156 41.453125 41.921875 47.773438 48.945312 C 48.476562 49.648438 48.945312 50.820312 48.945312 51.523438 C 48.007812 62.296875 46.839844 72.832031 45.902344 83.605469 C 45.667969 84.074219 45.433594 84.542969 45.199219 85.480469 Z M 45.199219 85.480469 "/>
<path style=" stroke:none;fill-rule:nonzero;fill:rgb(100%,100%,100%);fill-opacity:1;" d="M 48.007812 86.886719 C 49.179688 74.941406 50.117188 63.699219 51.289062 52.460938 C 51.289062 51.757812 51.992188 50.585938 52.691406 50.117188 C 62.761719 45.433594 72.832031 40.75 83.839844 35.597656 C 71.664062 52.925781 59.953125 69.789062 48.007812 86.886719 Z M 48.007812 86.886719 "/>
<path style=" stroke:none;fill-rule:nonzero;fill:rgb(100%,100%,100%);fill-opacity:1;" d="M 75.175781 25.527344 C 78.6875 27.867188 81.734375 29.976562 85.246094 32.320312 C 75.410156 37.003906 66.042969 41.21875 56.441406 45.667969 C 56.441406 45.433594 56.207031 45.433594 56.207031 45.199219 C 62.527344 38.640625 68.851562 32.085938 75.175781 25.527344 Z M 75.175781 25.527344 "/>
</g>
</svg>
