<?xml version="1.0" encoding="UTF-8"?>
<svg xmlns="http://www.w3.org/2000/svg" xmlns:xlink="http://www.w3.org/1999/xlink" width="100px" height="100px" viewBox="0 0 100 100" version="1.1">
<g id="surface1">
<path style=" stroke:none;fill-rule:nonzero;fill:rgb(100%,100%,100%);fill-opacity:1;" d="M 0.714844 50.355469 C 0.714844 34.285156 0.714844 18.214844 0.644531 2.144531 C 0.644531 0.355469 1.070312 -0.0703125 2.855469 0 C 34.785156 0 66.644531 0 98.570312 0 C 100.355469 0 100.785156 0.429688 100.785156 2.214844 C 100.714844 34.355469 100.714844 66.5 100.785156 98.644531 C 100.785156 100.429688 100.355469 100.855469 98.570312 100.855469 C 66.644531 100.785156 34.785156 100.785156 2.855469 100.855469 C 1.070312 100.855469 0.644531 100.429688 0.644531 98.644531 C 0.714844 82.5 0.714844 66.429688 0.714844 50.355469 Z M 0.714844 50.355469 "/>
<path style=" stroke:none;fill-rule:nonzero;fill:rgb(14.117648%,12.54902%,12.54902%);fill-opacity:1;" d="M 51 98 C 24.644531 98.070312 3.429688 77 3.429688 50.644531 C 3.355469 23.929688 24.355469 2.855469 51 2.785156 C 77.355469 2.714844 98.570312 23.855469 98.570312 50.214844 C 98.644531 76.785156 77.714844 97.855469 51 98 Z M 51 98 "/>
<path style=" stroke:none;fill-rule:nonzero;fill:rgb(98.431373%,97.647059%,97.647059%);fill-opacity:1;" d="M 28.855469 22.785156 C 31.785156 23.5 35.214844 24.285156 38.714844 25.070312 C 48.644531 27.5 58.5 29.855469 68.355469 32.355469 C 72.785156 33.5 75.785156 36.929688 79.429688 39.355469 C 81.144531 40.5 79.714844 42.070312 78.855469 43.355469 C 70.855469 54.929688 62.929688 66.429688 55 78 C 53.644531 79.929688 52.355469 82 50.929688 83.855469 C 49.285156 86 47.855469 85.855469 46.929688 83.285156 C 40.070312 64.214844 33.214844 45.214844 26.429688 26.144531 C 25.929688 24.5 25.429688 22.644531 28.855469 22.785156 Z M 28.855469 22.785156 "/>
<path style=" stroke:none;fill-rule:nonzero;fill:rgb(14.117648%,12.54902%,12.941177%);fill-opacity:1;" d="M 66.570312 35.785156 C 61.929688 40.644531 57.785156 45 53.644531 49.429688 C 52.714844 50.429688 52 50.929688 50.855469 49.570312 C 45 42.429688 39 35.429688 33.355469 27.714844 C 44.285156 30.285156 55.214844 33 66.570312 35.785156 Z M 66.570312 35.785156 "/>
<path style=" stroke:none;fill-rule:nonzero;fill:rgb(14.117648%,12.54902%,13.333334%);fill-opacity:1;" d="M 32.214844 33.644531 C 34.070312 33.429688 34.5 34.714844 35.214844 35.570312 C 39.714844 40.785156 44.070312 46.070312 48.644531 51.285156 C 50 52.855469 50.5 54.285156 50.214844 56.429688 C 49.355469 63 48.714844 69.570312 47.429688 76.214844 C 42.429688 62.070312 37.355469 48 32.214844 33.644531 Z M 32.214844 33.644531 "/>
<path style=" stroke:none;fill-rule:nonzero;fill:rgb(14.117648%,12.54902%,12.941177%);fill-opacity:1;" d="M 72.714844 45.785156 C 65.644531 56.070312 58.570312 66.285156 51.5 76.570312 C 51.285156 76.5 51.144531 76.429688 50.929688 76.355469 C 51.714844 69.5 52.429688 62.644531 53.214844 55.855469 C 53.355469 54.570312 53.929688 53.785156 55.214844 53.214844 C 60.929688 50.644531 66.570312 48 72.285156 45.355469 C 72.355469 45.5 72.570312 45.644531 72.714844 45.785156 Z M 72.714844 45.785156 "/>
<path style=" stroke:none;fill-rule:nonzero;fill:rgb(14.901961%,14.901961%,14.901961%);fill-opacity:1;" d="M 75.144531 40.785156 C 69.929688 43.214844 65.285156 45.355469 60.570312 47.5 C 60.429688 47.285156 60.285156 47.070312 60.070312 46.785156 C 62.855469 43.855469 65.644531 41 68.355469 38 C 69.355469 36.929688 70.144531 37.214844 71.070312 37.929688 C 72.214844 38.785156 73.429688 39.570312 75.144531 40.785156 Z M 75.144531 40.785156 "/>
</g>
</svg>
