<?xml version="1.0" encoding="UTF-8"?>
<svg xmlns="http://www.w3.org/2000/svg" xmlns:xlink="http://www.w3.org/1999/xlink" width="100px" height="100px" viewBox="0 0 100 100" version="1.1">
<g id="surface1">
<path style=" stroke:none;fill-rule:nonzero;fill:rgb(100%,100%,100%);fill-opacity:1;" d="M 0.46875 100.703125 C 0.46875 67.449219 0.46875 33.957031 0.46875 0.703125 C 33.722656 0.703125 67.214844 0.703125 100.46875 0.703125 C 100.46875 33.957031 100.46875 67.449219 100.46875 100.703125 C 67.214844 100.703125 33.957031 100.703125 0.46875 100.703125 Z M 50.585938 96.722656 C 75.878906 96.722656 96.488281 76.113281 96.488281 51.054688 C 96.488281 25.996094 75.644531 5.386719 50.820312 5.386719 C 25.527344 5.152344 4.917969 25.761719 4.917969 51.054688 C 5.152344 76.347656 25.527344 96.722656 50.585938 96.722656 Z M 50.585938 96.722656 "/>
<path style=" stroke:none;fill-rule:nonzero;fill:rgb(0%,0%,0%);fill-opacity:1;" d="M 50.585938 96.722656 C 25.292969 96.722656 4.917969 76.347656 4.917969 51.054688 C 4.917969 25.761719 25.527344 5.152344 50.820312 5.152344 C 75.878906 5.152344 96.488281 25.996094 96.488281 50.820312 C 96.722656 76.113281 75.878906 96.722656 50.585938 96.722656 Z M 50.820312 12.179688 C 29.273438 12.179688 11.710938 29.507812 11.710938 51.054688 C 11.710938 72.367188 29.273438 89.929688 50.585938 89.929688 C 71.898438 89.929688 89.460938 72.367188 89.460938 51.054688 C 89.695312 29.507812 72.367188 12.179688 50.820312 12.179688 Z M 50.820312 12.179688 "/>
<path style=" stroke:none;fill-rule:nonzero;fill:rgb(100%,100%,100%);fill-opacity:1;" d="M 50.820312 12.179688 C 72.367188 12.179688 89.695312 29.507812 89.695312 51.054688 C 89.695312 72.367188 72.132812 89.929688 50.820312 89.929688 C 29.507812 89.929688 11.710938 72.367188 11.710938 51.054688 C 11.710938 29.507812 29.273438 12.179688 50.820312 12.179688 Z M 69.789062 67.214844 C 60.890625 67.214844 52.226562 67.214844 43.089844 67.214844 C 51.054688 57.609375 58.3125 48.007812 66.277344 39.109375 C 70.023438 34.894531 70.257812 30.445312 69.789062 25.058594 C 64.636719 25.058594 59.25 25.058594 53.863281 25.058594 C 53.863281 22.25 53.863281 19.90625 53.863281 17.332031 C 51.757812 17.332031 49.882812 17.332031 47.773438 17.332031 C 47.773438 19.90625 47.773438 22.25 47.773438 25.058594 C 42.15625 25.058594 37.003906 25.058594 31.851562 25.058594 C 31.851562 28.335938 31.851562 31.148438 31.851562 34.425781 C 40.75 34.425781 49.179688 34.425781 58.3125 34.425781 C 57.378906 35.597656 56.675781 36.535156 55.972656 37.472656 C 48.242188 46.839844 40.515625 56.441406 32.785156 65.808594 C 32.320312 66.511719 31.617188 67.214844 31.617188 67.914062 C 31.382812 70.726562 31.617188 73.535156 31.617188 76.582031 C 37.238281 76.582031 42.390625 76.582031 48.007812 76.582031 C 48.007812 79.390625 48.007812 81.5 48.007812 83.839844 C 50.117188 83.839844 51.992188 83.839844 54.097656 83.839844 C 54.097656 81.265625 54.097656 78.921875 54.097656 76.347656 C 59.484375 76.347656 64.636719 76.347656 70.023438 76.347656 C 69.789062 73.535156 69.789062 70.726562 69.789062 67.214844 Z M 69.789062 67.214844 "/>
<path style=" stroke:none;fill-rule:nonzero;fill:rgb(0%,0%,0%);fill-opacity:1;" d="M 69.789062 67.214844 C 69.789062 70.492188 69.789062 73.300781 69.789062 76.582031 C 64.402344 76.582031 59.25 76.582031 53.863281 76.582031 C 53.863281 79.15625 53.863281 81.5 53.863281 84.074219 C 51.757812 84.074219 49.882812 84.074219 47.773438 84.074219 C 47.773438 81.96875 47.773438 79.625 47.773438 76.816406 C 42.15625 76.816406 37.003906 76.816406 31.382812 76.816406 C 31.382812 73.535156 31.382812 70.960938 31.382812 68.148438 C 31.382812 67.449219 32.085938 66.746094 32.550781 66.042969 C 40.28125 56.441406 48.007812 47.074219 55.738281 37.703125 C 56.441406 36.769531 57.144531 36.066406 58.078125 34.660156 C 48.945312 34.660156 40.28125 34.660156 31.617188 34.660156 C 31.617188 31.617188 31.617188 28.570312 31.617188 25.292969 C 36.769531 25.292969 42.15625 25.292969 47.539062 25.292969 C 47.539062 22.484375 47.539062 20.140625 47.539062 17.5625 C 49.648438 17.5625 51.523438 17.5625 53.628906 17.5625 C 53.628906 19.90625 53.628906 22.484375 53.628906 25.292969 C 59.25 25.292969 64.402344 25.292969 69.554688 25.292969 C 70.023438 30.445312 70.023438 34.894531 66.042969 39.34375 C 58.078125 48.242188 50.820312 57.84375 42.855469 67.449219 C 52.226562 67.214844 60.890625 67.214844 69.789062 67.214844 Z M 69.789062 67.214844 "/>
</g>
</svg>
