<?xml version="1.0" encoding="UTF-8"?>
<svg xmlns="http://www.w3.org/2000/svg" xmlns:xlink="http://www.w3.org/1999/xlink" width="100px" height="100px" viewBox="0 0 100 100" version="1.1">
<g id="surface1">
<path style=" stroke:none;fill-rule:nonzero;fill:rgb(29.019609%,56.470591%,88.627452%);fill-opacity:1;" d="M 100 50 C 100 77.613281 77.613281 100 50 100 C 22.386719 100 0 77.613281 0 50 C 0 22.386719 22.386719 0 50 0 C 77.613281 0 100 22.386719 100 50 Z M 100 50 "/>
<path style=" stroke:none;fill-rule:nonzero;fill:rgb(100%,100%,100%);fill-opacity:1;" d="M 77.96875 34.375 C 75.289062 34.375 73.023438 36.539062 73.023438 39.320312 C 73.023438 43.242188 72.402344 44.269531 68.070312 44.269531 L 67.660156 44.269531 C 65.144531 44.480469 63.214844 46.589844 63.226562 49.113281 L 63.226562 49.21875 C 63.226562 53.03125 62.507812 53.960938 58.28125 53.960938 C 58.074219 53.960938 57.867188 53.960938 57.765625 54.0625 C 55.289062 54.371094 53.335938 56.429688 53.335938 58.90625 C 53.335938 61.585938 55.496094 63.851562 58.28125 63.851562 C 60.859375 63.851562 63.023438 61.789062 63.125 59.320312 L 63.125 58.90625 C 63.125 55.402344 64.257812 54.0625 67.96875 53.960938 L 68.070312 53.960938 C 70.648438 53.960938 72.816406 51.898438 72.914062 49.320312 L 72.914062 49.007812 C 72.914062 45.402344 74.050781 44.0625 77.867188 44.0625 C 80.542969 44.0625 82.8125 41.898438 82.8125 39.117188 C 82.8125 36.539062 80.648438 34.375 77.96875 34.375 Z M 48.898438 44.269531 C 51.386719 44.492188 53.324219 46.519531 53.4375 49.011719 C 53.4375 51.792969 51.273438 53.960938 48.488281 53.960938 C 45.707031 53.960938 43.539062 51.691406 43.539062 49.011719 C 43.539062 45.507812 42.40625 44.167969 38.59375 44.167969 C 34.78125 44.167969 33.648438 45.507812 33.648438 49.117188 L 33.648438 49.425781 C 33.542969 51.898438 31.378906 53.957031 28.804688 53.957031 C 26.023438 53.957031 23.851562 51.691406 23.851562 49.011719 C 23.851562 46.433594 25.8125 44.371094 28.289062 44.167969 L 28.699219 44.167969 C 33.027344 44.167969 33.648438 43.242188 33.648438 39.324219 C 33.742188 36.660156 35.929688 34.550781 38.59375 34.550781 C 41.257812 34.550781 43.445312 36.660156 43.539062 39.324219 C 43.539062 43.242188 44.160156 44.269531 48.488281 44.269531 Z M 19.007812 63.851562 C 16.277344 63.851562 14.0625 61.636719 14.0625 58.90625 C 14.0625 56.175781 16.277344 53.960938 19.007812 53.960938 C 21.742188 53.960938 23.957031 56.175781 23.957031 58.90625 C 23.957031 61.636719 21.742188 63.851562 19.007812 63.851562 Z M 19.007812 63.851562 "/>
</g>
</svg>
