<?xml version="1.0" encoding="UTF-8"?>
<svg xmlns="http://www.w3.org/2000/svg" xmlns:xlink="http://www.w3.org/1999/xlink" width="100px" height="100px" viewBox="0 0 100 100" version="1.1">
<g id="surface1">
<path style=" stroke:none;fill-rule:evenodd;fill:rgb(0%,0%,0%);fill-opacity:1;" d="M 50 100 C 22.382812 100 0 77.617188 0 50 C 0 22.382812 22.382812 0 50 0 C 77.617188 0 100 22.382812 100 50 C 100 77.617188 77.617188 100 50 100 Z M 32.757812 52.800781 L 32.757812 75 L 53.222656 75 C 57.003906 75 60.273438 74.34375 63.039062 73.039062 C 65.804688 71.730469 68.0625 69.945312 69.816406 67.679688 C 71.566406 65.417969 72.867188 62.769531 73.722656 59.734375 C 74.574219 56.699219 75 53.453125 75 50 C 75.019531 46.710938 74.589844 43.4375 73.71875 40.265625 C 72.867188 37.234375 71.566406 34.582031 69.8125 32.320312 C 68.0625 30.054688 65.804688 28.269531 63.039062 26.960938 C 60.273438 25.65625 57 25 53.21875 25 L 32.753906 25 L 32.753906 45.65625 L 28.125 45.65625 L 28.125 52.800781 Z M 41.398438 45.660156 L 41.398438 32.144531 L 49.902344 32.144531 C 53.269531 32.144531 56.023438 32.597656 58.164062 33.507812 C 60.308594 34.417969 61.992188 35.679688 63.210938 37.289062 C 64.460938 38.96875 65.3125 40.90625 65.699219 42.960938 C 66.136719 45.132812 66.355469 47.476562 66.355469 50 C 66.371094 52.363281 66.152344 54.71875 65.699219 57.039062 C 65.261719 59.210938 64.433594 61.101562 63.210938 62.710938 C 61.992188 64.320312 60.304688 65.582031 58.164062 66.492188 C 56.023438 67.402344 53.269531 67.855469 49.902344 67.855469 L 41.398438 67.855469 L 41.398438 52.800781 L 54.882812 52.800781 L 54.882812 45.660156 Z M 41.398438 45.660156 "/>
</g>
</svg>
