<?xml version="1.0" encoding="UTF-8"?>
<svg xmlns="http://www.w3.org/2000/svg" xmlns:xlink="http://www.w3.org/1999/xlink" width="100px" height="100px" viewBox="0 0 100 100" version="1.1">
<g id="surface1">
<path style=" stroke:none;fill-rule:evenodd;fill:rgb(0%,0%,0%);fill-opacity:1;" d="M 50 100 C 22.382812 100 0 77.617188 0 50 C 0 22.382812 22.382812 0 50 0 C 77.617188 0 100 22.382812 100 50 C 100 77.617188 77.617188 100 50 100 Z M 47.175781 62.019531 C 48.8125 60.21875 50.394531 58.363281 51.917969 56.460938 C 55.816406 51.714844 59.6875 46.945312 63.523438 42.148438 C 64.734375 40.648438 66.550781 39.15625 66.851562 37.445312 C 67.460938 34.242188 67.054688 30.820312 67.054688 27.296875 L 54.84375 27.296875 L 54.84375 18.75 L 45.054688 18.75 L 45.054688 27.507812 L 33.851562 27.507812 L 33.851562 37.976562 L 52.726562 37.976562 C 51.007812 40.007812 49.496094 41.71875 47.980469 43.539062 C 44.082031 48.285156 40.214844 53.054688 36.375 57.851562 C 35.265625 59.351562 33.449219 60.84375 33.148438 62.554688 C 32.539062 65.757812 32.945312 69.179688 32.945312 72.597656 L 45.054688 72.597656 L 45.054688 81.25 L 55.246094 81.25 C 55.046875 78.257812 54.945312 75.480469 54.742188 72.492188 L 66.851562 72.492188 L 66.851562 62.023438 L 47.175781 62.023438 Z M 47.175781 62.019531 "/>
</g>
</svg>
