<?xml version="1.0" encoding="UTF-8"?>
<svg xmlns="http://www.w3.org/2000/svg" xmlns:xlink="http://www.w3.org/1999/xlink" width="100px" height="100px" viewBox="0 0 100 100" version="1.1">
<g id="surface1">
<path style=" stroke:none;fill-rule:nonzero;fill:rgb(0%,0%,0%);fill-opacity:1;" d="M 50 0 C 77.617188 0 100 22.382812 100 50 C 100 77.617188 77.617188 100 50 100 C 22.382812 100 0 77.617188 0 50 C 0 22.382812 22.382812 0 50 0 Z M 50.199219 12.5 C 29.390625 12.523438 12.523438 29.296875 12.5 50 C 12.5 64.292969 21.328125 75.792969 33.039062 76.757812 C 40.164062 77.34375 47.054688 74.820312 51.59375 72.589844 C 54.300781 71.484375 56.824219 69.964844 59.070312 68.089844 L 59.554688 67.6875 L 60.085938 67.21875 L 60.585938 66.757812 C 64.839844 62.753906 69.90625 55.539062 69.90625 43.945312 L 69.90625 42.664062 L 50.363281 29.332031 L 30.816406 42.667969 L 30.816406 43.941406 L 30.832031 45.085938 C 31.152344 56.015625 36.023438 62.882812 40.132812 66.757812 C 40.628906 67.226562 41.148438 67.683594 41.695312 68.125 C 43.476562 67.484375 45.257812 66.824219 46.992188 66.058594 C 42.554688 63.191406 36.117188 56.992188 35.695312 45.195312 L 50.363281 35.183594 L 65.027344 45.195312 L 64.972656 46.242188 C 64.367188 55.160156 60.230469 60.703125 56.597656 63.886719 L 56.128906 64.246094 L 56.101562 64.269531 L 55.9375 64.386719 C 54.398438 65.507812 43.894531 72.8125 33.441406 71.945312 C 26.410156 71.367188 20.699219 65.679688 18.429688 57.753906 C 19.660156 56.886719 20.296875 55.394531 20.074219 53.90625 C 19.847656 52.414062 18.800781 51.179688 17.367188 50.710938 L 17.367188 50 L 17.394531 48.75 C 17.550781 44.585938 18.515625 40.492188 20.238281 36.683594 C 24.589844 38.464844 29.585938 36.8125 32.019531 32.789062 C 33.738281 29.9375 33.828125 26.390625 32.257812 23.457031 C 32.148438 23.261719 32.03125 23.066406 31.914062 22.878906 C 39.238281 17.984375 48.222656 16.230469 56.851562 18.007812 C 65.46875 19.777344 73.015625 24.933594 77.796875 32.320312 C 75.609375 34.164062 74.804688 37.175781 75.796875 39.851562 C 76.789062 42.539062 79.351562 44.316406 82.214844 44.3125 L 82.53125 44.3125 L 82.71875 45.441406 C 82.9375 46.949219 83.054688 48.472656 83.0625 50.003906 C 83.0625 66.941406 69.507812 80.328125 50.132812 82.679688 C 34.632812 84.574219 24.695312 78.175781 24.695312 78.175781 C 30.496094 84.539062 38.601562 87.5 50.210938 87.5 C 70.867188 87.277344 87.5 70.554688 87.5 50 C 87.5 29.445312 70.867188 12.71875 50.199219 12.5 Z M 75.230469 56.230469 C 73.289062 56.230469 71.71875 57.792969 71.71875 59.726562 C 71.722656 61.65625 73.296875 63.222656 75.226562 63.214844 C 77.164062 63.214844 78.738281 61.652344 78.738281 59.726562 C 78.734375 57.789062 77.164062 56.226562 75.226562 56.230469 Z M 52.449219 56.71875 L 47.949219 56.71875 L 48.433594 59.085938 L 49.324219 57.898438 L 50.199219 62.339844 L 51.074219 57.902344 L 51.964844 59.085938 Z M 74.4375 57.832031 C 75.207031 57.511719 76.089844 57.6875 76.679688 58.273438 C 77.269531 58.855469 77.445312 59.734375 77.128906 60.5 C 76.753906 61.40625 75.792969 61.921875 74.832031 61.730469 C 73.871094 61.542969 73.175781 60.703125 73.171875 59.726562 C 73.171875 58.898438 73.671875 58.148438 74.4375 57.832031 Z M 17.445312 52.359375 C 18.082031 52.75 18.507812 53.402344 18.617188 54.136719 C 18.730469 54.875 18.507812 55.621094 18.019531 56.179688 C 17.742188 54.921875 17.550781 53.644531 17.445312 52.359375 Z M 50.21875 41.703125 C 50.21875 41.703125 47.84375 44.992188 47.84375 46.292969 L 47.84375 52.957031 L 47.273438 53.164062 C 45.972656 53.703125 44.835938 54.589844 44.007812 55.734375 L 56.390625 55.734375 L 56.015625 55.261719 C 55.101562 54.191406 53.910156 53.394531 52.570312 52.957031 L 52.570312 46.292969 L 52.539062 46.007812 C 52.269531 44.570312 50.21875 41.707031 50.21875 41.707031 Z M 78.574219 33.570312 C 80.269531 36.460938 81.507812 39.59375 82.242188 42.859375 L 82.210938 42.859375 L 81.742188 42.839844 C 79.707031 42.667969 77.945312 41.355469 77.195312 39.453125 C 76.390625 37.394531 76.9375 35.054688 78.570312 33.570312 Z M 30.71875 23.71875 C 30.792969 23.851562 30.894531 23.992188 30.96875 24.132812 L 31.226562 24.664062 C 32.511719 27.554688 31.972656 30.925781 29.851562 33.273438 C 27.582031 35.785156 23.988281 36.621094 20.84375 35.367188 C 23.175781 30.765625 26.558594 26.773438 30.71875 23.71875 Z M 30.71875 23.71875 "/>
</g>
</svg>
