<?xml version="1.0" encoding="UTF-8"?>
<svg xmlns="http://www.w3.org/2000/svg" xmlns:xlink="http://www.w3.org/1999/xlink" width="100px" height="100px" viewBox="0 0 100 100" version="1.1">
<g id="surface1">
<path style=" stroke:none;fill-rule:evenodd;fill:rgb(0%,0%,0%);fill-opacity:1;" d="M 75.550781 53.699219 L 49.394531 69.894531 L 21.933594 56.175781 L 21.933594 48.113281 L 50.945312 29.96875 L 76.929688 42.644531 L 76.929688 43.777344 L 49.390625 60.890625 L 28.300781 50.433594 L 26.914062 53.234375 L 49.558594 64.460938 L 80.054688 45.515625 L 80.054688 40.691406 L 50.757812 26.398438 L 18.8125 46.382812 L 18.8125 58.105469 L 49.558594 73.46875 L 77.285156 56.304688 L 76.613281 58.996094 L 79.644531 59.753906 L 81.585938 51.988281 L 73.820312 50.046875 L 73.0625 53.078125 Z M 50 100 C 22.382812 100 0 77.617188 0 50 C 0 22.382812 22.382812 0 50 0 C 77.617188 0 100 22.382812 100 50 C 100 77.617188 77.617188 100 50 100 Z M 50 100 "/>
</g>
</svg>
