<?xml version="1.0" encoding="UTF-8"?>
<svg xmlns="http://www.w3.org/2000/svg" xmlns:xlink="http://www.w3.org/1999/xlink" width="100px" height="100px" viewBox="0 0 100 100" version="1.1">
<g id="surface1">
<path style=" stroke:none;fill-rule:nonzero;fill:rgb(19.607843%,64.313728%,74.509805%);fill-opacity:1;" d="M 100 50 C 100 77.613281 77.613281 100 50 100 C 22.386719 100 0 77.613281 0 50 C 0 22.386719 22.386719 0 50 0 C 77.613281 0 100 22.386719 100 50 Z M 100 50 "/>
<path style=" stroke:none;fill-rule:evenodd;fill:rgb(100%,100%,100%);fill-opacity:1;" d="M 78.125 75.679688 L 31.179688 29.753906 C 36.378906 24.679688 43.359375 21.851562 50.625 21.875 C 65.8125 21.875 78.125 33.917969 78.125 48.777344 Z M 21.875 24.320312 L 68.820312 70.246094 C 63.621094 75.320312 56.640625 78.148438 49.375 78.125 C 34.1875 78.125 21.875 66.082031 21.875 51.222656 Z M 21.875 24.320312 "/>
</g>
</svg>
