<?xml version="1.0" encoding="UTF-8"?>
<svg xmlns="http://www.w3.org/2000/svg" xmlns:xlink="http://www.w3.org/1999/xlink" width="100px" height="100px" viewBox="0 0 100 100" version="1.1">
<g id="surface1">
<path style=" stroke:none;fill-rule:nonzero;fill:rgb(0%,0%,0%);fill-opacity:1;" d="M 50 0 C 77.617188 0 100 22.382812 100 50 C 100 77.617188 77.617188 100 50 100 C 22.382812 100 0 77.617188 0 50 C 0 22.382812 22.382812 0 50 0 Z M 54.195312 50.234375 L 53.703125 55.453125 C 59.820312 60.320312 60.644531 63.9375 59.707031 68.757812 C 57.585938 76.226562 51.109375 77.007812 48.351562 76.535156 C 45.195312 75.957031 43.871094 75.792969 41.148438 72.59375 C 38.460938 69.171875 38.101562 64.46875 40.238281 60.679688 L 40.273438 60.617188 L 41.65625 67.179688 L 45.625 66.390625 L 43.03125 52.566406 L 29.6875 55.726562 L 30.757812 60.039062 L 36.222656 58.976562 L 36.167969 59.101562 C 35.933594 59.679688 34.980469 62.097656 34.695312 63.984375 C 32.859375 75.507812 42.613281 80.726562 46.664062 81.003906 C 54.707031 81.589844 59.375 78.117188 61.800781 74.429688 C 66.300781 67.054688 64.054688 61.601562 62.746094 58.824219 C 61.039062 55.332031 54.195312 50.234375 54.195312 50.234375 Z M 51.820312 30.484375 L 47.527344 30.484375 L 47.527344 69.875 L 51.820312 69.875 L 51.820312 30.480469 Z M 51.726562 18.777344 C 43.664062 18.398438 39.089844 21.996094 36.773438 25.746094 C 32.460938 33.246094 34.851562 38.632812 36.242188 41.363281 C 38.039062 44.808594 45.023438 49.726562 45.023438 49.726562 L 45.367188 44.496094 C 39.117188 39.800781 38.199219 36.210938 39.015625 31.363281 C 40.9375 23.835938 47.386719 22.898438 50.164062 23.292969 C 53.316406 23.789062 54.648438 23.917969 57.460938 27.042969 C 60.242188 30.390625 60.726562 35.085938 58.691406 38.929688 L 58.65625 38.992188 L 57.101562 32.480469 L 53.164062 33.367188 L 56.117188 47.117188 L 69.367188 43.605469 L 68.179688 39.320312 L 62.742188 40.527344 C 62.742188 40.527344 63.871094 37.640625 64.136719 35.472656 C 65.671875 23.898438 55.773438 18.945312 51.726562 18.777344 Z M 51.726562 18.777344 "/>
</g>
</svg>
