<?xml version="1.0" encoding="UTF-8"?>
<svg xmlns="http://www.w3.org/2000/svg" xmlns:xlink="http://www.w3.org/1999/xlink" width="100px" height="100px" viewBox="0 0 100 100" version="1.1">
<g id="surface1">
<path style=" stroke:none;fill-rule:nonzero;fill:rgb(0%,0%,0%);fill-opacity:1;" d="M 50 0 C 77.617188 0 100 22.382812 100 50 C 100 77.617188 77.617188 100 50 100 C 22.382812 100 0 77.617188 0 50 C -0.015625 34.535156 7.140625 19.9375 19.371094 10.476562 L 19.664062 10.835938 L 20.445312 11.789062 C 31.519531 25.351562 37.242188 32.394531 37.617188 32.910156 C 38.242188 33.777344 38.007812 34.554688 36.933594 35.167969 C 36.335938 35.507812 35.105469 35.851562 34.492188 35.851562 C 33.796875 35.851562 33.011719 35.519531 32.441406 34.976562 C 32.289062 34.816406 32.148438 34.640625 32.023438 34.457031 L 31.753906 34.085938 C 30.910156 32.882812 29.316406 30.460938 26.648438 26.328125 C 24.890625 23.570312 23.105469 20.828125 21.300781 18.101562 L 21.261719 18.070312 C 21.257812 18.070312 21.257812 18.082031 21.273438 18.117188 L 21.375 18.320312 C 21.695312 18.9375 22.839844 20.980469 26.355469 27.273438 C 29.625 33.125 30.730469 35.191406 30.730469 35.46875 C 30.730469 36.03125 30.574219 36.324219 29.882812 37.101562 C 28.726562 38.390625 28.210938 39.839844 27.835938 42.839844 C 27.414062 46.207031 26.242188 48.582031 22.976562 52.648438 C 21.070312 55.027344 20.757812 55.464844 20.273438 56.425781 C 19.667969 57.632812 19.503906 58.308594 19.433594 59.835938 C 19.363281 61.445312 19.503906 62.492188 19.996094 64.03125 C 20.429688 65.382812 20.878906 66.273438 22.027344 68.054688 C 23.023438 69.597656 23.59375 70.742188 23.59375 71.1875 C 23.59375 71.542969 23.664062 71.542969 25.203125 71.195312 C 28.886719 70.367188 31.878906 68.898438 33.5625 67.105469 C 34.601562 65.996094 34.847656 65.382812 34.855469 63.863281 C 34.859375 62.867188 34.824219 62.660156 34.554688 62.085938 C 34.117188 61.15625 33.320312 60.382812 31.566406 59.179688 C 29.261719 57.605469 28.28125 56.335938 28.007812 54.597656 C 27.785156 53.167969 28.042969 52.160156 29.320312 49.492188 C 30.632812 46.726562 30.960938 45.554688 31.183594 42.769531 C 31.324219 40.96875 31.523438 40.257812 32.039062 39.691406 C 32.578125 39.097656 33.066406 38.894531 34.398438 38.710938 C 36.574219 38.414062 37.960938 37.851562 39.097656 36.804688 C 40.085938 35.894531 40.496094 35.015625 40.558594 33.695312 L 40.609375 32.695312 L 40.054688 32.054688 L 39.992188 31.976562 C 38.957031 30.789062 32.410156 23.570312 20.355469 10.316406 L 20.039062 9.96875 C 28.679688 3.480469 39.195312 -0.015625 50 0 Z M 50.148438 64.75 C 48.730469 64.386719 46.179688 64.289062 44.644531 64.539062 C 41.085938 65.117188 37.179688 66.996094 34.039062 69.648438 L 33.105469 70.4375 L 33.929688 70.5625 C 38.210938 71.234375 39.367188 71.828125 42.339844 74.890625 C 44.050781 76.652344 44.628906 77.046875 46.046875 77.40625 C 48.132812 77.9375 50.1875 76.960938 50.890625 75.101562 C 51.207031 74.273438 51.164062 72.894531 50.804688 72.203125 C 49.945312 70.558594 47.441406 70.027344 46.230469 71.234375 C 45.222656 72.234375 45.515625 73.746094 46.769531 74.007812 C 47.054688 74.070312 47.050781 74.054688 46.695312 73.898438 C 46.148438 73.648438 45.910156 73.304688 45.90625 72.757812 C 45.898438 71.476562 47.367188 70.753906 48.734375 71.367188 C 49.734375 71.820312 50.132812 72.410156 50.132812 73.445312 C 50.140625 74.195312 49.824219 74.914062 49.257812 75.410156 C 48.695312 75.910156 47.945312 76.140625 47.199219 76.039062 C 46.273438 75.894531 45.421875 75.449219 44.773438 74.773438 C 43.382812 73.195312 43.921875 70.714844 45.867188 69.761719 C 47.34375 69.039062 49.308594 69.214844 50.835938 70.214844 C 52.585938 71.363281 53.332031 72.410156 54.839844 75.851562 C 55.332031 76.972656 55.964844 78.230469 56.246094 78.652344 C 57.671875 80.792969 59.382812 81.839844 61.445312 81.839844 C 62.585938 81.839844 63.441406 81.632812 64.519531 81.097656 C 65.320312 80.695312 66.449219 79.941406 66.367188 79.855469 C 66.113281 79.902344 65.867188 79.976562 65.632812 80.085938 C 63.382812 80.960938 61.089844 80.902344 59.761719 79.929688 C 58.925781 79.320312 58.25 78.097656 57.902344 76.570312 C 57.742188 75.710938 57.59375 74.84375 57.460938 73.976562 C 57 71.035156 56.554688 69.710938 55.523438 68.191406 C 54.460938 66.636719 52.429688 65.332031 50.148438 64.75 Z M 65.28125 49.265625 C 65.21875 49.265625 65.113281 49.457031 65.046875 49.6875 C 64.429688 51.867188 64.6875 54.195312 65.8125 56.613281 L 66.015625 57.035156 C 66.535156 58.074219 67.210938 59.148438 69.234375 62.179688 C 71.207031 65.140625 72.183594 66.890625 72.664062 68.324219 C 73.445312 70.667969 73.328125 72.773438 72.292969 74.9375 C 72.046875 75.449219 71.882812 75.867188 71.929688 75.867188 C 71.972656 75.867188 72.375 75.664062 72.828125 75.417969 C 75.902344 73.75 78.0625 70.886719 78.992188 67.242188 C 79.285156 66.085938 79.398438 63.328125 79.203125 62.179688 C 78.851562 60.15625 78.128906 58.492188 76.953125 57.035156 C 75.617188 55.367188 73.648438 53.910156 70.195312 52.027344 C 67.429688 50.523438 66.390625 49.933594 65.871094 49.585938 C 65.691406 49.449219 65.492188 49.34375 65.28125 49.265625 Z M 22.351562 59.695312 C 22.351562 59.078125 23.460938 58.851562 24.171875 59.328125 C 24.929688 59.828125 25.167969 60.859375 24.714844 61.660156 C 24.285156 62.425781 23.457031 62.679688 22.871094 62.222656 C 22.511719 61.9375 22.488281 61.519531 22.804688 61.042969 C 23.117188 60.574219 23.085938 60.347656 22.6875 60.144531 C 22.453125 60.023438 22.351562 59.882812 22.351562 59.695312 Z M 61.3125 47.289062 L 61.527344 47.9375 C 61.699219 48.523438 61.835938 49.121094 61.933594 49.726562 C 62.613281 53.757812 60.496094 57.015625 56.378906 58.277344 C 55.941406 58.414062 54.226562 58.746094 52.566406 59.023438 C 49.195312 59.585938 47.695312 59.980469 46.1875 60.710938 C 45.117188 61.226562 43.820312 61.996094 43.898438 62.074219 C 44.085938 62.066406 44.269531 62.019531 44.441406 61.945312 C 46.34375 61.273438 48.460938 60.929688 51.679688 60.761719 C 52.957031 60.695312 54.410156 60.589844 54.90625 60.527344 C 57.773438 60.164062 59.757812 59.296875 61.304688 57.722656 C 62.164062 56.847656 62.679688 56.035156 63.085938 54.882812 C 63.351562 54.152344 63.386719 53.882812 63.390625 52.589844 C 63.390625 51.273438 63.359375 51.035156 63.078125 50.226562 C 62.703125 49.164062 62.265625 48.367188 61.710938 47.742188 L 61.3125 47.292969 Z M 56.492188 35.628906 C 56.460938 35.628906 56.433594 36.226562 56.433594 36.960938 C 56.433594 41.949219 59.414062 44.90625 67.871094 48.3125 C 73.507812 50.578125 75.808594 51.75 77.527344 53.226562 C 79.035156 54.523438 79.933594 56.253906 80.019531 58.027344 C 80.035156 58.363281 80.097656 58.601562 80.160156 58.585938 C 80.390625 58.507812 81.253906 56.574219 81.539062 55.5 C 81.898438 54.140625 82.023438 51.5625 81.804688 50.1875 C 81.042969 45.457031 77.851562 41.980469 72.6875 40.269531 C 71.0625 39.730469 69.300781 39.363281 66.171875 38.902344 C 60.855469 38.128906 58.933594 37.539062 57.21875 36.164062 C 56.988281 35.96875 56.746094 35.789062 56.492188 35.628906 Z M 44.601562 39.488281 C 43.972656 39.164062 42.632812 39.039062 41.980469 39.238281 C 40.960938 39.550781 39.96875 40.632812 39.660156 41.769531 C 39.472656 42.460938 39.578125 43.675781 39.859375 44.050781 C 40.3125 44.65625 40.753906 44.816406 41.941406 44.804688 C 44.265625 44.789062 46.285156 43.792969 46.523438 42.546875 C 46.714844 41.523438 45.824219 40.109375 44.601562 39.484375 Z M 41.375 40.90625 C 41.375 39.808594 43.132812 39.21875 44.289062 39.929688 C 44.898438 40.304688 45.058594 40.851562 44.695312 41.363281 C 44.453125 41.710938 43.6875 42.050781 43.128906 42.050781 C 42.289062 42.050781 41.375 41.449219 41.375 40.90625 Z M 41.820312 18.160156 C 40.507812 17.847656 38.609375 17.679688 37.804688 17.804688 C 37.386719 17.867188 37.425781 17.882812 38.316406 18.023438 C 41.566406 18.527344 44.101562 19.816406 46.683594 22.273438 C 47.820312 23.351562 48.960938 24.691406 50.808594 27.117188 C 54.972656 32.574219 56.738281 34.097656 60.242188 35.242188 C 62.296875 35.910156 64.375 36.222656 68.042969 36.414062 C 72.105469 36.632812 73.636719 36.957031 75.089844 37.914062 C 75.894531 38.445312 76.523438 39.109375 77.148438 40.078125 L 77.511719 40.640625 L 77.433594 40.023438 C 77.144531 37.648438 75.445312 34.304688 73.285156 31.855469 L 72.890625 31.410156 L 72.691406 32.304688 C 72.191406 34.566406 71.109375 36.1875 70.101562 36.191406 C 69.605469 36.1875 69.15625 35.902344 68.941406 35.453125 C 68.71875 34.921875 68.738281 34.726562 69.066406 34.109375 C 69.675781 32.96875 69.824219 31.445312 69.523438 29.453125 C 69.441406 28.878906 69.3125 28.335938 69.242188 28.257812 C 69.023438 27.992188 67.269531 26.96875 66.15625 26.457031 C 62.117188 24.585938 57.28125 23.980469 52.53125 24.746094 L 51.40625 24.929688 L 50.617188 24.050781 C 47.648438 20.746094 44.871094 18.886719 41.820312 18.160156 Z M 71.191406 19.054688 C 71.164062 19.054688 71 19.375 70.824219 19.761719 C 70.382812 20.742188 70.164062 21.8125 70.070312 23.4375 C 70.007812 24.484375 69.949219 24.84375 69.828125 24.886719 C 69.644531 24.960938 69.398438 24.882812 67.890625 24.304688 C 66.882812 23.914062 64.367188 23.179688 64.296875 23.257812 C 64.277344 23.273438 64.804688 23.53125 65.464844 23.824219 C 66.128906 24.117188 67.203125 24.675781 67.851562 25.0625 C 70.429688 26.585938 70.867188 27.476562 70.871094 31.175781 C 70.871094 33.019531 70.851562 33.257812 70.621094 33.816406 C 70.316406 34.5625 70.371094 34.703125 70.707031 34.042969 C 71.332031 32.824219 71.59375 31.601562 71.632812 29.699219 C 71.652344 28.480469 71.691406 28.222656 71.863281 28.050781 C 72.050781 27.863281 72.097656 27.863281 72.398438 28.019531 C 72.851562 28.25 74.898438 29.882812 75.792969 30.714844 L 76.523438 31.398438 L 75.792969 30.445312 C 75.394531 29.914062 74.289062 28.695312 73.335938 27.71875 C 71.308594 25.648438 71.148438 25.371094 70.867188 23.453125 C 70.648438 21.941406 70.695312 20.640625 71.023438 19.695312 C 71.105469 19.488281 71.164062 19.277344 71.191406 19.054688 Z M 37.433594 19.710938 L 37.359375 20.597656 C 37.117188 23.453125 38.238281 27.273438 40.046875 29.765625 C 41.453125 31.695312 43.625 33.195312 45.234375 33.34375 C 46.285156 33.4375 46.601562 33.109375 46.125 32.414062 C 45.460938 31.449219 44.648438 29.964844 44.4375 29.328125 C 44.1875 28.472656 43.972656 27.605469 43.789062 26.734375 C 43.039062 23.21875 42.292969 21.847656 40.582031 20.804688 C 39.722656 20.339844 38.800781 19.996094 37.847656 19.789062 Z M 37.433594 19.710938 "/>
</g>
</svg>
