<?xml version="1.0" encoding="UTF-8"?>
<svg xmlns="http://www.w3.org/2000/svg" xmlns:xlink="http://www.w3.org/1999/xlink" width="99px" height="96px" viewBox="0 0 99 96" version="1.1">
<g id="surface1">
<path style=" stroke:none;fill-rule:nonzero;fill:rgb(0%,0%,0%);fill-opacity:1;" d="M 93.71875 38.351562 C 93.097656 35.328125 92.195312 32.398438 91.003906 29.566406 C 89.863281 26.785156 88.386719 24.144531 86.71875 21.601562 C 85.054688 19.105469 83.152344 16.800781 81.054688 14.6875 C 78.960938 12.574219 76.675781 10.65625 74.203125 8.976562 C 71.726562 7.296875 69.0625 5.855469 66.300781 4.65625 C 63.492188 3.457031 60.589844 2.542969 57.589844 1.921875 C 54.546875 1.296875 51.402344 0.960938 48.261719 0.960938 C 45.121094 0.960938 41.980469 1.296875 38.933594 1.921875 C 35.933594 2.542969 33.03125 3.457031 30.222656 4.65625 C 27.464844 5.808594 24.84375 7.296875 22.324219 8.976562 C 19.847656 10.65625 17.5625 12.574219 15.46875 14.6875 C 13.375 16.800781 11.46875 19.105469 9.804688 21.601562 C 8.140625 24.097656 6.710938 26.785156 5.519531 29.566406 C 4.332031 32.398438 3.425781 35.328125 2.808594 38.351562 C 2.1875 41.425781 1.855469 44.59375 1.855469 47.761719 C 1.855469 50.929688 2.1875 54.097656 2.808594 57.167969 C 3.425781 60.191406 4.332031 63.121094 5.519531 65.953125 C 6.664062 68.734375 8.140625 71.375 9.804688 73.921875 C 11.46875 76.414062 13.375 78.71875 15.46875 80.832031 C 17.5625 82.945312 19.847656 84.863281 22.324219 86.542969 C 24.796875 88.222656 27.464844 89.664062 30.222656 90.863281 C 33.03125 92.0625 35.933594 92.976562 38.933594 93.601562 C 41.980469 94.222656 45.121094 94.558594 48.261719 94.558594 C 51.402344 94.558594 54.546875 94.222656 57.589844 93.601562 C 60.589844 92.976562 63.492188 92.0625 66.300781 90.863281 C 69.0625 89.710938 71.679688 88.222656 74.203125 86.542969 C 76.675781 84.863281 78.960938 82.945312 81.054688 80.832031 C 83.152344 78.71875 85.054688 76.414062 86.71875 73.921875 C 88.386719 71.425781 89.8125 68.734375 91.003906 65.953125 C 92.195312 63.121094 93.097656 60.191406 93.71875 57.167969 C 94.335938 54.097656 94.667969 50.929688 94.667969 47.761719 C 94.667969 44.59375 94.335938 41.425781 93.71875 38.351562 Z M 48.308594 88.703125 C 25.890625 88.703125 7.757812 70.367188 7.757812 47.808594 C 7.757812 25.246094 25.941406 6.910156 48.308594 6.910156 C 70.679688 6.910156 88.863281 25.246094 88.863281 47.808594 C 88.863281 70.367188 70.679688 88.703125 48.308594 88.703125 Z M 48.308594 88.703125 "/>
<path style=" stroke:none;fill-rule:nonzero;fill:rgb(0%,0%,0%);fill-opacity:1;" d="M 49.023438 85.152344 C 49.167969 85.152344 49.261719 85.152344 49.40625 85.152344 C 49.453125 85.152344 49.546875 85.152344 49.59375 85.152344 C 49.738281 85.152344 49.878906 85.152344 49.976562 85.152344 C 50.023438 85.152344 50.070312 85.152344 50.117188 85.152344 C 50.308594 85.152344 50.5 85.152344 50.691406 85.105469 C 50.691406 85.105469 50.691406 85.105469 50.738281 85.105469 C 50.929688 85.105469 51.070312 85.105469 51.261719 85.054688 C 51.308594 85.054688 51.355469 85.054688 51.402344 85.054688 C 51.546875 85.054688 51.6875 85.054688 51.832031 85.007812 C 51.878906 85.007812 51.925781 85.007812 51.976562 85.007812 C 52.117188 85.007812 52.261719 84.960938 52.449219 84.960938 C 52.5 84.960938 52.5 84.960938 52.546875 84.960938 C 52.738281 84.960938 52.925781 84.910156 53.117188 84.910156 C 53.308594 84.910156 53.449219 84.863281 53.640625 84.816406 C 53.6875 84.816406 53.734375 84.816406 53.734375 84.816406 C 53.878906 84.816406 54.023438 84.769531 54.164062 84.769531 C 54.210938 84.769531 54.210938 84.769531 54.257812 84.769531 C 54.449219 84.71875 54.59375 84.71875 54.78125 84.671875 C 55.164062 84.625 55.542969 84.527344 55.878906 84.433594 C 55.925781 84.433594 55.925781 84.433594 55.972656 84.433594 C 56.117188 84.382812 56.304688 84.382812 56.449219 84.335938 C 56.449219 84.335938 56.496094 84.335938 56.496094 84.335938 C 56.878906 84.238281 57.210938 84.144531 57.589844 84.046875 C 53.023438 84.191406 49.308594 83.566406 46.976562 83.039062 C 41.742188 81.886719 36.746094 79.824219 32.507812 76.273438 C 25.464844 70.320312 21.847656 61.777344 21.941406 53.28125 C 21.988281 46.945312 24.132812 40.609375 28.460938 35.425781 C 33.886719 28.945312 41.597656 25.535156 49.5 25.34375 C 49.878906 25.34375 50.214844 25.34375 50.59375 25.34375 L 50.59375 18.960938 C 50.167969 18.960938 49.785156 18.960938 49.355469 18.960938 C 46.929688 19.007812 44.550781 19.296875 42.21875 19.824219 C 39.839844 20.351562 37.554688 21.167969 35.363281 22.175781 C 33.125 23.230469 31.03125 24.527344 29.082031 26.015625 C 27.082031 27.550781 25.226562 29.328125 23.609375 31.296875 C 22.085938 33.121094 20.75 35.089844 19.65625 37.199219 C 18.5625 39.214844 17.707031 41.375 17.039062 43.585938 C 16.421875 45.742188 15.945312 48 15.753906 50.257812 C 15.707031 50.976562 15.660156 51.648438 15.613281 52.367188 C 15.613281 52.65625 15.613281 52.894531 15.613281 53.183594 C 15.613281 53.328125 15.613281 53.472656 15.613281 53.617188 C 15.660156 56.0625 15.945312 58.464844 16.46875 60.816406 C 16.992188 63.214844 17.800781 65.519531 18.800781 67.726562 C 19.992188 70.367188 22.132812 74.257812 25.320312 77.183594 C 31.605469 82.175781 39.550781 85.152344 48.167969 85.152344 C 48.359375 85.152344 48.546875 85.152344 48.738281 85.152344 C 48.882812 85.152344 48.976562 85.152344 49.023438 85.152344 Z M 49.023438 85.152344 "/>
<path style=" stroke:none;fill-rule:nonzero;fill:rgb(0%,0%,0%);fill-opacity:1;" d="M 59.398438 79.007812 C 57.210938 78.960938 54.496094 78.625 52.402344 78.238281 C 42.597656 76.464844 34.175781 70.414062 31.082031 61.296875 C 27.320312 50.207031 33.078125 38.207031 44.027344 34.558594 C 46.167969 33.839844 48.308594 33.503906 50.5 33.503906 C 53.308594 33.503906 56.117188 34.078125 58.6875 35.136719 L 61.351562 29.425781 C 60.542969 29.089844 59.734375 28.800781 58.925781 28.511719 C 56.210938 27.648438 53.355469 27.214844 50.5 27.214844 C 47.644531 27.214844 44.789062 27.695312 42.074219 28.609375 C 38.601562 29.761719 35.410156 31.632812 32.699219 34.078125 C 31.414062 35.230469 30.175781 36.574219 29.128906 37.96875 C 28.082031 39.359375 27.175781 40.847656 26.414062 42.433594 C 25.65625 44.015625 25.035156 45.648438 24.605469 47.328125 C 24.179688 49.007812 23.84375 50.785156 23.75 52.558594 C 23.511719 56.207031 23.988281 59.855469 25.179688 63.3125 C 26.367188 66.816406 28.273438 70.03125 30.890625 72.863281 C 33.222656 75.40625 35.933594 77.328125 39.21875 79.105469 C 42.644531 80.929688 46.882812 81.886719 51.308594 82.511719 C 54.164062 82.894531 57.972656 82.992188 60.210938 82.992188 C 62.160156 82.273438 62.96875 81.9375 64.015625 81.503906 C 64.921875 81.070312 65.824219 80.640625 66.730469 80.113281 C 67.632812 79.585938 67.777344 79.488281 69.300781 78.480469 C 69.441406 78.382812 69.585938 78.289062 69.679688 78.191406 C 64.445312 79.105469 63.113281 79.054688 59.398438 79.007812 Z M 59.398438 79.007812 "/>
<path style=" stroke:none;fill-rule:nonzero;fill:rgb(0%,0%,0%);fill-opacity:1;" d="M 71.109375 71.855469 C 69.632812 71.953125 67.539062 72.097656 65.160156 72.097656 C 60.921875 72.097656 55.734375 71.710938 51.308594 70.222656 C 44.453125 67.921875 37.980469 62.015625 37.980469 54.71875 C 37.980469 47.425781 43.835938 41.566406 51.023438 41.566406 C 55.925781 41.566406 60.160156 44.304688 62.398438 48.289062 L 68.0625 45.457031 C 67.15625 43.777344 66.0625 42.238281 64.683594 40.894531 C 62.921875 39.121094 60.828125 37.679688 58.542969 36.71875 C 56.164062 35.710938 53.640625 35.183594 51.023438 35.183594 C 48.40625 35.183594 45.882812 35.710938 43.503906 36.71875 C 41.21875 37.679688 39.125 39.121094 37.363281 40.894531 C 35.601562 42.671875 34.175781 44.785156 33.222656 47.089844 C 32.222656 49.488281 31.699219 52.03125 31.699219 54.671875 C 31.699219 57.3125 32.269531 59.953125 33.363281 62.449219 C 34.363281 64.65625 35.746094 66.71875 37.503906 68.640625 C 40.597656 72 44.835938 74.6875 49.355469 76.222656 C 53.6875 77.664062 60.066406 78.191406 66.253906 77.761719 C 67.96875 77.617188 69.253906 77.472656 71.441406 76.992188 C 73.535156 75.3125 75.488281 73.390625 77.152344 71.28125 C 75.679688 71.425781 72.964844 71.710938 71.109375 71.855469 Z M 71.109375 71.855469 "/>
</g>
</svg>
