<?xml version="1.0" encoding="UTF-8"?>
<svg xmlns="http://www.w3.org/2000/svg" xmlns:xlink="http://www.w3.org/1999/xlink" width="100px" height="100px" viewBox="0 0 100 100" version="1.1">
<g id="surface1">
<path style=" stroke:none;fill-rule:nonzero;fill:rgb(0%,0%,0%);fill-opacity:1;" d="M 50 0 C 77.617188 0 100 22.382812 100 50 C 100 77.617188 77.617188 100 50 100 C 22.382812 100 0 77.617188 0 50 C 0 22.382812 22.382812 0 50 0 Z M 49.765625 15.625 C 30.914062 15.625 15.625 30.914062 15.625 49.765625 C 15.625 68.621094 30.90625 83.910156 49.761719 83.914062 C 68.625 83.914062 83.914062 68.625 83.914062 49.761719 C 83.910156 30.90625 68.621094 15.625 49.765625 15.625 Z M 49.761719 18.289062 C 58.113281 18.28125 66.125 21.59375 72.03125 27.5 C 77.9375 33.402344 81.253906 41.410156 81.25 49.761719 C 81.242188 67.132812 67.15625 81.210938 49.789062 81.210938 C 32.414062 81.210938 18.332031 67.132812 18.324219 49.761719 C 18.320312 32.390625 32.390625 18.300781 49.761719 18.289062 Z M 67.675781 69.40625 C 57.535156 78.679688 41.992188 78.679688 31.851562 69.40625 L 29.976562 71.28125 L 30.667969 71.898438 C 41.914062 81.625 58.664062 81.355469 69.59375 71.28125 Z M 28.242188 29.992188 C 17.925781 41.183594 17.925781 58.421875 28.242188 69.613281 L 30.117188 67.675781 L 29.523438 67.007812 C 20.832031 56.820312 21.085938 41.753906 30.117188 31.867188 Z M 71.304688 29.914062 L 71.304688 29.957031 L 69.429688 31.832031 L 70.023438 32.5 C 78.730469 42.6875 78.476562 57.765625 69.429688 67.65625 L 71.304688 69.53125 L 71.925781 68.835938 C 81.648438 57.59375 81.382812 40.84375 71.304688 29.914062 Z M 47.648438 32.5 L 44.375 32.5 L 44.375 37.925781 L 37.679688 37.925781 L 37.679688 41.457031 L 37.75 41.457031 C 38.144531 41.445312 40.117188 41.414062 40.082031 41.457031 C 40.996094 41.355469 41.824219 41.996094 41.957031 42.90625 L 41.957031 57.757812 L 41.917969 57.984375 C 41.859375 58.210938 41.734375 58.410156 41.554688 58.5625 C 41.324219 58.769531 41.015625 58.875 40.707031 58.851562 C 40.75 58.886719 38.304688 58.851562 38.304688 58.851562 L 37.679688 62.792969 L 44.3125 62.792969 L 44.3125 68.304688 L 47.613281 68.304688 L 47.613281 62.875 L 50.25 62.875 L 50.25 68.28125 L 53.554688 68.28125 L 53.554688 62.832031 L 54.167969 62.789062 C 59.414062 62.382812 63.039062 60.925781 63.507812 55.898438 C 63.898438 51.699219 61.925781 49.824219 58.769531 49.070312 C 60.6875 48.125 61.875 46.375 61.605469 43.511719 C 61.230469 39.601562 57.855469 38.289062 53.585938 37.886719 L 53.585938 32.5 L 50.289062 32.5 L 50.289062 37.789062 L 47.648438 37.789062 Z M 47.976562 51.601562 C 50.449219 51.570312 56.980469 51.121094 56.980469 55.25 C 56.980469 59.351562 49.957031 58.882812 47.71875 58.882812 L 47.71875 51.605469 Z M 47.957031 41.679688 C 50.03125 41.644531 55.449219 41.242188 55.449219 45 C 55.449219 48.75 49.585938 48.292969 47.726562 48.292969 L 47.726562 41.679688 Z M 68.882812 27.625 C 57.636719 17.902344 40.886719 18.167969 29.957031 28.242188 L 31.875 30.117188 L 32.542969 29.523438 C 42.730469 20.820312 57.8125 21.074219 67.699219 30.117188 L 69.574219 28.242188 Z M 68.882812 27.625 "/>
</g>
</svg>
