<?xml version="1.0" encoding="UTF-8"?>
<svg xmlns="http://www.w3.org/2000/svg" xmlns:xlink="http://www.w3.org/1999/xlink" width="100px" height="100px" viewBox="0 0 100 100" version="1.1">
<g id="surface1">
<path style=" stroke:none;fill-rule:nonzero;fill:rgb(83.92157%,34.509805%,57.254905%);fill-opacity:1;" d="M 100 50 C 100 77.613281 77.613281 100 50 100 C 22.386719 100 0 77.613281 0 50 C 0 22.386719 22.386719 0 50 0 C 77.613281 0 100 22.386719 100 50 Z M 100 50 "/>
<path style=" stroke:none;fill-rule:evenodd;fill:rgb(100%,100%,100%);fill-opacity:1;" d="M 43.105469 21.9375 C 48.925781 22.429688 56.628906 25.625 64.050781 31.039062 C 71.445312 36.480469 76.867188 42.960938 79.175781 48.429688 C 80.863281 52.402344 80.917969 55.917969 79.230469 58.335938 L 67.648438 74.921875 C 65.960938 77.339844 62.671875 78.40625 58.484375 78.0625 C 52.664062 77.542969 44.933594 74.375 37.539062 68.933594 C 30.117188 63.519531 24.722656 57.039062 22.382812 51.570312 C 20.699219 47.597656 20.644531 44.082031 22.332031 41.664062 L 33.941406 25.078125 C 35.628906 22.660156 38.890625 21.59375 43.105469 21.9375 Z M 67.445312 60.835938 C 67.21875 60.800781 67.003906 60.953125 66.964844 61.179688 C 66.925781 61.40625 67.074219 61.621094 67.300781 61.664062 C 69.585938 62.070312 71.632812 62.140625 73.34375 61.863281 C 73.558594 61.8125 73.699219 61.605469 73.664062 61.386719 C 73.628906 61.167969 73.429688 61.015625 73.210938 61.039062 C 71.601562 61.300781 69.648438 61.226562 67.445312 60.835938 Z M 63.722656 60.378906 C 63.691406 60.484375 63.703125 60.601562 63.757812 60.695312 C 63.8125 60.792969 63.902344 60.867188 64.007812 60.898438 C 64.558594 61.054688 65.101562 61.195312 65.636719 61.320312 C 65.851562 61.347656 66.050781 61.207031 66.101562 60.996094 C 66.148438 60.789062 66.03125 60.574219 65.824219 60.507812 C 65.304688 60.382812 64.773438 60.242188 64.234375 60.089844 C 64.011719 60.027344 63.785156 60.15625 63.722656 60.378906 Z M 35.542969 26.257812 L 35.488281 26.371094 C 34.222656 28.304688 34.503906 31.039062 35.824219 34.148438 C 38.042969 39.386719 43.246094 45.523438 50.304688 50.707031 C 57.359375 55.886719 64.695312 58.96875 70.234375 59.429688 C 73.554688 59.691406 76.164062 59.085938 77.546875 57.273438 L 77.628906 57.128906 C 78.976562 55.226562 78.695312 52.402344 77.378906 49.238281 C 75.15625 44.023438 69.953125 37.894531 62.867188 32.707031 C 55.8125 27.523438 48.476562 24.445312 42.9375 23.984375 C 39.5625 23.695312 36.894531 24.328125 35.542969 26.257812 Z M 33.21875 33.910156 C 33 33.976562 32.871094 34.207031 32.9375 34.429688 C 34.363281 39.316406 37.980469 43.96875 43.671875 49.210938 L 44.3125 49.796875 C 44.753906 50.195312 45.195312 50.59375 45.644531 50.984375 C 45.820312 51.132812 46.082031 51.117188 46.230469 50.941406 C 46.382812 50.765625 46.363281 50.5 46.191406 50.351562 C 45.847656 50.054688 45.515625 49.757812 45.183594 49.460938 L 44.539062 48.871094 C 38.777344 43.613281 35.132812 38.976562 33.734375 34.195312 C 33.703125 34.085938 33.632812 33.996094 33.535156 33.945312 C 33.4375 33.890625 33.324219 33.878906 33.21875 33.910156 Z M 49.628906 33.023438 C 52.382812 33.285156 56.066406 34.808594 59.582031 37.398438 C 63.121094 39.992188 65.738281 43.074219 66.832031 45.695312 C 67.480469 47.164062 67.648438 48.460938 67.003906 49.351562 C 66.382812 50.242188 65.117188 50.507812 63.570312 50.359375 C 60.789062 50.128906 57.132812 48.574219 53.59375 45.984375 C 50.050781 43.390625 47.4375 40.335938 46.339844 37.71875 C 45.722656 36.25 45.554688 34.953125 46.171875 34.0625 C 46.789062 33.167969 48.054688 32.910156 49.628906 33.023438 Z M 32.761719 30.59375 C 32.53125 30.605469 32.355469 30.796875 32.363281 31.027344 C 32.386719 31.597656 32.445312 32.167969 32.546875 32.746094 C 32.585938 32.972656 32.800781 33.125 33.027344 33.085938 C 33.253906 33.042969 33.40625 32.828125 33.367188 32.601562 C 33.273438 32.070312 33.214844 31.535156 33.195312 30.992188 C 33.191406 30.882812 33.140625 30.78125 33.0625 30.703125 C 32.980469 30.628906 32.871094 30.589844 32.761719 30.59375 Z M 32.761719 30.59375 "/>
</g>
</svg>
