<?xml version="1.0" encoding="UTF-8"?>
<svg xmlns="http://www.w3.org/2000/svg" xmlns:xlink="http://www.w3.org/1999/xlink" width="100px" height="100px" viewBox="0 0 100 100" version="1.1">
<g id="surface1">
<path style=" stroke:none;fill-rule:nonzero;fill:rgb(0%,0%,0%);fill-opacity:1;" d="M 50 0 C 77.617188 0 100 22.382812 100 50 C 100 77.617188 77.617188 100 50 100 C 22.382812 100 0 77.617188 0 50 C 0 22.382812 22.382812 0 50 0 Z M 33.96875 23.945312 L 20.710938 31.355469 C 19.492188 31.984375 18.734375 33.246094 18.75 34.613281 L 18.75 49.550781 C 18.75 50.898438 19.441406 52.132812 20.710938 52.808594 L 33.972656 60.222656 C 35.125 60.894531 36.625 60.894531 37.890625 60.222656 L 46.886719 55.164062 L 52.996094 51.683594 L 61.992188 46.632812 C 63.148438 45.957031 64.644531 45.957031 65.914062 46.632812 L 72.945312 50.5625 C 74.101562 51.234375 74.90625 52.46875 74.90625 53.820312 L 74.90625 61.792969 C 74.90625 63.140625 74.21875 64.375 72.945312 65.050781 L 65.914062 69.09375 C 64.757812 69.769531 63.257812 69.769531 61.992188 69.09375 L 54.960938 65.164062 C 53.804688 64.488281 52.996094 63.253906 52.996094 61.90625 L 52.996094 56.738281 L 46.886719 60.222656 L 46.886719 65.386719 C 46.886719 66.734375 47.578125 67.972656 48.847656 68.644531 L 62.109375 76.054688 C 63.261719 76.730469 64.757812 76.730469 66.027344 76.054688 L 79.289062 68.644531 C 80.445312 67.972656 81.25 66.738281 81.25 65.386719 L 81.25 50.449219 C 81.265625 49.082031 80.507812 47.824219 79.289062 47.195312 L 65.914062 39.664062 C 64.757812 38.992188 63.257812 38.992188 61.992188 39.664062 L 52.996094 44.835938 L 46.886719 48.203125 L 37.890625 53.367188 C 36.738281 54.042969 35.242188 54.042969 33.972656 53.367188 L 26.820312 49.324219 C 25.667969 48.652344 24.863281 47.417969 24.863281 46.070312 L 24.863281 38.09375 C 24.863281 36.746094 25.554688 35.511719 26.820312 34.835938 L 33.851562 30.90625 C 35.007812 30.230469 36.507812 30.230469 37.777344 30.90625 L 44.808594 34.835938 C 45.964844 35.511719 46.773438 36.746094 46.773438 38.09375 L 46.773438 43.261719 L 52.882812 39.777344 L 52.882812 34.613281 C 52.894531 33.246094 52.136719 31.984375 50.921875 31.355469 L 37.890625 23.945312 C 36.738281 23.269531 35.242188 23.269531 33.972656 23.945312 Z M 33.96875 23.945312 "/>
</g>
</svg>
