<?xml version="1.0" encoding="UTF-8"?>
<svg xmlns="http://www.w3.org/2000/svg" xmlns:xlink="http://www.w3.org/1999/xlink" width="100px" height="100px" viewBox="0 0 100 100" version="1.1">
<g id="surface1">
<path style=" stroke:none;fill-rule:nonzero;fill:rgb(100%,100%,100%);fill-opacity:1;" d="M 0.472656 0.472656 C 33.886719 0.472656 67.296875 0.472656 100.472656 0.472656 C 100.472656 33.886719 100.472656 67.296875 100.472656 100.472656 C 67.0625 100.472656 33.648438 100.472656 0.472656 100.472656 C 0.472656 67.296875 0.472656 33.886719 0.472656 0.472656 Z M 9.003906 50 C 9.003906 50.472656 9.242188 51.894531 9.480469 53.316406 C 11.375 60.664062 16.351562 65.164062 23.695312 66.351562 C 30.804688 67.535156 36.96875 64.691406 40.996094 58.53125 C 43.839844 54.265625 48.105469 53.082031 51.894531 55.449219 C 55.6875 57.820312 56.398438 61.847656 54.265625 66.585938 C 53.082031 69.429688 52.132812 72.75 52.132812 75.828125 C 52.132812 82.703125 55.6875 87.914062 62.085938 90.757812 C 68.71875 93.839844 75.117188 92.890625 80.570312 88.386719 C 86.019531 83.886719 87.914062 77.960938 86.492188 71.328125 C 84.835938 63.03125 78.199219 58.058594 69.429688 57.347656 C 67.296875 57.109375 64.929688 56.160156 63.507812 54.738281 C 61.136719 52.605469 60.902344 49.527344 62.324219 46.683594 C 63.980469 43.128906 67.0625 41.941406 70.617188 41.941406 C 79.859375 41.707031 86.96875 35.070312 87.914062 25.59375 C 88.625 17.535156 82.464844 9.003906 74.171875 7.347656 C 65.402344 5.449219 56.636719 10.664062 53.792969 19.195312 C 52.132812 24.171875 53.082031 28.910156 55.449219 33.414062 C 58.058594 38.863281 54.976562 44.550781 49.289062 45.023438 C 45.496094 45.261719 43.128906 43.363281 41.46875 40.046875 C 37.441406 32.9375 29.382812 29.859375 21.800781 32.226562 C 13.980469 34.597656 9.003906 41.230469 9.003906 50 Z M 9.003906 50 "/>
<path style=" stroke:none;fill-rule:nonzero;fill:rgb(0%,0%,0%);fill-opacity:1;" d="M 9.003906 50 C 9.003906 41.230469 13.980469 34.359375 21.5625 32.226562 C 29.382812 30.09375 37.203125 33.175781 41.230469 40.046875 C 43.128906 43.128906 45.496094 45.261719 49.050781 45.023438 C 54.738281 44.550781 57.820312 38.863281 55.214844 33.414062 C 52.84375 28.910156 52.132812 24.171875 53.554688 19.195312 C 56.398438 10.425781 65.164062 5.449219 73.933594 7.347656 C 82.226562 9.003906 88.625 17.535156 87.675781 25.59375 C 86.730469 34.835938 79.621094 41.707031 70.378906 41.941406 C 66.585938 41.941406 63.742188 43.128906 62.085938 46.683594 C 60.664062 49.527344 60.902344 52.605469 63.269531 54.738281 C 64.929688 56.160156 67.0625 57.109375 69.195312 57.347656 C 77.960938 58.058594 84.597656 63.03125 86.257812 71.328125 C 87.675781 77.960938 85.78125 83.886719 80.332031 88.386719 C 74.644531 92.890625 68.246094 93.839844 61.847656 90.757812 C 55.6875 87.914062 51.894531 82.703125 51.894531 75.828125 C 51.894531 72.75 52.84375 69.429688 54.027344 66.585938 C 56.160156 61.847656 55.449219 57.820312 51.660156 55.449219 C 47.867188 53.082031 43.601562 54.265625 40.757812 58.53125 C 36.730469 64.691406 30.804688 67.535156 23.695312 66.351562 C 16.351562 65.164062 11.613281 60.664062 9.480469 53.316406 C 9.242188 52.132812 9.003906 50.472656 9.003906 50 Z M 9.003906 50 "/>
</g>
</svg>
