<?xml version="1.0" encoding="UTF-8"?>
<svg xmlns="http://www.w3.org/2000/svg" xmlns:xlink="http://www.w3.org/1999/xlink" width="100px" height="100px" viewBox="0 0 100 100" version="1.1">
<g id="surface1">
<path style=" stroke:none;fill-rule:nonzero;fill:rgb(100%,100%,100%);fill-opacity:1;" d="M 0.714844 50.285156 C 0.714844 34.355469 0.714844 18.355469 0.714844 2.429688 C 0.714844 0.714844 0.644531 -0.0703125 2.929688 -0.0703125 C 34.855469 0 66.714844 0 98.644531 -0.0703125 C 100.570312 -0.0703125 100.785156 0.5 100.785156 2.144531 C 100.714844 34.285156 100.714844 66.429688 100.785156 98.570312 C 100.785156 100.5 100.214844 100.714844 98.570312 100.714844 C 66.644531 100.644531 34.785156 100.644531 2.855469 100.714844 C 0.929688 100.714844 0.714844 100.144531 0.714844 98.5 C 0.714844 82.429688 0.714844 66.355469 0.714844 50.285156 Z M 0.714844 50.285156 "/>
<path style=" stroke:none;fill-rule:nonzero;fill:rgb(9.019608%,9.019608%,9.019608%);fill-opacity:1;" d="M 50.644531 98 C 24.285156 97.929688 2.929688 76.644531 3 50.355469 C 3.070312 23.929688 24.5 2.785156 51.144531 2.855469 C 77.070312 2.929688 98.429688 24.285156 98.5 50.144531 C 98.5 76.644531 77.144531 98.070312 50.644531 98 Z M 50.644531 98 "/>
<path style=" stroke:none;fill-rule:nonzero;fill:rgb(99.215686%,99.215686%,99.215686%);fill-opacity:1;" d="M 40.214844 45.429688 C 36.285156 45.429688 35.429688 46.214844 35 50.355469 C 34.714844 53.429688 32.429688 55.5 29.644531 55.429688 C 26.855469 55.355469 24.429688 52.785156 24.429688 50.070312 C 24.5 47.214844 26.644531 44.855469 29.714844 45 C 33.5 45.214844 35.214844 44.070312 35.070312 40 C 35 37.070312 36.785156 35.144531 39.929688 34.929688 C 42.929688 34.714844 45.570312 36.714844 45.429688 39.714844 C 45.285156 43.855469 46.855469 45.285156 50.929688 45 C 53.929688 44.785156 56.144531 47.285156 56.144531 50.144531 C 56.144531 52.785156 53.929688 55.214844 51.214844 55.429688 C 48.429688 55.644531 46 53.570312 45.570312 50.644531 C 45.070312 46 44.5 45.5 40.214844 45.429688 Z M 40.214844 45.429688 "/>
<path style=" stroke:none;fill-rule:nonzero;fill:rgb(99.215686%,99.215686%,99.215686%);fill-opacity:1;" d="M 87 40.214844 C 87 43.070312 84.644531 45.570312 81.355469 45.429688 C 78 45.355469 76.644531 46.644531 76.570312 50 C 76.5 53.855469 74.644531 55.714844 70.785156 55.644531 C 67.214844 55.570312 65.855469 57.144531 65.714844 60.5 C 65.570312 64.144531 63.644531 65.929688 60.429688 65.855469 C 57.5 65.785156 55.214844 63.429688 55.285156 60.570312 C 55.355469 57.570312 57.5 55.5 61 55.5 C 64.644531 55.5 66.144531 53.714844 66.285156 50.285156 C 66.429688 47 68.285156 45.070312 71.429688 45.144531 C 75.144531 45.214844 76.5 43.570312 76.5 40 C 76.5 36.714844 78.929688 34.785156 82.144531 35 C 84.785156 35.214844 87 37.570312 87 40.214844 Z M 87 40.214844 "/>
<path style=" stroke:none;fill-rule:nonzero;fill:rgb(98.823529%,98.823529%,98.823529%);fill-opacity:1;" d="M 25 60.570312 C 25.070312 63.429688 22.855469 65.785156 19.929688 65.855469 C 17 65.929688 14.570312 63.785156 14.429688 61 C 14.285156 58.070312 16.785156 55.429688 19.714844 55.429688 C 22.5 55.355469 24.855469 57.714844 25 60.570312 Z M 25 60.570312 "/>
</g>
</svg>
