<?xml version="1.0" encoding="UTF-8"?>
<svg xmlns="http://www.w3.org/2000/svg" xmlns:xlink="http://www.w3.org/1999/xlink" width="100px" height="100px" viewBox="0 0 100 100" version="1.1">
<g id="surface1">
<path style=" stroke:none;fill-rule:nonzero;fill:rgb(100%,100%,100%);fill-opacity:1;" d="M 100.714844 50.714844 C 100.714844 66.644531 100.714844 82.644531 100.785156 98.570312 C 100.785156 100.355469 100.355469 100.785156 98.570312 100.785156 C 66.644531 100.714844 34.785156 100.714844 2.855469 100.714844 C 1.070312 100.714844 0.644531 100.285156 0.644531 98.5 C 0.714844 66.644531 0.714844 34.785156 0.644531 2.855469 C 0.644531 1.070312 1.070312 0.644531 2.855469 0.644531 C 34.785156 0.714844 66.644531 0.714844 98.570312 0.644531 C 100.355469 0.644531 100.785156 1.070312 100.785156 2.855469 C 100.644531 18.785156 100.714844 34.785156 100.714844 50.714844 Z M 100.714844 50.714844 "/>
<path style=" stroke:none;fill-rule:nonzero;fill:rgb(13.725491%,12.156863%,12.54902%);fill-opacity:1;" d="M 50.644531 98 C 24.144531 98 2.929688 76.714844 2.929688 50.214844 C 2.929688 24.144531 24.355469 2.785156 50.644531 2.785156 C 76.929688 2.785156 98.429688 24.070312 98.429688 50.214844 C 98.429688 76.644531 77.144531 98 50.644531 98 Z M 50.644531 98 "/>
<path style=" stroke:none;fill-rule:nonzero;fill:rgb(99.215686%,99.215686%,99.215686%);fill-opacity:1;" d="M 80 36.144531 C 78.285156 55.214844 69.285156 70.785156 52.429688 81.785156 C 51 82.714844 49.929688 82.570312 48.644531 81.644531 C 31.5 70.285156 22.144531 54.570312 21.214844 33.929688 C 21.144531 32.214844 21.785156 31.355469 23.214844 30.644531 C 41.570312 21.570312 59.855469 21.644531 78.214844 30.714844 C 80.429688 31.855469 79.929688 33.570312 80 36.144531 Z M 80 36.144531 "/>
<path style=" stroke:none;fill-rule:nonzero;fill:rgb(13.725491%,12.156863%,12.54902%);fill-opacity:1;" d="M 59.355469 27.285156 C 52.214844 30.644531 49.570312 35.785156 49.144531 42.644531 C 48.785156 48.929688 43.570312 53.5 37.429688 53.855469 C 31.144531 54.144531 26.144531 50.355469 24.785156 44.214844 C 24.429688 42.714844 24.355469 41.144531 24.214844 39.644531 C 23.714844 33.214844 23.714844 33.144531 29.929688 30.644531 C 39.070312 26.855469 48.570312 25.429688 59.355469 27.285156 Z M 59.355469 27.285156 "/>
<path style=" stroke:none;fill-rule:nonzero;fill:rgb(13.725491%,12.156863%,12.54902%);fill-opacity:1;" d="M 65.429688 67.214844 C 65.644531 59.5 62.144531 55 56.714844 51.144531 C 51.214844 47.355469 50.214844 40.5 53.5 35 C 56.714844 29.570312 63.144531 27.5 69.285156 30 C 70.285156 30.429688 71.214844 30.855469 72.214844 31.285156 C 77.570312 33.714844 77.644531 33.785156 77.070312 39.285156 C 76 49.429688 72.355469 58.5 65.429688 67.214844 Z M 65.429688 67.214844 "/>
<path style=" stroke:none;fill-rule:nonzero;fill:rgb(13.725491%,12.156863%,12.54902%);fill-opacity:1;" d="M 27.429688 53.714844 C 31.644531 55.285156 35.570312 57.285156 40.144531 55.714844 C 41.785156 55.144531 43.429688 54.429688 45.070312 53.785156 C 51.429688 51.144531 58.214844 53.285156 61.429688 59 C 64.644531 64.785156 63.144531 70.929688 57.355469 75.144531 C 57.144531 75.285156 57 75.429688 56.785156 75.570312 C 49.929688 80.570312 49.929688 80.570312 43.285156 75 C 37.429688 70.070312 32.644531 64.214844 29.285156 57.285156 C 28.714844 56.144531 28.355469 54.785156 27.429688 53.714844 Z M 27.429688 53.714844 "/>
</g>
</svg>
