<?xml version="1.0" encoding="UTF-8"?>
<svg xmlns="http://www.w3.org/2000/svg" xmlns:xlink="http://www.w3.org/1999/xlink" width="100px" height="100px" viewBox="0 0 100 100" version="1.1">
<g id="surface1">
<path style=" stroke:none;fill-rule:evenodd;fill:rgb(21.960784%,25.490198%,50.980395%);fill-opacity:1;" d="M 100 50 C 100 77.613281 77.613281 100 50 100 C 22.386719 100 0 77.613281 0 50 C 0 22.386719 22.386719 0 50 0 C 77.613281 0 100 22.386719 100 50 Z M 100 50 "/>
<path style=" stroke:none;fill-rule:evenodd;fill:rgb(100%,100%,100%);fill-opacity:1;" d="M 29.6875 84.375 L 40.992188 31.910156 L 47.335938 71.285156 Z M 41.210938 31.609375 L 58.390625 71.324219 L 47.632812 71.136719 L 41.210938 31.605469 Z M 41.46875 31.308594 L 63.96875 34.507812 L 58.757812 71.324219 Z M 59.15625 70.757812 L 64.226562 34.84375 L 67.546875 39.054688 Z M 63.898438 34.164062 L 41.941406 31.042969 L 61.710938 24.539062 Z M 41.835938 30.707031 L 55.289062 21.378906 L 61.710938 24.199219 Z M 41.503906 30.59375 L 44.097656 25.628906 L 55.070312 21.226562 Z M 44.097656 25.40625 L 45.335938 21.53125 L 54.378906 21.226562 L 44.097656 25.402344 Z M 45.261719 21.226562 L 48.179688 18.105469 L 54.453125 20.929688 Z M 48.363281 17.917969 L 52.738281 15.773438 L 58.394531 22.394531 Z M 53.359375 16.039062 L 59.886719 18.898438 L 58.71875 22.429688 Z M 58.9375 22.542969 L 60.140625 18.933594 L 61.601562 23.898438 Z M 52.882812 15.625 L 57.664062 15.625 L 60.027344 18.257812 C 60.074219 18.308594 60.078125 18.386719 60.035156 18.441406 C 59.996094 18.496094 59.921875 18.519531 59.859375 18.492188 Z M 60.433594 18.632812 L 70.152344 21.347656 C 70.253906 21.371094 70.324219 21.460938 70.324219 21.566406 C 70.324219 21.667969 70.253906 21.761719 70.152344 21.785156 L 61.894531 24.050781 Z M 60.433594 18.632812 "/>
</g>
</svg>
