<?xml version="1.0" encoding="UTF-8"?>
<svg xmlns="http://www.w3.org/2000/svg" xmlns:xlink="http://www.w3.org/1999/xlink" width="100px" height="100px" viewBox="0 0 100 100" version="1.1">
<defs>
<filter id="alpha" filterUnits="objectBoundingBox" x="0%" y="0%" width="100%" height="100%">
  <feColorMatrix type="matrix" in="SourceGraphic" values="0 0 0 0 1 0 0 0 0 1 0 0 0 0 1 0 0 0 1 0"/>
</filter>
<mask id="mask0">
  <g filter="url(#alpha)">
<rect x="0" y="0" width="100" height="100" style="fill:rgb(0%,0%,0%);fill-opacity:0.2;stroke:none;"/>
  </g>
</mask>
<clipPath id="clip1">
  <rect x="0" y="0" width="100" height="100"/>
</clipPath>
<g id="surface5" clip-path="url(#clip1)">
<path style=" stroke:none;fill-rule:evenodd;fill:rgb(100%,100%,100%);fill-opacity:1;" d="M 49.964844 51.726562 L 70.964844 49.925781 L 49.964844 61.722656 Z M 49.964844 51.726562 "/>
</g>
<mask id="mask1">
  <g filter="url(#alpha)">
<rect x="0" y="0" width="100" height="100" style="fill:rgb(0%,0%,0%);fill-opacity:0.603;stroke:none;"/>
  </g>
</mask>
<clipPath id="clip2">
  <rect x="0" y="0" width="100" height="100"/>
</clipPath>
<g id="surface8" clip-path="url(#clip2)">
<path style=" stroke:none;fill-rule:evenodd;fill:rgb(100%,100%,100%);fill-opacity:1;" d="M 49.960938 51.726562 L 28.960938 49.925781 L 49.960938 61.722656 Z M 49.960938 51.726562 "/>
</g>
</defs>
<g id="surface1">
<path style=" stroke:none;fill-rule:evenodd;fill:rgb(19.607843%,51.372552%,19.607843%);fill-opacity:1;" d="M 100 50 C 100 77.613281 77.613281 100 50 100 C 22.386719 100 0 77.613281 0 50 C 0 22.386719 22.386719 0 50 0 C 77.613281 0 100 22.386719 100 50 Z M 100 50 "/>
<path style=" stroke:none;fill-rule:nonzero;fill:rgb(100%,100%,100%);fill-opacity:1;" d="M 49.964844 51.726562 L 28.960938 49.925781 L 49.960938 38.042969 L 49.960938 51.726562 Z M 49.964844 65.664062 L 49.964844 87.351562 C 42.664062 75.984375 34.613281 63.472656 28.125 53.34375 C 35.78125 57.65625 43.773438 62.164062 49.964844 65.667969 Z M 49.964844 34.203125 L 28.125 46.390625 L 49.964844 12.5 Z M 49.964844 34.203125 "/>
<path style=" stroke:none;fill-rule:nonzero;fill:rgb(100%,100%,100%);fill-opacity:0.601;" d="M 70.96875 49.925781 L 49.964844 51.726562 L 49.964844 38.042969 L 70.964844 49.925781 Z M 49.964844 65.667969 C 56.152344 62.167969 64.144531 57.65625 71.804688 53.34375 C 65.316406 63.476562 57.265625 75.988281 49.964844 87.351562 Z M 49.964844 34.203125 L 49.964844 12.5 L 71.804688 46.390625 Z M 49.964844 34.203125 "/>
<use xlink:href="#surface5" mask="url(#mask0)"/>
<use xlink:href="#surface8" mask="url(#mask1)"/>
</g>
</svg>
