<?xml version="1.0" encoding="UTF-8"?>
<svg xmlns="http://www.w3.org/2000/svg" xmlns:xlink="http://www.w3.org/1999/xlink" width="100px" height="100px" viewBox="0 0 100 100" version="1.1">
<g id="surface1">
<path style=" stroke:none;fill-rule:nonzero;fill:rgb(0%,0%,0%);fill-opacity:1;" d="M 50 100 C 22.382812 100 0 77.617188 0 50 C 0 22.382812 22.382812 0 50 0 C 77.617188 0 100 22.382812 100 50 C 100 77.617188 77.617188 100 50 100 Z M 86.695312 42.308594 C 86.203125 39.910156 85.472656 37.5625 84.515625 35.304688 C 83.574219 33.082031 82.421875 30.957031 81.070312 28.953125 C 79.734375 26.972656 78.210938 25.128906 76.519531 23.445312 C 74.832031 21.753906 72.984375 20.226562 71.007812 18.890625 C 69 17.550781 66.875 16.394531 64.65625 15.445312 C 55.386719 11.515625 44.917969 11.515625 35.648438 15.445312 C 31.214844 17.316406 27.183594 20.035156 23.789062 23.445312 C 22.097656 25.132812 20.570312 26.976562 19.234375 28.953125 C 17.894531 30.960938 16.738281 33.085938 15.789062 35.304688 C 11.859375 44.574219 11.859375 55.042969 15.789062 64.3125 C 16.710938 66.53125 17.898438 68.632812 19.234375 70.664062 C 20.570312 72.640625 22.097656 74.488281 23.789062 76.175781 C 25.472656 77.867188 27.320312 79.390625 29.300781 80.726562 C 31.289062 82.066406 33.429688 83.214844 35.648438 84.171875 C 44.917969 88.101562 55.386719 88.101562 64.65625 84.171875 C 66.875 83.253906 68.976562 82.066406 71.007812 80.726562 C 72.984375 79.390625 74.832031 77.867188 76.519531 76.175781 C 78.210938 74.488281 79.734375 72.640625 81.070312 70.664062 C 82.410156 68.675781 83.558594 66.53125 84.515625 64.3125 C 87.460938 57.371094 88.21875 49.695312 86.695312 42.308594 Z M 50.1875 82.449219 C 32.164062 82.449219 17.585938 67.832031 17.585938 49.847656 C 17.585938 31.863281 32.207031 17.242188 50.1875 17.242188 C 68.171875 17.242188 82.789062 31.863281 82.789062 49.847656 C 82.789062 67.832031 68.175781 82.449219 50.1875 82.449219 Z M 50.761719 79.617188 L 51.648438 79.617188 C 51.800781 79.617188 51.949219 79.617188 52.101562 79.578125 L 52.144531 79.578125 C 52.296875 79.578125 52.410156 79.578125 52.5625 79.539062 L 52.679688 79.539062 C 52.792969 79.539062 52.910156 79.539062 53.023438 79.503906 L 53.136719 79.503906 C 53.253906 79.503906 53.367188 79.464844 53.523438 79.464844 L 53.597656 79.464844 C 53.75 79.464844 53.902344 79.425781 54.054688 79.425781 C 54.210938 79.425781 54.324219 79.386719 54.476562 79.351562 L 54.554688 79.351562 C 54.667969 79.351562 54.785156 79.3125 54.898438 79.3125 L 54.976562 79.3125 C 55.128906 79.273438 55.242188 79.273438 55.398438 79.234375 C 55.699219 79.195312 56.007812 79.117188 56.273438 79.042969 L 56.351562 79.042969 C 56.464844 79.007812 56.617188 79.007812 56.734375 78.964844 L 56.773438 78.964844 C 57.078125 78.890625 57.347656 78.8125 57.652344 78.738281 C 54.785156 78.828125 51.921875 78.558594 49.121094 77.933594 C 44.910156 77.015625 40.894531 75.371094 37.488281 72.539062 C 32.050781 68.011719 28.929688 61.285156 28.992188 54.210938 C 29.019531 48.996094 30.875 43.960938 34.234375 39.976562 C 38.597656 34.808594 44.796875 32.089844 51.148438 31.9375 L 52.027344 31.9375 L 52.027344 26.851562 L 51.035156 26.851562 C 49.101562 26.886719 47.179688 27.117188 45.292969 27.539062 C 43.394531 27.964844 41.550781 28.59375 39.785156 29.414062 C 37.984375 30.257812 36.300781 31.289062 34.730469 32.476562 C 33.109375 33.707031 31.632812 35.121094 30.332031 36.683594 C 29.105469 38.132812 28.039062 39.710938 27.15625 41.390625 C 26.28125 43.011719 25.578125 44.714844 25.050781 46.476562 C 24.535156 48.214844 24.1875 49.996094 24.019531 51.800781 L 23.902344 53.480469 L 23.902344 54.476562 C 23.941406 56.429688 24.171875 58.339844 24.589844 60.214844 C 25.011719 62.132812 25.664062 63.964844 26.464844 65.726562 C 27.425781 67.832031 29.148438 70.929688 31.710938 73.265625 C 36.941406 77.390625 43.414062 79.628906 50.074219 79.617188 L 50.765625 79.617188 Z M 59.105469 74.71875 C 57.21875 74.652344 55.339844 74.445312 53.480469 74.105469 C 45.597656 72.691406 38.824219 67.867188 36.335938 60.601562 C 33.3125 51.757812 37.945312 42.195312 46.742188 39.289062 C 48.421875 38.726562 50.179688 38.441406 51.945312 38.445312 C 54.207031 38.445312 56.460938 38.902344 58.53125 39.742188 L 60.671875 35.191406 C 60.027344 34.933594 59.378906 34.691406 58.722656 34.464844 C 56.53125 33.777344 54.246094 33.429688 51.945312 33.429688 C 49.644531 33.4375 47.359375 33.808594 45.175781 34.539062 C 42.386719 35.460938 39.824219 36.945312 37.636719 38.902344 C 36.582031 39.839844 35.625 40.878906 34.769531 42.003906 C 33.925781 43.113281 33.195312 44.304688 32.585938 45.5625 C 31.355469 48.089844 30.625 50.832031 30.445312 53.636719 C 30.253906 56.542969 30.632812 59.449219 31.589844 62.207031 C 32.566406 65.042969 34.128906 67.636719 36.183594 69.820312 C 38.058594 71.851562 40.242188 73.382812 42.878906 74.796875 C 45.632812 76.25 49.039062 77.015625 52.597656 77.515625 C 54.894531 77.820312 57.957031 77.898438 59.753906 77.898438 C 61.320312 77.320312 61.972656 77.054688 62.816406 76.710938 C 63.542969 76.367188 64.269531 76.023438 64.996094 75.601562 C 65.726562 75.179688 65.839844 75.101562 67.0625 74.300781 C 67.171875 74.230469 67.273438 74.15625 67.367188 74.070312 C 63.160156 74.796875 62.085938 74.757812 59.101562 74.71875 Z M 68.519531 69.019531 C 67.332031 69.09375 65.648438 69.207031 63.734375 69.207031 C 60.328125 69.207031 56.15625 68.902344 52.601562 67.714844 C 47.085938 65.882812 41.882812 61.175781 41.882812 55.355469 C 41.882812 52.574219 42.984375 49.90625 44.953125 47.941406 C 46.917969 45.972656 49.585938 44.871094 52.367188 44.871094 C 56.308594 44.871094 59.714844 47.054688 61.515625 50.226562 L 66.070312 47.972656 C 65.355469 46.628906 64.4375 45.402344 63.351562 44.335938 C 60.4375 41.421875 56.488281 39.78125 52.367188 39.78125 C 48.246094 39.78125 44.296875 41.421875 41.382812 44.335938 C 38.46875 47.25 36.832031 51.199219 36.832031 55.320312 C 36.839844 57.457031 37.300781 59.570312 38.175781 61.519531 C 38.976562 63.277344 40.085938 64.925781 41.503906 66.457031 C 43.992188 69.132812 47.394531 71.273438 51.03125 72.5 C 54.511719 73.648438 59.640625 74.070312 64.617188 73.726562 C 65.992188 73.609375 67.023438 73.492188 68.785156 73.113281 C 70.480469 71.773438 72.023438 70.246094 73.378906 68.558594 C 72.191406 68.675781 70.007812 68.902344 68.519531 69.019531 Z M 68.519531 69.019531 "/>
</g>
</svg>
