<?xml version="1.0" encoding="UTF-8"?>
<svg xmlns="http://www.w3.org/2000/svg" xmlns:xlink="http://www.w3.org/1999/xlink" width="100px" height="100px" viewBox="0 0 100 100" version="1.1">
<g id="surface1">
<path style=" stroke:none;fill-rule:nonzero;fill:rgb(0%,0%,0%);fill-opacity:1;" d="M 50 100 C 22.382812 100 0 77.617188 0 50 C 0 22.382812 22.382812 0 50 0 C 77.617188 0 100 22.382812 100 50 C 100 77.617188 77.617188 100 50 100 Z M 37.15625 18.75 L 28.125 22.761719 L 28.125 31.816406 L 52.164062 43.492188 L 28.125 55.398438 L 28.125 64.324219 L 62.855469 81.046875 L 71.746094 77.042969 L 71.746094 49.070312 L 62.855469 53.117188 L 62.855469 72.132812 L 39.269531 60.664062 L 62.855469 48.488281 L 71.746094 44.484375 L 71.707031 35.546875 Z M 37.15625 18.75 "/>
<path style=" stroke:none;fill-rule:nonzero;fill:rgb(0%,0%,0%);fill-opacity:0.65;" d="M 28.125 22.753906 L 62.855469 39.574219 L 71.746094 35.570312 L 37.160156 18.75 Z M 28.125 22.753906 "/>
<path style=" stroke:none;fill-rule:nonzero;fill:rgb(0%,0%,0%);fill-opacity:0.3;" d="M 62.855469 39.535156 L 71.746094 35.53125 L 71.746094 44.484375 L 62.855469 48.488281 Z M 62.855469 81.046875 L 62.855469 53.117188 L 71.746094 49.070312 L 71.746094 77.042969 Z M 62.855469 81.046875 "/>
</g>
</svg>
