<?xml version="1.0" encoding="UTF-8"?>
<svg xmlns="http://www.w3.org/2000/svg" xmlns:xlink="http://www.w3.org/1999/xlink" width="100px" height="100px" viewBox="0 0 100 100" version="1.1">
<g id="surface1">
<path style=" stroke:none;fill-rule:nonzero;fill:rgb(98.039216%,97.647059%,97.647059%);fill-opacity:1;" d="M 0.714844 50.214844 C 0.714844 34.285156 0.785156 18.285156 0.644531 2.355469 C 0.644531 0.429688 1 -0.0703125 3 -0.0703125 C 34.785156 0 66.570312 0 98.355469 -0.0703125 C 100.285156 -0.0703125 100.785156 0.285156 100.785156 2.285156 C 100.714844 34.285156 100.714844 66.355469 100.785156 98.355469 C 100.785156 100.285156 100.429688 100.785156 98.429688 100.785156 C 66.644531 100.714844 34.855469 100.714844 3.070312 100.785156 C 1.144531 100.785156 0.644531 100.429688 0.644531 98.429688 C 0.785156 82.355469 0.714844 66.285156 0.714844 50.214844 Z M 50.714844 98 C 77 98.144531 98.429688 77.214844 98.644531 51.144531 C 98.855469 24.355469 77.929688 2.929688 51.5 2.785156 C 24.929688 2.644531 3.644531 23.5 3.5 49.785156 C 3.285156 76.570312 24.070312 97.855469 50.714844 98 Z M 50.714844 98 "/>
<path style=" stroke:none;fill-rule:nonzero;fill:rgb(14.901961%,13.333334%,13.725491%);fill-opacity:1;" d="M 50.714844 98 C 24.070312 97.855469 3.285156 76.570312 3.429688 49.785156 C 3.570312 23.5 24.855469 2.644531 51.429688 2.785156 C 77.855469 2.929688 98.785156 24.285156 98.570312 51.144531 C 98.429688 77.214844 77 98.144531 50.714844 98 Z M 21.570312 54.144531 C 27.070312 54.144531 32.644531 52.070312 34.285156 59.429688 C 34.570312 60.785156 34.570312 61.5 34 62.429688 C 32.214844 65.429688 31 68.644531 30.785156 72.144531 C 30.429688 76.855469 33.355469 79 37.785156 77.355469 C 39.714844 76.644531 41.355469 75.5 42.929688 74.214844 C 45.429688 72.214844 46.929688 68.644531 51.429688 69.785156 C 52.5 70.070312 53.5 69.855469 54.429688 70.855469 C 56.5 73.285156 56.929688 76.429688 58 79.355469 C 61.429688 75.644531 63.714844 68.929688 62.214844 64.070312 C 61 60.214844 62.214844 57.855469 64.644531 55.355469 C 65.785156 54.144531 66.644531 52.714844 67.714844 51.429688 C 74.070312 43.644531 74.214844 35 71.714844 25.785156 C 71.214844 23.929688 70.5 23.285156 68.570312 23.355469 C 58.855469 23.714844 50.714844 27 45.429688 35.644531 C 44.214844 37.644531 42.785156 39.570312 41.644531 41.644531 C 40.570312 43.644531 39.355469 44.714844 36.714844 44.785156 C 30.214844 45.070312 25.855469 48.929688 21.570312 54.144531 Z M 21.570312 54.144531 "/>
<path style=" stroke:none;fill-rule:nonzero;fill:rgb(92.156863%,90.980393%,90.980393%);fill-opacity:1;" d="M 21.570312 54.144531 C 25.855469 48.929688 30.214844 45.070312 36.570312 44.855469 C 39.214844 44.785156 40.355469 43.714844 41.5 41.714844 C 42.644531 39.644531 44.070312 37.714844 45.285156 35.714844 C 50.570312 27 58.714844 23.785156 68.429688 23.429688 C 70.355469 23.355469 71.070312 24 71.570312 25.855469 C 74.070312 35 73.929688 43.714844 67.570312 51.5 C 66.5 52.785156 65.644531 54.285156 64.5 55.429688 C 62.144531 57.855469 60.929688 60.214844 62.144531 64.070312 C 63.714844 68.855469 61.355469 75.570312 57.929688 79.355469 C 56.855469 76.429688 56.429688 73.285156 54.355469 70.855469 C 53.429688 69.855469 52.429688 70.070312 51.355469 69.785156 C 46.855469 68.644531 45.355469 72.214844 42.855469 74.214844 C 41.285156 75.5 39.644531 76.644531 37.714844 77.355469 C 33.285156 79 30.355469 76.855469 30.714844 72.144531 C 31 68.644531 32.144531 65.429688 33.929688 62.429688 C 34.5 61.5 34.5 60.714844 34.214844 59.429688 C 32.644531 52.070312 27.070312 54.144531 21.570312 54.144531 Z M 71.214844 35.214844 C 70.929688 33.355469 70.429688 30.285156 69.929688 27.214844 C 69.714844 25.855469 69.144531 25.144531 67.570312 25.285156 C 59.285156 26.144531 52.144531 28.714844 47.285156 36.144531 C 43.144531 42.5 39.429688 49.144531 35.855469 55.785156 C 35.285156 56.929688 34.855469 57.714844 36.355469 58.644531 C 40.644531 61.5 44.785156 64.429688 48.855469 67.5 C 50.144531 68.429688 50.855469 68 51.785156 67 C 57.355469 60.929688 62.785156 54.855469 67.429688 48.070312 C 69.855469 44.570312 71.144531 40.644531 71.214844 35.214844 Z M 37.714844 73.144531 C 40.285156 73.144531 45.785156 69.5 45.714844 68.070312 C 45.714844 67.570312 38.144531 61.785156 37.570312 62.070312 C 34.785156 63.5 34.714844 66.355469 34.429688 68.929688 C 34.144531 71.355469 35.355469 73 37.714844 73.144531 Z M 37.714844 73.144531 "/>
<path style=" stroke:none;fill-rule:nonzero;fill:rgb(16.470589%,14.901961%,15.294118%);fill-opacity:1;" d="M 71.214844 35.214844 C 71.144531 40.644531 69.855469 44.5 67.5 48.070312 C 62.855469 54.929688 57.355469 61 51.785156 67.070312 C 50.855469 68.070312 50.144531 68.5 48.855469 67.570312 C 44.714844 64.570312 40.570312 61.570312 36.355469 58.714844 C 34.929688 57.785156 35.285156 56.929688 35.855469 55.855469 C 39.429688 49.144531 43.144531 42.570312 47.285156 36.214844 C 52.144531 28.714844 59.285156 26.144531 67.570312 25.355469 C 69.144531 25.214844 69.714844 25.855469 69.929688 27.285156 C 70.429688 30.285156 70.929688 33.355469 71.214844 35.214844 Z M 58.355469 33.355469 C 54 33.285156 50.644531 36.5 50.5 40.855469 C 50.429688 45.285156 53.5 48.570312 57.855469 48.714844 C 62.5 48.855469 65.785156 45.644531 65.855469 41.070312 C 65.855469 36.714844 62.714844 33.429688 58.355469 33.355469 Z M 58.355469 33.355469 "/>
<path style=" stroke:none;fill-rule:nonzero;fill:rgb(17.647059%,16.470589%,16.862746%);fill-opacity:1;" d="M 37.714844 73.144531 C 35.355469 73 34.144531 71.285156 34.429688 68.929688 C 34.714844 66.355469 34.785156 63.5 37.570312 62.070312 C 38.070312 61.785156 45.644531 67.644531 45.714844 68.070312 C 45.714844 69.570312 40.285156 73.214844 37.714844 73.144531 Z M 37.714844 73.144531 "/>
<path style=" stroke:none;fill-rule:nonzero;fill:rgb(87.843138%,86.274511%,86.666667%);fill-opacity:1;" d="M 58.355469 33.355469 C 62.714844 33.429688 65.929688 36.714844 65.855469 41.144531 C 65.855469 45.714844 62.5 48.855469 57.855469 48.785156 C 53.5 48.644531 50.429688 45.355469 50.5 40.855469 C 50.570312 36.5 53.929688 33.285156 58.355469 33.355469 Z M 64 40.929688 C 63.929688 38 61.144531 35.285156 58.214844 35.285156 C 55.070312 35.285156 52.355469 38.070312 52.429688 41.214844 C 52.5 44.285156 55.144531 46.855469 58.144531 46.855469 C 61.285156 46.855469 64.070312 44.070312 64 40.929688 Z M 64 40.929688 "/>
<path style=" stroke:none;fill-rule:nonzero;fill:rgb(18.82353%,17.254902%,17.647059%);fill-opacity:1;" d="M 64 40.929688 C 64.070312 44.070312 61.285156 46.855469 58.214844 46.855469 C 55.214844 46.855469 52.570312 44.285156 52.5 41.214844 C 52.429688 38.070312 55.144531 35.285156 58.285156 35.285156 C 61.144531 35.214844 63.929688 38 64 40.929688 Z M 64 40.929688 "/>
</g>
</svg>
