<?xml version="1.0" encoding="UTF-8"?>
<svg xmlns="http://www.w3.org/2000/svg" xmlns:xlink="http://www.w3.org/1999/xlink" width="100px" height="100px" viewBox="0 0 100 100" version="1.1">
<g id="surface1">
<path style=" stroke:none;fill-rule:nonzero;fill:rgb(100%,100%,100%);fill-opacity:1;" d="M 0.46875 100.703125 C 0.46875 67.449219 0.46875 33.957031 0.46875 0.703125 C 33.722656 0.703125 67.214844 0.703125 100.46875 0.703125 C 100.46875 33.957031 100.46875 67.449219 100.46875 100.703125 C 67.214844 100.703125 33.957031 100.703125 0.46875 100.703125 Z M 12.414062 23.886719 C 12.414062 24.824219 12.179688 25.058594 12.179688 25.527344 C 12.179688 42.855469 12.179688 60.421875 12.179688 77.75 C 12.179688 78.6875 13.113281 80.09375 14.050781 80.5625 C 22.714844 85.011719 31.382812 88.992188 39.8125 93.207031 C 40.515625 93.441406 40.984375 93.675781 41.921875 94.144531 C 41.921875 75.878906 41.921875 57.84375 41.921875 39.578125 C 41.921875 38.875 40.984375 37.9375 40.28125 37.472656 C 36.066406 35.363281 31.851562 33.253906 27.402344 31.148438 C 22.714844 28.804688 17.796875 26.464844 12.414062 23.886719 Z M 88.054688 22.949219 C 78.21875 26.230469 68.617188 29.507812 59.25 32.785156 C 58.546875 33.019531 57.84375 34.425781 57.84375 35.363281 C 57.84375 44.261719 57.84375 53.394531 57.84375 62.296875 C 57.84375 63.933594 58.546875 64.636719 59.953125 65.339844 C 68.617188 69.554688 77.285156 73.769531 85.714844 77.984375 C 86.417969 78.21875 87.121094 78.453125 88.054688 78.921875 C 88.054688 60.1875 88.054688 41.6875 88.054688 22.949219 Z M 14.285156 21.546875 C 23.652344 26.230469 32.785156 30.679688 41.6875 34.894531 C 42.390625 35.128906 43.558594 34.894531 44.261719 34.660156 C 50.117188 32.785156 55.972656 30.679688 62.0625 28.570312 C 70.492188 25.761719 79.15625 22.714844 87.585938 19.90625 C 87.355469 19.671875 87.355469 19.4375 87.121094 19.203125 C 78.453125 14.988281 69.789062 10.773438 61.125 6.558594 C 60.1875 6.089844 59.015625 6.324219 58.078125 6.558594 C 51.523438 8.664062 45.199219 11.007812 38.640625 13.113281 C 30.914062 15.925781 22.714844 18.734375 14.285156 21.546875 Z M 14.285156 21.546875 "/>
<path style=" stroke:none;fill-rule:nonzero;fill:rgb(0%,0%,0%);fill-opacity:1;" d="M 12.414062 23.886719 C 17.5625 26.464844 22.714844 29.039062 27.632812 31.382812 C 31.851562 33.488281 36.300781 35.597656 40.515625 37.703125 C 41.21875 38.171875 42.15625 39.109375 42.15625 39.8125 C 42.15625 57.84375 42.15625 75.878906 42.15625 94.378906 C 41.21875 94.144531 40.515625 93.910156 40.046875 93.441406 C 31.382812 89.226562 22.714844 85.011719 14.285156 80.796875 C 13.347656 80.328125 12.414062 78.921875 12.414062 77.984375 C 12.414062 60.65625 12.414062 43.089844 12.414062 25.761719 C 12.414062 25.058594 12.414062 24.824219 12.414062 23.886719 Z M 12.414062 23.886719 "/>
<path style=" stroke:none;fill-rule:nonzero;fill:rgb(0%,0%,0%);fill-opacity:1;" d="M 88.054688 22.949219 C 88.054688 41.921875 88.054688 60.1875 88.054688 78.921875 C 87.121094 78.6875 86.417969 78.453125 85.714844 77.984375 C 77.050781 73.769531 68.382812 69.554688 59.953125 65.339844 C 58.546875 64.636719 57.84375 63.933594 57.84375 62.296875 C 57.84375 53.394531 57.84375 44.261719 57.84375 35.363281 C 57.84375 34.425781 58.546875 33.019531 59.25 32.785156 C 68.851562 29.273438 78.21875 26.230469 88.054688 22.949219 Z M 88.054688 22.949219 "/>
<path style=" stroke:none;fill-rule:nonzero;fill:rgb(0%,0%,0%);fill-opacity:1;" d="M 14.285156 21.546875 C 22.714844 18.734375 30.914062 15.925781 38.875 13.347656 C 45.433594 11.242188 51.757812 8.898438 58.3125 6.792969 C 59.25 6.558594 60.65625 6.324219 61.359375 6.792969 C 70.023438 11.007812 78.6875 15.222656 87.355469 19.4375 C 87.585938 19.4375 87.585938 19.671875 87.820312 20.140625 C 79.15625 22.949219 70.726562 25.996094 62.296875 28.804688 C 56.441406 30.914062 50.585938 32.785156 44.496094 34.894531 C 43.558594 35.128906 42.621094 35.363281 41.921875 35.128906 C 32.785156 30.679688 23.652344 26.230469 14.285156 21.546875 Z M 14.285156 21.546875 "/>
</g>
</svg>
