<?xml version="1.0" encoding="UTF-8"?>
<svg xmlns="http://www.w3.org/2000/svg" xmlns:xlink="http://www.w3.org/1999/xlink" width="100px" height="100px" viewBox="0 0 100 100" version="1.1">
<g id="surface1">
<path style=" stroke:none;fill-rule:nonzero;fill:rgb(0%,41.568628%,89.019608%);fill-opacity:1;" d="M 100 50 C 100 77.613281 77.613281 100 50 100 C 22.386719 100 0 77.613281 0 50 C 0 22.386719 22.386719 0 50 0 C 77.613281 0 100 22.386719 100 50 Z M 100 50 "/>
<path style=" stroke:none;fill-rule:nonzero;fill:rgb(100%,100%,100%);fill-opacity:1;" d="M 47.53125 69.875 L 47.53125 30.480469 L 51.820312 30.480469 L 51.820312 69.875 Z M 47.53125 69.875 "/>
<path style=" stroke:none;fill-rule:nonzero;fill:rgb(100%,100%,100%);fill-opacity:1;" d="M 69.367188 43.605469 L 56.117188 47.117188 L 53.164062 33.367188 L 57.101562 32.480469 L 58.65625 38.992188 C 58.65625 38.992188 62.234375 33.125 57.460938 27.042969 C 54.648438 23.917969 53.316406 23.789062 50.164062 23.292969 C 47.386719 22.898438 40.9375 23.835938 39.015625 31.363281 C 38.203125 36.210938 39.117188 39.800781 45.367188 44.496094 L 45.019531 49.726562 C 45.019531 49.726562 38.039062 44.808594 36.242188 41.363281 C 34.851562 38.632812 32.460938 33.246094 36.773438 25.746094 C 39.089844 21.996094 43.664062 18.398438 51.726562 18.777344 C 55.773438 18.945312 65.671875 23.902344 64.136719 35.472656 C 63.871094 37.640625 62.746094 40.527344 62.746094 40.527344 L 68.183594 39.320312 Z M 61.800781 74.429688 C 59.375 78.117188 54.707031 81.585938 46.664062 81.003906 C 42.613281 80.726562 32.859375 75.507812 34.695312 63.984375 C 35.019531 61.828125 36.222656 58.976562 36.222656 58.976562 L 30.757812 60.039062 L 29.6875 55.726562 L 43.03125 52.566406 L 45.625 66.390625 L 41.65625 67.179688 L 40.273438 60.617188 C 40.273438 60.617188 36.542969 66.382812 41.148438 72.59375 C 43.871094 75.792969 45.199219 75.957031 48.351562 76.53125 C 51.109375 77.007812 57.585938 76.230469 59.707031 68.757812 C 60.644531 63.9375 59.820312 60.320312 53.703125 55.453125 L 54.195312 50.234375 C 54.195312 50.234375 61.039062 55.328125 62.746094 58.824219 C 64.054688 61.601562 66.296875 67.054688 61.800781 74.429688 Z M 61.800781 74.429688 "/>
</g>
</svg>
