<?xml version="1.0" encoding="UTF-8"?>
<svg xmlns="http://www.w3.org/2000/svg" xmlns:xlink="http://www.w3.org/1999/xlink" width="100px" height="100px" viewBox="0 0 100 100" version="1.1">
<g id="surface1">
<path style=" stroke:none;fill-rule:evenodd;fill:rgb(0%,0%,0%);fill-opacity:1;" d="M 50 100 C 22.382812 100 0 77.617188 0 50 C 0 22.382812 22.382812 0 50 0 C 77.617188 0 100 22.382812 100 50 C 100 77.617188 77.617188 100 50 100 Z M 49.90625 16.359375 C 40.933594 16.355469 32.328125 19.917969 25.984375 26.261719 C 19.640625 32.605469 16.082031 41.210938 16.085938 50.183594 C 16.085938 53.941406 16.726562 57.515625 17.828125 60.910156 L 27.914062 60.910156 L 27.914062 32.492188 L 49.914062 54.492188 L 71.914062 32.492188 L 71.914062 60.910156 L 81.992188 60.910156 C 83.136719 57.449219 83.726562 53.828125 83.738281 50.183594 C 83.738281 31.484375 68.613281 16.359375 49.914062 16.359375 Z M 44.867188 59.4375 L 35.242188 49.8125 L 35.242188 67.6875 L 21.035156 67.6875 C 26.992188 77.40625 37.714844 83.914062 49.910156 83.914062 C 62.101562 83.914062 72.914062 77.40625 78.785156 67.6875 L 64.574219 67.6875 L 64.574219 49.8125 L 55.042969 59.4375 L 50 64.484375 L 44.867188 59.441406 Z M 44.867188 59.4375 "/>
</g>
</svg>
