<?xml version="1.0" encoding="UTF-8"?>
<svg xmlns="http://www.w3.org/2000/svg" xmlns:xlink="http://www.w3.org/1999/xlink" width="100px" height="100px" viewBox="0 0 100 100" version="1.1">
<g id="surface1">
<path style=" stroke:none;fill-rule:nonzero;fill:rgb(100%,0%,47.843137%);fill-opacity:1;" d="M 100 50 C 100 77.613281 77.613281 100 50 100 C 22.386719 100 0 77.613281 0 50 C 0 22.386719 22.386719 0 50 0 C 77.613281 0 100 22.386719 100 50 Z M 100 50 "/>
<path style=" stroke:none;fill-rule:nonzero;fill:rgb(100%,100%,100%);fill-opacity:1;" d="M 38.316406 18.023438 C 37.425781 17.882812 37.386719 17.867188 37.804688 17.804688 C 38.609375 17.679688 40.507812 17.851562 41.820312 18.160156 C 44.871094 18.886719 47.648438 20.746094 50.617188 24.050781 L 51.40625 24.925781 L 52.53125 24.746094 C 57.28125 23.980469 62.117188 24.589844 66.15625 26.457031 C 67.269531 26.96875 69.023438 27.992188 69.242188 28.257812 C 69.3125 28.335938 69.441406 28.878906 69.523438 29.453125 C 69.824219 31.445312 69.675781 32.96875 69.070312 34.109375 C 68.738281 34.726562 68.71875 34.921875 68.941406 35.453125 C 69.15625 35.902344 69.605469 36.1875 70.101562 36.191406 C 71.109375 36.191406 72.191406 34.566406 72.691406 32.304688 L 72.890625 31.410156 L 73.285156 31.855469 C 75.445312 34.304688 77.144531 37.648438 77.433594 40.023438 L 77.511719 40.644531 L 77.148438 40.082031 C 76.523438 39.113281 75.898438 38.449219 75.089844 37.914062 C 73.640625 36.957031 72.105469 36.632812 68.042969 36.414062 C 64.375 36.222656 62.296875 35.910156 60.242188 35.238281 C 56.738281 34.097656 54.972656 32.574219 50.808594 27.117188 C 48.960938 24.691406 47.820312 23.351562 46.683594 22.273438 C 44.101562 19.816406 41.5625 18.527344 38.316406 18.023438 Z M 38.316406 18.023438 "/>
<path style=" stroke:none;fill-rule:nonzero;fill:rgb(100%,100%,100%);fill-opacity:1;" d="M 70.070312 23.4375 C 70.164062 21.8125 70.382812 20.742188 70.824219 19.761719 C 71 19.375 71.164062 19.054688 71.191406 19.054688 C 71.164062 19.277344 71.105469 19.488281 71.019531 19.695312 C 70.695312 20.644531 70.644531 21.945312 70.867188 23.453125 C 71.148438 25.371094 71.308594 25.648438 73.335938 27.71875 C 74.289062 28.691406 75.394531 29.914062 75.792969 30.445312 L 76.523438 31.398438 L 75.792969 30.714844 C 74.902344 29.882812 72.851562 28.246094 72.398438 28.015625 C 72.097656 27.859375 72.050781 27.863281 71.863281 28.046875 C 71.691406 28.222656 71.652344 28.476562 71.632812 29.699219 C 71.59375 31.601562 71.335938 32.824219 70.707031 34.042969 C 70.367188 34.699219 70.316406 34.5625 70.621094 33.816406 C 70.851562 33.257812 70.871094 33.015625 70.871094 31.175781 C 70.871094 27.476562 70.429688 26.585938 67.851562 25.0625 C 67.078125 24.613281 66.28125 24.199219 65.464844 23.824219 C 65.0625 23.664062 64.671875 23.472656 64.296875 23.257812 C 64.367188 23.183594 66.882812 23.914062 67.890625 24.304688 C 69.398438 24.882812 69.644531 24.960938 69.828125 24.886719 C 69.949219 24.839844 70.007812 24.484375 70.070312 23.4375 Z M 40.046875 29.765625 C 38.238281 27.273438 37.117188 23.453125 37.359375 20.597656 L 37.433594 19.710938 L 37.847656 19.789062 C 38.621094 19.929688 39.957031 20.425781 40.582031 20.804688 C 42.292969 21.847656 43.039062 23.21875 43.789062 26.738281 C 44.011719 27.769531 44.304688 28.933594 44.4375 29.332031 C 44.648438 29.964844 45.460938 31.449219 46.125 32.414062 C 46.601562 33.109375 46.28125 33.4375 45.230469 33.34375 C 43.625 33.195312 41.449219 31.695312 40.046875 29.765625 Z M 67.875 48.3125 C 59.414062 44.90625 56.4375 41.949219 56.4375 36.960938 C 56.4375 36.226562 56.460938 35.628906 56.492188 35.628906 C 56.523438 35.628906 56.851562 35.867188 57.21875 36.164062 C 58.933594 37.539062 60.855469 38.128906 66.171875 38.902344 C 69.300781 39.363281 71.0625 39.730469 72.6875 40.269531 C 77.851562 41.980469 81.042969 45.457031 81.804688 50.1875 C 82.023438 51.5625 81.898438 54.140625 81.539062 55.5 C 81.257812 56.574219 80.390625 58.507812 80.164062 58.585938 C 80.101562 58.601562 80.039062 58.363281 80.019531 58.027344 C 79.929688 56.253906 79.035156 54.523438 77.523438 53.226562 C 75.808594 51.753906 73.507812 50.578125 67.871094 48.3125 Z M 61.9375 49.726562 C 61.835938 49.121094 61.699219 48.523438 61.527344 47.9375 L 61.308594 47.292969 L 61.710938 47.742188 C 62.265625 48.367188 62.707031 49.164062 63.074219 50.226562 C 63.359375 51.035156 63.390625 51.273438 63.386719 52.589844 C 63.386719 53.882812 63.351562 54.152344 63.089844 54.882812 C 62.726562 55.957031 62.113281 56.929688 61.304688 57.722656 C 59.757812 59.296875 57.773438 60.164062 54.90625 60.527344 C 54.40625 60.589844 52.957031 60.695312 51.679688 60.761719 C 48.460938 60.929688 46.34375 61.273438 44.441406 61.945312 C 44.269531 62.019531 44.085938 62.066406 43.898438 62.074219 C 43.820312 61.996094 45.117188 61.226562 46.1875 60.710938 C 47.695312 59.980469 49.195312 59.585938 52.5625 59.023438 C 54.226562 58.746094 55.945312 58.414062 56.378906 58.277344 C 60.496094 57.015625 62.613281 53.757812 61.933594 49.726562 Z M 61.9375 49.726562 "/>
<path style=" stroke:none;fill-rule:nonzero;fill:rgb(100%,100%,100%);fill-opacity:1;" d="M 65.8125 56.613281 C 64.6875 54.195312 64.429688 51.863281 65.046875 49.6875 C 65.113281 49.457031 65.21875 49.265625 65.28125 49.265625 C 65.492188 49.34375 65.691406 49.449219 65.871094 49.585938 C 66.390625 49.933594 67.429688 50.523438 70.195312 52.027344 C 73.648438 53.914062 75.617188 55.371094 76.957031 57.035156 C 78.128906 58.492188 78.851562 60.15625 79.203125 62.179688 C 79.398438 63.328125 79.285156 66.085938 78.992188 67.242188 C 78.0625 70.886719 75.902344 73.75 72.828125 75.417969 C 72.539062 75.585938 72.238281 75.734375 71.929688 75.867188 C 71.882812 75.867188 72.046875 75.449219 72.292969 74.9375 C 73.324219 72.773438 73.445312 70.667969 72.664062 68.324219 C 72.183594 66.890625 71.207031 65.136719 69.234375 62.179688 C 66.941406 58.742188 66.378906 57.824219 65.8125 56.613281 Z M 34.039062 69.648438 C 37.179688 66.996094 41.085938 65.117188 44.644531 64.539062 C 46.175781 64.289062 48.730469 64.386719 50.148438 64.75 C 52.425781 65.332031 54.460938 66.636719 55.523438 68.191406 C 56.554688 69.710938 57 71.035156 57.460938 73.976562 C 57.648438 75.140625 57.84375 76.304688 57.902344 76.570312 C 58.246094 78.097656 58.925781 79.320312 59.761719 79.929688 C 61.089844 80.902344 63.382812 80.960938 65.632812 80.085938 C 65.867188 79.980469 66.113281 79.902344 66.367188 79.855469 C 66.449219 79.9375 65.320312 80.695312 64.519531 81.097656 C 63.574219 81.601562 62.515625 81.859375 61.445312 81.839844 C 59.382812 81.839844 57.671875 80.792969 56.242188 78.652344 C 55.960938 78.230469 55.332031 76.972656 54.835938 75.851562 C 53.332031 72.414062 52.585938 71.363281 50.835938 70.214844 C 49.308594 69.214844 47.34375 69.039062 45.867188 69.761719 C 43.921875 70.714844 43.382812 73.199219 44.773438 74.773438 C 45.324219 75.398438 46.355469 75.9375 47.199219 76.039062 C 47.945312 76.140625 48.695312 75.910156 49.257812 75.414062 C 49.820312 74.914062 50.140625 74.199219 50.132812 73.445312 C 50.132812 72.410156 49.734375 71.820312 48.734375 71.367188 C 47.367188 70.753906 45.898438 71.472656 45.90625 72.757812 C 45.910156 73.304688 46.148438 73.648438 46.695312 73.898438 C 47.050781 74.054688 47.054688 74.070312 46.769531 74.007812 C 45.515625 73.746094 45.222656 72.238281 46.230469 71.234375 C 47.441406 70.027344 49.945312 70.558594 50.804688 72.203125 C 51.164062 72.894531 51.207031 74.273438 50.890625 75.101562 C 50.1875 76.960938 48.132812 77.9375 46.046875 77.40625 C 44.628906 77.042969 44.050781 76.652344 42.339844 74.890625 C 39.367188 71.828125 38.214844 71.234375 33.929688 70.566406 L 33.105469 70.4375 L 34.042969 69.648438 Z M 34.039062 69.648438 "/>
<path style=" stroke:none;fill-rule:evenodd;fill:rgb(100%,100%,100%);fill-opacity:1;" d="M 19.363281 10.46875 L 19.664062 10.835938 C 31.25 25.023438 37.238281 32.382812 37.617188 32.910156 C 38.242188 33.777344 38.007812 34.554688 36.933594 35.167969 C 36.335938 35.507812 35.105469 35.851562 34.492188 35.851562 C 33.796875 35.851562 33.011719 35.519531 32.441406 34.976562 C 32.039062 34.59375 30.410156 32.164062 26.648438 26.328125 C 24.890625 23.570312 23.105469 20.828125 21.300781 18.101562 C 21.148438 17.957031 21.148438 17.960938 26.355469 27.273438 C 29.625 33.125 30.730469 35.191406 30.730469 35.46875 C 30.730469 36.03125 30.574219 36.324219 29.882812 37.101562 C 28.726562 38.390625 28.210938 39.839844 27.835938 42.839844 C 27.414062 46.207031 26.242188 48.582031 22.976562 52.648438 C 21.070312 55.027344 20.757812 55.464844 20.273438 56.425781 C 19.667969 57.632812 19.503906 58.308594 19.433594 59.835938 C 19.363281 61.445312 19.503906 62.492188 19.996094 64.03125 C 20.429688 65.382812 20.878906 66.273438 22.027344 68.054688 C 23.023438 69.597656 23.59375 70.742188 23.59375 71.1875 C 23.59375 71.542969 23.664062 71.542969 25.203125 71.195312 C 28.886719 70.367188 31.878906 68.898438 33.5625 67.105469 C 34.601562 65.996094 34.847656 65.382812 34.855469 63.863281 C 34.859375 62.867188 34.824219 62.660156 34.554688 62.085938 C 34.117188 61.15625 33.320312 60.382812 31.566406 59.179688 C 29.261719 57.605469 28.28125 56.335938 28.007812 54.597656 C 27.785156 53.167969 28.042969 52.160156 29.320312 49.492188 C 30.632812 46.726562 30.960938 45.554688 31.183594 42.769531 C 31.324219 40.96875 31.523438 40.257812 32.039062 39.691406 C 32.578125 39.097656 33.066406 38.894531 34.398438 38.710938 C 36.574219 38.414062 37.960938 37.851562 39.097656 36.804688 C 40.085938 35.894531 40.496094 35.015625 40.558594 33.695312 L 40.609375 32.695312 L 40.054688 32.054688 C 39.261719 31.128906 32.695312 23.882812 20.355469 10.316406 L 20.023438 9.957031 L 19.363281 10.472656 Z M 24.71875 61.664062 C 25.171875 60.863281 24.933594 59.847656 24.175781 59.332031 C 23.460938 58.855469 22.351562 59.082031 22.351562 59.699219 C 22.351562 59.886719 22.457031 60.023438 22.691406 60.148438 C 23.085938 60.351562 23.117188 60.582031 22.804688 61.046875 C 22.492188 61.523438 22.515625 61.941406 22.878906 62.226562 C 23.460938 62.679688 24.285156 62.429688 24.722656 61.664062 Z M 41.980469 39.238281 C 40.960938 39.550781 39.96875 40.632812 39.660156 41.769531 C 39.472656 42.460938 39.578125 43.675781 39.859375 44.050781 C 40.3125 44.65625 40.753906 44.816406 41.941406 44.804688 C 44.265625 44.789062 46.285156 43.792969 46.523438 42.546875 C 46.714844 41.523438 45.824219 40.109375 44.601562 39.484375 C 43.972656 39.164062 42.632812 39.039062 41.980469 39.238281 Z M 44.699219 41.363281 C 45.058594 40.851562 44.898438 40.300781 44.292969 39.929688 C 43.132812 39.222656 41.375 39.804688 41.375 40.90625 C 41.375 41.449219 42.289062 42.046875 43.128906 42.046875 C 43.691406 42.046875 44.453125 41.710938 44.699219 41.363281 Z M 44.699219 41.363281 "/>
</g>
</svg>
