<?xml version="1.0" encoding="UTF-8"?>
<svg xmlns="http://www.w3.org/2000/svg" xmlns:xlink="http://www.w3.org/1999/xlink" width="100px" height="100px" viewBox="0 0 100 100" version="1.1">
<g id="surface1">
<path style=" stroke:none;fill-rule:evenodd;fill:rgb(0%,0%,0%);fill-opacity:1;" d="M 50 100 C 22.382812 100 0 77.617188 0 50 C 0 22.382812 22.382812 0 50 0 C 77.617188 0 100 22.382812 100 50 C 100 77.617188 77.617188 100 50 100 Z M 72.464844 43.8125 C 73.445312 37.261719 68.457031 33.742188 61.636719 31.390625 L 63.851562 22.515625 L 58.449219 21.171875 L 56.292969 29.8125 C 54.875 29.457031 53.417969 29.125 51.964844 28.792969 L 54.136719 20.097656 L 48.738281 18.75 L 46.523438 27.621094 C 45.351562 27.351562 44.195312 27.089844 43.074219 26.808594 L 43.082031 26.78125 L 35.632812 24.921875 L 34.195312 30.691406 C 34.195312 30.691406 38.203125 31.609375 38.117188 31.664062 C 40.304688 32.210938 40.699219 33.660156 40.632812 34.808594 L 38.117188 44.917969 C 38.265625 44.957031 38.460938 45.011719 38.679688 45.097656 L 38.105469 44.957031 L 34.574219 59.117188 C 34.304688 59.78125 33.628906 60.777344 32.097656 60.398438 C 32.152344 60.476562 28.171875 59.421875 28.171875 59.421875 L 25.492188 65.601562 L 32.523438 67.355469 C 33.828125 67.683594 35.109375 68.027344 36.367188 68.351562 L 34.132812 77.324219 L 39.53125 78.667969 L 41.742188 69.792969 C 43.21875 70.191406 44.648438 70.558594 46.050781 70.910156 L 43.84375 79.746094 L 49.242188 81.089844 L 51.476562 72.132812 C 60.691406 73.878906 67.617188 73.175781 70.53125 64.84375 C 72.882812 58.136719 70.414062 54.265625 65.570312 51.742188 C 69.101562 50.929688 71.757812 48.609375 72.464844 43.8125 Z M 60.121094 61.117188 C 58.457031 67.828125 47.160156 64.199219 43.496094 63.289062 L 46.464844 51.398438 C 50.128906 52.316406 61.867188 54.125 60.121094 61.117188 Z M 61.792969 43.714844 C 60.273438 49.820312 50.871094 46.714844 47.824219 45.957031 L 50.511719 35.175781 C 53.558594 35.933594 63.382812 37.351562 61.792969 43.714844 Z M 61.792969 43.714844 "/>
</g>
</svg>
