<?xml version="1.0" encoding="UTF-8"?>
<svg xmlns="http://www.w3.org/2000/svg" xmlns:xlink="http://www.w3.org/1999/xlink" width="100px" height="100px" viewBox="0 0 100 100" version="1.1">
<g id="surface1">
<path style=" stroke:none;fill-rule:nonzero;fill:rgb(100%,100%,99.607843%);fill-opacity:1;" d="M 0.714844 50.285156 C 0.714844 34.355469 0.714844 18.355469 0.714844 2.429688 C 0.714844 0.714844 0.644531 -0.0703125 2.929688 -0.0703125 C 34.855469 0 66.714844 0 98.644531 -0.0703125 C 100.570312 -0.0703125 100.785156 0.5 100.785156 2.144531 C 100.714844 34.285156 100.714844 66.429688 100.785156 98.570312 C 100.785156 100.5 100.214844 100.714844 98.570312 100.714844 C 66.644531 100.644531 34.785156 100.644531 2.855469 100.714844 C 0.929688 100.714844 0.714844 100.144531 0.714844 98.5 C 0.714844 82.429688 0.714844 66.355469 0.714844 50.285156 Z M 0.714844 50.285156 "/>
<path style=" stroke:none;fill-rule:nonzero;fill:rgb(14.117648%,12.54902%,12.54902%);fill-opacity:1;" d="M 98.214844 50.929688 C 97.5 78.355469 76.144531 98.644531 48.785156 98 C 22.714844 97.355469 2.070312 75.285156 2.929688 48.5 C 3.785156 22.429688 26.070312 1.429688 53.714844 2.785156 C 78 3.929688 98.855469 26.070312 98.214844 50.929688 Z M 98.214844 50.929688 "/>
<path style=" stroke:none;fill-rule:nonzero;fill:rgb(99.607843%,99.215686%,99.215686%);fill-opacity:1;" d="M 48.070312 65.714844 C 56.144531 65.714844 63.855469 65.785156 71.5 65.714844 C 73.714844 65.714844 74.570312 65.785156 73.785156 68.5 C 71.644531 75.785156 71.855469 75.855469 64.214844 75.855469 C 53.5 75.855469 42.785156 75.785156 32.070312 75.929688 C 29.570312 75.929688 29.070312 75.429688 29.855469 73 C 31.214844 68.855469 32.144531 64.570312 33.285156 60.214844 C 31.285156 59.929688 29.714844 61.5 27.570312 61.355469 C 28.429688 57.355469 28.5 53.070312 33.855469 52.5 C 35.929688 52.285156 35.855469 50.429688 36.285156 49.070312 C 38.285156 41.855469 40.285156 34.714844 42 27.429688 C 42.644531 24.855469 43.714844 24.070312 46.285156 24.214844 C 49.5 24.429688 52.714844 24.429688 55.929688 24.214844 C 58.355469 24.070312 59 24.644531 58.285156 27.144531 C 56.570312 33 55.070312 38.929688 53.429688 45.214844 C 56.144531 44.285156 58.429688 43.5 60.785156 42.714844 C 60.855469 48.070312 58.785156 51.355469 53.5 52.285156 C 51.855469 52.570312 50.929688 53.570312 50.570312 55.429688 C 50 58.785156 49 62.070312 48.070312 65.714844 Z M 48.070312 65.714844 "/>
</g>
</svg>
