<?xml version="1.0" encoding="UTF-8"?>
<svg xmlns="http://www.w3.org/2000/svg" xmlns:xlink="http://www.w3.org/1999/xlink" width="100px" height="100px" viewBox="0 0 100 100" version="1.1">
<g id="surface1">
<path style=" stroke:none;fill-rule:nonzero;fill:rgb(0%,0%,0%);fill-opacity:1;" d="M 50 100 C 22.382812 100 0 77.617188 0 50 C 0 22.382812 22.382812 0 50 0 C 77.617188 0 100 22.382812 100 50 C 100 77.617188 77.617188 100 50 100 Z M 33.039062 36.085938 L 25.320312 71.347656 C 25.203125 71.792969 25.402344 72.257812 25.804688 72.480469 L 49.46875 87.308594 C 49.644531 87.417969 49.832031 87.464844 50.007812 87.464844 C 50.203125 87.46875 50.390625 87.414062 50.554688 87.308594 L 74.21875 72.480469 C 74.617188 72.257812 74.816406 71.789062 74.699219 71.347656 L 66.980469 36.085938 C 66.953125 35.9375 66.890625 35.796875 66.800781 35.679688 L 50.832031 13.859375 C 50.644531 13.59375 50.335938 13.4375 50.007812 13.445312 C 49.683594 13.4375 49.378906 13.59375 49.191406 13.859375 L 33.222656 35.679688 C 33.128906 35.800781 33.066406 35.941406 33.039062 36.085938 Z M 28.679688 65.355469 L 34.199219 40.136719 L 37.355469 50.046875 Z M 28.003906 70.605469 L 38.179688 52.644531 L 43.898438 70.601562 L 28 70.601562 Z M 29.769531 72.605469 L 44.539062 72.605469 L 48.21875 84.164062 L 29.769531 72.601562 Z M 38.695312 47.675781 L 35.125 36.460938 L 49 17.507812 L 49 29.496094 Z M 50.007812 83.203125 L 46.632812 72.601562 L 53.382812 72.601562 Z M 51.804688 84.164062 L 55.484375 72.601562 L 70.253906 72.601562 Z M 65.820312 40.136719 L 71.339844 65.355469 L 62.664062 50.046875 L 65.820312 40.140625 Z M 61.320312 47.675781 L 51.023438 29.5 L 51.023438 17.507812 L 64.898438 36.460938 Z M 72.015625 70.601562 L 56.125 70.601562 L 61.84375 52.644531 L 72.019531 70.601562 Z M 50.007812 31.769531 L 60.496094 50.273438 L 54.023438 70.601562 L 46 70.601562 L 39.523438 50.273438 Z M 50.007812 31.769531 "/>
</g>
</svg>
