<?xml version="1.0" encoding="UTF-8"?>
<svg xmlns="http://www.w3.org/2000/svg" xmlns:xlink="http://www.w3.org/1999/xlink" width="100px" height="100px" viewBox="0 0 100 100" version="1.1">
<g id="surface1">
<path style=" stroke:none;fill-rule:nonzero;fill:rgb(24.313726%,45.09804%,76.862746%);fill-opacity:1;" d="M 100 50 C 100 77.613281 77.613281 100 50 100 C 22.386719 100 0 77.613281 0 50 C 0 22.386719 22.386719 0 50 0 C 77.613281 0 100 22.386719 100 50 Z M 100 50 "/>
<path style=" stroke:none;fill-rule:nonzero;fill:rgb(100%,100%,100%);fill-opacity:1;" d="M 62.570312 56.636719 C 62.570312 50 58.570312 47.726562 50.570312 46.773438 C 44.855469 46.015625 43.714844 44.5 43.714844 41.84375 C 43.714844 39.1875 45.621094 37.480469 49.429688 37.480469 C 52.855469 37.480469 54.761719 38.617188 55.710938 41.464844 C 55.914062 42.03125 56.449219 42.40625 57.046875 42.414062 L 60.09375 42.414062 C 60.449219 42.421875 60.792969 42.285156 61.046875 42.035156 C 61.296875 41.785156 61.4375 41.441406 61.429688 41.085938 L 61.429688 40.898438 C 60.664062 36.660156 57.144531 33.46875 52.855469 33.117188 L 52.855469 28.570312 C 52.855469 27.808594 52.285156 27.242188 51.335938 27.050781 L 48.476562 27.050781 C 47.714844 27.050781 47.144531 27.617188 46.953125 28.570312 L 46.953125 32.929688 C 41.238281 33.6875 37.621094 37.480469 37.621094 42.226562 C 37.621094 48.480469 41.429688 50.945312 49.429688 51.898438 C 54.761719 52.84375 56.476562 53.984375 56.476562 57.019531 C 56.476562 60.050781 53.808594 62.136719 50.191406 62.136719 C 45.238281 62.136719 43.523438 60.054688 42.953125 57.207031 C 42.765625 56.449219 42.191406 56.070312 41.617188 56.070312 L 38.382812 56.070312 C 38.027344 56.058594 37.683594 56.195312 37.429688 56.449219 C 37.179688 56.699219 37.042969 57.042969 37.050781 57.398438 L 37.050781 57.585938 C 37.808594 62.328125 40.859375 65.742188 47.144531 66.691406 L 47.144531 71.242188 C 47.144531 72 47.714844 72.570312 48.664062 72.757812 L 51.523438 72.757812 C 52.285156 72.757812 52.855469 72.191406 53.046875 71.242188 L 53.046875 66.6875 C 58.761719 65.742188 62.570312 61.757812 62.570312 56.632812 Z M 62.570312 56.636719 "/>
<path style=" stroke:none;fill-rule:nonzero;fill:rgb(100%,100%,100%);fill-opacity:1;" d="M 40.289062 76.554688 C 25.429688 71.242188 17.8125 54.742188 23.335938 40.136719 C 26.195312 32.167969 32.476562 26.101562 40.289062 23.257812 C 41.050781 22.878906 41.429688 22.308594 41.429688 21.359375 L 41.429688 18.703125 C 41.429688 17.945312 41.050781 17.378906 40.289062 17.1875 C 40.097656 17.1875 39.714844 17.1875 39.523438 17.375 C 30.867188 20.078125 23.648438 26.125 19.464844 34.171875 C 15.28125 42.21875 14.480469 51.601562 17.242188 60.242188 C 20.667969 70.867188 28.859375 79.023438 39.523438 82.433594 C 40.289062 82.8125 41.050781 82.433594 41.238281 81.675781 C 41.429688 81.488281 41.429688 81.292969 41.429688 80.914062 L 41.429688 78.257812 C 41.429688 77.691406 40.859375 76.933594 40.289062 76.554688 Z M 60.476562 17.378906 C 59.710938 16.996094 58.949219 17.378906 58.761719 18.132812 C 58.570312 18.324219 58.570312 18.515625 58.570312 18.894531 L 58.570312 21.550781 C 58.570312 22.308594 59.140625 23.066406 59.710938 23.445312 C 74.570312 28.757812 82.1875 45.257812 76.664062 59.863281 C 73.804688 67.832031 67.523438 73.898438 59.710938 76.742188 C 58.949219 77.121094 58.570312 77.691406 58.570312 78.640625 L 58.570312 81.296875 C 58.570312 82.054688 58.949219 82.621094 59.710938 82.8125 C 59.902344 82.8125 60.285156 82.8125 60.476562 82.625 C 69.132812 79.921875 76.351562 73.875 80.535156 65.828125 C 84.71875 57.78125 85.519531 48.398438 82.757812 39.757812 C 79.332031 28.945312 70.949219 20.789062 60.476562 17.378906 Z M 60.476562 17.378906 "/>
</g>
</svg>
