<?xml version="1.0" encoding="UTF-8"?>
<svg xmlns="http://www.w3.org/2000/svg" xmlns:xlink="http://www.w3.org/1999/xlink" width="100px" height="100px" viewBox="0 0 100 100" version="1.1">
<g id="surface1">
<path style=" stroke:none;fill-rule:nonzero;fill:rgb(0%,0%,0%);fill-opacity:1;" d="M 50 0 C 77.617188 0 100 22.382812 100 50 C 100 77.617188 77.617188 100 50 100 C 22.382812 100 0 77.617188 0 50 C 0 22.382812 22.382812 0 50 0 Z M 60.476562 17.375 C 59.710938 17 58.949219 17.375 58.761719 18.132812 C 58.570312 18.324219 58.570312 18.515625 58.570312 18.894531 L 58.570312 21.550781 L 58.601562 21.875 C 58.765625 22.519531 59.160156 23.078125 59.710938 23.445312 C 74.570312 28.757812 82.1875 45.257812 76.664062 59.863281 C 73.804688 67.832031 67.523438 73.898438 59.710938 76.742188 C 58.949219 77.121094 58.570312 77.691406 58.570312 78.640625 L 58.570312 81.296875 L 58.585938 81.570312 C 58.648438 82.1875 59.105469 82.691406 59.710938 82.8125 C 59.902344 82.8125 60.285156 82.8125 60.476562 82.625 C 69.132812 79.921875 76.351562 73.875 80.535156 65.828125 C 84.71875 57.78125 85.519531 48.398438 82.757812 39.757812 C 79.332031 28.945312 70.949219 20.789062 60.476562 17.378906 Z M 40.289062 17.1875 C 40.097656 17.1875 39.714844 17.1875 39.523438 17.375 C 30.867188 20.078125 23.648438 26.125 19.464844 34.171875 C 15.28125 42.21875 14.480469 51.601562 17.242188 60.242188 C 20.667969 70.867188 28.859375 79.023438 39.523438 82.433594 C 40.289062 82.8125 41.050781 82.433594 41.238281 81.675781 C 41.429688 81.488281 41.429688 81.292969 41.429688 80.914062 L 41.429688 78.257812 L 41.398438 78.007812 C 41.265625 77.480469 40.773438 76.878906 40.289062 76.554688 C 25.429688 71.242188 17.8125 54.742188 23.335938 40.136719 C 26.195312 32.167969 32.476562 26.101562 40.289062 23.257812 C 41.050781 22.878906 41.429688 22.308594 41.429688 21.359375 L 41.429688 18.703125 L 41.414062 18.429688 C 41.351562 17.8125 40.894531 17.308594 40.289062 17.1875 Z M 51.335938 27.050781 L 48.476562 27.050781 L 48.199219 27.074219 C 47.574219 27.199219 47.117188 27.738281 46.949219 28.570312 L 46.949219 32.929688 L 46.304688 33.03125 C 40.964844 33.980469 37.621094 37.664062 37.621094 42.226562 C 37.621094 48.480469 41.429688 50.945312 49.429688 51.898438 C 54.761719 52.84375 56.476562 53.984375 56.476562 57.019531 C 56.476562 60.050781 53.808594 62.136719 50.191406 62.136719 C 45.238281 62.136719 43.523438 60.054688 42.953125 57.207031 C 42.765625 56.449219 42.191406 56.070312 41.617188 56.070312 L 38.382812 56.070312 L 38.132812 56.089844 C 37.496094 56.195312 37.035156 56.75 37.050781 57.398438 L 37.050781 57.585938 L 37.152344 58.148438 C 38.058594 62.597656 41.109375 65.78125 47.144531 66.691406 L 47.144531 71.242188 L 47.167969 71.519531 C 47.292969 72.136719 47.835938 72.59375 48.667969 72.757812 L 51.523438 72.757812 L 51.800781 72.734375 C 52.425781 72.609375 52.882812 72.070312 53.050781 71.242188 L 53.050781 66.6875 L 53.695312 66.5625 C 59.050781 65.429688 62.570312 61.558594 62.570312 56.632812 C 62.570312 49.996094 58.570312 47.722656 50.570312 46.773438 C 44.855469 46.011719 43.714844 44.496094 43.714844 41.839844 C 43.714844 39.183594 45.621094 37.476562 49.429688 37.476562 C 52.855469 37.476562 54.761719 38.617188 55.710938 41.460938 C 55.914062 42.027344 56.449219 42.402344 57.046875 42.410156 L 60.09375 42.410156 L 60.339844 42.390625 C 60.980469 42.289062 61.445312 41.730469 61.429688 41.082031 L 61.429688 40.894531 L 61.3125 40.351562 C 60.351562 36.367188 56.941406 33.453125 52.855469 33.117188 L 52.855469 28.570312 L 52.832031 28.292969 C 52.707031 27.671875 52.164062 27.214844 51.332031 27.050781 Z M 51.335938 27.050781 "/>
</g>
</svg>
