<?xml version="1.0" encoding="UTF-8"?>
<svg xmlns="http://www.w3.org/2000/svg" xmlns:xlink="http://www.w3.org/1999/xlink" width="100px" height="100px" viewBox="0 0 100 100" version="1.1">
<g id="surface1">
<path style=" stroke:none;fill-rule:nonzero;fill:rgb(100%,100%,100%);fill-opacity:1;" d="M 0.714844 50.355469 C 0.714844 34.285156 0.714844 18.214844 0.644531 2.144531 C 0.644531 0.355469 1 -0.0703125 2.785156 -0.0703125 C 34.714844 0 66.644531 0 98.570312 0 C 100.355469 0 100.785156 0.355469 100.785156 2.144531 C 100.714844 34.285156 100.714844 66.429688 100.785156 98.570312 C 100.785156 100.355469 100.429688 100.785156 98.644531 100.785156 C 66.714844 100.714844 34.855469 100.714844 2.929688 100.785156 C 1.144531 100.785156 0.714844 100.429688 0.714844 98.644531 C 0.714844 82.5 0.714844 66.429688 0.714844 50.355469 Z M 0.714844 50.355469 "/>
<path style=" stroke:none;fill-rule:nonzero;fill:rgb(14.117648%,12.54902%,12.54902%);fill-opacity:1;" d="M 98 50.5 C 97.929688 77.144531 76.855469 98 50.070312 98 C 23.644531 98 2.714844 76.644531 2.785156 49.929688 C 2.855469 23.714844 24.214844 2.714844 50.644531 2.785156 C 77 2.855469 98.070312 24.144531 98 50.5 Z M 98 50.5 "/>
<path style=" stroke:none;fill-rule:nonzero;fill:rgb(98.039216%,96.470588%,96.862745%);fill-opacity:1;" d="M 23.929688 45.285156 C 22.855469 49 24 51.214844 27.144531 53.070312 C 34 57.144531 40.714844 61.429688 47.285156 65.785156 C 49.285156 67.070312 50.644531 67.214844 52.644531 65.855469 C 59.855469 61.070312 67.214844 56.5 74.570312 51.855469 C 77.644531 49.929688 78.355469 50.429688 78.714844 53.855469 C 79.144531 58 77.785156 60.644531 74.070312 62.855469 C 66.785156 67.070312 59.785156 71.785156 52.714844 76.429688 C 51 77.570312 49.644531 77.644531 47.929688 76.5 C 40.144531 71.429688 32.355469 66.5 24.570312 61.429688 C 23.785156 60.929688 22.144531 60.570312 23.070312 59.214844 C 24.070312 57.570312 25.214844 59.144531 26 59.644531 C 33.285156 64.285156 40.644531 68.929688 47.855469 73.785156 C 49.570312 74.929688 50.785156 75.144531 52.570312 73.929688 C 59.355469 69.355469 66.285156 64.929688 73.285156 60.714844 C 75.855469 59.144531 77.070312 57.285156 76.144531 53.855469 C 72.070312 56.429688 68.144531 58.929688 64.214844 61.429688 C 60.285156 63.929688 56.355469 66.285156 52.5 68.929688 C 50.785156 70.070312 49.355469 70.070312 47.644531 68.929688 C 39.855469 63.929688 32 59 24.214844 53.929688 C 20 51.144531 20.070312 44.144531 24.214844 41.355469 C 32.144531 36.144531 40.144531 31 48.070312 25.714844 C 49.929688 24.5 51.285156 24.5 53.214844 25.714844 C 61 30.785156 68.855469 35.644531 76.644531 40.644531 C 79.5 42.429688 79.5 43.5 76.714844 45.285156 C 68.714844 50.355469 60.570312 55.355469 52.644531 60.5 C 50.785156 61.714844 49.429688 61.285156 47.785156 60.285156 C 40.855469 55.785156 33.929688 51.429688 26.929688 47.070312 C 26 46.5 24.929688 45.929688 23.929688 45.285156 Z M 23.929688 45.285156 "/>
<path style=" stroke:none;fill-rule:nonzero;fill:rgb(14.117648%,12.54902%,12.54902%);fill-opacity:1;" d="M 25.285156 43.285156 C 33.429688 37.929688 41.070312 33 48.714844 28 C 49.714844 27.355469 50.714844 26.785156 51.929688 27.570312 C 59.785156 32.644531 67.644531 37.644531 75.929688 42.929688 C 67.644531 48.214844 59.644531 53.214844 51.714844 58.285156 C 50.714844 58.929688 49.785156 58.785156 48.785156 58.144531 C 41.070312 53.214844 33.355469 48.355469 25.285156 43.285156 Z M 25.285156 43.285156 "/>
</g>
</svg>
