<?xml version="1.0" encoding="UTF-8"?>
<svg xmlns="http://www.w3.org/2000/svg" xmlns:xlink="http://www.w3.org/1999/xlink" width="100px" height="100px" viewBox="0 0 100 100" version="1.1">
<g id="surface1">
<path style=" stroke:none;fill-rule:nonzero;fill:rgb(100%,100%,100%);fill-opacity:1;" d="M 50.351562 100.703125 C 34.425781 100.703125 18.5 100.703125 2.574219 100.703125 C 0.9375 100.703125 0.46875 100.46875 0.46875 98.59375 C 0.46875 66.511719 0.46875 34.425781 0.46875 2.574219 C 0.46875 0.9375 0.703125 0.46875 2.574219 0.46875 C 34.660156 0.46875 66.746094 0.46875 98.59375 0.46875 C 100.234375 0.46875 100.703125 0.703125 100.703125 2.574219 C 100.703125 34.660156 100.703125 66.746094 100.703125 98.59375 C 100.703125 100.234375 100.46875 100.703125 98.59375 100.703125 C 82.4375 100.46875 66.511719 100.703125 50.351562 100.703125 Z M 50.351562 100.703125 "/>
<path style=" stroke:none;fill-rule:nonzero;fill:rgb(3.529412%,3.529412%,3.529412%);fill-opacity:1;" d="M 81.5 85.714844 C 81.5 88.523438 78.6875 91.570312 75.878906 91.570312 C 72.832031 91.570312 70.257812 88.992188 70.023438 85.949219 C 70.023438 82.902344 72.367188 80.328125 75.644531 80.09375 C 78.6875 80.09375 81.265625 82.667969 81.5 85.714844 Z M 81.5 85.714844 "/>
<path style=" stroke:none;fill-rule:nonzero;fill:rgb(3.529412%,3.529412%,3.529412%);fill-opacity:1;" d="M 69.554688 18.734375 C 66.277344 18.734375 63.933594 16.394531 63.933594 13.113281 C 63.933594 10.070312 66.511719 7.496094 69.554688 7.496094 C 72.597656 7.496094 75.175781 10.304688 75.175781 13.347656 C 75.175781 16.394531 72.832031 18.734375 69.554688 18.734375 Z M 69.554688 18.734375 "/>
<path style=" stroke:none;fill-rule:nonzero;fill:rgb(3.529412%,3.529412%,3.529412%);fill-opacity:1;" d="M 11.476562 49.414062 C 14.519531 49.414062 17.332031 51.992188 17.332031 55.035156 C 17.332031 58.078125 14.519531 60.890625 11.710938 60.890625 C 8.664062 60.890625 6.089844 58.3125 5.855469 55.269531 C 5.855469 51.992188 8.429688 49.414062 11.476562 49.414062 Z M 11.476562 49.414062 "/>
<path style=" stroke:none;fill-rule:nonzero;fill:rgb(3.921569%,3.921569%,3.921569%);fill-opacity:1;" d="M 59.953125 89.460938 C 59.953125 92.039062 57.378906 94.378906 54.800781 94.378906 C 52.226562 94.144531 49.882812 91.804688 50.117188 89.460938 C 50.117188 86.886719 52.691406 84.542969 55.269531 84.777344 C 57.84375 84.777344 60.1875 87.121094 59.953125 89.460938 Z M 59.953125 89.460938 "/>
<path style=" stroke:none;fill-rule:nonzero;fill:rgb(3.529412%,3.529412%,3.529412%);fill-opacity:1;" d="M 83.371094 24.121094 C 86.183594 24.121094 88.289062 26.230469 88.289062 29.039062 C 88.289062 31.617188 85.949219 33.722656 83.371094 33.722656 C 80.5625 33.722656 78.453125 31.617188 78.453125 28.804688 C 78.6875 25.996094 80.5625 24.121094 83.371094 24.121094 Z M 83.371094 24.121094 "/>
<path style=" stroke:none;fill-rule:nonzero;fill:rgb(3.529412%,3.529412%,3.529412%);fill-opacity:1;" d="M 18.265625 30.210938 C 21.078125 30.210938 22.949219 32.320312 22.949219 34.894531 C 22.949219 37.703125 20.609375 39.8125 18.03125 39.8125 C 15.222656 39.8125 13.113281 37.472656 13.347656 34.660156 C 13.347656 32.085938 15.457031 30.210938 18.265625 30.210938 Z M 18.265625 30.210938 "/>
<path style=" stroke:none;fill-rule:nonzero;fill:rgb(3.921569%,3.921569%,3.921569%);fill-opacity:1;" d="M 71.429688 21.078125 C 74.003906 21.078125 76.347656 23.417969 76.347656 25.996094 C 76.347656 28.335938 74.003906 30.914062 71.429688 30.914062 C 68.851562 30.914062 66.511719 28.570312 66.511719 25.761719 C 66.511719 23.183594 68.851562 21.078125 71.429688 21.078125 Z M 71.429688 21.078125 "/>
<path style=" stroke:none;fill-rule:nonzero;fill:rgb(3.529412%,3.529412%,3.529412%);fill-opacity:1;" d="M 59.015625 80.5625 C 59.015625 77.75 61.125 75.878906 63.933594 75.878906 C 66.511719 75.878906 68.617188 78.21875 68.617188 80.796875 C 68.617188 83.605469 66.511719 85.714844 63.464844 85.480469 C 60.65625 85.480469 58.78125 83.371094 59.015625 80.5625 Z M 59.015625 80.5625 "/>
<path style=" stroke:none;fill-rule:nonzero;fill:rgb(3.529412%,3.529412%,3.529412%);fill-opacity:1;" d="M 16.863281 46.371094 C 17.097656 43.558594 19.4375 41.6875 22.25 41.921875 C 24.824219 42.15625 26.699219 44.261719 26.464844 47.074219 C 26.230469 49.648438 23.886719 51.757812 21.3125 51.523438 C 18.734375 51.523438 16.628906 48.945312 16.863281 46.371094 Z M 16.863281 46.371094 "/>
<path style=" stroke:none;fill-rule:nonzero;fill:rgb(3.921569%,3.921569%,3.921569%);fill-opacity:1;" d="M 31.382812 18.96875 C 31.382812 21.3125 29.507812 23.417969 27.167969 23.417969 C 24.824219 23.417969 22.949219 21.546875 22.949219 19.203125 C 22.949219 16.863281 24.589844 15.222656 26.933594 14.988281 C 29.273438 14.753906 31.382812 16.628906 31.382812 18.96875 Z M 31.382812 18.96875 "/>
<path style=" stroke:none;fill-rule:nonzero;fill:rgb(3.921569%,3.921569%,3.921569%);fill-opacity:1;" d="M 36.769531 84.777344 C 39.109375 84.777344 40.984375 86.886719 40.984375 88.992188 C 40.984375 91.335938 38.875 93.207031 36.535156 93.207031 C 34.425781 93.207031 32.550781 91.101562 32.550781 88.992188 C 32.550781 86.652344 34.425781 84.777344 36.769531 84.777344 Z M 36.769531 84.777344 "/>
<path style=" stroke:none;fill-rule:nonzero;fill:rgb(3.529412%,3.529412%,3.529412%);fill-opacity:1;" d="M 92.503906 40.515625 C 94.847656 40.515625 96.722656 42.621094 96.722656 44.964844 C 96.722656 47.308594 94.613281 49.179688 92.273438 48.945312 C 89.929688 48.945312 88.289062 47.074219 88.289062 44.730469 C 88.289062 42.390625 90.164062 40.515625 92.503906 40.515625 Z M 92.503906 40.515625 "/>
<path style=" stroke:none;fill-rule:nonzero;fill:rgb(3.921569%,3.921569%,3.921569%);fill-opacity:1;" d="M 28.335938 34.894531 C 26.230469 34.894531 24.121094 33.019531 24.121094 30.679688 C 24.121094 28.335938 25.996094 26.464844 28.335938 26.464844 C 30.445312 26.464844 32.550781 28.335938 32.550781 30.679688 C 32.550781 32.785156 30.679688 34.894531 28.335938 34.894531 Z M 28.335938 34.894531 "/>
<path style=" stroke:none;fill-rule:nonzero;fill:rgb(3.529412%,3.529412%,3.529412%);fill-opacity:1;" d="M 50.585938 82.4375 C 50.585938 84.542969 48.710938 86.417969 46.605469 86.652344 C 44.261719 86.652344 42.15625 85.011719 42.15625 82.667969 C 42.15625 80.328125 43.792969 78.453125 46.136719 78.453125 C 48.242188 78.21875 50.585938 80.328125 50.585938 82.4375 Z M 50.585938 82.4375 "/>
<path style=" stroke:none;fill-rule:nonzero;fill:rgb(3.921569%,3.921569%,3.921569%);fill-opacity:1;" d="M 81.96875 44.027344 C 79.625 44.027344 77.75 41.921875 77.75 39.8125 C 77.75 37.703125 79.625 35.832031 81.96875 35.832031 C 84.308594 35.832031 85.949219 37.472656 86.183594 39.8125 C 86.183594 42.15625 84.308594 44.027344 81.96875 44.027344 Z M 81.96875 44.027344 "/>
<path style=" stroke:none;fill-rule:nonzero;fill:rgb(3.921569%,3.921569%,3.921569%);fill-opacity:1;" d="M 74.238281 37.472656 C 74.238281 39.578125 72.367188 41.453125 70.257812 41.453125 C 67.914062 41.453125 66.042969 39.34375 66.277344 37.003906 C 66.277344 34.894531 68.382812 33.019531 70.492188 33.019531 C 72.367188 33.253906 74.238281 35.363281 74.238281 37.472656 Z M 74.238281 37.472656 "/>
<path style=" stroke:none;fill-rule:nonzero;fill:rgb(3.921569%,3.921569%,3.921569%);fill-opacity:1;" d="M 32.320312 46.136719 C 30.210938 46.136719 28.101562 44.496094 28.101562 42.15625 C 28.101562 39.8125 29.742188 37.9375 32.085938 37.9375 C 34.425781 37.9375 36.535156 39.8125 36.535156 41.921875 C 36.535156 44.261719 34.425781 46.136719 32.320312 46.136719 Z M 32.320312 46.136719 "/>
<path style=" stroke:none;fill-rule:nonzero;fill:rgb(3.921569%,3.921569%,3.921569%);fill-opacity:1;" d="M 54.332031 69.554688 C 56.675781 69.554688 58.3125 71.195312 58.546875 73.535156 C 58.546875 75.878906 56.910156 77.75 54.566406 77.75 C 52.226562 77.75 50.585938 76.113281 50.585938 73.769531 C 50.351562 71.429688 51.992188 69.789062 54.332031 69.554688 Z M 54.332031 69.554688 "/>
<path style=" stroke:none;fill-rule:nonzero;fill:rgb(4.705882%,4.705882%,4.705882%);fill-opacity:1;" d="M 92.273438 53.628906 C 92.039062 55.738281 90.867188 57.144531 88.523438 57.144531 C 86.417969 57.144531 85.011719 55.738281 84.777344 53.628906 C 84.542969 51.757812 86.652344 49.882812 88.523438 49.882812 C 90.867188 50.351562 92.039062 51.523438 92.273438 53.628906 Z M 92.273438 53.628906 "/>
<path style=" stroke:none;fill-rule:nonzero;fill:rgb(4.313726%,4.313726%,4.313726%);fill-opacity:1;" d="M 31.148438 77.515625 C 33.253906 77.75 34.660156 78.921875 34.894531 81.03125 C 35.128906 82.902344 33.019531 85.011719 31.148438 84.777344 C 29.039062 84.542969 27.632812 83.371094 27.867188 81.03125 C 27.632812 78.921875 29.039062 77.75 31.148438 77.515625 Z M 31.148438 77.515625 "/>
<path style=" stroke:none;fill-rule:nonzero;fill:rgb(3.921569%,3.921569%,3.921569%);fill-opacity:1;" d="M 40.515625 17.796875 C 40.28125 19.90625 39.109375 21.3125 37.003906 21.3125 C 34.660156 21.3125 33.488281 20.140625 33.253906 18.03125 C 33.019531 16.160156 34.894531 14.050781 36.769531 14.285156 C 38.875 14.519531 40.046875 15.691406 40.515625 17.796875 Z M 40.515625 17.796875 "/>
<path style=" stroke:none;fill-rule:nonzero;fill:rgb(4.705882%,4.705882%,4.705882%);fill-opacity:1;" d="M 74.707031 49.179688 C 74.707031 47.308594 76.347656 45.667969 78.21875 45.667969 C 80.09375 45.667969 81.96875 47.539062 81.96875 49.179688 C 81.96875 50.820312 80.09375 52.691406 78.21875 52.691406 C 76.582031 52.691406 74.707031 51.054688 74.707031 49.179688 Z M 74.707031 49.179688 "/>
<path style=" stroke:none;fill-rule:nonzero;fill:rgb(4.313726%,4.313726%,4.313726%);fill-opacity:1;" d="M 40.28125 71.195312 C 42.390625 71.195312 43.792969 72.367188 43.792969 74.472656 C 43.792969 76.582031 42.621094 77.984375 40.28125 77.984375 C 37.9375 77.984375 37.003906 76.582031 36.535156 74.472656 C 36.300781 72.832031 38.171875 71.195312 40.28125 71.195312 Z M 40.28125 71.195312 "/>
<path style=" stroke:none;fill-rule:nonzero;fill:rgb(4.313726%,4.313726%,4.313726%);fill-opacity:1;" d="M 41.6875 29.039062 C 41.453125 31.148438 40.28125 32.550781 38.171875 32.550781 C 36.066406 32.550781 34.660156 31.382812 34.660156 29.039062 C 34.660156 26.699219 36.066406 25.527344 38.171875 25.527344 C 40.28125 25.527344 41.453125 26.699219 41.6875 29.039062 Z M 41.6875 29.039062 "/>
<path style=" stroke:none;fill-rule:nonzero;fill:rgb(4.705882%,4.705882%,4.705882%);fill-opacity:1;" d="M 38.640625 39.8125 C 38.875 37.9375 40.046875 36.769531 41.921875 36.535156 C 43.792969 36.300781 45.433594 37.9375 45.433594 40.046875 C 45.433594 42.15625 44.027344 43.324219 42.15625 43.558594 C 40.515625 44.027344 38.640625 42.15625 38.640625 39.8125 Z M 38.640625 39.8125 "/>
<path style=" stroke:none;fill-rule:nonzero;fill:rgb(4.313726%,4.313726%,4.313726%);fill-opacity:1;" d="M 70.257812 47.074219 C 70.257812 48.710938 68.382812 50.585938 66.511719 50.585938 C 64.636719 50.585938 62.761719 48.710938 62.996094 46.839844 C 63.230469 44.964844 64.402344 43.558594 66.511719 43.558594 C 68.382812 43.324219 70.257812 45.199219 70.257812 47.074219 Z M 70.257812 47.074219 "/>
<path style=" stroke:none;fill-rule:nonzero;fill:rgb(3.921569%,3.921569%,3.921569%);fill-opacity:1;" d="M 47.773438 62.296875 C 50.117188 62.296875 51.757812 63.933594 51.523438 65.808594 C 51.289062 67.914062 50.117188 69.085938 48.007812 69.085938 C 45.902344 69.085938 44.496094 67.449219 44.730469 65.574219 C 44.964844 63.464844 46.136719 62.527344 47.773438 62.296875 Z M 47.773438 62.296875 "/>
<path style=" stroke:none;fill-rule:nonzero;fill:rgb(4.705882%,4.705882%,4.705882%);fill-opacity:1;" d="M 80.328125 60.421875 C 80.5625 58.546875 81.5 57.378906 83.371094 57.378906 C 85.246094 57.378906 86.652344 58.78125 86.417969 60.65625 C 86.417969 62.296875 85.246094 63.699219 83.136719 63.464844 C 81.265625 63.464844 80.328125 62.296875 80.328125 60.421875 Z M 80.328125 60.421875 "/>
<path style=" stroke:none;fill-rule:nonzero;fill:rgb(5.098039%,5.098039%,5.098039%);fill-opacity:1;" d="M 28.570312 70.257812 C 29.742188 70.492188 30.914062 71.429688 30.914062 73.300781 C 30.914062 75.175781 29.742188 76.347656 27.867188 76.347656 C 25.996094 76.347656 24.589844 74.941406 24.824219 73.066406 C 25.058594 71.195312 26.230469 70.023438 28.570312 70.257812 Z M 28.570312 70.257812 "/>
<path style=" stroke:none;fill-rule:nonzero;fill:rgb(4.705882%,4.705882%,4.705882%);fill-opacity:1;" d="M 48.476562 19.203125 C 48.242188 20.84375 47.308594 22.015625 45.433594 22.015625 C 43.558594 22.015625 42.390625 20.84375 42.390625 19.203125 C 42.390625 17.332031 43.558594 15.925781 45.433594 16.160156 C 47.074219 15.925781 48.242188 17.097656 48.476562 19.203125 Z M 48.476562 19.203125 "/>
<path style=" stroke:none;fill-rule:nonzero;fill:rgb(5.490196%,5.490196%,5.490196%);fill-opacity:1;" d="M 39.8125 66.746094 C 39.34375 68.382812 38.640625 69.789062 36.769531 69.789062 C 34.894531 69.789062 33.722656 68.617188 33.722656 66.980469 C 33.722656 65.105469 34.894531 63.933594 36.535156 63.933594 C 38.40625 63.699219 39.578125 64.871094 39.8125 66.746094 Z M 39.8125 66.746094 "/>
<path style=" stroke:none;fill-rule:nonzero;fill:rgb(4.705882%,4.705882%,4.705882%);fill-opacity:1;" d="M 72.832031 59.25 C 70.960938 59.015625 70.023438 57.84375 70.257812 55.972656 C 70.492188 54.332031 71.664062 53.394531 73.535156 53.628906 C 75.410156 53.863281 76.582031 55.035156 76.347656 56.910156 C 76.113281 58.3125 74.707031 59.25 72.832031 59.25 Z M 72.832031 59.25 "/>
<path style=" stroke:none;fill-rule:nonzero;fill:rgb(4.313726%,4.313726%,4.313726%);fill-opacity:1;" d="M 47.074219 26.933594 C 48.945312 27.167969 50.117188 28.335938 49.882812 29.976562 C 49.648438 31.617188 48.710938 32.785156 46.605469 32.785156 C 44.730469 32.550781 43.792969 31.617188 43.792969 29.976562 C 43.792969 27.867188 44.964844 26.933594 47.074219 26.933594 Z M 47.074219 26.933594 "/>
<path style=" stroke:none;fill-rule:nonzero;fill:rgb(5.098039%,5.098039%,5.098039%);fill-opacity:1;" d="M 47.074219 57.609375 C 46.605469 59.25 45.667969 60.65625 44.027344 60.421875 C 42.15625 60.421875 40.984375 59.25 41.21875 57.378906 C 41.21875 55.738281 42.390625 54.800781 44.261719 54.800781 C 46.136719 55.035156 46.839844 56.207031 47.074219 57.609375 Z M 47.074219 57.609375 "/>
<path style=" stroke:none;fill-rule:nonzero;fill:rgb(4.705882%,4.705882%,4.705882%);fill-opacity:1;" d="M 51.289062 43.324219 C 49.414062 43.324219 48.242188 42.390625 48.242188 40.515625 C 48.242188 38.875 49.414062 37.703125 51.054688 37.703125 C 52.691406 37.703125 53.863281 38.640625 53.863281 40.515625 C 54.097656 42.390625 53.160156 43.324219 51.289062 43.324219 Z M 51.289062 43.324219 "/>
<path style=" stroke:none;fill-rule:nonzero;fill:rgb(4.705882%,4.705882%,4.705882%);fill-opacity:1;" d="M 61.59375 51.757812 C 63.464844 51.992188 64.636719 52.925781 64.402344 54.566406 C 64.402344 56.207031 63.230469 57.378906 61.59375 57.378906 C 59.71875 57.378906 58.78125 56.441406 58.78125 54.566406 C 59.015625 52.691406 60.1875 51.992188 61.59375 51.757812 Z M 61.59375 51.757812 "/>
<path style=" stroke:none;fill-rule:nonzero;fill:rgb(6.27451%,6.27451%,6.27451%);fill-opacity:1;" d="M 29.742188 65.574219 C 29.507812 66.980469 28.804688 68.148438 27.167969 68.148438 C 25.527344 68.382812 24.355469 67.449219 24.355469 65.808594 C 24.355469 64.402344 25.292969 63.230469 26.699219 63.230469 C 28.335938 62.996094 29.273438 64.167969 29.742188 65.574219 Z M 29.742188 65.574219 "/>
<path style=" stroke:none;fill-rule:nonzero;fill:rgb(4.705882%,4.705882%,4.705882%);fill-opacity:1;" d="M 55.035156 21.546875 C 54.800781 23.183594 53.863281 24.121094 52.226562 24.121094 C 50.585938 24.121094 49.882812 23.183594 49.882812 21.546875 C 49.882812 20.140625 50.585938 18.96875 52.226562 18.96875 C 53.863281 18.96875 54.800781 20.140625 55.035156 21.546875 Z M 55.035156 21.546875 "/>
<path style=" stroke:none;fill-rule:nonzero;fill:rgb(5.098039%,5.098039%,5.098039%);fill-opacity:1;" d="M 77.285156 62.527344 C 78.921875 62.761719 79.859375 63.699219 79.859375 65.339844 C 79.859375 66.980469 78.6875 67.679688 77.285156 67.679688 C 75.878906 67.679688 74.707031 66.746094 74.707031 65.339844 C 74.707031 63.464844 75.878906 62.761719 77.285156 62.527344 Z M 77.285156 62.527344 "/>
<path style=" stroke:none;fill-rule:nonzero;fill:rgb(4.705882%,4.705882%,4.705882%);fill-opacity:1;" d="M 54.097656 29.742188 C 55.738281 29.742188 56.675781 30.445312 56.675781 32.085938 C 56.675781 33.722656 55.738281 34.425781 54.097656 34.425781 C 52.691406 34.425781 51.757812 33.488281 51.757812 32.320312 C 51.757812 30.679688 52.691406 29.742188 54.097656 29.742188 Z M 54.097656 29.742188 "/>
<path style=" stroke:none;fill-rule:nonzero;fill:rgb(5.098039%,5.098039%,5.098039%);fill-opacity:1;" d="M 37.703125 58.78125 C 37.703125 60.421875 36.769531 61.359375 35.363281 61.359375 C 33.722656 61.359375 32.785156 60.421875 32.785156 59.015625 C 32.785156 57.84375 33.488281 56.675781 35.128906 56.675781 C 36.535156 56.675781 37.472656 57.378906 37.703125 58.78125 Z M 37.703125 58.78125 "/>
<path style=" stroke:none;fill-rule:nonzero;fill:rgb(3.921569%,3.921569%,3.921569%);fill-opacity:1;" d="M 69.789062 61.359375 C 69.789062 62.996094 68.851562 63.933594 67.449219 63.933594 C 66.042969 63.933594 65.105469 63.230469 65.105469 61.828125 C 65.105469 60.1875 65.808594 59.25 67.214844 59.25 C 68.851562 59.015625 69.554688 59.953125 69.789062 61.359375 Z M 69.789062 61.359375 "/>
<path style=" stroke:none;fill-rule:nonzero;fill:rgb(7.058824%,7.058824%,7.058824%);fill-opacity:1;" d="M 56.675781 62.0625 C 55.269531 61.828125 54.332031 61.125 54.566406 59.71875 C 54.566406 58.3125 55.738281 57.609375 57.144531 57.609375 C 58.3125 57.609375 59.25 58.546875 59.25 59.953125 C 59.015625 61.359375 58.078125 62.0625 56.675781 62.0625 Z M 56.675781 62.0625 "/>
<path style=" stroke:none;fill-rule:nonzero;fill:rgb(5.490196%,5.490196%,5.490196%);fill-opacity:1;" d="M 60.65625 41.921875 C 60.421875 43.324219 59.484375 44.261719 58.3125 44.261719 C 56.910156 44.261719 56.207031 43.324219 56.207031 41.921875 C 56.207031 40.515625 56.910156 39.8125 58.3125 39.8125 C 59.71875 39.8125 60.421875 40.75 60.65625 41.921875 Z M 60.65625 41.921875 "/>
<path style=" stroke:none;fill-rule:nonzero;fill:rgb(5.490196%,5.490196%,5.490196%);fill-opacity:1;" d="M 44.496094 50.820312 C 44.261719 52.226562 43.558594 52.925781 42.15625 52.925781 C 40.75 52.925781 40.046875 52.226562 40.046875 51.054688 C 39.8125 49.648438 40.75 48.710938 42.15625 48.710938 C 43.324219 48.476562 44.261719 49.414062 44.496094 50.820312 Z M 44.496094 50.820312 "/>
<path style=" stroke:none;fill-rule:nonzero;fill:rgb(7.058824%,7.058824%,7.058824%);fill-opacity:1;" d="M 27.632812 61.125 C 26.464844 60.890625 25.527344 60.1875 25.527344 59.015625 C 25.527344 57.84375 26.230469 56.910156 27.632812 56.910156 C 28.804688 56.910156 29.742188 57.609375 29.742188 59.015625 C 29.742188 60.1875 28.804688 60.890625 27.632812 61.125 Z M 27.632812 61.125 "/>
<path style=" stroke:none;fill-rule:nonzero;fill:rgb(7.450981%,7.450981%,7.450981%);fill-opacity:1;" d="M 73.535156 67.914062 C 73.300781 69.085938 72.597656 70.257812 71.429688 70.257812 C 70.023438 70.257812 69.320312 69.554688 69.320312 68.148438 C 69.320312 66.746094 70.257812 66.042969 71.429688 66.042969 C 72.597656 65.808594 73.300781 66.746094 73.535156 67.914062 Z M 73.535156 67.914062 "/>
<path style=" stroke:none;fill-rule:nonzero;fill:rgb(8.627451%,8.627451%,8.627451%);fill-opacity:1;" d="M 58.078125 23.183594 C 59.25 23.417969 60.1875 23.886719 60.1875 25.292969 C 60.1875 26.699219 59.484375 27.402344 58.078125 27.402344 C 56.675781 27.402344 55.972656 26.464844 55.972656 25.292969 C 55.738281 24.121094 56.675781 23.417969 58.078125 23.183594 Z M 58.078125 23.183594 "/>
<path style=" stroke:none;fill-rule:nonzero;fill:rgb(7.450981%,7.450981%,7.450981%);fill-opacity:1;" d="M 59.71875 33.019531 C 60.890625 33.019531 61.59375 33.722656 61.828125 34.894531 C 61.828125 36.066406 61.125 36.769531 59.953125 36.769531 C 58.78125 36.769531 58.078125 36.300781 58.078125 34.894531 C 57.84375 33.722656 58.546875 33.019531 59.71875 33.019531 Z M 59.71875 33.019531 "/>
<path style=" stroke:none;fill-rule:nonzero;fill:rgb(7.058824%,7.058824%,7.058824%);fill-opacity:1;" d="M 64.167969 64.402344 C 64.167969 65.808594 63.464844 66.511719 62.527344 66.511719 C 61.359375 66.746094 60.65625 65.808594 60.421875 64.636719 C 60.421875 63.464844 61.125 62.761719 62.296875 62.527344 C 63.230469 62.761719 63.933594 63.464844 64.167969 64.402344 Z M 64.167969 64.402344 "/>
<path style=" stroke:none;fill-rule:nonzero;fill:rgb(6.666667%,6.666667%,6.666667%);fill-opacity:1;" d="M 37.003906 52.691406 C 37.003906 53.863281 36.066406 54.566406 35.128906 54.566406 C 33.957031 54.566406 33.253906 54.097656 33.253906 52.691406 C 33.253906 51.523438 33.957031 50.820312 35.128906 50.820312 C 36.300781 51.054688 36.769531 51.757812 37.003906 52.691406 Z M 37.003906 52.691406 "/>
<path style=" stroke:none;fill-rule:nonzero;fill:rgb(10.196079%,10.196079%,10.196079%);fill-opacity:1;" d="M 30.679688 53.628906 C 30.445312 54.566406 29.976562 55.503906 29.039062 55.503906 C 28.101562 55.503906 27.402344 55.035156 27.402344 54.097656 C 27.402344 52.925781 27.867188 52.460938 29.039062 52.226562 C 29.976562 52.226562 30.445312 52.691406 30.679688 53.628906 Z M 30.679688 53.628906 "/>
<path style=" stroke:none;fill-rule:nonzero;fill:rgb(7.450981%,7.450981%,7.450981%);fill-opacity:1;" d="M 67.914062 69.554688 C 67.679688 70.492188 67.214844 71.195312 66.042969 71.195312 C 65.105469 71.195312 64.402344 70.726562 64.402344 69.554688 C 64.402344 68.617188 64.871094 67.914062 65.808594 67.914062 C 66.980469 67.914062 67.679688 68.382812 67.914062 69.554688 Z M 67.914062 69.554688 "/>
<path style=" stroke:none;fill-rule:nonzero;fill:rgb(5.882353%,5.882353%,5.882353%);fill-opacity:1;" d="M 62.0625 27.402344 C 62.996094 27.402344 63.464844 27.867188 63.464844 28.804688 C 63.464844 29.976562 62.761719 30.679688 61.828125 30.679688 C 60.890625 30.679688 60.1875 29.976562 60.1875 28.804688 C 60.1875 27.867188 60.890625 27.402344 62.0625 27.402344 Z M 62.0625 27.402344 "/>
</g>
</svg>
