<?xml version="1.0" encoding="UTF-8"?>
<svg xmlns="http://www.w3.org/2000/svg" xmlns:xlink="http://www.w3.org/1999/xlink" width="100px" height="100px" viewBox="0 0 100 100" version="1.1">
<g id="surface1">
<path style=" stroke:none;fill-rule:nonzero;fill:rgb(100%,100%,100%);fill-opacity:1;" d="M 100.703125 100.703125 C 67.449219 100.703125 33.957031 100.703125 0.703125 100.703125 C 0.703125 67.449219 0.703125 33.957031 0.703125 0.703125 C 33.957031 0.703125 67.449219 0.703125 100.703125 0.703125 C 100.703125 33.957031 100.703125 67.214844 100.703125 100.703125 Z M 5.855469 49.648438 C 5.386719 74.238281 25.996094 95.316406 50.820312 95.316406 C 76.582031 95.316406 95.316406 75.644531 96.488281 52.226562 C 97.65625 26.230469 77.75 5.152344 52.226562 4.449219 C 26.699219 3.980469 6.324219 24.121094 5.855469 49.648438 Z M 5.855469 49.648438 "/>
<path style=" stroke:none;fill-rule:nonzero;fill:rgb(0%,0%,0%);fill-opacity:1;" d="M 5.855469 49.648438 C 6.324219 24.121094 26.699219 3.980469 52.460938 4.683594 C 77.984375 5.386719 97.890625 26.464844 96.722656 52.460938 C 95.550781 75.878906 76.582031 95.550781 51.054688 95.550781 C 25.996094 95.316406 5.386719 74.472656 5.855469 49.648438 Z M 21.3125 70.726562 C 21.78125 70.960938 21.78125 70.960938 22.015625 70.960938 C 35.128906 70.960938 48.476562 71.195312 61.59375 70.960938 C 67.914062 70.726562 72.597656 67.214844 74.707031 61.125 C 77.285156 53.628906 79.625 46.136719 81.96875 38.640625 C 83.605469 33.019531 80.796875 28.804688 75.175781 28.804688 C 62.296875 28.570312 49.414062 28.804688 36.769531 28.804688 C 36.066406 28.804688 35.128906 29.273438 34.894531 29.742188 C 33.722656 33.019531 32.785156 36.066406 31.382812 39.8125 C 44.261719 39.8125 56.675781 39.8125 69.320312 39.8125 C 67.449219 45.902344 65.339844 51.523438 63.699219 57.144531 C 62.996094 59.71875 61.828125 60.1875 59.484375 60.1875 C 48.710938 59.953125 37.9375 60.1875 27.167969 60.1875 C 25.292969 60.1875 24.589844 60.65625 24.121094 62.527344 C 23.417969 65.105469 22.25 67.914062 21.3125 70.726562 Z M 45.667969 44.496094 C 37.003906 44.496094 28.804688 44.496094 20.609375 44.496094 C 20.140625 44.496094 19.203125 45.199219 18.96875 45.902344 C 17.796875 48.945312 16.863281 51.992188 15.925781 55.269531 C 24.355469 55.269531 32.785156 55.269531 40.984375 55.269531 C 41.453125 55.269531 42.390625 54.566406 42.621094 54.097656 C 43.558594 51.054688 44.496094 48.007812 45.667969 44.496094 Z M 45.667969 44.496094 "/>
<path style=" stroke:none;fill-rule:nonzero;fill:rgb(100%,100%,100%);fill-opacity:1;" d="M 21.3125 70.726562 C 22.25 67.914062 23.417969 65.105469 24.121094 62.296875 C 24.589844 60.421875 25.527344 59.953125 27.167969 59.953125 C 37.9375 59.953125 48.710938 59.953125 59.484375 59.953125 C 61.828125 59.953125 62.996094 59.484375 63.699219 56.910156 C 65.339844 51.289062 67.214844 45.667969 69.320312 39.578125 C 56.675781 39.578125 44.261719 39.578125 31.382812 39.578125 C 32.550781 35.832031 33.488281 32.785156 34.894531 29.507812 C 35.128906 29.039062 36.066406 28.570312 36.769531 28.570312 C 49.648438 28.570312 62.527344 28.335938 75.175781 28.570312 C 80.796875 28.570312 83.605469 32.785156 81.96875 38.40625 C 79.625 45.902344 77.285156 53.628906 74.707031 60.890625 C 72.597656 66.980469 68.148438 70.492188 61.59375 70.726562 C 48.476562 70.960938 35.128906 70.726562 22.015625 70.726562 C 22.015625 71.195312 21.78125 70.960938 21.3125 70.726562 Z M 21.3125 70.726562 "/>
<path style=" stroke:none;fill-rule:nonzero;fill:rgb(100%,100%,100%);fill-opacity:1;" d="M 45.667969 44.496094 C 44.496094 48.007812 43.558594 51.054688 42.390625 54.332031 C 42.15625 54.800781 41.21875 55.503906 40.75 55.503906 C 32.550781 55.503906 24.121094 55.503906 15.691406 55.503906 C 16.863281 52.226562 17.796875 48.945312 18.734375 46.136719 C 18.96875 45.433594 19.90625 44.496094 20.609375 44.496094 C 28.804688 44.496094 37.003906 44.496094 45.667969 44.496094 Z M 45.667969 44.496094 "/>
</g>
</svg>
