<?xml version="1.0" encoding="UTF-8"?>
<svg xmlns="http://www.w3.org/2000/svg" xmlns:xlink="http://www.w3.org/1999/xlink" width="100px" height="100px" viewBox="0 0 100 100" version="1.1">
<g id="surface1">
<path style=" stroke:none;fill-rule:nonzero;fill:rgb(0%,0%,0%);fill-opacity:1;" d="M 50 100 C 22.382812 100 0 77.617188 0 50 C 0 22.382812 22.382812 0 50 0 C 77.617188 0 100 22.382812 100 50 C 100 77.617188 77.617188 100 50 100 Z M 44.984375 73.695312 C 46.300781 79.359375 48.089844 82.839844 50.0625 82.839844 C 53.171875 82.839844 55.832031 74.164062 56.894531 61.925781 C 68.019531 67.144531 76.863281 69.1875 78.425781 66.492188 C 79.984375 63.800781 73.808594 57.148438 63.753906 50.089844 C 73.847656 43.074219 80.042969 36.449219 78.496094 33.746094 C 77.496094 32.007812 73.453125 32.226562 67.714844 33.992188 C 67.324219 33.296875 66.59375 32.867188 65.796875 32.863281 C 65.148438 32.871094 64.535156 33.15625 64.109375 33.644531 C 63.6875 34.136719 63.488281 34.78125 63.570312 35.425781 C 61.476562 36.21875 59.242188 37.167969 56.898438 38.253906 C 55.835938 25.984375 53.179688 17.285156 50.0625 17.285156 C 46.949219 17.285156 44.292969 25.960938 43.230469 38.195312 C 32.105469 32.980469 23.257812 30.9375 21.699219 33.632812 C 20.726562 35.320312 22.773438 38.558594 26.914062 42.472656 C 26.871094 42.660156 26.847656 42.851562 26.847656 43.042969 C 26.847656 44.320312 27.847656 45.355469 29.082031 45.355469 C 29.386719 45.355469 29.691406 45.292969 29.96875 45.167969 C 32.035156 46.875 34.171875 48.5 36.371094 50.035156 C 26.277344 57.050781 20.082031 63.675781 21.632812 66.378906 C 23.179688 69.078125 32.054688 67.054688 43.226562 61.871094 C 43.460938 64.617188 43.78125 67.1875 44.164062 69.523438 C 43.550781 69.964844 43.191406 70.675781 43.195312 71.429688 C 43.195312 72.542969 43.964844 73.476562 44.984375 73.695312 Z M 46.433594 73.496094 C 47.203125 73.089844 47.679688 72.292969 47.671875 71.425781 C 47.691406 70.21875 46.769531 69.207031 45.566406 69.117188 C 45.179688 66.617188 44.902344 63.894531 44.710938 61.167969 C 46.507812 60.304688 48.285156 59.398438 50.039062 58.457031 C 51.890625 59.457031 53.707031 60.390625 55.472656 61.246094 C 55.183594 64.292969 54.789062 67.328125 54.292969 70.347656 C 52.742188 79.140625 50.570312 80.992188 50.570312 80.992188 C 50.105469 81.609375 49.640625 81.148438 49.640625 81.148438 C 47.777344 78.984375 46.847656 74.976562 46.847656 74.976562 C 46.695312 74.484375 46.558594 73.992188 46.433594 73.496094 Z M 31.070312 44.105469 C 31.234375 43.777344 31.320312 43.414062 31.320312 43.042969 C 31.320312 41.761719 30.320312 40.730469 29.082031 40.730469 C 28.597656 40.730469 28.132812 40.890625 27.75 41.183594 C 23.417969 37.027344 23.046875 34.992188 23.046875 34.992188 L 23.046875 34.988281 C 22.742188 34.273438 23.378906 34.101562 23.378906 34.101562 C 26.179688 33.570312 30.117188 34.78125 30.117188 34.78125 C 33.820312 35.625 38.523438 37.605469 43.101562 39.835938 C 42.953125 41.839844 42.851562 43.84375 42.792969 45.851562 C 41.007812 46.945312 39.296875 48.042969 37.679688 49.140625 C 35.425781 47.527344 33.222656 45.851562 31.070312 44.109375 Z M 64.25 36.84375 C 64.660156 37.257812 65.21875 37.488281 65.800781 37.492188 C 66.914062 37.492188 67.835938 36.648438 68.007812 35.546875 C 73.726562 33.753906 76.042969 33.960938 76.855469 34.183594 C 77.128906 34.257812 77.308594 34.519531 77.277344 34.804688 C 77.121094 36.480469 74.152344 39.511719 74.152344 39.511719 C 70.550781 43.070312 66.664062 46.320312 62.527344 49.242188 C 60.820312 48.074219 59.089844 46.949219 57.332031 45.867188 C 57.273438 43.847656 57.175781 41.832031 57.027344 39.820312 C 59.402344 38.753906 61.8125 37.761719 64.246094 36.84375 Z M 62.457031 50.980469 C 74.898438 60.007812 76.910156 64.078125 77.226562 65.289062 C 77.296875 65.558594 77.160156 65.84375 76.902344 65.960938 C 75.371094 66.664062 71.261719 65.617188 71.261719 65.617188 C 66.378906 64.277344 61.617188 62.542969 57.019531 60.425781 C 57.164062 58.453125 57.269531 56.394531 57.332031 54.277344 C 59.121094 53.183594 60.832031 52.078125 62.457031 50.980469 Z M 42.757812 52.601562 C 41.503906 51.789062 40.261719 50.957031 39.039062 50.101562 C 40.289062 49.277344 41.539062 48.480469 42.757812 47.726562 C 42.730469 49.351562 42.730469 50.976562 42.757812 52.601562 Z M 42.796875 54.257812 C 42.859375 56.339844 42.960938 58.363281 43.101562 60.304688 C 40.300781 61.578125 37.457031 62.753906 34.570312 63.828125 C 26.175781 66.851562 23.488281 65.890625 23.488281 65.890625 C 22.71875 65.796875 22.894531 65.160156 22.894531 65.160156 C 23.835938 62.472656 26.851562 59.664062 26.851562 59.664062 C 29.433594 56.882812 33.507812 53.804688 37.726562 50.96875 C 39.332031 52.0625 41.027344 53.164062 42.796875 54.257812 Z M 57.371094 47.632812 C 58.976562 48.585938 59.929688 49.179688 59.929688 49.179688 C 60.382812 49.503906 60.832031 49.816406 61.261719 50.125 C 59.773438 51.148438 58.449219 52.007812 57.367188 52.675781 C 57.398438 50.992188 57.398438 49.308594 57.371094 47.628906 Z M 55.613281 59.769531 C 53.984375 58.996094 52.582031 58.277344 51.46875 57.683594 C 52.96875 56.859375 54.453125 56.003906 55.925781 55.128906 C 55.851562 56.726562 55.738281 58.289062 55.613281 59.769531 Z M 44.410156 55.238281 C 45.792969 56.070312 47.191406 56.878906 48.601562 57.664062 C 47.242188 58.359375 45.898438 59.011719 44.613281 59.613281 C 44.527344 58.15625 44.457031 56.695312 44.410156 55.238281 Z M 44.359375 53.613281 C 44.300781 51.339844 44.277344 49.0625 44.289062 46.789062 C 46.179688 45.636719 48.085938 44.519531 50.011719 43.425781 C 52.300781 44.675781 54.363281 45.855469 56.007812 46.820312 C 56.019531 47.863281 56.007812 48.445312 56.007812 48.445312 C 56.050781 50.132812 56.046875 51.824219 55.988281 53.511719 C 54.996094 54.105469 54.425781 54.414062 54.425781 54.414062 C 52.992188 55.289062 51.53125 56.121094 50.046875 56.910156 C 49.039062 56.347656 48.484375 56.003906 48.484375 56.003906 C 47.085938 55.246094 45.710938 54.449219 44.359375 53.609375 Z M 51.632812 42.515625 C 53.257812 41.609375 54.253906 41.085938 54.253906 41.085938 C 54.742188 40.855469 55.222656 40.632812 55.691406 40.421875 C 55.835938 42.207031 55.917969 43.769531 55.960938 45.027344 C 54.53125 44.167969 53.089844 43.328125 51.632812 42.515625 Z M 44.492188 40.527344 C 45.835938 41.203125 47.164062 41.890625 48.429688 42.570312 C 47.042969 43.335938 45.667969 44.128906 44.304688 44.941406 C 44.328125 43.085938 44.367188 41.960938 44.367188 41.960938 L 44.492188 40.523438 Z M 44.65625 38.875 C 46.226562 23.585938 48.742188 19.804688 49.632812 18.921875 C 49.832031 18.722656 50.144531 18.699219 50.375 18.863281 C 51.75 19.839844 52.90625 23.914062 52.90625 23.914062 C 54.367188 29.339844 55.144531 34.625 55.554688 38.890625 C 53.714844 39.773438 51.890625 40.699219 50.085938 41.664062 C 48.296875 40.695312 46.488281 39.765625 44.65625 38.875 Z M 49.988281 53.839844 C 52.117188 53.839844 53.84375 52.113281 53.84375 49.984375 C 53.84375 47.855469 52.117188 46.128906 49.988281 46.128906 C 47.859375 46.128906 46.132812 47.855469 46.132812 49.984375 C 46.132812 52.113281 47.859375 53.839844 49.988281 53.839844 Z M 49.988281 53.839844 "/>
</g>
</svg>
