<?xml version="1.0" encoding="UTF-8"?>
<svg xmlns="http://www.w3.org/2000/svg" xmlns:xlink="http://www.w3.org/1999/xlink" width="100px" height="100px" viewBox="0 0 100 100" version="1.1">
<g id="surface1">
<path style=" stroke:none;fill-rule:nonzero;fill:rgb(100%,100%,100%);fill-opacity:1;" d="M 100.714844 50.714844 C 100.714844 66.644531 100.714844 82.644531 100.785156 98.570312 C 100.785156 100.355469 100.355469 100.785156 98.570312 100.785156 C 66.644531 100.714844 34.785156 100.714844 2.855469 100.785156 C 1.070312 100.785156 0.644531 100.355469 0.644531 98.570312 C 0.714844 66.429688 0.714844 34.285156 0.644531 2.144531 C 0.644531 0.355469 1.070312 -0.0703125 2.855469 0 C 34.785156 0 66.644531 0 98.570312 0 C 100.355469 0 100.785156 0.429688 100.785156 2.214844 C 100.644531 18.355469 100.714844 34.5 100.714844 50.714844 Z M 100.714844 50.714844 "/>
<path style=" stroke:none;fill-rule:nonzero;fill:rgb(14.117648%,12.54902%,12.54902%);fill-opacity:1;" d="M 98.214844 50.570312 C 97.714844 78 76.5 98.429688 49.070312 97.929688 C 23 97.5 2.355469 75.570312 2.855469 48.785156 C 3.355469 23.144531 25.355469 2.355469 51.644531 2.785156 C 77.570312 3.285156 98.644531 24.929688 98.214844 50.570312 Z M 98.214844 50.570312 "/>
<path style=" stroke:none;fill-rule:nonzero;fill:rgb(96.470588%,96.078432%,95.686275%);fill-opacity:1;" d="M 55.929688 46.429688 C 53.355469 46.355469 51.214844 44.070312 51.5 41.429688 C 51.785156 38.644531 53.5 37.144531 56.214844 37.214844 C 59.070312 37.285156 60.570312 39 60.714844 41.714844 C 60.785156 44.355469 58.429688 46.5 55.929688 46.429688 Z M 55.929688 46.429688 "/>
<path style=" stroke:none;fill-rule:nonzero;fill:rgb(96.862745%,96.470588%,96.470588%);fill-opacity:1;" d="M 66.214844 51.285156 C 65.855469 53.785156 64.714844 55.644531 61.785156 55.785156 C 59.070312 55.929688 57 54 56.929688 51.285156 C 56.855469 48.644531 59 46.429688 61.570312 46.5 C 63.929688 46.570312 66.144531 48.785156 66.214844 51.285156 Z M 66.214844 51.285156 "/>
<path style=" stroke:none;fill-rule:nonzero;fill:rgb(97.254902%,96.862745%,96.470588%);fill-opacity:1;" d="M 49.714844 42 C 49.429688 44.429688 48.070312 46.144531 45.285156 46.355469 C 42.644531 46.570312 40.429688 44.5 40.5 41.785156 C 40.570312 39.070312 41.929688 37.285156 44.785156 37.144531 C 47.5 37 49.644531 39.070312 49.714844 42 Z M 49.714844 42 "/>
<path style=" stroke:none;fill-rule:nonzero;fill:rgb(96.862745%,96.078432%,96.078432%);fill-opacity:1;" d="M 49.785156 60.785156 C 49.355469 63.570312 48 65.285156 45.144531 65.355469 C 42.429688 65.355469 40.429688 63.285156 40.570312 60.570312 C 40.714844 57.714844 42.429688 56.214844 45.144531 56.070312 C 47.570312 55.855469 49.855469 58.355469 49.785156 60.785156 Z M 49.785156 60.785156 "/>
<path style=" stroke:none;fill-rule:nonzero;fill:rgb(96.470588%,96.470588%,96.078432%);fill-opacity:1;" d="M 44.285156 51.285156 C 44.285156 54 42.214844 55.929688 39.429688 55.785156 C 36.570312 55.644531 35.070312 54 35.070312 51.214844 C 35.070312 48.355469 36.855469 46.855469 39.5 46.644531 C 42 46.355469 44.285156 48.714844 44.285156 51.285156 Z M 44.285156 51.285156 "/>
<path style=" stroke:none;fill-rule:nonzero;fill:rgb(98.039216%,97.647059%,97.647059%);fill-opacity:1;" d="M 55.714844 65.285156 C 53.285156 65.144531 51.644531 63.785156 51.429688 60.929688 C 51.285156 58.214844 53.285156 56.070312 56 56.144531 C 58.785156 56.214844 60.429688 57.714844 60.714844 60.5 C 60.929688 63.070312 58.785156 65.214844 55.714844 65.285156 Z M 55.714844 65.285156 "/>
<path style=" stroke:none;fill-rule:nonzero;fill:rgb(91.764706%,90.196079%,90.588236%);fill-opacity:1;" d="M 53.570312 31.855469 C 53.355469 33.714844 52.285156 34.714844 50.570312 34.714844 C 48.855469 34.714844 47.644531 33.714844 47.644531 31.855469 C 47.644531 29.855469 48.855469 28.714844 50.714844 28.785156 C 52.5 28.929688 53.429688 30.070312 53.570312 31.855469 Z M 53.570312 31.855469 "/>
<path style=" stroke:none;fill-rule:nonzero;fill:rgb(93.725491%,92.54902%,92.54902%);fill-opacity:1;" d="M 70.355469 41.355469 C 70.144531 43.144531 69.429688 44.355469 67.5 44.355469 C 65.644531 44.355469 64.570312 43.355469 64.429688 41.644531 C 64.285156 39.714844 65.5 38.570312 67.429688 38.570312 C 69.355469 38.5 70 39.855469 70.355469 41.355469 Z M 70.355469 41.355469 "/>
<path style=" stroke:none;fill-rule:nonzero;fill:rgb(92.941177%,92.156863%,92.156863%);fill-opacity:1;" d="M 36.570312 41.214844 C 36.5 43.429688 35.570312 44.355469 33.714844 44.429688 C 31.855469 44.429688 30.785156 43.429688 30.785156 41.644531 C 30.785156 39.785156 31.855469 38.570312 33.855469 38.570312 C 35.785156 38.644531 36.5 39.785156 36.570312 41.214844 Z M 36.570312 41.214844 "/>
<path style=" stroke:none;fill-rule:nonzero;fill:rgb(94.117647%,92.941177%,92.941177%);fill-opacity:1;" d="M 33.855469 63.855469 C 32 63.929688 30.855469 62.929688 30.785156 61.214844 C 30.644531 59.355469 31.785156 58.070312 33.714844 58 C 35.429688 58 36.570312 59 36.570312 60.855469 C 36.570312 62.644531 35.714844 63.644531 33.855469 63.855469 Z M 33.855469 63.855469 "/>
<path style=" stroke:none;fill-rule:nonzero;fill:rgb(94.901961%,93.725491%,93.725491%);fill-opacity:1;" d="M 53.570312 70.785156 C 53.214844 72.429688 52.429688 73.644531 50.570312 73.570312 C 48.570312 73.5 47.570312 72.355469 47.714844 70.355469 C 47.855469 68.570312 48.929688 67.644531 50.785156 67.785156 C 52.644531 67.929688 53.355469 69.070312 53.570312 70.785156 Z M 53.570312 70.785156 "/>
<path style=" stroke:none;fill-rule:nonzero;fill:rgb(94.509804%,92.941177%,92.941177%);fill-opacity:1;" d="M 67.070312 63.785156 C 65.570312 63.644531 64.429688 62.714844 64.429688 61 C 64.429688 59.285156 65.429688 58.070312 67.214844 58 C 69.070312 57.929688 70.355469 59 70.285156 61 C 70.214844 62.714844 69.214844 63.785156 67.070312 63.785156 Z M 67.070312 63.785156 "/>
<path style=" stroke:none;fill-rule:nonzero;fill:rgb(87.843138%,86.666667%,86.666667%);fill-opacity:1;" d="M 63.214844 32 C 61.785156 31.644531 60.714844 31 60.855469 29.429688 C 60.929688 27.929688 61.855469 27.070312 63.355469 27.144531 C 64.855469 27.214844 65.714844 28.144531 65.714844 29.644531 C 65.570312 31.144531 64.570312 31.855469 63.214844 32 Z M 63.214844 32 "/>
<path style=" stroke:none;fill-rule:nonzero;fill:rgb(92.156863%,90.588236%,90.980393%);fill-opacity:1;" d="M 25.570312 53.570312 C 24.070312 53.429688 23.070312 52.570312 23.070312 51.070312 C 23.070312 49.785156 23.855469 48.714844 25.214844 48.644531 C 26.644531 48.570312 27.785156 49.285156 27.855469 50.855469 C 27.929688 52.5 27 53.285156 25.570312 53.570312 Z M 25.570312 53.570312 "/>
<path style=" stroke:none;fill-rule:nonzero;fill:rgb(91.37255%,90.196079%,90.196079%);fill-opacity:1;" d="M 38 31.785156 C 36.714844 31.570312 35.644531 31 35.714844 29.355469 C 35.785156 27.785156 36.714844 27.070312 38.285156 27.144531 C 39.714844 27.214844 40.570312 28.070312 40.570312 29.355469 C 40.570312 30.714844 39.785156 31.785156 38 31.785156 Z M 38 31.785156 "/>
<path style=" stroke:none;fill-rule:nonzero;fill:rgb(91.764706%,90.196079%,90.196079%);fill-opacity:1;" d="M 62.644531 70.644531 C 64.5 70.714844 65.355469 71.570312 65.355469 73.070312 C 65.355469 74.570312 64.285156 75.5 62.785156 75.355469 C 61.570312 75.285156 60.570312 74.644531 60.570312 73.070312 C 60.644531 71.570312 61.355469 70.785156 62.644531 70.644531 Z M 62.644531 70.644531 "/>
<path style=" stroke:none;fill-rule:nonzero;fill:rgb(94.901961%,93.725491%,93.725491%);fill-opacity:1;" d="M 75.5 49.070312 C 77 49.144531 78 49.785156 78 51.429688 C 78 52.785156 77.285156 53.644531 75.855469 53.714844 C 74.214844 53.785156 73.429688 52.929688 73.355469 51.355469 C 73.285156 49.929688 74.144531 49.214844 75.5 49.070312 Z M 75.5 49.070312 "/>
<path style=" stroke:none;fill-rule:nonzero;fill:rgb(98.431373%,97.254902%,97.647059%);fill-opacity:1;" d="M 40.144531 72.5 C 40.144531 74.355469 39.429688 75.214844 37.785156 75.144531 C 36.429688 75.144531 35.570312 74.429688 35.570312 73 C 35.5 71.429688 36.285156 70.570312 37.929688 70.570312 C 39.355469 70.644531 40.070312 71.355469 40.144531 72.5 Z M 40.144531 72.5 "/>
<path style=" stroke:none;fill-rule:nonzero;fill:rgb(84.705883%,83.137256%,83.529413%);fill-opacity:1;" d="M 25.785156 35.570312 C 25.570312 37 25 37.785156 23.714844 37.785156 C 22.285156 37.785156 21.5 36.929688 21.570312 35.570312 C 21.644531 34.429688 22.285156 33.570312 23.570312 33.570312 C 25.070312 33.570312 25.570312 34.5 25.785156 35.570312 Z M 25.785156 35.570312 "/>
<path style=" stroke:none;fill-rule:nonzero;fill:rgb(87.450981%,85.882354%,86.274511%);fill-opacity:1;" d="M 50.570312 22.214844 C 49.285156 22.214844 48.570312 21.644531 48.570312 20.285156 C 48.5 19 49.214844 18.144531 50.355469 18.070312 C 51.644531 18 52.644531 18.855469 52.644531 20.285156 C 52.570312 21.355469 51.929688 22.285156 50.570312 22.214844 Z M 50.570312 22.214844 "/>
<path style=" stroke:none;fill-rule:nonzero;fill:rgb(87.843138%,86.274511%,86.666667%);fill-opacity:1;" d="M 52.714844 82.355469 C 52.429688 83.5 51.929688 84.355469 50.570312 84.355469 C 49.285156 84.355469 48.570312 83.785156 48.5 82.429688 C 48.429688 80.855469 49.285156 80.214844 50.644531 80.285156 C 51.855469 80.285156 52.5 81.214844 52.714844 82.355469 Z M 52.714844 82.355469 "/>
<path style=" stroke:none;fill-rule:nonzero;fill:rgb(89.803922%,88.235295%,88.235295%);fill-opacity:1;" d="M 77.355469 33.570312 C 78.570312 33.714844 79.355469 34.285156 79.429688 35.570312 C 79.429688 36.929688 78.714844 37.785156 77.285156 37.785156 C 76 37.785156 75.429688 36.855469 75.429688 35.644531 C 75.429688 34.429688 76.144531 33.714844 77.355469 33.570312 Z M 77.355469 33.570312 "/>
<path style=" stroke:none;fill-rule:nonzero;fill:rgb(91.37255%,90.196079%,90.196079%);fill-opacity:1;" d="M 23.785156 68.714844 C 22.570312 68.714844 21.714844 68.214844 21.570312 67 C 21.429688 65.570312 22.214844 64.785156 23.644531 64.785156 C 24.855469 64.785156 25.644531 65.355469 25.644531 66.644531 C 25.714844 67.855469 25.144531 68.644531 23.785156 68.714844 Z M 23.785156 68.714844 "/>
<path style=" stroke:none;fill-rule:nonzero;fill:rgb(93.333334%,92.156863%,92.156863%);fill-opacity:1;" d="M 77.5 68.714844 C 76 68.855469 75.429688 67.929688 75.429688 66.785156 C 75.429688 65.644531 76.070312 64.785156 77.429688 64.855469 C 78.785156 64.855469 79.429688 65.644531 79.429688 66.855469 C 79.429688 68 78.785156 68.855469 77.5 68.714844 Z M 77.5 68.714844 "/>
<path style=" stroke:none;fill-rule:nonzero;fill:rgb(82.745099%,81.176472%,81.176472%);fill-opacity:1;" d="M 86.429688 51.144531 C 86.429688 52.285156 85.785156 52.855469 84.714844 52.855469 C 83.855469 52.855469 83.144531 52.355469 83 51.429688 C 82.855469 50.355469 83.5 49.570312 84.570312 49.5 C 85.570312 49.429688 86.214844 50.144531 86.429688 51.144531 Z M 86.429688 51.144531 "/>
<path style=" stroke:none;fill-rule:nonzero;fill:rgb(88.235295%,86.666667%,86.666667%);fill-opacity:1;" d="M 35.070312 21.570312 C 35.070312 22.785156 34.429688 23.355469 33.570312 23.355469 C 32.570312 23.355469 31.855469 22.644531 31.929688 21.570312 C 32.070312 20.5 32.644531 19.855469 33.785156 20.070312 C 34.785156 20.214844 35.070312 20.929688 35.070312 21.570312 Z M 35.070312 21.570312 "/>
<path style=" stroke:none;fill-rule:nonzero;fill:rgb(82.745099%,81.176472%,81.176472%);fill-opacity:1;" d="M 69.285156 21.429688 C 69.285156 22.570312 68.785156 23.355469 67.714844 23.355469 C 66.644531 23.429688 65.929688 22.714844 65.855469 21.644531 C 65.855469 20.855469 66.355469 20.070312 67.355469 20 C 68.429688 19.929688 69.144531 20.429688 69.285156 21.429688 Z M 69.285156 21.429688 "/>
<path style=" stroke:none;fill-rule:nonzero;fill:rgb(92.156863%,90.588236%,90.588236%);fill-opacity:1;" d="M 16.5 49.570312 C 17.5 49.714844 18 50.285156 18 51.214844 C 18 52.214844 17.570312 52.785156 16.570312 52.785156 C 15.429688 52.785156 14.855469 52.144531 14.929688 51 C 15 50 15.570312 49.644531 16.5 49.570312 Z M 16.5 49.570312 "/>
<path style=" stroke:none;fill-rule:nonzero;fill:rgb(87.058824%,85.882354%,85.882354%);fill-opacity:1;" d="M 67.714844 79.214844 C 68.570312 79.214844 69.285156 79.714844 69.285156 80.855469 C 69.285156 81.855469 68.644531 82.355469 67.714844 82.355469 C 66.644531 82.355469 65.855469 81.855469 65.929688 80.714844 C 65.929688 79.855469 66.5 79.214844 67.714844 79.214844 Z M 67.714844 79.214844 "/>
<path style=" stroke:none;fill-rule:nonzero;fill:rgb(93.725491%,92.156863%,92.54902%);fill-opacity:1;" d="M 35 80.855469 C 35.070312 81.929688 34.429688 82.285156 33.5 82.285156 C 32.5 82.355469 31.929688 81.855469 31.929688 80.855469 C 31.929688 79.714844 32.5 79.144531 33.644531 79.214844 C 34.714844 79.285156 35.070312 79.855469 35 80.855469 Z M 35 80.855469 "/>
</g>
</svg>
