<?xml version="1.0" encoding="UTF-8"?>
<svg xmlns="http://www.w3.org/2000/svg" xmlns:xlink="http://www.w3.org/1999/xlink" width="100px" height="100px" viewBox="0 0 100 100" version="1.1">
<g id="surface1">
<path style=" stroke:none;fill-rule:nonzero;fill:rgb(100%,100%,100%);fill-opacity:1;" d="M 0.46875 0.46875 C 33.722656 0.46875 67.214844 0.46875 100.46875 0.46875 C 100.46875 33.722656 100.46875 67.214844 100.46875 100.46875 C 67.214844 100.46875 33.722656 100.46875 0.46875 100.46875 C 0.46875 67.214844 0.46875 33.957031 0.46875 0.46875 Z M 50.820312 24.824219 C 46.136719 33.253906 41.6875 41.453125 37.238281 49.414062 C 36.769531 50.117188 37.003906 51.289062 37.238281 51.992188 C 39.109375 58.3125 41.21875 64.636719 43.324219 70.960938 C 45.199219 76.816406 45.199219 76.816406 51.523438 76.816406 C 52.460938 76.816406 53.160156 76.816406 54.097656 76.816406 C 55.738281 77.050781 56.441406 76.347656 56.910156 74.941406 C 59.25 67.214844 61.828125 59.484375 64.402344 51.757812 C 64.636719 51.054688 64.636719 49.882812 64.167969 49.179688 C 59.71875 41.21875 55.269531 33.253906 50.820312 24.824219 Z M 36.066406 47.773438 C 40.75 39.109375 45.199219 31.148438 49.648438 23.183594 C 49.882812 22.714844 50.117188 22.25 50.117188 21.78125 C 50.117188 16.863281 50.117188 11.710938 50.117188 6.792969 C 49.648438 6.792969 49.648438 6.792969 49.648438 6.792969 C 43.558594 14.753906 37.703125 22.484375 31.617188 30.445312 C 31.148438 30.914062 31.148438 32.085938 31.382812 32.785156 C 32.550781 37.703125 34.191406 42.390625 36.066406 47.773438 Z M 52.226562 7.027344 C 51.992188 7.027344 51.757812 7.261719 51.757812 7.261719 C 51.757812 11.710938 51.757812 16.160156 51.757812 20.609375 C 51.757812 22.015625 52.226562 23.417969 52.691406 24.589844 C 56.441406 31.617188 60.421875 38.640625 64.167969 45.667969 C 64.402344 46.136719 64.871094 46.839844 65.574219 47.539062 C 67.214844 42.390625 68.851562 37.472656 70.492188 32.550781 C 70.726562 32.085938 70.726562 31.148438 70.257812 30.679688 C 64.402344 22.949219 58.3125 14.988281 52.226562 7.027344 Z M 22.25 76.582031 C 29.507812 76.582031 36.300781 76.582031 43.089844 76.582031 C 40.515625 68.617188 37.9375 60.890625 35.363281 52.691406 C 30.914062 60.890625 26.699219 68.617188 22.25 76.582031 Z M 58.3125 76.582031 C 65.574219 76.582031 72.367188 76.582031 79.15625 76.582031 C 74.707031 68.617188 70.492188 60.890625 66.042969 52.691406 C 63.230469 60.890625 60.890625 68.617188 58.3125 76.582031 Z M 78.21875 78.6875 C 70.726562 78.6875 64.167969 78.6875 57.609375 78.6875 C 55.972656 84.074219 54.097656 89.226562 52.226562 95.082031 C 60.890625 89.695312 69.320312 84.542969 78.21875 78.6875 Z M 24.121094 78.6875 C 24.121094 78.921875 24.121094 79.15625 23.886719 79.15625 C 32.085938 84.308594 40.28125 89.460938 49.179688 95.082031 C 47.308594 89.460938 45.902344 84.542969 44.261719 79.625 C 44.027344 79.15625 43.089844 78.6875 42.621094 78.6875 C 36.300781 78.6875 30.210938 78.6875 24.121094 78.6875 Z M 22.25 71.429688 C 22.484375 71.429688 22.484375 71.429688 22.714844 71.664062 C 26.464844 64.636719 30.445312 57.609375 34.191406 50.585938 C 34.425781 50.351562 34.425781 49.882812 34.425781 49.648438 C 33.019531 44.964844 31.382812 40.28125 29.742188 35.597656 C 29.507812 35.597656 29.507812 35.597656 29.273438 35.597656 C 27.167969 47.539062 24.824219 59.484375 22.25 71.429688 Z M 71.898438 35.597656 C 71.664062 35.597656 71.664062 35.597656 71.429688 35.597656 C 70.023438 40.28125 68.382812 44.730469 66.980469 49.414062 C 66.746094 49.882812 66.980469 50.351562 67.214844 50.820312 C 70.960938 57.84375 74.941406 64.871094 78.921875 72.132812 C 79.15625 72.132812 79.15625 72.132812 79.390625 71.898438 C 76.816406 59.71875 74.472656 47.773438 71.898438 35.597656 Z M 45.902344 78.6875 C 47.539062 83.605469 48.945312 88.289062 50.820312 93.441406 C 52.460938 88.054688 54.097656 83.371094 55.503906 78.6875 C 52.226562 78.6875 49.414062 78.6875 45.902344 78.6875 Z M 45.902344 78.6875 "/>
<path style=" stroke:none;fill-rule:nonzero;fill:rgb(0%,0%,0%);fill-opacity:1;" d="M 50.820312 24.824219 C 55.503906 33.253906 59.71875 41.21875 64.167969 49.179688 C 64.636719 49.882812 64.636719 51.054688 64.402344 51.757812 C 62.0625 59.484375 59.484375 67.214844 56.910156 74.941406 C 56.441406 76.582031 55.738281 77.050781 54.097656 76.816406 C 53.160156 76.816406 52.460938 76.816406 51.523438 76.816406 C 45.199219 76.816406 45.199219 76.816406 43.324219 70.960938 C 41.21875 64.636719 39.34375 58.3125 37.238281 51.992188 C 37.003906 51.289062 36.769531 50.117188 37.238281 49.414062 C 41.6875 41.453125 46.136719 33.488281 50.820312 24.824219 Z M 50.820312 24.824219 "/>
<path style=" stroke:none;fill-rule:nonzero;fill:rgb(0%,0%,0%);fill-opacity:1;" d="M 36.066406 47.773438 C 34.191406 42.390625 32.785156 37.472656 31.148438 32.785156 C 30.914062 32.085938 31.148438 31.148438 31.382812 30.445312 C 37.472656 22.714844 43.324219 14.753906 49.414062 7.027344 C 49.414062 7.027344 49.648438 7.027344 49.882812 7.027344 C 49.882812 11.945312 49.882812 17.097656 49.882812 22.015625 C 49.882812 22.484375 49.648438 22.949219 49.414062 23.417969 C 44.964844 31.382812 40.75 39.34375 36.066406 47.773438 Z M 36.066406 47.773438 "/>
<path style=" stroke:none;fill-rule:nonzero;fill:rgb(0%,0%,0%);fill-opacity:1;" d="M 52.226562 7.027344 C 58.3125 14.988281 64.402344 22.949219 70.257812 30.914062 C 70.492188 31.382812 70.492188 32.085938 70.492188 32.785156 C 69.085938 37.703125 67.449219 42.621094 65.574219 47.773438 C 65.105469 46.839844 64.636719 46.371094 64.167969 45.902344 C 60.1875 38.875 56.441406 31.851562 52.691406 24.824219 C 51.992188 23.652344 51.757812 22.25 51.757812 20.84375 C 51.523438 16.394531 51.757812 11.945312 51.757812 7.496094 C 51.757812 7.027344 51.992188 7.027344 52.226562 7.027344 Z M 52.226562 7.027344 "/>
<path style=" stroke:none;fill-rule:nonzero;fill:rgb(0%,0%,0%);fill-opacity:1;" d="M 22.25 76.582031 C 26.699219 68.617188 30.914062 60.890625 35.363281 52.691406 C 37.9375 60.890625 40.515625 68.617188 43.089844 76.582031 C 36.300781 76.582031 29.507812 76.582031 22.25 76.582031 Z M 22.25 76.582031 "/>
<path style=" stroke:none;fill-rule:nonzero;fill:rgb(0%,0%,0%);fill-opacity:1;" d="M 58.3125 76.582031 C 60.890625 68.617188 63.230469 60.890625 66.042969 52.691406 C 70.492188 60.890625 74.707031 68.617188 79.15625 76.582031 C 72.132812 76.582031 65.339844 76.582031 58.3125 76.582031 Z M 58.3125 76.582031 "/>
<path style=" stroke:none;fill-rule:nonzero;fill:rgb(0%,0%,0%);fill-opacity:1;" d="M 78.21875 78.6875 C 69.320312 84.308594 60.890625 89.695312 52.226562 95.082031 C 54.097656 89.226562 55.738281 84.074219 57.609375 78.6875 C 64.167969 78.6875 70.726562 78.6875 78.21875 78.6875 Z M 78.21875 78.6875 "/>
<path style=" stroke:none;fill-rule:nonzero;fill:rgb(0%,0%,0%);fill-opacity:1;" d="M 24.121094 78.6875 C 30.210938 78.6875 36.300781 78.6875 42.621094 78.6875 C 43.324219 78.6875 44.261719 79.15625 44.261719 79.625 C 45.902344 84.542969 47.539062 89.695312 49.179688 95.082031 C 40.28125 89.460938 32.085938 84.308594 23.886719 79.15625 C 23.886719 79.15625 24.121094 78.921875 24.121094 78.6875 Z M 24.121094 78.6875 "/>
<path style=" stroke:none;fill-rule:nonzero;fill:rgb(0%,0%,0%);fill-opacity:1;" d="M 22.25 71.429688 C 24.589844 59.484375 26.933594 47.539062 29.507812 35.597656 C 29.742188 35.597656 29.742188 35.597656 29.976562 35.597656 C 31.617188 40.28125 33.019531 44.964844 34.660156 49.648438 C 34.660156 49.882812 34.660156 50.351562 34.425781 50.585938 C 30.679688 57.609375 26.699219 64.636719 22.949219 71.664062 C 22.714844 71.664062 22.484375 71.664062 22.25 71.429688 Z M 22.25 71.429688 "/>
<path style=" stroke:none;fill-rule:nonzero;fill:rgb(0%,0%,0%);fill-opacity:1;" d="M 71.898438 35.597656 C 74.238281 47.539062 76.816406 59.71875 79.15625 71.664062 C 78.921875 71.664062 78.921875 71.664062 78.6875 71.898438 C 74.707031 64.871094 70.960938 57.84375 66.980469 50.585938 C 66.746094 50.117188 66.746094 49.648438 66.746094 49.179688 C 68.148438 44.496094 69.789062 40.046875 71.195312 35.363281 C 71.664062 35.597656 71.898438 35.597656 71.898438 35.597656 Z M 71.898438 35.597656 "/>
<path style=" stroke:none;fill-rule:nonzero;fill:rgb(0%,0%,0%);fill-opacity:1;" d="M 45.902344 78.6875 C 49.414062 78.6875 52.226562 78.6875 55.503906 78.6875 C 53.863281 83.605469 52.460938 88.054688 50.820312 93.441406 C 48.945312 88.289062 47.539062 83.605469 45.902344 78.6875 Z M 45.902344 78.6875 "/>
</g>
</svg>
