<?xml version="1.0" encoding="utf-8" ?>
<svg baseProfile="full" height="100px" version="1.1" width="150px" xmlns="http://www.w3.org/2000/svg" xmlns:ev="http://www.w3.org/2001/xml-events" xmlns:xlink="http://www.w3.org/1999/xlink"><defs><clipPath id="mask0"><rect height="100" width="150" x="0" y="0" /></clipPath><clipPath id="mask1"><rect height="50.0" width="75.0" x="0" y="0" /></clipPath></defs><g clip-path="url(#mask0)"><path d="M0,0 L0.0,150.0 L57.40251485476347,138.581929876693 z" fill="#ffffff" stroke="none" transform="translate(75.0, 50.0)" /><path d="M0,0 L57.40251485476347,138.581929876693 L106.06601717798213,106.06601717798213 z" fill="#fec50c" stroke="none" transform="translate(75.0, 50.0)" /><path d="M0,0 L106.06601717798213,106.06601717798213 L138.581929876693,57.402514854763474 z" fill="#ffffff" stroke="none" transform="translate(75.0, 50.0)" /><path d="M0,0 L138.581929876693,57.402514854763474 L150.0,9.184850993605149e-15 z" fill="#fec50c" stroke="none" transform="translate(75.0, 50.0)" /><path d="M0,0 L150.0,9.184850993605149e-15 L138.581929876693,-57.40251485476346 z" fill="#ffffff" stroke="none" transform="translate(75.0, 50.0)" /><path d="M0,0 L138.581929876693,-57.40251485476346 L106.06601717798213,-106.06601717798212 z" fill="#fec50c" stroke="none" transform="translate(75.0, 50.0)" /><path d="M0,0 L106.06601717798213,-106.06601717798212 L57.40251485476348,-138.581929876693 z" fill="#ffffff" stroke="none" transform="translate(75.0, 50.0)" /><path d="M0,0 L57.40251485476348,-138.581929876693 L1.8369701987210297e-14,-150.0 z" fill="#fec50c" stroke="none" transform="translate(75.0, 50.0)" /><path d="M0,0 L1.8369701987210297e-14,-150.0 L-57.40251485476344,-138.58192987669304 z" fill="#ffffff" stroke="none" transform="translate(75.0, 50.0)" /><path d="M0,0 L-57.40251485476344,-138.58192987669304 L-106.06601717798212,-106.06601717798215 z" fill="#fec50c" stroke="none" transform="translate(75.0, 50.0)" /><path d="M0,0 L-106.06601717798212,-106.06601717798215 L-138.58192987669298,-57.40251485476355 z" fill="#ffffff" stroke="none" transform="translate(75.0, 50.0)" /><path d="M0,0 L-138.58192987669298,-57.40251485476355 L-150.0,-2.7554552980815446e-14 z" fill="#fec50c" stroke="none" transform="translate(75.0, 50.0)" /><path d="M0,0 L-150.0,-2.7554552980815446e-14 L-138.58192987669298,57.4025148547635 z" fill="#ffffff" stroke="none" transform="translate(75.0, 50.0)" /><path d="M0,0 L-138.58192987669298,57.4025148547635 L-106.06601717798215,106.0660171779821 z" fill="#fec50c" stroke="none" transform="translate(75.0, 50.0)" /><path d="M0,0 L-106.06601717798215,106.0660171779821 L-57.40251485476356,138.58192987669298 z" fill="#ffffff" stroke="none" transform="translate(75.0, 50.0)" /><path d="M0,0 L-57.40251485476356,138.58192987669298 L-3.6739403974420595e-14,150.0 z" fill="#fec50c" stroke="none" transform="translate(75.0, 50.0)" /></g><g clip-path="url(#mask1)"><rect fill="#ffce00" height="7.142857142857143" stroke="none" width="75.0" x="0" y="0.0" /><rect fill="#ffffff" height="7.142857142857143" stroke="none" width="75.0" x="0" y="7.142857142857143" /><rect fill="#ffce00" height="7.142857142857143" stroke="none" width="75.0" x="0" y="14.285714285714286" /><rect fill="#ffffff" height="7.142857142857143" stroke="none" width="75.0" x="0" y="21.428571428571427" /><rect fill="#ffce00" height="7.142857142857143" stroke="none" width="75.0" x="0" y="28.571428571428573" /><rect fill="#ffffff" height="7.142857142857143" stroke="none" width="75.0" x="0" y="35.714285714285715" /><rect fill="#ffce00" height="7.142857142857143" stroke="none" width="75.0" x="0" y="42.857142857142854" /></g><g id="empty" /><g id="empty" /></svg>