<?xml version="1.0" encoding="utf-8" ?>
<svg baseProfile="full" height="100px" version="1.1" width="150px" xmlns="http://www.w3.org/2000/svg" xmlns:ev="http://www.w3.org/2001/xml-events" xmlns:xlink="http://www.w3.org/1999/xlink"><defs><clipPath id="mask0"><rect height="100" width="150" x="0" y="0" /></clipPath></defs><g clip-path="url(#mask0)"><rect fill="#24eac9" height="16.666666666666668" stroke="none" width="150" x="0" y="0.0" /><rect fill="#ffffff" height="16.666666666666668" stroke="none" width="150" x="0" y="16.666666666666668" /><rect fill="#24eac9" height="16.666666666666668" stroke="none" width="150" x="0" y="33.333333333333336" /><rect fill="#ffffff" height="16.666666666666668" stroke="none" width="150" x="0" y="50.0" /><rect fill="#24eac9" height="16.666666666666668" stroke="none" width="150" x="0" y="66.66666666666667" /><rect fill="#ffffff" height="16.666666666666668" stroke="none" width="150" x="0" y="83.33333333333333" /></g><g transform="translate(36.301207891678025, 11.301207891678025) scale(0.7739758421664394) rotate(0, 50.0, 50.0)"><path d="M 21.9,29.3 C 26.2,23.700000000000003 30.9,20.5 36.7,18.6 C 29.9,23.0 25.1,29.3 24.3,38.9 C 27.400000000000002,32.6 31.8,27.9 36.9,24.2 C 31.599999999999998,30.7 28.799999999999997,39.0 30.4,49.2 C 32.0,41.2 35.6,34.7 40.3,29.200000000000003 C 37.599999999999994,36.5 37.4,44.6 41.4,53.6 C 40.8,44.3 42.8,36.6 46.6,30.700000000000003 L 47.4,38.7 L 46.5,38.7 L 47.4,48.1 L 46.5,48.1 L 47.4,57.5 L 46.5,57.5 L 47.4,66.9 L 44.699999999999996,69.5 L 50.0,69.5 L 55.3,69.5 L 52.6,67.0 L 53.5,57.6 L 52.6,57.6 L 53.5,48.2 L 52.6,48.2 L 53.5,38.800000000000004 L 52.6,38.800000000000004 L 53.4,30.800000000000004 C 57.199999999999996,36.6 59.3,44.300000000000004 58.6,53.7 C 62.5,44.7 62.4,36.5 59.7,29.300000000000004 C 64.4,34.800000000000004 68.0,41.2 69.60000000000001,49.300000000000004 C 71.30000000000001,39.10000000000001 68.4,30.800000000000004 63.10000000000001,24.300000000000004 C 68.2,28.000000000000004 72.60000000000001,32.60000000000001 75.7,39.0 C 75.0,29.3 70.10000000000001,23.1 63.400000000000006,18.6 C 69.2,20.5 74.0,23.700000000000003 78.2,29.3 C 75.4,19.3 69.10000000000001,15.3 61.5,13.0 C 66.7,12.6 71.7,13.2 76.6,16.3 C 71.2,9.1 64.0,7.9 56.8,8.7 C 59.8,7.1 63.3,6.3999999999999995 67.0,6.8999999999999995 C 62.8,3.7999999999999994 57.3,3.4999999999999996 52.6,6.1 L 50.0,-0.2 L 47.5,6.1 C 42.8,3.4999999999999996 37.2,3.8 33.1,6.8999999999999995 C 36.800000000000004,6.3999999999999995 40.2,7.1 43.3,8.7 C 36.0,7.9 28.8,9.1 23.5,16.3 C 28.4,13.200000000000001 33.4,12.700000000000001 38.6,13.0 C 30.9,15.3 24.7,19.3 21.9,29.3" fill="#336633" stroke="#ff9901" stroke-width="3.0" /><path d="M 71.1,92.2 C 70.8,93.7 69.69999999999999,94.5 68.3,94.10000000000001 C 66.39999999999999,93.60000000000001 64.1,91.60000000000001 62.699999999999996,90.4 C 66.3,86.60000000000001 65.5,82.30000000000001 62.699999999999996,82.2 C 63.699999999999996,85.4 61.4,87.4 60.49999999999999,88.5 C 58.199999999999996,86.6 55.89999999999999,84.4 53.49999999999999,82.2 C 65.3,72.4 78.3,63.7 95.19999999999999,63.5 C 76.9,56.8 62.3,68.0 50.0,79.0 C 37.7,68.0 23.1,56.8 4.9,63.4 C 21.799999999999997,63.699999999999996 34.8,72.4 46.6,82.1 C 44.2,84.3 41.800000000000004,86.5 39.6,88.39999999999999 C 38.7,87.3 36.300000000000004,85.3 37.4,82.1 C 34.5,82.1 33.8,86.5 37.4,90.3 C 36.0,91.5 33.6,93.5 31.799999999999997,94.0 C 30.4,94.4 29.199999999999996,93.6 28.999999999999996,92.1 C 28.499999999999996,88.8 23.4,89.3 23.999999999999996,93.89999999999999 C 24.599999999999998,98.1 29.699999999999996,99.89999999999999 34.0,97.99999999999999 C 35.7,97.19999999999999 38.1,94.99999999999999 40.1,93.39999999999999 C 41.0,94.39999999999999 43.4,96.49999999999999 42.300000000000004,99.69999999999999 C 45.2,99.6 45.900000000000006,95.29999999999998 42.300000000000004,91.49999999999999 C 44.900000000000006,89.29999999999998 47.400000000000006,87.09999999999998 50.00000000000001,84.89999999999999 C 52.60000000000001,87.1 55.20000000000001,89.39999999999999 57.70000000000001,91.49999999999999 C 54.10000000000001,95.29999999999998 54.90000000000001,99.59999999999998 57.70000000000001,99.69999999999999 C 56.70000000000001,96.49999999999999 59.00000000000001,94.49999999999999 59.90000000000001,93.39999999999999 C 61.90000000000001,94.99999999999999 64.20000000000002,97.19999999999999 66.00000000000001,97.99999999999999 C 70.40000000000002,99.89999999999999 75.50000000000001,98.09999999999998 76.00000000000001,93.89999999999999 C 76.7,89.4 71.7,88.9 71.1,92.2" fill="#336633" stroke="#ff9901" stroke-width="3.0" /></g></svg>