<?xml version="1.0" encoding="utf-8" ?>
<svg baseProfile="full" height="100px" version="1.1" width="150px" xmlns="http://www.w3.org/2000/svg"
     xmlns:ev="http://www.w3.org/2001/xml-events" xmlns:xlink="http://www.w3.org/1999/xlink">
    <defs>
        <clipPath id="mask0">
            <rect height="100" width="150" x="0" y="0"/>
        </clipPath>
    </defs>
    <g clip-path="url(#mask0)">
        <rect fill="#ff0000" height="33.333333333333336" stroke="none" width="150" x="0" y="0.0"/>
        <rect fill="#ff9932" height="33.333333333333336" stroke="none" width="150" x="0" y="33.333333333333336"/>
        <rect fill="#4997d0" height="33.333333333333336" stroke="none" width="150" x="0" y="66.66666666666667"/>
    </g>
    <g transform="translate(36.5946841787683, 11.594684178768297) scale(0.7681063164246341) rotate(0, 50.0, 50.0)">
        <path d="M 41.8,47.2 C 41.8,46.7 42.0,46.300000000000004 42.4,46.1 C 41.4,46.300000000000004 40.6,46.7 40.4,47.2 C 41.0,47.800000000000004 41.699999999999996,48.2 42.4,48.400000000000006 C 42.1,48.2 41.8,47.7 41.8,47.2"
              fill="#ffffff" stroke="none" stroke-width="2.0"/>
        <path d="M 57.5,48.4 C 58.2,48.199999999999996 58.9,47.9 59.5,47.199999999999996 C 59.4,46.699999999999996 58.5,46.199999999999996 57.5,46.099999999999994 C 57.9,46.39999999999999 58.1,46.8 58.1,47.199999999999996 C 58.2,47.7 57.9,48.2 57.5,48.4"
              fill="#ffffff" stroke="none" stroke-width="2.0"/>
        <path d="M 43.9,48.4 C 44.699999999999996,48.3 45.4,48.0 46.0,47.5 C 45.5,46.7 44.8,46.3 44.1,46.1 C 44.4,46.4 44.6,46.7 44.6,47.2 C 44.6,47.7 44.3,48.2 43.9,48.4"
              fill="#ffffff" stroke="none" stroke-width="2.0"/>
        <path d="M 50.0,58.9 C 50.9,58.9 51.5,58.3 54.5,59.199999999999996 C 54.7,59.199999999999996 54.9,59.199999999999996 55.1,59.199999999999996 C 54.300000000000004,58.9 53.7,58.3 52.6,57.699999999999996 C 51.5,57.099999999999994 50.6,57.9 50.0,57.9 C 49.4,57.9 48.5,57.1 47.4,57.699999999999996 C 46.3,58.3 45.699999999999996,58.9 44.9,59.199999999999996 C 45.1,59.199999999999996 45.3,59.199999999999996 45.5,59.199999999999996 C 48.5,58.3 49.1,58.9 50.0,58.9"
              fill="#ffffff" stroke="none" stroke-width="2.0"/>
        <path d="M 50.0,59.5 C 48.8,59.5 48.2,58.6 45.5,59.2 C 48.1,59.2 47.4,60.900000000000006 50.0,60.900000000000006 C 52.6,60.900000000000006 51.8,59.2 54.5,59.2 C 51.8,58.7 51.2,59.5 50.0,59.5"
              fill="#ffffff" stroke="none" stroke-width="2.0"/>
        <path d="M 55.4,47.2 C 55.4,46.800000000000004 55.6,46.400000000000006 55.9,46.1 C 55.199999999999996,46.300000000000004 54.5,46.7 54.0,47.5 C 54.6,48.0 55.3,48.3 56.1,48.4 C 55.7,48.2 55.4,47.7 55.4,47.2"
              fill="#ffffff" stroke="none" stroke-width="2.0"/>
        <path d="M 99.1,49.4 L 69.89999999999999,48.3 C 69.89999999999999,48.199999999999996 69.89999999999999,48.099999999999994 69.89999999999999,48.0 C 74.69999999999999,47.1 78.1,44.4 82.99999999999999,44.9 C 89.09999999999998,45.4 92.49999999999999,42.1 94.79999999999998,41.3 C 97.19999999999999,40.5 98.59999999999998,42.099999999999994 98.89999999999998,41.4 C 99.19999999999997,40.699999999999996 97.39999999999998,39.199999999999996 93.99999999999997,39.699999999999996 C 90.59999999999997,40.199999999999996 89.69999999999997,42.699999999999996 82.19999999999997,42.099999999999994 C 75.89999999999998,41.599999999999994 73.69999999999997,44.099999999999994 69.09999999999998,44.39999999999999 C 69.09999999999998,44.19999999999999 68.99999999999999,44.099999999999994 68.99999999999999,43.89999999999999 L 95.49999999999999,31.699999999999992 C 95.49999999999999,31.699999999999992 96.39999999999999,31.299999999999994 96.09999999999998,30.799999999999994 C 95.89999999999998,30.199999999999992 94.99999999999999,30.599999999999994 94.99999999999999,30.599999999999994 L 67.8,40.8 C 67.7,40.699999999999996 67.7,40.599999999999994 67.6,40.5 C 71.69999999999999,37.9 73.8,34.1 78.5,32.6 C 84.3,30.8 86.2,26.400000000000002 88.1,24.8 C 90.0,23.2 91.89999999999999,24.1 91.89999999999999,23.400000000000002 C 91.89999999999999,22.6 89.6,21.900000000000002 86.69999999999999,23.700000000000003 C 83.79999999999998,25.400000000000002 83.79999999999998,28.200000000000003 76.79999999999998,30.500000000000004 C 70.79999999999998,32.400000000000006 69.69999999999999,35.6 65.49999999999999,37.6 C 65.39999999999999,37.5 65.29999999999998,37.4 65.19999999999999,37.2 L 84.99999999999999,15.800000000000004 C 84.99999999999999,15.800000000000004 85.69999999999999,15.100000000000005 85.19999999999999,14.700000000000005 C 84.79999999999998,14.300000000000004 84.1,14.900000000000004 84.1,14.900000000000004 L 62.9,34.7 C 62.8,34.6 62.699999999999996,34.6 62.6,34.5 C 65.4,30.5 65.9,26.2 69.7,23.0 C 74.4,19.1 74.4,14.3 75.60000000000001,12.1 C 76.7,9.899999999999999 78.9,10.0 78.60000000000001,9.3 C 78.30000000000001,8.600000000000001 76.00000000000001,8.8 73.9,11.5 C 71.9,14.2 73.0,16.7 67.30000000000001,21.5 C 62.500000000000014,25.6 62.70000000000001,28.9 59.60000000000001,32.4 C 59.50000000000001,32.3 59.30000000000001,32.199999999999996 59.20000000000001,32.199999999999996 L 69.3,4.9 C 69.3,4.9 69.7,4.0 69.1,3.8000000000000003 C 68.5,3.6 68.19999999999999,4.4 68.19999999999999,4.4 L 56.0,30.9 C 55.9,30.9 55.8,30.799999999999997 55.7,30.799999999999997 C 56.7,26.099999999999998 55.5,21.9 57.800000000000004,17.499999999999996 C 60.6,12.099999999999996 58.900000000000006,7.699999999999996 59.00000000000001,5.199999999999996 C 59.20000000000001,2.6999999999999957 61.20000000000001,1.9999999999999956 60.70000000000001,1.4999999999999956 C 60.20000000000001,0.8999999999999956 58.10000000000001,2.0999999999999956 57.20000000000001,5.399999999999995 C 56.40000000000001,8.699999999999996 58.30000000000001,10.599999999999994 55.00000000000001,17.199999999999996 C 52.10000000000001,22.799999999999997 53.60000000000001,25.799999999999997 52.10000000000001,30.199999999999996 C 51.900000000000006,30.199999999999996 51.80000000000001,30.199999999999996 51.60000000000001,30.199999999999996 L 50.6,0.9 C 50.6,0.9 50.6,0.0 50.0,0.0 C 49.4,0.0 49.4,0.9 49.4,0.9 L 48.3,30.099999999999998 C 48.199999999999996,30.099999999999998 48.099999999999994,30.099999999999998 48.0,30.099999999999998 C 47.1,25.299999999999997 44.4,21.9 44.9,17.0 C 45.4,10.9 42.1,7.5 41.3,5.199999999999999 C 40.5,2.7999999999999994 42.099999999999994,1.3999999999999995 41.4,1.0999999999999996 C 40.699999999999996,0.7999999999999996 39.199999999999996,2.5999999999999996 39.699999999999996,6.0 C 40.199999999999996,9.4 42.699999999999996,10.3 42.099999999999994,17.8 C 41.599999999999994,24.1 44.099999999999994,26.3 44.39999999999999,30.9 C 44.19999999999999,30.9 44.099999999999994,31.0 43.89999999999999,31.0 L 31.8,4.4 C 31.8,4.4 31.400000000000002,3.5000000000000004 30.900000000000002,3.8000000000000003 C 30.3,4.0 30.700000000000003,4.9 30.700000000000003,4.9 L 40.800000000000004,32.2 C 40.7,32.300000000000004 40.6,32.300000000000004 40.50000000000001,32.400000000000006 C 37.900000000000006,28.300000000000004 34.10000000000001,26.200000000000006 32.60000000000001,21.500000000000007 C 30.800000000000008,15.700000000000006 26.40000000000001,13.800000000000008 24.800000000000008,11.900000000000007 C 23.200000000000006,10.000000000000007 24.10000000000001,8.100000000000009 23.40000000000001,8.100000000000009 C 22.60000000000001,8.100000000000009 21.90000000000001,10.40000000000001 23.70000000000001,13.300000000000008 C 25.40000000000001,16.200000000000006 28.20000000000001,16.200000000000006 30.50000000000001,23.20000000000001 C 32.40000000000001,29.20000000000001 35.60000000000001,30.30000000000001 37.60000000000001,34.500000000000014 C 37.50000000000001,34.600000000000016 37.400000000000006,34.70000000000002 37.20000000000001,34.80000000000001 L 15.7,14.9 C 15.7,14.9 15.0,14.200000000000001 14.6,14.700000000000001 C 14.2,15.100000000000001 14.799999999999999,15.8 14.799999999999999,15.8 L 34.6,37.2 C 34.5,37.300000000000004 34.5,37.400000000000006 34.4,37.5 C 30.4,34.7 26.099999999999998,34.2 22.9,30.4 C 19.0,25.7 14.2,25.7 11.999999999999998,24.5 C 9.799999999999997,23.4 9.899999999999999,21.2 9.2,21.5 C 8.5,21.8 8.7,24.1 11.399999999999999,26.2 C 14.099999999999998,28.299999999999997 16.599999999999998,27.099999999999998 21.4,32.8 C 25.5,37.599999999999994 28.799999999999997,37.4 32.3,40.5 C 32.199999999999996,40.6 32.099999999999994,40.8 32.099999999999994,40.9 L 4.9,30.7 C 4.9,30.7 4.0,30.3 3.8000000000000003,30.9 C 3.6,31.5 4.4,31.799999999999997 4.4,31.799999999999997 L 30.9,44.0 C 30.9,44.1 30.799999999999997,44.2 30.799999999999997,44.3 C 26.099999999999998,43.3 21.9,44.5 17.499999999999996,42.199999999999996 C 12.099999999999996,39.4 7.699999999999996,41.099999999999994 5.199999999999996,40.99999999999999 C 2.6999999999999957,40.79999999999999 1.9999999999999956,38.79999999999999 1.4999999999999956,39.29999999999999 C 0.8999999999999956,39.79999999999999 2.0999999999999956,41.89999999999999 5.399999999999995,42.79999999999999 C 8.699999999999996,43.59999999999999 10.599999999999994,41.69999999999999 17.199999999999996,44.99999999999999 C 22.799999999999997,47.89999999999999 25.799999999999997,46.39999999999999 30.199999999999996,47.89999999999999 C 30.199999999999996,48.099999999999994 30.199999999999996,48.19999999999999 30.199999999999996,48.39999999999999 L 0.9,49.4 C 0.9,49.4 0.0,49.4 0.0,50.0 C 0.0,50.6 0.9,50.6 0.9,50.6 L 30.099999999999998,51.7 C 30.099999999999998,51.800000000000004 30.099999999999998,51.900000000000006 30.099999999999998,52.0 C 25.299999999999997,52.9 21.9,55.6 17.0,55.1 C 10.9,54.6 7.5,57.9 5.199999999999999,58.7 C 2.7999999999999994,59.5 1.3999999999999995,57.900000000000006 1.0999999999999996,58.6 C 0.7999999999999996,59.300000000000004 2.5999999999999996,60.800000000000004 6.0,60.300000000000004 C 9.4,59.800000000000004 10.3,57.300000000000004 17.8,57.900000000000006 C 24.1,58.400000000000006 26.3,55.900000000000006 30.9,55.60000000000001 C 30.9,55.80000000000001 31.0,55.900000000000006 31.0,56.10000000000001 L 4.4,68.2 C 4.4,68.2 3.5000000000000004,68.60000000000001 3.8000000000000003,69.10000000000001 C 4.0,69.7 4.9,69.30000000000001 4.9,69.30000000000001 L 32.2,59.20000000000001 C 32.300000000000004,59.30000000000001 32.300000000000004,59.40000000000001 32.400000000000006,59.50000000000001 C 28.300000000000004,62.10000000000001 26.200000000000006,65.9 21.500000000000007,67.4 C 15.700000000000006,69.2 13.800000000000008,73.60000000000001 11.900000000000007,75.2 C 10.000000000000007,76.8 8.100000000000009,75.9 8.100000000000009,76.60000000000001 C 8.100000000000009,77.4 10.40000000000001,78.10000000000001 13.300000000000008,76.30000000000001 C 16.200000000000006,74.60000000000001 16.200000000000006,71.80000000000001 23.20000000000001,69.50000000000001 C 29.20000000000001,67.60000000000001 30.30000000000001,64.40000000000002 34.500000000000014,62.40000000000001 C 34.600000000000016,62.500000000000014 34.70000000000002,62.600000000000016 34.80000000000001,62.80000000000001 L 14.9,84.3 C 14.9,84.3 14.200000000000001,85.0 14.700000000000001,85.39999999999999 C 15.100000000000001,85.8 15.8,85.19999999999999 15.8,85.19999999999999 L 37.2,65.39999999999999 C 37.300000000000004,65.49999999999999 37.400000000000006,65.49999999999999 37.5,65.6 C 34.7,69.6 34.2,73.89999999999999 30.4,77.1 C 25.7,81.0 25.7,85.8 24.5,88.0 C 23.4,90.2 21.2,90.1 21.5,90.8 C 21.8,91.5 24.1,91.3 26.2,88.6 C 28.299999999999997,85.89999999999999 27.099999999999998,83.39999999999999 32.8,78.6 C 37.599999999999994,74.5 37.4,71.19999999999999 40.5,67.69999999999999 C 40.6,67.79999999999998 40.8,67.89999999999999 40.9,67.89999999999999 L 30.7,95.1 C 30.7,95.1 30.3,96.0 30.9,96.19999999999999 C 31.5,96.39999999999999 31.799999999999997,95.6 31.799999999999997,95.6 L 44.0,69.1 C 44.1,69.1 44.2,69.19999999999999 44.3,69.19999999999999 C 43.3,73.89999999999999 44.5,78.1 42.199999999999996,82.49999999999999 C 39.4,87.89999999999999 41.099999999999994,92.29999999999998 40.99999999999999,94.79999999999998 C 40.79999999999999,97.29999999999998 38.79999999999999,97.99999999999999 39.29999999999999,98.49999999999999 C 39.79999999999999,99.09999999999998 41.89999999999999,97.89999999999999 42.79999999999999,94.59999999999998 C 43.59999999999999,91.29999999999998 41.69999999999999,89.39999999999998 44.99999999999999,82.79999999999998 C 47.89999999999999,77.19999999999999 46.39999999999999,74.19999999999999 47.89999999999999,69.79999999999998 C 48.099999999999994,69.79999999999998 48.19999999999999,69.79999999999998 48.39999999999999,69.79999999999998 L 49.49999999999999,98.99999999999999 C 49.49999999999999,98.99999999999999 49.49999999999999,99.89999999999999 50.099999999999994,99.89999999999999 C 50.699999999999996,99.89999999999999 50.699999999999996,98.99999999999999 50.699999999999996,98.99999999999999 L 51.8,69.79999999999998 C 51.9,69.79999999999998 52.0,69.79999999999998 52.099999999999994,69.79999999999998 C 52.99999999999999,74.59999999999998 55.699999999999996,77.99999999999999 55.199999999999996,82.89999999999998 C 54.699999999999996,88.99999999999997 57.99999999999999,92.39999999999998 58.8,94.69999999999997 C 59.599999999999994,97.09999999999998 58.0,98.49999999999997 58.699999999999996,98.79999999999997 C 59.4,99.09999999999997 60.9,97.29999999999997 60.4,93.89999999999996 C 59.9,90.49999999999996 57.4,89.59999999999997 58.0,82.09999999999997 C 58.5,75.79999999999997 56.0,73.59999999999997 55.7,68.99999999999997 C 55.900000000000006,68.99999999999997 56.0,68.89999999999998 56.2,68.89999999999998 L 68.4,95.39999999999998 C 68.4,95.39999999999998 68.80000000000001,96.29999999999998 69.30000000000001,95.99999999999997 C 69.9,95.79999999999997 69.50000000000001,94.89999999999998 69.50000000000001,94.89999999999998 L 59.2,67.8 C 59.300000000000004,67.7 59.400000000000006,67.7 59.5,67.6 C 62.1,71.69999999999999 65.9,73.8 67.4,78.5 C 69.2,84.3 73.60000000000001,86.2 75.2,88.1 C 76.8,90.0 75.9,91.89999999999999 76.60000000000001,91.89999999999999 C 77.4,91.89999999999999 78.10000000000001,89.6 76.30000000000001,86.69999999999999 C 74.60000000000001,83.79999999999998 71.80000000000001,83.79999999999998 69.50000000000001,76.79999999999998 C 67.60000000000001,70.79999999999998 64.40000000000002,69.69999999999999 62.40000000000001,65.49999999999999 C 62.500000000000014,65.39999999999999 62.600000000000016,65.29999999999998 62.80000000000001,65.19999999999999 L 84.20000000000002,84.99999999999999 C 84.20000000000002,84.99999999999999 84.90000000000002,85.69999999999999 85.30000000000001,85.19999999999999 C 85.70000000000002,84.79999999999998 85.10000000000001,84.1 85.10000000000001,84.1 L 65.3,62.9 C 65.39999999999999,62.8 65.39999999999999,62.699999999999996 65.5,62.6 C 69.5,65.4 73.8,65.9 77.0,69.7 C 80.9,74.4 85.7,74.4 87.9,75.60000000000001 C 90.10000000000001,76.7 90.0,78.9 90.7,78.60000000000001 C 91.4,78.30000000000001 91.2,76.00000000000001 88.5,73.9 C 85.8,71.9 83.3,73.0 78.5,67.30000000000001 C 74.4,62.500000000000014 71.1,62.70000000000001 67.6,59.60000000000001 C 67.69999999999999,59.50000000000001 67.8,59.30000000000001 67.8,59.20000000000001 L 95.1,69.30000000000001 C 95.1,69.30000000000001 96.0,69.70000000000002 96.19999999999999,69.10000000000001 C 96.39999999999999,68.50000000000001 95.6,68.2 95.6,68.2 L 69.1,56.0 C 69.1,55.9 69.19999999999999,55.8 69.19999999999999,55.7 C 73.89999999999999,56.7 78.1,55.5 82.49999999999999,57.800000000000004 C 87.89999999999999,60.6 92.29999999999998,58.900000000000006 94.79999999999998,59.00000000000001 C 97.29999999999998,59.20000000000001 97.99999999999999,61.20000000000001 98.49999999999999,60.70000000000001 C 99.09999999999998,60.20000000000001 97.89999999999999,58.10000000000001 94.59999999999998,57.20000000000001 C 91.29999999999998,56.40000000000001 89.39999999999998,58.30000000000001 82.79999999999998,55.00000000000001 C 77.19999999999999,52.10000000000001 74.19999999999999,53.60000000000001 69.79999999999998,52.10000000000001 C 69.79999999999998,51.900000000000006 69.79999999999998,51.80000000000001 69.79999999999998,51.60000000000001 L 98.99999999999999,50.50000000000001 C 98.99999999999999,50.50000000000001 99.89999999999999,50.50000000000001 99.89999999999999,49.900000000000006 C 99.89999999999999,49.300000000000004 99.1,49.4 99.1,49.4 M 52.8,64.2 C 52.8,64.10000000000001 52.8,64.0 52.699999999999996,64.0 C 52.699999999999996,64.0 52.699999999999996,64.0 52.699999999999996,63.9 C 52.699999999999996,63.8 52.699999999999996,63.8 52.599999999999994,63.699999999999996 C 52.599999999999994,63.699999999999996 52.599999999999994,63.699999999999996 52.599999999999994,63.599999999999994 C 52.599999999999994,63.49999999999999 52.49999999999999,63.49999999999999 52.49999999999999,63.39999999999999 C 52.49999999999999,63.39999999999999 52.49999999999999,63.29999999999999 52.49999999999999,63.29999999999999 C 52.49999999999999,63.29999999999999 52.39999999999999,63.19999999999999 52.39999999999999,63.19999999999999 C 52.39999999999999,63.19999999999999 52.39999999999999,63.19999999999999 52.29999999999999,63.09999999999999 C 52.29999999999999,62.999999999999986 52.19999999999999,62.999999999999986 52.19999999999999,62.899999999999984 C 52.19999999999999,62.899999999999984 52.19999999999999,62.899999999999984 52.09999999999999,62.79999999999998 C 52.09999999999999,62.79999999999998 51.999999999999986,62.69999999999998 51.999999999999986,62.69999999999998 C 51.999999999999986,62.69999999999998 51.999999999999986,62.69999999999998 51.899999999999984,62.59999999999998 C 51.79999999999998,62.49999999999998 51.79999999999998,62.49999999999998 51.69999999999998,62.39999999999998 C 51.69999999999998,62.39999999999998 51.69999999999998,62.39999999999998 51.69999999999998,62.39999999999998 C 51.59999999999998,62.39999999999998 51.59999999999998,62.299999999999976 51.49999999999998,62.299999999999976 C 51.49999999999998,62.299999999999976 51.49999999999998,62.299999999999976 51.39999999999998,62.299999999999976 C 51.299999999999976,62.299999999999976 51.299999999999976,62.199999999999974 51.199999999999974,62.199999999999974 C 51.199999999999974,62.199999999999974 51.199999999999974,62.199999999999974 51.199999999999974,62.199999999999974 C 51.09999999999997,62.199999999999974 51.09999999999997,62.09999999999997 50.99999999999997,62.09999999999997 C 50.99999999999997,62.09999999999997 50.99999999999997,62.09999999999997 50.89999999999997,62.09999999999997 C 50.79999999999997,62.09999999999997 50.79999999999997,62.09999999999997 50.69999999999997,61.99999999999997 C 50.69999999999997,61.99999999999997 50.599999999999966,61.99999999999997 50.599999999999966,61.99999999999997 C 50.599999999999966,61.99999999999997 50.499999999999964,61.99999999999997 50.499999999999964,61.99999999999997 C 50.39999999999996,61.99999999999997 50.39999999999996,61.99999999999997 50.29999999999996,61.99999999999997 C 50.29999999999996,61.99999999999997 50.19999999999996,61.99999999999997 50.19999999999996,61.99999999999997 C 50.09999999999996,61.99999999999997 50.09999999999996,61.99999999999997 49.99999999999996,61.99999999999997 C 49.99999999999996,61.99999999999997 49.899999999999956,61.99999999999997 49.899999999999956,61.99999999999997 C 49.899999999999956,61.99999999999997 49.799999999999955,61.99999999999997 49.799999999999955,61.99999999999997 C 49.69999999999995,61.99999999999997 49.69999999999995,61.99999999999997 49.59999999999995,61.99999999999997 C 49.59999999999995,61.99999999999997 49.49999999999995,61.99999999999997 49.49999999999995,61.99999999999997 C 49.39999999999995,61.99999999999997 49.39999999999995,61.99999999999997 49.29999999999995,61.99999999999997 C 49.29999999999995,61.99999999999997 49.199999999999946,61.99999999999997 49.199999999999946,61.99999999999997 C 49.199999999999946,61.99999999999997 49.099999999999945,61.99999999999997 49.099999999999945,61.99999999999997 C 48.99999999999994,61.99999999999997 48.99999999999994,61.99999999999997 48.89999999999994,62.09999999999997 C 48.89999999999994,62.09999999999997 48.89999999999994,62.09999999999997 48.79999999999994,62.09999999999997 C 48.69999999999994,62.09999999999997 48.69999999999994,62.199999999999974 48.59999999999994,62.199999999999974 C 48.59999999999994,62.199999999999974 48.59999999999994,62.199999999999974 48.59999999999994,62.199999999999974 C 48.499999999999936,62.199999999999974 48.499999999999936,62.299999999999976 48.399999999999935,62.299999999999976 C 48.399999999999935,62.299999999999976 48.399999999999935,62.299999999999976 48.29999999999993,62.299999999999976 C 48.19999999999993,62.299999999999976 48.19999999999993,62.39999999999998 48.09999999999993,62.39999999999998 C 48.09999999999993,62.39999999999998 48.09999999999993,62.39999999999998 48.09999999999993,62.39999999999998 C 47.99999999999993,62.39999999999998 47.99999999999993,62.49999999999998 47.89999999999993,62.59999999999998 C 47.89999999999993,62.59999999999998 47.89999999999993,62.59999999999998 47.799999999999926,62.69999999999998 C 47.799999999999926,62.69999999999998 47.699999999999925,62.79999999999998 47.699999999999925,62.79999999999998 C 47.699999999999925,62.79999999999998 47.699999999999925,62.79999999999998 47.59999999999992,62.899999999999984 C 47.59999999999992,62.999999999999986 47.49999999999992,62.999999999999986 47.49999999999992,63.09999999999999 C 47.49999999999992,63.09999999999999 47.49999999999992,63.09999999999999 47.39999999999992,63.19999999999999 C 47.39999999999992,63.19999999999999 47.29999999999992,63.29999999999999 47.29999999999992,63.29999999999999 C 47.29999999999992,63.29999999999999 47.29999999999992,63.39999999999999 47.29999999999992,63.39999999999999 C 47.29999999999992,63.49999999999999 47.19999999999992,63.49999999999999 47.19999999999992,63.599999999999994 C 47.19999999999992,63.599999999999994 47.19999999999992,63.599999999999994 47.19999999999992,63.699999999999996 C 47.19999999999992,63.8 47.099999999999916,63.8 47.099999999999916,63.9 C 47.099999999999916,63.9 47.099999999999916,63.9 47.099999999999916,64.0 C 47.099999999999916,64.1 46.999999999999915,64.2 46.999999999999915,64.2 C 46.999999999999915,62.7 48.19999999999992,61.400000000000006 49.79999999999991,61.400000000000006 C 46.39999999999991,61.400000000000006 47.999999999999915,59.60000000000001 44.69999999999991,59.2 C 46.09999999999991,58.300000000000004 46.69999999999991,56.900000000000006 48.19999999999991,56.900000000000006 C 48.49999999999991,56.900000000000006 49.09999999999991,57.10000000000001 49.69999999999991,57.400000000000006 C 50.29999999999991,57.10000000000001 50.89999999999991,56.900000000000006 51.19999999999991,56.900000000000006 C 52.69999999999991,56.900000000000006 53.39999999999991,58.300000000000004 54.69999999999991,59.2 C 51.49999999999991,59.5 52.99999999999991,61.400000000000006 49.59999999999991,61.400000000000006 C 51.5,61.4 52.8,62.6 52.8,64.2 M 53.2,52.8 C 53.6,52.9 53.900000000000006,53.099999999999994 54.1,53.4 C 54.5,54.0 54.4,54.9 53.800000000000004,55.3 C 53.2,55.699999999999996 52.300000000000004,55.599999999999994 51.900000000000006,55.0 C 51.300000000000004,55.5 50.400000000000006,55.5 50.10000000000001,55.5 C 49.80000000000001,55.5 48.900000000000006,55.5 48.30000000000001,55.0 C 47.90000000000001,55.6 47.000000000000014,55.8 46.40000000000001,55.3 C 45.80000000000001,54.9 45.600000000000016,54.0 46.100000000000016,53.4 C 46.30000000000002,53.1 46.600000000000016,52.9 47.000000000000014,52.8 C 46.500000000000014,53.0 46.30000000000001,53.5 46.40000000000001,54.0 C 46.600000000000016,54.5 47.100000000000016,54.7 47.600000000000016,54.6 C 47.90000000000001,54.5 48.20000000000002,54.2 48.20000000000002,53.800000000000004 C 48.40000000000002,54.1 49.000000000000014,55.00000000000001 50.20000000000002,55.00000000000001 C 51.40000000000002,55.00000000000001 52.000000000000014,54.10000000000001 52.20000000000002,53.800000000000004 C 52.20000000000002,54.2 52.500000000000014,54.50000000000001 52.80000000000002,54.6 C 53.30000000000002,54.800000000000004 53.80000000000002,54.5 54.00000000000002,54.0 C 54.0,53.5 53.7,52.9 53.2,52.8 M 48.0,52.9 C 47.8,52.699999999999996 47.5,52.6 47.4,52.6 C 49.5,49.6 49.6,46.800000000000004 47.9,44.400000000000006 C 45.4,42.10000000000001 41.0,42.60000000000001 37.4,45.60000000000001 C 40.8,41.00000000000001 45.4,41.30000000000001 48.8,44.10000000000001 C 49.8,46.9 49.6,50.0 48.0,52.9 M 42.9,44.8 C 44.9,44.8 45.4,45.3 46.3,46.0 C 47.199999999999996,46.8 47.699999999999996,46.6 47.8,46.8 C 48.0,47.0 47.8,47.4 47.5,47.3 C 47.2,47.099999999999994 46.6,46.8 45.7,46.099999999999994 C 44.800000000000004,45.3 43.900000000000006,45.3 42.900000000000006,45.3 C 40.10000000000001,45.3 38.60000000000001,47.599999999999994 38.300000000000004,47.5 C 38.0,47.2 39.8,44.8 42.9,44.8 M 46.6,47.5 C 45.800000000000004,48.2 44.6,48.6 43.2,48.6 C 43.2,48.6 43.2,48.6 43.2,48.6 C 43.2,48.6 43.1,48.6 43.1,48.6 C 41.800000000000004,48.6 40.5,48.2 39.4,47.4 C 41.4,45.2 45.1,45.1 46.6,47.5 M 45.4,48.8 C 46.6,48.199999999999996 46.9,47.9 47.199999999999996,47.9 C 47.49999999999999,47.9 47.49999999999999,48.199999999999996 45.99999999999999,49.1 C 44.49999999999999,50.0 41.79999999999999,50.2 39.199999999999996,48.2 C 42.3,49.4 44.2,49.4 45.4,48.8 M 54.0,49.1 C 52.5,48.2 52.5,47.9 52.8,47.9 C 53.099999999999994,47.9 53.4,48.199999999999996 54.599999999999994,48.8 C 55.8,49.4 57.699999999999996,49.4 60.8,48.199999999999996 C 58.2,50.2 55.5,50.0 54.0,49.1 M 53.4,47.5 C 54.9,45.0 58.6,45.2 60.6,47.3 C 59.5,48.099999999999994 58.2,48.5 56.9,48.5 C 56.9,48.5 56.8,48.5 56.8,48.5 C 56.8,48.5 56.8,48.5 56.8,48.5 C 55.4,48.6 54.2,48.2 53.4,47.5 M 57.1,45.2 C 56.2,45.2 55.300000000000004,45.2 54.300000000000004,46.0 C 53.400000000000006,46.8 52.800000000000004,47.1 52.50000000000001,47.2 C 52.20000000000001,47.400000000000006 52.00000000000001,46.900000000000006 52.20000000000001,46.7 C 52.40000000000001,46.5 52.80000000000001,46.7 53.70000000000001,45.900000000000006 C 54.60000000000001,45.10000000000001 55.10000000000001,44.7 57.10000000000001,44.7 C 60.20000000000001,44.7 62.00000000000001,47.2 61.70000000000001,47.300000000000004 C 61.4,47.5 59.8,45.2 57.1,45.2 M 52.2,44.5 C 50.400000000000006,46.9 50.6,49.7 52.7,52.7 C 52.5,52.7 52.2,52.900000000000006 52.1,53.0 C 50.5,50.0 50.300000000000004,47.0 51.300000000000004,44.2 C 54.7,41.400000000000006 59.300000000000004,41.1 62.7,45.7 C 59.1,42.6 54.6,42.2 52.2,44.5"
              fill="#ffffff" stroke="none" stroke-width="2.0"/>
    </g>
</svg>