<?xml version="1.0" encoding="utf-8" ?>
<svg baseProfile="full" height="100px" version="1.1" width="150px" xmlns="http://www.w3.org/2000/svg" xmlns:ev="http://www.w3.org/2001/xml-events" xmlns:xlink="http://www.w3.org/1999/xlink"><defs><clipPath id="mask0"><rect height="100" width="150" x="0" y="0" /></clipPath></defs><g clip-path="url(#mask0)"><rect fill="#ffffff" height="100" stroke="none" width="21.428571428571427" x="0.0" y="0" /><rect fill="#003897" height="100" stroke="none" width="21.428571428571427" x="21.428571428571427" y="0" /><rect fill="#ffffff" height="100" stroke="none" width="21.428571428571427" x="42.857142857142854" y="0" /><rect fill="#003897" height="100" stroke="none" width="21.428571428571427" x="64.28571428571429" y="0" /><rect fill="#ffffff" height="100" stroke="none" width="21.428571428571427" x="85.71428571428571" y="0" /><rect fill="#003897" height="100" stroke="none" width="21.428571428571427" x="107.14285714285714" y="0" /><rect fill="#ffffff" height="100" stroke="none" width="21.428571428571427" x="128.57142857142858" y="0" /></g><g transform="translate(50.1936035533069, 25.193603553306904) scale(0.49612792893386193) rotate(0, 50.0, 50.0)"><path d="M 42.4,7.0 C 18.9,7.4 0.0,26.7 0.0,50.3 C 0.0,74.19999999999999 19.4,93.6 43.3,93.6 C 54.5,93.6 64.6,89.39999999999999 72.3,82.39999999999999 C 66.89999999999999,85.49999999999999 60.599999999999994,87.3 53.9,87.3 C 33.5,87.2 17.0,70.7 17.0,50.3 C 17.0,29.9 33.5,13.399999999999999 53.9,13.399999999999999 C 60.6,13.399999999999999 67.0,15.2 72.4,18.4 C 64.7,11.3 54.5,7.0 43.3,7.0 C 43.0,7.0 42.7,7.0 42.4,7.0 L 42.4,7.0" fill="#ff3333" stroke="none" stroke-width="2.0" /><path d="M 85.8,69.9 L 77.0,57.8 L 62.8,62.4 L 71.6,50.3 L 62.8,38.199999999999996 L 77.0,42.8 L 85.8,30.699999999999996 L 85.8,45.699999999999996 L 100.0,50.3 L 85.8,54.9 L 85.8,69.9" fill="#ff3333" stroke="none" stroke-width="2.0" /></g></svg>