<?xml version="1.0" encoding="utf-8" ?>
<svg baseProfile="full" height="100px" version="1.1" width="150px" xmlns="http://www.w3.org/2000/svg" xmlns:ev="http://www.w3.org/2001/xml-events" xmlns:xlink="http://www.w3.org/1999/xlink"><defs><clipPath id="mask0"><rect height="100" width="150" x="0" y="0" /></clipPath></defs><g clip-path="url(#mask0)"><rect fill="#0066cc" height="33.333333333333336" stroke="none" width="150" x="0" y="0.0" /><rect fill="#cc3200" height="33.333333333333336" stroke="none" width="150" x="0" y="33.333333333333336" /><rect fill="#ffffff" height="33.333333333333336" stroke="none" width="150" x="0" y="66.66666666666667" /></g><g transform="translate(42.580150124042085, 17.580150124042085) scale(0.6483969975191584) rotate(0, 50.0, 50.0)"><path d="M 99.7,33.4 C 99.4,29.599999999999998 99.0,25.799999999999997 98.5,22.0 C 98.8,22.1 99.1,22.2 99.5,22.3 C 99.6,21.0 99.2,19.8 98.7,18.6 C 98.5,18.200000000000003 98.3,17.700000000000003 97.9,17.400000000000002 C 97.30000000000001,17.400000000000002 96.60000000000001,17.900000000000002 96.60000000000001,18.500000000000004 C 96.50000000000001,19.200000000000003 96.60000000000001,19.900000000000002 96.7,20.600000000000005 C 97.2,26.200000000000003 97.8,31.800000000000004 98.4,37.400000000000006 C 98.60000000000001,38.800000000000004 98.60000000000001,40.300000000000004 98.30000000000001,41.7 C 98.00000000000001,40.800000000000004 97.80000000000001,40.0 97.30000000000001,39.2 C 96.10000000000001,37.300000000000004 94.30000000000001,35.800000000000004 92.60000000000001,34.300000000000004 C 92.2,34.00000000000001 92.2,33.6 92.2,33.2 C 92.0,29.500000000000004 91.60000000000001,25.900000000000002 91.3,22.200000000000003 C 91.6,22.300000000000004 91.89999999999999,22.400000000000002 92.2,22.400000000000002 C 92.3,21.8 92.0,21.000000000000004 92.60000000000001,20.500000000000004 C 93.7,19.600000000000005 94.80000000000001,18.500000000000004 95.10000000000001,17.000000000000004 C 93.80000000000001,17.600000000000005 92.80000000000001,18.500000000000004 91.7,19.400000000000002 L 91.7,19.400000000000002 C 91.4,18.8 91.10000000000001,18.000000000000004 90.5,17.400000000000002 C 89.9,17.400000000000002 89.2,17.900000000000002 89.2,18.500000000000004 C 89.10000000000001,19.200000000000003 89.3,20.000000000000004 89.2,20.700000000000003 C 89.2,21.400000000000002 88.5,21.700000000000003 88.0,22.1 C 86.8,23.0 85.7,24.0 84.5,24.900000000000002 C 84.4,23.900000000000002 84.3,23.000000000000004 84.2,22.000000000000004 C 84.5,22.100000000000005 84.8,22.100000000000005 85.2,22.200000000000003 C 85.2,21.700000000000003 85.2,21.1 85.10000000000001,20.6 C 84.80000000000001,19.400000000000002 84.30000000000001,18.200000000000003 83.60000000000001,17.3 C 83.2,17.5 82.80000000000001,17.6 82.50000000000001,17.900000000000002 C 81.9,18.5 82.0,19.0 82.0,19.5 C 82.1,20.8 82.3,22.0 82.3,23.3 C 81.7,22.7 81.2,22.2 80.5,21.7 C 79.6,21.0 78.6,20.3 77.4,20.099999999999998 C 77.30000000000001,20.7 77.10000000000001,21.4 77.30000000000001,21.999999999999996 C 77.60000000000001,22.899999999999995 78.30000000000001,23.499999999999996 78.9,24.199999999999996 C 79.9,25.199999999999996 80.9,26.199999999999996 81.80000000000001,27.199999999999996 C 81.00000000000001,27.999999999999996 80.10000000000001,28.599999999999994 79.30000000000001,29.399999999999995 C 78.60000000000001,29.999999999999996 77.80000000000001,30.699999999999996 77.00000000000001,31.299999999999994 C 76.70000000000002,28.299999999999994 76.40000000000002,25.299999999999994 76.00000000000001,22.299999999999994 C 76.30000000000001,22.399999999999995 76.60000000000001,22.599999999999994 76.90000000000002,22.699999999999992 C 77.00000000000001,22.199999999999992 77.10000000000002,21.699999999999992 76.90000000000002,21.199999999999992 C 76.70000000000002,20.199999999999992 76.30000000000003,19.199999999999992 75.80000000000003,18.299999999999994 C 75.60000000000002,18.099999999999994 75.50000000000003,17.799999999999994 75.20000000000003,17.799999999999994 C 74.50000000000003,17.799999999999994 74.00000000000003,18.499999999999993 74.00000000000003,19.199999999999992 C 74.00000000000003,20.39999999999999 74.20000000000003,21.499999999999993 74.30000000000003,22.699999999999992 C 74.60000000000002,25.89999999999999 74.80000000000003,29.099999999999994 75.20000000000003,32.29999999999999 C 75.20000000000003,32.59999999999999 75.30000000000003,32.89999999999999 75.10000000000004,33.09999999999999 C 74.90000000000003,33.29999999999999 74.60000000000004,33.499999999999986 74.40000000000003,33.79999999999999 C 73.30000000000004,34.69999999999999 72.20000000000003,35.69999999999999 71.10000000000004,36.69999999999999 C 69.20000000000003,35.19999999999999 67.40000000000003,33.69999999999999 65.60000000000004,32.09999999999999 C 65.40000000000003,31.899999999999988 65.20000000000003,31.69999999999999 65.00000000000004,31.499999999999986 C 64.90000000000005,31.099999999999987 64.90000000000005,30.699999999999985 64.80000000000004,30.399999999999984 C 64.60000000000004,27.699999999999985 64.30000000000004,25.099999999999984 64.10000000000004,22.399999999999984 C 64.40000000000003,22.499999999999986 64.70000000000003,22.599999999999984 65.00000000000004,22.699999999999985 C 65.00000000000004,22.199999999999985 65.10000000000004,21.699999999999985 64.90000000000005,21.199999999999985 C 64.60000000000005,19.999999999999986 64.10000000000005,18.799999999999986 63.40000000000005,17.699999999999985 C 63.00000000000005,17.799999999999986 62.60000000000005,17.999999999999986 62.30000000000005,18.299999999999986 C 62.00000000000005,18.699999999999985 62.00000000000005,19.199999999999985 62.00000000000005,19.599999999999987 C 62.20000000000005,22.899999999999988 62.50000000000005,26.19999999999999 62.60000000000005,29.499999999999986 C 61.40000000000005,28.499999999999986 60.40000000000005,27.399999999999984 59.50000000000005,26.099999999999987 C 59.90000000000005,26.099999999999987 60.30000000000005,26.099999999999987 60.80000000000005,26.099999999999987 C 60.700000000000045,25.69999999999999 60.50000000000005,25.299999999999986 60.200000000000045,24.899999999999988 C 59.50000000000004,24.19999999999999 58.700000000000045,23.49999999999999 57.90000000000005,22.99999999999999 C 57.40000000000005,22.79999999999999 56.90000000000005,22.49999999999999 56.40000000000005,22.49999999999999 C 55.90000000000005,22.899999999999988 56.10000000000005,23.59999999999999 56.200000000000045,23.99999999999999 C 56.600000000000044,25.19999999999999 57.40000000000005,26.19999999999999 58.200000000000045,27.19999999999999 C 59.50000000000004,28.79999999999999 61.00000000000004,30.29999999999999 62.50000000000004,31.69999999999999 C 62.90000000000004,31.99999999999999 62.90000000000004,32.499999999999986 63.00000000000004,32.89999999999999 C 63.30000000000004,36.79999999999999 63.600000000000044,40.599999999999994 63.90000000000004,44.49999999999999 C 64.00000000000004,45.199999999999996 64.10000000000004,45.89999999999999 64.20000000000005,46.49999999999999 C 64.70000000000005,45.99999999999999 65.00000000000004,45.29999999999999 65.00000000000004,44.599999999999994 C 65.50000000000004,41.099999999999994 65.20000000000005,37.599999999999994 65.10000000000004,33.99999999999999 C 66.60000000000004,35.29999999999999 68.00000000000004,36.49999999999999 69.50000000000004,37.79999999999999 C 68.40000000000005,38.89999999999999 67.50000000000004,40.19999999999999 67.00000000000004,41.59999999999999 C 66.80000000000004,42.399999999999984 66.60000000000004,43.399999999999984 67.00000000000004,44.19999999999999 C 67.60000000000004,45.09999999999999 67.10000000000004,46.19999999999999 67.40000000000005,47.09999999999999 C 67.70000000000005,48.29999999999999 68.40000000000005,49.499999999999986 69.60000000000005,50.09999999999999 C 70.30000000000005,50.499999999999986 71.30000000000005,50.69999999999999 72.10000000000005,50.19999999999999 C 72.80000000000005,49.79999999999999 73.20000000000005,48.999999999999986 73.50000000000006,48.19999999999999 C 74.00000000000006,46.89999999999999 74.30000000000005,45.39999999999999 75.30000000000005,44.499999999999986 C 75.80000000000005,43.999999999999986 76.50000000000006,43.79999999999998 77.20000000000006,43.69999999999999 C 77.60000000000007,44.59999999999999 77.80000000000005,45.499999999999986 78.20000000000006,46.29999999999999 C 78.60000000000007,46.99999999999999 79.20000000000006,47.59999999999999 80.00000000000006,47.69999999999999 C 80.70000000000006,47.79999999999999 81.50000000000006,47.89999999999999 82.30000000000005,47.79999999999999 C 83.70000000000006,47.69999999999999 85.00000000000006,46.59999999999999 85.50000000000006,45.29999999999999 C 86.0,44.0 86.0,42.5 85.8,41.0 C 85.6,38.9 85.6,36.9 85.39999999999999,34.8 C 85.3,33.3 85.1,31.799999999999997 84.99999999999999,30.199999999999996 C 86.49999999999999,31.499999999999996 87.89999999999999,32.9 89.39999999999999,34.199999999999996 C 89.8,34.49999999999999 90.1,34.9 90.1,35.4 C 90.3,37.9 90.5,40.4 90.69999999999999,42.9 C 90.79999999999998,44.1 90.89999999999999,45.199999999999996 91.1,46.4 C 91.5,46.0 91.8,45.4 91.89999999999999,44.8 C 92.3,42.099999999999994 92.19999999999999,39.4 92.1,36.699999999999996 C 94.5,38.4 96.19999999999999,40.99999999999999 97.19999999999999,43.699999999999996 C 96.39999999999999,44.8 95.19999999999999,45.49999999999999 94.1,46.199999999999996 C 92.89999999999999,46.99999999999999 91.69999999999999,47.599999999999994 90.3,48.199999999999996 C 89.39999999999999,48.599999999999994 88.39999999999999,48.9 87.6,49.4 C 88.39999999999999,49.6 89.19999999999999,49.5 90.1,49.4 C 92.1,49.0 94.1,48.3 95.8,47.199999999999996 C 97.89999999999999,45.9 99.0,43.49999999999999 99.5,41.099999999999994 C 100.3,38.6 99.9,36.0 99.7,33.4 M 81.5,23.9 C 81.8,23.9 82.1,23.9 82.5,23.9 C 82.5,24.299999999999997 82.5,24.599999999999998 82.5,25.0 C 82.1,24.7 81.8,24.3 81.5,23.9 M 68.8,41.2 C 69.39999999999999,40.400000000000006 70.1,39.6 70.8,38.900000000000006 C 71.39999999999999,39.400000000000006 72.1,40.00000000000001 72.2,40.800000000000004 C 72.3,41.2 71.9,41.50000000000001 71.60000000000001,41.7 C 70.60000000000001,42.300000000000004 69.4,42.5 68.30000000000001,42.400000000000006 C 68.3,42.0 68.5,41.6 68.8,41.2 M 84.0,44.9 C 82.7,46.1 80.4,46.1 79.3,44.6 C 78.7,43.800000000000004 78.5,42.800000000000004 78.0,41.9 C 77.8,41.5 77.3,41.6 76.9,41.6 C 75.7,41.6 74.7,42.4 74.10000000000001,43.4 C 73.30000000000001,44.6 72.80000000000001,45.8 72.2,47.1 C 71.9,47.7 71.5,48.4 70.8,48.6 C 70.1,48.800000000000004 69.5,48.300000000000004 69.1,47.800000000000004 C 68.5,46.900000000000006 68.3,45.800000000000004 68.0,44.800000000000004 C 69.6,44.6 71.3,44.400000000000006 72.5,43.400000000000006 C 73.5,42.60000000000001 73.9,41.10000000000001 73.6,39.900000000000006 C 73.39999999999999,39.00000000000001 72.8,38.300000000000004 72.19999999999999,37.60000000000001 C 73.19999999999999,36.60000000000001 74.29999999999998,35.70000000000001 75.39999999999999,34.80000000000001 C 75.69999999999999,36.60000000000001 75.69999999999999,38.40000000000001 76.1,40.20000000000001 C 76.39999999999999,39.90000000000001 76.8,39.60000000000001 76.89999999999999,39.10000000000001 C 77.39999999999999,37.30000000000001 77.19999999999999,35.400000000000006 77.19999999999999,33.50000000000001 C 77.19999999999999,33.10000000000001 77.49999999999999,32.900000000000006 77.69999999999999,32.70000000000001 C 79.39999999999999,31.30000000000001 80.99999999999999,29.90000000000001 82.69999999999999,28.50000000000001 C 83.19999999999999,33.40000000000001 83.69999999999999,38.30000000000001 84.19999999999999,43.20000000000001 C 84.5,43.9 84.5,44.5 84.0,44.9 M 85.4,28.2 C 85.10000000000001,27.9 84.80000000000001,27.7 84.7,27.4 C 84.7,27.0 85.10000000000001,26.799999999999997 85.3,26.599999999999998 L 85.3,26.599999999999998 C 86.7,25.499999999999996 87.89999999999999,24.299999999999997 89.3,23.299999999999997 C 89.5,24.799999999999997 89.5,26.299999999999997 89.6,27.9 C 89.69999999999999,29.299999999999997 89.8,30.799999999999997 89.89999999999999,32.199999999999996 C 88.3,31.0 86.9,29.6 85.4,28.2" fill="#000000" stroke="none" stroke-width="3.0" /><path d="M 3.4,30.4 C 4.1,30.299999999999997 4.6,29.7 4.9,29.099999999999998 C 5.6000000000000005,27.499999999999996 6.0,25.799999999999997 6.5,24.199999999999996 C 6.7,23.699999999999996 7.0,23.199999999999996 7.4,22.799999999999997 C 7.2,23.799999999999997 6.800000000000001,24.799999999999997 6.800000000000001,25.799999999999997 C 6.700000000000001,27.099999999999998 7.1000000000000005,28.599999999999998 8.100000000000001,29.499999999999996 C 8.700000000000001,30.099999999999998 9.600000000000001,30.299999999999997 10.400000000000002,30.499999999999996 C 10.700000000000003,33.199999999999996 10.900000000000002,35.9 11.200000000000003,38.699999999999996 C 11.400000000000002,39.99999999999999 11.400000000000002,41.4 11.700000000000003,42.699999999999996 C 12.500000000000004,42.099999999999994 12.600000000000003,40.99999999999999 12.700000000000003,40.099999999999994 C 13.000000000000004,36.8 12.600000000000003,33.599999999999994 12.500000000000004,30.299999999999994 C 13.100000000000003,29.999999999999993 13.800000000000004,29.599999999999994 14.300000000000004,28.999999999999993 C 15.100000000000005,28.099999999999994 15.600000000000005,26.89999999999999 16.000000000000004,25.699999999999992 C 16.300000000000004,26.59999999999999 16.600000000000005,27.59999999999999 17.300000000000004,28.199999999999992 C 18.400000000000006,29.299999999999994 20.000000000000004,29.59999999999999 21.400000000000006,29.39999999999999 C 22.600000000000005,29.199999999999992 23.600000000000005,28.199999999999992 23.800000000000004,26.999999999999993 C 24.000000000000004,26.099999999999994 24.000000000000004,25.199999999999992 23.700000000000003,24.39999999999999 C 23.300000000000004,22.999999999999993 22.1,21.999999999999993 22.000000000000004,20.499999999999993 C 22.300000000000004,20.499999999999993 22.600000000000005,20.39999999999999 23.000000000000004,20.39999999999999 C 22.600000000000005,19.499999999999993 22.000000000000004,18.699999999999992 21.400000000000002,17.999999999999993 C 21.200000000000003,17.799999999999994 20.900000000000002,17.39999999999999 20.6,17.599999999999994 L 20.6,17.599999999999994 C 19.900000000000002,17.999999999999993 19.8,18.899999999999995 19.900000000000002,19.499999999999993 C 20.3,21.299999999999994 21.200000000000003,22.799999999999994 22.000000000000004,24.39999999999999 C 22.300000000000004,25.09999999999999 22.600000000000005,25.89999999999999 22.400000000000002,26.699999999999992 C 22.3,27.09999999999999 22.000000000000004,27.499999999999993 21.6,27.499999999999993 C 20.8,27.599999999999994 19.900000000000002,27.499999999999993 19.1,27.099999999999994 C 18.200000000000003,26.599999999999994 17.5,25.699999999999996 17.200000000000003,24.699999999999996 C 16.800000000000004,23.499999999999996 17.000000000000004,22.299999999999997 16.800000000000004,21.099999999999994 C 16.600000000000005,20.199999999999996 16.500000000000004,19.299999999999994 16.100000000000005,18.399999999999995 C 16.000000000000004,18.199999999999996 15.800000000000004,17.899999999999995 15.600000000000005,17.999999999999996 C 15.000000000000005,18.199999999999996 14.500000000000005,18.899999999999995 14.600000000000005,19.599999999999998 C 14.800000000000004,20.299999999999997 15.100000000000005,20.999999999999996 15.300000000000004,21.7 C 15.800000000000004,23.4 15.600000000000005,25.2 14.600000000000005,26.7 C 14.100000000000005,27.5 13.300000000000004,28.0 12.500000000000005,28.2 C 12.300000000000006,26.2 12.100000000000005,24.1 11.900000000000006,22.1 C 12.200000000000006,22.200000000000003 12.500000000000005,22.200000000000003 12.900000000000006,22.3 C 12.900000000000006,20.5 12.200000000000006,18.8 11.200000000000006,17.4 C 10.700000000000006,17.599999999999998 10.000000000000007,17.799999999999997 9.900000000000006,18.4 C 9.700000000000006,19.299999999999997 9.900000000000006,20.2 10.000000000000005,21.099999999999998 C 10.200000000000005,23.499999999999996 10.400000000000006,25.9 10.500000000000005,28.199999999999996 C 9.900000000000006,27.999999999999996 9.300000000000006,27.899999999999995 8.900000000000006,27.299999999999997 C 8.1,26.8 8.0,25.9 8.0,25.1 C 8.1,23.3 8.8,21.700000000000003 9.0,20.0 C 7.6,20.3 6.6,21.5 6.0,22.8 C 5.4,24.3 4.9,25.900000000000002 4.4,27.5 C 4.2,27.9 4.1000000000000005,28.4 3.8000000000000003,28.7 C 3.2,29.2 2.2,29.3 1.6,28.7 C 1.2000000000000002,28.4 1.1,27.8 1.0,27.3 C 0.8,26.5 0.7,25.6 0.8,24.8 C 0.9,24.2 1.2000000000000002,23.7 1.5,23.2 C 1.0,23.5 0.5,23.8 0.19999999999999996,24.3 C -0.1,25.2 0.0,26.3 0.0,27.2 C 0.1,28.099999999999998 0.3,29.2 1.0,29.8 C 1.6,30.5 2.6,30.6 3.4,30.4" fill="#000000" stroke="none" stroke-width="3.0" /><path d="M 57.7,21.4 C 58.1,21.099999999999998 58.300000000000004,20.599999999999998 58.400000000000006,20.2 C 57.800000000000004,20.3 57.2,20.4 56.60000000000001,20.5 C 56.60000000000001,20.1 56.60000000000001,19.6 56.900000000000006,19.2 C 57.2,18.7 57.60000000000001,18.099999999999998 57.800000000000004,17.5 C 56.900000000000006,17.9 56.2,18.6 55.7,19.4 L 55.7,19.4 C 55.4,20.0 55.5,21.0 56.0,21.5 C 56.5,22.0 57.2,21.7 57.7,21.4" fill="#000000" stroke="none" stroke-width="3.0" /><path d="M 25.3,43.0 C 26.6,41.3 27.400000000000002,39.3 27.5,37.2 C 27.5,36.2 28.1,35.400000000000006 28.5,34.5 C 28.9,35.0 29.3,35.6 29.9,35.8 C 30.5,36.0 31.2,35.9 31.7,35.599999999999994 C 32.6,35.199999999999996 33.4,34.39999999999999 33.6,33.39999999999999 C 33.800000000000004,32.49999999999999 33.9,31.59999999999999 33.6,30.699999999999992 C 33.5,30.39999999999999 33.1,30.299999999999994 32.9,30.199999999999992 C 32.699999999999996,31.09999999999999 32.5,31.999999999999993 32.5,32.89999999999999 C 31.8,33.39999999999999 30.9,33.79999999999999 30.1,33.19999999999999 C 29.6,32.69999999999999 29.8,31.899999999999988 29.8,31.29999999999999 C 28.6,31.59999999999999 28.0,32.59999999999999 27.400000000000002,33.49999999999999 C 27.200000000000003,32.29999999999999 27.1,31.099999999999994 27.000000000000004,29.999999999999993 C 28.500000000000004,29.199999999999992 30.000000000000004,28.499999999999993 31.500000000000004,27.699999999999992 C 31.900000000000002,27.499999999999993 32.1,27.09999999999999 32.300000000000004,26.699999999999992 C 31.800000000000004,26.699999999999992 31.300000000000004,26.799999999999994 30.900000000000006,26.999999999999993 C 29.500000000000007,27.599999999999994 28.200000000000006,28.39999999999999 26.900000000000006,29.099999999999994 C 26.600000000000005,26.699999999999996 26.200000000000006,24.399999999999995 25.900000000000006,21.999999999999993 C 26.200000000000006,22.099999999999994 26.500000000000007,22.199999999999992 26.800000000000004,22.299999999999994 C 26.900000000000006,21.799999999999994 26.900000000000006,21.299999999999994 26.800000000000004,20.799999999999994 C 26.500000000000004,19.599999999999994 26.000000000000004,18.299999999999994 25.200000000000003,17.299999999999994 C 24.800000000000004,17.499999999999993 24.300000000000004,17.599999999999994 24.1,17.999999999999993 L 24.1,17.999999999999993 C 23.8,18.499999999999993 23.900000000000002,19.099999999999994 23.900000000000002,19.599999999999994 C 24.3,23.499999999999993 24.8,27.299999999999994 25.3,31.199999999999996 C 25.5,32.4 25.6,33.49999999999999 25.7,34.699999999999996 C 25.2,34.699999999999996 24.7,34.699999999999996 24.3,34.3 C 23.7,33.699999999999996 23.8,32.9 23.8,32.099999999999994 C 22.400000000000002,32.699999999999996 21.400000000000002,33.99999999999999 20.0,34.49999999999999 C 19.5,33.599999999999994 19.0,32.699999999999996 18.0,32.199999999999996 C 17.0,31.799999999999997 15.8,31.699999999999996 14.9,32.4 C 14.200000000000001,33.0 13.700000000000001,33.9 13.6,34.9 C 13.5,35.6 13.5,36.4 14.0,37.0 C 14.5,37.6 15.3,37.7 16.0,37.8 C 17.2,37.8 18.2,37.3 19.3,37.099999999999994 C 19.3,37.599999999999994 19.400000000000002,38.099999999999994 19.1,38.49999999999999 C 18.6,39.39999999999999 17.700000000000003,39.89999999999999 16.900000000000002,40.49999999999999 C 14.800000000000002,41.89999999999999 12.500000000000002,42.99999999999999 10.100000000000001,43.99999999999999 C 9.100000000000001,44.39999999999999 8.100000000000001,44.89999999999999 7.000000000000002,45.199999999999996 C 6.400000000000002,43.199999999999996 6.400000000000002,40.99999999999999 6.900000000000002,38.9 C 7.100000000000002,37.9 7.700000000000002,37.1 8.100000000000001,36.199999999999996 C 7.600000000000001,36.699999999999996 7.100000000000001,37.3 6.700000000000001,37.9 C 5.300000000000001,40.3 4.700000000000001,43.199999999999996 5.200000000000001,45.9 C 3.700000000000001,46.5 2.100000000000001,46.9 0.6000000000000014,47.4 C 1.9000000000000015,47.6 3.1000000000000014,47.6 4.400000000000001,47.5 C 4.900000000000001,47.5 5.500000000000002,47.4 6.000000000000002,47.5 C 6.400000000000002,47.7 6.800000000000002,48.1 7.200000000000002,48.4 C 8.200000000000003,49.0 9.300000000000002,49.199999999999996 10.400000000000002,49.3 C 12.500000000000002,49.4 14.500000000000002,48.9 16.400000000000002,48.4 C 19.8,47.6 23.1,45.9 25.3,43.0 M 15.5,35.5 C 15.3,35.4 15.0,35.2 15.1,35.0 L 15.1,35.0 C 15.299999999999999,34.5 15.9,34.5 16.3,34.5 C 17.0,34.5 17.5,35.0 17.900000000000002,35.5 C 17.1,35.6 16.2,35.8 15.5,35.5 M 8.9,47.1 C 9.9,46.7 11.0,46.2 11.9,45.7 C 14.0,44.6 16.2,43.6 18.1,42.0 C 19.1,41.2 20.0,40.2 20.400000000000002,38.9 C 20.700000000000003,38.199999999999996 20.6,37.4 20.6,36.6 L 20.6,36.6 C 21.200000000000003,36.2 21.8,35.7 22.3,35.2 C 22.6,35.7 22.900000000000002,36.400000000000006 23.5,36.7 C 24.2,37.1 25.0,37.1 25.8,37.1 C 25.8,37.7 25.8,38.4 25.6,39.0 C 25.3,40.2 24.6,41.4 23.700000000000003,42.2 C 22.200000000000003,43.7 20.400000000000002,44.7 18.400000000000002,45.5 C 16.6,46.2 14.700000000000003,46.8 12.700000000000003,46.9 C 11.5,46.9 10.2,47.2 8.9,47.1" fill="#000000" stroke="none" stroke-width="3.0" /><path d="M 43.2,19.9 C 43.5,20.4 43.400000000000006,21.0 43.5,21.599999999999998 C 43.6,21.2 43.8,20.9 43.8,20.4 C 43.9,19.5 43.4,18.599999999999998 42.699999999999996,18.099999999999998 C 42.4,17.9 41.9,17.799999999999997 41.599999999999994,18.099999999999998 C 41.39999999999999,18.2 41.39999999999999,18.599999999999998 41.599999999999994,18.7 C 42.1,19.2 42.8,19.3 43.2,19.9" fill="#000000" stroke="none" stroke-width="3.0" /><path d="M 33.6,28.3 C 32.800000000000004,26.900000000000002 33.300000000000004,25.2 33.300000000000004,23.6 C 32.7,24.700000000000003 32.50000000000001,25.900000000000002 32.400000000000006,27.1 C 32.400000000000006,27.900000000000002 32.50000000000001,28.700000000000003 32.900000000000006,29.400000000000002 C 33.400000000000006,30.1 34.300000000000004,30.500000000000004 35.2,30.400000000000002 C 36.1,30.3 36.800000000000004,29.700000000000003 37.2,28.900000000000002 C 38.1,27.400000000000002 38.300000000000004,25.6 39.0,24.0 C 39.2,23.5 39.5,23.1 39.8,22.7 C 39.599999999999994,24.2 39.0,25.599999999999998 39.099999999999994,27.1 C 39.099999999999994,28.1 39.699999999999996,29.1 40.599999999999994,29.700000000000003 C 41.99999999999999,30.700000000000003 43.99999999999999,30.800000000000004 45.49999999999999,29.900000000000002 C 46.99999999999999,29.1 47.79999999999999,27.500000000000004 48.29999999999999,25.900000000000002 C 48.59999999999999,26.700000000000003 48.79999999999999,27.400000000000002 49.29999999999999,28.000000000000004 C 50.59999999999999,29.800000000000004 53.59999999999999,30.100000000000005 55.09999999999999,28.400000000000002 C 55.899999999999984,27.500000000000004 56.09999999999999,26.3 55.899999999999984,25.1 C 55.69999999999998,24.1 55.19999999999998,23.200000000000003 54.79999999999998,22.3 C 54.499999999999986,21.6 54.29999999999998,21.0 54.19999999999998,20.3 C 54.49999999999998,20.3 54.899999999999984,20.3 55.29999999999998,20.3 C 54.79999999999998,19.3 54.09999999999998,18.400000000000002 53.09999999999998,17.900000000000002 C 52.69999999999998,17.700000000000003 52.39999999999998,18.1 52.39999999999998,18.400000000000002 L 52.39999999999998,18.400000000000002 C 52.199999999999974,19.3 52.49999999999998,20.200000000000003 52.799999999999976,21.000000000000004 C 53.39999999999998,22.700000000000003 54.59999999999997,24.100000000000005 54.89999999999998,25.800000000000004 C 54.99999999999998,26.300000000000004 54.89999999999998,27.000000000000004 54.39999999999998,27.300000000000004 C 53.59999999999998,27.700000000000003 52.49999999999998,27.600000000000005 51.59999999999998,27.200000000000003 C 50.59999999999998,26.800000000000004 50.09999999999998,25.800000000000004 49.69999999999998,24.900000000000002 C 49.09999999999998,23.3 49.09999999999998,21.500000000000004 48.899999999999984,19.900000000000002 C 48.79999999999998,19.200000000000003 48.499999999999986,18.500000000000004 48.09999999999999,17.900000000000002 C 47.59999999999999,18.200000000000003 47.09999999999999,18.700000000000003 46.999999999999986,19.3 C 46.79999999999998,19.900000000000002 47.29999999999998,20.5 47.499999999999986,21.0 C 48.09999999999999,22.0 47.999999999999986,23.2 47.999999999999986,24.3 C 47.899999999999984,26.2 46.59999999999999,27.900000000000002 44.899999999999984,28.5 C 43.59999999999999,28.8 42.09999999999999,28.6 41.09999999999999,27.6 C 40.29999999999999,26.6 40.399999999999984,25.3 40.59999999999999,24.1 C 40.899999999999984,22.8 41.59999999999999,21.6 41.59999999999999,20.200000000000003 C 41.19999999999999,20.300000000000004 40.79999999999999,20.300000000000004 40.499999999999986,20.500000000000004 C 39.899999999999984,20.900000000000002 39.59999999999999,21.600000000000005 39.19999999999999,22.200000000000003 C 38.39999999999999,23.700000000000003 37.79999999999999,25.400000000000002 37.29999999999999,27.000000000000004 C 36.99999999999999,27.800000000000004 36.69999999999999,28.600000000000005 35.99999999999999,29.000000000000004 C 35.0,29.5 33.9,29.1 33.6,28.3" fill="#000000" stroke="none" stroke-width="3.0" /><path d="M 68.1,20.3 C 68.39999999999999,20.7 68.5,21.2 68.69999999999999,21.6 C 68.99999999999999,20.700000000000003 69.19999999999999,19.700000000000003 69.6,18.900000000000002 C 69.89999999999999,19.000000000000004 70.3,19.200000000000003 70.69999999999999,19.3 C 70.89999999999999,19.2 71.1,18.900000000000002 70.99999999999999,18.6 C 70.69999999999999,18.0 69.99999999999999,17.8 69.39999999999999,18.1 C 68.89999999999999,18.400000000000002 68.89999999999999,19.0 68.69999999999999,19.5 C 68.39999999999999,19.0 67.99999999999999,18.5 67.49999999999999,18.3 C 67.09999999999998,18.2 66.69999999999999,18.6 66.79999999999998,19.0 C 67.2,19.5 67.8,19.8 68.1,20.3" fill="#000000" stroke="none" stroke-width="3.0" /><path d="M 2.2,22.0 C 2.6,21.7 2.8000000000000003,21.2 3.0,20.7 C 2.4,20.9 1.8,21.0 1.2,21.099999999999998 C 1.2,20.7 1.2,20.2 1.5,19.799999999999997 C 1.8,19.199999999999996 2.2,18.699999999999996 2.4,18.099999999999998 C 1.5,18.499999999999996 0.5999999999999999,19.2 0.19999999999999973,20.2 C -0.10000000000000026,20.9 -2.7755575615628914e-16,21.8 0.5999999999999998,22.3 C 1.1,22.6 1.8,22.4 2.2,22.0" fill="#000000" stroke="none" stroke-width="3.0" /><path d="M 35.0,20.6 C 35.3,21.8 34.3,22.6 34.2,23.700000000000003 C 34.1,24.300000000000004 34.800000000000004,24.900000000000002 35.400000000000006,24.6 C 35.900000000000006,24.400000000000002 35.800000000000004,23.8 35.900000000000006,23.3 C 35.60000000000001,23.400000000000002 35.300000000000004,23.6 35.10000000000001,23.7 C 35.20000000000001,22.8 35.80000000000001,22.2 36.00000000000001,21.4 C 36.20000000000001,20.9 35.900000000000006,20.4 35.60000000000001,20.0 C 35.30000000000001,19.6 35.20000000000001,19.1 35.00000000000001,18.7 C 34.60000000000001,18.099999999999998 33.400000000000006,18.099999999999998 33.20000000000001,18.9 C 33.10000000000001,19.5 33.80000000000001,19.9 34.20000000000001,20.299999999999997 C 33.90000000000001,20.799999999999997 33.60000000000001,21.4 33.10000000000001,21.799999999999997 C 32.400000000000006,22.499999999999996 31.500000000000007,22.999999999999996 30.70000000000001,23.599999999999998 C 32.4,23.4 33.9,22.1 35.0,20.6 M 33.9,18.8 C 34.199999999999996,18.900000000000002 34.5,19.1 34.6,19.400000000000002 C 34.3,19.3 34.1,19.1 33.9,18.8" fill="#000000" stroke="none" stroke-width="3.0" /><path d="M 29.6,23.0 C 29.900000000000002,21.8 29.5,20.4 28.5,19.5 C 28.2,19.2 27.7,19.3 27.3,19.4 C 27.7,20.2 28.5,20.7 28.900000000000002,21.599999999999998 C 29.3,22.0 29.4,22.5 29.6,23.0" fill="#000000" stroke="none" stroke-width="3.0" /><path d="M 17.8,21.8 C 18.400000000000002,21.7 19.0,21.5 19.7,21.400000000000002 C 19.8,20.8 19.599999999999998,20.3 19.2,19.900000000000002 C 19.2,20.3 19.2,20.6 19.2,21.000000000000004 C 19.0,21.000000000000004 18.8,21.000000000000004 18.599999999999998,21.100000000000005 C 18.499999999999996,20.800000000000004 18.499999999999996,20.500000000000004 18.4,20.200000000000006 C 18.299999999999997,20.200000000000006 18.2,20.200000000000006 18.0,20.200000000000006 C 18.0,20.500000000000007 18.0,20.900000000000006 18.0,21.200000000000006 C 17.8,21.300000000000008 17.7,21.300000000000008 17.5,21.400000000000006 C 17.4,21.000000000000007 17.2,20.600000000000005 17.1,20.300000000000004 C 17.1,20.6 17.0,21.0 17.0,21.4 C 17.1,21.7 17.4,21.9 17.8,21.8" fill="#000000" stroke="none" stroke-width="3.0" /><path d="M 67.2,24.3 C 67.0,24.0 66.9,23.7 66.7,23.400000000000002 C 68.4,22.500000000000004 70.2,22.000000000000004 72.0,21.3 C 72.4,21.2 72.6,20.900000000000002 72.9,20.6 C 72.4,20.6 71.80000000000001,20.6 71.4,20.8 L 71.4,20.8 C 69.9,21.3 68.4,21.900000000000002 66.9,22.400000000000002 C 66.60000000000001,22.500000000000004 66.30000000000001,22.700000000000003 66.0,22.900000000000002 C 65.7,23.1 65.7,23.700000000000003 66.0,23.900000000000002 C 66.3,24.2 66.8,24.2 67.2,24.3" fill="#000000" stroke="none" stroke-width="3.0" /><path d="M 43.8,23.4 C 43.599999999999994,22.9 43.699999999999996,22.4 43.599999999999994,21.9 C 43.4,22.0 43.0,22.0 43.0,22.4 C 42.8,23.0 42.8,23.599999999999998 42.7,24.2 C 42.400000000000006,24.099999999999998 42.0,24.099999999999998 41.900000000000006,23.7 C 41.800000000000004,23.2 42.00000000000001,22.599999999999998 42.00000000000001,22.099999999999998 C 41.60000000000001,22.4 41.20000000000001,22.7 41.20000000000001,23.299999999999997 C 41.00000000000001,24.099999999999998 41.50000000000001,25.099999999999998 42.40000000000001,25.199999999999996 C 42.90000000000001,25.299999999999997 43.20000000000001,24.899999999999995 43.600000000000016,24.599999999999994 C 44.000000000000014,24.899999999999995 44.600000000000016,25.299999999999994 45.100000000000016,25.099999999999994 C 45.80000000000002,24.999999999999993 46.000000000000014,24.099999999999994 45.70000000000002,23.499999999999993 C 45.40000000000002,22.89999999999999 45.20000000000002,22.299999999999994 45.20000000000002,21.699999999999992 C 45.000000000000014,21.799999999999994 44.80000000000002,21.89999999999999 44.600000000000016,22.09999999999999 C 44.600000000000016,22.79999999999999 44.90000000000001,23.39999999999999 44.80000000000002,24.09999999999999 C 44.4,23.9 43.9,23.8 43.8,23.4" fill="#000000" stroke="none" stroke-width="3.0" /><path d="M 17.8,22.9 C 17.900000000000002,23.5 18.3,23.9 18.7,24.2 C 19.4,24.8 19.599999999999998,25.7 19.9,26.5 C 20.2,25.3 19.799999999999997,24.0 18.9,23.1 C 18.6,22.9 18.2,22.9 17.8,22.9" fill="#000000" stroke="none" stroke-width="3.0" /><path d="M 67.7,27.1 C 67.60000000000001,27.8 67.9,28.8 68.7,28.900000000000002 C 69.2,29.000000000000004 69.7,28.700000000000003 70.10000000000001,28.400000000000002 C 70.60000000000001,28.700000000000003 71.2,29.1 71.80000000000001,28.8 C 72.4,28.6 72.4,27.7 72.20000000000002,27.2 C 71.90000000000002,26.7 71.70000000000002,26.099999999999998 71.70000000000002,25.5 C 71.50000000000001,25.7 71.20000000000002,25.8 71.10000000000002,26.0 C 71.20000000000002,26.6 71.30000000000003,27.2 71.40000000000002,27.8 C 71.10000000000002,27.7 70.70000000000002,27.7 70.50000000000001,27.400000000000002 C 70.20000000000002,26.900000000000002 70.30000000000001,26.3 70.30000000000001,25.700000000000003 C 70.10000000000001,25.800000000000004 69.80000000000001,25.900000000000002 69.70000000000002,26.000000000000004 C 69.40000000000002,26.600000000000005 69.50000000000001,27.200000000000003 69.40000000000002,27.900000000000002 C 69.10000000000002,27.8 68.70000000000002,27.900000000000002 68.50000000000001,27.500000000000004 C 68.30000000000001,26.900000000000002 68.60000000000001,26.400000000000002 68.70000000000002,25.800000000000004 C 68.2,26.2 67.8,26.6 67.7,27.1" fill="#000000" stroke="none" stroke-width="3.0" /><path d="M 93.0,26.1 C 92.6,26.1 92.3,26.5 92.4,26.900000000000002 C 92.7,27.3 93.2,27.400000000000002 93.60000000000001,27.700000000000003 C 94.50000000000001,28.400000000000002 94.50000000000001,29.6 94.7,30.6 C 95.10000000000001,29.5 94.9,28.200000000000003 94.3,27.1 C 94.2,26.7 93.7,26.1 93.0,26.1" fill="#000000" stroke="none" stroke-width="3.0" /><path d="M 57.2,30.9 C 56.5,31.5 55.7,31.7 54.900000000000006,32.1 C 56.10000000000001,32.1 57.300000000000004,31.6 58.10000000000001,30.700000000000003 C 58.50000000000001,30.200000000000003 58.60000000000001,29.300000000000004 58.10000000000001,28.800000000000004 C 57.70000000000001,28.700000000000003 57.20000000000001,28.800000000000004 56.900000000000006,29.100000000000005 L 56.900000000000006,29.100000000000005 C 56.7,29.400000000000006 56.50000000000001,29.700000000000006 56.400000000000006,30.100000000000005 C 56.7,30.100000000000005 57.10000000000001,30.000000000000004 57.50000000000001,29.900000000000006 C 57.4,30.2 57.5,30.7 57.2,30.9" fill="#000000" stroke="none" stroke-width="3.0" /><path d="M 67.9,33.3 C 68.0,33.5 68.10000000000001,33.599999999999994 68.2,33.8 C 70.0,32.9 71.8,31.9 73.7,31.099999999999998 C 74.2,30.9 74.8,30.599999999999998 75.0,29.999999999999996 C 74.8,29.799999999999997 74.5,29.899999999999995 74.3,29.999999999999996 L 74.3,29.999999999999996 C 73.2,30.399999999999995 72.3,30.899999999999995 71.2,31.399999999999995 C 70.0,31.9 68.9,32.5 67.9,33.3" fill="#000000" stroke="none" stroke-width="3.0" /><path d="M 63.4,39.8 C 63.1,39.8 62.8,39.699999999999996 62.5,39.699999999999996 C 57.8,39.699999999999996 53.1,39.8 48.3,39.8 C 50.0,38.5 51.9,37.4 54.0,37.0 C 54.2,37.5 54.4,37.9 54.6,38.4 C 55.2,38.1 55.300000000000004,37.4 55.300000000000004,36.8 C 56.2,36.699999999999996 57.2,36.8 57.800000000000004,36.0 C 58.1,35.6 58.300000000000004,35.2 58.400000000000006,34.7 C 58.2,34.0 57.50000000000001,33.6 56.900000000000006,33.300000000000004 C 56.00000000000001,32.800000000000004 54.900000000000006,32.300000000000004 53.800000000000004,32.300000000000004 C 52.800000000000004,32.300000000000004 52.00000000000001,33.2 51.7,34.00000000000001 C 51.5,34.800000000000004 52.2,35.300000000000004 52.6,35.70000000000001 C 50.9,36.20000000000001 49.300000000000004,36.90000000000001 47.7,37.70000000000001 C 46.7,38.20000000000001 45.6,38.80000000000001 45.0,39.90000000000001 C 44.7,40.40000000000001 44.7,40.90000000000001 44.6,41.40000000000001 C 45.9,41.600000000000016 47.300000000000004,41.500000000000014 48.7,41.500000000000014 C 50.400000000000006,41.500000000000014 52.1,41.500000000000014 53.7,41.500000000000014 C 51.6,42.20000000000002 49.6,42.90000000000001 47.800000000000004,44.100000000000016 C 47.2,44.500000000000014 47.1,45.20000000000002 46.900000000000006,45.80000000000002 C 46.300000000000004,45.50000000000002 45.60000000000001,45.100000000000016 45.2,44.600000000000016 C 44.5,43.80000000000002 44.400000000000006,42.70000000000002 44.1,41.70000000000002 C 43.7,39.70000000000002 43.6,37.70000000000002 42.9,35.80000000000002 C 42.3,33.80000000000002 41.0,32.00000000000002 39.6,30.40000000000002 C 39.4,30.70000000000002 39.1,30.90000000000002 39.1,31.30000000000002 L 39.1,31.30000000000002 C 39.0,32.20000000000002 39.300000000000004,33.100000000000016 39.6,33.90000000000002 C 40.7,36.00000000000002 41.800000000000004,38.20000000000002 42.4,40.50000000000002 C 40.0,42.40000000000002 37.699999999999996,44.50000000000002 34.9,45.80000000000002 C 34.1,46.100000000000016 33.3,46.40000000000002 32.5,46.40000000000002 C 32.1,46.40000000000002 31.7,46.20000000000002 31.3,46.00000000000002 C 33.3,44.50000000000002 35.5,43.00000000000002 37.2,41.200000000000024 C 37.900000000000006,40.50000000000002 38.1,39.40000000000003 38.0,38.40000000000003 C 37.8,37.10000000000003 37.1,36.00000000000003 36.6,34.90000000000003 C 36.800000000000004,34.90000000000003 37.1,34.800000000000026 37.300000000000004,34.800000000000026 C 36.7,33.60000000000002 35.900000000000006,32.40000000000003 34.800000000000004,31.700000000000024 C 34.6,32.00000000000002 34.300000000000004,32.300000000000026 34.300000000000004,32.800000000000026 C 34.2,34.10000000000002 34.7,35.300000000000026 35.2,36.50000000000003 C 35.5,37.300000000000026 35.900000000000006,38.00000000000003 36.2,38.90000000000003 C 36.400000000000006,39.50000000000003 35.900000000000006,40.00000000000003 35.5,40.40000000000003 C 34.1,41.800000000000026 32.5,42.90000000000003 30.9,43.90000000000003 C 31.099999999999998,42.700000000000024 31.599999999999998,41.60000000000003 32.1,40.50000000000003 C 31.400000000000002,41.00000000000003 30.700000000000003,41.60000000000003 30.3,42.50000000000003 C 29.900000000000002,43.20000000000003 29.900000000000002,43.90000000000003 29.6,44.70000000000003 C 29.400000000000002,45.00000000000003 29.0,45.20000000000003 28.6,45.400000000000034 C 25.900000000000002,46.80000000000003 23.1,48.10000000000004 20.3,49.30000000000003 C 19.5,49.60000000000003 18.6,50.000000000000036 17.7,50.400000000000034 C 19.3,50.400000000000034 20.9,50.20000000000003 22.5,49.900000000000034 C 25.1,49.400000000000034 27.5,48.30000000000003 29.8,47.10000000000004 C 30.1,47.70000000000004 30.3,48.500000000000036 30.900000000000002,48.900000000000034 C 31.8,49.400000000000034 32.900000000000006,49.30000000000003 33.800000000000004,48.900000000000034 C 36.300000000000004,47.80000000000003 38.7,46.400000000000034 40.7,44.500000000000036 C 41.400000000000006,43.80000000000003 42.1,43.000000000000036 42.7,42.10000000000004 C 42.900000000000006,43.60000000000004 43.2,45.20000000000004 44.1,46.500000000000036 C 45.300000000000004,48.30000000000003 47.300000000000004,49.30000000000003 49.300000000000004,49.70000000000004 C 50.00000000000001,49.80000000000004 50.800000000000004,50.000000000000036 51.6,49.80000000000004 C 52.2,49.40000000000004 52.2,48.60000000000004 52.0,47.90000000000004 C 51.9,47.40000000000004 51.4,47.40000000000004 51.0,47.30000000000004 C 49.8,47.10000000000004 48.7,46.80000000000004 47.6,46.40000000000004 C 48.0,45.90000000000004 48.4,45.40000000000004 49.0,45.20000000000004 C 50.5,44.40000000000004 52.2,44.000000000000036 53.9,43.70000000000004 C 56.1,43.30000000000004 58.4,42.80000000000004 60.6,42.30000000000004 C 61.9,41.7 63.2,41.1 63.4,39.8 M 53.8,33.6 C 54.599999999999994,33.6 55.4,34.0 56.0,34.5 C 55.5,34.9 54.8,35.4 54.1,35.2 C 53.6,35.0 53.300000000000004,34.7 53.0,34.300000000000004 C 53.0,34.0 53.4,33.6 53.8,33.6" fill="#000000" stroke="none" stroke-width="3.0" /><path d="M 4.2,34.8 C 4.8,34.4 5.1000000000000005,33.599999999999994 5.9,33.599999999999994 C 6.300000000000001,33.49999999999999 6.800000000000001,33.49999999999999 6.9,33.099999999999994 C 7.1000000000000005,32.699999999999996 6.800000000000001,32.3 6.6000000000000005,31.999999999999993 C 6.1000000000000005,31.39999999999999 5.4,30.699999999999992 4.6000000000000005,30.799999999999994 C 4.300000000000001,30.799999999999994 4.000000000000001,31.099999999999994 4.000000000000001,31.399999999999995 L 4.000000000000001,31.399999999999995 C 3.900000000000001,32.099999999999994 4.200000000000001,32.699999999999996 4.400000000000001,33.3 C 3.6000000000000014,34.099999999999994 2.800000000000001,34.8 1.700000000000001,35.199999999999996 C 1.0,35.3 0.5,35.5 0.1,36.0 C 1.6,36.2 3.0,35.6 4.2,34.8 M 6.1,31.8 C 6.3,32.1 6.3,32.5 6.3999999999999995,32.9 C 6.1,32.9 5.8,33.0 5.6,33.0 C 5.7,32.6 5.8,32.1 6.1,31.8 M 5.2,31.6 C 5.1000000000000005,31.900000000000002 4.9,32.300000000000004 4.8,32.7 C 4.6,32.300000000000004 4.5,31.900000000000002 4.3999999999999995,31.500000000000004 C 4.7,31.5 5.0,31.5 5.2,31.6" fill="#000000" stroke="none" stroke-width="3.0" /><path d="M 44.3,32.6 C 44.099999999999994,33.4 44.599999999999994,34.300000000000004 45.4,34.5 C 45.9,34.6 46.3,34.2 46.699999999999996,33.8 C 46.9,33.9 47.099999999999994,34.099999999999994 47.3,34.3 C 48.0,34.699999999999996 49.099999999999994,34.3 49.0,33.4 C 48.9,32.6 48.3,31.9 48.3,31.0 C 48.099999999999994,31.1 47.8,31.2 47.699999999999996,31.4 L 47.699999999999996,31.4 C 47.699999999999996,32.1 48.199999999999996,32.699999999999996 47.9,33.4 C 47.6,33.199999999999996 47.3,33.0 47.1,32.699999999999996 C 46.9,32.199999999999996 47.0,31.699999999999996 46.9,31.199999999999996 C 46.699999999999996,31.399999999999995 46.3,31.399999999999995 46.199999999999996,31.799999999999997 C 46.099999999999994,32.4 45.99999999999999,33.099999999999994 45.8,33.699999999999996 C 45.5,33.5 45.0,33.4 45.0,33.0 C 44.9,32.5 45.1,32.0 45.2,31.5 C 44.8,31.8 44.4,32.1 44.3,32.6" fill="#000000" stroke="none" stroke-width="3.0" /><path d="M 6.6,34.6 C 5.1,35.4 3.5999999999999996,36.2 2.0999999999999996,37.1 C 1.6999999999999997,37.300000000000004 1.3999999999999997,37.7 1.1999999999999997,38.2 C 1.4999999999999998,38.2 1.8999999999999997,38.300000000000004 2.1999999999999997,38.1 C 3.6,37.3 5.0,36.7 6.5,36.0 C 7.1,35.7 7.8,35.6 8.3,35.1 C 8.700000000000001,34.800000000000004 8.4,34.1 8.0,34.1 C 7.5,34.2 7.0,34.5 6.6,34.6" fill="#000000" stroke="none" stroke-width="3.0" /><path d="M 57.8,38.4 C 58.699999999999996,38.4 59.699999999999996,38.4 60.5,38.0 C 61.0,37.8 61.3,37.2 61.7,36.8 C 61.900000000000006,36.8 62.1,36.8 62.400000000000006,36.699999999999996 C 62.00000000000001,36.099999999999994 61.900000000000006,35.4 61.800000000000004,34.699999999999996 C 61.400000000000006,34.8 60.800000000000004,34.9 60.7,35.4 C 60.6,36.0 61.1,36.6 60.7,37.199999999999996 C 60.0,38.0 58.8,38.1 57.8,38.4" fill="#000000" stroke="none" stroke-width="3.0" /><path d="M 81.0,35.8 C 80.7,35.8 80.2,35.8 80.1,36.099999999999994 C 79.89999999999999,36.8 80.19999999999999,37.599999999999994 80.39999999999999,38.3 C 79.6,39.099999999999994 78.8,39.8 77.69999999999999,40.199999999999996 C 77.1,40.4 76.49999999999999,40.599999999999994 76.19999999999999,41.099999999999994 C 78.1,41.3 79.99999999999999,40.39999999999999 81.19999999999999,38.99999999999999 C 81.6,38.49999999999999 82.39999999999999,38.699999999999996 82.79999999999998,38.39999999999999 C 83.09999999999998,37.99999999999999 82.99999999999999,37.39999999999999 82.69999999999999,37.099999999999994 C 82.3,36.5 81.8,35.9 81.0,35.8 M 80.9,37.7 C 80.7,37.300000000000004 80.60000000000001,36.800000000000004 80.60000000000001,36.400000000000006 C 80.80000000000001,36.50000000000001 81.10000000000001,36.50000000000001 81.4,36.60000000000001 C 81.3,37.0 81.1,37.4 80.9,37.7 M 81.7,38.0 C 81.8,37.6 81.9,37.3 82.10000000000001,36.9 C 82.2,36.9 82.30000000000001,36.9 82.30000000000001,36.9 C 82.50000000000001,37.199999999999996 82.50000000000001,37.6 82.60000000000001,37.9 C 82.3,38.0 82.0,38.0 81.7,38.0" fill="#000000" stroke="none" stroke-width="3.0" /><path d="M 30.3,38.9 C 30.6,39.3 30.7,39.8 30.900000000000002,40.199999999999996 C 31.1,39.4 31.3,38.699999999999996 31.6,37.9 C 31.700000000000003,37.699999999999996 31.8,37.4 32.0,37.5 C 32.3,37.6 32.5,37.8 32.8,37.9 C 32.9,37.699999999999996 33.3,37.4 33.099999999999994,37.1 C 32.8,36.5 31.899999999999995,36.300000000000004 31.399999999999995,36.800000000000004 L 31.399999999999995,36.800000000000004 C 31.099999999999994,37.1 30.999999999999996,37.6 30.899999999999995,38.00000000000001 C 30.499999999999996,37.60000000000001 30.099999999999994,37.10000000000001 29.499999999999996,37.00000000000001 C 29.099999999999998,36.900000000000006 28.699999999999996,37.60000000000001 29.099999999999998,37.900000000000006 C 29.5,38.2 30.0,38.5 30.3,38.9" fill="#000000" stroke="none" stroke-width="3.0" /><path d="M 2.4,43.2 C 2.8,43.0 3.0,42.5 3.2,42.0 C 2.6,42.1 2.0,42.2 1.4000000000000001,42.2 C 1.4000000000000001,41.800000000000004 1.4000000000000001,41.300000000000004 1.7000000000000002,40.900000000000006 C 2.0,40.400000000000006 2.4000000000000004,39.800000000000004 2.6,39.2 C 1.7000000000000002,39.6 1.0,40.300000000000004 0.5,41.1 L 0.5,41.1 C 0.09999999999999998,41.800000000000004 0.2,42.7 0.7,43.4 C 1.2,43.8 1.9,43.6 2.4,43.2" fill="#000000" stroke="none" stroke-width="3.0" /><path d="M 42.9,45.0 C 42.5,44.7 42.0,44.9 41.6,45.0 C 41.6,45.2 41.6,45.4 41.7,45.5 C 41.300000000000004,45.7 40.800000000000004,46.0 40.7,46.5 C 40.6,47.0 40.900000000000006,47.4 41.1,47.7 C 41.4,48.2 41.5,48.900000000000006 41.7,49.5 C 41.900000000000006,49.2 42.2,48.9 42.2,48.5 C 42.1,47.9 41.6,47.4 41.5,46.7 C 42.0,46.300000000000004 42.7,46.5 43.2,46.2 C 43.4,45.8 43.3,45.2 42.9,45.0" fill="#000000" stroke="none" stroke-width="3.0" /><path d="M 61.3,45.7 C 61.099999999999994,46.2 61.0,46.900000000000006 61.4,47.300000000000004 C 61.699999999999996,47.7 62.699999999999996,47.6 62.6,47.00000000000001 C 62.4,46.60000000000001 62.1,46.300000000000004 61.9,46.00000000000001 C 62.0,45.50000000000001 62.3,45.10000000000001 62.4,44.70000000000001 C 62.0,44.9 61.5,45.1 61.3,45.7" fill="#000000" stroke="none" stroke-width="3.0" /><path d="M 55.2,47.3 C 55.1,47.8 55.6,48.099999999999994 55.900000000000006,48.3 C 56.7,48.5 57.60000000000001,48.5 58.300000000000004,48.0 C 58.900000000000006,47.5 59.400000000000006,47.0 60.00000000000001,46.6 C 59.300000000000004,46.7 58.60000000000001,47.1 58.00000000000001,47.4 C 57.50000000000001,47.699999999999996 56.900000000000006,47.6 56.400000000000006,47.6 C 56.400000000000006,47.5 56.400000000000006,47.300000000000004 56.300000000000004,47.2 C 57.1,46.6 58.2,46.400000000000006 58.6,45.400000000000006 C 58.0,45.0 57.3,44.7 56.5,45.0 C 56.0,45.1 55.8,45.6 55.5,46.0 C 55.9,46.0 56.2,46.0 56.6,46.1 C 56.1,46.4 55.5,46.7 55.2,47.3" fill="#000000" stroke="none" stroke-width="3.0" /><path d="M 76.8,47.8 C 77.1,48.3 77.1,48.9 77.2,49.5 C 77.60000000000001,48.7 77.60000000000001,47.7 77.10000000000001,46.9 C 76.80000000000001,46.3 76.2,45.8 75.50000000000001,45.9 C 75.10000000000001,45.9 74.90000000000002,46.4 75.20000000000002,46.699999999999996 C 75.7,47.2 76.4,47.3 76.8,47.8" fill="#000000" stroke="none" stroke-width="3.0" /><path d="M 88.8,47.2 C 89.2,47.1 89.5,46.7 89.8,46.300000000000004 C 88.8,46.2 87.8,46.6 86.89999999999999,47.00000000000001 L 86.89999999999999,47.00000000000001 C 85.39999999999999,47.60000000000001 83.8,48.20000000000001 82.39999999999999,49.00000000000001 C 82.49999999999999,49.10000000000001 82.49999999999999,49.300000000000004 82.6,49.400000000000006 C 83.1,49.300000000000004 83.69999999999999,49.10000000000001 84.1,48.900000000000006 C 85.6,48.4 87.2,47.8 88.8,47.2" fill="#000000" stroke="none" stroke-width="3.0" /><path d="M 83.7,78.5 L 75.8,78.5 L 75.8,77.7 C 76.2,77.4 76.6,77.0 76.6,76.7 C 76.6,76.3 75.6,75.4 75.39999999999999,75.4 C 75.1,75.4 74.19999999999999,76.30000000000001 74.19999999999999,76.7 C 74.19999999999999,77.0 74.6,77.3 74.99999999999999,77.7 L 74.99999999999999,77.7 L 74.99999999999999,78.5 L 12.5,78.5 C 14.7,80.7 18.0,80.7 24.6,80.8 C 30.5,80.89999999999999 30.5,80.89999999999999 74.9,80.8 L 74.9,81.6 C 74.5,81.89999999999999 74.10000000000001,82.3 74.10000000000001,82.6 C 74.10000000000001,83.0 75.00000000000001,83.89999999999999 75.30000000000001,83.89999999999999 C 75.50000000000001,83.89999999999999 76.10000000000001,83.39999999999999 76.4,82.99999999999999 L 79.10000000000001,82.99999999999999 C 79.30000000000001,83.29999999999998 79.7,83.49999999999999 80.2,83.49999999999999 C 80.7,83.49999999999999 81.10000000000001,83.29999999999998 81.3,82.99999999999999 L 84.6,82.99999999999999 C 85.0,83.49999999999999 85.6,83.49999999999999 85.89999999999999,83.49999999999999 C 87.19999999999999,83.49999999999999 87.39999999999999,82.79999999999998 87.39999999999999,80.59999999999998 C 87.5,78.7 86.2,78.5 83.7,78.5 M 84.3,82.2 L 81.39999999999999,82.2 C 81.19999999999999,81.9 80.8,81.7 80.3,81.7 C 79.8,81.7 79.39999999999999,81.9 79.2,82.2 L 76.5,82.2 C 76.3,82.0 76.0,81.7 75.8,81.5 L 75.8,80.7 L 84.2,80.7 L 84.3,80.7 C 84.2,81.3 84.2,81.8 84.3,82.2" fill="#000000" stroke="none" stroke-width="3.0" /></g></svg>