<?xml version="1.0" encoding="utf-8" ?>
<svg baseProfile="full" height="100px" version="1.1" width="150px" xmlns="http://www.w3.org/2000/svg" xmlns:ev="http://www.w3.org/2001/xml-events" xmlns:xlink="http://www.w3.org/1999/xlink"><defs><clipPath id="mask0"><rect height="100" width="150" x="0" y="0" /></clipPath></defs><g clip-path="url(#mask0)"><rect fill="#ff0032" height="100" stroke="none" width="50.0" x="0.0" y="0" /><rect fill="#ff1ea8" height="100" stroke="none" width="50.0" x="50.0" y="0" /><rect fill="#b320b9" height="100" stroke="none" width="50.0" x="100.0" y="0" /></g><g transform="translate(41.17381860385516, 16.17381860385516) scale(0.6765236279228968) rotate(0, 50.0, 50.0)"><path d="M 84.6,64.2 C 84.39999999999999,61.900000000000006 84.0,59.7 83.5,57.5 C 82.8,54.8 81.7,52.3 80.0,50.2 C 79.4,49.400000000000006 78.8,48.6 78.3,47.7 C 77.3,46.0 77.0,44.1 76.8,42.1 C 76.8,41.7 76.7,41.2 76.7,40.7 C 76.60000000000001,40.900000000000006 76.5,40.900000000000006 76.4,41.0 C 76.2,41.4 75.9,41.8 75.7,42.2 C 74.5,44.6 73.4,47.0 72.2,49.400000000000006 C 72.10000000000001,49.60000000000001 72.10000000000001,49.800000000000004 72.10000000000001,50.00000000000001 C 72.10000000000001,50.400000000000006 72.10000000000001,50.900000000000006 72.2,51.300000000000004 C 72.4,53.00000000000001 72.9,54.6 73.3,56.2 C 74.3,59.800000000000004 75.3,63.300000000000004 76.3,66.9 C 77.2,70.4 78.0,74.0 78.1,77.7 C 78.19999999999999,79.60000000000001 78.1,81.60000000000001 77.5,83.4 C 76.7,86.30000000000001 74.9,88.2 72.0,89.10000000000001 C 70.2,89.7 68.3,89.80000000000001 66.4,89.50000000000001 C 63.800000000000004,89.20000000000002 61.900000000000006,87.90000000000002 60.60000000000001,85.70000000000002 C 59.70000000000001,84.00000000000001 59.20000000000001,82.20000000000002 58.80000000000001,80.30000000000001 C 58.40000000000001,78.30000000000001 58.10000000000001,76.30000000000001 57.90000000000001,74.20000000000002 C 57.70000000000001,71.90000000000002 57.500000000000014,69.50000000000001 57.30000000000001,67.20000000000002 C 57.20000000000001,65.30000000000001 57.10000000000001,63.500000000000014 57.000000000000014,61.600000000000016 C 56.90000000000001,59.40000000000001 56.70000000000002,57.100000000000016 56.600000000000016,54.90000000000001 C 56.500000000000014,53.20000000000001 56.40000000000001,51.500000000000014 56.30000000000002,49.80000000000001 C 56.20000000000002,47.80000000000001 56.00000000000002,45.80000000000001 55.80000000000002,43.80000000000001 C 55.70000000000002,42.500000000000014 55.600000000000016,41.30000000000001 55.50000000000002,39.90000000000001 C 55.40000000000002,40.000000000000014 55.200000000000024,40.100000000000016 55.10000000000002,40.20000000000001 C 54.0,41.6 53.0,42.8 52.0,44.1 C 51.9,44.2 51.9,44.4 51.9,44.5 C 51.9,46.6 51.9,48.7 51.9,50.8 C 52.0,54.699999999999996 52.1,58.699999999999996 52.199999999999996,62.599999999999994 C 52.3,64.8 52.4,67.0 52.49999999999999,69.19999999999999 C 52.599999999999994,72.69999999999999 52.79999999999999,76.29999999999998 52.49999999999999,79.79999999999998 C 52.39999999999999,81.19999999999999 52.199999999999996,82.69999999999999 51.699999999999996,83.99999999999999 C 50.99999999999999,86.19999999999999 49.49999999999999,87.69999999999999 47.3,88.29999999999998 C 46.0,88.69999999999999 44.599999999999994,88.79999999999998 43.3,88.89999999999998 C 41.8,88.89999999999998 40.4,88.89999999999998 38.9,88.59999999999998 C 36.8,88.09999999999998 35.0,86.99999999999999 33.8,85.09999999999998 C 32.9,83.69999999999997 32.5,81.99999999999999 32.199999999999996,80.39999999999998 C 31.899999999999995,78.29999999999998 31.999999999999996,76.09999999999998 32.199999999999996,73.99999999999997 C 32.4,71.19999999999997 32.9,68.49999999999997 33.4,65.69999999999997 C 34.0,62.09999999999997 34.699999999999996,58.59999999999997 35.3,54.99999999999997 C 35.599999999999994,53.199999999999974 35.699999999999996,51.29999999999997 35.5,49.49999999999997 C 35.4,48.59999999999997 35.2,47.699999999999974 34.8,46.89999999999997 C 33.9,45.29999999999997 32.199999999999996,44.79999999999997 30.599999999999998,45.69999999999997 C 30.099999999999998,45.999999999999964 29.599999999999998,46.29999999999997 29.2,46.69999999999997 C 27.9,47.79999999999997 26.9,49.19999999999997 26.0,50.599999999999966 C 24.4,53.19999999999997 22.8,55.79999999999997 21.2,58.499999999999964 C 19.7,60.999999999999964 18.3,63.499999999999964 16.5,65.79999999999997 C 15.5,67.09999999999997 14.5,68.29999999999997 13.2,69.29999999999997 C 11.6,70.49999999999997 10.0,70.49999999999997 8.299999999999999,69.39999999999996 C 7.299999999999999,68.69999999999996 6.599999999999999,67.69999999999996 6.299999999999999,66.49999999999996 C 5.699999999999999,64.69999999999996 5.699999999999999,62.799999999999955 5.899999999999999,60.899999999999956 C 5.999999999999998,59.09999999999996 6.299999999999999,57.399999999999956 6.399999999999999,55.59999999999996 C 6.399999999999999,55.09999999999996 6.399999999999999,54.59999999999996 6.399999999999999,54.09999999999996 C 6.399999999999999,53.899999999999956 6.299999999999999,53.69999999999996 6.099999999999999,53.69999999999996 C 5.899999999999999,53.69999999999996 5.699999999999998,53.79999999999996 5.599999999999999,53.89999999999996 C 5.399999999999999,54.099999999999966 5.199999999999998,54.29999999999996 5.099999999999999,54.599999999999966 C 4.699999999999998,55.39999999999996 4.399999999999999,56.19999999999997 4.099999999999999,56.999999999999964 C 2.9999999999999987,60.499999999999964 2.4999999999999987,63.999999999999964 2.699999999999999,67.69999999999996 C 2.799999999999999,69.39999999999996 3.0999999999999988,71.19999999999996 3.799999999999999,72.79999999999995 C 4.799999999999999,75.19999999999996 6.399999999999999,77.09999999999995 8.899999999999999,77.99999999999996 C 10.899999999999999,78.79999999999995 12.899999999999999,78.59999999999995 14.599999999999998,77.29999999999995 C 15.599999999999998,76.49999999999996 16.499999999999996,75.59999999999995 17.2,74.49999999999996 C 18.599999999999998,72.49999999999996 19.7,70.39999999999996 20.7,68.19999999999996 C 21.8,65.79999999999995 22.9,63.39999999999996 24.0,60.99999999999996 C 24.7,59.49999999999996 25.5,57.99999999999996 26.4,56.69999999999996 C 26.9,55.99999999999996 27.599999999999998,55.29999999999996 28.4,54.89999999999996 C 29.9,54.19999999999996 31.2,54.79999999999996 31.5,56.39999999999996 C 31.7,57.499999999999964 31.6,58.599999999999966 31.5,59.599999999999966 C 31.2,61.599999999999966 30.8,63.599999999999966 30.4,65.49999999999997 C 29.7,68.89999999999998 28.9,72.19999999999997 28.4,75.69999999999997 C 27.9,78.69999999999997 27.599999999999998,81.79999999999997 27.799999999999997,84.89999999999998 C 27.9,86.69999999999997 28.199999999999996,88.49999999999997 28.799999999999997,90.29999999999998 C 29.699999999999996,93.09999999999998 31.299999999999997,95.29999999999998 33.8,96.89999999999998 C 35.3,97.89999999999998 37.0,98.49999999999997 38.8,98.89999999999998 C 40.9,99.39999999999998 42.9,99.59999999999998 45.0,99.39999999999998 C 47.9,98.99999999999997 50.3,97.69999999999997 52.2,95.49999999999997 C 53.6,93.79999999999997 54.6,91.89999999999998 55.300000000000004,89.89999999999998 C 55.300000000000004,89.79999999999998 55.400000000000006,89.69999999999997 55.400000000000006,89.59999999999998 C 55.50000000000001,89.69999999999997 55.50000000000001,89.79999999999998 55.60000000000001,89.89999999999998 C 56.00000000000001,90.59999999999998 56.400000000000006,91.29999999999998 56.80000000000001,91.89999999999998 C 58.000000000000014,93.89999999999998 59.30000000000001,95.69999999999997 61.000000000000014,97.29999999999998 C 63.000000000000014,99.19999999999999 65.30000000000001,100.19999999999999 68.00000000000001,100.09999999999998 C 69.50000000000001,100.09999999999998 71.00000000000001,99.89999999999998 72.50000000000001,99.49999999999999 C 74.50000000000001,98.99999999999999 76.30000000000001,98.09999999999998 77.80000000000001,96.59999999999998 C 79.30000000000001,94.99999999999999 80.30000000000001,93.09999999999998 80.9,91.09999999999998 C 81.7,88.49999999999999 82.0,85.69999999999997 82.0,82.99999999999999 C 82.1,78.39999999999999 81.5,73.89999999999999 80.8,69.39999999999999 C 80.0,65.1 79.2,60.79999999999999 78.3,56.39999999999999 C 78.2,55.69999999999999 78.0,54.99999999999999 77.89999999999999,54.29999999999999 C 77.89999999999999,54.29999999999999 77.99999999999999,54.29999999999999 77.99999999999999,54.19999999999999 C 77.99999999999999,54.29999999999999 77.99999999999999,54.29999999999999 78.09999999999998,54.39999999999999 C 78.69999999999997,55.099999999999994 79.29999999999998,55.69999999999999 79.89999999999998,56.39999999999999 C 80.89999999999998,57.599999999999994 81.69999999999997,58.99999999999999 81.99999999999997,60.599999999999994 C 82.19999999999997,61.39999999999999 82.29999999999997,62.099999999999994 82.39999999999998,62.89999999999999 C 82.69999999999997,64.3 83.59999999999998,65.3 84.69999999999997,66.3 C 84.69999999999997,66.2 84.69999999999997,66.1 84.69999999999997,66.1 C 84.7,65.4 84.7,64.8 84.6,64.2" fill="#ffffff" stroke="none" stroke-width="2.0" /><path d="M 95.9,40.7 C 95.30000000000001,39.800000000000004 94.5,39.1 93.7,38.400000000000006 C 92.5,37.50000000000001 91.7,36.300000000000004 91.2,34.900000000000006 C 90.9,34.00000000000001 90.60000000000001,33.10000000000001 90.3,32.10000000000001 C 89.39999999999999,28.90000000000001 88.7,25.70000000000001 88.3,22.40000000000001 C 88.3,22.10000000000001 88.2,21.800000000000008 88.2,21.40000000000001 C 88.0,21.50000000000001 87.9,21.60000000000001 87.8,21.70000000000001 C 87.0,22.50000000000001 86.2,23.30000000000001 85.39999999999999,24.00000000000001 C 84.89999999999999,24.40000000000001 84.39999999999999,24.80000000000001 83.99999999999999,25.20000000000001 C 83.99999999999999,25.20000000000001 83.99999999999999,25.30000000000001 83.99999999999999,25.30000000000001 C 84.19999999999999,26.400000000000013 84.39999999999999,27.50000000000001 84.59999999999998,28.70000000000001 C 85.39999999999998,33.80000000000001 86.29999999999998,39.000000000000014 86.99999999999999,44.10000000000001 C 87.49999999999999,47.400000000000006 87.89999999999999,50.60000000000001 88.19999999999999,53.900000000000006 C 88.49999999999999,56.900000000000006 88.69999999999999,59.800000000000004 88.89999999999999,62.800000000000004 C 89.19999999999999,66.60000000000001 89.3,70.4 89.19999999999999,74.2 C 89.19999999999999,78.2 88.99999999999999,82.2 88.89999999999999,86.10000000000001 C 88.8,87.7 88.69999999999999,89.30000000000001 88.6,90.9 C 88.5,91.80000000000001 88.5,92.7 88.39999999999999,93.7 C 88.39999999999999,93.7 88.39999999999999,93.7 88.49999999999999,93.7 C 88.49999999999999,93.7 88.59999999999998,93.60000000000001 88.59999999999998,93.60000000000001 C 89.49999999999999,92.2 90.29999999999998,90.7 90.99999999999999,89.00000000000001 C 91.99999999999999,86.50000000000001 92.39999999999999,83.90000000000002 92.69999999999999,81.20000000000002 C 92.99999999999999,78.40000000000002 93.1,75.50000000000001 93.1,72.70000000000002 C 93.1,69.40000000000002 93.0,66.10000000000002 92.8,62.80000000000002 C 92.7,60.40000000000002 92.5,58.00000000000002 92.39999999999999,55.600000000000016 C 92.19999999999999,53.100000000000016 91.99999999999999,50.600000000000016 91.8,48.000000000000014 C 91.6,45.600000000000016 91.39999999999999,43.100000000000016 91.1,40.70000000000002 C 91.1,40.40000000000002 91.1,40.100000000000016 91.0,39.80000000000002 C 91.3,40.00000000000002 91.5,40.20000000000002 91.7,40.40000000000002 C 93.3,41.70000000000002 94.4,43.30000000000002 95.0,45.30000000000002 C 95.5,47.00000000000002 95.6,48.70000000000002 95.4,50.50000000000002 C 95.4,50.90000000000002 95.30000000000001,51.200000000000024 95.30000000000001,51.60000000000002 C 95.4,51.60000000000002 95.4,51.60000000000002 95.4,51.50000000000002 C 96.30000000000001,49.60000000000002 97.10000000000001,47.60000000000002 97.30000000000001,45.50000000000002 C 97.4,44.0 97.0,42.2 95.9,40.7" fill="#ffffff" stroke="none" stroke-width="2.0" /><path d="M 47.2,33.2 C 47.6,33.800000000000004 48.1,34.1 48.900000000000006,34.2 C 50.400000000000006,34.300000000000004 51.7,33.900000000000006 52.800000000000004,32.900000000000006 C 53.00000000000001,32.7 53.300000000000004,32.50000000000001 53.50000000000001,32.300000000000004 C 53.70000000000001,32.50000000000001 53.800000000000004,32.7 54.00000000000001,32.800000000000004 C 54.70000000000001,33.50000000000001 55.400000000000006,33.900000000000006 56.400000000000006,34.00000000000001 C 56.900000000000006,34.00000000000001 57.400000000000006,34.10000000000001 57.800000000000004,34.00000000000001 C 59.2,33.900000000000006 60.2,33.20000000000001 60.800000000000004,31.900000000000006 C 61.00000000000001,31.400000000000006 61.1,31.000000000000007 61.2,30.500000000000007 C 61.400000000000006,29.000000000000007 61.300000000000004,27.500000000000007 61.2,26.10000000000001 C 61.2,25.500000000000007 61.1,24.90000000000001 61.1,24.40000000000001 C 61.4,24.40000000000001 61.7,24.300000000000008 61.9,24.300000000000008 C 62.199999999999996,24.200000000000006 62.4,24.200000000000006 62.6,24.10000000000001 C 62.1,23.40000000000001 61.6,22.70000000000001 61.1,22.000000000000007 C 60.7,21.300000000000008 60.300000000000004,20.500000000000007 60.0,19.700000000000006 C 60.0,19.700000000000006 60.0,19.700000000000006 60.0,19.700000000000006 C 59.4,20.600000000000005 58.9,21.400000000000006 58.3,22.300000000000008 C 58.3,22.40000000000001 58.199999999999996,22.500000000000007 58.199999999999996,22.60000000000001 C 58.3,23.800000000000008 58.49999999999999,25.10000000000001 58.699999999999996,26.300000000000008 C 58.8,27.10000000000001 58.9,27.90000000000001 58.9,28.700000000000006 C 58.9,29.800000000000008 58.4,30.300000000000008 57.5,30.400000000000006 C 57.2,30.400000000000006 57.0,30.400000000000006 56.7,30.400000000000006 C 56.300000000000004,30.400000000000006 55.900000000000006,30.200000000000006 55.7,29.800000000000004 C 55.5,29.600000000000005 55.400000000000006,29.300000000000004 55.300000000000004,29.100000000000005 C 54.900000000000006,28.000000000000004 54.900000000000006,26.900000000000006 54.800000000000004,25.800000000000004 C 54.7,23.800000000000004 54.7,21.800000000000004 54.6,19.900000000000006 C 54.6,19.800000000000004 54.6,19.700000000000006 54.6,19.500000000000007 C 54.5,19.60000000000001 54.4,19.60000000000001 54.300000000000004,19.700000000000006 C 54.00000000000001,19.900000000000006 53.800000000000004,20.200000000000006 53.50000000000001,20.400000000000006 C 53.20000000000001,20.700000000000006 52.70000000000001,21.000000000000007 52.50000000000001,21.500000000000007 C 52.300000000000004,21.900000000000006 52.50000000000001,22.500000000000007 52.50000000000001,23.000000000000007 C 52.50000000000001,24.400000000000006 52.50000000000001,25.900000000000006 52.50000000000001,27.300000000000008 C 52.50000000000001,28.000000000000007 52.400000000000006,28.700000000000006 52.00000000000001,29.40000000000001 C 51.800000000000004,29.800000000000008 51.400000000000006,30.20000000000001 50.900000000000006,30.300000000000008 C 49.800000000000004,30.500000000000007 48.60000000000001,29.90000000000001 48.2,28.800000000000008 C 48.1,28.60000000000001 48.1,28.300000000000008 48.0,28.10000000000001 C 47.8,26.90000000000001 47.9,25.60000000000001 48.0,24.40000000000001 C 48.0,23.50000000000001 48.1,22.70000000000001 48.1,21.800000000000008 C 47.7,21.90000000000001 47.4,22.10000000000001 47.2,22.300000000000008 C 46.800000000000004,22.800000000000008 46.5,23.300000000000008 46.400000000000006,23.90000000000001 C 45.7,26.10000000000001 45.50000000000001,28.40000000000001 45.900000000000006,30.70000000000001 C 46.3,31.5 46.6,32.5 47.2,33.2" fill="#ffffff" stroke="none" stroke-width="2.0" /><path d="M 17.5,35.9 C 18.1,36.0 18.7,36.1 19.2,35.8 C 20.4,35.199999999999996 21.7,34.599999999999994 22.9,34.0 C 25.799999999999997,32.5 28.7,30.8 31.299999999999997,28.8 C 31.4,28.7 31.499999999999996,28.7 31.599999999999998,28.7 C 32.699999999999996,28.8 33.599999999999994,29.099999999999998 34.5,29.7 C 34.6,29.7 34.7,29.8 34.7,29.8 C 34.800000000000004,29.1 34.800000000000004,28.5 34.900000000000006,27.900000000000002 C 34.900000000000006,27.500000000000004 34.800000000000004,27.3 34.400000000000006,27.200000000000003 C 34.00000000000001,27.1 33.60000000000001,27.000000000000004 33.2,26.900000000000002 C 33.2,26.900000000000002 33.300000000000004,26.8 33.300000000000004,26.8 C 34.6,25.400000000000002 35.400000000000006,23.7 35.7,21.8 C 35.900000000000006,20.900000000000002 35.900000000000006,20.1 35.6,19.2 C 35.300000000000004,18.4 34.7,17.9 33.800000000000004,18.0 C 33.1,18.0 32.400000000000006,18.1 31.800000000000004,18.3 C 30.000000000000004,18.7 28.300000000000004,19.5 27.100000000000005,21.0 C 26.400000000000006,21.9 25.800000000000004,22.8 25.500000000000004,23.9 C 25.100000000000005,25.599999999999998 25.900000000000002,27.299999999999997 27.400000000000002,28.099999999999998 C 27.6,28.2 27.8,28.299999999999997 28.000000000000004,28.4 C 24.100000000000005,31.299999999999997 19.800000000000004,33.5 15.600000000000003,35.699999999999996 C 16.5,35.7 17.0,35.8 17.5,35.9 M 28.4,23.0 C 28.5,22.8 28.7,22.6 28.799999999999997,22.4 C 29.599999999999998,21.599999999999998 30.499999999999996,20.9 31.499999999999996,20.4 C 31.899999999999995,20.2 32.3,20.2 32.8,20.2 C 33.5,20.3 34.0,20.8 34.0,21.5 C 34.0,22.0 33.7,22.5 33.4,23.0 C 32.699999999999996,24.1 31.799999999999997,25.1 30.799999999999997,26.0 C 30.699999999999996,26.1 30.599999999999998,26.1 30.499999999999996,26.1 C 29.899999999999995,26.0 29.299999999999997,25.700000000000003 28.799999999999997,25.3 C 28.0,24.7 27.8,23.9 28.4,23.0" fill="#ffffff" stroke="none" stroke-width="2.0" /><path d="M 74.2,28.4 C 77.7,26.2 81.2,23.9 84.60000000000001,21.5 C 85.9,20.6 87.10000000000001,19.6 88.30000000000001,18.5 C 88.80000000000001,18.0 89.30000000000001,17.5 89.30000000000001,16.7 C 89.4,15.899999999999999 89.4,15.0 89.4,14.2 C 89.4,14.2 89.30000000000001,14.2 89.30000000000001,14.2 C 89.10000000000001,14.399999999999999 88.9,14.5 88.70000000000002,14.7 C 85.30000000000001,17.0 81.90000000000002,19.4 78.60000000000002,21.7 C 75.40000000000002,23.9 72.20000000000002,26.2 69.00000000000003,28.5 C 68.80000000000003,28.6 68.70000000000003,28.8 68.70000000000003,29.0 C 68.70000000000003,29.4 68.60000000000004,29.8 68.50000000000003,30.2 C 68.40000000000003,30.8 68.30000000000003,31.4 68.10000000000002,32.1 C 68.20000000000002,32.0 68.30000000000003,32.0 68.40000000000002,32.0 C 70.4,30.7 72.3,29.6 74.2,28.4" fill="#ffffff" stroke="none" stroke-width="2.0" /><path d="M 53.3,9.5 C 53.5,11.8 53.5,14.2 53.199999999999996,16.5 C 53.199999999999996,16.8 53.099999999999994,17.1 53.099999999999994,17.4 C 53.199999999999996,17.299999999999997 53.3,17.299999999999997 53.3,17.2 C 54.3,15.899999999999999 55.0,14.399999999999999 55.5,12.799999999999999 C 56.2,10.299999999999999 56.3,7.799999999999999 55.9,5.199999999999999 C 55.6,3.3999999999999995 55.0,1.5999999999999992 54.3,-0.10000000000000053 C 54.199999999999996,-5.273559366969494e-16 54.099999999999994,0.09999999999999948 54.0,0.19999999999999946 C 53.2,1.2999999999999996 52.5,2.499999999999999 52.0,3.6999999999999993 C 51.9,3.7999999999999994 51.9,3.999999999999999 52.0,4.1 C 52.8,5.9 53.2,7.7 53.3,9.5" fill="#ffffff" stroke="none" stroke-width="2.0" /></g></svg>