<?xml version="1.0" encoding="utf-8"?>
<!-- Generator: Adobe Illustrator 21.0.0, SVG Export Plug-In . SVG Version: 6.00 Build 0)  -->
<svg version="1.1" id="Layer_1" xmlns="http://www.w3.org/2000/svg" xmlns:xlink="http://www.w3.org/1999/xlink" x="0px" y="0px"
	 viewBox="0 0 100 100" style="enable-background:new 0 0 100 100;" xml:space="preserve">
<path d="M40.6,0c-0.2,0-0.3,0-0.5,0.1c-0.2,0.1-0.4,0.2-0.5,0.3c-0.1,0.1-0.3,0.1-0.4,0.1c-0.1,0-0.2,0-0.4,0
	c-0.1,0.1-0.3,0.1-0.4,0.1c-0.1-0.1-0.2-0.2-0.3-0.2c-0.1,0-0.2-0.1-0.3-0.1c-0.1,0.1-0.1,0.2-0.2,0.2c-0.1,0-0.2,0.1-0.3,0
	c-0.1-0.1-0.2,0-0.2-0.1c-0.1-0.1-0.3-0.1-0.4-0.2c-0.1,0.1-0.1,0.2-0.2,0.2c-0.2,0.1-0.3,0.1-0.5,0.1c-0.2,0-0.3,0.1-0.4,0.1
	c-0.1,0-0.2,0-0.3-0.1c-0.1-0.1-0.1-0.1-0.2-0.2c-0.2,0-0.3,0-0.5-0.1c-0.2,0-0.4,0-0.7,0c-0.1,0-0.3,0.1-0.4,0.1
	c-0.1,0-0.2,0-0.3,0c-0.1,0-0.3,0-0.4,0c-0.1,0-0.1,0.1-0.2,0.1c-0.1,0.1-0.2,0.1-0.3,0.1c-0.3,0-0.6,0-0.8,0c-0.2,0-0.4,0-0.6,0
	c-0.3,0.1-0.6,0.1-0.8,0.2c-0.1,0.1-0.2,0.2-0.4,0.2c-0.2,0-0.3,0.2-0.5,0.3c0,0.1-0.1,0.1-0.2,0.1c-0.1,0-0.2,0.1-0.2,0
	c-0.1-0.1-0.2-0.1-0.2,0c-0.1,0-0.1,0.1-0.2,0.1c-0.1,0-0.2,0-0.3,0c-0.1,0.1-0.3,0.1-0.3,0.2c-0.1,0.1-0.2,0.3-0.4,0.4
	c-0.2,0.1-0.4,0.2-0.6,0.2c-0.2,0.1-0.4-0.1-0.7-0.1c-0.1,0-0.2,0-0.3,0c-0.1,0-0.2-0.2-0.3-0.2c-0.1-0.1-0.2,0-0.3,0
	c-0.2,0-0.4,0-0.5,0c-0.1,0-0.2,0-0.3,0c-0.2,0-0.4,0.1-0.6,0.1c-0.1,0-0.2,0-0.3-0.1C23.2,2.1,23,2,22.9,1.8
	c-0.1-0.1-0.2-0.2-0.2-0.4c0-0.1,0-0.2-0.1-0.2c-0.2,0-0.3,0.1-0.5,0.1c-0.1,0-0.1,0.1-0.2,0.2c-0.2,0.3-0.4,0.7-0.6,1
	c-0.1,0.2-0.2,0.3-0.3,0.5c-0.1,0.1-0.3,0.3-0.4,0.4c-0.1,0.1-0.1,0.2-0.2,0.3C20.3,3.9,20,4,19.8,4.1c-0.2,0.1-0.5,0.2-0.8,0.3
	c-0.2,0.1-0.4,0.1-0.7,0.2c-0.1,0.1-0.3,0.2-0.4,0.3c-0.2,0.2-0.4,0.4-0.7,0.6c-0.1,0.1,0,0.2-0.1,0.3c0,0.1-0.1,0.2-0.2,0.3
	c0,0.1-0.1,0.1-0.1,0.2c0.1,0-0.1,0-0.1,0.1c-0.1,0-0.2,0-0.2,0.1c-0.2,0.2-0.4,0.4-0.5,0.6c-0.1,0.2-0.1,0.5-0.2,0.8
	C16,8,15.9,8,15.9,8.1c0.1,0.2,0.2,0.3,0.1,0.5c0,0.2,0,0.3-0.1,0.5c-0.1,0.2-0.3,0.3-0.4,0.4c-0.1,0.1-0.2,0.2-0.3,0.4
	c-0.1,0.1-0.2,0.3-0.4,0.3c-0.1,0.2-0.3,0.2-0.4,0.3c-0.2,0.1-0.4,0.1-0.6,0.2c-0.2,0.1-0.3,0.3-0.5,0.4c-0.1,0.1-0.3,0.2-0.4,0.2
	c-0.2,0-0.4,0.1-0.6,0.2c-0.2,0-0.4,0.1-0.6,0.1c-0.1,0-0.2,0-0.3,0c-0.1,0.1-0.1,0.3-0.2,0.3c-0.1,0.1-0.2,0.3-0.3,0.4
	c-0.1,0.2-0.3,0.4-0.4,0.6c0,0.1-0.1,0.2-0.2,0.2c-0.2,0.1-0.4,0.2-0.6,0.3c-0.1,0.1-0.3,0.1-0.4,0.2c-0.1,0.1-0.3,0.3-0.4,0.4
	c-0.1,0.3-0.2,0.5-0.4,0.7c-0.1,0.1-0.2,0.3-0.2,0.5c0,0.1-0.1,0.2-0.2,0.3C8.2,15.8,8.1,16,8,16.1c-0.3,0.3-0.6,0.5-0.8,0.8
	C7,17,7,17.2,6.9,17.3c-0.2,0.3-0.4,0.5-0.7,0.8c0,0.1,0.1,0.2,0,0.3c-0.1,0.1-0.2,0.3-0.3,0.5c-0.1,0.1-0.2,0.3-0.3,0.4
	c-0.1,0-0.2,0.1-0.3,0.1C5.2,19.6,5.1,19.8,5,20c-0.1,0.3-0.2,0.6-0.3,1c0,0.1-0.1,0.2,0,0.1c0.1,0,0.2-0.2,0.2,0
	c0,0.2,0.2,0.3,0.2,0.5c0,0.1,0,0.2,0.1,0.2c0.1,0,0.1-0.2,0.2,0c0.1,0.2,0.2,0.3,0.2,0.5c0,0.2-0.1,0.3-0.1,0.4
	c0,0.2-0.1,0.3-0.1,0.5c-0.1,0.1-0.1,0.2-0.2,0.3c-0.1-0.1-0.1,0.1,0,0.1c0.1,0.2,0.2,0.4,0.3,0.5c0,0.1,0.1,0.2,0.1,0.3
	c0,0.3,0,0.6-0.1,0.8c0,0.3-0.1,0.5-0.2,0.8c-0.1,0.3-0.3,0.6-0.4,0.9c-0.1,0.1-0.1,0.3-0.2,0.4c-0.1,0.2-0.1,0.4-0.1,0.6
	c0,0.2,0,0.5-0.1,0.7c-0.1,0.2-0.2,0.4-0.4,0.6c-0.1,0.2-0.2,0.4-0.4,0.5c-0.1,0.1-0.2,0.3-0.4,0.4c0,0.1-0.1,0.2-0.1,0.2
	c0.1,0.1,0.2,0.3,0.3,0.4c0.1,0.2,0.2,0.4,0.2,0.7c0.1,0.1,0.1,0.2,0.2,0.3c0,0.1,0.1,0.3,0.1,0.4c0,0.1,0,0.2,0.1,0.2
	c0.1,0,0.1-0.1,0.2-0.1c0,0,0.1-0.1,0.1,0c0,0.1,0.1,0,0.2,0c0.1,0,0.2,0,0.3,0c0.1,0,0.1-0.1,0.2,0c0.1,0,0.1-0.1,0.1,0
	c0,0.1,0.1,0,0.1,0c0,0,0.2,0.1,0.2,0c0,0,0,0.1-0.1,0.1c-0.1,0-0.1-0.1-0.2-0.1c0,0-0.1-0.1-0.1,0c0,0-0.1,0.1-0.1,0
	c-0.1,0-0.1,0.1-0.2,0c0,0-0.1,0-0.1,0c-0.1,0-0.2,0-0.3,0c-0.1,0-0.1,0-0.1,0c0,0,0,0.1,0,0.1c0,0.1,0.1,0,0.1,0c0,0-0.1,0-0.1,0
	c0-0.1-0.1,0-0.2,0c-0.1,0-0.2,0-0.2-0.1c-0.1,0-0.1-0.1-0.1-0.2c-0.1,0-0.1,0.1-0.1,0.2c-0.1,0.1,0,0.2,0,0.3
	c-0.1,0.3-0.1,0.5-0.1,0.8c0,0.1-0.1,0.2,0,0.3c0,0.1,0.1,0.2,0.2,0.2C3.8,33.9,3.9,34,4,34c0,0.1,0,0.2,0.1,0.3
	c0,0.1,0.2,0.1,0.2,0.1c0.1,0,0.2-0.1,0.2,0.1c0,0.1,0,0.2,0.1,0.2c0.2,0,0.4-0.2,0.6-0.2c0.2-0.1,0.4,0,0.6-0.1
	c0.1,0,0.1,0,0.1,0.1c-0.2,0-0.4,0-0.6,0.1c0,0.1-0.2,0.1-0.2,0.2c0,0.1,0.1,0.2,0.1,0.3c0,0.1-0.1,0.2-0.1,0.3
	c0,0.1,0.1,0.2,0.1,0.2c0.1,0.1,0.2,0,0.3,0c-0.1,0.1-0.1,0.2-0.1,0.3c0,0.1,0.1,0.1,0.1,0.2c0.1,0,0.2,0,0.2-0.1
	c0.1-0.1,0.1-0.2,0.2-0.2c0,0.1,0,0.2,0,0.3c0,0.1,0.1,0.1,0.2,0.1c0.1,0,0,0.1,0.1,0.2c0,0.2,0.1,0.4,0.1,0.5
	c0,0.1,0.2,0.1,0.2,0.2c0.1,0.1,0.2,0.2,0.4,0.2c0.1,0.1,0.2,0.2,0.3,0.4c0.1,0.1,0.2,0.1,0.1,0.2c0,0.1,0.2,0.2,0.2,0.3
	c0.1,0.1,0.2,0.2,0.2,0.3c0,0.1,0.1,0.2,0,0.3C7.9,38.9,8,39,7.9,39.1c0,0.1,0,0.2,0,0.3c0,0,0.2,0.1,0.1,0.2
	C8,39.6,7.9,39.7,8,39.9C8,40,8.1,40,8.1,40c0.1,0,0.1,0.1,0.2,0.1c0,0.1,0,0.2,0,0.3c0.1,0.1,0.3,0.2,0.4,0.3
	c0.1,0.1,0.2,0.1,0.2,0.3c0,0.1,0,0.2,0.1,0.2c0.3,0.2,0.6,0.3,1,0.5c0.2,0.1,0.3,0.2,0.4,0.3c0.1,0,0.1,0.1,0,0.1
	c0,0.1,0.1,0.1,0.1,0.2c0.1,0.1,0.1,0.1,0.2,0.1c0.1,0,0.2,0,0.3,0.1c0.1,0.1,0.2,0.3,0.4,0.3c0.2,0.1,0.3,0.1,0.5,0.3
	c0.4,0.3,0.7,0.7,1,1c0.2,0.2,0.3,0.3,0.5,0.5c0.2,0.2,0.4,0.3,0.6,0.4c0.4,0.1,0.9,0.3,1.3,0.5c0.1-0.1,0.3,0,0.4-0.1
	c0.2-0.1,0.4-0.2,0.6-0.3c0.3-0.1,0.6-0.3,1-0.4c0.2-0.1,0.3-0.2,0.5-0.2c0.2,0,0.3-0.1,0.5-0.1c0.4-0.1,0.7-0.1,1.1-0.2
	c0.3,0,0.6-0.1,0.9-0.1c0.2,0,0.3,0.1,0.5,0.1c0.3,0,0.5,0.1,0.8,0.2c0.2,0,0.4,0,0.6,0.1c0.3,0.1,0.6,0.2,0.8,0.3
	c0.2-0.1,0.5-0.2,0.7-0.4c0.1-0.1,0.2-0.1,0.3-0.1c0.3-0.1,0.5-0.1,0.8-0.2c0.4-0.2,0.8-0.5,1.2-0.7c0.2-0.1,0.4-0.1,0.6-0.1
	c0.1,0,0,0,0-0.1c0-0.1,0-0.1,0-0.2c0-0.1-0.1-0.1-0.1-0.1c0-0.1-0.1-0.1-0.1-0.1c-0.1,0-0.1,0.1-0.1,0.1c-0.1,0-0.1-0.1-0.2-0.1
	c0.1-0.1,0.1,0,0.1,0.1c0,0,0.1,0,0.1,0c0.1,0,0.1,0,0.2,0.1c0.1,0,0.2,0.1,0.2,0.3c0,0,0.1,0.1,0.1,0.1c0,0,0.1,0,0.2,0
	c0.1,0.1,0.2,0,0.2,0c0.1,0,0.1-0.1,0.2-0.2c0.1-0.1,0.1-0.2,0.2-0.2c0.2-0.1,0.3-0.1,0.5-0.2c0.3-0.1,0.6-0.2,0.9-0.2
	c0.3,0,0.6-0.1,0.8-0.1c0.2,0,0.3,0,0.5,0c0.4,0,0.7-0.1,1.1,0c0.2,0,0.5,0,0.7,0.1c0.1,0,0.3,0.2,0.4,0.2c0.1,0.1,0.2,0.1,0.2,0.2
	c0.1,0.1,0.1,0.2,0.2,0.3c0.1,0,0.1,0.1,0.2,0.2c0,0.1,0.1,0.1,0.1,0.2c0,0.1,0,0.2,0.1,0.2c0,0,0.2,0,0.2,0.1
	c-0.1,0-0.1,0.1-0.1,0.2c0,0.2,0.1,0.4,0.1,0.7c0.2,0.1,0.3,0.3,0.4,0.5c0,0.1,0.2,0.1,0.2,0.1c0.1,0.1,0.2,0,0.4,0
	c0,0.1,0,0.2,0.1,0.2c0.1-0.1,0.3-0.1,0.4-0.2c0.1,0.1,0.1-0.1,0.2,0c0.1,0.1,0.1,0,0.2,0c0.1,0,0.1-0.1,0.2-0.2
	c0.1,0,0.1-0.1,0.2-0.2c0.2,0.1,0.4,0.2,0.6,0.2c0.3,0,0.6,0,0.9,0c0-0.2,0-0.3,0.1-0.5c0-0.1,0.1,0,0.2,0c0,0.1,0.1,0.1,0.1,0.2
	c0,0.1,0,0.2,0.1,0.2c0.1,0.1,0.2,0,0.2,0c0.1,0,0.2,0,0.2,0.1c0.1,0.2,0.1,0.4,0.2,0.6c0.2,0.1,0.3,0.2,0.5,0.2
	c0.1,0,0.1-0.1,0.2-0.1c0.1,0,0.2,0,0.2,0c0,0.1,0,0.2,0,0.3c-0.1,0-0.1,0.1,0,0.2c0.1,0.1,0.1,0.2,0.2,0.3c0.1,0.1,0.1,0.2,0.2,0.3
	c-0.1,0.1,0,0.2-0.1,0.3c-0.1,0.3-0.2,0.6-0.2,1c-0.1,0.2-0.1,0.3-0.1,0.5c-0.1,0.2-0.2,0.3-0.2,0.5c0,0.2-0.2,0.4-0.3,0.6
	c0.1,0.1,0.2,0.1,0.4,0.2c0.1,0.1-0.1,0.2-0.1,0.2c0,0.1,0,0.3,0,0.4c0,0.1-0.1,0.1-0.2,0.1c-0.1,0-0.1,0.1-0.1,0.2
	c0.1,0.2,0.3,0.3,0.4,0.4c0.1,0,0.2,0,0.3,0.1c0,0.1-0.1,0.1-0.2,0.1c-0.1,0-0.3,0-0.4-0.1c-0.1-0.1-0.1-0.1-0.2-0.1
	c0,0,0,0.2,0,0.2c0,0.2,0,0.5-0.1,0.7c-0.1,0.1-0.2,0.2-0.3,0.3c0,0.1-0.2,0.1-0.3,0.1c-0.1,0,0,0.1,0,0.2c0.1,0.2,0.2,0.4,0.3,0.6
	c0.1,0.3,0.2,0.6,0.3,0.9c0.2,0.2,0.4,0.4,0.6,0.7c0.1,0.1,0.2,0.3,0.3,0.5c0.3,0.2,0.5,0.4,0.8,0.7c0.2,0.2,0.4,0.5,0.6,0.6
	c0.1,0.1,0.1,0.3,0.3,0.4c0.1,0.1,0.2,0.1,0.3,0.2c0.1,0.2,0.2,0.3,0.4,0.5c0.1,0.1,0.2,0.2,0.3,0.4c0.1,0.2,0.2,0.4,0.2,0.6
	c0.1,0.1,0.2,0.1,0.1,0.2c0,0.2,0.1,0.3,0,0.5c0,0.1,0,0.2,0.1,0.3c0.1,0.1,0.2,0.2,0.3,0.3c0,0,0.1,0.1,0.1,0.1
	c0-0.1,0.1-0.1,0.1,0c0,0.1-0.1,0.1,0,0.1c0.1,0,0.1,0,0.1-0.1c0.1-0.1,0.2,0,0.2,0c0,0,0-0.1,0.1-0.1c0,0,0.1,0,0.1-0.1
	c0.1,0,0.1,0,0.1,0c0.1,0,0.1,0.1,0.2,0c0,0,0.1,0,0.2,0c0.1,0,0,0.1-0.1,0.1c0,0-0.1-0.1-0.1,0c0,0-0.1,0-0.1,0.1
	c0,0.1-0.1,0.1-0.2,0.1c0,0-0.1,0-0.1,0c-0.1-0.1-0.1,0.1-0.2,0c0,0-0.1,0-0.1,0c-0.1,0.1-0.1,0-0.2,0c0,0-0.1,0-0.1,0.1
	c0,0.1,0,0.2,0,0.2c0.1,0.2,0.2,0.3,0.3,0.5c0.1,0.2,0.3,0.3,0.4,0.5c0.1,0.2,0.1,0.5,0.2,0.7c0.1,0.3,0.1,0.5,0.3,0.8
	c0,0.1,0.2,0.2,0.2,0.3c0.1,0.2,0.1,0.4,0.1,0.6c0,0.1-0.1,0.2-0.2,0.2c-0.1,0.1-0.1,0.1-0.1,0.2c0,0.2,0.1,0.4,0.1,0.6
	c0,0.2,0.1,0.5,0.2,0.7c0.1,0.1,0.2,0.2,0.2,0.4c0,0.1,0.1,0.2,0.1,0.2c0.1,0.1,0.2,0.1,0.2,0.2c0,0.2,0.1,0.3,0.1,0.5
	c0,0.1-0.1,0.1-0.1,0.2c0,0.2,0.1,0.4,0,0.5c0,0.2,0,0.3,0,0.5c0,0.2-0.1,0.4-0.1,0.6c-0.1,0.3-0.3,0.5-0.5,0.7
	c-0.2,0.1-0.3,0.2-0.5,0.2c0,0.1,0,0.2-0.1,0.3c-0.1,0.1-0.2,0.2-0.4,0.3c-0.1,0.2-0.2,0.3-0.2,0.5c0,0.1-0.1,0.1-0.1,0.2
	c0,0.1-0.1,0.3-0.1,0.4c-0.1,0.1-0.1,0.3-0.1,0.4c-0.1,0.2-0.1,0.4-0.1,0.6c-0.1,0.2,0,0.4-0.1,0.5c-0.1,0.2-0.1,0.5-0.2,0.7
	c0,0.1-0.2,0.2-0.2,0.3c0,0.3,0,0.7,0,1c0,0.1,0,0.2,0,0.1c0-0.1-0.2-0.2-0.1-0.1c0,0.3,0.1,0.5,0.1,0.8c0,0.2,0,0.3,0,0.5
	c0,0.2,0,0.4,0.1,0.5c0,0.1,0,0.2,0.1,0.3c0.1,0.2,0.2,0.4,0.3,0.5c0,0.1,0.1,0.1,0.2,0.1c0.1,0.1,0.2,0.2,0.2,0.3
	c0,0.1,0.1,0.2,0.2,0.3c0.1,0.1,0.1,0.2,0.2,0.3c0.1,0.1,0.2,0.2,0.2,0.3c0,0.2,0.2,0.3,0.2,0.4c0.1,0.2,0.2,0.3,0.3,0.4
	c0.1,0.1,0.2,0.2,0.2,0.4c0,0.1,0.1,0.2,0.1,0.3c0.1,0.2,0.2,0.4,0.3,0.6c0.1,0.2,0.2,0.4,0.4,0.6c0,0.1,0.1,0.2,0.1,0.4
	c0.2,0.2,0.3,0.4,0.5,0.6c0.1,0.2,0.2,0.4,0.2,0.6c0.1,0.2,0,0.5,0,0.7c0,0.3,0,0.6,0,0.9c0,0.2,0,0.4,0,0.6c0,0.1,0.1,0.3,0.2,0.4
	c0.1,0.2,0.2,0.4,0.3,0.6c0.1,0.2-0.1,0.4,0,0.6c0,0.2,0,0.4,0.1,0.6c0,0.1,0.1,0.2,0.1,0.3c0,0.1-0.1,0.2,0,0.2
	c0.1,0.1,0.1,0.3,0.2,0.5c0,0.2,0,0.3,0.1,0.5c0,0.2,0,0.4,0.1,0.5c0.1,0.2,0.3,0.3,0.4,0.5c0.1,0.2,0.2,0.4,0.3,0.5
	c0.1,0.1,0.2,0.2,0.3,0.2c0.1,0.1,0.2,0.3,0.4,0.4c0.1,0,0.2,0,0.2,0.1c0,0.1,0,0.2,0,0.2c0.1,0.1,0.2,0.2,0.3,0.4
	c0.1,0.3,0.2,0.5,0.3,0.7c0.1,0.4,0.2,0.7,0.4,1c0.1,0.2,0.1,0.3,0.3,0.4c0.1,0.1,0.1,0.3,0.2,0.5c0.1,0.2,0.2,0.3,0.3,0.5
	c0.1,0.2,0.3,0.4,0.4,0.6c0,0.1,0,0.3,0,0.4c0,0.2,0,0.3,0,0.5c-0.1,0.1-0.1,0.2-0.2,0.3c-0.1,0-0.2-0.1-0.3-0.1
	c-0.1,0.1-0.1,0.2-0.1,0.3c0,0.1,0.1,0.1,0.1,0.2c0.1,0,0.1,0.2,0.1,0.2c-0.1,0,0.1,0.1,0.1,0.2c0,0.1,0.1,0.1,0.2,0.2
	c0.1,0.1,0.2,0.3,0.3,0.4c0,0.1,0,0.2,0,0.2c-0.1,0.1-0.1,0.3-0.1,0.5c0,0,0.1,0.2,0.1,0.2c0-0.1,0-0.2,0-0.2c0-0.1,0.1-0.2,0.2-0.2
	c0.1,0,0.2,0,0.3,0c0,0.1,0,0.3,0,0.4c0.1,0.1,0.2,0.1,0.2,0c0.1,0,0.2,0,0.3,0c0.1,0.1,0.1,0.1,0.1,0.2c0,0.1,0.1,0.1,0.2,0.1
	c0.1,0.1,0.2,0,0.3,0.1c0.1,0,0.3,0,0.4,0c0.1,0,0.2,0,0.2-0.1c0.1-0.1,0.1-0.1,0.2-0.2c0.1,0,0.3,0,0.4,0c0.1-0.1,0.1-0.1,0.2-0.1
	c0.2,0,0.3,0,0.5,0.1c0.1-0.1,0.1-0.1,0.2-0.1c0.2,0,0.3,0.1,0.5,0c0-0.1,0-0.2,0.1-0.2c0.1,0,0.3-0.1,0.4-0.2c0.2,0,0.5-0.1,0.7,0
	c0.1,0,0.3,0.1,0.4,0.1c0.1,0,0.2,0,0.2-0.1c0.1-0.1,0.1-0.1,0.2-0.1c0.2,0,0.4,0,0.6,0.1c0.2,0.1,0.5,0.1,0.7,0.2
	c0.1,0,0.2,0,0.3,0c0.1-0.1,0.1-0.2,0.2-0.3c0.1,0,0.3,0,0.4,0c0.2,0.1,0.3,0.1,0.5,0.1c0-0.1,0-0.2,0-0.3c-0.1-0.1,0-0.1,0.1-0.2
	c0.2-0.1,0.4-0.1,0.6,0c0.2,0,0.4,0.1,0.6,0c0.5-0.1,0.9-0.4,1.3-0.7c0.2-0.1,0.4-0.3,0.6-0.5c0.2-0.2,0.4-0.2,0.6-0.4
	c0.2-0.2,0.4-0.3,0.5-0.5c0.2-0.2,0.4-0.5,0.6-0.7c0.3-0.2,0.5-0.4,0.8-0.6c0.2-0.2,0.3-0.4,0.5-0.6c0.1-0.1,0.3-0.3,0.3-0.4
	c0.2-0.2,0.3-0.5,0.5-0.7c0.1-0.1,0.2-0.2,0.2-0.4c0-0.1,0.1-0.2,0.2-0.3c0.1-0.2,0.3-0.3,0.4-0.4c0.1-0.1,0.2-0.1,0.4-0.2
	c0.1-0.1,0.3-0.2,0.4-0.3c0.2-0.1,0.3-0.2,0.4-0.4c0.1-0.2,0.1-0.5,0.2-0.7c0.1-0.1,0.2-0.3,0.2-0.4c0.1-0.1,0-0.3,0.1-0.4
	c0.1-0.1,0.2-0.3,0.2-0.4c0-0.1,0.1-0.2,0.1-0.3c0,0,0-0.2,0.1-0.2c0-0.2,0.1-0.4,0.1-0.6c0,0.1-0.1,0.2-0.2,0.2
	c-0.1,0-0.1-0.1-0.1-0.2c0-0.1-0.1-0.1-0.2-0.2c0.1,0,0.1-0.1,0.2-0.1c0.2-0.1,0.2-0.4,0.4-0.5c0.2,0,0.3-0.1,0.4-0.2
	c0.1-0.1,0.2-0.2,0.4-0.2c0.3-0.1,0.6-0.2,1-0.3c0.2,0,0.3,0,0.4-0.1c0.1,0,0.3-0.1,0.4-0.2c0.1-0.1,0.3-0.2,0.4-0.3
	c0.1-0.1,0.3-0.3,0.4-0.4c0.1-0.1,0.1-0.3,0.2-0.4c0-0.1-0.1,0.1-0.1,0.1c-0.1,0.1-0.1,0.2-0.2,0.3c0-0.1,0-0.3,0-0.4
	c0.1-0.3,0.2-0.6,0.4-0.9c0.1-0.3,0.1-0.6,0.2-0.9c0-0.2,0.1-0.4,0.1-0.6c-0.1-0.1-0.1-0.1-0.2,0c-0.1,0.1-0.1-0.1-0.1-0.2
	c0-0.2,0-0.4,0-0.6c0-0.2-0.1-0.5-0.2-0.7c0-0.1,0-0.2,0-0.2c0-0.1,0-0.2-0.1-0.3c-0.1-0.1-0.2-0.2-0.3-0.3c0-0.1,0-0.2,0-0.2
	c0-0.2,0.1-0.5,0.1-0.7c0.1,0,0.2,0,0.3-0.1c0.1-0.1,0.2-0.2,0.3-0.3c0.1-0.1,0.3-0.2,0.4-0.3c0.2-0.2,0.4-0.3,0.5-0.5
	c0.1-0.1,0.2-0.1,0.3-0.2c0.1-0.1,0.1-0.3,0.2-0.4c0,0.1,0,0.2,0.1,0.2c0.1,0.1,0.1,0.1,0.2,0c0.2-0.2,0.4-0.4,0.6-0.6
	c0-0.1-0.2-0.1-0.1-0.2c0.1-0.1,0.3,0,0.4-0.1c0.1-0.1,0.1-0.2,0.1-0.3c0.2-0.2,0.5-0.4,0.8-0.5c0.4-0.2,0.8-0.3,1.2-0.5
	c0.1,0,0.3-0.1,0.4-0.1c0.1,0,0.2,0.1,0.3,0c0.1-0.1,0.2-0.1,0.3-0.2c0.1-0.1,0.1-0.2,0.2-0.2c0.3-0.1,0.5-0.3,0.8-0.4
	c0-0.1,0.1-0.1,0.1-0.2c0-0.1-0.2-0.1,0-0.2c0.1-0.1,0.2-0.1,0.4-0.2c0.1-0.1,0.1-0.3,0.3-0.4c0.1-0.1,0.2-0.2,0.3-0.3
	c0.1,0,0.2-0.1,0.2-0.1c0.1-0.1,0.1-0.3,0.1-0.4c0,0-0.2,0-0.1-0.1c0.1-0.1,0.2-0.2,0.3-0.3c0-0.1,0.1-0.3,0.2-0.4
	c0-0.1,0.1-0.2,0-0.2c0-0.1-0.2,0-0.1-0.1c0-0.1,0.2-0.1,0.1-0.2c0-0.1-0.1-0.1-0.1,0c-0.1,0-0.1-0.1-0.1-0.2c0.1-0.1,0-0.2,0-0.3
	c0-0.2,0-0.5,0.1-0.7c0-0.1,0-0.3,0-0.4c-0.1,0-0.1-0.1-0.1-0.2c0-0.1,0.1-0.1,0.1-0.2c0.1-0.1,0-0.2,0-0.2c0-0.3-0.1-0.6,0-0.9
	c0-0.2,0-0.4,0-0.5c0-0.2,0.1-0.3,0.2-0.5c0.1-0.1,0.1-0.3,0.2-0.4c0-0.1,0.1-0.2,0-0.2c0-0.1,0-0.2,0-0.3c0.1-0.1,0-0.2,0-0.2
	c-0.1-0.1-0.1-0.2-0.2-0.3c-0.1-0.1-0.2-0.1-0.3-0.1c0-0.1-0.1-0.2-0.1-0.3c-0.1,0-0.2-0.1-0.2-0.2c0-0.1,0-0.2,0-0.3
	c0-0.1,0-0.2,0-0.3c0-0.1-0.1-0.1-0.2-0.2c0-0.1,0.1-0.3,0-0.4c-0.1-0.1-0.1-0.2-0.2-0.4c-0.1-0.1,0.1-0.1,0.1-0.2
	c0-0.1-0.1-0.1-0.1-0.2c-0.1-0.2-0.1-0.3-0.1-0.5c0-0.1,0-0.2,0.1-0.2c0.1,0,0.1-0.1,0.1-0.2c0-0.1,0-0.2,0-0.4c0-0.1-0.1-0.2,0-0.3
	c0.1-0.1,0-0.3,0.1-0.4c0.1-0.1,0.1-0.2,0.2-0.2c0-0.1-0.1-0.3-0.1-0.4c-0.1-0.1-0.2-0.2-0.3-0.3c0-0.1-0.1-0.2-0.2-0.2
	c-0.1-0.1-0.2-0.1-0.3-0.2c0-0.1-0.1-0.3-0.1-0.4c0.1-0.3,0.3-0.6,0.4-1c0.1-0.2,0.2-0.4,0.2-0.6c0-0.1,0.1-0.3,0.1-0.4
	c0.1-0.1,0.3-0.1,0.4-0.2c0.1-0.2,0.3-0.4,0.3-0.7c0.1-0.2,0.2-0.4,0.3-0.5c0.1-0.2,0.3-0.5,0.4-0.7c0-0.2,0-0.3,0.1-0.5
	c0.1-0.1,0.1-0.2,0.2-0.3c0.2-0.1,0.4-0.2,0.6-0.3c0-0.1,0-0.2,0.1-0.3c0.1-0.1,0.1-0.2,0.2-0.3c0.2,0,0.4,0,0.5-0.1
	c0.1-0.1,0.2-0.2,0.3-0.3c0.1-0.1,0.1-0.3,0.2-0.4c0-0.1,0.1-0.1,0.2-0.2c0.2-0.4,0.5-0.7,0.8-1c0-0.1,0-0.2,0.1-0.3
	c0.1,0,0.2,0,0.1-0.1c0-0.2-0.2,0-0.1,0c0,0,0.1-0.2,0.1-0.1c0,0,0.1-0.1,0.2-0.1c0.1,0,0.1,0,0.2-0.1c0.2-0.3,0.4-0.6,0.7-0.9
	c0.2-0.2,0.4-0.4,0.5-0.5c0.1-0.1,0.3-0.3,0.4-0.4c0.1-0.1,0.2-0.3,0.3-0.3c0.3-0.2,0.5-0.5,0.8-0.6c0.1-0.1,0.3-0.1,0.4-0.1
	c0.3-0.2,0.6-0.4,0.8-0.6c0.2-0.2,0.3-0.3,0.5-0.5c0.1-0.1,0.1-0.2,0.2-0.3c0.1-0.1,0.2-0.2,0.4-0.3c0.2-0.1,0.3-0.3,0.5-0.5
	c0.1-0.1,0.1-0.3,0.3-0.4c0.2-0.2,0.4-0.4,0.5-0.6c0.1-0.2,0.3-0.4,0.4-0.6c0.1-0.2,0.2-0.5,0.2-0.7c0.2-0.2,0.4-0.5,0.6-0.7
	c0.1-0.1,0.2-0.2,0.3-0.3c0.1-0.2,0.2-0.3,0.2-0.5c0.1-0.2,0.1-0.5,0.1-0.7c0-0.2,0,0.1,0,0c0.1-0.3,0.3-0.6,0.4-0.9
	c0.1-0.3,0.2-0.5,0.3-0.8c0.1-0.2,0-0.3,0.1-0.5c0-0.1,0.1-0.2,0.2-0.3c0.1,0,0.1-0.1,0.1-0.2c0-0.1,0.1-0.2,0.2-0.3
	c0.1-0.1,0.1-0.2,0.1-0.3c0-0.1,0-0.2,0.1-0.3c0.1-0.1,0.1-0.1,0.2-0.2c0.1-0.2,0.1-0.3,0.1-0.5c0-0.2,0-0.4,0-0.5
	c0-0.2,0-0.4,0.1-0.6c0-0.1,0.1-0.2,0.1-0.2c0.1-0.1,0.3-0.1,0.4-0.1c-0.1,0-0.1-0.2-0.2-0.1c-0.1,0.1-0.1-0.1-0.1-0.2
	c0-0.2,0-0.4-0.1-0.6c-0.1-0.2-0.2-0.3-0.1-0.5c0-0.1,0-0.2,0.1-0.3c0.1-0.1,0-0.1,0-0.2c0-0.1-0.1-0.1-0.2-0.2
	c-0.1-0.1-0.3,0-0.4-0.1c-0.1-0.1-0.1,0.1-0.2,0.1c-0.1,0-0.2,0-0.2,0.1c-0.1,0.1-0.1,0.3-0.2,0.4c-0.1,0.1-0.1,0.1-0.2,0.2
	c-0.2,0.1-0.5,0.1-0.7,0.2c-0.1,0-0.2,0.2-0.4,0.2c-0.2,0.1-0.5,0.1-0.7,0.1c-0.1,0-0.2-0.1-0.2,0c-0.1,0.2-0.3,0.5-0.4,0.7
	c0-0.2,0-0.3,0-0.5c-0.2,0-0.4,0-0.7,0c-0.1,0-0.3-0.1-0.4-0.1c-0.1,0.1-0.3,0.2-0.4,0.3c-0.2,0.2-0.4,0.4-0.5,0.6
	c-0.2,0-0.4,0-0.6,0C89.5,36,89.3,36,89,35.9c-0.2,0.2-0.5,0.4-0.7,0.5c-0.1,0.1-0.2,0.2-0.3,0.2c-0.2,0-0.3,0.1-0.5,0
	c-0.2,0-0.4-0.1-0.6-0.2c-0.1-0.1-0.2-0.1-0.3-0.2c-0.2-0.2-0.5-0.5-0.6-0.8c-0.1-0.1-0.2-0.3-0.4-0.3c-0.1,0-0.2-0.2-0.1,0
	c-0.1,0-0.1-0.1-0.3-0.1c-0.2,0-0.4,0.1-0.5,0.1c0-0.1,0-0.2,0.1-0.2c0.1-0.1,0.1-0.2,0.2-0.2c0.2-0.1,0.4-0.3,0.6-0.4
	c0.1,0,0.1-0.1,0.1-0.2c0-0.1-0.1-0.2-0.1-0.3c-0.2-0.2-0.3-0.4-0.4-0.6c-0.1,0-0.2,0-0.3-0.1c-0.1-0.1-0.2-0.3-0.3-0.4
	c-0.2-0.1-0.3-0.2-0.4-0.4c-0.1-0.2-0.4-0.3-0.6-0.5c-0.1-0.1-0.3-0.1-0.4-0.3c-0.2-0.2-0.4-0.5-0.6-0.8c-0.1-0.1-0.3-0.2-0.4-0.2
	c-0.1,0-0.2-0.1-0.4-0.1c0-0.1,0-0.2-0.1-0.2c-0.1-0.1-0.2-0.1-0.3-0.1c-0.1,0-0.2,0-0.3,0c-0.1,0-0.1-0.1-0.2-0.2
	c-0.1-0.2-0.2-0.3-0.3-0.5c0,0.1-0.1,0.2-0.1,0.3c0,0.1,0,0.2,0,0.3c-0.1-0.2-0.3-0.4-0.5-0.6c-0.1-0.2-0.2-0.3-0.3-0.5
	c-0.1-0.4-0.2-0.8-0.3-1.2c-0.1-0.2-0.2-0.4-0.2-0.6c-0.1-0.2-0.1-0.4-0.2-0.6c-0.1-0.2-0.3-0.4-0.4-0.6c0-0.1-0.1-0.1-0.2-0.1
	c-0.1-0.1-0.1-0.2-0.1-0.2c-0.1,0.1-0.1-0.1-0.2-0.1c-0.1,0.1-0.1,0-0.2-0.1c0-0.1-0.1-0.2-0.2-0.2c-0.1-0.1-0.2-0.1-0.4-0.1
	c-0.1-0.1-0.3-0.1-0.4-0.2c-0.1-0.1-0.2-0.2-0.2-0.3c-0.1-0.3-0.2-0.6-0.3-1c-0.1-0.4-0.1-0.8-0.2-1.3c0-0.2-0.1-0.5-0.1-0.7
	c0.1,0,0-0.1,0-0.1c-0.1-0.1-0.3-0.3-0.4-0.4c-0.1-0.2-0.1-0.3-0.1-0.5c0-0.1,0-0.2-0.1-0.3c-0.1-0.1-0.2-0.2-0.3-0.3
	c-0.1-0.1-0.2-0.1-0.3-0.2c-0.1-0.1-0.2-0.2-0.3-0.3c-0.1-0.1-0.3-0.1-0.5-0.2c-0.1-0.1-0.2-0.3-0.3-0.4c0-0.1-0.1-0.3-0.2-0.4
	c0-0.1,0-0.3-0.1-0.4c0-0.1-0.1-0.2,0-0.2c0-0.1,0.1,0,0.2,0c0.1,0,0.2,0.1,0.1,0c-0.1-0.1-0.2-0.1-0.3-0.2
	c-0.2-0.2-0.5-0.4-0.7-0.7c-0.1-0.2-0.2-0.4-0.4-0.5c-0.2-0.2-0.3-0.5-0.4-0.7c-0.1-0.1-0.2-0.3-0.3-0.4c-0.2-0.2-0.2-0.4-0.4-0.6
	c-0.1-0.2-0.2-0.3-0.3-0.5c-0.1-0.3-0.2-0.6-0.3-0.9c-0.2-0.1-0.3-0.3-0.4-0.4c-0.1-0.2-0.1-0.4-0.1-0.5c0-0.1-0.1-0.1-0.2-0.1
	c-0.2-0.2-0.4-0.4-0.6-0.6c-0.2-0.2-0.3-0.5-0.5-0.7c-0.1-0.3-0.3-0.5-0.4-0.8c0-0.1,0-0.3,0-0.4c0-0.1,0-0.2-0.1-0.4
	c-0.1-0.1-0.1-0.1-0.2-0.2c0-0.1,0-0.2,0-0.3c0-0.2-0.1-0.4-0.1-0.6c0-0.1,0-0.2-0.1-0.3c0-0.1-0.1,0-0.2-0.1
	c-0.1,0-0.2-0.1-0.2-0.2c-0.3,0-0.5,0-0.8,0c-0.1,0-0.2,0-0.3,0c0.1,0.1-0.1,0.1-0.1,0.2c-0.1,0.1-0.2,0.1-0.4,0.1
	c0,0-0.2,0.1-0.2,0c0-0.1,0.2-0.1,0.3-0.2c0.1,0,0-0.1-0.1,0c-0.1,0.1-0.3,0.1-0.4,0.1c-0.1,0.1-0.2,0.2-0.3,0.2
	c-0.2,0.1-0.4,0.2-0.5,0.4c-0.2,0.1-0.3,0.2-0.5,0.2c-0.1,0-0.2,0.1-0.3,0c-0.2-0.1-0.5-0.2-0.8-0.2c-0.1,0-0.3,0-0.4,0
	c-0.1-0.1-0.2-0.1-0.3-0.1c-0.1,0-0.3,0-0.4-0.1c-0.1-0.1-0.3-0.2-0.4-0.2c-0.2-0.1-0.4-0.1-0.6-0.1c-0.2,0-0.4,0-0.7-0.1
	c-0.2,0-0.3-0.1-0.5,0c-0.2,0-0.4,0.1-0.6,0.1c-0.1,0-0.2,0-0.2-0.1c-0.1-0.1-0.1-0.2-0.2-0.3c-0.1-0.1-0.2-0.1-0.3-0.1
	c-0.2,0-0.4,0-0.6,0c-0.2,0-0.4-0.2-0.6-0.2c-0.2,0-0.3-0.1-0.5-0.1c-0.1,0.1-0.3-0.1-0.4-0.1c-0.1,0-0.1-0.2-0.1-0.2
	c0.1,0,0-0.1,0-0.2c0-0.1-0.1-0.1-0.2-0.1c-0.1,0-0.2,0-0.3-0.1c-0.2-0.1-0.5-0.1-0.7-0.2c-0.2,0-0.5,0-0.7,0
	c-0.1,0.1-0.3,0.1-0.4,0.1c-0.1,0-0.2,0-0.3,0.1c-0.2,0.1-0.4,0.3-0.6,0.4c-0.2,0.1-0.3,0.3-0.5,0.5c-0.1,0.2-0.1,0.4,0,0.6
	c0.1,0.1,0.2,0.2,0.1,0.3c0,0.1,0.1,0.3,0.1,0.4c0,0.1,0,0.2-0.1,0.2c-0.1,0.1-0.1,0.3-0.2,0.4c-0.1,0.1-0.2,0.2-0.4,0.3
	c-0.1,0.1-0.3,0.1-0.5,0.2c-0.1,0-0.2,0-0.3,0c-0.2-0.1-0.3-0.1-0.5-0.2c-0.2-0.1-0.3-0.2-0.4-0.4c-0.1-0.1-0.2-0.1-0.4-0.1
	c-0.2-0.1-0.4-0.2-0.6-0.3c-0.3-0.1-0.6-0.2-0.9-0.2c-0.2,0-0.5,0-0.7,0c-0.2-0.1-0.3-0.1-0.5-0.2c-0.2-0.2-0.3-0.3-0.5-0.5
	c0-0.1-0.1-0.1-0.1-0.2c0-0.2,0-0.3-0.1-0.4c-0.1-0.1-0.2-0.1-0.3-0.2c-0.2-0.1-0.4-0.1-0.6-0.2c-0.2-0.1-0.4-0.2-0.5-0.2
	c-0.2-0.1-0.4-0.1-0.6-0.1c-0.2,0-0.3-0.1-0.5-0.1c-0.1,0-0.3,0-0.4,0c-0.1,0-0.3,0.1-0.4,0.1c-0.2,0-0.3,0-0.5-0.1
	c-0.2-0.1-0.5-0.2-0.7-0.3c-0.1-0.1-0.3-0.1-0.4-0.2c-0.1,0-0.2,0-0.2,0c-0.1-0.1-0.1-0.1-0.1-0.2c0-0.1-0.1-0.2-0.1-0.3
	c-0.1,0-0.2,0.1-0.3,0.1c-0.1-0.1-0.1-0.1-0.2-0.2c-0.2,0.1-0.4,0-0.5-0.1c-0.1,0-0.2-0.1-0.2-0.2c0-0.1-0.1-0.2,0-0.3
	c0-0.1,0.1,0,0.2,0c0.1,0.1,0.1-0.1,0.1-0.1c0-0.1,0-0.2,0.1-0.2c0.1,0,0.2-0.1,0.3-0.2c0.2-0.1,0.4-0.2,0.5-0.4
	C41.9,3.4,42,3.2,42,3c0-0.1,0.1-0.1,0.1-0.2c-0.1-0.1-0.1-0.3-0.1-0.4c-0.1-0.1-0.2-0.1-0.2-0.2C41.8,2,41.7,2,41.6,2
	c-0.1,0-0.1-0.1-0.1-0.2c0-0.1-0.1-0.3,0-0.4c0-0.1,0-0.2,0.1-0.2c0.1-0.1,0.2-0.1,0.4-0.2c0.1-0.2,0.2-0.3,0.3-0.4
	c0-0.1-0.1-0.2-0.1-0.2c-0.1,0-0.2,0-0.2,0.1c-0.1,0.1-0.2,0.2-0.3,0.2c-0.1,0-0.1,0.1-0.2,0.1c-0.1,0-0.2,0-0.1-0.1
	c0-0.1,0-0.2,0-0.2c0-0.1-0.1-0.2-0.1-0.2C40.9,0.1,40.7,0,40.6,0L40.6,0z M70.6,7.5c-0.1,0.1-0.2,0.2-0.3,0.3
	C70.2,7.9,70,7.9,69.9,8c-0.1,0-0.3,0-0.4,0.1c-0.1,0-0.1,0-0.2,0c0,0-0.1-0.1-0.1-0.1c-0.1,0-0.1,0.1-0.1,0.1c-0.1,0-0.2,0-0.4,0
	c-0.1,0-0.1,0-0.2-0.1c-0.1-0.1-0.1-0.2-0.2-0.2c0,0-0.1,0-0.2,0c0,0,0,0.1,0.1,0.1c0,0.1,0,0.3,0.1,0.4c0,0.2,0,0.3,0.1,0.5
	c0,0.1,0,0.1,0.1,0.2c0.1,0.1,0.2,0.2,0.3,0.4c0,0,0.1,0,0.1,0.1c0.1,0,0.1,0.1,0.1,0.2c0.1,0,0.1,0.1,0.1,0.2
	c0,0.1,0.1,0.2,0.1,0.3c0.1,0.1,0.2,0.2,0.2,0.3c0.1,0.1,0.2,0.2,0.3,0.3c0.1,0.1,0.2,0.2,0.2,0.3c0,0.1,0.1,0.2,0.1,0.4
	c0.1,0.1,0.2,0.2,0.3,0.4c0.2,0.2,0.5,0.5,0.7,0.7c0.1,0,0.2,0,0.3,0.1c0.1-0.1,0.1-0.1,0.2-0.2c0.1,0,0.1-0.1,0.1-0.2
	c0-0.1,0-0.2,0-0.4c0-0.1,0.1-0.2,0.1-0.3c0-0.2,0-0.3,0.1-0.5c0-0.2,0-0.3,0.1-0.5c0-0.1,0-0.1,0-0.2c0-0.1,0.1-0.1,0.1-0.2
	c-0.1-0.1-0.1-0.2-0.1-0.3c-0.1-0.2-0.2-0.4-0.3-0.6c-0.2-0.3-0.3-0.6-0.4-0.9C71,8,70.8,7.9,70.8,7.7C70.8,7.7,70.6,7.5,70.6,7.5
	L70.6,7.5z M93.2,69.7c0,0-0.1,0.1-0.2,0.1c-0.1,0.1-0.1,0.1-0.2,0.2c-0.1,0-0.1,0.2-0.2,0.1c0,0,0,0,0,0c0,0.1,0.1,0.1,0.1,0.2
	c0,0.2,0,0.3-0.1,0.5c0,0.1-0.1,0.2-0.1,0.3c0,0.1,0,0.2-0.1,0.2c-0.1,0-0.1,0.1-0.2,0.1c-0.1,0-0.1-0.1-0.2-0.1
	c0,0.1,0,0.2-0.1,0.3c-0.1,0.2-0.2,0.3-0.4,0.5c0-0.1,0-0.2-0.1-0.3c-0.1,0-0.2-0.1-0.3-0.1c-0.1,0.1-0.1,0.1-0.1,0.2
	c0,0.1,0,0.2,0.1,0.4c0,0.1,0,0.2,0,0.3c0,0-0.1-0.1-0.1-0.1c0,0-0.1,0.1-0.1,0.1c-0.1,0.1-0.1,0.2-0.2,0.3c0,0.1,0.1,0.1,0.1,0.2
	c0,0,0.1,0,0.2,0.1c0.1,0,0.1,0.1,0.1,0.1c-0.1,0-0.2,0-0.3,0c-0.1,0.2-0.3,0.3-0.4,0.5c0,0,0-0.1,0-0.2c0-0.1,0-0.2,0-0.3
	c0-0.1,0,0-0.1,0c0,0.1-0.1,0.1-0.1,0.2c0.1,0.1-0.1,0.1-0.1,0.2c-0.1,0.1-0.2,0.2-0.3,0.3c0.1,0.1,0.1,0.3,0.1,0.4
	c0.1,0.1,0,0.1-0.1,0.2c-0.1,0.1-0.2,0-0.2,0c0-0.1,0-0.2,0-0.3c0-0.1-0.1-0.1-0.2-0.1c-0.1,0.1-0.2,0.1-0.3,0.2
	c-0.1,0.1-0.2,0.2-0.2,0.2c-0.1,0.1-0.1,0.2-0.1,0.2c0,0.1,0.1,0.1,0.1,0.2c0,0.1,0.1,0.1,0.1,0.2c0,0.1,0.1,0.2-0.1,0.2
	c-0.1,0-0.2,0-0.3,0c0-0.1-0.1-0.1-0.2-0.2c0-0.1,0-0.2-0.1-0.2c-0.1-0.1-0.2,0-0.2,0.1c-0.1,0.1-0.1,0-0.2-0.1
	c-0.1,0-0.2,0-0.2,0.1c0,0.1,0,0.2-0.1,0.2c0,0.1-0.1,0.1-0.2,0c-0.1-0.1-0.1,0.1-0.2,0.1c-0.1,0-0.1-0.1-0.1-0.2
	c-0.1,0-0.1,0.1-0.2,0.1c-0.1,0-0.1,0.1-0.2,0.2c-0.1,0-0.1,0-0.2,0c-0.1,0-0.2,0-0.2,0c-0.1-0.1-0.2,0-0.2,0.1
	c-0.1,0.1,0,0.1-0.1,0.2c0,0.1,0,0.2,0,0.2c-0.1,0.2-0.2,0.4-0.3,0.7c-0.1,0.2-0.2,0.3-0.3,0.5c0,0.1-0.2,0.2-0.1,0.2
	c0.1,0.1,0.1,0.2,0.2,0.4c0,0.2,0,0.4-0.1,0.5c0,0.2,0,0.3,0,0.5c0,0.3,0,0.5,0.1,0.8c0,0.1,0.1,0.2,0.1,0.3c0,0.1,0.1,0.2,0.1,0.3
	c0,0.1,0,0.2-0.1,0.2c0,0.1,0,0.2,0,0.3c-0.1,0.1-0.1,0.2-0.2,0.3c-0.1,0.1-0.1,0.1-0.2,0.2c-0.1,0.1-0.2,0.2-0.2,0.3
	c-0.1,0.2-0.2,0.4-0.4,0.5c-0.1,0.2-0.2,0.4-0.3,0.6c-0.1,0.1-0.2,0-0.2,0.1c-0.1,0.1-0.2,0.3-0.3,0.4c0,0.1-0.1,0.2-0.1,0.2
	c0,0.1-0.1,0.1-0.1,0.2c0,0.2-0.1,0.4-0.1,0.5c0,0.2,0,0.4-0.1,0.6c0,0.1,0,0.2,0.1,0.3c0,0.1,0.1,0.2,0.1,0.2C84,85,84,85,84,85.1
	c0.1,0.2,0.1,0.4,0.1,0.6c0,0.1-0.1,0.2-0.1,0.3c0,0.1-0.1,0.3-0.1,0.4c0,0.1,0,0.3,0,0.4c0,0.1,0,0.2,0.1,0.4
	c0.1,0.1,0.1,0.3,0.2,0.4c0,0.1,0,0.1,0.1,0.2c0.1,0.1,0.2,0.2,0.3,0.3c0.2,0.1,0.3,0.2,0.5,0.4c0.1,0.1,0.3,0.2,0.4,0.4
	c0.1,0,0.2,0,0.3,0c0.1-0.1,0.3-0.1,0.4-0.2c0.1-0.1,0.3-0.1,0.4-0.2c0.2,0,0.4-0.1,0.6-0.1c0.1,0,0.2-0.1,0.3,0
	c0.1,0.1,0.2,0,0.3,0c0.1,0,0.2-0.1,0.3-0.2c0.1,0,0.1-0.1,0.2-0.2c0.1-0.2,0.2-0.3,0.3-0.5c0.1-0.2,0.2-0.4,0.4-0.6
	c0.1-0.2,0.1-0.3,0.2-0.5c0.1-0.2,0.1-0.3,0.2-0.5c0.1-0.2,0.2-0.4,0.2-0.5c0.1-0.4,0.3-0.7,0.5-1.1c0.1-0.2,0.2-0.4,0.3-0.6
	c0.1-0.3,0.2-0.5,0.3-0.8c0.1-0.2,0.2-0.5,0.3-0.8c0.1-0.2,0.2-0.4,0.3-0.5c0.1-0.2,0.2-0.4,0.3-0.6c0.1-0.2,0.2-0.4,0.2-0.6
	c0-0.1,0.1-0.2,0.2-0.3c0-0.1,0-0.2,0.1-0.2c0.1-0.2,0.2-0.4,0.3-0.7c0.1-0.3,0.2-0.6,0.3-0.9c0.1-0.2,0.1-0.4,0.1-0.6
	c0-0.2,0.1-0.4,0.1-0.7c0.1-0.1,0.1-0.2,0.2-0.3c0.1-0.1,0.1-0.2,0.2-0.3c0.1-0.1,0.1-0.2,0.1-0.3c0-0.1,0-0.3,0.1-0.4
	c0-0.1-0.1-0.2-0.1-0.3c0-0.1,0-0.3,0-0.4c0-0.2,0.1-0.4,0.2-0.6c0-0.1,0.1,0,0.2,0c0,0,0,0.1,0,0.2c0,0.2,0.1,0.3,0.1,0.5
	c0,0.1,0.1,0,0.2,0c0-0.1,0.1-0.2,0.1-0.3c0-0.1,0.1-0.3,0.1-0.4c0-0.1,0-0.3,0-0.4c0-0.1-0.1-0.3-0.1-0.4c0-0.2,0-0.4,0-0.6
	c0-0.2,0-0.4,0-0.5c0-0.2,0-0.4,0-0.5c0-0.2-0.1-0.3-0.1-0.5c0-0.2,0-0.4,0-0.5c0-0.1-0.1-0.2-0.1-0.3c0-0.1-0.1-0.1-0.2-0.2
	c-0.1-0.1-0.2-0.3-0.3-0.5C93.4,69.8,93.3,69.8,93.2,69.7C93.2,69.7,93.2,69.7,93.2,69.7L93.2,69.7z"/>
</svg>
