<?xml version="1.0" encoding="utf-8"?>
<!-- Generator: Adobe Illustrator 24.0.0, SVG Export Plug-In . SVG Version: 6.00 Build 0)  -->
<svg version="1.2" baseProfile="tiny" id="Layer_1" xmlns="http://www.w3.org/2000/svg" xmlns:xlink="http://www.w3.org/1999/xlink"
	 x="0px" y="0px" viewBox="0 0 100 100" xml:space="preserve">
<path d="M40.6,0c-0.2,0-0.3,0-0.5,0.1s-0.4,0.2-0.5,0.3s-0.3,0.1-0.4,0.1c-0.1,0-0.2,0-0.4,0c-0.1,0.1-0.3,0.1-0.4,0.1
	c-0.1-0.1-0.2-0.2-0.3-0.2s-0.2-0.1-0.3-0.1c-0.1,0.1-0.1,0.2-0.2,0.2c-0.1,0-0.2,0.1-0.3,0s-0.2,0-0.2-0.1
	c-0.1-0.1-0.3-0.1-0.4-0.2c-0.1,0.1-0.1,0.2-0.2,0.2c-0.2,0.1-0.3,0.1-0.5,0.1s-0.3,0.1-0.4,0.1c-0.1,0-0.2,0-0.3-0.1
	s-0.1-0.1-0.2-0.2c-0.2,0-0.3,0-0.5-0.1c-0.2,0-0.4,0-0.7,0c-0.1,0-0.3,0.1-0.4,0.1c-0.1,0-0.2,0-0.3,0s-0.3,0-0.4,0
	c-0.1,0-0.1,0.1-0.2,0.1c-0.1,0.1-0.2,0.1-0.3,0.1c-0.3,0-0.6,0-0.8,0c-0.2,0-0.4,0-0.6,0c-0.3,0.1-0.6,0.1-0.8,0.2
	c-0.1,0.1-0.2,0.2-0.4,0.2c-0.2,0-0.3,0.2-0.5,0.3c0,0.1-0.1,0.1-0.2,0.1s-0.2,0.1-0.2,0c-0.1-0.1-0.2-0.1-0.2,0
	c-0.1,0-0.1,0.1-0.2,0.1s-0.2,0-0.3,0c-0.1,0.1-0.3,0.1-0.3,0.2c-0.1,0.1-0.2,0.3-0.4,0.4c-0.2,0.1-0.4,0.2-0.6,0.2
	c-0.2,0.1-0.4-0.1-0.7-0.1c-0.1,0-0.2,0-0.3,0c-0.1,0-0.2-0.2-0.3-0.2c-0.1-0.1-0.2,0-0.3,0c-0.2,0-0.4,0-0.5,0s-0.2,0-0.3,0
	C24.2,1.9,24,2,23.8,2c-0.1,0-0.2,0-0.3-0.1C23.2,2.1,23,2,22.9,1.8c-0.1-0.1-0.2-0.2-0.2-0.4c0-0.1,0-0.2-0.1-0.2
	c-0.2,0-0.3,0.1-0.5,0.1c-0.1,0-0.1,0.1-0.2,0.2c-0.2,0.3-0.4,0.7-0.6,1C21.2,2.7,21.1,2.8,21,3c-0.1,0.1-0.3,0.3-0.4,0.4
	c-0.1,0.1-0.1,0.2-0.2,0.3C20.3,3.9,20,4,19.8,4.1S19.3,4.3,19,4.4c-0.2,0.1-0.4,0.1-0.7,0.2c-0.1,0.1-0.3,0.2-0.4,0.3
	c-0.2,0.2-0.4,0.4-0.7,0.6c-0.1,0.1,0,0.2-0.1,0.3c0,0.1-0.1,0.2-0.2,0.3c0,0.1-0.1,0.1-0.1,0.2c0.1,0-0.1,0-0.1,0.1
	c-0.1,0-0.2,0-0.2,0.1c-0.2,0.2-0.4,0.4-0.5,0.6s-0.1,0.5-0.2,0.8C16,8,15.9,8,15.9,8.1C16,8.3,16.1,8.4,16,8.6c0,0.2,0,0.3-0.1,0.5
	s-0.3,0.3-0.4,0.4c-0.1,0.1-0.2,0.2-0.3,0.4c-0.1,0.1-0.2,0.3-0.4,0.3c-0.1,0.2-0.3,0.2-0.4,0.3c-0.2,0.1-0.4,0.1-0.6,0.2
	c-0.2,0.1-0.3,0.3-0.5,0.4c-0.1,0.1-0.3,0.2-0.4,0.2c-0.2,0-0.4,0.1-0.6,0.2c-0.2,0-0.4,0.1-0.6,0.1c-0.1,0-0.2,0-0.3,0
	c-0.1,0.1-0.1,0.3-0.2,0.3c-0.1,0.1-0.2,0.3-0.3,0.4c-0.1,0.2-0.3,0.4-0.4,0.6c0,0.1-0.1,0.2-0.2,0.2c-0.2,0.1-0.4,0.2-0.6,0.3
	c-0.1,0.1-0.3,0.1-0.4,0.2C9.2,13.7,9,13.9,8.9,14c-0.1,0.3-0.2,0.5-0.4,0.7c-0.1,0.1-0.2,0.3-0.2,0.5c0,0.1-0.1,0.2-0.2,0.3
	c0.1,0.3,0,0.5-0.1,0.6c-0.3,0.3-0.6,0.5-0.8,0.8C7,17,7,17.2,6.9,17.3c-0.2,0.3-0.4,0.5-0.7,0.8c0,0.1,0.1,0.2,0,0.3
	c-0.1,0.1-0.2,0.3-0.3,0.5c-0.1,0.1-0.2,0.3-0.3,0.4c-0.1,0-0.2,0.1-0.3,0.1C5.2,19.6,5.1,19.8,5,20c-0.1,0.3-0.2,0.6-0.3,1
	c0,0.1-0.1,0.2,0,0.1c0.1,0,0.2-0.2,0.2,0s0.2,0.3,0.2,0.5c0,0.1,0,0.2,0.1,0.2s0.1-0.2,0.2,0s0.2,0.3,0.2,0.5s-0.1,0.3-0.1,0.4
	c0,0.2-0.1,0.3-0.1,0.5c-0.1,0.1-0.1,0.2-0.2,0.3c-0.1-0.1-0.1,0.1,0,0.1c0.1,0.2,0.2,0.4,0.3,0.5c0,0.1,0.1,0.2,0.1,0.3
	c0,0.3,0,0.6-0.1,0.8c0,0.3-0.1,0.5-0.2,0.8S5,26.6,4.9,26.9c-0.1,0.1-0.1,0.3-0.2,0.4c-0.1,0.2-0.1,0.4-0.1,0.6s0,0.5-0.1,0.7
	S4.3,29,4.1,29.2c-0.1,0.2-0.2,0.4-0.4,0.5c-0.1,0.1-0.2,0.3-0.4,0.4c0,0.1-0.1,0.2-0.1,0.2c0.1,0.1,0.2,0.3,0.3,0.4
	c0.1,0.2,0.2,0.4,0.2,0.7c0.1,0.1,0.1,0.2,0.2,0.3C3.9,31.8,4,32,4,32.1c0,0.1,0,0.2,0.1,0.2c0.1,0,0.1-0.1,0.2-0.1
	c0,0,0.1-0.1,0.1,0s0.1,0,0.2,0s0.2,0,0.3,0c0.1,0,0.1-0.1,0.2,0c0.1,0,0.1-0.1,0.1,0s0.1,0,0.1,0s0.2,0.1,0.2,0c0,0,0,0.1-0.1,0.1
	s-0.1-0.1-0.2-0.1c0,0-0.1-0.1-0.1,0c0,0-0.1,0.1-0.1,0c-0.1,0-0.1,0.1-0.2,0H4.7c-0.1,0-0.2,0-0.3,0c-0.1,0-0.1,0-0.1,0v0.1
	c0,0.1,0.1,0,0.1,0H4.3c0-0.1-0.1,0-0.2,0s-0.2,0-0.2-0.1c-0.1,0-0.1-0.1-0.1-0.2c-0.1,0-0.1,0.1-0.1,0.2c-0.1,0.1,0,0.2,0,0.3
	c-0.1,0.3-0.1,0.5-0.1,0.8c0,0.1-0.1,0.2,0,0.3c0,0.1,0.1,0.2,0.2,0.2C3.8,33.9,3.9,34,4,34c0,0.1,0,0.2,0.1,0.3
	c0,0.1,0.2,0.1,0.2,0.1c0.1,0,0.2-0.1,0.2,0.1c0,0.1,0,0.2,0.1,0.2c0.2,0,0.4-0.2,0.6-0.2c0.2-0.1,0.4,0,0.6-0.1
	c0.1,0,0.1,0,0.1,0.1c-0.2,0-0.4,0-0.6,0.1c0,0.1-0.2,0.1-0.2,0.2c0,0.1,0.1,0.2,0.1,0.3s-0.1,0.2-0.1,0.3s0.1,0.2,0.1,0.2
	c0.1,0.1,0.2,0,0.3,0c-0.1,0.1-0.1,0.2-0.1,0.3s0.1,0.1,0.1,0.2c0.1,0,0.2,0,0.2-0.1c0.1-0.1,0.1-0.2,0.2-0.2c0,0.1,0,0.2,0,0.3
	s0.1,0.1,0.2,0.1s0,0.1,0.1,0.2c0,0.2,0.1,0.4,0.1,0.5s0.2,0.1,0.2,0.2c0.1,0.1,0.2,0.2,0.4,0.2c0.1,0.1,0.2,0.2,0.3,0.4
	c0.1,0.1,0.2,0.1,0.1,0.2c0,0.1,0.2,0.2,0.2,0.3c0.1,0.1,0.2,0.2,0.2,0.3s0.1,0.2,0,0.3C7.9,38.9,8,39,7.9,39.1c0,0.1,0,0.2,0,0.3
	c0,0,0.2,0.1,0.1,0.2c0,0-0.1,0.1,0,0.3C8,40,8.1,40,8.1,40c0.1,0,0.1,0.1,0.2,0.1c0,0.1,0,0.2,0,0.3c0.1,0.1,0.3,0.2,0.4,0.3
	c0.1,0.1,0.2,0.1,0.2,0.3c0,0.1,0,0.2,0.1,0.2c0.3,0.2,0.6,0.3,1,0.5c0.2,0.1,0.3,0.2,0.4,0.3c0.1,0,0.1,0.1,0,0.1
	c0,0.1,0.1,0.1,0.1,0.2c0.1,0.1,0.1,0.1,0.2,0.1c0.1,0,0.2,0,0.3,0.1s0.2,0.3,0.4,0.3c0.2,0.1,0.3,0.1,0.5,0.3c0.4,0.3,0.7,0.7,1,1
	c0.2,0.2,0.3,0.3,0.5,0.5s0.4,0.3,0.6,0.4c0.4,0.1,0.9,0.3,1.3,0.5c0.1-0.1,0.3,0,0.4-0.1c0.2-0.1,0.4-0.2,0.6-0.3
	c0.3-0.1,0.6-0.3,1-0.4c0.2-0.1,0.3-0.2,0.5-0.2s0.3-0.1,0.5-0.1c0.4-0.1,0.7-0.1,1.1-0.2c0.3,0,0.6-0.1,0.9-0.1
	c0.2,0,0.3,0.1,0.5,0.1c0.3,0,0.5,0.1,0.8,0.2c0.2,0,0.4,0,0.6,0.1c0.3,0.1,0.6,0.2,0.8,0.3c0.2-0.1,0.5-0.2,0.7-0.4
	c0.1-0.1,0.2-0.1,0.3-0.1c0.3-0.1,0.5-0.1,0.8-0.2c0.4-0.2,0.8-0.5,1.2-0.7c0.2-0.1,0.4-0.1,0.6-0.1c0.1,0,0,0,0-0.1s0-0.1,0-0.2
	c0-0.1-0.1-0.1-0.1-0.1c0-0.1-0.1-0.1-0.1-0.1c-0.1,0-0.1,0.1-0.1,0.1c-0.1,0-0.1-0.1-0.2-0.1c0.1-0.1,0.1,0,0.1,0.1h0.1
	c0.1,0,0.1,0,0.2,0.1c0.1,0,0.2,0.1,0.2,0.3l0.1,0.1c0,0,0.1,0,0.2,0c0.1,0.1,0.2,0,0.2,0c0.1,0,0.1-0.1,0.2-0.2
	c0.1-0.1,0.1-0.2,0.2-0.2c0.2-0.1,0.3-0.1,0.5-0.2c0.3-0.1,0.6-0.2,0.9-0.2s0.6-0.1,0.8-0.1c0.2,0,0.3,0,0.5,0c0.4,0,0.7-0.1,1.1,0
	c0.2,0,0.5,0,0.7,0.1c0.1,0,0.3,0.2,0.4,0.2c0.1,0.1,0.2,0.1,0.2,0.2c0.1,0.1,0.1,0.2,0.2,0.3c0.1,0,0.1,0.1,0.2,0.2
	c0,0.1,0.1,0.1,0.1,0.2c0,0.1,0,0.2,0.1,0.2c0,0,0.2,0,0.2,0.1c-0.1,0-0.1,0.1-0.1,0.2c0,0.2,0.1,0.4,0.1,0.7
	c0.2,0.1,0.3,0.3,0.4,0.5c0,0.1,0.2,0.1,0.2,0.1c0.1,0.1,0.2,0,0.4,0c0,0.1,0,0.2,0.1,0.2c0.1-0.1,0.3-0.1,0.4-0.2
	c0.1,0.1,0.1-0.1,0.2,0c0.1,0.1,0.1,0,0.2,0c0.1,0,0.1-0.1,0.2-0.2c0.1,0,0.1-0.1,0.2-0.2c0.2,0.1,0.4,0.2,0.6,0.2
	c0.3,0,0.6,0,0.9,0c0-0.2,0-0.3,0.1-0.5c0-0.1,0.1,0,0.2,0c0,0.1,0.1,0.1,0.1,0.2c0,0.1,0,0.2,0.1,0.2c0.1,0.1,0.2,0,0.2,0
	c0.1,0,0.2,0,0.2,0.1c0.1,0.2,0.1,0.4,0.2,0.6c0.2,0.1,0.3,0.2,0.5,0.2c0.1,0,0.1-0.1,0.2-0.1c0.1,0,0.2,0,0.2,0c0,0.1,0,0.2,0,0.3
	c-0.1,0-0.1,0.1,0,0.2c0.1,0.1,0.1,0.2,0.2,0.3c0.1,0.1,0.1,0.2,0.2,0.3c-0.1,0.1,0,0.2-0.1,0.3c-0.1,0.3-0.2,0.6-0.2,1
	c-0.1,0.2-0.1,0.3-0.1,0.5c-0.1,0.2-0.2,0.3-0.2,0.5s-0.2,0.4-0.3,0.6c0.1,0.1,0.2,0.1,0.4,0.2c0.1,0.1-0.1,0.2-0.1,0.2
	c0,0.1,0,0.3,0,0.4c0,0.1-0.1,0.1-0.2,0.1c-0.1,0-0.1,0.1-0.1,0.2c0.1,0.2,0.3,0.3,0.4,0.4c0.1,0,0.2,0,0.3,0.1
	c0,0.1-0.1,0.1-0.2,0.1c-0.1,0-0.3,0-0.4-0.1c-0.1-0.1-0.1-0.1-0.2-0.1v0.2c0,0.2,0,0.5-0.1,0.7c-0.1,0.1-0.2,0.2-0.3,0.3
	c0,0.1-0.2,0.1-0.3,0.1s0,0.1,0,0.2c0.1,0.2,0.2,0.4,0.3,0.6c0.1,0.3,0.2,0.6,0.3,0.9c0.2,0.2,0.4,0.4,0.6,0.7
	c0.1,0.1,0.2,0.3,0.3,0.5c0.3,0.2,0.5,0.4,0.8,0.7c0.2,0.2,0.4,0.5,0.6,0.6c0.1,0.1,0.1,0.3,0.3,0.4c0.1,0.1,0.2,0.1,0.3,0.2
	c0.1,0.2,0.2,0.3,0.4,0.5c0.1,0.1,0.2,0.2,0.3,0.4s0.2,0.4,0.2,0.6c0.1,0.1,0.2,0.1,0.1,0.2c0,0.2,0.1,0.3,0,0.5
	c0,0.1,0,0.2,0.1,0.3s0.2,0.2,0.3,0.3l0.1,0.1c0-0.1,0.1-0.1,0.1,0s-0.1,0.1,0,0.1s0.1,0,0.1-0.1c0.1-0.1,0.2,0,0.2,0s0-0.1,0.1-0.1
	c0,0,0.1,0,0.1-0.1c0.1,0,0.1,0,0.1,0c0.1,0,0.1,0.1,0.2,0c0,0,0.1,0,0.2,0c0.1,0,0,0.1-0.1,0.1c0,0-0.1-0.1-0.1,0
	c0,0-0.1,0-0.1,0.1s-0.1,0.1-0.2,0.1h-0.1c-0.1-0.1-0.1,0.1-0.2,0h-0.1c-0.1,0.1-0.1,0-0.2,0c0,0-0.1,0-0.1,0.1s0,0.2,0,0.2
	c0.1,0.2,0.2,0.3,0.3,0.5s0.3,0.3,0.4,0.5c0.1,0.2,0.1,0.5,0.2,0.7c0.1,0.3,0.1,0.5,0.3,0.8c0,0.1,0.2,0.2,0.2,0.3
	c0.1,0.2,0.1,0.4,0.1,0.6c0,0.1-0.1,0.2-0.2,0.2c-0.1,0.1-0.1,0.1-0.1,0.2c0,0.2,0.1,0.4,0.1,0.6s0.1,0.5,0.2,0.7
	c0.1,0.1,0.2,0.2,0.2,0.4c0,0.1,0.1,0.2,0.1,0.2c0.1,0.1,0.2,0.1,0.2,0.2c0,0.2,0.1,0.3,0.1,0.5c0,0.1-0.1,0.1-0.1,0.2
	c0,0.2,0.1,0.4,0,0.5c0,0.2,0,0.3,0,0.5s-0.1,0.4-0.1,0.6c-0.1,0.3-0.3,0.5-0.5,0.7C44.1,69.9,44,70,43.8,70c0,0.1,0,0.2-0.1,0.3
	c-0.1,0.1-0.2,0.2-0.4,0.3c-0.1,0.2-0.2,0.3-0.2,0.5c0,0.1-0.1,0.1-0.1,0.2s-0.1,0.3-0.1,0.4c-0.1,0.1-0.1,0.3-0.1,0.4
	c-0.1,0.2-0.1,0.4-0.1,0.6c-0.1,0.2,0,0.4-0.1,0.5c-0.1,0.2-0.1,0.5-0.2,0.7c0,0.1-0.2,0.2-0.2,0.3c0,0.3,0,0.7,0,1
	c0,0.1,0,0.2,0,0.1s-0.2-0.2-0.1-0.1c0,0.3,0.1,0.5,0.1,0.8c0,0.2,0,0.3,0,0.5s0,0.4,0.1,0.5c0,0.1,0,0.2,0.1,0.3
	c0.1,0.2,0.2,0.4,0.3,0.5c0,0.1,0.1,0.1,0.2,0.1c0.1,0.1,0.2,0.2,0.2,0.3c0,0.1,0.1,0.2,0.2,0.3c0.1,0.1,0.1,0.2,0.2,0.3
	c0.1,0.1,0.2,0.2,0.2,0.3c0,0.2,0.2,0.3,0.2,0.4c0.1,0.2,0.2,0.3,0.3,0.4s0.2,0.2,0.2,0.4c0,0.1,0.1,0.2,0.1,0.3
	c0.1,0.2,0.2,0.4,0.3,0.6s0.2,0.4,0.4,0.6c0,0.1,0.1,0.2,0.1,0.4c0.2,0.2,0.3,0.4,0.5,0.6c0.1,0.2,0.2,0.4,0.2,0.6
	c0.1,0.2,0,0.5,0,0.7c0,0.3,0,0.6,0,0.9c0,0.2,0,0.4,0,0.6c0,0.1,0.1,0.3,0.2,0.4c0.1,0.2,0.2,0.4,0.3,0.6s-0.1,0.4,0,0.6
	c0,0.2,0,0.4,0.1,0.6c0,0.1,0.1,0.2,0.1,0.3c0,0.1-0.1,0.2,0,0.2c0.1,0.1,0.1,0.3,0.2,0.5c0,0.2,0,0.3,0.1,0.5c0,0.2,0,0.4,0.1,0.5
	c0.1,0.2,0.3,0.3,0.4,0.5c0.1,0.2,0.2,0.4,0.3,0.5S48,91,48.1,91c0.1,0.1,0.2,0.3,0.4,0.4c0.1,0,0.2,0,0.2,0.1s0,0.2,0,0.2
	c0.1,0.1,0.2,0.2,0.3,0.4c0.1,0.3,0.2,0.5,0.3,0.7c0.1,0.4,0.2,0.7,0.4,1c0.1,0.2,0.1,0.3,0.3,0.4c0.1,0.1,0.1,0.3,0.2,0.5
	c0.1,0.2,0.2,0.3,0.3,0.5s0.3,0.4,0.4,0.6c0,0.1,0,0.3,0,0.4c0,0.2,0,0.3,0,0.5c-0.1,0.1-0.1,0.2-0.2,0.3c-0.1,0-0.2-0.1-0.3-0.1
	c-0.1,0.1-0.1,0.2-0.1,0.3c0,0.1,0.1,0.1,0.1,0.2c0.1,0,0.1,0.2,0.1,0.2c-0.1,0,0.1,0.1,0.1,0.2s0.1,0.1,0.2,0.2
	c0.1,0.1,0.2,0.3,0.3,0.4c0,0.1,0,0.2,0,0.2C51,98.7,51,98.9,51,99.1l0.1,0.2c0-0.1,0-0.2,0-0.2c0-0.1,0.1-0.2,0.2-0.2
	c0.1,0,0.2,0,0.3,0c0,0.1,0,0.3,0,0.4c0.1,0.1,0.2,0.1,0.2,0c0.1,0,0.2,0,0.3,0c0.1,0.1,0.1,0.1,0.1,0.2s0.1,0.1,0.2,0.1
	c0.1,0.1,0.2,0,0.3,0.1c0.1,0,0.3,0,0.4,0c0.1,0,0.2,0,0.2-0.1c0.1-0.1,0.1-0.1,0.2-0.2c0.1,0,0.3,0,0.4,0c0.1-0.1,0.1-0.1,0.2-0.1
	c0.2,0,0.3,0,0.5,0.1c0.1-0.1,0.1-0.1,0.2-0.1c0.2,0,0.3,0.1,0.5,0c0-0.1,0-0.2,0.1-0.2s0.3-0.1,0.4-0.2c0.2,0,0.5-0.1,0.7,0
	c0.1,0,0.3,0.1,0.4,0.1c0.1,0,0.2,0,0.2-0.1c0.1-0.1,0.1-0.1,0.2-0.1c0.2,0,0.4,0,0.6,0.1c0.2,0.1,0.5,0.1,0.7,0.2
	c0.1,0,0.2,0,0.3,0c0.1-0.1,0.1-0.2,0.2-0.3c0.1,0,0.3,0,0.4,0c0.2,0.1,0.3,0.1,0.5,0.1c0-0.1,0-0.2,0-0.3c-0.1-0.1,0-0.1,0.1-0.2
	c0.2-0.1,0.4-0.1,0.6,0c0.2,0,0.4,0.1,0.6,0c0.5-0.1,0.9-0.4,1.3-0.7c0.2-0.1,0.4-0.3,0.6-0.5c0.2-0.2,0.4-0.2,0.6-0.4
	c0.2-0.2,0.4-0.3,0.5-0.5c0.2-0.2,0.4-0.5,0.6-0.7c0.3-0.2,0.5-0.4,0.8-0.6c0.2-0.2,0.3-0.4,0.5-0.6c0.1-0.1,0.3-0.3,0.3-0.4
	c0.2-0.2,0.3-0.5,0.5-0.7c0.1-0.1,0.2-0.2,0.2-0.4c0-0.1,0.1-0.2,0.2-0.3c0.1-0.2,0.3-0.3,0.4-0.4s0.2-0.1,0.4-0.2
	c0.1-0.1,0.3-0.2,0.4-0.3c0.2-0.1,0.3-0.2,0.4-0.4c0.1-0.2,0.1-0.5,0.2-0.7c0.1-0.1,0.2-0.3,0.2-0.4c0.1-0.1,0-0.3,0.1-0.4
	s0.2-0.3,0.2-0.4s0.1-0.2,0.1-0.3c0,0,0-0.2,0.1-0.2c0-0.2,0.1-0.4,0.1-0.6c0,0.1-0.1,0.2-0.2,0.2s-0.1-0.1-0.1-0.2
	s-0.1-0.1-0.2-0.2c0.1,0,0.1-0.1,0.2-0.1c0.2-0.1,0.2-0.4,0.4-0.5c0.2,0,0.3-0.1,0.4-0.2s0.2-0.2,0.4-0.2c0.3-0.1,0.6-0.2,1-0.3
	c0.2,0,0.3,0,0.4-0.1c0.1,0,0.3-0.1,0.4-0.2s0.3-0.2,0.4-0.3c0.1-0.1,0.3-0.3,0.4-0.4s0.1-0.3,0.2-0.4c0-0.1-0.1,0.1-0.1,0.1
	c-0.1,0.1-0.1,0.2-0.2,0.3c0-0.1,0-0.3,0-0.4c0.1-0.3,0.2-0.6,0.4-0.9c0.1-0.3,0.1-0.6,0.2-0.9c0-0.2,0.1-0.4,0.1-0.6
	c-0.1-0.1-0.1-0.1-0.2,0s-0.1-0.1-0.1-0.2c0-0.2,0-0.4,0-0.6s-0.1-0.5-0.2-0.7c0-0.1,0-0.2,0-0.2c0-0.1,0-0.2-0.1-0.3
	c-0.1-0.1-0.2-0.2-0.3-0.3c0-0.1,0-0.2,0-0.2c0-0.2,0.1-0.5,0.1-0.7c0.1,0,0.2,0,0.3-0.1c0.1-0.1,0.2-0.2,0.3-0.3
	c0.1-0.1,0.3-0.2,0.4-0.3c0.2-0.2,0.4-0.3,0.5-0.5c0.1-0.1,0.2-0.1,0.3-0.2c0.1-0.1,0.1-0.3,0.2-0.4c0,0.1,0,0.2,0.1,0.2
	c0.1,0.1,0.1,0.1,0.2,0c0.2-0.2,0.4-0.4,0.6-0.6c0-0.1-0.2-0.1-0.1-0.2s0.3,0,0.4-0.1s0.1-0.2,0.1-0.3c0.2-0.2,0.5-0.4,0.8-0.5
	c0.4-0.2,0.8-0.3,1.2-0.5c0.1,0,0.3-0.1,0.4-0.1s0.2,0.1,0.3,0c0.1-0.1,0.2-0.1,0.3-0.2c0.1-0.1,0.1-0.2,0.2-0.2
	c0.3-0.1,0.5-0.3,0.8-0.4c0-0.1,0.1-0.1,0.1-0.2s-0.2-0.1,0-0.2c0.1-0.1,0.2-0.1,0.4-0.2c0.1-0.1,0.1-0.3,0.3-0.4
	c0.1-0.1,0.2-0.2,0.3-0.3c0.1,0,0.2-0.1,0.2-0.1c0.1-0.1,0.1-0.3,0.1-0.4c0,0-0.2,0-0.1-0.1s0.2-0.2,0.3-0.3c0-0.1,0.1-0.3,0.2-0.4
	c0-0.1,0.1-0.2,0-0.2c0-0.1-0.2,0-0.1-0.1c0-0.1,0.2-0.1,0.1-0.2c0-0.1-0.1-0.1-0.1,0c-0.1,0-0.1-0.1-0.1-0.2c0.1-0.1,0-0.2,0-0.3
	c0-0.2,0-0.5,0.1-0.7c0-0.1,0-0.3,0-0.4c-0.1,0-0.1-0.1-0.1-0.2s0.1-0.1,0.1-0.2c0.1-0.1,0-0.2,0-0.2c0-0.3-0.1-0.6,0-0.9
	c0-0.2,0-0.4,0-0.5c0-0.2,0.1-0.3,0.2-0.5c0.1-0.1,0.1-0.3,0.2-0.4c0-0.1,0.1-0.2,0-0.2c0-0.1,0-0.2,0-0.3c0.1-0.1,0-0.2,0-0.2
	c-0.1-0.1-0.1-0.2-0.2-0.3c-0.1-0.1-0.2-0.1-0.3-0.1c0-0.1-0.1-0.2-0.1-0.3c-0.1,0-0.2-0.1-0.2-0.2s0-0.2,0-0.3c0-0.1,0-0.2,0-0.3
	c0-0.1-0.1-0.1-0.2-0.2c0-0.1,0.1-0.3,0-0.4s-0.1-0.2-0.2-0.4c-0.1-0.1,0.1-0.1,0.1-0.2s-0.1-0.1-0.1-0.2c-0.1-0.2-0.1-0.3-0.1-0.5
	c0-0.1,0-0.2,0.1-0.2s0.1-0.1,0.1-0.2c0-0.1,0-0.2,0-0.4c0-0.1-0.1-0.2,0-0.3s0-0.3,0.1-0.4c0.1-0.1,0.1-0.2,0.2-0.2
	c0-0.1-0.1-0.3-0.1-0.4c-0.1-0.1-0.2-0.2-0.3-0.3c0-0.1-0.1-0.2-0.2-0.2c-0.1-0.1-0.2-0.1-0.3-0.2c0-0.1-0.1-0.3-0.1-0.4
	c0.1-0.3,0.3-0.6,0.4-1c0.1-0.2,0.2-0.4,0.2-0.6c0-0.1,0.1-0.3,0.1-0.4c0.1-0.1,0.3-0.1,0.4-0.2c0.1-0.2,0.3-0.4,0.3-0.7
	c0.1-0.2,0.2-0.4,0.3-0.5c0.1-0.2,0.3-0.5,0.4-0.7c0-0.2,0-0.3,0.1-0.5c0.1-0.1,0.1-0.2,0.2-0.3c0.2-0.1,0.4-0.2,0.6-0.3
	c0-0.1,0-0.2,0.1-0.3s0.1-0.2,0.2-0.3c0.2,0,0.4,0,0.5-0.1s0.2-0.2,0.3-0.3c0.1-0.1,0.1-0.3,0.2-0.4c0-0.1,0.1-0.1,0.2-0.2
	c0.2-0.4,0.5-0.7,0.8-1c0-0.1,0-0.2,0.1-0.3c0.1,0,0.2,0,0.1-0.1c0-0.2-0.2,0-0.1,0c0,0,0.1-0.2,0.1-0.1c0,0,0.1-0.1,0.2-0.1
	s0.1,0,0.2-0.1c0.2-0.3,0.4-0.6,0.7-0.9c0.2-0.2,0.4-0.4,0.5-0.5s0.3-0.3,0.4-0.4c0.1-0.1,0.2-0.3,0.3-0.3c0.3-0.2,0.5-0.5,0.8-0.6
	c0.1-0.1,0.3-0.1,0.4-0.1c0.3-0.2,0.6-0.4,0.8-0.6c0.2-0.2,0.3-0.3,0.5-0.5c0.1-0.1,0.1-0.2,0.2-0.3s0.2-0.2,0.4-0.3
	c0.2-0.1,0.3-0.3,0.5-0.5c0.1-0.1,0.1-0.3,0.3-0.4c0.2-0.2,0.4-0.4,0.5-0.6c0.1-0.2,0.3-0.4,0.4-0.6c0.1-0.2,0.2-0.5,0.2-0.7
	c0.2-0.2,0.4-0.5,0.6-0.7c0.1-0.1,0.2-0.2,0.3-0.3c0.1-0.2,0.2-0.3,0.2-0.5c0.1-0.2,0.1-0.5,0.1-0.7s0,0.1,0,0
	c0.1-0.3,0.3-0.6,0.4-0.9c0.1-0.3,0.2-0.5,0.3-0.8c0.1-0.2,0-0.3,0.1-0.5c0-0.1,0.1-0.2,0.2-0.3c0.1,0,0.1-0.1,0.1-0.2
	c0-0.1,0.1-0.2,0.2-0.3s0.1-0.2,0.1-0.3s0-0.2,0.1-0.3s0.1-0.1,0.2-0.2c0.1-0.2,0.1-0.3,0.1-0.5s0-0.4,0-0.5c0-0.2,0-0.4,0.1-0.6
	c0-0.1,0.1-0.2,0.1-0.2c0.1-0.1,0.3-0.1,0.4-0.1c-0.1,0-0.1-0.2-0.2-0.1C97,36.5,97,36.3,97,36.2c0-0.2,0-0.4-0.1-0.6
	c-0.1-0.2-0.2-0.3-0.1-0.5c0-0.1,0-0.2,0.1-0.3s0-0.1,0-0.2c0-0.1-0.1-0.1-0.2-0.2c-0.1-0.1-0.3,0-0.4-0.1s-0.1,0.1-0.2,0.1
	s-0.2,0-0.2,0.1c-0.1,0.1-0.1,0.3-0.2,0.4c-0.1,0.1-0.1,0.1-0.2,0.2c-0.2,0.1-0.5,0.1-0.7,0.2c-0.1,0-0.2,0.2-0.4,0.2
	c-0.2,0.1-0.5,0.1-0.7,0.1c-0.1,0-0.2-0.1-0.2,0c-0.1,0.2-0.3,0.5-0.4,0.7c0-0.2,0-0.3,0-0.5c-0.2,0-0.4,0-0.7,0
	c-0.1,0-0.3-0.1-0.4-0.1c-0.1,0.1-0.3,0.2-0.4,0.3c-0.2,0.2-0.4,0.4-0.5,0.6c-0.2,0-0.4,0-0.6,0c-1-0.6-1.2-0.6-1.5-0.7
	c-0.2,0.2-0.5,0.4-0.7,0.5c-0.1,0.1-0.2,0.2-0.3,0.2c-0.2,0-0.3,0.1-0.5,0c-0.2,0-0.4-0.1-0.6-0.2c-0.1-0.1-0.2-0.1-0.3-0.2
	c-0.2-0.2-0.5-0.5-0.6-0.8c-0.1-0.1-0.2-0.3-0.4-0.3c-0.1,0-0.2-0.2-0.1,0c-0.1,0-0.1-0.1-0.3-0.1c-0.2,0-0.4,0.1-0.5,0.1
	c0-0.1,0-0.2,0.1-0.2c0.1-0.1,0.1-0.2,0.2-0.2c0.2-0.1,0.4-0.3,0.6-0.4c0.1,0,0.1-0.1,0.1-0.2c0-0.1-0.1-0.2-0.1-0.3
	c-0.2-0.2-0.3-0.4-0.4-0.6c-0.1,0-0.2,0-0.3-0.1c-0.1-0.1-0.2-0.3-0.3-0.4c-0.2-0.1-0.3-0.2-0.4-0.4s-0.4-0.3-0.6-0.5
	c-0.1-0.1-0.3-0.1-0.4-0.3c-0.2-0.2-0.4-0.5-0.6-0.8c-0.1-0.1-0.3-0.2-0.4-0.2s-0.2-0.1-0.4-0.1c0-0.1,0-0.2-0.1-0.2
	c-0.1-0.1-0.2-0.1-0.3-0.1c-0.1,0-0.2,0-0.3,0c-0.1,0-0.1-0.1-0.2-0.2c-0.1-0.2-0.2-0.3-0.3-0.5c0,0.1-0.1,0.2-0.1,0.3
	c0,0.1,0,0.2,0,0.3c-0.1-0.2-0.3-0.4-0.5-0.6c-0.1-0.2-0.2-0.3-0.3-0.5c-0.1-0.4-0.2-0.8-0.3-1.2c-0.1-0.2-0.2-0.4-0.2-0.6
	c-0.1-0.2-0.1-0.4-0.2-0.6s-0.3-0.4-0.4-0.6c0-0.1-0.1-0.1-0.2-0.1c-0.1-0.1-0.1-0.2-0.1-0.2c-0.1,0.1-0.1-0.1-0.2-0.1
	c-0.1,0.1-0.1,0-0.2-0.1c0-0.1-0.1-0.2-0.2-0.2c-0.1-0.1-0.2-0.1-0.4-0.1C77.2,25,77,25,76.9,24.9s-0.2-0.2-0.2-0.3
	c-0.1-0.3-0.2-0.6-0.3-1c-0.1-0.4-0.1-0.8-0.2-1.3c0-0.2-0.1-0.5-0.1-0.7c0.1,0,0-0.1,0-0.1c-0.1-0.1-0.3-0.3-0.4-0.4
	c-0.1-0.2-0.1-0.3-0.1-0.5c0-0.1,0-0.2-0.1-0.3c-0.1-0.1-0.2-0.2-0.3-0.3c-0.1-0.1-0.2-0.1-0.3-0.2c-0.1-0.1-0.2-0.2-0.3-0.3
	c-0.1-0.1-0.3-0.1-0.5-0.2c-0.1-0.1-0.2-0.3-0.3-0.4c0-0.1-0.1-0.3-0.2-0.4c0-0.1,0-0.3-0.1-0.4c0-0.1-0.1-0.2,0-0.2
	c0-0.1,0.1,0,0.2,0s0.2,0.1,0.1,0s-0.2-0.1-0.3-0.2c-0.2-0.2-0.5-0.4-0.7-0.7c-0.1-0.2-0.2-0.4-0.4-0.5c-0.2-0.2-0.3-0.5-0.4-0.7
	c-0.1-0.1-0.2-0.3-0.3-0.4c-0.2-0.2-0.2-0.4-0.4-0.6c-0.1-0.2-0.2-0.3-0.3-0.5c-0.1-0.3-0.2-0.6-0.3-0.9c-0.2-0.1-0.3-0.3-0.4-0.4
	c-0.1-0.2-0.1-0.4-0.1-0.5s-0.1-0.1-0.2-0.1c-0.2-0.2-0.4-0.4-0.6-0.6c-0.2-0.2-0.3-0.5-0.5-0.7c-0.1-0.3-0.3-0.5-0.4-0.8
	c0-0.1,0-0.3,0-0.4c0-0.1,0-0.2-0.1-0.4c-0.1-0.1-0.1-0.1-0.2-0.2c0-0.1,0-0.2,0-0.3c0-0.2-0.1-0.4-0.1-0.6c0-0.1,0-0.2-0.1-0.3
	c0-0.1-0.1,0-0.2-0.1c-0.1,0-0.2-0.1-0.2-0.2c-0.3,0-0.5,0-0.8,0c-0.1,0-0.2,0-0.3,0c0.1,0.1-0.1,0.1-0.1,0.2
	c-0.1,0.1-0.2,0.1-0.4,0.1c0,0-0.2,0.1-0.2,0C65.8,8,66,8,66.1,7.9c0.1,0,0-0.1-0.1,0S65.7,8,65.6,8c-0.1,0.1-0.2,0.2-0.3,0.2
	c-0.2,0.1-0.4,0.2-0.5,0.4c-0.2,0.1-0.3,0.2-0.5,0.2c-0.1,0-0.2,0.1-0.3,0c-0.2-0.1-0.5-0.2-0.8-0.2c-0.1,0-0.3,0-0.4,0
	c-0.1-0.1-0.2-0.1-0.3-0.1s-0.3,0-0.4-0.1c-0.1-0.1-0.3-0.2-0.4-0.2c-0.2-0.1-0.4-0.1-0.6-0.1c-0.2,0-0.4,0-0.7-0.1
	c-0.2,0-0.3-0.1-0.5,0c-0.2,0-0.4,0.1-0.6,0.1c-0.1,0-0.2,0-0.2-0.1C59,7.9,59,7.8,58.9,7.7c-0.1-0.1-0.2-0.1-0.3-0.1
	c-0.2,0-0.4,0-0.6,0c-0.2,0-0.4-0.2-0.6-0.2c-0.2,0-0.3-0.1-0.5-0.1c-0.1,0.1-0.3-0.1-0.4-0.1c-0.1,0-0.1-0.2-0.1-0.2
	c0.1,0,0-0.1,0-0.2s-0.1-0.1-0.2-0.1c-0.1,0-0.2,0-0.3-0.1c-0.2-0.1-0.5-0.1-0.7-0.2c-0.2,0-0.5,0-0.7,0c-0.1,0.1-0.3,0.1-0.4,0.1
	c-0.1,0-0.2,0-0.3,0.1c-0.2,0.1-0.4,0.3-0.6,0.4c-0.2,0.1-0.3,0.3-0.5,0.5c-0.1,0.2-0.1,0.4,0,0.6c0.1,0.1,0.2,0.2,0.1,0.3
	c0,0.1,0.1,0.3,0.1,0.4c0,0.1,0,0.2-0.1,0.2c-0.1,0.1-0.1,0.3-0.2,0.4c-0.1,0.1-0.2,0.2-0.4,0.3c-0.1,0.1-0.3,0.1-0.5,0.2
	c-0.1,0-0.2,0-0.3,0c-0.2-0.1-0.3-0.1-0.5-0.2c-0.2-0.1-0.3-0.2-0.4-0.4c-0.1-0.1-0.2-0.1-0.4-0.1c-0.2-0.1-0.4-0.2-0.6-0.3
	c-0.3-0.1-0.6-0.2-0.9-0.2c-0.2,0-0.5,0-0.7,0c-0.2-0.1-0.3-0.1-0.5-0.2c-0.2-0.2-0.3-0.3-0.5-0.5c0-0.1-0.1-0.1-0.1-0.2
	c0-0.2,0-0.3-0.1-0.4s-0.2-0.1-0.3-0.2C46.2,7.1,46,7.1,45.8,7c-0.2-0.1-0.4-0.2-0.5-0.2c-0.2-0.1-0.4-0.1-0.6-0.1
	c-0.2,0-0.3-0.1-0.5-0.1c-0.1,0-0.3,0-0.4,0c-0.1,0-0.3,0.1-0.4,0.1c-0.2,0-0.3,0-0.5-0.1s-0.5-0.2-0.7-0.3
	c-0.1-0.1-0.3-0.1-0.4-0.2c-0.1,0-0.2,0-0.2,0C41.5,6,41.5,6,41.5,5.9s-0.1-0.2-0.1-0.3c-0.1,0-0.2,0.1-0.3,0.1
	C41,5.6,41,5.6,40.9,5.5c-0.2,0.1-0.4,0-0.5-0.1c-0.1,0-0.2-0.1-0.2-0.2s-0.1-0.2,0-0.3c0-0.1,0.1,0,0.2,0c0.1,0.1,0.1-0.1,0.1-0.1
	c0-0.1,0-0.2,0.1-0.2s0.2-0.1,0.3-0.2c0.2-0.1,0.4-0.2,0.5-0.4C41.9,3.4,42,3.2,42,3c0-0.1,0.1-0.1,0.1-0.2C42,2.7,42,2.5,42,2.4
	c-0.1-0.1-0.2-0.1-0.2-0.2C41.8,2,41.7,2,41.6,2c-0.1,0-0.1-0.1-0.1-0.2s-0.1-0.3,0-0.4c0-0.1,0-0.2,0.1-0.2C41.7,1.1,41.8,1.1,42,1
	c0.1-0.2,0.2-0.3,0.3-0.4c0-0.1-0.1-0.2-0.1-0.2c-0.1,0-0.2,0-0.2,0.1c-0.1,0.1-0.2,0.2-0.3,0.2s-0.1,0.1-0.2,0.1
	c-0.1,0-0.2,0-0.1-0.1c0-0.1,0-0.2,0-0.2c0-0.1-0.1-0.2-0.1-0.2C40.9,0.1,40.7,0,40.6,0L40.6,0z M70.6,7.5c-0.1,0.1-0.2,0.2-0.3,0.3
	C70.2,7.9,70,7.9,69.9,8c-0.1,0-0.3,0-0.4,0.1c-0.1,0-0.1,0-0.2,0L69.2,8c-0.1,0-0.1,0.1-0.1,0.1c-0.1,0-0.2,0-0.4,0
	c-0.1,0-0.1,0-0.2-0.1c-0.1-0.1-0.1-0.2-0.2-0.2c0,0-0.1,0-0.2,0c0,0,0,0.1,0.1,0.1c0,0.1,0,0.3,0.1,0.4c0,0.2,0,0.3,0.1,0.5
	c0,0.1,0,0.1,0.1,0.2c0.1,0.1,0.2,0.2,0.3,0.4c0,0,0.1,0,0.1,0.1C69,9.5,69,9.6,69,9.7c0.1,0,0.1,0.1,0.1,0.2c0,0.1,0.1,0.2,0.1,0.3
	c0.1,0.1,0.2,0.2,0.2,0.3c0.1,0.1,0.2,0.2,0.3,0.3c0.1,0.1,0.2,0.2,0.2,0.3s0.1,0.2,0.1,0.4c0.1,0.1,0.2,0.2,0.3,0.4
	c0.2,0.2,0.5,0.5,0.7,0.7c0.1,0,0.2,0,0.3,0.1c0.1-0.1,0.1-0.1,0.2-0.2c0.1,0,0.1-0.1,0.1-0.2c0-0.1,0-0.2,0-0.4
	c0-0.1,0.1-0.2,0.1-0.3c0-0.2,0-0.3,0.1-0.5c0-0.2,0-0.3,0.1-0.5c0-0.1,0-0.1,0-0.2c0-0.1,0.1-0.1,0.1-0.2c-0.1-0.1-0.1-0.2-0.1-0.3
	c-0.1-0.2-0.2-0.4-0.3-0.6c-0.2-0.3-0.3-0.6-0.4-0.9C71,8,70.8,7.9,70.8,7.7L70.6,7.5L70.6,7.5z M93.2,69.7c0,0-0.1,0.1-0.2,0.1
	c-0.1,0.1-0.1,0.1-0.2,0.2c-0.1,0-0.1,0.2-0.2,0.1l0,0c0,0.1,0.1,0.1,0.1,0.2c0,0.2,0,0.3-0.1,0.5c0,0.1-0.1,0.2-0.1,0.3
	c0,0.1,0,0.2-0.1,0.2s-0.1,0.1-0.2,0.1s-0.1-0.1-0.2-0.1c0,0.1,0,0.2-0.1,0.3c-0.1,0.2-0.2,0.3-0.4,0.5c0-0.1,0-0.2-0.1-0.3
	c-0.1,0-0.2-0.1-0.3-0.1C91,71.8,91,71.8,91,71.9s0,0.2,0.1,0.4c0,0.1,0,0.2,0,0.3L91,72.5l-0.1,0.1c-0.1,0.1-0.1,0.2-0.2,0.3
	c0,0.1,0.1,0.1,0.1,0.2c0,0,0.1,0,0.2,0.1c0.1,0,0.1,0.1,0.1,0.1c-0.1,0-0.2,0-0.3,0c-0.1,0.2-0.3,0.3-0.4,0.5c0,0,0-0.1,0-0.2
	s0-0.2,0-0.3c0-0.1,0,0-0.1,0c0,0.1-0.1,0.1-0.1,0.2c0.1,0.1-0.1,0.1-0.1,0.2c-0.1,0.1-0.2,0.2-0.3,0.3c0.1,0.1,0.1,0.3,0.1,0.4
	c0.1,0.1,0,0.1-0.1,0.2s-0.2,0-0.2,0c0-0.1,0-0.2,0-0.3c0-0.1-0.1-0.1-0.2-0.1c-0.1,0.1-0.2,0.1-0.3,0.2c-0.1,0.1-0.2,0.2-0.2,0.2
	c-0.1,0.1-0.1,0.2-0.1,0.2c0,0.1,0.1,0.1,0.1,0.2s0.1,0.1,0.1,0.2s0.1,0.2-0.1,0.2c-0.1,0-0.2,0-0.3,0c0-0.1-0.1-0.1-0.2-0.2
	c0-0.1,0-0.2-0.1-0.2c-0.1-0.1-0.2,0-0.2,0.1c-0.1,0.1-0.1,0-0.2-0.1c-0.1,0-0.2,0-0.2,0.1s0,0.2-0.1,0.2c0,0.1-0.1,0.1-0.2,0
	s-0.1,0.1-0.2,0.1s-0.1-0.1-0.1-0.2c-0.1,0-0.1,0.1-0.2,0.1s-0.1,0.1-0.2,0.2c-0.1,0-0.1,0-0.2,0s-0.2,0-0.2,0
	c-0.1-0.1-0.2,0-0.2,0.1c-0.1,0.1,0,0.1-0.1,0.2c0,0.1,0,0.2,0,0.2c-0.1,0.2-0.2,0.4-0.3,0.7c-0.1,0.2-0.2,0.3-0.3,0.5
	c0,0.1-0.2,0.2-0.1,0.2c0.1,0.1,0.1,0.2,0.2,0.4c0,0.2,0,0.4-0.1,0.5c0,0.2,0,0.3,0,0.5c0,0.3,0,0.5,0.1,0.8c0,0.1,0.1,0.2,0.1,0.3
	c0,0.1,0.1,0.2,0.1,0.3c0,0.1,0,0.2-0.1,0.2c0,0.1,0,0.2,0,0.3c-0.1,0.1-0.1,0.2-0.2,0.3c-0.1,0.1-0.1,0.1-0.2,0.2S85,81.4,85,81.5
	c-0.1,0.2-0.2,0.4-0.4,0.5c-0.1,0.2-0.2,0.4-0.3,0.6c-0.1,0.1-0.2,0-0.2,0.1c-0.1,0.1-0.2,0.3-0.3,0.4c0,0.1-0.1,0.2-0.1,0.2
	c0,0.1-0.1,0.1-0.1,0.2c0,0.2-0.1,0.4-0.1,0.5c0,0.2,0,0.4-0.1,0.6c0,0.1,0,0.2,0.1,0.3c0,0.1,0.1,0.2,0.1,0.2C84,85,84,85,84,85.1
	c0.1,0.2,0.1,0.4,0.1,0.6c0,0.1-0.1,0.2-0.1,0.3c0,0.1-0.1,0.3-0.1,0.4s0,0.3,0,0.4s0,0.2,0.1,0.4c0.1,0.1,0.1,0.3,0.2,0.4
	c0,0.1,0,0.1,0.1,0.2s0.2,0.2,0.3,0.3c0.2,0.1,0.3,0.2,0.5,0.4c0.1,0.1,0.3,0.2,0.4,0.4c0.1,0,0.2,0,0.3,0c0.1-0.1,0.3-0.1,0.4-0.2
	s0.3-0.1,0.4-0.2c0.2,0,0.4-0.1,0.6-0.1c0.1,0,0.2-0.1,0.3,0c0.1,0.1,0.2,0,0.3,0c0.1,0,0.2-0.1,0.3-0.2c0.1,0,0.1-0.1,0.2-0.2
	c0.1-0.2,0.2-0.3,0.3-0.5c0.1-0.2,0.2-0.4,0.4-0.6c0.1-0.2,0.1-0.3,0.2-0.5s0.1-0.3,0.2-0.5s0.2-0.4,0.2-0.5
	c0.1-0.4,0.3-0.7,0.5-1.1c0.1-0.2,0.2-0.4,0.3-0.6c0.1-0.3,0.2-0.5,0.3-0.8c0.1-0.2,0.2-0.5,0.3-0.8c0.1-0.2,0.2-0.4,0.3-0.5
	c0.1-0.2,0.2-0.4,0.3-0.6c0.1-0.2,0.2-0.4,0.2-0.6c0-0.1,0.1-0.2,0.2-0.3c0-0.1,0-0.2,0.1-0.2c0.1-0.2,0.2-0.4,0.3-0.7
	c0.1-0.3,0.2-0.6,0.3-0.9c0.1-0.2,0.1-0.4,0.1-0.6s0.1-0.4,0.1-0.7c0.1-0.1,0.1-0.2,0.2-0.3c0.1-0.1,0.1-0.2,0.2-0.3
	c0.1-0.1,0.1-0.2,0.1-0.3c0-0.1,0-0.3,0.1-0.4c0-0.1-0.1-0.2-0.1-0.3c0-0.1,0-0.3,0-0.4c0-0.2,0.1-0.4,0.2-0.6c0-0.1,0.1,0,0.2,0
	c0,0,0,0.1,0,0.2c0,0.2,0.1,0.3,0.1,0.5c0,0.1,0.1,0,0.2,0c0-0.1,0.1-0.2,0.1-0.3c0-0.1,0.1-0.3,0.1-0.4s0-0.3,0-0.4
	s-0.1-0.3-0.1-0.4c0-0.2,0-0.4,0-0.6s0-0.4,0-0.5c0-0.2,0-0.4,0-0.5c0-0.2-0.1-0.3-0.1-0.5s0-0.4,0-0.5S94,70.8,94,70.7
	c0-0.1-0.1-0.1-0.2-0.2s-0.2-0.3-0.3-0.5C93.4,69.8,93.3,69.8,93.2,69.7L93.2,69.7L93.2,69.7z"/>
</svg>
