<?xml version="1.0" encoding="utf-8"?>
<!-- Generator: Adobe Illustrator 24.0.0, SVG Export Plug-In . SVG Version: 6.00 Build 0)  -->
<svg version="1.2" baseProfile="tiny" id="Layer_1" xmlns="http://www.w3.org/2000/svg" xmlns:xlink="http://www.w3.org/1999/xlink"
	 x="0px" y="0px" viewBox="0 0 100 100" xml:space="preserve">
<path fill="#282826" d="M45.1,76c-1.1,1.2-2.2,2.4-3.3,3.5c-1.3,1.3-2.9,2.4-4.7,2.9c-1.6,0.4-3.1,0.2-4.5-0.6
	c-0.2-0.1-0.5-0.3-0.4-0.6c0.1-0.3,0.4-0.2,0.6-0.2c3.2,0.2,5.4-1.5,7.3-3.8c1.1-1.3,1.9-2.8,2.5-4.4c0-0.1,0-0.2,0.1-0.3
	c-0.1,0-0.2,0.1-0.2,0.1c-2.8,2.7-6.2,4.1-9.9,5.2c-2.1,0.6-3.9,1.7-5.6,3.4c-0.3-2.1,0.4-3.5,1.7-4.8c1.8-1.8,4-3.1,6.4-4
	c1.3-0.5,2.7-0.9,4.1-1.3c0.5-0.2,0.8-0.3,0.3-0.9c-0.4-0.5-0.6-1.1-0.3-1.8c1.3,0.5,2.5,1,3.8,0.2c0.8-0.5,1.1-1.2,1.3-2.3
	c-0.8,0.3-1.5,0.6-2.3,0.8c-0.8,0.2-1.5,0.3-2.3-0.4c1.3-0.5,2.5-1,3-2.7c-1,0.6-1.8,1.3-2.9,1.1c-0.1-0.5,0.6-0.8,0.3-1.5
	c-1.3,0.5-2.6,1.2-4.2,0.4c1.4-0.9,2.5-2,2.4-3.7c0-0.2,0-0.4-0.1-0.6c-0.1-0.3-0.2-0.7-0.6-0.6c-0.3,0-0.3,0.4-0.3,0.7
	c0,1-0.3,1.9-1.2,2.7c0-1.5-0.3-2.7-1.5-3.7c-0.1,0.6-0.2,1.1-0.2,1.6c-0.3,3.4-4.2,7.1-8.6,5.8c-1.6-0.5-3.2-0.8-4.9-1.2
	c-1-0.2-1.9-0.3-2.2,1c-0.1,0.4-0.4,0.6-0.8,0.6c-0.5,0-0.9,0.1-1.3,0.5c-0.3,0.4-0.7,0.5-1.1,0.1c-0.2-0.1-0.4-0.3-0.5-0.3
	c-1.5,0.3-1.5-1.1-2-1.8c-0.7-1.1-0.6-1.9-0.1-2.8c0.5,0,0.3,0.5,0.5,0.7c0.4,0.4,0.8,0.6,1.2,0c0.1-0.2,0.2-0.5,0.5-0.7
	c0.8-0.5,0.3-0.8-0.2-1.1c-0.2-0.1-0.8,0.1-0.6-0.5c0.1-0.4,0.5-0.5,1-0.5c1.5,0,2.9,0,3.6,1.7c0,0.1,0.3,0.2,0.4,0.2
	c2.2,0.2,4.3,0.8,6.5,0.6c1.8-0.1,2.4-1,1.6-2.7c-0.3-0.7-0.5-1.4-0.5-2.1c0.1-2.2,0.7-4.3,1.3-6.4c0.4-1.4,1.8-1.9,3.3-1.5
	c1.4,0.4,2.5,1.3,3.8,2c0.6,0.3,1.1,0.8,1.8,0.4c0.6-0.4,0.5-1,0.5-1.6c0-1.6-0.1-3.3-0.2-5.2c-1.1,1.4-1.6,2.9-3.6,3.4
	c1-1.4,1.7-2.6,1.4-4.3c-0.3,0.5-0.5,0.8-0.8,1.3c-0.3-0.8,0-1.5-0.5-2.1c-0.4,1-0.4,2.1-1.5,3C32,44.7,32,42.5,30,40.8
	c0.3,1.9,0.7,3.6,0.7,5.3c0,0.6,0,1.1-0.1,1.7c-0.1,0.7-0.5,1.3-1.3,1.3c-1-0.1-1-0.8-1-1.5c0.2-2-0.1-3.9-0.8-5.8
	c-0.1-0.2-0.2-0.4-0.4-0.6c-0.1,3.5-0.7,6.8-2.2,9.9c0.3-1.4,0.7-2.7,0.8-4.1c0.1-1.4,0.1-2.9-0.3-4.4c-0.4,0.3-0.4,0.7-0.6,1.1
	c-0.5,1.7-1.1,3.4-2,4.9c-0.5,0.9-1,1.5-2.1,1c-1-0.4-1.2-1.3-0.6-2.5c1-1.9,1.9-3.9,2.6-6c0.1-0.4,0.4-0.7,0.1-1.4
	c-1.6,2.3-3,4.5-5,6.2c1.9-2.5,3.6-5.2,4.5-8.3c-0.7,0.1-0.8,0.5-1,0.8c-1.6,1.9-3.1,3.7-4.7,5.6c-0.3,0.3-0.5,0.6-0.9,0.9
	c-0.7,0.5-1.6,0.6-2.3,0c-0.7-0.6-0.6-1.4-0.2-2.2c0.2-0.5,0.7-0.8,1.1-1.1c1.9-1.5,3.7-3.2,5.2-5.1c0.3-0.3,0.7-0.6,0.6-1.3
	c-1.3,0.9-2.4,1.9-3.8,2.4c-1.4,0.6-2.8,1.1-4.4,0.8c2.9-0.9,5.4-2.3,7.8-4.7c-1.4,0.3-2.2,0.8-3.2,1.2c-1,0.4-2,0.8-3.1,0.9
	c-0.7,0.1-1.3-0.1-1.6-0.8c-0.3-0.8,0.1-1.3,0.7-1.7c0.8-0.5,1.7-0.7,2.7-0.9c0.8-0.1,1.6-0.1,2.6-0.7c-2.3-0.8-4.8-0.8-6.4-2.7
	c2.3,0.6,4.4,1.7,7.2,1.5c-1.1-0.6-2-1.1-2.8-1.7c-1.5-0.9-2.9-2-4.1-3.2c-0.8-0.9-1.1-1.9-0.9-3c0.1-0.4,0.2-0.8,0.6-0.9
	c0.5-0.1,0.7,0.3,1,0.6c1.4,1.9,3,3.7,4.9,5c0.4,0.3,0.7,0.7,1.3,0.6c-0.1-0.5-0.6-0.8-0.9-1.1c-2.2-2.2-4-4.5-5.4-7.3
	c-0.1-0.1-0.2-0.3-0.2-0.4c-0.1-0.3-0.5-0.7-0.1-0.9c0.4-0.2,0.5,0.3,0.7,0.6c0.7,1.2,1.4,2.3,2.3,3.4c0.5,0.6,0.9,1.3,1.7,1.7
	c0.2-0.6-0.3-0.9-0.5-1.3c-2.8-3.9-4.6-8.1-5.1-12.9c0-0.3-0.1-0.6,0-1c0-0.3,0.2-0.6,0.6-0.7c0.4-0.1,0.7,0.1,1,0.4
	C13,8.4,13.1,8.7,13.2,9C15.8,16.7,21,22.4,27.7,27c0.6,0.4,1.2,0.8,1.7,1.3c0.8,0.8,0.8,1.6,0,2.4c-0.3,0.3-0.7,0.6-1,0.9
	c-0.5,0.5-0.8,1.2-0.5,1.9c0.3,0.7,1,1.2,1.7,1.2c1.4-0.1,2.5,0.4,3.7,1.1c1.2,0.8,3.2,0.4,4.3-0.8c0.8-0.8,1.2-1.9,1.3-3.1
	c-0.6,0-1.1,0.5-1.8,0.3c0.8-1,2.1-1.9,1.6-3.5c-0.7,0.6-1,1.5-2,1.7c0-0.9,0.4-1.7,0.1-2.6c-0.5,0.1-0.7,0.7-1.3,0.6
	c-0.4-2.7-0.4-2.7-3.3-2.8c-0.7,0-1.4-0.1-2-0.6c-0.1-0.1-0.3-0.3-0.3-0.5c0.1-0.3,0.3-0.2,0.5-0.2c0.7,0,1.5,0.1,2.1-0.6
	c-0.5-0.2-0.9-0.1-1.3,0c-1.6,0.2-3.2,0.4-4.7-0.3c-1.4-0.6-2-2-1.2-3c0.4-0.5,0.8-0.9,1.4-0.4c0.5,0.4,0.4,0.7-0.1,1.2
	c-0.7,0.7,0,1.3,0.7,1.7c0.9,0.5,2,0.5,3,0.5c0.7,0,1.3-0.1,2-0.1c0.3,0,0.7,0,0.7-0.4c0-0.4-0.5-0.4-0.8-0.4
	c-1.2-0.3-2.3,0.2-3.7,0.5c0.4-1.3,1.3-1.8,2.4-2.1c0.9-0.3,1.7-0.4,2.3-1.3c0.5-0.8,1.6-1,2.5-1c1.5,0,3,0,4.6,0.1
	c1.1,0,2.3,0,3.5-0.3c-0.1,1-0.7,1.5-1.2,2.1c-0.6,0.7-0.8,1.2,0,2c1.3,1.2,2,2.9,3.4,4.1c-0.6,0.5-1.1-0.1-1.7,0.2
	c0.9,1.6,2.4,2.5,3.9,3.5c-0.8,0.5-1.5,0-2.5,0.3c1.3,1,2.5,2,3.7,2.8c0.3,0.2,0.6-0.1,0.9-0.2c1.3-0.7,2.2-1.8,3.3-3.1
	c-0.9-0.3-1.6,0.4-2.5,0c1.6-1,3-2.2,3.9-4c-0.7,0-1.2,0-2,0c1.9-1.5,2.1-3.7,3.7-5.1c0.5-0.4,0-0.8-0.4-1c-0.5-0.4-1.1-0.6-1.4-1.1
	c-0.1-0.2-0.3-0.5-0.1-0.7c0.1-0.1,0.4-0.1,0.6-0.1c1.6,0.4,3.1,0,4.6-0.2c2.1-0.2,4.2-0.3,5.7,1.7c0.3,0.4,0.9,0.3,1.4,0.4
	c1.2,0.3,2.4,0.4,3.2,1.8c-0.9-0.2-1.6-0.4-2.3-0.5c-0.4-0.1-1,0-1.1,0.5c-0.1,0.6,0.6,0.4,0.9,0.5c1.1,0.1,2.2,0.1,3.3-0.2
	c1.4-0.4,1.6-1.1,0.7-2.2c-0.1-0.1-0.3-0.3-0.2-0.5c0.1-0.2,0.3-0.2,0.5-0.2c0.7,0,1.2,0.3,1.5,0.9c0.3,0.6,0.1,1.2-0.3,1.7
	c-0.6,0.6-1.3,0.8-2.1,0.9c-1.7,0.3-3.3-0.1-5.1,0c0.8,1.5,2,0.8,3.1,0.8c-0.8,1.2-1.9,1.3-3.1,1.3c-2.8,0.1-2.9,0.1-1.8,2.7
	c0,0,0,0.1,0,0.2c-0.7,0-1-0.7-1.6-0.9c-0.3,1,0.4,1.8,0.5,2.7c-0.8-0.1-0.8-0.1-2.1-1.5c-0.4,1.1-0.4,1.2,1.7,3.4
	c-0.7,0.3-1.2-0.4-1.8-0.3c0.2,3.5,3.3,5.2,6.3,3.4c0.9-0.5,1.8-0.9,2.9-0.9c0.8,0,1.6-0.2,1.9-1c0.4-0.8-0.2-1.5-0.6-2.1
	c-0.2-0.2-0.4-0.4-0.6-0.6c-1.4-1.3-1.4-1.8,0.1-3.1c1.3-1.1,2.5-2.2,3.8-3.3c4.7-4.1,7.9-9.1,9.8-15c0.2-0.7,0.4-1.9,1.4-1.7
	c1.1,0.2,0.8,1.3,0.8,2.1c0,4.4-1.5,8.4-4,12.1c-0.7,1-1.4,1.9-2,2.9c-0.1,0.1-0.1,0.1-0.2,0.2c-0.1,0.1-0.3,0.2-0.2,0.3
	c0.1,0.1,0.3,0.1,0.4-0.1c0.1-0.1,0.2-0.1,0.3-0.2c1.8-1.2,2.8-3,3.9-4.7c0.5-0.7,0.8-1.6,1.6-2c-1.1,3.3-2.8,6.2-5.3,8.7
	c-0.1,0.1-0.2,0.2-0.3,0.4c-0.1,0-0.3,0-0.3,0.2c0,0,0.3,0,0.4,0c0.1-0.1,0.3-0.2,0.4-0.3c1.7-1,2.8-2.7,3.9-4.2
	c0.4-0.6,0.8-1.1,1.2-1.7c0.3-0.4,0.8-0.8,1.4-0.5c0.6,0.2,0.7,0.8,0.7,1.3c0,1.1-0.5,2.1-1.2,2.9c-1.7,1.9-3.5,3.7-5.8,4.9
	c2.4,0.2,4.4-1.1,6.5-1.7c-1.6,1.8-3.8,2.4-6.1,3.1c0.6,0.5,1.1,0.5,1.7,0.5c1.1,0.1,2.3,0.1,3.4,0.6c0.7,0.4,1.4,0.8,1.2,1.7
	c-0.2,1-1.1,1-1.9,1c-1.3,0-2.6-0.5-3.8-0.9c-0.4-0.1-0.8-0.5-1.5-0.3c2.2,2.1,4.8,3,7.6,3.6c-1.6,0.9-4.2,0-8.5-2.6
	c-0.1,0-0.2-0.1-0.3-0.1c0,0.1,0,0.2,0,0.3c1.1,1.7,2.7,3,4.3,4.2c0.7,0.6,1.6,1.1,2.1,1.8c0.6,0.9,0.8,1.8,0,2.7
	c-0.8,0.8-1.7,0.5-2.5,0c-1.7-1-2.9-2.6-4.1-4.1c-0.6-0.8-1.2-1.6-1.8-2.4c-0.1-0.1-0.1-0.3-0.3-0.2c-0.1,0,0,0.3,0.1,0.4
	c0.4,1.6,1.1,3,2,4.4c0.8,1.3,1.9,2.5,2.8,3.8c-2.7-1.6-4.2-4.2-5.8-6.9c-0.1,0.9,0.2,1.4,0.4,2c0.6,2,1.6,3.8,2.6,5.6
	c0.2,0.4,0.4,0.7,0.5,1.1c0.3,0.8,0,1.6-0.8,1.9c-0.8,0.4-1.4,0-1.9-0.7c-1.1-1.7-1.8-3.6-2.3-5.5c-0.1-0.4-0.2-0.8-0.3-1.2
	c-0.5,0.8-0.6,2.3-0.4,4.2c0.2,1.4,0.7,2.7,1,4c-1.9-2.8-2.1-6.1-2.2-9.6c-0.9,1.3-1,2.5-1.2,3.6c-0.2,0.9-0.2,1.8-0.1,2.8
	c0.1,0.8,0,1.5-1,1.6c-1,0.1-1.5-0.5-1.6-1.4c-0.2-1.7,0.1-3.3,0.4-4.9c0.1-0.4,0.3-0.7,0-1.3c-1.8,1.7-1.8,3.9-2,6.3
	c-1.3-0.9-1.1-2.2-1.6-3.4c-0.4,0.7-0.1,1.3-0.3,1.9c-0.5-0.1-0.4-0.7-0.9-0.9c-0.2,1.6,0.7,2.8,1.6,4c-1.9-0.4-2.7-1.9-3.6-3.5
	c-0.4,1.3-0.2,2.4-0.3,3.5c0,1.1,0,2.2,0,3.3c0,0.5,0.1,0.9,0.6,1.1c0.5,0.2,0.9,0,1.2-0.3c0.5-0.5,1.1-1,1.6-1.5
	c2.1-2,4.9-1.7,5.7,1c0.8,2.5,2.4,5.2,0.4,8c-0.7,0.9,0.6,2.9,1.8,3c2.2,0.2,4.1-0.7,6-1.8c0.4-0.3,0.3-0.7,0.3-1.1
	c0.2-1.4,1.6-2.8,2.9-3c0.4-0.1,0.8-0.1,1,0.3c0.3,0.5-0.2,0.5-0.4,0.7c-0.5,0.4-0.3,0.9-0.2,1.4c0.6-0.1,0.9-0.7,1.5-0.9
	c1.3-0.4,1.6-0.2,1.8,1.1c0.1,0.6-0.1,1.1-0.5,1.6c-0.2,0.2-0.6,0.3-0.4,0.6c0.2,0.3,0.6,0.1,0.7-0.3c0.4-0.8,1.2-0.8,1.9-1.1
	c0.4-0.1,0.6,0.1,0.8,0.4c0.5,1.1,0.2,2.3-1,3c-0.5,0.3-1.1,0.4-1.5,0.8c-0.9,0.8-1.6,0.4-2.6,0c-1.3-0.5-2.7-1.5-4.3-0.4
	c-1.6,1.1-3.5,1.9-5.4,2.5c-2.3,0.8-4.2,0.3-6-1.2c-2.2-1.9-3.2-4.3-3.2-7.4c-1.3,0.9-1.9,1.9-1.9,3.3c-0.9-0.6-0.7-1.4-0.7-2.1
	c0-0.3,0.2-0.8-0.4-0.9c-0.5-0.1-0.5,0.4-0.7,0.7c-0.6,2.1-0.1,3.3,2.2,4.6c-1,0.8-1,0.8-4.2-1c-0.2,0.9-0.2,0.9,0.3,2.1
	c-0.9,0.4-1.5-0.1-2.2-0.6c-0.2,1.2-0.1,1.4,1.7,2.3c-1.6,1.1-2.8,0.2-4.1-0.6c-0.5,1.7,0.3,2.7,2,2.7c0.9,0,1.7-0.3,2.5-0.6
	c0.2-0.1,0.4-0.3,0.7-0.1c0.2,0.2,0.1,0.5,0,0.8c-0.3,0.8-1,1.3-1.7,1.6c-0.8,0.3-0.6,0.6-0.1,1.1c1.1,0.8,2.3,1.5,3.7,1.8
	c2.4,0.5,4.6,1.5,6.4,3.1c1.5,1.3,2.5,3,2.6,5c0,0.2,0.1,0.5-0.2,0.6c-0.2,0.1-0.4-0.1-0.5-0.2c-1.6-2.2-4.1-2.9-6.6-3.4
	c-2.9-0.5-5.6-1.4-7.3-3.9c-0.2-0.3-0.6-0.7-1.1-0.7c0.5,3.3,4,7.3,6.9,7.9c0.7,0.1,1.3,0.1,2,0.1c0.2,0,0.5,0,0.6,0.3
	c0.1,0.3-0.2,0.4-0.4,0.5c-1.8,1.1-3.7,1.1-5.5,0c-2-1.2-3.6-2.9-5.2-4.6c-0.5-0.6-1-1.1-1.6-1.8c-0.2,1.1,0.3,1.7,0.6,2.4
	c0.8,1.6,1.7,3,2.3,4.7c0.9,2.5,0.4,4.3-1.7,6c-0.6,0.5-0.9,0.9-0.7,1.8c0.5,1.6-0.3,2.9-1.2,4.1c-1.2,1.6-2.6,3.1-3.4,5.3
	c-0.7-2.1-1.9-3.5-3-5.1c-1-1.5-1.7-3-1-4.9c0.2-0.5-0.1-0.7-0.4-0.9c-2.4-1.9-2.7-4.3-1.7-6.9c0.5-1.3,1.1-2.5,1.7-3.7
	c0.4-0.8,0.8-1.5,0.8-2.4c0-0.1,0-0.2,0-0.3C45.1,75.9,45.1,75.9,45.1,76z M38.1,21.3c-0.5-0.9-1-1.1-1.7-0.6
	C36.9,20.8,37.3,21,38.1,21.3z M61,20.6c0.8-0.3,1.3-0.5,2.1-0.9C62,19.4,61.5,19.6,61,20.6z M19.1,27.8c-0.1,0-0.1,0-0.2,0.1
	c0,0.1,0.1,0.1,0.1,0.2c0,0,0.1,0,0.1-0.1C19.1,27.9,19.1,27.9,19.1,27.8z M17.6,24.2C17.6,24.2,17.5,24.2,17.6,24.2
	c-0.1,0.1,0,0.1,0,0.2C17.6,24.3,17.7,24.3,17.6,24.2C17.7,24.2,17.6,24.2,17.6,24.2z M81,32.9L81,32.9L81,32.9L81,32.9z M22.6,37.3
	L22.6,37.3L22.6,37.3L22.6,37.3z"/>
<path fill="#FFFEFE" d="M53.3,6.1c2,0.3,3.7,0.9,4.8,2.4c0.9,1.1,0.8,1.2-0.5,1.7c-1.6,0.6-3.2,0.8-4.8,0.4c-0.9-0.2-1.1-0.1-1,0.8
	c0.2,1.8-0.5,3.2-1.8,4.4c-0.5,0.5-0.8,0.4-1.3,0c-1.2-1.1-1.9-2.5-1.8-4.2c0.1-0.9,0.1-1.3-1.1-1c-1.7,0.4-3.4,0.1-5-0.6
	c-0.7-0.3-0.8-0.6-0.4-1.2c0.9-1.3,2.1-2.1,3.7-2.5c0.4-0.1,0.9-0.2,1.4-0.3c-0.9-1.3-1.8-2.5-1.8-4.1c-0.1-2,0.4-2.4,2.4-1.6
	c1.3,0.5,2,1.2,3.3,3.2c0.4-0.5,0.7-1,1-1.5c0.9-1.1,2-1.8,3.4-2c0.8-0.2,1.2,0.1,1.3,1c0.1,1.4-0.2,2.7-1,3.9
	C54,5.2,53.7,5.6,53.3,6.1z"/>
</svg>
