<?xml version="1.0" encoding="utf-8"?>
<!-- Generator: Adobe Illustrator 21.0.0, SVG Export Plug-In . SVG Version: 6.00 Build 0)  -->
<svg version="1.1" id="Layer_1" xmlns="http://www.w3.org/2000/svg" xmlns:xlink="http://www.w3.org/1999/xlink" x="0px" y="0px"
	 viewBox="0 0 100 100" style="enable-background:new 0 0 100 100;" xml:space="preserve">
<g>
	<polygon points="55.6,91.7 55.6,91.7 55.6,91.7 	"/>
	<path d="M90.8,71.7c-0.8-1.4-3.7-1.4-4.2,0.2l-5.9,0.2l3.5-2.5c1.3,0.8,3.1-0.1,3.5-1.5c0.5-0.6,1.2-0.9,2.4-0.5
		c-0.7-1.2-1.6-1.5-3.2-0.7c-1.5-1.1-3.5,0.2-3.2,1.4l-4.7,3.2c-3.4-1-9.5-2.6-9.5-2.6c0.7-0.8,1.5-1.5,2.2-2.3
		c0.3-0.5-0.1-1-0.7-1.1c-5.5-1.1-8.6-3.3-10.5-8.9c-0.8-2.4,0.9-3.1,1.5-1.6c0.8,2,1.7,4.2,4.2,5.9c0.8,0.6,3.4,0.1,1.9-1.3
		c-1.5-1.3-2.2-1.8-3-4.9c0-1.6,1.6-2.3,2.5-0.8c1,3.1,1.1,4.4,2.8,6.4c1.3,1.5,3,2.5,3.9,2.5c1.5,0,3.1-1.7,1-2.9
		c-3-1.2-4.1-2.8-4.5-4.4c-0.5-2.7,0-4,1.7-2.7c2.3,2.6,6.8,7.6,9.1,9.9c2.6,2,5.6,2.1,8,0c1.4-1.6,0.9-3.3-1.3-2.9
		c-4.8,0.4-8.5-2-12.5-8.5c-0.8-1.5-1-3.6,0.7-2c2,2.7,4.9,5,7.6,6c2.7,1,5,0.4,5.8-0.4c1-1,0.8-3.7-1-3.1c-1.5,0.5-3.6,0.7-5.8-0.2
		c-2.2-0.9-4.5-2.7-6.9-5.8c-0.8-1.8-0.6-3.3,1.1-2.4c4,3.4,9.1,6.1,11.7,4.4c1.9-1.2,2-4.3-0.5-4.1c-4.9,0.7-6.8-0.4-11.5-4.6
		c-1.1-0.8-1-2.8,0.7-1.5c4,2.6,9.4,3.6,11.5,2.2c1.9-1.2,1.6-4.9-1.6-3.6c-2.6,1.6-5.4,1.5-11.1-2.5c-1.4-1.2-0.4-2.8,0.8-2.1
		c4.6,2.6,11.3,3.7,13-1.6c0.7-2-0.5-3.2-2.3-1.8c-3.9,3.6-8.4,1.9-10.9,0c-0.7-0.4-2-2.6,0.3-2.2c6,1.4,11.9,0.2,13-4.1
		c0.6-1.4-0.6-3.8-2.8-1.8c-2.9,2.8-5.9,2.9-9.7,2.9c-1.9-0.4-2-2.5-0.3-2.9c3,0.1,6-1.3,8.4-2.6c2.3-1.3,4.3-3.2,4.9-5.8
		c0.4-2.3-1.9-4.8-3.2-2.3c-2,3.6-6.4,7-11.3,7.6c-0.3-0.4-0.9-1.5-1.7-1.2c-1.4,0.6-3.2,1.3-4.9,2.2c-3.8,1.8-5.4,2.7-5,5.8
		c0.5,3.3-2,5.3-4.1,4.8c-1.8-0.5-2.8-2.1-2.5-5c0.3-2.3,2.5-5,5.1-6.4c1.7-0.9,4.2-1.4,7.2-2.1c1.8-0.4,2.8-1.1,2.9-1.8
		c0,0-1.3,0.9-3.3,0.8c-0.9-0.1-1.6-0.5-1.8-0.9c0.7-0.1,2,0,3.1,0c1.5,0,5-0.4,6-2.5c0.3-1.4-0.6-1.7-1.5-0.8
		c-0.9,1-1.3,1.8-3.2,2.2c-1.1,0.2-2.3,0.4-3.7,0.1c0.8-1,2.1-2,3.2-1.8c0.4,0.1,0.8,0.4,1.2,1c0.2-1.5-0.2-3.3-4.3-2.5
		c0.1-1.2-2.4-1.7-3.9-1.6c-0.8,0-2.5,0.5-3.8,1.1c-2,0.6-3.9,1-6.2,1.2c1.3,1.1,1.6,1.2,2.9,2.2c-2,0.7-3.5,2.3-4.2,3.3
		c0,0,2.3-0.1,2.9,0.2c-2.4,0.7-3.5,1.1-4.8,2.5c0.5,0.1,1.1,0.2,1.4,0.3c0.3,0.1,0.2,0.3,0,0.5c-0.5,0.4-2.7,2.9-3.3,3.5
		c-0.6-0.6-2.8-3.1-3.3-3.5c-0.2-0.2-0.3-0.4,0-0.5c0.3-0.1,1-0.2,1.4-0.3c-1.3-1.3-2.4-1.7-4.8-2.5c0.6-0.3,2.9-0.2,2.9-0.2
		c-0.7-1-2.2-2.5-4.2-3.3c1.3-1,1.6-1,2.9-2.2c-2.3-0.2-4.2-0.6-6.2-1.2c-1.2-0.6-2.9-1.1-3.8-1.1c-1.5,0-3.9,0.5-3.9,1.6
		c-4.1-0.7-4.5,1-4.3,2.5c0.4-0.6,0.9-0.9,1.2-1c1.1-0.2,2.4,0.8,3.2,1.8c-1.5,0.4-2.6,0.1-3.7-0.1c-1.9-0.3-2.2-1.2-3.2-2.2
		c-0.9-0.9-1.8-0.6-1.5,0.8c0.9,2.1,4.4,2.5,6,2.5c1.1,0,2.4-0.2,3.1,0c-0.2,0.4-0.9,0.8-1.8,0.9c-2,0.1-3.3-0.8-3.3-0.8
		c0.1,0.7,1,1.5,2.9,1.8c3,0.7,5.5,1.2,7.2,2.1c2.6,1.4,4.8,4.2,5.1,6.4c0.3,2.8-0.7,4.5-2.5,5c-2.1,0.6-4.6-1.5-4.1-4.8
		c0.5-3.1-1.1-4-5-5.8c-1.8-0.8-3.5-1.6-4.9-2.2c-0.8-0.3-1.4,0.8-1.7,1.2c-4.9-0.6-9.3-4-11.3-7.6c-1.4-2.5-3.6,0-3.2,2.3
		c0.6,2.6,2.5,4.5,4.9,5.8c2.4,1.3,5.4,2.7,8.4,2.6c1.6,0.3,1.6,2.5-0.3,2.9c-3.8,0-6.9-0.1-9.7-2.9c-2.2-2-3.4,0.4-2.8,1.8
		c1.1,4.2,7,5.4,13,4.1c2.3-0.4,1,1.7,0.3,2.2c-2.5,1.8-7,3.6-10.9,0c-1.8-1.4-3-0.2-2.3,1.8c1.7,5.3,8.4,4.2,13,1.6
		c1.2-0.7,2.3,0.9,0.8,2.1c-5.7,4.1-8.5,4.1-11.1,2.5c-3.2-1.3-3.5,2.4-1.6,3.6c2.1,1.3,7.5,0.3,11.5-2.2c1.7-1.3,1.8,0.7,0.7,1.5
		c-4.7,4.2-6.6,5.2-11.5,4.6C9,43.6,9,46.7,10.9,47.9c2.6,1.6,7.7-1.1,11.7-4.4c1.7-0.9,1.9,0.6,1.1,2.4c-2.4,3.1-4.7,5-6.9,5.8
		c-2.2,0.8-4.3,0.7-5.8,0.2c-1.8-0.6-2.1,2-1,3.1c0.9,0.9,3.1,1.4,5.8,0.4c2.7-1,5.6-3.3,7.6-6c1.7-1.6,1.5,0.5,0.7,2
		c-4,6.5-7.7,8.9-12.5,8.5c-2.1-0.4-2.6,1.3-1.3,2.9c2.4,2,5.4,2,8,0c2.3-2.3,6.8-7.2,9.1-9.9c1.6-1.3,2.2,0,1.7,2.7
		c-0.4,1.6-1.5,3.2-4.5,4.4c-2,1.2-0.5,2.8,1,2.9c0.8,0,2.6-1,3.9-2.5c1.7-2,1.8-3.3,2.8-6.4c0.9-1.5,2.5-0.8,2.5,0.8
		c-0.8,3.1-1.4,3.6-3,4.9c-1.5,1.4,1,1.9,1.9,1.3c2.5-1.7,3.4-3.9,4.2-5.9c0.6-1.4,2.3-0.7,1.5,1.6c-1.9,5.6-5,7.8-10.5,8.9
		c-0.6,0.1-1,0.6-0.7,1.1c0.7,0.8,1.5,1.5,2.2,2.3c0,0-6.1,1.6-9.5,2.6l-4.7-3.2c0.3-1.2-1.7-2.6-3.2-1.4c-1.7-0.8-2.6-0.4-3.2,0.7
		c1.3-0.4,1.9-0.1,2.4,0.5c0.4,1.4,2.2,2.3,3.5,1.5l3.5,2.5l-5.9-0.2c-0.4-1.6-3.4-1.6-4.2-0.2c-1.1,0-1.8,0.6-2.1,2
		c1.2-0.9,1.7-0.8,2.3-0.6c0.7,1.2,3.1,1.2,3.7,0l5.7,0.2l-3.3,1.9c-1.9-1.1-4.4,0.6-3.9,2.3c-0.8,0.7-0.9,1.6-0.4,3
		c0.3-0.9,0.8-1.8,1.6-2.3c1.7,0.5,3.4-0.1,3.4-1.8l4.6-2.6l4.6,1.8c0,1.2,1.8,2.1,3.4,1.5c1.1,0.1,1.3,1.1,1.4,1.9
		c0.6-1.1,0.7-2.2-0.7-3.2c0-1.4-1.8-2.3-3.2-1.5l-3.9-1.4c3.5-1.1,9.9-2.3,9.9-2.3c0.9,0.8,1.6,1.4,2.4,2.2
		c0.5,0.3,1.1,0.3,1.8-0.7c2.2-3.2,4.2-9.1,7.4-9.9c1.2-0.3,2.5,0.5,2.2,3.1c-0.4,3.9-3.3,7.2-6.9,9.6c-2,1.3-2.9,0.7-4.4,0.7
		c-2,0.2-2.5,1.2-0.9,2.6c1.5,0.8,2.9,0.9,4,0.7c1-0.2,2.1-1.4,2.9-2.1c0.9-1.1,2.4,0.2,1.4,1.4c-1.9,2.3-3.7,3.7-6,3.7
		c-2.4,0.3-2,1.7-0.4,2.4c2.9,1.2,5.5-1.1,6.8-2.6c1-1.1,1.8-1.2,1.6,0.6c-1,3.2-2.4,4.4-4.6,4.6c-1.8-0.2-1.8,1.3-0.5,2.3
		c3,2.2,5.3-1.5,6.3-3.7c0.7-2,1.9-1.1,2,0.6c0,2.2-1.6,4.5-2.9,5.6C43.1,92.8,50,100,50,100s6.9-7.2,5.6-8.3
		c-1.3-1.1-2.9-3.4-2.9-5.6c0.1-1.6,1.2-2.6,2-0.6c1,2.2,3.2,5.9,6.3,3.7c1.3-1,1.3-2.4-0.5-2.3c-2.3-0.2-3.6-1.4-4.6-4.6
		c-0.2-1.8,0.5-1.7,1.6-0.6c1.3,1.5,3.9,3.8,6.8,2.6c1.6-0.7,2.1-2.1-0.4-2.4c-2.3,0-4.2-1.4-6-3.7c-1-1.3,0.5-2.5,1.4-1.4
		c0.8,0.7,1.9,2,2.9,2.1c1.1,0.2,2.5,0.1,4-0.7c1.7-1.4,1.1-2.4-0.9-2.6c-1.6,0.1-2.4,0.7-4.4-0.7c-3.6-2.4-6.5-5.7-6.9-9.6
		c-0.3-2.6,1.1-3.4,2.2-3.1c3.1,0.8,5.2,6.7,7.4,9.9c0.7,0.9,1.4,0.9,1.8,0.7c0.9-0.7,1.6-1.4,2.4-2.2c0,0,6.4,1.1,9.9,2.3l-3.9,1.4
		c-1.5-0.8-3.2,0.1-3.2,1.5c-1.4,1-1.3,2.1-0.7,3.2c0.2-0.8,0.3-1.7,1.4-1.9c1.6,0.6,3.4-0.3,3.4-1.5l4.6-1.8l4.6,2.6
		c0,1.8,1.7,2.3,3.4,1.8c0.8,0.5,1.3,1.4,1.6,2.3c0.5-1.4,0.4-2.3-0.4-3c0.5-1.8-2-3.5-3.9-2.3l-3.3-1.9l5.7-0.2
		c0.7,1.2,3,1.2,3.7,0c0.6-0.2,1.1-0.3,2.3,0.6C92.6,72.3,91.9,71.7,90.8,71.7z M64.9,10.2L64.9,10.2c1.1,0,1.8,0.3,1.8,0.8
		c0,0.5-0.7,0.9-1.8,0.9c-1.1,0-1.7-0.4-1.7-0.8C63.2,10.6,63.8,10.2,64.9,10.2z M35.1,11.9c-1.1,0-1.8-0.4-1.8-0.9
		c0-0.5,0.7-0.8,1.8-0.8v0c1.1,0,1.7,0.4,1.7,0.8C36.8,11.5,36.2,11.9,35.1,11.9z"/>
</g>
</svg>
