<?xml version="1.0" encoding="utf-8"?>
<!-- Generator: Adobe Illustrator 21.0.0, SVG Export Plug-In . SVG Version: 6.00 Build 0)  -->
<svg version="1.1" id="Layer_1" xmlns="http://www.w3.org/2000/svg" xmlns:xlink="http://www.w3.org/1999/xlink" x="0px" y="0px"
	 viewBox="0 0 100 100" enable-background="new 0 0 100 100" xml:space="preserve">
<path d="M50,0C22.5,0,0,22.5,0,50s22.5,50,50,50s50-22.5,50-50S77.5,0,50,0z M56.7,11.2C75.3,14.4,89.3,30.4,89.3,50
	c0,7.3-1.9,14-5.3,19.9L56.7,11.2z M43.3,11.2L16,69.9C12.6,64,10.7,57.3,10.7,50C10.7,30.4,24.7,14.4,43.3,11.2L43.3,11.2z
	 M50,22.2l12.7,27.2H37.3L50,22.2z M32.4,60h35.3l8.9,19.1c-7,6.4-16.3,10.2-26.5,10.2c-10.3,0-19.6-3.9-26.6-10.2L32.4,60z"/>
</svg>
