<?xml version="1.0" encoding="utf-8"?>
<!-- Generator: Adobe Illustrator 24.0.0, SVG Export Plug-In . SVG Version: 6.00 Build 0)  -->
<svg version="1.2" baseProfile="tiny" id="Layer_1" xmlns="http://www.w3.org/2000/svg" xmlns:xlink="http://www.w3.org/1999/xlink"
	 x="0px" y="0px" viewBox="0 0 100 100" xml:space="preserve">
<path d="M92.3,38.6v25.8c0,3.4-2.8,6.2-6.2,6.2c-3.4,0-6.2-2.8-6.2-6.2V38.6c0-3.4,2.8-6.2,6.2-6.2C89.5,32.5,92.3,35.2,92.3,38.6z
	 M13.9,32.5c-3.4,0-6.2,2.8-6.2,6.2v25.8c0,3.4,2.8,6.2,6.2,6.2s6.2-2.8,6.2-6.2V38.6C20.1,35.2,17.3,32.5,13.9,32.5z M77.6,31.3
	H22.4c0-9.5,5.7-17.8,14.1-22.2l-4.4-7.9c-0.2-0.4-0.1-1,0.3-1.2c0.4-0.2,1-0.1,1.2,0.3l4.4,8c3.6-1.6,7.7-2.5,11.9-2.5
	c4.3,0,8.3,0.9,11.9,2.5l4.4-8C66.5,0.2,66.8,0,67.1,0c0.1,0,0.3,0,0.4,0.1c0.4,0.2,0.6,0.8,0.3,1.2l-4.4,7.9
	C71.9,13.5,77.6,21.8,77.6,31.3z M39.6,18.9c0-1.3-1-2.3-2.3-2.3s-2.3,1-2.3,2.3s1,2.3,2.3,2.3S39.6,20.2,39.6,18.9z M65,18.9
	c0-1.3-1-2.3-2.3-2.3s-2.3,1-2.3,2.3s1,2.3,2.3,2.3S65,20.2,65,18.9z M22.4,73.5c0,3.7,3,6.7,6.7,6.7h4.4v13.6
	c0,3.4,2.8,6.2,6.2,6.2c3.4,0,6.2-2.8,6.2-6.2V80.2h8.2v13.6c0,3.4,2.8,6.2,6.2,6.2c3.4,0,6.2-2.8,6.2-6.2V80.2h4.4
	c3.7,0,6.7-3,6.7-6.7v-40H22.4V73.5z"/>
</svg>
