<?xml version="1.0" encoding="utf-8"?>
<!-- Generator: Adobe Illustrator 21.0.0, SVG Export Plug-In . SVG Version: 6.00 Build 0)  -->
<svg version="1.1" id="Layer_1" xmlns="http://www.w3.org/2000/svg" xmlns:xlink="http://www.w3.org/1999/xlink" x="0px" y="0px"
	 viewBox="0 0 100 100" style="enable-background:new 0 0 100 100;" xml:space="preserve">
<path d="M0,49.9C0,22.4,22.5-0.1,50.1,0c27.6,0.1,50,22.6,49.9,50.1c-0.1,27.6-22.6,50-50.2,49.9C22.3,99.9,0,77.4,0,49.9z
	 M20.3,83.5C38,99.6,66.7,99,83.7,79.6c16.7-19.1,13.1-45.3-0.2-59.2c-8,8-15.9,15.9-24.1,24.1c0.2,0.1,0.6,0.3,0.8,0.6
	c2.1,2,4.1,4.1,6.2,6.2c1.3,1.3,1.7,2.9,1.1,4.6c-0.2,0.6-0.6,1.2-0.9,1.8c3,3.6,3,3.8,0.7,6.7c0.3,0.3,0.5,0.6,0.8,0.8
	c3.6,3.6,7.3,7.3,10.9,10.9c0.3,0.3,0.5,0.5,0.7,0.8c0.5,0.8,0.4,1.5-0.2,2.1c-0.6,0.6-1.4,0.6-2.1,0.1c-0.3-0.2-0.5-0.5-0.8-0.7
	c-3.6-3.6-7.3-7.3-10.9-10.9c-0.3-0.3-0.6-0.5-0.9-0.8c-1,1.1-2.1,2-3.5,1.5c-1.2-0.4-2.2-1.4-3.3-2.1c-2.5,1.7-4.4,1.5-6.6-0.7
	c-2-2-3.9-3.9-5.9-5.9c-0.3-0.3-0.6-0.5-0.7-0.7C36.7,67.1,28.5,75.3,20.3,83.5z M28.7,20.7c2,2,3.9,3.9,5.8,5.8c2-2,4-4.1,6.1-6.1
	c1.1-1.1,2.4-1.2,3.2-0.3c0.9,0.9,0.8,2.2-0.3,3.2c-0.8,0.8-1.7,1.5-2.4,2.1c5.1,5.1,10,10,14.6,14.7c7.9-7.9,15.8-15.8,23.8-23.8
	c-17.5-16-46.7-15.6-63.9,4.7C-0.6,40.3,3.5,66.3,16.4,79.5c8.2-8.2,16.4-16.4,24.5-24.5c-4.7-4.7-9.6-9.6-14.6-14.7
	c-0.8,0.9-1.7,1.9-2.6,2.8c-0.7,0.7-1.6,0.8-2.5,0.3c-0.9-0.5-1.2-1.3-1-2.3c0.1-0.5,0.5-1,0.9-1.3c2-2,4.1-4,6.1-6
	c-2-2-3.9-3.8-5.9-5.8c-1.2,1.2-2.4,2.4-3.6,3.7c-1.1,1.1-2.3,1.2-3.2,0.3c-0.9-0.9-0.8-2.2,0.2-3.2c4.9-4.9,9.8-9.8,14.7-14.7
	c1.1-1.1,2.3-1.2,3.2-0.2c0.9,0.9,0.8,2.1-0.3,3.2C31.2,18.3,30,19.5,28.7,20.7z M29.2,38.1c4.8,4.8,9.6,9.6,14.4,14.4
	c3.1-3.2,6.4-6.4,9.5-9.5c-1.3-1.3-2.6-2.7-4.2-4.2c-1.1,1.1-2.2,2.3-3.4,3.5c-0.3,0.3-0.6,0.6-1,0.8c-0.8,0.3-1.5,0.1-2-0.6
	c-0.5-0.8-0.3-1.5,0.3-2.1c1.3-1.3,2.6-2.5,3.7-3.6c-0.9-1-1.7-1.8-2.6-2.8c-1.1,1.1-2.3,2.3-3.4,3.5c-0.3,0.3-0.6,0.6-0.9,0.7
	c-0.8,0.3-1.5,0.1-2-0.6c-0.5-0.8-0.4-1.5,0.3-2.1c1.3-1.3,2.6-2.5,3.8-3.7c-1.1-1.1-2.1-2.1-3-3C35.6,31.7,32.3,34.9,29.2,38.1z
	 M47.4,56.5c0,0,0,0.1,0.1,0.2c2.2,2.2,4.3,4.3,6.5,6.5c0.9,0.8,1.7,0.8,2.6-0.2c2.3-2.3,4.7-4.7,7-7c1-1,1-1.8,0-2.9c-2-2-4-4-6-6
	c-0.2-0.2-0.4-0.3-0.4-0.3C53.9,50,50.6,53.2,47.4,56.5z"/>
</svg>
