<?xml version="1.0" encoding="utf-8"?>
<!-- Generator: Adobe Illustrator 21.0.0, SVG Export Plug-In . SVG Version: 6.00 Build 0)  -->
<svg version="1.1" id="Layer_1" xmlns="http://www.w3.org/2000/svg" xmlns:xlink="http://www.w3.org/1999/xlink" x="0px" y="0px"
	 viewBox="0 0 100 100" style="enable-background:new 0 0 100 100;" xml:space="preserve">
<path d="M50.4,0C22.9-0.2-0.1,22.8,0,50.3c0.1,26.9,22.7,50,49.9,49.7c27.3,0.4,50-22.6,50.1-49.8C100.1,22.8,77.2,0.2,50.4,0z
	 M21.2,80.7C3.4,63.9,5.3,37.9,16.8,24.4c8.4,8.4,16.7,16.8,25.2,25.2c-0.3,0.3-0.8,0.9-1.4,1.5c-1,1-2,2-3.1,3
	c-1.6,1.6-1.8,1.7-0.6,3.7c0.7,1.3,0.4,2.2-0.4,3.3c-0.6,0.6-1.6,1.2-0.9,2.4c0.1,0.1-0.4,0.7-0.7,1c-3.8,3.8-7.6,7.6-11.4,11.5
	c-0.3,0.3-0.6,0.6-0.7,1.1c0.2-0.2,0.5-0.4,0.7-0.7c3.9-3.9,7.7-7.8,11.6-11.6c0.4-0.4,0.8-1,1.6-0.6c0.3,0.1,0.9-0.4,1.3-0.8
	c1.7-1.5,1.7-1.6,3.7-0.6c2.4,1.2,1.8,1,3.5-0.6c1.7-1.6,3.3-3.3,4.8-4.9C58.7,66,67.2,74.5,75.7,83C62.8,94.4,37.8,96.4,21.2,80.7z
	 M82,77.2C73.3,68.5,64.7,60,56.2,51.4c3.6-3.6,7.3-7.2,11.1-11c1.1,0.7,2.5,1.7,3.9,2.6c0.1-0.1,0.3-0.3,0.4-0.4
	c-0.5-2.3-2.4-3.8-3.6-5.6c3.4-3.4,6.8-6.7,10.2-10.1c1,0.8,2.2,1.7,3.5,2.7c-0.1-2-8.2-10.7-11.4-11.9c0.7,1,1.4,2.1,2.4,3.5
	c-3.4,3.3-6.8,6.6-10.2,9.9c-1.8-1.3-3.5-2.5-5.1-3.7c-0.1,0.1-0.3,0.3-0.4,0.4c0.2,1.6,1.5,2.7,2.3,4.2c-3.8,3.6-7.7,7.3-11.4,10.9
	c-8.1-8.1-16.5-16.5-25-25.1c10-8.5,21.9-11.7,34.8-9.1C74.8,12,86,22.5,90.6,39.2C94.4,53.1,91.4,66,82,77.2z"/>
</svg>
