<?xml version="1.0" encoding="utf-8"?>
<!-- Generator: Adobe Illustrator 21.0.0, SVG Export Plug-In . SVG Version: 6.00 Build 0)  -->
<svg version="1.1" id="Layer_1" xmlns="http://www.w3.org/2000/svg" xmlns:xlink="http://www.w3.org/1999/xlink" x="0px" y="0px"
	 viewBox="0 0 100 100" style="enable-background:new 0 0 100 100;" xml:space="preserve">
<path d="M50.1,0C22.3,0.1,0,22.4,0,50.1C0,77.6,22.5,100,50.1,100c27.6,0,49.9-22.4,49.9-50C100,22.3,77.6,0,50.1,0z M22,80.9
	C3.8,64.4,5.2,38.6,17.4,24.2c7.6,7.4,15.1,14.7,22.9,22.3c-4.4,4.1-8.6,8-12.8,11.9c0.1,0.2,0.3,0.3,0.4,0.5
	c-0.3-0.3-0.7-0.5-0.9-0.8c-0.8-1-1.4-0.9-2.2,0c-0.8,0.9-0.8,1.4,0.1,2.1c1.1,1,2.1,2.2,3.3,3.1c1.3,1,0.9,2.3,0.1,3.2
	c-1.5,1.7-3.1,3.2-5,5.1c-1.3-1.6-2.5-3-3.6-4.4c-1.2,1.2-2.1,2.1-2.9,3c4.2,4.1,8.4,8.3,12.6,12.5c0.8-0.8,1.7-1.7,2.7-2.7
	c-1.3-1.1-2.6-2.4-4.1-3.7c1.9-1.9,3.5-3.6,5.3-5.2c1-0.9,2.2-0.7,3.1,0.2c1.1,1,2.2,2,3.2,3.1c0.7,0.8,1.2,0.5,1.8-0.2
	c0.5-0.6,1.4-1.2,0.3-2c-0.3-0.2-0.5-0.5-0.6-0.6C45,67.3,49,63.2,53.1,59C61,66.7,68.8,74.3,76.6,82C64,93.5,39.5,96.8,22,80.9z
	 M50.5,38.3c0.9-0.6,1.4-1,2.1-1.4c0.4,0.3,1,0.9,1.7,1.6c0.4-0.3,0.7-0.7,1.1-1.1c-0.6-0.7-1.2-1.4-1.9-2.1c0.5-0.5,1-1,1.6-1.5
	c1.7,1.8,3.3,3.4,5,5.2c0.5-0.5,0.9-0.8,1.4-1.3c-1.8-1.6-3.5-3.2-5.2-4.7c1.6-2.9,2.9-3.1,4.9-1.1c2.2,2.2,4.4,4.4,6.6,6.6
	c1.1,1.1,1.2,2,0.2,3c-3.2,3.2-6.4,6.4-9.7,9.7c-3.4-3.6-6.6-7-9.9-10.5c-0.2,0.1-0.3,0.1-0.5,0.2c0.5-0.4,1-0.9,1.6-1.5
	c1.6,1.7,3.2,3.4,5,5.3c0.5-0.6,0.8-0.9,1.2-1.5C54.1,41.7,52.4,40.1,50.5,38.3z M51.4,58.3c-1.2,1.1-2.7,2.6-4.2,4.1
	c-2.2,2.1-4.3,4.3-6.4,6.5c-1,1-1.7,1-2.6,0c-2.4-2.5-5-4.8-7.5-7.2c-1.6-1.5-1.6-1.8,0-3.4c0.2-0.2,0.5-0.4,1-0.8
	c1.6,1.8,3.2,3.5,4.9,5.3c0.5-0.5,0.9-0.8,1.4-1.4c-1.8-1.6-3.6-3.2-5.4-4.7c0.9-0.9,1.4-1.5,2.1-2.1c0.6,0.6,1.2,1.1,1.8,1.7
	c1.3-0.9,1.3-0.9-0.4-3c0.4-0.5,0.8-1,1.3-1.6c1.7,1.8,3.3,3.5,5,5.3c0.6-0.6,1-0.9,1.4-1.3c-1.8-1.6-3.6-3.2-5.4-4.8
	c1-0.9,1.6-1.5,2.2-2.1c0.6,0.5,1.2,1,1.8,1.5c0.1-0.1,0.1-0.2,0.2-0.3c0.6,0.3,1.5,0.3,1.9,0.8C46.7,53.1,49,55.7,51.4,58.3z
	 M83,75.4c-7.7-7.6-15.4-15.2-23.2-22.9c1-1,1.9-2.1,2.9-3.1c2.2-2.2,4.5-4.4,6.7-6.6c1.7-1.7,1.7-3.7,0-5.5c-1-1-2.1-1.9-3.3-2.9
	c3.4-3.4,6.5-6.5,9.7-9.5c0.9-0.9,1.9-1.8,2.8-2.8c0.3-0.3,0.2-0.9,0.3-1.4c-0.5,0.1-1.2,0-1.5,0.3C73.4,24.6,69.7,28.3,66,32
	c-0.3,0.3-0.7,0.6-1.1,1.1c-1-1.1-2-2.1-3-3.1c-1.8-1.7-3.7-1.7-5.5,0c-2.9,2.8-5.7,5.7-8.5,8.6C47.5,39,47.3,39.5,47,40
	c-7.8-7.7-15.3-15.1-22.9-22.5c12.3-11,36.8-14.5,54.4,1.9C96.3,36.1,94.5,61.6,83,75.4z"/>
</svg>
