<?xml version="1.0" encoding="utf-8"?>
<!-- Generator: Adobe Illustrator 21.0.0, SVG Export Plug-In . SVG Version: 6.00 Build 0)  -->
<svg version="1.1" id="Layer_1" xmlns="http://www.w3.org/2000/svg" xmlns:xlink="http://www.w3.org/1999/xlink" x="0px" y="0px"
	 viewBox="0 0 100 100" style="enable-background:new 0 0 100 100;" xml:space="preserve">
<path d="M50,0c27.6,0,50.1,22.5,50,50.1c-0.1,27.6-22.6,50.1-50.1,49.9C22.3,99.9,0,77.6,0,50C0,22.5,22.5,0,50,0z M26.4,19
	c6.8,6.8,13.6,13.7,20.4,20.6c2.6-2.6,5.2-5.2,7.8-7.8c2.3-2.2,4-2.3,6.2,0c1.1,1.2,2,1.1,3.1,0c2.5-2.6,5.1-5.1,7.6-7.6
	c0.4-0.4,0.9-0.8,1.4-1.2c1.3-0.8,3.1-0.6,4,0.4c1,1.1,1.2,2.7,0.3,4c-0.3,0.5-0.7,1-1.2,1.4c-2.5,2.5-5,5-7.5,7.5
	c-1.5,1.5-1.5,1.7-0.1,3.3c2.2,2.3,2.2,3.8,0,6c-2.7,2.7-5.3,5.3-7.8,7.8c6.8,6.8,13.5,13.5,20.2,20.2c10.9-13,12.2-35.7-3.1-51.2
	C62.1,6.7,39.2,8.3,26.4,19z M19.1,26.2c-11.9,15-11.1,37.7,3.9,52c15.9,15.2,38.4,13.1,50.7,2.7C67,74.2,60.2,67.5,53.4,60.7
	c-2.6,2.6-5.3,5.3-8,8.1c-2.3,2.3-3.9,2.3-6.2,0c-1.3-1.3-1.7-1.3-3,0c-3.1,3.1-3.1,3.1-0.3,6.6c1.1,1.5,1.1,3.1-0.1,4.3
	c-1.3,1.3-3.1,1.5-4.4,0.2c-3.8-3.7-7.5-7.4-11.2-11.2c-1.2-1.3-1-3.1,0.3-4.4c1.2-1.2,2.8-1.2,4.2,0c0.6,0.5,1,1,1.6,1.5
	c1.4,1.3,2.3,1.3,3.7,0c0.4-0.4,0.8-0.8,1.2-1.2c1.8-1.8,1.8-1.8,0.1-3.8c-2-2.2-2-3.6,0.1-5.6c2.8-2.8,5.7-5.6,8.5-8.3
	C32.8,39.9,26,33.1,19.1,26.2z M58.9,41c-0.1,1.8-1.6,2.7-2.8,2c-0.7-0.4-1.2-1-1.7-1.6c-0.7-0.7-1.3-0.7-2,0
	c-0.7,0.7-1,1.3-0.2,2.1c1.2,1.1,2.3,2.3,3.5,3.4c0.7,0.7,1.3,0.6,2-0.1c1.7-1.7,3.3-3.3,5-5c0.8-0.8,0.7-1.4-0.1-2.1
	c-1-1-2-1.9-3-2.9c-0.7-0.7-1.4-1.3-2.4-0.3c-1,1-0.7,1.7,0.1,2.5C58,39.8,58.5,40.6,58.9,41z M43.8,56.8c-0.5,0.7-0.7,1.4-1.2,1.5
	c-0.7,0.2-1.5,0.2-2.2-0.1c-0.6-0.2-1-0.9-1.5-1.4c-0.7-0.7-1.3-0.7-2,0c-0.7,0.7-1,1.3-0.2,2.1c1.2,1.1,2.3,2.3,3.4,3.4
	c0.7,0.7,1.3,0.7,2,0c1.7-1.7,3.4-3.4,5.1-5.1c0.7-0.7,0.6-1.3-0.1-2c-1-1-2-2-3-3c-0.8-0.8-1.4-1.4-2.5-0.3
	c-1.1,1.1-0.5,1.8,0.3,2.6C42.8,55.2,43.2,56,43.8,56.8z"/>
</svg>
