<?xml version="1.0" encoding="utf-8"?>
<!-- Generator: Adobe Illustrator 21.0.0, SVG Export Plug-In . SVG Version: 6.00 Build 0)  -->
<svg version="1.1" id="Layer_1" xmlns="http://www.w3.org/2000/svg" xmlns:xlink="http://www.w3.org/1999/xlink" x="0px" y="0px"
	 viewBox="0 0 100 100" enable-background="new 0 0 100 100" xml:space="preserve">
<path d="M78,95.8c-5.4,5.2-11.4,4.4-17,2c-6-2.5-11.6-2.7-17.9,0c-7.9,3.4-12.2,2.4-16.9-2C-1,68,3,25.6,33.7,24
	c7.4,0.4,12.7,4.1,17,4.4c6.5-1.3,12.8-5.1,19.7-4.6c8.4,0.7,14.7,4,18.8,9.9C72.1,44.1,76.2,66.9,92,73.2
	C88.8,81.6,84.8,89.8,78,95.8L78,95.8z M50.1,23.7C49.3,11.4,59.4,1.2,70.9,0.2C72.5,14.5,57.9,25.1,50.1,23.7z"/>
</svg>
