<?xml version="1.0" encoding="utf-8"?>
<!-- Generator: Adobe Illustrator 21.0.0, SVG Export Plug-In . SVG Version: 6.00 Build 0)  -->
<svg version="1.1" id="Layer_1" xmlns="http://www.w3.org/2000/svg" xmlns:xlink="http://www.w3.org/1999/xlink" x="0px" y="0px"
	 viewBox="0 0 100 100" style="enable-background:new 0 0 100 100;" xml:space="preserve">
<g>
	<path d="M57.7,70.8L57.7,70.8C86,71.6,95,46.6,77.5,25.3l-1.7,2.4c1.1,9.9,2.8,19.8,2.9,30c-3.4,3.7-8.4,2.3-9.4-1.8
		c0-1.9-0.2-3.7-0.6-5.4c3.6-2.3,6.6-5.3,6.2-8c-0.8-5.3-3.8-8.5-7.1-4.5c-3.3,4.1-0.2,5.2,5.9,4.8c-0.4,1.7-2.8,3.8-5.6,5.5
		c-0.8-2.4-1.9-4.7-3.2-7l-1.4,2.4c0.8,1.8,1.7,3.7,2.3,5.8c-1.5,0.7-3.1,1.2-4.5,1.4c-0.1-6.1-0.3-12.2-0.9-18.2
		c2.9-3.2-0.3-3.1-1.4-6.5c-0.5,2-1.7,4.1-0.5,5.7c0.6,6.3,1.1,12.7,1.2,19.2c-3.5-0.1-5.5-2.8-2.6-10.3c-5.3,6.1-2.9,12.8,2.7,13.2
		c0,1,0,2,0,3c-2.5,1.8-4.8,3.2-6.7,4.1c-0.4-1.3-0.3-3.3,0.5-6c-1.6,2.5-2.2,4.8-2,6.6c-0.8,0.3-1.6,0.6-2.3,0.7
		c0.3-0.9,0.5-1.8,0.6-2.8c0.6-6.6-4.1-7-9.4-7c0.1-0.4,0.2-0.8,0.4-1.1v0c-0.2,0.4-0.4,0.8-0.6,1.1c-0.9,0-1.8,0-2.8,0
		c-1.6,0-3.4,0-4.9-0.6c1.2-1.4,2.6-2.4,3.9-3.2c1.2,0.9,2.4,1.7,3.9,1.9c4.4-0.8,5.6-3.1,7.1-5.2c0-3-0.1-8-0.8-13
		c3-3.1-0.2-3.1-1.1-6.6c-0.6,2-1.9,4.1-0.7,5.6c0.7,4.5,0.7,9.1,1,14c-2.6,1.9-4.8,2.1-7,2c2.5-1.2,4.4-1.9,4.8-3.6
		c-1.2-4.1-13.2-2.9-14.5,2.3c2.3-0.9,3.9-0.1,5.5,1.1c0,0,0,0,0,0c-1.4,1.7-2.6,3.3-3.6,4.9l0.5-0.8c-0.8-0.7-1.4-1.7-2.4-3.1
		c-0.1,0.6-1,1.7-0.9,2.9c0.6,0.8,1.1,1.8,1.9,2.6l0,0c0,0,0,0,0,0c-1,1.9-1.7,3.7-2.1,5.3c-0.1,0.1-0.2,0.2-0.3,0.3
		c-4.6,3.8-13.9,4-10-6.4c-5,6.9-1.4,11.3,3.8,11.7c1.6,0.1,4.1-0.9,6.2-2.5c0.1,5.5,4.5,8.4,9.4,8.4c4,0,8.3-1.9,10.7-5.5
		c0.1,0,0.3,0,0.4-0.1c1.2-0.2,2.6-0.6,3.9-1.1c2.1,3.5,8.6,2.8,15.6-7.2c2.3,10.7,11.4,4,12,1.7c1-7,0.5-18.3-1.5-27.2
		c7.9,12.4,8.2,21.4,4,27.4C77.6,65.1,67.5,68.2,57.7,70.8z M71.6,39.7c-0.2,0.3-1.9,0.7-2.9,0.1c-0.4-0.2,0.2-1.4,0.9-1.4v0
		C70.6,38.4,71.9,39,71.6,39.7z M39.5,44.6c-0.7,0.4-1.4,0.9-1.9,1.4c-1-0.5-1.6-0.9-2.3-1.4C35.9,44,38.5,43.6,39.5,44.6z
		 M48.6,59.3c-0.1,1.2-0.5,2.2-1,3.1c-0.4,0-0.8,0.1-1.2,0.1c-4.9,0-6.9-2.9-6.6-7C42.9,55.4,48.9,55.2,48.6,59.3z M31,54.1
		c0.4-0.7,0.9-1.3,1.3-1.9L31,54.1z M30.2,53.6l0.2-0.4C30.3,53.4,30.3,53.5,30.2,53.6L30.2,53.6z M30.5,55c0.2,1.3-0.3,2.1-1.2,3
		C29.7,56.8,30.1,55.8,30.5,55z M28.6,61.3c2-1.8,3.5-4.1,3.5-6.6c1.6,0.5,3.8,0.9,6.9,0.8c-1.9,6.2,1.5,9.3,6.5,9.5
		c-2.1,1.8-5,2.9-7.7,3C33.2,68.3,28.7,65.1,28.6,61.3z M54.6,62.7c2.6-1.3,5-3.1,6.8-5.2c0-1.3,0-2.5,0-3.8c1.4-0.3,3.3-1,5.2-2
		c0.3,1.3,0.6,2.7,0.7,4.2C62.4,61.2,57.2,63.9,54.6,62.7z"/>
	<polygon points="52.8,54 52.8,54 52.8,54 	"/>
	<path d="M50.6,25.2c-0.6,1.9-1.9,4.1-0.7,5.6c0.5,8.4,1,16.8,1.1,25.2c0.7-0.4,1.5-0.6,1.8-2c-0.1-7.9-0.2-16.8-1-22.3
		C54.8,28.7,51.6,28.6,50.6,25.2z"/>
	<path d="M36.1,32.8c-0.1-0.2-0.2-1-0.7-0.9c-2,3-4,4.6-6.2,4.6c-4.5,0.1-3.1-3.7-5.3-3.8c-2.5,0-4.8,3-5.8,4.7
		c-1.3,2.2-2.1,4.3-3.1,4.4c-1.4,0.1-2.7-2.9-2.9-7.9c-1.7,5.2,2.3,16.5,6.6,5.3c1.1-2.5,3.4-3.7,4.7-3.7c3.3,0.9,2.2,3.7,5.7,3.8
		c1.8,0,3.2-1.2,5.2-4.2c0.4-0.2,0.9,0.2,1,0.4c0.9,1.6,2.1,1.9,3.2,1.8c1.8-0.1,3.5-1.8,3.9-3.6c0-1.4-0.3-2.3-1-3.7l-1.2,2.3
		c0.7,0.2,0.6,1.1,0.8,1.7C38.4,36.7,36.4,33.8,36.1,32.8z"/>
	<path d="M27.4,18.9c0.2-0.4,0.5-0.3,0.6,0.1c1.7,3.6,5.2,4.8,9,5c3.2,0.2,7.2-1.1,11.5-3.3c1.1,1.1,2.1,2.5,4.5,2.7
		c0.9,0,1.8-0.1,2.6-0.4c0,0.3,0,0.6,0.1,0.8c0-0.1,0.3-1,0.3-1l0,0c1.7-0.7,3.2-2,3.6-3.5c0.3-1.2,0.4-3.5-1-3.6
		c-1.4,0-2.6,2.3-2.9,5.1l0-0.1c-2.4,1.1-4.1,0.1-5.1-0.9c1.7-0.3,3.1-0.9,3.5-2.1c-0.8-1.6-2.6-2.3-5.2-2.3
		c-3.5,0.1-5.3,1.4-5.5,3.1c1.6,0.1,3.1-0.4,3.7,1.1c-2.9,1.3-6.2,1.7-9.9,1.7c-6,0.3-6.9-2.2-8.4-4.3c-0.1-0.1-0.6-0.4-0.9-0.3
		c-1.8,0-3.2,5.9-5.3,5.8c-2.1-0.2-1.6-3.8-2.2-5.8C19.8,19.9,20.9,31.7,27.4,18.9z M58.4,17.4c0.2,1.3,0.3,2.1-1.6,2.9
		C57,19.1,57.2,18.1,58.4,17.4z M50.9,18.1c-0.8,0.2-1.2,0.4-1.6,0.7c-0.5-0.4-1.3-0.6-1.8-1.1C48.7,17.2,49.9,16.9,50.9,18.1z"/>
	<path d="M65.2,24.9l-0.3-0.1l0.4,1.6h0.3l-0.1-1.5c0.3,0.1,0.7,0.1,1,0.1c3.2-0.1,6.7-3,11.7-4.7c0.3-0.2,1.4-1.4,0.3-1.8
		c-2-0.5-4.1-0.9-5.7-1.4c-2-0.6-3.4-1.3-5.4-1.5c-2-0.2-4.3,1.1-4,3.5c0.1,1.2,0.5,2.1,0.9,3.2v0c-0.9-0.3-1.4-1-1.8-1.8
		c-0.1-4.6-0.3-9.2-0.6-13.6c-0.3,0.5-0.5,1-1.2,1.7c0.5,3.3,0.7,8.6,0.8,13.1C62.6,23.5,63.8,24.5,65.2,24.9z M66.9,17.2
		c2.7,0.7,5.2,1.5,7.6,2.4l-6.9,3c-2.7,0.7-2.3-1.4-2.6-2.7C64.6,18.5,64.8,16.8,66.9,17.2z"/>
	<polygon points="23.6,43.1 25.1,41.9 23.5,40.7 22.2,42 	"/>
	<polygon points="27.1,42.7 28.6,41.5 27,40.3 25.6,41.6 	"/>
	<polygon points="16,28.4 17.5,29.5 18.9,28.3 17.4,27.1 	"/>
	<polygon points="16.6,32.1 18.1,33.3 19.5,32.1 18,30.9 	"/>
	<polygon points="44,38.6 42.8,37.5 41.6,38.4 42.7,39.5 	"/>
	<polygon points="26.8,14.4 25.8,13.6 24.9,14.4 25.9,15.2 	"/>
	<polygon points="29.1,14.1 28.1,13.3 27.2,14.2 28.2,14.9 	"/>
	<polygon points="74.1,22.9 73.2,23.5 74,24.3 74.9,23.7 	"/>
	<path d="M82.6,14.4C89,21.2,92.9,30.2,92.9,40c0,21.8-19.2,39.5-42.9,39.5C26.3,79.5,7.1,61.8,7.1,40c0-9.8,3.9-18.8,10.3-25.7
		C6.8,22.7,0,35,0,48.8c0,25.1,22.4,45.5,50,45.5v0c27.6,0,50-20.4,50-45.5C100,35,93.2,22.7,82.6,14.4z"/>
</g>
</svg>
