<?xml version="1.0" encoding="utf-8"?>
<!-- Generator: Adobe Illustrator 21.0.0, SVG Export Plug-In . SVG Version: 6.00 Build 0)  -->
<svg version="1.1" id="Layer_1" xmlns="http://www.w3.org/2000/svg" xmlns:xlink="http://www.w3.org/1999/xlink" x="0px" y="0px"
	 viewBox="0 0 100 100" style="enable-background:new 0 0 100 100;" xml:space="preserve">
<g>
	<path d="M50,0C22.4,0,0,22.4,0,50s22.4,50,50,50s50-22.4,50-50S77.6,0,50,0z M78.3,83.3c-0.7-0.9-2.1-1.1-3-0.4
		c-0.9,0.7-1.1,2.1-0.4,3c-1.9,1.3-4,2.5-6.1,3.5c-0.5-1.1-1.7-1.6-2.8-1.1c-1.1,0.5-1.6,1.7-1.2,2.8c-2.2,0.8-4.5,1.4-6.8,1.8
		c-0.2-1.2-1.3-2-2.4-1.8c-1.2,0.2-2,1.2-1.9,2.4c-1.2,0.1-2.3,0.1-3.5,0.1s-2.4,0-3.5-0.1c0.1-1.2-0.7-2.2-1.9-2.4
		c-1.2-0.2-2.3,0.7-2.4,1.8c-2.4-0.4-4.6-1-6.8-1.8c0.4-1.1-0.1-2.4-1.2-2.8c-1.1-0.5-2.4,0.1-2.8,1.1c-2.1-1-4.2-2.2-6.1-3.5
		c0.7-1,0.5-2.3-0.4-3c-0.9-0.7-2.3-0.6-3,0.4c-0.9-0.8-1.8-1.6-2.6-2.4c-0.8-0.8-1.6-1.7-2.4-2.6c0.9-0.7,1.1-2.1,0.4-3
		c-0.7-0.9-2.1-1.1-3-0.4c-1.3-1.9-2.5-4-3.5-6.1c1.1-0.5,1.6-1.7,1.1-2.8c-0.5-1.1-1.7-1.6-2.8-1.2C8,62.5,7.4,60.2,7,57.9
		c1.2-0.2,2-1.3,1.8-2.4c-0.2-1.2-1.2-2-2.4-1.9c-0.1-1.2-0.1-2.3-0.1-3.5s0-2.4,0.1-3.5c1.2,0.1,2.2-0.7,2.4-1.9
		c0.2-1.2-0.7-2.3-1.8-2.4c0.4-2.4,1-4.6,1.8-6.8c1.1,0.4,2.4-0.1,2.8-1.2c0.5-1.1-0.1-2.4-1.1-2.8c1-2.1,2.2-4.2,3.5-6.1
		c1,0.7,2.3,0.5,3-0.4c0.7-0.9,0.6-2.3-0.4-3c0.8-0.9,1.6-1.8,2.4-2.6c0.8-0.8,1.7-1.6,2.6-2.4c0.7,0.9,2.1,1.1,3,0.4
		c0.9-0.7,1.1-2.1,0.4-3c1.9-1.3,4-2.5,6.1-3.5c0.5,1.1,1.7,1.6,2.8,1.1c1.1-0.5,1.6-1.7,1.2-2.8C37.5,8,39.8,7.4,42.1,7
		c0.2,1.2,1.3,2,2.4,1.8c1.2-0.2,2-1.2,1.9-2.4c1.2-0.1,2.3-0.1,3.5-0.1s2.4,0,3.5,0.1c-0.1,1.2,0.7,2.2,1.9,2.4
		c1.2,0.2,2.3-0.7,2.4-1.8c2.4,0.4,4.6,1,6.8,1.8c-0.4,1.1,0.1,2.4,1.2,2.8c1.1,0.5,2.4-0.1,2.8-1.1c2.1,1,4.2,2.2,6.1,3.5
		c-0.7,1-0.5,2.3,0.4,3c0.9,0.7,2.3,0.6,3-0.4c0.9,0.8,1.8,1.6,2.6,2.4c0.8,0.8,1.6,1.7,2.4,2.6c-0.9,0.7-1.1,2.1-0.4,3
		c0.7,0.9,2.1,1.1,3,0.4c1.3,1.9,2.5,4,3.5,6.1c-1.1,0.5-1.6,1.7-1.1,2.8c0.5,1.1,1.7,1.6,2.8,1.2c0.8,2.2,1.4,4.5,1.8,6.8
		c-1.2,0.2-2,1.3-1.8,2.4c0.2,1.2,1.2,2,2.4,1.9c0.1,1.2,0.1,2.3,0.1,3.5s0,2.4-0.1,3.5c-1.2-0.1-2.2,0.7-2.4,1.9
		c-0.2,1.2,0.7,2.3,1.8,2.4c-0.4,2.4-1,4.6-1.8,6.8c-1.1-0.4-2.4,0.1-2.8,1.2c-0.5,1.1,0.1,2.4,1.1,2.8c-1,2.1-2.2,4.2-3.5,6.1
		c-1-0.7-2.3-0.5-3,0.4c-0.7,0.9-0.6,2.3,0.4,3c-0.8,0.9-1.6,1.8-2.4,2.6C80.1,81.8,79.2,82.6,78.3,83.3z"/>
	<path d="M56.5,55.9c0.3-0.3,0.6-0.7,0.9-1.1l7.1,5.3l23.5,11.8l-22-14.4L57.8,54c0.2-0.4,0.4-0.8,0.5-1.3l8.2,3.3l25.7,5.3l-25-8.2
		l-8.7-1.3c0.1-0.4,0.1-0.9,0.2-1.4l8.8,1.1L93.8,50l-26.3-1.5l-8.8,1.1c0-0.5-0.1-0.9-0.2-1.4l8.7-1.3l25-8.2L66.5,44l-8.2,3.3
		c-0.1-0.4-0.3-0.9-0.5-1.3l8.1-3.5l22-14.4L64.4,40l-7.1,5.3c-0.3-0.4-0.5-0.8-0.9-1.1l6.9-5.5l17.5-19.6L61.3,36.6l-5.5,6.9
		c-0.3-0.3-0.7-0.6-1.1-0.9l5.3-7.1l11.8-23.5l-14.4,22L54,42.2c-0.4-0.2-0.8-0.4-1.3-0.5l3.3-8.2l5.3-25.7l-8.2,25l-1.3,8.7
		c-0.4-0.1-0.9-0.1-1.4-0.2l1.1-8.8L50,6.3l-1.5,26.3l1.1,8.8c-0.5,0-0.9,0.1-1.4,0.2l-1.3-8.7l-8.2-25L44,33.5l3.3,8.2
		c-0.4,0.1-0.9,0.3-1.3,0.5l-3.5-8.1l-14.4-22L40,35.6l5.3,7.1c-0.4,0.3-0.8,0.5-1.1,0.9l-5.5-6.9L19.1,19.1l17.5,19.6l6.9,5.5
		c-0.3,0.3-0.6,0.7-0.9,1.1L35.6,40L12.1,28.1l22,14.4l8.1,3.5c-0.2,0.4-0.4,0.8-0.5,1.3L33.5,44L7.7,38.7l25,8.2l8.7,1.3
		c-0.1,0.4-0.1,0.9-0.2,1.4l-8.8-1.1L6.3,50l26.3,1.5l8.8-1.1c0,0.5,0.1,0.9,0.2,1.4l-8.7,1.3l-25,8.2L33.5,56l8.2-3.3
		c0.1,0.4,0.3,0.9,0.5,1.3l-8.1,3.5l-22,14.4L35.6,60l7.1-5.3c0.3,0.4,0.5,0.8,0.9,1.1l-6.9,5.5L19.1,80.9l19.6-17.5l5.5-6.9
		c0.3,0.3,0.7,0.6,1.1,0.9L40,64.4L28.1,87.9l14.4-22l3.5-8.1c0.4,0.2,0.8,0.4,1.3,0.5L44,66.5l-5.3,25.7l8.2-25l1.3-8.7
		c0.4,0.1,0.9,0.1,1.4,0.2l-1.1,8.8L50,93.8l1.5-26.3l-1.1-8.8c0.5,0,0.9-0.1,1.4-0.2l1.3,8.7l8.2,25L56,66.5l-3.3-8.2
		c0.4-0.1,0.9-0.3,1.3-0.5l3.5,8.1l14.4,22L60,64.4l-5.3-7.1c0.4-0.3,0.8-0.5,1.1-0.9l5.5,6.9l19.6,17.5L63.4,61.3L56.5,55.9z"/>
</g>
</svg>
