<?xml version="1.0" encoding="utf-8"?>
<!-- Generator: Adobe Illustrator 24.0.0, SVG Export Plug-In . SVG Version: 6.00 Build 0)  -->
<svg version="1.2" baseProfile="tiny" id="svg1096" xmlns:svg="http://www.w3.org/2000/svg"
	 xmlns="http://www.w3.org/2000/svg" xmlns:xlink="http://www.w3.org/1999/xlink" x="0px" y="0px" viewBox="0 0 100 100"
	 xml:space="preserve">
<path fill="#FFCC00" d="M80.9,29.7c-0.4-1.4-2.6-1.6-2.6-1.6s2.5-3,2.2-6.9c-0.9-8.7-10.9-7.5-10.8-7.5c0,0-1.7-2.6-3.8-3
	c-2.5-0.4-5.1,1-8.5,1.4c-2.9,0.4-4.8,0.4-5.9-0.4c-0.6-0.5-1.3-2.1-1.8-2.9V4.5h2.4V3.8h-2.4v-3H49v3h-2.5v0.7H49v4.3
	c-0.4,0.8-1.2,2.5-2,2.9c-1.1,0.7-2.9,0.7-5.9,0.4c-3.3-0.4-5.9-1.8-8.5-1.4c-2.2,0.4-3.8,3-3.8,3c0.1,0-9.9-1.2-10.8,7.5
	c-0.4,3.7,2.2,6.9,2.2,6.9s-2.3,0-2.6,1.6c-0.4,1.5,1.4,2.6,2.6,2.6c1.3,0,2.9-0.2,5,2.3c1.5,1.8,2.5,4.9,3,6.4H22v49.5
	c0,2.6,1.5,5.3,4.7,5.3h20.1l2.6,3l1-0.9c0,0,1.6-1.9,1.8-2.1h20.1c3.3,0,4.8-2.8,4.8-5.3V41h-6.7c0.5-1.5,1.5-4.6,2.9-6.4
	c2.1-2.5,3.6-2.3,5-2.3C79.7,32.3,81.3,31.1,80.9,29.7z M74.6,90.5c0,0.3,0,2.9-2.4,2.9H52.1c-0.6,0-1.3,0.3-1.7,0.8
	c-0.1,0.1-0.6,0.6-1,1.1l-1-1.1c-0.4-0.5-1-0.8-1.7-0.8H26.6c-2.4,0-2.5-2.4-2.5-2.9V43.3h50.5V90.5z M29.9,41
	c1.5-0.9,4.3-2.2,8.2-3.4c6.3-1.9,16.1-1.9,22.3,0c3.8,1.2,6.6,2.5,8.2,3.4H29.9z"/>
<path fill="#D81E05" d="M52,32.6c0,1-1.2,1.9-2.7,1.9c-1.5,0-2.7-0.9-2.7-1.9c0-1,1.2-1.9,2.7-1.9C50.8,30.7,52,31.6,52,32.6z
	 M55.1,28.7c1.3-1.3,2-3.5,1.6-5.1c-0.5-1.6-1.8-1.9-3.2-0.7c-1.4,1.2-2.1,3.4-1.6,5.1C52.4,29.6,53.8,29.9,55.1,28.7z M72.5,31.8
	c0.9-0.6,1.5-1.8,1.2-2.6c-0.2-0.9-1.2-0.9-2.1-0.4c-0.9,0.5-1.5,1.7-1.2,2.6C70.6,32.3,71.6,32.4,72.5,31.8z M64.1,35.3
	c0.7-0.8,0.1-2-1.2-2.7c-1.2-0.7-2.9-0.6-3.6,0.3c-0.7,0.9-0.1,2,1.2,2.7C61.8,36.3,63.5,36.1,64.1,35.3z M42.4,23.4
	C42,25,42.7,27.2,44,28.5c1.3,1.2,2.7,0.9,3.2-0.7c0.5-1.6-0.3-3.9-1.6-5.1C44.3,21.5,42.9,21.8,42.4,23.4z M24.2,90.7
	c0,0.5,0.1,2.9,2.5,2.9h20.1c0.7,0,1.3,0.3,1.7,0.8l0.9,1l0.2,0c0.4-0.5,0.8-0.9,0.9-1c0.4-0.5,1.1-0.8,1.7-0.8h20.1
	c1.6,0,2.1-1.1,2.3-2l-0.1-48.3H24v36.2 M71.7,25.7c1.3,0.6,2.9,1,4.6,0.6c1.7-0.4,3-4.7,1.7-7.3c-1.3-2.8-5.9-3.2-7.4-2.4
	c-0.8,0.4-2.7,5.3-2.7,6.3C68,23.7,70.4,25.1,71.7,25.7z M28.7,31.3c0.3-0.9-0.3-2.1-1.2-2.6c-0.9-0.6-1.9-0.5-2.1,0.4
	c-0.3,0.7,0.3,1.9,1.2,2.6C27.5,32.3,28.5,32.2,28.7,31.3z M38.6,35.4c1.3-0.6,1.9-1.8,1.2-2.7c-0.7-0.8-2.3-0.9-3.6-0.3
	c-1.3,0.6-1.9,1.8-1.2,2.7C35.6,35.9,37.2,36.1,38.6,35.4z M78.8,28.7c-0.3-1-1.4-1.1-2.4-0.4c-1,0.6-1.6,2-1.4,3
	c0.3,1,1.3,1.1,2.4,0.4C78.5,31.1,79.1,29.7,78.8,28.7z M35.1,27c0.5-0.9,0.3-2.4-0.4-3.2c-0.8-1-1.8-1.1-2.4-0.2
	c-0.6,0.7-0.4,2.2,0.4,3.2S34.5,27.9,35.1,27z M22.7,26.1c1.7,0.4,3.3-0.1,4.6-0.6s3.7-1.9,3.8-2.8c0.1-0.9-1.8-5.8-2.7-6.3
	c-1.4-0.7-6-0.3-7.4,2.4C19.8,21.5,21,25.7,22.7,26.1z M29.2,26.9c-0.3,0.7,0.3,2,1.2,2.6c0.9,0.6,1.9,0.5,2.1-0.4
	c0.2-0.8-0.3-2-1.2-2.6C30.4,25.9,29.4,26,29.2,26.9z M24.1,31.2c0.2-1-0.3-2.4-1.4-3c-1-0.7-2.1-0.6-2.4,0.4
	c-0.3,0.9,0.3,2.3,1.4,3C22.7,32.3,23.8,32.2,24.1,31.2z M64.4,23.9c-0.7,0.8-0.9,2.3-0.4,3.2c0.6,0.9,1.5,0.8,2.4-0.2
	c0.8-0.9,1-2.4,0.4-3.2C66.2,22.8,65.2,22.9,64.4,23.9z M59,22.7c0,0.1-0.1,0.1-0.1,0.1c-1.1,1.2-1.3,3.5-0.5,5.1
	c0.8,1.6,2.3,1.9,3.3,0.7c1.1-1.3,1.3-3.5,0.5-5.1c-0.2-0.3-0.4-0.6-0.6-0.8c1.5-0.3,2.5-1.2,2.5-1.2c1.9-2.6,4-6.7,2.1-8
	s-6.4,0.8-10.9,0.8c-2.5,0-4.7-0.8-4.7-0.8s-0.1,3.9,0.6,5.4C51.9,20.2,56.4,22.1,59,22.7z M66.6,29.3c0.2,0.8,1.2,0.9,2.1,0.4
	c0.9-0.5,1.5-1.8,1.2-2.6c-0.2-0.9-1.2-1-2.1-0.4C66.9,27.2,66.4,28.5,66.6,29.3z M37.6,22.5c-0.2,0.2-0.5,0.5-0.7,0.9
	c-0.8,1.6-0.6,3.8,0.5,5.1c0.9,1.2,2.5,0.9,3.3-0.7c0.8-1.6,0.6-4-0.5-5.1c-0.1-0.1-0.1-0.2-0.2-0.2c2.7-0.5,7.2-2.4,7.9-3.8
	c0.7-1.4,0.6-5.4,0.6-5.4s-2.2,0.8-4.7,0.8c-4.5,0-9-2.1-10.9-0.8c-1.8,1.2,0.2,5.4,2.1,8C35,21.3,35.9,22.2,37.6,22.5z M47.4,23.2
	c0,1.4,0.9,2.5,1.9,2.5c1,0,1.9-1.1,1.9-2.5c0-1.4-0.9-2.5-1.9-2.5C48.3,20.7,47.4,21.8,47.4,23.2z"/>
<path fill="#FFFFFF" d="M26.5,37c0-0.8,0.7-1.5,1.5-1.5c0.8-0.1,1.5,0.6,1.5,1.5c0,0.8-0.7,1.5-1.5,1.5S26.5,37.8,26.5,37z M28,12.5
	c0.8,0,1.5-0.7,1.5-1.5S28.8,9.5,28,9.5s-1.5,0.7-1.5,1.5S27.2,12.5,28,12.5z M28,25.2c-0.8,0-1.5,0.7-1.5,1.5
	c0,0.8,0.7,1.5,1.5,1.5s1.5-0.7,1.5-1.5C29.5,25.8,28.8,25.2,28,25.2z M37.5,10.3c0.8,0,1.5-0.7,1.5-1.5c0-0.9-0.6-1.4-1.5-1.5
	C36.8,7.3,36,8,36,8.8S36.8,10.3,37.5,10.3z M17.8,20.8c0-0.8-0.6-1.5-1.5-1.5c-0.8,0-1.5,0.7-1.5,1.5c0,0.8,0.7,1.5,1.5,1.5
	S17.8,21.7,17.8,20.8z M46.5,11.3c0.8,0,1.5-0.7,1.5-1.5c-0.1-0.9-0.7-1.6-1.5-1.5C45.7,8.3,45,9,45,9.8S45.7,11.3,46.5,11.3z
	 M42,11.3c0.8,0,1.5-0.7,1.5-1.5c-0.1-0.9-0.7-1.5-1.5-1.5S40.5,9,40.5,9.8S41.3,11.3,42,11.3z M42,24.5c0.8,0,1.5-0.7,1.5-1.5
	s-0.7-1.5-1.5-1.5s-1.5,0.7-1.5,1.5S41.2,24.5,42,24.5z M32.5,10.3c0.8,0,1.5-0.7,1.5-1.5c0-0.9-0.7-1.5-1.5-1.5S31,8,31,8.8
	S31.8,10.3,32.5,10.3z M16.8,24.5c-0.8,0-1.5,0.7-1.5,1.5s0.7,1.5,1.5,1.5s1.5-0.7,1.5-1.5S17.5,24.5,16.8,24.5z M22.7,10.7
	c-0.8,0-1.5,0.7-1.5,1.5c0,0.8,0.7,1.5,1.5,1.5c0.8,0,1.5-0.7,1.5-1.5C24.2,11.3,23.5,10.7,22.7,10.7z M18,14.3
	c-0.8,0-1.5,0.7-1.5,1.5s0.7,1.5,1.5,1.5s1.5-0.7,1.5-1.5S18.8,14.3,18,14.3z M24.1,76.8h50.5V60l-50.5,0.1V76.8z M58,11.5
	c0.8,0,1.5-0.7,1.5-1.5S58.8,8.5,58,8.5S56.5,9,56.5,10C56.5,10.7,57.2,11.5,58,11.5z M62.5,10.5c0.8,0,1.5-0.7,1.5-1.5
	s-0.7-1.5-1.5-1.5C61.7,7.5,61,8,61,9C61,9.8,61.8,10.5,62.5,10.5z M67.5,10.5c0.8,0,1.5-0.7,1.5-1.5s-0.7-1.5-1.5-1.5S66,8,66,9
	C66,9.8,66.7,10.5,67.5,10.5z M72,12.5c0.8,0,1.5-0.7,1.5-1.5S72.8,9.5,72,9.5s-1.5,0.7-1.5,1.5S71.3,12.5,72,12.5z M72,28.3
	c0.8,0,1.5-0.7,1.5-1.5s-0.7-1.5-1.5-1.5s-1.5,0.7-1.5,1.5S71.2,28.3,72,28.3z M72.2,35.5c-0.8-0.1-1.5,0.6-1.5,1.5
	c0,0.8,0.7,1.5,1.5,1.5c0.8,0,1.5-0.7,1.5-1.5S73,35.5,72.2,35.5z M83.7,15.8c0-0.8-0.7-1.5-1.5-1.5c-0.8,0-1.5,0.7-1.5,1.5
	c0,0.8,0.6,1.5,1.5,1.5C83,17.3,83.7,16.7,83.7,15.8z M77.3,10.8c-0.8,0-1.5,0.7-1.5,1.5s0.7,1.5,1.5,1.5c0.8,0,1.5-0.7,1.5-1.5
	S78.2,10.8,77.3,10.8z M83.3,24.5c-0.8,0-1.5,0.7-1.5,1.5s0.7,1.5,1.5,1.5s1.5-0.7,1.5-1.5S84,24.5,83.3,24.5z M58,21.7
	c-0.8-0.1-1.5,0.6-1.5,1.5c0,0.8,0.7,1.5,1.5,1.5s1.5-0.7,1.5-1.5C59.5,22.3,58.8,21.7,58,21.7z M53.5,11.5c0.8,0,1.5-0.7,1.5-1.5
	s-0.7-1.5-1.5-1.5C52.8,8.3,52.2,9,52,10C52,10.7,52.8,11.5,53.5,11.5z M83.8,19.5c-0.9,0-1.5,0.7-1.5,1.5s0.7,1.5,1.5,1.5
	s1.5-0.7,1.5-1.5S84.5,19.5,83.8,19.5z"/>
</svg>
