<?xml version="1.0" encoding="utf-8"?>
<!-- Generator: Adobe Illustrator 21.0.0, SVG Export Plug-In . SVG Version: 6.00 Build 0)  -->
<svg version="1.1" id="Layer_1" xmlns="http://www.w3.org/2000/svg" xmlns:xlink="http://www.w3.org/1999/xlink" x="0px" y="0px"
	 viewBox="0 0 100 100" style="enable-background:new 0 0 100 100;" xml:space="preserve">
<g>
	<g>
		<path d="M75.8,46.3c5.4-2.7,8.7-7.5,7.9-15.5c-1.1-10.9-10.5-14.6-22.4-15.6l0-15.1h-9.2l0,14.7c-2.4,0-4.9,0-7.4,0.1l0-14.8
			l-9.2,0l0,15.1c-2,0-4,0.1-5.9,0.1v0l-12.7,0l0,9.8c0,0,6.8-0.1,6.7,0c3.7,0,5,2.2,5.3,4l0,17.3v24.2c-0.2,1.2-0.9,3.1-3.5,3.1
			c0.1,0.1-6.7,0-6.7,0l-1.8,11h12c2.2,0,4.4,0,6.6,0.1l0,15.3l9.2,0l0-15.2c2.5,0.1,5,0.1,7.4,0.1l0,15.1h9.2l0-15.3
			c15.5-0.9,26.4-4.8,27.7-19.4C90.1,53.6,84.6,48.4,75.8,46.3z M44.9,25.7c5.2,0,21.6-1.7,21.6,9.2c0,10.4-16.4,9.2-21.6,9.2V25.7z
			 M44.9,73.7l0-20.3c6.3,0,25.9-1.8,25.9,10.1C70.8,75,51.2,73.7,44.9,73.7z"/>
	</g>
</g>
</svg>
