<?xml version="1.0" encoding="utf-8"?>
<!-- Generator: Adobe Illustrator 24.0.0, SVG Export Plug-In . SVG Version: 6.00 Build 0)  -->
<svg version="1.2" baseProfile="tiny" id="Layer_1" xmlns="http://www.w3.org/2000/svg" xmlns:xlink="http://www.w3.org/1999/xlink"
	 x="0px" y="0px" viewBox="0 0 100 100" xml:space="preserve">
<path fill="#003E9E" d="M13.9,1.2h72.1l0,42.3c0,31.5-33.8,53.7-36.1,55c-2.3-1.3-36-23.3-36-55L13.9,1.2z"/>
<path fill="#FFFFFF" d="M16.9,4.4l0,6l54.6,62.8l4.6-7L22.4,4.3L16.9,4.4z"/>
<path fill="#EECA00" d="M50,100l-0.6-0.4C49,99.4,12.7,77,12.7,43.6V0h74.6v43.6c0,33.4-36.4,55.9-36.7,56.1L50,100z M15.2,2.5v41.1
	c0,29.7,30,50.4,34.8,53.5c4.7-3.1,34.9-24.4,34.9-53.5V2.5H15.2z M73.2,7.7c-1.1,0.6-2.3,1.7-2.3,3.9c0.1,1.9,1.8,6.5,1.6,8.6h-0.1
	c-0.1-0.3-0.1-2-1.1-3.7c-1-1.9-1.8-1.7-2.5-1.7c-1.2,0-2.3,1.2-2.3,2.6c0,1.2,1.2,2.8,2.3,2.8c-0.4-0.3-0.5-1.1-0.4-1.5
	c0-0.3,0.7-0.8,1.1-0.8c0.5,0.2,1,0.5,1.4,0.9c0.4,0.5,0.7,0.9,1,1.4h-1.6c-0.4,0-0.7,0.3-0.7,0.6c0,0.5,0.3,0.6,0.7,0.6h1.6
	c1.1,0.2,0.1,2-0.1,2.3l0.7,0.8c0.1,0.3,0.3,0.6,0.3,1.1c0.1,0.3,0.3,0.5,0.5,0.5c0.3,0,0.3-0.2,0.4-0.5c0.1-0.5,0.1-0.8,0.4-1.1
	c0.1-0.3,0.4-0.5,0.5-0.8c-0.1-0.3-1.2-2.2,0-2.3H76c0.4,0,0.7-0.2,0.7-0.6c0-0.3-0.3-0.6-0.7-0.6h-1.4c0.1-0.5,0.5-0.9,0.7-1.4
	c0.4-0.5,0.8-0.8,1.4-0.9c0.5,0,1.1,0.5,1.2,0.8c0.1,0.3,0,1.2-0.4,1.5c1.1,0,2.3-1.5,2.3-2.8c0-1.4-1.1-2.6-2.3-2.6
	c-0.7,0-1.5-0.2-2.5,1.7c-1,1.7-1,3.4-1,3.7h-0.3c0-2.2,1.5-6.8,1.6-8.6C75.3,9.4,74.2,8.3,73.2,7.7L73.2,7.7z M51.6,7.7
	c-1.1,0.6-2.3,1.7-2.3,3.9c0.1,1.9,1.8,6.5,1.6,8.6h-0.1c-0.1-0.3-0.1-2-1.1-3.7c-1-1.9-1.8-1.7-2.5-1.7c-1.2,0-2.3,1.2-2.3,2.6
	c0,1.2,1.2,2.8,2.3,2.8c-0.4-0.3-0.5-1.1-0.4-1.5c0-0.3,0.7-0.8,1.1-0.8c0.5,0.2,1,0.5,1.4,0.9c0.4,0.5,0.7,0.9,1,1.4h-1.6
	c-0.4,0-0.7,0.3-0.7,0.6c0,0.5,0.3,0.6,0.7,0.6h1.6c1.1,0.2,0.1,2-0.1,2.3l0.7,0.8c0.1,0.3,0.3,0.6,0.3,1.1c0.1,0.3,0.3,0.5,0.5,0.5
	s0.3-0.2,0.4-0.5c0.1-0.5,0.1-0.8,0.4-1.1c0.1-0.3,0.4-0.5,0.5-0.8c-0.1-0.3-1.2-2.2,0-2.3h1.4c0.4,0,0.7-0.2,0.7-0.6
	c0-0.3-0.3-0.6-0.7-0.6H53c0.1-0.5,0.5-0.9,0.7-1.4c0.4-0.5,0.8-0.8,1.4-0.9c0.5,0,1.1,0.5,1.2,0.8c0.1,0.3,0,1.2-0.4,1.5
	c1.1,0,2.3-1.5,2.3-2.8c0-1.4-1.1-2.6-2.3-2.6c-0.7,0-1.5-0.2-2.5,1.7c-1,1.7-1,3.4-1,3.7h-0.3c0-2.2,1.5-6.8,1.6-8.6
	C53.7,9.4,52.6,8.3,51.6,7.7L51.6,7.7z M73.2,32.7c-1.1,0.6-2.3,1.7-2.3,3.9c0.1,1.9,1.8,6.5,1.6,8.6h-0.1c-0.1-0.3-0.1-2-1.1-3.7
	c-1-1.9-1.8-1.7-2.5-1.7c-1.2,0-2.3,1.2-2.3,2.6c0,1.2,1.2,2.8,2.3,2.8c-0.4-0.3-0.5-1.1-0.4-1.5c0-0.3,0.7-0.8,1.1-0.8
	c0.5,0.2,1,0.5,1.4,0.9c0.4,0.5,0.7,0.9,1,1.4h-1.6c-0.4,0-0.7,0.3-0.7,0.6c0,0.5,0.3,0.6,0.7,0.6h1.6c1.1,0.2,0.1,2-0.1,2.3
	l0.7,0.8c0.1,0.3,0.3,0.6,0.3,1.1c0.1,0.3,0.3,0.5,0.5,0.5c0.3,0,0.3-0.2,0.4-0.5c0.1-0.5,0.1-0.8,0.4-1.1c0.1-0.3,0.4-0.5,0.5-0.8
	c-0.1-0.3-1.2-2.2,0-2.3H76c0.4,0,0.7-0.2,0.7-0.6c0-0.3-0.3-0.6-0.7-0.6h-1.4c0.1-0.5,0.5-0.9,0.7-1.4c0.4-0.5,0.8-0.8,1.4-0.9
	c0.5,0,1.1,0.5,1.2,0.8c0.1,0.3,0,1.2-0.4,1.5c1.1,0,2.3-1.5,2.3-2.8c0-1.4-1.1-2.6-2.3-2.6c-0.7,0-1.5-0.2-2.5,1.7
	c-1,1.7-1,3.4-1,3.7h-0.3c0-2.2,1.5-6.8,1.6-8.6C75.3,34.4,74.2,33.4,73.2,32.7L73.2,32.7z M26,32.7c-1.1,0.6-2.3,1.7-2.3,3.9
	c0.1,1.9,1.8,6.5,1.6,8.6h-0.1c-0.1-0.3-0.1-2-1.1-3.7c-1-1.9-1.8-1.7-2.5-1.7c-1.2,0-2.3,1.2-2.3,2.6c0,1.2,1.2,2.8,2.3,2.8
	c-0.4-0.3-0.5-1.1-0.4-1.5c0-0.3,0.7-0.8,1.1-0.8c0.5,0.2,1,0.5,1.4,0.9c0.4,0.5,0.7,0.9,1,1.4H23c-0.4,0-0.7,0.3-0.7,0.6
	c0,0.5,0.3,0.6,0.7,0.6h1.6c1.1,0.2,0.1,2-0.1,2.3l0.7,0.8c0.1,0.3,0.3,0.6,0.3,1.1c0.1,0.3,0.3,0.5,0.5,0.5c0.3,0,0.3-0.2,0.4-0.5
	c0.1-0.5,0.1-0.8,0.4-1.1c0.1-0.3,0.4-0.5,0.5-0.8c-0.1-0.3-1.2-2.2,0-2.3h1.4c0.4,0,0.7-0.2,0.7-0.6c0-0.3-0.3-0.6-0.7-0.6h-1.4
	c0.1-0.5,0.5-0.9,0.7-1.4c0.4-0.5,0.8-0.8,1.4-0.9c0.5,0,1.1,0.5,1.2,0.8c0.1,0.3,0,1.2-0.4,1.5c1.1,0,2.3-1.5,2.3-2.8
	c0-1.4-1.1-2.6-2.3-2.6c-0.7,0-1.5-0.2-2.5,1.7c-1,1.7-1,3.4-1,3.7h-0.3c0-2.2,1.5-6.8,1.6-8.6C28.1,34.4,27,33.4,26,32.7L26,32.7z
	 M38.6,50.8c-1.1,0.6-2.3,1.7-2.3,3.9c0.1,1.9,1.8,6.5,1.6,8.6h-0.1c-0.1-0.3-0.1-2-1.1-3.7c-1-1.9-1.8-1.7-2.5-1.7
	c-1.2,0-2.3,1.2-2.3,2.6c0,1.2,1.2,2.8,2.3,2.8c-0.4-0.3-0.5-1.1-0.4-1.5c0-0.3,0.7-0.8,1.1-0.8c0.5,0.2,1,0.5,1.4,0.9
	c0.4,0.5,0.7,0.9,1,1.4h-1.6c-0.4,0-0.7,0.3-0.7,0.6c0,0.5,0.3,0.6,0.7,0.6h1.6c1.1,0.2,0.1,2-0.1,2.3l0.7,0.8
	c0.1,0.3,0.3,0.6,0.3,1.1c0.1,0.3,0.3,0.5,0.5,0.5c0.3,0,0.3-0.2,0.4-0.5c0.1-0.5,0.1-0.8,0.4-1.1c0.1-0.3,0.4-0.5,0.5-0.8
	c-0.1-0.3-1.2-2.2,0-2.3h1.4c0.4,0,0.7-0.2,0.7-0.6c0-0.3-0.3-0.6-0.7-0.6H40c0.1-0.5,0.5-0.9,0.7-1.4c0.4-0.5,0.8-0.8,1.4-0.9
	c0.5,0,1.1,0.5,1.2,0.8c0.1,0.3,0,1.2-0.4,1.5c1.1,0,2.3-1.5,2.3-2.8c0-1.4-1.1-2.6-2.3-2.6c-0.7,0-1.5-0.2-2.5,1.7
	c-1,1.7-1,3.4-1,3.7h-0.3c0-2.2,1.5-6.8,1.6-8.6C40.6,52.5,39.5,51.4,38.6,50.8L38.6,50.8z M50.1,68.8c-1.1,0.6-2.3,1.7-2.3,3.9
	c0.1,1.9,1.8,6.5,1.6,8.6h-0.1c-0.1-0.3-0.1-2-1.1-3.7c-1-1.9-1.8-1.7-2.5-1.7c-1.2,0-2.3,1.2-2.3,2.6c0,1.2,1.2,2.8,2.3,2.8
	c-0.4-0.3-0.5-1.1-0.4-1.5c0-0.3,0.7-0.8,1.1-0.8c0.5,0.2,1,0.5,1.4,0.9c0.4,0.5,0.7,0.9,1,1.4h-1.6c-0.4,0-0.7,0.3-0.7,0.6
	c0,0.5,0.3,0.6,0.7,0.6h1.6c1.1,0.2,0.1,2-0.1,2.3l0.7,0.8c0.1,0.3,0.3,0.6,0.3,1.1c0.1,0.3,0.3,0.5,0.5,0.5s0.3-0.2,0.4-0.5
	c0.1-0.5,0.1-0.8,0.4-1.1c0.1-0.3,0.4-0.5,0.5-0.8c-0.1-0.3-1.2-2.2,0-2.3h1.4c0.4,0,0.7-0.2,0.7-0.6c0-0.3-0.3-0.6-0.7-0.6h-1.4
	c0.1-0.5,0.5-0.9,0.7-1.4c0.4-0.5,0.8-0.8,1.4-0.9c0.5,0,1.1,0.5,1.2,0.8c0.1,0.3,0,1.2-0.4,1.5c1.1,0,2.3-1.5,2.3-2.8
	c0-1.4-1.1-2.6-2.3-2.6c-0.7,0-1.5-0.2-2.5,1.7c-1,1.7-1,3.4-1,3.7h-0.3c0-2.2,1.5-6.8,1.6-8.6C52.2,70.5,51.1,69.4,50.1,68.8
	L50.1,68.8z"/>
</svg>
