<?xml version="1.0" encoding="utf-8"?>
<!-- Generator: Adobe Illustrator 24.0.0, SVG Export Plug-In . SVG Version: 6.00 Build 0)  -->
<svg version="1.2" baseProfile="tiny" id="Layer_1" xmlns="http://www.w3.org/2000/svg" xmlns:xlink="http://www.w3.org/1999/xlink"
	 x="0px" y="0px" viewBox="0 0 100 100" xml:space="preserve">
<path id="path1314" fill="#FECC08" d="M17,0l76.8,0c-0.2,14.1,0.5,27.8-0.5,41.7c-0.6,4.9-1.6,9.3-3.1,13.6
	c-1.2,3.5-1.9,6.8-2.9,8.6L17,0z"/>
<path id="path1312" fill="#293789" d="M50.2,100C26,87.9,10.8,68.4,7.2,40.8c-0.4-3.1-0.5-3.8-0.7-7.9c-0.1-1-0.1-6-0.1-11.2L6.2,0
	l11.5,0C41,21.1,64.2,42.5,87.6,63.4C81.1,78.3,65.1,92.4,50.2,100z"/>
<path fill="#FFFFFF" d="M24.2,26.5l-5.3-3.8l-5.3,3.8l2-6.2l-5.3-3.8h6.5l2-6.2l2,6.2h6.5l-5.3,3.8L24.2,26.5z M9.4,9.4l5.3-3.6H8.1
	L6.1,0v11.6l5.3,3.6L9.4,9.4z M34.2,31.6l5.3-3.8h-6.5l-2-6.2l-2,6.2h-6.5l5.3,3.8l-2,6.2l5.3-3.8l5.3,3.8L34.2,31.6z M46.4,42.6
	l5.3-3.8h-6.5l-2-6.2l-2,6.2h-6.5l5.3,3.8l-2,6.2l5.3-3.8l5.3,3.8L46.4,42.6z M58.4,53.9l5.3-3.8h-6.5l-2-6.2l-2,6.2h-6.5l5.3,3.8
	l-2,6.2l5.3-3.8l5.3,3.8L58.4,53.9z M70.7,65.1l5.3-3.8h-6.5l-2-6.2l-2,6.2h-6.5l5.3,3.8l-2,6.2l5.3-3.8l5.3,3.8L70.7,65.1z
	 M82.1,73.1l-2-6.1l-2,6.2l-6.5,0l5.3,3.9l-1.2,3.9C77.9,78.4,80.1,75.8,82.1,73.1z"/>
</svg>
