<?xml version="1.0" encoding="utf-8"?>
<!-- Generator: Adobe Illustrator 21.0.0, SVG Export Plug-In . SVG Version: 6.00 Build 0)  -->
<svg version="1.1" id="Layer_1" xmlns="http://www.w3.org/2000/svg" xmlns:xlink="http://www.w3.org/1999/xlink" x="0px" y="0px"
	 viewBox="0 0 100 100" enable-background="new 0 0 100 100" xml:space="preserve">
<g>
	<path id="field" fill="#CC3026" d="M90,56.4V3.6H10v52.8c0,22.1,17.9,40,40,40S90,78.5,90,56.4z"/>
	<g>
		<g>
			<g id="tower">
				<g id="a2">
					<g>
						<path id="a1_1_" fill="#FDDA2A" d="M29,16.7c0-0.3-0.1-0.6-0.4-0.8l-0.6-1.8l-0.6,1.8c-0.4,0.3-0.5,1-0.2,1.4
							c0.1,0.2,0.3,0.3,0.5,0.3v1.2h0.6v-1.2C28.8,17.5,29,17.1,29,16.7z"/>
						<path fill="#111111" d="M28.4,19h-0.6c-0.1,0-0.2-0.1-0.2-0.2v-1.1c-0.2-0.1-0.3-0.2-0.5-0.4c-0.2-0.2-0.3-0.5-0.2-0.9
							c0-0.3,0.2-0.5,0.4-0.7l0.6-1.8c0-0.1,0.3-0.1,0.3,0l0.6,1.8c0.3,0.2,0.4,0.5,0.4,0.9c0,0.5-0.3,0.9-0.7,1.1v1.1
							C28.5,18.9,28.5,19,28.4,19z M27.9,18.7h0.3v-1c0-0.1,0-0.1,0.1-0.2c0.3-0.1,0.6-0.4,0.6-0.8c0-0.3-0.1-0.5-0.3-0.7
							c0,0,0,0-0.1-0.1l-0.4-1.4L27.6,16c0,0,0,0.1-0.1,0.1c-0.2,0.1-0.3,0.3-0.3,0.5c0,0.2,0,0.4,0.2,0.6c0.1,0.1,0.2,0.2,0.4,0.3
							c0.1,0,0.1,0.1,0.1,0.2V18.7z"/>
					</g>
					<g>
						<g>
							<path id="a1_2_" fill="#FDDA2A" d="M35.4,16.7c0-0.3-0.1-0.6-0.4-0.8l-0.6-1.8l-0.6,1.8c-0.4,0.3-0.5,1-0.2,1.4
								c0.1,0.2,0.3,0.3,0.5,0.3v1.2h0.6v-1.2C35.2,17.5,35.4,17.1,35.4,16.7z"/>
							<path fill="#111111" d="M34.8,19h-0.6c-0.1,0-0.2-0.1-0.2-0.2v-1.1c-0.2-0.1-0.3-0.2-0.5-0.4c-0.2-0.2-0.3-0.5-0.2-0.8
								c0-0.3,0.2-0.5,0.4-0.7l0.6-1.8c0-0.1,0.3-0.1,0.3,0l0.6,1.8c0.3,0.2,0.4,0.5,0.4,0.9l0,0c0,0.5-0.3,0.9-0.7,1.1v1.1
								C34.9,18.9,34.9,19,34.8,19z M34.3,18.7h0.3v-1c0-0.1,0-0.1,0.1-0.2c0.3-0.1,0.6-0.4,0.6-0.8c0-0.3-0.1-0.5-0.3-0.7
								c0,0,0,0-0.1-0.1l-0.4-1.4L34,16c0,0,0,0.1-0.1,0.1c-0.2,0.1-0.3,0.3-0.3,0.5c0,0.2,0,0.4,0.2,0.6c0.1,0.1,0.2,0.2,0.4,0.3
								c0.1,0,0.1,0.1,0.1,0.2V18.7z"/>
						</g>
					</g>
				</g>
				<g>
					<path fill="#111111" d="M35,18.5h-7.5l-0.1,0.2L24,23.6l-0.5,0.8h1.2l0.9,0.9l-0.4,0.4L24.8,26l0.3,0.3l0.6,0.6v9l-0.6,0.6
						L24.8,37l0.3,0.3l0.6,0.6v15.2h11V37.9l0.6-0.6l0.3-0.3l-0.3-0.3L36.8,36V27l0.6-0.6l0.3-0.3l-0.3-0.3L37,25.2l0.9-0.9H39
						l-0.5-0.8l-3.4-4.9L35,18.5z"/>
					<polygon fill="#FAFAFA" points="36.3,52.7 26.2,52.7 26.2,37.7 25.5,37 26.2,36.2 26.2,26.8 25.5,26 26.2,25.2 24.9,23.9 
						24.4,23.9 27.8,19 34.8,19 38.1,23.9 37.6,23.9 36.3,25.2 37,26 36.3,26.8 36.3,36.2 37,37 36.3,37.7 					"/>
					<g>
						<polygon fill="#111111" points="33.1,52.8 32.8,52.8 32.8,37.8 31.9,37 32.8,36.2 32.8,26.8 31.9,26 32.7,25.2 31.3,23.9 
							31.6,23.6 33.2,25.2 32.4,26 33.1,26.7 33.1,36.3 32.4,37 33.1,37.7 						"/>
						<rect x="26.1" y="36.1" fill="#111111" width="10.4" height="0.3"/>
						<rect x="25.3" y="36.9" fill="#111111" width="11.8" height="0.2"/>
						<rect x="26.1" y="37.6" fill="#111111" width="10.4" height="0.3"/>
						<rect x="26.1" y="25.1" fill="#111111" width="10.4" height="0.3"/>
						<rect x="25.3" y="25.9" fill="#111111" width="11.8" height="0.2"/>
						<rect x="26.1" y="26.6" fill="#111111" width="10.4" height="0.3"/>
						<path fill="#111111" d="M33.1,28.1h-0.6l0-0.1c0-0.3-0.2-0.5-0.5-0.5c-0.1,0-0.3,0-0.3,0.1c-0.1,0.1-0.1,0.2-0.1,0.3l0,0.1
							l-0.1,0h-0.5l0-0.1c0-0.1,0-0.3-0.1-0.3c-0.1-0.1-0.2-0.1-0.3-0.1c-0.1,0-0.3,0-0.3,0.1c-0.1,0.1-0.1,0.2-0.1,0.3l0,0.1
							l-0.1,0h-0.5l0-0.1c0-0.3-0.2-0.5-0.5-0.5c-0.1,0-0.3,0-0.3,0.1c-0.1,0.1-0.1,0.2-0.1,0.3l0,0.1l-0.1,0h-0.5l0-0.1
							c0-0.3-0.2-0.5-0.5-0.5c0,0,0,0,0,0c-0.3,0-0.5,0.2-0.5,0.5l0,0.1l-0.1,0h-0.4v-0.2h0.3c0.1-0.4,0.4-0.6,0.7-0.6c0,0,0,0,0,0
							c0.4,0,0.7,0.3,0.7,0.6H28c0.1-0.4,0.4-0.6,0.7-0.6c0,0,0,0,0,0c0.2,0,0.4,0.1,0.5,0.2c0.1,0.1,0.2,0.2,0.2,0.4h0.2
							c0-0.2,0.1-0.3,0.2-0.4c0.1-0.1,0.3-0.2,0.5-0.2c0,0,0,0,0,0c0.2,0,0.4,0.1,0.5,0.2c0.1,0.1,0.2,0.2,0.2,0.4h0.2
							c0.1-0.3,0.4-0.6,0.7-0.6c0,0,0,0,0,0c0.4,0,0.7,0.3,0.7,0.6h0.4V28.1z"/>
						<path fill="#111111" d="M36.4,28.1h-0.5V28c0-0.3-0.1-0.5-0.3-0.5s-0.3,0.2-0.3,0.5v0.1h-0.5V28c0-0.3-0.1-0.5-0.3-0.5
							s-0.3,0.2-0.3,0.5v0.1h-0.5V28c0-0.3-0.1-0.5-0.3-0.5s-0.3,0.2-0.3,0.5v0.1h-0.6v-0.2h0.3c0-0.4,0.2-0.6,0.5-0.6
							c0.3,0,0.5,0.3,0.5,0.6h0c0-0.4,0.2-0.6,0.5-0.6s0.5,0.3,0.5,0.6h0c0-0.4,0.2-0.6,0.5-0.6c0.3,0,0.5,0.3,0.5,0.6h0.2V28.1z"/>
					</g>
					<g>
						<path fill="#111111" d="M30.9,45.9h-2.7v-6.3h2.7V45.9z M28.5,45.7h2.2v-5.9h-2.2V45.7z"/>
						<polygon fill="#111111" points="30.2,45.3 30.8,45.8 28.4,45.8 29,45.3 29,40.2 28.4,39.7 30.8,39.7 30.2,40.2 						"/>
					</g>
					<g>
						<path fill="#111111" d="M35.4,45.9h-1.5v-6.3h1.5V45.9z M34.2,45.7h1v-5.9h-1V45.7z"/>
						<polygon fill="#111111" points="34.8,45.3 35.3,45.8 34,45.8 34,39.7 35.3,39.7 34.8,40.2 						"/>
					</g>
					<g id="win1">
						<path fill="#111111" d="M29.2,34.5h-2.1v-2.9c0-1.2,0.5-2.2,1-2.2s1,1,1,2.2V34.5z M27.4,34.2H29v-2.6c0-1.1-0.4-1.9-0.8-1.9
							c-0.4,0-0.8,0.8-0.8,1.9V34.2z"/>
						<path fill="#111111" d="M27.7,33.9v-2.2c0-1,0.4-1.6,0.5-1.6c0.1,0,0.5,0.5,0.5,1.6v2.2H27.7z"/>
					</g>
					<g>
						<g id="win1_1_">
							<path fill="#111111" d="M32,34.5h-2.1v-2.9c0-1.2,0.5-2.2,1-2.2s1,1,1,2.2V34.5z M30.2,34.2h1.6v-2.6c0-1.1-0.4-1.9-0.8-1.9
								c-0.4,0-0.8,0.8-0.8,1.9V34.2z"/>
							<path fill="#111111" d="M30.4,33.9v-2.2c0-1,0.4-1.6,0.5-1.6c0.1,0,0.5,0.5,0.5,1.6v2.2H30.4z"/>
						</g>
					</g>
					<g>
						<path fill="#111111" d="M35.4,34.5h-1.5v-2.9c0-1.1,0.3-2.2,0.7-2.2s0.7,1.1,0.7,2.2V34.5z M34.2,34.3h1v-2.6
							c0-1.2-0.3-1.9-0.5-1.9s-0.5,0.8-0.5,1.9V34.3z"/>
						<path fill="#111111" d="M34,34v-2.2c0-1,0.1-1.6,0.4-1.6c0.1,0,0.4,0.5,0.4,1.6V34H34z"/>
					</g>
				</g>
				<g>
					<path fill="#A22921" d="M24.4,24c-0.1,0-0.2-0.1-0.2-0.2c0,0,0-0.1,0-0.1l3.4-4.9c0,0,0.1-0.1,0.1-0.1h7c0.1,0,0.1,0,0.1,0.1
						l3.4,4.9c0.1,0.1,0,0.2,0,0.2c0,0-0.1,0-0.1,0H24.4z"/>
					<path fill="#111111" d="M34.8,19l3.4,4.9H24.4l3.4-4.9H34.8 M34.8,18.7h-7c-0.1,0-0.2,0.1-0.3,0.1l-3.4,4.9
						c-0.1,0.1-0.1,0.3,0.1,0.4c0.1,0,0.1,0.1,0.2,0.1h13.7c0.2,0,0.3-0.1,0.3-0.3c0-0.1,0-0.1-0.1-0.2L35,18.8
						C35,18.7,34.9,18.7,34.8,18.7L34.8,18.7z"/>
				</g>
				<path fill="#111111" d="M29.7,24C29.6,24,29.6,24,29.7,24L29.7,24C29.6,24,29.6,24,29.7,24L29.7,24L29.7,24
					C29.6,24,29.6,24,29.7,24L29.7,24C29.6,24,29.6,24,29.7,24C29.6,24,29.6,24,29.7,24C29.6,24,29.6,24,29.7,24L29.7,24
					C29.6,24,29.6,24,29.7,24L29.7,24C29.6,24,29.6,24,29.7,24L29.7,24C29.6,24,29.6,24,29.7,24L29.7,24C29.6,24,29.6,24,29.7,24
					L29.7,24C29.6,24,29.6,24,29.7,24L29.7,24C29.6,24,29.6,24,29.7,24C29.6,24,29.6,24,29.7,24L29.7,24
					C29.6,23.9,29.6,23.9,29.7,24c-0.4-0.5-1-0.6-1.5-0.2c-0.1,0.1-0.1,0.1-0.2,0.2c0,0,0,0,0,0h0l0,0c0,0,0,0,0,0c0,0,0,0,0,0l0,0
					c0,0,0,0,0,0l0,0c0,0,0,0,0,0l0,0c0,0,0,0,0,0l0,0l0,0l0,0c0,0,0,0,0,0h0l0,0c0,0,0,0-0.1,0c0,0,0,0,0,0v0c0,0,0,0,0,0
					c0,0,0,0,0,0l0,0c0,0,0,0,0,0c0,0,0,0,0,0c0,0,0,0,0,0c0,0,0,0,0,0c-0.3-0.4-0.9-0.5-1.4-0.2c-0.1,0.1-0.1,0.1-0.2,0.2
					c0,0,0,0,0,0c0,0,0,0,0,0l0,0c0,0,0,0,0,0c0,0,0,0,0,0h0l0,0c0,0,0,0,0,0c0,0,0,0-0.1,0c0,0,0,0,0,0v0c0,0,0,0,0,0l0,0
					c0,0,0,0,0,0c0,0,0,0,0,0c0,0,0,0,0,0c0,0,0,0,0,0l0,0c0,0,0,0,0,0c0,0,0,0,0,0c-0.3-0.4-0.9-0.5-1.4-0.2
					c-0.1,0.1-0.1,0.1-0.2,0.2c0,0.1-0.1,0.1-0.2,0c-0.1,0-0.1-0.1,0-0.2c0.1-0.1,0.2-0.2,0.2-0.2c0.5-0.4,1.2-0.3,1.6,0.1l1.5-2.2
					c-0.2-0.2-0.4-0.3-0.6-0.3c-0.3,0-0.5,0-0.7,0.2c-0.1,0.1-0.1,0.1-0.2,0.2c0,0.1-0.1,0.1-0.2,0c-0.1,0-0.1-0.1,0-0.2
					c0.1-0.1,0.2-0.2,0.2-0.2c0.3-0.2,0.6-0.3,0.9-0.2c0.3,0,0.5,0.2,0.7,0.4l1.6-2.3c0-0.1,0.1-0.1,0.2,0c0.1,0,0.1,0.1,0,0.2
					l-1.3,1.9c0.4-0.1,0.9,0,1.3,0.3l1.6-2.3c0-0.1,0.1-0.1,0.2,0c0.1,0,0.1,0.1,0,0.2l-1.3,1.9c0.2-0.1,0.4-0.1,0.6-0.1
					c0.3,0,0.5,0.2,0.7,0.4l1.6-2.3c0-0.1,0.1-0.1,0.2,0c0.1,0,0.1,0.1,0,0.2l-1.3,1.9c0.2-0.1,0.4-0.1,0.6-0.1
					c0.3,0,0.5,0.2,0.7,0.4l1.6-2.3c0-0.1,0.1-0.1,0.2,0c0.1,0,0.1,0.1,0,0.2l-1,1.5v0.6c0.3-0.2,0.6-0.3,0.9-0.3
					c0.4,0,0.7,0.1,1,0.3v-0.6c0-0.1,0.1-0.1,0.1-0.1s0.1,0.1,0.1,0.1v0.6c0.1-0.1,0.1-0.1,0.2-0.1c0.1,0,0.1,0,0.2,0.1
					c0,0.1,0,0.1-0.1,0.2c-0.1,0.1-0.2,0.1-0.3,0.2v2.1c0.6-0.5,1.5-0.4,2.1,0.2c0,0,0,0.1,0,0.2c0,0-0.1,0-0.2,0
					c-0.5-0.5-1.4-0.6-1.9-0.1c0,0,0,0-0.1,0.1c0,0,0,0,0,0c0,0,0,0,0,0l0,0c0,0,0,0,0,0l0,0c0,0,0,0,0,0h0l0,0c0,0,0,0,0,0l0,0l0,0
					c0,0-0.1,0-0.1,0l0,0h0h0l0,0c0,0,0,0,0,0l0,0c0,0,0,0,0,0l0,0c0,0,0,0,0,0c0,0,0,0,0,0l0,0c0,0,0,0,0,0c0,0,0,0,0,0
					c-0.5-0.5-1.4-0.6-1.9-0.1c0,0,0,0,0,0c0,0-0.1,0-0.1,0l0,0c0,0,0,0,0,0c0,0,0,0,0,0h0c0,0,0,0,0,0l0,0c0,0,0,0,0,0l0,0l0,0
					c0,0,0,0,0,0c0,0,0,0,0,0l0,0c0,0,0,0,0,0c0,0,0,0,0,0c-0.2-0.3-0.6-0.4-0.9-0.4c-0.4,0-0.7,0.1-1,0.4L31.6,24c0,0-0.1,0-0.2,0
					c0,0,0,0,0,0l0,0l0,0c0,0,0,0-0.1,0c0,0,0,0,0,0c0,0,0,0,0,0c0,0,0,0,0,0c-0.3-0.4-0.9-0.5-1.4-0.2C29.9,23.8,29.8,23.9,29.7,24
					C29.8,23.9,29.7,24,29.7,24C29.7,24,29.7,24,29.7,24L29.7,24C29.7,24,29.7,24,29.7,24L29.7,24C29.7,24,29.7,24,29.7,24L29.7,24
					L29.7,24L29.7,24C29.7,24,29.7,24,29.7,24L29.7,24L29.7,24C29.7,24,29.7,24,29.7,24C29.7,24,29.7,24,29.7,24L29.7,24L29.7,24
					C29.7,24,29.7,24,29.7,24z M28.8,23.3c0.3,0,0.6,0.1,0.9,0.4l1.5-2.2c-0.2-0.2-0.4-0.3-0.6-0.3c-0.3,0-0.5,0-0.7,0.2
					c-0.1,0.1-0.1,0.1-0.2,0.2c0,0,0,0,0,0l-1.3,1.9C28.5,23.3,28.6,23.3,28.8,23.3z M27,23.3c0.3,0,0.6,0.1,0.9,0.4l1.5-2.2
					c-0.2-0.2-0.4-0.3-0.6-0.3c-0.3,0-0.5,0-0.7,0.2c-0.1,0.1-0.1,0.1-0.2,0.2c0,0,0,0,0,0l-1.3,1.9C26.8,23.3,26.9,23.3,27,23.3z
					 M30.5,23.3c0.3,0,0.6,0.1,0.9,0.4l1.5-2.2c-0.2-0.2-0.4-0.3-0.6-0.3c-0.3,0-0.5,0-0.7,0.2c-0.1,0.1-0.1,0.1-0.2,0.2
					c0,0,0,0,0,0l-1.3,1.9C30.3,23.3,30.4,23.3,30.5,23.3z M34.8,23.3c0.3,0,0.7,0.1,0.9,0.3v-2.1c0,0,0,0,0,0
					c-0.5-0.5-1.4-0.5-1.9,0v2.1C34.1,23.4,34.4,23.3,34.8,23.3z M32.6,23.3C32.6,23.3,32.7,23.3,32.6,23.3c0.4,0,0.7,0.1,0.9,0.3
					v-2.1c-0.1-0.1-0.2-0.1-0.2-0.2l-0.1,0.2c0,0,0,0,0,0l-1.4,2C32,23.4,32.3,23.3,32.6,23.3z M33.5,21.1c0,0,0.1,0,0.1,0.1v-0.2
					L33.5,21.1z"/>
			</g>
			<g id="coa_bratislava">
				<g id="coa">
					<g id="tower_1_">
						<g id="a2_1_">
							<g>
								<path id="a1_3_" fill="#FDDA2A" d="M71,16.7c0-0.3,0.1-0.6,0.4-0.8l0.6-1.8l0.6,1.8c0.4,0.3,0.5,1,0.2,1.4
									c-0.1,0.2-0.3,0.3-0.5,0.3v1.2h-0.6v-1.2C71.2,17.5,71,17.1,71,16.7z"/>
								<path fill="#111111" d="M72.2,19h-0.6c-0.1,0-0.2-0.1-0.2-0.2v-1.1c-0.4-0.2-0.7-0.6-0.7-1.1c0-0.3,0.2-0.7,0.4-0.9l0.6-1.8
									c0-0.1,0.3-0.1,0.3,0l0.6,1.8c0.2,0.2,0.4,0.4,0.4,0.7c0,0.3,0,0.6-0.2,0.9c-0.1,0.2-0.3,0.3-0.5,0.4v1.1
									C72.4,18.9,72.3,19,72.2,19z M71.8,18.7h0.3v-1c0-0.1,0-0.1,0.1-0.2c0.2-0.1,0.3-0.2,0.4-0.3c0.1-0.2,0.2-0.4,0.2-0.6
									s-0.1-0.4-0.3-0.5c0,0,0,0-0.1-0.1l-0.5-1.4L71.5,16c0,0,0,0.1-0.1,0.1c-0.2,0.2-0.3,0.4-0.3,0.7c0,0.4,0.2,0.7,0.6,0.8
									c0.1,0,0.1,0.1,0.1,0.2V18.7z"/>
							</g>
							<g>
								<g>
									<path id="a1_4_" fill="#FDDA2A" d="M64.6,16.7c0-0.3,0.1-0.6,0.4-0.8l0.6-1.8l0.6,1.8c0.4,0.3,0.5,1,0.2,1.4
										c-0.1,0.2-0.3,0.3-0.5,0.3v1.2h-0.6v-1.2C64.8,17.5,64.6,17.1,64.6,16.7z"/>
									<path fill="#111111" d="M65.8,19h-0.6c-0.1,0-0.2-0.1-0.2-0.2v-1.1c-0.4-0.2-0.7-0.6-0.7-1.1c0-0.3,0.2-0.7,0.4-0.9
										l0.6-1.8c0-0.1,0.3-0.1,0.3,0l0.6,1.8c0.2,0.2,0.4,0.4,0.4,0.7c0,0.3,0,0.6-0.2,0.8c-0.1,0.2-0.3,0.3-0.4,0.4v1.1
										C66,18.9,65.9,19,65.8,19z M65.4,18.7h0.3v-1c0-0.1,0-0.1,0.1-0.2c0.2-0.1,0.3-0.2,0.4-0.3c0.1-0.2,0.2-0.4,0.2-0.6
										c0-0.2-0.1-0.4-0.3-0.5c0,0,0,0-0.1-0.1l-0.5-1.4L65.1,16c0,0,0,0.1-0.1,0.1c-0.2,0.2-0.3,0.4-0.3,0.7
										c0,0.4,0.2,0.7,0.6,0.8c0.1,0,0.1,0.1,0.1,0.2V18.7z"/>
								</g>
							</g>
						</g>
						<g>
							<path fill="#111111" d="M65,18.5h7.5l0.1,0.2l3.4,4.9l0.5,0.8h-1.2l-0.9,0.9l0.4,0.4l0.3,0.3l-0.3,0.3L74.3,27v9l0.6,0.6
								l0.3,0.3l-0.3,0.3l-0.6,0.6v15.2h-11V37.9l-0.6-0.6L62.3,37l0.3-0.3l0.6-0.6V27l-0.6-0.6L62.3,26l0.3-0.3l0.4-0.4l-0.9-0.9
								H61l0.5-0.8l3.4-4.9L65,18.5z"/>
							<polygon fill="#FAFAFA" points="63.7,52.7 73.8,52.7 73.8,37.7 74.5,37 73.8,36.2 73.8,26.8 74.5,26 73.8,25.2 75.1,23.9 
								75.6,23.9 72.2,19 65.2,19 61.9,23.9 62.4,23.9 63.7,25.2 63,26 63.7,26.8 63.7,36.2 63,37 63.7,37.7 							"/>
							<g>
								<polygon fill="#111111" points="67.2,52.8 66.9,52.8 66.9,37.7 67.6,37 66.9,36.3 66.9,26.7 67.6,26 66.8,25.2 68.4,23.6 
									68.7,23.9 67.3,25.2 68.1,26 67.2,26.8 67.2,36.2 68.1,37 67.2,37.8 								"/>
								<rect x="63.6" y="36.1" fill="#111111" width="10.4" height="0.3"/>
								<rect x="62.8" y="36.9" fill="#111111" width="11.8" height="0.2"/>
								<rect x="63.6" y="37.6" fill="#111111" width="10.4" height="0.3"/>
								<rect x="63.6" y="25.1" fill="#111111" width="10.4" height="0.3"/>
								<rect x="62.8" y="25.9" fill="#111111" width="11.8" height="0.2"/>
								<rect x="63.6" y="26.6" fill="#111111" width="10.4" height="0.3"/>
								<path fill="#111111" d="M73.9,28.1h-0.5V28c0-0.3-0.2-0.5-0.5-0.5c-0.1,0-0.3,0.1-0.3,0.1c-0.1,0.1-0.1,0.2-0.1,0.3l0,0.1
									h-0.6V28c0-0.3-0.2-0.5-0.5-0.5c-0.3,0-0.5,0.2-0.5,0.5l0,0.1h-0.6V28c0-0.1-0.1-0.3-0.1-0.4c-0.1-0.1-0.2-0.1-0.3-0.1
									c-0.1,0-0.3,0.1-0.3,0.1c-0.1,0.1-0.1,0.2-0.1,0.3l0,0.1h-0.6V28c0-0.3-0.2-0.5-0.5-0.5c-0.3,0-0.5,0.2-0.5,0.5l0,0.1h-0.6
									v-0.2h0.4c0.1-0.3,0.3-0.6,0.7-0.6c0,0,0,0,0,0c0.4,0,0.7,0.3,0.7,0.6h0.2c0-0.1,0.1-0.3,0.2-0.4c0.1-0.1,0.3-0.2,0.5-0.2
									c0.2,0,0.4,0.1,0.5,0.2c0.1,0.1,0.2,0.3,0.2,0.4h0.2c0.1-0.3,0.3-0.6,0.7-0.6c0,0,0,0,0,0c0.4,0,0.7,0.3,0.7,0.6h0.2
									c0-0.1,0.1-0.3,0.2-0.4c0.1-0.1,0.3-0.2,0.5-0.2c0.4,0,0.7,0.3,0.7,0.6h0.3V28.1z"/>
								<path fill="#111111" d="M67.2,28.1h-0.6V28c0-0.3-0.1-0.5-0.3-0.5s-0.3,0.2-0.3,0.5v0.1h-0.5V28c0-0.3-0.1-0.5-0.3-0.5
									s-0.3,0.2-0.3,0.5v0.1h-0.5V28c0-0.3-0.1-0.5-0.3-0.5s-0.3,0.2-0.3,0.5v0.1h-0.5v-0.2h0.2c0-0.4,0.2-0.6,0.5-0.6
									s0.5,0.3,0.5,0.6h0c0-0.4,0.2-0.6,0.5-0.6s0.5,0.3,0.5,0.6h0c0-0.4,0.2-0.6,0.5-0.6s0.5,0.3,0.5,0.6h0.3V28.1z"/>
							</g>
							<g>
								<path fill="#111111" d="M71.8,45.9h-2.7v-6.3h2.7V45.9z M69.3,45.7h2.2v-5.9h-2.2V45.7z"/>
								<polygon fill="#111111" points="69.8,45.3 69.2,45.8 71.6,45.8 71,45.3 71,40.2 71.6,39.7 69.2,39.7 69.8,40.2 								"/>
							</g>
							<g>
								<path fill="#111111" d="M66.1,45.9h-1.5v-6.3h1.5V45.9z M64.9,45.7h1v-5.9h-1V45.7z"/>
								<polygon fill="#111111" points="65.2,45.3 64.7,45.8 66,45.8 66,39.7 64.7,39.7 65.2,40.2 								"/>
							</g>
							<g id="win1_2_">
								<path fill="#111111" d="M72.8,34.5h-2.1v-2.9c0-1.2,0.5-2.2,1-2.2s1,1,1,2.2V34.5z M71,34.2h1.6v-2.6c0-1.1-0.4-1.9-0.8-1.9
									S71,30.5,71,31.6V34.2z"/>
								<path fill="#111111" d="M72.3,33.9v-2.2c0-1-0.4-1.6-0.5-1.6c-0.1,0-0.5,0.5-0.5,1.6v2.2H72.3z"/>
							</g>
							<g transform="translate(500 0) scale(-1 1)">
								<g id="win1_3_">
									<path fill="#111111" d="M70.1,34.5H68v-2.9c0-1.2,0.5-2.2,1-2.2s1,1,1,2.2V34.5z M68.3,34.2h1.6v-2.6
										c0-1.1-0.4-1.9-0.8-1.9s-0.8,0.8-0.8,1.9V34.2z"/>
									<path fill="#111111" d="M69.6,33.9v-2.2c0-1-0.4-1.6-0.5-1.6c-0.1,0-0.5,0.5-0.5,1.6v2.2H69.6z"/>
								</g>
							</g>
							<g>
								<path fill="#111111" d="M66.1,34.5h-1.5v-2.9c0-1.1,0.3-2.2,0.7-2.2s0.7,1.1,0.7,2.2V34.5z M64.9,34.3h1v-2.6
									c0-1.2-0.3-1.9-0.5-1.9s-0.5,0.8-0.5,1.9V34.3z"/>
								<path fill="#111111" d="M66,34v-2.2c0-1-0.1-1.6-0.4-1.6c-0.1,0-0.4,0.5-0.4,1.6V34H66z"/>
							</g>
						</g>
						<g>
							<path fill="#A22921" d="M75.6,24c0.1,0,0.2-0.1,0.2-0.2c0,0,0-0.1,0-0.1l-3.4-4.9c0,0-0.1-0.1-0.1-0.1h-7
								c-0.1,0-0.1,0-0.1,0.1l-3.4,4.9c-0.1,0.1,0,0.2,0,0.2c0,0,0.1,0,0.1,0H75.6z"/>
							<path fill="#111111" d="M65.2,19l-3.4,4.9h13.7L72.2,19H65.2 M65.2,18.7h7c0.1,0,0.2,0.1,0.3,0.1l3.4,4.9
								c0.1,0.1,0.1,0.3-0.1,0.4c-0.1,0-0.1,0.1-0.2,0.1H61.9c-0.2,0-0.3-0.1-0.3-0.3c0-0.1,0-0.1,0.1-0.2l3.4-4.9
								C65,18.7,65.1,18.7,65.2,18.7L65.2,18.7z"/>
						</g>
						<path fill="#111111" d="M73.8,24C73.8,24,73.8,24,73.8,24L73.8,24C73.8,24,73.8,24,73.8,24C73.8,24,73.8,24,73.8,24L73.8,24
							C73.8,24,73.8,24,73.8,24C73.8,24,73.8,24,73.8,24L73.8,24C73.8,24,73.8,24,73.8,24L73.8,24C73.8,24,73.8,24,73.8,24
							C73.8,24,73.8,23.9,73.8,24c-0.2-0.1-0.2-0.2-0.3-0.2c-0.4-0.3-1-0.2-1.4,0.2c0,0,0,0,0,0l0,0c0,0,0,0,0,0c0,0,0,0,0,0
							c0,0,0,0,0,0l0,0l0,0l0,0c0,0,0,0,0,0c0,0,0,0,0,0c0,0,0,0,0,0l0,0l0,0l0,0c0,0,0,0,0,0l0,0l0,0c0,0,0,0,0,0h0c0,0,0,0-0.1,0
							c0,0,0,0,0,0c0,0,0,0,0,0c-0.1-0.1-0.1-0.1-0.2-0.2c-0.2-0.2-0.5-0.2-0.7-0.2c-0.3,0-0.5,0.2-0.6,0.4c0,0,0,0,0,0l0,0
							c0,0,0,0,0,0l0,0c0,0,0,0,0,0v0c0,0,0,0,0,0c0,0,0,0,0,0l0,0c0,0,0,0,0,0l0,0c0,0,0,0,0,0c0,0,0,0,0,0c0,0,0,0,0,0l0,0l0,0
							c0,0,0,0,0,0c0,0,0,0,0,0c0,0,0,0,0,0c0,0,0,0,0,0l0,0l0,0l0,0c0,0,0,0,0,0l0,0c0,0,0,0,0,0l0,0l0,0c0,0,0,0,0,0l0,0
							c0,0,0,0,0,0l0,0c0,0,0,0,0,0c0,0,0,0,0,0l0,0c0,0,0,0,0,0c0,0,0,0,0,0c-0.1-0.1-0.1-0.1-0.2-0.2c-0.4-0.3-1-0.2-1.4,0.2
							c0,0,0,0,0,0c0,0,0,0,0,0c0,0,0,0,0,0c0,0,0,0,0,0c0,0,0,0,0,0c0,0-0.1,0-0.2,0c0,0,0,0-0.1-0.1c-0.5-0.5-1.4-0.5-1.9,0.1
							c0,0,0,0,0,0c0,0,0,0,0,0c0,0,0,0,0,0c0,0,0,0,0,0c0,0,0,0-0.1,0l0,0l0,0c0,0,0,0,0,0l0,0c0,0,0,0,0,0c0,0-0.1,0-0.1,0
							c0,0,0,0,0,0c-0.3-0.2-0.6-0.4-0.9-0.4c0,0,0,0,0,0c-0.4,0-0.7,0.2-0.9,0.4c0,0,0,0,0,0c0,0,0,0,0,0c0,0,0,0,0,0c0,0,0,0,0,0
							h0l0,0l0,0c0,0-0.1,0-0.1,0l0,0c0,0,0,0,0,0l0,0h0c0,0,0,0,0,0h0l0,0l0,0c0,0,0,0,0,0c0,0,0,0,0,0l0,0c0,0,0,0,0,0
							c0,0,0,0-0.1-0.1c-0.3-0.2-0.6-0.4-1-0.4c-0.4,0-0.7,0.2-0.9,0.4c0,0-0.1,0-0.2,0c0,0-0.1-0.1,0-0.2c0.3-0.3,0.7-0.5,1.1-0.5
							c0,0,0,0,0,0c0.3,0,0.7,0.1,0.9,0.3v-2.1c-0.1-0.1-0.2-0.2-0.3-0.2c-0.1,0-0.1-0.1-0.1-0.2c0-0.1,0.1-0.1,0.2-0.1
							c0.1,0,0.2,0.1,0.2,0.1v-0.6c0-0.1,0.1-0.1,0.1-0.1s0.1,0.1,0.1,0.1v0.6c0.6-0.4,1.3-0.4,1.9,0v-0.6l-1-1.5c0-0.1,0-0.1,0-0.2
							c0.1,0,0.1,0,0.2,0l1.6,2.3c0.3-0.3,0.8-0.4,1.3-0.3l-1.3-1.9c0-0.1,0-0.1,0-0.2c0.1,0,0.1,0,0.2,0l1.6,2.3
							c0.3-0.3,0.8-0.4,1.3-0.3l-1.3-1.9c0-0.1,0-0.1,0-0.2c0.1,0,0.1,0,0.2,0l1.6,2.3c0.2-0.2,0.4-0.3,0.7-0.4c0.2,0,0.4,0,0.6,0.1
							l-1.3-1.9c0-0.1,0-0.1,0-0.2c0.1,0,0.1,0,0.2,0l1.6,2.3c0.4-0.4,1.1-0.5,1.6-0.1c0.1,0.1,0.2,0.2,0.2,0.2c0,0.1,0,0.1,0,0.2
							c-0.1,0-0.1,0-0.2,0c-0.1-0.1-0.1-0.1-0.2-0.2c-0.4-0.3-1-0.2-1.3,0.1l1.5,2.2c0.2-0.2,0.4-0.3,0.7-0.4c0.3,0,0.6,0,0.9,0.2
							c0.1,0.1,0.2,0.2,0.2,0.2c0,0.1,0,0.1,0,0.2c-0.1,0-0.1,0-0.2,0c-0.1-0.1-0.1-0.1-0.2-0.2c-0.2-0.2-0.5-0.2-0.7-0.2
							C74.3,23.6,74.1,23.7,73.8,24C73.9,23.9,73.9,24,73.8,24C73.9,24,73.9,24,73.8,24C73.9,24,73.9,24,73.8,24
							C73.9,24,73.9,24,73.8,24L73.8,24L73.8,24L73.8,24C73.9,24,73.9,24,73.8,24z M67.1,21.4l1.5,2.2c0.3-0.3,0.8-0.4,1.3-0.3
							l-1.3-1.9c-0.1-0.1-0.1-0.1-0.2-0.2C68,21,67.4,21.1,67.1,21.4z M70.6,21.4l1.5,2.2c0.3-0.3,0.8-0.4,1.3-0.3l-1.3-1.9
							c0,0,0,0,0,0c-0.1-0.1-0.1-0.1-0.2-0.2c-0.2-0.2-0.5-0.2-0.7-0.2C70.9,21.2,70.7,21.3,70.6,21.4z M68.8,21.4l1.5,2.2
							c0.2-0.2,0.4-0.3,0.7-0.4c0.2,0,0.4,0,0.6,0.1l-1.3-1.9v0c-0.1-0.1-0.1-0.1-0.2-0.2C69.7,21,69.1,21.1,68.8,21.4z M66.4,21.5
							v2.1c0.5-0.4,1.2-0.4,1.8-0.1l-1.4-2c0,0,0,0,0,0l-0.1-0.2C66.6,21.3,66.5,21.4,66.4,21.5z M64.3,21.5v2.1
							c0.6-0.4,1.3-0.4,1.9,0v-2.1C65.7,21,64.8,21,64.3,21.5C64.3,21.5,64.3,21.5,64.3,21.5z M66.4,20.9v0.2c0,0,0.1-0.1,0.1-0.1
							L66.4,20.9z"/>
					</g>
					<g>
						<g id="a2_2_">
							<g>
								<path id="a1_5_" fill="#FDDA2A" d="M47.8,9.6c0-0.3-0.1-0.6-0.4-0.8L46.8,7l-0.6,1.8c-0.4,0.3-0.5,1-0.2,1.4
									c0.1,0.2,0.3,0.3,0.5,0.3v1.2h0.6v-1.2C47.5,10.4,47.8,10,47.8,9.6z"/>
								<path fill="#111111" d="M47.1,11.8h-0.6c-0.1,0-0.2-0.1-0.2-0.2v-1.1c-0.2-0.1-0.3-0.2-0.5-0.4c-0.2-0.2-0.3-0.5-0.2-0.9
									c0-0.3,0.2-0.5,0.4-0.7l0.6-1.8c0-0.1,0.3-0.1,0.3,0l0.6,1.8C47.8,8.9,48,9.2,48,9.6c0,0.5-0.3,0.9-0.7,1.1v1.1
									C47.3,11.8,47.2,11.8,47.1,11.8z M46.7,11.5h0.3v-1c0-0.1,0-0.1,0.1-0.2c0.3-0.1,0.6-0.4,0.6-0.8c0-0.3-0.1-0.5-0.3-0.7
									c0,0,0,0-0.1-0.1l-0.4-1.4l-0.4,1.4c0,0,0,0.1-0.1,0.1C46.1,9,46,9.2,46,9.4c0,0.2,0,0.4,0.2,0.6c0.1,0.1,0.2,0.2,0.4,0.3
									c0.1,0,0.1,0.1,0.1,0.2V11.5z"/>
							</g>
							<g>
								<g>
									<path id="a1_6_" fill="#FDDA2A" d="M54.2,9.6c0-0.3-0.1-0.6-0.4-0.8L53.2,7l-0.6,1.8c-0.4,0.3-0.5,1-0.2,1.4
										c0.1,0.2,0.3,0.3,0.5,0.3v1.2h0.6v-1.2C53.9,10.4,54.2,10,54.2,9.6z"/>
									<path fill="#111111" d="M53.5,11.8h-0.6c-0.1,0-0.2-0.1-0.2-0.2v-1.1c-0.2-0.1-0.3-0.2-0.5-0.4c-0.4-0.5-0.3-1.2,0.2-1.6
										L53,6.9c0-0.1,0.3-0.1,0.3,0l0.6,1.8c0.3,0.2,0.4,0.5,0.4,0.9c0,0.5-0.3,0.9-0.7,1.1v1.1C53.7,11.8,53.6,11.8,53.5,11.8z
										 M53.1,11.5h0.3v-1c0-0.1,0-0.1,0.1-0.2c0.3-0.1,0.6-0.4,0.6-0.8c0-0.3-0.1-0.5-0.3-0.7c0,0,0,0-0.1-0.1l-0.5-1.4l-0.5,1.4
										c0,0,0,0.1-0.1,0.1c-0.4,0.3-0.4,0.8-0.2,1.2c0.1,0.1,0.2,0.2,0.4,0.3c0.1,0,0.1,0.1,0.1,0.2V11.5z"/>
								</g>
							</g>
						</g>
						<g>
							<path fill="#111111" d="M53.8,11.4h-7.5l-0.1,0.2l-3.4,4.9l-0.5,0.8h1.2l0.9,0.9l-0.4,0.4l-0.3,0.3l0.3,0.3l0.6,0.6v11.6
								l-0.6,0.6l-0.3,0.3l0.3,0.3l0.4,0.4L43,34.5l-0.1,0.1v18.5h14.4V34.6L57,34.5l-1.3-1.3l0.4-0.4l0.3-0.3l-0.3-0.3l-0.6-0.6
								V19.8l0.6-0.6l0.3-0.3l-0.3-0.3l-0.4-0.4l0.9-0.9h1.2l-0.5-0.8l-3.4-4.9L53.8,11.4L53.8,11.4z"/>
							<polygon fill="#FAFAFA" points="56.7,52.7 43.3,52.7 43.3,34.8 45,33.2 44.2,32.4 45,31.6 45,19.6 44.2,18.8 45,18.1 
								43.6,16.7 43.1,16.7 46.5,11.8 53.5,11.8 56.9,16.7 56.4,16.7 55,18.1 55.8,18.8 55,19.6 55,31.6 55.8,32.4 55,33.2 
								56.7,34.8 							"/>
							<g>
								<path fill="#111111" d="M57.1,47.3H42.9l1.7-1.7V33h10.7v12.6L57.1,47.3z M43.7,47h12.6l-1.2-1.2H44.9L43.7,47z M45,45.5H55
									V33.3H45V45.5z"/>
								<rect x="44.8" y="31.5" fill="#111111" width="10.4" height="0.3"/>
								<rect x="44.1" y="32.3" fill="#111111" width="11.8" height="0.2"/>
								<rect x="44.8" y="17.9" fill="#111111" width="10.4" height="0.3"/>
								<rect x="44.1" y="18.7" fill="#111111" width="11.8" height="0.2"/>
								<rect x="44.8" y="19.4" fill="#111111" width="10.4" height="0.3"/>
							</g>
							<g>
								<path fill="#111111" d="M52.7,44h-5.4v-5.1c0-2.1,1.2-3.8,2.7-3.8c1.5,0,2.7,1.7,2.7,3.8V44z M47.5,43.7h4.9v-4.8
									c0-2-1.1-3.6-2.5-3.6s-2.5,1.6-2.5,3.6V43.7z"/>
								<path fill="#111111" d="M52.1,43.3h-4.2v-4.5c0-1.8,1-3.2,2.1-3.2s2.1,1.5,2.1,3.2V43.3z M48.1,43.1h3.7v-4.2
									c0-1.6-0.9-3-1.9-3s-1.9,1.4-1.9,3V43.1z"/>
								<path fill="#111111" d="M49.8,38.7v4.1h-1.4v-4.1c0-0.7,0.3-1.2,0.7-1.2S49.8,38,49.8,38.7z M50.8,37.4
									c-0.4,0-0.7,0.5-0.7,1.2v4.1h1.4v-4.1C51.5,38,51.2,37.4,50.8,37.4L50.8,37.4z M49.2,37.1c0.4,0,0.7,0.3,0.8,0.7
									c0.2-0.4,0.5-0.7,0.8-0.7c0.1,0,0.2,0,0.2,0c-0.3-0.5-0.7-0.9-1.1-0.9s-0.8,0.4-1.1,0.9C49,37.1,49.1,37.1,49.2,37.1
									L49.2,37.1z"/>
							</g>
							<g id="win2">
								<path fill="#111111" d="M51.3,29.7h-2.5v-4c0-1.7,0.6-3.1,1.3-3.1c0.7,0,1.3,1.3,1.3,3.1V29.7z M49,29.5h2v-3.8
									c0-1.7-0.5-2.8-1-2.8s-1,1.1-1,2.8V29.5z"/>
								<path fill="#111111" d="M49.2,29.1v-3.4c0-1.6,0.5-2.4,0.8-2.4s0.8,0.9,0.8,2.4v3.4H49.2z"/>
							</g>
							<path fill="#111111" d="M55,20.9h-0.5v-0.1c0-0.1,0-0.3-0.1-0.3c-0.1-0.1-0.2-0.1-0.3-0.1h0c-0.1,0-0.3,0.1-0.3,0.1
								c-0.1,0.1-0.1,0.2-0.1,0.3v0.1l-0.6,0v-0.1c0-0.3-0.2-0.5-0.5-0.5h0c-0.3,0-0.5,0.2-0.5,0.5v0.1l-0.6,0v-0.1
								c0-0.1,0-0.3-0.1-0.3c-0.1-0.1-0.2-0.1-0.3-0.1h0c-0.1,0-0.3,0.1-0.3,0.1c-0.1,0.1-0.1,0.2-0.1,0.3v0.1l-0.6,0l0-0.1
								c0-0.3-0.2-0.5-0.5-0.5c0,0,0,0,0,0c-0.3,0-0.5,0.2-0.5,0.5l0,0.1h-0.6l0-0.1c0-0.3-0.2-0.5-0.5-0.5c0,0,0,0,0,0
								c-0.3,0-0.5,0.2-0.5,0.5l0,0.1h-0.6v-0.1c0-0.1-0.1-0.3-0.1-0.3c-0.1-0.1-0.2-0.1-0.3-0.1c0,0,0,0,0,0
								c-0.3,0-0.5,0.2-0.5,0.5v0.1H45v-0.2h0.3c0.1-0.3,0.4-0.6,0.7-0.6c0,0,0,0,0,0c0.2,0,0.4,0.1,0.5,0.2
								c0.1,0.1,0.2,0.2,0.2,0.4h0.2c0.1-0.3,0.4-0.6,0.7-0.6c0,0,0,0,0,0c0.4,0,0.7,0.3,0.7,0.6h0.2c0.1-0.3,0.4-0.6,0.7-0.6
								c0,0,0,0,0,0c0.4,0,0.7,0.3,0.7,0.6h0.2c0-0.1,0.1-0.3,0.2-0.4c0.1-0.1,0.3-0.2,0.5-0.2h0c0.2,0,0.4,0.1,0.5,0.2
								c0.1,0.1,0.2,0.2,0.2,0.4h0.2c0.1-0.3,0.4-0.6,0.7-0.6h0c0.4,0,0.7,0.3,0.7,0.6h0.2c0-0.1,0.1-0.3,0.2-0.4
								c0.1-0.1,0.3-0.2,0.5-0.2h0c0.2,0,0.4,0.1,0.5,0.2c0.1,0.1,0.2,0.2,0.2,0.4H55V20.9z"/>
						</g>
						<g>
							<path fill="#A22921" d="M43.1,16.9c-0.1,0-0.2-0.1-0.2-0.2c0,0,0-0.1,0-0.1l3.4-4.9c0,0,0.1-0.1,0.1-0.1h7
								c0.1,0,0.1,0,0.1,0.1l3.4,4.9c0.1,0.1,0,0.2,0,0.2c0,0-0.1,0-0.1,0H43.1z"/>
							<path fill="#111111" d="M53.5,11.8l3.4,4.9H43.1l3.4-4.9H53.5 M53.5,11.5h-7c-0.1,0-0.2,0.1-0.3,0.1l-3.4,4.9
								c-0.1,0.1-0.1,0.3,0.1,0.4c0.1,0,0.1,0.1,0.2,0.1h13.7c0.2,0,0.3-0.1,0.3-0.3c0-0.1,0-0.1-0.1-0.2l-3.4-4.9
								C53.7,11.6,53.6,11.5,53.5,11.5L53.5,11.5z"/>
						</g>
						<g>
							<g id="win2_1_">
								<path fill="#111111" d="M48.2,29.7h-2.5v-4c0-1.7,0.6-3.1,1.3-3.1c0.7,0,1.3,1.3,1.3,3.1V29.7z M45.9,29.5h2v-3.8
									c0-1.7-0.5-2.8-1-2.8c-0.5,0-1,1.1-1,2.8V29.5z"/>
								<path fill="#111111" d="M46.2,29.1v-3.4c0-1.6,0.5-2.4,0.8-2.4s0.8,0.9,0.8,2.4v3.4H46.2z"/>
							</g>
						</g>
						<g>
							<g id="win2_2_">
								<path fill="#111111" d="M54.3,29.7h-2.5v-4c0-1.7,0.6-3.1,1.3-3.1s1.3,1.3,1.3,3.1V29.7z M52,29.5h2v-3.8
									c0-1.7-0.5-2.8-1-2.8s-1,1.1-1,2.8V29.5z"/>
								<path fill="#111111" d="M52.3,29.1v-3.4c0-1.6,0.5-2.4,0.8-2.4s0.8,0.9,0.8,2.4v3.4H52.3z"/>
							</g>
						</g>
						<path fill="#111111" d="M48.9,16.8C48.9,16.8,48.9,16.8,48.9,16.8C48.9,16.8,48.9,16.8,48.9,16.8L48.9,16.8L48.9,16.8
							C48.9,16.8,48.9,16.8,48.9,16.8L48.9,16.8C48.9,16.8,48.9,16.8,48.9,16.8L48.9,16.8C48.9,16.8,48.9,16.8,48.9,16.8L48.9,16.8
							C48.9,16.8,48.9,16.8,48.9,16.8C48.9,16.8,48.9,16.8,48.9,16.8C48.8,16.8,48.8,16.8,48.9,16.8c-0.3-0.3-0.7-0.4-1-0.5
							c-0.4,0-0.7,0.1-1,0.4c0,0,0,0-0.1,0.1c0,0,0,0,0,0c0,0,0,0,0,0l0,0c0,0,0,0,0,0c0,0,0,0,0,0l0,0c0,0,0,0,0,0c0,0,0,0,0,0
							c0,0,0,0,0,0l0,0c0,0,0,0,0,0l0,0c0,0-0.1,0-0.1,0c0,0,0,0,0,0c0,0,0,0,0,0l0,0c0,0,0,0,0,0l0,0c0,0,0,0,0,0l0,0c0,0,0,0,0,0
							c0,0,0,0,0,0l0,0c0,0,0,0,0,0v0h0c0,0,0,0,0,0c0,0,0,0-0.1-0.1c-0.5-0.5-1.4-0.5-1.9,0.1c0,0-0.1,0-0.2,0c0,0,0,0,0,0
							c0,0,0,0,0,0c-0.2-0.3-0.6-0.4-1-0.4c-0.1,0-0.1,0-0.1,0c-0.1,0-0.1,0-0.1-0.1c0-0.1,0-0.1,0.1-0.1c0.1,0,0.1,0,0.2,0
							c0.3,0,0.7,0.1,0.9,0.3v-2c0-0.1,0.1-0.1,0.1-0.1s0.1,0.1,0.1,0.1v2c0.6-0.4,1.3-0.4,1.9,0v-2.1c-0.2-0.2-0.6-0.4-0.9-0.4
							c0,0,0,0,0,0c-0.2,0-0.5,0.1-0.7,0.2c-0.1,0-0.1,0-0.2,0c0-0.1,0-0.1,0-0.2c0.2-0.1,0.5-0.2,0.8-0.2c0,0,0,0,0,0
							c0.3,0,0.7,0.1,0.9,0.3v-2.2c0-0.1,0.1-0.1,0.1-0.1s0.1,0.1,0.1,0.1V14c0.3-0.2,0.6-0.3,1-0.3c0.3,0,0.6,0.1,0.9,0.3v-2.2
							c0-0.1,0.1-0.1,0.1-0.1s0.1,0.1,0.1,0.1V14c0.3-0.2,0.6-0.3,1-0.3c0.3,0,0.6,0.1,0.9,0.3v-2.2c0-0.1,0.1-0.1,0.1-0.1
							s0.1,0.1,0.1,0.1V14c0.6-0.4,1.3-0.4,1.9,0v-2.2c0-0.1,0.1-0.1,0.1-0.1s0.1,0.1,0.1,0.1V14c0.3-0.2,0.6-0.3,0.9-0.3
							c0,0,0,0,0,0c0.3,0,0.5,0.1,0.8,0.2c0.1,0,0.1,0.1,0,0.2c0,0.1-0.1,0.1-0.2,0c-0.2-0.1-0.4-0.2-0.7-0.2c0,0,0,0,0,0
							c-0.3,0-0.7,0.1-0.9,0.4v2.1c0.6-0.4,1.3-0.4,1.9,0v-2c0-0.1,0.1-0.1,0.1-0.1s0.1,0.1,0.1,0.1v2c0.3-0.2,0.6-0.3,0.9-0.3
							c0,0,0,0,0,0l0,0c0.1,0,0.1,0,0.2,0c0.1,0,0.1,0.1,0.1,0.1s-0.1,0.1-0.1,0.1c-0.1,0-0.1,0-0.2,0c-0.4,0-0.7,0.1-0.9,0.4
							c0,0,0,0,0,0c0,0,0,0,0,0c0,0,0,0,0,0c0,0-0.1,0-0.2,0c-0.2-0.3-0.6-0.4-0.9-0.4c-0.4,0-0.7,0.1-1,0.4c0,0,0,0-0.1,0.1
							c0,0,0,0,0,0c0,0-0.1,0-0.1,0h0l0,0l0,0l0,0c0,0,0,0,0,0v0l0,0h0l0,0c0,0,0,0,0,0h0c0,0,0,0,0,0c-0.5-0.5-1.4-0.6-1.9-0.1
							c0,0,0,0-0.1,0.1c0,0,0,0,0,0l0,0l0,0c0,0,0,0,0,0v0l0,0c0,0,0,0,0,0l0,0l0,0c0,0,0,0,0,0l0,0c0,0-0.1,0-0.1,0h0v0l0,0h0
							c0,0,0,0,0,0c0,0,0,0,0,0l0,0c0,0,0,0,0,0c0,0,0,0,0,0c-0.2-0.3-0.6-0.4-0.9-0.4c0,0,0,0,0,0c-0.3,0-0.7,0.1-0.9,0.4
							C49.1,16.8,49,16.8,48.9,16.8C49,16.8,49,16.8,48.9,16.8L48.9,16.8L48.9,16.8C49,16.8,49,16.8,48.9,16.8L48.9,16.8
							C49,16.8,49,16.8,48.9,16.8C49,16.8,49,16.8,48.9,16.8L48.9,16.8C49,16.8,49,16.8,48.9,16.8L48.9,16.8
							C49,16.8,49,16.8,48.9,16.8C49,16.8,49,16.8,48.9,16.8L48.9,16.8L48.9,16.8C48.9,16.8,48.9,16.8,48.9,16.8L48.9,16.8
							C48.9,16.8,48.9,16.8,48.9,16.8L48.9,16.8L48.9,16.8L48.9,16.8C48.9,16.8,48.9,16.8,48.9,16.8L48.9,16.8L48.9,16.8L48.9,16.8
							C48.9,16.8,48.9,16.8,48.9,16.8z M51.2,14.3v2.1c0.6-0.4,1.3-0.4,1.9,0v-2.1C52.6,13.8,51.7,13.8,51.2,14.3
							C51.2,14.3,51.2,14.3,51.2,14.3z M46.9,14.3v2.1c0.3-0.2,0.6-0.3,1-0.3c0.3,0,0.6,0.1,0.9,0.3v-2.1c-0.2-0.2-0.6-0.4-0.9-0.4
							C47.5,13.9,47.2,14.1,46.9,14.3C46.9,14.3,46.9,14.3,46.9,14.3z M49.1,14.3v2.1c0.3-0.2,0.6-0.3,1-0.3c0.3,0,0.6,0.1,0.9,0.3
							v-2.1c-0.2-0.2-0.6-0.4-0.9-0.4C49.7,13.9,49.3,14.1,49.1,14.3C49.1,14.3,49.1,14.3,49.1,14.3z"/>
					</g>
					<g>
						<g>
							<path fill="#FDDA2A" d="M55.9,61.7v-0.6h-1.7v-1.8h-0.6v1.8h-1.4v-1.8h-0.6v1.8h-1.4v-1.8h-0.6v1.8h-1.4v-1.8h-0.6v1.8h-1.4
								v-1.8h-0.6v1.8h-1.7v0.6h1.7v1.5h-1.7v0.6h1.7v1.5h-1.7v0.6h1.7v1.5h-0.3L46,69l0.6-1.5h-0.3v-1.5h1.4v1.5h-0.3L48,69
								l0.6-1.5h-0.3v-1.5h1.4v1.5h-0.3L50,69l0.6-1.5h-0.3v-1.5h1.4v1.5h-0.3L52,69l0.6-1.5h-0.3v-1.5h1.4v1.5h-0.3L54,69l0.6-1.5
								h-0.3v-1.5h1.7v-0.6h-1.7v-1.5h1.7v-0.6h-1.7v-1.5L55.9,61.7z M46.3,61.7h1.4v1.5h-1.4V61.7z M46.3,65.3v-1.5h1.4v1.5H46.3z
								 M48.3,61.7h1.4v1.5h-1.4L48.3,61.7z M48.3,65.3v-1.5h1.4v1.5H48.3z M50.3,61.7h1.4v1.5h-1.4L50.3,61.7z M50.3,65.3v-1.5h1.4
								v1.5H50.3z M52.3,61.7h1.4v1.5h-1.4V61.7z M52.3,65.3v-1.5h1.4v1.5H52.3z"/>
							<path fill="#111111" d="M52,69.3l-0.8-2h0.4v-1.3h-1.1v1.3h0.4l-0.8,2l-0.8-2h0.4v-1.3h-1.1v1.3h0.4l-0.8,2l-0.8-2h0.4v-1.3
								h-1.1v1.3h0.4l-0.8,2l-0.8-2h0.4v-1.3h-1.7v-0.9h1.7v-1.3h-1.7v-0.8h1.7v-1.3h-1.7v-0.9h1.7v-1.8h0.9v1.8h1.1v-1.8h0.9v1.8
								h1.1v-1.8h0.8v1.8h1.1v-1.8h0.9v1.8h1.1v-1.8h0.8v1.8h1.7v0.8l-1.7,0v1.3h1.7v0.8h-1.7v1.3h1.7v0.9h-1.7v1.3h0.4l-0.8,2
								l-0.8-2h0.4v-1.3h-1.1v1.3h0.4L52,69.3z M53.5,67.6l0.4,1.1l0.4-1.1h-0.2v-1.8h1.7v-0.4h-1.7v-1.8h1.7v-0.4h-1.7v-1.8l1.7,0
								v-0.4h-1.7v-1.8h-0.4v1.8h-1.6v-1.8h-0.4v1.8h-1.6v-1.8h-0.4v1.8h-1.6v-1.8h-0.4v1.8h-1.6v-1.8h-0.4v1.8h-1.7v0.4h1.7v1.8
								h-1.7v0.4h1.7v1.8h-1.7v0.4h1.7v1.8h-0.2l0.4,1.1l0.4-1.1h-0.2v-1.8h1.6v1.8h-0.2l0.4,1.1l0.4-1.1h-0.2v-1.8h1.6v1.8h-0.2
								l0.4,1.1l0.4-1.1h-0.2v-1.8h1.6v1.8h-0.2l0.4,1.1l0.4-1.1h-0.2v-1.8h1.6v1.8H53.5z M55.9,61.7L55.9,61.7L55.9,61.7z
								 M53.8,65.4h-1.6v-1.8h1.6V65.4z M52.4,65.2h1.1v-1.3h-1.1V65.2z M51.8,65.4h-1.6v-1.8h1.6V65.4z M50.4,65.2h1.1v-1.3h-1.1
								V65.2z M49.8,65.4h-1.6v-1.8h1.6V65.4z M48.4,65.2h1.1v-1.3h-1.1V65.2z M47.8,65.4h-1.6v-1.8h1.6V65.4z M46.5,65.2h1.1v-1.3
								h-1.1V65.2z M53.8,63.3h-1.6v-1.8h1.6V63.3z M52.4,63.1h1.1v-1.3h-1.1V63.1z M51.8,63.3h-1.6v-1.8h1.6V63.3z M50.4,63.1h1.1
								v-1.3h-1.1V63.1z M49.8,63.3h-1.6l0-1.8h1.6V63.3z M48.4,63.1h1.1v-1.3h-1.1L48.4,63.1z M47.8,63.3h-1.6v-1.8h1.6V63.3z
								 M46.5,63.1h1.1v-1.3h-1.1V63.1z"/>
						</g>
						<g>
							<path fill="#FAFAFA" d="M55.4,77.6V66.7c0-5.1-4.4-6.9-5.4-6.9s-5.4,1.8-5.4,6.9v10.9H20.2l2.2-2.2V48.9h2.2v3.5h2.9v-3.5h4
								v3.5h2.9v-3.5h4v3.5h2.9v-3.5h4v3.5H48v-3.5h4v3.5h2.9v-3.5h4v3.5h2.9v-3.5h4v3.5h2.9v-3.5h4v3.5h2.9v-3.5h2.2v26.5l2.2,2.2
								H55.4z"/>
							<path fill="#111111" d="M77.4,49.2v26.4l1.8,1.8H55.6V66.7c0-5.3-4.6-7.2-5.6-7.2s-5.6,1.9-5.6,7.2v10.7H20.7l1.8-1.8V49.2
								h1.8v3.5h3.4v-3.5h3.5v3.5h3.4v-3.5H38v3.5h3.4v-3.5h3.5v3.5h3.4v-3.5h3.5v3.5h3.4v-3.5h3.5v3.5H62v-3.5h3.5v3.5h3.4v-3.5
								h3.5v3.5h3.4v-3.5H77.4 M77.9,48.7h-2.7v3.5h-2.4v-3.5h-4.5v3.5h-2.4v-3.5h-4.5v3.5h-2.4v-3.5h-4.5v3.5h-2.4v-3.5h-4.5v3.5
								h-2.4v-3.5h-4.5v3.5h-2.4v-3.5h-4.5v3.5h-2.4v-3.5h-4.5v3.5h-2.4v-3.5h-2.7v26.6L20.4,77l-0.8,0.8h25.3V66.7
								c0-2.6,1.2-4.3,2.3-5.2c1.3-1.1,2.6-1.5,2.9-1.5s1.6,0.4,2.9,1.5c1,0.9,2.3,2.6,2.3,5.2v11.1h25.3L79.6,77l-1.7-1.7
								L77.9,48.7L77.9,48.7z"/>
						</g>
						<path fill="#111111" d="M43.1,75.7H22.4v-0.3h6.9v-3.2h-6.7v-0.3h3.3v-3.2h-3.3v-0.3h6.7v-3.2h-6.7v-0.3h3.3v-3.2h-3.3v-0.3
							h6.7v-3.2h-6.7v-0.3h3.3v-3.2h-3.3v-0.3H50v0.3h-3.3v3.2H50v0.3h-6.7v3.2h1.4v0.3h-4.8v3.2h3.3v0.3h-6.7v3.2h6.7v0.3h-3.3v3.2
							h3.3v0.3h-6.7v3.2h6.7V75.7z M29.6,75.4h6.5v-3.2h-6.5V75.4z M33,71.9h6.5v-3.2H33V71.9z M26.2,71.9h6.5v-3.2h-6.5V71.9z
							 M29.6,68.4h6.5v-3.2h-6.5V68.4z M33,64.9h6.5v-3.2H33V64.9z M26.2,64.9h6.5v-3.2h-6.5V64.9z M36.4,61.4H43v-3.2h-6.5V61.4z
							 M29.6,61.4h6.5v-3.2h-6.5V61.4z M39.9,57.8h6.5v-3.2h-6.5V57.8z M33,57.8h6.5v-3.2H33V57.8z M26.2,57.8h6.5v-3.2h-6.5V57.8z"
							/>
						<g transform="translate(500 0) scale(-1 1)">
							<path fill="#111111" d="M77.6,75.7H56.9v-0.3h6.7v-3.2h-6.7v-0.3h3.3v-3.2h-3.3v-0.3h6.7v-3.2h-6.7v-0.3h3.3v-3.2h-4.8v-0.3
								h1.4v-3.2H50v-0.3h3.3v-3.2H50v-0.3h27.4v0.3h-3.3v3.2h3.3v0.3h-6.7v3.2h6.7v0.3h-3.3v3.2h3.3v0.3h-6.7v3.2h6.7v0.3h-3.3v3.2
								h3.3v0.3h-6.7v3.2h6.9V75.7z M63.9,75.4h6.5v-3.2h-6.5V75.4z M67.3,71.9h6.5v-3.2h-6.5V71.9z M60.4,71.9H67v-3.2h-6.5V71.9z
								 M63.9,68.4h6.5v-3.2h-6.5V68.4z M67.3,64.9h6.5v-3.2h-6.5V64.9z M60.4,64.9H67v-3.2h-6.5V64.9z M63.9,61.4h6.5v-3.2h-6.5
								V61.4z M57,61.4h6.5v-3.2H57V61.4z M67.3,57.8h6.5v-3.2h-6.5V57.8z M60.4,57.8H67v-3.2h-6.5V57.8z M53.6,57.8h6.5v-3.2h-6.5
								V57.8z"/>
						</g>
						<g>
							<path fill="#FAFAFA" d="M56.4,77.5c-0.1,0-0.2-0.1-0.2-0.2V66.7c0-5.7-5-7.8-6.2-7.8s-6.2,2-6.2,7.8v10.7
								c0,0.1-0.1,0.2-0.2,0.2h-0.8c-0.1,0-0.2-0.1-0.2-0.2V66.7c0-6.1,5.3-8.8,7.3-8.8s7.3,2.7,7.3,8.8v10.7c0,0.1-0.1,0.2-0.2,0.2
								H56.4z"/>
							<path fill="#111111" d="M50,58c1.8,0,7.2,2.5,7.2,8.7v10.7h-0.8V66.7c0-5.9-5.1-7.9-6.4-7.9s-6.4,2.1-6.4,7.9v10.7h-0.8V66.7
								C42.8,60.5,48.2,58,50,58 M50,57.7c-1.1,0-2.9,0.7-4.5,2.1c-1.4,1.2-3,3.4-3,6.9v10.7c0,0.2,0.1,0.3,0.3,0.3h0.8
								c0.2,0,0.3-0.1,0.3-0.3V66.7c0-3,1.4-4.9,2.6-5.9c1.3-1.2,2.9-1.7,3.5-1.7s2.2,0.5,3.5,1.7c1.2,1,2.6,2.9,2.6,5.9v10.7
								c0,0.2,0.1,0.3,0.3,0.3h0.8c0.2,0,0.3-0.1,0.3-0.3V66.7c0-3.5-1.6-5.7-3-6.9C52.9,58.4,51.1,57.7,50,57.7L50,57.7z"/>
						</g>
					</g>
				</g>
				<path fill="#111111" d="M50,96.4c-22.1,0-40-17.9-40-40V3.6h80v52.8C90,78.5,72.1,96.4,50,96.4z M11,4.6v51.8
					c0,21.5,17.5,39,39,39c21.5,0,39-17.5,39-39V4.6H11z"/>
			</g>
		</g>
	</g>
</g>
</svg>
