<?xml version="1.0" encoding="utf-8"?>
<!-- Generator: Adobe Illustrator 21.0.0, SVG Export Plug-In . SVG Version: 6.00 Build 0)  -->
<svg version="1.1" id="Layer_1" xmlns="http://www.w3.org/2000/svg" xmlns:xlink="http://www.w3.org/1999/xlink" x="0px" y="0px"
	 viewBox="0 0 100 100" style="enable-background:new 0 0 100 100;" xml:space="preserve">
<g>
	<polygon points="33,37.2 26.7,18 20.5,37.2 0.3,37.2 16.6,49.1 10.4,68.3 26.7,56.4 43.1,68.3 36.8,49.1 53.2,37.2 	"/>
	<polygon points="71.7,21.3 75.1,27.1 75.7,20.4 82.3,18.8 76.1,16.2 76.7,9.5 72.3,14.6 66.1,11.9 69.5,17.7 65.1,22.8 	"/>
	<polygon points="89,39 90,45.7 93.1,39.7 99.8,40.9 95.1,36.1 98.2,30.1 92.2,33.1 87.5,28.2 88.5,34.9 82.4,37.9 	"/>
	<polygon points="95,65.3 100.3,61.2 93.6,61.4 91.3,55.1 89.4,61.6 82.7,61.8 88.3,65.6 86.4,72 91.7,67.9 97.3,71.7 	"/>
	<polygon points="76,80.9 76.3,74.2 72.1,79.5 65.8,77.1 69.5,82.7 65.3,88 71.8,86.2 75.5,91.8 75.8,85.1 82.3,83.3 	"/>
</g>
</svg>
