<?xml version="1.0" encoding="utf-8"?>
<!-- Generator: Adobe Illustrator 21.0.0, SVG Export Plug-In . SVG Version: 6.00 Build 0)  -->
<svg version="1.1" id="Layer_1" xmlns="http://www.w3.org/2000/svg" xmlns:xlink="http://www.w3.org/1999/xlink" x="0px" y="0px"
	 viewBox="0 0 100 100" style="enable-background:new 0 0 100 100;" xml:space="preserve">
<path d="M51.4,81.1c0,1.4,0,2.8,0,4.2c-0.1,2.5,0.6,4.8,2.2,6.8c1.8,2.4,1.7,4.9,0,6.7c-1.5,1.6-4.1,1.9-5.9,0.8
	c-2-1.3-3.2-4.2-1.8-5.9c3.8-4.6,3.1-9.9,3.1-15.1c0-2-0.4-4-0.5-6c-0.1-1.1-0.6-1.4-1.6-1.6c-1-0.1-1.9-0.3-2.9-0.6
	c-2.9-1-2.9-1-4.7,1.5c-2.6,3.4-4.6,7-3.8,11.7c0.4,2.4-1.8,4.7-4.2,5c-1.9,0.3-4.3-1.3-5-3.3c-0.8-2.2,0.1-4.8,2.3-5.7
	c5.1-2,7.2-6.2,8.8-10.9c0.2-0.5-0.1-1.5-0.5-2c-0.6-0.8-1.5-1.4-2.2-2.1c-2-2.3-2.1-2.4-4.9-1c-3.5,1.8-7.1,3.6-10.4,5.8
	c-1.6,1.1-2.8,2.9-3.7,4.6c-2,3.9-5.8,4.9-8.4,1.9c-1.3-1.5-1.6-3.2-0.8-5c0.7-1.7,2.1-3.2,3.9-2.8c5.7,1,9.9-2,14.3-4.6
	c1.8-1.1,3.6-2.4,5.2-3.7c0.4-0.3,0.6-1.1,0.5-1.7c-0.3-1.7-0.8-3.3-1.3-4.9c-0.2-0.5-0.8-1.1-1.4-1.3c-1.4-0.3-2.8-0.4-4.2-0.5
	c-3.4-0.3-6.6,0.3-9.3,2.5c-1.3,1-2.7,1.4-4.3,0.8c-1.9-0.6-3-1.9-3.3-3.8c-0.3-2,0.5-3.6,2.2-4.7c1.6-1,3.4-1.2,4.8,0
	c4.2,3.5,8.9,3.1,13.8,2.4c1.1-0.1,1.6-0.6,1.8-1.7c0.1-0.9,0.3-1.8,0.5-2.7c1-3.1,1.1-3.2-1.6-5c-3.4-2.2-6.9-4.4-10.6-6.2
	c-1.8-0.8-4-0.8-6.1-0.7c-2.7,0-4.9-1.4-5.4-3.9c-0.4-2.3,1.1-4.7,3.4-5.4c2-0.6,4.4,0,5.1,1.9c2.4,6.2,8.2,8.1,13.2,11.1
	c1,0.6,2.3,0.9,3.3,1.5c1.2,0.7,2,0.3,2.8-0.7c0.5-0.7,1.1-1.3,1.7-1.9c2.8-2.5,2.3-1.6,1.1-4.7c-1.6-4-3.7-7.5-8.1-9.2
	c-2.5-1-3.3-3.5-2.4-6c0.8-2.2,3.1-3.4,5.3-2.9c2.6,0.6,4.2,2.7,3.8,5.4c-0.8,5.4,2.2,9.1,5.2,12.8c0.3,0.3,1.2,0.4,1.8,0.2
	c1.1-0.2,2.2-0.9,3.3-0.9c1.9-0.1,2.8-0.9,2.8-2.8c0-4.8,0.3-9.6,0-14.3c-0.1-1.8-1.6-3.5-2.6-5.2c-1.1-2-0.8-4.4,0.8-5.9
	c1.6-1.5,4-1.7,5.9-0.4c1.8,1.2,2.9,4.1,1.5,5.8c-4.1,5-2.8,10.8-3,16.4c0,0.7,0.1,1.3,0.1,2c0.1,3.5,0.2,3.7,3.6,4.4
	c0.3,0.1,0.6,0.1,0.9,0.2c3.4,1.1,3.3,1.1,5.4-1.8c2.4-3.3,4.2-6.7,3.5-11c-0.4-2.6,1.4-4.7,4-5.1c2.3-0.4,4.5,1,5.2,3.4
	c0.7,2.2-0.2,4.7-2.6,5.6c-5.1,2-7,6.4-8.7,11c-0.2,0.4,0.1,1.3,0.5,1.7c0.6,0.8,1.5,1.3,2.1,2c2.2,2.4,2.3,2.6,5.3,1.2
	c3.7-1.8,7.3-3.8,10.6-6.1c1.7-1.2,2.7-3.4,3.9-5.2c1.8-3,5.5-3.6,7.7-1.1c1.4,1.5,1.6,3.3,0.8,5.1c-0.8,1.7-2.2,3-4.2,2.7
	c-8.2-0.9-13.5,4.6-19.5,8.5c-0.3,0.2-0.4,1.1-0.3,1.6c0.2,1,0.7,2,0.9,3c0.6,3.2,0.6,3.2,3.8,3.5c4.3,0.4,8.4,0.3,12-2.6
	c1.7-1.4,4.5-0.8,6,0.8c1.6,1.7,1.6,4.4,0.1,6.2c-1.4,1.7-4.2,2.4-5.9,1c-4.3-3.6-9.2-3.2-14.1-2.3c-0.5,0.1-1.2,0.8-1.4,1.3
	c-0.5,1.5-1,3.2-1.3,4.8c-0.1,0.5,0.1,1.5,0.4,1.7c4.4,2.8,8.8,5.6,13.3,8c1.4,0.7,3.3,0.4,5,0.3c2.6-0.1,4.8,1.2,5.4,3.7
	c0.6,2.2-0.7,4.6-2.9,5.6c-2.1,0.9-4.7,0.2-5.7-2C82.1,68,74.9,66.1,68.5,63c-0.4-0.2-1.4,0.1-1.8,0.5c-0.8,0.7-1.5,1.7-2.3,2.4
	c-2.1,1.9-2.2,1.9-1,4.5c1.3,2.9,2.5,6,5.5,7.8c0.9,0.6,2,1,2.9,1.5c2.1,1.2,2.9,3.5,2.1,5.7c-0.7,2.1-3.1,3.6-5,3.3
	c-2.4-0.4-4.5-2.4-4.1-4.9c0.8-5.3-1.8-9.2-4.7-13c-0.8-1-1.5-1.2-2.6-0.8c-1,0.4-2.1,0.8-3.2,0.9c-1.9,0.1-2.7,1-2.7,2.8
	C51.5,76.2,51.4,78.7,51.4,81.1C51.3,81.1,51.4,81.1,51.4,81.1z"/>
</svg>
