<?xml version="1.0" encoding="utf-8"?>
<!-- Generator: Adobe Illustrator 21.0.0, SVG Export Plug-In . SVG Version: 6.00 Build 0)  -->
<svg version="1.1" id="Layer_1" xmlns="http://www.w3.org/2000/svg" xmlns:xlink="http://www.w3.org/1999/xlink" x="0px" y="0px"
	 viewBox="0 0 100 100" style="enable-background:new 0 0 100 100;" xml:space="preserve">
<path d="M44.5,86.6c-6.5-0.9-12-3.5-17.1-7.3c-1.1,2-1.2,4.1-1,6.2c0.1,1.1,0.3,2.3,0.3,3.4c0,2.4-1.4,3.4-3.6,2.4
	c-1.6-0.7-3.2-1.7-4.6-2.8c-3.8-2.9-7.1-6.3-9.2-10.7c-1.7-3.4-0.5-5.1,3.2-5c2.6,0.1,5.2,0.6,7.8-0.9c-3.6-5.1-6.1-10.8-6.9-17.2
	c-2.3,0.5-3.6,2-5,3.5c-0.8,0.9-1.5,2-2.4,2.9c-1.6,1.6-3.2,1.3-4.2-0.7C0.2,57.3-0.1,54,0,50.6c0.2-3.4,0.6-6.8,1.4-10
	c0.9-3.5,3.3-3.8,5.7-1.1c1.8,1.9,3.3,4.1,6.2,4.9c1.2-6.2,3.3-12,7.4-17c-2.3-1.5-4.7-1.2-7-1c-0.9,0.1-1.8,0.2-2.7,0.2
	c-2.5,0-3.5-1.4-2.4-3.7c0.8-1.8,1.8-3.7,3.2-5.2c2.8-2.8,5.8-5.3,8.8-7.9C21.2,9.4,22,9,22.8,8.7c2.9-1,4.5,0.3,4.4,3.3
	c-0.1,2-0.1,4.1,0,6.1c0,0.7,0.5,1.4,0.8,2.2c5-3.6,10.4-6,17-6.9c-1-1.5-1.7-2.8-2.7-3.9c-1-1.1-2.3-2-3.4-3.1
	c-1.7-1.7-1.5-3.6,0.8-4.6c1.8-0.8,3.9-1.2,5.9-1.6c4.1-0.7,8.1-0.4,12.2,0.4C58,0.8,58.4,1,58.8,1.1c1.4,0.5,3,0.9,3.3,2.5
	c0.3,1.7-1.1,2.6-2.3,3.5c-2.1,1.7-4.2,3.3-5.1,6.2c6.2,1,12,3.1,17.1,7c1.4-2.1,1.2-4.4,1.1-6.5c0-0.9-0.2-1.8-0.1-2.7
	c0.2-2.2,1.5-3.2,3.6-2.5c1.8,0.6,3.4,1.7,5,2.7c3.6,2.5,6.5,5.8,8.9,9.5c0.6,0.9,1.1,2,1.3,3.1c0.4,1.7-0.6,2.8-2.3,2.8
	c-1.3,0-2.6-0.1-3.9-0.3c-2.1-0.2-4.1-0.1-6.1,1.1c3.8,5.1,6.3,10.7,7.3,17c2.4-0.7,4-2.3,5.4-4.1c1-1.3,2-2.9,3.9-2.5
	c2.1,0.4,2.7,2.3,3.1,4.1c1.2,5.4,1.2,10.9,0,16.3C99,58.6,99,58.8,98.9,59c-0.5,1.4-1,3-2.6,3c-1.1,0-2.2-1.1-3.1-1.9
	c-1.5-1.3-2.7-2.9-4.1-4.2c-0.5-0.5-1.3-0.8-2.3-1.3c-1.1,6.4-3.2,12.2-7,17.4c1.8,1.1,3.6,1.1,5.5,1.1c1.1,0,2.1-0.2,3.2-0.2
	c2.5,0,3.7,1.7,2.7,4c-0.9,2.1-2.2,4.3-3.7,6c-2.3,2.6-5,4.9-7.7,7.1c-1,0.8-2.3,1.3-3.5,1.6c-2,0.5-3-0.2-3-2.2
	c-0.1-1.3,0.3-2.6,0.3-3.9c0-1.9-0.2-3.9-0.6-5.9c-5.5,3.9-11.4,6.4-18,7.2c0.6,2.3,2.1,3.6,3.7,5c0.8,0.8,1.8,1.4,2.6,2.2
	c1.6,1.6,1.5,3.2-0.7,4.2c-1.4,0.7-3,1-4.5,1.3c-4.5,0.8-8.9,0.6-13.3-0.3c-0.4-0.1-0.9-0.2-1.3-0.4c-1.5-0.6-3.1-1.1-3.5-2.9
	c-0.3-1.7,1.1-2.6,2.2-3.6c1.2-1.2,2.4-2.4,3.5-3.6C43.9,88.2,44.1,87.4,44.5,86.6z"/>
</svg>
