<?xml version="1.0" encoding="utf-8"?>
<!-- Generator: Adobe Illustrator 21.0.0, SVG Export Plug-In . SVG Version: 6.00 Build 0)  -->
<svg version="1.1" id="Layer_1" xmlns="http://www.w3.org/2000/svg" xmlns:xlink="http://www.w3.org/1999/xlink" x="0px" y="0px"
	 viewBox="0 0 100 100" style="enable-background:new 0 0 100 100;" xml:space="preserve">
<path d="M48,83.9c-6-0.4-11.5-2.2-16.6-5.4c-1.2,1.7-2.4,3.2-3.5,4.9c-0.3,0.4-0.2,1.1-0.1,1.7c0.8,3.3-1.2,6.2-4.5,6.2
	c-2.7,0-4.7-2-4.7-4.7c0-2.7,2-4.8,4.7-4.7c1.2,0.1,1.8-0.4,2.4-1.3c0.9-1.4,1.9-2.6,2.9-4.1c-4.8-3.9-8.3-8.8-10.6-14.6
	c-1.9,0.6-3.8,1.1-5.6,1.8c-0.4,0.2-0.8,0.8-1,1.3c-0.7,2.1-2.2,3.5-4.4,3.5c-1.9,0.1-3.8-1.1-4.5-2.9c-0.8-1.9-0.2-4.1,1.3-5.3
	c1.7-1.4,3.8-1.5,5.6-0.2c0.9,0.6,1.6,0.6,2.4,0.3c1.6-0.6,3.2-1,4.8-1.6c0.1,0,0.2-0.1,0.3-0.3c-1.4-5.7-1.4-11.5,0-17.3
	c-2-0.6-3.9-1.3-5.8-1.8c-0.4-0.1-1.1,0.1-1.5,0.3c-2,1.3-4,1.3-5.8,0c-1.5-1.2-2.2-3.3-1.5-5.1C3.1,32.7,5,31.3,7,31.3
	c2.1,0,3.8,1.4,4.5,3.6c0.2,0.5,0.6,1.1,1.1,1.3c1.8,0.7,3.6,1.2,5.5,1.8c2.3-5.8,5.7-10.7,10.6-14.6c-1.2-1.7-2.3-3.3-3.5-4.8
	c-0.3-0.3-0.9-0.6-1.4-0.6c-2.3,0-4.2-1.2-4.9-3.2c-0.6-1.9,0-4,1.7-5.3c1.6-1.2,3.9-1.3,5.5-0.1c1.8,1.3,2.4,3.3,1.7,5.7
	c-0.1,0.4-0.2,1,0,1.4c1.1,1.7,2.3,3.3,3.6,4.9c5.2-3.3,10.7-5,16.9-5.4c0-2.2,0-4.3,0-6.4c0-0.4-0.5-0.8-0.9-1.1
	c-1.8-1.5-2.5-3.5-1.7-5.5c0.7-1.9,2.6-3.1,4.6-3c1.9,0.1,3.7,1.4,4.3,3.2c0.6,2.1-0.1,4-1.9,5.5c-0.5,0.4-0.9,1.1-0.9,1.7
	c-0.1,1.8,0,3.7,0,5.6c6.2,0.4,11.8,2.1,17,5.5c1.2-1.7,2.5-3.4,3.6-5.1c0.2-0.4,0-1.1-0.1-1.7c-0.7-2.6,0.7-5.2,3.1-5.9
	c2.4-0.7,5.1,0.6,5.9,3c0.8,2.4-0.5,5-2.8,5.9c-0.1,0-0.2,0.1-0.3,0.1c-3-0.5-3.9,1.9-5.3,3.7c-0.4,0.6-0.9,1.2-1.4,1.9
	c4.7,3.9,8.3,8.7,10.5,14.6c2-0.7,4-1.2,5.8-1.9c0.4-0.1,0.7-0.7,0.9-1.2c0.7-2.2,2.3-3.5,4.3-3.6c2.1-0.1,3.9,1.1,4.6,3
	c0.7,1.9,0.1,4.1-1.4,5.3c-1.7,1.3-3.9,1.3-5.8,0.1c-0.4-0.2-0.9-0.5-1.3-0.4c-2,0.6-4,1.3-6.1,1.9c1.4,5.9,1.4,11.7,0,17.6
	c2.1,0.7,4.1,1.4,6.1,1.9c0.4,0.1,0.9-0.2,1.3-0.4c2.1-1.3,4-1.3,5.8,0.1c1.5,1.2,2.2,3.4,1.5,5.1c-0.7,1.9-2.6,3.2-4.5,3.2
	c-2.1,0-3.7-1.4-4.5-3.6c-0.2-0.5-0.7-1.1-1.2-1.3c-1.7-0.7-3.5-1.2-5.5-1.8c-2.3,5.7-5.7,10.6-10.6,14.6c1.2,1.7,2.3,3.4,3.6,4.9
	c0.3,0.4,1.2,0.4,1.8,0.5c2.4,0.1,4.3,1.8,4.6,4.1c0.3,2.3-1.1,4.5-3.2,5.1c-2.3,0.7-4.8-0.3-5.6-2.5c-0.4-1.1-0.1-2.5-0.2-3.7
	c0-0.5,0.1-1.1-0.1-1.5c-0.9-1.4-1.9-2.7-2.8-4c-0.2-0.3-0.4-0.5-0.7-0.9c-5.1,3.2-10.7,5-16.9,5.4c0,2.2,0,4.2,0,6.3
	c0,0.4,0.5,0.8,0.9,1.1c1.9,1.4,2.6,3.4,2,5.5C53.9,98.6,52,100,50,100c-2,0-3.8-1.2-4.5-3c-0.8-2-0.1-4.1,1.7-5.6
	c0.5-0.4,0.9-1.2,1-1.9c0.1-1.7,0-3.4,0-5C48.2,84.3,48.1,84.2,48,83.9z"/>
</svg>
