<?xml version="1.0" encoding="utf-8"?>
<!-- Generator: Adobe Illustrator 21.0.0, SVG Export Plug-In . SVG Version: 6.00 Build 0)  -->
<svg version="1.1" id="Layer_1" xmlns="http://www.w3.org/2000/svg" xmlns:xlink="http://www.w3.org/1999/xlink" x="0px" y="0px"
	 viewBox="0 0 100 100" style="enable-background:new 0 0 100 100;" xml:space="preserve">
<path d="M47.8,54.7c0-2.3,0.1-4.3-0.1-6.4c0-0.4-0.7-0.8-1.1-1c-2.1-1-4.3-1.9-6.5-2.7c-0.5-0.2-1.3-0.2-1.6,0.1
	c-1.5,1.2-2.9,2.6-4.4,4.1c0.6,0.7,1,1.1,1.4,1.6c1,1.1,0.9,2.2,0,3.2c-0.9,1.1-2.1,1.1-3.1,0.2c-2.2-2.1-4.3-4.2-6.4-6.4
	c-0.9-1-0.8-2.1,0.1-3c0.9-1,2-0.9,3-0.2c0.6,0.4,1.1,0.9,1.6,1.4c1.6-1.7,3.2-3.4,4.6-4.8c-1-2.6-1.9-5.2-2.9-7.9
	c-0.1-0.3-0.6-0.8-0.9-0.8c-2.1-0.1-4.1,0-6.3,0c-0.1,0.8,0,1.4-0.1,2.1c-0.2,1.3-0.9,2.1-2.2,2.1c-1.4,0-2.3-0.8-2.4-2.1
	c-0.1-3-0.1-6,0-9c0-1.2,0.9-2.1,2.2-2.1c1.4,0,2.4,0.9,2.3,2.2c-0.2,2.3,1.1,2.3,2.7,2.2c1.4-0.1,3,0.4,4-0.2
	c0.9-0.6,0.9-2.4,1.5-3.6c0.7-1.6,1.5-3.2,2.2-4.7c-1.5-1.5-3.2-3.1-4.9-4.8c-0.2,0.2-0.8,0.7-1.4,1.1c-1.1,0.8-2.1,0.7-3-0.2
	c-1-0.9-1.1-2.1-0.2-3c2.1-2.2,4.2-4.3,6.4-6.4c0.9-0.9,2.1-0.8,3,0.2c0.9,0.9,1.1,2,0.3,3c-0.4,0.6-0.9,1.1-1.6,1.8
	c1.5,1.5,3,3,4.6,4.4c0.2,0.2,0.9,0.1,1.2,0c2.3-0.9,4.7-1.9,7-2.9c0.4-0.2,0.8-0.6,0.8-0.9c0.1-2.1,0-4.1,0-6.3
	c-0.8-0.1-1.5-0.1-2.1-0.2c-1.3-0.2-2.2-1-2.1-2.4C43.5,0.8,44.3,0,45.7,0c2.8,0,5.7,0,8.5,0c1.4,0,2.3,0.8,2.3,2.1
	c0.1,1.4-0.8,2.2-2.1,2.4c-0.6,0.1-1.3,0.1-2.2,0.1c0,2.1,0,4.1,0,6c0,0.3,0.5,0.8,0.8,0.9c2.6,1,5.2,1.9,7.8,2.9
	c1.4-1.4,3-3,4.7-4.7c-0.3-0.3-0.8-0.8-1.2-1.2c-0.8-1-0.8-2.1,0.1-3c0.8-0.9,2-1.1,2.9-0.3c2.3,2.2,4.6,4.4,6.7,6.8
	c0.4,0.5,0.2,1.9-0.2,2.7c-0.6,1-1.7,1.2-2.8,0.6c-0.7-0.4-1.3-1-1.9-1.5c-1.7,1.7-3.3,3.3-4.6,4.6c1,2.7,1.9,5.4,2.9,8
	c0.1,0.3,0.5,0.7,0.8,0.7c2.1,0.1,4.2,0,6.4,0c0-0.8,0.1-1.4,0.1-2c0.1-1.4,0.8-2.2,2.2-2.3c1.3-0.1,2.3,0.8,2.3,2
	c0.1,3.1,0.2,6.3-0.1,9.4c-0.1,0.7-1.3,1.6-2.2,1.8c-1.2,0.2-2.1-0.7-2.2-2c-0.1-0.6,0-1.2,0-2.1c-2.2,0-4.4,0-6.5,0
	c-0.3,0-0.7,0.5-0.8,0.9c-1,2.5-1.9,5-3,8c1.4,1.3,3.2,3,5,4.8c0.6-0.6,1-1,1.5-1.4c1-0.8,2.1-0.8,3.1,0.1c0.9,0.8,1.1,2,0.3,2.9
	c-2.2,2.4-4.5,4.7-6.9,6.9c-0.9,0.9-2.2,0.6-2.8-0.4c-0.4-0.7-0.5-1.8-0.3-2.7c0.1-0.7,0.9-1.2,1.7-2.2c-1.5-1.4-3-2.8-4.6-4.1
	c-0.3-0.2-1.1-0.2-1.5,0c-2.2,0.9-4.3,1.8-6.5,2.7c-0.5,0.2-1.1,0.7-1.1,1c-0.1,2-0.1,4.1-0.1,6.3c0.8,0,1.5,0.1,2.1,0.1
	c1.2,0.1,2,0.8,2.1,2c0.2,1.3-0.6,2.4-1.8,2.5c-3.2,0.2-6.4,0.2-9.6,0c-1.3-0.1-2-1.1-1.8-2.4c0.1-1.2,0.9-2,2.2-2.1
	C46.4,54.7,46.9,54.7,47.8,54.7z M49.2,17.7c-5.9,0.1-11.3,5.7-10.9,11.6c0.1,1.4,0.7,2.3,2.1,2.3c1.4,0,2.2-0.7,2.4-2.1
	c0.7-4.8,2.3-6.4,7.2-7.3c1.4-0.3,2.5-0.9,2.3-2.6C52.1,18.1,50.9,17.6,49.2,17.7z"/>
<path d="M85.3,51.6c2.2-3.1,4.3-6.2,6.5-9.2c1.2-1.7,3-2.1,4.7-1.3c1.6,0.8,2.3,2.3,1.7,4.4c-2.4,9-4.8,18-7.3,27
	c-0.7,2.5-2.2,4.4-4.4,5.8c-4,2.5-8,5-12.1,7.4c-0.4,0.2-0.9,0.5-1.3,0.5c-6.1,0-12.2,0-18.5,0c0.2-0.7,0.2-1.2,0.4-1.6
	c1.6-5.1,3.2-10.1,4.7-15.2c0.7-2.4,2.1-4.2,4.1-5.6c4.5-3.2,9.1-6.4,13.6-9.6c1.8-1.3,3.5-1.2,4.6,0.1c1.2,1.3,1.1,2.9-0.6,4.5
	c-3.5,3.4-7.2,6.6-10.7,10c-0.6,0.5-1,1.5-0.9,2.3c0,0.5,0.9,1.2,1.5,1.4c0.5,0.2,1.3-0.1,1.7-0.4c4.1-3.8,8.3-7.5,12.2-11.5
	C87.4,58.4,87.3,55.2,85.3,51.6z"/>
<path d="M45.2,86c-3.8,0-7.5-0.3-11.2,0.1c-5.4,0.5-10.1-0.7-14.3-4.1c-1.8-1.4-4-2.5-6-3.8c-2.4-1.5-4-3.6-4.8-6.4
	c-2.3-8.8-4.8-17.7-7.1-26.5c-0.5-2,0.2-3.5,1.9-4.4c1.5-0.8,3.1-0.4,4.3,1.2c2.1,2.8,4.2,5.7,6.1,8.7c0.2,0.3,0.2,1.1-0.1,1.5
	c-1.6,3.3-1.4,6.2,1.2,8.8c3.6,3.6,7.4,7,11.1,10.4c1.1,1,2.2,1.4,3.4,0.3c0.9-0.9,0.5-2.2-0.9-3.4c-3.6-3.3-7.1-6.6-10.6-9.9
	c-1.5-1.4-1.5-3-0.4-4.3c1-1.2,2.8-1.5,4.3-0.4c4.9,3.4,9.8,6.8,14.6,10.4c1.4,1,2.6,2.7,3.1,4.3c1.9,5.4,3.5,10.9,5.2,16.4
	C45.2,85.2,45.2,85.5,45.2,86z"/>
<path d="M27.5,90.2c6.4,0,12.4,0,18.7,0c0,2.7,0,5.4,0,8c0,1.2-0.9,1.8-2,1.8c-4.9,0-9.7,0-14.6,0c-1.2,0-2.1-0.6-2.1-1.9
	C27.5,95.5,27.5,92.9,27.5,90.2z"/>
<path d="M53.8,90.2c6.3,0,12.4,0,18.7,0c0,2.7,0,5.4,0,8c0,1.2-0.9,1.8-2,1.8c-4.9,0-9.7,0-14.6,0c-1.1,0-2-0.5-2.1-1.7
	C53.7,95.6,53.8,93,53.8,90.2z"/>
</svg>
