<?xml version="1.0" encoding="utf-8"?>
<!-- Generator: Adobe Illustrator 21.0.0, SVG Export Plug-In . SVG Version: 6.00 Build 0)  -->
<svg version="1.1" id="Layer_1" xmlns="http://www.w3.org/2000/svg" xmlns:xlink="http://www.w3.org/1999/xlink" x="0px" y="0px"
	 viewBox="0 0 100 100" style="enable-background:new 0 0 100 100;" xml:space="preserve">
<path d="M53.3,0C38,5.1,27.4,15.1,22.5,30.6c-3.5,11.1-2.7,22.1,2.4,32.6C31.4,76.7,42,85.1,56.6,88.1c14.5,3,27.5-0.6,39-9.9
	c-4,5.9-9,10.7-15.1,14.4c-11.5,6.9-23.8,9.1-36.9,6.1c-14.9-3.4-26.1-12-33.3-25.5C3.9,61.2,2.7,48.4,6.7,35.3
	c4.2-13.8,13.1-23.9,26-30.4C39.2,1.7,46.1,0.1,53.3,0z"/>
<path d="M57.7,44.8c1.3-1,2.5-2.1,3.8-3.1c1.7-1.4,3.3-2.8,5-4.2c0.4-0.3,0.5-0.6,0.3-1.1c-0.6-2.2-1.2-4.4-1.9-6.5
	c-0.4-1.3-0.8-2.6-1.1-3.9c0-0.1,0-0.3,0-0.7c1.1,0.8,2.1,1.4,3.1,2.1c2.1,1.4,4.3,2.9,6.4,4.4c0.4,0.3,0.6,0.2,0.9-0.1
	c3.2-2.1,6.4-4.2,9.6-6.4c0.1-0.1,0.2-0.1,0.5-0.3c-0.1,0.4-0.1,0.7-0.2,1c-0.9,2.9-1.9,5.9-2.8,8.8c-0.1,0.4-0.2,0.8-0.4,1.1
	c-0.4,0.8-0.2,1.2,0.5,1.7c2.9,2.1,5.7,4.2,8.6,6.3c0.3,0.2,0.5,0.4,0.7,0.7c0,0.1-0.1,0.1-0.1,0.2c-0.3,0-0.5,0.1-0.8,0.1
	c-3.7,0-7.3,0.1-11,0c-0.7,0-0.9,0.3-1.1,0.8c-1,3.5-2,7-3.1,10.5c-0.1,0.2-0.2,0.4-0.4,0.7c-0.6-1.5-1-2.7-1.5-4
	c-0.9-2.4-1.8-4.8-2.7-7.2c-0.2-0.6-0.6-0.9-1.3-0.9c-3.4,0.1-6.7,0.1-10.1,0.1c-0.3,0-0.6-0.1-0.9-0.1C57.8,45,57.8,44.9,57.7,44.8
	z"/>
</svg>
