<?xml version="1.0" encoding="utf-8"?>
<!-- Generator: Adobe Illustrator 21.0.0, SVG Export Plug-In . SVG Version: 6.00 Build 0)  -->
<svg version="1.1" id="Layer_1" xmlns="http://www.w3.org/2000/svg" xmlns:xlink="http://www.w3.org/1999/xlink" x="0px" y="0px"
	 viewBox="0 0 100 100" enable-background="new 0 0 100 100" xml:space="preserve">
<path d="M42.4,7C18.9,7.4,0,26.7,0,50.3c0,23.9,19.4,43.3,43.3,43.3c11.2,0,21.3-4.2,29-11.2c-5.4,3.1-11.7,4.9-18.4,4.9
	C33.5,87.2,17,70.7,17,50.3c0-20.4,16.5-36.9,36.9-36.9c6.7,0,13.1,1.8,18.5,5C64.7,11.3,54.5,7,43.3,7C43,7,42.7,7,42.4,7L42.4,7z"
	/>
<path d="M85.8,69.9L77,57.8l-14.2,4.6l8.8-12.1l-8.8-12.1L77,42.8l8.8-12.1v15l14.2,4.6l-14.2,4.6V69.9z"/>
</svg>
