<?xml version="1.0" encoding="utf-8"?>
<!-- Generator: Adobe Illustrator 24.0.0, SVG Export Plug-In . SVG Version: 6.00 Build 0)  -->
<svg version="1.2" baseProfile="tiny" id="Layer_1" xmlns="http://www.w3.org/2000/svg" xmlns:xlink="http://www.w3.org/1999/xlink"
	 x="0px" y="0px" viewBox="0 0 100 100" xml:space="preserve">
<path fill="#DE1818" d="M99.5,0H0.9v57.5C0.6,66.3,5,75,12.3,82.6C22.2,92.8,37.8,100,50.4,100C73.8,99.9,97,80,99.3,58.2l0-0.3
	L99.5,0z"/>
<path fill="#FFFFFF" d="M24.6,5.6h17.2v18H24.6V5.6z M58.7,23.8h16.7V5.6H58.7V23.8z M6.7,40.7h18.2V23.5H6.7V40.7z M41.5,40.6h17.3
	V23.7H41.5V40.6z M24.6,57.7h17.1V40.6H24.6V57.7z M58.5,58.4h17v-18h-17V58.4z M8.5,66.6c1.5,3.2,2.4,5.4,4.4,8l11.7-0.1v-17
	L7,57.5C7,60.8,7.6,63.6,8.5,66.6z M41.6,74.6h17.3V57.7H41.6V74.6z M24.6,85.5c3.7,2.4,8.7,4.9,12.9,6.5l3.9,0.2V74.5H24.6V85.5z
	 M58.5,92.5l3.8,0.1c4.6-1.4,9.4-4.1,13.1-6.6l0.1-11.5h-17L58.5,92.5z M93.8,23.7H75.4v16.8h18.4V23.7z M75.4,58.5v16.2l11.4,0.2
	c1.6-1.9,3-4.5,4.3-7.1c1.1-3.1,2.2-5.8,2.7-9.2L75.4,58.5L75.4,58.5z"/>
</svg>
