<?xml version="1.0" encoding="utf-8"?>
<!-- Generator: Adobe Illustrator 21.0.0, SVG Export Plug-In . SVG Version: 6.00 Build 0)  -->
<svg version="1.1" id="Layer_1" xmlns="http://www.w3.org/2000/svg" xmlns:xlink="http://www.w3.org/1999/xlink" x="0px" y="0px"
	 viewBox="0 0 100 100" style="enable-background:new 0 0 100 100;" xml:space="preserve">
<path d="M4.3,0v54.3C4.3,79.4,24.9,100,50,100h0c25.1,0,45.7-20.6,45.7-45.7V0H4.3z M94.8,54.4c0,24.7-20.2,44.8-44.8,44.8
	c-24.7,0-44.8-20.2-44.8-44.8V0.9h89.7V54.4z"/>
<g id="g3448">
	<path id="path3450" d="M24.1,2.6H6.8v19h17.3V2.6z"/>
	<path id="path3452" d="M24.1,40.5h17.3v-19H24.1V40.5z"/>
	<path id="path3454" d="M6.8,54.3c0,1.7,0.1,3.4,0.3,5.1h16.9v-19H6.8V54.3z"/>
	<path id="path3456" d="M58.6,40.5H41.3v19h17.3V40.5z"/>
	<path id="path3458" d="M58.6,78.4h17.3v-19H58.6V78.4z"/>
	<path id="path3460" d="M75.8,88.7c3.8-2.9,7.2-6.4,9.8-10.4h-9.8V88.7z"/>
	<path id="path3462" d="M24.1,78.4h17.3v-19H24.1V78.4z"/>
	<path id="path3464" d="M14.2,78.4c2.7,4,6,7.5,9.9,10.4V78.4H14.2z"/>
	<path id="path3466" d="M53,97.3c1.9-0.1,3.8-0.4,5.6-0.8V78.4H41.3v18.2c1.8,0.4,3.7,0.6,5.6,0.8C49,97.5,51,97.4,53,97.3L53,97.3z
		"/>
	<path id="path3468" d="M92.8,59.4c0.2-1.7,0.3-3.4,0.3-5.1V40.5H75.8v19L92.8,59.4L92.8,59.4z"/>
	<path id="path3470" d="M58.6,40.5h17.3v-19H58.6V40.5z"/>
	<path id="path3472" d="M58.6,2.6H41.3v19h17.3V2.6z"/>
	<path id="path3474" d="M93.1,21.5v-19H75.8v19H93.1z"/>
</g>
</svg>
