<?xml version="1.0" encoding="utf-8"?>
<!-- Generator: Adobe Illustrator 21.0.0, SVG Export Plug-In . SVG Version: 6.00 Build 0)  -->
<svg version="1.1" id="Layer_1" xmlns="http://www.w3.org/2000/svg" xmlns:xlink="http://www.w3.org/1999/xlink" x="0px" y="0px"
	 viewBox="0 0 100 100" style="enable-background:new 0 0 100 100;" xml:space="preserve">
<g>
	<path d="M9.5,54.1c0,0,0.1-0.1,0.1-0.2l0.3-0.3l0.4-0.5c0.3-0.3,0.6-0.7,0.7-0.9l0.1-0.1l0-0.2c0.1-0.3,0.2-0.7,0.2-1l0,0l0,0
		c0-0.3-0.1-0.5-0.2-0.8l0-0.2l-0.1,0c-0.2-0.2-0.6-0.4-0.9-0.5c-0.1,0-0.2,0-0.4-0.1c0,0,0,0,0,0v0c-0.3,0-0.7,0-1,0.1
		c-0.3,0.1-0.8,0.3-1,0.6c-0.3,0.4-0.7,1.5-0.7,1.5S6.8,50.3,6.5,50c-0.1-0.1-0.2-0.1-0.2-0.2l0-0.1l-0.1-0.1
		c-0.2-0.1-0.4-0.2-0.6-0.3c0,0-0.1,0-0.1,0l-0.3-0.1l-1.2,0.2l-0.1,0.1c-0.3,0.1-0.5,0.3-0.6,0.5c-0.2,0.3-0.3,0.7-0.2,1l0,0l0,0
		c0,0.3,0.1,0.7,0.2,1c0.2,0.5,1.1,1.5,1.7,2.1c1.2,1.2,2.3,2.1,2.3,2.1S8.3,55.4,9.5,54.1z"/>
	<path d="M4.3,22.7c1.2,1.2,2.3,2.1,2.3,2.1s1.1-0.8,2.3-2.1c0,0,0.1-0.1,0.1-0.2l0.3-0.3l0.4-0.5c0.3-0.3,0.6-0.7,0.7-0.9l0.1-0.1
		l0-0.2c0.1-0.3,0.2-0.7,0.2-1l0,0l0,0c0-0.3-0.1-0.5-0.2-0.8l0-0.2l-0.1,0c-0.2-0.2-0.6-0.4-0.9-0.5c-0.1,0-0.2,0-0.4-0.1
		c0,0,0,0,0,0v0c-0.3,0-0.7,0-1,0.1c-0.3,0.1-0.8,0.3-1,0.6C7,18.9,6.7,20,6.7,20S6.3,18.9,6,18.5c-0.1-0.1-0.2-0.1-0.2-0.2l0-0.1
		l-0.1-0.1c-0.2-0.1-0.4-0.2-0.6-0.3c0,0-0.1,0-0.1,0l-0.3-0.1l-1.2,0.2L3.3,18c-0.3,0.1-0.5,0.3-0.6,0.5c-0.2,0.3-0.3,0.7-0.2,1
		l0,0l0,0c0,0.3,0.1,0.7,0.2,1C2.9,21.1,3.7,22,4.3,22.7z"/>
	<path d="M19.4,81.9c0-0.3-0.1-0.5-0.2-0.8l0-0.2l-0.1,0c-0.2-0.2-0.6-0.4-0.9-0.5c-0.1,0-0.2,0-0.4-0.1c0,0,0,0,0,0v0
		c-0.3,0-0.7,0-1,0.1c-0.3,0.1-0.8,0.3-1,0.6c-0.3,0.4-0.7,1.5-0.7,1.5s-0.3-1.1-0.7-1.5c-0.1-0.1-0.2-0.1-0.2-0.2l0-0.1l-0.1-0.1
		c-0.2-0.1-0.4-0.2-0.6-0.3c0,0-0.1,0-0.1,0l-0.3-0.1l-1.2,0.2l-0.1,0.1c-0.3,0.1-0.5,0.3-0.6,0.5c-0.2,0.3-0.3,0.7-0.2,1l0,0l0,0
		c0,0.3,0.1,0.7,0.2,1c0.2,0.5,1.1,1.5,1.7,2.1c1.2,1.2,2.3,2.1,2.3,2.1s1.1-0.8,2.3-2.1c0,0,0.1-0.1,0.1-0.2l0.3-0.3l0.4-0.5
		c0.3-0.3,0.6-0.7,0.7-0.9l0.1-0.1l0-0.2C19.3,82.6,19.4,82.2,19.4,81.9L19.4,81.9L19.4,81.9z"/>
	<path d="M55,37.2c0-0.3-0.1-0.5-0.2-0.8l0-0.2l-0.1,0c-0.2-0.2-0.6-0.4-0.9-0.5c-0.1,0-0.2,0-0.4-0.1c0,0,0,0,0,0v0
		c-0.3,0-0.7,0-1,0.1c-0.3,0.1-0.8,0.3-1,0.6c-0.3,0.4-0.7,1.5-0.7,1.5s-0.3-1.1-0.7-1.5c-0.1-0.1-0.2-0.1-0.2-0.2l0-0.1L49.6,36
		c-0.2-0.1-0.4-0.2-0.6-0.3c0,0-0.1,0-0.1,0l-0.3-0.1l-1.2,0.2l-0.1,0.1c-0.3,0.1-0.5,0.3-0.6,0.5c-0.2,0.3-0.3,0.7-0.2,1l0,0l0,0
		c0,0.3,0.1,0.7,0.2,1c0.2,0.5,1.1,1.5,1.7,2.1c1.2,1.2,2.3,2.1,2.3,2.1s1.1-0.8,2.3-2.1c0,0,0.1-0.1,0.1-0.2l0.3-0.3l0.4-0.5
		c0.3-0.3,0.6-0.7,0.7-0.9l0.1-0.1l0-0.2C54.9,37.9,55,37.6,55,37.2L55,37.2L55,37.2z"/>
	<path d="M46.5,5.9c0,0.3,0.1,0.7,0.2,1c0.2,0.5,1.1,1.5,1.7,2.1c1.2,1.2,2.3,2.1,2.3,2.1s1.1-0.8,2.3-2.1c0,0,0.1-0.1,0.1-0.2
		l0.3-0.3L53.9,8c0.3-0.3,0.6-0.7,0.7-0.9l0.1-0.1l0-0.2c0.1-0.3,0.2-0.7,0.2-1l0,0l0,0c0-0.3-0.1-0.5-0.2-0.8l0-0.2l-0.1,0
		c-0.2-0.2-0.6-0.4-0.9-0.5c-0.1,0-0.2,0-0.4-0.1c0,0,0,0,0,0v0c-0.3,0-0.7,0-1,0.1c-0.3,0.1-0.8,0.3-1,0.6
		c-0.3,0.4-0.7,1.5-0.7,1.5s-0.3-1.1-0.7-1.5c-0.1-0.1-0.2-0.1-0.2-0.2l0-0.1l-0.1-0.1c-0.2-0.1-0.4-0.2-0.6-0.3c0,0-0.1,0-0.1,0
		L48.6,4l-1.2,0.2l-0.1,0.1c-0.3,0.1-0.5,0.3-0.6,0.5C46.5,5.1,46.5,5.5,46.5,5.9L46.5,5.9L46.5,5.9z"/>
	<path d="M46.5,68.1c0,0.3,0.1,0.7,0.2,1c0.2,0.5,1.1,1.5,1.7,2.1c1.2,1.2,2.3,2.1,2.3,2.1s1.1-0.8,2.3-2.1c0,0,0.1-0.1,0.1-0.2
		l0.3-0.3l0.4-0.5c0.3-0.3,0.6-0.7,0.7-0.9l0.1-0.1l0-0.2c0.1-0.3,0.2-0.7,0.2-1l0,0l0,0c0-0.3-0.1-0.5-0.2-0.8l0-0.2l-0.1,0
		c-0.2-0.2-0.6-0.4-0.9-0.5c-0.1,0-0.2,0-0.4-0.1c0,0,0,0,0,0v0c-0.3,0-0.7,0-1,0.1c-0.3,0.1-0.8,0.3-1,0.6
		c-0.3,0.4-0.7,1.5-0.7,1.5s-0.3-1.1-0.7-1.5c-0.1-0.1-0.2-0.1-0.2-0.2l0-0.1l-0.1-0.1c-0.2-0.1-0.4-0.2-0.6-0.3c0,0-0.1,0-0.1,0
		l-0.3-0.1l-1.2,0.2l-0.1,0.1c-0.3,0.1-0.5,0.3-0.6,0.5C46.5,67.3,46.5,67.7,46.5,68.1L46.5,68.1L46.5,68.1z"/>
	<path d="M96.8,44.7c0-0.3-0.1-0.5-0.2-0.8l0-0.2l-0.1,0c-0.2-0.2-0.6-0.4-0.9-0.5c-0.1,0-0.2,0-0.4-0.1c0,0,0,0,0,0v0
		c-0.3,0-0.7,0-1,0.1c-0.3,0.1-0.8,0.3-1,0.6c-0.3,0.4-0.7,1.5-0.7,1.5s-0.3-1.1-0.7-1.5c-0.1-0.1-0.2-0.1-0.2-0.2l0-0.1l-0.1-0.1
		c-0.2-0.1-0.4-0.2-0.6-0.3c0,0-0.1,0-0.1,0L90.5,43l-1.2,0.2l-0.1,0.1c-0.3,0.1-0.5,0.3-0.6,0.5c-0.2,0.3-0.3,0.7-0.2,1l0,0l0,0
		c0,0.3,0.1,0.7,0.2,1c0.2,0.5,1.1,1.5,1.7,2.1c1.2,1.2,2.3,2.1,2.3,2.1s1.1-0.8,2.3-2.1c0,0,0.1-0.1,0.1-0.2l0.3-0.3l0.4-0.5
		c0.3-0.3,0.6-0.7,0.7-0.9l0.1-0.1l0-0.2C96.7,45.4,96.8,45,96.8,44.7L96.8,44.7L96.8,44.7z"/>
	<path d="M97.6,13.2L97.6,13.2L97.6,13.2c0-0.3-0.1-0.6-0.2-0.8l0-0.2l-0.1,0c-0.2-0.2-0.6-0.4-0.9-0.5c-0.1,0-0.2,0-0.4-0.1
		c0,0,0,0,0,0v0c-0.3,0-0.7,0-1,0.1c-0.3,0.1-0.8,0.3-1,0.6c-0.3,0.4-0.7,1.5-0.7,1.5s-0.3-1.1-0.7-1.5c-0.1-0.1-0.2-0.1-0.2-0.2
		l0-0.1l-0.1-0.1c-0.2-0.1-0.4-0.2-0.6-0.3c0,0-0.1,0-0.1,0l-0.3-0.1l-1.2,0.2L90,11.8c-0.3,0.1-0.5,0.3-0.6,0.5
		c-0.2,0.3-0.3,0.7-0.2,1l0,0l0,0c0,0.3,0.1,0.7,0.2,1c0.2,0.5,1.1,1.5,1.7,2.1c1.2,1.2,2.3,2.1,2.3,2.1s1.1-0.8,2.3-2.1
		c0,0,0.1-0.1,0.1-0.2l0.3-0.3l0.4-0.5c0.3-0.3,0.6-0.7,0.7-0.9l0.1-0.1l0-0.2C97.5,13.9,97.6,13.6,97.6,13.2z"/>
	<path d="M88.8,81.9c0-0.3-0.1-0.5-0.2-0.8l0-0.2l-0.1,0c-0.2-0.2-0.6-0.4-0.9-0.5c-0.1,0-0.2,0-0.4-0.1c0,0,0,0,0,0v0
		c-0.3,0-0.7,0-1,0.1c-0.3,0.1-0.8,0.3-1,0.6c-0.3,0.4-0.7,1.5-0.7,1.5s-0.3-1.1-0.7-1.5c-0.1-0.1-0.2-0.1-0.2-0.2l0-0.1l-0.1-0.1
		c-0.2-0.1-0.4-0.2-0.6-0.3c0,0-0.1,0-0.1,0l-0.3-0.1l-1.2,0.2l-0.1,0.1c-0.3,0.1-0.5,0.3-0.6,0.5c-0.2,0.3-0.3,0.7-0.2,1l0,0l0,0
		c0,0.3,0.1,0.7,0.2,1c0.2,0.5,1.1,1.5,1.7,2.1c1.2,1.2,2.3,2.1,2.3,2.1s1.1-0.8,2.3-2.1c0,0,0.1-0.1,0.1-0.2l0.3-0.3l0.4-0.5
		c0.3-0.3,0.6-0.7,0.7-0.9l0.1-0.1l0-0.2C88.7,82.6,88.8,82.2,88.8,81.9L88.8,81.9L88.8,81.9z"/>
	<path d="M4.9,10.2C4.9,10.2,4.9,10.2,4.9,10.2c0,0.2,0,0.3,0.1,0.5c0,0,0,0.1,0.1,0.1l0,0.1L5.3,11c0.2,0.1,0.4,0.3,0.6,0.3
		c0.1,0,0.1,0,0.2,0.1l0.1,0l0.2,0c0.6,0.1,1.3,0.1,1.7,0.1l0.4,0l0.3,0.7c0.1,0.3,0.1,0.6,0,0.8c-0.1,0.4-0.6,0.8-0.7,1.3
		c-0.1,0.3-0.1,0.7,0.1,0.9c0,0,0,0,0.1,0c0,0.1,0,0.2,0,0.2s0.1,0,0.1-0.1c0.3,0.2,0.6,0.3,0.9,0.3c0.2,0,0.4,0,0.6-0.1l0.1,0
		l0-0.1c0.1-0.1,0.2-0.2,0.3-0.3c0.1-0.2,0.2-0.4,0.3-0.5l0.2-0.2c0,0,0,0,0.1-0.1l0.6-0.2c0,0,0.1,0,0.2,0l0.5,0
		c0.1,0,0.3,0.1,0.4,0.1c0.5,0.2,1.1,0.7,1.1,0.7s-0.6,0.6-0.4,1.1c0.1,0.5,0.5,0.7,0.7,1.2l-0.4,1.1l0.1,0c0,0,0,0,0,0
		s0.7-0.1,1.2-0.4l0.2-0.1l0-0.1c0.2-0.3,0.2-0.7,0.5-0.9l0.4-0.1c0.2,0,0.5,0.1,0.5,0.1s-0.3,0.7-0.2,1.2c0.1,0.2,0.5,0.9,0.6,1.2
		c0,0.1,0,0.4,0,0.5l-0.2,0.5l0.8-0.3c0.3-0.1,0.6-0.2,0.7-0.3l0,0l0,0c0,0,0,0,0,0c0.3-0.2,0.6-1.1,0.6-1.3l0.1,0.1
		c0.3,0.3,1,1,1.4,1.3c0,0,0,0,0,0l0.9,0.7l0.2,0.2l-0.4,0.4l-1.4,0.4l-1.1,0c-0.7-0.1-1.3-0.5-2.1-0.4c-0.6,0.1-1.5,1.2-1.5,1.2
		l0,0l0,0c0,0,0.3-0.1,0.7-0.2l1-0.1c0,0,0.1,0,0.1,0c0.1,0,0.2,0,0.2,0.1l0.7,0.5l1,0.6l1,0.1l1-0.1l-0.7,0.5
		c-0.1,0-0.1,0.1-0.2,0.1l-0.5,0.2c-0.4,0.1-0.8,0.3-1.2,0.4c-0.2,0.1-0.3,0.1-0.5,0.2c-0.4,0.1-1.5,0.5-1.9,0.8
		c-0.2,0.2-0.6,0.5-0.9,0.8c-0.4,0.3-1,0.6-1.1,0.7l-0.1,0l-0.7,0l-0.3,0c0-0.2,0.1-1.3,0-1.7c0-0.1-0.1-0.2-0.2-0.2l0-0.1l-0.1,0
		c-0.2-0.2-0.4-0.3-0.6-0.3c0,0-0.1,0-0.1,0l-0.1,0l-0.1,0c0,0,0,0,0,0c-0.1-0.1-0.2-0.1-0.4-0.2c-0.3-0.1-1-0.2-1-0.2
		s0.1,0.1,0.2,0.2c0.1,0.2,0.1,0.2,0.2,0.3L9.8,25l0,0.2c-0.3,0.6,0.1,2,0.1,2S9.2,27.1,8.4,27l-0.4-0.1l-0.8,0c-0.1,0-0.3,0-0.4,0
		l-0.4,0L6.3,27c-0.1,0-0.2,0.1-0.3,0.1l-0.2,0.1l-0.3,0.4l0,0.2C5.4,27.9,5.2,28,5.2,28s0.2,0,0.3,0.1c0,0,0,0,0,0
		c0,0.1,0,0.1,0,0.2l0,0.1l0,0c0,0,0,0.1,0,0.1c0.1,0.1,0.2,0.3,0.3,0.4C6,29,6.1,29,6.2,29.1l0.1,0.1l0.8,0.2c0,0,0,0,0,0
		c0.7,0.1,1.4,0.1,1.4,0.1c0.1,0.1,0.5,0.5,0.3,0.6c0,0,0,0,0,0c-0.4,0.3-1.5,0.7-1.9,1.2c-0.2,0.2-0.3,0.5-0.3,0.7
		c0,0.1,0,0.2,0,0.3c0,0.1,0,0.1,0.1,0.2c-0.1,0.2-0.2,0.3-0.2,0.3s0.2-0.1,0.3-0.1c0,0,0,0,0,0C6.9,32.9,7,33,7.2,33.1l0,0l0,0
		c0.1,0,0.1,0,0.2,0.1c0.1,0,0.2,0,0.4,0l0.1,0l0.2-0.1c0.2-0.1,0.4-0.2,0.6-0.2c0.7-0.3,1.5-1,1.9-1.3l0.2-0.2l1,0l0,0
		c0,0.2,0.5,1.1,0.6,1.2c0,0,0.1,0,0.1,0.1l0.1,0.2l0.6,0.2l0.2-0.1c0,0,0.1,0,0.1,0c0,0,0.1,0,0.1,0c0.1,0,0.2,0,0.4,0.2
		c0.1,0.1,0.2,0.2,0.2,0.2s0-0.3,0-0.6c0,0,0.1,0,0.1-0.1c0.1-0.1,0.2-0.2,0.2-0.4l0.2-0.3l-0.2-0.9c0-0.1,0-0.2,0-0.3l0-0.2
		c0.1,0,2.2,0.2,3.2,0.1c0,0,0.1,0,0.1,0l0.1,0l0.3-0.1c0.1,0,0.3-0.1,0.4-0.1l1.4-0.4l2.2-0.1l1.9,0l0,0c0,0,0,0,0,0v0l0,0
		c0,0-0.1-0.4-0.3-0.7l-0.1-0.2L23.6,29c-0.1-0.2-0.3-0.3-0.4-0.4c0,0,0,0,0,0l-0.1-0.1c0,0,0,0,0,0l0.2-0.3h0.9c0,0,0.1,0,0.1,0
		l1.1,0.7c0.1,0,0.1,0.1,0.2,0.1c0,0,0,0,0.1,0l0.1,0.1l0.1,0c0.4,0.1,1.2,0.1,1.7,0.1l0.5,0l-1-1.3l0.1-0.6c0,0,0,0,0-0.1
		c0.4-0.1,0.9-0.2,1.2-0.3l0.1,0l0,0c0,0,0,0,0,0h0l0,0c0,0-0.1,0-0.2,0l-0.3-0.1c0.1,0,0.2,0,0.3-0.1c0.2,0,0.4-0.1,0.5-0.1
		c0.1,0,0.2,0,0.3,0l1,0.4l0.1,0c0.1,0,0.2,0.1,0.3,0.1c0.3,0.1,1,0.2,1.5,0.2l0.8,0.1l-0.9-1.1c-0.1-0.1-0.1-0.2-0.1-0.3l0-0.5
		l0.3-0.5c0.1-0.1,0.3-0.2,0.4-0.3l1.3-0.7c0.2,0,0.4,0.1,0.6,0.1l0.7,0.2l1.2-0.4l1-1h-0.8L39,22c0.1,0,0.2,0,0.3-0.1l1.3-0.2
		c0,0,0,0,0.1,0c0,0,0.1,0,0.1,0c0.1,0,0.2,0,0.4,0c0,0,0.1,0,0.1,0c0.1,0,0.2,0,0.3,0c0.1,0,0.1,0,0.2,0c0.1,0,0.1,0,0.2,0
		c0.1,0,0.2,0,0.2,0c0.1,0,0.1,0,0.2,0c0.2,0,0.3,0,0.5,0c0,0,0,0,0.1,0c0.1,0,0.2,0,0.4,0c0,0,0,0,0.1,0c0.1,0,0.3,0,0.4,0
		c0,0,0,0,0,0c0.1,0,0.3,0,0.4,0c0,0,0.1,0,0.1,0c0.1,0,0.2,0,0.3,0c0,0,0.1,0,0.1,0c0.1,0,0.2,0,0.3,0c0,0,0.1,0,0.1,0
		c0.1,0,0.2,0,0.2,0c0,0,0.1,0,0.1,0c0.1,0,0.2,0,0.2,0c0,0,0.1,0,0.1,0c0.1,0,0.2,0,0.3-0.1c0.6-0.1,1.2-0.4,1.8-0.7l0.6-0.2
		l2.6-1.3c0.3-0.1,0.6-0.2,0.9-0.4l0.7-0.2c1.6-0.5,2.9-0.8,2.9-0.8s1.1-0.2,1.7-0.2h0.7c0.1,0,0.1,0,0.2,0l0.2,0
		c-0.1,0.1-0.3,0.2-0.6,0.3c-0.1,0.1-0.3,0.2-0.4,0.3c-0.1,0.1-0.2,0.1-0.3,0.2c-0.1,0.1-0.1,0.1-0.2,0.2l-0.1,0.1l-0.1,0.2
		c-0.2,0.2-0.3,0.4-0.5,0.6l-0.8,0.5c-0.1,0.1-0.3,0.1-0.4,0.2l-1.2,0.2c-0.5,0-0.9-0.1-0.9-0.1s0.4,0.4,0.8,0.7
		c0.2,0.2,0.4,0.4,0.6,0.6l0.1,0.1l0.1,0c0.1,0,0.2,0.1,0.3,0.1c0.1,0,0.2,0,0.3,0c0.1,0,0.3,0.1,0.4,0.1c0.4,0,1.2,0.2,1.6,0.3
		l0.2,0.1c0,0.1,0,0.2-0.1,0.4l-0.7,2.3c0,0-0.1,0.1-0.1,0.1l-1,1.1c-0.1,0.1-0.2,0.2-0.4,0.2l-0.3,0.1c-0.1,0-0.1,0-0.2,0l-1.7-0.4
		h-0.4c-0.6-0.1-1.3,0-1.5,0h0c0,0,0-1.5-0.2-2.2c0-0.2-0.1-0.4-0.3-0.5c0,0-0.1-0.1-0.1-0.1c-0.1-0.1-0.2-0.1-0.4-0.1l-0.2-0.1
		l-0.6,0c-0.3-0.1-0.5-0.2-0.5-0.2s0.1,0.2,0.1,0.3l-0.2,0.1c-0.1,0-0.2,0.1-0.2,0.1c-0.1,0-0.1,0.1-0.2,0.1l-0.1,0.1l0,0.1
		c-0.1,0.1-0.2,0.3-0.2,0.4c0,0.1,0,0.2,0,0.3l0,0.1c0,0,0,0,0,0c0.2,0.8,0.8,2.2,0.8,2.2s-0.1,0.4-0.3,0.3c-0.6-0.1-2-0.8-2.8-0.6
		c-0.4,0.1-0.7,0.3-0.9,0.6c-0.2,0.3-0.2,0.5-0.2,0.7c-0.2,0.1-0.3,0.3-0.3,0.3s0.2,0,0.3,0c0,0.1,0,0.1,0,0.2c0,0.1,0,0.1,0,0.1v0
		l0,0c0.1,0.2,0.1,0.3,0.3,0.4l0.2,0.3l0.5,0c0.6,0.1,1.5,0.1,2,0.1l0.5,0l0.3,0.2c0,0,0,0.1,0,0.1c-0.4,0.4-1.4,1-1.9,1.6L46,31
		l0,0.1c-0.1,0.1-0.1,0.2-0.1,0.3c0,0.1,0,0.2,0,0.3l0,0.1l0.2,0.2c0,0,0,0,0,0c0,0,0.1,0.1,0.1,0.1c0.1,0.1,0.1,0.1,0.2,0.2
		c0,0,0,0,0,0c0,0.3,0,0.6,0,0.6s0.1-0.1,0.2-0.2c0.1-0.1,0.1-0.1,0.2-0.1c0,0,0,0,0,0l0.1,0.1l0.2,0c0,0,0,0,0,0c0.2,0,0.3,0,0.5,0
		l0.4,0l2.2-1.9c0,0,0.1,0,0.1-0.1l0.9,0.1c0,0,0,0,0,0l0,0.6c-0.1,0.4-0.1,1-0.1,1.4l0,0.2l0.1,0.1c0,0.1,0.1,0.2,0.2,0.3
		c0,0,0.1,0.1,0.1,0.1l0.1,0.1l0.2,0c0.2,0.1,0.4,0.1,0.6,0.1c0,0,0,0,0,0c0,0.1,0.1,0.3,0.1,0.3s0.1-0.1,0.2-0.3
		c0.1,0,0.2-0.1,0.3-0.1c0.1-0.1,0.2-0.2,0.3-0.4l0.2-0.1v-0.4c0-0.3,0-0.6,0-0.9v-0.6l0.7,0l3-0.1l0.1,0.1c0,0.1,0.1,0.2,0,0.4
		L57,32.1c0,0,0,0.1,0,0.1l0,0l0,0c0,0,0.8-0.3,1.6-0.7c0.3-0.2,0.6-0.3,0.8-0.5l0.8-0.5l0.6-1.1l0.4,1.1c0,0.1,0,0.2,0,0.2l0,0v0
		c0,0,0,0,0,0l0,0.1l0.4-0.4c0.1-0.1,0.2-0.2,0.4-0.3c0,0,0.9-0.8,1.8-1.9l0,0l0,0c0.4-0.5,0.8-1,1.1-1.6c0.1-0.2,0.2-0.4,0.3-0.6
		l0.2-0.3l0.3-0.6c0.3-0.7,0.6-1.3,0.8-1.9l0.8-1.9l-0.7,0.4l-0.6-0.2c0,0-0.1,0-0.1-0.1c0,0,0,0,0,0L65.4,20c0,0,0,0,0-0.1l0.1-0.7
		c0.1,0,0.4,0,0.8-0.1l0.8,0l1.2,0.1l0.7,0.1l0.4,0.2c0,0,0,0,0,0c0.2,0.2,0.4,0.4,0.6,0.6c0.1,0.1,0.2,0.2,0.3,0.3
		c0.1,0,0.1,0.1,0.2,0.1c0.1,0.1,0.2,0.1,0.3,0.2c0.1,0,0.1,0.1,0.2,0.1l0.1,0.1l0.3,0.1c0.9,0.5,2,0.9,2.8,1.2
		c0.2,0.1,0.4,0.1,0.6,0.1l0.6,0.2l-0.1-0.1c0.3,0.1,0.6,0.1,0.8,0.3c0.5,0.3,0.8,1.1,1,1.6c0,0.1,0.1,0.3,0,0.5
		c-0.2,0.5-1.1,1.3-1.1,1.3l0,0l0,0c0,0,0.6,0.1,1.3,0.1c0.2,0,0.4,0,0.6,0c0.3,0,0.7-0.3,1-0.5c0.3-0.2,0.6-0.4,0.8-0.6
		c0.2-0.2,0.3-0.3,0.3-0.3s2.1-0.2,3.7-0.3c0.2,0,0.3,0,0.5,0c0.2,0,0.4,0,0.6,0c0.4,0,0.6,0,0.8,0.1c0.2,0.1,0.3,0.2,0.5,0.3
		c0,0,0,0,0,0c0.4,0.5,0.3,1.5,0,2c0,0,0,0.1,0,0.1c0-0.1-0.1-0.2-0.1-0.2l-0.3,0.5l-0.1,0l-1.3,0.3l-2.1-0.5l-0.2,0
		c-0.2,0-0.4,0-0.6,0.1c-0.1,0-0.2,0.1-0.2,0.2c-0.1,0.1-0.1,0.2-0.2,0.3c-0.2,0.1-0.3,0.1-0.3,0.1s0.1,0.1,0.2,0.1l0,0l0,0.1
		c0,0.2,0,0.5,0.1,0.7l0,0.2c0,0,0,0,0.1-0.1c0,0,0,0,0,0l0,0c0,0,0,0,0,0c0.5,0.5,2.4,0.5,2.4,0.5s0,0,0,0c0,0,0,0,0,0c0,0,0,0,0,0
		c0.1,0.1,0.1,0.3-0.1,0.4c-0.4,0.4-1.5,0.8-1.6,1.2c-0.1,0.2-0.2,0.4-0.3,0.6c0,0-0.1,0-0.1,0l0,0.1c0,0.1,0,0.1,0,0.2
		c0,0,0.1,0.1,0.1,0.2c-0.1,0.2-0.1,0.3-0.1,0.3s0.1-0.1,0.2-0.1c0.1,0.1,0.2,0.2,0.3,0.3l0,0l0,0c0,0,0,0,0.1,0
		c0.3,0.1,0.7,0.1,1,0l0.1,0l0.1,0c0,0,0.1,0,0.1,0c0.6-0.3,1.8-1.3,2.2-1.7l0.1-0.1l0.9,0.3c0,0,0,0,0,0l0.1,1.1
		c0,0.3-0.1,0.6,0,0.9c0,0,0,0,0,0.1l0,0l0,0c0,0,0,0.1,0,0.1c0.1,0.2,0.3,0.2,0.6,0.3c0,0,0,0,0,0l0.1,0.1h0.1
		c0.1,0.1,0.2,0.2,0.2,0.2s0-0.1,0-0.2h0.3l0.4-0.3c0.1,0,0.2-0.1,0.2-0.2l0.2-0.2L89,33.3c0-0.1,0-0.3-0.1-0.4l-0.1-0.7
		c0-0.1,0-0.1,0-0.2l0.3-0.4l0.8-0.3l0.9,0.2l0.3,0.1c0.3,0.1,0.7,0.2,0.9,0.3c0.1,0,0.2,0,0.2,0l0.3,0.1l0.1-0.1
		c0.1,0,0.2,0,0.2-0.1c0,0,0,0,0,0c0.1,0.1,0.2,0.2,0.2,0.2s0-0.2,0-0.4c0.1-0.1,0.2-0.3,0.3-0.4l0.2-0.2l-0.1-0.2
		c-0.1-0.2-0.1-0.3-0.2-0.4c-0.1-0.1-0.2-0.1-0.3-0.2c-0.1,0-0.2-0.1-0.3-0.1l-1.5-0.8L91,28.2c0-0.2,0-0.3,0.1-0.4
		c0-0.1,0.1-0.2,0.2-0.3l0.7-0.8l0.6-0.8l0-0.3c0.2-0.7,0.3-1.7,0.3-1.7l0,0l0,0c0,0-0.6,0.3-1,0.3c-0.3,0-0.8-0.1-0.8-0.1
		c0,0,0.9-0.7,1.3-1.5c0.3-0.4,0.3-1.7,0.3-1.7l0,0v0c0,0-1,0.4-1.9,0.6l-1.2,0.2l-1.6-0.3l-2.4-1.4l-1.2-0.2
		c-1.2-0.3-2.7-0.6-3.5-0.9l-0.7-0.3c-0.2-0.1-0.4-0.3-0.6-0.5l-0.5-0.6c-0.5-0.6-0.8-1.2-0.8-1.2l0,0c0,0,1.7-0.8,2.2-1.4
		c0.4-0.5,0.7-1.2,0.7-1.8c0-0.5-0.2-1.1-0.5-1.5c-0.4-0.6-1.1-1.3-1.7-1.6c-1.4-0.7-2.7-0.8-4.3-1c-2.1-0.2-5.3,0.2-7.3,0.3
		c-1.8,0.1-4.2,0.6-5.9,0.3C61,9.6,60.3,9.4,59.9,9c-0.3-0.4-0.3-1.1-0.1-1.5C60,7,60.3,6.6,60.6,6.2c0.6-0.6,1.6-1.1,2.4-1.5
		c0.9-0.4,2.2-0.8,3.3-0.9c1.2-0.1,2.7-0.1,3.9,0c1.1,0.1,2.6,0.3,3.6,0.6c1.8,0.5,3.8,1.8,5.5,2.5c1.7,0.7,3.8,1.9,5.6,2.2
		c1.4,0.3,3.3,0.2,4.7,0l0,0l0.1,0c0,0,0.1,0,0.1,0C89.9,9,90,9,90.1,9L91,8.7l0.8-0.3c0.3-0.1,0.6-0.2,0.8-0.2l0.3,0
		c0,0,0.1,0,0.1,0l1.2,0.6l0-0.3c0-0.2,0-0.5,0-0.7l0-0.2l-0.1,0c0-0.1-0.1-0.1-0.1-0.1c-0.2-0.1-0.5-0.2-0.7-0.3L93,7
		C93,7,93.1,7,93.2,6.9l0.4-0.2L94,6.3c0,0,0.1-0.1,0.1-0.1c0.1-0.1,0.1-0.2,0.2-0.2l0.2-0.2l0.1-0.2c0.3-0.5,0.6-1,0.7-1.5l0-0.1
		V3.9c0.2-0.8-0.2-2-0.2-2s0,0,0,0l0,0l-1,1.2c-0.1,0.1-0.1,0.1-0.2,0.1l-0.3,0.1c-0.3,0.1-0.7,0.1-1,0.3l-0.2,0.1L91,5l-0.1-0.2
		c0-0.1-0.1-0.3-0.1-0.4c0-0.1-0.2-0.4-0.2-0.4s0,0.1-0.1,0.2l0,0l-0.7,1.1c-0.2,0.3-0.5,0.6-0.8,0.7c-1.3,0.6-2.9,0.5-4.4,0.3
		c-0.1,0-0.3,0-0.4-0.1l-1.9-0.5c-1.2-0.4-2.4-0.8-3.2-1.1c-1.9-0.5-3.9-1.6-5.8-1.9c-2.8-0.4-6-0.4-8.8,0.1c-1,0.2-3,0.8-3.8,1.4
		c-1.3,0.8-2.2,1.5-2.7,2.7c-0.3,0.7-0.4,1.7-0.1,2.4c0.3,0.7,0.8,1.4,1.5,1.7c1.1,0.5,2.8,0.8,4.1,0.7c1.4,0,3.1-0.3,4.4-0.4
		c1.1-0.1,2.3-0.3,3.4-0.4c1.4-0.1,3.4-0.2,4.7,0.1c0.8,0.2,1.9,0.6,2.4,1.2c0.3,0.2,0.5,0.7,0.5,1c0,0.4-0.2,0.9-0.6,1.1
		c-0.3,0.1-0.5,0.2-0.7,0.3l-1.8-0.1l-3.9-0.8l-2.2-0.3c-0.8-0.1-1.5-0.2-2-0.2l-0.1,0l-0.1,0c-1.1-0.1-1.9-0.1-3.5-0.1
		c-1.2,0-2.2,0-3.2,0.1l-1.3,0l-2.2,0.3c-0.4,0-0.9,0.1-1.3,0.1c-0.8,0.1-1.7,0.2-2.8,0.3l-0.3,0l-3.7,0.4l-2.4,0.1l0.1-0.2
		c0,0-0.1,0.1-0.2,0.2l0,0c0-0.1,0.1-0.1,0.1-0.1s-0.4,0.1-0.7,0.1l-0.6-0.1c-0.4-0.2-0.7-0.6-1-0.9c-0.3-0.2-0.6-0.3-1-0.3l-0.2,0
		c-0.2,0-0.4-0.1-0.6-0.2c-0.2-0.1-0.4-0.5-0.5-0.7l0.1-0.1c0,0,0.1,0,0.1,0l0.6,0.3l0.8,0.1l0.9-0.2l0.8-0.6c0,0,0,0,0,0
		c0.1-0.1,0.2-0.2,0.2-0.2s-0.7,0.1-1-0.1c-0.3-0.2-0.6-0.5-0.9-0.9l-0.2-0.6l-0.6-0.7l0,0c-0.1-0.1-0.1-0.1-0.2-0.2
		c0,0-0.1-0.1-0.2-0.1l-0.2-0.2l-0.3,0c-0.2-0.1-0.4-0.2-0.4-0.2s1.2-0.5,1.5-0.9c0.4-0.6,0.4-2.2,0.4-2.2s0,0-0.1,0l0.1-0.1l-1,0
		c-0.1,0-0.2,0-0.2,0l-0.4,0l-0.1,0c-0.1,0-0.2,0-0.3,0.1c-0.2,0.1-0.5,0.3-0.8,0.5l0.3-0.5c0,0,0,0-0.1,0l2.3-3.5l0,0l0,0l0,0
		c0,0-0.6-0.2-0.9-0.1l0,0l0,0c-0.2,0.1-0.5,0.5-0.5,0.5s0-0.1-0.1-0.2L42,2l-0.1,0c-0.1-0.1-0.1-0.1-0.2-0.1c-0.1,0-0.1,0-0.2,0
		l-0.2-0.1l-0.1,0.1c-0.1,0-0.2,0.1-0.2,0.1C41,2,41,2,41,2.1l0,0l0,0c0,0.1,0,0.2,0,0.3c0,0.2,0.2,0.4,0.3,0.6l0,0
		c0,0-0.7,0.4-1.1,0.4c-0.2,0-0.5,0-0.7,0c-0.1,0-0.4-0.1-0.5-0.2c-0.1-0.1-0.2-0.1-0.3-0.2l-0.4-0.5c-0.1-0.2-0.2-0.4-0.2-0.4
		s0.5,0,0.7-0.1c0.1,0,0.1-0.1,0.2-0.2l0.2-0.1V1.4L39,1.3c-0.1-0.1-0.2-0.2-0.3-0.2C38.6,1,38.1,1,38.1,1s0.1-0.3,0.1-0.5l0-0.1
		l-0.2-0.1C38,0.1,37.9,0.1,37.7,0l0,0l0,0c0,0,0,0-0.1,0c-0.2,0-0.5,0.1-0.7,0.3l0,0l0,0c0,0,0,0-0.1,0c-0.1,0.1-0.1,0.6-0.1,0.6
		s-0.5-0.1-0.7-0.1c-0.2,0-0.4,0.2-0.5,0.3c-0.1,0.2,0,0.4,0.1,0.6c0.1,0.1,0.4,0.2,0.5,0.2L36,2.5c0,0-0.1,0-0.1,0.1l-0.4,0.2
		l-0.8,0.1L34,2.8l-0.8-0.6L33.5,2c0,0,0.1-0.1,0.1-0.1c0.1-0.2,0.3-0.6,0.2-0.8c-0.1-0.2-0.4-0.3-0.6-0.3c-0.2,0-0.4,0.2-0.5,0.3
		L32.5,1c-0.1-0.1-0.2-0.3-0.3-0.4l-0.1-0.1l0,0c0,0,0,0,0,0c-0.2-0.1-0.9-0.1-0.9-0.1l1,4.4l0,0.3l0,0l-0.1,0.1
		c0,0-0.1,0.1-0.1,0.1l-1,0l-0.7,0.2c-0.3,0-0.5,0.1-0.7,0.2c-0.2,0.1-0.3,0.1-0.4,0.3L29.2,6l0.2,0.6l0.2,0.1c0,0,0,0,0,0
		c0,0,0,0,0,0l0,1.1c0,0,0,0,0,0l0,0v0c0,0,0,0,0,0l0,0.7l0.1,0.1c0.1,0.1,0.2,0.2,0.3,0.4c0,0,0.1,0.1,0.2,0.1c0,0.2,0,0.7,0.1,0.9
		c0,0.1,0.1,0.3,0.2,0.5c-0.2,0-0.3,0-0.4,0.1l-0.3,0L28.7,11c-0.2,0.1-0.3,0.1-0.5,0.2l-1,0.2c-0.4,0.1-0.8,0.1-1.2,0l-0.3-0.1
		c-0.1,0-0.1,0-0.2-0.1c0,0,0,0,0,0l-0.7-0.5c0-0.1-0.1-0.1-0.1-0.2l-0.3-0.9c0-0.1,0-0.1,0-0.2V8.4l-0.1-0.3
		c-0.1-0.3-0.3-0.9-0.3-0.9s0,0,0,0l0-0.1l-0.3,0.5c-0.2,0.2-0.4,0.6-0.4,0.7c-0.2,0.8-0.2,1.9,0.1,2.6c0.3,0.6,1.1,1.4,1.8,1.7
		c0.8,0.3,1.8,0.3,2.6,0.1c0.6-0.1,1.8-0.7,2.4-0.8c0.7-0.1,1.6,0,2.3,0.2c0.5,0.1,1.1,0.7,1.6,1.1l-1.1-0.1l-1.2,0
		c-0.1-0.2-0.3-0.4-0.4-0.5c-0.1-0.2-0.3-0.6-0.3-0.6s-0.2,0.5-0.3,0.7c0,0.1-0.1,0.4-0.1,0.7l0,0c-0.2,0.1-0.4,0.4-0.5,0.6
		c0,0,0,0.1,0,0.1l0,0l0,0c0,0,0,0,0,0c0,0.1,0,0.3,0,0.4c0,0.1,0,0.1,0,0.2c0,0,0,0,0,0.1l-0.3,0.5l1.1,0.1l0.3-0.1
		c0.4-0.1,0.9-0.3,1.3-0.2c0.2,0.1,0.5,0.2,0.6,0.4l-0.4,0.6c0,0,0,0,0,0c0,0,0,0-0.1,0.1L32,16.8c-0.4,0.2-0.8,0.4-1.2,0.4
		c-0.4,0.1-1,0.2-1.6,0.1L28.4,17l-0.9-1l0-0.2c0-0.2,0-0.4-0.1-0.6l0-0.1l-0.2-0.3l-0.4-0.1c-0.4-0.2-0.9-0.4-1.3-0.5
		c-0.5-0.1-1.7,0-1.7,0l0,0h0c0,0,0.5,0.3,0.8,0.6l0.3,0.5l0.1,0.5c-0.6-0.4-1.3-0.7-1.9-1.1L22,14l-0.5-0.2c-0.7-0.4-1.5-0.7-2.3-1
		c-0.1,0-0.3-0.1-0.5-0.2l-0.5-0.2l-1.9-0.6c-0.8-0.3-1.5-0.5-1.5-0.5s0-0.2-0.1-0.4c0,0,0.1,0.1,0.1,0.1l-0.2-1c0-0.2,0-0.3,0-0.4
		c0.2-0.6,0.9-1,1.2-1.6c0,0,0-0.1,0-0.1C15.9,7.9,16,8,16,8l0-0.3c0-0.2,0-0.3-0.1-0.5l0-0.2l-0.2-0.1c-0.1-0.2-0.3-0.3-0.5-0.4
		c-0.2-0.3-0.5-0.6-0.5-0.6s0,0.2,0,0.3c0,0.1,0,0.2-0.1,0.2c-0.2,0-0.5,0.1-0.8,0.2l-0.2,0l-0.1,0.1c-0.1,0-0.1,0.1-0.1,0.1
		c-0.1,0.1-0.2,0.3-0.2,0.5l0,0c0,0,0,0,0,0c0,0.5,0.2,1-0.2,1.2c-0.1,0-0.1,0-0.2,0.1c-0.1,0-0.1,0-0.2,0c-0.1,0-0.3,0-0.5-0.1
		c-0.3-0.1-0.5-0.2-0.7-0.3c-0.1-0.1-0.2-0.3-0.3-0.4c-0.1-0.1-0.1-0.4-0.2-0.6c0-0.2-0.1-0.5-0.1-0.7c0-0.1,0-0.1,0-0.1l0,0
		c0-0.1-0.1-0.1-0.1-0.2c-0.1-0.1-0.2-0.2-0.3-0.3l0,0l-0.1,0c-0.1-0.1-0.3-0.1-0.4-0.1c-0.1,0-0.2,0-0.3,0L9.5,5.8L9.3,5.9
		C9.1,5.8,8.7,5.7,8.7,5.7S8.8,5.9,8.9,6c0,0,0,0.1,0,0.1C8.8,6.1,8.8,6.2,8.7,6.3l0,0l0,0C8.6,6.3,8.5,6.4,8.5,6.4
		C8.4,6.6,8.3,6.8,8.4,6.9L8.2,7.2c0,0,0-0.1,0.1-0.1c0,0.2,0.1,0.4,0.1,0.5C8.6,8,9.4,8.8,9.4,9.2c0.1,0.4,0,0.4-0.4,0.5
		C8.4,9.6,7.4,9.2,7,9.1c-0.4-0.1-1.3,0-1.3,0L5.5,9.3c-0.1,0-0.1,0.1-0.2,0.1C5.2,9.6,5.1,9.8,5,9.9c-0.2,0.1-0.4,0.2-0.4,0.2
		S4.8,10.2,4.9,10.2z M31.2,10.4c0-0.1,0.1-0.3,0.1-0.3c0.1-0.2,0.3-0.5,0.4-0.7l0.6,0l1.8-0.2l0.7,0.2c0.1,0.1,0.2,0.2,0.3,0.3
		c0.1,0.1,0.1,0.3,0.1,0.4s0,0.3-0.1,0.5c-0.1,0.3-0.3,0.7-0.3,0.8c-0.1-0.1-0.3-0.1-0.4-0.2L33.9,11l-1.5-0.6l-1.1,0L31.2,10.4
		C31.2,10.4,31.2,10.4,31.2,10.4z M40.8,6c-0.1,0.1-0.1,0.1-0.1,0.1s0,0,0-0.1C40.7,6,40.8,6,40.8,6L40.8,6L40.8,6z"/>
	<polygon points="45.3,11.8 45.3,11.8 45.3,11.8 	"/>
	<path d="M93.5,62.2c0-0.1-0.1-0.2-0.2-0.3c0,0,0,0,0,0c0,0,0,0,0,0c-0.1-0.1-0.2-0.1-0.3-0.2c-0.1,0-0.2-0.1-0.3-0.1l-1.5-0.8
		L91,59.6c0-0.2,0-0.3,0.1-0.4c0-0.1,0.1-0.2,0.2-0.3L92,58l0.6-0.8l0-0.3c0.2-0.7,0.3-1.7,0.3-1.7l0,0l0,0c0,0-0.6,0.3-1,0.3
		c-0.3,0-0.8-0.1-0.8-0.1c0,0,0.9-0.7,1.3-1.5c0.3-0.4,0.3-1.7,0.3-1.7l0,0v0c0,0-1,0.4-1.9,0.6l-1.2,0.2l-1.6-0.3l-2.4-1.4
		l-1.2-0.2c-1.2-0.3-2.7-0.6-3.5-0.9L80.3,50c-0.2-0.1-0.4-0.3-0.6-0.5l-0.5-0.6c-0.5-0.6-0.8-1.2-0.8-1.2l0,0c0,0,1.7-0.8,2.2-1.4
		c0.4-0.5,0.7-1.2,0.7-1.8c0-0.5-0.2-1.1-0.5-1.5c-0.4-0.6-1.1-1.3-1.7-1.6c-1.4-0.7-2.7-0.8-4.3-1c-2.1-0.2-5.3,0.2-7.3,0.3
		c-1.8,0.1-4.2,0.6-5.9,0.3c-0.6-0.1-1.3-0.3-1.6-0.7c-0.3-0.4-0.3-1.1-0.1-1.5c0.2-0.4,0.5-0.9,0.8-1.2c0.6-0.6,1.6-1.1,2.4-1.5
		c0.9-0.4,2.2-0.8,3.3-0.9c1.2-0.1,2.7-0.1,3.9,0c1.1,0.1,2.6,0.3,3.6,0.6c1.8,0.5,3.8,1.8,5.5,2.5c1.7,0.7,3.8,1.9,5.6,2.2
		c1.4,0.3,3.3,0.2,4.7,0l0,0l0.1,0c0,0,0.1,0,0.1,0c0.1,0,0.1,0,0.2-0.1l0.9-0.2l0.8-0.3c0.3-0.1,0.6-0.2,0.8-0.2l0.3,0
		c0,0,0.1,0,0.1,0l1.2,0.6l0-0.3c0-0.2,0-0.5,0-0.7l0-0.2l-0.1,0c0-0.1-0.1-0.1-0.1-0.1c-0.2-0.1-0.5-0.2-0.7-0.3L93,38.4
		c0.1,0,0.1-0.1,0.2-0.2l0.4-0.2l0.4-0.4c0,0,0.1-0.1,0.1-0.1c0.1-0.1,0.1-0.2,0.2-0.2l0.2-0.2l0.1-0.2c0.3-0.5,0.6-1,0.7-1.5l0-0.1
		v-0.1c0.2-0.8-0.2-2-0.2-2s0,0,0,0l0,0l-1,1.2c-0.1,0.1-0.1,0.1-0.2,0.1l-0.3,0.1c-0.3,0.1-0.7,0.1-1,0.3l-0.2,0.1L91,36.3
		l-0.1-0.2c0-0.1-0.1-0.3-0.1-0.4c0-0.1-0.2-0.4-0.2-0.4s0,0.1-0.1,0.2l0,0l-0.7,1.1c-0.2,0.3-0.5,0.6-0.8,0.7
		c-1.3,0.6-2.9,0.5-4.4,0.3c-0.1,0-0.3,0-0.4-0.1l-1.9-0.5c-1.2-0.4-2.4-0.8-3.2-1.1c-1.9-0.5-3.9-1.6-5.8-1.9
		c-2.8-0.4-6-0.4-8.8,0.1c-1,0.2-3,0.8-3.8,1.4c-1.3,0.8-2.2,1.5-2.7,2.7c-0.3,0.7-0.4,1.7-0.1,2.4c0.3,0.7,0.8,1.4,1.5,1.7
		c1.1,0.5,2.8,0.8,4.1,0.7c1.4,0,3.1-0.3,4.4-0.4c1.1-0.1,2.3-0.3,3.4-0.4c1.4-0.1,3.4-0.2,4.7,0.1c0.8,0.2,1.9,0.6,2.4,1.2
		c0.3,0.2,0.5,0.7,0.5,1c0,0.4-0.2,0.9-0.6,1.1c-0.3,0.1-0.5,0.2-0.7,0.3l-1.8-0.1l-3.9-0.8l-2.2-0.3c-0.8-0.1-1.5-0.2-2-0.2l-0.1,0
		l-0.1,0c-1.1-0.1-1.9-0.1-3.5-0.1c-1.2,0-2.2,0-3.2,0.1l-1.3,0l-2.2,0.3c-0.4,0-0.9,0.1-1.3,0.1c-0.8,0.1-1.7,0.2-2.8,0.3l-0.3,0
		l-3.7,0.4l-2.4,0.1l0.1-0.2c0,0-0.1,0.1-0.2,0.2l0,0c0-0.1,0.1-0.1,0.1-0.1s-0.4,0.1-0.7,0.1l-0.6-0.1c-0.4-0.2-0.7-0.6-1-0.9
		c-0.3-0.2-0.6-0.3-1-0.3l-0.2,0c-0.2,0-0.4-0.1-0.6-0.2c-0.2-0.1-0.4-0.5-0.5-0.7l0.1-0.1c0,0,0.1,0,0.1,0l0.6,0.3l0.8,0.1l0.9-0.2
		l0.8-0.6c0,0,0,0,0,0c0.1-0.1,0.2-0.2,0.2-0.2s-0.7,0.1-1-0.1c-0.3-0.2-0.6-0.5-0.9-0.9l-0.2-0.6l-0.6-0.7l0,0
		c-0.1-0.1-0.1-0.1-0.2-0.2c0,0-0.1-0.1-0.2-0.1l-0.2-0.2l-0.3,0c-0.2-0.1-0.4-0.2-0.4-0.2s1.2-0.5,1.5-0.9c0.4-0.6,0.4-2.2,0.4-2.2
		s0,0-0.1,0l0.1-0.1l-1,0c-0.1,0-0.2,0-0.2,0l-0.4,0l-0.1,0c-0.1,0-0.2,0-0.3,0.1c-0.2,0.1-0.5,0.3-0.8,0.5l0.3-0.5c0,0,0,0-0.1,0
		l2.3-3.5l0,0l0,0l0,0c0,0-0.6-0.2-0.9-0.1l0,0l0,0c-0.2,0.1-0.5,0.5-0.5,0.5s0-0.1-0.1-0.2l0-0.1l-0.1,0c-0.1-0.1-0.1-0.1-0.2-0.1
		c-0.1,0-0.1,0-0.2,0l-0.2-0.1l-0.1,0.1c-0.1,0-0.2,0.1-0.2,0.1C41,33.3,41,33.4,41,33.5l0,0l0,0c0,0.1,0,0.2,0,0.3
		c0,0.2,0.2,0.4,0.3,0.6l0,0c0,0-0.7,0.4-1.1,0.4c-0.2,0-0.5,0-0.7,0c-0.1,0-0.4-0.1-0.5-0.2c-0.1-0.1-0.2-0.1-0.3-0.2L38.3,34
		c-0.1-0.2-0.2-0.4-0.2-0.4s0.5,0,0.7-0.1c0.1,0,0.1-0.1,0.2-0.2l0.2-0.1v-0.4L39,32.7c-0.1-0.1-0.2-0.2-0.3-0.2
		c-0.2-0.1-0.7-0.1-0.7-0.1s0.1-0.3,0.1-0.5l0-0.1l-0.2-0.1c-0.1-0.1-0.2-0.2-0.3-0.2l0,0l0,0c0,0,0,0-0.1,0c-0.2,0-0.5,0.1-0.7,0.3
		l0,0l0,0c0,0,0,0-0.1,0c-0.1,0.1-0.1,0.6-0.1,0.6s-0.5-0.1-0.7-0.1c-0.2,0-0.4,0.2-0.5,0.3c-0.1,0.2,0,0.4,0.1,0.6
		c0.1,0.1,0.4,0.2,0.5,0.2L36,33.9c0,0-0.1,0-0.1,0.1l-0.4,0.2l-0.8,0.1L34,34.2l-0.8-0.6l0.3-0.3c0,0,0.1-0.1,0.1-0.1
		c0.1-0.2,0.3-0.6,0.2-0.8c-0.1-0.2-0.4-0.3-0.6-0.3c-0.2,0-0.4,0.2-0.5,0.3l-0.1-0.2c-0.1-0.1-0.2-0.3-0.3-0.4l-0.1-0.1l0,0
		c0,0,0,0,0,0c-0.2-0.1-0.9-0.1-0.9-0.1l1,4.4l0,0.3l0,0l-0.1,0.1c0,0-0.1,0.1-0.1,0.1l-1,0l-0.7,0.2c-0.3,0-0.5,0.1-0.7,0.2
		c-0.2,0.1-0.3,0.1-0.4,0.3l-0.1,0.1l0.2,0.6l0.2,0.1c0,0,0,0,0,0c0,0,0,0,0,0l0,1.1c0,0,0,0,0,0l0,0v0c0,0,0,0,0,0l0,0.7l0.1,0.1
		c0.1,0.1,0.2,0.2,0.3,0.4c0,0,0.1,0.1,0.2,0.1c0,0.2,0,0.7,0.1,0.9c0,0.1,0.1,0.3,0.2,0.5c-0.2,0-0.3,0-0.4,0.1l-0.3,0l-1.2,0.5
		c-0.2,0.1-0.3,0.1-0.5,0.2l-1,0.2c-0.4,0.1-0.8,0.1-1.2,0l-0.3-0.1c-0.1,0-0.1,0-0.2-0.1c0,0,0,0,0,0l-0.7-0.5
		c0-0.1-0.1-0.1-0.1-0.2l-0.3-0.9c0-0.1,0-0.1,0-0.2v-1.2l-0.1-0.3c-0.1-0.3-0.3-0.9-0.3-0.9s0,0,0,0l0-0.1L23.7,39
		c-0.2,0.2-0.4,0.6-0.4,0.7c-0.2,0.8-0.2,1.9,0.1,2.6c0.3,0.6,1.1,1.4,1.8,1.7c0.8,0.3,1.8,0.3,2.6,0.1c0.6-0.1,1.8-0.7,2.4-0.8
		c0.7-0.1,1.6,0,2.3,0.2c0.5,0.1,1.1,0.7,1.6,1.1l-1.1-0.1l-1.2,0c-0.1-0.2-0.3-0.4-0.4-0.5c-0.1-0.2-0.3-0.6-0.3-0.6
		s-0.2,0.5-0.3,0.7c0,0.1-0.1,0.4-0.1,0.7l0,0c-0.1,0.1-0.2,0.1-0.3,0.2c-0.1,0.1-0.2,0.3-0.2,0.4c0,0,0,0.1,0,0.1l0,0l0,0
		c0,0,0,0,0,0c0,0.1,0,0.3,0,0.4c0,0.1,0,0.1,0,0.2c0,0,0,0,0,0.1l-0.3,0.5l1.1,0.1l0.3-0.1c0.4-0.1,0.9-0.3,1.3-0.2
		c0.2,0.1,0.5,0.2,0.6,0.4l-0.4,0.6c0,0,0,0,0,0c0,0,0,0-0.1,0.1L32,48.2c-0.4,0.2-0.8,0.4-1.2,0.4c-0.4,0.1-1,0.2-1.6,0.1l-0.9-0.3
		l-0.9-1l0-0.2c0-0.2,0-0.4-0.1-0.6l0-0.1l-0.2-0.3l-0.4-0.1c-0.4-0.2-0.9-0.4-1.3-0.5c-0.5-0.1-1.7,0-1.7,0l0,0h0
		c0,0,0.5,0.3,0.8,0.6l0.3,0.5l0.1,0.5c-0.6-0.4-1.3-0.7-1.9-1.1l-1-0.6l-0.5-0.2c-0.7-0.4-1.5-0.7-2.3-1c-0.1,0-0.3-0.1-0.5-0.2
		l-0.5-0.2l-1.9-0.6c-0.8-0.3-1.5-0.5-1.5-0.5s0-0.2-0.1-0.4c0,0,0.1,0.1,0.1,0.1l-0.2-1c0-0.2,0-0.3,0-0.4c0.2-0.6,0.9-1,1.2-1.6
		c0,0,0-0.1,0-0.1c0,0.1,0.1,0.1,0.1,0.1l0-0.3c0-0.2,0-0.3-0.1-0.5l0-0.2l-0.2-0.1c-0.1-0.2-0.3-0.3-0.5-0.4
		c-0.2-0.3-0.5-0.6-0.5-0.6s0,0.2,0,0.3c0,0.1,0,0.2-0.1,0.2c-0.2,0-0.5,0.1-0.8,0.2l-0.2,0l-0.1,0.1c-0.1,0-0.1,0.1-0.1,0.1
		c-0.1,0.1-0.2,0.3-0.2,0.5l0,0c0,0,0,0,0,0c0,0.5,0.2,1-0.2,1.2c-0.1,0-0.1,0-0.2,0.1c-0.1,0-0.1,0-0.2,0c-0.1,0-0.3,0-0.5-0.1
		c-0.3-0.1-0.5-0.2-0.7-0.3c-0.1-0.1-0.2-0.3-0.3-0.4c-0.1-0.1-0.1-0.4-0.2-0.6c0-0.2-0.1-0.5-0.1-0.7c0-0.1,0-0.1,0-0.1l0,0
		c0-0.1-0.1-0.1-0.1-0.2c-0.1-0.1-0.2-0.2-0.3-0.3l0,0l-0.1,0c-0.1-0.1-0.3-0.1-0.4-0.1c-0.1,0-0.2,0-0.3,0l-0.2-0.1l-0.2,0.1
		c-0.3-0.1-0.6-0.2-0.6-0.2s0.1,0.2,0.2,0.2c0,0,0,0.1,0,0.1c-0.1,0.1-0.2,0.1-0.3,0.2l0,0l0,0c-0.1,0.1-0.1,0.1-0.2,0.2
		c-0.1,0.1-0.1,0.3-0.1,0.5l-0.1,0.3c0,0,0-0.1,0.1-0.1c0,0.2,0.1,0.4,0.1,0.5c0.1,0.4,0.9,1.2,0.9,1.6C9.5,41,9.4,41,9,41.2
		c-0.5-0.2-1.6-0.6-2-0.7c-0.4-0.1-1.3,0-1.3,0l-0.2,0.3c-0.1,0-0.1,0.1-0.2,0.1C5.2,41,5.1,41.1,5,41.3c-0.2,0.1-0.4,0.2-0.4,0.2
		s0.2,0,0.3,0c0,0,0,0,0,0c0,0.2,0,0.3,0.1,0.5c0,0,0,0.1,0.1,0.1l0,0.1l0.1,0.1c0.2,0.1,0.4,0.3,0.6,0.3c0.1,0,0.1,0,0.2,0.1l0.1,0
		l0.2,0c0.6,0.1,1.3,0.1,1.7,0.1l0.4,0l0.3,0.7c0.1,0.3,0.1,0.6,0,0.8c-0.1,0.4-0.6,0.8-0.7,1.3c-0.1,0.3-0.1,0.7,0.1,0.9
		c0,0,0,0,0.1,0c0,0.1,0,0.2,0,0.2s0.1,0,0.1-0.1C8.6,47,9,47.2,9.3,47.2c0.2,0,0.4,0,0.6-0.1l0.1,0l0-0.1c0.1-0.1,0.2-0.2,0.3-0.3
		c0.1-0.2,0.2-0.4,0.3-0.5l0.2-0.2c0,0,0,0,0.1-0.1l0.6-0.2c0,0,0.1,0,0.2,0l0.5,0c0.1,0,0.3,0.1,0.4,0.1c0.5,0.2,1.1,0.7,1.1,0.7
		s-0.6,0.6-0.4,1.1c0.1,0.5,0.5,0.7,0.7,1.2l-0.4,1.1l0.1,0c0,0,0,0,0,0s0.7-0.1,1.2-0.4l0.2-0.1l0-0.1c0.2-0.3,0.2-0.7,0.5-0.9
		l0.4-0.1c0.2,0,0.5,0.1,0.5,0.1s-0.3,0.7-0.2,1.2c0.1,0.2,0.5,0.9,0.6,1.2c0,0.1,0,0.4,0,0.5l-0.2,0.5l0.8-0.3
		c0.3-0.1,0.6-0.2,0.7-0.3l0,0l0,0c0,0,0,0,0,0c0.3-0.2,0.6-1.1,0.6-1.3l0.1,0.1c0.3,0.3,1,1,1.4,1.3c0,0,0,0,0,0l0.9,0.7l0.2,0.2
		l-0.4,0.4l-1.4,0.4l-1.1,0c-0.7-0.1-1.3-0.5-2.1-0.4c-0.6,0.1-1.5,1.2-1.5,1.2l0,0l0,0c0,0,0.3-0.1,0.7-0.2l1-0.1c0,0,0.1,0,0.1,0
		c0.1,0,0.2,0,0.2,0.1l0.7,0.5l1,0.6l1,0.1l1-0.1l-0.7,0.5c-0.1,0-0.1,0.1-0.2,0.1l-0.5,0.2c-0.4,0.1-0.8,0.3-1.2,0.4
		c-0.2,0.1-0.3,0.1-0.5,0.2C17,56.3,16,56.7,15.5,57c-0.2,0.2-0.6,0.5-0.9,0.8c-0.4,0.3-1,0.6-1.1,0.7l-0.1,0l-0.7,0l-0.3,0
		c0-0.2,0.1-1.3,0-1.7c0-0.1-0.1-0.2-0.2-0.2l0-0.1l-0.1,0c-0.2-0.2-0.4-0.3-0.6-0.3c0,0-0.1,0-0.1,0l-0.1,0l-0.1,0c0,0,0,0,0,0
		C11.1,56,11,56,10.7,55.8c-0.3-0.1-1-0.2-1-0.2s0.1,0.1,0.2,0.2c0.1,0.2,0.1,0.2,0.2,0.3l-0.4,0.1l0,0.2c-0.3,0.6,0.1,2,0.1,2
		s-0.7-0.1-1.4-0.2l-0.4-0.1l-0.8,0c-0.1,0-0.3,0-0.4,0l-0.4,0l-0.2,0.1c-0.1,0-0.2,0.1-0.3,0.1l-0.2,0.1L5.5,59l0,0.2
		c-0.2,0.1-0.3,0.2-0.3,0.2s0.2,0,0.3,0.1c0,0,0,0,0,0c0,0.1,0,0.1,0,0.2l0,0.1l0,0c0,0,0,0.1,0,0.1c0.1,0.1,0.2,0.3,0.3,0.4
		c0.1,0.1,0.1,0.1,0.2,0.2l0.1,0.1l0.8,0.2c0,0,0,0,0,0c0.7,0.1,1.4,0.1,1.4,0.1c0.1,0.1,0.5,0.5,0.3,0.6c0,0,0,0,0,0
		c-0.4,0.3-1.5,0.7-1.9,1.2c-0.2,0.2-0.3,0.5-0.3,0.7c0,0.1,0,0.2,0,0.3c0,0.1,0,0.1,0.1,0.2c-0.1,0.2-0.2,0.3-0.2,0.3
		s0.2-0.1,0.3-0.1c0,0,0,0,0,0c0.1,0.1,0.3,0.3,0.4,0.4l0,0l0,0c0.1,0,0.1,0,0.2,0.1c0.1,0,0.2,0,0.4,0l0.1,0l0.2-0.1
		c0.2-0.1,0.4-0.2,0.6-0.2c0.7-0.3,1.5-1,1.9-1.3l0.2-0.2l1,0l0,0c0,0.2,0.5,1.1,0.6,1.2c0,0,0.1,0,0.1,0.1l0.1,0.2l0.6,0.2l0.2-0.1
		c0,0,0.1,0,0.1,0c0,0,0.1,0,0.1,0c0.1,0,0.2,0,0.4,0.2c0.1,0.1,0.2,0.2,0.2,0.2s0-0.3,0-0.6c0,0,0.1,0,0.1-0.1
		c0.1-0.1,0.2-0.2,0.2-0.4l0.2-0.3l-0.2-0.9c0-0.1,0-0.2,0-0.3l0-0.2c0.1,0,2.2,0.2,3.2,0.1c0,0,0.1,0,0.1,0l0.1,0l0.3-0.1
		c0.1,0,0.3-0.1,0.4-0.1l1.4-0.4l2.2-0.1l1.9,0l0,0c0,0,0,0,0,0v0l0,0c0,0-0.1-0.4-0.3-0.7l-0.1-0.2l-0.1-0.1
		c-0.1-0.2-0.3-0.3-0.4-0.4c0,0,0,0,0,0l-0.1-0.1c0,0,0,0,0,0l0.2-0.3h0.9c0,0,0.1,0,0.1,0l1.1,0.7c0.1,0,0.1,0.1,0.2,0.1
		c0,0,0,0,0.1,0l0.1,0.1l0.1,0c0.4,0.1,1.2,0.1,1.7,0.1l0.5,0l-1-1.3l0.1-0.6c0,0,0,0,0-0.1c0.4-0.1,0.9-0.2,1.2-0.3l0.1,0l0,0
		c0,0,0,0,0,0h0l0,0c0,0-0.1,0-0.2,0l-0.3-0.1c0.1,0,0.2,0,0.3-0.1c0.2,0,0.4-0.1,0.5-0.1c0.1,0,0.2,0,0.3,0l1,0.4l0.1,0
		c0.1,0,0.2,0.1,0.3,0.1c0.3,0.1,1,0.2,1.5,0.2l0.8,0.1l-0.9-1.1c-0.1-0.1-0.1-0.2-0.1-0.3l0-0.5l0.3-0.5c0.1-0.1,0.3-0.2,0.4-0.3
		l1.3-0.7c0.2,0,0.4,0.1,0.6,0.1l0.7,0.2l1.2-0.4l1-1h-0.8l2.7-0.9c0.1,0,0.2,0,0.3-0.1l1.3-0.2c0,0,0,0,0.1,0c0,0,0.1,0,0.1,0
		c0.1,0,0.2,0,0.4,0c0,0,0.1,0,0.1,0c0.1,0,0.2,0,0.3,0c0.1,0,0.1,0,0.2,0c0.1,0,0.1,0,0.2,0c0.1,0,0.2,0,0.2,0c0.1,0,0.1,0,0.2,0
		c0.2,0,0.3,0,0.5,0c0,0,0,0,0.1,0c0.1,0,0.2,0,0.4,0c0,0,0,0,0.1,0c0.1,0,0.3,0,0.4,0c0,0,0,0,0,0c0.1,0,0.3,0,0.4,0
		c0,0,0.1,0,0.1,0c0.1,0,0.2,0,0.3,0c0,0,0.1,0,0.1,0c0.1,0,0.2,0,0.3,0c0,0,0.1,0,0.1,0c0.1,0,0.2,0,0.2,0c0,0,0.1,0,0.1,0
		c0.1,0,0.2,0,0.2,0c0,0,0.1,0,0.1,0c0.1,0,0.2,0,0.3-0.1c0.6-0.1,1.2-0.4,1.8-0.7l0.6-0.2l2.6-1.3c0.3-0.1,0.6-0.2,0.9-0.4l0.7-0.2
		c1.6-0.5,2.9-0.8,2.9-0.8s1.1-0.2,1.7-0.2h0.7c0.1,0,0.1,0,0.2,0l0.2,0c-0.1,0.1-0.3,0.2-0.6,0.3c-0.1,0.1-0.3,0.2-0.4,0.3
		c-0.1,0.1-0.2,0.1-0.3,0.2c-0.1,0.1-0.1,0.1-0.2,0.2l-0.1,0.1l-0.1,0.2c-0.2,0.2-0.3,0.4-0.5,0.6l-0.8,0.5
		c-0.1,0.1-0.3,0.1-0.4,0.2l-1.2,0.2c-0.5,0-0.9-0.1-0.9-0.1s0.4,0.4,0.8,0.7c0.2,0.2,0.4,0.4,0.6,0.6l0.1,0.1l0.1,0
		c0.1,0,0.2,0.1,0.3,0.1c0.1,0,0.2,0,0.3,0c0.1,0,0.3,0.1,0.4,0.1c0.4,0,1.2,0.2,1.6,0.3l0.2,0.1c0,0.1,0,0.2-0.1,0.4L56.4,56
		c0,0-0.1,0.1-0.1,0.1l-1,1.1c-0.1,0.1-0.2,0.2-0.4,0.2l-0.3,0.1c-0.1,0-0.1,0-0.2,0l-1.7-0.4h-0.4c-0.6-0.1-1.3,0-1.5,0h0
		c0,0,0-1.5-0.2-2.2c0-0.2-0.1-0.4-0.3-0.5c0,0-0.1-0.1-0.1-0.1c-0.1-0.1-0.2-0.1-0.4-0.1l-0.2-0.1l-0.6,0c-0.3-0.1-0.5-0.2-0.5-0.2
		s0.1,0.2,0.1,0.3l-0.2,0.1c-0.1,0-0.2,0.1-0.2,0.1c-0.1,0-0.1,0.1-0.2,0.1l-0.1,0.1l0,0.1c-0.1,0.1-0.2,0.3-0.2,0.4
		c0,0.1,0,0.2,0,0.3l0,0.1c0,0,0,0,0,0c0.2,0.8,0.8,2.2,0.8,2.2s-0.1,0.4-0.3,0.3c-0.6-0.1-2-0.8-2.8-0.6c-0.4,0.1-0.7,0.3-0.9,0.6
		c-0.2,0.3-0.2,0.5-0.2,0.7C44,58.9,43.9,59,43.9,59s0.2,0,0.3,0c0,0.1,0,0.1,0,0.2c0,0.1,0,0.1,0,0.1v0l0,0
		c0.1,0.2,0.1,0.3,0.3,0.4l0.2,0.3l0.5,0c0.6,0.1,1.5,0.1,2,0.1l0.5,0l0.3,0.2c0,0,0,0.1,0,0.1c-0.4,0.4-1.4,1-1.9,1.6L46,62.4
		l0,0.1c-0.1,0.1-0.1,0.2-0.1,0.3c0,0.1,0,0.2,0,0.3l0,0.1l0.2,0.2c0,0,0,0,0,0c0,0,0.1,0.1,0.1,0.1c0.1,0.1,0.1,0.1,0.2,0.2
		c0,0.3,0,0.6,0,0.6s0.1-0.1,0.2-0.2c0.1-0.1,0.1-0.1,0.2-0.1c0,0,0,0,0,0l0.1,0.1l0.2,0c0,0,0,0,0,0c0.2,0,0.3,0,0.5,0l0.4,0
		l2.2-1.9c0,0,0.1,0,0.1-0.1l0.9,0.1c0,0,0,0,0,0l0,0.6c-0.1,0.4-0.1,1-0.1,1.4l0,0.2l0.1,0.1c0,0.1,0.1,0.2,0.2,0.3
		c0,0,0.1,0.1,0.1,0.1l0.1,0.1l0.2,0c0.2,0.1,0.4,0.1,0.6,0.1c0,0,0,0,0,0c0,0.1,0.1,0.3,0.1,0.3s0.1-0.1,0.2-0.3
		c0.1,0,0.2-0.1,0.3-0.1c0.1-0.1,0.2-0.2,0.3-0.4l0.2-0.1V64c0-0.3,0-0.6,0-0.9v-0.6l0.7,0l3-0.1l0.1,0.1c0,0.1,0.1,0.2,0,0.4
		L57,63.5c0,0,0,0.1,0,0.1l0,0l0,0c0,0,0.8-0.3,1.6-0.7c0.3-0.2,0.6-0.3,0.8-0.5l0.8-0.5l0.6-1.1l0.4,1.1c0,0.1,0,0.2,0,0.2l0,0v0
		c0,0,0,0,0,0l0,0.1l0.4-0.4c0.1-0.1,0.2-0.2,0.4-0.3c0,0,0.9-0.8,1.8-1.9l0,0l0,0c0.4-0.5,0.8-1,1.1-1.6c0.1-0.2,0.2-0.4,0.3-0.6
		l0.2-0.3l0.3-0.6c0.3-0.7,0.6-1.3,0.8-1.9l0.8-1.9L66.5,53l-0.6-0.2c0,0-0.1,0-0.1-0.1c0,0,0,0,0,0l-0.4-1.5c0,0,0,0,0-0.1l0.1-0.7
		c0.1,0,0.4,0,0.8-0.1l0.8,0l1.2,0.1l0.7,0.1l0.4,0.2c0,0,0,0,0,0c0.2,0.2,0.4,0.3,0.5,0.5c0.3,0.3,0.6,0.6,0.9,0.8
		c0.1,0,0.1,0.1,0.2,0.1l0.1,0.1l0.3,0.1c0.9,0.5,2,0.9,2.8,1.2c0.2,0.1,0.4,0.1,0.6,0.1l0.6,0.2l-0.1-0.1c0.3,0.1,0.6,0.1,0.8,0.3
		c0.5,0.3,0.8,1.1,1,1.6c0,0.1,0.1,0.3,0,0.5c-0.2,0.5-1.1,1.3-1.1,1.3l0,0l0,0c0,0,0.6,0.1,1.3,0.1c0.2,0,0.4,0,0.6,0
		c0.3,0,0.7-0.3,1-0.5c0.3-0.2,0.6-0.4,0.8-0.6c0.2-0.2,0.3-0.3,0.3-0.3s2.1-0.2,3.7-0.3c0.2,0,0.3,0,0.5,0c0.2,0,0.4,0,0.6,0
		c0.4,0,0.6,0,0.8,0.1c0.2,0.1,0.3,0.2,0.5,0.3c0,0,0,0,0,0c0.4,0.5,0.3,1.5,0,2c0,0,0,0.1,0,0.1c0-0.1-0.1-0.2-0.1-0.2l-0.3,0.5
		l-0.1,0l-1.3,0.3l-2.1-0.5l-0.2,0c-0.2,0-0.4,0-0.6,0.1c-0.1,0-0.2,0.1-0.2,0.2c-0.1,0.1-0.1,0.2-0.2,0.3c-0.2,0.1-0.3,0.1-0.3,0.1
		s0.1,0.1,0.2,0.1l0,0l0,0.1c0,0.2,0,0.5,0.1,0.7l0,0.2c0,0,0,0,0.1-0.1c0,0,0,0,0,0c0,0,0,0,0,0c0.5,0.5,2.4,0.5,2.4,0.5s0,0,0,0
		c0.1,0.1,0.2,0.3,0,0.5c-0.4,0.4-1.5,0.8-1.6,1.2c-0.1,0.2-0.2,0.4-0.3,0.6c0,0-0.1,0-0.1,0l0,0.1c0,0.1,0,0.1,0,0.2
		c0,0,0.1,0.1,0.1,0.2c-0.1,0.2-0.1,0.3-0.1,0.3s0.1-0.1,0.2-0.1c0.1,0.1,0.2,0.2,0.3,0.3l0,0l0,0c0,0,0,0,0.1,0
		c0.3,0.1,0.7,0.1,1,0l0.1,0l0.1,0c0,0,0.1,0,0.1,0c0.6-0.3,1.8-1.3,2.2-1.7l0.1-0.1l0.9,0.3c0,0,0,0,0,0l0.1,1.1
		c0,0.3-0.1,0.6,0,0.9c0,0,0,0,0,0.1l0,0l0,0c0,0,0,0.1,0,0.1c0.1,0.2,0.3,0.2,0.6,0.3c0,0,0,0,0,0l0.1,0.1h0.1
		c0.1,0.1,0.2,0.2,0.2,0.2s0-0.1,0-0.2h0.3l0.4-0.3c0.1,0,0.2-0.1,0.2-0.2l0.2-0.2L89,64.7c0-0.1,0-0.3-0.1-0.4l-0.1-0.7
		c0-0.1,0-0.1,0-0.2l0.3-0.4l0.8-0.3l0.9,0.2l0.3,0.1c0.3,0.1,0.7,0.2,0.9,0.3c0.1,0,0.2,0,0.2,0l0.3,0.1l0.1-0.1
		c0.1,0,0.2,0,0.2-0.1c0,0,0,0,0,0c0.1,0.1,0.2,0.2,0.2,0.2s0-0.2,0-0.4c0.1-0.1,0.2-0.3,0.3-0.4l0.2-0.2L93.5,62.2z M31.2,41.8
		c0-0.1,0.1-0.3,0.1-0.3c0.1-0.2,0.3-0.5,0.4-0.7l0.6,0l1.8-0.2l0.7,0.2c0.1,0.1,0.2,0.2,0.3,0.3c0.1,0.1,0.1,0.3,0.1,0.4
		s0,0.3-0.1,0.5c-0.1,0.2-0.2,0.5-0.2,0.7c0,0.1,0,0.1-0.1,0.2c-0.1-0.1-0.3-0.1-0.4-0.2l-0.5-0.2l-1.5-0.6l-1.1,0L31.2,41.8
		C31.2,41.8,31.2,41.8,31.2,41.8z M40.8,37.4c-0.1,0.1-0.1,0.1-0.1,0.1s0,0,0-0.1C40.7,37.4,40.8,37.4,40.8,37.4L40.8,37.4
		L40.8,37.4z"/>
	<polygon points="45.3,43.2 45.3,43.2 45.3,43.2 	"/>
	<path d="M80,95.6L80,95.6c0-0.1,0-0.2,0-0.2c0,0,0-0.1,0-0.1c0,0,0-0.1,0-0.1c0,0,0-0.1,0-0.1l0,0l0,0c0,0,0-0.1,0-0.1
		c0,0,0-0.1-0.1-0.1c-0.1-0.1-0.2-0.2-0.3-0.3c0,0-0.1-0.1-0.1-0.1c-0.1,0-0.1,0-0.2-0.1l-0.1-0.1l-0.4,0c-0.4,0-0.8-0.1-1.1-0.1
		L77.2,94c0,0,0,0,0,0l-0.3-0.5c0,0,0,0,0,0c0,0,0-0.1,0-0.1c0,0,0-0.1,0.1-0.1c0.1-0.1,0.3,0,0.4,0l0.1,0.1l1.1-0.7l0-0.1
		c0.2-0.2,0.3-0.3,0.3-0.3h0l0,0c0,0-0.2,0-0.5,0c0,0-0.1,0-0.1,0c-0.1,0-0.2,0-0.2,0c-0.2,0-0.5,0-0.6-0.1
		c-0.2-0.1-0.4-0.3-0.5-0.5c-0.1-0.2-0.2-0.5-0.3-0.7c0,0,0-0.1,0-0.2c0-0.1,0-0.1,0-0.2c0-0.1,0-0.2,0-0.4c0-0.3,0.1-0.5-0.1-0.7
		c0,0,0,0,0-0.1c-0.2-0.2-0.6-0.4-0.9-0.5c-0.1,0-0.1-0.1-0.2-0.1c0,0-0.1,0-0.1,0c0,0,0,0,0,0s0.3-0.1,0.6-0.3
		c0.1,0,0.2-0.1,0.2-0.1l0.2-0.2c0,0,0,0,0,0c0.1-0.1,0.2-0.2,0.3-0.2l0.4-0.4l0-0.8l-0.7-1.3c0,0,0,0.1,0,0.2
		c-0.1-0.1-0.1-0.2-0.2-0.2c-0.1-0.1-0.4-0.2-0.6-0.2c0,0-0.1,0-0.1,0c-0.1,0-0.1,0-0.2,0c-0.2,0-0.3,0-0.3,0s0.2,0.2,0.3,0.5
		c0.1,0.2,0.2,0.3,0.2,0.4c0,0.3-0.2,0.6-0.4,0.8c-0.5,0.3-1.5,0.1-1.5,0.1s-0.7-0.4-1-0.5c-0.3-0.1-0.7-0.2-1.1-0.3
		c-0.2,0-0.3-0.1-0.3-0.1s0.1-0.3,0.2-0.7c0,0,0,0,0-0.1c0,0,0-0.1,0-0.1c0-0.1,0-0.3,0-0.4c0-0.1,0-0.1,0-0.2c0,0,0-0.1,0-0.1l0,0
		c0-0.1,0-0.1-0.1-0.2C71,84.2,69.8,84,69.8,84l0,0h0c0,0,0.4,0.5,0.3,0.8c0,0,0,0.1,0,0.1c0,0,0,0.1-0.1,0.1
		c-0.2,0.1-0.6,0.1-0.9,0.1c-0.3,0-0.8,0-1.2-0.1c-0.1,0-0.2-0.1-0.3-0.1c-0.2-0.2-0.5-0.5-0.7-0.8c-0.4-0.5-0.7-1-1.2-1.3
		c-0.5-0.3-1.4-0.8-1.4-0.8c0,0,0,0,0,0c0,0,1.5,0,2.1-0.1c0.6,0,1.1,0,1.3,0c0.9-0.1,2.7-0.1,3.5-0.3c0,0,0,0,0,0
		c0.3-0.1,0.6-0.1,1-0.2c0.1,0,0.3-0.1,0.4-0.1c0.5-0.2,0.9-0.4,1.3-0.6c0.2-0.1,0.3-0.3,0.5-0.5c0.1-0.1,0.1-0.1,0.2-0.2
		c0.1-0.1,0.2-0.2,0.2-0.3c0.2-0.2,0.3-0.5,0.4-0.7c0,0,0-0.1,0-0.1c0.1-0.2,0.2-0.4,0.2-0.4s0,0-0.1,0.1c0.1-0.3,0.1-0.6,0.1-1
		c0,0,0,0,0,0c0,0,0-0.1,0-0.1c0-0.4,0-1-0.1-1.3c-0.3-0.6-1.1-1.1-1.7-1.4c-0.8-0.4-2-0.5-2.9-0.6c0,0-0.1,0-0.2,0c0,0,0,0,0,0
		c-0.7-0.1-1.6,0-2.3,0.1c-0.5,0.1-1.2,0.2-1.7,0.3c-0.7,0.1-1.6,0.3-2.3,0.5c-0.8,0.2-1.8,0.5-2.6,0.6c-0.3,0.1-0.6,0.1-0.9,0.2
		c0,0,0,0-0.1,0c-0.1,0-0.3,0-0.4,0c-0.7,0-1.7,0-2.4-0.3c-0.6-0.2-1.2-0.5-1.5-1c-0.3-0.5-0.4-1.3-0.1-1.8c0.3-0.7,1.2-1.3,1.9-1.7
		c0.1-0.1,0.2-0.1,0.3-0.2c0.8-0.4,1.9-0.5,2.8-0.6c0.9-0.1,2.2-0.1,3.1,0c1.6,0.2,3.6,1,5.1,1.5c1.6,0.5,3.7,1.4,5.4,1.9
		C75.5,73.6,77,74,77,74s1.4,0.2,2,0.2c0.5,0,1.2-0.2,1.7-0.3c0.1,0,0.2-0.1,0.2-0.1c0.1,0,0.3-0.1,0.4-0.2c0.1,0,0.2-0.1,0.3-0.2
		c0.1,0,0.1-0.1,0.2-0.1l0.7-0.3l0.4-0.5c0,0,0.1-0.1,0.1-0.1l0.3-0.4l0.4-1.1l-0.5,0.4c-0.1,0.1-0.2,0.1-0.3,0.2
		c-0.1,0.1-0.2,0.1-0.3,0.2L81.1,72l1.4-1.1l0.4-1.2l0-0.3c0-0.2,0-0.3,0.1-0.5c0.1-0.6,0-1.5,0-2l0-0.2l0,0c0-0.1,0-0.2,0-0.2l0,0
		v0c0,0-0.5,0.9-1,1.6l-0.6,0.7c-0.3,0.3-0.9,0.8-1.4,1.1l-0.5,0.3l0.1-0.3c0.1-0.2,0.1-0.4,0.2-0.6l0.1-0.3l-0.1-0.1
		c-0.1-0.4-0.6-1.1-0.6-1.1l0,0l0,0l0,0c0,0-0.3,0.7-0.5,0.9c0,0,0,0,0,0c-0.1,0.1-0.2,0.2-0.3,0.3l-0.8,0.4c0,0-0.1,0-0.1,0
		L75.1,70c-0.1,0-0.2,0-0.3,0c0.3-0.1,0.6-0.2,0.6-0.2L74,70c-0.9,0-1.9-0.1-2.7-0.2l-1.9-0.3c0,0,0,0-0.1,0L67.5,69L65,68.4
		l-0.7-0.1c-0.1,0-0.3,0-0.4,0c-0.1,0-0.1,0-0.2,0l-1-0.1l-2.1,0.1l-0.8,0.3c-0.3,0.1-0.7,0.2-1,0.2c-0.8,0.2-1.8,0.8-2.5,1.2
		c-0.5,0.3-0.9,0.7-1.2,1.1l-0.3,0.2l-0.6,1.2l-0.1,1.2l0.1,0.2c0.2,0.6,0.5,1.3,0.9,1.8c0.7,0.7,1.8,1.1,2.8,1.3
		c0.9,0.2,1.8,0.3,2.6,0.2c1.6,0,3.2-0.3,4.6-0.6c1.2-0.3,2.3-0.6,3.5-0.9c0.5-0.1,0.9-0.2,1.2-0.2c0.7,0,1.3,0.1,1.9,0.3
		c0.5,0.1,1.2,0.5,1.4,0.9c0.4,0.6,0.4,1.2-0.1,1.8c-0.3,0.4-0.9,0.8-1.4,0.9c-0.9,0.2-3.2,0.3-4.7,0.3L62.7,80c-0.1,0-0.2,0-0.2,0
		c-0.1,0-0.2,0-0.3,0c-0.4-0.1-0.7-0.1-1.1-0.2l-0.9-0.3l-1.1-0.2c-0.2,0-0.4-0.1-0.6-0.1c-0.2,0-0.3-0.1-0.5-0.1l0,0l0,0
		c-0.2,0-0.4,0-0.6,0c-0.4,0-0.9,0-1.3,0.1c-0.2,0-0.4,0-0.6,0.1c-0.2,0-0.4,0.1-0.6,0.1l-0.4,0l-1.8,0.3c-0.5,0.1-1,0.2-1.4,0.3
		l-0.1,0l-2.9,0.3c0,0-0.1,0-0.1,0c-0.2,0-0.3,0-0.5,0c-0.2,0-0.3,0-0.5,0c0.2-0.1,0.3-0.2,0.4-0.3l0,0l0,0c0,0,0,0,0,0
		c0.1-0.1,0.2-0.3,0.3-0.5l0,0c0,0,0,0,0,0c0.1-0.2,0.1-0.3,0.1-0.5c0.1-0.1,0.1-0.1,0.1-0.1l-0.1,0c0-0.1,0-0.2,0-0.2
		s-0.5,0.4-0.7,0.4c-0.5,0-1.1-0.4-1.3-0.8c-0.2-0.4,0-1.1-0.2-1.5c0,0,0,0,0,0l0-0.2l-0.3-0.2c-0.1-0.1-0.1-0.1-0.2-0.2l-0.1-0.3
		c0.3,0.1,0.8,0.2,1,0.2c0,0,0.1,0,0.1-0.1l0.1,0l0.4-0.5l0,0c0,0,0,0,0,0s-1.2-0.5-1.5-0.9c0,0,0-0.1,0-0.1l0.2-1.1l0.2-0.7l-0.5-1
		l-0.7-0.6l-0.2,0c-0.1-0.1-0.2-0.2-0.2-0.2l0,0c0,0,0.5-0.4,0.8-0.8c0,0,0,0,0.1-0.1c0,0,0,0,0,0c0.3-0.5,0.3-1.9,0.3-1.9
		s-0.3,0-0.7,0c-0.1,0-0.2,0-0.3,0l-0.2,0l-0.2,0.1c0,0-0.1,0-0.1,0c0,0,0,0,0,0c-0.1,0-0.1,0.1-0.2,0.1l-0.3,0.1l-0.1,0.1
		c-0.1,0.1-0.2,0.2-0.2,0.2c0,0,0-0.1,0-0.1c0,0,0-0.1,0-0.2c0,0,0,0,0-0.1c0.1,0,0.1,0,0.1,0l0,0l0.1,0l0.2-0.5c0,0,0,0,0,0
		l1.5-2.8l0,0l0,0l0,0c0,0-0.5-0.1-0.7,0l0,0l0,0c-0.2,0.1-0.3,0.4-0.3,0.4s0-0.1-0.1-0.1l0-0.1l-0.1,0c0,0-0.1-0.1-0.1-0.1
		c-0.1,0-0.1,0-0.2,0l-0.1,0l-0.1,0.1c-0.1,0-0.1,0.1-0.2,0.1c0,0-0.1,0.1-0.1,0.2l0,0l0,0c0,0.1,0,0.2,0,0.2c0,0.1,0.2,0.3,0.3,0.4
		l0,0c0,0-0.5,0.3-0.8,0.4c-0.1,0-0.4,0-0.5,0c-0.1,0-0.3-0.1-0.4-0.1c-0.1,0-0.2-0.1-0.2-0.1l-0.3-0.3C41,65.5,41,65.3,41,65.3
		s0.4,0,0.5-0.1c0.1,0,0.1-0.1,0.1-0.2l0.1-0.1l0-0.3l-0.1-0.1c-0.1-0.1-0.1-0.1-0.2-0.1c-0.1-0.1-0.5,0-0.5,0S41,64.2,41,64l0-0.1
		l-0.2-0.1c-0.1-0.1-0.2-0.1-0.2-0.1l0,0l0,0c0,0,0,0,0,0c-0.2,0-0.4,0.1-0.5,0.2l0,0l0,0c0,0,0,0,0,0c-0.1,0.1-0.1,0.4-0.1,0.4
		s-0.4-0.1-0.5,0c-0.1,0-0.3,0.2-0.4,0.3c-0.1,0.1,0,0.3,0.1,0.4c0.1,0.1,0.3,0.1,0.4,0.1l-0.2,0.5c0,0-0.1,0-0.1,0.1L39,66
		l-0.6,0.1l-0.5,0l-0.7-0.4l0.2-0.3c0,0,0.1-0.1,0.1-0.1c0.1-0.2,0.2-0.4,0.1-0.6c-0.1-0.1-0.3-0.2-0.5-0.2c-0.1,0-0.3,0.2-0.4,0.3
		l-0.1-0.1c-0.1-0.1-0.2-0.2-0.3-0.3l0,0l0,0c0,0,0,0,0,0c-0.2-0.1-0.7,0-0.7,0l1,3.3l0,0.2l0,0l0,0c0,0,0.1,0,0.3,0l0,0l-0.2,0.3
		c-0.1,0.2-0.3,0.4-0.3,0.4s-0.1,0-0.1,0l-0.9,0.1L34.7,69c0,0,0,0,0,0l-0.5,0.1l-0.1,0.1c0,0,0,0.1-0.1,0.1L34,69.4l0,0.1
		c0,0,0,0,0,0c0,0.1,0,0.2,0.1,0.3c0.1,0.1,0.2,0.2,0.2,0.3c0,0,0,0.1,0,0.2l0,0.3l0,0.3c0,0.1,0,0.2,0,0.2c0,0.4,0.1,0.6,0.1,0.7
		c0.1,0.1,0.2,0.2,0.3,0.3c0.1,0.1,0.4,0.1,0.7,0.2c0.1,0,0.1,0,0.2,0l-0.4,0c0,0,0,0.5,0.1,0.7c0,0.2,0.2,0.4,0.3,0.6l-0.8,0.2
		c-0.1,0-0.1,0-0.2,0l-0.5,0c-0.2,0-0.3,0-0.4,0l-0.5-0.1c-0.2-0.1-0.3-0.2-0.5-0.3l-0.4-0.5l-0.1-0.7c0-0.2,0-0.3,0.1-0.5l0.2-0.5
		l0.2-0.8l0.1-0.8l-0.1-0.2c0,0,0,0,0,0c-0.1-0.2-0.3-0.5-0.3-0.5s-0.2,0.1-0.3,0.5c-0.2,0.4-0.6,1.1-0.7,1.8
		c-0.1,0.7-0.3,1.9,0.2,2.6c0.3,0.4,0.9,0.7,1.4,0.9c0.5,0.2,1.2,0.3,1.7,0.3c0.4,0,0.4,0,0.8,0c0,0,0,0,0,0
		c-0.1,0.1-0.1,0.3-0.1,0.3c0,0.1,0,0.3-0.1,0.4c0,0,0,0-0.1,0L35,76.2l0,0.3c0,0.1-0.1,0.1-0.1,0.2c0,0.1,0,0.4,0,0.5l-0.2,0.6
		l0.8,0.1l0.1,0l0,0.1c0,0,0.1,0,0.1-0.1l0.8-0.1l0.2,0c0,0,0,0,0.1,0c0,0,0.1,0,0.2,0l0.6,0.2c0.1,0,0.1,0.1,0.2,0.1l0.1,0.2
		c0,0,0,0.1,0,0.1l-0.2,0.3c-0.3,0.2-0.7,0.3-1,0.4c0,0,0,0,0,0c-0.2,0-0.7,0.1-1.1,0.1c0,0,0,0,0,0c-0.3,0-0.6,0-0.8-0.1
		c-0.5-0.1-1.1-0.4-1.5-0.7c-0.3-0.2-0.7-0.9-0.7-0.9l0-0.8c0-0.1,0.1-0.1,0.1-0.1l0,0l0,0c0,0-0.8,0.3-1.2,0.9
		c-0.1,0.3-0.2,0.7-0.2,1.1c-0.1,0-0.2-0.1-0.2-0.1l-2-1.5c-0.1-0.2-0.3-0.3-0.4-0.5l-0.3-0.8c0,0,0-0.1,0-0.1c0,0,0,0,0,0l0.1-0.4
		l0.3-0.5l0.4-0.4c0.3-0.2,0.5-0.5,0.7-0.8l0,0l0,0c0,0,0-0.1,0.1-0.1c0.1-0.2,0-0.5-0.1-0.7c0,0,0,0,0,0l0,0l-0.1,0
		c0,0-0.1-0.1-0.1-0.1c0-0.1,0-0.2-0.1-0.3c-0.1-0.3-0.7-0.7-0.7-0.7s0.1,0.4,0.1,0.6L28.6,72l-0.3,0.2c-0.2,0-0.3,0.1-0.4,0.2
		c0,0-0.1,0.1-0.1,0.1l0,0l0,0.1c-0.1,0.2-0.1,0.3-0.2,0.5l0,0.2c0,0.1-0.1,0.2-0.1,0.2l-0.5,0.2c-0.1,0-0.1,0-0.2,0l-0.4-0.2
		c0,0-0.1-0.1-0.1-0.1l-0.3-1.8l-0.3-0.1c0,0,0,0-0.1,0c-0.2-0.1-0.4-0.2-0.6-0.2L24.8,71l0,0c-0.3-0.1-0.9-0.2-0.9-0.2
		s0.2,0.2,0.3,0.4c-0.1,0-0.2,0.1-0.3,0.2l-0.2,0.1l-0.1,0.4c-0.1,0.1-0.1,0.3-0.1,0.4l-0.1,0.2l0.2,0.1c0.3,0.5,0.9,1,0.8,1.4
		c0,0.1-0.1,0.1-0.1,0.2l-0.6,0.3l-0.5-0.1c0,0,0,0,0,0l-0.9-1l-0.5,0.1c0,0,0,0,0,0c0,0,0,0-0.1,0c-0.1,0-0.2,0-0.2,0l-0.1,0l0,0
		c-0.3,0.1-0.5,0.3-0.5,0.5c-0.3,0.2-0.5,0.5-0.5,0.5s0.2,0,0.4,0c0,0,0,0,0,0c0,0.4,0.1,0.7,0.4,0.9c0.4,0.3,1.4,0.5,1.9,0.6
		l0.3,0.1l0.3,1.3c0,0,0,0,0,0c-0.2,0.4-0.7,0.6-1.1,0.8l-0.3,0.1L22,79.2l0.1,0.1c-0.2,0-0.6,0-0.6,0s0.5,0.5,0.8,0.6
		c0.3,0.1,0.6,0,0.8-0.1c0.1,0,0.2,0,0.2,0l0.3,0l0.4-0.3c0.2-0.1,0.4-0.2,0.6-0.4l1-0.6l0.8,0.6c0.3,0.5,0.6,1.2,0.6,1.8
		c0,0.4,0,0.6-0.2,1c0,0-0.1,0-0.1,0l-0.8,0.8c-0.1,0-0.1,0.1-0.1,0.1s0.3,0,0.7,0.1l0.6,0.1l0.2-0.1c0.2,0,0.3,0,0.4-0.1
		c0,0,0.1,0,0.1-0.1l0.1,0l0.1-0.1c0.4-0.3,0.8-0.8,0.8-0.8c0,0,0.3,0.7,0.3,1.2c0,0.4-0.5,0.9-0.5,0.9s0.2,0,0.4,0.1c0,0,0,0,0,0
		l0,0l0,0c-0.1,0.1-0.2,0.2-0.3,0.2l-1.5,1.3c-0.1,0.1-0.3,0.1-0.4,0.2c-0.1,0-0.1,0-0.2,0l-0.8,0c-0.1,0-0.1,0-0.2,0l-1.6-0.6
		c-0.3-0.3-0.6-0.6-0.6-0.6v0l0,0c0,0,0,0.7,0.2,1.1c0,0,0,0,0,0l0,0c0,0.1,0.1,0.2,0.1,0.2c0.2,0.4,0.7,0.8,1.2,1.1l0.1,0.1
		l0.2,0.1c0.3,0.2,0.7,0.3,1,0.4c0.2,0.1,0.4,0.1,0.6,0.1l0.1,0h0.2c0.1,0,0.2,0,0.3,0c0.2,0,0.4,0,0.5,0h0.5l0.4-0.1
		c0.1,0,0.3,0,0.4-0.1c0.7-0.1,1.9-0.6,2.5-1c0.1-0.1,0.3-0.2,0.4-0.3l0.4-0.2l0.9-0.8l0.3,0c0,0,0,0.1,0,0.1l-0.1,0.2l0,1.4l0,0
		c-0.1,0.1-0.1,0.2-0.2,0.3l0,0l-0.8,1l-1.6,1.1L30.3,90c-0.2,0.2-0.4,0.4-0.5,0.5l-0.5,0.5l-0.5,0.6c-0.1,0.1-0.2,0.3-0.3,0.4
		L27.7,93c0,0-0.1,0.1-0.1,0.1c-0.1,0.1-0.2,0.1-0.3,0.2c0,0,0,0,0,0l-1,0.4c0,0-0.1,0-0.1,0l0-1.2l0-0.1c0-0.1,0-0.2-0.1-0.3
		c-0.1-0.3-0.3-0.7-0.6-0.8c0,0-0.1,0-0.1,0l0,0l-0.1,0c0,0-0.1,0-0.1,0c-0.1-0.1-0.2-0.2-0.3-0.3c-0.2-0.2-1-0.2-1-0.2
		s0.3,0.3,0.4,0.5l-0.1,0l-0.1,0.1c0,0,0,0-0.1,0c-0.1,0.1-0.2,0.1-0.2,0.2L24,91.6l0,0.2c0,0.2-0.1,0.3-0.1,0.5
		c0,0.5,0.3,1.1,0.4,1.7c0,0.2,0,0.8,0,0.8c0,0-0.5,0-1-0.1l-0.3,0l-0.9,0l-0.7,0.3l-0.3,0.4l0,0.2c0,0,0,0-0.1,0.1
		c-0.2,0.2-0.3,0.9-0.3,0.9s0.2-0.2,0.4-0.3c0,0.1,0.1,0.2,0.1,0.2c0,0,0,0.1,0.1,0.1l0,0.1l0.1,0c0.1,0.1,0.3,0.1,0.6,0.1
		c0.1,0,0.3,0,0.4,0c0.2,0,0.4,0,0.7,0l1.3,0l0,0c0,0.1,0.1,0.4,0,0.5c-0.1,0.4-0.8,0.7-1,1.1c0,0,0,0,0,0l0,0c0,0,0,0.1-0.1,0.1
		c0,0.1,0,0.2,0,0.2l0,0.1l0.1,0.1c0,0.1,0.1,0.3,0.2,0.4c0.1,0.1,0.3,0.2,0.5,0.2l0,0c0,0,0,0,0,0c0.2,0.2,0.9,0.4,0.9,0.4
		s-0.1-0.2-0.2-0.4c0.1,0,0.1,0,0.2,0c0,0,0,0,0,0c0,0,0,0,0,0l0.1,0l0.2-0.1c0.1-0.1,0.2-0.2,0.3-0.2c0,0,0.1-0.1,0.1-0.1l0.1-0.1
		l0,0c0.1-0.1,0.2-0.3,0.3-0.4l0.9-1.2c0.1-0.1,0.2-0.1,0.3-0.2l1.2,0c0,0,0,0,0,0l0.3,0.4c0.2,0.4,0.2,1,0.4,1.4l0,0.1l0,0
		c0.1,0.1,0.1,0.2,0.2,0.2c0.1,0.1,0.2,0.1,0.3,0.1l0.2,0.2c0,0.1-0.1,0.1-0.1,0.1s0.4-0.1,0.6-0.3l0.4-0.1l0.5-0.9l-0.2-0.8
		c-0.1-0.8-0.4-1.6-0.5-1.9l1.6-1.2c0.2,0.1,0.6,0.4,0.7,0.6c0,0.1,0.1,0.2,0.1,0.2l0.1,1c0,0.3,0,0.6,0,0.6l0,0v0c0,0,0,0,0.1-0.1
		l0,0l0.1-0.2c0.2-0.3,0.5-0.8,0.7-1.2l0.5-0.8l0.1-0.5c0.1-0.3,0.2-0.6,0.2-0.7l0.4,0.6l0.4,0.8l0,0l0,0c0,0,0.2-0.9,0.4-1.3
		c0-0.1,0.1-0.1,0.1-0.2l0.7-1l0.1,0.4l0.3,1l0-0.1l0,0l0,0l0,0c0,0,0.1-0.3,0.2-0.7l0.3-0.9c0.1-0.4,0.3-0.7,0.4-1
		c0.4-0.7,1.3-1.3,1.6-2c0.1-0.3,0.2-0.7,0.3-1.1l0.2-0.5c0.4,0,3.3-0.3,4.4-0.7l0.2,0l1.3-0.8l1.7-1.6l1-0.8l1.2-0.4
		c0.3,0,0.8-0.1,1-0.1c0,0,0.1,0,0.1,0l0,0l0,0.5l-0.3,0.5c-0.3,0.1-0.8,0.1-1.1,0.3c-0.1,0-0.1,0.1-0.2,0.1l0,0
		c0,0-0.5,0.3-0.8,0.6c-0.1,0.1-0.3,0.2-0.2,0.3c-0.1,0.1-0.2,0.2-0.3,0.4l-0.2,0.2l-0.4,0.6c0,0,0,0-0.1,0.1
		c-0.4,0.4-0.7,1-1.2,1.3l-1.2,0.1c0,0,0.1,0,0.1,0.1c-0.1,0-0.2,0-0.2,0c-0.3,0-0.5,0-0.5,0s0.2,0.2,0.5,0.5
		c0.1,0.1,0.2,0.2,0.4,0.3c0.2,0.1,0.4,0.3,0.6,0.3c0.4,0.1,1.2,0,1.5,0l0.2,1l0.4,0.4c0.1,0.1,0.1,0.1,0.2,0.2
		c0.1,0.1,0.2,0.1,0.2,0.1c0,0-0.7,0.2-1.1,0.3l-0.4,0.1l-1.9,1.6c0,0-0.1,0-0.1,0.1c-0.1,0-0.2,0.1-0.3,0.1c-0.1,0-0.2,0-0.3,0.1
		c0,0-0.1,0-0.1,0l-1,0.1c0,0,0,0-0.1,0.1c0,0,0,0,0,0s0-0.1,0-0.2c0-0.1,0-0.4,0-0.6c0-0.1,0-0.1,0-0.2c0-0.4-0.1-0.8-0.2-1.1
		l0-0.2l-0.1-0.1c0,0,0,0,0,0c0,0-0.1-0.1-0.1-0.1l-0.1-0.1l0,0c-0.1-0.1-0.2-0.3-0.4-0.4c-0.2-0.2-1-0.2-1-0.2s0.3,0.3,0.4,0.5
		c0,0,0,0,0,0.1c-0.2,0-0.3,0.1-0.4,0.2l-0.1,0l0,0.1c0,0.1-0.1,0.1-0.1,0.2c0,0,0,0.1,0,0.1c0,0.1,0,0.2,0,0.3
		c0,0.4,0.1,0.9,0.2,1.2l0.1,0.4l-0.1,0.3l-0.6,0c-0.5,0-1.2,0-1.7,0.1c0,0,0,0,0,0l0,0l0,0c-0.1,0.1-0.3,0.2-0.4,0.3l-0.1,0.1
		l0,0.1c0,0.1-0.1,0.2-0.1,0.3c0,0-0.1,0.1-0.1,0.1c-0.2,0.2-0.3,0.9-0.3,0.9s0.2-0.2,0.4-0.3c0,0.1,0.1,0.2,0.1,0.2
		c0.1,0.1,0.2,0.2,0.3,0.2c0.1,0.1,0.3,0.1,0.4,0.1c0.6,0.1,2-0.3,2-0.3s0,0.3,0,0.6c0,0.1,0,0.2,0,0.2c0,0,0,0.1,0,0.1
		c-0.1,0.2-0.3,0.4-0.5,0.6l0,0l0,0c0,0,0,0,0,0c0,0,0,0.1-0.1,0.1c-0.1,0.1-0.1,0.3-0.1,0.5c0,0,0,0,0,0c0,0.2,0,0.3,0.1,0.4
		c0,0,0,0,0,0c0.1,0.1,0.3,0.3,0.5,0.4l0,0l0.1,0c0,0,0,0,0.1,0c0.2,0.2,0.4,0.3,0.4,0.3s0-0.1,0-0.2c0,0,0,0,0,0
		c0.1,0,0.2,0,0.3-0.1l0,0l0,0c0.2-0.1,0.4-0.2,0.5-0.4c0.1-0.1,0.1-0.1,0.1-0.2c0,0,0,0,0,0l0,0l0-0.1c0-0.1,0.1-0.2,0.1-0.2
		l0.3-0.8l0.5-0.5c0,0,0.1,0,0.1,0l0.7,0c0,0,0.1,0,0.1,0.1c0.1,0,0.1,0.1,0.1,0.1c0.1,0,0.1,0.1,0.1,0.2C45.1,96.1,45,96,45,96
		l0.2,0.3l0.2,1.4c-0.2,0-0.5,0-0.5,0s0.5,0.5,0.8,0.6c0.3,0.1,0.6,0.1,0.8,0l0.1,0l0.1,0c0.1,0,0.2,0,0.2-0.1
		c0.1-0.1,0.2-0.1,0.2-0.2l0.1,0l0-0.2c0-0.1,0.1-0.2,0.1-0.3c0,0,0,0,0,0l0-0.2l-0.4-1.3l2.4-0.4l-0.1,1.8l0.7-0.3
		c0.1,0,0.2-0.1,0.3-0.1l0.7-0.3l1.6-0.9c0,0,0.1,0,0.1-0.1c0.1-0.1,0.2-0.1,0.3-0.2l0.3-0.2l1.4-1.3c0.1,0,0.4,0.1,0.7,0.1
		c0.1,0,0.2,0,0.3,0.1c0.1,0,0.2,0,0.3,0l0.3,0.1l0.2,0c0,0,0.1,0,0.1,0c0.1,0,0.2,0,0.3-0.1l0.3-0.1l0.5-0.3c0,0,0,0,0.1,0
		c0.4-0.2,0.7-0.4,0.7-0.4s0,0,0,0l0.1,0l-0.8,0c0,0-0.1,0-0.1,0l-0.8-0.6c0-0.1-0.1-0.2-0.1-0.2l0-0.8c0,0,0-0.1,0.1-0.1
		c0,0,0,0,0,0l0.6,0l0,0c0.1,0,0.1,0,0.2,0c0.1,0,0.1-0.1,0.2-0.1c0.1,0,0.1-0.1,0.1-0.1l0.2-0.1l0.1-0.2c0.2-0.2,0.2-0.3,0.2-0.3h0
		l0,0c0,0-0.1,0-0.1,0l-1.1-0.5l-0.5-0.4c-0.1-0.4-0.1-0.9-0.3-1.3l0-0.1l-0.5-0.9c0,0,0,0,0,0l0.3-0.5l0.7-0.6l0.2,0.1
		c0.3,0.3,0.8,0.8,1.3,1.2l0.5,0.4l0.5,0.1c0.5,0.2,1.1,0.4,1.6,0.6c0.4,0.2,0.9,0.3,1.3,0.5l0.1,0.1c0.2,0.1,0.4,0.2,0.5,0.3
		c0,0,0,0,0.1,0.1l0.5,1.2c0,0.3-0.1,0.6-0.3,0.9l-0.5,0.6l0.2,0c0,0.1-0.1,0.2-0.1,0.2s0.2,0,0.6-0.1c0.2,0,0.4-0.1,0.6-0.1
		c0.1,0,0.2,0,0.3-0.1c0.1,0,0.3-0.1,0.3-0.1c0.3-0.2,0.5-0.6,0.8-0.9c0.2-0.2,0.3-0.4,0.4-0.5c0,0,0,0,0,0c0,0,0,0,0.1,0l0.6-0.1
		l0.8,0.1c0.1,0,0.1,0,0.2,0.1c0.1,0,0.1,0.1,0.2,0.1c0,0,0,0,0,0l0.8,0.4l0.2,0c0.1,0,0.2,0.1,0.2,0.1c0.3,0.1,0.6,0.2,1,0.2
		l1.2,0.3c0.3,0.1,0.5,0.2,0.7,0.4l0.5,0.9c0,0.1,0.1,0.2,0.1,0.2c0,0-2.4-0.3-3.3,0.1c-0.2,0.1-0.4,0.3-0.4,0.5
		c0,0.1,0,0.2-0.1,0.2c0,0,0,0.1,0,0.1c0,0,0,0,0,0c-0.2,0.2-0.3,0.9-0.3,0.9s0.2-0.2,0.4-0.3c0,0,0,0,0,0c0.1,0.1,0.2,0.2,0.3,0.3
		l0.1,0.1l0.2,0.1c0,0,0.1,0,0.1,0c0.2,0.1,0.3,0.1,0.4,0.2c0.4,0.1,1.1,0,1.6,0l0.5,0c-0.3,0.2-1.5,1.3-1.7,2c0,0,0,0,0,0
		c0,0,0,0,0,0l0,0.2c0,0.1,0,0.2,0,0.3c0,0.2,0,0.4,0.1,0.6c0,0,0,0.1,0.1,0.1c0.1,0.1,0.1,0.1,0.2,0.2c0.1,0.1,0.1,0.1,0.2,0.1
		l0.1,0.1l0.1,0c0.1,0.2,0.2,0.3,0.2,0.3s0-0.1,0-0.3c0.1,0,0.2,0,0.3,0l0.1,0l0.1,0c0.3-0.1,0.5-0.2,0.7-0.3
		c0.1-0.1,0.2-0.2,0.3-0.3c0.1-0.1,0.1-0.2,0.2-0.3c0,0,0.1-0.1,0.1-0.1c0.1-0.1,0.1-0.3,0.2-0.4l0.6-0.8l0.5-0.1l0,0.6
		c0,0.2,0,0.4,0,0.7c0,0.1,0,0.2,0,0.4c0,0.1,0,0.2,0.1,0.3c0,0,0,0,0,0l0,0.1l0,0c0,0,0,0.1,0.1,0.1c0.1,0.1,0.2,0.1,0.3,0.2
		c0,0,0,0,0,0l0.1,0l0.1,0c0.1,0,0.1,0,0.2,0c0.1,0,0.2,0,0.3,0.1c0.3,0.1,0.6,0.3,0.6,0.3s-0.1-0.1-0.1-0.3c0.1,0,0.1,0,0.2-0.1
		c0.1,0,0.1-0.1,0.2-0.1c0.1-0.1,0.2-0.2,0.3-0.3l0.2-0.1l0-0.2c0.1-0.2,0.1-0.6,0-0.9c0-0.2,0-0.4-0.1-0.6l0-0.4l0.4,0
		c0.1,0,0.2,0,0.4,0c0.2,0,0.4,0,0.6,0c0.1,0,0.3,0,0.4,0c0.2,0,0.4,0,0.6-0.1l0.1,0l0.1,0c0,0,0,0,0,0c0.1,0,0.2-0.1,0.2-0.1
		c0.1,0,0.2-0.1,0.2-0.2c0,0,0,0,0,0c0.1,0.2,0.3,0.5,0.3,0.5S80.2,96,80,95.6C80.1,95.6,80.1,95.6,80,95.6z M35.9,73.4
		c0.1-0.2,0.3-0.5,0.4-0.7H37l1.1-0.2h0.4c0,0,0,0,0,0l0.4,0.4c0.1,0.2,0,0.5,0,0.7c0,0.1-0.1,0.4-0.2,0.5c-0.1,0-0.1,0-0.2,0
		l-1-0.2l-1.6-0.1l-0.2,0C35.7,73.7,35.8,73.5,35.9,73.4z M37.2,75.3c0.4,0,1.1,0.2,1.5,0.2c0,0.1-0.1,0.2-0.1,0.2
		C38.5,75.9,38.2,76,38,76c-0.2,0-0.4-0.1-0.6-0.1c-0.3,0-0.7-0.1-1.1-0.1c-0.1,0-0.2,0-0.2,0c-0.1-0.1-0.2-0.3-0.2-0.3
		c0-0.1-0.1-0.2-0.1-0.3C36.3,75.2,36.8,75.2,37.2,75.3z M24.5,85.6c0,0-0.1,0-0.1,0c-0.1-0.1-0.3-0.2-0.5-0.3
		C24.1,85.3,24.3,85.4,24.5,85.6z"/>
</g>
</svg>
