<?xml version="1.0" encoding="utf-8"?>
<!-- Generator: Adobe Illustrator 21.0.0, SVG Export Plug-In . SVG Version: 6.00 Build 0)  -->
<svg version="1.1" id="Layer_1" xmlns="http://www.w3.org/2000/svg" xmlns:xlink="http://www.w3.org/1999/xlink" x="0px" y="0px"
	 viewBox="0 0 100 100" style="enable-background:new 0 0 100 100;" xml:space="preserve">
<path d="M98.5,46.4c-1-0.9-2.3-1.5-3.6-1.5s-2.7,0.6-3.6,1.5c-0.1,0.1-0.2,0.3-0.4,0.4c-0.7-8.9-4.2-17-9.7-23.4
	c0.2,0,0.4,0.1,0.6,0.1c1.3,0,2.7-0.6,3.6-1.5c0.9-1,1.5-2.3,1.5-3.6s-0.6-2.7-1.5-3.6c-1-0.9-2.3-1.5-3.6-1.5
	c-1.3,0-2.7,0.6-3.6,1.5c-0.9,1-1.5,2.3-1.5,3.6c0,0.2,0,0.4,0.1,0.6c-6.4-5.5-14.6-9.1-23.5-9.8c0.1-0.1,0.3-0.2,0.4-0.4
	c0.9-1,1.5-2.3,1.5-3.6c0-1.3-0.6-2.7-1.5-3.6C52.7,0.6,51.3,0,50,0c-1.3,0-2.7,0.6-3.6,1.5c-0.9,1-1.5,2.3-1.5,3.6
	c0,1.3,0.6,2.7,1.5,3.6c0.1,0.1,0.3,0.2,0.4,0.4c-8.9,0.7-17,4.2-23.4,9.7c0-0.2,0-0.3,0-0.5c0-1.3-0.6-2.7-1.5-3.6
	c-1-0.9-2.3-1.5-3.6-1.5s-2.7,0.6-3.6,1.5c-0.9,1-1.5,2.3-1.5,3.6s0.6,2.7,1.5,3.6c1,0.9,2.3,1.5,3.6,1.5c0.2,0,0.3,0,0.5,0
	c-5.5,6.4-9,14.5-9.7,23.4c-0.1-0.1-0.2-0.3-0.4-0.4c-1-0.9-2.3-1.5-3.6-1.5c-1.3,0-2.7,0.6-3.6,1.5C0.6,47.3,0,48.7,0,50
	c0,1.3,0.6,2.7,1.5,3.6c1,0.9,2.3,1.5,3.6,1.5c1.3,0,2.7-0.6,3.6-1.5c0.1-0.1,0.2-0.3,0.4-0.4c0.7,9,4.3,17.1,9.8,23.5
	c-0.2,0-0.4-0.1-0.6-0.1c-1.3,0-2.7,0.6-3.6,1.5c-0.9,1-1.5,2.3-1.5,3.6c0,1.3,0.6,2.7,1.5,3.6c1,0.9,2.3,1.5,3.6,1.5
	s2.7-0.6,3.6-1.5c0.9-1,1.5-2.3,1.5-3.6c0-0.2,0-0.4-0.1-0.6c6.4,5.5,14.5,9,23.4,9.7c-0.1,0.1-0.3,0.2-0.4,0.4
	c-0.9,0.9-1.5,2.3-1.5,3.6s0.6,2.7,1.5,3.6c1,0.9,2.3,1.5,3.6,1.5c1.3,0,2.7-0.6,3.6-1.5c0.9-1,1.5-2.3,1.5-3.6s-0.6-2.7-1.5-3.6
	c-0.1-0.1-0.3-0.2-0.4-0.4c9-0.7,17.1-4.3,23.5-9.8c0,0.2-0.1,0.5-0.1,0.7c0,1.3,0.6,2.7,1.5,3.6c1,0.9,2.3,1.5,3.6,1.5
	c1.3,0,2.7-0.6,3.6-1.5c0.9-1,1.5-2.3,1.5-3.6c0-1.3-0.6-2.7-1.5-3.6c-1-0.9-2.3-1.5-3.6-1.5c-0.2,0-0.5,0-0.7,0.1
	c5.5-6.4,9.1-14.6,9.8-23.5c0.1,0.1,0.2,0.3,0.4,0.4c0.9,0.9,2.3,1.5,3.6,1.5s2.7-0.6,3.6-1.5c0.9-1,1.5-2.3,1.5-3.6
	C100,48.7,99.4,47.3,98.5,46.4z M50,56.3c-3.5,0-6.3-2.8-6.3-6.3c0-3.5,2.8-6.3,6.3-6.3c3.5,0,6.3,2.8,6.3,6.3
	C56.3,53.5,53.5,56.3,50,56.3z M56.7,36.2c-0.7,0.7-1.1,1.5-1.3,2.3c-0.3-0.1-0.5-0.2-0.8-0.3c0.3-0.7,0.6-1.5,0.6-2.3
	c0-1.4-0.5-2.6-1.4-3.5c0.9-0.9,1.4-2.2,1.4-3.5c0-1.4-0.5-2.6-1.4-3.5c0.9-0.9,1.4-2.2,1.4-3.5c0-0.8-0.2-1.5-0.5-2.2
	c5,0.8,9.6,2.7,13.6,5.6c-0.6,0.2-1.1,0.6-1.5,1c-1,1-1.5,2.2-1.5,3.5c-1.3,0-2.5,0.5-3.5,1.5c-1,1-1.5,2.2-1.5,3.5
	C58.9,34.8,57.6,35.3,56.7,36.2z M46.3,25.3c-0.9,0.9-1.4,2.2-1.4,3.5c0,1.4,0.5,2.6,1.4,3.5c-0.9,0.9-1.4,2.2-1.4,3.5
	c0,0.8,0.2,1.6,0.6,2.3c-0.2,0.1-0.4,0.2-0.7,0.3c-0.2-0.8-0.6-1.6-1.3-2.2c-1-1-2.2-1.5-3.5-1.5c0-1.3-0.5-2.5-1.5-3.5
	c-1-1-2.2-1.5-3.5-1.5c0-1.3-0.5-2.5-1.5-3.5c-0.5-0.5-1-0.8-1.6-1.1c3.9-2.9,8.5-4.8,13.5-5.6c-0.3,0.7-0.5,1.4-0.5,2.2
	C44.9,23.2,45.4,24.4,46.3,25.3z M26.2,33.5c1,1,2.2,1.5,3.5,1.5c0,1.3,0.5,2.5,1.5,3.5c1,1,2.2,1.5,3.5,1.5c0,1.3,0.5,2.5,1.5,3.5
	c0.6,0.6,1.4,1.1,2.2,1.3c-0.1,0.2-0.2,0.4-0.3,0.7c-0.7-0.3-1.5-0.6-2.3-0.6c-1.4,0-2.6,0.5-3.5,1.4c-0.9-0.9-2.2-1.4-3.5-1.4
	c-1.4,0-2.6,0.5-3.5,1.4c-0.9-0.9-2.2-1.4-3.5-1.4c-0.8,0-1.5,0.2-2.2,0.5c0.8-5,2.7-9.6,5.6-13.5C25.4,32.5,25.8,33,26.2,33.5z
	 M21.8,55.1c1.4,0,2.6-0.5,3.5-1.4c0.9,0.9,2.2,1.4,3.5,1.4c1.4,0,2.6-0.5,3.5-1.4c0.9,0.9,2.2,1.4,3.5,1.4c0.8,0,1.6-0.2,2.3-0.6
	c0.1,0.2,0.2,0.4,0.3,0.6c-0.7,0.2-1.4,0.6-1.9,1.2c-1,1-1.5,2.2-1.5,3.5c-1.3,0-2.5,0.5-3.5,1.5c-1,1-1.5,2.2-1.5,3.5
	c-1.3,0-2.5,0.5-3.5,1.5c-0.6,0.6-1,1.3-1.2,2c-2.9-4-5-8.6-5.7-13.7C20.3,54.9,21,55.1,21.8,55.1z M33.8,73.6c1-1,1.5-2.2,1.5-3.5
	c1.3,0,2.5-0.5,3.5-1.5c1-1,1.5-2.2,1.5-3.5c1.3,0,2.5-0.5,3.5-1.5c0.6-0.6,1-1.3,1.2-2c0.2,0.1,0.3,0.1,0.5,0.2
	c-0.3,0.7-0.6,1.5-0.6,2.3c0,1.4,0.5,2.6,1.4,3.5c-0.9,0.9-1.4,2.2-1.4,3.5c0,1.4,0.5,2.6,1.4,3.5c-0.9,0.9-1.4,2.2-1.4,3.5
	c0,0.8,0.2,1.5,0.5,2.2c-5-0.8-9.6-2.7-13.6-5.6C32.5,74.6,33.2,74.2,33.8,73.6z M53.7,74.7c0.9-0.9,1.4-2.2,1.4-3.5
	c0-1.4-0.5-2.6-1.4-3.5c0.9-0.9,1.4-2.2,1.4-3.5c0-0.8-0.2-1.6-0.6-2.3c0.2-0.1,0.4-0.2,0.6-0.2c0.2,0.7,0.6,1.4,1.2,2
	c1,1,2.2,1.5,3.5,1.5c0,1.3,0.5,2.5,1.5,3.5c1,1,2.2,1.5,3.5,1.5c0,1.3,0.5,2.5,1.5,3.5c0.5,0.5,1.2,0.9,1.9,1.2
	c-3.9,2.9-8.6,4.9-13.6,5.6c0.3-0.7,0.5-1.4,0.5-2.2C55.1,76.8,54.6,75.6,53.7,74.7z M73.6,66.3c-1-1-2.2-1.5-3.5-1.5
	c0-1.3-0.5-2.5-1.5-3.5c-1-1-2.2-1.5-3.5-1.5c0-1.3-0.5-2.5-1.5-3.5c-0.6-0.6-1.3-1-2-1.2c0.1-0.2,0.2-0.4,0.2-0.6
	c0.7,0.3,1.5,0.6,2.3,0.6c1.4,0,2.6-0.5,3.5-1.4c0.9,0.9,2.2,1.4,3.5,1.4c1.4,0,2.6-0.5,3.5-1.4c0.9,0.9,2.2,1.4,3.5,1.4
	c0.8,0,1.5-0.2,2.2-0.5c-0.8,5-2.7,9.7-5.6,13.6C74.5,67.5,74.1,66.9,73.6,66.3z M78.2,44.9c-1.4,0-2.6,0.5-3.5,1.4
	c-0.9-0.9-2.2-1.4-3.5-1.4c-1.4,0-2.6,0.5-3.5,1.4c-0.9-0.9-2.2-1.4-3.5-1.4c-0.8,0-1.6,0.2-2.3,0.6c-0.1-0.2-0.2-0.4-0.3-0.6
	c0.9-0.2,1.7-0.6,2.3-1.3c1-1,1.5-2.2,1.5-3.5c1.3,0,2.5-0.5,3.5-1.5c1-1,1.5-2.2,1.5-3.5c1.3,0,2.5-0.5,3.5-1.5
	c0.5-0.5,0.8-1,1-1.5c2.8,3.9,4.8,8.5,5.5,13.4C79.7,45.1,79,44.9,78.2,44.9z"/>
</svg>
