<?xml version="1.0" encoding="utf-8"?>
<!-- Generator: Adobe Illustrator 21.0.0, SVG Export Plug-In . SVG Version: 6.00 Build 0)  -->
<svg version="1.1" id="Layer_1" xmlns="http://www.w3.org/2000/svg" xmlns:xlink="http://www.w3.org/1999/xlink" x="0px" y="0px"
	 viewBox="0 0 100 100" style="enable-background:new 0 0 100 100;" xml:space="preserve">
<g>
	<path d="M87.4,26.2c-0.1-3.5-1.3-5.8-3.3-6.9c-3.9-2.2-9.8,0.6-12.9,2.4c0,0,0,0,0,0c-3.3,2.1-6.9,3.1-10.9,3.2
		c-0.5-0.9-1-2.1-1.4-3.5c-0.9-2.9-1.3-6.3-1.2-9.1c0.3-6.3-0.9-8.8-1.9-9.8c-1.3-1.3-5-2.3-7.6-2.5c-0.6,0-1.1,0.1-1.4,0.5
		c-0.1,0.1-0.2,0.3-0.2,0.4c-1.9-0.4-4.6-0.8-6,0.1c-1,0.7-1.3,2.8-1.2,3.7c0,0.2,0.1,0.8,0.6,1c0.1,0.1,0.5,0.1,0.8-0.1
		C41,5.2,41.5,5,42,5.1c0.7,0.1,1.6,0.8,2.3,1.9c0.8,1.2,0.9,5-0.6,9.9c-0.9,3-2.8,6-4.1,7.9c-4,0-7.6-1.1-10.8-3.2c0,0,0,0,0,0
		c-3.2-1.8-9.1-4.5-12.9-2.4c-2.1,1.1-3.2,3.5-3.3,6.9l-2.8,66c0,0.2,0.1,0.4,0.3,0.5c0.2,0.1,0.5,0.1,0.6-0.1l20-18.2l-4.4,15.8
		c-0.7-0.2-1.2-0.4-1.7-0.5c0,0,0,0,0,0c-0.7-0.2-1.4,0-2,0.4c-1.1,0-2,0.5-2.6,1.4c-0.9,1.2-1.1,2.8-0.5,4c0.1,0.2,0.3,0.3,0.5,0.3
		c0,0,0,0,0,0c0.2,0,0.4-0.1,0.5-0.3c0.1-0.2,0.6-0.4,1-0.6c0.4-0.2,0.9-0.4,1.3-0.7c0.2,0.1,0.3,0.2,0.5,0.3c0,0,0,0,0.1,0
		c2.5,0.7,6.2,1.4,8.7,1.9c0.1,0.5,0.5,0.9,0.7,1.3c0.4,0.5,0.7,0.8,0.7,1.5c0,0.3,0.3,0.6,0.6,0.6c0.3,0,0.6-0.3,0.6-0.6
		c0-0.6,0.3-0.9,0.7-1.3c0.3-0.2,0.5-0.5,0.8-0.8c1.7,0.2,3.8,0.4,5.8,0.4c1.1,0,2.2-0.1,3.2-0.2c0.1,0,0.3,0,0.4-0.1
		c0.2,0.4,0.7,0.7,1.1,1.1c0.5,0.4,1.1,0.7,1.1,1.1c0,0.2,0.2,0.5,0.4,0.5c0.1,0,0.1,0,0.2,0c0.2,0,0.4-0.1,0.5-0.2
		c0.9-1.3,1.5-3.5,0.7-5c-0.4-0.8-1.1-1.3-2.1-1.3c-0.4-0.5-1.1-0.9-1.8-0.9c0,0,0,0-0.1,0c-0.9,0.1-1.9,0.2-2.9,0.2l0.8-3.9
		l1.2,1.2l1.9-1.4l3.1-22.3l-1.3,22.3l1.8,2.3l1.8-2.3l-1.3-22.3l3.1,22.3l1.9,1.4l1.2-1.2l0.8,3.9c-1,0-2,0-2.8-0.2c0,0,0,0-0.1,0
		c-0.7,0-1.4,0.4-1.9,0.9c-0.9,0.1-1.7,0.5-2.1,1.3c-0.8,1.5-0.2,3.7,0.7,5c0.1,0.2,0.3,0.2,0.5,0.2c0.1,0,0.1,0,0.2,0
		c0.2-0.1,0.4-0.3,0.4-0.5c0-0.4,0.5-0.8,1.1-1.1c0.4-0.3,0.9-0.6,1.1-1.1c0.1,0,0.2,0,0.4,0.1c1,0.1,2,0.2,3.2,0.2
		c2,0,4.1-0.2,5.8-0.4c0.2,0.4,0.5,0.6,0.8,0.8c0.4,0.4,0.7,0.6,0.7,1.3c0,0.3,0.3,0.6,0.6,0.6c0.3,0,0.6-0.3,0.6-0.6
		c0-0.6,0.3-1,0.7-1.5c0.3-0.3,0.6-0.7,0.7-1.3c2.5-0.5,6.2-1.2,8.7-1.9c0,0,0,0,0.1,0c0.2-0.1,0.4-0.2,0.5-0.3
		c0.4,0.3,0.8,0.5,1.3,0.7c0.4,0.2,0.9,0.4,1,0.6c0.1,0.2,0.3,0.3,0.5,0.3c0,0,0,0,0,0c0.2,0,0.4-0.1,0.5-0.3c0.6-1.2,0.4-2.8-0.5-4
		c-0.7-0.9-1.6-1.3-2.6-1.4c-0.6-0.4-1.3-0.6-2-0.4c0,0,0,0,0,0c-0.5,0.1-1,0.3-1.7,0.5L69,74l20.2,18.8c0.1,0.1,0.2,0.2,0.4,0.2
		c0.1,0,0.2,0,0.2-0.1c0.2-0.1,0.3-0.3,0.3-0.5L87.4,26.2z M59.7,26.2c-0.4-0.1-0.9-0.2-1.3-0.3c0.4,0,0.8,0,1.1,0.1
		C59.6,26.1,59.6,26.1,59.7,26.2z M40.3,26c0.4,0,0.7,0,1.1,0c-0.5,0.2-0.9,0.4-1.4,0.5C40.1,26.3,40.2,26.2,40.3,26z M44.6,25.6
		c0.9-0.2,1.7-0.3,2.6-0.6c0,0,0,0.1,0,0.1c-0.3,0.2-1.5,1.3-3,2.2L44.6,25.6z M48.6,24.6c0.5-0.1,0.9-0.3,1.4-0.4
		c0.5,0.2,1,0.3,1.5,0.5c0,0.2,0.1,0.5,0.1,0.6c-0.4,0.4-1.1,1.1-1.7,1.7l-1.6-1.6C48.4,25.1,48.5,24.9,48.6,24.6z M52.7,25.1
		c0,0,0-0.1,0-0.2c1.1,0.3,2.1,0.5,3.1,0.7c0.1,0.1,0.1,0.2,0.2,0.3c0.2,0.4,0.3,0.8,0.4,1.1C54.5,26.7,53.1,25.5,52.7,25.1z
		 M44.9,17.2c1.2-3.9,1.5-7.5,1-9.7c0,0,0,0,0,0c0.4-0.3,2,0,2,0c-2.2-3.7-4.6-4.6-5.7-4.5c-0.7,0-1.2,0.6-1.6,1.1
		c-0.1,0.1-0.2,0.1-0.4,0.2c0-0.7,0.3-2.1,0.7-2.4c0.3-0.1,0.7-0.2,1.1-0.3c1.7-0.1,2.2,0.1,3.4,1.1c1.2,1,2.2,1.5,2.9,1.4
		c0.1,0.1,0.2,0.2,0.4,0.3c0.1,0.1,0.1,0.2,0.2,0.3C49.1,5,49,5.2,49.6,5.2c0.4,0,0.6-0.7,0.8-0.9c0.3-0.2,0.9-0.4,1.3-0.4
		c0.8-0.2,1.2-0.2,1.8-0.2c0.2,0,1-0.1,1.6,0.1c0.6,0.9,1.5,3.2,1.3,8.6c-0.1,2.9,0.3,6.4,1.2,9.4c0.3,0.9,0.7,2.1,1.2,3.1
		c-0.8,0-1.5-0.1-2.3-0.2c-0.3-0.5-0.5-1.2-0.7-1.8l-0.8-3.6c-0.5-2.8-0.6-5.4-0.6-5.4c0-0.3-0.3-0.6-0.6-0.5
		c-0.3,0-0.6,0.3-0.5,0.6c0,0.3,0.4,6.7,1.9,10.6c-0.9-0.2-1.8-0.4-2.7-0.6c-0.2-2.5-0.3-7.2-0.3-10.5c0-0.3-0.3-0.6-0.6-0.6
		c-0.3,0-0.6,0.3-0.6,0.6c0,0.8,0,6.7,0.3,10.1c-0.4-0.1-0.8-0.2-1.1-0.4c-0.1,0-0.3,0-0.4,0c-0.3,0.1-0.5,0.2-0.8,0.3
		c1-4,1.3-10,1.4-10.4c0-0.3-0.2-0.6-0.5-0.6c-0.3,0-0.6,0.2-0.6,0.5c0,0.1-0.4,7-1.5,10.8c-0.8,0.2-1.6,0.4-2.3,0.6
		c1.9-3.6,2.9-10.7,2.9-11c0-0.3-0.2-0.6-0.5-0.6c-0.3,0-0.6,0.2-0.6,0.5c0,0-0.3,2.4-0.9,5l-1.5,4.8c-0.3,0.6-0.6,1.2-0.9,1.6
		c-1,0.1-1.9,0.2-2.8,0.3C42.4,22.8,44,20.1,44.9,17.2z M16.5,20.3c0.8-0.5,1.8-0.6,2.8-0.6c3.3,0,7.2,2,9,3c3.2,2,6.7,3.1,10.5,3.3
		c0,0,0.1,0,0.1,0c-0.4,0.5-0.7,0.9-0.7,0.9c-0.1,0.2-0.2,0.4-0.1,0.6c0.1,0.2,0.3,0.3,0.5,0.3c1.5,0,3.4-0.8,4.6-1.4l-0.5,1.9
		c-0.1,0.2,0,0.4,0.2,0.6c0.1,0.1,0.2,0.1,0.4,0.1c0.1,0,0.2,0,0.2-0.1c1.8-0.9,3.3-2,4-2.6l1.9,2c0.1,0.1,0.3,0.2,0.4,0.2
		c0.2,0,0.3-0.1,0.4-0.2c0.5-0.7,1.3-1.5,1.8-2c0.7,0.6,2.4,1.9,4.7,2.1c0,0,0,0,0,0c0.2,0,0.4-0.1,0.6-0.3c0.1-0.1,0.2-0.3,0-1.1
		c1.5,0.5,3.4,0.6,3.7,0.7c0.3,0,0.5-0.2,0.6-0.4s-0.1-0.5-0.3-0.7c-0.2-0.1-0.4-0.2-0.6-0.5c0.1,0,0.2,0,0.3,0
		c3.8-0.2,7.3-1.3,10.5-3.3c2.4-1.4,8.3-4.3,11.8-2.4c1.6,0.9,2.5,2.8,2.7,5.6C84.9,25,83.1,24,82.3,24L85,87.2L83.7,86l-2.7-61
		c-0.9,0.9-3.6,3.1-4.1,3.6l0,0l2.3,53.2L77.3,80L75,29.9c-0.9,0.9-2.7,2.2-3.2,2.7v0l1.8,44l-1.8-1.7L70,33.6
		C69.1,34,67.3,35,66.4,35v0l1.7,35.7l-2-6.9L65,35.4c-0.9,0-3.2,0-3.6-0.4v0l0.7,16.7c-0.1,0-0.2,0.1-0.2,0.2l-6.8,7.7l-4.3-4
		c-0.2-0.2-0.6-0.2-0.8,0l-4.8,4.4l-7.1-8.1c-0.1-0.1-0.1-0.1-0.2-0.2L38.6,35v0c-0.4,0.4-2.7,0.4-3.6,0.4l-1.1,28.3l-2,6.9L33.6,35
		v0c-0.9,0-2.7-1-3.6-1.4l-1.8,41.8L26.4,77l1.8-44.3v0c-0.5-0.5-2.3-1.8-3.2-2.7l-2.3,50.4L20.9,82l2.3-53.4l0,0
		c-0.5-0.5-3.2-2.7-4.1-3.6l-2.8,61.2L15,87.3L17.7,24c-0.8,0-2.6,1-3.9,1.9C13.9,23.1,14.9,21.2,16.5,20.3z M61.1,56.8
		c-0.3,0-0.6,0.2-0.6,0.5l-0.7,6.5l-3.8-3.5l6.1-6.9l0.1,0.5l0.5,12.7l-1.9-1.8l0.8-7.3C61.6,57.1,61.4,56.8,61.1,56.8z M57.4,67.5
		c0-0.1-0.1-0.3-0.3-0.3L55.5,65c-0.2-0.3-0.6-0.3-0.8-0.1c-0.3,0.2-0.3,0.6-0.1,0.8l1.6,2.1l-1.7,5.8l-2.1-9.4l2.8-3.1l4.4,4.1
		l-0.5,4.6L57.4,67.5z M66.7,84.4l-2.6-4.3c-0.1-0.2-0.3-0.3-0.6-0.3c-0.2,0-0.4,0.2-0.5,0.4l-1.4,4.4L59,80.5l1.1-6.1l2.6,3.5
		c0.1,0.2,0.3,0.3,0.6,0.2c0.2,0,0.4-0.2,0.4-0.4l1.2-4.3l3.8,3.9L66.7,84.4z M61.3,86.2c0.1,0.2,0.3,0.3,0.6,0.3
		c0.2,0,0.4-0.2,0.5-0.4l1.4-4.3l2.6,4.2l-1.5,4.9l-2-3.5c-0.1-0.2-0.3-0.3-0.6-0.3c-0.2,0-0.4,0.2-0.5,0.4l-1.6,4.8l-1.5,0.2
		l-1.1-5l1.1-5.4L61.3,86.2z M61.5,92.1l1-3l1.6,2.7L61.5,92.1z M56.9,84.8l-1.7-7.9l2.6,3.9L56.9,84.8z M66.4,69.9l-0.1-1.4
		l0.5,1.8L66.4,69.9z M36,91.7l1.6-2.7l1,3L36,91.7z M38.2,87.5c-0.1-0.2-0.3-0.4-0.5-0.4c-0.2,0-0.4,0.1-0.6,0.3l-2,3.5L33.7,86
		l2.6-4.2l1.4,4.3c0.1,0.2,0.3,0.4,0.5,0.4c0.2,0,0.4-0.1,0.6-0.3l2.6-4.1l1.1,5.4l-1.1,5l-1.5-0.2L38.2,87.5z M33.3,84.4l-1.9-7.1
		l3.8-3.9l1.2,4.3c0.1,0.2,0.2,0.4,0.4,0.4c0.2,0,0.4,0,0.6-0.2l2.6-3.5l1.1,6.1l-2.6,4.1l-1.4-4.4c-0.1-0.2-0.3-0.4-0.5-0.4
		c0,0,0,0-0.1,0c-0.2,0-0.4,0.1-0.5,0.3L33.3,84.4z M42.2,80.8l2.6-3.9l-1.7,7.9L42.2,80.8z M45.5,73.6l-1.7-5.8l1.6-2.1
		c0.2-0.3,0.1-0.6-0.1-0.8c-0.3-0.2-0.6-0.1-0.8,0.1l-1.6,2.2c-0.1,0.1-0.2,0.2-0.3,0.3l-1.7,2.3l-0.4-4l4.7-4.3l2.4,2.7L45.5,73.6z
		 M40.3,64.4l-0.8-7.1c0-0.3-0.3-0.5-0.6-0.5c-0.3,0-0.5,0.3-0.5,0.6l0.8,7.9L33,71l0.7-2.4l-0.1,1.8l3.7-3.6l0.5-12.9l0.1-0.5
		l6.5,7.3L40.3,64.4z M39.4,66.7l0.5,4.6c0,0.2,0.2,0.4,0.4,0.5c0.1,0,0.1,0,0.2,0c0.2,0,0.3-0.1,0.5-0.2l2-2.7l1.7,6l-2.8,4.2
		l-1.1-6.3c0-0.2-0.2-0.4-0.4-0.5c-0.2-0.1-0.5,0-0.6,0.2l-2.6,3.6l-1.1-4.1c-0.1-0.2-0.2-0.3-0.4-0.4c-0.2-0.1-0.4,0-0.6,0.2
		l-3.2,3.2l0.6-2L39.4,66.7z M30.7,79.1l1.8,6.4l-2.9,4.1c-0.2,0.3-0.1,0.6,0.1,0.8c0.3,0.2,0.6,0.1,0.8-0.1l2.4-3.3l1.3,4.4l-6.6-1
		L30.7,79.1z M23.3,93.3c0.1-0.5,0-0.8,0-1.1c-0.1-0.3-0.1-0.5,0.3-1c0-0.1,0.1-0.2,0.1-0.2c0.2-0.1,0.4-0.1,0.6,0
		c1.8,0.6,5.3,1.6,9.4,2.2c-0.9,0.3-1.6,1.2-1.6,2.2c0,0,0,0,0,0c-2.4-0.5-5.9-1.1-8.3-1.8C23.6,93.4,23.5,93.3,23.3,93.3z
		 M45.5,93.7c0.6,0,1,0.5,1.2,1c-0.1,0.1-0.2,0.2-0.3,0.3c-0.3,0.2-0.7,0.6-0.9,1.1c-0.2,0-0.3,0.1-0.5,0.1
		c-2.4,0.3-5.9,0.1-8.5-0.2c0-0.1,0-0.1,0-0.2c0-0.9-0.3-1.9-1-2.5c1.2,0.2,2.5,0.3,3.8,0.4c0.1,0,0.2,0.1,0.3,0.1
		c0.1,0,0.1,0,0.2,0c0,0,0,0,0,0C41.7,93.9,43.8,93.9,45.5,93.7z M48.2,63.2L48.2,63.2L46,60.7l4.4-4l3.9,3.6l-2.5,2.9l0,0H48.2z
		 M55.1,96.2c-0.2,0-0.4-0.1-0.5-0.1c-0.2-0.5-0.6-0.8-0.9-1.1c-0.2-0.1-0.3-0.2-0.3-0.3c0.1-0.5,0.6-1,1.2-1
		c1.7,0.2,3.7,0.2,5.7,0.1c0,0,0,0,0,0c0.1,0,0.1,0,0.2,0c0.1,0,0.2,0,0.3-0.1c1.3-0.1,2.6-0.2,3.8-0.4c-0.7,0.6-1,1.6-1,2.5
		c0,0.1,0,0.1,0,0.2C60.9,96.3,57.5,96.5,55.1,96.2z M75.7,90.9c0.2,0,0.4,0,0.6,0c0,0.1,0,0.2,0.1,0.2c0.4,0.5,0.3,0.7,0.3,1
		c0,0.3-0.1,0.6,0,1.1c-0.1,0.1-0.3,0.2-0.4,0.2c-2.4,0.7-5.9,1.4-8.3,1.8c0,0,0,0,0,0c0-0.9-0.7-1.8-1.6-2.2
		C70.4,92.5,73.9,91.5,75.7,90.9z M65.9,91.5l1.3-4.4l2.4,3.3c0.2,0.3,0.5,0.3,0.8,0.1c0.3-0.2,0.3-0.5,0.1-0.8l-2.9-4.1l1.8-6.4
		l3.2,11.3L65.9,91.5z M68.2,75.1L65,71.9c-0.1-0.1-0.4-0.2-0.6-0.2c-0.2,0.1-0.4,0.2-0.4,0.4l-1.1,4.1l-2.6-3.6
		c-0.1-0.2-0.4-0.3-0.6-0.2c-0.2,0.1-0.4,0.2-0.4,0.5l-1.1,6.3l-2.8-4.2l1.7-6l2,2.7c0.1,0.1,0.3,0.2,0.5,0.2c0.1,0,0.1,0,0.2,0
		c0.2-0.1,0.4-0.3,0.4-0.5l0.6-5.2l6.8,6.3L68.2,75.1z"/>
	<polygon points="17.7,24 17.7,24 17.7,24 	"/>
	<polygon points="82.3,24 82.3,24 82.3,24 	"/>
</g>
</svg>
