<?xml version="1.0" encoding="utf-8"?>
<!-- Generator: Adobe Illustrator 21.0.0, SVG Export Plug-In . SVG Version: 6.00 Build 0)  -->
<svg version="1.1" id="Layer_1" xmlns="http://www.w3.org/2000/svg" xmlns:xlink="http://www.w3.org/1999/xlink" x="0px" y="0px"
	 viewBox="0 0 100 100" style="enable-background:new 0 0 100 100;" xml:space="preserve">
<path d="M48.6,34.2c0.7,0.8,1.5,1.3,2.1,1.6s1,0.4,1,0.4c0,0,0.5-0.4,1.2-1.1c0.7-0.7,1.7-1.7,2.7-3c1-1.3,2-2.8,2.8-4.6
	c0.8-1.7,1.5-3.7,1.7-5.8c0.2-2.1,0.1-4.1-0.3-5.9c-0.4-1.8-1-3.5-1.6-4.9c-0.6-1.4-1.3-2.6-1.8-3.3c-0.5-0.8-0.9-1.2-0.9-1.2
	c0,0-0.5,0.7-1.3,1.9c-0.8,1.2-1.8,2.9-2.9,4.9c-1.1,2-2.2,4.2-3.1,6.4c-0.9,2.2-1.6,4.5-1.9,6.5c-0.3,2.1-0.1,3.7,0.4,5.1
	C47.2,32.4,47.9,33.4,48.6,34.2z"/>
<polygon points="0,57.5 0,57.5 0,57.5 "/>
<path d="M11.6,63.3c2.2,0.5,4.5,0.7,6.8,0.4c0,0,0,0,0,0c0,0,0,0,0,0c0,0,0,0,0,0c0,0,0,0,0,0c0,0,0,0,0.1,0c0,0,0,0,0.1,0
	c0,0,0,0,0.1,0c0,0,0,0,0.1,0c1.1-0.2,2.2-0.4,3.3-0.7c1-0.3,2-0.7,2.9-1.1c0.9-0.4,1.7-0.9,2.5-1.4c0.8-0.5,1.5-1,2.1-1.5
	c0.6-0.5,1.2-1,1.7-1.4c0.5-0.5,0.9-0.9,1.2-1.2c0.3-0.3,0.6-0.6,0.8-0.8c0.2-0.2,0.3-0.3,0.3-0.3h0c0,0-0.2-0.3-0.7-0.7
	c-0.5-0.4-1.3-0.9-2.3-1.4c-1-0.5-2.4-0.9-4-1.2c-1.6-0.2-3.6-0.3-5.9,0.1c0,0,0,0,0,0c0,0,0,0,0,0c0,0,0,0,0,0c0,0,0,0,0,0
	c-2.2,0.4-4.6,0.9-6.9,1.5C11.2,54,9,54.6,7.1,55.2c-1.9,0.6-3.6,1.2-4.8,1.6c-1.2,0.4-2,0.7-2.2,0.7c0,0,0,0,0,0h0c0,0,0,0,0,0
	c0,0,0.6,0.5,1.6,1.2c1,0.7,2.4,1.6,4.2,2.4C7.4,62,9.5,62.8,11.6,63.3z"/>
<path d="M100,43.6L100,43.6L100,43.6L100,43.6c-0.1,0-0.9,0.3-2,0.8c-1.2,0.5-2.8,1.1-4.8,1.7c-1.9,0.7-4.1,1.3-6.4,2
	c-2.3,0.6-4.7,1.2-7,1.5c-2.3,0.3-4.4,0.2-6.1,0c-1.7-0.3-3.1-0.7-4.2-1.3c-1.1-0.5-1.9-1.1-2.4-1.5c-0.5-0.4-0.8-0.7-0.8-0.8
	c0,0,0.4-0.5,1-1.2c0.7-0.7,1.6-1.7,2.9-2.7c1.3-1,2.8-2.1,4.6-3c1.8-0.9,3.9-1.6,6.2-2c0,0,0.1,0,0.1,0c0,0,0.1,0,0.1,0
	c0,0,0.1,0,0.1,0c0,0,0.1,0,0.1,0c2.3-0.3,4.6-0.1,6.8,0.4c2.2,0.5,4.2,1.4,5.9,2.3c1.7,0.9,3.2,1.8,4.2,2.6
	C99.4,43,100,43.5,100,43.6z"/>
<polygon points="100,43.6 100,43.6 100,43.6 "/>
<polygon points="66.4,46 66.4,46 66.4,46 "/>
<polygon points="9.8,37 9.8,37 9.8,37 9.8,37 9.8,37 "/>
<path d="M12.8,42.5c1,1.4,2.1,2.9,3.5,4.2c1.4,1.3,3,2.4,4.8,3.2c0.6,0.2,1.2,0.4,1.8,0.6c0.6,0.1,1.2,0.2,1.8,0.3
	c0.6,0.1,1.2,0.1,1.8,0c0.6,0,1.1-0.1,1.7-0.2c0.6-0.1,1.1-0.2,1.7-0.3c0.5-0.1,1.1-0.3,1.6-0.4c0.5-0.2,1-0.3,1.4-0.5
	c0.4-0.2,0.9-0.4,1.2-0.5c0.4-0.2,0.7-0.3,1-0.5c0.3-0.2,0.5-0.3,0.8-0.4c0.2-0.1,0.4-0.2,0.5-0.3c0.1-0.1,0.2-0.1,0.2-0.1
	c0,0,0-0.5-0.1-1.1c-0.1-0.7-0.3-1.6-0.7-2.6c-0.4-1-1.1-2.1-2.1-3c-1-1-2.4-1.8-4.3-2.3c-1.9-0.5-4-0.8-6.2-1
	c-2.2-0.2-4.4-0.3-6.4-0.3c-2,0-3.7,0-5,0c-1.3,0-2.1,0-2.1,0c0,0.1,0.3,0.7,0.8,1.7C11.1,39.8,11.9,41.1,12.8,42.5z"/>
<path d="M31.5,36.4c0.7,1.2,1.7,2.1,2.7,2.7c1,0.6,2.1,1.1,3.1,1.3c1.1,0.2,2.1,0.3,3,0.3c0.9,0,1.7-0.1,2.2-0.1
	c0.1,0,0.3,0,0.4-0.1c0.1,0,0.2,0,0.3,0c0.1,0,0.1,0,0.2,0c0,0,0.1,0,0.1,0c0,0,0.3-0.5,0.6-1.3c0.4-0.8,0.8-1.9,1.1-3.2
	c0.3-1.3,0.5-2.8,0.4-4.3s-0.5-3-1.5-4.5c-0.9-1.4-2.3-2.6-3.8-3.5c-1.5-1-3.1-1.8-4.7-2.4c-1.5-0.6-2.9-1.1-4-1.4
	c-1-0.3-1.7-0.5-1.7-0.5c0,0-0.1,0.7-0.3,1.8c-0.1,1.1-0.3,2.7-0.4,4.4c0,1.8,0,3.7,0.3,5.6C30,33.1,30.6,34.9,31.5,36.4z"/>
<path d="M78.7,23.3c1.3-0.6,2.5-1.2,3.8-1.6c1.3-0.4,2.5-0.8,3.7-1.1c1.2-0.3,2.4-0.5,3.4-0.6c0.9-0.1,1.7-0.2,2.4-0.3
	c0.7-0.1,1.4-0.1,1.9-0.1c0.5,0,1,0,1.2,0c0.3,0,0.4,0.1,0.4,0.1c0,0-0.4,0.6-1.1,1.6c-0.7,1-1.8,2.4-3.2,4c-1.3,1.6-2.9,3.3-4.8,5
	c-1.8,1.7-3.8,3.3-5.9,4.7c-1,0.7-2.1,1.2-3.1,1.7c-1,0.5-2,0.9-2.9,1.2c-0.9,0.3-1.8,0.6-2.6,0.8c-0.8,0.2-1.6,0.3-2.3,0.4
	c-0.7,0.1-1.4,0.2-2,0.2c-0.6,0-1.1,0-1.5,0c-0.4,0-0.7,0-1-0.1c-0.2,0-0.3,0-0.3,0c0,0,0.1-0.5,0.4-1.3c0.3-0.8,0.7-2,1.4-3.3
	c0.7-1.3,1.7-2.9,3-4.4c1.3-1.6,3-3.2,5.1-4.7C76.2,24.7,77.4,24,78.7,23.3z"/>
<path d="M59.6,27.4c0.5-1.7,1.4-3.7,2.8-5.8c1.4-2.2,3.1-4.3,5-6.3s3.8-3.8,5.6-5.3c1.8-1.5,3.4-2.8,4.6-3.7c1.2-0.9,1.9-1.4,2-1.4
	h0h0v0c0,0,0,0.7-0.2,1.9c-0.1,1.2-0.4,2.8-0.8,4.8c-0.4,1.9-1,4.1-1.8,6.3c-0.8,2.2-1.9,4.5-3.2,6.6c-1.4,2.1-2.9,3.8-4.5,5.3
	c-1.6,1.4-3.1,2.6-4.5,3.5C63.1,34,61.9,34.6,61,35c-0.9,0.4-1.4,0.6-1.4,0.6c0,0-0.2-0.3-0.4-1c-0.2-0.6-0.4-1.6-0.4-2.8
	C58.9,30.6,59.1,29.1,59.6,27.4z"/>
<path d="M51.3,67.1c-0.8-0.8-1.5-1.3-2.1-1.7c-0.6-0.3-1-0.5-1-0.5c0,0-0.5,0.4-1.2,1.1c-0.7,0.7-1.7,1.7-2.7,3
	c-1,1.3-2.1,2.8-2.9,4.5c-0.9,1.7-1.5,3.6-1.8,5.7c-0.3,2.1-0.1,4.1,0.3,6c0.4,1.9,1,3.6,1.7,5.1c0.7,1.5,1.4,2.7,1.9,3.5
	c0.5,0.8,0.9,1.3,0.9,1.3c0,0,0.5-0.7,1.3-1.9c0.8-1.2,1.9-2.9,3-4.8c1.1-1.9,2.2-4.1,3.1-6.3c0.9-2.2,1.6-4.5,1.9-6.6
	c0.2-2.1,0-3.8-0.4-5.2C52.7,68.9,52,67.9,51.3,67.1z"/>
<path d="M24.3,74.9c2.2-1.4,3.9-2.9,5.3-4.4c1.4-1.5,2.4-3,3.1-4.3c0.7-1.3,1.2-2.4,1.5-3.2c0.3-0.8,0.4-1.3,0.4-1.3
	c0,0-0.1,0-0.4-0.1c-0.2,0-0.6-0.1-1-0.1c-0.4,0-1,0-1.6,0c-0.6,0-1.3,0.1-2.1,0.2c-0.7,0.1-1.5,0.2-2.3,0.4
	c-0.8,0.2-1.7,0.4-2.6,0.7c-0.9,0.3-1.9,0.7-2.9,1.1c-1,0.4-2,1-3.1,1.6c-2.2,1.3-4.2,2.8-6.1,4.3c-1.9,1.6-3.6,3.1-5,4.6
	c-1.4,1.4-2.6,2.7-3.4,3.6c-0.8,0.9-1.3,1.5-1.3,1.5c0,0,0.2,0.1,0.6,0.1c0.4,0,1,0.1,1.7,0.1c0.7,0,1.6,0,2.6-0.1
	c1-0.1,2.1-0.2,3.3-0.3c1-0.1,2.1-0.3,3.2-0.6c1.1-0.2,2.2-0.5,3.3-0.9c1.1-0.4,2.2-0.8,3.3-1.3C22.2,76.2,23.3,75.6,24.3,74.9z"/>
<path d="M40.8,69.1c0-1.2-0.2-2.2-0.4-2.8c-0.2-0.7-0.4-1-0.4-1c0,0-0.5,0.2-1.4,0.6c-0.9,0.4-2.1,1-3.5,1.8c-1.4,0.8-3,1.9-4.6,3.3
	c-1.6,1.4-3.2,3-4.6,5c-1.4,2-2.6,4.1-3.5,6.3c-0.9,2.1-1.6,4.2-2,6.1c-0.5,1.8-0.8,3.4-0.9,4.6c-0.2,1.1-0.2,1.8-0.2,1.8v0h0h0
	c0.1,0,0.9-0.5,2.1-1.3c1.3-0.8,3-1.9,4.8-3.3c1.9-1.4,3.9-3.1,5.9-4.9c1.9-1.8,3.7-3.9,5.2-6c1.4-2.1,2.3-4,2.9-5.7
	C40.6,71.8,40.8,70.3,40.8,69.1z"/>
<polygon points="91.3,65.9 91.3,65.9 91.3,65.9 91.3,65.9 91.3,65.9 91.3,65.9 91.3,65.9 "/>
<path d="M90.4,63.9c0.6,1.1,0.9,1.8,0.9,1.9c-0.1-0.1-0.9-0.1-2.2-0.2c-1.3-0.1-3.1-0.1-5.2-0.3c-2.1-0.1-4.3-0.3-6.6-0.6
	c-2.3-0.3-4.5-0.7-6.4-1.3c-2-0.7-3.4-1.6-4.5-2.6c-1.1-1-1.8-2.2-2.2-3.2c-0.5-1-0.7-2-0.8-2.7c-0.1-0.7-0.1-1.2-0.1-1.2
	c0,0,0.1,0,0.2-0.1c0.1-0.1,0.3-0.2,0.5-0.3c0.2-0.1,0.4-0.2,0.7-0.4c0.3-0.1,0.6-0.3,1-0.5c0.4-0.2,0.8-0.3,1.2-0.5
	c0.4-0.2,0.9-0.3,1.4-0.5c0.5-0.2,1-0.3,1.5-0.4c0.5-0.1,1.1-0.2,1.7-0.3c0.6-0.1,1.2-0.1,1.8-0.2c0.6,0,1.2,0,1.9,0.1
	c0.6,0.1,1.3,0.2,1.9,0.3c0.6,0.2,1.3,0.4,1.9,0.6c1.9,0.8,3.6,2,5.1,3.5c1.5,1.4,2.8,3.1,3.9,4.6C89,61.4,89.8,62.8,90.4,63.9z"/>
<path d="M69.1,65.3c-0.8-1.4-1.9-2.4-3-3.1c-1.1-0.7-2.3-1.2-3.4-1.4c-1.1-0.3-2.2-0.4-3.2-0.4c-0.9,0-1.7,0.1-2.2,0.1
	c-0.1,0-0.2,0-0.2,0c-0.1,0-0.1,0-0.2,0c0,0-0.1,0-0.1,0c0,0,0,0,0,0c0,0-0.3,0.5-0.6,1.3c-0.4,0.8-0.8,1.9-1.1,3.3
	c-0.3,1.3-0.5,2.8-0.4,4.4c0.1,1.6,0.6,3.2,1.6,4.7c1,1.5,2.4,2.8,4,3.9c1.6,1.1,3.3,2.1,5,2.8c1.6,0.8,3.1,1.4,4.2,1.8
	c1.1,0.4,1.8,0.6,1.8,0.7c0,0,0.1-0.7,0.2-1.9c0.1-1.2,0.2-2.8,0.2-4.7c0-1.9-0.2-3.9-0.5-5.9C70.7,68.8,70,66.9,69.1,65.3z"/>
</svg>
