<?xml version="1.0" encoding="utf-8"?>
<!-- Generator: Adobe Illustrator 21.0.0, SVG Export Plug-In . SVG Version: 6.00 Build 0)  -->
<svg version="1.1" id="Layer_1" xmlns="http://www.w3.org/2000/svg" xmlns:xlink="http://www.w3.org/1999/xlink" x="0px" y="0px"
	 viewBox="0 0 100 100" style="enable-background:new 0 0 100 100;" xml:space="preserve">
<path d="M38.6,85c-0.1-0.3-0.2-1-0.3-1.8c0-0.3-0.2-1.1-0.3-1.8c-0.3-2.3-0.6-5.8-0.6-8c0-1.6,0.3-6,0.5-6.2c0-0.1,0.1-0.3,0.1-0.5
	c0-0.4,0.5-2.7,0.6-2.8c0,0,0.1-0.1,0.1-0.2c0-0.2,0.5-1.7,0.6-2.1c0.1-0.1,0.2-0.5,0.3-0.8c0.3-0.7,1-2.3,1.4-3
	c0.2-0.3,0.4-0.6,0.4-0.7c0,0,0-0.1,0.1-0.1c0.1,0,0.5-0.6,0.5-0.6c0,0,0.2-0.4,0.5-0.7c0.5-0.7,0.7-0.8,0.7-0.4
	c0,0.1,0,0.2,0.1,0.3c0.1,0.1,0.5,1.4,0.6,2c0,0.2,0.1,0.4,0.1,0.4c0.1,0.1,0.6,2.3,0.8,3.7c0.5,3,0.5,7,0,9.5
	c-0.1,0.3-0.1,0.7-0.2,1c-0.1,0.4-0.3,1.4-0.7,2.8c-0.2,0.7-0.9,2.5-1.1,3.1c-0.1,0.3-0.2,0.5-0.2,0.5c0,0.1-1.3,2.7-1.6,3.2
	c-0.2,0.3-0.3,0.5-0.3,0.6s0,0.1-0.1,0.1s-0.1,0.1-0.1,0.1s0,0.1-0.1,0.1c0,0-0.1,0-0.1,0.1c0,0.1-1,1.7-1.3,2.1l-0.2,0.3L38.6,85
	L38.6,85z M50.1,84.2c-0.2-0.4-0.5-0.9-0.6-1.2c-0.1-0.3-0.3-0.6-0.3-0.7c-0.1-0.2-0.5-1.3-0.8-2.1c-0.1-0.3-0.2-0.6-0.2-0.7
	c-0.1-0.3-0.5-1.6-0.7-2.6c-0.1-0.5-0.3-1.1-0.3-1.3c-0.1-0.5-0.3-1.8-0.6-3.9c-0.2-1.8-0.2-2.2-0.2-4.2c0-2,0.2-4,0.4-5.4
	c0-0.3,0.1-0.8,0.2-1.1c0.1-0.4,0.3-1.7,0.6-3c0.3-1.4,0.9-3.5,1-3.6c0,0,0.1,0,0.1,0c0,0,0.1,0.3,0.3,0.5c0.3,0.4,0.9,1.6,1.5,2.9
	c0.2,0.3,0.3,0.6,0.3,0.6c0.1,0.1,0.7,1.7,1.3,3.1c0.6,1.6,1,2.9,1.3,4.3c0.1,0.4,0.2,0.9,0.3,1.1c0.1,0.3,0.1,0.6,0.1,0.7
	s0.1,0.4,0.1,0.7c0.2,0.7,0.3,2,0.3,4.2c0,2.4-0.2,3.6-0.8,5.9c-0.1,0.4-0.7,2.3-0.9,2.6c-0.2,0.4-1.1,2.2-1.2,2.4
	c-0.2,0.3-0.8,1.3-0.8,1.3C50.5,84.9,50.3,84.6,50.1,84.2L50.1,84.2z M22,81c-0.1-0.1,0.2-2.1,0.5-3.4c0.4-1.5,1.2-3.9,1.6-4.9
	c0.1-0.2,0.2-0.5,0.3-0.8c0.3-0.8,1.9-3.9,2.4-4.6c0.1-0.1,0.2-0.4,0.4-0.6c0.1-0.2,0.5-0.9,0.9-1.4c0.4-0.6,0.7-1,0.7-1.1
	c0,0,0-0.1,0.1-0.1c0,0,0.2-0.3,0.5-0.6c0.2-0.3,0.5-0.8,0.7-1c0.2-0.3,0.5-0.7,0.6-0.9c0.2-0.2,0.5-0.6,0.8-1
	c0.3-0.3,0.6-0.8,0.8-1c0.2-0.2,0.5-0.6,0.7-0.8c0.2-0.3,0.5-0.5,0.5-0.6c0-0.1,0.2-0.2,0.3-0.4c0.7-0.9,3.7-4,3.8-3.9
	c0.2,0.2,0.3,5.2,0.2,6.9c-0.1,0.8-0.1,1-0.4,2.7c-0.3,1.8-0.7,3.2-1.3,4.5c-0.2,0.3-0.3,0.7-0.3,0.8c-0.1,0.3-1.1,2.1-1.4,2.4
	c-0.1,0.1-0.2,0.3-0.2,0.3c0,0.1-0.5,0.8-0.6,0.9c0,0-0.2,0.2-0.3,0.4c-1,1.4-3.2,3.4-4.9,4.6c-0.3,0.2-1,0.7-1.5,1
	c-0.6,0.4-1.2,0.8-1.4,0.9C25.1,79.6,23.5,80.3,22,81C22.1,81.1,22,81,22,81L22,81z M61.9,80.6c-0.3-0.3-2.3-3.4-2.9-4.4
	c-0.8-1.4-1.3-2.2-1.8-3.3c-0.7-1.5-1.3-2.7-1.3-2.8c0,0-0.1-0.3-0.2-0.5c-0.1-0.3-0.3-0.7-0.4-1c-0.1-0.3-0.3-0.8-0.4-1.2
	c-0.1-0.4-0.3-0.9-0.3-1.1c-0.1-0.2-0.2-0.8-0.3-1.2c-0.2-0.7-0.3-1.2-0.5-2.8c-0.2-1.2-0.3-3-0.2-4.3c0.1-1.1,0.4-2.9,0.6-3.8
	l0.1-0.3l0.6,0.6c1,1,2,2.1,2.8,3.3c0.9,1.3,1.3,1.8,1.3,1.9c0,0,0,0.1,0.1,0.1c0.1,0.1,1.1,1.8,1.7,3.1c0.1,0.3,0.3,0.6,0.3,0.7
	c0.1,0.1,0.3,0.7,0.4,1.2c0.2,0.5,0.4,1.2,0.4,1.4c0.2,0.6,0.4,1.6,0.5,2.2c0.1,0.3,0.1,0.8,0.2,1.1c0.3,2,0.4,5,0.1,7.2
	c-0.1,0.7-0.2,1.5-0.2,1.7c0,0.3-0.1,0.6-0.1,0.7c0,0.1-0.1,0.5-0.2,0.8c-0.1,0.3-0.1,0.6-0.2,0.7C62.1,80.7,62,80.6,61.9,80.6
	L61.9,80.6z M73.8,74.7c0,0-0.1-0.1-0.2-0.1c-0.2,0-1.4-0.5-1.9-0.8c-0.2-0.1-0.7-0.4-0.9-0.6c-1.7-1-3.7-2.8-5.2-4.9
	c-0.4-0.5-0.7-0.9-0.7-1c0-0.1-0.1-0.1-0.1-0.2c0,0-0.1-0.2-0.3-0.4c-0.1-0.2-0.3-0.4-0.3-0.4s-0.1-0.2-0.2-0.2
	c-0.1-0.2-0.8-1.3-1-1.7c0-0.1-0.3-0.7-0.6-1.3c-0.3-0.6-0.6-1.2-0.6-1.3c-0.3-0.6-0.4-1-0.4-1.1c0,0-0.1-0.3-0.2-0.6
	c-0.5-1.2-2-6.2-1.9-6.4c0-0.1,1.8,0,2.7,0.1c0.6,0.1,2.2,0.5,2.3,0.6c0,0,0.1,0.1,0.2,0.1c0.3,0,1.8,0.9,2.5,1.3c1.6,1.2,3,3,4,5
	c0.7,1.5,1.3,2.9,1.7,4.4c0.1,0.4,0.2,0.8,0.3,0.9c0.1,0.3,0.2,1,0.5,2.4c0.2,0.9,0.4,3,0.5,4.1c0,0.5,0.1,1.1,0.1,1.4
	C74,74.6,74,74.8,73.8,74.7C73.9,74.8,73.8,74.8,73.8,74.7z M7.3,71.3c-0.1-0.1,0.4-0.6,0.8-1.1c0-0.1,0.4-0.4,0.7-0.8
	c0.3-0.4,0.7-0.9,0.9-1c0.1-0.2,0.4-0.5,0.6-0.8c1.9-2.3,5.4-5.8,7.5-7.5c0.5-0.4,1-0.8,1.1-0.9c1-0.8,1.8-1.4,3.1-2.3
	c0.8-0.5,1.5-1,1.5-1c0,0,0.3-0.2,0.6-0.3c0.3-0.2,0.6-0.3,0.6-0.3s0.1,0,0.1-0.1c0,0,0.3-0.2,0.5-0.3c2.9-1.5,3.4-1.7,4.3-2
	c0.4-0.1,0.8-0.3,0.9-0.4c0.4-0.2,2-0.7,2.7-0.9c0.3-0.1,0.7-0.2,0.9-0.3c0.6-0.2,0.6-0.2,0.4,0.5c-0.2,0.8-0.8,2.2-1,2.7
	c-0.1,0.2-0.2,0.4-0.2,0.4c0,0-0.5,1.2-0.8,1.8c-0.2,0.5-0.9,1.7-1,1.7c0,0-0.1,0.2-0.2,0.3c-0.1,0.2-0.2,0.3-0.2,0.3
	c0,0-0.2,0.3-0.5,0.6c-0.8,1.2-2.3,2.9-3.6,4c-1.5,1.3-3.3,2.5-5.3,3.5c-1.3,0.6-1.6,0.8-2.4,1.1c-0.4,0.1-1.1,0.4-1.5,0.6
	c-0.4,0.2-0.9,0.3-1,0.3c-0.2,0-0.6,0.2-0.9,0.3c-1.9,0.6-4.3,1.1-7.3,1.6C7.5,71.3,7.4,71.4,7.3,71.3L7.3,71.3z M82.6,63.8
	c-0.6-0.1-1.2-0.2-1.4-0.2c-0.2,0-0.6-0.1-0.9-0.2c-0.6-0.1-2.4-0.7-3-1c-2-0.9-3-1.5-4.3-2.6c-1.3-1-2.8-2.7-3.9-4.2
	c-0.4-0.6-0.4-0.6-0.8-1.3c-0.3-0.5-1.4-2.6-1.4-2.7c0,0-0.1-0.3-0.2-0.5c-0.1-0.3-0.2-0.5-0.2-0.5c0-0.3,4.1-0.5,5.1-0.2
	c0.3,0.1,0.8,0.2,1.2,0.3c0.7,0.2,0.9,0.3,1.9,0.7c1.9,0.9,3.4,2.1,4.8,3.7c0.8,0.9,1.3,1.7,2.5,3.4c0.4,0.6,1.7,3.3,2.1,4.2
	c0.1,0.4,0.3,0.8,0.4,1l0.1,0.3l-0.5,0C83.9,64,83.2,63.9,82.6,63.8L82.6,63.8z M7.8,55.4c-0.8,0-2.1-0.1-2.7-0.1
	c-0.6,0-1.5-0.1-1.9-0.1c-0.4,0-1.1-0.1-1.6-0.2c-0.4-0.1-1-0.1-1.1-0.2C0,54.7,0,54.7,0,54.6c0.1-0.1,1.1-0.7,1.8-1.1
	c0.7-0.4,0.8-0.4,2-1.1c1.6-0.9,7.2-3.7,7.4-3.7c0.1,0,0.2-0.1,0.3-0.1c0.5-0.2,1.2-0.6,1.8-0.8c0.4-0.1,0.8-0.3,0.9-0.3
	c0.6-0.3,1.5-0.6,2.2-0.8c0.4-0.1,0.9-0.3,1.2-0.3c2.7-0.8,5.8-1.3,8.8-1.4c2.4-0.1,6.3,0.3,7.4,0.6l0.2,0.1l-0.4,0.6
	c-0.4,0.6-0.6,0.8-1.4,1.7c-2.4,2.6-5.4,4.5-9,5.8c-2,0.7-3.7,1.1-6.3,1.4C14.8,55.4,11,55.5,7.8,55.4L7.8,55.4z M80.8,51
	C80,51,79.2,50.8,78,50.5c-1.2-0.3-1.7-0.5-2.9-1.1c-1.3-0.6-1.4-0.7-2.4-1.4c-0.8-0.6-0.9-0.6-1.5-1.1c-0.7-0.6-0.7-0.6-0.3-0.7
	c0.2-0.1,0.6-0.3,1.1-0.5c1.5-0.7,3.7-1.5,4.1-1.5c0.1,0,0.2,0,0.2-0.1c0,0,0.3-0.1,0.7-0.2c3.1-0.7,6-0.8,8.3-0.3
	c2.1,0.4,2.9,0.7,4.1,1.2c1,0.4,2.2,1,2.8,1.4c1.4,0.9,1.6,1.1,1.7,1.2c0,0.1,0.1,0.1,0.2,0.1c0.1,0,0.1,0,0.1,0
	c0,0.1,0,0.1,0.1,0.1c0.1,0,0.3,0.1,0.4,0.3l0.3,0.3l-0.6,0.3c-0.3,0.1-0.7,0.3-0.8,0.3c-0.1,0-0.3,0.1-0.3,0.1c0,0-0.4,0.2-0.7,0.3
	c-0.3,0.1-0.7,0.3-0.8,0.3c-0.6,0.3-1.8,0.6-2,0.6c-0.2,0-0.2,0-0.1,0c0.1,0.1-0.4,0.3-1.3,0.4c-0.3,0-0.7,0.1-0.9,0.2
	c-0.2,0.1-0.6,0.1-0.7,0.2c-0.2,0-0.4,0.1-0.6,0.1C85,51.1,81.9,51.2,80.8,51L80.8,51z M20.7,43.8c-2.1-0.2-4.2-0.7-6.7-1.4
	c-0.6-0.2-1.1-0.3-1.2-0.4c-0.1,0-0.2-0.1-0.3-0.1c-0.1,0-0.4-0.1-0.6-0.2c-0.7-0.2-2-0.7-2.3-0.8c-0.1-0.1-0.3-0.1-0.4-0.1
	c-0.1,0-0.3-0.1-0.4-0.2c-0.2-0.1-0.5-0.2-0.6-0.2c-0.2,0-0.7-0.2-1.2-0.4c-2-0.7-3.6-1.4-4-1.5c-0.1,0-0.3-0.1-0.5-0.2l-0.3-0.1
	l0.3-0.1c0.3-0.1,0.8-0.2,1.5-0.3c0.7-0.1,1.7-0.4,2.2-0.5c0.3-0.1,0.8-0.2,1.2-0.3c0.4-0.1,1-0.2,1.4-0.3c1-0.2,2.6-0.5,3.3-0.6
	c0.3,0,0.8-0.1,1.1-0.2c1.6-0.3,3.9-0.5,5.1-0.5c2.6-0.1,5.3,0.1,6.2,0.4c0.2,0.1,0.5,0.1,0.6,0.2c0.4,0.1,1.8,0.5,1.8,0.6
	c0,0,0.1,0.1,0.1,0.1c0.1,0,1.2,0.5,1.4,0.7c0.1,0.1,0.3,0.2,0.5,0.4c0.9,0.6,1.4,1.1,2.2,1.9c0.9,0.9,1.9,2.2,1.8,2.4
	c-0.1,0.1-1,0.4-2.2,0.8c-1.5,0.4-2.1,0.6-4.4,1C25.7,43.9,21.4,43.9,20.7,43.8L20.7,43.8z M80.1,41.5c-0.9-0.1-2.1-0.3-3.1-0.5
	c-0.6-0.1-2.5-0.7-3-1l-0.5-0.2l1.1-1.1c1.3-1.3,1.5-1.5,2.3-2c0.7-0.5,2.1-1.3,2.2-1.3c0,0,0.4-0.2,0.9-0.4
	c1.4-0.6,2.1-0.9,3.6-1.2c1.8-0.4,2.4-0.4,4.1-0.4c2.8,0,4.4,0.1,8.3,0.9c0.4,0.1,0.7,0.2,0.8,0.2c0.1,0,0.4,0.1,0.6,0.2
	c0.5,0.1,2.6,0.8,2.6,0.8c0,0.2-5.7,3-6.4,3.3c-0.1,0-0.4,0.1-0.6,0.2c-1,0.5-3.1,1.2-4.7,1.6c-1,0.3-1.7,0.4-3.6,0.7
	c-0.5,0.1-3.3,0.3-3.9,0.2C80.6,41.6,80.3,41.6,80.1,41.5L80.1,41.5z M35.5,37.7c-0.6-0.1-1.4-0.2-1.7-0.2c-0.3-0.1-0.8-0.1-1.1-0.2
	c-1.5-0.2-3.8-0.9-5.7-1.7c-1-0.4-3.7-1.7-3.9-1.9c-0.1-0.1-0.4-0.2-0.7-0.4c-0.3-0.2-0.8-0.5-1.1-0.7c-0.3-0.2-0.6-0.4-0.6-0.4
	c-0.1,0-1-0.6-1.3-0.9c-0.1,0-0.4-0.3-0.8-0.6c-0.4-0.3-0.9-0.7-1.2-0.9c-0.7-0.7-2-2-2-2.1c0-0.1,0-0.1-0.1-0.2
	c-0.3-0.1,3.5,0.1,5.4,0.3c2.1,0.2,5.1,0.9,6.3,1.3c2.7,1,4.9,2.3,6.3,3.8c0.9,0.9,2,2.2,2,2.3c0,0,0.1,0.1,0.2,0.2
	c0.2,0.2,0.7,1.1,1.1,1.8c0.2,0.4,0.3,0.5,0.1,0.5C36.7,37.8,36.1,37.8,35.5,37.7L35.5,37.7z M37.1,33.3c-1.2-0.2-2.6-0.9-3.6-1.8
	c-0.2-0.2-0.5-0.4-0.5-0.4c0,0-0.1,0-0.1-0.1c0,0-0.1-0.2-0.3-0.4c-0.3-0.3-1.4-1.7-1.4-1.8c0,0-0.2-0.3-0.3-0.5
	c-0.3-0.5-1.5-2.5-1.5-2.7c0,0-0.2-0.4-0.3-0.7c-0.4-0.8-1.3-3-1.4-3.3c-0.1-0.2,0-0.2,0.2-0.1c0.1,0,0.5,0.1,0.9,0.2
	c2,0.5,4.4,1.4,6,2.4c1.7,1,3.2,2.4,4,3.7c0.4,0.7,1.1,2.1,1.3,2.7c0.3,0.9,0.5,2.4,0.4,2.5c-0.1,0.1-1.6,0.3-2.2,0.3
	C38,33.4,37.5,33.4,37.1,33.3L37.1,33.3z M75.8,33.3c0,0-0.3-0.1-0.6-0.1c-1-0.1-1.7-0.2-1.8-0.2c0,0,0.1-0.2,0.3-0.3
	c0.2-0.1,0.6-0.4,0.9-0.6c1.4-1,1.8-1.2,2.5-1.6c0.4-0.2,0.8-0.4,0.8-0.4s0.1,0,0.1-0.1s0.1-0.1,0.2-0.2c0.1-0.1,0.5-0.3,0.8-0.5
	c0.9-0.5,3.1-1.6,3.8-1.9c0.3-0.1,0.7-0.3,0.8-0.3c0.4-0.2,2.1-0.8,3.1-1.1c0.5-0.1,1.1-0.3,1.3-0.4c1.2-0.3,3.9-0.6,5.3-0.6
	c0.6,0,1.1,0.1,1.3,0.1l0.3,0.1l-1,1c-1,1-1.3,1.2-2.6,2.3c-0.7,0.6-1.7,1.3-2.6,1.7c-0.3,0.1-0.6,0.4-0.8,0.5
	c-0.5,0.3-1.5,0.8-1.6,0.8c0,0-0.2,0.1-0.3,0.1c-1.3,0.7-4.6,1.5-6.8,1.7C78.2,33.4,75.9,33.4,75.8,33.3L75.8,33.3z M45.9,30.5
	c0,0-0.3,0-0.6-0.1c-1.8-0.2-3.6-0.9-4.6-1.8c-0.5-0.5-1-1-1-1.1c0,0-0.1-0.3-0.3-0.5c-0.5-0.7-1.1-2.5-1.3-3.7
	c-0.3-2-0.6-5.2-0.5-5.4c0.1-0.1,1.7,0.3,2.6,0.6c3.2,1.1,5.2,3.1,5.9,5.9c0.4,1.7,0.6,3.8,0.3,5.6c-0.1,0.5-0.1,0.5-0.3,0.4
	C46.1,30.5,45.9,30.5,45.9,30.5L45.9,30.5z M70.7,30.1c0,0,0.1-0.2,0.2-0.2c0.1-0.1,0.2-0.2,0.2-0.2c-0.1-0.1,1-1.5,1.6-2.1
	c1.4-1.6,3.4-3.4,4.7-4.2c0.3-0.2,0.6-0.4,0.6-0.4c0.3-0.2,2.7-1.5,2.9-1.5c0,0,0.2-0.1,0.4-0.2c0.6-0.3,1.3-0.5,2.2-0.8
	c0.4-0.1,0.8-0.2,0.9-0.3c0.1-0.1,1-0.2,3.3-0.6c0.2,0,0.4,0,0.5,0c0,0,0.1,0,0.2,0c0.1-0.1,0.1-0.1,0.1,0c0,0.1-0.3,0.5-0.9,1.3
	c-0.2,0.2-0.3,0.5-0.3,0.5c0,0.1,0,0.1-0.1,0.1s-0.2,0.2-0.5,0.5c-1.3,1.6-3.5,3.7-4.9,4.6c-0.2,0.1-0.4,0.3-0.5,0.3
	c-0.3,0.2-1.3,0.8-1.9,1.1c-0.4,0.2-0.9,0.4-0.9,0.5c-0.4,0.2-1.5,0.6-2.5,0.9c-1.4,0.4-2.5,0.6-3.7,0.7
	C71,30.2,70.7,30.2,70.7,30.1L70.7,30.1z M68.1,28.4c-0.1-0.3-0.1-2.1,0.1-2.7c0.3-1.4,0.8-2.6,1.4-3.5c1-1.5,2.7-2.9,4.7-3.9
	c1.3-0.6,4-1.6,4-1.5c0,0.3-2.1,4.5-2.8,5.5c-0.3,0.4-0.6,0.9-0.7,1.1c-0.2,0.3-1.3,1.7-1.7,2.1c-0.4,0.4-1.6,1.4-1.9,1.6
	c-0.2,0.1-0.3,0.2-0.3,0.3c-0.1,0.1-1.5,0.8-2,0.9C68.1,28.6,68.1,28.6,68.1,28.4L68.1,28.4z M51.9,28.1c-0.4-0.1-1.6-0.5-2-0.7
	c-0.8-0.4-1.8-1.5-2-2.1c0-0.1-0.1-0.4-0.3-0.7c-0.2-0.6-0.3-0.8-0.4-2.5c-0.1-0.9-0.1-1.5,0-2.7c0.1-0.8,0.1-1.5,0.1-1.5
	s0.2,0.1,0.4,0.1c0.2,0.1,0.7,0.2,1.1,0.4c0.6,0.2,2,0.8,2.4,1.1c0.8,0.5,1.6,1.2,1.9,1.7c0.1,0.1,0.2,0.3,0.2,0.3s0.1,0.1,0.1,0.1
	c0,0.1,0.1,0.2,0.1,0.3c0.1,0.1,0.2,0.5,0.3,0.9c0.2,0.7,0.2,0.8,0,1.8c-0.2,1.1-0.5,1.9-0.9,2.9C52.5,28.2,52.5,28.2,51.9,28.1
	L51.9,28.1z M63.3,26.7c-0.3-0.7-0.5-1.1-0.7-2.1c-0.2-1.1-0.2-1.4,0-2.5c0.2-1.3,0.3-1.4,1-3c0.2-0.5,1.4-2.3,1.7-2.6
	c0.1-0.1,0.2-0.1,0.2-0.1c0,0,0.1,0,0.1-0.1c0-0.1,0.2-0.4,1-1.3l0.2-0.2l0.1,0.3c0,0.1,0.2,0.5,0.3,0.8c0.3,0.7,0.8,2.6,1,3.7
	c0.2,1.1,0.2,2.3,0.1,3.2c-0.1,0.9-0.7,2.1-1.3,2.7c-0.6,0.5-1.4,1.2-1.6,1.2c0,0-0.3,0.1-0.5,0.2c-0.3,0.1-0.6,0.3-0.8,0.3
	l-0.4,0.1L63.3,26.7L63.3,26.7z M57.8,26.4c-0.3-0.4-0.6-0.7-0.6-0.8c0-0.1,0-0.1-0.1-0.1c-0.1,0-0.2-0.1-0.3-0.2
	c-0.3-0.5-0.4-0.6-0.6-1C56.1,24.2,56,24,56,23.9c0,0-0.1-0.2-0.2-0.3c-0.1-0.2-0.5-1.2-0.6-1.9c-0.1-0.6-0.1-2.2,0.1-2.9
	c0.1-0.6,0.6-1.7,0.7-1.8c0,0,1.6,0.7,1.8,0.8c0,0,0.4,0.3,0.8,0.5c2.7,1.8,3.2,4.1,1.3,7c-0.3,0.4-1.3,1.8-1.4,1.8
	C58.4,27.1,58.1,26.8,57.8,26.4L57.8,26.4z M46.6,51.4c-1.8-0.2-3.2-0.5-4.5-1.2c-2.5-1.2-3.9-3.3-3.7-5.7c0.1-1.5,0.6-2.8,1.6-4.4
	c0.6-0.9,2.2-2.6,3.2-3.4c3-2.3,6.8-4,10.9-4.7c0.9-0.2,1.4-0.2,3.3-0.2c1.9,0,2.3,0,3.1,0.2c4.2,0.8,6.6,3,6.8,6.1
	c0.3,4.9-5.6,10.4-13.3,12.5C51.5,51.4,48.8,51.6,46.6,51.4z"/>
</svg>
