<?xml version="1.0" encoding="utf-8"?>
<!-- Generator: Adobe Illustrator 21.0.0, SVG Export Plug-In . SVG Version: 6.00 Build 0)  -->
<svg version="1.1" id="Layer_1" xmlns="http://www.w3.org/2000/svg" xmlns:xlink="http://www.w3.org/1999/xlink" x="0px" y="0px"
	 viewBox="0 0 100 100" style="enable-background:new 0 0 100 100;" xml:space="preserve">
<path d="M95.4,51.3l1.6,5.2l-4.3-3.2l-4.4,3.2l1.7-5l-4.4-3.2l5.3,0.1l1.7-5.2l1.6,5.1l5.5,0L95.4,51.3z M82.6,34.9l4.4-3.2l4.3,3.2
	l-1.6-5.2l4.4-3.1l-5.5,0L87,21.5l-1.7,5.2l-5.3-0.1l4.4,3.2L82.6,34.9z M71.7,6l-1.7,5.2l-5.3-0.1l4.4,3.2l-1.7,5l4.4-3.2l4.3,3.2
	l-1.6-5.2l4.4-3.1l-5.5,0L71.7,6z M50.1,0l-1.7,5.2l-5.3-0.1l4.4,3.2l-1.7,5l4.4-3.2l4.3,3.2l-1.6-5.2l4.4-3.1l-5.5,0L50.1,0z
	 M28.8,5.8L27.1,11l-5.3-0.1l4.4,3.2l-1.7,5l4.4-3.2l4.3,3.2L31.5,14l4.4-3.1l-5.5,0L28.8,5.8z M12.8,21.3l-1.7,5.2l-5.3-0.1
	l4.4,3.2l-1.7,5l4.4-3.2l4.3,3.2l-1.6-5.2l4.4-3.1l-5.5,0L12.8,21.3z M7.1,53.1l4.3,3.2l-1.6-5.2l4.4-3.1l-5.5,0l-1.6-5.1L5.3,48
	L0,48l4.4,3.2l-1.7,5L7.1,53.1z M14.4,69.9l-1.6-5.1L11.1,70l-5.3-0.1l4.4,3.2l-1.7,5l4.4-3.2l4.3,3.2L15.5,73l4.4-3.1L14.4,69.9z
	 M29.9,85.9l-1.6-5.1L26.6,86l-5.3-0.1l4.4,3.2l-1.7,5l4.4-3.2l4.3,3.2L31,89l4.4-3.1L29.9,85.9z M51.5,91.7l-1.6-5.1l-1.7,5.2
	l-5.3-0.1l4.4,3.2l-1.7,5l4.4-3.2l4.3,3.2l-1.6-5.2l4.4-3.1L51.5,91.7z M73,85.9l-1.6-5.1L69.7,86l-5.3-0.1l4.4,3.2l-1.7,5l4.4-3.2
	l4.3,3.2L74.1,89l4.4-3.1L73,85.9z M89,69.9l-1.6-5.1L85.7,70l-5.3-0.1l4.4,3.2l-1.7,5l4.4-3.2l4.3,3.2L90.1,73l4.4-3.1L89,69.9z"/>
</svg>
