<?xml version="1.0" encoding="utf-8"?>
<!-- Generator: Adobe Illustrator 21.0.0, SVG Export Plug-In . SVG Version: 6.00 Build 0)  -->
<svg version="1.1" id="Layer_1" xmlns="http://www.w3.org/2000/svg" xmlns:xlink="http://www.w3.org/1999/xlink" x="0px" y="0px"
	 viewBox="0 0 100 100" style="enable-background:new 0 0 100 100;" xml:space="preserve">
<path d="M44,95.6c-0.1,0-0.2-0.1-0.2-0.1S43.9,95.6,44,95.6 M43.6,95.1c-0.1,0-0.3,0-0.3,0S43.5,95.1,43.6,95.1 M54.8,88.3
	c0.1,0.1,0.1,0.2,0.2,0.3c0,0-0.1,0.2,0,0.2c0.1,0,0.6,0.2,0.4,0.4c-0.1,0.1-0.2-0.1-0.3-0.1c-0.1,0-0.1,0.1-0.2,0.1
	c-0.1,0-0.1-0.4-0.2-0.4c-0.1,0.1,0,0.2,0,0.2C54.5,89.4,54.4,88.8,54.8,88.3 M45.8,89.8c-0.2,0.1-1,2-0.8,2.2
	c0.1,0.1,0.4,0.1,0.3,0.2c-0.1,0.1-0.1-0.1-0.1,0c0,0,0,0.1,0,0.1c0,0.1,0.2,0.2,0.3,0.4c0,0-0.1,0-0.1,0.1
	c-0.1,0.1-0.2,0.1-0.2,0.2C45,93,45,93.2,45,93.2c0,0.1,0.1,0.2,0,0.3c0,0.1-0.1-0.2-0.4-0.2c-0.4,0-0.2,0.2-0.7-0.1
	c-0.2-0.1-0.3-0.5-0.5-0.6c-0.3-0.2-0.6,0-1-0.1c-0.1,0-0.1,0-0.2-0.1c-0.1-0.1-0.1-0.2-0.2-0.2c-0.1-0.1-0.2,0-0.2,0
	c-0.4-0.1-0.6-0.5-1-0.6c-0.2,0-0.3,0.1-0.5,0.1c0,0-0.5-0.5-0.4-0.5c0-0.1,0.1-0.1,0.1-0.2c0-0.1-0.1-0.1-0.1-0.1
	c0-0.1,0-0.2,0.1-0.2c0.1-0.1,0.2-0.1,0.2-0.2c0.1-0.1,0.2-0.3,0.2-0.2c0,0.1,0.1,0.4,0.2,0.4c0.6-0.1,0-0.5,0.8-0.5
	c0.2,0,0,0.2,0.1,0.3c0.1,0,0.2-0.1,0.3,0c0.1,0,0,0.1,0.1,0.1c0.1,0.1,0.2,0.1,0.4,0.1c0,0,0.5-0.2,0.5-0.2c0.1,0,0.4,0.1,0.7,0
	c0.4-0.1,0.4-0.3,0.7-0.4c0.5-0.3,0.1,0.1,0.7,0.1c0.4,0,0.1-0.2,0.2-0.4c0.1-0.1,0.1,0.2,0.1,0.1C45.5,89.9,45.5,89.6,45.8,89.8
	 M17.3,40.9c0.1,0.1,0.3,0.2,0.4,0.3c0,0.1-0.2,0.2-0.2,0.2c0.1-0.1,0.1-0.3,0.3-0.3c0.1,0,0,0.3,0.1,0.3c0.1,0.1,0.1-0.1,0.2-0.2
	c0.3-0.1,0.9,0,1.2,0.1c0.1,0,0.3-0.1,0.4,0c0.1,0.1-0.1,0.2-0.2,0.3c0,0.1,0,0.2,0,0.3c0,0.1-1.2,0.8-1.4,0.9
	c-0.4,0.3,0.2,0,0.3,0.1c0.1,0-0.1,0.1-0.2,0.2c-0.1,0.1-0.1,0.1-0.2,0.2c0,0,0-0.1,0-0.1c-0.1,0-0.1,0.1-0.2,0.1
	c-0.1,0.1-0.1-0.1-0.2,0c-0.1,0.3,0.2,0.4,0.3,0.3c0,0-0.1-0.1,0-0.1c0.1,0,0.2,0.1,0.3,0.1c0.2,0,0.4-0.2,0.7-0.2
	c0.1,0,0.2,0.1,0.4,0.2c0.3,0.1,1.3,0.1,1.5,0.4c0,0.1,0.1,0.2,0,0.3l-0.4,0.4c-0.1,0.1-0.1,0.2-0.1,0.2c0,0,0,0.1,0,0.1
	c-0.1,0.3-0.9,1.3-1.1,1.3c-0.4,0-0.5-0.1-0.8,0.1c-0.1,0,0.1,0.1,0.2,0c0.1,0,0.3-0.1,0.4-0.1c0.2,0,0.1,0.2,0.1,0.2
	c0.1,0.1,0.3,0.2,0.3,0.3c-0.1,0.4-0.4,0.1-0.5,0.1c-0.5,0.1,0.4,0.3-0.7,0.2c0,0,0,0.2,0,0.2c0.1,0.1,0-0.1,0.1,0
	c0.1,0,0.4,0.3,0.6,0.2c0.1-0.1,0.1-0.2,0.2-0.2c0,0,0.7,0.5,0.8,0.5c0.1,0.1,0.2,0.5,0.3,0.7c0.1,0.1,0.2,0.1,0.2,0.2
	c0,0,0,0.1,0,0.1c0,0.1,0,0.2,0,0.3c0,0.3,0.1,1.6,0.2,1.9c0,0,0.1-0.1,0.1-0.1c0.1,0,0.1,0.1,0.2,0.1c0.3,0.2,0.2,0,0.5,0.4
	c0.1,0.1,0.1,0.3,0.1,0.5c0.1,0.2,0.3,0,0.3,0.4c0,0.1-0.2,0.1-0.2,0.2c-0.1,0.3,0.3,0.7,0.3,0.9c0.1,0.3-0.2-0.2-0.2,0.2
	c0,0.1,0.6,0.8,0.3,1.1c-0.2,0.2-0.4,0-0.5,0.4c0,0.1,0.1,0,0.2,0c0.1,0.1,0.1,0.2,0.1,0.2c0.1,0.1,0.1,0.1,0.2,0.1
	c0.4-0.2,0.1-0.5,0.5-0.4c0.6,0.1,1.6,0.4,1.4,1.3c-0.1,0.3-0.5,1.1-0.8,1.2c-0.1,0-0.3-0.2-0.3-0.1c-0.2,0.3,0.7,0.2,0,0.4
	c-0.1,0-0.1,0-0.1-0.1c0,0,0,0,0,0c-0.1,0-0.4,0-0.4,0.1c-0.1,0.1,0.3,0,0.3,0.1c0.1,0.1,0,0.2,0,0.3c-0.1,0.2-0.5,0.1-0.7,0.1
	c-0.1,0-0.2,0.1-0.1,0.1c0,0,0.5-0.2,0.5,0.1c0,0.1-0.2,0-0.3,0c-0.1,0.1,0.1,0.1,0.2,0.1c0,0,0-0.1,0.1-0.1c0.1,0,0.1,0.1,0.2,0.1
	c0.2,0.2-0.5,0.1,0,0.2c0.2,0,0.5-0.2,0.8-0.1c0.1,0-0.1,0.1-0.1,0.2c0,0.1,0,0.2,0,0.4c-0.1,0.2-0.4,0.1-0.5,0.2
	c-0.1,0.1,0,0.2-0.1,0.3c-0.3,0.1-0.2-0.2-0.4-0.1c-0.2,0.1-0.4,0.1-0.6,0.2c-0.1,0-0.1,0.2-0.2,0.2c-0.2,0-0.4-0.3-0.6-0.3
	c-0.1,0-1,0.2-1.1,0c0-0.1,0.2,0,0.1-0.1c-0.1-0.1-0.1,0.1-0.1,0.1c0,0-0.1,0-0.1-0.1c0-0.1,0.1-0.1,0.1-0.1c-0.1,0-0.1,0.1-0.2,0.1
	c-0.1,0,0.1-0.1,0-0.2c-0.1-0.2-0.1,0.2-0.1,0.1c-0.2-0.1-0.4-0.4-0.4-0.4c-0.1,0.1,0.1,0.2,0.1,0.3c0,0.2-1-0.1-1,0
	c-0.1,0.1,0.1,0.2,0.1,0.3c0,0.1-0.1,0-0.2,0h0c-0.1-0.1-0.4-0.2-0.5-0.2c-0.1,0.1-0.1,0.2-0.1,0.3c0,0,0-0.1,0-0.2
	c0-0.1-0.1-0.2-0.2-0.2c-0.2-0.2-0.9-0.4-1.2-0.3c0,0-0.2,0.9-0.5,1c-0.2,0.1-0.6-0.4-0.7-0.5c-0.1-0.1,0.2,0.2-0.1,0.1
	c-0.2-0.1-0.5-0.3-0.8-0.2c-0.1,0-0.1,0.2-0.1,0.2c-0.1,0-0.2,0-0.4,0c0,0,0,0-0.1,0c0,0.1-0.2,0.5-0.3,0.5c-0.1,0-0.1-0.2-0.1-0.3
	c-0.1-0.2-0.5-0.1-0.5-0.2c0-0.1,0.7-0.2,0.7-0.2c0.1,0,0.1-0.1,0.2-0.2c0,0,0-0.1,0-0.1c0,0,0.1,0,0.1,0c0.1-0.1,0.2-0.3,0.3-0.4
	c0.1,0,0.1,0,0.2,0c0.1,0,0-0.1,0.1-0.1c0.1-0.1,0.2-0.1,0.3-0.2c0.1-0.1,0-0.5,0.2-0.5c0.1,0,0.1,0.1,0.2,0.1
	c0.4,0-0.1-0.6,0.9-0.4c0.3,0.1,0.8,0.5,1.1,0.2c0.1-0.1,0.1-0.3,0.1-0.4c0,0,0.9-0.6,1-0.7c0.1-0.1-0.5,0.2-0.5,0.3
	c-0.1,0-0.2,0.1-0.3,0.1c-0.1,0-0.1-0.1-0.1-0.1c-0.4,0.1-0.3,0.5-0.9,0.2c-0.2-0.1-0.1-0.4-0.3-0.6c-0.1-0.1-0.4,0.2-0.6,0.1
	c0,0-0.1-0.6-0.1-0.6c0,0,0,0.1-0.1,0.1c-0.1,0,0-0.1-0.4,0c-0.1,0,0,0.1-0.1,0.1c-0.1,0-0.2,0.1-0.4,0c-0.1,0-0.2-0.1-0.2-0.2
	c0.1-0.1,0.2,0,0.3-0.1c0.1,0-0.4,0-0.5-0.1c-0.1-0.1,0-0.2,0-0.4c0-0.4,0.7-0.2,0.7-0.2c0.1,0,0.1-0.2,0.2-0.2
	c0.1,0,0.2,0.1,0.3,0.1c0.3-0.1,0.9-0.5,1-0.8c0-0.1,0-0.8-0.1-0.9c-0.3-0.4-0.6,0.7-0.8,0c0-0.1,0.3-0.1,0.6-0.3
	c0-0.1,0-0.1,0.1-0.2c0-0.1,0.1-0.1,0.1-0.1c-0.1,0-0.1,0.1-0.2,0.1s0.1-0.1,0-0.1c-0.1-0.4-0.4-0.4,0.1-0.6
	c0.3,0.2,0.6,0.4,0.2,0.5c0.1,0,0.2,0.1,0.5,0c0,0-0.1-0.1,0-0.1c0.1,0,0.2,0.2,0.3,0.2c0.2,0,0.3-0.2,0.5,0
	c0.1,0.1,0.1,0.4,0.2,0.3c0.1-0.1-0.1-0.3-0.1-0.4c0-0.1,0.3,0,0.6,0.2c0.1,0.1-0.1,0-0.2,0c-0.2-0.1-0.2-0.4-0.2-0.5
	c0-0.1,0.1-0.2,0.2-0.3c0.1-0.1,0.2,0,0.2-0.1c0-0.1-0.2-0.1-0.3-0.2c-0.2-0.5,0.4-0.1,0.4-0.3c0-0.1-0.1-0.1-0.1-0.2
	c0.1-0.1,0.2-0.2,0.2-0.4c0-0.3-0.2,0.2-0.5,0.2c-0.2,0,0.1-0.3,0-0.5c0-0.1-0.1,0.1-0.2,0.1c-0.2-0.1,0-0.3-0.1-0.4l-0.2-0.4
	c0-0.2,0.6-0.8,0.6-0.8c0,0,0,0.1,0.1,0.1c0.1,0,0.3-0.1,0.4-0.2c0-0.1-0.2,0-0.3,0c-0.1,0-0.1-0.1-0.2-0.1c-0.1,0-0.2,0.2-0.3,0.2
	c-0.1,0-0.2,0-0.3,0c-0.1,0-0.2,0.1-0.2,0.2c0,0-0.1,0-0.1,0c0-0.1,0.1-0.1,0-0.2c-0.1,0,0,0.1-0.1,0.1c0,0-0.1,0-0.1,0
	c-0.1-0.1-0.1-0.4-0.3-0.4c-0.2-0.1,0.1,0.2-0.1,0.5c-0.1,0.1-0.2-0.2-0.2-0.3c-0.5-0.7,0,0.1-0.7-0.3c-0.2-0.1,0.2,0,0.2-0.1
	c0-0.4,0.1-0.4,0.3-0.7c0.5-0.5-0.3,0.1,0.2-0.4c0.1-0.1,0.2-0.1,0.2-0.1c0.1-0.1-0.3-0.5-0.3-0.6c0-0.1,0.1-0.1,0.1-0.1
	c0.1-0.1,0-0.3,0.1-0.4c0.1-0.2,0.2,0,0.4,0.1c0.6,0.3-0.3-0.2-0.3-0.2c-0.1-0.1,0-0.2,0-0.4c0-0.1,0.1-0.2,0-0.3
	c0,0-0.7,0.4-0.8,0.4c-0.1,0.1,0.1,0.4,0.1,0.6c0,0.1-0.2,0.1-0.2,0.1c0,0-0.1,0.1-0.1,0.1c0,0.1,0,0.1,0,0.2
	c-0.1,0.1-0.2,0.2-0.2,0.4c0,0,0.1,0.1,0.1,0.1c-0.1,0.1-0.3,0.1-0.4,0.1c-0.1-0.1,0.1-0.2,0.2-0.3c0.1-0.1,0.1-0.4,0.2-0.5l0.4-0.3
	c0-0.1-0.2,0-0.3-0.1c0-0.1,0.5-0.4,0.2-0.4c-0.1,0-0.2,0.2-0.2,0.2c-0.1-0.1,0.2-0.2,0.3-0.3c0.1-0.1,0-0.5,0.1-0.6
	c0-0.1,0.1-0.2,0.2-0.2c0.1,0,0.2,0.2,0.2,0.1c0-0.1-0.2-0.1-0.2-0.2c-0.1-0.2,0.6-0.4,0.6-0.4c0.1-0.1-0.2,0-0.2-0.1
	c0-0.1,0.2-0.1,0.2-0.2c0-0.1-0.1,0-0.2,0.1c-0.1,0.1-0.1,0.1-0.2,0.2c-0.2,0.1-0.4,0.3-0.6,0.2c0,0,0,0.1,0.1,0.1
	c0,0,0.1,0.1,0.1,0.1c-0.1,0.1-0.9,0.4-1,0.1c0,0,0-0.1,0-0.1c0.4-0.1,0.1,0.4,0.5-0.2c0.3-0.4-0.8-0.2,0-0.4c0,0.1,0.1,0.1,0.1,0.2
	c0,0,0.1,0.1,0.1,0.1c0-0.1-0.1-0.1-0.1-0.2c0-0.1,0.1,0,0.2,0c0.1,0,0.3,0.1,0.4,0c0.2-0.1-1-0.1-0.8-0.3c0.1-0.1,0.6,0.1,0.6,0
	c0.1-0.2-0.4-0.4,0.1-0.5c0.1,0,0.2,0.1,0.4,0.1c0.5-0.1-0.1-0.4-0.1-0.4c0.1-0.1,0.3,0,0.4-0.1c0.1-0.1,0-0.3,0-0.4
	c0-0.1,0-0.2,0-0.3c0,0-0.6-0.7-0.2-0.8c0.1-0.1,0.1,0.3,0.2,0.2c0.1,0-0.1-0.4,0.2-0.3c0.3,0.2,0.3,0.2,0.3,0.2
	c0.1-0.2-0.1-0.2-0.1-0.5c0-0.1,0.2,0.1,0.3,0c0.1-0.1-0.1-0.3-0.1-0.4c0-0.1,0.1,0.1,0.1,0.1c0.1,0.1,0.3,0.2,0.4,0.1
	c0.1-0.1-0.2-0.2-0.2-0.3c-0.1-0.3,0.2-0.1,0.2-0.1c0,0-0.1-0.1,0-0.1c0,0,0.1,0.1,0.1,0c0-0.1-0.1-0.1-0.1-0.1
	C17.2,41.1,17.3,41,17.3,40.9z M95.2,54.5c0.1,0.2,0.1,0.4,0.1,0.5c-0.1,0.9-0.3,0.1-0.4,0.3c0,0.1,0.2,0.1,0.1,0.1
	c-0.2,0.1-0.2-0.2-0.3,0c-0.1,0.2,0.4,0.2,0.5,0.4c0.1,0.3-0.4-0.1-0.4-0.1c-0.1,0.1,0,0.3-0.1,0.4c0,0.1-0.1,0-0.2,0.1
	c0,0.1,0.1,0.1,0,0.2c-0.1,0.1-0.2,0.2-0.3,0.3c-0.2,0.2-0.2-0.1-0.2,0.1c0,0.1,0.2,0.2,0.1,0.3c-0.2,0.1-0.3-0.1-0.4-0.1
	c-0.1,0-0.1,0-0.1,0c0.1,0.1,0.2,0.1,0.3,0.2c0.1,0.1,0.1,0.2,0.1,0.2c-0.1,0-0.3,0-0.4-0.1c0,0,0.1-0.1,0-0.1c-0.1,0-0.2,0-0.2,0
	c0.1,0.1,0.2,0.1,0.4,0.1c0.1,0.1,0.2,0.4,0.1,0.5c0,0.1-0.2,0-0.1,0.1c0,0.1,0.1,0,0.2,0c0,0.1-0.1,0.2,0,0.2s0.1,0.1,0.1,0.2
	c0,0-0.1,0-0.1,0.1c0,0.2,0.1,0.4,0.1,0.5c0,0.1-0.1,0.1-0.1,0.1c0,0.1,0.3,0.4,0.2,0.4c-0.1,0-0.2-0.3-0.3-0.2
	c-0.1,0.1,0.1,0.2,0.1,0.3c0,0.3-0.4,0.4-0.1,0.8c0.4,0.4,0.2,0,0.6,0c0.1,0,0.2,0.2,0.3,0.2c0.1,0,0.1-0.1,0.2-0.1
	c0.1,0,0.1,0.2,0.2,0.2c0.2,0.1,0.7,0.4,0.7,0.5c0,0.4-0.2,0.4,0.1,0.6c0,0,0.1,0,0.1,0c0-0.2-0.3-0.8-0.2-0.9
	c0-0.1,0.2-0.2,0.2-0.1c0.1,0.1,0,0.3,0,0.4c0,0.1,0.1,0.2,0.1,0.4c0.1,0.2,0,0.5,0.2,0.6c0.1,0,0.1-0.1,0.1-0.1
	c0,0.3-0.2,0.4,0.1,0.7c0.1,0.1,0.2,0.1,0.3,0.1c0.1,0,0.1,0,0.2,0c0,0,0.2,0.4,0.3,0.5c0.1,0,0.2-0.1,0.2-0.1
	c0.2,0.1,1,0.5,1.2,0.7c0.1,0.1,0.2,0.2,0.3,0.3c0.1,0,0.2-0.1,0.3-0.1c0,0,0.1,0,0.1,0v0.1c0,1-0.1,0.5-0.4,1.2
	c-0.1,0.2,0.1,0.6,0,0.7c-0.2,0.2-0.8,0.5-1.1,0.3c-0.4-0.3,0.6-0.1-0.5-0.4c-0.1,0-0.1,0.1-0.1,0.1c0,0-0.5-0.2-0.6-0.2
	c-0.1-0.1-0.1-0.2-0.2-0.2c-1,0.3,0.3,0.4-0.3,0.1c-0.1,0-0.3,0.1-0.4,0.1c-0.1,0-0.1-0.1-0.2-0.1c0,0-0.4,0.2-0.5,0.2
	c-0.1,0-0.1-0.1-0.2-0.1c-0.1,0-0.2,0-0.2,0c-0.1,0-0.2,0-0.2,0c0,0-0.1,0-0.1,0c0-0.1,0.1-0.7-0.1-0.7c-0.1,0-0.2,0-0.3,0.1
	c-0.1,0-0.1,0.2-0.2,0.2c-0.4,0-0.3-0.2-0.9-0.1c-0.1,0,0.1,0.3-0.1,0.4c-0.1,0.1-0.3-0.2-0.5-0.2c-0.5,0.2-0.4,1-1.1,1
	c-0.3,0,0-0.4-0.1-0.4c-0.4,0-0.9,0.1-1.3,0.1c-0.1,0-0.2-0.1-0.2-0.1c0,0,0-0.1-0.1-0.1c-0.3-0.1-0.6,0.2-0.6,0.2
	c-0.1,0-0.3,0-0.4,0c-1,0.2,0,0.1-0.5,0.4c0,0-0.8,0.3-0.8,0.3c-0.1,0-0.3-0.1-0.4-0.2c-0.1,0-0.5,0.2-0.5,0.2
	c-0.2,0-0.5-0.2-0.7-0.1c-0.1,0-0.1,0.1-0.2,0.2c-0.5,0.2-0.7-0.2-0.7,0.6l-0.1,0.1c-0.1,0-0.1-0.1-0.2-0.2c-0.1-0.1-0.2,0-0.3-0.1
	c-0.3-0.1-0.6-0.3-1-0.5c-0.3-0.1-1.1-0.5-1.4-0.4c-0.2,0-0.4,0.2-0.7,0.2c-0.2-0.1-0.8-0.5-0.9-0.5c-0.1,0,0.2,0.1,0.1,0.2
	c0,0-0.5,0.1-0.5,0.1c-0.3,0-0.4-0.4-0.7-0.5c-0.4-0.1-0.8,0.1-1.1-0.1c-0.3-0.2,0.8-0.3,0.5-0.5c-0.1-0.1-0.2,0.2-0.3,0.1
	c-0.1-0.1-0.1-0.2,0-0.3c0.1-0.1,0.2,0,0.3,0c0.1,0,0.2,0,0.3,0c0,0-0.1,0.1,0,0.1c0,0,0-0.1,0.1-0.1c0.1-0.1,0.2-0.1,0.3-0.1
	c0,0,0,0.1,0.1,0.1c0.1-0.1,0.1-0.2,0.1-0.2c0.1-0.1,0.3,0,0.4,0c0,0-0.1,0-0.1-0.1c0-0.1,0.1-0.1,0-0.2c0-0.1-0.4-0.3-0.5-0.4
	c-0.1-0.2,0.1,0.1,0.2,0c0,0-0.1,0-0.1-0.1c0-0.1,0.1-0.2,0.2-0.3c0.1-0.2-0.2-0.5-0.1-0.6c0.3-0.3,0.1,0,0.4,0.4c0,0.1,0-0.1,0-0.2
	c0,0-0.1-0.6,0-0.6c0.1-0.1,0.4,0.2,0.6,0c0,0,0-0.1-0.1-0.1c-0.1-0.1-0.3,0-0.5-0.1c-0.1-0.1-0.2-0.2-0.3-0.2
	c-0.5-0.1-0.4,0.2-0.8-0.2c-0.1-0.1-0.2-0.1-0.1-0.2c0-0.1,0.1,0,0.2,0c0.1,0,0.2-0.1,0.2-0.1c0.1-0.1,0.1-0.3,0.3-0.4
	c0,0,0.1,0.1,0.1,0.1c0.1,0,0.5,0.1,0.4-0.1c0-0.1-0.2,0.1-0.4,0c-0.4-0.3,0.1-0.4,0.1-0.4c0.3-0.1,0.5-0.7,0.6-0.8
	c0,0,0,0.1,0.1,0.1c0.1,0,0.2,0,0.2-0.1c0.2-0.3,0.1-0.5-0.2-0.5c-0.1,0-0.2,0-0.3,0.1c-0.3,0.1-0.1,0.1-0.1,0.3
	c-0.1,0.3-0.8,0.4-0.9,0.6C79,61,79,61.1,78.9,61.2c0,0.1-0.1-0.1-0.1-0.1c-0.2,0-0.6,0.2-0.8,0.3c-0.1,0.1-0.1,0.6-0.2,0.6
	c0,0.1-0.1-0.1-0.2-0.1c0,0-0.4,0.5-0.4,0.5c-0.1,0.1,0.1,0.4,0,0.4c-0.1,0.1-0.2-0.2-0.3-0.2c-0.4,0-0.2,0.4-0.4,0.5
	c0,0,0,0.1,0,0.1c-0.2-0.1-0.4-0.1-0.6,0.2c-0.1,0.1-0.1,0.3-0.2,0.4c0,0.1-0.1,0.1-0.2,0.2c-0.2,0.2-0.1,1.1-0.5,1.1
	c-0.1,0-0.2-0.2-0.3-0.2c0,0,0.2,0.5,0.3,0.5c0.2,0.2,1.2,1.2,1.5,1.1c0.1,0,0.2-0.1,0.3-0.2c0.1-0.1,0-0.4,0.1-0.4
	c0.1,0,0,0.1,0.1,0.1c0.1,0,0.2,0.1,0.2,0c0.1-0.1,0-0.3,0.1-0.3c0,0,0.7-0.2,0.7-0.2c0.1,0.1-0.1,0.2-0.2,0.4
	c0,0.3,0.2,0.6-0.1,0.7c-0.1,0-0.2,0-0.3,0c-0.1,0.1-0.1,0.2-0.3,0.2c-0.1,0-0.2-0.1-0.3-0.1c-0.1,0-0.2,0-0.3,0
	c-0.1,0-0.2,0.2-0.1,0.3c0,0,0.1,0,0.1,0c0,0.2-0.1,0.1-0.2,0.2c-0.1,0.1,0,0.4-0.1,0.5c-0.1,0-0.1-0.1-0.2-0.1
	c-0.1,0-0.2,0.1-0.4,0.2c-0.6,0.4-0.4,1.4-1.3,1.5c-0.2,0-0.2-0.1-0.3-0.2c-0.1-0.1-0.4,0-0.4-0.1c0-0.1,0.2-0.1,0.3-0.2
	c0,0-0.1-0.1-0.2-0.4c-0.1-0.3,0.3-0.2-0.2-0.7c-0.2-0.2-0.3,0-0.5,0c-0.1,0.1-0.5-0.3-0.6-0.3c-0.4,0-0.3,0.3-0.7,0.1
	c-0.2-0.1,0.4-0.5,0.4-0.5c0,0-0.1,0-0.1-0.1c0-0.1,0.1-0.1,0.1-0.1c0,0,0.4-0.3,0.4-0.3c0,0-0.1-0.1-0.1-0.1c0.1,0,0.1,0.1,0.2,0
	c0.1-0.1,0.7-0.6,0.7-0.7c0-0.1-0.2,0.1-0.2,0.1c-0.2-0.2,0.1-0.7-0.2-0.5c-0.1,0.1-0.1,0.2-0.2,0.3c-0.1,0.1-0.3-0.2-0.4-0.3
	c-0.1,0,0,0.2-0.1,0.2c0,0-0.1-0.1-0.1,0c0,0,0,0.1,0,0.1c-0.1,0.1-0.3,0-0.4,0.1c-0.1,0.1-0.2,0.2-0.3,0.3c-0.1,0.1-0.3,0-0.4,0
	c-0.1,0,0-0.1-0.1-0.2c-0.1,0-0.7,0.1-0.8,0.1c-0.1-0.1,0.3-0.2,0.3-0.4c0-0.1-0.2,0-0.2,0c-0.1,0-0.2-0.1-0.4,0c-0.1,0,0,0.2,0,0.2
	c-0.1,0-0.2-0.2-0.4-0.2c-0.1-0.1,0.4-0.1,0.4-0.1c0.3,0,0.6-0.1,0.9-0.1c0.2,0,0-0.2,0.1-0.3c0.1-0.1,0.3-0.2,0.2-0.2
	c-0.5,0.4-1.1,0.7-1.2-0.3c0-0.1-0.1,0-0.2,0c0,0,0.1-0.1,0.1-0.1c-0.1,0-0.1,0.1-0.2,0c-0.1,0,0-0.1,0-0.2
	c-0.1-0.1-0.2-0.2-0.3-0.3c0,0,0,0.1,0,0.1c0.1,0.1,0.2,0.1,0.3,0.2c0.5,0.5,0.1,0.4,0.2,0.6c0,0,0.3,0.4,0.1,0.4
	c-0.1,0-0.2,0-0.3,0c-0.1,0-0.2,0.2-0.2,0.1c-0.1-0.1-0.1-0.4-0.2-0.4c-0.1,0.1,0.1,0.3,0.1,0.4c0,0.2-0.5-0.1-0.9,0.4
	c-0.1,0.2,0.2,0.2,0.1,0.4c0,0.1-0.1,0.1-0.2,0.1c0,0.1,0.1,0.1,0.1,0.2c-0.1,0.4-0.3,0.7-0.4,1.1c0,0.1-0.1,0.1-0.2,0.2
	c-0.1,0-0.2,0-0.3,0c-0.1,0,0.1,0.2,0,0.2c0,0-0.1-0.1-0.1-0.1c0,0.2,0.4,0.3-0.2,0.5c-0.2,0.1-0.1-0.4-0.3-0.4
	c-0.1,0,0.1,0.1,0.1,0.2c0,0.2,0,0.4,0.1,0.6c0.1,0.2,0.1-0.1,0.2-0.1c0,0,0,0.1,0,0.1c0,0,0-0.1,0-0.1c0.2,0.1,0.1,0.5,0,0.6
	c0,0-0.1,0-0.1,0c0,0.1,0,0.1,0.1,0.1c0,0,0.1-0.1,0.1,0c0,0.1,0.1,0.7,0.1,0.7c0,0.2-0.5,0.2-0.7,0.4c-0.1,0.1-0.1,0.3-0.2,0.3
	c0,0,0.1-0.6-0.1-0.7c-0.1,0-0.2,0.1-0.2,0.2c-0.1,0.1,0.2,0.2,0.2,0.4c0,0.1-0.3,0.2-0.2,0.3c0.1,0.1,0.2-0.2,0.3-0.2
	c0,0,0,0.1-0.1,0.1c-0.1,0.1-0.5,0.3-0.2,0.5c0,0,0-0.1,0.1-0.1c0.1-0.1,0.1-0.4,0.2-0.3c0.1,0.1-0.3,0.8-0.3,0.8
	c0,0.2,0.5,2.1,0.2,2.2c-0.1,0-0.2-0.1-0.2-0.1c-0.7,0.2-0.2,0.2-0.4,0.5c0,0.1-0.1,0.1-0.2,0.1c0,0,0.1,0,0.1,0.1
	c0,0.3,0,0.5,0.1,0.7c0,0.1,0.1,0.2,0.1,0.3c-0.1,0.1-0.2,0-0.3,0.1c0,0,0.1,0,0.1,0.1c0,0.1-0.1,0.1-0.1,0.2c0,0.1,0.1,0.1,0.1,0.1
	c-0.1,0.1-0.2,0.1-0.3,0.2c-0.3,0.4,0.5-0.2,0.7,0.3c0,0,0,0.1,0,0.1c0,0,0.4,0.2,0.5,0.3c0.4,0.4-0.2,0.6,0.6,1.1
	c0.5,0.3,1.3,0.1,1.7,0.3c0.1,0-0.1,0.2-0.1,0.2c0,0.1,0,0.2,0,0.4c-0.1,0.1-0.5,0.2-0.6,0.2c-0.1,0-0.2-0.3-0.2-0.2
	c0.1,0.4-0.1,0-0.5,0.1c-0.1,0-0.2,0.1-0.4,0.2c-0.1,0.1,0,0.2-0.1,0.2c-0.4,0.1-0.5-0.2-0.8,0.2c-0.1,0.1,0,0.2,0,0.3
	c-0.1,0.1-0.1,0.3-0.2,0.4c-0.2,0.4-0.7,0.5-0.9,0.8c-0.3,0.4-0.4,0.8-0.7,1.1c-0.1,0.1,0-0.2,0.1-0.3c0-0.1,0-0.1,0-0.2
	c0-0.1-0.1-0.1-0.1-0.1c0-0.3,0.9-0.6,0.9-0.9c0.1-0.4-1,0.4-1.2,0.3c-0.7-0.2,0.1-0.2-0.2-0.5c-0.1-0.1-0.7,0.1-0.9,0.1
	c-0.6,0-0.6-0.4-1,0.1c-0.1,0.1-0.2,0.2-0.3,0.3c-0.5,0.3-0.2-0.4-0.7-0.1c-0.2,0.1-0.1,0.4-0.4,0.6c-0.3,0.1-0.4-0.3-0.7,0.1
	c-0.1,0.2,0.1,0.1,0.1,0.2c0.2,0.1,0.1,0.4,0.3,0.5c0,0,0.1,0,0.2,0c0,0,0,0,0.1-0.1c0,0-0.1-0.1,0-0.1c0.1,0,0.1,0.1,0.1,0.2
	c0.2,0.1,0.6,0.1,0.7,0.4c0.1,0.5-0.5-0.2-0.5-0.2c-0.2-0.1-0.8-0.2-0.8,0.2c-0.1,0.2,0.4,0.1,0.5,0.3c0.1,0.1,0.1,0.5,0,0.4
	c-0.3-0.1-0.3-0.4-0.6-0.6c-0.1,0-0.1,0-0.2,0c-0.1,0-0.2-0.1-0.2,0c-0.4,0.4,0.8,0.6,0.7,0.7c0,0.1-0.5,0-0.6,0
	c-0.1,0-0.2-0.6-0.2-0.6c-0.1-0.2-0.6-0.1-0.8-0.2c-0.4-0.3,0-0.2,0-0.6c0-0.1-0.2,0.1-0.3,0.2c-0.1,0.1-0.2,0.2-0.2,0.3
	c0,0.1,0.2,0.1,0.2,0.2l-0.1,0.5c0.1,0.3,0.5,0.5,0.7,0.7l0.2,0.5c0.1,0.1,1,0.6,0.9,0.8c0,0.1-0.7-0.3-0.8-0.3c-0.1,0,0,0.1,0,0.2
	c0,0.1-0.2,0.4-0.1,0.4c0,0,0-0.1,0.1-0.1c0.1,0,0,0.1,0.1,0.1c0.1,0.1,0.5,0.1,0.2,0.4c-0.2,0.2-0.5,0.2-0.8,0.4
	c-0.1,0,0.1,0.1,0.2,0.1c0.1,0,0.1-0.1,0.2-0.1s0.1,0.1,0.1,0.1c0,0,0.1,0,0.1,0c0.1,0,0.3,0,0.4,0c0.1,0,0.1,0.2,0.2,0.2
	c0.1,0,0.2-0.2,0.4-0.1c0.1,0.1,0,0.3,0.1,0.3c0.1,0.1,0.3-0.2,0.4-0.1c0.1,0,0,0.3,0.3,0.3c0.4,0,0.5-0.1,0.7,0.2
	c0.2,0.2-0.1,0.1-0.1,0.2c0,0.1,0.1,0.1,0.1,0.2c0,0.1,0,0.2,0,0.3c0.1,0.2,0.3,0.2,0.1,0.5c0,0.1-0.1,0-0.2,0c0,0,0-0.1,0-0.1
	c0,0-0.2-0.2-0.2-0.2c0,0-0.1,0.1-0.1,0.1c-0.1-0.1-0.3-0.4-0.5-0.5c-0.2-0.1-0.1,0.2-0.2,0.2c-0.2,0.1-0.8,0.2-0.8,0.3
	c0.1,0.1,0.3,0.1,0.4,0.1c0.1,0-0.1,0.1-0.1,0.1s0.1,0.1,0.1,0.1c0,0.1,0,0.2,0,0.2c0.2,0.2,0.5,0.1,0.7,0.3
	c0.1,0.1-0.3,0.2-0.4,0.2c-0.2,0-0.4,0-0.5,0c-0.1,0,0-0.1-0.1-0.2c0,0-0.1,0-0.1,0c-0.1,0-0.3-0.1-0.4,0c-0.1,0.2,0.4,0.6,0.5,0.8
	c0,0.1,0,0.1,0,0.2c0,0.1,0.1,0,0.2,0.1c0.1,0.1,0.3,0.5,0.4,0.7c0.1,0.2-0.1,0.1-0.1,0.1s0.1,0.1,0.1,0.1c0,0-0.1,0.1-0.1,0.1
	c0,0,0.4,0.3,0.4,0.4c0,0.1-0.2,0.1-0.2,0c-0.1,0,0-0.1-0.1-0.2c0,0-0.1,0.1-0.2,0c-0.3-0.2-0.4-0.9-0.9-0.3c0,0,0,0.4,0.1,0.6
	c0,0.1,0,0.2,0,0.2c-0.4-0.1-0.2-0.5-0.3-0.7c0,0-0.1,0-0.1,0c-0.1-0.1-0.2-0.2-0.2-0.4c-0.1-0.1-0.1-0.2-0.2-0.3
	c-0.9-0.2-0.1,0.6-0.4,0.8c-0.5,0.2-0.4-0.4-0.4-0.5c0,0-0.1,0-0.1,0c-0.2,0-0.2-0.2-0.3-0.4c0-0.3,0.2,0,0.2-0.4
	c0-0.3-0.4-0.6-0.7-0.7c-0.1,0-0.1,0.1-0.1,0.1c-0.1-0.1,0-0.2-0.1-0.3c-0.1-0.1-0.6,0-0.3-0.3c0,0,0.1,0,0.1,0
	c0.3-0.2,0.1-0.4,0.2-0.7c0,0,0,0.1,0.1,0.1c0,0,0-0.1,0-0.1c0.2,0,0.4,0.2,0.5,0c0.2-0.2-0.1-0.2,0.3-0.4c0.2-0.2,0.4,0.1,0.6,0.2
	c0.3,0.1,0.6,0.1,0.9,0.2c0.2,0,0.3,0.2,0.5,0.3c0.1,0,0.2-0.1,0.2-0.2c0-0.1-0.2,0-0.3-0.1c-0.2-0.4,0.4,0.2,0.7-0.4
	c0-0.1-0.1,0-0.2,0c0,0,0-0.1,0-0.1s-0.1,0.2-0.1,0.1c-0.1-0.2-0.2,0.1-0.5,0c-0.1-0.1-0.2-0.3-0.3-0.3c-0.1,0,0,0.3-0.1,0.3
	c-0.3,0-0.1-0.7-0.3-0.3c0,0.1,0.1,0.2,0,0.3c-0.1,0.1-0.7-0.1-0.8-0.1c-0.2,0.1-0.4,0.3-0.7,0.4c-0.2,0.1-0.2-0.2-0.4-0.3
	c-0.1,0,0,0.1,0,0.2c-0.1,0.1-0.2,0.2-0.3,0.2c0,0,0-0.1,0-0.1c-0.2-0.1,0-0.2-0.1-0.4c-0.1-0.1-0.2-0.2-0.3-0.3c0,0-0.1,0.1-0.1,0
	c-0.1-0.1-0.1-0.2-0.1-0.3c-0.2-0.1-0.5,0.4-0.2-0.3c0,0,0.6,0.1,0.7-0.2c0.2-0.4-0.3,0-0.3,0c-0.1-0.1-0.2-0.3-0.3-0.2
	c-0.1,0,0.3,0.7-0.2,0.3c-0.1-0.1,0-0.1-0.1-0.2c-0.2-0.2-0.7-0.5-0.9-0.7c-0.1,0,0-0.2,0-0.3c-0.1-0.1-0.4,0.2-0.5-0.4
	c0,0,0-0.1,0-0.1c0-0.1,0.1-0.2,0-0.3c0-0.1-0.1,0-0.2-0.1c-0.1-0.1-0.1-0.2-0.1-0.3c-0.1-0.2-1.3-0.5-1.1-0.7
	c0.1-0.1,0.3,0,0.4-0.1c0,0-0.3-0.3-0.4-0.5c0-0.1,0.1-0.1,0.1-0.1c0-0.1,0-0.2,0-0.2c0-0.1-0.1-0.2,0-0.2c0-0.1,0.2,0,0.2-0.1
	c0-0.1,0-0.2-0.1-0.2c-0.1,0,0,0.2-0.1,0.2c-0.1,0.1,0-0.6,0-0.8c0-0.2-0.3-0.1-0.3-0.3c0-0.2,0-0.3,0.1-0.4c0.1-0.1,0.2,0,0.3-0.1
	c0,0-0.1-0.1-0.1-0.1c0-0.1,0.1-0.3,0-0.4c-0.1-0.1-0.3,0-0.4,0c-0.1,0-0.3-0.1-0.4-0.2c-0.1-0.1,0-0.2-0.1-0.2
	c-0.1-0.2-0.3-0.2-0.4-0.3c0-0.1,0-0.1-0.1-0.2c-0.2-0.1-0.3,0.4-0.5-0.2c0-0.1,0.1-0.2,0.2-0.2c0-0.1-0.1,0.1-0.1,0.1
	c-0.2,0-0.5-0.1-0.7-0.2c-0.9-0.7-0.8-0.2-1.4-0.5c0,0,0-0.1-0.1-0.1c-0.1-0.1-0.2-0.1-0.4-0.1c-0.1,0-0.2,0-0.4,0c0,0,0-0.1,0-0.1
	c0,0,0.1,0.1,0.1,0.1c0.1,0,0.3,0,0.4,0c0.3,0,0.5,0.3,0.8,0.3c0,0,0-0.1,0-0.1c-0.1-0.1-0.2-0.1-0.3-0.1c0,0,0.1,0,0.1,0
	c0,0,0,0,0,0c-0.2-0.1-0.1-0.1-0.2-0.2c0,0-0.1,0-0.1,0c0,0,0,0,0,0c-0.1-0.1-0.2-0.1-0.5-0.2c-0.2-0.1-0.3-0.4-0.5-0.5
	c-0.1-0.1-0.3,0-0.4,0c-0.4-0.2-0.2-0.3-0.5-0.2c0,0-0.6,0.2-0.6,0.2c-0.1-0.1,0-0.3,0-0.4c0-0.1-0.5-0.2-0.6-0.3c0,0,0.1,0.1,0.1,0
	c-0.1-0.2-0.9-0.6-1-0.8c-0.1-0.7,0.4-0.2,0.6-0.2c0.1-0.1-0.3-0.1-0.4-0.2c-0.1-0.1-0.4-0.4-0.5-0.5c-0.4-0.4,0-0.9-0.3-1.2
	c-0.1-0.1-0.2,0-0.2-0.1c-0.3-0.3-0.1-0.5-0.7-0.4c-0.2,0,0,0.5-0.2,0.5c0,0,0-0.1,0,0c0,0,0,0.1,0,0.1c0,0.1,0,0.2,0,0.3
	c-0.2,0.3-0.1-0.1-0.2-0.1c0,0,0,0.1,0,0.1c0,0,0.1,0,0.1,0c0,0.1,0,0.1,0,0.2c-0.1,0.1-0.1,0.3-0.2,0.4c-0.1,0.1-0.1-0.4-0.2-0.5
	c-0.1-0.1-0.4-0.3-0.3-0.4c0.1-0.1,0.3,0,0.2,0c-0.1,0-0.2,0.1-0.2,0c-0.1-0.1,0-0.2-0.1-0.4c0,0,0,0,0,0c-0.1-0.1-0.2-0.2-0.2-0.4
	c0-0.1,0.1,0,0.2,0c0.2-0.2,0.4-0.3,0.2-0.5c-0.4-0.3-0.3-0.2-0.5,0.1c0,0,0.1-0.1,0.1-0.1c0-0.2-0.3-0.2-0.5-0.1
	c-0.1,0.1,0,0.2-0.1,0.3c-0.1,0.1-0.2,0-0.3,0.1c-0.2,0.1-0.5,0.4-0.8,0.4c-0.1,0-0.2-0.1-0.2,0c-0.1,0,0,0.1,0,0.2
	c0,0.1-0.1,0.1-0.1,0.2c0,0,0-0.1,0.1-0.1c0.1,0,0,0.2,0.1,0.2c0,0,0.1-0.1,0.1-0.1c0,0.1,0.1,0.2,0,0.3c0,0-0.1,0.1,0,0.1
	c0,0,0.1,0,0.1,0c0.1,0.1,0.3,0.1,0.3,0.3c0.1,0.5-0.3,0.3-0.4,0.6c0,0.1,0.2,1,0.2,1.2c0.1,0.2,1.3,1.1,1.6,1.2
	c0.2,0.1,0.3,0.1,0.5,0.2c0.2,0.2,0.6,1.6,0.8,2c0.2,0.4,0.6,0.7,0.9,1c0.1,0.1,0.3,0.1,0.4,0.2c0.1,0,0,0.1,0,0.2
	c0.5,0.5,1.4,0.3,2,0.2c0.1,0,0.4-0.2,0.5,0c0.4,0.5-0.9,0.7-0.2,1.1c0.6,0.4,1.5,0.4,2.2,0.7c0.2,0.1,0.3,0.3,0.6,0.4
	c0.2,0.1,0.8,0.2,1,0.3c0.1,0.1,0,0.2,0.1,0.2c0.2,0.3,0.8,0.2,1,0.9c0.1,0.2-0.1,0.2-0.1,0.3c0,0.1,0,0.4-0.1,0.5
	c-0.1,0.1-0.2,0-0.3-0.1c-0.5-0.2-0.3-0.5-0.6-0.9c-0.2-0.2-0.7,0-0.9-0.1c-0.4-0.1-0.5-0.5-0.9-0.2c0,0.1-0.5,0.9-0.5,1
	c0,0.1,0.1,0.1,0.1,0.2c-0.1,0.3-0.4,0.3-0.1,0.7c0.2,0.2,0.2,0,0.4,0.1c0.2,0.1,0.4,0.3,0.5,0.4c0.1,0,0.2,0,0.2,0.1
	c0,0.1-0.1,0.1-0.1,0.2c0,0.5,0.2,0,0.2,0.7c0,0.4-0.7,0.2-1,0.6c-0.2,0.3,0.1,0.5,0,0.9c-0.1,0.3-0.2,0.2-0.4,0.3
	c-0.4,0.4-0.1,1.2-1,1c-0.2-0.1-0.4-0.5-0.3-0.7c0.1-0.1,0.2-0.1,0.3-0.2c0.1-0.1,0.1-0.2,0.1-0.3c0-0.1,0.1-0.2,0.1-0.2
	c0-0.1-0.2-0.2-0.2-0.3c0.1-0.3,0.5-0.1,0.6-0.3c0.3-0.4-0.1-0.4-0.2-0.6c-0.1-0.2-0.1-0.5-0.2-0.7c-0.1-0.1-0.1-0.3-0.2-0.4
	c0,0-0.1,0-0.1-0.1c-0.3-0.5,0-0.2-0.2-0.7c-0.3-0.7-0.4-0.3-1-0.3c0,0,0-0.1,0-0.1c-0.1-0.1-0.2-0.2-0.3-0.2s-0.3,0-0.4-0.1
	c-0.1-0.1,0.1-0.2,0.1-0.4c0-0.1-0.1-0.3-0.2-0.4c-0.4-0.6-0.5,0.2-1,0.1c-0.1,0,0.3-0.3,0.2-0.4c-0.6-0.5,0,0-0.7-0.1
	c-0.1,0,0-0.1,0-0.2c-0.1-0.2-0.4-0.8-0.6-0.9c-0.5-0.2-0.1,0.2-0.3,0.1c-0.2,0-0.3-0.2-0.5-0.2c-0.2,0-0.3,0.2-0.4,0.2
	c-0.2,0-0.1-0.3-0.2-0.4c-0.1-0.1-0.4-0.1-0.5-0.1l-0.3-0.4c-0.1-0.1-0.3-0.1-0.4-0.2c-0.2-0.3,0-0.3-0.2-0.5
	c-0.1-0.1-0.2-0.2-0.4-0.2c0,0-0.1,0-0.1,0c-0.2-0.2-0.2-0.5-0.4-0.6c-0.3-0.3-0.5-0.1-0.9-0.2c-0.1,0,0.1-0.1,0.1-0.1
	c0.1-0.1-0.1-0.4-0.2-0.4c0,0-0.1,0-0.1,0C37,80,37,79.9,37,79.8c-0.1-0.1-0.3,0-0.3-0.1c-0.1-0.1,0.1-0.2,0-0.3
	c-0.1-0.1-0.3,0-0.4,0c-0.1,0,0.1-0.2,0.1-0.3c0.1-0.4,0-0.5-0.2-0.8c-0.4-0.5-0.1-1-0.5-1.4c0-0.1-0.1-0.1-0.2-0.1c0,0,0,0.1-0.1,0
	c-0.1,0-0.1-0.1-0.2-0.1c-0.1,0,0.1,0.2,0,0.1c-0.1,0-0.2-0.1-0.4-0.2c-0.1,0-0.5-0.5-0.6-0.5c0,0,0,0.1,0,0.1s-0.1,0-0.1,0
	c-0.1-0.1-0.5-0.3-0.6-0.3c-0.1,0-0.5,0.3-0.6,0.3c0,0.1,0,0.2,0,0.2c-0.1,0.1-0.2,0.1-0.2,0.1c-0.1,0.1-0.2,0.4-0.4,0.5
	c-0.2,0.2-0.6,0.2-0.9,0.2c0,0-0.3,0.1-0.4,0.1c0,0,0,0.1,0,0.1c0,0,0-0.1,0-0.1c-0.1,0-0.2,0-0.3,0.1c-0.1,0.1,0,0.2,0,0.2
	c-0.1,0.1-0.2,0-0.3,0c-0.1,0.1-0.1,0.2-0.1,0.3c-0.1,0-0.2-0.1-0.2,0c-0.1,0,0,0.1-0.1,0.2c-0.1,0.1-0.2,0.1-0.2,0.2
	c0,0.1,0.1,0.2,0.1,0.2c-0.1,0.1-0.3,0-0.4,0c-0.2,0-0.3,0.2-0.4,0.2c-0.2,0.1,0-0.2-0.4-0.2c-0.2,0,0,0.1,0,0.1c0,0-0.1,0-0.2,0
	c-0.1,0-0.1,0-0.1,0c0,0,0.1-0.1-0.1-0.2c-0.1,0-0.1,0-0.2,0c-0.1,0-0.3,0-0.4-0.1c-0.1-0.1,0-0.3-0.1-0.4c0-0.1-0.1,0.1-0.2,0.1
	c-0.1,0-0.3,0-0.3-0.1c0-0.1,0.3-0.1,0.4-0.2c0-0.1-0.2-0.2-0.3-0.2c-0.1,0,0.1,0.2,0,0.3c-0.1,0.1-0.2,0.1-0.4,0.1
	c-0.3,0-0.2-0.5-0.2-0.4c-0.2,0.3,0.3,0.4,0.1,0.5c-0.6,0.2-0.3-0.1-0.3-0.2c0-0.1-0.6-0.1-0.7-0.2c-0.1-0.1-0.3-0.3-0.5-0.2
	c-0.2,0.1-0.5,0.5-0.7,0.6c-0.2,0.1-0.5,0-0.7,0.3c0,0,0.1,0.1,0.1,0.2c0,0.2-0.3,0.3-0.3,0.5c0,0.1,0.1,0,0.1,0.1
	c0.1,0.3-0.1,0.2,0,0.6c0.1,0.2,0.4,0.4,0.4,0.6c0,0.1-0.3,0.1-0.4,0.2c-0.1,0.1,0.2,0.5,0,0.8c-0.1,0.2-0.9,0.5-1.1,0.6
	c-0.2,0.1-0.5,0.1-0.6,0.3c-0.1,0.1-0.3,0.3-0.4,0.4c-0.6,0.2-1.7,0.1-2.2,0.4c-0.1,0.1-0.4,0.2-0.3,0.4c0.1,0.1,0.3,0.1,0.3,0.2
	c0,0.1-0.5,0.2-0.6,0.2c-0.2,0.2-0.3,0.5-0.5,0.6c-0.5,0.5-1.2,1-1.5,1.7c-0.1,0.3,0.1,1.1,0.2,1.3c0.1,0.1,0.7,0.4,0.5,0.5
	c-0.1,0.1-0.4,0.1-0.5,0.2c0,0,0,0.1-0.1,0.1c0,0-0.1,0-0.1,0c-0.1,0-0.3,0.1-0.4,0.1c-0.1,0.1,0,0.2-0.1,0.2c-0.1,0-0.1,0-0.2,0
	c-0.1,0.1,0,0.2-0.1,0.3c-0.1,0.1-0.2,0-0.3,0.1c-0.1,0.1,0,0.3,0,0.4c-0.1,0.4-0.5-0.1-0.5,0.5c0,0.1,0.3,0.2,0.2,0.3
	c-0.1,0.1-0.2,0.1-0.4,0.1c-0.1,0-0.2-0.1-0.3-0.1c-0.4-0.1-0.8,0.1-1.1,0.3c-0.5,0.4-0.5,1-1.1,1.3c-0.2,0.1-0.3-0.5-0.8-0.3
	c-0.1,0-0.2,0.2-0.3,0.2c-0.2,0.1-0.5-0.2-0.7-0.3c-0.2-0.1-0.4,0.1-0.7,0c-0.1,0-0.2-0.1-0.3-0.2c-0.2-0.1-1.3-0.2-1.5-0.2
	c-0.2,0.1-0.3,0.3-0.5,0.4c-0.3,0.1-0.6-0.2-1,0c-0.3,0.2-0.3,0.3-0.4,0.5c0,0-0.1-0.1-0.2,0c-0.1,0.1-0.2,0.2-0.3,0.3
	c-0.1,0-0.1-0.1-0.1-0.1c-0.1-0.1-0.2-0.1-0.2-0.1c-0.1-0.1-0.1-0.2-0.2-0.3c-0.1-0.1-0.2,0-0.2-0.1c-0.1-0.1-0.3-0.7-0.3-0.9
	c0,0,0.3,0.2,0.2,0.1c0-0.1-0.1,0-0.1,0c0,0,0.1-0.1,0.1-0.1c-0.1-0.3-0.3,0.1-0.3-0.5c0,0,0.7-0.3,0.5-0.4c-0.1,0-0.2,0.3-0.4,0.2
	c-0.1,0-0.1-0.2-0.1-0.3c-0.1-0.1-0.1-0.2-0.2-0.3l-0.5-0.5c0-0.1,0.2-0.2,0.1-0.2c-0.1,0-0.1,0.2-0.2,0.2c-0.1,0-0.2-0.1-0.2-0.2
	c-0.1-0.1-0.7-0.1-0.9-0.1c0,0-0.6,0.3-0.6,0.3c-0.1,0-1-0.6-1.3-0.7c-0.1,0-0.1,0-0.2,0c-0.1,0-0.2,0-0.3,0c-0.1,0-0.2,0.1-0.2,0.1
	c0-0.2,0.4-0.8,0.5-0.9c0.1-0.2,0-0.4,0.1-0.6c0-0.1,0.1,0,0.2-0.1c0,0-0.1,0-0.1,0c-0.1,0,0.1-0.3,0.1-0.4c0-0.1-0.1-0.1-0.1-0.2
	C0.7,86.3,1,86,1,85.8c0-0.1,0-0.2,0-0.4c0-0.1-0.3-0.2-0.2-0.2c0.4-0.1,0.1,0.5,0.6,0.3c0.1,0-0.2-0.1-0.2-0.1c0-0.1,0.1-0.2,0-0.3
	c0-0.1,0,0.2-0.1,0.2c-0.1,0-0.1-0.1-0.2-0.1c-0.1,0-0.1,0.1-0.2,0.1c-0.1,0-0.3,0-0.4,0c0,0,0.1-0.1-0.1-0.4
	C0.1,84.7,0,84.6,0,84.4c-0.1-0.2,0.5-0.9,0.5-1.1c0-0.1-0.1-0.2,0-0.3c0.1-0.1,0.3,0,0.4,0c0,0-0.1-0.1-0.1-0.1
	c0.1-0.1,0.2-0.1,0.2-0.2c0.2-0.2,0.4-0.6,0.6-0.9c0.1-0.1,0.1-0.2,0.2-0.3c0.1,0,0.2,0.1,0.1,0.1c0-0.1-0.2-0.1-0.2-0.2
	c0-0.1,0.1-0.1,0.1-0.2c0.1-0.2,0.2-0.5,0.3-0.7c0.1-0.1,0.3-0.1,0.4-0.2c0-0.1,0-0.2-0.1-0.2c-0.1,0-0.1,0.3-0.2,0.3
	c-0.1,0,0.1-0.2,0.2-0.3c0.1-0.2,0.2-0.4,0.3-0.7c0-0.1-0.1-0.1-0.1-0.1c0-0.2-0.1-1,0.1-1.1C2.8,78,3,78.1,3,78
	c0-0.1-0.2-0.1-0.3-0.2c-0.1-0.2,0.3-0.2,0.4-0.4c0-0.1-0.2-0.3-0.2-0.4c0-0.1,0.1,0.1,0.1,0c0,0,0-0.1,0-0.1c0-0.2,0.3-0.1,0.4-0.2
	c0,0,0.1-0.1,0.1-0.1c-0.1,0-0.2,0.1-0.3,0.1c-0.1,0-0.1-0.1-0.1-0.2c0.1-0.1,0.3,0,0.4-0.1c0-0.1-0.2,0-0.3,0
	c-0.1,0-0.1-0.1-0.1-0.2c0-0.2,0.2,0.1,0.2,0c0-0.1,0-0.2,0.1-0.2c0.1-0.1,0.2-0.1,0.2-0.2C3.6,75,2.9,76,2.7,75.1
	c-0.1-0.6,0.4-0.4,0.4-0.5c0-0.1-0.1,0-0.2,0c0,0,0.1-0.1,0.1-0.1c0.2,0,0.3,0,0.4,0c0.5,0,1.1-0.4,1.5-0.6c0.2-0.1,0.3-0.3,0.5-0.2
	c0.1,0.1-0.1,0.3,0,0.3c0.1,0,0.2-0.2,0.4-0.2c0.5,0,0.4,0.8,0.9,0.9c0.1,0,0.1-0.2,0.2-0.2c0.5,0.1,0.2,0.1,0.7,0.2
	c0.1,0,0.4,0,0.5,0c0.1,0,0.2,0.1,0.3,0.1c0.1,0,0.3-0.2,0.4-0.1c0.1,0,0.1,0.2,0.2,0.3c0.1,0.1,0.3,0,0.4,0.1c0,0-0.1,0.1,0,0.1
	c0,0.1,0.1-0.1,0.2,0c0.4,0.3,1.6,0.9,2.2,0.7c0,0,0-0.1,0.1-0.1c0.1,0,0.1,0,0.2,0c0.1,0,0.5,0,0.6,0.2c0,0.1-0.1,0.1-0.1,0.1
	c0,0,0-0.1,0.1-0.1c0.1,0,0.5,0.4,0.7,0.4c0.1,0,0-0.1,0-0.2c0-0.1,0.1-0.1,0.2-0.1c0.5-0.1,0.2,0,0.4,0.2c0.1,0.1,0.2,0,0.3,0
	c0.1,0.1,0.2,0.2,0.2,0.2c0.3,0.2,1,0.1,1.3-0.1c0.5-0.2,0.7-2,0.9-2.5c0-0.1,0.1-0.2,0.2-0.2c0.1,0,0.2,0.1,0.3,0
	c0.1-0.1-0.1-0.2-0.2-0.2c-0.1,0-0.1,0.2-0.2,0.2c-0.2-0.1,0.1-0.3,0.1-0.5c0.1-0.3,0.3-1.3,0.5-1.5c0.1,0,0.3,0.4,0.4,0.5
	c0.2,0.5-0.1,0,0.1,0.6c0,0.1,0.1,0.2,0.2,0.3c0,0.1-0.1,0.2,0,0.2c0.1,0,0.1-0.1,0.1-0.2c0-0.1-0.2-0.1-0.2-0.2
	c-0.1-0.2,0.1-0.7-0.1-0.9c-0.1-0.1-0.2-0.3-0.3-0.4c-0.1-0.1-0.2-0.2-0.3-0.2c0,0-0.1,0-0.1,0c0.1,0,0.3,0.1,0.4,0
	c0.1-0.1-0.3-0.2-0.2-0.4c0-0.1,0.2-0.2,0.2-0.4c0-0.1-0.1-0.2-0.1-0.3c0-0.1,0.1-0.2,0.1-0.4c0,0-0.1,0-0.1,0c0,0,0,0.1,0,0.1
	c-0.1,0-0.1-0.2-0.2-0.2c-0.1,0-0.1,0.1-0.2,0c-0.1,0,0-0.2-0.1-0.2c-0.3-0.3-0.1,0.4-0.4-0.2c0-0.1,0-0.4-0.1-0.5c0,0-0.1,0-0.1,0
	c-0.1-0.1-0.2-0.2-0.2-0.4c-0.1-0.2,0.3-0.4,0.3-0.4C16.5,68.1,16,68,16,68c-0.2-0.7,0.7-0.1,0.8-0.1c0,0-0.1,0-0.1-0.1
	c-0.1-0.1-0.3-0.3-0.5-0.3c-0.1,0-0.1,0.2-0.2,0.2c-0.7-0.1-0.1-0.2,0-0.6c0-0.2-0.7,0-0.7-0.1c0-0.1,0.2-0.2,0.3-0.3
	c0,0-0.1,0-0.1,0c0,0,0-0.1,0-0.1c-0.1,0-0.1,0.1-0.1,0.1c-0.1,0-0.3-0.1-0.4-0.1c-0.1,0.1,0,0.2-0.1,0.3c-0.1,0.1,0-0.2,0.1-0.3
	c0-0.2,0.2-0.5-0.2-0.5c-0.2,0-0.1,0.2-0.3,0.1C14.3,66.3,14.1,66,14,66c-0.1,0-0.2,0.1-0.2,0c-0.2-0.2,0.1-0.4-0.4-0.4
	c0,0,0,0.1,0,0.1c-0.1,0.1-0.3,0.2-0.4,0.1c-0.1-0.1,0-0.3,0-0.4c-0.1-0.2-0.3-0.2-0.4-0.2c0,0,0-0.1,0.1-0.1c0.2,0,0.4,0,0.5,0
	c0,0,0.1,0.1,0.1,0c0-0.1-0.3-0.5-0.3-0.6c0-0.1,0,0.1,0.1,0.1c0.1,0,0.2,0,0.3,0c0.1,0,0.2,0.1,0.2,0c-0.1-0.1-0.3,0-0.4-0.2
	c0-0.1,0.2-0.1,0.3-0.2c0.1-0.2-1.1,0.6-0.7-0.4c0,0,0.6-0.2,0.8-0.2c0.2,0-0.2,0.2,0.2,0.1c0.1,0,0.2-0.2,0.4-0.1
	c0.1,0,0.1,0.2,0.2,0.3c0.1,0,0-0.2,0.1-0.2c0.1,0,0.2,0.2,0.3,0.2c0.1,0,0-0.3,0.1-0.3c0,0,0.1,0.1,0.2,0.1c0.1,0,0.2-0.1,0.3-0.1
	c0.1,0.1,0,0.2,0.1,0.3c0.1,0,0.1-0.1,0.1-0.1c0.1-0.1,0.4,0.7,0.4,0.8c0,0,0-0.1,0.1-0.1c0.1-0.1,0.2-0.1,0.3-0.1
	c0.1-0.1,0.2-0.2,0.2-0.2c0.2,0.1,0,0.7,0.4,0.5c0.1-0.1,0.1-0.3,0.1-0.4c0.1-0.1,0.1,0.2,0.2,0.3c0.1,0,0.2,0,0.3,0
	c0.1,0,0.3,0.2,0.4,0.1c0-0.2-0.4-0.3-0.3-0.5c0-0.1,0.1-0.3,0.1-0.4c0,0,0.1,0,0.1,0c-0.1,0-0.2,0.1-0.2-0.1c0-0.1,0.1-0.3,0.1-0.4
	c0,0-0.1,0-0.1,0c0-0.1,0-0.2-0.1-0.3c0-0.1-0.1-0.1-0.2-0.1c0-0.1-0.1-0.2,0-0.4c0-0.1,0.1-0.1,0.1-0.1c0-0.1-0.1-0.2-0.1-0.4
	c0,0,0,0.1,0.1,0.1c0.1,0.1,0.3,0.1,0.4,0.2c0,0,0.1,0,0.1,0c0.1,0,0.3-0.1,0.4,0c0.1,0,0,0.1,0,0.2c0,0-0.1,0-0.1,0.1
	c-0.1,0.1,0.1,0.6,0.2,0.6c0.7,0.1-0.3-0.3,0.2-0.1c0.3,0.1,0.6,0.2,0.9,0.3c0.1,0.1,0.1,0.2,0.2,0.2c0.4,0.1,0.3-0.2,0.6-0.3
	c0.1,0,0.3,0,0.4,0c0.4-0.1-0.8,0.3-0.3-0.6c0.2-0.3,1.4-0.3,1.7-0.5c0.1-0.1,0.2-0.2,0.3-0.2c0.1-0.1,0.3,0,0.4-0.1
	c0.1-0.1-0.1-0.2-0.2-0.3c0-0.1,0-0.1,0-0.2s0.1,0,0.1,0s-0.1,0-0.1-0.1c0-0.1,0.1-1,0.2-1.1c0.1-0.2,0.7-0.2,0.8-0.3
	c0.2,0,0.4,0,0.6-0.1c0.4-0.1,1.1-0.7,1.5-0.6c0.4,0.1,0.2,0.2,0.5,0.2c0.1,0,0.1-0.2,0.2-0.1c0.1,0,0.4,0.4,0.5,0.3
	c0.1-0.1,0-0.2-0.1-0.3c-0.1-0.1-0.2,0-0.2,0c-0.1,0-0.1-0.1-0.2-0.1c0,0,0,0.1-0.1,0.1c-0.1,0-0.7-0.4-0.7-0.4
	c-0.1-0.1,0.3-0.2,0.6-0.1c0.1,0,0.4,0.7,0.6,0.3c0.1-0.1-0.4-0.1-0.4-0.3c0-0.1,0.2,0.1,0.3,0c0.1-0.1-0.1-0.2-0.1-0.2
	c-0.1,0-0.1,0.1-0.2,0.1c-0.2-0.1-0.3-0.2-0.4-0.3c-0.1-0.1,0.4,0.1,0.6-0.2c0.1-0.1-0.1-0.2-0.1-0.4c0-0.1,0.1,0,0.2,0
	c0.1-0.1,0.1-0.2,0.2-0.2c0.2-0.2,0.4-0.5,0.5-0.8c0.1-0.3,0-0.9,0.3-1.2c0,0,0.1,0,0.1,0c0.1,0,0.3,0.1,0.4,0
	c0.4-0.1,0.4-0.3,0.5-0.5c0.2-0.2,1.6-0.5,1.8-0.5c0.3,0.1,0.4,0.9,0.9,0.4c0.1-0.1-0.3,0-0.4-0.1c-0.1-0.2,0.2-0.7,0.4-0.8
	c0.1-0.1,0.2,0.1,0.3,0.1c1.3-0.1-1.4-0.2,0.6-0.1c0,0,0.1,0,0.1,0c0.1,0.2,0.2,1,0.6,0.8c0.1-0.1-0.1-1.3,0.3-1.3
	c0,0,0,0.1,0.1,0.1c0.1,0,0.1,0,0.2,0c0.2,0,0.4-0.1,0.5-0.1c0.1,0.1,0.1,0.2,0.2,0.3c0.1,0.1,0.6,1,0.6,0.4c0-0.1-0.3-0.1-0.4-0.2
	c-0.2-0.2-0.1-0.6-0.5-0.6c-0.1,0-0.5,0.1-0.4-0.2c0-0.2,0.3-0.7,0.1-0.9c-0.1-0.1-0.4,0.1-0.5-0.1c0,0,0.1,0,0.1,0
	c0,0-0.1-0.1-0.1-0.1c0.2-0.1,0.5,0.1,0.5-0.2c0,0-0.4-0.5-0.4-0.5c-0.1-0.2-0.1-0.4-0.1-0.7c0-0.1,0.1-0.2,0.1-0.3
	c-0.1-0.1-0.3,0-0.3,0s0.2,0.1,0.3,0c0.1-0.1,0-0.2,0-0.4c0-0.1,0-0.3,0-0.3c-0.2-0.2-0.6,0-0.7-0.3c-0.1-0.2,0.1-0.4,0.1-0.7
	c0-0.1,0-0.4,0-0.3c0,0.1-0.1,0.3,0,0.4c0.5,0.3,0.2-0.4,0.2-0.5c0,0,0-0.1-0.1-0.1C33,48.8,33,49,32.9,49c-0.1,0,0-0.1,0-0.2
	c0-0.1,0.1-0.2,0.1-0.4c0-0.1-0.1-0.2,0-0.3c0.2-0.2,0.4,0.4,0.1,0c0,0-0.1-0.8,0.1-0.7c0.1,0,0,0.2,0.1,0.3c0.2,0.4,0.9-0.5,1-0.5
	c0.4-0.1-0.1,0.5,0,0.6c0.1,0.1,0.3,0,0.4,0c0,0-0.1,0-0.1,0c0-0.1,0.1-0.2,0-0.3c0-0.1-0.1,0.1-0.2,0c0-0.1,0.1-0.1,0.1-0.2
	c0-0.4-0.2-0.3,0.1-0.5c0.1-0.1,0.3-0.1,0.3,0c0,0-0.1,0.2,0,0.2c0.1-0.1,0.1-0.2,0.2-0.3s0.3,0.1,0.3,0c0.1-0.2-0.4,0-0.5,0
	c-0.1,0-0.2,0.1-0.4,0.2c-0.1,0-0.1-0.1-0.1-0.1c-0.1,0-0.3,0-0.4,0c-0.1,0,0,0.1-0.1,0.2c-0.2,0.1,0-0.6-0.3,0.3
	c0,0,0.1,0.5,0.1,0.5c-0.6,0-0.3-1.1,0.1-1.2c0.3-0.1,0.7,0,1-0.1c0.4-0.2,0.3-0.8,0.7-1c0.1-0.1,0.3,0,0.4-0.1
	c0.1-0.1,0.2-0.3,0.3-0.3c0.3,0-0.1,0.2-0.2,0.4c0,0.2,0.1,0.1,0.2,0.4c0.1,0.2-0.1,1.2-0.4,1c-0.1,0-0.2-0.2-0.3-0.2
	c-0.4,0,0.4,0.2,0.4,0.2c0,0.1-0.1,0.2,0,0.4c0,0.1,0.1,0.2,0.1,0.3c0,0.1-0.2,0-0.2,0c-0.1,0,0.3,0.1,0.2,0.2
	c0,0.1-0.1,0.2-0.2,0.4c-0.1,0.1,0.1-0.2,0.2-0.3c0.1,0,0.1,0.2,0.2,0.2c0.2,0.1,0.5-0.2,0.6,0.2c0,0.1-0.4,0.9-0.5,0.8
	c-0.1-0.1-0.1-0.3-0.3-0.4c-0.2-0.1-0.1,0.9-0.2,1c-0.1,0.2-0.2,0.4-0.5,0.4c-0.1,0-0.4-0.2-0.4-0.1c0.1,0.1,0.3,0.1,0.4,0.2
	c0.1,0.2-0.5,0.2-0.5,0.3c0,0.1,0.2,0,0.2,0.1c0,0.1-0.1,0.1-0.1,0.1c0,0.1,0,0.2,0,0.3c0,0.1,0.1,0.1,0.1,0.1
	c0,0.2-0.3,0.3-0.4,0.5c0,0.1,0.1,0,0.2,0c0.1,0.1,0.2,0.2,0.2,0.4c0,0.1-0.1-0.1-0.2-0.1c-0.1,0.1-0.3,0.4-0.2,0.3
	c0.1-0.1,0.1-0.1,0.2-0.2c0,0,0,0.1,0,0.1c0.1,0,0.1,0,0.2,0c0.1,0,0.2,0,0.3,0.1c0.1,0,0.1,0.1,0.1,0.2c0,0,0,0,0,0
	c0,0-0.1,0.1-0.1,0.1c0,0,0.1,0,0.1,0c0.1,0.1,0,0.2,0,0.3c0,0.1-0.3,0.1-0.2,0.2c0.1,0.1,0.4-0.2,0.4,0c0,0.1-0.2,0.3-0.1,0.3
	c0.1,0.1,0.1-0.2,0.2-0.3c0.1,0,0.5,0.3,0.6,0.3c0,0,0.4-0.4,0.5-0.2c0.2,0.5-1,0.9-0.3,1c0.1,0,0.2-0.2,0.4-0.2
	c0.2,0,0,0.5,0.4,0.3c0.1-0.1,0.1-0.5,0.3-0.6c0.2-0.1,0.5-0.2,0.6,0.1c0,0.1-0.1-0.2,0-0.2c0.1-0.1,0.2-0.2,0.3-0.3
	c0.1-0.1,0.1-0.3,0.2-0.4c0,0,0.3,0.1,0.5,0.1c0.1,0-0.2-0.1-0.3,0c-0.3,0-0.4,0.1-0.4,0.4c0,0.1,0.2-0.3,0.2-0.3
	c0.1-0.1,0.5-0.1,0.6-0.1c0.1,0,0.1,0.2,0.1,0.4c0.1,0.1,0.2,0,0.2,0.1c0.1,0.1,0.2,0.3,0.3,0.3c0.1,0,0.3-0.1,0.4-0.1
	c0.1,0-0.1,0.1-0.1,0.2c0,0.1,0.1,0.3,0.1,0.4c0.1,0.1,0.2,0.2,0.4,0.2c0.6,0.2,0-0.4,0.2-0.5c0.1,0,0.2,0.1,0.3,0
	c0.2,0,0.3-0.2,0.4-0.3c0.6-0.2,1.2-0.5,1.9-0.7c0.1,0,0.2-0.4,0.5-0.7c0.1-0.1,0.3-0.1,0.5-0.2c0.5-0.3,1.2-0.9,1.8-0.7
	c0.2,0,0.4,0.2,0.5,0.2c0.1,0,0.1,0.1,0.2,0.1c0,0,0,0.1,0,0.1c-0.3-0.2,0-0.3-0.5-0.4c-0.1,0,0.1,0.1,0.1,0.2
	c0.1,0.2,0,0.5,0.4,0.7c0.7,0.3,1.6-0.4,1.6-1.1c0-0.1-0.1-0.3-0.1-0.4c0,0,0.1,0,0.1,0c0.3-0.1,0.5,0,0.8-0.3
	c0.2-0.3,0.5-0.9,0.4-1.2c0-0.1-0.1-0.3-0.1-0.4C50,48,50,49,50,49.1c0,0.5-0.4,0.8-0.6,1.2c0,0.1,0.9,0.1,1-0.1
	c0.1-0.2-0.2-0.4-0.2-0.6c0,0,0.1,0,0.1,0c0-0.1,0-0.1,0-0.2c0-0.1,0-0.2-0.1-0.2c0,0-0.1,0.1-0.1,0.1c0-0.1,0.1-0.2,0-0.3
	c0-0.2-0.3-0.5-0.4-0.7c-0.2-0.4,0-0.2-0.1-0.6c-0.1-0.2-0.4-0.8-0.2-1.1c0.1-0.1,0.1,0.4,0.1,0.3c0-0.1,0-0.2-0.1-0.2
	c0,0-0.1,0-0.1-0.1c0-0.1,0-0.2,0-0.4s-0.1-0.2-0.1-0.3c0.1-0.2,0.3-0.2,0.3-0.4c0.2-0.4-0.2-1,0.2-1.4c0.2-0.2,0.4-0.2,0.6-0.4
	c0.1-0.1,0.3-0.3,0.4-0.3c0.1,0.1,0,0.3,0.1,0.4c0.2,0.2,0.5,0.2,0.7,0.4c0.2,0.1,0.2,0.4,0.3,0.6c0.1,0.2,0.1,0.1,0.3,0.1
	c0.1,0,0.2,0.1,0.3,0.1c0.3,0,0.7-0.5,0.7-0.8c0.1-0.4-0.4-0.9-0.4-1.3c-0.1-0.5,0.1-0.2,0.1-0.6c0-0.1-0.1-0.3-0.1-0.4
	c0-0.1,0.1-0.1,0.1-0.2c-0.4-0.4-0.4,0.2-0.5,0.3c-0.1,0.1-0.1-0.1-0.2-0.1c-0.1,0-0.2,0.1-0.3,0c-0.2-0.1-0.1-0.3-0.2-0.5
	c0-0.1-0.3-0.3-0.4-0.5c-0.1-0.2,0.2-0.4,0.1-0.5c-0.1-0.3-0.6,0.1-0.3-0.5c0.1-0.2,0.6-0.1,0.7-0.3c0.1-0.1-0.1-0.2-0.1-0.2
	c0.1-0.3,0.6-0.3,0.8-0.3c0.1,0-0.1-0.2,0-0.3c0.1,0,0.1,0.1,0.2,0.1c0.2,0,0.4,0,0.6-0.1c0.1-0.1,0.2-0.2,0.3-0.3
	c0-0.1-0.1-0.2,0-0.2c0.1,0,0.1,0.2,0.2,0.2c0.6,0.1-0.2-0.1,0.1-0.2c0.1,0,0.1,0.1,0.2,0.1c0.3,0,2,0,2.1-0.1c0.5-0.3-0.2-0.7,0-1
	c0.1,0,0.1,0.1,0.1,0.1c0.1,0.1,0.2,0.2,0.3,0.1c0.1-0.1,0-0.2,0-0.4c0-0.2,0.4,0,0.5-0.1c0.4-0.1-0.4-0.6,0.6-0.6
	c0.3,0,1.3,0.2,0.9-0.2c-0.1-0.1-0.3,0-0.4,0c-0.3-0.1-0.1-0.4-0.6-0.3c-0.2,0.1-0.4,0.3-0.6,0.2c0,0-0.1-0.1-0.1-0.1
	c-0.1-0.1-0.1-0.2-0.2-0.2c-0.1,0-0.2,0.1-0.2,0c-0.2-0.2,0-0.6-0.2-0.8c0,0-0.3,0.5-0.4,0.5c-0.1,0.1-0.3,0.1-0.4,0.1
	c0,0,0,0.1,0,0.1c-0.1,0.1-0.2,0.2-0.3,0.2c-0.1,0-0.4-0.2-0.4-0.2c-0.1,0,0,0.1,0,0.2c0,0-0.1,0-0.1,0s-0.1-0.1-0.1,0
	c-0.2,0.3,0.5,0.1-0.3,0.4c-0.5,0.2-0.1-0.3-0.2-0.4c-0.2-0.1,0.1,0.5-0.1,0.6c-0.1,0-0.1-0.2-0.1-0.2c-0.1,0-0.4-0.1-0.4,0
	c-0.1,0.1,0.3,0.2,0.3,0.3c0.2,0.7-0.5,0.1-0.5,0.1c-0.2,0-0.1,0.3-0.1,0.3c0,0.1-0.5,0.3-0.5,0.3c0,0,0-0.1-0.1-0.1
	c0,0,0.1,0.1,0,0.2c0,0-0.1,0-0.1,0c-0.1,0-0.3,0-0.4,0c-0.1,0.1,0.1,0.1,0.1,0.2c-0.1,0.1-0.5,0.1-0.6,0.2
	c-0.1,0.1-0.1,0.2-0.2,0.2c-0.1,0.1-0.3,0.2-0.4,0.1c-0.1-0.1,0.1-0.3,0.1-0.3c-0.3,0.2-0.1,0.5-0.6,0.7c-0.1,0,0.1-0.1,0.1-0.1
	c0.1-0.1,0.2-0.1,0.2-0.2c0-0.1,0.1-0.3,0-0.2c-0.1,0-0.1,0.3-0.2,0.3c-0.1,0,0.2-0.2,0.1-0.3c0-0.1-0.2,0.1-0.2,0.1
	c-0.4-0.2-0.2-0.5-0.1-0.7c0-0.1,0,0.1-0.1,0.1c-0.1,0-0.5,0.3-0.5,0.3c-0.1,0,0.2-0.1,0-0.5c0,0,0,0.1,0,0.1c-0.1,0-0.1,0-0.1,0
	c0,0,0-0.1,0-0.1c-0.1,0-0.1,0.1-0.2,0.1s-0.1-0.2-0.2-0.2c-0.1,0-0.2,0.1-0.4,0c-0.1-0.1,0.1-0.2,0-0.2c-0.4,0.1-0.1,0.6-0.5,0.1
	c-0.1-0.1-0.1-0.1-0.1-0.2c0-0.1,0.1-0.1,0.1-0.1c-0.1-0.2-0.3-0.2-0.3-0.7c0-0.1,0.2,0,0.2,0c0-0.1-0.1-0.1-0.1-0.2
	c-0.1-0.2,0.1,0.1,0.1-0.2c0-0.1-0.1-0.1-0.1-0.1c0-0.1,0.1-0.1,0.1-0.2c0-0.1-0.2-0.2-0.2-0.4c0-0.1,0.3,0,0.3-0.1
	c0-0.1-0.2-0.2-0.3-0.3c0,0-0.1-0.1,0-0.1c0,0,0.1,0,0.1,0c0,0-0.1,0-0.1-0.1c0,0,0-0.1,0-0.1c-0.1-0.1-0.1-0.2-0.2-0.3
	c-0.1-0.1-0.2,0-0.2-0.1c-0.1-0.1,0.1-0.6,0-0.9c0-0.1,0-0.1-0.1-0.1c-0.1,0,0,0.2,0,0.2c-0.1,0,0-0.1-0.1-0.2c0,0-0.1,0.1-0.1,0.1
	c-0.1-0.1,0-0.4,0-0.4c-0.2-0.4-0.3,0.8-0.2-0.4c0-0.2,0.5-0.5,0.5-0.7c0-0.3-0.6,0.1-0.3-0.4c0.1-0.1,0.2-0.2,0.4-0.1
	c0.1,0,0,0.2,0.1,0.2c0.1,0,0-0.2,0-0.2c0.2-0.3,0.5,0.1,0.3-0.5c0-0.1-0.2-0.1-0.2-0.2c0-0.1,0.1,0.2,0.1,0.1
	c0.2-0.1-0.1-0.5,0.1-0.6c0.1-0.1,0.2,0.1,0.2,0.1c0,0,0.1-0.3,0.1-0.5c0-0.3,0.5-0.2,0.5-0.6c0-0.1-0.1-0.1-0.1-0.2
	c0-0.3,0.2-0.2,0.3-0.4c0-0.1-0.1-0.2,0-0.3c0-0.1,0.2-0.2,0.3-0.4c0-0.1,0-0.2,0-0.3c0-0.1,0-0.3,0.1-0.4c0,0,0.1,0.1,0.1,0
	c0,0,0-0.1,0-0.2c0.1-0.1,0.2-0.2,0.3-0.2c0.1-0.1,0.3,0,0.3-0.2c0.2-0.5-0.3-0.2-0.3-0.3c-0.1-0.2,0.1-0.5-0.1-0.9
	c-0.1-0.2-0.1,0-0.2,0c0,0,0-0.1-0.1-0.1c-0.1,0-0.3,0.1-0.4,0c-0.1-0.1-0.1-0.3-0.2-0.4c-0.4-0.2-0.4,0.2-0.6,0.3
	c-0.1,0-0.1-0.1-0.2-0.1c0,0-0.1,0.1-0.1,0.1c-0.1,0-0.3-0.1-0.4,0c-0.1,0.1,0.1,0.3,0,0.3c-0.4,0.2-0.5-0.2-0.8-0.2
	c0,0,0,0.1,0,0.2c0,0,0,0.1,0,0.1c0,0.1-0.1,0.2-0.1,0.3c0,0.1,0.2,0.1,0.2,0.2c0,0-0.1-0.1-0.2-0.1c-0.1-0.1-0.3-0.1-0.4-0.1
	c-0.1,0-0.1-0.2-0.1-0.1c0,0.2,0.4,0.1,0.5,0.3c0,0.1-0.2,0-0.3,0.1c0,0,0.1,0,0.1,0c0,0,0.2,0.1,0.1,0.2c0,0,0-0.1-0.1-0.1
	c0,0,0.1,0.1,0,0.1c-0.1,0.1-0.5,0-0.6,0.3c0,0.1,0.1,0,0.1,0c0.1,0.1,0.2,0.2,0.3,0.4c0.1,0.3-0.4,0.5-0.4,0.8
	c0,0.4,0.6,0.5,0.7,0.8c0,0-0.4,0.5-0.4,0.6c-0.1,0.2-0.1,1.1-0.4,1.1c0,0,0-0.1-0.1-0.1c-0.1,0,0.1,0.3-0.1,0.4
	c-0.1,0,0-0.2-0.1-0.2c-0.1,0,0,0.2,0,0.2c0,0.1,0-0.2-0.1-0.2c0,0.1,0,0.2,0,0.2c-0.1,0.1-0.3,0-0.3,0.1c-0.1,0.1,0,0.2-0.1,0.2
	c-0.1,0-0.3-0.2-0.3-0.1c-0.1,0.1,0.2,0.2,0.1,0.4c-0.1,0.1-0.2-0.2-0.2-0.1c-0.1,0.1,0,0.2,0,0.3c0,0.1,0,0.3-0.2,0.4
	c-0.1,0.1-0.2-0.1-0.4-0.1c-0.1,0,0.2,0.1,0.2,0.1c0,0-0.1,0.1-0.1,0.1s0.1-0.1,0-0.1c0,0-0.1,0-0.1,0c0,0.1,0.1,0.1,0.1,0.2
	c0,0-0.1-0.1-0.2,0c0,0,0.1,0.1,0.1,0.1c0,0-0.1,0-0.1,0c0,0.1,0,0.2-0.1,0.2c-0.1,0.1-0.3,0-0.3,0.1c0.1,0.1,0.4-0.1,0.4,0.1
	c-0.1,0.1-0.2,0.2-0.3,0.4c0,0-0.1,0.1-0.1,0.1c-0.1,0-0.2,0-0.2-0.1c0-0.1,0.1,0,0.2-0.1c0.1-0.1-0.2,0.1-0.2,0c0-0.1,0-0.1,0-0.2
	c-0.1-0.1-0.2-0.1-0.3-0.2c-0.1,0,0.1,0.1,0.2,0.1c0.1,0.1,0.2,0.3,0.2,0.4c0.1,0.1,0.1,0.5,0,0.4c0,0,0-0.2-0.1-0.1
	c-0.1,0.1,0,0.2-0.1,0.3c0,0.1-0.1,0-0.2,0c-0.1,0-0.3,0-0.4,0.1c-0.3,0.2,0.2,0.3,0.4,0.5c0,0-0.1,0-0.1,0c0,0-0.1,0-0.1,0
	c0,0.1,0,0.3,0,0.4c0,0.1-0.1,0.2-0.1,0.2c0,0.1,0,0.2,0,0.3c0,0,0.1,0,0.1,0c0.1,0.1,0.3,0.3,0.2,0.4c-0.1,0.1-0.3-0.2-0.4-0.1
	c-0.4,0.1,0.3,0.5,0.2,0.9c0,0.1-0.2,0-0.2,0c0,0.1,0.1,0.1,0.1,0.2c0,0-0.1,0-0.1,0.1c0,0.1,0,0.2,0,0.2c0,0.1,0,0.2,0,0.2
	c0,0,0.1,0,0.1,0c0,0-0.1,0-0.1,0c0,0,0,0.1,0,0.1c0,0.1,0.2,0.1,0.2,0.2c0,0.1-0.1,0.2-0.1,0.3c0,0,0.1,0,0.1,0
	c0.1,0,0,0.1,0.1,0.1c0.2,0,0.6-0.1,0.7,0c0.1,0,0,0.2,0,0.2c0.1,0.1,0.2,0.2,0.3,0.2c0,0,0.1-0.1,0.1,0c0,0-0.1,0.1,0,0.1
	c0,0,0.9-0.4,0.4,0.2c-0.1,0.1-0.2-0.2-0.3-0.1c-0.1,0,0.1,0.1,0.2,0.2c0.1,0.1,0.1,0.3,0.2,0.3c0.1,0,0.1-0.2,0.2-0.1
	c0.1,0,0,0.2,0.1,0.2c0.3,0.3,0.5,0.1,0.4,0.6c0,0.2-0.2,0-0.2,0c-0.1,0-0.1,0.1-0.2,0.2c-0.2,0.2,0,0.3-0.5,0.6
	c0,0,0.1,0.2,0.1,0.2c0,0.1-0.1,0-0.2,0c-0.1,0-0.2,0.1-0.4,0.1c-0.1,0,0-0.3,0-0.4c0-0.1-0.1-0.1-0.1-0.2c0,0,0-0.1,0-0.1
	c-0.1-0.1-0.1-0.3-0.2-0.3c-0.1,0-0.2,0.1-0.3,0.1c0,0.1,0.1,0,0.2,0c0.1,0.1,0,0.3,0.1,0.4c0.1,0.1,0.3,0.1,0.3,0.2
	c-0.2,0.4-0.7-0.2-0.8-0.2c-0.1,0-0.2,0.2-0.4,0.2c-0.1,0-0.1-0.2-0.2-0.2c-0.1,0,0,0.2-0.1,0.3c0,0-0.1,0-0.1,0
	c-0.1,0-0.3,0-0.4,0.1c0,0,0.1,0.1,0.1,0.1c0.1,0.1,0.3-0.1,0.4-0.1c0.2,0,0.4,0.2,0.5,0.2c0.1,0-0.1-0.2-0.1-0.2
	c0.1,0,0.1,0.2,0.2,0.2c0.1,0,0.3-0.1,0.4,0c0.1,0.1-0.1,0.2-0.1,0.2c0,0.1,0.2,0,0.2,0c0,0-0.1-0.1-0.1-0.1c0.1,0,0.2,0.1,0.2,0.1
	c0.1,0,0.3,0.1,0.4,0.1c0.1,0,0-0.2,0.1-0.3c0.1-0.1,0.2,0.1,0.3,0c0.1-0.1,0.1-0.3,0.3-0.3c0.1,0,0.3,0.2,0.2,0.2
	c-0.1,0.1-0.3,0-0.4,0.1c0,0,0,0.1,0.1,0.1c0.1,0.1,0.2,0.2,0.2,0.3c0,0-0.1,0-0.1,0c-0.1,0.1-0.3,0.1-0.3,0.3
	c-0.1,0.1,0,0.3-0.1,0.4c0,0.1-0.1-0.3-0.2-0.2c-0.1,0,0.1,0.2,0,0.2c-0.2-0.1,0.1-0.7-0.2-0.6c0,0,0.1,0.8-0.3,1
	c-0.1,0.1-0.3,0-0.4,0c-0.1,0,0.1,0.1,0.1,0.1c0.1,0.2-0.2,0.1-0.2,0.1c0,0,0.1,0,0.1,0.1c0,0-0.1,0-0.1,0c0,0,0,0.1-0.1,0.1
	c0,0-0.9-0.1-0.9,0c0,0,0.1,0,0.1,0c0,0,0-0.1,0.1-0.1c0,0,0,0.1,0.1,0.1c0,0,0-0.1,0-0.1c0.3-0.1,0.5,0,0.6,0.3c0,0-0.1,0-0.1,0
	c-0.1,0.1,0.1,0.2-0.1,0.2c-0.1,0-0.3-0.2-0.4-0.1c-0.1,0.1,0.3,0.1,0.4,0.1c0.1,0.1,0.2,0.4,0.2,0.5c0,0.1-0.2-0.1-0.2,0
	c0,0.1,0.4,0.6,0.2,0.7c-0.1,0.1-0.3-0.1-0.4,0c-0.1,0,0,0.1,0.1,0.1c0.1,0.1,0.4,0.2,0.4,0.3c0,0.1-0.2,0.2-0.2,0.3
	c0,0.1,0.2,0.1,0.2,0.2c0,0-0.1,0-0.1,0.1c-0.1,0.1-0.1,0.3-0.2,0.4c0,0.1,0.2,0.5,0.2,0.5c0,0-0.1,0-0.2,0
	c-0.1,0.1,0.2,0.4,0.1,0.7c0,0.1-0.1,0-0.2,0.1c0,0.1,0.1,0.1,0.1,0.2c-0.2,0.6-0.1-0.4-0.2,0.2c-0.1,0.4-0.1,1-0.4,1.2
	c0,0-0.1,0-0.1,0c0,0,0.1-0.1,0-0.1c0-0.1-0.3,0-0.3,0c0,0,0-0.1,0-0.1c-0.2,0-0.2,0.1-0.3,0.2c-0.2,0.1-0.1-0.1-0.1-0.1
	c-0.1,0.1-0.3,0.1-0.3,0.1c-0.1,0-0.2,0-0.2,0c-0.1,0-0.2-0.1-0.2,0c0,0.1,0.2,0.2,0.1,0.3c-0.1,0.1-0.2,0-0.4,0
	c-0.1,0-0.1,0.2-0.2,0.2c-0.5,0.7,0.1,0.5,0.1,0.9c0,0.1-0.1,0.3-0.2,0.4c-0.1,0.1-0.4-0.1-0.4-0.1c-0.4,0-0.3,0.3-0.7,0.3
	c-0.1,0-0.3-0.1-0.4-0.1c-0.1,0-0.2,0.1-0.2,0c-0.1-0.1,0.2-0.1,0.2-0.1c0-0.1-0.1-0.2-0.1-0.3c0-0.1,0.1-0.2,0.2-0.2
	c0,0-0.9-1.3-0.9-1.4c0.1-0.2,0.3,0.2,0.5,0.1c0.1-0.1-0.4-0.3-0.3-0.4c0.1-0.1,0.3,0,0.4-0.1c0.1-0.1,0-0.3,0-0.4
	c0-0.1-0.1,0-0.2,0c-0.1-0.1-0.1-0.3-0.2-0.4c-0.1-0.1-0.2-0.1-0.3-0.2c0-0.1,0-0.2,0-0.2c0-0.1-0.2-0.4-0.2-0.4
	c0,0,0.1-0.1,0.1-0.1c0,0-0.1,0-0.1,0c-0.1-0.1-0.2-0.2-0.2-0.3c-0.1-0.2,0-0.6-0.1-0.8c0-0.1-0.2,0-0.2,0c-0.1-0.1,0-0.2,0-0.3
	c0-0.3,0.5-0.9,0.2-1.2c-0.3-0.4-0.1,0.7-0.8,0c-0.1-0.1,0.1-0.4,0.1-0.5c0-0.2-0.2-1-0.2-1c0.1-0.1,0.3,0.1,0.4,0
	c0.1-0.1,0-0.2-0.1-0.3c-0.4-0.6-0.2,0.3-0.8-0.3c-0.1-0.1,0.1-0.2,0.1-0.2c0-0.1-0.1,0-0.1,0c-0.1-0.2-0.1-0.4,0-0.4s0,0.1,0,0.1
	c0.1,0,0-0.1,0-0.2c0-0.2-0.1-0.3-0.1-0.5c0-0.1,0.1-0.3,0-0.3c-0.4,0,0.3,0.5-0.1,0.9c0,0,0,0,0,0c0-0.1,0-0.2,0-0.3
	c-0.1-0.1-0.2-0.2-0.2-0.2c0,0.1,0.2,0.2,0.2,0.4c0,0.1-0.1,0.2,0,0.3c0.1,0.4,0.2,0.2,0.1,0.4c0,0,0,0.1,0,0.1s-0.1-0.1-0.1-0.1
	c-0.1,0.2,0,0.5-0.1,0.5c-0.1,0,0-0.2,0-0.2c-0.3,0.2,0.3,0.4-0.5,0.4c-0.1,0,0-0.2-0.1-0.2c-0.1-0.1-0.2-0.2-0.3-0.2
	C34.8,41.8,35,41.9,35,42c0,0.1-0.5,0.1-0.5,0.3c0,0.1,0.2,0.1,0.1,0.2c-0.1,0.1-0.3,0-0.4,0.1c-0.1,0.1,0.2,0.1,0.2,0.2
	c-0.1,0.7-0.2-0.2-0.3,0.2c0,0,0.1,0.1,0,0.1c-0.1,0.1-0.5,0.7-0.6,0.7c0,0-0.1-0.1-0.1,0c-0.1,0.1-0.1,0.3-0.2,0.3
	c-0.1,0-0.1-0.3-0.2-0.2s-0.1,0.3-0.2,0.3c-0.1,0.1-0.2,0-0.3,0c-0.1,0-0.1,0.1-0.1,0.1c-0.2,0.1-0.1-0.1-0.4-0.1
	c-0.1,0-0.3,0.2-0.3,0.1c-0.1-0.1,0.2-0.2,0.2-0.3c-0.1-0.1-0.2,0.1-0.3,0.1c-0.1,0-0.3,0-0.4-0.1c-0.3-0.1,0.3-0.3,0.3-0.5
	c0-0.1-0.1-0.1-0.2-0.1c-0.1,0-0.1,0.2-0.1,0.2c-0.1,0-0.2-0.1-0.3-0.1c-0.2-0.1-0.3-0.4-0.4-0.5c-0.1-0.1-0.2,0-0.2-0.1
	c-0.1-0.1-0.3-0.5-0.3-0.7c0-0.1,0.1-0.2,0.2-0.3c0-0.1-0.1-0.4,0-0.3c0.1,0,0,0.3,0.2,0.4c0.1,0.1,0.1-0.2,0.2-0.2
	c0.1-0.1,0.2,0.4,0.4,0.3c0.1,0-0.1-0.2-0.1-0.3c0.2-0.3,0.4,0,0.6-0.2c0.1-0.1-0.2,0-0.3,0c-0.1,0-0.2,0-0.3,0.1
	c-0.1,0-0.1,0.3-0.2,0.2c-0.1-0.1-0.1-0.2-0.2-0.4c0-0.1,0.2-0.1,0.3-0.2c0,0-0.2,0-0.1-0.1c0-0.1,0.1-0.1,0.2-0.2
	c0.1-0.1,0.3,0,0.4-0.1c0.1-0.2-0.5,0.1-0.5-0.1c-0.1-0.2,0.7-0.5,0.7-0.5c0.1-0.1-0.3,0.1-0.4,0.1c-0.1-0.1,0.1-0.2,0.1-0.3
	s-0.1,0.2-0.1,0.3c-0.1,0.1-0.4,0.8-0.4,0.4c0-0.1,0.3-0.2,0.3-0.3c-0.1-0.1-0.3-0.2-0.4-0.1c-0.2,0.1-0.1,0.6-0.4,0.6
	c-0.1,0,0-0.2-0.1-0.3c-0.1-0.1-0.3-0.1-0.3-0.2c0-0.1,0.2,0.1,0.3,0c0.1-0.1,0.1-0.3,0.2-0.4c0.1-0.1,0.1,0.1,0.2,0.2
	c0,0,0-0.1,0-0.1c0,0,0.1,0,0.1,0c0.1,0-0.2,0-0.2-0.1c0,0,0.7-0.3,0.7-0.3c-0.6,0-0.2,0.4-0.8-0.1c0,0,0.1,0,0.1,0
	c0,0,0-0.1,0.1-0.1c0.1-0.1,0.2,0,0.2,0c0,0,0-0.1,0-0.1c0-0.1,0.1-0.1,0.1-0.2c0.1-0.1,0.3,0,0.3-0.1c0-0.1-0.2-0.1-0.2-0.2
	c0-0.1,0.5-0.7,0.7-0.5c0,0-0.4,0.8-0.2,0.8c0.1,0,0-0.3,0.1-0.4c0.3-0.7,0.2-0.2,0.6-0.5c0.1-0.1-0.2,0.1-0.2,0
	c0-0.1,0.2-0.2,0.1-0.2c-0.1,0-0.1,0.1-0.2,0.2c0,0-0.3,0.2-0.3,0.1c0-0.1,0.1-0.1,0.1-0.2c0,0-0.1,0.1-0.1,0.1
	c-0.1,0-0.3-0.1-0.4,0c-0.1,0.1,0.1,0.2,0.1,0.2c0,0-0.1,0-0.2,0c0,0,0.1,0,0.1,0.1c0,0.1,0,0.2-0.1,0.2c0,0-0.1-0.1-0.1-0.1
	c-0.1,0.1-0.1,0.1-0.2,0.2c-0.1,0.1,0,0.3-0.1,0.4c-0.1,0.1,0-0.1-0.1-0.2c-0.1-0.2-0.2-0.1-0.1-0.3c0.1-0.1,0.4-0.5,0.2-0.4
	c-0.2,0.1-0.3,0.8-0.5,0.4c-0.1-0.1-0.1-0.3-0.1-0.4c0-0.1,0.2,0,0.6-0.1c0.2-0.1,0.2-0.5,0.2-0.5c0-0.5-0.4,0.2-0.6,0.2
	c-0.1,0-0.1-0.2-0.1-0.2c0,0-0.3-0.4-0.2-0.4c0.1,0,0.3,0.1,0.4,0.2c0.1,0.1,0.2,0.3,0.2,0.2c0-0.1-0.2-0.2-0.2-0.3
	c0-0.1,0.2-0.1,0.4-0.2c0,0,0-0.1-0.1-0.1c-0.1,0-0.4,0.2-0.5,0.1c-0.2-0.1,0-0.5,0.1-0.5c0.1-0.1,0.3,0.2,0.4,0.2
	c0,0,0.4-0.4,0.8-0.2c0.1,0.1,0.1,0.2,0.3,0.3s-0.1-0.3,0.3-0.4c0.5-0.1,0,0.8,0.5,0.7c0.3,0-0.1-0.3-0.1-0.5c0-0.2,0.9,0.3,0.8-0.3
	c0-0.1-0.2,0.1-0.4,0.1c-0.1,0-0.1-0.1-0.1-0.2c0-0.2,0.5-0.4,0.3-0.5c-0.4-0.2-0.3,0.6-0.3,0.7c0,0-0.2,0.1-0.4,0.1
	c0,0,0-0.1,0-0.1c-0.1-0.1-0.3-0.1-0.4-0.2c-0.1-0.1,0.1-0.3,0.2-0.4c0.2-0.8-0.2,0.5-0.3,0.6c0,0-0.6-0.2-0.7-0.2
	c-0.1,0,0,0.1-0.1,0.1c-0.2,0.1-0.4,0.1-0.6,0.1c0,0-0.3-0.3-0.3-0.4c0.1-0.1,0.2-0.2,0.4-0.2c0.1,0,0.4,0.1,0.4,0
	c0-0.1-0.3,0-0.4,0c-0.1,0-0.2,0.1-0.2,0.1c-0.4-0.1,0.1-0.3,0.2-0.3c0.2,0,0.5,0.2,0.7,0.1c0.2-0.2-0.6,0.1-0.7-0.2
	c0-0.1,0.4-0.1,0.3-0.1c-0.1-0.1-0.3,0-0.4-0.1c-0.2-0.1-0.1-0.4,0.1-0.5c-0.1,0-0.3,0.1-0.3,0.1s0.1,0,0.3-0.1
	c0.1-0.1,0.2-0.2,0.3-0.2c0.2,0,0.4,0,0.5,0.2c0.1,0.1-0.1,0.2-0.1,0.3c0.1,0.1,0-0.2,0.1-0.2c0.1,0,0.1,0.2,0.2,0.2
	c0.1,0-0.1-0.1-0.1-0.2c0.1-0.1,0.5,0.3,0.8,0c0.1-0.1-0.1-0.1-0.2-0.1c-0.6,0,0.3,0.1-0.2,0.2c-0.1,0-0.6-0.2-0.9-0.3
	c-0.1,0-0.2-0.1-0.2-0.1c-0.1,0-0.3,0.2-0.3,0.1c0-0.1,0.3-0.1,0.3-0.2c0-0.2-0.3-0.2-0.3-0.4c0-0.1,0.2,0,0.2,0.1
	c0.1,0.1,0.1,0.3,0.2,0.3c0.1,0-0.1-0.3,0-0.3c0.1,0,0.2,0.3,0.4,0.3c0.1,0,0.1-0.3,0.1-0.3c0.1,0.1,0,0.2,0,0.4c0,0,0,0.1,0,0.1
	c0.1,0,0.1-0.3,0.2-0.3c0.1,0,0,0.1,0.1,0.2c0.1,0.1,0.3,0.2,0.3,0.1c0-0.1-0.2-0.1-0.3-0.1C31,34.5,31,34.4,31,34.3
	c0-0.1,0-0.1,0.1-0.2c0,0,0-0.1,0-0.1c0,0,0,0,0,0l0,0c0.1-0.1,0.2-0.1,0.3-0.1c0.1,0,0,0.2,0.1,0.2c0.1,0.1,0.1,0.2,0.2,0.3
	c0,0-0.1,0.1-0.1,0.1c0.1,0,0.1-0.1,0.1-0.1c-0.1-0.4-0.5-0.6,0.2-0.7c0.5-0.1,0,1.8,0.5,0.8c0-0.1-0.2,0-0.2-0.1
	c-0.1-0.1,0-0.3,0.1-0.3c0.1-0.1,0.4,0.1,0.4,0c0-0.1-0.3,0-0.4-0.1C32,34.1,32,34,32,33.9c-0.1-0.1-0.6-0.3-0.6-0.3
	c0,0,0.1-0.1,0.1-0.1c0.1,0,0.2,0,0.2,0c0,0,0,0.1,0.1,0.1c0.1,0,0.3-0.4,0.5-0.2c0.1,0.1,0,0.2,0.1,0.3c0.1,0,0-0.2,0-0.2
	c0.1-0.1,0.4,0.3,0.4,0.3c0.1,0,0.3-0.1,0.3-0.2c-0.1-0.1-0.3,0.1-0.4,0c-0.1-0.1,0.2-0.4,0.4-0.4c0.1,0,0.2,0.1,0.4,0.1
	c0.1,0,0-0.2-0.1-0.1c-0.2,0-0.5,0.2-0.7,0.2c-1.1,0-0.1-0.1-0.2-0.3c0-0.1-0.2-0.1-0.3-0.2c-0.1-0.1-0.1-0.3,0.4-0.2
	c0.1,0,0.1,0.2,0.2,0.2c0.1,0,0.1-0.1,0.2-0.1c0.1,0,0.2,0,0.4,0c0.2,0,0.1,0.3,0.2,0.4c0.1,0.1,0.2,0.1,0.3,0.2c0,0,0,0.2,0.1,0.2
	c0.2,0,0-0.2-0.2-0.3c-0.1,0-0.1-0.1-0.2-0.1c0-0.1,0.1-0.1,0-0.2c-0.1-0.1-0.3-0.1-0.3-0.2c0-0.1,0.1-0.2,0.2-0.2
	c0.1,0,0,0.1,0,0.2c0.1,0.1,0.2,0.1,0.2,0.2c0,0.1-0.1,0.2,0,0.2c0.1,0.1,0.3,0.2,0.4,0.1c0.1-0.1-0.3-0.2-0.3-0.3
	c0-0.1,0.2,0,0.3-0.1c0,0-0.1,0-0.2,0c0,0,0.1-0.1,0.1-0.1c-0.1,0-0.2,0.1-0.2,0.1c-0.1-0.1-0.2-0.2-0.2-0.4c0-0.1,0.1,0.1,0.1,0.1
	c0.1,0-0.2-0.2,0-0.1c0,0,0.7,0.4,0.7-0.1c-0.1-0.6-0.6,0.5-0.5-0.2c0-0.2,0.4-0.4,0.6-0.4c0.1,0.1,0,0.3,0.1,0.4
	c0,0.1,0.1-0.1,0.1-0.1c0.1,0,0.3,0,0.3-0.1c-0.1-0.1-0.3,0.2-0.3,0.1c0-0.1,0.2-0.2,0.3-0.3c0.1-0.1,0.1-0.3,0.2-0.3
	c0.1,0,0.1,0.2,0.1,0.3c0,0.1,0.2,0.1,0.2,0.2c0,0.1-0.2,0.2-0.1,0.3c0,0.1,0.1-0.1,0.2-0.1c0.1,0,0.2,0.3,0.3,0.2
	c0.1-0.1-0.2-0.2-0.2-0.4c0-0.1,0.7,0,0.7,0c0.1-0.1,0.1-0.3,0.1-0.4c0-0.1-0.2,0.1-0.2,0c0.1-0.2,0.8-0.3,0.7-0.4
	c0-0.1-0.4-0.1-0.4-0.3c0.1-0.1,0.4-0.1,0.4-0.2c0.1-0.7-0.6,0.2-0.7,0.3c-0.1,0.1-0.3,0.1-0.2,0.2c0.1,0.1,0.3,0.1,0.4,0.1
	c0,0,0,0-0.1,0c-0.1,0.1-0.2,0.1-0.3,0.2c-0.1,0.1-0.5,0.5-0.7,0.4c-0.1,0-0.1-0.2-0.1-0.2c0-0.1-0.2-0.1-0.1-0.2
	c0.1-0.1,0.2-0.1,0.3-0.2c0,0-0.1,0.1-0.1,0c0,0,0.1-0.1,0-0.1c-0.1,0.1-0.3,0.3-0.5,0.3c-0.3-0.1,0.1-0.3,0.3-0.5
	c0.1-0.1,0.2-0.1,0.3-0.2c0.1-0.1-0.2,0.1-0.2,0c0,0,0,0,0-0.1c0-0.1,0-0.2,0.1-0.4c0-0.1,0.1,0,0.2,0c0,0-0.1,0-0.1,0
	c0-0.1,0-0.1,0-0.2c0.1-0.1,0.2,0.1,0.2,0c0-0.1,0-0.2,0-0.2c0.1-0.1,0.2-0.1,0.2-0.2c0-0.1-0.2-0.2-0.2-0.2c0.1,0,0.2,0.2,0.4,0.1
	c0.1,0-0.1-0.1-0.2-0.2c-0.1-0.1,0.2-0.3,0.3-0.4c0.1-0.1,0.2,0.3,0.4,0.4c0.1,0,0.2,0,0.3-0.1c0-0.1-0.2,0-0.2-0.1
	c0.1-0.1,0.3-0.1,0.3-0.2c0.1-0.2-0.5,0.4-0.4-0.3c0.2-0.8,0.3,0.8,0.4-0.2c0-0.1-0.2,0-0.2,0c0,0,0.1,0,0.1,0s-0.1,0-0.1,0
	c0,0,0.1-0.1,0.1-0.1c0.1-0.1,0.1-0.1,0.2-0.1c0.1,0,0.2,0.1,0.3,0c0.1-0.1-0.2-0.1-0.2,0c-0.3,0.2-0.4,0.4-0.7,0.5
	c-0.3,0.1,0.5-0.3,0.4-0.4c-0.1-0.1-0.3,0.1-0.4,0.1c-0.2,0,0.3,0,0.3-0.1c0,0-0.1,0-0.1,0c0.1-0.1,0.6-0.1,0.7-0.1c0,0,0-0.1,0-0.2
	c0.3-0.2,0.6-0.1,0.7-0.6c0-0.1-0.1,0.1-0.2,0.1c-0.1,0-0.2,0-0.3,0c-0.1,0-0.2,0.1-0.2,0.1c0-0.2,0.7-0.2,0.5-0.5
	c-0.1-0.1-0.6,0.1-0.4-0.3c0.1-0.1,0.3-0.1,0.4-0.1c0,0-0.1,0-0.1,0c-0.1-0.1-0.1-0.2-0.1-0.2c0-0.1,0.1-0.5,0.2-0.5
	c0.1,0,0.2,0.2,0.4,0.2c0.1,0-0.1-0.1-0.1-0.2c0-0.1,0-0.2-0.1-0.3c-0.1-0.1-0.2,0.1-0.3,0c-0.3-0.2,0.3-0.1,0.4-0.2
	c0.2-0.1,0.2-0.3,0.4-0.2c0.1,0,0.2,0.2,0.3,0.2c0.1,0-0.1-0.1-0.2-0.2c0-0.1,0.1,0,0.1,0c0.1-0.1,0.2-0.1,0.3-0.2
	c0.1-0.1-0.3,0.2-0.5,0.2c0,0,0-0.1,0-0.1c-0.2,0-0.3,0.3-0.5,0.3c-0.6-0.1,0.3-0.2,0.4-0.3c0,0-0.1,0-0.1,0c-0.1,0-0.2,0-0.4,0
	c-0.2,0-0.1-0.3-0.1-0.5c0.1-0.7,0.4-0.4,0.8-0.5c0.2-0.1-0.3-0.3-0.4-0.4c0-0.1,0.2,0,0.2-0.1c0.1,0-0.3-0.3,0.1-0.2
	c0,0-0.1,0.1-0.1,0.1c0,0.2,0.1-0.1,0.1-0.2c0,0,0-0.1,0.1-0.1c0.1,0.1,0,0.2,0.1,0.2c0.1,0,0.3-0.1,0.4-0.2
	c0.1-0.1-0.2-0.2-0.2-0.3c0,0,0.4-0.3,0.6-0.2c0.1,0-0.1,0.3,0,0.3c0.1,0,0-0.2,0.1-0.3c0.4-0.3,0.3,0.8,0.6,0.1
	c0.1-0.2-0.3-0.1-0.4,0c-0.1,0-0.2,0-0.2-0.1c-0.1,0,0.1-0.1,0.1-0.2c-0.1,0-0.1,0.1-0.2,0.1c-0.2,0.1-0.4,0.2-0.6,0.1
	c-0.1-0.1,0.1-0.2,0.2-0.2c0.1-0.2,0.1-0.8,0.4-0.6c0.1,0.1-0.3,0.2-0.2,0.2c0.1,0.1,0.2-0.1,0.3-0.1c0.1,0,0.2,0,0.2,0.1
	c0.1,0.1,0.3,0.5,0.2,0.4c0-0.1-0.2-0.2-0.2-0.4c0-0.1,0.2-0.1,0.3-0.2c0-0.1-0.1,0-0.2,0.1c-0.3,0.1-0.4,0.2-0.5-0.1
	c-0.1-0.2,0.1-0.1,0.1-0.2c0,0-0.1,0-0.1,0c-0.1-0.2,0.4,0.1,0.5,0c0.1-0.2-0.4-0.4-0.5-0.4s0,0.1,0,0.1c-0.1,0.1-0.4,0.5-0.5,0.4
	c-0.1-0.1-0.1-0.2-0.1-0.4c0-0.1,0.2,0,0.3-0.1c0.1-0.1-0.2,0.1-0.2,0c-0.1-0.1,0.2-0.2,0.3-0.1c0,0,0,0.1,0,0.1
	c0.3-0.3,0.7-0.1,0.7-0.5c0-0.1-0.1,0.1-0.2,0c0,0,0-0.1,0-0.1c0,0,0,0.1,0,0.1c-0.1,0-0.1,0-0.2,0c-0.1,0-0.2,0.1-0.3,0
	c-0.2-0.5,0.5-0.1,0.5-0.1c0.1-0.1,0-0.3,0.1-0.4c0-0.1,0.1,0.1,0.1,0.2c0,0,0.1,0,0.1,0c0,0.1-0.1,0.2,0,0.3c0,0,0.4,0.6,0.5,0.5
	c0.2-0.2-0.7-1-0.4-1.2c0.1-0.1,0.5,0.3,0.6,0.4c0.1,0-0.1-0.1-0.2-0.1c0-0.1,0-0.1-0.1-0.2c-0.1-0.1-0.4,0-0.3-0.2
	c0-0.1,0.2-0.1,0.4-0.1c0.8-0.1,0.1,0.2,0.6,0.5c0.3,0.2-0.4-0.5-0.1-0.5c0.1,0,0.1,0.1,0.2,0.1c0.1,0,0.3,0,0.2-0.1
	c-0.1-0.7-0.5,0-0.7,0c0,0,0.1-0.1,0.1-0.1c0,0-0.1-0.1-0.1-0.1c-0.1,0-0.1,0.1-0.1,0.1c-0.1,0-0.3,0-0.3-0.1c0-0.1,0-0.1,0-0.2
	c-0.1,0-0.2,0.1-0.3,0.1c-0.1,0.1,0,0.3-0.1,0.4c-0.1,0.1,0-0.2-0.1-0.3c-0.1-0.1-0.2,0-0.3,0c-0.1,0,0,0.1-0.1,0.2
	C40,20,39.9,20,39.9,20.1c-0.1,0.1-0.1,0.1-0.2,0.2c0,0,0-0.1,0-0.1c0.1-0.1,0.1-0.2,0.2-0.4c0-0.1-0.1-0.2,0-0.2
	c0.1-0.1,0.3-0.1,0.4-0.1c0.4-0.4-0.6-0.2-0.1-0.8c0.5-0.5,0.2,0.9,0.2,1c-0.1,0.1,0-0.3,0.2-0.3c0,0,0.1,0.1,0.1,0.1
	c0-0.1,0-0.9,0.3-0.5c0.1,0.2,0.2,0.4,0.2,0.4c0.1-0.1,0.2-0.1,0.3-0.1c0.1,0,0.1,0.1,0.2,0.1c0.1,0,0.3,0,0.4-0.1
	c0.2-0.1-0.4,0-0.4-0.2c0-0.1,0.1-0.2,0.2-0.2c0.1,0,0.3,0.2,0.3,0.1c0-0.1-0.3,0-0.3-0.2c0-0.1,0.2-0.1,0.3-0.1c0,0-0.1,0-0.1,0
	c-0.1-0.1-0.2-0.3-0.1-0.4c0-0.1,0.4,0,0.4-0.2c0-0.1-0.1-0.2-0.1-0.4s0-0.3,0.1-0.4c0.1-0.1,0.1,0.4,0.2,0.4s0.3,0,0.4-0.1
	c0,0-0.5-0.2-0.5-0.3s0.2-0.3,0.3-0.3c0.1,0,0.1,0.2,0.2,0.3c0.1,0.1,0.2,0.1,0.3,0.2c0.1,0.1,0.1,0.3,0.1,0.2
	c0.1-0.4-0.9-0.3-0.5-1.2c0.1-0.1,0.4-0.3,0.5-0.2c0.1,0.1,0,0.9,0,0.9c0,0,0.1-0.1,0.1-0.1c0-0.1-0.1-0.2,0-0.3
	c0.1-0.1,0.3,0.1,0.3-0.1c0-0.1-0.2-0.1-0.3-0.2c0-0.1,0.1-0.9,0.4-0.5c0.1,0.1,0,1.1,0,1.1c0,0.1-0.3,0.3-0.1,0.4
	c0.3,0.1,0.2-0.5,0.3-0.6c0.1-0.1,0.3,0,0.4-0.1c0.1,0-0.1-0.1-0.1-0.1c-0.1-0.1-0.4-0.2-0.3-0.5c0.5-1,0,0.1,0.5-0.2
	c0.1-0.1,0-0.4,0.1-0.5c0,0,0.1,0,0.1,0.1c0,0,0,0.1,0.1,0.1c0.1,0.1,0.2,0.1,0.3,0.2c0.1,0.1,0.1,0.2,0.2,0.2
	c0.1,0-0.2-0.1-0.2-0.2c0,0,0.1,0,0.1-0.1c0-0.2,0-0.6-0.1-0.6c-0.1,0-0.6,0.4-0.7-0.1c-0.1-0.3,0.4-0.4,0.6-0.4
	c0.1,0,0.2,0.2,0.3,0.2c0,0,0-0.1,0-0.1c0,0,0.1,0,0.1,0c0.1,0,0.2,0,0.3,0c0.2,0.1-0.1,0.6,0.4,0.5c0.1,0,0.1-0.1,0.1-0.2
	c0-0.1-0.1,0-0.2,0c-0.1,0-0.1,0-0.1-0.1c0-0.1,0.2,0,0.1-0.2c-0.1-0.1-0.1-0.2,0-0.5c0.1-0.5,0.5-0.2,0.6-0.3
	c0.1-0.1-0.2-0.1-0.2-0.1c-0.1-0.3,0.4-0.2,0.4-0.3c0.1-0.2-0.5-0.4-0.5-0.4c0-0.1,0.3,0.1,0.3,0.1c0.1-0.1-0.2-0.3-0.1-0.4
	c0-0.1,0.4-0.1,0.7-0.1c-0.7-0.7,0.3-0.7,0.3-0.3c0,0.1-0.2,0.2-0.3,0.3c0.2,0,0.3,0,0.3,0.1c0,0.1-0.4,0.9-0.4,1c0,0.1,0.2,0,0.2,0
	c-0.1,0-0.2,0-0.2,0c0,0.1,0.1,0,0.2,0c0.2,0.2-0.3,0.2,0,0.3c0.1,0-0.1,0.2-0.1,0.3c0,0,0,0.5,0.3,0.2c0.1-0.1,0-0.2,0-0.2
	c0-0.1,0.1-0.2,0.1-0.3c0-0.1-0.2,0-0.1-0.1c0.1-0.3,0.4-1.5,0.6-1.6c0,0,0.1,0.5,0.1,0.5c0,0.1-0.2,0.2-0.2,0.3
	c0,0.1,0.2-0.1,0.2-0.1c0.1,0.1-0.1,0.3,0,0.4c0.1,0.1,0.3,0,0.4-0.1c0.1-0.1-0.2-0.1-0.2-0.2c0-0.1-0.1-0.3,0-0.4
	c0.1-0.1,0.2-0.1,0.3-0.2c0,0-0.1,0-0.1,0c-0.1-0.1-0.3-0.1-0.3-0.2c0-0.1,0.3,0,0.3-0.1c0.1-0.1-0.1-0.3-0.1-0.4
	c0-0.1,0.1,0.2,0.2,0.1c0.1-0.1,0.2-0.2,0.5,0c0.2,0.1-0.4,0.9-0.4,1c0,0,0.1-0.1,0.1-0.1c0.1-0.1,0.2-0.3,0.3-0.3
	c0.1,0,0,0.2,0,0.2c-0.1,0.1-0.3,0.2-0.2,0.4c0.1,0.1,0.2-0.2,0.4-0.1c0.1,0.1-0.1,0.2-0.1,0.3c0,0.2,0.2,0.3,0.2,0.5
	c0,0.1-0.1,0.1-0.1,0.2c0,0,0.1,0,0.1-0.1c0-0.1,0-0.1,0-0.2c-0.1-0.6-0.1,0.2-0.2-0.6c0-0.3,0.1-0.1,0.2-0.1
	c0.1-0.1-0.2-0.2-0.2-0.2c0-0.1,0-0.7,0-0.8c0.3-0.4,0.5,0.4,0.5,0.4c1.2,0.1-0.6-0.7,0.5-0.3c0.6,0.2,0.2,0.2,0.1,0.4
	c0,0,0.1,0,0.1,0c0.1,0,0.2-0.1,0.3-0.1c0,0,0,0.1,0,0.1c0.1,0,0.1,0,0.2,0.1c0,0,0,0.1,0.1,0.1c0.1,0.1,0.2,0.1,0.3,0.2
	c0,0-0.1,0-0.1,0.1c-0.1,0.1-0.2,0.1-0.3,0.2c-0.1,0.1,0,0.4-0.2,0.5c-0.4,0.2-0.9-0.1-1.2,0.3c-0.1,0,0.1-0.1,0.2-0.1
	c0.1,0,0.2,0,0.2,0c0,0,0,0,0.1,0c0.1,0,0.3-0.1,0.4,0c0.1,0.1-0.2,0.2-0.2,0.3c0.1,0.1,0.1-0.2,0.2-0.2c0.2,0.1,0,0.6,0,0.7
	c0,0.1,0-0.2,0.1-0.2c0.1-0.1,0.3,0,0.4,0c0,0-0.1-0.1-0.1-0.1c0-0.1,0-0.2,0-0.3c0,0,0,0.1,0,0.1c0.1,0,0.3,0,0.4,0
	c0.2,0,0.8,0,0.9,0c0.1-0.1-0.1-0.1-0.2-0.2c0-0.1,0-0.3,0-0.4c0-0.1,0.5,0.2,0.6,0.2c0.1,0.1,0.4-0.2,0.5-0.1
	c0.1,0.1,0.1,0.3-0.1,0.4c-0.2,0.2-0.5-0.3-0.7-0.2c-0.1,0.1,0,0.3,0.1,0.4c0.1,0.1,0.2-0.2,0.3-0.1c0.1,0.1,0,0.2,0,0.3
	c0,0-0.1,0.1-0.1,0c0.1-0.2,1-0.5,1-0.3c0.1,0.4-0.2-0.2-0.1,0.4c0,0.1,0.2,0.1,0.2,0.2c0,0.2-0.5,0.3-0.1,0.5c0.1,0-0.1-0.2,0-0.2
	c0-0.1,0.2-0.2,0.2-0.4c0,0,0-0.1,0-0.1c0.1-0.1,0.1-0.3,0.2-0.4c0.3-0.2,0.4,0.1,0.6,0c0.4-0.1,0.6-0.3,1.1-0.2
	c0.5,0.1,1.3,0.3,1.9,0.5c0.1,0.1,0.2,0.2,0.3,0.2c0.1,0,0.2,0,0.3,0.1c0.1,0,0.1,0.2,0.1,0.2c0.1,0,0.3,0.1,0.3,0
	c0.1-0.1-0.2-0.1-0.3-0.1c0,0,0.1,0,0.1,0c0,0,0-0.1,0-0.1c0.2,0,1.2,0.5,1.3,0.3c0-0.1-0.2-0.2-0.2-0.3c0-0.1,0.1,0.1,0.2,0.1
	c0.1,0.1,0.2,0.2,0.3,0.2c0.1,0,0.2,0,0.2,0c0.1,0.1,0.2,0.2,0.2,0.3c0.1,0.1,0.3-0.1,0.4-0.1c0.2,0,0.1,0.4,0.3,0.5c0,0,0,0,0.1,0
	c0.2,0.1,0.2,0.4,0.3,0.4c0.1,0.1,0.2-0.1,0.3,0c0.2,0.2,0.3,1,0.2,1.2c0,0.3,0,0.4,0,0.6c-0.2,0.8-1,1.7-1.8,1.8
	c-0.3,0.1-0.5-0.1-0.9-0.1c-0.4,0-0.7,0.2-1,0.2c-0.2,0-0.3,0.1-0.5,0.1c-0.2,0-0.6-0.3-0.8-0.2c-0.1,0-0.1,0.2-0.2,0.2
	c-0.1,0-0.1-0.1-0.2-0.1c-0.1,0-0.2,0-0.3,0c-0.1-0.1,0.1-0.2,0-0.2c-0.1,0,0,0.2-0.1,0.2c-0.1,0.1-0.2,0.1-0.4,0.1
	c-0.1,0-0.8-0.2-0.9-0.4c0-0.1,0.1-0.2,0.1-0.3c0,0-0.9,0.1-1,0.1c0,0,0,0.1,0.1,0.1c0.3,0,0.5-0.2,0.7,0.1c0,0-0.1,0-0.1,0.1
	c0,0,0.1,0,0.1,0c0,0-0.1,0.1,0,0.1c0,0,0.1-0.1,0.1,0c0.1,0.1,0.2,0.3,0.4,0.3c0.6,0.1,0.3-0.1,0.8,0.2c0.1,0.1,0.2,0.1,0.2,0.2
	c0,0.1-0.4,0.2-0.3,0.4c0.1,0.1,0.2-0.1,0.2-0.1c0.1,0,1.2,0.2,1.3,0.4c0.1,0.2,0.1,0.1,0.2,0.3c0.1,0.1,0.3,0.1,0.2,0.2
	c-0.1,0.1-0.2-0.1-0.3-0.1c0,0,0.3,0.4,0.3,0.4c0.2,0.6-0.1,0.1-0.2,0.6c0,0.1,0.1,0,0.2,0c0.1,0.1,0.6,0.5,0.6,0.6
	c0,0.1-0.1,0.1-0.1,0.1c0,0.1,0.3,0.1,0.3,0.2c0,0.1-0.2,0.2-0.1,0.2c0.1,0.1,0.2-0.2,0.2-0.1c0.1,0.1-0.1,0.1-0.1,0.2
	c0,0.1,0,0.3,0.1,0.4c0,0,0.8,0.2,0.8,0.2c0.1,0-0.1-0.4,0.7-0.1c1.5,0.6-0.9-0.3,0.4,0.4c0,0,1.3,0,1.3-0.1c0.1-0.1,0-0.2,0-0.3
	c0-0.1,0.1,0,0.2,0c0.2-0.3,0-0.7-0.2-0.9c-0.1-0.1-0.1,0-0.3-0.1c-0.1,0,0-0.1-0.1-0.1c-0.1,0,0,0.1-0.1,0.1c0,0,0,0.1,0,0.1
	C62.4,24,62.2,24,62,24c-0.1,0-1.3-0.8-1.2-0.9c0.1-0.1,0.2-0.1,0.3-0.2c0.1-0.1-0.2-0.3-0.2-0.4c0-0.5,1.3,0.2,1.3,0.2
	c0.1,0,0.3-0.2,0.4-0.1c0.1,0,0.1,0.1,0.1,0.2c0,0-0.1-0.1-0.1,0c-0.2,0.1-0.3,0.3-0.1,0.5c0,0,0.1-0.1,0.1-0.1c0-0.1,0-0.1,0-0.1
	c0-0.1,0.1-0.2,0.2-0.3c0.2-0.2,1.1,0.1,1.2,0.1c0.1-0.1,0.1-0.2,0.1-0.3c0.2-0.1,0.4,0.2,0.7,0c0.1-0.1-0.2-0.2-0.3-0.4
	c0,0,0.1-0.1,0.1-0.1c-0.1-0.3-1.1-0.7-1.4-1c-0.4-0.4,0.1-0.7,0.2-1.1c0.1-0.2,0-0.4,0.1-0.5c0.2-0.3,0.4-0.4,0.6-0.8
	c0-0.1,0-1,0.1-1c0.1,0,0.2,0,0.4,0c0.2,0,0.1,0.2,0.1,0.2c0.5-0.3,0.2-0.5,0.7-0.3c0.1,0,0.3,0,0.4,0.1c0.2,0.1-0.1,0.3-0.2,0.5
	c0,0.1,0.4,0.3,0.3,0.2c0-0.1-0.2-0.1-0.2-0.2c0-0.2,0.1-0.4,0.3-0.4c0.3,0,0.4,0.5,0.6,0.5c0,0-0.1-0.1-0.5-0.6
	c-0.3-0.4-0.1-0.8-0.2-1.2c0,0,0,0.1-0.1,0.1c-0.1-0.1-0.2-0.1-0.2-0.2c0,0,0-0.1,0-0.1c0-0.1,0-0.1-0.1-0.2
	c-0.1-0.1-0.5-0.3-0.6-0.4c-0.1,0-0.2,0.1-0.4,0.1c-0.2-0.1-0.2-0.6-0.2-0.7c-0.1-0.3,0-0.4,0-0.4c-0.1-0.1-0.3-0.4-0.3-0.5
	c0-0.1,0.1-0.2,0.1-0.4c0-0.1-0.1,0.2-0.1,0.2C63.6,13.4,64,13,63,12.8c0,0-0.7-0.1-0.5-0.3c0.2-0.2,0.5,0,0.7,0
	c0.2,0,0.7-0.5,0.8-0.6c0.2-0.1,0.4-0.2,0.7-0.1c0,0,0,0.1,0,0.1c0.1,0.1,0.1,0.2,0.2,0.2c0.4,0.2,0.9,0.2,1.1,0.7
	c0,0-0.3,0.2-0.4,0.3c-0.1,0.1-0.6,0.4-0.5,0.6c0,0,0.1,0,0.1,0c0.1,0.1,0.1,0.1,0.1,0.2c0,0.2-0.3,0.4,0,0.7c0.2,0.1,0.6,0,0.8,0.1
	c0.2,0.1,0.5,0.6,0.8,0.5c0.1-0.1,0.2-0.5,0.4-0.4c0.1,0.1-0.1,0.3,0,0.4c0.1,0.1,0-0.2,0.1-0.3c0.1-0.2,0.3-0.4,0.5-0.6
	c0.1,0,0.1,0.1,0.2,0c0.1-0.1-0.3-0.6-0.3-0.7c-0.1-0.1-0.1-0.5-0.1-0.6c-0.1-0.2-0.4-0.1-0.3-0.4c0-0.1,0.2,0.1,0.2,0.1
	c0-0.1-0.1-0.2,0-0.3c0-0.1,0.2,0,0.2-0.1c0,0,0-0.1,0-0.2c0.1-0.1,0.3,0,0.4-0.1c0.1-0.1-0.3,0.1-0.4,0c-0.1-0.1-0.1-0.2-0.1-0.2
	c-0.1-0.1-0.2,0-0.3-0.1s0.2,0.1,0.2,0c0.1,0,0.2-0.1,0.3-0.2c0.1-0.2,0.1-0.6,0.2-0.8c0-0.1,0,0.1,0,0.2c0,0,0.1-0.1,0.1-0.1
	c0-0.3,0-0.7,0.1-1c0-0.1,0.2,0,0.2-0.1c0.1-0.1,0.1-0.2,0.1-0.3c0,0,0.1,0,0.1-0.1c0,0-0.1-0.1-0.1-0.1c0-0.1,0.1,0,0.1-0.1
	c0.1-0.1,0-0.3,0.1-0.4c0.3-0.2,0.3,0.5,0.5,0.5c0.1,0,0.1-0.3,0.1-0.4c0,0,0-0.1,0-0.1c-0.1-0.1-0.2,0-0.4-0.1c-0.1,0,0-0.2,0-0.2
	c0,0-0.1,0.1-0.1,0.2c0,0,0,0.1,0,0.1c0,0-0.1,0.1-0.1,0c-0.1-0.4,0.4-1.6,0.8-1.9c0,0,0.1-0.1,0.1,0c0,0.1,0,0.1-0.1,0.2
	c0,0-0.4,0.4-0.4,0.5c0.1,0.1,0.2-0.1,0.3-0.1c0.1,0,0,0.1,0,0.2c0,0.1,0.1,0.2,0.1,0.4c0.1,0.1,0.4,0.1,0.5,0.3
	c0.1,0.2-0.9,0.7-0.1,0.6c0.1,0,0.1-0.2,0.2-0.2c0.1-0.1,0.2,0,0.2-0.1c0.1-0.1-0.1-0.2,0-0.3c0.1-0.1,0.1,0.2,0.2,0.2
	c0.1-0.1-0.1-0.3,0.1-0.4c0.1-0.1,0.3,0.1,0.4,0.1c0.1,0-0.3-0.4-0.3-0.5c-0.1-0.4,0.1-0.4,0.2-0.7c0-0.1,0-0.2,0-0.3
	c0,0,0.1,0,0.2,0c0.5-0.1,0.2-0.2,0.3-0.3c0.1,0,0.2,0,0.2,0C72,6.2,72.1,6.1,72.2,6C72.3,5.9,72,5.7,72,5.6c0-0.1,0.2-0.1,0.2-0.2
	c0-0.1-0.1-0.3,0-0.4c0.1-0.1,0.4,0.3,0.4,0.1c0-0.1-0.3-0.1-0.4-0.2c0,0,0.2-0.5,0.2-0.5c0.1,0,0,0.1,0.1,0.1
	c0.1,0,0.1-0.1,0.2-0.1c0.9,0,0.2,0.2,0.5,0.5c0.3,0.4,0.2,0.4,0.6,0.2c0.1-0.1,0.2,0,0.3-0.1c0.3-0.6-0.4-0.3-0.5-0.7
	c0-0.1,0.2-0.3,0.3-0.4c0.1-0.2-0.1-0.4,0-0.6c0.1-0.2-1.4-0.5-1.6-0.6c-0.3-0.1,0.1-0.3,0.1-0.5C72.3,2.1,72,2,72,1.8
	c0-0.1,0.6-0.2,0.6-0.2c0.4-0.2,0.7-0.7,1.2-0.9c0.4-0.2,1-0.4,1.5-0.4c0,0,0.1,0,0.1,0c0.1,0,0.2,0,0.3-0.1C75.8,0.2,75.9,0.1,76,0
	c0.2-0.1-0.3,0.2,0,0.2c-0.2,0-0.2,0.8,0.1,0.9c0.7,0.6,1.3,1.3,2.1,1.5c0.7,0.2,1.3,0.3,2,0.4c0.3,2.6,0.3,5.2,0.3,7.9l0.2,0.3
	c0.1,0.2-0.2,0-0.2,0.2c0,1.1,1.2,1.8,1.5,2.8c0.1,0.3,0.4,0.4,0.7,0.5c0.3,0.2,0.4,0.6,0.7,0.8c2.2,2.1,3.7,4.3,5.4,7
	c0.5,0.7,1.2,1.3,1.9,1.8c1.1,0.7,2.5,0.6,3.6,1c0.6,0.2,0.7,1.2,1.2,1.8c0.2,0.2,0.4,0.4,0.5,0.6c0.6,0.9,1,1.8,1.4,2.6
	c0.2,0.5,0.4,1.7-0.4,1.8c0.1,0.6-0.3,1.4,0.2,1.8c0.5,0.5,0.8,1.1,0.7,1.8c0.7-0.1,1,1,1.7,1.1c0.1,0,0.2,0,0.3-0.1
	c-0.3,0.1,0,0.2,0,0.3c0,0.1-0.4,0.2-0.5,0.3c-0.1,0.1,0.3,0.4,0.2,0.5c-0.1,0.1-0.2,0-0.2,0.1c0,0.1,0,0.1,0,0.2
	c-0.1,0.2-0.6-0.2-0.7-0.2c-0.1,0-0.1,0.1-0.2,0.2c-0.1,0.1-0.4,0.2-0.4,0.3c0,0.1,0.1,0.1,0.2,0.1c0,0.2-0.4,0-0.4,0
	c-0.1,0.2,0.3,0.3,0.1,0.5c0,0.1-0.2,0-0.2,0.1c-0.1,0.1,0.2,0.3,0.2,0.4c0,0-0.2,0.8-0.2,0.8c-0.1,0.1-0.3-0.1-0.4-0.1
	c-0.1,0-0.1,0.1-0.1,0.1c-0.2,0.1-1.4-0.4-1.4,0c0,0.1,0,0.2,0.1,0.2c0.1,0,0.2-0.1,0.3,0c0.1,0.1,0.4,0.5,0.4,0.7
	c-0.1,0.1-0.3,0.2-0.4,0.1c-0.1-0.1-0.1-0.2-0.2-0.3c0-0.1,0-0.2,0-0.2l-0.5,0c0,0-1.2,0.6-0.9,1.3c0.3,0.7,0.7,0.3,1,1.3
	c0.3,1-0.2,1,0.2,1.6c0.4,0.5,1.2,1.1,1.4,1.6c0.2,0.5,0,0.6,0.2,1.3c0.2,0.7,0.2,1,0.4,1.6c0.2,0.6,0.6,1.4,0.6,1.4l-0.4,0.1
	l-0.2,0.1c0,0-0.4-0.1-0.6-0.1c-0.2,0-0.5,0.1-0.6,0.3c-0.1,0.2,0,0.7-0.1,0.6c-0.1-0.1-0.2,0.1-0.2,0.2c0,0.1,0,0.3-0.1,0.2
	c-0.1-0.1-0.2,0.1-0.2,0.1c0,0.1,0.1,0.4-0.1,0.4c-0.2-0.1-0.1,0.4-0.1,0.4s-0.3,0.7-0.4,0.7c-0.1,0-0.2,0-0.2,0.1
	c0,0.1-0.2-0.1-0.3,0C95,54,95.2,54.5,95.2,54.5z M66.6,93.5c-0.2,0.4,0.2,0.1,0,0.7c0,0.1-1.5,0.4-1.6,0.4c-0.1,0-1.1,0.5-1.2,0.4
	c-0.3-0.4,0.2-0.3-0.8-0.4c-1-0.1,0.2,0.1-0.6,0.1c-0.1,0-0.1-0.1-0.1-0.1c-0.1,0-0.2,0-0.4,0c-0.1,0-0.3,0.1-0.4,0.1
	c-0.3,0-0.2-0.3-0.1-0.4c0-0.1-0.1-0.3,0-0.4c0.2-0.5,0.4,0.1,0.5,0.1c0.1,0.1,0.3,0,0.4-0.1c0.1,0,0.1-0.3,0.2-0.2
	c0.1,0.1-0.2,0.1-0.2,0.2c0,0.1,0.2,0,0.3,0.1c0.1,0,0.2,0.2,0.3,0.2c0.1,0,0.2-0.1,0.2-0.1c0.2-0.1,0.3-0.2,0.5-0.2
	c0.2-0.1,0.4,0,0.6-0.1c0.1,0,0,0.1,0.1,0.1c0.2,0.1,0.4-0.1,0.6-0.1c0.1,0,0.1,0.1,0.1,0.1c0.1,0,0.4-0.3,0.6-0.2
	c0,0-0.3,0.4,0.2,0.5c0.1,0,0.1-0.2,0.2-0.2C66.3,93.6,66.2,94.1,66.6,93.5z M59.6,86.2c0.3,0.2,0.3,0.3,0.6,0.5c0.1,0,0.1,0,0.2,0
	c0,0,0.1-0.1,0.1-0.1c0.1,0,0.2,0.2,0.3,0.2c0.1,0,0.5-0.2,0.5-0.1c0,0,0,0,0,0.1c0,0,0,0.1,0,0.1c0.1,0.1,0.2,0.1,0.2,0.2
	c0,0,0,0.5,0.2,0.7c0.2,0.1,1-0.1,0.7,0.4c-0.2,0.3-0.6-0.1-0.7-0.2c0,0,0.1-0.1,0-0.1c0-0.1-0.1-0.1-0.1-0.1c0,0-0.1,0.1-0.1,0.1
	c0-0.1,0.1-0.1,0.1-0.1c-0.1-0.1-0.2-0.2-0.4-0.2c-0.2-0.1-0.5,0.3-0.7,0c0,0,0.1-0.1,0-0.2c-0.1-0.2-1.1-0.7-1.3-0.6
	c-0.1,0-0.1,0.2-0.2,0.2c0,0,0.1-0.1,0.1-0.1c0.1-0.1,0.1-0.1,0.2-0.2c0.1-0.1,0.1-0.1,0.2-0.2C59.3,86.3,59.5,86.3,59.6,86.2z
	 M21.8,87.4c-0.1,0.1-0.3,0.1-0.3,0.2c0,0.1,0.1,0.2,0.2,0.2c0.1,0,0.2,0,0.3-0.1c0.1-0.1,0-0.2,0-0.2L21.8,87.4L21.8,87.4z
	 M21.4,86.8c-0.1,0-0.2,0.1-0.2,0.2c-0.1,0.1-0.2,0.3,0,0.3c0.1,0.1,0.4-0.1,0.4-0.2c0-0.1,0.1-0.1,0.1-0.2c0-0.1-0.1-0.2-0.1-0.2
	L21.4,86.8z M25,85.7c0.4,1-0.1,0.3-0.3,0.2c-0.1,0-0.2,0.1-0.4,0C23.9,85.6,24.4,85.5,25,85.7z M23.6,86.3
	c-0.4-0.4-0.8,0.3-0.5-0.6c-0.5,0.1-1.1,0.3-1.5,0.7c0,0-0.1,0.1,0,0.1c0.1,0.1,0.2,0.1,0.4,0.1c0.1,0,0.2-0.1,0.2,0
	c0.1,0.1,0.1,0.2,0.1,0.4c0.1,0.3,0.1,0,0.4,0.1c0.1,0.1,0.1,0.2,0.2,0.2C22.8,87.3,23.7,86.4,23.6,86.3z M34.1,83.3
	c0.1,0.2,0.8,0.2,0.7,0.6c0,0.1-0.3,0.1-0.3,0.2c0,0.1,0.3,0.1,0.4,0.2c0,0-0.1,0.1-0.1,0.1c0.1,0.6,0.3-0.3,0.3,0.6
	c0,0.3-0.3,0.4-0.4,0.7c-0.1,0.2,0.2,0.2,0.2,0.4c0,0.1-0.1,0.1-0.1,0.2c-0.1,0.6,0,1.4-0.3,2c0,0,0-0.1,0-0.1
	c-0.2-0.1-0.6-0.3-0.9-0.3c-0.1,0,0.1,0.1,0.1,0.1c0,0.1-0.1,0.1-0.1,0.2c-0.1,0.4,0.2,0.3-0.3,0.6c-0.7,0.3-0.3-0.3-0.6-0.5
	c-0.1,0-0.2,0.1-0.3,0.1c-0.1,0,0.2,0,0.2-0.1c0-0.1-0.2-0.2-0.2-0.3c-0.1-0.4,0.1-0.6,0.2-0.9c0-0.1-0.1-0.2,0-0.4
	c0-0.1,0.2-0.2,0.2-0.3c0-0.1-0.2,0-0.3-0.1c-0.1-0.1,0-0.2,0-0.3c0,0-0.1,0-0.1,0c0-0.1,0.1,0,0.2-0.1c0.1-0.2-0.2-1-0.3-1.2
	c-0.2-0.2-0.4,0.5-0.3-0.4c0-0.1,0.1-0.2,0.2-0.3c0-0.1-0.1-0.1,0-0.2c0,0,0.1,0.4,0.5,0.4C32.9,84.3,33.9,83.5,34.1,83.3z
	 M34.4,79.2c0.2,0.2,0,0.7,0,0.9c0,0.1,0.2,0.2,0.1,0.2c0-0.1-0.1-0.3-0.1-0.2c0,0.1,0.1,0.2,0.1,0.3c0.1,0.1,0.1,0.5,0.1,0.6
	c0,0.3-0.3,0.5-0.3,0.7c0,0.2,0.1,0.5-0.1,0.8c0,0-0.1,0-0.1,0c0,0.1,0.1,0,0.1,0c0,0.1-0.1,0.1-0.1,0.1c-0.1,0.1,0,0.3-0.1,0.4
	c-0.2,0.2-0.2-0.3-0.2-0.3c-0.2-0.1-0.4,0.1-0.5-0.2c0-0.1,0.1-0.1,0-0.2c-0.1-0.1-0.3-0.1-0.2-0.3c0-0.1,0.3-0.2,0.3-0.4
	c0-0.1-0.3,0.1-0.3,0c0-0.1,0.2-0.2,0.2-0.3c0-0.1-0.3-0.1-0.3-0.2c0-0.1,0.2-0.1,0.2-0.3c0-0.1-0.2-0.2-0.2-0.3
	c0-0.1,0.2,0,0.2-0.1c0-0.1,0-0.3,0.1-0.4c0,0,0.1,0.1,0.1,0.1c0.1,0,0.1-0.1,0.2-0.2c0.1,0,0.2,0,0.2,0c0.1-0.1,0.1-0.2,0.2-0.2
	c0.1,0,0.2,0.1,0.3,0.1c0.1,0,0-0.2,0-0.4C34.2,79.5,34.3,79.4,34.4,79.2z M37.8,27.1c-0.1,0.1-0.2,0.2-0.3,0.3c0,0-0.1,0.1-0.1,0.1
	C37.4,27.4,37.4,26.4,37.8,27.1z M38.4,20.9C38.4,20.9,38.4,20.9,38.4,20.9c0-0.1,0.1-0.2,0.1-0.2c0-0.1-0.1-0.3,0.1-0.3
	C39.2,20.2,38.6,20.8,38.4,20.9z M38.1,20.9c-0.1,0.2,0.1,0.2-0.3,0.6c0,0,0-0.1,0-0.1C37.9,21.2,37.9,21,38.1,20.9z M46.5,43.8
	c0.2,0.3,0,0.3-0.2,0.7c-0.2,0.4,0.3,0.3,0.3,0.5c0,0.1-0.2,0.1-0.2,0.2c-0.2,0.3,0.2,0.1-0.2,0.3c-0.3,0.2-0.1,0.2-0.2,0.5
	c-0.1,0.1-0.2,0.4-0.2,0.3c-0.1-0.1,0.1-0.3,0.1-0.4c0,0,0,0.1-0.1,0.1c0,0,0,0,0-0.1c0-0.1-0.2-0.3-0.2-0.4c0-0.1,0.1-0.2,0.1-0.3
	c0-0.1-0.1-0.2-0.1-0.3c0-0.1,0.5-0.9,0.6-1C46.2,43.8,46.4,43.8,46.5,43.8z M37,51.4c0.2,0.2,0.6,0.3,0.8,0.5h0
	c-0.1-0.1-0.3-0.3-0.2-0.4c0-0.1,0.1,0,0.2-0.1c0.1,0.1,0.4,0.1,0.4,0.3c0,0.1-0.2,0.2-0.2,0.3l0,0c0,0,0,0,0,0c0,0.1,0.1,0.2,0,0.3
	c0,0-0.1,0-0.1-0.1c0-0.1-0.1-0.1-0.1-0.2c-0.1,0-0.2,0-0.3,0c-0.1,0-0.2,0.2-0.3,0.2c-0.1,0-0.2-0.2-0.3-0.3
	c-0.1-0.1-0.2-0.1-0.3-0.1C36.7,51.8,36.9,51.7,37,51.4z M36.2,50c0.3,0.7-0.1,0.1,0.1,0.3c0.1,0.2,0.4,1-0.2,0.9
	c-0.1,0-0.3-0.1-0.4-0.2c-0.1,0-0.1,0.1-0.2,0.1c-0.1-0.1,0.3-0.1,0.1-0.2c-0.5-0.2,0,0.1-0.1,0.1c-0.1,0-0.2-0.5-0.2-0.5
	c-0.1-0.1-0.2-0.2-0.3-0.4c0-0.1,0.1-0.1,0.2-0.1c0.1,0,0.1,0.1,0.1,0.1c0.2-0.1,0.3-0.4,0.5-0.3c0.1,0,0.2,0.2,0.3,0.2
	C36.2,50.1,36.2,50,36.2,50z M38.7,48.8c0,0,0.1,0.1,0.1,0.1c0,0.1-0.1,0.2-0.1,0.3c0,0.4,0.4,0.3,0,0.7c-0.1,0.1-0.2,0.1-0.3,0.2
	c-0.3,0.3,0.4,0.3,0.3,0.5c-0.1,0.2-0.6,0.1-0.6,0.3c0,0.2,0.4,0.4,0,0.5c-0.2,0-0.3-0.1-0.5-0.2c-0.1,0,0.2,0.2,0.2,0.1
	c0-0.1-0.1-0.3-0.2-0.4c0,0,0,0.1-0.1,0.1c-0.1,0-0.2-0.1-0.3-0.1c-0.1,0-0.2,0.1-0.2,0.1c0,0,0-0.1,0-0.1c0.1-0.3-0.2-0.2-0.2-0.3
	c0-0.1,0.1-0.1,0.1-0.1c0.1-0.5-0.1-0.4-0.4-0.6c0-0.1-0.1-0.1-0.1-0.2c0.2-0.1,1,0.1,0.9-0.4c0-0.1-0.2-0.1-0.3-0.1
	c-0.1,0,0.1,0,0.2,0c0.1,0,0.2,0.1,0.3,0.1c0.3,0,0.7-0.1,0.6,0.4c0,0.1-0.2,0.2-0.2,0.2c0.3,0.3,0.2-0.4,0.2-0.6
	c0-0.1-0.3,0-0.3-0.1C38,48.6,38.4,48.7,38.7,48.8z M39.6,52.8c0-0.2,0-0.4,0-0.5c0.1-0.2,0.6,0.3,0.5,0.1c-0.1-0.1-0.3-0.1-0.4-0.2
	c0-0.1,0.1-0.2,0.2-0.3c0.1-0.1-0.1,0.2,0,0.2c0.1,0,0.2,0,0.4,0c0.1,0-0.1,0.2-0.1,0.3c0,0.1,0.2,0.1,0.2,0.3c0,0-0.2,0.2-0.5,0.3
	C39.9,53.1,39.7,52.9,39.6,52.8z M16.1,50.7c-0.1,0-0.2,0-0.3,0.1c-0.1,0.1-0.1,0.2-0.2,0.2C14.9,51.7,16.1,51.5,16.1,50.7z
	 M15.8,41.1c-0.1,0.1-0.3,0.3-0.4,0.4c0,0.1,0,0.6-0.3,0.6c-0.1,0-0.1-0.2-0.2-0.3c-0.1-0.1,0,0.3-0.1,0.4c-0.1,0-0.1-0.1-0.2,0
	c-0.1,0.1-0.1,0.3-0.3,0.3c-0.1,0-0.2-0.2-0.2-0.3c0.1-0.1,0.4,0.1,0.4-0.1c0.1-0.1-0.2-0.1-0.3-0.3c0-0.1,0.1,0,0.2-0.1
	c0,0-0.1,0-0.1,0c0-0.1-0.1-0.1,0-0.2c0.2-0.4,0.3,0,0.5,0c0,0-0.1-0.3,0-0.3c0.2-0.2,0.2,0,0.4,0c0,0,0-0.1,0-0.1
	c0.1-0.1,0.2-0.2,0.3-0.2C15.8,40.8,15.8,41,15.8,41.1z M44.3,45.4c-0.1,0.3-0.4,1.5-0.4,1.9c0,0.1,0,0.8-0.2,0.8
	c0,0-0.1-0.8-0.1-0.9c0-0.5,0.4-0.8,0.5-1.3c0-0.2-0.1-0.3,0.1-0.5C44.2,45.4,44.3,45.4,44.3,45.4z M36.5,28.1
	c-0.1,0.1-0.4,0.2-0.4,0.2S36.3,28.2,36.5,28.1z M34.2,31C34.1,31,34.1,31,34.2,31c-0.2,0.1-0.2,0.1-0.3,0.1
	c-0.7,0.1,0.2-0.3,0.2-0.3C34.2,30.8,34.2,30.9,34.2,31z M34.5,31.4c-0.1,0.1-0.4,0.2-0.4,0.2S34.4,31.4,34.5,31.4z M33.3,31.9
	c0,0,0.1-0.1,0.2-0.1C33.4,31.8,33.3,31.9,33.3,31.9z M31.1,34.1c-0.1,0.1-0.1,0.1-0.2,0.1c-0.1,0-0.1-0.1,0-0.2
	C30.9,34,31,34.1,31.1,34.1z M31.1,34.1c-0.1,0-0.2,0-0.2,0S31,34.1,31.1,34.1z M30.8,34.3c0,0,0-0.1,0-0.1
	C30.8,34.3,30.8,34.3,30.8,34.3z M17.3,32c-0.2,0.4,0.1-0.1,0.1,0.2c0,0-0.1,0-0.1,0.1c0,0.1,0.2,0.1,0.2,0.1c0,0.1,0,0.3-0.2,0.3
	c-0.1,0,0-0.2,0-0.3C17.3,32.2,16.7,32,17.3,32z M17,33.7c0,0.2-0.1,0.4-0.1,0.4S17,33.9,17,33.7z M30.5,37.9c0,0.2,0,0.3,0,0.5
	c-0.1,0.2-0.4-0.1-0.4-0.2C30,38.1,30.3,38,30.5,37.9z M22.6,37.5c0,0.1,0,0.1,0,0.1c0,0-0.1,0-0.1,0c0,0.1,0.2-0.1,0.2-0.1
	c0.1,0-0.1,0.1-0.1,0.1c0,0,0.1,0.1,0.1,0.1c0,0-0.1-0.1-0.1,0c0,0,0.1,0,0.1,0.1c0,0.2-0.2,0.1-0.2,0.2c0,0.2,0,0.4-0.3,0.8
	c0,0,0-0.1,0-0.1c0.1-0.2,0.3-0.6,0.2-0.7c-0.1-0.1-0.1,0.2-0.2,0.1C22,38.1,22,38,21.9,37.9c0,0,0.1,0,0.1,0c0.1,0,0.3,0,0.4,0
	C22.5,37.7,22.5,37.6,22.6,37.5z M29.9,39.6C29.9,39.6,29.9,39.6,29.9,39.6C29.9,39.5,30,39.6,29.9,39.6
	C29.9,39.6,29.9,39.6,29.9,39.6z M30,39.5C30,39.6,30,39.6,30,39.5C30.1,40.4,29.7,39.8,30,39.5z M29.7,40.9
	C29.7,40.9,29.7,40.8,29.7,40.9C29.7,40.9,29.7,40.9,29.7,40.9z M29.7,40.8c0,0.2,0.1,0.4,0,0.6C29.5,41.8,29.7,40.9,29.7,40.8z
	 M20.2,40.7c-0.2,0.5-1.3-0.5-0.5-0.6c0.1,0,0.2,0.1,0.2,0.2c0,0.1-0.2,0.1-0.2,0.1c0.1,0.1,0.2,0.1,0.3,0.1
	C20.1,40.7,20.1,40.7,20.2,40.7z M50.4,40.4c0,0,0.1,0,0.1,0c0,0,0,0.1,0,0.2c0.1,0,0.2-0.1,0.3,0c0.6,0.4,0,0.3,0,0.4
	c-0.1,0.3,0.4,0.1-0.3,0.4c-0.2,0.1-0.2-0.3-0.2-0.3c-0.1-0.2-0.4-0.1-0.5-0.2c-0.1,0,0.3-0.1,0.4-0.1
	C50.3,40.7,50.4,40.5,50.4,40.4z M51.1,41.4c0.2,0.2,0.2,0.2,0.5,0.3c0.1,0.1-0.2-0.2-0.1,0c0.1,0.2,0-0.1-0.1-0.1
	c-0.1,0,0,0.2-0.1,0.3c0,0-0.1-0.1-0.1-0.1c0,0,0,0.1,0,0.2c-0.1,0.2-0.3,0.2-0.3,0.2c0,0,0,0.1-0.1,0.1c-0.1,0.1-0.2,0.1-0.3,0.1
	c0,0,0,0,0,0c0,0.1,0,0.3,0,0.4c0,0.1-0.2,0.3-0.2,0.2c-0.2-0.2,0.2-0.4,0.2-0.6c0-0.1-0.1,0-0.2,0c-0.1-0.1-0.3-0.1-0.3-0.2
	c0-0.1,0.2-0.1,0.1-0.2c0-0.1-0.3-0.2-0.2-0.3c0-0.1,0.2,0.1,0.3,0.1c0.1,0-0.1-0.3,0.1-0.3c0.1,0,0.1,0.2,0.1,0.1
	C50.4,41.4,50.6,41.6,51.1,41.4z M44.9,14.5c0-0.1,0.2-0.2,0.1-0.3c0-0.1-0.2,0-0.3,0c-0.1,0,0.1,0,0.2,0c0,0-0.1-0.1,0-0.1
	c0.1,0,0.1,0.1,0.2,0.1c0.1,0-0.1-0.2-0.1-0.2c0,0,0,0.1,0.1,0.1c0,0,0-0.1,0-0.1c0.1-0.1,0.1,0.4,0.2,0.2c0-0.1-0.1-0.1-0.1-0.2
	c0.1-0.1,0.3-0.2,0.5-0.3c0,0-0.1,0-0.1,0.1c0,0,0.1,0,0.1,0c0,0.1-0.1,0.1-0.1,0.2C45.5,14.2,45.3,14.4,44.9,14.5z M46.1,14.1
	c0.1-0.1,0.1-0.4,0.1-0.4S46.1,14,46.1,14.1z M45.7,14.8c-0.1-0.1-0.2-0.1-0.3-0.2C45.4,14.2,46.8,13.2,45.7,14.8z M45.6,14.9
	c-0.1,0-0.4,0-0.4,0S45.5,14.9,45.6,14.9z M43.3,15.7c-0.1-0.1-0.2-0.2-0.2-0.3c0-0.1,0.2,0,0.2,0C43.3,15.5,43.3,15.6,43.3,15.7z
	 M43.7,15.6c0-0.1-0.1-0.2-0.1-0.2c0-0.1,0.1-0.1,0.2-0.2c0,0,0.1,0,0.1,0C43.9,15.4,43.8,15.5,43.7,15.6z M70.9,2.8
	c-0.1,0-0.9-0.2-0.9-0.3c0-0.1,0.2-0.1,0.2-0.2c0-0.1-0.2,0.1-0.3,0c0,0,0.1-0.1,0.1-0.1c0-0.1-0.1-0.3,0-0.4
	C70.1,1.6,70.6,2,70.7,2c0.2,0,1.3-0.2,1.3,0.3c0,0.1-0.4,0.5-0.5,0.5c-0.1,0-0.2-0.2-0.4-0.2C71.1,2.6,71,2.8,70.9,2.8z M43.3,15.9
	C43.3,15.9,43.3,15.8,43.3,15.9C43.3,15.8,43.3,15.8,43.3,15.9C43.3,15.9,43.3,15.9,43.3,15.9z M42.7,16.4c-0.1-0.1-0.4-0.1-0.3-0.3
	C42.5,15.7,43.9,15.8,42.7,16.4z M42.1,17.1c-0.1,0-0.2-0.1-0.2-0.1S42,17.1,42.1,17.1z M41.3,18.4c-0.1-0.1-0.3,0-0.2-0.1
	c0-0.1,0.3-0.2,0.3-0.3c0-0.1-0.2,0.1-0.2,0c0-0.1,0.2-0.2,0.1-0.3c0-0.1-0.2,0-0.2,0c0.2-0.1,0.6,0,0.5-0.2c-0.1-0.1-0.3,0-0.2-0.1
	c0.1-0.1,0.2,0.1,0.3,0c0.1-0.1,0-0.3,0.2-0.3c0.3-0.1,0.2,0.9,0.2,1c-0.1,0-0.3-0.1-0.4,0C41.4,18,41.4,18.3,41.3,18.4z M65.5,9.6
	c-0.4-0.7-0.4-1.3,0.6-1.3c0.3,0,0.5,0,0.7,0.2c0.1,0.1,0.1,0.3,0.1,0.4c-0.1,0.1-0.1-0.3-0.2-0.3c-0.1,0,0,0.7,0,0.8
	c0,0.2-0.2,0.6-0.4,0.7c0,0-0.1-0.1-0.1,0C65.8,10.2,65.7,10,65.5,9.6z M40,18.8c0-0.1,0-0.2,0-0.2S39.9,18.7,40,18.8z M39.5,19.5
	c0.5-0.4,0.2-0.4,0.2-0.3c0,0.2-0.2,0.1-0.3,0.1c-0.1,0.1-0.2,0.3-0.2,0.2c-0.1-0.3,0.4-0.8,0.7-0.5c0,0-0.1,0.1-0.1,0.1
	c0.1,0.2,0.5,0.2-0.1,0.4C39.6,19.6,39.6,19.5,39.5,19.5z M39.1,20.6C39.1,20.5,39,20.5,39.1,20.6C39,20.5,39.1,20.5,39.1,20.6z
	 M13.4,50.9c0,0.1,0.2,0.2,0.1,0.2c-0.1,0.1-0.3,0-0.4,0.1c-0.1,0.1,0.1,0.1,0.1,0.2c0,0.1-0.1,0.3-0.1,0.4c0,0.1,0.1,0.2,0.1,0.3
	c0,0.1-0.1,0.1-0.1,0.2c0,0.1,0.1,0.1,0.1,0.2c-0.1,0.1-0.2-0.1-0.2,0c-0.1,0.1,0.1,0.1,0.1,0.2c0,0,0,0.1,0,0.1
	c0,0.2,0.1,0.4,0,0.6c-0.1,0.2-0.7,1.1-0.8,1.2c0,0-0.1,0.1-0.1,0.1c0,0.1,0,0.3,0,0.4c0,0,0,0,0,0c-0.1-0.1-0.1,0-0.3,0
	c-0.1,0-0.1-0.1-0.1-0.1c-0.1,0-0.5,0.2-0.6,0.1c0,0,0.1,0,0.1-0.1c0-0.1-0.1,0.1-0.2,0c-0.3,0-0.4-0.2-0.6-0.1c0,0,0.1,0.1,0.1,0.1
	c0,0.1-0.3,0.2-0.3,0.2c-0.1,0-0.1-0.1-0.2-0.1c-0.1,0.1-0.2,0.2-0.3,0.3c-0.4,0.2-0.1-0.3-0.5-0.3c-0.1,0,0.1,0.2,0.1,0.3
	c-0.1,0.1-0.2,0.1-0.3,0.1c-0.1,0-0.1,0.1-0.2,0.2c0,0,0-0.1-0.1-0.1c0,0-0.1-0.1-0.1-0.1c0,0,0,0.1-0.1,0.2c-0.2,0-0.5-0.2-0.6-0.2
	c-0.1,0-0.2,0.1-0.4,0.1c-0.4,0,0.2-0.2-0.1-0.2c-0.1,0-0.5,0.1-0.6,0.1c-0.1-0.1,0.6-0.3,0.7-0.5c0,0-0.1,0-0.1-0.1
	c0,0-0.4,0.1-0.9,0c0,0,0,0,0.3-0.1c0,0,0.1,0,0.1-0.1c0,0-0.1,0,0-0.1c0.2-0.1,0.1,0.1,0.3,0c0.1,0,0.4-0.1,0.3-0.1
	c0,0-0.8,0.1-0.9,0.1c-0.2,0-0.3-0.3-0.3-0.5c0-0.1,0.2,0.1,0.2,0c0.1,0,0-0.1,0-0.1c0-0.2,0.3-0.1,0.5-0.1c0.1,0,0.3,0,0.4-0.1
	c0.1-0.1-0.2-0.2-0.3-0.1c0,0,0,0.1,0,0.1c0,0-0.5-0.2-0.7-0.4c0,0,0.1,0.1,0.1,0c0,0,0-0.1,0-0.1c0.1-0.1,0.3,0,0.5,0
	c0.2,0,0.3,0.2,0.4,0.2c0.1,0.1-0.3-0.3-0.2-0.4c0.1-0.1,0.3,0,0.4-0.1c0.1,0,0.1-0.1,0.1-0.2c0,0,1.2,0.2,1.3,0.1
	c0.1-0.1-0.2,0-0.3-0.1c0-0.1,0.1-0.1,0-0.2c0,0-0.4,0.3-0.5,0.3c0,0,0.1-0.1,0.1-0.1c-0.1,0-0.1,0.1-0.2,0c-0.1,0-0.1-0.1-0.2-0.1
	c0,0,0-0.1,0-0.1c0,0-0.5,0.1-0.6,0.1c-0.1,0,0.1,0,0.2,0c0.1-0.1,0.2-0.2,0.4-0.2c0,0,0.1,0,0.1,0c0.1-0.1,0.1-0.2,0.2-0.3
	c0,0,0.1-0.1,0.1-0.1c0,0-0.1,0-0.2-0.1c-0.1-0.1,0.2-0.2,0.2-0.2C8.7,52.1,8.7,52,8.8,52c0.1,0,0.1,0.1,0.1,0.1
	c0.1,0,0.3-0.1,0.4-0.1c0,0-0.1,0-0.1,0c0-0.1,0.1,0,0.1-0.1c0-0.1-0.4,0-0.8-0.1c-0.4-0.1,0-0.1-0.1-0.4C8.4,51,7.9,51.2,7.8,51
	c-0.4-0.5,0.3-0.3,0.4-0.3c0,0-0.1-0.1-0.1-0.1c0.1-0.1,0.2-0.2,0.3-0.3c0.1,0,0.3,0.1,0.4,0.1c0,0,0.1,0,0.1-0.1
	c0.2-0.5-0.4-0.1-0.5-0.3c0-0.1,0.2,0,0.2-0.1c0.1-0.1-0.1-0.2-0.1-0.3c0-0.1,0.2-0.3,0.1-0.4c-0.1-0.1-0.2,0.2-0.3,0.1
	c-0.1-0.1,0.1-0.2,0.1-0.2c0-0.1-0.2-0.1,0-0.1c0.2,0,1,0,1.1,0.2c0.1,0.1,0,0.3,0.1,0.4c0.1,0,0.1-0.2,0.2-0.2
	c0.2-0.1,0.6,0.4,0.6,0.4c0.1-0.1-0.1-0.3-0.1-0.4c0-0.2,0.6-0.1,0.6-0.1c0.1-0.1,0.2-0.2,0.3-0.3c0.1-0.1-0.3,0-0.3,0
	c-0.1-0.2,0,0.1-0.2,0.1c0,0,0-0.1,0-0.1c0,0,0-0.1,0-0.1c-0.1,0-0.4-0.1-0.4-0.3c0.1-0.4,0.5,0,0.6,0c0.1,0-0.2-0.1-0.2-0.2
	c0.1-0.1,0.2,0.1,0.3,0.1c0.1,0-0.1-0.1-0.1-0.2c0,0,0.1,0,0.1-0.1c0.1-0.3-0.7,0,0.2-0.4c0.1,0,0.1,0,0.2,0.1
	c0.2,0.1,0.5,0.1,0.7,0.2c0.1,0.1-0.3,0.3-0.2,0.4c0.1,0.1,0.2-0.1,0.3-0.1c0,0-0.1-0.2,0-0.2c0.2,0.1,0.3,0.4,0.4,0.4
	c0.1-0.1,0.1-0.2,0.2-0.3c0.1-0.1,0.2,0.1,0.3,0.1c0.1,0,0.2-0.1,0.3-0.1c0.1,0,0.2,0.1,0.3,0.2c0.1,0,0.2,0,0.2,0
	c0.1,0.1,0.1,0.3,0.1,0.4c0,0.1-0.1,0.1-0.1,0.1c0.2,0.8,0.1-0.2,0.3,0.4c0.1,0.2-0.4,0.5-0.4,0.5c0.3-0.1,0.6-0.3,0.6,0.4
	c-0.1,0.7-0.6,0.3-0.7,0.5c-0.1,0.1,0,0.4-0.4,0.4C13.5,51.1,13.4,50.9,13.4,50.9z M4.3,23.4c-0.1,0-1.2-0.6-1.2-0.6
	c-0.1-0.1,0.2-0.1,0.2-0.2c0.1-0.1,0-0.4,0.1-0.3c0.1,0.1,0.1,0.3,0.1,0.4c0,0,0-0.1,0.1-0.1c0.1,0,0.3,0.1,0.4,0.1
	c0.5-0.2-0.2-0.4,0.5-0.5c0.1,0,0.2,0.1,0.4,0.1c0.1,0-0.1-0.1-0.2-0.2c0,0-0.1,0-0.1,0c-0.1,0-0.3,0-0.4,0c-0.1-0.1,0.2,0,0.3,0
	c0,0-0.1-0.1-0.1-0.1c0-0.1,0.1-0.2,0.2-0.2c0.1,0,0.1,0,0.2,0c0.1,0,0.3,0,0.4-0.1c0.1,0-0.1,0-0.2-0.1c-0.1,0-0.5,0.2-0.6,0.2
	c-0.1,0,0.1-0.2,0.1-0.3c0-0.1-0.1-0.2-0.1-0.3s0.2-0.2,0.2-0.3c0-0.1-0.2,0-0.2,0c-0.1,0,0-0.2-0.1-0.1c0,0,0.1,0.1,0,0.1
	c-0.1-0.1-0.3-0.3-0.4-0.4c0,0-0.1,0-0.1,0c0,0-0.1,0.1-0.1,0c0,0,0-0.1-0.1-0.1c-0.1,0-1,0-0.3-0.4c0.2-0.1,0.2,0.1,0.3,0.2
	c0.2,0.1,0.4-0.1,0.6-0.1c0.1,0-0.1,0.2-0.1,0.2c0.1,0.1,0.1-0.1,0.2-0.1c0.1,0,0.3-0.1,0.4,0c0.1,0.1,0,0.2,0,0.3
	c0,0.1,0-0.1,0-0.1c0.1-0.1,1.4,0.8,1,0c-0.1-0.1-0.2,0.1-0.4,0.1c-0.2,0-0.3-0.2-0.4-0.4c0,0,0,0,0,0c0.2-0.1,0.5-0.2,0.7-0.2
	c0.1,0,0.2,0.1,0.3,0c0.1-0.1-0.5-0.1-0.5-0.3c0-0.1,0.4-0.1,0.4-0.2c0-0.8-0.6,0.1-0.7-0.1c0-0.1,0.1-0.2,0-0.3
	c0,0-0.1,0.1-0.1,0.1c0,0,0-0.1,0-0.1c-0.1,0-0.1,0.2-0.2,0c0,0,0-0.1,0-0.1c-0.1,0.1-0.1,0.2-0.2,0.2c-0.1,0,0-0.1-0.1-0.1
	c-0.1,0-0.6,0.2-0.6-0.1c0-0.1,0.1-0.1,0.1-0.1c-0.1-0.2-0.5-0.1-0.4-0.3c0.1-0.7,0.6,0.3,0.7,0.3c0.2-0.2-0.3-0.7,0.1-0.7
	c0.3,0,0.1,1.2,0.5,0.6c0.1-0.1-0.2-0.2-0.1-0.2c0.1-0.1,0.3,0.1,0.4,0c0.1-0.1-0.2,0-0.3-0.1c-0.1-0.1-0.1-0.3-0.2-0.4
	c-0.1-0.6,0.3,0.5,0.5,0.4c0.1-0.1-0.5-0.5-0.3-0.7C4.8,17.7,4.9,18.1,5,18c0.1-0.1-0.3-0.6,0.2-0.4c0.4,0.2-0.1,0.9,0.4,1.2
	c0,0,0.3-0.1,0.3-0.5c0-0.1-0.1,0-0.1-0.1c-0.1-0.1-0.2-0.4-0.2-0.5c0.1-0.1,0.4,0.1,0.5,0.2c0.1,0-0.2,0-0.2-0.1
	c0-0.1,0.1,0,0.1-0.1c0,0,0-0.1,0-0.1c-0.2,0-0.2,0.4-0.5-0.2C5.4,17,5.9,17.4,6,17.4c0,0,0,0,0,0c0,0,0-0.1,0-0.1
	C6,17.3,6,17.4,6.1,17.5c0.1,0.1,0.2,0,0.3,0.1c0.2,0.1-0.1,0.3-0.1,0.4c0,0,0.1,0,0.1,0c0,0,0.1,0.1,0.1,0.2c0,0-0.1,0-0.1,0
	c0,0.1,0.2,0.1,0.2,0.1c0,0.1-0.2,0.2-0.1,0.4c0,0.1,0.3,0,0.3,0.1c0,0.1-0.3-0.1-0.3,0c0,0.1,0.8,0.4,0,0.6c-0.1,0-0.2-0.2-0.3-0.3
	c-0.1,0,0,0.1,0.1,0.2c0,0.1,0.2,0.3,0.2,0.4C6.3,19.9,6,19.9,6,20c0,0.1,0.2,0,0.2,0.1c0,0.1-0.1,0.2-0.1,0.3
	c0,0.1-0.2,0.3-0.1,0.3c0.4,0.1,0.4-0.7,0.6-0.8c0.7-0.4,0.2,0.1,0.2,0.2c-0.1,0.4,0.4,0,0.5-0.1c0.2-0.2,0.1-1,0.3-0.9
	c0.6,0.1,0.1,0.8,0.4,1.1c0.3,0.2,0.1-0.3,0.2-0.5c0-0.1,0.1-0.2,0.2-0.2c0.1,0,0.1,0,0.2,0.1c0,0,0,0.1,0,0.1
	c0.1,0,0.3-0.2,0.4-0.2c0.1,0.1,0.1,0.2,0.1,0.4c0,0.1-0.1,0.1-0.1,0.2c0.1,0.4,0.3-0.3,0.2,0.3c-0.1,0.4-0.2,0.2-0.1,0.5
	c0.1,0.6,0.1-1.2,0.3-1.2c0.5-0.1,0.4,0.6,0.4,0.8c0,0,0-0.1,0-0.1c0,0,0.1,0,0.1,0c-0.1-0.2,0,0.1,0,0.1c0,0,0-0.1,0-0.1
	c0.1-0.1,0.3-0.4,0.5-0.4c0.2,0,0.2,0.4,0.3,0.5c0.1,0,0-0.2,0-0.2c0.1-0.1,0.2,0.2,0.2,0.2c0,0,0-0.1,0-0.1c0-0.1,0.1-0.1,0.1-0.2
	c0-0.1,0-0.2,0-0.2c0-0.1,0-0.2,0.1-0.3c0.1-0.1,0.2,0,0.4,0.1c0.3,0.1,0.1,0.2,0.1,0.3c0,0.1,0.1,0.1,0.2,0.1
	c0.1,0.3-0.5,0.3,0.1,0.7c0.1,0,0.1-0.2,0.1-0.2c0.1,0,0.2,0,0.2,0c0.2-0.1,0.3-0.4,0.6,0c0,0.1-0.2,0-0.2,0.1
	c-0.3,0.1-0.4,0-0.5,0.3c0,0,0.1,0,0.1,0.1c0,0.1-0.1,0.1-0.1,0.1c0.1,0.1,0.2,0,0.3,0.1c0.3,0.2-0.4,0.6-0.4,0.6c0,0,0.1-0.1,0.1,0
	c0.1,0,0.2,0.1,0.4,0.2c0,0-0.1,0-0.1,0.1c0,0.1,0.1,0.1,0.1,0.2c0,0-0.1,0-0.1,0c-0.1,0.1-0.5,0.2-0.3,0.3c0.2,0.1,0.3-0.3,0.4-0.2
	c0.1,0.1,0.1,0.1,0.2,0.2c0,0,0.1,0,0.1,0c0.1,0.2,0.2,0.5,0,0.6c-0.1,0.1-0.3,0.1-0.4,0.1c-0.1,0-0.1,0.1-0.1,0.1
	c0.1,0.1,1,0.2,0.2,0.6c-0.2,0.1-0.6-0.3-0.6-0.3c-0.1-0.2,0.6,0.3,0.4,0.4c-0.1,0.1-0.2-0.2-0.3-0.1c-0.1,0.1,0.2,0.1,0.2,0.2
	c0,0-0.1,0.1-0.1,0.1c-0.2,0.1-0.4,0.3-0.5,0.1c-0.1-0.1-0.1-0.4-0.2-0.4c-0.1,0.1,0.2,0.3,0.1,0.4c-0.1,0.1-0.3,0-0.4,0.1
	c-0.1,0.1,0,0.3-0.1,0.4c0,0.1-0.1-0.1-0.2,0c-0.1,0-0.2,0.2-0.3,0.2c-0.1,0-0.1-0.4-0.3-0.5c-0.1,0,0,0.2,0,0.3c0,0-0.1,0-0.1,0
	c0,0,0.1,0.1,0.1,0.1c-0.5,0.1-0.2,0-0.7,0c-0.2,0-0.4,0.2-0.7,0.3c0,0-0.1,0-0.1,0c-0.1-0.1-0.2-0.2-0.3-0.2
	c-0.1,0-0.1,0.2-0.2,0.3c-0.1,0-0.1-0.1-0.2-0.2c-0.1,0-0.5-0.1-0.6-0.1c-0.2-0.1-0.3,0.4-0.3,0.4c-0.1,0.1-0.8,0-0.9,0
	c-0.3-0.1-0.6-0.6-0.7-0.8c-0.2-0.2-0.4,0-0.5-0.4c0-0.1-0.1-0.2-0.1-0.3c0-0.1,0.4-0.2,0.3-0.2C5.1,23.8,5,24.1,4.9,24
	C4.8,24,5,23.8,5,23.6c0-0.1-0.1,0.2-0.2,0.1c-0.1-0.1-0.1-0.2-0.2-0.3C4.5,23.4,4.4,23.4,4.3,23.4z"/>
</svg>
