<?xml version="1.0" encoding="utf-8"?>
<!-- Generator: Adobe Illustrator 21.0.0, SVG Export Plug-In . SVG Version: 6.00 Build 0)  -->
<svg version="1.1" id="Layer_1" xmlns="http://www.w3.org/2000/svg" xmlns:xlink="http://www.w3.org/1999/xlink" x="0px" y="0px"
	 viewBox="0 0 100 100" style="enable-background:new 0 0 100 100;" xml:space="preserve">
<path d="M35.6,100c-0.4-0.1-0.7-0.2-0.8-0.2c-0.2-0.2-0.7-0.4-0.9-0.4c-0.3,0-0.8-0.4-0.9-0.8c0-0.1-0.1-1.2,0-3l0-2.8l0.2-0.3
	c0.1-0.3,0.3-0.9,0.4-1.8c0.1-0.5,0.2-1,0.4-1.4c0.1-0.2,0.1-0.5,0.2-0.8c0-0.3,0.1-0.6,0.1-0.7s0.1-0.5,0.1-0.9
	c0-0.7,0.1-0.8,0.2-1.2c0.2-0.3,0.2-0.5,0.3-1c0-0.3,0.1-0.7,0.1-0.8c0-0.1,0.1-0.8,0.1-1.6c0-1.2,0-1.4,0.1-1.7
	c0.2-0.6,0.3-0.9,0.3-1.3c0-0.2,0.1-0.6,0.1-0.8c0.1-0.2,0.1-0.8,0.1-1.4c0-1.1,0.1-1.6,0.3-1.9c0.1-0.2,0.1-0.5,0.2-1
	c0-0.4,0.1-0.8,0.1-0.8c0,0,0.1-0.3,0.1-0.5c0-0.3,0.1-0.6,0.3-0.9l0.2-0.5l0-0.8c0-0.7,0-0.8-0.2-1.1c-0.1-0.2-0.3-0.5-0.3-0.6
	c-0.2-0.4-0.4-0.8-0.7-1.1c-0.3-0.3-0.5-0.7-0.7-1.3c-0.1-0.2-0.2-0.5-0.4-0.7c-0.1-0.2-0.2-0.3-0.2-0.4s-0.1-0.2-0.2-0.3
	c-0.1-0.1-0.3-0.3-0.3-0.3c-0.3-0.6-0.7-1.2-0.8-1.4c0,0-0.1-0.2-0.2-0.4c-0.1-0.2-0.4-0.7-0.8-1.1c-0.4-0.4-0.6-0.7-0.6-0.8
	c0,0-0.1-0.2-0.2-0.3c-0.1-0.1-0.3-0.4-0.4-0.6c-0.1-0.2-0.2-0.5-0.3-0.5c-0.1-0.1-0.1-0.2-0.1-0.2c0,0-0.1-0.2-0.2-0.3
	c-0.2-0.2-0.7-1.1-0.9-1.6c-0.2-0.4-0.2-0.7-0.1-0.9c0.1-0.1,0.1-0.3,0.1-0.5c0-0.4-0.1-0.5-0.8-0.5c-0.4,0-0.6-0.1-1-0.3
	c-0.3-0.1-0.5-0.2-0.6-0.2c-0.2,0-0.6-0.5-0.9-1.1c-0.2-0.3-0.3-0.6-0.3-0.7c0,0-0.1-0.1-0.2-0.2c-0.1-0.1-0.3-0.4-0.4-0.6
	c-0.2-0.5-0.5-0.9-0.7-1c-0.1-0.1-0.4-0.6-0.6-1.1c-0.1-0.2-0.2-0.4-0.3-0.5c-0.2-0.2-0.3-0.4-0.4-0.8c-0.1-0.2-0.2-0.4-0.3-0.6
	c-0.1-0.1-0.3-0.4-0.3-0.7c-0.2-0.7-0.4-0.9-0.9-1.1c-0.9-0.3-1.2-0.8-1.3-1.7c-0.1-0.7-0.4-1.1-1-1.2c-0.4-0.1-0.6-0.3-0.9-0.6
	c-0.3-0.3-0.9-1.2-0.9-1.3c0,0-0.1-0.2-0.3-0.4c-0.2-0.2-0.4-0.6-0.5-0.8c-0.1-0.2-0.3-0.5-0.4-0.5c-0.1-0.1-0.3-0.3-0.4-0.5
	c-0.2-0.2-0.3-0.5-0.4-0.5c-0.1,0-0.1-0.1-0.1-0.1c0,0-0.1-0.2-0.2-0.3c-0.5-0.6-0.5-1.4,0-1.9c0.1-0.1,0.2-0.2,0.2-0.3
	s0.1-0.2,0.3-0.4c0.2-0.2,0.3-0.3,0.3-0.4s0.1-0.2,0.2-0.4s0.3-0.6,0.3-0.8c0.2-0.5,0.4-0.9,1.1-1.6c0.4-0.4,0.7-0.7,0.7-0.8
	c0.1-0.1,0.1-0.2,0-0.4c-0.1-0.8-0.1-1,0.2-1.6c0.2-0.3,0.4-0.7,0.6-0.9c0.2-0.2,0.3-0.3,0.3-0.3s0.1-0.2,0.3-0.3
	c0.1-0.1,0.3-0.3,0.3-0.3c0,0,0.1-0.1,0.1-0.2c0.1-0.1,0.2-0.3,0.3-0.5c0.1-0.2,0.3-0.6,0.4-0.8c0.3-0.3,0.7-0.8,0.8-0.8
	c0.1,0,0.4-0.4,0.5-0.7c0.2-0.5,0.5-0.9,0.9-1.3c0.5-0.5,0.6-0.7,0.8-1.2c0.1-0.5,0.3-0.9,0.5-1c0.2-0.2,0.6-0.6,0.7-0.9
	c0.2-0.4,0.2-0.5,0.4-0.7c0.1-0.1,0.2-0.4,0.3-0.5c0.1-0.4,0.4-0.8,0.7-1.2c0.1-0.1,0.2-0.3,0.2-0.3c0-0.1,0.4-0.5,0.8-0.9
	c0.1-0.1,0.2-0.2,0.2-0.3c0-0.1,0.3-0.7,0.4-0.8c0-0.1,0.2-0.2,0.3-0.4c0.1-0.2,0.3-0.3,0.3-0.4c0-0.1,1.1-1.2,1.2-1.2
	c0,0,0.2-0.1,0.3-0.2c0.4-0.4,0.9-0.6,1.2-0.5c0.2,0,0.4,0.1,0.5,0.1c0.2,0.1,0.4,0.2,1.5,0.4c0.6,0.2,1,0.3,1.2,0.4
	c0.2,0.1,0.4,0.2,0.5,0.2c0.2,0.1,0.7,0.3,0.8,0.4c0.1,0.1,0.7,0.3,1,0.4c0.2,0,0.5,0.1,0.6,0.2c0.4,0.2,0.9,0.4,1.2,0.6
	c0.1,0.1,0.4,0.2,0.5,0.3c0.8,0.6,1,0.7,1.5,0.7c0.3,0,0.6,0.1,0.8,0.1s0.6,0.1,0.8,0.1c0.4,0,0.5,0,0.8,0.2
	c0.2,0.1,0.3,0.3,0.4,0.3c0.1,0.1,0.2,0.2,0.3,0.2s0.3,0.1,0.5,0.3S44.9,19,45,19c0.2,0,0.4,0.1,1.2,0.5c0.3,0.1,0.8,0.3,1.1,0.4
	c0.3,0.1,0.6,0.2,0.7,0.3c0.1,0.1,0.4,0.2,0.7,0.2c0.9,0.2,0.9,0.2,1.3,0.5c0.2,0.1,0.4,0.2,0.4,0.2s0.2,0.1,0.4,0.3
	c0.2,0.1,0.4,0.3,0.4,0.3c0.1,0,0.1,0,0.2,0.1c0,0,0.3,0.1,0.5,0.1c0.4,0.1,0.5,0.1,0.8,0.3c0.2,0.1,0.5,0.3,0.7,0.5
	c0.2,0.2,0.5,0.3,0.5,0.4c0,0.1,0.1,0.1,0.1,0.1c0.1,0,0.8,0.6,0.9,0.7c0.1,0.2,0.1,1.7,0,2.1c0,0.2-0.2,0.5-0.3,0.6
	c-0.2,0.3-0.2,0.4-0.2,1.1c-0.1,0.7-0.1,1.2-0.4,1.8c-0.1,0.2-0.4,0.8-0.4,0.9c-0.3,0.4-0.4,0.5-0.5,0.5c-0.1,0-0.1,0-0.1,0.1
	c-0.1,0.1-0.7,0.4-1.1,0.5c-0.4,0.1-1,0.3-1,0.4c0,0,0,0.1-0.1,0.1c0,0-0.2,0.1-0.3,0.1C50.1,32,50,32,48.9,32c-1.5,0-1.8,0-2.3,0.4
	c-0.4,0.3-0.9,0.4-1,0.4c-0.1,0-0.2,0.1-0.3,0.2c-0.1,0.1-0.3,0.2-0.4,0.3s-0.7,0-1.4,0c-1.5,0-1.4,0-1.8-0.6
	c-0.5-0.7-0.6-0.8-1-1.1c-0.2-0.1-0.5-0.3-0.5-0.4c-0.1-0.1-0.1-0.1-0.2-0.1c-0.1,0-1-1-1.3-1.4c-0.1-0.1-0.3-0.3-0.5-0.4
	c-0.4-0.2-0.9-0.7-1-1c-0.1-0.2-0.8-0.7-0.9-0.7c0,0-0.1,0-0.1-0.1c0,0-0.1-0.1-0.2-0.2c-0.1-0.1-0.2-0.1-0.2,0
	c-0.2,0.2,0,1.2,0.2,1.6c0.2,0.3,0.2,0.4,0.2,1c0,0.4,0,0.9,0,1.1c0,0.4-0.1,0.5-0.3,0.8c-0.1,0.2-0.3,0.5-0.4,0.6s-0.1,0.3-0.2,0.3
	s-0.1,0.1-0.2,0.2s-0.3,0.5-0.6,0.9c-0.3,0.3-0.5,0.7-0.5,0.7c0,0.1-0.1,0.2-0.3,0.4c-0.2,0.2-0.3,0.3-0.6,0.4
	c-0.2,0.1-0.5,0.1-0.7,0.1c-0.3,0-0.6,0.1-0.6,0.3c0,0.1,0.2,0.3,0.4,0.4c0.4,0.2,1.1,0.4,1.9,0.4c0.4,0,0.9,0.1,1,0.2
	c0.1,0.1,0.2,0.1,0.3,0.1s0.1,0,0.2,0.1c0,0,0.2,0.2,0.4,0.3c0.2,0.1,0.4,0.3,0.6,0.4c0.2,0.1,0.4,0.2,0.5,0.3
	c0.3,0.1,0.5,0.2,0.7,0.3c0.2,0.2,0.7,0.4,1.1,0.5c0.2,0,0.4,0.1,0.5,0.1c0.1,0,0.4,0.2,0.6,0.3c0.4,0.2,0.5,0.2,1,0.3
	c0.4,0,0.7,0.1,0.9,0.2c0.4,0.2,1.3,1.2,1.5,1.5c0.1,0.1,0.2,0.3,0.3,0.4c0.1,0.1,0.1,0.2,0.1,0.2c0,0,0.2,0.2,0.4,0.4
	c0.4,0.4,0.7,0.9,0.7,1.1c0,0.1,0.1,0.3,0.3,0.5c0.1,0.2,0.3,0.4,0.3,0.4c0,0,0.2,0.3,0.5,0.6c0.3,0.3,0.5,0.6,0.5,0.6
	c0,0,0.3,0.5,0.4,0.7c0,0,0.1,0.1,0.1,0.1s0.1,0.1,0.2,0.3c0.2,0.2,0.2,0.3,0.3,0.6c0.1,0.4,0.3,0.7,0.7,0.9c0.3,0.2,0.6,0.6,0.7,1
	c0.1,0.3,0.2,0.4,0.8,1.1c0.4,0.4,0.7,0.8,0.7,0.8s0.1,0.1,0.2,0.3c0.1,0.1,0.2,0.4,0.3,0.6c0.1,0.4,0.2,0.6,0.7,1.1
	c0.2,0.2,0.5,0.6,0.6,0.9c0.2,0.3,0.4,0.7,0.5,0.9c0.1,0.2,0.2,0.4,0.2,0.4s0.2,0.3,0.5,0.6c0.6,0.6,1,1.2,1,1.4
	c0,0.1,0.1,0.2,0.1,0.2c0.1,0.1,0.2,0.2,0.2,0.3c0.1,0.1,0.4,0.5,0.6,0.8c0.5,0.5,0.7,0.8,1,1.9c0.1,0.2,0.2,0.5,0.5,0.8
	c0.3,0.4,0.5,0.5,0.6,0.9c0.1,0.2,0.2,0.5,0.2,0.5c0.2,0.2,0.4,0.7,0.4,0.9c0,0.3-0.3,0.8-0.6,1.1c-0.5,0.4-0.6,0.5-0.7,0.5
	c-0.1,0-0.8,0.3-0.9,0.4c0,0-0.1,0.1-0.1,0.1s-0.2,0.1-0.3,0.3c-0.3,0.4-0.6,0.6-0.8,0.7c-0.1,0-0.3,0.2-0.5,0.3
	c-0.2,0.1-0.4,0.2-0.4,0.2c0,0-0.2,0.1-0.3,0.2c-0.5,0.4-1,0.7-1.6,0.8c-0.5,0.1-0.8,0.2-0.9,0.4c-0.1,0.1-0.1,0.1,0.8,0.3
	c0.9,0.2,2.3,0.2,2.9,0.1c0.2-0.1,0.5-0.1,0.8-0.1c0.4,0,0.4,0,0.7,0.2l0.3,0.2l0,1.1c0,1.1,0.1,1.1,0.2,1.5c0.2,0.4,0.3,1,0.4,2.7
	c0,0.4,0.1,0.7,0.2,0.9c0.2,0.3,0.2,0.4,0.2,1.9c0,1.1,0.1,1.6,0.1,1.9c0.1,0.2,0.1,0.6,0.1,1.2c0,0.4,0,1.1,0.1,1.5
	c0,0.4,0.1,1,0.1,1.3c0,0.5,0,0.6,0.2,1l0.2,0.4l0,2.2c0,1.6,0,2.3,0.1,2.5c0,0.1,0.1,0.5,0.1,0.7c0,0.9,0.3,1.2,0.6,0.7
	c0.1-0.1,0.1-0.4,0.1-1.4c0-1.3,0-1.6-0.4-2.3c-0.1-0.3-0.1-0.3-0.1-1.3c0-0.5,0-4,0.1-7.7l0.1-6.7l0.1-0.3c0.2-0.3,0.5-0.5,1.1-0.7
	c0.5-0.2,1.1-0.4,1.1-0.4c0,0,0.1-0.1,0.2-0.1s0.3-0.2,0.4-0.3c0.6-0.5,0.8-0.7,0.8-0.9c0-0.2-0.3-0.4-0.6-0.5
	c-0.6-0.2-1-0.5-1.8-1.4c-0.5-0.6-0.6-0.6-0.6-1c-0.1-0.9-0.4-1.9-0.7-2.5c-0.2-0.3-0.3-0.6-0.3-0.7c0,0-0.1-0.2-0.2-0.5
	c-0.2-0.3-0.2-0.5-0.3-0.8c0-0.4-0.1-0.5-0.3-0.9c-0.2-0.2-0.3-0.5-0.3-1.1c0-0.2-0.2-0.5-0.3-0.9c-0.3-0.6-0.4-0.8-0.5-1.3
	c0-0.1-0.2-0.4-0.3-0.6C56.1,56.3,56,56.1,56,56s-0.1-0.3-0.2-0.5c-0.1-0.2-0.3-0.5-0.3-0.6c0-0.1-0.1-0.4-0.2-0.6
	c-0.1-0.4-0.3-0.9-0.5-1.1c-0.1,0-0.2-0.3-0.4-0.5c-0.2-0.3-0.5-0.7-1.4-1.6c-0.6-0.6-1.2-1.2-1.2-1.2c0-0.2-0.4-0.7-0.9-1
	c-0.3-0.2-0.5-0.4-0.6-0.5c-0.1-0.2-0.4-0.6-0.5-0.8c0,0-0.1-0.1-0.1-0.2c0,0-0.2-0.3-0.4-0.5c-0.2-0.3-0.6-0.6-0.7-0.7
	c-0.1-0.1-0.3-0.4-0.4-0.6c-0.1-0.2-0.2-0.4-0.3-0.5c-0.1-0.1-0.2-0.3-0.2-0.3c0-0.1-0.4-0.5-1-1.2c-0.4-0.5-0.5-0.6-0.6-0.9
	c-0.1-0.2-0.1-0.4,0-0.5c0.1-0.2,0.3-0.3,0.6-0.2c0.1,0,0.5,0.1,0.8,0.1c0.3,0,0.8,0.1,1,0.2c0.2,0.1,0.7,0.1,1.1,0.1
	c0.8,0,1.2,0.1,2,0.3c0.6,0.2,1.6,0.4,1.9,0.4c0.1,0,0.4,0.1,0.6,0.2c0.3,0.2,0.5,0.2,1.3,0.3c0.1,0,0.4,0.1,0.6,0.2
	c0.4,0.2,1.4,0.5,1.9,0.6c0.5,0.1,1,0.2,1.2,0.3c0.1,0.1,0.5,0.2,0.8,0.2c1,0.2,1,0.2,1.7,0.9c0.1,0.1,0.4,0.3,0.6,0.4
	c0.2,0.1,0.4,0.3,0.4,0.3c0,0,0.1,0.1,0.1,0.1c0,0,0.3,0.2,0.5,0.5c0.3,0.3,0.5,0.5,0.6,0.6c1.1,0.7,1.3,0.9,1.8,1.8
	c0,0.1,0.2,0.2,0.4,0.3c0.2,0.1,0.5,0.3,0.7,0.5c0.8,0.8,0.9,0.9,1.1,1c0.2,0,0.7,0.5,0.9,0.8c0.1,0.4,0.5,0.7,0.7,0.7
	c0.2,0,0.3-0.1,0.6-0.6c0.2-0.4,0.8-0.9,1-0.9c0.1,0,0.7-0.4,0.7-0.4c0,0,0-0.1,0.1-0.1c0,0,0.3-0.2,0.6-0.5
	c0.3-0.3,0.5-0.5,0.6-0.5c0.1,0,0.9-0.5,0.9-0.7c0.1-0.2,0.7-0.9,0.8-0.9c0.3,0,1-0.6,1-0.8c0-0.1,0.3-0.4,0.5-0.5
	c0.1,0,0.2-0.1,0.2-0.1c0,0,0-0.1,0.1-0.1c0.1,0,0.2-0.1,0.3-0.2s0.3-0.2,0.4-0.3c0.1-0.1,0.5-0.8,0.5-0.9c0-0.1-0.2,0-0.3,0
	c-0.6,0.3-0.8,0.4-0.9,0.6c-0.1,0.1-0.1,0.2-0.1,0.2c0,0-0.1,0.1-0.2,0.3s-0.2,0.2-0.2,0.3c0,0-0.1,0.1-0.1,0.1
	c0,0.1-0.2,0.1-0.4,0.2c-0.7,0.1-0.7,0.2-1.3,0.7c-0.3,0.3-0.5,0.5-0.6,0.5c-0.2,0-1.1,0.7-1.5,1.1c-0.3,0.3-0.5,0.5-0.5,0.5
	c-0.1,0-0.2,0.1-1,0.8c-0.2,0.2-0.5,0.4-0.6,0.5c-0.3,0.1-0.8,0.1-1.3-0.1c-0.4-0.2-0.6-0.4-2.5-2.3C65,47.4,64,46.4,64,46.3
	c-0.1-0.1-0.1-0.2-0.2-0.2c-0.1-0.1-0.2-0.5-0.1-0.7c0.1-0.2,0.5-0.8,0.6-0.8c0.1,0,0.5-0.4,0.7-0.7c0.2-0.3,0.5-0.8,0.6-0.8
	c0,0,0-0.1,0-0.1c0-0.1,0.2-0.3,0.5-0.5c0.6-0.5,0.8-0.8,1.1-1.3c0.1-0.2,0.3-0.5,0.6-0.8c0.4-0.4,0.7-0.7,0.9-1
	c0.1-0.1,0.3-0.4,0.6-0.6c0.3-0.3,0.5-0.6,0.6-0.8c0.1-0.4,0.4-0.8,0.5-0.9c0.3-0.3,0.9-0.8,0.9-0.9c0,0,0-0.1,0.1-0.2
	c0.1-0.1,0.3-0.3,0.5-0.5s0.8-0.8,1.2-1.2c0.7-0.7,1.3-1.5,1.3-1.7c0,0,0.2-0.3,0.5-0.6c0.3-0.3,0.6-0.6,0.7-0.8
	c0.1-0.1,0.2-0.3,0.3-0.3c0,0,0.1-0.1,0.1-0.1c0,0,0.2-0.3,0.5-0.5c0.3-0.3,0.5-0.6,0.6-0.8c0.2-0.4,0.5-0.8,0.9-1.2
	c0.4-0.3,0.7-0.3,1.1-0.1c0.1,0.1,0.2,0.2,0.3,0.2c0.2,0,1.3,1.2,1.3,1.4c0,0,0.1,0.2,0.3,0.4c0.4,0.4,0.7,0.8,0.7,0.9
	c0,0,0.4,0.5,1,1.1s1,1.1,1.1,1.2c0,0.1,0.1,0.2,0.1,0.2c0,0,0.1,0.1,0.2,0.3s0.2,0.3,0.3,0.3c0.1,0,0.7,0.6,0.8,0.9
	c0.2,0.4,0.1,1.3-0.1,1.8c-0.3,0.5-0.3,0.6-0.7,1c-0.2,0.2-0.5,0.5-0.6,0.7s-0.9,1-1.6,1.7c-1.3,1.3-1.5,1.5-2.1,2.5
	c-0.1,0.2-0.3,0.4-0.6,0.5c-0.2,0.2-0.5,0.3-0.6,0.4c-0.1,0.1-0.7,1.3-0.7,1.4c0,0,0.1,0,0.3-0.1c0.2-0.1,0.3-0.2,0.4-0.2
	c0,0,0.1,0,0.2-0.1c0.2-0.2,1-0.7,1.1-0.8c0.4-0.1,0.7,0.3,0.7,0.8c0,0.3-0.1,0.9-0.2,1c-0.1,0.2-0.2,0.6-0.2,1.4l-0.1,0.9l-0.4,0.7
	c-0.2,0.4-0.4,0.8-0.4,0.9c0,0.2-0.2,0.7-0.5,1.1c-0.3,0.5-0.4,0.7-0.3,1c0,0.2,0.1,0.4,0.1,0.6c0.2,0.4,0.4,0.8,0.4,1
	c0,0.1,0,0.2-0.1,0.4c-0.1,0.1-0.1,0.6-0.2,0.9c-0.1,0.4-0.1,0.8-0.1,0.9c0,0.1-0.1,0.3-0.1,0.5c-0.1,0.4-0.2,0.9-0.3,1.2
	c-0.1,0.1-0.1,0.5-0.2,0.9c0,0.4-0.1,0.7-0.1,0.9c0,0.1-0.1,0.3-0.1,0.4c0,0.1-0.1,0.4-0.3,0.7c-0.2,0.4-0.3,0.6-0.3,0.9
	c0,0.4-0.1,0.7-0.3,1.1c-0.2,0.3-0.3,0.6-0.4,1.1c-0.1,0.4-0.3,1.2-0.4,1.5c0,0.1-0.3,0.4-0.5,0.6c-0.3,0.3-0.5,0.5-0.5,0.5
	s0,0.1-0.1,0.1c0,0-0.2,0.2-0.3,0.3s-0.6,0.6-1,1.1c-0.9,0.9-1,1.1-1,1.5c0,0.4-0.2,0.8-0.7,1.3c-0.3,0.3-0.5,0.6-0.6,0.7
	c-0.1,0.1-0.1,0.2-0.2,0.2s-0.1,0.1-0.2,0.2c-0.1,0.1-0.2,0.3-0.3,0.3c-0.2,0.1-0.7,0.7-0.7,0.9c0,0.1-0.2,0.4-0.3,0.7l-0.2,0.5
	l0,2.6c0,2.4,0,2.6-0.1,3.1c-0.1,0.5-0.1,0.7-0.1,3.9c0,2.9,0,3.4-0.1,3.9c-0.1,0.5-0.1,0.6,0,1.1c0.1,0.5,0.1,1,0.1,3.9
	c0,1.9,0,3.5-0.1,3.7c0,0.1-0.1,0.5-0.2,0.7C69,96.5,69,96.6,69,97.9c0,1.2,0,1.4-0.1,1.6C68.6,100,70.2,100,52,100
	C43.1,100,35.7,100,35.6,100L35.6,100z M61.7,44.5c-0.2,0-0.5-0.2-0.7-0.4c0,0-0.1-0.1-0.2-0.1s-0.2-0.1-0.5-0.3
	c-0.5-0.4-0.7-0.5-1.3-0.5c-0.6-0.1-0.9-0.1-1.2-0.4c-1.1-0.7-1.3-0.8-1.5-0.8c-0.2,0-0.7-0.3-1.1-0.6c-0.2-0.1-0.5-0.3-0.7-0.4
	c-0.2-0.1-0.5-0.2-0.6-0.4s-0.3-0.2-0.4-0.2c-0.1,0-0.5-0.2-0.8-0.5c-0.3-0.3-0.4-0.5-0.3-0.9c0.1-0.3,0.5-0.9,0.8-1.1
	c0.1-0.1,0.2-0.2,0.2-0.3c0.2-0.6,0.5-1.1,0.7-1.3c0.1-0.1,0.2-0.2,0.2-0.3c0,0,0.2-0.4,0.5-0.8c0.3-0.4,0.5-0.7,0.5-0.8
	c0,0,0-0.1,0.1-0.2c0.4-0.4,1-1.1,1-1.2c0-0.1,0.2-0.3,0.3-0.4c0.4-0.4,0.5-0.6,0.6-1c0.1-0.2,0.2-0.5,0.3-0.7
	c0.1-0.1,0.3-0.4,0.4-0.5c0.1-0.2,0.2-0.4,0.3-0.4c0.1-0.1,0.1-0.2,0.1-0.2c0,0,0.1-0.2,0.2-0.2c0.1-0.1,0.3-0.3,0.3-0.4
	c0-0.1,0.2-0.4,0.3-0.7c0.1-0.3,0.2-0.5,0.2-0.5c0.2-0.1,0.5-0.6,0.5-0.7c0,0,0.1-0.2,0.2-0.3c0.2-0.2,0.5-0.8,0.6-1.3
	c0-0.1,0.1-0.2,0.1-0.3c0-0.1,0.1-0.2,0.1-0.2c0,0,0.1-0.2,0.2-0.3c0.4-0.4,0.7-0.7,0.9-1.1c0.1-0.2,0.2-0.4,0.3-0.4
	c0.1-0.1,0.1-0.1,0.1-0.2s0.2-0.3,0.4-0.7c0.2-0.3,0.5-0.7,0.5-0.8c0.1-0.1,0.2-0.3,0.4-0.5c0.2-0.2,0.6-0.7,0.7-1
	c0-0.1,0.1-0.2,0.1-0.3c0.1-0.2,0.4-0.9,0.4-1c0,0,0.1-0.2,0.2-0.3c0.1-0.1,0.2-0.3,0.3-0.4c0.1-0.5,0.2-0.7,0.4-0.9
	c0.3-0.3,0.6-0.4,1-0.3c0.1,0.1,0.4,0.1,0.5,0.2c0.4,0.1,0.7,0.3,1.2,0.7c0.2,0.2,1.4,0.8,1.7,0.9c0.1,0,0.5,0.3,0.8,0.7
	c0.4,0.4,0.8,0.7,0.9,0.8c0.2,0.1,0.7,0.6,0.8,0.8c0,0.1,0.3,0.4,0.7,0.6c0.4,0.2,0.5,0.3,0.9,0.7c0.3,0.3,0.5,0.5,0.5,0.5
	s0.1,0.1,0.2,0.1c0.1,0.1,0.3,0.2,0.4,0.3c0.3,0.2,0.7,0.6,0.7,0.8c0,0.1,0.1,0.3,0.2,0.5c0.3,0.4,0.3,0.6,0.1,1
	c-0.1,0.2-0.5,1.1-0.7,1.4c-0.1,0.1-0.2,0.4-0.3,0.6c-0.1,0.2-0.2,0.4-0.2,0.4c-0.1,0.1-0.3,0.4-0.3,0.5c0,0.1,0,0.1-0.1,0.1
	c-0.2,0.1-0.6,0.8-0.8,1.2c-0.1,0.3-0.2,0.5-0.2,0.6c0,0.1-0.1,0.2-0.2,0.3c-0.1,0.1-0.2,0.2-0.2,0.2s-0.2,0.2-0.3,0.4
	s-0.5,0.6-0.7,0.8c-0.2,0.3-0.4,0.5-0.4,0.5c-0.1,0-0.6,0.8-0.6,0.9c0,0.1-0.2,0.4-0.4,0.6c-0.5,0.5-0.6,0.7-0.6,0.8
	c0,0-0.3,0.4-0.7,0.8c-0.4,0.4-0.8,0.8-0.8,0.9c0,0.1-0.1,0.3-0.2,0.4c-0.1,0.2-0.2,0.3-0.2,0.4s-0.3,0.3-0.5,0.6
	c-0.4,0.4-0.5,0.6-0.8,1.1C67.3,39.6,67.1,40,67,40c-0.3,0.2-0.4,0.4-0.6,0.5c-0.1,0.1-0.2,0.2-0.2,0.3c-0.3,0.6-1.7,2.2-1.9,2.2
	c-0.1,0-0.6,0.5-1.1,1c-0.2,0.2-0.4,0.4-0.4,0.4C62.5,44.5,62,44.6,61.7,44.5L61.7,44.5z M47,39.8c-0.1-0.1-0.3-0.2-0.3-0.2
	s-0.1-0.1-0.1-0.1c0,0-0.2-0.1-0.3-0.2c-0.1-0.1-0.3-0.2-0.4-0.3c-0.1,0-0.6-0.4-0.7-0.5c0,0-0.1,0-0.1,0s-0.2-0.1-0.4-0.2
	c-0.2-0.1-0.4-0.2-0.5-0.3c-0.5-0.1-1.5-0.5-1.6-0.7c0,0-0.2-0.2-0.4-0.3c-0.4-0.2-0.6-0.5-0.6-0.7c0-0.2,0.2-0.5,0.3-0.5
	c0,0,0.3-0.1,0.6-0.2c0.3-0.1,0.7-0.3,1-0.4c0.3-0.1,0.8-0.3,1.1-0.5c0.6-0.3,0.8-0.4,1.2-0.4c0.3,0,0.6-0.1,0.9-0.3
	c0.4-0.2,0.5-0.2,1.4-0.3c1,0,1.2-0.1,1.8-0.3c0.4-0.2,0.8-0.3,1.4-0.3c0.2,0,0.6-0.1,0.8-0.2c0.6-0.2,0.9-0.2,1.1,0.1
	c0.1,0.2,0.1,0.4-0.1,0.8c-0.1,0.2-0.2,0.4-0.2,0.5c0,0.1-0.2,0.3-0.3,0.5c-0.2,0.3-0.3,0.4-0.6,0.5c-0.4,0.2-0.9,0.4-1,0.4
	c-0.1,0-0.7,0.7-0.7,0.9c0,0-0.4,1-0.6,1.2c-0.2,0.4-0.4,0.8-0.4,0.9c0,0.1-1,1-1.2,1.1C47.8,40,47.3,39.9,47,39.8L47,39.8z
	 M55.2,29.4c-0.2-0.2-0.2-0.5-0.1-0.9c0-0.1,0.1-0.6,0.1-1.2c0.1-0.9,0.2-1.4,0.4-1.7c0.1-0.1,0.4-1.3,0.4-1.7
	c0-0.6-0.1-0.8-0.4-1.2c-0.2-0.2-0.3-0.3-0.4-0.3c-0.2,0-1.5-0.6-1.8-0.8c-0.2-0.1-0.4-0.2-0.4-0.2c-0.1,0-0.6-0.3-0.6-0.4
	c0,0-0.1-0.1-0.2-0.1c-0.6-0.1-1.3-0.5-2-0.9c-0.7-0.5-0.7-0.5-1.3-0.6c-0.7-0.1-0.8-0.2-1-0.5c-0.3-0.5-0.2-1.2,0.2-1.8
	c0.1-0.1,0.1-0.2,0.1-0.3c0-0.1,0.3-0.7,0.4-0.8c0.1,0,0.1-0.1,0.1-0.2c0,0,0.1-0.2,0.2-0.3c0.4-0.3,0.6-0.6,0.7-0.9
	c0.3-0.7,0.7-1.4,1-1.7c0.4-0.4,0.5-0.6,0.6-0.8c0.1-0.1,0.2-0.3,0.3-0.6c0.1-0.2,0.2-0.4,0.2-0.5c0-0.1,0.2-0.6,0.3-0.7
	c0-0.1,0.2-0.3,0.3-0.5s0.2-0.4,0.3-0.4c0,0,0.1-0.2,0.2-0.3C53,9.4,53,9.3,53.1,9.3c0.1,0,0.4-0.8,0.4-0.9c0,0,0.1-0.2,0.2-0.3
	C53.9,8,54,7.9,54.2,7.9c0.4,0,0.6-0.1,0.8-0.3c0.2-0.3,0.5-0.4,0.7-0.3c0.1,0,0.4,0.1,0.6,0.3c0.2,0.1,0.5,0.2,0.7,0.2
	c0.3,0,0.9,0.4,1.4,0.7c0.1,0.1,0.3,0.2,0.5,0.3C59,8.8,59.2,8.9,59.4,9c0.2,0.1,0.5,0.2,0.6,0.3c0.4,0.1,2,0.9,2,1.1
	c0,0,0.2,0.2,0.5,0.4c0.2,0.2,0.7,0.6,1.1,0.9c0.3,0.3,0.6,0.6,0.7,0.6c0,0,0.1,0.1,0.2,0.1c0.1,0.1,0.3,0.2,0.5,0.3
	c0.2,0.1,0.5,0.3,0.6,0.4c0.2,0.1,0.3,0.3,0.4,0.3c0.1,0,0.3,0.5,0.3,0.7c0,0.5-0.3,1.7-0.5,2.1c-0.1,0.2-0.2,0.6-0.3,1.3
	c0,0.1-0.1,0.3-0.2,0.4C65.2,18,65.2,18,65.2,18c0,0-0.1,0.2-0.2,0.3c-0.1,0.2-0.2,0.4-0.3,0.6c-0.1,0.3-0.4,0.7-0.8,1.2
	c-0.2,0.2-0.8,1.2-0.8,1.3c0,0-0.2,0.3-0.6,0.7c-0.5,0.5-0.6,0.7-0.8,1.1c-0.2,0.4-0.3,0.6-0.6,1c-0.2,0.3-0.4,0.5-0.5,0.5
	c-0.1,0-0.1,0.1-0.1,0.1c0,0-0.1,0.2-0.3,0.4c-0.1,0.2-0.3,0.4-0.3,0.4c0,0,0,0.1,0,0.1c-0.1,0-0.5,0.6-0.6,0.8
	c0,0.1-0.1,0.2-0.1,0.2s-0.1,0.1-0.3,0.2c-0.1,0.1-0.3,0.2-0.4,0.3c-0.1,0.1-0.6,0.4-1,0.8c-1,1-1.2,1.1-1.6,1.3
	C55.5,29.6,55.4,29.6,55.2,29.4L55.2,29.4z M44.6,18.2c-0.2,0-0.5-0.2-0.8-0.3c-0.1-0.1-0.4-0.1-0.5-0.2c-0.2,0-0.4-0.1-0.6-0.4
	c-0.4-0.4-0.8-0.5-1.8-0.7c-0.6-0.1-0.9-0.2-1.3-0.5c-0.2-0.1-0.3-0.2-0.4-0.2s-0.1,0-0.1-0.1c-0.1-0.2-0.7-0.4-0.9-0.4
	c-0.3,0-0.9-0.2-1.1-0.4c-0.1-0.1-0.2-0.1-0.3-0.1c0,0-0.1,0-0.2-0.1s-0.3-0.2-0.5-0.4c-0.2-0.1-0.5-0.3-0.6-0.4s-0.2-0.1-0.3-0.2
	c-0.2,0-0.6-0.3-0.7-0.5c-0.1-0.2-0.1-0.3-0.1-0.6c0-0.5,0.2-0.8,0.4-1.1c0.1-0.1,0.2-0.3,0.2-0.3c0-0.1,0.3-0.5,0.5-0.7
	c0.1-0.1,0.3-0.2,0.5-0.3c0.3-0.2,0.4-0.3,0.8-1.1C36.9,8.9,37,8.6,37,8.5c0-0.2,0.2-0.8,0.3-0.8c0,0,0.2-0.3,0.4-0.7
	c0.2-0.4,0.4-0.8,0.5-0.8c0.1-0.1,0.2-0.3,0.4-0.6C38.9,5,39,4.8,39.5,4.2C39.7,4,39.9,3.7,40,3.6c0.1-0.1,0.2-0.3,0.4-0.4
	c0.1-0.1,0.2-0.3,0.2-0.3s0.1-0.2,0.2-0.4C40.9,2.3,41,2.1,41.1,2c0.1-0.2,0.7-0.9,0.8-0.9c0,0,0.2-0.1,0.3-0.2
	c0.9-0.8,1-0.8,1.8-0.8c0.7,0,0.9,0.1,1.2,0.4c0.2,0.2,0.5,0.4,1.1,0.6c0.3,0.1,0.5,0.2,0.6,0.2c0,0,0.2,0.1,0.3,0.2
	c0.1,0.1,0.2,0.1,0.2,0.2c0,0,0,0,0.1,0s0.3,0.1,0.4,0.2c0.2,0.1,0.4,0.3,0.6,0.4c0.2,0.1,0.3,0.2,0.4,0.3s0.2,0.1,0.2,0.1
	c0.1,0,0.1,0,0.2,0.1c0.1,0.1,0.8,0.4,0.9,0.4c0.1,0,0.8,0.7,0.8,0.9c0,0,0.1,0.1,0.2,0.2c0.1,0.1,0.3,0.2,0.4,0.3
	c0.5,0.5,0.9,0.8,1.1,1c0.1,0.1,0.2,0.2,0.3,0.2s0.2,0.1,0.3,0.2c0.2,0.2,0.3,0.3,0.3,0.6c0,0.3,0,0.4-0.3,0.8
	c-0.1,0.1-0.2,0.4-0.3,0.8c-0.1,0.3-0.2,0.7-0.3,0.7c-0.5,0.9-0.5,1-0.9,1.4c-0.1,0.2-0.3,0.3-0.3,0.4c0,0,0,0.1-0.1,0.1
	c-0.1,0.1-0.4,0.6-0.4,0.8c0,0.1-0.1,0.3-0.4,0.8c0,0.1-0.2,0.3-0.3,0.5s-0.2,0.4-0.2,0.4c0,0-0.1,0.2-0.3,0.4
	c-0.2,0.2-0.3,0.4-0.3,0.4c0,0-0.1,0.2-0.2,0.3c-0.1,0.1-0.2,0.3-0.2,0.3s-0.1,0.2-0.3,0.5c-0.1,0.2-0.3,0.4-0.3,0.4
	s-0.1,0.2-0.3,0.3c-0.2,0.1-0.3,0.3-0.3,0.3c0,0-0.1,0.1-0.1,0.2c-0.1,0.1-0.3,0.5-0.4,0.7c0,0.1-0.2,0.3-0.3,0.5
	c-0.4,0.5-0.7,0.6-1.5,0.6C45,18.2,44.7,18.2,44.6,18.2L44.6,18.2z"/>
</svg>
