<?xml version="1.0" encoding="utf-8"?>
<!-- Generator: Adobe Illustrator 24.0.0, SVG Export Plug-In . SVG Version: 6.00 Build 0)  -->
<svg version="1.2" baseProfile="tiny" id="Layer_1" xmlns="http://www.w3.org/2000/svg" xmlns:xlink="http://www.w3.org/1999/xlink"
	 x="0px" y="0px" viewBox="0 0 100 100" xml:space="preserve">
<path fill="#046738" d="M3.9,3.4h92v45.5c-3,25.5-27.7,46.5-47.1,48.6C28.2,93.8,5.5,72,3.9,48.9L3.9,3.4L3.9,3.4z"/>
<path fill="#DDC224" d="M48.8,100.5l-0.4-0.1C27.4,96.7,2.8,74.7,1,49.1L1,0.5h97.9v48.4c-3.1,26.8-28.8,49.2-49.7,51.5L48.8,100.5z
	 M6.8,6.3v42.6C8.3,70.8,30.2,91,49,94.6c18.3-2.3,41.4-22.7,44.1-46l0-42.3H6.8z M53.2,80.5l0.9-5.9l2.8,0.1v-3.9l-2.3,0l0.8-5.1
	l8.8,0.1l0-4.2h-7c4.8-8.3,11.4-8.1,14.8-5.4c2.2,3,2.1,6.6-0.7,9.6c4.4,0.4,10.6-1.5,11.2-10c0-4.9-5.8-13.9-17.9-8.7
	c-6.2,2.7-8.9,8.6-10,14c-0.1,0.7-1.2,0.1-1.5,0.4c-1-9.4,7.5-20.6,7.8-31.5c-0.6-12.6-8.3-14.6-11.4-20.5
	c-3.2,5.9-10.8,7.9-11.4,20.5c0.3,10.9,8.8,22.1,7.8,31.5c-0.2-0.2-1.3,0.3-1.5-0.4c-1.1-5.4-3.8-11.3-10-14
	c-12.1-5.2-17.8,3.8-17.9,8.7c0.7,8.5,6.8,10.4,11.2,10c-2.8-3-2.9-6.6-0.7-9.6c3.4-2.7,10-2.9,14.8,5.4h-7l0,4.2l8.8-0.1l0.8,5.1
	l-2.3,0v3.9l2.8-0.1l0.9,5.9H53.2z"/>
</svg>
