<?xml version="1.0" encoding="utf-8"?>
<!-- Generator: Adobe Illustrator 21.0.0, SVG Export Plug-In . SVG Version: 6.00 Build 0)  -->
<svg version="1.1" id="Layer_1" xmlns="http://www.w3.org/2000/svg" xmlns:xlink="http://www.w3.org/1999/xlink" x="0px" y="0px"
	 viewBox="0 0 100 100" style="enable-background:new 0 0 100 100;" xml:space="preserve">
<g id="icon" transform="translate(-1.9444444444444287 -1.9444444444444287) scale(3.89 3.89)">
	<path d="M20.2,7.4v1.7h3.2L19.4,13c-1.2-0.9-2.6-1.5-4.2-1.6c-0.1-1.6-0.7-3-1.6-4.2l3.9-3.9v3.2h1.7v-6h-6v1.7h3.2l-3.9,3.9
		c-1.3-1-2.9-1.6-4.6-1.6c-4.1,0-7.4,3.3-7.4,7.4c0,3.9,3.1,7.1,7,7.4c0.2,3.9,3.4,7,7.4,7c4.1,0,7.4-3.3,7.4-7.4
		c0-1.7-0.6-3.3-1.6-4.6l3.9-3.9v3.2h1.7v-6H20.2z M2.2,11.9c0-3.1,2.6-5.7,5.7-5.7c3,0,5.5,2.4,5.7,5.4c-3.1,0.5-5.5,3-6,6
		C4.6,17.4,2.2,14.9,2.2,11.9z M13.4,13.3c-0.5,2-2.1,3.6-4.1,4.1C9.8,15.4,11.4,13.8,13.4,13.3z M14.8,24.5c-3,0-5.5-2.4-5.7-5.4
		c3.1-0.5,5.5-3,6-6c3,0.2,5.4,2.7,5.4,5.7C20.5,22,18,24.5,14.8,24.5z"/>
</g>
</svg>
