<?xml version="1.0" encoding="utf-8"?>
<!-- Generator: Adobe Illustrator 21.0.0, SVG Export Plug-In . SVG Version: 6.00 Build 0)  -->
<svg version="1.1" id="Layer_1" xmlns="http://www.w3.org/2000/svg" xmlns:xlink="http://www.w3.org/1999/xlink" x="0px" y="0px"
	 viewBox="0 0 100 100" style="enable-background:new 0 0 100 100;" xml:space="preserve">
<g>
	<path d="M96.9,66.9c0-3.6,0-7.3,0-10.9c0-2.4-0.2-2.6-2.4-1.6c-3.3,1.5-6.5,3.2-9.6,5.1c-4.4,2.6-8.7,5.4-13.1,8.1
		c-2.8,1.7-5.5,1.9-8.6,0.1c-4.7-2.7-9.7-4.6-15.3-4.6c-4.6,0-9.2,0.6-13.8-0.9c-1.5-0.5-3,0.2-3.9,1.6c-0.9,1.4-0.4,2.8,0.4,4
		c0.4,0.7,1,1.3,1.7,1.8c2.8,2.3,6.2,3.1,9.7,3.7c1.9,0.3,3.8,0.6,5.7,1.1c0.6,0.2,1.1,0.8,1.7,1.3c-0.5,0.5-0.9,1.3-1.5,1.5
		c-8.4,2.8-16.6,3.3-24.5-1.6c-3.1-1.9-6.2-4-9.4-5.8c-3.1-1.7-6.5-3.1-10.1-3.1c-1.3,0-2.8,0.1-3,1.6c-0.1,1,0.7,2.2,1.1,3.3
		c0.1,0.3,0.5,0.5,0.8,0.7c3.6,3.3,7.4,6.6,10.9,10.1c2.9,2.9,6.1,5.3,10,6.8c10.3,3.9,20.9,5.9,31.9,5.9c6,0,11.9-0.6,17.4-3.2
		c7.4-3.5,14.8-7.1,22.2-10.7c1.5-0.7,2-1.7,2-3.3C96.8,74.1,96.9,70.5,96.9,66.9z"/>
	<path d="M54.4,37.5c1.9,0.7,3.3,0.2,4.6-1.4c1.3-1.5,2.8-2.9,4.2-4.3c5.9-5.6,12-11,19-15.2c1.8-1.1,3.8-2,5.7-3
		c-0.2,0.7-0.7,1.1-1.1,1.4c-4.4,3.6-9,7-13.3,10.8c-7.9,7-14.5,15-19,24.6c-0.7,1.4-1.1,3-1.7,4.5c1.6,0.8,2.9,1.5,4.1,2.1
		c1.6-3.9,3.1-7.5,4.6-11.1c0.2,0,0.4,0.1,0.5,0.1c1.5,3.7,4.6,4.7,8,4.1c2.5-0.4,5.1-1.3,7.4-2.5c6.7-3.7,11.4-9.5,15.1-16
		c4.3-7.7,6.7-16,7.4-24.9c-0.5-0.1-0.7-0.2-0.9-0.3c-12.7-1.4-24.7,0.8-35.6,7.7c-4.9,3.1-9,7-11.4,12.4c-0.9,2-1.3,4.4-1.3,6.7
		C50.7,35.5,52.4,36.8,54.4,37.5z"/>
	<path d="M14.8,24.8c1.9,2.8,3.5,5.8,5.1,8.7c1.7,2.9,3.6,5.6,6.7,7.1c2.7,1.3,4.7,0.9,6.4-1.5c1-1.4,1.7-3.2,2.6-5.1
		c2.2,2.3,4.5,4.5,6.5,7c1.3,1.6,2.7,1.6,4.5,1.2c-8.3-10.5-18-18.7-29.8-24.5c0.5,0,0.9,0.1,1.3,0.2c8.2,2.6,15.8,6.6,22.5,12
		c2.4,1.9,4,1.1,5.8-0.3c1.7-1.4,2.4-3.3,2.5-5.5c0-2.9-1.5-5.1-3.4-7c-3.4-3.3-7.6-5.3-12.2-6.1C21.9,8.9,11.2,11.3,0,15.3
		C6.9,16.1,11.3,19.9,14.8,24.8z"/>
</g>
</svg>
