<?xml version="1.0" encoding="utf-8"?>
<!-- Generator: Adobe Illustrator 24.0.0, SVG Export Plug-In . SVG Version: 6.00 Build 0)  -->
<svg version="1.2" baseProfile="tiny" id="Layer_1" xmlns="http://www.w3.org/2000/svg" xmlns:xlink="http://www.w3.org/1999/xlink"
	 x="0px" y="0px" viewBox="0 0 100 100" xml:space="preserve">
<path id="path7014-6-7-28-3-2-4-5-1-6-6-5-1" fill="#FEE470" d="M7.8,44.3C8,58,8.7,67,14.4,75.2C24.6,88.1,36.2,93.3,50.1,100
	C66,92.8,77.9,85.7,85.3,75.6c6.1-8.4,6.8-19.1,7-32.8c0.2-14.3,0.2-28.5,0-42.8H7.6c-0.3,14.3,0.7,21.6,0,35.8L7.8,44.3z"/>
<path fill="#CC2027" d="M88.3,53c0.6,1.1,0.2,3.3,0.2,3.3s-0.7-1.4-1.5-2c-0.7-0.4-2.4-0.3-2.4-0.3s2.1,1.7,2.6,2.9
	c0.4,1.1-0.1,3.6-0.1,3.6s-0.8-1.9-1.6-2.4c-0.6-0.4-0.8-0.7-1.5-0.6c-0.6,0.1-1,0.4-1.7,3.7v0c-1.5,3.9-9.9,8-14.3,2.9
	c-1.3-1.5-2.1-4.2-2.1-4.2s-1.8,4.2-1.6,6.4c0.2,2.2,1.1,4.3,2.6,5.6l0.9,0.8c0,0,1.4-0.6,2.1-0.5c0.6,0.1,1.3,0.3,1.5,0.9
	c0.2,0.5-0.1,1.2-0.4,1.7c-0.3,0.6-1.4,1.5-1.4,1.5s1.4,1.2,1.6,2.1c0.3,1.4-0.6,3.3-0.6,3.3s-0.4-1.5-1.3-2.2c-0.7-0.5-2.7,0-2.7,0
	s1.4,0.6,1.7,1.3c0.6,1.4-0.2,4-0.2,4s-1-1.9-2-2.4c-0.5-0.3-1.8,0-1.8,0s1.5,1.3,1.7,2.2c0.2,1.2-0.1,3.1-0.1,3.1s-0.9-1.7-1.5-2.2
	c-0.7-0.5-2.2-0.1-2.2-0.1s1.2,1,1.4,1.7c0.4,1.2,0,2.7,0,2.7s-1.3-1.2-2.1-1.7c-0.3-0.2-1.1,0-1.1,0s-0.5,3.4-1.8,4.3
	c-0.8,0.5-2,0.6-2.8,0.1c-0.6-0.4-0.7-1.2-0.8-1.9C54.8,90,55,89.3,55,89.3s-1.3,0.3-1.9,0.2c-0.9-0.1-1.7,0-2.2-0.7
	c-0.4-0.6-0.4-1.4-0.1-2c0.2-0.5,1.1-1.3,1.1-1.3s-1-0.6-1.3-1.3c-0.3-0.8-0.3-1.5,0.4-2.1c0.7-0.6,1.9-0.3,2.7,0
	c1.1,0.4,2.1,1.4,2.1,1.4s1.6-2.8,2.6-4.1c0.8-1,2.9-2.5,2.9-2.5l-0.6-1.2c0,0-3.4-1.8-4.8-3.1c-1.2-1-2.5-2.1-3.2-3.5
	c-0.5-1.1-0.7-2.5-0.5-3.7c0.1-0.7,0.4-1.4,0.7-2c-1.3,0.3-5.8,0-9.5-0.1c-1.5-0.1,0.3,4.3,0.3,4.3s1.1,0.9,1.6,1.5
	c0.4,0.7,0.7,1.5,0.3,2.2c-0.4,0.7-1.4,1-2.3,1.2c-0.9,0.2-2.1-0.4-2.1-0.4c0.4,0.6,0.7,1.3,0.6,2c-0.1,1.2-2.6,2.7-2.6,2.7
	s0.5-1.2,0.3-1.8c-0.2-0.7-0.9-1.5-0.9-1.5s-0.1,1-0.3,1.5c-0.5,1.3-3.4,2.7-3.4,2.7s0.6-1.4,0.6-2.1c0-0.7-0.8-1.4-0.8-1.4
	s-0.3,1.1-0.8,1.9c-0.7,0.8-2.7,1.8-2.7,1.8s0.4-1.1,0.5-1.7c0-0.6-0.3-1.7-0.3-1.7s-1.2,1.9-1.9,2.5c-0.9,0.8-2.7,1.3-2.7,1.3
	s1.1-1.9,0.7-2.9c-0.3-0.9-2.7-1.4-2.7-1.4s-2.6,1.2-4.2,1.5c-0.8,0.1-1.9,0.2-2.4-0.4c-0.8-0.8-0.9-1.6-0.5-2.6
	c0.2-0.5,1.5-1.3,1.5-1.3s-1-0.6-1.3-1c-0.5-0.7-0.5-1.5-0.1-2.3c0.4-0.8,1.2-1.1,2.1-1.1c0.7,0,1.8,0.8,1.8,0.8s0.3-2.2,1.1-2.6
	c0.8-0.4,2.2,0.8,2.2,0.8l1.7,4c0,0,2.7-0.3,4-0.7c1.8-0.6,4.6-2.2,4.6-2.2c1.3-0.7-1.6-2.7-2.6-3.8c-0.8-0.8-1.3-1.9-1.3-1.9
	c-0.8-1.2,1.9-3.1,3.8-4.4c2.5-1.6,5.3-3.2,7.9-3.7c3.1-0.6,9.1-1.3,12.5-1.8c-1.5-1.3-4.8-2.4-4.8-2.4c1.3-0.4,2.7-0.5,4.2-0.4
	c-1.6-0.9-3.4-1.5-5-2.4c-2.1-1.1-2.9-3.5-4.7-4.5c-0.9-0.5-2.3-0.2-2.3-0.2s-1.5,2-2.5,2.5c-1,0.6-3.4,1-3.4,1s0.7-1.1,0.9-1.6
	c0.2-0.6,0.1-1.6,0.1-1.6s-1,1.6-1.9,2.1c-1.1,0.6-3.6,1.2-3.6,1.2s0.6-1.4,0.9-2c0.2-0.5,0.3-1.5,0.3-1.5s-1.6,2-2.8,2.6
	c-1.3,0.6-4.1,0.9-4.1,0.9s1.5-1.2,2-2c0.5-0.6,0.6-1.6,0.6-1.6s-2.4,2.2-4.1,2.8c-0.8,0.3-2.6,0.2-2.6,0.2s1.9-1.7,2.3-2.8
	c0.2-0.4,0.1-0.9,0-1.3c-0.2-0.6-0.4-1.2-0.9-1.6c-0.6-0.4-2.2-0.2-2.2-0.2s-1,1.3-1.9,1.6c-1,0.3-1.9,0.4-2.7-0.3
	c-0.7-0.6-1-1.8-0.7-2.7C17.1,36.5,18,36,18,36s-1,0-1.4-0.2c-1-0.5-1.6-1.7-1.6-2.8c0-0.9,0.5-1.5,1.3-1.9c0.8-0.4,2.6,0,2.6,0
	s-0.2-1.7,0.3-2.2c0.6-0.5,1.6-0.3,2.3,0c0.9,0.4,0.9,1.5,1.3,2.5l1.1,2.4c0,0,5.6,0.2,8.6,0.3c2.8,0.1,6,1,8.8,0.8
	c0.2,0,0.5,0,0.7-0.1c0,0,0,0,0,0l0.7-0.3c-0.5-0.1-1-0.3-1.4-0.5c-0.9-0.6-1.8-2.6-1.8-2.6s-2.3,0.3-3.3,0
	c-1.1-0.3-2.6-1.7-2.6-1.7c1-0.1,1.8-0.3,2.8-1.1c0,0-2-0.2-3.1-0.7c-1-0.4-2.6-1.9-2.6-1.9c0.9-0.2,1.9-0.1,2.7-1.1
	c0,0-2-0.1-2.8-0.4c-0.9-0.4-2.3-1.8-2.3-1.8c1.1-0.1,2.1-0.2,2.8-1.1c0,0-2,0-2.8-0.4c-1.2-0.5-2.9-2.3-2.9-2.3
	c1.1,0,2.2-0.1,3.1-0.8l-0.6-1.4c-0.7-1.7-2.3-1.2-3.4-1.7c-1-0.5-1.6-1.7-1.6-2.4c-0.1-1.2,0.5-3,3-2.6c-1.2-2.1,0.1-3.6,1.4-4.1
	c1.3-0.5,2.4-0.3,3.3,2c0,0,1.2-1,1.8-1.1c0.9-0.2,1.9,0.2,2.2,1.1c0.1,0.4,0.2,1.2-0.1,1.6c-0.4,0.7-1.1,1.2-1.4,2.2
	c-0.3,1.2,0.7,3.3,0.7,3.3s4.8,4.4,7,6.7c1.2,1.3,3.3,4,3.3,4l0.1-0.1l1.3,0.1c0.4-0.5,0.9-0.9,1.4-1.3c0.6-0.4,2.1-0.5,2.4-1.1
	l0.4-0.8l-1.4,0.5l-1.7-0.5l1.4-1.4V20c0,0,0.9,0.8,1.4,0.8c0.8,0.1,1.6-0.5,2.4-0.6c1.2-0.1,2.5,0.3,3.8,0c1.1-0.3,2.3-0.6,3-1.5
	c1-1.2,1.2-4.5,1.2-4.5l0.5,0.5l0.2,2.3l-0.5,2.5l-1.8,1.6l-2.1,0.7l-2.7-0.2h-1.7l-1.5,0.8l-0.2,0.1c0.1,0.2,0.3,0.7,0.2,1.1
	c0,0.6-0.1,1.3-0.6,1.7c-0.2,0.2-0.7,0.4-1.2,0.6l0.7,0l0.2,4.2l1.3-1.1l0.4,0c0.8-0.8,1.5-1.5,1.5-1.5s-0.4,0.6-0.9,1.6l5.7,0.3
	c0.1-0.6,0.1-0.9,0.1-0.9s0.1,0.4,0.2,0.9l3.7,0.2c0,0-0.2,1.5,0,2.7c0.1,0.5,0.2,1,0.3,1.5c0.1-0.1,0.1-0.3,0.2-0.4
	c0.6-2-1.6-10.5-1.6-10.5l4,6.9c0,0-0.1-1.8,0.3-2.5c0.3-0.7,0.6-1,0.8-1.8c0.2-1.7-2.7-7.2-2.7-7.2l4.2,3.1c0,0-0.2-2.7-0.6-3.9
	c-0.3-1-1.2-2.9-1.2-2.9s1.8,1.1,2.3,2c0.9,1.6-0.2,3.5,0.7,5.1c0.3,0.6,1,0.9,1,0.9s-0.8,0.7-1.6,0.5c-0.7-0.2-1.5-0.4-1.5-0.4
	s1.4,1.6,1.5,3c0.1,1.6-1.7,2.9-1.9,4.5c-0.1,1.1,0.7,3.3,0.7,3.3s-1.1-0.3-1.6-0.7c-0.4-0.3-1.3-1.4-1.3-1.4l0.4,2.3
	c0.2,0.8-1,1.4-1.7,2.2c0.2,0.7,0.3,1.3,0.4,1.9c0.4,2.5-0.4,5.2,0.3,7.6c0.7,2.3,2.8,3.9,3.7,6.1c1.1,2.7,0.9,6.5,2.1,9.2
	c0.6,1.4,0.7,2.1,2.1,2.7c1.1,0.6,2.6,0.5,3.7,0c0.9-0.4,4.8-3.7,5-4.6c0.8-3.8,1.2-2.1,1.5-7.6c0.3-5.2-2.3-6.2-3.9-7.1
	c-2.3-1.2-3.5-4.7-3.5-4.7c-0.6-0.7-1.6-1.2-2.5-1.2c-0.6,0-1.2,0.3-1.6,0.7c-0.7,0.7-1.2,2.6-1.2,2.6s-0.8-2.2-0.5-3.2
	c0.3-1.1,1.1-2,2.1-2.5c1.5-0.7,3.3-0.8,3.3-0.8s-2-1.8-3-3.7c-0.8-1.5-1.2-4.3-1.2-4.3c-0.2-2.1,0.6-4.6,1.8-6.4
	c1.6-2.3,4.6-4,4.6-4s-0.9,2-1.5,3.9c-0.4,1.3-0.4,3-0.4,3s0.9-1.2,1.8-2c1.2-1.2,3.7-2.9,3.7-2.9s-2,3.4-2.5,5.5
	c-0.2,0.9-0.1,2,0.1,2.9c0.3,1.5,1.4,3.6,1.9,5c0.7,2,1.6,2.4,2.7,4.2c5.5,8.4,2.9,11.3,2.9,11.3s2.5-1.3,3.9,0.8
	c0.9,1.3,1,3.7,1,3.7s-1.2-1.6-2.1-1.9c-0.6-0.2-2,0.4-2,0.4S87.7,51.9,88.3,53z M68.6,11.2c-2.2-0.3-3.5-0.1-4.7,2
	C66.9,14.5,67.9,12.7,68.6,11.2z M48.3,20L48.3,20L48.3,20L48.3,20z M50.8,9.6l-3.4,0.2l-0.3,1.9c0,0,1.6-0.1,2.2-0.4
	C50.3,10.9,50.8,9.6,50.8,9.6z"/>
<path fill="#E94546" d="M66.3,17.4c-0.3-1-1.2-2.9-1.2-2.9s0.2,0.1,0.4,0.3c0,0,0,0,0,0c-0.2-0.2-0.4-0.3-0.4-0.3s1.4-0.1,1.9-0.5
	c0.4-0.3,0.8-0.2,1.3-0.7c0.6-0.6,1.1-1.7,1.2-2.3c0-0.2-0.9-1-1.8-1c-0.7-0.1-1.3,0.6-1.4,0.3c0-0.3,1-1.2,1.1-1.7
	c0.2-1-0.4-1.5-0.4-1.5c-1.1,0.3-0.9,0.8-1.4,1c-0.5,0.2-1.7,0-2.1,0.3C59.3,7.2,54.8,7,52.8,9.6l-2.1,0.1c-0.1,0.3-0.6,1.3-1.4,1.7
	c-0.6,0.3-2.2,0.4-2.2,0.4c-0.1,0.8-0.1,1.6,0.3,2.4c0.5,0.8,1.3,1.2,2.2,1c1-0.1,4.5-1.4,4.9-0.5l0.3,0.8c0.4,1.1-0.2,2.4-1.3,3.1
	c-1.2,0.7-3.9,0.2-3.9,0.2s-1.3,0.3-1.4,0.9c0,0.1,0,0.2,0,0.4c0,0,0.1,0,0.1,0.1V20l0,0h0v0c0,0,0.9,0.8,1.4,0.8
	c0.8,0.1,1.6-0.5,2.4-0.6c1.2-0.1,2.5,0.3,3.8,0c1.1-0.3,2.3-0.6,3-1.5c1-1.2,1.2-4.5,1.2-4.5l0.5,0.5l0.2,2.3l-0.5,2.5l-1.8,1.6
	l-2.1,0.7l-2.7-0.2h-1.7l-1.5,0.8l-0.2,0.1c0.1,0.2,0.3,0.7,0.2,1.1c0,0.6-0.1,1.3-0.6,1.7c-0.5,0.5-2.9,0.9-2.9,1.7
	c0,1,0,1.3-0.3,2.3l2.3-0.8c0,0-1.8,2.5-2.4,3.7c-0.2,0.3-0.2,1.1-0.2,1.1s1.3-1.3,2-1.7c0.6-0.3,4.3-4.1,4.3-4.1s-3.5,6.2-3.2,7.4
	c0.3,1.1,1.5,1.9,1.9,3c0.1,0.4,0.1,1.2,0.1,1.2s3-1.2,4-2.3c1.4-1.4,2.2-8.5,2.2-8.5s1.3,5.8,2.2,6.9c0.2,0.3,0.8,0.8,0.8,0.8
	s1.1-1.7,1.4-2.7c0.6-2-1.6-10.5-1.6-10.5l4,6.9c0,0-0.1-1.8,0.3-2.5c0.3-0.7,0.6-1,0.8-1.8c0.2-1.7-2.7-7.2-2.7-7.2l4.2,3.1
	C66.9,21.4,66.6,18.7,66.3,17.4z M56,12.2c-1.2,0-2.1-0.8-2.1-1.6c0-0.8,0.9-1,2-1.1c1.2,0,1.9,0.4,1.9,1.2
	C57.9,11.5,57.2,12.2,56,12.2z M68.6,11.2c-0.7,1.5-1.8,3.3-4.7,2C65.1,11.1,66.4,10.9,68.6,11.2z M67.6,76.4L69,78l-5.2,1.2
	l2.2,1.9l-4.2,0.1l2.3,3.1h-4.3l2.2,2.3l-2,0.1c0,0-0.6,2.9-1.7,3.8c-0.4,0.3-1,0.8-1.4,0.5c-0.4-0.3,0-1,0-1.4v-1.9
	c0,0-1.8,0.4-2.6,0.5c-0.6,0-1.5,0.4-1.8-0.1c-0.4-0.7,1-2.2,1-2.2S52,84.8,51.7,84c-0.1-0.2-0.2-0.5,0-0.7c0.4-0.4,1.1-0.2,1.6,0
	c1.2,0.4,3.1,2,3.1,2l2.5-4.4l4.3-3.5c0,0-0.7-2-1.3-2.8c-1.9-2.4-5.9-3.4-7.2-6.1c-0.5-1-0.4-1.8-0.1-2.9c0.5-1.7,1.8-3,2.9-4.4
	c1.2-1.6,3.4-2.7,4-4.7c0.5-1.7,0.2-3.7-0.5-5.4c-0.5-1.3-1.6-2.3-2.8-3.1c-2-1.5-5-1.4-6.9-3.1c-0.4-0.4-0.8-1.4-0.8-1.4
	s5.3-1.3,7.1-3c0.5-0.5,0.8-1.4,0.8-1.4l2.8,1.1c0,0-0.2,3.8,0.4,5.7c0.4,1.3,1,2.3,1.7,3.5c0.7,1.2,2,2.1,2.3,3.5
	c0.3,1.4,0.3,2.9-0.1,4.3c-0.5,2-2.6,4.3-3,6.4c-0.3,1.6-0.4,3.3,0,4.9c0.5,2.1,3.4,5.3,3.4,5.3l1.4,0.7c0,0,1.7-0.7,2-0.1
	C69.7,75,67.6,76.4,67.6,76.4z M42.2,62.4c-0.8,0.2-1,1.2-1.1,2c-0.2,1.4,1.1,4,1.1,4s1.1,0.9,1.4,1.5c0.2,0.4,0.4,0.9,0.2,1.2
	c-0.2,0.3-0.7,0.2-1.1,0.2c-1,0-3-0.5-3-0.5l0.5,3.1l-2.4-2l-1.3,2.9l-2.5-2.1l-1.2,2.7l-1.2-2.9l-2.7,3.1l-0.2-1.6l-3.7-1.2
	c0,0-3,1.3-4.6,1.6c-0.5,0.1-1.2,0.2-1.5-0.2c-0.4-0.4-0.1-0.8,0.1-1.3c0.4-0.9,2.7-1.7,2.7-1.7s-2.1-1-2.7-1.6
	c-0.2-0.3-0.2-0.7,0-1c0.3-0.6,0.8-0.5,1.4-0.4c0.9,0,2.7,0.9,2.7,0.9s-0.4-2.2,0.4-2.6c0.3-0.1,0.6,0.3,0.8,0.5
	c1,1.1,1.9,4.1,1.9,4.1s2.7,0.1,4.2-0.2c2.1-0.4,3.8-0.9,5.5-2.2c0.8-0.6,1.6-1.1,1.6-2.3c0.1-2-2.1-2.7-3.2-4.4
	c-0.3-0.5-0.5-1.6-0.5-1.6s3.2-2.7,5.1-3.6c1.7-0.9,3.5-1.8,5.4-2c1.3-0.2,6.1-1.2,7.3-0.7c0.9,0.4,1.4,1.4,1.5,2.4
	c0.1,0.9-1.6,1.5-1.3,2.4l1,2.5C52.9,63.2,44.2,62,42.2,62.4z M81.4,41l-0.6,3c0,0-2.9-1.8-3.9-3.1c-0.8-1.1-1.3-2.4-2.2-3.3
	C74,37,73,36.8,72.1,36.8c-1.1,0-1.6,0-2.3,0.8c-0.8,0.8-1.1,3.1-1.1,3.1L68,38.6l1.4-2.2l3.7-1.6L71,32.3l-1.7-4.5l0.3-4l2.7-4.6
	l3.3-2.4l-1.2,3.5l-0.5,3.2l2.3-2.4l3.3-2.5l-2,4.1l-0.7,2.7l0.2,2.1l1.5,4l1.5,2.5l1.1,2.8l0.2,4.5L81.4,41z M18.1,38.6
	c-0.3-0.3-0.2-0.9,0-1.3c0.4-0.9,2.6-1.7,2.6-1.7s-2.5-0.4-3.5-1.1c-0.4-0.3-0.8-0.7-0.8-1.1c0-0.4,0.4-0.8,0.8-1c1-0.5,3,0.2,3,0.2
	s-0.5-1.8,0-2.3c0.2-0.2,0.8-0.2,1,0c0.4,0.3,0.4,1,0.4,1l1.5,4.2c0,0,5.8-0.4,9,0c2.1,0.2,7.3,1.2,7.3,1.2s1.6-0.4,2.4-0.4
	c0.9,0,1.8,0.8,2.7,0.7c0.6-0.1,1.7-0.8,1.7-0.8s0,0.9,0.2,1.3c0.5,1,1.9,1.4,2.2,2.5c0.3,0.8-0.3,2.6-0.3,2.6s-1.6-1.2-2.5-1.7
	C45,40.4,43.4,40,43.4,40s-1.7,1.7-2.6,2.3c-0.5,0.4-1.6,0.9-1.6,0.9c0.3-1.1,0.5-2.1-0.4-3.4l-4,3.5c0.5-1.3,1-2.6,0-3.8l-4.4,3.8
	c0.7-1.4,1.2-2.9,0.6-4.3l-4.6,3.7c0,0,0.1-0.6,0.1-0.9c0-0.6,0.1-1.1,0-1.7c-0.2-0.8-0.4-1.7-1-2.2c-0.9-0.8-3.5-0.8-3.5-0.8
	s-1.2,1.3-2.1,1.6C19.3,38.9,18.5,39,18.1,38.6z M23.9,12.4c0-0.4,0.1-0.9,0.5-1.1c0.9-0.6,3,0.1,3,0.1s-1-2.5-0.7-3.6
	c0.1-0.4,0.4-0.7,0.8-0.8c0.4-0.1,0.8-0.1,1.1,0c0.8,0.4,1.7,2.3,1.7,2.3s1.5-1.4,2.4-1.5c0.3,0,0.5,0.1,0.7,0.4
	c0.1,0.2,0.2,0.4,0.1,0.7c-0.2,0.7-1.1,0.9-1.4,1.5c-0.3,0.6-0.4,1.3-0.4,2c0.1,1.6,1,3.9,1,3.9s3.8,3.2,5.2,4.7
	c1.1,1.1,6,6.4,6,6.4c0.7,3.1-2.3,2.3-2.6,3.9l1.5,0.5l0.4,1.1c0,0-0.6,0.7-1.3,0.3c-0.8-0.4-1.9-3.1-1.9-3.1
	c-2.2,0-3.5,0.2-4.3-0.2c1-0.5,2.4-0.7,2.7-1.9c-2.1-0.4-4.2-0.8-5.5-1.8c0.6-0.6,2-0.7,2.4-2l-5.2-1c0.8-0.6,1.7-1.1,2.4-2.4
	c-3.1-0.1-4-0.4-5.1-1.1l3-0.8l-2.8-4.2c0,0-2.4-0.3-3.3-1C24.2,13.3,23.9,12.9,23.9,12.4z M63.7,31.4L63.7,31.4L63.7,31.4
	L63.7,31.4z"/>
<path fill="#3E7BBE" d="M55,10.7c0,0.4,0.4,0.8,0.8,0.8c0.4,0,0.8-0.4,0.8-0.8c0-0.4-0.4-0.8-0.8-0.8C55.4,9.9,55,10.3,55,10.7
	 M34,7.2c0.2,0.9-0.2,1.5-0.9,1.7c-0.4,0.1-0.8,0-1.2-0.5c0.2-1.4,0.1-2-0.8-3.3C33.4,5.7,33.5,6.8,34,7.2L34,7.2z M27.6,6.2
	c0.5,0.7,0.4,1.5-0.2,2c-0.3,0.3-0.7,0.3-1.3,0c-0.3-1.4-0.7-1.9-2-2.7C26.5,5.1,27,6.1,27.6,6.2L27.6,6.2L27.6,6.2z M23.9,11
	c0.7,0.5,0.9,1.2,0.6,1.9c-0.2,0.4-0.5,0.6-1.1,0.6c-0.9-1.2-1.3-1.5-2.8-1.6C22.5,10.5,23.3,11.2,23.9,11L23.9,11z M17.9,67.4
	c0.8,0.2,1.3,0.8,1.2,1.6c0,0.4-0.3,0.8-0.9,1C17,69.2,16.5,69,15,69.4C16.3,67.4,17.3,67.8,17.9,67.4L17.9,67.4z M17.7,73.5
	c0.8-0.2,1.5,0.1,1.8,0.8c0.2,0.4,0.1,0.8-0.3,1.3c-1.4-0.2-1.8-0.3-2.8,0.7C16.6,73.9,17.4,74,17.7,73.5
	C17.7,73.5,17.7,73.5,17.7,73.5z M23.6,64.7c0.5,0.7,0.4,1.4-0.1,2c-0.3,0.3-0.7,0.4-1.3,0.2c-0.4-1.4-0.7-1.8-2-2.5
	C22.4,63.8,23,64.7,23.6,64.7L23.6,64.7z M20.7,28.3c0.5,0.7,0.5,1.4,0,2c-0.3,0.3-0.7,0.4-1.3,0.3c-0.5-1.4-0.8-1.8-2.2-2.3
	C19.4,27.4,20,28.3,20.7,28.3C20.7,28.3,20.7,28.3,20.7,28.3z M15.4,31.3c0.8,0.3,1.1,1,1,1.7c-0.1,0.4-0.4,0.7-1,0.8
	c-1.1-1-1.6-1.2-3-1C13.9,31.1,14.8,31.6,15.4,31.3L15.4,31.3z M17.1,38.1c0.8-0.1,1.5,0.2,1.7,1c0.1,0.4,0,0.8-0.4,1.2
	c-1.4-0.3-2-0.2-3.1,0.7C15.7,38.7,16.8,38.6,17.1,38.1C17.1,38.1,17.1,38.1,17.1,38.1z M51.1,81.9c0.7,0.5,0.9,1.2,0.5,1.9
	c-0.2,0.4-0.5,0.6-1.2,0.6c-0.8-1.2-1.3-1.5-2.7-1.7C49.7,81.3,50.5,82.1,51.1,81.9L51.1,81.9L51.1,81.9z M50.7,87.2
	c0.8-0.1,1.5,0.2,1.7,1c0.1,0.4,0,0.8-0.4,1.2c-1.4-0.3-2-0.2-3.1,0.7C49.3,87.8,50.3,87.7,50.7,87.2L50.7,87.2L50.7,87.2z
	 M55.7,90.3c0.8-0.2,1.5,0.2,1.8,0.9c0.2,0.4,0.1,0.8-0.4,1.3c-1.4-0.2-2-0.1-3.1,0.9C54.4,91,55.4,90.9,55.7,90.3L55.7,90.3z
	 M54.8,16.8c-0.5-0.1-1-0.2-1.3-0.3c-1.9-0.4-4.6,0.4-6.4-0.1c-1.1-0.3-1.3-0.6-1.9-1.6c-0.3-0.6-0.5-1.7-0.5-1.7s-0.9,1.1-0.7,2.1
	c0.1,0.8,0.7,1.7,1.5,2.1c2.1,1.1,5.8,0.4,8.1,0.9c0.1,0,0.3,0.1,0.3,0.1S54.4,17.9,54.8,16.8z M52.7,2l1.3,1.4c0,0,0.7-0.1,1.1,0
	c0.3,0.2,0.6,0.6,0.6,1c0,0.4-0.1,0.8-0.4,1l-0.5,0.4c0,0,1.4,0.6,2.2,0.5c1-0.1,1.7-0.9,1.7-0.9s-0.7-0.3-1-0.6
	c-0.2-0.2-0.4-0.5-0.4-0.8c0-0.5,0.2-1,0.7-1.3c0.2-0.1,0.7,0,0.7,0l1.2-1.4L61,2.9c0,0,0.5-0.1,0.7,0c0.4,0.3,0.6,0.8,0.5,1.3
	c0,0.3-0.3,0.6-0.5,0.8c-0.3,0.3-1.1,0.5-1.1,0.5s0.6,0.9,1.6,1.1c0.8,0.1,2.3-0.3,2.3-0.3L64,5.9c-0.2-0.3-0.4-0.7-0.3-1.1
	c0.1-0.4,0.4-0.8,0.8-0.9c0.3-0.1,1.1,0,1.1,0L67,2.7l-1.9,6.2c-3.7-0.9-7.5-1.1-11.2-0.5L52.7,2z"/>
</svg>
