<?xml version="1.0" encoding="utf-8"?>
<!-- Generator: Adobe Illustrator 24.0.0, SVG Export Plug-In . SVG Version: 6.00 Build 0)  -->
<svg version="1.2" baseProfile="tiny" id="Layer_1" xmlns="http://www.w3.org/2000/svg" xmlns:xlink="http://www.w3.org/1999/xlink"
	 x="0px" y="0px" viewBox="0 0 100 100" xml:space="preserve">
<path fill="#CC2027" d="M90.7,56.1c0.6,1.2,0.3,3.5,0.3,3.5s-0.8-1.6-1.7-2.1c-0.7-0.5-2.6-0.3-2.6-0.3s2.3,1.9,2.8,3.2
	c0.4,1.2-0.1,3.9-0.1,3.9s-0.9-2-1.8-2.6c-0.6-0.4-0.9-0.7-1.6-0.7c-0.7,0.1-1.1,0.4-1.9,4.1v0c-1.6,4.2-10.8,8.7-15.6,3.2
	c-1.4-1.6-2.3-4.6-2.3-4.6s-2,4.6-1.7,7c0.2,2.3,1.2,4.7,2.8,6.1l0.9,0.8c0,0,1.5-0.6,2.3-0.5c0.6,0.1,1.4,0.4,1.7,1
	c0.2,0.6-0.1,1.3-0.4,1.8c-0.3,0.6-1.5,1.6-1.5,1.6s1.5,1.3,1.7,2.3c0.3,1.5-0.6,3.6-0.6,3.6s-0.4-1.7-1.4-2.4c-0.8-0.6-2.9,0-2.9,0
	s1.5,0.7,1.8,1.4c0.6,1.5-0.2,4.3-0.2,4.3s-1.1-2.1-2.2-2.6c-0.6-0.3-1.9,0-1.9,0s1.6,1.4,1.8,2.4c0.2,1.3-0.1,3.3-0.1,3.3
	s-0.9-1.9-1.7-2.4c-0.8-0.5-2.4-0.1-2.4-0.1s1.3,1.1,1.5,1.8c0.4,1.3,0,2.9,0,2.9s-1.4-1.3-2.3-1.8c-0.3-0.2-1.2,0-1.2,0
	s-0.6,3.7-2,4.7c-0.8,0.6-2.2,0.7-3.1,0.1c-0.6-0.4-0.8-1.3-0.9-2c-0.1-0.5,0.3-1.3,0.3-1.3s-1.4,0.3-2,0.3c-1-0.1-1.9,0-2.4-0.8
	c-0.4-0.6-0.4-1.5-0.1-2.2c0.2-0.6,1.2-1.4,1.2-1.4s-1.1-0.6-1.4-1.4c-0.3-0.9-0.3-1.7,0.4-2.3c0.7-0.7,2-0.3,2.9,0
	c1.2,0.4,2.3,1.6,2.3,1.6s1.7-3,2.8-4.4c0.9-1.1,3.2-2.7,3.2-2.7L60.6,81c0,0-3.7-2-5.3-3.3c-1.3-1.1-2.8-2.3-3.5-3.9
	c-0.6-1.2-0.8-2.7-0.5-4c0.1-0.7,0.4-1.5,0.7-2.2c-1.4,0.3-6.3,0-10.4-0.2c-1.6-0.1,0.3,4.7,0.3,4.7s1.2,0.9,1.7,1.7
	c0.5,0.7,0.7,1.6,0.3,2.4c-0.4,0.8-1.5,1.1-2.5,1.3c-0.9,0.2-2.2-0.4-2.2-0.4c0.4,0.7,0.8,1.4,0.7,2.2c-0.2,1.3-2.9,2.9-2.9,2.9
	s0.5-1.3,0.3-1.9c-0.2-0.7-1-1.7-1-1.7s-0.1,1.1-0.3,1.6c-0.6,1.5-3.7,2.9-3.7,2.9s0.7-1.5,0.7-2.3c0-0.8-0.9-1.5-0.9-1.5
	s-0.3,1.3-0.9,2c-0.7,0.9-2.9,1.9-2.9,1.9s0.5-1.2,0.5-1.9c0-0.6-0.3-1.8-0.3-1.8s-1.3,2-2,2.7c-0.9,0.8-2.9,1.4-2.9,1.4
	s1.2-2.1,0.8-3.1c-0.4-1-3-1.5-3-1.5s-2.8,1.3-4.6,1.6c-0.9,0.1-2.1,0.3-2.7-0.4c-0.8-0.9-0.9-1.7-0.5-2.8c0.2-0.6,1.7-1.4,1.7-1.4
	s-1.1-0.6-1.4-1c-0.6-0.8-0.5-1.7-0.1-2.5c0.4-0.9,1.3-1.2,2.3-1.2c0.7,0,1.9,0.9,1.9,0.9s0.3-2.4,1.2-2.8c0.9-0.4,2.4,0.9,2.4,0.9
	l1.8,4.3c0,0,2.9-0.4,4.4-0.8c2-0.6,5.1-2.4,5.1-2.4c1.4-0.8-1.7-3-2.8-4.2c-0.8-0.9-1.4-2.1-1.4-2.1c-0.8-1.3,2.1-3.4,4.2-4.8
	c2.7-1.8,5.8-3.5,8.6-4c3.3-0.6,9.9-1.5,13.5-1.9C53.6,53,50,51.8,50,51.8c1.4-0.4,2.9-0.6,4.6-0.5c-1.8-0.9-3.7-1.7-5.4-2.6
	c-2.3-1.2-3.1-3.8-5.1-4.9c-1-0.6-2.5-0.2-2.5-0.2s-1.6,2.1-2.7,2.7c-1.1,0.6-3.7,1.1-3.7,1.1s0.8-1.2,1-1.7
	c0.2-0.6,0.1-1.8,0.1-1.8s-1.1,1.7-2,2.3c-1.2,0.7-3.9,1.3-3.9,1.3s0.7-1.5,1-2.2c0.3-0.6,0.3-1.6,0.3-1.6s-1.8,2.2-3.1,2.8
	c-1.4,0.7-4.4,1-4.4,1s1.6-1.3,2.2-2.1c0.5-0.6,0.6-1.8,0.6-1.8s-2.6,2.4-4.5,3.1c-0.9,0.3-2.9,0.2-2.9,0.2s2-1.9,2.5-3.1
	c0.2-0.5,0.1-1,0-1.5c-0.2-0.6-0.4-1.3-1-1.7c-0.7-0.4-2.4-0.2-2.4-0.2s-1.1,1.4-2.1,1.7c-1.1,0.4-2,0.4-2.9-0.4
	c-0.7-0.7-1-2-0.7-2.9c0.2-0.7,1.2-1.2,1.2-1.2s-1.1,0-1.6-0.2c-1.1-0.5-1.7-1.8-1.7-3c0-1,0.6-1.6,1.5-2.1c0.8-0.4,2.8,0,2.8,0
	s-0.3-1.9,0.4-2.4c0.6-0.6,1.8-0.4,2.5,0c1,0.5,1,1.7,1.4,2.7l1.2,2.6c0,0,6.1,0.2,9.3,0.4c3,0.1,6.5,1,9.6,0.9
	c0.2,0,0.5-0.1,0.8-0.1c0,0,0,0,0,0l0.8-0.3c-0.6-0.1-1.1-0.3-1.5-0.5c-1-0.7-2-2.9-2-2.9s-2.5,0.3-3.6,0c-1.2-0.3-2.9-1.9-2.9-1.9
	c1.1-0.1,2-0.3,3.1-1.2c0,0-2.2-0.2-3.4-0.8c-1.1-0.5-2.8-2.1-2.8-2.1c1-0.2,2.1-0.1,2.9-1.2c0,0-2.1-0.1-3.1-0.5
	c-1-0.4-2.5-1.9-2.5-1.9c1.2-0.1,2.3-0.2,3-1.2c0,0-2.2,0-3.1-0.4c-1.3-0.6-3.2-2.5-3.2-2.5c1.2-0.1,2.4-0.1,3.3-0.8L25,16.6
	c-0.8-1.8-2.5-1.3-3.7-1.8c-1.1-0.5-1.7-1.9-1.8-2.6c-0.1-1.3,0.5-3.3,3.3-2.8c-1.3-2.3,0.1-3.9,1.5-4.5c1.4-0.6,2.6-0.3,3.6,2.2
	c0,0,1.3-1.1,2-1.2c1-0.2,2,0.2,2.4,1.2c0.1,0.4,0.2,1.3-0.1,1.7c-0.4,0.8-1.2,1.3-1.5,2.4c-0.3,1.3,0.8,3.6,0.8,3.6
	s5.2,4.8,7.7,7.3c1.3,1.4,3.6,4.3,3.6,4.3l0.1-0.1l1.4,0.1c0.4-0.6,1-1,1.5-1.4c0.6-0.4,2.3-0.6,2.6-1.2l0.5-0.9l-1.5,0.6l-1.8-0.6
	l1.6-1.5v-1.3c0,0,1,0.8,1.6,0.9c0.9,0.1,1.7-0.5,2.6-0.6c1.4-0.2,2.8,0.3,4.1,0c1.2-0.3,2.5-0.7,3.3-1.7c1-1.3,1.3-4.8,1.3-4.8
	l0.5,0.6l0.2,2.5l-0.6,2.7l-2,1.8l-2.3,0.8L52.9,22H51l-1.7,0.9L49.1,23c0.1,0.3,0.3,0.8,0.3,1.2c0,0.6-0.1,1.4-0.6,1.8
	c-0.2,0.2-0.8,0.4-1.3,0.6l0.7,0l0.2,4.6l1.4-1.2l0.5,0c0.9-0.9,1.6-1.7,1.6-1.7s-0.4,0.7-0.9,1.7l6.2,0.3c0.1-0.6,0.1-1,0.1-1
	s0.1,0.4,0.2,1l4.1,0.2c0,0-0.2,1.7,0,3c0.1,0.5,0.2,1.1,0.4,1.7c0.1-0.2,0.1-0.3,0.2-0.5c0.6-2.1-1.7-11.5-1.7-11.5l4.3,7.5
	c0,0-0.1-1.9,0.3-2.8c0.3-0.8,0.7-1.1,0.8-1.9c0.3-1.9-3-7.8-3-7.8l4.6,3.4c0,0-0.2-2.9-0.6-4.3c-0.3-1.1-1.3-3.2-1.3-3.2
	s2,1.2,2.5,2.2c1,1.8-0.2,3.8,0.8,5.6c0.3,0.6,1.1,1,1.1,1s-0.9,0.8-1.7,0.6c-0.7-0.2-1.6-0.5-1.6-0.5s1.5,1.8,1.6,3.3
	c0.1,1.8-1.9,3.1-2,4.9c-0.1,1.2,0.8,3.6,0.8,3.6s-1.1-0.4-1.7-0.8c-0.5-0.4-1.4-1.5-1.4-1.5l0.5,2.5c0.2,0.9-1.1,1.6-1.9,2.4
	c0.2,0.7,0.4,1.4,0.5,2c0.4,2.7-0.4,5.6,0.3,8.3c0.8,2.6,3.1,4.2,4.1,6.7c1.2,3,1,7.1,2.3,10c0.7,1.5,0.8,2.2,2.3,3
	c1.2,0.6,2.8,0.5,4,0c1-0.4,5.2-4,5.5-5c0.9-4.2,1.3-2.3,1.7-8.3c0.3-5.7-2.5-6.7-4.3-7.7c-2.5-1.3-3.8-5.1-3.8-5.1
	c-0.6-0.8-1.7-1.3-2.7-1.3c-0.6,0-1.3,0.3-1.7,0.7c-0.7,0.7-1.3,2.8-1.3,2.8s-0.8-2.3-0.5-3.5c0.3-1.1,1.2-2.2,2.3-2.7
	c1.6-0.8,3.6-0.8,3.6-0.8s-2.2-2-3.3-4c-0.9-1.6-1.3-4.7-1.3-4.7c-0.2-2.3,0.6-5,2-6.9c1.7-2.5,5-4.4,5-4.4s-1,2.1-1.6,4.2
	C75,22.3,75,24.1,75,24.1s1-1.3,2-2.2c1.3-1.3,4-3.2,4-3.2s-2.2,3.7-2.7,6c-0.3,1-0.1,2.1,0.1,3.1c0.4,1.6,1.5,3.9,2,5.5
	c0.8,2.2,1.7,2.7,3,4.6c6,9.1,3.2,12.3,3.2,12.3s2.7-1.4,4.3,0.9c1,1.4,1.1,4,1.1,4s-1.3-1.7-2.3-2.1c-0.7-0.3-2.2,0.4-2.2,0.4
	S90.1,54.9,90.7,56.1z M69.3,10.6c-2.4-0.3-3.9-0.1-5.1,2.1C67.4,14.2,68.5,12.3,69.3,10.6z M47.2,20.2L47.2,20.2L47.2,20.2
	L47.2,20.2z M49.9,8.9l-3.7,0.2l-0.3,2.1c0,0,1.7-0.1,2.4-0.4C49.4,10.4,49.9,8.9,49.9,8.9z"/>
<path fill="#E94546" d="M66.8,17.4c-0.3-1.1-1.3-3.2-1.3-3.2s0.2,0.1,0.4,0.3c0,0,0,0,0,0c-0.2-0.2-0.4-0.3-0.4-0.3s1.6-0.1,2.1-0.5
	c0.4-0.3,0.9-0.3,1.4-0.7c0.6-0.6,1.2-1.9,1.3-2.6c0-0.2-1-1-2-1.1c-0.8-0.1-1.5,0.6-1.5,0.4c-0.1-0.4,1.1-1.3,1.2-1.8
	c0.2-1.1-0.5-1.7-0.5-1.7c-1.1,0.3-1,0.9-1.6,1.1c-0.5,0.2-1.8,0.1-2.3,0.3C59.2,6.2,54.3,6,52.1,8.9L49.9,9
	c-0.1,0.3-0.7,1.4-1.5,1.8c-0.7,0.3-2.4,0.4-2.4,0.4c-0.1,0.9-0.2,1.7,0.4,2.6c0.5,0.8,1.4,1.3,2.4,1.1c1.1-0.1,4.9-1.6,5.3-0.5
	l0.3,0.8c0.4,1.2-0.2,2.6-1.4,3.4c-1.3,0.8-4.2,0.2-4.2,0.2s-1.4,0.3-1.6,1c0,0.1,0,0.3,0,0.4c0,0,0.1,0,0.1,0.1v-0.1l0,0h0v0
	c0,0,1,0.8,1.6,0.9c0.9,0.1,1.7-0.5,2.6-0.6c1.4-0.2,2.8,0.3,4.1,0c1.2-0.3,2.5-0.7,3.3-1.7c1-1.3,1.3-4.8,1.3-4.8l0.5,0.6l0.2,2.5
	l-0.6,2.7l-2,1.8l-2.3,0.8L52.9,22H51l-1.7,0.9L49.1,23c0.1,0.3,0.3,0.8,0.3,1.2c0,0.6-0.1,1.4-0.6,1.8c-0.6,0.6-3.2,1-3.2,1.8
	c0,1.1,0,1.4-0.3,2.5l2.5-0.8c0,0-2,2.7-2.6,4C45,33.9,45,34.7,45,34.7s1.4-1.4,2.2-1.9c0.6-0.3,4.7-4.5,4.7-4.5s-3.9,6.7-3.5,8.1
	c0.3,1.2,1.7,2.1,2.1,3.3c0.1,0.4,0.1,1.3,0.1,1.3s3.3-1.3,4.4-2.5c1.5-1.6,2.4-9.2,2.4-9.2s1.4,6.3,2.4,7.5
	c0.3,0.3,0.9,0.9,0.9,0.9s1.2-1.8,1.5-3c0.6-2.1-1.7-11.5-1.7-11.5l4.3,7.5c0,0-0.1-1.9,0.3-2.8c0.3-0.8,0.7-1.1,0.8-1.9
	c0.3-1.9-3-7.8-3-7.8l4.6,3.4C67.4,21.7,67.2,18.8,66.8,17.4z M55.6,11.7c-1.3,0-2.3-0.9-2.3-1.7c0-0.9,0.9-1.1,2.2-1.1
	c1.3,0,2.1,0.4,2.1,1.3C57.7,11,56.9,11.7,55.6,11.7z M69.3,10.6c-0.8,1.7-1.9,3.6-5.1,2.1C65.5,10.5,66.9,10.3,69.3,10.6z
	 M68.2,81.6l1.6,1.7l-5.6,1.3l2.4,2.1l-4.6,0.1l2.5,3.4h-4.7l2.4,2.5l-2.2,0.1c0,0-0.7,3.2-1.8,4.2c-0.4,0.4-1.1,0.8-1.6,0.5
	c-0.4-0.3,0-1,0-1.6v-2.1c0,0-1.9,0.5-2.9,0.5c-0.7,0-1.6,0.4-2-0.1c-0.4-0.7,1-2.4,1-2.4s-1.4-1.2-1.7-2.1c-0.1-0.2-0.2-0.6,0-0.8
	c0.4-0.4,1.2-0.2,1.7,0c1.3,0.4,3.4,2.2,3.4,2.2l2.7-4.8l4.7-3.8c0,0-0.7-2.1-1.4-3C59.9,77,55.7,76,54.2,73c-0.5-1.1-0.5-2-0.1-3.1
	c0.5-1.8,2-3.3,3.1-4.8c1.3-1.8,3.6-3,4.3-5.1c0.6-1.9,0.3-4.1-0.5-5.9c-0.6-1.4-1.8-2.5-3-3.4c-2.2-1.6-5.4-1.6-7.5-3.4
	c-0.5-0.4-0.9-1.6-0.9-1.6s5.7-1.4,7.7-3.3c0.6-0.5,0.9-1.6,0.9-1.6l3,1.2c0,0-0.2,4.2,0.4,6.1c0.4,1.4,1.1,2.5,1.8,3.8
	c0.8,1.3,2.2,2.3,2.5,3.8c0.3,1.5,0.3,3.2-0.1,4.7c-0.6,2.2-2.8,4.7-3.3,6.9c-0.3,1.8-0.4,3.6,0,5.4c0.5,2.3,3.7,5.8,3.7,5.8
	l1.6,0.8c0,0,1.9-0.8,2.2-0.1C70.5,80,68.2,81.6,68.2,81.6z M40.5,66.3c-0.9,0.2-1.1,1.3-1.2,2.2c-0.2,1.5,1.2,4.4,1.2,4.4
	s1.2,1,1.5,1.6c0.2,0.4,0.5,1,0.2,1.3C42,76.2,41.5,76,41.1,76c-1.1,0-3.2-0.5-3.2-0.5l0.5,3.3l-2.6-2.1l-1.4,3.1l-2.8-2.3l-1.3,3
	l-1.3-3.1L26,80.8l-0.3-1.7l-4-1.4c0,0-3.3,1.4-5,1.8c-0.5,0.1-1.3,0.2-1.6-0.2C14.7,79,15,78.5,15.2,78c0.5-1,2.9-1.9,2.9-1.9
	s-2.3-1.1-2.9-1.8c-0.3-0.3-0.2-0.8,0-1.1c0.3-0.6,0.9-0.5,1.6-0.5c1,0,2.9,1,2.9,1s-0.5-2.4,0.4-2.8c0.3-0.1,0.7,0.3,0.9,0.6
	c1.1,1.2,2.1,4.4,2.1,4.4s2.9,0.1,4.6-0.2c2.3-0.5,4.1-1,6-2.3c0.9-0.6,1.8-1.2,1.8-2.5c0.1-2.2-2.3-3-3.5-4.8
	c-0.3-0.5-0.6-1.8-0.6-1.8s3.5-2.9,5.5-4c1.8-1,3.8-1.9,5.9-2.2c1.4-0.2,6.7-1.4,7.9-0.7c0.9,0.5,1.5,1.5,1.6,2.6
	c0.1,1-1.8,1.7-1.4,2.6l1.1,2.8C52.2,67.2,42.8,65.9,40.5,66.3z M83.2,43.1l-0.7,3.3c0,0-3.1-2-4.2-3.4c-0.9-1.1-1.4-2.6-2.4-3.6
	c-0.7-0.6-1.8-0.9-2.8-0.9c-1.1,0-1.7,0-2.5,0.9c-0.8,0.9-1.2,3.3-1.2,3.3l-0.7-2.3l1.6-2.3l4-1.8l-2.3-2.7L70,28.7l0.3-4.3l3-5
	l3.6-2.6l-1.3,3.8L75,24l2.5-2.6l3.6-2.7l-2.1,4.4l-0.7,3l0.2,2.3l1.7,4.3l1.6,2.7l1.2,3l0.2,4.9L83.2,43.1z M14.4,40.4
	c-0.3-0.3-0.2-1,0-1.4c0.4-1,2.8-1.8,2.8-1.8s-2.8-0.4-3.8-1.2c-0.4-0.3-0.9-0.7-0.9-1.2c0-0.5,0.4-0.9,0.9-1.1
	c1.1-0.5,3.2,0.3,3.2,0.3s-0.6-1.9,0-2.5c0.3-0.3,0.8-0.2,1.1,0c0.4,0.3,0.4,1,0.4,1l1.7,4.5c0,0,6.3-0.4,9.8,0
	c2.3,0.3,7.9,1.3,7.9,1.3s1.7-0.5,2.6-0.4c1,0,1.9,0.9,3,0.8c0.7-0.1,1.8-0.9,1.8-0.9s0.1,1,0.3,1.4c0.5,1.1,2.1,1.5,2.4,2.7
	c0.3,0.9-0.3,2.8-0.3,2.8s-1.7-1.3-2.7-1.8c-0.8-0.4-2.6-0.9-2.6-0.9S40,43.7,39,44.4c-0.5,0.4-1.7,1-1.7,1c0.3-1.1,0.6-2.3-0.4-3.7
	l-4.4,3.8c0.5-1.4,1.1-2.8,0-4.2l-4.8,4.2c0.7-1.6,1.3-3.1,0.7-4.7l-5,4c0,0,0.1-0.6,0.1-1c0-0.6,0.1-1.2,0-1.8
	c-0.2-0.9-0.4-1.9-1.1-2.4c-1-0.8-3.8-0.9-3.8-0.9s-1.4,1.5-2.3,1.7C15.7,40.7,14.8,40.9,14.4,40.4z M20.7,11.9c0-0.5,0.2-1,0.5-1.2
	c0.9-0.6,3.3,0.1,3.3,0.1s-1.1-2.7-0.7-4c0.1-0.4,0.5-0.7,0.8-0.9c0.4-0.2,0.9-0.2,1.2,0.1c0.9,0.5,1.9,2.5,1.9,2.5S29.4,7,30.4,7
	c0.3,0,0.6,0.2,0.7,0.4c0.1,0.2,0.2,0.5,0.2,0.7c-0.2,0.7-1.2,1-1.5,1.6c-0.3,0.7-0.5,1.5-0.4,2.2c0.1,1.7,1,4.2,1,4.2
	s4.1,3.5,5.7,5.1c1.2,1.2,6.5,7,6.5,7c0.7,3.4-2.5,2.6-2.8,4.2l1.7,0.6l0.5,1.2c0,0-0.7,0.7-1.4,0.3c-0.8-0.5-2.1-3.3-2.1-3.3
	c-2.4,0-3.8,0.2-4.6-0.2c1.1-0.5,2.6-0.8,2.9-2c-2.3-0.4-4.5-0.9-5.9-1.9c0.7-0.6,2.2-0.7,2.7-2.2l-5.6-1.1c0.9-0.7,1.9-1.1,2.6-2.7
	c-3.3-0.2-4.3-0.4-5.5-1.2L28,19l-3-4.6c0,0-2.6-0.3-3.6-1.1C21,12.9,20.7,12.4,20.7,11.9z M63.9,32.6L63.9,32.6L63.9,32.6
	L63.9,32.6z"/>
<path fill="#3E7BBE" d="M54.5,10.1c0,0.5,0.4,0.8,0.9,0.8c0.5,0,0.9-0.4,0.8-0.9c0-0.5-0.4-0.9-0.9-0.8C54.9,9.3,54.5,9.7,54.5,10.1
	 M31.7,6.3c0.2,1-0.2,1.6-1,1.8c-0.4,0.1-0.8,0-1.3-0.6C29.6,6,29.5,5.3,28.5,4C31,4.6,31.1,5.8,31.7,6.3L31.7,6.3z M24.7,5.2
	c0.5,0.8,0.4,1.6-0.2,2.1c-0.3,0.3-0.8,0.3-1.4,0.1c-0.4-1.5-0.7-2.1-2.1-2.9C23.5,4,24,5.1,24.7,5.2L24.7,5.2L24.7,5.2z M20.7,10.4
	c0.8,0.5,1,1.3,0.7,2.1c-0.2,0.4-0.6,0.7-1.2,0.7c-0.9-1.3-1.4-1.6-3-1.7C19.1,9.9,20,10.6,20.7,10.4L20.7,10.4z M14.1,71.8
	c0.9,0.2,1.4,0.8,1.3,1.7c0,0.4-0.3,0.8-0.9,1.1c-1.3-0.9-1.9-1-3.4-0.6C12.4,71.8,13.5,72.2,14.1,71.8L14.1,71.8z M13.9,78.4
	c0.9-0.2,1.6,0.1,2,0.9c0.2,0.4,0.1,0.9-0.3,1.4c-1.6-0.2-1.9-0.3-3.1,0.8C12.7,78.9,13.6,79,13.9,78.4
	C13.9,78.4,13.9,78.4,13.9,78.4z M20.3,68.9c0.5,0.7,0.5,1.5-0.1,2.2c-0.3,0.3-0.8,0.4-1.4,0.2c-0.4-1.5-0.8-2-2.2-2.7
	C19.1,67.8,19.6,68.8,20.3,68.9L20.3,68.9z M17.1,29.2c0.6,0.7,0.6,1.5,0,2.2c-0.3,0.3-0.7,0.5-1.4,0.3c-0.5-1.5-0.9-1.9-2.4-2.5
	C15.8,28.3,16.4,29.2,17.1,29.2C17.1,29.2,17.1,29.2,17.1,29.2z M11.4,32.5c0.9,0.3,1.2,1,1,1.9c-0.1,0.4-0.4,0.8-1.1,0.9
	c-1.2-1-1.7-1.3-3.3-1.1C9.8,32.3,10.8,32.9,11.4,32.5L11.4,32.5z M13.3,39.9c0.9-0.1,1.6,0.3,1.9,1.1c0.1,0.4,0,0.9-0.5,1.3
	c-1.5-0.3-2.1-0.2-3.4,0.7C11.8,40.5,12.9,40.5,13.3,39.9C13.3,39.9,13.3,39.9,13.3,39.9z M50.2,87.5c0.7,0.5,0.9,1.3,0.6,2.1
	c-0.2,0.4-0.6,0.6-1.3,0.6c-0.9-1.3-1.4-1.7-3-1.9C48.7,86.9,49.6,87.7,50.2,87.5L50.2,87.5L50.2,87.5z M49.8,93.3
	c0.9-0.1,1.6,0.3,1.9,1.1c0.1,0.4,0,0.9-0.5,1.3c-1.5-0.3-2.1-0.2-3.4,0.7C48.2,93.9,49.4,93.9,49.8,93.3L49.8,93.3L49.8,93.3z
	 M55.3,96.7c0.9-0.2,1.6,0.2,1.9,1c0.2,0.4,0.1,0.9-0.4,1.4c-1.5-0.2-2.1-0.1-3.3,1C53.8,97.4,55,97.3,55.3,96.7L55.3,96.7z
	 M54.3,16.7c-0.6-0.1-1.1-0.2-1.5-0.3c-2-0.5-5,0.5-7-0.2c-1.2-0.4-1.5-0.6-2-1.7c-0.4-0.7-0.5-1.8-0.5-1.8s-1,1.2-0.8,2.3
	c0.1,0.9,0.8,1.8,1.6,2.3c2.3,1.2,6.3,0.4,8.8,1c0.1,0,0.3,0.1,0.3,0.1S53.9,17.9,54.3,16.7z M52,0.7l1.4,1.5c0,0,0.8-0.1,1.1,0.1
	c0.4,0.2,0.7,0.6,0.7,1.1c0,0.4-0.1,0.9-0.4,1.1l-0.5,0.5c0,0,1.5,0.6,2.4,0.5c1-0.1,1.9-1,1.9-1s-0.8-0.4-1.1-0.7
	C57.2,3.5,57,3.2,57,2.8c0-0.5,0.3-1.1,0.7-1.4c0.2-0.1,0.8,0,0.8,0L59.8,0L61,1.6c0,0,0.6-0.1,0.8,0c0.4,0.3,0.6,0.9,0.6,1.4
	c0,0.3-0.3,0.6-0.6,0.9c-0.3,0.3-1.2,0.6-1.2,0.6s0.7,1,1.7,1.2c0.8,0.1,2.5-0.3,2.5-0.3l-0.5-0.5C64,4.5,63.9,4.1,64,3.7
	c0.1-0.4,0.4-0.8,0.8-1c0.4-0.2,1.1,0.1,1.1,0.1l1.6-1.3l-2,6.7c-4.1-1-8.1-1.2-12.2-0.6L52,0.7z"/>
</svg>
