<?xml version="1.0" encoding="utf-8"?>
<!-- Generator: Adobe Illustrator 21.0.0, SVG Export Plug-In . SVG Version: 6.00 Build 0)  -->
<svg version="1.1" id="Layer_1" xmlns="http://www.w3.org/2000/svg" xmlns:xlink="http://www.w3.org/1999/xlink" x="0px" y="0px"
	 viewBox="0 0 100 100" enable-background="new 0 0 100 100" xml:space="preserve">
<path d="M100,79.9l-7.8-7.8c3.1-4.6,5.3-9.8,6.4-15.2c1.7-8.1,1-16.6-1.9-24.3c-2.9-7.7-8-14.6-14.6-19.5s-14.5-8-22.7-8.7
	c10,5.9,18.1,15.2,22.4,26c2.5,6.1,3.8,12.6,3.3,19.1c-0.3,4.2-1.5,8.4-3.5,12.2L52.6,32.5l10.6-10.6l-6.3-6.3
	c-2.2,1.2-4.7,2-7.1,2.5c-2.5,0.5-5.2,0.6-7.7,0.4L21.1,39.3l12.3,12.3l8.3-8.3l29.3,29.3c-2.7,1.6-5.7,2.7-8.8,3.3
	c-5.9,1.2-12.1,0.9-17.9-0.7c-9-2.3-17.2-7.4-23.4-14.4l-21,21l9,9l14-14c7.9,9,19.7,14.5,31.7,14.8c9.6,0.2,19.1-2.9,26.9-8.5
	l7.6,7.6L100,79.9z"/>
</svg>
