<?xml version="1.0" encoding="utf-8"?>
<!-- Generator: Adobe Illustrator 21.0.0, SVG Export Plug-In . SVG Version: 6.00 Build 0)  -->
<svg version="1.1" id="Layer_1" xmlns="http://www.w3.org/2000/svg" xmlns:xlink="http://www.w3.org/1999/xlink" x="0px" y="0px"
	 viewBox="0 0 100 100" style="enable-background:new 0 0 100 100;" xml:space="preserve">
<path d="M86.7,77.8l-6.8-6.8c2.7-4,4.6-8.5,5.5-13.2c1.5-7,0.9-14.4-1.6-21.1c-2.5-6.7-6.9-12.7-12.7-16.9S58.6,13,51.5,12.4
	c8.7,5.1,15.7,13.2,19.4,22.5c2.2,5.3,3.3,10.9,2.9,16.6c-0.3,3.6-1.3,7.3-3,10.6L45.6,36.8l9.2-9.2l-5.5-5.5
	c-1.9,1-4.1,1.7-6.2,2.2c-2.2,0.4-4.5,0.5-6.7,0.3l-18.2,18l10.7,10.7l7.2-7.2l25.4,25.4c-2.3,1.4-4.9,2.3-7.6,2.9
	c-5.1,1-10.5,0.8-15.5-0.6c-7.8-2-14.9-6.4-20.3-12.5L-0.1,79.5l7.8,7.8l12.1-12.1C26.7,83,36.9,87.7,47.3,88
	c8.3,0.2,16.6-2.5,23.3-7.4l6.6,6.6L86.7,77.8z"/>
</svg>
