<?xml version="1.0" encoding="utf-8"?>
<!-- Generator: Adobe Illustrator 21.0.0, SVG Export Plug-In . SVG Version: 6.00 Build 0)  -->
<svg version="1.1" id="Layer_1" xmlns="http://www.w3.org/2000/svg" xmlns:xlink="http://www.w3.org/1999/xlink" x="0px" y="0px"
	 viewBox="0 0 100 100" style="enable-background:new 0 0 100 100;" xml:space="preserve">
<path d="M59.4,65.3c-0.7,0-1.2,0-1.7,0c-12.3,0-24.6,0-36.9,0C14.2,65.3,9,69.1,7,75.2c-2.5,7.8,2.3,16.1,10.4,18
	c7.8,1.8,15.8-3.6,17-11.5c0.2-1.4,0.2-2.8,0.3-4.3c1.6,0,3.2,0,4.9,0c0.4,4.4-0.5,8.4-2.8,12.1c-4.3,6.8-12,10.2-20,8.8
	C9.5,96.9,3.2,90.8,1.7,83.5c-1.7-8,1.5-15.8,8.3-20.3c3.1-2,6.5-3.1,10.1-3.1c12.7,0,25.4,0,38.1,0c0.9,0,1.2,0.2,1.1,1.1
	C59.4,62.5,59.4,63.8,59.4,65.3z"/>
<path d="M40.4,34.8c0.7,0,1.2,0,1.7,0c12.4,0,24.7,0,37.1,0c8.3,0,14.7-6.8,14.2-15.1C93,12.2,86.6,6.4,78.9,6.6
	c-7.3,0.1-13.5,6.2-13.7,13.6c0,0.8,0,1.6,0,2.5c-1.8,0-3.4,0-5,0c-0.4-4.3,0.5-8.3,2.7-12c5.5-8.9,16.6-11.8,25.8-6.8
	c8.9,4.9,12.5,16,7.9,25.3c-3.4,6.8-9.1,10.6-16.7,10.7c-12.8,0.2-25.6,0.1-38.4,0.1c-0.8,0-1.2-0.2-1.2-1.1
	C40.5,37.5,40.4,36.2,40.4,34.8z"/>
<path d="M22.6,34.8c0,1.7,0,3.3,0,5c-1.4,0-2.7,0.1-4,0c-10-1-17.4-9.5-17.2-19.5c0.2-9.9,8-18.1,18-18.8C29.1,0.8,38,7.8,39.5,17.6
	c0.2,1.1,0.2,2.2,0.2,3.4c0,12.3,0,24.7,0,37c0,1.2-0.3,1.7-1.6,1.6c-1.1-0.1-2.2,0-3.5,0c0-0.6,0-1.2,0-1.7c0-12.4,0-24.8,0-37.2
	c0-8.6-7.8-15.3-16.2-13.9c-7.3,1.2-12.5,7.6-12,15c0.5,7.1,6.4,12.8,13.7,13.1C20.9,34.8,21.7,34.8,22.6,34.8z"/>
<path d="M77.2,65.3c0-1.6,0-3.1,0-4.5c0-0.2,0.5-0.6,0.8-0.6c7.6-0.6,15.2,3.7,18.5,10.7c3.5,7.3,2.8,14.4-2.3,20.6
	c-5.2,6.3-12.1,8.5-20,6.4c-7.8-2.1-12.4-7.5-13.9-15.4c-0.2-1.2-0.2-2.4-0.2-3.6c0-12.2,0-24.4,0-36.6c0-1.7,0-1.7,1.7-1.7
	c3.4,0,3.4,0,3.4,3.5c0,11.8,0,23.6,0,35.4c0,9.6,9.3,16.4,18.3,13.5c6.6-2.1,10.8-8.6,9.8-15.3c-1-7-6.8-12.1-13.8-12.3
	C78.8,65.3,78.1,65.3,77.2,65.3z"/>
<path d="M22.6,29.1c0,1.8,0,3.4,0,5c-4.7,0.5-8.7-0.7-11.9-4.2c-4.2-4.5-4.9-11-1.8-16.2c3.1-5.2,9.2-7.7,15-6.2
	c6.1,1.6,10.2,6.7,10.3,13c0.1,12.6,0,25.2,0,37.8c0,0.9-0.2,1.2-1.1,1.1c-1.3-0.1-2.6,0-4,0c0-0.7,0-1.2,0-1.7
	c0-12.3,0-24.6,0-36.8c0-5.3-4-9.1-9.1-8.7c-4.5,0.4-7.8,4-7.7,8.6c0.1,4.5,3.6,8,8.1,8.2C21,29.1,21.7,29.1,22.6,29.1z"/>
<path d="M77.3,71c0-1.8,0-3.4,0-5c6.1-1.3,13.1,3,14.9,9.2c1.6,5.4,0.4,10.3-3.8,14.1c-4.3,3.9-9.3,4.6-14.5,2.3
	c-5.3-2.3-8-6.6-8.1-12.3c-0.1-12.6,0-25.2-0.1-37.7c0-0.8,0.2-1.2,1.1-1.2c1.3,0.1,3-0.4,3.7,0.3c0.7,0.6,0.3,2.4,0.3,3.7
	c0,11.6,0,23.2,0,34.7c0,4.8,3.5,8.4,8.1,8.6c4.6,0.2,8.5-3.5,8.7-8c0.2-4.8-3.3-8.6-8.1-8.8C78.9,70.9,78.1,71,77.3,71z"/>
<path d="M40.4,34.1c0-1.5,0-2.8,0-4.2c0-0.3,0.5-0.7,0.8-0.8c0.4-0.1,0.8,0,1.2,0c12.2,0,24.5,0,36.7,0c5.8,0,9.7-5.1,8.3-10.6
	c-1-4-4.8-6.5-9-6.1c-4.1,0.4-7.3,3.7-7.5,7.8c-0.1,0.8,0,1.7,0,2.6c-1.8,0-3.4,0-5,0c-1-6.8,3.3-13.8,10.7-15.2
	c5.3-1.1,9.9,0.5,13.3,4.8c3.5,4.3,4,9.2,1.7,14.2c-2.3,4.9-6.4,7.7-11.9,7.8c-12.8,0.1-25.6,0-38.4,0
	C41.1,34.2,40.8,34.1,40.4,34.1z"/>
<path d="M28.9,77.4c1.8,0,3.4,0,5.1,0c0.4,4.7-0.8,8.8-4.4,12c-4.6,4.1-11.2,4.6-16.2,1.5c-5.2-3.2-7.5-9.4-5.8-15.3
	c1.6-5.7,6.9-9.7,13.1-9.7c12.5,0,25.1,0,37.6,0c0.4,0,0.7,0,1.2,0.1c0,1.7,0,3.3,0,5c-0.6,0-1.2,0-1.8,0c-12.2,0-24.4,0-36.6,0
	c-4.4,0-7.7,2.4-8.6,6.4c-0.8,3.3,0.1,6.2,2.7,8.4c2.6,2.2,5.6,2.6,8.8,1.3c3.1-1.4,4.8-3.9,5.1-7.3C29,79,28.9,78.2,28.9,77.4z"/>
<path d="M76.5,22.7c-1.7,0-3.3,0-4.9,0c-0.4-3.4,0.3-6.3,3.2-8.4c2.6-1.9,5.4-2.1,8.3-0.6c2.9,1.5,4.3,4,4.2,7.3
	c-0.1,4.3-3.6,7.5-8.1,7.5c-9,0-18,0-27,0c-3.4,0-6.7,0-10.1,0c-0.5,0-0.9,0-1.5,0c0-1.7,0-3.3,0-5.1c0.5,0,1,0,1.5,0
	c12,0,24,0,36,0c0.5,0,1.1,0,1.6,0c1.4-0.2,2.4-1.4,2.4-2.8c0-1.4-1.1-2.5-2.5-2.7c-1.3-0.1-2.7,0.8-2.9,2.2
	C76.5,20.9,76.5,21.8,76.5,22.7z"/>
<path d="M28.4,59.5c-1.8,0-3.3,0-5.1,0c0-0.6,0-1.1,0-1.6c0-12.1,0-24.2,0-36.4c0-0.5,0-0.9-0.1-1.4c-0.3-1.4-1.6-2.3-2.9-2.2
	c-1.4,0.1-2.5,1.3-2.5,2.7c0,1.4,1,2.6,2.4,2.8c0.7,0.1,1.5,0,2.5,0c0,1.6,0,3.1,0,4.7c0,0.2-0.4,0.5-0.6,0.5c-3,0.2-6.2-0.4-8.4-4
	c-1.6-2.8-1.2-6.4,0.9-9c2.1-2.5,5.7-3.4,8.8-2.2c3.1,1.2,5,4.1,5,7.6c0,11.9,0,23.8,0,35.7C28.4,57.6,28.4,58.4,28.4,59.5z"/>
<path d="M23.2,77.3c1.8,0,3.4,0,4.9,0c1,3.6-1,7.8-4.6,9.3c-3.8,1.6-8,0.1-10-3.5c-1.9-3.4-0.9-7.8,2.3-10c1.3-1,2.8-1.5,4.4-1.5
	c12.7,0,25.5,0,38.2,0c0.2,0,0.5,0.1,0.8,0.1c0,1.6,0,3.2,0,5c-0.6,0-1.1,0-1.6,0c-12.1,0-24.2,0-36.2,0c-0.5,0-0.9,0-1.4,0.1
	c-1.4,0.2-2.4,1.5-2.3,2.8c0.1,1.4,1.2,2.5,2.6,2.6c1.4,0.1,2.7-0.9,2.9-2.4C23.3,79,23.2,78.2,23.2,77.3z"/>
<path d="M77.2,76.6c0-1.6,0-3,0-4.3c0-0.3,0.4-0.7,0.7-0.7c4-0.6,7.9,1.9,9,5.6c1.1,3.8-0.8,7.8-4.4,9.4c-3.6,1.6-7.9,0.3-9.9-3.2
	c-0.7-1.2-1.1-2.7-1.1-4c-0.1-12.5,0-25.1-0.1-37.6c0-0.9,0.2-1.3,1.2-1.2c1,0.1,1.9,0.1,2.9,0c0.8-0.1,1.1,0.3,1.1,1.1
	c0,3.6,0,7.2,0,10.9c0,8.7,0,17.3,0,26c0,0.5,0,0.9,0.1,1.4c0.3,1.5,1.5,2.4,3,2.3c1.3-0.1,2.4-1.3,2.5-2.6c0.1-1.4-1-2.7-2.4-2.8
	C78.9,76.6,78.1,76.6,77.2,76.6z"/>
<path d="M96.1,53.5c0.2,3.2,0.7,6.2,1.8,9.2c0.7,2,0.6,2.4-1.3,3.6c-0.8,0.5-1.3,0.4-1.8-0.5c-1.8-3.3-2.8-6.8-3.3-10.5
	c-0.1-0.6-0.2-1.1-0.3-1.8c-1,0-2,0-3.2,0c0,1.3,0,2.5,0,3.7c0,0.3-0.4,0.9-0.7,0.9c-1.8,0.1-3.6,0-5.5,0c0-1.6,0-3.1,0-4.8
	c-1.3,0-2.5,0-3.6,0c-0.8,0-1-0.3-1-1c0-1.5,0.1-3,0-4.5c0-0.9,0.3-1.1,1.1-1c0.8,0,1.7,0,2.5,0c0.8,0,1-0.3,1-1c0-1.2,0-2.4,0-3.7
	c2,0,3.8,0,5.6,0c0.2,0,0.5,0.5,0.6,0.7c0.1,1,0.1,1.9,0,2.9c0,0.8,0.2,1.1,1,1.1c2.5-0.1,2.1,0.3,2.4-2c0.5-3.6,1.5-7.1,3.3-10.3
	c0.5-1,1-1.1,2-0.5c1.8,1.2,2,1.5,1.2,3.5c-1.1,3-1.6,6-1.8,9.3c0.9,0,1.8-0.1,2.6,0c0.4,0.1,0.9,0.4,1,0.8c0.2,0.7,0.3,1.5,0.3,2.2
	c0.1,3.3,0,3.3-3.2,3.5C96.6,53.4,96.4,53.4,96.1,53.5z"/>
<path d="M57.9,12c0,2.1,0,4,0,6.2c-1.2,0-2.3,0.1-3.5,0c-1-0.1-1.3,0.3-1.2,1.3c0.1,1,0,2.1,0,3.2c-2.2,0-4.3,0-6.5,0
	c0-1.2,0-2.3,0-3.4c0-0.8-0.3-1.1-1.1-1.1c-1,0-1.9,0.1-2.9,0c-0.3,0-0.8-0.4-0.8-0.6c-0.1-1.8,0-3.6,0-5.5c1.3,0,2.5,0,3.7,0
	c0.8,0,1.1-0.3,1-1.1c0-0.2,0-0.5,0-0.7c0.2-1-0.3-1.4-1.3-1.5c-3.8-0.4-7.4-1.4-10.8-3.2c-1.3-0.7-1.4-1-0.6-2.2
	c1.1-1.7,1.4-1.8,3.4-1.1c3,1,6,1.7,9.4,1.8c0-0.9,0.1-1.6,0-2.4c-0.1-0.9,0.3-1.3,1.1-1.3c1.4-0.1,2.9-0.1,4.4,0
	c0.8,0,1.2,0.5,1.1,1.3c-0.1,0.7,0,1.5,0,2.5c1.9-0.3,3.7-0.4,5.4-0.8c1.6-0.3,3.1-0.9,4.7-1.4c1.2-0.4,3.4,1.3,3.2,2.5
	c-0.1,0.4-0.6,0.7-0.9,0.9c-3.4,1.8-7,2.9-10.8,3.4c-0.5,0.1-1.3,0.2-1.4,0.5c-0.2,0.8-0.1,1.7,0,2.6c0,0.1,0.6,0.2,0.9,0.3
	C55.4,12,56.6,12,57.9,12z"/>
<path d="M3.7,53.3c-0.8,0-1.5-0.1-2.3,0c-0.9,0.1-1.3-0.3-1.3-1.1C0,50.8,0,49.4,0,48c0-0.9,0.5-1.4,1.5-1.2c0.7,0.1,1.4,0,2.2,0
	c0-0.7,0.1-1.3,0-1.8c-0.6-2.8-1.2-5.5-1.9-8.2c-0.3-1.2,1.3-3.4,2.6-3.2c0.3,0.1,0.6,0.5,0.8,0.8c1.8,3.3,2.8,6.8,3.4,10.5
	c0.1,0.6,0.2,1.1,0.2,1.7c0.2,0.1,0.2,0.2,0.3,0.2c2.9,0.2,2.9,0.2,2.9-2.6c0-0.7,0-1.3,0-2c2.1,0,4,0,6.2,0c0,1.5,0,3,0,4.7
	c1.4,0,2.5,0,3.7,0c0.7,0,1,0.2,1,0.9c0,1.6,0,3.2,0,4.7c0,0.7-0.3,0.9-0.9,0.9c-1.2,0-2.3,0-3.7,0c0,1.6,0,3.1,0,4.8
	c-2,0-3.8,0-5.5,0c-0.2,0-0.6-0.6-0.7-0.9c-0.1-1.2,0-2.4,0-3.8c-1,0-1.9-0.1-2.7,0.1c-0.3,0.1-0.6,0.8-0.7,1.2
	c-0.4,3.3-1.2,6.5-2.7,9.6c-0.1,0.2-0.1,0.4-0.3,0.6c-0.5,0.6-1.2,1.8-1.3,1.7c-1-0.4-1.8-1.1-2.6-1.8c-0.2-0.2,0-0.9,0.1-1.4
	c0.6-2.9,1.3-5.7,1.9-8.6C3.8,54.3,3.7,53.9,3.7,53.3z"/>
<path d="M46.7,81.9c0-1.6,0-3,0-4.5c2.2,0,4.3,0,6.5,0c0,0.7,0,1.5,0,2.2c0,2.3,0,2.3,2.2,2.3c0.6,0,1.2-0.1,1.7,0
	c0.3,0.1,0.8,0.5,0.8,0.8c0.1,1.5,0,3,0,4.5c0,0.8-0.3,0.9-1,0.9c-1.2,0-2.4,0-3.6,0c-0.1,0.2-0.2,0.3-0.2,0.5
	c-0.2,2.7-0.2,2.7,2.4,3c3.4,0.5,6.7,1.5,9.8,3.2c1.2,0.7,1.3,0.9,0.5,2.1c-1.2,1.7-1.4,1.8-3.3,1.1c-3-1.1-6-1.6-9.4-1.8
	c0,0.9,0,1.7,0,2.5c0.1,0.7-0.3,1.2-0.9,1.2c-1.5,0.1-3.1,0.1-4.6,0.1c-0.8,0-1.1-0.5-1-1.2c0.1-0.8,0-1.6,0-2.6
	c-2.2,0.4-4.3,0.6-6.3,1.1c-1.3,0.3-2.6,0.8-3.9,1.2c-1.1,0.4-3.3-1.5-3-2.7c0.1-0.3,0.5-0.6,0.9-0.8c3.4-1.9,7-2.9,10.8-3.3
	c1.3-0.1,1.8-0.6,1.6-1.8c-0.1-0.4,0-0.9,0-1.6c-1.3,0-2.4,0-3.5,0c-0.9,0-1.3-0.2-1.2-1.2c0.1-1.4,0-2.7,0-4.1c0-0.7,0.3-1,1-0.9
	C44,81.9,45.2,81.9,46.7,81.9z"/>
<path d="M41,46.4c1.8-1.8,3.5-3.5,5.2-5.2c1.1,1.3,2.3,2.5,3.6,3.9c1.3-1.5,2.4-2.8,3.5-4c2,2,3.7,3.6,5.5,5.5c-1.2,1-2.5,2.1-4,3.5
	c1.6,1.3,2.9,2.5,4.2,3.5c-1.9,1.9-3.6,3.6-5.4,5.4c-1.1-1.2-2.2-2.5-3.5-3.9c-1.4,1.5-2.5,2.8-3.6,4c-1.9-1.9-3.5-3.6-5.4-5.5
	c1.1-1,2.5-2.1,3.9-3.3C43.5,48.8,42.3,47.6,41,46.4z"/>
</svg>
