<?xml version="1.0" encoding="utf-8"?>
<!-- Generator: Adobe Illustrator 21.0.0, SVG Export Plug-In . SVG Version: 6.00 Build 0)  -->
<svg version="1.1" id="Layer_1" xmlns="http://www.w3.org/2000/svg" xmlns:xlink="http://www.w3.org/1999/xlink" x="0px" y="0px"
	 viewBox="0 0 100 100" style="enable-background:new 0 0 100 100;" xml:space="preserve">
<g>
	<path d="M95.2,0.6c-2-0.9-4.1-0.6-5.8,1.3c-1.8,2.1-4,2.9-6.7,2.8C75.8,4.6,68.9,4.4,62,4.3c-2.5,0-5.1-0.1-7.6,0.2
		C48,5.2,43.9,9.6,43.7,15.7c-0.3,8.6,0.1,17.1,0.9,25.7c0.1,1.2,0.3,2.3,0.4,3.5c-0.4,0.1-0.7,0.1-1,0.1c-8.2,0.9-16.4,1.2-24.7,1
		c-2.9-0.1-3.2-0.3-3-3.2c0.4-6.7,0.7-13.4,1.1-20.1c0.3-4.5-0.1-8.9-1.3-13.2c-0.9-3.2-2.2-6.1-4.8-8.3c-0.6-0.5-1.4-1-2.2-1.2
		C6-0.6,3,1.6,2.4,4.8C2.2,6,2.2,7.3,3.1,8.2c2.6,2.5,3.3,5.6,3.2,9c-0.1,6.1-0.5,12.2-0.7,18.3c-0.1,3.9-0.2,7.7-0.1,11.6
		c0.1,2.9,1.3,5.5,3.7,7.3c2.2,1.6,4.7,2.5,7.4,2.6c8.1,0.3,16.2,0,24.3-0.7c1.6-0.1,3.2-0.3,4.9-0.5c0,0.3,0.1,0.5,0.1,0.6
		c0.3,4.1,0.7,8.3,0.9,12.4c0.2,3.8,0.1,7.5,0,11.3c0,1.3-0.5,1.9-1.7,2.1c-0.8,0.1-1.6,0.2-2.3,0.1c-7.3-0.4-14.5-1-21.8-0.2
		C14,82.9,7.7,85.5,2.6,90.7c-0.6,0.6-1.1,1.4-1.3,2.2C0.5,95.3,3,99,5.7,99.6c0.8,0.2,1.7,0.2,2.4-0.1c1.5-0.5,2.8-1.5,3.8-2.7
		c0.3-0.4,0.6-0.7,1-1c2.4-1.6,5.1-2.8,7.9-2.9c5.1-0.2,10.1,0,15.2,0.1c3.6,0,7.1,0.3,10.7,0c4.6-0.4,8.3-2.7,10-7.2
		c0.5-1.4,0.9-2.8,1-4.3c0.6-7.2,0.2-14.3-0.3-21.5c-0.1-1.7-0.3-3.5-0.5-5.2c0.2-0.1,0.2-0.1,0.3-0.1c7.7-0.9,15.5-1.4,23.3-1.2
		c1.1,0,1.7,0.6,1.7,1.8c0.1,1.4,0,2.7,0,4.1c-0.2,5.7-0.4,11.3-0.4,17c0,4.2,0.4,8.4,1.5,12.5c1,3.7,2.7,7.1,5.6,9.7
		c1.2,1.1,2.5,1.4,4.1,1c1.7-0.4,2.9-1.5,3.9-2.8c1.1-1.3,1.3-2.8,0.4-4.4c-0.5-0.8-1.1-1.6-1.6-2.5c-0.4-0.6-0.9-1.3-1.1-1.9
		c-0.6-3-1.5-6-1.7-9c-0.2-5,0-10.1,0-15.1c0-4,0.6-7.9-0.1-11.9c-0.7-4-2.5-7.3-6.6-8.6c-1.4-0.5-3-0.8-4.5-0.9
		c-7.5-0.3-15,0-22.6,0.7c-1.1,0.1-2.2,0.2-3.3,0.3c-0.1-0.3-0.1-0.5-0.1-0.8c-0.4-4.6-0.9-9.2-1.1-13.8c-0.2-4-0.1-8.1-0.1-12.2
		c0-1.2,0.4-1.6,1.6-1.6c0.3,0,0.7,0,1,0c6.3,0.2,12.6,0.4,18.9,0.5c4.5,0.1,8.9,0.1,13.3-1.1c3.8-1,6.8-3.1,8.8-6.5
		c0.3-0.6,0.6-1.3,0.6-1.9C99.1,4.1,97.6,1.8,95.2,0.6z"/>
	<path d="M64.5,28.7c-0.1,2.8,2.2,5.1,5,5.2c2.9,0.1,5.2-2.2,5.2-5.1c0-2.7-2.2-5.1-5-5.1C67,23.6,64.6,25.9,64.5,28.7z"/>
	<path d="M30.9,33.9c2.8,0,5.1-2.3,5.1-5.1c0-2.8-2.3-5.1-5.2-5.1c-2.8,0-5.1,2.3-5.1,5.1C25.8,31.7,28,33.9,30.9,33.9z"/>
	<path d="M36,69.1c0-2.8-2.3-5.1-5.1-5.2c-2.8,0-5.1,2.3-5.1,5.1c0,2.9,2.2,5.1,5.1,5.1C33.6,74.2,35.9,71.9,36,69.1z"/>
	<path d="M69.6,63.9c-2.8,0-5.1,2.4-5,5.2c0.1,2.8,2.3,5.1,5.2,5c2.8,0,5.1-2.3,5.1-5.1C74.8,66.2,72.4,63.9,69.6,63.9z"/>
</g>
</svg>
