<?xml version="1.0" encoding="utf-8"?>
<!-- Generator: Adobe Illustrator 21.0.0, SVG Export Plug-In . SVG Version: 6.00 Build 0)  -->
<svg version="1.1" id="Layer_1" xmlns="http://www.w3.org/2000/svg" xmlns:xlink="http://www.w3.org/1999/xlink" x="0px" y="0px"
	 viewBox="0 0 100 100" style="enable-background:new 0 0 100 100;" xml:space="preserve">
<g>
	<path d="M70.2,61.8c8.5-6.1,16.9-12.2,25.4-18.4c1.5-1.1,3-2.2,4.5-3.3c0-0.1-0.1-0.2-0.1-0.3c-33.3,0-66.6,0-99.9,0
		c0.2,0.5,0.5,0.7,0.9,1c9.6,7,19.2,13.9,28.8,20.9c0.7,0.5,0.9,0.9,0.6,1.8c-3.4,10.2-6.7,20.4-10,30.7c-0.5,1.4-0.9,2.9-1.4,4.3
		c0.1,0.1,0.2,0.1,0.3,0.2c0.3-0.2,0.6-0.4,0.9-0.6c9.7-7,19.3-14,29-21c0.7-0.5,1.1-0.5,1.8,0c9.6,7,19.2,14,28.9,21
		c0.3,0.2,0.7,0.4,1.3,0.8c-0.2-0.7-0.2-1.1-0.4-1.4C77,86.2,73.3,74.9,69.6,63.6C69.4,62.8,69.4,62.3,70.2,61.8z"/>
	<path d="M24.3,24.8c0.6,0.7,1.1,0.6,1.8,0c1.5-1.3,2.9-2.7,4.6-3.8c3.7-2.5,7.8-3,12.1-1.4c1.9,0.7,3.9,1.5,5.8,2.2
		c4.2,1.7,8.4,3,13.3,3c0.4,0,1.1-0.1,1.8-0.1c0.4,0,0.9-0.1,1.3-0.2c7.6-1.2,13.4-5.4,18.5-10.9c0.6-0.7,0.4-1.3-0.1-1.9
		c-2.9-3.3-5.8-6.7-8.7-10c-0.7-0.8-1.4-0.8-2.2-0.1c-1,0.9-2,1.8-3,2.6c-3.5,2.7-7.2,4.4-11.7,3.3c-2-0.5-4.1-1.2-6-1.9
		c-5.5-2.1-11-3.7-17-2.9c-7.8,1-14.2,4.6-19.5,10.2c-0.6,0.6-0.7,1.2,0,1.9C18.3,18.2,21.3,21.5,24.3,24.8z"/>
</g>
</svg>
