<?xml version="1.0" encoding="utf-8"?>
<!-- Generator: Adobe Illustrator 21.0.0, SVG Export Plug-In . SVG Version: 6.00 Build 0)  -->
<svg version="1.1" id="Layer_1" xmlns="http://www.w3.org/2000/svg" xmlns:xlink="http://www.w3.org/1999/xlink" x="0px" y="0px"
	 viewBox="0 0 100 100" style="enable-background:new 0 0 100 100;" xml:space="preserve">
<g>
	<path d="M47.5,49.9c-8.7-6.3-10.8-18.3-4.8-27.2c0.1,0.1,0.2,0.2,0.3,0.3c-5.9,8.7-3.7,20.6,4.8,26.7c-1.2-1.1-2.1-2.4-2.8-3.9
		c-2.4-5.6,0.3-12,5.8-14.4c0.7-0.3,1.4-0.6,2-1.1c5.9-3.9,7.6-11.8,3.8-17.7c-0.4-0.6-0.7-1.2-0.9-1.9c-1.3-4.2,1-8.6,5.1-10
		C49.2-1.1,37.6,5.4,33.2,16.5C27.9,29.7,34.3,44.6,47.5,49.9z M44.2,15.4l2.2,2.4l3-1.3l-1.7,2.8l2.2,2.4l-3.2-0.7L45,24l-0.3-3.2
		L41.5,20l3-1.3L44.2,15.4z"/>
	<polygon points="61,0.7 61,0.7 61,0.7 	"/>
	<path d="M76.1,25.1C62,24.2,49.8,34.9,48.8,49c3.3-10.2,14.1-15.9,24.4-12.9c-0.1,0.1-0.1,0.3-0.2,0.4
		c-10.1-2.9-20.7,2.8-23.9,12.9c0.7-1.5,1.6-2.8,2.8-3.8c4.6-4,11.5-3.5,15.5,1.1c0.5,0.6,1,1.1,1.6,1.6c5.5,4.5,13.6,3.6,18-1.9
		c0.4-0.5,1-1,1.5-1.4c3.6-2.6,8.5-1.8,11.1,1.8C97.8,34.8,88.1,25.9,76.1,25.1z M77.9,39.8l-1.7,2.8l-0.3-3.2l-3.2-0.7l3-1.3
		l-0.3-3.2l2.2,2.4l3-1.3L78.9,38l2.2,2.4L77.9,39.8z"/>
	<polygon points="99.8,46.6 99.7,46.6 99.7,46.6 	"/>
	<path d="M37.4,76.3c0-0.1,0-0.3-0.1-0.4c9.9-3.6,15.1-14.4,11.8-24.4c0.3,1.6,0.3,3.2,0,4.8c-1.4,5.9-7.3,9.6-13.2,8.2
		c-0.7-0.2-1.5-0.3-2.2-0.3c-7.1-0.4-13.1,5.1-13.5,12.1c0,0.7-0.2,1.4-0.4,2.1c-1.4,4.2-5.9,6.4-10,5c8.5,8.4,21.6,9.9,31.7,3.5
		c12-7.5,15.6-23.4,8.1-35.4C52.8,61.7,47.5,72.7,37.4,76.3z M33.6,78.5L32,81.3l-0.3-3.2l-3.2-0.7l3-1.3l-0.3-3.2l2.2,2.4l3-1.3
		l-1.7,2.8l2.2,2.4L33.6,78.5z"/>
	<path d="M50.1,50c10.7,0,19.5,8.5,19.8,19.2c-0.1,0-0.3,0-0.4-0.1c-0.4-10.5-9.1-18.8-19.6-18.7c1.6,0.2,3.1,0.7,4.5,1.5
		c5.2,3.1,6.9,9.9,3.7,15.1c-0.4,0.6-0.7,1.3-1,2c-2.5,6.6,0.8,14,7.4,16.6c0.7,0.3,1.3,0.6,1.8,1c3.5,2.6,4.3,7.6,1.7,11.1
		c10.6-5.5,16.1-17.5,13.2-29.1C77.8,54.8,63.8,46.5,50.1,50z M69.8,75.2L68.2,78l-0.3-3.2l-3.2-0.7l3-1.3l-0.3-3.2l2.2,2.4l3-1.3
		l-1.7,2.8l2.2,2.4L69.8,75.2z"/>
	<path d="M11.8,54.7c10.9,9.1,27.1,7.6,36.1-3.3c-8.7,6.3-20.8,4.6-27.3-3.9c0.1-0.1,0.3-0.1,0.4-0.2c6.5,8.3,18.4,9.9,26.9,3.6
		c-1.4,0.8-2.9,1.3-4.5,1.4c-6,0.5-11.4-4-11.9-10c-0.1-0.7-0.2-1.5-0.4-2.2c-1.8-6.8-8.9-10.9-15.7-9.1c-0.7,0.2-1.4,0.3-2.1,0.3
		c-4.4,0-7.9-3.6-7.9-8v0C-0.1,34.1,2.6,47,11.8,54.7z M17.1,42.6l-0.3-3.2l2.2,2.4l3-1.3l-1.7,2.8l2.2,2.4l-3.2-0.7l-1.7,2.8
		l-0.3-3.2l-3.2-0.7L17.1,42.6z"/>
</g>
</svg>
