<?xml version="1.0" encoding="utf-8"?>
<!-- Generator: Adobe Illustrator 24.0.0, SVG Export Plug-In . SVG Version: 6.00 Build 0)  -->
<svg version="1.2" baseProfile="tiny" id="Layer_1" xmlns="http://www.w3.org/2000/svg" xmlns:xlink="http://www.w3.org/1999/xlink"
	 x="0px" y="0px" viewBox="0 0 100 100" xml:space="preserve">
<path fill="#D81E05" d="M74.5,93.8l-24.9,1.8l-24.9-1.8V44.4h49.7L74.5,93.8z"/>
<path fill="#008D46" d="M61.5,82.5c-0.9,0.7-1.7,1.4-2.4,2.3L58.3,84c-0.6-0.6-2-0.6-2.8-0.1c-2.4,1.2-3.8,4.2-4.5,6.8l-1.2,4.6
	l24.2-0.7l1.4-3.8l0.5-0.2c0,0-2.1-5.6-4.5-6.8c-0.8-0.4-2.2-0.4-2.8,0.1l-0.8,0.8c-0.7-0.8-1.5-1.6-2.4-2.3L61.5,82.5z"/>
<path fill="#FFFFFF" d="M72.4,61.7l0,3.8l-1.1,0l0-0.8h-6.6l0,15.7l-2.2,0l0-15.7h-6.6l0,0.8l-1.1,0l0-3.8l1.1,0l0,0.8h6.6l0-4.5
	h-5.1l0,0.7l-1.1,0l0-3.9l1.1,0l0,0.9h5.1l0-4.9h-0.8v-1.1h3.8v1.1h-0.8l0,4.9h5v-0.8h1.1v3.8h-1.1V58h-5l0,4.5h6.5l0-0.8L72.4,61.7
	z M23.1,12.6c-0.8,0-1.4,0.7-1.4,1.5v0c0,0.8,0.6,1.5,1.4,1.5s1.4-0.7,1.4-1.5v0C24.5,13.3,23.8,12.6,23.1,12.6z M17.6,26.4
	c-0.8,0-1.4,0.7-1.4,1.5v0c0,0.8,0.6,1.5,1.4,1.5c0.8,0,1.4-0.7,1.4-1.5l0,0C19,27,18.4,26.4,17.6,26.4z M18.2,22.7L18.2,22.7
	c0-0.8-0.6-1.5-1.4-1.5c-0.8,0-1.4,0.7-1.4,1.5v0c0,0.8,0.6,1.5,1.4,1.5C17.6,24.2,18.2,23.5,18.2,22.7z M18.4,16.1
	c-0.8,0-1.4,0.7-1.4,1.5v0c0,0.8,0.6,1.5,1.4,1.5s1.4-0.7,1.4-1.5v0C19.8,16.7,19.2,16.1,18.4,16.1z M28.4,13.4
	c0.8,0,1.4-0.7,1.4-1.5v0c0-0.8-0.6-1.5-1.4-1.5S27,11.1,27,11.9v0C27,12.8,27.6,13.4,28.4,13.4z M33.9,11.8c0.8,0,1.4-0.7,1.4-1.5
	v0c0-0.8-0.6-1.5-1.4-1.5c-0.8,0-1.4,0.7-1.4,1.5v0C32.4,11.2,33.1,11.8,33.9,11.8z M39.3,10.7c0.8,0,1.4-0.7,1.4-1.5l0,0
	c0-0.8-0.6-1.5-1.4-1.5c-0.8,0-1.4,0.7-1.4,1.5v0C37.9,10.1,38.5,10.7,39.3,10.7z M44.7,10c0.8,0,1.4-0.7,1.4-1.5v0
	c0-0.8-0.6-1.5-1.4-1.5c-0.8,0-1.4,0.7-1.4,1.5v0C43.3,9.4,43.9,10,44.7,10z M24.6,95.8h24.9v-7.6H24.6V95.8z M24.6,56.7h24.9v-5.9
	H24.6V56.7z M24.6,81.4h24.9v-5.9H24.6V81.4z M24.6,68.8h24.9v-5.9H24.6V68.8z M76.9,12.6c-0.8,0-1.4,0.7-1.4,1.5v0
	c0,0.8,0.6,1.5,1.4,1.5s1.4-0.7,1.4-1.5v0C78.4,13.3,77.7,12.6,76.9,12.6z M82.4,26.4c-0.8,0-1.4,0.7-1.4,1.5l0,0
	c0,0.8,0.6,1.5,1.4,1.5c0.8,0,1.4-0.7,1.4-1.5v0C83.8,27,83.2,26.4,82.4,26.4z M83.2,21.2c-0.8,0-1.4,0.7-1.4,1.5v0
	c0,0.8,0.6,1.5,1.4,1.5c0.8,0,1.4-0.7,1.4-1.5v0C84.7,21.9,84,21.2,83.2,21.2z M83.1,17.6L83.1,17.6c0-0.8-0.6-1.5-1.4-1.5
	c-0.8,0-1.4,0.7-1.4,1.5v0c0,0.8,0.6,1.5,1.4,1.5S83.1,18.4,83.1,17.6z M71.6,10.5c-0.8,0-1.4,0.7-1.4,1.5v0c0,0.8,0.6,1.5,1.4,1.5
	c0.8,0,1.4-0.7,1.4-1.5v0C73,11.1,72.4,10.5,71.6,10.5z M66.1,11.8c0.8,0,1.4-0.7,1.4-1.5v0c0-0.8-0.6-1.5-1.4-1.5
	c-0.8,0-1.4,0.7-1.4,1.5v0C64.7,11.1,65.3,11.8,66.1,11.8z M60.7,10.7c0.8,0,1.4-0.7,1.4-1.5v0c0-0.8-0.6-1.5-1.4-1.5
	c-0.8,0-1.4,0.7-1.4,1.5l0,0C59.3,10.1,59.9,10.7,60.7,10.7z M56.7,8.5L56.7,8.5c0-0.8-0.6-1.5-1.4-1.5c-0.8,0-1.4,0.7-1.4,1.5v0
	c0,0.8,0.6,1.5,1.4,1.5S56.7,9.4,56.7,8.5z"/>
<path fill="#FFCC00" d="M65.4,80.5v2.1h-3.8v-2.2l-0.5-0.4l0.2-0.3l0.8,0.7h1.2v-0.9h0.4v0.9H65l0.6-0.6l0.3,0.3L65.4,80.5z
	 M80.6,26.9l-8.3,15.3l4.4,0v48.7c0,2.5-1.5,5.2-4.7,5.2H52.2c-0.2,0.2-1.8,2-1.8,2l-0.8,1L47,96l-19.8,0c-3.2,0-4.7-2.7-4.7-5.2
	V42.1l5.7,0l-8.6-15.3c-0.7-0.9-0.5-3.5-0.2-5.6c0-3.5,6.8-6.4,12.5-8.2c3.5-1.1,13.6-2.3,17.2-2.5l-3.4-5.4L44,6.4l-0.9-1.2L45,3.9
	l-1.3-2.1L44.9,1l1.3,2l1.7-1.2l0.9,1.2L47,4.3l3.9,6.3c3.5,0.2,14.3,1.4,16.7,2.5c0.9,0.3,10.3,3.3,12.8,7.8l0.1,0.1l0,0.1
	C81.2,25.6,80.8,26.6,80.6,26.9z M23.8,25.9l5.9,8.1l0.9-12.1l5.8,8.9l1.9-9.8l3.1,6.7c0.8-6.4,6.5-9,6.5-9v-6.5
	c-4.2,0.4-12.6,1.4-15.6,2.3c-7.2,2.2-11.6,4.8-11.5,6.8l0,0.1l0,0.1c-0.3,2-0.4,4-0.2,4.5l0.1,0.1l0.1,0.1l2.8,5.1L23.8,25.9z
	 M74.5,44.4l-49.8,0v46.5c0,0.5,0.1,2.9,2.4,2.9H47c0.6,0,1.3,0.3,1.7,0.8l0.9,1.1c0.4-0.5,0.9-1,1-1.1c0.4-0.5,1-0.7,1.7-0.7H72
	c2.4,0,2.4-2.6,2.4-2.9V44.4z M71.2,42.1c-1.2-0.6-9.1-4.4-13.9-4.4H43.2c-4.7,0-10.6,1.9-13.9,4.4L71.2,42.1z M79,21.6
	c-2.4-4.1-11.8-7-11.9-7.1l-0.1,0c-1.8-0.9-11-2-15.1-2.3l0,6.6c0,0,4.5,1.5,6.3,8.9l3.5-7.1l1.6,11.2l5.6-10l1.6,12.3l4.9-8l0.7,6
	l3.3-6.1C79.5,25.5,79.3,23.4,79,21.6z"/>
</svg>
