<?xml version="1.0" encoding="utf-8"?>
<!-- Generator: Adobe Illustrator 21.0.0, SVG Export Plug-In . SVG Version: 6.00 Build 0)  -->
<svg version="1.1" id="Layer_1" xmlns="http://www.w3.org/2000/svg" xmlns:xlink="http://www.w3.org/1999/xlink" x="0px" y="0px"
	 viewBox="0 0 100 100" style="enable-background:new 0 0 100 100;" xml:space="preserve">
<g>
	<path d="M84.2,97.5c-6.3,0-12.5,0-18.8,0c-0.8,0-1.5,0.2-1.7-1.1c-0.7-4.5-1.5-8.9-2.4-13.3c-1-5-1.4-10.2-3.5-14.9
		c-1.9-4.3-3.6-8.7-5.4-13.2c-0.3-0.8-0.5-1.6-0.5-2.4c0.1-8.6,0.2-17.2,0.2-25.7c0-4.1-2.3-7.2-6-8.2c-3.7-1-7.2,0.4-9.2,3.9
		c-2.7,4.5-5.4,9.1-8.2,13.6c-1.4,2.2-1.2,4.1,0.4,6c2.5,3,4.8,6.1,7.2,9.2c-0.3,0.1-0.6,0.2-0.6,0.3c0.9,15.1,1.8,30.3,2.8,45.8
		c-10.3,0-20.3,0-30.4,0c0,1,0,1.7,0,2.5c27.9,0,55.7,0,83.5,0c0-0.9,0-1.6,0-2.5C89.2,97.5,86.7,97.5,84.2,97.5z M38.4,40.7
		C37,39.2,37,38,38.1,36.4c1.5-2.2,2.8-4.5,4.2-6.8c0.1,0,0.2,0.1,0.3,0.1c-1.1,2.3-2.2,4.7-3.4,6.9c-0.8,1.3-0.6,2.3,0.3,3.5
		c1.7,2.4,3.3,4.9,4.6,7.5C42.2,45.4,40.4,42.9,38.4,40.7z M48.2,97.4c-0.3,0-0.8-0.9-0.8-1.3c0-4.4,0-8.8,0-13.2
		c0-3.8,0-7.5,0-11.3c0-0.3,0-0.5,0.3-0.9c3.7,8.5,4.9,17.7,7.6,26.7C52.6,97.4,50.4,97.5,48.2,97.4z"/>
	<path d="M55.7,19.3c5.4,0,9.7-4.3,9.6-9.7C65.4,4.3,61,0,55.7,0c-5.2,0-9.6,4.4-9.6,9.6C46,15,50.4,19.3,55.7,19.3z"/>
</g>
</svg>
