<?xml version="1.0" encoding="utf-8"?>
<!-- Generator: Adobe Illustrator 21.0.0, SVG Export Plug-In . SVG Version: 6.00 Build 0)  -->
<svg version="1.1" id="Layer_1" xmlns="http://www.w3.org/2000/svg" xmlns:xlink="http://www.w3.org/1999/xlink" x="0px" y="0px"
	 viewBox="0 0 100 100" style="enable-background:new 0 0 100 100;" xml:space="preserve">
<g>
	<path d="M84.6,64.2c-0.2-2.3-0.6-4.5-1.1-6.7c-0.7-2.7-1.8-5.2-3.5-7.3c-0.6-0.8-1.2-1.6-1.7-2.5c-1-1.7-1.3-3.6-1.5-5.6
		c0-0.4-0.1-0.9-0.1-1.4c-0.1,0.2-0.2,0.2-0.3,0.3c-0.2,0.4-0.5,0.8-0.7,1.2c-1.2,2.4-2.3,4.8-3.5,7.2c-0.1,0.2-0.1,0.4-0.1,0.6
		c0,0.4,0,0.9,0.1,1.3c0.2,1.7,0.7,3.3,1.1,4.9c1,3.6,2,7.1,3,10.7c0.9,3.5,1.7,7.1,1.8,10.8c0.1,1.9,0,3.9-0.6,5.7
		c-0.8,2.9-2.6,4.8-5.5,5.7c-1.8,0.6-3.7,0.7-5.6,0.4c-2.6-0.3-4.5-1.6-5.8-3.8c-0.9-1.7-1.4-3.5-1.8-5.4c-0.4-2-0.7-4-0.9-6.1
		c-0.2-2.3-0.4-4.7-0.6-7c-0.1-1.9-0.2-3.7-0.3-5.6c-0.1-2.2-0.3-4.5-0.4-6.7c-0.1-1.7-0.2-3.4-0.3-5.1c-0.1-2-0.3-4-0.5-6
		c-0.1-1.3-0.2-2.5-0.3-3.9c-0.1,0.1-0.3,0.2-0.4,0.3C54,41.6,53,42.8,52,44.1c-0.1,0.1-0.1,0.3-0.1,0.4c0,2.1,0,4.2,0,6.3
		c0.1,3.9,0.2,7.9,0.3,11.8c0.1,2.2,0.2,4.4,0.3,6.6c0.1,3.5,0.3,7.1,0,10.6c-0.1,1.4-0.3,2.9-0.8,4.2c-0.7,2.2-2.2,3.7-4.4,4.3
		c-1.3,0.4-2.7,0.5-4,0.6c-1.5,0-2.9,0-4.4-0.3c-2.1-0.5-3.9-1.6-5.1-3.5c-0.9-1.4-1.3-3.1-1.6-4.7c-0.3-2.1-0.2-4.3,0-6.4
		c0.2-2.8,0.7-5.5,1.2-8.3c0.6-3.6,1.3-7.1,1.9-10.7c0.3-1.8,0.4-3.7,0.2-5.5c-0.1-0.9-0.3-1.8-0.7-2.6c-0.9-1.6-2.6-2.1-4.2-1.2
		c-0.5,0.3-1,0.6-1.4,1c-1.3,1.1-2.3,2.5-3.2,3.9c-1.6,2.6-3.2,5.2-4.8,7.9c-1.5,2.5-2.9,5-4.7,7.3c-1,1.3-2,2.5-3.3,3.5
		c-1.6,1.2-3.2,1.2-4.9,0.1c-1-0.7-1.7-1.7-2-2.9c-0.6-1.8-0.6-3.7-0.4-5.6c0.1-1.8,0.4-3.5,0.5-5.3c0-0.5,0-1,0-1.5
		c0-0.2-0.1-0.4-0.3-0.4c-0.2,0-0.4,0.1-0.5,0.2c-0.2,0.2-0.4,0.4-0.5,0.7c-0.4,0.8-0.7,1.6-1,2.4c-1.1,3.5-1.6,7-1.4,10.7
		c0.1,1.7,0.4,3.5,1.1,5.1c1,2.4,2.6,4.3,5.1,5.2c2,0.8,4,0.6,5.7-0.7c1-0.8,1.9-1.7,2.6-2.8c1.4-2,2.5-4.1,3.5-6.3
		c1.1-2.4,2.2-4.8,3.3-7.2c0.7-1.5,1.5-3,2.4-4.3c0.5-0.7,1.2-1.4,2-1.8c1.5-0.7,2.8-0.1,3.1,1.5c0.2,1.1,0.1,2.2,0,3.2
		c-0.3,2-0.7,4-1.1,5.9c-0.7,3.4-1.5,6.7-2,10.2c-0.5,3-0.8,6.1-0.6,9.2c0.1,1.8,0.4,3.6,1,5.4c0.9,2.8,2.5,5,5,6.6
		c1.5,1,3.2,1.6,5,2c2.1,0.5,4.1,0.7,6.2,0.5c2.9-0.4,5.3-1.7,7.2-3.9c1.4-1.7,2.4-3.6,3.1-5.6c0-0.1,0.1-0.2,0.1-0.3
		c0.1,0.1,0.1,0.2,0.2,0.3c0.4,0.7,0.8,1.4,1.2,2c1.2,2,2.5,3.8,4.2,5.4c2,1.9,4.3,2.9,7,2.8c1.5,0,3-0.2,4.5-0.6
		c2-0.5,3.8-1.4,5.3-2.9c1.5-1.6,2.5-3.5,3.1-5.5c0.8-2.6,1.1-5.4,1.1-8.1c0.1-4.6-0.5-9.1-1.2-13.6c-0.8-4.3-1.6-8.6-2.5-13
		c-0.1-0.7-0.3-1.4-0.4-2.1c0,0,0.1,0,0.1-0.1c0,0.1,0,0.1,0.1,0.2c0.6,0.7,1.2,1.3,1.8,2c1,1.2,1.8,2.6,2.1,4.2
		c0.2,0.8,0.3,1.5,0.4,2.3c0.3,1.4,1.2,2.4,2.3,3.4c0-0.1,0-0.2,0-0.2C84.7,65.4,84.7,64.8,84.6,64.2z"/>
	<path d="M95.9,40.7c-0.6-0.9-1.4-1.6-2.2-2.3c-1.2-0.9-2-2.1-2.5-3.5c-0.3-0.9-0.6-1.8-0.9-2.8c-0.9-3.2-1.6-6.4-2-9.7
		c0-0.3-0.1-0.6-0.1-1c-0.2,0.1-0.3,0.2-0.4,0.3c-0.8,0.8-1.6,1.6-2.4,2.3c-0.5,0.4-1,0.8-1.4,1.2c0,0,0,0.1,0,0.1
		c0.2,1.1,0.4,2.2,0.6,3.4c0.8,5.1,1.7,10.3,2.4,15.4c0.5,3.3,0.9,6.5,1.2,9.8c0.3,3,0.5,5.9,0.7,8.9c0.3,3.8,0.4,7.6,0.3,11.4
		c0,4-0.2,8-0.3,11.9c-0.1,1.6-0.2,3.2-0.3,4.8c-0.1,0.9-0.1,1.8-0.2,2.8c0,0,0,0,0.1,0c0,0,0.1-0.1,0.1-0.1
		c0.9-1.4,1.7-2.9,2.4-4.6c1-2.5,1.4-5.1,1.7-7.8c0.3-2.8,0.4-5.7,0.4-8.5c0-3.3-0.1-6.6-0.3-9.9c-0.1-2.4-0.3-4.8-0.4-7.2
		c-0.2-2.5-0.4-5-0.6-7.6c-0.2-2.4-0.4-4.9-0.7-7.3c0-0.3,0-0.6-0.1-0.9c0.3,0.2,0.5,0.4,0.7,0.6c1.6,1.3,2.7,2.9,3.3,4.9
		c0.5,1.7,0.6,3.4,0.4,5.2c0,0.4-0.1,0.7-0.1,1.1c0.1,0,0.1,0,0.1-0.1c0.9-1.9,1.7-3.9,1.9-6C97.4,44,97,42.2,95.9,40.7z"/>
	<path d="M47.2,33.2c0.4,0.6,0.9,0.9,1.7,1c1.5,0.1,2.8-0.3,3.9-1.3c0.2-0.2,0.5-0.4,0.7-0.6c0.2,0.2,0.3,0.4,0.5,0.5
		c0.7,0.7,1.4,1.1,2.4,1.2c0.5,0,1,0.1,1.4,0c1.4-0.1,2.4-0.8,3-2.1c0.2-0.5,0.3-0.9,0.4-1.4c0.2-1.5,0.1-3,0-4.4
		c0-0.6-0.1-1.2-0.1-1.7c0.3,0,0.6-0.1,0.8-0.1c0.3-0.1,0.5-0.1,0.7-0.2c-0.5-0.7-1-1.4-1.5-2.1c-0.4-0.7-0.8-1.5-1.1-2.3
		c0,0,0,0,0,0c-0.6,0.9-1.1,1.7-1.7,2.6c0,0.1-0.1,0.2-0.1,0.3c0.1,1.2,0.3,2.5,0.5,3.7c0.1,0.8,0.2,1.6,0.2,2.4
		c0,1.1-0.5,1.6-1.4,1.7c-0.3,0-0.5,0-0.8,0c-0.4,0-0.8-0.2-1-0.6c-0.2-0.2-0.3-0.5-0.4-0.7c-0.4-1.1-0.4-2.2-0.5-3.3
		c-0.1-2-0.1-4-0.2-5.9c0-0.1,0-0.2,0-0.4c-0.1,0.1-0.2,0.1-0.3,0.2c-0.3,0.2-0.5,0.5-0.8,0.7c-0.3,0.3-0.8,0.6-1,1.1
		c-0.2,0.4,0,1,0,1.5c0,1.4,0,2.9,0,4.3c0,0.7-0.1,1.4-0.5,2.1c-0.2,0.4-0.6,0.8-1.1,0.9c-1.1,0.2-2.3-0.4-2.7-1.5
		c-0.1-0.2-0.1-0.5-0.2-0.7c-0.2-1.2-0.1-2.5,0-3.7c0-0.9,0.1-1.7,0.1-2.6c-0.4,0.1-0.7,0.3-0.9,0.5c-0.4,0.5-0.7,1-0.8,1.6
		c-0.7,2.2-0.9,4.5-0.5,6.8C46.3,31.5,46.6,32.5,47.2,33.2z"/>
	<path d="M17.5,35.9c0.6,0.1,1.2,0.2,1.7-0.1c1.2-0.6,2.5-1.2,3.7-1.8c2.9-1.5,5.8-3.2,8.4-5.2c0.1-0.1,0.2-0.1,0.3-0.1
		c1.1,0.1,2,0.4,2.9,1c0.1,0,0.2,0.1,0.2,0.1c0.1-0.7,0.1-1.3,0.2-1.9c0-0.4-0.1-0.6-0.5-0.7c-0.4-0.1-0.8-0.2-1.2-0.3
		c0,0,0.1-0.1,0.1-0.1c1.3-1.4,2.1-3.1,2.4-5c0.2-0.9,0.2-1.7-0.1-2.6c-0.3-0.8-0.9-1.3-1.8-1.2c-0.7,0-1.4,0.1-2,0.3
		c-1.8,0.4-3.5,1.2-4.7,2.7c-0.7,0.9-1.3,1.8-1.6,2.9c-0.4,1.7,0.4,3.4,1.9,4.2c0.2,0.1,0.4,0.2,0.6,0.3c-3.9,2.9-8.2,5.1-12.4,7.3
		C16.5,35.7,17,35.8,17.5,35.9z M28.4,23c0.1-0.2,0.3-0.4,0.4-0.6c0.8-0.8,1.7-1.5,2.7-2c0.4-0.2,0.8-0.2,1.3-0.2
		c0.7,0.1,1.2,0.6,1.2,1.3c0,0.5-0.3,1-0.6,1.5c-0.7,1.1-1.6,2.1-2.6,3c-0.1,0.1-0.2,0.1-0.3,0.1c-0.6-0.1-1.2-0.4-1.7-0.8
		C28,24.7,27.8,23.9,28.4,23z"/>
	<path d="M74.2,28.4c3.5-2.2,7-4.5,10.4-6.9c1.3-0.9,2.5-1.9,3.7-3c0.5-0.5,1-1,1-1.8c0.1-0.8,0.1-1.7,0.1-2.5c0,0-0.1,0-0.1,0
		c-0.2,0.2-0.4,0.3-0.6,0.5c-3.4,2.3-6.8,4.7-10.1,7c-3.2,2.2-6.4,4.5-9.6,6.8c-0.2,0.1-0.3,0.3-0.3,0.5c0,0.4-0.1,0.8-0.2,1.2
		c-0.1,0.6-0.2,1.2-0.4,1.9c0.1-0.1,0.2-0.1,0.3-0.1C70.4,30.7,72.3,29.6,74.2,28.4z"/>
	<path d="M53.3,9.5c0.2,2.3,0.2,4.7-0.1,7c0,0.3-0.1,0.6-0.1,0.9c0.1-0.1,0.2-0.1,0.2-0.2c1-1.3,1.7-2.8,2.2-4.4
		c0.7-2.5,0.8-5,0.4-7.6c-0.3-1.8-0.9-3.6-1.6-5.3c-0.1,0.1-0.2,0.2-0.3,0.3c-0.8,1.1-1.5,2.3-2,3.5c-0.1,0.1-0.1,0.3,0,0.4
		C52.8,5.9,53.2,7.7,53.3,9.5z"/>
</g>
</svg>
