<?xml version="1.0" encoding="utf-8"?>
<!-- Generator: Adobe Illustrator 24.0.0, SVG Export Plug-In . SVG Version: 6.00 Build 0)  -->
<svg version="1.2" baseProfile="tiny" id="Layer_1" xmlns="http://www.w3.org/2000/svg" xmlns:xlink="http://www.w3.org/1999/xlink"
	 x="0px" y="0px" viewBox="0 0 100 100" xml:space="preserve">
<path id="path2995" fill="#010101" d="M6.7,0v81.2c0,5.8,4.8,10.6,10.6,10.6h24.5c1.5,0,3.1,0.8,4.4,2c1.3,1.2,2.3,2.7,2.9,4
	c0.2,0.4,0.3,0.9,0.3,1.4c0,0.9,1.1,0.9,1.1,0c0-0.5,0.2-1,0.3-1.4c0.5-1.4,1.6-2.9,2.9-4c1.3-1.2,2.8-2,4.4-2h24.5
	c5.8,0,10.6-4.8,10.6-10.6V0H6.7z"/>
<path id="path2997" fill-rule="evenodd" fill="#31AAE1" d="M92.2,1.1H7.8v80.1v0c0,2.6,1.1,5,2.8,6.7c1.7,1.7,4.1,2.8,6.7,2.8h0
	h24.5c3,0,6.1,2.8,7.7,5.4c0.2,0.3,0.4,0.7,0.5,1c0.8-1.9,2.6-3.9,4.5-5.2c0.6-0.4,1.1-0.7,1.7-0.9c0.6-0.2,1.2-0.3,1.8-0.4
	c0,0,0.1,0,0.1,0h24.5h0c2.6,0,5-1.1,6.7-2.8h0c1.7-1.7,2.8-4.1,2.8-6.7v0L92.2,1.1L92.2,1.1z M20.5,16.5c0,0,0.2-0.2,0.5-0.3
	c0.3-0.1,0.6-0.2,0.7-0.2c0.2,0,0.4,0,0.5,0c0.1,0,0.2,0,0.3,0c0.1,0,0.7-0.2,0.9-0.2c0.2,0,0.9-0.3,1.1-0.3c0.2,0,0.8-0.2,1.1-0.2
	c0.4,0,0.9-0.1,1-0.1c0.1,0,0.2,0,0.3,0c0.2,0,0.2,0,0.3,0c0.1-0.1,0.2-0.3,0.5-0.5c0.3-0.2,1.1-0.7,1.4-0.9c0.3-0.2,0.9-0.7,1-0.8
	c0.1-0.1,0.1-0.2,0.1-0.3c0-0.1-0.1-0.5-0.1-0.6c0-0.1,0-0.2,0.1-0.3c0.1,0,0.2-0.1,0.2-0.1c0.1,0,0.1,0,0.2,0.1
	c0,0.1,0.1,0.2,0.2,0.2c0.1,0,0.4,0.1,0.5,0.1c0.2,0,0.4-0.1,0.6-0.1c0.2,0,0.3,0,0.5,0c0.2,0,0.2,0.1,0.4,0.1
	c0.1,0,1.2-0.3,1.4-0.3c0.2-0.1,1.4-0.6,1.6-0.7c0.2-0.1,1.9-0.9,2.4-1.1c0.5-0.2,3.1-1.2,3.6-1.3c0.5-0.1,2.4-0.7,3.2-0.8
	c0.7-0.1,2.6-0.4,3.3-0.5c0.7-0.1,3.1-0.3,4-0.2c0.9,0,3.3,0.2,4.1,0.3c0.8,0.1,2.8,0.4,3.7,0.6c0.9,0.2,3,0.8,3.7,1
	c0.7,0.2,3.3,1,3.6,1.2c0.4,0.1,2,0.6,2.9,0.7c0.8,0.1,2.2,0.4,2.7,0.5c0.5,0.1,1.2,0.1,1.8,0.1c0.5,0,0.5,0,0.7-0.1
	c0.2-0.1,0.7-0.2,0.9-0.4c0.3-0.1,0.6-0.3,0.8-0.4c0.1-0.1,0.5-0.7,0.6-1C77.9,9.3,78,9,78.1,9c0.1-0.1,0-0.1,0.2-0.1
	c0.2,0,0.4-0.1,0.6,0c0.2,0.1,0.5,0.2,0.5,0.4c0.1,0.1,0.2,0.5,0.2,0.6c0,0.2,0,0.6-0.1,0.8s-0.4,0.8-0.6,1s-0.3,0.4-0.6,0.6
	c-0.3,0.2-1.9,0.7-2.4,0.8c-0.5,0.1-1.9,0.3-2.7,0.3c-0.8,0-2.3-0.2-2.9-0.3c-0.6-0.1-2.1-0.5-2.8-0.6c-0.7-0.2-2.6-0.7-3.4-0.9
	c-0.8-0.2-3.5-0.8-4-0.9c-0.5-0.1-3.2-0.6-4-0.7c-0.8-0.1-2.3-0.1-2.9-0.1c-0.6,0-2.5,0.1-3.3,0.2c-0.8,0.1-1.6,0.2-2.8,0.5
	c-1.1,0.3-2.4,0.7-2.9,0.9c-0.5,0.2-1.6,0.8-2,1.1c-0.4,0.2-0.6,0.4-0.6,0.4c0,0-0.1,0.1,0,0.1c0.1,0,0.6,0,0.8,0
	c0.3,0,1.2-0.1,1.6-0.2c0.4,0,1.3,0,1.9,0c0.6,0,2.2,0.1,2.7,0.1c0.5,0,2.8,0.4,3.5,0.5c0.7,0.1,2.5,0.7,3.1,0.9
	c0.6,0.2,2.4,1,3.1,1.3c0.6,0.3,2.7,1.5,3,1.7c0.3,0.2,2.2,1.3,2.8,1.7c0.6,0.4,2.9,1.8,3.6,2.2c0.7,0.5,2.1,1.3,2.9,1.6
	c0.8,0.3,1.4,0.6,2.2,0.8c0.8,0.2,2.4,0.6,2.9,0.6c0.5,0,1.5,0,2.1-0.2c0.6-0.2,1.2-0.7,1.4-0.8c0.2-0.2,0.5-0.6,0.7-0.8
	c0.2-0.2,0.4-0.3,0.5-0.3c0.1,0,0.3,0,0.5,0c0.2,0.1,0.4,0.1,0.4,0.2c0.1,0.1,0.1,0.4,0.1,0.5c0,0.2-0.1,0.7-0.3,1
	c-0.1,0.3-0.6,1-1.1,1.3c-0.5,0.3-1.3,0.8-2.3,1.1c-1,0.2-1.6,0.4-2.4,0.4c-0.8,0-2-0.1-2.8-0.2c-0.7-0.2-2.6-0.7-3.4-1
	c-0.8-0.3-2.9-1.2-3.4-1.4c-0.5-0.3-2.4-1.3-2.8-1.6c-0.4-0.2-2-1.2-2.6-1.5c-0.6-0.4-2.9-1.6-3.2-1.7c-0.3-0.1-0.8-0.3-1.7-0.7
	c-0.9-0.4-2-0.8-2.8-0.9c-0.8-0.2-3.4-0.5-4-0.6c-0.6,0-2.2,0-2.6,0.1c-0.4,0.1-1.6,0.4-1.9,0.5c-0.3,0.1-0.8,0.4-0.8,0.5
	c-0.1,0.1-0.2,0.3-0.1,0.4c0,0.1,0.1,0.3,0.4,0.4c0.3,0.1,1.2,0.2,1.6,0.3c0.4,0.1,1.6,0.4,2,0.6c0.4,0.2,1.3,0.8,1.5,0.9
	c0.1,0.1,0.5,0.5,0.6,0.6c0.1,0.1,0.1,0.4,0.1,0.5c0,0.1-0.1,0.2-0.3,0.3c-0.2,0.1-0.8,0-1,0c-0.2,0-0.7,0.1-1.1,0.3
	c-0.4,0.1-1.4,0.6-1.8,0.7c-0.4,0.1-1.4,0.4-1.6,0.4c-0.3,0.1-0.6,0.2-0.6,0.2s0.1,0.8,0.1,1.1c0,0.3,0,1.2-0.1,1.7
	c-0.1,0.5-0.1,1-0.2,1.6c-0.1,0.5-0.1,1.3-0.1,1.6c0,0.3,0,1.1-0.1,1.8c0,0.7-0.1,1.1-0.2,1.9c0,0.2,0,0.3,0,0.5
	c0,0.4,0.1,0.6,0.2,0.9c0.1,0.3,0.1,0.4,0.2,0.6c0.3,0.7,0.6,1,1,1.5c0.4,0.6,0.6,0.9,1.1,1.4c0.3,0.2,0.4,0.4,0.7,0.6
	c0.2,0.1,0.3,0.1,0.5,0.2c0.8,0.2,1.2,0.2,2,0.3c1.1,0,2.2-0.2,2.7-0.2c0.5,0,2.1-0.1,2.6-0.1c0.5,0,2,0,3.3,0.1
	c0.6,0,1,0.1,1.6,0.1c0.5,0,0.8,0,1.3,0c0.5-0.1,0.7-0.1,1.2-0.2c0.6-0.1,0.9-0.2,1.4-0.3c0.5-0.1,0.7-0.1,1.2-0.1
	c1.2,0,1.9,0.1,3.1,0.3c1.5,0.2,2.3,0.4,3.8,0.9c1.2,0.4,2.7,1,3.1,1.2c0.4,0.2,0.8,0.4,1.3,0.6c0.5,0.2,0.7,0.3,1.2,0.4
	c0.5,0.1,0.8,0.2,1.3,0.2c0.6,0,1,0,1.6-0.2c0.5-0.2,0.7-0.2,1.1-0.5c0.6-0.5,0.8-1.1,1-1.8c0.1-0.6,0.2-1.2,0.1-1.5
	c0-0.3-0.2-1-0.5-1.5c-0.3-0.5-0.6-0.7-1.1-1c-0.3-0.2-0.4-0.3-0.7-0.4c-0.4-0.1-0.8-0.1-1-0.1c-0.2,0.1-0.3,0.1-0.4,0.1
	c-0.1,0.1-0.2,0.1-0.3,0.2c-0.1,0-0.1,0.1-0.2,0.1c-0.2,0-0.5-0.2-0.6-0.3c-0.1-0.2,0-0.4,0.1-0.6c0.2-0.4,0.6-0.7,0.8-0.8
	c0.2-0.1,0.5-0.3,0.8-0.4c0.4-0.1,0.6-0.2,1-0.3c0.4-0.1,0.8,0,1.3,0.1c0.7,0.2,1.1,0.4,1.6,0.8c0.5,0.4,0.8,0.6,1.3,1.1
	c0.4,0.4,0.5,0.7,0.8,1.1c0.3,0.5,0.5,0.7,0.7,1.2c0.3,0.7,0.3,1.1,0.4,1.9c0,0.9-0.1,1.4-0.4,2.3c-0.2,0.7-0.5,1.1-0.9,1.7
	c-0.4,0.6-0.6,0.9-1.1,1.4c-0.4,0.4-0.7,0.5-1.1,0.8c-0.3,0.2-0.5,0.3-0.8,0.5c-0.4,0.2-0.6,0.3-1.1,0.4c-0.5,0.1-0.9,0.2-1.4,0.2
	c-0.4,0-0.7-0.1-0.9-0.1c-0.2,0-0.4-0.1-0.4-0.1s0,0.9,0,1.7c0,0.8-0.1,2.9-0.2,3.1c0,0.2-0.1,0.7-0.1,1.1c0.1,0.3,0.4,2,0.5,2.4
	c0.1,0.4,0.3,1.9,0.4,2.2c0,0.3,0.1,1,0.1,1.1c0,0.1,0.1,0.3,0.2,0.5c0.1,0.2,0.7,0.8,1.1,1.4c0.4,0.6,1.2,1.4,1.6,1.6
	c0.3,0.2,1.2,0.6,1.5,0.8c0.3,0.2,0.9,0.5,1,0.7c0.1,0.1,0.5,0.6,0.5,0.8c0.1,0.2,0.2,0.4,0.2,0.6c0,0.2,0,0.7-0.1,1
	c0,0.4-0.1,1.8-0.1,2.4c0,0.6,0,2.1,0.1,2.6c0,0.5,0.1,1.4,0.2,1.8c0.1,0.4,0.2,0.4,0.5,0.7c0.3,0.3,0.7,0.5,0.9,0.7
	c0.2,0.2,0.8,0.9,1,1.2c0.1,0.3,0.2,0.9,0.2,1.2c0,0.4,0,0.7-0.2,1c-0.2,0.3-0.2,0.4-0.5,0.6c-0.3,0.2-0.4,0.3-0.9,0.4
	c-0.5,0.1-0.5,0-0.7,0c-0.2,0-0.2-0.1-0.4,0c-0.2,0.1-0.4,0.3-0.4,0.6c-0.1,0.3-0.1,0.8-0.1,1.2c0,0.4-0.1,0.4-0.1,0.5
	c0,0.1,0.1,0.4,0.1,0.5c0,0.1-0.2,0.5-0.5,0.6c-0.3,0.1-0.7,0.4-0.8,0.5C82,81.9,82,82,81.6,82.1c-0.3,0.1-1.3,0.3-2.2,0.4
	c-0.9,0.1-1.5,0.3-2,0.3c-0.5-0.1-0.7-0.1-0.8-0.3c-0.1-0.1-0.2-0.4-0.1-0.4c0-0.1,0-0.2,0-0.2s-0.2-0.2-0.4-0.1
	c-0.2,0-0.4,0.1-0.6,0.1c-0.2,0-0.5-0.1-0.5-0.2c0-0.2,0.2-0.6,0.5-0.7c0.2-0.1,1.5-1,2-1.5c0.5-0.4,1.8-1.5,2-1.8
	c0.2-0.3,0.9-1.5,1-1.8c0.1-0.3,0.1-1.8,0.1-2.3c0-0.5-0.2-3-0.3-3.4c-0.1-0.5-0.2-1.5-0.4-1.9c-0.1-0.4-0.5-1.1-1-1.3
	c-0.5-0.3-1-0.5-1.3-0.4c-0.3,0-0.9,0.1-1.5,0.3c-0.6,0.1-1.3,0.3-1.4,0.3c-0.1,0-0.4-0.4-0.7-0.9c-0.3-0.4-1-1.3-1.3-1.7
	c-0.3-0.4-0.2-0.6-0.6-0.7c-0.4-0.1-0.7-0.3-1.4-0.4c-0.7,0-1.1,0-1.7-0.1c-0.6-0.1-0.8-0.2-1-0.3c-0.2-0.1-0.3-0.1-0.3-0.1
	s-0.1,0.1-0.1,0.3c0,0.2,0,0.4,0.2,0.8c0.2,0.4,0.7,0.6,1,1c0.4,0.4,1.4,1.1,1.6,1.5c0.2,0.4,0.3,0.9,0.2,1.2
	c-0.1,0.3-0.8,1.2-1.2,1.5c-0.3,0.3-1.8,1.8-2.1,2.2c-0.3,0.4-1.5,1.9-1.7,2.3c-0.3,0.3-0.9,1.1-1.1,1.4c-0.2,0.3-0.2,0.4-0.2,0.5
	c0,0.1,0.3,0.9,0.3,1.2c0,0.3,0,0.6-0.3,1c-0.3,0.4-0.9,1-1.2,1.1c-0.3,0.1-0.6,0.1-0.9,0.1c-0.3-0.1-0.6-0.1-0.7-0.2
	c-0.2,0-0.2-0.1-0.2-0.1s-0.1,0.8-0.3,1.4c-0.2,0.5-0.2,0.8-0.4,1c-0.2,0.2-0.6,0.4-0.7,0.5c-0.1,0.1-0.7,0.4-1.1,0.6
	c-0.5,0.1-2,0.3-2.7,0.2c-0.7,0-1.1-0.1-1.3-0.2c-0.2-0.1-0.4-0.3-0.4-0.3s-0.9-0.1-1.2-0.2c-0.2-0.1-0.4-0.2-0.5-0.3
	c0-0.1-0.1-0.2,0-0.4c0.1-0.1,2.5-1.9,2.9-2.2c0.4-0.3,1.2-1,1.2-1.1c0.1-0.1,0.1-0.5,0.3-0.7c0.2-0.2,0.7-0.7,1.1-1
	c0.4-0.3,0.5-0.5,0.7-0.5c0.2-0.1,0.1,0,0.3-0.1c0.2-0.1,1.4-1.6,1.9-2.3c0.5-0.7,1.5-2.5,1.8-2.9c0.3-0.4,0.9-1.4,0.9-1.6
	c0.1-0.2,0.1-0.4,0.1-0.5c0-0.1-0.4-0.7-0.8-1c-0.4-0.3-1.4-1-1.8-1.1c-0.3-0.1-0.9,0-1.6-0.1c-0.7-0.1-1.5-0.2-1.6-0.2
	c-0.1,0-0.1,0-0.1,0s-1-2.8-1.1-3.1c-0.1-0.3-0.5-1.4-0.6-1.5c-0.1-0.1-0.2-0.4-0.4-0.4c-0.1,0-0.2-0.1-0.4,0
	c-0.3,0.1-0.7,0.4-1,0.4c-0.2,0-0.5-0.1-0.7-0.1c-0.2,0-0.6,0-0.9,0.2c-0.3,0.1-0.6,0.3-1.1,0.3c-0.5,0-1.1-0.2-1.4-0.2
	c-0.3,0.1-0.5,0.1-0.8,0.2c-0.3,0.1-0.3,0.2-0.7,0.1c-0.4,0-1.5-0.2-1.8-0.2c-0.3,0-0.2,0-0.6,0.1c-0.4,0.1-0.9,0-1.4-0.1
	c-0.4-0.1-0.6-0.2-0.9-0.2c-0.3,0-0.3,0.1-0.6,0.1c-0.3,0-0.4,0.1-0.8-0.1c-0.4-0.1-0.7-0.2-0.9-0.2c-0.2,0-0.1,0-0.4,0
	c-0.3,0-0.4,0-0.7-0.1c-0.3-0.1-0.5-0.2-0.5-0.2s-0.1,0.1,0,0.2c0,0.1,0.2,0.7,0.2,0.8c0,0.1,0.1,0.8,0.1,1c0,0.2,0.1,0.7,0.1,0.8
	c0,0.1,0,0.3,0.1,0.5c0.2,0.2,0.5,0.8,0.8,1.2c0.3,0.4,0.6,0.8,0.7,0.9c0,0.1,0.2,0.9,0.2,1.3c0,0.5,0.1,1.1,0.1,1.2
	c0,0.1,0,0.1-0.1,0.2c0,0.1,0,0.2,0,0.3c0.1,0.2,0.6,1.4,0.8,1.9c0.2,0.4,0.5,1.3,0.6,1.6c0.1,0.2,0.2,0.4,0.2,0.5
	c0.1,0.1,0.3,0.3,0.5,0.4c0.1,0.1,0.6,0.3,0.8,0.6c0.2,0.2,0.5,0.3,0.6,0.5c0.1,0.1,0.2,0.4,0.2,0.4c0,0.1,0.2,0.1,0.2,0.2
	c0.1,0.1,0.2,0.2,0.2,0.4c-0.1,0.2-0.3,0.5-0.3,0.5s0.1,0.4,0.1,0.6c-0.1,0.2-0.2,0.3-0.3,0.5c-0.2,0.2-0.4,0.5-0.6,0.6
	c-0.2,0.1-0.3,0.2-0.3,0.2s0,0.4,0.1,0.7c0.1,0.3,0.4,1.2,0.3,1.7c0,0.4-0.2,1.1-0.4,1.3c-0.2,0.2-0.7,0.6-1,0.7
	c-0.3,0.2-2.6,0.7-3.2,0.8c-0.6,0.1-1,0.2-1.2,0.2c-0.3,0-0.7-0.1-0.9-0.1C39,83,39,82.8,38.9,82.8c-0.1-0.1-0.1-0.1-0.2-0.1
	c-0.1,0-0.6-0.1-0.9-0.2c-0.2,0-0.6-0.3-0.6-0.4c0-0.1,0.4-0.4,0.5-0.5c0.2-0.1,2.1-1.4,2.4-1.6c0.2-0.2,1-0.9,1.1-1
	c0.1-0.2,0-0.4-0.1-0.6c0-0.2,0.1-0.7,0.2-0.9c0.1-0.2,0.1-0.4,0.1-0.4s-1.8-3.9-2.1-4.4c-0.3-0.5-0.9-1.8-1.2-2
	c-0.2-0.2-0.5-0.5-0.7-0.7c-0.2-0.1-2.3-0.8-2.3-0.8c-0.1,0-0.2-0.1-0.2-0.1s0.3-3.6,0.3-3.9c0-0.3-0.3-1.1-0.7-1.8s-1.6-2.7-1.8-3
	c-0.2-0.3-0.3-0.6-0.3-0.6s-0.7,0.4-0.9,0.7c-0.2,0.4-1,2.3-1.2,2.8c-0.2,0.4-0.4,0.9-0.4,1c0,0.1,0,1.3,0,1.7
	c0,0.4-0.1,0.7-0.1,0.7s-0.9,1-1.1,1.5c-0.3,0.5-0.8,1.8-0.9,2.3c-0.1,0.5-0.3,2.4-0.4,2.9c-0.1,0.5-0.1,1.1,0,1.4
	c0.1,0.3,0.1,0.4,0.3,0.6c0.2,0.2,0.6,0.7,0.5,1c0,0.3-0.2,1.2-0.3,1.4c-0.1,0.2-0.3,0.6-0.7,0.9c-0.4,0.2-0.7,0.3-1,0.4
	c-0.4,0.2-0.4,0.1-0.4,0.2c0,0.1-0.2,0.5-0.4,0.8c-0.2,0.3-0.6,0.9-0.9,1.1c-0.3,0.2-0.9,0.6-1.7,0.7c-0.8,0.1-2,0.3-2.7,0.3
	c-0.7,0-1.2,0-1.5,0c-0.3,0-0.4-0.1-0.4-0.2c0-0.1,0.1-0.2,0.2-0.2c0-0.1-0.1-0.1-0.1-0.1s-1.3-0.4-1.5-0.5
	c-0.2-0.1-0.4-0.2-0.2-0.4c0.2-0.2,1-0.7,1.9-1.2c0.9-0.5,2.4-1.6,3-2.4c0.6-0.8,1.1-1.7,1.3-2.2c0.1-0.5,0.7-3.4,0.9-4.3
	c0.1-0.8,0.3-1.7,0.3-2.1c0-0.3-0.5-1.3-0.4-1.5c0-0.2,0-0.4,0-0.4s-1-2.5-1.1-2.6c0-0.1,0-0.2,0-0.2s1.2-1.2,1.3-1.3
	c0.1-0.2,0.2-0.2,0.2-0.2s0.4-1.1,0.9-1.6c0.5-0.5,0.9-1,0.9-1s0.5-3.2,0.5-3.3c0-0.1-0.2-1.5-0.3-1.5c-0.1-0.1-0.1-0.1-0.1-0.1
	s-1.3-0.6-1.5-1.3c-0.3-0.7-0.4-1.5-0.6-1.7c-0.2-0.2-1.4-0.7-1.9-1.4c-0.5-0.6-0.7-1.1-0.7-1.9c-0.1-0.9,0.3-1.5,0.7-2.2
	c0.3-0.6,0.7-1,0.6-1.5c-0.1-0.5-0.6-2-0.7-3.2c-0.1-1.2-0.2-1.9,0.1-3c0.2-0.6,0.5-1.3,0.7-1.6c0.2-0.3,0.3-0.4,0.3-0.4
	s-0.4-0.8-0.3-1.2c0.1-0.4,0.7-1.8,1.3-2.6c0.6-0.7,1.5-1.6,1.7-1.8c0.2-0.2,0.2-0.5,0.2-0.6c0-0.2-0.1-1.2,0.4-1.9
	c0.4-0.7,1.6-1.9,2.2-2.4c0.6-0.5,1.7-1.5,1.9-1.7c0.2-0.1,0.3-0.4,0.3-0.4s-0.7-0.2-1-0.2c-0.3,0-1.1-0.1-1.1-0.1s-0.2,0.5-0.4,0.9
	c-0.2,0.4-0.6,1-1.1,1.3c-0.5,0.3-1.9,0.7-2.5,1c-0.6,0.3-1.2,0.5-1.6,1.1c-0.4,0.6-0.7,0.9-0.7,1.2c0,0.4,0,0.5,0,0.5l-0.1,0.1
	c0,0-0.5-0.4-0.5-1.1c0-0.7,0-1.6,0.3-2.3c0.3-0.6,0.9-1.2,1.2-1.6c0.2-0.4,0.3-1,0.2-1.2c-0.1-0.2-0.9-0.8-1.1-1
	c-0.1-0.2-0.3-0.4-0.3-0.4s-0.6-0.3-0.8-0.4c-0.2-0.1-1.1-0.3-1.3-0.6c-0.2-0.4-0.3-0.6-0.1-1.1c0.2-0.6,0.6-1.7,0.7-1.9
	c0.1-0.2,0.2-1,0.2-1l0-0.6L20.5,16.5L20.5,16.5z"/>
<path id="path2999" fill-rule="evenodd" fill="#FCEE23" d="M48.1,21.4c-0.1,0-0.3,0.1-1,0.3c-0.7,0.2-2.9,0.8-3.3,0.9
	c-0.5,0.2-1.2,0.3-1.7,0.3c-0.4,0-1.6-0.3-1.9-0.6c-0.4-0.3-0.8-0.7-1-1c-0.2-0.4-0.1-0.5-0.1-0.6c0-0.2,0.1-0.3,0.1-0.3
	S39,20.1,38.6,20c-0.4-0.1-0.6-0.1-0.9-0.1c-0.3,0-0.5,0.1-0.7,0.1c-0.2,0-0.4,0.1-0.6-0.1c-0.2-0.2-0.2-0.4-0.4-0.4
	c-0.2,0-0.1,0-0.4,0.2c-0.3,0.2-0.4,0.2-0.6,0.3c-0.1,0.1-0.2,0.4-0.2,0.4s-0.4-0.2-0.3-0.4c0-0.2,0.2-0.6,0.5-0.8
	c0.3-0.2,1.2-0.6,1.5-0.7c0.3-0.1,0.4-0.2,0.7-0.2c0.3,0,0.6-0.1,0.6-0.1l0-0.2c0,0-0.4-0.1-0.7-0.1c-0.3,0-0.7,0-1.1,0.1
	c-0.4,0.1-0.4,0.1-0.5,0.1c-0.2,0-0.5,0.1-0.6-0.1c-0.2-0.1-0.3-0.2-0.2-0.5c0.1-0.3,0.3-0.7,0.4-1c0.2-0.3,0.5-0.6,0.7-0.6
	c0.3-0.1,0.4-0.1,0.6-0.1c0.2,0,0.3,0.1,0.4,0.1c0.1,0,0.2,0,0.2,0c0-0.1-0.1-0.1-0.2-0.2c-0.1-0.1-0.4-0.2-0.7-0.2
	c-0.2,0-0.5-0.1-0.8,0c-0.3,0.1-0.3,0.1-0.5,0.2c-0.2,0.1-0.5,0.1-0.7-0.1c-0.2-0.1-0.3-0.3-0.5-0.4c-0.2-0.1-0.4-0.2-0.5-0.2
	c-0.1,0-0.3,0-0.3,0s-0.1-0.2-0.1-0.2c0.1,0,0.6,0,0.7-0.1c0.1,0,0.6-0.4,0.7-0.5c0.1-0.1,0.3-0.4,0.6-0.4c0.3,0,0.5,0,0.7,0
	s0.3,0.1,0.3,0c0.1,0,0.1-0.1,0-0.1c-0.1-0.1-0.2-0.2-0.4-0.2c-0.3,0-0.6,0-1,0.1c-0.3,0.1-0.5,0.2-0.5,0.2s-0.9,0.1-1.1,0
	c-0.3-0.1-0.9-0.3-1-0.3c-0.1-0.1-0.3-0.1-0.3-0.2c0-0.1-0.1-0.1,0-0.2c0.1-0.1,0.3-0.1,0.5-0.1c0.2,0.1,0.3,0,0.6,0
	c0.2,0,1.1-0.2,1.4-0.4c0.4-0.2,1.3-0.4,1.3-0.4s0.5,0.1,0.6,0.1c0.2,0,0.4-0.1,0.4-0.1c0.1,0,0.6,0.1,0.7,0.1
	c0.1,0,0.4,0.1,0.5,0.4c0.1,0.2,0.1,0.4,0.2,0.5c0.1,0.1,0.1,0.1,0.5,0.2c0.3,0.1,0.3,0,0.5,0.1c0.2,0.1,0.4,0.3,0.4,0.4
	c0,0.1,0.1,0.2,0.1,0.2s0,0.1-0.2,0.1C38.8,14,38.6,14,38.4,14c-0.2,0-0.3,0.1-0.5,0.1c-0.2,0-0.3-0.1-0.4-0.1c-0.1,0-0.1,0-0.1,0.1
	s0,0.2,0.3,0.4c0.2,0.2,0.5,0.3,0.7,0.4c0.2,0.1,0.5,0.3,0.5,0.4c0,0.1,0.1,0.4,0.1,0.5c0,0.2,0,0.6,0,0.6s0.3,0.1,0.4,0.1
	c0.1,0.1,0.2,0.1,0.3,0.1c0.1,0,0.1-0.1,0.3-0.1c0.2,0.1,0.2,0,0.4,0.2c0.2,0.2,0.1,0.3,0.2,0.5c0.1,0.2,0.1,0.3,0,0.4
	c-0.1,0.1-0.2,0.1-0.3,0.2c0,0.1-0.1,0.2,0,0.3c0.1,0.1,0.1,0.1,0.3,0.1c0.2,0,0.5-0.1,0.8,0c0.3,0.1,0.7,0.4,1,0.7
	c0.4,0.3,0.8,0.6,0.8,0.6s0.5,0.1,1.1,0.2c0.6,0.1,1.5,0.3,1.9,0.4c0.4,0.2,1.1,0.4,1.2,0.5c0.2,0.1,0.3,0.1,0.4,0.3
	C48,21.2,48.1,21.4,48.1,21.4L48.1,21.4z M26.7,29.9c0,0,0.2-0.9,0.4-1.2c0.2-0.3,0.5-0.8,1-1.2c0.5-0.4,1.9-1.5,2.2-1.8
	c0.2-0.3,1-1.3,1-1.3s0-0.1,0.2-0.1c0.2,0,0.8,0.2,1.4,0.2c0.6,0,1.8-0.2,1.9-0.4c0.1-0.1,0.1-0.2,0.4-0.4c0.3-0.1,0.8-0.2,1-0.2
	c0.2,0,0.3,0,0.3-0.2c0-0.1,0-0.2-0.2-0.3c-0.1,0-0.4-0.1-0.5-0.2c-0.1-0.1-0.2-0.2-0.1-0.4c0.1-0.2,0.1-0.3,0.3-0.4
	c0.1-0.1,0.3-0.2,0.2-0.3c0-0.1,0-0.1-0.2-0.1c-0.1,0-0.2,0.1-0.3,0c-0.1-0.1,0-0.3,0.2-0.6c0.2-0.2,0.3-0.5,0.6-0.6
	c0.2,0,0.7-0.1,0.9-0.1c0.2,0,0.4,0,0.6,0c0.2,0.1,0.3,0.2,0.5,0.6c0.2,0.4,0.2,0.6,0.5,1c0.3,0.3,0.4,0.5,0.7,0.8
	c0.3,0.3,0.6,0.5,1,0.6c0.4,0.1,0.8,0.2,0.8,0.2s0.2,1.3,0.2,2.1c0,1-0.1,1.6-0.2,2.5c-0.1,1-0.1,1.6-0.2,2.6
	c-0.1,0.8-0.1,1.3-0.2,2.1c0,0.6,0,0.9-0.1,1.4c0,0.4-0.1,0.4,0.1,0.7c0.3,0.4,0.7,1,0.9,1.3c0.2,0.3,1.4,1.8,1.6,2
	c0.2,0.2,0.5,0.8,0.5,0.9c0.1,0.1-0.1,0.2,1,0.4c1,0.3,1.9,0.5,3.5,0.4c1.6-0.1,4-0.2,4.7-0.2c0.7,0,2.2-0.1,4.4,0.1
	c2.2,0.2,1.7,0.2,2.2,0.2c0.5,0,1.9-0.2,2.5-0.4c0.7-0.2,0.9-0.4,2.4-0.3c1.5,0.1,2.2,0.1,4.4,0.8c2.2,0.7,2.4,0.8,3,1
	c0.6,0.2,1.9,0.9,2.8,1.2c0.9,0.3,1.7,0.4,2.8,0.3c1.1-0.1,1.9-0.3,2.8-0.9c0.7-0.5,1-0.9,1.4-1.6c0.2-0.4,0.3-0.6,0.4-1.1
	c0.2-0.7,0.2-1.2,0-1.9c-0.1-0.4-0.2-0.7-0.4-1.1c-0.4-0.7-0.7-1-1.3-1.5c-0.3-0.2-0.5-0.3-0.8-0.5c-0.3-0.2-0.5-0.3-0.8-0.4
	c-0.3-0.1-0.8,0-0.8,0s0.4-0.3,0.7-0.3c0.5-0.1,0.8-0.1,1.3,0.1c0.6,0.1,0.9,0.3,1.4,0.7c0.4,0.3,0.6,0.5,1,1
	c0.2,0.2,0.3,0.3,0.4,0.5c0.1,0.2,0.1,0.2,0.1,0.4c0,0.2-0.2,0.5-0.1,0.5c0.1,0,0.2-0.1,0.3-0.1c0.3-0.1,0.5,0.2,0.7,0.6
	c0.2,0.4,0.3,0.7,0.3,1c0,0.2,0,0.3-0.2,0.5c-0.2,0.2-0.3,0.4-0.5,0.6c-0.1,0.1-0.1,0.1-0.3,0.3c0,0.1-0.1,0.2,0.1,0.2
	c0.2-0.1,0.3-0.1,0.5-0.2c0.2,0,0.4-0.1,0.4-0.1s-0.1,0.7-0.3,1.2c-0.1,0.4-0.2,0.6-0.5,0.9c-0.2,0.2-0.3,0.4-0.5,0.5
	c-0.2,0.1-0.4,0.1-0.6,0.2c-0.1,0-0.2,0-0.4,0c0,0.1,0,0.1,0,0.2c0.1,0.1,0.2,0.1,0.3,0.2c0.1,0,0.4,0.1,0.4,0.1s-0.4,0.6-0.8,1
	c-0.3,0.3-0.6,0.4-1,0.6c-0.4,0.1-0.6,0.2-1,0.2c-0.1,0-0.2,0-0.4-0.1c-0.1,0-0.3-0.2-0.4-0.2c-0.1,0-0.1,0.1,0,0.2
	c0.1,0.1,0.2,0.4,0.2,0.5c0,0,0,0.1-0.1,0.2c-0.1,0.1-0.5,0.3-1.4-0.1c-1-0.4-2.4-1.3-3.1-1.7c-0.7-0.4-1.5-0.9-1.8-1
	c-0.2-0.1-0.8-0.3-0.9-0.3c-0.1,0-0.2-0.1-0.3,0c-0.1,0,0,0.2,0,0.2s1.4,0.8,1.6,1.3c0.2,0.4,0.8,1.6,0.8,1.9c0.1,0.4,0.1,1,0,1.7
	c-0.2,0.7-0.3,1.4-0.6,1.9c-0.3,0.5-1.2,1.6-1.3,1.9c-0.2,0.3-0.7,1.7-1,2.6c-0.3,0.9-1,2.6-1.5,3.4c-0.5,0.8-1,1.4-1.4,1.8
	c-0.4,0.5-0.5,0.7-0.8,0.9c-0.4,0.2-0.8,0.4-0.8,0.4s0,0-0.2-0.4c-0.2-0.4-0.3-0.7-0.3-0.7s1.3-1.8,1.5-2.2c0.2-0.4,0.9-1.9,1-2.3
	c0.1-0.3,0.3-0.7,0.3-0.9c0-0.2,0.1-0.4,0-0.5c-0.1-0.1-0.1-0.2-0.2-0.2c0,0-0.3,1.1-0.5,1.4c-0.1,0.3-0.6,1.5-0.8,1.7
	c-0.1,0.2-0.8,1.2-1.2,1.5c-0.3,0.4-0.5,0.5-0.8,0.7c-0.2,0.2-0.4,0.2-0.6,0.3c-0.1,0.1-0.3,0.1-0.3,0.1c0,0.1,0.5,0.5,0.6,0.8
	c0.1,0.3,0.5,2.5,0.6,3c0.1,0.5,0.3,1.1,1.2,2.2c0.9,1,1.4,1.6,1.5,1.7c0.1,0.1,0.3,0.2,0.3,0.4c0,0.2,0.1,0.1,0,0.5
	c-0.1,0.4-0.1,0.6-0.5,1c-0.4,0.4-2.1,2.5-2.5,3c-0.4,0.5-1.9,2.3-2,2.5c-0.1,0.2-0.6,1-0.7,1.2c-0.1,0.2-0.2,0.3-0.2,0.5
	c0,0.2,0,0.3,0,0.5c0.1,0.2,0.2,0.3,0.2,0.6c0,0.3,0,0.5,0,0.7c-0.1,0.2-0.1,0.4-0.3,0.5c-0.2,0.1-0.5,0.2-0.7,0.1
	c-0.2,0-0.3-0.1-0.4-0.3c0-0.2-0.1-0.3,0-0.5c0.1-0.2,0-0.2,0.2-0.2c0.2,0,0.2,0,0.2,0.1c0,0.1,0,0.1-0.1,0.2c0,0.1,0,0.1,0.1,0.1
	c0.1,0,0.2-0.1,0.3-0.2c0-0.1,0.1-0.3-0.1-0.5c-0.2-0.2-0.4-0.3-0.5-0.3c-0.2,0-0.6,0.1-0.7,0.2c-0.1,0.1-0.4,0.6-0.5,0.7
	c0,0.1-0.1,0.5-0.1,0.6c-0.1,0.1-0.3,0.5-0.5,0.6c-0.2,0.1-0.9,0.4-1.3,0.2c-0.4-0.1-0.7-0.2-0.8-0.6c-0.1-0.4-0.1-0.4,0-0.6
	c0.1-0.2,0.2-0.4,0.3-0.5c0.2-0.1,0.3-0.2,0.5-0.3c0.2-0.1,0.7-0.2,0.8-0.2c0.1,0,0.2-0.1,0.3-0.1c0.1-0.1,0.1-0.1,0.1-0.1
	s-0.1,0.1-0.1,0c-0.1-0.2,0.1-0.2,0.1-0.3c0-0.1,2-2.9,2.2-3.2c0.2-0.3,1.6-2.6,1.9-3.3c0.3-0.7,0.5-1.2,0.7-1.6
	c0.1-0.3,0.2-0.7,0.2-0.8c-0.1-0.1-1-0.5-1.2-0.6c-0.2-0.2-1.2-0.7-1.4-0.8c-0.2-0.1-0.6-0.2-0.6-0.4c0-0.1-0.1-0.2,0.1-0.4
	c0.1-0.1,0.7-0.6,0.9-0.7c0.2-0.1,0.2-0.2,0.3-0.2c0.1,0,0.4-0.1,0.4-0.1s-0.2-0.1-0.4-0.1c-0.1,0-0.4,0-0.8,0.2
	c-0.4,0.1-0.9,0.4-1.1,0.5c-0.2,0.1-0.4,0.3-0.6,0.4c-0.2,0.1-0.2,0.1-0.5,0.2c-0.3,0-0.6,0-0.6,0s0.2-0.5,0.2-0.9
	c0-0.4,0.1-2,0.2-2.3c0-0.3,0.1-0.7,0.2-0.8c0.1-0.2,0.2-0.3,0.2-0.3l-0.1-0.1c0,0-0.4,0.3-0.5,0.6c-0.1,0.2-0.2,1-0.3,1.3
	c0,0.3-0.1,1.1-0.1,1.3c0,0.2-0.2,0.6-0.3,0.7c-0.1,0.1-0.4,0.3-0.5,0.3c-0.1,0.1-0.2,0.1-0.2,0.1s0-0.6-0.2-0.8
	c-0.2-0.2-0.4-1-0.5-1.8c0-0.8-0.1-1.9-0.1-2.1c0-0.2,0.1-0.4,0.2-0.4c0.1-0.1,0.2-0.1,0.1-0.2c-0.1-0.1-0.2-0.2-0.3,0
	c-0.1,0.1-0.3,0.4-0.3,0.5c-0.1,0.1-0.1,0.4-0.1,0.5c0,0.1-0.1,0.2-0.2,0.1c-0.1-0.1-0.3-0.3-0.3-0.7c0-0.4,0.1-1.5,0.3-2
	c0.2-0.5,0.2-1.6,0.4-2.1c0.1-0.5,1-2,1.4-2.6c0.4-0.6,1-1.4,1-1.8c0-0.4,0.1-0.8-0.1-1.1c-0.1-0.3-0.2-0.6-0.4-0.8
	c-0.2-0.1-0.1-0.1-0.3-0.2c-0.2,0-0.2,0-0.2,0s0.2,0.3,0.2,0.6c0,0.3,0.2,1.3,0,1.6c-0.2,0.3-0.5,0.9-1,1.6
	c-0.6,0.7-1.3,1.9-1.5,2.3c-0.2,0.4-0.5,2.2-0.6,2.5c-0.1,0.3-0.2,0.9-0.3,1c-0.1,0.1-0.1,0.4-0.2,0.4c-0.1,0.1,0,0.1-0.4,0.3
	c-0.4,0.1-0.5,0.2-0.7,0.1c-0.2-0.1-0.4-0.2-0.6-0.6c-0.2-0.4-0.2-0.5-0.3-0.7c-0.1-0.2-0.2-0.8-0.2-0.8s-0.1,0.2,0,0.6
	c0.1,0.4,0.2,0.8,0.2,1c0,0.2,0.1,0.5,0,0.6c-0.1,0.1-0.1,0.1-0.4,0.3c-0.3,0.2-0.3,0.2-0.6,0.2c-0.3,0.1-0.2,0.1-0.6,0.1
	c-0.4,0-0.7,0-0.9-0.3c-0.2-0.3-0.2-0.7-0.3-0.9c-0.1-0.2-0.2-0.5-0.4-0.6c-0.2-0.1-0.4-0.2-0.6-0.2c-0.2,0-0.2,0-0.3,0.1
	c-0.2,0.1-0.2,0.2-0.2,0.2s0.1,0,0.3-0.1c0.2,0,0.4,0,0.6,0.1c0.2,0.2,0.2,0.6,0,0.8c-0.2,0.2-0.4,0.4-0.6,0.4
	c-0.3,0-0.5,0.1-0.8-0.2c-0.4-0.3-0.6-0.5-0.8-0.9c-0.3-0.4-0.6-1.2-0.6-1.2s0,0.6,0,0.9c0,0.3,0,0.6,0.1,0.8
	c0.1,0.2,0.1,0.3,0.2,0.5c0.1,0.1,0.3,0.4,0.3,0.4s-0.7,0-0.9,0c-0.2,0-0.6,0.1-0.9,0c-0.3-0.1-0.8-0.2-1-0.5
	c-0.3-0.3-0.5-0.6-0.6-0.8C44.2,59,44,58.8,44,58.8s0.2,0.5,0.1,0.7c0,0.2,0,0.4-0.2,0.5c-0.2,0.2-0.2,0.4-0.6,0.3
	c-0.3,0-0.6-0.3-0.8-0.6c-0.2-0.2-0.5-0.7-0.6-1.1c-0.1-0.4-0.2-1.1-0.2-1.6c0-0.5,0.2-1.1,0.2-1.1s-0.4,0.6-0.4,0.8
	c-0.1,0.2-0.2,0.8-0.1,1.1c0,0.2,0.1,0.7,0.2,1c0,0.3,0.1,0.4,0.2,0.6c0,0.1,0,0.2,0,0.3c0,0.1,0,0.2-0.1,0.2c-0.1,0-0.3,0.1-0.5,0
	c-0.3-0.1-0.6-0.3-0.9-0.9c-0.3-0.6-0.5-1.5-0.3-2c0.1-0.5,0.4-0.8,0.5-0.9c0.2-0.2,0.3-0.2,0.4-0.4c0.1-0.2,0.2-0.3,0.2-0.3
	s0.1-0.1-0.1,0c-0.2,0.1-0.2,0.1-0.3,0.2c-0.1,0.1-0.3,0.3-0.3,0.3s0-0.3,0.1-0.5c0.1-0.3,0.2-0.4,0.4-0.6c0.4-0.6,1.2-1,1.4-1.2
	c0.2-0.2,0.2-0.4,0.3-0.7c0.1-0.2,0.1-0.4,0.1-0.6c-0.1,0.2-0.2,0.3-0.3,0.5c-0.1,0.2-0.1,0.3-0.2,0.5c-0.1,0.2-0.3,0.3-0.6,0.5
	c-0.2,0.2-0.4,0.3-0.7,0.4c-0.2,0.2-0.4,0.2-0.6,0.5c-0.2,0.2-0.2,0.4-0.3,0.7c-0.1,0.3,0,0.6,0,0.9c0,0.2,0.1,0.3,0,0.6
	c-0.2,0.3-0.3,0.5-0.3,0.8c-0.1,0.3-0.1,0.8-0.1,1c0,0.2,0,0.3-0.2,0.4c-0.2,0.1-0.1,0.1-0.3,0c-0.2-0.1-0.2-0.1-0.5-0.1
	c-0.3,0-0.4,0-0.4,0.1c-0.1,0.1-0.2,0.1-0.2,0.1s0,0,0.2,0.2c0.2,0.2,0.3,0.2,0.5,0.3c0.2,0.1,0.4,0.2,0.4,0.2s0.8,1.4,0.8,1.8
	c0,0.3,0.2,2.5,0.4,3.1c0.2,0.6,0.5,0.9,0.5,0.9s0.3,0,0.3,0.2c0,0.1,0.7,0.9,0.7,1.2c0.1,0.2,0.2,0.6,0.2,0.9
	c0,0.3-0.1,0.6-0.1,0.7c0,0.1,0,0.2-0.1,0.2c-0.1,0.1-0.2,0.1-0.2,0.2c0,0.1,0,0.2,0.1,0.2c0.1,0.1,0.3,0.2,0.3,0.2s0.4,1.2,0.8,2
	c0.4,0.9,1.2,2.6,1.2,2.8c0.1,0.1,0.1,0.2,0.2,0.2c0.1,0,0.6,0.1,0.9,0.3c0.3,0.2,0.5,0.3,0.6,0.5c0.1,0.2,0.3,0.5,0.3,0.7
	c0,0.2,0.1,0.5,0.1,0.6c0,0.1,0,0.2-0.2,0.3c-0.2,0.1-0.1,0.2-0.3,0.1c-0.2-0.1-0.3,0-0.3-0.2c0-0.1-0.1-0.2,0.1-0.3
	c0.2-0.1,0.2-0.1,0.2-0.2c0-0.1,0-0.2-0.2-0.2c-0.1,0-0.5,0-0.6,0.1c-0.1,0.2-0.2,0.3-0.2,0.6c0,0.2,0.2,0.5,0.3,0.6
	c0.1,0.2,0.2,0.7,0.3,1c0.1,0.3,0,0.6,0,0.8c0,0.2-0.1,0.3-0.3,0.4c-0.2,0.1-0.7,0.3-1,0.2c-0.3,0-0.7-0.2-0.8-0.6
	c-0.2-0.4-0.3-0.9-0.3-1.1c0-0.2,0.1-0.3,0.3-0.4c0.2-0.1,0.4-0.2,0.6-0.1c0.2,0.1,0.3,0.1,0.4,0.2c0.1,0.1,0.3,0.1,0.3,0.1
	s0-0.2-0.2-0.4c-0.2-0.2-0.1-0.3-0.5-0.4c-0.3-0.1-0.3-0.1-0.5-0.1h-0.3c0,0-0.2-0.6-0.9-2c-0.8-1.5-1.7-3.7-2-4.1
	c-0.3-0.4-0.4-0.6-0.6-0.8c-0.1-0.1-0.4-0.4-0.7-0.5C38,69.2,37.8,69,37.8,69s0-0.7,0.1-1c0.1-0.2,0.2-0.4,0.4-0.6
	c0.1-0.1,0.2-0.3,0.3-0.3c0,0,0.1-0.1,0-0.1c-0.1,0-0.2,0-0.4,0.1c-0.2,0.1-0.3,0.3-0.4,0.4c-0.1,0.1-0.3,0.4-0.4,0.4
	c-0.1,0-0.1,0.2-0.3,0.2c-0.2,0-0.2,0-0.3-0.2c0-0.2,0.1-0.3,0-0.4c0-0.1,0-0.2-0.1-0.1c-0.1,0-0.1,0.1-0.2,0.3
	c-0.1,0.1-0.2,0.3-0.2,0.3S36,67.4,36,67c0.1-0.3,0.1-1.4,0.2-1.6c0.1-0.3,0-0.4,0.2-0.6c0.2-0.1,0.4-0.2,0.6-0.2
	c0.2,0,0.2-0.1,0.4,0c0.2,0.1,0.7,0.4,0.7,0.4s-0.8-0.7-0.9-0.8c-0.2,0-0.6-0.2-0.8-0.2c-0.2,0-0.5,0.1-0.5,0.1s-1.7-3.9-2.2-4.5
	c-0.4-0.6-1.1-1.9-1.2-2.1c-0.1-0.2-0.3-0.6-0.4-0.8c-0.1-0.1-0.2-0.3-0.4-0.3c-0.1,0-0.2,0-0.2,0.1c0,0.1,0,0.2,0.1,0.3
	c0.1,0.1,0.2,0.2,0.2,0.3c0,0.1,0,0.2,0,0.2s-0.9-0.1-1.4-0.6c-0.5-0.6-0.8-1.1-1-1.3c-0.2-0.2-0.5-0.7-0.9-1.1
	c0.1,0.3,0.2,0.6,0.2,0.8c0,0.2,0.2,0.3,0.2,0.4c0,0.1,0.1,0.3,0.1,0.3s-0.7-0.1-0.9-0.2c-0.6-0.3-0.7-0.4-1-0.7
	c-0.3-0.3-0.2-0.8-0.4-1.3c-0.1-0.3-0.3-0.6-0.4-0.8c-0.1-0.2-0.4-0.4-0.7-0.5c0.3,0.5,0.5,1.2,0.5,1.3c0,0.1,0,0.6,0,0.6
	s-0.3,0-0.5-0.2c-0.2-0.2-0.7-0.4-0.9-0.9c-0.2-0.4-0.5-1.1-0.4-1.8c0-0.3,0-0.5,0.1-0.8c0-0.3,0-0.5-0.2-0.8
	c-0.1-0.3-0.3-0.5-0.5-0.7c-0.1-0.1-0.3-0.1-0.4,0c-0.1,0.1-0.2,0.2-0.1,0.3c0,0.1,0,0.1,0.1,0.2c0.1,0,0.2,0,0.2,0
	s-0.1,0.4-0.2,0.6c-0.1,0.2-0.1,0.2-0.2,0.4c-0.3-0.1-0.5-0.1-0.7-0.3c-0.5-0.3-0.6-0.7-0.7-1.3c-0.2-0.8,0.2-1.5,0.6-2.1
	c0.4-0.6,0.6-0.9,0.9-1.5c0.3-0.6,0.2-1,0.5-1.7c0.3-0.6,0.7-1.4,1.4-2c0.4-0.4,0.8-0.6,1.2-0.8c0.4-0.2,1.1-0.6,1.2-0.7
	c0.1-0.1,0.2-0.1,0.2-0.1s0,0.2,0.1,0.4c0.1,0.2,0.2,0.4,0.2,0.4s0,0.3,0,0.4c0,0.2,0,0.2,0.1,0.3c0.1,0.1,0.1,0.2,0.2,0.2
	c0.1,0,0.1,0,0.1-0.1c0-0.1-0.1-0.2-0.1-0.3c0-0.1,0-0.3,0-0.3s0.3-0.2,0.3-0.5c0-0.2,0.1-1.2,0.4-1.7c0.3-0.5,1.1-1.2,1.8-2
	c0.5-0.5,0.8-0.6,1.2-1.2c0.4-0.7,0.5-1.1,0.9-1.8c0.3-0.7,0.5-1,1.1-1.4c0.2-0.2,0.4-0.2,0.7-0.4c0.2-0.1,0.5-0.3,0.6-0.3
	c0.1,0,0.3-0.2,0.5-0.3c-0.4,0-0.6,0-1,0c-0.2,0-0.3,0-0.5,0.1c-0.2,0-0.3,0.1-0.5,0.1c-0.2,0-0.3,0.1-0.4,0.1
	c-0.2,0.1-0.3,0.1-0.6,0.2c-0.2,0.1-0.6,0.3-0.6,0.3s0.2-0.3,0.9-0.8c0.7-0.5,1.1-0.7,1.7-1.1c0.6-0.4,1-0.6,1.6-1.1
	c0.2-0.2,0.3-0.3,0.6-0.5c0.2-0.1,0.2-0.2,0.4-0.3c0.1-0.1,0.2-0.1,0.4-0.2c-0.2,0-0.3,0-0.5,0c-0.3,0.1-0.4,0.2-0.6,0.3
	c-0.3,0.2-0.4,0.3-0.7,0.5c-0.2,0.2-0.3,0.3-0.6,0.4c-0.2,0.1-0.4,0.2-0.5,0.3c-0.1,0-0.2,0.1-0.4,0c-0.2-0.1-0.1-0.3,0-0.5
	c0.1-0.4,0.2-0.6,0.4-1c0.2-0.4,0.5-0.8,0.7-1c0.2-0.2,0.4-0.4,0.8-0.5c-0.1,0-0.3,0-0.4,0c-0.1,0-0.2,0-0.3,0.1
	c-0.1,0-0.3,0.1-0.3,0.1s-0.3-0.5-0.2-0.9c0.1-0.4,0.3-0.6,0.6-0.8c0.2-0.2,0.4-0.3,0.7-0.5c0.1-0.1,0.3,0,0.3-0.1
	c0-0.1-0.1-0.2-0.2-0.2c-0.1,0-0.6,0.2-0.9,0.4c-0.3,0.2-0.5,0.3-0.7,0.6c-0.2,0.2-0.2,0.3-0.3,0.6c-0.1,0.2-0.1,0.5-0.1,0.5
	s-0.8,0.5-1.2,0.8c-0.3,0.3-0.5,0.4-0.9,0.7c-0.3,0.3-0.4,0.4-0.8,0.7c-0.2,0.1-0.5,0.3-0.5,0.3s0.9-0.2,1.5-0.4
	c0.3-0.1,0.5-0.2,0.8-0.4c0.3-0.1,0.8-0.3,0.8-0.3s-0.2,0.7-0.3,1.1c-0.3,0.6-0.5,0.9-0.9,1.4c-0.4,0.5-0.6,0.7-1.1,1.1
	c-0.7,0.7-1.2,1-2,1.5c-0.7,0.5-1.1,0.8-1.9,1.2c-0.3,0.2-0.4,0.3-0.7,0.4c-0.2,0.1-0.3,0.1-0.4,0.2c0,0,0.6,0.1,0.9,0
	c0.6-0.2,0.9-0.3,1.4-0.5c1.1-0.4,2-1,2.6-1.3c0.6-0.3,1.4-0.6,1.4-0.6s-0.5,0.7-0.7,1.2c-0.3,0.5-0.4,0.8-0.7,1.4
	c-0.3,0.5-0.5,0.8-1,1.2c-0.2,0.2-0.4,0.3-0.6,0.5c-0.5,0.4-0.8,0.5-1.2,0.9c-0.4,0.4-0.7,1-0.8,1.1c-0.1,0.2-0.3,0.4-0.3,0.4
	s-0.9,0.5-1.5,0.9c-0.6,0.4-1,0.5-1.5,1c-0.4,0.4-0.6,0.6-0.9,1.1c-0.2,0.3-0.4,0.6-0.6,0.8c-0.1,0.2-0.3,0.4-0.3,0.4
	s-0.4-0.8-0.5-1.3c-0.3-1.1-0.2-1.9,0.1-3c0.2-0.8,0.4-1.4,0.8-1.9c0.4-0.5,0.9-1,1.6-1.6c0.1-0.1,0.2-0.1,0.3-0.2l0.5-0.3
	c-0.4,0.1-0.7,0.2-1.1,0.4c-0.3,0.2-0.4,0.3-0.6,0.5c-0.1,0.1-0.3,0.2-0.3,0.2s-0.3-0.5-0.2-1c0.2-0.5,0.8-1.4,1.5-2.3
	c0.5-0.7,0.8-1,1.4-1.7c0.3-0.4,0.4-0.5,0.7-0.9c0.1-0.2,0.3-0.4,0.3-0.4c0.1-0.1,0.2-0.3,0.2-0.3s-0.1,0-0.4,0.2
	C26.9,29.9,26.7,29.9,26.7,29.9L26.7,29.9z M47.1,57.7c0,0-0.3-0.6-0.5-0.9c-0.2-0.3-0.3-0.5-0.4-0.9c-0.1-0.4,0-0.9,0-0.9
	s-0.3,1-0.2,1.4c0.1,0.4,0.1,0.5,0.3,0.7c0.1,0.2,0.2,0.3,0.4,0.4C46.9,57.7,47.1,57.7,47.1,57.7L47.1,57.7z M45.4,57.6
	c0,0-0.6,0-0.8-0.7c-0.2-0.7-0.2-0.8-0.3-1.2c-0.1-0.4,0-0.9,0-1.1c0-0.1,0.2-0.8,0.2-0.8s-0.2,0.6-0.3,0.8c0,0.3-0.2,0.6-0.2,1
	c0,0.4,0,0.8,0.1,1.1c0.1,0.4,0.3,0.7,0.4,0.8c0.1,0.1,0.3,0.2,0.4,0.2c0.2,0,0.5,0,0.5,0L45.4,57.6L45.4,57.6z M37.4,51.5
	c0.2-0.2,0.3-0.2,0.4-0.3c0.1-0.1,0.3-0.1,0.3-0.1s0.2-0.9,0.5-1.3c0.2-0.2,0.3-0.3,0.5-0.5c0.1-0.1,0.2-0.1,0.4-0.2
	c0.2-0.1,0.3-0.1,0.5,0c-0.2,0.2-0.3,0.2-0.5,0.4c-0.2,0.2-0.3,0.3-0.5,0.6c-0.3,0.6-0.3,1-0.2,1.6c0,0.6,0.1,0.8,0.2,1.3
	c0,0.2,0.1,0.6,0.1,0.6s-0.1,0.3-0.1,0.5C39,54.4,39,54.3,39,54.4c-0.2,0.2-0.3,0.4-0.4,0.5c-0.1,0.2-0.1,0.4-0.2,0.6
	c-0.1,0.2-0.2,0.4-0.4,0.5c-0.1,0.1-0.3,0.3-0.3,0.2c0-0.1,0-0.4,0-0.4s0.1,0.1,0.3-0.2c0.2-0.3,0.4-0.8,0.6-1.4c0-0.1,0-0.3,0-0.3
	s-0.1-0.6-0.2-1c0-0.4,0-0.9,0-1c0-0.1,0-0.4,0-0.4s-0.3,0-0.5,0.1c-0.4,0.2-0.5,0.6-0.6,0.8c-0.1,0.2-0.3,0.6-0.4,1
	C36.7,52.7,36.9,52,37.4,51.5L37.4,51.5z M36.2,53.4c0.4-0.3,0.4-0.9,0.4-1.1c0-0.2,0-0.3,0-0.5c0-0.5-0.1-0.8-0.1-1.2
	c0-0.4,0.2-1,0.3-1.3c0.1-0.3,0.4-1,0.5-1.2c0.1-0.2,0.2-0.4,0.4-0.7c0.2-0.4,0.6-0.8,0.7-0.9c0.1-0.1,0.1-0.2,0.2-0.3
	c-0.3,0.1-0.6,0.2-0.8,0.4c-0.2,0.2-0.5,0.6-0.8,1c-0.3,0.4-0.5,0.6-0.7,1.1c-0.2,0.5-0.3,0.9-0.4,1.5c-0.1,0.7,0.3,1.1,0.3,1.9
	c0,0.4-0.1,0.7-0.1,1c0,0.3-0.2,0.6-0.2,0.6S36.1,53.5,36.2,53.4L36.2,53.4z M23,48.8c0.1-0.2,0.4-0.3,0.4-0.3s-0.3,0-0.4,0
	c-0.2,0-0.3,0.1-0.4,0.2c-0.1,0.1-0.1,0.2-0.1,0.4c0,0.1,0,0.2,0.1,0.4c0.1,0.1,0.1,0.2,0.2,0.2c0.1,0,0.1,0.1,0.1,0.1
	c0.1,0,0.1,0,0.1,0c0.1,0,0.1,0,0.1-0.1c0,0,0-0.1,0-0.1c0-0.1-0.2-0.1-0.3-0.2C22.9,49.2,22.9,49,23,48.8L23,48.8z M25.3,49.3
	c0-0.8,0.1-1.3,0.4-2.1c0.1-0.4,0.3-0.6,0.5-0.9c0.2-0.3,0.3-0.4,0.4-0.7c0.1-0.2,0.2-0.3,0.2-0.5c0.1-0.3,0.1-0.4,0.2-0.7
	c0.1-0.3,0.2-0.5,0.4-0.7c-0.7,0.7-1,1.1-1.5,2c-0.2,0.3-0.3,0.4-0.4,0.7c-0.1,0.2-0.1,0.4-0.2,0.7c-0.1,0.5-0.1,0.8-0.1,1.3
	c0,0.3,0,0.5,0,0.7C25.3,49.2,25.3,49.2,25.3,49.3L25.3,49.3z M31.9,46.6c0,0,0.2-0.7,0.6-1.1c0.3-0.3,0.5-0.3,0.9-0.5
	c0.4-0.1,0.6-0.1,0.9-0.1c0.1-0.3,0.2-0.4,0.3-0.7c0.3-0.6,0.5-1,1-1.5c0.3-0.3,0.5-0.5,0.8-0.7c0.3-0.2,0.7-0.5,0.7-0.5l0.1-0.1
	c-0.3,0-0.5,0.1-0.7,0.2c-0.6,0.2-0.9,0.4-1.4,0.8c-0.4,0.3-0.7,0.5-1,1c-0.2,0.3-0.3,0.5-0.4,0.8c0,0.1-0.1,0.3-0.1,0.3
	S33,44.8,32.6,45c-0.2,0.2-0.4,0.2-0.6,0.5c-0.1,0.2-0.2,0.2-0.2,0.4c0,0.1,0,0.2,0,0.3C31.8,46.4,31.9,46.6,31.9,46.6L31.9,46.6z
	 M29.7,48.2c0,0-0.2-0.6-0.2-1c0-0.7,0-1.2,0.5-1.7c0.2-0.2,0.3-0.2,0.5-0.3c0.3-0.7,0.6-1.4,0.8-1.8c0.3-0.4,1-1.6,1.4-2
	c0.4-0.4,1-0.9,1.3-1.1c0.3-0.2,0.6-0.5,0.7-0.6c0.1-0.2,0.3-0.5,0.3-0.5s-0.2,0.2-0.4,0.3c-0.3,0.2-0.5,0.3-0.8,0.5
	c-0.3,0.2-0.4,0.3-0.7,0.5c-0.2,0.1-0.4,0.3-0.6,0.1c-0.2-0.1-0.2-0.3-0.2-0.5c0-0.6,0.1-0.8,0.3-1.3c0.2-0.8,0.6-1.6,0.9-2
	c0.3-0.4,0.7-1,1-1.4c0.3-0.4,0.4-0.7,0.7-1.1c0.2-0.3,0.3-0.4,0.5-0.6c0.2-0.2,0.3-0.3,0.5-0.4c-0.2,0-0.3,0.1-0.6,0.1
	c-0.3,0.2-0.5,0.3-0.7,0.6c-0.4,0.3-0.5,0.6-0.8,1c-0.2,0.3-0.4,0.4-0.7,0.7c-0.3,0.3-0.5,0.4-0.9,0.6c-0.3,0.2-0.5,0.2-0.8,0.4
	c-0.2,0.2-0.4,0.3-0.6,0.5c-0.1,0.1-0.2,0.2-0.3,0.4c-0.1,0.1-0.1,0.2-0.2,0.4c0.2-0.3,0.4-0.4,0.7-0.6c0.2-0.2,0.3-0.2,0.6-0.4
	c0.2-0.1,0.3-0.2,0.5-0.1c0.1,0,0.1,0.1,0.2,0.2c0.1,0.3-0.1,0.5-0.3,0.7c-0.4,0.6-0.7,0.9-0.9,1.5c-0.1,0.4-0.2,0.6-0.2,1.1
	c0,0.2,0,0.3,0,0.6c0,0.4-0.3,0.6-0.4,1c-0.1,0.4-0.3,0.7-0.3,0.9c0,0.2,0,0.4,0,0.4L30.1,45c0,0-0.1,0.1-0.2,0.1
	c-0.2,0.1-0.3,0.2-0.4,0.4c-0.2,0.2-0.3,0.3-0.3,0.6C29,46.4,29,46.6,29,46.9c0,0.5,0.1,1,0.4,1.2C29.5,48.2,29.7,48.2,29.7,48.2
	L29.7,48.2z M23.8,18.9c0,0-0.1,0.1-0.2,0.2c0,0.1,0.4,0.1,0.7,0.2c0.3,0,0.5,0.1,0.8,0c0.3-0.1,0.4-0.3,0.6-0.5
	c0.1-0.1,0.2-0.4,0.2-0.4s0.7,0.2,1.2,0.2c0.4,0,1-0.3,1.3-0.4c0.2-0.1,0.3-0.1,0.4-0.2c0.1-0.1,0.1-0.1,0-0.2
	c-0.1-0.1-0.1-0.1-0.3,0c-0.2,0.1-0.2,0.1-0.4,0.2c-0.3,0.1-0.5,0.1-0.9,0.1c-0.4,0-0.6,0-0.9-0.1c-0.2,0-0.3,0-0.5-0.1
	c-0.1-0.1-0.2-0.1-0.4-0.1c-0.1,0-0.3,0-0.3,0.1c0,0.1-0.1,0.2-0.1,0.4c-0.1,0.2-0.2,0.4-0.3,0.6c-0.1,0.1-0.2,0.2-0.4,0.2
	C24,18.9,23.8,18.9,23.8,18.9L23.8,18.9z M29.4,15.6c0,0-0.2,0-0.3,0.1c-0.1,0.1-0.2,0.2-0.2,0.3c-0.1,0.1-0.1,0.3-0.1,0.5
	c0,0.2,0.1,0.3,0.2,0.5c0.1,0.2,0.2,0.3,0.3,0.3c0.1,0.1,0.3,0,0.4,0c0.1,0,0.2,0,0.2,0.1c0.1,0.1,0,0.2,0,0.3
	c0,0.4,0.1,0.6,0.4,0.8c0.2,0.1,0.3,0.2,0.5,0.3c0.2,0.1,0.4,0.1,0.6,0.1c0.3-0.1,0.4-0.2,0.6-0.4c0.2-0.2,0.2-0.6,0.3-0.7
	c0.1,0,0.3,0,0.5-0.2c0.1-0.1,0.1-0.3,0.1-0.4c0-0.1,0-0.2,0-0.2s-0.2-0.1-0.3-0.1c-0.1,0-0.1,0-0.2,0c-0.1,0-0.2,0-0.2,0
	s-0.2-0.2-0.4-0.3c-0.1-0.1-0.2-0.1-0.4-0.1c-0.2,0-0.3-0.1-0.6-0.1c-0.3,0-0.7,0.1-0.9,0.1c-0.1,0-0.2,0-0.3,0
	c-0.1-0.1-0.2-0.1-0.2-0.2c-0.1-0.1-0.1-0.2-0.1-0.3c0-0.1,0-0.2,0-0.2C29.4,15.7,29.4,15.7,29.4,15.6
	C29.4,15.6,29.4,15.6,29.4,15.6L29.4,15.6z M41,20c0.1-0.1,0.4-0.2,0.5-0.2c0.1,0,0.3,0.1,0.3,0.1s0.1,0.3,0.3,0.4
	c0.2,0.1,0.5,0.2,0.9,0.4c0.4,0.1,1,0.2,1.4,0.2c0.4,0,1.2,0.1,1.5,0.1c0.3,0,0.6,0.1,0.6,0.1l0,0.1c0,0-0.6,0-1.2,0
	c-0.6,0-1.6,0.1-1.9,0.1c-0.3,0.1-0.4,0.1-0.6,0.2c-0.2,0.1-0.3,0.1-0.4,0.2c-0.1,0.1-0.2,0.2-0.2,0.2s-0.5-0.5-0.7-0.7
	c-0.2-0.2-0.4-0.4-0.6-0.4c-0.2,0-0.4,0-0.5-0.1C40.5,20.7,40.9,20.1,41,20L41,20z M20.6,19c0.1-0.1,0.2-0.2,0.3-0.3
	c0.1-0.1,0.4-0.1,0.6-0.2c0.2-0.1,0.4-0.1,0.4-0.1s0.1,0.2,0.3,0.3c0.2,0.1,0.3,0.1,0.4,0.2c0.2,0,0.4,0,0.6-0.1
	c0.1-0.1,0.2-0.2,0.2-0.4c0-0.2,0-0.3-0.2-0.5c-0.2-0.3-0.6-0.3-0.9-0.3c-0.4,0.1-0.6,0.1-0.9,0.3c-0.1,0.1-0.3,0.1-0.4,0.2
	c-0.1,0-0.1,0-0.2-0.1c0-0.1-0.1-0.2-0.1-0.3c0.1-0.1,0.2-0.3,0.4-0.3c0.2,0,0.4-0.1,0.6-0.1c0.2,0,0.4-0.1,0.5-0.1
	c0.1,0,0.9-0.3,1.2-0.4c0.3-0.1,1.4-0.2,1.8-0.3c0.4-0.1,0.8-0.2,1.3-0.2c0.2,0,0.3,0,0.5,0c0.1,0,0.2,0,0.2,0s0.3-0.1,0.5-0.3
	c0.2-0.2,0.3-0.3,0.4-0.4c0.2-0.1,1.4-0.8,1.5-0.9c0.2-0.1,0.5-0.5,0.6-0.6c0.2-0.1,0.3-0.3,0.4-0.3c0,0,0.5,0.1,0.7,0.2
	c0.2,0.1,0.5,0.2,0.5,0.3c0,0.1,0.1,0.1,0,0.2c0,0.1-0.1,0.1-0.2,0.2c-0.1,0.1-0.1,0.2-0.2,0.3c-0.1,0.1-0.1,0.2-0.2,0.3
	c-0.1,0.1-0.3,0.1-0.3,0.2c-0.1,0.1-0.1,0.1-0.1,0.2c0,0.1,0,0.2,0.1,0.2c0.1,0,0.2-0.1,0.3-0.1c0.2-0.1,0.3-0.1,0.4-0.1
	c0.2,0,0.1,0,0.3,0c0.2,0,0.4,0.1,0.5,0.1c0.1,0,0.3,0.1,0.3,0.2c0.1,0.1,0.3,0.2,0.4,0.3c0.1,0.1,0.5,0.3,0.6,0.4
	c0.1,0,0.1,0.1,0.2,0.1c0.1,0.1,0.1,0.2,0.1,0.3c0,0.1-0.1,0.3-0.2,0.4c-0.1,0.2-0.2,0.2-0.1,0.3c0.1,0.2,0.2,0.3,0.3,0.4
	c0.1,0.1,0.3,0.2,0.3,0.2s-0.5,0.4-0.5,0.5c-0.1,0.2-0.3,0.5-0.3,0.7c0,0.2,0,0.5,0,0.7c0,0.2,0.2,0.4,0.5,0.7
	c0.2,0.2,0.4,0.4,0.4,0.5c0,0.1,0,0.3,0,0.4c0,0.1,0,0.3,0,0.4c0,0.1,0.2,0.2,0.1,0.3c0,0.1-0.2,0.3-0.2,0.4c0,0-0.2,0.1-0.2,0.1
	c-0.1,0-0.1,0.1-0.1,0.2c0,0-0.3,0.1-0.6,0.1c-0.2,0.1-0.5,0.1-0.8,0.1c-0.3,0-0.8,0-1-0.1c-0.2-0.1-0.5-0.3-0.7-0.4
	c-0.2-0.1-0.2-0.2-0.5-0.1c-0.3,0-0.1,0-0.5,0.1c-0.4,0-1,0-1.6-0.2c-0.6-0.2-0.8-0.3-1.2-0.5C27,22,26.9,22,26.8,21.9
	c-0.1-0.1-0.1-0.2-0.1-0.2s-0.3,0-0.3,0.1c0,0.1-0.1,0.2,0,0.3c0.1,0.1,0.3,0.3,0.4,0.4c0.1,0.1,0.3,0.2,0.3,0.4
	c0,0.2-0.1,1.1-0.2,1.3c-0.1,0.2-0.4,0.8-0.6,1c-0.2,0.2-0.3,0.2-0.4,0.2c-0.1,0.1-0.4,0.1-0.4,0.1s0.1-0.4,0.1-0.6
	c0-0.2,0-1.1,0-1.3c0-0.2,0.1-0.5,0.1-0.5c0,0-0.1-0.1-0.1-0.1c-0.1,0-0.2,0.1-0.3,0.3c-0.1,0.2-0.1,0.6-0.2,1
	c-0.1,0.4-0.3,0.9-0.5,1.1c-0.2,0.3-0.7,0.6-1,0.7c-0.3,0.1-0.7,0.3-0.8,0.5c-0.1,0.1-0.3,0.3-0.5,0.4c-0.2,0.1-0.4,0.4-0.4,0.4
	s0.1-0.7,0.3-1c0.2-0.3,0.5-0.6,0.7-0.8c0.2-0.1,0.5-0.5,0.6-0.7c0.1-0.2,0.2-0.9,0.1-1.3c-0.1-0.3-0.2-0.7-0.4-0.8
	c-0.2-0.1-0.3-0.1-0.6-0.4c-0.3-0.3-0.5-0.5-0.6-0.6c-0.1-0.1-0.2-0.2-0.3-0.2c-0.1,0-0.4,0-0.4-0.1c-0.1-0.1-0.1-0.1-0.1-0.2
	c0-0.1,0-0.1,0.1-0.2c0.1,0,0.4-0.1,0.6-0.1c0.2,0,0.3,0,0.6,0c0.2,0,0.3,0,0.5,0.2c0.1,0.1,0.2,0.2,0.3,0.2c0.1,0,0.3,0,0.4,0
	c0.1-0.1,0.3-0.2,0.4-0.4c0.1-0.2,0.1-0.3,0-0.5c-0.1-0.2-0.3-0.2-0.6-0.3c-0.3-0.1-0.6-0.1-0.9-0.1c-0.3,0-0.5,0-0.7,0.1
	c-0.4,0.1-0.7,0.2-1,0.3c-0.2,0.1-0.5,0.3-0.6,0.3c-0.1,0-0.3,0-0.3-0.1c0-0.1,0-0.5,0.1-0.9C20.3,19.6,20.3,19.3,20.6,19L20.6,19z
	 M23,76.9c0,0,0.4-0.1,0.5-0.2c0.1-0.1,0.2-0.1,0.1-0.2c-0.1-0.1-0.1-0.2-0.1-0.3c0-0.1,0.6-2.7,0.8-3.7c0.1-1,0.7-3.2,0.7-3.7
	c0-0.5,0.1-0.8,0-0.9c0-0.1,0-0.2-0.1-0.3c-0.1-0.1-0.4-0.2-0.4-0.3c-0.1-0.1-0.1-0.1-0.1-0.2c0-0.1,0.1-0.2,0.1-0.2s-0.2,0-0.2-0.2
	c0-0.2,0-0.4,0-0.5C24.2,66,24,65.6,24,65.5c0-0.1,0.3-0.4,0.4-0.5c0.2,0,0.2,0.1,0.4,0c0.2-0.1,0.5-0.3,0.6-0.4
	c0.1-0.1,0.3-0.2,0.2-0.3c0-0.1,0-0.2-0.1-0.2c-0.1,0-0.3,0.2-0.5,0.3c-0.2,0.1-0.4,0.2-0.8,0.2c-0.4,0-0.8-0.1-0.8-0.2
	c-0.1-0.1-0.1-0.2-0.1-0.3c0-0.1,0-0.1,0-0.1s0.4-0.2,0.5-0.2c0.1-0.1,0.4-0.3,0.5-0.3c0.1,0,0.4-0.1,0.4-0.1s0.1-0.1,0.1-0.2
	c0-0.1-0.1-0.3-0.1-0.5c0-0.4,0.2-0.7,0.3-0.8c0.1-0.1,0.4-0.6,0.5-0.6c0.1-0.1,0.2-0.1,0.2-0.1s0,0.1,0,0.2c0,0.1,0.1,0.2,0.1,0.2
	v0.1c0,0,0.7,0.3,0.7,0.5c0.1,0.1,0.3,0.6,0.3,0.7c0,0.1,0,0.1,0,0.1s0.1-0.1,0.2-0.1c0.1,0,0.3,0.2,0.3,0.2s0.1-0.6-0.2-1
	c-0.3-0.4-0.8-0.9-0.7-1.5c0.1-0.6,0.4-2.7,0.5-3.1c0.1-0.4,0.1-0.9,0.2-1c0.1-0.1,0-0.1,0.1-0.1c0.1,0,1,0.4,1.1,0.5
	c0.1,0.1,0.4,0.2,0.5,0.3c0,0.1,0.2,0.5,0.1,0.8c-0.1,0.3-0.3,1.9-0.3,2.1s0,0.5,0,0.7c0,0.2,0,0.6,0,0.6s0.6-1.5,0.8-1.9
	c0.2-0.4,0.6-1.4,0.6-1.5c0-0.1,0-0.2,0-0.2s0.9,0.6,1,0.6c0,0.1,0.1,0.4,0,0.5c-0.1,0.1-0.7,1-0.7,1.2c0,0.2-0.6,1.6-0.6,1.8
	c-0.1,0.3-0.2,0.5-0.3,0.7c-0.1,0.2-0.2,0.3-0.2,0.3s-0.2-0.2-0.3-0.3c-0.1-0.1-0.3-0.4-0.3-0.4c0,0-0.2-0.2-0.2-0.2
	s-0.1,0.2-0.1,0.3c0,0.1,0,0.3,0.3,0.8c0.2,0.6,0.4,0.9,0.4,1c0,0.2,0.1,0.2-0.1,0.3c-0.1,0.1-0.1,0.2-0.1,0.3c0,0.2,0,0.7-0.3,1.1
	c-0.2,0.3-1,1.2-1.1,1.3c-0.1,0.1-0.2,0.3-0.2,0.4c0,0.1,0.1,0.1,0.1,0.2c0,0.1,0.1,0.1,0.1,0.1s-0.6,1.3-0.7,1.7
	c-0.1,0.4-0.6,2-0.6,2.4c0,0.4-0.1,1.5-0.1,1.7c0,0.2-0.3,1.5-0.3,1.7c0,0.2,0,0.4,0.1,0.5c0.1,0.2,0.1,0.1,0.3,0.2
	c0.2,0.1,0.6,0.2,0.6,0.3c0.1,0.1,0.3,0.3,0.3,0.4c0,0.1,0.1,0.8,0,0.9c-0.1,0.2-0.2,0.4-0.3,0.5c-0.1,0.1-0.3,0.3-0.5,0.3
	c-0.2,0-0.3,0-0.4-0.1c-0.1-0.2-0.2-0.2-0.2-0.4c0-0.2,0-0.3,0-0.3c0,0,0-0.1,0.1,0c0.1,0.1,0.2,0.1,0.3,0.1
	c0.1-0.1,0.2-0.1,0.2-0.2c0-0.1,0-0.1-0.1-0.2c-0.1,0-0.1,0.1-0.2-0.1c0-0.2,0-0.2,0-0.3c-0.1-0.1-0.2-0.2-0.3-0.2s-0.5,0.1-0.7,0.3
	c-0.1,0.2-0.3,0.3-0.3,0.5c0,0.2,0,0.5-0.1,0.7c-0.1,0.2-1.1,0.7-1.3,0.6c-0.2,0-0.6-0.2-0.9-0.5c-0.3-0.3-0.4-0.5-0.4-0.7
	c0-0.1,0.2-0.4,0.3-0.5C22.7,77,23,76.9,23,76.9L23,76.9z M68.6,61c0,0,1.6-1.7,2-2.4c0.4-0.7,2.3-5.4,2.6-6.3
	c0.3-0.9,0.5-1.2,0.8-1.5c0.3-0.4,1.5-2.8,1.6-3.5c0.1-0.7-0.1-1.6-0.1-1.8c-0.1-0.2-0.1-0.3-0.1-0.3s0.4,0.4,0.4,0.7
	c0.1,0.4,0.3,3.2,0.3,3.9c-0.1,0.7-0.3,1.6-0.2,2.1c0.1,0.5,0.3,1.7,0.4,2.2c0.1,0.5,0.1,2.3,0.1,2.7c0,0.4,0,0.6,0,0.6
	s-0.1,0.1-0.4,0c-0.3-0.1-0.5-0.4-0.5-0.4s0,0.4,0.1,0.6c0.1,0.3,0.3,0.5,0.7,0.7c0.4,0.2,0.4,0.1,0.6,0.2c0.2,0.1,0.7,1,1.4,1.8
	c0.7,0.8,0.7,1,1.1,1.2c0.4,0.2,0.5,0.3,0.8,0.4c0.3,0.2,1.5,1.1,1.8,1.3c0.3,0.2,0.6,0.4,0.7,0.7c0.1,0.4,0.1,2.6,0.2,3.4
	c0,0.8,0.3,3.8,0.3,4.3c0,0.6-0.1,0.8,0.1,1.2c0.2,0.4,0.6,0.7,0.8,0.9c0.3,0.2,0.5,0.1,0.8,0.3c0.3,0.2,0.9,1.2,0.9,1.5
	c0,0.3,0.1,0.4-0.1,0.7c-0.2,0.3-0.2,0.5-0.5,0.4c-0.3-0.1-0.5-0.3-0.4-0.4c0.1-0.2,0.2-0.3,0.2-0.4c0-0.1,0-0.3-0.3-0.4
	c-0.2,0-0.5,0-0.8,0.4c-0.3,0.4-0.5,1.2-0.6,1.4c-0.2,0.2-1.1,0.7-1.4,0.8c-0.4,0.2-0.7,0.3-0.9,0.2c-0.2-0.1-0.3-0.3-0.3-0.6
	c0.1-0.3,0.3-0.6,0.6-0.8c0.3-0.2,0.6-0.4,0.6-0.7c0-0.3-0.4-4.4-0.4-4.9c-0.1-0.5-0.4-3.6-0.7-4c-0.3-0.4-0.6-1.3-1.1-1.5
	c-0.4-0.2-0.8-0.3-1-0.4c-0.2-0.1-0.2-0.4-0.1-0.6c0.2-0.2,0.4-0.3,0.4-0.5c0-0.2-0.1-0.3-0.2-0.3c-0.1,0-0.5,0.4-0.7,0.6
	c-0.2,0.3-0.3,0.5-0.6,0.7c-0.3,0.2-0.4,0.3-0.7,0.3c-0.3,0-0.5,0-0.5,0s0-1,0.2-1.3c0.2-0.3,0.3-0.6,0.5-0.8
	c0.2-0.2,0.4-0.5,0.4-0.5s0-0.1-0.2-0.1c-0.2,0.1-0.8,0.4-1,0.7c-0.2,0.3-0.3,0.7-0.4,1c-0.1,0.2-0.5,1.1-0.5,1.1s-2-2.4-2.2-2.8
	c-0.2-0.4-0.5-1.2-0.5-1.4c0-0.2,0-0.4,0-0.4s1.2,0.2,1.4,0.3c0.3,0.1,0.7,0.2,0.7,0.2s-0.5-0.6-0.6-0.8c-0.2-0.2-0.4-0.6-0.5-0.8
	c-0.1-0.2-0.4-0.5-0.4-0.5s0,0.4,0,0.6c0,0.2,0,0.4,0,0.4s-0.2,0.1-0.4-0.1c-0.2-0.2-0.8-0.7-1-0.8c-0.1-0.1-0.4-0.4-0.7-0.4h-0.6
	c-0.2,0-0.2,0.1-0.2,0.1s0.5,0.3,0.7,0.6c0.3,0.3,0.9,0.5,0.9,0.7c0,0.2,0.1,0.7,0.1,1c0,0.3-0.1,0.7-0.1,0.7s-1-0.3-1.3-0.3
	c-0.3,0-1.5-0.3-1.8-0.4c-0.3-0.1-0.7-0.1-0.7-0.3c0-0.2,0.3-0.5,0.3-0.5L68.6,61L68.6,61z"/>
<path id="path3001" fill-rule="evenodd" fill="#EC2227" d="M43.3,17c0,0,0.1-0.4-0.2-0.6c-0.3-0.2-1.6-0.8-1.8-0.9
	c-0.2-0.1-0.4-0.2-0.5-0.3c-0.2-0.1-0.4-0.2-0.5-0.2c-0.1,0-0.4,0.1-0.5,0.1c-0.1,0-0.1,0-0.1,0.2c0,0.1,0,0.3,0,0.4
	c0,0.1-0.1,0.2,0,0.2c0.1,0.1,0.5,0.2,0.9,0.4c0.3,0.2,0.6,0.4,0.7,0.5c0.1,0.2,0.2,0.2,0.3,0.4c0.1,0.2,0,0.3,0.1,0.4
	c0.1,0.1,0.1,0.1,0.4,0.2c0.3,0,0.5,0,0.7-0.1c0.2-0.1,0.4-0.2,0.4-0.3C43.2,17.2,43.3,17,43.3,17L43.3,17z M40.1,14.2
	c0,0,0.8-0.3,1.5-0.4c0.7,0,1.6,0,2,0.2c0.3,0.1,1.2,0.5,1.4,0.8c0.2,0.3,0.6,0.6,0.7,0.7c0.1,0.1,0.4,0.4,0.4,0.5
	c0,0.1,0.1,0.2,0,0.2c-0.1,0-0.4,0.1-0.6,0.1c-0.2,0-0.4,0.1-0.6,0.1c-0.2,0.1-0.4,0.1-0.4,0.1s-1.4-0.9-1.9-1.1
	c-0.5-0.3-0.9-0.6-1.3-0.7c-0.3-0.1-0.5-0.2-0.7-0.3C40.5,14.4,40.1,14.2,40.1,14.2L40.1,14.2z M39.8,12.9c-0.5-0.2-0.8-0.3-1.3-0.6
	c-0.5-0.3-1.1-0.8-1.2-0.9c-0.1-0.1,0.2-0.2,0.2-0.2l1.1-0.5c0.5-0.2,0.9,0.1,1.3,0.3c0.5,0.2,0.7,0.3,1.1,0.6
	c0.2,0.1,0.5,0.3,0.6,0.3c0,0-0.5,0.3-0.8,0.6c-0.2,0.2-0.4,0.3-0.6,0.4c-0.1,0.1-0.2,0.1-0.3,0.1C39.8,12.9,39.8,13,39.8,12.9z
	 M39.6,10.2c0,0,0.4,0.1,0.7,0.1c0.4,0.1,0.6,0.2,1,0.4c0.3,0.1,0.4,0.2,0.7,0.3c0.2,0.1,0.6,0.4,0.6,0.4s0.6-0.3,1-0.5
	c0.4-0.2,1.1-0.5,1.1-0.5S44,10.1,43.7,10c-0.5-0.2-0.7-0.3-1.2-0.5c-0.3-0.1-0.4-0.2-0.6-0.2c-0.2,0-0.3,0.1-0.5,0.1
	c-0.4,0.1-0.7,0.3-1.1,0.5C40,10,39.6,10.2,39.6,10.2L39.6,10.2z M42.8,9c0,0,0.9,0.2,1.4,0.4c0.5,0.2,0.8,0.2,1.2,0.5
	c0.1,0,0.2,0.1,0.2,0.1s0.6-0.2,1-0.3c0.3-0.1,0.8-0.2,0.8-0.2s-0.3-0.2-0.6-0.4c-0.5-0.3-0.8-0.4-1.3-0.6c-0.2-0.1-0.4-0.1-0.4-0.1
	S44.4,8.6,44,8.7c-0.3,0.1-0.4,0.1-0.7,0.1C43.1,8.9,42.8,9,42.8,9L42.8,9z M46.4,8.2c0,0,1.7-0.2,1.9-0.2c0.2,0,0.5-0.1,0.5-0.1
	s0.2,0.1,0.3,0.2c0.2,0.2,0.4,0.3,0.6,0.4c0.2,0.1,0.6,0.5,0.6,0.5s-0.7,0.1-1,0.2c-0.3,0-1,0.1-1,0.1S47.9,9,47.7,8.8
	C47.2,8.5,46.4,8.2,46.4,8.2L46.4,8.2z M50.5,8.4l-0.7-0.5c0,0,0.8,0,1.1-0.1c0.2,0,0.8-0.1,0.8-0.1s0.2,0.2,0.4,0.3
	c0.2,0.2,1.1,0.8,1.1,0.8h-0.6c-0.3,0-0.5,0-0.7,0c-0.2,0-0.5,0-0.5,0S51,8.8,50.9,8.7C50.8,8.6,50.5,8.4,50.5,8.4L50.5,8.4z
	 M52.4,7.6c0,0,0.7,0.4,1.1,0.7C53.7,8.6,53.9,9,53.9,9L54,9.1c0,0,0.8,0,1.1,0c0.3,0,0.6,0,0.7,0c0.1,0,0.2,0,0.2,0
	s-0.5-0.6-0.7-0.8c-0.2-0.2-0.4-0.4-0.7-0.7c-0.4,0-0.7,0-1,0C53.3,7.6,52.4,7.6,52.4,7.6L52.4,7.6z M55.7,7.8c0,0,0.4,0.4,0.5,0.5
	c0.1,0.2,0.3,0.4,0.3,0.5c0.1,0.1,0.3,0.4,0.3,0.4s0.9,0.2,1.2,0.3c0.2,0,0.7,0.1,0.7,0.1S58.6,9,58.5,8.8c-0.1-0.2-0.2-0.4-0.4-0.5
	C58,8.1,57.8,8,57.8,8s-0.3-0.1-0.5-0.1c-0.3,0-0.4,0-0.7,0C56.3,7.8,55.7,7.8,55.7,7.8z M59.2,8.6c0,0,0.2,0.4,0.3,0.5
	c0.1,0.2,0.2,0.6,0.2,0.6S61,10,61.2,10c0.2,0,0.7,0.2,0.7,0.2l0.1,0c0,0-0.1-0.6-0.3-1c-0.1-0.2-0.2-0.4-0.2-0.4s-0.4-0.1-0.9-0.2
	c-0.5-0.1-0.8-0.2-0.9-0.2c-0.2,0-0.8-0.2-0.8-0.2L59.2,8.6L59.2,8.6z M62.6,9c0,0,0.2,0.4,0.2,0.7c0,0.2,0,0.5,0,0.5
	s1.2,0.4,1.4,0.4c0.1,0,0.3,0.1,0.3,0.1s0-0.5,0-0.6c0-0.3-0.1-0.6-0.1-0.6s-0.4-0.1-0.7-0.2C63.4,9.3,62.6,9,62.6,9z M65,9.8
	c0,0,0.2,0.5,0.1,0.8c0,0.1-0.1,0.3-0.1,0.3s0.4,0.1,0.5,0.2c0.1,0,0.6,0.2,0.6,0.2l0.2,0.1c0,0,0.1-0.1,0.1-0.3c0-0.2,0-0.3,0-0.5
	c0-0.1,0-0.2,0-0.2l-1-0.3L65,9.8L65,9.8z M67.2,10.6c0,0,0,0.2,0,0.4c0,0.1,0,0.1,0,0.2c0,0.1-0.1,0.4-0.1,0.4s0.8,0.2,1,0.3
	c0.2,0,0.4,0.1,0.4,0.1s0-0.2,0-0.3c0-0.2-0.1-0.6-0.1-0.6s-0.1,0-0.4-0.1c-0.3-0.1-0.5-0.1-0.5-0.1L67.2,10.6L67.2,10.6z
	 M69.2,11.1c0,0,0.1,0.3,0.1,0.5c0,0.2-0.1,0.4-0.1,0.4s0.7,0.2,0.8,0.2c0.1,0,0.6,0.1,0.6,0.1s0-0.4,0-0.5c0-0.1,0-0.5,0-0.5
	s-0.5-0.1-0.7-0.1C69.7,11.2,69.2,11.1,69.2,11.1L69.2,11.1z M71.3,11.7c0,0,0,0.3,0,0.4c0,0.1,0,0.3,0,0.3c0,0,0,0.1,0,0.1
	s0.8,0.2,0.9,0.2c0.2,0,0.4,0,0.5,0c0,0,0.1-0.1,0.1-0.2c0-0.1,0-0.2,0-0.4c0-0.1,0-0.3,0-0.3s-0.5-0.1-0.7-0.1
	c-0.2,0-0.8-0.2-0.8-0.2V11.7L71.3,11.7z M73.3,11.8c0,0,0.1,0.4,0.1,0.4v0.3l0,0.1c0,0,0.4,0,0.7,0c0.3,0,0.5,0,0.5-0.1
	c0.1,0,0.2,0,0.2,0s0-0.6-0.1-0.6c0-0.1-0.5,0-0.6,0C73.9,11.9,73.3,11.8,73.3,11.8L73.3,11.8z M75.2,11.9c0,0,0.1,0.2,0.1,0.3
	c0,0.1,0.1,0.3,0.1,0.3l1.1-0.3c0,0,0-0.2,0-0.3c0-0.1-0.1-0.2-0.2-0.2c-0.1,0-0.4,0.1-0.5,0.2C75.6,11.9,75.2,11.9,75.2,11.9
	L75.2,11.9z M76.8,11.4c0,0,0.2,0.1,0.3,0.3c0.1,0.1,0.1,0.3,0.1,0.3l0.5-0.2c0,0,0.5-0.3,0.4-0.4c-0.1-0.1-0.2-0.2-0.3-0.3
	c-0.1,0-0.1-0.1-0.2,0C77.4,11.1,76.8,11.4,76.8,11.4L76.8,11.4z M78.1,10.5l0.3,0.1l0.2,0.1c0,0,0.2-0.2,0.2-0.3
	c0.1-0.1,0.2-0.2,0.2-0.4c0-0.1,0-0.4-0.1-0.5c-0.1,0-0.3-0.1-0.3,0c-0.1,0.1-0.1,0.3-0.2,0.4C78.3,10.2,78.1,10.5,78.1,10.5
	L78.1,10.5z M44.7,13.8c0,0,0.9,0,1.1,0c0.2,0,1,0,1.1,0c0.1,0,0.5,0.1,0.6,0.1c0.1,0,0.3,0,0.3,0s0.1,0.1,0.2,0.3
	c0.1,0.2,0.3,0.4,0.5,0.6c0.1,0.2,0.3,0.4,0.3,0.5c0,0.1,0.1,0.3,0.1,0.4c0,0.1,0.2,0.5,0.2,0.5s-1.4,0-1.6-0.1c-0.2,0-0.5,0-0.5,0
	s-0.3-0.4-0.4-0.5c-0.1-0.1-0.7-0.8-0.9-1c-0.2-0.2-0.6-0.6-0.6-0.6L44.7,13.8L44.7,13.8z M48.6,13.9c0,0,0.6,1,0.6,1.1
	c0.1,0.1,0.3,0.5,0.4,0.6c0.1,0.1,0.2,0.4,0.2,0.4c0,0,0.1,0.2,0.1,0.2l0.1,0.1c0,0,1,0.2,1.1,0.2c0.2,0,0.5,0,0.5,0l0.4,0.1
	c0,0-0.4-1-0.4-1.2c-0.1-0.2-0.3-0.6-0.3-0.6c0-0.1-0.4-0.5-0.4-0.5c0,0-0.1-0.2-0.1-0.2s-1.1-0.2-1.2-0.2c-0.1,0-0.6,0-0.8,0
	C48.7,13.8,48.5,13.8,48.6,13.9L48.6,13.9L48.6,13.9z M51.6,14.2c0,0,0.5,0.9,0.5,1c0,0.2,0.2,0.5,0.3,0.6c0.1,0.1,0.2,0.3,0.2,0.4
	c0,0.1,0.1,0.3,0.1,0.3l0,0.1c0,0,0.9,0.3,1.1,0.3c0.2,0,0.7,0.2,0.8,0.2c0,0,0.4,0.1,0.4,0.1l0.2,0.1c0,0-0.1-0.6-0.2-0.7
	c0-0.1-0.4-0.9-0.5-1c-0.1-0.1-0.3-0.5-0.3-0.6c0,0-0.1-0.2-0.2-0.3c0,0-0.1-0.1-0.1-0.1s-0.9-0.2-1-0.3c-0.1,0-1-0.2-1.1-0.3
	c-0.2,0-0.2,0-0.2,0L51.6,14.2L51.6,14.2z M55,15c0,0,0.9,0.3,1,0.4c0.1,0,0.6,0.3,0.7,0.3c0.1,0,0.5,0.3,0.5,0.3l0.3,0.3
	c0,0,0.2,0.2,0.2,0.3c0,0.1,0.2,0.5,0.2,0.6c0,0.1,0,0.4,0,0.6v0.5l-0.1,0.2c0,0-0.8-0.4-1-0.4c-0.2-0.1-0.5-0.2-0.5-0.2
	c0,0-0.5-0.3-0.5-0.3s-0.1-0.6-0.1-0.8c-0.1-0.2-0.1-0.5-0.2-0.6c-0.1-0.1-0.1-0.3-0.2-0.5c-0.1-0.1-0.3-0.5-0.3-0.5S55,15,55,15
	L55,15z M58.3,16.6c0,0,0.2,0.6,0.2,0.8c0,0.2,0.1,0.5,0.1,0.7c0,0.2,0,0.3,0,0.3c0,0-0.1,0.3-0.1,0.3l0,0.1c0,0,0.9,0.6,1,0.7
	c0.1,0.1,0.5,0.2,0.5,0.2l0.2,0.2l0.1,0.1c0,0,0-0.6,0-0.7c0-0.2,0-0.6,0-0.7c0-0.1,0-0.4,0-0.4c0,0,0-0.3,0-0.3s-1-0.5-1.1-0.7
	c-0.1-0.1-0.5-0.3-0.6-0.4c0,0-0.4-0.2-0.4-0.2l-0.2-0.1L58.3,16.6L58.3,16.6z M61.2,18.2c0,0,0.9,0.4,1,0.5
	c0.1,0.1,0.5,0.4,0.5,0.4c0.1,0.1,0.2,0.3,0.2,0.3c0,0,0.1,0.2,0.1,0.4c0,0.1,0,0.4-0.1,0.5c0,0.1-0.1,0.4-0.1,0.4l-0.1,0.3
	c0,0-1-0.5-1.2-0.6c-0.2-0.1-0.3-0.3-0.3-0.3s0.1-0.9,0.1-1.2c-0.1-0.3-0.1-0.5-0.1-0.5L61.2,18.2L61.2,18.2z M63.6,19.8
	c0,0,0,0.4,0,0.5c0,0.1,0,0.2,0,0.4c0,0.2-0.1,0.5-0.1,0.5l-0.1,0.3c0,0,0.7,0.5,0.8,0.6c0.1,0.1,0.4,0.3,0.4,0.3l0.3,0.2
	c0,0,0.1-0.3,0.1-0.6c0-0.3,0.1-0.5,0.1-0.6c0-0.1,0-0.3,0-0.3c0-0.1-0.3-0.3-0.5-0.5c-0.3-0.2-0.5-0.4-0.6-0.4c0,0-0.4-0.2-0.4-0.2
	l-0.1-0.1L63.6,19.8L63.6,19.8z M65.9,21.2c0,0,0,0.5,0,0.6c0,0.1,0,0.2-0.1,0.4c0,0.1-0.1,0.3-0.1,0.3l-0.1,0.2
	c0,0,0.6,0.3,0.7,0.4c0.1,0.1,0.4,0.2,0.4,0.2l0.3,0.2c0,0,0.2-0.5,0.2-0.7c0-0.2,0-0.5,0-0.5c0,0,0-0.2,0-0.2s-0.2-0.2-0.3-0.4
	c-0.1-0.1-0.4-0.3-0.5-0.3c0,0-0.2-0.1-0.2-0.1l-0.2-0.1L65.9,21.2L65.9,21.2z M67.8,22.4c0,0,0,0.4,0,0.6c0,0.2,0,0.4,0,0.5
	c0,0.1-0.1,0.2-0.1,0.2l-0.1,0.1c0,0,1.1,0.5,1.2,0.5c0.1,0,0.3,0.1,0.3,0.1l0.1,0c0,0,0.1-0.4,0.1-0.5c0-0.1,0-0.3,0-0.4
	c0,0,0-0.3-0.1-0.4c0-0.1-0.1-0.2-0.1-0.2s-0.2-0.2-0.4-0.2c-0.1-0.1-0.5-0.2-0.5-0.2l-0.3-0.2l-0.2-0.1L67.8,22.4L67.8,22.4z
	 M69.9,23.4c0,0,0,0.2,0,0.3c0,0.1,0,0.2,0,0.4c0,0.2,0,0.2,0,0.3c0,0.1-0.1,0.2-0.1,0.2s1.1,0.4,1.1,0.4s0.2,0.1,0.2,0.1
	s0.1-0.1,0.1-0.3c0-0.2,0-0.4,0-0.4c0-0.1,0-0.2,0-0.3c0,0,0-0.2,0-0.2s-0.2-0.1-0.4-0.2c-0.1-0.1-0.6-0.2-0.6-0.2L69.9,23.4
	L69.9,23.4L69.9,23.4z M71.9,24.3c0,0,0,0.2,0,0.3c0,0.1,0,0.2,0,0.3c0,0.1,0,0.3,0,0.3l0,0.1c0,0,1,0.4,1.1,0.4c0.1,0,0.2,0,0.2,0
	s0.1-0.3,0.1-0.5c0-0.1,0-0.4,0-0.4l0-0.2c0,0,0-0.1-0.3-0.1c-0.3-0.1-0.9-0.3-0.9-0.3l-0.2-0.1L71.9,24.3z M73.8,24.8
	c0,0,0,0.2,0,0.4c0,0.2,0,0.4,0,0.4l0,0.1c0,0,0.9,0.1,0.9,0.1c0,0,0.3,0.1,0.3,0.1s0-0.1,0.1-0.3c0-0.2,0-0.5,0-0.5l0-0.1
	c0,0-0.5-0.2-0.6-0.2c-0.1,0-0.3-0.1-0.3-0.1L73.8,24.8z M75.6,25.2c0,0,0,0.1,0,0.2v0.3l0,0.2c0,0,0.3,0,0.5,0
	c0.2,0,0.5-0.1,0.5-0.1s0.1-0.1,0.1-0.3c0-0.2-0.1-0.4-0.1-0.4l-0.1-0.1l-0.5,0L75.6,25.2L75.6,25.2L75.6,25.2z M77.3,25
	c0,0,0.4-0.2,0.5-0.2c0.1,0,0.3,0,0.3,0s0.2,0.1,0.2,0.2c0,0.1,0.1,0.2,0.1,0.3c0,0.1,0,0.2,0,0.2s-0.1,0.1-0.3,0.2
	c-0.2,0-0.6,0.1-0.6,0.1s0-0.1,0-0.3C77.3,25.4,77.3,25,77.3,25L77.3,25z M78.7,24.6c0,0,0.1,0.3,0.1,0.4c0,0,0.1,0.3,0.1,0.3
	s0.2,0,0.3-0.1c0.1,0,0.3-0.1,0.3-0.1c0.1,0,0.2-0.2,0.2-0.2s0.2,0,0.2-0.2c0-0.2-0.1-0.3-0.1-0.3c-0.1,0-0.1,0-0.3,0
	c-0.2,0-0.2,0-0.3,0.1c-0.1,0-0.3,0.1-0.3,0.1L78.7,24.6L78.7,24.6z M80.2,23.5l0.3-0.4c0,0,0.2-0.1,0.3,0c0.1,0,0.1,0.1,0.1,0.2
	c0,0.1,0.1,0,0,0.2c-0.1,0.2-0.2,0.3-0.2,0.3L80.5,24c0,0,0-0.1-0.2-0.1c-0.1-0.1-0.3-0.2-0.3-0.2L80.2,23.5L80.2,23.5z M18.2,80.8
	c0,0,0.6-0.5,1-0.7c0.4-0.2,1.1-0.6,1.3-0.7s0.6-0.3,0.6-0.4c0.1-0.1,0.1-0.1,0.1-0.1l0.5,0.5c0,0-0.1,0.2-0.3,0.4
	c-0.2,0.1-0.6,0.4-0.9,0.6c-0.3,0.2-0.7,0.4-0.9,0.5c-0.1,0.1-0.2,0.2-0.2,0.2s0,0-0.3,0c-0.3,0-0.3,0-0.6,0
	C18.2,80.9,18.2,80.8,18.2,80.8z M22.4,79.5c0,0-0.6,0.6-0.8,0.7c-0.2,0.1-0.9,0.8-0.9,1c-0.1,0.1-0.3,0.4-0.3,0.4s0,0.1,0.2,0
	c0.2,0,1.4-0.1,1.7-0.2c0.3-0.1,1.2-0.6,1.4-0.8c0.2-0.2,0.4-0.5,0.4-0.6c0.1-0.1,0.3-0.3,0.4-0.4c0.1-0.1,0.1-0.2,0.1-0.2
	s0.1-0.1-0.3-0.1c-0.4,0-1,0-1.3,0c-0.3,0-0.5,0-0.6,0C22.5,79.4,22.4,79.5,22.4,79.5z M41.5,79.8c0,0-0.8,0.8-1,0.9
	c-0.2,0.2-0.5,0.4-0.8,0.6c-0.3,0.2-0.6,0.4-0.7,0.5c-0.1,0-0.3,0.2-0.3,0.2s0.5,0,0.7,0c0.2,0,0.9-0.4,1.1-0.5
	c0.2-0.1,1-1.1,1.1-1.2c0.1-0.1,0.3-0.2,0.3-0.2S41.8,80,41.8,80C41.7,79.9,41.6,79.8,41.5,79.8L41.5,79.8L41.5,79.8z M42.8,80.3
	c0,0-0.3,0.1-0.4,0.3c-0.1,0.2-0.6,0.7-0.8,0.8c-0.2,0.1-0.6,0.6-0.6,0.6c-0.1,0.1-0.1,0.1-0.1,0.1s0.3,0,0.8,0
	c0.4-0.1,1.4-0.2,1.6-0.3c0.2-0.1,0.8-0.3,1-0.4c0.2-0.1,0.3-0.2,0.3-0.2s0.2-0.7,0.1-0.9c0-0.2-0.2-0.5-0.2-0.5s-0.3,0.2-0.5,0.2
	c-0.2,0-0.4,0.1-0.6,0.1c-0.2,0-0.3,0-0.4,0.1C42.9,80.3,42.8,80.3,42.8,80.3z M57.4,78.7c0,0-0.9,0.7-1.2,0.9
	c-0.2,0.2-1.2,0.8-1.4,1c-0.2,0.2-0.6,0.4-0.7,0.4l-0.1,0.1c0,0,0.9,0,1.1-0.1c0.2-0.1,1.8-1.3,2-1.5c0.1-0.2,0.2-0.3,0.3-0.5
	C57.5,78.9,57.4,78.7,57.4,78.7z M58,79.6c0,0-0.7,0.5-1,0.9c-0.2,0.3-0.5,0.7-0.6,0.7c0,0-0.1,0.2-0.1,0.2s-0.1,0,0,0.1
	c0.1,0.1,0.3,0.2,0.4,0.2c0.1,0,1.2,0.1,1.5,0c0.3-0.1,1.2-0.6,1.4-0.8c0.2-0.2,0.6-0.9,0.6-1c0-0.1,0.1-0.4,0.1-0.4s-0.1,0-0.3,0
	c-0.2,0.1-0.5,0.1-0.8,0.1c-0.3,0-0.6-0.2-0.8-0.1c-0.1,0-0.2,0-0.3,0.1C58.1,79.5,58,79.6,58,79.6L58,79.6z M79.2,78.9
	c0,0-2.2,1.7-2.3,1.8c-0.1,0.1-0.2,0.2-0.2,0.2s-0.1,0.1,0.2,0.2c0.3,0.1,0.4,0.2,0.6,0.1c0.2-0.1,0.5-0.3,0.7-0.6
	c0.2-0.2,1.1-1.1,1.1-1.2c0-0.1,0.2-0.3,0.2-0.3L79.2,78.9L79.2,78.9z M78.1,81.8c0,0,2.4-2.4,2.6-2.4c0.2-0.1,0.4-0.2,0.5-0.2
	c0.2,0,0.4,0,0.5-0.1C82,79,82.2,79,82.2,79s0.1,0.1,0.2,0.4c0,0.2,0,0.7-0.1,0.9c-0.1,0.2-0.4,0.7-0.9,0.9
	c-0.5,0.2-1.3,0.6-1.7,0.6c-0.4,0-0.7,0.1-0.9,0.1C78.6,81.9,78.1,81.8,78.1,81.8"/>
</svg>
