<?xml version="1.0" encoding="utf-8"?>
<!-- Generator: Adobe Illustrator 21.0.0, SVG Export Plug-In . SVG Version: 6.00 Build 0)  -->
<svg version="1.1" id="Layer_1" xmlns="http://www.w3.org/2000/svg" xmlns:xlink="http://www.w3.org/1999/xlink" x="0px" y="0px"
	 viewBox="0 0 100 100" style="enable-background:new 0 0 100 100;" xml:space="preserve">
<path d="M47.7,99.9c-4.6-0.2-9.9-1.3-14.2-2.8c-3.2-1.1-7.6-3.2-9.6-4.6l-0.5-0.3l11.7-0.1L46.9,92l0-17.1c0-13.6,0-17.1-0.2-17.1
	c-0.1,0-6.9,6.7-15,14.8L16.9,87.4l-1.2-1.1c-1.5-1.3-4.2-4.4-5.8-6.5c-3-4-5.6-8.9-7.2-13.7c-0.6-1.7-1.4-4.8-1.3-4.9
	c5.9,5.7,10.5,10.8,16.4,16.2c0.2,0.2,1.9-1.5,12.4-11.8c6.6-6.6,12.1-12.1,12.1-12.2C26.9,53.1,17,53,0.2,53
	c-0.3-0.2-0.2-6.5,0.2-9.4C1,39.3,2.3,34.3,4,30.4c1.3-3.1,3.2-6.6,3.7-6.8c0,8.2,0.2,13,0.2,23.3c11.3-0.2,23,0,34.3-0.1
	c0-0.1-6.7-6.8-14.8-14.9c-8.1-8.1-14.8-14.9-14.8-15c0-0.3,4.5-4.7,6.2-6c4.5-3.5,9.5-6.3,14.8-8.1c2.3-0.8,4.5-1.4,5-1.4
	c0.2,0-2.9,3.2-8,8.3L22.4,18l12.1,12.1c6.7,6.7,12.2,12.1,12.3,12.1S47,32.7,47,21.1v-21l4,0.1c4.2,0.1,6.5,0.4,10.2,1.2
	c4.8,1.1,10.2,3.2,14,5.5l1.4,0.9L64.9,7.8L53.1,7.9l0,17c0,9.4,0,17.1,0,17.2c0.1,0.2,5-4.7,15-14.7l14.9-14.9l0.9,0.8
	c1.5,1.4,4.5,4.7,5.6,6.1c3,3.9,5.7,8.7,7.3,13.2c0.9,2.4,1.9,6,1.8,6.2c-0.1,0.1-3.8-3.6-8.3-8.1L82,22.4L70,34.5
	c-6.6,6.6-12.1,12.1-12.1,12.2c0,0.1,5.8,0.2,21,0.2l21.1,0l0.1,2.4c0.2,7.4-1.7,15.8-5.1,22.5c-1.1,2.2-2.5,4.6-2.6,4.5
	c-0.1,0-0.1-5.3-0.1-11.7V53.2H75c-9.7,0-17.2,0.1-17.2,0.1c0,0.1,6.7,6.8,14.8,14.8S87.4,82.9,87.4,83c0,0.3-3.6,3.9-5.7,5.6
	c-5.4,4.4-11.9,7.8-18.6,9.5c-1.2,0.3-1.8,0.4-1.8,0.3c0-0.1,3.7-3.9,8.2-8.4l8.2-8.2L65.5,69.8c-6.6-6.6-12.2-12.1-12.3-12.1
	c-0.2,0-0.2,4.3-0.2,21v21l-1.3,0.1C50.6,100,49.8,100,47.7,99.9L47.7,99.9z"/>
</svg>
