<?xml version="1.0" encoding="utf-8"?>
<!-- Generator: Adobe Illustrator 21.0.0, SVG Export Plug-In . SVG Version: 6.00 Build 0)  -->
<svg version="1.1" id="Layer_1" xmlns="http://www.w3.org/2000/svg" xmlns:xlink="http://www.w3.org/1999/xlink" x="0px" y="0px"
	 viewBox="0 0 100 100" style="enable-background:new 0 0 100 100;" xml:space="preserve">
<path d="M50,0C22.4,0,0,22.4,0,50v0l22.3-6c-0.4,1.9-0.6,3.9-0.6,6c0,2.1,0.2,4,0.6,6L0,50c0,27.6,22.4,50,50,50s50-22.4,50-50
	S77.6,0,50,0z M50,75c-13.8,0-25-11.2-25-25s11.2-25,25-25s25,11.2,25,25S63.8,75,50,75z M77.7,44l22.3,6l-22.3,6
	c0.4-1.9,0.6-3.9,0.6-6C78.3,47.9,78.1,46,77.7,44z M93.3,25L77,41.3c-1.2-3.9-3.3-7.4-6-10.3L93.3,25z M69,29
	c-2.9-2.7-6.5-4.7-10.3-6L75,6.7L69,29z M56,22.3c-1.9-0.4-3.9-0.6-6-0.6s-4,0.2-6,0.6L50,0L56,22.3z M41.3,23
	c-3.9,1.2-7.4,3.3-10.3,6L25,6.7L41.3,23z M6.7,25L29,31c-2.7,2.9-4.7,6.5-6,10.3L6.7,25z M6.7,75L23,58.7c1.2,3.9,3.3,7.4,6,10.3
	L6.7,75z M31,71c2.9,2.7,6.5,4.7,10.3,6L25,93.3L31,71z M44,77.7c1.9,0.4,3.9,0.6,6,0.6s4-0.2,6-0.6L50,100L44,77.7z M58.7,77
	c3.9-1.2,7.4-3.3,10.3-6l6,22.3L58.7,77z M71,69c2.7-2.9,4.7-6.5,6-10.3L93.3,75L71,69z"/>
</svg>
