<?xml version="1.0" encoding="utf-8"?>
<!-- Generator: Adobe Illustrator 21.0.0, SVG Export Plug-In . SVG Version: 6.00 Build 0)  -->
<svg version="1.1" id="Layer_1" xmlns="http://www.w3.org/2000/svg" xmlns:xlink="http://www.w3.org/1999/xlink" x="0px" y="0px"
	 viewBox="0 0 100 100" style="enable-background:new 0 0 100 100;" xml:space="preserve">
<path d="M71.7,54.8c13.5-2,23.6-13.6,23.6-27.3C95.3,12.3,83,0,67.8,0C61,0,54.8,2.5,50,6.5C45.2,2.5,39,0,32.2,0
	C17,0,4.7,12.3,4.7,27.5c0,13.6,10.1,25.3,23.6,27.3v17.7H8.6v7.9h19.7V100h7.9V80.3h8.1v0h19.7V100h7.9V80.3h19.7v-7.9H71.7V54.8z
	 M50,19.2c1.2,2.5,1.9,5.3,1.9,8.3c0,3-0.7,5.8-1.9,8.3c-1.2-2.5-1.9-5.3-1.9-8.3C48.1,24.6,48.8,21.7,50,19.2z M32.2,47.2
	c-10.9,0-19.7-8.8-19.7-19.7c0-10.9,8.8-19.7,19.7-19.7c4.8,0,9.2,1.7,12.6,4.6c-0.7,1-1.3,2.1-1.8,3.2c-1.8,3.7-2.8,7.8-2.8,12.1
	h0.1c0,5.4,1.7,10.6,4.5,14.9C41.4,45.5,37,47.2,32.2,47.2z M63.9,72.5h-8.1v0H36.1V54.8c5.3-0.8,10-3,13.8-6.3
	c3.8,3.3,8.6,5.5,13.9,6.3V72.5z M67.8,47.2c-4.8,0-9.2-1.7-12.6-4.6c2.9-4.4,4.5-9.6,4.5-15.1c0-5.5-1.6-10.7-4.5-15
	c3.4-2.8,7.7-4.4,12.4-4.4c10.9,0,19.8,8.6,19.8,19.4S78.7,47.2,67.8,47.2z"/>
</svg>
