<?xml version="1.0" encoding="utf-8"?>
<!-- Generator: Adobe Illustrator 21.0.0, SVG Export Plug-In . SVG Version: 6.00 Build 0)  -->
<svg version="1.1" id="Layer_1" xmlns="http://www.w3.org/2000/svg" xmlns:xlink="http://www.w3.org/1999/xlink" x="0px" y="0px"
	 viewBox="0 0 100 100" style="enable-background:new 0 0 100 100;" xml:space="preserve">
<g id="spear">
	<g>
		<path id="spearshape" d="M22.7,98.8l1.7,1L69,22.3c2.6-0.7,4-3.2,5.5-5.7c1-1.7,4.8-8.3,6.4-16.9c-6.6,5.7-10.5,12.4-11.4,14
			c-1.4,2.5-2.9,5-2.2,7.6L22.7,98.8z"/>
	</g>
	<g>
		<path id="spearshape_1_" d="M22.7,98.8l1.7,1L69,22.3c2.6-0.7,4-3.2,5.5-5.7c1-1.7,4.8-8.3,6.4-16.9c-6.6,5.7-10.5,12.4-11.4,14
			c-1.4,2.5-2.9,5-2.2,7.6L22.7,98.8z"/>
	</g>
</g>
<g id="spear_1_">
	<g>
		<path id="spearshape_2_" d="M77.3,98.8l-1.7,1L31,22.3c-2.6-0.7-4-3.2-5.5-5.7c-1-1.7-4.8-8.3-6.4-16.9c6.6,5.7,10.5,12.4,11.4,14
			c1.4,2.5,2.9,5,2.2,7.6L77.3,98.8z"/>
	</g>
	<g transform="scale(-1,1)">
		<path id="spearshape_3_" d="M77.3,98.8l-1.7,1L31,22.3c-2.6-0.7-4-3.2-5.5-5.7c-1-1.7-4.8-8.3-6.4-16.9c6.6,5.7,10.5,12.4,11.4,14
			c1.4,2.5,2.9,5,2.2,7.6L77.3,98.8z"/>
	</g>
</g>
<g>
	<path d="M68.2,30.4v45.9c2.9-7.7,4.8-15.3,4.8-23S71.1,38,68.2,30.4z"/>
	<path d="M27,53.3c0,7.7,1.9,15.3,4.8,23V30.4C28.9,38,27,45.7,27,53.3z"/>
	<path d="M68.2,30.4c-2.9-7.7-12.4-23-18.2-23s-15.3,15.3-18.2,23c2.9,7.7,4.8,15.3,4.8,23s-1.9,15.3-4.8,23
		c2.9,7.7,12.4,23,18.2,23s15.3-15.3,18.2-23c-2.9-7.7-4.8-15.3-4.8-23S65.3,38,68.2,30.4z M49,7.5v40.2c0,0-3.8-7.7-3.8-20.1
		S49,7.5,49,7.5z M49,99.1c0,0-3.8-7.7-3.8-20.1S49,58.9,49,58.9V99.1z M46.2,53.3c0-3.2,1.7-5.7,3.8-5.7s3.8,2.6,3.8,5.7
		s-1.7,5.7-3.8,5.7S46.2,56.5,46.2,53.3z M51,99.1V58.9c0,0,3.8,7.7,3.8,20.1S51,99.1,51,99.1z M51,47.7V7.5c0,0,3.8,7.7,3.8,20.1
		S51,47.7,51,47.7z"/>
</g>
</svg>
