<?xml version="1.0" encoding="utf-8"?>
<!-- Generator: Adobe Illustrator 24.0.0, SVG Export Plug-In . SVG Version: 6.00 Build 0)  -->
<svg version="1.2" baseProfile="tiny" id="Layer_1" xmlns="http://www.w3.org/2000/svg" xmlns:xlink="http://www.w3.org/1999/xlink"
	 x="0px" y="0px" viewBox="0 0 100 100" xml:space="preserve">
<path fill="#B15A27" d="M13,65.5l0.2-0.2l0.2-0.2l0.3-0.2l0.3-0.3l0,0l2.6-2.4l0.5-0.5l0.1-0.1l-0.1,0c-0.1-0.1-0.2-0.1-0.3-0.2
	c-0.6-0.4-1.3-0.6-2-0.7l-0.3,0l-0.3,0h-0.9c-0.2,0-0.4,0-0.6,0.1c0,0-0.1,0-0.1,0l-0.1,0l-0.2,0c-0.1,0-0.2,0-0.3,0.1
	c-0.6,0.2-1.1,0.4-1.6,0.8c-0.1,0.1-0.2,0.1-0.3,0.2c-0.1,0.1-0.2,0.1-0.3,0.2c-0.6,0.5-1.2,1.2-1.6,1.9c-0.1,0.1-0.1,0.2-0.2,0.4
	c-0.1,0.1-0.1,0.2-0.1,0.4c-0.6,1.6-0.5,3.3,0.2,4.8c0,0.1,0.1,0.2,0.2,0.3s0.1,0.2,0.2,0.3c1.8,2.9,5.6,3.9,8.5,2.2
	c0.1-0.1,0.2-0.1,0.4-0.2s0.2-0.1,0.3-0.2l0.3-0.2c0.1-0.1,0.2-0.2,0.3-0.3c0.1-0.1,0.2-0.2,0.3-0.3c0.1-0.1,0.2-0.2,0.2-0.3l0,0
	c0.8-1.1,1.3-2.4,1.3-3.8v-0.1c0-0.5-0.1-0.9-0.2-1.4c-0.1-0.3-0.2-0.7-0.3-1l0,0l-2.6,2.4L16.8,67l-0.3,0.3l0,0l-0.2,0.2L16,67.7
	l-0.5,0.5c-0.1,0.1-0.2,0.1-0.3,0.1c-0.2,0-0.4-0.2-0.4-0.4c0-0.1,0-0.2,0.1-0.3l0.5-0.4l0.3-0.2l0.2-0.2l0.4-0.4l0.3-0.3l0.3-0.3
	l2.3-2.1c-0.4-0.6-0.8-1.1-1.3-1.5l-0.7,0.7l-0.4,0.4l-0.4,0.4l-2,1.8l-0.2,0.2l-0.3,0.2l-0.3,0.3c-0.1,0.1-0.2,0.1-0.3,0.1
	c-0.2,0-0.4-0.2-0.4-0.4C12.9,65.7,12.9,65.6,13,65.5L13,65.5z M19.7,76.5C19.7,76.5,19.7,76.5,19.7,76.5l0.3,0.5l0.4,0.5l0.2,0.2
	l0.2,0.3l0,0l0.2,0.3c2,2.5,4.3,4.7,6.8,6.7c0.3,0.3,0.7,0.5,1,0.8l0.5,0.4l0.1,0.1l0.1,0l0.2,0.2l0,0l0.2-0.3l0.2-0.3l0.1-0.1
	l0.1-0.2l0.5-0.8v0c-0.1-0.1-0.2-0.1-0.3-0.2l-0.1-0.1l-0.4-0.2l-0.4-0.3c-0.8-0.6-1.6-1.2-2.3-1.9c-0.1-0.1-0.2-0.2-0.3-0.2
	c-0.3-0.3-0.6-0.5-0.9-0.8c-0.4-0.4-0.8-0.8-1.2-1.2c-0.1-0.1-0.3-0.3-0.4-0.4l-0.4-0.4c-0.4-0.4-0.7-0.8-1-1.2l-0.2-0.4L23,77.1
	c-0.1-0.2-0.2-0.3-0.3-0.5s-0.2-0.4-0.3-0.6c-0.1-0.3-0.2-0.5-0.3-0.8c0-0.1,0-0.1,0-0.2l-0.1,0l-0.1,0h0c-0.3-0.1-0.7-0.3-1-0.4
	c-0.1-0.1-0.2-0.1-0.3-0.2l-0.1-0.1l-0.1-0.1l-0.1-0.1l-0.1-0.1l0,0c0,0-0.1-0.1-0.1-0.1l0,0l0,0c-0.1-0.1-0.2-0.2-0.3-0.3
	c-0.4-0.4-0.7-0.9-0.9-1.5c0-0.1,0-0.1-0.1-0.1c0,0,0,0,0-0.1l-0.1,0.1c-0.1,0.1-0.2,0.2-0.2,0.2c-0.1,0.1-0.2,0.1-0.3,0.2
	s-0.2,0.2-0.3,0.2l-0.2,0.2c0.3,0.3,0.5,0.6,0.8,0.9c0.3,0.3,0.5,0.6,0.8,0.9c0.1,0.1,0.1,0.2,0.2,0.3v0c0.1,0.1,0.1,0.2,0.1,0.3
	c0,0,0,0,0,0.1c0,0,0.1,0.1,0.1,0.2c0,0.1,0.1,0.2,0.1,0.4C19.8,76.1,19.8,76.3,19.7,76.5L19.7,76.5z M9.4,61.5
	c0.1-0.1,0.2-0.1,0.3-0.2c0.1-0.1,0.2-0.1,0.3-0.2c0.6-0.4,1.4-0.8,2.1-1l0.3-0.1l0.2,0h0.1c0.1,0,0.2,0,0.3-0.1l0.4,0v-2.4
	c-0.2,0-0.3,0-0.5,0.1l-0.1,0c-0.1,0-0.2,0.1-0.3,0.1l-0.3,0.1c-1.2,0.5-2.4,1.4-2.7,2.6v0l0,0.1l-0.2,0.1h0l-0.3,0.1
	C7.3,61.2,6,62.4,5.5,64h2.1C8,63,8.6,62.1,9.4,61.5z M21.5,84.4c0.1-0.2,0.4-0.2,0.6,0c0.2,0.1,0.2,0.4,0,0.5c0,0,0,0,0,0
	c0,0,0,0,0,0l-3,3.5c0.4,0.5,0.9,0.9,1.5,1.2l3-3.5c0.1-0.2,0.4-0.2,0.5,0c0,0,0,0,0,0.1c0.1,0.1,0.1,0.4,0,0.5l-2.9,3.4l0.1,0
	c2.4,1,5.2,0.3,7-1.6c0.1-0.1,0.2-0.2,0.3-0.3s0.2-0.2,0.2-0.3c0.1-0.2,0.3-0.4,0.4-0.6c-0.6-0.4-1.1-0.9-1.7-1.3
	c-0.3-0.3-0.6-0.5-0.9-0.8s-0.6-0.5-0.9-0.8c-1.7-1.5-3.3-3.1-4.8-4.9c-0.1-0.2-0.2-0.3-0.4-0.5c0,0-0.1-0.1-0.1-0.1
	c-0.1,0.1-0.2,0.1-0.3,0.2c-0.5,0.3-1,0.7-1.3,1.2c-0.4,0.5-0.8,1.1-1,1.8c-0.2,0.6-0.4,1.3-0.4,2v0.4l0,0c0,0.1,0,0.2,0,0.4
	c0.1,1.1,0.5,2.2,1.2,3.2L21.5,84.4z M18.6,79.2c0.2-0.2,0.4-0.3,0.5-0.5c0.3-0.2,0.5-0.4,0.8-0.6c-0.2-0.2-0.3-0.4-0.5-0.7
	c-0.1-0.1-0.1-0.2-0.2-0.3l-0.2,0.3c-0.2,0.2-0.4,0.4-0.6,0.6c-0.9,0.8-1.9,1.5-3,2.1c-0.5,0.6-0.8,1.6-1.2,2.9
	c-0.1,0.3-0.2,0.6-0.3,0.9l2.6-0.1c0-1.5,0.5-2.9,1.4-4C18.2,79.7,18.4,79.4,18.6,79.2z M84,72.3c3,1.7,6.8,0.8,8.5-2.2
	c0.1-0.1,0.1-0.2,0.2-0.3s0.1-0.2,0.2-0.3c0.7-1.5,0.7-3.2,0.1-4.8c0-0.1-0.1-0.2-0.1-0.4c-0.1-0.1-0.1-0.2-0.2-0.4
	c-0.4-0.7-0.9-1.4-1.6-1.9c-0.1-0.1-0.2-0.1-0.3-0.2l-0.3-0.2c-0.5-0.3-1-0.6-1.6-0.8c-0.1,0-0.2,0-0.3-0.1l-0.1,0l-0.1,0
	c0,0-0.1,0-0.1,0c-0.2,0-0.4-0.1-0.6-0.1h-0.9c-0.1,0-0.2,0-0.3,0l-0.3,0c-0.7,0.1-1.4,0.4-2,0.7c-0.1,0.1-0.2,0.1-0.3,0.2l-0.1,0
	l0.1,0.1l0.5,0.5l2.6,2.4l0,0l0.3,0.3l0.2,0.2l0.3,0.2l0.2,0.2l0,0c0.2,0.1,0.2,0.4,0,0.6c-0.1,0.1-0.2,0.1-0.3,0.1
	c-0.1,0-0.2,0-0.3-0.1l-0.3-0.3l-0.3-0.2l-0.2-0.2l-2-1.9l-0.4-0.4l-0.4-0.4l-0.7-0.7c-0.5,0.4-1,1-1.3,1.5l2.3,2.1l0.3,0.3l0.3,0.3
	l0.4,0.4l0.3,0.2l0.2,0.2l0.4,0.4c0.2,0.1,0.2,0.4,0,0.6c-0.1,0.1-0.2,0.1-0.3,0.1c-0.1,0-0.2,0-0.3-0.1L85,67.8l-0.3-0.2l-0.2-0.2
	l0,0L84.2,67l-0.3-0.3l-2.6-2.4v0c-0.3,0.8-0.5,1.6-0.5,2.4c0,0,0,0.1,0,0.1c0,1.4,0.5,2.7,1.3,3.8c0,0,0,0,0,0l0.3,0.3
	c0.1,0.1,0.2,0.2,0.3,0.3s0.2,0.2,0.3,0.3l0.3,0.2c0.1,0.1,0.2,0.2,0.3,0.2S83.8,72.2,84,72.3z M81.4,75.4c0-0.1,0-0.1,0.1-0.2
	l0-0.1c0-0.1,0.1-0.2,0.2-0.3v0l0.2-0.3c0.2-0.3,0.5-0.6,0.8-0.9c0.3-0.3,0.6-0.6,0.8-0.9l-0.2-0.2c-0.1-0.1-0.2-0.2-0.3-0.2
	s-0.2-0.1-0.3-0.2s-0.2-0.1-0.2-0.2l-0.1-0.1l0,0.1c0,0.1,0,0.1-0.1,0.1c-0.2,0.5-0.5,1-0.9,1.5c-0.1,0.1-0.2,0.2-0.3,0.3l0,0l0,0
	c0,0-0.1,0.1-0.1,0.1l0,0l-0.1,0.1l-0.1,0.1l-0.1,0.1l-0.1,0.1c-0.1,0.1-0.2,0.1-0.3,0.2c-0.3,0.2-0.7,0.4-1.1,0.5h0l-0.1,0l-0.1,0
	c0,0.1,0,0.1,0,0.2c-0.1,0.3-0.2,0.5-0.3,0.8c-0.1,0.2-0.2,0.4-0.3,0.6s-0.2,0.3-0.3,0.5l-0.2,0.3l-0.2,0.4c-0.3,0.4-0.6,0.8-1,1.2
	l-0.4,0.4c-0.1,0.1-0.3,0.3-0.4,0.4c-0.4,0.4-0.8,0.8-1.2,1.2c-0.3,0.3-0.6,0.5-0.8,0.8c-0.1,0.1-0.2,0.2-0.3,0.2
	c-0.7,0.7-1.5,1.3-2.3,1.9l-0.4,0.3l-0.4,0.2l-0.1,0.1L70,84.9v0l0.5,0.8l0.1,0.2l0.1,0.1l0.2,0.3l0.2,0.3c0,0,0,0,0,0l0.2-0.2
	l0.1,0l0.1-0.1l0.5-0.4c0.3-0.3,0.7-0.5,1-0.8c2.5-2,4.8-4.2,6.8-6.7l0.2-0.3l0,0l0.2-0.3l0.2-0.2c0.1-0.2,0.3-0.4,0.4-0.5
	s0.2-0.3,0.3-0.5c0,0,0,0,0,0l0,0c0-0.2,0-0.5,0-0.7C81.3,75.7,81.3,75.5,81.4,75.4z M91.9,60.6L91.9,60.6l-0.2-0.1l0-0.1v0
	c-0.4-1.2-1.5-2.1-2.7-2.6l-0.3-0.1c-0.1,0-0.2-0.1-0.3-0.1l-0.1,0c-0.2,0-0.3-0.1-0.5-0.1v2.4l0.4,0c0.1,0,0.2,0,0.3,0.1h0.1l0.2,0
	l0.3,0.1c0.8,0.2,1.5,0.5,2.1,1c0.1,0.1,0.2,0.1,0.3,0.2s0.2,0.1,0.3,0.2c0.8,0.7,1.5,1.5,1.9,2.5h2.1c-0.6-1.5-1.8-2.7-3.4-3.3
	L91.9,60.6z M83.7,83.9c0-0.7-0.2-1.4-0.4-2c-0.1-0.3-0.2-0.6-0.4-0.8c-0.2-0.3-0.4-0.7-0.7-1c-0.4-0.5-0.8-0.9-1.4-1.2
	c-0.1-0.1-0.2-0.1-0.3-0.2l-0.1,0.1l-0.4,0.5c-1.5,1.7-3.1,3.4-4.8,4.9c-0.3,0.3-0.6,0.5-0.9,0.8s-0.6,0.5-0.9,0.8
	c-0.5,0.4-1.1,0.9-1.7,1.3c0.1,0.2,0.2,0.4,0.4,0.6c0.1,0.1,0.2,0.2,0.2,0.3s0.2,0.2,0.3,0.3c1.7,2,4.5,2.6,7,1.6l0.1,0l-2.9-3.4
	c-0.1-0.1-0.1-0.4,0-0.5c0,0,0,0,0-0.1c0.1-0.1,0.2-0.1,0.4-0.1c0.1,0,0.1,0.1,0.2,0.1l3,3.5c0.6-0.3,1.1-0.7,1.5-1.2l-3-3.5
	c-0.1-0.2-0.1-0.4,0-0.6c0.2-0.1,0.4-0.1,0.6,0l3,3.4c0.7-0.9,1.1-2,1.2-3.2c0-0.1,0-0.2,0-0.4l0,0C83.7,84.2,83.7,84,83.7,83.9z
	 M85.5,80.2c-1.1-0.6-2.1-1.3-3-2.1c-0.2-0.2-0.4-0.4-0.6-0.6c-0.1-0.1-0.1-0.2-0.2-0.3l-0.2,0.3c-0.2,0.2-0.3,0.4-0.5,0.7
	c0.3,0.2,0.5,0.4,0.8,0.6c0.2,0.2,0.4,0.3,0.5,0.5c0.2,0.2,0.4,0.4,0.6,0.7c0.9,1.2,1.4,2.6,1.4,4L87,84c-0.1-0.3-0.2-0.6-0.3-0.9
	C86.3,81.8,86,80.8,85.5,80.2z"/>
<path fill="#1F1D5A" d="M26.9,63.8l-2.8-0.9c0,0.2,0,0.4-0.1,0.7c-0.3,2.7-1.1,5.4-2.2,7.9c0.3,0.2,0.6,0.5,0.8,0.8
	C23.4,69.2,24.9,66.3,26.9,63.8z M35,69.2c0.3,2,0.5,4,0.5,6.1l13.9-4.4l-14.7-4.6C34.7,67.2,34.8,68.2,35,69.2z M79.2,71.5
	C78,69,77.3,66.3,77,63.6c0-0.2,0-0.4-0.1-0.7l-2.8,0.9c2,2.5,3.5,5.4,4.2,8.5C78.6,72,78.9,71.7,79.2,71.5z M51.7,70.9l13.8,4.4
	c0-2,0.2-4.1,0.5-6.1c0.1-1,0.3-2,0.4-3L51.7,70.9z"/>
<path fill="#1E572B" d="M19.3,44.8c-0.2,0.1-0.4,0.2-0.6,0.3l-0.4,0.2c-0.3,0.2-0.7,0.4-1,0.6c-0.1,0-0.1,0.1-0.2,0.1
	c-0.9,0.5-1.6,1.2-2.2,2l-0.1,0.2c-0.2,0.3-0.4,0.7-0.6,1c0,0,0,0.1,0,0.1c0,0,0,0.1,0,0.1c0.1,0.2,0.2,0.5,0.3,0.7
	c0,0.1,0.1,0.2,0.1,0.3s0.1,0.2,0.1,0.3c0,0.1,0.1,0.3,0.1,0.5l0,0c0.1,0.3,0.1,0.6,0.1,0.9c0.6-0.8,1.3-1.6,2.1-2.1l0,0
	c0.5-0.4,1.1-0.8,1.7-1.1c0.6-0.3,1-0.6,1.5-1c0.3-1.3,0.4-2.6,0.4-3.9c-0.2,0.2-0.5,0.4-0.7,0.6C19.6,44.6,19.5,44.7,19.3,44.8z
	 M15,54.8c0.7,0.6,1.3,1.2,1.9,1.8l0.2,0.2c0.1,0.1,0.1,0.1,0.2,0.2c0.2,0.2,0.7,0.9,0.9,1.1c2.5-3.5,2.6-6.7,2.8-10l-0.3,0.2
	l-0.3,0.2l-0.3,0.2c-0.3,0.2-0.6,0.4-0.9,0.6c-0.7,0.4-1.4,0.9-2.1,1.4l0,0c-0.8,0.7-1.5,1.5-2,2.5c-0.1,0.2-0.2,0.4-0.3,0.6v0
	c-0.1,0.1-0.1,0.3-0.2,0.4l0.1,0.1L15,54.8z M14.2,43.2c-0.2-0.2-0.6-0.3-0.9-0.3c-0.4,0-0.7,0.3-0.8,0.6c0.7,0.2,1.3,0.8,1.4,1.5
	c0.4-0.8,1.1-1.3,2-1.3c-0.1-0.3-0.4-0.6-0.7-0.7C14.9,43,14.5,43.1,14.2,43.2z M11.7,57.1c0.1,0,0.2-0.1,0.3-0.1s0.2-0.1,0.3-0.1
	c0.2-0.1,0.4-0.1,0.6-0.2c0.3,0,0.5-0.1,0.8-0.1h0.4v3.2c0.3,0,0.5,0,0.8,0.1l0.3,0l0.3,0.1c0.6,0.1,1.3,0.4,1.8,0.7
	c0.1,0.1,0.2,0.1,0.3,0.2c0.1,0.1,0.2,0.1,0.3,0.2c0.6,0.4,1.1,0.9,1.6,1.5c-0.2-0.9-0.5-1.7-1-2.5l-0.2-0.3
	c-0.1-0.1-0.1-0.2-0.2-0.3c-0.4-0.6-0.8-1.2-1.2-1.7l-0.2-0.2l-0.2-0.2c-0.6-0.7-1.3-1.4-2-2l-0.3-0.2c-0.4-0.3-0.7-0.6-1-0.9
	c-0.6-0.4-1.1-0.9-1.7-1.2C10.7,52.4,9.8,51.7,9,51c-0.2-0.2-0.3-0.3-0.5-0.5l-0.2-0.3c0,0,0,0,0,0c-0.1-0.1-0.1-0.2-0.2-0.2
	c-0.2-0.3-0.5-0.6-0.7-0.9c-0.6,4,0,7.9,1.5,10.4C9.5,58.4,10.5,57.6,11.7,57.1z M8.4,48.8c0.1,0.2,0.1,0.5,0.2,0.7
	c0.5,0.6,1.1,1.2,1.7,1.7l0,0c0.5,0.4,1.1,0.8,1.7,1.2c0.4,0.3,0.9,0.6,1.4,1c0.2,0.1,0.4,0.3,0.6,0.4c0.1-0.3,0.3-0.6,0.4-0.9
	c0-0.7-0.1-1.5-0.3-2.2l0-0.2c-0.1-0.3-0.2-0.6-0.3-0.9c-0.1-0.1-0.1-0.3-0.2-0.4c-0.1-0.2-0.2-0.4-0.4-0.6
	c-0.1-0.2-0.3-0.4-0.4-0.6c0,0-0.1-0.1-0.1-0.1c-0.1-0.1-0.1-0.1-0.2-0.2c-0.4-0.4-0.7-0.7-1.1-1c-0.3-0.2-0.5-0.4-0.8-0.6l-0.1-0.1
	c-0.4-0.4-0.8-0.7-1.1-1C9.2,45,9,44.9,8.9,44.8c-0.1-0.1-0.1-0.1-0.2-0.2l-0.1-0.2c0,0-0.1-0.1-0.1-0.1c-0.2-0.2-0.3-0.4-0.4-0.5
	C7.9,45.4,8,47,8.3,48.5C8.3,48.6,8.4,48.7,8.4,48.8z M8.9,43.5C8.9,43.7,9,43.9,9,44c0.5,0.5,1,1,1.5,1.5l0.1,0.1
	c0.3,0.3,0.7,0.6,1,0.9c0.3,0.3,0.7,0.6,1,0.9l0.1,0.1c0.4,0.4,0.7,0.8,1,1.3l0,0c0.1-0.2,0.2-0.4,0.3-0.5c0.2-0.3,0.4-0.6,0.7-0.9
	l0.1-0.2c0.6-0.7,1.4-1.3,2.2-1.7l0.2-0.1c0.2-0.1,0.5-0.3,0.7-0.4c0.5-0.3,0.9-0.5,1.3-0.8c0.5-0.9,0.9-2.1,0.8-4.3
	c-0.3,0.2-0.6,0.4-1,0.6l-0.1,0l-0.4,0.2c-0.2,0.1-0.4,0.2-0.6,0.4l0,0l-0.3,0.2c-0.7,0.5-1.3,1.1-1.8,1.8c0.3,0.3,0.5,0.7,0.5,1.1
	c-1-0.2-1.9,0.4-2.3,1.3C14,45.6,13.9,46,13.9,46l-0.1-0.5c-0.2-0.9-0.8-1.5-1.6-1.6h-0.3c0.1-0.4,0.4-0.8,0.7-1.1
	c-0.2-0.2-0.4-0.5-0.6-0.6c-0.3-0.2-0.5-0.4-0.8-0.7l-0.1-0.1L11,41.3l-0.4-0.4l-0.4-0.4c-0.1-0.1-0.3-0.3-0.4-0.4
	c-0.1-0.1-0.6-0.7-0.6-0.7c-0.2,1.1-0.3,2.1-0.3,3.2C8.8,42.9,8.9,43.2,8.9,43.5z M20.9,66.9c0,1.4-0.4,2.7-1.2,3.9
	c0.2,0,0.5,0.1,0.7,0.1c0.1,0,0.2,0.1,0.4,0.1s0.2,0.1,0.4,0.1l0.1,0.1l0,0c1.1-2.4,1.8-5,2.1-7.6c0-0.3,0-0.5,0.1-0.8v-1.2
	c0-1.2-0.1-2.3-0.2-3.4c-0.1-0.9-0.2-1.7-0.2-2.6l-0.5,0.4c-1.4,1-2.6,2.2-3.6,3.6c0.8,1.4,1.3,3,1.4,4.7
	C20.7,65,20.9,65.9,20.9,66.9z M15.2,79.6c0.6-0.3,1-0.6,1.5-0.9c0.2-0.1,0.4-0.3,0.5-0.4c0.7-0.5,1.2-1,1.7-1.7l0,0l0-0.2
	c0.1-0.2,0.1-0.4,0-0.6c0-0.1-0.1-0.2-0.2-0.4c-0.1-0.1-0.1-0.2-0.2-0.3c-0.2-0.3-0.5-0.6-0.8-0.9c-0.4-0.4-0.7-0.7-1-1.1
	c-3.4,1.6-7.4,0.2-9.1-3.1c-1.2,0-2.3,0.2-3.4,0.5C9.7,73.7,9.8,77.7,15.2,79.6C15.1,79.6,15.1,79.6,15.2,79.6z M30.2,83.4l0.4,0.3
	l0.7,0.5c1.2-1.1,2.1-2.4,2.6-3.9c0.1-0.2,0.2-0.4,0.2-0.7c0.2-0.5,0.3-1,0.4-1.5c0-0.2,0.1-0.4,0.1-0.6c0.1-0.4,0.1-0.8,0.1-1.2
	l0,0v-0.8c0-3.2-0.7-6.5-0.9-9.5c0-0.1,0-0.3,0-0.4c0-0.1,0-0.3,0-0.4c0-0.4,0-0.9,0-1.3c-0.4,0.3-0.8,0.6-1.1,1
	c-0.1,0.1-0.2,0.2-0.3,0.3l-0.2,0.2c0,0-0.1,0.1-0.1,0.1l0,0c-0.2,0.2-0.4,0.5-0.7,0.7c0.5,2.1,0.6,4.3,0.5,6.4
	c-0.2,2.7-1.1,5.2-2.6,7.4c-0.1,0.1-0.1,0.2-0.2,0.3s-0.1,0.2-0.2,0.3c-0.2,0.3-0.5,0.7-0.7,1c0.6,0.5,1.1,1,1.7,1.5L30.2,83.4z
	 M24.3,77.5c0.1,0.1,0.2,0.3,0.3,0.4l0,0c0.1,0.1,0.2,0.3,0.3,0.4s0.2,0.3,0.3,0.4c0.7,0.8,1.5,1.6,2.3,2.4c0.3-0.4,0.6-0.7,0.8-1.1
	l0.2-0.3l0.2-0.3c1.3-2.1,2.1-4.4,2.3-6.9c0.1-1.9,0-3.8-0.4-5.7c0-0.2-0.1-0.3-0.1-0.5l-0.1-0.4c-0.1-0.3-0.1-0.7-0.2-1
	c0-0.1-0.1-0.3-0.1-0.4s0-0.3-0.1-0.4C30,63.3,30,62.7,30,62c-0.6,0.4-1.2,0.9-1.7,1.4c-0.1,0.1-0.2,0.2-0.3,0.3s-0.2,0.2-0.3,0.3
	c-2.6,3.2-4.3,7-4.8,11.1c0.3,0.7,0.6,1.4,1.1,2C24.1,77.3,24.2,77.4,24.3,77.5z M21,71.8L21,71.8c-0.2-0.1-0.3-0.1-0.4-0.2
	c-0.1,0-0.2-0.1-0.4-0.1c-0.2-0.1-0.5-0.1-0.8-0.1h-0.3c0,0,0,0,0,0v0c0,0.1,0,0.1,0.1,0.2c0.1,0.2,0.1,0.3,0.2,0.5
	c0.1,0.2,0.2,0.5,0.4,0.7c0.1,0.1,0.2,0.3,0.3,0.4c0.1,0.1,0.2,0.2,0.3,0.3c0,0,0,0,0.1,0.1c0,0,0,0,0,0c0.1,0.1,0.1,0.1,0.2,0.2
	l0.1,0.1c0.3,0.2,0.7,0.4,1.1,0.5l0.1,0h0.1v-0.1c0-0.2,0.1-0.5,0.1-0.7s0.1-0.4,0.1-0.5C22.1,72.5,21.6,72.1,21,71.8z M86.9,49.3
	L86.9,49.3c-0.2-0.5-0.4-0.8-0.7-1.1c0-0.1-0.1-0.1-0.1-0.2c-0.6-0.8-1.4-1.5-2.2-2l-0.2-0.1c-0.3-0.2-0.7-0.4-1-0.6l-0.4-0.2
	c-0.2-0.1-0.4-0.2-0.6-0.3s-0.3-0.2-0.5-0.3c-0.3-0.2-0.5-0.4-0.7-0.6c-0.1,1.3,0.1,2.6,0.4,3.9c0.5,0.3,1,0.7,1.5,1
	s1.1,0.7,1.7,1.1l0,0c0.8,0.6,1.5,1.3,2.1,2.1c0-0.3,0.1-0.6,0.1-0.9l0,0c0-0.2,0.1-0.3,0.1-0.5l0.1-0.3c0-0.1,0.1-0.2,0.1-0.3
	C86.7,49.9,86.8,49.6,86.9,49.3L86.9,49.3z M83.8,57l0.2-0.2l0.2-0.2c0.6-0.6,1.2-1.2,1.9-1.8c0.2-0.2,0.3-0.3,0.5-0.4l0.1-0.1
	c-0.1-0.1-0.1-0.3-0.2-0.4c0,0,0,0,0,0c-0.1-0.2-0.2-0.4-0.3-0.6c-0.5-0.9-1.2-1.8-2-2.5l0,0c-0.6-0.5-1.3-1-2.1-1.4
	c-0.3-0.2-0.6-0.4-0.9-0.6l-0.3-0.2l-0.3-0.2c-0.1-0.1-0.2-0.1-0.3-0.2c0.1,3.3,0.3,6.5,2.8,10C83.2,57.7,83.5,57.4,83.8,57z
	 M85.1,43.8c0.8,0,1.6,0.5,2,1.3c0.2-0.7,0.7-1.3,1.4-1.5C88.3,43.2,88,43,87.7,43c-0.3,0-0.6,0.1-0.9,0.3c-0.3-0.2-0.7-0.2-1-0.1
	C85.4,43.2,85.2,43.5,85.1,43.8z M92.7,50.2L92.7,50.2l-0.3,0.3c-0.2,0.2-0.3,0.3-0.5,0.5c-0.8,0.7-1.6,1.4-2.5,2
	c-0.5,0.4-1.1,0.8-1.7,1.2c-0.3,0.3-0.7,0.6-1,0.9l-0.3,0.2c-0.7,0.6-1.4,1.3-2,2l-0.2,0.2l-0.2,0.2c-0.4,0.5-0.9,1.1-1.2,1.7
	c-0.1,0.1-0.1,0.2-0.2,0.3s-0.1,0.2-0.2,0.3c-0.4,0.8-0.7,1.6-0.9,2.5c0.4-0.6,1-1.1,1.6-1.5c0.1-0.1,0.2-0.1,0.3-0.2
	s0.2-0.1,0.3-0.2c0.6-0.3,1.2-0.5,1.8-0.7l0.3-0.1l0.3,0c0.3,0,0.5-0.1,0.8-0.1v-3.2h0.4c0.3,0,0.5,0,0.8,0.1c0.2,0,0.4,0.1,0.6,0.2
	c0.1,0,0.2,0.1,0.3,0.1s0.2,0.1,0.3,0.1c1.2,0.5,2.2,1.3,2.8,2.5c1.5-2.5,2-6.4,1.5-10.4c-0.2,0.3-0.4,0.6-0.7,0.9
	C92.8,50.1,92.8,50.2,92.7,50.2z M91.7,45.2c-0.3,0.3-0.7,0.7-1.1,1l-0.1,0.1c-0.2,0.2-0.5,0.4-0.8,0.6c-0.4,0.3-0.8,0.6-1.1,1
	c-0.1,0.1-0.1,0.1-0.2,0.2l-0.1,0.1c-0.2,0.2-0.3,0.4-0.4,0.6c-0.1,0.2-0.3,0.4-0.4,0.6c-0.1,0.1-0.1,0.3-0.2,0.4
	c-0.1,0.3-0.2,0.6-0.3,0.9l0,0.2c-0.2,0.7-0.3,1.4-0.3,2.2c0.1,0.3,0.3,0.6,0.4,0.9c0.2-0.2,0.4-0.3,0.6-0.4c0.5-0.4,0.9-0.7,1.4-1
	c0.6-0.4,1.1-0.8,1.7-1.2l0,0c0.6-0.5,1.2-1,1.7-1.7c0.1-0.2,0.1-0.5,0.2-0.7c0-0.1,0-0.1,0-0.2c0.3-1.5,0.4-3.1,0.2-4.7
	c-0.1,0.1-0.3,0.3-0.4,0.5l-0.1,0.1l-0.1,0.2c-0.1,0.1-0.1,0.1-0.2,0.2C92,44.9,91.8,45.1,91.7,45.2z M90.9,40.5l-0.4,0.4L90,41.2
	l-0.1,0.1l-0.1,0.1c-0.3,0.2-0.5,0.4-0.8,0.7c-0.2,0.2-0.4,0.4-0.6,0.6c0.4,0.3,0.6,0.6,0.7,1.1h-0.3c-0.7,0.1-1.3,0.7-1.6,1.6
	c0,0.2-0.1,0.5-0.1,0.5s-0.1-0.4-0.2-0.5c-0.4-0.9-1.4-1.5-2.3-1.3c0-0.4,0.2-0.8,0.5-1.1c-0.5-0.7-1.1-1.3-1.8-1.8L82.9,41l0,0
	c-0.2-0.1-0.4-0.3-0.6-0.4l-0.4-0.2l-0.1,0c-0.3-0.1-0.7-0.3-1-0.5c-0.1,2.2,0.3,3.4,0.8,4.3c0.4,0.3,0.9,0.5,1.3,0.8
	c0.2,0.1,0.5,0.3,0.7,0.4l0.2,0.1c0.8,0.5,1.6,1,2.2,1.7l0.1,0.2c0.2,0.3,0.5,0.6,0.7,0.9c0.1,0.2,0.2,0.4,0.3,0.5l0,0
	c0.3-0.5,0.6-0.9,1-1.3l0.1-0.1c0.3-0.3,0.7-0.6,1-0.9c0.4-0.3,0.7-0.6,1-0.9l0.1-0.1c0.5-0.5,1-1,1.5-1.5c0-0.2,0.1-0.4,0.1-0.6
	c0-0.3,0.1-0.6,0.1-0.9c0-1.1-0.1-2.2-0.3-3.2c0,0-0.5,0.7-0.6,0.7C91.1,40.2,91,40.4,90.9,40.5z M93.3,70.1
	c-1.7,3.3-5.8,4.7-9.1,3.1c-0.3,0.4-0.6,0.8-1,1.1c-0.3,0.3-0.5,0.6-0.8,0.9c-0.1,0.1-0.1,0.2-0.2,0.3c-0.1,0.1-0.1,0.2-0.2,0.4
	c-0.1,0.2-0.1,0.4,0,0.6l0,0.2l0,0c0.5,0.6,1.1,1.2,1.7,1.7l0.5,0.4c0.4,0.3,0.9,0.6,1.5,0.9l0.1,0c5.3-1.8,5.4-5.9,10.8-9
	C95.6,70.3,94.5,70.2,93.3,70.1z M70.8,83.4l0.4-0.3c0.6-0.5,1.2-1,1.7-1.5c-0.3-0.3-0.5-0.7-0.7-1L72,80.3l-0.2-0.3
	c-1.5-2.2-2.3-4.8-2.6-7.4c-0.1-2.1,0.1-4.3,0.5-6.4c-0.2-0.3-0.5-0.5-0.7-0.7l0,0c0,0-0.1-0.1-0.1-0.1l-0.2-0.2
	c-0.1-0.1-0.2-0.2-0.3-0.3c-0.4-0.3-0.7-0.7-1.1-1c0,0.4,0,0.9,0,1.3c0,0.1,0,0.3,0,0.4c0,0.2,0,0.3,0,0.4c-0.3,3-1,6.4-0.9,9.5v0.4
	c0,0.1,0,0.3,0,0.4l0,0c0,0.4,0.1,0.8,0.1,1.2c0,0.2,0.1,0.4,0.1,0.6c0.1,0.5,0.2,1,0.4,1.5c0.1,0.2,0.1,0.4,0.2,0.7
	c0.6,1.5,1.5,2.8,2.6,3.9c0.2-0.2,0.5-0.3,0.7-0.5C70.5,83.6,70.7,83.5,70.8,83.4z M75.8,78.8l0.3-0.4l0.3-0.4l0,0
	c0.1-0.1,0.2-0.3,0.3-0.4s0.2-0.3,0.3-0.4c0.5-0.6,0.9-1.3,1.1-2c-0.5-4.1-2.2-7.9-4.8-11.1c-0.1-0.1-0.2-0.2-0.3-0.3l-0.3-0.3
	c-0.5-0.5-1.1-1-1.7-1.4c0,0.7-0.1,1.3-0.2,2c0,0.1,0,0.3-0.1,0.4s0,0.3-0.1,0.4c-0.1,0.3-0.1,0.7-0.2,1c0,0.1-0.1,0.3-0.1,0.4
	s-0.1,0.3-0.1,0.5c-0.4,1.9-0.5,3.8-0.4,5.7c0.2,2.5,1,4.8,2.3,6.9l0.2,0.3l0.2,0.3c0.2,0.4,0.5,0.7,0.8,1.1
	C74.3,80.3,75.1,79.5,75.8,78.8z M78.8,74.3v0.1h0.1l0.1,0c0.4-0.1,0.8-0.3,1.1-0.5c0.1,0,0.1-0.1,0.1-0.1c0.1-0.1,0.2-0.1,0.2-0.2
	l0,0c0,0,0,0,0.1-0.1c0.1-0.1,0.2-0.2,0.3-0.3c0.1-0.1,0.2-0.3,0.3-0.4c0.1-0.2,0.3-0.4,0.4-0.7c0.1-0.2,0.2-0.3,0.2-0.5l0.1-0.2v0
	c0,0,0,0,0,0h-0.3c-0.3,0-0.5,0-0.8,0.1c-0.1,0-0.3,0.1-0.4,0.1c-0.1,0-0.2,0.1-0.4,0.2l-0.1,0c-0.6,0.3-1.1,0.7-1.4,1.3
	c0,0.1,0,0.3,0.1,0.5S78.7,74.2,78.8,74.3z M82.1,59.4c-1-1.4-2.2-2.6-3.6-3.6L78,55.5c0,0.8-0.1,1.7-0.2,2.6
	c-0.1,1.1-0.2,2.3-0.2,3.4v1.2c0,0.3,0,0.5,0.1,0.8c0.3,2.6,1,5.2,2.1,7.6l0,0l0.1-0.1c0.1-0.1,0.2-0.1,0.4-0.1
	c0.1,0,0.2-0.1,0.4-0.1c0.2-0.1,0.4-0.1,0.7-0.1c-1.3-2-1.5-4.5-0.6-6.6C80.8,62.4,81.3,60.8,82.1,59.4z"/>
<path fill="#FCB816" d="M15,32.4c-0.1,0.2-0.2,0.3-0.3,0.5c-0.3,0.5-0.5,1-0.5,1.6c0.2-0.3,0.5-0.5,0.9-0.5c0.4,0,0.7,0.2,0.9,0.6
	c0,0.2,0.1,0.3,0.2,0.4c0.1,0.1,0.3,0.2,0.5,0.2c0.2-0.6,0.4-1.3,0.3-2c0-0.7-0.2-1.4-0.4-2c0,0-0.5,0.3-0.6,0.3
	c-0.2,0.1-0.4,0.3-0.5,0.4C15.3,32,15.1,32.2,15,32.4z M15.2,31.2c0,0.1-0.1,0.2-0.1,0.4l0.2-0.2l0.1-0.1h0l0.1,0
	c0.1,0,0.1-0.1,0.2-0.1c0.1-0.1,0.2-0.1,0.3-0.2c0.1,0,0.1-0.1,0.2-0.1l0.1-0.1l0.1,0h0l0.2-0.1l0.3-0.1l0,0l0.1,0.3l0,0.1l0,0.1
	l0,0c0,0.1,0,0.2,0.1,0.2v0c0,0.1,0.1,0.3,0.1,0.4c0,0,0,0.1,0,0.1c0,0.1,0,0.2,0.1,0.3v0c0,0.1,0,0.2,0,0.3l0,0c0,0.1,0,0.1,0,0.1
	c0-0.1,0.1-0.1,0.1-0.2c0,0,0,0,0-0.1c0-0.1,0.1-0.2,0.1-0.2s0-0.1,0.1-0.2c0-0.1,0.1-0.3,0.1-0.4c0-0.2,0-0.4,0-0.6v-0.3l0,0v-0.3
	c0-0.1,0-0.2,0-0.3c0-0.2-0.1-0.3-0.1-0.5v-0.1c0-0.1,0-0.1,0-0.2c0,0,0,0,0-0.1l0,0l-0.1-0.2l-0.1-0.1c0,0,0-0.1,0-0.1h-0.2
	l-0.1,0.1h0l-0.1,0L17,28.8c-0.2,0.1-0.3,0.2-0.4,0.3l-0.1,0c-0.1,0.1-0.2,0.1-0.3,0.2c-0.1,0.1-0.2,0.2-0.2,0.2l-0.1,0.1
	c-0.1,0.1-0.2,0.2-0.2,0.3c-0.1,0.1-0.2,0.3-0.2,0.4l-0.1,0.2c-0.1,0.1-0.1,0.3-0.1,0.4L15.2,31.2z M17.8,40.5L17.8,40.5
	c0.2-0.1,0.3-0.2,0.4-0.2l0.1,0l0.5-0.3c1-1.5,1.4-3.7,1.4-5.4v-0.3l-0.1,0.1L20,34.3c-0.2,0.2-0.4,0.3-0.6,0.4c0,0-0.1,0.1-0.1,0.1
	c-0.3,0.2-0.5,0.3-0.8,0.4c0,0,0.1,0,0.1,0.1c0.1,0.1,0.1,0.1,0.2,0.2c0,0.1,0.1,0.2,0.1,0.2c0,0.1,0,0.3,0,0.4c0,0,0,0.1,0,0.1
	c0,0,0,0.1,0,0.1c0,0.1,0.1,0.1,0.2,0.2l0.1,0.1c0.3,0.2,0.4,0.6,0.3,0.9c-0.1,0.4-0.4,0.7-0.8,0.8h-0.1c-0.1,0-0.1,0-0.1,0.1
	c-0.1,0.1-0.1,0.2-0.1,0.2c-0.1,0.2-0.1,0.3-0.2,0.4v0c-0.1,0.1-0.1,0.1-0.2,0.1c-0.1,0-0.2,0.1-0.2,0.1l-0.1,0h-0.2
	c0,0-0.1,0-0.1,0c-0.3-0.1-0.5-0.2-0.7-0.5c-0.1-0.1-0.2-0.2-0.3-0.2c-0.3-0.2-0.4,0-0.8,0c-0.2,0-0.5-0.1-0.6-0.2l-0.1-0.1
	c-0.2,1.2-0.3,2.4-0.3,3.6c0.3-0.5,0.8-0.8,1.3-1c-0.5,0.4-0.8,1-1.1,1.6c-0.1,0-0.3,0.1-0.4,0.2c0.4-0.1,0.8-0.1,1.1,0l0.1-0.1
	C16.1,41.8,16.9,41.1,17.8,40.5z M18.9,21.8c-0.1-0.1-0.2-0.3-0.2-0.4l-0.1-0.1l0,0c-0.4,0.5-0.7,1-1,1.6c-0.1,0.4-0.2,0.8-0.3,1.2
	l0.1,0.2c0.1,0.2,0.3,0.5,0.4,0.7l0.1-0.1c0.1-0.7,0.4-1.3,0.9-1.7c0.1-0.1,0.2-0.1,0.2-0.2c0.1-0.1,0.1-0.1,0.2-0.2v0
	c0,0,0-0.1,0-0.1c0,0,0-0.1-0.1-0.2C19.1,22.3,19,22.1,18.9,21.8C18.9,21.9,18.9,21.9,18.9,21.8z M19.2,21.3
	C19.2,21.3,19.2,21.4,19.2,21.3c0.2,0.3,0.3,0.5,0.4,0.7c0,0,0-0.1,0.1-0.1c0.1-0.1,0.2-0.3,0.3-0.4c0.1-0.1,0.2-0.2,0.3-0.3
	c0.1-0.1,0.2-0.1,0.4-0.2c0-0.2,0-0.4,0-0.5c0-0.1,0-0.2,0-0.3c0-0.2-0.1-0.3-0.2-0.5c0-0.1-0.2-0.4-0.2-0.5
	C19.6,19.8,19.2,20.5,19.2,21.3z M21.1,21.5c-0.1,0-0.2,0.1-0.3,0.1c-0.1,0.1-0.2,0.1-0.3,0.2c-0.1,0.1-0.2,0.2-0.3,0.3
	c-0.1,0.1-0.2,0.3-0.3,0.4l0,0.1h0.1l0.2-0.1l0.1,0l0.3-0.1l0,0l0,0.1v0.1l0,0.2v0l0,0l0,0.1v0.2c0,0.1,0,0.1,0,0.2c0,0,0,0,0,0l0,0
	c0.1-0.2,0.2-0.4,0.3-0.5l0-0.1c0-0.1,0-0.2,0.1-0.3c0-0.1,0-0.2,0-0.3c0-0.1,0-0.2,0-0.4C21.1,21.6,21.1,21.5,21.1,21.5L21.1,21.5z
	 M22.6,22c-0.1,0-0.3,0-0.4,0.1c-0.2,0-0.3,0.1-0.5,0.2c0,0.1,0,0.2-0.1,0.3c0,0.1-0.1,0.3-0.1,0.4c-0.1,0.3-0.3,0.6-0.5,0.9
	c0.2-0.1,0.5-0.1,0.8-0.1c0.1,0,0.3,0,0.4,0c0.6-0.4,1-1.1,1.2-1.8c-0.2,0-0.3,0-0.5,0C22.7,21.9,22.7,22,22.6,22z M20.3,33.5
	L20.3,33.5c0.7-0.8,1.1-1.8,1.2-2.8c-0.2,0-0.4,0-0.5,0c-0.2,0-0.5,0.1-0.7,0.1c-0.1,0-0.3,0.1-0.4,0.1c-0.2,0.1-0.5,0.1-0.7,0.2
	c-0.1,0-0.1,0.1-0.2,0.1c-0.2,0.1-0.5,0.2-0.7,0.4v0.1c0,0.1,0,0.2-0.1,0.3c0,0.1-0.1,0.2-0.1,0.3c-0.1,0.3-0.2,0.6-0.4,0.8
	c-0.1,0.1-0.1,0.2-0.2,0.2v0.2c0,0.6-0.1,1.2-0.4,1.7l0.3-0.1c0.8-0.3,1.6-0.8,2.3-1.3C19.9,33.8,20.1,33.6,20.3,33.5z M21.1,20.1
	c0.1,0.3,0.1,0.5,0.1,0.8l0.3-0.1l0,0.2l0.1,0.3c0,0.1,0,0.2,0.1,0.3l0.2-0.1c0.1,0,0.2-0.1,0.3-0.1c0.2-0.3,0.3-0.5,0.3-0.8
	c0.1-0.4,0.1-0.8,0.1-1.1l0,0C22.1,19.6,21.5,19.8,21.1,20.1z M17.8,27c-0.1,0.1-0.2,0.1-0.3,0.2c-0.2,0.2-0.4,0.3-0.5,0.5
	c-0.2,0.3-0.3,0.6-0.4,0.9c0.4-0.2,0.8-0.4,1.2-0.6c0.2,0.5,0.3,1,0.4,1.5c0.2-0.4,0.3-0.9,0.3-1.3c0-0.5-0.1-0.9-0.3-1.3L17.8,27
	L17.8,27z M22.4,24.7c0-0.1,0.1-0.2,0.1-0.3c-0.1,0-0.2-0.1-0.3-0.1l-0.2,0c-0.1,0-0.2,0-0.3,0h0c-0.4,0-0.7,0.1-1,0.3v0
	c0,0.1,0,0.2-0.1,0.3c-0.1,0.5-0.4,0.9-0.7,1.2l0,0.1c0,0.1,0,0.2,0,0.3c0,0.1,0,0.2-0.1,0.4c0.3-0.1,0.6-0.1,0.9-0.1h0.5
	c0.1-0.1,0.2-0.2,0.3-0.3C21.9,25.9,22.2,25.3,22.4,24.7z M18.1,25.5L18.1,25.5c0,0.2,0,0.3,0,0.3s0.1,0.3,0.1,0.4l0.2-0.1h0.1
	l0.1,0l0.1,0.2l0,0.1l0.1,0.2l0,0.1c0,0,0,0.1,0,0.1c0,0,0,0,0,0v0.1c0,0.1,0,0.2,0.1,0.3L19,27l0.1,0c0.1-0.1,0.1-0.3,0.1-0.4
	c0-0.1,0-0.2,0.1-0.3l0,0c0-0.1,0-0.2,0-0.3v-0.4c0-0.1,0-0.2,0-0.4l0,0l-0.1-0.3l0,0l-0.1,0l0,0l-0.2,0.1c-0.2,0.1-0.4,0.2-0.5,0.3
	C18.2,25.3,18.2,25.4,18.1,25.5z M18.6,30.9c0.2-0.1,0.4-0.2,0.7-0.3c0.3-0.1,0.5-0.2,0.8-0.2c0.7-0.9,1.2-2,1.3-3.2h-1
	c-0.3,0-0.6,0.1-0.8,0.2h0c-0.1,0-0.2,0.1-0.3,0.1l0,0L19,27.5c0,0.1,0,0.1,0,0.2c0,0,0,0.1,0,0.1c0,0.1,0,0.2,0,0.2c0,0,0,0,0,0
	v0.3l0,0v0.3c-0.1,0.6-0.3,1.1-0.6,1.6c0,0.3,0,0.5,0,0.8L18.6,30.9z M19.7,23.2L19.7,23.2l-0.1,0.1l-0.1,0.1l0,0l-0.1,0.1l-0.1,0.1
	l-0.1,0.1c-0.1,0.1-0.2,0.1-0.2,0.2c-0.2,0.2-0.3,0.4-0.4,0.7c0.2-0.1,0.3-0.2,0.5-0.2h0l0.3-0.1h0l0.2-0.1h0v0.1l0,0l0,0.2l0.1,0.3
	l0,0v0.1c0,0.1,0,0.1,0,0.2c0,0,0,0,0,0c0,0,0,0,0,0v0.1c0,0,0,0.1,0,0.1c0,0,0,0,0,0.1c0-0.1,0.1-0.1,0.1-0.2c0-0.1,0-0.1,0.1-0.2
	c0-0.1,0-0.1,0.1-0.1c0,0,0-0.1,0-0.1c0,0,0-0.1,0-0.1l0-0.2l0,0c0-0.1,0-0.1,0-0.2l0,0v-0.5c0-0.1,0-0.2,0-0.3v-0.1l0-0.1l0,0
	l0-0.1l-0.1,0l-0.1,0l0,0l0,0L19.7,23.2L19.7,23.2z M11.1,40.7l0.2,0.2l0.1,0.1c0.3,0.3,0.6,0.5,0.9,0.8c0.3,0.3,0.6,0.5,0.8,0.9
	c0.4-0.1,0.7,0,1.1,0.2c-0.1-0.1-0.2-0.3-0.3-0.3c-0.2-0.6-0.6-1.2-1-1.7c0.5,0.3,1,0.7,1.3,1.3c0-1.2,0.1-2.4,0.3-3.6
	c-0.1,0-0.2,0.1-0.3,0.1c-0.2,0.1-0.3,0.3-0.6,0.3c-0.1,0-0.2,0-0.3,0c-0.1,0-0.1,0-0.2,0H13c-0.1,0-0.2,0.1-0.2,0.1
	c-0.2,0.2-0.4,0.3-0.7,0.3c-0.1,0-0.2,0-0.3-0.1h0c-0.1,0-0.2-0.1-0.2-0.1c-0.2-0.2-0.4-0.5-0.4-0.7c0-0.1,0-0.1,0-0.2
	c0-0.1-0.1-0.1-0.2-0.2c-0.3-0.2-0.5-0.6-0.5-0.9c0-0.1,0-0.3,0.1-0.4c0.1-0.1,0.1-0.2,0.2-0.3c-0.1-0.4-0.2-0.9-0.2-1.3
	c-0.9,1.4-0.9,3.4-0.3,4.9C10.4,40.1,10.8,40.4,11.1,40.7z M11.1,35.9c0-0.1,0.1-0.1,0.1-0.2c0.1-0.4,0.3-0.7,0.7-0.8
	c0.1,0,0.2,0,0.3,0c0.1,0,0.2,0,0.2,0c0.1,0,0.2,0.1,0.3,0.2l0,0c0.2-0.2,0.5-0.4,0.8-0.4c0-0.2,0-0.4,0.1-0.6
	c-0.8-1.3-1.3-2.7-1.5-4.2C12.2,30,10.1,32.1,11.1,35.9L11.1,35.9z M17.1,24.8L17,24.6l-0.2-0.3l-0.1-0.1c0-0.1-0.2-0.4-0.3-0.5
	c-0.9,1-1.4,2.2-1.4,3.5l0.1,0.3c0.1,0.2,0.2,0.4,0.3,0.6c0.1,0.4,0.2,0.8,0.3,1.1c0.1-0.1,0.1-0.1,0.2-0.2c0.1-0.7,0.3-1.3,0.8-1.9
	c0.1-0.1,0.1-0.1,0.2-0.2l0,0c0.1-0.1,0.2-0.1,0.2-0.2l0,0c0.1-0.1,0.2-0.1,0.3-0.2l0.2-0.1c0-0.1,0-0.2-0.1-0.3
	c0-0.1-0.1-0.2-0.1-0.4c0-0.1-0.1-0.2-0.1-0.3c-0.1-0.2-0.2-0.4-0.2-0.5L17.1,24.8z M13.1,31.7c0.1,0.1,0.1,0.3,0.2,0.4
	c0.1,0.1,0.2,0.4,0.3,0.6s0.2,0.3,0.2,0.5c0,0,0,0.1,0.1,0.1l0,0.1l0,0l0-0.1l0.1-0.2c0-0.1,0-0.1,0.1-0.2c0,0,0,0,0,0l0-0.1
	c0.1-0.2,0.3-0.5,0.4-0.7c0-0.1,0-0.3,0-0.4c0-0.4,0.1-0.7,0.3-1.1c0-0.1,0.1-0.3,0.2-0.4c0.1-0.1,0.1-0.2,0.2-0.3
	c0.1-0.1,0.1-0.2,0.2-0.3c-0.1-0.3-0.1-0.6-0.2-0.9c-0.1-0.2-0.1-0.3-0.2-0.5c0-0.1,0-0.1-0.1-0.2s-0.1-0.2-0.2-0.4
	c-0.3-0.6-0.7-1.2-1-1.7c-0.7,0.9-1.2,3.1-0.9,4.8C12.9,31.1,13,31.4,13.1,31.7z M19.7,17.5c3.6-4.8,8.2-8.8,13.5-11.7
	c5.3-2.9,11.2-4.4,17.2-4.4h0.2c6,0,11.9,1.5,17.2,4.4c5.3,2.9,9.8,6.9,13.5,11.7c2.1,2.7,3.8,5.5,5.3,8.6l0.3-0.5
	c-1.4-3-3.2-5.8-5.2-8.5c-3.6-4.9-8.3-9-13.6-12c-5.4-3-11.4-4.6-17.5-4.6h-0.2c-6.1,0-12.2,1.6-17.5,4.6c-5.3,3-10,7.1-13.6,12
	c-2,2.6-3.7,5.5-5.2,8.5l0.3,0.5C15.9,23,17.6,20.1,19.7,17.5z M79.6,49.6l-8.4,2.7c-0.8-2.1-2-4-3.3-5.7l12.6-9.7
	c-0.2-1.1-0.3-2.2-0.2-3.2L66.9,45.4c-1.4-1.5-3-2.9-4.7-4L74,22c0.4,0.5,0.9,1.1,1.3,1.6c1.5,2.1,2.8,4.3,4,6.6h0.6
	c-1.1-2.4-2.5-4.8-4-7c-0.4-0.6-1-1.3-1.5-1.9c-0.1-0.2-0.3-0.4-0.4-0.5c-2.5-3.1-5.6-5.7-9-7.7c-4.3-2.6-9.3-3.9-14.3-4h-0.2
	c-5,0-10,1.4-14.3,4c-3.4,2-6.5,4.6-9,7.7c-0.1,0.2-0.3,0.4-0.4,0.5c-0.5,0.6-1,1.2-1.5,1.9c-1.5,2.2-2.9,4.5-4,7h0.6
	c1.1-2.3,2.4-4.5,4-6.6c0.4-0.6,0.9-1.1,1.3-1.6l11.9,19.5c-1.7,1.1-3.3,2.4-4.7,4L20.7,33.6c0.1,1.1,0,2.2-0.2,3.2l12.6,9.7
	c-1.4,1.7-2.5,3.7-3.4,5.7l-8.4-2.7c0,0.9-0.1,1.7-0.2,2.6l7.9,2c-0.6,1.8-0.9,3.6-1.1,5.4l1.7-0.7c1.4-11,10.2-19.3,20.8-19.3h0.2
	c10.5,0,19.3,8.2,20.8,19.3l1.7,0.7c-0.2-1.8-0.5-3.7-1.1-5.4l7.9-2C79.7,51.3,79.6,50.5,79.6,49.6z M40.4,40.5L28.7,20
	c0.6-0.6,1.2-1.3,1.8-1.9c1.8-1.7,3.8-3.1,5.9-4.3c1.2-0.7,2.5-1.3,3.8-1.8L46,38.5C44,38.9,42.1,39.6,40.4,40.5z M50.6,38.1h-0.2
	c-0.9,0-1.9,0.1-2.8,0.2l-4.8-27.2c2.4-0.7,5-1.1,7.5-1.1h0.2c2.5,0,5.1,0.4,7.5,1.1l-4.8,27.2C52.5,38.1,51.6,38.1,50.6,38.1z
	 M55,38.5l5.7-26.6c1.3,0.5,2.6,1.1,3.8,1.8c2.1,1.2,4.1,2.7,5.9,4.3c0.6,0.6,1.2,1.2,1.8,1.9L60.6,40.5C58.9,39.6,57,38.9,55,38.5z
	 M86.8,34.1c-0.1-0.6-0.4-1.2-0.8-1.7c-0.4-0.5-0.9-1-1.5-1.2l-0.1,0c-0.3,1-0.4,2-0.3,3c0,0.3,0.1,0.6,0.2,0.8c0,0,0,0.1,0,0.1
	c0,0,0,0.1,0.1,0.1h0c0.1,0,0.1,0,0.2-0.1c0.2,0,0.3-0.2,0.3-0.3c0.1-0.2,0.1-0.3,0.3-0.5c0.3-0.3,0.6-0.4,1-0.3
	c0.3,0.1,0.5,0.3,0.7,0.5l0,0C86.8,34.4,86.8,34.2,86.8,34.1z M85.8,31.1c0-0.1-0.1-0.3-0.1-0.4c0-0.1,0-0.1-0.1-0.2
	c-0.1-0.1-0.1-0.3-0.2-0.4c-0.1-0.1-0.1-0.2-0.2-0.3L85,29.7c-0.1-0.1-0.2-0.2-0.2-0.2c-0.1-0.1-0.2-0.2-0.3-0.2l-0.1,0
	c-0.1-0.1-0.3-0.2-0.4-0.3l-0.1-0.1l-0.1,0h0l-0.1-0.1h-0.2c0,0,0,0.1,0,0.1v0.1c0,0.1,0,0.1-0.1,0.2l0,0v0.1c0,0.1,0,0.1,0,0.2
	c0,0,0,0,0,0.1c0,0.2-0.1,0.3-0.1,0.5l0,0.3v0.3l0,0v0.3c0,0.2,0,0.4,0,0.6c0,0.1,0,0.3,0.1,0.4c0,0.1,0,0.1,0.1,0.2
	c0,0.1,0.1,0.2,0.1,0.2l0,0.1c0,0.1,0.1,0.1,0.1,0.2v-0.1l0,0c0-0.1,0-0.2,0-0.3v0c0-0.1,0-0.2,0.1-0.3c0-0.1,0-0.1,0-0.1
	c0-0.1,0.1-0.3,0.1-0.4v0c0-0.1,0-0.2,0.1-0.2l0,0l0-0.1l0-0.1l0.1-0.3l0,0l0.3,0.1l0.2,0.1h0l0.1,0l0.1,0.1l0.2,0.1
	c0.1,0,0.2,0.1,0.3,0.2l0.2,0.1l0.1,0l0,0l0.1,0.1l0.2,0.2c0-0.1,0-0.2-0.1-0.4L85.8,31.1z M86.3,42.6c-0.2-0.6-0.6-1.1-1.1-1.6
	c0.5,0.2,1,0.6,1.3,1c0-1.2-0.1-2.4-0.3-3.6c0,0-0.1,0.1-0.1,0.1c-0.2,0.1-0.4,0.2-0.6,0.2c-0.3,0-0.5-0.1-0.8,0
	c-0.1,0.1-0.2,0.1-0.3,0.2c-0.1,0.3-0.4,0.4-0.7,0.5c0,0-0.1,0-0.1,0h-0.2l-0.1,0c-0.1,0-0.2-0.1-0.2-0.1c-0.1,0-0.1-0.1-0.2-0.1
	l0,0c-0.1-0.1-0.2-0.3-0.3-0.4c0-0.1-0.1-0.2-0.1-0.2c0,0-0.1-0.1-0.1-0.1h-0.1c-0.4-0.1-0.7-0.4-0.8-0.8c-0.1-0.3,0-0.7,0.3-0.9
	l0.1-0.1c0.1-0.1,0.1-0.1,0.2-0.2c0,0,0-0.1,0-0.1v-0.1c0-0.1,0-0.3,0-0.4c0-0.1,0.1-0.2,0.1-0.2c0-0.1,0.1-0.1,0.2-0.2
	c0,0,0.1-0.1,0.1-0.1c-0.2-0.1-0.5-0.3-0.8-0.4c0,0-0.1-0.1-0.1-0.1c-0.2-0.1-0.4-0.3-0.6-0.4l-0.1-0.1l-0.1-0.1v0.3
	c0,1.7,0.3,3.9,1.4,5.4l0.5,0.3l0.1,0l0.4,0.2l0.1,0c0.9,0.5,1.7,1.3,2.3,2.1l0.1,0.1c0.4-0.1,0.8-0.1,1.1,0
	C86.6,42.7,86.4,42.6,86.3,42.6z M82.5,21.3L82.5,21.3c-0.1,0.1-0.1,0.1-0.1,0.2c-0.1,0.1-0.2,0.3-0.3,0.4c0,0,0,0,0,0
	c-0.1,0.2-0.2,0.4-0.3,0.6l-0.1,0.2c0,0,0,0.1,0,0.1c0,0,0,0,0,0c0.1,0,0.2,0.1,0.2,0.2c0.1,0.1,0.2,0.1,0.2,0.2
	c0.5,0.4,0.8,1.1,0.9,1.7l0.1,0.1c0.1-0.2,0.2-0.5,0.4-0.7l0.1-0.2c-0.1-0.4-0.2-0.8-0.3-1.2C83.2,22.3,82.9,21.8,82.5,21.3z
	 M80.8,19.3c-0.1,0.1-0.2,0.4-0.2,0.5s-0.1,0.1-0.1,0.2c0,0.1-0.1,0.2-0.1,0.3c0,0.1,0,0.2,0,0.3c0,0.2,0,0.4,0,0.5
	c0.1,0.1,0.2,0.1,0.4,0.2c0.1,0.1,0.2,0.2,0.3,0.3c0.1,0.1,0.2,0.2,0.3,0.4c0,0,0,0.1,0.1,0.1c0.1-0.2,0.2-0.4,0.3-0.6
	c0,0,0-0.1,0-0.1C81.8,20.5,81.4,19.8,80.8,19.3z M80.9,22.1c-0.1-0.1-0.2-0.2-0.3-0.3c-0.1-0.1-0.2-0.2-0.3-0.2
	c-0.1,0-0.2-0.1-0.3-0.1h0c0,0,0,0.1,0,0.1c0,0.1,0,0.2,0,0.4c0,0.1,0,0.2,0,0.3c0,0.1,0,0.2,0.1,0.3c0,0,0,0.1,0,0.1
	c0,0.1,0.1,0.1,0.1,0.2c0.1,0.1,0.1,0.2,0.2,0.3l0,0v0c0-0.1,0-0.1,0-0.2V23c0,0,0-0.1,0-0.1l0-0.1l0,0v0l0-0.2v-0.1l0-0.1l0,0
	l0.3,0.1l0.1,0l0.2,0.1h0.1l0-0.1C81,22.4,81,22.2,80.9,22.1z M77.7,22c0.1,0.7,0.5,1.4,1.2,1.8c0.1,0,0.3,0,0.4,0
	c0.3,0,0.5,0,0.8,0.1c-0.2-0.3-0.4-0.6-0.5-0.9c-0.1-0.1-0.1-0.3-0.1-0.4c0-0.1,0-0.2-0.1-0.3c-0.2-0.1-0.3-0.1-0.5-0.2
	c-0.1,0-0.3-0.1-0.4-0.1h-0.2C78.1,22,77.9,22,77.7,22z M83.5,33.4c-0.1-0.1-0.1-0.2-0.2-0.2c-0.2-0.3-0.3-0.5-0.4-0.8
	c0-0.1-0.1-0.2-0.1-0.3c0-0.1-0.1-0.2-0.1-0.3v-0.1c-0.2-0.1-0.4-0.3-0.7-0.4c-0.1,0-0.1-0.1-0.2-0.1c-0.2-0.1-0.5-0.2-0.7-0.2
	c-0.1,0-0.3-0.1-0.4-0.1c-0.2,0-0.5-0.1-0.7-0.1c-0.2,0-0.4,0-0.5,0c0.1,1,0.5,1.9,1.2,2.7l0,0c0.2,0.2,0.4,0.3,0.6,0.5
	c0.7,0.5,1.5,1,2.3,1.3l0.3,0.1c-0.2-0.6-0.3-1.1-0.4-1.7C83.5,33.6,83.5,33.5,83.5,33.4z M78.4,19.6c0,0.4,0,0.8,0.1,1.1
	c0.1,0.3,0.2,0.6,0.3,0.8c0.1,0,0.2,0,0.3,0.1l0.2,0.1c0-0.1,0-0.2,0.1-0.3l0.1-0.3l0-0.2l0.3,0.1c0-0.3,0-0.5,0.1-0.8
	C79.5,19.8,79,19.6,78.4,19.6z M83.2,27l0.3,0.2c0.2,0.2,0.4,0.3,0.5,0.5c0.2,0.3,0.3,0.6,0.4,0.9c-0.4-0.2-0.8-0.4-1.2-0.6
	c-0.2,0.5-0.3,1-0.4,1.5c-0.2-0.4-0.3-0.9-0.3-1.3c0-0.5,0.1-0.9,0.3-1.3L83.2,27L83.2,27z M80.1,26.6h0.3c0.3,0,0.6,0.1,0.9,0.1
	c0-0.1-0.1-0.2-0.1-0.4c0-0.1,0-0.2,0-0.3l0-0.1c-0.3-0.3-0.6-0.8-0.7-1.2c0-0.1-0.1-0.2-0.1-0.3v0c-0.3-0.2-0.7-0.3-1-0.3h0
	c-0.1,0-0.2,0-0.3,0l-0.2,0c-0.1,0-0.2,0.1-0.3,0.1c0,0.1,0.1,0.2,0.1,0.3c0.2,0.6,0.6,1.2,1,1.7c0.1,0.1,0.2,0.2,0.3,0.3L80.1,26.6
	z M82.7,25.2c-0.2-0.1-0.3-0.2-0.5-0.3l-0.2-0.1l0,0l-0.1,0l0,0c0,0.1,0,0.2,0,0.3l0,0c0,0.1,0,0.2,0,0.4c0,0.1,0,0.2,0,0.3v0.2
	c0,0.1,0,0.2,0,0.3l0,0c0,0.1,0,0.2,0.1,0.3c0,0.1,0.1,0.3,0.1,0.4l0.1,0l0.2,0.1c0-0.1,0-0.2,0.1-0.3c0,0,0,0,0-0.1v0
	c0,0,0,0,0-0.1l0-0.1l0.1-0.2v-0.1l0.1-0.2l0.1,0h0.1l0.2,0.1c0-0.1,0.1-0.3,0.1-0.4s0.1-0.2,0.1-0.3l-0.1-0.1
	C82.8,25.4,82.7,25.3,82.7,25.2z M81.8,30.6c0.2,0.1,0.4,0.2,0.7,0.3c0.1,0,0.1,0.1,0.2,0.1c0-0.3,0-0.5,0-0.8
	c-0.4-0.5-0.6-1-0.6-1.6v-0.3l0,0v-0.3c0-0.1,0-0.2,0-0.2v-0.3l-0.2-0.1l0,0c-0.1,0-0.2-0.1-0.3-0.1h-0.1c-0.3-0.1-0.5-0.1-0.8-0.2
	h-0.2c-0.1,0-0.3,0-0.4,0h-0.4c0.1,1.2,0.6,2.3,1.3,3.2C81.3,30.5,81.5,30.5,81.8,30.6z M81.9,23.6l-0.1-0.1l-0.1-0.1l-0.1-0.1l0,0
	l-0.1-0.1l-0.1-0.1h-0.1l-0.2-0.1H81l-0.1,0l-0.1,0l0,0.1l0,0l0,0.1c0,0,0,0,0,0.1c0,0,0,0,0,0.1c0,0.1,0,0.2,0,0.3v0.4
	c0,0,0,0.1,0,0.1l0,0l0,0.2l0,0l0,0.2l0,0.1c0,0,0,0.1,0,0.1c0,0,0,0.1,0.1,0.1s0,0.1,0.1,0.2s0.1,0.1,0.1,0.2V25c0,0,0,0,0,0v0
	c0-0.1,0-0.1,0-0.2c0-0.1,0,0,0-0.1v-0.1l0,0l0.1-0.3l0-0.2l0,0v-0.1h0l0.2,0.1h0l0.3,0.1h0c0.2,0.1,0.3,0.1,0.5,0.2
	c-0.1-0.2-0.2-0.5-0.4-0.7C82,23.7,81.9,23.7,81.9,23.6z M90.6,36.5c0.1,0.1,0.1,0.3,0.1,0.4c0,0.4-0.2,0.8-0.5,0.9
	c-0.1,0-0.1,0.1-0.2,0.2c0,0.1,0,0.1,0,0.2c0,0.3-0.1,0.6-0.4,0.7c-0.1,0.1-0.2,0.1-0.3,0.1h0c-0.1,0-0.2,0.1-0.3,0.1
	c-0.3,0-0.5-0.1-0.7-0.3c-0.1-0.1-0.1-0.1-0.2-0.1h0c-0.1,0-0.1,0-0.2,0c-0.1,0-0.2,0-0.3,0c-0.3,0-0.5-0.2-0.6-0.3
	c-0.1,0-0.2-0.1-0.3-0.1c0.2,1.2,0.3,2.4,0.3,3.6c0.3-0.5,0.8-0.9,1.3-1.3c-0.4,0.5-0.8,1.1-1,1.7c-0.2,0-0.3,0.1-0.3,0.3
	c0.3-0.2,0.7-0.3,1.1-0.2c0.2-0.3,0.5-0.6,0.8-0.9c0.3-0.3,0.6-0.5,0.9-0.8l0.1-0.1l0.2-0.2c0.3-0.3,0.8-0.7,1.1-0.9
	c0.6-1.4,0.5-3.5-0.3-4.9c0,0.5-0.1,0.9-0.2,1.3C90.4,36.3,90.5,36.4,90.6,36.5z M87.4,34.8c0.3,0,0.6,0.1,0.8,0.4l0,0
	c0.1-0.1,0.2-0.2,0.3-0.2c0.1,0,0.1,0,0.2,0c0.5,0,0.9,0.4,1,0.9c0,0.1,0,0.2,0.1,0.2l0,0c1-3.9-1.1-6-1.1-6
	c-0.2,1.5-0.7,2.9-1.5,4.2C87.4,34.4,87.4,34.6,87.4,34.8z M85.9,27.2c0-1.3-0.5-2.5-1.4-3.5c-0.1,0.1-0.2,0.4-0.3,0.5l-0.1,0.1
	l-0.2,0.3l-0.2,0.3L83.8,25c-0.1,0.2-0.2,0.4-0.2,0.5c0,0.1-0.1,0.2-0.1,0.3s-0.1,0.2-0.1,0.4c0,0.1,0,0.2-0.1,0.3l0.2,0.1
	c0.1,0.1,0.2,0.1,0.3,0.2l0,0c0.1,0.1,0.2,0.1,0.2,0.2c0,0,0,0,0,0l0.2,0.2c0.5,0.5,0.8,1.2,0.8,1.9c0.1,0.1,0.1,0.1,0.2,0.2
	c0.1-0.4,0.2-0.8,0.3-1.1c0.1-0.2,0.2-0.4,0.3-0.6C85.9,27.4,85.9,27.3,85.9,27.2z M86.1,28.1c0,0.1,0,0.1-0.1,0.2
	c-0.1,0.2-0.1,0.3-0.2,0.5c-0.1,0.3-0.2,0.6-0.2,0.9c0.1,0.1,0.1,0.2,0.2,0.3c0.1,0.1,0.1,0.2,0.2,0.3c0.1,0.1,0.1,0.2,0.2,0.4
	c0.1,0.4,0.2,0.7,0.3,1.1c0,0.1,0,0.3,0,0.4c0.2,0.2,0.3,0.4,0.4,0.7l0,0.1c0,0,0,0,0,0l0.1,0.2c0,0.1,0.1,0.1,0.1,0.2l0,0.1l0,0
	l0-0.1l0.1-0.1l0.2-0.5c0.1-0.2,0.2-0.4,0.3-0.6c0.1-0.2,0.1-0.3,0.2-0.4c0.1-0.3,0.2-0.6,0.3-0.9c0.4-1.8-0.2-3.9-0.9-4.8
	c-0.4,0.6-0.7,1.1-1,1.7C86.2,27.8,86.2,28,86.1,28.1z M67.6,7c-5.1-2.9-10.9-4.4-16.8-4.5h-0.5C44.3,2.6,38.5,4.2,33.4,7
	c-5.1,2.9-9.5,6.8-13,11.5l0.4,0.6c0-0.1,0.1-0.1,0.1-0.2c3.5-4.6,7.8-8.4,12.9-11.3c5-2.8,10.7-4.3,16.5-4.3h0.5
	c5.8,0,11.4,1.5,16.5,4.3c5,2.8,9.4,6.7,12.9,11.3c0,0.1,0.1,0.1,0.1,0.2l0.3-0.6C77.1,13.8,72.7,9.9,67.6,7z M66.6,9
	c-4.9-2.8-10.4-4.3-16-4.3h-0.2c-5.6,0-11.1,1.5-16,4.3c-4.4,2.5-8.3,5.9-11.4,9.9c0.1,0.3,0.1,0.6,0.1,1c3.2-4.1,7.2-7.6,11.7-10.2
	C39.6,7,44.9,5.6,50.4,5.6h0.2c5.5,0,10.9,1.4,15.7,4.1c4.5,2.6,8.5,6,11.7,10.2c0-0.3,0-0.7,0.1-1C74.9,14.9,71,11.6,66.6,9z
	 M65.8,11.1C61.2,8.4,56,7,50.6,7h-0.3C45,7,39.8,8.4,35.2,11.1c-4.5,2.6-8.4,6.1-11.4,10.4c0,0.6-0.1,1.1-0.4,1.6
	c0,0,0.5-0.7,0.8-1.1c3.1-4.2,7-7.7,11.4-10.3c4.5-2.6,9.6-3.9,14.7-4h0.3c5.2,0,10.3,1.4,14.8,4c4.5,2.6,8.4,6.1,11.5,10.3
	c0.3,0.4,0.8,1.1,0.8,1.1c-0.3-0.5-0.4-1.1-0.4-1.7C74.2,17.2,70.3,13.7,65.8,11.1z"/>
<path fill="#EE2424" d="M24.8,93.9l2.7-4c-1.1,0.8-2.4,1.2-3.8,1.2h-0.2c-1,0-1.9-0.2-2.8-0.6l-2.6,3c2.7,2.3,5.6,4.3,8.8,5.8
	C26.8,97.2,25.7,95.3,24.8,93.9L24.8,93.9z M27.7,98.8l2.2-2.1c-1.3-0.6-2.5-1.2-3.7-1.9C27,96,27.5,97.4,27.7,98.8z M77.4,91.1
	h-0.2c-1.4,0-2.7-0.5-3.8-1.2l2.7,4l0,0c-0.9,1.4-2,3.2-2.2,5.4c3.2-1.5,6.2-3.5,8.8-5.8l-2.6-3C79.3,90.9,78.4,91.1,77.4,91.1z
	 M71,96.7l2.2,2.1c0.3-1.4,0.8-2.8,1.5-4C73.5,95.5,72.3,96.1,71,96.7z M69.4,89.2c0.6-0.3,1.3-0.7,1.8-1L71,87.8l-0.2-0.3l-0.2-0.3
	L70.5,87l-0.2-0.3L70,86.3l-0.7-1l-0.1-0.1c-0.1,0.1-0.2,0.1-0.3,0.2h0c-1.4,0.8-2.8,1.5-4.3,2.1c-0.3,0.1-0.6,0.3-1,0.4
	c-3.9,1.4-8.1,2.1-13,2.1h-0.4c-4.9,0-9.1-0.7-13-2.1c-0.3-0.1-0.6-0.2-1-0.4c-1.5-0.6-2.9-1.3-4.3-2.1h0c-0.1-0.1-0.2-0.1-0.3-0.2
	l-0.1,0.1l-0.7,1l-0.2,0.3L30.5,87l-0.1,0.1l-0.2,0.3L30,87.8l-0.2,0.4c0.6,0.3,1.3,0.7,1.9,1.1c0.1-0.1,0.1-0.3,0.1-0.4
	c0-0.4-0.3-0.5-0.1-0.8s0.4-0.2,0.7-0.3h0c0.1-0.1,0.2-0.2,0.3-0.3c0.1-0.1,0.2-0.2,0.3-0.2c0.4,0,0.3,0.3,0.6,0.4
	c0.3,0.2,0.5,0,0.7,0.3c0,0.1,0.1,0.2,0.1,0.2c0,0.1-0.1,0.3-0.1,0.4c0,0.1,0,0.1,0,0.2c0,0.4,0.3,0.4,0.1,0.8s-0.4,0.2-0.7,0.4
	c-0.1,0.1-0.2,0.2-0.3,0.3c1.3,0.6,2.7,1.2,4,1.6c0-0.1,0-0.3,0-0.4c-0.1-0.4-0.4-0.4-0.3-0.8s0.4-0.2,0.6-0.5
	c0.1-0.1,0.1-0.1,0.1-0.2c0-0.1,0.1-0.2,0.2-0.3c0,0,0.1-0.1,0.2-0.1c0.4-0.1,0.4,0.2,0.7,0.3s0.5-0.1,0.8,0.1
	c0.1,0.1,0.1,0.2,0.1,0.3c0,0.1,0,0.3-0.1,0.4c0,0,0,0.1,0,0.1c0.1,0.4,0.4,0.4,0.3,0.8s-0.4,0.2-0.6,0.5c-0.1,0.1-0.2,0.2-0.2,0.3
	c1.4,0.4,2.8,0.7,4.2,0.9c0-0.1,0-0.3,0-0.4c-0.1-0.3-0.4-0.3-0.4-0.7c0-0.1,0-0.1,0.1-0.2c0.1-0.1,0.3-0.1,0.4-0.3
	c0,0,0.1-0.1,0.1-0.1c0.1-0.1,0.1-0.2,0.1-0.3c0.1-0.2,0-0.3,0.3-0.4c0.3-0.1,0.4,0.2,0.8,0.2s0.5-0.2,0.8,0s0.1,0.4,0.2,0.8
	c0.1,0.1,0.1,0.2,0.2,0.3c0.1,0.1,0.2,0.2,0.1,0.4c0,0,0,0.1,0,0.1c-0.1,0.2-0.2,0.2-0.3,0.3c-0.1,0-0.2,0.1-0.2,0.2
	c-0.1,0.1-0.1,0.2-0.2,0.4c0.8,0.1,1.6,0.2,2.4,0.2c0.4,0,0.8,0,1.2,0.1h0.7c0-0.1,0-0.2,0-0.2c0-0.1,0-0.1-0.1-0.2
	c-0.2-0.3-0.5-0.3-0.5-0.6s0.3-0.3,0.5-0.6s0-0.6,0.3-0.7s0.4,0.1,0.7,0.1l0,0c0.3,0,0.4-0.3,0.7-0.1s0.1,0.4,0.3,0.7
	s0.5,0.3,0.5,0.6s-0.3,0.3-0.5,0.6c0,0.1,0,0.1-0.1,0.2c0,0.1,0,0.2,0,0.2h0.7c0.4,0,0.8,0,1.2-0.1c0.8-0.1,1.6-0.1,2.4-0.2
	c0-0.1-0.1-0.3-0.2-0.4c-0.1-0.1-0.1-0.1-0.2-0.2c-0.1-0.1-0.3-0.1-0.3-0.3c0,0,0-0.1,0-0.1c0-0.1,0-0.3,0.1-0.4
	c0.1-0.1,0.2-0.2,0.2-0.3c0.1-0.3-0.1-0.6,0.2-0.8s0.4,0,0.8,0s0.4-0.4,0.7-0.2c0.2,0.1,0.2,0.3,0.3,0.4c0,0.1,0.1,0.2,0.1,0.3
	c0,0,0.1,0.1,0.1,0.1c0.1,0.1,0.3,0.2,0.4,0.3c0,0.1,0.1,0.1,0.1,0.2c0.1,0.4-0.2,0.4-0.4,0.7c0,0.1-0.1,0.3,0,0.4
	c1.4-0.2,2.8-0.6,4.2-0.9c0-0.1-0.1-0.2-0.2-0.3c-0.3-0.2-0.5-0.1-0.6-0.5s0.2-0.4,0.3-0.8c0,0,0-0.1,0-0.1c0-0.1,0-0.3-0.1-0.4
	c0-0.1,0-0.2,0.1-0.3c0.2-0.3,0.4,0,0.8-0.1s0.4-0.4,0.7-0.3c0.1,0,0.1,0,0.2,0.1c0.1,0.1,0.2,0.2,0.2,0.3c0,0.1,0.1,0.1,0.1,0.2
	c0.3,0.3,0.5,0.1,0.6,0.5c0.1,0.4-0.2,0.4-0.3,0.8c0,0.1,0,0.3,0,0.4c1.4-0.5,2.8-1,4.1-1.7c-0.1-0.1-0.1-0.2-0.3-0.3
	c-0.3-0.2-0.5,0-0.7-0.4s0.1-0.4,0.1-0.8c0-0.1,0-0.1,0-0.2c0-0.1-0.1-0.2-0.1-0.4c0-0.1,0-0.2,0.1-0.2c0.2-0.3,0.4-0.1,0.7-0.3
	s0.3-0.5,0.6-0.4c0.1,0,0.3,0.1,0.3,0.2c0.1,0.1,0.1,0.2,0.3,0.3h0c0.3,0.2,0.5,0,0.7,0.3s-0.1,0.4-0.1,0.8
	C69.4,88.9,69.4,89,69.4,89.2z M50.5,99.1c-0.4,0-0.5,0.3-0.8,0.1s-0.1-0.4-0.3-0.7s-0.5-0.3-0.5-0.6s0.3-0.3,0.5-0.6
	c0.1-0.1,0.1-0.3,0.1-0.4c-1.6,0-3.1-0.1-4.6-0.3c0,0.1,0,0.3,0,0.4c0.1,0.3,0.4,0.3,0.4,0.7s-0.3,0.3-0.6,0.6s-0.1,0.6-0.4,0.7
	s-0.4-0.2-0.7-0.2s-0.5,0.2-0.8,0s-0.1-0.4-0.2-0.8c-0.1-0.3-0.4-0.3-0.4-0.7s0.3-0.3,0.6-0.6c0.1-0.1,0.1-0.3,0.2-0.4
	c-1.6-0.3-3.2-0.6-4.7-1.1c0,0.1-0.1,0.3,0,0.4c0.1,0.4,0.4,0.4,0.3,0.7s-0.4,0.2-0.6,0.5s-0.1,0.5-0.5,0.6S37,97.1,36.7,97
	s-0.5,0.1-0.8-0.1s0-0.4-0.1-0.8s-0.4-0.4-0.3-0.7s0.4-0.2,0.6-0.5c0.1-0.1,0.2-0.2,0.2-0.4c-0.7-0.2-1.4-0.5-2.1-0.8l-0.4-0.2
	l-0.4-0.2c-0.7-0.3-0.9-0.4-1.6-0.7c-0.1,0.1-0.1,0.3-0.1,0.4c0,0.4,0.3,0.5,0.1,0.8c-0.2,0.3-0.4,0.1-0.7,0.3s-0.2,0.5-0.6,0.5
	s-0.3-0.3-0.6-0.4s-0.5,0-0.7-0.3s0.1-0.4,0.1-0.8s-0.3-0.5-0.1-0.8s0.4-0.1,0.7-0.3c0.1-0.1,0.2-0.2,0.3-0.3
	c-0.6-0.3-1.6-0.9-2.2-1.2l-2.1,3.1c1.5,0.9,3.1,1.7,4.7,2.4l0.4,0.2l0.4,0.2c5.9,2.6,12.3,4,18.8,4h0.7c6.5,0,12.9-1.4,18.8-4
	l0.4-0.2l0.4-0.2c1.6-0.7,3.1-1.6,4.6-2.5l-2.1-3.1c-0.6,0.4-1.6,0.9-2.2,1.3c0.1,0.1,0.2,0.2,0.3,0.3c0.3,0.2,0.5,0,0.7,0.3
	s-0.1,0.4-0.1,0.8s0.3,0.5,0.1,0.8s-0.4,0.1-0.7,0.3s-0.3,0.5-0.6,0.4s-0.3-0.3-0.6-0.5s-0.5,0-0.7-0.3s0.1-0.4,0.1-0.8
	c0-0.2,0-0.3-0.1-0.4c-0.7,0.3-0.9,0.4-1.5,0.7l-0.4,0.2l-0.4,0.2c-0.7,0.3-1.4,0.5-2.1,0.8c0,0.1,0.1,0.3,0.2,0.4
	c0.3,0.3,0.5,0.1,0.6,0.5s-0.2,0.4-0.3,0.7c-0.1,0.4,0.2,0.5-0.1,0.8s-0.4,0-0.8,0.1c-0.3,0.1-0.4,0.4-0.7,0.3s-0.2-0.4-0.5-0.6
	s-0.5-0.1-0.6-0.5s0.2-0.4,0.3-0.7c0-0.1,0-0.3,0-0.4c-1.6,0.5-3.1,0.8-4.7,1.1c0,0.1,0.1,0.3,0.2,0.4c0.2,0.3,0.5,0.2,0.6,0.6
	s-0.2,0.4-0.4,0.7s0.1,0.5-0.2,0.8s-0.4,0-0.8,0s-0.4,0.4-0.8,0.2s-0.2-0.4-0.4-0.7s-0.5-0.2-0.6-0.6s0.2-0.4,0.4-0.7
	c0-0.1,0.1-0.3,0-0.4c-1.5,0.2-3,0.3-4.6,0.3c0,0.2,0,0.3,0.1,0.4c0.2,0.3,0.5,0.3,0.5,0.6s-0.3,0.3-0.5,0.6s0,0.6-0.3,0.7
	S50.9,99.1,50.5,99.1L50.5,99.1z M44.5,91.7c-0.4,0-0.6,0.3-0.6,0.6c0,0.4,0.3,0.6,0.6,0.6c0.4,0,0.6-0.3,0.6-0.6l0,0
	C45.1,92,44.9,91.7,44.5,91.7C44.5,91.7,44.5,91.7,44.5,91.7L44.5,91.7z M38.8,90.4c-0.3-0.1-0.7,0.1-0.8,0.4c0,0,0,0,0,0l0,0
	c-0.1,0.3,0.1,0.7,0.4,0.8c0.3,0.1,0.7-0.1,0.8-0.4c0,0,0,0,0,0C39.3,90.9,39.1,90.5,38.8,90.4z M33.2,88.1c-0.3-0.2-0.7,0-0.8,0.3
	c0,0,0,0,0,0l0,0c-0.2,0.3,0,0.7,0.3,0.9c0,0,0,0,0,0l0,0c0.3,0.2,0.7,0,0.8-0.3c0,0,0,0,0,0C33.7,88.7,33.5,88.3,33.2,88.1
	C33.2,88.1,33.2,88.1,33.2,88.1L33.2,88.1z M43.2,97.4c0,0.4,0.3,0.6,0.6,0.6c0.4,0,0.6-0.3,0.6-0.6c0-0.4-0.3-0.6-0.6-0.6
	C43.5,96.7,43.2,97,43.2,97.4C43.2,97.3,43.2,97.3,43.2,97.4z M36.4,95.8c0,0.4,0.3,0.6,0.6,0.6s0.6-0.3,0.6-0.6
	c0-0.4-0.3-0.6-0.6-0.6c0,0,0,0,0,0l0,0C36.7,95.2,36.4,95.5,36.4,95.8L36.4,95.8z M30,93.2c0,0.4,0.3,0.6,0.6,0.6s0.6-0.3,0.6-0.6
	s-0.3-0.6-0.6-0.6c0,0,0,0,0,0l0,0C30.3,92.5,30,92.8,30,93.2C30,93.2,30,93.2,30,93.2z M68.1,88c-0.4,0-0.6,0.3-0.6,0.6
	c0,0.4,0.3,0.6,0.6,0.6c0.4,0,0.6-0.3,0.6-0.6v0C68.8,88.3,68.5,88,68.1,88L68.1,88z M71.8,88.9l-0.1-0.1c-2,1.2-4.2,2.3-6.4,3.2
	c-0.1,0.1-0.3,0.1-0.4,0.2c-4.4,1.6-9.1,2.5-13.8,2.5h-1.2c-4.7-0.1-9.4-0.9-13.8-2.5c-0.1,0-0.3-0.1-0.4-0.2
	c-2.2-0.9-4.4-1.9-6.4-3.2l-0.1,0.1l-0.7,1c1.8,1.1,3.7,2.1,5.7,2.9l0.4,0.2c0.1,0.1,0.3,0.1,0.4,0.2C39.9,95,45.1,96,50.4,96h0.2
	c5.3,0,10.5-1,15.4-2.9c0.1-0.1,0.3-0.1,0.4-0.2l0.4-0.2c2-0.8,3.8-1.8,5.7-2.9L71.8,88.9z M50.5,92.2c-0.4,0-0.6,0.3-0.6,0.6
	c0,0.4,0.3,0.6,0.6,0.6c0.4,0,0.6-0.3,0.6-0.6l0,0C51.1,92.4,50.9,92.2,50.5,92.2L50.5,92.2z M56.5,91.7c-0.4,0-0.6,0.3-0.6,0.6
	c0,0.4,0.3,0.6,0.6,0.6c0.4,0,0.6-0.3,0.6-0.6l0,0C57.1,92,56.9,91.7,56.5,91.7C56.5,91.7,56.5,91.7,56.5,91.7L56.5,91.7z
	 M62.4,90.4c-0.4,0-0.6,0.3-0.6,0.6c0,0.4,0.3,0.6,0.6,0.6c0.4,0,0.6-0.3,0.6-0.6v0C63.1,90.7,62.8,90.4,62.4,90.4
	C62.4,90.4,62.4,90.4,62.4,90.4C62.4,90.4,62.4,90.4,62.4,90.4z M70.3,93.9c0.4,0,0.6-0.3,0.6-0.6c0-0.4-0.3-0.6-0.6-0.6
	c-0.4,0-0.6,0.3-0.6,0.6l0,0C69.7,93.6,70,93.9,70.3,93.9z M63.3,95.8c0,0.4,0.3,0.6,0.6,0.6c0.4,0,0.6-0.3,0.6-0.6
	c0-0.4-0.3-0.6-0.6-0.6c0,0,0,0,0,0h0C63.6,95.2,63.3,95.5,63.3,95.8C63.3,95.8,63.3,95.8,63.3,95.8z M56.5,97.4
	c0,0.4,0.3,0.6,0.6,0.6c0.4,0,0.6-0.3,0.6-0.6s-0.3-0.6-0.6-0.6c0,0,0,0,0,0c0,0,0,0,0,0C56.8,96.7,56.5,97,56.5,97.4z M49.9,97.8
	c0,0.4,0.3,0.6,0.6,0.6s0.6-0.3,0.6-0.6c0-0.4-0.3-0.6-0.6-0.6c0,0,0,0,0,0l0,0C50.1,97.2,49.9,97.5,49.9,97.8L49.9,97.8z"/>
<path fill="#2A3384" d="M50.5,71.3L50.5,71.3l-7.3,2.3c0.6,0.1,1.1,0.2,1.7,0.1c1,0,2-0.2,2.9-0.5c0.9-0.3,1.8-0.5,2.7-0.4h0.1
	c0.9,0,1.8,0.1,2.7,0.4c0.9,0.3,1.9,0.5,2.9,0.5c0.6,0,1.1,0,1.7-0.1L50.5,71.3z M65.5,76.1c-2.7-0.7-4.6-0.4-6.2-0.1
	c-1,0.2-2,0.3-3,0.3c-1.1,0-2.1-0.2-3.1-0.6c-0.8-0.3-1.7-0.4-2.5-0.4h-0.1c-0.9,0-1.7,0.1-2.5,0.4c-1,0.3-2.1,0.5-3.1,0.6
	c-1,0-2-0.1-3-0.3c-1.7-0.3-3.5-0.7-6.2,0.1h-0.1c0,0.4,0,0.8-0.1,1.2c2-0.4,4.1-0.4,6.1,0.1c1,0.2,2,0.3,3,0.3
	c1.1,0,2.1-0.2,3.1-0.5c0.9-0.3,1.9-0.5,2.8-0.4h0.1c1,0,1.9,0.1,2.8,0.4c1,0.3,2.1,0.5,3.1,0.5c1,0,2-0.1,3-0.3
	c2-0.5,4.1-0.5,6.1-0.1C65.6,76.9,65.5,76.5,65.5,76.1L65.5,76.1z M56.4,74.4h-0.3c-1,0-2.1-0.2-3.1-0.6c-0.8-0.3-1.7-0.4-2.5-0.4
	h-0.1c-0.9,0-1.7,0.1-2.5,0.4c-1,0.3-2,0.5-3.1,0.6h-0.3c-0.9,0-1.8-0.2-2.6-0.3l-3.3,1.1c1.1,0,2.2,0.1,3.2,0.4
	c0.9,0.2,1.9,0.3,2.9,0.3c1,0,2-0.2,3-0.5c0.9-0.3,1.8-0.5,2.7-0.4h0.1c0.9,0,1.8,0.1,2.7,0.4c1,0.3,2,0.5,3,0.5
	c1,0,1.9-0.1,2.9-0.3c1.1-0.2,2.1-0.3,3.2-0.4L59,74C58.2,74.2,57.3,74.3,56.4,74.4z M59.6,81.8c-1,0.3-2.1,0.4-3.1,0.4
	c-1.1,0-2.2-0.3-3.3-0.6c-0.8-0.3-1.8-0.5-2.7-0.5h-0.1c-0.9,0-1.8,0.1-2.7,0.5c-1,0.4-2.2,0.6-3.3,0.6c-1.1,0-2.1-0.1-3.1-0.4
	c-2-0.4-4.2-0.9-7.6,0.4c-0.4,0.6-0.8,1.2-1.2,1.7c3-0.9,6.2-1.2,8.6-0.7c1,0.2,2.1,0.3,3.1,0.3c1.1,0,2.2-0.2,3.2-0.5
	c1-0.3,2-0.5,3-0.4h0.1c1,0,2,0.1,3,0.4c1.1,0.3,2.1,0.5,3.2,0.5c1,0,2.1-0.1,3.1-0.3c2.4-0.4,5.6-0.1,8.6,0.7
	c-0.5-0.5-0.9-1.1-1.3-1.7C63.8,81,61.6,81.4,59.6,81.8z M68.7,84.6c-4.5-1.4-7.8-1-8.8-0.8c-1.1,0.2-2.2,0.3-3.2,0.3
	c-1.1,0-2.3-0.2-3.4-0.6c-0.9-0.3-1.8-0.4-2.8-0.4h-0.1c-1,0-1.9,0.1-2.8,0.4c-1.1,0.3-2.2,0.5-3.4,0.6c-1.1,0-2.2-0.1-3.2-0.3
	c-0.9-0.2-4.3-0.6-8.8,0.8c0.7,0.4,1.3,0.7,2,1.1c3.4-1.2,5.7-0.8,7.6-0.4c0.9,0.2,1.9,0.3,2.9,0.3c1,0,2-0.2,3-0.5
	c0.9-0.3,1.8-0.5,2.7-0.4h0.1c0.9,0,1.8,0.1,2.7,0.4c1,0.3,2,0.5,3,0.5c1,0,1.9-0.1,2.9-0.3c2-0.4,4.2-0.8,7.6,0.4
	C67.4,85.4,68.1,85,68.7,84.6z M55.8,88.2c-1,0-2-0.2-2.9-0.5c-0.8-0.3-1.6-0.4-2.3-0.4h-0.1c-0.8,0-1.6,0.1-2.3,0.4
	c-0.9,0.3-1.9,0.5-2.9,0.5c-0.9,0-1.9-0.1-2.8-0.3c-1.1-0.2-2.2-0.3-3.3-0.3c3.6,1.1,7.4,1.6,11.2,1.6h0.4c3.8,0,7.5-0.5,11.2-1.6
	c-1.1,0-2.2,0.1-3.3,0.3C57.7,88.1,56.7,88.2,55.8,88.2z M66,86c-3-0.9-5-0.5-6.8-0.2c-1,0.2-2,0.3-3,0.3c-1.1,0-2.1-0.2-3.1-0.6
	c-0.8-0.3-1.7-0.4-2.5-0.4h-0.1c-0.9,0-1.7,0.1-2.5,0.4c-1,0.4-2.1,0.5-3.1,0.6c-1,0-2-0.1-3-0.3C40,85.5,38,85.1,35,86.1
	c0.9,0.4,1.8,0.8,2.8,1.1c1.6-0.2,3.2-0.2,4.8,0.2c0.9,0.2,1.8,0.3,2.6,0.3c0.9,0,1.9-0.2,2.8-0.5c0.8-0.3,1.7-0.4,2.5-0.4h0.1
	c0.9,0,1.7,0.1,2.5,0.4c0.9,0.3,1.8,0.5,2.8,0.5c0.9,0,1.8-0.1,2.6-0.3c1.6-0.4,3.2-0.4,4.8-0.2C64.2,86.9,65.1,86.5,66,86z
	 M56.5,78.3c-1.1,0-2.2-0.2-3.3-0.6c-0.9-0.3-1.8-0.4-2.7-0.4h-0.1c-0.9,0-1.8,0.1-2.7,0.4c-1.1,0.3-2.2,0.5-3.3,0.6
	c-1.1,0-2.1-0.1-3.1-0.3c-2-0.5-4.1-0.5-6.1,0c-0.1,0.5-0.2,1-0.3,1.4c2.8-0.7,4.7-0.3,6.5,0c1,0.2,2,0.3,3,0.3
	c1.1,0,2.1-0.2,3.1-0.5c0.9-0.3,1.9-0.5,2.8-0.4h0.1c1,0,1.9,0.1,2.8,0.4c1,0.3,2.1,0.5,3.1,0.5c1,0,2-0.1,3-0.3
	c1.7-0.3,3.7-0.7,6.5,0c-0.1-0.5-0.2-1-0.3-1.4c-2-0.4-4.1-0.4-6.1,0C58.6,78.2,57.5,78.3,56.5,78.3z M59.6,80
	c-1,0.2-2.1,0.3-3.1,0.3c-1.1,0-2.2-0.2-3.3-0.6c-0.9-0.3-1.8-0.4-2.7-0.4h-0.1c-0.9,0-1.8,0.1-2.7,0.4c-1.1,0.3-2.2,0.5-3.3,0.6
	c-1.1,0-2.1-0.1-3.1-0.3c-1.7-0.3-3.7-0.7-6.6,0.1c-0.2,0.5-0.4,1-0.6,1.5c3.2-1.1,5.4-0.6,7.3-0.2c1,0.2,2,0.4,3,0.3
	c1.1,0,2.1-0.2,3.1-0.6c0.9-0.4,1.9-0.5,2.9-0.5h0.1c1,0,1.9,0.2,2.9,0.5c1,0.4,2,0.6,3.1,0.6c1,0,2-0.1,3-0.3
	c1.9-0.4,4.1-0.8,7.3,0.2c-0.2-0.5-0.4-1-0.6-1.5C63.3,79.3,61.4,79.6,59.6,80z M15.1,34.7c0.1,0,0.1,0,0.1,0
	c0.1,0.1,0.1,0.2,0.2,0.4c0.1,0.3,0.4,0.5,0.7,0.7c0,0,0.1,0,0.1,0.1c0.2,0.1,0.3,0.1,0.3,0.2c0,0.1,0,0.2,0,0.2
	c-0.1,0.1-0.1,0.2-0.2,0.2c-0.2,0.1-0.3,0.3-0.4,0.6c0,0.2-0.1,0.4-0.1,0.6c0,0.2-0.1,0.3-0.3,0.3c-0.1,0-0.2-0.1-0.3-0.1
	c0,0-0.1-0.1-0.1-0.1c-0.2-0.1-0.4-0.2-0.6-0.2c-0.1,0-0.2,0-0.3,0c-0.1,0-0.3,0.1-0.4,0.1c-0.1,0-0.1,0-0.2-0.1
	c-0.1-0.1-0.1-0.2-0.1-0.2c0.1-0.2,0.1-0.5,0.1-0.8c0-0.3-0.2-0.4-0.3-0.6c-0.1-0.1-0.1-0.2-0.1-0.2c0-0.1,0-0.2,0.1-0.3
	c0.1,0,0.1-0.1,0.2-0.1l0.1,0h0c0.2,0,0.4,0,0.6-0.1c0.2-0.1,0.4-0.3,0.5-0.5C14.8,34.8,14.9,34.7,15.1,34.7
	C15.1,34.7,15.1,34.7,15.1,34.7 M14.9,37L14.9,37c0.4,0,0.6-0.3,0.6-0.6c0-0.4-0.3-0.6-0.6-0.6c-0.4,0-0.6,0.3-0.6,0.6
	C14.3,36.7,14.6,37,14.9,37 M12.3,35.6c0,0,0.1,0.1,0.1,0.1c0,0.3,0.1,0.5,0.2,0.7c0,0-0.1,0-0.2,0c-0.3,0-0.6,0.3-0.6,0.6
	c0,0.3,0.3,0.6,0.6,0.6h0c0.1,0,0.2,0,0.3-0.1c0,0.2,0,0.3,0.1,0.5c0,0,0,0,0,0c-0.2,0.1-0.4,0.2-0.5,0.3c-0.1,0.1-0.1,0.1-0.2,0.1
	c0,0-0.1,0-0.1,0c0,0,0,0,0,0l-0.1,0c-0.1,0-0.1-0.1-0.1-0.2l0,0l0,0c0-0.1,0-0.1,0-0.2c0-0.1-0.1-0.2-0.1-0.3
	c-0.1-0.2-0.3-0.3-0.5-0.4c0,0-0.1-0.1-0.1-0.1c0,0,0-0.1,0-0.1c0,0,0-0.1,0-0.1c0,0,0,0,0,0c0,0,0,0,0,0c0.1,0,0.1-0.1,0.2-0.1
	c0.2-0.1,0.3-0.2,0.4-0.3c0.2-0.2,0.2-0.4,0.2-0.5C12,35.7,12,35.7,12.3,35.6C12.2,35.6,12.2,35.6,12.3,35.6 M17.9,35.9
	C18,35.9,18,35.9,17.9,35.9l0.1,0l0,0c0,0,0,0,0.1,0c0,0,0,0.1,0,0.1c0,0.2,0,0.5,0.1,0.7c0.1,0.2,0.2,0.3,0.3,0.4l0.1,0.1
	c0.1,0.1,0.1,0.1,0.1,0.2c0,0,0,0.1,0,0.1c0,0,0,0,0,0.1c-0.1,0.1-0.2,0.1-0.4,0.1c-0.1,0-0.2,0.1-0.3,0.2c-0.2,0.2-0.3,0.4-0.4,0.6
	c0,0,0,0.1-0.1,0.1c0,0-0.1,0-0.1,0h-0.1c0,0-0.1,0-0.2-0.2c-0.1-0.1-0.2-0.3-0.4-0.4c0,0-0.1,0-0.1,0c0,0,0,0,0,0
	c0-0.1,0.1-0.3,0.1-0.4l0-0.1c0-0.1,0-0.1,0-0.2l0,0c0,0.1,0.1,0.1,0.1,0.2c0.1,0.1,0.2,0.2,0.3,0.2c0.1,0,0.2,0,0.3-0.1
	c0.2-0.1,0.2-0.4,0.1-0.6l0-0.2l-0.3,0c0,0-0.1,0-0.1,0c0,0,0,0,0,0c0.1-0.1,0.1-0.3,0.1-0.4c0-0.1,0-0.2,0-0.2
	c0.1,0,0.1-0.1,0.2-0.1C17.8,35.9,17.9,35.9,17.9,35.9 M15.1,34.5c0,0-0.1,0-0.1,0c-0.2,0-0.3,0.2-0.4,0.3c-0.1,0.2-0.3,0.3-0.4,0.4
	c-0.1,0.1-0.3,0.1-0.5,0.1c0,0,0,0-0.1,0c-0.1,0-0.2,0-0.3,0.1c-0.1,0.1-0.2,0.3-0.2,0.5c0.1,0.3,0.3,0.4,0.4,0.8
	c0,0.2,0,0.4-0.1,0.6c0,0.2,0,0.4,0.2,0.5c0.1,0.1,0.2,0.1,0.4,0.1c0,0,0,0,0,0c0.1,0,0.3-0.1,0.4-0.1c0.1,0,0.1,0,0.2,0
	c0.2,0,0.3,0,0.5,0.1c0.2,0.1,0.3,0.2,0.5,0.2c0,0,0,0,0.1,0c0.3-0.1,0.4-0.3,0.4-0.6c0-0.2,0-0.4,0.1-0.5c0.1-0.2,0.2-0.3,0.3-0.4
	c0.1-0.1,0.2-0.2,0.3-0.3c0.1-0.1,0.1-0.3,0-0.5c-0.1-0.3-0.4-0.3-0.6-0.4c-0.2-0.1-0.4-0.3-0.5-0.5c0-0.2-0.1-0.3-0.2-0.4
	C15.3,34.5,15.2,34.5,15.1,34.5L15.1,34.5z M14.9,36.8C14.9,36.8,14.9,36.8,14.9,36.8c-0.2,0-0.4-0.2-0.4-0.4c0-0.2,0.2-0.4,0.4-0.4
	c0.2,0,0.4,0.2,0.4,0.4C15.3,36.6,15.1,36.8,14.9,36.8L14.9,36.8z M12.3,35.4C12.2,35.4,12.2,35.4,12.3,35.4c-0.1,0-0.1,0-0.2,0
	c-0.5,0.1-0.3,0.5-0.6,0.9c-0.1,0.1-0.2,0.2-0.3,0.2c-0.1,0-0.2,0.1-0.2,0.1c0,0-0.1,0.1-0.1,0.1c0,0.1,0,0.1,0,0.2
	c0,0.1,0,0.1,0,0.2c0,0.1,0.1,0.2,0.2,0.2c0.2,0.1,0.3,0.2,0.4,0.4c0,0.1,0.1,0.1,0.1,0.2c0,0.1,0,0.2,0,0.2c0,0.2,0.1,0.3,0.2,0.4
	l0,0c0.1,0,0.1,0,0.2,0c0.3,0,0.4-0.3,0.8-0.4c0.1,0,0.1,0,0.2,0c0,0,0,0,0,0c0.1,0,0.2,0,0.2,0c-0.3-0.3-0.4-0.7-0.3-1.1
	c0-0.1,0.1-0.2,0-0.3c0-0.1-0.1-0.2-0.2-0.3c-0.2-0.2-0.3-0.5-0.3-0.8v-0.1C12.5,35.5,12.4,35.4,12.3,35.4
	C12.3,35.4,12.3,35.4,12.3,35.4L12.3,35.4z M12.4,37.3c-0.2,0-0.3-0.1-0.3-0.3c0-0.2,0.1-0.3,0.3-0.3c0,0,0,0,0,0c0,0,0,0,0,0
	c0.2,0,0.3,0.1,0.3,0.3C12.7,37.2,12.6,37.3,12.4,37.3C12.4,37.3,12.4,37.3,12.4,37.3L12.4,37.3z M17.9,35.6c-0.2,0-0.4,0.2-0.6,0.3
	V36c0,0.1,0,0.2,0,0.3c0,0.1,0,0.2-0.1,0.3c-0.1,0.2-0.2,0.3-0.4,0.4c0,0,0,0,0,0c-0.1,0-0.1,0.1-0.2,0.2c0,0,0,0,0,0.1
	c0,0.1,0,0.2,0,0.3v0.1c0,0.1,0,0.2-0.1,0.3c0,0.1-0.1,0.2-0.1,0.3c0,0,0,0,0,0s0,0,0,0c0.1,0,0.2,0,0.2,0.1
	c0.4,0.2,0.3,0.6,0.7,0.6h0.1c0.1,0,0.1,0,0.2-0.1c0.1,0,0.1-0.1,0.2-0.2c0.1-0.2,0.2-0.4,0.3-0.6c0.1-0.1,0.2-0.1,0.2-0.2
	c0.2,0,0.3-0.1,0.4-0.2c0.1-0.1,0.1-0.1,0.1-0.2c0-0.1,0-0.1,0-0.2c0-0.2-0.2-0.3-0.3-0.4c-0.1-0.1-0.2-0.2-0.3-0.3
	c-0.1-0.2-0.1-0.4-0.1-0.6c0-0.1,0-0.2-0.1-0.3c0-0.1-0.1-0.1-0.2-0.1c0,0-0.1,0-0.1,0C18,35.7,18,35.6,17.9,35.6L17.9,35.6z
	 M17.4,37.4c-0.1,0-0.1,0-0.2-0.1c-0.1-0.1-0.1-0.2,0-0.3c0,0,0.1-0.1,0.2-0.1c0,0,0.1,0,0.1,0c0,0,0,0,0,0c0,0,0,0,0,0l0,0
	c0.1,0.1,0.1,0.2,0,0.3C17.5,37.4,17.4,37.4,17.4,37.4L17.4,37.4z M66.5,63.8v-1.4l1.2,0.8c0.5,0.4,1,0.8,1.5,1.3
	c0.1,0.1,0.2,0.2,0.3,0.3l0.3,0.3l0.1,0.1v-0.1l0.1-0.4c0-0.1,0-0.3,0.1-0.4c0.1-0.8,0.2-1.5,0.2-2.3l0-1.3l1.1,0.7
	c0.8,0.5,1.5,1.1,2.1,1.8l3.4-1.1c0,0,0,0,0-0.1l-5.4-2.3l0,0l-1.4-0.6l-1.3,0.9l-5.9-3.7l-1,1L50.5,45.8l0,0L39.2,57.5l-1-1
	l-5.9,3.6l-1.3-0.9l-1.4,0.6l0,0l-5.4,2.3v0.1l3.4,1.1c0.6-0.7,1.3-1.3,2.1-1.8l1.1-0.7l0,1.3c0,0.8,0.1,1.5,0.2,2.3
	c0,0.1,0,0.3,0.1,0.4l0.1,0.4c0,0,0,0.1,0,0.1l0.1-0.1l0.3-0.3l0.3-0.3c0.5-0.5,1-0.9,1.5-1.3l1.2-0.8v1.4c0,0.5,0,1,0.1,1.6l16,5
	l0,0l16-5C66.5,64.8,66.5,64.3,66.5,63.8z M85.9,34.7C85.9,34.7,85.9,34.7,85.9,34.7c0.2,0,0.3,0.1,0.3,0.2c0.1,0.2,0.3,0.4,0.5,0.5
	c0.2,0.1,0.4,0.1,0.6,0.1h0l0.1,0c0.1,0,0.1,0,0.2,0.1c0.1,0.1,0.1,0.2,0.1,0.3c0,0-0.1,0.1-0.1,0.2c-0.1,0.1-0.2,0.3-0.3,0.6
	c0,0.3,0,0.5,0.1,0.8c0,0.1,0,0.2-0.1,0.2c-0.1,0.1-0.1,0.1-0.2,0.1c-0.1,0-0.2,0-0.4-0.1c-0.1,0-0.2,0-0.3,0
	c-0.2,0-0.4,0.1-0.6,0.2c0,0-0.1,0-0.1,0.1c-0.1,0.1-0.2,0.1-0.3,0.1c-0.2,0-0.3-0.2-0.3-0.3c0-0.2,0-0.4-0.1-0.6
	c-0.1-0.2-0.2-0.4-0.4-0.6c-0.1-0.1-0.2-0.1-0.2-0.2c0,0,0-0.1,0-0.2c0-0.1,0.1-0.1,0.3-0.2c0,0,0.1,0,0.1-0.1
	c0.3-0.1,0.5-0.4,0.7-0.7c0-0.2,0.1-0.3,0.2-0.4C85.8,34.7,85.9,34.7,85.9,34.7 M86.1,37c0.4,0,0.6-0.3,0.6-0.6
	c0-0.4-0.3-0.6-0.6-0.6c-0.4,0-0.6,0.3-0.6,0.6C85.5,36.7,85.8,37,86.1,37L86.1,37 M88.8,35.6C88.8,35.6,88.8,35.6,88.8,35.6
	c0.2,0.1,0.2,0.1,0.3,0.3c0,0.1,0.1,0.3,0.2,0.5c0.1,0.1,0.3,0.2,0.4,0.3c0.1,0,0.1,0.1,0.2,0.1c0,0,0,0,0,0c0,0,0,0,0,0
	c0,0,0,0,0,0.1c0,0,0,0.1,0,0.1c0,0,0,0.1-0.1,0.1c-0.2,0.1-0.4,0.3-0.5,0.4c-0.1,0.1-0.1,0.2-0.1,0.3c0,0.1,0,0.2,0,0.2l0,0l0,0
	c0,0.1,0,0.1-0.1,0.2l-0.1,0c0,0,0,0,0,0c0,0,0,0-0.1,0c0,0-0.1,0-0.2-0.1c-0.1-0.1-0.3-0.2-0.5-0.3c0,0,0,0,0,0
	c0.1-0.1,0.1-0.3,0.1-0.5c0.1,0,0.2,0.1,0.3,0.1h0c0.3,0,0.6-0.3,0.6-0.6c0-0.3-0.3-0.6-0.6-0.6c-0.1,0-0.1,0-0.2,0
	c0.1-0.2,0.2-0.5,0.2-0.7C88.7,35.7,88.7,35.6,88.8,35.6 M83.1,35.9c0.1,0,0.1,0,0.2,0.1c0,0,0.1,0.1,0.2,0.1c0,0.1,0,0.1,0,0.2
	c0,0.1,0,0.3,0.1,0.4c0,0,0,0,0,0c0,0-0.1,0-0.1,0l-0.3,0l0,0.2c-0.1,0.2-0.1,0.4,0.1,0.6c0.1,0.1,0.2,0.1,0.3,0.1
	c0.1,0,0.3-0.1,0.3-0.2c0,0,0.1-0.1,0.1-0.2l0,0c0,0.1,0,0.1,0,0.2l0,0.1c0,0.1,0,0.3,0.1,0.4c0,0,0,0,0,0c0,0-0.1,0-0.1,0
	c-0.2,0.1-0.3,0.3-0.4,0.4c-0.1,0.1-0.1,0.2-0.2,0.2h-0.1c0,0,0,0-0.1,0c0,0-0.1,0-0.1-0.1c-0.1-0.2-0.2-0.4-0.4-0.6
	c-0.1-0.1-0.2-0.2-0.3-0.2c-0.1,0-0.3-0.1-0.4-0.1c0,0,0,0,0-0.1c0,0,0-0.1,0-0.1c0-0.1,0-0.1,0.1-0.2l0.1-0.1
	c0.1-0.1,0.3-0.3,0.3-0.4c0.1-0.2,0.1-0.5,0.1-0.7c0,0,0-0.1,0-0.1c0,0,0,0,0.1,0l0,0L83.1,35.9C83,35.9,83.1,35.9,83.1,35.9
	 M85.9,34.4c-0.1,0-0.2,0-0.3,0.1c-0.1,0.1-0.2,0.3-0.2,0.4c-0.1,0.2-0.3,0.4-0.5,0.5c-0.2,0.1-0.5,0.1-0.6,0.4
	c-0.1,0.2-0.1,0.3,0,0.5c0.1,0.1,0.2,0.2,0.3,0.3c0.1,0.1,0.2,0.3,0.3,0.4c0,0.2,0.1,0.4,0.1,0.5c0,0.3,0.2,0.5,0.4,0.6
	c0,0,0,0,0.1,0c0.2,0,0.4-0.1,0.5-0.2c0.1-0.1,0.3-0.1,0.5-0.1c0.1,0,0.1,0,0.2,0c0.1,0.1,0.3,0.1,0.4,0.1c0,0,0,0,0,0
	c0.1,0,0.3-0.1,0.4-0.1c0.1-0.1,0.2-0.3,0.2-0.5c-0.1-0.2-0.1-0.4-0.1-0.6c0.1-0.4,0.3-0.6,0.4-0.8c0-0.2,0-0.4-0.2-0.5
	c-0.1-0.1-0.2-0.1-0.3-0.1c0,0,0,0-0.1,0c-0.2,0-0.3,0-0.5-0.1c-0.2-0.1-0.3-0.2-0.4-0.4c-0.1-0.2-0.3-0.3-0.4-0.3
	C86,34.4,85.9,34.4,85.9,34.4L85.9,34.4z M86.1,36.7c-0.2,0-0.4-0.2-0.4-0.4c0-0.2,0.2-0.4,0.4-0.4c0.2,0,0.4,0.2,0.4,0.4
	C86.5,36.6,86.3,36.7,86.1,36.7C86.1,36.7,86.1,36.7,86.1,36.7L86.1,36.7z M88.8,35.4C88.7,35.4,88.7,35.4,88.8,35.4
	c-0.2,0-0.3,0.2-0.4,0.3v0.1c0,0.3-0.1,0.6-0.3,0.8c-0.1,0.1-0.1,0.2-0.2,0.3c0,0.1,0,0.2,0,0.3c0.2,0.4,0.1,0.8-0.3,1.1
	c0.1,0,0.2,0,0.2,0c0,0,0,0,0,0c0.1,0,0.1,0,0.2,0c0.4,0.1,0.5,0.4,0.8,0.4c0.1,0,0.1,0,0.2,0l0,0c0.1-0.1,0.2-0.2,0.2-0.4
	c0-0.1,0-0.2,0-0.2c0-0.1,0-0.2,0.1-0.2c0.1-0.2,0.3-0.3,0.4-0.4c0.1-0.1,0.1-0.1,0.2-0.2c0-0.1,0-0.1,0-0.2c0-0.1,0-0.1,0-0.2
	c0,0-0.1-0.1-0.1-0.1c-0.1,0-0.2-0.1-0.2-0.1c-0.1-0.1-0.2-0.1-0.3-0.2c-0.3-0.4-0.1-0.7-0.6-0.9C88.9,35.4,88.8,35.4,88.8,35.4
	C88.8,35.4,88.8,35.4,88.8,35.4L88.8,35.4z M88.6,37.3C88.6,37.3,88.6,37.3,88.6,37.3c-0.2,0-0.3-0.1-0.3-0.3c0-0.2,0.1-0.3,0.3-0.3
	c0,0,0,0,0,0c0,0,0,0,0,0c0.2,0,0.3,0.1,0.3,0.3C88.9,37.2,88.8,37.3,88.6,37.3L88.6,37.3z M83.1,35.6c-0.1,0-0.1,0-0.2,0
	c0,0-0.1,0-0.1,0c-0.1,0-0.1,0.1-0.2,0.1c0,0.1-0.1,0.2-0.1,0.3c0,0.2,0,0.4-0.1,0.6c-0.1,0.1-0.2,0.2-0.3,0.3
	c-0.1,0.1-0.3,0.2-0.3,0.4c0,0.1,0,0.1,0,0.2c0,0.1,0,0.2,0.1,0.2c0.1,0.1,0.3,0.1,0.4,0.2c0.1,0,0.2,0.1,0.2,0.2
	c0.1,0.2,0.3,0.3,0.3,0.6c0,0.1,0.1,0.2,0.2,0.2c0.1,0,0.1,0.1,0.2,0.1h0.1c0.4,0,0.3-0.4,0.7-0.6c0.1,0,0.2-0.1,0.2-0.1
	c0,0,0,0,0,0s0,0,0,0c-0.1-0.1-0.1-0.2-0.1-0.3c0-0.1,0-0.2-0.1-0.3v-0.1c0-0.1,0-0.2,0-0.3c0,0,0,0,0-0.1c0-0.1-0.1-0.1-0.2-0.2
	c0,0,0,0,0,0c-0.2-0.1-0.3-0.3-0.4-0.4c0-0.1-0.1-0.2-0.1-0.3c0-0.1,0-0.2,0-0.3v-0.1C83.4,35.8,83.3,35.6,83.1,35.6L83.1,35.6z
	 M83.6,37.4c-0.1,0-0.1,0-0.2-0.1c-0.1-0.1-0.1-0.2,0-0.3l0,0c0,0,0,0,0,0c0,0,0,0,0,0c0,0,0.1,0,0.1,0c0.1,0,0.1,0,0.2,0.1
	c0.1,0.1,0.1,0.2,0,0.3C83.8,37.4,83.7,37.4,83.6,37.4L83.6,37.4z"/>
</svg>
