<?xml version="1.0" encoding="utf-8"?>
<!-- Generator: Adobe Illustrator 21.0.0, SVG Export Plug-In . SVG Version: 6.00 Build 0)  -->
<svg version="1.1" id="Layer_1" xmlns="http://www.w3.org/2000/svg" xmlns:xlink="http://www.w3.org/1999/xlink" x="0px" y="0px"
	 viewBox="0 0 100 100" style="enable-background:new 0 0 100 100;" xml:space="preserve">
<path d="M50,0C22.4,0,0,22.4,0,50c0,27.6,22.4,50,50,50c27.6,0,50-22.4,50-50C100,22.4,77.6,0,50,0z M9.1,26.5
	C17.4,12,32.8,3.1,49.5,2.8L43,45.7L8.8,73.3C0.6,58.8,0.7,41,9.1,26.5z M50.2,97.4C33.5,97.5,18,88.7,9.4,74.4L50,57.6l40.8,16.5
	C82.3,88.5,66.9,97.4,50.2,97.4z M56.8,46.3L50.7,2.8C67.3,3.1,82.5,12,90.9,26.4c8.4,14.4,8.6,32,0.5,46.6L56.8,46.3z"/>
</svg>
