<?xml version="1.0" encoding="utf-8"?>
<!-- Generator: Adobe Illustrator 21.0.0, SVG Export Plug-In . SVG Version: 6.00 Build 0)  -->
<svg version="1.1" id="Layer_1" xmlns="http://www.w3.org/2000/svg" xmlns:xlink="http://www.w3.org/1999/xlink" x="0px" y="0px"
	 viewBox="0 0 100 100" style="enable-background:new 0 0 100 100;" xml:space="preserve">
<path d="M50,40c-5.5,0-10.2-3.3-12.2-8c0,0.1,0,0.1,0,0.2c0,6.7,5.5,12.2,12.2,12.2S62.2,39,62.2,32.2c0-0.1,0-0.1,0-0.2
	C60.2,36.7,55.5,40,50,40z"/>
<circle cx="50" cy="28.9" r="8.9"/>
<path d="M50.9,0c-1.1,0.5-1.5,1.4-1.6,2.3c-0.1,0.8,0.3,1.6,0.3,2.4c0,1.3-1.3,1.7-1.3,3.5c0,0.6,0.6,1.3,0.6,2.9
	c-0.1,0.9-0.6,1-1.1,1.1c-0.6,0-1.1-0.5-1.1-1.1c0-0.3,0.1-0.6,0.3-0.8c0,0,0.1-0.1,0.1-0.1c0.3-0.3,0.6-0.4,0.6-1
	c0-0.3-0.2-0.7-0.4-1.3c-0.2-0.6-0.1-1.6,0.4-2.2c-0.8,0.3-1.3,1-1.5,1.7c-0.3,0.8,0,1.3-0.4,2c-0.2,0.4-0.5,0.6-0.7,1
	c-0.3,0.4-0.6,1.3-0.6,1.8c0,3.1,2.5,5.6,5.6,5.6s5.6-2.5,5.6-5.6c0-0.4-0.3-1.4-0.6-1.8c-0.2-0.4-0.5-0.6-0.7-1
	c-0.3-0.7-0.1-1.2-0.4-2c-0.2-0.7-0.7-1.4-1.5-1.7c0.5,0.6,0.6,1.6,0.4,2.2c-0.2,0.6-0.4,0.9-0.4,1.3c0,0.7,0.3,0.8,0.6,1
	c0,0,0.1,0.1,0.1,0.1c0.2,0.2,0.3,0.5,0.3,0.8c0,0.6-0.5,1.1-1.1,1.1c-0.6-0.1-1.1-0.4-1.1-1.1C51.1,9,52,8.8,52,7.3
	c0-2.3-2-3.3-2-5C50,1.7,50.1,0.8,50.9,0L50.9,0z M25.6,46.7h11.1V100H25.6V46.7z M63.3,46.7h11.1V100H63.3V46.7z M38.9,46.7h22.2
	L50,53.3L38.9,46.7z M38.9,55.6h22.2V60H38.9V55.6z M38.9,86.7h22.2v4.4H38.9V86.7z M38.9,93.3h22.2L50,100L38.9,93.3z"/>
<path d="M55.3,63.6c0.8,1.1,1.3,2.4,1.3,3.9c0,3.6-2.9,6.6-6.6,6.6c-2.9,0-5.2,2.3-5.2,5.2c0,2.8,2.2,5.1,5,5.2c0.1,0,0.2,0,0.3,0
	c6.1,0,11.1-5,11.1-11.1C61.1,69.1,58.7,65.4,55.3,63.6z M50,81.4c-1.2,0-2.2-1-2.2-2.2c0-1.2,1-2.2,2.2-2.2s2.2,1,2.2,2.2
	C52.2,80.5,51.2,81.4,50,81.4z"/>
<path d="M50,72.7c2.9,0,5.2-2.3,5.2-5.2c0-2.8-2.2-5.1-5-5.2c-0.1,0-0.2,0-0.3,0c-6.1,0-11.1,5-11.1,11.1c0,4.2,2.4,7.9,5.8,9.8
	c-0.8-1.1-1.3-2.4-1.3-3.9C43.4,75.6,46.4,72.7,50,72.7z M50,65.2c1.2,0,2.2,1,2.2,2.2c0,1.2-1,2.2-2.2,2.2s-2.2-1-2.2-2.2
	C47.8,66.2,48.8,65.2,50,65.2z"/>
</svg>
