<?xml version="1.0" encoding="utf-8"?>
<!-- Generator: Adobe Illustrator 24.0.0, SVG Export Plug-In . SVG Version: 6.00 Build 0)  -->
<svg version="1.2" baseProfile="tiny" id="Layer_1" xmlns="http://www.w3.org/2000/svg" xmlns:xlink="http://www.w3.org/1999/xlink"
	 x="0px" y="0px" viewBox="0 0 100 100" xml:space="preserve">
<path fill="#B96C29" d="M84.1,48.4c0.9-0.3,4.1-1.2,6.3-3c2.2-1.8,2.7-3.3,2.8-4c0.2-0.8,0.3-1.4-0.3-0.9c-0.6,0.4-2.3,1.8-3.5,2.5
	c-1.2,0.7-2.3,1-2.9,1.1c-0.6,0.2-1.2,0.3-0.5,0.1c0.6-0.2,2.6-0.9,4.2-2.5c1.5-1.5,2.8-3.9,2.8-5.3c0-1.4-0.1-1.3-0.5-1
	c-0.5,0.4-2.1,2.4-3,3.1c-0.9,0.8-2.4,1.8-3.1,2.2c-0.7,0.4-1.8,0.9-0.3-0.1c1.5-1,4.2-3.3,5.3-6.4c1.1-3,0.9-4.8,0.9-5.1
	c0-0.3-0.3-0.9-0.5-0.4c-0.3,0.6-2.1,4.2-3.6,5.8c-1.5,1.6-1.1,1.3-1.5,1.5c-0.3,0.3-0.9,0.7-0.2-0.2c0.7-0.9,2.2-3,3-5
	c0.8-2,1-4.1,1-5.2c0-1.2-0.5-2.8-0.7-3.3c-0.2-0.5-0.5-0.8-0.5-0.3c-0.1,0.6-1.2,4.2-1.9,5.9c-0.6,1.8-1.9,3.7-2.2,4.1
	c-0.3,0.4-0.9,1.2-0.2-0.2c0.7-1.3,2.1-5.2,2.3-8.9c0.2-3.7-0.3-5.7-0.8-6.7c-0.5-1-0.9-1.4-0.9-1.4s0.1,2.5-0.7,6.1
	c-0.8,3.6-1.9,5.5-1.9,5.5s-0.5,0.5-0.1-0.3c0.2-0.6,0.7-1.9,0.9-4c0.2-2.3,0.2-4.9-0.4-7.1c-0.7-2.4-2-3.6-2-3.6
	c-0.4,3.5-0.3,7.9-1.5,11.5c-0.2-0.2-0.6-0.6-0.7,0.2c-0.2,1.2-0.7,3.4-2.3,6.3c-1.6,2.8-2.2,3.2-2.2,3.2s-0.3-0.7-0.5-1.1
	c-0.2-0.4-0.3-0.6-0.6-0.1c-0.3,0.5-1.1,2.5-3,4.7c-1.9,2.2-3,3.3-2.9,4.9c0.1,1.7,0.9,2.5,2.1,3.2c1.2,0.8,1.4,1.2,1.2,2.1
	c-0.2,0.9-1.2,1.2-2.1,1.2c-0.9,0-2-0.1-2.4,0.2c-0.4,0.2-0.4,0.8-0.8,1.2c-0.4,0.4-0.6,0.6-1,0.7c-0.1,0-0.2,0-0.3,0
	c-0.1-4.4,1.6-6.3,1.6-6.3l-4.7-5.5c-0.2,0.1-0.5,0.2-0.7,0.3c0-0.1-0.1-0.1-0.1-0.2c-0.6-0.8-0.8-1.5-0.8-2.5
	c0.2,0,0.7,0.2,1.1,0.1c0.4-0.1,0.1-0.5,0-0.9c-0.1-0.4-0.3-1.8-0.2-2.4c0.1-0.5,0.1-0.8,0.1-0.8s0.7,0.8,1.1,0.8
	c0.4,0,0.4-0.4,0.4-0.9c0.1-0.7,0.4-1.6,1-2.1c0,0,0.7,0.5,1.6,0.5c0.9,0,2-0.2,2.9-1.1c0.9-0.9,0.9-1.1,0.9-1.1s1.7,0.6,3,0.7
	c1.3,0.1,2.7-0.2,3.4-1.5c0.7-1.4-0.2-2.6-0.3-2.8c-0.2-0.2-0.6-0.4-0.6,0s0,1.4-0.8,1.9c-0.8,0.5-1.4,0.5-2.2,0.3
	c-0.7-0.2-1.8-0.5-3-0.4c-1.1,0.2-1.2,0.2-1.2,0.3c0.1-0.1,1-1.1,2-1.3c1-0.3,1.6,0.1,1.9,0.5c0.3,0.4,0.6,1,0.9,0.1
	c0.3-0.9,0.1-1.9-0.3-2.6c-0.4-0.7-1.3-1.1-2.3-1c-1,0.1-1.3,0.3-1.3,0.3s-0.5-1.4-1.7-1.6c-1.5-0.3-3.2,0.3-4.5,1
	c0,0-1,0.2-2.1-0.1c-0.7-0.2-1.4-0.6-1.8-0.9c0.1-0.4,0.4-1.1,0.4-1.1s0.3-0.1,0.6-0.2c0.3-0.1,0.2-0.2,0.3-0.5
	c0-0.3-0.6-0.7-0.6-0.7s-0.1-0.8,0.9-1.3c1-0.5,0.9-0.4,0.9-0.4s0.6,0.1,0.9-0.1c0.2-0.2,0.2-0.3,0.2-0.3s0.5-0.1,0.6-0.4
	c0.2-0.3,0.2-0.7,0.1-1c-0.1-0.3-0.3-0.4-0.1-0.5c0.2-0.2,0.3-0.5,0.3-0.8c0-0.3,0-0.3,0-0.3s0.4-0.1,0.3-0.7c0-0.5-0.3-0.7-0.5-0.8
	c-0.2,0-0.3,0-0.3,0s0-0.3-0.3-0.7c-0.3-0.4-0.5-0.6-0.5-0.6s0.2-0.2,0.1-0.5c-0.1-0.4-0.4-0.6-0.6-0.6c-0.2-0.1-0.5,0-0.5,0
	s-0.8-0.5-1.2-0.7C58.1,7.9,58,7.9,58,7.9s0-0.3-0.2-0.5c-0.1-0.2-0.5-0.3-0.6-0.3c-0.2,0-0.4,0.1-0.4,0.1S55.5,6.8,55,6.8
	c-0.6-0.1-0.6-0.1-0.6-0.1S53.1,6,52.7,5.9c-0.5-0.1-0.6-0.1-0.6-0.1s0.5-0.6,0.5-1.3c0-0.7-0.4-1.3-0.9-1.6
	c-0.3-0.2-0.4-0.2-0.5-0.2l0-0.5l0.9,0.1l0.1-1.5l-0.9,0.1L51.4,0l-1.9,0l0.1,0.9l-0.9-0.1l0.1,1.5l0.9-0.1l-0.1,0.5
	c0,0-0.3,0.1-0.6,0.3c-0.5,0.3-0.9,0.9-0.9,1.5c0,0.7,0.4,1.3,0.4,1.3s-0.1,0-0.6,0.1c-0.5,0.1-1.7,0.7-1.7,0.7s0,0-0.6,0.1
	c-0.6,0.1-1.9,0.4-1.9,0.4s-0.2-0.1-0.4-0.1c-0.2,0-0.5,0.1-0.6,0.3c-0.1,0.2-0.2,0.5-0.2,0.5s-0.1,0-0.5,0.2
	C41.8,8.3,41,8.8,41,8.8s-0.3-0.1-0.5,0c-0.2,0.1-0.5,0.3-0.6,0.6C39.8,9.8,40,10,40,10s-0.2,0.2-0.5,0.6c-0.3,0.4-0.3,0.7-0.3,0.7
	s-0.1,0-0.3,0c-0.2,0-0.5,0.3-0.5,0.8c0,0.5,0.3,0.7,0.3,0.7s0,0.1,0,0.3c0,0.3,0.2,0.6,0.3,0.8c0.2,0.2,0,0.2-0.1,0.5
	c-0.1,0.3-0.1,0.7,0.1,1c0.2,0.3,0.6,0.4,0.6,0.4s0,0.1,0.2,0.3c0.2,0.2,0.9,0.1,0.9,0.1s-0.1-0.1,0.9,0.4c1,0.5,0.9,1.3,0.9,1.3
	s-0.6,0.5-0.6,0.7c0,0.3,0,0.4,0.3,0.5c0.3,0.1,0.6,0.2,0.6,0.2s0.2,0.7,0.4,1.1c-0.4,0.3-1.1,0.7-1.8,0.9c-1,0.3-2.1,0.1-2.1,0.1
	c-1.3-0.7-3-1.3-4.5-1c-1.2,0.3-1.7,1.6-1.7,1.6S33,22,32.1,21.9c-1-0.1-1.9,0.3-2.3,1c-0.4,0.7-0.6,1.7-0.3,2.6
	c0.3,0.9,0.5,0.3,0.9-0.1c0.3-0.4,0.9-0.8,1.9-0.5c1,0.3,1.9,1.3,2,1.3c0,0-0.2-0.1-1.2-0.3c-1.2-0.2-2.2,0.1-3,0.4
	s-1.4,0.3-2.2-0.3C27,25.6,27,24.5,27,24.1s-0.4-0.2-0.6,0c-0.1,0.2-1,1.5-0.3,2.8c0.7,1.4,2.1,1.6,3.4,1.5c1.3-0.1,3-0.7,3-0.7
	s0,0.2,0.9,1.1s2.1,1.1,2.9,1.1s1.6-0.5,1.6-0.5c0.6,0.5,0.9,1.4,1,2.1c0.1,0.5,0,0.9,0.4,0.9c0.4,0,1.1-0.8,1.1-0.8s0,0.2,0.1,0.8
	s0,1.9-0.2,2.4c-0.1,0.4-0.4,0.8,0,0.9c0.4,0.1,0.9-0.1,1.1-0.1c0,1-0.2,1.7-0.8,2.5c-0.1,0.1-0.1,0.1-0.1,0.2
	c-0.2-0.1-0.5-0.2-0.7-0.3l-4.7,5.5c0,0,1.7,1.9,1.6,6.3v0c-0.1,0-0.2,0-0.3,0c-0.4-0.1-0.5-0.3-1-0.7c-0.4-0.4-0.4-1-0.8-1.2
	s-1.5-0.1-2.4-0.2c-0.9,0-1.9-0.3-2.1-1.2c-0.2-0.9,0-1.3,1.2-2.1c1.2-0.8,2-1.6,2.1-3.2c0.1-1.6-1-2.7-2.9-4.9
	c-1.9-2.2-2.8-4.2-3-4.7c-0.3-0.5-0.4-0.3-0.6,0.1c-0.2,0.4-0.5,1.1-0.5,1.1s-0.6-0.4-2.2-3.2c-1.6-2.8-2-5.1-2.3-6.3
	c-0.1-0.8-0.4-0.4-0.7-0.2c-1.3-3.6-1.2-8.1-1.6-11.5c0,0-1.3,1.2-2,3.6c-0.7,2.2-0.6,4.8-0.4,7.1c0.2,2.2,0.6,3.5,0.9,4
	c0.3,0.9-0.1,0.3-0.1,0.3s-1.1-1.9-1.9-5.5c-0.8-3.6-0.7-6.1-0.7-6.1s-0.4,0.4-0.9,1.4c-0.5,1-1,3.1-0.8,6.7
	c0.2,3.7,1.6,7.6,2.3,8.9c0.7,1.3,0.1,0.5-0.2,0.2c-0.3-0.4-1.5-2.4-2.2-4.1c-0.6-1.8-1.8-5.4-1.9-5.9c-0.1-0.6-0.3-0.2-0.5,0.3
	c-0.2,0.5-0.7,2.1-0.7,3.3c0,1.2,0.2,3.2,1,5.2c0.8,2,2.2,4.1,3,5c0.7,0.9,0.2,0.4-0.2,0.2c-0.3-0.3,0,0.1-1.5-1.5
	c-1.5-1.6-3.3-5.2-3.6-5.8c-0.3-0.6-0.5,0.1-0.5,0.4c0,0.3-0.2,2.1,0.9,5.1c1.1,3,3.9,5.4,5.3,6.4c1.5,1,0.4,0.5-0.3,0.1
	c-0.7-0.4-2.2-1.4-3.1-2.2c-0.9-0.8-2.5-2.8-3-3.1c-0.5-0.4-0.6-0.5-0.5,1c0,1.4,1.2,3.7,2.8,5.3c1.5,1.5,3.6,2.3,4.2,2.5
	c0.6,0.2,0.1,0.1-0.5-0.1c-0.6-0.2-1.7-0.5-2.9-1.1c-1.2-0.7-2.9-2-3.5-2.5c-0.6-0.4-0.5,0.2-0.3,0.9c0.2,0.8,0.6,2.2,2.8,4
	c2.2,1.8,5.4,2.7,6.3,3c0.9,0.3,0.3,0.3,0.3,0.3s-0.4-0.1-2.2-0.5c-1.8-0.4-4.6-1.9-5.4-2.3c-0.8-0.5-0.9-0.7-0.8,0.3
	c0.1,1,1.2,3.1,2.9,4.1c1.7,1,4.8,1.5,5.6,1.5c0.8,0,0.6,0.2,0.2,0.2c-0.4,0-1.2,0-2.7-0.1c-1.2-0.1-2.9-0.7-3.5-0.9
	c-0.1-0.3-0.1-0.5-0.2-0.7c-0.1-0.4-0.3-0.3-0.4-0.2c-0.1,0.1-0.2,0.2-0.6,0.4c-0.4,0.2-0.4,0-0.5-0.2c0-0.1-0.1-0.7-0.1-1
	c0-0.3-0.2-0.3-0.4-0.2c-0.2,0.1-1.1,0.5-1.5,0.6c-0.4,0.2,0,0.4,0.2,0.8C7.7,50.9,8,51.4,8,51.4s-0.9,0.2-1.2,0.3
	c-0.3,0.1-0.2,0.3-0.1,0.5c0.1,0.2,0.5,1.2,0.6,1.5c0.1,0.3,0.4,0.1,0.4,0.1l0.9-0.5l0.3,1.2c0,0-0.4,0.1-0.9,0.4
	c-0.4,0.3-0.3,0.7,0.2,0.9c0.5,0.2,1.2,0.4,1.9,1.7c0.7,1.3,0.9,3.5,1.3,7.1c0.4,3.6,2.7,5.4,3,5.6c0.3,0.2,0.1,0.4,0.1,0.4
	s-0.3,0.5-0.2,1.1c0.1,0.7,0.7,1.1,1.1,1.2c0.3,0.1,0.2,0.4,0.2,0.4s-0.2,0.8,0,2.2c0.2,1.4,1.3,3,1.6,3.2c0.3,0.3,0.3,0.4,0.3,0.5
	c0,0.1-0.2,0-0.6,0.3c-0.4,0.3-0.8,0.7-1.1,1.2c-0.3,0.5-0.2,0.8-0.1,1.5c0.1,0.7,1.1,1.3,1.1,1.3s-0.2,0-0.2,0.5
	c0,0.5,0.3,1.1,0.8,1.4c0.4,0.4,1.3,0.5,1.3,0.5s0.1,0.4,0.1,0.7c0,0.3,0.6,0.6,1,0.8c0.4,0.2,1.1,0.1,1.3,0c0.3-0.1,0.5,0,0.7,0.3
	c0.2,0.3,0.1,1.4,0.1,1.9c0,0.4-0.3,0.9-0.1,1.1c0.2,0.2,0.6,0.1,1-0.2c0.4-0.2,0.5-0.1,0.9,0.2c0.4,0.2,1,0.5,1.1,0.4
	c0.2,0,0.1-0.4,0.1-0.8s0.1-1.1,0.2-1.2c0.1-0.1,0.7-0.1,1.2-0.3c0.2-0.1,0.5-0.2,0.6-0.4c0-0.2-0.3-0.2-1.1-0.6
	c-0.7-0.4-0.9-0.6-1.3-0.9c-0.5-0.3-0.2-0.4-0.2-0.6c0-0.1,0.2-0.3,0.3-0.5c0.1-0.2,0-0.6,0-0.6s0.4-0.4,0.6-0.6
	c0.2-0.2,0.4-0.5,0.6-0.7c0.2-0.2,0.6-1.2,0.9-1.5c0.2-0.3,0.8-0.7,1.1-1.1c0.3-0.4,1.2-1.1,1.7-1.5c0.5-0.3,1.9-1,1.9-1
	s0,0.8,0.3,1.2c0.4,0.4,0.8-0.3,2.4-1.4c1.6-1.1,2.8-1.5,2.8-1.5s0.3,0.5,0.8,1.1c0.4,0.5,0.8,0,2.8-2.7c1.5-2.1,3.6-4.1,4.3-4.8
	c0.1,0.1,0.3,0.1,0.4,0.2c0,0.1-0.1,0.2-0.1,0.3c-0.2,0.6-0.5,0.9-0.8,1.7c-0.4,0.8-1,1-1.6,2c-0.7,1-0.8,1.8-0.8,2.8
	c-0.1,1.1,0.5,1.3,0.5,1.3s-1,1-1.3,1.7c-0.3,0.7-0.4,2.2-0.4,2.2s-0.2,0.1-0.5,0.8c-0.4,0.7-1,0.8-1.9,1.8c-0.9,0.9-2,1.3-2.5,1.6
	c-0.5,0.3-0.4,0.6-0.2,1c0.1,0.4,0.8,0.8,1.6,1c0.8,0.3,1,0.2,1.6,0.2c0.5,0,0.1,0.4-0.1,0.6c-0.2,0.2-0.5,1-0.5,1.9
	c0,0.9,0.7,0.7,1.5,0.5c0.8-0.1,1.7-0.5,1.7-0.5s0,0-0.1,0.2c-0.1,0.2-0.1,0.4-0.1,1.1c0,0.7,0.1,1,0.3,1.2c0.2,0.2,0.6-0.2,0.9-0.3
	c0.3-0.1,0.8-0.4,1.5-0.5c0.7-0.2,1-0.5,1-0.5s-0.2,0.2-0.2,0.7c0,0.5,0,1.2,0.1,1.7c0.1,0.4,0.4,0.9,0.9,1.4c0.5,0.4,0.6,0.2,1-0.3
	c0.4-0.6,1.1-1.3,1.1-1.3s0,0.2,0.5,1.8c0.5,1.6,2.1,2.9,2.1,2.9s1.6-1.3,2.1-2.9c0.5-1.6,0.5-1.8,0.5-1.8s0.7,0.7,1.1,1.3
	c0.4,0.6,0.5,0.8,1,0.3c0.5-0.4,0.8-1,0.9-1.4c0.1-0.4,0.1-1.2,0.1-1.7c0-0.5-0.2-0.7-0.2-0.7s0.3,0.3,1,0.5
	c0.7,0.2,1.2,0.4,1.5,0.5c0.3,0.1,0.7,0.5,0.9,0.3c0.2-0.2,0.3-0.5,0.3-1.2c0-0.7,0-0.9-0.1-1.1c-0.1-0.2-0.1-0.2-0.1-0.2
	s0.9,0.4,1.7,0.5c0.8,0.1,1.4,0.3,1.5-0.5c0-0.9-0.2-1.6-0.5-1.9c-0.2-0.2-0.6-0.6-0.1-0.6c0.5,0,0.8,0.1,1.6-0.2
	c0.8-0.3,1.4-0.7,1.6-1c0.1-0.4,0.3-0.7-0.2-1c-0.5-0.3-1.5-0.7-2.5-1.6c-0.9-0.9-1.6-1-1.9-1.8c-0.4-0.7-0.5-0.8-0.5-0.8
	s-0.2-1.5-0.4-2.2c-0.3-0.7-1.3-1.7-1.3-1.7s0.6-0.2,0.5-1.3c-0.1-1.1-0.2-1.8-0.8-2.8c-0.7-1-1.2-1.2-1.6-2
	c-0.4-0.8-0.7-1.1-0.8-1.7c0-0.1-0.1-0.2-0.1-0.3c0.2-0.1,0.4-0.2,0.6-0.3c0.8,0.7,2.8,2.7,4.4,4.8c1.9,2.7,2.3,3.3,2.8,2.7
	c0.4-0.5,0.8-1.1,0.8-1.1s1.2,0.4,2.8,1.5c1.6,1.1,2.1,1.8,2.4,1.4c0.2-0.2,0.2-0.6,0.3-0.8c0,0,0.9,0.3,2,0.6
	c0.6,0.2,1.3,0.5,1.8,0.7c1.4,0.6,1.5,0.9,2.6,1.7c1.1,0.9,2.7,0.8,4.1,0.3c1.5-0.4,5.4-1.7,7-2.4c1.6-0.7,2.7-1.3,2.9-1.6
	c0.2-0.3,0.3-1.2,0.3-1.5c0-0.3-0.3-0.8-0.5-0.9c-0.1-0.1-0.1-0.3,0-0.5c0-0.2-0.1-0.8-0.3-1.1C89,74.5,89,74.4,89,73.7
	c0.1-1.6-1.1-3.7-2.7-4.3c0,0,0-0.2-0.2-0.3c-0.1-0.1-0.4-0.2-0.4-0.2s0-0.9,0-1.1c0-0.2,0.1-0.2,0.2-0.1c0.1,0.1,0.3,0.3,0.6,0.3
	c0.3,0.1,0.4-0.1,0.5-0.4c0.1-0.3,0.3-0.9,0.4-1.2c0.1-0.3,0-0.3-0.1-0.4c-0.1,0-0.5-0.1-0.7-0.1c-0.2,0-0.2-0.1-0.1-0.2
	c0-0.1,0.1-0.3,0.4-0.6c0.2-0.4,0-0.4-0.2-0.5c-0.2-0.1-1.3-0.4-1.6-0.4c-0.3,0-0.4,0.2-0.4,0.3c0,0.1,0,0.7,0,0.9
	c0,0.2-0.2,0.1-0.3,0.1c-0.1-0.1-0.4-0.2-0.6-0.4c-0.2-0.2-0.3,0-0.4,0.2c-0.1,0.2-0.3,1.1-0.4,1.4c-0.1,0.3-0.1,0.5,0.1,0.5
	c0.1,0,0.6,0,0.9,0c0.3,0,0.1,0.2,0.1,0.2s-0.3,0.5-0.4,0.8c-0.1,0.2-0.3,0.2-0.6,0.2s-0.7,0-0.7,0s-1.7,0.1-3,1
	c-1.3,0.9-1.6,1.7-1.8,2.2c-0.2,0.5-0.4,0.4-0.6,0.5c-0.2,0.2-0.7,0.7-0.7,1.1c0,0.4,0.1,0.5-0.4,0.9c-0.5,0.4-1,1.9-0.3,2.7
	c0.7,0.8,1,1.6,1.3,2c0.2,0.4,0,0.5-0.2,0.5c-0.2,0-0.6-0.3-0.9-0.6c-0.3-0.3-2-1.6-2.8-2.1c-0.7-0.5-0.2-0.5-0.2-0.5s0.2,0,0.6-0.2
	c0.4-0.2,0.5-0.4,0.1-0.5c-0.4-0.1-1.3-0.6-1.5-0.8c-0.2-0.2-0.3-0.5,0.1-0.7c0.4-0.2,1.4-0.8,0.6-1c-0.7-0.2-1.6-0.4-2.3-0.6
	c-0.7-0.2-0.8-0.4-0.8-0.4l0.5-0.7c0,0,0.4-0.5-0.1-0.6c-0.4-0.1-1.5-0.2-2.5-0.6c-2-0.9-3.2-2.3-3.7-4.1l0,0
	c0.4,0.7,1.2,2.1,2.5,2.1c1.8,0.1,2-0.5,1.6-1.1c-0.4-0.6-0.9-1.1-1-1.3c-0.1-0.2-0.1-0.4,0.3,0c0.5,0.4,1.3,1.9,4,1.7
	c2.7-0.2,2.6-0.7,2.6-0.8c0-0.5-0.5-0.6-0.9-0.9c-0.2-0.2-0.3-0.4,0.3-0.2c0.5,0.2,1.9,0.4,3.6,0.1c0.7-0.2,2.6-1,2.8-1.9
	c0,0-1.2-0.1-2-0.4c-0.8-0.4-1.3-0.7-0.4-0.5c0.9,0.2,2.6,0.5,4.1,0c0.9-0.3,2-1,2-2.3c0,0-1.6-0.3-2.2-0.6
	c-0.6-0.2-0.8-0.4-0.8-0.4s2.3,0.7,4.5-0.3C87,58,87,56.5,87,56.1S87,55.7,87,55.7s-1.9,0.5-3.4,0.5c-1.4,0-1.9-0.1-1.9-0.1
	s4-0.1,6.1-1.4c2-1.2,2.1-3.7,2.1-3.7s-2.3,0.8-3.7,1c-1.4,0.2-2.3,0.2-2.7,0.1c-0.4,0-0.6-0.1,0.2-0.2c0.8,0,3.9-0.6,5.6-1.5
	c1.7-1,2.8-3.1,2.9-4.1c0.1-1,0-0.8-0.8-0.3c-0.8,0.5-3.5,1.9-5.4,2.3c-1.8,0.4-2.2,0.5-2.2,0.5S83.1,48.7,84.1,48.4L84.1,48.4z
	 M11.4,53.1c-0.2,0.1-0.8,0.5-0.8,0.5s-0.3-0.7-0.4-0.9c-0.1-0.2,0-0.3,0.1-0.3c0.1,0,0.5-0.1,0.7-0.1c0,0,0.1,0,0.1,0
	C11.1,52.5,11.3,52.8,11.4,53.1C11.4,53.1,11.4,53.1,11.4,53.1L11.4,53.1z M36.2,67.6c-0.5,0.9-1.8,1.9-2.8,2.3
	c-1,0.4-2.1,0.6-2.5,0.6c-0.4,0.1-0.1,0.6-0.1,0.6l0.5,0.7c0,0-0.1,0.2-0.8,0.4c-0.7,0.2-1.6,0.4-2.3,0.6c-0.7,0.2,0.2,0.8,0.6,1
	c0.4,0.2,0.3,0.5,0.1,0.7c-0.2,0.2-1.1,0.7-1.5,0.8c-0.4,0.1-0.4,0.4,0.1,0.5c0.4,0.2,1.6,0.4,1.6,0.4s0,0-0.7,0.6
	c-0.7,0.5-2,0.9-2.8,0.9c-0.8,0-2.1,0.1-3.8,0c-1.7-0.1-1.9-0.1-1.9-0.1s-0.1-0.6-0.2-1.4c-0.1-0.8-0.6-2-1-2.5
	c-0.4-0.5-1.2-1.6-1.2-1.6s0-0.2,0.1-0.5c0.1-0.3,0-0.6-0.2-1.1c-0.2-0.5-1.2-1.2-1.2-1.2s0-0.5,0-1c0-0.5-0.3-2.5-0.7-3.4
	c-0.3-0.9-1.8-3.4-2.5-4.5c-0.7-1.2-1.1-2.9-1.3-4.2c-0.2-1.3-0.1-1.8-0.1-2.1c0-0.2,0.1-0.3,0.2-0.4c0.3,0.4,0.7,0.7,1.1,1
	C15,55.9,19,56,19,56s-0.4,0.1-1.9,0.1c-1.4,0-3.4-0.5-3.4-0.5s-0.1,0.1-0.1,0.4c0,0.3,0.1,1.8,2.2,2.9c2.1,1.1,4.5,0.3,4.5,0.3
	s-0.2,0.2-0.8,0.4c-0.6,0.2-2.2,0.6-2.2,0.6c0,1.3,1.1,2,2,2.3c1.5,0.5,3.2,0.2,4.1,0c0.9-0.2,0.4,0.1-0.4,0.5c-0.8,0.4-2,0.4-2,0.4
	c0.2,1,2.1,1.8,2.8,1.9c1.8,0.4,3.1,0.1,3.6-0.1c0.5-0.2,0.4,0,0.3,0.2c-0.3,0.3-0.9,0.4-0.9,0.9c0,0.1,0,0.7,2.6,0.8s3.5-1.3,4-1.7
	c0.5-0.4,0.4-0.2,0.3,0c-0.1,0.2-0.6,0.7-1,1.3c-0.4,0.6-0.2,1.1,1.6,1.1c1.3,0,2.2-1.4,2.5-2.1l0,0c0,0,0,0.1,0.1,0.1
	C36.8,66.3,36.5,67,36.2,67.6L36.2,67.6z M57.6,10.1c-0.2-0.5-0.4-0.7-0.4-0.7s1,0.5,1.6,1.1c0.6,0.7,0.6,1,0.7,1.4
	c0.1,0.3,0,0.9-0.1,1.5c-0.1,0.6-0.1,0.9,0,1.1c0.1,0.2,0.2,0.3,0.2,0.3s-0.4,0.1-0.9,0.3c-0.4,0.2-1,0.3-1.3,0.1
	c-0.3-0.3-0.4-0.4-0.2-0.6c0.2-0.2,0.9-0.4,1-1.6C58.4,11.8,57.9,10.5,57.6,10.1L57.6,10.1z M52.2,13.4c0.2-0.6,0.3-1.1,0.1-2.3
	c-0.1-1-0.3-1.9-0.4-2.9c0,0,0.7,0.2,1.8,1.1c1.1,1,1.3,2,1.3,2.5c0,0.5-0.3,1.1-0.3,1.6c0,0.5,0.1,0.9,0.1,0.9s-0.4,0.2-0.7,0.4
	c-0.3,0.2-0.6,0.4-1.1,0.4c-0.5,0-0.9-0.3-1.2-0.4c-0.3-0.2-0.5-0.2-0.5-0.2S51.9,14,52.2,13.4L52.2,13.4z M47,9.3
	c1.1-1,1.8-1.1,1.8-1.1c0,1.1-0.2,1.9-0.4,2.9c-0.2,1.2-0.1,1.7,0.1,2.3c0.2,0.6,0.8,0.9,0.8,0.9s-0.2,0-0.5,0.2
	c-0.3,0.2-0.6,0.4-1.2,0.4c-0.5,0-0.8-0.1-1.1-0.4c-0.4-0.2-0.7-0.4-0.7-0.4s0.2-0.4,0.1-0.9c0-0.5-0.3-1.1-0.3-1.6
	C45.7,11.2,45.9,10.2,47,9.3L47,9.3z M43.1,15.2c-0.3,0.3-0.8,0.1-1.3-0.1c-0.4-0.2-0.9-0.3-0.9-0.3s0.1-0.1,0.2-0.3
	c0.1-0.2,0.1-0.5,0-1.1c-0.1-0.6-0.2-1.2-0.1-1.5c0.1-0.3,0.1-0.7,0.7-1.4c0.6-0.7,1.6-1.1,1.6-1.1s-0.1,0.2-0.4,0.7
	c-0.2,0.5-0.8,1.7-0.7,2.9c0.1,1.2,0.8,1.4,1,1.6C43.5,14.7,43.4,14.9,43.1,15.2L43.1,15.2z M57.3,25.4c-1,0.6-1.6,0.5-1.6,0.9
	c0,0.4,1,0.8,1,0.8s-1,1-1.7,1.5c-0.7,0.5-1.6,0.8-1.6,0.8s-0.3,0-0.1,0.5c0.2,0.5,0.5,0.8,0.7,0.9c0.2,0.1,0.4,0.2,0.4,0.2
	s-1.3,1.4-1.9,1.8c-0.6,0.5-0.9,0.6-1.4,0.8c-0.5,0.2-0.2,1-0.1,1.3c0.1,0.3,0.5,0.8,0.7,0.9c0.2,0.1,0.3,0.2,0,0.7
	c-0.2,0.4-1,1.3-1.3,1.8l0,0c-0.4-0.5-1.1-1.5-1.3-1.8c-0.3-0.5-0.2-0.6,0-0.7c0.2-0.1,0.6-0.5,0.7-0.9c0.1-0.3,0.3-1.1-0.1-1.3
	c-0.5-0.2-0.8-0.3-1.4-0.8c-0.6-0.5-1.9-1.8-1.9-1.8s0.1,0,0.4-0.2c0.2-0.1,0.5-0.5,0.7-0.9c0.2-0.5-0.1-0.5-0.1-0.5
	s-0.9-0.3-1.6-0.8C45,28,44,27,44,27s0.9-0.3,1-0.8c0-0.4-0.6-0.3-1.6-0.9S42,24.1,42,24.1s1.2-0.4,1.8-1.6c0.2-0.4,0.3-0.8,0.2-1.2
	l0,0c1.9,0.6,4.2,0.9,6.2,0.9c2,0,4.3-0.3,6.2-0.9l0,0c0,0.3,0,0.7,0.2,1.2c0.6,1.2,1.8,1.6,1.8,1.6S58.4,24.8,57.3,25.4L57.3,25.4z
	"/>
<path fill="#6D8C3E" d="M38,62.2c0.6,1.7,1.9,3.5,3.8,4.6c2.6,1.6,3.8,1.4,6.3,3c2.5,1.6,2.3,1.9,2.4,1.9s-0.1-0.3,2.4-1.9
	c2.5-1.6,3.6-1.4,6.3-3c1.9-1.1,3.1-2.9,3.8-4.6H38L38,62.2z"/>
<path fill="#1D5F92" d="M52.2,57.6c-0.2-0.2-0.2-0.2-0.4-0.1c-0.2,0.2-0.4-0.4-0.4-0.7c0-0.3,0.1-1.3,0.1-1.3s-0.9,0.2-1.3,0.3
	c-0.5,0.2-0.9,0.2-1.3,0.3s-0.6,0.2-0.8,0.1c-0.2,0-0.6-0.1-0.9-0.1c-0.3,0-0.3,0.1-0.6,0.4c-0.3,0.3-0.4,0.5-0.7,1.1
	c-0.3,0.6-0.4,1.2-0.4,1.9c-0.1,0.5-0.2,0.8-0.2,1h3.9c0-0.1,0.1-0.3,0.2-0.4c0.1-0.2,0.3-0.4,0.5-0.4c0.2-0.1,0.3-0.1,0.4-0.2
	c0.1-0.2,0.3-0.3,0.5-0.4c0.2-0.1,0.6,0,0.9,0.1c0.3,0.1,0.4-0.1,0.5-0.3c0.1-0.1,0.1-0.3,0.3-0.5c0.2-0.2,0-0.4,0-0.4
	S52.3,57.9,52.2,57.6L52.2,57.6z M58.5,57.7c-0.1-0.2,0-0.3-0.2-0.3c-0.1,0-0.4-0.1-0.6-0.2c-0.2-0.1-0.2,0.4-0.2,0.4s-0.5,0.1-1,0
	c-0.5-0.1-1.1-0.5-1.4-0.7c-0.2-0.2-0.5-0.5-0.5-0.5s-0.2,0.2-0.3,0.2c-0.2,0.1-0.3,0.4-0.3,0.8c0,0.3,0.4,0.7,0.4,1.1
	c0,0.3-0.4,1-0.6,1.3c-0.1,0.2-0.3,0.6-0.4,0.8h1.9c0-0.1,0.1-0.2,0.2-0.3c0.2-0.2,0.5-0.2,0.5-0.2s0-0.1,0.1-0.3
	c0.1-0.2,0.3-0.4,0.7-0.6c0.5-0.2,1-0.2,1-0.2s0.2-0.2,0.4-0.4C58.6,58.4,58.5,58,58.5,57.7L58.5,57.7z M62,50.7
	c-0.5-3.4,1-6.1,1-6.1L59.9,41c-2.7,1.4-6,1-9.5-0.2c-3.6,1.2-6.8,1.6-9.5,0.2l-3.2,3.5c0,0,1.5,2.7,1,6.1c-0.5,3.4-1.3,7.2-1.1,9.5
	c0,0.2,0,0.3,0,0.5h2.9c0,0,0.2-0.2,0.5-0.3c0.3-0.1,0.4-0.2,0.4-0.2s0.1-0.6,0.4-0.7c0.4-0.1,0.5-0.1,0.6-0.1c0.1,0,0.2,0,0.4-0.2
	c0.2-0.2,0.6-0.6,0.8-1.2c0.2-0.6,0.3-0.8,0.3-1.2c0-0.4,0.1-1,0.1-1s-0.1-0.2-0.4-0.1c-0.3,0.1-0.3-0.2-0.4-0.5
	c0-0.3,0-0.9,0.2-1.2c0.2-0.3,0.2-0.4,0.2-0.4l-0.1-0.5c0,0-1.8,0.4-2.2-1.1c-0.3-1.4-0.4-2.1-0.4-2.3c0-0.2-0.1-0.2-0.3-0.2
	c-0.2,0-0.8-0.2-1.1-0.9c-0.4-0.7-0.4-1-0.3-1.3c0.1-0.3,0.3-0.2,0.4-0.1c0.1,0.1,0.6,0.8,0.8,0.6c0.2-0.2,0.1-0.2-0.2-0.8
	c-0.3-0.6-0.2-0.7-0.2-1c0-0.3-0.1-0.6-0.1-0.8c0-0.2,0.2-0.3,0.3-0.2c0.2,0.1,0.3,0.2,0.4,0.3c0.1,0.1,0.1,0.2,0.3,0.1
	c0.2-0.1,0.1-0.6,0.1-0.8c0-0.2,0.2-0.3,0.4-0.2c0.2,0.1,0.4,0.4,0.4,0.6c0,0.2,0,0.4,0.1,0.4c0.1,0,0.2-0.3,0.2-0.5
	c0-0.2,0.1-0.5,0.3-0.2c0.2,0.2,0.2,0.6,0.2,0.9c-0.1,0.4,0.1,0.2-0.1,0.8c-0.1,0.6-0.2,0.9-0.2,1.4c0,0.5,0,0.7,0.3,1.3
	c0.2,0.6,0.4,1.2,0.8,1.2c0.4,0,0.6,0,0.6,0s0.5-0.9,0.8-1.1c0.4-0.2,0.9-0.2,1.3-0.3c0.4,0,0.5-0.2,0.5-0.2s-0.1-0.1-0.6-0.2
	c-0.4-0.1-0.8-0.2-0.8-0.5c0-0.3,0.1-0.6-0.2-0.6c-0.3,0-1-0.2-1.3-0.7c-0.3-0.5-0.2-0.6-0.2-0.8c0-0.3,0.4-0.8,0.6-0.3
	s0.4,0.6,0.5,0.7c0.2,0.1,0.4,0.1,0.3-0.2c-0.1-0.3-0.2-0.6-0.2-0.8c0-0.2,0.2-0.4,0.4-0.4c0.2,0,0.8-0.2,1.1-0.3
	c0.3-0.1,0.3-0.1,0.3-0.1s0-0.2,0.4-0.3c0.4-0.1,0.7-0.1,1-0.1c0.3,0,0.5,0,0.9-0.1c0.4-0.2,0.7-0.2,0.9-0.2c0.2,0,0.4,0.1,0.6,0.2
	c0.2,0.1,0.1,0.3,0.1,0.5c0,0.2,0,0.3,0.3,0.3c0.3,0,0.5,0,0.7,0.1c0.2,0.1,0.6,0.2,0.4,0.5c-0.2,0.3-0.2,0.6-0.4,0.5
	c-0.1,0-0.1,0.1-0.2,0.2c-0.1,0.1-0.1,0.2,0,0.3c0.2,0.1,0.2,0.2,0.4,0.4c0.2,0.2,0.5,0.4,0.2,0.7c-0.3,0.3-0.9,0.6-0.9,0.6
	s-0.3,0.2,0,0.4c0.4,0.2,0.5,0.7,0.7,0.7c0.1,0.1,0.3,0.2,0.4,0.2c0.1,0,0.1,0.4,0.1,0.4s-0.2,0.1-0.5,0.2c-0.3,0.1-0.6,0.2-0.8,0.2
	c-0.3,0-0.4,0-0.3,0.2c0.1,0.2,0.3,0.5,0.3,0.6c0,0.1,0.1,0.4,0.1,0.4s0.4,0.1,0.8,0.1c0.4,0,0.6,0,1.4-0.1c0.8-0.1,1.1-0.1,1.9,0
	c0.8,0.1,0.9,0.1,1.2,0.1c0.2,0.1,0.4,0.2,0.4,0.2s1.2,0,1.8-0.2c0.6-0.1,0.8-0.5,0.7-0.8c-0.1-0.2-0.1-0.5-1.2-0.7
	c-1.1-0.2-1.5-0.1-2.4-0.3c-0.9-0.2-2.2-0.6-2.5-1.7c-0.2-1.1,0.6-1.6,1.1-1.8c0.4-0.2,1.4-0.6,1.9-0.7c0.4-0.2,1.3-0.4,2.1-0.2
	c0.9,0.1,1.3,0.4,1.7,0.2c0.3-0.2,0.6,0,0.6,0.3c-0.1,0.3-0.4,0.9-1.4,1.2c-1,0.3-2.1,0.3-2.8,0.2c-0.6-0.2-1.1-0.4-1.5-0.3
	c-0.4,0.1-0.8,0.6-0.4,1.2c0.4,0.6,2.5,0.7,3.1,0.8c0.6,0.1,2.7-0.1,3.3,1c0.6,1,0.1,2.2-0.6,2.5c-0.7,0.3-1.3,0.4-1.8,0.5
	c-0.5,0.1-0.5,0.1-0.5,0.1s0.2,0.6,0.2,0.8c0,0.2,0,0.7,0.2,0.8c0.3,0.2,0.6,0.3,1.1,0.2c0.4,0,1,0.3,1,0.7c0,0.4,0.2,1,0.2,1.8
	c0,0.8,0,1.5,0,1.5s0,0.3-0.1,0.6c-0.1,0.3-0.7,1.4-0.7,1.4h3.1c0-0.2,0-0.3,0-0.5C63.3,57.9,62.5,54.1,62,50.7L62,50.7z M50.4,6.1
	c0.8,0,1.5-0.5,1.7-1.1h-3.4C48.9,5.7,49.6,6.1,50.4,6.1L50.4,6.1z M51.1,3v0.8H52C51.8,3.5,51.5,3.2,51.1,3L51.1,3z M49.7,3
	c-0.4,0.2-0.7,0.4-0.9,0.8h0.9V3z M87.5,76.9c-0.4-0.1-0.6-0.3-0.6-0.3s-0.2,0-0.3,0.2c-0.1,0.3-0.7,0.6-0.7,0.6s-0.7,0.2-0.8,0.7
	c-0.1,0.5,0.3,0.7,0.6,0.6c0.3-0.1,1.2-0.2,1.6-0.7c0.4-0.4,0.4-0.7,0.5-0.9C87.8,77,87.9,77,87.5,76.9L87.5,76.9z M88.6,72.9
	c-0.3-1.1-1-2.5-2.4-3.2c0,0-0.5,1.8-0.7,2.4c-0.2,0.6-0.2,0.6,0.3,0.7c0.4,0.1,1.9,0.4,2.2,0.5C88.3,73.4,88.8,73.6,88.6,72.9
	L88.6,72.9z M82,71.8c0.3,0.1,0.3-0.1,0.4-0.5c0.1-0.4,0.7-2.6,0.7-2.6s-1.5-0.1-2.7,0.6c-1.3,0.6-1.8,1.8-1.8,1.8s0.3,0.1,1.2,0.3
	C80.6,71.5,81.7,71.8,82,71.8L82,71.8z M78.6,74.9c-0.5-0.1-0.7-0.2-0.7-0.2s0.3,1.3,0.9,2c0.5,0.7,1.1,1,2.3,1.1
	c1.1,0,2-0.6,2.1-1.1c0.1-0.5,0.4-0.8,0.4-0.8s-2-0.3-2.9-0.5C79.8,75.1,79.1,75,78.6,74.9L78.6,74.9z"/>
<path fill="#D3AE3A" d="M50.4,46.1c-0.3,0-0.7,0.5-0.9,0.6c-0.1,0.1-0.1,0.2-0.1,0.2s0.1,0.2,0.1,0.4c0,0.2,0.1,0.5,0.1,0.5
	s0,0,0.2,0c0.2,0,0.3-0.1,0.5-0.2c0.2-0.1,0.3-0.2,0.6-0.2c0.3,0,0.4-0.1,0.7-0.3c0.3-0.2-0.2-0.4-0.5-0.7
	C51,46.2,50.8,46.1,50.4,46.1L50.4,46.1z M85.2,73.6c0,0,0,0.6-0.1,0.8c-0.1,0.2-0.2,0.5,0,0.6c0.2,0.1,0.4,0.2,0.6,0.1
	c0.1,0,0.1-0.3,0-0.5c-0.1-0.2-0.2-0.5-0.4-0.7C85.2,73.6,85.2,73.6,85.2,73.6L85.2,73.6z M47.5,17.9c0,0.3-0.3,0.6-0.6,0.6
	c-0.3,0-0.6-0.3-0.6-0.6s0.3-0.6,0.6-0.6C47.2,17.3,47.5,17.5,47.5,17.9z M50.3,21.1c1.8,0,4-0.2,5.1-0.7c0.4,0.1,0.8,0.2,1.3,0.3
	c-1.9,0.7-3.6,1-6.4,1c-2.8,0-4.5-0.3-6.4-1c0.4-0.1,0.8-0.2,1.3-0.3C46.4,20.8,48.5,21.1,50.3,21.1L50.3,21.1z M54.9,20.3
	c-0.8,0.3-2.1,0.5-4.5,0.5c-2.4,0-3.7-0.2-4.5-0.5c1.3-0.2,2.1-0.3,4.5-0.3C52.7,20,53.6,20.2,54.9,20.3L54.9,20.3z M50,1.7L49,1.9
	V1L50,1.1l-0.2-0.9l1.2,0l-0.2,0.9L52,1l0,0.8l-1.1-0.1l0.1,0.9l-1,0.1L50,1.7z M52.1,4c0,0.1,0.1,0.3,0.1,0.5c0,0.1,0,0.1,0,0.2
	h-3.5c0-0.1,0-0.1,0-0.2c0-0.2,0-0.3,0.1-0.5h1.4V2.9c0.1,0,0.2,0,0.3,0c0.1,0,0.3,0,0.4,0V4H52.1L52.1,4z M50.4,13.2
	c0,0,0.1,0.4,0.2,0.6c0.1,0.2,0.2,0.3,0.2,0.5c0,0.2-0.3,0.4-0.4,0.4c-0.1,0-0.4-0.1-0.4-0.4c0-0.2,0.1-0.4,0.2-0.5
	C50.3,13.6,50.4,13.2,50.4,13.2L50.4,13.2z M50.1,15.1c0,0.1,0.1,0.2,0.2,0.2s0.2-0.1,0.2-0.2s-0.1-0.2-0.2-0.2S50.1,15,50.1,15.1z
	 M50.4,9.9c0.3,0,0.5-0.2,0.5-0.5c0-0.2-0.2-0.5-0.5-0.5c-0.3,0-0.5,0.2-0.5,0.5C49.9,9.7,50.1,9.9,50.4,9.9z M50.4,7.9
	c0.2,0,0.4-0.2,0.4-0.4c0-0.2-0.2-0.4-0.4-0.4c-0.2,0-0.4,0.2-0.4,0.4C49.9,7.7,50.1,7.9,50.4,7.9z M50.4,11c-0.3,0-0.5,0.2-0.5,0.5
	s0.2,0.5,0.5,0.5c0.3,0,0.5-0.2,0.5-0.5S50.6,11,50.4,11z M52,12.7c-0.3,1-0.8,1.3-0.8,1.3s-0.4-0.4-0.5-0.7
	c-0.1-0.3-0.3-0.5-0.3-0.5s-0.1,0.2-0.3,0.5C50,13.5,49.6,14,49.6,14h0c0,0-0.5-0.3-0.8-1.3c-0.3-1,0.1-2.1,0.2-3.3
	c0.1-1.2,0.3-3.2,0.3-3.2c0.4,0.2,0.8,0.3,1.1,0.3c0.4,0,0.7-0.1,1.1-0.3c0,0,0.1,2,0.3,3.2C51.9,10.6,52.3,11.6,52,12.7z M49.5,7.6
	c0,0.4,0.4,0.8,0.8,0.8s0.8-0.4,0.8-0.8c0-0.4-0.4-0.8-0.8-0.8S49.5,7.2,49.5,7.6z M49.5,9.6c0,0.5,0.4,0.9,0.9,0.9
	c0.5,0,0.9-0.4,0.9-0.9c0-0.5-0.4-0.9-0.9-0.9C49.9,8.7,49.5,9.1,49.5,9.6z M51.3,11.7c0-0.5-0.4-0.9-0.9-0.9
	c-0.5,0-0.9,0.4-0.9,0.9c0,0.5,0.4,0.9,0.9,0.9C50.9,12.6,51.3,12.2,51.3,11.7z M42.4,18.5l0.8-0.7l1.3,0.3L43.4,19L42.4,18.5z
	 M44.7,14.6c-0.3-0.1-0.4-0.5-0.4-0.7c0-0.2,0-0.6,0-0.6s0,0,0.2,0.2c0.1,0.1,0.4,0.3,0.6,0.5c0.3,0.2,0.1,0.7,0.1,0.7
	S45,14.7,44.7,14.6L44.7,14.6z M45.1,15.1c0,0.1,0.1,0.2,0.2,0.2c0.1,0,0.2-0.1,0.2-0.2c0-0.1-0.1-0.2-0.2-0.2
	C45.1,15,45.1,15,45.1,15.1z M44.3,14.8c0.3,0.1,0.4,0.3,0.5,0.4c0,0.1,0,0.3-0.2,0.4c-0.2,0-0.4-0.1-0.6-0.2
	c-0.2-0.1-0.4-0.1-0.4-0.1s0.2-0.2,0.3-0.3C43.9,14.8,44,14.7,44.3,14.8z M44.6,16.2c0.7-0.1,0.7-0.5,0.7-0.5s0.1,0.6-0.3,0.9
	c-0.2,0.1-0.6,0.2-1,0.3c-0.3,0.1-0.5,0.1-0.8,0.1c-0.6-0.1-1.1-0.4-1.1-0.4l-0.1,0c0.5-0.1,0.9-0.4,1-1
	C43,15.5,43.9,16.2,44.6,16.2L44.6,16.2z M42.1,15.7c-0.2,0.1-0.3,0.2-0.7,0.2c-0.3,0-0.6-0.2-0.7-0.5c0-0.3,0.2-0.3,0.4-0.3
	c0.2,0,0.6,0.2,0.8,0.3C42.3,15.6,42.3,15.6,42.1,15.7z M40,14.4c0.3,0.2,0.4,0.4,0.5,0.6c0.1,0.2-0.3,0.4-0.6,0.4
	c-0.3,0-0.5-0.1-0.6-0.4c-0.1-0.3,0.1-0.8,0.1-0.8S39.7,14.2,40,14.4L40,14.4z M40,15.8c0,0.1,0.1,0.2,0.2,0.2s0.2-0.1,0.2-0.2
	s-0.1-0.2-0.2-0.2S40,15.7,40,15.8z M40.9,13.3c0.2,0.9-0.1,1.4-0.1,1.4c0,0-0.6-0.7-1-0.9c-0.4-0.1-0.5-0.3-0.5-0.5
	c0-0.1,0-0.2,0-0.5c0.3,0,0.6-0.3,0.6-0.7c0-0.3-0.1-0.5-0.3-0.6c0.1-0.4,0.3-0.8,0.5-1.2c0-0.1,0.1-0.1,0.1-0.2
	c0.1,0.1,0.2,0.1,0.3,0.1c0.4,0,0.7-0.3,0.7-0.7c0-0.1,0-0.3-0.1-0.4c0.3-0.2,1.4-0.9,1.7-1c0.1,0.1,0.3,0.1,0.4,0.1
	c0.4,0,0.7-0.3,0.7-0.7c0,0,0,0,0,0C44.6,7.2,45.6,7,45.6,7s-0.9,0.6-1.4,1.1c-0.5,0.5-0.5,0.6-0.5,0.6s-1.4,0.5-2.2,1.7
	C40.7,11.5,40.7,12.4,40.9,13.3L40.9,13.3z M43,7.8c-0.1-0.1-0.1-0.3,0.1-0.4c0.2-0.1,0.4-0.1,0.5,0c0.1,0.1,0.1,0.3-0.1,0.4
	C43.3,7.9,43.1,7.9,43,7.8z M40.2,9.7C40,9.5,40,9.3,40.2,9.1c0.2-0.2,0.4-0.2,0.6,0c0.1,0.1,0.1,0.4-0.1,0.5
	C40.5,9.8,40.3,9.8,40.2,9.7z M38.7,12c0,0.2,0.2,0.4,0.4,0.4c0.2,0,0.4-0.2,0.4-0.4c0-0.2-0.2-0.4-0.4-0.4
	C38.9,11.5,38.7,11.7,38.7,12z M46.5,7.1c0-0.2,0.2-0.4,0.4-0.4c0.2,0,0.4,0.2,0.4,0.3c0,0.2-0.2,0.4-0.5,0.4
	C46.6,7.5,46.5,7.3,46.5,7.1z M48.9,15.4c-0.3-0.1-0.4-0.3-0.4-0.3s0.4-0.3,0.6-0.4c0.2-0.1,0.5-0.1,0.7,0.1c0.2,0.2,0.1,0.5,0,0.6
	C49.6,15.5,49.2,15.6,48.9,15.4L48.9,15.4z M49.9,15.8c0.1-0.2,0.2-0.3,0.2-0.2c0.1,0.1,0.1,0.3-0.1,0.6c-0.1,0.3-0.7,0.3-0.7,0.3
	h-2.6c-0.5,0-0.6-0.1-0.9-0.4c-0.3-0.2-0.3-0.4-0.3-0.5c0,0,0.3,0.2,0.6,0.4c0.3,0.2,0.9,0.2,1.1,0c0.2-0.2,0.3-0.7,0.3-0.7l0.4,0
	c0,0,0.2,0.3,0.4,0.6c0.2,0.2,0.6,0.3,1,0.2C49.7,16.1,49.8,16,49.9,15.8L49.9,15.8z M46,15.3c-0.4-0.2-0.3-0.7-0.3-0.7s0,0,0.2,0
	c0.2,0,0.3,0.1,0.5,0.2c0.2,0.1,0.5,0.2,0.5,0.2s0,0.1-0.2,0.3C46.6,15.4,46.4,15.6,46,15.3L46,15.3z M44.1,11
	c-0.3,0-0.5,0.2-0.5,0.5c0,0.3,0.2,0.5,0.5,0.5c0.3,0,0.5-0.2,0.5-0.5C44.6,11.2,44.4,11,44.1,11z M45.2,8.7L45.2,8.7
	c-0.2-0.1-0.5,0-0.6,0.2c-0.1,0.2,0,0.4,0.3,0.5C45.5,9.5,45.7,8.8,45.2,8.7z M48.9,6.4c0,0.4-0.1,0.5-0.1,0.6
	c0,0.2-0.1,0.4-0.4,0.6c-0.3,0.2-1.5,0.9-2.1,1.7c-0.6,0.8-0.9,2-0.9,2.6c0,0.6,0.3,1,0.3,1.4c0,0.4-0.2,0.7-0.2,0.7
	s-0.4-0.3-0.5-0.5c-0.1-0.2-0.3-0.4-0.5-0.5c-0.1-0.2-0.4-0.1-0.4-0.1s0,0.4,0,0.7c0,0.3-0.1,0.4-0.1,0.5c0,0.2,0.2,0.3,0.1,0.3
	c0,0-1.1-0.2-1.4-1c-0.3-0.8,0-2.2,0.6-3.4c0.7-1.2,1-1.7,2.3-2.6c0.2-0.1,0.4-0.3,0.6-0.4c0,0.1-0.1,0.2-0.1,0.2
	c0,0.3,0.3,0.7,0.7,0.7c0.4,0,0.8-0.4,0.8-0.7c0-0.3-0.3-0.6-0.7-0.6h0c0.6-0.3,1-0.4,1.2-0.5l0,0C48.5,6,48.9,6,48.9,6.4z M45,11.5
	c0-0.5-0.4-0.9-0.9-0.9c-0.5,0-0.9,0.4-0.9,0.9c0,0.5,0.4,0.9,0.9,0.9C44.6,12.4,45,12,45,11.5z M45.6,8.6c-0.3-0.2-0.8-0.1-1.1,0.2
	c-0.3,0.3-0.2,0.8,0.1,1c0.3,0.2,0.9,0.1,1.1-0.2C46,9.3,46,8.8,45.6,8.6z M64.7,56.3c0.4,1.6,0.7,4.6-0.2,6.7
	c-0.8,2.1-1.7,4-5.4,5.5c-3.7,1.5-5.6,2.3-6.8,3.4c-1.3,1.1-1.9,1.9-1.9,1.9s-0.6-0.8-1.9-1.9c-1.3-1.1-3.2-1.9-6.8-3.4
	c-3.7-1.5-4.6-3.4-5.4-5.5c-0.8-2.1-0.5-5.1-0.2-6.7c0.4-1.6,1-4,1-7.3c0-3.3-1.5-5.4-1.5-5.4l4.1-4.7c3.9,1.5,7.5,1.6,10.7,0
	c3.2,1.6,6.8,1.5,10.7,0l4.1,4.7c0,0-1.5,2.1-1.5,5.4l0,0C63.7,52.3,64.3,54.7,64.7,56.3z M62.4,50.3L62.4,50.3
	c-0.5-3.1,1.3-5.9,1.3-5.9l-3.5-4.1c-2.7,1.5-6.5,1.3-9.8-0.2c-3.3,1.5-7.1,1.7-9.8,0.2l-3.5,4.1c0,0,1.8,2.8,1.3,5.9
	c-0.5,3.1-1.6,8.1-1.4,10.1c0.3,2,1.7,4.4,3.2,5.6c1.5,1.2,3.7,2.3,5.2,2.8c1.6,0.6,3.1,1.6,3.8,2.2c0.7,0.6,1.2,1,1.2,1
	s0.5-0.5,1.2-1c0.7-0.6,2.2-1.6,3.8-2.2c1.6-0.6,3.7-1.6,5.2-2.8c1.5-1.2,2.9-3.6,3.2-5.6C64,58.4,62.9,53.5,62.4,50.3z M40.1,48.8
	c-0.3-0.3-0.2-0.4,0-0.5c0.1-0.1,0.3-0.1,0.4,0c0.1,0.1,0.5,0.1,0.6-0.1c0.1-0.2,0.1-0.7-0.2-1c-0.3-0.2-0.4-0.7-0.4-0.9
	c0-0.2,0.3-0.3,0.5-0.2c0.1,0.1,0.5,0.3,0.5,0.3s0.1-0.3,0-0.4c-0.1-0.1-0.1-0.3,0-0.3c0.1,0,0.2,0,0.3,0.2c0.1,0.2,0.2,0.4,0.3,0.4
	c0.1,0,0-0.3,0-0.3s0.2-0.1,0.4,0c0.1,0.1,0.1,0.3,0,0.6c-0.1,0.3-0.3,1.2-0.2,1.9c0.1,0.6,0.5,1.6,0.8,1.9c0.2,0.4,0.2,0.5,0.6,0.5
	s0.2,0.3,0.2,0.4c-0.2,0.4-0.3,0.9-0.3,1.2c0,0-1,0-1.4-0.8c-0.3-0.7-0.3-1.6-0.4-1.9c-0.1-0.3-0.2-0.7-0.6-0.6
	C40.6,49.2,40.4,49.1,40.1,48.8L40.1,48.8z M40,48l-0.2,0.2c0,0-0.2-0.2-0.2-0.4s0-0.3,0-0.3s0.1,0.2,0.2,0.2C39.8,47.9,40,48,40,48
	L40,48z M40.6,45.9c-0.1,0.1-0.2,0-0.2-0.2c0-0.2-0.1-0.4-0.1-0.4s0.1,0,0.2,0c0.1,0,0.2,0.2,0.3,0.3C40.8,45.8,40.7,45.9,40.6,45.9
	L40.6,45.9z M41.4,45.3c0-0.1,0-0.5,0-0.5l0.1,0.1c0,0,0.1,0.1,0.2,0.2c0.1,0.1,0,0.3-0.1,0.3C41.4,45.5,41.4,45.4,41.4,45.3
	L41.4,45.3z M42.5,45.5c0,0.2,0,0.2-0.1,0.1c-0.1-0.1-0.1-0.1,0-0.2c0.1-0.1,0.1-0.3,0.1-0.3S42.5,45.3,42.5,45.5L42.5,45.5z
	 M49.3,44.6c-0.1,0.1-0.3,0.1-0.4-0.1c-0.1-0.2-0.1-0.2-0.1-0.2s0.2,0,0.4-0.1c0.2-0.1,0.4-0.2,0.7-0.2c0.3,0,0.4,0,0.4,0.2
	c0.1,0.1,0.1,0.2-0.1,0.3c-0.2,0-0.5,0.1-0.5,0.1S49.4,44.5,49.3,44.6L49.3,44.6z M50.5,45.8c-0.1,0-0.3,0-0.1-0.2
	c0.1-0.2,0.1-0.4,0.2-0.5c0-0.1,0.2-0.2,0.6-0.2c0.3,0.1,0.6,0.1,0.5,0.3c-0.1,0.2-0.2,0.3-0.4,0.3c-0.2,0.1-0.4,0.2-0.4,0.2
	S50.6,45.8,50.5,45.8L50.5,45.8z M45.9,47.3c-0.3,0-1.1,0-1.7-0.6c-0.5-0.6-0.2-1.1-0.2-1.1c0.2,0.8,1,1.1,1.8,1.1
	c0.3,0,0.5,0.1,0.5,0.3S46.2,47.2,45.9,47.3L45.9,47.3z M43,60.5c-0.2-0.3-0.2-0.3-0.1-0.4C43,60,43,59.9,42.8,60
	c-0.2,0-0.4,0.1-0.5,0.2c-0.1,0.1-0.3,0.3-0.3,0.3s-0.3-0.1-0.3-0.3c0-0.2,0.2-0.4,0.3-0.5c0.2-0.1,0.5-0.1,0.6-0.1
	c0.1,0,0.3-0.1,0.5-0.3c0.2-0.2,0.9-1.1,1.1-1.7c0.1-0.7,0.2-1.4,0.3-1.7c0-0.3,0.1-0.5,0.2-0.5s0.5,0,0.5,0.2
	c0,0.2,0.2,0.6,0.3,0.8c0.1,0.2,0.3,0.3,0.2,0.7c-0.1,0.3-0.4,1-0.6,1.8c-0.2,0.9-0.3,1.3-0.3,1.5c0,0.1,0,0.3-0.2,0.4h-1.3
	C43.1,60.6,43.1,60.6,43,60.5L43,60.5z M41.6,60.4c0,0.1,0.1,0.1,0.1,0.2h-0.8c0-0.1,0.1-0.2,0.2-0.2C41.2,60.4,41.5,60.3,41.6,60.4
	z M42.2,60.4c0.1-0.1,0.3-0.2,0.5,0c0.1,0.1,0.1,0.2,0.1,0.3h-0.9C42,60.6,42.1,60.5,42.2,60.4L42.2,60.4z M50.1,60
	c0.1,0,0.3,0.1,0.1,0.2c-0.2,0.1-0.2,0.2-0.2,0.4c0,0,0,0,0,0.1h-0.4c0,0,0,0,0-0.1c0-0.1,0.1-0.3,0.2-0.4C49.9,60.1,50,60,50.1,60
	L50.1,60z M50.8,60.5c0,0.1,0,0.1-0.1,0.2h-0.6c0,0,0.1-0.1,0.2-0.2c0.1-0.1,0.3-0.2,0.3-0.3C50.8,60.2,50.8,60.3,50.8,60.5
	L50.8,60.5z M54.3,56.3c-0.3,0.2-0.6,0.4-0.7,0.6c0,0.2,0.1,0.6,0.2,0.8c0.1,0.3,0.2,0.5,0.2,0.8c0,0.4,0,0.5-0.2,0.6
	c-0.2,0.2-0.5,0.5-0.6,0.7c-0.1,0.2-0.3,0.6-0.6,0.7H51c0-0.2,0.1-0.4,0-0.5C50.9,60,50.7,60,50.6,60c-0.1,0-0.3-0.2-0.1-0.4
	c0.2-0.2,0.4-0.3,0.7-0.2c0.3,0.1,0.6,0.2,0.8,0c0.3-0.1,0.6-0.8,0.7-1.1c0.1-0.3,0.2-0.4,0-0.7c-0.2-0.3-0.6-0.8-0.6-0.8
	s-0.2,0.3-0.3,0.3s-0.2-0.1-0.2-0.4s0.1-1,0.4-1.2c0.3-0.2,1-0.3,1.4-0.3c0.4,0,0.8,0.2,0.9,0.3c0.1,0.1,0.1,0.1,0.1,0.4
	C54.6,56,54.6,56.1,54.3,56.3L54.3,56.3z M51.6,52.1c-0.2-0.3-0.2-0.4,0.2-0.3c0.5,0,1.3-0.1,2-0.1c0.7-0.1,1.3,0,2.3,0.1
	c0.9,0.2,1.4,0.3,1.6,1c0.2,0.7,0.1,1.3,0.4,1.6c0.3,0.3,0.5,0.6,1.3,0.7c0.8,0.1,0.8,0.4,0.8,0.8c0,0.4-0.1,0.7,0,0.8
	c0.1,0.1,0,1.6,0,2c0,0.4-0.1,0.6-0.2,0.8c-0.1,0.2-0.5,0.9-0.6,1.3h-1.2c0-0.1,0-0.3-0.2-0.4c-0.3-0.1-0.7-0.1-0.9,0.1
	c-0.1,0.1-0.1,0.2-0.2,0.3h-0.1c0-0.1,0-0.2,0-0.3c0-0.1-0.2-0.1-0.1-0.4c0.1-0.2,0.2-0.4,0.7-0.6c0.5-0.1,0.8-0.1,0.8-0.1
	s0.5-0.5,0.7-0.7c0.1-0.2,0.1-0.3,0.1-0.6c0-0.3-0.1-0.6-0.1-0.8s0-0.2-0.3-0.3c-0.3-0.1-0.7-0.2-0.9-0.3c-0.2-0.1-0.5-0.1-0.4,0.1
	c0,0.3,0.1,0.4-0.2,0.3c-0.3-0.1-1.2-0.4-1.5-0.9c-0.3-0.4-0.3-0.5-0.3-0.8c0-0.3-0.1-0.8-0.1-1.1c0-0.3,0.2-0.5-0.3-0.5
	c-0.5,0-1.5,0.1-1.9,0.1c-0.5,0.1-0.6,0.1-0.7,0.3c-0.1,0.1,0.1,0.1,0.5,0.1c0.4-0.1,0.8-0.1,1.4-0.1c0.6,0,0.8,0,0.7,0.2
	c0,0.2,0,0.2-0.3,0.2c-0.3,0-0.5,0.1-1.3,0.1c-0.8,0-1.5,0.2-1.5,0.2c-0.6,0.1-2.1,0.7-2.5,0.8c-0.4,0.1-0.3-0.2-0.1-0.4
	c0.2-0.3,0-0.2-0.2-0.1c-0.2,0.1-0.3,0.6-0.5,0.8c-0.2,0.3-0.4,0-0.7-0.4c-0.3-0.4-0.3-0.4-0.6-0.4c-0.3,0-0.3,0.5-0.6,1
	c-0.3,0.5-0.4,0.4-0.4,0.4s-0.4-0.1-0.5-0.7c-0.1-0.6-0.1-1.1-0.4-1.1c-0.3,0-0.4,0-0.6,0.1c-0.3,0.2-0.6,0.4-0.8,0.3
	c-0.2-0.1-0.3-0.4-0.2-0.7c0.1-0.3,0.3-0.5,0.4-0.4c0.1,0.1,0.2,0.2,0.4,0.1c0.2-0.1,0.6-0.6,0.8-0.6c0.2,0,0.3,0.3,0.4,0.5
	c0.1,0.3,0.4,0.7,0.6,0.8c0.2,0,0.4-0.2,0.5-0.4c0.1-0.3,0.2-0.6,0.4-0.3c0.2,0.3,0.4,0.6,0.5,0.6c0.1,0,0.2,0.2,0.4,0.2
	c0.1,0,0.2,0,0.4-0.3c0.2-0.3,0.3-0.5,0.4-0.7s0.2-0.2,0.3-0.1c0.2,0.1,0.4,0.2,0.7-0.1c0.2-0.3,0.3-0.7,0.3-0.9
	c0-0.2,0-0.2,0.4-0.2c0.4,0,0.6,0,0.9-0.1C51.7,52.4,51.7,52.4,51.6,52.1L51.6,52.1z M56,60.5c0.2-0.1,0.4-0.2,0.5-0.1
	c0.1,0.1,0.1,0.2,0.1,0.2h-0.8C55.8,60.6,55.9,60.5,56,60.5L56,60.5z M57.4,60.4c0.3-0.1,0.5,0,0.5,0.1c0,0,0,0.1,0,0.1h-0.8
	C57.2,60.6,57.2,60.5,57.4,60.4L57.4,60.4z M63.1,60.9c0,0.2-0.1,0.5-0.2,0.8H37.8c-0.1-0.3-0.1-0.5-0.2-0.8H63.1z M51.8,49.1
	c0,0,0,0.2-0.2,0.2c-0.2,0-0.3,0.1-0.6,0.1c-0.3,0-0.7-0.1-0.8,0.1c-0.1,0.2-0.1,0.5,0.3,0.8c0.4,0.3,0.6,0.8,0.7,1.1
	c0.1,0.2,0.1,0.7-0.4,0.4c-0.4-0.2-0.7-0.4-0.8-0.3c-0.1,0.1,0,0.6-0.1,0.9c0,0.3-0.1,0.8-0.4,0.4c-0.3-0.3-0.5-0.5-0.5-0.5
	s-0.2-0.2-0.3,0c-0.1,0.2-0.2,0.8-0.3,1.1c-0.1,0.4-0.2,0.7-0.5,0.5c-0.3-0.3-0.5-0.8-0.5-1c0-0.2-0.2-0.4-0.4-0.2s-0.2,0.8-0.3,1
	c-0.1,0.3-0.3,0.5-0.5,0.1c-0.2-0.4-0.4-0.9-0.3-1.4c0.1-0.5,0.1-1-0.4-0.4c-0.5,0.6-1.1,1.4-1.3,0.9l0,0c-0.2-0.5-0.3-0.6-0.3-1
	s0-0.5,0.5-0.8c0.5-0.3,0.8-0.4,0.9-0.5c0.1-0.1,0.3-0.2,0.3-0.1c0.1,0.1-0.1,0.2,0,0.3c0.1,0.2,0.1,0.3,0.4,0.1
	c0.3-0.2,0.7-0.3,0.8-0.2c0.1,0.1,0.1,0.5,0.1,0.6c0,0.1,0.2,0.4,0.4,0.4c0.2,0,0.6-0.3,0.8-0.7c0.2-0.4,0.1-0.8-0.2-0.4
	c-0.3,0.4-0.9,0.9-0.8,0.3c0-0.6,0.2-0.8,0.2-0.8s0.1-0.3-0.3-0.1c-0.4,0.2-0.5,0.3-0.7,0.4c-0.1,0.1-0.5,0.2-0.3-0.2
	c0.2-0.4,0.2-0.7-0.2-0.5c-0.4,0.3-0.8,0.5-1.2,0.6c-0.4,0.2-0.5,0.2-0.5,0.2s0.3-1,1-1.3c0.8-0.3,1.2-0.3,1.4-0.3
	c0.2,0,0.3-0.2,0.5-0.2c0.2-0.1,0.4-0.2,0.5-0.3c0.1-0.1,0.3-0.1,0.1-0.3c-0.3-0.2-0.3-0.3-0.9-0.4c-0.6-0.1-0.8-0.1-0.8-0.1
	s-0.3,0-0.3-0.1c0-0.2,0.1-0.2,0.3-0.2c0.2,0,0.7-0.2,0.7-0.4c0-0.2-0.1-0.5-0.4-0.6c-0.3-0.2-0.6-0.2-0.8-0.2c-0.1,0-0.2,0-0.2-0.2
	c0-0.2,0.1-0.2,0.2-0.2c0.1-0.1,0.2-0.2,0.1-0.2c-0.1-0.1-0.3-0.1-0.3-0.1s-0.1-0.2-0.1-0.4c0-0.1,0.1-0.2,0.4-0.2
	c0.3-0.1,0.6-0.2,0.9-0.2c0.3,0,0.6-0.1,0.6-0.1s-0.1-0.3,0.3-0.4c0.4-0.1,0.8-0.2,1.1-0.1c0.4,0.1,0.4,0.4,0.4,0.4s0.1,0.2,0,0.3
	c-0.1,0.2,0.1,0.3,0.1,0.5c0,0.1,0.1,0.3,0.2-0.1c0.1-0.4,0.2-0.5,0.4-0.7c0.2-0.2,0.6-0.2,0.8,0.1c0.2,0.2,0.1,0.6-0.1,0.8
	c-0.2,0.3-0.3,0.5-0.3,0.6c0,0.1-0.2,0.1-0.3,0c-0.2-0.2-0.2-0.2-0.3,0.1c-0.1,0.3-0.2,0.6-0.5,0.6c-0.3,0-0.5,0-0.5,0.1
	c0,0.1,0.1,0.1,0.3,0.1c0.2,0,0.6-0.2,0.7,0c0.1,0.2,0.1,0.5-0.1,0.8c-0.2,0.3-0.4,0.5-0.4,0.5s-0.2,0.1-0.1,0.2
	c0.1,0.1,0.2,0,0.3-0.1c0.1-0.1,0.3-0.3,0.4-0.4c0.1-0.1,0.2-0.1,0.2,0c0.1,0.1,0.1,0.1,0.1,0.1s0.5-0.1,0.8,0
	c0.4,0.1,0.5,0.3,0.8,0.5C51.7,48.9,51.8,49.1,51.8,49.1z M48.4,45.2c0-0.3-0.2-0.5-0.5-0.5c-0.3,0-0.5,0.2-0.5,0.5s0.2,0.5,0.5,0.5
	C48.2,45.6,48.4,45.4,48.4,45.2z M60.5,51.7c-0.6,0.5-1.5,0.6-2,0.7c-0.5,0-0.7,0.1-0.7,0.1s-0.2-0.3-0.4-0.5c0.3,0,2-0.1,2.3-0.6
	c0.4-0.5,0.4-1.4-0.7-1.6c-1.2-0.2-3.7-0.3-4.5-0.8l0,0c-0.8-0.5-1.2-0.9-0.9-1.7c0.4-0.8,1.6-0.9,2.1-1.1c0.5-0.2,0.8-0.5,1.8-0.5
	c1,0,1.4,0.3,2,0.3c0.6,0,0.7-0.1,0.7-0.1s-0.2,0.8-1.3,0.9c-1.1,0.1-1.8,0.1-2.3-0.1c-0.6-0.2-1.2,0-1.6,0.1
	c-0.4,0.1-0.9,0.4-0.9,1c0,0.6,0.5,1,1.5,1.2c1,0.2,1.7,0.2,2.6,0.3c0.9,0.1,1.8,0.2,2.3,0.7C61.1,50.3,61.1,51.2,60.5,51.7z
	 M56.7,46.1c0,0,0.2,0.1,0.4,0.1c0.2,0,0.6,0,1.2,0.1c0.6,0.1,1.1-0.2,1.1-0.2S58.7,46,58.1,46l0,0C57.5,45.9,56.7,46.1,56.7,46.1z
	 M42.6,82.6c-0.5,0.4-1.1,0.4-1.1,0.4s-0.3-1.6,0.4-2.6c0.7-1,0.9-1.3,0.9-1.3s0.4,0,0.7-0.1c0.3-0.1,0.6-0.3,0.6-0.3v0.7
	c0,0.2,0,0.2,0,0.2s-0.8,0.8-1,1c-0.2,0.2-0.6,0.6,0,0.2c0.6-0.4,1-0.8,1-0.8s0.1,0.8,0.3,1c0.2,0.2,0.6,0.2,0.7,0.2l0.1-0.1l0,0.3
	c0,0-0.5,1-0.6,1.3c-0.1,0.4,0,0.3,0.3-0.2c0.2-0.5,0.7-1.1,0.9-1.5c0.2-0.3,0.5-0.6,0.5-0.1c0,0.4,0.2,1.2,0.3,1.5
	c0.2,0.3,0.2,0.4,0.2,0.4s-0.3,1.1-0.4,1.3c0,0.2,0,0.4,0.2,0.2c0.2-0.3,0.7-1.4,0.7-1.4s0.7,0,0.9-0.2c0.2-0.2,0.5-0.9,0.5-0.9
	s0.3,1,0.5,1.3c0.2,0.3,0.8,0.6,0.8,0.6s0,1.7,0.1,1.9c0,0.3,0.1,0.4,0.2,0.4c0.1,0,0.1-0.1,0.2-0.4c0-0.3,0.1-1.9,0.1-1.9
	s0.5-0.3,0.8-0.6c0.2-0.3,0.5-1.3,0.5-1.3s0.3,0.7,0.5,0.9c0.2,0.2,0.9,0.2,0.9,0.2s0.5,1.1,0.7,1.4c0.2,0.3,0.2,0,0.2-0.2
	c0-0.2-0.4-1.3-0.4-1.3s0.1-0.1,0.2-0.4c0.2-0.3,0.3-1.1,0.3-1.5c0-0.4,0.3-0.2,0.5,0.1c0.2,0.3,0.7,1,0.9,1.5
	c0.2,0.5,0.3,0.5,0.3,0.2c-0.1-0.4-0.6-1.3-0.6-1.3l0-0.3c0,0,0,0,0.1,0.1c0.1,0.1,0.5,0,0.7-0.2c0.2-0.2,0.3-1,0.3-1s0.5,0.4,1,0.8
	c0.6,0.4,0.2,0,0-0.2c-0.2-0.2-1-1-1-1v-0.2v-0.7c0,0,0.3,0.2,0.6,0.3c0.3,0.1,0.7,0.1,0.7,0.1s0.2,0.3,0.9,1.3
	c0.7,1,0.4,2.6,0.4,2.6s-0.6,0-1.1-0.4c-0.5-0.4-0.7-0.6-0.7-0.6s-0.3-0.3-0.2,0.2c0.1,0.5,0.3,1.6,0.2,2.1
	c-0.1,0.5-0.2,0.9-0.7,0.5c-0.6-0.3-0.7-0.6-1-0.8c-0.3-0.3-0.6-0.4-0.5,0s0.3,1.1,0.2,2.1c-0.1,0.9-0.6,1.1-1.1,0.3
	c-0.6-0.8-1-1.5-1.1-1.9c-0.2-0.4-0.5-0.7-0.5,0c0,1.5-0.4,3.8-2.1,4.4c-1.7-0.6-2.1-2.8-2.1-4.4c0-0.7-0.4-0.4-0.5,0
	c-0.2,0.4-0.5,1.1-1.1,1.9c-0.6,0.8-1.1,0.6-1.1-0.3c-0.1-0.9,0.1-1.6,0.2-2.1c0.1-0.5-0.2-0.3-0.5,0c-0.3,0.3-0.4,0.5-1,0.8
	c-0.6,0.3-0.6-0.1-0.7-0.5c-0.1-0.5,0.1-1.5,0.2-2.1c0.1-0.5-0.2-0.2-0.2-0.2S43.1,82.2,42.6,82.6L42.6,82.6z M52.4,94.8
	c0,0-0.1,1.3-0.6,2.1c-0.4,0.6-0.8,1.2-1.5,1.6c-0.6-0.4-1-1-1.5-1.6c-0.5-0.7-0.6-2.1-0.6-2.1s1-0.8,1.5-1.3
	c0.4-0.5,0.6-0.8,0.6-0.8s0.1,0.3,0.6,0.8v0C51.4,94,52.4,94.8,52.4,94.8z M50.6,94h-0.5c0,0,0,0.7,0.1,1.1l0,0c0,0.3,0,1.1,0.2,1.1
	s0.2-0.8,0.2-1.1C50.6,94.8,50.6,94,50.6,94z M43.8,85.7c0,0-0.3,0.7-1.3,1.3c-0.9,0.6-1.3,0.9-1.7,1.2v0c-0.4,0.3-1.1,0.9-2.6,0.6
	c-1.5-0.3-2.1-0.9-2.1-0.9s-0.3-0.3,0.2-0.5c0.6-0.2,1.4-0.8,2.1-1.3c0.7-0.5,1.7-1.2,2.1-1.9c0.4-0.6,0.6-1.2,0.6-1.2l0.1,0.6
	c0,0,0.2,0.2,0.8-0.2c0.6-0.3,1-0.7,1-0.7s0.2,0.5,0.1,1.1c-0.1,0.6-0.1,1.1-0.1,1.3c0,0.2,0.2,0.5,0.3,0.5H43.8z M41.9,85.6
	l-0.3-0.2c0,0-0.2,0.2-0.4,0.5c-0.2,0.2-0.5,0.3-0.7,0.6c-0.2,0.2-0.4,0.5-0.9,0.7c-0.4,0.2-0.6,0.3-0.5,0.4
	c0.1,0.1,0.4-0.1,0.4-0.1s0.1,0,0.6-0.3s0.6-0.5,1-0.7C41.4,86.1,41.9,85.6,41.9,85.6z M46.1,87.6L46.1,87.6
	C46.1,87.6,46.1,87.6,46.1,87.6L46.1,87.6z M46.1,87.6c0,0-0.7,1.3-1.7,1.9c-1,0.6-2.4,1.7-3.3,2c-1,0.2-1,0.2-1.6,0.2
	c-0.6,0-0.7-0.2-0.6-1c0.2-0.8,0.6-1.2,1.2-1.5c0.5-0.3,1-0.7,1.4-1c0.4-0.3,1-0.7,1.5-1c0.5-0.3,0.8-0.7,1-1
	c0.2-0.3,0.3-0.5,0.3-0.5s0.5-0.1,0.7-0.3c0.2-0.2,0.4-0.4,0.4-0.4s-0.1,1.5,0,1.8C45.2,87.3,45.5,87.5,46.1,87.6z M44.4,87.7
	c-0.1-0.1-0.2-0.1-0.4,0.1c-0.2,0.2-0.7,0.6-0.9,0.8c-0.2,0.2-0.4,0.3-0.7,0.5c-0.2,0.2-0.7,0.4-1,0.6c-0.2,0.1,0,0.2,0,0.2
	s0.2-0.1,0.4-0.2c0.2-0.1,0.8-0.3,0.8-0.3s0.2-0.1,0.5-0.3c0.3-0.2,0.8-0.7,1-0.9l0,0C44.3,88,44.5,87.8,44.4,87.7z M48.8,88.5
	c0,0-0.6,2.2-2.4,3.2c-1.8,1-3.1,1.2-3.6,1.4c-0.5,0.2-0.8,0.6-1,0.3c-0.2-0.3-0.2-1,0.3-1.7c0.5-0.7,1.4-1.3,2.1-1.7
	c0.7-0.4,1.4-1,1.8-1.5c0.5-0.6,0.5-0.9,0.5-0.9s0.6-0.2,0.9-0.9c0.3-0.7,0.5-1.1,0.5-1.1s0.3,1.2,0.4,1.7
	C48.3,87.9,48.8,88.5,48.8,88.5L48.8,88.5z M46.6,89.9c0.2-0.3,0-0.2-0.3-0.1c-0.3,0.1-0.9,0.8-1.2,1c-0.4,0.2-0.7,0.3-1,0.5
	c-0.3,0.1-0.3,0.2-0.3,0.3c0,0.1,0.1,0.1,0.3,0c0.1-0.1,0.5-0.3,0.5-0.3s0.2-0.1,0.3-0.1c0.2,0,0.4-0.2,0.8-0.5
	C46.1,90.4,46.4,90.2,46.6,89.9L46.6,89.9z M49.5,92.5L49.5,92.5c-0.5,0.7-1.4,1.5-2.1,2.1c-0.7,0.6-0.8,0.7-1.2,1
	c-0.4,0.4-0.7,0.5-1,0.1c-0.3-0.4-0.5-1.8-0.1-2.5c0.4-0.7,1.3-1.3,2-1.9c0.7-0.6,0.8-0.8,1.2-1.4c0.3-0.6,0.6-1.2,0.6-1.2
	s0.5,0.7,0.7,0.9c0.2,0.2,0.4,0.3,0.4,0.3S50,91.8,49.5,92.5z M48.7,91.3c0,0-0.5,0.7-0.9,1c-0.4,0.3-1.2,0.9-1.4,1.3
	c-0.2,0.4-0.3,0.7-0.3,0.8c0.1,0.1,0.3-0.1,0.4-0.2c0.1-0.2,0.3-0.4,0.3-0.4s0.8-0.8,1.1-0.9s0.7-0.7,0.9-1
	C48.8,91.4,48.7,91.3,48.7,91.3z M34.9,23.4c0,0.3,0.3,0.5,0.6,0.5s0.6-0.2,0.6-0.5s-0.3-0.5-0.6-0.5S34.9,23.1,34.9,23.4z
	 M33.9,22.3c-0.1-0.2,0-0.8,0.8-1.2c0.8-0.4,2-0.4,3.1-0.1c1.1,0.3,1.7,0.7,2.1,1c0.4,0.3,0.9,0.8,1,0.7c0.1-0.1-0.2-0.3-0.4-0.5
	c-0.2-0.2-0.3-0.3-0.3-0.3c1.2,0.1,2.4-0.3,3.4-1c0,0,0.3,1.5-1,2.3c-0.3,0.2-0.6,0.3-0.9,0.4c-1.1,0.3-2.3,0.1-3.2-0.3
	c-1.1-0.6-2.1-1-2.7-1.1c-0.6-0.1-0.9,0.2-1.4,0.2C34.1,22.4,34,22.4,33.9,22.3z M41.6,37.1c0,0,0,0.2,0.2,0.7
	c0.2,0.6,0.8,1.3,0.8,1.3s-0.5-0.1-1-0.3c-0.5-0.2-0.9-0.5-0.9-0.5s0.1,0,0.3-0.3C41.3,37.9,41.6,37.1,41.6,37.1L41.6,37.1z
	 M48.6,36.7c0.2,0.4,0.7,1.2,0.9,1.6c0.3,0.3,0.1,0.4,0.1,0.4s-0.1,0.1-1.8,0.6c-1.7,0.5-3.2,0.2-3.2,0.2s0.1-0.1,0.3-1.3
	c0.3-1.1,0.1-3,0.1-3s0.3,0.8,1,1.5c0.7,0.7,1.2,0.6,1.2,0.6s-0.1,0-0.6-0.4c-0.5-0.4-1.1-1.5-1.1-1.5c0.6,0.4,1.9,0.7,2.6,0.5
	C48.3,36,48.4,36.2,48.6,36.7L48.6,36.7z M49.4,34.5c-0.5,0.6-1.6,0.8-2.8,0.4c-1.2-0.3-2.3-1.7-2.3-1.7s0.2,2,0.2,2.9
	c0,0.9-0.1,2-0.3,2.5c-0.2,0.5-0.3,0.8-0.3,0.8s-0.8-0.4-1.3-1.8s-0.7-2.1-0.7-2.5c0-0.4,0-0.6-0.4-0.4c-0.4,0.2-0.6,0.4-0.8,0.4
	l-0.2,0c0,0,0.2-1,0.2-1.7s-0.2-2.3-0.6-2.6C40.1,30.4,40,30.8,40,31c-0.1,0.4-0.4,0.8-0.8,1c-0.2-1.1-0.4-2-1.3-2.9
	c-0.2-0.2-0.3-0.4-0.8-0.2c-0.8,0.3-1.9,0.5-2.7,0.2c-0.8-0.3-1.4-1.2-1.2-1.3c0,0,1.3,0.6,2.2,0.3c1-0.3,1.4-0.6,0.8-1.2
	c-0.6-0.6-0.8-0.6-1.9-1.6c-1.1-0.9-2-1.4-3-1.2c-1,0.2-1.2,0.7-1.2,0.8c-0.1,0.1-0.5,0.4-0.5-0.4c0-0.8,0.4-1.9,1.2-2.2
	c0.8-0.4,1.6-0.3,2.5,0c1,0.4,1.4,0.6,1.4,0.6s-0.1,0.8,0.4,1.2c0.6,0.4,1.2,0.2,1.3-0.2c0.2-0.4,0.2-0.6,0.2-0.6s0.9,0.5,2.1,0.7
	c0.7,0.1,2,0.3,2.8-0.1c0,0,0.8,0.7,1.3,1.2c0.6,0.4,1.2,0.8,1.2,0.8s-0.1,0.2-0.3,0.3c-0.3,0.1-0.4,0.1-0.2,0.4
	c0.2,0.3,1.5,1.4,2,1.8c0.6,0.4,1.4,0.7,1.4,0.7s-0.3,0.5-0.6,0.6c-0.4,0.2-0.4,0.4-0.3,0.7c0.2,0.3,1.5,1.7,2,2.2
	c0.6,0.5,1,0.6,1.2,0.6h0C49.5,33.7,49.9,33.9,49.4,34.5z M42.3,30.6c0,0-0.3-1.9-0.8-2.8c-0.5-0.8-1-1.3-1.2-1.5
	c-0.2-0.2-0.6-0.3-0.2,0.1c0.4,0.5,1,1,1.1,1.5c0.2,0.5,0.3,1.1,0,0.9c-0.3-0.1-0.5-0.1-0.7-0.4c-0.3-0.2-0.8-0.6-1.1-0.7
	c-0.2-0.1-0.6,0-0.3,0.4c0.3,0.4,0.7,0.7,1.3,1.1c0.6,0.4,1,0.6,1.3,0.9C42,30.4,42.3,30.6,42.3,30.6z M43.7,37.4
	c-0.2-0.1-0.2-0.8-0.2-0.9v0c0,0-0.1-2.3-0.1-2.7c0-0.3-0.2-0.3-0.2-0.3l-0.3,0.1c0,0,0.4,3,0.5,3.4C43.4,37.4,43.6,37.4,43.7,37.4z
	 M47.3,33.8l0-0.1c0,0-1.3-0.6-1.8-1.2v0c-0.5-0.6-0.6-0.7-0.6-0.7s-0.2,0.2,0,0.4c0.2,0.3,0.9,0.9,1.4,1.2
	C46.8,33.7,47.3,33.8,47.3,33.8z M31.1,74.7c0,0-0.5,0.6-1.1,0.6h-2c0,0,1.2-0.7,1.3-0.9c0.1-0.2,0.4-0.1,0.5-0.1
	c0.1,0.1,0.6,0.2,0.9,0.3C30.9,74.7,31.1,74.7,31.1,74.7L31.1,74.7z M36.6,74.4c0,0.2,0.2,1.1,0.2,1.5c0.1,0.4-0.1,0.4-0.4,0.5
	c-0.3,0.1-0.9,0.5-2.4,1.4c-1.5,1-2.1,1.6-2.1,1.6s-0.1-0.4-0.1-0.8s0-1.3,0.4-2.2c0.3-1,0.7-1.6,1-1.9c0.3-0.3-0.5-0.3-1-0.3
	c-0.5,0-1.2-0.2-1.5-0.4c-0.2-0.2-0.7-0.2-1.2-0.5c-0.5-0.2-0.2-0.3,0.3-0.5c0.5-0.1,1.9-0.7,1.9-0.7s0.7,0.4,1.1,0.6
	c0.4,0.2,0.9,0.5,1.7,0.6c0.8,0.1,1.1,0.1,1.1,0.2c0,0-0.2,0.2-0.5,0.7c-0.3,0.4-0.4,0.7-0.8,1.4c-0.4,0.7,0.1,0.3,0.4-0.1
	c0.2-0.2,0.6-0.8,1-1.2c0.3-0.3,0.6-0.5,0.6-0.5l0.3,0.6V74.4L36.6,74.4z M42.5,69.7c0.5,0.2,1,0.4,1.5,0.6c-0.3,0.3-1,1-1.3,1.3
	c-0.3,0.4-0.8,0.8-1,1c-0.2,0.3-0.4,0.6-0.7,0.9c-0.3,0.3-1.9,2.1-2.3,2.8c-0.4,0.7-0.2-0.2-0.1-0.7c0.1-0.5,0.3-1.1,0.4-1.7
	c0.1-0.5-0.2-0.3-0.2,0c-0.1,0.3-0.1,0.3-0.3,0.9c-0.1,0.6-0.5,1.4-0.6,2c-0.1,0.6-0.2,0.3-0.3,0c-0.1-0.3-0.4-0.7-0.5-1
	C37,75.6,36.9,75,36.9,74c0-1,0.5-1.4,0.5-1.5c0-0.1-0.2-0.3-0.6-0.2c-0.4,0.1-0.5,0.2-1,0.2c-0.5,0-0.7-0.2-1.2-0.2
	c-0.5,0-0.9-0.2-1.7-0.6c-0.8-0.5,0-0.3,0.6-0.3c0.6,0.1,2.1-0.2,2.8-0.4c0.7-0.3,0.2-0.3,0-0.2c-0.2,0.1-0.3,0.1-1.6,0.3
	c-1.3,0.2-1.8-0.1-2.5-0.3c-0.7-0.2,0.2-0.3,0.2-0.3s2.4-0.7,3.6-2c0.9-1,1.2-2,1.3-2.4c0.5,0.6,1,1.1,1.6,1.5
	c0,0.2-0.1,0.5-0.3,0.8c-0.2,0.5-0.8,1-0.8,1s0.7-0.3,1-0.6c0.2-0.2,0.4-0.6,0.5-0.8c0.8,0.6,1.6,1,2.4,1.4
	c-0.1,0.1-0.2,0.2-0.3,0.3c-0.3,0.3-0.6,0.7-1,1.3c-0.4,0.7,0,0.6,0.3,0c0.4-0.6,1.3-1.2,1.5-1.3c0,0,0,0,0.1,0
	C42.3,69.6,42.4,69.7,42.5,69.7L42.5,69.7z M12.5,32.8c-1.2-2.5-1.6-4.5-1.8-6.1C10.6,25,10.8,24,11,23.2c0.2-0.8,0.4-1.3,0.6-0.3
	c0.2,1,1.3,4.5,1.8,5.9c0.5,1.4,1.5,2.8,2,3.5c0.1,0.2,0.3,0.5,0.5,0.7c0.3,0.5,0.5,0.9,0.5,0.9s-0.1,0-0.3-0.2
	c-0.1-0.2-0.3-0.3-0.4-0.3c-0.2,0-0.4,0.9-0.4,0.9s-0.7-0.8-1.3-1.8c-0.6-1-1.3-2.8-1.3-2.8s0.4,1.9,1.2,3.1
	c0.8,1.3,1.3,1.8,1.3,1.8s-0.1,0.5,0,0.9c0.1,0.4,0.3,1.1,0.3,1.1S13.8,35.3,12.5,32.8L12.5,32.8z M10.2,35C8.4,31.8,8.9,29,8.9,29
	s1,2,1.8,3.4c0.9,1.4,3,3.9,3.9,4.5c0.8,0.6,0.9,0.7,0.8,0.8c-0.1,0.2-0.2,0.4-0.2,0.6c0,0.3,0,0.3,0,0.3s-1.5-1.2-2.2-2.1
	c-0.8-0.8-1.5-1.5-0.6-0.4c0.9,1.2,1.4,1.6,1.8,1.9c0.4,0.3,0.9,0.8,0.9,0.8s0,0.6,0.1,0.9s0.2,0.6,0.2,0.6s-0.7-0.5-1.1-0.8
	C13.7,39.2,11.9,38.2,10.2,35z M23.4,57.7c-1,0.4-2.6,1.2-4.2,1.3c-1.6,0-4-0.6-4.6-1.7c-0.7-1.1-0.4-1.2-0.2-1.2
	c0.2,0,1.5,0.3,2.9,0.3s3.2-0.3,4.1-0.5c0.9-0.2,1.2-0.4,1.3-0.2c0.1,0.1,0.4,0.3,0.8,0.3c0.3,0,0.4,0.1,0.1,0.2
	c-0.2,0.2-1.6,0.9-2.3,1c-0.8,0.1-1.2,0.1-1.2,0.1c0,0.1,0,0.2,0.5,0.1c0.5,0,1.9-0.4,2.4-0.6c0.5-0.2,1.1-0.4,1.1-0.4
	C24.1,56.4,24.3,57.4,23.4,57.7L23.4,57.7z M19,55.4c-1.7,0-3.2-0.2-4.2-0.5c-1.1-0.3-2.4-1-3-2c-0.7-1-0.6-1.2-0.6-1.2
	s0-0.2,0.4-0.1c0.4,0.1,1.6,0.5,3.5,0.8c1.9,0.2,3.9,0,3.9,0s0.8,0.5,1.1,0.6c0.3,0.1,0.5,0.2,0,0.4c-0.4,0.2-1.8,0.4-2.5,0.3
	c-0.7-0.1-1.1,0-0.2,0.2c0.9,0.2,1.7,0.1,2.4,0c0.7-0.1,1.1-0.2,1.1-0.2s0,0.6,0.2,0.9c0.2,0.3,0.2,0.4,0.2,0.4S20.7,55.4,19,55.4
	L19,55.4z M18.6,51.5c0,0-2.6,0.1-5-0.7c-2.3-0.9-2.8-1.3-3.7-2.4c-0.9-1.1-0.9-1.6-1-2c-0.1-0.4-0.1-0.6,0.2-0.3
	c0.4,0.3,1.8,1.1,3.6,1.8c1.8,0.7,2.7,1,3.7,1.1c1,0.1,1.1,0.2,1.3,0.3c0.2,0.2,0.6,0.3,1,0.4c0.4,0.1,0.8,0.2,0.8,0.2
	s-0.5,0.1-0.6,0.2c-0.1,0.1-0.6,0-1.4-0.1c-0.8-0.1-2.7-0.3-3.2-0.5c-0.5-0.2-0.7-0.3-0.7-0.2c0,0.1,0.5,0.3,1.3,0.5
	c0.8,0.2,0.8,0.3,2.1,0.4c1.3,0.2,1.6,0.3,1.6,0.3s-0.3,0.3-0.2,0.6C18.5,51.4,18.6,51.5,18.6,51.5L18.6,51.5z M8.7,43.1
	c-0.7-0.9-0.9-1.8-1-2c0-0.2-0.2-0.4,0.2-0.1c0.3,0.2,1,0.7,1.7,1.2c0.4,0.3,0.7,0.5,1,0.7c1,0.6,2,1,3.2,1.4c1.2,0.4,2,0.5,2,0.5
	s0.4,0.7,0.8,0.9c0.3,0.2,0.9,0.5,0.2,0.3c-0.7-0.1-1.9-0.3-2.9-0.7c-1.1-0.4-1.6-0.8-1.6-0.7c0,0.1,0.3,0.4,1.5,0.8
	c1.1,0.4,2,0.6,2.8,0.8c0.8,0.2,0.9,0.2,1,0.2c0.1,0,0.4,0.1-0.1,0.1c-0.5,0-0.7,0-0.9,0.4c-0.1,0.3,0.1,0.8,0,0.9
	c-0.5-0.1-2.9-0.6-5-2.1C9.6,44.3,9.4,44.1,8.7,43.1z M8.2,37.1c-0.2-1-0.1-1.1-0.1-1.3c0-0.2,0.1-0.2,0.2-0.1
	c0.1,0.2,2.1,2.3,3.1,3.1c1,0.8,2.4,1.8,3.1,2.2c0.8,0.4,1.4,0.6,1.6,0.8c0.1,0.2,0.3,0.4,0.3,0.4s-0.4,0-0.6,0.1
	c-0.2,0.2-0.2,0.4-0.2,0.4s-1.3-0.7-2.1-1.3c-0.8-0.5-1.7-1-1.8-1.2c-0.2-0.2-0.5-0.2,0.1,0.2c0.6,0.4,1.5,1.1,2.3,1.5
	c0.8,0.5,1.5,0.9,1.5,0.9s0,0.6,0.1,0.7c0.1,0.2,0.1,0.3-0.2,0.2c-0.3-0.1-2.1-0.6-4.1-2.2C9.3,40.1,8.4,38.1,8.2,37.1z M18.6,26.5
	c-0.4-0.8-0.6-1.9-0.8-3.4c-0.1-0.7-0.4-2.6-0.3-4.5c0.1-2.6,0.9-5.4,2-6.4c0,0,0.3,4.3,0.5,5.9c0.2,1.6,0.9,5,0.9,5
	s0.1,0.1-0.1,0.6c-0.2,0.5-0.4,1-0.6,1.4c-0.2,0.4-0.2,0.7-0.2,0.7s-0.5-1.8-0.7-3.1C19,21.3,19,20.6,19,20c0-0.5-0.2-1-0.2,0
	c0,1.1,0.1,2.3,0.3,3.1c0.1,0.8,0.4,2,0.5,2.3c0,0.1,0.1,0.4,0.1,0.6c0,0.2,0,0.5-0.1,0.7c-0.1,0.5,0,0.9,0,1.1c0,0.3,0,0.4,0,0.4
	s-0.2-0.3-0.4-0.8C19,27.3,18.8,26.9,18.6,26.5L18.6,26.5z M16.2,31.9c0,0-0.7-1.7-1.2-3.1c-0.5-1.4-1.5-5-1.1-8.7
	c0.3-3.8,1.3-4.5,1.3-4.5s0,0.5,0.1,1.7c0,1.2,0.4,3.3,1,5.6c0.6,2.3,1.6,4.2,1.6,4.2c-0.2,0.7-0.3,1.5-0.3,2.1c0,0.6,0,1,0.1,1.6
	l-0.8-1.3c0,0-0.7-1.1-1.2-4.2c-0.5-3.1-0.3-1.2-0.1,0.6c0.1,0.7,0.3,1.7,0.6,2.5c0.4,1.1,0.8,1.9,0.8,1.9
	C16.4,30.5,16.3,31.1,16.2,31.9L16.2,31.9z M27,60.5c0,0-1.5,0.9-3.7,1.5c-2.2,0.5-3.4,0.3-4.2,0c-1-0.4-1.2-1.4-1.2-1.4
	s1.8-0.2,3.8-1.1c2.1-0.9,2.6-1.4,2.6-1.4s0.7,0.3,1.2,0.3c0.5,0,0.8,0,0.8,0s-1.2,1.1-1.9,1.3c-0.6,0.2-0.7,0.3-0.9,0.5
	c-0.2,0.1-0.3,0.3,0,0.2c0.3-0.1,0.5-0.2,1-0.4s0.9-0.5,1.2-0.7c0.3-0.2,0.5-0.3,0.5-0.3s-0.1,0.9,0.3,1.2
	C26.8,60.4,27,60.5,27,60.5L27,60.5z M29.7,62.6c-0.2,0.9-1.2,2.2-4,2.3c-2.8,0.1-3.9-1.2-3.9-1.2s1.4,0,3.7-1.4
	c2.3-1.4,2.9-1.6,3.2-1.5l0.3,0.1c0,0-1.2,1.3-2.1,1.7c-0.8,0.5-0.5,0.5,0.3,0c0.9-0.4,1.3-1,1.6-1.2c0.3-0.3,0.4-0.3,0.4-0.3
	S29.9,61.7,29.7,62.6L29.7,62.6z M35,61.6c0,0,0.1,1.4-1.4,3c-0.6,0.6-1.1,1.1-1.7,1.5c-0.9,0.5-1.7,0.6-2.5,0.5
	c-1.3-0.1-1.4-0.4-1.4-0.4s-0.2-0.1,0.1-0.5c0.5-0.6,0.9-1.1,1.4-1.6c0.4-0.5,0.6-0.7,0.8-1c0.2-0.3,0-0.3,0.6-0.3
	c0.5,0,1.1,0,1.1,0s0.5-0.1,0.1,0.3c-0.3,0.4-0.8,0.9-1.2,1.2c-0.5,0.3-1,0.5-0.9,0.6c0,0.1,0.8-0.1,1.3-0.5c0.5-0.4,1-1,1.2-1.3
	c0.2-0.3,0.3-0.4,0.3-0.4s1.1-0.2,1.5-0.5C34.7,62,35,61.6,35,61.6L35,61.6z M35.7,65c0.2-0.2,0.3-0.3,0.4-0.4
	c0.1,0.2,0.3,0.5,0.4,0.7c-0.1,0.5-0.3,1.2-1.1,1.6c-0.8,0.4-1.6,0.3-1.9,0.1c-0.4-0.3,0.2-0.7,0.9-1.7c0.5-0.9,1-2.2,1.1-2.6
	c0.1,0.5,0.3,1,0.5,1.5c-0.1,0.1-0.2,0.3-0.3,0.4c-0.2,0.3-0.4,1-0.4,1S35.4,65.4,35.7,65L35.7,65z M35.1,60.6
	c-0.1,0.2-0.3,0.4-0.7,0.7c-1.2,0.8-2.4,1-3.5,0.8c-1.1-0.3-1-0.8-1-1.1c0-0.3,0-0.6,0.5-0.7c0.4-0.1,1.2-0.7,1.5-0.9
	c0.3-0.2,0.3-0.3,0.2-0.4c-0.1-0.1-0.3,0-0.8,0.3c-0.5,0.3-2.1,0.8-3.3,0.7c-1.2,0-1.8-0.5-1.6-1c0.2-0.5,0.3-0.5,1-0.7
	c0.7-0.2,1.2-0.6,1.3-0.7c0.1-0.2,0.2-0.3,0.1-0.4c-0.1-0.1-0.4,0-1,0.3c-0.6,0.3-1.8,0.3-2.6,0c-0.8-0.3-0.9-0.6-0.8-0.8
	c0.1-0.3,0.3-0.4,1-0.7c0.7-0.2,1.2-0.5,1.1-0.7c-0.1-0.2-1.1,0.1-1.7,0.1c-0.6,0-2.2,0-2.8-0.4c-0.6-0.5-0.9-1.1-0.5-1.4
	c0.4-0.3,0.9-0.3,1.5-0.4c0.6-0.1,1.1-0.2,1-0.4c0-0.2-0.4-0.2-1.7-0.1c-1.3,0.1-2.2-0.1-2.8-0.5c-0.7-0.5-0.8-1.1-0.7-1.3
	c0.1-0.2,0.6-0.5,1.4-0.6c0.8-0.1,1.1-0.1,1.2-0.2c0.1-0.2,0.1-0.2-0.4-0.3c-0.5-0.1-1.8-0.2-2.9-1C16.9,48,17,47.5,17,47.2
	s0.4-0.5,1.1-0.5s1.5-0.1,1.7-0.1c0.2,0,0.3,0,0.3-0.2c0-0.1-0.1-0.2-1-0.3c-0.9-0.2-1.8-0.5-2.6-1.4c-0.8-0.9-0.7-2-0.7-2
	s0-0.4,0.5-0.2c0.5,0.2,1.3,0.4,1.9,0.7c0.6,0.3,1.1,0.5,1.1,0.3c0.1-0.2-1-0.7-1.7-1.2c-0.7-0.5-1.8-1.5-2.2-2.8
	c-0.4-1.3-0.2-1.7,0.1-1.5c0.3,0.2,1.8,1.2,2.2,1.5c0.4,0.3,1,0.7,1.1,0.5c0.1-0.2-0.7-0.6-1.3-1.4c-0.6-0.8-2.1-2.1-2.2-3.5
	c0-1.4,0.4-1.5,0.7-1.2c0.3,0.3,1.6,1.6,2.1,2.1c0.5,0.5,1.3,1.2,1.4,1.1c0.1-0.1-0.6-0.8-1.4-1.6c-0.7-0.8-1.6-1.7-1.7-3.3
	c-0.1-1.1,0.2-1.6,0.3-1.7c0.1-0.1,0.2-0.1,0.3,0c0.2,0.4,0.8,1.5,1.2,2c0.5,0.6,1.4,1.5,1.9,2.1c0.5,0.5,0.6,0.7,0.7,0.6
	c0.1-0.1-0.5-0.8-0.9-1.3c-0.4-0.5-1.4-1.5-2-3c-0.6-1.4-0.1-3.5,0.2-3.7c0.3-0.2,0.3-0.1,0.4,0.1c0.1,0.2,0.9,2.1,1.5,2.9
	c0.6,0.8,1.2,1.9,1.6,2.3c0.3,0.5,0.6,1,0.7,0.9c0.1-0.1-0.1-0.5-0.7-1.5c-0.6-1-1.7-2.9-1.8-3.9l0,0c0-1,0-2.1,0.5-3.4
	c0.5-1.3,0.7-1.3,0.7-1.3s0.2-0.3,0.3,0.3c0.1,0.5,0.6,2.7,1.4,4.3c0.8,1.6,1.1,2.2,1.8,3.3c0.7,1.1,1.3,1.8,1.3,2.1
	c0,0.3,0.1,0.7-0.2,0.5c-0.3-0.2-1.3-0.8-2.2-0.5c-0.9,0.3-1,0.8-1.1,1c-0.1,0.2-0.1,0.9,0,1.2c0.1,0.3,0.1,0.4,0,0.5
	C22.7,36.1,22.3,36,22,36c-0.4,0-1.1,0-1.5,0.5c-0.4,0.5-0.3,1.2-0.2,1.8c0.2,0.6,0.6,0.8,0.6,0.8s-0.6,0.2-0.9,0.3
	c-0.2,0.2-0.6,0.5-0.6,1.2c0,0.7,0.9,1.3,1.2,1.5c0.3,0.2,0.5,0.3,0.5,0.3s-0.8,0.1-0.8,1.3c0,1.2,0.8,1.5,1.2,1.7
	c0.3,0.2,0.6,0.2,0.6,0.4c0,0.2-0.5,0.5-0.5,0.9c0,0.4-0.1,1.4,0.8,1.9c1,0.5,1.3,0.5,1.3,0.8c0,0.3,0.2,1,0.7,1.4
	c0.5,0.4,0.8,0.5,1,0.6c0.2,0.1,0.5,0.3,0.6,0.5c0.1,0.3,0.1,0.9,0.8,1.4c0.7,0.5,1.4,0.6,1.7,0.6c0.3,0,0.8-0.2,0.8,0.1
	c0,0.3-0.1,1,0.5,1.6c0.6,0.7,1.3,0.9,1.7,0.9c0.4,0,0.6-0.1,0.9-0.2c0.3-0.1,0.5-0.1,0.6,0.2c0.2,0.3,0.4,0.9,1.1,1.2
	c0.4,0.2,0.9,0.2,1.1,0.3C35.1,58.8,35,59.5,35.1,60.6z M22.7,30.9c0.1,0.2,0.6,0.8,0.6,0.8s0.1,0.1,0.5,0.7c0.5,0.6,0.2,0,0.1-0.1
	c-0.1-0.2-0.8-1.2-1.1-1.5C22.6,30.6,22.6,30.7,22.7,30.9z M21.3,33.8c0.2,0.2,0.5,0.7,0.7,0.9c0.2,0.2,0.2,0.3,0.3,0.2h0
	c0.1-0.1-0.1-0.1-0.4-0.5c-0.3-0.4-0.8-1.1-0.8-1.1S20.9,33,20.9,33C20.8,33,21,33.6,21.3,33.8z M19.8,36.1c0.1,0.1,0.3,0.3,0.3,0.3
	c0.1-0.1,0-0.1-0.2-0.3c-0.2-0.2-0.3-0.3-0.3-0.3s-0.2-0.4-0.4-0.5c-0.1-0.1-0.3-0.2-0.1,0.1C19.5,35.7,19.7,36,19.8,36.1z
	 M19.2,38.8c0.2,0.2,0.3,0.4,0.4,0.3c0.1-0.1-0.2-0.3-0.4-0.5c-0.1-0.2-0.3-0.3-0.5-0.5c-0.2-0.1-0.4-0.3-0.4-0.3s0.3,0.4,0.4,0.5
	C18.9,38.5,19,38.6,19.2,38.8z M19.8,42.2c0.1-0.1,0-0.2-0.2-0.3c-0.2-0.1-0.6-0.3-0.7-0.5c-0.2-0.1-0.3-0.3-0.5-0.4
	c-0.1-0.1-0.3-0.2-0.3-0.2c0,0,0.4,0.5,0.5,0.5c0.1,0.1,0.3,0.3,0.6,0.5C19.4,42.3,19.8,42.3,19.8,42.2z M19.7,44.7
	c-0.2,0-0.5-0.1-0.5-0.1s-0.4-0.2-0.4-0.1c0,0.1,0.3,0.2,0.5,0.3c0.2,0,0.4,0.1,0.5,0.1c0.1,0.1,0.2,0,0.2-0.1v0
	C19.9,44.8,19.9,44.7,19.7,44.7z M21,48.2c0-0.1-0.4-0.1-0.9-0.1c-0.5,0-0.8-0.1-0.9,0c0,0.1,0.2,0.2,0.4,0.3c0.2,0.1,0.7,0.1,1,0.1
	C21,48.4,21.1,48.3,21,48.2z M23.8,51.5L23.8,51.5c-0.1-0.1-0.2,0-0.5,0c-0.3,0.1-0.7,0.1-0.9,0.1c-0.2,0-0.8,0-0.8,0l-0.3,0.1
	c0,0.1,0.4,0.1,1,0.1c0.6,0.1,0.9-0.1,1.2-0.1C23.7,51.7,23.8,51.6,23.8,51.5z M25.9,53.8c-0.1-0.1-0.4,0-0.6,0.1l0,0
	c-0.3,0.1-0.5,0.1-0.7,0.1c-0.2,0-0.7,0.1-0.7,0.1s-0.2,0-0.2,0.1c0,0.1,0.1,0,0.3,0c0.2,0,0.4,0,0.8,0c0.4,0,0.6-0.1,0.8-0.1
	C25.7,54.1,26,54,25.9,53.8z M28.4,55.7c-0.1-0.1-0.1,0-0.3,0.1v0c-0.2,0.2-0.8,0.6-0.8,0.6s-0.1,0.1-0.4,0.2
	c-0.2,0.1-0.2,0.2-0.2,0.2c0,0.1,0.2-0.1,0.3-0.1c0.1-0.1,0.6-0.3,0.8-0.5C28.1,56,28.4,55.9,28.4,55.7z M30.5,57.9
	c-0.1-0.2-0.2,0.1-0.6,0.4l0,0c-0.4,0.3-0.9,0.4-0.9,0.4s-0.2,0-0.2,0.1c0,0.1,0.3,0,0.6-0.1c0.3-0.1,0.7-0.3,0.8-0.5
	C30.4,58.2,30.6,58.1,30.5,57.9z M33.5,60.1c-0.1-0.1-0.1,0-0.2,0.1v0c-0.1,0.1-0.7,0.6-0.7,0.6s-0.2,0.1-0.4,0.2
	c-0.2,0.1-0.3,0.2-0.3,0.2s0,0.1,0.3,0c0.2-0.1,0.9-0.5,1.1-0.7C33.5,60.2,33.6,60.2,33.5,60.1z M36.7,50.2c0,0.6-0.1,1.1-0.1,1.8
	c-0.1,0.9-0.3,1.7-0.4,2.3c0,0.1-0.1,0.1-0.2,0.2c-0.2,0.2-0.3,0.2-0.3,0.4c0,0.1-0.2,0.3-0.3,0.4c-0.1,0.1-0.5,0.3-0.4,0.4
	c0.1,0.1,0.2-0.1,0.4-0.2c0.1-0.1,0.2-0.2,0.3-0.2c0.1,0,0.1-0.1,0.1-0.1s0-0.2,0.1-0.2H36c-0.2,1-0.5,1.7-0.6,2.3
	c-0.3,0.1-1,0.1-1.5-0.3c-0.8-0.6-0.5-1.4-0.4-1.6c0.1-0.2,0.2-0.4,0.1-0.4c-0.2-0.1-0.4-0.1-0.6,0.1c-0.2,0.2-1.3,1.2-2.4,0.8
	c-1.2-0.4-0.9-1.6-0.7-2c0.2-0.4,0.4-0.8,0.3-1c-0.2-0.2-0.4-0.1-0.7,0.1c-0.2,0.2-1.5,0.5-2.3,0.1c-0.8-0.5-0.9-1.3-0.5-1.7
	c0.4-0.5,1.3-0.6,1.1-0.9c-0.2-0.3-0.7,0.2-1,0.3c-0.3,0.1-1.1,0.3-1.9-0.2c-0.8-0.4-0.8-1.1-0.4-1.4c0.5-0.3,1-0.6,0.7-0.8
	c-0.3-0.3-0.6,0-0.9,0.1c-0.3,0.1-1.2,0.1-1.8-0.4c-0.6-0.5-0.6-0.8-0.4-1.4c0.1-0.6,0.9-0.7,1.3-0.8c0.4-0.1,0.5-0.2,0.5-0.4
	c-0.1-0.2-0.3-0.1-1-0.2c-0.7-0.1-1.9-0.7-2.1-1.3c-0.1-0.6,0.1-1.3,0.9-1.3c0.8,0,1.4,0,1.3-0.3c0-0.2-0.2-0.1-0.4-0.2
	c-0.3-0.1-1.7-0.3-2.3-1.1c-0.7-0.8,0.1-1.4,0.5-1.5c0.4-0.2,1.1-0.1,1.4,0c0.3,0.1,0.4,0.2,0.5,0.1c0.1-0.1-0.1-0.4-0.6-0.6
	c-0.6-0.3-1.4-0.9-1.3-1.6c0.1-0.7,0.4-1,1.3-1.1c0.9-0.1,1.4,0.6,1.7,0.7c0.3,0.2,1,0.7,1.1,0.5c0.1-0.2-0.3-0.6-0.8-1.1
	c-0.5-0.5-1.1-1.6-0.5-2.3c0.6-0.6,1.3-0.6,2.2-0.2c0.9,0.4,1,0.8,1.2,0.6c0.2-0.2,0-0.8,0-1.4c0-0.6,0.4-1.2,0.4-1.2
	s1.2,2.5,2.7,4.2c1.5,1.8,3.1,3.3,3,4.6c-0.1,1.3-0.7,2.1-2.2,2.8c-1.5,0.7-1.9,1.9-1.5,2.9c0.4,1,1,1.7,2.5,1.7
	c1.4,0,2.3,0.2,2.8,1c0.6,0.8,1.3,1.1,1.8,1.1L36.7,50.2z M23.1,38.2c0.2,0.1,0.4,0.3,0.5,0.1c0.1-0.1-0.1-0.2-0.4-0.4
	c-0.3-0.1-0.5-0.3-0.5-0.3s-0.2-0.1-0.3-0.2c-0.2-0.1-0.4-0.2-0.1,0.1h0C22.7,37.9,22.9,38.1,23.1,38.2z M23.1,40.9
	c0.3,0.1,0.6,0.1,0.6-0.1c0-0.2-0.6-0.1-0.8-0.2c-0.3-0.1-0.7-0.1-0.7-0.1s-0.5-0.1-0.5,0c0,0.1,0.1,0.1,0.4,0.2
	C22.3,40.7,22.7,40.8,23.1,40.9z M23.9,43.9c0.4-0.1,0.5-0.1,0.4-0.2c-0.1-0.1-0.2-0.1-0.4,0s-0.5,0.1-0.5,0.1s-0.3,0.1-0.5,0.1
	c-0.2,0.1-0.2,0.1,0.1,0.1C23.4,44.1,23.5,44,23.9,43.9z M25.4,46.2c0-0.1-0.2,0-0.5,0.1c-0.3,0.1-0.7,0.4-0.7,0.4S24,46.8,24,46.8
	v0v0l0,0c0,0.1,0.3,0,0.4-0.1c0.2-0.1,0.6-0.3,0.8-0.3C25.4,46.3,25.4,46.3,25.4,46.2z M25.5,35.5c-0.2-0.2-0.4-0.3-0.4-0.3
	s-0.3-0.3-0.3-0.2c-0.1,0.1,0.3,0.4,0.5,0.5c0.2,0.2,0.5,0.6,0.7,0.5C26,36,25.7,35.7,25.5,35.5z M28.1,48.3
	c-0.1-0.1-0.2-0.1-0.4,0.1c-0.2,0.2-0.6,0.5-0.6,0.5s-0.2,0.1-0.4,0.2c-0.2,0.1-0.4,0.2-0.3,0.3c0.1,0.1,0.4,0,0.6-0.1
	c0.2-0.1,0.6-0.4,0.9-0.5h0C28.1,48.5,28.1,48.4,28.1,48.3z M30.3,50.3c-0.1,0-0.2,0.1-0.4,0.3c-0.3,0.2-1.1,0.8-1.1,0.8l-0.2,0.1
	c-0.2,0.1-0.1,0.2,0.1,0.1c0.2,0,0.3,0,0.6-0.2c0.2-0.2,0.3-0.2,0.5-0.3c0.1-0.1,0.4-0.2,0.6-0.3C30.4,50.6,30.5,50.3,30.3,50.3z
	 M33.3,52.4c-0.1-0.1-0.3,0-0.4,0.2c-0.2,0.2-0.7,0.7-0.7,0.7s-0.1,0-0.3,0.2c-0.3,0.2,0,0.2,0.1,0.1c0.1-0.1,0.2-0.1,0.4-0.2h0
	c0.2-0.1,0.6-0.4,0.7-0.5C33.2,52.7,33.4,52.5,33.3,52.4z M32.1,75.2c0,0,0,0.2-0.2,0.6c-0.1,0.4-0.5,1-0.5,1.6
	c-0.1,0.6-0.1,0.7-0.5,0.9c-0.4,0.2-1.6,0.9-2,1.2c-0.5,0.3-1.4,1.2-2,1.7c-0.6,0.5-1,0.9-1.2,1.3c-0.2,0.3-0.8,0.9-0.8,0.9
	s0-0.1,0-0.3c0-0.2-0.2-0.5-0.5-0.8c-0.3-0.3-0.4,0.1-0.5,0.3c0,0.2-0.2,0.8-0.4,1.2c-0.2,0.3-0.3,0.2-0.3,0.2s0.1-0.6,0.1-0.7
	c0-0.1-0.3-0.4-0.3-0.4s0.2-0.4,0.1-1.1c-0.1-0.6-0.4-0.9-0.6-1.2c-0.2-0.2-0.5-0.2-0.6-0.1c-0.1,0.1,0,0.5,0,0.6
	c-0.1,0.2-0.3,0.5-0.3,0.5l-0.2-0.3c0,0,0.1-0.5,0.1-0.6c0-0.1-0.2-0.4-0.3-0.5c-0.1-0.1-0.2-0.3,0.1-0.3c0.3,0,0.8,0.1,1.3,0.3
	c0.5,0.2,0.8,0.3,1.1,0.4c0.3,0,0.5,0,0.1-0.2c-0.4-0.2-1.4-0.6-1.9-0.6c-0.6-0.1-1.2-0.1-1.5-0.1c-0.4,0-0.7,0.1-0.6,0.3
	c0.1,0.2,0.2,0.8,0,1.2c-0.3,0.4-1,0.8-1.7,0.1c-0.7-0.7-0.6-1.6,0-2.2c0.6-0.6,1.3-0.9,2.6-0.9c1.3,0,4.1,0.1,5.2,0
	c0.8-0.1,1.6-0.4,2.3-0.8c0.7-0.4,1.6-1.2,1.6-1.2s0.1,0,0.5-0.1C30.8,75.8,32.1,75.2,32.1,75.2L32.1,75.2z M10.9,51.4
	c0,0.1,0.1,0.3-0.2,0.4c-0.3,0.1-0.7,0.1-0.8,0.2c-0.1,0-0.3,0.1-0.1,0.4c0.2,0.3,0.8,1.4,0.8,1.4s-0.1,0.3-0.2,0.4
	c-0.2,0.1-0.4,0.1-0.5,0.2c-0.2,0.1-0.3,0.1-0.3-0.1c-0.1-0.2-0.4-1.4-0.5-1.6c-0.1-0.2-0.1-0.3-0.4-0.1c-0.3,0.1-0.6,0.5-0.6,0.5
	s-0.1,0.1-0.2-0.1c-0.1-0.2-0.3-0.6-0.4-0.8c0-0.1-0.1-0.2,0.3-0.3c0.3-0.1,0.6-0.1,0.7-0.2c0.2-0.1,0.3-0.2,0.2-0.4
	c-0.1-0.2-0.5-0.9-0.5-1C7.8,50,7.7,49.9,8,49.8c0.3-0.1,0.7-0.3,0.8-0.3c0.1-0.1,0.2-0.1,0.3,0.3c0.1,0.4,0.1,0.9,0.2,1
	c0,0.2,0.1,0.3,0.4,0.2c0.3-0.1,0.7-0.3,0.7-0.3s0.2-0.1,0.2,0.1C10.6,50.9,10.9,51.3,10.9,51.4L10.9,51.4z M18.1,82.6
	c0,0.3,0.1,0.5-0.8,0.2c-0.9-0.3-1.1-1-1.1-1.6c0-0.6,0.3-0.8,0.6-1c0.3-0.2,0.5-0.2,0.6,0c0,0.2-0.1,0.4,0,0.7
	c0.1,0.3,0.4,0.8,0.6,1C18.1,82,18,82.3,18.1,82.6L18.1,82.6z M18.9,82.3c0,0,0.4,0,0.4,0.2c0,0.3,0,0.4,0.1,0.4
	c0.1,0.1,0,0.2,0.1,0.3c0,0.1,0.2,0.4,0,0.3c-0.3-0.2-0.4-0.2-0.6-0.6c-0.2-0.4-0.2-0.4-0.2-0.6C18.8,82.2,18.9,82.3,18.9,82.3
	L18.9,82.3z M20,85.2c-0.2,0.2-0.2,0.3-0.6,0.2c-0.4-0.1-0.6-0.1-1-0.2c-0.4-0.1-1.1-0.2-1.2-0.5C17,84.5,16.9,84,17,83.8
	c0.1-0.2,0.1-0.2,0.3-0.2c0.2,0,0.2,0,0.2,0s0.8,0,1.1,0.1c0.3,0,0.3,0.1,0.6,0.1c0.3,0.1,0.5,0.2,0.7,0.1c0.2-0.1,0-0.3,0.2-0.3
	c0.2-0.1,0.3-0.2,0.6-0.3s0.5-0.3,0.6-0.5c0.1-0.1,0.4-0.1,0.7-0.1c0.3,0.1,0.7,0.3,0.7,0.7c0.1,0.5-0.5,1-0.7,1
	c-0.2,0-1,0.1-1.3,0.3C20.3,84.9,20.2,85,20,85.2L20,85.2z M23.9,85.6c-0.3,0.2-0.9,0.3-1.2,0.4c-0.3,0-0.9,0.1-1.2,0.2
	c-0.3,0.2-0.4,0.4-0.6,0.5c-0.2,0.1-0.2,0.2-0.7,0.1c-0.4-0.1-0.8-0.1-1-0.3c-0.2-0.2-0.3-0.4-0.2-0.5c0.1-0.1,0.4,0,0.4,0
	s0.4,0.1,0.6,0c0.2-0.1,0.4-0.5,0.8-0.7c0.5-0.2,0.8-0.3,1.1-0.4c0.4-0.1,0.5-0.3,0.7-0.4c0.1-0.1,0.3-0.1,0.5-0.1s0.7,0,0.8,0.3
	C24.1,85,24.3,85.4,23.9,85.6L23.9,85.6z M23.9,84.1c-0.1-0.1-0.2-0.2-0.1-0.4c0.1-0.2,0.4-0.9,0.4-0.9s0.2,0.2,0.3,0.5
	c0.1,0.3-0.1,0.7-0.2,0.9C24.2,84.4,24.1,84.3,23.9,84.1L23.9,84.1z M22.6,81.9c0,0.4-0.2,0.4-0.3,0.4c-0.2,0-0.6-0.1-0.6-0.1
	s0.2-0.2,0.4-0.5c0.2-0.3,0.3-0.7,0.3-0.7S22.6,81.5,22.6,81.9L22.6,81.9z M20.2,82.8c-0.5,0.1-0.4-0.2-0.4-0.5
	c0-0.3,0.2-0.4,0.4-0.6c0.2-0.2,0.3-0.6,0.3-0.6h0.2c0.1,0,0.5,0.2,0.6,0.5c0.1,0.2,0,0.7-0.2,0.8S20.6,82.7,20.2,82.8L20.2,82.8z
	 M21.1,80.7c0,0.2-0.2,0.1-0.3,0.1c-0.1,0-0.2-0.2-0.2-0.2s0,0,0-0.2c0-0.2,0.1-0.5,0.1-0.5s0.1,0.1,0.2,0.2
	C21,80.3,21.1,80.5,21.1,80.7L21.1,80.7z M15.5,69.2c-1,0.5-2.2-1.8-2.5-2.3c-0.7-1.5-1.2-3.2-1.3-4.6c-0.2-1.4-0.6-3.3-0.7-3.9
	c-0.2-0.7-0.8-2.1-1-2.4c-0.2-0.3-0.5-0.4-1-0.6c-0.5-0.2-0.6-0.3-0.6-0.5c0-0.1,0.3-0.2,1-0.2c0.7-0.1,1.1,0,1.1,0s0-0.1,0.1-0.4
	c0.1-0.3,0.3-0.6,0.5-0.8s0.4-0.3,0.5-0.2c0.1,0.1,0,0.3,0,0.3s-0.3,0.4-0.3,1.1c0,0.7,0.2,2.2,0.6,3.2c0.4,1,1.2,3,2,4.3
	c0.8,1.3,1.8,3.1,2,5L15.5,69.2L15.5,69.2z M16.7,72.6c0.4-0.2,0.8,0,1.5,1.2c0.7,1.2,1.1,2.2,1.2,2.7c0,0.5,0.2,1.1-0.1,1.3
	c-0.3,0.2-0.7,0.4-0.7,0.4s-0.1,0-0.2,0.1c-0.1,0.1-0.2,0.1-0.5-0.2c-0.3-0.3-1.2-1.5-1.4-2.4C16.3,74.6,16.3,72.8,16.7,72.6
	L16.7,72.6z M17.2,71.1c0,0.3,0,0.6-0.2,0.8c-0.2,0.2-0.6,0.3-0.9,0.3c-0.9,0-1.2-1.3-0.6-1.9c0.2-0.1,0.4-0.2,0.7-0.2
	C16.7,70.1,17.2,70.5,17.2,71.1L17.2,71.1z M25.8,88.1c0.2,0,0.4,0.3,0.1,0.4c-0.3,0.1-0.9,0.2-1.3,0.1c-0.4-0.1-0.5-0.1-0.5-0.1
	s-0.5,0.8-0.7,1.1c-0.3,0.3-0.3,0.4-0.4,0.3c-0.1,0-0.1-0.2-0.1-0.3c0.1-0.2,0.1-0.3,0.1-0.3s0.1-1.3-0.2-1.6
	c-0.3-0.4-0.7-0.8-0.3-0.8c0.4,0,0.8,0,1.2-0.1c0.3-0.1,0.3-0.1,0.4,0.1c0.1,0.2,0.7,0.7,1,1C25.4,88,25.5,88.1,25.8,88.1L25.8,88.1
	z M24.3,89.1c0.2,0,0.3,0.1,0.3,0.3c0,0.2-0.1,0.5-0.1,0.6c0,0.2,0,0.4-0.2,0.3c-0.1-0.1-0.3-0.2-0.3-0.2s-0.1-0.1-0.2-0.2
	c-0.1-0.1-0.1-0.2-0.1-0.3c0-0.1,0.1-0.3,0.2-0.4C24,89.1,24.1,89.1,24.3,89.1L24.3,89.1z M89.2,76.6c0.4,0.3,0.6,0.6,0.4,1.3
	c-0.2,0.7-0.3,0.6-1.2,1.3c-1,0.7-3.6,1.3-4.5,1.6C83,81.1,80,82,78.6,82.3c-1.4,0.3-2.1-0.5-2.9-1c-0.8-0.5-2.5-1.5-3.3-1.9
	c-0.8-0.4-2.9-1.5-2.9-1.5s0-0.3-0.1-0.8c-0.1-0.5-0.7-2-0.7-2c1,0.7,1.9,1.1,2.9,1.1c0,0,0.2,0.1,0.8,0.6c0.6,0.5,2.7,1.9,3.2,2.4
	c0.5,0.5,0.9,0.5,1.6,0.5c0.7,0,0.2-0.9,0-1.4c-0.2-0.6-0.6-1.1-1.1-1.6c-0.4-0.5-0.5-1-0.4-1.3c0.1-0.4,0.1-0.8,0.5-1.1
	c0.4-0.3,0.7-0.2,0.9,0c0.2,0.2,0.7,1.9,1.1,2.9c0.4,1,0.8,1.3,1.8,1.6c1,0.2,2.4-0.2,2.9-0.6c0.5-0.4,0.7-1,0.9-1.6
	c0.2-0.7,0.7-1.1,0.9-1.2c0.2-0.1,0.8,0,1.2,0.3c0.4,0.4,0.5,0.9,0.2,1.4c-0.3,0.5-1.5,0.7-1.6,1.6c-0.2,0.9,0.3,1.1,1,1.1
	c0.8,0.1,1.6-0.5,2.1-1c0.6-0.5,0.6-1.3,0.8-1.8C88.5,76.2,88.8,76.3,89.2,76.6L89.2,76.6z M83.6,66.6c-0.2,0-0.3,0-0.2-0.2
	c0-0.2,0.2-0.9,0.2-1c0-0.1,0.1-0.2,0.3,0.1c0.2,0.2,0.4,0.4,0.7,0.4c0.3,0,0.3-0.1,0.3-0.4c0-0.2,0-0.8,0-0.9
	c0-0.1,0.1-0.1,0.2-0.1c0.2,0,0.7,0.2,0.9,0.2c0.2,0.1,0.2,0.1,0.1,0.4c-0.2,0.3-0.4,0.7-0.4,0.7s-0.2,0.3,0.1,0.3
	c0.3,0,0.6,0,0.8,0c0.2,0,0.4-0.1,0.3,0.2c-0.1,0.3-0.2,0.5-0.2,0.6s-0.1,0.2-0.3,0.1c-0.2-0.1-0.4-0.2-0.5-0.3
	c-0.1-0.1-0.4-0.1-0.4,0.2c0,0.3-0.1,1.1-0.1,1.2c0,0.1,0.1,0.4-0.3,0.3c-0.4-0.1-0.6-0.1-0.7-0.2c-0.1-0.1-0.4-0.1-0.2-0.5
	c0.2-0.3,0.4-0.7,0.4-0.9c0.1-0.2,0.3-0.7-0.2-0.6C83.9,66.6,83.8,66.6,83.6,66.6L83.6,66.6z M88.6,75.9c-0.1-0.2,0-0.3,0.1-0.7
	c0.1-0.3,0.2-0.2,0.4,0.1c0.2,0.2,0.1,0.5,0.1,0.7s-0.2,0.2-0.3,0.2C88.8,76.1,88.7,76,88.6,75.9L88.6,75.9z M76.8,73.6
	c-0.1,0-0.2,0-0.1-0.5c0.1-0.4,0.4-0.5,0.5-0.6c0.1-0.2,0.2-0.3,0.3-0.3c0.1,0,0,0.3-0.1,0.6c-0.1,0.4-0.1,0.9-0.1,0.9
	S76.8,73.6,76.8,73.6L76.8,73.6z M84.5,69.5c-0.2,0-0.4,0.2-0.4,0.4s0.2,0.4,0.4,0.4c0.2,0,0.4-0.2,0.4-0.4S84.7,69.5,84.5,69.5z
	 M79.1,72.2c-0.2,0-0.4,0.2-0.4,0.4s0.2,0.4,0.4,0.4c0.2,0,0.4-0.2,0.4-0.4S79.3,72.2,79.1,72.2z M83.4,73.2c-0.2,0-0.4,0.2-0.4,0.4
	s0.2,0.4,0.4,0.4s0.4-0.2,0.4-0.4S83.6,73.2,83.4,73.2z M87.4,74.1c-0.2,0-0.4,0.2-0.4,0.4c0,0.2,0.2,0.4,0.4,0.4
	c0.2,0,0.4-0.2,0.4-0.4C87.8,74.2,87.7,74.1,87.4,74.1z M81.3,72.7c-0.2,0-0.4,0.2-0.4,0.4c0,0.2,0.2,0.4,0.4,0.4
	c0.2,0,0.4-0.2,0.4-0.4C81.6,72.9,81.5,72.7,81.3,72.7z M88.7,74.1c-0.1,0.4-0.2,1.1-0.4,1.5c-0.2,0.3-0.4,0.5-0.8,0.4
	c-0.4-0.1-1.3-0.2-1.4-0.8c-0.1-0.6-0.2-1.2-0.6-1.6c-0.4-0.4-0.6-0.3-0.6,0c0,0.3-0.1,0.7-0.1,0.7s0,0.4-0.3,0.5
	C84.1,75,84.1,75,84,75.1c-0.1,0.1-0.4,0-0.7-0.1c-0.3-0.1-4.5-0.9-5-1l0,0c-0.5-0.1-0.6-0.1-0.6-0.5c0-0.4,0.1-1.1,0.4-1.7
	c0.3-0.6,0.3-0.6,0.3-0.6s3.2,0.8,3.7,0.8c0.4,0.1,0.7,0.1,0.8-0.3c0.1-0.4,0.7-3.2,0.7-3.2c1,0.1,1.9,0.3,2.5,0.7
	c0,0-0.9,2.7-0.9,3c-0.1,0.3-0.1,0.5,0.3,0.6c0.4,0.1,2.5,0.6,3,0.7C88.7,73.7,88.7,73.7,88.7,74.1z M79.8,72.7
	c0-0.4-0.3-0.8-0.8-0.8c-0.4,0-0.8,0.3-0.8,0.8c0,0.4,0.3,0.8,0.8,0.8C79.5,73.4,79.8,73.1,79.8,72.7z M82,73.2
	c0-0.4-0.3-0.8-0.8-0.8c-0.4,0-0.8,0.3-0.8,0.8c0,0.4,0.3,0.8,0.8,0.8C81.6,74,82,73.6,82,73.2z M84.1,73.7c0-0.4-0.3-0.8-0.8-0.8
	s-0.8,0.3-0.8,0.8c0,0.4,0.3,0.8,0.8,0.8S84.1,74.1,84.1,73.7z M84.7,71.9c0-0.4-0.3-0.8-0.8-0.8c-0.4,0-0.8,0.3-0.8,0.8
	c0,0.4,0.3,0.8,0.8,0.8C84.3,72.6,84.7,72.3,84.7,71.9z M85.2,70c0-0.4-0.3-0.8-0.8-0.8s-0.8,0.3-0.8,0.8c0,0.4,0.3,0.8,0.8,0.8
	S85.2,70.4,85.2,70z M88.2,74.5c0-0.4-0.3-0.8-0.8-0.8s-0.8,0.3-0.8,0.8s0.3,0.8,0.8,0.8S88.2,74.9,88.2,74.5z M83.9,71.4
	c-0.2,0-0.4,0.2-0.4,0.4c0,0.2,0.2,0.4,0.4,0.4c0.2,0,0.4-0.2,0.4-0.4C84.3,71.6,84.2,71.4,83.9,71.4z M58,78.6
	c-0.4,0.1-1-0.1-1.3-0.5c-0.3-0.4-0.4-1-0.7-1.4c-0.2-0.4-0.3-0.4-0.3-0.4s0.7,2.5,0.5,3.4c-0.1,0.9-0.7,1-1,0.9
	c-0.2-0.1-0.5-0.4-0.8-0.9c-0.1-0.2-0.3-0.6-0.4-0.8c-0.4-0.8-0.7-0.9-0.5-0.2c0.2,0.7,0.5,1.6,0.5,2.2c0,0.6,0,1.6-0.6,1.7
	c-0.6,0-0.9-0.5-1.2-1.7c-0.3-1.2-0.4-1.6-0.5-1.6c-0.1,0-0.1,0.8-0.1,1.2s-0.2,2.1-0.5,2.4c-0.3,0.3-0.5,0.2-0.5,0.2
	s-0.2,0-0.5-0.2c-0.2-0.2-0.4-0.9-0.5-1.6c0-0.3-0.1-0.7-0.1-0.8c0-0.4,0-1.2-0.1-1.2c-0.1,0-0.2,0.4-0.5,1.6
	c-0.3,1.2-0.6,1.7-1.2,1.7c-0.6,0-0.7-1.1-0.6-1.7c0-0.6,0.4-1.6,0.5-2.2c0.1-0.3,0.2-0.8,0-0.9c-0.1,0-0.3,0.7-0.5,1.1
	c-0.1,0.2-0.2,0.5-0.3,0.6c-0.3,0.6-0.7,1-1,1.1c-0.3,0.1-0.9,0-1-0.9c-0.1-0.4,0-1.5,0.3-2.2c0.3-0.8,0.4-1.4,0.4-1.4
	s-0.2,0.3-0.4,0.6c-0.2,0.4-0.4,1-0.7,1.4c-0.3,0.4-1,0.7-1.3,0.5l0,0c-0.4-0.1-0.4-0.8-0.2-2c0.1-0.6,0.4-1.2,0.8-1.7
	c0.3-0.4,0.8-0.7,1.2-1.2c0.7-0.9,1.3-2.3,1.4-2.5c1,0.5,1.8,1,2.6,1.8c1.6,1.6,1.9,2,1.9,2s0.3-0.4,1.9-2c0.8-0.8,1.6-1.3,2.5-1.8
	c0.1,0.2,0.6,1.8,1.3,2.6c0.8,0.9,1.8,1.6,2.1,2.8C58.4,77.9,58.4,78.5,58,78.6z M44.8,75c0,0-0.7,0.6-0.9,1
	c-0.3,0.4-0.4,0.8-0.5,1.3c-0.1,0.5-0.1,0.5,0.2,0c0.3-0.5,0.6-1.2,0.8-1.5C44.6,75.4,44.8,75,44.8,75z M46.4,76.7
	c-0.1,0-0.3,0.2-0.5,0.8c-0.2,0.6-0.5,1.5-0.4,1.5c0.1,0,0.6-1,0.7-1.3c0.1-0.4,0.2-0.6,0.2-0.6S46.4,76.8,46.4,76.7z M48.5,78.3
	c0-0.1-0.1-0.3-0.2,0c-0.2,0.3-0.2,0.7-0.2,0.8c0,0.2-0.2,0.7-0.2,0.7c0.1,0,0.2-0.3,0.3-0.5l0,0c0.1-0.3,0.1-0.3,0.1-0.3
	S48.5,78.4,48.5,78.3z M50.3,78.7c-0.1,0-0.2,0.3-0.2,0.5c0,0.2,0,1.1,0,1.3s0.1,0.2,0.1,0.2v0c0.1,0,0.1-0.1,0.1-0.4
	c0-0.3,0-0.9,0.1-1.3C50.6,78.6,50.4,78.7,50.3,78.7z M52.7,79.2c0-0.2,0-0.5-0.2-0.8c-0.2-0.3-0.2-0.2-0.2,0c0,0.1,0.2,0.8,0.2,0.8
	s0,0,0.1,0.3l0,0c0.1,0.3,0.3,0.6,0.3,0.5C52.9,79.8,52.7,79.3,52.7,79.2z M54.9,77.6c-0.2-0.6-0.5-0.8-0.5-0.8c-0.1,0,0,0.4,0,0.4
	s0.1,0.2,0.2,0.6c0.1,0.4,0.7,1.4,0.7,1.3C55.3,79,55,78.1,54.9,77.6z M57.3,77.3c-0.1-0.5-0.3-0.9-0.5-1.3c-0.3-0.4-0.9-1-0.9-1
	s0.2,0.4,0.4,0.7c0.2,0.3,0.5,1,0.8,1.5C57.4,77.8,57.5,77.7,57.3,77.3z M64.6,87.9c0,0-0.6,0.6-2.1,0.9c-1.5,0.3-2.2-0.3-2.6-0.6v0
	c-0.4-0.3-0.8-0.5-1.7-1.2c-0.9-0.6-1.3-1.3-1.3-1.3h0.3c0.2,0,0.3-0.2,0.3-0.5c0-0.2,0-0.7-0.1-1.3c-0.1-0.6,0.1-1.1,0.1-1.1
	s0.4,0.4,1,0.7c0.6,0.3,0.8,0.2,0.8,0.2l0.1-0.6c0,0,0.3,0.5,0.6,1.2c0.4,0.6,1.4,1.3,2.1,1.9c0.7,0.5,1.5,1.1,2.1,1.3
	C65,87.6,64.6,87.9,64.6,87.9z M61,87.2c-0.4-0.2-0.7-0.5-0.9-0.7c-0.2-0.2-0.4-0.3-0.7-0.6c-0.2-0.2-0.4-0.5-0.4-0.5l-0.3,0.2
	c0,0,0.4,0.5,0.8,0.8c0.3,0.3,0.4,0.5,1,0.7c0.5,0.3,0.6,0.3,0.6,0.3s0.3,0.2,0.4,0.1C61.6,87.5,61.5,87.4,61,87.2z M54.6,87.6
	C54.6,87.6,54.6,87.6,54.6,87.6L54.6,87.6L54.6,87.6z M61.3,91.7c-0.6,0-0.7,0-1.6-0.2c-1-0.2-2.3-1.3-3.3-2c-1-0.6-1.7-1.9-1.7-1.9
	c0.5-0.1,0.9-0.3,1-0.8c0.1-0.4,0-1.8,0-1.8s0.2,0.1,0.4,0.4c0.2,0.2,0.7,0.3,0.7,0.3s0.1,0.2,0.3,0.5c0.2,0.3,0.5,0.7,1,1
	c0.5,0.3,1.1,0.7,1.5,1c0.4,0.3,0.9,0.7,1.4,1c0.5,0.3,1,0.7,1.2,1.5C62.1,91.5,61.9,91.7,61.3,91.7z M59.3,89.7
	c-0.2-0.1-0.7-0.4-1-0.6c-0.2-0.2-0.4-0.3-0.7-0.5c-0.2-0.2-0.7-0.7-0.9-0.8c-0.2-0.1-0.3-0.2-0.4-0.1c-0.1,0.1,0.1,0.2,0.3,0.5l0,0
	c0.2,0.2,0.7,0.6,1,0.9c0.3,0.2,0.5,0.3,0.5,0.3s0.6,0.3,0.8,0.3c0.2,0.1,0.4,0.2,0.4,0.2S59.6,89.8,59.3,89.7z M59,93.4
	c-0.2,0.3-0.6,0-1-0.3s-1.8-0.4-3.6-1.4c-1.8-1-2.4-3.2-2.4-3.2h0c0,0,0.4-0.5,0.6-1.1c0.1-0.6,0.4-1.7,0.4-1.7s0.1,0.4,0.5,1.1
	c0.3,0.7,0.9,0.9,0.9,0.9s0,0.3,0.5,0.9c0.5,0.6,1.1,1.1,1.8,1.5c0.7,0.4,1.6,1,2.1,1.7C59.2,92.3,59.2,93,59,93.4z M56.6,91.3
	c-0.3-0.2-0.6-0.2-1-0.5c-0.4-0.2-1-0.9-1.2-1c-0.3-0.1-0.4-0.2-0.3,0.1h0c0.2,0.3,0.5,0.5,0.9,0.8c0.4,0.3,0.6,0.5,0.8,0.5
	c0.2,0,0.3,0.1,0.3,0.1s0.4,0.2,0.5,0.3c0.1,0.1,0.2,0.1,0.3,0C56.9,91.5,56.9,91.5,56.6,91.3z M55.4,95.7c-0.3,0.5-0.6,0.3-1-0.1
	c-0.4-0.4-0.5-0.5-1.2-1c-0.7-0.6-1.6-1.3-2.1-2.1h0c-0.5-0.7-0.6-2.6-0.6-2.6s0.2-0.1,0.4-0.3c0.2-0.2,0.7-0.9,0.7-0.9
	s0.3,0.6,0.6,1.2c0.3,0.6,0.5,0.8,1.2,1.4c0.7,0.6,1.6,1.2,2,1.9C55.9,93.9,55.7,95.2,55.4,95.7z M54.3,93.5c-0.2-0.4-1-1-1.4-1.3
	c-0.4-0.3-0.9-1-0.9-1s-0.1,0.2,0,0.5c0.1,0.3,0.6,0.8,0.9,1s1.1,0.9,1.1,0.9s0.2,0.2,0.3,0.4c0.1,0.2,0.3,0.3,0.4,0.2
	C54.7,94.2,54.5,94,54.3,93.5z M69.6,74.7c0,0,0.5,0.6,1.1,0.6h2c0,0-1.2-0.7-1.3-0.9c-0.1-0.2-0.4-0.1-0.5-0.1
	c-0.1,0.1-0.6,0.2-0.9,0.3C69.8,74.7,69.6,74.7,69.6,74.7L69.6,74.7z M64.1,74.4c0,0.2-0.2,1.1-0.2,1.5c-0.1,0.4,0.1,0.4,0.4,0.5
	c0.3,0.1,0.9,0.5,2.4,1.4c1.5,1,2.1,1.6,2.1,1.6s0.1-0.4,0.1-0.8s0-1.3-0.4-2.2c-0.3-1-0.7-1.6-1-1.9c-0.3-0.3,0.5-0.3,1-0.3
	c0.5,0,1.2-0.2,1.5-0.4c0.2-0.2,0.7-0.2,1.2-0.5c0.5-0.2,0.2-0.3-0.3-0.5c-0.5-0.1-1.9-0.7-1.9-0.7s-0.7,0.4-1.1,0.6
	c-0.4,0.2-0.9,0.5-1.7,0.6c-0.8,0.1-1.1,0.1-1.1,0.2c0,0,0.2,0.2,0.5,0.7c0.3,0.4,0.4,0.7,0.8,1.4c0.4,0.7-0.1,0.3-0.4-0.1
	c-0.2-0.2-0.6-0.8-1-1.2c-0.3-0.3-0.6-0.5-0.6-0.5l-0.3,0.6V74.4L64.1,74.4z M58.2,69.7c-0.5,0.2-1,0.4-1.5,0.6c0.3,0.3,1,1,1.3,1.3
	c0.3,0.4,0.8,0.8,1,1c0.2,0.3,0.4,0.6,0.7,0.9c0.3,0.3,1.9,2.1,2.3,2.8c0.4,0.7,0.2-0.2,0.1-0.7c-0.1-0.5-0.3-1.1-0.4-1.7
	c-0.1-0.5,0.2-0.3,0.2,0c0.1,0.3,0.1,0.3,0.3,0.9c0.1,0.6,0.5,1.4,0.6,2c0.1,0.6,0.2,0.3,0.3,0c0.1-0.3,0.4-0.7,0.5-1
	c0.1-0.3,0.2-0.9,0.2-1.9c0-1-0.5-1.4-0.5-1.5c0-0.1,0.2-0.3,0.6-0.2c0.4,0.1,0.5,0.2,1,0.2c0.5,0,0.7-0.2,1.2-0.2
	c0.5,0,0.9-0.2,1.7-0.6c0.8-0.5,0-0.3-0.6-0.3c-0.6,0.1-2.1-0.2-2.8-0.4c-0.7-0.3-0.2-0.3,0-0.2c0.2,0.1,0.3,0.1,1.6,0.3
	c1.3,0.2,1.8-0.1,2.5-0.3c0.7-0.2-0.2-0.3-0.2-0.3s-2.4-0.7-3.6-2c-0.9-1-1.2-2-1.3-2.4c-0.5,0.6-1,1.1-1.6,1.5
	c0,0.2,0.1,0.5,0.3,0.8c0.2,0.5,0.8,1,0.8,1s-0.7-0.3-1-0.6c-0.2-0.2-0.4-0.6-0.5-0.8c-0.8,0.6-1.6,1-2.4,1.4
	c0.1,0.1,0.2,0.2,0.3,0.3c0.3,0.3,0.6,0.7,1,1.3c0.4,0.7,0,0.6-0.3,0c-0.4-0.6-1.3-1.2-1.5-1.3c0,0,0,0-0.1,0
	C58.4,69.6,58.3,69.7,58.2,69.7L58.2,69.7z M88.2,32.8c1.2-2.5,1.6-4.5,1.8-6.1c0.2-1.6-0.1-2.7-0.3-3.4c-0.2-0.8-0.4-1.3-0.6-0.3
	c-0.2,1-1.3,4.5-1.8,5.9c-0.5,1.4-1.5,2.8-2,3.5c-0.1,0.2-0.3,0.5-0.5,0.7c-0.3,0.5-0.5,0.9-0.5,0.9s0.1,0,0.3-0.2
	c0.1-0.2,0.3-0.3,0.4-0.3c0.2,0,0.4,0.9,0.4,0.9s0.7-0.8,1.3-1.8c0.6-1,1.3-2.8,1.3-2.8s-0.4,1.9-1.2,3.1s-1.3,1.8-1.3,1.8
	s0.1,0.5,0,0.9c-0.1,0.4-0.3,1.1-0.3,1.1S86.9,35.3,88.2,32.8L88.2,32.8z M90.5,35c1.8-3.2,1.3-6.1,1.3-6.1s-1,2-1.8,3.4
	c-0.9,1.4-3,3.9-3.9,4.5c-0.8,0.6-0.9,0.7-0.8,0.8c0.1,0.2,0.2,0.4,0.2,0.6c0,0.3,0,0.3,0,0.3s1.5-1.2,2.2-2.1
	c0.8-0.8,1.5-1.5,0.6-0.4c-0.9,1.2-1.4,1.6-1.8,1.9c-0.4,0.3-0.9,0.8-0.9,0.8s0,0.6-0.1,0.9c-0.1,0.3-0.2,0.6-0.2,0.6
	s0.7-0.5,1.1-0.8C87,39.2,88.8,38.2,90.5,35z M77.3,57.7c1,0.4,2.6,1.2,4.2,1.3c1.6,0,4-0.6,4.6-1.7c0.7-1.1,0.4-1.2,0.2-1.2
	c-0.2,0-1.5,0.3-2.9,0.3s-3.2-0.3-4.1-0.5c-0.9-0.2-1.2-0.4-1.3-0.2c-0.1,0.1-0.4,0.3-0.8,0.3c-0.3,0-0.4,0.1-0.1,0.2
	c0.2,0.2,1.6,0.9,2.3,1c0.8,0.1,1.2,0.1,1.2,0.1c0,0.1,0,0.2-0.5,0.1c-0.5,0-1.9-0.4-2.4-0.6c-0.5-0.2-1.1-0.4-1.1-0.4
	C76.7,56.4,76.4,57.4,77.3,57.7L77.3,57.7z M81.7,55.4c1.7,0,3.2-0.2,4.2-0.5c1.1-0.3,2.4-1,3-2c0.7-1,0.6-1.2,0.6-1.2
	s0-0.2-0.4-0.1s-1.6,0.5-3.5,0.8c-1.9,0.2-3.9,0-3.9,0s-0.8,0.5-1.1,0.6c-0.3,0.1-0.5,0.2,0,0.4c0.4,0.2,1.8,0.4,2.5,0.3
	c0.7-0.1,1.1,0,0.2,0.2c-0.9,0.2-1.7,0.1-2.4,0c-0.7-0.1-1.1-0.2-1.1-0.2s0,0.6-0.2,0.9c-0.2,0.3-0.2,0.4-0.2,0.4S80,55.4,81.7,55.4
	L81.7,55.4z M82.1,51.5c0,0,2.6,0.1,5-0.7c2.3-0.9,2.8-1.3,3.7-2.4c0.9-1.1,0.9-1.6,1-2c0.1-0.4,0.1-0.6-0.2-0.3
	c-0.4,0.3-1.8,1.1-3.6,1.8c-1.8,0.7-2.7,1-3.7,1.1c-1,0.1-1.1,0.2-1.3,0.3c-0.2,0.2-0.6,0.3-1,0.4c-0.4,0.1-0.8,0.2-0.8,0.2
	s0.5,0.1,0.6,0.2c0.1,0.1,0.6,0,1.4-0.1c0.8-0.1,2.7-0.3,3.2-0.5c0.5-0.2,0.7-0.3,0.7-0.2c0,0.1-0.5,0.3-1.3,0.5
	c-0.8,0.2-0.8,0.3-2.1,0.4c-1.3,0.2-1.6,0.3-1.6,0.3s0.3,0.3,0.2,0.6C82.2,51.4,82.1,51.5,82.1,51.5L82.1,51.5z M92,43.1
	c0.7-0.9,0.9-1.8,1-2s0.2-0.4-0.2-0.1c-0.3,0.2-1,0.7-1.7,1.2c-0.4,0.3-0.7,0.5-1,0.7c-1,0.6-2,1-3.2,1.4c-1.2,0.4-2,0.5-2,0.5
	s-0.4,0.7-0.8,0.9c-0.3,0.2-0.9,0.5-0.2,0.3c0.7-0.1,1.9-0.3,2.9-0.7c1.1-0.4,1.6-0.8,1.6-0.7c0,0.1-0.3,0.4-1.5,0.8
	c-1.1,0.4-2,0.6-2.8,0.8c-0.8,0.2-0.9,0.2-1,0.2s-0.4,0.1,0.1,0.1c0.5,0,0.7,0,0.9,0.4c0.1,0.3-0.1,0.8,0,0.9c0.5-0.1,2.9-0.6,5-2.1
	C91.1,44.3,91.3,44.1,92,43.1z M92.5,37.1c0.2-1,0.1-1.1,0.1-1.3c0-0.2-0.1-0.2-0.2-0.1c-0.1,0.2-2.1,2.3-3.1,3.1
	c-1,0.8-2.4,1.8-3.1,2.2c-0.8,0.4-1.4,0.6-1.6,0.8c-0.1,0.2-0.3,0.4-0.3,0.4s0.4,0,0.6,0.1c0.2,0.2,0.2,0.4,0.2,0.4s1.3-0.7,2.1-1.3
	c0.8-0.5,1.7-1,1.8-1.2c0.2-0.2,0.5-0.2-0.1,0.2c-0.6,0.4-1.5,1.1-2.3,1.5c-0.8,0.5-1.5,0.9-1.5,0.9s0,0.6-0.1,0.7
	c-0.1,0.2-0.1,0.3,0.2,0.2c0.3-0.1,2.1-0.6,4.1-2.2C91.4,40.1,92.3,38.1,92.5,37.1z M82.2,26.5c0.4-0.8,0.6-1.9,0.8-3.4
	c0.1-0.7,0.4-2.6,0.3-4.5c-0.1-2.6-0.9-5.4-2-6.4c0,0-0.3,4.3-0.5,5.9c-0.2,1.6-0.9,5-0.9,5s-0.1,0.1,0.1,0.6c0.2,0.5,0.4,1,0.6,1.4
	c0.2,0.4,0.2,0.7,0.2,0.7s0.5-1.8,0.7-3.1c0.2-1.2,0.2-2,0.2-2.5c0-0.5,0.2-1,0.2,0c0,1.1-0.1,2.3-0.3,3.1c-0.1,0.8-0.4,2-0.5,2.3
	c0,0.1-0.1,0.4-0.1,0.6c0,0.2,0,0.5,0.1,0.7c0.1,0.5,0,0.9,0,1.1s0,0.4,0,0.4s0.2-0.3,0.4-0.8C81.7,27.3,81.9,26.9,82.2,26.5
	L82.2,26.5z M84.5,31.9c0,0,0.7-1.7,1.2-3.1c0.5-1.4,1.5-5,1.1-8.7c-0.3-3.8-1.3-4.5-1.3-4.5s0,0.5-0.1,1.7c0,1.2-0.4,3.3-1,5.6
	c-0.6,2.3-1.6,4.2-1.6,4.2c0.2,0.7,0.3,1.5,0.3,2.1c0,0.6,0,1-0.1,1.6l0.8-1.3c0,0,0.7-1.1,1.2-4.2c0.5-3.1,0.3-1.2,0.1,0.6
	c-0.1,0.7-0.3,1.7-0.6,2.5c-0.4,1.1-0.8,1.9-0.8,1.9C84.3,30.5,84.4,31.1,84.5,31.9L84.5,31.9z M73.7,60.5c0,0,1.5,0.9,3.7,1.5
	c2.2,0.5,3.4,0.3,4.2,0c1-0.4,1.2-1.4,1.2-1.4s-1.8-0.2-3.8-1.1C77,58.5,76.5,58,76.5,58s-0.7,0.3-1.2,0.3c-0.5,0-0.8,0-0.8,0
	s1.2,1.1,1.9,1.3c0.6,0.2,0.7,0.3,0.9,0.5c0.2,0.1,0.3,0.3,0,0.2c-0.3-0.1-0.5-0.2-1-0.4s-0.9-0.5-1.2-0.7c-0.3-0.2-0.5-0.3-0.5-0.3
	s0.1,0.9-0.3,1.2C73.9,60.4,73.7,60.5,73.7,60.5L73.7,60.5z M71,62.6c0.2,0.9,1.2,2.2,4,2.3c2.8,0.1,3.9-1.2,3.9-1.2s-1.4,0-3.7-1.4
	c-2.3-1.4-2.9-1.6-3.2-1.5l-0.3,0.1c0,0,1.2,1.3,2.1,1.7c0.8,0.5,0.5,0.5-0.3,0c-0.9-0.4-1.3-1-1.6-1.2c-0.3-0.3-0.4-0.3-0.4-0.3
	S70.8,61.7,71,62.6L71,62.6z M65.7,61.6c0,0-0.1,1.4,1.4,3c0.6,0.6,1.1,1.1,1.7,1.5c0.9,0.5,1.7,0.6,2.5,0.5
	c1.3-0.1,1.4-0.4,1.4-0.4s0.2-0.1-0.1-0.5c-0.5-0.6-0.9-1.1-1.4-1.6c-0.4-0.5-0.6-0.7-0.8-1c-0.2-0.3,0-0.3-0.6-0.3
	c-0.5,0-1.1,0-1.1,0s-0.5-0.1-0.1,0.3c0.3,0.4,0.8,0.9,1.2,1.2c0.5,0.3,1,0.5,0.9,0.6s-0.8-0.1-1.3-0.5c-0.5-0.4-1-1-1.2-1.3
	c-0.2-0.3-0.3-0.4-0.3-0.4s-1.1-0.2-1.5-0.5C66,62,65.7,61.6,65.7,61.6L65.7,61.6z M65,65c-0.2-0.2-0.3-0.3-0.4-0.4
	c-0.1,0.2-0.3,0.5-0.4,0.7c0.1,0.5,0.3,1.2,1.1,1.6c0.8,0.4,1.6,0.3,1.9,0.1c0.4-0.3-0.2-0.7-0.9-1.7c-0.5-0.9-1-2.2-1.1-2.6
	c-0.1,0.5-0.3,1-0.5,1.5c0.1,0.1,0.2,0.3,0.3,0.4c0.2,0.3,0.4,1,0.4,1S65.3,65.4,65,65L65,65z M65.8,23.4c0,0.3-0.3,0.5-0.6,0.5
	s-0.6-0.2-0.6-0.5s0.3-0.5,0.6-0.5S65.8,23.1,65.8,23.4z M66.8,22.3c0.1-0.2,0-0.8-0.8-1.2c-0.8-0.4-2-0.4-3.1-0.1
	c-1.1,0.3-1.7,0.7-2.1,1c-0.4,0.3-0.9,0.8-1,0.7c-0.1-0.1,0.2-0.3,0.4-0.5c0.2-0.2,0.3-0.3,0.3-0.3c-1.2,0.1-2.4-0.3-3.4-1
	c0,0-0.3,1.5,1,2.3c0.3,0.2,0.6,0.3,0.9,0.4c1.1,0.3,2.3,0.1,3.2-0.3c1.1-0.6,2.1-1,2.7-1.1c0.6-0.1,0.9,0.2,1.4,0.2
	C66.6,22.4,66.7,22.4,66.8,22.3z M59.1,37.1c0,0,0,0.2-0.2,0.7c-0.2,0.6-0.8,1.3-0.8,1.3s0.5-0.1,1-0.3c0.5-0.2,0.9-0.5,0.9-0.5
	s-0.1,0-0.3-0.3S59.1,37.1,59.1,37.1L59.1,37.1z M52.1,36.7c-0.2,0.4-0.7,1.2-0.9,1.6c-0.3,0.3-0.1,0.4-0.1,0.4s0.1,0.1,1.8,0.6
	c1.7,0.5,3.2,0.2,3.2,0.2s-0.1-0.1-0.3-1.3s-0.1-3-0.1-3s-0.3,0.8-1,1.5c-0.7,0.7-1.2,0.6-1.2,0.6s0.1,0,0.6-0.4
	c0.5-0.4,1.1-1.5,1.1-1.5c-0.6,0.4-1.9,0.7-2.6,0.5C52.4,36,52.3,36.2,52.1,36.7L52.1,36.7z M71.2,24.6c0,0.8-0.4,0.5-0.5,0.4
	c-0.1-0.1-0.3-0.7-1.2-0.8c-1-0.2-1.9,0.3-3,1.2c-1.1,0.9-1.4,1-1.9,1.6c-0.6,0.6-0.1,0.9,0.8,1.2c1,0.3,2.2-0.3,2.2-0.3
	c0.2,0.1-0.4,0.9-1.2,1.3c-0.8,0.3-1.9,0.1-2.7-0.2c-0.6-0.2-0.7,0-0.8,0.2c-0.9,0.9-1.1,1.8-1.3,2.9c-0.5-0.1-0.8-0.6-0.8-1
	c0-0.2-0.1-0.6-0.4-0.3c-0.3,0.3-0.6,1.9-0.6,2.6S60,35,60,35l-0.2,0c-0.1,0-0.4-0.2-0.8-0.4c-0.4-0.2-0.4,0-0.4,0.4
	c0,0.4-0.1,1.2-0.7,2.5c-0.5,1.4-1.3,1.8-1.3,1.8s-0.2-0.3-0.3-0.8c-0.2-0.5-0.3-1.6-0.3-2.5c0-0.9,0.2-2.9,0.2-2.9
	s-1.1,1.4-2.3,1.7c-1.2,0.3-2.3,0.1-2.8-0.4c-0.5-0.6,0-0.8,0.2-0.9h0c0.2-0.1,0.7-0.1,1.2-0.6c0.6-0.5,1.9-2,2-2.2
	c0.2-0.3,0.1-0.5-0.3-0.7c-0.4-0.2-0.6-0.6-0.6-0.6s0.8-0.3,1.4-0.7c0.6-0.4,1.8-1.6,2-1.8c0.2-0.3,0.1-0.3-0.2-0.4
	c-0.3-0.1-0.3-0.3-0.3-0.3s0.6-0.4,1.2-0.8c0.6-0.4,1.3-1.2,1.3-1.2c0.8,0.3,2.1,0.2,2.8,0.1c1.2-0.2,2.1-0.7,2.1-0.7s0,0.2,0.2,0.6
	c0.2,0.4,0.7,0.6,1.3,0.2c0.6-0.4,0.4-1.2,0.4-1.2s0.5-0.3,1.4-0.6c1-0.4,1.7-0.4,2.5,0C70.8,22.8,71.2,23.8,71.2,24.6z M55.8,31.8
	c0,0-0.1,0.1-0.6,0.7v0c-0.5,0.6-1.8,1.2-1.8,1.2l0,0.1c0,0,0.5-0.1,1-0.4c0.5-0.3,1.2-0.9,1.4-1.2C55.9,32,55.8,31.8,55.8,31.8z
	 M57.8,33.6l-0.3-0.1c0,0-0.2-0.1-0.2,0.3c0,0.3-0.1,2.7-0.1,2.7v0c0,0.1,0,0.8-0.2,0.9c0.1,0,0.3,0,0.3-0.3
	C57.4,36.6,57.8,33.6,57.8,33.6z M61.3,27.8c-0.2,0.1-0.8,0.5-1.1,0.7c-0.3,0.2-0.5,0.2-0.7,0.4c-0.3,0.1-0.2-0.5,0-0.9
	c0.2-0.5,0.7-1.1,1.1-1.5c0.4-0.5,0-0.3-0.2-0.1c-0.2,0.2-0.6,0.7-1.2,1.5c-0.5,0.8-0.8,2.8-0.8,2.8s0.3-0.2,0.6-0.4
	c0.3-0.2,0.7-0.4,1.3-0.9c0.6-0.4,1-0.8,1.3-1.1C61.9,27.8,61.5,27.8,61.3,27.8z M81.2,43.6c0.1,0.2,0.5,0,1.1-0.3
	c0.6-0.3,1.4-0.6,1.9-0.7c0.5-0.2,0.5,0.2,0.5,0.2s0.1,1.1-0.7,2c-0.8,0.9-1.7,1.2-2.6,1.4c-0.9,0.2-1,0.2-1,0.3
	c0,0.1,0.1,0.2,0.3,0.2c0.2,0,1,0.1,1.7,0.1c0.7,0,1.1,0.2,1.1,0.5s0,0.8-1.1,1.5c-1.1,0.7-2.3,0.8-2.9,1c-0.5,0.1-0.5,0.2-0.4,0.3
	c0.1,0.2,0.3,0.1,1.2,0.2c0.8,0.1,1.3,0.4,1.4,0.6c0.1,0.2-0.1,0.9-0.7,1.3c-0.7,0.5-1.5,0.6-2.8,0.5c-1.3-0.1-1.6-0.1-1.7,0.1
	c0,0.2,0.4,0.3,1,0.4c0.6,0.1,1.1,0.1,1.5,0.4c0.4,0.3,0.1,0.9-0.5,1.4c-0.6,0.5-2.2,0.5-2.8,0.4c-0.6,0-1.6-0.3-1.7-0.1
	c-0.1,0.2,0.5,0.4,1.1,0.7c0.7,0.2,0.9,0.4,1,0.7c0.1,0.3,0,0.5-0.8,0.8c-0.8,0.3-2,0.3-2.6,0c-0.6-0.3-0.9-0.4-1-0.3
	c-0.1,0.1,0,0.2,0.1,0.4c0.1,0.2,0.6,0.6,1.3,0.7c0.7,0.2,0.7,0.2,1,0.7c0.2,0.5-0.4,1-1.6,1c-1.2,0-2.8-0.4-3.3-0.7
	c-0.5-0.3-0.7-0.4-0.8-0.3c-0.1,0.1-0.1,0.2,0.2,0.4c0.3,0.2,1.1,0.8,1.5,0.9c0.4,0.1,0.5,0.4,0.5,0.7c0,0.3,0.1,0.8-1,1.1
	c-1.1,0.3-2.4,0.1-3.5-0.8c-0.4-0.3-0.6-0.5-0.7-0.7c0.1-1.1,0-1.9-0.1-2.6c0.2,0,0.7-0.1,1.1-0.3c0.6-0.3,0.9-0.9,1.1-1.2
	c0.2-0.3,0.4-0.3,0.6-0.2c0.3,0.1,0.5,0.2,0.9,0.2c0.4,0,1.1-0.2,1.7-0.9c0.6-0.7,0.5-1.3,0.5-1.6c0-0.3,0.5-0.1,0.8-0.1
	c0.3,0,1-0.1,1.7-0.6c0.7-0.5,0.7-1.1,0.8-1.4c0.1-0.3,0.3-0.4,0.6-0.5c0.2-0.1,0.6-0.2,1-0.6c0.5-0.4,0.6-1.1,0.7-1.4
	c0-0.3,0.3-0.3,1.3-0.8c1-0.5,0.9-1.5,0.8-1.9c0-0.4-0.5-0.8-0.5-0.9c0-0.2,0.3-0.2,0.6-0.4c0.3-0.2,1.1-0.5,1.2-1.7
	c0-1.2-0.8-1.3-0.8-1.3s0.2-0.1,0.5-0.3c0.3-0.2,1.2-0.8,1.2-1.5c0-0.7-0.3-1-0.6-1.2c-0.2-0.2-0.9-0.3-0.9-0.3s0.4-0.3,0.6-0.8
	c0.2-0.6,0.2-1.3-0.2-1.8C79.8,36,79.1,36,78.7,36S78,36.1,77.9,36c-0.1-0.1-0.2-0.2,0-0.5c0.1-0.3,0.2-1,0-1.2
	c-0.1-0.2-0.1-0.7-1.1-1C76,33,75,33.7,74.7,33.8c-0.3,0.2-0.2-0.2-0.2-0.5c0-0.3,0.6-1.1,1.3-2.1c0.7-1.1,1-1.6,1.8-3.3
	c0.8-1.6,1.3-3.8,1.4-4.3c0.1-0.5,0.3-0.3,0.3-0.3s0.2,0.1,0.7,1.3c0.5,1.3,0.6,2.4,0.5,3.4l0,0c0,1-1.1,2.9-1.8,3.9
	c-0.6,1-0.8,1.4-0.7,1.5c0.1,0.1,0.4-0.5,0.7-0.9c0.3-0.5,1-1.5,1.6-2.3c0.6-0.8,1.4-2.7,1.5-2.9c0.1-0.2,0.2-0.3,0.4-0.1
	c0.3,0.2,0.8,2.3,0.2,3.7c-0.6,1.4-1.6,2.5-2,3c-0.4,0.5-1,1.3-0.9,1.3c0.1,0.1,0.2-0.1,0.7-0.6c0.5-0.5,1.3-1.4,1.9-2.1
	c0.4-0.5,1-1.6,1.2-2c0.1-0.1,0.2-0.1,0.3,0c0.2,0.2,0.5,0.6,0.3,1.7c-0.2,1.6-1,2.5-1.7,3.3c-0.7,0.8-1.5,1.5-1.4,1.6
	s0.9-0.6,1.4-1.1c0.5-0.5,1.8-1.7,2.1-2.1c0.3-0.3,0.7-0.2,0.7,1.2c0,1.4-1.5,2.7-2.2,3.5c-0.6,0.8-1.4,1.2-1.3,1.4
	c0.1,0.2,0.7-0.2,1.1-0.5c0.4-0.3,1.9-1.3,2.2-1.5c0.3-0.2,0.5,0.2,0.1,1.5c-0.4,1.3-1.5,2.3-2.2,2.8C82.2,42.9,81.2,43.5,81.2,43.6
	z M77.8,30.9c-0.2,0.3-1,1.3-1.1,1.5c-0.1,0.2-0.4,0.7,0.1,0.1c0.5-0.6,0.5-0.7,0.5-0.7s0.5-0.6,0.6-0.8
	C78.1,30.7,78.1,30.6,77.8,30.9z M79.4,33.8c0.2-0.2,0.5-0.8,0.4-0.8c-0.1,0-0.2,0.3-0.2,0.3s-0.6,0.7-0.8,1.1
	c-0.3,0.4-0.4,0.4-0.4,0.5h0c0.1,0.1,0.2,0,0.3-0.2C78.9,34.5,79.2,34,79.4,33.8z M80.9,36.1c0.1-0.1,0.3-0.4,0.5-0.7
	c0.3-0.3,0.1-0.2-0.1-0.1c-0.1,0.1-0.4,0.5-0.4,0.5s-0.1,0.1-0.3,0.3c-0.2,0.2-0.2,0.3-0.2,0.3C80.7,36.4,80.8,36.2,80.9,36.1z
	 M68.5,60.9c-0.2-0.1-0.4-0.2-0.4-0.2s-0.6-0.5-0.7-0.6v0c-0.1-0.1-0.1-0.1-0.2-0.1c-0.1,0.1,0,0.1,0.2,0.3c0.2,0.2,0.9,0.7,1.1,0.7
	c0.2,0.1,0.3,0,0.3,0S68.7,61,68.5,60.9z M71.9,58.8c0-0.1-0.2-0.1-0.2-0.1s-0.5-0.1-0.9-0.4l0,0c-0.4-0.3-0.5-0.6-0.6-0.4
	c-0.1,0.2,0.1,0.3,0.3,0.4c0.1,0.1,0.5,0.4,0.8,0.5C71.6,58.8,71.9,58.9,71.9,58.8z M73.7,56.6c-0.2-0.1-0.4-0.2-0.4-0.2
	s-0.6-0.4-0.8-0.6v0c-0.2-0.2-0.2-0.3-0.3-0.1c-0.1,0.1,0.2,0.3,0.5,0.5c0.2,0.2,0.7,0.5,0.8,0.5c0.1,0.1,0.3,0.2,0.3,0.1
	C74,56.8,74,56.8,73.7,56.6z M76.2,54.1c-0.2,0-0.4,0-0.7-0.1l0,0c-0.3-0.1-0.5-0.3-0.6-0.1c-0.1,0.1,0.1,0.3,0.4,0.3
	c0.2,0,0.4,0.1,0.8,0.1c0.4,0,0.5,0,0.8,0c0.2,0,0.3,0.1,0.3,0c0-0.1-0.2-0.1-0.2-0.1S76.4,54.1,76.2,54.1z M79.1,51.7
	c0,0-0.5,0-0.8,0c-0.2,0-0.7-0.1-0.9-0.1c-0.3-0.1-0.4-0.1-0.5,0h0c-0.1,0.1,0,0.2,0.3,0.2c0.3,0,0.6,0.2,1.2,0.1
	c0.6-0.1,1-0.1,1-0.1L79.1,51.7z M80.5,48.1c-0.5,0-0.8,0-0.9,0.1c0,0.1,0,0.2,0.3,0.2c0.3,0,0.7,0,1-0.1c0.2-0.1,0.5-0.2,0.4-0.3
	C81.4,48,81,48.1,80.5,48.1z M81.5,38.8c0.2-0.2,0.3-0.3,0.4-0.4c0.1-0.1,0.4-0.5,0.4-0.5S82.2,38,82,38.1c-0.2,0.1-0.3,0.3-0.5,0.5
	C81.4,38.8,81,39,81.1,39C81.2,39.1,81.4,39,81.5,38.8z M81,44.7c-0.2,0-0.2,0.1-0.2,0.2v0c0,0.1,0.1,0.1,0.2,0.1
	c0.1-0.1,0.3-0.1,0.5-0.1c0.2,0,0.5-0.2,0.5-0.3c0-0.1-0.4,0.1-0.4,0.1S81.2,44.7,81,44.7z M81.6,42L81.6,42
	c0.3-0.3,0.5-0.5,0.6-0.5c0.1-0.1,0.5-0.5,0.5-0.5c0,0-0.2,0.1-0.3,0.2c-0.1,0.1-0.3,0.3-0.5,0.4c-0.2,0.1-0.5,0.3-0.7,0.5
	c-0.2,0.1-0.3,0.2-0.2,0.3C80.9,42.3,81.3,42.3,81.6,42z M80.6,41c-0.7,0.8-2.1,1-2.3,1.1c-0.3,0.1-0.4,0-0.4,0.2
	c0,0.2,0.6,0.2,1.3,0.3c0.8,0,1,0.8,0.9,1.3c-0.1,0.6-1.4,1.2-2.1,1.3c-0.7,0.1-0.9,0-1,0.2c-0.1,0.2,0.1,0.3,0.5,0.4
	c0.4,0.1,1.1,0.2,1.3,0.8c0.1,0.6,0.2,0.9-0.4,1.4c-0.6,0.5-1.5,0.4-1.8,0.4c-0.3-0.1-0.6-0.4-0.9-0.1c-0.3,0.3,0.3,0.5,0.7,0.8
	c0.5,0.3,0.4,1-0.4,1.4c-0.8,0.4-1.6,0.3-1.9,0.2c-0.3-0.1-0.8-0.6-1-0.3c-0.2,0.3,0.7,0.4,1.1,0.9c0.4,0.5,0.3,1.3-0.5,1.7
	c-0.8,0.5-2.1,0.1-2.3-0.1c-0.2-0.2-0.5-0.3-0.7-0.1c-0.2,0.2,0.1,0.6,0.3,1c0.2,0.4,0.5,1.5-0.7,2c-1.2,0.4-2.2-0.6-2.4-0.8
	c-0.2-0.2-0.4-0.2-0.6-0.1c-0.2,0.1-0.1,0.3,0.1,0.4c0.1,0.2,0.4,1-0.4,1.6c-0.6,0.4-1.2,0.4-1.5,0.3c-0.2-0.7-0.4-1.4-0.6-2.3h0.2
	c0.1,0,0.1,0.2,0.1,0.2s0,0.1,0.1,0.1c0.1,0,0.1,0.1,0.3,0.2c0.1,0.1,0.3,0.2,0.4,0.2c0.1-0.1-0.3-0.3-0.4-0.4
	c-0.1-0.1-0.3-0.3-0.3-0.4c0-0.1-0.1-0.2-0.3-0.4c-0.1-0.1-0.1-0.1-0.2-0.2c-0.1-0.7-0.3-1.4-0.4-2.3c-0.1-0.6-0.1-1.2-0.1-1.8
	l0.4,0c0.6,0,1.3-0.3,1.8-1.1c0.6-0.8,1.4-1,2.8-1c1.4,0,2.1-0.7,2.5-1.7c0.4-1-0.1-2.1-1.5-2.9c-1.5-0.7-2.1-1.5-2.2-2.8
	c-0.1-1.3,1.5-2.8,3-4.6c1.5-1.8,2.7-4.2,2.7-4.2s0.4,0.6,0.4,1.2c0,0.6-0.2,1.2,0,1.4c0.2,0.2,0.3-0.3,1.2-0.6
	c0.9-0.4,1.6-0.4,2.2,0.2c0.6,0.6,0,1.8-0.5,2.3c-0.5,0.5-0.9,0.9-0.8,1.1c0.1,0.2,0.9-0.3,1.1-0.5c0.3-0.2,0.8-0.8,1.7-0.7
	s1.2,0.3,1.3,1.1c0.1,0.7-0.8,1.4-1.3,1.6c-0.6,0.3-0.8,0.5-0.6,0.6c0.1,0.1,0.3,0,0.5-0.1c0.2-0.1,0.9-0.2,1.4,0
	C80.6,39.6,81.3,40.2,80.6,41z M68.8,53.5c-0.3-0.2-0.3-0.2-0.3-0.2s-0.5-0.5-0.7-0.7c-0.2-0.2-0.3-0.3-0.4-0.2
	c-0.1,0.1,0.1,0.3,0.2,0.4c0.2,0.1,0.5,0.4,0.7,0.5h0c0.2,0.1,0.3,0.1,0.4,0.2C68.8,53.7,69.1,53.7,68.8,53.5z M72.2,51.5l-0.2-0.1
	c0,0-0.9-0.6-1.1-0.8c-0.3-0.2-0.3-0.4-0.4-0.3c-0.1,0,0,0.4,0.1,0.5c0.1,0.1,0.5,0.2,0.6,0.3c0.1,0.1,0.2,0.1,0.5,0.3
	c0.2,0.2,0.4,0.2,0.6,0.2C72.3,51.6,72.4,51.6,72.2,51.5z M77.1,38.3c0.1,0.1,0.3,0,0.5-0.1c0.2-0.1,0.4-0.2,0.8-0.5h0
	c0.4-0.3,0.1-0.2-0.1-0.1c-0.2,0.1-0.3,0.2-0.3,0.2s-0.2,0.1-0.5,0.3C77.2,38.1,77,38.2,77.1,38.3z M74,49c-0.2-0.1-0.4-0.2-0.4-0.2
	s-0.4-0.3-0.6-0.5c-0.2-0.2-0.3-0.2-0.4-0.1c-0.1,0.1,0,0.2,0.2,0.4h0c0.3,0.2,0.7,0.4,0.9,0.5c0.2,0.1,0.5,0.2,0.6,0.1
	C74.4,49.2,74.2,49.1,74,49z M75.5,35.5c0.2-0.2,0.5-0.4,0.5-0.5c-0.1-0.1-0.3,0.2-0.3,0.2s-0.2,0.1-0.4,0.3
	c-0.2,0.2-0.5,0.5-0.4,0.6C75,36.2,75.3,35.7,75.5,35.5z M76.7,46.8L76.7,46.8c0-0.1-0.3-0.2-0.3-0.2s-0.4-0.3-0.7-0.4
	c-0.3-0.1-0.5-0.2-0.5-0.1c0,0.1,0,0.2,0.2,0.2c0.2,0.1,0.6,0.3,0.8,0.3C76.5,46.8,76.8,46.9,76.7,46.8L76.7,46.8L76.7,46.8z
	 M77.8,43.9c-0.2-0.1-0.5-0.1-0.5-0.1s-0.4-0.1-0.5-0.1c-0.1,0-0.3-0.1-0.4,0c-0.1,0.1,0.1,0.2,0.4,0.2c0.4,0.1,0.5,0.2,0.9,0.2
	S78,44,77.8,43.9z M79.1,40.5c0-0.1-0.5,0-0.5,0s-0.5,0.1-0.7,0.1c-0.3,0.1-0.8,0-0.8,0.2c0,0.2,0.3,0.1,0.6,0.1
	c0.3-0.1,0.8-0.2,1.1-0.2C79,40.6,79.1,40.5,79.1,40.5z M58.3,18.5l-0.8-0.7l-1.3,0.3l1.1,0.8L58.3,18.5z M49.2,17.7l1.2,0.6
	l1.1-0.6l-1.2-0.6L49.2,17.7z M53.8,17.3c-0.3,0-0.6,0.3-0.6,0.6s0.3,0.6,0.6,0.6c0.3,0,0.6-0.3,0.6-0.6S54.2,17.3,53.8,17.3z
	 M57.3,17.7c-0.5,0.1-1.5,0.4-1.5,0.5c0,0.1-0.2,0.4,0,0.5c0.2,0.1,1,0.7,1.2,0.8h0c0.1,0.1,0.2,0.3-0.1,0.3c-0.2,0-0.2,0-0.9-0.1
	c-1.9-0.4-3.8-0.5-5.7-0.5c-1.9,0-3.7,0.1-5.7,0.5c-0.6,0.1-0.6,0.1-0.9,0.1c-0.2,0-0.2-0.2-0.1-0.3c0.1-0.1,1-0.7,1.2-0.8
	c0.2-0.1,0-0.4,0-0.5c0-0.1-1-0.4-1.5-0.5c-0.5-0.1-0.4-0.2-0.4-0.2s0.3-0.4,2.2-0.6c1.9-0.2,5.2-0.2,5.2-0.2s3.3,0,5.2,0.2
	c1.9,0.2,2.2,0.6,2.2,0.6S57.8,17.5,57.3,17.7z M47.9,18.1c0-0.6-0.5-1-1-1c-0.6,0-1,0.4-1,1c0,0.6,0.5,1,1,1
	C47.4,19.1,47.9,18.6,47.9,18.1z M52,17.8c-0.1-0.2-0.2-0.3-0.6-0.4h0c-0.3-0.2-1.1-0.5-1.1-0.5s-0.7,0.3-1.1,0.5
	c-0.4,0.2-0.3,0.1-0.4,0.4c-0.1,0.3,0,0.4,0.2,0.4c0.2,0.1,1.4,0.7,1.4,0.7s1.2-0.5,1.5-0.7C52.1,18.2,52.1,18,52,17.8z M54.9,18.1
	c0-0.6-0.5-1-1-1c-0.6,0-1,0.4-1,1c0,0.6,0.5,1,1,1C54.4,19.1,54.9,18.6,54.9,18.1z M56,14.6c0.3-0.1,0.4-0.5,0.4-0.7
	c0-0.2,0-0.6,0-0.6s0,0-0.2,0.2c-0.1,0.1-0.4,0.3-0.6,0.5c-0.3,0.2-0.1,0.7-0.1,0.7S55.7,14.7,56,14.6L56,14.6z M55.6,15.1
	c0,0.1-0.1,0.2-0.2,0.2c-0.1,0-0.2-0.1-0.2-0.2c0-0.1,0.1-0.2,0.2-0.2C55.6,15,55.6,15,55.6,15.1z M56.4,14.8
	c-0.3,0.1-0.4,0.3-0.5,0.4c0,0.1,0,0.3,0.2,0.4c0.2,0,0.4-0.1,0.6-0.2c0.2-0.1,0.4-0.1,0.4-0.1s-0.2-0.2-0.3-0.3
	C56.8,14.8,56.7,14.7,56.4,14.8z M56.2,16.2c-0.7-0.1-0.7-0.5-0.7-0.5s-0.1,0.6,0.3,0.9c0.2,0.1,0.6,0.2,1,0.3
	c0.3,0.1,0.5,0.1,0.8,0.1c0.6-0.1,1.1-0.4,1.1-0.4l0.1,0c-0.5-0.1-0.9-0.4-1-1C57.7,15.5,56.8,16.2,56.2,16.2L56.2,16.2z M58.6,15.7
	c0.2,0.1,0.3,0.2,0.7,0.2c0.3,0,0.6-0.2,0.7-0.5c0-0.3-0.2-0.3-0.4-0.3c-0.2,0-0.6,0.2-0.8,0.3C58.4,15.6,58.4,15.6,58.6,15.7z
	 M60.7,14.4c-0.3,0.2-0.4,0.4-0.5,0.6c-0.1,0.2,0.3,0.4,0.6,0.4c0.3,0,0.5-0.1,0.6-0.4c0.1-0.3-0.1-0.8-0.1-0.8S61,14.2,60.7,14.4
	L60.7,14.4z M60.7,15.8c0,0.1-0.1,0.2-0.2,0.2s-0.2-0.1-0.2-0.2s0.1-0.2,0.2-0.2S60.7,15.7,60.7,15.8z M59.8,13.3
	c-0.2,0.9,0.1,1.4,0.1,1.4c0,0,0.6-0.7,1-0.9c0.4-0.1,0.5-0.3,0.5-0.5c0-0.1,0-0.2,0-0.5c-0.3,0-0.6-0.3-0.6-0.7
	c0-0.3,0.1-0.5,0.3-0.6c-0.1-0.4-0.3-0.8-0.5-1.2c0-0.1-0.1-0.1-0.1-0.2c-0.1,0.1-0.2,0.1-0.3,0.1c-0.4,0-0.7-0.3-0.7-0.7
	c0-0.1,0-0.3,0.1-0.4c-0.3-0.2-1.4-0.9-1.7-1c-0.1,0.1-0.3,0.1-0.4,0.1c-0.4,0-0.7-0.3-0.7-0.7c0,0,0,0,0,0C56.1,7.2,55.1,7,55.1,7
	s0.9,0.6,1.4,1.1C56.9,8.5,57,8.6,57,8.6s1.4,0.5,2.2,1.7C60,11.5,60,12.4,59.8,13.3L59.8,13.3z M57.7,7.8c0.1-0.1,0.1-0.3-0.1-0.4
	c-0.2-0.1-0.4-0.1-0.5,0c-0.1,0.1-0.1,0.3,0.1,0.4C57.4,7.9,57.6,7.9,57.7,7.8z M60.5,9.7c0.1-0.1,0.1-0.4-0.1-0.5
	c-0.2-0.2-0.4-0.2-0.6,0c-0.1,0.1-0.1,0.4,0.1,0.5C60.2,9.8,60.4,9.8,60.5,9.7z M62,12c0,0.2-0.2,0.4-0.4,0.4s-0.4-0.2-0.4-0.4
	c0-0.2,0.2-0.4,0.4-0.4S62,11.7,62,12z M54.2,7.1c0-0.2-0.2-0.4-0.4-0.4c-0.2,0-0.4,0.2-0.4,0.3c0,0.2,0.2,0.4,0.5,0.4
	C54.1,7.5,54.2,7.3,54.2,7.1z M51.8,15.4c0.3-0.1,0.4-0.3,0.4-0.3s-0.4-0.3-0.6-0.4c-0.2-0.1-0.5-0.1-0.7,0.1
	c-0.2,0.2-0.1,0.5,0,0.6C51.2,15.5,51.5,15.6,51.8,15.4L51.8,15.4z M50.8,15.8c-0.1-0.2-0.2-0.3-0.2-0.2c-0.1,0.1-0.1,0.3,0.1,0.6
	c0.1,0.3,0.7,0.3,0.7,0.3h2.6c0.5,0,0.6-0.1,0.9-0.4c0.3-0.2,0.3-0.4,0.3-0.5c0,0-0.3,0.2-0.6,0.4c-0.3,0.2-0.9,0.2-1.1,0
	c-0.2-0.2-0.3-0.7-0.3-0.7l-0.4,0c0,0-0.2,0.3-0.4,0.6c-0.2,0.2-0.6,0.3-1,0.2C51,16.1,50.9,16,50.8,15.8L50.8,15.8z M54.7,15.3
	c0.4-0.2,0.3-0.7,0.3-0.7s0,0-0.2,0c-0.2,0-0.3,0.1-0.5,0.2c-0.2,0.1-0.5,0.2-0.5,0.2s0,0.1,0.2,0.3C54.1,15.4,54.3,15.6,54.7,15.3
	L54.7,15.3z M56.1,8.9c-0.1-0.2-0.4-0.3-0.6-0.2h0c-0.5,0.1-0.2,0.8,0.3,0.7C56.1,9.3,56.2,9.1,56.1,8.9z M56.6,11
	c-0.3,0-0.5,0.2-0.5,0.5c0,0.3,0.2,0.5,0.5,0.5c0.3,0,0.5-0.2,0.5-0.5C57.1,11.2,56.9,11,56.6,11z M57.9,13.3c-0.3,0.8-1.3,1-1.4,1
	c0,0,0.1-0.1,0.1-0.3c0-0.2,0-0.2-0.1-0.5c0-0.3,0-0.7,0-0.7s-0.2,0-0.4,0.1c-0.1,0.2-0.3,0.4-0.5,0.5c-0.1,0.2-0.5,0.5-0.5,0.5
	s-0.2-0.3-0.2-0.7c0-0.4,0.2-0.8,0.3-1.4c0-0.6-0.3-1.8-0.9-2.6c-0.6-0.8-1.8-1.6-2.1-1.7C52,7.4,51.9,7.2,51.9,7
	c0-0.2,0-0.3-0.1-0.6c0-0.4,0.3-0.4,0.7-0.3l0,0c0.2,0,0.6,0.2,1.2,0.5h0c-0.4,0-0.7,0.3-0.7,0.6c0,0.3,0.4,0.7,0.8,0.7
	c0.4,0,0.7-0.4,0.7-0.7c0-0.1,0-0.2-0.1-0.2c0.2,0.1,0.4,0.2,0.6,0.4c1.3,0.9,1.7,1.3,2.3,2.6C58,11.2,58.2,12.5,57.9,13.3z
	 M56.1,9.8c0.3-0.2,0.4-0.7,0.1-1c-0.3-0.3-0.8-0.4-1.1-0.2c-0.3,0.2-0.4,0.7-0.1,1C55.3,10,55.8,10.1,56.1,9.8z M57.4,11.5
	c0-0.5-0.4-0.9-0.9-0.9c-0.5,0-0.9,0.4-0.9,0.9c0,0.5,0.4,0.9,0.9,0.9C57.1,12.4,57.4,12,57.4,11.5z"/>
</svg>
