<?xml version="1.0" encoding="utf-8"?>
<!-- Generator: Adobe Illustrator 21.0.0, SVG Export Plug-In . SVG Version: 6.00 Build 0)  -->
<svg version="1.1" id="Layer_1" xmlns="http://www.w3.org/2000/svg" xmlns:xlink="http://www.w3.org/1999/xlink" x="0px" y="0px"
	 viewBox="0 0 100 100" style="enable-background:new 0 0 100 100;" xml:space="preserve">
<path id="path2" d="M11,67c-3-0.1-5.4-0.9-7.3-2.4c-0.4-0.3-1.2-1.1-1.5-1.5c-0.8-1-1.3-1.9-1.6-2.9c-1.1-3.2-0.5-7.4,1.6-12
	c1.8-4,4.6-7.9,9.5-13.3c0.7-0.8,2.9-3.1,2.9-3.1c0,0-0.1,0.2-0.3,0.4c-1.3,2.1-2.3,4.6-2.9,6.7c-0.9,3.4-0.8,6.4,0.3,8.7
	c0.8,1.6,2.2,2.9,3.7,3.7c2.7,1.3,6.7,1.4,11.6,0.3c0.3-0.1,16.9-4.4,36.9-9.7c19.9-5.3,36.2-9.6,36.3-9.6c0,0-46.3,19.7-70.4,29.9
	c-3.8,1.6-4.8,2-6.6,2.6C18.4,66.4,14.3,67.1,11,67L11,67z"/>
</svg>
