<?xml version="1.0" encoding="utf-8"?>
<!-- Generator: Adobe Illustrator 21.0.0, SVG Export Plug-In . SVG Version: 6.00 Build 0)  -->
<svg version="1.1" id="Layer_1" xmlns="http://www.w3.org/2000/svg" xmlns:xlink="http://www.w3.org/1999/xlink" x="0px" y="0px"
	 viewBox="0 0 100 100" style="enable-background:new 0 0 100 100;" xml:space="preserve">
<path id="path3575" d="M31.4,0C31.4,0,31.3,0.1,31.4,0c-0.5,1.2-0.2,5.6-3.2,6.5c-2,0.6-3.5,4.2-3.5,6c0,2,1.9,2.7,1.5,3.2
	c-0.6,0.7-2.3,1.4-3.6,1c-0.8-0.2-0.9-1.5-2.6-1.5c-1.8,0-1.7,1.7-2.6,1.7c-2.3,0-4.7-0.1-7.4,0c-1,0.1-1.6-2-2.3-2.1
	c-0.5-0.1-1.1,0.4-1,0.9c0.1,0.6,1.6,1.6,1.6,2.3c0,1.8-2.4,1.7-2.8,5.8c-0.1,0.6,0.9,0.7,1,0.5c0.3-0.5,0.1-1,0.5-1.4
	c0.4-0.5,1.2-0.3,1.9-0.3c1.3,0,0.9,1.3,2,1.8c0.5-0.7,0.4-1.2,0.7-1.6c0.5-0.5,1.7-0.3,2.2,0.1c0.5,0.4,0.8,0.7,1.2,1.3
	c0.5-0.6,0.2-0.9,0.9-1.3c0.7-0.3,1.5-0.3,1.9-0.2c0.9,0.2,0.3,1.1,0.8,1.6c0.6-0.6,0.6-1,1-1.3c0.4-0.3,1.4-0.1,1.6,0.5
	c0.2,0.4,0.2,0.8,0.2,1.2c-1.5,0-7.4,0-11.2,0c-2.9,0-5.4,0-6.1,0c-0.4,0-0.8-0.2-1.2-0.6S2.3,23.5,2,22.9c-0.5-1.1-0.7-2.3-0.7-2.3
	c0-0.1-0.1-0.2-0.2-0.3c-0.1-0.1-0.2-0.1-0.3,0c-0.1,0-0.2,0.1-0.2,0.2c-0.1,0.1-0.1,0.2,0,0.3c0,0,0.2,1.2,0.8,2.4
	c0.3,0.6,0.6,1.2,1.1,1.7c0.5,0.5,1,0.8,1.7,0.8c0.6,0,3.2,0,6.1,0c0.9,0,2,0,3,0c-0.6,0.7-1.2,1.6-1.8,1.6c-1.5-0.1-2,0-3.1,0
	c-0.5,0-1-0.5-1.3-0.9c-0.2-0.3-0.6-0.3-0.8-0.1c-0.1,0.1-0.2,0.3-0.1,0.4c1.1,2.1,3.4,4.7,5.5,4.7c1.1,0,3.2-1.7,5.7-1.7
	c0.2,0,4.6-0.2,5-0.3c1-0.4,1-2.2,1.7-2.7c0.3-0.2,0.9,0.2,1.1,0.4c0.2,0.3,0.1,0.8-0.1,1.1c-5.4,7.3-16.1,9.7-16.1,22.3
	c0,6.5,2.9,15.4,6.9,20.9c4.5,6.2,6.6,10,18.5,14.2c3.4,1.2,9.7,1,11.9,0c0.8-0.3-2.4-3.1-2.7-4.1c-0.1-0.3,0.9-0.5,1.1-0.2
	c1.1,1.3,2.2,3,3.6,3.7c0.1,0.1,0.2,0.2,0.3,0.4c0,0.1,0.1,0.2,0.1,0.3c0,0.1,0,0.2,0,0.3c0,0.1,0,0.2,0,0.3c0,0.3-0.1,0.5-0.4,0.6
	c-0.3,0.1-0.6,0.1-0.9,0.2c0,0-0.1,0-0.1,0c-4.1,0.9-10.8,1.4-14.9,1.4c-3.4,0-1.8-0.9-3.8-1.1c-1.7-0.1-3.5,1.2-3.7,3.1
	c-0.1,1.2-1.8,1.7-2.4,2.8c-0.8,1.4,0.2,3.2,0.6,3.8c0.1,1.5,0.9,2,1.3,1.9c-0.4-0.9-0.2-1.5,0.1-2c0.5-0.9,1.9-1.3,2.4-2.2
	c0.3-0.6,0.1-1.4,0.1-2.1c0-1,1.2-2.3,1.7-2.2c0.3,0.1,0.7,0.2,1.3,0.3c-0.1,0.2-0.1,0.5-0.1,0.7c0,1-2.3,2.1-2.4,3.4
	c0,1.2,0.9,2.2,1.2,2.5c0.2,1.4,0.7,2.1,2.1,2.5c-0.2-0.8-0.6-1.7-0.4-2.2c0.2-0.7,1.3-1,1.5-1.8c0.2-0.8-0.4-2-0.3-2.8
	c0.1-0.5,0.5-1.4,0.8-2c0.6,0,1.3,0,2,0c0,0.3-0.1,0.7-0.2,0.9c-0.1,0.7-1.3,1.9-1.3,2.8c0.1,1.6,0.3,2,0.9,2.7
	c0.5,1.6,1.1,2.7,2.5,2.8c-0.9-1.5-1-1.6-1-2.4c0-1.1,1.8-1.7,1.8-3.1c0-1-1.1-1.6-1.1-2.7c0-0.5,0.4-0.8,0.8-1.1
	c0.5,0,0.9,0,1.3-0.1c4.9-0.4,6.7-0.9,11.3-0.6c1.6,0.1,3.8,1.3,4.8,1.3c1.7,0,2.7-1.2,2.7-2.7c0-0.6-0.3-1.1-0.6-1.7c0,0,0,0,0,0
	c0,0,0-0.1,0-0.1c-0.1-0.1-0.2-0.3-0.3-0.4c0,0-0.1-0.1-0.1-0.1c0,0,0,0,0,0c-0.1-0.1-0.2-0.2-0.3-0.3c-0.1-0.1-0.2-0.2-0.3-0.3
	c-0.1-0.1-0.1-0.1-0.2-0.2c-0.2-0.2-0.3-0.3-0.5-0.5c0,0,0,0,0,0c-0.2-0.2-0.4-0.5-0.6-0.7c0,0,0,0,0,0c0-0.1-0.1-0.1-0.1-0.2
	C54,84,54,83.9,53.9,83.8c0-0.1-0.1-0.1-0.1-0.2c0-0.1-0.1-0.1-0.1-0.2c0-0.1-0.1-0.1-0.1-0.2c-0.1-0.1-0.1-0.2-0.2-0.4
	c0,0,0-0.1,0-0.1c0,0,0,0,0,0c0-0.1,0-0.1-0.1-0.2c0-0.1-0.1-0.2-0.1-0.3c0-0.1,0-0.2-0.1-0.3c0,0,0,0,0-0.1c0,0,0,0,0,0
	c0-0.1,0-0.3,0-0.4c0-0.2,0-0.3,0-0.5c0-0.3,0.9-0.5,1.1-0.3c1.5,1.5,1.9,5.4,4,5.4c8.7,0,16.1-0.1,23.8-0.3
	c2.8-0.1,6.3-1.4,8.8-2.6c5.1-2.5,8.7-10.4,8.7-15.9C99.5,48.9,81,42.4,81,30.4c0-8.8,15.6-19.6,15.6-24.9c0-1.7-3-5.2-4-4.2
	c-1,1,1.2,2.5,1.2,3.7c0,1.2-3,4.4-6.7,7.6c-5.4,4.6-12.1,10.3-12.1,18c0,12.7,14.9,22.8,14.9,33.3c0,4.4-4.4,8.5-7.4,8.5
	c-6,0-13.8-12-22-12.1c-2,0,2.3-2.4,3.1-3.4c0.7-0.9-1.3-2.6-1-3.8c0.5-2.2,3.4-5.1,3.3-6.3c0-0.6-2.5,0.9-3.6,0.8
	c-0.5,0-1.2-0.8-1-1.2c1.2-1.8,4.8-3.5,6-5.8l0.3-3.3c-2.8-0.2-4.1,1.8-6.3,2.6c-1,0.4-1.4-0.2-1.3-0.4c0.2-0.7,6.5-3.6,8.9-6l1-4.7
	c-4.5-0.4-8.1,4.1-12,6.9c-0.4,0.3-1.4-0.9-1.1-1.3c5.4-6,12.9-9.7,17.7-13.6l0.1-3.9c-6.4,1.4-14.9,7.1-20.2,12
	c-0.4,0.3-1.3-0.9-1-1.2c5-4.9,13.2-10.9,18.6-13l4.4-8.7C69.1,6.5,54,20.3,45,28.8c-1.7,1.6-1.6,5.9-1.1,8.3
	c0.7,2.7,4.2,5.1,3.9,7.8c-0.7,5.6-4.7,13.7-6.8,18.2c-0.2,0.3-0.7,0.3-0.7,0l0.5-3.1c-0.6-0.1-1.3-0.3-2-0.2
	c-5.1,0.7-8.3,5.2-9.6,4.2c-3.4-2.6-8.4-12.3-8.8-17.9c-0.3-5.1,10.6-12,14.3-19.5c0.8-1.6-1-5.3-1-7.1c0-2.1,1.2-0.9,3.3-4.6
	c0.6-1.1,0.4-6.2,1.3-9.2c0.4-1.2,1.7-2.1,1.9-3.3c-3.2,0.2-3.3,2.4-4.4,4c-0.7,1-3,1.9-4.3,4.5c-0.8,1.7-0.1,3.9-0.6,5.4
	c-0.3,0.8-1.7,0.5-1.8,0c-0.8-3.9,3.3-7.8,3.8-11.8C33,3.1,31.8-0.2,31.4,0L31.4,0z M67.8,2.7C62.4,5,50.6,12.5,41.7,24.5
	c-2.7,3.7-2.5,9-2.5,13.3c0,1.8,4.1,3.9,4.1,7.1c0,4.4-3,9.9-4.5,14.2c0.7-0.1,1.5,0.1,2.2,0.3c0.3-0.8,0.7-1.7,1.1-2.5
	c1.9-4.2,3.8-8.8,4.2-12.2c0.1-0.6-0.4-1.5-1.3-2.7c-0.9-1.2-2.1-2.6-2.6-4.5c-0.3-1.4-0.5-3.2-0.4-4.9c0.1-1.8,0.5-3.6,1.9-4.9
	c4.5-4.3,10.6-9.9,16.5-14.5c2.1-1.7,4.2-3.2,6.1-4.5L67.8,2.7L67.8,2.7z M19.3,18.9c0.6,0,1.4,0.1,1.8,0.1c0.1,0.8,0.5,3-0.6,3
	c-0.6,0-0.3-1.2-0.7-1.7c-0.4-0.5-1.7-0.1-1.7-0.8C18.1,19,18.7,18.9,19.3,18.9L19.3,18.9z M23.6,18.9c0.8,0,1.7,0,1.7,0.6
	c0.1,0.7-1.2,0.3-1.7,0.8c-0.4,0.5-0.1,1.7-0.7,1.7c-1.1,0-0.7-2.1-0.6-3C22.6,19,23.1,18.9,23.6,18.9z M10.6,19
	c0.3,0,0.6,0.7,0.6,1.3c0,0.6-1.2,0.5-1.9,0.5c-0.6,0-0.2-1,0-1.3C9.5,19.2,10.2,19.1,10.6,19z M21.2,25.7c-0.2,0.3-0.4,0.6-0.8,0.9
	c-0.4,0.3-1.2,0.2-1.6,0c-0.5-0.2-0.5-0.2-1.2-0.9C19.4,25.8,20.5,25.7,21.2,25.7z M13.2,25.8c1.5,0,2.9,0,4.3,0
	c-0.3,0.4-0.3,0.9-0.9,1.2c-0.5,0.3-1.2,0.4-1.8,0.2C14.2,27,13.7,26.5,13.2,25.8z M15.3,81.8c-1.5,0.1-3.9,0.5-3.4,5
	c-0.7,0.7-1.4,0.9-1.4,1.9c0,1-0.1,2.1,0.8,2.8c0.3,1.2-0.4,2.5,2,3.6c-0.6-2.4-0.6-2.6-0.4-3.1c0.9-0.7,1.7-0.6,1.6-2.7
	c-0.1-1-0.9-1-0.5-2.2c0.4-1.1,0.4-2.8,1.3-2.6c0.6,0.2,1.2,0.3,1.9,0.5c-0.2,0.3-0.4,0.7-0.5,1.1c-0.2,0.6-1.5,1.5-1.4,2.6
	c0.1,1.2,1.1,2.4,1.6,2.6c0.4,1.1,0.5,1.2,1.4,1.6c-0.4-0.8-0.7-2-0.5-2.5c0.3-0.7,1.2-1.6,1.4-2.4c0.1-0.5-0.4-1-0.6-1.5
	c-0.2-0.3-0.1-0.9,0.1-1.3c1.1,0.2,2.4,0.3,3.7,0.3c-0.1,0.8-2.2,1.7-2.3,2.6c-0.2,1,0.4,1.8,0.8,2c0,1.6,0,1.9,1.6,2.2
	c-0.1-0.6-0.4-1.4-0.2-1.8c0.3-0.5,1.3-0.6,1.6-1.2c0.3-0.6-0.1-1.6,0-2.2c0.1-0.5,0.7-1.7,1.1-1.8c0,0,0.2,0,0.6-0.1
	c0.8-0.1,2.2-0.4,2.9-0.8c0.2-0.1,0.4-0.2,0.5-0.4c-1.5-0.7-2.9-1.4-4-2.2c-1.1,0.5-2.1,1.1-4,1.1c-2.6,0.1-3.8-1.2-4.9-1.2
	C15.7,81.8,15.5,81.8,15.3,81.8L15.3,81.8z"/>
</svg>
