<?xml version="1.0" encoding="utf-8"?>
<!-- Generator: Adobe Illustrator 21.0.0, SVG Export Plug-In . SVG Version: 6.00 Build 0)  -->
<svg version="1.1" id="Layer_1" xmlns="http://www.w3.org/2000/svg" xmlns:xlink="http://www.w3.org/1999/xlink" x="0px" y="0px"
	 viewBox="0 0 100 100" style="enable-background:new 0 0 100 100;" xml:space="preserve">
<path d="M54.4,7.5c0.1-0.2,0.2-0.5,0.2-0.7l-1.3-0.3c-0.1,0-0.2,0-0.2,0.1c0,0.3,0,0.7,0.3,0.9C53.7,7.7,54.1,7.7,54.4,7.5z"/>
<path d="M51.6,10.5L51.6,10.5l0.1,0.7c1.1,0,2,0.2,3.2,0.2c0-0.2-0.1-0.5-0.2-0.7L51.6,10.5z"/>
<path d="M78.7,34.7c1.4-2.4,3.5-4.1,5.5-6.2c2.4-2.3,4.6-5,5.7-8c1.2-2.7,1.1-6.2,0.2-8.9c-0.7-2.3-2.8-4.1-5-4.9
	c-2.8-1.2-6.3-0.4-8.6,1.5c-2,1.6-2.8,4.1-2.4,6.6c-1.7,2-2.7,4.3-3.5,6.7c1-1.1,2.1-2.3,3.4-2.9c0.2,0.8,0.4,1.5,0.2,2.4
	c-0.9,1.2-1.9,2.4-2.7,3.6c-1.8,2.4-3.6,4.8-4.4,7.6c1.6-2,3.8-3.7,5.9-5.3c1.8-1.4,3.8-2.6,5.3-4.5c0.4-1.3,0.2-2.7-0.1-4.1l0-0.1
	c0.2,0,0.4,0,0.6,0.1c1.4,1.5,1.9,3.3,1.9,5.3c0.4-1.7,0.7-3.5,0.8-5.2c-0.2-1.5-0.9-2.7-1.7-4c-0.9-0.4-2-0.4-3-0.6
	c-0.2-0.8-0.3-1.6,0-2.4c0.6-1.9,2.6-3.1,4.5-3.5c2.7-0.4,5.2,1.1,6.6,3.4c1.2,2.1,1.1,4.9,0.5,7.2c-1.1,3.5-4.2,6.2-7.1,8.4
	l-5.6,4.3c-3.1,2.6-7.3,5.4-7.8,9.7c-0.1,0.3,0,0.6-0.1,0.9c0,1.1,0.1,1.9,0.3,2.8c0.9,3.5,2.8,6.6,4.7,9.8c1.7,3.1,3.9,6.1,4.6,9.6
	c0,0.3,0.1,0.6,0.1,0.9c0,0.5,0.1,1.1-0.1,1.6c-0.3,2.2-2.3,3.8-4.2,4.6c-2.8,1.1-6.1,0.4-8-1.9c-1.7-2.2-2.8-4.5-4.1-6.9l-2.8-5.8
	c-1.1-2.3-1.8-4.9-3.8-6.9c0.1-6.5,0.2-12.5,0.4-19.1c0.4,0.1,0.8,0.4,1.3,0.5c0-1.8,1-3.4,1.8-4.9c2.9-4.5,5-9.4,4.9-15
	c0.6-0.9,1.7-1.4,1.5-2.6c0.1-0.6-0.6-0.8-1-1.1c-0.7-0.3-1.4,0.2-2,0.4C61.2,7.6,61,7.5,61,7.4c0.6-0.4,1.4-0.4,2.2-0.7
	c0.8-1.1,1.7-2.4,2.4-3.6c-0.3-0.1-0.5,0-0.8,0.1c-0.2,0-0.4,0.3-0.6,0.2c-0.1-0.3-0.4-0.7-0.8-0.7c-0.4,0-0.6,0.2-0.9,0.4
	c-0.1,0.2-0.1,0.4-0.1,0.7C62.5,4,62.7,4.2,63,4.3c0.1,0.1,0.4,0,0.5,0.1c0,0.1,0,0.1,0,0.2c-0.4,0.3-0.8,0.8-1.3,0.9
	c-0.9-0.1-1.9-0.3-2.7-0.7c-0.2-0.5-0.4-1-0.5-1.5C59,3.2,59,3.1,59.1,3c0.2,0.3,0.5,0.5,0.8,0.5c0.3-0.1,0.6-0.3,0.7-0.6
	c0.1-0.3,0.1-0.7-0.1-0.9c-0.2-0.4-0.6-0.3-1-0.3c-0.1,0,0-0.2-0.1-0.3c-0.1-0.4-0.5-0.7-0.9-0.8c-0.5,0-0.8,0.3-1.1,0.6
	c-0.2-0.1-0.4-0.3-0.7-0.3c-0.4,0-0.6,0.3-0.7,0.6c0,0.4,0.1,0.8,0.5,0.9c0.2,0.1,0.6,0.1,0.8,0c0.1,0.1,0.1,0.2,0.1,0.3
	c-0.4,0.4-0.7,0.9-1.2,1.2c-0.9,0-2-0.2-2.9-0.5c-0.4-0.4-0.4-0.9-0.5-1.4C53,2.1,53,2,53.1,2c0.2,0.1,0.4,0.1,0.7,0.1
	c0.2-0.2,0.5-0.3,0.6-0.6c0.1-0.3,0-0.6-0.1-0.8c-0.3-0.3-0.7-0.4-1.1-0.3c-0.2,0-0.3,0.3-0.5,0.3c-0.2-0.3-0.5-0.5-0.9-0.7
	c0,1.5,0.1,2.9,0.2,4.3c3,0.6,5.9,1.3,9,2l0.1,0.1c-0.3,0.1-0.5,0.2-0.8,0.3l-6-1.4l-2.3-0.5c-1.1,0.7-2.1,1.6-3,2.4
	c0,0.3,0,0.6,0.1,0.8l0.6-0.4c0.1,0.1,0.2,0.2,0.3,0.3c-0.3,0.3-0.6,0.5-0.8,0.7l0.1,0.7c0.5,0.7,0.9,1.4,1.4,2.1l-0.9,1.7
	c1.4,0.3,2.9,0.2,4.4,0.3l0.1,0c-0.1,0.4-0.2,0.8-0.3,1.2c-0.1,0.2-0.2,0.4-0.4,0.5c-1.5,0.3-3,0.5-4.5,0.8c-2.2,0.5-4,2-5.9,3.3
	c-1.8,1.4-4,2.8-5.2,4.9c-0.9,2.5-0.9,5.4-1.5,7.9c1,0.1,1.8-0.1,2.8-0.1v0l-3.2,5.2l-4.5,7.2l-0.8,1.2c-0.8-0.4-1.5-0.8-2.2-1.2
	c-0.1-1.4-0.1-3-0.1-4.5l-0.1-0.3c-0.4-0.8-0.8-1.7-1.6-2.2c0.1,0.5,0.4,1,0.3,1.6c-0.5,0.5-1,1.1-1,1.8l0.9,2.3
	c0.2,0.4-0.4,0.5-0.6,0.8c-0.7-0.4-1.4-0.8-2.1-1.3c0.1-4.6,0.1-9.7,0.2-14.3l0.1-5.7l0.1-0.8c0.2-0.2,0.4-0.4,0.6-0.6
	c0.5,0.3,1.1,0.5,1.6,0.9c-0.1,0.4-0.4,0.8-0.5,1.2c0.1,0.1,0.2,0.3,0.4,0.3c0.5,0,1-0.1,1.5,0l7.3,5.7l0.9,0.7
	c0.3-1.8,0.4-3.6,0.8-5.3c-2.4-1.3-4.8-2.4-7.2-3.7l-0.3-0.8c-0.4,0-0.8,0-1.2,0c-0.7-0.3-1.3-0.7-2-1.1V19c0.7-0.8,1.4-1.8,2-2.7
	l0.2-0.8c0-0.8,0.3-1.6,0-2.3c-0.2,0.5-0.4,1-0.8,1.4c-0.5,0.1-1,0.2-1.4,0.3c-0.4,0.9-0.7,1.8-1.2,2.6c-0.2,0.1-0.4,0-0.6,0
	c0-2.3,0.1-4.5,0.1-6.6c-0.5,0-1,0-1.5,0c0,1.9-0.1,3.8-0.1,5.7l-0.1,0c-0.9-0.8-2.2-0.9-3.4-0.9c-0.5,0.1-1.1,0.2-1.5,0.4l1.1,0.2
	c0.2,0.1,0.4,0,0.6,0.2c0.1,0.7,0.3,1.4,0.7,2c0.8,0.3,1.7,0.4,2.6,0.4c0,0.5,0.1,1-0.1,1.5c-1,0.5-2.2,0.8-3,1.6
	c-0.5,0.8-1.1,1.6-1.4,2.5c0.4-0.4,0.9-0.8,1.4-1c0.5,0.3,1,0.6,1.5,0.8l1.5-1l0.1,0c0,2.7-0.1,5.1-0.1,7.9l-0.1,7.7l0,3l0,0.1
	c-0.6,0.1-1.2,0-1.8,0c-0.6,0.1-1.1,0.3-1.6,0.5c0.5,0,1.1,0,1.6,0.2c0.4,0.7,0.6,1.5,0.9,2.2l0.8,0.2c0.1,0.3,0,0.6,0,0.8
	c-0.1,1,0,2-0.1,3c-0.6,0.8-1.5,1.5-1.6,2.4c0.3-0.2,0.5-0.4,0.8-0.6c0.3-0.1,0.6-0.3,0.8-0.3c-0.1,2.1-0.1,4-0.1,6l1.5,0l0.1-6.4
	c0.4,0.1,0.9,0.3,1.4,0.3c1.2-0.9,2-2.2,2.8-3.4c0.9,0.3,1.8,0.7,2.7,1.1c0.4,0.5,0.6,1.1,0.5,1.8l0,0l0.1-0.2l7.5-8.8l7.5-8.5
	l0.2-0.1c0.1,0.1,0.3,0.3,0.4,0.5l-0.6,0.7l-5.5,6.3l0,0.1c0.2,1,0.7,1.8,1,2.7c0.9,1.2,2.2,2.2,3,3.6c0.5,1.6,0.8,3.3,1.1,5
	c0.1,0.4,0.2,0.9,0,1.4c-2.6,1.1-5.3,2.1-7.7,3.6c-1.2,3.2-1.9,6.8-2.1,10.3c0.2,0.9,0.5,1.7,0.9,2.5l0,0c-2.4-0.2-4.8-0.4-7.3-0.7
	c-0.9-0.1-1.7-0.1-2.5-0.3c-0.2-1.1-0.5-2.2-0.8-3.2c0.7-0.8,1.4-1.6,2-2.5c0.4-1.1,0.5-2.5,0.1-3.6l-0.4,1.4l-0.1,0.1
	c-0.5,0-1.1,0.1-1.7,0.3c-0.3,1-0.1,2-0.4,3c-0.3,0.1-0.6,0.2-1,0.1c-0.5-1.1-1.3-2-2.1-2.9l-1.2-0.8c-0.5-0.3-1.1-0.3-1.7-0.3
	l-0.1,0c0.1,0.1,0.3,0.3,0.4,0.3c0.3,0.3,0.7,0.5,1,0.9c-0.4,0.4-0.6,0.9-0.6,1.4c1.1,0.6,2.3,0.9,3.3,1.5c-0.1,0.3-0.3,0.7-0.4,1
	c-1,0.1-2,0-2.9,0.2c-0.2,0.4-0.2,0.9-0.4,1.3c-0.4,0.2-0.9,0.2-1.3,0.3c0.9,0.3,1.7,0.5,2.7,0.5c0.9,0,1.7-0.7,2.6-0.8
	c0.6,0.9,1,1.9,1.4,2.8c0,0.8-0.8,1.2-1.3,1.8c0.8-0.3,1.6-0.1,2.4,0l6.5,1.6l2.8,0.6c0.5,0.5,1.1,1,1.7,1.4
	c0.6-0.1,1.2-0.4,1.8-0.6c0.5-0.3,1-0.4,1.5-0.8c0-0.5-0.1-1.1,0.1-1.6c0.7-1.3,1.6-2.6,2.4-3.8c-0.7-1.1-1.8-2.1-2-3.4
	c-0.3-1.9-0.6-3.9-0.5-5.9l0.5-0.8c2.1-2.6,5.3-4.3,6.7-7.5c0.1-0.3,0.2-0.6,0.3-0.9c0.2,0,0.4,0,0.6,0.1c-0.2,0.8-0.6,1.4-0.9,2.1
	c-1.7,2.8-4.8,4.5-6.6,7.2c-0.1,2,0,4.1,0.5,5.9c0.3,0.8,0.8,1.5,1.3,2.1l6.5,7.3c0.4,0.5,0.8,1,1.1,1.5c0.9,4.6,1.4,9.3,1.1,14.3
	l-0.1,0.2c-0.8,0.4-1.6,0.7-2.4,0.8L49.6,91c-0.7-1.1-1.2-2.3-1.9-3.4c-0.9-0.8-2-1.5-3.3-1.6c0.5,0.4,1.1,0.9,1.5,1.5
	c-0.1,0.8-0.5,1.5-0.3,2.4c0.9,0.7,2,1.1,3,1.6c0.1,0.3,0,0.6-0.1,0.9c-1.1,0.1-2.1,0.3-3.2,0.5c-0.9,0.5-1.6,1.4-2.1,2.2
	c0.5-0.2,1-0.5,1.5-0.6c0.5,0.5,1,1,1.8,1.1c0.8-0.6,1.5-1.4,2.2-2.1c0.4-0.1,0.7,0.3,0.8,0.6c-0.2,0.9-0.4,1.9-0.4,2.8
	c0.1,1.1,0.7,2,1.3,2.9c0-0.7-0.1-1.3,0-2c0.6-0.3,1.3-0.6,1.7-1.2c-0.2-0.9-0.6-1.6-0.8-2.5l0-0.3c0.9-0.7,1.7-1.4,2.7-1.8
	c0.9,0.1,1.6,0.9,2.3,1.4c-0.1-1.5-0.3-3-0.1-4.6c0.3-3.1,0.4-6.1,0.8-9.2c0.3-0.4,0.8-0.7,1-1.3c0.1-1,0.4-2,0.3-3
	c-0.6-0.7-1.2-1.5-1.5-2.5c-0.6-3.2-0.7-6.7-0.7-10.1c-0.2-3,0.1-6.5-0.9-9.2l0.3-0.7h0c0.2,0.3,0.3,0.7,0.4,1.1
	c0.6,2.3,0.6,4.5,0.7,6.9c1.5,2.4,3.1,4.7,4.7,7.1c1.2,1.9,3,3.7,5,4.6c2.7,1.3,6,1,8.6-0.3c3.1-1.4,4.8-4.6,5-7.8
	c0-4.7-2.3-8.5-3.3-12.9c-0.1-0.5-0.2-1.1-0.2-1.6c1.8-0.8,3.6-1.7,5.3-2.6c-1.3-0.3-2.5-0.6-3.7-0.8c-0.8-0.2-1.4,0.2-2.2,0.1
	c-0.1-0.5-0.2-1-0.1-1.5l8.4-4l-3.9-0.8l-0.5,0c-1.2,0.1-2.5,0.5-3.7,0.7c0-0.6,0.3-1.2,0.5-1.7l7.8-3.7l1.4-0.7
	c-1.5-0.3-2.9-0.7-4.4-0.8C80.4,34.4,79.5,34.6,78.7,34.7z M62.3,8.4l0.4-0.1c0.2,0.1,0.5,0.1,0.7,0.4c0.2,0.5-0.3,0.9-0.7,1.2
	c-0.1-0.2-0.1-0.5-0.2-0.8l-0.6-0.5C62,8.4,62.2,8.4,62.3,8.4z M26,46.7c-0.7,0.4-1.4,0.8-2.1,1.2c-0.1-0.8,0-1.6,0-2.5l0,0
	c0.7,0,1.3,0.1,1.9,0.2c0.1,0.3,0.1,0.7,0.1,1V46.7z M48,22.1l-4.8,0.7c-0.7,0.1-1,0.8-1.3,1.3l-2.3,3.7c-0.2,0-0.3-0.2-0.5-0.2
	l2.8-4.6c0.8-1.1,2.3-0.9,3.4-1.2c0.9-0.1,1.9-0.3,2.8-0.4C48.1,21.7,48.1,21.9,48,22.1z M52.1,5.8C54,6,55.8,6.6,57.8,7
	c0,0.2,0,0.4,0,0.6l-2.6-0.7C55.1,7.3,55,7.8,54.6,8c-0.5,0.1-1.1,0.2-1.6,0c-0.5-0.3-0.4-1-0.6-1.5c-0.4,0-0.8,0.3-1.2,0.5
	C51.1,6.9,51,6.8,51,6.6L52.1,5.8z M51.2,11.8l-0.5-1.7c0-0.1,0-0.1,0-0.2c1.5,0.1,3,0.2,4.5,0.3c0.2,0.6,0.3,1.2,0.4,1.8
	C54.2,11.9,52.7,11.9,51.2,11.8z"/>
<path d="M24.5,4.6l-1.5,0l0,0.1c0,0.4,0,0.8,0,1.3l1.6,0C24.5,5.5,24.6,5,24.5,4.6z"/>
<path d="M43.3,9.5C43.2,9.5,43.2,9.5,43.3,9.5C43.1,9.6,43,9.8,43,9.9c0.5,0.3,0.9,0.6,1.5,0.8l3.4,0.3c0.4,0,0.8,0.1,1.2,0.1
	l-0.4-0.6l-3.6-0.3c-0.6,0-1.1-0.3-1.7-0.6C43.5,9.5,43.4,9.5,43.3,9.5z"/>
<path d="M9.3,0.8c-0.1,1.1,0,2.3,0,3.4c0.3,4.1,1.6,7.9,3.4,11.4c0.5-0.4,0.9-0.9,1.3-1.4c1.8-1.7,3.4-3.6,5.8-3.9
	c1.8,0,3.8,0,5.7,0c0.1-1.2,0.1-2.6,0.1-3.7l0,0c-1.6-0.1-3.3-0.1-4.9-0.1C16.3,6.2,12.8,3.3,9.3,0.8z"/>
</svg>
