<?xml version="1.0" encoding="utf-8"?>
<!-- Generator: Adobe Illustrator 21.0.0, SVG Export Plug-In . SVG Version: 6.00 Build 0)  -->
<svg version="1.1" id="Layer_1" xmlns="http://www.w3.org/2000/svg" xmlns:xlink="http://www.w3.org/1999/xlink" x="0px" y="0px"
	 viewBox="0 0 100 100" style="enable-background:new 0 0 100 100;" xml:space="preserve">
<g>
	<path d="M28.8,84.1c-1.8,0.7-3.8,1-5.6,1.1c0-0.6,0.6-29.5-1.8-41.9c-2.4,12.4-1.8,41.3-1.8,41.9c-1.9-0.1-3.8-0.4-5.6-1.1
		c0,0,2.6,2,6.4,2.4v10.7c-0.3,0.3-0.5,0.6-0.5,1.1c0,0.8,0.7,1.5,1.5,1.5c0.8,0,1.5-0.7,1.5-1.5c0-0.4-0.2-0.8-0.5-1.1V86.5
		C26.2,86.1,28.8,84.1,28.8,84.1z"/>
	<path d="M48.5,8.8L48.5,8.8c0.3,0.1,0.6,0,0.8,0c0.4,0,0.8,0.1,1.2,0.1V4.7c0.9,0,1.9,0,2.8,0V2.8h-2.8c0-0.9,0-1.9,0-2.8
		c-0.7,0-1.4,0-2.1,0v2.8c-0.9,0.1-1.9,0-2.7,0c0,0.6,0,1.3,0,2h2.7V8.8z"/>
	<path d="M53.8,14.6c0.1-0.4,0.1-0.7,0.1-1.1h-3.8l0-3.4c0.1-0.3,0.3-0.5,0.4-0.8c-0.7-0.2-1.4-0.2-2.1,0c0.1,0.3,0.3,0.5,0.4,0.8
		v3.4h-3.7c0,0.4,0,0.8,0.1,1.1H53.8z"/>
	<path d="M48.6,13.2l0-2.9l-0.4-0.8c-0.1-0.2-0.2,0-0.3,0c-1.4,0.6-2.6,2.1-2.7,3.6C46.3,13.2,47.4,13.2,48.6,13.2z"/>
	<path d="M50.9,9.4l-0.5,0.8l0,3c1.1,0,2.3,0,3.5,0l-0.1-0.5C53.6,11.2,52.3,9.9,50.9,9.4z"/>
	<path d="M53.7,14.8L53.7,14.8h-8.4c0.1,0.7,0.6,1.3,1,1.8c1,1.2,2.6,1.6,4.1,1.3C51.9,17.6,53.4,16.4,53.7,14.8z"/>
	<path d="M35.4,24.5L35.4,24.5c0.7-0.4,1.5-0.3,2.3-0.3l-0.3-2.8c0-0.5-0.2-1.1,0-1.6c0.4-0.8,1.3-1.1,2.1-1.3
		c2.8-0.2,5.5,0.3,8.3,0.7c0-0.4,0-0.8,0-1.2c-2.3-0.5-4.7-0.8-7.1-0.9C39,17.2,37,17,35.5,18c-0.5,0.3-0.9,0.9-0.8,1.5
		C34.9,21.2,35.2,22.8,35.4,24.5z"/>
	<path d="M51.2,18.7c0,0.2-0.1,0.4,0,0.6c2.2-0.3,4.3-0.7,6.6-0.7c0.8,0,1.6,0,2.3,0.2c0.7,0.2,1.5,0.7,1.5,1.5
		c-0.1,1.4-0.3,2.7-0.4,4.1c0.6-0.1,1.3-0.1,1.8,0.1c0.2,0.1,0.3,0.2,0.5,0.2l0.7-4.8c0.1-0.7-0.1-1.3-0.6-1.7
		c-0.6-0.5-1.3-0.7-1.9-0.8c-0.3-0.1-0.6-0.1-0.9-0.1c-3.3-0.1-6.4,0.2-9.5,0.8C51.2,18.3,51.2,18.5,51.2,18.7z"/>
	<path d="M25.3,25L25.2,24c-0.2-0.9-0.4-1.9-0.4-2.9c0.1-0.7,0.8-1.2,1.4-1.4c1-0.3,2.2-0.5,3.3-0.5c1.7-0.1,3.3,0,4.9,0.1
		c0-0.5,0.2-0.9,0.5-1.3c-1.6-0.1-3.2-0.2-4.8-0.2c-2,0.1-4.1,0.2-5.9,0.9c-0.7,0.3-1.4,1-1.4,1.8c0.2,1.4,0.5,2.9,0.8,4.3
		C24.1,24.7,24.8,24.7,25.3,25z"/>
	<path d="M65.4,19.4c2.5-0.1,5-0.2,7.4,0.5c0.7,0.2,1.4,0.7,1.5,1.5c-0.1,1.3-0.4,2.5-0.6,3.8c0.5-0.2,1.3-0.3,1.9-0.2
		c0.2-1.1,0.5-2.1,0.7-3.2c0-0.4,0.2-0.8,0.1-1.3c-0.1-1-1.1-1.6-2-1.9l-1-0.3c-2.9-0.6-6.2-0.6-9.2-0.3c0.3,0.4,0.5,0.8,0.5,1.3
		L65.4,19.4z"/>
	<path d="M50.8,18.2c-0.9,0.2-1.8,0.2-2.7,0c0,1.9,0,3.8,0.2,5.7c0.7-0.2,1.6-0.2,2.3,0c0.1-1.4,0.2-2.8,0.2-4.2
		C50.8,19.2,50.9,18.7,50.8,18.2z"/>
	<path d="M25.2,38.1h48.6c0.3-1.9,0.7-3.8,1.1-5.7l1.1-4.1l0.8-2.6c-0.3-0.1-0.6-0.2-0.8-0.3c-0.9-0.2-2.1-0.3-2.6,0.6
		c-0.5,1,0.2,2.1,0.8,2.9c-0.2,0.2-0.4,0.4-0.6,0.6c-0.6-0.7-1.2-1.4-2-1.7c-0.6-0.2-1.3-0.2-1.7,0.4c-0.5,0.9-0.6,2.1-0.1,3
		c0.3,0.5,0.9,0.7,1.5,0.7c0.8-0.2,1.5-0.7,2.2-1.3h0.1c0.1,0.2,0.3,0.4,0.4,0.7c-0.5,0.9-1,1.8-1.6,2.7c-0.2,0.3-0.5,0.3-0.8,0.4
		c-1.7,0.4-3.7,0.4-5.4,0.2c-0.6-0.1-1.3-0.2-1.7-0.7c-0.7-1-1.3-2.1-1.8-3.2c0.1-0.2,0.3-0.5,0.5-0.7c0.1,0.1,0.1,0.2,0.2,0.3
		c0.7,0.7,1.4,1.8,2.6,1.4c0.7-0.3,1.2-1.1,1.2-1.9c0-0.8-0.2-1.6-0.9-2c-1.2-0.3-2,0.6-2.9,1.3H63l-0.3-0.8
		c0.7-0.7,1.4-1.6,1.2-2.6c-0.1-0.5-0.7-0.9-1.2-1.1c-0.8-0.1-1.9-0.2-2.4,0.6c-0.7,1.2,0.4,2.2,1,3.1L61,29.1l0,0
		c-0.7-0.6-1.4-1.4-2.3-1.6c-0.6,0-1.2,0.3-1.4,0.8c-0.3,0.9-0.3,2,0.1,2.8c0.2,0.3,0.6,0.6,0.9,0.6c1,0,1.8-0.8,2.5-1.6
		c0.2,0.2,0.3,0.5,0.5,0.7l-0.4,0.8c-0.5,0.9-0.8,1.8-1.4,2.5c-0.5,0.3-1.1,0.4-1.7,0.5c-1.1,0.1-2.3,0.1-3.4,0
		c-0.8-0.1-1.6-0.1-2.4-0.6c-0.9-1.1-1.4-2.4-2-3.6c0.2-0.2,0.3-0.5,0.5-0.7l0.2,0.2c0.8,0.7,1.6,1.8,2.7,1.5c0.6-0.3,1-1,1-1.6
		c0.1-1-0.1-2-1-2.5c-0.7-0.2-1.2,0.2-1.7,0.6c-0.4,0.3-0.7,0.6-1.1,0.9c-0.1-0.2-0.3-0.4-0.4-0.7c0.5-1,1.8-2,1.1-3.2
		c-0.2-0.3-0.5-0.5-0.8-0.7c-0.4-0.1-0.9-0.2-1.3-0.2c-0.6,0-1.1,0.2-1.5,0.7c-0.9,1.3,0.4,2.4,0.9,3.4c-0.1,0.2-0.2,0.5-0.4,0.7
		c-0.4-0.3-0.7-0.7-1.1-0.9c-0.5-0.4-1.2-0.8-1.8-0.5c-0.8,0.5-1,1.5-0.9,2.4c0.1,0.7,0.4,1.5,1.2,1.7c1.2,0.2,2-0.9,2.8-1.7
		c0.1,0.2,0.3,0.5,0.4,0.7l-1.1,2.2c-0.4,0.5-0.5,1.3-1.2,1.6c-1.9,0.5-4.2,0.5-6.1,0.2c-0.4-0.1-0.9-0.2-1.2-0.6
		c-0.6-1-1.1-2.1-1.6-3.1l0.4-0.7h0c0.7,0.9,1.7,1.9,2.9,1.5c0.7-0.3,0.8-1.1,0.9-1.7c0-0.9-0.1-1.9-0.9-2.2
		c-0.3-0.1-0.6-0.2-0.8-0.1c-0.8,0.3-1.4,1-2.1,1.6c-0.2-0.2-0.2-0.5-0.3-0.8c0.4-0.6,0.9-1.1,1.1-1.7c0.2-0.4,0.1-0.9-0.1-1.3
		c-0.2-0.4-0.6-0.6-1-0.7c-0.8-0.2-1.9-0.1-2.5,0.7c-0.6,1.1,0.3,2.2,1,3L35.9,29l0,0c-0.5-0.4-1.1-0.9-1.7-1.2
		c-0.4-0.2-1-0.3-1.4,0c-0.6,0.5-0.7,1.3-0.7,2c0,0.8,0.5,1.6,1.3,1.9c1.2,0.3,2-0.9,2.8-1.7c0.1,0.2,0.3,0.5,0.4,0.7l-0.9,1.6
		c-0.5,0.7-0.8,1.7-1.7,2c-1.9,0.5-4,0.5-5.8,0.1c-0.5-0.2-1.2-0.1-1.4-0.8c-0.5-0.8-1-1.7-1.5-2.6l0.4-0.7l0,0
		c0.4,0.4,1,0.8,1.5,1.1c0.5,0.3,1,0.4,1.5,0.1c0.6-0.2,0.9-0.9,0.9-1.4c0-0.8,0-1.9-0.7-2.4c-0.4-0.3-1-0.2-1.4-0.1
		c-0.8,0.4-1.4,1-1.9,1.7h0l-0.6-0.7c0.5-0.6,0.9-1.2,1-1.9c0.1-0.5-0.1-0.9-0.4-1.2c-0.9-0.8-2.2-0.5-3.2-0.1
		c1.1,3.7,2,7.6,2.7,11.5C25.1,37.3,25.1,37.7,25.2,38.1z"/>
	<path d="M52,46.4c0.1-0.1,0.1-0.3,0.1-0.4l-0.8-0.2c0,0-0.1,0-0.1,0c0,0.2,0,0.4,0.2,0.5C51.6,46.5,51.8,46.5,52,46.4z"/>
	<path d="M50.4,48.1L50.4,48.1l0.1,0.4c0.7,0,1.2,0.1,1.8,0.1c0-0.1,0-0.3-0.1-0.4L50.4,48.1z"/>
	<path d="M66.1,62.2c0.8-1.4,2-2.4,3.2-3.6c1.4-1.4,2.7-2.9,3.3-4.7c0.7-1.6,0.7-3.6,0.1-5.2c-0.4-1.3-1.7-2.4-2.9-2.8
		c-1.7-0.7-3.7-0.3-5,0.9c-1.1,1-1.6,2.4-1.4,3.8c-1,1.2-1.6,2.5-2,3.9c0.6-0.6,1.2-1.3,2-1.7c0.1,0.5,0.2,0.9,0.1,1.4
		c-0.5,0.7-1.1,1.4-1.6,2.1c-1,1.4-2.1,2.8-2.5,4.4c0.9-1.1,2.2-2.2,3.4-3.1c1-0.8,2.2-1.5,3.1-2.6c0.2-0.8,0.1-1.6,0-2.4l0-0.1
		c0.1,0,0.2,0,0.4,0c0.8,0.8,1.1,1.9,1.1,3.1c0.3-1,0.4-2,0.5-3c-0.1-0.9-0.5-1.6-1-2.3c-0.5-0.2-1.2-0.3-1.7-0.4
		c-0.1-0.4-0.1-0.9,0-1.4c0.4-1.1,1.5-1.8,2.6-2c1.6-0.3,3,0.6,3.8,2c0.7,1.2,0.6,2.9,0.3,4.2c-0.6,2-2.4,3.6-4.1,4.9l-3.2,2.5
		c-1.8,1.5-4.3,3.1-4.5,5.6c0,0.2,0,0.4,0,0.5c0,0.6,0.1,1.1,0.2,1.6c0.6,2,1.6,3.9,2.7,5.7c1,1.8,2.3,3.5,2.7,5.6
		c0,0.2,0,0.3,0.1,0.5c0,0.3,0,0.6,0,0.9c-0.2,1.3-1.3,2.2-2.4,2.7c-1.6,0.6-3.5,0.2-4.7-1.1c-1-1.2-1.6-2.6-2.4-4l-1.6-3.4
		c-0.7-1.3-1.1-2.8-2.2-4c0.1-3.8,0.1-7.3,0.2-11.1c0.2,0.1,0.5,0.2,0.7,0.3c0-1.1,0.6-1.9,1-2.8c1.7-2.6,2.9-5.5,2.8-8.7
		c0.4-0.5,1-0.8,0.9-1.5c0-0.4-0.4-0.4-0.6-0.6c-0.4-0.2-0.8,0.1-1.2,0.2c-0.1-0.1-0.2-0.1-0.2-0.2c0.4-0.2,0.8-0.3,1.2-0.4
		c0.5-0.7,1-1.4,1.4-2.1c-0.1,0-0.3,0-0.4,0c-0.1,0-0.2,0.1-0.3,0.1c-0.1-0.2-0.2-0.4-0.5-0.4c-0.2,0-0.3,0.1-0.5,0.3
		c0,0.1-0.1,0.3-0.1,0.4c0,0.1,0.2,0.3,0.3,0.3c0.1,0.1,0.2,0,0.3,0.1c0,0,0,0.1,0,0.1c-0.3,0.2-0.5,0.5-0.8,0.5
		c-0.5-0.1-1.1-0.1-1.6-0.4c-0.1-0.3-0.2-0.6-0.3-0.9c0,0,0.1-0.1,0.1-0.1c0.1,0.1,0.3,0.3,0.5,0.3c0.2-0.1,0.4-0.2,0.4-0.3
		c0.1-0.2,0.1-0.4-0.1-0.5c-0.1-0.2-0.4-0.1-0.6-0.2c0,0,0-0.1,0-0.1c0-0.2-0.3-0.4-0.5-0.4c-0.3,0-0.5,0.1-0.6,0.4
		c-0.1,0-0.3-0.2-0.4-0.1c-0.2,0-0.4,0.2-0.4,0.4c0,0.2,0.1,0.4,0.3,0.5c0.1,0.1,0.3,0,0.5,0c0.1,0,0,0.1,0,0.2
		c-0.2,0.2-0.4,0.5-0.7,0.7c-0.6,0-1.1-0.1-1.7-0.3c-0.2-0.2-0.2-0.5-0.3-0.8c0,0,0-0.1,0.1-0.1c0.1,0.1,0.3,0.1,0.4,0.1
		c0.1-0.1,0.3-0.2,0.3-0.4c0.1-0.2,0-0.3-0.1-0.5c-0.1-0.2-0.4-0.2-0.6-0.2c-0.1,0-0.2,0.2-0.3,0.2c-0.1-0.2-0.3-0.3-0.5-0.4
		c0,0.9,0.1,1.7,0.1,2.5c1.8,0.4,3.4,0.8,5.2,1.1l0.1,0.1c-0.2,0.1-0.3,0.1-0.5,0.2l-3.5-0.8l-1.3-0.3c-0.6,0.4-1.2,0.9-1.8,1.4
		c0,0.2,0,0.3,0,0.5l0.4-0.2c0.1,0,0.1,0.1,0.2,0.2c-0.1,0.1-0.3,0.3-0.5,0.4l0,0.4c0.3,0.4,0.5,0.8,0.8,1.2l-0.5,1
		c0.8,0.2,1.7,0.1,2.5,0.2l0.1,0c0,0.3-0.1,0.5-0.2,0.7c0,0.1-0.1,0.2-0.2,0.3c-0.9,0.2-1.8,0.3-2.6,0.5c-1.3,0.3-2.3,1.2-3.4,1.9
		c-1.1,0.8-2.3,1.7-3,2.8c-0.5,1.4-0.5,3.1-0.9,4.6c0.6,0.1,1-0.1,1.6-0.1v0l-1.9,3l-2.6,4.1l-0.5,0.7c-0.4-0.2-0.8-0.4-1.3-0.7
		c0-0.8-0.1-1.7-0.1-2.6l0-0.2c-0.2-0.5-0.5-1-0.9-1.3c0.1,0.3,0.2,0.6,0.2,0.9c-0.3,0.3-0.6,0.6-0.6,1.1l0.5,1.4
		c0.1,0.3-0.3,0.3-0.4,0.4c-0.4-0.2-0.8-0.5-1.2-0.8c0-2.7,0.1-5.6,0.1-8.3l0-3.3l0-0.5c0.1-0.1,0.2-0.2,0.3-0.3
		c0.3,0.2,0.7,0.3,0.9,0.5c0,0.2-0.2,0.5-0.3,0.7c0,0.1,0.1,0.1,0.2,0.2c0.3,0,0.6,0,0.8,0l4.2,3.3l0.5,0.4c0.1-1,0.2-2.1,0.4-3.1
		c-1.4-0.8-2.8-1.4-4.2-2.2l-0.2-0.5c-0.2,0-0.5,0-0.7,0c-0.4-0.2-0.8-0.4-1.1-0.6V53c0.4-0.5,0.8-1,1.2-1.5l0.1-0.4
		c0-0.5,0.2-0.9,0-1.4c-0.1,0.3-0.3,0.6-0.5,0.8c-0.3,0-0.6,0.1-0.8,0.2c-0.2,0.5-0.4,1-0.7,1.5c-0.1,0-0.3,0-0.3,0
		c0-1.3,0-2.6,0-3.9c-0.3,0-0.6,0-0.9,0c0,1.1-0.1,2.2-0.1,3.3l0,0c-0.5-0.5-1.3-0.5-2-0.5c-0.3,0.1-0.6,0.1-0.9,0.3l0.6,0.1
		c0.1,0,0.3,0,0.3,0.1c0.1,0.4,0.2,0.8,0.4,1.1c0.5,0.2,1,0.2,1.5,0.2c0,0.3,0.1,0.6,0,0.9c-0.6,0.3-1.2,0.5-1.8,0.9
		c-0.3,0.5-0.6,0.9-0.8,1.4c0.2-0.2,0.5-0.5,0.8-0.6c0.3,0.2,0.6,0.3,0.9,0.5l0.9-0.6l0.1,0c0,1.6,0,3-0.1,4.6l-0.1,4.5l0,1.7l0,0.1
		c-0.4,0-0.7,0-1.1,0c-0.3,0.1-0.6,0.2-0.9,0.3c0.3,0,0.6,0,0.9,0.1c0.2,0.4,0.3,0.9,0.5,1.3l0.5,0.1c0.1,0.1,0,0.3,0,0.5
		c0,0.6,0,1.2,0,1.7c-0.3,0.5-0.9,0.8-0.9,1.4c0.2-0.1,0.3-0.3,0.4-0.3c0.1-0.1,0.3-0.2,0.5-0.2c0,1.2,0,2.3-0.1,3.5l0.9,0l0.1-3.7
		c0.3,0.1,0.5,0.1,0.8,0.2c0.7-0.5,1.2-1.3,1.7-2c0.6,0.1,1.1,0.4,1.6,0.6c0.3,0.3,0.3,0.7,0.3,1l0,0l0.1-0.1l4.4-5.1l4.3-4.9
		l0.1-0.1c0.1,0.1,0.2,0.2,0.2,0.3l-0.3,0.4l-3.2,3.6l0,0.1c0.1,0.6,0.4,1,0.6,1.6c0.6,0.7,1.3,1.3,1.7,2.1c0.3,0.9,0.5,1.9,0.7,2.9
		c0,0.2,0.1,0.5,0,0.8c-1.5,0.6-3.1,1.2-4.4,2.1c-0.7,1.9-1.1,3.9-1.2,6c0.1,0.5,0.3,1,0.5,1.4l0,0c-1.4-0.1-2.8-0.3-4.2-0.4
		c-0.5,0-1-0.1-1.5-0.1c-0.1-0.6-0.3-1.2-0.5-1.8c0.4-0.5,0.8-0.9,1.2-1.4c0.2-0.7,0.3-1.4,0.1-2.1L36.8,77l-0.1,0.1
		c-0.3,0-0.6,0.1-1,0.2c-0.2,0.6-0.1,1.2-0.2,1.7c-0.2,0-0.4,0.1-0.6,0.1c-0.3-0.6-0.8-1.2-1.2-1.7l-0.7-0.5c-0.3-0.1-0.7-0.1-1-0.2
		l-0.1,0c0.1,0,0.2,0.1,0.3,0.2c0.2,0.2,0.4,0.3,0.6,0.5c-0.2,0.2-0.4,0.5-0.4,0.8c0.6,0.4,1.3,0.5,1.9,0.9
		c-0.1,0.2-0.1,0.4-0.3,0.6c-0.6,0-1.2,0-1.7,0.1c-0.1,0.2-0.1,0.5-0.3,0.8c-0.2,0.1-0.5,0.1-0.8,0.2c0.5,0.2,1,0.3,1.6,0.3
		c0.6,0,1-0.4,1.5-0.4c0.4,0.5,0.6,1.1,0.8,1.7c0,0.5-0.5,0.7-0.7,1c0.5-0.1,1-0.1,1.4,0l3.8,0.9l1.7,0.3c0.3,0.3,0.6,0.6,1,0.8
		c0.4-0.1,0.7-0.2,1-0.3c0.3-0.1,0.6-0.2,0.9-0.4c0-0.3,0-0.6,0.1-0.9c0.4-0.8,1-1.5,1.4-2.2c-0.4-0.6-1-1.2-1.2-2
		c-0.2-1.1-0.3-2.3-0.3-3.4l0.3-0.5c1.2-1.5,3.1-2.5,3.9-4.4c0.1-0.2,0.1-0.4,0.2-0.5c0.1,0,0.3,0,0.3,0.1c-0.1,0.4-0.3,0.8-0.5,1.2
		c-1,1.6-2.8,2.6-3.8,4.2c0,1.1,0,2.3,0.3,3.4c0.2,0.5,0.5,0.8,0.8,1.2l3.8,4.2c0.2,0.3,0.5,0.6,0.6,0.9c0.5,2.7,0.8,5.4,0.6,8.3
		l-0.1,0.1c-0.4,0.2-0.9,0.4-1.4,0.4l-0.1-0.1c-0.4-0.6-0.7-1.3-1.1-2c-0.6-0.5-1.2-0.9-1.9-0.9c0.3,0.2,0.6,0.5,0.9,0.9
		c-0.1,0.5-0.3,0.9-0.2,1.4c0.6,0.4,1.2,0.6,1.7,0.9c0,0.2,0,0.4-0.1,0.5c-0.6,0.1-1.2,0.2-1.8,0.3c-0.5,0.3-0.9,0.8-1.2,1.3
		c0.3-0.1,0.6-0.3,0.9-0.3c0.3,0.3,0.6,0.6,1,0.6c0.4-0.4,0.9-0.8,1.2-1.2c0.2,0,0.4,0.2,0.5,0.4c-0.1,0.5-0.2,1.1-0.3,1.6
		c0.1,0.6,0.4,1.2,0.7,1.7c0-0.4-0.1-0.8,0-1.2c0.4-0.2,0.7-0.3,1-0.7c-0.1-0.5-0.3-0.9-0.5-1.4l0-0.2c0.5-0.4,1-0.8,1.6-1.1
		c0.5,0.1,0.9,0.5,1.3,0.8c-0.1-0.9-0.1-1.7-0.1-2.7c0.2-1.8,0.3-3.5,0.5-5.4c0.2-0.3,0.5-0.4,0.6-0.7c0.1-0.6,0.2-1.1,0.2-1.7
		c-0.4-0.4-0.7-0.9-0.8-1.4c-0.4-1.9-0.4-3.9-0.4-5.8c-0.1-1.7,0.1-3.8-0.5-5.4l0.2-0.4h0c0.1,0.2,0.2,0.4,0.3,0.6
		c0.4,1.3,0.4,2.6,0.4,4c0.9,1.4,1.8,2.7,2.7,4.1c0.7,1.1,1.8,2.1,2.9,2.6c1.5,0.8,3.5,0.6,5-0.2c1.8-0.8,2.8-2.7,2.9-4.5
		c0-2.7-1.3-5-1.9-7.5c-0.1-0.3-0.1-0.6-0.1-0.9c1-0.5,2.1-1,3.1-1.5c-0.7-0.2-1.4-0.3-2.2-0.5c-0.5-0.1-0.8,0.1-1.2,0.1
		c0-0.3-0.1-0.6-0.1-0.8l4.9-2.3l-2.2-0.5l-0.3,0c-0.7,0.1-1.5,0.3-2.2,0.4c0-0.4,0.2-0.7,0.3-1l4.5-2.1l0.8-0.4
		c-0.8-0.2-1.7-0.4-2.6-0.5C67,62,66.6,62.1,66.1,62.2z M56.6,46.9l0.3-0.1c0.1,0,0.3,0.1,0.4,0.2c0.1,0.3-0.2,0.5-0.4,0.7
		c-0.1-0.1-0.1-0.3-0.1-0.5L56.4,47C56.4,46.9,56.5,46.9,56.6,46.9z M35.6,69.1c-0.4,0.2-0.8,0.5-1.2,0.7c0-0.5,0-0.9,0-1.4l0,0
		c0.4,0,0.7,0.1,1.1,0.1C35.5,68.7,35.5,68.9,35.6,69.1L35.6,69.1z M48.3,54.8l-2.8,0.4c-0.4,0.1-0.6,0.5-0.8,0.8l-1.4,2.2
		c-0.1,0-0.2-0.1-0.3-0.1l1.6-2.6c0.5-0.6,1.3-0.5,2-0.7c0.5-0.1,1.1-0.2,1.7-0.2C48.4,54.6,48.3,54.7,48.3,54.8z M50.6,45.4
		c1.1,0.1,2.2,0.5,3.3,0.7c0,0.1,0,0.2,0,0.3L52.5,46c-0.1,0.2-0.1,0.5-0.3,0.6c-0.3,0-0.6,0.1-0.9,0c-0.3-0.2-0.2-0.6-0.4-0.9
		c-0.2,0-0.5,0.2-0.7,0.3C50.1,46,50,46,50,45.9L50.6,45.4z M50.2,48.8l-0.3-1c0,0,0-0.1,0-0.1c0.8,0.1,1.7,0.1,2.6,0.2
		c0.1,0.3,0.2,0.7,0.2,1C51.9,48.9,51,48.9,50.2,48.8z"/>
	<path d="M34.7,44.7l-0.9,0l0,0c0,0.2,0,0.5,0,0.7l0.9,0C34.7,45.2,34.7,44.9,34.7,44.7z"/>
	<path d="M45.6,47.5C45.5,47.5,45.5,47.5,45.6,47.5c-0.1,0.1-0.1,0.2-0.1,0.3c0.3,0.2,0.5,0.4,0.8,0.4l2,0.2c0.2,0,0.5,0.1,0.7,0
		l-0.2-0.3l-2.1-0.2c-0.4,0-0.7-0.2-1-0.3C45.7,47.5,45.6,47.5,45.6,47.5z"/>
	<path d="M25.9,42.5c-0.1,0.6,0,1.3,0,2c0.2,2.4,0.9,4.6,2,6.6c0.3-0.3,0.5-0.5,0.8-0.8c1-1,1.9-2.1,3.3-2.3c1,0,2.2,0,3.3,0
		c0-0.7,0-1.5,0.1-2.2l0,0c-1,0-1.9,0-2.9-0.1C29.9,45.6,27.9,44,25.9,42.5z"/>
	<path d="M79.6,86.5c3.9-0.4,6.4-2.4,6.4-2.4c-1.8,0.7-3.8,1-5.6,1.1c0-0.6,0.6-29.5-1.8-41.9c-2.4,12.4-1.8,41.3-1.8,41.9
		c-1.9-0.1-3.8-0.4-5.6-1.1c0,0,2.6,2,6.4,2.4v10.7c-0.3,0.3-0.5,0.6-0.5,1.1c0,0.8,0.7,1.5,1.5,1.5s1.5-0.7,1.5-1.5
		c0-0.4-0.2-0.8-0.5-1.1V86.5z"/>
</g>
</svg>
