<?xml version="1.0" encoding="utf-8"?>
<!-- Generator: Adobe Illustrator 21.0.0, SVG Export Plug-In . SVG Version: 6.00 Build 0)  -->
<svg version="1.1" id="Layer_1" xmlns="http://www.w3.org/2000/svg" xmlns:xlink="http://www.w3.org/1999/xlink" x="0px" y="0px"
	 viewBox="0 0 100 100" style="enable-background:new 0 0 100 100;" xml:space="preserve">
<g>
	<path d="M29.9,16.4L29.9,16.4c-0.4,0-0.8,0.1-0.8,0.4c0,0.4,0.8,0.2,1.1,0.5c0.3,0.3,0,1.1,0.5,1.1c0.7,0,0.4-1.4,0.4-1.9
		C30.8,16.4,30.3,16.4,29.9,16.4z"/>
	<path d="M24.3,16.5c-0.2,0-0.7,0.1-0.8,0.3c-0.1,0.2-0.4,0.8,0,0.8c0.4,0,1.2,0,1.2-0.3C24.7,16.9,24.5,16.4,24.3,16.5z"/>
	<path d="M26,20.8c0.3,0.5,0.6,0.8,1,0.9c0.4,0.1,0.8,0,1.1-0.1c0.4-0.2,0.4-0.5,0.6-0.8C27.9,20.8,27,20.8,26,20.8z"/>
	<path d="M33.7,16.7c0-0.3-0.6-0.4-1.1-0.4c-0.3,0-0.6,0-0.8,0.1c0,0.5-0.3,1.9,0.4,1.9c0.4,0,0.2-0.8,0.5-1.1
		C32.9,17,33.7,17.2,33.7,16.7z"/>
	<path d="M90,0C62.3,0,37.7,0,10,0C9.5,46.7,21.9,79,50,100C78.1,79,90.5,46.7,90,0z M60.9,6.1L60.9,6.1L60.9,6.1
		C60.9,6.1,60.9,6.1,60.9,6.1L60,9.9c-1.3,0.8-2.6,1.8-3.9,2.9c-3.7,2.9-7.6,6.5-10.5,9.3c-0.9,0.8-1.1,2-1.2,3.1
		c-0.1,1.1,0,2.3,0.3,3.2c0.3,1.2,1.1,2.1,1.6,2.9c0.6,0.8,0.9,1.4,0.8,1.7c-0.3,2.2-1.5,5.2-2.7,7.8c-0.2,0.5-0.5,1.1-0.7,1.6
		c-0.5-0.1-0.9-0.2-1.4-0.2c1-2.8,2.9-6.3,2.9-9.1c0-2-2.6-3.4-2.6-4.5c0-2.8-0.1-6.1,1.6-8.5C49.8,12.3,57.4,7.5,60.9,6.1z
		 M30.8,61.9c-0.2-0.1-0.6-0.7-0.5-1.3c0.1-0.6,1.4-1.2,1.5-1.7c-0.8,0-1.6-0.1-2.3-0.2c-0.1,0.3-0.2,0.6,0,0.8
		c0.1,0.3,0.4,0.6,0.4,0.9c-0.1,0.5-0.7,1.1-0.9,1.5c-0.1,0.3,0.1,1.1,0.3,1.6c-0.6-0.2-0.7-0.3-0.9-1c-0.3-0.1-1-0.9-1-1.6
		c0-0.7,0.8-1.3,0.9-1.6c0.1-0.3,0.2-0.5,0.3-0.7c-0.4-0.1-0.8-0.2-1.2-0.3c-0.6-0.2-0.6,1-0.8,1.7c-0.3,0.7,0.3,0.7,0.3,1.4
		c0.1,1.3-0.4,1.3-1,1.7c-0.1,0.3-0.2,0.5,0.2,2c-1.6-0.7-1.1-1.5-1.3-2.3c-0.5-0.5-0.5-1.1-0.5-1.8c0-0.6,0.4-0.7,0.9-1.2
		c-0.4-2.8,1.2-3.2,2.2-3.2h0c0.1,0,0.3,0,0.4,0c0.7,0,1.5,0.8,3.1,0.7c1.2,0,1.8-0.4,2.6-0.7c0.7,0.5,1.6,0.9,2.6,1.4
		c-0.1,0.1-0.2,0.2-0.3,0.2c-0.5,0.3-1.3,0.4-1.8,0.5c-0.2,0-0.4,0.1-0.4,0.1c-0.3,0-0.6,0.8-0.7,1.1c-0.1,0.4,0.1,1.1,0,1.4
		c-0.2,0.4-0.8,0.4-1,0.7c-0.1,0.3,0,0.8,0.1,1.2C30.8,63.1,30.8,62.9,30.8,61.9z M75.5,57.3c-1.6,0.8-3.8,1.6-5.6,1.6
		c-4.9,0.2-9.6,0.2-15.2,0.2c-1.3,0-1.6-2.5-2.6-3.5c-0.2-0.2-0.7,0-0.7,0.2c0,0.1,0,0.2,0,0.3c0,0.1,0,0.2,0,0.3c0,0,0,0,0,0
		c0,0,0,0,0,0c0,0.1,0,0.1,0,0.2c0,0.1,0,0.1,0,0.2c0,0,0,0.1,0,0.1c0,0,0,0,0,0c0,0,0,0,0,0.1c0,0.1,0.1,0.2,0.1,0.2
		c0,0,0.1,0.1,0.1,0.1c0,0,0.1,0.1,0.1,0.1c0,0,0,0.1,0.1,0.1c0,0.1,0.1,0.1,0.1,0.2c0,0,0,0.1,0.1,0.1c0,0,0,0,0,0
		c0.1,0.2,0.2,0.3,0.4,0.5c0,0,0,0,0,0c0.1,0.1,0.2,0.2,0.3,0.3c0,0,0.1,0.1,0.1,0.1c0.1,0.1,0.1,0.1,0.2,0.2
		c0.1,0.1,0.1,0.1,0.2,0.2c0,0,0,0,0,0c0,0,0,0,0.1,0.1c0.1,0.1,0.2,0.2,0.2,0.3c0,0,0,0,0,0c0,0,0,0,0,0c0.2,0.3,0.4,0.7,0.4,1.1
		c0,0.9-0.6,1.7-1.7,1.7c-0.7,0-2.1-0.8-3.1-0.8c-2.9-0.2-4.1,0.1-7.2,0.4c-0.2,0-0.5,0-0.8,0c-0.3,0.2-0.5,0.4-0.5,0.7
		c0,0.7,0.7,1.1,0.7,1.7c0,0.9-1.2,1.3-1.2,2c0,0.5,0,0.6,0.6,1.5c-0.9-0.1-1.3-0.8-1.6-1.8c-0.4-0.4-0.5-0.7-0.6-1.7
		c0-0.6,0.7-1.4,0.8-1.8c0-0.1,0.1-0.3,0.1-0.6c-0.4,0-0.9,0-1.3,0c-0.2,0.4-0.5,0.9-0.5,1.3c-0.1,0.5,0.3,1.3,0.2,1.8
		c-0.1,0.5-0.8,0.7-1,1.1c-0.1,0.3,0.1,1,0.3,1.4c-0.9-0.3-1.2-0.7-1.3-1.6c-0.3-0.1-0.8-0.8-0.8-1.6c0-0.8,1.5-1.5,1.5-2.1
		c0-0.1,0-0.3,0.1-0.4c-0.4-0.1-0.7-0.1-0.9-0.2c-0.3-0.1-1.1,0.8-1.1,1.4c0,0.4,0.2,1-0.1,1.3c-0.3,0.6-1.3,0.9-1.6,1.4
		c-0.2,0.3-0.3,0.7-0.1,1.3c-0.2,0.1-0.8-0.2-0.8-1.2c-0.3-0.4-0.9-1.5-0.4-2.4c0.4-0.7,1.5-1,1.6-1.8c0.1-1.2,1.3-2,2.4-2
		c1.2,0.1,0.2,0.7,2.4,0.7c2.6,0,6.9-0.3,9.5-0.9c0,0,0,0,0.1,0c0.2,0,0.4-0.1,0.6-0.1c0.1,0,0.2-0.2,0.2-0.4c0-0.1,0-0.1,0-0.2
		c0-0.1,0-0.1,0-0.2c0-0.1,0-0.1-0.1-0.2c0-0.1-0.1-0.2-0.2-0.2c-0.9-0.4-1.6-1.5-2.3-2.3c-0.1-0.2-0.8,0-0.7,0.1
		c0.2,0.6,2.2,2.4,1.7,2.6c-1.5,0.6-5.4,0.7-7.6,0c-7.6-2.6-8.9-5.1-11.8-9c-2.5-3.5-4.4-9.2-4.4-13.3c0-8,6.8-9.6,10.3-14.3
		c0.1-0.2,0.2-0.6,0.1-0.7c-0.1-0.2-0.6-0.4-0.7-0.3c-0.4,0.4-0.4,1.5-1.1,1.7c-0.2,0.1-3.1,0.2-3.2,0.2c-1.6,0-2.9,1.1-3.6,1.1
		c-1.3,0-2.8-1.6-3.5-3c0-0.1,0-0.2,0.1-0.3c0.1-0.1,0.4-0.1,0.5,0.1c0.2,0.3,0.5,0.6,0.8,0.6c0.7,0,1,0,2,0c0.4,0,0.8-0.6,1.2-1
		c-0.7,0-1.4,0-1.9,0c-1.8,0-3.5,0-3.9,0c-0.4,0-0.8-0.2-1.1-0.5c-0.3-0.3-0.5-0.7-0.7-1.1c-0.3-0.8-0.5-1.6-0.5-1.6
		c0-0.1,0-0.1,0-0.2c0-0.1,0.1-0.1,0.1-0.1c0.1,0,0.1,0,0.2,0c0.1,0,0.1,0.1,0.1,0.2c0,0,0.1,0.7,0.5,1.5c0.2,0.4,0.4,0.7,0.6,1
		c0.2,0.2,0.5,0.4,0.7,0.4c0.4,0,2.1,0,3.9,0c2.5,0,6.2,0,7.2,0c0-0.2,0-0.5-0.1-0.7c-0.2-0.4-0.8-0.5-1-0.3
		c-0.2,0.2-0.2,0.5-0.6,0.8c-0.3-0.3,0-0.9-0.5-1c-0.2,0-0.8-0.1-1.2,0.1c-0.4,0.2-0.2,0.4-0.6,0.8c-0.3-0.4-0.4-0.6-0.7-0.8
		c-0.3-0.3-1.1-0.4-1.4-0.1c-0.2,0.2-0.1,0.6-0.5,1c-0.6-0.4-0.4-1.2-1.2-1.2c-0.4,0-0.9-0.1-1.2,0.2c-0.3,0.3-0.1,0.6-0.3,0.9
		c-0.1,0.1-0.7,0.1-0.7-0.3c0.2-2.7,1.8-2.5,1.8-3.7c0-0.4-0.9-1.1-1-1.5c-0.1-0.3,0.3-0.6,0.7-0.6c0.5,0,0.8,1.4,1.5,1.3
		c1.7-0.1,3.2,0,4.7,0c0.6,0,0.5-1.1,1.7-1.1c1.1,0,1.1,0.8,1.6,0.9c0.8,0.2,1.9-0.2,2.3-0.7c0.3-0.4-1-0.8-1-2.1
		c0-1.2,1-3.5,2.2-3.8c1.9-0.6,1.7-3.4,2-4.1c0,0,0-0.1,0-0.1h0c0.2-0.1,1,2,0.9,2.9c-0.3,2.6-2.9,5-2.4,7.5c0.1,0.3,0.9,0.5,1.1,0
		c0.4-1-0.1-2.4,0.4-3.5C38.5,9.6,40,9,40.4,8.4c0.7-1,0.8-2.4,2.8-2.6c-0.1,0.8-1,1.3-1.2,2.1c-0.6,1.9-0.4,5.2-0.8,5.9
		c-1.3,2.4-2.1,1.6-2.1,2.9c0,1.1,1.2,3.5,0.7,4.5c-2.4,4.7-9.3,9.2-9.1,12.4c0.2,3.6,3.4,9.8,5.6,11.4c0.8,0.6,2.9-2.2,6.1-2.7
		c0.5-0.1,0.9,0.1,1.3,0.1l-0.3,2c0,0.2,0.4,0.2,0.5,0c1.3-2.9,3.9-8,4.4-11.6c0.2-1.7-2.1-3.2-2.5-5c-0.4-1.5-0.4-4.3,0.7-5.3
		c5.8-5.5,15.4-14.3,19.9-14.4l-2.8,5.6c-3.4,1.3-8.7,5.2-11.9,8.3c-0.2,0.2,0.4,1,0.6,0.8c3.3-3.1,8.8-6.8,12.9-7.7L65,17.7
		c-3.1,2.5-7.8,4.9-11.3,8.7c-0.2,0.2,0.4,1,0.7,0.8c2.5-1.8,4.8-4.7,7.6-4.4l-0.6,3c-1.5,1.5-5.5,3.4-5.7,3.8
		c0,0.1,0.2,0.5,0.8,0.3c1.4-0.5,2.3-1.8,4-1.7l-0.2,2.1c-0.7,1.5-3.1,2.5-3.8,3.7c-0.2,0.3,0.3,0.8,0.6,0.8
		c0.7,0.1,2.3-0.9,2.3-0.5c0,0.8-1.8,2.6-2.1,4c-0.2,0.8,1.1,1.9,0.6,2.4c-0.5,0.6-3.3,2.1-2,2.2c5.2,0.1,10.2,7.7,14,7.7
		c2,0,4.7-2.6,4.7-5.4c0-6.7-9.5-13.2-9.5-21.3c0-5,4.3-8.6,7.7-11.5c2.4-2,4.3-4.1,4.3-4.9c0-0.8-1.4-1.7-0.8-2.4
		c0.7-0.6,2.6,1.6,2.6,2.7c0,3.4-10,10.3-10,15.9c0,7.7,11.8,11.9,11.8,23.5C81.1,50.7,78.8,55.7,75.5,57.3z"/>
	<path d="M29.6,21.3c0.2,0.1,0.8,0.2,1,0c0.2-0.2,0.4-0.4,0.5-0.6c-0.5,0-1.2,0-2.3,0C29.3,21.2,29.3,21.2,29.6,21.3z"/>
</g>
</svg>
