<?xml version="1.0" encoding="utf-8"?>
<!-- Generator: Adobe Illustrator 21.0.0, SVG Export Plug-In . SVG Version: 6.00 Build 0)  -->
<svg version="1.1" id="Layer_1" xmlns="http://www.w3.org/2000/svg" xmlns:xlink="http://www.w3.org/1999/xlink" x="0px" y="0px"
	 viewBox="0 0 100 100" style="enable-background:new 0 0 100 100;" xml:space="preserve">
<path d="M84.2,26.9c-8.3,0-15.2,6.5-15.7,14.7c-0.5,0-0.9-0.1-1.4-0.1c-0.5,0-0.9,0-1.4,0.1c-0.2-3-1.3-5.9-3.1-8.4l0,0
	c-2.9-3.8-7.5-6.3-12.6-6.3c-8.3,0-15.2,6.5-15.7,14.7c-0.4,0-0.9-0.1-1.4-0.1c-0.5,0-0.9,0-1.4,0.1c-0.2-3-1.3-5.9-3.1-8.4l0,0
	c-2.9-3.8-7.5-6.3-12.6-6.3C7.1,26.9,0,34,0,42.7c0,8.7,7.1,15.8,15.8,15.8c0.5,0,0.9,0,1.4-0.1c0.6,8.2,7.4,14.7,15.7,14.7
	c8.3,0,15.2-6.5,15.7-14.7c0.4,0,0.9,0.1,1.4,0.1c0.5,0,0.9,0,1.4-0.1c0.6,8.2,7.4,14.7,15.7,14.7c8.3,0,15.2-6.5,15.7-14.7
	c0.5,0,0.9,0.1,1.4,0.1c8.7,0,15.8-7.1,15.8-15.8C100,34,92.9,26.9,84.2,26.9z M76.4,53.1L76.4,53.1c-2.6-1.9-4.4-4.8-5-8
	c4.3,1.5,7.6,5.3,8.5,9.9C78.6,54.5,77.5,53.9,76.4,53.1z M61.5,48.7c-0.1,0.1-0.1,0.2-0.2,0.3c0,0.1-0.1,0.2-0.1,0.2
	c0,0.1-0.1,0.1-0.1,0.2c-0.1,0.1-0.2,0.3-0.3,0.4c0,0,0,0.1-0.1,0.1c-1.6,2.3-3.8,4.1-6.5,5c0.8-4.6,4.1-8.4,8.5-9.9
	C62.5,46.3,62.1,47.5,61.5,48.7C61.5,48.7,61.5,48.7,61.5,48.7z M50,29.7c5.4,0,10,3.3,12,7.9c0.6,1.4,0.9,2.9,1,4.5
	c-6.2,1.7-10.9,7-11.6,13.6c-0.5,0-0.9,0.1-1.4,0.1c0,0,0,0,0,0l0,0c0,0,0,0,0,0c-0.5,0-0.9,0-1.4-0.1c-0.7-6.5-5.4-11.9-11.6-13.5
	C37.3,35.2,43,29.7,50,29.7z M37.2,45c4.3,1.5,7.6,5.3,8.5,9.9c-1.2-0.4-2.4-1.1-3.5-1.9l0,0C39.6,51.2,37.8,48.3,37.2,45z
	 M27.3,48.7c-0.1,0.1-0.1,0.2-0.2,0.3c0,0.1-0.1,0.2-0.1,0.2c0,0.1-0.1,0.1-0.1,0.2c-0.1,0.1-0.2,0.3-0.3,0.4c0,0,0,0,0,0.1
	c-1.5,2.3-3.8,4-6.4,5c0.8-4.6,4.1-8.4,8.4-9.9C28.3,46.3,27.9,47.5,27.3,48.7C27.3,48.7,27.3,48.7,27.3,48.7z M2.8,42.7
	c0-7.2,5.8-13,13-13c5.4,0,10,3.3,12,7.9c0.6,1.4,0.9,2.9,1,4.5c-6.2,1.7-10.9,7-11.6,13.5c-0.5,0.1-0.9,0.1-1.4,0.1
	C8.6,55.7,2.8,49.9,2.8,42.7z M32.9,70.3c-7,0-12.7-5.5-13-12.4c3.4-0.9,6.4-3,8.5-5.8l0,0c0.1-0.1,0.1-0.2,0.2-0.3c0,0,0,0,0,0
	c0.2-0.3,0.4-0.6,0.6-0.9c0,0,0,0,0,0c1-1.7,1.7-3.5,2-5.4c0,0,0,0,0,0c0.1-0.4,0.1-0.7,0.2-1.1c0.5-0.1,0.9-0.1,1.4-0.1
	c0.5,0,0.9,0,1.4,0.1c0.5,4.5,2.8,8.4,6.2,10.9l0,0c0,0,0,0,0,0c1.6,1.2,3.4,2.1,5.4,2.6C45.6,64.8,39.9,70.3,32.9,70.3z M67.1,70.3
	c-7,0-12.7-5.5-13-12.4c3.4-0.9,6.4-3,8.5-5.8l0,0c0.1-0.1,0.1-0.2,0.2-0.3c0,0,0,0,0,0c1.6-2.2,2.5-4.8,2.8-7.4
	c0.5,0,0.9-0.1,1.4-0.1c0.5,0,1,0,1.4,0.1c0.5,4.5,2.8,8.4,6.2,10.9l0,0c0,0,0,0,0,0c1.6,1.2,3.4,2.1,5.3,2.6
	C79.8,64.8,74.1,70.3,67.1,70.3z M84.2,55.7C84.2,55.7,84.2,55.7,84.2,55.7L84.2,55.7C84.2,55.7,84.2,55.7,84.2,55.7
	c-0.5,0-1,0-1.4-0.1c-0.7-6.5-5.4-11.9-11.6-13.5c0.3-6.9,6-12.4,13-12.4c7.2,0,13,5.8,13,13S91.4,55.7,84.2,55.7z"/>
</svg>
