<?xml version="1.0" encoding="utf-8"?>
<!-- Generator: Adobe Illustrator 21.0.0, SVG Export Plug-In . SVG Version: 6.00 Build 0)  -->
<svg version="1.1" id="Layer_1" xmlns="http://www.w3.org/2000/svg" xmlns:xlink="http://www.w3.org/1999/xlink" x="0px" y="0px"
	 viewBox="0 0 100 100" style="enable-background:new 0 0 100 100;" xml:space="preserve">
<path d="M25,98.8C14,94.9,6,85.1,2.8,71.7C1.4,65.6,1,55.6,2.2,55.6c0.4,0,1.5,2.8,2.3,6.1c2,7.4,5.3,14.3,8.5,17.7
	c5.4,5.6,18.6,7.8,26.3,4.4c6-2.7,8.4-9.1,5.8-15.4c-2-4.8-6.5-6.5-15-5.3c0,0-5.2-5.6-6.8-15.5l5.3,0.5c6.4,0.6,11.2-0.8,13.7-4
	c2.4-3,2.3-4.2-0.3-7.2c-3.8-4.4-10.6-3.3-24.3,4l-6.9-11.6l2.9-2.2c7.3-5.6,20-8.3,27.2-6c6.6,2.2,11.4,10.8,10.1,18
	c-0.9,4.9-4.8,11.8-7.8,13.7l-2.6,1.7L44,56c6.1,2.8,9.9,0.7,14.4-8.1C64.6,35.7,68.7,32.6,78,32.5c4.4,0,5.9,0.5,9.1,2.7
	c7.9,5.6,12.3,17.1,11.3,30.1c-1.2,16.5-9,26.6-20.7,26.6c-6.4,0-10.6-2.3-13.9-7.5c-2.9-4.6-4.2-13.9-2.5-17.9c0.8-1.9,0.9-2,1-0.5
	c0.1,2.9,3.3,7.5,6.3,9c7.3,3.8,17.8-1,22-10c3.2-6.8,1.5-20-2.9-22.3c-0.9-0.5-3.1-0.9-5-0.9c-3.9,0-7,2.8-11.2,10.3
	c-1.5,2.6-4,5.9-5.5,7.4c-2.5,2.4-3.5,2.7-8.5,2.7h-5.7l1.8,4.1c2.6,5.9,2.5,15.4-0.3,21.2c-2.5,5.1-8.2,10.3-12.7,11.6
	C36.1,100.4,28.9,100.2,25,98.8z M46.4,19.7C43.9,15.4,42.3,7.4,44,7.4c2,4.3,6.1,8.1,10.4,10.8c7.8,3.8,15.8,2.3,24.4-4.7
	c1.9-1.5,3.6-2.6,3.8-2.4c2.1,3.3,5.8,6,7,9.8c0,1.6-6.9,6.2-12.4,8.3C63.6,33.1,54.4,31.5,46.4,19.7z M53.2,9.8L62.1,0l9.8,9.1
	c-3.4,2.8-5.8,7-9.6,9.2C59.2,16.1,54.7,13.4,53.2,9.8z"/>
</svg>
