<?xml version="1.0" encoding="utf-8"?>
<!-- Generator: Adobe Illustrator 21.0.0, SVG Export Plug-In . SVG Version: 6.00 Build 0)  -->
<svg version="1.1" id="Layer_1" xmlns="http://www.w3.org/2000/svg" xmlns:xlink="http://www.w3.org/1999/xlink" x="0px" y="0px"
	 viewBox="0 0 100 100" enable-background="new 0 0 100 100" xml:space="preserve">
<path d="M44.2,5.8c0-1.5,0.6-3,1.7-4.1C47,0.6,48.5,0,50,0c1.5,0,3,0.6,4.1,1.7s1.7,2.6,1.7,4.1c1.5,0,3,0.6,4.1,1.7
	c1.1,1.1,1.7,2.6,1.7,4.1s-0.6,3-1.7,4.1c-1.1,1.1-2.6,1.7-4.1,1.7v14.2H70c0-1.5,0.6-3,1.7-4.1c1.1-1.1,2.6-1.7,4.1-1.7
	c1.5,0,3,0.6,4.1,1.7c1.1,1.1,1.7,2.6,1.7,4.1c1.5,0,3,0.6,4.1,1.7c1.1,1.1,1.7,2.6,1.7,4.1c0,1.5-0.6,3-1.7,4.1
	c-1.1,1.1-2.6,1.7-4.1,1.7c0,1.5-0.6,3-1.7,4.1c-1.1,1.1-2.6,1.7-4.1,1.7c-1.5,0-3-0.6-4.1-1.7c-1.1-1.1-1.7-2.6-1.7-4.1H55.8v39.2
	c1.5,0,3,0.6,4.1,1.7c1.1,1.1,1.7,2.6,1.7,4.1s-0.6,3-1.7,4.1c-1.1,1.1-2.6,1.7-4.1,1.7c0,1.5-0.6,3-1.7,4.1S51.5,100,50,100
	c-1.5,0-3-0.6-4.1-1.7c-1.1-1.1-1.7-2.6-1.7-4.1c-1.5,0-3-0.6-4.1-1.7c-1.1-1.1-1.7-2.6-1.7-4.1s0.6-3,1.7-4.1
	c1.1-1.1,2.6-1.7,4.1-1.7V43.3H30c0,1.5-0.6,3-1.7,4.1c-1.1,1.1-2.6,1.7-4.1,1.7c-1.5,0-3-0.6-4.1-1.7c-1.1-1.1-1.7-2.6-1.7-4.1
	c-1.5,0-3-0.6-4.1-1.7c-1.1-1.1-1.7-2.6-1.7-4.1c0-1.5,0.6-3,1.7-4.1c1.1-1.1,2.6-1.7,4.1-1.7c0-1.5,0.6-3,1.7-4.1
	c1.1-1.1,2.6-1.7,4.1-1.7c1.5,0,3,0.6,4.1,1.7c1.1,1.1,1.7,2.6,1.7,4.1h14.2V17.5c-1.5,0-3-0.6-4.1-1.7s-1.7-2.6-1.7-4.1
	s0.6-3,1.7-4.1S42.6,5.8,44.2,5.8z"/>
</svg>
