<?xml version="1.0" encoding="utf-8"?>
<!-- Generator: Adobe Illustrator 21.0.0, SVG Export Plug-In . SVG Version: 6.00 Build 0)  -->
<svg version="1.1" id="Layer_1" xmlns="http://www.w3.org/2000/svg" xmlns:xlink="http://www.w3.org/1999/xlink" x="0px" y="0px"
	 viewBox="0 0 100 100" style="enable-background:new 0 0 100 100;" xml:space="preserve">
<path d="M50,2.4c0.1,0.3,0.2,0.6,0.3,1c3.8,11.7,7.5,23.4,11.3,35c0.1,0.3,0.2,0.3,0.5,0.3c4.3,0,8.6,0,12.9,0
	c8.2,0,16.4,0,24.6-0.1c0.1,0,0.2,0,0.5,0c-0.1,0.1-0.2,0.2-0.3,0.2c-10.1,7.3-20.2,14.6-30.3,21.9c-0.3,0.2-0.3,0.4-0.2,0.7
	c3.9,11.8,7.7,23.7,11.6,35.5c0,0.1,0.1,0.2,0.1,0.4c-0.4-0.3-0.7-0.5-1-0.7c-9.8-7.2-19.7-14.4-29.5-21.6c-0.3-0.2-0.5-0.2-0.8,0
	c-10,7.3-20.1,14.7-30.2,22c-0.1,0.1-0.2,0.1-0.3,0.2c0.1-0.2,0.1-0.3,0.1-0.5c3.5-10.6,6.9-21.2,10.4-31.9c0.4-1.3,0.8-2.5,1.2-3.8
	c0.1-0.2,0-0.3-0.2-0.5C20.6,53.7,10.6,46.4,0.5,39.1C0.3,39,0.2,38.9,0,38.7c0.2,0,0.3,0,0.4,0c8,0,16,0,24,0c4.5,0,9,0,13.4,0
	c0.3,0,0.5-0.1,0.6-0.4C42.2,26.5,46,14.7,49.8,2.9C49.9,2.7,49.9,2.6,50,2.4C50,2.4,50,2.4,50,2.4z M55.7,64.3
	c-0.8,0.6-3.5,1.5-5.2,1.6c-4.2,0.2-7.5-1.4-10.4-4.3c-2.8,2.7-5.6,5.3-8.5,7.9c1.3,1.2,2.5,2.5,3.8,3.7c2.4-2.4,4.7-4.7,7-7
	c0.1,0.1,0.2,0.1,0.2,0.2c0.9,0.8,1.8,1.6,2.8,2.2c3,1.8,6.2,2.5,9.6,2.1c1.8-0.2,3.4-0.7,5-1.6c0.2-0.1,0.3,0,0.4,0.1
	c1.4,1.5,2.9,2.9,4.3,4.4c0.1,0.1,0.2,0.2,0.3,0.2c1.1-1,2.2-2,3.3-3c-0.1-0.1-0.2-0.2-0.3-0.2c-1.5-1.4-3-2.9-4.5-4.3
	c-0.2-0.2-0.2-0.3-0.1-0.5c0.7-1.1,1.4-2.2,1.9-3.4c1.3-2.9,1.7-5.9,1-9c-0.6-2.6-1.8-4.8-3.3-6.9c-2.1-2.8-4.7-5.2-7.4-7.3
	c-0.9-0.7-1.8-1.3-2.7-2c0,0.1,0.1,0.2,0.2,0.3c1.7,1.9,3.3,3.8,4.8,5.9c1.5,2.1,2.9,4.4,3.7,6.8c0.6,1.9,0.9,3.8,0.6,5.8
	c-0.3,2.1-1.3,3.9-2.7,5.5c-0.2,0.2-0.3,0.4-0.5,0.6c-4.7-4.5-9.3-8.9-14-13.3c1.6-1.5,3.2-2.9,4.9-4.4c-0.2-0.1-0.3-0.1-0.4-0.1
	c-2.1-0.6-4.2-1.1-6.3-1.7c-0.2-0.1-0.4,0-0.6,0.1c-2.6,2.5-5.1,5.1-7.7,7.6c-0.1,0.1-0.2,0.2-0.3,0.3c1.4,1.4,2.9,2.8,4.3,4.2
	c1.2-1.2,2.3-2.3,3.4-3.5C47,55.5,51.4,59.9,55.7,64.3z"/>
</svg>
