<?xml version="1.0" encoding="utf-8"?>
<!-- Generator: Adobe Illustrator 21.0.0, SVG Export Plug-In . SVG Version: 6.00 Build 0)  -->
<svg version="1.1" id="Layer_1" xmlns="http://www.w3.org/2000/svg" xmlns:xlink="http://www.w3.org/1999/xlink" x="0px" y="0px"
	 viewBox="0 0 100 100" style="enable-background:new 0 0 100 100;" xml:space="preserve">
<path id="path3065" d="M36.5,35.7c0.7-2,0-5.4,0.2-7.6c0.2-1.3,1.1-2.6,1.7-3.9c0.4-1.3,1.1-3,2.6-3.5C40.7,22,40.5,22,40,23.1
	l-0.7,2.4c-0.4,1.1-1.1,1.5-1.3,2.6c-0.4,1.5-0.2,5.2-0.2,6.9c0,0.4,0,1.1-0.4,1.5c-0.7,0.9-2.6,0.2-2.4,2.4c0,0.2,0,0.7,0.2,0.9
	c0.9,2,4.3,2.6,6.1,3.5c1.7,1.1,1.3,2.2,3,3.3c1.7,1.3,6.3,1.3,8.5,1.1c0.7-0.2,1.7-0.2,2.4-0.7c1.7-0.7,2-2.4,3.7-3.5
	c1.3-0.7,4.1-1.1,5.4-3c0.2-0.2,0.4-0.7,0.4-0.9c0.7-2.4-2.2-1.5-2.8-3c-0.4-1.1,0.2-4.6,0.4-5.6l0.7,0.7v2l0.2,2.2
	c2.4-0.4,2.2-3.3,2.4-5.2c0.4-5.2,0.4-8.5-3.3-12.6c-2.2-2.2-5-3.9-8-4.3h-2l-1.5-0.2l-1.7,0.2c-2.8,0.2-4.8,0.2-7.2,1.5
	c-1.7,0.9-2.8,2-4.1,3.5c-3.3,3.5-3.9,7.8-3.3,12.4C34.8,32.6,35.2,34.6,36.5,35.7z M43.7,29.2c3-0.2,5.2,2,4.1,5
	c-0.9,2-2.8,3.5-5,3.9c-2,0.2-2.8-1.1-2.8-2.8C40,32.4,40.5,30,43.7,29.2z M55.9,29.2c2.6,0,3.9,2.2,4.1,4.6c0,0.7,0.2,1.3,0.2,1.7
	c-0.2,1.5-1.7,2.6-3.3,2.8c-2.4,0-5.2-3.7-5-5.9C52.4,30.5,54.1,29.6,55.9,29.2z M52,42.4L49.6,42l-2,0.7c-0.2-1.5,0.4-3.7,1.1-5.2
	c0.2-0.4,0.7-1.3,1.1-1.5c0.9-0.2,1.1,0.9,1.1,1.3C51.3,38.9,52,40.7,52,42.4z"/>
<path id="path3067" d="M60.4,45.9c-0.7,0.2-1.5,0.2-2.2,0.7c-2.2,1.5-1.1,5.2-3,7.6c-0.9,1.1-2.8,1.5-4.3,1.5c-2.8,0-6.3-0.2-7.6-3
	c-1.1-2,0.4-3.9-2-6.3c-0.4-0.2-1.1-0.9-1.5-0.9c-0.7,0-0.4,0.9-0.4,1.3l0.2,4.3c0,3.3,0.9,3.3,2.4,5.2c0.9,1.3,1.5,2.6,3,3.3
	c2,0.7,4.1,0.7,6.1,0.4c1.5,0,2.4,0.2,3.9-0.7c1.5-0.9,4.1-4.3,4.6-6.1l0.2-3C60.2,48.1,60.4,48.5,60.4,45.9L60.4,45.9z"/>
<path id="path3069" d="M100.1,23.3c-3.3,4.6-6.8,8.4-10.6,13l-5.2,5.9C80,46.3,69.1,54.4,64.1,57.6c-2.8,2-5.9,3.5-8.9,4.8l-4,1.9
	c0.7,0.7,1.9,1,3,1.5c0.7,0,3-1.3,3.6-1.7l6.9-3.9c1.3-0.9,2.6-2,4.1-2.2c-0.7,1.5-2.2,2.4-3.7,3.3l-4.1,2.4c0,0-4.3,2.5-4.9,2.9
	c1.2,0.5,3,1,4.1,1.5c1.1,0,2.6-1.1,3.4-1.5c2.4-1.3,5.4-3.3,7.8-5l3.9-2.6c3-2.4,6.1-5,8.9-7.8c2.2-2,4.3-3.9,6.1-6.3
	c2.4-2.8,3.9-6.1,5.6-9.3c2-3,2.6-5,3.7-8.2C99.9,26.1,100.6,24.4,100.1,23.3L100.1,23.3z"/>
<path id="path3071" d="M0.5,22.2c-0.7,2.4,0.2,5.2,1.1,7.4c2,5.2,5.2,9.8,8.5,14.1c2,2.8,5.2,6.3,7.6,8.7l2.6,2.2l5.6,5
	c4.6,3.5,13,8.7,18.2,11.1l6.9,3l2.8,1.1c3.3,1.3,6.5,2.2,10,2.8c2,0.4,4.1,1.1,6.1,1.1c-0.7-2.4-2-2.2-3.9-2.8L58.9,73
	C48.9,68.9,37.8,64.8,30,57c1.5,0,2.6,1.3,3.7,2.2c1.5,1.1,3.5,2.4,5.2,3.5c4.8,2.8,15.6,7.8,21.1,9.8c2.2,0.9,5.9,2.4,8,2.4
	c1.7,0.2,4.1-0.9,5.4-1.7c-0.9-0.9-1.7-0.7-3-0.9l-6.7-2c-5.9-1.5-11.5-3.7-16.9-6.5l-3-1.3l-4.1-2.6l-5-3.3l-5.2-4.1l-8.9-6.9
	L12.2,37l-4.1-4.8l-4.3-4.8L0.5,22.2L0.5,22.2z"/>
<path id="path3073" d="M70.2,75.8c0.4,0.9,1.3,2.2,1.3,3.3c0,2.4-2.8,4.6-5,4.3c-0.9-0.2-2.8-1.3-3.5,0c-0.2,0.4-0.2,0.9,0,1.1
	c0,0.9,1.1,1.3,2,1.7c2.4,0.7,5-0.2,6.9-1.5c1.5-0.9,2.6-2.4,3-4.1l0.4-2.8c0.2-0.9,1.1-1.1,2.2-2.6c1.3-1.7,2.6-4.8,4.3-6.1
	c0.7-0.4,1.3-0.7,2.2-0.9c-0.4-0.7-0.9-1.1-1.3-1.7c-0.4-0.2-0.9-0.7-1.3-0.7c-0.7-0.2-1.5-0.2-2.2,0.2c-3,1.5-2.4,4.3-4.1,6.5
	C73.9,74.3,72.4,75.2,70.2,75.8L70.2,75.8z"/>
<path id="path3075" d="M77.1,78.7c1.5,0.7,2.8,0.4,4.3,0.4l3.3,0.2c1.5,0,2-0.9,2.6-2.2c0.2-0.4,0.4-1.3,0-1.7S86,75,85.4,75
	l-3.7,0.2c-0.7,0-1.7,0-2.4,0.2C78.2,76.1,77.4,77.6,77.1,78.7L77.1,78.7z"/>
<path id="path3077" d="M88.9,81.7c-1.1-0.4-1.7-0.9-2.4-1.7c-0.2,0.2-0.4,0.2-0.7,0.4C85.6,81.5,88.4,84.1,88.9,81.7z"/>
<path id="path3079" d="M87.3,74.3l1.7,1.1c-0.4,0.9-1.5,2.6-1.3,3.7c0.2,2.2,3.3,2.2,4.6,0.9c1.5-1.7,1.5-4.3-0.7-5.6
	C90.4,73.7,88.9,73.9,87.3,74.3z"/>
<path id="path3081" d="M9.4,80.4l0.2,0.2c1.7-0.4,2.8-1.1,3-2.8C11.4,78,10.1,79.3,9.4,80.4z"/>
<path id="path3083" d="M10.9,72.4c-0.7-0.4-1.3-0.7-2.2-0.7c-0.7,0-1.3,0-2,0.2c-2.2,0.9-2.4,4.3-0.7,5.9c0.9,0.9,3,1.3,3.9,0.2
	c0.9-0.9,0.7-2,0.2-3c-0.2-0.7-0.7-1.5-0.2-2C10.3,72.6,10.7,72.6,10.9,72.4z"/>
<path id="path3085" d="M10.7,73.2c0.2,0.7,1.3,3.3,1.7,3.7c0.7,0.4,1.3,0.4,2,0.4l3.9-0.2h2.8c0-0.7,0-1.3-0.2-1.7
	c-0.7-1.7-3-2.6-4.8-2.6l-2,0.2C12.9,73,11.8,72.8,10.7,73.2z"/>
<path id="path3087" d="M14.8,66.3c4.1,1.1,4.1,4.6,5.9,6.9c0.7,0.9,2.4,2.2,2.6,3c0.2,0.7,0,0.9,0.2,2.4c0.4,2,1.7,3.9,3.5,5
	c2,1.3,3.7,2.2,6.1,1.5c1.3-0.4,2.6-1.3,2-2.8c-0.7-1.5-3,0-4.6-0.4c-1.5-0.7-3.3-2.8-3.3-4.6l0.9-3c-2.4-0.9-5.2-2.8-6.3-5.2
	c-0.7-1.5-0.7-3.7-1.7-4.8C18.1,62.8,15.5,64.1,14.8,66.3L14.8,66.3z"/>
<path id="path3089" d="M25.3,71.3c0.7,0.9,1.1,1.1,2,1.5c3,1.7,5,0.4,8-0.2l6.3-2c-0.8-0.6-2.7-1.7-3.5-2.2l-4.1,1.1L25.3,71.3z"/>
<path id="path3091" d="M28.3,77.6c5.6,0,10.9-1.7,16.3-3c0,0,2.4-1.1,3.2-1.1c-0.8-0.5-3.8-1.7-4.3-2.1c-0.7,0.2-3.2,1.1-4.1,1.3
	l-5.4,1.5l-2.6,0.7C29.8,75.4,28.7,75.6,28.3,77.6z"/>
<path id="path3093" d="M45,52.6c0,0.5,0.1,1.2,0.3,1.5c0.2,0.3,1,0.4,1.2,0.2c0.2-0.2-0.2-1-0.4-1.3C46,52.8,45.7,52.7,45,52.6z"/>
<path id="path3095" d="M46.7,52.8l0.2,1.1c0,0.2,0.2,0.7,0.4,0.9c0.9,0.4,1.3-1.7,0.7-2C47.6,52.6,47.2,52.8,46.7,52.8z"/>
<path id="path3097" d="M49.4,53.1c-0.7,0.4-0.7,1.2-0.4,1.6c0.2,0.4,0.8,0.4,1.1,0.3c0.2-0.1,0.5-0.7,0.6-1.1
	C50.6,53.4,50.3,52.9,49.4,53.1z"/>
<path id="path3099" d="M47,50.2c0.6,0.3,1.6,0,1.6,0l0-1.3c-0.2-0.9-0.9-1.1-1.3-0.7C47,48.7,47,49.8,47,50.2z"/>
<path id="path3101" d="M50.2,48.1c-0.2,0-0.9-0.1-1.1,0.1c-0.4,0.4-0.6,1.8,0,2.3c0.4,0.1,1.1,0.2,1.3-0.7v-0.6
	C50.4,49.1,50.4,48.4,50.2,48.1z"/>
<path id="path3103" d="M52.4,55c0.2,0.1,0.4-0.2,0.7-0.4c1.5-1.5-1.6-2.7-1.1-0.4C52,54.1,52.2,55,52.4,55z"/>
<path id="path3105" d="M46.3,47.8c-0.2-0.1-0.6,0-0.8,0c-1.7,0.8,0.4,3.7,1.1,1.7c0-0.2,0-0.4,0-0.7C46.5,48.9,46.4,47.9,46.3,47.8z
	"/>
<path id="path3107" d="M51.1,48.1c0,0-0.4,2.2-0.2,2.4c0.3,0.2,1.2,0.1,1.5-0.1c0-0.7,0-1.4-0.1-1.8C52.1,48.1,51.8,48.2,51.1,48.1
	L51.1,48.1z"/>
<path id="path3109" d="M53.2,47.8L53,48.9c0,0.7,0.1,1.9,1,1.3c0.1-0.1,0.4-1.4,0.3-2C54.1,47.9,53.7,47.9,53.2,47.8z"/>
</svg>
