<?xml version="1.0" encoding="utf-8"?>
<!-- Generator: Adobe Illustrator 21.0.0, SVG Export Plug-In . SVG Version: 6.00 Build 0)  -->
<svg version="1.1" id="Layer_1" xmlns="http://www.w3.org/2000/svg" xmlns:xlink="http://www.w3.org/1999/xlink" x="0px" y="0px"
	 viewBox="0 0 100 100" style="enable-background:new 0 0 100 100;" xml:space="preserve">
<path id="selection_x5F_to_x5F_path_x23_9" d="M52.1,57.6c-0.2,0-0.7,0-0.9,0.2c-1.1,0.4,0.2,2,0.9,0.4V57.6z"/>
<path id="selection_x5F_to_x5F_path_x23_8" d="M54.5,58.9c0.2,0,0.2,0,0.7-0.2c1.3-1.1-0.9-2.4-0.9-0.4L54.5,58.9z"/>
<path id="selection_x5F_to_x5F_path_x23_7" d="M57.4,58.4c1.1-0.2,1.1-0.4,1.5-1.5C57.6,56.7,57.2,57.1,57.4,58.4z"/>
<path id="selection_x5F_to_x5F_path_x23_6" d="M58.3,52.9c-0.2,0-0.4,0-0.7,0.4c-0.7,0.4-1.1,1.8-0.4,2.2c1.1,1.1,1.3-0.9,1.3-1.5
	L58.3,52.9z"/>
<path id="selection_x5F_to_x5F_path_x23_5" d="M37.9,29c0,0.9-0.4,1.8-0.7,2.6c-0.4,1.5-0.9,3.1-1.1,4.6c0,0.7-0.2,2.6-0.7,3.1
	c-0.4,0.7-0.9,0.2-1.5,0.4c-1.3,0.2-1.8,2.6,0.4,4.6c1.3,0.9,2.4,1.3,4,1.3c1.1,0,2-0.4,3.1,0.2c0.9,0.2,2.2,2.2,2.6,3.1
	c0.4,0.4,0.9,3.5,0.7,4.2c0,0.7-0.7,2.2,0,2.9c0.9,0.4,2,0,2-0.9c0-0.7-0.7-1.3-0.7-1.8c0-0.2,0.2-0.4,0.7-0.4
	c0.7-0.2,0.9,0.2,1.1,0.9c0.2,1.3-0.4,2.2,0.9,2.9c-0.4,1.1-0.7,1.5,0.4,2.2l-0.5,0.4L46.2,60c0.7-1.3,0.7-1.8-0.2-3.1
	c-1.3,1.1-1.1,1.5-0.7,2.9c-2.2-1.1-0.7-4.4-3.3-2.2c-0.7-2.6,0.4-3.7-0.2-7.2c-0.2-0.7-0.2-1.8-0.7-2c-0.4-0.7-1.5-0.7-1.8,0.4v2.4
	L38.9,56c0,1.3-0.2,3.1,0.4,4.2c0.7,1.1,2.4,2.2,3.5,3.3c1.3,1.1,2.2,2.4,4,2.9l4.8-0.2c1.1,0,1.8,0.2,3.1,0.2
	c2.2-0.2,2-0.7,3.7-1.5c1.1-0.7,2.4-1.1,3.3-2.2c2-2.2,1.3-6.4,1.1-9c0-0.9,0.2-1.5,0.2-2.4c0-0.7,0.4-1.5,0-2.2
	c-0.7-1.1-2-0.2-2.4,0.7c-0.9,2,0.4,6.6-1.1,8.6c-1.1,1.8-2.6,0.9-3.3,0.9c-0.6,0-0.8,0.2-1.4,0.2l-1.3-0.2c-0.7,0.2-1.1,0.7-2,0.7
	c-0.7-0.2-1.5-0.7-1.8-1.3c-0.7-1.3,0-2.2,0-3.5c0-0.7-0.4-1.5-0.7-2.2c0.9,0.4,1.1,0.4,2,0c-0.2,0.9-0.7,2.2-0.4,3.1
	c0.2,0.9,1.5,0.7,1.8,0c0.4-0.9,0-2.4-0.2-3.3l1.8-0.2c-0.2,0.7-0.7,2.2-0.7,2.9c0.2,0.9,2.2,0.4,2.4,0c0.4-0.4-0.2-1.5,0-2.2
	c0.4-0.9,1.5-0.7,2-1.3c0-0.2,1.1-4.2,2-4.8c2.9-2.4,6.8-0.2,8.3-4.4c0.2-0.4,0.2-0.7,0.2-1.1c0-0.2,0-0.7-0.2-0.9
	c-0.7-2.4-3.1,0.7-3.5-1.3c-0.2-0.4,0-1.8,0.2-2.2c0.2-1.3,0.4-2.4,0.7-3.7c0-1.5-0.7-2.6-0.7-4c0.4,0.7,1.3,2.4,1.3,3.3
	c0.2,0.4,0,0.9,0,1.3v1.3c0,1.1-0.2,2.4,0,3.5c2-0.7,1.8-2,2-3.7c0.4-3.5,1.3-5,0.2-8.6c-0.4-1.5-1.8-4.6-2.6-5.7
	c-0.7-0.9-1.8-1.5-2.6-2.2c-0.9-0.7-1.5-1.3-2.4-2c-2.6-1.3-6.6-1.5-9.4-1.5c-1.8,0-6.8,1.1-8.3,2c-1.1,0.7-2.2,1.5-3.3,2.2
	c-1.3,0.9-2.4,1.8-3.3,3.1c-0.7,0.7-2.6,5.7-2.9,6.6c-0.2,1.5,0.2,2.9,0.4,4.2c0.2,1.5,0,2.2,0,3.5c0,0.7,0,2.2,1.1,1.8
	c0.7-0.2,0.7-2,0.9-2.6c0.4-3.3,0-1.8,1.3-4.8C37.4,30.1,37.2,29.9,37.9,29z M57.6,33.8c1.3,0,3.5,0.9,4.4,2c1.3,1.8,0.7,5-1.1,6.1
	c-0.7,0.4-2,0.7-2.6,0.7c-0.7,0-1.1-0.2-1.8-0.7c-2-0.9-1.8-1.8-2-3.7c-0.2-0.7-0.4-1.5-0.2-2.2C54.8,34.7,56.3,34.1,57.6,33.8z
	 M42.7,34.1c0.9,0,2,0,2.9,0.2c2.2,0.9,3.5,3.7,2,5.9c-0.7,0.9-2.2,1.1-3.3,1.5l-1.8,0.7c-0.9,0.2-1.3-0.2-2-0.7
	c-1.5-0.9-1.8-1.1-1.8-2.9c0-0.7,0-1.3,0.2-2C39.4,34.9,40.9,34.5,42.7,34.1z M51.5,41.3c0.9,1.1,2.2,3.5,1.8,5
	c-0.2,1.1-1.5,2.6-2.4,0.4c-0.2,0.2-1.1,0.4-1.3,0.4c-0.9-0.2-0.7-1.5-0.4-2.2C49.3,43.5,50.1,42.2,51.5,41.3z"/>
<path id="selection_x5F_to_x5F_path_x23_4" d="M12,63c0-2.9-0.4-3.1-1.1-5.5l-1.1-4c-0.2-1.1-1.1-3.3-0.4-4.2c0.7-1.1,1.5,0,3.3,0.2
	c2.4,0.2,5.9,0.7,8.3,0c0.4,0,1.5-0.2,1.8-0.4c0.7-0.4,0.4-1.8,0-2.2c-0.7-0.4-2-0.4-2.6-0.4c-1.3-0.4-1.3-0.7-2.9-0.7
	c-2,0-2,0.4-5.5,0.4c-1.1,0-1.1-0.4-3.1-0.4L3,46c-0.4,0-1.8,0-2.2,0.2c-1.1,0.4-0.9,3.1-0.4,4c0.7,1.1,1.8,0.2,3.1,0
	s1.8,0.4,2.4,1.5L7.2,55l1.5,2.4l0.9,1.5l0.9,1.3C11.1,61.5,10.9,62.4,12,63z"/>
<path id="selection_x5F_to_x5F_path_x23_3" d="M12.6,60.8c0.9-1.1,2.2-5,2.6-6.6c0.2-0.7,0.7-1.8,0.2-2.2c-0.4-0.4-1.3-0.4-1.8-0.4
	c-0.7,0-2,0-2.4,0.4c-0.4,0.4-0.2,1.5,0,2.2l0.9,3.7C12.4,59.3,12,59.3,12.6,60.8z"/>
<path id="selection_x5F_to_x5F_path_x23_2" d="M12.2,37.4c-2,0.4-4.2,1.5-4.6,3.7c-0.4,2.6,1.5,3.3,3.5,3.7c0.6,0.2,1.5,0.7,2.2,0.5
	c1.5-0.2,3.5-3.1,3.3-4.8C16.1,38.5,14.1,37.1,12.2,37.4z"/>
<path id="selection_x5F_to_x5F_path_x23_1" d="M79.8,70.3l-4,1.8l-6.6,1.5c-2.6,0.4-5-0.4-7.5-0.4H58L55.4,73h-4.6l-4.6,0.2
	l-10.8,0.7l-4-0.4c-1.3,0-3.1-0.2-4.4-0.7c-1.8-0.7-2.2-2-4.6-1.8c-1.3,0-3.1,1.3-3.1,2.6c0.2,0.9,0.9,1.5,0.4,2.6
	c-0.7,2.2-3.3,3.5-1.8,6.6c0.2,0.4,0.4,0.7,0.7,1.1c0.4,0.2,0.9,0.4,1.5,0.7c2.9,0.4,3.3-0.4,5.7-1.1l13.8-3.3h2l7-0.4l5-0.2
	l9.4,0.2l2,0.4l3.5,0.2l2,0.4l1.3,0.2l1.3,0.2c2,0.2,4.2,0.2,6.1,1.1c1.8,0.4,3.3,2.2,5,0.7c1.5-1.1,1.5-3.7,0.7-5.3
	c-0.7-0.9-1.3-1.1-1.5-2c-0.7-1.3,0.7-2.4,0.7-3.3C84.6,69.8,81.3,69.8,79.8,70.3z"/>
<path id="selection_to_path" d="M85.9,42.6c-0.7,0-2,0-2.6,0.2c-2.2,0.9-2.4,4-2.4,5.9c0,4,3.5,6.6,6.4,8.6c0.9,0.7,2.6,2.6,3.5,2.6
	c1.1,0,3.1-2.2,3.7-2.9l2-1.8c2.4-2.4,5-7.5,2.4-10.8c-1.5-2-4.4-2-6.1-0.2c-0.9,0.7-1.3,2-2.2,1.8c-0.7,0-1.3-1.3-1.8-1.8
	C87.9,43.3,87.2,42.6,85.9,42.6z"/>
</svg>
