<?xml version="1.0" encoding="utf-8"?>
<!-- Generator: Adobe Illustrator 21.0.0, SVG Export Plug-In . SVG Version: 6.00 Build 0)  -->
<svg version="1.1" id="Layer_1" xmlns="http://www.w3.org/2000/svg" xmlns:xlink="http://www.w3.org/1999/xlink" x="0px" y="0px"
	 viewBox="0 0 100 100" style="enable-background:new 0 0 100 100;" xml:space="preserve">
<path d="M73.3,45.7v-0.2c-0.9,0-1.4,0.3-1.6,1c-0.4,1.1-1.2,1.3-1.2,0.2c0-1.2-1.8-0.9-2.2,0.4L68,48.2L67.6,47
	c-0.5-1.6-1.3-1.8-2-0.4c-0.8,1.6-0.8,1.6-1.9,0.7c-1-0.9-2.1-0.6-3.6,1.1c-0.7,0.8-0.8,1.2-0.3,2c0.3,0.6,0.9,1,1.4,1
	c1,0,0.3,0.7-1.3,1.2c-0.8,0.2-1.1,0.2-0.8-0.2c0.2-0.3,0-0.9-0.4-1.4c-1.1-1.3-1.7-3.9-2-8.5c-0.1-2.4-0.4-4.5-0.7-4.8
	s-1-0.2-2,0.3c-0.8,0.4-2.1,0.8-3,0.8h-1.5l0.3,4.2c0.2,2.7,0.1,5.1-0.3,6.8c-0.8,3.3-0.4,4.9,1.7,6.9c1.6,1.6,1.8,1.6,5.2,1.6
	c2,0,5-0.2,6.7-0.5c2-0.3,4.4-0.3,6.4,0c2.2,0.3,3.7,0.3,4.6,0c1.2-0.5,1.3-0.6,0.9-2.5c-0.2-1.1-0.4-3.8-0.4-5.8v-3.8H73.3z"/>
<path d="M95.6,62.8c-0.3-1.6-1.7-3.2-4.5-5.1c-0.9-0.6-1.6-1.5-1.6-2c0-1.1-2.6-3.4-4.1-3.5c-2.9-0.2-3-0.1-7.9,5.8
	c-2.7,3.3-5.5,5.1-13,8.3c-3.5,1.6-7.3,3.3-8.4,3.9c-1.1,0.6-2.6,1.2-3.3,1.5c-1.2,0.4-1.3,0.6-0.8,1.2c0.3,0.4,0.8,0.7,1.1,0.8
	c0.3,0,1.9,0.9,3.5,1.9c1.6,1,3.1,1.8,3.4,1.7c0.3-0.1,2.5-1,4.9-2c7.5-3.1,16.1-5.5,22.2-6.2C94.8,68.2,96.4,67,95.6,62.8z
	 M85.7,65.6c-0.4,0.2-2.2,0.6-4,1c-1.8,0.4-3.8,0.8-4.4,1L76,67.9l1.2-0.7c0.7-0.4,2-0.9,2.9-1c4.9-1,5.4-1.2,5.4-2.6
	c0-1,0.1-1.2,0.5-0.6C86.7,64.1,86.6,65.3,85.7,65.6z"/>
<path d="M91.8,87.6C90,86,89.6,86,82.4,85.7c-3.2-0.1-7-0.5-8.5-0.9c-2.8-0.6-13.2-5.7-20.4-10c-4.1-2.4-17-9.5-21.5-11.8
	c-3.6-1.9-7-4.9-9.4-8.4c-2.5-3.7-3.6-4.4-6.3-3.6c-2.1,0.6-3.5,1.6-4.1,3.2c-0.2,0.6-1,1.2-1.8,1.4c-2.8,0.6-5.3,4.5-4.7,7.4
	c0.2,1.9,2.4,3.1,7.5,3.8c2.1,0.3,7.1,1.7,11.2,3c7.6,2.6,13.7,5.5,27.5,13.1c7.3,4,10.8,5.7,14.9,7.3c0.8,0.3,2.6,1.6,3.9,2.8
	c7.5,7,10.6,8.3,13.5,6c0.7-0.5,1.7-1.8,2.3-2.7c0.8-1.3,1.3-1.7,2.1-1.5c1.2,0.3,3.6-0.8,4.2-2.1C93.8,90.9,93.4,88.9,91.8,87.6z
	 M22.6,65.7c-0.7-0.4-2.6-1-4.4-1.5c-4.1-1.1-4.4-1.3-3.5-2.4c0.5-0.6,0.7-0.7,0.6-0.2c-0.1,0.5,0.9,1,3,1.7
	c3.2,1.1,6.3,2.5,6.3,2.9C24.6,66.6,23.9,66.4,22.6,65.7z M82.5,95.3c-0.1,0.3-0.8,0.6-1.6,0.7c-1.1,0.1-2.3-0.6-5.7-3.3
	c-2.4-1.9-4.5-3.4-4.7-3.4s-0.4-0.2-0.4-0.5c-0.2-0.8,2.5,0.9,5.9,3.8c2.7,2.4,3.2,2.6,4.8,2.4C82.1,94.8,82.6,94.9,82.5,95.3z
	 M86.8,90.3c-0.4,0-0.8-0.2-1-0.5s0.1-0.5,0.7-0.5s1,0.2,1,0.5S87.2,90.3,86.8,90.3z"/>
<path d="M23,41.6c0.4,1,1.5,2.4,2.2,3.1c2.1,2,3.3,1.3,4.8-3.1l1.2-3.5l-1.8-1.9c-2.1-2.1-3.3-5.6-4.4-12.4
	c-0.8-5.1-0.9-5.6-0.3-5.6c0.2,0,0.7,1.6,1,3.5c1.8,10.6,2.1,11.6,3.9,13.6c1,1,2.1,1.9,2.4,1.9c1,0,3.4-4.4,4.7-8.3
	c0.6-2,1.6-4.9,2.2-6.3c0.6-1.5,1.8-4.7,2.7-7.3c0.9-2.5,1.9-4.8,2.1-5c0.6-0.6-1.5,6-3.1,9.9c-0.7,1.7-2.3,5.8-3.4,9.1
	c-1.5,4.2-2.6,6.6-3.9,8.2c-1.9,2.3-3.2,5.6-3.2,8c0,0.7,0.6,2.6,1.4,4.2c2,4.3,4.7,5.8,9.5,5.3c1.3-0.1,3-0.5,3.6-0.9
	c1.6-0.8,2.6-2,3.7-4.2c1.1-2.1,1.1-7.7,0-10.3c-0.7-1.6-4.3-5.3-5.2-5.3c-1.4,0-0.6,4.3,1.3,7.1c3.4,5-1.1,10.8-6.7,8.5
	c-2.1-0.9-3.2-4.1-2.4-7.4l0.4-1.7v1.8c0.1,2.5,0.9,4.1,2.5,4.8c1.4,0.6,4.1,0.3,5.2-0.6c1-0.8,0.7-4.1-0.4-5.6
	c-0.5-0.7-1.1-2.4-1.3-3.8c-0.2-2-0.1-2.9,1-5c3.7-7.3,14.5-23,15.2-22.2c0.1,0.1-1,1.9-2.4,3.8c-3.2,4.2-9.7,14.1-11.1,17
	c-1.3,2.6-0.8,3,2.4,2.3c5.5-1.3,8-3.1,9.3-6.9c0.8-2.3,1-1.2,0.3,1.7c-0.8,3.2-1.8,4.1-6.3,5.4c-4.2,1.3-4.2,1.3-3.9,2.1
	c0.2,0.6,1.3,0.7,5.1,0.7h4.8l0.8,1.8c0.4,1,1.6,2.8,2.7,4c1,1.2,1.9,2.3,1.9,2.6c0,0.2,0.4,0.4,1,0.4s1.1-0.4,1.3-1.2
	c0.4-1.5,1-1.6,1.4-0.2c0.2,0.5,0.6,1,1.1,1s0.9-0.4,1-1c0.1-0.5,0.4-1,0.7-1c0.2,0,0.5,0.4,0.7,1c0.4,1.2,1.5,1.3,2.2,0.1
	c0.5-0.8,0.5-0.8,1,0c0.6,1,1.8,1.1,2.2,0.2c0.1-0.4-0.1-1.5-0.5-2.6c-0.5-1.1-0.8-3.1-0.8-4.6c0.1-3.2-0.6-4-2-2.3l-0.8,1v-1.2
	c0-0.7,0.3-2.4,0.8-3.9l0.8-2.7l-1.7-3.3c-1.5-3-1.7-3.6-1.4-6.3c0.2-2.7,0.1-3.2-1-4.7c-0.7-0.9-1.6-2.4-2.1-3.2
	c-1.5-2.6-6-6.6-9.6-8.4L52.2,0h-6.6c-6,0-7,0.2-10.4,1.4c-5.3,1.9-11.5,6.5-14.4,10.7c-2.2,3.1-2.9,6.5-2.9,13.1v5.9l2.1,4.3
	C21.2,37.9,22.5,40.7,23,41.6z M61.9,20.7c0.8,0,2.7,4.1,2.7,5.9c0,1.8-1.1,4.1-2.2,4.5c-0.5,0.2-1-0.1-1.5-0.8
	c-0.4-0.6-0.8-2-0.9-3.2C59.8,24.8,61,20.7,61.9,20.7z M44.4,8.5c0.4-1.6,2.6-5,3-4.7C47.6,4,47.4,4.5,47,5s-1.2,1.7-1.8,2.8
	C44.5,9,44.3,9.3,44.4,8.5z"/>
<path d="M45.6,80.5c-1.5-0.8-3.2-1.8-3.8-2.2c-1.1-0.7-1.4-0.6-5.4,1.2c-8.4,3.9-12.4,4.6-21,3.8c-4.8-0.4-5.4-0.4-7.5,0.5
	c-2.5,1.1-3.2,2.5-2.5,5.1c0.6,1.5,1,1.8,3.7,2.8c1.2,0.4,1.9,1.1,2.5,2.7c1.6,3.8,5.1,4.6,9.7,2.2c1.5-0.8,4.2-2.5,6.1-3.9
	c2.1-1.5,5.5-3.4,8.5-4.6c9.8-4,12.6-5.3,12.5-5.7C48.3,82.2,47.1,81.3,45.6,80.5z M13,86.8c-0.9,0.6-2,0.6-1.7,0
	c0.2-0.3,0.8-0.5,1.4-0.5C13.6,86.3,13.6,86.4,13,86.8z M19.9,93.6c-1.3,1.1-3.4,1.4-3.7,0.4c-1.1-3.5-1.3-4.4-1.1-4.6
	c0.1-0.1,0.7,0.8,1.3,2c1,2.3,1.1,2.4,3.7,1.5C20.9,92.6,20.9,92.7,19.9,93.6z"/>
</svg>
