<?xml version="1.0" encoding="utf-8"?>
<!-- Generator: Adobe Illustrator 21.0.0, SVG Export Plug-In . SVG Version: 6.00 Build 0)  -->
<svg version="1.1" id="Layer_1" xmlns="http://www.w3.org/2000/svg" xmlns:xlink="http://www.w3.org/1999/xlink" x="0px" y="0px"
	 viewBox="0 0 100 100" style="enable-background:new 0 0 100 100;" xml:space="preserve">
<path d="M51.3,30.6c-8.2,0.2-14.9,0.3-21.2,3.1c-1.7,0.8-3.2,2-4.8,3c-0.8,0.4-1.6,0.9-2.5,0.9c-1.8,0.1-3.5,0-5.3,0.1
	c-1.5,0.1-2.3-0.7-2.7-2c-0.6-2.3-1.2-4.7-1.7-7c-0.4-1.6,0.4-2.6,1.8-2.9c11.4-2.5,19.5-9.5,26.1-18.7c3.3-4.7,7.5-6.2,12.2-4.7
	c2.7,0.9,4.4,2.9,5.9,5.1c4.6,6.5,10.1,12,17.5,15.4c2.5,1.2,5.3,2,8,2.8c2,0.6,2.7,1.5,2.2,3.5c-0.5,2.2-1.1,4.3-1.6,6.5
	c-0.4,1.4-1.2,2.3-2.8,2.1c-0.6-0.1-1.2-0.1-1.8,0c-3.1,0.3-5.7-0.4-8.2-2.5c-3.1-2.6-7.3-3.3-11.3-3.8
	C57.4,30.8,53.6,30.7,51.3,30.6z"/>
<path d="M51,34.4c4,0.5,8.9,1.1,13.7,1.8c1,0.1,1.9,0.5,2.9,0.9c4.7,1.8,5.7,3.4,5.3,8.3C72.3,51.7,70,57,65,61.1
	c-0.9,0.7-1.3,2-1.7,3.1C63,65,63,65.9,62.9,66.8c-0.2,2.2-1.5,3.7-3.6,4.3c-6.2,1.7-12.5,1.7-18.7,0c-2.2-0.6-3.5-2.1-3.5-4.3
	c0-3-1.3-5.1-3.6-7.2c-5.2-4.7-6.8-11-6.5-17.8c0-1.1,1.4-2.6,2.5-3.1c2.9-1.3,5.9-2.5,8.9-3.1C42.2,34.9,46.1,34.8,51,34.4z
	 M59.5,52.6c3.7,0.1,5.6-1.7,5.6-5.2c0-3.3-2.2-5.4-5.8-5.4c-3.4-0.1-5.4,2.1-5.5,5.7C53.7,50.7,55.8,52.5,59.5,52.6z M40.2,52.6
	c3.9,0,6-1.7,6-4.9c0.1-3.4-2.1-5.7-5.3-5.8c-3.5,0-6,2.1-6,5.1C34.9,50.6,36.8,52.5,40.2,52.6z M49.9,62.8c0.6,0,1.3,0,1.9,0
	c1.6-0.1,2.3-1.2,1.8-2.7c-0.7-1.8-1.5-3.6-2.3-5.3c-0.6-1.3-1.9-1.3-2.5,0c-0.9,1.7-1.7,3.5-2.4,5.3c-0.6,1.6,0.2,2.6,1.9,2.7
	C48.8,62.8,49.4,62.8,49.9,62.8z"/>
<path d="M60,84.9c3.9,1.4,7.9,2.8,11.9,4c0.9,0.3,2.1-0.2,3.1-0.3c0.9-0.2,1.8-0.5,2.7-0.7c1.8-0.3,3.3,0.2,4.4,1.7
	c1.1,1.5,0.7,3.1,0.1,4.7c-0.3,0.7-0.5,1.6-0.3,2.4c0.7,3-1.6,5.5-4.6,4.9c-2.5-0.5-4.5-1.8-5.8-4c-1.1-1.8-2.6-2.9-4.6-3.6
	c-5.1-1.8-10.2-3.7-15.3-5.5c-0.9-0.3-2.1-0.4-3,0c-5.4,1.8-10.8,3.7-16.1,5.8c-1.4,0.6-2.7,1.8-3.7,3.1c-1.6,2.1-3.4,3.8-6.1,4.2
	c-3.2,0.5-5.3-2.1-4.4-5.2c0.2-0.6,0-1.3-0.2-1.9c-0.7-1.6-1.2-3.3-0.1-4.9c1.2-1.6,3.1-2.5,4.8-1.7c4.2,1.8,7.9,0.4,11.7-1.2
	c1.8-0.7,3.7-1.3,5.6-2.4c-1.6-0.6-3.1-1.1-4.7-1.7c-1.2-0.4-2.5-0.8-3.7-1.3c-1.7-0.7-3.4-0.8-5.2-0.1c-2.1,0.8-4.3,0.7-6.4-0.2
	c-1.5-0.6-2.7-1.5-2.8-3.3c-0.1-1.7,0.6-3.1,2.1-4c0.4-0.3,0.8-0.9,0.9-1.5c0.5-1.8,1.3-3.5,3.4-3.9c2.1-0.4,3.8,0.6,4.7,2.4
	c1.5,2.9,3.9,4.2,6.8,5.2c4.5,1.5,8.9,3.2,13.3,4.8c0.8,0.3,1.9,0.3,2.7,0c5.2-1.8,10.4-3.7,15.7-5.5c1.7-0.6,3-1.6,3.8-3.3
	c0.3-0.6,0.6-1.2,1.1-1.6c1.2-1.3,2.6-2.3,4.5-1.8c1.9,0.5,2.8,2,3.3,3.8c0.2,0.6,0.5,1.2,1,1.6c2.8,1.8,2.7,5.3-0.2,6.9
	c-2.2,1.2-4.5,1.4-6.8,0.6c-1.8-0.7-3.4-0.6-5.2,0.1c-2.8,1.1-5.6,2.1-8.4,3.1C60,84.5,60,84.7,60,84.9z"/>
</svg>
