<?xml version="1.0" encoding="utf-8"?>
<!-- Generator: Adobe Illustrator 21.0.0, SVG Export Plug-In . SVG Version: 6.00 Build 0)  -->
<svg version="1.1" id="Layer_1" xmlns="http://www.w3.org/2000/svg" xmlns:xlink="http://www.w3.org/1999/xlink" x="0px" y="0px"
	 viewBox="0 0 100 100" style="enable-background:new 0 0 100 100;" xml:space="preserve">
	<path d="M50,0.1c-27.6,0-50,22.4-50,50s22.4,50,50,50s50-22.4,50-50S77.6,0.1,50,0.1z M50,95.1c-24.9,0-45-20.1-45-45
		s20.1-45,45-45s45,20.1,45,45S74.9,95.1,50,95.1z"/>
	<path d="M82.3,44.2c-0.2-27.3-31.6-27.1-47.4-23.8v-7h-4.4v8.1c-3,0.9-4.7,1.8-4.4,2.4c1-0.3,2.5-0.4,4.4-0.3v42.1
		c-4.5,8.8,2,22.2,2,22.2s-4.8-14.3,5.9-21.1C48.3,60.5,82.5,63.5,82.3,44.2z M49,46.8c-1.5,7.3-9.5,11-14.1,14.2V24.3
		C42.8,26.2,52.1,32.2,49,46.8z"/>
</svg>
