<?xml version="1.0" encoding="utf-8"?>
<!-- Generator: Adobe Illustrator 21.0.0, SVG Export Plug-In . SVG Version: 6.00 Build 0)  -->
<svg version="1.1" id="Layer_1" xmlns="http://www.w3.org/2000/svg" xmlns:xlink="http://www.w3.org/1999/xlink" x="0px" y="0px"
	 viewBox="0 0 100 100" style="enable-background:new 0 0 100 100;" xml:space="preserve">
<path id="skull" d="M62.1,53.6c-1,1.5-3.2,2-4.6,3.4c-1.6,1.6-4.2,4-7.6,4c-3.3,0-6.4-1.9-8.2-4.1c-1-1.2-3.9-2-4.7-3.3
	c-1.1-1.8-2.1-4.7-1.8-6.4c0.1-0.7,2.4-1.4,2.7-0.6c2.7,6,6.8,7,11.9,7c5,0,8.4,0.1,11.3-6.9c0.5-1.2,2.5-0.3,2.7,0.5
	c0.8,2.7,0,0,0,0C64,47.2,63.3,51.8,62.1,53.6z M50.1,73.7c6.6-2.7,16.8-6.9,23.6-8.1c2-4.1,12.2-12.7,10.3,0.2
	c5.8,4,3.4,11-7.4,4.8c-5.4,0.4-15.3,4.4-19.9,6.7c4.3,2,13,7.1,16.8,9.3c22.5,2,12.5,8.9,6.9,9.5c0.1,2.9-9.3,8.7-11.8-4.3
	c-2.5-2.5-15.8-10.5-19-11.2c-4.5,1.7-14.9,8.2-19.1,11.8c-1.4,9.2-6.2,8.4-10.8,3.2c-9-0.1-12.1-9.5,7.1-9.8
	c3.7-1.9,12.4-6.9,16.3-8.6c-6.9-2.8-15-5.4-20.4-6.6c-8,5.8-13.6,0.6-7.4-4.8c-0.6-2.7,0.6-11.1,12.2-1
	C31.9,66.4,44.6,71.3,50.1,73.7z M49.9,34.9c-1,1.8-4.5,4.6-4.5,5.6c0,2.7,2.7,2.8,4.5,1.6c1.9,1,4.5,1.5,4.4-1.6
	C54.3,39.3,51.2,37,49.9,34.9z M59.1,45.7c-1,0.6-0.5,2.9-1.5,3.3c-4.7,1.8-10.6,1.4-15.2,0.2c-1.5-0.4-1.3-3.2-1.8-3.4
	c-3.2-1.7-8-2.2-10.6-4.3c-1.2-1-0.5-7.6-2.5-8.8c-1.9-1.1-2.7-5.3-3.3-8.8c-0.7-3.5-1.2-10.5,2.8-15.2S38.5,0,50,0
	c11.5,0,19.2,3.7,23.1,8.6c3.8,4.9,2.8,12,2.2,15.2c-0.7,3.6-2.4,7.3-3.9,8.7c-1.6,1.4-1.1,8.2-1.8,8.9
	C68.2,42.9,62.1,43.8,59.1,45.7z M32.2,29.2c-0.1,4.9,4.8,7.2,8.9,5.8c4.6-1.6,5.2-9.9,0.2-11.4C37.2,22.5,32.3,24.1,32.2,29.2z
	 M62.1,35.3c5.3-0.7,6.9-9.1,2.3-11.4c-3.7-1.8-9.5-0.4-10,4.7C53.8,34.7,58.2,35.8,62.1,35.3z"/>
</svg>
