<?xml version="1.0" encoding="utf-8"?>
<!-- Generator: Adobe Illustrator 21.0.0, SVG Export Plug-In . SVG Version: 6.00 Build 0)  -->
<svg version="1.1" id="Layer_1" xmlns="http://www.w3.org/2000/svg" xmlns:xlink="http://www.w3.org/1999/xlink" x="0px"
     y="0px"
     viewBox="0 0 100 100" style="enable-background:new 0 0 100 100;" xml:space="preserve">
		<path d="M14.1,46.1c-2.1,0-4.8,1.5-6,3.3c-0.6,1.2-1.5,2.1-2.4,2.1C3,52,0,56.5,0.6,58.9c0.6,3,3,4.2,8.4,4.8
			c8.4,1.2,22.7,6.9,37.1,14.7C60.4,86.4,65.8,89.1,67,89.1c0.9,0,4.2,2.4,7.2,5.1c1.5,1.5,3.9,3.3,5.1,4.2
			c4.5,2.7,7.5,2.1,10.5-2.7c0.6-0.9,1.2-1.5,1.8-1.2c1.2,0.3,3.9-0.9,4.8-2.4c0.6-1.5,0.6-4.2-0.6-5.1c-1.8-1.8-3.3-2.1-11.4-2.7
			c-8.7-0.3-12.9-1.5-18.2-4.5c-1.5-0.9-4.2-2.1-5.7-3c-1.5-0.9-5.7-3.3-9-5.1c-7.2-4.2-17.3-9.9-21.8-12c-4.2-2.4-7.8-5.4-10.2-9
			C17.4,47.6,15.9,46.1,14.1,46.1z M11.8,57.1c0.1,0,0,0.2-0.1,0.6c-0.3,1.2,0,1.2,3,2.1s6.9,2.7,6.9,3.3c0,0.3-0.6,0-2.1-0.6
			c-0.9-0.3-3.3-1.2-5.1-1.5c-2.1-0.6-3.6-1.2-3.9-1.5c-0.3-0.3,0-0.9,0.6-1.5C11.5,57.4,11.8,57.1,11.8,57.1z M71.8,87.6
			c0.3,0,3,1.8,6.6,4.8c3,2.7,3.6,2.7,5.1,2.4c2.1-0.6,3,0,1.2,0.9s-2.4,0.9-6.9-2.7c-2.1-2.1-4.5-3.9-5.4-4.2S70.9,87.6,71.8,87.6z
			 M89.3,88.5c0.1,0,0.3,0,0.5,0c0.6,0,1.2,0.3,1.2,0.6c0,0.9-0.9,0.9-1.8,0.3C88.4,88.6,88.3,88.5,89.3,88.5z"/>
    <path d="M39.2,75.7l-4.8,2.4C25.8,82,22.2,82.6,9.3,82C6,81.7,4.8,82,3,82.9c-2.1,1.2-2.7,2.4-2.4,4.8c0.6,1.8,1.5,2.7,4.2,3.6
			c1.5,0.6,2.1,1.2,2.4,2.4c0.3,0.9,1.2,2.4,2.1,3c3.3,2.7,7.8,1.2,15.3-4.5c2.1-1.5,5.4-3.3,7.2-3.9c2.7-1.2,8.1-3.6,15-6.6
			l1.5-0.6l-2.4-1.5c-1.5-0.9-3.6-2.1-4.5-2.7L39.2,75.7z M8.5,85c0.2,0,0.4,0,0.5,0.2c0.3,0,0,0.6-0.3,0.9c-0.9,0.6-1.5,0.6-1.8,0
			C6.7,85.7,7.8,85.1,8.5,85z M11.4,89c0.1-0.1,0.5,0.5,1.1,1.7c1.2,2.4,1.5,2.7,3.9,1.8c1.2-0.3,1.2-0.3,0.3,0.9
			c-0.6,0.6-1.5,0.9-2.7,0.9c-1.5,0-1.8,0-2.1-2.1C11.5,90.1,11.3,89,11.4,89z"/>
    <path d="M86.7,47.8c-0.6,0-1.2,0.1-1.7,0.3c-0.6,0.3-1.8,1.8-3,3.3c-3.3,4.8-6.9,7.5-14.4,11.1c-10.5,4.8-16.2,7.5-15.9,7.8
			c0,0.3,2.1,1.5,4.2,2.7l4.2,2.4l5.4-2.1c8.1-3.3,18.5-6.3,24.5-6.9c6.6-0.9,6.9-0.9,8.4-2.4c1.2-1.5,1.5-4.2,0-6.3
			c-0.3-0.9-1.8-2.4-3.3-3.3c-1.8-0.9-2.7-2.1-2.7-2.7C92.5,49.8,89.3,47.9,86.7,47.8z M88.9,58.9l0.3,1.5c0.6,1.5-0.6,2.7-2.4,2.7
			c-0.6,0-2.7,0.6-4.8,1.2c-1.8,0.3-3.3,0.6-3.3,0.6c0-0.6,1.2-1.2,5.7-2.1c3.6-0.9,3.9-0.9,4.2-2.4L88.9,58.9z"/>
    <path d="M49.4,47c-0.3,0-0.6,0.3-0.6,1.2c0,0-0.3,1.8,0.3,1.5c0.6,0,1.8,0.6,1.5-1.2C50.6,47.6,50,47,49.4,47z"/>
    <path d="M48.8,55.6c-0.3-1.5-0.3-2.4,0.9-2.4c1.2,0,1.5,0.6,0.9,2.1C50,56.8,49.4,56.8,48.8,55.6z"/>
    <path d="M47,46.7c-0.3,0-0.9,0.9-0.9,1.8c0,0.3,0,1.2,0,1.5c0.3,0,0.9,0,1.2,0c0.6,0,0.3-1.8,0.3-2.4S47.3,46.7,47,46.7L47,46.7z"
    />
    <path d="M46.4,55.6c-0.6-0.6-0.3-2.4,0.3-2.4c0.6,0,0.9,0.6,0.9,1.5C47.6,55.9,47,56.2,46.4,55.6z"/>
    <path d="M53,55.6c-0.6-0.9-0.3-2.4,0.9-2.4c0.6,0,0.9,0.3,0.9,1.2C54.5,55.6,53.6,56.2,53,55.6z"/>
    <path d="M43.7,55c-0.6-0.6-0.3-1.8,0.6-1.8c0.3,0,0.6,0.6,0.6,1.2C44.9,55.3,44.3,55.6,43.7,55z"/>
    <path d="M51.5,49.7c-0.6-0.6,0.3-3,0.9-3c0.9,0.3,1.2,3,0,3.3C52.1,50,51.5,50,51.5,49.7z"/>
    <path d="M43.1,49.1c-0.3-1.2,0-2.4,1.2-2.4c0.3,0,0.6,0.6,0.6,1.5C44.9,50,43.7,50.5,43.1,49.1z"/>
    <path d="M54.2,48.2c0-1.2,0.3-1.5,0.9-1.5c0.6,0.3,0.9,0.6,0.9,1.5c0,0.9-0.3,1.5-0.9,1.5S54.2,49.4,54.2,48.2z"/>
    <path d="M44.9,62.8c-2.7-0.9-3-1.2-6.3-5.1c-2.4-3.6-2.7-3.9-3.3-11.1c-0.3-4.2,0-4.5,2.7-2.1c1.5,1.5,1.8,2.1,2.4,5.4
			c0.6,5.4,2.7,7.2,9.3,7.2c5.1,0,7.2-0.9,8.4-3.6c0.3-0.9,0.9-2.4,0.9-3c0-2.7,1.2-5.1,2.7-6c0.9-0.6,1.8-0.9,2.1-0.9
			c0.6,0,0,9.6-0.9,11.1c-0.9,2.1-5.1,6.9-6.3,7.5C54.8,62.8,47.3,63.4,44.9,62.8z"/>
    <path d="M49.4,0c-6,0.3-6.6,0.6-9.9,2.1c-3.6,1.8-7.8,5.7-9.6,9.6c-1.2,2.4-1.2,3.3-1.2,8.4s0,6,1.2,8.1c0.6,1.5,1.5,2.4,1.5,2.1
			c0.3,0,0.3-2.7,0.3-5.7c0-5.4,0-5.7,1.8-9.6c2.1-3.9,4.2-6.6,3.6-4.2c-0.6,2.4-1.8,4.8-2.7,7.2c-1.2,2.4-1.5,3.6-1.5,8.1
			c0,4.8,0,5.7-0.9,6c-1.8,0.6-2.4,1.2-2.4,2.1c-0.3,2.1,1.2,3.6,5.4,5.4c3.3,1.2,4.5,2.1,5.4,3.3c0.9,1.5,1.8,2.4,4.2,3
			c0.3,0.3,3.3,0.3,6.6,0.3l6-0.3l2.4-2.4c1.5-1.8,3-3,4.8-3.6c5.7-2.1,7.8-6.3,3.9-7.2L66.1,32v-3.6c0-3.6,0.3-5.1,1.2-5.1
			c0.3,0,0.3,1.5,0.3,3.3c0,3.9,0.6,4.2,2.4,1.8c1.5-2.1,1.8-11.4,0.6-15.6c-1.5-5.4-6.3-10.2-12.3-12C56.3,0,54.5,0,49.4,0z
			 M41.7,21.3c1.4-0.1,2.8,0.4,4.1,1.7c2.4,2.4,0.9,7.2-3,9.3c-4.5,2.4-6.9,0.3-6.6-4.5C36.6,23.9,39.1,21.5,41.7,21.3z M57.9,21.3
			c2.7-0.1,5.1,2.4,5.5,6.5c0.3,2.4,0.3,2.7-0.9,3.9c-2.7,2.7-6.3,1.5-8.4-2.4c-1.8-2.7-1.8-4.5,0-6.3
			C55.4,21.9,56.7,21.4,57.9,21.3z M50,30.2c0.6,0,2.1,6,2.1,8.1c0,1.2,0,1.2-1.2,0.3c-1.2-0.6-1.5-0.6-2.7,0
			c-1.5,1.2-1.8,0.9-1.5,0c0.3-0.6,0.3-1.8,0.6-2.7C47.9,33.5,49.4,30.2,50,30.2z"/>
</svg>
