<?xml version="1.0" encoding="utf-8"?>
<!-- Generator: Adobe Illustrator 21.0.0, SVG Export Plug-In . SVG Version: 6.00 Build 0)  -->
<svg version="1.1" id="Layer_1" xmlns="http://www.w3.org/2000/svg" xmlns:xlink="http://www.w3.org/1999/xlink" x="0px"
     y="0px"
     viewBox="0 0 100 100" style="enable-background:new 0 0 100 100;" xml:space="preserve">
	<path d="M22.2,78.2c-1.3,0.1-1.6,0.1-1.9-0.2c-0.5-0.5-0.5-2.2,0.1-4.7c0.3-1.1,0.7-3.4,1.1-5.2c0.3-1.8,0.7-3.7,0.9-4.4
		c0.4-1.4,1.4-3.6,2-4.2l0.4-0.4l0.7,0.7c0.6,0.6,0.7,0.6,1.6,0.6c0.8,0,1-0.1,1.4-0.5c0.5-0.5,0.6-1.5,0.2-2.4
		c-0.5-1.2-2.6-1.7-4.7-1.1c-1,0.3-1.4,0.5-2.1,1.3c-2.7,2.8-5,10.4-5,16.8c0,2.1,0.3,4.7,0.7,5.4c0.3,0.7,1.4,1.4,2.5,1.8
		c1.7,0.6,3.4,0.3,4-0.6c0.4-0.6,0.4-2.2,0-2.7C23.8,78.1,23.6,78.1,22.2,78.2z"/>
    <path d="M100,62.5c0,0-0.7,0.2-1.5,0.6c-7.1,3.1-17.8,5.4-29.2,6.3c-8.8,0.7-23.5,0.2-32.5-0.9c-0.8-0.1-2.1-0.3-2.9-0.4
		c-1.6-0.2-8.7-1.2-9.6-1.4c-0.6-0.1-0.6,0-0.8,2c-0.1,0.6-0.2,1.2-0.2,1.4c-0.1,0.2,0.4,0.5,2.2,1.2c8.5,3.4,20.4,5.9,31.9,6.6
		c9.4,0.5,18.3-0.3,25.3-2.3c8.1-2.3,13.9-6.3,16.6-11.6C99.7,63.2,100,62.5,100,62.5z M65.2,71.7c-7.1,0.8-13.6,0.5-25-1.2
		c-7-1-6.7-0.9-6.6-1.5c0.1-0.6,0.6-0.9,1.1-0.8c0.3,0.1,0.8,0.2,1.2,0.3c0.4,0.1,1.3,0.3,2,0.4c1.6,0.3,6.9,0.9,10.9,1.2
		c3.7,0.3,15.5,0.3,20.6,0.1c2-0.1,3.6-0.1,3.5-0.1C72.8,70.6,67.7,71.5,65.2,71.7z"/>
    <path d="M16.1,64.7c-0.1,0-1.8-0.6-3.8-1.2c-4.5-1.4-6.6-1.9-8.6-1.9c-2,0-2.8,0.3-3.4,1.5c-0.5,1-0.4,1.8,0.3,2.6
		C1.8,67,3.5,67.4,9.4,68c3,0.3,4.9,0.5,5.1,0.7c0.3,0.3,0.7-0.1,1.1-1.4C16.3,65.4,16.4,64.8,16.1,64.7z"/>
    <path d="M47.1,57.4c-0.4-0.2-0.5-0.5-0.5-1c0-0.8-0.4-1-0.6-0.3c-0.1,0.2-0.2,0.3-0.3,0.3c-0.1,0-0.6-0.9-1.1-1.9
		c-0.7-1.3-1-2.1-1.1-2.8c-0.1-1-0.1-1-1.1-1.5c-1.2-0.6-1.3-0.5-1.3,1.2c0,2.6,1.1,5.2,3.1,7.4c1.2,1.3,2.9,2.7,4.1,3.3
		c0.7,0.4,3.7,0.4,5.5,0c1.6-0.3,3.7-1.3,4.7-2.1c0.7-0.6,3.1-3.9,3.8-5.3c0.9-1.7,0.7-3-0.6-3.9L61.1,50l-0.4,0.4
		c-0.5,0.5-0.7,1.5-0.8,3c0,1.3-0.4,2.5-0.9,2.8c-0.5,0.3-0.5,0.2-0.6-0.4c-0.1-0.9-0.6-0.8-0.7,0.2c-0.1,1-0.3,1.3-0.7,1.2
		c-0.2,0-0.3-0.2-0.3-0.7c0.1-0.7-0.3-1.2-0.8-1c-0.2,0.1-0.3,0.3-0.2,0.8c0.1,0.8-0.2,1.1-1.1,1.1c-0.8,0-1-0.4-0.6-1
		c0.5-0.6,0.5-0.8-0.1-1.1c-0.4-0.2-0.5-0.2-0.7,0.1c-0.1,0.2-0.2,0.5-0.1,0.8c0.3,1.1-0.1,1.5-0.9,1.1c-0.6-0.3-0.8-1.1-0.4-1.5
		c0.5-0.6-0.5-0.9-1.2-0.4c-0.3,0.3-0.3,0.3,0,0.9l0.4,0.7l-0.4,0.3c-0.7,0.6-1.1,0.4-1.4-0.6c-0.5-1.6-0.9-1.9-0.8-0.6
		C48.3,57.7,48,58,47.1,57.4z"/>
    <path d="M37.6,35.8l0.1-1c0.3-2.4,1.1-3,1.9-1.3c0.3,0.6,0.4,2.6,0.2,3.4c-0.1,0.4-0.3,0.5-0.8,0.6c-1.5,0.2-2.6,1.5-2.6,3.2
		c0,1.1,0.2,1.5,0.9,1.9c0.3,0.2,1.1,0.8,1.8,1.4c1.2,1.1,2.4,1.8,3.1,1.8c0.2,0,0.5,0.1,0.5,0.3c0.3,0.8,0.5,1.1,1.3,1.6
		c1,0.6,1.2,0.9,1.2,2.2c0,0.7,0.1,1.1,0.4,1.4l0.4,0.4L45.8,51c-0.1-0.6,0-0.8,0.4-1.1c0.7-0.5,1-0.3,1,0.8c0,1.1,0.1,1.4,0.5,1.4
		c0.6,0,0.8-0.5,0.6-1.3c-0.2-0.8-0.1-1.2,0.4-1.4c0.3-0.1,0.5,0,0.7,0.3c0.3,0.3,0.3,0.5,0.1,1.2c-0.3,1.2-0.3,1.2,0.7,1.2h0.9
		l-0.1-0.7c-0.1-0.4-0.1-0.9-0.2-1.2c-0.1-0.4,0-0.5,0.4-0.8c0.5-0.3,0.5-0.3,1.1,0.3c0.5,0.5,0.6,0.6,0.3,1.2
		c-0.5,1.1-0.5,1.6,0,1.7c0.9,0.2,1.1,0.1,1.3-0.4c0.1-0.3,0.2-1,0.1-1.6c-0.1-1.1,0.2-1.6,0.8-1.3c0.2,0.1,0.3,0.4,0.3,1.4
		c0,1.3,0.2,1.7,0.7,1.5c0.2-0.1,0.3-0.5,0.3-1.4c0-1.5,0.2-1.9,1-1.7c0.6,0.2,0.7,0.5,0.5,1.4c-0.3,0.9-0.1,1.1,0.4,0.5
		c0.5-0.5,0.7-1.1,1-2.9c0.3-2.1,0.5-2.3,1.9-2.6c3.1-0.6,5.6-2.1,5.9-3.5c0.1-0.6,0-0.8-0.6-1.5c-0.5-0.6-1-1.4-1.8-3.5
		c-1.5-4-1.8-5.4-1.3-6.1c0.5-0.7,1.6,0.2,2.8,2.6c0.4,0.7,0.7,1.4,0.7,1.7c0,1,0.7,0,0.8-1.3c0.1-0.5-0.1-1.6-0.5-3.5
		c-0.4-1.5-0.7-2.9-0.7-3c0-0.5-1.2-2.8-1.9-3.6c-1.5-1.7-4-3.1-6.9-3.8c-1.9-0.5-7.6-0.5-9.7,0c-4.1,0.9-7.3,2.4-9.4,4.6
		c-1.5,1.5-2.2,2.8-2.4,4.4c-0.3,1.8,0.2,3.9,1.3,5.7L37.6,35.8z M57,35.4c2.6-0.5,4.7,1.3,4.9,4c0.1,1.5-0.3,2.5-1.4,3.2
		c-0.8,0.5-2.1,0.7-3,0.4c-1-0.3-2.6-2-3-3.2C53.8,37.5,54.7,35.8,57,35.4z M51.5,42.1c0.3,0.5,0.7,0.5,1,0c0.2-0.3,0.4-0.3,0.6-0.3
		c0.4,0.2,1.3,2.2,1.6,3.6c0.2,1,0.2,1.2-0.1,1.5c-0.5,0.6-1.3,0.4-2.2-0.4l-0.4-0.4v0.6c0,0.4-0.1,0.6-0.3,0.6
		c-0.1,0-0.5,0-0.8,0.1c-1.8,0.3-2.2-1.5-1-4C50.7,41.8,51.1,41.5,51.5,42.1z M42.2,37c0.7-0.8,1.4-1.2,2.7-1.5
		c1.8-0.5,3.4-0.2,4.4,0.8c0.6,0.5,0.6,0.6,0.6,1.8c0,2-1,3.4-3,4c-2.6,0.8-5.1-0.2-5.6-2.3C41.1,38.8,41.3,38,42.2,37z"/>
</svg>
