<?xml version="1.0" encoding="utf-8"?>
<!-- Generator: Adobe Illustrator 21.0.0, SVG Export Plug-In . SVG Version: 6.00 Build 0)  -->
<svg version="1.1" id="Layer_1" xmlns="http://www.w3.org/2000/svg" xmlns:xlink="http://www.w3.org/1999/xlink" x="0px" y="0px"
	 viewBox="0 0 100 100" style="enable-background:new 0 0 100 100;" xml:space="preserve">
<path d="M48.2,83.3c-0.7,0.1-1.2,0.2-1.6,0.2c-3.4,0-6.7,0.1-10.1,0c-0.7,0-1.3-0.6-1.9-0.9c-0.1-0.1-0.2-0.3-0.3-0.4
	c-4.1-5.5-3.5-4.2-9.2-4.8c-3.6-0.4-7.3-0.5-10.7-1.9c-2.6-1-4.7-2.7-6.1-5.4c0.6,0,1,0,1.4,0c3.2,0.2,6.3,0,9.2-1.4
	c0.8-0.4,1.4-1.1,2.1-1.6c-0.1-0.2-0.1-0.4-0.2-0.6c-0.7,0-1.5,0-2.2,0c-6.1-0.1-11.6-2.1-16-6.4c-0.9-0.9-1.7-2-2.4-3.3
	c4.6,1.4,8.8,1.4,12.7-1.7c-0.4-0.3-0.9-0.7-1.3-1c-2.3-1.8-4.2-3.9-5.3-6.6c-0.3-0.7-0.3-1.5-0.5-2.6c4.7,2.3,8.5,5.7,14,5.3
	c-4.2-6.1-8.6-12-6.9-19.8c1.3,2.4,2.8,4.5,5.3,5.5c2.4,1,4.9,1.5,7.7,2.4c-0.1-0.9-0.2-1.4-0.3-1.9c-0.8-3.6-1-7.1,0.9-10.5
	c0.8-1.4,2.1-2.7,3.3-3.9c-0.3,3.3,0.4,6,2.7,8.3c1.6,1.7,3.7,2.6,6.2,2.9c-0.5-5.7,1.9-10,6-13.6c2-1.7,3.7-2.6,5.1-2.6
	c-1.6,4.2-2.4,8.3,0.8,12.1c1.1,1.3,2.4,2.2,4.3,2.6c1.1-9.5,7.4-13.4,16.2-15.4c-4,5.9-5.1,11.6-1.5,18.2c0.4-1.1,0.7-1.9,0.9-2.7
	c1.2-3.4,3.1-6.3,6.4-8c2.7-1.4,5.5-1.5,8.6-0.5c-5.3,4.1-5.6,9.4-4.2,15.4c4.5-3.1,8.9-3,13.4-0.7c-1.5,1.2-2.9,2.2-4.2,3.5
	c-2.2,2.2-3.4,5-3.9,8.1c-0.4,2.3,0.6,4.2,1.9,5.9c1,1.3,2.2,2.6,3.3,3.8c3.9,4.1,1.1,9.4-2.9,10.9c-4.3,1.7-8.6,1.9-13.1,1
	c-1.8-0.4-1.8-0.4-2,1.4C73.4,74.7,74,76.4,75,78c0.8,1.3,1.8,2.4,2.6,3.6c0.3,0.4,0.5,0.9,0.9,1.6c-0.7,0.1-1.1,0.2-1.5,0.2
	c-3,0-6,0-9,0c-0.9,0-1.4-0.3-1.9-1.1c-0.7-1.2-1.4-2.3-2.1-3.5c-0.9-1.5-2.1-2.4-3.8-2.8c-3.5-0.9-7-1.1-10.5-0.6
	c-1.2,0.2-2.4,0.6-3.5,1.1c-2,1-2.2,2.1-0.7,3.7c0.5,0.6,1.1,1.1,1.6,1.6C47.6,82.3,47.8,82.7,48.2,83.3z M84.9,57.5
	c0-0.2,0-0.4,0-0.6c-0.5-0.3-1.1-1-1.5-1c-0.4,0-1.2,0.9-1.1,1.3c0.1,0.5,0.7,1.3,1.2,1.3C83.8,58.5,84.4,57.8,84.9,57.5z"/>
</svg>
