<?xml version="1.0" encoding="utf-8"?>
<!-- Generator: Adobe Illustrator 21.0.0, SVG Export Plug-In . SVG Version: 6.00 Build 0)  -->
<svg version="1.1" id="Layer_1" xmlns="http://www.w3.org/2000/svg" xmlns:xlink="http://www.w3.org/1999/xlink" x="0px" y="0px"
	 viewBox="0 0 100 100" style="enable-background:new 0 0 100 100;" xml:space="preserve">
<g>
	<title>Layer 1</title>
	<g id="layer1">
		<path id="path2396" d="M47.8,98c-2.9-1.1-4.4-5.4-3.4-9.4c0.6-2.2,0.1-2.6-1.8-1.3c-0.6,0.4-3.2,1.4-5.7,2.3
			c-6.3,2.1-12.2,2.2-15.7,0.2c-4.5-2.5-6.2-6.9-5-13.4c0.3-1.9,0.8-3.9,1-4.4c0.2-0.5-0.8,0.1-2.2,1.3c-2.7,2.5-4.5,3.2-6.6,2.7
			c-3.9-1-4.8-8.4-1.9-15.2c1-2.2,1-2.3,0-3.6c-3-3.7-2.5-8.6,1.4-15.6c2.7-4.7,2.8-4.9,3.3-4.5c0.2,0.2-0.3,1.3-1.1,2.5
			c-1.6,2.6-3.9,7.9-4.4,10.3c-0.6,2.8,0.5,5,2.5,5c0.9,0,2.3-0.4,3.2-0.8c1.6-0.8,7.2-5.6,13-11.1l3-2.8l-1.9-1.6
			c-1-0.9-4.3-3.3-7.3-5.3c-6-4.1-6.8-5.3-6-8.7c0.5-1.9,0.9-2.2,5.8-4.7l5.3-2.7l-1.1-1.2c-0.9-0.9-1-1.6-0.8-2.8
			c0.2-0.9,0.7-1.9,1-2.2c2.1-1.7,23.4-9.3,24.2-8.5c0.6,0.6-0.7,1.2-6.7,3.3c-6.7,2.3-16.6,6.2-17.3,6.8c-0.2,0.2,0,1.2,0.5,2.2
			c0.5,1,1,1.9,1,2c0,0.1,3.3-0.9,7.3-2.3c9.4-3.2,21.6-6.3,24.7-6.3c1.9,0,2.8,0.3,3.8,1.4c1.2,1.2,1.3,1.7,1,3.4
			c-0.4,2.3-2.3,4.9-5.4,7.6c-1.2,1.1-3.9,3.6-6,5.8L46,30.3l1.4-2.7c1.7-3.3,3.9-5.7,8.4-9.2c1.9-1.5,3.4-3,3.4-3.4
			c0-1.6-2.1-2.9-4.8-2.9c-5.4,0-21.3,4.7-33,9.7c-8.6,3.7-8.8,3.9-5.1,5.8c3.5,1.8,14,8.2,15.3,9.4c0.9,0.8,1.2,0.7,3.7-0.3
			c1.5-0.6,3.2-1.2,3.6-1.2c0.6,0,0.7-0.4,0.5-1.5c-0.2-0.8-0.7-3.6-1.1-6.1c-0.4-2.5-0.9-5.2-1.1-6c-0.2-0.7-0.1-2.2,0.1-3.2
			l0.4-1.9l2,3.2c2.1,3.4,2.7,5.3,1.2,4.1c-1.3-1.1-1.6-0.2-0.9,3.3c0.9,4.7,1.7,6.1,4.6,7.6c2.8,1.5,3.4,2.4,2.8,4.5
			c-0.3,1.3-0.4,1.3-1.9,0.5c-1.9-0.9-6.9-1.1-8.4-0.3c-0.9,0.5-0.7,0.8,1.6,2.4c1.4,1,5.6,4,9.2,6.5c6.4,4.6,6.6,4.7,6.8,3.3
			c0.1-0.8-0.1-6.8-0.4-13.3c-0.5-10-0.5-12.1,0.2-13.3l0.8-1.5l0.9,2.2c3.2,7.5,3.6,9.9,1.3,7.3L56.4,32l0.3,8.4
			c0.2,4.6,0.5,10,0.7,11.9c0.3,3.3,0.4,3.5,2.4,4.5c2.5,1.3,4.2,1.3,6.8,0.3c1.8-0.8,1.9-0.9,1.9-3.8c0-1.7-0.4-6.5-0.8-10.8
			c-0.4-4.3-1.1-11.6-1.4-16.4c-0.3-4.8-0.8-10.9-1.1-13.5c-0.3-3.3-0.3-5.3,0.1-6.3c0.6-1.4,0.6-1.4,2.7,2.9
			c1.1,2.4,2.1,4.8,2.1,5.4c0,0.9-0.2,0.9-1.4-0.5l-1.4-1.6l0.3,3.5c0.2,1.9,0.9,10.6,1.7,19.1c1.8,19.8,1.3,23.5-3.1,25.7
			c-1.7,0.9-4.7,0.9-7.5-0.1c-1.1-0.4-1.2-0.3-1,0.6c0.2,0.6,0.5,3.7,0.7,7c0.4,6.2-0.3,13-1.5,16.1c-0.6,1.5-0.7,0.6-0.7-6.4
			c0-4.4-0.2-10.7-0.5-13.9l-0.5-5.8l-3.7-2.8c-2-1.6-6.2-4.8-9.2-7.1c-3-2.3-5.5-4.1-5.5-3.9c0,0.2,0.8,1.7,1.7,3.4
			c1.3,2.4,1.7,3.7,1.7,5.8c0,5.2-2.3,7.6-8.8,9.2c-4.3,1.1-9.1,3.5-11.4,5.6c-3.1,2.9-3.7,10.6-1.2,14.6c2.8,4.5,11.1,5.7,18.9,2.7
			c7-2.6,13.1-6.7,13.1-8.7c0-0.7-1-3.9-2.2-7.1c-1.8-4.7-2.1-6.3-1.8-7.8l0.4-2l2.4,2.7c2.6,3,2.9,3.8,1.3,3.3
			c-1.2-0.4-1.3,0.1-0.5,2.3c2.8,7,2.3,10.7-1.7,14.5c-2.8,2.6-3.8,4.9-3.8,8.8c0,2.4,1.2,4,3.1,4c1.7,0,5.3-2.9,8.9-7.2
			c3.9-4.8,6.4-6.6,12.2-9.1c2.4-1,4.6-2,4.8-2.2c0.3-0.2,0.5-2.1,0.6-4.1c0.1-4.1,1.2-6.7,3.3-8.1c1-0.7,1.6-0.7,2.4-0.3
			c1,0.5,2.2,3.5,2.2,5.5c0,2.1-1.9,6.3-3.4,7.6l-1.6,1.4l1.2,1.1c1.5,1.4,2.8,1.4,5.8,0c1.5-0.7,2.5-1.6,2.7-2.4
			c0.2-0.7,0.1-5.8-0.3-11.2c-0.5-8.9-2.6-41.5-2.9-45c-0.1-0.7,0.1-2.2,0.3-3.2c0.5-2.2,0.7-2,3.1,3.7c1.8,4.3,1.8,5.4-0.1,3.3
			l-1.1-1.3l0.3,4.1c0.2,2.2,0.6,8,0.9,12.8c0.3,4.8,0.7,9.3,0.8,10.1c0.7,4,0.9,22.8,0.3,25.8c-1.1,5.1-4.3,8.4-8.3,8.4
			c-1.4,0-3.3-1.8-3.9-3.7c-0.5-1.6-1.1-1.6-6.4,0.8c-5.9,2.6-9.5,5.3-13.2,10C52.7,97.7,50.5,99,47.8,98z M79.4,74.8
			c1.4-1.2,1.7-1.7,1.4-3.1c-0.5-2.5-1.8-3.7-3.2-3c-1.7,0.9-2,1.6-1.6,3.7C76.6,76.9,76.8,77,79.4,74.8z M12.3,71.6
			c1.2-0.8,3.7-2.9,5.7-4.8c4.2-4.1,7.4-5.7,14.3-7.7c5-1.4,7.4-2.8,7.4-4.2c0-1.3-4-7.4-6.6-9.9l-2.6-2.6l-1.5,1
			c-0.8,0.5-4.1,3.4-7.3,6.3c-7.2,6.7-9.6,8.5-11.7,8.9c-1.5,0.3-1.9,0.7-2.9,3.7c-1.4,3.9-1.7,8.5-0.6,9.8
			C7.5,73.4,9.8,73.2,12.3,71.6z M14.5,65.1c-0.7-0.7-0.4-4.4,0.5-6.4c0.5-1.1,1-1.9,1.1-1.8s-0.2,1.2-0.6,2.4
			c-0.5,1.2-0.8,2.2-0.8,2.3c0,0.1,0.4,0.7,0.7,1.3c0.6,1.1,0.6,1.1,1.3,0.1c0.9-1.2,1-0.8,0.1,1.1C16.1,65.4,15.2,65.8,14.5,65.1z
			 M24.2,55.6c-0.9-0.7-1.7-1.3-1.8-1.4C22,54,24,51.3,24.6,51.3c0.3,0,1.2,0.5,2.1,1.1l1.5,1.1l1.1-1.5c1.1-1.4,1.1-1.5,2.5-0.5
			c2,1.3,2.2,2.2,1,3.8l-1,1.3L30,55.2l-1.8-1.3L27,55.3l-1.2,1.5L24.2,55.6z M60.2,97.1c1.4-2.1,1.6-3.6,0.3-3.1
			c-0.7,0.3-0.8,0.2-0.3-0.8c1.3-2.4,2.8-0.6,1.7,2.1c-0.4,0.9-1.2,2-1.8,2.6C59.1,98.8,59.1,98.8,60.2,97.1z M69.8,94.1
			c-0.7-1.5-1.6-2.4-2.4-2.6c-1.5-0.4-2.3-3.3-0.9-3.3c0.8,0,4.2,3.5,4.2,4.4c0,0.3,0.2,0.5,0.5,0.5s0.5-0.6,0.5-1.2
			c0-1.3,1.9-4.8,2.6-4.8c0.9,0,1.7,1.3,1.7,2.6c0,1.3,0,1.3-1.1,0.3c-1.4-1.3-1.9-0.8-3.1,3.2l-1,3.1L69.8,94.1z M11.6,82.9
			c1.1-2.1,1.1-3.3,0-3.3c-0.7,0-0.8-0.1-0.2-0.8c0.8-0.9,2-1.1,2.4-0.3c0.4,0.6-1.5,5.1-2.4,5.7C11,84.4,11.1,83.9,11.6,82.9z
			 M24.9,80.8c-0.4-1.1-0.4-2.3,0-4.4c0.3-1.6,0.5-3.1,0.4-3.2c-0.1-0.1-1.1,0.3-2.2,0.9c-1.5,0.9-1.9,1-1.9,0.4
			c0-0.4,2.3-2.1,5-3.7c6.1-3.5,5.9-3.5,5.5-2.4c-0.2,0.5-1.4,1.5-2.6,2.2c-1.7,1-2.5,1.9-2.9,3.4c-0.8,2.6-0.8,4.2,0,5.6
			c0.6,1.1,0.6,1.1,1.4,0.1c0.9-1.2,0.9-0.9,0.2,1.1C27,82.7,25.6,82.6,24.9,80.8z M34.5,76.6c-1.5-1.2-1.6-1.4-1-2.7
			c0.8-1.7,1.6-1.8,3.4-0.4c1.2,0.9,1.3,1.2,0.8,2.5C37,78.1,36.4,78.2,34.5,76.6z M42.3,76.2c-0.7-1.4-0.3-5.1,0.9-7l0.8-1.4
			l-0.3,1.4c-0.9,3.7-0.9,4.9-0.2,5.8c0.7,0.8,0.8,0.8,1.4-0.1c0.8-1.2,0.9-0.8,0.2,1.1C44.5,77.7,43.2,77.8,42.3,76.2z M63.1,74.6
			c0.3-0.6,0.8-1,1.2-1c0.3,0,0.2-0.5-0.4-1.1c-0.9-1-0.9-1.2-0.1-2.4c1.2-1.8,3.4-3.2,4.5-2.8c1.3,0.5,0.6,1.7-1,1.5
			c-0.8-0.1-1.7,0.2-2.1,0.7c-1.1,1.4,0.2,2.1,3.5,2c2.5-0.1,2.9,0,2.7,0.7c-0.2,0.5-0.8,0.8-1.5,0.8c-0.6,0-2.6,0.6-4.3,1.3
			C62.8,75.5,62.6,75.5,63.1,74.6z M93.4,69.4c0.1-3.5-0.2-12.8-0.7-20.7c-1.1-18.5-1.2-21.1-0.5-21.8c0.4-0.4,1.1,0.7,2.6,4.1
			c2,4.9,2.2,6.4,0.3,4l-1-1.4l0,2.2c0,1.2,0.4,7.1,0.8,13c1,14,1,20,0,23.5c-0.5,1.5-1,2.9-1.2,3C93.4,75.5,93.3,72.8,93.4,69.4z
			 M33.7,68.8c0-0.2,1.8-1.9,4-3.6c2.2-1.8,4.8-4,5.8-5c1.6-1.6,1.7-2,1.1-2.9c-0.9-1.4-0.8-3,0.1-3.8c1.1-0.9,1.9-0.2,1.9,1.6
			c0,0.9,0.2,1.7,0.5,1.9c1,0.6,0.6,2-0.4,1.7c-0.7-0.2-1.3,0.2-1.9,1.3C43.7,62,33.6,70,33.7,68.8z M45.9,55.1
			c-0.2-0.3-0.6-0.5-0.8-0.5c-0.3,0-0.5,0.2-0.5,0.5c0,0.3,0.4,0.5,0.8,0.5S46.1,55.4,45.9,55.1z M70,64.8c1.7-0.9,1.5-1.7-0.4-1.4
			c-1.8,0.3-2.2-0.3-0.6-1.2c1.1-0.6,5-0.2,5,0.5c0,0.8-1.9,2-3.5,2.4C68.9,65.4,68.8,65.3,70,64.8z M1.3,60.8c1.6-2.8,1.7-3,0.6-3
			c-1,0-1-0.8,0-1.6c1-0.8,1.9-0.3,1.9,1c0,1-3,6.1-3.6,6.1C0,63.2,0.5,62.2,1.3,60.8z M75.1,60.4l-1.2-1.3l1.2-1.5l1.2-1.5l1.3,1.2
			l1.3,1.2l1.4-1.3c1.5-1.4,2.5-1.2,3.7,0.7c0.4,0.7,0.3,1.2-0.6,2.1l-1.2,1.2l-1.6-1.1L79,58.9l-1.3,1.3l-1.3,1.3L75.1,60.4z
			 M76.8,49.8c-0.1-2.9-0.3-5.4-0.4-5.6c-0.2-0.2-1.3,0.2-2.5,0.9c-3,1.7-2.7,0.7,0.3-1.2c1.9-1.2,2.4-1.8,2.2-2.7
			c-0.1-0.6-0.4-3.9-0.6-7.2c-0.2-3.3-0.6-9.5-0.8-13.8C74.5,13.1,74.6,10,75.5,10c0.4,0,2.9,5.7,3.6,8.1c0.4,1.4,0.4,1.4-0.8,0.3
			c-0.6-0.6-1.3-0.9-1.4-0.8c-0.1,0.1,0,2.7,0.3,5.7c0.3,3,0.6,7.8,0.8,10.6c0.4,6.7,0.5,6.9,1.9,5.7c1-0.9,1-1.1,0.3-1.9
			c-0.5-0.5-0.8-1.3-0.8-1.7c0-1.1,2-2.8,2.7-2.4c0.7,0.4,0.6,5.7-0.1,5.7c-0.3,0-1.1,0.7-1.8,1.5c-1.1,1.3-1.3,2.1-1.3,5.1
			c0,3.6-1,9.1-1.6,9.1C77,55.1,76.8,52.7,76.8,49.8z M81.7,35.8c-0.3-0.9-1.3-1.1-1.3-0.4c0,0.6,0.6,1.2,1.2,1.2
			C81.8,36.6,81.9,36.2,81.7,35.8z M97.5,53.9c-1-1.7,0.6-9.7,2-9.7c0.3,0,0,1-0.6,2.3c-1.2,2.6-1.3,4.1-0.5,5.3
			c0.5,0.7,0.6,0.7,1.1,0c0.7-1,0.7-0.5,0,1.3C98.9,54.6,98.1,54.9,97.5,53.9z M61.9,50.4c-0.3-0.8-0.5-1.6-0.5-1.9
			c0-0.9,2.3-6.6,2.5-6.3c0.1,0.1-0.2,1.5-0.7,2.9c-1,2.9-0.7,4.8,0.6,4.3c1-0.4,1.1,0.8,0.2,1.7C63,52.2,62.5,52,61.9,50.4z
			 M49.5,46.4c-0.7-1.2,0.6-5.7,2-7.1c0.7-0.7,0.8-0.7,0.2,0.5c-1.3,2.4-1.6,4.6-1,5.3c0.5,0.6,0.7,0.6,1.1,0
			c0.3-0.5,0.4-0.5,0.5,0.1c0,0.9-1,2.1-1.7,2.1C50.2,47.5,49.8,47,49.5,46.4z M15.5,45.6c-0.8-1.3-0.8-1.6,0-4.2
			c0.5-1.6,1.1-3.2,1.4-3.7c0.7-1.1,0.7-0.7-0.2,2.3c-1.1,3.5-0.4,5.8,1.2,4.2c0.5-0.5,0.5-0.3,0.3,0.5
			C17.5,46.8,16.5,47.2,15.5,45.6z M0,42.6c0-0.3,1.1-1.2,2.5-2c1.4-0.8,3.6-2.5,4.9-3.7c2.3-2.1,2.3-2.2,1.4-3.2
			C8,32.8,8,32.6,8.7,31.3c0.4-0.8,1.2-1.5,1.7-1.6c0.7-0.1,0.9,0.2,0.9,1.7c0,1.1,0.2,2.1,0.5,2.2c0.9,0.5,0.6,2-0.3,1.8
			c-0.5-0.1-2.1,1-3.5,2.4C5.5,40.3,0,43.6,0,42.6z M10.1,31.3c-0.6-0.6-1,0.3-0.6,1c0.3,0.6,0.5,0.6,0.7,0
			C10.3,31.9,10.3,31.5,10.1,31.3z M4.1,35.2c-0.6-0.6-0.4-3.3,0.2-3.7c0.3-0.2,0.5,0.3,0.5,1.1c0,1.2,0.1,1.4,0.8,0.8
			c0.4-0.4,0.8-0.4,0.8-0.2C6.5,34,4.6,35.6,4.1,35.2z M29.3,31.2c-0.6-1.6-2.7-3.9-2.7-3c0,0.2-0.4,0.1-0.8-0.3
			c-1.1-0.9-1-2.7,0.1-2.7c0.5,0,1.7,0.9,2.7,2l1.8,2l0.6-3c0.7-3.4,1.5-4.2,2.5-2.8c0.8,1.1,0.4,2.9-0.5,2
			c-1.1-1.1-1.3-0.6-1.7,3.2C30.8,32.7,30.3,33.5,29.3,31.2z M60.9,28c-0.6-1.2-0.1-4.6,1-6.4c0.6-0.9,0.6-0.9,0.2,0.3
			c-0.8,2.5-0.5,4.6,0.4,4.6c0.7-0.1,0.8,0.2,0.5,1.1C62.5,29.1,61.6,29.3,60.9,28z M70.7,27.8c-0.8-0.8-0.8-2.9,0.2-5.3l0.7-1.9
			l-0.3,2.3c-0.4,2.8,0.1,4.7,0.9,3.4c0.4-0.7,0.5-0.7,0.5,0.1C72.8,27.7,71.5,28.6,70.7,27.8z M46.2,21.9c-0.4-0.8-0.3-1.7,0.6-3.8
			c0.6-1.5,1.5-3,1.9-3.3c1.1-0.9,0.9-0.4-0.5,2.2c-1.4,2.4-1.4,4.9,0,3.8c0.9-0.7,1-0.3,0.2,1.2C47.6,23.3,46.9,23.3,46.2,21.9z
			 M12.8,21c-0.7-0.7-0.4-4,0.5-5.6c1.2-2.3,1.5-2,0.5,0.6c-0.9,2.2-0.7,4.2,0.3,3.5c0.3-0.2,0.5-0.1,0.5,0.2
			C14.7,20.4,13.3,21.4,12.8,21z M56.6,5.4c2.3-0.9,1.8-1.7-0.8-1.3l-2.3,0.3l1.3-1c1.9-1.5,5.5-1.3,5.5,0.4c0,0.9-2.8,2.4-4.2,2.3
			C55.4,6.1,55.6,5.9,56.6,5.4z"/>
	</g>
</g>
</svg>
