<?xml version="1.0" encoding="utf-8"?>
<!-- Generator: Adobe Illustrator 21.0.0, SVG Export Plug-In . SVG Version: 6.00 Build 0)  -->
<svg version="1.1" id="Layer_1" xmlns="http://www.w3.org/2000/svg" xmlns:xlink="http://www.w3.org/1999/xlink" x="0px" y="0px"
	 viewBox="0 0 100 100" style="enable-background:new 0 0 100 100;" xml:space="preserve">
<g>
	<path d="M18.9,73.9c-1,1.7-1.7,4.5-1.7,6.1c0,5.8,4.8,10.6,10.6,10.6v0h18.6V68.1H22.1L18.9,73.9z"/>
	<path d="M27.4,54.1l6.9,4L23.6,38.6L1.3,39l6.8,3.9L2,53.6c-0.4,0.7-0.7,1.8-0.7,2.8c0,0.9,0.3,1.9,0.7,2.7L14.8,81
		c-0.1-0.7-0.1-1.2-0.1-1.6c0-1.7,0.8-4.5,1.8-6.3L27.4,54.1z"/>
	<path d="M35.3,6c-3.9,0-7,1.8-9,5.2l-9.3,16l19.5,11.3l12-20.8l-3.5-5.8C42.7,7.9,39.5,6,35.3,6z"/>
	<path d="M95.6,50l-9.3-16L66.8,45.1l12,20.8h6.7c2.1,0,4.3-0.5,5.8-1.3c3.3-1.8,5.6-5.7,5.6-9.4C97,53.3,96.5,51.6,95.6,50z"/>
	<path d="M85.8,68.3H64v-8L52.5,79.4L64,98.5v-7.9h11.9c2.1,0,4-1,5-2.8l12.6-22C91.4,67.5,88.8,68.3,85.8,68.3L85.8,68.3z"/>
	<path d="M73.3,33.7l10.8-19.4l-6.7,4L71.2,7.7c-1-1.7-2.8-2.7-5-2.7H41.1c2.4,1,4.5,2.9,6,5.5l10.9,19l-6.8,3.9L73.3,33.7z"/>
</g>
</svg>
