<?xml version="1.0" encoding="utf-8"?>
<!-- Generator: Adobe Illustrator 21.0.0, SVG Export Plug-In . SVG Version: 6.00 Build 0)  -->
<svg version="1.1" id="Layer_1" xmlns="http://www.w3.org/2000/svg" xmlns:xlink="http://www.w3.org/1999/xlink" x="0px" y="0px"
	 viewBox="0 0 100 100" style="enable-background:new 0 0 100 100;" xml:space="preserve">
<path d="M50,0C22.4,0,0,22.4,0,50s22.4,50,50,50s50-22.4,50-50S77.6,0,50,0z M41.2,5.9c2.8-0.6,5.5,1.3,6.1,4.1c0,0.1,0,0.2,0,0.3
	l0.1,0l1.7,25.4l0,0c0.1,1-0.5,1.9-1.5,2.1s-1.9-0.4-2.2-1.4l0,0l-8.2-24.1l0.1,0c0-0.1-0.1-0.2-0.1-0.3C36.6,9.1,38.4,6.4,41.2,5.9
	z M25,12.6c2.4-1.6,5.6-0.9,7.2,1.4c0.1,0.1,0.1,0.2,0.2,0.3l0.1,0l11.3,22.8l0,0c0.5,0.8,0.2,1.9-0.6,2.5s-1.9,0.4-2.5-0.4l0,0
	L23.7,20l0,0c-0.1-0.1-0.1-0.2-0.2-0.3C22,17.4,22.6,14.2,25,12.6z M12.6,25c1.6-2.4,4.8-3,7.2-1.4c0.1,0.1,0.2,0.1,0.3,0.2l0,0
	l19.1,16.8l0,0c0.8,0.6,1,1.7,0.4,2.5c-0.6,0.8-1.6,1.1-2.5,0.6l0,0L14.3,32.4l0-0.1c-0.1-0.1-0.2-0.1-0.3-0.2
	C11.6,30.6,11,27.4,12.6,25z M5.9,41.2c0.6-2.8,3.3-4.6,6.1-4.1c0.1,0,0.2,0.1,0.3,0.1l0-0.1l24.1,8.2l0,0c0.9,0.3,1.5,1.2,1.4,2.2
	s-1.1,1.6-2.1,1.5l0,0l-25.4-1.7l0-0.1c-0.1,0-0.2,0-0.3,0C7.1,46.7,5.3,44,5.9,41.2z M5.9,58.8c-0.6-2.8,1.3-5.5,4.1-6.1
	c0.1,0,0.2,0,0.3,0l0-0.1l25.4-1.7l0,0c1-0.1,1.9,0.5,2.1,1.5s-0.4,1.9-1.4,2.2l0,0l-24.1,8.2l0-0.1c-0.1,0-0.2,0.1-0.3,0.1
	C9.1,63.4,6.4,61.6,5.9,58.8z M20,76.2c-0.1,0.1-0.2,0.1-0.3,0.2c-2.4,1.6-5.6,0.9-7.2-1.4c-1.6-2.4-0.9-5.6,1.4-7.2
	c0.1-0.1,0.2-0.1,0.3-0.2l0-0.1l22.8-11.3l0,0c0.8-0.5,1.9-0.2,2.5,0.6s0.4,1.9-0.4,2.5l0,0L20,76.2L20,76.2z M32.3,85.7
	c-0.1,0.1-0.1,0.2-0.2,0.3c-1.6,2.4-4.8,3-7.2,1.4c-2.4-1.6-3-4.8-1.4-7.2c0.1-0.1,0.1-0.2,0.2-0.3l0,0l16.8-19.1l0,0
	c0.6-0.8,1.7-1,2.5-0.4s1.1,1.6,0.6,2.5l0,0L32.3,85.7L32.3,85.7z M49.1,64.3l-1.7,25.4l-0.1,0c0,0.1,0,0.2,0,0.3
	c-0.6,2.8-3.3,4.6-6.1,4.1c-2.8-0.6-4.6-3.3-4.1-6.1c0-0.1,0.1-0.2,0.1-0.3l-0.1,0l8.2-24.1l0,0c0.3-0.9,1.2-1.5,2.2-1.4
	S49.2,63.4,49.1,64.3L49.1,64.3z M94.1,41.2c0.6,2.8-1.3,5.5-4.1,6.1c-0.1,0-0.2,0-0.3,0l0,0.1l-25.4,1.7l0,0
	c-1,0.1-1.9-0.5-2.1-1.5s0.4-1.9,1.4-2.2l0,0l24.1-8.2l0,0.1c0.1,0,0.2-0.1,0.3-0.1C90.9,36.6,93.6,38.4,94.1,41.2z M80,23.8
	c0.1-0.1,0.2-0.1,0.3-0.2c2.4-1.6,5.6-0.9,7.2,1.4c1.6,2.4,0.9,5.6-1.4,7.2c-0.1,0.1-0.2,0.1-0.3,0.2l0,0.1L62.9,43.6l0,0
	c-0.8,0.5-1.9,0.2-2.5-0.6s-0.4-1.9,0.4-2.5l0,0L80,23.8L80,23.8z M67.7,14.3c0.1-0.1,0.1-0.2,0.2-0.3c1.6-2.4,4.8-3,7.2-1.4
	c2.4,1.6,3,4.8,1.4,7.2c-0.1,0.1-0.1,0.2-0.2,0.3l0,0L59.5,39.2l0,0c-0.6,0.8-1.7,1-2.5,0.4s-1.1-1.6-0.6-2.5l0,0L67.7,14.3
	L67.7,14.3z M50.9,35.7l1.7-25.4l0.1,0c0-0.1,0-0.2,0-0.3c0.6-2.8,3.3-4.6,6.1-4.1c2.8,0.6,4.6,3.3,4.1,6.1c0,0.1-0.1,0.2-0.1,0.3
	l0.1,0l-8.2,24.1l0,0c-0.3,0.9-1.2,1.5-2.2,1.4S50.8,36.6,50.9,35.7L50.9,35.7z M58.8,94.1c-2.8,0.6-5.5-1.3-6.1-4.1
	c0-0.1,0-0.2,0-0.3l-0.1,0l-1.7-25.4l0,0c-0.1-1,0.5-1.9,1.5-2.1s1.9,0.4,2.2,1.4l0,0l8.2,24.1l-0.1,0c0,0.1,0.1,0.2,0.1,0.3
	C63.4,90.9,61.6,93.6,58.8,94.1z M75,87.4c-2.4,1.6-5.6,0.9-7.2-1.4c-0.1-0.1-0.1-0.2-0.2-0.3l-0.1,0L56.4,62.9l0,0
	c-0.5-0.8-0.2-1.9,0.6-2.5s1.9-0.4,2.5,0.4l0,0L76.3,80l0,0c0.1,0.1,0.1,0.2,0.2,0.3C78,82.6,77.4,85.8,75,87.4z M87.4,75
	c-1.6,2.4-4.8,3-7.2,1.4c-0.1-0.1-0.2-0.1-0.3-0.2l0,0L60.8,59.5l0,0c-0.8-0.6-1-1.7-0.4-2.5c0.6-0.8,1.6-1.1,2.5-0.6l0,0l22.8,11.3
	l0,0.1c0.1,0.1,0.2,0.1,0.3,0.2C88.4,69.4,89,72.6,87.4,75z M94.1,58.8c-0.6,2.8-3.3,4.6-6.1,4.1c-0.1,0-0.2-0.1-0.3-0.1l0,0.1
	l-24.1-8.2l0,0c-0.9-0.3-1.5-1.2-1.4-2.2s1.1-1.6,2.1-1.5l0,0l25.4,1.7l0,0.1c0.1,0,0.2,0,0.3,0C92.9,53.3,94.7,56,94.1,58.8z"/>
</svg>
