<?xml version="1.0" encoding="utf-8"?>
<!-- Generator: Adobe Illustrator 21.0.0, SVG Export Plug-In . SVG Version: 6.00 Build 0)  -->
<svg version="1.1" id="Layer_1" xmlns="http://www.w3.org/2000/svg" xmlns:xlink="http://www.w3.org/1999/xlink" x="0px" y="0px"
	 viewBox="0 0 100 100" style="enable-background:new 0 0 100 100;" xml:space="preserve">
<style type="text/css">
	.st0{fill:none;stroke:#000000;stroke-width:4;stroke-miterlimit:10;}
</style>
<path d="M84.4,64.4L100,48.6L84.4,33.3V15.6h-18L50.6,0L35.3,15.6H15.6v20L0,51.4l15.6,15.3v17.7h18L49.4,100l15.3-15.6h19.7V64.4z
	 M94.7,48.6L84.4,59V38.6L94.7,48.6z M80.6,62.9L63.2,80.6H35.1L19.4,65.2V37.1l17.5-17.7h28.1l15.7,15.4V62.9z M80.6,19.4v10.2
	L70.3,19.4H80.6z M50.6,5.3L61,15.6H40.6L50.6,5.3z M19.4,19.4h12.2L19.4,31.7V19.4z M5.3,51.4L15.6,41v20.4L5.3,51.4z M19.4,80.6
	V70.5l10.3,10.2H19.4z M49.4,94.7L39,84.4h20.4L49.4,94.7z M68.5,80.6l12.1-12.3v12.3H68.5z"/>
<circle class="st0" cx="50" cy="50" r="9.5"/>
</svg>
