<?xml version="1.0" encoding="utf-8"?>
<!-- Generator: Adobe Illustrator 21.0.0, SVG Export Plug-In . SVG Version: 6.00 Build 0)  -->
<svg version="1.1" id="Layer_1" xmlns="http://www.w3.org/2000/svg" xmlns:xlink="http://www.w3.org/1999/xlink" x="0px" y="0px"
	 viewBox="0 0 100 100" style="enable-background:new 0 0 100 100;" xml:space="preserve">
<g>
	<path d="M99.7,33.4c-0.3-3.8-0.7-7.6-1.2-11.4c0.3,0.1,0.6,0.2,1,0.3c0.1-1.3-0.3-2.5-0.8-3.7c-0.2-0.4-0.4-0.9-0.8-1.2
		c-0.6,0-1.3,0.5-1.3,1.1c-0.1,0.7,0,1.4,0.1,2.1c0.5,5.6,1.1,11.2,1.7,16.8c0.2,1.4,0.2,2.9-0.1,4.3c-0.3-0.9-0.5-1.7-1-2.5
		c-1.2-1.9-3-3.4-4.7-4.9c-0.4-0.3-0.4-0.7-0.4-1.1c-0.2-3.7-0.6-7.3-0.9-11c0.3,0.1,0.6,0.2,0.9,0.2c0.1-0.6-0.2-1.4,0.4-1.9
		c1.1-0.9,2.2-2,2.5-3.5c-1.3,0.6-2.3,1.5-3.4,2.4v0c-0.3-0.6-0.6-1.4-1.2-2c-0.6,0-1.3,0.5-1.3,1.1c-0.1,0.7,0.1,1.5,0,2.2
		c0,0.7-0.7,1-1.2,1.4c-1.2,0.9-2.3,1.9-3.5,2.8c-0.1-1-0.2-1.9-0.3-2.9c0.3,0.1,0.6,0.1,1,0.2c0-0.5,0-1.1-0.1-1.6
		c-0.3-1.2-0.8-2.4-1.5-3.3c-0.4,0.2-0.8,0.3-1.1,0.6C81.9,18.5,82,19,82,19.5c0.1,1.3,0.3,2.5,0.3,3.8c-0.6-0.6-1.1-1.1-1.8-1.6
		c-0.9-0.7-1.9-1.4-3.1-1.6c-0.1,0.6-0.3,1.3-0.1,1.9c0.3,0.9,1,1.5,1.6,2.2c1,1,2,2,2.9,3c-0.8,0.8-1.7,1.4-2.5,2.2
		c-0.7,0.6-1.5,1.3-2.3,1.9c-0.3-3-0.6-6-1-9c0.3,0.1,0.6,0.3,0.9,0.4c0.1-0.5,0.2-1,0-1.5c-0.2-1-0.6-2-1.1-2.9
		c-0.2-0.2-0.3-0.5-0.6-0.5c-0.7,0-1.2,0.7-1.2,1.4c0,1.2,0.2,2.3,0.3,3.5c0.3,3.2,0.5,6.4,0.9,9.6c0,0.3,0.1,0.6-0.1,0.8
		c-0.2,0.2-0.5,0.4-0.7,0.7c-1.1,0.9-2.2,1.9-3.3,2.9c-1.9-1.5-3.7-3-5.5-4.6c-0.2-0.2-0.4-0.4-0.6-0.6c-0.1-0.4-0.1-0.8-0.2-1.1
		c-0.2-2.7-0.5-5.3-0.7-8c0.3,0.1,0.6,0.2,0.9,0.3c0-0.5,0.1-1-0.1-1.5c-0.3-1.2-0.8-2.4-1.5-3.5c-0.4,0.1-0.8,0.3-1.1,0.6
		c-0.3,0.4-0.3,0.9-0.3,1.3c0.2,3.3,0.5,6.6,0.6,9.9c-1.2-1-2.2-2.1-3.1-3.4c0.4,0,0.8,0,1.3,0c-0.1-0.4-0.3-0.8-0.6-1.2
		c-0.7-0.7-1.5-1.4-2.3-1.9c-0.5-0.2-1-0.5-1.5-0.5c-0.5,0.4-0.3,1.1-0.2,1.5c0.4,1.2,1.2,2.2,2,3.2c1.3,1.6,2.8,3.1,4.3,4.5
		c0.4,0.3,0.4,0.8,0.5,1.2c0.3,3.9,0.6,7.7,0.9,11.6c0.1,0.7,0.2,1.4,0.3,2c0.5-0.5,0.8-1.2,0.8-1.9c0.5-3.5,0.2-7,0.1-10.6
		c1.5,1.3,2.9,2.5,4.4,3.8c-1.1,1.1-2,2.4-2.5,3.8c-0.2,0.8-0.4,1.8,0,2.6c0.6,0.9,0.1,2,0.4,2.9c0.3,1.2,1,2.4,2.2,3
		c0.7,0.4,1.7,0.6,2.5,0.1c0.7-0.4,1.1-1.2,1.4-2c0.5-1.3,0.8-2.8,1.8-3.7c0.5-0.5,1.2-0.7,1.9-0.8c0.4,0.9,0.6,1.8,1,2.6
		c0.4,0.7,1,1.3,1.8,1.4c0.7,0.1,1.5,0.2,2.3,0.1c1.4-0.1,2.7-1.2,3.2-2.5C86,44,86,42.5,85.8,41c-0.2-2.1-0.2-4.1-0.4-6.2
		c-0.1-1.5-0.3-3-0.4-4.6c1.5,1.3,2.9,2.7,4.4,4c0.4,0.3,0.7,0.7,0.7,1.2c0.2,2.5,0.4,5,0.6,7.5c0.1,1.2,0.2,2.3,0.4,3.5
		c0.4-0.4,0.7-1,0.8-1.6c0.4-2.7,0.3-5.4,0.2-8.1c2.4,1.7,4.1,4.3,5.1,7c-0.8,1.1-2,1.8-3.1,2.5c-1.2,0.8-2.4,1.4-3.8,2
		c-0.9,0.4-1.9,0.7-2.7,1.2c0.8,0.2,1.6,0.1,2.5,0c2-0.4,4-1.1,5.7-2.2c2.1-1.3,3.2-3.7,3.7-6.1C100.3,38.6,99.9,36,99.7,33.4z
		 M81.5,23.9c0.3,0,0.6,0,1,0c0,0.4,0,0.7,0,1.1C82.1,24.7,81.8,24.3,81.5,23.9z M68.8,41.2c0.6-0.8,1.3-1.6,2-2.3
		c0.6,0.5,1.3,1.1,1.4,1.9c0.1,0.4-0.3,0.7-0.6,0.9c-1,0.6-2.2,0.8-3.3,0.7C68.3,42,68.5,41.6,68.8,41.2z M84,44.9
		c-1.3,1.2-3.6,1.2-4.7-0.3c-0.6-0.8-0.8-1.8-1.3-2.7c-0.2-0.4-0.7-0.3-1.1-0.3c-1.2,0-2.2,0.8-2.8,1.8c-0.8,1.2-1.3,2.4-1.9,3.7
		c-0.3,0.6-0.7,1.3-1.4,1.5c-0.7,0.2-1.3-0.3-1.7-0.8c-0.6-0.9-0.8-2-1.1-3c1.6-0.2,3.3-0.4,4.5-1.4c1-0.8,1.4-2.3,1.1-3.5
		c-0.2-0.9-0.8-1.6-1.4-2.3c1-1,2.1-1.9,3.2-2.8c0.3,1.8,0.3,3.6,0.7,5.4c0.3-0.3,0.7-0.6,0.8-1.1c0.5-1.8,0.3-3.7,0.3-5.6
		c0-0.4,0.3-0.6,0.5-0.8c1.7-1.4,3.3-2.8,5-4.2c0.5,4.9,1,9.8,1.5,14.7C84.5,43.9,84.5,44.5,84,44.9z M85.4,28.2
		c-0.3-0.3-0.6-0.5-0.7-0.8c0-0.4,0.4-0.6,0.6-0.8l0,0c1.4-1.1,2.6-2.3,4-3.3c0.2,1.5,0.2,3,0.3,4.6c0.1,1.4,0.2,2.9,0.3,4.3
		C88.3,31,86.9,29.6,85.4,28.2z"/>
	<path d="M3.4,30.4c0.7-0.1,1.2-0.7,1.5-1.3c0.7-1.6,1.1-3.3,1.6-4.9c0.2-0.5,0.5-1,0.9-1.4c-0.2,1-0.6,2-0.6,3
		c-0.1,1.3,0.3,2.8,1.3,3.7c0.6,0.6,1.5,0.8,2.3,1c0.3,2.7,0.5,5.4,0.8,8.2c0.2,1.3,0.2,2.7,0.5,4c0.8-0.6,0.9-1.7,1-2.6
		c0.3-3.3-0.1-6.5-0.2-9.8c0.6-0.3,1.3-0.7,1.8-1.3c0.8-0.9,1.3-2.1,1.7-3.3c0.3,0.9,0.6,1.9,1.3,2.5c1.1,1.1,2.7,1.4,4.1,1.2
		c1.2-0.2,2.2-1.2,2.4-2.4c0.2-0.9,0.2-1.8-0.1-2.6c-0.4-1.4-1.6-2.4-1.7-3.9c0.3,0,0.6-0.1,1-0.1c-0.4-0.9-1-1.7-1.6-2.4
		c-0.2-0.2-0.5-0.6-0.8-0.4l0,0c-0.7,0.4-0.8,1.3-0.7,1.9c0.4,1.8,1.3,3.3,2.1,4.9c0.3,0.7,0.6,1.5,0.4,2.3
		c-0.1,0.4-0.4,0.8-0.8,0.8c-0.8,0.1-1.7,0-2.5-0.4c-0.9-0.5-1.6-1.4-1.9-2.4c-0.4-1.2-0.2-2.4-0.4-3.6c-0.2-0.9-0.3-1.8-0.7-2.7
		c-0.1-0.2-0.3-0.5-0.5-0.4c-0.6,0.2-1.1,0.9-1,1.6c0.2,0.7,0.5,1.4,0.7,2.1c0.5,1.7,0.3,3.5-0.7,5c-0.5,0.8-1.3,1.3-2.1,1.5
		c-0.2-2-0.4-4.1-0.6-6.1c0.3,0.1,0.6,0.1,1,0.2c0-1.8-0.7-3.5-1.7-4.9c-0.5,0.2-1.2,0.4-1.3,1c-0.2,0.9,0,1.8,0.1,2.7
		c0.2,2.4,0.4,4.8,0.5,7.1c-0.6-0.2-1.2-0.3-1.6-0.9C8.1,26.8,8,25.9,8,25.1c0.1-1.8,0.8-3.4,1-5.1c-1.4,0.3-2.4,1.5-3,2.8
		c-0.6,1.5-1.1,3.1-1.6,4.7c-0.2,0.4-0.3,0.9-0.6,1.2c-0.6,0.5-1.6,0.6-2.2,0c-0.4-0.3-0.5-0.9-0.6-1.4c-0.2-0.8-0.3-1.7-0.2-2.5
		c0.1-0.6,0.4-1.1,0.7-1.6c-0.5,0.3-1,0.6-1.3,1.1C-0.1,25.2,0,26.3,0,27.2c0.1,0.9,0.3,2,1,2.6C1.6,30.5,2.6,30.6,3.4,30.4z"/>
	<path d="M57.7,21.4c0.4-0.3,0.6-0.8,0.7-1.2c-0.6,0.1-1.2,0.2-1.8,0.3c0-0.4,0-0.9,0.3-1.3c0.3-0.5,0.7-1.1,0.9-1.7
		c-0.9,0.4-1.6,1.1-2.1,1.9h0C55.4,20,55.5,21,56,21.5C56.5,22,57.2,21.7,57.7,21.4z"/>
	<path d="M25.3,43c1.3-1.7,2.1-3.7,2.2-5.8c0-1,0.6-1.8,1-2.7c0.4,0.5,0.8,1.1,1.4,1.3c0.6,0.2,1.3,0.1,1.8-0.2
		c0.9-0.4,1.7-1.2,1.9-2.2c0.2-0.9,0.3-1.8,0-2.7c-0.1-0.3-0.5-0.4-0.7-0.5c-0.2,0.9-0.4,1.8-0.4,2.7c-0.7,0.5-1.6,0.9-2.4,0.3
		c-0.5-0.5-0.3-1.3-0.3-1.9c-1.2,0.3-1.8,1.3-2.4,2.2c-0.2-1.2-0.3-2.4-0.4-3.5c1.5-0.8,3-1.5,4.5-2.3c0.4-0.2,0.6-0.6,0.8-1
		c-0.5,0-1,0.1-1.4,0.3c-1.4,0.6-2.7,1.4-4,2.1c-0.3-2.4-0.7-4.7-1-7.1c0.3,0.1,0.6,0.2,0.9,0.3c0.1-0.5,0.1-1,0-1.5
		c-0.3-1.2-0.8-2.5-1.6-3.5c-0.4,0.2-0.9,0.3-1.1,0.7l0,0c-0.3,0.5-0.2,1.1-0.2,1.6c0.4,3.9,0.9,7.7,1.4,11.6
		c0.2,1.2,0.3,2.3,0.4,3.5c-0.5,0-1,0-1.4-0.4c-0.6-0.6-0.5-1.4-0.5-2.2c-1.4,0.6-2.4,1.9-3.8,2.4c-0.5-0.9-1-1.8-2-2.3
		c-1-0.4-2.2-0.5-3.1,0.2c-0.7,0.6-1.2,1.5-1.3,2.5c-0.1,0.7-0.1,1.5,0.4,2.1c0.5,0.6,1.3,0.7,2,0.8c1.2,0,2.2-0.5,3.3-0.7
		c0,0.5,0.1,1-0.2,1.4c-0.5,0.9-1.4,1.4-2.2,2c-2.1,1.4-4.4,2.5-6.8,3.5c-1,0.4-2,0.9-3.1,1.2c-0.6-2-0.6-4.2-0.1-6.3
		c0.2-1,0.8-1.8,1.2-2.7c-0.5,0.5-1,1.1-1.4,1.7c-1.4,2.4-2,5.3-1.5,8c-1.5,0.6-3.1,1-4.6,1.5c1.3,0.2,2.5,0.2,3.8,0.1
		c0.5,0,1.1-0.1,1.6,0c0.4,0.2,0.8,0.6,1.2,0.9c1,0.6,2.1,0.8,3.2,0.9c2.1,0.1,4.1-0.4,6-0.9C19.8,47.6,23.1,45.9,25.3,43z
		 M15.5,35.5c-0.2-0.1-0.5-0.3-0.4-0.5h0c0.2-0.5,0.8-0.5,1.2-0.5c0.7,0,1.2,0.5,1.6,1C17.1,35.6,16.2,35.8,15.5,35.5z M8.9,47.1
		c1-0.4,2.1-0.9,3-1.4c2.1-1.1,4.3-2.1,6.2-3.7c1-0.8,1.9-1.8,2.3-3.1c0.3-0.7,0.2-1.5,0.2-2.3h0c0.6-0.4,1.2-0.9,1.7-1.4
		c0.3,0.5,0.6,1.2,1.2,1.5c0.7,0.4,1.5,0.4,2.3,0.4c0,0.6,0,1.3-0.2,1.9c-0.3,1.2-1,2.4-1.9,3.2c-1.5,1.5-3.3,2.5-5.3,3.3
		c-1.8,0.7-3.7,1.3-5.7,1.4C11.5,46.9,10.2,47.2,8.9,47.1z"/>
	<path d="M43.2,19.9c0.3,0.5,0.2,1.1,0.3,1.7c0.1-0.4,0.3-0.7,0.3-1.2c0.1-0.9-0.4-1.8-1.1-2.3c-0.3-0.2-0.8-0.3-1.1,0
		c-0.2,0.1-0.2,0.5,0,0.6C42.1,19.2,42.8,19.3,43.2,19.9z"/>
	<path d="M33.6,28.3c-0.8-1.4-0.3-3.1-0.3-4.7c-0.6,1.1-0.8,2.3-0.9,3.5c0,0.8,0.1,1.6,0.5,2.3c0.5,0.7,1.4,1.1,2.3,1
		c0.9-0.1,1.6-0.7,2-1.5c0.9-1.5,1.1-3.3,1.8-4.9c0.2-0.5,0.5-0.9,0.8-1.3c-0.2,1.5-0.8,2.9-0.7,4.4c0,1,0.6,2,1.5,2.6
		c1.4,1,3.4,1.1,4.9,0.2c1.5-0.8,2.3-2.4,2.8-4c0.3,0.8,0.5,1.5,1,2.1c1.3,1.8,4.3,2.1,5.8,0.4c0.8-0.9,1-2.1,0.8-3.3
		c-0.2-1-0.7-1.9-1.1-2.8c-0.3-0.7-0.5-1.3-0.6-2c0.3,0,0.7,0,1.1,0c-0.5-1-1.2-1.9-2.2-2.4c-0.4-0.2-0.7,0.2-0.7,0.5h0
		c-0.2,0.9,0.1,1.8,0.4,2.6c0.6,1.7,1.8,3.1,2.1,4.8c0.1,0.5,0,1.2-0.5,1.5c-0.8,0.4-1.9,0.3-2.8-0.1c-1-0.4-1.5-1.4-1.9-2.3
		c-0.6-1.6-0.6-3.4-0.8-5c-0.1-0.7-0.4-1.4-0.8-2c-0.5,0.3-1,0.8-1.1,1.4c-0.2,0.6,0.3,1.2,0.5,1.7c0.6,1,0.5,2.2,0.5,3.3
		c-0.1,1.9-1.4,3.6-3.1,4.2c-1.3,0.3-2.8,0.1-3.8-0.9c-0.8-1-0.7-2.3-0.5-3.5c0.3-1.3,1-2.5,1-3.9c-0.4,0.1-0.8,0.1-1.1,0.3
		c-0.6,0.4-0.9,1.1-1.3,1.7c-0.8,1.5-1.4,3.2-1.9,4.8c-0.3,0.8-0.6,1.6-1.3,2C35,29.5,33.9,29.1,33.6,28.3z"/>
	<path d="M68.1,20.3c0.3,0.4,0.4,0.9,0.6,1.3c0.3-0.9,0.5-1.9,0.9-2.7c0.3,0.1,0.7,0.3,1.1,0.4c0.2-0.1,0.4-0.4,0.3-0.7
		c-0.3-0.6-1-0.8-1.6-0.5c-0.5,0.3-0.5,0.9-0.7,1.4c-0.3-0.5-0.7-1-1.2-1.2c-0.4-0.1-0.8,0.3-0.7,0.7C67.2,19.5,67.8,19.8,68.1,20.3
		z"/>
	<path d="M2.2,22c0.4-0.3,0.6-0.8,0.8-1.3c-0.6,0.2-1.2,0.3-1.8,0.4c0-0.4,0-0.9,0.3-1.3c0.3-0.6,0.7-1.1,0.9-1.7
		c-0.9,0.4-1.8,1.1-2.2,2.1c-0.3,0.7-0.2,1.6,0.4,2.1C1.1,22.6,1.8,22.4,2.2,22z"/>
	<path d="M35,20.6c0.3,1.2-0.7,2-0.8,3.1c-0.1,0.6,0.6,1.2,1.2,0.9c0.5-0.2,0.4-0.8,0.5-1.3c-0.3,0.1-0.6,0.3-0.8,0.4
		c0.1-0.9,0.7-1.5,0.9-2.3c0.2-0.5-0.1-1-0.4-1.4c-0.3-0.4-0.4-0.9-0.6-1.3c-0.4-0.6-1.6-0.6-1.8,0.2c-0.1,0.6,0.6,1,1,1.4
		c-0.3,0.5-0.6,1.1-1.1,1.5c-0.7,0.7-1.6,1.2-2.4,1.8C32.4,23.4,33.9,22.1,35,20.6z M33.9,18.8c0.3,0.1,0.6,0.3,0.7,0.6
		C34.3,19.3,34.1,19.1,33.9,18.8z"/>
	<path d="M29.6,23c0.3-1.2-0.1-2.6-1.1-3.5c-0.3-0.3-0.8-0.2-1.2-0.1c0.4,0.8,1.2,1.3,1.6,2.2C29.3,22,29.4,22.5,29.6,23z"/>
	<path d="M17.8,21.8c0.6-0.1,1.2-0.3,1.9-0.4c0.1-0.6-0.1-1.1-0.5-1.5c0,0.4,0,0.7,0,1.1c-0.2,0-0.4,0-0.6,0.1
		c-0.1-0.3-0.1-0.6-0.2-0.9c-0.1,0-0.2,0-0.4,0c0,0.3,0,0.7,0,1c-0.2,0.1-0.3,0.1-0.5,0.2c-0.1-0.4-0.3-0.8-0.4-1.1
		C17.1,20.6,17,21,17,21.4C17.1,21.7,17.4,21.9,17.8,21.8z"/>
	<path d="M67.2,24.3c-0.2-0.3-0.3-0.6-0.5-0.9c1.7-0.9,3.5-1.4,5.3-2.1c0.4-0.1,0.6-0.4,0.9-0.7c-0.5,0-1.1,0-1.5,0.2h0
		c-1.5,0.5-3,1.1-4.5,1.6c-0.3,0.1-0.6,0.3-0.9,0.5c-0.3,0.2-0.3,0.8,0,1C66.3,24.2,66.8,24.2,67.2,24.3z"/>
	<path d="M43.8,23.4c-0.2-0.5-0.1-1-0.2-1.5C43.4,22,43,22,43,22.4c-0.2,0.6-0.2,1.2-0.3,1.8c-0.3-0.1-0.7-0.1-0.8-0.5
		c-0.1-0.5,0.1-1.1,0.1-1.6c-0.4,0.3-0.8,0.6-0.8,1.2c-0.2,0.8,0.3,1.8,1.2,1.9c0.5,0.1,0.8-0.3,1.2-0.6c0.4,0.3,1,0.7,1.5,0.5
		c0.7-0.1,0.9-1,0.6-1.6c-0.3-0.6-0.5-1.2-0.5-1.8c-0.2,0.1-0.4,0.2-0.6,0.4c0,0.7,0.3,1.3,0.2,2C44.4,23.9,43.9,23.8,43.8,23.4z"/>
	<path d="M17.8,22.9c0.1,0.6,0.5,1,0.9,1.3c0.7,0.6,0.9,1.5,1.2,2.3c0.3-1.2-0.1-2.5-1-3.4C18.6,22.9,18.2,22.9,17.8,22.9z"/>
	<path d="M67.7,27.1c-0.1,0.7,0.2,1.7,1,1.8c0.5,0.1,1-0.2,1.4-0.5c0.5,0.3,1.1,0.7,1.7,0.4c0.6-0.2,0.6-1.1,0.4-1.6
		c-0.3-0.5-0.5-1.1-0.5-1.7c-0.2,0.2-0.5,0.3-0.6,0.5c0.1,0.6,0.2,1.2,0.3,1.8c-0.3-0.1-0.7-0.1-0.9-0.4c-0.3-0.5-0.2-1.1-0.2-1.7
		c-0.2,0.1-0.5,0.2-0.6,0.3c-0.3,0.6-0.2,1.2-0.3,1.9c-0.3-0.1-0.7,0-0.9-0.4c-0.2-0.6,0.1-1.1,0.2-1.7
		C68.2,26.2,67.8,26.6,67.7,27.1z"/>
	<path d="M93,26.1c-0.4,0-0.7,0.4-0.6,0.8c0.3,0.4,0.8,0.5,1.2,0.8c0.9,0.7,0.9,1.9,1.1,2.9c0.4-1.1,0.2-2.4-0.4-3.5
		C94.2,26.7,93.7,26.1,93,26.1z"/>
	<path d="M57.2,30.9c-0.7,0.6-1.5,0.8-2.3,1.2c1.2,0,2.4-0.5,3.2-1.4c0.4-0.5,0.5-1.4,0-1.9c-0.4-0.1-0.9,0-1.2,0.3v0
		c-0.2,0.3-0.4,0.6-0.5,1c0.3,0,0.7-0.1,1.1-0.2C57.4,30.2,57.5,30.7,57.2,30.9z"/>
	<path d="M67.9,33.3c0.1,0.2,0.2,0.3,0.3,0.5c1.8-0.9,3.6-1.9,5.5-2.7c0.5-0.2,1.1-0.5,1.3-1.1c-0.2-0.2-0.5-0.1-0.7,0h0
		c-1.1,0.4-2,0.9-3.1,1.4C70,31.9,68.9,32.5,67.9,33.3z"/>
	<path d="M63.4,39.8c-0.3,0-0.6-0.1-0.9-0.1c-4.7,0-9.4,0.1-14.2,0.1c1.7-1.3,3.6-2.4,5.7-2.8c0.2,0.5,0.4,0.9,0.6,1.4
		c0.6-0.3,0.7-1,0.7-1.6c0.9-0.1,1.9,0,2.5-0.8c0.3-0.4,0.5-0.8,0.6-1.3c-0.2-0.7-0.9-1.1-1.5-1.4c-0.9-0.5-2-1-3.1-1
		c-1,0-1.8,0.9-2.1,1.7c-0.2,0.8,0.5,1.3,0.9,1.7c-1.7,0.5-3.3,1.2-4.9,2c-1,0.5-2.1,1.1-2.7,2.2c-0.3,0.5-0.3,1-0.4,1.5
		c1.3,0.2,2.7,0.1,4.1,0.1c1.7,0,3.4,0,5,0c-2.1,0.7-4.1,1.4-5.9,2.6c-0.6,0.4-0.7,1.1-0.9,1.7c-0.6-0.3-1.3-0.7-1.7-1.2
		c-0.7-0.8-0.8-1.9-1.1-2.9c-0.4-2-0.5-4-1.2-5.9c-0.6-2-1.9-3.8-3.3-5.4c-0.2,0.3-0.5,0.5-0.5,0.9v0c-0.1,0.9,0.2,1.8,0.5,2.6
		c1.1,2.1,2.2,4.3,2.8,6.6c-2.4,1.9-4.7,4-7.5,5.3c-0.8,0.3-1.6,0.6-2.4,0.6c-0.4,0-0.8-0.2-1.2-0.4c2-1.5,4.2-3,5.9-4.8
		c0.7-0.7,0.9-1.8,0.8-2.8c-0.2-1.3-0.9-2.4-1.4-3.5c0.2,0,0.5-0.1,0.7-0.1c-0.6-1.2-1.4-2.4-2.5-3.1c-0.2,0.3-0.5,0.6-0.5,1.1
		c-0.1,1.3,0.4,2.5,0.9,3.7c0.3,0.8,0.7,1.5,1,2.4c0.2,0.6-0.3,1.1-0.7,1.5c-1.4,1.4-3,2.5-4.6,3.5c0.2-1.2,0.7-2.3,1.2-3.4
		c-0.7,0.5-1.4,1.1-1.8,2c-0.4,0.7-0.4,1.4-0.7,2.2c-0.2,0.3-0.6,0.5-1,0.7c-2.7,1.4-5.5,2.7-8.3,3.9c-0.8,0.3-1.7,0.7-2.6,1.1
		c1.6,0,3.2-0.2,4.8-0.5c2.6-0.5,5-1.6,7.3-2.8c0.3,0.6,0.5,1.4,1.1,1.8c0.9,0.5,2,0.4,2.9,0c2.5-1.1,4.9-2.5,6.9-4.4
		c0.7-0.7,1.4-1.5,2-2.4c0.2,1.5,0.5,3.1,1.4,4.4c1.2,1.8,3.2,2.8,5.2,3.2c0.7,0.1,1.5,0.3,2.3,0.1c0.6-0.4,0.6-1.2,0.4-1.9
		c-0.1-0.5-0.6-0.5-1-0.6c-1.2-0.2-2.3-0.5-3.4-0.9c0.4-0.5,0.8-1,1.4-1.2c1.5-0.8,3.2-1.2,4.9-1.5c2.2-0.4,4.5-0.9,6.7-1.4
		C61.9,41.7,63.2,41.1,63.4,39.8z M53.8,33.6c0.8,0,1.6,0.4,2.2,0.9c-0.5,0.4-1.2,0.9-1.9,0.7c-0.5-0.2-0.8-0.5-1.1-0.9
		C53,34,53.4,33.6,53.8,33.6z"/>
	<path d="M4.2,34.8c0.6-0.4,0.9-1.2,1.7-1.2c0.4-0.1,0.9-0.1,1-0.5c0.2-0.4-0.1-0.8-0.3-1.1c-0.5-0.6-1.2-1.3-2-1.2
		c-0.3,0-0.6,0.3-0.6,0.6v0c-0.1,0.7,0.2,1.3,0.4,1.9c-0.8,0.8-1.6,1.5-2.7,1.9C1,35.3,0.5,35.5,0.1,36C1.6,36.2,3,35.6,4.2,34.8z
		 M6.1,31.8c0.2,0.3,0.2,0.7,0.3,1.1c-0.3,0-0.6,0.1-0.8,0.1C5.7,32.6,5.8,32.1,6.1,31.8z M5.2,31.6c-0.1,0.3-0.3,0.7-0.4,1.1
		c-0.2-0.4-0.3-0.8-0.4-1.2C4.7,31.5,5,31.5,5.2,31.6z"/>
	<path d="M44.3,32.6c-0.2,0.8,0.3,1.7,1.1,1.9c0.5,0.1,0.9-0.3,1.3-0.7c0.2,0.1,0.4,0.3,0.6,0.5c0.7,0.4,1.8,0,1.7-0.9
		c-0.1-0.8-0.7-1.5-0.7-2.4c-0.2,0.1-0.5,0.2-0.6,0.4h0c0,0.7,0.5,1.3,0.2,2c-0.3-0.2-0.6-0.4-0.8-0.7c-0.2-0.5-0.1-1-0.2-1.5
		c-0.2,0.2-0.6,0.2-0.7,0.6c-0.1,0.6-0.2,1.3-0.4,1.9C45.5,33.5,45,33.4,45,33c-0.1-0.5,0.1-1,0.2-1.5
		C44.8,31.8,44.4,32.1,44.3,32.6z"/>
	<path d="M6.6,34.6c-1.5,0.8-3,1.6-4.5,2.5c-0.4,0.2-0.7,0.6-0.9,1.1c0.3,0,0.7,0.1,1-0.1C3.6,37.3,5,36.7,6.5,36
		c0.6-0.3,1.3-0.4,1.8-0.9c0.4-0.3,0.1-1-0.3-1C7.5,34.2,7,34.5,6.6,34.6z"/>
	<path d="M57.8,38.4c0.9,0,1.9,0,2.7-0.4c0.5-0.2,0.8-0.8,1.2-1.2c0.2,0,0.4,0,0.7-0.1c-0.4-0.6-0.5-1.3-0.6-2
		c-0.4,0.1-1,0.2-1.1,0.7c-0.1,0.6,0.4,1.2,0,1.8C60,38,58.8,38.1,57.8,38.4z"/>
	<path d="M81,35.8c-0.3,0-0.8,0-0.9,0.3c-0.2,0.7,0.1,1.5,0.3,2.2c-0.8,0.8-1.6,1.5-2.7,1.9c-0.6,0.2-1.2,0.4-1.5,0.9
		c1.9,0.2,3.8-0.7,5-2.1c0.4-0.5,1.2-0.3,1.6-0.6c0.3-0.4,0.2-1-0.1-1.3C82.3,36.5,81.8,35.9,81,35.8z M80.9,37.7
		c-0.2-0.4-0.3-0.9-0.3-1.3c0.2,0.1,0.5,0.1,0.8,0.2C81.3,37,81.1,37.4,80.9,37.7z M81.7,38c0.1-0.4,0.2-0.7,0.4-1.1
		c0.1,0,0.2,0,0.2,0c0.2,0.3,0.2,0.7,0.3,1C82.3,38,82,38,81.7,38z"/>
	<path d="M30.3,38.9c0.3,0.4,0.4,0.9,0.6,1.3c0.2-0.8,0.4-1.5,0.7-2.3c0.1-0.2,0.2-0.5,0.4-0.4c0.3,0.1,0.5,0.3,0.8,0.4
		c0.1-0.2,0.5-0.5,0.3-0.8c-0.3-0.6-1.2-0.8-1.7-0.3v0c-0.3,0.3-0.4,0.8-0.5,1.2c-0.4-0.4-0.8-0.9-1.4-1c-0.4-0.1-0.8,0.6-0.4,0.9
		C29.5,38.2,30,38.5,30.3,38.9z"/>
	<path d="M2.4,43.2C2.8,43,3,42.5,3.2,42c-0.6,0.1-1.2,0.2-1.8,0.2c0-0.4,0-0.9,0.3-1.3c0.3-0.5,0.7-1.1,0.9-1.7
		c-0.9,0.4-1.6,1.1-2.1,1.9h0c-0.4,0.7-0.3,1.6,0.2,2.3C1.2,43.8,1.9,43.6,2.4,43.2z"/>
	<path d="M42.9,45c-0.4-0.3-0.9-0.1-1.3,0c0,0.2,0,0.4,0.1,0.5c-0.4,0.2-0.9,0.5-1,1c-0.1,0.5,0.2,0.9,0.4,1.2
		c0.3,0.5,0.4,1.2,0.6,1.8c0.2-0.3,0.5-0.6,0.5-1c-0.1-0.6-0.6-1.1-0.7-1.8c0.5-0.4,1.2-0.2,1.7-0.5C43.4,45.8,43.3,45.2,42.9,45z"
		/>
	<path d="M61.3,45.7c-0.2,0.5-0.3,1.2,0.1,1.6c0.3,0.4,1.3,0.3,1.2-0.3c-0.2-0.4-0.5-0.7-0.7-1c0.1-0.5,0.4-0.9,0.5-1.3
		C62,44.9,61.5,45.1,61.3,45.7z"/>
	<path d="M55.2,47.3c-0.1,0.5,0.4,0.8,0.7,1c0.8,0.2,1.7,0.2,2.4-0.3c0.6-0.5,1.1-1,1.7-1.4c-0.7,0.1-1.4,0.5-2,0.8
		c-0.5,0.3-1.1,0.2-1.6,0.2c0-0.1,0-0.3-0.1-0.4c0.8-0.6,1.9-0.8,2.3-1.8C58,45,57.3,44.7,56.5,45c-0.5,0.1-0.7,0.6-1,1
		c0.4,0,0.7,0,1.1,0.1C56.1,46.4,55.5,46.7,55.2,47.3z"/>
	<path d="M76.8,47.8c0.3,0.5,0.3,1.1,0.4,1.7c0.4-0.8,0.4-1.8-0.1-2.6c-0.3-0.6-0.9-1.1-1.6-1c-0.4,0-0.6,0.5-0.3,0.8
		C75.7,47.2,76.4,47.3,76.8,47.8z"/>
	<path d="M88.8,47.2c0.4-0.1,0.7-0.5,1-0.9c-1-0.1-2,0.3-2.9,0.7v0c-1.5,0.6-3.1,1.2-4.5,2c0.1,0.1,0.1,0.3,0.2,0.4
		c0.5-0.1,1.1-0.3,1.5-0.5C85.6,48.4,87.2,47.8,88.8,47.2z"/>
	<path d="M83.7,78.5h-7.9v-0.8c0.4-0.3,0.8-0.7,0.8-1c0-0.4-1-1.3-1.2-1.3c-0.3,0-1.2,0.9-1.2,1.3c0,0.3,0.4,0.6,0.8,1l0,0v0.8H12.5
		c2.2,2.2,5.5,2.2,12.1,2.3c5.9,0.1,5.9,0.1,50.3,0v0.8c-0.4,0.3-0.8,0.7-0.8,1c0,0.4,0.9,1.3,1.2,1.3c0.2,0,0.8-0.5,1.1-0.9h2.7
		c0.2,0.3,0.6,0.5,1.1,0.5s0.9-0.2,1.1-0.5h3.3c0.4,0.5,1,0.5,1.3,0.5c1.3,0,1.5-0.7,1.5-2.9C87.5,78.7,86.2,78.5,83.7,78.5z
		 M84.3,82.2h-2.9c-0.2-0.3-0.6-0.5-1.1-0.5s-0.9,0.2-1.1,0.5h-2.7c-0.2-0.2-0.5-0.5-0.7-0.7v-0.8h8.4h0.1
		C84.2,81.3,84.2,81.8,84.3,82.2z"/>
</g>
</svg>
