<?xml version="1.0" encoding="utf-8"?>
<!-- Generator: Adobe Illustrator 24.0.0, SVG Export Plug-In . SVG Version: 6.00 Build 0)  -->
<svg version="1.2" baseProfile="tiny" id="Layer_1" xmlns="http://www.w3.org/2000/svg" xmlns:xlink="http://www.w3.org/1999/xlink"
	 x="0px" y="0px" viewBox="0 0 100 100" xml:space="preserve">
<path fill="#DA1F26" d="M48.4,98.3c-2.9-3.4-6.4-6-11.5-6.3c-2.6-0.1-7.5-0.4-9-0.8c-4.9-1.3-8.6-3-13-7.6
	c-3.8-4.4-6.3-11.1-7.1-20.1V1.8c13.9,0,27.8,0,41.7,0c13.9,0,27.8,0,41.7,0v61.6c-0.8,9-3.3,15.7-7.1,20.1c-4.4,4.7-8.1,6.3-13,7.6
	c-1.5,0.4-6.4,0.8-9,0.8c-5.1,0.3-8.6,2.8-11.5,6.3l-1.2,1.5L48.4,98.3z"/>
<path fill="#F4BD20" d="M36.3,65.8L36.3,65.8c0,0-4.8,7.8-10.7,12c0,0-2.8-1.8-5.7-0.5c-2.9,1.3-3.5,3-2,6.3c0,0,0.8-4.3,4.2-3.7
	c0,0-4.7,5,0.6,7.6c0,0-0.7-4.2,2-5c0,0-0.7,6.6,4.8,6.6c0,0-2.4-3.4-2-6.4c0.3-3,2-3,2.6-2.9c0.6,0.2,1.7,1.2,1.9,2.6
	c0,0,1.9-3.7-1.2-5.4c0,0,3.2-4.4,7.1-6C37,69.5,36.5,67.7,36.3,65.8L36.3,65.8z M62.9,65.8L62.9,65.8c0,0,4.8,7.8,10.7,12
	c0,0,2.8-1.8,5.7-0.5s3.5,3,2,6.3c0,0-0.8-4.3-4.2-3.7c0,0,4.7,5-0.6,7.6c0,0,0.7-4.2-2-5c0,0,0.7,6.6-4.8,6.6c0,0,2.4-3.4,2-6.4
	s-2-3-2.6-2.9c-0.6,0.2-1.7,1.2-1.9,2.6c0,0-1.9-3.7,1.2-5.4c0,0-3.2-4.4-7.1-6C62.1,69.5,62.7,67.7,62.9,65.8L62.9,65.8z M69.2,7.3
	c0.4,0.5,0.4,1.1,0.3,1.8c-0.9-0.4-4.5-1.7-7.6,0.2c0.3-1.6,1.4-2.8,2.4-3.8C64.8,5.5,68.1,5.8,69.2,7.3z M63.2,11.9
	c0.1,0,0.2-0.1,0.3-0.1c0.1,0,0.2,0,0.4,0c0.9,0,1.7,0.4,2.4,1l-3.9,0c-0.1-0.2-0.2-0.4-0.3-0.7c0,0,0,0,0,0
	C62.2,12.1,62.6,12,63.2,11.9L63.2,11.9L63.2,11.9z M66.3,11.4c-1.1-0.4-2.3-0.2-3,0c-0.6,0.1-1.2,0.2-1.5,0.4c0,0,0,0,0,0
	c-0.1-0.2-0.1-0.5-0.2-0.7c0,0,0,0,0,0c1.1-0.8,2.3-1.1,3.5-1.1c0,0,0,0,0,0c1.3,0,2.4,0.4,3.2,0.7l0.2,0.1c1,0.3,2,0.2,2.7,0.1
	C70.2,12,67.8,12,66.3,11.4z M37.4,9.3c-1.3-0.8-2.6-1-3.8-1c-1.8,0-3.3,0.6-3.9,0.8c-0.2-0.7-0.1-1.3,0.3-1.8
	c1.1-1.5,4.4-1.8,4.9-1.8C36,6.5,37.1,7.8,37.4,9.3z M34,9.8L34,9.8l0,0.2c0,0,0,0,0,0c1.3,0,2.4,0.4,3.5,1.1c0,0,0,0,0,0
	c0,0.2-0.1,0.5-0.2,0.7c0,0,0,0,0,0c-0.4-0.2-0.9-0.3-1.5-0.4c-0.7-0.2-1.8-0.4-3,0c-1.4,0.5-3.9,0.6-5-0.6c0.6,0.1,1.7,0.3,2.7-0.1
	l0.2-0.1c0.8-0.3,1.9-0.7,3.2-0.7L34,9.8z M37.2,12.2c-0.1,0.2-0.2,0.4-0.3,0.7l-3.9,0c0.7-0.7,1.5-1,2.4-1c0.1,0,0.3,0,0.4,0
	c0.1,0,0.2,0.1,0.3,0.1l0,0l0,0C36.5,12,36.9,12.1,37.2,12.2C37.2,12.2,37.2,12.2,37.2,12.2z"/>
<path fill="#FFFFFF" d="M47.9,31.8v13.9H35.7V49h12.2v12.4l1.7,1.9l1.7-1.9V49h12.2v-3.3H51.2V31.8C50.1,31.8,49,31.8,47.9,31.8z
	 M46.1,42.6c0,0-0.8,0.1-1.5,0.5C43.9,43.4,42,44,40.7,43c-1.3-0.9-0.7-2.5,0.3-2.6c0,0,0,1.3,1.1,1.5c1,0.2,1.7-0.5,1.8-1.3
	c0-0.9-0.7-1.4-1.5-1.7c0.7-0.3,1.5-0.9,1.5-1.7c0-0.9-0.8-1.5-1.8-1.3C40.9,36,41,37.4,41,37.4c-1-0.1-1.6-1.7-0.3-2.6
	c1.3-0.9,3.2-0.4,3.9-0.1c0.7,0.4,1.5,0.5,1.5,0.5V42.6z M53.1,42.6c0,0,0.8,0.1,1.5,0.5c0.7,0.4,2.6,0.9,3.9-0.1
	c1.3-0.9,0.7-2.5-0.3-2.6c0,0,0,1.3-1.1,1.5c-1,0.2-1.7-0.5-1.8-1.3c0-0.9,0.7-1.4,1.5-1.7c-0.7-0.3-1.5-0.9-1.5-1.7
	c0-0.9,0.8-1.5,1.8-1.3c1.2,0.2,1.1,1.5,1.1,1.5c1-0.1,1.6-1.7,0.3-2.6c-1.3-0.9-3.2-0.4-3.9-0.1c-0.7,0.4-1.5,0.5-1.5,0.5V42.6z
	 M46.1,51.7c0,0-0.8-0.1-1.5-0.5c-0.7-0.4-2.6-0.9-3.9,0.1c-1.3,0.9-0.7,2.5,0.3,2.6c0,0,0-1.3,1.1-1.5c1-0.2,1.7,0.5,1.8,1.3
	c0,0.9-0.7,1.4-1.5,1.7c0.7,0.3,1.5,0.9,1.5,1.7c0,0.9-0.8,1.5-1.8,1.3c-1.2-0.2-1.1-1.5-1.1-1.5c-1,0.1-1.6,1.7-0.3,2.6
	c1.3,0.9,3.2,0.4,3.9,0.1c0.7-0.4,1.5-0.5,1.5-0.5V51.7z M53.1,51.7c0,0,0.8-0.1,1.5-0.5c0.7-0.4,2.6-0.9,3.9,0.1
	c1.3,0.9,0.7,2.5-0.3,2.6c0,0,0-1.3-1.1-1.5c-1-0.2-1.7,0.5-1.8,1.3c0,0.9,0.7,1.4,1.5,1.7c-0.7,0.3-1.5,0.9-1.5,1.7
	c0,0.9,0.8,1.5,1.8,1.3c1.2-0.2,1.1-1.5,1.1-1.5c1,0.1,1.6,1.7,0.3,2.6c-1.3,0.9-3.2,0.4-3.9,0.1c-0.7-0.4-1.5-0.5-1.5-0.5V51.7z
	 M58.6,62.9c1.7-0.3,2.9-1.1,3.5-1.6c0.9,3.6,0.2,7.8-1.8,10.7C60.3,68.4,59.6,64.9,58.6,62.9z M66,65.1c-1.3-0.5-2.7-3.3-3.2-4.5
	c0.8-1,1.3-1.8,1.7-2.7C64.8,60.3,65.3,62.7,66,65.1z M64.5,27.5c3.4-1.2,5.3-3.8,5.6-8.2c0.3-3.4,1.1-6,2.5-7.5
	c0.8-1,1.9-1.6,3.1-1.8c0.2,1.4,1,6.5-0.2,10.8c-1.5,5.4-5.9,9.2-10.7,9.2h0h-0.2v0c-1.5,0-2.9,0-4.4,0
	C60.6,29.2,61.7,28.4,64.5,27.5z M54,63.4c0.9-0.3,1.9-0.4,3-0.4c0.3,0,0.6,0,0.9,0c0.9,1.7,1.7,5.2,1.8,9.2
	C56.6,69.4,54.9,65.9,54,63.4z M56.5,20.3c-0.1,2.6,0.1,6,2.3,9.5c-1.1-0.1-3.4-0.3-5.6-1.2c1.4-1.7,1.8-3.6,1.4-5.7
	c-0.3-1.2-0.8-2.5-1.7-3.9C54,19.5,55.1,19.9,56.5,20.3z M51.7,75.1c0.9-3.3,1.5-6.8,1.8-9.1c0.8,5.2,2.1,9.3,3.9,12.5
	c2.1,3.7,4.9,6,8.5,7c-1.6,0.4-4.6,0.8-7.5-0.7C55.2,83.3,53,80,51.7,75.1z M38.1,6.3c-0.2,0-0.4-0.2-0.4-0.4c0-0.2,0.2-0.4,0.4-0.4
	c0.2,0,0.4,0.2,0.4,0.4C38.5,6.1,38.3,6.3,38.1,6.3z M61.1,5.5c0.2,0,0.4,0.2,0.4,0.4c0,0.2-0.2,0.4-0.4,0.4c-0.2,0-0.4-0.2-0.4-0.4
	C60.7,5.7,60.8,5.5,61.1,5.5z M43.7,7.3c2.7,2.9,4.5,5.3,5.5,7.7l0,0c-0.1,0.2-0.3,0.4-0.4,0.6c-0.4,0.5-0.7,0.9-1,1.2l0,0l-0.1,0.1
	c-1.2,1.2-2.8,2-4.9,2.5l0,0l-0.5,0.1c-0.3,0.1-0.5,0.1-0.9,0.1c0.8-1.1,0.9-2.5,0.3-3.8c-0.7-1.7-2.3-2.9-4-3.1
	c0.6-1.4,0.7-2.8,0.2-4.3c-0.4-1-1.1-2.1-2.2-3.1c0.5-0.1,1.1-0.2,1.8-0.3C37.1,5.3,37,5.6,37,5.9c0,0.6,0.5,1.1,1.1,1.1
	c0.6,0,1.1-0.5,1.1-1.1c0-0.1,0-0.2,0-0.3c0.1,0.1,0.2,0.1,0.3,0.2c0.8,0.6,2.2,1.3,3.7,1.3c0.1,0,0.1,0,0.2,0
	C43.5,7.2,43.6,7.3,43.7,7.3z M34.7,4.7C34.2,4,35.2,3,37.2,2.8c1.2-0.1,2.3,0,3.3,0.5c1,0.4,2.1,0.5,3.4,0.6
	c1.4,0.1,2.5-0.1,3.5-0.5c-0.9,1.9-2.2,2.9-4.1,3.2c-0.2,0-0.5,0-0.7,0c0,0,0,0,0,0c0,0,0,0,0,0c0,0-0.1,0-0.1,0c0,0-0.1,0-0.1,0
	c0,0-0.1,0-0.1,0c0,0-0.1,0-0.1,0c0,0-0.1,0-0.1,0c0,0-0.1,0-0.1,0c0,0-0.1,0-0.1,0c-0.1,0-0.1,0-0.2-0.1c0,0-0.1,0-0.1,0
	c0,0-0.1,0-0.1,0c0,0-0.1,0-0.1,0c0,0-0.1,0-0.1,0c0,0-0.1,0-0.1,0c0,0-0.1,0-0.1-0.1c0,0-0.1,0-0.1,0c-0.1,0-0.1,0-0.1-0.1
	c0,0,0,0-0.1,0c-0.1,0-0.1-0.1-0.2-0.1c0,0,0,0-0.1,0c0,0-0.1,0-0.1-0.1c0,0,0,0-0.1,0c0,0-0.1,0-0.1-0.1c0,0,0,0-0.1,0
	c0,0-0.1-0.1-0.1-0.1c0,0,0,0,0,0c0,0-0.1-0.1-0.1-0.1c-0.1-0.1-0.1-0.1-0.2-0.2c0,0,0,0-0.1,0C38.4,4.4,36.8,4.2,34.7,4.7z M50,15
	L50,15c1-2.3,2.8-4.8,5.5-7.7c0.1-0.1,0.2-0.2,0.3-0.3c0.1,0,0.1,0,0.2,0c1.4,0,2.9-0.7,3.7-1.3c0.1-0.1,0.2-0.1,0.3-0.2
	c0,0.1,0,0.2,0,0.3c0,0.6,0.5,1.1,1.1,1.1c0.6,0,1.1-0.5,1.1-1.1c0-0.3-0.1-0.6-0.4-0.8c0.7,0,1.3,0.2,1.8,0.3
	c-1.1,1.1-1.8,2.1-2.2,3.1c-0.5,1.4-0.5,2.8,0.2,4.3c-1.7,0.2-3.3,1.5-4,3.1c-0.6,1.3-0.5,2.7,0.3,3.8c-0.3,0-0.6,0-0.9-0.1
	l-0.3-0.1l-0.2-0.1l0,0c-2.1-0.6-3.7-1.4-4.9-2.5l-0.1-0.1l0,0c-0.4-0.3-0.7-0.7-1-1.2C50.3,15.4,50.2,15.2,50,15z M49.4,16
	c0.1-0.1,0.2-0.2,0.2-0.3c0.1,0.1,0.2,0.2,0.2,0.3c1.2,2,1.9,6.4-0.2,9.7C47.4,22.4,48.2,18,49.4,16z M51.7,3.4
	c1,0.4,2.1,0.5,3.5,0.5c1.3-0.1,2.4-0.2,3.4-0.6c1-0.4,2.1-0.6,3.3-0.5C64,3,65,4,64.4,4.7c-2.1-0.5-3.6-0.3-4.8,0.5c0,0,0,0-0.1,0
	c-0.1,0-0.1,0.1-0.2,0.2c0,0-0.1,0.1-0.1,0.1c0,0,0,0,0,0c0,0-0.1,0.1-0.1,0.1c0,0,0,0-0.1,0c0,0-0.1,0-0.1,0.1c0,0,0,0-0.1,0
	c0,0-0.1,0-0.1,0.1c0,0,0,0-0.1,0c-0.1,0-0.1,0.1-0.2,0.1c0,0,0,0-0.1,0c0,0-0.1,0-0.2,0.1c0,0-0.1,0-0.1,0c0,0-0.1,0-0.1,0.1
	c0,0-0.1,0-0.1,0c0,0-0.1,0-0.1,0c0,0-0.1,0-0.1,0c0,0-0.1,0-0.1,0c0,0-0.1,0-0.1,0c-0.1,0-0.1,0-0.2,0.1c0,0-0.1,0-0.1,0
	c0,0-0.1,0-0.1,0c0,0-0.1,0-0.1,0c0,0-0.1,0-0.1,0c0,0-0.1,0-0.1,0c0,0-0.1,0-0.1,0c0,0-0.1,0-0.1,0c0,0,0,0,0,0c0,0,0,0,0,0
	c-0.2,0-0.5,0-0.7,0C54,6.4,52.6,5.3,51.7,3.4z M33.2,65.1c0.7-2.4,1.2-4.8,1.5-7.2c0.3,0.8,0.9,1.7,1.7,2.7
	C35.8,61.8,34.5,64.6,33.2,65.1z M40.3,29.7c2.2-3.5,2.4-6.9,2.3-9.5c1.4-0.3,2.5-0.8,3.5-1.4c-0.9,1.4-1.4,2.7-1.7,3.9
	c-0.4,2.1,0,4.1,1.4,5.7C43.7,29.4,41.3,29.7,40.3,29.7z M47.5,19.7c-0.2,2.5,0.3,4.8,1.6,6.6c0,0,0,0,0,0.1
	c-0.6,0.7-1.4,1.3-2.4,1.8c-2.3-2.7-2-6,1.1-10.3C47.6,18.5,47.5,19.1,47.5,19.7z M76.2,20.9c3.2,5.4,3.5,13.2,0.5,18.8
	c-1.7,3.1-5,6.8-11.5,7.1V30.6c2.5-0.1,4.8-1.1,6.8-2.9C74,26,75.5,23.6,76.2,20.9z M76.9,15.8c0-0.9,0-1.8-0.1-2.8
	c2.5,0.2,4.3,1.3,5.9,3.9c1.1,1.5,2.2,2.5,3.5,2.9c3.9,6.3,3.3,11.5,2.3,13.8c-1.6-5.5-3.3-9.5-5.1-12.4
	C81.5,18.2,79.4,16.4,76.9,15.8z M76.8,12.2c-0.1-1.1-0.2-1.9-0.3-2.4c0.5,0,0.9,0,1.4,0c2.7,0.1,5,1.2,7.5,5.8
	c1.2,2.2,2.5,3.2,3.4,3.6c-0.5,0.1-1.2,0.1-2,0l0,0l-0.2,0c-1.1-0.3-2.2-1.2-3.2-2.6C81.7,13.6,79.7,12.3,76.8,12.2z M37,61.2
	c0.7,0.5,1.8,1.3,3.5,1.6c-1,2.1-1.7,5.5-1.7,9.1C36.8,69.1,36.1,64.8,37,61.2z M44.6,29.8c1.8-0.5,3.7-1.4,5-2.8
	c1.3,1.5,3.2,2.3,5,2.8c-1.7,0-3.3,0-5,0C47.9,29.8,46.2,29.8,44.6,29.8z M42.2,63c1.1,0,2.1,0.1,3,0.4c-0.9,2.5-2.6,6-5.6,8.8
	c0-4,0.9-7.5,1.8-9.2C41.6,63,41.9,63,42.2,63z M50.1,26.3c1.3-1.8,1.8-4.2,1.6-6.6c-0.1-0.6-0.2-1.2-0.3-1.8
	c3.1,4.3,3.5,7.6,1.1,10.3C51.5,27.7,50.7,27.1,50.1,26.3C50.1,26.3,50.1,26.3,50.1,26.3z M23.7,20.6c-1.2-4.3-0.5-9.4-0.2-10.8
	c1.2,0.3,2.3,0.9,3.1,1.8c1.4,1.6,2.2,4.1,2.5,7.5c0.4,4.4,2.2,7.1,5.6,8.2c2.7,0.9,3.8,1.7,4.2,2.4c-1.5,0-2.9,0-4.4,0v0h-0.2
	C29.6,29.8,25.2,26,23.7,20.6z M33.4,85.4c3.5-1,6.3-3.3,8.3-7c1.8-3.1,3.1-7.2,3.9-12.5c0.3,2.3,0.9,5.8,1.8,9l0,0
	c-1.3,4.9-3.5,8.2-6.7,9.8C38,86.2,35,85.8,33.4,85.4z M67.2,47.3c1.4,3.7,1.7,7.5,1,11.3c-1.2-0.4-2.2-1.9-3.1-3.6
	c0.1-0.6,0.1-1.3,0.1-2.1v-5.4C65.9,47.5,66.6,47.4,67.2,47.3z M56.1,89.5c0.1,0.9,0.1,1.8-0.1,2.6c-0.8,0-1.9-0.5-2.7-1
	c0.1-0.6,0.4-1.8,0.3-3.6C54.4,88.4,55.2,89.1,56.1,89.5z M62.9,86.5c1.5,0,2.7-0.3,3.5-0.5c-2.2,3.2-5.3,4.2-9.5,3.1l0,0L56.7,89
	c-2.7-1.3-4.9-4.4-6.7-9.4c0.5-1,0.9-2.2,1.3-3.4c1.4,4.5,3.6,7.6,6.7,9.2C59.5,86.1,61.2,86.5,62.9,86.5z M77.6,58.9l0,7
	c-1.1-1.5-2.5-3-4.3-3.9c0.5-1.8,0.8-4.1,0.8-6.5C75.4,57.3,76.5,58.2,77.6,58.9z M72.5,61.9c-1.7,0.1-2.9-0.8-3.6-2.7
	c0.8-4,0.5-8-1-11.9c1.2-0.2,2.3-0.6,3.3-1.1C73.4,50.4,73.9,57.4,72.5,61.9z M53,63.7c-0.3,2.2-1.3,10.1-3.5,15
	c-2.2-4.9-3.2-12.8-3.5-15c1.4,0.6,2.5,1.6,3.1,2.8l0.3,0.7l0.3-0.7C50.5,65.3,51.6,64.3,53,63.7z M52.9,86.8
	c0.1,1.9-0.1,3.4-0.2,4.1l-0.1,0.4c-0.8,2-1.5,3.7-2.6,5V81.6C50.9,83.7,51.8,85.4,52.9,86.8z M46.3,86.7c1.1-1.3,2-3.1,2.9-5.1
	v14.7c-1.1-1.3-1.8-3-2.6-5C46.6,91.1,46.1,89.3,46.3,86.7z M88.1,34.7c1.4,4.8,1.3,9.6-0.1,14.2c-0.4-1.1-0.8-2.3-1.1-3.9
	c-1.6-8.4-4.3-14.7-7.9-18.8c-0.5-2.3-1.4-4.5-2.6-6.3c0.2-1,0.4-2.1,0.4-3.3c4.5,1.3,7.9,6.8,11.1,17.9l0,0L88.1,34.7z M87.7,50.2
	c1.4,8.1,1,16.2-0.3,17.8c0,0-0.1,0.1-0.1,0.1c-0.3-0.5-0.9-1.6-1.6-2.3c-0.9-0.9-1.6-2.5-1.7-3.4l0-0.1c0-2.1-0.1-4.4-0.3-6.7
	c-0.7-7.8-2.5-14.9-5-19c0.6-2.2,0.9-4.6,0.7-7c0-0.6-0.1-1.2-0.2-1.9c3.1,4,5.3,9.9,6.8,17.4C86.6,47.2,87,48.7,87.7,50.2z
	 M86.7,68.7c1,3.9,0.4,7.2-1.9,10.2c-0.2-2.3-1-4.3-2.5-5.9c0.8-1.9,1.4-4.8,1.5-8.4c0.3,0.7,0.8,1.3,1.2,1.8
	C86,67.1,86.6,68.4,86.7,68.7z M75.1,43.2c1.5,2.7,2.2,5.7,2.5,10.5l0,4.3c-1.1-0.7-2.1-1.7-3.6-3.9c-0.2-3.1-1-6.2-2-8.4
	c0.2-0.1,0.3-0.2,0.5-0.3C73.5,44.8,74.4,44.1,75.1,43.2z M81.7,72.7c-1.1,0-1.8-0.4-2.4-1c-0.8-0.9-1.1-2.4-0.9-4.6l0-0.1l0,0l0-13
	l0,0l0-0.2l0-0.2h0c-0.3-5-1.1-8-2.7-10.9c0.7-0.8,1.2-1.7,1.7-2.6c0.4-0.7,0.7-1.6,1-2.4c2.2,4.1,3.9,10.8,4.5,18.1
	C83.6,62.9,83.1,69.4,81.7,72.7z M42.4,89l-0.2,0.1l0,0c-4.1,1.2-7.2,0.2-9.5-3c0.8,0.2,2,0.5,3.4,0.5c1.8,0,3.4-0.4,4.8-1.1
	c3.1-1.5,5.4-4.6,6.8-9.1c0.4,1.2,0.8,2.3,1.3,3.3c-1,2.8-2.2,5-3.5,6.7l-0.1,0l0,0.1C44.6,87.6,43.5,88.5,42.4,89z M45.8,91.2
	c-0.8,0.4-1.8,1-2.7,0.9c-0.2-0.8-0.1-1.7-0.1-2.6c0.9-0.4,1.7-1.1,2.4-1.9C45.5,89.4,45.7,90.7,45.8,91.2z M13.5,65.8
	c-0.7,0.7-1.3,1.7-1.6,2.3c0,0-0.1-0.1-0.1-0.1c-1.3-1.6-1.7-9.7-0.3-17.8c0.7-1.5,1.1-2.9,1.5-5c1.5-7.5,3.8-13.4,6.8-17.4
	c-0.1,0.6-0.2,1.2-0.2,1.9c-0.1,2.4,0.1,4.8,0.7,7c-2.4,4.1-4.3,11.2-5,19c-0.2,2.3-0.3,4.6-0.3,6.7l0,0.1
	C15,63.2,14.4,64.9,13.5,65.8z M15.2,64.5c0.2,3.6,0.7,6.5,1.5,8.4c-1.4,1.6-2.3,3.6-2.5,5.9c-2.2-3-2.8-6.3-1.9-10.2
	c0.1-0.2,0.8-1.5,1.6-2.3C14.4,65.9,14.9,65.3,15.2,64.5z M10.3,19.1c1-0.4,2.2-1.4,3.4-3.6c2.5-4.6,4.8-5.7,7.5-5.8
	c0.5,0,1,0,1.4,0c-0.1,0.5-0.2,1.4-0.3,2.4c-2.9,0.1-4.9,1.4-6.6,4.2c-1,1.5-2.1,2.3-3.2,2.6l-0.2,0l0,0
	C11.5,19.2,10.8,19.3,10.3,19.1z M10.6,33.6c-1-2.3-1.6-7.5,2.3-13.8c1.2-0.4,2.4-1.4,3.5-2.9c1.6-2.6,3.4-3.7,5.9-3.9
	c-0.1,1-0.1,1.9-0.1,2.8c-2.5,0.6-4.6,2.4-6.5,5.4C13.9,24,12.2,28.1,10.6,33.6z M20.8,67.1c0.2,2.2-0.1,3.8-0.9,4.6
	c-0.5,0.6-1.3,0.9-2.4,1c-1.4-3.3-1.9-9.8-1.3-17c0.6-7.3,2.3-14,4.5-18.1c0.3,0.9,0.6,1.7,1,2.4c0.5,0.9,1.1,1.8,1.7,2.6
	c-1.6,2.9-2.4,5.9-2.7,10.9h0l0,0.2l0,0.2l0,0l0,13l0,0L20.8,67.1z M11.2,48.9c-1.4-4.6-1.5-9.4-0.1-14.1l0,0l0-0.2
	c3.2-11.2,6.6-16.8,11.2-18.1c0.1,1.2,0.2,2.3,0.4,3.3c-1.2,1.8-2.1,3.9-2.6,6.3c-3.6,4.1-6.2,10.5-7.9,18.8
	C12,46.6,11.6,47.8,11.2,48.9z M34.1,55c-0.9,1.7-1.9,3.2-3.1,3.6c-0.7-3.8-0.3-7.6,1-11.3c0.6,0.1,1.3,0.2,2,0.2l0,5.4
	C34,53.7,34,54.4,34.1,55z M23,20.9c0.8,2.6,2.2,5.1,4.2,6.8c2,1.8,4.3,2.8,6.8,2.9l0,16.2c-6.5-0.3-9.9-4-11.5-7.1
	C19.5,34.1,19.7,26.3,23,20.9z M30.3,59.1c-0.7,2-1.9,2.8-3.6,2.7c-1.4-4.5-0.8-11.5,1.2-15.8c1,0.5,2.1,0.9,3.3,1.1
	C29.8,51.1,29.4,55.1,30.3,59.1z M21.5,58l0-4.2c0.3-4.8,1-7.8,2.5-10.5c0.8,0.8,1.7,1.6,2.7,2.2c0.2,0.1,0.3,0.2,0.5,0.3
	c-1.1,2.2-1.8,5.3-2,8.4C23.7,56.3,22.6,57.2,21.5,58z M25.9,62c-1.8,0.9-3.2,2.4-4.3,3.9l0-7c1.1-0.7,2.2-1.6,3.6-3.4
	C25.1,57.9,25.3,60.2,25.9,62z"/>
</svg>
