<?xml version="1.0" encoding="utf-8"?>
<!-- Generator: Adobe Illustrator 21.0.0, SVG Export Plug-In . SVG Version: 6.00 Build 0)  -->
<svg version="1.1" id="Layer_1" xmlns="http://www.w3.org/2000/svg" xmlns:xlink="http://www.w3.org/1999/xlink" x="0px" y="0px"
	 viewBox="0 0 100 100" style="enable-background:new 0 0 100 100;" xml:space="preserve">
<polygon points="60,40 60,0 40,0 40,40 0,40 0,60 40,60 40,100 60,100 60,60 100,60 100,40 "/>
<path d="M70.7,33.2c2-0.3,4-0.7,6.1-0.5c1.5,0,2.9-0.1,4.3,0.3c4.3,3,9.7-1,9.3-5.9c-1-3.5-5.4-6.1-8.9-4.6c-2.2,0.8-2.9,2.2,0,2.3
	c3.7,2.4-0.5,7.4-3.9,5.2c-3.7-2.3-3.5-8.3,0.7-9.8c-6.6-1.9-2.2-13.7,3.8-9.1c0.9,0.7,0.8,1.9,0.7,2.9c-0.6,1.6-2.4,1.8-3.7,2.2
	c2.7,3.7,8.9,2.2,10.6-1.7c2.5-7-5.9-9.7-11.1-6.9c-1.1,0.4-3.2,0.4-4.3,0c-1.3-0.1-2.5-0.3-3.7-0.5c-0.3,0.1-0.8-0.2-0.8,0.3v25.6
	C69.9,33.4,70.4,33.2,70.7,33.2z"/>
<path d="M18.9,32.9c1.3-0.3,2.8-0.3,4.3-0.3c2.1-0.1,4.1,0.2,6.1,0.5c0.3-0.1,0.8,0.2,0.8-0.3V7.3c0-0.4-0.5-0.2-0.8-0.3
	c-1.2,0.3-2.5,0.5-3.7,0.5c-1.1,0.4-3.2,0.4-4.3,0h0c-5.2-2.9-13.6-0.1-11.1,6.9c1.7,3.9,7.9,5.4,10.6,1.7c-1.2-0.4-3.1-0.6-3.7-2.2
	c-0.2-1-0.2-2.2,0.7-2.9c6-4.6,10.4,7.3,3.8,9.1c4.3,1.5,4.5,7.5,0.7,9.8c-3.4,2.2-7.5-2.8-3.9-5.2c2.9-0.1,2.2-1.5,0-2.3
	c-3.5-1.5-7.8,1.1-8.9,4.6C9.2,32,14.6,35.9,18.9,32.9z"/>
<path d="M81.6,82.5c-2.2,0.8-2.9,2.2,0,2.3c3.7,2.4-0.5,7.4-3.9,5.2c-3.7-2.3-3.5-8.3,0.7-9.8c-6.6-1.9-2.2-13.7,3.8-9.1
	c0.9,0.7,0.8,1.9,0.7,2.9c-0.6,1.6-2.4,1.8-3.7,2.2c2.7,3.7,8.9,2.2,10.6-1.7c2.5-7-5.9-9.7-11.1-6.9c-1.1,0.4-3.2,0.4-4.3,0
	c-1.3-0.1-2.5-0.3-3.7-0.5c-0.3,0.1-0.8-0.2-0.8,0.3v25.6c0,0.4,0.5,0.2,0.8,0.3c2-0.3,4-0.7,6.1-0.5c1.5,0,2.9-0.1,4.3,0.3
	c4.3,3,9.7-1,9.3-5.9C89.4,83.5,85.1,81,81.6,82.5z"/>
<path d="M29.3,67.1c-1.2,0.3-2.5,0.5-3.7,0.5c-1.1,0.4-3.2,0.4-4.3,0h0c-5.2-2.9-13.6-0.1-11.1,6.9c1.7,3.9,7.9,5.4,10.6,1.7
	c-1.2-0.4-3.1-0.6-3.7-2.2c-0.2-1-0.2-2.2,0.7-2.9c6-4.6,10.4,7.3,3.8,9.1c4.3,1.5,4.5,7.5,0.7,9.8c-3.4,2.2-7.5-2.8-3.9-5.2
	c2.9-0.1,2.2-1.5,0-2.3c-3.5-1.5-7.8,1.1-8.9,4.6c-0.3,4.9,5,8.8,9.3,5.9c1.3-0.3,2.8-0.3,4.3-0.3c2.1-0.1,4.1,0.2,6.1,0.5
	c0.3-0.1,0.8,0.2,0.8-0.3V67.3C30.1,66.9,29.6,67.1,29.3,67.1z"/>
</svg>
