<?xml version="1.0" encoding="utf-8"?>
<!-- Generator: Adobe Illustrator 21.0.0, SVG Export Plug-In . SVG Version: 6.00 Build 0)  -->
<svg version="1.1" id="Layer_1" xmlns="http://www.w3.org/2000/svg" xmlns:xlink="http://www.w3.org/1999/xlink" x="0px" y="0px"
	 viewBox="0 0 100 100" style="enable-background:new 0 0 100 100;" xml:space="preserve">
<g>
	<path d="M28.7,15.4c0,0,0,0.1,0,0.2c-0.2,0.2-0.4,0.4-0.4,0.7c0,0.5,0.4,0.9,0.9,0.9c0.1,0,0.2,0,0.2,0c0,0,0,0,0,0.1
		c-0.2,0.2-0.4,0.4-0.4,0.7c0,0.5,0.4,0.9,0.9,0.9c0.1,0,0.2,0,0.3-0.1c0,0,0,0,0,0.1c-0.2,0.2-0.4,0.4-0.4,0.7
		c0,0.2,0.1,0.4,0.2,0.6c-0.1,0.1-0.2,0.3-0.1,0.6c0.1,0.2,0.3,0.4,0.4,0.3c0.2,0,0.5,0,0.8,0c0,0,0,0.1,0.1,0.1
		c0.1,0.4,0.3,0.9,0.7,1.1c0,0.1,0,0.2,0.1,0.3c0,0,0.1,0.1,0.1,0.1c0,0,0.1,0.1,0.1,0.1c0,0,0,0,0,0c0,0.1,0,0.2,0,0.4
		c0.1,0.2,0.2,0.3,0.4,0.3c0,0.1,0.1,0.2,0.1,0.2c0.1,0.2,0.2,0.3,0.3,0.3c0.1,0.5,0.3,0.9,0.5,1.2c0.2,0.2,0.4,0.4,0.5,0.6
		c0.3,0.4,0.5,0.9,0.8,1.4c-0.8,0.1-0.6,0.9,0.1,0.8c0.1,0,0.1,0,0.2,0l0.1,0.3c-0.2,0.1-0.2,0.4-0.3,0.7c-0.3,0.2-0.4,0.6-0.3,0.9
		c0,0.4,0.3,0.8,0.7,0.9c0.2,0.3,0.3,0.6,0.5,0.6l0,0.2c-0.2,0.1-0.4,0.2-0.4,0.4c0,0.2,0.1,0.4,0.4,0.4c0.1,0,0.1,0,0.2,0
		c8.9,0.8,18.3,0.8,27.2,0c0.1,0,0.2,0,0.2,0c0.3,0,0.4-0.2,0.4-0.4c0-0.2-0.1-0.3-0.4-0.4l0-0.2c0.2-0.1,0.4-0.3,0.5-0.6
		c0.4-0.1,0.7-0.5,0.7-0.9c0-0.4-0.1-0.7-0.3-0.9c0-0.3-0.1-0.6-0.3-0.7l0.1-0.3c0.1,0,0.1,0,0.2,0c0.7,0.1,0.8-0.7,0.1-0.8
		c0.2-0.5,0.5-0.9,0.8-1.4c0.2-0.2,0.4-0.4,0.5-0.6c0.3-0.3,0.5-0.8,0.5-1.2c0.1,0,0.2-0.1,0.3-0.3c0-0.1,0.1-0.1,0.1-0.2
		c0.2,0,0.3-0.2,0.4-0.3c0.1-0.1,0.1-0.3,0-0.4c0,0,0,0,0,0c0,0,0.1-0.1,0.1-0.1c0,0,0.1-0.1,0.1-0.1c0.1-0.1,0.1-0.2,0.1-0.3
		c0.4-0.3,0.6-0.7,0.7-1.1c0-0.1,0-0.1,0.1-0.1c0.3,0.1,0.6,0.1,0.8,0c0,0.1,0.3-0.1,0.4-0.3c0.1-0.2,0.1-0.4-0.1-0.6
		c0.1-0.2,0.2-0.4,0.2-0.6c0-0.3-0.2-0.6-0.4-0.7c0,0,0,0,0-0.1c0.1,0,0.2,0.1,0.3,0.1c0.5,0,0.9-0.4,0.9-0.9c0-0.3-0.1-0.5-0.4-0.7
		c0,0,0,0,0-0.1c0.1,0,0.2,0,0.2,0c0.5,0,0.9-0.4,0.9-0.9c0-0.3-0.2-0.6-0.4-0.7c0-0.1,0-0.1,0-0.2c0.4-0.1,0.6-0.4,0.6-0.9
		c0-0.5-0.4-0.9-0.9-0.9c-0.1,0-0.3,0-0.4,0.1c0,0-0.1-0.1-0.1-0.1c0.1-0.2,0.2-0.3,0.2-0.5c0-0.5-0.4-0.9-0.9-0.9
		c-0.4,0-0.7,0.2-0.8,0.5c0,0,0,0,0,0c0.1-0.2,0.2-0.3,0.2-0.6c0-0.5-0.4-0.9-0.9-0.9c-0.4,0-0.8,0.3-0.9,0.7c-0.1,0-0.1,0-0.2-0.1
		c0.1-0.2,0.2-0.4,0.2-0.6c0-0.5-0.4-0.9-0.9-0.9c-0.5,0-0.9,0.4-0.9,0.9c0,0,0,0,0,0c-0.1,0-0.1,0-0.2-0.1c0.2-0.2,0.3-0.4,0.3-0.6
		c0-0.5-0.4-0.9-0.9-0.9c-0.5,0-0.8,0.4-0.9,0.8c0,0,0,0,0,0c0,0,0,0,0,0c0,0,0,0,0,0c0.1-0.1,0.1-0.3,0.1-0.4
		c0-0.5-0.4-0.9-0.9-0.9c-0.1,0-0.2,0-0.3,0.1c-0.2-0.3-0.5-0.4-0.8-0.4c-0.2,0-0.4,0.1-0.6,0.2c0,0,0,0,0,0c0-0.5-0.4-0.9-0.9-0.9
		c-0.4,0-0.7,0.2-0.8,0.5c0-0.1,0-0.1,0-0.2c0-0.5-0.4-0.9-0.9-0.9c-0.4,0-0.7,0.2-0.8,0.5c0-0.5-0.4-0.8-0.9-0.8
		c-0.5,0-0.9,0.4-0.9,0.9c0,0.1,0,0.2,0.1,0.3c-0.1,0-0.1,0-0.2,0c0.1-0.1,0.1-0.3,0.1-0.4c0-0.5-0.4-0.9-0.9-0.9S54.3,7.5,54.3,8
		c0,0.1,0,0.2,0.1,0.3c-0.1,0-0.1,0-0.2,0c0-0.1,0.1-0.2,0.1-0.3c0-0.5-0.4-0.9-0.9-0.9c-0.5,0-0.9,0.4-0.9,0.9c0,0.1,0,0.2,0,0.2
		c-0.2,0-0.3,0-0.5,0c0,0,0,0,0,0.1c0,0-0.1,0-0.1,0.1c0,0,0.1-0.1,0.1-0.1c0,0,0,0,0,0c0,0,0,0,0,0c0.2-0.3,0.4-0.7,0.4-1.1
		c0,0,0,0,0,0c0,0,0,0,0,0c0-0.1,0-0.2,0-0.3c0-1.2-0.9-2.2-2.1-2.5v0c0,0,0,0,0,0V3.2h0.8c0,0.2,0.2,0.4,0.5,0.4
		c0.2,0,0.4-0.2,0.5-0.4c0.2,0,0.5-0.2,0.5-0.5c0-0.2-0.2-0.5-0.5-0.5c0-0.2-0.2-0.4-0.5-0.4c-0.2,0-0.5,0.2-0.5,0.5h-0.8V1.4
		c0.2,0,0.4-0.2,0.4-0.5c0-0.2-0.2-0.4-0.4-0.5C50.5,0.2,50.3,0,50,0s-0.5,0.2-0.5,0.5c-0.2,0-0.4,0.2-0.4,0.5
		c0,0.2,0.2,0.4,0.4,0.5v0.9h-0.8c0-0.2-0.2-0.5-0.5-0.5c-0.2,0-0.4,0.2-0.5,0.4c-0.2,0-0.5,0.2-0.5,0.5c0,0.2,0.2,0.5,0.5,0.5
		c0,0.2,0.2,0.4,0.5,0.4c0.2,0,0.4-0.2,0.5-0.4h0.8v1.1c-1,0.2-1.8,1-2,2c0,0,0,0,0,0c0,0.2-0.1,0.3-0.1,0.5c0,0,0,0.1,0,0.1
		c0,0.1,0,0.1,0,0.2c0,0,0,0,0,0.1c0,0,0,0,0,0c0.1,0.4,0.2,0.7,0.4,1.1c0,0,0,0,0,0c0,0,0,0,0,0c0,0,0.1,0.1,0.1,0.1
		c0,0-0.1,0-0.1-0.1c0,0,0,0,0-0.1c-0.1,0-0.3,0-0.5,0c0-0.1,0-0.1,0-0.2c0-0.5-0.4-0.9-0.9-0.9c-0.5,0-0.9,0.4-0.9,0.9
		c0,0.1,0,0.2,0.1,0.3c-0.1,0-0.1,0-0.2,0c0-0.1,0.1-0.2,0.1-0.3c0-0.5-0.4-0.9-0.9-0.9c-0.5,0-0.9,0.4-0.9,0.9c0,0.2,0,0.3,0.1,0.4
		c-0.1,0-0.1,0-0.2,0c0-0.1,0.1-0.2,0.1-0.3c0-0.5-0.4-0.9-0.9-0.9c-0.5,0-0.9,0.4-0.9,0.8c-0.1-0.3-0.4-0.5-0.8-0.5
		c-0.5,0-0.9,0.4-0.9,0.9c0,0.1,0,0.1,0,0.2c-0.1-0.3-0.5-0.5-0.8-0.5c-0.5,0-0.9,0.4-0.9,0.9c0,0,0,0,0,0c-0.2-0.1-0.4-0.2-0.6-0.2
		c-0.3,0-0.6,0.2-0.8,0.4c-0.1,0-0.2-0.1-0.3-0.1C36.4,9.2,36,9.6,36,10c0,0.2,0,0.3,0.1,0.4c0,0,0,0,0,0c0,0,0,0,0,0c0,0,0,0,0,0
		c0-0.5-0.4-0.8-0.9-0.8c-0.5,0-0.9,0.4-0.9,0.9c0,0.2,0.1,0.5,0.3,0.6c-0.1,0-0.1,0-0.2,0.1c0,0,0,0,0,0c0-0.5-0.4-0.9-0.9-0.9
		c-0.5,0-0.9,0.4-0.9,0.9c0,0.2,0.1,0.4,0.2,0.6c-0.1,0-0.1,0-0.2,0.1c-0.1-0.4-0.4-0.7-0.9-0.7c-0.5,0-0.9,0.4-0.9,0.9
		c0,0.2,0.1,0.4,0.2,0.6c0,0,0,0,0,0c-0.1-0.3-0.4-0.5-0.8-0.5c-0.5,0-0.9,0.4-0.9,0.9c0,0.2,0.1,0.4,0.2,0.5c0,0-0.1,0.1-0.1,0.1
		c-0.1,0-0.2-0.1-0.4-0.1c-0.5,0-0.9,0.4-0.9,0.9C28.1,14.9,28.4,15.2,28.7,15.4z M69.4,20.8c-0.1-0.1-0.2-0.2-0.3-0.2
		C69.3,20.6,69.4,20.7,69.4,20.8z M55.3,21.8C55.3,21.8,55.2,21.8,55.3,21.8C55.3,21.7,55.3,21.8,55.3,21.8
		C55.3,21.8,55.3,21.8,55.3,21.8z M63.9,22.9C63.9,22.9,63.9,22.9,63.9,22.9C63.9,22.9,63.9,22.9,63.9,22.9
		C64,22.9,63.9,22.9,63.9,22.9z M66.2,23.4C66.2,23.4,66.2,23.4,66.2,23.4C66.2,23.4,66.2,23.4,66.2,23.4
		C66.2,23.4,66.2,23.4,66.2,23.4z M61.4,20.5c0.2-0.2,0.6-0.4,0.9-0.7c0.4-0.4,0.6-0.8,0.3-0.9c0,0,0,0,0,0c0,0,0,0,0,0
		c0,0-0.1,0-0.1,0c0,0,0,0-0.1,0c0,0-0.1,0-0.1,0c0,0,0.1-0.1,0.1-0.1c0,0,0,0,0,0c0,0,0,0,0-0.1c0.2-0.3,0.6-0.6,0.8-0.8
		c0.1,0,0.3-0.1,0.3-0.2c0.5-1.6,1-3.2,1.5-4.6c0-0.1,0-0.1,0-0.2c0,0,0,0,0-0.1c0,0,0-0.1,0-0.1c0,0,0-0.1,0-0.1c0,0,0-0.1,0-0.1
		c0,0,0,0,0-0.1c0.1,0,0.1,0.1,0.2,0.1c0,0,0.1,0,0.1,0c0.1,0,0.2,0.1,0.2,0.1c0,0,0.1,0,0.1,0c0.1,0,0.2,0.1,0.2,0.1
		c0,0,0.1,0,0.1,0c0.1,0.1,0.3,0.1,0.4,0.2c0,0,0.1,0,0.1,0.1c0.1,0,0.1,0.1,0.2,0.1c0.1,0,0.1,0,0.2,0.1c0.1,0,0.1,0.1,0.2,0.1
		c0,0,0.1,0,0.1,0.1c0.1,0,0.1,0.1,0.1,0.1c0,0,0.1,0,0.1,0.1c0,0,0.1,0.1,0.1,0.1c0,0,0.1,0.1,0.1,0.1c0,0,0.1,0.1,0.1,0.1
		c0,0,0.1,0.1,0.1,0.1c0,0,0.1,0,0.1,0.1c1.2,0.9,1.3,1.2-0.2,3.3c-0.1,0.2-0.3,0.4-0.4,0.6c0,0,0,0,0,0c-0.1,0.1-0.2,0.3-0.1,0.4
		c0.1,0.2,0.2,1,0,1.6c-0.3-0.1-0.3,0.4-0.1,0.8c0.2,0.3,0.1,0.7-0.1,1c0,0.1-0.1,0.1-0.1,0.2c0,0-0.1,0-0.1,0c0,0,0,0-0.1,0
		c0.1-0.3,0-0.5,0-0.8c0-0.3-0.4-0.5-0.4-0.3c0,0,0,0,0,0c0,0,0,0,0,0l0,0c-0.1,0.1-0.1,0.2-0.2,0.3c-0.2,0.5-0.3,0.5-0.7,0.5
		c-0.3,0-0.6,0.6-0.6,0.9c0,0.2,0.1,0.2,0.1,0.4c0.1,0.3,0,0.3,0,0.5c0,0.2-0.1,0.4-0.2,0.5c-0.1,0.1-0.1,0.3-0.1,0.4
		c0.1,0,0.2,0,0.3,0c0,0,0,0,0,0c0,0,0,0,0,0c0.1,0,0.6-0.7,1-0.7c-1,2.3-1.9,2.3-2.1,0c0.2-0.1,0.1-0.5,0.4-0.3
		c0.1,0.1,0.3-0.2,0.2-0.3c-0.1-0.1-0.3-0.1-0.4-0.1c0,0,0.1-0.1,0.1-0.1c0.3-0.3,1.2-1.8,0.6-2.4c0.1-0.3,0.1-0.5-0.1-0.6l0,0
		c-0.3-0.1-0.4,0.2-0.5,0.4c-0.8,0.1-1,1.8-0.9,2.3c0,0.1,0,0.1,0.1,0.2c-0.1-0.1-0.3-0.1-0.5,0c-0.2,0.1-0.1,0.4,0.1,0.3
		c0.3,0,0.2,0.2,0.2,0.4c-1.8,2.4-2.7,2.1-2.5-0.9c0,0,0,0,0,0c0.1,0,0.1,0.1,0.2,0.2c0.1,0.2,0.2,0.5,0.3,0.7
		c0.2,0.2,0.4,0.4,0.5,0.4c0,0,0,0,0.1,0c0,0,0,0,0,0c0,0,0,0,0,0c0,0,0,0,0-0.1c0-0.1,0.1-0.1,0.1-0.2c0-0.2,0.1-0.4,0.2-0.5
		c0.1-0.1,0.1-0.2,0.3-0.3c0.1-0.1,0.3,0,0.4-0.2c0.2-0.2,0.4-0.8,0.2-1c-0.2-0.2-0.3-0.3-0.2-0.7c0,0,0-0.1,0-0.1
		c0.3-0.7,0-0.6-0.5-0.3c-0.1,0.1-0.3,0.2-0.4,0.3c-0.1,0.1-0.3,0.2-0.4,0.3c-0.2,0.2-0.4,0.2-0.5,0.2c0,0,0,0.1-0.1,0.1
		c0-0.1-0.1-0.3-0.2-0.4C61.2,20.7,61.2,20.6,61.4,20.5z M59.6,8.8c0,0,0,0.1,0,0.1C59.5,8.9,59.5,8.9,59.6,8.8
		C59.5,8.9,59.5,8.9,59.6,8.8z M57.9,8.5c0,0,0,0.1,0,0.1c0,0-0.1,0-0.1,0C57.8,8.6,57.8,8.6,57.9,8.5z M50.7,19.9
		c0.1-0.1,0.1-0.2,0.3-0.5c0.2-0.2,0.6-0.5,0.8-0.7c0.3-0.4,0.4-0.8,0-0.9c0,0,0,0,0,0c0,0,0,0,0,0c0-0.1,0.1-0.2,0.2-0.3
		c0.1-0.1,0.3-0.3,0.5-0.4c0.2-0.1,0.3-0.2,0.4-0.2c0,0,0,0,0,0c0,0,0.1-0.1,0.1-0.1c0.1-0.1,0.1-0.1,0.1-0.2c0,0,0-0.1,0-0.1
		c0-0.2-0.1-0.3-0.2-0.6c-0.1-0.4-0.2-0.8-0.3-1.3c-0.1-0.6-0.1-1.2-0.2-1.7c0-1,0.1-2.1,0.2-3.3c1.5,0,2.8,0,3.9,0.1
		c2.5,0.3,4,0.9,4.5,1.9c0.6,1.1-0.4,3.1-2,5.2c-0.2,0.3-0.2,0.2,0,0.5c0,0,0,0,0,0c0.2,0.3,0.4,0.8,0.3,1.2c-0.3,0-0.3,0.5-0.1,1
		c0.1,0.3,0.4,0.6,0.5,0.9c0.1,0.2,0.1,0.3,0.1,0.4c-0.1,0.1-0.2,0.2-0.3,0.3c0-0.1,0-0.1,0-0.2c0-0.1-0.2-0.1-0.3-0.4
		c-0.2-0.2-0.3-0.7-0.5-0.9c-0.4-0.4-0.8-0.6-0.9,0.2c0,0.2,0,0.3-0.1,0.4c0,0,0,0,0,0c0,0,0,0.1-0.1,0.1c-0.1,0.1-0.1,0-0.4,0.2
		c-0.1,0-0.1,0.1-0.2,0.1c-0.1,0-0.1,0.1-0.2,0.2c-0.1,0.1-0.1,0.3-0.1,0.4c0,0,0,0.1,0,0.1c0,0.1,0,0.2,0,0.3
		c0.1,0.1,0.1,0.2,0.3,0.4h0c0.2,0.2,0.2,0.1,0.3,0.2c0.1,0.1,0,0.3,0,0.5c0,0.1,0,0.1,0,0.2c0,0,0,0,0,0c-0.1,0.5,0.3,0.4,0.8,0.2
		c0.3-0.1,0.5-0.5,0.8-0.6c0.2-0.2,0.4-0.2,0.5-0.2c0,0,0,0,0-0.1c0,0.1,0.1,0.2,0.1,0.2c-1.6,3.1-2.8,3.1-3.7,0.2
		c0.2-0.2,0.1-0.5,0.5-0.4c0.2,0.1,0.3-0.2,0.2-0.4c-0.2-0.1-0.3-0.2-0.5-0.2c0,0,0,0,0.1-0.1c0.3-0.4,0.7-2,0-2.4
		c0-0.3,0-0.6-0.3-0.6v0c-0.3,0-0.4,0.3-0.4,0.5c-0.8,0.3-0.5,2-0.3,2.4c0,0,0,0.1,0.1,0.1c-0.2-0.1-0.4-0.1-0.6,0.1
		c-0.2,0.1-0.1,0.4,0.1,0.4c0.3-0.1,0.2,0.4,0.4,0.5c-0.7,2.8-4.3,3-3.9-0.9c0,0,0-0.1,0.1-0.1c0,0,0,0.1,0,0.1
		c0.1,0.1,0.2,0.1,0.5,0.3c0.2,0.2,0.5,0.6,0.7,0.8c0.5,0.3,0.9,0.4,0.9-0.1c0,0,0,0,0,0c0,0,0,0,0,0c0,0,0,0,0,0c0-0.1,0-0.1,0-0.2
		c0,0,0-0.1,0-0.1c0-0.1,0-0.3,0.1-0.4c0.1-0.1,0.1-0.1,0.3-0.2c0.1-0.1,0.3-0.2,0.3-0.3c0-0.1,0-0.1,0-0.2s0-0.1,0-0.2
		c0-0.1,0-0.1,0-0.2c0-0.1,0-0.1,0-0.2c0,0,0,0,0,0c0,0,0,0,0,0c0,0-0.1-0.1-0.1-0.1c0,0,0,0,0,0c-0.1-0.1-0.1-0.1-0.2-0.2
		C53.3,20,53.2,20,53.2,20c0,0,0,0,0,0C53,19.9,53,19.7,53,19.6c0,0,0-0.1,0-0.1c0-0.1,0-0.1,0-0.2c0,0,0,0,0,0c0,0,0,0,0,0
		c0,0,0,0,0,0c0-0.5-0.4-0.4-0.9-0.1c-0.3,0.2-0.5,0.6-0.7,0.8c-0.2,0.2-0.4,0.2-0.5,0.3c0,0,0,0.1,0,0.1c-0.1-0.2-0.3-0.3-0.5-0.4
		C50.6,19.9,50.6,19.9,50.7,19.9z M33.8,23.4C33.8,23.4,33.8,23.4,33.8,23.4C33.8,23.4,33.8,23.3,33.8,23.4
		C33.8,23.4,33.8,23.4,33.8,23.4z M36.1,22.9C36.1,22.9,36.1,22.9,36.1,22.9C36.1,22.9,36.1,22.9,36.1,22.9
		C36.1,22.9,36.1,22.9,36.1,22.9z M44.7,21.8C44.7,21.8,44.7,21.8,44.7,21.8C44.7,21.8,44.8,21.7,44.7,21.8
		C44.8,21.8,44.7,21.8,44.7,21.8z M42.1,8.5c0,0,0,0.1,0.1,0.1c0,0-0.1,0-0.1,0C42.1,8.6,42.1,8.6,42.1,8.5z M40.5,8.9
		C40.5,8.9,40.5,8.9,40.5,8.9C40.5,8.9,40.5,8.9,40.5,8.9C40.5,8.9,40.5,8.9,40.5,8.9z M39,11.5c0.3-0.6,1.1-1.1,2.2-1.4
		c1.4-0.4,3.5-0.6,6.2-0.6c0,0,0,0,0,0c0,0,0,0,0,0c0-0.1,0-0.2,0-0.2c0-0.1,0-0.1,0-0.2c0,0,0,0,0,0c0,0,0,0,0,0c0-0.1,0-0.3,0-0.4
		c0,0,0,0,0,0c0,0.1,0,0.2,0,0.3c0,0.2,0,0.5,0,0.7c0,0.4,0.1,0.9,0.1,1.3c0,0.4,0,0.9,0.1,1.3c0,0.7,0,1.5-0.2,2.3
		c-0.1,0.3-0.1,0.7-0.2,1C47.1,16,47,16.2,47,16.4c0,0,0,0.1,0,0.1c0,0.1,0,0.1,0,0.2c0,0,0.1,0.1,0.1,0.1c0,0,0,0,0.1,0
		c0.1,0.1,0.2,0.1,0.3,0.2c0.2,0.2,0.4,0.3,0.5,0.4c0.1,0.1,0.1,0.2,0.2,0.3c0,0,0,0,0,0c0,0,0,0,0,0c-0.4,0.1-0.2,0.4,0,0.9
		c0.2,0.3,0.6,0.5,0.8,0.7c0.2,0.2,0.2,0.4,0.3,0.5c0,0,0.1,0,0.1,0c-0.2,0.1-0.4,0.3-0.5,0.5c0,0,0-0.1,0-0.1
		c-0.1-0.1-0.2-0.1-0.5-0.3c-0.2-0.2-0.5-0.6-0.7-0.8c-0.4-0.3-0.8-0.4-0.9,0c0,0,0,0,0,0v0c0,0,0,0,0,0c0,0,0,0.1,0,0.1
		c0,0,0,0,0,0c0,0.1,0,0.1,0,0.2c0,0.1,0,0.3,0,0.4c0,0,0,0,0,0.1c0,0,0,0,0,0c-0.1,0.1-0.1,0.1-0.3,0.2c-0.1,0.1-0.3,0.2-0.3,0.3
		c0,0,0,0.1,0,0.1c0,0.1,0,0.2,0,0.3c0,0.1,0,0.3,0,0.4c0.1,0.1,0.2,0.2,0.3,0.3c0.2,0.1,0.3,0.1,0.3,0.2c0.1,0.1,0.1,0.3,0.1,0.5
		c0,0.1,0,0.1,0,0.2c0,0,0,0,0,0c0,0,0,0.1,0,0.1c0,0,0,0,0,0c0,0,0,0,0,0c0.1,0.4,0.4,0.2,0.9,0c0.3-0.2,0.5-0.6,0.7-0.8
		c0.2-0.2,0.4-0.2,0.5-0.3c0,0,0-0.1,0-0.1c0,0,0,0.1,0.1,0.1c0.4,3.9-3.2,3.7-3.9,0.9c0.3-0.2,0.1-0.6,0.4-0.5
		c0.2,0,0.3-0.3,0.1-0.4c-0.2-0.1-0.4-0.2-0.6-0.1c0,0,0-0.1,0.1-0.1c0.2-0.4,0.5-2.1-0.3-2.4c0-0.3-0.1-0.6-0.4-0.5v0
		c-0.3,0-0.3,0.3-0.3,0.6c-0.7,0.4-0.3,2.1,0,2.4c0,0,0,0,0.1,0.1c-0.2,0-0.3,0-0.5,0.2c-0.2,0.1,0,0.4,0.2,0.4
		c0.3-0.1,0.2,0.3,0.5,0.4c-0.9,2.9-2.1,2.9-3.7-0.2c0-0.1,0.1-0.2,0.1-0.2c0,0,0,0,0,0.1c0.1,0.1,0.2,0.1,0.5,0.2
		c0.2,0.2,0.5,0.5,0.8,0.6c0.5,0.2,0.8,0.3,0.8-0.2c0,0,0,0,0,0c0,0,0-0.1,0-0.1c0,0,0,0,0,0c0-0.1-0.1-0.2-0.1-0.3
		c0-0.1,0-0.1,0-0.1c0.1-0.1,0.1-0.1,0.3-0.2l0,0c0.1-0.1,0.2-0.2,0.2-0.3c0,0,0,0,0-0.1c0-0.1,0-0.2,0-0.3c0,0,0-0.1,0-0.1
		c0,0,0-0.1,0-0.1c0-0.1,0-0.2-0.1-0.3c-0.1-0.1-0.2-0.2-0.4-0.3c-0.2-0.1-0.3-0.1-0.4-0.2c-0.1-0.1-0.1-0.3-0.2-0.5c0,0,0,0,0,0
		c0-0.1,0-0.1,0-0.2c0,0,0,0,0,0c-0.1-0.6-0.5-0.4-0.8,0c-0.2,0.2-0.4,0.7-0.5,0.9c-0.2,0.2-0.3,0.3-0.3,0.4c0,0.1,0,0.1,0,0.2
		c-0.1-0.1-0.2-0.2-0.3-0.3c0-0.1,0-0.2,0.1-0.4c0.1-0.3,0.4-0.6,0.5-0.9c0.2-0.5,0.2-1-0.1-1c-0.1-0.4,0.1-0.8,0.3-1.2c0,0,0,0,0,0
		c0.2-0.2,0.2-0.2,0-0.5C39.5,14.5,38.4,12.6,39,11.5z M31.9,13.9c0,0,0.1-0.1,0.1-0.1c0,0,0.1,0,0.1-0.1c0,0,0.1-0.1,0.1-0.1
		c0,0,0.1-0.1,0.1-0.1c0,0,0.1,0,0.1-0.1c0,0,0.1-0.1,0.2-0.1c0,0,0.1,0,0.1-0.1c0.1,0,0.1-0.1,0.2-0.1c0,0,0.1,0,0.1-0.1
		c0.1,0,0.1-0.1,0.2-0.1c0,0,0.1,0,0.1,0c0.2-0.1,0.5-0.2,0.7-0.3c0,0,0.1,0,0.1,0c0.1,0,0.2-0.1,0.3-0.1c0,0,0.1,0,0.1,0
		c0.1,0,0.2-0.1,0.3-0.1c0,0,0.1,0,0.1,0c0,0,0,0,0,0c0,0,0,0.1,0,0.1c0,0,0,0.1,0,0.1c0,0,0,0.1,0,0.1c0,0,0,0.1,0,0.1
		c0,0,0,0.1,0,0.1c0,0,0,0.1,0,0.1c0.4,1.4,1,2.9,1.5,4.6c0,0.1,0.2,0.2,0.3,0.2c0.2,0.1,0.5,0.4,0.8,0.8c0,0,0,0,0,0.1c0,0,0,0,0,0
		c0,0,0.1,0.1,0.1,0.1c0,0-0.1,0-0.1,0c0,0,0,0,0,0c0,0-0.1,0-0.1,0c0,0,0,0,0,0c0,0,0,0,0,0c-0.3,0.1-0.1,0.5,0.3,0.9
		c0.2,0.2,0.6,0.5,0.9,0.7c0.1,0.1,0.2,0.2,0.3,0.3c-0.1,0.1-0.1,0.2-0.2,0.4c0,0,0-0.1-0.1-0.1c-0.1-0.1-0.2-0.1-0.5-0.2
		c-0.1-0.1-0.3-0.2-0.4-0.3c-0.1-0.1-0.3-0.2-0.4-0.3c-0.5-0.3-0.9-0.3-0.5,0.3c0,0,0,0.1,0,0.1c0.1,0.3,0,0.4-0.2,0.6
		c-0.2,0.3,0,0.8,0.2,1c0.1,0.1,0.2,0.1,0.4,0.2c0.2,0.1,0.2,0.2,0.3,0.3c0.1,0.1,0.2,0.3,0.2,0.5c0,0.1,0.1,0.1,0.1,0.2
		c0,0,0,0.1,0.1,0.1c0,0,0,0,0,0c0,0,0,0,0,0c0,0,0,0,0.1,0c0.1,0,0.3-0.1,0.5-0.4c0.1-0.2,0.2-0.5,0.3-0.7c0.1-0.1,0.2-0.2,0.2-0.2
		c0,0,0,0,0,0c0.2,3-0.7,3.3-2.5,0.9c0.1-0.2,0-0.4,0.2-0.4c0.2,0,0.2-0.3,0.1-0.3c-0.2-0.1-0.4-0.1-0.5,0c0-0.1,0-0.1,0.1-0.2
		c0.1-0.5-0.1-2.2-0.9-2.3c-0.1-0.3-0.2-0.5-0.5-0.4l0,0c-0.3,0.1-0.2,0.4-0.1,0.6c-0.6,0.6,0.2,2.1,0.6,2.4c0,0,0.1,0.1,0.1,0.1
		c-0.1,0-0.2,0-0.4,0.1c-0.1,0.1,0.1,0.4,0.2,0.3c0.3-0.2,0.2,0.2,0.4,0.3c-0.2,2.3-1.1,2.3-2.1,0c0.4-0.1,0.9,0.7,1,0.7
		c0,0,0,0,0,0c0,0,0,0,0,0c0.2,0.1,0.2,0,0.3,0c0-0.1,0-0.2-0.1-0.4c-0.1-0.2-0.2-0.4-0.2-0.5c0-0.1-0.1-0.2,0-0.5
		c0-0.2,0.1-0.2,0.1-0.4c0-0.3-0.3-0.9-0.6-0.9c-0.3,0-0.5,0-0.7-0.5c-0.1-0.2-0.1-0.2-0.2-0.3l0,0c0,0,0,0,0,0c0,0,0,0,0,0
		c0-0.2-0.4-0.1-0.4,0.3c0,0.3,0,0.5,0,0.8c0,0,0,0-0.1,0c0,0-0.1,0-0.1,0c0-0.1,0-0.1-0.1-0.2c-0.1-0.3-0.2-0.7-0.1-1
		c0.2-0.4,0.2-0.9-0.1-0.8c-0.2-0.6-0.1-1.4,0-1.6c0-0.1-0.1-0.3-0.1-0.4C30.6,15.1,30.6,14.9,31.9,13.9z M30.8,20.5
		c-0.1,0.1-0.2,0.1-0.3,0.2C30.6,20.7,30.7,20.6,30.8,20.5z"/>
	<path d="M41.9,37.7l0.3,0.3h0c0.3-0.1,0.5-0.4,0.6-0.9c-0.2-0.1-0.4-0.2-0.7-0.3C41.8,37.3,41.7,37.5,41.9,37.7z"/>
	<path d="M57.8,38L57.8,38l0.3-0.3c0.2-0.2,0.1-0.5-0.3-0.8c-0.3,0.1-0.5,0.2-0.7,0.3C57.3,37.6,57.5,37.9,57.8,38z"/>
	<path d="M38.3,91.9c0,0.3,0.2,0.6,0.3,0.8c-0.2-0.2-0.3-0.6-0.3-1C38.3,91.8,38.3,91.9,38.3,91.9z"/>
	<path d="M38.5,63c0-0.3,0-0.6,0-0.9c0,0,0,0,0,0C38.6,62.3,38.6,62.6,38.5,63z"/>
	<path d="M62.4,91.9c0,0.3,0.2,0.6,0.3,0.8c-0.2-0.2-0.3-0.6-0.3-1C62.4,91.8,62.4,91.9,62.4,91.9z"/>
	<path d="M37.6,91.9c0-0.1,0-0.1,0-0.2c-0.1,0.4-0.2,0.8-0.3,1C37.4,92.5,37.5,92.3,37.6,91.9z"/>
	<path d="M47.9,51.6H40v9.9h7.9V51.6z M46.6,59.7c-1.3,0.3-4.4,1.6-4.5-1.1c-0.1-1.2,1.6-2.1,2-1c0.2,0.5,0,0.9-0.3,1
		c-0.3,0.1-0.7-0.1-0.6-0.5c-1.3,0.7,1.2,2.1,2.3,0.2c0.3-0.6-0.6-1.1-0.6-1.5c0-0.4,0.9-1,0.6-1.5c-1.1-1.9-3.6-0.4-2.3,0.2
		c-0.1-0.4,0.2-0.7,0.6-0.5c0.3,0.1,0.5,0.5,0.3,1c-0.4,1.1-2.1,0.3-2-1c0.2-2.7,3.3-1.5,4.5-1.1V59.7z"/>
	<path d="M50,78.1c0.4,0,0.7,0,1.1-0.1C50.7,78.1,50.4,78.1,50,78.1L50,78.1c-0.2,0-0.4,0-0.5,0C49.6,78.1,49.8,78.1,50,78.1
		L50,78.1z"/>
	<path d="M25.1,33.6v40.2c0,7.2,2.8,13.7,7.3,18.5c4.5,4.7,10.7,7.7,17.6,7.7h0c6.9,0,13.1-2.9,17.6-7.7c4.5-4.7,7.3-11.3,7.3-18.5
		V33.6L25.1,33.6z M39.9,92.9L39.9,92.9c-0.3,0.2-0.6,0.3-0.8,0.2c0.2,0.1-0.1,0.5-0.6,0.9c-0.1,0-0.2,0.2-0.3,0.5
		c0,0.1-0.3,0.1-0.3,0c-0.1-0.3-0.2-0.4-0.3-0.5c-0.6-0.4-0.8-0.7-0.6-0.9c-0.3,0.1-0.5,0.1-0.8-0.2v0c-0.3-0.2-0.6-0.8-0.3-0.8
		c0.7,0.3,1.1,0,1.2-0.5c-0.2-0.1-0.4-0.3-0.4-0.5c0-0.2,0.2-0.4,0.4-0.5c-0.1-0.5-0.5-1-1.1-1.1c-0.6-0.1-0.9,0.2-0.8,0.8
		c0,0.2-0.1,0.2-0.2,0.1c-2.1-2.8,1.7-3.7,2.5-1.6c0.1,0.4,0.2,0.7,0.3,1c0-0.1,0-0.2,0-0.2c-0.1-0.6-0.3-1.3-0.9-1.9
		c-0.5-0.6-0.6-1.7,0-2.4c0.4-0.5,1-1.1,1.2-1.6l0,0h0c0-0.1,0.1-0.1,0.1-0.1c0.1,0,0.1,0,0.1,0.1v0c0.2,0.5,0.7,1.1,1.2,1.6
		c0.7,0.7,0.5,1.8,0,2.4c-0.5,0.6-0.8,1.3-0.9,1.9c0,0.1,0,0.1,0,0.2c0.1-0.3,0.2-0.6,0.3-1c0.8-2.1,4.6-1.3,2.5,1.6
		c-0.1,0.1-0.2,0.1-0.2-0.1c0.1-0.6-0.3-0.9-0.8-0.8c-0.6,0.1-1,0.6-1.1,1.1c0.2,0.1,0.4,0.3,0.4,0.5c0,0.2-0.2,0.4-0.4,0.5
		c0.2,0.5,0.5,0.7,1.2,0.5C40.5,92.1,40.2,92.7,39.9,92.9z M65.3,90.4c-0.1,0.1-0.2,0.1-0.2-0.1c0.1-0.6-0.3-0.9-0.8-0.8
		c-0.6,0.1-1,0.6-1.1,1.1c0.2,0.1,0.4,0.3,0.4,0.5c0,0.2-0.2,0.4-0.4,0.5c0.2,0.5,0.5,0.7,1.2,0.5c0.3,0,0,0.6-0.3,0.8v0
		c-0.3,0.2-0.6,0.3-0.8,0.2c0.2,0.1-0.1,0.5-0.6,0.9c-0.1,0-0.2,0.2-0.3,0.5c0,0.1-0.3,0.1-0.3,0c-0.1-0.3-0.2-0.4-0.3-0.5
		c-0.5-0.4-0.8-0.7-0.6-0.9c-0.3,0.1-0.5,0.1-0.8-0.2v0c-0.3-0.2-0.6-0.8-0.3-0.8c0.7,0.3,1.1,0,1.2-0.5c-0.2-0.1-0.4-0.3-0.4-0.5
		c0-0.2,0.2-0.4,0.4-0.5c-0.1-0.5-0.5-1-1.1-1.1c-0.6-0.1-0.9,0.2-0.8,0.8c0,0.2-0.1,0.2-0.2,0.1c-2.1-2.8,1.7-3.7,2.5-1.6
		c0.1,0.3,0.2,0.7,0.3,1c0-0.1,0-0.1,0-0.2c-0.1-0.6-0.3-1.3-0.9-1.9c-0.5-0.6-0.6-1.7,0-2.4c0.4-0.5,1-1.1,1.2-1.6l0,0h0
		c0-0.1,0.1-0.1,0.1-0.1s0.1,0,0.1,0.1v0c0.2,0.5,0.7,1.1,1.2,1.6c0.7,0.7,0.5,1.8,0,2.4c-0.5,0.6-0.8,1.3-0.9,1.9
		c0,0.1,0,0.1,0,0.2c0.1-0.3,0.2-0.7,0.3-1C63.6,86.7,67.4,87.6,65.3,90.4z M73.8,57.1c0,1.3-0.1,2.4-0.4,3.3
		c0.3,2.9-0.3,6.6-1,11.4c-0.7,4.3-0.3,7.6,0.2,9.8c-1.3-0.2-2.3-0.9-2.9-2.3c-0.2,0.7-0.4,1.4-0.7,2.2c-1.1-0.7-1.7-2.2-2-3.9
		c-0.2,0.4-0.3,0.8-0.5,1c-0.5-0.4-0.8-1.1-1.1-1.9c0,0,0,0.1-0.1,0.1c-1.3-0.6-1.9-2.8-2-5.6c-0.1,0.4-0.3,0.7-0.5,1
		c-0.6-0.5-1.1-1.3-1.2-2.5c0-0.3,0-1.2-0.1-2.2c-0.1,1-0.4,1.9-0.8,2.5c-0.3-0.3-0.6-0.6-0.9-1.1c0-0.4,0.1-0.7,0.1-1.1V51.6h-7.9
		v9.9H60v4.1h-7.9v12.3c1.9-0.4,3.6-1.4,5-2.8c1.5-1.6,2.6-3.7,2.8-6.1c0.1,0.2,0.3,0.3,0.4,0.5c0.1,0.1,0.3,0.3,0.4,0.4
		c0.2,0.3,0.4,0.7,0.5,1.2c0.4,2,1.1,3,1.9,4.1c-0.1,0-0.2,0-0.4,0c0.8,1.6,1.5,2.5,2.5,3.3c-0.5,0.1-1,0.1-1.5,0.1
		c0.6,1.1,1.2,2.2,2,3.2c0.4,0.2,0.6,0.4,0.9,0.5c0.3,0.1,2.4,0,2.5-0.1c0.4-0.4,1-0.4,1.2-0.1c0.5-0.2,1-0.1,1.4,0.8
		c0.1,0.2-0.1,0.3-0.2,0.2c-0.2-0.2-0.5-0.3-1,0c-0.1,0.3-0.5,0.7-0.8,0.5c-0.4-0.3-1.9,0-2.4-0.2c0.2,0.4,1.5,0.7,2.5,0.8
		c0.6,0,0.7,0.4,0.7,0.9c0.2,0.3,0.2,0.8-0.2,1.6c-0.1,0.3-0.2,0.2-0.2,0c0-0.2,0-0.4-0.2-0.6c-0.4,0.4-1.1,0.3-1.1-0.2
		c0-0.6-2-1.3-2.4-1.8c0.4,0.9,1.2,1.7,1.6,2.6c0.4,0.4,0.7,0.5,0.2,1.3c0.1,0.5-0.1,1.1-0.8,1.7c-0.2,0.2-0.4,0-0.3-0.3
		c0.1-0.3,0-0.7-0.2-1.1c0,0,0,0,0,0c-0.9-0.1-1-0.4-0.9-1.1c0.2-0.7-0.5-2.1-0.7-2.5c-0.2-0.4-0.2-0.7-0.4-0.9
		c-0.3-0.4-1.9-1.1-2.3-0.9c-0.7,0.4-1.3,0.2-1.4-0.6c0,0,0,0,0.1-0.1c-0.5-0.2-0.9-0.3-1.2-0.1c-0.2,0.1-0.4,0-0.2-0.2
		c0.5-0.7,1.1-0.9,1.6-0.7c0.1-0.1,0.1-0.2,0.3-0.2c0.4,0,0.7,0.1,1,0.4c0.6,0.5,0.9,0.7,1.1,0.7c0.5-0.1-0.8-0.8-2-2.3
		c0,0,0,0-0.1-0.1c0,0.2,0,0.4-0.1,0.6c-0.5-0.1-1-0.4-1.4-0.9c-0.1,0.6-0.2,1.1-0.4,1.6c-0.6-0.3-1.3-1-1.6-2.2c0,0,0,0,0,0
		c-0.2,0.5-0.6,1-1.1,1.4c-0.1-1.3-0.4-2.4-1.3-4.1c-1.1,1.5-1.6,2.6-1.9,3.8c0.4,1,0.8,1.9,1.2,2.6c0.4,0.6,0.6,1.8,0.4,2.1
		c-0.1,0.2-0.3,0.3-0.4,0.3c0,0,0,0,0,0.1c0.5,1,1,1.9,1.6,2.6c0.5,0.6,0.8,1.8,0.6,2.1c-0.2,0.3-0.5,0.3-0.7,0.4
		c0.5,1.5,1.1,2.7,1.9,3.8c0.4,0.6,0.7,1.8,0.4,2.2c-0.2,0.3-0.6,0.3-0.8,0.4l-0.4,0.1c-0.2,0-0.6,0.2-0.9,0.1
		c-0.4-0.2-0.5-1.4-0.8-2.1c-0.5-1.1-1-2.5-1.4-4.1c0,0,0,0,0,0c0.4,1.6,0.8,2.9,1.4,4.1c0.2,0.5,0.6,1.9,0.2,2.4
		c-0.2,0.3-0.6,0.3-0.8,0.4l-0.4,0.1c-0.2,0-0.6,0.1-0.9,0c-0.2-0.1-0.3-0.4-0.4-0.8c0,0.4,0,0.8-0.2,0.9c-0.3,0.2-0.6,0.2-0.8,0.3
		l-0.4,0c-0.2,0-0.6,0.1-0.9-0.1c-0.2-0.1-0.3-0.6-0.4-1.1c0,0.5,0,0.9-0.2,1.1c-0.3,0.2-0.6,0.2-0.9,0.2h-0.5c-0.2,0-0.6,0-0.9-0.2
		c-0.2-0.2-0.3-0.6-0.2-1.1c-0.1,0.5-0.2,1-0.4,1.1c-0.3,0.2-0.7,0.1-0.9,0.1l-0.5,0c-0.2-0.1-0.6,0-0.8-0.3
		c-0.2-0.2-0.3-0.6-0.2-0.9c-0.1,0.4-0.2,0.7-0.4,0.8c-0.3,0.2-0.7,0.1-0.9,0l-0.4-0.1c-0.2-0.1-0.6-0.1-0.8-0.4
		c-0.4-0.5,0-1.8,0.2-2.4c0.5-1.1,1-2.5,1.4-4.1c0,0,0,0,0,0c-0.4,1.6-0.8,2.9-1.4,4.1c-0.3,0.7-0.4,1.9-0.8,2.1
		c-0.3,0.1-0.7-0.1-0.9-0.1l-0.4-0.1c-0.2-0.1-0.6-0.2-0.8-0.4c-0.3-0.4,0-1.6,0.4-2.2c0.7-1.1,1.3-2.3,1.9-3.8
		c-0.2-0.1-0.5-0.1-0.7-0.4c-0.2-0.4,0.1-1.6,0.6-2.1c0.6-0.7,1.1-1.6,1.6-2.6c0,0,0-0.1,0-0.1c-0.1-0.1-0.3-0.1-0.4-0.3
		c-0.2-0.4,0.1-1.6,0.4-2.1c0.5-0.7,0.9-1.6,1.2-2.6c-0.3-1.2-0.8-2.3-1.9-3.8c-0.9,1.6-1.2,2.8-1.3,4.1c-0.5-0.4-0.8-0.9-1.1-1.4
		c-0.3,1.1-1,1.8-1.6,2.2c-0.2-0.5-0.4-1-0.4-1.6c-0.5,0.5-1,0.7-1.5,0.9c0-0.2-0.1-0.4-0.1-0.6c0,0,0,0-0.1,0.1
		c-1.2,1.6-2.5,2.2-2,2.3c0.2,0.1,0.5-0.2,1.1-0.7c0.4-0.3,0.6-0.4,1-0.4c0.1,0,0.2,0.1,0.3,0.2c0.5-0.2,1.1-0.1,1.6,0.7
		c0.2,0.2,0,0.3-0.2,0.2c-0.3-0.2-0.7-0.2-1.2,0.1c0,0,0,0.1,0.1,0.1c-0.1,0.7-0.6,0.9-1.4,0.6c-0.4-0.2-1.9,0.6-2.3,0.9
		c-0.2,0.2-0.2,0.6-0.4,0.9c-0.2,0.4-0.8,1.7-0.7,2.5c0.1,0.7,0,1-0.9,1.1c0,0,0,0,0,0c-0.2,0.5-0.3,0.8-0.2,1.1
		c0.1,0.2,0,0.5-0.3,0.3c-0.6-0.6-0.9-1.2-0.8-1.7c-0.5-0.8-0.2-0.9,0.2-1.3c0.4-0.9,1.3-1.7,1.6-2.6c-0.3,0.4-2.3,1.2-2.4,1.8
		c0,0.5-0.7,0.6-1.1,0.2C30,86,30,86.2,30,86.4c0,0.2-0.1,0.3-0.2,0c-0.3-0.8-0.3-1.3-0.2-1.6c-0.1-0.5,0.1-0.9,0.7-0.9
		c0.9-0.1,2.3-0.4,2.5-0.8c-0.5,0.2-2-0.2-2.4,0.2c-0.3,0.3-0.7-0.1-0.8-0.5c-0.5-0.3-0.8-0.2-1,0c-0.1,0.1-0.3,0.1-0.2-0.2
		c0.3-0.8,0.9-1,1.4-0.8c0.3-0.2,0.8-0.2,1.2,0.1c0.1,0.1,2.2,0.2,2.5,0.1c0.3-0.1,0.6-0.3,0.9-0.5c0.8-1,1.4-2.1,2-3.2
		c-0.5,0.1-0.9,0-1.5-0.1c0.9-0.8,1.7-1.7,2.5-3.3c-0.1,0-0.2,0-0.4,0c0.8-1.1,1.5-2.1,1.9-4.1c0.1-0.4,0.3-0.8,0.5-1.2
		c0.1-0.2,0.2-0.3,0.4-0.4c0.1-0.1,0.3-0.3,0.4-0.5c0.3,2.3,1.3,4.5,2.8,6.1c1.3,1.4,3,2.4,5,2.8V65.6H40v2.1c0,0.4,0,0.8,0.1,1.1
		c-0.2,0.5-0.6,0.8-0.9,1.1c-0.4-0.7-0.7-1.5-0.8-2.5c0,1.1-0.1,1.9-0.1,2.2c-0.1,1.2-0.6,2-1.2,2.5c-0.2-0.3-0.4-0.6-0.5-1
		c-0.1,2.7-0.7,5-2,5.6c0,0,0-0.1-0.1-0.1c-0.2,0.9-0.6,1.6-1.1,1.9c-0.1-0.2-0.3-0.6-0.5-1c-0.3,1.7-0.9,3.2-2,3.9
		c-0.3-0.7-0.6-1.4-0.7-2.2c-0.6,1.4-1.6,2.1-2.9,2.3c0.5-2.2,0.9-5.5,0.2-9.8c-0.8-4.8-1.4-8.5-1-11.4c-0.2-0.9-0.3-2-0.4-3.3
		c0-1.9-0.1-3.9,0.1-6.2c-0.2,0.1-0.3,0.1-0.5,0.2c0.2-1.3,0.4-3,0.7-5c0.9-5.3,3.5-9.7,6.7-10.1c3.2-0.4,0.8,1.9,0.1,4
		c-0.5,1.9,0.9,4.3,3.6,7.4c1,1.1,2.1,3,3.2,3.7c0.2,0.1,1.6-0.3,1.8-0.6c0,0-0.1,0-0.1,0c-0.1,0-0.1,0-0.2-0.1c0,0-0.1,0-0.1,0
		c-0.1,0-0.2-0.1-0.3-0.1c0,0,0,0-0.1,0c1.1-0.7,2.1-1.6,3.2-3.3c0.7-1.1,0.3-2.8-0.2-4.3c-0.1,0-0.2,0-0.3,0c-1-0.2-2,0.4-2.9,0.2
		c-0.2,0-0.2-0.1-0.5-0.7c0.2,0,0.3,0,0.5,0c-2.1,0-3.3-0.6-3.5-2c0.8,1,1.8,1.5,2.9,1.2c1.5-0.4,2.4-0.6,2.7-0.6c0,0,0,0,0,0
		c-0.3-0.2-0.6-0.5-0.9-0.8c-1,0.1-1-0.1-1.3-0.5c-0.5-0.6-1.3-0.1-1.5,0.7c-0.1,0.5-0.2,0.5-0.7,0c-2.3-2.3-2.4-3.9,0-4.2l0,0
		c0.3-0.6,1-0.5,1.4-0.2c0,0,0,0,0,0c-0.2-1.1,2.8-0.7,4.9,0.3c2.5,1.2,2.9,0.9,3.8,1.1c0.3,1.5-0.3,1.7-1,1.6l0,0c0,0,0,0,0,0
		c1.4,2.2,2,4.4,2.2,7.6c0.3-3.2,0.9-5.4,2.2-7.6c0,0,0,0,0,0l0,0c0,0,0,0,0,0c-0.6,0.1-1.3-0.1-1-1.6c0.9-0.2,1.2,0.1,3.8-1.1
		c2.1-1,5.1-1.4,4.9-0.3c0,0,0,0,0,0c0.4-0.3,1.1-0.4,1.4,0.2l0,0c2.5,0.3,2.3,1.9,0,4.2c-0.4,0.4-0.6,0.4-0.7,0
		c-0.2-0.8-1-1.3-1.5-0.7c-0.3,0.4-0.2,0.6-1.3,0.5c-0.3,0.3-0.7,0.6-0.9,0.8c0,0,0,0,0,0c0.3-0.1,1.2,0.2,2.7,0.6
		c1.1,0.3,2.1-0.2,2.9-1.2c-0.3,1.4-1.5,2-3.5,2c0.2,0,0.3,0,0.5,0c-0.3,0.6-0.3,0.6-0.5,0.7c-1,0.2-2-0.4-2.9-0.2
		c-0.1,0-0.2,0-0.3,0c-0.6,1.5-1,3.2-0.2,4.3c1.1,1.7,2.1,2.6,3.2,3.3l0,0c-0.1,0-0.2,0.1-0.3,0.1c0,0-0.1,0-0.1,0
		c-0.1,0-0.2,0-0.3,0.1c0,0,0,0-0.1,0h0c0.2,0.2,1.6,0.7,1.8,0.6c1.1-0.8,2.2-2.7,3.2-3.7c2.7-3.1,4.1-5.4,3.6-7.4
		c-0.7-2.1-3.1-4.4,0.1-4c3.2,0.4,5.9,4.8,6.7,10.1c0.3,2,0.5,3.6,0.7,5c-0.2-0.1-0.3-0.1-0.5-0.2C73.9,53.1,73.8,55.2,73.8,57.1z
		 M54.6,55.3c-0.3,0.5,0.6,1.1,0.6,1.5c0,0.4-0.9,1-0.6,1.5c1.1,1.9,3.6,0.4,2.3-0.2c0.1,0.4-0.2,0.7-0.6,0.5
		c-0.3-0.1-0.5-0.5-0.3-1c0.4-1.1,2.1-0.3,2,1c-0.2,2.7-3.3,1.5-4.5,1.1v-5.8c1.3-0.3,4.4-1.6,4.5,1.1c0.1,1.2-1.6,2.1-2,1
		c-0.2-0.5,0-0.9,0.3-1c0.3-0.1,0.7,0.1,0.6,0.5C58.2,54.8,55.7,53.4,54.6,55.3z M54.6,68.6c-0.3,0.6,0.6,1.1,0.6,1.5
		c0,0.4-0.9,1-0.6,1.5c1.1,1.9,3.6,0.4,2.3-0.2c0.1,0.4-0.2,0.7-0.6,0.5c-0.3-0.1-0.5-0.5-0.3-1c0.4-1.1,2.1-0.3,2,1
		c-0.2,2.7-3.3,1.5-4.5,1.1v0v-5.8c1.3-0.3,4.4-1.6,4.5,1.1c0.1,1.2-1.6,2.1-2,1c-0.2-0.5,0-0.9,0.3-1c0.3-0.1,0.7,0.1,0.6,0.5
		C58.2,68.2,55.7,66.7,54.6,68.6z M45.5,71.7c0.3-0.5-0.6-1.1-0.6-1.5c0-0.4,0.9-1,0.6-1.5c-1.1-1.9-3.6-0.4-2.3,0.2
		c-0.1-0.4,0.2-0.7,0.6-0.5c0.3,0.1,0.5,0.5,0.3,1c-0.4,1.1-2.1,0.3-2-1c0.2-2.7,3.3-1.5,4.5-1.1v5.8v0c-1.3,0.3-4.4,1.6-4.5-1.1
		c-0.1-1.2,1.6-2.1,2-1c0.2,0.5,0,0.9-0.3,1c-0.3,0.1-0.7-0.1-0.6-0.5C41.8,72.2,44.3,73.6,45.5,71.7z"/>
	<path d="M61.4,62c0,0.3,0,0.6,0,0.9C61.5,62.6,61.4,62.3,61.4,62C61.4,62,61.4,62,61.4,62z"/>
	<path d="M61.7,91.9c0-0.1,0-0.1,0-0.2c-0.1,0.4-0.2,0.7-0.3,1C61.6,92.5,61.7,92.3,61.7,91.9z"/>
	<rect x="47.9" y="51.6" width="4.1" height="0"/>
	<rect x="40" y="61.4" width="0" height="4.1"/>
	<path d="M47.9,77.9C47.9,77.9,47.9,77.9,47.9,77.9L47.9,77.9C47.9,77.9,47.9,77.9,47.9,77.9z"/>
	<polygon points="52.1,77.9 52.1,77.9 52.1,77.9 	"/>
</g>
</svg>
