<?xml version="1.0" encoding="utf-8"?>
<!-- Generator: Adobe Illustrator 21.0.0, SVG Export Plug-In . SVG Version: 6.00 Build 0)  -->
<svg version="1.1" id="Layer_1" xmlns="http://www.w3.org/2000/svg" xmlns:xlink="http://www.w3.org/1999/xlink" x="0px" y="0px"
	 viewBox="0 0 100 100" style="enable-background:new 0 0 100 100;" xml:space="preserve">
<g>
	<path d="M29.1,41.8c0.1-0.1,0.3-0.4,0.4-0.6c0.1-0.1,0.2-0.2,0.3-0.2c0.2,0.3,0.4,2.6,0.3,4.1c-0.2,2.8-0.8,4.8-2.6,8.9
		c-1.4,3.2-2.5,5.8-2.4,5.9c0,0,0.1,0,0.3,0c0.7-0.2,3.2-2.8,4.3-4.5c1.1-1.7,2-3.4,1.8-3.7c0-0.1,0-0.1,0-0.1c0,0,0,0,0,0
		c0,0,0,0,0,0c0.1,0.1,0.6-1,1-2.6c0.1-0.4,0.3-1.5,0.4-2.4c0.2-1.6,0.5-2.7,1-3.1c0.1-0.1,0.1-0.1,0.2-0.1c0,0.1,0,0.6-0.3,1.7
		c-0.4,2.1-0.6,4-0.6,5.5c0,1.3,0.2,3.4,0.4,3.5c0,0,0.1,0,0.1,0c0.2,0,1.3-1.1,1.8-1.9c0.2-0.4,0.9-2.3,1.5-4.1
		c0.6-1.9,1.2-3.4,1.3-3.5c0,0,0,0,0,0c0.1,0.1,0.1,0.9,0.1,2.9l0,3l0-0.1l0,0.1l0.6-0.6c0.5-0.5,0.7-1,1.3-2.8
		c0.4-1.2,0.8-2.8,1-3.7c0.4-2.1,0.7-5.9,0.6-7.2L41.9,35l0,0l0-0.1l-0.6,0.1c-0.7,0.1-1.8-0.1-2.5-0.4c-0.2-0.1-0.5-0.3-0.6-0.6
		c-0.5-0.7-0.7-1.6-0.5-2.4c0.2-0.9,0.9-1.9,1.4-2.1c0.3-0.2,0.4-0.3,0.3-0.4c0-0.2-0.4-0.2-1.4-0.2c-2.4,0-3.3,0.9-3,2.9
		c0.2,0.8,0.6,2,1,2.6c0.1,0.2,0.1,0.3,0.1,0.4c-0.1,0.1-0.3-0.1-0.5-0.3c-0.2-0.2-0.4-0.5-0.5-0.8c-0.1-0.1-0.1-0.3-0.2-0.3
		c-0.2-0.2-0.6-0.4-1.8-0.7c-2.6-0.7-4.7-1.6-6-2.7C27.1,30,27,29.9,27,29.9c-1.6-1.6-2.1-2.8-2.3-5.2l-0.1-1.3l1-0.7
		c0.9-0.6,1-0.6,1.4-0.5c0.5,0.2,1,0.6,1.8,1.6c0.1,0.1,0.2,0.2,0.3,0.4c0.1,0.1,0.1,0.2,0.2,0.3c0.4,0.5,0.8,0.9,0.9,0.9
		c0.3,0,0.7-1.8,0.6-2.9c-0.1-1-0.4-1.9-0.9-2.5c-1.1-1.6-3.1-2.1-5.1-1c-1.5,0.8-2.5,2.2-3,4.1c-0.4,1.5-0.3,2.6,0.3,4.3
		c0.6,1.5,0.7,2.3,0.4,2.3c0,0,0,0,0,0c-0.1-0.1-0.2-0.2-0.2-0.4c-0.1-0.3-0.3-1-0.5-1.5c-0.2-0.5-0.4-1.4-0.4-1.9
		c0-0.5-0.1-1-0.2-1.1c-0.1,0-0.7-0.8-1.5-1.7c-4.3-5.1-5.9-8.2-6.1-11.3c0-0.9,0-1.7,0.1-2.1c0.2-0.9,1.1-2,1.9-2.4
		c0.8-0.4,2.2-0.7,2.9-0.6c0.2,0.1,0.5,0.2,0.7,0.4c0.2,0.3,0.3,0.6,0.3,0.9c0,0.3-0.2,0.5-0.3,0.6c0,0,0-0.1,0-0.1
		c0-0.2-0.2-0.4-0.3-0.7c-0.1-0.1-0.2-0.2-0.2-0.3c-0.4-0.4-0.6-0.5-1.1-0.5c-0.8,0-1.4,0.2-1.8,0.7c-0.3,0.4-0.5,1.6-0.4,2.2
		c0.1,0.3,0.3,0.7,0.6,1c0.3,0.4,0.8,0.7,1.2,1c0.6,0.3,1,0.4,2,0.4c2.4-0.1,3.7-1.3,3.5-3.6c-0.1-0.7-0.3-1.4-0.8-2
		c-0.6-1-1.7-1.9-2.8-2.3c-1.1-0.4-3-0.3-3.9,0.2c-2.3,1.2-3.6,2.8-6.4,8.1c-2.1,3.9-2.5,4.7-3.7,6.2c-0.6,0.8-1.1,1.5-1,1.5
		c0.1,0.1,0,0.1-0.1,0c-0.1-0.1-0.5,0.1-0.9,0.4c-0.4,0.3-1,0.7-1.5,1c-0.4,0.3-0.9,0.7-1.1,0.9L0,22.8l0.3,0L0.2,23l0.7,0.1
		c1.1,0.2,2.7,0,3.7-0.4c1.3-0.6,2.4-1.3,2.3-1.5c-0.1-0.1,0-0.1,0.1-0.1c0.1,0.1,0.7-0.4,1.5-1c0.7-0.6,1.7-1.4,2.1-1.6l0.7-0.4
		l0.1,0.6c0.3,1.3,0.3,4.2-0.1,6c-0.7,3.3-2.3,6.2-6.5,11.5c-0.9,1.2-1.1,1.5-0.7,1.4c0,0.1,0.3,0,0.9-0.1c2.3-0.8,4.2-2.6,6.8-6.3
		c0.3-0.5,0.9-1.2,1.2-1.6c0.4-0.5,0.6-0.8,0.5-1c-0.1-0.1-0.1-0.2,0.1-0.1c0.1,0.1,0.3,0,0.5-0.3l0.2-0.3l0.1,0.2
		c0.5,1.4,0.7,4.4,0.3,6.3c-0.6,3.6-2.7,7.3-7.6,13.8c-0.1,0.1,0,0.1,0.2,0.1c0.1,0.1,1-0.2,2-0.7c1.9-1,3.1-2.1,5.1-4.9
		c0.6-0.9,1.1-1.6,1.1-1.6c0-0.2,2.3-4,2.9-4.7c0.5-0.7,1.4-1.6,1.6-1.7c0.1,0.4,0.2,2.3,0.1,3.8c-0.2,2.8-1.1,5.8-2.4,8.7
		c-0.4,0.8-0.6,1.5-0.6,1.6c0,0,0,0.1,0,0.1c0,0,0,0,0,0c0,0,0,0,0,0c-0.1-0.1-0.4,0.2-0.6,0.7c-1,1.8-3.6,5.7-5.4,8.2l-0.4,0.5
		l0.2-0.1l-0.1,0.1l0.9-0.4c3.4-1.8,6.6-5.9,9.4-12.3c0.6-1.4,1.4-3.1,1.8-3.7c0.4-0.6,0.7-1.2,0.6-1.3c0-0.1,0-0.1,0.1-0.1
		c0.1,0,0.5-0.3,0.9-0.7c0.3-0.3,0.6-0.6,0.8-0.7c0,0.2,0.1,0.7,0,1.3c-0.1,6.9-2.5,13.6-7.4,20.5c-0.7,1.1-1.4,2-1.5,2.1l0,0
		c-0.2,0.2-0.1,0.2,0.2,0.1c0.1,0,0.3-0.1,0.7-0.3c3.9-2,7.2-7.1,9.6-14.9C27.5,44.9,28.4,42.6,29.1,41.8z"/>
	<path d="M13.7,46.9C13.7,46.9,13.7,46.9,13.7,46.9c-0.2-0.1-0.5,0.3-0.8,0.8c-0.3,0.5-0.9,1.5-1.5,2.2l-1,1.3l0.3-0.2l-0.1,0.2
		l0.9-0.5c1.3-0.8,2.8-1.9,3.3-2.4c0.2-0.3,0.4-0.5,0.4-0.4c0,0,0.3-0.2,0.6-0.6c1.1-1.3,2.1-2.9,2.8-4.9c0.6-1.5,0.9-6.1,0.5-6.7
		c0,0,0,0-0.1,0c0,0,0-0.1,0-0.1c-0.1-0.2-0.7,0.9-2.1,4c-1.1,2.3-2.3,4.9-2.7,5.7S13.6,46.7,13.7,46.9
		C13.7,46.9,13.7,46.9,13.7,46.9C13.7,46.9,13.7,46.9,13.7,46.9z"/>
	<path d="M24.2,57.6c1.6-2,3.8-5.5,3.6-5.9c0-0.1,0-0.1,0-0.1c0,0,0,0,0,0c0,0,0,0,0,0c0.2,0.1,1-2.1,1.3-3.6
		c0.4-1.8,0.3-5.7-0.1-5.6c0,0-0.1-0.1-0.1,0c-0.1,0.1-1.1,3.2-2.3,6.8c-1.2,3.7-2.4,7.1-2.6,7.8l-0.4,1.1l0.2-0.2L23.8,58
		L24.2,57.6z"/>
	<path d="M16.2,57.9c4.8-2.8,7.6-8.2,8.2-15.4c0.2-2.2,0.2-2.8,0-2.5c0-0.2-0.1,0-0.3,0.4c-0.2,0.4-0.7,1.2-1.1,1.8
		c-1.2,1.8-1.4,2.3-1.6,4.1c-0.2,3-1.1,4.7-4.7,9.6c-1.1,1.4-1.9,2.6-1.9,2.6c0,0.1,0,0.1,0.2,0C15,58.6,15.3,58.4,16.2,57.9z"/>
	<path d="M4.4,29.3c5.2-2.5,7.3-5.6,6.5-9.6c-0.1-0.4-0.2-0.8-0.3-0.8c0,0,0,0-0.1,0c0-0.1-0.1-0.1-0.1-0.1c-0.3,0-1.2,1.4-2,3
		c-0.5,1-1,2.1-1.3,2.5c-0.2,0.4-0.4,0.8-0.4,0.9c0,0.1,0,0.2-0.1,0.1c0,0-0.4,0.3-0.7,0.9c-0.4,0.5-1.3,1.5-2,2.3s-1.2,1.3-1.2,1.3
		c0,0,0.2-0.1,0.4-0.1C3,29.9,2.9,29.9,3,29.9C3,29.9,3.7,29.7,4.4,29.3z"/>
	<path d="M38.5,74.7c0,0-0.1-0.1-0.2-0.1c-0.1,0-0.1,0.1-0.2,0.1c0,0-0.1,0.1-0.1,0.1c0,0.1,0.1,0.1,0.2,0.1
		c0.1-0.1,0.2-0.1,0.2-0.2C38.4,74.8,38.4,74.8,38.5,74.7C38.5,74.8,38.5,74.7,38.5,74.7z"/>
	<path d="M7.4,41.3c0.8-0.3,1.6-0.8,2.7-1.5c0.8-0.5,2.6-2.3,2.6-2.6c0-0.1,0.1-0.2,0.1-0.2c0.1,0,1-1.7,1.3-2.7
		c0.3-0.9,0.3-4.9,0-5.3c-0.1-0.1-0.2-0.2-0.2-0.2c-0.1-0.1-0.2-0.1-0.3-0.1c-0.1,0-0.4,0.7-0.6,1.4c-1.8,4.8-3.1,7.5-4.8,9.4
		c-0.4,0.5-0.7,1-0.7,1.1c0.1,0.1,0,0.1-0.1,0.1c-0.1,0-0.4,0.1-0.6,0.3h0l-0.4,0.4l0.3-0.1l-0.2,0.2L7.4,41.3z"/>
	<path d="M43.9,55.1c0.8-0.7,0.9-0.9,0.9-1.5c0-0.4-0.2-1.1-0.4-1.8L44,50.7l0,0l0,0l-1,1.9c-1.2,2.1-2.1,3.3-3.5,4.1
		c-0.5,0.3-1,0.5-1.5,0.7c-0.3,0.1-0.6,0.2-0.8,0.4c-0.1,0.1-0.3,0.2-0.3,0.2c-0.3,0.3-0.4,0.3-0.2,0.6c0.3,0.4,1.4,0.6,2.5,0.5
		c0.6-0.1,1.1-0.1,1.2-0.2c0.1,0,0.2,0.3,0.3,0.9c0.1,1.2,0.6,2.3,1.1,2.5c0.4,0.2,0.6,0.2,0.7,0c0.1-0.2,0.1-0.6,0-1.3
		c-0.2-1.6-0.1-3.4,0.3-4.3C42.9,56.2,43.4,55.6,43.9,55.1z"/>
	<path d="M60.3,8.3c0.5-0.1,0.6-0.1,0.6-0.3c0.1-0.1,0.1-0.1,0-0.3c-0.2-0.5-1-0.2-1,0.3c0,0.1,0,0.1,0,0.2
		C59.7,8.3,59.9,8.4,60.3,8.3z"/>
	<polygon points="82.4,62.4 82.4,62.4 82.4,62.4 	"/>
	<path d="M51,24.4c0.3,0,0.9,0.1,1.3,0.3h0c1.3,0.4,1.3,0.4,1.6-1c0.7-2.7,1.6-4.6,2.7-5.7c0.6-0.6,1.9-1.1,3.2-1.3
		c1.1-0.2,1.3-0.2,1.3-0.5c0-0.1,0.1-0.1,0.1-0.2c0-0.2,0.1-0.5,0.2-0.9c0.2-0.6,0.5-1.3,0.9-1.8c0.3-0.4,0.7-1.1,0.9-1.6
		c0.3-0.7,0.4-0.8,0.6-0.6c0.1,0.1,0.3,0.2,0.4,0.2c0.3,0,2.1-2,2.1-2.2C66.2,9,66.2,9,66.2,9c0,0,0,0,0,0c0.1,0,0.5-0.4,1-1
		c0.4-0.6,0.9-1.2,1-1.3c0.1-0.1,0.2-0.2,0.1-0.2c0.1-0.2,0.1-0.2,0-0.2c-0.4,0-1.6,1-2.4,1.9c-1,1.3-1.3,1.3-1.1,0.1
		C64.8,8,64.9,7.6,65,7.3c0.6-1.6,2.1-2.5,5.1-3.4c0.9-0.3,1.6-0.5,1.7-0.6c0,0,0-0.1,0-0.1c0.1,0,0.1,0,0.1-0.1
		c0.2-0.2-0.8-0.9-1.6-1.1c-1.5-0.4-3.6,0.1-5.8,1.4c-0.7,0.4-0.9,0.6-0.9,0.8c-0.1,0.1-0.1,0.2,0,0.3c0.2,0.7,0.3,1.3,0.3,1.6
		c-0.2,0.5-0.5,0.3-0.5-0.3c0-1.1-0.8-2.1-1.9-2.3c-0.6-0.1-1.3,0.2-2.9,1.3c-1.7,1.2-2.7,1.4-3.9,0.8c-0.4-0.2-0.4-0.2-0.4,0.1
		c0,0,0,0.1,0,0.2c0,0.6,0.7,1.1,1.9,1.5c0.6,0.2,1,0.3,1.1,0.5c0,0-0.1,0-0.1,0c-0.6,0-2,1.7-2.6,3c-1.5,3.3-2.3,5.6-3.1,8.5
		c-0.2,0.7-0.9,4.4-0.9,4.7c0,0,0,0,0,0c0,0,0,0.1,0,0.1C50.5,24.3,50.7,24.4,51,24.4z M59.2,7.8c0.7-1,1.4-1.5,2.4-1.5l0.8,0l0,0.7
		c0,0.2,0,0.4-0.1,0.6c0,0.1-0.1,0.2-0.1,0.3c-0.3,0.5-1.2,0.9-1.9,0.9c-0.6,0-0.9,0.3-1.4,1.3v0c-0.3,0.8-0.7,1.3-0.9,1
		c0,0,0-0.1,0-0.2C58.2,10,58.8,8.3,59.2,7.8z"/>
	<path d="M51.8,64.8c-2.3-1.1-5-0.1-5.3,1.9c0,0.2,0,0.3,0,0.5c0,0.8,0.7,1.6,2.2,2.1c0.1,0,0.8,0.1,1.5,0c2.1-0.1,3-0.7,3-2.3
		c0-0.3,0-0.5-0.1-0.7C53,65.6,52.6,65.1,51.8,64.8z"/>
	<path d="M67,82.5c-1-0.8-3.4-1.9-3.6-1.6c0,0,0,0.1,0.1,0.2c0,0.1,0.2,0.4,0.5,0.8c0.2,0.2,0.3,0.4,0.4,0.6
		c0.3,0.6,0.1,1.2-0.4,1.7c-0.8,0.8-2,1.2-3.7,1.2c-2,0-2.8-0.3-4.2-1.7c-2.4-2.3-4.1-6.4-4.3-10.5c0-0.6,0-1.2,0-1.8
		c0-0.7,0-1.3,0-1.5c0-0.1,0-0.2,0-0.1c-0.1,0.1-0.9,0.1-1.9,0.1l-1.8,0l0,0.1l0,0L47.8,72c-0.5,6.2-2.7,11-5.7,12.6
		c-3.5,1.9-8.2-0.1-6.9-2.7c0-0.1,0.1-0.2,0.1-0.3l0.4-0.6l0,0l0.1-0.1L35.2,81c-0.9,0.2-2.1,0.8-2.8,1.4C32.2,82.6,32,82.8,32,83
		c-0.1,0.2-0.2,0.4-0.2,0.9c0,2.5,2.2,4.2,5.8,4.5c1.2,0.1,1.9,0,3.8-0.5c0.1,0,0.2,0,0.2,0.1c-0.1,0.2-0.2,0.5-0.5,1
		c-0.3,0.7-0.5,1-0.6,1.4c-0.1,0.3-0.1,0.7-0.1,1.1c0,1.3,0.4,2,1.2,1.9c0.8-0.1,2.1-0.8,3.3-1.9c1.5-1.3,1.6-1.3,1.6,0
		c-0.2,3.1,0.8,5.8,2.5,6.9l0,0c0.5,0.3,0.8,0.3,1.7-0.3c1.4-0.9,2.1-2.8,2.1-6.1c0-1.1,0.1-1.9,0.1-1.9c0.1,0,0.6,0.5,1.3,1.1
		c1.2,1.1,2.4,1.9,3.5,2.1c0.6,0.1,0.7,0.1,1-0.4c0.4-0.6,0.4-1.2,0.2-2.1c-0.1-0.5-0.3-1.1-0.6-1.8c-0.3-0.7-0.5-1.2-0.6-1.4
		c0-0.1,0-0.2,0.1-0.2c0,0,0.3,0.1,0.6,0.3c1.3,0.7,3.4,0.9,5.1,0.5c2.5-0.7,4-2.2,4.2-4.2c0-0.5,0.1-0.7-0.1-0.9
		C67.5,82.8,67.3,82.7,67,82.5z"/>
	<path d="M38.9,7.6c-0.3,0.2-0.3,0.2-0.1,0.3C38.6,8,38.6,8,38.9,8.1h0c0.3,0.1,1.2,0.2,1.2,0.1c0-0.1,0-0.2-0.1-0.2
		C40,7.4,39.5,7.3,38.9,7.6z"/>
	<path d="M45.3,26.8c0,0.1,0,0.2,0.2,0.3c0.5,0.4,2,1.1,2.9,1.2h0c2.5,0.4,5-0.2,5.8-1.4c0.1-0.2,0.2-0.3,0.2-0.4
		c0.1-0.2,0-0.3-0.4-0.6c-0.7-0.6-2.3-1-4.2-1c-2,0-3.4,0.5-4.2,1.3C45.4,26.6,45.3,26.7,45.3,26.8z"/>
	<path d="M55.5,50.8C55.5,50.8,55.5,50.8,55.5,50.8C55.5,50.8,55.5,50.8,55.5,50.8c-0.1,0-0.5,1.7-0.5,2.8c0,0.5,0.1,0.7,0.6,1.2
		c1.3,1.3,1.9,3.4,1.9,6.2h0c0,1,0,1.3,0.1,1.4c0,0.1,0.1,0.1,0.2,0.1c0.4,0,1-0.7,1.1-1.3c0.1-0.2,0.2-0.9,0.4-1.4
		c0.2-0.8,0.3-1,0.6-0.9c0.2,0,0.8,0.1,1.4,0.1c1.2,0,2.4-0.4,2.3-0.7c0,0-0.1-0.1-0.2-0.2c-0.2-0.1-0.5-0.2-0.8-0.3
		c-0.7-0.2-1.4-0.6-2.1-1c-0.7-0.4-1.3-0.9-1.9-1.5c-1-1-2.3-3-2.7-4C55.7,51.1,55.6,50.8,55.5,50.8z"/>
	<path d="M56.2,31c-0.5-0.9-1.8-2.1-2.1-2c-0.1,0-0.1,0-0.1,0c0,0,0-0.1,0-0.1c0.1-0.3-0.5-0.3-2.3-0.2c-1.8,0.1-2.2,0.1-4.3-0.1
		c-1-0.1-1-0.1-1.9,0.6c-2.2,1.9-3.3,5.1-3.1,8.9c0.1,2.4,0.5,4.2,1.7,9.2c1.3,5.1,1.5,6.6,1.7,10.1c0.1,1.4,0.2,2.9,0.3,3.3
		c0.4,1.6,1.2,2.8,2.3,3.1v0c0.7,0.2,2.7,0.2,3.2-0.1c0.3-0.1,0.7-0.4,1-0.7c1-1.1,1.2-1.9,1.4-6.5c0.1-4.3,0.2-4.5,1.7-11
		c1.1-4.6,1.3-5.9,1.4-8.8c0.1-2.2,0-2.7-0.2-3.8C56.8,32.3,56.5,31.4,56.2,31z"/>
	<path d="M84.4,57.5c-2.1-2.3-3.3-4.5-5.5-10.5c-0.9-2.6-2.5-6.1-3-6.8l-0.3-0.4l0,0.2l-0.1-0.2l0.1,1c0.2,3.1,0.6,5.4,1.3,7.7
		c1.5,4.8,4.4,8.6,7.4,9.7c0.5,0.2,1,0.3,1,0.3c0,0,0,0,0,0c0.1,0,0.1,0,0.2,0C85.4,58.6,85,58.1,84.4,57.5z"/>
	<path d="M100,22.8l-0.4-0.5c-0.2-0.3-1.2-1-2.2-1.7c-2.4-1.8-3.7-3.5-5.6-7.3c-0.3-0.6-0.6-1-0.7-0.9c-0.1,0.1-0.1,0-0.1-0.1
		c0.1-0.2-1.1-2.6-1.9-3.9c-0.2-0.4-0.6-0.9-0.7-1.1c-0.6-0.9-2.1-2.3-3.1-2.8c-2.5-1.3-5.5-0.5-6.8,1.7c-0.1,0.2-0.2,0.3-0.3,0.5
		c-0.5,0.9-0.5,3.1-0.1,4c0.4,0.8,1.5,1.2,3.1,1.2c1.5,0,2.6-0.4,3.2-1.2c0.4-0.5,0.7-1.1,0.7-2l0.1-1.1l-0.7-0.4
		c-0.5-0.3-0.9-0.4-1.7-0.4c-0.8,0-1,0-1.2,0.3c-0.1,0.1-0.2,0.4-0.4,0.8c0,0.1-0.1,0.2-0.1,0.3c0,0,0,0-0.1,0c-0.2,0-0.2-1,0-1.5
		c0.4-0.4,1.3-0.7,2.1-0.5c1.4,0.2,2.4,1.1,3.1,2.7c1.4,3-0.8,8.1-5.9,14c-0.9,1-1.4,1.7-1.4,2c0,1-0.9,3.8-1.4,4.4c0,0,0,0-0.1,0
		c0,0,0.1-0.6,0.3-1.1c0.7-1.9,0.7-5-0.2-6.7c-0.3-0.6-1.1-1.7-1.6-2.1c-1-0.9-2.8-1.3-4.2-0.9c-0.7,0.2-1.4,0.8-1.9,1.6
		c-0.2,0.3-0.3,0.6-0.4,0.9c-0.3,0.8-0.3,3.2-0.1,4.2l0.1,0.5l0.5-0.4c0.2-0.2,0.5-0.5,0.8-0.9c0.2-0.2,0.4-0.5,0.5-0.7
		c0.1-0.1,0.1-0.2,0.2-0.3c0.5-0.7,1-1,1.7-1.2c0.4-0.1,1.3,0.8,1.8,1.6c0.4,0.8,0.3,2.3-0.2,3.4c-0.4,0.9-1.1,1.7-2,2.5
		c-1.9,1.8-4.7,3.2-6.9,3.4c-0.6,0.1-0.8,0.1-0.9,0.3c-0.1,0.1-0.1,0.1-0.1,0.2c-0.1,0.3-0.2,0.6-0.4,0.8c-0.3,0.4-0.8,0.5-1,0.2
		c0,0,0,0,0,0c0,0,0,0,0,0c0,0,0.1,0,0.2-0.1c0.1-0.1,0.3-0.4,0.5-0.8c0.4-0.8,0.5-1.2,0.5-2.1c0-1.5-0.3-2.1-1.1-2.4
		c-0.8-0.3-2.9-0.2-3.4,0c-0.3,0.1-0.4,0.2-0.3,0.2c-0.1,0.1-0.1,0.1,0.2,0.1c1.1,0,2.1,1.2,2.2,2.5c0.1,0.7-0.1,1.3-0.4,1.8
		c-0.2,0.3-0.5,0.5-0.8,0.8c-0.6,0.4-0.8,0.4-1.9,0.4c-1,0-1.3,0.1-1.4,0.2c0,0,0,0,0,0c0,0,0,0,0,0c-0.2,0.4-0.2,2,0,4.6
		c0.2,3.7,0.7,5.8,1.8,8.1c0.6,1.2,1.4,2.4,1.6,2.3c0,0,0.1,0,0.1,0c0.1-0.1,0.1-1.3,0.2-2.8c0.1-1.8,0.1-2.7,0.3-2.9
		c0.1,0,0.3,0.6,0.6,1.7c0.7,3.3,2.1,6.3,3.3,7.5l0.4,0.4l0,0l0.1,0.1l0.2-0.6c0.5-1.1,0.5-3.1,0-6.1c-0.4-2.5-0.5-3.8-0.4-4
		c0,0,0,0,0,0c0.1,0.1,0.3,0.8,0.4,1.5c0.9,5,2.7,9.2,5.1,12.3c0.6,0.8,2.4,2.3,3.1,2.8l0.5,0.3l0,0l0.1,0.1L75,59.6
		c-0.2-0.5-0.9-2.1-1.7-3.6c-2.9-5.9-3.7-8.7-3.5-12.2c0.1-1.4,0.4-2.6,0.7-2.8c0,0,0,0,0,0c0.1,0,0.3,0.3,0.4,0.6
		c1.2,2.8,1.6,3.8,2.3,5.6c2.6,7.2,3.8,9.8,5.5,12.1c1.1,1.5,2.4,2.6,3.6,3.2c0.1,0.1,0.3,0.1,0.5,0.2c0.4,0.1,0.7,0.2,0.9,0.2
		c0.4,0,0.4,0,0.2-0.3c-0.1-0.2-0.7-0.9-1.3-1.7c-0.6-0.8-1.1-1.4-1.2-1.3c0,0-0.1,0-0.1,0c0,0,0,0,0,0c0,0,0-0.1,0-0.1
		c0-0.1,0-0.3-0.2-0.5c-0.5-0.7-2.1-3.3-2.7-4.7c-1.5-3.1-2.7-6.7-3.1-9.7c-0.3-2.2-0.5-5.4-0.3-5.9c0.1,0.1,0.4,0.3,0.6,0.6
		c0.6,0.8,2.1,3.1,2.1,3.2c0,0.1,0.1,0.3,0.3,0.5c0.2,0.2,0.6,1.1,1.1,1.9c0.4,0.8,0.8,1.4,0.9,1.4c0.1-0.1,0.1,0,0,0.1
		c-0.2,0.3,2,4.5,3.6,6.7c1.2,1.8,3.1,3.6,4.9,4.6l0.8,0.5l-0.1-0.1l0.2,0.1l-0.5-0.9c-0.3-0.5-1-1.6-1.5-2.4
		c-0.6-0.8-1.3-1.9-1.5-2.3c-0.3-0.4-0.5-0.8-0.6-0.8c-0.1,0-0.1-0.1-0.1-0.2s-0.2-0.5-0.5-0.8c-0.9-1.4-2.4-4-3-5.4
		c-1.2-2.8-1.7-4.9-1.9-7.6c-0.1-1.4,0-1.7,0.2-2.4c0.1-0.3,0.3-0.6,0.4-0.7c0.2,0.1,2.2,3,2.8,4.2c0.7,1.3,2.3,3.8,3.3,5.1
		c1.5,1.9,4.1,3.8,5.9,4.3c0.2,0,0.3,0.1,0.3,0c0.4,0.1,0.3-0.1-1.2-2c-2.9-3.9-4.7-7.2-5.8-10.4c-0.6-1.7-0.6-1.9-0.6-3.8
		c0-1.9,0-2.1,0.5-3c0.2-0.4,0.4-0.8,0.6-0.9c0.1,0,0.3,0,0.3,0.1c0,0.2,2.7,4.3,3.7,5.5c1,1.3,2.4,2.5,3.5,3
		c0.9,0.4,2.3,0.8,2.4,0.7c0,0,0,0,0,0c0.1,0,0.2,0,0.2,0c0.1-0.1-0.4-0.6-0.9-1.3c-4.6-5.4-6.4-8.8-6.8-13.4
		c-0.1-1.4,0-4.1,0.2-4.7c0.3,0.1,1.3,0.8,2.1,1.6c1.1,1.1,2.4,2,2.6,1.9c0.1-0.1,0.1,0,0.1,0.1c-0.1,0.2,1.6,1.1,2.8,1.4
		c1,0.3,2.4,0.3,3.1,0.1l0.4-0.1l0,0L100,22.8z"/>
	<path d="M28.2,3.4c-0.1,0.2,0.3,0.3,1.1,0.4c1.3,0.2,2.9,0.8,3.9,1.5c0.7,0.5,1.2,1,1.4,1.7c0.1,0.4,0.2,0.7,0.2,1.2
		c0,0.9-0.2,1.4-0.3,1c-0.1-0.4-1.4-1.9-1.9-2.3c-0.3-0.2-0.7-0.4-0.9-0.4c-0.2,0-0.2,0-0.1,0.2c0,0.1,0.1,0.2,0.4,0.6
		c0.3,0.3,0.8,1,1.2,1.4c0.9,1.2,1.8,2.2,2.3,2.4c0.6,0.3,0.6,0.3,0.6-0.2c0-1.1,0.5-1.6,0.8-0.8c0,0,0,0,0,0c0.1,0.2,0,0.5-0.3,1
		l-0.4,0.7l0.1,0.1l0,0.1l0.7,0.6c0.7,0.6,0.9,0.9,1.1,1.5c0,0.1,0.1,0.2,0.1,0.3c0.1,0.3,0.2,0.8,0.2,1.1l0.1,0.9l0,0l0,0.1
		l1.4,0.2c3.1,0.4,4.5,2,5.7,6.4c0.3,1,0.6,1.9,0.7,1.9c0.1,0,0.5-0.1,1-0.2c0.4-0.1,1-0.3,1.3-0.3c0.4,0,0.5,0,0.5-0.5
		c0-0.3-0.1-1-0.3-2.3c-1-5.9-2.7-10.1-5.2-13l-0.9-1l0.6-0.1c1.4-0.2,2.3-0.9,2.1-1.6c0-0.1,0-0.3-0.1-0.4c-0.1-0.3-0.2-0.3-0.7,0
		c-0.8,0.4-1.9,0.3-2.9-0.3c-1.8-1.1-3.3-1.8-3.5-1.8c-0.6,0-1.9,1.6-1.9,2.4c0,0.4-0.3,0.4-0.5,0.1c0-0.2,0-0.7,0.2-1.2L36.3,4
		L36.2,4l0-0.1l-0.9-0.5c-1.3-0.7-3-1.3-4-1.4c-1.3-0.2-2.1,0-2.8,0.7C28.1,3.1,28,3.2,28.2,3.4z M42,10.4c0.1,0.1,0.2,0.3,0.3,0.4
		c0,0,0,0,0,0h0c-0.1,0.2-0.8,0.2-1-0.1c-0.1-0.1-0.3-0.6-0.5-1.1c-0.4-0.9-0.4-0.9-1.1-0.9c-1.2-0.1-1.9-0.6-2.2-1.5
		c0-0.1-0.1-0.2-0.1-0.4l-0.1-0.8l1,0.1c1.3,0.1,1.8,0.5,2.6,2.2c0.3,0.7,0.7,1.3,0.7,1.2c0,0,0,0,0,0c0,0,0,0.1,0,0.2
		C41.7,9.9,41.8,10.2,42,10.4z"/>
	<path d="M91.7,22.5c-0.3-0.7-0.6-1.7-0.8-2.1c-0.3-0.7-1.2-1.6-1.5-1.6c-0.1,0-0.1,0.1-0.1,0.1c0,0,0,0,0,0c-0.3,0-0.4,1.2-0.3,2.7
		c0.1,2.1,1.2,3.9,3.1,5.5c1,0.8,3.3,2.1,3.3,1.9c0-0.1,0.1-0.1,0.1,0.1c0.1,0.1,0.4,0.3,0.7,0.4h0c0.3,0.1,0.6,0.3,0.6,0.3
		c0,0,0-0.1-0.1-0.2c0.2,0.1,0.3,0.1,0.3,0.1c0.1,0-0.5-0.6-1.9-2.2C93.2,25.4,92.3,24.1,91.7,22.5z"/>
	<path d="M88.7,50c-1.6-1.8-2.7-3.8-4.5-8.1c-2-4.7-3-6.4-3.5-6.4c0,0-0.1,0-0.1,0.1c0,0,0,0,0,0c-0.6,0-0.2,3.5,0.7,6.2
		c1.2,3.9,4.3,7.6,7,8.7c0.4,0.2,0.8,0.3,0.9,0.3c0,0,0,0,0,0c0.1,0,0.1,0,0.2,0C89.3,50.8,89.1,50.5,88.7,50z"/>
	<path d="M91.6,39.6C91.4,39.6,91.4,39.6,91.6,39.6c0-0.2-0.2-0.6-0.7-1.1c-1-1.2-1.7-2.7-2.6-5.2c-0.8-2.3-1.4-3.6-1.9-4.1
		c-0.2-0.2-0.2-0.2-0.3,0c-0.1-0.1-0.2,0.1-0.3,0.6c-0.2,1.2-0.1,3.3,0.1,4.3c0.7,2.9,2.6,5.2,5.7,6.9h0c0.8,0.4,1.5,0.7,1.5,0.7
		c0,0,0,0,0-0.1c0.1,0,0.1,0.1,0.2,0.1c0.2,0-0.2-0.5-1.1-1.5C92,39.7,91.7,39.5,91.6,39.6z"/>
	<path d="M34.7,72.4c0.7,0.4,1.8,1,2.3,1.3c0.8,0.5,0.9,0.6,0.9,0.4c0.1,0,0.1-0.1,0-0.3c-0.2-1.2-1.7-2.6-3.6-3.6L33,69.6l0.4-0.8
		c0.2-0.4,0.4-0.8,0.5-0.9c0.1-0.1,0.4-0.6,0.8-1.2c0.4-0.6,1.3-1.7,2-2.5c0.7-0.8,1.5-1.8,1.9-2.2c0.6-0.8,1.5-2.2,1.4-2.4
		c0,0-0.3,0-0.6,0.1c-0.3,0.1-0.7,0.3-1,0.6c-0.6,0.5-1.2,1.3-1.8,2.3c-0.5,0.8-1.1,1.7-1.4,2.1c-0.3,0.4-0.5,0.8-0.4,0.9
		c0,0,0,0,0,0c-0.1,0-0.4,0.2-0.8,0.6c-0.1,0.1-0.1,0.1-0.2,0.2c-0.1,0.1-0.2,0.2-0.3,0.3c-0.8,0.7-1.7,1.4-2,1.4
		c-0.1,0-0.5-0.3-1-0.7c-0.4-0.4-0.9-0.7-1-0.6c-0.1,0-0.2,0-0.1-0.1c0.2-0.4-2.4-1.7-3.7-1.9c-0.6-0.1-1.1,0-1.5,0.2
		c-0.2,0.1-0.4,0.3-0.6,0.5c-0.3,0.5-0.3,0.6,0.2,0.4c0.2-0.1,0.8-0.2,1.4-0.2c0.9,0,1,0,2,0.8c1.1,0.8,1.7,1.6,1.8,2.2
		c0,0.1,0,0.1,0,0.2c-0.1,0.1-0.4,0-1,0c-1.4-0.1-3.6,0.2-4.5,0.5c-0.3,0.1-0.6,0.3-0.9,0.5c-0.4,0.3-0.6,0.5-0.6,0.7c0,0,0,0,0,0
		c0,0-0.1,0-0.1,0.1c-0.2,0-0.6,0.9-0.6,1.5c0,0.3,0,0.3,0.5,0c0.1-0.1,0.3-0.2,0.5-0.4c0,0,0.1,0,0.1-0.1c0.4-0.3,1-0.7,1.4-0.9
		c0.3-0.2,0.6-0.3,0.7-0.4c0.1-0.1,0.1-0.1,0.1-0.1c0,0,0.1,0,0.1,0c0.1,0,0.7-0.1,1.2-0.1c1.1-0.1,1.8,0,2.5,0.4
		c0.3,0.2,0.4,0.3,0.4,0.4c0,0,0,0,0,0c-0.1,0.1-0.4,0.2-0.6,0.2c-1.1,0.2-2.4,1-3.3,1.8c-0.2,0.1-0.3,0.3-0.4,0.5
		c-0.5,0.7-1,1.9-1,2.8h0c0,0.4,0.1,0.6,0.2,0.5c0,0,0.1-0.1,0.1-0.1c0,0,0,0,0,0c0.1-0.1,0.2-0.2,0.2-0.3c0-0.3,0.7-1.2,1.5-1.9
		c0.2-0.2,0.5-0.4,0.7-0.6c2.2-1.7,4.2-2.4,6.2-2.3C33.2,71.7,33.5,71.8,34.7,72.4z"/>
	<path d="M78.4,71.3c-0.1-0.5-0.4-0.8-0.8-1.1c-0.8-0.6-2.3-1-4.9-1.2c-0.9-0.1-1.6-0.2-1.9-0.2c0-0.1,0.2-0.4,0.3-0.7
		c1.2-1.8,3.5-2.8,5-2.1c0.6,0.2,0.6,0.2,0.4,0c-0.2-0.4-0.5-0.6-1-0.9c-0.2-0.1-0.4-0.2-0.6-0.3c-0.8-0.4-1.2-0.3-2.3,0.3
		c-0.6,0.3-2.5,1.8-2.8,2.2c-0.2,0.2-1.4,1-1.7,1c-0.2,0-1.1-0.6-1.5-1c-0.1-0.1-0.1-0.2-0.2-0.2c0-0.1-0.1-0.1-0.1-0.1
		c-0.1-0.1-0.2-0.1-0.3-0.1c0,0-0.1,0-0.1,0c0,0,0,0,0,0c0-0.1-0.4-0.9-1.1-1.7c-0.6-0.9-1.3-1.9-1.6-2.3c-0.2-0.4-0.5-0.8-0.7-0.9
		c-0.1-0.1-0.2-0.3-0.1-0.3c0.2,0-0.5-0.7-1-1.1c-0.2-0.2-0.4-0.3-0.5-0.4c-0.3-0.2-0.7-0.3-1-0.4l-0.5-0.1l0.5,0.8
		c0.7,1.1,1.1,1.7,2.6,3.4c1.9,2.1,2.7,3.2,3.3,4.5c0.7,1.5,0.7,1.7-0.1,1.8c-0.8,0.1-2.5,1.2-2.4,1.4c0.1,0.1,0,0.1-0.1,0.1
		c-0.4-0.2-1.6,1.6-1.8,2.7l-0.1,0.5l0.1-0.2L61.7,75l0.4-0.6c0.2-0.3,0.8-0.9,1.4-1.3c2.7-1.8,7.2-1.5,10.4,0.7
		c0.5,0.4,1,0.7,1.3,1.1c0.4,0.4,0.7,0.8,1,1.3h0c0.2,0.4,0.4,0.6,0.4,0.6c0,0,0,0,0,0c0.1,0.1,0.1,0.1,0.1,0.1
		c0.1-0.1-0.3-1.9-0.6-2.5c-0.2-0.5-0.6-1-1.2-1.4c-0.9-0.8-2.1-1.6-3.2-2c-0.2-0.1-0.4-0.2-0.5-0.2c0,0,0,0,0,0
		c0-0.1,0.4-0.2,0.8-0.4c1.7-0.6,3.6-0.1,5.7,1.5l1,0.8l-0.1-0.5C78.5,71.8,78.5,71.5,78.4,71.3z"/>
	<path d="M76,57.8c0,0-0.1-0.4-0.2-0.8c-0.2-0.4-0.6-1.6-0.9-2.7c-1.9-6.2-2.6-8.3-3.3-9.8c-0.4-0.9-0.9-1.9-1-2.1
		c-0.1-0.1-0.2-0.2-0.2-0.1c-0.1-0.1-0.1,0.2-0.1,1.9c0.2,4.2,1.6,8.1,4.2,11.7c0.7,1,1.3,1.8,1.3,1.7c0,0,0,0,0-0.1
		C76,57.7,76,57.8,76,57.8z"/>
</g>
</svg>
