<?xml version="1.0" encoding="utf-8"?>
<!-- Generator: Adobe Illustrator 24.0.0, SVG Export Plug-In . SVG Version: 6.00 Build 0)  -->
<svg version="1.2" baseProfile="tiny" id="Layer_1" xmlns="http://www.w3.org/2000/svg" xmlns:xlink="http://www.w3.org/1999/xlink"
	 x="0px" y="0px" viewBox="0 0 100 100" xml:space="preserve">
<path fill="#F4BD20" d="M35.7,67.8L35.7,67.8c0,0-5,8.2-11.2,12.6c0,0-2.9-1.9-6-0.6c-3.1,1.4-3.7,3.2-2,6.6c0,0,0.9-4.6,4.4-3.8
	c0,0-4.9,5.2,0.6,8c0,0-0.7-4.4,2.1-5.2c0,0-0.8,7,5.1,6.9c0,0-2.5-3.5-2.1-6.7c0.4-3.2,2.1-3.2,2.7-3c0.6,0.2,1.7,1.2,2,2.7
	c0,0,2-3.9-1.3-5.6c0,0,3.4-4.6,7.4-6.3C36.4,71.6,35.8,69.7,35.7,67.8L35.7,67.8z M63.5,67.8L63.5,67.8c0,0,5,8.2,11.2,12.6
	c0,0,2.9-1.9,6-0.6c3.1,1.4,3.7,3.2,2,6.6c0,0-0.9-4.6-4.4-3.8c0,0,4.9,5.2-0.6,8c0,0,0.7-4.4-2.1-5.2c0,0,0.8,7-5.1,6.9
	c0,0,2.5-3.5,2.1-6.7c-0.4-3.2-2.1-3.2-2.7-3c-0.6,0.2-1.7,1.2-2,2.7c0,0-2-3.9,1.3-5.6c0,0-3.4-4.6-7.4-6.3
	C62.8,71.6,63.3,69.7,63.5,67.8L63.5,67.8z M70.1,6.4c0.4,0.5,0.5,1.2,0.3,1.9c-1-0.4-4.7-1.8-8,0.2c0.3-1.6,1.5-2.9,2.6-4
	C65.6,4.5,69,4.8,70.1,6.4z M63.9,11.2c0.1,0,0.2-0.1,0.3-0.1c0.1,0,0.3,0,0.4,0c0.9,0,1.8,0.4,2.5,1.1l-4.1,0
	c-0.1-0.2-0.2-0.5-0.3-0.7c0,0,0,0,0,0C62.8,11.4,63.3,11.3,63.9,11.2L63.9,11.2L63.9,11.2z M67.2,10.7c-1.2-0.4-2.4-0.2-3.1,0
	c-0.7,0.1-1.2,0.2-1.6,0.4c0,0,0,0,0,0c-0.1-0.3-0.1-0.5-0.2-0.8c0,0,0,0,0,0c1.1-0.8,2.4-1.2,3.7-1.2c0,0,0,0,0,0
	c1.4,0,2.5,0.4,3.4,0.7l0.2,0.1c1,0.4,2.1,0.2,2.8,0.1C71.2,11.3,68.7,11.2,67.2,10.7z M36.8,8.5c-1.3-0.8-2.7-1.1-4-1.1
	c-1.9,0-3.5,0.6-4,0.8c-0.2-0.7-0.1-1.4,0.3-1.9c1.1-1.6,4.6-1.9,5.2-1.9C35.3,5.6,36.4,6.9,36.8,8.5z M33.2,9L33.2,9l0,0.2
	c0,0,0,0,0,0c1.3,0,2.5,0.4,3.7,1.2c0,0,0,0,0,0c0,0.2-0.1,0.5-0.2,0.8c0,0,0,0,0,0c-0.4-0.2-0.9-0.3-1.6-0.4
	c-0.7-0.2-1.9-0.4-3.1,0c-1.5,0.6-4.1,0.6-5.2-0.6c0.7,0.1,1.8,0.3,2.8-0.1l0.2-0.1c0.9-0.3,2-0.7,3.4-0.7L33.2,9z M36.6,11.5
	c-0.1,0.2-0.2,0.5-0.3,0.7l-4.1,0c0.7-0.7,1.6-1.1,2.5-1.1c0.1,0,0.3,0,0.4,0c0.1,0,0.2,0.1,0.3,0.1l0,0l0,0
	C35.9,11.3,36.3,11.4,36.6,11.5C36.6,11.5,36.6,11.5,36.6,11.5z"/>
<path fill="#FFFFFF" d="M47.9,32.1v14.6H35v3.5h12.8v13l1.7,1.9l1.7-1.9v-13h12.8v-3.5H51.3V32.1C50.2,32.1,49,32.1,47.9,32.1z
	 M45.9,43.4c0,0-0.8,0.1-1.5,0.5c-0.7,0.4-2.7,0.9-4.1-0.1c-1.4-1-0.7-2.6,0.3-2.7c0,0,0,1.4,1.2,1.6c1.1,0.2,1.8-0.5,1.9-1.4
	c0-0.9-0.7-1.5-1.5-1.8c0.8-0.3,1.6-0.9,1.5-1.8c0-0.9-0.8-1.6-1.9-1.4c-1.2,0.2-1.2,1.6-1.2,1.6c-1-0.1-1.7-1.7-0.3-2.7
	c1.4-1,3.3-0.4,4.1-0.1c0.7,0.4,1.5,0.5,1.5,0.5V43.4z M53.3,43.4c0,0,0.8,0.1,1.5,0.5c0.7,0.4,2.7,0.9,4.1-0.1
	c1.4-1,0.7-2.6-0.3-2.7c0,0,0,1.4-1.2,1.6c-1.1,0.2-1.8-0.5-1.9-1.4c0-0.9,0.7-1.5,1.5-1.8c-0.8-0.3-1.6-0.9-1.5-1.8
	c0-0.9,0.8-1.6,1.9-1.4c1.2,0.2,1.2,1.6,1.2,1.6c1-0.1,1.7-1.7,0.3-2.7c-1.4-1-3.3-0.4-4.1-0.1c-0.7,0.4-1.5,0.5-1.5,0.5V43.4z
	 M45.9,52.9c0,0-0.8-0.1-1.5-0.5c-0.7-0.4-2.7-0.9-4.1,0.1c-1.4,1-0.7,2.6,0.3,2.7c0,0,0-1.4,1.2-1.6c1.1-0.2,1.8,0.5,1.9,1.4
	c0,0.9-0.7,1.5-1.5,1.8c0.8,0.3,1.6,0.9,1.5,1.8c0,0.9-0.8,1.6-1.9,1.4c-1.2-0.2-1.2-1.6-1.2-1.6c-1,0.1-1.7,1.7-0.3,2.7
	c1.4,1,3.3,0.4,4.1,0.1c0.7-0.4,1.5-0.5,1.5-0.5V52.9z M53.3,52.9c0,0,0.8-0.1,1.5-0.5c0.7-0.4,2.7-0.9,4.1,0.1
	c1.4,1,0.7,2.6-0.3,2.7c0,0,0-1.4-1.2-1.6c-1.1-0.2-1.8,0.5-1.9,1.4c0,0.9,0.7,1.5,1.5,1.8c-0.8,0.3-1.6,0.9-1.5,1.8
	c0,0.9,0.8,1.6,1.9,1.4c1.2-0.2,1.2-1.6,1.2-1.6c1,0.1,1.7,1.7,0.3,2.7c-1.4,1-3.3,0.4-4.1,0.1c-0.7-0.4-1.5-0.5-1.5-0.5V52.9z
	 M59.1,64.6c1.8-0.3,3-1.1,3.7-1.7c1,3.7,0.2,8.2-1.9,11.3C60.8,70.5,60.1,66.8,59.1,64.6z M66.8,67c-1.4-0.5-2.8-3.4-3.4-4.7
	c0.8-1,1.4-1.9,1.7-2.8C65.5,61.9,66.1,64.5,66.8,67z M65.2,27.5c3.6-1.2,5.5-4,5.9-8.6c0.3-3.6,1.2-6.3,2.6-7.9
	c0.9-1,2-1.6,3.3-1.9c0.3,1.4,1,6.8-0.2,11.3C75.2,26,70.6,30,65.6,30h0h-0.2v0c-1.5,0-3.1,0-4.6,0C61.2,29.3,62.3,28.5,65.2,27.5z
	 M54.2,65.2c0.9-0.3,2-0.4,3.1-0.4c0.3,0,0.6,0,0.9,0c0.9,1.8,1.8,5.5,1.8,9.7C57,71.5,55.2,67.9,54.2,65.2z M56.8,20
	c-0.1,2.7,0.1,6.3,2.5,9.9c-1.1-0.1-3.6-0.3-5.9-1.3c1.4-1.8,1.9-3.8,1.5-6c-0.3-1.3-0.8-2.6-1.7-4.1C54.2,19.1,55.4,19.6,56.8,20z
	 M51.8,77.5c1-3.4,1.6-7.1,1.9-9.5c0.9,5.5,2.2,9.8,4.1,13.1c2.2,3.9,5.2,6.3,8.9,7.4c-1.7,0.4-4.8,0.8-7.9-0.7
	C55.5,86,53.2,82.6,51.8,77.5z M37.6,5.3c-0.2,0-0.4-0.2-0.4-0.4c0-0.2,0.2-0.4,0.4-0.4c0.2,0,0.4,0.2,0.4,0.4
	C38,5.1,37.8,5.3,37.6,5.3z M61.6,4.5c0.2,0,0.4,0.2,0.4,0.4c0,0.2-0.2,0.4-0.4,0.4c-0.2,0-0.4-0.2-0.4-0.4
	C61.2,4.7,61.4,4.5,61.6,4.5z M43.4,6.4c2.9,3,4.7,5.6,5.8,8l0,0c-0.1,0.2-0.3,0.4-0.4,0.6c-0.4,0.5-0.7,0.9-1.1,1.3l0,0l-0.1,0.1
	c-1.3,1.2-2.9,2.1-5.2,2.7l0,0l-0.5,0.1c-0.3,0.1-0.6,0.1-0.9,0.1c0.8-1.2,0.9-2.6,0.3-4c-0.8-1.7-2.5-3.1-4.2-3.3
	c0.7-1.5,0.7-3,0.2-4.5c-0.4-1.1-1.2-2.2-2.3-3.3c0.5-0.1,1.2-0.2,1.8-0.3c-0.2,0.2-0.4,0.5-0.4,0.9c0,0.7,0.5,1.2,1.2,1.2
	c0.7,0,1.2-0.5,1.2-1.2c0-0.1,0-0.2,0-0.3c0.1,0.1,0.2,0.1,0.3,0.2c0.8,0.7,2.4,1.4,3.8,1.4c0.1,0,0.1,0,0.2,0
	C43.2,6.2,43.3,6.3,43.4,6.4z M34,3.7c-0.6-0.8,0.4-1.8,2.6-2c1.3-0.1,2.5,0,3.5,0.5c1.1,0.4,2.2,0.5,3.6,0.6
	c1.5,0.1,2.7-0.1,3.7-0.5c-0.9,2-2.3,3.1-4.3,3.3c-0.2,0-0.5,0-0.7,0c0,0,0,0,0,0c0,0,0,0,0,0c0,0-0.1,0-0.1,0c0,0-0.1,0-0.1,0
	c0,0-0.1,0-0.1,0c0,0-0.1,0-0.1,0c0,0-0.1,0-0.1,0c0,0-0.1,0-0.1,0c0,0-0.1,0-0.1,0c-0.1,0-0.2,0-0.2-0.1c0,0-0.1,0-0.1,0
	c-0.1,0-0.1,0-0.2-0.1c0,0-0.1,0-0.1,0c0,0-0.1,0-0.1,0c0,0-0.1,0-0.1,0c0,0-0.1,0-0.1-0.1c0,0-0.1,0-0.1,0c-0.1,0-0.1,0-0.2-0.1
	c0,0,0,0-0.1,0c-0.1,0-0.1-0.1-0.2-0.1c0,0,0,0-0.1,0c0,0-0.1-0.1-0.1-0.1c0,0,0,0-0.1,0c0,0-0.1,0-0.1-0.1c0,0,0,0-0.1,0
	c0,0-0.1-0.1-0.1-0.1c0,0,0,0-0.1,0c-0.1,0-0.1-0.1-0.1-0.1c-0.1-0.1-0.1-0.1-0.2-0.2c0,0,0,0-0.1-0.1C37.8,3.3,36.2,3.1,34,3.7z
	 M50.1,14.5L50.1,14.5c1.1-2.5,2.9-5,5.8-8c0.1-0.1,0.2-0.2,0.3-0.3c0.1,0,0.1,0,0.2,0c1.5,0,3.1-0.7,3.8-1.4
	c0.1-0.1,0.2-0.1,0.3-0.2c0,0.1,0,0.2,0,0.3c0,0.7,0.5,1.2,1.2,1.2c0.7,0,1.2-0.5,1.2-1.2c0-0.4-0.2-0.7-0.4-0.9
	c0.7,0,1.3,0.2,1.8,0.3c-1.1,1.1-1.9,2.2-2.3,3.3c-0.6,1.5-0.5,3,0.2,4.5c-1.8,0.2-3.5,1.5-4.2,3.3c-0.6,1.4-0.5,2.9,0.3,4
	c-0.3,0-0.6-0.1-0.9-0.1l-0.3-0.1l-0.2-0.1l0,0c-2.2-0.6-3.9-1.4-5.2-2.7l-0.1-0.1l0,0c-0.4-0.4-0.7-0.8-1.1-1.3
	C50.4,14.8,50.2,14.6,50.1,14.5z M49.3,15.5c0.1-0.1,0.2-0.2,0.2-0.3c0.1,0.1,0.2,0.2,0.2,0.3c1.3,2.1,2,6.7-0.2,10.2
	C47.3,22.2,48.1,17.6,49.3,15.5z M51.8,2.3c1,0.4,2.2,0.5,3.7,0.5c1.4-0.1,2.5-0.2,3.6-0.6c1.1-0.5,2.2-0.6,3.5-0.5
	c2.2,0.2,3.2,1.2,2.6,2c-2.2-0.6-3.8-0.3-5,0.5c0,0,0,0-0.1,0.1c-0.1,0.1-0.1,0.1-0.2,0.2c0,0-0.1,0.1-0.1,0.1c0,0,0,0-0.1,0
	c0,0-0.1,0.1-0.1,0.1c0,0,0,0-0.1,0c0,0-0.1,0-0.1,0.1c0,0,0,0-0.1,0c0,0-0.1,0.1-0.1,0.1c0,0,0,0-0.1,0C59.1,4.9,59,5,58.9,5
	c0,0,0,0-0.1,0c-0.1,0-0.1,0-0.2,0.1c0,0-0.1,0-0.1,0c0,0-0.1,0-0.1,0.1c0,0-0.1,0-0.1,0c0,0-0.1,0-0.1,0.1c0,0-0.1,0-0.1,0
	c-0.1,0-0.1,0-0.2,0.1c0,0-0.1,0-0.1,0c-0.1,0-0.2,0-0.2,0.1c0,0-0.1,0-0.1,0c0,0-0.1,0-0.1,0c0,0-0.1,0-0.1,0c0,0-0.1,0-0.1,0
	c0,0-0.1,0-0.1,0c0,0-0.1,0-0.1,0c0,0-0.1,0-0.1,0c0,0,0,0,0,0c0,0,0,0,0,0c-0.2,0-0.5,0-0.7,0C54.2,5.4,52.7,4.3,51.8,2.3z
	 M32.4,67c0.7-2.5,1.3-5,1.6-7.5c0.4,0.9,0.9,1.8,1.7,2.8C35.1,63.5,33.7,66.5,32.4,67z M39.9,29.9c2.3-3.6,2.6-7.2,2.5-9.9
	c1.4-0.4,2.7-0.8,3.7-1.5c-0.9,1.5-1.5,2.8-1.7,4.1c-0.5,2.2,0,4.3,1.4,6C43.4,29.6,40.9,29.8,39.9,29.9z M47.4,19.3
	c-0.2,2.6,0.3,5.1,1.7,7c0,0,0,0,0,0.1c-0.6,0.7-1.5,1.4-2.6,1.9c-2.4-2.8-2.1-6.3,1.2-10.8C47.5,18.1,47.4,18.7,47.4,19.3z
	 M77.5,20.6c3.4,5.7,3.6,13.9,0.6,19.7c-1.7,3.3-5.2,7.1-12.1,7.4v-17c2.6-0.1,5.1-1.1,7.2-3C75.2,25.9,76.7,23.4,77.5,20.6z
	 M78.3,15.2c0-1,0-1.9-0.1-2.9c2.7,0.2,4.5,1.4,6.2,4.1c1.1,1.6,2.3,2.6,3.6,3c4.1,6.6,3.4,12.1,2.4,14.5c-1.7-5.7-3.4-10-5.4-13
	C83.1,17.8,80.9,15.9,78.3,15.2z M78.1,11.5c-0.1-1.1-0.2-2-0.3-2.6c0.5,0,1,0,1.5,0c2.8,0.1,5.2,1.2,7.9,6.1
	c1.3,2.3,2.6,3.3,3.6,3.8c-0.5,0.1-1.2,0.1-2.1,0l0,0l-0.2,0c-1.2-0.3-2.3-1.2-3.4-2.7C83.2,13,81.1,11.6,78.1,11.5z M36.4,62.9
	c0.7,0.6,1.9,1.4,3.7,1.7c-1,2.2-1.7,5.8-1.8,9.5C36.2,71.1,35.4,66.7,36.4,62.9z M44.3,30c1.9-0.5,3.9-1.4,5.3-3
	c1.4,1.5,3.4,2.4,5.3,3c-1.7,0-3.5,0-5.3,0C47.8,30,46.1,30,44.3,30z M41.9,64.8c1.1,0,2.2,0.1,3.1,0.4c-1,2.7-2.8,6.3-5.9,9.2
	c0-4.2,0.9-7.9,1.8-9.7C41.2,64.8,41.5,64.8,41.9,64.8z M50.1,26.3c1.3-1.9,1.9-4.4,1.7-7c-0.1-0.6-0.2-1.3-0.3-1.8
	c3.3,4.5,3.6,7.9,1.2,10.8C51.6,27.7,50.7,27.1,50.1,26.3C50.1,26.3,50.1,26.3,50.1,26.3z M22.4,20.3c-1.3-4.5-0.5-9.9-0.2-11.3
	c1.3,0.3,2.4,0.9,3.2,1.9c1.4,1.6,2.3,4.3,2.6,7.9c0.4,4.6,2.3,7.4,5.9,8.6c2.9,1,4,1.8,4.4,2.5c-1.5,0-3.1,0-4.6,0v0h-0.2
	C28.6,30,24,26,22.4,20.3z M32.6,88.3c3.6-1.1,6.6-3.5,8.7-7.3c1.9-3.3,3.2-7.6,4.1-13.1c0.3,2.4,1,6.1,1.9,9.4l0,0
	c-1.3,5.2-3.7,8.6-7,10.3C37.4,89.1,34.3,88.7,32.6,88.3z M68.1,48.3c1.5,3.9,1.8,7.8,1.1,11.8c-1.2-0.5-2.3-2-3.3-3.8
	c0.1-0.6,0.1-1.4,0.1-2.2v-5.7C66.7,48.5,67.4,48.4,68.1,48.3z M56.4,92.6c0.1,0.9,0.1,1.9-0.1,2.7c-0.9,0.1-2-0.5-2.8-1
	c0.1-0.6,0.4-1.9,0.3-3.8C54.6,91.5,55.5,92.1,56.4,92.6z M63.6,89.4c1.5,0,2.8-0.3,3.7-0.5c-2.3,3.4-5.6,4.4-10,3.2l0,0L57.1,92
	c-2.8-1.3-5.1-4.6-7-9.8c0.5-1.1,1-2.3,1.4-3.5c1.4,4.8,3.8,8,7.1,9.6C60,89,61.7,89.4,63.6,89.4z M79,60.5l0,7.3
	c-1.2-1.5-2.6-3.1-4.5-4.1c0.6-1.9,0.8-4.3,0.8-6.8C76.7,58.8,77.8,59.7,79,60.5z M73.7,63.6c-1.8,0.1-3-0.8-3.8-2.9
	c0.8-4.2,0.5-8.4-1-12.5c1.2-0.3,2.4-0.7,3.5-1.2C74.5,51.6,75.1,58.9,73.7,63.6z M53.2,65.6c-0.3,2.3-1.3,10.6-3.6,15.8
	c-2.3-5.1-3.4-13.4-3.6-15.8c1.5,0.6,2.6,1.7,3.3,3l0.4,0.8l0.4-0.8C50.6,67.2,51.7,66.2,53.2,65.6z M53.1,89.7
	c0.2,2-0.1,3.6-0.2,4.3l-0.1,0.4c-0.8,2.1-1.6,3.8-2.7,5.2V84.3C50.9,86.5,52,88.3,53.1,89.7z M46.1,89.7c1.1-1.4,2.1-3.2,3-5.4
	v15.4c-1.1-1.4-1.9-3.1-2.7-5.2C46.4,94.3,45.9,92.4,46.1,89.7z M90,35.1c1.4,5,1.4,10-0.1,14.9c-0.5-1.2-0.8-2.4-1.1-4.1
	c-1.7-8.8-4.5-15.4-8.2-19.8c-0.5-2.4-1.5-4.7-2.7-6.6c0.2-1.1,0.4-2.2,0.4-3.5c4.7,1.3,8.3,7.2,11.7,18.8l0,0L90,35.1z M89.5,51.3
	c1.5,8.5,1,17-0.3,18.7c0,0-0.1,0.1-0.1,0.1c-0.3-0.6-0.9-1.6-1.7-2.4c-1-1-1.6-2.7-1.8-3.5l0-0.1c0-2.2-0.1-4.6-0.3-7
	c-0.7-8.2-2.7-15.6-5.2-19.9c0.7-2.3,0.9-4.9,0.8-7.4c0-0.6-0.1-1.3-0.2-1.9C84,32,86.4,38.2,87.9,46C88.4,48.2,88.8,49.7,89.5,51.3
	z M88.6,70.7c1,4.1,0.4,7.6-1.9,10.7c-0.2-2.4-1.1-4.5-2.6-6.2c0.9-2,1.4-5,1.6-8.8c0.4,0.7,0.8,1.4,1.3,1.9
	C87.8,69.1,88.4,70.5,88.6,70.7z M76.4,44.1c1.6,2.8,2.3,6,2.6,11l0,4.5c-1.2-0.8-2.2-1.8-3.8-4c-0.2-3.3-1-6.5-2.1-8.8
	c0.2-0.1,0.4-0.2,0.5-0.3C74.6,45.7,75.6,44.9,76.4,44.1z M83.3,74.9c-1.1,0-1.9-0.4-2.5-1c-0.8-0.9-1.2-2.6-1-4.9l0-0.1l0,0l0-13.7
	l0,0l0-0.2l0-0.2h0c-0.3-5.2-1.1-8.4-2.8-11.4c0.7-0.8,1.3-1.7,1.8-2.7c0.4-0.8,0.8-1.6,1.1-2.5c2.3,4.3,4.1,11.3,4.8,18.9
	C85.3,64.7,84.8,71.5,83.3,74.9z M42.1,92l-0.2,0.1l0,0c-4.3,1.2-7.6,0.2-9.9-3.1c0.8,0.2,2.1,0.5,3.6,0.5c1.8,0,3.6-0.4,5.1-1.1
	c3.2-1.6,5.6-4.8,7.1-9.6c0.4,1.3,0.9,2.5,1.3,3.4c-1.1,2.9-2.3,5.3-3.7,7l-0.1,0l0,0.1C44.4,90.6,43.3,91.5,42.1,92z M45.6,94.4
	c-0.8,0.5-1.9,1-2.8,1c-0.2-0.8-0.2-1.8-0.1-2.7c0.9-0.5,1.7-1.1,2.6-2C45.2,92.5,45.5,93.8,45.6,94.4z M11.7,67.7
	c-0.8,0.7-1.4,1.8-1.7,2.4C10,70,10,70,10,70c-1.4-1.7-1.8-10.2-0.3-18.7c0.7-1.6,1.2-3.1,1.6-5.3c1.5-7.9,3.9-14,7.1-18.3
	c-0.1,0.6-0.2,1.3-0.2,1.9c-0.1,2.5,0.1,5.1,0.8,7.4c-2.6,4.3-4.5,11.7-5.2,19.9c-0.2,2.4-0.3,4.8-0.3,7l0,0.1
	C13.3,65,12.7,66.7,11.7,67.7z M13.5,66.4c0.2,3.8,0.8,6.8,1.6,8.8c-1.5,1.7-2.4,3.8-2.6,6.2c-2.4-3.2-3-6.6-1.9-10.7
	c0.1-0.2,0.8-1.6,1.6-2.5C12.7,67.8,13.2,67.2,13.5,66.4z M8.4,18.8c1-0.4,2.3-1.4,3.6-3.8c2.7-4.9,5.1-6,7.9-6.1c0.5,0,1,0,1.5,0
	c-0.1,0.5-0.2,1.4-0.3,2.6c-3,0.1-5.1,1.5-7,4.4c-1.1,1.5-2.2,2.5-3.4,2.8l-0.2,0l0,0C9.6,18.9,8.9,18.9,8.4,18.8z M8.7,33.9
	c-1-2.4-1.7-7.9,2.4-14.5c1.3-0.4,2.5-1.4,3.7-3c1.7-2.7,3.6-3.9,6.2-4.1c-0.1,1-0.1,2-0.1,2.9c-2.6,0.7-4.8,2.5-6.8,5.7
	C12.2,23.9,10.4,28.2,8.7,33.9z M19.4,69.1c0.2,2.3-0.1,3.9-1,4.9c-0.6,0.6-1.4,1-2.5,1c-1.5-3.4-2-10.2-1.3-17.8
	c0.7-7.7,2.4-14.7,4.8-18.9c0.3,0.9,0.7,1.7,1.1,2.5c0.5,1,1.1,1.9,1.8,2.7c-1.7,3-2.5,6.2-2.8,11.4h0l0,0.2l0,0.2l0,0l0,13.7l0,0
	L19.4,69.1z M9.3,50c-1.5-4.9-1.5-9.8-0.2-14.8l0,0l0.1-0.2c3.3-11.8,7-17.6,11.7-19c0.1,1.2,0.2,2.4,0.4,3.5
	c-1.2,1.9-2.2,4.1-2.7,6.6c-3.8,4.4-6.5,11-8.2,19.8C10.1,47.6,9.8,48.8,9.3,50z M33.3,56.4c-1,1.7-2,3.3-3.3,3.8
	c-0.7-4-0.4-8,1.1-11.8c0.7,0.1,1.4,0.2,2.1,0.2l0,5.7C33.2,55.1,33.3,55.8,33.3,56.4z M21.7,20.6c0.8,2.8,2.3,5.3,4.4,7.1
	c2.1,1.9,4.6,2.9,7.2,3l0,17c-6.9-0.3-10.4-4.2-12.1-7.4C18,34.5,18.3,26.3,21.7,20.6z M29.3,60.7c-0.7,2.1-2,3-3.8,2.9
	c-1.5-4.7-0.9-12,1.3-16.6c1.1,0.5,2.3,0.9,3.5,1.2C28.8,52.3,28.5,56.5,29.3,60.7z M20.2,59.5l0-4.5c0.3-5,1.1-8.2,2.6-11
	c0.8,0.9,1.8,1.7,2.8,2.3c0.2,0.1,0.3,0.2,0.5,0.3C25,49,24.2,52.2,24,55.5C22.4,57.7,21.3,58.7,20.2,59.5z M24.7,63.7
	c-1.9,0.9-3.4,2.5-4.5,4.1l0-7.3c1.2-0.7,2.3-1.6,3.7-3.5C23.9,59.5,24.1,61.8,24.7,63.7z"/>
</svg>
