<?xml version="1.0" encoding="utf-8"?>
<!-- Generator: Adobe Illustrator 24.0.0, SVG Export Plug-In . SVG Version: 6.00 Build 0)  -->
<svg version="1.2" baseProfile="tiny" id="Layer_1" xmlns="http://www.w3.org/2000/svg" xmlns:xlink="http://www.w3.org/1999/xlink"
	 x="0px" y="0px" viewBox="0 0 100 100" xml:space="preserve">
<path fill-rule="evenodd" fill="#3B62AE" d="M50,0C36.3,0,23.2,3.5,14.1,7.8l0,0c-0.9,0.4-1.9,0.8-2.8,1.2l3,46.7
	c2.1,24.4,18,38.6,35.7,44.2c17.7-5.6,33.6-19.8,35.7-44.2l3-46.6c-0.9-0.5-1.8-0.9-2.8-1.3v0C76.8,3.5,63.8,0,50,0C50,0,50,0,50,0z
	"/>
<path fill-rule="evenodd" fill="#FFFFFF" d="M50,32.3l-8.7,17l-5.6-7.3L20.9,61.6c0.3,1.2,0.6,2.4,0.9,3.5c1.6,2.8,4.8,6,8.9,6
	c3.2,0,6.4-2.6,9.7-2.6c3.2,0,6.4,2.6,9.7,2.6c3.2,0,6.4-2.6,9.7-2.6c3.2,0,6.4,2.6,9.7,2.6c4,0,7.2-3.1,8.8-5.9
	c0.4-1.2,0.7-2.4,0.9-3.6L64.4,42.1l-5.6,7.3L50,32.3z M40.3,71c-3.2,0-6.4,2.6-9.7,2.6c-2.5,0-4.7-0.9-6.4-2.2
	c0.6,1.3,1.2,2.5,1.9,3.7c1.3,0.8,2.8,1.4,4.5,1.4c3.2,0,6.4-2.6,9.7-2.6c3.2,0,6.4,2.6,9.7,2.6c3.2,0,6.4-2.6,9.7-2.6
	c3.2,0,6.4,2.6,9.7,2.6c1.6,0,3.1-0.5,4.5-1.4c0.7-1.2,1.3-2.4,1.9-3.7c-1.7,1.3-3.9,2.1-6.4,2.1c-3.2,0-6.4-2.6-9.7-2.6
	c-3.2,0-6.4,2.6-9.7,2.6C46.8,73.6,43.6,71,40.3,71L40.3,71z M40.3,76.5c-3.2,0-6.4,2.6-9.7,2.6c-0.7,0-1.4-0.1-2-0.2
	c5.6,7.4,13.2,12.4,21.3,15.3c8.1-2.9,15.7-7.8,21.3-15.3c-0.6,0.1-1.3,0.2-2,0.2c-3.2,0-6.4-2.6-9.7-2.6c-3.2,0-6.4,2.6-9.7,2.6
	C46.8,79.1,43.6,76.5,40.3,76.5L40.3,76.5z"/>
<path fill-rule="evenodd" fill="#FFE500" d="M39.1,12.6l-1.2-2.1h-2.4l1.2-2.1l-1.2-2.1h2.4l1.2-2.1l1.2,2.1h2.4l-1.2,2.1l1.2,2.1
	h-2.4L39.1,12.6z M62.1,10.5h2.4l-1.2-2.1l1.2-2.1h-2.4l-1.2-2.1l-1.2,2.1h-2.4l1.2,2.1l-1.2,2.1h2.4l1.2,2.1L62.1,10.5z M51.2,25
	h2.4l-1.2-2.1l1.2-2.1h-2.4L50,18.7l-1.2,2.1h-2.4l1.2,2.1L46.4,25h2.4l1.2,2.1L51.2,25z"/>
<path fill-rule="evenodd" fill="#ED2224" d="M85.9,7.8l-2.8,46.4C81.2,78,66.4,91.8,50,97.2c-16.4-5.4-31.2-19.3-33.1-43L14.1,7.8
	c-0.9,0.4-1.9,0.8-2.8,1.2l3,46.7c2.1,24.4,18,38.7,35.7,44.2c17.7-5.6,33.6-19.8,35.7-44.2l3-46.6C87.8,8.7,86.8,8.3,85.9,7.8
	L85.9,7.8z"/>
</svg>
