<?xml version="1.0" encoding="utf-8"?>
<!-- Generator: Adobe Illustrator 21.0.0, SVG Export Plug-In . SVG Version: 6.00 Build 0)  -->
<svg version="1.1" id="Layer_1" xmlns="http://www.w3.org/2000/svg" xmlns:xlink="http://www.w3.org/1999/xlink" x="0px" y="0px"
	 viewBox="0 0 100 100" style="enable-background:new 0 0 100 100;" xml:space="preserve">
<g>
	<path d="M31.2,74.3c0.5,0.1,1.1,0,1.5-0.3c1-0.5,1.8-1.3,2.4-2.2c0.5-0.9,1-1.8,1.5-2.8c0.4-0.7,0.9-1.2,1.8-1.2c0.7,0,1-0.4,1-1
		c0-0.3,0-0.6,0-0.9c0-0.4,0.1-0.5,0.5-0.3c0.3,0.2,0.6,0.4,0.9,0.6c1.7,1.3,3.5,2.5,5.4,3.4c2.3,1.1,4.6,1.8,7.1,2.1
		c1.2,0.1,2.4,0.1,3.6,0c1.5-0.1,3-0.6,4.4-1.3c0.2-0.1,0.3-0.1,0.4,0.1c0.3,0.4,0.7,0.8,1.1,1.1c0.8,0.8,1.7,1.7,2.5,2.5
		c0.4,0.4,0.8,0.3,1.2,0.1c0.8-0.4,1.4-1.1,1.9-1.9c0.3-0.6,0.3-0.8-0.2-1.3c-0.6-0.7-1.3-1.3-2-1.9c-0.4-0.4-0.8-0.8-1.2-1.2
		c-0.1-0.1-0.2-0.2,0-0.4c0.5-0.6,1-1.2,1.4-1.9c1.1-1.7,1.8-3.6,2-5.6c0.2-1.6,0.2-3.1,0-4.7c-0.2-1.7-0.5-3.3-1.1-4.9
		c-1.2-3.3-3.4-5.9-6-8.2c-2.9-2.5-6.3-4.2-9.9-5.5c-0.6-0.2-1.1-0.3-1.7-0.5c0,0,0,0.1,0,0.1c0.4,0.3,0.7,0.6,1.1,0.9
		c2.1,1.5,4.1,3.1,6,4.9c1.9,1.8,3.6,3.8,4.8,6.2c0.7,1.4,1.2,2.7,1.4,4.2c0.2,1.3,0.2,2.7,0.1,4C62.9,58.9,62.2,61,61,63
		c-0.5,0.7-0.5,0.7-1.1,0.1c-2.6-2.4-5.1-4.8-7.7-7.2c-2.2-2.1-4.5-4.2-6.7-6.4c-0.5-0.4-0.5-0.5,0-0.9c1.1-1.2,2.3-2.4,3.4-3.5
		c0.3-0.3,0.5-0.6,0.9-1c-0.3-0.1-0.5-0.2-0.8-0.2c-1.5-0.3-2.9-0.5-4.4-0.8c-0.5-0.1-0.8,0-1.2,0.3c-1.1,1.1-2.2,2.1-3.3,3.2
		c-1.5,1.5-3,3-4.5,4.5c-0.2,0.2-0.2,0.4,0,0.6c0.8,0.8,1.5,1.6,2.3,2.3c0.3,0.4,0.7,0.7,1,1.1c1.3-1.3,2.6-2.6,3.9-3.9
		c0.2,0.2,0.3,0.3,0.4,0.4c4.3,4.4,8.5,8.8,12.8,13.2c0.3,0.3,0.5,0.6,0.8,0.9c0.1,0.2,0.1,0.3-0.1,0.4c-0.3,0.1-0.7,0.3-1,0.3
		c-0.7,0.1-1.4,0.2-2.1,0.2c-1.4,0-2.8,0-4.2-0.2c-2.3-0.3-4.5-1.2-6.6-2.2c-1-0.5-2.1-1-3.1-1.5c-0.3-0.2-0.5-0.1-0.7,0.2
		c-0.2,0.2-0.4,0.4-0.5,0.6c-0.4,0.5-0.8,0.9-1.5,0.7c-0.1,0-0.1,0-0.2,0c-0.6,0.1-1,0.6-0.9,1.2c0,0.1,0.1,0.3,0.1,0.4
		c0.1,0.5,0,0.9-0.5,1.2c-0.6,0.4-1.3,0.8-1.9,1.2c-1.2,0.8-2.3,1.8-2.9,3.1c-0.3,0.5-0.4,1.1-0.3,1.7
		C30.2,73.8,30.7,74.3,31.2,74.3z"/>
	<path d="M42.9,22.2c0.2,0.2,0.3,0.3,0.2,0.6c-1.5,4.3-2.9,8.7-4.4,13c0,0.1,0,0.2-0.1,0.3c3.9-2.9,7.8-5.7,11.6-8.5
		c3.9,2.9,7.7,5.7,11.6,8.6c-0.1-0.2-0.1-0.3-0.1-0.4c-1.4-4.3-2.8-8.6-4.3-12.9c-0.1-0.3-0.1-0.5,0.2-0.7c3.7-2.6,7.4-5.3,11.1-7.9
		c0.1-0.1,0.2-0.1,0.3-0.2c-0.2,0-0.3,0-0.4,0c-4.6,0-9.1,0-13.7,0.1c-0.3,0-0.4-0.1-0.5-0.4C53.8,11,52.9,8.2,52,5.4
		c-0.5-1.7-1.1-3.3-1.6-5.1c-0.1,0.1-0.1,0.2-0.1,0.2c-1.4,4.4-2.8,8.8-4.2,13.1c-0.1,0.3-0.2,0.4-0.5,0.4c-4.5,0-9.1-0.1-13.6-0.1
		c-0.1,0-0.2,0-0.4,0c0.2,0.1,0.3,0.2,0.4,0.3C35.5,16.9,39.2,19.6,42.9,22.2z M47.4,16.1c0.9-2.9,1.9-5.9,2.9-9c1,3.1,1.9,6,2.9,9
		c3.1,0,6.2,0,9.5,0c-0.5,0.4-1,0.7-1.5,1c-2,1.4-4,2.8-5.9,4.3C55,21.6,55,21.7,55.1,22c0.9,2.8,1.9,5.6,2.8,8.5c0,0,0,0.1,0.1,0.2
		c-2.6-1.9-5.1-3.8-7.6-5.6c-2.5,1.9-5.1,3.7-7.7,5.6c1-3.1,2-6,3-9c-2.5-1.8-5.1-3.7-7.7-5.5C41.1,16.1,44.3,16.1,47.4,16.1z"/>
	<path d="M74.4,85.9c-0.4,0.2-0.7,0.4-1.1,0.5c-1.3,0.6-2.6,0.7-4,0.7c-2,0-3.9-0.4-5.8-1.2c-1.6-0.7-3.2-1.4-4.9-1.9
		c-2.7-0.9-5.4-0.8-8.1,0c-0.3,0.1-0.6,0.1-0.8,0c-0.7-0.3-1.5-0.4-2.2-0.4c-1.2,0-2.5,0-3.7,0.1c-1.6,0.1-3,0.7-4.5,1.3
		c-1.6,0.6-3.2,1.3-4.8,1.9c-1.8,0.6-3.6,0.8-5.5,0.4c-1.1-0.2-2-0.6-3-1c-0.2-0.1-0.4-0.1-0.5-0.2c0,0.1,0,0.2,0,0.2
		c1.7,1.8,3.7,3.1,6.2,3.6c0.9,0.2,1.8,0.3,2.7,0.3c1.7-0.1,3.4-0.5,4.9-1.4c1.5-0.9,2.9-1.8,4.3-2.7c1-0.7,2.1-1.2,3.3-1.4
		c0.4-0.1,0.9-0.1,1.4,0.1c-3.3,1.6-6.2,3.8-8.8,6.4c0.5,0.4,0.9,0.7,1.3,1.1c0.4,0.3,0.5,0.3,0.8-0.1c1.3-1.5,2.7-2.9,4.3-4.2
		c1-0.8,2.2-1.5,3.3-2.2c0.5-0.4,1-0.4,1.6-0.2c0.2,0.1,0.4,0.1,0.6,0.2c1.2,0.9,2.4,1.7,3.6,2.6c1.3,1,2.4,2.2,3.6,3.3
		c0.7,0.7,0.8,0.7,1.6,0c0.1-0.1,0.2-0.2,0.2-0.3c0.6-0.6,0.6-0.7-0.1-1.2c-2-1.8-4.2-3.4-6.6-4.7c-0.5-0.3-1-0.5-1.6-0.8
		c0.7-0.2,1.4-0.2,2.1-0.1c0.9,0.2,1.6,0.6,2.4,1.1c1.2,0.8,2.4,1.6,3.7,2.4c1.5,0.9,3.2,1.4,5,1.6c1.2,0.1,2.4,0.1,3.5-0.1
		c2.3-0.5,4.3-1.8,6-3.5c0.1-0.1,0.2-0.3,0.3-0.4c0,0,0-0.1-0.1-0.1C74.7,85.8,74.6,85.9,74.4,85.9z"/>
	<path d="M87.2,69.1c-0.8,1.5-1.9,2.7-3.3,3.7c-1.1,0.8-2.4,1.5-3.7,2.1c-2.1,1.1-4.2,2.2-6,3.8c-0.2,0.2-0.4,0.3-0.5,0.5
		c0.1-0.2,0.2-0.4,0.4-0.6c0.8-0.9,1.5-1.9,2-3c0.7-1.5,0.9-3.1,1.2-4.6c0.3-1.6,0.5-3.2,1-4.7c0.1-0.2,0-0.3,0-0.5c0,0-0.1,0-0.1,0
		c-0.1,0.1-0.2,0.1-0.3,0.2c-1.2,1.6-2.4,3.2-3.2,5.1c-0.6,1.5-1.1,3-1.6,4.5c-0.7,2.2-1.7,4.2-3.4,5.8c-0.1,0.1-0.1,0.1-0.2,0.2
		c0,0,0,0.1,0,0.1c0.2,0,0.5-0.1,0.7-0.1c0.7-0.2,1.5-0.4,2.2-0.6c1.1-0.2,2.3-0.4,3.5-0.6c2.1-0.5,3.9-1.5,5.6-2.8
		c2.6-1.9,4.5-4.3,5.4-7.4c0.1-0.4,0.2-0.8,0.3-1.2c0,0-0.1,0-0.1,0C87.3,68.9,87.3,69,87.2,69.1z"/>
	<path d="M25.4,81c1.3,0.3,2.6,0.5,3.9,0.8c0.3,0.1,0.6,0.1,0.9,0.1c0,0,0-0.1,0-0.1c-0.1-0.1-0.3-0.2-0.4-0.4
		c-0.5-0.7-1.1-1.4-1.6-2.1c-1-1.5-1.5-3.2-2.1-4.8c-0.6-1.8-1.3-3.6-2.4-5.2c-0.6-1-1.4-1.9-2.1-2.9c-0.1-0.1-0.2-0.1-0.3-0.2
		c0,0.3,0.1,0.5,0.1,0.7c0.6,1.8,0.9,3.6,1.2,5.5c0.3,1.9,0.9,3.8,2,5.4c0.3,0.4,0.7,0.7,1,1.1c0.3,0.3,0.5,0.5,0.8,0.8
		c-0.1,0-0.2,0-0.2,0c-0.7-0.5-1.3-0.9-2-1.4c-1.4-0.9-2.8-1.9-4.3-2.6c-1.1-0.5-2.1-1-3.1-1.6c-1.3-0.7-2.4-1.7-3.3-2.9
		c-0.3-0.5-0.7-1-1-1.5c0,0.4,0,0.8,0.2,1.2c0.8,2.3,2.1,4.3,3.9,6c1.7,1.6,3.5,2.8,5.7,3.5C23.3,80.5,24.4,80.7,25.4,81z"/>
	<path d="M90,58.2c-0.1,0-0.1,0-0.2,0c0,0.1-0.1,0.3-0.1,0.4c-0.2,1-0.5,2.1-1.1,2.9c-0.8,1.1-1.8,2.2-2.7,3.2
		c-1.4,1.5-2.9,3.1-4,4.8c-0.3,0.4-0.6,0.8-0.9,1.2c0.2-0.5,0.4-1,0.6-1.5c0.7-2.1,0.7-4.2,0.3-6.4c-0.3-1.6-0.6-3.2-0.6-4.9
		c0-0.2-0.1-0.4-0.1-0.6c-0.1,0.1-0.2,0.3-0.3,0.4c-0.3,1-0.7,1.9-0.8,2.9c-0.3,1.9-0.6,3.8-0.7,5.8c-0.1,1.5-0.2,2.9-0.5,4.4
		c-0.3,1.3-0.5,2.6-1.2,3.8c-0.1,0.1-0.1,0.3-0.2,0.5c0.2-0.1,0.3-0.2,0.4-0.2c1.5-1,3-2,4.6-2.9c2-1.3,3.8-2.9,5.2-4.8
		c1.8-2.4,2.5-5.1,2.5-8.1C90.2,58.8,90.1,58.5,90,58.2z"/>
	<path d="M15.3,70.9c2.2,1.6,4.6,3.1,6.9,4.6c0.1,0.1,0.2,0.1,0.4,0.2c-0.1-0.2-0.1-0.4-0.2-0.5c-0.3-0.6-0.6-1.3-0.8-1.9
		c-0.6-1.6-0.7-3.2-0.9-4.9c-0.3-2.2-0.5-4.5-0.8-6.7c-0.1-0.9-0.4-1.8-0.6-2.7c-0.1-0.2-0.2-0.4-0.3-0.7c0,0-0.1,0-0.1,0
		c0,0.1,0,0.2-0.1,0.3c-0.1,0.9-0.3,1.9-0.4,2.8c-0.1,0.7-0.4,1.5-0.4,2.2c-0.1,1.1-0.1,2.2-0.1,3.3c0,1.4,0.2,2.6,1,3.8
		c0.1,0.1,0.1,0.2,0.2,0.3c0,0-0.1,0-0.1,0c-0.2-0.3-0.4-0.5-0.6-0.8c-0.3-0.4-0.5-0.9-0.9-1.3c-1.2-1.3-2.3-2.7-3.5-4
		c-0.9-1-1.9-1.8-2.5-2.9c-0.5-0.9-1-1.7-1.2-2.7c0-0.2-0.1-0.4-0.2-0.6c0,0-0.1,0-0.1,0c0,0.2-0.1,0.5-0.1,0.7c0,0.7,0,1.3,0.1,2
		c0.1,1.1,0.3,2.2,0.7,3.3C11.6,67.3,13.2,69.3,15.3,70.9z"/>
	<path d="M80.9,79.3c-1.2,1.2-2.7,2.1-4.3,2.4c-1.5,0.3-3.1,0.5-4.6,0.7c-1.5,0.2-3,0.4-4.6,0.6c-0.6,0.1-1.2,0.1-1.8,0.2
		c0.5-0.2,0.9-0.4,1.4-0.6c0.8-0.4,1.6-0.8,2.1-1.5c0.7-1,1.4-2.1,2-3.2c0.6-1.1,1.2-2.3,1.8-3.4c0-0.1,0.1-0.2,0.1-0.3
		c-0.2,0-0.4,0.1-0.5,0.2c-1.3,1.1-2.6,2.1-3.8,3.3c-1.3,1.2-2.6,2.5-3.9,3.6c-1.4,1.2-3,2-4.8,2.2c-0.2,0-0.4,0.1-0.6,0.1
		c0,0,0,0.1,0,0.1c0.2,0,0.3,0.1,0.5,0.1c0.6,0.1,1.1,0.1,1.7,0.3c2.3,0.5,4.7,1.1,7.1,1.4c1.3,0.2,2.7,0.2,4-0.1
		c3.2-0.6,5.7-2.2,7.8-4.7c0.5-0.6,0.8-1.2,1.2-1.8c0,0-0.1-0.1-0.1-0.1C81.2,79,81,79.1,80.9,79.3z"/>
	<path d="M34.9,85.1c1.9-0.5,3.8-0.9,5.6-1.4c-0.7-0.2-1.4-0.5-2.2-0.7c-1.7-0.6-3.3-1.4-4.6-2.8c-1.2-1.3-2.6-2.4-3.9-3.6
		c-0.8-0.7-1.7-1.4-2.6-2.1c-0.1-0.1-0.3-0.1-0.4-0.2c0,0.2,0,0.3,0.1,0.4c1,1.7,1.9,3.4,2.9,5.1c0.9,1.6,2.3,2.7,4.1,3.2
		c0.2,0,0.3,0.1,0.4,0.2c-0.2,0.1-0.4,0-0.6,0c-1.9-0.2-3.8-0.4-5.7-0.6c-1.2-0.1-2.5-0.2-3.7-0.4c-2-0.3-3.9-1.1-5.4-2.5
		c-0.1-0.1-0.3-0.2-0.4-0.3c0,0.1,0,0.2,0,0.2c0.1,0.1,0.1,0.2,0.2,0.3c1,1.5,2.2,2.7,3.6,3.7c1.8,1.3,3.8,2.1,6.1,2.2
		C30.7,85.9,32.8,85.7,34.9,85.1z"/>
	<path d="M14.2,63.5c0.7,0.7,1.2,1.6,1.8,2.5c0.1,0.1,0.2,0.3,0.3,0.4c0.1-0.2,0.1-0.2,0.1-0.3c0-0.5,0-1,0.1-1.4
		c0.1-1.4,0.1-2.7,0.5-4c0.7-2.5,1.6-4.9,1.9-7.5c0.2-1.3,0.4-2.6,0.3-3.9c0-0.1,0-0.3,0-0.4c-0.3,0.3-0.5,0.5-0.6,0.8
		c-0.8,1.5-1.5,3-2.2,4.5c-0.3,0.7-0.6,1.4-0.9,2.1c-0.4,1.1-0.7,2.3-0.6,3.4c0,0.5,0,0.9,0,1.4c0,0-0.1,0-0.1,0
		c-0.1-0.3-0.1-0.5-0.2-0.8c-0.3-1.5-0.6-2.9-1.2-4.3c-0.7-1.5-1.3-3-1.9-4.6c-0.2-0.6-0.3-1.2-0.4-1.8c-0.1-0.7-0.2-1.5-0.2-2.2
		c-0.1,0.1-0.2,0.2-0.2,0.3c-0.2,0.7-0.3,1.4-0.5,2.1c-0.5,2.4-0.3,4.7,0.4,7C11.2,59.3,12.5,61.5,14.2,63.5z"/>
	<path d="M85.4,59.1c0,0.2-0.1,0.4-0.1,0.7c0,0-0.1,0-0.1,0c0-0.3-0.1-0.7-0.1-1c0-1.1-0.2-2.2-0.7-3.2c-0.5-1-1-1.9-1.6-2.9
		c-0.8-1.3-1.5-2.6-2.2-4.1c-0.1,0.2-0.2,0.4-0.2,0.6c0,0.5,0,1.1,0.1,1.6c0.4,2.9,1.2,5.8,2,8.6c0.3,0.9,0.6,1.8,0.7,2.7
		c0.1,1,0.1,1.9,0.1,2.9c0,0.2,0,0.5,0,0.7c0.1,0,0.1,0.1,0.2,0.1c0.1-0.1,0.1-0.3,0.2-0.4c1.1-1.6,2.3-3.1,3.5-4.7
		c0.4-0.6,0.9-1.2,1.2-1.9c0.9-1.8,1.3-3.7,1.4-5.6c0.2-1.9,0.1-3.9-0.5-5.7c-0.1-0.3-0.2-0.6-0.3-0.9c-0.1,0.2-0.2,0.5-0.2,0.7
		c-0.1,2.1-0.5,4.1-1.4,6C86.7,55.2,85.8,57.1,85.4,59.1z"/>
	<path d="M85.3,39.5c-0.1,2.1-0.1,4.2-0.2,6.2c0,1.1,0,2.1-0.1,3.2c0,0.2,0,0.3,0,0.5c-0.4-0.8-0.6-1.6-1.1-2.3
		c-0.6-1.1-1.6-1.9-2.5-2.8c-1.1-1.1-2.1-2.2-3.2-3.2c-0.1-0.1-0.1-0.1-0.3-0.2c0,0.3,0,0.4,0,0.6c0.4,1.7,1,3.4,2,4.9
		c0.7,1,1.4,2,2.1,3c1.3,1.7,2.4,3.5,3,5.5c0.1,0.2,0.2,0.4,0.2,0.6c0,0,0.1,0,0.1,0c0.2-0.6,0.4-1.1,0.6-1.7
		c0.4-1.4,0.8-2.9,1.2-4.3c0.2-0.7,0.4-1.4,0.5-2.2c0.2-1.7,0.2-3.3-0.1-5c-0.4-2.3-1.4-4.3-2.9-6c-0.1-0.1-0.2-0.2-0.3-0.2
		c0,0-0.1,0-0.1,0.1c0.1,0.2,0.1,0.4,0.2,0.5C85.1,37.5,85.4,38.5,85.3,39.5z"/>
	<path d="M14.3,55.8C14.4,55.8,14.4,55.8,14.3,55.8c0.2-0.2,0.2-0.3,0.3-0.5c0.4-0.9,0.6-1.8,1.1-2.6c0.7-1.3,1.6-2.5,2.4-3.8
		c0.8-1.3,1.8-2.4,2.3-3.8c0.3-0.9,0.6-1.8,0.9-2.6c0.1-0.3,0.1-0.6,0.1-0.9c0,0-0.1,0-0.1,0c-0.1,0.1-0.2,0.2-0.3,0.4
		c-0.4,0.5-0.9,1-1.3,1.4c-0.7,0.7-1.5,1.3-2.1,1.9c-1.4,1.4-2.4,3-2.8,5c0,0.2-0.1,0.3-0.1,0.5c0-0.3-0.1-0.5,0-0.8
		c0.1-0.9,0.2-1.8,0.2-2.7c-0.1-1.8-0.3-3.6-0.5-5.4c-0.1-1.6,0-3.1,0.6-4.6c0.1-0.2,0.1-0.3,0.2-0.5c0,0-0.1,0-0.1-0.1
		c-0.1,0.1-0.2,0.2-0.3,0.3c-0.9,0.9-1.4,2-1.9,3.1c-0.2,0.5-0.5,0.9-0.6,1.4c-0.2,1-0.4,2.1-0.4,3.2c-0.1,1.8,0.1,3.5,0.7,5.1
		C13.2,51.7,13.9,53.7,14.3,55.8z"/>
	<path d="M80.6,34.5c0.3,1.2,0.7,2.5,1,3.7c0.2,0.7,0.4,1.4,0.6,2.1c-0.1,0-0.1,0-0.2,0c-0.1-0.1-0.2-0.2-0.3-0.3
		c-0.7-0.9-1.6-1.6-2.5-2.3c-0.6-0.4-1.1-0.8-1.6-1.2c-0.9-0.6-1.8-1.2-2.3-2.2c-0.2-0.3-0.4-0.6-0.7-1c0.1,1.5,0.6,2.9,1.4,4
		c0.9,1.3,2,2.4,3.3,3.4c1.4,1.1,2.8,2.2,4,3.6c0.4,0.4,0.7,0.9,1.1,1.5c0-0.2,0-0.3,0-0.4c0-2.2,0-4.5,0-6.7c0-0.8-0.1-1.5-0.3-2.2
		c-0.4-1.7-1.5-3.1-2.8-4.2c-0.7-0.6-1.6-1.2-2.5-1.4c-0.1,0-0.2,0-0.3,0c0.1,0.2,0.2,0.3,0.3,0.4C79.6,32.1,80.3,33.2,80.6,34.5z"
		/>
	<path d="M15.6,46.3c0,0,0.1,0,0.1,0c0.1-0.2,0.3-0.5,0.4-0.7c0.8-1.2,1.8-2.3,2.9-3.1c1.2-0.9,2.4-1.9,3.4-3
		c1.2-1.4,2.1-2.9,2.6-4.7c0-0.2,0-0.3,0-0.5c0,0-0.1,0-0.1,0c-0.1,0.2-0.3,0.3-0.4,0.5c-0.2,0.3-0.4,0.6-0.7,0.8
		c-0.8,0.7-1.6,1.4-2.4,2c-1.6,1.3-3.3,2.4-4.3,4.3c0-0.1,0-0.2,0-0.3c0.6-2.1,1.1-4.2,1.7-6.3c0.4-1.3,0.9-2.5,2-3.4
		c0.1-0.1,0.1-0.1,0.2-0.2c0,0-0.1-0.1-0.1-0.1c-0.3,0.1-0.5,0.1-0.8,0.3c-1.3,0.6-2.3,1.5-3.2,2.6c-0.9,1.1-1.4,2.4-1.5,3.8
		c-0.1,0.9-0.2,1.8-0.2,2.8c0,1.6,0.1,3.2,0.2,4.9C15.5,45.9,15.5,46.1,15.6,46.3z"/>
	<path d="M72.3,29.1c0.9,1.1,1.7,2.2,2.6,3.3c1.5,1.9,3.3,3.5,5.2,5c0.1,0.1,0.3,0.2,0.5,0.3c0,0,0.1-0.1,0.1-0.1c-0.3-1-0.6-2-1-3
		c-0.9-2.4-2.3-4.5-4.7-5.7c-1.1-0.6-2.4-1.1-3.5-1.6c-0.2-0.1-0.4-0.1-0.7-0.2c0,0,0,0.1-0.1,0.1c0.1,0.2,0.3,0.4,0.4,0.6
		C71.5,28.2,71.9,28.6,72.3,29.1z"/>
	<path d="M20,34.6c-0.3,1-0.6,1.9-0.9,2.9c0,0.2-0.1,0.3-0.1,0.5c0,0,0.1,0,0.1,0.1c0.1-0.1,0.3-0.2,0.4-0.3c0.4-0.3,0.8-0.7,1.2-1
		c1.6-1.3,3-2.7,4.2-4.4c0.9-1.4,1.9-2.8,3.1-4c0.2-0.2,0.4-0.5,0.7-0.8c-0.6-0.1-1,0.1-1.4,0.3c-0.5,0.2-1,0.5-1.5,0.8
		c-2.5,1-4.2,2.8-5.4,5.1C20.2,34.1,20.1,34.3,20,34.6z"/>
</g>
</svg>
