<?xml version="1.0" encoding="utf-8"?>
<!-- Generator: Adobe Illustrator 21.0.0, SVG Export Plug-In . SVG Version: 6.00 Build 0)  -->
<svg version="1.1" id="Layer_1" xmlns="http://www.w3.org/2000/svg" xmlns:xlink="http://www.w3.org/1999/xlink" x="0px" y="0px"
	 viewBox="0 0 100 100" style="enable-background:new 0 0 100 100;" xml:space="preserve">
<path d="M71.6,55.3c1-1.3,1.7-2.4,2.6-3.5c2.1-2.5,2.9-5.5,2.9-8.7c-0.1-3.2,0-6.4,0-9.6c0-2.6-0.8-4.8-2.6-6.7
	c-3.8-4-7.6-8-11.5-11.9c-0.7-0.7-2-1.2-3.1-1.3c-4.6-0.1-9.2-0.1-13.7-0.1c-2.3,0-4,1.2-5.1,3c-0.8,1.3-1.7,1.7-3.2,1.6
	c-1.7-0.1-3.4,0-5,0c-1.6,0-2.8,0.7-3.7,2c-2,3.2-4,6.4-5.9,9.7c-1.8,3.2-1.4,6.8-1.9,10.3c-0.5,3.5-0.7,7.1-1.1,10.8
	c-0.7-0.3-1.1-0.4-1.5-0.6c-5.3-2.9-10.6-5.8-15.9-8.7c-1.5-0.8-2.2-1.8-2.1-3.6c0.1-3,0.1-6,0-9c0-2.4,1-4.2,2.8-5.6
	c2.1-1.6,4.1-3.3,6.1-5c1.7-1.4,3.5-2.2,5.7-2.2c2.8,0,5.6,0,8.4,0c3.3,0,4.7-1.4,4.7-4.7c0-1.5-0.2-3.1,0.1-4.5
	c0.2-1,0.9-2.4,1.6-2.6c6-1.7,11.9-4.4,18.2-3.9c6.9,0.6,13.2,3.2,17.9,8.7c1.4,1.7,2.8,3.5,4.3,5.1c1.5,1.7,2.7,1.9,4.7,0.8
	c2.2-1.1,2.7-1.1,4.4,0.7c4.2,4.4,8.4,8.8,12.6,13.2c2.9,3.1,2.9,4,0.3,7.3c-4.6,5.7-9.3,11.3-13.9,16.9
	C76.7,55.6,74.5,55.9,71.6,55.3z"/>
<path d="M89.8,61.1c0.9,3.4,2,6.2,2.4,9.1c0.2,1.2-0.4,2.9-1.2,4c-3,4.2-6.2,8.2-9.3,12.3c-1.6,2.1-3.8,2.8-6.1,3.1
	c-7.3,0.9-14.6,1.8-22,2.5c-1.4,0.1-3-0.2-4.1-0.8c-7.5-4.1-14.9-8.3-22.4-12.5c-1.1-0.6-2.3-1.2-3.4-1.9c-1.3-0.8-1.3-1.7-0.2-2.7
	c0.7-0.6,1.5-1.1,2.4-1.6c7-4,13.9-8.1,21-11.9c2.2-1.1,4.9-1.6,7.4-1.7c7-0.2,14.1-0.2,21.1-0.1c3.1,0.1,5.5-1.2,7.4-3.6
	c2.8-3.5,5.7-7.1,8.5-10.6c0.4-0.5,0.8-1,1.4-1.7c2.3,2.1,4.6,4.1,6.8,6.2c0.5,0.5,0.7,1.6,0.6,2.3c-0.1,0.4-1.2,0.7-1.9,0.7
	c-4.6,0.2-8.1,2.3-11,5.7c-3.6,4.2-7.1,8.5-10.5,12.8c-1.7,2.2-3.8,3.8-6.3,4.8c-4.2,1.7-8.5,3.1-12.7,4.7c-2.4,0.9-4.6,0.3-6.7-0.9
	C47,77.2,43.2,75,39.4,73c-0.7-0.4-1.7-0.3-2.6-0.4c0.5,0.8,0.9,1.8,1.6,2.2c3.9,2.5,8,4.7,11.9,7.2c3.5,2.2,7,2.7,10.9,0.9
	c4-1.9,8.3-3.3,12.4-5c2.7-1.1,4.9-2.8,6.7-5.1C83.4,69.1,86.4,65.3,89.8,61.1z"/>
<path d="M49.5,94.6c-0.5,1-1,1.8-1.4,2.6c-1.3,2.4-2.4,2.8-4.9,1.5c-2.7-1.4-5.4-2.9-8.1-4.4c-6.8-3.8-13.6-7.6-20.4-11.3
	c-2.7-1.5-4.7-3.7-6.1-6.5c-2.8-5.7-5.5-11.4-8.2-17.1c-0.9-1.9-0.6-2.9,1.3-3.8c3.1-1.4,6.2-2.8,9.3-4.2c1.5-0.7,2.9-0.4,4.5,0.2
	c3.9,1.5,5.8,4.3,6.6,8.4c0.5,2.6,1.3,5.1,2,7.6c0.3,1,0.1,1.7-0.9,2.2c-0.9,0.5-1.8,1.1-2.7,1.7c-2.8,2.2-2.7,5,0.3,6.9
	c1.7,1.1,3.5,2,5.2,3c7.4,4.1,14.8,8.2,22.3,12.4C48.8,94,49.1,94.3,49.5,94.6z"/>
<path d="M54,30.1c0.5,0.6,1,1.1,1.5,1.7c0.7,0.8,1.3,1.6,0.5,2.7c-0.9,1.2-1.5,2.9-3.4,2.3c-2.1-0.7-4.1-1.6-6.2-2.5
	c-1.1-0.5-1-1.4-0.6-2.3c0.8-1.5,1.7-2.9,2.7-4.3c0.3-0.5,1-0.8,1.6-1c0.6-0.2,1.3-0.1,2-0.1c6.5,0,6.5-0.1,10.8,4.9
	c0.7,0.8,1.4,1.9,1.4,2.9c0.2,2.9,0.1,5.9,0.1,8.9c-0.3,0-0.6,0-0.8-0.1c-3.8-1.9-7.6-1.2-11.2,0.4c-2.6,1.1-4.8,0.9-7.2-0.4
	c-2.6-1.5-5.3-2.8-8.1-4.1c-1.7-0.8-2.5-2.1-2-3.8c0.4-1.8,1.1-3.5,2-5.1c2.1-3.6,4.5-7.1,6.8-10.6c1-1.5,2.3-2.3,4.2-2.3
	c3.6,0.1,7.3-0.1,10.9,0.1c1.2,0.1,2.6,0.7,3.5,1.5c2.9,2.7,5.5,5.6,8.3,8.3c1.6,1.6,2.5,3.5,2.5,5.8c0,3.7-0.1,7.4,0,11.1
	c0,1.5-0.5,1.7-1.8,1.3c-4.1-1.2-4.1-1.2-4.1-5.5c0-1.8,0.2-3.6-0.1-5.4c-0.2-1.3-0.7-2.8-1.6-3.9c-1.6-1.9-3.4-3.7-5.3-5.3
	c-0.9-0.7-2.1-1.3-3.2-1.4c-2.4-0.2-4.9-0.1-7.4-0.1c-1.4,0-2.5,0.5-3.2,1.7c-1.2,1.8-2.4,3.6-3.5,5.5c-1.3,2.2-0.9,3.5,1.4,4.6
	c2.8,1.4,5.6,2.7,8.5,3.9c1.7,0.8,3.2,0.3,4.3-1.2c0.5-0.6,0.9-1.3,1.4-1.9c1.9-2.7,1.2-5.3-1.8-6.6c-0.7-0.3-1.6-0.2-2.4-0.3
	C54.2,29.7,54.1,29.9,54,30.1z"/>
<path d="M71.3,48.5c-1.7,2.4-3.1,4.6-4.7,6.7c-0.3,0.5-1.3,0.6-1.9,0.7c-4.4,0.1-8.7,0.1-13.1,0c-2.8-0.1-5.3,0.7-7.7,2
	c-4.1,2.3-8.3,4.7-12.4,7c-0.5,0.3-1.1,0.5-2,1c0.5-2.4,1.2-4.3,1.3-6.3c0.4-4.8,3-6.9,7.5-8c5.5-1.3,10.9-3.2,16.3-4.9
	c3.7-1.2,7.2-1.1,10.9-0.1C67.4,47.2,69.2,47.8,71.3,48.5z"/>
<path d="M25.7,36c6.7,3.3,13,6.4,19.8,9.7C43,46.5,41,47.2,39,47.8c-2.2,0.7-4.4,1.3-6.6,2c-2.5,0.8-4.1,2.4-4.7,5
	c-0.5,2.3-1,4.6-1.7,6.9C23.8,53.3,24.6,44.8,25.7,36z"/>
<path d="M38,21.7c-2.2,5-6.9,8.5-6.7,14.7c-1.5-0.8-2.9-1.2-4-2.1c-0.5-0.4-0.8-1.8-0.5-2.4c1.6-3.1,3.4-6.1,5.4-9
	c0.5-0.7,1.8-1,2.7-1.2C35.8,21.4,36.8,21.6,38,21.7z"/>
</svg>
