<?xml version="1.0" encoding="utf-8"?>
<!-- Generator: Adobe Illustrator 21.0.0, SVG Export Plug-In . SVG Version: 6.00 Build 0)  -->
<svg version="1.1" id="Layer_1" xmlns="http://www.w3.org/2000/svg" xmlns:xlink="http://www.w3.org/1999/xlink" x="0px" y="0px"
	 viewBox="0 0 100 100" style="enable-background:new 0 0 100 100;" xml:space="preserve">
<g>
	<path d="M41.8,47.2c0-0.5,0.2-0.9,0.6-1.1c-1,0.2-1.8,0.6-2,1.1c0.6,0.6,1.3,1,2,1.2C42.1,48.2,41.8,47.7,41.8,47.2z"/>
	<path d="M57.5,48.4c0.7-0.2,1.4-0.5,2-1.2c-0.1-0.5-1-1-2-1.1c0.4,0.3,0.6,0.7,0.6,1.1C58.2,47.7,57.9,48.2,57.5,48.4z"/>
	<path d="M43.9,48.4c0.8-0.1,1.5-0.4,2.1-0.9c-0.5-0.8-1.2-1.2-1.9-1.4c0.3,0.3,0.5,0.6,0.5,1.1C44.6,47.7,44.3,48.2,43.9,48.4z"/>
	<path d="M50,58.9c0.9,0,1.5-0.6,4.5,0.3c0.2,0,0.4,0,0.6,0c-0.8-0.3-1.4-0.9-2.5-1.5c-1.1-0.6-2,0.2-2.6,0.2s-1.5-0.8-2.6-0.2
		c-1.1,0.6-1.7,1.2-2.5,1.5c0.2,0,0.4,0,0.6,0C48.5,58.3,49.1,58.9,50,58.9z"/>
	<path d="M50,59.5c-1.2,0-1.8-0.9-4.5-0.3c2.6,0,1.9,1.7,4.5,1.7s1.8-1.7,4.5-1.7C51.8,58.7,51.2,59.5,50,59.5z"/>
	<path d="M55.4,47.2c0-0.4,0.2-0.8,0.5-1.1c-0.7,0.2-1.4,0.6-1.9,1.4c0.6,0.5,1.3,0.8,2.1,0.9C55.7,48.2,55.4,47.7,55.4,47.2z"/>
	<path d="M99.1,49.4l-29.2-1.1c0-0.1,0-0.2,0-0.3c4.8-0.9,8.2-3.6,13.1-3.1c6.1,0.5,9.5-2.8,11.8-3.6c2.4-0.8,3.8,0.8,4.1,0.1
		c0.3-0.7-1.5-2.2-4.9-1.7c-3.4,0.5-4.3,3-11.8,2.4c-6.3-0.5-8.5,2-13.1,2.3c0-0.2-0.1-0.3-0.1-0.5l26.5-12.2c0,0,0.9-0.4,0.6-0.9
		c-0.2-0.6-1.1-0.2-1.1-0.2L67.8,40.8c-0.1-0.1-0.1-0.2-0.2-0.3c4.1-2.6,6.2-6.4,10.9-7.9c5.8-1.8,7.7-6.2,9.6-7.8
		c1.9-1.6,3.8-0.7,3.8-1.4c0-0.8-2.3-1.5-5.2,0.3c-2.9,1.7-2.9,4.5-9.9,6.8c-6,1.9-7.1,5.1-11.3,7.1c-0.1-0.1-0.2-0.2-0.3-0.4
		l19.8-21.4c0,0,0.7-0.7,0.2-1.1c-0.4-0.4-1.1,0.2-1.1,0.2L62.9,34.7c-0.1-0.1-0.2-0.1-0.3-0.2c2.8-4,3.3-8.3,7.1-11.5
		c4.7-3.9,4.7-8.7,5.9-10.9c1.1-2.2,3.3-2.1,3-2.8c-0.3-0.7-2.6-0.5-4.7,2.2c-2,2.7-0.9,5.2-6.6,10c-4.8,4.1-4.6,7.4-7.7,10.9
		c-0.1-0.1-0.3-0.2-0.4-0.2L69.3,4.9c0,0,0.4-0.9-0.2-1.1c-0.6-0.2-0.9,0.6-0.9,0.6L56,30.9c-0.1,0-0.2-0.1-0.3-0.1
		c1-4.7-0.2-8.9,2.1-13.3c2.8-5.4,1.1-9.8,1.2-12.3c0.2-2.5,2.2-3.2,1.7-3.7c-0.5-0.6-2.6,0.6-3.5,3.9c-0.8,3.3,1.1,5.2-2.2,11.8
		c-2.9,5.6-1.4,8.6-2.9,13c-0.2,0-0.3,0-0.5,0L50.6,0.9c0,0,0-0.9-0.6-0.9s-0.6,0.9-0.6,0.9l-1.1,29.2c-0.1,0-0.2,0-0.3,0
		c-0.9-4.8-3.6-8.2-3.1-13.1c0.5-6.1-2.8-9.5-3.6-11.8c-0.8-2.4,0.8-3.8,0.1-4.1c-0.7-0.3-2.2,1.5-1.7,4.9c0.5,3.4,3,4.3,2.4,11.8
		c-0.5,6.3,2,8.5,2.3,13.1c-0.2,0-0.3,0.1-0.5,0.1L31.8,4.4c0,0-0.4-0.9-0.9-0.6c-0.6,0.2-0.2,1.1-0.2,1.1l10.1,27.3
		c-0.1,0.1-0.2,0.1-0.3,0.2c-2.6-4.1-6.4-6.2-7.9-10.9c-1.8-5.8-6.2-7.7-7.8-9.6c-1.6-1.9-0.7-3.8-1.4-3.8c-0.8,0-1.5,2.3,0.3,5.2
		c1.7,2.9,4.5,2.9,6.8,9.9c1.9,6,5.1,7.1,7.1,11.3c-0.1,0.1-0.2,0.2-0.4,0.3L15.7,14.9c0,0-0.7-0.7-1.1-0.2
		c-0.4,0.4,0.2,1.1,0.2,1.1l19.8,21.4c-0.1,0.1-0.1,0.2-0.2,0.3c-4-2.8-8.3-3.3-11.5-7.1c-3.9-4.7-8.7-4.7-10.9-5.9
		c-2.2-1.1-2.1-3.3-2.8-3c-0.7,0.3-0.5,2.6,2.2,4.7s5.2,0.9,10,6.6c4.1,4.8,7.4,4.6,10.9,7.7c-0.1,0.1-0.2,0.3-0.2,0.4L4.9,30.7
		c0,0-0.9-0.4-1.1,0.2c-0.2,0.6,0.6,0.9,0.6,0.9L30.9,44c0,0.1-0.1,0.2-0.1,0.3c-4.7-1-8.9,0.2-13.3-2.1c-5.4-2.8-9.8-1.1-12.3-1.2
		c-2.5-0.2-3.2-2.2-3.7-1.7c-0.6,0.5,0.6,2.6,3.9,3.5c3.3,0.8,5.2-1.1,11.8,2.2c5.6,2.9,8.6,1.4,13,2.9c0,0.2,0,0.3,0,0.5L0.9,49.4
		c0,0-0.9,0-0.9,0.6s0.9,0.6,0.9,0.6l29.2,1.1c0,0.1,0,0.2,0,0.3c-4.8,0.9-8.2,3.6-13.1,3.1c-6.1-0.5-9.5,2.8-11.8,3.6
		c-2.4,0.8-3.8-0.8-4.1-0.1c-0.3,0.7,1.5,2.2,4.9,1.7c3.4-0.5,4.3-3,11.8-2.4c6.3,0.5,8.5-2,13.1-2.3c0,0.2,0.1,0.3,0.1,0.5
		L4.4,68.2c0,0-0.9,0.4-0.6,0.9c0.2,0.6,1.1,0.2,1.1,0.2l27.3-10.1c0.1,0.1,0.1,0.2,0.2,0.3c-4.1,2.6-6.2,6.4-10.9,7.9
		c-5.8,1.8-7.7,6.2-9.6,7.8c-1.9,1.6-3.8,0.7-3.8,1.4c0,0.8,2.3,1.5,5.2-0.3c2.9-1.7,2.9-4.5,9.9-6.8c6-1.9,7.1-5.1,11.3-7.1
		c0.1,0.1,0.2,0.2,0.3,0.4L14.9,84.3c0,0-0.7,0.7-0.2,1.1c0.4,0.4,1.1-0.2,1.1-0.2l21.4-19.8c0.1,0.1,0.2,0.1,0.3,0.2
		c-2.8,4-3.3,8.3-7.1,11.5c-4.7,3.9-4.7,8.7-5.9,10.9c-1.1,2.2-3.3,2.1-3,2.8c0.3,0.7,2.6,0.5,4.7-2.2s0.9-5.2,6.6-10
		c4.8-4.1,4.6-7.4,7.7-10.9c0.1,0.1,0.3,0.2,0.4,0.2L30.7,95.1c0,0-0.4,0.9,0.2,1.1c0.6,0.2,0.9-0.6,0.9-0.6L44,69.1
		c0.1,0,0.2,0.1,0.3,0.1c-1,4.7,0.2,8.9-2.1,13.3c-2.8,5.4-1.1,9.8-1.2,12.3c-0.2,2.5-2.2,3.2-1.7,3.7c0.5,0.6,2.6-0.6,3.5-3.9
		c0.8-3.3-1.1-5.2,2.2-11.8c2.9-5.6,1.4-8.6,2.9-13c0.2,0,0.3,0,0.5,0l1.1,29.2c0,0,0,0.9,0.6,0.9s0.6-0.9,0.6-0.9l1.1-29.2
		c0.1,0,0.2,0,0.3,0c0.9,4.8,3.6,8.2,3.1,13.1c-0.5,6.1,2.8,9.5,3.6,11.8c0.8,2.4-0.8,3.8-0.1,4.1c0.7,0.3,2.2-1.5,1.7-4.9
		c-0.5-3.4-3-4.3-2.4-11.8c0.5-6.3-2-8.5-2.3-13.1c0.2,0,0.3-0.1,0.5-0.1l12.2,26.5c0,0,0.4,0.9,0.9,0.6c0.6-0.2,0.2-1.1,0.2-1.1
		L59.2,67.8c0.1-0.1,0.2-0.1,0.3-0.2c2.6,4.1,6.4,6.2,7.9,10.9c1.8,5.8,6.2,7.7,7.8,9.6c1.6,1.9,0.7,3.8,1.4,3.8
		c0.8,0,1.5-2.3-0.3-5.2c-1.7-2.9-4.5-2.9-6.8-9.9c-1.9-6-5.1-7.1-7.1-11.3c0.1-0.1,0.2-0.2,0.4-0.3l21.4,19.8c0,0,0.7,0.7,1.1,0.2
		c0.4-0.4-0.2-1.1-0.2-1.1L65.3,62.9c0.1-0.1,0.1-0.2,0.2-0.3c4,2.8,8.3,3.3,11.5,7.1c3.9,4.7,8.7,4.7,10.9,5.9
		c2.2,1.1,2.1,3.3,2.8,3c0.7-0.3,0.5-2.6-2.2-4.7c-2.7-2-5.2-0.9-10-6.6c-4.1-4.8-7.4-4.6-10.9-7.7c0.1-0.1,0.2-0.3,0.2-0.4
		l27.3,10.1c0,0,0.9,0.4,1.1-0.2c0.2-0.6-0.6-0.9-0.6-0.9L69.1,56c0-0.1,0.1-0.2,0.1-0.3c4.7,1,8.9-0.2,13.3,2.1
		c5.4,2.8,9.8,1.1,12.3,1.2c2.5,0.2,3.2,2.2,3.7,1.7c0.6-0.5-0.6-2.6-3.9-3.5c-3.3-0.8-5.2,1.1-11.8-2.2c-5.6-2.9-8.6-1.4-13-2.9
		c0-0.2,0-0.3,0-0.5l29.2-1.1c0,0,0.9,0,0.9-0.6S99.1,49.4,99.1,49.4z M52.8,64.2c0-0.1,0-0.2-0.1-0.2c0,0,0,0,0-0.1
		c0-0.1,0-0.1-0.1-0.2c0,0,0,0,0-0.1c0-0.1-0.1-0.1-0.1-0.2c0,0,0-0.1,0-0.1c0,0-0.1-0.1-0.1-0.1c0,0,0,0-0.1-0.1
		c0-0.1-0.1-0.1-0.1-0.2c0,0,0,0-0.1-0.1c0,0-0.1-0.1-0.1-0.1c0,0,0,0-0.1-0.1c-0.1-0.1-0.1-0.1-0.2-0.2c0,0,0,0,0,0
		c-0.1,0-0.1-0.1-0.2-0.1c0,0,0,0-0.1,0c-0.1,0-0.1-0.1-0.2-0.1c0,0,0,0,0,0c-0.1,0-0.1-0.1-0.2-0.1c0,0,0,0-0.1,0
		c-0.1,0-0.1,0-0.2-0.1c0,0-0.1,0-0.1,0c0,0-0.1,0-0.1,0c-0.1,0-0.1,0-0.2,0c0,0-0.1,0-0.1,0c-0.1,0-0.1,0-0.2,0c0,0-0.1,0-0.1,0
		c0,0-0.1,0-0.1,0c-0.1,0-0.1,0-0.2,0c0,0-0.1,0-0.1,0c-0.1,0-0.1,0-0.2,0c0,0-0.1,0-0.1,0c0,0-0.1,0-0.1,0c-0.1,0-0.1,0-0.2,0.1
		c0,0,0,0-0.1,0c-0.1,0-0.1,0.1-0.2,0.1c0,0,0,0,0,0c-0.1,0-0.1,0.1-0.2,0.1c0,0,0,0-0.1,0c-0.1,0-0.1,0.1-0.2,0.1c0,0,0,0,0,0
		c-0.1,0-0.1,0.1-0.2,0.2c0,0,0,0-0.1,0.1c0,0-0.1,0.1-0.1,0.1c0,0,0,0-0.1,0.1c0,0.1-0.1,0.1-0.1,0.2c0,0,0,0-0.1,0.1
		c0,0-0.1,0.1-0.1,0.1c0,0,0,0.1,0,0.1c0,0.1-0.1,0.1-0.1,0.2c0,0,0,0,0,0.1c0,0.1-0.1,0.1-0.1,0.2c0,0,0,0,0,0.1
		c0,0.1-0.1,0.2-0.1,0.2c0-1.5,1.2-2.8,2.8-2.8c-3.4,0-1.8-1.8-5.1-2.2c1.4-0.9,2-2.3,3.5-2.3c0.3,0,0.9,0.2,1.5,0.5
		c0.6-0.3,1.2-0.5,1.5-0.5c1.5,0,2.2,1.4,3.5,2.3c-3.2,0.3-1.7,2.2-5.1,2.2C51.5,61.4,52.8,62.6,52.8,64.2z M53.2,52.8
		c0.4,0.1,0.7,0.3,0.9,0.6c0.4,0.6,0.3,1.5-0.3,1.9c-0.6,0.4-1.5,0.3-1.9-0.3c-0.6,0.5-1.5,0.5-1.8,0.5s-1.2,0-1.8-0.5
		c-0.4,0.6-1.3,0.8-1.9,0.3c-0.6-0.4-0.8-1.3-0.3-1.9c0.2-0.3,0.5-0.5,0.9-0.6c-0.5,0.2-0.7,0.7-0.6,1.2c0.2,0.5,0.7,0.7,1.2,0.6
		c0.3-0.1,0.6-0.4,0.6-0.8c0.2,0.3,0.8,1.2,2,1.2s1.8-0.9,2-1.2c0,0.4,0.3,0.7,0.6,0.8c0.5,0.2,1-0.1,1.2-0.6
		C54,53.5,53.7,52.9,53.2,52.8z M48,52.9c-0.2-0.2-0.5-0.3-0.6-0.3c2.1-3,2.2-5.8,0.5-8.2c-2.5-2.3-6.9-1.8-10.5,1.2
		c3.4-4.6,8-4.3,11.4-1.5C49.8,46.9,49.6,50,48,52.9z M42.9,44.8c2,0,2.5,0.5,3.4,1.2c0.9,0.8,1.4,0.6,1.5,0.8
		c0.2,0.2,0,0.6-0.3,0.5c-0.3-0.2-0.9-0.5-1.8-1.2c-0.9-0.8-1.8-0.8-2.8-0.8c-2.8,0-4.3,2.3-4.6,2.2C38,47.2,39.8,44.8,42.9,44.8z
		 M46.6,47.5c-0.8,0.7-2,1.1-3.4,1.1c0,0,0,0,0,0c0,0-0.1,0-0.1,0c-1.3,0-2.6-0.4-3.7-1.2C41.4,45.2,45.1,45.1,46.6,47.5z
		 M45.4,48.8c1.2-0.6,1.5-0.9,1.8-0.9c0.3,0,0.3,0.3-1.2,1.2c-1.5,0.9-4.2,1.1-6.8-0.9C42.3,49.4,44.2,49.4,45.4,48.8z M54,49.1
		c-1.5-0.9-1.5-1.2-1.2-1.2c0.3,0,0.6,0.3,1.8,0.9c1.2,0.6,3.1,0.6,6.2-0.6C58.2,50.2,55.5,50,54,49.1z M53.4,47.5
		c1.5-2.5,5.2-2.3,7.2-0.2c-1.1,0.8-2.4,1.2-3.7,1.2c0,0-0.1,0-0.1,0c0,0,0,0,0,0C55.4,48.6,54.2,48.2,53.4,47.5z M57.1,45.2
		c-0.9,0-1.8,0-2.8,0.8c-0.9,0.8-1.5,1.1-1.8,1.2c-0.3,0.2-0.5-0.3-0.3-0.5c0.2-0.2,0.6,0,1.5-0.8c0.9-0.8,1.4-1.2,3.4-1.2
		c3.1,0,4.9,2.5,4.6,2.6C61.4,47.5,59.8,45.2,57.1,45.2z M52.2,44.5c-1.8,2.4-1.6,5.2,0.5,8.2c-0.2,0-0.5,0.2-0.6,0.3
		c-1.6-3-1.8-6-0.8-8.8c3.4-2.8,8-3.1,11.4,1.5C59.1,42.6,54.6,42.2,52.2,44.5z"/>
</g>
</svg>
