<?xml version="1.0" encoding="utf-8"?>
<!-- Generator: Adobe Illustrator 21.0.0, SVG Export Plug-In . SVG Version: 6.00 Build 0)  -->
<svg version="1.1" id="Layer_1" xmlns="http://www.w3.org/2000/svg" xmlns:xlink="http://www.w3.org/1999/xlink" x="0px" y="0px"
	 viewBox="0 0 100 100" style="enable-background:new 0 0 100 100;" xml:space="preserve">
<path d="M76.7,51.3c-2.5-0.4-5.3,1.1-6.2,3.2c-0.6,1.5-0.2,3,0.2,4.2c-1.6,0.1-3.5,0.3-4.7,1.4c-1.9,1.4-2.8,3.7-1.2,6.6
	c1.5,2.6,5.1,2.9,7.4,0.8c-0.8,4.4-2.9,6.2-5.1,6.2c-2.2,0-3.7-0.9-5.1-3.3c-1.5,2.5-3.7,3.3-5.8,3.3c-2.8,0-5.6-3.3-5.3-6.5
	c1.2,0.6,2.8,1.6,5.1,1.6c2.2,0,5-1.8,5-5.5c0-4.8-5.8-5.1-6.6-4.5c0.4-0.9,1.1-2.1,0.6-4.2c-0.2-0.9-1.9-3.6-5-3.6
	c-3.6,0-4.8,3.6-4.8,3.6c-0.6,1.8,0,3,0.5,4.2c-1.1-0.6-6.7-0.5-6.8,4.5c-0.1,4.1,2.9,5.5,4.8,5.5c2,0,4-1,5.1-1.6
	c0.4,2.7-2.4,6.5-5.6,6.5c-2.6,0-3.9-1.4-5.1-3.3c-0.9,2-2.4,3.3-5,3.3c-2.3,0-4.9-2.6-6-6.1c2.5,2,5.9,1.3,7.5-0.3
	c2.5-2.2,1.8-6.4-1.3-7.8c-1.3-0.8-2.9-0.9-4.5-0.8c0.3-1.5,0.6-2.9-0.1-4.2c-0.8-2.3-3.7-3.4-6.1-3.2c1.2,8.7,2.7,17.4,4.2,26.1
	h45.4L76.7,51.3L76.7,51.3z M27.3,78.6L29,89.4h41.4c0.7-3.6,1.3-7.1,1.9-10.8H27.3L27.3,78.6z"/>
<path d="M100,11.9c-2.1-0.3-4.4,0.9-5.2,2.7c-0.5,1.3-0.1,2.5,0.2,3.6c-1.4,0.1-3,0.3-4,1.2c-1.6,1.2-1.8,3.3-1.2,4.9
	c0.9,2.3,3.3,2.7,5.5,2.6c0,2.8-1.9,3.9-3.4,3.9c-1.8,0-3.1-0.8-4.3-2.8c-1.2,2.1-3.1,2.8-4.9,2.8c-2.4,0-4.7-2.8-4.5-5.5
	c1,0.5,2.4,1.3,4.3,1.3c1.9,0,4.2-1.5,4.2-4.6c0-4.1-4.9-4.3-5.5-3.8c0.3-0.7,1-1.8,0.5-3.5c-0.2-0.8-1.6-3.1-4.2-3.1
	c-3.1,0-4,3.1-4,3.1c-0.5,1.5,0,2.5,0.5,3.5c-1-0.5-5.6-0.5-5.7,3.8c-0.1,3.4,2.4,4.6,4.1,4.6c1.7,0,3.4-0.8,4.3-1.3
	c0.3,2.3-2,5.5-4.8,5.5c-2.2,0-3.3-1.2-4.3-2.8c-0.8,1.7-2,2.8-4.2,2.8c-2.2,0-3.5-2.2-4-3.9c1.9,0.2,3.9-0.1,5.3-1.5
	c2.1-1.8,1.5-5.4-1.1-6.6c-1.1-0.7-2.5-0.8-3.8-0.7c0.2-1.2,0.5-2.4,0-3.6c-0.7-2-3.1-2.9-5.2-2.7c1,7.4,2.3,14.7,3.6,22h38.3
	L100,11.9L100,11.9z M58.3,34.9l1.5,9.1h34.9c0.6-3.1,1.1-6,1.6-9.1H58.3L58.3,34.9z"/>
<path d="M45.4,11.9c-2.1-0.3-4.4,0.9-5.2,2.7c-0.5,1.3-0.1,2.5,0.2,3.6c-1.4,0.1-3,0.3-4,1.2c-1.6,1.2-1.8,3.3-1.2,4.9
	c0.9,2.3,3.3,2.7,5.5,2.6c0,2.8-1.9,3.9-3.4,3.9c-1.8,0-3.1-0.8-4.3-2.8c-1.3,2.1-3.1,2.8-4.9,2.8c-2.4,0-4.7-2.8-4.5-5.5
	c1,0.5,2.4,1.3,4.3,1.3c1.9,0,4.2-1.5,4.2-4.6c0-4.1-4.9-4.3-5.5-3.8c0.3-0.7,1-1.8,0.5-3.5C27,14,25.6,11.7,23,11.7
	c-3.1,0-4,3.1-4,3.1c-0.5,1.5,0,2.5,0.5,3.5c-1-0.5-5.6-0.5-5.7,3.8c-0.1,3.4,2.4,4.6,4.1,4.6c1.7,0,3.4-0.8,4.3-1.3
	c0.3,2.3-2,5.5-4.8,5.5c-2.2,0-3.3-1.2-4.3-2.8c-0.8,1.7-2,2.8-4.2,2.8c-2.2,0-3.5-2.2-4-3.9c1.9,0.2,3.9-0.1,5.3-1.5
	c2.1-1.8,1.5-5.4-1.1-6.6c-1.1-0.7-2.5-0.8-3.8-0.7c0.2-1.2,0.5-2.4,0-3.6c-0.7-2-3.1-2.9-5.2-2.7c1,7.4,2.3,14.7,3.6,22h38.3
	L45.4,11.9L45.4,11.9z M3.7,34.9l1.5,9.1h34.9c0.6-3.1,1.1-6,1.6-9.1H3.7L3.7,34.9z"/>
</svg>
