<?xml version="1.0" encoding="utf-8"?>
<!-- Generator: Adobe Illustrator 21.0.0, SVG Export Plug-In . SVG Version: 6.00 Build 0)  -->
<svg version="1.1" id="Layer_1" xmlns="http://www.w3.org/2000/svg" xmlns:xlink="http://www.w3.org/1999/xlink" x="0px" y="0px"
	 viewBox="0 0 100 100" style="enable-background:new 0 0 100 100;" xml:space="preserve">
<path d="M91.9,75V0L9.5,0v75C9.5,75,9,87,23.5,91c14.4,4.1,22.9,1.8,27.3,9c4.4-7.2,12.8-4.9,27.3-9C92.4,87,91.9,75,91.9,75z
	 M16.9,21.8c1.4-0.1,3,0.5,3.5,1.8c0.4,0.8,0.2,1.6,0,2.4c0.9,0,1.8,0,2.5,0.5c1.7,0.8,2.1,3.2,0.7,4.4c-0.9,0.9-2.3,1.1-3.5,1
	c0.3,1.2,1.2,2.6,2.7,2.6c1.4,0,2.3-0.8,2.8-1.9c0.7,1.1,1.4,1.9,2.9,1.9c1.9,0,3.4-2.2,3.2-3.7c-0.6,0.3-1.8,0.9-2.9,0.9
	c-1.1,0-2.8-0.8-2.7-3.1c0.1-2.9,3.2-2.9,3.8-2.6c-0.3-0.7-0.7-1.3-0.3-2.4c0,0,0.7-2,2.7-2c1.8,0,2.7,1.5,2.8,2
	c0.3,1.2-0.1,1.9-0.3,2.4c0.4-0.3,3.7-0.2,3.7,2.6c0,2.1-1.5,3.1-2.8,3.1c-1.3,0-2.2-0.5-2.9-0.9c-0.2,1.8,1.4,3.7,3,3.7
	c1.2,0,2.4-0.5,3.3-1.9c0.8,1.4,1.7,1.9,2.9,1.9c1,0,2.3-0.8,2.3-2.6c-1.5,0.1-3.1-0.2-3.7-1.8c-0.4-1.1-0.3-2.5,0.8-3.3
	c0.7-0.6,1.7-0.7,2.7-0.8c-0.2-0.7-0.5-1.5-0.1-2.4c0.5-1.2,2.1-2,3.5-1.8l0,0l-2.4,14.8H19.2C18.4,31.7,17.5,26.8,16.9,21.8z
	 M20.4,43.4l-1-6.1h0h25.5c-0.3,2.1-0.7,4.1-1.1,6.1H20.4z M64,73.8H36.3l-1.2-7.2h0h30.2C64.9,69,64.5,71.3,64,73.8z M68.2,48.3
	l-2.8,17.5H35c-1-5.8-2-11.6-2.8-17.5c1.6-0.1,3.6,0.6,4.1,2.1c0.5,0.9,0.2,1.9,0,2.8c1-0.1,2.1,0,3,0.6c2,1,2.5,3.8,0.9,5.2
	c-1.1,1.1-3.3,1.5-5,0.2c0.7,2.3,2.4,4.1,4,4.1c1.7,0,2.7-0.9,3.3-2.2c0.8,1.3,1.7,2.2,3.4,2.2c2.2,0,4-2.6,3.8-4.3
	c-0.7,0.4-2.1,1-3.4,1c-1.3,0-3.3-0.9-3.2-3.7c0.1-3.4,3.8-3.4,4.5-3c-0.4-0.8-0.8-1.6-0.4-2.8c0,0,0.8-2.4,3.2-2.4
	c2.1,0,3.2,1.8,3.4,2.4c0.4,1.4-0.2,2.2-0.4,2.8c0.5-0.4,4.4-0.2,4.4,3c0,2.5-1.8,3.7-3.3,3.7c-1.5,0-2.6-0.6-3.4-1
	c-0.2,2.2,1.7,4.3,3.5,4.3c1.4,0,2.9-0.6,3.9-2.2c0.9,1.6,2,2.2,3.4,2.2c1.5,0,2.9-1.2,3.4-4.2c-1.5,1.4-3.9,1.2-4.9-0.6
	c-1.1-1.9-0.5-3.5,0.8-4.4c0.8-0.7,2.1-0.9,3.1-0.9c-0.2-0.8-0.6-1.8-0.1-2.8C64.7,49,66.6,48,68.2,48.3L68.2,48.3z M80.3,43.4H56.9
	l-1-6.1h25.5C81.1,39.3,80.7,41.3,80.3,43.4z M83.9,21.8l-2.4,14.8H55.8c-0.8-4.9-1.7-9.8-2.4-14.8c1.4-0.1,3,0.5,3.5,1.8
	c0.4,0.8,0.2,1.6,0,2.4c0.9,0,1.8,0,2.5,0.5c1.7,0.8,2.1,3.2,0.7,4.4c-0.9,0.9-2.3,1.1-3.5,1c0.3,1.2,1.2,2.6,2.7,2.6
	c1.4,0,2.3-0.8,2.8-1.9c0.7,1.1,1.4,1.9,2.9,1.9c1.9,0,3.4-2.2,3.2-3.7c-0.6,0.3-1.8,0.9-2.9,0.9c-1.1,0-2.8-0.8-2.7-3.1
	c0.1-2.9,3.2-2.9,3.8-2.6c-0.3-0.7-0.7-1.3-0.3-2.4c0,0,0.7-2,2.7-2c1.8,0,2.7,1.5,2.8,2c0.3,1.2-0.1,1.9-0.3,2.4
	c0.4-0.3,3.7-0.2,3.7,2.6c0,2.1-1.5,3.1-2.8,3.1c-1.3,0-2.2-0.5-2.9-0.9c-0.2,1.8,1.4,3.7,3,3.7c1.2,0,2.4-0.5,3.3-1.9
	c0.8,1.4,1.7,1.9,2.9,1.9c1,0,2.3-0.8,2.3-2.6c-1.5,0.1-3.1-0.2-3.7-1.8c-0.4-1.1-0.3-2.5,0.8-3.3c0.7-0.6,1.7-0.7,2.7-0.8
	c-0.2-0.7-0.5-1.5-0.1-2.4C80.9,22.4,82.4,21.6,83.9,21.8L83.9,21.8z"/>
</svg>
