<?xml version="1.0" encoding="utf-8"?>
<!-- Generator: Adobe Illustrator 21.0.0, SVG Export Plug-In . SVG Version: 6.00 Build 0)  -->
<svg version="1.1" id="Layer_1" xmlns="http://www.w3.org/2000/svg" xmlns:xlink="http://www.w3.org/1999/xlink" x="0px" y="0px"
	 viewBox="0 0 100 100" style="enable-background:new 0 0 100 100;" xml:space="preserve">
<path d="M55.3,10.9l-6.6,7l13.2,13.4l-6.1,5.8c-6-4.5-13.3-7-20.8-7c-19.3,0-34.9,15.7-35,35C0.1,84.4,15.7,100,35,100
	s34.9-15.7,35-35c0-7.5-2.5-14.8-7-20.9l6.1-5.9l13.8,13.7l6.8-7L75.9,31.1l14-14l0,18.6l10,0V0H64.2l0,10l18.8,0L68.8,24.4
	L55.3,10.9L55.3,10.9z M59.9,65.1c0,13.8-11.2,25-25,25C21.2,90,10,78.9,10.1,65.1c0-13.8,11.2-25,25-25S60,51.3,59.9,65.1
	L59.9,65.1z"/>
</svg>
