<?xml version="1.0" encoding="utf-8"?>
<!-- Generator: Adobe Illustrator 21.0.0, SVG Export Plug-In . SVG Version: 6.00 Build 0)  -->
<svg version="1.1" id="Layer_1" xmlns="http://www.w3.org/2000/svg" xmlns:xlink="http://www.w3.org/1999/xlink" x="0px" y="0px"
	 viewBox="0 0 100 100" style="enable-background:new 0 0 100 100;" xml:space="preserve">
<path d="M67.1,0v7.6h12.4L66.1,21.1C61.5,17.9,56,16,50,16c-6,0-11.5,1.9-16,5.1l-2-2l5.7-5.7l-5.7-5.7l-5.7,5.7l-5.7-5.7h5.7V0h-19
	v19h7.6v-5.7l5.7,5.7l-5.7,5.7l5.7,5.7l5.7-5.7l1.9,1.9c-3.8,4.8-6,10.8-6,17.3c0,14,10.2,25.6,23.7,27.6l0,9.9h-11V90h11v10h8.6V90
	h11v-8.6h-11v-9.9C67.7,69.5,78,57.9,78,43.9c0-6.5-2.2-12.5-6-17.3l13.3-13.3v12.4h7.6V0H67.1z M50,63.8c-11,0-20-9-20-20
	c0-11,9-20,20-20s20,9,20,20C70,54.8,61,63.8,50,63.8z"/>
</svg>
