<?xml version="1.0" encoding="utf-8"?>
<!-- Generator: Adobe Illustrator 21.0.0, SVG Export Plug-In . SVG Version: 6.00 Build 0)  -->
<svg version="1.1" id="Layer_1" xmlns="http://www.w3.org/2000/svg" xmlns:xlink="http://www.w3.org/1999/xlink" x="0px" y="0px"
	 viewBox="0 0 100 100" style="enable-background:new 0 0 100 100;" xml:space="preserve">
<style type="text/css">
	.st0{fill:#0D0D0D;}
	.st1{fill:#FCFCFC;}
</style>
<path d="M98.3,36.3c-2.4-3.6-6.4-5.7-8.9-9.2c-1.9-2.7-2.3-6.2-4.2-8.9c-1.6-2.3-3.5-4.4-5.7-6c-1.1-0.8-2.4-1.5-3.7-1.7
	c-1.6-0.2-3.2,0.1-4.8,0.2C58.7,10,46.4,9.5,34.2,11c-5.4,0.7-10.7,1.7-15.8,3.7c-3.7,1.4-7.2,3.4-10,6.3c0.1,1.9-0.1,3.9-1,5.6
	c-1.6,3.3-5,5.1-6.7,8.2c-1.1,2.7-0.9,5.7,0,8.4c1.2,3.6,3.4,6.6,4.4,10.3c1,4.6,0.6,9.3,0,13.9C4.6,72.2,3.9,77,4.3,81.8
	c0.6,1.6,1.6,3,2.7,4.3c2.9,3.1,7.1,4.5,11.2,5c6,0.6,12-0.3,17.9-1.6c2.4-0.5,4.8-1.2,7.2-1.6c2.8-0.5,5.6-0.8,8.3-1.9
	c2.8-1.2,5.5-2.8,8.3-4.1c5.9-2.9,12-5.3,17.7-8.7c3.9-2.4,7.6-5.2,10.2-9c1.1-1.9,1.5-4,2.6-5.9c1.7-2.8,4.2-5,6.5-7.3
	c1.7-1.8,3-4,3.2-6.5C100.2,41.6,99.9,38.6,98.3,36.3z M96.4,47.3c-1.6,2.8-4.1,4.8-7,6.2c0.1,0.1,0.3,0.1,0.4,0.2
	c0.5-0.2,1-0.5,1.4-0.8c0.1,0.1,0.2,0.4,0.3,0.5c-0.7,0.5-1.5,0.9-2.1,1.6c-1.3,1.6-1.7,3.6-2.4,5.4c-0.8,2.1-2.3,3.9-3.8,5.5
	c-3.8,3.7-8.5,6.3-13.2,8.6c-3.3,1.6-6.8,3.2-10.1,4.8c-2.9,1.4-5.7,3.1-8.7,4.5c-0.7,0.3-1.3,0.6-2,0.7c-1,0-2-0.3-3-0.2
	c-1.8,0.2-3.4,0.9-5.1,1.5c-3.5,1.3-7.1,2-10.7,2.5c-4.1,0.5-8.3,0.8-12.4,0.3c-3.4-0.5-6.9-1.4-9.3-3.9c-1.3-1.4-2.4-3.3-2.2-5.2
	c0-8,2.1-15.9,1.4-23.9c-0.3-2.4-0.7-5-2-7.1c-1-1.8-2.5-3.4-3-5.5c-0.5-2.4-0.5-5.1,0.6-7.4c1.4-3,4.6-4.6,5.9-7.6
	c0.7-1.6,0.8-3.3,0.7-5c3.5-4,8.3-7,13.6-8c3.6-0.7,7.2,0.1,10.8,0.2c7.2,0.5,14.3-2,21.6-1.7c3.3,0.2,6.6,1.2,9.6,2.6
	c3.3,1.6,6.3,3.7,9.4,5.7c1,0.6,2,1.2,3.1,1.7c-3.3-2.6-6.6-5.1-10.3-7.1c-3.8-2.1-8.1-3.3-12.5-3.5c-7.2-0.2-14.3,1.9-21.6,1.7
	c-1.6-0.1-3.3-0.1-4.9-0.5c12.2-1.8,24.5-2.5,36.8-2.1c2.9,0.2,5.8,0,8.7,0.4c2.4,0.3,4.7,1.7,6.2,3.6c3.8,4.4,4.9,10.4,8.8,14.7
	c-1.6,0.2-3.3-0.3-4.9-0.1c-0.5,0-0.9,0.3-1.3,0.6c2.5-0.3,5.1-0.2,7.5,0.8c3.2,1.3,5.8,4.1,6.8,7.4C98.1,42.1,97.7,45,96.4,47.3z"
	/>
<path class="st0" d="M46.6,16.6c5.8-0.8,11.8-0.5,17.4,1.5c3.4,1.2,6.5,3.1,9.2,5.5c0.9,0.8,1.8,1.7,2.4,2.7
	c-4.5-4.1-9.9-7.3-15.9-8.7c-3.6-0.8-7.4-1-11.1-0.7c-2.9,0.3-5.6,1.5-8.6,1.6c-5.4,0.4-10.7-0.2-16.1-0.9c-0.5-0.1-1-0.2-1.6-0.1
	c-0.9,0.5-1.6,1.3-2.7,1.5c0.7-1.2,1.9-1.9,3.3-2.1c2.7-0.3,5.2,0.6,7.9,0.9C36.1,18.3,41.4,17.3,46.6,16.6"/>
<path class="st0" d="M50.5,19.6c5.4-0.6,10.9-0.2,15.9,2c2.3,1.1,4.7,2.7,5.4,5.3c-1.7-3-4.8-4.7-8-5.6c-4.8-1.4-9.9-1.6-14.9-1.4
	C49.4,19.8,50,19.7,50.5,19.6"/>
<path class="st0" d="M22.7,21.5c3.6-1.2,7.5-1.2,11.2-0.4c0.7,0.1,1.4,0.2,2,0.6c0.4,0.2,0,0.6,0,0.9c-3.3-1.3-6.9-1.7-10.4-1.2
	c-2.1,0.4-4.3,1.3-5.6,3c-0.6,0.7-0.9,1.6-1.2,2.5c0.1-1.3,0.6-2.5,1.1-3.7C20.6,22.3,21.7,21.9,22.7,21.5"/>
<path class="st0" d="M50.1,20.8c0.4-0.4,0.8,0,1.1,0.1c-1.2,0.7-2.1,1.8-2.6,3.1c-0.1,0.8,0.1,1.6-0.2,2.3c-0.5-1-0.4-2.1-0.3-3.2
	C48.9,22.5,49.3,21.5,50.1,20.8"/>
<path class="st0" d="M33.3,23.8c0.3-0.1,0.6-0.2,0.9-0.2c0.3,0.6,0.7,1.2,1.1,1.7c0,1.5,0,3,0,4.5c-1.2-1.1-0.1-2.8-0.5-4.2
	C34.3,25,33.6,24.5,33.3,23.8"/>
<path d="M67.2,27.5c-3.5-1.6-7.6-1.6-11.3-1c-3,0.6-6.1,1.7-8.1,4.1c-0.6,0.7-1.4,1.7-0.9,2.7c0.5,1.6,2.4,2,3.5,3.1
	c4.3-2.4,9.2-3.9,14.2-3.5c1.8,0.1,3.5,1,5.3,0.9c0.8,0,1.5-0.4,2.1-0.9C71.4,30.4,69.4,28.5,67.2,27.5z M54,32.3
	c-1.3,0.7-2.8,1.8-4.4,1.2c-0.2-1.2,0.7-2.3,1.7-2.9c1.9-1.1,4-1.7,6.1-2.3c-0.3,1.1,0.5,2.1,0.6,3.1C56.6,31.2,55.2,31.5,54,32.3z
	 M69.1,31.9c-0.7-0.6-1.6-0.6-2.4-0.7c-0.5,0-0.5-0.6-0.6-0.9c0.9-0.2,2,0,2.7,0.6C69.2,31.1,69.1,31.5,69.1,31.9z"/>
<path d="M39.5,34c0.4-0.3,0.4-0.8,0.4-1.3c-1.1-0.7-2.4-0.2-3.5,0.2c-1.1-1.7-3-2.6-4.8-3.3c-2.7-0.9-5.7-1.4-8.5-0.7
	c-1.7,0.4-3.3,1.7-3.7,3.5c2.7,1.1,5.6,1.2,8.5,1.4c2.2,0.2,4.5,0.4,6.4,1.6c0,1.2,0,2.5,0,3.7c-4.1,3.1-7.9,6.8-12.8,8.8
	c2.2,0.4,3.9-1.6,5.9-2.1c0.3,0.5,0.4,1.1,0.8,1.6c0.7,0.1,1.2-0.6,1.6-1c2.1,1.4,3.4,3.8,5.6,5.1c0.6,0.4,1.4,0.6,2.1,0.3
	c1-0.6,1.6-1.7,2-2.8c-0.3-0.2-0.5-0.3-0.8-0.5c-0.8,0.3-1.3,1.2-2.2,1.1c-2.2-0.7-3.6-2.8-4.7-4.7c0.7-2.2,3.3-2.5,4.7-4
	c0-1.6,0-3.2,0-4.8C37.1,34.8,38.6,34.9,39.5,34z M24.8,31.4c-0.7,0.1-1.5,0-2-0.6c1.1,0.1,2.3-0.2,3.4-0.2c0.5,0,1.1,0.2,1.4,0.6
	C26.7,31.3,25.8,31.3,24.8,31.4z"/>
<path class="st0" d="M72.9,30.8c1.6-0.2,3.1,0.9,4.7,0.6c-0.3,1.6-2.6,2-3.7,1c0.7-0.1,1.7,0.2,2.2-0.5C75,31.8,73.8,31.6,72.9,30.8
	"/>
<path class="st0" d="M10.8,32c1.6,0.3,3.2-0.1,4.8-0.3c0.9-0.2,2,0,2.6,0.8c-2.9-0.4-5.9-0.3-8.6,0.7C7.4,34,5.3,35.7,4.4,38
	c-0.8,2.1-0.5,4.4,0.1,6.4c0.2,0.4,0.3,0.9,0.7,1.2c1.4,1,3.2,1,4.6,2.1c0.4,0.3,0.3,0.8,0.3,1.2c-0.6-0.4-1.2-0.9-1.9-1.2
	c-1.3-0.6-2.8-0.8-3.9-1.9c-1-2.2-1.3-4.8-0.7-7.2c0.7-3.1,3.2-5.7,6.1-6.8C10.1,31.8,10.4,31.9,10.8,32"/>
<path class="st0" d="M81.8,32.2c1.2-0.4,2.5-0.3,3.8-0.3c2.4,0,4.9,0.5,6.7,2.2c1.6,1.5,2.2,3.8,2.4,5.9c0.1,1.2-0.1,2.5-0.1,3.7
	c-0.1-0.1-0.3-0.3-0.4-0.4c0.2-1.9,0.1-3.8-0.1-5.7c-0.8-1.9-2.2-3.6-4.2-4.4C87.4,32.1,84.5,32.5,81.8,32.2"/>
<path class="st0" d="M72.8,33.4c0.7-0.4,1.5,0.2,1.8,0.8C73.9,34.3,73.3,33.9,72.8,33.4"/>
<path class="st0" d="M79.2,34c3-0.6,6.2-0.1,8.7,1.7c2.3,1.6,3.8,4.3,3.7,7.1c0,2.4-1.4,4.6-3.2,6.1c-0.7-1.6,0.2-3.1,0.7-4.5
	c0.7-1.6,0.3-3.5-0.5-5c-0.8-1.5-2.3-2.6-3.9-3.1c-1.5-0.5-3-0.4-4.5-0.3c-1.5,1.5-3.6,2.3-5.6,2.8c-2.7,0.7-5.5,0.9-8.2,0.5
	c-1.8-0.3-3.8-1-4.9-2.5c-0.6-0.8-0.8-1.8-0.9-2.8c2.4,0.3,3.8,2.7,6,3.4c2,0.6,4.3,0.4,6.2-0.4C74.9,36,76.8,34.5,79.2,34"/>
<path class="st0" d="M6.9,36.5c1.2-1,2.7-1.5,4.1-2c-0.7,1.6-3,1.3-3.6,3c-0.5,1.5,0.1,3.1-0.4,4.6c-0.1-0.2-0.3-0.4-0.4-0.6
	C6.5,39.9,6.8,38.2,6.9,36.5"/>
<path class="st0" d="M10.9,36.9C12.8,36,15,36.4,17,37c1.8,0.6,3.5,1.4,4.9,2.7c0.8-0.4,1.4-1.1,2.3-1.4c0.5-0.1,0.9,0.1,1.3,0.3
	c-0.1,1-0.4,2-1.3,2.4c-1.8,0.9-3.9,0.5-5.9,0.6c-0.1-1.2-0.6-2.5-1.9-2.8c-2.5-0.6-5,0.6-7.4,0.8C9.2,38.5,9.8,37.4,10.9,36.9"/>
<path class="st0" d="M47.7,43.2c0.1-1.3,1.5-1.8,2.6-1.7c1.4,0.2,3,0.5,4,1.6c0.3,0.8,0.2,1.8,0.2,2.6c-0.1,1.3-0.6,2.8-1.8,3.3
	c-0.6,0.3-1.3,0-1.9-0.2c0-0.4-0.1-0.8,0.1-1.2c0.3-0.8,1.3-1,1.6-1.9c0.2-0.6,0-1.2-0.1-1.7C50.8,43.6,49.1,43.9,47.7,43.2"/>
<path class="st0" d="M55,43.2c-0.2-0.5-0.3-1.2,0.3-1.4c0.2,0,0.5,0.1,0.6,0.2c-0.2,0.2-0.4,0.3-0.6,0.5c0,0.6,0.5,1.1,1,1.2
	c2.1,0.5,4.2-0.2,6.3,0.2c0.5,0,0.6,0.5,0.5,0.9c-1.9-1.1-4.2-0.2-6.3-0.4C56.2,44.2,55.3,44,55,43.2"/>
<path class="st0" d="M6.6,42.1c0.1,0.1,0.3,0.2,0.5,0.3c0.6,1.2,1.9,1.8,2.8,2.8c-0.8-0.1-1.7-0.2-2.3-0.8C6.9,43.9,6.7,43,6.6,42.1
	"/>
<path class="st1" d="M71.4,46.8c3.4-1.1,6.1-4,9.8-4.2c0.1,2-0.9,3.9-2.4,5.2c-2.1,1.8-4.9,2.6-7.6,3C71.9,49.6,71.2,48.2,71.4,46.8
	"/>
<path class="st0" d="M94.1,43.5c0.1,0.2,0.3,0.3,0.4,0.5c-0.2,1.6-0.5,3.3-0.9,4.9c-1.4,0.8-2.7,1.9-4.3,2.3c-0.4,0.1-0.8,0-1.2-0.1
	c1.6-0.3,3.1-0.9,4.2-2.1C93.4,47.4,94,45.4,94.1,43.5"/>
<path class="st0" d="M43.8,45.5c1.9-0.5,4-0.3,5.9,0.3c0.1,0.9,0,1.7-0.5,2.5c-2.1-1.9-5,0.2-7.3-0.9C42.1,46.4,42.9,45.7,43.8,45.5
	"/>
<path d="M82.5,40.6c-0.7-0.9-0.8-2.1-0.9-3.2c-0.4,0.1-1,0-1.3,0.4c-0.4,0.6-0.3,1.5-0.3,2.2c-9.2,4.3-18.8,8.1-28.7,10.6
	c-6.9,1.7-14.1,2.8-21.2,1.9c-4.9-0.6-9.9-2.4-13.5-5.9c-0.7-2-0.1-4.3-1-6.2c-0.4,0-1-0.2-1.2,0.3c-0.3,0.9,0,1.8-0.5,2.6
	c-1,1.9-2.1,3.9-2.4,6.1c-0.6,4.6-0.5,9.4,0.6,14c0.6,2.1,1.4,4.2,2.8,5.9c1,1.1,2.4,1.7,3.8,2.1c3.4,1.1,7,1.5,10.6,1.8
	c5.1,0.4,10.2,0.3,15.3,0c4.4-0.4,8.9-0.8,13.1-2.4c4.4-1.7,8.6-4,12.4-6.9c2.2-1.7,4.1-3.8,5.7-6c2-2.8,3.7-5.9,6.1-8.3
	c0.2-0.3,0.9-0.5,0.6-1c-0.3-0.8-0.3-1.7,0.2-2.4c0.3-0.5,0.5-1.3,1.2-1.2c1.3,0.1,2.9,0.9,4-0.1C86.6,42.9,83.9,42.5,82.5,40.6z
	 M69.3,47.9c0,1.9-0.9,3.7-2.5,4.7c-2.8,1.8-6.3,2-9.3,3.4c-0.4-1.5-0.6-3-1-4.5C60.8,50.4,65,48.8,69.3,47.9z M25.9,54.1
	c2.2,1.2,4.8,0.5,7.1,1.3c-0.8,0.9-0.2,2.2-0.3,3.2c-2.7,0-5.5,0.1-8.1-1C25.6,56.7,25,55.1,25.9,54.1z M20.2,52
	c0.9,0.9,2,1.3,3.2,1.6c0.1,1.1-0.7,2-1,3c-0.2,0.6,0.1,1.1,0.3,1.6c-0.9-0.3-1.9-0.9-2.9-0.6C19.6,55.8,18.6,53.4,20.2,52z
	 M14.1,49.5c0.3-0.6,0.6-1.1,1-1.6c-0.1,0.7-0.3,1.4-0.7,1.9C14.3,49.7,14.2,49.5,14.1,49.5z M16.3,67.4c-0.3-1.3-1.1-2.4-1.6-3.6
	c-0.2-0.4-0.2-0.9-0.1-1.3c0.5,1.2,1.4,2.1,1.8,3.3C16.6,66.2,16.5,66.9,16.3,67.4z M15.3,54.7c0-1.7,0.9-3.3,1.9-4.7
	c0.6,2.2,0,4.5-0.6,6.6C15.9,56.3,15.3,55.6,15.3,54.7z M18,68.4c-0.4-0.1-0.5-0.5-0.6-0.9c0.2,0.2,0.4,0.3,0.6,0.5
	c0.4-0.1,0.9-0.2,1.2-0.5c0.5-1.3-1.4-2.5-0.5-3.7c1.6,1.5,2.5,3.6,3.1,5.6C20.5,69.1,19.2,69,18,68.4z M24,69.6
	c0.1-0.4,0.4-0.9,0.2-1.3c-0.4-1.2-1.4-2.2-1.8-3.4c1.3-0.1,2.3,0.9,3.6,0.7c-0.1,1.8,1.2,3.2,1.6,5C26.3,70.3,25,70.3,24,69.6z
	 M30.1,70.5c-0.4-1.8-1.5-3.4-2.1-5.1c1.5-0.4,3.3-0.6,4.7,0.4c1.5,1.2,1.7,3.4,2,5.2C33.2,71.1,31.6,71,30.1,70.5z M35.4,55.1
	c2.2,0.3,4.4-0.6,6.6-0.6c0,1.4,0,2.8,0,4.1c-2.4,0-4.8,0-7.2,0C34.4,57.4,35.4,56.4,35.4,55.1z M36.8,71c-0.3-2-0.7-4-1-6.1
	c2.8,0.2,5.6-0.2,8.2-1c0.1,2.2-0.5,4.6,0.4,6.7C42,71.4,39.4,70.9,36.8,71z M44,58.7c0-1.3,0-2.7,0-4c0.3-0.2,0.6-0.2,0.9-0.3
	c3.1-0.7,6.2-1.4,9.3-1.8c0.4,1.5,0.6,3.1,1,4.6c-2.4,0.3-4.7,1.1-7.1,1.5C46.9,58.8,45.4,58.8,44,58.7z M49.1,70.3
	c-1,0.1-2,0-2.9-0.2c0.4-2.2-0.5-4.4-0.1-6.7c3.6-0.4,6.9-1.8,10.2-3.1c-0.1,1.2-0.1,2.4,0.4,3.5c0.6,1.3,1.5,2.6,1.7,4.1
	C55.4,68.7,52.4,70,49.1,70.3z M60.6,66.9c0-2.1-1.9-3.5-2.1-5.5c-0.1-0.5,0-1.1,0-1.6c3.6-0.9,7-2.4,10.2-4.1
	c-0.3,1.8,0.1,3.8,1.5,5.1C67,62.7,64.1,65.3,60.6,66.9z M71.4,58.7c-0.4-0.8-0.7-1.7-0.5-2.6c0.3-1.3,1.4-2.3,2.5-2.9
	c1.2-0.7,2.6-1.1,4-1.2C75.1,53.9,74.5,57.6,71.4,58.7z"/>
<path class="st0" d="M65.1,70.5c2.5-1.1,5.1-2.3,7.9-2.6c-4.5,1.6-8.6,4-12.9,6c-5.6,2.6-11.6,4.8-17.8,4.5
	c-2.3-0.3-4.6,0.2-6.9,0.2c-4.4-0.1-8.9,0.5-13.3-0.4c-1.8-0.4-3.7-1.1-4.9-2.6c-0.6-0.7-0.9-1.6-1.1-2.6c1.6,2.7,4.6,4,7.5,4.6
	c3.6,0.8,7.4,1,11,0.7c4.9-0.2,10-0.2,14.8-1.3C55,75.7,60,72.9,65.1,70.5"/>
<path class="st0" d="M70.3,71.1c2.5-1.2,5-2.9,7.8-3.1c-3.1,2.1-6.5,3.8-9.9,5.3c-13.4,6-28.2,8.8-42.9,8.8c-2.9,0-5.9-0.1-8.7-1
	c-2.2-0.7-4.3-2.1-5.5-4.2c0-0.9-0.4-1.8,0-2.6c0.1-0.1,0.3-0.2,0.5-0.3c0,1.1,0,2.1,0,3.2c1.3,1.3,2.9,2.2,4.5,2.8
	c2.6,1,5.3,1.3,8.1,1.5c4.3,0.3,8.6,0,12.9-0.5C48.6,79.8,59.9,76.3,70.3,71.1"/>
<path class="st0" d="M28.2,75.2c3.2,0,6.5-0.1,9.7,0.1c2.1,0,4.4-0.6,6.5,0.3c-3.5-0.2-7,0.1-10.6,0.1C31.9,75.7,30,75.8,28.2,75.2"
	/>
</svg>
