<?xml version="1.0" encoding="utf-8"?>
<!-- Generator: Adobe Illustrator 21.0.0, SVG Export Plug-In . SVG Version: 6.00 Build 0)  -->
<svg version="1.1" id="Layer_1" xmlns="http://www.w3.org/2000/svg" xmlns:xlink="http://www.w3.org/1999/xlink" x="0px" y="0px"
	 viewBox="0 0 100 100" style="enable-background:new 0 0 100 100;" xml:space="preserve">
<g>
	<path d="M91.5,52c-0.9-1.1-1.5-2-2.2-2.7c-0.7-0.7-0.8-1.3-0.2-2.1c0.6-0.8,1.1-1.7,1.6-2.5c-0.1-0.1-0.2-0.2-0.2-0.3
		c-1,0.4-2,0.7-2.9,1.2c-0.8,0.4-1.3,0.3-1.8-0.4c-0.6-0.9-1.4-1.7-2.1-2.5c-0.2,1.2-0.2,2.2-0.1,3.2c0.1,0.9-0.2,1.4-1.1,1.7
		c-1,0.3-1.9,0.8-2.8,1.1c-0.1,0.2-0.1,0.3-0.2,0.5c3.8-0.2,5,1.7,4.7,5c0,0.1,0.1,0.1,0.3,0.3c0.4-0.5,0.7-1.1,1.1-1.6
		c1.5-2.4,0.9-2,3.5-1.5C89.8,51.5,90.4,51.7,91.5,52z"/>
	<path d="M16.5,45.8c0.1-1,0.1-2.1,0.2-3.1c-0.7,0.3-1.1,0.8-1.5,1.3c-2,2.2-1.1,2-3.8,1c-0.6-0.2-1.2-0.5-1.8-0.7
		c0.2,0.9,0.6,1.6,1,2.2c1,1.2,1,2.2-0.2,3.2C9.8,50.3,9.3,51,8.5,52c1.3-0.3,2.2-0.4,3.1-0.8c1.3-0.6,2-0.1,2.6,1.1
		c0.4,0.8,0.9,1.4,1.6,2.4c0.1-0.7,0.1-1,0.1-1.2c0.3-3.4,0.3-3.4,3.5-4.3c0.3-0.1,0.5-0.2,0.8-0.3c0-0.1,0-0.2,0.1-0.3
		c-0.9-0.4-1.8-0.8-2.8-1.1C16.7,47.2,16.3,46.8,16.5,45.8z"/>
	<path d="M29.9,35.7c0.4-0.7,0.7-1.4,1-2.1c-0.1-0.1-0.2-0.2-0.3-0.2c-1.2,0.7-2.4,1.4-3.7,2.1c-1.1-1-2.2-1.9-3.2-2.9
		c-0.1,1,0,1.8,0.2,2.5c0.5,1.4,0.2,2.3-1.2,2.8c-0.7,0.3-1.4,0.8-2.1,1.2c0,0.1,0.1,0.3,0.1,0.4c1,0.1,2,0.3,3,0.3
		c0.9,0,1.3,0.5,1.5,1.3c0.2,1,0.4,2,0.7,3c0.7-0.9,1.2-1.8,1.5-2.7c0.3-0.8,0.8-1.2,1.7-1c1,0.2,2.1,0.2,3.6,0.3
		c-0.9-0.9-1.5-1.5-2.2-2C29.2,37.9,29.2,36.9,29.9,35.7z"/>
	<path d="M96.8,63.4c0.3-1.1,1.9-1.9,3.2-3c-1.2,0-2.1-0.1-2.9,0c-1.3,0.2-1.9-0.3-2.2-1.6c-0.2-0.9-0.6-1.7-1.1-2.9
		c-0.4,1.4-0.8,2.5-1,3.5c-0.2,0.9-0.7,1.2-1.5,1.1c-1,0-2.1,0-3.1,0c0,0.1-0.1,0.3-0.1,0.4c0.6,0.4,1.2,1,1.9,1.3
		c1.4,0.7,1.7,1.6,1.1,3c-0.3,0.7-0.4,1.5-0.7,2.2c1.1-0.5,2-1.1,2.8-1.8c0.7-0.6,1.3-0.6,2,0c0.8,0.6,1.7,1.1,2.9,1.9
		C97.5,65.9,96.5,64.4,96.8,63.4z"/>
	<path d="M76,35.9c0.1-1.1,0.4-2.1,0.6-3.2c-0.1-0.1-0.2-0.1-0.3-0.2c-1.1,1-2.1,1.9-3.2,2.9c-1.3-0.7-2.5-1.4-3.7-2.1
		c0,0.7,0.2,1.2,0.4,1.7c1.3,3,1.5,2.1-0.9,4.2c-0.4,0.4-1,0.6-1.6,0.8c0.2,0.2,0.4,0.4,0.6,0.6c1-0.1,2-0.1,3-0.3
		c1-0.2,1.5,0.2,1.8,1.1c0.3,0.9,0.8,1.8,1.2,2.7c0.6-1,0.8-2,1-3c0.1-1,0.6-1.4,1.6-1.4c1,0,2-0.2,2.9-0.3c0-0.1,0.1-0.2,0.1-0.3
		c-0.9-0.5-1.9-1-2.8-1.7C76.3,37.1,76,36.4,76,35.9z"/>
	<path d="M9.8,60.6c-1.6,0.2-2.5-0.3-2.7-2c-0.1-0.8-0.4-1.5-0.8-2.7c-0.5,1.3-1,2.3-1.2,3.3c-0.3,1-0.8,1.2-1.8,1.2
		c-1-0.1-2,0-3.3,0c0.7,0.6,1.1,0.9,1.5,1.3c2.5,2,2.2,1.1,1.2,4c-0.2,0.5-0.4,1.1-0.5,1.6c1.1-0.4,2.1-0.9,2.9-1.6
		c0.7-0.5,1.2-0.5,1.8,0.1c0.8,0.7,1.6,1.3,2.5,1.9c0.1-0.1,0.2-0.1,0.3-0.2c-0.2-0.7-0.3-1.4-0.6-2c-0.7-1.5-0.4-2.6,1.1-3.3
		c0.7-0.3,1.2-0.8,1.8-1.2c0-0.1-0.1-0.3-0.1-0.4C11.2,60.6,10.5,60.5,9.8,60.6z"/>
	<path d="M47.8,29.3c-1.5,0.3-2.6,0.4-3.6,0.6c-0.8,0.2-1.3,0-1.7-0.8c-0.4-0.9-1-1.8-1.5-2.8c-0.5,1.1-0.7,2.1-0.8,3.1
		c-0.1,0.9-0.5,1.3-1.4,1.4c-1,0.1-2,0.3-3,0.5c0.8,0.7,1.5,1.2,2.3,1.4c1.3,0.4,1.6,1.3,1.3,2.6c-0.2,0.8-0.2,1.7-0.4,3
		c1-1.1,1.8-1.8,2.4-2.6c0.6-0.7,1.1-0.8,1.9-0.4c0.9,0.5,1.9,0.9,2.8,1.4c0.1-0.1,0.1-0.2,0.2-0.3c-0.5-0.9-0.9-1.9-1.5-2.8
		c-0.5-0.7-0.4-1.2,0.2-1.8C46,31.2,46.7,30.4,47.8,29.3z"/>
	<path d="M61.1,30.8c-0.9-0.1-1.2-0.5-1.3-1.3c-0.1-1-0.3-2.1-0.5-3.1c-0.7,0.7-1.2,1.4-1.4,2.1c-0.5,1.4-1.4,1.6-2.7,1.3
		c-0.8-0.2-1.6-0.3-2.4-0.4c-0.1,0.2-0.2,0.4-0.3,0.5c0.8,0.7,1.6,1.4,2.4,2c0.7,0.5,0.7,1.1,0.3,1.8c-0.6,0.9-1,1.9-1.5,2.9
		c0.1,0.1,0.1,0.2,0.2,0.2c1-0.5,2-0.9,2.9-1.4c0.8-0.4,1.3-0.3,1.8,0.3c0.7,0.8,1.4,1.5,2.1,2.3c0.2-1.1,0.1-2-0.1-2.9
		c-0.2-1.1,0-1.8,1.2-2.2c0.9-0.3,1.7-0.8,2.5-1.2c0-0.1,0-0.3-0.1-0.4C63.2,31.2,62.2,30.9,61.1,30.8z"/>
</g>
</svg>
