<?xml version="1.0" encoding="utf-8"?>
<!-- Generator: Adobe Illustrator 21.0.0, SVG Export Plug-In . SVG Version: 6.00 Build 0)  -->
<svg version="1.1" id="Layer_1" xmlns="http://www.w3.org/2000/svg" xmlns:xlink="http://www.w3.org/1999/xlink" x="0px" y="0px"
	 viewBox="0 0 100 100" style="enable-background:new 0 0 100 100;" xml:space="preserve">
<path d="M0,49.9c0.1-27.5,22.5-50,50.4-49.8C77.7,0.3,100,22.4,100,50c0,27.6-22.4,50-50.1,50C22.4,99.9,0,77.5,0,49.9z M50,1.9
	C23.8,1.6,1.7,23.2,1.7,50.1c0,26.7,22.3,49,50,48.1c25.4-0.9,47.1-22.1,46.5-49.5C97.6,22.7,76,1.7,50,1.9z"/>
<path d="M68.6,32.5c-1.3,1.4-2.6,2.7-3.9,4.1c-2.4,2.4-4.8,4.8-7.3,7.2C57,44.2,57,44.5,57.3,45c0.6,1.1,0.9,2.3,1.4,3.4
	c0.1,0.3,0.4,0.7,0.7,0.7c3.3,0,6.6,0,9.8,0c0.1,0,0.2-0.1,0.3-0.1c-0.7-2.7-2.5-4.1-5.2-4.4c0-0.5,0-1,0-1.6c1.9,0,3.4,0.6,4.8,1.8
	c1.1,1,1.9,2.2,2.2,3.7c0.2,1,0.9,0.5,1.4,0.6c0.6,0.1,0.6-0.4,0.6-0.8c0-0.6,0-1.2,0-1.8c0.6,0,1.2,0,1.8,0c0,0.9,0,1.7,0,2.6
	c0.4,0,0.7,0,1,0c0.5,0.1,0.8-0.1,0.9-0.7c0.9-3.2,3.2-5.2,6.3-5.5c0.2,0,0.3,0,0.6,0c0,0.6,0,1.1,0,1.6c-2.7,0.3-4.5,1.7-5.2,4.4
	c0.2,0.1,0.4,0.1,0.6,0.1c1.9,0,3.8,0,5.7,0c0.6,0,0.8-0.3,0.8-0.8c0-1.5,0-3,0-4.4c0-0.3,0-0.6,0-1c2.4,0,4.7,0,7.1,0
	c0,0.5,0,1,0,1.7c-1.7,0-3.4,0-5.2,0c0,1.5,0,3,0,4.5c1.7,0,3.5,0,5.2,0c0,0.3,0.1,0.5,0.1,0.7c0,1.1,0,1.1-1.1,1.1
	c-1.4,0-2.8,0-4.2,0c0,1.5,0,2.9,0,4.4c1.7,0,3.4,0,5.2,0c0,0.6,0,1.1,0,1.7c-2.3,0-4.6,0-7.1,0c0-1.4,0-2.7,0-4.1
	c0-2.1,0-2.1-2-2.1c-1.6,0-3.3,0-4.9,0c0.1,2.3,1.8,3.8,5.2,4.6c0,0.5,0,1,0,1.6c-1,0.1-2-0.1-2.9-0.6c-2-0.9-3.4-2.5-3.9-4.6
	c-0.2-0.9-0.7-1.2-1.5-1.1c-0.1,0-0.3,0-0.5,0.1c0,0.8,0,1.6,0,2.5c-0.6,0-1.1,0-1.8,0c0-0.8,0-1.6,0-2.5c-0.3,0-0.5,0-0.7-0.1
	c-0.8-0.1-1.2,0.1-1.4,1c-0.8,3-3.2,4.9-6.2,5.3c-0.2,0-0.3,0-0.6,0c0-0.4,0-0.7,0-1c-0.1-0.6,0.2-0.8,0.8-0.8c2.1-0.2,4-1.9,4.5-4
	c0-0.1,0-0.2,0-0.4c-0.2,0-0.3-0.1-0.5-0.1c-3.2,0-6.3,0-9.5,0c-0.5,0-0.6,0.2-0.8,0.6c-0.4,1.2-1,2.4-1.5,3.7
	c-0.1,0.2-0.1,0.6,0,0.7c3.6,3.7,7.3,7.3,11,10.9c0,0,0.1,0,0.3,0.1c0.5-0.6,1-1.2,1.5-1.9c0.5,0.6,0.9,0.9,1.3,1.4
	c-0.6,0.6-1.1,1.2-1.8,1.9c0.5,0.4,0.9,0.7,1.5,1.2c0.4-0.5,0.9-1.2,1.4-1.9c0.6,0.6,0.9,1,1.4,1.6c-0.6,0.4-1.2,1-1.9,1.5
	c0.6,0.5,1,0.9,1.6,1.4c0.5-0.6,0.9-1.3,1.5-2c0.6,0.6,1,1,1.6,1.5c-0.7,0.5-1.4,1-2.1,1.6c0.6,0.5,1,0.9,1.5,1.3
	c1.4-1.4,2.7-2.9,4.1-4.3c1.8,1.8,3.4,3.5,5.2,5.2c-0.3,0.2-0.7,0.5-1.1,0.9c-1.1-1.2-2.3-2.5-3.4-3.7c-1.2,1.3-2.2,2.3-3.3,3.4
	c1.1,1,2.4,2.2,3.8,3.5c-0.6,0.6-1,0.9-1.6,1.5c-1.2-1.3-2.4-2.5-3.6-3.8c-1.1,1.1-2.1,2.1-3.1,3.2c1.2,1.1,2.4,2.3,3.8,3.6
	c-0.6,0.5-1,0.8-1.4,1.1c-1.6-1.6-3.2-3.2-4.9-4.9c1.4-1.3,2.8-2.7,4.4-4.2c-0.6-0.5-1-0.9-1.6-1.4c-0.5,0.7-1.1,1.3-1.7,2.1
	c-0.5-0.6-0.8-1-1.3-1.4c0.6-0.6,1.2-1.2,1.9-2c-0.5-0.4-1-0.7-1.5-1.2c-0.4,0.5-1,1.2-1.5,2c-0.6-0.5-0.9-0.9-1.4-1.3
	c0.6-0.7,1.2-1.3,1.9-2c-0.4-0.5-0.8-0.9-1.4-1.5c-0.6,0.8-1.1,1.5-1.7,2.3c-0.5-0.6-0.8-1-1.3-1.6c0.6-0.5,1.3-1,2-1.6
	c-1.2-1.2-2.1-2.2-3.1-3.1c-2.6-2.6-5.3-5.2-7.9-7.9c-0.4-0.4-0.6-0.4-1.1-0.1c-1.3,0.7-2.7,1.2-4.1,1.9c0,6.3,0,12.8,0,19.4
	c0.4,0,0.7,0,1.1,0c3.5,0,7,0,10.4,0c0.8,0,1,0.2,1,1c-0.1,2.4,0,4.7-0.1,7.1c0,0.4-0.1,1,0.6,1c0.1,0,0.3,0.3,0.3,0.4
	c0,0.4,0,0.7,0,1.1c-0.3,0.1-0.6,0.2-0.8,0.2c-0.3,1.5-0.2,1.6,0.7,1.9c0.3,1.6,0.3,1.6-1.3,1.6c-0.4,0-0.8,0-1.2,0
	c-0.8,0-1.3-0.8-0.9-1.5c0.1-0.2,0.5-0.2,0.8-0.4c0-0.5,0-1,0-1.6c-0.2-0.1-0.5-0.1-0.7-0.2c-0.3-0.4-0.1-1.5,0.4-1.7
	c0.2-0.1,0.4-0.3,0.4-0.5c0-2.2,0-4.4,0-6.7c-0.5,0-0.9,0-1.2-0.1c-0.4,0.6,0.5,1.9-1.1,1.8c-1.5-0.1-0.3-1.3-1-1.8
	c-2.3,0-4.7,0-7.3,0c0,0.6,0,1.1,0,1.7c2.1,0,4.1,0,6.2,0c0,2.4,0,4.7,0,7.1c-0.6,0-1.1,0-1.7,0c0-1.7,0-3.4,0-5.2c-1.5,0-3,0-4.4,0
	c0,2.3,0,4.6,0,6.9c1,0.3,1,0.5,0.7,1.9c-1.1,0-2.2,0-3.3,0c-0.4-1.3-0.2-1.6,0.7-1.9c0-2.2,0-4.3,0-6.5c0-0.1-0.3-0.4-0.5-0.4
	c-1.3,0-2.6,0-3.9,0c0,1.8,0,3.5,0,5.3c-0.6,0-1.2,0-1.8,0c0-1,0-1.9,0-2.9c0-1.1,0-2.2,0-3.3c0-0.7,0.2-0.9,0.9-0.9
	c1.5,0.1,2.9,0,4.4,0c0.3,0,0.6,0,0.9,0c0.1-0.1,0.1-0.2,0.1-0.2c0.2-1.5,0.2-1.5-1.4-1.5c-1.7,0-3.4,0-5.1,0c-0.3,0-0.6,0-0.8,0
	c-0.6,0.6,0.4,1.9-1.2,1.8c-1.5,0-0.5-1.2-1-1.8c-0.3,0-0.7,0-1.2,0c0,1.3,0,2.6,0,3.9c0,0.8,0,1.6,0,2.4c0,0.4-0.1,1,0.6,1
	c0.1,0,0.2,0.3,0.3,0.5c0,0.3,0,0.7,0,1.1c-0.3,0.1-0.6,0.1-0.8,0.2c0,0.5,0,1,0,1.6c0.2,0.1,0.5,0.2,0.8,0.3c0,0.5,0,1,0,1.6
	c-1.1,0-2.2,0-3.4,0c0.1-0.6-0.6-1.4,0.7-1.8c0.2-0.1,0.2-1,0.2-1.5c-0.4-0.1-0.6-0.2-0.9-0.3c0-0.4,0-0.7,0-1.1
	c0-0.2,0.1-0.4,0.2-0.4c1,0,0.7-0.8,0.7-1.3c0-2.2,0-4.4,0-6.7c0-0.3,0-0.6,0-1.1c0.4,0,0.7,0,1.1,0c3.5,0,7,0,10.5,0
	c0.7,0,0.9-0.2,0.9-0.9c0-6,0-12,0-18c0-0.6-0.2-0.8-0.8-1c-1.4-0.4-2.7-1-4.1-1.5c-2.7,2.8-5.6,5.7-8.5,8.6
	c1.3,1.4,3.8,1.3,6.8-0.5c0.3,0.4,0.7,0.8,1,1.2c-0.7,0.9-1.8,1.4-2.9,1.7c-1.9,0.6-3.8,0.4-5.5-0.6c-0.8-0.5-1.2-0.4-1.7,0.2
	c-0.1,0.2-0.3,0.3-0.5,0.5c0.6,0.6,1.2,1.2,1.8,1.9c-0.4,0.4-0.8,0.7-1.3,1.1c-0.5-0.5-1.1-1.1-1.8-1.7c-0.4,0.4-0.8,0.8-1.2,1.2
	c1.5,1.4,2.9,2.8,4.3,4.2c-3.4,3.4-6.7,6.8-10.1,10.2c-0.4-0.4-0.8-0.8-1.2-1.2c3-2.9,5.9-5.8,8.8-8.7c-1.1-1.1-2.2-2.1-3.2-3.1
	c-0.5,0.5-1.2,1.2-1.9,1.9c0.7,0.5,1.3,1,2,1.6c-0.6,0.5-0.9,0.9-1.5,1.4c-0.5-0.6-1-1.3-1.5-2c-0.8,0.9-1.4,1.5-2,2.2
	c0.5,0.5,1,1.1,1.7,1.8c-0.4,0.4-0.8,0.7-1.2,1.2c-0.6-0.6-1.2-1.2-2-1.9c-0.7,0.9-1.4,1.7-2.2,2.6c-0.5-0.6-0.9-1-1.3-1.5
	c0.8-0.7,1.6-1.4,2.6-2.2c-0.8-0.7-1.5-1.2-2.2-1.8c0.6-0.5,1-0.8,1.5-1.2c0.5,0.5,1.1,1.1,1.7,1.6c0.6-0.6,1.2-1.3,2-2
	c-0.6-0.5-1.3-1-2-1.5c0.6-0.6,1-0.9,1.5-1.4c0.5,0.6,1.1,1.2,1.6,1.9c0.8-0.8,1.4-1.4,2-1.9c-1-1-2.1-2.1-3.2-3.2
	c-2.8,2.9-5.7,5.8-8.7,8.9c-0.5-0.5-0.8-0.9-1.1-1.3c3.3-3.4,6.7-6.7,10.1-10.1c1.4,1.4,2.8,2.9,4.3,4.4c0.4-0.5,0.7-0.9,1.1-1.5
	c-0.5-0.4-1.2-0.9-2-1.5c0.6-0.6,1-0.9,1.5-1.4c0.5,0.7,1.1,1.3,1.6,2.1c0.5-0.6,0.9-1,1.3-1.5c-1.2-1.7-1.7-3.6-1.3-5.6
	c0.2-1.4,0.9-2.6,1.9-3.7c0.4,0.4,0.7,0.8,1.2,1.2c-1.7,2.1-2,4.4-0.2,7c0.4-0.5,0.8-1.1,1.3-1.6c2.3-2.3,4.5-4.6,6.8-6.8
	c0.5-0.5,0.4-0.7,0.1-1.3c-0.6-1.1-1-2.2-1.4-3.4c-0.2-0.5-0.4-0.7-0.9-0.7c-8.4,0-16.9,0-25.3,0c-0.2,0-0.4,0-0.8,0.1
	c0,4.1,0,8.2,0,12.3c-2.4,0-4.7,0-7.1,0c0-0.3,0-0.5-0.1-0.8c-0.1-0.7,0.2-0.9,0.9-0.9c1.3,0.1,2.5,0,3.8,0c0.5,0,0.8-0.1,0.8-0.7
	c0-1.2,0-2.4,0-3.8c-1.8,0-3.5,0-5.3,0c0-0.6,0-1.2,0-1.8c1.5,0,2.9,0,4.4,0c0.8,0,1-0.2,0.9-1c-0.1-1.1,0-2.3,0-3.5
	c-1.4,0-2.7,0-4,0c-1.5,0-1.6,0-1.3-1.8c1.4,0,2.7,0,4.1,0c1.2,0,1.2,0,1.2-1.2c0-0.9,0-1.7,0-2.6c0-0.6-0.2-0.8-0.8-0.8
	c-1.5,0-3,0-4.6,0c0-0.6,0-1.1,0-1.8c1.4,0,2.8,0,4.2,0c1.1,0,1.1,0,1.1-1.2c0-1,0-2.1,0-3.3c-1.8,0-3.6,0-5.4,0c0-0.6,0-1.1,0-1.7
	c2.4,0,4.7,0,7.1,0c0,4.1,0,8.2,0,12.4c0.4,0,0.7,0.1,1,0.1c8.3,0,16.6,0,24.9,0c0.7,0,1-0.2,1.2-0.9c0.4-1.2,1-2.3,1.5-3.5
	c0.1-0.2,0.1-0.6,0-0.8c-3.6-3.6-7.2-7.2-10.8-10.8c-0.1-0.1-0.1-0.1-0.2-0.1c-1.5,1.7-1.4,4.3,0.5,6.9c-0.4,0.3-0.8,0.6-1.3,1
	c-0.7-0.7-1.3-1.6-1.6-2.7c-0.6-2-0.5-3.9,0.6-5.7c0.5-0.8,0.4-1.2-0.3-1.7c-0.2-0.1-0.3-0.4-0.4-0.5c-2.4,2.4-4.6,4.7-6.8,6.9
	c-3.5-3.5-6.8-6.8-10.1-10.1c0.3-0.2,0.7-0.6,1.2-1.1c2.8,2.8,5.6,5.8,8.5,8.7c1.9-2,3.8-3.9,5.8-5.9c-0.2-0.1-0.5-0.3-0.9-0.6
	c-0.5,0.6-1,1.3-1.6,2c-0.6-0.5-0.9-0.9-1.5-1.4c0.7-0.6,1.4-1.1,2.1-1.6c-0.5-0.8-0.8-1.1-1.6-0.7c-1.9,0.9-4,0.2-5.2-1.5
	c-1.1-1.7-0.9-3.9,0.5-5.3c1.4-1.5,3.6-1.7,5.3-0.6c1.7,1.1,2.5,3.3,1.6,5.2c-0.3,0.7-0.2,1.1,0.5,1.5c0.6-0.6,1.2-1.1,1.9-1.8
	c0.4,0.4,0.7,0.8,1.1,1.2c-0.6,0.6-1.1,1.2-1.8,1.9c0.3,0.3,0.5,0.5,0.8,0.8c0.5-0.5,1-0.9,1.4-1.4c1.2-1.2,2.4-2.4,3.6-3.6
	c0.5-0.5,0.6-0.8,0-1.4c-2.4-2.4-4.8-4.8-7.3-7.2c-0.3-0.3-0.6-0.5-0.9-0.7c0.5-0.5,0.9-0.9,1.2-1.2c3.3,3.3,6.6,6.6,9.9,9.9
	c-2.2,2.2-4.4,4.5-7,7c0.5,0.4,0.9,0.7,1.4,0.9c0.2,0.1,0.6,0,0.9-0.1c2.6-1.5,5.1-1.5,7.7,0.1c0.1,0.1,0.3,0.2,0.4,0.3
	c0.2,0.2,0.4,0.3,0.6,0.6c-0.4,0.4-0.7,0.8-1.1,1.2c-2.2-1.7-4.4-2.1-6.8-0.6c3.8,3.8,7.5,7.5,11.1,11.1c1.5-0.5,3-1,4.4-1.6
	c0.2-0.1,0.4-0.4,0.4-0.6c0-5,0-10,0-15c0-0.5-0.2-0.6-0.7-0.6c-0.7,0-1.3,0-1.9,0c-0.1-0.1-0.1-0.1-0.2-0.2
	c-0.2-1.5-0.2-1.5,1.3-1.5c0.4,0,0.8,0,1.3,0c0-0.2,0.1-0.3,0.1-0.5c0.1-1.4,0.1-1.4-1.3-1.4c-0.4,0-0.8,0-1.3,0c0-0.6,0-1.1,0-1.7
	c0.6,0,1.2,0,1.7,0c0.8,0.1,1-0.2,0.9-1c0-0.2,0-0.5-0.1-0.9c-0.9,0-1.7,0-2.6,0c0-0.6,0-1.2,0-1.8c0.9,0,1.7,0,2.6,0
	c0-0.6,0-1.1,0-1.7c-2.1,0-4.1,0-6.2,0c0-2.4,0-4.8,0-7.1c0.5,0,1,0,1.7,0c0,0.4,0.1,0.8,0.1,1.2c0,1.1,0,2.3,0,3.4
	c0,0.5,0.2,0.7,0.7,0.7c1.1,0,2.1,0,3.2,0c0.5,0,0.7-0.2,0.7-0.7c0-1.2,0-2.5,0-3.7c0-0.3,0-0.6,0-0.9c0.2,0,0.3-0.1,0.4-0.1
	c1.3-0.1,1.3-0.1,1.3,1.3c0,1.1,0,2.2,0,3.3c0,0.5,0.1,0.8,0.7,0.8c1.2,0,2.4,0,3.8,0c0-1.8,0-3.6,0-5.3c0.6,0,1.1,0,1.7,0
	c0,2.3,0,4.7,0,7.1c-2,0-4,0-6.1,0c0,0.6,0,1.1,0,1.7c0.8,0,1.6,0,2.5,0c0,0.7,0,1.2,0,1.8c-0.9,0-1.6,0-2.5,0c0,0.6,0,1.1,0,1.8
	c0.8,0,1.6,0,2.5,0c0,0.6,0,1.2,0,1.8c-0.8,0-1.6,0-2.5,0c0,0.6,0,1.2,0,1.8c0.8,0,1.6,0,2.5,0c0,0.6,0,1.1,0,1.8
	c-0.8,0-1.6,0-2.5,0c0,0.4-0.1,0.6-0.1,0.9c0,4.8,0,9.6,0,14.5c0,0.6,0.2,0.8,0.8,1c1.4,0.4,2.7,1,4.1,1.5
	c3.8-3.8,7.7-7.7,11.5-11.6c-1.6-1.4-3.9-1.2-6.7,0.5c-0.3-0.4-0.7-0.7-1-1.1c1.5-2.3,5.2-2.6,9.2-0.7c0.1,0,0.2-0.1,0.2-0.1
	c1.1-1,1.1-1,0.4-2.3c-0.9-1.9-1-3.9-0.2-5.9c1.1,0.6,1.4,1,1.2,2.2c-0.1,1.3,0.1,2.4,0.8,3.4c1-1.1,2.1-2.1,3.2-3.3
	c-1.3-1.3-2.8-2.7-4.2-4c1.8-1.8,3.4-3.4,5.1-5.1c0.3,0.3,0.6,0.7,1,1.2c-1.2,1.2-2.5,2.4-3.7,3.6c1.1,1.1,2.1,2.1,3.1,3.2
	c1.2-1.2,2.4-2.5,3.7-3.8c0.5,0.6,0.9,0.9,1.3,1.4c-1.2,1.2-2.5,2.4-3.7,3.6c1.1,1.1,2.2,2.1,3.2,3.1c1.1-1.1,2.3-2.3,3.5-3.6
	c0.5,0.6,0.9,0.9,1.2,1.3c-1.6,1.6-3.2,3.2-4.9,4.9c-1.3-1.4-2.7-2.8-4.1-4.3c-1.2,1.2-2.2,2.2-3.3,3.3c1,0.9,2.2,1.1,3.5,0.9
	c1.2-0.2,1.6,0.4,2.3,1.2c-2.1,0.9-4.1,0.8-6.1-0.2c-1.5-0.7-1.4-0.7-2.4,0.6c2,3.9,1.8,7.4-0.7,9.4c-0.3-0.4-0.6-0.8-1-1.3
	c1.1-1.2,1.7-2.8,1.4-4.5c-0.1-0.8-0.5-1.5-0.8-2.3C68.8,32.6,68.7,32.5,68.6,32.5z M49.9,57.2c3.8,0.1,7.1-3.1,7.3-6.9
	c0.1-4-3.1-7.3-7.1-7.4c-3.7-0.1-7.1,3.1-7.2,6.8C42.7,53.8,45.8,57,49.9,57.2z M23.4,25c-1-1.1-2.1-2.1-3.1-3.2
	c-0.4,1-0.2,1.9,0.6,2.6C21.5,25.2,22.5,25.4,23.4,25z M24.9,23.5c0.4-1,0.2-1.9-0.7-2.7c-0.7-0.7-1.7-0.8-2.3-0.4
	C22.9,21.4,23.9,22.4,24.9,23.5z"/>
</svg>
