<?xml version="1.0" encoding="utf-8"?>
<!-- Generator: Adobe Illustrator 21.0.0, SVG Export Plug-In . SVG Version: 6.00 Build 0)  -->
<svg version="1.1" id="Layer_1" xmlns="http://www.w3.org/2000/svg" xmlns:xlink="http://www.w3.org/1999/xlink" x="0px" y="0px"
	 viewBox="0 0 100 100" style="enable-background:new 0 0 100 100;" xml:space="preserve">
<g>
	<path d="M73.7,6c3.6,4.9,5.8,11,5.8,17.5C79.5,39.8,66.3,53,50,53c-13,0-23.5,10.5-23.5,23.5c0,12.6,9.9,22.8,22.3,23.5
		c0.4,0,0.8,0,1.2,0c27.6,0,50-22.4,50-50C100,31,89.4,14.4,73.7,6z M50,86.5c-5.5,0-10-4.5-10-10c0-5.5,4.5-10,10-10s10,4.5,10,10
		C60,82,55.5,86.5,50,86.5z"/>
	<path d="M50,47c13,0,23.5-10.5,23.5-23.5c0-12.6-9.9-22.8-22.3-23.5c-0.4,0-0.8,0-1.2,0C22.4,0,0,22.4,0,50c0,19,10.6,35.6,26.3,44
		c-3.6-4.9-5.8-11-5.8-17.5C20.5,60.2,33.7,47,50,47z M50,13.5c5.5,0,10,4.5,10,10c0,5.5-4.5,10-10,10s-10-4.5-10-10
		C40,18,44.5,13.5,50,13.5z"/>
</g>
</svg>
