<?xml version="1.0" encoding="utf-8"?>
<!-- Generator: Adobe Illustrator 21.0.0, SVG Export Plug-In . SVG Version: 6.00 Build 0)  -->
<svg version="1.1" id="Layer_1" xmlns="http://www.w3.org/2000/svg" xmlns:xlink="http://www.w3.org/1999/xlink" x="0px" y="0px"
	 viewBox="0 0 100 100" style="enable-background:new 0 0 100 100;" xml:space="preserve">
<path d="M50,0C22.4,0,0,22.4,0,50s22.4,50,50,50s50-22.4,50-50S77.6,0,50,0z M50,80.8c-3.5,0-6.4-2.9-6.4-6.4c0-3.5,2.9-6.4,6.4-6.4
	s6.4,2.9,6.4,6.4C56.4,77.9,53.5,80.8,50,80.8z M50,50c-13.5,0-24.4,10.9-24.4,24.4S36.5,98.7,50,98.7C23.1,98.7,1.3,76.9,1.3,50
	S23.1,1.3,50,1.3c13.5,0,24.4,10.9,24.4,24.4S63.5,50,50,50z"/>
<circle cx="50" cy="25.6" r="6.4"/>
</svg>
