<?xml version="1.0" encoding="utf-8"?>
<!-- Generator: Adobe Illustrator 21.0.0, SVG Export Plug-In . SVG Version: 6.00 Build 0)  -->
<svg version="1.1" id="Layer_1" xmlns="http://www.w3.org/2000/svg" xmlns:xlink="http://www.w3.org/1999/xlink" x="0px" y="0px"
	 viewBox="0 0 100 100" style="enable-background:new 0 0 100 100;" xml:space="preserve">
<path d="M39.4,100c-0.3-0.8-0.6-1.6-0.9-2.4c-0.1-0.1-0.2-0.3-0.4-0.3c-0.7-0.1-0.9-0.7-1.2-1.3c-0.7-1.4-1.4-2.8-2.1-4.2
	c-0.1-0.2-0.3-0.4-0.6-0.5c-6.9-4-12.6-9.4-17.3-16c-0.6-0.8-1.4-1-2.2-1.4c-0.6-0.3-1-0.6-1.2-1.2c-0.8-1.9-1.6-3.8-2.6-5.6
	c-0.5-0.9-0.3-1.7,0.4-2.3c0.6-0.5,0.5-1,0.3-1.6c-0.5-1.4-0.9-2.9-1.3-4.3c-0.1-0.2-0.3-0.4-0.4-0.5c-2-1.3-4-2.6-6.2-4
	C5,54.2,6.2,54,7.5,53.8c-0.5-1.5-1-3-1.5-4.6c1.2,0.7,2.3,1.3,3.6,1.9c0-0.4,0-0.7,0.1-1c0.5-7.4,1.9-14.6,5.2-21.3
	c3.4-6.7,8.4-11.9,14.8-15.8c0.6-0.3,1.1-0.5,1.6,0.1c0.1,0.1,0.5,0,0.7-0.1c2.9-1.6,6-2.9,9.2-3.9c0.6-0.2,1-0.1,1.4,0.5
	c-0.9,0.3-1.8,0.5-2.7,0.8c-6,2-11.2,5.4-15.9,9.6c-0.7,0.6-1.5,1.3-2.1,2c-0.4,0.4-0.8,0.5-1.3,0.1c3-3.3,6.5-6.1,10.4-8.5
	c-0.3-0.6-0.7-0.4-1.1-0.1c-1.6,1.2-3.3,2.4-4.9,3.7c-7.4,6.3-11.8,14.4-13.6,23.9c-0.6,3.4-1,6.8-1,10.2c0.4,0.2,0.7,0.2,0.7-0.3
	c0-0.6,0.1-1.1,0.1-1.9c0.4,0.5,0.7,0.8,1,1.2c0.4-0.3,0.8-0.5,1.4-0.8c-0.1,0.7-0.1,1.4-0.2,2.1c0.5,0,0.9,0.1,1.3,0.1
	c0-0.1,0.1-0.2,0-0.2c-0.7-0.6-0.7-1.4-0.6-2.2c0.1-0.6,0.2-1.3,0.3-2.1c0.6,0.8,1.1,1.5,1.7,2.3c0.8-0.6,1.6-1.1,2.4-1.7
	c-0.1,1.7,0.2,3.3-1.7,4.1c0.5,0.3,0.5,0.3,1.4-0.4c0,0.3,0.1,0.5,0.1,0.7c0.2,0,0.4,0.1,0.7,0.1c0-1,0-2,0-3c0.1,0,0.1-0.1,0.2-0.1
	c0.3,0.3,0.5,0.7,0.8,1c0.6,0.7,1.1,1.4,1.7,2.2c0.2,0.2,0.4,0.3,0.6,0.5c0.1,0,0.1-0.1,0.2-0.1c0-0.4,0-0.7,0-1.1
	c0-5.2,0.6-10.2,2.3-15.1c1.2-3.2,2.8-6.2,5.2-8.7c0.5-0.6,0.5-0.7-0.1-1.3c-1.3,1.8-2.5,3.6-3.7,5.4c-0.8,1.2-0.8,1.2-2.2,1.5
	c-0.6-1-0.9-2.1-0.1-3.1c0.1-0.1,0.2-0.3,0.3-0.4c0.8-0.2,1.1-0.9,1.5-1.6c4-6.2,9.6-10.3,16.3-13c0.7-0.3,1.5-0.6,2.2-0.8
	c0.2,0.6-0.2,0.8-0.6,0.9c-4.2,1.6-8,3.7-11.4,6.7c-2.4,2.1-4.5,4.4-6.3,7c-0.4,0.5-0.6,1-0.1,1.7c0.2-0.2,0.4-0.5,0.6-0.7
	c2.6-3.6,5.6-7,9.2-9.7c2.4-1.8,5-3.3,7.8-4.2c0.1,0,0.3-0.1,0.5-0.1c0.1,0.5-0.1,0.7-0.6,0.8c-5.1,1.8-9.3,5-12.8,9
	c0,0.1-0.1,0.1-0.1,0.2c0.7,1.1,0.7,1.1-0.1,2.1c-3.6,4.5-5.7,9.7-6.5,15.3c-0.4,2.9-0.5,5.8-0.7,8.7c0,0.5,0.1,0.8,0.5,1.1
	c0.6,0.4,1.2,0.8,1.7,1.3c0.2,0.2,0.4,0.5,0.4,0.8c0,1.7,0,3.5-0.1,5.2c0,0.4-0.4,0.7-0.6,1.1c-0.1,0-0.2,0-0.2,0
	c1.1,2,2.3,4,3.5,6.1c0.3-0.6,0.6-1,1.2-0.8c0.1,0,0.3-0.3,0.3-0.3c-0.3-1.1-0.1-1.3,1.2-1.2c0-0.7,0.1-1.4,0-2
	c-0.1-0.5-0.1-0.9,0.3-1.2c0.3-0.3,0.6-0.7,0.8-1c-0.8-1.2-1.7-2.4-2.3-3.6c-1.4-2.6-1.4-5.2-0.1-7.8c0.7-1.3,1.5-2.6,2.3-3.8
	c0.7-1.1,1.3-2.2,1.5-3.5c0.2-1.5,0.9-2.7,1.8-3.8c0.2-0.3,0.4-0.7,0.4-1c0.3-3.9,3-6.7,7-7c0.4,0,0.8,0,1.4-0.1
	c-3,2.3-3.8,4.2-2.8,6.6c0.4-0.9,0.7-1.8,1.3-2.7c0.5-0.9,1.5-1.3,2.4-1.7c0,1.2-0.1,2.3,0,3.5c0.1,1.1,0.4,2.3,1.7,2.9
	c-0.1-0.7-0.2-1.4-0.3-2c-0.2-2.4,0.4-4.5,1.9-6.3c1.4-1.7,1.8-3.6,0.9-5.9c0.5,0.3,0.9,0.5,1.2,0.7c1.8,1.4,2.4,3.4,1.7,5.7
	c-0.4,1.3-0.6,2.5-0.4,3.9c0.1,0.4,0.3,0.7,0.5,1.1c0.4-1.7,0.7-3.4,2.7-4c-0.4,2-0.3,3.8,1.5,5.2c0.4-2.2,0.6-4.4-0.1-6.5
	c1.3,1.1,2.5,2.3,3.9,3.5c0.4-2-0.2-3.6-1.2-5.3c0.3,0.1,0.5,0.1,0.6,0.2c3.2,1.4,4.9,3.9,4.9,7.4c0,2.5,0.9,4.6,2.5,6.5
	c1.6,1.9,3.1,3.8,3.9,6.2c0.7,2,1,4.1,0.5,6.2c-0.4,1.8-1.6,3.2-2.7,4.5c-0.2,0.2-0.4,0.4-0.5,0.6c0.1,0.1,0.2,0.3,0.3,0.4
	c0.8,0.7,1.4,1.5,0.9,2.7c-0.2,0.4,0.1,0.9,0.1,1.4c1.3-0.1,1.4,0,1.2,1.2c0,0.1,0.2,0.3,0.4,0.3c0.8,0,0.8,0,1.2,0.9
	c1.2-2.1,2.3-4,3.5-6.1c-1.3-0.4-1.2-1.4-1.2-2.3c0-1.3,0-2.7-0.1-4c0-0.5,0.1-0.8,0.5-1c0.4-0.2,0.7-0.6,1.1-0.8
	c1.1-0.6,1.3-1.4,1.3-2.6c-0.2-5.4-0.9-10.8-3-15.8c-1.1-2.6-2.5-4.9-4.3-7.1c-0.8-1-0.8-1,0-2.1c-0.6-0.6-1.2-1.3-1.8-1.9
	c-3.2-3.2-6.9-5.7-11.2-7.3c-0.3-0.1-0.5-0.4-0.7-0.6c0-0.1,0.1-0.1,0.1-0.2c0.2,0,0.3,0,0.5,0.1c4.2,1.3,7.8,3.7,10.8,6.8
	c2.2,2.2,4,4.6,6,6.9c0.2,0.3,0.4,0.5,0.6,0.9c0.4-0.6,0.4-1,0-1.6C70,23,64.2,18.6,57.1,15.8c-0.5-0.2-1.3-0.2-1.2-1.2
	c1.8,0.8,3.6,1.5,5.3,2.3C67,19.7,71.7,23.7,75,29.3c0.1,0.2,0.2,0.4,0.4,0.5c0.8,0.2,1,0.9,1.3,1.5c0.1,0.3,0.1,0.6,0.1,0.9
	c-0.1,0.5-0.3,0.9-0.5,1.4c-0.9-0.1-1.6-0.4-2.2-1.3c-1.2-1.9-2.5-3.7-3.8-5.6c-0.6,0.5-0.5,0.8-0.2,1.2c4.5,4.8,6.4,10.6,7.2,17
	c0.3,2.6,0.4,5.3,0.6,8.1c0.2-0.2,0.5-0.3,0.7-0.5c0.8-1,1.7-2.1,2.6-3.3c0,1.2,0,2.1,0,3.2c0.3,0,0.5,0,0.7,0
	c0-0.2,0.1-0.5,0.1-0.7c0.4,0.2,0.8,0.4,1.2,0.6c0.1-0.1,0.2-0.2,0.2-0.2c-1.9-0.8-1.7-2.5-1.7-4.1c0.8,0.6,1.6,1.1,2.4,1.7
	c0.6-0.7,1.1-1.4,1.7-2.2c0.1,1.2,0.3,2.2,0.3,3.3c0,0.4-0.4,0.8-0.7,1.3c0.5,0,0.9-0.1,1.4-0.1c-0.1-0.7-0.1-1.3-0.2-2.1
	c0.5,0.3,0.9,0.5,1.4,0.8c0.3-0.4,0.6-0.7,1-1.3c0.1,0.9,0.1,1.5,0.1,2.3c0.2,0,0.4,0,0.6,0.1c0-0.1,0.1-0.1,0.1-0.2
	c-0.1-9.2-2-18-7.2-25.8c-3.3-4.9-7.5-8.7-12.4-12c-0.4-0.2-0.7-0.4-1.1,0.2c3.9,2.3,7.3,5.1,10.4,8.4c-0.5,0.4-0.8,0.3-1.3-0.1
	c-4.2-4.1-8.9-7.7-14.3-10.1c-2.1-0.9-4.2-1.6-6.3-2.4C58.1,9,58.5,9,59.1,9.2c3.3,1.1,6.6,2.4,9.6,4.1c1-0.7,1.1-0.7,2.2-0.1
	c10.3,6.3,16.2,15.6,18.5,27.3c0.6,3.2,0.9,6.5,1.3,9.8c0,0.2,0,0.4,0.1,0.6c1.1-0.6,2.1-1.2,3.3-1.8c-0.5,1.6-1,3.1-1.5,4.6
	c1.3,0.2,2.6,0.4,3.8,0.5c0,0,0,0.1,0,0.1c-0.1,0-0.2,0-0.3,0.1c-1.9,1.2-3.9,2.5-5.8,3.7c-0.2,0.1-0.4,0.4-0.5,0.7
	c-0.4,1.3-0.8,2.5-1.2,3.8c-0.2,0.5-0.2,0.9,0.3,1.3c1.1,0.9,1.1,1.4,0.5,2.7c-0.8,1.7-1.6,3.5-2.3,5.2c-0.4,0.9-0.8,1.5-1.8,1.8
	c-0.9,0.3-1.3,0.9-1.8,1.7c-1.7,3.2-3.8,6-6.4,8.4c-3.1,3-6.7,5.3-10.6,7.2c-0.3,0.2-0.7,0.4-0.8,0.6c-1.2,2.3-2.4,4.6-3.5,7
	c-0.2,0.4-0.3,0.8-0.5,1.3c-0.1,0-0.3,0-0.4,0c-0.2-0.1-0.4-0.2-0.6-0.3C58,98.8,55.2,98,52.5,97c-1.5-0.5-2.8-0.8-4.3,0
	c-0.4,0.2-0.9,0.3-1.4,0.5c-2.3,0.8-4.7,1.6-7,2.5C39.7,100,39.6,100,39.4,100z M36,83.2c9.7-2.1,19.4-2.3,29.1-0.3
	c0.5-2.3,0.9-4.5,1.3-6.7c-10.7-2-21.3-1.9-31.9,0.1C35,78.6,35.5,80.8,36,83.2z M88.8,65.3c-0.3,0.1-0.5,0.2-0.8,0.3
	c-2.8,0.9-5.6,1.8-8.4,2.7c-0.5,0.1-0.7,0.4-1,0.8c-0.7,1.2-1.4,2.4-2.1,3.5c-2.4,3.4-5.4,6.2-8.5,8.8c-0.2,0.2-0.5,0.5-0.6,0.8
	c-0.3,1.2-0.6,2.3-0.9,3.5c-0.1,0.3-0.2,0.6-0.5,0.8c-1.5,1.3-3.1,2.7-4.7,3.9c-0.6,0.5-0.7,1-0.6,1.7c0.1,0,0.2-0.1,0.3-0.1
	c3.5-1.6,6.7-3.4,9.9-5.6c2.8-2,5.4-4.2,7.5-7C81,76,82.8,72.1,83.9,68c0.1-0.5,0.4-0.8,0.9-0.9c1.2-0.3,2.5-0.7,3.7-1
	c1.1-0.3,1.2-0.6,0.4-1.4c-0.2-0.2-0.4-0.3-0.6-0.5c-0.1,0.1-0.1,0.1-0.2,0.2C88.3,64.6,88.6,64.9,88.8,65.3z M51.1,56.5
	c-1.1,4.1-1.4,7.9,2.3,11c0.7-1.8,0.8-3.4,0-5.1c-1.3-2.6-0.8-4.7,1.2-6.8c0.6-0.7,1.2-1.5,1.6-2.3c0.3-0.6,0.5-1.4,0.7-2.1
	c-0.1,1.7-0.6,3.2-1.8,4.5c-1.7,1.8-2.1,3.9-1.3,6.2c0.6,1.8,1.4,3.6,2.1,5.4c0.1-0.4,0.4-0.8,0.5-1.3c0-1.3,0.2-2.6-0.1-3.8
	c-0.4-2.2-0.2-4.3,0.9-6.2c0.5-1,1.1-1.9,1.6-2.9c0.8-1.5,0.9-2.9,0.2-4.4c-0.5-1.1-1-2.1-1.5-3.2c-0.6-1.3-1-2.7-0.9-4.1
	c0-0.2-0.2-0.5-0.3-0.7c-1.2-1.3-2-2.8-2.3-4.5c-0.1-0.3-0.1-0.6-0.2-0.9c-0.1,0-0.1,0-0.2,0c-0.1,0.7-0.3,1.3-0.4,2
	c-0.2,1.7,0.4,3.2,0.9,4.8c1.2,3.3,0.9,6.4-1,9.3c-0.9,1.4-2.1,2.7-3.2,4c-1.2,1.3-2,2.7-2.6,4.4c-1.1,3.3,0.2,6.4,3.2,8.2
	C48.8,63.9,47.2,60,51.1,56.5z M37.3,48.2c0,0.8-0.3,1.5-1.2,3c-1.1,1.7-1.8,3.6-1.7,5.7c0.1,1.4,0.5,2.7,1.3,4
	c0.2-3.6,1.5-6.4,3.9-8.8c1.6-1.6,2.4-3.6,2.4-5.9c0-2.1-0.7-3.9-1.5-5.8c-1-2.1-1.3-4.3-1-6.6c0-0.4,0.1-0.7,0.1-1.2
	c-0.3,0.3-0.5,0.4-0.7,0.6c-1.9,1.8-2.5,4-2.2,6.6c0.2,1.6,0.1,3.2,0.1,4.8c0,1.2-0.5,2.1-1.2,2.7c1-2.5,0.6-4.9,0.1-7.5
	c-0.7,0.8-0.9,1.7-0.9,2.5c-0.2,1.9-0.6,3.6-1.7,5.2c-1.8,2.6-2.2,5.6-1.3,8.7c0.4,1.3,1,2.4,2.1,3.3c0-0.1,0-0.2,0-0.3
	c-0.8-3,0-5.6,1.7-8.1C36.3,50.2,36.8,49.1,37.3,48.2z M46.4,54.5c-0.7,1-1.4,1.9-2,2.8c-0.8,1.2-1.4,2.5-1.4,3.9
	c-0.1,2.9,1.9,4.5,4.1,6.1c-0.4-1-0.7-1.9-1-2.8c-0.7-2.1-0.7-4.1,0.3-6.1c0.8-1.6,1.9-3,3.2-4.1c2-1.8,3.2-4,3.7-6.6
	c0.6-2.8,0.3-5.4-2-7.5c-1.3-1.2-2-2.8-2-4.7c0-1,0.2-2,0.3-3c0.1-0.7,0.3-1.5,0.5-2.2c-0.1,0-0.1-0.1-0.2-0.1
	c-0.7,1.1-1.5,2.2-2.2,3.4c-1.2,2.3-1.4,4.6-0.4,7c0.9,2.1,0.9,4.4,0.3,6.6c-0.4,1.5-1.2,2.8-2.1,4c-1.4,1.7-2.7,3.5-3.3,5.7
	c-0.2,0.9-0.4,1.7-0.1,2.7C44.3,56,44.8,55.3,46.4,54.5z M12.2,64.8c-0.1,0-0.2,0-0.2,0c-0.2,0.3-0.4,0.5-0.6,0.8
	c-0.5,0.7-0.5,0.9,0.4,1.2c1.4,0.5,2.8,0.9,4.3,1.4c0.3,0.1,0.6,0.4,0.6,0.6c0.5,1.9,1.3,3.7,2.3,5.5c3.8,6.5,9.1,11.5,15.6,15.2
	c1.7,1,3.6,1.8,5.4,2.7c0.1-0.7-0.2-1.1-0.6-1.5c-1.3-1.1-2.5-2.3-3.8-3.3c-1-0.8-1.7-1.7-1.9-2.9c-0.3-1.6-1.2-2.7-2.4-3.7
	c-3.9-3.3-7.3-6.9-9.6-11.6c-0.1-0.2-0.5-0.4-0.8-0.5c-2.7-0.6-5.4-1.3-8-2.4c-0.2-0.1-0.5-0.2-0.6-0.3
	C12.2,65.4,12.2,65.1,12.2,64.8z M43.7,66.7c-0.2-0.3-0.4-0.5-0.5-0.7c-1.7-2.4-2.6-5-2.1-7.9c0.4-2.6,1.7-4.7,3.5-6.6
	c1.3-1.4,2.2-3,2.5-4.8c0.3-1.8,0.3-3.6-1.1-4.9c-1-1-1.5-2.1-1.7-3.5c-0.1-0.9-0.1-1.7-0.2-2.7c-1.1,0.6-1.7,1.5-2,2.6
	c-0.3,1.2-0.2,2.4,0.2,3.6c0.5,1.7,0.7,3.4,0.4,5.1c-0.3,2.4-1.4,4.5-2.5,6.7c-0.6,1.2-1.2,2.4-1.6,3.6c-1,3.3-0.2,6.4,2.2,8.3
	C41.5,66.1,42.4,66.6,43.7,66.7z M11.2,58.1c-0.1,0.1-0.1,0.1-0.2,0.2c0,0.1,0,0.2,0,0.3c0.5,2.6,1.4,5,2.6,7.4
	c0.1,0.2,0.3,0.3,0.5,0.4c0,0,0.1-0.1,0.1-0.1c-0.2-0.6-0.5-1.3-0.7-2c1.1,0.1,1.2,1,1.4,1.6c0.2,0.5,0.4,0.8,1,0.8
	c-0.3-0.8-0.7-1.5-0.7-2.2c0-0.7,0.5-1.5,0.8-2.4c0.2,0.4,0.3,0.6,0.4,0.8c0.6,1.4,1.2,2.8,1.8,4.3c0.1,0.2,0.2,0.5,0.4,0.5
	c0.5,0.1,1.1,0.2,1.8,0.3c-0.5-1.1-1-2.1-1.5-3.1c-0.1-0.2-0.3-0.4-0.5-0.4C17,64.1,16.9,63,16.5,62c0.6,0.2,1.1,0.4,1.7,0.5
	c0.4-0.5,0.7-1,1.1-1.5c0.3,0.6,0.5,1,0.7,1.5c0.1,0.2,0.1,0.5,0,0.6c-0.7,1.1-0.5,2.1,0.1,3.1c0.2,0.3,0.3,0.7,0.5,1
	c0.2,0.5,0.4,1.1,1.1,1.1c0.1,0,0.3,0.3,0.4,0.5c1.8,3.6,4.2,6.8,7.2,9.6c0.9,0.8,1.9,1.7,2.8,2.5c0.1-0.1,0.2-0.1,0.3-0.2
	c-0.3-0.5-0.6-1.1-1-1.5c-2.5-2.3-4.7-4.8-6.7-7.6c-1.5-2.1-2.8-4.3-3.9-6.7c0.6-0.1,0.8,0.1,1.1,0.6c1.5,3,3.3,5.9,5.6,8.5
	c1.3,1.6,2.8,3,4.5,4.3c0.7-0.4,0.2-0.7-0.1-1c-3.6-3.5-6.7-7.5-8.9-12.1c-0.1-0.3-0.4-0.6-0.6-0.6c-1.1-0.2-1.5-1-1.8-2.1
	c0.6,0.1,1.2,0.4,1.6,0.2c0.4-0.2,0.6-0.9,0.8-1.4c0,0,0.1,0,0.1-0.1c0.5,0.8,1,1.6,0.5,2.6c-0.2,0.3-0.1,0.9,0.1,1.2
	c1.4,2.8,3,5.5,5.1,7.9c1.3,1.5,2.7,2.8,4,4.3c0.1-0.1,0.2-0.2,0.3-0.2c-0.1-0.2-0.2-0.5-0.4-0.7c-3.4-3.5-6.2-7.3-8.5-11.6
	c-0.2-0.3-0.1-0.7-0.2-1.1c0.1,0,0.2,0,0.2-0.1c2.4,4.7,5.4,9,9.3,12.7c0.2-0.2,0.3-0.3,0.4-0.5c0-0.1-0.1-0.1-0.1-0.1
	c-4.5-4.3-8-9.4-10.5-15.1c-0.1-0.3-0.5-0.4-0.8-0.7c-0.3,0.8-0.5,1.5-0.7,2.1c-0.3-0.1-0.5-0.2-0.8-0.2c-0.7-0.1-1.1-0.5-1.3-1.2
	c-0.1-0.4-0.3-0.8-0.5-1.3c-0.5,0.8-1,1.5-1.4,2.1c-0.2-0.1-0.2-0.1-0.3-0.1c-1.2-0.4-2.2-0.8-2.4-2.2c0-0.2-0.4-0.3-0.6-0.4
	c-0.1,0-0.3,0.2-0.4,0.4c-0.2,0.5-0.4,1.1-0.6,1.7C12.5,60.1,11.3,59.7,11.2,58.1z M59.1,66.1c0.8-0.6,1.3-1.3,1.3-2.3
	c0.2-2.2,1-4.1,2.2-5.9c1.4-2,1.9-4.3,1.4-6.7c-0.3-1.7-1.1-3.2-2-4.6c-1.7-2.5-2.8-5.1-2.8-8.2c0-0.9-0.3-1.8-0.6-2.7
	c-0.2-0.5-0.6-0.8-0.8-1.2c-0.1,0-0.2,0.1-0.3,0.1c-0.1,2.2-0.2,4.3-0.2,6.5c0,1.5,0.5,3,1.3,4.3c1.7,3.1,1.8,6.3,0.4,9.5
	c-0.5,1.3-0.9,2.6-1.2,4C57.3,61.5,59,63.6,59.1,66.1z M67.9,80.1c0.1,0,0.1,0.1,0.2,0.1c0.1,0,0.1,0,0.2-0.1
	c0.3-0.2,0.5-0.4,0.8-0.6c3.6-2.9,6.6-6.4,8.9-10.4c0.3-0.6,0.5-1.3,1.3-1.4c0.1,0,0.2-0.2,0.3-0.4c0.4-1,0.9-2,1.3-3.1
	c0.1-0.2,0.1-0.6,0-0.7c-0.8-1-0.2-1.9,0.2-2.9c0.4,0.4,0.7,1,1.2,1.2c0.4,0.1,1-0.2,1.6-0.4c-0.1,0.3-0.2,0.5-0.2,0.7
	c-0.3,0.8-0.4,1.8-1.6,2c-0.1,0-0.2,0.1-0.2,0.2c-0.5,1-0.9,2.1-1.4,3.2c1.3-0.2,2.3-0.6,2.5-2c0-0.3,0.2-0.5,0.3-0.8
	c0.4-0.9,0.7-1.8,1.1-2.8c0.8,0.8,1.2,1.6,0.6,2.6c-0.3,0.5-0.4,1.1-0.6,1.7c0.7,0,1-0.3,1.2-0.9c0.1-0.3,0.2-0.5,0.3-0.8
	c0.1-0.8,0.8-1,1.5-1.2c-0.3,0.8-0.5,1.5-0.7,2.2c0.1,0,0.1,0.1,0.2,0.1c0.2-0.2,0.4-0.4,0.5-0.6c0.7-2.1,1.5-4.1,2.2-6.2
	c0.1-0.2-0.1-0.4-0.1-0.6c-0.1,0.1-0.3,0.3-0.4,0.4c-0.2,0.3-0.2,0.8-0.5,1c-0.5,0.4-1.1,0.6-1.7,1c-0.4-0.6-0.7-1.1-1-1.7
	c-0.1-0.2-0.3-0.3-0.4-0.4c-0.1,0.2-0.2,0.3-0.3,0.5c-0.1,0.3-0.1,0.6-0.3,0.9c-0.1,0.2-0.2,0.4-0.4,0.5c-0.6,0.3-1.2,0.5-1.9,0.8
	c-0.3-0.6-0.5-1.2-0.7-1.7c-0.1-0.2-0.3-0.4-0.4-0.4c-0.2,0-0.4,0.2-0.5,0.4c-0.2,0.4-0.3,0.9-0.5,1.4c-0.1,0.2-0.2,0.4-0.4,0.4
	c-0.5,0.2-1,0.3-1.5,0.4c-0.1-0.4-0.3-0.7-0.4-1c-0.1-0.3-0.2-0.6-0.3-0.9c-0.9-0.2-1,0.5-1.3,1.1c-2.2,5.5-5.4,10.3-9.8,14.3
	c0,0,0,0.1-0.1,0.1c0.2,0.1,0.3,0.2,0.5,0.4c4-3.6,6.9-7.9,9.3-12.7c0.1,0.4,0.1,0.7,0,1c-1,1.8-1.9,3.5-2.9,5.2
	c-1.7,2.6-3.7,4.9-6,7.1c0.1,0.2,0.2,0.3,0.4,0.5c0.1-0.1,0.2-0.1,0.2-0.2c4.1-3.4,6.8-7.7,9-12.4c0.1-0.2,0.1-0.6-0.1-0.9
	c-0.4-0.9,0.1-1.5,0.4-2.2c0.4,0.4,0.6,1,1,1.1c0.5,0.1,1-0.1,1.6-0.2c-0.4,0.9-0.4,1.9-1.7,2.1c-0.2,0-0.5,0.4-0.6,0.6
	c-1.4,3.1-3.1,6-5.4,8.6c-1.3,1.5-2.7,2.9-4.1,4.4c0.1,0.2,0.2,0.4,0.4,0.6c0.2-0.2,0.4-0.4,0.6-0.6c3.9-3.5,6.9-7.7,9-12.5
	c0.2-0.5,0.5-0.9,1.1-0.9c0,0,0,0.1,0,0.1c-0.1,0.2-0.1,0.4-0.2,0.5c-2.3,5.5-5.7,10.1-10.3,13.9C68.4,79.3,68.2,79.8,67.9,80.1z
	 M85.8,52c-2.1,0.4-4.1,0.8-6.1,1c-1.7,0.2-3.2,0.8-4.4,1.9c-0.2,0.2-0.4,0.6-0.4,0.9c0,1.6,0,3.1,0,4.7c0,0.5,0.2,0.8,0.7,0.9
	c0-0.2,0.1-0.4,0-0.4c-0.7-0.7-0.1-1,0.4-1.2c0.4-0.2,0.8-0.4,1.3-0.5c1.5-0.3,3.1-0.5,4.6-0.8c1.2-0.2,2.3-0.4,3.5-0.6
	C85.5,55.9,85.7,54,85.8,52z M24.6,61.4c0.1,0,0.2,0.1,0.3,0.1c0.1-0.3,0.4-0.6,0.4-0.9c0-1.7,0-3.3,0-5c0-0.2-0.1-0.5-0.3-0.7
	c-1.3-1.1-2.7-1.9-4.4-2c-0.2,0-0.4-0.1-0.6-0.1c-1.9-0.3-3.7-0.6-5.7-0.9c0.1,2,0.3,3.8,0.4,5.7c0,0.2,0.3,0.4,0.5,0.4
	c1.9,0.3,3.9,0.6,5.8,0.9c1.1,0.2,2.2,0.5,3.2,0.9c0.4,0.1,0.8,0.5,0.3,1C24.6,61,24.6,61.2,24.6,61.4z M63.1,62.1
	c2.1-1.5,4-3.3,5-5.7c1.5-3.4,0.6-6.5-1.4-9.4c-0.6-0.9-1.3-1.7-2-2.6c-1.1-1.5-1.9-3.2-2.1-5.1c-0.1-1.3-0.4-2.6-0.7-3.9
	c-0.1-0.4-0.3-0.8-0.5-1.3c-0.3,1.5-0.4,2.8-0.7,4.2c-0.4,2-0.2,4,0.9,5.7c0.6,0.9,1.2,1.8,1.9,2.6c1,1.2,1.8,2.4,2.3,3.9
	c1.1,3.3,0.3,6.3-1.2,9.2C64.1,60.5,63.6,61.3,63.1,62.1z M33,67.1c0,0.6,0.2,1,0,1.3c-0.1,0.2-0.6,0.2-1,0.3
	c-0.1,0-0.3,0.1-0.3,0.1c0,0.1,0.1,0.2,0.1,0.4c0,0.3,0.1,0.7,0,0.9c-0.1,0.2-0.5,0.2-0.8,0.3c-0.2,0-0.5,0.1-0.5,0.2
	c-0.1,0.2-0.1,0.5,0,0.6c1.2,1.4,2.5,2.7,3.7,4c0.4,0.4,0.7,0.3,0.9-0.2c0.2-0.5,0.4-0.9,0.6-1.3c0.1-0.2,0.1-0.4,0-0.5
	c-0.4-0.9-0.3-1.1,0.6-1.3c0.1,0,0.3-0.3,0.2-0.4c-0.5-1.1-0.4-1.3,0.9-1.5c-0.1-0.5,0-1.2-0.3-1.6c-0.6-0.9-0.3-1.5,0.1-2.3
	c0.1-0.2,0.2-0.3,0.3-0.6c-0.3-0.1-0.5-0.3-0.8-0.4c-0.3,0.4-0.7,0.8-0.9,1.2c-0.2,0.4-0.5,0.5-0.9,0.4C34.1,66.4,33.4,66.6,33,67.1
	z M69.6,70.3c0,0-0.1,0.1-0.1,0.1c-0.4-0.1-0.8-0.1-1-0.3c-0.2-0.2,0-0.6,0-1c0-0.1,0-0.2,0-0.4c-0.1,0-0.3,0-0.4,0
	c-0.7,0.1-1.1-0.3-1-0.9c0.1-0.2,0.2-0.4,0.3-0.5c-0.5-0.6-1.1-1-1.8-0.7c-0.8,0.2-1.1-0.1-1.4-0.7c-0.2-0.2-0.3-0.5-0.5-0.7
	c0,0-0.1-0.1-0.2-0.1c-0.2,0.1-0.3,0.3-0.5,0.4c0.2,0.4,0.4,0.8,0.6,1.1c0.3,0.4,0.2,0.8,0,1.2c-0.3,0.6-0.4,1.3-0.6,2
	c1.4,0.2,1.5,0.5,1,1.5c0,0.1,0.1,0.4,0.3,0.4c0.8,0.2,1,0.6,0.5,1.3c-0.1,0.1-0.1,0.3-0.1,0.4c0.3,0.7,0.6,1.3,0.9,2.2
	c1.6-1.6,3-3.1,4.5-4.6C69.8,70.6,69.7,70.4,69.6,70.3z M40.8,88.4c0,1.5,0.1,1.6,1.4,2.1c4.3,1.6,8.6,3.2,12.9,4.8
	c2.3,0.8,4.6,1.5,6.9,2.3c0.3-0.4,0.5-0.7,0.7-1C55.4,93.8,48.1,91.1,40.8,88.4z M63.8,94.8c-7.9-2.9-15.7-5.7-23.5-8.5
	c0.1,0.9,0.2,0.9,1,1.3c4.5,1.8,9,3.6,13.5,5.3c2.8,1.1,5.6,2,8.5,3C63.5,95.4,63.7,95.1,63.8,94.8z M56.1,74.1
	c2.1,0.2,4.1,0.4,6.1,0.6c0-0.1,0-0.1,0.1-0.2c-0.2-0.1-0.4-0.2-0.5-0.2c-0.3-0.1-0.7-0.2-0.7-0.4c-0.1-0.2,0.1-0.6,0.2-0.9
	c0-0.1,0.1-0.2,0.2-0.3c-0.1-0.1-0.3-0.1-0.4-0.2c-0.3-0.2-0.6-0.3-0.7-0.5c-0.1-0.2,0.1-0.5,0.2-0.8c0-0.1,0.1-0.2,0.4-0.4
	c-0.6-0.4-1.1-0.9-1.6-0.9c-0.9,0-1.2-0.5-1.4-1.2c-0.1-0.2-0.2-0.4-0.3-0.5c-0.8,0-0.9,0.4-0.8,1c0.1,0.2,0.1,0.4,0.1,0.6
	c0.1,0.5,0,0.8-0.4,1.2c-0.6,0.5-0.9,1.1-1,1.8C56.5,73,56.6,73.2,56.1,74.1z M43,67.7c-0.2,0.5-0.4,0.9-0.6,1.4
	c-0.1,0.4-0.3,0.6-0.8,0.6c-0.8,0-1.5,0.4-1.8,1.2c1.3,1.3,0,1.4-0.7,1.7c0.2,0.5,0.4,0.8,0.4,1.2c0,0.5-0.5,0.6-0.9,0.6
	c-0.2,0-0.4,0.1-0.5,0.1c0.1,0.1,0.2,0.2,0.3,0.3c2.1-0.2,4.1-0.4,6.2-0.7c-0.9-0.8-0.8-1.2,0.4-1.8c-0.3-0.5-0.4-1.1-0.8-1.4
	c-0.8-0.6-0.7-1.2-0.6-2c0-0.1,0-0.3,0.1-0.4C43.7,68,43.6,67.7,43,67.7z M41.2,91.3c0.4,0.6,0,1.5,1,1.7c6.2,1.9,12.4,3.8,18.5,5.7
	c0.6,0.2,0.8,0,0.9-0.5C54.8,95.9,48.1,93.6,41.2,91.3z M60.5,89.8c0.1,0,0.1,0.1,0.2,0.1c1.7-1.3,3.3-2.6,5-3.9
	c0.1-0.1,0.2-0.2,0.2-0.4c0.1-0.8-0.5-1.6-1.3-1.8c-0.6-0.2-1.3-0.2-1.9-0.4c-0.6-0.1-0.9,0-1,0.6C61.3,85.9,60.9,87.9,60.5,89.8z
	 M59.3,92.3c0.1-0.6,0-0.8-0.5-1c-4.4-1.6-8.9-3.2-13.3-4.9c-2-0.8-4-1.7-6-2.6c0.2,1.3,0.2,1.4,1.3,1.8c4.9,1.9,9.7,3.7,14.6,5.6
	C56.6,91.5,57.9,91.8,59.3,92.3z M48.3,73.7c0,0.1-0.1,0.1-0.1,0.2c1.3,0,2.6,0,3.7,0c0.4-0.5,0.7-0.8,1-1.2
	c-0.1-0.8-0.5-1.3-1.3-1.6C51.1,71,51,70.8,51,70.3c-0.1-1.6,0.1-1.3-1.4-1.4c0,0-0.1,0-0.2,0.1c-0.1,0.6-0.1,1.2-0.2,1.8
	c-0.8,0.2-1.5,0.5-1.8,1.4c-0.1,0.2,0,0.5,0.1,0.6C47.8,73.1,48.1,73.4,48.3,73.7z M34.6,85.3c1.8,1.5,3.6,3,5.4,4.5
	c0.1,0,0.2-0.1,0.3-0.1c-0.6-2-1.3-4-2-6.1C37,84.1,35.4,83.5,34.6,85.3z M41,83.1c0,0.1-0.1,0.2-0.1,0.3c6,2.8,12.1,5.3,18.5,7
	c0.4-0.7-0.1-0.7-0.5-0.9c-5.6-1.7-11-3.8-16.3-6.2C42.2,83.2,41.6,83.2,41,83.1z M45.7,82.8c1.5,0.6,2.8,1.2,4.2,1.8
	c0.1,0,0.3,0,0.4,0c1.2-0.7,2.5-1.3,3.8-2.1C52.7,82.1,47.1,82.3,45.7,82.8z M39.9,98.3c0.1,0.4,0.3,0.7,0.4,1
	c2.6-1,5.2-1.9,7.8-2.8c0-0.1,0-0.1,0-0.2c-0.8-0.1-1.6-0.6-2.3-0.4C43.8,96.5,41.9,97.4,39.9,98.3z M43.7,82.9c0,0.1,0,0.1-0.1,0.2
	c5.2,2.5,10.5,4.6,16.1,5.8c-0.1-0.2-0.3-0.3-0.5-0.4c-5-1.6-9.9-3.3-14.7-5.4C44.3,82.9,44,82.9,43.7,82.9z M56.3,68.5
	c-1.6,0.2-3.2,0.4-4.8,0.6c0,0.6,0.1,1,0.1,1.5c1.7-0.2,3.3-0.3,5-0.5C56.4,69.6,56.3,69.1,56.3,68.5z M65,66.1
	c1.4-1.1,2.6-2.1,4-3.1c-0.4-0.5-0.7-0.8-1.1-1.2c-1.3,1.1-2.5,2.1-3.8,3.1C64.4,65.3,64.6,65.7,65,66.1z M63.3,67.2
	c-0.3-0.5-0.5-1-0.7-1.5c-1.5,0.7-3,1.4-4.4,2.1c0.2,0.5,0.4,0.9,0.6,1.4C60.2,68.5,61.7,67.9,63.3,67.2z M37.2,67.2
	c1.6,0.7,3.1,1.3,4.6,2c0.2-0.5,0.4-1,0.6-1.4c-1.5-0.7-3-1.4-4.4-2.1C37.7,66.3,37.5,66.7,37.2,67.2z M36.3,64.9
	c-1.3-1.1-2.5-2.1-3.8-3.1c-0.4,0.4-0.7,0.8-1.1,1.3c1.4,1,2.6,2,4,3.1C35.7,65.7,35.9,65.4,36.3,64.9z M48.8,70.4
	c0-0.5,0.1-1,0.1-1.5c-1.7-0.2-3.2-0.4-4.9-0.6c-0.1,0.6-0.2,1.1-0.2,1.6C45.6,70.1,47.1,70.3,48.8,70.4z M60.8,83.1
	c-1.7,1.2-3.5,2.3-5.2,3.5c0.8,0.6,1.5,0.7,2.3,0c0.5-0.5,1.1-0.9,1.7-1.2C60.5,85,60.8,84.2,60.8,83.1z M44.4,95.5
	c0-0.1,0-0.1,0-0.2c-0.5-0.1-1-0.4-1.4-0.3c-1.4,0.5-2.7,1.1-4.2,1.6c0.4,0.3,0.4,1,1.1,0.7C41.4,96.7,42.9,96.1,44.4,95.5z
	 M58.9,83c0-0.1-0.1-0.2-0.1-0.3c-0.4,0.1-0.9,0.2-1.3,0.4c-0.5,0.2-0.9,0.5-1.3,0.8c-1,0.6-2,1.2-3,1.8c0,0.1,0,0.2,0,0.2
	c0.5,0,1.1,0.3,1.4,0.1C56.1,85.1,57.5,84,58.9,83z M56.6,82.8c0-0.1-0.1-0.2-0.1-0.3c-2,0.4-3.7,1.7-5.5,2.5
	c0.5,0.2,1.1,0.5,1.5,0.3C53.8,84.6,55.2,83.6,56.6,82.8z M37.8,95.5c0,0.1,0,0.1,0,0.2c0.3,0.1,0.6,0.3,0.8,0.2
	c1.2-0.5,2.5-1,3.8-1.6c-0.5-0.4-0.9-0.7-1.5-0.4C39.9,94.5,38.8,95,37.8,95.5z M47.1,71.9c-0.7-0.1-1.3-0.1-2-0.2
	c0.2,0.5,0.4,0.8,0.6,1.3c-0.3,0-0.5,0-0.8,0c-0.1,0-0.3,0.1-0.4,0.2c0.1,0.1,0.2,0.3,0.4,0.3c0.6,0.1,1.2,0.2,1.9,0.2
	c0.3,0,0.6,0,0.9,0c0-0.1,0-0.2,0-0.2c-0.2-0.1-0.4-0.2-0.5-0.2c-0.2-0.1-0.4-0.1-0.6-0.2C46.7,72.7,46.9,72.4,47.1,71.9z
	 M62.5,70.7c0.1-0.5,0.1-0.8,0.2-1.4c-0.7,0.3-1.2,0.6-1.7,0.8c-0.1,0.1-0.1,0.2-0.2,0.3c0.3,0.2,0.6,0.5,0.9,0.7
	c-0.1,0-0.3,0.1-0.5,0.3c-0.1,0.1-0.2,0.3-0.3,0.4c0.2,0,0.4,0.1,0.5,0c0.7-0.3,1.4-0.6,2.2-1c0.2-0.1,0.4-0.1,0.6-0.1
	c-0.1-0.1-0.2-0.3-0.3-0.4C63.3,70.5,62.9,70.6,62.5,70.7z M53.8,73.3c-0.2,0.1-0.5,0.1-0.7,0.1c-0.2,0.1-0.3,0.2-0.5,0.3
	c0,0.1,0.1,0.1,0.1,0.2c1.1,0,2.2-0.1,3.2-0.3c0-0.1,0-0.2,0-0.3c-0.4-0.1-0.8-0.1-1.2-0.2c0.2-0.4,0.3-0.8,0.5-1.2
	c-0.7,0.1-1.3,0.1-2,0.2C53.5,72.5,53.6,72.9,53.8,73.3z M36.7,70.4c0.1,0.2,0.1,0.4,0.1,0.5c0.8,0.4,1.7,0.8,2.6,1.2
	c0.1,0,0.3-0.1,0.3-0.1c0-0.1,0-0.3-0.1-0.4c-0.2-0.2-0.5-0.3-0.8-0.4c0.3-0.3,0.6-0.6,0.9-1c-0.6-0.3-1.2-0.5-1.8-0.8
	c0.1,0.5,0.1,0.9,0.2,1.4C37.6,70.6,37.3,70.5,36.7,70.4z M32,67.2c0.4-0.2,0.7-0.4,1.1-0.7c-0.6-0.4-1-0.8-1.6-1.2
	c-0.1,0.5-0.1,0.9-0.1,1.4c-0.2-0.1-0.4-0.3-0.6-0.4c-0.2-0.1-0.4-0.1-0.6-0.1c0.1,0.2,0.1,0.4,0.2,0.5c0.6,0.5,1.2,1,1.8,1.4
	c0.1,0.1,0.4,0.1,0.5,0.2c0-0.1,0.1-0.1,0.1-0.2C32.5,67.8,32.3,67.5,32,67.2z M68.3,67.2c-0.3,0.3-0.6,0.6-0.9,1
	c0.3,0,0.4,0.1,0.5,0.1c0.8-0.6,1.5-1.1,2.2-1.7c0.1-0.1,0-0.3,0-0.4c-0.1,0-0.3,0-0.4,0c-0.3,0.1-0.5,0.3-0.7,0.4
	c-0.1-0.5-0.2-0.9-0.2-1.3c-0.6,0.5-1,0.8-1.6,1.2C67.6,66.8,67.9,66.9,68.3,67.2z M18.7,59.2c-1-0.1-1.9-0.3-2.8-0.4
	c0,1.4,1,1.5,1.9,1.9C18.1,60.2,18.4,59.7,18.7,59.2z M85.2,48.7c-0.6,0.8-1.1,1.6-1.7,2.3c0.4,0.3,0.7,0.5,1,0.7
	C85.7,50.9,85.4,49.9,85.2,48.7z M15.1,48.8c-0.5,1.5-0.4,2,0.7,2.9c0.3-0.2,0.6-0.4,1-0.7C16.2,50.2,15.7,49.5,15.1,48.8z
	 M82.4,60.6c1.6-0.4,1.8-0.7,1.8-1.9c-0.7,0.1-1.4,0.2-2.1,0.3c0,0.1-0.1,0.2,0,0.2C82.2,59.7,82.3,60.1,82.4,60.6z M35.7,75.1
	c1.5,0.1,2-0.2,2.2-1.1c-0.5-0.2-0.9-0.4-1.4-0.6C36.2,74,35.9,74.6,35.7,75.1z M64.8,75.1c-0.3-0.6-0.5-1.2-0.8-1.8
	c-0.6,0.3-1,0.5-1.5,0.7C62.9,75.4,64,74.9,64.8,75.1z M25.3,30.5c-0.6,0.1-1.3,0.8-1.2,1.3c0,0.3,0.3,0.6,0.4,0.9
	c0.3-0.2,0.6-0.3,0.8-0.5C25.9,31.7,25.5,31.2,25.3,30.5z M75,30.5c-0.5,0.7-0.5,1.3,0.1,1.9c0.4,0.4,0.8,0.4,1-0.1
	C76.4,31.6,75.9,30.7,75,30.5z M36.9,94.3c0.2,0.3,0.3,0.6,0.5,0.8c1-0.5,1.9-1,2.9-1.5C38.9,93.1,38.1,94.1,36.9,94.3z M78.5,61.2
	c1-0.2,1.3-0.5,1.3-1.8c-0.6,0.1-1.1,0.2-1.7,0.3C78.3,60.3,78.4,60.7,78.5,61.2z M17.2,62.6c0.3,1.1,0.6,1.3,1.7,1.3
	c0.1-0.6,0.9-1.1,0-1.8C18.6,62.8,18.1,63.2,17.2,62.6z M38.5,93.1c-0.9-0.3-1.6-0.8-2.5-0.2c0.2,0.4,0.4,0.7,0.7,1.1
	C37.3,93.7,37.9,93.4,38.5,93.1z M20.3,59.5c0.3,0.8,0.1,1.8,1.4,1.7c0.1-0.4,0.2-0.9,0.4-1.4C21.5,59.7,21,59.6,20.3,59.5z
	 M21.5,62.8c0.2,1.1,1,0.9,1.5,1.2c0.7-1.3,0.7-1.3,0-1.9C23,63,22.3,63,21.5,62.8z M81.1,61.7c-0.7,0.6-0.1,1.1,0.2,1.6
	c0.2,0.3,0.4,0.4,0.8,0.3c0.6-0.2,0.6-0.6,0.8-1.2C81.8,63,81.5,62.2,81.1,61.7z M64.5,72.5c0-0.1,0-0.1,0-0.2c-0.2,0-0.4-0.1-0.6,0
	c-0.7,0.3-1.4,0.6-2.1,0.9c-0.1,0.1-0.2,0.3-0.3,0.5c0.2,0,0.4,0.1,0.5,0c0.7-0.3,1.4-0.6,2.1-0.9C64.2,72.7,64.4,72.6,64.5,72.5z
	 M29,67.5c0,0.3-0.1,0.5-0.1,0.5c0.7,0.6,1.5,1.2,2.2,1.8c0.1,0,0.3,0,0.3,0c0.1-0.1,0.1-0.3,0-0.3C30.7,68.8,29.9,68.2,29,67.5z
	 M36.3,72.2c-0.1,0.1-0.2,0.2-0.2,0.2c0.1,0.1,0.1,0.3,0.2,0.4c0.5,0.3,1.1,0.5,1.6,0.7c0.3,0.1,0.7,0.2,1,0.2
	c0.1-0.6-0.5-0.5-0.8-0.7C37.6,72.7,37,72.5,36.3,72.2z M71.4,68.1c-0.1-0.2-0.1-0.3-0.2-0.3c-0.1,0-0.3,0-0.3,0
	c-0.7,0.5-1.4,1.1-2.1,1.7c-0.1,0.1-0.1,0.2-0.1,0.3c0,0.1,0.2,0.1,0.2,0.1C69.8,69.3,70.6,68.7,71.4,68.1z M19.5,50.4
	c-0.3,1.5,0.3,2.2,1.4,1.8C20.5,51.6,20.1,51,19.5,50.4z M58.3,87.5c0,0.1,0,0.2,0,0.3c0.4,0,0.9,0,1.2-0.1c0.6-0.2,0.6-0.8,0.6-1.4
	C59.5,86.7,58.9,87.1,58.3,87.5z M77.4,62c-0.5,0.5-0.5,1-0.2,1.4c0.1,0.2,0.5,0.2,0.7,0.2c0.3-0.1,0.6-0.4,0.9-0.6
	c0-0.1-0.1-0.1-0.1-0.2C78.1,62.9,77.6,62.9,77.4,62z M83.5,49.6c-0.4-0.3-0.8-0.6-1.2-0.9c-0.1,1.3,0,1.7,0.5,2
	C83.1,50.3,83.3,49.9,83.5,49.6z M79.2,52.3c0.6,0.2,0.9,0.1,1.3-0.3c0.4-0.5,0.3-1,0.2-1.6C80.2,51.1,79.7,51.6,79.2,52.3z
	 M17.4,50.7c0.5-0.4,0.7-1.2,0.4-2c-0.4,0.3-0.7,0.6-1.1,0.9C17,50,17.2,50.3,17.4,50.7z M70.3,70.4c0.4-0.5,0.7-1,1-1.4
	c-0.1-0.1-0.1-0.1-0.2-0.2c-0.4,0.3-0.8,0.7-1.3,1C70.1,70.1,70.2,70.2,70.3,70.4z M69.9,67.3c-0.4,0.3-0.8,0.7-1.1,1
	c0,0,0,0.2,0.1,0.2c0.1,0,0.2,0.1,0.3,0c0.3-0.2,0.6-0.5,0.9-0.7c0.1,0,0.1-0.2,0.1-0.2C70.1,67.5,70,67.4,69.9,67.3z M62,72.5
	c1.5-0.4,1.5-0.4,1.2-0.9C62.8,71.9,62.1,71.8,62,72.5z M38.7,72.4c0-0.1,0-0.1,0-0.2c-0.4-0.2-0.7-0.3-1.1-0.5
	c-0.1,0-0.3,0-0.4,0.1c0.1,0.1,0.1,0.3,0.2,0.3c0.3,0.2,0.6,0.3,0.8,0.4C38.3,72.5,38.5,72.4,38.7,72.4z M31.7,68.4
	c-0.3-0.3-0.5-0.4-0.6-0.5c-0.2-0.1-0.3-0.3-0.5-0.4c-0.1-0.1-0.2,0-0.4,0c0,0.1,0,0.3,0.1,0.4c0.3,0.2,0.5,0.5,0.8,0.7
	C31.2,68.5,31.4,68.4,31.7,68.4z M30,70.4c0.4-0.6,0.1-0.9-1-1.4C29.4,69.5,29.7,69.9,30,70.4z"/>
<path d="M59.8,7.2c-1.5,1.3-2.9,2.5-4.3,3.6c-0.8,0.6-1.1,1.2-0.8,2.2c0.5,1.7,0.8,3.4,1.2,5.3c-1.1-0.7-2.1-1.3-3-1.8
	c-0.7-0.5-1.5-0.9-2.2-1.4c-0.4-0.3-0.7-0.2-1,0c-1.7,1-3.5,2-5.4,3.1c0.3-1.4,0.6-2.6,0.9-3.8c0.2-0.8,0.3-1.6,0.6-2.3
	c0.1-0.5,0-0.7-0.3-1c-1.5-1.3-2.9-2.6-4.5-3.9c1.7-0.3,3.3-0.6,4.8-0.7c1-0.1,1.7-0.4,2.1-1.5c0.6-1.5,1.4-2.9,2.1-4.3
	C49.9,0.5,50,0.3,50.2,0c0.8,1.8,1.6,3.5,2.2,5.2c0.4,1.1,1,1.4,2.1,1.4C56.2,6.7,57.9,7,59.8,7.2z M42.1,7.6c1.2,1.1,2.3,2.1,3.4,3
	c0.6,0.5,0.8,0.9,0.6,1.7c-0.5,1.5-0.7,3-1.1,4.7c1.5-0.9,2.9-1.6,4.3-2.4c0.6-0.4,1.1-0.4,1.7,0c1.3,0.9,2.6,1.6,4.1,2.5
	c-0.4-1.8-0.7-3.4-1.1-4.9c-0.1-0.5-0.1-0.9,0.4-1.2c1.3-1,2.6-2.2,4-3.4c-1.3-0.1-2.4-0.3-3.6-0.4c-2.2-0.2-2.2-0.2-3-2.1
	c-0.5-1.2-1-2.4-1.6-3.7C50,1.8,49.8,2,49.7,2.2c-0.7,1.4-1.3,2.7-2,4.1c-0.1,0.2-0.4,0.5-0.7,0.5C46.7,7,46.2,7,45.8,7.1
	C44.6,7.2,43.5,7.4,42.1,7.6z"/>
<path d="M79.8,30.6c0.3-0.5,0.6-1.1,0.9-1.7c0.4,0.8,0.7,1.4,1,2.1c0.1,0.2,0.1,0.4,0,0.6c-0.3,0.7-0.6,1.3-0.9,2.1
	c-1.1-0.6-2.1-1.2-3.2-1.8c-0.1-0.1-0.2-0.3-0.3-0.4c-3.8-8-10.2-13.2-18.3-16.4c-1-0.4-2-0.7-2.9-1c-0.3-0.1-0.5-0.3-0.7-0.5
	c0.1-0.1,0.1-0.2,0.2-0.3c1.2,0.4,2.5,0.8,3.7,1.2c7.1,2.6,12.7,7.2,16.9,13.5C77.1,29.2,78.1,30.2,79.8,30.6z M80.5,30.2
	c-0.3,0.7-0.6,1.3-0.9,1.9c0.4,0.2,0.7,0.4,1,0.5C81.2,31.8,81.4,31,80.5,30.2z M77.6,30c0.2,1.1,0.5,1.4,1.6,1.6
	c0.1-0.2,0.2-0.4,0.3-0.7C78.9,30.6,78.3,30.4,77.6,30z"/>
<path d="M20.5,30.7c0.7-0.3,1.4-0.6,2.1-1c0.3-0.2,0.5-0.5,0.6-0.7c4.9-7.8,11.8-13.1,20.8-15.5c0.1,0,0.3-0.1,0.4-0.1
	c0,0,0.1,0,0.1,0c0.1,0.5-0.2,0.6-0.6,0.7c-3.3,1-6.4,2.3-9.3,4.2c-5.1,3.3-9.2,7.5-11.8,13.1c-0.1,0.2-0.3,0.5-0.5,0.6
	c-1,0.6-1.9,1.1-3,1.7c-0.3-0.8-0.6-1.5-0.9-2.2c0-0.1,0-0.3,0-0.4c0.3-0.7,0.7-1.4,1.1-2.2C19.9,29.5,20.2,30.1,20.5,30.7z
	 M19.6,32.6c0.3-0.2,0.6-0.3,1-0.5c-0.3-0.6-0.6-1.2-0.9-1.9C18.9,31.3,18.9,31.5,19.6,32.6z M22.7,30c-0.7,0.3-1.3,0.6-2,0.9
	c0.2,0.3,0.3,0.5,0.4,0.8C21.9,31.4,22.6,31.1,22.7,30z"/>
<path d="M45,11.6c0.1,0.6-0.3,0.7-0.7,0.8c-6.1,1.7-11.5,4.6-16.1,8.9c-1.7,1.6-3.1,3.3-4.7,5c-0.1,0.1-0.3,0.3-0.3,0.5
	c0.2,1.9-1.1,2.6-2.7,3.1c-0.7-1.2-0.5-2.8,0.5-3.6c0.2-0.2,0.7-0.1,1-0.2c0.4-0.1,0.8-0.3,1-0.6c5.5-7,12.9-11.2,21.2-13.9
	c0.1,0,0.3-0.1,0.4-0.1C44.9,11.5,44.9,11.6,45,11.6z M21,29c1.8-0.5,2.1-0.9,1.8-2.4C21.8,26.5,20.7,27.9,21,29z"/>
<path d="M79.6,29.9c-1-0.3-2-0.6-2.4-1.7c-0.1-0.3-0.2-0.7-0.2-1c-0.1-0.3-0.1-0.7-0.3-0.9c-5.4-6.8-12.3-11.5-20.7-13.9
	c-0.1,0-0.2,0-0.3-0.1c-0.2-0.2-0.3-0.4-0.4-0.6c0.2,0,0.4-0.2,0.6-0.1c2.8,1.1,5.6,2.1,8.4,3.4c5.1,2.4,9.2,5.9,12.7,10.3
	c0.4,0.5,0.8,0.8,1.4,0.7c0.5,0,0.8,0.3,1.1,0.7C80.1,27.8,80.3,28.7,79.6,29.9z M79.2,28.9c0.3-1.1-0.8-2.5-1.8-2.4
	C77.1,28,77.4,28.5,79.2,28.9z"/>
<path d="M56.2,10.9c0.4-0.5,0.7-0.8,1.4-0.5c7.6,2.4,14.1,6.4,19.8,11.8c0.4,0.4,0.4,1.2,0.5,1.9C71.7,17.9,64.8,13,56.2,10.9z"/>
<path d="M22.4,24.3c-0.2-1.2,0.3-2,1.2-2.8c5.6-5,11.8-8.8,19-11.1c0.7-0.2,1.1-0.1,1.5,0.5C35.4,13,28.5,17.9,22.4,24.3z"/>
<path d="M81.3,43.4c0.9,0.6,1.7,1.1,2.6,1.6c0.5-0.6,0.9-1.2,1.5-2c0.1,1.1,0.3,1.9,0.4,2.8c0,0.2-0.1,0.4-0.2,0.5
	c-0.5,0.7-1,1.3-1.5,2c-0.7-0.5-1.4-0.9-2-1.3c-0.1-0.1-0.3-0.2-0.3-0.3C81.6,45.7,81.4,44.6,81.3,43.4z M84.8,44.5
	c-0.6,0.8-1.2,1.6-1.9,2.4c0.3,0.3,0.7,0.5,0.9,0.7C84.8,46.8,85.3,45.9,84.8,44.5z M83.3,45c-0.4-0.3-0.8-0.5-1.3-0.8
	c0.1,0.9,0.1,1.6,0.2,2.3c0.1,0,0.1,0,0.2,0C82.6,46.1,82.9,45.6,83.3,45z"/>
<path d="M14.9,43.1c0.6,0.7,1,1.3,1.5,1.9c0.8-0.5,1.7-1,2.6-1.6c-0.2,1.2-0.3,2.2-0.5,3.3c0,0.1-0.2,0.3-0.3,0.4
	c-0.6,0.4-1.3,0.9-2,1.3c-0.5-0.7-1.1-1.4-1.6-2.1c-0.1-0.1-0.1-0.3-0.1-0.4C14.6,45,14.8,44.2,14.9,43.1z M17.4,46.9
	c-0.7-0.8-1.3-1.6-1.9-2.4c-0.6,1.3-0.1,2.3,0.9,3.1C16.7,47.4,17,47.2,17.4,46.9z M17,45.1c0.3,0.6,0.6,1,0.9,1.5
	c0.1,0,0.2,0,0.2-0.1c0-0.7,0.1-1.4,0.1-2.3C17.8,44.6,17.4,44.8,17,45.1z"/>
<path d="M80.6,39.7c0.9,0.5,1.7,1,2.5,1.5c0.4-0.7,0.9-1.4,1.3-2.1c0.7,1.8,0.7,3.4-0.6,4.9c-0.8-0.5-1.7-1-2.5-1.5
	c-0.1-0.1-0.2-0.2-0.2-0.3C81,41.4,80.8,40.6,80.6,39.7z M84.1,40.4c-0.5,0.8-0.9,1.4-1.4,2.2c0.4,0.2,0.7,0.4,1,0.6
	C84.6,42.3,84.4,41.4,84.1,40.4z M82.7,41.3c-0.5-0.3-0.9-0.5-1.4-0.8c0.2,0.7,0.4,1.3,0.6,2C82.2,42,82.5,41.7,82.7,41.3z"/>
<path d="M15.8,39.1c0.4,0.7,0.9,1.4,1.3,2.1c0.8-0.5,1.6-0.9,2.5-1.5c-0.2,0.9-0.3,1.7-0.5,2.5c0,0.2-0.2,0.3-0.4,0.4
	c-0.8,0.5-1.6,0.9-2.4,1.4C15.1,42.5,15,40.8,15.8,39.1z M17.5,42.6c-0.5-0.8-0.9-1.4-1.4-2.2c-0.3,1.1-0.5,2,0.3,2.7
	C16.8,43,17.1,42.8,17.5,42.6z M17.5,41.3c0.2,0.4,0.5,0.7,0.8,1.2c0.2-0.8,0.4-1.3,0.6-2C18.4,40.8,18,41.1,17.5,41.3z"/>
<path d="M82.2,37.6c0.4-0.7,0.8-1.4,1.1-2.1c1.2,1.7,0.8,3.2-0.3,4.7c-1.5-0.7-3.1-1.3-3-3.5C80.8,37,81.5,37.3,82.2,37.6z
	 M82.9,39.4c0.6-0.9,1-1.8,0.2-2.8c-0.4,0.8-0.8,1.5-1.2,2.2C82.3,39.1,82.6,39.2,82.9,39.4z M80.6,37.3c0,0-0.1,0.1-0.1,0.1
	c0.3,0.4,0.5,0.9,0.8,1.5c0.3-0.5,0.4-0.8,0.6-1.1C81.4,37.6,81,37.4,80.6,37.3z"/>
<path d="M18,37.6c0.8-0.3,1.5-0.6,2.2-0.9c0.1,2.2-1.5,2.8-3.1,3.6c-0.4-0.8-0.7-1.6-1.1-2.3c-0.1-0.2,0-0.4,0.1-0.6
	c0.2-0.6,0.4-1.2,0.7-2C17.2,36.2,17.6,36.9,18,37.6z M17.3,39.4c0.3-0.2,0.7-0.4,1-0.6c-0.4-0.8-0.8-1.5-1.2-2.2
	C16.4,37.7,16.7,38.5,17.3,39.4z M18.4,37.8c0.2,0.3,0.4,0.6,0.6,1.1c0.3-0.6,0.5-1,0.8-1.5c0,0-0.1-0.1-0.1-0.1
	C19.2,37.5,18.8,37.6,18.4,37.8z"/>
<path d="M18.1,32.1c0.2,0.4,0.4,0.8,0.6,1.2c0.2,0.4,0.4,0.8,0.6,1.2c0.7-0.3,1.4-0.6,2.2-1c-0.2,0.8-0.4,1.4-0.6,2.1
	c0,0.1-0.3,0.3-0.4,0.3c-0.7,0.2-1.4,0.4-2,0.6C17.1,35.2,16.9,33.7,18.1,32.1z M18.3,33.4c-0.9,1.1-0.1,1.8,0.3,2.7
	c0.3-0.1,0.6-0.2,0.9-0.3C19,35,18.7,34.2,18.3,33.4z M19.3,34.8c0.3,0.4,0.5,0.6,0.7,0.8c0.2-0.4,0.4-0.8,0.6-1.2
	c-0.1,0-0.1-0.1-0.2-0.1C20.2,34.4,19.8,34.6,19.3,34.8z"/>
<path d="M78.9,33.6c0.4,0.2,0.8,0.3,1.1,0.5c0.3,0.1,0.7,0.3,1,0.4c0.4-0.8,0.8-1.6,1.2-2.5c1.1,1.9,1,2.6-0.3,4.6
	c-0.2-0.1-0.4-0.1-0.6-0.2C79.3,35.8,79.3,35.8,78.9,33.6z M80.8,35.8c0.4,0.1,0.6,0.2,0.9,0.2c0.9-1.5,0.9-1.8,0.3-2.6
	C81.6,34.2,81.2,34.9,80.8,35.8z M79.7,34.3c-0.1,0.1-0.1,0.1-0.2,0.2c0.2,0.4,0.5,0.8,0.7,1.2c0.2-0.3,0.4-0.5,0.6-0.9
	C80.4,34.6,80.1,34.4,79.7,34.3z"/>
<path d="M87.7,47.2c0.4-0.5,0.7-1,1.2-1.5c0.1,1.4,0.6,2.7-0.7,3.7c-1.5-0.4-1.6-0.6-1.6-3C87,46.6,87.3,46.9,87.7,47.2z"/>
<path d="M11.5,45.8c0.4,0.5,0.7,0.9,1.1,1.4c0.3-0.3,0.7-0.5,1.1-0.9c-0.1,0.9,0,1.6-0.2,2.3c-0.1,0.4-0.8,0.6-1.2,0.7
	c-0.1,0-0.4-0.2-0.6-0.4C10.7,48,11.4,46.9,11.5,45.8z"/>
<path d="M21.4,23.2c0.1,0.9,0.1,1.8-0.6,2.4c-0.2,0.2-0.4,0.3-0.6,0.3c-0.3,0-0.9,0-1-0.2c-0.1-0.5-0.4-1,0-1.6
	C19.8,23.2,20.5,23.1,21.4,23.2z"/>
<path d="M78.9,23.2c1.7-0.4,2.9,1.2,2,2.7C79.3,26.1,78.6,25.2,78.9,23.2z"/>
<path d="M79.1,43.5c0.4-0.5,0.8-0.9,1.2-1.5c0.3,1.6,0.8,3.1-0.8,4.3c-1.8-0.5-1.6-2.1-2-3.7C78.2,43,78.6,43.3,79.1,43.5z
	 M79.3,45.9c1.1-1.3,1.1-1.3,0.5-2.6c-0.4,0.7-0.9,1.3-1.3,2.1C78.8,45.6,79,45.7,79.3,45.9z M78.9,43.8c-0.3-0.2-0.6-0.3-0.9-0.5
	c0.1,0.5,0.1,1,0.2,1.4c0.1,0,0.1,0,0.2,0C78.5,44.4,78.7,44.1,78.9,43.8z"/>
<path d="M20.7,46.4c-1.6-1.1-1.1-2.6-0.8-4.2c0.4,0.5,0.8,0.9,1.2,1.4c0.5-0.3,0.9-0.5,1.5-0.9C22.3,44.2,22.6,45.9,20.7,46.4z
	 M20.4,43.3c-0.7,1.4-0.6,1.6,0.5,2.6c0.3-0.2,0.5-0.3,0.8-0.5C21.3,44.7,20.9,44,20.4,43.3z M21.9,44.7c0.1,0,0.1,0,0.2,0
	c0-0.4,0.1-0.9,0.2-1.4c-0.4,0.2-0.6,0.3-0.9,0.5C21.5,44.1,21.7,44.4,21.9,44.7z"/>
<path d="M79.1,42.4c-1.6-0.4-2.2-1.5-2.1-3.2c0.5,0.3,1.1,0.5,1.7,0.8c0.3-0.5,0.6-1,0.9-1.6C80.3,40,80.2,41.3,79.1,42.4z M78.8,42
	c0.4-0.8,1.2-1.4,0.4-2.4c-0.4,0.6-0.7,1.3-1.1,1.9C78.3,41.7,78.5,41.9,78.8,42z M77.5,41.3c0.1,0,0.1,0,0.2,0
	c0.1-0.3,0.3-0.6,0.5-0.9c-0.3-0.2-0.6-0.3-1-0.6C77.3,40.5,77.4,40.9,77.5,41.3z"/>
<path d="M83.1,32c1,0.4,1.8,0.4,1.9-0.9c0.7,1.2,1.3,2.1,0.4,3.2C83.8,34.6,83.8,33.1,83.1,32z"/>
<path d="M21.2,42.5c-1.2-1.2-1.2-2.5-0.5-4c0.3,0.5,0.6,1,0.9,1.6c0.5-0.3,1.1-0.5,1.6-0.8C23.5,40.9,23.1,41.6,21.2,42.5z M21,39.7
	c-0.8,1.1,0,1.7,0.4,2.4c0.2-0.2,0.5-0.3,0.7-0.5C21.8,40.9,21.4,40.3,21,39.7z M22.5,41.3c0.1,0,0.1,0,0.2,0
	c0.1-0.4,0.2-0.9,0.4-1.5c-0.4,0.3-0.7,0.4-1,0.6C22.2,40.8,22.4,41.1,22.5,41.3z"/>
<path d="M14.8,34.4c-0.9-1.1-0.3-2.1,0.3-3.1c0.2,0.4,0.3,0.7,0.5,1.1c0.4-0.1,0.8-0.1,1.4-0.2C16.5,33.1,16.5,34.5,14.8,34.4z"/>
<path d="M14.6,35.6c0.4-0.2,0.7-0.4,1.1-0.5c0.1,1.4-0.3,2-1.7,2.5c-0.8-0.9-0.8-1.2-0.2-3.4C14.1,34.7,14.4,35.2,14.6,35.6z"/>
<path d="M85.2,37.9c0.5,0.2,0.8,0.4,1.3,0.6c0.2-0.4,0.5-0.8,0.7-1.2c0.8,1.1,0.7,1.8-0.1,3.1C85.6,40.2,85.3,39.2,85.2,37.9z"/>
<path d="M13.3,40.4c-1-1-0.8-2-0.3-3.2c0.3,0.4,0.5,0.8,0.8,1.3c0.4-0.2,0.8-0.4,1.2-0.6C15,39.5,14.7,39.9,13.3,40.4z"/>
<path d="M86.3,37.5c-1.6-0.1-1.6-1.3-1.9-2.5c0.5,0.2,0.8,0.4,1.2,0.6c0.3-0.5,0.5-0.9,0.7-1.3C87,35.5,87,36.5,86.3,37.5z"/>
<path d="M19.5,45.9c0.4,0.5,0.8,1,1.3,1.5c0.4-0.3,0.8-0.6,1.1-0.9c0.4,1.4,0,2.3-1.4,3.1C19.1,48.8,19.1,47.4,19.5,45.9z
	 M19.9,46.9c-0.5,1.1,0.1,1.6,0.7,2.2c0.2-0.1,0.4-0.3,0.7-0.4C20.8,48.1,20.4,47.5,19.9,46.9z"/>
<path d="M17.3,29.6c0.3-0.1,0.6-0.2,0.9-0.2c-0.1,1.2-0.5,1.6-1.9,2c-0.6-1.1-0.4-2.1,0.5-3.5C16.9,28.5,17.1,29,17.3,29.6z"/>
<path d="M83,29.6c0.2-0.6,0.4-1.2,0.6-1.9C83.9,29,85,30,84,31.3c-1.1-0.1-1.7-0.8-2-2C82.4,29.4,82.6,29.5,83,29.6z"/>
<path d="M78.3,46.5c0.4,0.3,0.8,0.6,1.2,0.9c0.4-0.5,0.8-1,1.2-1.5c0.6,1.3,0.3,2.5-0.9,3.7C78.2,48.8,78.1,48.5,78.3,46.5z
	 M79.6,49.1c0.6-0.6,1.2-1.2,0.7-2.2c-0.5,0.6-0.9,1.2-1.4,1.8C79.2,48.8,79.4,49,79.6,49.1z M78.4,47c0.1,0.6,0.1,0.9,0.2,1.5
	c0.3-0.4,0.5-0.6,0.6-0.8C79,47.4,78.8,47.3,78.4,47z"/>
<path d="M11.8,43c0.3,0.4,0.6,0.8,0.9,1.2c0.4-0.2,0.7-0.5,1.1-0.8c-0.1,1.1,0.1,2.2-1.3,2.5C11.6,45.3,11.4,44.3,11.8,43z"/>
<path d="M88.4,43c0.4,1.2,0.2,2.2-0.8,3c-1.2-0.3-1.3-1.3-1.2-2.5c0.4,0.3,0.7,0.5,1.1,0.7C87.8,43.8,88.1,43.4,88.4,43z"/>
<path d="M18.4,25.5c0.1,0.4,0.2,0.9,0.3,1.3c0.4,0,0.7,0,1-0.1c-0.4,1.4-0.7,1.7-2,1.8C17.2,27.4,17.3,26.8,18.4,25.5z"/>
<path d="M82.5,28.5c-1.3,0.2-1.6-0.9-2.1-1.8c0.4,0,0.8,0,1.1,0.1c0.1-0.4,0.2-0.8,0.3-1.3C82.5,26.4,83.3,27.3,82.5,28.5z"/>
<path d="M23,32.6c0.2,0.6,0.4,1.1,0.6,1.8c0.5-0.1,0.9-0.2,1.4-0.3c-0.1,1.3-0.6,2.3-2,2.4C21.8,35,21.8,34.4,23,32.6z M23.1,33.5
	c-0.9,0.9-0.9,1.1,0,2.3C23.1,35,23.1,34.3,23.1,33.5z M23.3,35.9c0.9,0,1.1-0.6,1.2-1.3C23.6,34.6,23.5,35.3,23.3,35.9z"/>
<path d="M77.3,32.6c1.2,1.6,1.2,2.2,0.1,3.9C75.8,36,75.7,36,75.3,34c0.5,0.1,0.9,0.2,1.4,0.3C76.9,33.8,77.1,33.2,77.3,32.6z
	 M77.1,35.7c0.9-0.8,0.9-1.4,0-2.3C77.1,34.2,77.1,34.9,77.1,35.7z M76.9,35.9c-0.2-0.7-0.3-1.3-1.2-1.2C75.8,35.3,76,36,76.9,35.9z
	"/>
<path d="M87.5,43.1c-1.2-0.3-1.6-1.1-1.7-2.3c0.5,0.3,0.9,0.5,1.4,0.8c0.3-0.4,0.5-0.8,0.8-1.3C88.5,41.7,88.4,42,87.5,43.1z"/>
<path d="M12.8,43.1c-1-0.8-0.8-1.7-0.7-2.9c0.3,0.5,0.6,0.9,0.9,1.4c0.4-0.2,0.9-0.5,1.3-0.7C14.3,42.2,14.2,42.4,12.8,43.1z"/>
<path d="M78.6,35.4c1,1.4,0.6,2.7-0.4,3.9c-1-0.6-1.9-1.2-1.9-2.7c0.4,0.1,0.8,0.3,1.3,0.4C78,36.6,78.3,36,78.6,35.4z M78.2,38.6
	c0.8-1,0.8-1.4,0.3-2.3C77.9,37,77.6,37.8,78.2,38.6z M76.7,37.3c0.1,0.9,0.3,1.1,1.1,1.3C77.6,38,77.6,37.3,76.7,37.3z"/>
<path d="M23.9,36.7c0,1.4-0.9,2-1.9,2.6c-0.9-1.2-1.4-2.4-0.4-3.9c0.3,0.5,0.7,1.1,1,1.7C23,37,23.4,36.9,23.9,36.7z M21.7,36.3
	c-0.5,0.9-0.2,1.6,0.4,2.3C22.7,37.7,22.3,37,21.7,36.3z M23.8,37.3c-1.1,0.1-1.1,0.2-1.2,1.4C23,38.3,23.3,37.9,23.8,37.3z"/>
<path d="M78.5,49.6c0.4,0.3,0.6,0.5,0.9,0.8c-0.3,0.4-0.5,0.8-0.8,1.2c0,0-0.1,0-0.1-0.1C78.5,50.9,78.5,50.3,78.5,49.6z"/>
<path d="M20.8,50.4c0.3-0.2,0.5-0.4,0.8-0.6c0,0,0.1-0.1,0.2-0.1c0,0.1,0.1,0.1,0.1,0.2c0,0.5,0,1.1,0,1.6c-0.1,0-0.1,0-0.2,0.1
	C21.4,51.2,21.1,50.9,20.8,50.4z"/>
<path d="M61.1,76.3c-0.1,1.1-0.2,2-0.3,2.9c0.6,0.3,0.7,0.6,0.2,1.1c-0.2,0.2-0.2,0.6-0.4,0.9c-0.2,0-0.4-0.1-0.7-0.1
	c0-0.4,0-0.7,0-1.1c-0.5,0-1-0.1-1.4-0.1c-0.6,0-0.8-0.5-0.5-0.9c0.7-0.9,1.3-1.7,2.1-2.5C60.3,76.3,60.8,76.3,61.1,76.3z
	 M59.1,79.1c0.5,0,0.8,0.1,1.2,0.1c0-0.5-0.1-0.9-0.1-1.4C59.7,78.3,59.4,78.6,59.1,79.1z"/>
<path d="M40.3,81.2c0-0.5,0-0.7-0.1-0.8c0.4-0.2,0.8-0.4,1.2-0.7c-0.4-0.3-0.7-0.5-1-0.7c-0.5-0.5-0.6-1.2-0.2-1.9
	c0.3-0.6,0.8-0.9,1.5-0.8c0.7,0.1,1.1,0.5,1.3,1.2c0.2,0.9,0,1.7-0.7,2.3C41.8,80.3,41.1,80.7,40.3,81.2z M40.8,77.7
	c0,0.1,0,0.2,0,0.3c0.3,0.2,0.6,0.6,0.9,0.6c0.5,0.1,0.8-0.3,0.7-0.8c-0.1-0.3-0.4-0.7-0.7-0.7C41.4,77.1,41.1,77.5,40.8,77.7z"/>
<path d="M55,80.4c-0.3-1.1,1-0.6,1.1-1.3c-0.1-0.1-0.3-0.2-0.4-0.3c-0.6-0.5-0.8-1.3-0.4-1.9c0.3-0.6,1-0.9,1.6-0.8
	c0.7,0.2,1.1,0.7,1.1,1.6c0,1.1-0.7,1.8-1.6,2.3C55.8,80.2,55.4,80.3,55,80.4z M57.3,77.8c0-0.1,0-0.2,0-0.3
	c-0.3-0.2-0.6-0.5-0.8-0.5c-0.2,0-0.7,0.4-0.7,0.6c0,0.3,0.4,0.7,0.6,0.7C56.7,78.4,57,78,57.3,77.8z"/>
<path d="M46.3,78.4c-0.4-0.6-0.7-1.1-1.1-1.6c0.2-0.2,0.4-0.3,0.6-0.5c0.3,0.4,0.6,0.8,1,1.3c0.4-0.4,0.7-0.9,1-1.3
	c0.2,0.1,0.4,0.2,0.7,0.4c-0.4,0.6-0.8,1.1-1.2,1.7c0.5,0.6,0.9,1.1,1.4,1.7c-0.2,0.2-0.4,0.3-0.6,0.4c-0.4-0.5-0.8-1-1.2-1.5
	c-0.5,0.6-1,1.1-1.5,1.7c-0.2-0.2-0.4-0.3-0.6-0.5C45.3,79.6,45.8,79,46.3,78.4z"/>
<path d="M37.2,78.5c-0.2-0.1-0.3-0.3-0.5-0.4c0.1-0.2,0.2-0.3,0.4-0.5c0.5-0.6,1.1-0.7,1.7-0.4c0.6,0.3,0.8,1,0.5,1.7
	c-0.1,0.2-0.2,0.5-0.3,0.7c-0.1,0.2-0.2,0.5-0.4,0.8c0.4-0.1,0.6-0.1,0.9-0.1c0.1,0.7-0.3,0.9-2.2,1.2c0.3-0.6,0.6-1.2,0.9-1.8
	c0.1-0.2,0.2-0.3,0.3-0.5c0.2-0.4,0.4-1-0.1-1.2c-0.2-0.1-0.7,0.2-1.1,0.4C37.2,78.3,37.2,78.4,37.2,78.5z"/>
<path d="M62.3,76.8c1.5-0.1,1.9,0.6,1.4,1.9c-0.1,0.2-0.1,0.4,0,0.6c0.1,0.6,0.1,1.2-0.5,1.5c-0.6,0.4-1.1,0.1-1.7-0.5
	c0.3-0.1,0.5-0.3,0.7-0.3c0.3,0,0.7,0.2,0.8-0.2c0-0.2-0.4-0.4-0.6-0.7c0,0-0.1-0.1-0.2-0.1c0-0.2,0-0.4,0-0.6
	c0.4-0.1,1.1,0.2,0.9-0.6c0-0.2-0.5-0.3-0.9-0.5C62.3,77.3,62.3,77,62.3,76.8z"/>
<path d="M53.5,77.4c-0.2,0.2-0.4,0.2-0.6,0.4c-0.1-0.1-0.3-0.3-0.5-0.5c0.7-0.3,0.8-1.4,1.8-1c0,1.4,0,2.7,0,4c-0.3,0-0.6,0-0.9,0
	C53.4,79.3,53.4,78.4,53.5,77.4z"/>
<path d="M49.9,80.1c-0.2,0-0.5,0-0.7,0c0-1.2,0-2.3,0-3.5c0-0.1,0.3-0.3,0.7-0.5C49.9,77.6,49.9,78.8,49.9,80.1z"/>
<path d="M52.3,77.9c-0.4,0.2-0.6,0.5-0.8,0.5c-0.2-0.1-0.4-0.4-0.6-0.6c0.2-0.2,0.4-0.5,0.6-0.5C51.7,77.3,51.9,77.6,52.3,77.9z"/>
<path d="M44.5,77.4c0.2,0.4,0.5,0.6,0.5,0.8c0,0.2-0.3,0.4-0.5,0.5c-0.2-0.2-0.5-0.4-0.5-0.6C43.9,78,44.2,77.8,44.5,77.4z"/>
<path d="M49.5,51.1c1.5-1.7,2.3-3.6,1.8-6.1C52.5,47.2,51.8,49.5,49.5,51.1z"/>
<path d="M13.8,61.8c0.4-0.6,0.8-1.2,1.3-1.9c0.2,0.6,0.6,1.1,0.4,1.4c-0.3,0.6-0.8,1.3-1.3,1.5c-0.4,0.2-1.1-0.4-1.5-0.7
	c-0.3-0.3-0.3-0.8-0.5-1.5C12.8,61.2,13.3,61.5,13.8,61.8z"/>
<path d="M59,59c1.7-2.6,2.6-5.4,2.5-8.5C62.5,53.4,60.6,57.8,59,59z"/>
<path d="M85.1,60c0.5,0.7,0.9,1.2,1.3,1.8c0.5-0.3,1-0.7,1.5-1c-0.1,1.4-0.5,2-1.6,2.2c-0.8,0.1-1-0.8-1.5-1.3
	C84.3,61.1,85,60.7,85.1,60z"/>
<path d="M54.1,15.8c-1.3-0.8-2.4-1.4-3.5-2.2c-0.4-0.2-0.7-0.3-1,0c-1.2,0.7-2.3,1.3-3.6,2.1c0.3-1.4,0.6-2.7,1-4
	c0.1-0.5,0-0.8-0.3-1.1c-1-0.8-1.9-1.7-3-2.6c1.4-0.2,2.6-0.4,3.8-0.6c0.4-0.1,0.7-0.2,0.9-0.6c0.6-1.3,1.2-2.5,1.9-3.9
	c0.6,1.3,1.2,2.5,1.6,3.7c0.3,0.7,0.7,0.9,1.4,1c1.2,0.1,2.3,0.2,3.7,0.4c-0.8,0.7-1.4,1.3-2.1,1.8c-1.4,0.8-1.7,1.9-1.1,3.4
	C53.8,14,53.9,14.9,54.1,15.8z"/>
</svg>
