<?xml version="1.0" encoding="utf-8" ?>
<svg baseProfile="full" height="100px" version="1.1" width="150px" xmlns="http://www.w3.org/2000/svg"
     xmlns:ev="http://www.w3.org/2001/xml-events" xmlns:xlink="http://www.w3.org/1999/xlink">
    <defs>
        <clipPath id="mask0">
            <rect height="100" width="150" x="0" y="0"/>
        </clipPath>
    </defs>
    <g clip-path="url(#mask0)">
        <rect fill="#ffffff" height="100" stroke="none" width="150" x="0" y="0"/>
        <path d="M75.0,11.353391119616402 L138.35162151159216,50.0 L75.0,88.6466088803836 L11.648378488407838,50.0 z"
              fill="#cc3333" stroke="none"/>
    </g>
    <g transform="translate(56.75243520840628, 31.75243520840628) scale(0.3649512958318744) rotate(0, 50.0, 50.0)">
        <path d="M 98.5,46.4 C 97.5,45.5 96.2,44.9 94.9,44.9 C 93.60000000000001,44.9 92.2,45.5 91.30000000000001,46.4 C 91.20000000000002,46.5 91.10000000000001,46.699999999999996 90.9,46.8 C 90.2,37.9 86.7,29.799999999999997 81.2,23.4 C 81.4,23.4 81.60000000000001,23.5 81.8,23.5 C 83.1,23.5 84.5,22.9 85.39999999999999,22.0 C 86.3,21.0 86.89999999999999,19.7 86.89999999999999,18.4 C 86.89999999999999,17.099999999999998 86.3,15.7 85.39999999999999,14.799999999999999 C 84.39999999999999,13.899999999999999 83.1,13.299999999999999 81.8,13.299999999999999 C 80.5,13.299999999999999 79.1,13.899999999999999 78.2,14.799999999999999 C 77.3,15.799999999999999 76.7,17.099999999999998 76.7,18.4 C 76.7,18.599999999999998 76.7,18.799999999999997 76.8,19.0 C 70.39999999999999,13.5 62.199999999999996,9.9 53.3,9.2 C 53.4,9.1 53.599999999999994,9.0 53.699999999999996,8.799999999999999 C 54.599999999999994,7.799999999999999 55.199999999999996,6.499999999999999 55.199999999999996,5.199999999999999 C 55.199999999999996,3.8999999999999995 54.599999999999994,2.499999999999999 53.699999999999996,1.5999999999999992 C 52.7,0.6 51.3,0.0 50.0,0.0 C 48.7,0.0 47.3,0.6 46.4,1.5 C 45.5,2.5 44.9,3.8 44.9,5.1 C 44.9,6.3999999999999995 45.5,7.8 46.4,8.7 C 46.5,8.799999999999999 46.699999999999996,8.899999999999999 46.8,9.1 C 37.9,9.799999999999999 29.799999999999997,13.3 23.4,18.799999999999997 C 23.4,18.599999999999998 23.4,18.499999999999996 23.4,18.299999999999997 C 23.4,16.999999999999996 22.799999999999997,15.599999999999998 21.9,14.699999999999998 C 20.9,13.799999999999997 19.599999999999998,13.199999999999998 18.299999999999997,13.199999999999998 C 16.999999999999996,13.199999999999998 15.599999999999998,13.799999999999997 14.699999999999998,14.699999999999998 C 13.799999999999997,15.699999999999998 13.199999999999998,16.999999999999996 13.199999999999998,18.299999999999997 C 13.199999999999998,19.599999999999998 13.799999999999997,20.999999999999996 14.699999999999998,21.9 C 15.699999999999998,22.799999999999997 16.999999999999996,23.4 18.299999999999997,23.4 C 18.499999999999996,23.4 18.599999999999998,23.4 18.799999999999997,23.4 C 13.299999999999997,29.799999999999997 9.799999999999997,37.9 9.099999999999998,46.8 C 8.999999999999998,46.699999999999996 8.899999999999999,46.5 8.699999999999998,46.4 C 7.6999999999999975,45.5 6.399999999999998,44.9 5.099999999999998,44.9 C 3.799999999999998,44.9 2.3999999999999977,45.5 1.4999999999999978,46.4 C 0.6,47.3 0.0,48.7 0.0,50.0 C 0.0,51.3 0.6,52.7 1.5,53.6 C 2.5,54.5 3.8,55.1 5.1,55.1 C 6.3999999999999995,55.1 7.8,54.5 8.7,53.6 C 8.799999999999999,53.5 8.899999999999999,53.300000000000004 9.1,53.2 C 9.799999999999999,62.2 13.399999999999999,70.30000000000001 18.9,76.7 C 18.7,76.7 18.5,76.60000000000001 18.299999999999997,76.60000000000001 C 16.999999999999996,76.60000000000001 15.599999999999998,77.2 14.699999999999998,78.10000000000001 C 13.799999999999997,79.10000000000001 13.199999999999998,80.4 13.199999999999998,81.7 C 13.199999999999998,83.0 13.799999999999997,84.4 14.699999999999998,85.3 C 15.699999999999998,86.2 16.999999999999996,86.8 18.299999999999997,86.8 C 19.599999999999998,86.8 20.999999999999996,86.2 21.9,85.3 C 22.799999999999997,84.3 23.4,83.0 23.4,81.7 C 23.4,81.5 23.4,81.3 23.299999999999997,81.10000000000001 C 29.699999999999996,86.60000000000001 37.8,90.10000000000001 46.699999999999996,90.80000000000001 C 46.599999999999994,90.9 46.4,91.00000000000001 46.3,91.20000000000002 C 45.4,92.10000000000002 44.8,93.50000000000001 44.8,94.80000000000001 C 44.8,96.10000000000001 45.4,97.50000000000001 46.3,98.4 C 47.3,99.30000000000001 48.599999999999994,99.9 49.9,99.9 C 51.199999999999996,99.9 52.6,99.30000000000001 53.5,98.4 C 54.4,97.4 55.0,96.10000000000001 55.0,94.80000000000001 C 55.0,93.50000000000001 54.4,92.10000000000001 53.5,91.20000000000002 C 53.4,91.10000000000002 53.2,91.00000000000001 53.1,90.80000000000001 C 62.1,90.10000000000001 70.2,86.50000000000001 76.6,81.00000000000001 C 76.6,81.20000000000002 76.5,81.50000000000001 76.5,81.70000000000002 C 76.5,83.00000000000001 77.1,84.40000000000002 78.0,85.30000000000001 C 79.0,86.20000000000002 80.3,86.80000000000001 81.6,86.80000000000001 C 82.89999999999999,86.80000000000001 84.3,86.20000000000002 85.19999999999999,85.30000000000001 C 86.1,84.30000000000001 86.69999999999999,83.00000000000001 86.69999999999999,81.70000000000002 C 86.69999999999999,80.40000000000002 86.1,79.00000000000001 85.19999999999999,78.10000000000002 C 84.19999999999999,77.20000000000002 82.89999999999999,76.60000000000002 81.6,76.60000000000002 C 81.39999999999999,76.60000000000002 81.1,76.60000000000002 80.89999999999999,76.70000000000002 C 86.39999999999999,70.30000000000001 89.99999999999999,62.100000000000016 90.69999999999999,53.20000000000002 C 90.79999999999998,53.30000000000002 90.89999999999999,53.500000000000014 91.1,53.600000000000016 C 92.0,54.500000000000014 93.39999999999999,55.100000000000016 94.69999999999999,55.100000000000016 C 95.99999999999999,55.100000000000016 97.39999999999999,54.500000000000014 98.29999999999998,53.600000000000016 C 99.19999999999999,52.600000000000016 99.79999999999998,51.30000000000002 99.79999999999998,50.000000000000014 C 100.0,48.7 99.4,47.3 98.5,46.4 M 50.0,56.3 C 46.5,56.3 43.7,53.5 43.7,50.0 C 43.7,46.5 46.5,43.7 50.0,43.7 C 53.5,43.7 56.3,46.5 56.3,50.0 C 56.3,53.5 53.5,56.3 50.0,56.3 M 56.7,36.2 C 56.0,36.900000000000006 55.6,37.7 55.400000000000006,38.5 C 55.10000000000001,38.4 54.900000000000006,38.3 54.60000000000001,38.2 C 54.900000000000006,37.5 55.20000000000001,36.7 55.20000000000001,35.900000000000006 C 55.20000000000001,34.50000000000001 54.70000000000001,33.300000000000004 53.80000000000001,32.400000000000006 C 54.70000000000001,31.500000000000007 55.20000000000001,30.200000000000006 55.20000000000001,28.900000000000006 C 55.20000000000001,27.500000000000007 54.70000000000001,26.300000000000004 53.80000000000001,25.400000000000006 C 54.70000000000001,24.500000000000007 55.20000000000001,23.200000000000006 55.20000000000001,21.900000000000006 C 55.20000000000001,21.100000000000005 55.00000000000001,20.400000000000006 54.70000000000001,19.700000000000006 C 59.70000000000001,20.500000000000007 64.30000000000001,22.400000000000006 68.30000000000001,25.300000000000004 C 67.70000000000002,25.500000000000004 67.20000000000002,25.900000000000006 66.80000000000001,26.300000000000004 C 65.80000000000001,27.300000000000004 65.30000000000001,28.500000000000004 65.30000000000001,29.800000000000004 C 64.00000000000001,29.800000000000004 62.80000000000001,30.300000000000004 61.80000000000001,31.300000000000004 C 60.80000000000001,32.300000000000004 60.30000000000001,33.50000000000001 60.30000000000001,34.800000000000004 C 58.9,34.8 57.6,35.3 56.7,36.2 M 46.3,25.3 C 45.4,26.2 44.9,27.5 44.9,28.8 C 44.9,30.2 45.4,31.400000000000002 46.3,32.3 C 45.4,33.199999999999996 44.9,34.5 44.9,35.8 C 44.9,36.599999999999994 45.1,37.4 45.5,38.099999999999994 C 45.3,38.199999999999996 45.1,38.3 44.8,38.39999999999999 C 44.599999999999994,37.599999999999994 44.199999999999996,36.79999999999999 43.5,36.19999999999999 C 42.5,35.19999999999999 41.3,34.69999999999999 40.0,34.69999999999999 C 40.0,33.39999999999999 39.5,32.19999999999999 38.5,31.19999999999999 C 37.5,30.19999999999999 36.3,29.69999999999999 35.0,29.69999999999999 C 35.0,28.399999999999988 34.5,27.19999999999999 33.5,26.19999999999999 C 33.0,25.69999999999999 32.5,25.399999999999988 31.9,25.099999999999987 C 35.8,22.19999999999999 40.4,20.299999999999986 45.4,19.499999999999986 C 45.1,20.199999999999985 44.9,20.899999999999984 44.9,21.699999999999985 C 44.9,23.2 45.4,24.4 46.3,25.3 M 26.2,33.5 C 27.2,34.5 28.4,35.0 29.7,35.0 C 29.7,36.3 30.2,37.5 31.2,38.5 C 32.2,39.5 33.4,40.0 34.7,40.0 C 34.7,41.3 35.2,42.5 36.2,43.5 C 36.800000000000004,44.1 37.6,44.6 38.400000000000006,44.8 C 38.300000000000004,45.0 38.2,45.199999999999996 38.10000000000001,45.5 C 37.400000000000006,45.2 36.60000000000001,44.9 35.80000000000001,44.9 C 34.40000000000001,44.9 33.20000000000001,45.4 32.30000000000001,46.3 C 31.400000000000013,45.4 30.100000000000012,44.9 28.80000000000001,44.9 C 27.400000000000013,44.9 26.20000000000001,45.4 25.30000000000001,46.3 C 24.400000000000013,45.4 23.100000000000012,44.9 21.80000000000001,44.9 C 21.00000000000001,44.9 20.30000000000001,45.1 19.600000000000012,45.4 C 20.400000000000013,40.4 22.30000000000001,35.8 25.20000000000001,31.9 C 25.4,32.5 25.8,33.0 26.2,33.5 M 21.8,55.1 C 23.2,55.1 24.400000000000002,54.6 25.3,53.7 C 26.2,54.6 27.5,55.1 28.8,55.1 C 30.2,55.1 31.400000000000002,54.6 32.3,53.7 C 33.199999999999996,54.6 34.5,55.1 35.8,55.1 C 36.599999999999994,55.1 37.4,54.9 38.099999999999994,54.5 C 38.199999999999996,54.7 38.3,54.9 38.39999999999999,55.1 C 37.69999999999999,55.300000000000004 36.99999999999999,55.7 36.49999999999999,56.300000000000004 C 35.49999999999999,57.300000000000004 34.99999999999999,58.50000000000001 34.99999999999999,59.800000000000004 C 33.699999999999996,59.800000000000004 32.49999999999999,60.300000000000004 31.499999999999993,61.300000000000004 C 30.499999999999993,62.300000000000004 29.999999999999993,63.50000000000001 29.999999999999993,64.80000000000001 C 28.699999999999992,64.80000000000001 27.499999999999993,65.30000000000001 26.499999999999993,66.30000000000001 C 25.89999999999999,66.9 25.499999999999993,67.60000000000001 25.299999999999994,68.30000000000001 C 22.399999999999995,64.30000000000001 20.299999999999994,59.70000000000001 19.599999999999994,54.60000000000001 C 20.3,54.9 21.0,55.1 21.8,55.1 M 33.8,73.6 C 34.8,72.6 35.3,71.39999999999999 35.3,70.1 C 36.599999999999994,70.1 37.8,69.6 38.8,68.6 C 39.8,67.6 40.3,66.39999999999999 40.3,65.1 C 41.599999999999994,65.1 42.8,64.6 43.8,63.599999999999994 C 44.4,62.99999999999999 44.8,62.3 45.0,61.599999999999994 C 45.2,61.699999999999996 45.3,61.699999999999996 45.5,61.8 C 45.2,62.5 44.9,63.3 44.9,64.1 C 44.9,65.5 45.4,66.69999999999999 46.3,67.6 C 45.4,68.5 44.9,69.8 44.9,71.1 C 44.9,72.5 45.4,73.69999999999999 46.3,74.6 C 45.4,75.5 44.9,76.8 44.9,78.1 C 44.9,78.89999999999999 45.1,79.6 45.4,80.3 C 40.4,79.5 35.8,77.6 31.799999999999997,74.7 C 32.5,74.6 33.2,74.2 33.8,73.6 M 53.7,74.7 C 54.6,73.8 55.1,72.5 55.1,71.2 C 55.1,69.8 54.6,68.60000000000001 53.7,67.7 C 54.6,66.8 55.1,65.5 55.1,64.2 C 55.1,63.400000000000006 54.9,62.6 54.5,61.900000000000006 C 54.7,61.800000000000004 54.9,61.7 55.1,61.7 C 55.300000000000004,62.400000000000006 55.7,63.1 56.300000000000004,63.7 C 57.300000000000004,64.7 58.50000000000001,65.2 59.800000000000004,65.2 C 59.800000000000004,66.5 60.300000000000004,67.7 61.300000000000004,68.7 C 62.300000000000004,69.7 63.50000000000001,70.2 64.80000000000001,70.2 C 64.80000000000001,71.5 65.30000000000001,72.7 66.30000000000001,73.7 C 66.80000000000001,74.2 67.50000000000001,74.60000000000001 68.20000000000002,74.9 C 64.30000000000001,77.80000000000001 59.600000000000016,79.80000000000001 54.600000000000016,80.5 C 54.90000000000001,79.8 55.100000000000016,79.1 55.100000000000016,78.3 C 55.1,76.8 54.6,75.6 53.7,74.7 M 73.6,66.3 C 72.6,65.3 71.39999999999999,64.8 70.1,64.8 C 70.1,63.5 69.6,62.3 68.6,61.3 C 67.6,60.3 66.39999999999999,59.8 65.1,59.8 C 65.1,58.5 64.6,57.3 63.599999999999994,56.3 C 62.99999999999999,55.699999999999996 62.3,55.3 61.599999999999994,55.099999999999994 C 61.699999999999996,54.89999999999999 61.8,54.699999999999996 61.8,54.49999999999999 C 62.5,54.79999999999999 63.3,55.099999999999994 64.1,55.099999999999994 C 65.5,55.099999999999994 66.69999999999999,54.599999999999994 67.6,53.699999999999996 C 68.5,54.599999999999994 69.8,55.099999999999994 71.1,55.099999999999994 C 72.5,55.099999999999994 73.69999999999999,54.599999999999994 74.6,53.699999999999996 C 75.5,54.599999999999994 76.8,55.099999999999994 78.1,55.099999999999994 C 78.89999999999999,55.099999999999994 79.6,54.89999999999999 80.3,54.599999999999994 C 79.5,59.599999999999994 77.6,64.3 74.7,68.19999999999999 C 74.5,67.5 74.1,66.9 73.6,66.3 M 78.2,44.9 C 76.8,44.9 75.60000000000001,45.4 74.7,46.3 C 73.8,45.4 72.5,44.9 71.2,44.9 C 69.8,44.9 68.60000000000001,45.4 67.7,46.3 C 66.8,45.4 65.5,44.9 64.2,44.9 C 63.400000000000006,44.9 62.6,45.1 61.900000000000006,45.5 C 61.800000000000004,45.3 61.7,45.1 61.60000000000001,44.9 C 62.50000000000001,44.699999999999996 63.30000000000001,44.3 63.900000000000006,43.6 C 64.9,42.6 65.4,41.4 65.4,40.1 C 66.7,40.1 67.9,39.6 68.9,38.6 C 69.9,37.6 70.4,36.4 70.4,35.1 C 71.7,35.1 72.9,34.6 73.9,33.6 C 74.4,33.1 74.7,32.6 74.9,32.1 C 77.7,36.0 79.7,40.6 80.4,45.5 C 79.7,45.1 79.0,44.9 78.2,44.9"
              fill="#fcdc04" stroke="none" stroke-width="2.0"/>
    </g>
</svg>