<?xml version="1.0" encoding="utf-8" ?>
<svg baseProfile="full" height="100px" version="1.1" width="150px" xmlns="http://www.w3.org/2000/svg" xmlns:ev="http://www.w3.org/2001/xml-events" xmlns:xlink="http://www.w3.org/1999/xlink"><defs><clipPath id="mask0"><rect height="100" width="150" x="0" y="0" /></clipPath></defs><g clip-path="url(#mask0)"><rect fill="#c42b70" height="100" stroke="none" width="150" x="0" y="0" /></g><g transform="translate(42.580150124042085, 17.580150124042085) scale(0.6483969975191584) rotate(0, 50.0, 50.0)"><path d="M 84.2,97.5 C 77.9,97.5 71.7,97.5 65.4,97.5 C 64.60000000000001,97.5 63.900000000000006,97.7 63.7,96.4 C 63.0,91.9 62.2,87.5 61.300000000000004,83.10000000000001 C 60.300000000000004,78.10000000000001 59.900000000000006,72.9 57.800000000000004,68.2 C 55.900000000000006,63.900000000000006 54.2,59.5 52.400000000000006,55.0 C 52.10000000000001,54.2 51.900000000000006,53.4 51.900000000000006,52.6 C 52.00000000000001,44.0 52.10000000000001,35.400000000000006 52.10000000000001,26.900000000000002 C 52.10000000000001,22.800000000000004 49.80000000000001,19.700000000000003 46.10000000000001,18.700000000000003 C 42.400000000000006,17.700000000000003 38.900000000000006,19.1 36.900000000000006,22.6 C 34.2,27.1 31.500000000000007,31.700000000000003 28.700000000000006,36.2 C 27.300000000000008,38.400000000000006 27.500000000000007,40.300000000000004 29.100000000000005,42.2 C 31.600000000000005,45.2 33.900000000000006,48.300000000000004 36.300000000000004,51.400000000000006 C 36.00000000000001,51.50000000000001 35.7,51.60000000000001 35.7,51.7 C 36.6,66.8 37.5,82.0 38.5,97.5 C 28.2,97.5 18.2,97.5 8.100000000000001,97.5 C 8.100000000000001,98.5 8.100000000000001,99.2 8.100000000000001,100.0 C 36.0,100.0 63.800000000000004,100.0 91.6,100.0 C 91.6,99.1 91.6,98.4 91.6,97.5 C 89.2,97.5 86.7,97.5 84.2,97.5 M 38.4,40.7 C 37.0,39.2 37.0,38.0 38.1,36.4 C 39.6,34.199999999999996 40.9,31.9 42.300000000000004,29.599999999999998 C 42.400000000000006,29.599999999999998 42.50000000000001,29.7 42.6,29.7 C 41.5,32.0 40.4,34.4 39.2,36.6 C 38.400000000000006,37.9 38.6,38.9 39.5,40.1 C 41.2,42.5 42.8,45.0 44.1,47.6 C 42.2,45.4 40.4,42.9 38.4,40.7 M 48.2,97.4 C 47.900000000000006,97.4 47.400000000000006,96.5 47.400000000000006,96.10000000000001 C 47.400000000000006,91.7 47.400000000000006,87.30000000000001 47.400000000000006,82.9 C 47.400000000000006,79.10000000000001 47.400000000000006,75.4 47.400000000000006,71.60000000000001 C 47.400000000000006,71.30000000000001 47.400000000000006,71.10000000000001 47.7,70.7 C 51.400000000000006,79.2 52.6,88.4 55.300000000000004,97.4 C 52.6,97.4 50.4,97.5 48.2,97.4" fill="#ffce00" stroke="#000000" stroke-width="3.0px" /><path d="M 55.7,19.3 C 61.1,19.3 65.4,15.0 65.3,9.600000000000001 C 65.4,4.3 61.0,0.0 55.7,0.0 C 50.5,0.0 46.1,4.4 46.1,9.6 C 46.0,15.0 50.4,19.3 55.7,19.3" fill="#ffce00" stroke="#000000" stroke-width="3.0px" /></g></svg>