<?xml version="1.0" encoding="utf-8" ?>
<svg baseProfile="full" height="100px" version="1.1" width="150px" xmlns="http://www.w3.org/2000/svg" xmlns:ev="http://www.w3.org/2001/xml-events" xmlns:xlink="http://www.w3.org/1999/xlink"><defs><clipPath id="mask0"><rect height="100" width="150" x="0" y="0" /></clipPath></defs><g clip-path="url(#mask0)"><rect fill="#003897" height="100" stroke="none" width="150" x="0" y="0" /><rect fill="#ff0000" height="50.0" stroke="none" width="75.0" x="0" y="50.0" /><rect fill="#ff0000" height="50.0" stroke="none" width="75.0" x="75.0" y="0" /></g><g transform="translate(23.356231448328757, 10.856231448328757) scale(0.28287537103342486) rotate(0, 50.0, 50.0)"><path d="M 70.7,33.2 C 72.7,32.900000000000006 74.7,32.5 76.8,32.7 C 78.3,32.7 79.7,32.6 81.1,33.0 C 85.39999999999999,36.0 90.8,32.0 90.39999999999999,27.1 C 89.39999999999999,23.6 84.99999999999999,21.0 81.49999999999999,22.5 C 79.29999999999998,23.3 78.59999999999998,24.7 81.49999999999999,24.8 C 85.19999999999999,27.2 80.99999999999999,32.2 77.59999999999998,30.0 C 73.89999999999998,27.7 74.09999999999998,21.7 78.29999999999998,20.2 C 71.69999999999999,18.3 76.09999999999998,6.5 82.09999999999998,11.1 C 82.99999999999999,11.799999999999999 82.89999999999998,13.0 82.79999999999998,14.0 C 82.19999999999999,15.6 80.39999999999998,15.8 79.09999999999998,16.2 C 81.79999999999998,19.9 87.99999999999999,18.4 89.69999999999997,14.5 C 92.19999999999997,7.5 83.79999999999997,4.800000000000001 78.59999999999998,7.6 C 77.49999999999999,8.0 75.39999999999998,8.0 74.29999999999998,7.6 C 72.99999999999999,7.5 71.79999999999998,7.3 70.59999999999998,7.1 C 70.29999999999998,7.199999999999999 69.79999999999998,6.8999999999999995 69.79999999999998,7.3999999999999995 L 69.79999999999998,33.0 C 69.9,33.4 70.4,33.2 70.7,33.2" fill="#ffce00" stroke="none" stroke-width="2.0px" /><path d="M 18.9,32.9 C 20.2,32.6 21.7,32.6 23.2,32.6 C 25.3,32.5 27.299999999999997,32.800000000000004 29.299999999999997,33.1 C 29.599999999999998,33.0 30.099999999999998,33.300000000000004 30.099999999999998,32.800000000000004 L 30.099999999999998,7.3 C 30.099999999999998,6.8999999999999995 29.599999999999998,7.1 29.299999999999997,7.0 C 28.099999999999998,7.3 26.799999999999997,7.5 25.599999999999998,7.5 C 24.499999999999996,7.9 22.4,7.9 21.299999999999997,7.5 L 21.299999999999997,7.5 C 16.099999999999998,4.6 7.6999999999999975,7.4 10.199999999999998,14.4 C 11.899999999999997,18.3 18.099999999999998,19.8 20.799999999999997,16.1 C 19.599999999999998,15.700000000000001 17.699999999999996,15.500000000000002 17.099999999999998,13.900000000000002 C 16.9,12.900000000000002 16.9,11.700000000000003 17.799999999999997,11.000000000000002 C 23.799999999999997,6.400000000000002 28.199999999999996,18.3 21.599999999999998,20.1 C 25.9,21.6 26.099999999999998,27.6 22.299999999999997,29.900000000000002 C 18.9,32.1 14.799999999999997,27.1 18.4,24.700000000000003 C 21.299999999999997,24.6 20.599999999999998,23.200000000000003 18.4,22.400000000000002 C 14.899999999999999,20.900000000000002 10.599999999999998,23.500000000000004 9.499999999999998,27.0 C 9.2,32.0 14.6,35.9 18.9,32.9" fill="#ffce00" stroke="none" stroke-width="2.0px" /><path d="M 81.6,82.5 C 79.39999999999999,83.3 78.69999999999999,84.7 81.6,84.8 C 85.3,87.2 81.1,92.2 77.69999999999999,90.0 C 73.99999999999999,87.7 74.19999999999999,81.7 78.39999999999999,80.2 C 71.8,78.3 76.19999999999999,66.5 82.19999999999999,71.10000000000001 C 83.1,71.80000000000001 82.99999999999999,73.00000000000001 82.89999999999999,74.00000000000001 C 82.3,75.60000000000001 80.49999999999999,75.80000000000001 79.19999999999999,76.20000000000002 C 81.89999999999999,79.90000000000002 88.1,78.40000000000002 89.79999999999998,74.50000000000001 C 92.29999999999998,67.50000000000001 83.89999999999998,64.80000000000001 78.69999999999999,67.60000000000001 C 77.6,68.00000000000001 75.49999999999999,68.00000000000001 74.39999999999999,67.60000000000001 C 73.1,67.50000000000001 71.89999999999999,67.30000000000001 70.69999999999999,67.10000000000001 C 70.39999999999999,67.2 69.89999999999999,66.9 69.89999999999999,67.4 L 69.89999999999999,93.0 C 69.89999999999999,93.4 70.39999999999999,93.2 70.69999999999999,93.3 C 72.69999999999999,93.0 74.69999999999999,92.6 76.79999999999998,92.8 C 78.29999999999998,92.8 79.69999999999999,92.7 81.09999999999998,93.1 C 85.39999999999998,96.1 90.79999999999998,92.1 90.39999999999998,87.19999999999999 C 89.4,83.5 85.1,81.0 81.6,82.5" fill="#ffce00" stroke="none" stroke-width="2.0px" /><path d="M 29.3,67.1 C 28.1,67.39999999999999 26.8,67.6 25.6,67.6 C 24.5,68.0 22.400000000000002,68.0 21.3,67.6 L 21.3,67.6 C 16.1,64.69999999999999 7.700000000000001,67.5 10.200000000000001,74.5 C 11.9,78.4 18.1,79.9 20.8,76.2 C 19.6,75.8 17.7,75.60000000000001 17.1,74.0 C 16.900000000000002,73.0 16.900000000000002,71.8 17.8,71.1 C 23.8,66.5 28.200000000000003,78.39999999999999 21.6,80.19999999999999 C 25.900000000000002,81.69999999999999 26.1,87.69999999999999 22.3,89.99999999999999 C 18.900000000000002,92.19999999999999 14.8,87.19999999999999 18.400000000000002,84.79999999999998 C 21.3,84.69999999999999 20.6,83.29999999999998 18.400000000000002,82.49999999999999 C 14.900000000000002,80.99999999999999 10.600000000000001,83.59999999999998 9.500000000000002,87.09999999999998 C 9.200000000000001,91.99999999999999 14.500000000000002,95.89999999999998 18.800000000000004,92.99999999999999 C 20.100000000000005,92.69999999999999 21.600000000000005,92.69999999999999 23.100000000000005,92.69999999999999 C 25.200000000000006,92.6 27.200000000000003,92.89999999999999 29.200000000000003,93.19999999999999 C 29.500000000000004,93.1 30.000000000000004,93.39999999999999 30.000000000000004,92.89999999999999 L 30.000000000000004,67.3 C 30.1,66.9 29.6,67.1 29.3,67.1" fill="#ffce00" stroke="none" stroke-width="2.0px" /><path d="M 60.0,40.0 L 60.0,0.0 L 40.0,0.0 L 40.0,40.0 L 0.0,40.0 L 0.0,60.0 L 40.0,60.0 L 40.0,100.0 L 60.0,100.0 L 60.0,60.0 L 100.0,60.0 L 100.0,40.0 L 60.0,40.0" fill="#ffce00" stroke="none" stroke-width="2.0px" /></g><g transform="translate(98.35623144832876, 60.85623144832876) scale(0.28287537103342486) rotate(0, 50.0, 50.0)"><path d="M 70.7,33.2 C 72.7,32.900000000000006 74.7,32.5 76.8,32.7 C 78.3,32.7 79.7,32.6 81.1,33.0 C 85.39999999999999,36.0 90.8,32.0 90.39999999999999,27.1 C 89.39999999999999,23.6 84.99999999999999,21.0 81.49999999999999,22.5 C 79.29999999999998,23.3 78.59999999999998,24.7 81.49999999999999,24.8 C 85.19999999999999,27.2 80.99999999999999,32.2 77.59999999999998,30.0 C 73.89999999999998,27.7 74.09999999999998,21.7 78.29999999999998,20.2 C 71.69999999999999,18.3 76.09999999999998,6.5 82.09999999999998,11.1 C 82.99999999999999,11.799999999999999 82.89999999999998,13.0 82.79999999999998,14.0 C 82.19999999999999,15.6 80.39999999999998,15.8 79.09999999999998,16.2 C 81.79999999999998,19.9 87.99999999999999,18.4 89.69999999999997,14.5 C 92.19999999999997,7.5 83.79999999999997,4.800000000000001 78.59999999999998,7.6 C 77.49999999999999,8.0 75.39999999999998,8.0 74.29999999999998,7.6 C 72.99999999999999,7.5 71.79999999999998,7.3 70.59999999999998,7.1 C 70.29999999999998,7.199999999999999 69.79999999999998,6.8999999999999995 69.79999999999998,7.3999999999999995 L 69.79999999999998,33.0 C 69.9,33.4 70.4,33.2 70.7,33.2" fill="#ffce00" stroke="none" stroke-width="2.0px" /><path d="M 18.9,32.9 C 20.2,32.6 21.7,32.6 23.2,32.6 C 25.3,32.5 27.299999999999997,32.800000000000004 29.299999999999997,33.1 C 29.599999999999998,33.0 30.099999999999998,33.300000000000004 30.099999999999998,32.800000000000004 L 30.099999999999998,7.3 C 30.099999999999998,6.8999999999999995 29.599999999999998,7.1 29.299999999999997,7.0 C 28.099999999999998,7.3 26.799999999999997,7.5 25.599999999999998,7.5 C 24.499999999999996,7.9 22.4,7.9 21.299999999999997,7.5 L 21.299999999999997,7.5 C 16.099999999999998,4.6 7.6999999999999975,7.4 10.199999999999998,14.4 C 11.899999999999997,18.3 18.099999999999998,19.8 20.799999999999997,16.1 C 19.599999999999998,15.700000000000001 17.699999999999996,15.500000000000002 17.099999999999998,13.900000000000002 C 16.9,12.900000000000002 16.9,11.700000000000003 17.799999999999997,11.000000000000002 C 23.799999999999997,6.400000000000002 28.199999999999996,18.3 21.599999999999998,20.1 C 25.9,21.6 26.099999999999998,27.6 22.299999999999997,29.900000000000002 C 18.9,32.1 14.799999999999997,27.1 18.4,24.700000000000003 C 21.299999999999997,24.6 20.599999999999998,23.200000000000003 18.4,22.400000000000002 C 14.899999999999999,20.900000000000002 10.599999999999998,23.500000000000004 9.499999999999998,27.0 C 9.2,32.0 14.6,35.9 18.9,32.9" fill="#ffce00" stroke="none" stroke-width="2.0px" /><path d="M 81.6,82.5 C 79.39999999999999,83.3 78.69999999999999,84.7 81.6,84.8 C 85.3,87.2 81.1,92.2 77.69999999999999,90.0 C 73.99999999999999,87.7 74.19999999999999,81.7 78.39999999999999,80.2 C 71.8,78.3 76.19999999999999,66.5 82.19999999999999,71.10000000000001 C 83.1,71.80000000000001 82.99999999999999,73.00000000000001 82.89999999999999,74.00000000000001 C 82.3,75.60000000000001 80.49999999999999,75.80000000000001 79.19999999999999,76.20000000000002 C 81.89999999999999,79.90000000000002 88.1,78.40000000000002 89.79999999999998,74.50000000000001 C 92.29999999999998,67.50000000000001 83.89999999999998,64.80000000000001 78.69999999999999,67.60000000000001 C 77.6,68.00000000000001 75.49999999999999,68.00000000000001 74.39999999999999,67.60000000000001 C 73.1,67.50000000000001 71.89999999999999,67.30000000000001 70.69999999999999,67.10000000000001 C 70.39999999999999,67.2 69.89999999999999,66.9 69.89999999999999,67.4 L 69.89999999999999,93.0 C 69.89999999999999,93.4 70.39999999999999,93.2 70.69999999999999,93.3 C 72.69999999999999,93.0 74.69999999999999,92.6 76.79999999999998,92.8 C 78.29999999999998,92.8 79.69999999999999,92.7 81.09999999999998,93.1 C 85.39999999999998,96.1 90.79999999999998,92.1 90.39999999999998,87.19999999999999 C 89.4,83.5 85.1,81.0 81.6,82.5" fill="#ffce00" stroke="none" stroke-width="2.0px" /><path d="M 29.3,67.1 C 28.1,67.39999999999999 26.8,67.6 25.6,67.6 C 24.5,68.0 22.400000000000002,68.0 21.3,67.6 L 21.3,67.6 C 16.1,64.69999999999999 7.700000000000001,67.5 10.200000000000001,74.5 C 11.9,78.4 18.1,79.9 20.8,76.2 C 19.6,75.8 17.7,75.60000000000001 17.1,74.0 C 16.900000000000002,73.0 16.900000000000002,71.8 17.8,71.1 C 23.8,66.5 28.200000000000003,78.39999999999999 21.6,80.19999999999999 C 25.900000000000002,81.69999999999999 26.1,87.69999999999999 22.3,89.99999999999999 C 18.900000000000002,92.19999999999999 14.8,87.19999999999999 18.400000000000002,84.79999999999998 C 21.3,84.69999999999999 20.6,83.29999999999998 18.400000000000002,82.49999999999999 C 14.900000000000002,80.99999999999999 10.600000000000001,83.59999999999998 9.500000000000002,87.09999999999998 C 9.200000000000001,91.99999999999999 14.500000000000002,95.89999999999998 18.800000000000004,92.99999999999999 C 20.100000000000005,92.69999999999999 21.600000000000005,92.69999999999999 23.100000000000005,92.69999999999999 C 25.200000000000006,92.6 27.200000000000003,92.89999999999999 29.200000000000003,93.19999999999999 C 29.500000000000004,93.1 30.000000000000004,93.39999999999999 30.000000000000004,92.89999999999999 L 30.000000000000004,67.3 C 30.1,66.9 29.6,67.1 29.3,67.1" fill="#ffce00" stroke="none" stroke-width="2.0px" /><path d="M 60.0,40.0 L 60.0,0.0 L 40.0,0.0 L 40.0,40.0 L 0.0,40.0 L 0.0,60.0 L 40.0,60.0 L 40.0,100.0 L 60.0,100.0 L 60.0,60.0 L 100.0,60.0 L 100.0,40.0 L 60.0,40.0" fill="#ffce00" stroke="none" stroke-width="2.0px" /></g><g transform="translate(22.88383406826477, 60.38383406826477) scale(0.2923233186347047) rotate(0, 50.0, 50.0)"><path d="M 50.0,2.4 C 50.1,2.6999999999999997 50.2,3.0 50.3,3.4 C 54.099999999999994,15.1 57.8,26.799999999999997 61.599999999999994,38.4 C 61.699999999999996,38.699999999999996 61.8,38.699999999999996 62.099999999999994,38.699999999999996 C 66.39999999999999,38.699999999999996 70.69999999999999,38.699999999999996 75.0,38.699999999999996 C 83.2,38.699999999999996 91.4,38.699999999999996 99.6,38.599999999999994 C 99.69999999999999,38.599999999999994 99.8,38.599999999999994 100.1,38.599999999999994 C 100.0,38.699999999999996 99.89999999999999,38.8 99.8,38.8 C 89.7,46.099999999999994 79.6,53.4 69.5,60.699999999999996 C 69.2,60.9 69.2,61.099999999999994 69.3,61.4 C 73.2,73.2 77.0,85.1 80.89999999999999,96.9 C 80.89999999999999,97.0 80.99999999999999,97.10000000000001 80.99999999999999,97.30000000000001 C 80.59999999999998,97.00000000000001 80.29999999999998,96.80000000000001 79.99999999999999,96.60000000000001 C 70.19999999999999,89.4 60.29999999999998,82.2 50.499999999999986,75.0 C 50.19999999999999,74.8 49.999999999999986,74.8 49.69999999999999,75.0 C 39.69999999999999,82.3 29.599999999999987,89.7 19.49999999999999,97.0 C 19.399999999999988,97.1 19.29999999999999,97.1 19.19999999999999,97.2 C 19.29999999999999,97.0 19.29999999999999,96.9 19.29999999999999,96.7 C 22.79999999999999,86.10000000000001 26.19999999999999,75.5 29.69999999999999,64.80000000000001 C 30.099999999999987,63.500000000000014 30.49999999999999,62.30000000000001 30.899999999999988,61.000000000000014 C 30.99999999999999,60.80000000000001 30.899999999999988,60.70000000000002 30.69999999999999,60.500000000000014 C 20.6,53.7 10.6,46.4 0.5,39.1 C 0.3,39.0 0.2,38.9 0.0,38.7 C 0.2,38.7 0.3,38.7 0.4,38.7 C 8.4,38.7 16.4,38.7 24.4,38.7 C 28.9,38.7 33.4,38.7 37.8,38.7 C 38.099999999999994,38.7 38.3,38.6 38.4,38.300000000000004 C 42.2,26.5 46.0,14.7 49.8,2.9 C 49.9,2.7 49.9,2.6 50.0,2.4 C 50.0,2.4 50.0,2.4 50.0,2.4 M 55.7,64.3 C 54.900000000000006,64.89999999999999 52.2,65.8 50.5,65.89999999999999 C 46.3,66.1 43.0,64.49999999999999 40.1,61.599999999999994 C 37.300000000000004,64.3 34.5,66.89999999999999 31.6,69.5 C 32.9,70.7 34.1,72.0 35.4,73.2 C 37.8,70.8 40.1,68.5 42.4,66.2 C 42.5,66.3 42.6,66.3 42.6,66.4 C 43.5,67.2 44.4,68.0 45.4,68.60000000000001 C 48.4,70.4 51.6,71.10000000000001 55.0,70.7 C 56.8,70.5 58.4,70.0 60.0,69.10000000000001 C 60.2,69.00000000000001 60.3,69.10000000000001 60.4,69.2 C 61.8,70.7 63.3,72.10000000000001 64.7,73.60000000000001 C 64.8,73.7 64.9,73.80000000000001 65.0,73.80000000000001 C 66.1,72.80000000000001 67.2,71.80000000000001 68.3,70.80000000000001 C 68.2,70.70000000000002 68.1,70.60000000000001 68.0,70.60000000000001 C 66.5,69.2 65.0,67.7 63.5,66.30000000000001 C 63.3,66.10000000000001 63.3,66.00000000000001 63.4,65.80000000000001 C 64.1,64.70000000000002 64.8,63.60000000000001 65.3,62.40000000000001 C 66.6,59.500000000000014 67.0,56.500000000000014 66.3,53.40000000000001 C 65.7,50.80000000000001 64.5,48.600000000000016 63.0,46.500000000000014 C 60.9,43.70000000000002 58.3,41.30000000000001 55.6,39.20000000000002 C 54.7,38.500000000000014 53.800000000000004,37.90000000000002 52.9,37.20000000000002 C 52.9,37.30000000000002 53.0,37.40000000000002 53.1,37.500000000000014 C 54.800000000000004,39.40000000000001 56.4,41.30000000000001 57.9,43.40000000000001 C 59.4,45.500000000000014 60.8,47.80000000000001 61.6,50.20000000000001 C 62.2,52.10000000000001 62.5,54.00000000000001 62.2,56.00000000000001 C 61.900000000000006,58.10000000000001 60.900000000000006,59.900000000000006 59.5,61.50000000000001 C 59.3,61.70000000000001 59.2,61.900000000000006 59.0,62.10000000000001 C 54.3,57.60000000000001 49.7,53.20000000000001 45.0,48.80000000000001 C 46.6,47.30000000000001 48.2,45.90000000000001 49.9,44.40000000000001 C 49.699999999999996,44.30000000000001 49.6,44.30000000000001 49.5,44.30000000000001 C 47.4,43.70000000000001 45.3,43.20000000000001 43.2,42.60000000000001 C 43.0,42.50000000000001 42.800000000000004,42.60000000000001 42.6,42.70000000000001 C 40.0,45.20000000000001 37.5,47.80000000000001 34.9,50.30000000000001 C 34.8,50.40000000000001 34.699999999999996,50.500000000000014 34.6,50.60000000000001 C 36.0,52.00000000000001 37.5,53.400000000000006 38.9,54.80000000000001 C 40.1,53.60000000000001 41.199999999999996,52.500000000000014 42.3,51.30000000000001 C 47.0,55.5 51.4,59.9 55.7,64.3" fill="#000000" stroke="none" stroke-width="3.0px" /></g><g transform="translate(97.88383406826476, 10.383834068264767) scale(0.2923233186347047) rotate(0, 50.0, 50.0)"><path d="M 50.0,2.4 C 50.1,2.6999999999999997 50.2,3.0 50.3,3.4 C 54.099999999999994,15.1 57.8,26.799999999999997 61.599999999999994,38.4 C 61.699999999999996,38.699999999999996 61.8,38.699999999999996 62.099999999999994,38.699999999999996 C 66.39999999999999,38.699999999999996 70.69999999999999,38.699999999999996 75.0,38.699999999999996 C 83.2,38.699999999999996 91.4,38.699999999999996 99.6,38.599999999999994 C 99.69999999999999,38.599999999999994 99.8,38.599999999999994 100.1,38.599999999999994 C 100.0,38.699999999999996 99.89999999999999,38.8 99.8,38.8 C 89.7,46.099999999999994 79.6,53.4 69.5,60.699999999999996 C 69.2,60.9 69.2,61.099999999999994 69.3,61.4 C 73.2,73.2 77.0,85.1 80.89999999999999,96.9 C 80.89999999999999,97.0 80.99999999999999,97.10000000000001 80.99999999999999,97.30000000000001 C 80.59999999999998,97.00000000000001 80.29999999999998,96.80000000000001 79.99999999999999,96.60000000000001 C 70.19999999999999,89.4 60.29999999999998,82.2 50.499999999999986,75.0 C 50.19999999999999,74.8 49.999999999999986,74.8 49.69999999999999,75.0 C 39.69999999999999,82.3 29.599999999999987,89.7 19.49999999999999,97.0 C 19.399999999999988,97.1 19.29999999999999,97.1 19.19999999999999,97.2 C 19.29999999999999,97.0 19.29999999999999,96.9 19.29999999999999,96.7 C 22.79999999999999,86.10000000000001 26.19999999999999,75.5 29.69999999999999,64.80000000000001 C 30.099999999999987,63.500000000000014 30.49999999999999,62.30000000000001 30.899999999999988,61.000000000000014 C 30.99999999999999,60.80000000000001 30.899999999999988,60.70000000000002 30.69999999999999,60.500000000000014 C 20.6,53.7 10.6,46.4 0.5,39.1 C 0.3,39.0 0.2,38.9 0.0,38.7 C 0.2,38.7 0.3,38.7 0.4,38.7 C 8.4,38.7 16.4,38.7 24.4,38.7 C 28.9,38.7 33.4,38.7 37.8,38.7 C 38.099999999999994,38.7 38.3,38.6 38.4,38.300000000000004 C 42.2,26.5 46.0,14.7 49.8,2.9 C 49.9,2.7 49.9,2.6 50.0,2.4 C 50.0,2.4 50.0,2.4 50.0,2.4 M 55.7,64.3 C 54.900000000000006,64.89999999999999 52.2,65.8 50.5,65.89999999999999 C 46.3,66.1 43.0,64.49999999999999 40.1,61.599999999999994 C 37.300000000000004,64.3 34.5,66.89999999999999 31.6,69.5 C 32.9,70.7 34.1,72.0 35.4,73.2 C 37.8,70.8 40.1,68.5 42.4,66.2 C 42.5,66.3 42.6,66.3 42.6,66.4 C 43.5,67.2 44.4,68.0 45.4,68.60000000000001 C 48.4,70.4 51.6,71.10000000000001 55.0,70.7 C 56.8,70.5 58.4,70.0 60.0,69.10000000000001 C 60.2,69.00000000000001 60.3,69.10000000000001 60.4,69.2 C 61.8,70.7 63.3,72.10000000000001 64.7,73.60000000000001 C 64.8,73.7 64.9,73.80000000000001 65.0,73.80000000000001 C 66.1,72.80000000000001 67.2,71.80000000000001 68.3,70.80000000000001 C 68.2,70.70000000000002 68.1,70.60000000000001 68.0,70.60000000000001 C 66.5,69.2 65.0,67.7 63.5,66.30000000000001 C 63.3,66.10000000000001 63.3,66.00000000000001 63.4,65.80000000000001 C 64.1,64.70000000000002 64.8,63.60000000000001 65.3,62.40000000000001 C 66.6,59.500000000000014 67.0,56.500000000000014 66.3,53.40000000000001 C 65.7,50.80000000000001 64.5,48.600000000000016 63.0,46.500000000000014 C 60.9,43.70000000000002 58.3,41.30000000000001 55.6,39.20000000000002 C 54.7,38.500000000000014 53.800000000000004,37.90000000000002 52.9,37.20000000000002 C 52.9,37.30000000000002 53.0,37.40000000000002 53.1,37.500000000000014 C 54.800000000000004,39.40000000000001 56.4,41.30000000000001 57.9,43.40000000000001 C 59.4,45.500000000000014 60.8,47.80000000000001 61.6,50.20000000000001 C 62.2,52.10000000000001 62.5,54.00000000000001 62.2,56.00000000000001 C 61.900000000000006,58.10000000000001 60.900000000000006,59.900000000000006 59.5,61.50000000000001 C 59.3,61.70000000000001 59.2,61.900000000000006 59.0,62.10000000000001 C 54.3,57.60000000000001 49.7,53.20000000000001 45.0,48.80000000000001 C 46.6,47.30000000000001 48.2,45.90000000000001 49.9,44.40000000000001 C 49.699999999999996,44.30000000000001 49.6,44.30000000000001 49.5,44.30000000000001 C 47.4,43.70000000000001 45.3,43.20000000000001 43.2,42.60000000000001 C 43.0,42.50000000000001 42.800000000000004,42.60000000000001 42.6,42.70000000000001 C 40.0,45.20000000000001 37.5,47.80000000000001 34.9,50.30000000000001 C 34.8,50.40000000000001 34.699999999999996,50.500000000000014 34.6,50.60000000000001 C 36.0,52.00000000000001 37.5,53.400000000000006 38.9,54.80000000000001 C 40.1,53.60000000000001 41.199999999999996,52.500000000000014 42.3,51.30000000000001 C 47.0,55.5 51.4,59.9 55.7,64.3" fill="#000000" stroke="none" stroke-width="3.0px" /></g></svg>