<?xml version="1.0" encoding="utf-8" ?>
<svg baseProfile="full" height="100px" version="1.1" width="150px" xmlns="http://www.w3.org/2000/svg" xmlns:ev="http://www.w3.org/2001/xml-events" xmlns:xlink="http://www.w3.org/1999/xlink"><defs><clipPath id="mask0"><rect height="100" width="150" x="0" y="0" /></clipPath></defs><g clip-path="url(#mask0)"><rect fill="#0066cc" height="100" stroke="none" width="21.428571428571427" x="0.0" y="0" /><rect fill="#ffce00" height="100" stroke="none" width="21.428571428571427" x="21.428571428571427" y="0" /><rect fill="#0066cc" height="100" stroke="none" width="21.428571428571427" x="42.857142857142854" y="0" /><rect fill="#ffce00" height="100" stroke="none" width="21.428571428571427" x="64.28571428571429" y="0" /><rect fill="#0066cc" height="100" stroke="none" width="21.428571428571427" x="85.71428571428571" y="0" /><rect fill="#ffce00" height="100" stroke="none" width="21.428571428571427" x="107.14285714285714" y="0" /><rect fill="#0066cc" height="100" stroke="none" width="21.428571428571427" x="128.57142857142858" y="0" /></g><g transform="translate(47.15362260504451, 22.15362260504451) scale(0.5569275478991098) rotate(0, 50.0, 50.0)"><path d="M 13.9,1.2 L 86.0,1.2 L 86.0,43.5 C 86.0,75.0 52.2,97.2 49.9,98.5 C 47.6,97.2 13.899999999999999,75.2 13.899999999999999,43.5 L 13.9,1.2" fill="#ff0000" stroke="none" stroke-width="0px" /><path d="M 16.9,4.4 L 16.9,10.4 L 71.5,73.2 L 76.1,66.2 L 22.4,4.3 L 16.9,4.4" fill="#cc6600" stroke="none" stroke-width="0px" /><path d="M 50.0,100.0 L 49.4,99.6 C 49.0,99.4 12.7,77.0 12.7,43.6 L 12.7,0.0 L 87.3,0.0 L 87.3,43.6 C 87.3,77.0 50.9,99.5 50.599999999999994,99.7 L 50.0,100.0 M 15.2,2.5 L 15.2,43.6 C 15.2,73.3 45.2,94.0 50.0,97.1 C 54.7,94.0 84.9,72.69999999999999 84.9,43.599999999999994 L 84.9,2.5 L 15.2,2.5 M 73.2,7.7 C 72.10000000000001,8.3 70.9,9.4 70.9,11.6 C 71.0,13.5 72.7,18.1 72.5,20.2 L 72.4,20.2 C 72.30000000000001,19.9 72.30000000000001,18.2 71.30000000000001,16.5 C 70.30000000000001,14.6 69.50000000000001,14.8 68.80000000000001,14.8 C 67.60000000000001,14.8 66.50000000000001,16.0 66.50000000000001,17.400000000000002 C 66.50000000000001,18.6 67.70000000000002,20.200000000000003 68.80000000000001,20.200000000000003 C 68.4,19.900000000000002 68.30000000000001,19.1 68.4,18.700000000000003 C 68.4,18.400000000000002 69.10000000000001,17.900000000000002 69.5,17.900000000000002 C 70.0,18.1 70.5,18.400000000000002 70.9,18.8 C 71.30000000000001,19.3 71.60000000000001,19.7 71.9,20.2 L 70.30000000000001,20.2 C 69.9,20.2 69.60000000000001,20.5 69.60000000000001,20.8 C 69.60000000000001,21.3 69.9,21.400000000000002 70.30000000000001,21.400000000000002 L 71.9,21.400000000000002 C 73.0,21.6 72.0,23.400000000000002 71.80000000000001,23.700000000000003 L 72.50000000000001,24.500000000000004 C 72.60000000000001,24.800000000000004 72.80000000000001,25.100000000000005 72.80000000000001,25.600000000000005 C 72.9,25.900000000000006 73.10000000000001,26.100000000000005 73.30000000000001,26.100000000000005 C 73.60000000000001,26.100000000000005 73.60000000000001,25.900000000000006 73.70000000000002,25.600000000000005 C 73.80000000000001,25.100000000000005 73.80000000000001,24.800000000000004 74.10000000000002,24.500000000000004 C 74.20000000000002,24.200000000000003 74.50000000000003,24.000000000000004 74.60000000000002,23.700000000000003 C 74.50000000000003,23.400000000000002 73.40000000000002,21.500000000000004 74.60000000000002,21.400000000000002 L 76.0,21.400000000000002 C 76.4,21.400000000000002 76.7,21.200000000000003 76.7,20.8 C 76.7,20.5 76.4,20.2 76.0,20.2 L 74.6,20.2 C 74.69999999999999,19.7 75.1,19.3 75.3,18.8 C 75.7,18.3 76.1,18.0 76.7,17.900000000000002 C 77.2,17.900000000000002 77.8,18.400000000000002 77.9,18.700000000000003 C 78.0,19.000000000000004 77.9,19.900000000000002 77.5,20.200000000000003 C 78.6,20.200000000000003 79.8,18.700000000000003 79.8,17.400000000000002 C 79.8,16.000000000000004 78.7,14.800000000000002 77.5,14.800000000000002 C 76.8,14.800000000000002 76.0,14.600000000000003 75.0,16.500000000000004 C 74.0,18.200000000000003 74.0,19.900000000000002 74.0,20.200000000000003 L 73.7,20.200000000000003 C 73.7,18.000000000000004 75.2,13.400000000000002 75.3,11.600000000000003 C 75.3,9.4 74.2,8.3 73.2,7.7 L 73.2,7.7 M 51.6,7.7 C 50.5,8.3 49.300000000000004,9.4 49.300000000000004,11.6 C 49.400000000000006,13.5 51.1,18.1 50.900000000000006,20.2 L 50.800000000000004,20.2 C 50.7,19.9 50.7,18.2 49.7,16.5 C 48.7,14.6 47.900000000000006,14.8 47.2,14.8 C 46.0,14.8 44.900000000000006,16.0 44.900000000000006,17.400000000000002 C 44.900000000000006,18.6 46.10000000000001,20.200000000000003 47.2,20.200000000000003 C 46.800000000000004,19.900000000000002 46.7,19.1 46.800000000000004,18.700000000000003 C 46.800000000000004,18.400000000000002 47.50000000000001,17.900000000000002 47.900000000000006,17.900000000000002 C 48.400000000000006,18.1 48.900000000000006,18.400000000000002 49.300000000000004,18.8 C 49.7,19.3 50.00000000000001,19.7 50.300000000000004,20.2 L 48.7,20.2 C 48.300000000000004,20.2 48.0,20.5 48.0,20.8 C 48.0,21.3 48.3,21.400000000000002 48.7,21.400000000000002 L 50.300000000000004,21.400000000000002 C 51.400000000000006,21.6 50.400000000000006,23.400000000000002 50.2,23.700000000000003 L 50.900000000000006,24.500000000000004 C 51.00000000000001,24.800000000000004 51.2,25.100000000000005 51.2,25.600000000000005 C 51.300000000000004,25.900000000000006 51.5,26.100000000000005 51.7,26.100000000000005 C 51.900000000000006,26.100000000000005 52.0,25.900000000000006 52.1,25.600000000000005 C 52.2,25.100000000000005 52.2,24.800000000000004 52.5,24.500000000000004 C 52.6,24.200000000000003 52.9,24.000000000000004 53.0,23.700000000000003 C 52.9,23.400000000000002 51.8,21.500000000000004 53.0,21.400000000000002 L 54.4,21.400000000000002 C 54.8,21.400000000000002 55.1,21.200000000000003 55.1,20.8 C 55.1,20.5 54.800000000000004,20.2 54.4,20.2 L 53.0,20.2 C 53.1,19.7 53.5,19.3 53.7,18.8 C 54.1,18.3 54.5,18.0 55.1,17.900000000000002 C 55.6,17.900000000000002 56.2,18.400000000000002 56.300000000000004,18.700000000000003 C 56.400000000000006,19.000000000000004 56.300000000000004,19.900000000000002 55.900000000000006,20.200000000000003 C 57.00000000000001,20.200000000000003 58.2,18.700000000000003 58.2,17.400000000000002 C 58.2,16.000000000000004 57.1,14.800000000000002 55.900000000000006,14.800000000000002 C 55.2,14.800000000000002 54.400000000000006,14.600000000000003 53.400000000000006,16.500000000000004 C 52.400000000000006,18.200000000000003 52.400000000000006,19.900000000000002 52.400000000000006,20.200000000000003 L 52.10000000000001,20.200000000000003 C 52.10000000000001,18.000000000000004 53.60000000000001,13.400000000000002 53.70000000000001,11.600000000000003 C 53.7,9.4 52.6,8.3 51.6,7.7 L 51.6,7.7 M 73.2,32.7 C 72.10000000000001,33.300000000000004 70.9,34.400000000000006 70.9,36.6 C 71.0,38.5 72.7,43.1 72.5,45.2 L 72.4,45.2 C 72.30000000000001,44.900000000000006 72.30000000000001,43.2 71.30000000000001,41.5 C 70.30000000000001,39.6 69.50000000000001,39.8 68.80000000000001,39.8 C 67.60000000000001,39.8 66.50000000000001,41.0 66.50000000000001,42.4 C 66.50000000000001,43.6 67.70000000000002,45.199999999999996 68.80000000000001,45.199999999999996 C 68.4,44.9 68.30000000000001,44.099999999999994 68.4,43.699999999999996 C 68.4,43.4 69.10000000000001,42.9 69.5,42.9 C 70.0,43.1 70.5,43.4 70.9,43.8 C 71.30000000000001,44.3 71.60000000000001,44.699999999999996 71.9,45.199999999999996 L 70.30000000000001,45.199999999999996 C 69.9,45.199999999999996 69.60000000000001,45.49999999999999 69.60000000000001,45.8 C 69.60000000000001,46.3 69.9,46.4 70.30000000000001,46.4 L 71.9,46.4 C 73.0,46.6 72.0,48.4 71.80000000000001,48.699999999999996 L 72.50000000000001,49.49999999999999 C 72.60000000000001,49.79999999999999 72.80000000000001,50.099999999999994 72.80000000000001,50.599999999999994 C 72.9,50.89999999999999 73.10000000000001,51.099999999999994 73.30000000000001,51.099999999999994 C 73.60000000000001,51.099999999999994 73.60000000000001,50.89999999999999 73.70000000000002,50.599999999999994 C 73.80000000000001,50.099999999999994 73.80000000000001,49.8 74.10000000000002,49.49999999999999 C 74.20000000000002,49.199999999999996 74.50000000000003,48.99999999999999 74.60000000000002,48.699999999999996 C 74.50000000000003,48.4 73.40000000000002,46.49999999999999 74.60000000000002,46.4 L 76.0,46.4 C 76.4,46.4 76.7,46.199999999999996 76.7,45.8 C 76.7,45.5 76.4,45.199999999999996 76.0,45.199999999999996 L 74.6,45.199999999999996 C 74.69999999999999,44.699999999999996 75.1,44.3 75.3,43.8 C 75.7,43.3 76.1,43.0 76.7,42.9 C 77.2,42.9 77.8,43.4 77.9,43.699999999999996 C 78.0,43.99999999999999 77.9,44.9 77.5,45.199999999999996 C 78.6,45.199999999999996 79.8,43.699999999999996 79.8,42.4 C 79.8,41.0 78.7,39.8 77.5,39.8 C 76.8,39.8 76.0,39.599999999999994 75.0,41.5 C 74.0,43.2 74.0,44.9 74.0,45.2 L 73.7,45.2 C 73.7,43.0 75.2,38.400000000000006 75.3,36.6 C 75.3,34.4 74.2,33.4 73.2,32.7 L 73.2,32.7 M 26.0,32.7 C 24.9,33.300000000000004 23.7,34.400000000000006 23.7,36.6 C 23.8,38.5 25.5,43.1 25.3,45.2 L 25.2,45.2 C 25.099999999999998,44.900000000000006 25.099999999999998,43.2 24.099999999999998,41.5 C 23.099999999999998,39.6 22.299999999999997,39.8 21.599999999999998,39.8 C 20.4,39.8 19.299999999999997,41.0 19.299999999999997,42.4 C 19.299999999999997,43.6 20.499999999999996,45.199999999999996 21.599999999999998,45.199999999999996 C 21.2,44.9 21.099999999999998,44.099999999999994 21.2,43.699999999999996 C 21.2,43.4 21.9,42.9 22.3,42.9 C 22.8,43.1 23.3,43.4 23.7,43.8 C 24.099999999999998,44.3 24.4,44.699999999999996 24.7,45.199999999999996 L 23.0,45.199999999999996 C 22.6,45.199999999999996 22.3,45.49999999999999 22.3,45.8 C 22.3,46.3 22.6,46.4 23.0,46.4 L 24.6,46.4 C 25.700000000000003,46.6 24.700000000000003,48.4 24.5,48.699999999999996 L 25.2,49.49999999999999 C 25.3,49.79999999999999 25.5,50.099999999999994 25.5,50.599999999999994 C 25.6,50.89999999999999 25.8,51.099999999999994 26.0,51.099999999999994 C 26.3,51.099999999999994 26.3,50.89999999999999 26.4,50.599999999999994 C 26.5,50.099999999999994 26.5,49.8 26.799999999999997,49.49999999999999 C 26.9,49.199999999999996 27.199999999999996,48.99999999999999 27.299999999999997,48.699999999999996 C 27.199999999999996,48.4 26.099999999999998,46.49999999999999 27.299999999999997,46.4 L 28.699999999999996,46.4 C 29.099999999999994,46.4 29.399999999999995,46.199999999999996 29.399999999999995,45.8 C 29.399999999999995,45.5 29.099999999999994,45.199999999999996 28.699999999999996,45.199999999999996 L 27.299999999999997,45.199999999999996 C 27.4,44.699999999999996 27.799999999999997,44.3 27.999999999999996,43.8 C 28.399999999999995,43.3 28.799999999999997,43.0 29.399999999999995,42.9 C 29.899999999999995,42.9 30.499999999999996,43.4 30.599999999999994,43.699999999999996 C 30.699999999999996,43.99999999999999 30.599999999999994,44.9 30.199999999999996,45.199999999999996 C 31.299999999999997,45.199999999999996 32.49999999999999,43.699999999999996 32.49999999999999,42.4 C 32.49999999999999,41.0 31.39999999999999,39.8 30.199999999999992,39.8 C 29.499999999999993,39.8 28.699999999999992,39.599999999999994 27.699999999999992,41.5 C 26.699999999999992,43.2 26.699999999999992,44.9 26.699999999999992,45.2 L 26.39999999999999,45.2 C 26.39999999999999,43.0 27.89999999999999,38.400000000000006 27.999999999999993,36.6 C 28.1,34.4 27.0,33.4 26.0,32.7 L 26.0,32.7 M 38.6,50.8 C 37.5,51.4 36.300000000000004,52.5 36.300000000000004,54.699999999999996 C 36.400000000000006,56.599999999999994 38.1,61.199999999999996 37.900000000000006,63.3 L 37.800000000000004,63.3 C 37.7,63.0 37.7,61.3 36.7,59.599999999999994 C 35.7,57.699999999999996 34.900000000000006,57.89999999999999 34.2,57.89999999999999 C 33.0,57.89999999999999 31.900000000000002,59.099999999999994 31.900000000000002,60.49999999999999 C 31.900000000000002,61.699999999999996 33.1,63.29999999999999 34.2,63.29999999999999 C 33.800000000000004,62.99999999999999 33.7,62.19999999999999 33.800000000000004,61.79999999999999 C 33.800000000000004,61.49999999999999 34.50000000000001,60.99999999999999 34.900000000000006,60.99999999999999 C 35.400000000000006,61.199999999999996 35.900000000000006,61.49999999999999 36.300000000000004,61.89999999999999 C 36.7,62.39999999999999 37.00000000000001,62.79999999999999 37.300000000000004,63.29999999999999 L 35.7,63.29999999999999 C 35.300000000000004,63.29999999999999 35.0,63.59999999999999 35.0,63.89999999999999 C 35.0,64.39999999999999 35.3,64.49999999999999 35.7,64.49999999999999 L 37.300000000000004,64.49999999999999 C 38.400000000000006,64.69999999999999 37.400000000000006,66.49999999999999 37.2,66.79999999999998 L 37.900000000000006,67.59999999999998 C 38.00000000000001,67.89999999999998 38.2,68.19999999999997 38.2,68.69999999999997 C 38.300000000000004,68.99999999999997 38.5,69.19999999999997 38.7,69.19999999999997 C 39.0,69.19999999999997 39.0,68.99999999999997 39.1,68.69999999999997 C 39.2,68.19999999999997 39.2,67.89999999999998 39.5,67.59999999999998 C 39.6,67.29999999999998 39.9,67.09999999999998 40.0,66.79999999999998 C 39.9,66.49999999999999 38.8,64.59999999999998 40.0,64.49999999999999 L 41.4,64.49999999999999 C 41.8,64.49999999999999 42.1,64.29999999999998 42.1,63.899999999999984 C 42.1,63.59999999999999 41.800000000000004,63.29999999999998 41.4,63.29999999999998 L 40.0,63.29999999999998 C 40.1,62.79999999999998 40.5,62.399999999999984 40.7,61.899999999999984 C 41.1,61.399999999999984 41.5,61.09999999999999 42.1,60.999999999999986 C 42.6,60.999999999999986 43.2,61.499999999999986 43.300000000000004,61.79999999999998 C 43.400000000000006,62.09999999999998 43.300000000000004,62.999999999999986 42.900000000000006,63.29999999999998 C 44.00000000000001,63.29999999999998 45.2,61.79999999999998 45.2,60.499999999999986 C 45.2,59.09999999999999 44.1,57.899999999999984 42.900000000000006,57.899999999999984 C 42.2,57.899999999999984 41.400000000000006,57.69999999999998 40.400000000000006,59.59999999999999 C 39.400000000000006,61.29999999999999 39.400000000000006,62.999999999999986 39.400000000000006,63.29999999999999 L 39.10000000000001,63.29999999999999 C 39.10000000000001,61.09999999999999 40.60000000000001,56.49999999999999 40.70000000000001,54.69999999999999 C 40.6,52.5 39.5,51.4 38.6,50.8 L 38.6,50.8 M 50.1,68.8 C 49.0,69.39999999999999 47.800000000000004,70.5 47.800000000000004,72.7 C 47.900000000000006,74.60000000000001 49.6,79.2 49.400000000000006,81.3 L 49.300000000000004,81.3 C 49.2,81.0 49.2,79.3 48.2,77.6 C 47.2,75.69999999999999 46.400000000000006,75.89999999999999 45.7,75.89999999999999 C 44.5,75.89999999999999 43.400000000000006,77.1 43.400000000000006,78.49999999999999 C 43.400000000000006,79.69999999999999 44.60000000000001,81.29999999999998 45.7,81.29999999999998 C 45.300000000000004,80.99999999999999 45.2,80.19999999999999 45.300000000000004,79.79999999999998 C 45.300000000000004,79.49999999999999 46.00000000000001,78.99999999999999 46.400000000000006,78.99999999999999 C 46.900000000000006,79.19999999999999 47.400000000000006,79.49999999999999 47.800000000000004,79.89999999999999 C 48.2,80.39999999999999 48.50000000000001,80.8 48.800000000000004,81.3 L 47.2,81.3 C 46.800000000000004,81.3 46.5,81.6 46.5,81.89999999999999 C 46.5,82.39999999999999 46.8,82.49999999999999 47.2,82.49999999999999 L 48.800000000000004,82.49999999999999 C 49.900000000000006,82.69999999999999 48.900000000000006,84.49999999999999 48.7,84.79999999999998 L 49.400000000000006,85.59999999999998 C 49.50000000000001,85.89999999999998 49.7,86.19999999999997 49.7,86.69999999999997 C 49.800000000000004,86.99999999999997 50.0,87.19999999999997 50.2,87.19999999999997 C 50.400000000000006,87.19999999999997 50.5,86.99999999999997 50.6,86.69999999999997 C 50.7,86.19999999999997 50.7,85.89999999999998 51.0,85.59999999999998 C 51.1,85.29999999999998 51.4,85.09999999999998 51.5,84.79999999999998 C 51.4,84.49999999999999 50.3,82.59999999999998 51.5,82.49999999999999 L 52.9,82.49999999999999 C 53.3,82.49999999999999 53.6,82.29999999999998 53.6,81.89999999999999 C 53.6,81.6 53.300000000000004,81.3 52.9,81.3 L 51.5,81.3 C 51.6,80.8 52.0,80.39999999999999 52.2,79.89999999999999 C 52.6,79.39999999999999 53.0,79.1 53.6,78.99999999999999 C 54.1,78.99999999999999 54.7,79.49999999999999 54.800000000000004,79.79999999999998 C 54.900000000000006,80.09999999999998 54.800000000000004,80.99999999999999 54.400000000000006,81.29999999999998 C 55.50000000000001,81.29999999999998 56.7,79.79999999999998 56.7,78.49999999999999 C 56.7,77.09999999999998 55.6,75.89999999999999 54.400000000000006,75.89999999999999 C 53.7,75.89999999999999 52.900000000000006,75.69999999999999 51.900000000000006,77.6 C 50.900000000000006,79.3 50.900000000000006,81.0 50.900000000000006,81.3 L 50.60000000000001,81.3 C 50.60000000000001,79.1 52.10000000000001,74.5 52.20000000000001,72.7 C 52.2,70.5 51.1,69.4 50.1,68.8 L 50.1,68.8" fill="#925394" stroke="none" stroke-width="0px" /></g></svg>