<?xml version="1.0" encoding="utf-8" ?>
<svg baseProfile="full" height="100px" version="1.1" width="150px" xmlns="http://www.w3.org/2000/svg" xmlns:ev="http://www.w3.org/2001/xml-events" xmlns:xlink="http://www.w3.org/1999/xlink"><defs><clipPath id="mask0"><rect height="100" width="150" x="0" y="0" /></clipPath></defs><g clip-path="url(#mask0)"><rect fill="#fec50c" height="100" stroke="none" width="75.0" x="0.0" y="2" /><rect fill="#ff6602" height="100" stroke="none" width="75.0" x="75.0" y="2" /></g><g transform="translate(50.896136172932536, 25.896136172932536) scale(0.4820772765413493) rotate(0, 50.0, 50.0)"><path d="M 25.0,98.8 C 14.0,94.9 6.0,85.1 2.8,71.7 C 1.4,65.6 1.0,55.6 2.2,55.6 C 2.6,55.6 3.7,58.4 4.5,61.7 C 6.5,69.10000000000001 9.8,76.0 13.0,79.4 C 18.4,85.0 31.6,87.2 39.3,83.80000000000001 C 45.3,81.10000000000001 47.699999999999996,74.70000000000002 45.099999999999994,68.4 C 43.099999999999994,63.60000000000001 38.599999999999994,61.900000000000006 30.099999999999994,63.10000000000001 C 30.099999999999994,63.10000000000001 24.899999999999995,57.50000000000001 23.299999999999994,47.60000000000001 L 28.599999999999994,48.10000000000001 C 34.99999999999999,48.70000000000001 39.8,47.30000000000001 42.3,44.10000000000001 C 44.699999999999996,41.10000000000001 44.599999999999994,39.900000000000006 42.0,36.900000000000006 C 38.2,32.50000000000001 31.4,33.60000000000001 17.7,40.900000000000006 L 10.799999999999999,29.300000000000004 L 13.7,27.100000000000005 C 21.0,21.500000000000007 33.7,18.800000000000004 40.9,21.100000000000005 C 47.5,23.300000000000004 52.3,31.900000000000006 51.0,39.10000000000001 C 50.1,44.00000000000001 46.2,50.900000000000006 43.2,52.80000000000001 L 40.6,54.500000000000014 L 44.0,56.0 C 50.1,58.8 53.9,56.7 58.4,47.9 C 64.6,35.7 68.7,32.6 78.0,32.5 C 82.4,32.5 83.9,33.0 87.1,35.2 C 95.0,40.800000000000004 99.39999999999999,52.300000000000004 98.39999999999999,65.30000000000001 C 97.19999999999999,81.80000000000001 89.39999999999999,91.9 77.69999999999999,91.9 C 71.29999999999998,91.9 67.1,89.60000000000001 63.79999999999999,84.4 C 60.89999999999999,79.80000000000001 59.59999999999999,70.5 61.29999999999999,66.5 C 62.09999999999999,64.6 62.19999999999999,64.5 62.29999999999999,66.0 C 62.39999999999999,68.9 65.6,73.5 68.6,75.0 C 75.89999999999999,78.8 86.39999999999999,74.0 90.6,65.0 C 93.8,58.2 92.1,45.0 87.69999999999999,42.7 C 86.79999999999998,42.2 84.6,41.800000000000004 82.69999999999999,41.800000000000004 C 78.79999999999998,41.800000000000004 75.69999999999999,44.6 71.49999999999999,52.10000000000001 C 69.99999999999999,54.70000000000001 67.49999999999999,58.00000000000001 65.99999999999999,59.50000000000001 C 63.499999999999986,61.900000000000006 62.499999999999986,62.20000000000001 57.499999999999986,62.20000000000001 L 51.79999999999998,62.20000000000001 L 53.59999999999998,66.30000000000001 C 56.19999999999998,72.20000000000002 56.09999999999998,81.70000000000002 53.29999999999998,87.50000000000001 C 50.79999999999998,92.60000000000001 45.09999999999998,97.80000000000001 40.59999999999998,99.10000000000001 C 36.1,100.4 28.9,100.2 25.0,98.8 M 46.4,19.7 C 43.9,15.4 42.3,7.4 44.0,7.4 C 46.0,11.7 50.1,15.5 54.4,18.200000000000003 C 62.199999999999996,22.000000000000004 70.2,20.500000000000004 78.8,13.500000000000004 C 80.7,12.000000000000004 82.39999999999999,10.900000000000004 82.6,11.100000000000003 C 84.69999999999999,14.400000000000002 88.39999999999999,17.1 89.6,20.900000000000006 C 89.6,22.500000000000007 82.69999999999999,27.100000000000005 77.19999999999999,29.200000000000006 C 63.6,33.1 54.4,31.5 46.4,19.7 M 53.2,9.8 L 62.1,0.0 L 71.9,9.1 C 68.5,11.899999999999999 66.10000000000001,16.1 62.300000000000004,18.299999999999997 C 59.2,16.1 54.7,13.4 53.2,9.8" fill="#ffffff" stroke="none" stroke-width="2.0" /></g></svg>