<?xml version="1.0" encoding="utf-8" ?>
<svg baseProfile="full" height="100px" version="1.1" width="150px" xmlns="http://www.w3.org/2000/svg" xmlns:ev="http://www.w3.org/2001/xml-events" xmlns:xlink="http://www.w3.org/1999/xlink"><defs><clipPath id="mask0"><rect height="100" width="150" x="0" y="0" /></clipPath></defs><g clip-path="url(#mask0)"><rect fill="#fcdc04" height="100" stroke="none" width="150" x="0" y="0" /><rect fill="#00008b" height="50.0" stroke="none" width="75.0" x="0" y="0" /><rect fill="#00008b" height="50.0" stroke="none" width="75.0" x="75.0" y="50.0" /></g><g transform="translate(24.472017442417584, 61.97201744241758) scale(0.2605596511516483) rotate(0, 50.0, 50.0)"><path d="M 59.9,100.0 L 40.1,100.0 L 40.1,58.3 L 0.0,58.3 L 0.0,39.0 L 40.1,39.0 L 40.1,0.0 L 59.9,0.0 L 59.9,39.0 L 100.0,39.0 L 100.0,58.3 L 59.9,58.3 L 59.9,100.0" fill="#ffffff" stroke="none" stroke-width="3.0px" /></g><g transform="translate(99.47201744241758, 11.972017442417584) scale(0.2605596511516483) rotate(0, 50.0, 50.0)"><path d="M 59.9,100.0 L 40.1,100.0 L 40.1,58.3 L 0.0,58.3 L 0.0,39.0 L 40.1,39.0 L 40.1,0.0 L 59.9,0.0 L 59.9,39.0 L 100.0,39.0 L 100.0,58.3 L 59.9,58.3 L 59.9,100.0" fill="#ffffff" stroke="none" stroke-width="3.0px" /></g></svg>