<?xml version="1.0" encoding="utf-8" ?>
<svg baseProfile="full" height="100px" version="1.1" width="150px" xmlns="http://www.w3.org/2000/svg" xmlns:ev="http://www.w3.org/2001/xml-events" xmlns:xlink="http://www.w3.org/1999/xlink"><defs><clipPath id="mask0"><rect height="100" width="150" x="0" y="0" /></clipPath></defs><g clip-path="url(#mask0)"><rect fill="#cc0033" height="33.333333333333336" stroke="none" width="150" x="0" y="0.0" /><rect fill="#000000" height="33.333333333333336" stroke="none" width="150" x="0" y="33.333333333333336" /><rect fill="#ffce00" height="33.333333333333336" stroke="none" width="150" x="0" y="66.66666666666667" /></g><g transform="translate(24.431928359166626, 36.931928359166626) scale(0.2613614328166675) rotate(0, 50.0, 50.0)"><path d="M 52.1,57.6 C 51.9,57.6 51.4,57.6 51.2,57.800000000000004 C 50.1,58.2 51.400000000000006,59.800000000000004 52.1,58.2 L 52.1,57.6" fill="#ffffff" stroke="none" stroke-width="3.0px" /><path d="M 54.5,58.9 C 54.7,58.9 54.7,58.9 55.2,58.699999999999996 C 56.5,57.599999999999994 54.300000000000004,56.3 54.300000000000004,58.3 L 54.5,58.9" fill="#ffffff" stroke="none" stroke-width="3.0px" /><path d="M 57.4,58.4 C 58.5,58.199999999999996 58.5,58.0 58.9,56.9 C 57.6,56.7 57.2,57.1 57.4,58.4" fill="#ffffff" stroke="none" stroke-width="3.0px" /><path d="M 58.3,52.9 C 58.099999999999994,52.9 57.9,52.9 57.599999999999994,53.3 C 56.89999999999999,53.699999999999996 56.49999999999999,55.099999999999994 57.199999999999996,55.5 C 58.3,56.6 58.49999999999999,54.6 58.49999999999999,54.0 L 58.3,52.9" fill="#ffffff" stroke="none" stroke-width="3.0px" /><path d="M 37.9,29.0 C 37.9,29.9 37.5,30.8 37.199999999999996,31.6 C 36.8,33.1 36.3,34.7 36.099999999999994,36.2 C 36.099999999999994,36.900000000000006 35.89999999999999,38.800000000000004 35.39999999999999,39.300000000000004 C 34.99999999999999,40.00000000000001 34.49999999999999,39.50000000000001 33.89999999999999,39.7 C 32.599999999999994,39.900000000000006 32.099999999999994,42.300000000000004 34.29999999999999,44.300000000000004 C 35.59999999999999,45.2 36.69999999999999,45.6 38.29999999999999,45.6 C 39.39999999999999,45.6 40.29999999999999,45.2 41.39999999999999,45.800000000000004 C 42.29999999999999,46.00000000000001 43.599999999999994,48.00000000000001 43.99999999999999,48.900000000000006 C 44.39999999999999,49.300000000000004 44.89999999999999,52.400000000000006 44.699999999999996,53.10000000000001 C 44.699999999999996,53.80000000000001 43.99999999999999,55.30000000000001 44.699999999999996,56.00000000000001 C 45.599999999999994,56.400000000000006 46.699999999999996,56.00000000000001 46.699999999999996,55.10000000000001 C 46.699999999999996,54.400000000000006 45.99999999999999,53.80000000000001 45.99999999999999,53.30000000000001 C 45.99999999999999,53.10000000000001 46.199999999999996,52.90000000000001 46.699999999999996,52.90000000000001 C 47.4,52.70000000000001 47.599999999999994,53.100000000000016 47.8,53.80000000000001 C 48.0,55.10000000000001 47.4,56.000000000000014 48.699999999999996,56.70000000000001 C 48.3,57.80000000000001 47.99999999999999,58.20000000000001 49.099999999999994,58.90000000000001 L 48.599999999999994,59.30000000000001 L 46.2,60.0 C 46.900000000000006,58.7 46.900000000000006,58.2 46.0,56.9 C 44.7,58.0 44.9,58.4 45.3,59.8 C 43.099999999999994,58.699999999999996 44.599999999999994,55.4 42.0,57.599999999999994 C 41.3,54.99999999999999 42.4,53.89999999999999 41.8,50.39999999999999 C 41.599999999999994,49.69999999999999 41.599999999999994,48.599999999999994 41.099999999999994,48.39999999999999 C 40.699999999999996,47.69999999999999 39.599999999999994,47.69999999999999 39.3,48.79999999999999 L 39.3,51.19999999999999 L 38.9,56.0 C 38.9,57.3 38.699999999999996,59.1 39.3,60.2 C 40.0,61.300000000000004 41.699999999999996,62.400000000000006 42.8,63.5 C 44.099999999999994,64.6 45.0,65.9 46.8,66.4 L 51.599999999999994,66.2 C 52.699999999999996,66.2 53.39999999999999,66.4 54.699999999999996,66.4 C 56.9,66.2 56.699999999999996,65.7 58.4,64.9 C 59.5,64.2 60.8,63.800000000000004 61.699999999999996,62.7 C 63.699999999999996,60.5 62.99999999999999,56.300000000000004 62.8,53.7 C 62.8,52.800000000000004 63.0,52.2 63.0,51.300000000000004 C 63.0,50.6 63.4,49.800000000000004 63.0,49.1 C 62.3,48.0 61.0,48.9 60.6,49.800000000000004 C 59.7,51.800000000000004 61.0,56.400000000000006 59.5,58.400000000000006 C 58.4,60.2 56.9,59.300000000000004 56.2,59.300000000000004 C 55.6,59.300000000000004 55.400000000000006,59.50000000000001 54.800000000000004,59.50000000000001 L 53.50000000000001,59.300000000000004 C 52.800000000000004,59.50000000000001 52.400000000000006,60.00000000000001 51.50000000000001,60.00000000000001 C 50.800000000000004,59.800000000000004 50.00000000000001,59.300000000000004 49.70000000000001,58.70000000000001 C 49.00000000000001,57.40000000000001 49.70000000000001,56.50000000000001 49.70000000000001,55.20000000000001 C 49.70000000000001,54.50000000000001 49.30000000000001,53.70000000000001 49.00000000000001,53.00000000000001 C 49.900000000000006,53.400000000000006 50.10000000000001,53.400000000000006 51.00000000000001,53.00000000000001 C 50.800000000000004,53.900000000000006 50.300000000000004,55.20000000000001 50.60000000000001,56.10000000000001 C 50.80000000000001,57.00000000000001 52.10000000000001,56.80000000000001 52.400000000000006,56.10000000000001 C 52.800000000000004,55.20000000000001 52.400000000000006,53.70000000000001 52.2,52.80000000000001 L 54.0,52.60000000000001 C 53.8,53.30000000000001 53.3,54.80000000000001 53.3,55.50000000000001 C 53.5,56.400000000000006 55.5,55.900000000000006 55.699999999999996,55.50000000000001 C 56.099999999999994,55.10000000000001 55.49999999999999,54.00000000000001 55.699999999999996,53.300000000000004 C 56.099999999999994,52.400000000000006 57.199999999999996,52.6 57.699999999999996,52.00000000000001 C 57.699999999999996,51.800000000000004 58.8,47.800000000000004 59.699999999999996,47.20000000000001 C 62.599999999999994,44.80000000000001 66.5,47.00000000000001 68.0,42.80000000000001 C 68.2,42.40000000000001 68.2,42.10000000000001 68.2,41.70000000000001 C 68.2,41.50000000000001 68.2,41.00000000000001 68.0,40.80000000000001 C 67.3,38.40000000000001 64.9,41.500000000000014 64.5,39.500000000000014 C 64.3,39.100000000000016 64.5,37.70000000000002 64.7,37.30000000000001 C 64.9,36.000000000000014 65.10000000000001,34.90000000000001 65.4,33.60000000000001 C 65.4,32.10000000000001 64.7,31.000000000000007 64.7,29.60000000000001 C 65.10000000000001,30.300000000000008 66.0,32.00000000000001 66.0,32.900000000000006 C 66.2,33.300000000000004 66.0,33.800000000000004 66.0,34.2 L 66.0,35.5 C 66.0,36.6 65.8,37.9 66.0,39.0 C 68.0,38.3 67.8,37.0 68.0,35.3 C 68.4,31.799999999999997 69.3,30.299999999999997 68.2,26.699999999999996 C 67.8,25.199999999999996 66.4,22.099999999999994 65.60000000000001,20.999999999999996 C 64.9,20.099999999999998 63.80000000000001,19.499999999999996 63.00000000000001,18.799999999999997 C 62.10000000000001,18.099999999999998 61.50000000000001,17.499999999999996 60.60000000000001,16.799999999999997 C 58.00000000000001,15.499999999999996 54.00000000000001,15.299999999999997 51.20000000000001,15.299999999999997 C 49.40000000000001,15.299999999999997 44.40000000000001,16.4 42.900000000000006,17.299999999999997 C 41.800000000000004,17.999999999999996 40.7,18.799999999999997 39.60000000000001,19.499999999999996 C 38.30000000000001,20.399999999999995 37.20000000000001,21.299999999999997 36.30000000000001,22.599999999999998 C 35.60000000000001,23.299999999999997 33.70000000000001,28.299999999999997 33.40000000000001,29.199999999999996 C 33.20000000000001,30.699999999999996 33.600000000000016,32.099999999999994 33.80000000000001,33.4 C 34.000000000000014,34.9 33.80000000000001,35.6 33.80000000000001,36.9 C 33.80000000000001,37.6 33.80000000000001,39.1 34.90000000000001,38.699999999999996 C 35.600000000000016,38.49999999999999 35.600000000000016,36.699999999999996 35.80000000000001,36.099999999999994 C 36.20000000000001,32.8 35.80000000000001,34.3 37.10000000000001,31.299999999999994 C 37.4,30.1 37.2,29.9 37.9,29.0 M 57.6,33.8 C 58.9,33.8 61.1,34.699999999999996 62.0,35.8 C 63.3,37.599999999999994 62.7,40.8 60.9,41.9 C 60.199999999999996,42.3 58.9,42.6 58.3,42.6 C 57.599999999999994,42.6 57.199999999999996,42.4 56.5,41.9 C 54.5,41.0 54.7,40.1 54.5,38.199999999999996 C 54.3,37.49999999999999 54.1,36.699999999999996 54.3,35.99999999999999 C 54.8,34.7 56.3,34.1 57.6,33.8 M 42.7,34.1 C 43.6,34.1 44.7,34.1 45.6,34.300000000000004 C 47.800000000000004,35.2 49.1,38.00000000000001 47.6,40.2 C 46.9,41.1 45.4,41.300000000000004 44.300000000000004,41.7 L 42.50000000000001,42.400000000000006 C 41.60000000000001,42.60000000000001 41.20000000000001,42.2 40.50000000000001,41.7 C 39.00000000000001,40.800000000000004 38.70000000000001,40.6 38.70000000000001,38.800000000000004 C 38.70000000000001,38.1 38.70000000000001,37.50000000000001 38.90000000000001,36.800000000000004 C 39.4,34.9 40.9,34.5 42.7,34.1 M 51.5,41.3 C 52.4,42.4 53.7,44.8 53.3,46.3 C 53.099999999999994,47.4 51.8,48.9 50.9,46.699999999999996 C 50.699999999999996,46.9 49.8,47.099999999999994 49.6,47.099999999999994 C 48.7,46.89999999999999 48.9,45.599999999999994 49.2,44.89999999999999 C 49.3,43.5 50.1,42.2 51.5,41.3" fill="#ffffff" stroke="none" stroke-width="3.0px" /><path d="M 12.0,63.0 C 12.0,60.1 11.6,59.9 10.9,57.5 L 9.8,53.5 C 9.600000000000001,52.4 8.700000000000001,50.2 9.4,49.3 C 10.1,48.199999999999996 10.9,49.3 12.7,49.5 C 15.1,49.7 18.6,50.2 21.0,49.5 C 21.4,49.5 22.5,49.3 22.8,49.1 C 23.5,48.7 23.2,47.300000000000004 22.8,46.9 C 22.1,46.5 20.8,46.5 20.2,46.5 C 18.9,46.1 18.9,45.8 17.3,45.8 C 15.3,45.8 15.3,46.199999999999996 11.8,46.199999999999996 C 10.700000000000001,46.199999999999996 10.700000000000001,45.8 8.700000000000001,45.8 L 3.0,46.0 C 2.6,46.0 1.2,46.0 0.7999999999999998,46.2 C -0.30000000000000027,46.6 -0.1000000000000002,49.300000000000004 0.3999999999999998,50.2 C 1.0999999999999996,51.300000000000004 2.1999999999999997,50.400000000000006 3.5,50.2 C 4.800000000000001,50.0 5.3,50.6 5.9,51.7 L 7.2,55.0 L 8.7,57.4 L 9.6,58.9 L 10.5,60.199999999999996 C 11.1,61.5 10.9,62.4 12.0,63.0" fill="#ffffff" stroke="none" stroke-width="3.0px" /><path d="M 12.6,60.8 C 13.5,59.699999999999996 14.8,55.8 15.2,54.199999999999996 C 15.399999999999999,53.49999999999999 15.899999999999999,52.4 15.399999999999999,51.99999999999999 C 14.999999999999998,51.599999999999994 14.099999999999998,51.599999999999994 13.599999999999998,51.599999999999994 C 12.899999999999999,51.599999999999994 11.599999999999998,51.599999999999994 11.199999999999998,51.99999999999999 C 10.799999999999997,52.39999999999999 10.999999999999998,53.49999999999999 11.199999999999998,54.199999999999996 L 12.099999999999998,57.9 C 12.4,59.3 12.0,59.3 12.6,60.8" fill="#ffffff" stroke="none" stroke-width="3.0px" /><path d="M 12.2,37.4 C 10.2,37.8 7.999999999999999,38.9 7.6,41.1 C 7.199999999999999,43.7 9.1,44.4 11.1,44.800000000000004 C 11.7,45.00000000000001 12.6,45.50000000000001 13.3,45.300000000000004 C 14.8,45.1 16.8,42.2 16.6,40.50000000000001 C 16.1,38.5 14.1,37.1 12.2,37.4" fill="#ffffff" stroke="none" stroke-width="3.0px" /><path d="M 79.8,70.3 L 75.8,72.1 L 69.2,73.6 C 66.60000000000001,74.0 64.2,73.19999999999999 61.7,73.19999999999999 L 58.0,73.19999999999999 L 55.4,73.0 L 50.8,73.0 L 46.199999999999996,73.2 L 35.39999999999999,73.9 L 31.39999999999999,73.5 C 30.09999999999999,73.5 28.29999999999999,73.3 26.999999999999993,72.8 C 25.199999999999992,72.1 24.799999999999994,70.8 22.39999999999999,71.0 C 21.09999999999999,71.0 19.29999999999999,72.3 19.29999999999999,73.6 C 19.49999999999999,74.5 20.19999999999999,75.1 19.69999999999999,76.19999999999999 C 18.99999999999999,78.39999999999999 16.399999999999988,79.69999999999999 17.899999999999988,82.79999999999998 C 18.099999999999987,83.19999999999999 18.299999999999986,83.49999999999999 18.599999999999987,83.89999999999998 C 18.999999999999986,84.09999999999998 19.499999999999986,84.29999999999998 20.099999999999987,84.59999999999998 C 22.999999999999986,84.99999999999999 23.399999999999988,84.19999999999997 25.799999999999986,83.49999999999999 L 39.59999999999999,80.19999999999999 L 41.59999999999999,80.19999999999999 L 48.59999999999999,79.79999999999998 L 53.59999999999999,79.59999999999998 L 62.999999999999986,79.79999999999998 L 64.99999999999999,80.19999999999999 L 68.49999999999999,80.39999999999999 L 70.49999999999999,80.8 L 71.79999999999998,81.0 L 73.09999999999998,81.2 C 75.09999999999998,81.4 77.29999999999998,81.4 79.19999999999997,82.3 C 80.99999999999997,82.7 82.49999999999997,84.5 84.19999999999997,83.0 C 85.69999999999997,81.9 85.69999999999997,79.3 84.89999999999998,77.7 C 84.19999999999997,76.8 83.59999999999998,76.60000000000001 83.39999999999998,75.7 C 82.69999999999997,74.4 84.09999999999998,73.3 84.09999999999998,72.4 C 84.6,69.8 81.3,69.8 79.8,70.3" fill="#ffffff" stroke="none" stroke-width="3.0px" /><path d="M 85.9,42.6 C 85.2,42.6 83.9,42.6 83.30000000000001,42.800000000000004 C 81.10000000000001,43.7 80.9,46.800000000000004 80.9,48.7 C 80.9,52.7 84.4,55.300000000000004 87.30000000000001,57.300000000000004 C 88.20000000000002,58.00000000000001 89.9,59.900000000000006 90.80000000000001,59.900000000000006 C 91.9,59.900000000000006 93.9,57.7 94.50000000000001,57.00000000000001 L 96.50000000000001,55.20000000000001 C 98.90000000000002,52.80000000000001 101.50000000000001,47.70000000000001 98.90000000000002,44.400000000000006 C 97.40000000000002,42.400000000000006 94.50000000000001,42.400000000000006 92.80000000000003,44.2 C 91.90000000000002,44.900000000000006 91.50000000000003,46.2 90.60000000000002,46.0 C 89.90000000000002,46.0 89.30000000000003,44.7 88.80000000000003,44.2 C 87.9,43.3 87.2,42.6 85.9,42.6" fill="#ffffff" stroke="none" stroke-width="3.0px" /></g><g transform="translate(61.931928359166626, 36.931928359166626) scale(0.2613614328166675) rotate(0, 50.0, 50.0)"><path d="M 52.1,57.6 C 51.9,57.6 51.4,57.6 51.2,57.800000000000004 C 50.1,58.2 51.400000000000006,59.800000000000004 52.1,58.2 L 52.1,57.6" fill="#ffffff" stroke="none" stroke-width="3.0px" /><path d="M 54.5,58.9 C 54.7,58.9 54.7,58.9 55.2,58.699999999999996 C 56.5,57.599999999999994 54.300000000000004,56.3 54.300000000000004,58.3 L 54.5,58.9" fill="#ffffff" stroke="none" stroke-width="3.0px" /><path d="M 57.4,58.4 C 58.5,58.199999999999996 58.5,58.0 58.9,56.9 C 57.6,56.7 57.2,57.1 57.4,58.4" fill="#ffffff" stroke="none" stroke-width="3.0px" /><path d="M 58.3,52.9 C 58.099999999999994,52.9 57.9,52.9 57.599999999999994,53.3 C 56.89999999999999,53.699999999999996 56.49999999999999,55.099999999999994 57.199999999999996,55.5 C 58.3,56.6 58.49999999999999,54.6 58.49999999999999,54.0 L 58.3,52.9" fill="#ffffff" stroke="none" stroke-width="3.0px" /><path d="M 37.9,29.0 C 37.9,29.9 37.5,30.8 37.199999999999996,31.6 C 36.8,33.1 36.3,34.7 36.099999999999994,36.2 C 36.099999999999994,36.900000000000006 35.89999999999999,38.800000000000004 35.39999999999999,39.300000000000004 C 34.99999999999999,40.00000000000001 34.49999999999999,39.50000000000001 33.89999999999999,39.7 C 32.599999999999994,39.900000000000006 32.099999999999994,42.300000000000004 34.29999999999999,44.300000000000004 C 35.59999999999999,45.2 36.69999999999999,45.6 38.29999999999999,45.6 C 39.39999999999999,45.6 40.29999999999999,45.2 41.39999999999999,45.800000000000004 C 42.29999999999999,46.00000000000001 43.599999999999994,48.00000000000001 43.99999999999999,48.900000000000006 C 44.39999999999999,49.300000000000004 44.89999999999999,52.400000000000006 44.699999999999996,53.10000000000001 C 44.699999999999996,53.80000000000001 43.99999999999999,55.30000000000001 44.699999999999996,56.00000000000001 C 45.599999999999994,56.400000000000006 46.699999999999996,56.00000000000001 46.699999999999996,55.10000000000001 C 46.699999999999996,54.400000000000006 45.99999999999999,53.80000000000001 45.99999999999999,53.30000000000001 C 45.99999999999999,53.10000000000001 46.199999999999996,52.90000000000001 46.699999999999996,52.90000000000001 C 47.4,52.70000000000001 47.599999999999994,53.100000000000016 47.8,53.80000000000001 C 48.0,55.10000000000001 47.4,56.000000000000014 48.699999999999996,56.70000000000001 C 48.3,57.80000000000001 47.99999999999999,58.20000000000001 49.099999999999994,58.90000000000001 L 48.599999999999994,59.30000000000001 L 46.2,60.0 C 46.900000000000006,58.7 46.900000000000006,58.2 46.0,56.9 C 44.7,58.0 44.9,58.4 45.3,59.8 C 43.099999999999994,58.699999999999996 44.599999999999994,55.4 42.0,57.599999999999994 C 41.3,54.99999999999999 42.4,53.89999999999999 41.8,50.39999999999999 C 41.599999999999994,49.69999999999999 41.599999999999994,48.599999999999994 41.099999999999994,48.39999999999999 C 40.699999999999996,47.69999999999999 39.599999999999994,47.69999999999999 39.3,48.79999999999999 L 39.3,51.19999999999999 L 38.9,56.0 C 38.9,57.3 38.699999999999996,59.1 39.3,60.2 C 40.0,61.300000000000004 41.699999999999996,62.400000000000006 42.8,63.5 C 44.099999999999994,64.6 45.0,65.9 46.8,66.4 L 51.599999999999994,66.2 C 52.699999999999996,66.2 53.39999999999999,66.4 54.699999999999996,66.4 C 56.9,66.2 56.699999999999996,65.7 58.4,64.9 C 59.5,64.2 60.8,63.800000000000004 61.699999999999996,62.7 C 63.699999999999996,60.5 62.99999999999999,56.300000000000004 62.8,53.7 C 62.8,52.800000000000004 63.0,52.2 63.0,51.300000000000004 C 63.0,50.6 63.4,49.800000000000004 63.0,49.1 C 62.3,48.0 61.0,48.9 60.6,49.800000000000004 C 59.7,51.800000000000004 61.0,56.400000000000006 59.5,58.400000000000006 C 58.4,60.2 56.9,59.300000000000004 56.2,59.300000000000004 C 55.6,59.300000000000004 55.400000000000006,59.50000000000001 54.800000000000004,59.50000000000001 L 53.50000000000001,59.300000000000004 C 52.800000000000004,59.50000000000001 52.400000000000006,60.00000000000001 51.50000000000001,60.00000000000001 C 50.800000000000004,59.800000000000004 50.00000000000001,59.300000000000004 49.70000000000001,58.70000000000001 C 49.00000000000001,57.40000000000001 49.70000000000001,56.50000000000001 49.70000000000001,55.20000000000001 C 49.70000000000001,54.50000000000001 49.30000000000001,53.70000000000001 49.00000000000001,53.00000000000001 C 49.900000000000006,53.400000000000006 50.10000000000001,53.400000000000006 51.00000000000001,53.00000000000001 C 50.800000000000004,53.900000000000006 50.300000000000004,55.20000000000001 50.60000000000001,56.10000000000001 C 50.80000000000001,57.00000000000001 52.10000000000001,56.80000000000001 52.400000000000006,56.10000000000001 C 52.800000000000004,55.20000000000001 52.400000000000006,53.70000000000001 52.2,52.80000000000001 L 54.0,52.60000000000001 C 53.8,53.30000000000001 53.3,54.80000000000001 53.3,55.50000000000001 C 53.5,56.400000000000006 55.5,55.900000000000006 55.699999999999996,55.50000000000001 C 56.099999999999994,55.10000000000001 55.49999999999999,54.00000000000001 55.699999999999996,53.300000000000004 C 56.099999999999994,52.400000000000006 57.199999999999996,52.6 57.699999999999996,52.00000000000001 C 57.699999999999996,51.800000000000004 58.8,47.800000000000004 59.699999999999996,47.20000000000001 C 62.599999999999994,44.80000000000001 66.5,47.00000000000001 68.0,42.80000000000001 C 68.2,42.40000000000001 68.2,42.10000000000001 68.2,41.70000000000001 C 68.2,41.50000000000001 68.2,41.00000000000001 68.0,40.80000000000001 C 67.3,38.40000000000001 64.9,41.500000000000014 64.5,39.500000000000014 C 64.3,39.100000000000016 64.5,37.70000000000002 64.7,37.30000000000001 C 64.9,36.000000000000014 65.10000000000001,34.90000000000001 65.4,33.60000000000001 C 65.4,32.10000000000001 64.7,31.000000000000007 64.7,29.60000000000001 C 65.10000000000001,30.300000000000008 66.0,32.00000000000001 66.0,32.900000000000006 C 66.2,33.300000000000004 66.0,33.800000000000004 66.0,34.2 L 66.0,35.5 C 66.0,36.6 65.8,37.9 66.0,39.0 C 68.0,38.3 67.8,37.0 68.0,35.3 C 68.4,31.799999999999997 69.3,30.299999999999997 68.2,26.699999999999996 C 67.8,25.199999999999996 66.4,22.099999999999994 65.60000000000001,20.999999999999996 C 64.9,20.099999999999998 63.80000000000001,19.499999999999996 63.00000000000001,18.799999999999997 C 62.10000000000001,18.099999999999998 61.50000000000001,17.499999999999996 60.60000000000001,16.799999999999997 C 58.00000000000001,15.499999999999996 54.00000000000001,15.299999999999997 51.20000000000001,15.299999999999997 C 49.40000000000001,15.299999999999997 44.40000000000001,16.4 42.900000000000006,17.299999999999997 C 41.800000000000004,17.999999999999996 40.7,18.799999999999997 39.60000000000001,19.499999999999996 C 38.30000000000001,20.399999999999995 37.20000000000001,21.299999999999997 36.30000000000001,22.599999999999998 C 35.60000000000001,23.299999999999997 33.70000000000001,28.299999999999997 33.40000000000001,29.199999999999996 C 33.20000000000001,30.699999999999996 33.600000000000016,32.099999999999994 33.80000000000001,33.4 C 34.000000000000014,34.9 33.80000000000001,35.6 33.80000000000001,36.9 C 33.80000000000001,37.6 33.80000000000001,39.1 34.90000000000001,38.699999999999996 C 35.600000000000016,38.49999999999999 35.600000000000016,36.699999999999996 35.80000000000001,36.099999999999994 C 36.20000000000001,32.8 35.80000000000001,34.3 37.10000000000001,31.299999999999994 C 37.4,30.1 37.2,29.9 37.9,29.0 M 57.6,33.8 C 58.9,33.8 61.1,34.699999999999996 62.0,35.8 C 63.3,37.599999999999994 62.7,40.8 60.9,41.9 C 60.199999999999996,42.3 58.9,42.6 58.3,42.6 C 57.599999999999994,42.6 57.199999999999996,42.4 56.5,41.9 C 54.5,41.0 54.7,40.1 54.5,38.199999999999996 C 54.3,37.49999999999999 54.1,36.699999999999996 54.3,35.99999999999999 C 54.8,34.7 56.3,34.1 57.6,33.8 M 42.7,34.1 C 43.6,34.1 44.7,34.1 45.6,34.300000000000004 C 47.800000000000004,35.2 49.1,38.00000000000001 47.6,40.2 C 46.9,41.1 45.4,41.300000000000004 44.300000000000004,41.7 L 42.50000000000001,42.400000000000006 C 41.60000000000001,42.60000000000001 41.20000000000001,42.2 40.50000000000001,41.7 C 39.00000000000001,40.800000000000004 38.70000000000001,40.6 38.70000000000001,38.800000000000004 C 38.70000000000001,38.1 38.70000000000001,37.50000000000001 38.90000000000001,36.800000000000004 C 39.4,34.9 40.9,34.5 42.7,34.1 M 51.5,41.3 C 52.4,42.4 53.7,44.8 53.3,46.3 C 53.099999999999994,47.4 51.8,48.9 50.9,46.699999999999996 C 50.699999999999996,46.9 49.8,47.099999999999994 49.6,47.099999999999994 C 48.7,46.89999999999999 48.9,45.599999999999994 49.2,44.89999999999999 C 49.3,43.5 50.1,42.2 51.5,41.3" fill="#ffffff" stroke="none" stroke-width="3.0px" /><path d="M 12.0,63.0 C 12.0,60.1 11.6,59.9 10.9,57.5 L 9.8,53.5 C 9.600000000000001,52.4 8.700000000000001,50.2 9.4,49.3 C 10.1,48.199999999999996 10.9,49.3 12.7,49.5 C 15.1,49.7 18.6,50.2 21.0,49.5 C 21.4,49.5 22.5,49.3 22.8,49.1 C 23.5,48.7 23.2,47.300000000000004 22.8,46.9 C 22.1,46.5 20.8,46.5 20.2,46.5 C 18.9,46.1 18.9,45.8 17.3,45.8 C 15.3,45.8 15.3,46.199999999999996 11.8,46.199999999999996 C 10.700000000000001,46.199999999999996 10.700000000000001,45.8 8.700000000000001,45.8 L 3.0,46.0 C 2.6,46.0 1.2,46.0 0.7999999999999998,46.2 C -0.30000000000000027,46.6 -0.1000000000000002,49.300000000000004 0.3999999999999998,50.2 C 1.0999999999999996,51.300000000000004 2.1999999999999997,50.400000000000006 3.5,50.2 C 4.800000000000001,50.0 5.3,50.6 5.9,51.7 L 7.2,55.0 L 8.7,57.4 L 9.6,58.9 L 10.5,60.199999999999996 C 11.1,61.5 10.9,62.4 12.0,63.0" fill="#ffffff" stroke="none" stroke-width="3.0px" /><path d="M 12.6,60.8 C 13.5,59.699999999999996 14.8,55.8 15.2,54.199999999999996 C 15.399999999999999,53.49999999999999 15.899999999999999,52.4 15.399999999999999,51.99999999999999 C 14.999999999999998,51.599999999999994 14.099999999999998,51.599999999999994 13.599999999999998,51.599999999999994 C 12.899999999999999,51.599999999999994 11.599999999999998,51.599999999999994 11.199999999999998,51.99999999999999 C 10.799999999999997,52.39999999999999 10.999999999999998,53.49999999999999 11.199999999999998,54.199999999999996 L 12.099999999999998,57.9 C 12.4,59.3 12.0,59.3 12.6,60.8" fill="#ffffff" stroke="none" stroke-width="3.0px" /><path d="M 12.2,37.4 C 10.2,37.8 7.999999999999999,38.9 7.6,41.1 C 7.199999999999999,43.7 9.1,44.4 11.1,44.800000000000004 C 11.7,45.00000000000001 12.6,45.50000000000001 13.3,45.300000000000004 C 14.8,45.1 16.8,42.2 16.6,40.50000000000001 C 16.1,38.5 14.1,37.1 12.2,37.4" fill="#ffffff" stroke="none" stroke-width="3.0px" /><path d="M 79.8,70.3 L 75.8,72.1 L 69.2,73.6 C 66.60000000000001,74.0 64.2,73.19999999999999 61.7,73.19999999999999 L 58.0,73.19999999999999 L 55.4,73.0 L 50.8,73.0 L 46.199999999999996,73.2 L 35.39999999999999,73.9 L 31.39999999999999,73.5 C 30.09999999999999,73.5 28.29999999999999,73.3 26.999999999999993,72.8 C 25.199999999999992,72.1 24.799999999999994,70.8 22.39999999999999,71.0 C 21.09999999999999,71.0 19.29999999999999,72.3 19.29999999999999,73.6 C 19.49999999999999,74.5 20.19999999999999,75.1 19.69999999999999,76.19999999999999 C 18.99999999999999,78.39999999999999 16.399999999999988,79.69999999999999 17.899999999999988,82.79999999999998 C 18.099999999999987,83.19999999999999 18.299999999999986,83.49999999999999 18.599999999999987,83.89999999999998 C 18.999999999999986,84.09999999999998 19.499999999999986,84.29999999999998 20.099999999999987,84.59999999999998 C 22.999999999999986,84.99999999999999 23.399999999999988,84.19999999999997 25.799999999999986,83.49999999999999 L 39.59999999999999,80.19999999999999 L 41.59999999999999,80.19999999999999 L 48.59999999999999,79.79999999999998 L 53.59999999999999,79.59999999999998 L 62.999999999999986,79.79999999999998 L 64.99999999999999,80.19999999999999 L 68.49999999999999,80.39999999999999 L 70.49999999999999,80.8 L 71.79999999999998,81.0 L 73.09999999999998,81.2 C 75.09999999999998,81.4 77.29999999999998,81.4 79.19999999999997,82.3 C 80.99999999999997,82.7 82.49999999999997,84.5 84.19999999999997,83.0 C 85.69999999999997,81.9 85.69999999999997,79.3 84.89999999999998,77.7 C 84.19999999999997,76.8 83.59999999999998,76.60000000000001 83.39999999999998,75.7 C 82.69999999999997,74.4 84.09999999999998,73.3 84.09999999999998,72.4 C 84.6,69.8 81.3,69.8 79.8,70.3" fill="#ffffff" stroke="none" stroke-width="3.0px" /><path d="M 85.9,42.6 C 85.2,42.6 83.9,42.6 83.30000000000001,42.800000000000004 C 81.10000000000001,43.7 80.9,46.800000000000004 80.9,48.7 C 80.9,52.7 84.4,55.300000000000004 87.30000000000001,57.300000000000004 C 88.20000000000002,58.00000000000001 89.9,59.900000000000006 90.80000000000001,59.900000000000006 C 91.9,59.900000000000006 93.9,57.7 94.50000000000001,57.00000000000001 L 96.50000000000001,55.20000000000001 C 98.90000000000002,52.80000000000001 101.50000000000001,47.70000000000001 98.90000000000002,44.400000000000006 C 97.40000000000002,42.400000000000006 94.50000000000001,42.400000000000006 92.80000000000003,44.2 C 91.90000000000002,44.900000000000006 91.50000000000003,46.2 90.60000000000002,46.0 C 89.90000000000002,46.0 89.30000000000003,44.7 88.80000000000003,44.2 C 87.9,43.3 87.2,42.6 85.9,42.6" fill="#ffffff" stroke="none" stroke-width="3.0px" /></g><g transform="translate(99.43192835916662, 36.931928359166626) scale(0.2613614328166675) rotate(0, 50.0, 50.0)"><path d="M 52.1,57.6 C 51.9,57.6 51.4,57.6 51.2,57.800000000000004 C 50.1,58.2 51.400000000000006,59.800000000000004 52.1,58.2 L 52.1,57.6" fill="#ffffff" stroke="none" stroke-width="3.0px" /><path d="M 54.5,58.9 C 54.7,58.9 54.7,58.9 55.2,58.699999999999996 C 56.5,57.599999999999994 54.300000000000004,56.3 54.300000000000004,58.3 L 54.5,58.9" fill="#ffffff" stroke="none" stroke-width="3.0px" /><path d="M 57.4,58.4 C 58.5,58.199999999999996 58.5,58.0 58.9,56.9 C 57.6,56.7 57.2,57.1 57.4,58.4" fill="#ffffff" stroke="none" stroke-width="3.0px" /><path d="M 58.3,52.9 C 58.099999999999994,52.9 57.9,52.9 57.599999999999994,53.3 C 56.89999999999999,53.699999999999996 56.49999999999999,55.099999999999994 57.199999999999996,55.5 C 58.3,56.6 58.49999999999999,54.6 58.49999999999999,54.0 L 58.3,52.9" fill="#ffffff" stroke="none" stroke-width="3.0px" /><path d="M 37.9,29.0 C 37.9,29.9 37.5,30.8 37.199999999999996,31.6 C 36.8,33.1 36.3,34.7 36.099999999999994,36.2 C 36.099999999999994,36.900000000000006 35.89999999999999,38.800000000000004 35.39999999999999,39.300000000000004 C 34.99999999999999,40.00000000000001 34.49999999999999,39.50000000000001 33.89999999999999,39.7 C 32.599999999999994,39.900000000000006 32.099999999999994,42.300000000000004 34.29999999999999,44.300000000000004 C 35.59999999999999,45.2 36.69999999999999,45.6 38.29999999999999,45.6 C 39.39999999999999,45.6 40.29999999999999,45.2 41.39999999999999,45.800000000000004 C 42.29999999999999,46.00000000000001 43.599999999999994,48.00000000000001 43.99999999999999,48.900000000000006 C 44.39999999999999,49.300000000000004 44.89999999999999,52.400000000000006 44.699999999999996,53.10000000000001 C 44.699999999999996,53.80000000000001 43.99999999999999,55.30000000000001 44.699999999999996,56.00000000000001 C 45.599999999999994,56.400000000000006 46.699999999999996,56.00000000000001 46.699999999999996,55.10000000000001 C 46.699999999999996,54.400000000000006 45.99999999999999,53.80000000000001 45.99999999999999,53.30000000000001 C 45.99999999999999,53.10000000000001 46.199999999999996,52.90000000000001 46.699999999999996,52.90000000000001 C 47.4,52.70000000000001 47.599999999999994,53.100000000000016 47.8,53.80000000000001 C 48.0,55.10000000000001 47.4,56.000000000000014 48.699999999999996,56.70000000000001 C 48.3,57.80000000000001 47.99999999999999,58.20000000000001 49.099999999999994,58.90000000000001 L 48.599999999999994,59.30000000000001 L 46.2,60.0 C 46.900000000000006,58.7 46.900000000000006,58.2 46.0,56.9 C 44.7,58.0 44.9,58.4 45.3,59.8 C 43.099999999999994,58.699999999999996 44.599999999999994,55.4 42.0,57.599999999999994 C 41.3,54.99999999999999 42.4,53.89999999999999 41.8,50.39999999999999 C 41.599999999999994,49.69999999999999 41.599999999999994,48.599999999999994 41.099999999999994,48.39999999999999 C 40.699999999999996,47.69999999999999 39.599999999999994,47.69999999999999 39.3,48.79999999999999 L 39.3,51.19999999999999 L 38.9,56.0 C 38.9,57.3 38.699999999999996,59.1 39.3,60.2 C 40.0,61.300000000000004 41.699999999999996,62.400000000000006 42.8,63.5 C 44.099999999999994,64.6 45.0,65.9 46.8,66.4 L 51.599999999999994,66.2 C 52.699999999999996,66.2 53.39999999999999,66.4 54.699999999999996,66.4 C 56.9,66.2 56.699999999999996,65.7 58.4,64.9 C 59.5,64.2 60.8,63.800000000000004 61.699999999999996,62.7 C 63.699999999999996,60.5 62.99999999999999,56.300000000000004 62.8,53.7 C 62.8,52.800000000000004 63.0,52.2 63.0,51.300000000000004 C 63.0,50.6 63.4,49.800000000000004 63.0,49.1 C 62.3,48.0 61.0,48.9 60.6,49.800000000000004 C 59.7,51.800000000000004 61.0,56.400000000000006 59.5,58.400000000000006 C 58.4,60.2 56.9,59.300000000000004 56.2,59.300000000000004 C 55.6,59.300000000000004 55.400000000000006,59.50000000000001 54.800000000000004,59.50000000000001 L 53.50000000000001,59.300000000000004 C 52.800000000000004,59.50000000000001 52.400000000000006,60.00000000000001 51.50000000000001,60.00000000000001 C 50.800000000000004,59.800000000000004 50.00000000000001,59.300000000000004 49.70000000000001,58.70000000000001 C 49.00000000000001,57.40000000000001 49.70000000000001,56.50000000000001 49.70000000000001,55.20000000000001 C 49.70000000000001,54.50000000000001 49.30000000000001,53.70000000000001 49.00000000000001,53.00000000000001 C 49.900000000000006,53.400000000000006 50.10000000000001,53.400000000000006 51.00000000000001,53.00000000000001 C 50.800000000000004,53.900000000000006 50.300000000000004,55.20000000000001 50.60000000000001,56.10000000000001 C 50.80000000000001,57.00000000000001 52.10000000000001,56.80000000000001 52.400000000000006,56.10000000000001 C 52.800000000000004,55.20000000000001 52.400000000000006,53.70000000000001 52.2,52.80000000000001 L 54.0,52.60000000000001 C 53.8,53.30000000000001 53.3,54.80000000000001 53.3,55.50000000000001 C 53.5,56.400000000000006 55.5,55.900000000000006 55.699999999999996,55.50000000000001 C 56.099999999999994,55.10000000000001 55.49999999999999,54.00000000000001 55.699999999999996,53.300000000000004 C 56.099999999999994,52.400000000000006 57.199999999999996,52.6 57.699999999999996,52.00000000000001 C 57.699999999999996,51.800000000000004 58.8,47.800000000000004 59.699999999999996,47.20000000000001 C 62.599999999999994,44.80000000000001 66.5,47.00000000000001 68.0,42.80000000000001 C 68.2,42.40000000000001 68.2,42.10000000000001 68.2,41.70000000000001 C 68.2,41.50000000000001 68.2,41.00000000000001 68.0,40.80000000000001 C 67.3,38.40000000000001 64.9,41.500000000000014 64.5,39.500000000000014 C 64.3,39.100000000000016 64.5,37.70000000000002 64.7,37.30000000000001 C 64.9,36.000000000000014 65.10000000000001,34.90000000000001 65.4,33.60000000000001 C 65.4,32.10000000000001 64.7,31.000000000000007 64.7,29.60000000000001 C 65.10000000000001,30.300000000000008 66.0,32.00000000000001 66.0,32.900000000000006 C 66.2,33.300000000000004 66.0,33.800000000000004 66.0,34.2 L 66.0,35.5 C 66.0,36.6 65.8,37.9 66.0,39.0 C 68.0,38.3 67.8,37.0 68.0,35.3 C 68.4,31.799999999999997 69.3,30.299999999999997 68.2,26.699999999999996 C 67.8,25.199999999999996 66.4,22.099999999999994 65.60000000000001,20.999999999999996 C 64.9,20.099999999999998 63.80000000000001,19.499999999999996 63.00000000000001,18.799999999999997 C 62.10000000000001,18.099999999999998 61.50000000000001,17.499999999999996 60.60000000000001,16.799999999999997 C 58.00000000000001,15.499999999999996 54.00000000000001,15.299999999999997 51.20000000000001,15.299999999999997 C 49.40000000000001,15.299999999999997 44.40000000000001,16.4 42.900000000000006,17.299999999999997 C 41.800000000000004,17.999999999999996 40.7,18.799999999999997 39.60000000000001,19.499999999999996 C 38.30000000000001,20.399999999999995 37.20000000000001,21.299999999999997 36.30000000000001,22.599999999999998 C 35.60000000000001,23.299999999999997 33.70000000000001,28.299999999999997 33.40000000000001,29.199999999999996 C 33.20000000000001,30.699999999999996 33.600000000000016,32.099999999999994 33.80000000000001,33.4 C 34.000000000000014,34.9 33.80000000000001,35.6 33.80000000000001,36.9 C 33.80000000000001,37.6 33.80000000000001,39.1 34.90000000000001,38.699999999999996 C 35.600000000000016,38.49999999999999 35.600000000000016,36.699999999999996 35.80000000000001,36.099999999999994 C 36.20000000000001,32.8 35.80000000000001,34.3 37.10000000000001,31.299999999999994 C 37.4,30.1 37.2,29.9 37.9,29.0 M 57.6,33.8 C 58.9,33.8 61.1,34.699999999999996 62.0,35.8 C 63.3,37.599999999999994 62.7,40.8 60.9,41.9 C 60.199999999999996,42.3 58.9,42.6 58.3,42.6 C 57.599999999999994,42.6 57.199999999999996,42.4 56.5,41.9 C 54.5,41.0 54.7,40.1 54.5,38.199999999999996 C 54.3,37.49999999999999 54.1,36.699999999999996 54.3,35.99999999999999 C 54.8,34.7 56.3,34.1 57.6,33.8 M 42.7,34.1 C 43.6,34.1 44.7,34.1 45.6,34.300000000000004 C 47.800000000000004,35.2 49.1,38.00000000000001 47.6,40.2 C 46.9,41.1 45.4,41.300000000000004 44.300000000000004,41.7 L 42.50000000000001,42.400000000000006 C 41.60000000000001,42.60000000000001 41.20000000000001,42.2 40.50000000000001,41.7 C 39.00000000000001,40.800000000000004 38.70000000000001,40.6 38.70000000000001,38.800000000000004 C 38.70000000000001,38.1 38.70000000000001,37.50000000000001 38.90000000000001,36.800000000000004 C 39.4,34.9 40.9,34.5 42.7,34.1 M 51.5,41.3 C 52.4,42.4 53.7,44.8 53.3,46.3 C 53.099999999999994,47.4 51.8,48.9 50.9,46.699999999999996 C 50.699999999999996,46.9 49.8,47.099999999999994 49.6,47.099999999999994 C 48.7,46.89999999999999 48.9,45.599999999999994 49.2,44.89999999999999 C 49.3,43.5 50.1,42.2 51.5,41.3" fill="#ffffff" stroke="none" stroke-width="3.0px" /><path d="M 12.0,63.0 C 12.0,60.1 11.6,59.9 10.9,57.5 L 9.8,53.5 C 9.600000000000001,52.4 8.700000000000001,50.2 9.4,49.3 C 10.1,48.199999999999996 10.9,49.3 12.7,49.5 C 15.1,49.7 18.6,50.2 21.0,49.5 C 21.4,49.5 22.5,49.3 22.8,49.1 C 23.5,48.7 23.2,47.300000000000004 22.8,46.9 C 22.1,46.5 20.8,46.5 20.2,46.5 C 18.9,46.1 18.9,45.8 17.3,45.8 C 15.3,45.8 15.3,46.199999999999996 11.8,46.199999999999996 C 10.700000000000001,46.199999999999996 10.700000000000001,45.8 8.700000000000001,45.8 L 3.0,46.0 C 2.6,46.0 1.2,46.0 0.7999999999999998,46.2 C -0.30000000000000027,46.6 -0.1000000000000002,49.300000000000004 0.3999999999999998,50.2 C 1.0999999999999996,51.300000000000004 2.1999999999999997,50.400000000000006 3.5,50.2 C 4.800000000000001,50.0 5.3,50.6 5.9,51.7 L 7.2,55.0 L 8.7,57.4 L 9.6,58.9 L 10.5,60.199999999999996 C 11.1,61.5 10.9,62.4 12.0,63.0" fill="#ffffff" stroke="none" stroke-width="3.0px" /><path d="M 12.6,60.8 C 13.5,59.699999999999996 14.8,55.8 15.2,54.199999999999996 C 15.399999999999999,53.49999999999999 15.899999999999999,52.4 15.399999999999999,51.99999999999999 C 14.999999999999998,51.599999999999994 14.099999999999998,51.599999999999994 13.599999999999998,51.599999999999994 C 12.899999999999999,51.599999999999994 11.599999999999998,51.599999999999994 11.199999999999998,51.99999999999999 C 10.799999999999997,52.39999999999999 10.999999999999998,53.49999999999999 11.199999999999998,54.199999999999996 L 12.099999999999998,57.9 C 12.4,59.3 12.0,59.3 12.6,60.8" fill="#ffffff" stroke="none" stroke-width="3.0px" /><path d="M 12.2,37.4 C 10.2,37.8 7.999999999999999,38.9 7.6,41.1 C 7.199999999999999,43.7 9.1,44.4 11.1,44.800000000000004 C 11.7,45.00000000000001 12.6,45.50000000000001 13.3,45.300000000000004 C 14.8,45.1 16.8,42.2 16.6,40.50000000000001 C 16.1,38.5 14.1,37.1 12.2,37.4" fill="#ffffff" stroke="none" stroke-width="3.0px" /><path d="M 79.8,70.3 L 75.8,72.1 L 69.2,73.6 C 66.60000000000001,74.0 64.2,73.19999999999999 61.7,73.19999999999999 L 58.0,73.19999999999999 L 55.4,73.0 L 50.8,73.0 L 46.199999999999996,73.2 L 35.39999999999999,73.9 L 31.39999999999999,73.5 C 30.09999999999999,73.5 28.29999999999999,73.3 26.999999999999993,72.8 C 25.199999999999992,72.1 24.799999999999994,70.8 22.39999999999999,71.0 C 21.09999999999999,71.0 19.29999999999999,72.3 19.29999999999999,73.6 C 19.49999999999999,74.5 20.19999999999999,75.1 19.69999999999999,76.19999999999999 C 18.99999999999999,78.39999999999999 16.399999999999988,79.69999999999999 17.899999999999988,82.79999999999998 C 18.099999999999987,83.19999999999999 18.299999999999986,83.49999999999999 18.599999999999987,83.89999999999998 C 18.999999999999986,84.09999999999998 19.499999999999986,84.29999999999998 20.099999999999987,84.59999999999998 C 22.999999999999986,84.99999999999999 23.399999999999988,84.19999999999997 25.799999999999986,83.49999999999999 L 39.59999999999999,80.19999999999999 L 41.59999999999999,80.19999999999999 L 48.59999999999999,79.79999999999998 L 53.59999999999999,79.59999999999998 L 62.999999999999986,79.79999999999998 L 64.99999999999999,80.19999999999999 L 68.49999999999999,80.39999999999999 L 70.49999999999999,80.8 L 71.79999999999998,81.0 L 73.09999999999998,81.2 C 75.09999999999998,81.4 77.29999999999998,81.4 79.19999999999997,82.3 C 80.99999999999997,82.7 82.49999999999997,84.5 84.19999999999997,83.0 C 85.69999999999997,81.9 85.69999999999997,79.3 84.89999999999998,77.7 C 84.19999999999997,76.8 83.59999999999998,76.60000000000001 83.39999999999998,75.7 C 82.69999999999997,74.4 84.09999999999998,73.3 84.09999999999998,72.4 C 84.6,69.8 81.3,69.8 79.8,70.3" fill="#ffffff" stroke="none" stroke-width="3.0px" /><path d="M 85.9,42.6 C 85.2,42.6 83.9,42.6 83.30000000000001,42.800000000000004 C 81.10000000000001,43.7 80.9,46.800000000000004 80.9,48.7 C 80.9,52.7 84.4,55.300000000000004 87.30000000000001,57.300000000000004 C 88.20000000000002,58.00000000000001 89.9,59.900000000000006 90.80000000000001,59.900000000000006 C 91.9,59.900000000000006 93.9,57.7 94.50000000000001,57.00000000000001 L 96.50000000000001,55.20000000000001 C 98.90000000000002,52.80000000000001 101.50000000000001,47.70000000000001 98.90000000000002,44.400000000000006 C 97.40000000000002,42.400000000000006 94.50000000000001,42.400000000000006 92.80000000000003,44.2 C 91.90000000000002,44.900000000000006 91.50000000000003,46.2 90.60000000000002,46.0 C 89.90000000000002,46.0 89.30000000000003,44.7 88.80000000000003,44.2 C 87.9,43.3 87.2,42.6 85.9,42.6" fill="#ffffff" stroke="none" stroke-width="3.0px" /></g></svg>