<?xml version="1.0" encoding="utf-8" ?>
<svg baseProfile="full" height="100px" version="1.1" width="150px" xmlns="http://www.w3.org/2000/svg"
     xmlns:ev="http://www.w3.org/2001/xml-events" xmlns:xlink="http://www.w3.org/1999/xlink">
    <defs>
        <clipPath id="mask0">
            <rect height="100" width="150" x="0" y="0"/>
        </clipPath>
    </defs>
    <g clip-path="url(#mask0)">
        <path d="M0,0 L150,100 L150,0 z" fill="#003897" stroke="none"/>
        <path d="M0,0 L150,100 L0,100 z" fill="#ff0000" stroke="none"/>
    </g>
    <g transform="translate(50.652001596615214, 25.652001596615214) scale(0.4869599680676957) rotate(0, 50.0, 50.0)">
        <path d="M 33.0,37.2 L 26.7,18.0 L 20.5,37.2 L 0.3,37.2 L 16.6,49.1 L 10.4,68.3 L 26.7,56.4 L 43.1,68.3 L 36.8,49.1 L 53.2,37.2 L 33.0,37.2"
              fill="#fff" stroke="none" stroke-width="3.0"/>
        <path d="M 71.7,21.3 L 75.1,27.1 L 75.7,20.4 L 82.3,18.8 L 76.1,16.2 L 76.7,9.5 L 72.3,14.6 L 66.1,11.9 L 69.5,17.7 L 65.1,22.8 L 71.7,21.3"
              fill="#fff" stroke="none" stroke-width="3.0"/>
        <path d="M 89.0,39.0 L 90.0,45.7 L 93.1,39.7 L 99.8,40.9 L 95.1,36.1 L 98.2,30.1 L 92.2,33.1 L 87.5,28.2 L 88.5,34.9 L 82.4,37.9 L 89.0,39.0"
              fill="#fff" stroke="none" stroke-width="3.0"/>
        <path d="M 95.0,65.3 L 100.3,61.2 L 93.6,61.4 L 91.3,55.1 L 89.4,61.6 L 82.7,61.8 L 88.3,65.6 L 86.4,72.0 L 91.7,67.9 L 97.3,71.7 L 95.0,65.3"
              fill="#fff" stroke="none" stroke-width="3.0"/>
        <path d="M 76.0,80.9 L 76.3,74.2 L 72.1,79.5 L 65.8,77.1 L 69.5,82.7 L 65.3,88.0 L 71.8,86.2 L 75.5,91.8 L 75.8,85.1 L 82.3,83.3 L 76.0,80.9"
              fill="#fff" stroke="none" stroke-width="3.0"/>
    </g>
</svg>