<?xml version="1.0" encoding="utf-8" ?>
<svg baseProfile="full" height="100px" version="1.1" width="150px" xmlns="http://www.w3.org/2000/svg" xmlns:ev="http://www.w3.org/2001/xml-events" xmlns:xlink="http://www.w3.org/1999/xlink"><defs><clipPath id="mask0"><rect height="100" width="150" x="0" y="0" /></clipPath></defs><g clip-path="url(#mask0)"><rect fill="#ffce00" height="100" stroke="none" width="150" x="0" y="0" /><rect fill="#e93d8c" height="100" stroke="none" width="44.07667043029533" x="0" y="0" /></g><g transform="translate(76.436542559005, 29.39820734385733) scale(0.4120358531228534) rotate(0, 50.0, 50.0)"><path d="M 78.3,0.0 L 74.2,7.2 L 84.5,7.2 L 65.3,26.4 C 48.2,13.6 24.0,16.2 10.0,32.4 C -4.0,48.599999999999994 -3.2,72.9 12.0,88.0 C 27.2,103.1 51.4,104.0 67.7,90.0 C 84.0,76.0 86.5,51.8 73.7,34.6 L 92.80000000000001,15.5 L 92.80000000000001,25.8 L 100.00000000000001,21.700000000000003 L 100.00000000000001,0.0 L 78.3,0.0 M 41.0,29.5 C 57.3,29.5 70.5,42.7 70.5,59.0 C 70.5,75.3 57.3,88.5 41.0,88.5 C 24.700000000000003,88.5 11.5,75.3 11.5,59.0 C 11.5,42.7 24.7,29.5 41.0,29.5 L 41.0,29.5" fill="#ff3333" stroke="none" stroke-width="2.0" /></g></svg>