<?xml version="1.0" encoding="utf-8" ?>
<svg baseProfile="full" height="100px" version="1.1" width="150px" xmlns="http://www.w3.org/2000/svg" xmlns:ev="http://www.w3.org/2001/xml-events" xmlns:xlink="http://www.w3.org/1999/xlink"><defs><clipPath id="mask0"><rect height="100" width="150" x="0" y="0" /></clipPath></defs><g clip-path="url(#mask0)"><rect fill="#ff3333" height="33.333333333333336" stroke="none" width="150" x="0" y="0.0" /><rect fill="#3366cc" height="33.333333333333336" stroke="none" width="150" x="0" y="33.333333333333336" /><rect fill="#ffffff" height="33.333333333333336" stroke="none" width="150" x="0" y="66.66666666666667" /></g><g transform="translate(54.53932086479277, 29.539320864792774) scale(0.40921358270414454) rotate(0, 50.0, 50.0)"><path d="M 73.7,6.0 C 77.3,10.9 79.5,17.0 79.5,23.5 C 79.5,39.8 66.3,53.0 50.0,53.0 C 37.0,53.0 26.5,63.5 26.5,76.5 C 26.5,89.1 36.4,99.3 48.8,100.0 C 49.199999999999996,100.0 49.599999999999994,100.0 50.0,100.0 C 77.6,100.0 100.0,77.6 100.0,50.0 C 100.0,31.0 89.4,14.4 73.7,6.0 M 50.0,86.5 C 44.5,86.5 40.0,82.0 40.0,76.5 C 40.0,71.0 44.5,66.5 50.0,66.5 C 55.5,66.5 60.0,71.0 60.0,76.5 C 60.0,82.0 55.5,86.5 50.0,86.5" fill="#fdef42" stroke="#7128f2" stroke-width="2.0" /><path d="M 50.0,47.0 C 63.0,47.0 73.5,36.5 73.5,23.5 C 73.5,10.9 63.6,0.6999999999999993 51.2,0.0 C 50.800000000000004,0.0 50.400000000000006,0.0 50.0,0.0 C 22.4,0.0 0.0,22.4 0.0,50.0 C 0.0,69.0 10.6,85.6 26.3,94.0 C 22.7,89.1 20.5,83.0 20.5,76.5 C 20.5,60.2 33.7,47.0 50.0,47.0 M 50.0,13.5 C 55.5,13.5 60.0,18.0 60.0,23.5 C 60.0,29.0 55.5,33.5 50.0,33.5 C 44.5,33.5 40.0,29.0 40.0,23.5 C 40.0,18.0 44.5,13.5 50.0,13.5" fill="#fdef42" stroke="#7128f2" stroke-width="2.0" /></g></svg>