<?xml version="1.0" encoding="utf-8" ?>
<svg baseProfile="full" height="100px" version="1.1" width="150px" xmlns="http://www.w3.org/2000/svg" xmlns:ev="http://www.w3.org/2001/xml-events" xmlns:xlink="http://www.w3.org/1999/xlink"><defs><clipPath id="mask0"><rect height="100" width="150" x="0" y="0" /></clipPath></defs><g clip-path="url(#mask0)"><rect fill="#ffce00" height="100" stroke="none" width="150" x="0" y="0" /><path d="M30.0,0 L130.05,100 L130.05,0 z" fill="#75197d" stroke="none" /></g><g transform="translate(8.16856460371503, -5.33143539628497) scale(0.10662870792569941) rotate(0, 50.0, 50.0)"><path d="M 46.1,89.9 C 43.9,87.5 38.6,82.80000000000001 34.2,79.5 C 21.0,69.5 19.3,68.1 13.9,63.2 C 4.1,54.2 0.0,45.1 0.0,32.9 C 0.0,26.9 0.4,24.599999999999998 2.1,21.099999999999998 C 4.9,15.099999999999998 9.1,10.599999999999998 14.5,7.899999999999999 C 18.3,5.999999999999998 20.2,5.099999999999999 26.5,5.099999999999999 C 33.1,5.099999999999999 34.5,5.799999999999999 38.4,7.999999999999998 C 43.199999999999996,10.599999999999998 48.0,16.199999999999996 49.099999999999994,20.199999999999996 L 49.699999999999996,22.599999999999994 L 51.199999999999996,19.199999999999996 C 60.0,0.1 87.8,0.4 97.5,19.6 C 100.6,25.700000000000003 100.9,38.7 98.2,46.1 C 94.6,55.7 87.9,63.0 72.5,74.2 C 62.4,81.5 51.0,92.6 50.2,94.2 C 49.3,96.0 50.1,94.5 46.1,89.9" fill="#e510a6" stroke="none" stroke-width="3.0px" /></g><g transform="translate(18.16856460371503, 4.66856460371503) scale(0.10662870792569941) rotate(0, 50.0, 50.0)"><path d="M 46.1,89.9 C 43.9,87.5 38.6,82.80000000000001 34.2,79.5 C 21.0,69.5 19.3,68.1 13.9,63.2 C 4.1,54.2 0.0,45.1 0.0,32.9 C 0.0,26.9 0.4,24.599999999999998 2.1,21.099999999999998 C 4.9,15.099999999999998 9.1,10.599999999999998 14.5,7.899999999999999 C 18.3,5.999999999999998 20.2,5.099999999999999 26.5,5.099999999999999 C 33.1,5.099999999999999 34.5,5.799999999999999 38.4,7.999999999999998 C 43.199999999999996,10.599999999999998 48.0,16.199999999999996 49.099999999999994,20.199999999999996 L 49.699999999999996,22.599999999999994 L 51.199999999999996,19.199999999999996 C 60.0,0.1 87.8,0.4 97.5,19.6 C 100.6,25.700000000000003 100.9,38.7 98.2,46.1 C 94.6,55.7 87.9,63.0 72.5,74.2 C 62.4,81.5 51.0,92.6 50.2,94.2 C 49.3,96.0 50.1,94.5 46.1,89.9" fill="#e510a6" stroke="none" stroke-width="3.0px" /></g><g transform="translate(28.16856460371503, 14.66856460371503) scale(0.10662870792569941) rotate(0, 50.0, 50.0)"><path d="M 46.1,89.9 C 43.9,87.5 38.6,82.80000000000001 34.2,79.5 C 21.0,69.5 19.3,68.1 13.9,63.2 C 4.1,54.2 0.0,45.1 0.0,32.9 C 0.0,26.9 0.4,24.599999999999998 2.1,21.099999999999998 C 4.9,15.099999999999998 9.1,10.599999999999998 14.5,7.899999999999999 C 18.3,5.999999999999998 20.2,5.099999999999999 26.5,5.099999999999999 C 33.1,5.099999999999999 34.5,5.799999999999999 38.4,7.999999999999998 C 43.199999999999996,10.599999999999998 48.0,16.199999999999996 49.099999999999994,20.199999999999996 L 49.699999999999996,22.599999999999994 L 51.199999999999996,19.199999999999996 C 60.0,0.1 87.8,0.4 97.5,19.6 C 100.6,25.700000000000003 100.9,38.7 98.2,46.1 C 94.6,55.7 87.9,63.0 72.5,74.2 C 62.4,81.5 51.0,92.6 50.2,94.2 C 49.3,96.0 50.1,94.5 46.1,89.9" fill="#e510a6" stroke="none" stroke-width="3.0px" /></g><g transform="translate(38.168564603715026, 24.66856460371503) scale(0.10662870792569941) rotate(0, 50.0, 50.0)"><path d="M 46.1,89.9 C 43.9,87.5 38.6,82.80000000000001 34.2,79.5 C 21.0,69.5 19.3,68.1 13.9,63.2 C 4.1,54.2 0.0,45.1 0.0,32.9 C 0.0,26.9 0.4,24.599999999999998 2.1,21.099999999999998 C 4.9,15.099999999999998 9.1,10.599999999999998 14.5,7.899999999999999 C 18.3,5.999999999999998 20.2,5.099999999999999 26.5,5.099999999999999 C 33.1,5.099999999999999 34.5,5.799999999999999 38.4,7.999999999999998 C 43.199999999999996,10.599999999999998 48.0,16.199999999999996 49.099999999999994,20.199999999999996 L 49.699999999999996,22.599999999999994 L 51.199999999999996,19.199999999999996 C 60.0,0.1 87.8,0.4 97.5,19.6 C 100.6,25.700000000000003 100.9,38.7 98.2,46.1 C 94.6,55.7 87.9,63.0 72.5,74.2 C 62.4,81.5 51.0,92.6 50.2,94.2 C 49.3,96.0 50.1,94.5 46.1,89.9" fill="#e510a6" stroke="none" stroke-width="3.0px" /></g><g transform="translate(48.168564603715026, 34.668564603715026) scale(0.10662870792569941) rotate(0, 50.0, 50.0)"><path d="M 46.1,89.9 C 43.9,87.5 38.6,82.80000000000001 34.2,79.5 C 21.0,69.5 19.3,68.1 13.9,63.2 C 4.1,54.2 0.0,45.1 0.0,32.9 C 0.0,26.9 0.4,24.599999999999998 2.1,21.099999999999998 C 4.9,15.099999999999998 9.1,10.599999999999998 14.5,7.899999999999999 C 18.3,5.999999999999998 20.2,5.099999999999999 26.5,5.099999999999999 C 33.1,5.099999999999999 34.5,5.799999999999999 38.4,7.999999999999998 C 43.199999999999996,10.599999999999998 48.0,16.199999999999996 49.099999999999994,20.199999999999996 L 49.699999999999996,22.599999999999994 L 51.199999999999996,19.199999999999996 C 60.0,0.1 87.8,0.4 97.5,19.6 C 100.6,25.700000000000003 100.9,38.7 98.2,46.1 C 94.6,55.7 87.9,63.0 72.5,74.2 C 62.4,81.5 51.0,92.6 50.2,94.2 C 49.3,96.0 50.1,94.5 46.1,89.9" fill="#e510a6" stroke="none" stroke-width="3.0px" /></g><g transform="translate(58.168564603715026, 44.668564603715026) scale(0.10662870792569941) rotate(0, 50.0, 50.0)"><path d="M 46.1,89.9 C 43.9,87.5 38.6,82.80000000000001 34.2,79.5 C 21.0,69.5 19.3,68.1 13.9,63.2 C 4.1,54.2 0.0,45.1 0.0,32.9 C 0.0,26.9 0.4,24.599999999999998 2.1,21.099999999999998 C 4.9,15.099999999999998 9.1,10.599999999999998 14.5,7.899999999999999 C 18.3,5.999999999999998 20.2,5.099999999999999 26.5,5.099999999999999 C 33.1,5.099999999999999 34.5,5.799999999999999 38.4,7.999999999999998 C 43.199999999999996,10.599999999999998 48.0,16.199999999999996 49.099999999999994,20.199999999999996 L 49.699999999999996,22.599999999999994 L 51.199999999999996,19.199999999999996 C 60.0,0.1 87.8,0.4 97.5,19.6 C 100.6,25.700000000000003 100.9,38.7 98.2,46.1 C 94.6,55.7 87.9,63.0 72.5,74.2 C 62.4,81.5 51.0,92.6 50.2,94.2 C 49.3,96.0 50.1,94.5 46.1,89.9" fill="#e510a6" stroke="none" stroke-width="3.0px" /></g><g transform="translate(68.16856460371503, 54.668564603715026) scale(0.10662870792569941) rotate(0, 50.0, 50.0)"><path d="M 46.1,89.9 C 43.9,87.5 38.6,82.80000000000001 34.2,79.5 C 21.0,69.5 19.3,68.1 13.9,63.2 C 4.1,54.2 0.0,45.1 0.0,32.9 C 0.0,26.9 0.4,24.599999999999998 2.1,21.099999999999998 C 4.9,15.099999999999998 9.1,10.599999999999998 14.5,7.899999999999999 C 18.3,5.999999999999998 20.2,5.099999999999999 26.5,5.099999999999999 C 33.1,5.099999999999999 34.5,5.799999999999999 38.4,7.999999999999998 C 43.199999999999996,10.599999999999998 48.0,16.199999999999996 49.099999999999994,20.199999999999996 L 49.699999999999996,22.599999999999994 L 51.199999999999996,19.199999999999996 C 60.0,0.1 87.8,0.4 97.5,19.6 C 100.6,25.700000000000003 100.9,38.7 98.2,46.1 C 94.6,55.7 87.9,63.0 72.5,74.2 C 62.4,81.5 51.0,92.6 50.2,94.2 C 49.3,96.0 50.1,94.5 46.1,89.9" fill="#e510a6" stroke="none" stroke-width="3.0px" /></g><g transform="translate(78.16856460371503, 64.66856460371503) scale(0.10662870792569941) rotate(0, 50.0, 50.0)"><path d="M 46.1,89.9 C 43.9,87.5 38.6,82.80000000000001 34.2,79.5 C 21.0,69.5 19.3,68.1 13.9,63.2 C 4.1,54.2 0.0,45.1 0.0,32.9 C 0.0,26.9 0.4,24.599999999999998 2.1,21.099999999999998 C 4.9,15.099999999999998 9.1,10.599999999999998 14.5,7.899999999999999 C 18.3,5.999999999999998 20.2,5.099999999999999 26.5,5.099999999999999 C 33.1,5.099999999999999 34.5,5.799999999999999 38.4,7.999999999999998 C 43.199999999999996,10.599999999999998 48.0,16.199999999999996 49.099999999999994,20.199999999999996 L 49.699999999999996,22.599999999999994 L 51.199999999999996,19.199999999999996 C 60.0,0.1 87.8,0.4 97.5,19.6 C 100.6,25.700000000000003 100.9,38.7 98.2,46.1 C 94.6,55.7 87.9,63.0 72.5,74.2 C 62.4,81.5 51.0,92.6 50.2,94.2 C 49.3,96.0 50.1,94.5 46.1,89.9" fill="#e510a6" stroke="none" stroke-width="3.0px" /></g><g transform="translate(88.16856460371503, 74.66856460371503) scale(0.10662870792569941) rotate(0, 50.0, 50.0)"><path d="M 46.1,89.9 C 43.9,87.5 38.6,82.80000000000001 34.2,79.5 C 21.0,69.5 19.3,68.1 13.9,63.2 C 4.1,54.2 0.0,45.1 0.0,32.9 C 0.0,26.9 0.4,24.599999999999998 2.1,21.099999999999998 C 4.9,15.099999999999998 9.1,10.599999999999998 14.5,7.899999999999999 C 18.3,5.999999999999998 20.2,5.099999999999999 26.5,5.099999999999999 C 33.1,5.099999999999999 34.5,5.799999999999999 38.4,7.999999999999998 C 43.199999999999996,10.599999999999998 48.0,16.199999999999996 49.099999999999994,20.199999999999996 L 49.699999999999996,22.599999999999994 L 51.199999999999996,19.199999999999996 C 60.0,0.1 87.8,0.4 97.5,19.6 C 100.6,25.700000000000003 100.9,38.7 98.2,46.1 C 94.6,55.7 87.9,63.0 72.5,74.2 C 62.4,81.5 51.0,92.6 50.2,94.2 C 49.3,96.0 50.1,94.5 46.1,89.9" fill="#e510a6" stroke="none" stroke-width="3.0px" /></g><g transform="translate(98.16856460371503, 84.66856460371503) scale(0.10662870792569941) rotate(0, 50.0, 50.0)"><path d="M 46.1,89.9 C 43.9,87.5 38.6,82.80000000000001 34.2,79.5 C 21.0,69.5 19.3,68.1 13.9,63.2 C 4.1,54.2 0.0,45.1 0.0,32.9 C 0.0,26.9 0.4,24.599999999999998 2.1,21.099999999999998 C 4.9,15.099999999999998 9.1,10.599999999999998 14.5,7.899999999999999 C 18.3,5.999999999999998 20.2,5.099999999999999 26.5,5.099999999999999 C 33.1,5.099999999999999 34.5,5.799999999999999 38.4,7.999999999999998 C 43.199999999999996,10.599999999999998 48.0,16.199999999999996 49.099999999999994,20.199999999999996 L 49.699999999999996,22.599999999999994 L 51.199999999999996,19.199999999999996 C 60.0,0.1 87.8,0.4 97.5,19.6 C 100.6,25.700000000000003 100.9,38.7 98.2,46.1 C 94.6,55.7 87.9,63.0 72.5,74.2 C 62.4,81.5 51.0,92.6 50.2,94.2 C 49.3,96.0 50.1,94.5 46.1,89.9" fill="#e510a6" stroke="none" stroke-width="3.0px" /></g><g transform="translate(108.16856460371503, 94.66856460371503) scale(0.10662870792569941) rotate(0, 50.0, 50.0)"><path d="M 46.1,89.9 C 43.9,87.5 38.6,82.80000000000001 34.2,79.5 C 21.0,69.5 19.3,68.1 13.9,63.2 C 4.1,54.2 0.0,45.1 0.0,32.9 C 0.0,26.9 0.4,24.599999999999998 2.1,21.099999999999998 C 4.9,15.099999999999998 9.1,10.599999999999998 14.5,7.899999999999999 C 18.3,5.999999999999998 20.2,5.099999999999999 26.5,5.099999999999999 C 33.1,5.099999999999999 34.5,5.799999999999999 38.4,7.999999999999998 C 43.199999999999996,10.599999999999998 48.0,16.199999999999996 49.099999999999994,20.199999999999996 L 49.699999999999996,22.599999999999994 L 51.199999999999996,19.199999999999996 C 60.0,0.1 87.8,0.4 97.5,19.6 C 100.6,25.700000000000003 100.9,38.7 98.2,46.1 C 94.6,55.7 87.9,63.0 72.5,74.2 C 62.4,81.5 51.0,92.6 50.2,94.2 C 49.3,96.0 50.1,94.5 46.1,89.9" fill="#e510a6" stroke="none" stroke-width="3.0px" /></g></svg>