<?xml version="1.0" encoding="utf-8" ?>
<svg baseProfile="full" height="100px" version="1.1" width="150px" xmlns="http://www.w3.org/2000/svg" xmlns:ev="http://www.w3.org/2001/xml-events" xmlns:xlink="http://www.w3.org/1999/xlink"><defs><clipPath id="mask0"><rect height="100" width="150" x="0" y="0" /></clipPath><clipPath id="mask1"><rect height="50.0" width="75.0" x="0" y="0" /></clipPath></defs><g clip-path="url(#mask0)"><rect fill="#fcdc04" height="100" stroke="none" width="150" x="0" y="0" /></g><g clip-path="url(#mask1)"><rect fill="#ff0032" height="50.0" stroke="none" width="25.0" x="0.0" y="0" /><rect fill="#ffffff" height="50.0" stroke="none" width="25.0" x="25.0" y="0" /><rect fill="#ff1ea8" height="50.0" stroke="none" width="25.0" x="50.0" y="0" /></g><g transform="translate(26.112222181542492, 13.61222218154249) scale(0.2277555563691502) rotate(0, 25.0, 25.0)"><path d="M 46.1,89.9 C 43.9,87.5 38.6,82.80000000000001 34.2,79.5 C 21.0,69.5 19.3,68.1 13.9,63.2 C 4.1,54.2 0.0,45.1 0.0,32.9 C 0.0,26.9 0.4,24.599999999999998 2.1,21.099999999999998 C 4.9,15.099999999999998 9.1,10.599999999999998 14.5,7.899999999999999 C 18.3,5.999999999999998 20.2,5.099999999999999 26.5,5.099999999999999 C 33.1,5.099999999999999 34.5,5.799999999999999 38.4,7.999999999999998 C 43.199999999999996,10.599999999999998 48.0,16.199999999999996 49.099999999999994,20.199999999999996 L 49.699999999999996,22.599999999999994 L 51.199999999999996,19.199999999999996 C 60.0,0.1 87.8,0.4 97.5,19.6 C 100.6,25.700000000000003 100.9,38.7 98.2,46.1 C 94.6,55.7 87.9,63.0 72.5,74.2 C 62.4,81.5 51.0,92.6 50.2,94.2 C 49.3,96.0 50.1,94.5 46.1,89.9" fill="#fec50c" stroke="none" stroke-width="1.5" /></g><g transform="translate(85.74497750682376, 23.244977506823755) scale(0.5351004498635249) rotate(0, 50.0, 50.0)"><path d="M 11.0,67.0 C 8.0,66.9 5.6,66.1 3.7,64.6 C 3.3000000000000003,64.3 2.5,63.49999999999999 2.2,63.099999999999994 C 1.4000000000000001,62.099999999999994 0.9000000000000001,61.199999999999996 0.6000000000000001,60.199999999999996 C -0.5,56.99999999999999 0.10000000000000009,52.8 2.2,48.199999999999996 C 4.0,44.199999999999996 6.8,40.3 11.7,34.89999999999999 C 12.399999999999999,34.099999999999994 14.6,31.79999999999999 14.6,31.79999999999999 C 14.6,31.79999999999999 14.5,31.99999999999999 14.299999999999999,32.19999999999999 C 12.999999999999998,34.29999999999999 12.0,36.79999999999999 11.399999999999999,38.89999999999999 C 10.499999999999998,42.29999999999999 10.599999999999998,45.29999999999999 11.7,47.599999999999994 C 12.5,49.199999999999996 13.899999999999999,50.49999999999999 15.399999999999999,51.3 C 18.099999999999998,52.599999999999994 22.099999999999998,52.699999999999996 27.0,51.599999999999994 C 27.3,51.49999999999999 43.9,47.199999999999996 63.9,41.89999999999999 C 83.8,36.599999999999994 100.1,32.29999999999999 100.19999999999999,32.29999999999999 C 100.19999999999999,32.29999999999999 53.89999999999999,51.999999999999986 29.799999999999983,62.19999999999999 C 25.999999999999982,63.79999999999999 24.999999999999982,64.19999999999999 23.19999999999998,64.79999999999998 C 18.4,66.4 14.3,67.1 11.0,67.0 L 11.0,67.0" fill="#229e45" stroke="none" stroke-width="3.0" /></g></svg>