<?xml version="1.0" encoding="utf-8" ?>
<svg baseProfile="full" height="100px" version="1.1" width="150px" xmlns="http://www.w3.org/2000/svg" xmlns:ev="http://www.w3.org/2001/xml-events" xmlns:xlink="http://www.w3.org/1999/xlink"><defs><clipPath id="mask0"><rect height="100" width="150" x="0" y="0" /></clipPath></defs><g clip-path="url(#mask0)"><path d="M0,0 L113.58683685561543,97.96953859815716 L141.63752765085192,-49.38431695340292 z" fill="#0039a6" stroke="none" transform="translate(75.0, 50.0)" /><path d="M0,0 L141.63752765085192,-49.38431695340292 L28.050690795236537,-147.3538555515601 z" fill="#ffffff" stroke="none" transform="translate(75.0, 50.0)" /><path d="M0,0 L28.050690795236537,-147.3538555515601 L-113.58683685561545,-97.96953859815713 z" fill="#0039a6" stroke="none" transform="translate(75.0, 50.0)" /><path d="M0,0 L-113.58683685561545,-97.96953859815713 L-141.63752765085192,49.38431695340291 z" fill="#ffffff" stroke="none" transform="translate(75.0, 50.0)" /><path d="M0,0 L-141.63752765085192,49.38431695340291 L-28.050690795236555,147.3538555515601 z" fill="#0039a6" stroke="none" transform="translate(75.0, 50.0)" /><path d="M0,0 L-28.050690795236555,147.3538555515601 L113.58683685561543,97.96953859815716 z" fill="#ffffff" stroke="none" transform="translate(75.0, 50.0)" /><rect fill="#d0a650" height="50.0" stroke="none" width="75.0" x="0" y="50.0" /><rect fill="#d0a650" height="50.0" stroke="none" width="75.0" x="75.0" y="0" /></g></svg>