<?xml version="1.0" encoding="utf-8" ?>
<svg baseProfile="full" height="100px" version="1.1" width="150px" xmlns="http://www.w3.org/2000/svg" xmlns:ev="http://www.w3.org/2001/xml-events" xmlns:xlink="http://www.w3.org/1999/xlink"><defs><clipPath id="mask0"><rect height="100" width="150" x="0" y="0" /></clipPath></defs><g clip-path="url(#mask0)"><rect fill="#ff3333" height="7.142857142857143" stroke="none" width="150" x="0" y="0.0" /><rect fill="#0099cc" height="7.142857142857143" stroke="none" width="150" x="0" y="7.142857142857143" /><rect fill="#ff3333" height="7.142857142857143" stroke="none" width="150" x="0" y="14.285714285714286" /><rect fill="#0099cc" height="7.142857142857143" stroke="none" width="150" x="0" y="21.428571428571427" /><rect fill="#ff3333" height="7.142857142857143" stroke="none" width="150" x="0" y="28.571428571428573" /><rect fill="#0099cc" height="7.142857142857143" stroke="none" width="150" x="0" y="35.714285714285715" /><rect fill="#ff3333" height="7.142857142857143" stroke="none" width="150" x="0" y="42.857142857142854" /><rect fill="#0099cc" height="7.142857142857143" stroke="none" width="150" x="0" y="50.0" /><rect fill="#ff3333" height="7.142857142857143" stroke="none" width="150" x="0" y="57.142857142857146" /><rect fill="#0099cc" height="7.142857142857143" stroke="none" width="150" x="0" y="64.28571428571429" /><rect fill="#ff3333" height="7.142857142857143" stroke="none" width="150" x="0" y="71.42857142857143" /><rect fill="#0099cc" height="7.142857142857143" stroke="none" width="150" x="0" y="78.57142857142857" /><rect fill="#ff3333" height="7.142857142857143" stroke="none" width="150" x="0" y="85.71428571428571" /><rect fill="#0099cc" height="7.142857142857143" stroke="none" width="150" x="0" y="92.85714285714286" /></g><g id="empty" /></svg>