<?xml version="1.0" encoding="utf-8" ?>
<svg baseProfile="full" height="100px" version="1.1" width="150px" xmlns="http://www.w3.org/2000/svg" xmlns:ev="http://www.w3.org/2001/xml-events" xmlns:xlink="http://www.w3.org/1999/xlink"><defs><clipPath id="mask0"><rect height="100" width="150" x="0" y="0" /></clipPath></defs><g clip-path="url(#mask0)"><rect fill="#fcdc04" height="100" stroke="none" width="150" x="0" y="0" /></g><g transform="translate(24.619173411919537, 37.11917341191953) scale(0.25761653176160926) rotate(0, 50.0, 50.0)"><path d="M 39.9,90.8 C 38.9,90.7 38.0,90.6 37.1,90.5 L 32.1,89.8 L 29.0,89.2 C 28.0,89.0 27.0,88.8 26.0,88.60000000000001 C 25.0,88.4 24.0,88.10000000000001 23.1,87.9 L 22.0,87.6 L 22.0,68.4 L 27.4,68.80000000000001 L 31.4,69.00000000000001 L 35.6,69.20000000000002 L 39.800000000000004,69.30000000000001 L 43.900000000000006,69.4 L 47.7,69.4 C 48.900000000000006,69.4 49.900000000000006,69.4 50.800000000000004,69.30000000000001 C 51.6,69.20000000000002 52.400000000000006,69.10000000000001 53.2,68.9 C 53.800000000000004,68.80000000000001 54.400000000000006,68.60000000000001 54.900000000000006,68.30000000000001 C 55.300000000000004,68.10000000000001 55.60000000000001,67.9 55.900000000000006,67.60000000000001 C 56.10000000000001,67.4 56.300000000000004,67.10000000000001 56.400000000000006,66.80000000000001 C 56.50000000000001,66.4 56.60000000000001,66.00000000000001 56.60000000000001,65.50000000000001 L 56.60000000000001,64.30000000000001 C 56.70000000000001,63.40000000000001 56.30000000000001,62.60000000000001 55.60000000000001,62.10000000000001 C 55.20000000000001,61.80000000000001 54.70000000000001,61.60000000000001 54.30000000000001,61.400000000000006 C 53.80000000000001,61.2 53.20000000000001,61.2 52.70000000000001,61.2 L 47.10000000000001,61.2 C 43.30000000000001,61.300000000000004 39.50000000000001,60.800000000000004 35.900000000000006,59.800000000000004 C 32.800000000000004,59.00000000000001 29.900000000000006,57.50000000000001 27.500000000000007,55.400000000000006 C 25.10000000000001,53.300000000000004 23.300000000000008,50.60000000000001 22.300000000000008,47.50000000000001 C 21.10000000000001,43.800000000000004 20.500000000000007,40.00000000000001 20.60000000000001,36.10000000000001 L 20.60000000000001,32.60000000000001 C 20.500000000000007,28.90000000000001 21.20000000000001,25.300000000000008 22.500000000000007,21.800000000000008 C 23.700000000000006,18.700000000000006 25.700000000000006,16.000000000000007 28.200000000000006,13.900000000000007 C 29.900000000000006,12.400000000000007 31.800000000000008,11.200000000000006 33.800000000000004,10.200000000000006 C 35.7,9.300000000000006 37.800000000000004,8.700000000000006 39.900000000000006,8.400000000000006 L 39.900000000000006,0.0 L 57.7,0.0 L 57.7,8.2 C 60.400000000000006,8.399999999999999 63.1,8.799999999999999 65.8,9.399999999999999 L 67.3,9.7 C 68.5,9.899999999999999 69.8,10.2 71.0,10.399999999999999 C 72.2,10.7 73.3,10.899999999999999 74.3,11.099999999999998 L 75.5,11.399999999999999 L 75.5,30.7 L 73.8,30.599999999999998 C 72.1,30.499999999999996 70.39999999999999,30.299999999999997 68.7,30.2 C 66.8,30.099999999999998 64.9,30.0 62.900000000000006,29.9 C 60.900000000000006,29.799999999999997 58.900000000000006,29.7 57.10000000000001,29.7 C 55.50000000000001,29.7 53.70000000000001,29.599999999999998 51.900000000000006,29.599999999999998 C 50.900000000000006,29.599999999999998 50.00000000000001,29.599999999999998 49.2,29.7 C 48.400000000000006,29.8 47.6,29.9 46.900000000000006,30.0 C 46.300000000000004,30.1 45.800000000000004,30.3 45.300000000000004,30.5 C 44.900000000000006,30.7 44.50000000000001,30.9 44.2,31.2 C 43.900000000000006,31.5 43.7,31.8 43.6,32.2 C 43.4,32.7 43.4,33.300000000000004 43.4,33.800000000000004 L 43.4,34.900000000000006 C 43.4,35.50000000000001 43.5,36.10000000000001 43.699999999999996,36.60000000000001 C 43.9,37.00000000000001 44.199999999999996,37.400000000000006 44.49999999999999,37.70000000000001 C 44.99999999999999,38.10000000000001 45.49999999999999,38.30000000000001 46.099999999999994,38.40000000000001 C 46.99999999999999,38.600000000000016 47.89999999999999,38.70000000000001 48.699999999999996,38.70000000000001 L 55.699999999999996,38.70000000000001 C 58.099999999999994,38.70000000000001 60.49999999999999,38.90000000000001 62.8,39.40000000000001 C 64.89999999999999,39.90000000000001 66.89999999999999,40.600000000000016 68.8,41.70000000000001 C 72.2,43.60000000000001 75.0,46.50000000000001 76.8,50.000000000000014 C 77.7,51.70000000000002 78.39999999999999,53.600000000000016 78.8,55.500000000000014 C 79.2,57.500000000000014 79.5,59.600000000000016 79.5,61.70000000000002 L 79.5,65.20000000000002 C 79.5,68.30000000000001 79.2,71.40000000000002 78.5,74.40000000000002 C 78.0,76.90000000000002 77.0,79.30000000000003 75.7,81.40000000000002 C 74.5,83.30000000000003 72.9,85.00000000000001 71.10000000000001,86.30000000000003 C 69.2,87.60000000000002 67.10000000000001,88.60000000000002 64.9,89.30000000000003 L 64.30000000000001,89.50000000000003 C 62.20000000000001,90.20000000000003 60.000000000000014,90.70000000000003 57.80000000000001,90.90000000000003 L 57.80000000000001,100.10000000000004 L 39.9,100.10000000000004 L 39.9,90.8" fill="#339933" stroke="none" stroke-width="2.0px" /></g><g transform="translate(62.11917341191953, 37.11917341191953) scale(0.25761653176160926) rotate(0, 50.0, 50.0)"><path d="M 39.9,90.8 C 38.9,90.7 38.0,90.6 37.1,90.5 L 32.1,89.8 L 29.0,89.2 C 28.0,89.0 27.0,88.8 26.0,88.60000000000001 C 25.0,88.4 24.0,88.10000000000001 23.1,87.9 L 22.0,87.6 L 22.0,68.4 L 27.4,68.80000000000001 L 31.4,69.00000000000001 L 35.6,69.20000000000002 L 39.800000000000004,69.30000000000001 L 43.900000000000006,69.4 L 47.7,69.4 C 48.900000000000006,69.4 49.900000000000006,69.4 50.800000000000004,69.30000000000001 C 51.6,69.20000000000002 52.400000000000006,69.10000000000001 53.2,68.9 C 53.800000000000004,68.80000000000001 54.400000000000006,68.60000000000001 54.900000000000006,68.30000000000001 C 55.300000000000004,68.10000000000001 55.60000000000001,67.9 55.900000000000006,67.60000000000001 C 56.10000000000001,67.4 56.300000000000004,67.10000000000001 56.400000000000006,66.80000000000001 C 56.50000000000001,66.4 56.60000000000001,66.00000000000001 56.60000000000001,65.50000000000001 L 56.60000000000001,64.30000000000001 C 56.70000000000001,63.40000000000001 56.30000000000001,62.60000000000001 55.60000000000001,62.10000000000001 C 55.20000000000001,61.80000000000001 54.70000000000001,61.60000000000001 54.30000000000001,61.400000000000006 C 53.80000000000001,61.2 53.20000000000001,61.2 52.70000000000001,61.2 L 47.10000000000001,61.2 C 43.30000000000001,61.300000000000004 39.50000000000001,60.800000000000004 35.900000000000006,59.800000000000004 C 32.800000000000004,59.00000000000001 29.900000000000006,57.50000000000001 27.500000000000007,55.400000000000006 C 25.10000000000001,53.300000000000004 23.300000000000008,50.60000000000001 22.300000000000008,47.50000000000001 C 21.10000000000001,43.800000000000004 20.500000000000007,40.00000000000001 20.60000000000001,36.10000000000001 L 20.60000000000001,32.60000000000001 C 20.500000000000007,28.90000000000001 21.20000000000001,25.300000000000008 22.500000000000007,21.800000000000008 C 23.700000000000006,18.700000000000006 25.700000000000006,16.000000000000007 28.200000000000006,13.900000000000007 C 29.900000000000006,12.400000000000007 31.800000000000008,11.200000000000006 33.800000000000004,10.200000000000006 C 35.7,9.300000000000006 37.800000000000004,8.700000000000006 39.900000000000006,8.400000000000006 L 39.900000000000006,0.0 L 57.7,0.0 L 57.7,8.2 C 60.400000000000006,8.399999999999999 63.1,8.799999999999999 65.8,9.399999999999999 L 67.3,9.7 C 68.5,9.899999999999999 69.8,10.2 71.0,10.399999999999999 C 72.2,10.7 73.3,10.899999999999999 74.3,11.099999999999998 L 75.5,11.399999999999999 L 75.5,30.7 L 73.8,30.599999999999998 C 72.1,30.499999999999996 70.39999999999999,30.299999999999997 68.7,30.2 C 66.8,30.099999999999998 64.9,30.0 62.900000000000006,29.9 C 60.900000000000006,29.799999999999997 58.900000000000006,29.7 57.10000000000001,29.7 C 55.50000000000001,29.7 53.70000000000001,29.599999999999998 51.900000000000006,29.599999999999998 C 50.900000000000006,29.599999999999998 50.00000000000001,29.599999999999998 49.2,29.7 C 48.400000000000006,29.8 47.6,29.9 46.900000000000006,30.0 C 46.300000000000004,30.1 45.800000000000004,30.3 45.300000000000004,30.5 C 44.900000000000006,30.7 44.50000000000001,30.9 44.2,31.2 C 43.900000000000006,31.5 43.7,31.8 43.6,32.2 C 43.4,32.7 43.4,33.300000000000004 43.4,33.800000000000004 L 43.4,34.900000000000006 C 43.4,35.50000000000001 43.5,36.10000000000001 43.699999999999996,36.60000000000001 C 43.9,37.00000000000001 44.199999999999996,37.400000000000006 44.49999999999999,37.70000000000001 C 44.99999999999999,38.10000000000001 45.49999999999999,38.30000000000001 46.099999999999994,38.40000000000001 C 46.99999999999999,38.600000000000016 47.89999999999999,38.70000000000001 48.699999999999996,38.70000000000001 L 55.699999999999996,38.70000000000001 C 58.099999999999994,38.70000000000001 60.49999999999999,38.90000000000001 62.8,39.40000000000001 C 64.89999999999999,39.90000000000001 66.89999999999999,40.600000000000016 68.8,41.70000000000001 C 72.2,43.60000000000001 75.0,46.50000000000001 76.8,50.000000000000014 C 77.7,51.70000000000002 78.39999999999999,53.600000000000016 78.8,55.500000000000014 C 79.2,57.500000000000014 79.5,59.600000000000016 79.5,61.70000000000002 L 79.5,65.20000000000002 C 79.5,68.30000000000001 79.2,71.40000000000002 78.5,74.40000000000002 C 78.0,76.90000000000002 77.0,79.30000000000003 75.7,81.40000000000002 C 74.5,83.30000000000003 72.9,85.00000000000001 71.10000000000001,86.30000000000003 C 69.2,87.60000000000002 67.10000000000001,88.60000000000002 64.9,89.30000000000003 L 64.30000000000001,89.50000000000003 C 62.20000000000001,90.20000000000003 60.000000000000014,90.70000000000003 57.80000000000001,90.90000000000003 L 57.80000000000001,100.10000000000004 L 39.9,100.10000000000004 L 39.9,90.8" fill="#339933" stroke="none" stroke-width="2.0px" /></g><g transform="translate(99.61917341191953, 37.11917341191953) scale(0.25761653176160926) rotate(0, 50.0, 50.0)"><path d="M 39.9,90.8 C 38.9,90.7 38.0,90.6 37.1,90.5 L 32.1,89.8 L 29.0,89.2 C 28.0,89.0 27.0,88.8 26.0,88.60000000000001 C 25.0,88.4 24.0,88.10000000000001 23.1,87.9 L 22.0,87.6 L 22.0,68.4 L 27.4,68.80000000000001 L 31.4,69.00000000000001 L 35.6,69.20000000000002 L 39.800000000000004,69.30000000000001 L 43.900000000000006,69.4 L 47.7,69.4 C 48.900000000000006,69.4 49.900000000000006,69.4 50.800000000000004,69.30000000000001 C 51.6,69.20000000000002 52.400000000000006,69.10000000000001 53.2,68.9 C 53.800000000000004,68.80000000000001 54.400000000000006,68.60000000000001 54.900000000000006,68.30000000000001 C 55.300000000000004,68.10000000000001 55.60000000000001,67.9 55.900000000000006,67.60000000000001 C 56.10000000000001,67.4 56.300000000000004,67.10000000000001 56.400000000000006,66.80000000000001 C 56.50000000000001,66.4 56.60000000000001,66.00000000000001 56.60000000000001,65.50000000000001 L 56.60000000000001,64.30000000000001 C 56.70000000000001,63.40000000000001 56.30000000000001,62.60000000000001 55.60000000000001,62.10000000000001 C 55.20000000000001,61.80000000000001 54.70000000000001,61.60000000000001 54.30000000000001,61.400000000000006 C 53.80000000000001,61.2 53.20000000000001,61.2 52.70000000000001,61.2 L 47.10000000000001,61.2 C 43.30000000000001,61.300000000000004 39.50000000000001,60.800000000000004 35.900000000000006,59.800000000000004 C 32.800000000000004,59.00000000000001 29.900000000000006,57.50000000000001 27.500000000000007,55.400000000000006 C 25.10000000000001,53.300000000000004 23.300000000000008,50.60000000000001 22.300000000000008,47.50000000000001 C 21.10000000000001,43.800000000000004 20.500000000000007,40.00000000000001 20.60000000000001,36.10000000000001 L 20.60000000000001,32.60000000000001 C 20.500000000000007,28.90000000000001 21.20000000000001,25.300000000000008 22.500000000000007,21.800000000000008 C 23.700000000000006,18.700000000000006 25.700000000000006,16.000000000000007 28.200000000000006,13.900000000000007 C 29.900000000000006,12.400000000000007 31.800000000000008,11.200000000000006 33.800000000000004,10.200000000000006 C 35.7,9.300000000000006 37.800000000000004,8.700000000000006 39.900000000000006,8.400000000000006 L 39.900000000000006,0.0 L 57.7,0.0 L 57.7,8.2 C 60.400000000000006,8.399999999999999 63.1,8.799999999999999 65.8,9.399999999999999 L 67.3,9.7 C 68.5,9.899999999999999 69.8,10.2 71.0,10.399999999999999 C 72.2,10.7 73.3,10.899999999999999 74.3,11.099999999999998 L 75.5,11.399999999999999 L 75.5,30.7 L 73.8,30.599999999999998 C 72.1,30.499999999999996 70.39999999999999,30.299999999999997 68.7,30.2 C 66.8,30.099999999999998 64.9,30.0 62.900000000000006,29.9 C 60.900000000000006,29.799999999999997 58.900000000000006,29.7 57.10000000000001,29.7 C 55.50000000000001,29.7 53.70000000000001,29.599999999999998 51.900000000000006,29.599999999999998 C 50.900000000000006,29.599999999999998 50.00000000000001,29.599999999999998 49.2,29.7 C 48.400000000000006,29.8 47.6,29.9 46.900000000000006,30.0 C 46.300000000000004,30.1 45.800000000000004,30.3 45.300000000000004,30.5 C 44.900000000000006,30.7 44.50000000000001,30.9 44.2,31.2 C 43.900000000000006,31.5 43.7,31.8 43.6,32.2 C 43.4,32.7 43.4,33.300000000000004 43.4,33.800000000000004 L 43.4,34.900000000000006 C 43.4,35.50000000000001 43.5,36.10000000000001 43.699999999999996,36.60000000000001 C 43.9,37.00000000000001 44.199999999999996,37.400000000000006 44.49999999999999,37.70000000000001 C 44.99999999999999,38.10000000000001 45.49999999999999,38.30000000000001 46.099999999999994,38.40000000000001 C 46.99999999999999,38.600000000000016 47.89999999999999,38.70000000000001 48.699999999999996,38.70000000000001 L 55.699999999999996,38.70000000000001 C 58.099999999999994,38.70000000000001 60.49999999999999,38.90000000000001 62.8,39.40000000000001 C 64.89999999999999,39.90000000000001 66.89999999999999,40.600000000000016 68.8,41.70000000000001 C 72.2,43.60000000000001 75.0,46.50000000000001 76.8,50.000000000000014 C 77.7,51.70000000000002 78.39999999999999,53.600000000000016 78.8,55.500000000000014 C 79.2,57.500000000000014 79.5,59.600000000000016 79.5,61.70000000000002 L 79.5,65.20000000000002 C 79.5,68.30000000000001 79.2,71.40000000000002 78.5,74.40000000000002 C 78.0,76.90000000000002 77.0,79.30000000000003 75.7,81.40000000000002 C 74.5,83.30000000000003 72.9,85.00000000000001 71.10000000000001,86.30000000000003 C 69.2,87.60000000000002 67.10000000000001,88.60000000000002 64.9,89.30000000000003 L 64.30000000000001,89.50000000000003 C 62.20000000000001,90.20000000000003 60.000000000000014,90.70000000000003 57.80000000000001,90.90000000000003 L 57.80000000000001,100.10000000000004 L 39.9,100.10000000000004 L 39.9,90.8" fill="#339933" stroke="none" stroke-width="2.0px" /></g></svg>