<?xml version="1.0" encoding="utf-8" ?>
<svg baseProfile="full" height="100px" version="1.1" width="150px" xmlns="http://www.w3.org/2000/svg" xmlns:ev="http://www.w3.org/2001/xml-events" xmlns:xlink="http://www.w3.org/1999/xlink"><defs><clipPath id="mask0"><rect height="100" width="150" x="0" y="0" /></clipPath><clipPath id="mask1"><rect height="50.0" width="75.0" x="0" y="0" /></clipPath></defs><g clip-path="url(#mask0)"><rect fill="#ff3333" height="10.0" stroke="none" width="150" x="0" y="0.0" /><rect fill="#339933" height="10.0" stroke="none" width="150" x="0" y="10.0" /><rect fill="#ff3333" height="10.0" stroke="none" width="150" x="0" y="20.0" /><rect fill="#339933" height="10.0" stroke="none" width="150" x="0" y="30.0" /><rect fill="#ff3333" height="10.0" stroke="none" width="150" x="0" y="40.0" /><rect fill="#339933" height="10.0" stroke="none" width="150" x="0" y="50.0" /><rect fill="#ff3333" height="10.0" stroke="none" width="150" x="0" y="60.0" /><rect fill="#339933" height="10.0" stroke="none" width="150" x="0" y="70.0" /><rect fill="#ff3333" height="10.0" stroke="none" width="150" x="0" y="80.0" /><rect fill="#339933" height="10.0" stroke="none" width="150" x="0" y="90.0" /></g><g clip-path="url(#mask1)"><rect fill="#ff3333" height="5.555555555555555" stroke="none" width="5.357142857142857" x="0.0" y="0.0" /><rect fill="#708090" height="5.555555555555555" stroke="none" width="5.357142857142857" x="0.0" y="5.555555555555555" /><rect fill="#ff3333" height="5.555555555555555" stroke="none" width="5.357142857142857" x="0.0" y="11.11111111111111" /><rect fill="#708090" height="5.555555555555555" stroke="none" width="5.357142857142857" x="0.0" y="16.666666666666668" /><rect fill="#ff3333" height="5.555555555555555" stroke="none" width="5.357142857142857" x="0.0" y="22.22222222222222" /><rect fill="#708090" height="5.555555555555555" stroke="none" width="5.357142857142857" x="0.0" y="27.77777777777778" /><rect fill="#ff3333" height="5.555555555555555" stroke="none" width="5.357142857142857" x="0.0" y="33.333333333333336" /><rect fill="#708090" height="5.555555555555555" stroke="none" width="5.357142857142857" x="0.0" y="38.888888888888886" /><rect fill="#ff3333" height="5.555555555555555" stroke="none" width="5.357142857142857" x="0.0" y="44.44444444444444" /><rect fill="#708090" height="5.555555555555555" stroke="none" width="5.357142857142857" x="5.357142857142857" y="0.0" /><rect fill="#ff3333" height="5.555555555555555" stroke="none" width="5.357142857142857" x="5.357142857142857" y="5.555555555555555" /><rect fill="#708090" height="5.555555555555555" stroke="none" width="5.357142857142857" x="5.357142857142857" y="11.11111111111111" /><rect fill="#ff3333" height="5.555555555555555" stroke="none" width="5.357142857142857" x="5.357142857142857" y="16.666666666666668" /><rect fill="#708090" height="5.555555555555555" stroke="none" width="5.357142857142857" x="5.357142857142857" y="22.22222222222222" /><rect fill="#ff3333" height="5.555555555555555" stroke="none" width="5.357142857142857" x="5.357142857142857" y="27.77777777777778" /><rect fill="#708090" height="5.555555555555555" stroke="none" width="5.357142857142857" x="5.357142857142857" y="33.333333333333336" /><rect fill="#ff3333" height="5.555555555555555" stroke="none" width="5.357142857142857" x="5.357142857142857" y="38.888888888888886" /><rect fill="#708090" height="5.555555555555555" stroke="none" width="5.357142857142857" x="5.357142857142857" y="44.44444444444444" /><rect fill="#ff3333" height="5.555555555555555" stroke="none" width="5.357142857142857" x="10.714285714285714" y="0.0" /><rect fill="#708090" height="5.555555555555555" stroke="none" width="5.357142857142857" x="10.714285714285714" y="5.555555555555555" /><rect fill="#ff3333" height="5.555555555555555" stroke="none" width="5.357142857142857" x="10.714285714285714" y="11.11111111111111" /><rect fill="#708090" height="5.555555555555555" stroke="none" width="5.357142857142857" x="10.714285714285714" y="16.666666666666668" /><rect fill="#ff3333" height="5.555555555555555" stroke="none" width="5.357142857142857" x="10.714285714285714" y="22.22222222222222" /><rect fill="#708090" height="5.555555555555555" stroke="none" width="5.357142857142857" x="10.714285714285714" y="27.77777777777778" /><rect fill="#ff3333" height="5.555555555555555" stroke="none" width="5.357142857142857" x="10.714285714285714" y="33.333333333333336" /><rect fill="#708090" height="5.555555555555555" stroke="none" width="5.357142857142857" x="10.714285714285714" y="38.888888888888886" /><rect fill="#ff3333" height="5.555555555555555" stroke="none" width="5.357142857142857" x="10.714285714285714" y="44.44444444444444" /><rect fill="#708090" height="5.555555555555555" stroke="none" width="5.357142857142857" x="16.071428571428573" y="0.0" /><rect fill="#ff3333" height="5.555555555555555" stroke="none" width="5.357142857142857" x="16.071428571428573" y="5.555555555555555" /><rect fill="#708090" height="5.555555555555555" stroke="none" width="5.357142857142857" x="16.071428571428573" y="11.11111111111111" /><rect fill="#ff3333" height="5.555555555555555" stroke="none" width="5.357142857142857" x="16.071428571428573" y="16.666666666666668" /><rect fill="#708090" height="5.555555555555555" stroke="none" width="5.357142857142857" x="16.071428571428573" y="22.22222222222222" /><rect fill="#ff3333" height="5.555555555555555" stroke="none" width="5.357142857142857" x="16.071428571428573" y="27.77777777777778" /><rect fill="#708090" height="5.555555555555555" stroke="none" width="5.357142857142857" x="16.071428571428573" y="33.333333333333336" /><rect fill="#ff3333" height="5.555555555555555" stroke="none" width="5.357142857142857" x="16.071428571428573" y="38.888888888888886" /><rect fill="#708090" height="5.555555555555555" stroke="none" width="5.357142857142857" x="16.071428571428573" y="44.44444444444444" /><rect fill="#ff3333" height="5.555555555555555" stroke="none" width="5.357142857142857" x="21.428571428571427" y="0.0" /><rect fill="#708090" height="5.555555555555555" stroke="none" width="5.357142857142857" x="21.428571428571427" y="5.555555555555555" /><rect fill="#ff3333" height="5.555555555555555" stroke="none" width="5.357142857142857" x="21.428571428571427" y="11.11111111111111" /><rect fill="#708090" height="5.555555555555555" stroke="none" width="5.357142857142857" x="21.428571428571427" y="16.666666666666668" /><rect fill="#ff3333" height="5.555555555555555" stroke="none" width="5.357142857142857" x="21.428571428571427" y="22.22222222222222" /><rect fill="#708090" height="5.555555555555555" stroke="none" width="5.357142857142857" x="21.428571428571427" y="27.77777777777778" /><rect fill="#ff3333" height="5.555555555555555" stroke="none" width="5.357142857142857" x="21.428571428571427" y="33.333333333333336" /><rect fill="#708090" height="5.555555555555555" stroke="none" width="5.357142857142857" x="21.428571428571427" y="38.888888888888886" /><rect fill="#ff3333" height="5.555555555555555" stroke="none" width="5.357142857142857" x="21.428571428571427" y="44.44444444444444" /><rect fill="#708090" height="5.555555555555555" stroke="none" width="5.357142857142857" x="26.785714285714285" y="0.0" /><rect fill="#ff3333" height="5.555555555555555" stroke="none" width="5.357142857142857" x="26.785714285714285" y="5.555555555555555" /><rect fill="#708090" height="5.555555555555555" stroke="none" width="5.357142857142857" x="26.785714285714285" y="11.11111111111111" /><rect fill="#ff3333" height="5.555555555555555" stroke="none" width="5.357142857142857" x="26.785714285714285" y="16.666666666666668" /><rect fill="#708090" height="5.555555555555555" stroke="none" width="5.357142857142857" x="26.785714285714285" y="22.22222222222222" /><rect fill="#ff3333" height="5.555555555555555" stroke="none" width="5.357142857142857" x="26.785714285714285" y="27.77777777777778" /><rect fill="#708090" height="5.555555555555555" stroke="none" width="5.357142857142857" x="26.785714285714285" y="33.333333333333336" /><rect fill="#ff3333" height="5.555555555555555" stroke="none" width="5.357142857142857" x="26.785714285714285" y="38.888888888888886" /><rect fill="#708090" height="5.555555555555555" stroke="none" width="5.357142857142857" x="26.785714285714285" y="44.44444444444444" /><rect fill="#ff3333" height="5.555555555555555" stroke="none" width="5.357142857142857" x="32.142857142857146" y="0.0" /><rect fill="#708090" height="5.555555555555555" stroke="none" width="5.357142857142857" x="32.142857142857146" y="5.555555555555555" /><rect fill="#ff3333" height="5.555555555555555" stroke="none" width="5.357142857142857" x="32.142857142857146" y="11.11111111111111" /><rect fill="#708090" height="5.555555555555555" stroke="none" width="5.357142857142857" x="32.142857142857146" y="16.666666666666668" /><rect fill="#ff3333" height="5.555555555555555" stroke="none" width="5.357142857142857" x="32.142857142857146" y="22.22222222222222" /><rect fill="#708090" height="5.555555555555555" stroke="none" width="5.357142857142857" x="32.142857142857146" y="27.77777777777778" /><rect fill="#ff3333" height="5.555555555555555" stroke="none" width="5.357142857142857" x="32.142857142857146" y="33.333333333333336" /><rect fill="#708090" height="5.555555555555555" stroke="none" width="5.357142857142857" x="32.142857142857146" y="38.888888888888886" /><rect fill="#ff3333" height="5.555555555555555" stroke="none" width="5.357142857142857" x="32.142857142857146" y="44.44444444444444" /><rect fill="#708090" height="5.555555555555555" stroke="none" width="5.357142857142857" x="37.5" y="0.0" /><rect fill="#ff3333" height="5.555555555555555" stroke="none" width="5.357142857142857" x="37.5" y="5.555555555555555" /><rect fill="#708090" height="5.555555555555555" stroke="none" width="5.357142857142857" x="37.5" y="11.11111111111111" /><rect fill="#ff3333" height="5.555555555555555" stroke="none" width="5.357142857142857" x="37.5" y="16.666666666666668" /><rect fill="#708090" height="5.555555555555555" stroke="none" width="5.357142857142857" x="37.5" y="22.22222222222222" /><rect fill="#ff3333" height="5.555555555555555" stroke="none" width="5.357142857142857" x="37.5" y="27.77777777777778" /><rect fill="#708090" height="5.555555555555555" stroke="none" width="5.357142857142857" x="37.5" y="33.333333333333336" /><rect fill="#ff3333" height="5.555555555555555" stroke="none" width="5.357142857142857" x="37.5" y="38.888888888888886" /><rect fill="#708090" height="5.555555555555555" stroke="none" width="5.357142857142857" x="37.5" y="44.44444444444444" /><rect fill="#ff3333" height="5.555555555555555" stroke="none" width="5.357142857142857" x="42.857142857142854" y="0.0" /><rect fill="#708090" height="5.555555555555555" stroke="none" width="5.357142857142857" x="42.857142857142854" y="5.555555555555555" /><rect fill="#ff3333" height="5.555555555555555" stroke="none" width="5.357142857142857" x="42.857142857142854" y="11.11111111111111" /><rect fill="#708090" height="5.555555555555555" stroke="none" width="5.357142857142857" x="42.857142857142854" y="16.666666666666668" /><rect fill="#ff3333" height="5.555555555555555" stroke="none" width="5.357142857142857" x="42.857142857142854" y="22.22222222222222" /><rect fill="#708090" height="5.555555555555555" stroke="none" width="5.357142857142857" x="42.857142857142854" y="27.77777777777778" /><rect fill="#ff3333" height="5.555555555555555" stroke="none" width="5.357142857142857" x="42.857142857142854" y="33.333333333333336" /><rect fill="#708090" height="5.555555555555555" stroke="none" width="5.357142857142857" x="42.857142857142854" y="38.888888888888886" /><rect fill="#ff3333" height="5.555555555555555" stroke="none" width="5.357142857142857" x="42.857142857142854" y="44.44444444444444" /><rect fill="#708090" height="5.555555555555555" stroke="none" width="5.357142857142857" x="48.214285714285715" y="0.0" /><rect fill="#ff3333" height="5.555555555555555" stroke="none" width="5.357142857142857" x="48.214285714285715" y="5.555555555555555" /><rect fill="#708090" height="5.555555555555555" stroke="none" width="5.357142857142857" x="48.214285714285715" y="11.11111111111111" /><rect fill="#ff3333" height="5.555555555555555" stroke="none" width="5.357142857142857" x="48.214285714285715" y="16.666666666666668" /><rect fill="#708090" height="5.555555555555555" stroke="none" width="5.357142857142857" x="48.214285714285715" y="22.22222222222222" /><rect fill="#ff3333" height="5.555555555555555" stroke="none" width="5.357142857142857" x="48.214285714285715" y="27.77777777777778" /><rect fill="#708090" height="5.555555555555555" stroke="none" width="5.357142857142857" x="48.214285714285715" y="33.333333333333336" /><rect fill="#ff3333" height="5.555555555555555" stroke="none" width="5.357142857142857" x="48.214285714285715" y="38.888888888888886" /><rect fill="#708090" height="5.555555555555555" stroke="none" width="5.357142857142857" x="48.214285714285715" y="44.44444444444444" /><rect fill="#ff3333" height="5.555555555555555" stroke="none" width="5.357142857142857" x="53.57142857142857" y="0.0" /><rect fill="#708090" height="5.555555555555555" stroke="none" width="5.357142857142857" x="53.57142857142857" y="5.555555555555555" /><rect fill="#ff3333" height="5.555555555555555" stroke="none" width="5.357142857142857" x="53.57142857142857" y="11.11111111111111" /><rect fill="#708090" height="5.555555555555555" stroke="none" width="5.357142857142857" x="53.57142857142857" y="16.666666666666668" /><rect fill="#ff3333" height="5.555555555555555" stroke="none" width="5.357142857142857" x="53.57142857142857" y="22.22222222222222" /><rect fill="#708090" height="5.555555555555555" stroke="none" width="5.357142857142857" x="53.57142857142857" y="27.77777777777778" /><rect fill="#ff3333" height="5.555555555555555" stroke="none" width="5.357142857142857" x="53.57142857142857" y="33.333333333333336" /><rect fill="#708090" height="5.555555555555555" stroke="none" width="5.357142857142857" x="53.57142857142857" y="38.888888888888886" /><rect fill="#ff3333" height="5.555555555555555" stroke="none" width="5.357142857142857" x="53.57142857142857" y="44.44444444444444" /><rect fill="#708090" height="5.555555555555555" stroke="none" width="5.357142857142857" x="58.92857142857143" y="0.0" /><rect fill="#ff3333" height="5.555555555555555" stroke="none" width="5.357142857142857" x="58.92857142857143" y="5.555555555555555" /><rect fill="#708090" height="5.555555555555555" stroke="none" width="5.357142857142857" x="58.92857142857143" y="11.11111111111111" /><rect fill="#ff3333" height="5.555555555555555" stroke="none" width="5.357142857142857" x="58.92857142857143" y="16.666666666666668" /><rect fill="#708090" height="5.555555555555555" stroke="none" width="5.357142857142857" x="58.92857142857143" y="22.22222222222222" /><rect fill="#ff3333" height="5.555555555555555" stroke="none" width="5.357142857142857" x="58.92857142857143" y="27.77777777777778" /><rect fill="#708090" height="5.555555555555555" stroke="none" width="5.357142857142857" x="58.92857142857143" y="33.333333333333336" /><rect fill="#ff3333" height="5.555555555555555" stroke="none" width="5.357142857142857" x="58.92857142857143" y="38.888888888888886" /><rect fill="#708090" height="5.555555555555555" stroke="none" width="5.357142857142857" x="58.92857142857143" y="44.44444444444444" /><rect fill="#ff3333" height="5.555555555555555" stroke="none" width="5.357142857142857" x="64.28571428571429" y="0.0" /><rect fill="#708090" height="5.555555555555555" stroke="none" width="5.357142857142857" x="64.28571428571429" y="5.555555555555555" /><rect fill="#ff3333" height="5.555555555555555" stroke="none" width="5.357142857142857" x="64.28571428571429" y="11.11111111111111" /><rect fill="#708090" height="5.555555555555555" stroke="none" width="5.357142857142857" x="64.28571428571429" y="16.666666666666668" /><rect fill="#ff3333" height="5.555555555555555" stroke="none" width="5.357142857142857" x="64.28571428571429" y="22.22222222222222" /><rect fill="#708090" height="5.555555555555555" stroke="none" width="5.357142857142857" x="64.28571428571429" y="27.77777777777778" /><rect fill="#ff3333" height="5.555555555555555" stroke="none" width="5.357142857142857" x="64.28571428571429" y="33.333333333333336" /><rect fill="#708090" height="5.555555555555555" stroke="none" width="5.357142857142857" x="64.28571428571429" y="38.888888888888886" /><rect fill="#ff3333" height="5.555555555555555" stroke="none" width="5.357142857142857" x="64.28571428571429" y="44.44444444444444" /><rect fill="#708090" height="5.555555555555555" stroke="none" width="5.357142857142857" x="69.64285714285714" y="0.0" /><rect fill="#ff3333" height="5.555555555555555" stroke="none" width="5.357142857142857" x="69.64285714285714" y="5.555555555555555" /><rect fill="#708090" height="5.555555555555555" stroke="none" width="5.357142857142857" x="69.64285714285714" y="11.11111111111111" /><rect fill="#ff3333" height="5.555555555555555" stroke="none" width="5.357142857142857" x="69.64285714285714" y="16.666666666666668" /><rect fill="#708090" height="5.555555555555555" stroke="none" width="5.357142857142857" x="69.64285714285714" y="22.22222222222222" /><rect fill="#ff3333" height="5.555555555555555" stroke="none" width="5.357142857142857" x="69.64285714285714" y="27.77777777777778" /><rect fill="#708090" height="5.555555555555555" stroke="none" width="5.357142857142857" x="69.64285714285714" y="33.333333333333336" /><rect fill="#ff3333" height="5.555555555555555" stroke="none" width="5.357142857142857" x="69.64285714285714" y="38.888888888888886" /><rect fill="#708090" height="5.555555555555555" stroke="none" width="5.357142857142857" x="69.64285714285714" y="44.44444444444444" /></g><g transform="translate(26.294416338736532, 13.794416338736534) scale(0.22411167322526931) rotate(0, 25.0, 25.0)"><path d="M 86.7,77.8 L 79.9,71.0 C 82.60000000000001,67.0 84.5,62.5 85.4,57.8 C 86.9,50.8 86.30000000000001,43.4 83.80000000000001,36.699999999999996 C 81.30000000000001,29.999999999999996 76.9,23.999999999999996 71.10000000000001,19.799999999999997 C 65.30000000000001,15.599999999999998 58.6,13.0 51.5,12.4 C 60.2,17.5 67.2,25.6 70.9,34.9 C 73.10000000000001,40.199999999999996 74.2,45.8 73.80000000000001,51.5 C 73.50000000000001,55.1 72.50000000000001,58.8 70.80000000000001,62.1 L 45.6,36.8 L 54.8,27.599999999999998 L 49.3,22.099999999999998 C 47.4,23.099999999999998 45.199999999999996,23.799999999999997 43.099999999999994,24.299999999999997 C 40.89999999999999,24.699999999999996 38.599999999999994,24.799999999999997 36.39999999999999,24.599999999999998 L 18.199999999999992,42.599999999999994 L 28.89999999999999,53.3 L 36.099999999999994,46.099999999999994 L 61.49999999999999,71.5 C 59.199999999999996,72.9 56.599999999999994,73.8 53.89999999999999,74.4 C 48.79999999999999,75.4 43.39999999999999,75.2 38.39999999999999,73.80000000000001 C 30.59999999999999,71.80000000000001 23.499999999999993,67.4 18.09999999999999,61.30000000000001 L -0.1,79.5 L 7.7,87.3 L 19.8,75.2 C 26.7,83.0 36.9,87.7 47.3,88.0 C 55.599999999999994,88.2 63.9,85.5 70.6,80.6 L 77.19999999999999,87.19999999999999 L 86.7,77.8" fill="#68bfe5" stroke="#f3b3c9" stroke-width="1.0" /></g><g transform="translate(85.5699736051095, 23.069973605109496) scale(0.5386005278978101) rotate(0, 50.0, 50.0)"><path d="M 46.1,89.9 C 43.9,87.5 38.6,82.80000000000001 34.2,79.5 C 21.0,69.5 19.3,68.1 13.9,63.2 C 4.1,54.2 0.0,45.1 0.0,32.9 C 0.0,26.9 0.4,24.599999999999998 2.1,21.099999999999998 C 4.9,15.099999999999998 9.1,10.599999999999998 14.5,7.899999999999999 C 18.3,5.999999999999998 20.2,5.099999999999999 26.5,5.099999999999999 C 33.1,5.099999999999999 34.5,5.799999999999999 38.4,7.999999999999998 C 43.199999999999996,10.599999999999998 48.0,16.199999999999996 49.099999999999994,20.199999999999996 L 49.699999999999996,22.599999999999994 L 51.199999999999996,19.199999999999996 C 60.0,0.1 87.8,0.4 97.5,19.6 C 100.6,25.700000000000003 100.9,38.7 98.2,46.1 C 94.6,55.7 87.9,63.0 72.5,74.2 C 62.4,81.5 51.0,92.6 50.2,94.2 C 49.3,96.0 50.1,94.5 46.1,89.9" fill="#ff1ea8" stroke="#ffce00" stroke-width="3.0" /></g></svg>