<?xml version="1.0" encoding="utf-8" ?>
<svg baseProfile="full" height="100px" version="1.1" width="150px" xmlns="http://www.w3.org/2000/svg" xmlns:ev="http://www.w3.org/2001/xml-events" xmlns:xlink="http://www.w3.org/1999/xlink"><defs><clipPath id="mask0"><rect height="100" width="150" x="0" y="0" /></clipPath></defs><g clip-path="url(#mask0)"><rect fill="#c735be" height="100" stroke="none" width="150" x="0" y="0" /></g><g transform="translate(48.57413301970696, 23.574133019706967) scale(0.5285173396058607) rotate(0, 50.0, 50.0)"><path d="M 78.0,95.8 C 72.6,101.0 66.6,100.2 61.0,97.8 C 55.0,95.3 49.4,95.1 43.1,97.8 C 35.2,101.2 30.900000000000002,100.2 26.200000000000003,95.8 C -1.0,68.0 3.0,25.6 33.7,24.0 C 41.1,24.4 46.400000000000006,28.1 50.7,28.4 C 57.2,27.099999999999998 63.5,23.299999999999997 70.4,23.799999999999997 C 78.80000000000001,24.499999999999996 85.10000000000001,27.799999999999997 89.2,33.699999999999996 C 72.1,44.1 76.2,66.9 92.0,73.2 C 88.8,81.6 84.8,89.8 78.0,95.8 L 78.0,95.8 M 50.1,23.7 C 49.3,11.4 59.4,1.2 70.9,0.2 C 72.5,14.5 57.9,25.1 50.1,23.7" fill="#ffce00" stroke="none" stroke-width="3.0px" /></g></svg>