<?xml version="1.0" encoding="utf-8" ?>
<svg baseProfile="full" height="100px" version="1.1" width="150px" xmlns="http://www.w3.org/2000/svg" xmlns:ev="http://www.w3.org/2001/xml-events" xmlns:xlink="http://www.w3.org/1999/xlink"><defs><clipPath id="mask0"><rect height="100" width="150" x="0" y="0" /></clipPath></defs><g clip-path="url(#mask0)"><rect fill="#003897" height="100" stroke="none" width="150" x="0" y="0" /></g><g transform="translate(20.0, 25.0) scale(0.5) rotate(0, 50.0, 50.0)"><path d="M 46.1,89.9 C 43.9,87.5 38.6,82.80000000000001 34.2,79.5 C 21.0,69.5 19.3,68.1 13.9,63.2 C 4.1,54.2 0.0,45.1 0.0,32.9 C 0.0,26.9 0.4,24.599999999999998 2.1,21.099999999999998 C 4.9,15.099999999999998 9.1,10.599999999999998 14.5,7.899999999999999 C 18.3,5.999999999999998 20.2,5.099999999999999 26.5,5.099999999999999 C 33.1,5.099999999999999 34.5,5.799999999999999 38.4,7.999999999999998 C 43.199999999999996,10.599999999999998 48.0,16.199999999999996 49.099999999999994,20.199999999999996 L 49.699999999999996,22.599999999999994 L 51.199999999999996,19.199999999999996 C 60.0,0.1 87.8,0.4 97.5,19.6 C 100.6,25.700000000000003 100.9,38.7 98.2,46.1 C 94.6,55.7 87.9,63.0 72.5,74.2 C 62.4,81.5 51.0,92.6 50.2,94.2 C 49.3,96.0 50.1,94.5 46.1,89.9" fill="#ffffff" stroke="none" stroke-width="3.0px" /></g><g transform="translate(80.0, 25.0) scale(0.5) rotate(0, 50.0, 50.0)"><path d="M 48.4,98.3 C 45.5,94.89999999999999 42.0,92.3 36.9,92.0 C 34.3,91.9 29.4,91.6 27.9,91.2 C 23.0,89.9 19.299999999999997,88.2 14.899999999999999,83.60000000000001 C 11.099999999999998,79.2 8.599999999999998,72.50000000000001 7.799999999999999,63.50000000000001 L 7.799999999999999,1.8 C 21.7,1.8 35.6,1.8 49.5,1.8 C 63.4,1.8 77.3,1.8 91.2,1.8 L 91.2,63.4 C 90.4,72.4 87.9,79.1 84.10000000000001,83.5 C 79.7,88.2 76.00000000000001,89.8 71.10000000000001,91.1 C 69.60000000000001,91.5 64.7,91.89999999999999 62.10000000000001,91.89999999999999 C 57.00000000000001,92.19999999999999 53.50000000000001,94.69999999999999 50.60000000000001,98.19999999999999 L 49.400000000000006,99.69999999999999 L 48.4,98.3" fill="#DA1F26" stroke="none" stroke-width="0px" /><path d="M 36.3,65.8 L 36.3,65.8 C 36.3,65.8 31.499999999999996,73.6 25.599999999999998,77.8 C 25.599999999999998,77.8 22.799999999999997,76.0 19.9,77.3 C 17.0,78.6 16.4,80.3 17.9,83.6 C 17.9,83.6 18.7,79.3 22.099999999999998,79.89999999999999 C 22.099999999999998,79.89999999999999 17.4,84.89999999999999 22.7,87.49999999999999 C 22.7,87.49999999999999 22.0,83.29999999999998 24.7,82.49999999999999 C 24.7,82.49999999999999 24.0,89.09999999999998 29.5,89.09999999999998 C 29.5,89.09999999999998 27.1,85.69999999999997 27.5,82.69999999999997 C 27.8,79.69999999999997 29.5,79.69999999999997 30.1,79.79999999999997 C 30.700000000000003,79.99999999999997 31.8,80.99999999999997 32.0,82.39999999999996 C 32.0,82.39999999999996 33.9,78.69999999999996 30.8,76.99999999999996 C 30.8,76.99999999999996 34.0,72.59999999999995 37.9,70.99999999999996 C 37.0,69.5 36.5,67.7 36.3,65.8 L 36.3,65.8 M 62.9,65.8 L 62.9,65.8 C 62.9,65.8 67.7,73.6 73.6,77.8 C 73.6,77.8 76.39999999999999,76.0 79.3,77.3 C 82.2,78.6 82.8,80.3 81.3,83.6 C 81.3,83.6 80.5,79.3 77.1,79.89999999999999 C 77.1,79.89999999999999 81.8,84.89999999999999 76.5,87.49999999999999 C 76.5,87.49999999999999 77.2,83.29999999999998 74.5,82.49999999999999 C 74.5,82.49999999999999 75.2,89.09999999999998 69.7,89.09999999999998 C 69.7,89.09999999999998 72.10000000000001,85.69999999999997 71.7,82.69999999999997 C 71.3,79.69999999999997 69.7,79.69999999999997 69.10000000000001,79.79999999999997 C 68.50000000000001,79.99999999999997 67.4,80.99999999999997 67.2,82.39999999999996 C 67.2,82.39999999999996 65.3,78.69999999999996 68.4,76.99999999999996 C 68.4,76.99999999999996 65.2,72.59999999999995 61.300000000000004,70.99999999999996 C 62.1,69.5 62.7,67.7 62.9,65.8 L 62.9,65.8 M 69.2,7.3 C 69.60000000000001,7.8 69.60000000000001,8.4 69.5,9.1 C 68.6,8.7 65.0,7.3999999999999995 61.9,9.299999999999999 C 62.199999999999996,7.699999999999999 63.3,6.499999999999999 64.3,5.499999999999999 C 64.8,5.5 68.1,5.8 69.2,7.3 M 63.2,11.9 C 63.300000000000004,11.9 63.400000000000006,11.8 63.5,11.8 C 63.6,11.8 63.7,11.8 63.9,11.8 C 64.8,11.8 65.6,12.200000000000001 66.3,12.8 L 62.4,12.8 C 62.3,12.600000000000001 62.199999999999996,12.4 62.1,12.100000000000001 C 62.1,12.100000000000001 62.1,12.100000000000001 62.1,12.100000000000001 C 62.2,12.1 62.6,12.0 63.2,11.9 L 63.2,11.9 L 63.2,11.9 M 66.3,11.4 C 65.2,11.0 64.0,11.200000000000001 63.3,11.4 C 62.699999999999996,11.5 62.099999999999994,11.6 61.8,11.8 C 61.8,11.8 61.8,11.8 61.8,11.8 C 61.699999999999996,11.600000000000001 61.699999999999996,11.3 61.599999999999994,11.100000000000001 C 61.599999999999994,11.100000000000001 61.599999999999994,11.100000000000001 61.599999999999994,11.100000000000001 C 62.699999999999996,10.3 63.89999999999999,10.000000000000002 65.1,10.000000000000002 C 65.1,10.000000000000002 65.1,10.000000000000002 65.1,10.000000000000002 C 66.39999999999999,10.000000000000002 67.5,10.400000000000002 68.3,10.700000000000001 L 68.5,10.8 C 69.5,11.100000000000001 70.5,11.0 71.2,10.9 C 70.2,12.0 67.8,12.0 66.3,11.4 M 37.4,9.3 C 36.1,8.5 34.8,8.3 33.6,8.3 C 31.8,8.3 30.3,8.9 29.700000000000003,9.100000000000001 C 29.500000000000004,8.400000000000002 29.6,7.800000000000002 30.000000000000004,7.300000000000002 C 31.100000000000005,5.800000000000002 34.400000000000006,5.500000000000002 34.900000000000006,5.500000000000002 C 36.0,6.5 37.1,7.8 37.4,9.3 M 34.0,9.8 L 34.0,9.8 L 34.0,10.0 C 34.0,10.0 34.0,10.0 34.0,10.0 C 35.3,10.0 36.4,10.4 37.5,11.1 C 37.5,11.1 37.5,11.1 37.5,11.1 C 37.5,11.299999999999999 37.4,11.6 37.3,11.799999999999999 C 37.3,11.799999999999999 37.3,11.799999999999999 37.3,11.799999999999999 C 36.9,11.6 36.4,11.499999999999998 35.8,11.399999999999999 C 35.099999999999994,11.2 34.0,10.999999999999998 32.8,11.399999999999999 C 31.4,11.899999999999999 28.9,11.999999999999998 27.799999999999997,10.799999999999999 C 28.4,10.899999999999999 29.499999999999996,11.1 30.499999999999996,10.7 L 30.699999999999996,10.6 C 31.499999999999996,10.299999999999999 32.599999999999994,9.9 33.9,9.9 L 34.0,9.8 M 37.2,12.2 C 37.1,12.399999999999999 37.0,12.6 36.900000000000006,12.899999999999999 L 33.00000000000001,12.899999999999999 C 33.70000000000001,12.2 34.50000000000001,11.899999999999999 35.400000000000006,11.899999999999999 C 35.50000000000001,11.899999999999999 35.7,11.899999999999999 35.800000000000004,11.899999999999999 C 35.900000000000006,11.899999999999999 36.00000000000001,11.999999999999998 36.1,11.999999999999998 L 36.1,11.999999999999998 L 36.1,11.999999999999998 C 36.5,12.0 36.9,12.1 37.2,12.2 C 37.2,12.2 37.2,12.2 37.2,12.2" fill="#F4BD20" stroke="none" stroke-width="0px" /><path d="M 47.9,31.8 L 47.9,45.7 L 35.7,45.7 L 35.7,49.0 L 47.900000000000006,49.0 L 47.900000000000006,61.4 L 49.60000000000001,63.3 L 51.30000000000001,61.4 L 51.30000000000001,49.0 L 63.500000000000014,49.0 L 63.500000000000014,45.7 L 51.2,45.7 L 51.2,31.8 C 50.1,31.8 49.0,31.8 47.9,31.8 M 46.1,42.6 C 46.1,42.6 45.300000000000004,42.7 44.6,43.1 C 43.9,43.4 42.0,44.0 40.7,43.0 C 39.400000000000006,42.1 40.0,40.5 41.0,40.4 C 41.0,40.4 41.0,41.699999999999996 42.1,41.9 C 43.1,42.1 43.800000000000004,41.4 43.9,40.6 C 43.9,39.7 43.199999999999996,39.2 42.4,38.9 C 43.1,38.6 43.9,38.0 43.9,37.199999999999996 C 43.9,36.3 43.1,35.699999999999996 42.1,35.9 C 40.9,36.0 41.0,37.4 41.0,37.4 C 40.0,37.3 39.4,35.699999999999996 40.7,34.8 C 42.0,33.9 43.900000000000006,34.4 44.6,34.699999999999996 C 45.300000000000004,35.099999999999994 46.1,35.199999999999996 46.1,35.199999999999996 L 46.1,42.6 M 53.1,42.6 C 53.1,42.6 53.9,42.7 54.6,43.1 C 55.300000000000004,43.5 57.2,44.0 58.5,43.0 C 59.8,42.1 59.2,40.5 58.2,40.4 C 58.2,40.4 58.2,41.699999999999996 57.1,41.9 C 56.1,42.1 55.4,41.4 55.300000000000004,40.6 C 55.300000000000004,39.7 56.00000000000001,39.2 56.800000000000004,38.9 C 56.1,38.6 55.300000000000004,38.0 55.300000000000004,37.199999999999996 C 55.300000000000004,36.3 56.1,35.699999999999996 57.1,35.9 C 58.300000000000004,36.1 58.2,37.4 58.2,37.4 C 59.2,37.3 59.800000000000004,35.699999999999996 58.5,34.8 C 57.2,33.9 55.3,34.4 54.6,34.699999999999996 C 53.9,35.099999999999994 53.1,35.199999999999996 53.1,35.199999999999996 L 53.1,42.6 M 46.1,51.7 C 46.1,51.7 45.300000000000004,51.6 44.6,51.2 C 43.9,50.800000000000004 42.0,50.300000000000004 40.7,51.300000000000004 C 39.400000000000006,52.2 40.0,53.800000000000004 41.0,53.900000000000006 C 41.0,53.900000000000006 41.0,52.60000000000001 42.1,52.400000000000006 C 43.1,52.2 43.800000000000004,52.900000000000006 43.9,53.7 C 43.9,54.6 43.199999999999996,55.1 42.4,55.400000000000006 C 43.1,55.7 43.9,56.300000000000004 43.9,57.10000000000001 C 43.9,58.00000000000001 43.1,58.60000000000001 42.1,58.400000000000006 C 40.9,58.2 41.0,56.900000000000006 41.0,56.900000000000006 C 40.0,57.00000000000001 39.4,58.60000000000001 40.7,59.50000000000001 C 42.0,60.400000000000006 43.900000000000006,59.900000000000006 44.6,59.60000000000001 C 45.300000000000004,59.20000000000001 46.1,59.10000000000001 46.1,59.10000000000001 L 46.1,51.7 M 53.1,51.7 C 53.1,51.7 53.9,51.6 54.6,51.2 C 55.300000000000004,50.800000000000004 57.2,50.300000000000004 58.5,51.300000000000004 C 59.8,52.2 59.2,53.800000000000004 58.2,53.900000000000006 C 58.2,53.900000000000006 58.2,52.60000000000001 57.1,52.400000000000006 C 56.1,52.2 55.4,52.900000000000006 55.300000000000004,53.7 C 55.300000000000004,54.6 56.00000000000001,55.1 56.800000000000004,55.400000000000006 C 56.1,55.7 55.300000000000004,56.300000000000004 55.300000000000004,57.10000000000001 C 55.300000000000004,58.00000000000001 56.1,58.60000000000001 57.1,58.400000000000006 C 58.300000000000004,58.2 58.2,56.900000000000006 58.2,56.900000000000006 C 59.2,57.00000000000001 59.800000000000004,58.60000000000001 58.5,59.50000000000001 C 57.2,60.400000000000006 55.3,59.900000000000006 54.6,59.60000000000001 C 53.9,59.20000000000001 53.1,59.10000000000001 53.1,59.10000000000001 L 53.1,51.7 M 58.6,62.9 C 60.300000000000004,62.6 61.5,61.8 62.1,61.3 C 63.0,64.89999999999999 62.300000000000004,69.1 60.300000000000004,72.0 C 60.3,68.4 59.6,64.9 58.6,62.9 M 66.0,65.1 C 64.7,64.6 63.3,61.8 62.8,60.599999999999994 C 63.599999999999994,59.599999999999994 64.1,58.8 64.5,57.89999999999999 C 64.8,60.3 65.3,62.7 66.0,65.1 M 64.5,27.5 C 67.9,26.3 69.8,23.7 70.1,19.3 C 70.39999999999999,15.9 71.19999999999999,13.3 72.6,11.8 C 73.39999999999999,10.8 74.5,10.200000000000001 75.69999999999999,10.0 C 75.89999999999999,11.4 76.69999999999999,16.5 75.49999999999999,20.8 C 73.99999999999999,26.200000000000003 69.59999999999998,30.0 64.79999999999998,30.0 L 64.79999999999998,30.0 L 64.59999999999998,30.0 L 64.59999999999998,30.0 C 63.09999999999998,30.0 61.69999999999998,30.0 60.19999999999998,30.0 C 60.6,29.2 61.7,28.4 64.5,27.5 M 54.0,63.4 C 54.9,63.1 55.9,63.0 57.0,63.0 C 57.3,63.0 57.6,63.0 57.9,63.0 C 58.8,64.7 59.6,68.2 59.699999999999996,72.2 C 56.6,69.4 54.9,65.9 54.0,63.4 M 56.5,20.3 C 56.4,22.900000000000002 56.6,26.3 58.8,29.8 C 57.699999999999996,29.7 55.4,29.5 53.199999999999996,28.6 C 54.599999999999994,26.900000000000002 54.99999999999999,25.0 54.599999999999994,22.900000000000002 C 54.3,21.700000000000003 53.8,20.400000000000002 52.89999999999999,19.000000000000004 C 54.0,19.5 55.1,19.9 56.5,20.3 M 51.7,75.1 C 52.6,71.8 53.2,68.3 53.5,66.0 C 54.3,71.2 55.6,75.3 57.4,78.5 C 59.5,82.2 62.3,84.5 65.9,85.5 C 64.30000000000001,85.9 61.300000000000004,86.3 58.400000000000006,84.8 C 55.2,83.3 53.0,80.0 51.7,75.1 M 38.1,6.3 C 37.9,6.3 37.7,6.1 37.7,5.8999999999999995 C 37.7,5.699999999999999 37.900000000000006,5.499999999999999 38.1,5.499999999999999 C 38.300000000000004,5.499999999999999 38.5,5.699999999999999 38.5,5.8999999999999995 C 38.5,6.1 38.3,6.3 38.1,6.3 M 61.1,5.5 C 61.300000000000004,5.5 61.5,5.7 61.5,5.9 C 61.5,6.1000000000000005 61.3,6.300000000000001 61.1,6.300000000000001 C 60.9,6.300000000000001 60.7,6.1000000000000005 60.7,5.9 C 60.7,5.7 60.8,5.5 61.1,5.5 M 43.7,7.3 C 46.400000000000006,10.2 48.2,12.6 49.2,15.0 L 49.2,15.0 C 49.1,15.2 48.900000000000006,15.4 48.800000000000004,15.6 C 48.400000000000006,16.1 48.1,16.5 47.800000000000004,16.8 L 47.800000000000004,16.8 L 47.7,16.900000000000002 C 46.5,18.1 44.900000000000006,18.900000000000002 42.800000000000004,19.400000000000002 L 42.800000000000004,19.400000000000002 L 42.300000000000004,19.500000000000004 C 42.00000000000001,19.600000000000005 41.800000000000004,19.600000000000005 41.400000000000006,19.600000000000005 C 42.2,18.500000000000004 42.300000000000004,17.100000000000005 41.7,15.800000000000004 C 41.0,14.100000000000005 39.400000000000006,12.900000000000004 37.7,12.700000000000005 C 38.300000000000004,11.300000000000004 38.400000000000006,9.900000000000006 37.900000000000006,8.400000000000006 C 37.50000000000001,7.400000000000006 36.800000000000004,6.300000000000006 35.7,5.300000000000006 C 36.2,5.200000000000006 36.800000000000004,5.100000000000006 37.5,5.000000000000006 C 37.1,5.3 37.0,5.6 37.0,5.9 C 37.0,6.5 37.5,7.0 38.1,7.0 C 38.7,7.0 39.2,6.5 39.2,5.9 C 39.2,5.800000000000001 39.2,5.7 39.2,5.6000000000000005 C 39.300000000000004,5.7 39.400000000000006,5.7 39.5,5.800000000000001 C 40.3,6.4 41.7,7.1000000000000005 43.2,7.1000000000000005 C 43.300000000000004,7.1000000000000005 43.300000000000004,7.1000000000000005 43.400000000000006,7.1000000000000005 C 43.5,7.2 43.6,7.3 43.7,7.3 M 34.7,4.7 C 34.2,4.0 35.2,3.0 37.2,2.8 C 38.400000000000006,2.6999999999999997 39.5,2.8 40.5,3.3 C 41.5,3.6999999999999997 42.6,3.8 43.9,3.9 C 45.3,4.0 46.4,3.8 47.4,3.4 C 46.5,5.3 45.199999999999996,6.3 43.3,6.6 C 43.099999999999994,6.6 42.8,6.6 42.599999999999994,6.6 C 42.599999999999994,6.6 42.599999999999994,6.6 42.599999999999994,6.6 C 42.599999999999994,6.6 42.599999999999994,6.6 42.599999999999994,6.6 C 42.599999999999994,6.6 42.49999999999999,6.6 42.49999999999999,6.6 C 42.49999999999999,6.6 42.39999999999999,6.6 42.39999999999999,6.6 C 42.39999999999999,6.6 42.29999999999999,6.6 42.29999999999999,6.6 C 42.29999999999999,6.6 42.19999999999999,6.6 42.19999999999999,6.6 C 42.19999999999999,6.6 42.09999999999999,6.6 42.09999999999999,6.6 C 42.09999999999999,6.6 41.999999999999986,6.6 41.999999999999986,6.6 C 41.999999999999986,6.6 41.899999999999984,6.6 41.899999999999984,6.6 C 41.79999999999998,6.6 41.79999999999998,6.6 41.69999999999998,6.5 C 41.69999999999998,6.5 41.59999999999998,6.5 41.59999999999998,6.5 C 41.59999999999998,6.5 41.49999999999998,6.5 41.49999999999998,6.5 C 41.49999999999998,6.5 41.39999999999998,6.5 41.39999999999998,6.5 C 41.39999999999998,6.5 41.299999999999976,6.5 41.299999999999976,6.5 C 41.299999999999976,6.5 41.199999999999974,6.5 41.199999999999974,6.5 C 41.199999999999974,6.5 41.09999999999997,6.5 41.09999999999997,6.4 C 41.09999999999997,6.4 40.99999999999997,6.4 40.99999999999997,6.4 C 40.89999999999997,6.4 40.89999999999997,6.4 40.89999999999997,6.300000000000001 C 40.89999999999997,6.300000000000001 40.89999999999997,6.300000000000001 40.79999999999997,6.300000000000001 C 40.69999999999997,6.300000000000001 40.69999999999997,6.200000000000001 40.599999999999966,6.200000000000001 C 40.599999999999966,6.200000000000001 40.599999999999966,6.200000000000001 40.499999999999964,6.200000000000001 C 40.499999999999964,6.200000000000001 40.39999999999996,6.200000000000001 40.39999999999996,6.100000000000001 C 40.39999999999996,6.100000000000001 40.39999999999996,6.100000000000001 40.29999999999996,6.100000000000001 C 40.29999999999996,6.100000000000001 40.19999999999996,6.100000000000001 40.19999999999996,6.000000000000002 C 40.19999999999996,6.000000000000002 40.19999999999996,6.000000000000002 40.09999999999996,6.000000000000002 C 40.09999999999996,6.000000000000002 39.99999999999996,5.900000000000002 39.99999999999996,5.900000000000002 C 39.99999999999996,5.900000000000002 39.99999999999996,5.900000000000002 39.99999999999996,5.900000000000002 C 39.99999999999996,5.900000000000002 39.899999999999956,5.8000000000000025 39.899999999999956,5.8000000000000025 C 39.799999999999955,5.700000000000003 39.799999999999955,5.700000000000003 39.69999999999995,5.600000000000002 C 39.69999999999995,5.600000000000002 39.69999999999995,5.600000000000002 39.59999999999995,5.600000000000002 C 38.4,4.4 36.8,4.2 34.7,4.7 M 50.0,15.0 L 50.0,15.0 C 51.0,12.7 52.8,10.2 55.5,7.3 C 55.6,7.2 55.7,7.1 55.8,7.0 C 55.9,7.0 55.9,7.0 56.0,7.0 C 57.4,7.0 58.9,6.3 59.7,5.7 C 59.800000000000004,5.6000000000000005 59.900000000000006,5.6000000000000005 60.0,5.5 C 60.0,5.6 60.0,5.7 60.0,5.8 C 60.0,6.3999999999999995 60.5,6.9 61.1,6.9 C 61.7,6.9 62.2,6.4 62.2,5.800000000000001 C 62.2,5.500000000000001 62.1,5.200000000000001 61.800000000000004,5.000000000000001 C 62.50000000000001,5.000000000000001 63.1,5.200000000000001 63.6,5.300000000000001 C 62.5,6.4 61.800000000000004,7.4 61.4,8.4 C 60.9,9.8 60.9,11.2 61.6,12.7 C 59.9,12.899999999999999 58.300000000000004,14.2 57.6,15.799999999999999 C 57.0,17.099999999999998 57.1,18.5 57.9,19.599999999999998 C 57.6,19.599999999999998 57.3,19.599999999999998 57.0,19.499999999999996 L 56.7,19.399999999999995 L 56.5,19.299999999999994 L 56.5,19.299999999999994 C 54.4,18.699999999999992 52.8,17.899999999999995 51.6,16.799999999999994 L 51.5,16.699999999999992 L 51.5,16.699999999999992 C 51.1,16.39999999999999 50.8,15.999999999999993 50.5,15.499999999999993 C 50.3,15.4 50.2,15.2 50.0,15.0 M 49.4,16.0 C 49.5,15.9 49.6,15.8 49.6,15.7 C 49.7,15.799999999999999 49.800000000000004,15.899999999999999 49.800000000000004,16.0 C 51.00000000000001,18.0 51.7,22.4 49.6,25.7 C 47.4,22.4 48.2,18.0 49.4,16.0 M 51.7,3.4 C 52.7,3.8 53.800000000000004,3.9 55.2,3.9 C 56.5,3.8 57.6,3.6999999999999997 58.6,3.3 C 59.6,2.9 60.7,2.6999999999999997 61.9,2.8 C 64.0,3.0 65.0,4.0 64.4,4.7 C 62.300000000000004,4.2 60.800000000000004,4.4 59.60000000000001,5.2 C 59.60000000000001,5.2 59.60000000000001,5.2 59.50000000000001,5.2 C 59.400000000000006,5.2 59.400000000000006,5.3 59.300000000000004,5.4 C 59.300000000000004,5.4 59.2,5.5 59.2,5.5 C 59.2,5.5 59.2,5.5 59.2,5.5 C 59.2,5.5 59.1,5.6 59.1,5.6 C 59.1,5.6 59.1,5.6 59.0,5.6 C 59.0,5.6 58.9,5.6 58.9,5.699999999999999 C 58.9,5.699999999999999 58.9,5.699999999999999 58.8,5.699999999999999 C 58.8,5.699999999999999 58.699999999999996,5.699999999999999 58.699999999999996,5.799999999999999 C 58.699999999999996,5.799999999999999 58.699999999999996,5.799999999999999 58.599999999999994,5.799999999999999 C 58.49999999999999,5.799999999999999 58.49999999999999,5.899999999999999 58.39999999999999,5.899999999999999 C 58.39999999999999,5.899999999999999 58.39999999999999,5.899999999999999 58.29999999999999,5.899999999999999 C 58.29999999999999,5.899999999999999 58.19999999999999,5.899999999999999 58.09999999999999,5.999999999999998 C 58.09999999999999,5.999999999999998 57.999999999999986,5.999999999999998 57.999999999999986,5.999999999999998 C 57.999999999999986,5.999999999999998 57.899999999999984,5.999999999999998 57.899999999999984,6.099999999999998 C 57.899999999999984,6.099999999999998 57.79999999999998,6.099999999999998 57.79999999999998,6.099999999999998 C 57.79999999999998,6.099999999999998 57.69999999999998,6.099999999999998 57.69999999999998,6.099999999999998 C 57.69999999999998,6.099999999999998 57.59999999999998,6.099999999999998 57.59999999999998,6.099999999999998 C 57.59999999999998,6.099999999999998 57.49999999999998,6.099999999999998 57.49999999999998,6.099999999999998 C 57.49999999999998,6.099999999999998 57.39999999999998,6.099999999999998 57.39999999999998,6.099999999999998 C 57.299999999999976,6.099999999999998 57.299999999999976,6.099999999999998 57.199999999999974,6.1999999999999975 C 57.199999999999974,6.1999999999999975 57.09999999999997,6.1999999999999975 57.09999999999997,6.1999999999999975 C 57.09999999999997,6.1999999999999975 56.99999999999997,6.1999999999999975 56.99999999999997,6.1999999999999975 C 56.99999999999997,6.1999999999999975 56.89999999999997,6.1999999999999975 56.89999999999997,6.1999999999999975 C 56.89999999999997,6.1999999999999975 56.79999999999997,6.1999999999999975 56.79999999999997,6.1999999999999975 C 56.79999999999997,6.1999999999999975 56.69999999999997,6.1999999999999975 56.69999999999997,6.1999999999999975 C 56.69999999999997,6.1999999999999975 56.599999999999966,6.1999999999999975 56.599999999999966,6.1999999999999975 C 56.599999999999966,6.1999999999999975 56.499999999999964,6.1999999999999975 56.499999999999964,6.1999999999999975 C 56.499999999999964,6.1999999999999975 56.499999999999964,6.1999999999999975 56.499999999999964,6.1999999999999975 C 56.499999999999964,6.1999999999999975 56.499999999999964,6.1999999999999975 56.499999999999964,6.1999999999999975 C 56.29999999999996,6.1999999999999975 55.999999999999964,6.1999999999999975 55.79999999999996,6.1999999999999975 C 54.0,6.4 52.6,5.3 51.7,3.4 M 33.2,65.1 C 33.900000000000006,62.699999999999996 34.400000000000006,60.3 34.7,57.89999999999999 C 35.0,58.69999999999999 35.6,59.599999999999994 36.400000000000006,60.599999999999994 C 35.8,61.8 34.5,64.6 33.2,65.1 M 40.3,29.7 C 42.5,26.2 42.699999999999996,22.799999999999997 42.599999999999994,20.2 C 43.99999999999999,19.9 45.099999999999994,19.4 46.099999999999994,18.8 C 45.199999999999996,20.2 44.699999999999996,21.5 44.39999999999999,22.7 C 43.99999999999999,24.8 44.39999999999999,26.799999999999997 45.79999999999999,28.4 C 43.7,29.4 41.3,29.7 40.3,29.7 M 47.5,19.7 C 47.3,22.2 47.8,24.5 49.1,26.299999999999997 C 49.1,26.299999999999997 49.1,26.299999999999997 49.1,26.4 C 48.5,27.099999999999998 47.7,27.7 46.7,28.2 C 44.400000000000006,25.5 44.7,22.2 47.800000000000004,17.9 C 47.6,18.5 47.5,19.1 47.5,19.7 M 76.2,20.9 C 79.4,26.299999999999997 79.7,34.099999999999994 76.7,39.7 C 75.0,42.800000000000004 71.7,46.5 65.2,46.800000000000004 L 65.2,30.6 C 67.7,30.5 70.0,29.5 72.0,27.700000000000003 C 74.0,26.0 75.5,23.6 76.2,20.9 M 76.9,15.8 C 76.9,14.9 76.9,14.0 76.80000000000001,13.0 C 79.30000000000001,13.2 81.10000000000001,14.3 82.70000000000002,16.9 C 83.80000000000001,18.4 84.90000000000002,19.4 86.20000000000002,19.799999999999997 C 90.10000000000002,26.099999999999998 89.50000000000001,31.299999999999997 88.50000000000001,33.599999999999994 C 86.90000000000002,28.099999999999994 85.20000000000002,24.099999999999994 83.40000000000002,21.199999999999996 C 81.5,18.2 79.4,16.4 76.9,15.8 M 76.8,12.2 C 76.7,11.1 76.6,10.299999999999999 76.5,9.799999999999999 C 77.0,9.799999999999999 77.4,9.799999999999999 77.9,9.799999999999999 C 80.60000000000001,9.899999999999999 82.9,10.999999999999998 85.4,15.599999999999998 C 86.60000000000001,17.799999999999997 87.9,18.799999999999997 88.80000000000001,19.2 C 88.30000000000001,19.3 87.60000000000001,19.3 86.80000000000001,19.2 L 86.80000000000001,19.2 L 86.60000000000001,19.2 C 85.50000000000001,18.9 84.4,18.0 83.4,16.599999999999998 C 81.7,13.6 79.7,12.3 76.8,12.2 M 37.0,61.2 C 37.7,61.7 38.8,62.5 40.5,62.800000000000004 C 39.5,64.9 38.8,68.30000000000001 38.8,71.9 C 36.8,69.1 36.1,64.8 37.0,61.2 M 44.6,29.8 C 46.4,29.3 48.300000000000004,28.400000000000002 49.6,27.0 C 50.9,28.5 52.800000000000004,29.3 54.6,29.8 C 52.9,29.8 51.300000000000004,29.8 49.6,29.8 C 47.9,29.8 46.2,29.8 44.6,29.8 M 42.2,63.0 C 43.300000000000004,63.0 44.300000000000004,63.1 45.2,63.4 C 44.300000000000004,65.9 42.6,69.4 39.6,72.2 C 39.6,68.2 40.5,64.7 41.4,63.0 C 41.6,63.0 41.9,63.0 42.2,63.0 M 50.1,26.3 C 51.4,24.5 51.9,22.1 51.7,19.700000000000003 C 51.6,19.1 51.5,18.500000000000004 51.400000000000006,17.900000000000002 C 54.50000000000001,22.200000000000003 54.900000000000006,25.5 52.50000000000001,28.200000000000003 C 51.5,27.7 50.7,27.1 50.1,26.3 C 50.1,26.3 50.1,26.3 50.1,26.3 M 23.7,20.6 C 22.5,16.3 23.2,11.200000000000001 23.5,9.8 C 24.7,10.100000000000001 25.8,10.700000000000001 26.6,11.600000000000001 C 28.0,13.200000000000001 28.8,15.700000000000001 29.1,19.1 C 29.5,23.5 31.3,26.200000000000003 34.7,27.3 C 37.400000000000006,28.2 38.5,29.0 38.900000000000006,29.7 C 37.400000000000006,29.7 36.00000000000001,29.7 34.50000000000001,29.7 L 34.50000000000001,29.7 L 34.300000000000004,29.7 C 29.6,29.8 25.2,26.0 23.7,20.6 M 33.4,85.4 C 36.9,84.4 39.699999999999996,82.10000000000001 41.7,78.4 C 43.5,75.30000000000001 44.800000000000004,71.2 45.6,65.9 C 45.9,68.2 46.5,71.7 47.4,74.9 L 47.4,74.9 C 46.1,79.80000000000001 43.9,83.10000000000001 40.699999999999996,84.7 C 38.0,86.2 35.0,85.8 33.4,85.4 M 67.2,47.3 C 68.60000000000001,51.0 68.9,54.8 68.2,58.599999999999994 C 67.0,58.199999999999996 66.0,56.699999999999996 65.10000000000001,54.99999999999999 C 65.2,54.39999999999999 65.2,53.699999999999996 65.2,52.89999999999999 L 65.2,47.49999999999999 C 65.9,47.5 66.6,47.4 67.2,47.3 M 56.1,89.5 C 56.2,90.4 56.2,91.3 56.0,92.1 C 55.2,92.1 54.1,91.6 53.3,91.1 C 53.4,90.5 53.699999999999996,89.3 53.599999999999994,87.5 C 54.4,88.4 55.2,89.1 56.1,89.5 M 62.9,86.5 C 64.4,86.5 65.6,86.2 66.4,86.0 C 64.2,89.2 61.10000000000001,90.2 56.900000000000006,89.1 L 56.900000000000006,89.1 L 56.7,89.0 C 54.0,87.7 51.800000000000004,84.6 50.0,79.6 C 50.5,78.6 50.9,77.39999999999999 51.3,76.19999999999999 C 52.699999999999996,80.69999999999999 54.9,83.79999999999998 58.0,85.39999999999999 C 59.5,86.1 61.2,86.5 62.9,86.5 M 77.6,58.9 L 77.6,65.9 C 76.5,64.4 75.1,62.900000000000006 73.3,62.00000000000001 C 73.8,60.20000000000001 74.1,57.900000000000006 74.1,55.50000000000001 C 75.4,57.3 76.5,58.2 77.6,58.9 M 72.5,61.9 C 70.8,62.0 69.6,61.1 68.9,59.199999999999996 C 69.7,55.199999999999996 69.4,51.199999999999996 67.9,47.3 C 69.10000000000001,47.099999999999994 70.2,46.699999999999996 71.2,46.199999999999996 C 73.4,50.4 73.9,57.4 72.5,61.9 M 53.0,63.7 C 52.7,65.9 51.7,73.8 49.5,78.7 C 47.3,73.8 46.3,65.9 46.0,63.7 C 47.4,64.3 48.5,65.3 49.1,66.5 L 49.4,67.2 L 49.699999999999996,66.5 C 50.5,65.3 51.6,64.3 53.0,63.7 M 52.9,86.8 C 53.0,88.7 52.8,90.2 52.699999999999996,90.89999999999999 L 52.599999999999994,91.3 C 51.8,93.3 51.099999999999994,95.0 49.99999999999999,96.3 L 49.99999999999999,81.6 C 50.9,83.7 51.8,85.4 52.9,86.8 M 46.3,86.7 C 47.4,85.4 48.3,83.60000000000001 49.199999999999996,81.60000000000001 L 49.199999999999996,96.30000000000001 C 48.099999999999994,95.00000000000001 47.4,93.30000000000001 46.599999999999994,91.30000000000001 C 46.6,91.1 46.1,89.3 46.3,86.7 M 88.1,34.7 C 89.5,39.5 89.39999999999999,44.300000000000004 88.0,48.900000000000006 C 87.6,47.800000000000004 87.2,46.60000000000001 86.9,45.00000000000001 C 85.30000000000001,36.60000000000001 82.60000000000001,30.300000000000008 79.0,26.200000000000006 C 78.5,23.900000000000006 77.6,21.700000000000006 76.4,19.900000000000006 C 76.60000000000001,18.900000000000006 76.80000000000001,17.800000000000004 76.80000000000001,16.600000000000005 C 81.30000000000001,17.900000000000006 84.70000000000002,23.400000000000006 87.9,34.5 L 87.9,34.5 L 88.1,34.7 M 87.7,50.2 C 89.10000000000001,58.300000000000004 88.7,66.4 87.4,68.0 C 87.4,68.0 87.30000000000001,68.1 87.30000000000001,68.1 C 87.00000000000001,67.6 86.4,66.5 85.70000000000002,65.8 C 84.80000000000001,64.89999999999999 84.10000000000002,63.3 84.00000000000001,62.4 L 84.00000000000001,62.3 C 84.00000000000001,60.199999999999996 83.90000000000002,57.9 83.70000000000002,55.599999999999994 C 83.00000000000001,47.8 81.20000000000002,40.699999999999996 78.70000000000002,36.599999999999994 C 79.30000000000001,34.39999999999999 79.60000000000002,31.999999999999993 79.40000000000002,29.599999999999994 C 79.40000000000002,28.999999999999993 79.30000000000003,28.399999999999995 79.20000000000002,27.699999999999996 C 82.30000000000001,31.699999999999996 84.50000000000001,37.599999999999994 86.00000000000001,45.099999999999994 C 86.6,47.2 87.0,48.7 87.7,50.2 M 86.7,68.7 C 87.7,72.60000000000001 87.10000000000001,75.9 84.8,78.9 C 84.6,76.60000000000001 83.8,74.60000000000001 82.3,73.0 C 83.1,71.1 83.7,68.2 83.8,64.6 C 84.1,65.3 84.6,65.89999999999999 85.0,66.39999999999999 C 86.0,67.1 86.6,68.4 86.7,68.7 M 75.1,43.2 C 76.6,45.900000000000006 77.3,48.900000000000006 77.6,53.7 L 77.6,58.0 C 76.5,57.3 75.5,56.3 74.0,54.1 C 73.8,51.0 73.0,47.9 72.0,45.7 C 72.2,45.6 72.3,45.5 72.5,45.400000000000006 C 73.5,44.8 74.4,44.1 75.1,43.2 M 81.7,72.7 C 80.60000000000001,72.7 79.9,72.3 79.3,71.7 C 78.5,70.8 78.2,69.3 78.39999999999999,67.10000000000001 L 78.39999999999999,67.00000000000001 L 78.39999999999999,67.00000000000001 L 78.39999999999999,54.000000000000014 L 78.39999999999999,54.000000000000014 L 78.39999999999999,53.80000000000001 L 78.39999999999999,53.60000000000001 L 78.39999999999999,53.60000000000001 C 78.1,48.60000000000001 77.3,45.60000000000001 75.69999999999999,42.70000000000001 C 76.39999999999999,41.90000000000001 76.89999999999999,41.00000000000001 77.39999999999999,40.10000000000001 C 77.8,39.400000000000006 78.1,38.50000000000001 78.39999999999999,37.70000000000001 C 80.6,41.80000000000001 82.3,48.500000000000014 82.89999999999999,55.80000000000001 C 83.6,62.9 83.1,69.4 81.7,72.7 M 42.4,89.0 L 42.199999999999996,89.1 L 42.199999999999996,89.1 C 38.099999999999994,90.3 34.99999999999999,89.3 32.699999999999996,86.1 C 33.49999999999999,86.3 34.699999999999996,86.6 36.099999999999994,86.6 C 37.89999999999999,86.6 39.49999999999999,86.19999999999999 40.89999999999999,85.5 C 43.99999999999999,84.0 46.29999999999999,80.9 47.69999999999999,76.4 C 48.09999999999999,77.60000000000001 48.499999999999986,78.7 48.999999999999986,79.7 C 47.999999999999986,82.5 46.79999999999998,84.7 45.499999999999986,86.4 L 45.399999999999984,86.4 L 45.399999999999984,86.5 C 44.6,87.6 43.5,88.5 42.4,89.0 M 45.8,91.2 C 45.0,91.60000000000001 44.0,92.2 43.099999999999994,92.10000000000001 C 42.89999999999999,91.30000000000001 42.99999999999999,90.4 42.99999999999999,89.50000000000001 C 43.89999999999999,89.10000000000001 44.699999999999996,88.40000000000002 45.39999999999999,87.60000000000001 C 45.5,89.4 45.7,90.7 45.8,91.2 M 13.5,65.8 C 12.8,66.5 12.2,67.5 11.9,68.1 C 11.9,68.1 11.8,68.0 11.8,68.0 C 10.5,66.4 10.100000000000001,58.3 11.5,50.2 C 12.2,48.7 12.6,47.300000000000004 13.0,45.2 C 14.5,37.7 16.8,31.800000000000004 19.8,27.800000000000004 C 19.7,28.400000000000006 19.6,29.000000000000004 19.6,29.700000000000003 C 19.5,32.1 19.700000000000003,34.5 20.3,36.7 C 17.900000000000002,40.800000000000004 16.0,47.900000000000006 15.3,55.7 C 15.100000000000001,58.0 15.0,60.300000000000004 15.0,62.400000000000006 L 15.0,62.50000000000001 C 15.0,63.2 14.4,64.9 13.5,65.8 M 15.2,64.5 C 15.399999999999999,68.1 15.899999999999999,71.0 16.7,72.9 C 15.299999999999999,74.5 14.399999999999999,76.5 14.2,78.80000000000001 C 12.0,75.80000000000001 11.399999999999999,72.50000000000001 12.299999999999999,68.60000000000001 C 12.399999999999999,68.4 13.1,67.10000000000001 13.899999999999999,66.30000000000001 C 14.4,65.9 14.9,65.3 15.2,64.5 M 10.3,19.1 C 11.3,18.700000000000003 12.5,17.700000000000003 13.700000000000001,15.500000000000002 C 16.200000000000003,10.900000000000002 18.5,9.8 21.200000000000003,9.700000000000003 C 21.700000000000003,9.700000000000003 22.200000000000003,9.700000000000003 22.6,9.700000000000003 C 22.5,10.200000000000003 22.400000000000002,11.100000000000003 22.3,12.100000000000003 C 19.400000000000002,12.200000000000003 17.4,13.500000000000004 15.700000000000001,16.300000000000004 C 14.700000000000001,17.800000000000004 13.600000000000001,18.600000000000005 12.5,18.900000000000006 L 12.3,18.900000000000006 L 12.3,18.900000000000006 C 11.5,19.2 10.8,19.3 10.3,19.1 M 10.6,33.6 C 9.6,31.3 9.0,26.1 12.899999999999999,19.8 C 14.099999999999998,19.400000000000002 15.299999999999999,18.400000000000002 16.4,16.900000000000002 C 18.0,14.300000000000002 19.799999999999997,13.200000000000003 22.299999999999997,13.000000000000002 C 22.199999999999996,14.000000000000002 22.199999999999996,14.900000000000002 22.199999999999996,15.8 C 19.699999999999996,16.400000000000002 17.599999999999994,18.2 15.699999999999996,21.200000000000003 C 13.9,24.0 12.2,28.1 10.6,33.6 M 20.8,67.1 C 21.0,69.3 20.7,70.89999999999999 19.900000000000002,71.69999999999999 C 19.400000000000002,72.29999999999998 18.6,72.6 17.500000000000004,72.69999999999999 C 16.100000000000005,69.39999999999999 15.600000000000003,62.89999999999999 16.200000000000003,55.69999999999999 C 16.800000000000004,48.39999999999999 18.500000000000004,41.69999999999999 20.700000000000003,37.59999999999999 C 21.000000000000004,38.499999999999986 21.300000000000004,39.29999999999999 21.700000000000003,39.999999999999986 C 22.200000000000003,40.899999999999984 22.800000000000004,41.79999999999998 23.400000000000002,42.59999999999999 C 21.8,45.499999999999986 21.000000000000004,48.499999999999986 20.700000000000003,53.499999999999986 L 20.700000000000003,53.499999999999986 L 20.700000000000003,53.69999999999999 L 20.700000000000003,53.89999999999999 L 20.700000000000003,53.89999999999999 L 20.700000000000003,66.89999999999999 L 20.700000000000003,66.89999999999999 L 20.8,67.1 M 11.2,48.9 C 9.799999999999999,44.3 9.7,39.5 11.1,34.8 L 11.1,34.8 L 11.1,34.599999999999994 C 14.3,23.399999999999995 17.7,17.799999999999994 22.299999999999997,16.499999999999993 C 22.4,17.699999999999992 22.499999999999996,18.799999999999994 22.699999999999996,19.799999999999994 C 21.499999999999996,21.599999999999994 20.599999999999994,23.699999999999992 20.099999999999994,26.099999999999994 C 16.499999999999993,30.199999999999996 13.899999999999995,36.599999999999994 12.199999999999994,44.89999999999999 C 12.0,46.6 11.6,47.8 11.2,48.9 M 34.1,55.0 C 33.2,56.7 32.2,58.2 31.0,58.6 C 30.3,54.800000000000004 30.7,51.0 32.0,47.3 C 32.6,47.4 33.3,47.5 34.0,47.5 L 34.0,52.9 C 34.0,53.7 34.0,54.4 34.1,55.0 M 23.0,20.9 C 23.8,23.5 25.2,26.0 27.2,27.7 C 29.2,29.5 31.5,30.5 34.0,30.599999999999998 L 34.0,46.8 C 27.5,46.5 24.1,42.8 22.5,39.699999999999996 C 19.5,34.1 19.7,26.3 23.0,20.9 M 30.3,59.1 C 29.6,61.1 28.400000000000002,61.9 26.7,61.800000000000004 C 25.3,57.300000000000004 25.9,50.300000000000004 27.9,46.0 C 28.9,46.5 30.0,46.9 31.2,47.1 C 29.8,51.1 29.4,55.1 30.3,59.1 M 21.5,58.0 L 21.5,53.8 C 21.8,49.0 22.5,46.0 24.0,43.3 C 24.8,44.099999999999994 25.7,44.9 26.7,45.5 C 26.9,45.6 27.0,45.7 27.2,45.8 C 26.099999999999998,48.0 25.4,51.099999999999994 25.2,54.199999999999996 C 23.7,56.3 22.6,57.2 21.5,58.0 M 25.9,62.0 C 24.099999999999998,62.9 22.7,64.4 21.599999999999998,65.9 L 21.599999999999998,58.900000000000006 C 22.7,58.2 23.799999999999997,57.300000000000004 25.2,55.50000000000001 C 25.1,57.9 25.3,60.2 25.9,62.0" fill="#FFFFFF" stroke="none" stroke-width="0px" /></g></svg>