<?xml version="1.0" encoding="utf-8" ?>
<svg baseProfile="full" height="100px" version="1.1" width="150px" xmlns="http://www.w3.org/2000/svg" xmlns:ev="http://www.w3.org/2001/xml-events" xmlns:xlink="http://www.w3.org/1999/xlink"><defs><clipPath id="mask0"><rect height="100" width="150" x="0" y="0" /></clipPath></defs><g clip-path="url(#mask0)"><rect fill="#007934" height="100" stroke="none" width="150" x="0" y="0" /><path d="M0,0 L86.60254037844386,50.0 L0,100 z" fill="#ffce00" stroke="none" /></g><g transform="translate(11.015215963073612, 34.015215963073615) scale(0.3196956807385278) rotate(0, 50.0, 50.0)"><path d="M 84.4,64.4 L 100.0,48.6 L 84.4,33.3 L 84.4,15.6 L 66.4,15.6 L 50.6,0.0 L 35.3,15.6 L 15.6,15.6 L 15.6,35.6 L 0.0,51.4 L 15.6,66.7 L 15.6,84.4 L 33.6,84.4 L 49.4,100.0 L 64.7,84.4 L 84.4,84.4 L 84.4,64.4 M 94.7,48.6 L 84.4,59.0 L 84.4,38.6 L 94.7,48.6 M 80.6,62.9 L 63.2,80.6 L 35.1,80.6 L 19.4,65.2 L 19.4,37.1 L 36.9,19.400000000000002 L 65.0,19.400000000000002 L 80.7,34.800000000000004 L 80.7,62.9 L 80.6,62.9 M 80.6,19.4 L 80.6,29.599999999999998 L 70.3,19.4 L 80.6,19.4 M 50.6,5.3 L 61.0,15.6 L 40.6,15.6 L 50.6,5.3 M 19.4,19.4 L 31.599999999999998,19.4 L 19.4,31.7 L 19.4,19.4 M 5.3,51.4 L 15.6,41.0 L 15.6,61.4 L 5.3,51.4 M 19.4,80.6 L 19.4,70.5 L 29.7,80.7 L 19.4,80.7 L 19.4,80.6 M 49.4,94.7 L 39.0,84.4 L 59.4,84.4 L 49.4,94.7 M 68.5,80.6 L 80.6,68.3 L 80.6,80.6 L 68.5,80.6" fill="#437834" stroke="none" stroke-width="2.0px" /><path d="M 40.5,50.0 A 9.5,9.5 0.0 1,0 59.5,50.0 A 9.5,9.5 0.0 1,0 40.5,50.0" fill="#437834" stroke="none" stroke-width="2.0px" /></g></svg>