<?xml version="1.0" encoding="utf-8" ?>
<svg baseProfile="full" height="100px" version="1.1" width="150px" xmlns="http://www.w3.org/2000/svg" xmlns:ev="http://www.w3.org/2001/xml-events" xmlns:xlink="http://www.w3.org/1999/xlink"><defs><clipPath id="mask0"><rect height="100" width="150" x="0" y="0" /></clipPath></defs><g clip-path="url(#mask0)"><rect fill="#229e45" height="100" stroke="none" width="150" x="0" y="0" /><rect fill="#003265" height="100" stroke="none" width="35.84913345355865" x="0" y="0" /></g><g transform="translate(72.12399862091637, 29.19943189413705) scale(0.41601136211725903) rotate(0, 50.0, 50.0)"><path d="M 99.5,0.0 L 0.9,0.0 L 0.9,57.5 C 0.6,66.3 5.0,75.0 12.3,82.6 C 22.2,92.8 37.8,100.0 50.4,100.0 C 73.8,99.9 97.0,80.0 99.3,58.2 L 99.3,57.900000000000006 L 99.5,0.0" fill="#000000" stroke="none" stroke-width="3.0px" /><path d="M 24.6,5.6 L 41.8,5.6 L 41.8,23.6 L 24.6,23.6 L 24.6,5.6 M 58.7,23.8 L 75.4,23.8 L 75.4,5.6 L 58.7,5.6 L 58.7,23.8 M 6.7,40.7 L 24.9,40.7 L 24.9,23.5 L 6.7,23.5 L 6.7,40.7 M 41.5,40.6 L 58.8,40.6 L 58.8,23.7 L 41.5,23.7 L 41.5,40.6 M 24.6,57.7 L 41.7,57.7 L 41.7,40.6 L 24.6,40.6 L 24.6,57.7 M 58.5,58.4 L 75.5,58.4 L 75.5,40.4 L 58.5,40.4 L 58.5,58.4 M 8.5,66.6 C 10.0,69.8 10.9,72.0 12.9,74.6 L 24.6,74.5 L 24.6,57.5 L 7.0,57.5 C 7.0,60.8 7.6,63.6 8.5,66.6 M 41.6,74.6 L 58.900000000000006,74.6 L 58.900000000000006,57.7 L 41.6,57.7 L 41.6,74.6 M 24.6,85.5 C 28.3,87.9 33.3,90.4 37.5,92.0 L 41.4,92.2 L 41.4,74.5 L 24.6,74.5 L 24.6,85.5 M 58.5,92.5 L 62.3,92.6 C 66.89999999999999,91.19999999999999 71.7,88.5 75.39999999999999,86.0 L 75.49999999999999,74.5 L 58.499999999999986,74.5 L 58.5,92.5 M 93.8,23.7 L 75.4,23.7 L 75.4,40.5 L 93.80000000000001,40.5 L 93.80000000000001,23.7 L 93.8,23.7 M 75.4,58.5 L 75.4,74.7 L 86.80000000000001,74.9 C 88.4,73.0 89.80000000000001,70.4 91.10000000000001,67.80000000000001 C 92.2,64.70000000000002 93.30000000000001,62.000000000000014 93.80000000000001,58.60000000000001 L 75.4,58.5 L 75.4,58.5" fill="#ffce00" stroke="none" stroke-width="3.0px" /></g></svg>