<?xml version="1.0" encoding="utf-8" ?>
<svg baseProfile="full" height="100px" version="1.1" width="150px" xmlns="http://www.w3.org/2000/svg" xmlns:ev="http://www.w3.org/2001/xml-events" xmlns:xlink="http://www.w3.org/1999/xlink"><defs><clipPath id="mask0"><rect height="100" width="150" x="0" y="0" /></clipPath></defs><g clip-path="url(#mask0)"><rect fill="#ff3333" height="33.333333333333336" stroke="none" width="150" x="0" y="0.0" /><rect fill="#6699ff" height="33.333333333333336" stroke="none" width="150" x="0" y="33.333333333333336" /><rect fill="#ffffff" height="33.333333333333336" stroke="none" width="150" x="0" y="66.66666666666667" /></g><g transform="translate(36.12725831600236, 11.127258316002361) scale(0.7774548336799527) rotate(0, 50.0, 50.0)"><path d="M 39.4,100.0 C 39.1,99.2 38.8,98.4 38.5,97.6 C 38.4,97.5 38.3,97.3 38.1,97.3 C 37.4,97.2 37.2,96.6 36.9,96.0 C 36.199999999999996,94.6 35.5,93.2 34.8,91.8 C 34.699999999999996,91.6 34.5,91.39999999999999 34.199999999999996,91.3 C 27.299999999999997,87.3 21.599999999999994,81.89999999999999 16.899999999999995,75.3 C 16.299999999999994,74.5 15.499999999999995,74.3 14.699999999999996,73.89999999999999 C 14.099999999999996,73.6 13.699999999999996,73.3 13.499999999999996,72.69999999999999 C 12.699999999999996,70.79999999999998 11.899999999999997,68.89999999999999 10.899999999999997,67.1 C 10.399999999999997,66.19999999999999 10.599999999999996,65.39999999999999 11.299999999999997,64.8 C 11.899999999999997,64.3 11.799999999999997,63.8 11.599999999999998,63.199999999999996 C 11.099999999999998,61.8 10.699999999999998,60.3 10.299999999999997,58.9 C 10.199999999999998,58.699999999999996 9.999999999999996,58.5 9.899999999999997,58.4 C 7.899999999999997,57.1 5.899999999999997,55.8 3.6999999999999966,54.4 C 5.0,54.2 6.2,54.0 7.5,53.8 C 7.0,52.3 6.5,50.8 6.0,49.199999999999996 C 7.2,49.9 8.3,50.49999999999999 9.6,51.099999999999994 C 9.6,50.699999999999996 9.6,50.39999999999999 9.7,50.099999999999994 C 10.2,42.699999999999996 11.6,35.49999999999999 14.899999999999999,28.799999999999994 C 18.299999999999997,22.099999999999994 23.299999999999997,16.89999999999999 29.7,12.999999999999993 C 30.3,12.699999999999992 30.8,12.499999999999993 31.3,13.099999999999993 C 31.400000000000002,13.199999999999992 31.8,13.099999999999993 32.0,12.999999999999993 C 34.9,11.399999999999993 38.0,10.099999999999993 41.2,9.099999999999993 C 41.800000000000004,8.899999999999993 42.2,8.999999999999993 42.6,9.599999999999993 C 41.7,9.899999999999993 40.800000000000004,10.099999999999993 39.9,10.399999999999993 C 33.9,12.399999999999993 28.7,15.799999999999994 24.0,19.999999999999993 C 23.3,20.599999999999994 22.5,21.299999999999994 21.9,21.999999999999993 C 21.5,22.39999999999999 21.099999999999998,22.499999999999993 20.599999999999998,22.099999999999994 C 23.599999999999998,18.799999999999994 27.099999999999998,15.999999999999995 31.0,13.599999999999994 C 30.7,12.999999999999995 30.3,13.199999999999994 29.9,13.499999999999995 C 28.299999999999997,14.699999999999994 26.599999999999998,15.899999999999995 25.0,17.199999999999996 C 17.6,23.499999999999996 13.2,31.599999999999994 11.4,41.099999999999994 C 10.8,44.49999999999999 10.4,47.89999999999999 10.4,51.3 C 10.8,51.5 11.1,51.5 11.1,51.0 C 11.1,50.4 11.2,49.9 11.2,49.1 C 11.6,49.6 11.899999999999999,49.9 12.2,50.300000000000004 C 12.6,50.00000000000001 13.0,49.800000000000004 13.6,49.50000000000001 C 13.5,50.20000000000001 13.5,50.900000000000006 13.4,51.60000000000001 C 13.9,51.60000000000001 14.3,51.70000000000001 14.700000000000001,51.70000000000001 C 14.700000000000001,51.60000000000001 14.8,51.50000000000001 14.700000000000001,51.50000000000001 C 14.000000000000002,50.900000000000006 14.000000000000002,50.10000000000001 14.100000000000001,49.300000000000004 C 14.200000000000001,48.7 14.3,48.00000000000001 14.400000000000002,47.2 C 15.000000000000002,48.0 15.500000000000002,48.7 16.1,49.5 C 16.900000000000002,48.9 17.700000000000003,48.4 18.5,47.8 C 18.4,49.5 18.7,51.099999999999994 16.8,51.9 C 17.3,52.199999999999996 17.3,52.199999999999996 18.2,51.5 C 18.2,51.8 18.3,52.0 18.3,52.2 C 18.5,52.2 18.7,52.300000000000004 19.0,52.300000000000004 C 19.0,51.300000000000004 19.0,50.300000000000004 19.0,49.300000000000004 C 19.1,49.300000000000004 19.1,49.2 19.2,49.2 C 19.5,49.5 19.7,49.900000000000006 20.0,50.2 C 20.6,50.900000000000006 21.1,51.6 21.7,52.400000000000006 C 21.9,52.60000000000001 22.099999999999998,52.7 22.3,52.900000000000006 C 22.400000000000002,52.900000000000006 22.400000000000002,52.800000000000004 22.5,52.800000000000004 C 22.5,52.400000000000006 22.5,52.1 22.5,51.7 C 22.5,46.5 23.1,41.5 24.8,36.6 C 26.0,33.4 27.6,30.400000000000002 30.0,27.900000000000002 C 30.5,27.3 30.5,27.200000000000003 29.9,26.6 C 28.599999999999998,28.400000000000002 27.4,30.200000000000003 26.2,32.0 C 25.4,33.2 25.4,33.2 24.0,33.5 C 23.4,32.5 23.1,31.4 23.9,30.4 C 24.0,30.299999999999997 24.099999999999998,30.099999999999998 24.2,30.0 C 25.0,29.8 25.3,29.1 25.7,28.4 C 29.7,22.2 35.3,18.099999999999998 42.0,15.399999999999999 C 42.7,15.099999999999998 43.5,14.799999999999999 44.2,14.599999999999998 C 44.400000000000006,15.199999999999998 44.0,15.399999999999999 43.6,15.499999999999998 C 39.4,17.099999999999998 35.6,19.2 32.2,22.2 C 29.800000000000004,24.3 27.700000000000003,26.6 25.900000000000002,29.2 C 25.500000000000004,29.7 25.3,30.2 25.8,30.9 C 26.0,30.7 26.2,30.4 26.400000000000002,30.2 C 29.000000000000004,26.599999999999998 32.0,23.2 35.6,20.5 C 38.0,18.7 40.6,17.2 43.4,16.3 C 43.5,16.3 43.699999999999996,16.2 43.9,16.2 C 44.0,16.7 43.8,16.9 43.3,17.0 C 38.199999999999996,18.8 34.0,22.0 30.499999999999996,26.0 C 30.499999999999996,26.1 30.399999999999995,26.1 30.399999999999995,26.2 C 31.099999999999994,27.3 31.099999999999994,27.3 30.299999999999994,28.3 C 26.699999999999992,32.8 24.599999999999994,38.0 23.799999999999994,43.6 C 23.399999999999995,46.5 23.299999999999994,49.4 23.099999999999994,52.3 C 23.099999999999994,52.8 23.199999999999996,53.099999999999994 23.599999999999994,53.4 C 24.199999999999996,53.8 24.799999999999994,54.199999999999996 25.299999999999994,54.699999999999996 C 25.499999999999993,54.9 25.699999999999992,55.199999999999996 25.699999999999992,55.49999999999999 C 25.699999999999992,57.199999999999996 25.699999999999992,58.99999999999999 25.59999999999999,60.699999999999996 C 25.59999999999999,61.099999999999994 25.199999999999992,61.4 24.99999999999999,61.8 C 24.899999999999988,61.8 24.79999999999999,61.8 24.79999999999999,61.8 C 25.89999999999999,63.8 27.09999999999999,65.8 28.29999999999999,67.89999999999999 C 28.59999999999999,67.3 28.89999999999999,66.89999999999999 29.49999999999999,67.1 C 29.59999999999999,67.1 29.79999999999999,66.8 29.79999999999999,66.8 C 29.49999999999999,65.7 29.69999999999999,65.5 30.99999999999999,65.6 C 30.99999999999999,64.89999999999999 31.09999999999999,64.19999999999999 30.99999999999999,63.599999999999994 C 30.899999999999988,63.099999999999994 30.899999999999988,62.699999999999996 31.29999999999999,62.39999999999999 C 31.59999999999999,62.099999999999994 31.89999999999999,61.69999999999999 32.09999999999999,61.39999999999999 C 31.299999999999986,60.19999999999999 30.399999999999988,58.99999999999999 29.799999999999986,57.79999999999999 C 28.399999999999988,55.19999999999999 28.399999999999988,52.59999999999999 29.699999999999985,49.99999999999999 C 30.399999999999984,48.699999999999996 31.199999999999985,47.39999999999999 31.999999999999986,46.199999999999996 C 32.69999999999999,45.099999999999994 33.29999999999998,43.99999999999999 33.499999999999986,42.699999999999996 C 33.69999999999999,41.199999999999996 34.399999999999984,39.99999999999999 35.29999999999998,38.9 C 35.499999999999986,38.6 35.69999999999998,38.199999999999996 35.69999999999998,37.9 C 35.99999999999998,34.0 38.69999999999998,31.2 42.69999999999998,30.9 C 43.09999999999998,30.9 43.49999999999998,30.9 44.09999999999998,30.799999999999997 C 41.09999999999998,33.099999999999994 40.29999999999998,35.0 41.29999999999998,37.4 C 41.69999999999998,36.5 41.999999999999986,35.6 42.59999999999998,34.699999999999996 C 43.09999999999998,33.8 44.09999999999998,33.4 44.99999999999998,32.99999999999999 C 44.99999999999998,34.199999999999996 44.89999999999998,35.29999999999999 44.99999999999998,36.49999999999999 C 45.09999999999998,37.599999999999994 45.39999999999998,38.79999999999999 46.69999999999998,39.39999999999999 C 46.59999999999998,38.69999999999999 46.49999999999998,37.99999999999999 46.399999999999984,37.39999999999999 C 46.19999999999998,34.99999999999999 46.79999999999998,32.89999999999999 48.29999999999998,31.09999999999999 C 49.69999999999998,29.39999999999999 50.09999999999998,27.49999999999999 49.19999999999998,25.19999999999999 C 49.69999999999998,25.49999999999999 50.09999999999998,25.69999999999999 50.399999999999984,25.899999999999988 C 52.19999999999998,27.299999999999986 52.79999999999998,29.299999999999986 52.09999999999999,31.599999999999987 C 51.69999999999999,32.899999999999984 51.499999999999986,34.09999999999999 51.69999999999999,35.499999999999986 C 51.79999999999999,35.899999999999984 51.999999999999986,36.19999999999999 52.19999999999999,36.59999999999999 C 52.59999999999999,34.899999999999984 52.89999999999999,33.19999999999999 54.89999999999999,32.59999999999999 C 54.49999999999999,34.59999999999999 54.599999999999994,36.399999999999984 56.39999999999999,37.79999999999999 C 56.79999999999999,35.59999999999999 56.99999999999999,33.39999999999999 56.29999999999999,31.29999999999999 C 57.59999999999999,32.39999999999999 58.79999999999999,33.59999999999999 60.19999999999999,34.79999999999999 C 60.59999999999999,32.79999999999999 59.999999999999986,31.19999999999999 58.999999999999986,29.49999999999999 C 59.29999999999998,29.59999999999999 59.499999999999986,29.59999999999999 59.59999999999999,29.69999999999999 C 62.79999999999999,31.099999999999987 64.49999999999999,33.59999999999999 64.49999999999999,37.09999999999999 C 64.49999999999999,39.59999999999999 65.39999999999999,41.69999999999999 66.99999999999999,43.59999999999999 C 68.59999999999998,45.499999999999986 70.09999999999998,47.399999999999984 70.89999999999999,49.79999999999999 C 71.6,51.79999999999999 71.89999999999999,53.89999999999999 71.39999999999999,55.99999999999999 C 70.99999999999999,57.79999999999999 69.8,59.199999999999996 68.69999999999999,60.49999999999999 C 68.49999999999999,60.699999999999996 68.29999999999998,60.89999999999999 68.19999999999999,61.099999999999994 C 68.29999999999998,61.199999999999996 68.39999999999999,61.39999999999999 68.49999999999999,61.49999999999999 C 69.29999999999998,62.199999999999996 69.89999999999999,62.99999999999999 69.39999999999999,64.19999999999999 C 69.19999999999999,64.6 69.49999999999999,65.1 69.49999999999999,65.6 C 70.79999999999998,65.5 70.89999999999999,65.6 70.69999999999999,66.8 C 70.69999999999999,66.89999999999999 70.89999999999999,67.1 71.1,67.1 C 71.89999999999999,67.1 71.89999999999999,67.1 72.3,68.0 C 73.5,65.9 74.6,64.0 75.8,61.9 C 74.5,61.5 74.6,60.5 74.6,59.6 C 74.6,58.300000000000004 74.6,56.9 74.5,55.6 C 74.5,55.1 74.6,54.800000000000004 75.0,54.6 C 75.4,54.4 75.7,54.0 76.1,53.800000000000004 C 77.19999999999999,53.2 77.39999999999999,52.400000000000006 77.39999999999999,51.2 C 77.19999999999999,45.800000000000004 76.49999999999999,40.400000000000006 74.39999999999999,35.400000000000006 C 73.3,32.800000000000004 71.89999999999999,30.500000000000007 70.1,28.300000000000004 C 69.3,27.300000000000004 69.3,27.300000000000004 70.1,26.200000000000003 C 69.5,25.6 68.89999999999999,24.900000000000002 68.3,24.300000000000004 C 65.1,21.100000000000005 61.4,18.600000000000005 57.099999999999994,17.000000000000004 C 56.8,16.900000000000002 56.599999999999994,16.600000000000005 56.39999999999999,16.400000000000002 C 56.39999999999999,16.3 56.49999999999999,16.3 56.49999999999999,16.200000000000003 C 56.699999999999996,16.200000000000003 56.79999999999999,16.200000000000003 56.99999999999999,16.300000000000004 C 61.199999999999996,17.600000000000005 64.8,20.000000000000004 67.8,23.100000000000005 C 70.0,25.300000000000004 71.8,27.700000000000003 73.8,30.000000000000007 C 74.0,30.300000000000008 74.2,30.500000000000007 74.39999999999999,30.900000000000006 C 74.8,30.300000000000004 74.8,29.900000000000006 74.39999999999999,29.300000000000004 C 70.0,23.0 64.2,18.6 57.1,15.8 C 56.6,15.600000000000001 55.800000000000004,15.600000000000001 55.9,14.600000000000001 C 57.699999999999996,15.400000000000002 59.5,16.1 61.199999999999996,16.900000000000002 C 67.0,19.7 71.7,23.7 75.0,29.3 C 75.1,29.5 75.2,29.7 75.4,29.8 C 76.2,30.0 76.4,30.7 76.7,31.3 C 76.8,31.6 76.8,31.900000000000002 76.8,32.2 C 76.7,32.7 76.5,33.1 76.3,33.6 C 75.39999999999999,33.5 74.7,33.2 74.1,32.300000000000004 C 72.89999999999999,30.400000000000006 71.6,28.600000000000005 70.3,26.700000000000003 C 69.7,27.200000000000003 69.8,27.500000000000004 70.1,27.900000000000002 C 74.6,32.7 76.5,38.5 77.3,44.900000000000006 C 77.6,47.50000000000001 77.7,50.2 77.89999999999999,53.00000000000001 C 78.1,52.800000000000004 78.39999999999999,52.70000000000001 78.6,52.50000000000001 C 79.39999999999999,51.50000000000001 80.3,50.400000000000006 81.19999999999999,49.20000000000001 C 81.19999999999999,50.40000000000001 81.19999999999999,51.30000000000001 81.19999999999999,52.40000000000001 C 81.49999999999999,52.40000000000001 81.69999999999999,52.40000000000001 81.89999999999999,52.40000000000001 C 81.89999999999999,52.20000000000001 81.99999999999999,51.90000000000001 81.99999999999999,51.70000000000001 C 82.39999999999999,51.90000000000001 82.79999999999998,52.10000000000001 83.19999999999999,52.30000000000001 C 83.29999999999998,52.20000000000001 83.39999999999999,52.10000000000001 83.39999999999999,52.10000000000001 C 81.49999999999999,51.30000000000001 81.69999999999999,49.60000000000001 81.69999999999999,48.00000000000001 C 82.49999999999999,48.60000000000001 83.29999999999998,49.10000000000001 84.1,49.70000000000001 C 84.69999999999999,49.00000000000001 85.19999999999999,48.30000000000001 85.8,47.50000000000001 C 85.89999999999999,48.70000000000001 86.1,49.70000000000001 86.1,50.800000000000004 C 86.1,51.2 85.69999999999999,51.6 85.39999999999999,52.1 C 85.89999999999999,52.1 86.3,52.0 86.8,52.0 C 86.7,51.3 86.7,50.7 86.6,49.9 C 87.1,50.199999999999996 87.5,50.4 88.0,50.699999999999996 C 88.3,50.3 88.6,49.99999999999999 89.0,49.4 C 89.1,50.3 89.1,50.9 89.1,51.699999999999996 C 89.3,51.699999999999996 89.5,51.699999999999996 89.69999999999999,51.8 C 89.69999999999999,51.699999999999996 89.79999999999998,51.699999999999996 89.79999999999998,51.599999999999994 C 89.69999999999999,42.39999999999999 87.79999999999998,33.599999999999994 82.59999999999998,25.799999999999994 C 79.29999999999998,20.89999999999999 75.09999999999998,17.099999999999994 70.19999999999997,13.799999999999994 C 69.79999999999997,13.599999999999994 69.49999999999997,13.399999999999993 69.09999999999998,13.999999999999993 C 72.99999999999999,16.299999999999994 76.39999999999998,19.099999999999994 79.49999999999999,22.39999999999999 C 78.99999999999999,22.79999999999999 78.69999999999999,22.699999999999992 78.19999999999999,22.29999999999999 C 73.99999999999999,18.19999999999999 69.29999999999998,14.59999999999999 63.89999999999999,12.19999999999999 C 61.79999999999999,11.29999999999999 59.69999999999999,10.59999999999999 57.599999999999994,9.79999999999999 C 58.1,9.0 58.5,9.0 59.1,9.2 C 62.4,10.299999999999999 65.7,11.6 68.7,13.299999999999999 C 69.7,12.6 69.8,12.6 70.9,13.2 C 81.2,19.5 87.10000000000001,28.799999999999997 89.4,40.5 C 90.0,43.7 90.30000000000001,47.0 90.7,50.3 C 90.7,50.5 90.7,50.699999999999996 90.8,50.9 C 91.89999999999999,50.3 92.89999999999999,49.699999999999996 94.1,49.1 C 93.6,50.7 93.1,52.2 92.6,53.7 C 93.89999999999999,53.900000000000006 95.19999999999999,54.1 96.39999999999999,54.2 C 96.39999999999999,54.2 96.39999999999999,54.300000000000004 96.39999999999999,54.300000000000004 C 96.3,54.300000000000004 96.19999999999999,54.300000000000004 96.1,54.400000000000006 C 94.19999999999999,55.60000000000001 92.19999999999999,56.900000000000006 90.3,58.10000000000001 C 90.1,58.20000000000001 89.89999999999999,58.50000000000001 89.8,58.80000000000001 C 89.39999999999999,60.10000000000001 89.0,61.30000000000001 88.6,62.60000000000001 C 88.39999999999999,63.10000000000001 88.39999999999999,63.50000000000001 88.89999999999999,63.900000000000006 C 89.99999999999999,64.80000000000001 89.99999999999999,65.30000000000001 89.39999999999999,66.60000000000001 C 88.6,68.30000000000001 87.8,70.10000000000001 87.1,71.80000000000001 C 86.69999999999999,72.70000000000002 86.3,73.30000000000001 85.3,73.60000000000001 C 84.39999999999999,73.9 84.0,74.50000000000001 83.5,75.30000000000001 C 81.8,78.50000000000001 79.7,81.30000000000001 77.1,83.70000000000002 C 74.0,86.70000000000002 70.39999999999999,89.00000000000001 66.5,90.90000000000002 C 66.2,91.10000000000002 65.8,91.30000000000003 65.7,91.50000000000001 C 64.5,93.80000000000001 63.300000000000004,96.10000000000001 62.2,98.50000000000001 C 62.0,98.90000000000002 61.900000000000006,99.30000000000001 61.7,99.80000000000001 C 61.6,99.80000000000001 61.400000000000006,99.80000000000001 61.300000000000004,99.80000000000001 C 61.1,99.70000000000002 60.900000000000006,99.60000000000001 60.7,99.50000000000001 C 58.0,98.8 55.2,98.0 52.5,97.0 C 51.0,96.5 49.7,96.2 48.2,97.0 C 47.800000000000004,97.2 47.300000000000004,97.3 46.800000000000004,97.5 C 44.50000000000001,98.3 42.1,99.1 39.800000000000004,100.0 C 39.7,100.0 39.6,100.0 39.4,100.0 M 36.0,83.2 C 45.7,81.10000000000001 55.4,80.9 65.1,82.9 C 65.6,80.60000000000001 66.0,78.4 66.39999999999999,76.2 C 55.69999999999999,74.2 45.099999999999994,74.3 34.49999999999999,76.3 C 35.0,78.6 35.5,80.8 36.0,83.2 M 88.8,65.3 C 88.5,65.39999999999999 88.3,65.5 88.0,65.6 C 85.2,66.5 82.4,67.39999999999999 79.6,68.3 C 79.1,68.39999999999999 78.89999999999999,68.7 78.6,69.1 C 77.89999999999999,70.3 77.19999999999999,71.5 76.5,72.6 C 74.1,76.0 71.1,78.8 68.0,81.39999999999999 C 67.8,81.6 67.5,81.89999999999999 67.4,82.19999999999999 C 67.10000000000001,83.39999999999999 66.80000000000001,84.49999999999999 66.5,85.69999999999999 C 66.4,85.99999999999999 66.3,86.29999999999998 66.0,86.49999999999999 C 64.5,87.79999999999998 62.9,89.19999999999999 61.3,90.39999999999999 C 60.699999999999996,90.89999999999999 60.599999999999994,91.39999999999999 60.699999999999996,92.1 C 60.8,92.1 60.9,92.0 60.99999999999999,92.0 C 64.5,90.4 67.69999999999999,88.6 70.89999999999999,86.4 C 73.69999999999999,84.4 76.3,82.2 78.39999999999999,79.4 C 81.0,76.0 82.8,72.1 83.9,68.0 C 84.0,67.5 84.30000000000001,67.2 84.80000000000001,67.1 C 86.00000000000001,66.8 87.30000000000001,66.39999999999999 88.50000000000001,66.1 C 89.60000000000001,65.8 89.70000000000002,65.5 88.90000000000002,64.69999999999999 C 88.70000000000002,64.49999999999999 88.50000000000001,64.39999999999999 88.30000000000003,64.19999999999999 C 88.20000000000003,64.29999999999998 88.20000000000003,64.29999999999998 88.10000000000002,64.39999999999999 C 88.3,64.6 88.6,64.9 88.8,65.3 M 51.1,56.5 C 50.0,60.6 49.7,64.4 53.4,67.5 C 54.1,65.7 54.199999999999996,64.1 53.4,62.4 C 52.1,59.8 52.6,57.699999999999996 54.6,55.6 C 55.2,54.9 55.800000000000004,54.1 56.2,53.300000000000004 C 56.5,52.7 56.7,51.900000000000006 56.900000000000006,51.2 C 56.800000000000004,52.900000000000006 56.300000000000004,54.400000000000006 55.10000000000001,55.7 C 53.400000000000006,57.5 53.00000000000001,59.6 53.80000000000001,61.900000000000006 C 54.40000000000001,63.7 55.20000000000001,65.5 55.90000000000001,67.30000000000001 C 56.000000000000014,66.9 56.30000000000001,66.50000000000001 56.40000000000001,66.00000000000001 C 56.40000000000001,64.70000000000002 56.600000000000016,63.40000000000001 56.30000000000001,62.20000000000002 C 55.90000000000001,60.000000000000014 56.10000000000001,57.90000000000002 57.20000000000001,56.000000000000014 C 57.70000000000001,55.000000000000014 58.30000000000001,54.100000000000016 58.80000000000001,53.100000000000016 C 59.60000000000001,51.600000000000016 59.70000000000001,50.20000000000002 59.000000000000014,48.70000000000002 C 58.500000000000014,47.600000000000016 58.000000000000014,46.600000000000016 57.500000000000014,45.500000000000014 C 56.90000000000001,44.20000000000002 56.500000000000014,42.80000000000001 56.600000000000016,41.40000000000001 C 56.600000000000016,41.20000000000001 56.40000000000001,40.90000000000001 56.30000000000002,40.70000000000001 C 55.100000000000016,39.40000000000001 54.30000000000002,37.90000000000001 54.00000000000002,36.20000000000001 C 53.90000000000002,35.90000000000001 53.90000000000002,35.60000000000001 53.80000000000002,35.30000000000001 C 53.70000000000002,35.30000000000001 53.70000000000002,35.30000000000001 53.600000000000016,35.30000000000001 C 53.500000000000014,36.000000000000014 53.30000000000002,36.60000000000001 53.20000000000002,37.30000000000001 C 53.000000000000014,39.000000000000014 53.600000000000016,40.500000000000014 54.100000000000016,42.10000000000001 C 55.30000000000002,45.400000000000006 55.000000000000014,48.50000000000001 53.100000000000016,51.400000000000006 C 52.20000000000002,52.800000000000004 51.000000000000014,54.10000000000001 49.90000000000001,55.400000000000006 C 48.70000000000001,56.7 47.90000000000001,58.10000000000001 47.30000000000001,59.800000000000004 C 46.20000000000001,63.1 47.500000000000014,66.2 50.500000000000014,68.0 C 48.8,63.9 47.2,60.0 51.1,56.5 M 37.3,48.2 C 37.3,49.0 37.0,49.7 36.099999999999994,51.2 C 34.99999999999999,52.900000000000006 34.3,54.800000000000004 34.39999999999999,56.900000000000006 C 34.49999999999999,58.300000000000004 34.89999999999999,59.60000000000001 35.69999999999999,60.900000000000006 C 35.89999999999999,57.300000000000004 37.19999999999999,54.50000000000001 39.59999999999999,52.10000000000001 C 41.19999999999999,50.50000000000001 41.999999999999986,48.50000000000001 41.999999999999986,46.20000000000001 C 41.999999999999986,44.10000000000001 41.29999999999998,42.30000000000001 40.499999999999986,40.40000000000001 C 39.499999999999986,38.30000000000001 39.19999999999999,36.100000000000016 39.499999999999986,33.80000000000001 C 39.499999999999986,33.40000000000001 39.59999999999999,33.10000000000001 39.59999999999999,32.60000000000001 C 39.29999999999999,32.900000000000006 39.09999999999999,33.00000000000001 38.899999999999984,33.20000000000001 C 36.999999999999986,35.00000000000001 36.399999999999984,37.20000000000001 36.69999999999998,39.80000000000001 C 36.899999999999984,41.40000000000001 36.79999999999998,43.000000000000014 36.79999999999998,44.60000000000001 C 36.79999999999998,45.80000000000001 36.29999999999998,46.70000000000001 35.59999999999998,47.30000000000001 C 36.59999999999998,44.80000000000001 36.19999999999998,42.40000000000001 35.69999999999998,39.80000000000001 C 34.99999999999998,40.60000000000001 34.79999999999998,41.500000000000014 34.79999999999998,42.30000000000001 C 34.59999999999998,44.20000000000001 34.19999999999998,45.90000000000001 33.09999999999998,47.500000000000014 C 31.29999999999998,50.100000000000016 30.89999999999998,53.100000000000016 31.79999999999998,56.20000000000002 C 32.19999999999998,57.500000000000014 32.79999999999998,58.600000000000016 33.89999999999998,59.500000000000014 C 33.89999999999998,59.40000000000001 33.89999999999998,59.30000000000001 33.89999999999998,59.20000000000002 C 33.09999999999998,56.20000000000002 33.89999999999998,53.600000000000016 35.59999999999998,51.100000000000016 C 36.3,50.2 36.8,49.1 37.3,48.2 M 46.4,54.5 C 45.699999999999996,55.5 45.0,56.4 44.4,57.3 C 43.6,58.5 43.0,59.8 43.0,61.199999999999996 C 42.9,64.1 44.9,65.69999999999999 47.1,67.3 C 46.7,66.3 46.4,65.39999999999999 46.1,64.5 C 45.4,62.4 45.4,60.4 46.4,58.4 C 47.199999999999996,56.8 48.3,55.4 49.6,54.3 C 51.6,52.5 52.800000000000004,50.3 53.300000000000004,47.699999999999996 C 53.900000000000006,44.9 53.6,42.3 51.300000000000004,40.199999999999996 C 50.00000000000001,38.99999999999999 49.300000000000004,37.4 49.300000000000004,35.49999999999999 C 49.300000000000004,34.49999999999999 49.50000000000001,33.49999999999999 49.6,32.49999999999999 C 49.7,31.799999999999994 49.9,30.999999999999993 50.1,30.299999999999994 C 50.0,30.299999999999994 50.0,30.199999999999992 49.9,30.199999999999992 C 49.199999999999996,31.299999999999994 48.4,32.39999999999999 47.699999999999996,33.599999999999994 C 46.49999999999999,35.89999999999999 46.3,38.199999999999996 47.3,40.599999999999994 C 48.199999999999996,42.699999999999996 48.199999999999996,44.99999999999999 47.599999999999994,47.199999999999996 C 47.199999999999996,48.699999999999996 46.39999999999999,49.99999999999999 45.49999999999999,51.199999999999996 C 44.099999999999994,52.9 42.79999999999999,54.699999999999996 42.199999999999996,56.9 C 41.99999999999999,57.8 41.8,58.6 42.099999999999994,59.6 C 44.3,56.0 44.8,55.3 46.4,54.5 M 12.2,64.8 C 12.1,64.8 12.0,64.8 12.0,64.8 C 11.8,65.1 11.6,65.3 11.4,65.6 C 10.9,66.3 10.9,66.5 11.8,66.8 C 13.200000000000001,67.3 14.600000000000001,67.7 16.1,68.2 C 16.400000000000002,68.3 16.700000000000003,68.60000000000001 16.700000000000003,68.8 C 17.200000000000003,70.7 18.000000000000004,72.5 19.000000000000004,74.3 C 22.800000000000004,80.8 28.1,85.8 34.6,89.5 C 36.300000000000004,90.5 38.2,91.3 40.0,92.2 C 40.1,91.5 39.8,91.10000000000001 39.4,90.7 C 38.1,89.60000000000001 36.9,88.4 35.6,87.4 C 34.6,86.60000000000001 33.9,85.7 33.7,84.5 C 33.400000000000006,82.9 32.5,81.8 31.300000000000004,80.8 C 27.400000000000006,77.5 24.000000000000004,73.89999999999999 21.700000000000003,69.2 C 21.6,69.0 21.200000000000003,68.8 20.900000000000002,68.7 C 18.200000000000003,68.10000000000001 15.500000000000002,67.4 12.900000000000002,66.3 C 12.700000000000003,66.2 12.400000000000002,66.1 12.300000000000002,66.0 C 12.2,65.4 12.2,65.1 12.2,64.8 M 43.7,66.7 C 43.5,66.4 43.300000000000004,66.2 43.2,66.0 C 41.5,63.6 40.6,61.0 41.1,58.1 C 41.5,55.5 42.800000000000004,53.4 44.6,51.5 C 45.9,50.1 46.800000000000004,48.5 47.1,46.7 C 47.4,44.900000000000006 47.4,43.1 46.0,41.800000000000004 C 45.0,40.800000000000004 44.5,39.7 44.3,38.300000000000004 C 44.199999999999996,37.400000000000006 44.199999999999996,36.6 44.099999999999994,35.6 C 42.99999999999999,36.2 42.39999999999999,37.1 42.099999999999994,38.2 C 41.8,39.400000000000006 41.89999999999999,40.6 42.3,41.800000000000004 C 42.8,43.50000000000001 43.0,45.2 42.699999999999996,46.900000000000006 C 42.4,49.300000000000004 41.3,51.400000000000006 40.199999999999996,53.60000000000001 C 39.599999999999994,54.80000000000001 38.99999999999999,56.00000000000001 38.599999999999994,57.20000000000001 C 37.599999999999994,60.50000000000001 38.39999999999999,63.60000000000001 40.8,65.50000000000001 C 41.5,66.1 42.4,66.6 43.7,66.7 M 11.2,58.1 C 11.1,58.2 11.1,58.2 11.0,58.300000000000004 C 11.0,58.400000000000006 11.0,58.50000000000001 11.0,58.6 C 11.5,61.2 12.4,63.6 13.6,66.0 C 13.7,66.2 13.9,66.3 14.1,66.4 C 14.1,66.4 14.2,66.30000000000001 14.2,66.30000000000001 C 14.0,65.70000000000002 13.7,65.00000000000001 13.5,64.30000000000001 C 14.6,64.4 14.7,65.30000000000001 14.9,65.9 C 15.1,66.4 15.3,66.7 15.9,66.7 C 15.6,65.9 15.200000000000001,65.2 15.200000000000001,64.5 C 15.200000000000001,63.8 15.700000000000001,63.0 16.0,62.1 C 16.2,62.5 16.3,62.7 16.4,62.9 C 17.0,64.3 17.599999999999998,65.7 18.2,67.2 C 18.3,67.4 18.4,67.7 18.599999999999998,67.7 C 19.099999999999998,67.8 19.7,67.9 20.4,68.0 C 19.9,66.9 19.4,65.9 18.9,64.9 C 18.799999999999997,64.7 18.599999999999998,64.5 18.4,64.5 C 17.0,64.1 16.9,63.0 16.5,62.0 C 17.1,62.2 17.6,62.4 18.2,62.5 C 18.599999999999998,62.0 18.9,61.5 19.3,61.0 C 19.6,61.6 19.8,62.0 20.0,62.5 C 20.1,62.7 20.1,63.0 20.0,63.1 C 19.3,64.2 19.5,65.2 20.1,66.2 C 20.3,66.5 20.400000000000002,66.9 20.6,67.2 C 20.8,67.7 21.0,68.3 21.700000000000003,68.3 C 21.800000000000004,68.3 22.000000000000004,68.6 22.1,68.8 C 23.900000000000002,72.39999999999999 26.3,75.6 29.3,78.39999999999999 C 30.2,79.19999999999999 31.2,80.1 32.1,80.89999999999999 C 32.2,80.8 32.300000000000004,80.8 32.4,80.69999999999999 C 32.1,80.19999999999999 31.799999999999997,79.6 31.4,79.19999999999999 C 28.9,76.89999999999999 26.7,74.39999999999999 24.7,71.6 C 23.2,69.5 21.9,67.3 20.8,64.89999999999999 C 21.400000000000002,64.8 21.6,64.99999999999999 21.900000000000002,65.49999999999999 C 23.400000000000002,68.49999999999999 25.200000000000003,71.39999999999999 27.5,73.99999999999999 C 28.8,75.59999999999998 30.3,76.99999999999999 32.0,78.29999999999998 C 32.7,77.89999999999998 32.2,77.59999999999998 31.9,77.29999999999998 C 28.299999999999997,73.79999999999998 25.2,69.79999999999998 23.0,65.19999999999999 C 22.9,64.89999999999999 22.6,64.6 22.4,64.6 C 21.299999999999997,64.39999999999999 20.9,63.599999999999994 20.599999999999998,62.49999999999999 C 21.2,62.599999999999994 21.799999999999997,62.89999999999999 22.2,62.699999999999996 C 22.599999999999998,62.49999999999999 22.8,61.8 23.0,61.3 C 23.0,61.3 23.1,61.3 23.1,61.199999999999996 C 23.6,61.99999999999999 24.1,62.8 23.6,63.8 C 23.400000000000002,64.1 23.5,64.7 23.700000000000003,65.0 C 25.1,67.8 26.700000000000003,70.5 28.800000000000004,72.9 C 30.100000000000005,74.4 31.500000000000004,75.7 32.800000000000004,77.2 C 32.900000000000006,77.10000000000001 33.00000000000001,77.0 33.1,77.0 C 33.0,76.8 32.9,76.5 32.7,76.3 C 29.300000000000004,72.8 26.500000000000004,69.0 24.200000000000003,64.7 C 24.000000000000004,64.4 24.1,64.0 24.000000000000004,63.6 C 24.100000000000005,63.6 24.200000000000003,63.6 24.200000000000003,63.5 C 26.6,68.2 29.6,72.5 33.5,76.2 C 33.7,76.0 33.8,75.9 33.9,75.7 C 33.9,75.60000000000001 33.8,75.60000000000001 33.8,75.60000000000001 C 29.299999999999997,71.30000000000001 25.799999999999997,66.2 23.299999999999997,60.50000000000001 C 23.199999999999996,60.20000000000001 22.799999999999997,60.10000000000001 22.499999999999996,59.800000000000004 C 22.199999999999996,60.6 21.999999999999996,61.300000000000004 21.799999999999997,61.900000000000006 C 21.499999999999996,61.800000000000004 21.299999999999997,61.7 20.999999999999996,61.7 C 20.299999999999997,61.6 19.899999999999995,61.2 19.699999999999996,60.5 C 19.599999999999994,60.1 19.399999999999995,59.7 19.199999999999996,59.2 C 18.699999999999996,60.0 18.199999999999996,60.7 17.799999999999997,61.300000000000004 C 17.599999999999998,61.2 17.599999999999998,61.2 17.499999999999996,61.2 C 16.299999999999997,60.800000000000004 15.299999999999997,60.400000000000006 15.099999999999996,59.0 C 15.099999999999996,58.8 14.699999999999996,58.7 14.499999999999996,58.6 C 14.399999999999997,58.6 14.199999999999996,58.800000000000004 14.099999999999996,59.0 C 13.899999999999997,59.5 13.699999999999996,60.1 13.499999999999996,60.7 C 12.5,60.1 11.3,59.7 11.2,58.1 M 59.1,66.1 C 59.9,65.5 60.4,64.8 60.4,63.8 C 60.6,61.599999999999994 61.4,59.699999999999996 62.6,57.9 C 64.0,55.9 64.5,53.6 64.0,51.199999999999996 C 63.7,49.49999999999999 62.9,47.99999999999999 62.0,46.599999999999994 C 60.3,44.099999999999994 59.2,41.49999999999999 59.2,38.39999999999999 C 59.2,37.49999999999999 58.900000000000006,36.599999999999994 58.6,35.69999999999999 C 58.4,35.19999999999999 58.0,34.89999999999999 57.800000000000004,34.499999999999986 C 57.7,34.499999999999986 57.6,34.59999999999999 57.50000000000001,34.59999999999999 C 57.400000000000006,36.79999999999999 57.300000000000004,38.899999999999984 57.300000000000004,41.09999999999999 C 57.300000000000004,42.59999999999999 57.800000000000004,44.09999999999999 58.6,45.399999999999984 C 60.300000000000004,48.499999999999986 60.4,51.69999999999998 59.0,54.899999999999984 C 58.5,56.19999999999998 58.1,57.499999999999986 57.8,58.899999999999984 C 57.3,61.5 59.0,63.6 59.1,66.1 M 67.9,80.1 C 68.0,80.1 68.0,80.19999999999999 68.10000000000001,80.19999999999999 C 68.2,80.19999999999999 68.2,80.19999999999999 68.30000000000001,80.1 C 68.60000000000001,79.89999999999999 68.80000000000001,79.69999999999999 69.10000000000001,79.5 C 72.7,76.6 75.7,73.1 78.00000000000001,69.1 C 78.30000000000001,68.5 78.50000000000001,67.8 79.30000000000001,67.69999999999999 C 79.4,67.69999999999999 79.50000000000001,67.49999999999999 79.60000000000001,67.29999999999998 C 80.00000000000001,66.29999999999998 80.50000000000001,65.29999999999998 80.9,64.19999999999999 C 81.0,63.999999999999986 81.0,63.59999999999999 80.9,63.499999999999986 C 80.10000000000001,62.499999999999986 80.7,61.59999999999999 81.10000000000001,60.59999999999999 C 81.50000000000001,60.999999999999986 81.80000000000001,61.59999999999999 82.30000000000001,61.79999999999999 C 82.70000000000002,61.89999999999999 83.30000000000001,61.59999999999999 83.9,61.39999999999999 C 83.80000000000001,61.69999999999999 83.7,61.89999999999999 83.7,62.099999999999994 C 83.4,62.89999999999999 83.3,63.89999999999999 82.10000000000001,64.1 C 82.00000000000001,64.1 81.9,64.19999999999999 81.9,64.3 C 81.4,65.3 81.0,66.39999999999999 80.5,67.5 C 81.8,67.3 82.8,66.9 83.0,65.5 C 83.0,65.2 83.2,65.0 83.3,64.7 C 83.7,63.800000000000004 84.0,62.900000000000006 84.39999999999999,61.900000000000006 C 85.19999999999999,62.7 85.6,63.50000000000001 84.99999999999999,64.5 C 84.69999999999999,65.0 84.59999999999998,65.6 84.39999999999999,66.2 C 85.1,66.2 85.39999999999999,65.9 85.6,65.3 C 85.69999999999999,65.0 85.8,64.8 85.89999999999999,64.5 C 85.99999999999999,63.7 86.69999999999999,63.5 87.39999999999999,63.3 C 87.1,64.1 86.89999999999999,64.8 86.69999999999999,65.5 C 86.79999999999998,65.5 86.79999999999998,65.6 86.89999999999999,65.6 C 87.1,65.39999999999999 87.3,65.19999999999999 87.39999999999999,65.0 C 88.1,62.9 88.89999999999999,60.9 89.6,58.8 C 89.69999999999999,58.599999999999994 89.5,58.4 89.5,58.199999999999996 C 89.4,58.3 89.2,58.49999999999999 89.1,58.599999999999994 C 88.89999999999999,58.89999999999999 88.89999999999999,59.39999999999999 88.6,59.599999999999994 C 88.1,59.99999999999999 87.5,60.199999999999996 86.89999999999999,60.599999999999994 C 86.49999999999999,59.99999999999999 86.19999999999999,59.49999999999999 85.89999999999999,58.89999999999999 C 85.8,58.69999999999999 85.6,58.599999999999994 85.49999999999999,58.49999999999999 C 85.39999999999999,58.699999999999996 85.29999999999998,58.79999999999999 85.19999999999999,58.99999999999999 C 85.1,59.29999999999999 85.1,59.599999999999994 84.89999999999999,59.89999999999999 C 84.8,60.099999999999994 84.69999999999999,60.29999999999999 84.49999999999999,60.39999999999999 C 83.89999999999999,60.69999999999999 83.29999999999998,60.89999999999999 82.59999999999998,61.19999999999999 C 82.29999999999998,60.59999999999999 82.09999999999998,59.999999999999986 81.89999999999998,59.499999999999986 C 81.79999999999998,59.29999999999998 81.59999999999998,59.09999999999999 81.49999999999997,59.09999999999999 C 81.29999999999997,59.09999999999999 81.09999999999997,59.29999999999999 80.99999999999997,59.499999999999986 C 80.79999999999997,59.899999999999984 80.69999999999997,60.399999999999984 80.49999999999997,60.899999999999984 C 80.39999999999998,61.09999999999999 80.29999999999997,61.29999999999998 80.09999999999997,61.29999999999998 C 79.59999999999997,61.499999999999986 79.09999999999997,61.59999999999998 78.59999999999997,61.69999999999998 C 78.49999999999997,61.29999999999998 78.29999999999997,60.99999999999998 78.19999999999996,60.69999999999998 C 78.09999999999997,60.399999999999984 77.99999999999996,60.09999999999998 77.89999999999996,59.79999999999998 C 76.99999999999996,59.59999999999998 76.89999999999996,60.29999999999998 76.59999999999997,60.899999999999984 C 74.39999999999996,66.39999999999998 71.19999999999996,71.19999999999999 66.79999999999997,75.19999999999999 C 66.79999999999997,75.19999999999999 66.79999999999997,75.29999999999998 66.69999999999997,75.29999999999998 C 66.89999999999998,75.39999999999998 66.99999999999997,75.49999999999999 67.19999999999997,75.69999999999999 C 71.19999999999997,72.1 74.09999999999998,67.79999999999998 76.49999999999997,62.999999999999986 C 76.59999999999997,63.399999999999984 76.59999999999997,63.69999999999999 76.49999999999997,63.999999999999986 C 75.49999999999997,65.79999999999998 74.59999999999997,67.49999999999999 73.59999999999997,69.19999999999999 C 71.89999999999996,71.79999999999998 69.89999999999996,74.1 67.59999999999997,76.29999999999998 C 67.69999999999996,76.49999999999999 67.79999999999997,76.59999999999998 67.99999999999997,76.79999999999998 C 68.09999999999997,76.69999999999999 68.19999999999997,76.69999999999999 68.19999999999997,76.59999999999998 C 72.29999999999997,73.19999999999997 74.99999999999997,68.89999999999998 77.19999999999997,64.19999999999997 C 77.29999999999997,63.99999999999997 77.29999999999997,63.59999999999997 77.09999999999998,63.299999999999976 C 76.69999999999997,62.39999999999998 77.19999999999997,61.799999999999976 77.49999999999999,61.09999999999997 C 77.89999999999999,61.49999999999997 78.09999999999998,62.09999999999997 78.49999999999999,62.199999999999974 C 78.99999999999999,62.299999999999976 79.49999999999999,62.09999999999997 80.09999999999998,61.99999999999997 C 79.69999999999997,62.89999999999997 79.69999999999997,63.89999999999997 78.39999999999998,64.09999999999997 C 78.19999999999997,64.09999999999997 77.89999999999998,64.49999999999997 77.79999999999998,64.69999999999996 C 76.39999999999998,67.79999999999995 74.69999999999999,70.69999999999996 72.39999999999998,73.29999999999995 C 71.09999999999998,74.79999999999995 69.69999999999997,76.19999999999996 68.29999999999998,77.69999999999996 C 68.39999999999998,77.89999999999996 68.49999999999999,78.09999999999997 68.69999999999999,78.29999999999995 C 68.89999999999999,78.09999999999995 69.1,77.89999999999995 69.29999999999998,77.69999999999996 C 73.19999999999999,74.19999999999996 76.19999999999999,69.99999999999996 78.29999999999998,65.19999999999996 C 78.49999999999999,64.69999999999996 78.79999999999998,64.29999999999995 79.39999999999998,64.29999999999995 C 79.39999999999998,64.29999999999995 79.39999999999998,64.39999999999995 79.39999999999998,64.39999999999995 C 79.29999999999998,64.59999999999995 79.29999999999998,64.79999999999995 79.19999999999997,64.89999999999995 C 76.89999999999998,70.39999999999995 73.49999999999997,74.99999999999994 68.89999999999998,78.79999999999995 C 68.4,79.3 68.2,79.8 67.9,80.1 M 85.8,52.0 C 83.7,52.4 81.7,52.8 79.7,53.0 C 78.0,53.2 76.5,53.8 75.3,54.9 C 75.1,55.1 74.89999999999999,55.5 74.89999999999999,55.8 C 74.89999999999999,57.4 74.89999999999999,58.9 74.89999999999999,60.5 C 74.89999999999999,61.0 75.1,61.3 75.6,61.4 C 75.6,61.199999999999996 75.69999999999999,61.0 75.6,61.0 C 74.89999999999999,60.3 75.5,60.0 76.0,59.8 C 76.4,59.599999999999994 76.8,59.4 77.3,59.3 C 78.8,59.0 80.39999999999999,58.8 81.89999999999999,58.5 C 83.1,58.3 84.19999999999999,58.1 85.39999999999999,57.9 C 85.5,55.9 85.7,54.0 85.8,52.0 M 24.6,61.4 C 24.700000000000003,61.4 24.8,61.5 24.900000000000002,61.5 C 25.000000000000004,61.2 25.3,60.9 25.3,60.6 C 25.3,58.9 25.3,57.300000000000004 25.3,55.6 C 25.3,55.4 25.2,55.1 25.0,54.9 C 23.7,53.8 22.3,53.0 20.6,52.9 C 20.400000000000002,52.9 20.200000000000003,52.8 20.0,52.8 C 18.1,52.5 16.3,52.199999999999996 14.3,51.9 C 14.4,53.9 14.600000000000001,55.699999999999996 14.700000000000001,57.6 C 14.700000000000001,57.800000000000004 15.000000000000002,58.0 15.200000000000001,58.0 C 17.1,58.3 19.1,58.6 21.0,58.9 C 22.1,59.1 23.2,59.4 24.2,59.8 C 24.599999999999998,59.9 25.0,60.3 24.5,60.8 C 24.6,61.0 24.6,61.2 24.6,61.4 M 63.1,62.1 C 65.2,60.6 67.1,58.800000000000004 68.1,56.4 C 69.6,53.0 68.69999999999999,49.9 66.69999999999999,47.0 C 66.1,46.1 65.39999999999999,45.3 64.69999999999999,44.4 C 63.59999999999999,42.9 62.79999999999999,41.199999999999996 62.59999999999999,39.3 C 62.499999999999986,38.0 62.19999999999999,36.699999999999996 61.899999999999984,35.4 C 61.79999999999998,35.0 61.59999999999999,34.6 61.399999999999984,34.1 C 61.09999999999999,35.6 60.999999999999986,36.9 60.69999999999998,38.300000000000004 C 60.29999999999998,40.300000000000004 60.49999999999998,42.300000000000004 61.59999999999998,44.00000000000001 C 62.19999999999998,44.900000000000006 62.79999999999998,45.800000000000004 63.49999999999998,46.60000000000001 C 64.49999999999997,47.80000000000001 65.29999999999998,49.00000000000001 65.79999999999998,50.50000000000001 C 66.89999999999998,53.800000000000004 66.09999999999998,56.800000000000004 64.59999999999998,59.7 C 64.1,60.5 63.6,61.3 63.1,62.1 M 33.0,67.1 C 33.0,67.69999999999999 33.2,68.1 33.0,68.39999999999999 C 32.9,68.6 32.4,68.6 32.0,68.69999999999999 C 31.9,68.69999999999999 31.7,68.79999999999998 31.7,68.79999999999998 C 31.7,68.89999999999998 31.8,68.99999999999999 31.8,69.19999999999999 C 31.8,69.49999999999999 31.900000000000002,69.89999999999999 31.8,70.1 C 31.7,70.3 31.3,70.3 31.0,70.39999999999999 C 30.8,70.39999999999999 30.5,70.49999999999999 30.5,70.6 C 30.4,70.8 30.4,71.1 30.5,71.19999999999999 C 31.7,72.6 33.0,73.89999999999999 34.2,75.19999999999999 C 34.6,75.6 34.900000000000006,75.49999999999999 35.1,74.99999999999999 C 35.300000000000004,74.49999999999999 35.5,74.09999999999998 35.7,73.69999999999999 C 35.800000000000004,73.49999999999999 35.800000000000004,73.29999999999998 35.7,73.19999999999999 C 35.300000000000004,72.29999999999998 35.400000000000006,72.1 36.300000000000004,71.89999999999999 C 36.400000000000006,71.89999999999999 36.6,71.6 36.50000000000001,71.49999999999999 C 36.00000000000001,70.39999999999999 36.10000000000001,70.19999999999999 37.400000000000006,69.99999999999999 C 37.300000000000004,69.49999999999999 37.400000000000006,68.79999999999998 37.10000000000001,68.39999999999999 C 36.50000000000001,67.49999999999999 36.80000000000001,66.89999999999999 37.20000000000001,66.1 C 37.30000000000001,65.89999999999999 37.40000000000001,65.8 37.50000000000001,65.5 C 37.20000000000001,65.4 37.00000000000001,65.2 36.70000000000001,65.1 C 36.40000000000001,65.5 36.00000000000001,65.89999999999999 35.80000000000001,66.3 C 35.60000000000001,66.7 35.30000000000001,66.8 34.90000000000001,66.7 C 34.1,66.4 33.4,66.6 33.0,67.1 M 69.6,70.3 C 69.6,70.3 69.5,70.39999999999999 69.5,70.39999999999999 C 69.1,70.3 68.7,70.3 68.5,70.1 C 68.3,69.89999999999999 68.5,69.5 68.5,69.1 C 68.5,69.0 68.5,68.89999999999999 68.5,68.69999999999999 C 68.4,68.69999999999999 68.2,68.69999999999999 68.1,68.69999999999999 C 67.39999999999999,68.79999999999998 67.0,68.39999999999999 67.1,67.79999999999998 C 67.19999999999999,67.59999999999998 67.3,67.39999999999998 67.39999999999999,67.29999999999998 C 66.89999999999999,66.69999999999999 66.3,66.29999999999998 65.6,66.59999999999998 C 64.8,66.79999999999998 64.5,66.49999999999999 64.19999999999999,65.89999999999998 C 63.999999999999986,65.69999999999997 63.89999999999999,65.39999999999998 63.69999999999999,65.19999999999997 C 63.69999999999999,65.19999999999997 63.59999999999999,65.09999999999998 63.499999999999986,65.09999999999998 C 63.29999999999998,65.19999999999997 63.19999999999999,65.39999999999998 62.999999999999986,65.49999999999999 C 63.19999999999999,65.89999999999999 63.399999999999984,66.29999999999998 63.59999999999999,66.59999999999998 C 63.899999999999984,66.99999999999999 63.79999999999999,67.39999999999998 63.59999999999999,67.79999999999998 C 63.29999999999999,68.39999999999998 63.19999999999999,69.09999999999998 62.999999999999986,69.79999999999998 C 64.39999999999999,69.99999999999999 64.49999999999999,70.29999999999998 63.999999999999986,71.29999999999998 C 63.999999999999986,71.39999999999998 64.09999999999998,71.69999999999999 64.29999999999998,71.69999999999999 C 65.09999999999998,71.89999999999999 65.29999999999998,72.29999999999998 64.79999999999998,72.99999999999999 C 64.69999999999999,73.09999999999998 64.69999999999999,73.29999999999998 64.69999999999999,73.39999999999999 C 64.99999999999999,74.1 65.29999999999998,74.69999999999999 65.6,75.6 C 67.19999999999999,74.0 68.6,72.5 70.1,71.0 C 69.8,70.6 69.7,70.4 69.6,70.3 M 40.8,88.4 C 40.8,89.9 40.9,90.0 42.199999999999996,90.5 C 46.49999999999999,92.1 50.8,93.7 55.099999999999994,95.3 C 57.39999999999999,96.1 59.699999999999996,96.8 61.99999999999999,97.6 C 62.29999999999999,97.19999999999999 62.49999999999999,96.89999999999999 62.699999999999996,96.6 C 55.4,93.8 48.1,91.1 40.8,88.4 M 63.8,94.8 C 55.9,91.89999999999999 48.099999999999994,89.1 40.3,86.3 C 40.4,87.2 40.5,87.2 41.3,87.6 C 45.8,89.39999999999999 50.3,91.19999999999999 54.8,92.89999999999999 C 57.599999999999994,93.99999999999999 60.4,94.89999999999999 63.3,95.89999999999999 C 63.5,95.4 63.7,95.1 63.8,94.8 M 56.1,74.1 C 58.2,74.3 60.2,74.5 62.2,74.69999999999999 C 62.2,74.6 62.2,74.6 62.300000000000004,74.49999999999999 C 62.1,74.39999999999999 61.900000000000006,74.29999999999998 61.800000000000004,74.29999999999998 C 61.50000000000001,74.19999999999999 61.1,74.09999999999998 61.1,73.89999999999998 C 61.0,73.69999999999997 61.2,73.29999999999998 61.300000000000004,72.99999999999997 C 61.300000000000004,72.89999999999998 61.400000000000006,72.79999999999997 61.50000000000001,72.69999999999997 C 61.400000000000006,72.59999999999998 61.20000000000001,72.59999999999998 61.10000000000001,72.49999999999997 C 60.80000000000001,72.29999999999997 60.50000000000001,72.19999999999997 60.400000000000006,71.99999999999997 C 60.300000000000004,71.79999999999997 60.50000000000001,71.49999999999997 60.60000000000001,71.19999999999997 C 60.60000000000001,71.09999999999998 60.70000000000001,70.99999999999997 61.00000000000001,70.79999999999997 C 60.400000000000006,70.39999999999996 59.900000000000006,69.89999999999996 59.400000000000006,69.89999999999996 C 58.50000000000001,69.89999999999996 58.2,69.39999999999996 58.00000000000001,68.69999999999996 C 57.900000000000006,68.49999999999996 57.800000000000004,68.29999999999995 57.70000000000001,68.19999999999996 C 56.90000000000001,68.19999999999996 56.80000000000001,68.59999999999997 56.90000000000001,69.19999999999996 C 57.000000000000014,69.39999999999996 57.000000000000014,69.59999999999997 57.000000000000014,69.79999999999995 C 57.100000000000016,70.29999999999995 57.000000000000014,70.59999999999995 56.600000000000016,70.99999999999996 C 56.000000000000014,71.49999999999996 55.70000000000002,72.09999999999995 55.600000000000016,72.79999999999995 C 56.5,73.0 56.6,73.2 56.1,74.1 M 43.0,67.7 C 42.8,68.2 42.6,68.60000000000001 42.4,69.10000000000001 C 42.3,69.50000000000001 42.1,69.7 41.6,69.7 C 40.800000000000004,69.7 40.1,70.10000000000001 39.800000000000004,70.9 C 41.1,72.2 39.800000000000004,72.30000000000001 39.1,72.60000000000001 C 39.300000000000004,73.10000000000001 39.5,73.4 39.5,73.80000000000001 C 39.5,74.30000000000001 39.0,74.4 38.6,74.4 C 38.4,74.4 38.2,74.5 38.1,74.5 C 38.2,74.6 38.300000000000004,74.7 38.4,74.8 C 40.5,74.6 42.5,74.39999999999999 44.6,74.1 C 43.7,73.3 43.800000000000004,72.89999999999999 45.0,72.3 C 44.7,71.8 44.6,71.2 44.2,70.89999999999999 C 43.400000000000006,70.3 43.5,69.69999999999999 43.6,68.89999999999999 C 43.6,68.8 43.6,68.6 43.7,68.49999999999999 C 43.7,68.0 43.6,67.7 43.0,67.7 M 41.2,91.3 C 41.6,91.89999999999999 41.2,92.8 42.2,93.0 C 48.400000000000006,94.9 54.6,96.8 60.7,98.7 C 61.300000000000004,98.9 61.5,98.7 61.6,98.2 C 54.8,95.9 48.1,93.6 41.2,91.3 M 60.5,89.8 C 60.6,89.8 60.6,89.89999999999999 60.7,89.89999999999999 C 62.400000000000006,88.6 64.0,87.3 65.7,85.99999999999999 C 65.8,85.89999999999999 65.9,85.79999999999998 65.9,85.59999999999998 C 66.0,84.79999999999998 65.4,83.99999999999999 64.60000000000001,83.79999999999998 C 64.00000000000001,83.59999999999998 63.30000000000001,83.59999999999998 62.70000000000001,83.39999999999998 C 62.10000000000001,83.29999999999998 61.80000000000001,83.39999999999998 61.70000000000001,83.99999999999997 C 61.3,85.9 60.9,87.9 60.5,89.8 M 59.3,92.3 C 59.4,91.7 59.3,91.5 58.8,91.3 C 54.4,89.7 49.9,88.1 45.5,86.39999999999999 C 43.5,85.6 41.5,84.69999999999999 39.5,83.8 C 39.7,85.1 39.7,85.2 40.8,85.6 C 45.699999999999996,87.5 50.5,89.3 55.4,91.19999999999999 C 56.6,91.5 57.9,91.8 59.3,92.3 M 48.3,73.7 C 48.3,73.8 48.199999999999996,73.8 48.199999999999996,73.9 C 49.49999999999999,73.9 50.8,73.9 51.9,73.9 C 52.3,73.4 52.6,73.10000000000001 52.9,72.7 C 52.8,71.9 52.4,71.4 51.6,71.10000000000001 C 51.1,71.0 51.0,70.8 51.0,70.3 C 50.9,68.7 51.1,69.0 49.6,68.89999999999999 C 49.6,68.89999999999999 49.5,68.89999999999999 49.4,68.99999999999999 C 49.3,69.59999999999998 49.3,70.19999999999999 49.199999999999996,70.79999999999998 C 48.4,70.99999999999999 47.699999999999996,71.29999999999998 47.4,72.19999999999999 C 47.3,72.39999999999999 47.4,72.69999999999999 47.5,72.79999999999998 C 47.8,73.1 48.1,73.4 48.3,73.7 M 34.6,85.3 C 36.4,86.8 38.2,88.3 40.0,89.8 C 40.1,89.8 40.2,89.7 40.3,89.7 C 39.699999999999996,87.7 39.0,85.7 38.3,83.60000000000001 C 37.0,84.1 35.4,83.5 34.6,85.3 M 41.0,83.1 C 41.0,83.19999999999999 40.9,83.3 40.9,83.39999999999999 C 46.9,86.19999999999999 53.0,88.69999999999999 59.4,90.39999999999999 C 59.8,89.69999999999999 59.3,89.69999999999999 58.9,89.49999999999999 C 53.3,87.79999999999998 47.9,85.69999999999999 42.599999999999994,83.29999999999998 C 42.2,83.2 41.6,83.2 41.0,83.1 M 45.7,82.8 C 47.2,83.39999999999999 48.5,84.0 49.900000000000006,84.6 C 50.00000000000001,84.6 50.2,84.6 50.300000000000004,84.6 C 51.50000000000001,83.89999999999999 52.800000000000004,83.3 54.1,82.5 C 52.7,82.1 47.1,82.3 45.7,82.8 M 39.9,98.3 C 40.0,98.7 40.199999999999996,99.0 40.3,99.3 C 42.9,98.3 45.5,97.39999999999999 48.099999999999994,96.5 C 48.099999999999994,96.4 48.099999999999994,96.4 48.099999999999994,96.3 C 47.3,96.2 46.49999999999999,95.7 45.8,95.89999999999999 C 43.8,96.5 41.9,97.4 39.9,98.3 M 43.7,82.9 C 43.7,83.0 43.7,83.0 43.6,83.10000000000001 C 48.800000000000004,85.60000000000001 54.1,87.7 59.7,88.9 C 59.6,88.7 59.400000000000006,88.60000000000001 59.2,88.5 C 54.2,86.9 49.300000000000004,85.2 44.5,83.1 C 44.3,82.9 44.0,82.9 43.7,82.9 M 56.3,68.5 C 54.699999999999996,68.7 53.099999999999994,68.9 51.5,69.1 C 51.5,69.69999999999999 51.6,70.1 51.6,70.6 C 53.300000000000004,70.39999999999999 54.9,70.3 56.6,70.1 C 56.4,69.6 56.3,69.1 56.3,68.5 M 65.0,66.1 C 66.4,65.0 67.6,63.99999999999999 69.0,62.99999999999999 C 68.6,62.49999999999999 68.3,62.199999999999996 67.9,61.79999999999999 C 66.60000000000001,62.89999999999999 65.4,63.89999999999999 64.10000000000001,64.89999999999999 C 64.4,65.3 64.6,65.7 65.0,66.1 M 63.3,67.2 C 63.0,66.7 62.8,66.2 62.599999999999994,65.7 C 61.099999999999994,66.4 59.599999999999994,67.10000000000001 58.199999999999996,67.8 C 58.4,68.3 58.599999999999994,68.7 58.8,69.2 C 60.2,68.5 61.7,67.9 63.3,67.2 M 37.2,67.2 C 38.800000000000004,67.9 40.300000000000004,68.5 41.800000000000004,69.2 C 42.00000000000001,68.7 42.2,68.2 42.400000000000006,67.8 C 40.900000000000006,67.1 39.400000000000006,66.39999999999999 38.00000000000001,65.7 C 37.7,66.3 37.5,66.7 37.2,67.2 M 36.3,64.9 C 35.0,63.800000000000004 33.8,62.800000000000004 32.5,61.800000000000004 C 32.1,62.2 31.8,62.6 31.4,63.1 C 32.8,64.1 34.0,65.1 35.4,66.2 C 35.7,65.7 35.9,65.4 36.3,64.9 M 48.8,70.4 C 48.8,69.9 48.9,69.4 48.9,68.9 C 47.199999999999996,68.7 45.699999999999996,68.5 44.0,68.30000000000001 C 43.9,68.9 43.8,69.4 43.8,69.9 C 45.6,70.1 47.1,70.3 48.8,70.4 M 60.8,83.1 C 59.099999999999994,84.3 57.3,85.39999999999999 55.599999999999994,86.6 C 56.39999999999999,87.19999999999999 57.099999999999994,87.3 57.89999999999999,86.6 C 58.39999999999999,86.1 58.99999999999999,85.69999999999999 59.599999999999994,85.39999999999999 C 60.5,85.0 60.8,84.2 60.8,83.1 M 44.4,95.5 C 44.4,95.4 44.4,95.4 44.4,95.3 C 43.9,95.2 43.4,94.89999999999999 43.0,95.0 C 41.6,95.5 40.3,96.1 38.8,96.6 C 39.199999999999996,96.89999999999999 39.199999999999996,97.6 39.9,97.3 C 41.4,96.7 42.9,96.1 44.4,95.5 M 58.9,83.0 C 58.9,82.9 58.8,82.8 58.8,82.7 C 58.4,82.8 57.9,82.9 57.5,83.10000000000001 C 57.0,83.30000000000001 56.6,83.60000000000001 56.2,83.9 C 55.2,84.5 54.2,85.10000000000001 53.2,85.7 C 53.2,85.8 53.2,85.9 53.2,85.9 C 53.7,85.9 54.300000000000004,86.2 54.6,86.0 C 56.1,85.1 57.5,84.0 58.9,83.0 M 56.6,82.8 C 56.6,82.7 56.5,82.6 56.5,82.5 C 54.5,82.9 52.8,84.2 51.0,85.0 C 51.5,85.2 52.1,85.5 52.5,85.3 C 53.8,84.6 55.2,83.6 56.6,82.8 M 37.8,95.5 C 37.8,95.6 37.8,95.6 37.8,95.7 C 38.099999999999994,95.8 38.4,96.0 38.599999999999994,95.9 C 39.8,95.4 41.099999999999994,94.9 42.39999999999999,94.30000000000001 C 41.89999999999999,93.9 41.49999999999999,93.60000000000001 40.89999999999999,93.9 C 39.9,94.5 38.8,95.0 37.8,95.5 M 47.1,71.9 C 46.4,71.80000000000001 45.800000000000004,71.80000000000001 45.1,71.7 C 45.300000000000004,72.2 45.5,72.5 45.7,73.0 C 45.400000000000006,73.0 45.2,73.0 44.900000000000006,73.0 C 44.800000000000004,73.0 44.60000000000001,73.1 44.50000000000001,73.2 C 44.60000000000001,73.3 44.70000000000001,73.5 44.900000000000006,73.5 C 45.50000000000001,73.6 46.10000000000001,73.7 46.800000000000004,73.7 C 47.1,73.7 47.400000000000006,73.7 47.7,73.7 C 47.7,73.60000000000001 47.7,73.5 47.7,73.5 C 47.5,73.4 47.300000000000004,73.3 47.2,73.3 C 47.0,73.2 46.800000000000004,73.2 46.6,73.1 C 46.7,72.7 46.9,72.4 47.1,71.9 M 62.5,70.7 C 62.6,70.2 62.6,69.9 62.7,69.3 C 62.0,69.6 61.5,69.89999999999999 61.0,70.1 C 60.9,70.19999999999999 60.9,70.3 60.8,70.39999999999999 C 61.099999999999994,70.6 61.4,70.89999999999999 61.699999999999996,71.1 C 61.599999999999994,71.1 61.4,71.19999999999999 61.199999999999996,71.39999999999999 C 61.099999999999994,71.49999999999999 60.99999999999999,71.69999999999999 60.9,71.8 C 61.1,71.8 61.3,71.89999999999999 61.4,71.8 C 62.1,71.5 62.8,71.2 63.6,70.8 C 63.800000000000004,70.7 64.0,70.7 64.2,70.7 C 64.10000000000001,70.60000000000001 64.0,70.4 63.900000000000006,70.3 C 63.3,70.5 62.9,70.6 62.5,70.7 M 53.8,73.3 C 53.599999999999994,73.39999999999999 53.3,73.39999999999999 53.099999999999994,73.39999999999999 C 52.89999999999999,73.49999999999999 52.8,73.6 52.599999999999994,73.69999999999999 C 52.599999999999994,73.79999999999998 52.699999999999996,73.79999999999998 52.699999999999996,73.89999999999999 C 53.8,73.89999999999999 54.9,73.8 55.9,73.6 C 55.9,73.5 55.9,73.39999999999999 55.9,73.3 C 55.5,73.2 55.1,73.2 54.699999999999996,73.1 C 54.9,72.69999999999999 54.99999999999999,72.3 55.199999999999996,71.89999999999999 C 54.49999999999999,71.99999999999999 53.9,71.99999999999999 53.199999999999996,72.1 C 53.5,72.5 53.6,72.9 53.8,73.3 M 36.7,70.4 C 36.800000000000004,70.60000000000001 36.800000000000004,70.80000000000001 36.800000000000004,70.9 C 37.6,71.30000000000001 38.50000000000001,71.7 39.400000000000006,72.10000000000001 C 39.50000000000001,72.10000000000001 39.7,72.00000000000001 39.7,72.00000000000001 C 39.7,71.90000000000002 39.7,71.70000000000002 39.6,71.60000000000001 C 39.4,71.4 39.1,71.30000000000001 38.800000000000004,71.2 C 39.1,70.9 39.400000000000006,70.60000000000001 39.7,70.2 C 39.1,69.9 38.5,69.7 37.900000000000006,69.4 C 38.00000000000001,69.9 38.00000000000001,70.30000000000001 38.10000000000001,70.80000000000001 C 37.6,70.6 37.3,70.5 36.7,70.4 M 32.0,67.2 C 32.4,67.0 32.7,66.8 33.1,66.5 C 32.5,66.1 32.1,65.7 31.5,65.3 C 31.4,65.8 31.4,66.2 31.4,66.7 C 31.2,66.60000000000001 31.0,66.4 30.799999999999997,66.3 C 30.599999999999998,66.2 30.4,66.2 30.199999999999996,66.2 C 30.299999999999997,66.4 30.299999999999997,66.60000000000001 30.399999999999995,66.7 C 30.999999999999996,67.2 31.599999999999994,67.7 32.199999999999996,68.10000000000001 C 32.3,68.2 32.599999999999994,68.2 32.699999999999996,68.30000000000001 C 32.699999999999996,68.20000000000002 32.8,68.20000000000002 32.8,68.10000000000001 C 32.5,67.8 32.3,67.5 32.0,67.2 M 68.3,67.2 C 68.0,67.5 67.7,67.8 67.39999999999999,68.2 C 67.69999999999999,68.2 67.8,68.3 67.89999999999999,68.3 C 68.69999999999999,67.7 69.39999999999999,67.2 70.1,66.6 C 70.19999999999999,66.5 70.1,66.3 70.1,66.19999999999999 C 70.0,66.19999999999999 69.8,66.19999999999999 69.69999999999999,66.19999999999999 C 69.39999999999999,66.29999999999998 69.19999999999999,66.49999999999999 68.99999999999999,66.6 C 68.89999999999999,66.1 68.79999999999998,65.69999999999999 68.79999999999998,65.3 C 68.19999999999999,65.8 67.79999999999998,66.1 67.19999999999999,66.5 C 67.6,66.8 67.9,66.9 68.3,67.2 M 18.7,59.2 C 17.7,59.1 16.8,58.900000000000006 15.899999999999999,58.800000000000004 C 15.899999999999999,60.2 16.9,60.300000000000004 17.799999999999997,60.7 C 18.1,60.2 18.4,59.7 18.7,59.2 M 85.2,48.7 C 84.60000000000001,49.5 84.10000000000001,50.300000000000004 83.5,51.0 C 83.9,51.3 84.2,51.5 84.5,51.7 C 85.7,50.9 85.4,49.9 85.2,48.7 M 15.1,48.8 C 14.6,50.3 14.7,50.8 15.799999999999999,51.699999999999996 C 16.099999999999998,51.49999999999999 16.4,51.3 16.799999999999997,50.99999999999999 C 16.2,50.2 15.7,49.5 15.1,48.8 M 82.4,60.6 C 84.0,60.2 84.2,59.9 84.2,58.7 C 83.5,58.800000000000004 82.8,58.900000000000006 82.10000000000001,59.0 C 82.10000000000001,59.1 82.00000000000001,59.2 82.10000000000001,59.2 C 82.2,59.7 82.3,60.1 82.4,60.6 M 35.7,75.1 C 37.2,75.19999999999999 37.7,74.89999999999999 37.900000000000006,74.0 C 37.400000000000006,73.8 37.00000000000001,73.6 36.50000000000001,73.4 C 36.2,74.0 35.9,74.6 35.7,75.1 M 64.8,75.1 C 64.5,74.5 64.3,73.89999999999999 64.0,73.3 C 63.4,73.6 63.0,73.8 62.5,74.0 C 62.9,75.4 64.0,74.9 64.8,75.1 M 25.3,30.5 C 24.7,30.6 24.0,31.3 24.1,31.8 C 24.1,32.1 24.400000000000002,32.4 24.5,32.7 C 24.8,32.5 25.1,32.400000000000006 25.3,32.2 C 25.9,31.7 25.5,31.2 25.3,30.5 M 75.0,30.5 C 74.5,31.2 74.5,31.8 75.1,32.4 C 75.5,32.8 75.89999999999999,32.8 76.1,32.3 C 76.4,31.6 75.9,30.7 75.0,30.5 M 36.9,94.3 C 37.1,94.6 37.199999999999996,94.89999999999999 37.4,95.1 C 38.4,94.6 39.3,94.1 40.3,93.6 C 38.9,93.1 38.1,94.1 36.9,94.3 M 78.5,61.2 C 79.5,61.0 79.8,60.7 79.8,59.400000000000006 C 79.2,59.50000000000001 78.7,59.60000000000001 78.1,59.7 C 78.3,60.3 78.4,60.7 78.5,61.2 M 17.2,62.6 C 17.5,63.7 17.8,63.9 18.9,63.9 C 19.0,63.3 19.799999999999997,62.8 18.9,62.1 C 18.6,62.8 18.1,63.2 17.2,62.6 M 38.5,93.1 C 37.6,92.8 36.9,92.3 36.0,92.89999999999999 C 36.2,93.3 36.4,93.6 36.7,93.99999999999999 C 37.3,93.7 37.9,93.4 38.5,93.1 M 20.3,59.5 C 20.6,60.3 20.400000000000002,61.3 21.7,61.2 C 21.8,60.800000000000004 21.9,60.300000000000004 22.099999999999998,59.800000000000004 C 21.5,59.7 21.0,59.6 20.3,59.5 M 21.5,62.8 C 21.7,63.9 22.5,63.699999999999996 23.0,64.0 C 23.7,62.7 23.7,62.7 23.0,62.1 C 23.0,63.0 22.3,63.0 21.5,62.8 M 81.1,61.7 C 80.39999999999999,62.300000000000004 81.0,62.800000000000004 81.3,63.300000000000004 C 81.5,63.6 81.7,63.7 82.1,63.6 C 82.69999999999999,63.4 82.69999999999999,63.0 82.89999999999999,62.4 C 81.8,63.0 81.5,62.2 81.1,61.7 M 64.5,72.5 C 64.5,72.4 64.5,72.4 64.5,72.3 C 64.3,72.3 64.1,72.2 63.9,72.3 C 63.199999999999996,72.6 62.5,72.89999999999999 61.8,73.2 C 61.699999999999996,73.3 61.599999999999994,73.5 61.5,73.7 C 61.7,73.7 61.9,73.8 62.0,73.7 C 62.7,73.4 63.4,73.10000000000001 64.1,72.8 C 64.2,72.7 64.4,72.6 64.5,72.5 M 29.0,67.5 C 29.0,67.8 28.9,68.0 28.9,68.0 C 29.599999999999998,68.6 30.4,69.2 31.099999999999998,69.8 C 31.2,69.8 31.4,69.8 31.4,69.8 C 31.5,69.7 31.5,69.5 31.4,69.5 C 30.7,68.8 29.9,68.2 29.0,67.5 M 36.3,72.2 C 36.199999999999996,72.3 36.099999999999994,72.4 36.099999999999994,72.4 C 36.199999999999996,72.5 36.199999999999996,72.7 36.3,72.80000000000001 C 36.8,73.10000000000001 37.4,73.30000000000001 37.9,73.50000000000001 C 38.199999999999996,73.60000000000001 38.6,73.70000000000002 38.9,73.70000000000002 C 39.0,73.10000000000002 38.4,73.20000000000002 38.1,73.00000000000001 C 37.6,72.7 37.0,72.5 36.3,72.2 M 71.4,68.1 C 71.30000000000001,67.89999999999999 71.30000000000001,67.8 71.2,67.8 C 71.10000000000001,67.8 70.9,67.8 70.9,67.8 C 70.2,68.3 69.5,68.89999999999999 68.80000000000001,69.5 C 68.70000000000002,69.6 68.70000000000002,69.7 68.70000000000002,69.8 C 68.70000000000002,69.89999999999999 68.90000000000002,69.89999999999999 68.90000000000002,69.89999999999999 C 69.8,69.3 70.6,68.7 71.4,68.1 M 19.5,50.4 C 19.2,51.9 19.8,52.6 20.9,52.199999999999996 C 20.5,51.6 20.1,51.0 19.5,50.4 M 58.3,87.5 C 58.3,87.6 58.3,87.7 58.3,87.8 C 58.699999999999996,87.8 59.199999999999996,87.8 59.5,87.7 C 60.1,87.5 60.1,86.9 60.1,86.3 C 59.5,86.7 58.9,87.1 58.3,87.5 M 77.4,62.0 C 76.9,62.5 76.9,63.0 77.2,63.4 C 77.3,63.6 77.7,63.6 77.9,63.6 C 78.2,63.5 78.5,63.2 78.80000000000001,63.0 C 78.80000000000001,62.9 78.70000000000002,62.9 78.70000000000002,62.8 C 78.1,62.9 77.6,62.9 77.4,62.0 M 83.5,49.6 C 83.1,49.300000000000004 82.7,49.0 82.3,48.7 C 82.2,50.0 82.3,50.400000000000006 82.8,50.7 C 83.1,50.3 83.3,49.9 83.5,49.6 M 79.2,52.3 C 79.8,52.5 80.10000000000001,52.4 80.5,52.0 C 80.9,51.5 80.8,51.0 80.7,50.4 C 80.2,51.1 79.7,51.6 79.2,52.3 M 17.4,50.7 C 17.9,50.300000000000004 18.099999999999998,49.5 17.799999999999997,48.7 C 17.4,49.0 17.099999999999998,49.300000000000004 16.699999999999996,49.6 C 17.0,50.0 17.2,50.3 17.4,50.7 M 70.3,70.4 C 70.7,69.9 71.0,69.4 71.3,69.0 C 71.2,68.9 71.2,68.9 71.1,68.8 C 70.69999999999999,69.1 70.3,69.5 69.8,69.8 C 70.1,70.1 70.2,70.2 70.3,70.4 M 69.9,67.3 C 69.5,67.6 69.10000000000001,68.0 68.80000000000001,68.3 C 68.80000000000001,68.3 68.80000000000001,68.5 68.9,68.5 C 69.0,68.5 69.10000000000001,68.6 69.2,68.5 C 69.5,68.3 69.8,68.0 70.10000000000001,67.8 C 70.2,67.8 70.2,67.6 70.2,67.6 C 70.1,67.5 70.0,67.4 69.9,67.3 M 62.0,72.5 C 63.5,72.1 63.5,72.1 63.2,71.6 C 62.8,71.9 62.1,71.8 62.0,72.5 M 38.7,72.4 C 38.7,72.30000000000001 38.7,72.30000000000001 38.7,72.2 C 38.300000000000004,72.0 38.0,71.9 37.6,71.7 C 37.5,71.7 37.300000000000004,71.7 37.2,71.8 C 37.300000000000004,71.89999999999999 37.300000000000004,72.1 37.400000000000006,72.1 C 37.7,72.3 38.00000000000001,72.39999999999999 38.2,72.5 C 38.3,72.5 38.5,72.4 38.7,72.4 M 31.7,68.4 C 31.4,68.10000000000001 31.2,68.0 31.099999999999998,67.9 C 30.9,67.80000000000001 30.799999999999997,67.60000000000001 30.599999999999998,67.5 C 30.499999999999996,67.4 30.4,67.5 30.2,67.5 C 30.2,67.6 30.2,67.8 30.3,67.9 C 30.6,68.10000000000001 30.8,68.4 31.1,68.60000000000001 C 31.2,68.5 31.4,68.4 31.7,68.4 M 30.0,70.4 C 30.4,69.80000000000001 30.1,69.5 29.0,69.0 C 29.4,69.5 29.7,69.9 30.0,70.4" fill="#ffce00" stroke="none" stroke-width="3.0" /><path d="M 59.8,7.2 C 58.3,8.5 56.9,9.7 55.5,10.8 C 54.7,11.4 54.4,12.0 54.7,13.0 C 55.2,14.7 55.5,16.4 55.900000000000006,18.3 C 54.800000000000004,17.6 53.800000000000004,17.0 52.900000000000006,16.5 C 52.2,16.0 51.400000000000006,15.6 50.7,15.1 C 50.300000000000004,14.799999999999999 50.0,14.9 49.7,15.1 C 48.0,16.1 46.2,17.1 44.300000000000004,18.2 C 44.6,16.8 44.900000000000006,15.6 45.2,14.399999999999999 C 45.400000000000006,13.599999999999998 45.5,12.799999999999999 45.800000000000004,12.099999999999998 C 45.900000000000006,11.599999999999998 45.800000000000004,11.399999999999999 45.50000000000001,11.099999999999998 C 44.00000000000001,9.799999999999997 42.60000000000001,8.499999999999998 41.00000000000001,7.1999999999999975 C 42.70000000000001,6.899999999999998 44.300000000000004,6.599999999999998 45.800000000000004,6.499999999999997 C 46.800000000000004,6.399999999999998 47.50000000000001,6.099999999999997 47.900000000000006,4.999999999999997 C 48.50000000000001,3.4999999999999973 49.300000000000004,2.0999999999999974 50.00000000000001,0.6999999999999975 C 49.9,0.5 50.0,0.3 50.2,0.0 C 51.0,1.8 51.800000000000004,3.5 52.400000000000006,5.2 C 52.800000000000004,6.300000000000001 53.400000000000006,6.6 54.50000000000001,6.6 C 56.2,6.7 57.9,7.0 59.8,7.2 M 42.1,7.6 C 43.300000000000004,8.7 44.4,9.7 45.5,10.6 C 46.1,11.1 46.3,11.5 46.1,12.299999999999999 C 45.6,13.799999999999999 45.4,15.299999999999999 45.0,17.0 C 46.5,16.1 47.9,15.4 49.3,14.6 C 49.9,14.2 50.4,14.2 51.0,14.6 C 52.3,15.5 53.6,16.2 55.1,17.1 C 54.7,15.3 54.4,13.700000000000001 54.0,12.200000000000001 C 53.9,11.700000000000001 53.9,11.3 54.4,11.000000000000002 C 55.699999999999996,10.000000000000002 57.0,8.8 58.4,7.600000000000001 C 57.1,7.500000000000002 56.0,7.300000000000002 54.8,7.200000000000001 C 52.599999999999994,7.000000000000001 52.599999999999994,7.000000000000001 51.8,5.100000000000001 C 51.3,3.9000000000000012 50.8,2.7000000000000015 50.199999999999996,1.4000000000000012 C 50.0,1.8 49.8,2.0 49.7,2.2 C 49.0,3.6 48.400000000000006,4.9 47.7,6.3 C 47.6,6.5 47.300000000000004,6.8 47.0,6.8 C 46.7,7.0 46.2,7.0 45.8,7.1 C 44.6,7.2 43.5,7.4 42.1,7.6" fill="#ffce00" stroke="none" stroke-width="3.0" /><path d="M 79.8,30.6 C 80.1,30.1 80.39999999999999,29.5 80.7,28.900000000000002 C 81.10000000000001,29.700000000000003 81.4,30.3 81.7,31.000000000000004 C 81.8,31.200000000000003 81.8,31.400000000000002 81.7,31.600000000000005 C 81.4,32.300000000000004 81.10000000000001,32.900000000000006 80.8,33.7 C 79.7,33.1 78.7,32.5 77.6,31.900000000000002 C 77.5,31.8 77.39999999999999,31.6 77.3,31.500000000000004 C 73.5,23.500000000000004 67.1,18.300000000000004 59.0,15.100000000000005 C 58.0,14.700000000000005 57.0,14.400000000000006 56.1,14.100000000000005 C 55.800000000000004,14.000000000000005 55.6,13.800000000000004 55.4,13.600000000000005 C 55.5,13.500000000000005 55.5,13.400000000000006 55.6,13.300000000000004 C 56.800000000000004,13.700000000000005 58.1,14.100000000000005 59.300000000000004,14.500000000000004 C 66.4,17.100000000000005 72.0,21.700000000000003 76.2,28.000000000000004 C 77.1,29.2 78.1,30.2 79.8,30.6 M 80.5,30.2 C 80.2,30.9 79.9,31.5 79.6,32.1 C 80.0,32.300000000000004 80.3,32.5 80.6,32.6 C 81.2,31.8 81.4,31.0 80.5,30.2 M 77.6,30.0 C 77.8,31.1 78.1,31.4 79.19999999999999,31.6 C 79.29999999999998,31.400000000000002 79.39999999999999,31.200000000000003 79.49999999999999,30.900000000000002 C 78.9,30.6 78.3,30.4 77.6,30.0" fill="#ffce00" stroke="none" stroke-width="3.0" /><path d="M 20.5,30.7 C 21.2,30.4 21.9,30.099999999999998 22.6,29.7 C 22.900000000000002,29.5 23.1,29.2 23.200000000000003,29.0 C 28.1,21.2 35.0,15.9 44.0,13.5 C 44.1,13.5 44.3,13.4 44.4,13.4 C 44.4,13.4 44.5,13.4 44.5,13.4 C 44.6,13.9 44.3,14.0 43.9,14.1 C 40.6,15.1 37.5,16.4 34.599999999999994,18.3 C 29.499999999999993,21.6 25.399999999999995,25.8 22.799999999999994,31.4 C 22.699999999999992,31.599999999999998 22.499999999999993,31.9 22.299999999999994,32.0 C 21.299999999999994,32.6 20.399999999999995,33.1 19.299999999999994,33.7 C 18.999999999999993,32.900000000000006 18.699999999999992,32.2 18.399999999999995,31.500000000000004 C 18.399999999999995,31.400000000000002 18.399999999999995,31.200000000000003 18.399999999999995,31.100000000000005 C 18.699999999999996,30.400000000000006 19.099999999999994,29.700000000000006 19.499999999999996,28.900000000000006 C 19.9,29.5 20.2,30.1 20.5,30.7 M 19.6,32.6 C 19.900000000000002,32.4 20.200000000000003,32.300000000000004 20.6,32.1 C 20.3,31.5 20.0,30.900000000000002 19.700000000000003,30.200000000000003 C 18.9,31.3 18.9,31.5 19.6,32.6 M 22.7,30.0 C 22.0,30.3 21.4,30.6 20.7,30.9 C 20.9,31.2 21.0,31.4 21.099999999999998,31.7 C 21.9,31.4 22.6,31.1 22.7,30.0" fill="#ffce00" stroke="none" stroke-width="3.0" /><path d="M 45.0,11.6 C 45.1,12.2 44.7,12.299999999999999 44.3,12.4 C 38.199999999999996,14.1 32.8,17.0 28.199999999999996,21.3 C 26.499999999999996,22.900000000000002 25.099999999999994,24.6 23.499999999999996,26.3 C 23.399999999999995,26.400000000000002 23.199999999999996,26.6 23.199999999999996,26.8 C 23.399999999999995,28.7 22.099999999999994,29.400000000000002 20.499999999999996,29.900000000000002 C 19.799999999999997,28.700000000000003 19.999999999999996,27.1 20.999999999999996,26.3 C 21.199999999999996,26.1 21.699999999999996,26.2 21.999999999999996,26.1 C 22.399999999999995,26.0 22.799999999999997,25.8 22.999999999999996,25.5 C 28.499999999999996,18.5 35.9,14.3 44.199999999999996,11.6 C 44.3,11.6 44.49999999999999,11.5 44.599999999999994,11.5 C 44.9,11.5 44.9,11.6 45.0,11.6 M 21.0,29.0 C 22.8,28.5 23.1,28.1 22.8,26.6 C 21.8,26.5 20.7,27.9 21.0,29.0" fill="#ffce00" stroke="none" stroke-width="3.0" /><path d="M 79.6,29.9 C 78.6,29.599999999999998 77.6,29.299999999999997 77.19999999999999,28.2 C 77.1,27.9 76.99999999999999,27.5 76.99999999999999,27.2 C 76.89999999999999,26.9 76.89999999999999,26.5 76.69999999999999,26.3 C 71.29999999999998,19.5 64.39999999999999,14.8 55.999999999999986,12.4 C 55.899999999999984,12.4 55.79999999999998,12.4 55.69999999999999,12.3 C 55.499999999999986,12.100000000000001 55.39999999999999,11.9 55.29999999999999,11.700000000000001 C 55.49999999999999,11.700000000000001 55.69999999999999,11.500000000000002 55.89999999999999,11.600000000000001 C 58.69999999999999,12.700000000000001 61.49999999999999,13.700000000000001 64.3,15.000000000000002 C 69.39999999999999,17.400000000000002 73.5,20.900000000000002 77.0,25.300000000000004 C 77.4,25.800000000000004 77.8,26.100000000000005 78.4,26.000000000000004 C 78.9,26.000000000000004 79.2,26.300000000000004 79.5,26.700000000000003 C 80.1,27.8 80.3,28.7 79.6,29.9 M 79.2,28.9 C 79.5,27.799999999999997 78.4,26.4 77.4,26.5 C 77.1,28.0 77.4,28.5 79.2,28.9" fill="#ffce00" stroke="none" stroke-width="3.0" /><path d="M 56.2,10.9 C 56.6,10.4 56.900000000000006,10.1 57.6,10.4 C 65.2,12.8 71.7,16.8 77.4,22.200000000000003 C 77.80000000000001,22.6 77.80000000000001,23.400000000000002 77.9,24.1 C 71.7,17.9 64.8,13.0 56.2,10.9" fill="#ffce00" stroke="none" stroke-width="3.0" /><path d="M 22.4,24.3 C 22.2,23.1 22.7,22.3 23.599999999999998,21.5 C 29.199999999999996,16.5 35.4,12.7 42.599999999999994,10.4 C 43.3,10.200000000000001 43.699999999999996,10.3 44.099999999999994,10.9 C 35.4,13.0 28.5,17.9 22.4,24.3" fill="#ffce00" stroke="none" stroke-width="3.0" /><path d="M 81.3,43.4 C 82.2,44.0 83.0,44.5 83.89999999999999,45.0 C 84.39999999999999,44.4 84.8,43.8 85.39999999999999,43.0 C 85.49999999999999,44.1 85.69999999999999,44.9 85.8,45.8 C 85.8,46.0 85.7,46.199999999999996 85.6,46.3 C 85.1,47.0 84.6,47.599999999999994 84.1,48.3 C 83.39999999999999,47.8 82.69999999999999,47.4 82.1,47.0 C 82.0,46.9 81.8,46.8 81.8,46.7 C 81.6,45.7 81.4,44.6 81.3,43.4 M 84.8,44.5 C 84.2,45.3 83.6,46.1 82.89999999999999,46.9 C 83.19999999999999,47.199999999999996 83.6,47.4 83.8,47.6 C 84.8,46.8 85.3,45.9 84.8,44.5 M 83.3,45.0 C 82.89999999999999,44.7 82.5,44.5 82.0,44.2 C 82.1,45.1 82.1,45.800000000000004 82.2,46.5 C 82.3,46.5 82.3,46.5 82.4,46.5 C 82.6,46.1 82.9,45.6 83.3,45.0" fill="#ffce00" stroke="none" stroke-width="3.0" /><path d="M 14.9,43.1 C 15.5,43.800000000000004 15.9,44.4 16.4,45.0 C 17.2,44.5 18.099999999999998,44.0 19.0,43.4 C 18.8,44.6 18.7,45.6 18.5,46.699999999999996 C 18.5,46.8 18.3,46.99999999999999 18.2,47.099999999999994 C 17.599999999999998,47.49999999999999 16.9,47.99999999999999 16.2,48.39999999999999 C 15.7,47.69999999999999 15.1,46.99999999999999 14.6,46.29999999999999 C 14.5,46.19999999999999 14.5,45.99999999999999 14.5,45.89999999999999 C 14.6,45.0 14.8,44.2 14.9,43.1 M 17.4,46.9 C 16.7,46.1 16.099999999999998,45.3 15.499999999999998,44.5 C 14.899999999999999,45.8 15.399999999999999,46.8 16.4,47.6 C 16.7,47.4 17.0,47.2 17.4,46.9 M 17.0,45.1 C 17.3,45.7 17.6,46.1 17.9,46.6 C 18.0,46.6 18.099999999999998,46.6 18.099999999999998,46.5 C 18.099999999999998,45.8 18.2,45.1 18.2,44.2 C 17.8,44.6 17.4,44.8 17.0,45.1" fill="#ffce00" stroke="none" stroke-width="3.0" /><path d="M 80.6,39.7 C 81.5,40.2 82.3,40.7 83.1,41.2 C 83.5,40.5 84.0,39.800000000000004 84.39999999999999,39.1 C 85.1,40.9 85.1,42.5 83.8,44.0 C 83.0,43.5 82.1,43.0 81.3,42.5 C 81.2,42.4 81.1,42.3 81.1,42.2 C 81.0,41.4 80.8,40.6 80.6,39.7 M 84.1,40.4 C 83.6,41.199999999999996 83.19999999999999,41.8 82.69999999999999,42.6 C 83.1,42.800000000000004 83.39999999999999,43.0 83.69999999999999,43.2 C 84.6,42.3 84.4,41.4 84.1,40.4 M 82.7,41.3 C 82.2,41.0 81.8,40.8 81.3,40.5 C 81.5,41.2 81.7,41.8 81.89999999999999,42.5 C 82.2,42.0 82.5,41.7 82.7,41.3" fill="#ffce00" stroke="none" stroke-width="3.0" /><path d="M 15.8,39.1 C 16.2,39.800000000000004 16.7,40.5 17.1,41.2 C 17.900000000000002,40.7 18.700000000000003,40.300000000000004 19.6,39.7 C 19.400000000000002,40.6 19.3,41.400000000000006 19.1,42.2 C 19.1,42.400000000000006 18.900000000000002,42.5 18.700000000000003,42.6 C 17.900000000000002,43.1 17.1,43.5 16.300000000000004,44.0 C 15.1,42.5 15.0,40.8 15.8,39.1 M 17.5,42.6 C 17.0,41.800000000000004 16.6,41.2 16.1,40.4 C 15.8,41.5 15.600000000000001,42.4 16.400000000000002,43.1 C 16.8,43.0 17.1,42.8 17.5,42.6 M 17.5,41.3 C 17.7,41.699999999999996 18.0,42.0 18.3,42.5 C 18.5,41.7 18.7,41.2 18.900000000000002,40.5 C 18.4,40.8 18.0,41.1 17.5,41.3" fill="#ffce00" stroke="none" stroke-width="3.0" /><path d="M 82.2,37.6 C 82.60000000000001,36.9 83.0,36.2 83.3,35.5 C 84.5,37.2 84.1,38.7 83.0,40.2 C 81.5,39.5 79.9,38.900000000000006 80.0,36.7 C 80.8,37.0 81.5,37.3 82.2,37.6 M 82.9,39.4 C 83.5,38.5 83.9,37.6 83.10000000000001,36.6 C 82.7,37.4 82.30000000000001,38.1 81.9,38.800000000000004 C 82.3,39.1 82.6,39.2 82.9,39.4 M 80.6,37.3 C 80.6,37.3 80.5,37.4 80.5,37.4 C 80.8,37.8 81.0,38.3 81.3,38.9 C 81.6,38.4 81.7,38.1 81.89999999999999,37.8 C 81.4,37.6 81.0,37.4 80.6,37.3" fill="#ffce00" stroke="none" stroke-width="3.0" /><path d="M 18.0,37.6 C 18.8,37.300000000000004 19.5,37.0 20.2,36.7 C 20.3,38.900000000000006 18.7,39.5 17.099999999999998,40.300000000000004 C 16.7,39.50000000000001 16.4,38.7 15.999999999999998,38.00000000000001 C 15.899999999999999,37.800000000000004 15.999999999999998,37.60000000000001 16.099999999999998,37.400000000000006 C 16.299999999999997,36.800000000000004 16.499999999999996,36.2 16.799999999999997,35.400000000000006 C 17.2,36.2 17.6,36.9 18.0,37.6 M 17.3,39.4 C 17.6,39.199999999999996 18.0,39.0 18.3,38.8 C 17.900000000000002,38.0 17.5,37.3 17.1,36.599999999999994 C 16.4,37.7 16.7,38.5 17.3,39.4 M 18.4,37.8 C 18.599999999999998,38.099999999999994 18.799999999999997,38.4 19.0,38.9 C 19.3,38.3 19.5,37.9 19.8,37.4 C 19.8,37.4 19.7,37.3 19.7,37.3 C 19.2,37.5 18.8,37.6 18.4,37.8" fill="#ffce00" stroke="none" stroke-width="3.0" /><path d="M 18.1,32.1 C 18.3,32.5 18.5,32.9 18.700000000000003,33.300000000000004 C 18.900000000000002,33.7 19.1,34.1 19.300000000000004,34.50000000000001 C 20.000000000000004,34.20000000000001 20.700000000000003,33.900000000000006 21.500000000000004,33.50000000000001 C 21.300000000000004,34.300000000000004 21.100000000000005,34.900000000000006 20.900000000000002,35.60000000000001 C 20.900000000000002,35.70000000000001 20.6,35.900000000000006 20.500000000000004,35.900000000000006 C 19.800000000000004,36.10000000000001 19.100000000000005,36.300000000000004 18.500000000000004,36.50000000000001 C 17.1,35.2 16.9,33.7 18.1,32.1 M 18.3,33.4 C 17.400000000000002,34.5 18.2,35.199999999999996 18.6,36.1 C 18.900000000000002,36.0 19.200000000000003,35.9 19.5,35.800000000000004 C 19.0,35.0 18.7,34.2 18.3,33.4 M 19.3,34.8 C 19.6,35.199999999999996 19.8,35.4 20.0,35.599999999999994 C 20.2,35.199999999999996 20.4,34.8 20.6,34.39999999999999 C 20.5,34.39999999999999 20.5,34.29999999999999 20.400000000000002,34.29999999999999 C 20.2,34.4 19.8,34.6 19.3,34.8" fill="#ffce00" stroke="none" stroke-width="3.0" /><path d="M 78.9,33.6 C 79.30000000000001,33.800000000000004 79.7,33.9 80.0,34.1 C 80.3,34.2 80.7,34.4 81.0,34.5 C 81.4,33.7 81.8,32.9 82.2,32.0 C 83.3,33.9 83.2,34.6 81.9,36.6 C 81.7,36.5 81.5,36.5 81.30000000000001,36.4 C 79.3,35.8 79.3,35.8 78.9,33.6 M 80.8,35.8 C 81.2,35.9 81.39999999999999,36.0 81.7,36.0 C 82.60000000000001,34.5 82.60000000000001,34.2 82.0,33.4 C 81.6,34.2 81.2,34.9 80.8,35.8 M 79.7,34.3 C 79.60000000000001,34.4 79.60000000000001,34.4 79.5,34.5 C 79.7,34.9 80.0,35.3 80.2,35.7 C 80.4,35.400000000000006 80.60000000000001,35.2 80.8,34.800000000000004 C 80.4,34.6 80.1,34.4 79.7,34.3" fill="#ffce00" stroke="none" stroke-width="3.0" /><path d="M 87.7,47.2 C 88.10000000000001,46.7 88.4,46.2 88.9,45.7 C 89.0,47.1 89.5,48.400000000000006 88.2,49.400000000000006 C 86.7,49.00000000000001 86.60000000000001,48.800000000000004 86.60000000000001,46.400000000000006 C 87.0,46.6 87.3,46.9 87.7,47.2" fill="#ffce00" stroke="none" stroke-width="3.0" /><path d="M 11.5,45.8 C 11.9,46.3 12.2,46.699999999999996 12.6,47.199999999999996 C 12.9,46.9 13.299999999999999,46.699999999999996 13.7,46.3 C 13.6,47.199999999999996 13.7,47.9 13.5,48.599999999999994 C 13.4,48.99999999999999 12.7,49.199999999999996 12.3,49.3 C 12.200000000000001,49.3 11.9,49.099999999999994 11.700000000000001,48.9 C 10.7,48.0 11.4,46.9 11.5,45.8" fill="#ffce00" stroke="none" stroke-width="3.0" /><path d="M 21.4,23.2 C 21.5,24.099999999999998 21.5,25.0 20.799999999999997,25.599999999999998 C 20.599999999999998,25.799999999999997 20.4,25.9 20.199999999999996,25.9 C 19.899999999999995,25.9 19.299999999999997,25.9 19.199999999999996,25.7 C 19.099999999999994,25.2 18.799999999999997,24.7 19.199999999999996,24.099999999999998 C 19.8,23.2 20.5,23.1 21.4,23.2" fill="#ffce00" stroke="none" stroke-width="3.0" /><path d="M 78.9,23.2 C 80.60000000000001,22.8 81.80000000000001,24.4 80.9,25.9 C 79.3,26.1 78.6,25.2 78.9,23.2" fill="#ffce00" stroke="none" stroke-width="3.0" /><path d="M 79.1,43.5 C 79.5,43.0 79.89999999999999,42.6 80.3,42.0 C 80.6,43.6 81.1,45.1 79.5,46.3 C 77.7,45.8 77.9,44.199999999999996 77.5,42.599999999999994 C 78.2,43.0 78.6,43.3 79.1,43.5 M 79.3,45.9 C 80.39999999999999,44.6 80.39999999999999,44.6 79.8,43.3 C 79.39999999999999,44.0 78.89999999999999,44.599999999999994 78.5,45.4 C 78.8,45.6 79.0,45.7 79.3,45.9 M 78.9,43.8 C 78.60000000000001,43.599999999999994 78.30000000000001,43.5 78.0,43.3 C 78.1,43.8 78.1,44.3 78.2,44.699999999999996 C 78.3,44.699999999999996 78.3,44.699999999999996 78.4,44.699999999999996 C 78.5,44.4 78.7,44.1 78.9,43.8" fill="#ffce00" stroke="none" stroke-width="3.0" /><path d="M 20.7,46.4 C 19.099999999999998,45.3 19.599999999999998,43.8 19.9,42.199999999999996 C 20.299999999999997,42.699999999999996 20.7,43.099999999999994 21.099999999999998,43.599999999999994 C 21.599999999999998,43.3 21.999999999999996,43.099999999999994 22.599999999999998,42.699999999999996 C 22.3,44.2 22.6,45.9 20.7,46.4 M 20.4,43.3 C 19.7,44.699999999999996 19.799999999999997,44.9 20.9,45.9 C 21.2,45.699999999999996 21.4,45.6 21.7,45.4 C 21.3,44.7 20.9,44.0 20.4,43.3 M 21.9,44.7 C 22.0,44.7 22.0,44.7 22.099999999999998,44.7 C 22.099999999999998,44.300000000000004 22.2,43.800000000000004 22.299999999999997,43.300000000000004 C 21.9,43.50000000000001 21.699999999999996,43.6 21.4,43.800000000000004 C 21.5,44.1 21.7,44.4 21.9,44.7" fill="#ffce00" stroke="none" stroke-width="3.0" /><path d="M 79.1,42.4 C 77.5,42.0 76.89999999999999,40.9 77.0,39.199999999999996 C 77.5,39.49999999999999 78.1,39.699999999999996 78.7,39.99999999999999 C 79.0,39.49999999999999 79.3,38.99999999999999 79.60000000000001,38.39999999999999 C 80.3,40.0 80.2,41.3 79.1,42.4 M 78.8,42.0 C 79.2,41.2 80.0,40.6 79.2,39.6 C 78.8,40.2 78.5,40.9 78.10000000000001,41.5 C 78.3,41.7 78.5,41.9 78.8,42.0 M 77.5,41.3 C 77.6,41.3 77.6,41.3 77.7,41.3 C 77.8,41.0 78.0,40.699999999999996 78.2,40.4 C 77.9,40.199999999999996 77.60000000000001,40.1 77.2,39.8 C 77.3,40.5 77.4,40.9 77.5,41.3" fill="#ffce00" stroke="none" stroke-width="3.0" /><path d="M 83.1,32.0 C 84.1,32.4 84.89999999999999,32.4 85.0,31.1 C 85.7,32.300000000000004 86.3,33.2 85.4,34.300000000000004 C 83.8,34.6 83.8,33.1 83.1,32.0" fill="#ffce00" stroke="none" stroke-width="3.0" /><path d="M 21.2,42.5 C 20.0,41.3 20.0,40.0 20.7,38.5 C 21.0,39.0 21.3,39.5 21.599999999999998,40.1 C 22.099999999999998,39.800000000000004 22.7,39.6 23.2,39.300000000000004 C 23.5,40.9 23.1,41.6 21.2,42.5 M 21.0,39.7 C 20.2,40.800000000000004 21.0,41.400000000000006 21.4,42.1 C 21.599999999999998,41.9 21.9,41.800000000000004 22.099999999999998,41.6 C 21.8,40.9 21.4,40.3 21.0,39.7 M 22.5,41.3 C 22.6,41.3 22.6,41.3 22.7,41.3 C 22.8,40.9 22.9,40.4 23.099999999999998,39.8 C 22.7,40.099999999999994 22.4,40.199999999999996 22.099999999999998,40.4 C 22.2,40.8 22.4,41.1 22.5,41.3" fill="#ffce00" stroke="none" stroke-width="3.0" /><path d="M 14.8,34.4 C 13.9,33.3 14.5,32.3 15.100000000000001,31.299999999999997 C 15.3,31.699999999999996 15.400000000000002,31.999999999999996 15.600000000000001,32.4 C 16.0,32.3 16.400000000000002,32.3 17.0,32.199999999999996 C 16.5,33.1 16.5,34.5 14.8,34.4" fill="#ffce00" stroke="none" stroke-width="3.0" /><path d="M 14.6,35.6 C 15.0,35.4 15.299999999999999,35.2 15.7,35.1 C 15.799999999999999,36.5 15.399999999999999,37.1 14.0,37.6 C 13.2,36.7 13.2,36.4 13.8,34.2 C 14.1,34.7 14.4,35.2 14.6,35.6" fill="#ffce00" stroke="none" stroke-width="3.0" /><path d="M 85.2,37.9 C 85.7,38.1 86.0,38.3 86.5,38.5 C 86.7,38.1 87.0,37.7 87.2,37.3 C 88.0,38.4 87.9,39.099999999999994 87.10000000000001,40.4 C 85.6,40.2 85.3,39.2 85.2,37.9" fill="#ffce00" stroke="none" stroke-width="3.0" /><path d="M 13.3,40.4 C 12.3,39.4 12.5,38.4 13.0,37.199999999999996 C 13.3,37.599999999999994 13.5,37.99999999999999 13.8,38.49999999999999 C 14.200000000000001,38.29999999999999 14.600000000000001,38.099999999999994 15.0,37.89999999999999 C 15.0,39.5 14.7,39.9 13.3,40.4" fill="#ffce00" stroke="none" stroke-width="3.0" /><path d="M 86.3,37.5 C 84.7,37.4 84.7,36.2 84.39999999999999,35.0 C 84.89999999999999,35.2 85.19999999999999,35.4 85.6,35.6 C 85.89999999999999,35.1 86.1,34.7 86.3,34.300000000000004 C 87.0,35.5 87.0,36.5 86.3,37.5" fill="#ffce00" stroke="none" stroke-width="3.0" /><path d="M 19.5,45.9 C 19.9,46.4 20.3,46.9 20.8,47.4 C 21.2,47.1 21.6,46.8 21.900000000000002,46.5 C 22.3,47.9 21.900000000000002,48.8 20.500000000000004,49.6 C 19.1,48.8 19.1,47.4 19.5,45.9 M 19.9,46.9 C 19.4,48.0 20.0,48.5 20.599999999999998,49.1 C 20.799999999999997,49.0 20.999999999999996,48.800000000000004 21.299999999999997,48.7 C 20.8,48.1 20.4,47.5 19.9,46.9" fill="#ffce00" stroke="none" stroke-width="3.0" /><path d="M 17.3,29.6 C 17.6,29.5 17.900000000000002,29.400000000000002 18.2,29.400000000000002 C 18.099999999999998,30.6 17.7,31.000000000000004 16.3,31.400000000000002 C 15.700000000000001,30.3 15.9,29.3 16.8,27.900000000000002 C 16.9,28.5 17.1,29.0 17.3,29.6" fill="#ffce00" stroke="none" stroke-width="3.0" /><path d="M 83.0,29.6 C 83.2,29.0 83.4,28.400000000000002 83.6,27.700000000000003 C 83.9,29.0 85.0,30.0 84.0,31.3 C 82.9,31.2 82.3,30.5 82.0,29.3 C 82.4,29.4 82.6,29.5 83.0,29.6" fill="#ffce00" stroke="none" stroke-width="3.0" /><path d="M 78.3,46.5 C 78.7,46.8 79.1,47.1 79.5,47.4 C 79.9,46.9 80.3,46.4 80.7,45.9 C 81.3,47.199999999999996 81.0,48.4 79.8,49.6 C 78.2,48.8 78.1,48.5 78.3,46.5 M 79.6,49.1 C 80.19999999999999,48.5 80.8,47.9 80.3,46.9 C 79.8,47.5 79.39999999999999,48.1 78.89999999999999,48.699999999999996 C 79.2,48.8 79.4,49.0 79.6,49.1 M 78.4,47.0 C 78.5,47.6 78.5,47.9 78.60000000000001,48.5 C 78.9,48.1 79.10000000000001,47.9 79.2,47.7 C 79.0,47.4 78.8,47.3 78.4,47.0" fill="#ffce00" stroke="none" stroke-width="3.0" /><path d="M 11.8,43.0 C 12.100000000000001,43.4 12.4,43.8 12.700000000000001,44.2 C 13.100000000000001,44.0 13.4,43.7 13.8,43.400000000000006 C 13.700000000000001,44.50000000000001 13.9,45.60000000000001 12.5,45.900000000000006 C 11.6,45.3 11.4,44.3 11.8,43.0" fill="#ffce00" stroke="none" stroke-width="3.0" /><path d="M 88.4,43.0 C 88.80000000000001,44.2 88.60000000000001,45.2 87.60000000000001,46.0 C 86.4,45.7 86.30000000000001,44.7 86.4,43.5 C 86.80000000000001,43.8 87.10000000000001,44.0 87.5,44.2 C 87.8,43.8 88.1,43.4 88.4,43.0" fill="#ffce00" stroke="none" stroke-width="3.0" /><path d="M 18.4,25.5 C 18.5,25.9 18.599999999999998,26.4 18.7,26.8 C 19.099999999999998,26.8 19.4,26.8 19.7,26.7 C 19.3,28.099999999999998 19.0,28.4 17.7,28.5 C 17.2,27.4 17.3,26.8 18.4,25.5" fill="#ffce00" stroke="none" stroke-width="3.0" /><path d="M 82.5,28.5 C 81.2,28.7 80.9,27.6 80.4,26.7 C 80.80000000000001,26.7 81.2,26.7 81.5,26.8 C 81.6,26.400000000000002 81.7,26.0 81.8,25.5 C 82.5,26.4 83.3,27.3 82.5,28.5" fill="#ffce00" stroke="none" stroke-width="3.0" /><path d="M 23.0,32.6 C 23.2,33.2 23.4,33.7 23.6,34.4 C 24.1,34.3 24.5,34.199999999999996 25.0,34.1 C 24.9,35.4 24.4,36.4 23.0,36.5 C 21.8,35.0 21.8,34.4 23.0,32.6 M 23.1,33.5 C 22.200000000000003,34.4 22.200000000000003,34.6 23.1,35.8 C 23.1,35.0 23.1,34.3 23.1,33.5 M 23.3,35.9 C 24.2,35.9 24.400000000000002,35.3 24.5,34.6 C 23.6,34.6 23.5,35.3 23.3,35.9" fill="#ffce00" stroke="none" stroke-width="3.0" /><path d="M 77.3,32.6 C 78.5,34.2 78.5,34.800000000000004 77.39999999999999,36.5 C 75.8,36.0 75.7,36.0 75.3,34.0 C 75.8,34.1 76.2,34.2 76.7,34.3 C 76.9,33.8 77.1,33.2 77.3,32.6 M 77.1,35.7 C 78.0,34.900000000000006 78.0,34.300000000000004 77.1,33.400000000000006 C 77.1,34.2 77.1,34.9 77.1,35.7 M 76.9,35.9 C 76.7,35.199999999999996 76.60000000000001,34.6 75.7,34.699999999999996 C 75.8,35.3 76.0,36.0 76.9,35.9" fill="#ffce00" stroke="none" stroke-width="3.0" /><path d="M 87.5,43.1 C 86.3,42.800000000000004 85.9,42.0 85.8,40.800000000000004 C 86.3,41.1 86.7,41.300000000000004 87.2,41.6 C 87.5,41.2 87.7,40.800000000000004 88.0,40.300000000000004 C 88.5,41.7 88.4,42.0 87.5,43.1" fill="#ffce00" stroke="none" stroke-width="3.0" /><path d="M 12.8,43.1 C 11.8,42.300000000000004 12.0,41.4 12.100000000000001,40.2 C 12.400000000000002,40.7 12.700000000000001,41.1 13.000000000000002,41.6 C 13.400000000000002,41.4 13.900000000000002,41.1 14.300000000000002,40.9 C 14.3,42.2 14.2,42.4 12.8,43.1" fill="#ffce00" stroke="none" stroke-width="3.0" /><path d="M 78.6,35.4 C 79.6,36.8 79.19999999999999,38.1 78.19999999999999,39.3 C 77.19999999999999,38.699999999999996 76.29999999999998,38.099999999999994 76.29999999999998,36.599999999999994 C 76.69999999999999,36.699999999999996 77.09999999999998,36.89999999999999 77.59999999999998,36.99999999999999 C 78.0,36.6 78.3,36.0 78.6,35.4 M 78.2,38.6 C 79.0,37.6 79.0,37.2 78.5,36.300000000000004 C 77.9,37.0 77.6,37.8 78.2,38.6 M 76.7,37.3 C 76.8,38.199999999999996 77.0,38.4 77.8,38.599999999999994 C 77.6,38.0 77.6,37.3 76.7,37.3" fill="#ffce00" stroke="none" stroke-width="3.0" /><path d="M 23.9,36.7 C 23.9,38.1 23.0,38.7 22.0,39.300000000000004 C 21.1,38.1 20.6,36.900000000000006 21.6,35.400000000000006 C 21.900000000000002,35.900000000000006 22.3,36.50000000000001 22.6,37.10000000000001 C 23.0,37.0 23.4,36.9 23.9,36.7 M 21.7,36.3 C 21.2,37.199999999999996 21.5,37.9 22.099999999999998,38.599999999999994 C 22.7,37.7 22.3,37.0 21.7,36.3 M 23.8,37.3 C 22.7,37.4 22.7,37.5 22.6,38.699999999999996 C 23.0,38.3 23.3,37.9 23.8,37.3" fill="#ffce00" stroke="none" stroke-width="3.0" /><path d="M 78.5,49.6 C 78.9,49.9 79.1,50.1 79.4,50.4 C 79.10000000000001,50.8 78.9,51.199999999999996 78.60000000000001,51.6 C 78.60000000000001,51.6 78.50000000000001,51.6 78.50000000000001,51.5 C 78.5,50.9 78.5,50.3 78.5,49.6" fill="#ffce00" stroke="none" stroke-width="3.0" /><path d="M 20.8,50.4 C 21.1,50.199999999999996 21.3,50.0 21.6,49.8 C 21.6,49.8 21.700000000000003,49.699999999999996 21.8,49.699999999999996 C 21.8,49.8 21.900000000000002,49.8 21.900000000000002,49.9 C 21.900000000000002,50.4 21.900000000000002,51.0 21.900000000000002,51.5 C 21.8,51.5 21.8,51.5 21.700000000000003,51.6 C 21.4,51.2 21.1,50.9 20.8,50.4" fill="#ffce00" stroke="none" stroke-width="3.0" /><path d="M 61.1,76.3 C 61.0,77.39999999999999 60.9,78.3 60.800000000000004,79.2 C 61.400000000000006,79.5 61.50000000000001,79.8 61.00000000000001,80.3 C 60.800000000000004,80.5 60.800000000000004,80.89999999999999 60.60000000000001,81.2 C 60.400000000000006,81.2 60.20000000000001,81.10000000000001 59.900000000000006,81.10000000000001 C 59.900000000000006,80.7 59.900000000000006,80.4 59.900000000000006,80.00000000000001 C 59.400000000000006,80.00000000000001 58.900000000000006,79.90000000000002 58.50000000000001,79.90000000000002 C 57.900000000000006,79.90000000000002 57.70000000000001,79.40000000000002 58.00000000000001,79.00000000000001 C 58.70000000000001,78.10000000000001 59.300000000000004,77.30000000000001 60.10000000000001,76.50000000000001 C 60.3,76.3 60.8,76.3 61.1,76.3 M 59.1,79.1 C 59.6,79.1 59.9,79.19999999999999 60.300000000000004,79.19999999999999 C 60.300000000000004,78.69999999999999 60.2,78.29999999999998 60.2,77.79999999999998 C 59.7,78.3 59.4,78.6 59.1,79.1" fill="#ffce00" stroke="none" stroke-width="3.0" /><path d="M 40.3,81.2 C 40.3,80.7 40.3,80.5 40.199999999999996,80.4 C 40.599999999999994,80.2 40.99999999999999,80.0 41.4,79.7 C 41.0,79.4 40.699999999999996,79.2 40.4,79.0 C 39.9,78.5 39.8,77.8 40.199999999999996,77.1 C 40.49999999999999,76.5 40.99999999999999,76.19999999999999 41.699999999999996,76.3 C 42.4,76.39999999999999 42.8,76.8 42.99999999999999,77.5 C 43.199999999999996,78.4 42.99999999999999,79.2 42.29999999999999,79.8 C 41.8,80.3 41.1,80.7 40.3,81.2 M 40.8,77.7 C 40.8,77.8 40.8,77.9 40.8,78.0 C 41.099999999999994,78.2 41.4,78.6 41.699999999999996,78.6 C 42.199999999999996,78.69999999999999 42.49999999999999,78.3 42.4,77.8 C 42.3,77.5 42.0,77.1 41.699999999999996,77.1 C 41.4,77.1 41.1,77.5 40.8,77.7" fill="#ffce00" stroke="none" stroke-width="3.0" /><path d="M 55.0,80.4 C 54.7,79.30000000000001 56.0,79.80000000000001 56.1,79.10000000000001 C 56.0,79.00000000000001 55.800000000000004,78.9 55.7,78.80000000000001 C 55.1,78.30000000000001 54.900000000000006,77.50000000000001 55.300000000000004,76.9 C 55.6,76.30000000000001 56.300000000000004,76.0 56.900000000000006,76.10000000000001 C 57.60000000000001,76.30000000000001 58.00000000000001,76.80000000000001 58.00000000000001,77.7 C 58.00000000000001,78.8 57.300000000000004,79.5 56.400000000000006,80.0 C 55.8,80.2 55.4,80.3 55.0,80.4 M 57.3,77.8 C 57.3,77.7 57.3,77.6 57.3,77.5 C 57.0,77.3 56.699999999999996,77.0 56.5,77.0 C 56.3,77.0 55.8,77.4 55.8,77.6 C 55.8,77.89999999999999 56.199999999999996,78.3 56.4,78.3 C 56.7,78.4 57.0,78.0 57.3,77.8" fill="#ffce00" stroke="none" stroke-width="3.0" /><path d="M 46.3,78.4 C 45.9,77.80000000000001 45.599999999999994,77.30000000000001 45.199999999999996,76.80000000000001 C 45.4,76.60000000000001 45.599999999999994,76.50000000000001 45.8,76.30000000000001 C 46.099999999999994,76.70000000000002 46.4,77.10000000000001 46.8,77.60000000000001 C 47.199999999999996,77.2 47.5,76.7 47.8,76.30000000000001 C 48.0,76.4 48.199999999999996,76.50000000000001 48.5,76.70000000000002 C 48.1,77.30000000000001 47.7,77.80000000000001 47.3,78.40000000000002 C 47.8,79.00000000000001 48.199999999999996,79.50000000000001 48.699999999999996,80.10000000000002 C 48.49999999999999,80.30000000000003 48.3,80.40000000000002 48.099999999999994,80.50000000000003 C 47.699999999999996,80.00000000000003 47.3,79.50000000000003 46.89999999999999,79.00000000000003 C 46.39999999999999,79.60000000000002 45.89999999999999,80.10000000000002 45.39999999999999,80.70000000000003 C 45.19999999999999,80.50000000000003 44.99999999999999,80.40000000000003 44.79999999999999,80.20000000000003 C 45.3,79.6 45.8,79.0 46.3,78.4" fill="#ffce00" stroke="none" stroke-width="3.0" /><path d="M 37.2,78.5 C 37.0,78.4 36.900000000000006,78.2 36.7,78.1 C 36.800000000000004,77.89999999999999 36.900000000000006,77.8 37.1,77.6 C 37.6,77.0 38.2,76.89999999999999 38.800000000000004,77.19999999999999 C 39.400000000000006,77.49999999999999 39.6,78.19999999999999 39.300000000000004,78.89999999999999 C 39.2,79.1 39.1,79.39999999999999 39.00000000000001,79.6 C 38.900000000000006,79.8 38.800000000000004,80.1 38.60000000000001,80.39999999999999 C 39.00000000000001,80.3 39.20000000000001,80.3 39.50000000000001,80.3 C 39.60000000000001,81.0 39.20000000000001,81.2 37.300000000000004,81.5 C 37.6,80.9 37.900000000000006,80.3 38.2,79.7 C 38.300000000000004,79.5 38.400000000000006,79.4 38.5,79.2 C 38.7,78.8 38.9,78.2 38.4,78.0 C 38.199999999999996,77.9 37.699999999999996,78.2 37.3,78.4 C 37.2,78.3 37.2,78.4 37.2,78.5" fill="#ffce00" stroke="none" stroke-width="3.0" /><path d="M 62.3,76.8 C 63.8,76.7 64.2,77.39999999999999 63.699999999999996,78.7 C 63.599999999999994,78.9 63.599999999999994,79.10000000000001 63.699999999999996,79.3 C 63.8,79.89999999999999 63.8,80.5 63.199999999999996,80.8 C 62.599999999999994,81.2 62.099999999999994,80.89999999999999 61.49999999999999,80.3 C 61.79999999999999,80.2 61.99999999999999,80.0 62.199999999999996,80.0 C 62.49999999999999,80.0 62.9,80.2 62.99999999999999,79.8 C 62.99999999999999,79.6 62.599999999999994,79.39999999999999 62.39999999999999,79.1 C 62.39999999999999,79.1 62.29999999999999,79.0 62.19999999999999,79.0 C 62.19999999999999,78.8 62.19999999999999,78.6 62.19999999999999,78.4 C 62.59999999999999,78.30000000000001 63.29999999999999,78.60000000000001 63.09999999999999,77.80000000000001 C 63.09999999999999,77.60000000000001 62.59999999999999,77.50000000000001 62.19999999999999,77.30000000000001 C 62.3,77.3 62.3,77.0 62.3,76.8" fill="#ffce00" stroke="none" stroke-width="3.0" /><path d="M 53.5,77.4 C 53.3,77.60000000000001 53.1,77.60000000000001 52.9,77.80000000000001 C 52.8,77.70000000000002 52.6,77.50000000000001 52.4,77.30000000000001 C 53.1,77.00000000000001 53.199999999999996,75.9 54.199999999999996,76.30000000000001 C 54.199999999999996,77.70000000000002 54.199999999999996,79.00000000000001 54.199999999999996,80.30000000000001 C 53.9,80.30000000000001 53.599999999999994,80.30000000000001 53.3,80.30000000000001 C 53.4,79.3 53.4,78.4 53.5,77.4" fill="#ffce00" stroke="none" stroke-width="3.0" /><path d="M 49.9,80.1 C 49.699999999999996,80.1 49.4,80.1 49.199999999999996,80.1 C 49.199999999999996,78.89999999999999 49.199999999999996,77.8 49.199999999999996,76.6 C 49.199999999999996,76.5 49.49999999999999,76.3 49.9,76.1 C 49.9,77.6 49.9,78.8 49.9,80.1" fill="#ffce00" stroke="none" stroke-width="3.0" /><path d="M 52.3,77.9 C 51.9,78.10000000000001 51.699999999999996,78.4 51.5,78.4 C 51.3,78.30000000000001 51.1,78.0 50.9,77.80000000000001 C 51.1,77.60000000000001 51.3,77.30000000000001 51.5,77.30000000000001 C 51.7,77.3 51.9,77.6 52.3,77.9" fill="#ffce00" stroke="none" stroke-width="3.0" /><path d="M 44.5,77.4 C 44.7,77.80000000000001 45.0,78.0 45.0,78.2 C 45.0,78.4 44.7,78.60000000000001 44.5,78.7 C 44.3,78.5 44.0,78.3 44.0,78.10000000000001 C 43.9,78.0 44.2,77.8 44.5,77.4" fill="#ffce00" stroke="none" stroke-width="3.0" /><path d="M 49.5,51.1 C 51.0,49.4 51.8,47.5 51.3,45.0 C 52.5,47.2 51.8,49.5 49.5,51.1" fill="#ffce00" stroke="none" stroke-width="3.0" /><path d="M 13.8,61.8 C 14.200000000000001,61.199999999999996 14.600000000000001,60.599999999999994 15.100000000000001,59.9 C 15.3,60.5 15.700000000000001,61.0 15.500000000000002,61.3 C 15.200000000000001,61.9 14.700000000000001,62.599999999999994 14.200000000000001,62.8 C 13.8,63.0 13.100000000000001,62.4 12.700000000000001,62.099999999999994 C 12.4,61.8 12.4,61.3 12.200000000000001,60.599999999999994 C 12.8,61.2 13.3,61.5 13.8,61.8" fill="#ffce00" stroke="none" stroke-width="3.0" /><path d="M 59.0,59.0 C 60.7,56.4 61.6,53.6 61.5,50.5 C 62.5,53.4 60.6,57.8 59.0,59.0" fill="#ffce00" stroke="none" stroke-width="3.0" /><path d="M 85.1,60.0 C 85.6,60.7 86.0,61.2 86.39999999999999,61.8 C 86.89999999999999,61.5 87.39999999999999,61.099999999999994 87.89999999999999,60.8 C 87.8,62.199999999999996 87.39999999999999,62.8 86.3,63.0 C 85.5,63.1 85.3,62.2 84.8,61.7 C 84.3,61.1 85.0,60.7 85.1,60.0" fill="#ffce00" stroke="none" stroke-width="3.0" /><path d="M 54.1,15.8 C 52.800000000000004,15.0 51.7,14.4 50.6,13.600000000000001 C 50.2,13.400000000000002 49.9,13.3 49.6,13.600000000000001 C 48.4,14.3 47.300000000000004,14.900000000000002 46.0,15.700000000000001 C 46.3,14.3 46.6,13.0 47.0,11.700000000000001 C 47.1,11.200000000000001 47.0,10.9 46.7,10.600000000000001 C 45.7,9.8 44.800000000000004,8.900000000000002 43.7,8.000000000000002 C 45.1,7.800000000000002 46.300000000000004,7.600000000000001 47.5,7.400000000000002 C 47.9,7.3000000000000025 48.2,7.200000000000002 48.4,6.8000000000000025 C 49.0,5.500000000000003 49.6,4.3000000000000025 50.3,2.9000000000000026 C 50.9,4.200000000000003 51.5,5.400000000000002 51.9,6.600000000000003 C 52.199999999999996,7.300000000000003 52.6,7.5000000000000036 53.3,7.600000000000003 C 54.5,7.700000000000003 55.599999999999994,7.800000000000003 57.0,8.000000000000004 C 56.2,8.700000000000003 55.6,9.300000000000004 54.9,9.800000000000004 C 53.5,10.600000000000005 53.199999999999996,11.700000000000005 53.8,13.200000000000005 C 53.8,14.0 53.9,14.9 54.1,15.8" fill="#ffce00" stroke="none" stroke-width="3.0" /></g></svg>