<?xml version="1.0" encoding="utf-8" ?>
<svg baseProfile="full" height="100px" version="1.1" width="150px" xmlns="http://www.w3.org/2000/svg" xmlns:ev="http://www.w3.org/2001/xml-events" xmlns:xlink="http://www.w3.org/1999/xlink"><defs><clipPath id="mask0"><rect height="100" width="150" x="0" y="0" /></clipPath></defs><g clip-path="url(#mask0)"><rect fill="#007934" height="100" stroke="none" width="150" x="0" y="0" /></g><g transform="translate(65.9138263403651, 12.216172371282617) scale(0.18172347319269788) rotate(0, 50.0, 50.0)"><path d="M 18.9,73.9 C 17.9,75.60000000000001 17.2,78.4 17.2,80.0 C 17.2,85.8 22.0,90.6 27.799999999999997,90.6 L 27.799999999999997,90.6 L 46.4,90.6 L 46.4,68.1 L 22.1,68.1 L 18.9,73.9" fill="#ffce00" stroke="none" stroke-width="3.0px" /><path d="M 27.4,54.1 L 34.3,58.1 L 23.6,38.6 L 1.3,39.0 L 8.1,42.9 L 2.0,53.6 C 1.6,54.300000000000004 1.3,55.4 1.3,56.4 C 1.3,57.3 1.6,58.3 2.0,59.1 L 14.8,81.0 C 14.700000000000001,80.3 14.700000000000001,79.8 14.700000000000001,79.4 C 14.700000000000001,77.7 15.500000000000002,74.9 16.5,73.10000000000001 L 27.4,54.1" fill="#ffce00" stroke="none" stroke-width="3.0px" /><path d="M 35.3,6.0 C 31.4,6.0 28.299999999999997,7.8 26.299999999999997,11.2 L 16.999999999999996,27.2 L 36.5,38.5 L 48.5,17.7 L 45.0,11.899999999999999 C 42.7,7.9 39.5,6.0 35.3,6.0" fill="#ffce00" stroke="none" stroke-width="3.0px" /><path d="M 95.6,50.0 L 86.3,34.0 L 66.8,45.1 L 78.8,65.9 L 85.5,65.9 C 87.6,65.9 89.8,65.4 91.3,64.60000000000001 C 94.6,62.80000000000001 96.89999999999999,58.900000000000006 96.89999999999999,55.20000000000001 C 97.0,53.3 96.5,51.6 95.6,50.0" fill="#ffce00" stroke="none" stroke-width="3.0px" /><path d="M 85.8,68.3 L 64.0,68.3 L 64.0,60.3 L 52.5,79.4 L 64.0,98.5 L 64.0,90.6 L 75.9,90.6 C 78.0,90.6 79.9,89.6 80.9,87.8 L 93.5,65.8 C 91.4,67.5 88.8,68.3 85.8,68.3 L 85.8,68.3" fill="#ffce00" stroke="none" stroke-width="3.0px" /><path d="M 73.3,33.7 L 84.1,14.300000000000004 L 77.39999999999999,18.300000000000004 L 71.2,7.7 C 70.2,6.0 68.4,5.0 66.2,5.0 L 41.1,5.0 C 43.5,6.0 45.6,7.9 47.1,10.5 L 58.0,29.5 L 51.2,33.4 L 73.3,33.7" fill="#ffce00" stroke="none" stroke-width="3.0px" /></g><g transform="translate(90.76672370660586, 26.564999355823858) scale(0.18172347319269788) rotate(0, 50.0, 50.0)"><path d="M 18.9,73.9 C 17.9,75.60000000000001 17.2,78.4 17.2,80.0 C 17.2,85.8 22.0,90.6 27.799999999999997,90.6 L 27.799999999999997,90.6 L 46.4,90.6 L 46.4,68.1 L 22.1,68.1 L 18.9,73.9" fill="#ffce00" stroke="none" stroke-width="3.0px" /><path d="M 27.4,54.1 L 34.3,58.1 L 23.6,38.6 L 1.3,39.0 L 8.1,42.9 L 2.0,53.6 C 1.6,54.300000000000004 1.3,55.4 1.3,56.4 C 1.3,57.3 1.6,58.3 2.0,59.1 L 14.8,81.0 C 14.700000000000001,80.3 14.700000000000001,79.8 14.700000000000001,79.4 C 14.700000000000001,77.7 15.500000000000002,74.9 16.5,73.10000000000001 L 27.4,54.1" fill="#ffce00" stroke="none" stroke-width="3.0px" /><path d="M 35.3,6.0 C 31.4,6.0 28.299999999999997,7.8 26.299999999999997,11.2 L 16.999999999999996,27.2 L 36.5,38.5 L 48.5,17.7 L 45.0,11.899999999999999 C 42.7,7.9 39.5,6.0 35.3,6.0" fill="#ffce00" stroke="none" stroke-width="3.0px" /><path d="M 95.6,50.0 L 86.3,34.0 L 66.8,45.1 L 78.8,65.9 L 85.5,65.9 C 87.6,65.9 89.8,65.4 91.3,64.60000000000001 C 94.6,62.80000000000001 96.89999999999999,58.900000000000006 96.89999999999999,55.20000000000001 C 97.0,53.3 96.5,51.6 95.6,50.0" fill="#ffce00" stroke="none" stroke-width="3.0px" /><path d="M 85.8,68.3 L 64.0,68.3 L 64.0,60.3 L 52.5,79.4 L 64.0,98.5 L 64.0,90.6 L 75.9,90.6 C 78.0,90.6 79.9,89.6 80.9,87.8 L 93.5,65.8 C 91.4,67.5 88.8,68.3 85.8,68.3 L 85.8,68.3" fill="#ffce00" stroke="none" stroke-width="3.0px" /><path d="M 73.3,33.7 L 84.1,14.300000000000004 L 77.39999999999999,18.300000000000004 L 71.2,7.7 C 70.2,6.0 68.4,5.0 66.2,5.0 L 41.1,5.0 C 43.5,6.0 45.6,7.9 47.1,10.5 L 58.0,29.5 L 51.2,33.4 L 73.3,33.7" fill="#ffce00" stroke="none" stroke-width="3.0px" /></g><g transform="translate(90.76672370660587, 55.26265332490634) scale(0.18172347319269788) rotate(0, 50.0, 50.0)"><path d="M 18.9,73.9 C 17.9,75.60000000000001 17.2,78.4 17.2,80.0 C 17.2,85.8 22.0,90.6 27.799999999999997,90.6 L 27.799999999999997,90.6 L 46.4,90.6 L 46.4,68.1 L 22.1,68.1 L 18.9,73.9" fill="#ffce00" stroke="none" stroke-width="3.0px" /><path d="M 27.4,54.1 L 34.3,58.1 L 23.6,38.6 L 1.3,39.0 L 8.1,42.9 L 2.0,53.6 C 1.6,54.300000000000004 1.3,55.4 1.3,56.4 C 1.3,57.3 1.6,58.3 2.0,59.1 L 14.8,81.0 C 14.700000000000001,80.3 14.700000000000001,79.8 14.700000000000001,79.4 C 14.700000000000001,77.7 15.500000000000002,74.9 16.5,73.10000000000001 L 27.4,54.1" fill="#ffce00" stroke="none" stroke-width="3.0px" /><path d="M 35.3,6.0 C 31.4,6.0 28.299999999999997,7.8 26.299999999999997,11.2 L 16.999999999999996,27.2 L 36.5,38.5 L 48.5,17.7 L 45.0,11.899999999999999 C 42.7,7.9 39.5,6.0 35.3,6.0" fill="#ffce00" stroke="none" stroke-width="3.0px" /><path d="M 95.6,50.0 L 86.3,34.0 L 66.8,45.1 L 78.8,65.9 L 85.5,65.9 C 87.6,65.9 89.8,65.4 91.3,64.60000000000001 C 94.6,62.80000000000001 96.89999999999999,58.900000000000006 96.89999999999999,55.20000000000001 C 97.0,53.3 96.5,51.6 95.6,50.0" fill="#ffce00" stroke="none" stroke-width="3.0px" /><path d="M 85.8,68.3 L 64.0,68.3 L 64.0,60.3 L 52.5,79.4 L 64.0,98.5 L 64.0,90.6 L 75.9,90.6 C 78.0,90.6 79.9,89.6 80.9,87.8 L 93.5,65.8 C 91.4,67.5 88.8,68.3 85.8,68.3 L 85.8,68.3" fill="#ffce00" stroke="none" stroke-width="3.0px" /><path d="M 73.3,33.7 L 84.1,14.300000000000004 L 77.39999999999999,18.300000000000004 L 71.2,7.7 C 70.2,6.0 68.4,5.0 66.2,5.0 L 41.1,5.0 C 43.5,6.0 45.6,7.9 47.1,10.5 L 58.0,29.5 L 51.2,33.4 L 73.3,33.7" fill="#ffce00" stroke="none" stroke-width="3.0px" /></g><g transform="translate(65.9138263403651, 69.6114803094476) scale(0.18172347319269788) rotate(0, 50.0, 50.0)"><path d="M 18.9,73.9 C 17.9,75.60000000000001 17.2,78.4 17.2,80.0 C 17.2,85.8 22.0,90.6 27.799999999999997,90.6 L 27.799999999999997,90.6 L 46.4,90.6 L 46.4,68.1 L 22.1,68.1 L 18.9,73.9" fill="#ffce00" stroke="none" stroke-width="3.0px" /><path d="M 27.4,54.1 L 34.3,58.1 L 23.6,38.6 L 1.3,39.0 L 8.1,42.9 L 2.0,53.6 C 1.6,54.300000000000004 1.3,55.4 1.3,56.4 C 1.3,57.3 1.6,58.3 2.0,59.1 L 14.8,81.0 C 14.700000000000001,80.3 14.700000000000001,79.8 14.700000000000001,79.4 C 14.700000000000001,77.7 15.500000000000002,74.9 16.5,73.10000000000001 L 27.4,54.1" fill="#ffce00" stroke="none" stroke-width="3.0px" /><path d="M 35.3,6.0 C 31.4,6.0 28.299999999999997,7.8 26.299999999999997,11.2 L 16.999999999999996,27.2 L 36.5,38.5 L 48.5,17.7 L 45.0,11.899999999999999 C 42.7,7.9 39.5,6.0 35.3,6.0" fill="#ffce00" stroke="none" stroke-width="3.0px" /><path d="M 95.6,50.0 L 86.3,34.0 L 66.8,45.1 L 78.8,65.9 L 85.5,65.9 C 87.6,65.9 89.8,65.4 91.3,64.60000000000001 C 94.6,62.80000000000001 96.89999999999999,58.900000000000006 96.89999999999999,55.20000000000001 C 97.0,53.3 96.5,51.6 95.6,50.0" fill="#ffce00" stroke="none" stroke-width="3.0px" /><path d="M 85.8,68.3 L 64.0,68.3 L 64.0,60.3 L 52.5,79.4 L 64.0,98.5 L 64.0,90.6 L 75.9,90.6 C 78.0,90.6 79.9,89.6 80.9,87.8 L 93.5,65.8 C 91.4,67.5 88.8,68.3 85.8,68.3 L 85.8,68.3" fill="#ffce00" stroke="none" stroke-width="3.0px" /><path d="M 73.3,33.7 L 84.1,14.300000000000004 L 77.39999999999999,18.300000000000004 L 71.2,7.7 C 70.2,6.0 68.4,5.0 66.2,5.0 L 41.1,5.0 C 43.5,6.0 45.6,7.9 47.1,10.5 L 58.0,29.5 L 51.2,33.4 L 73.3,33.7" fill="#ffce00" stroke="none" stroke-width="3.0px" /></g><g transform="translate(41.06092897412435, 55.26265332490635) scale(0.18172347319269788) rotate(0, 50.0, 50.0)"><path d="M 18.9,73.9 C 17.9,75.60000000000001 17.2,78.4 17.2,80.0 C 17.2,85.8 22.0,90.6 27.799999999999997,90.6 L 27.799999999999997,90.6 L 46.4,90.6 L 46.4,68.1 L 22.1,68.1 L 18.9,73.9" fill="#ffce00" stroke="none" stroke-width="3.0px" /><path d="M 27.4,54.1 L 34.3,58.1 L 23.6,38.6 L 1.3,39.0 L 8.1,42.9 L 2.0,53.6 C 1.6,54.300000000000004 1.3,55.4 1.3,56.4 C 1.3,57.3 1.6,58.3 2.0,59.1 L 14.8,81.0 C 14.700000000000001,80.3 14.700000000000001,79.8 14.700000000000001,79.4 C 14.700000000000001,77.7 15.500000000000002,74.9 16.5,73.10000000000001 L 27.4,54.1" fill="#ffce00" stroke="none" stroke-width="3.0px" /><path d="M 35.3,6.0 C 31.4,6.0 28.299999999999997,7.8 26.299999999999997,11.2 L 16.999999999999996,27.2 L 36.5,38.5 L 48.5,17.7 L 45.0,11.899999999999999 C 42.7,7.9 39.5,6.0 35.3,6.0" fill="#ffce00" stroke="none" stroke-width="3.0px" /><path d="M 95.6,50.0 L 86.3,34.0 L 66.8,45.1 L 78.8,65.9 L 85.5,65.9 C 87.6,65.9 89.8,65.4 91.3,64.60000000000001 C 94.6,62.80000000000001 96.89999999999999,58.900000000000006 96.89999999999999,55.20000000000001 C 97.0,53.3 96.5,51.6 95.6,50.0" fill="#ffce00" stroke="none" stroke-width="3.0px" /><path d="M 85.8,68.3 L 64.0,68.3 L 64.0,60.3 L 52.5,79.4 L 64.0,98.5 L 64.0,90.6 L 75.9,90.6 C 78.0,90.6 79.9,89.6 80.9,87.8 L 93.5,65.8 C 91.4,67.5 88.8,68.3 85.8,68.3 L 85.8,68.3" fill="#ffce00" stroke="none" stroke-width="3.0px" /><path d="M 73.3,33.7 L 84.1,14.300000000000004 L 77.39999999999999,18.300000000000004 L 71.2,7.7 C 70.2,6.0 68.4,5.0 66.2,5.0 L 41.1,5.0 C 43.5,6.0 45.6,7.9 47.1,10.5 L 58.0,29.5 L 51.2,33.4 L 73.3,33.7" fill="#ffce00" stroke="none" stroke-width="3.0px" /></g><g transform="translate(41.06092897412434, 26.56499935582388) scale(0.18172347319269788) rotate(0, 50.0, 50.0)"><path d="M 18.9,73.9 C 17.9,75.60000000000001 17.2,78.4 17.2,80.0 C 17.2,85.8 22.0,90.6 27.799999999999997,90.6 L 27.799999999999997,90.6 L 46.4,90.6 L 46.4,68.1 L 22.1,68.1 L 18.9,73.9" fill="#ffce00" stroke="none" stroke-width="3.0px" /><path d="M 27.4,54.1 L 34.3,58.1 L 23.6,38.6 L 1.3,39.0 L 8.1,42.9 L 2.0,53.6 C 1.6,54.300000000000004 1.3,55.4 1.3,56.4 C 1.3,57.3 1.6,58.3 2.0,59.1 L 14.8,81.0 C 14.700000000000001,80.3 14.700000000000001,79.8 14.700000000000001,79.4 C 14.700000000000001,77.7 15.500000000000002,74.9 16.5,73.10000000000001 L 27.4,54.1" fill="#ffce00" stroke="none" stroke-width="3.0px" /><path d="M 35.3,6.0 C 31.4,6.0 28.299999999999997,7.8 26.299999999999997,11.2 L 16.999999999999996,27.2 L 36.5,38.5 L 48.5,17.7 L 45.0,11.899999999999999 C 42.7,7.9 39.5,6.0 35.3,6.0" fill="#ffce00" stroke="none" stroke-width="3.0px" /><path d="M 95.6,50.0 L 86.3,34.0 L 66.8,45.1 L 78.8,65.9 L 85.5,65.9 C 87.6,65.9 89.8,65.4 91.3,64.60000000000001 C 94.6,62.80000000000001 96.89999999999999,58.900000000000006 96.89999999999999,55.20000000000001 C 97.0,53.3 96.5,51.6 95.6,50.0" fill="#ffce00" stroke="none" stroke-width="3.0px" /><path d="M 85.8,68.3 L 64.0,68.3 L 64.0,60.3 L 52.5,79.4 L 64.0,98.5 L 64.0,90.6 L 75.9,90.6 C 78.0,90.6 79.9,89.6 80.9,87.8 L 93.5,65.8 C 91.4,67.5 88.8,68.3 85.8,68.3 L 85.8,68.3" fill="#ffce00" stroke="none" stroke-width="3.0px" /><path d="M 73.3,33.7 L 84.1,14.300000000000004 L 77.39999999999999,18.300000000000004 L 71.2,7.7 C 70.2,6.0 68.4,5.0 66.2,5.0 L 41.1,5.0 C 43.5,6.0 45.6,7.9 47.1,10.5 L 58.0,29.5 L 51.2,33.4 L 73.3,33.7" fill="#ffce00" stroke="none" stroke-width="3.0px" /></g></svg>