<?xml version="1.0" encoding="utf-8" ?>
<svg baseProfile="full" height="100px" version="1.1" width="150px" xmlns="http://www.w3.org/2000/svg" xmlns:ev="http://www.w3.org/2001/xml-events" xmlns:xlink="http://www.w3.org/1999/xlink"><defs><clipPath id="mask0"><rect height="100" width="150" x="0" y="0" /></clipPath></defs><g clip-path="url(#mask0)"><rect fill="#3e9a00" height="100" stroke="none" width="150" x="0" y="0" /><rect fill="none" height="87.143015299025" stroke="#000000" stroke-width="12.856984700975012" width="137.143015299025" x="6.428492350487506" y="6.428492350487506" /></g><g transform="translate(59.83332899756382, 34.83332899756382) scale(0.3033334200487236) rotate(0, 50.0, 50.0)"><path d="M 44.8,0.0 L 44.8,10.6 L 34.1,10.6 L 34.1,20.0 L 44.7,20.0 L 44.7,30.5 L 23.7,30.5 L 23.7,40.1 L 44.8,40.1 L 44.8,70.3 L 34.9,65.6 L 34.9,75.19999999999999 L 44.8,79.99999999999999 L 44.8,99.99999999999999 L 55.3,99.99999999999999 L 55.3,84.9 L 65.2,89.7 L 65.2,80.0 L 55.300000000000004,75.2 L 55.300000000000004,40.1 L 76.4,40.1 L 76.4,30.5 L 55.2,30.5 L 55.2,20.0 L 65.8,20.0 L 65.8,10.4 L 55.2,10.4 L 55.2,0.0 L 44.8,0.0" fill="#0df67c" stroke="none" stroke-width="3.0" /></g></svg>