<?xml version="1.0" encoding="utf-8" ?>
<svg baseProfile="full" height="100px" version="1.1" width="150px" xmlns="http://www.w3.org/2000/svg" xmlns:ev="http://www.w3.org/2001/xml-events" xmlns:xlink="http://www.w3.org/1999/xlink"><defs><clipPath id="mask0"><rect height="100" width="150" x="0" y="0" /></clipPath></defs><g clip-path="url(#mask0)"><rect fill="#935316" height="100" stroke="none" width="150" x="0" y="0" /></g><g transform="translate(21.572785495544803, 26.572785495544803) scale(0.4685442900891039) rotate(0, 50.0, 50.0)"><path d="M 50.0,0.0 C 22.4,0.0 0.0,22.4 0.0,50.0 C 0.0,77.6 22.4,100.0 50.0,100.0 C 77.6,100.0 100.0,77.6 100.0,50.0 C 100.0,22.400000000000006 77.6,0.0 50.0,0.0 M 78.3,83.3 C 77.6,82.39999999999999 76.2,82.2 75.3,82.89999999999999 C 74.39999999999999,83.6 74.2,84.99999999999999 74.89999999999999,85.89999999999999 C 72.99999999999999,87.19999999999999 70.89999999999999,88.39999999999999 68.8,89.39999999999999 C 68.3,88.3 67.1,87.8 66.0,88.3 C 64.9,88.8 64.4,90.0 64.8,91.1 C 62.599999999999994,91.89999999999999 60.3,92.5 58.0,92.89999999999999 C 57.8,91.69999999999999 56.7,90.89999999999999 55.6,91.1 C 54.4,91.3 53.6,92.3 53.7,93.5 C 52.5,93.6 51.400000000000006,93.6 50.2,93.6 C 49.0,93.6 47.800000000000004,93.6 46.7,93.5 C 46.800000000000004,92.3 46.0,91.3 44.800000000000004,91.1 C 43.6,90.89999999999999 42.50000000000001,91.8 42.400000000000006,92.89999999999999 C 40.00000000000001,92.49999999999999 37.800000000000004,91.89999999999999 35.60000000000001,91.1 C 36.00000000000001,90.0 35.50000000000001,88.69999999999999 34.400000000000006,88.3 C 33.300000000000004,87.8 32.00000000000001,88.39999999999999 31.600000000000005,89.39999999999999 C 29.500000000000004,88.39999999999999 27.400000000000006,87.19999999999999 25.500000000000007,85.89999999999999 C 26.200000000000006,84.89999999999999 26.000000000000007,83.6 25.10000000000001,82.89999999999999 C 24.20000000000001,82.19999999999999 22.800000000000008,82.3 22.10000000000001,83.3 C 21.20000000000001,82.5 20.300000000000008,81.7 19.500000000000007,80.89999999999999 C 18.700000000000006,80.1 17.900000000000006,79.19999999999999 17.10000000000001,78.3 C 18.000000000000007,77.6 18.20000000000001,76.2 17.500000000000007,75.3 C 16.800000000000008,74.39999999999999 15.400000000000007,74.2 14.500000000000007,74.89999999999999 C 13.200000000000006,72.99999999999999 12.000000000000007,70.89999999999999 11.000000000000007,68.8 C 12.100000000000007,68.3 12.600000000000007,67.1 12.100000000000007,66.0 C 11.600000000000007,64.9 10.400000000000007,64.4 9.300000000000008,64.8 C 8.0,62.5 7.4,60.2 7.0,57.9 C 8.2,57.699999999999996 9.0,56.6 8.8,55.5 C 8.600000000000001,54.3 7.6000000000000005,53.5 6.4,53.6 C 6.300000000000001,52.4 6.300000000000001,51.300000000000004 6.300000000000001,50.1 C 6.300000000000001,48.9 6.300000000000001,47.7 6.4,46.6 C 7.6000000000000005,46.7 8.600000000000001,45.9 8.8,44.7 C 9.0,43.5 8.100000000000001,42.400000000000006 7.000000000000001,42.300000000000004 C 7.400000000000001,39.900000000000006 8.0,37.7 8.8,35.50000000000001 C 9.9,35.900000000000006 11.200000000000001,35.400000000000006 11.600000000000001,34.300000000000004 C 12.100000000000001,33.2 11.500000000000002,31.900000000000006 10.500000000000002,31.500000000000004 C 11.500000000000002,29.400000000000002 12.700000000000003,27.300000000000004 14.000000000000002,25.400000000000006 C 15.000000000000002,26.100000000000005 16.3,25.900000000000006 17.0,25.000000000000007 C 17.7,24.10000000000001 17.6,22.700000000000006 16.6,22.000000000000007 C 17.400000000000002,21.10000000000001 18.200000000000003,20.200000000000006 19.0,19.400000000000006 C 19.8,18.600000000000005 20.7,17.800000000000004 21.6,17.000000000000007 C 22.3,17.900000000000006 23.700000000000003,18.10000000000001 24.6,17.400000000000006 C 25.5,16.700000000000006 25.700000000000003,15.300000000000006 25.0,14.400000000000006 C 26.9,13.100000000000005 29.0,11.900000000000006 31.1,10.900000000000006 C 31.6,12.000000000000005 32.800000000000004,12.500000000000005 33.9,12.000000000000005 C 35.0,11.500000000000005 35.5,10.300000000000006 35.1,9.200000000000006 C 37.5,8.0 39.8,7.4 42.1,7.0 C 42.300000000000004,8.2 43.4,9.0 44.5,8.8 C 45.7,8.600000000000001 46.5,7.6000000000000005 46.4,6.4 C 47.6,6.300000000000001 48.699999999999996,6.300000000000001 49.9,6.300000000000001 C 51.1,6.300000000000001 52.3,6.300000000000001 53.4,6.4 C 53.3,7.6000000000000005 54.1,8.600000000000001 55.3,8.8 C 56.5,9.0 57.599999999999994,8.100000000000001 57.699999999999996,7.000000000000001 C 60.099999999999994,7.400000000000001 62.3,8.0 64.5,8.8 C 64.1,9.9 64.6,11.200000000000001 65.7,11.600000000000001 C 66.8,12.100000000000001 68.10000000000001,11.500000000000002 68.5,10.500000000000002 C 70.6,11.500000000000002 72.7,12.700000000000003 74.6,14.000000000000002 C 73.89999999999999,15.000000000000002 74.1,16.3 75.0,17.0 C 75.9,17.7 77.3,17.6 78.0,16.6 C 78.9,17.400000000000002 79.8,18.200000000000003 80.6,19.0 C 81.39999999999999,19.8 82.19999999999999,20.7 83.0,21.6 C 82.1,22.3 81.9,23.700000000000003 82.6,24.6 C 83.3,25.5 84.69999999999999,25.700000000000003 85.6,25.0 C 86.89999999999999,26.9 88.1,29.0 89.1,31.1 C 88.0,31.6 87.5,32.800000000000004 88.0,33.9 C 88.5,35.0 89.7,35.5 90.8,35.1 C 91.6,37.300000000000004 92.2,39.6 92.6,41.9 C 91.39999999999999,42.1 90.6,43.199999999999996 90.8,44.3 C 91.0,45.5 92.0,46.3 93.2,46.199999999999996 C 93.3,47.4 93.3,48.49999999999999 93.3,49.699999999999996 C 93.3,50.9 93.3,52.099999999999994 93.2,53.199999999999996 C 92.0,53.099999999999994 91.0,53.9 90.8,55.099999999999994 C 90.6,56.3 91.5,57.39999999999999 92.6,57.49999999999999 C 92.19999999999999,59.89999999999999 91.6,62.099999999999994 90.8,64.3 C 89.7,63.9 88.39999999999999,64.39999999999999 88.0,65.5 C 87.5,66.6 88.1,67.9 89.1,68.3 C 88.1,70.39999999999999 86.89999999999999,72.5 85.6,74.39999999999999 C 84.6,73.69999999999999 83.3,73.89999999999999 82.6,74.8 C 81.89999999999999,75.7 82.0,77.1 83.0,77.8 C 82.2,78.7 81.4,79.6 80.6,80.39999999999999 C 80.1,81.8 79.2,82.6 78.3,83.3" fill="#ff3333" stroke="none" stroke-width="3.0px" /><path d="M 56.5,55.9 C 56.8,55.6 57.1,55.199999999999996 57.4,54.8 L 64.5,60.099999999999994 L 88.0,71.89999999999999 L 66.0,57.49999999999999 L 57.8,54.0 C 58.0,53.6 58.199999999999996,53.2 58.3,52.7 L 66.5,56.0 L 92.2,61.3 L 67.2,53.099999999999994 L 58.5,51.8 C 58.6,51.4 58.6,50.9 58.7,50.4 L 67.5,51.5 L 93.8,50.0 L 67.5,48.5 L 58.7,49.6 C 58.7,49.1 58.6,48.7 58.5,48.2 L 67.2,46.900000000000006 L 92.2,38.7 L 66.5,44.0 L 58.3,47.3 C 58.199999999999996,46.9 58.0,46.4 57.8,46.0 L 65.89999999999999,42.5 L 87.89999999999999,28.1 L 64.4,40.0 L 57.300000000000004,45.3 C 57.00000000000001,44.9 56.800000000000004,44.5 56.400000000000006,44.199999999999996 L 63.300000000000004,38.699999999999996 L 80.80000000000001,19.099999999999994 L 61.3,36.6 L 55.8,43.5 C 55.5,43.2 55.099999999999994,42.9 54.699999999999996,42.6 L 59.99999999999999,35.5 L 71.8,12.0 L 57.4,34.0 L 54.0,42.2 C 53.6,42.0 53.2,41.800000000000004 52.7,41.7 L 56.0,33.5 L 61.3,7.800000000000001 L 53.099999999999994,32.8 L 51.8,41.5 C 51.4,41.4 50.9,41.4 50.4,41.3 L 51.5,32.5 L 50.0,6.3 L 48.5,32.6 L 49.6,41.400000000000006 C 49.1,41.400000000000006 48.7,41.50000000000001 48.2,41.60000000000001 L 46.900000000000006,32.900000000000006 L 38.7,7.900000000000006 L 44.0,33.5 L 47.3,41.7 C 46.9,41.800000000000004 46.4,42.0 46.0,42.2 L 42.5,34.1 L 28.1,12.100000000000001 L 40.0,35.6 L 45.3,42.7 C 44.9,43.0 44.5,43.2 44.199999999999996,43.6 L 38.699999999999996,36.7 L 19.1,19.1 L 36.6,38.7 L 43.5,44.2 C 43.2,44.5 42.9,44.900000000000006 42.6,45.300000000000004 L 35.6,40.0 L 12.1,28.1 L 34.1,42.5 L 42.2,46.0 C 42.0,46.4 41.800000000000004,46.8 41.7,47.3 L 33.5,44.0 L 7.7,38.7 L 32.7,46.900000000000006 L 41.400000000000006,48.2 C 41.300000000000004,48.6 41.300000000000004,49.1 41.2,49.6 L 32.400000000000006,48.5 L 6.3,50.0 L 32.6,51.5 L 41.400000000000006,50.4 C 41.400000000000006,50.9 41.50000000000001,51.3 41.60000000000001,51.8 L 32.900000000000006,53.099999999999994 L 7.900000000000006,61.3 L 33.5,56.0 L 41.7,52.7 C 41.800000000000004,53.1 42.0,53.6 42.2,54.0 L 34.1,57.5 L 12.100000000000001,71.9 L 35.6,60.0 L 42.7,54.7 C 43.0,55.1 43.2,55.5 43.6,55.800000000000004 L 36.7,61.300000000000004 L 19.1,80.9 L 38.7,63.400000000000006 L 44.2,56.50000000000001 C 44.5,56.800000000000004 44.900000000000006,57.10000000000001 45.300000000000004,57.400000000000006 L 40.0,64.4 L 28.1,87.9 L 42.5,65.9 L 46.0,57.800000000000004 C 46.4,58.00000000000001 46.8,58.2 47.3,58.300000000000004 L 44.0,66.5 L 38.7,92.2 L 46.900000000000006,67.2 L 48.2,58.5 C 48.6,58.6 49.1,58.6 49.6,58.7 L 48.5,67.5 L 50.0,93.8 L 51.5,67.5 L 50.4,58.7 C 50.9,58.7 51.3,58.6 51.8,58.5 L 53.099999999999994,67.2 L 61.3,92.2 L 56.0,66.5 L 52.7,58.3 C 53.1,58.199999999999996 53.6,58.0 54.0,57.8 L 57.5,65.89999999999999 L 71.9,87.89999999999999 L 60.0,64.4 L 54.7,57.300000000000004 C 55.1,57.00000000000001 55.5,56.800000000000004 55.800000000000004,56.400000000000006 L 61.300000000000004,63.300000000000004 L 80.9,80.80000000000001 L 63.4,61.3 L 56.5,55.9" fill="#ff3333" stroke="none" stroke-width="3.0px" /></g><g transform="translate(81.5727854955448, 26.572785495544803) scale(0.4685442900891039) rotate(0, 50.0, 50.0)"><path d="M 90.8,71.7 C 90.0,70.3 87.1,70.3 86.6,71.9 L 80.69999999999999,72.10000000000001 L 84.19999999999999,69.60000000000001 C 85.49999999999999,70.4 87.29999999999998,69.50000000000001 87.69999999999999,68.10000000000001 C 88.19999999999999,67.50000000000001 88.89999999999999,67.2 90.1,67.60000000000001 C 89.39999999999999,66.4 88.5,66.10000000000001 86.89999999999999,66.9 C 85.39999999999999,65.80000000000001 83.39999999999999,67.10000000000001 83.69999999999999,68.30000000000001 L 78.99999999999999,71.50000000000001 C 75.59999999999998,70.50000000000001 69.49999999999999,68.90000000000002 69.49999999999999,68.90000000000002 C 70.19999999999999,68.10000000000002 70.99999999999999,67.40000000000002 71.69999999999999,66.60000000000002 C 71.99999999999999,66.10000000000002 71.6,65.60000000000002 70.99999999999999,65.50000000000003 C 65.49999999999999,64.40000000000003 62.399999999999984,62.20000000000003 60.499999999999986,56.60000000000003 C 59.69999999999999,54.20000000000003 61.399999999999984,53.50000000000003 61.999999999999986,55.00000000000003 C 62.79999999999998,57.00000000000003 63.69999999999999,59.20000000000003 66.19999999999999,60.90000000000003 C 66.99999999999999,61.50000000000003 69.6,61.00000000000003 68.1,59.60000000000003 C 66.6,58.30000000000003 65.89999999999999,57.80000000000003 65.1,54.70000000000003 C 65.1,53.10000000000003 66.69999999999999,52.400000000000034 67.6,53.900000000000034 C 68.6,57.000000000000036 68.69999999999999,58.30000000000003 70.39999999999999,60.30000000000003 C 71.69999999999999,61.80000000000003 73.39999999999999,62.80000000000003 74.3,62.80000000000003 C 75.8,62.80000000000003 77.39999999999999,61.10000000000003 75.3,59.900000000000034 C 72.3,58.70000000000003 71.2,57.10000000000004 70.8,55.500000000000036 C 70.3,52.80000000000003 70.8,51.500000000000036 72.5,52.80000000000003 C 74.8,55.400000000000034 79.3,60.400000000000034 81.6,62.70000000000003 C 84.19999999999999,64.70000000000003 87.19999999999999,64.80000000000003 89.6,62.70000000000003 C 91.0,61.10000000000003 90.5,59.400000000000034 88.3,59.80000000000003 C 83.5,60.20000000000003 79.8,57.80000000000003 75.8,51.30000000000003 C 75.0,49.80000000000003 74.8,47.70000000000003 76.5,49.30000000000003 C 78.5,52.000000000000036 81.4,54.30000000000003 84.1,55.30000000000003 C 86.8,56.30000000000003 89.1,55.70000000000003 89.89999999999999,54.900000000000034 C 90.89999999999999,53.900000000000034 90.69999999999999,51.20000000000003 88.89999999999999,51.80000000000003 C 87.39999999999999,52.30000000000003 85.3,52.500000000000036 83.1,51.60000000000003 C 80.89999999999999,50.70000000000003 78.6,48.90000000000003 76.19999999999999,45.80000000000003 C 75.39999999999999,44.000000000000036 75.6,42.500000000000036 77.29999999999998,43.400000000000034 C 81.29999999999998,46.80000000000003 86.39999999999998,49.500000000000036 88.99999999999999,47.80000000000003 C 90.89999999999999,46.60000000000003 90.99999999999999,43.500000000000036 88.49999999999999,43.70000000000003 C 83.59999999999998,44.400000000000034 81.69999999999999,43.30000000000003 76.99999999999999,39.10000000000003 C 75.89999999999999,38.30000000000003 75.99999999999999,36.30000000000003 77.69999999999999,37.60000000000003 C 81.69999999999999,40.20000000000003 87.1,41.20000000000003 89.19999999999999,39.80000000000003 C 91.1,38.60000000000003 90.79999999999998,34.900000000000034 87.6,36.20000000000003 C 85.0,37.80000000000003 82.19999999999999,37.70000000000003 76.5,33.70000000000003 C 75.1,32.50000000000003 76.1,30.90000000000003 77.3,31.60000000000003 C 81.89999999999999,34.20000000000003 88.6,35.30000000000003 90.3,30.00000000000003 C 91.0,28.00000000000003 89.8,26.80000000000003 88.0,28.200000000000028 C 84.1,31.80000000000003 79.6,30.100000000000026 77.1,28.200000000000028 C 76.39999999999999,27.80000000000003 75.1,25.600000000000026 77.39999999999999,26.00000000000003 C 83.39999999999999,27.400000000000027 89.3,26.200000000000028 90.39999999999999,21.900000000000027 C 90.99999999999999,20.50000000000003 89.8,18.100000000000026 87.6,20.100000000000026 C 84.69999999999999,22.900000000000027 81.69999999999999,23.000000000000025 77.89999999999999,23.000000000000025 C 75.99999999999999,22.600000000000026 75.89999999999999,20.500000000000025 77.6,20.100000000000026 C 80.6,20.200000000000028 83.6,18.800000000000026 86.0,17.500000000000025 C 88.3,16.200000000000024 90.3,14.300000000000026 90.9,11.700000000000024 C 91.30000000000001,9.400000000000023 89.0,6.900000000000024 87.7,9.400000000000023 C 85.7,13.000000000000023 81.3,16.400000000000023 76.4,17.00000000000002 C 76.10000000000001,16.600000000000023 75.5,15.500000000000021 74.7,15.800000000000022 C 73.3,16.400000000000023 71.5,17.100000000000023 69.8,18.00000000000002 C 66.0,19.800000000000022 64.39999999999999,20.70000000000002 64.8,23.800000000000022 C 65.3,27.100000000000023 62.8,29.100000000000023 60.699999999999996,28.600000000000023 C 58.9,28.100000000000023 57.9,26.50000000000002 58.199999999999996,23.600000000000023 C 58.49999999999999,21.300000000000022 60.699999999999996,18.600000000000023 63.3,17.200000000000024 C 65.0,16.300000000000026 67.5,15.800000000000024 70.5,15.100000000000025 C 72.3,14.700000000000024 73.3,14.000000000000025 73.4,13.300000000000024 C 73.4,13.300000000000024 72.10000000000001,14.200000000000024 70.10000000000001,14.100000000000025 C 69.2,14.000000000000025 68.50000000000001,13.600000000000025 68.30000000000001,13.200000000000024 C 69.00000000000001,13.100000000000025 70.30000000000001,13.200000000000024 71.4,13.200000000000024 C 72.9,13.200000000000024 76.4,12.800000000000024 77.4,10.700000000000024 C 77.7,9.300000000000024 76.80000000000001,9.000000000000025 75.9,9.900000000000023 C 75.0,10.900000000000023 74.60000000000001,11.700000000000024 72.7,12.100000000000023 C 71.60000000000001,12.300000000000022 70.4,12.500000000000023 69.0,12.200000000000022 C 69.8,11.200000000000022 71.1,10.200000000000022 72.2,10.400000000000022 C 72.60000000000001,10.500000000000021 73.0,10.800000000000022 73.4,11.400000000000022 C 73.60000000000001,9.900000000000022 73.2,8.100000000000023 69.10000000000001,8.900000000000022 C 69.2,7.7000000000000215 66.7,7.2000000000000215 65.2,7.300000000000022 C 64.4,7.300000000000022 62.7,7.800000000000022 61.400000000000006,8.400000000000022 C 59.400000000000006,9.000000000000021 57.50000000000001,9.400000000000022 55.2,9.600000000000021 C 56.5,10.70000000000002 56.800000000000004,10.80000000000002 58.1,11.800000000000022 C 56.1,12.500000000000021 54.6,14.100000000000023 53.9,15.100000000000023 C 53.9,15.100000000000023 56.199999999999996,15.000000000000023 56.8,15.300000000000022 C 54.4,16.00000000000002 53.3,16.400000000000023 52.0,17.800000000000022 C 52.5,17.900000000000023 53.1,18.00000000000002 53.4,18.100000000000023 C 53.699999999999996,18.200000000000024 53.6,18.400000000000023 53.4,18.600000000000023 C 52.9,19.00000000000002 50.699999999999996,21.50000000000002 50.1,22.100000000000023 C 49.5,21.50000000000002 47.300000000000004,19.00000000000002 46.800000000000004,18.600000000000023 C 46.6,18.400000000000023 46.50000000000001,18.200000000000024 46.800000000000004,18.100000000000023 C 47.1,18.00000000000002 47.800000000000004,17.900000000000023 48.2,17.800000000000022 C 46.900000000000006,16.50000000000002 45.800000000000004,16.100000000000023 43.400000000000006,15.300000000000022 C 44.00000000000001,15.000000000000021 46.300000000000004,15.100000000000023 46.300000000000004,15.100000000000023 C 45.6,14.100000000000023 44.1,12.600000000000023 42.1,11.800000000000022 C 43.4,10.800000000000022 43.7,10.800000000000022 45.0,9.600000000000023 C 42.7,9.400000000000023 40.8,9.000000000000023 38.8,8.400000000000023 C 37.599999999999994,7.800000000000024 35.9,7.300000000000024 35.0,7.300000000000024 C 33.5,7.300000000000024 31.1,7.800000000000024 31.1,8.900000000000023 C 27.0,8.200000000000024 26.6,9.900000000000023 26.8,11.400000000000023 C 27.2,10.800000000000024 27.7,10.500000000000023 28.0,10.400000000000023 C 29.1,10.200000000000024 30.4,11.200000000000024 31.2,12.200000000000024 C 29.7,12.600000000000025 28.599999999999998,12.300000000000024 27.5,12.100000000000025 C 25.6,11.800000000000024 25.3,10.900000000000025 24.3,9.900000000000023 C 23.400000000000002,9.000000000000023 22.5,9.300000000000024 22.8,10.700000000000024 C 23.7,12.800000000000024 27.200000000000003,13.200000000000024 28.8,13.200000000000024 C 29.900000000000002,13.200000000000024 31.2,13.000000000000025 31.900000000000002,13.200000000000024 C 31.700000000000003,13.600000000000025 31.000000000000004,14.000000000000025 30.1,14.100000000000025 C 28.1,14.200000000000024 26.8,13.300000000000024 26.8,13.300000000000024 C 26.900000000000002,14.000000000000023 27.8,14.800000000000024 29.7,15.100000000000025 C 32.7,15.800000000000024 35.2,16.300000000000026 36.9,17.200000000000024 C 39.5,18.600000000000023 41.699999999999996,21.400000000000023 42.0,23.600000000000023 C 42.3,26.400000000000023 41.3,28.100000000000023 39.5,28.600000000000023 C 37.4,29.200000000000024 34.9,27.100000000000023 35.4,23.800000000000022 C 35.9,20.70000000000002 34.3,19.800000000000022 30.4,18.00000000000002 C 28.599999999999998,17.20000000000002 26.9,16.40000000000002 25.5,15.800000000000022 C 24.7,15.500000000000021 24.1,16.600000000000023 23.8,17.00000000000002 C 18.9,16.40000000000002 14.5,13.000000000000021 12.5,9.400000000000022 C 11.1,6.900000000000022 8.9,9.400000000000022 9.3,11.70000000000002 C 9.9,14.30000000000002 11.8,16.20000000000002 14.200000000000001,17.50000000000002 C 16.6,18.800000000000022 19.6,20.20000000000002 22.6,20.100000000000023 C 24.200000000000003,20.400000000000023 24.200000000000003,22.600000000000023 22.3,23.00000000000002 C 18.5,23.00000000000002 15.4,22.90000000000002 12.600000000000001,20.100000000000023 C 10.400000000000002,18.100000000000023 9.200000000000001,20.50000000000002 9.8,21.900000000000023 C 10.9,26.100000000000023 16.8,27.300000000000026 22.8,26.00000000000002 C 25.1,25.600000000000023 23.8,27.70000000000002 23.1,28.20000000000002 C 20.6,30.00000000000002 16.1,31.800000000000022 12.200000000000001,28.20000000000002 C 10.4,26.800000000000022 9.200000000000001,28.00000000000002 9.900000000000002,30.00000000000002 C 11.600000000000001,35.30000000000002 18.300000000000004,34.200000000000024 22.900000000000002,31.600000000000023 C 24.1,30.900000000000023 25.200000000000003,32.50000000000002 23.700000000000003,33.700000000000024 C 18.000000000000004,37.800000000000026 15.200000000000003,37.800000000000026 12.600000000000003,36.200000000000024 C 9.400000000000002,34.90000000000003 9.100000000000003,38.60000000000002 11.000000000000004,39.800000000000026 C 13.100000000000003,41.10000000000002 18.500000000000004,40.10000000000002 22.500000000000004,37.60000000000002 C 24.200000000000003,36.300000000000026 24.300000000000004,38.300000000000026 23.200000000000003,39.10000000000002 C 18.500000000000004,43.300000000000026 16.6,44.300000000000026 11.700000000000003,43.700000000000024 C 9.0,43.6 9.0,46.7 10.9,47.9 C 13.5,49.5 18.6,46.8 22.6,43.5 C 24.3,42.6 24.5,44.1 23.700000000000003,45.9 C 21.300000000000004,49.0 19.000000000000004,50.9 16.800000000000004,51.699999999999996 C 14.600000000000005,52.49999999999999 12.500000000000004,52.4 11.000000000000004,51.9 C 9.200000000000003,51.3 8.900000000000004,53.9 10.000000000000004,55.0 C 10.900000000000004,55.9 13.100000000000003,56.4 15.800000000000004,55.4 C 18.500000000000004,54.4 21.400000000000006,52.1 23.400000000000006,49.4 C 25.100000000000005,47.8 24.900000000000006,49.9 24.100000000000005,51.4 C 20.100000000000005,57.9 16.400000000000006,60.3 11.600000000000005,59.9 C 9.500000000000005,59.5 9.000000000000005,61.199999999999996 10.300000000000004,62.8 C 12.700000000000005,64.8 15.700000000000005,64.8 18.300000000000004,62.8 C 20.600000000000005,60.5 25.100000000000005,55.599999999999994 27.400000000000006,52.9 C 29.000000000000007,51.6 29.600000000000005,52.9 29.100000000000005,55.6 C 28.700000000000006,57.2 27.600000000000005,58.800000000000004 24.600000000000005,60.0 C 22.600000000000005,61.2 24.100000000000005,62.8 25.600000000000005,62.9 C 26.400000000000006,62.9 28.200000000000006,61.9 29.500000000000004,60.4 C 31.200000000000003,58.4 31.300000000000004,57.1 32.300000000000004,54.0 C 33.2,52.5 34.800000000000004,53.2 34.800000000000004,54.8 C 34.00000000000001,57.9 33.400000000000006,58.4 31.800000000000004,59.699999999999996 C 30.300000000000004,61.099999999999994 32.800000000000004,61.599999999999994 33.7,60.99999999999999 C 36.2,59.29999999999999 37.1,57.099999999999994 37.900000000000006,55.099999999999994 C 38.50000000000001,53.699999999999996 40.2,54.39999999999999 39.400000000000006,56.699999999999996 C 37.50000000000001,62.3 34.400000000000006,64.5 28.900000000000006,65.6 C 28.300000000000004,65.69999999999999 27.900000000000006,66.19999999999999 28.200000000000006,66.69999999999999 C 28.900000000000006,67.49999999999999 29.700000000000006,68.19999999999999 30.400000000000006,68.99999999999999 C 30.400000000000006,68.99999999999999 24.300000000000004,70.59999999999998 20.900000000000006,71.59999999999998 L 16.200000000000006,68.39999999999998 C 16.500000000000007,67.19999999999997 14.500000000000007,65.79999999999998 13.000000000000007,66.99999999999997 C 11.300000000000008,66.19999999999997 10.400000000000007,66.59999999999997 9.800000000000008,67.69999999999997 C 11.100000000000009,67.29999999999997 11.700000000000008,67.59999999999998 12.200000000000008,68.19999999999997 C 12.600000000000009,69.59999999999998 14.40000000000001,70.49999999999997 15.700000000000008,69.69999999999997 L 19.20000000000001,72.19999999999997 L 13.30000000000001,71.99999999999997 C 12.90000000000001,70.39999999999998 9.90000000000001,70.39999999999998 9.100000000000009,71.79999999999997 C 8.000000000000009,71.79999999999997 7.300000000000009,72.39999999999996 7.000000000000009,73.79999999999997 C 8.200000000000008,72.89999999999996 8.700000000000008,72.99999999999997 9.300000000000008,73.19999999999997 C 10.000000000000007,74.39999999999998 12.400000000000007,74.39999999999998 13.000000000000007,73.19999999999997 L 18.700000000000006,73.39999999999998 L 15.400000000000006,75.29999999999998 C 13.500000000000005,74.19999999999999 11.000000000000005,75.89999999999998 11.500000000000005,77.59999999999998 C 10.700000000000005,78.29999999999998 10.600000000000005,79.19999999999997 11.100000000000005,80.59999999999998 C 11.400000000000006,79.69999999999997 11.900000000000006,78.79999999999998 12.700000000000005,78.29999999999998 C 14.400000000000004,78.79999999999998 16.100000000000005,78.19999999999999 16.100000000000005,76.49999999999999 L 20.700000000000003,73.89999999999999 L 25.300000000000004,75.69999999999999 C 25.300000000000004,76.89999999999999 27.100000000000005,77.79999999999998 28.700000000000003,77.19999999999999 C 29.800000000000004,77.29999999999998 30.000000000000004,78.29999999999998 30.1,79.1 C 30.700000000000003,78.0 30.8,76.89999999999999 29.400000000000002,75.89999999999999 C 29.400000000000002,74.49999999999999 27.6,73.6 26.200000000000003,74.39999999999999 L 22.300000000000004,72.99999999999999 C 25.800000000000004,71.89999999999999 32.2,70.69999999999999 32.2,70.69999999999999 C 33.1,71.49999999999999 33.800000000000004,72.1 34.6,72.89999999999999 C 35.1,73.19999999999999 35.7,73.19999999999999 36.4,72.19999999999999 C 38.6,68.99999999999999 40.6,63.09999999999999 43.8,62.29999999999999 C 45.0,61.99999999999999 46.3,62.79999999999999 46.0,65.39999999999999 C 45.6,69.3 42.7,72.6 39.1,74.99999999999999 C 37.1,76.29999999999998 36.2,75.69999999999999 34.7,75.69999999999999 C 32.7,75.89999999999999 32.2,76.89999999999999 33.800000000000004,78.29999999999998 C 35.300000000000004,79.09999999999998 36.7,79.19999999999999 37.800000000000004,78.99999999999999 C 38.800000000000004,78.79999999999998 39.900000000000006,77.59999999999998 40.7,76.89999999999999 C 41.6,75.8 43.1,77.1 42.1,78.3 C 40.2,80.6 38.4,82.0 36.1,82.0 C 33.7,82.3 34.1,83.7 35.7,84.4 C 38.6,85.60000000000001 41.2,83.30000000000001 42.5,81.80000000000001 C 43.5,80.70000000000002 44.3,80.60000000000001 44.1,82.4 C 43.1,85.60000000000001 41.7,86.80000000000001 39.5,87.0 C 37.7,86.8 37.7,88.3 39.0,89.3 C 42.0,91.5 44.3,87.8 45.3,85.6 C 46.0,83.6 47.199999999999996,84.5 47.3,86.19999999999999 C 47.3,88.39999999999999 45.699999999999996,90.69999999999999 44.4,91.79999999999998 C 43.1,92.8 50.0,100.0 50.0,100.0 C 50.0,100.0 56.9,92.8 55.6,91.7 C 54.300000000000004,90.60000000000001 52.7,88.3 52.7,86.10000000000001 C 52.800000000000004,84.50000000000001 53.900000000000006,83.50000000000001 54.7,85.50000000000001 C 55.7,87.70000000000002 57.900000000000006,91.40000000000002 61.0,89.20000000000002 C 62.3,88.20000000000002 62.3,86.80000000000001 60.5,86.90000000000002 C 58.2,86.70000000000002 56.9,85.50000000000001 55.9,82.30000000000003 C 55.699999999999996,80.50000000000003 56.4,80.60000000000002 57.5,81.70000000000003 C 58.8,83.20000000000003 61.4,85.50000000000003 64.3,84.30000000000003 C 65.89999999999999,83.60000000000002 66.39999999999999,82.20000000000003 63.9,81.90000000000002 C 61.6,81.90000000000002 59.699999999999996,80.50000000000001 57.9,78.20000000000002 C 56.9,76.90000000000002 58.4,75.70000000000002 59.3,76.80000000000001 C 60.099999999999994,77.50000000000001 61.199999999999996,78.80000000000001 62.199999999999996,78.9 C 63.3,79.10000000000001 64.69999999999999,79.0 66.19999999999999,78.2 C 67.89999999999999,76.8 67.29999999999998,75.8 65.29999999999998,75.60000000000001 C 63.69999999999998,75.7 62.899999999999984,76.30000000000001 60.899999999999984,74.9 C 57.29999999999998,72.5 54.399999999999984,69.2 53.999999999999986,65.30000000000001 C 53.69999999999999,62.70000000000001 55.09999999999999,61.90000000000001 56.19999999999999,62.20000000000001 C 59.29999999999999,63.00000000000001 61.39999999999999,68.9 63.59999999999999,72.10000000000001 C 64.29999999999998,73.00000000000001 64.99999999999999,73.00000000000001 65.39999999999999,72.80000000000001 C 66.3,72.10000000000001 66.99999999999999,71.4 67.8,70.60000000000001 C 67.8,70.60000000000001 74.2,71.7 77.7,72.9 L 73.8,74.30000000000001 C 72.3,73.50000000000001 70.6,74.4 70.6,75.80000000000001 C 69.19999999999999,76.80000000000001 69.3,77.9 69.89999999999999,79.00000000000001 C 70.1,78.20000000000002 70.19999999999999,77.30000000000001 71.3,77.10000000000001 C 72.89999999999999,77.7 74.7,76.80000000000001 74.7,75.60000000000001 L 79.3,73.80000000000001 L 83.89999999999999,76.4 C 83.89999999999999,78.2 85.6,78.7 87.3,78.2 C 88.1,78.7 88.6,79.60000000000001 88.89999999999999,80.5 C 89.39999999999999,79.1 89.3,78.2 88.49999999999999,77.5 C 88.99999999999999,75.7 86.49999999999999,74.0 84.59999999999998,75.2 L 81.29999999999998,73.3 L 86.99999999999999,73.1 C 87.69999999999999,74.3 89.99999999999999,74.3 90.69999999999999,73.1 C 91.29999999999998,72.89999999999999 91.79999999999998,72.8 92.99999999999999,73.69999999999999 C 92.6,72.3 91.9,71.7 90.8,71.7 M 64.9,10.2 L 64.9,10.2 C 66.0,10.2 66.7,10.5 66.7,11.0 C 66.7,11.5 66.0,11.9 64.9,11.9 C 63.800000000000004,11.9 63.2,11.5 63.2,11.1 C 63.2,10.6 63.8,10.2 64.9,10.2 M 35.1,11.9 C 34.0,11.9 33.300000000000004,11.5 33.300000000000004,11.0 C 33.300000000000004,10.5 34.00000000000001,10.2 35.1,10.2 L 35.1,10.2 C 36.2,10.2 36.800000000000004,10.6 36.800000000000004,11.0 C 36.8,11.5 36.2,11.9 35.1,11.9" fill="#ff9932" stroke="none" stroke-width="3.0px" /><path d="M 55.6,91.7 L 55.6,91.7 L 55.6,91.7 L 55.6,91.7" fill="#ff9932" stroke="none" stroke-width="3.0px" /></g></svg>