<?xml version="1.0" encoding="utf-8" ?>
<svg baseProfile="full" height="100px" version="1.1" width="150px" xmlns="http://www.w3.org/2000/svg" xmlns:ev="http://www.w3.org/2001/xml-events" xmlns:xlink="http://www.w3.org/1999/xlink"><defs><clipPath id="mask0"><rect height="100" width="150" x="0" y="0" /></clipPath></defs><g clip-path="url(#mask0)"><rect fill="#000000" height="100" stroke="none" width="150" x="0" y="0" /></g><g transform="translate(36.12725831600236, 11.127258316002361) scale(0.7774548336799527) rotate(0, 50.0, 50.0)"><path d="M 48.0,83.9 C 42.0,83.5 36.5,81.7 31.4,78.5 C 30.2,80.2 29.0,81.7 27.9,83.4 C 27.599999999999998,83.80000000000001 27.7,84.5 27.799999999999997,85.10000000000001 C 28.599999999999998,88.4 26.599999999999998,91.30000000000001 23.299999999999997,91.30000000000001 C 20.599999999999998,91.30000000000001 18.599999999999998,89.30000000000001 18.599999999999998,86.60000000000001 C 18.599999999999998,83.9 20.599999999999998,81.80000000000001 23.299999999999997,81.9 C 24.499999999999996,82.0 25.099999999999998,81.5 25.699999999999996,80.60000000000001 C 26.599999999999994,79.2 27.599999999999994,78.00000000000001 28.599999999999994,76.50000000000001 C 23.799999999999994,72.60000000000001 20.299999999999994,67.70000000000002 17.999999999999993,61.90000000000001 C 16.099999999999994,62.500000000000014 14.199999999999992,63.000000000000014 12.399999999999993,63.70000000000001 C 11.999999999999993,63.90000000000001 11.599999999999993,64.50000000000001 11.399999999999993,65.00000000000001 C 10.699999999999994,67.10000000000001 9.199999999999992,68.50000000000001 6.999999999999993,68.50000000000001 C 5.0999999999999925,68.60000000000001 3.199999999999993,67.40000000000002 2.499999999999993,65.60000000000001 C 1.6999999999999929,63.70000000000001 2.2999999999999927,61.50000000000001 3.7999999999999927,60.30000000000001 C 5.499999999999993,58.90000000000001 7.5999999999999925,58.80000000000001 9.399999999999991,60.10000000000001 C 10.299999999999992,60.70000000000001 10.999999999999991,60.70000000000001 11.799999999999992,60.400000000000006 C 13.399999999999991,59.800000000000004 14.999999999999993,59.400000000000006 16.59999999999999,58.800000000000004 C 16.699999999999992,58.800000000000004 16.79999999999999,58.7 16.89999999999999,58.50000000000001 C 15.499999999999991,52.800000000000004 15.499999999999991,47.00000000000001 16.89999999999999,41.2 C 14.899999999999991,40.6 12.999999999999991,39.900000000000006 11.09999999999999,39.400000000000006 C 10.69999999999999,39.300000000000004 9.999999999999991,39.50000000000001 9.59999999999999,39.7 C 7.599999999999991,41.0 5.599999999999991,41.0 3.799999999999991,39.7 C 2.299999999999991,38.5 1.5999999999999908,36.400000000000006 2.299999999999991,34.6 C 3.1,32.7 5.0,31.3 7.0,31.3 C 9.1,31.3 10.8,32.7 11.5,34.9 C 11.7,35.4 12.1,36.0 12.6,36.199999999999996 C 14.4,36.9 16.2,37.4 18.1,37.99999999999999 C 20.400000000000002,32.199999999999996 23.8,27.299999999999994 28.700000000000003,23.39999999999999 C 27.500000000000004,21.699999999999992 26.400000000000002,20.09999999999999 25.200000000000003,18.59999999999999 C 24.900000000000002,18.29999999999999 24.300000000000004,17.99999999999999 23.800000000000004,17.99999999999999 C 21.500000000000004,17.99999999999999 19.600000000000005,16.79999999999999 18.900000000000006,14.79999999999999 C 18.300000000000004,12.89999999999999 18.900000000000006,10.79999999999999 20.600000000000005,9.49999999999999 C 22.200000000000006,8.29999999999999 24.500000000000004,8.199999999999989 26.100000000000005,9.39999999999999 C 27.900000000000006,10.69999999999999 28.500000000000004,12.699999999999989 27.800000000000004,15.09999999999999 C 27.700000000000003,15.499999999999991 27.600000000000005,16.09999999999999 27.800000000000004,16.49999999999999 C 28.900000000000006,18.19999999999999 30.100000000000005,19.79999999999999 31.400000000000006,21.39999999999999 C 36.60000000000001,18.09999999999999 42.10000000000001,16.39999999999999 48.300000000000004,15.999999999999991 C 48.300000000000004,13.79999999999999 48.300000000000004,11.699999999999992 48.300000000000004,9.59999999999999 C 48.300000000000004,9.19999999999999 47.800000000000004,8.79999999999999 47.400000000000006,8.499999999999991 C 45.60000000000001,6.999999999999991 44.900000000000006,4.999999999999991 45.7,2.999999999999991 C 46.400000000000006,1.0999999999999912 48.300000000000004,-0.10000000000000897 50.300000000000004,-8.881784197001252e-15 C 52.2,0.09999999999999112 54.00000000000001,1.399999999999991 54.6,3.1999999999999913 C 55.2,5.299999999999992 54.5,7.199999999999991 52.7,8.699999999999992 C 52.2,9.099999999999993 51.800000000000004,9.799999999999992 51.800000000000004,10.399999999999991 C 51.7,12.199999999999992 51.800000000000004,14.09999999999999 51.800000000000004,15.999999999999991 C 58.00000000000001,16.39999999999999 63.60000000000001,18.09999999999999 68.80000000000001,21.499999999999993 C 70.00000000000001,19.799999999999994 71.30000000000001,18.099999999999994 72.4,16.39999999999999 C 72.60000000000001,15.999999999999991 72.4,15.299999999999992 72.30000000000001,14.699999999999992 C 71.60000000000001,12.099999999999993 73.00000000000001,9.499999999999993 75.4,8.799999999999992 C 77.80000000000001,8.099999999999993 80.5,9.399999999999991 81.30000000000001,11.799999999999992 C 82.10000000000001,14.199999999999992 80.80000000000001,16.79999999999999 78.50000000000001,17.699999999999992 C 78.40000000000002,17.699999999999992 78.30000000000001,17.799999999999994 78.20000000000002,17.799999999999994 C 75.20000000000002,17.299999999999994 74.30000000000001,19.699999999999992 72.90000000000002,21.499999999999993 C 72.50000000000001,22.099999999999994 72.00000000000001,22.699999999999992 71.50000000000001,23.39999999999999 C 76.20000000000002,27.29999999999999 79.80000000000001,32.099999999999994 82.00000000000001,37.99999999999999 C 84.00000000000001,37.29999999999999 86.00000000000001,36.79999999999999 87.80000000000001,36.099999999999994 C 88.20000000000002,35.99999999999999 88.50000000000001,35.39999999999999 88.70000000000002,34.89999999999999 C 89.40000000000002,32.69999999999999 91.00000000000001,31.39999999999999 93.00000000000001,31.29999999999999 C 95.10000000000001,31.19999999999999 96.90000000000002,32.39999999999999 97.60000000000001,34.29999999999999 C 98.30000000000001,36.19999999999999 97.7,38.39999999999999 96.2,39.59999999999999 C 94.5,40.899999999999984 92.3,40.899999999999984 90.4,39.69999999999999 C 90.0,39.499999999999986 89.5,39.19999999999999 89.10000000000001,39.29999999999999 C 87.10000000000001,39.89999999999999 85.10000000000001,40.59999999999999 83.00000000000001,41.19999999999999 C 84.40000000000002,47.09999999999999 84.40000000000002,52.89999999999999 83.00000000000001,58.79999999999999 C 85.10000000000001,59.49999999999999 87.10000000000001,60.19999999999999 89.10000000000001,60.69999999999999 C 89.50000000000001,60.79999999999999 90.00000000000001,60.499999999999986 90.4,60.29999999999999 C 92.5,58.99999999999999 94.4,58.99999999999999 96.2,60.39999999999999 C 97.7,61.599999999999994 98.4,63.79999999999999 97.7,65.49999999999999 C 97.0,67.39999999999999 95.10000000000001,68.69999999999999 93.2,68.69999999999999 C 91.10000000000001,68.69999999999999 89.5,67.29999999999998 88.7,65.1 C 88.5,64.6 88.0,63.99999999999999 87.5,63.8 C 85.8,63.099999999999994 84.0,62.599999999999994 82.0,62.0 C 79.7,67.7 76.3,72.6 71.4,76.6 C 72.60000000000001,78.3 73.7,80.0 75.0,81.5 C 75.3,81.9 76.2,81.9 76.8,82.0 C 79.2,82.1 81.1,83.8 81.39999999999999,86.1 C 81.69999999999999,88.39999999999999 80.3,90.6 78.19999999999999,91.19999999999999 C 75.89999999999999,91.89999999999999 73.39999999999999,90.89999999999999 72.6,88.69999999999999 C 72.19999999999999,87.6 72.5,86.19999999999999 72.39999999999999,84.99999999999999 C 72.39999999999999,84.49999999999999 72.49999999999999,83.89999999999999 72.3,83.49999999999999 C 71.39999999999999,82.09999999999998 70.39999999999999,80.79999999999998 69.5,79.49999999999999 C 69.3,79.19999999999999 69.1,78.99999999999999 68.8,78.59999999999998 C 63.699999999999996,81.79999999999998 58.099999999999994,83.59999999999998 51.9,83.99999999999999 C 51.9,86.19999999999999 51.9,88.19999999999999 51.9,90.29999999999998 C 51.9,90.69999999999999 52.4,91.09999999999998 52.8,91.39999999999998 C 54.699999999999996,92.79999999999998 55.4,94.79999999999998 54.8,96.89999999999998 C 53.9,98.6 52.0,100.0 50.0,100.0 C 48.0,100.0 46.2,98.8 45.5,97.0 C 44.7,95.0 45.4,92.9 47.2,91.4 C 47.7,91.0 48.1,90.2 48.2,89.5 C 48.300000000000004,87.8 48.2,86.1 48.2,84.5 C 48.2,84.3 48.1,84.2 48.0,83.9" fill="#ffffff" stroke="#603814" stroke-width="3.0" /></g></svg>