<?xml version="1.0" encoding="utf-8" ?>
<svg baseProfile="full" height="100px" version="1.1" width="150px" xmlns="http://www.w3.org/2000/svg" xmlns:ev="http://www.w3.org/2001/xml-events" xmlns:xlink="http://www.w3.org/1999/xlink"><defs><clipPath id="mask0"><rect height="100" width="150" x="0" y="0" /></clipPath></defs><g clip-path="url(#mask0)"><rect fill="#ffffff" height="100" stroke="none" width="50.0" x="0.0" y="0" /><rect fill="#000000" height="100" stroke="none" width="50.0" x="50.0" y="0" /><rect fill="#848884" height="100" stroke="none" width="50.0" x="100.0" y="0" /></g><g transform="translate(54.15982379301434, 29.159823793014343) scale(0.4168035241397131) rotate(0, 50.0, 50.0)"><path d="M 43.9,14.4 C 43.4,13.9 42.9,13.4 42.4,12.9 C 42.199999999999996,12.700000000000001 41.9,12.5 41.699999999999996,12.5 C 40.8,12.6 40.49999999999999,12.0 40.699999999999996,11.3 C 41.099999999999994,9.700000000000001 39.699999999999996,8.700000000000001 39.699999999999996,7.200000000000001 C 39.699999999999996,7.100000000000001 39.3,7.000000000000001 38.99999999999999,7.000000000000001 C 38.99999999999999,6.800000000000001 39.099999999999994,6.6000000000000005 39.199999999999996,6.200000000000001 C 38.8,6.300000000000001 38.599999999999994,6.400000000000001 38.3,6.600000000000001 C 38.3,6.500000000000002 38.199999999999996,6.400000000000001 38.199999999999996,6.300000000000002 C 38.4,5.700000000000002 38.4,5.000000000000002 38.8,4.700000000000001 C 40.0,3.800000000000001 41.3,3.100000000000001 42.699999999999996,2.4000000000000012 C 43.8,1.8000000000000012 44.9,1.4000000000000012 46.099999999999994,0.9000000000000012 C 46.3,0.8000000000000013 46.39999999999999,0.6000000000000012 46.599999999999994,0.5000000000000012 C 46.89999999999999,0.3000000000000012 47.199999999999996,0.20000000000000123 47.49999999999999,0.1000000000000012 C 47.49999999999999,0.2000000000000012 47.599999999999994,0.3000000000000012 47.599999999999994,0.3000000000000012 C 47.49999999999999,0.5000000000000012 47.39999999999999,0.8000000000000012 47.3,1.000000000000001 C 47.9,1.4000000000000012 48.3,2.000000000000001 48.9,2.200000000000001 C 51.6,2.800000000000001 52.199999999999996,4.800000000000001 52.5,7.200000000000001 C 52.6,8.200000000000001 52.5,9.200000000000001 52.4,10.100000000000001 C 52.3,11.200000000000001 52.699999999999996,12.100000000000001 53.4,13.000000000000002 C 53.6,13.200000000000001 53.8,13.400000000000002 54.0,13.500000000000002 C 55.9,14.000000000000002 57.0,15.400000000000002 57.7,17.0 C 59.2,20.3 60.0,23.7 60.1,27.3 C 60.2,30.400000000000002 60.0,33.5 59.300000000000004,36.5 C 59.1,37.2 59.300000000000004,38.1 59.400000000000006,38.9 C 59.7,40.6 60.10000000000001,42.3 60.50000000000001,44.0 C 60.70000000000001,45.2 60.900000000000006,46.5 61.00000000000001,47.7 C 61.00000000000001,48.1 61.20000000000001,48.6 60.400000000000006,48.6 C 60.10000000000001,48.6 59.7,49.2 59.60000000000001,49.5 C 59.20000000000001,51.8 58.70000000000001,54.1 58.60000000000001,56.4 C 58.400000000000006,59.199999999999996 58.60000000000001,62.1 58.50000000000001,64.9 C 58.50000000000001,66.60000000000001 58.50000000000001,68.2 58.50000000000001,69.9 C 58.50000000000001,70.2 58.800000000000004,70.5 59.00000000000001,70.60000000000001 C 60.70000000000001,71.2 61.800000000000004,72.60000000000001 63.10000000000001,73.80000000000001 C 63.900000000000006,74.60000000000001 64.60000000000001,75.50000000000001 65.50000000000001,76.20000000000002 C 67.30000000000001,77.50000000000001 68.40000000000002,79.40000000000002 69.70000000000002,81.10000000000002 C 70.10000000000002,81.70000000000002 70.80000000000001,82.20000000000002 71.30000000000001,82.70000000000002 C 72.4,83.70000000000002 73.4,84.70000000000002 74.50000000000001,85.60000000000002 C 75.10000000000001,86.10000000000002 75.60000000000001,86.60000000000002 76.30000000000001,87.00000000000003 C 77.10000000000001,87.40000000000003 77.30000000000001,88.00000000000003 77.00000000000001,88.70000000000003 C 76.40000000000002,89.90000000000003 76.00000000000001,91.20000000000003 74.30000000000001,91.50000000000003 C 74.00000000000001,91.60000000000002 73.70000000000002,92.20000000000003 73.60000000000001,92.70000000000003 C 73.30000000000001,93.40000000000003 73.30000000000001,94.30000000000003 72.80000000000001,94.90000000000003 C 71.70000000000002,96.20000000000003 70.50000000000001,97.40000000000003 69.30000000000001,98.60000000000004 C 68.9,99.00000000000004 68.4,99.30000000000004 67.9,99.50000000000004 C 67.10000000000001,99.80000000000004 66.30000000000001,100.10000000000004 65.7,99.30000000000004 C 65.10000000000001,98.60000000000004 65.2,97.80000000000004 65.60000000000001,97.00000000000004 C 66.30000000000001,95.60000000000004 67.00000000000001,94.30000000000004 67.7,92.90000000000005 C 66.9,92.30000000000005 66.5,91.80000000000005 67.60000000000001,91.20000000000005 C 67.7,91.10000000000005 67.80000000000001,90.80000000000004 67.80000000000001,90.60000000000005 C 67.70000000000002,87.70000000000005 66.50000000000001,85.50000000000006 64.20000000000002,83.80000000000005 C 60.40000000000002,81.00000000000006 56.600000000000016,78.10000000000005 52.80000000000002,75.30000000000005 C 51.30000000000002,74.20000000000006 50.40000000000002,72.80000000000005 50.20000000000002,71.00000000000006 C 50.000000000000014,68.60000000000005 49.80000000000002,66.10000000000005 49.500000000000014,63.70000000000006 C 49.500000000000014,63.40000000000006 49.40000000000001,63.10000000000006 49.40000000000001,63.10000000000006 C 48.000000000000014,64.90000000000006 46.600000000000016,66.80000000000005 45.100000000000016,68.70000000000006 C 43.80000000000002,70.20000000000006 43.40000000000001,72.10000000000007 43.100000000000016,74.00000000000006 C 42.80000000000002,75.60000000000005 42.30000000000002,77.30000000000005 41.90000000000001,78.90000000000006 C 41.20000000000001,81.40000000000006 40.30000000000001,84.00000000000006 39.600000000000016,86.50000000000006 C 39.000000000000014,88.60000000000005 38.500000000000014,90.70000000000006 37.90000000000001,92.80000000000005 C 37.40000000000001,94.50000000000006 36.600000000000016,94.90000000000005 35.000000000000014,94.20000000000006 C 33.90000000000001,93.70000000000006 32.600000000000016,93.60000000000007 31.800000000000015,92.50000000000006 C 31.600000000000016,92.20000000000006 30.800000000000015,92.30000000000005 30.300000000000015,92.20000000000006 C 28.700000000000014,91.90000000000006 27.100000000000016,91.80000000000005 25.600000000000016,91.40000000000006 C 24.900000000000016,91.20000000000006 24.200000000000017,90.60000000000007 23.600000000000016,90.10000000000007 C 22.600000000000016,89.20000000000006 22.700000000000017,88.00000000000007 23.900000000000016,87.40000000000006 C 24.600000000000016,87.00000000000006 25.500000000000018,86.90000000000006 26.400000000000016,86.90000000000006 C 27.100000000000016,86.90000000000006 27.800000000000015,87.10000000000007 28.600000000000016,87.20000000000006 C 28.900000000000016,86.00000000000006 29.000000000000014,85.90000000000006 30.100000000000016,86.30000000000005 C 31.000000000000014,86.60000000000005 32.000000000000014,86.20000000000006 32.600000000000016,85.30000000000005 C 33.20000000000002,84.50000000000006 33.90000000000001,83.70000000000006 34.500000000000014,82.80000000000005 C 34.80000000000001,82.40000000000005 35.100000000000016,81.90000000000005 35.20000000000002,81.40000000000005 C 35.80000000000002,78.20000000000005 36.500000000000014,75.10000000000005 36.40000000000002,71.80000000000005 C 36.40000000000002,69.10000000000005 37.10000000000002,66.40000000000005 38.30000000000002,63.900000000000055 C 39.80000000000002,60.70000000000005 41.40000000000002,57.60000000000006 43.00000000000002,54.400000000000055 C 43.40000000000002,53.70000000000005 43.90000000000002,53.10000000000006 44.30000000000002,52.400000000000055 C 44.50000000000002,52.00000000000006 44.80000000000002,51.70000000000005 45.100000000000016,51.10000000000006 C 44.20000000000002,51.00000000000006 43.600000000000016,50.900000000000055 43.000000000000014,50.80000000000006 C 42.70000000000002,50.20000000000006 42.30000000000001,49.60000000000006 42.20000000000002,48.90000000000006 C 42.100000000000016,48.40000000000006 42.30000000000002,47.80000000000006 42.30000000000002,47.30000000000006 C 42.40000000000002,47.30000000000006 42.50000000000002,47.30000000000006 42.600000000000016,47.30000000000006 C 42.600000000000016,47.60000000000006 42.600000000000016,47.80000000000006 42.600000000000016,48.10000000000006 C 42.600000000000016,48.10000000000006 42.70000000000002,48.20000000000006 42.70000000000002,48.20000000000006 C 42.80000000000002,48.00000000000006 42.90000000000002,47.70000000000006 43.000000000000014,47.50000000000006 C 43.100000000000016,47.60000000000006 43.20000000000002,47.60000000000006 43.40000000000001,47.70000000000006 C 43.40000000000001,48.20000000000006 43.40000000000001,48.80000000000006 43.30000000000001,49.40000000000006 C 43.500000000000014,49.100000000000065 43.60000000000001,48.80000000000006 43.80000000000001,48.30000000000006 C 44.000000000000014,48.60000000000006 44.10000000000001,48.80000000000006 44.20000000000001,49.000000000000064 C 44.30000000000001,48.90000000000006 44.40000000000001,48.70000000000007 44.60000000000001,48.40000000000006 C 44.70000000000001,48.90000000000006 44.80000000000001,49.30000000000006 44.80000000000001,49.600000000000065 C 44.90000000000001,49.600000000000065 44.90000000000001,49.600000000000065 45.000000000000014,49.600000000000065 C 45.20000000000002,48.80000000000007 45.30000000000001,48.000000000000064 45.500000000000014,47.20000000000007 C 44.80000000000001,47.100000000000065 44.100000000000016,46.90000000000007 43.500000000000014,46.80000000000007 C 42.500000000000014,46.70000000000007 42.20000000000002,46.20000000000007 42.40000000000001,45.20000000000007 C 43.30000000000001,41.000000000000064 44.20000000000001,36.90000000000006 45.100000000000016,32.70000000000007 C 45.70000000000002,29.800000000000068 46.500000000000014,27.000000000000068 46.70000000000002,24.100000000000065 C 46.80000000000002,21.600000000000065 47.80000000000002,19.400000000000066 48.000000000000014,17.000000000000064 C 48.000000000000014,16.800000000000065 48.40000000000001,16.600000000000065 48.40000000000001,16.300000000000065 C 48.70000000000001,15.400000000000064 48.500000000000014,14.700000000000065 47.500000000000014,14.300000000000065 C 46.2,14.9 45.1,16.0 43.9,14.4 C 44.5,14.4 45.0,15.3 45.9,14.700000000000001 C 47.5,13.600000000000001 47.5,13.700000000000001 48.9,15.000000000000002 C 48.9,15.000000000000002 49.0,15.000000000000002 49.199999999999996,15.000000000000002 C 49.199999999999996,14.600000000000001 49.3,14.300000000000002 49.3,13.900000000000002 C 49.3,13.900000000000002 49.4,13.900000000000002 49.4,13.900000000000002 C 49.4,14.600000000000001 49.4,15.200000000000003 49.4,16.1 C 49.5,16.1 49.9,16.3 50.1,16.200000000000003 C 51.300000000000004,15.700000000000003 52.4,15.100000000000003 53.5,14.500000000000004 C 52.5,11.900000000000004 51.5,10.600000000000003 49.5,9.700000000000003 C 48.6,10.500000000000004 48.6,10.500000000000004 48.1,10.000000000000004 C 49.0,9.700000000000003 49.0,9.700000000000003 48.800000000000004,9.000000000000004 C 48.5,9.0 48.2,9.2 48.0,9.2 C 47.9,9.2 47.6,8.799999999999999 47.6,8.7 C 47.800000000000004,7.799999999999999 47.1,7.699999999999999 46.6,7.499999999999999 C 46.0,7.199999999999999 44.6,7.799999999999999 44.5,8.2 C 44.1,9.7 42.9,10.299999999999999 41.3,9.5 C 41.199999999999996,10.1 41.199999999999996,10.6 41.099999999999994,11.2 C 41.099999999999994,11.399999999999999 41.099999999999994,11.6 41.199999999999996,12.0 C 41.8,11.9 42.3,11.7 42.49999999999999,11.7 C 42.89999999999999,12.299999999999999 43.099999999999994,13.0 43.49999999999999,13.1 C 43.99999999999999,13.299999999999999 44.699999999999996,12.9 45.199999999999996,12.9 C 44.8,13.4 44.3,13.9 43.9,14.4 M 73.8,86.0 C 73.1,86.7 72.39999999999999,87.7 71.39999999999999,88.1 C 70.19999999999999,88.6 69.8,89.39999999999999 69.89999999999999,90.6 C 69.89999999999999,91.0 69.89999999999999,91.3 69.89999999999999,91.8 C 69.0,91.8 68.5,92.0 68.1,93.0 C 67.6,94.7 66.6,96.2 65.69999999999999,97.9 C 65.79999999999998,98.0 65.89999999999999,98.10000000000001 65.99999999999999,98.2 C 66.89999999999999,99.4 66.99999999999999,99.60000000000001 68.29999999999998,98.60000000000001 C 69.79999999999998,97.30000000000001 71.19999999999999,95.9 72.59999999999998,94.50000000000001 C 72.89999999999998,94.10000000000001 72.99999999999999,93.40000000000002 72.99999999999999,92.90000000000002 C 73.09999999999998,92.10000000000002 72.69999999999999,92.00000000000001 71.89999999999999,92.10000000000002 C 72.19999999999999,92.50000000000003 72.49999999999999,92.80000000000003 72.69999999999999,93.20000000000002 C 71.49999999999999,93.70000000000002 70.29999999999998,92.50000000000001 70.39999999999999,91.10000000000002 C 70.69999999999999,91.10000000000002 71.1,91.10000000000002 71.49999999999999,91.10000000000002 C 71.39999999999999,90.60000000000002 71.29999999999998,90.20000000000002 71.09999999999998,89.60000000000002 C 72.49999999999999,89.90000000000002 72.49999999999999,91.30000000000003 73.09999999999998,91.70000000000002 C 74.89999999999998,91.60000000000002 75.59999999999998,90.40000000000002 76.29999999999998,89.10000000000002 C 76.59999999999998,88.60000000000002 76.59999999999998,88.10000000000002 76.09999999999998,87.70000000000002 C 75.4,87.1 74.5,86.5 73.8,86.0 M 30.5,89.7 C 31.0,89.3 31.1,89.2 31.3,89.10000000000001 C 31.5,89.00000000000001 31.7,89.00000000000001 31.8,89.10000000000001 C 31.900000000000002,89.2 31.900000000000002,89.50000000000001 31.900000000000002,89.60000000000001 C 31.400000000000002,91.10000000000001 30.1,91.50000000000001 28.700000000000003,90.7 C 29.000000000000004,90.2 29.300000000000004,89.7 29.500000000000004,89.4 C 29.200000000000003,89.0 28.800000000000004,88.7 28.800000000000004,88.30000000000001 C 28.800000000000004,87.50000000000001 28.500000000000004,87.4 27.800000000000004,87.30000000000001 C 27.300000000000004,87.30000000000001 26.800000000000004,87.00000000000001 26.300000000000004,87.10000000000001 C 25.700000000000003,87.10000000000001 24.900000000000006,87.10000000000001 24.600000000000005,87.50000000000001 C 23.500000000000004,88.80000000000001 23.800000000000004,89.90000000000002 25.400000000000006,90.60000000000001 C 26.200000000000006,91.00000000000001 27.100000000000005,91.10000000000001 27.900000000000006,91.30000000000001 C 28.700000000000006,91.4 29.600000000000005,91.4 30.400000000000006,91.50000000000001 C 31.100000000000005,91.60000000000001 32.00000000000001,91.60000000000001 32.300000000000004,92.10000000000001 C 33.2,93.30000000000001 34.6,93.4 35.800000000000004,93.9 C 36.1,94.0 36.6,93.80000000000001 36.800000000000004,93.60000000000001 C 37.800000000000004,92.50000000000001 37.900000000000006,91.00000000000001 38.1,89.50000000000001 C 34.7,90.70000000000002 32.9,88.20000000000002 30.700000000000003,86.60000000000001 C 30.5,87.8 30.5,88.6 30.5,89.7 M 43.1,7.6 C 43.1,7.699999999999999 43.1,7.699999999999999 43.1,7.8 C 44.0,7.6 44.800000000000004,7.3 45.7,7.1 C 46.2,7.0 46.7,6.8 46.5,6.199999999999999 C 46.3,5.6 45.9,5.299999999999999 45.2,5.499999999999999 C 44.0,5.799999999999999 42.800000000000004,5.999999999999999 41.6,6.3999999999999995 C 40.2,6.8999999999999995 39.6,7.199999999999999 40.9,8.6 C 41.4,7.5 42.699999999999996,6.8 44.1,7.1 C 43.7,7.3 43.4,7.5 43.1,7.6 M 58.8,48.3 C 58.9,48.3 58.9,48.3 59.0,48.3 C 59.0,47.9 59.0,47.5 59.0,46.699999999999996 C 59.4,47.199999999999996 59.5,47.49999999999999 59.7,47.599999999999994 C 60.0,47.49999999999999 60.300000000000004,47.3 60.6,47.199999999999996 C 60.2,45.099999999999994 59.300000000000004,44.8 56.9,45.9 C 57.199999999999996,46.9 57.5,47.9 57.8,48.9 C 57.9,48.9 58.0,48.8 58.099999999999994,48.8 C 58.099999999999994,48.199999999999996 58.099999999999994,47.699999999999996 58.099999999999994,47.099999999999994 C 58.199999999999996,47.099999999999994 58.3,47.099999999999994 58.3,47.099999999999994 C 58.5,47.5 58.6,47.9 58.8,48.3 M 68.0,89.3 C 67.9,90.3 68.7,90.2 69.4,90.39999999999999 C 69.5,89.89999999999999 69.60000000000001,89.49999999999999 69.60000000000001,88.99999999999999 C 69.0,89.1 68.6,89.2 68.0,89.3" fill="#935316" stroke="#ffce00" stroke-width="2.0" /></g></svg>