<?xml version="1.0" encoding="utf-8" ?>
<svg baseProfile="full" height="100px" version="1.1" width="150px" xmlns="http://www.w3.org/2000/svg" xmlns:ev="http://www.w3.org/2001/xml-events" xmlns:xlink="http://www.w3.org/1999/xlink"><defs><clipPath id="mask0"><rect height="100" width="150" x="0" y="0" /></clipPath><clipPath id="mask1"><rect height="50.0" width="75.0" x="0" y="0" /></clipPath></defs><g clip-path="url(#mask0)"><rect fill="#339933" height="100" stroke="none" width="150" x="0" y="0" /></g><g clip-path="url(#mask1)"><rect fill="#ff0000" height="16.666666666666668" stroke="none" width="75.0" x="0" y="0.0" /><rect fill="#ffce00" height="16.666666666666668" stroke="none" width="75.0" x="0" y="16.666666666666668" /><rect fill="#0066cc" height="16.666666666666668" stroke="none" width="75.0" x="0" y="33.333333333333336" /></g><g id="empty" /><g transform="translate(90.6641874769451, 28.16418747694511) scale(0.4367162504610978) rotate(0, 50.0, 50.0)"><path d="M 95.2,0.6 C 93.2,-0.30000000000000004 91.10000000000001,0.0 89.4,1.9 C 87.60000000000001,4.0 85.4,4.8 82.7,4.699999999999999 C 75.8,4.6 68.9,4.4 62.0,4.3 C 59.5,4.3 56.9,4.2 54.4,4.5 C 48.0,5.2 43.9,9.6 43.7,15.7 C 43.400000000000006,24.299999999999997 43.800000000000004,32.8 44.6,41.4 C 44.7,42.6 44.9,43.699999999999996 45.0,44.9 C 44.6,45.0 44.3,45.0 44.0,45.0 C 35.8,45.9 27.6,46.2 19.3,46.0 C 16.400000000000002,45.9 16.1,45.7 16.3,42.8 C 16.7,36.099999999999994 17.0,29.4 17.400000000000002,22.699999999999996 C 17.700000000000003,18.199999999999996 17.3,13.799999999999995 16.1,9.499999999999996 C 15.200000000000001,6.299999999999996 13.900000000000002,3.399999999999997 11.3,1.1999999999999957 C 10.700000000000001,0.6999999999999957 9.9,0.19999999999999574 9.100000000000001,-4.218847493575595e-15 C 6.0,-0.6 3.0,1.6 2.4,4.8 C 2.2,6.0 2.2,7.3 3.1,8.2 C 5.7,10.7 6.4,13.799999999999999 6.300000000000001,17.2 C 6.200000000000001,23.299999999999997 5.800000000000001,29.4 5.6000000000000005,35.5 C 5.500000000000001,39.4 5.4,43.2 5.500000000000001,47.1 C 5.6000000000000005,50.0 6.800000000000001,52.6 9.200000000000001,54.4 C 11.400000000000002,56.0 13.900000000000002,56.9 16.6,57.0 C 24.700000000000003,57.3 32.8,57.0 40.900000000000006,56.3 C 42.50000000000001,56.199999999999996 44.10000000000001,56.0 45.800000000000004,55.8 C 45.800000000000004,56.099999999999994 45.900000000000006,56.3 45.900000000000006,56.4 C 46.2,60.5 46.60000000000001,64.7 46.800000000000004,68.8 C 47.00000000000001,72.6 46.900000000000006,76.3 46.800000000000004,80.1 C 46.800000000000004,81.39999999999999 46.300000000000004,82.0 45.1,82.19999999999999 C 44.300000000000004,82.29999999999998 43.5,82.39999999999999 42.800000000000004,82.29999999999998 C 35.50000000000001,81.89999999999998 28.300000000000004,81.29999999999998 21.000000000000004,82.09999999999998 C 14.0,82.9 7.7,85.5 2.6,90.7 C 2.0,91.3 1.5,92.10000000000001 1.3,92.9 C 0.5,95.3 3.0,99.0 5.7,99.6 C 6.5,99.8 7.4,99.8 8.1,99.5 C 9.6,99.0 10.899999999999999,98.0 11.899999999999999,96.8 C 12.2,96.39999999999999 12.499999999999998,96.1 12.899999999999999,95.8 C 15.299999999999999,94.2 18.0,93.0 20.799999999999997,92.89999999999999 C 25.9,92.69999999999999 30.9,92.89999999999999 36.0,92.99999999999999 C 39.6,92.99999999999999 43.1,93.29999999999998 46.7,92.99999999999999 C 51.300000000000004,92.59999999999998 55.0,90.29999999999998 56.7,85.79999999999998 C 57.2,84.39999999999998 57.6,82.99999999999999 57.7,81.49999999999999 C 58.300000000000004,74.29999999999998 57.900000000000006,67.19999999999999 57.400000000000006,59.999999999999986 C 57.300000000000004,58.29999999999998 57.10000000000001,56.499999999999986 56.900000000000006,54.79999999999998 C 57.10000000000001,54.69999999999998 57.10000000000001,54.69999999999998 57.2,54.69999999999998 C 64.9,53.79999999999998 72.7,53.29999999999998 80.5,53.49999999999998 C 81.6,53.49999999999998 82.2,54.09999999999998 82.2,55.299999999999976 C 82.3,56.699999999999974 82.2,57.99999999999998 82.2,59.39999999999998 C 82.0,65.09999999999998 81.8,70.69999999999997 81.8,76.39999999999998 C 81.8,80.59999999999998 82.2,84.79999999999998 83.3,88.89999999999998 C 84.3,92.59999999999998 86.0,95.99999999999997 88.89999999999999,98.59999999999998 C 90.1,99.69999999999997 91.39999999999999,99.99999999999999 92.99999999999999,99.59999999999998 C 94.69999999999999,99.19999999999997 95.89999999999999,98.09999999999998 96.89999999999999,96.79999999999998 C 97.99999999999999,95.49999999999999 98.19999999999999,93.99999999999999 97.3,92.39999999999998 C 96.8,91.59999999999998 96.2,90.79999999999998 95.7,89.89999999999998 C 95.3,89.29999999999998 94.8,88.59999999999998 94.60000000000001,87.99999999999997 C 94.00000000000001,84.99999999999997 93.10000000000001,81.99999999999997 92.9,78.99999999999997 C 92.7,73.99999999999997 92.9,68.89999999999998 92.9,63.89999999999997 C 92.9,59.89999999999997 93.5,55.99999999999997 92.80000000000001,51.99999999999997 C 92.10000000000001,47.99999999999997 90.30000000000001,44.699999999999974 86.20000000000002,43.39999999999997 C 84.80000000000001,42.89999999999997 83.20000000000002,42.59999999999997 81.70000000000002,42.49999999999997 C 74.20000000000002,42.199999999999974 66.70000000000002,42.49999999999997 59.100000000000016,43.199999999999974 C 58.000000000000014,43.299999999999976 56.90000000000001,43.39999999999998 55.80000000000002,43.49999999999997 C 55.70000000000002,43.199999999999974 55.70000000000002,42.99999999999997 55.70000000000002,42.699999999999974 C 55.30000000000002,38.09999999999997 54.80000000000002,33.49999999999997 54.600000000000016,28.899999999999974 C 54.40000000000001,24.899999999999974 54.500000000000014,20.799999999999976 54.500000000000014,16.699999999999974 C 54.500000000000014,15.499999999999975 54.90000000000001,15.099999999999975 56.100000000000016,15.099999999999975 C 56.40000000000001,15.099999999999975 56.80000000000002,15.099999999999975 57.100000000000016,15.099999999999975 C 63.40000000000001,15.299999999999974 69.70000000000002,15.499999999999975 76.00000000000001,15.599999999999975 C 80.50000000000001,15.699999999999974 84.90000000000002,15.699999999999974 89.30000000000001,14.499999999999975 C 93.10000000000001,13.499999999999975 96.10000000000001,11.399999999999975 98.10000000000001,7.999999999999975 C 98.4,7.3999999999999755 98.7,6.699999999999975 98.7,6.099999999999975 C 99.1,4.1 97.6,1.8 95.2,0.6" fill="#ffffff" stroke="none" stroke-width="3.0px" /><path d="M 64.5,28.7 C 64.4,31.5 66.7,33.8 69.5,33.9 C 72.4,34.0 74.7,31.7 74.7,28.799999999999997 C 74.7,26.099999999999998 72.5,23.699999999999996 69.7,23.699999999999996 C 67.0,23.6 64.6,25.9 64.5,28.7" fill="#ffffff" stroke="none" stroke-width="3.0px" /><path d="M 30.9,33.9 C 33.699999999999996,33.9 36.0,31.599999999999998 36.0,28.799999999999997 C 36.0,25.999999999999996 33.7,23.699999999999996 30.8,23.699999999999996 C 28.0,23.699999999999996 25.700000000000003,25.999999999999996 25.700000000000003,28.799999999999997 C 25.8,31.7 28.0,33.9 30.9,33.9" fill="#ffffff" stroke="none" stroke-width="3.0px" /><path d="M 36.0,69.1 C 36.0,66.3 33.7,63.99999999999999 30.9,63.89999999999999 C 28.099999999999998,63.89999999999999 25.799999999999997,66.19999999999999 25.799999999999997,68.99999999999999 C 25.799999999999997,71.89999999999999 27.999999999999996,74.09999999999998 30.9,74.09999999999998 C 33.6,74.2 35.9,71.9 36.0,69.1" fill="#ffffff" stroke="none" stroke-width="3.0px" /><path d="M 69.6,63.9 C 66.8,63.9 64.5,66.3 64.6,69.1 C 64.69999999999999,71.89999999999999 66.89999999999999,74.19999999999999 69.8,74.1 C 72.6,74.1 74.89999999999999,71.8 74.89999999999999,69.0 C 74.8,66.2 72.4,63.9 69.6,63.9" fill="#ffffff" stroke="none" stroke-width="3.0px" /></g></svg>