<?xml version="1.0" encoding="utf-8" ?>
<svg baseProfile="full" height="100px" version="1.1" width="150px" xmlns="http://www.w3.org/2000/svg" xmlns:ev="http://www.w3.org/2001/xml-events" xmlns:xlink="http://www.w3.org/1999/xlink"><defs><clipPath id="mask0"><rect height="100" width="150" x="0" y="0" /></clipPath></defs><g clip-path="url(#mask0)"><rect fill="#000000" height="100" stroke="none" width="150" x="0" y="0" /><path d="M56.68542143008237,0 L93.31457856991763,0 L93.31457856991763,100 L56.68542143008237,100 z" fill="#ffffff" stroke="none" /></g><g transform="translate(8.199263575937724, 8.199263575937724) scale(0.2360147284812455) rotate(0, 50.0, 50.0)"><path d="M 25.1,40.5 C 25.400000000000002,40.7 25.700000000000003,37.4 25.5,35.8 C 25.4,35.099999999999994 25.0,33.4 24.6,32.099999999999994 C 23.3,27.999999999999993 23.3,24.099999999999994 24.700000000000003,22.399999999999995 L 25.200000000000003,21.699999999999996 L 26.200000000000003,22.599999999999994 C 27.1,23.499999999999993 27.200000000000003,23.599999999999994 26.700000000000003,23.999999999999993 C 25.900000000000002,24.799999999999994 26.200000000000003,28.299999999999994 27.200000000000003,31.39999999999999 C 28.000000000000004,33.79999999999999 28.000000000000004,34.099999999999994 28.000000000000004,37.49999999999999 C 28.000000000000004,40.29999999999999 27.800000000000004,41.79999999999999 27.300000000000004,44.599999999999994 C 26.500000000000004,48.599999999999994 26.500000000000004,50.49999999999999 27.400000000000006,52.89999999999999 C 28.200000000000006,54.99999999999999 29.200000000000006,55.69999999999999 32.900000000000006,56.99999999999999 C 37.400000000000006,58.49999999999999 39.900000000000006,60.99999999999999 40.400000000000006,64.5 L 40.60000000000001,65.7 L 41.900000000000006,66.0 C 42.60000000000001,66.1 43.50000000000001,66.3 43.800000000000004,66.4 C 45.2,66.7 56.800000000000004,66.30000000000001 58.2,66.0 L 59.6,65.6 L 59.9,64.1 C 60.6,60.599999999999994 62.8,58.699999999999996 69.0,56.3 C 70.0,55.9 71.1,55.4 71.4,55.099999999999994 C 72.30000000000001,54.49999999999999 73.0,52.699999999999996 73.4,50.39999999999999 C 73.7,48.79999999999999 73.60000000000001,48.29999999999999 73.0,44.69999999999999 C 72.4,41.59999999999999 72.3,40.09999999999999 72.3,37.29999999999999 C 72.3,33.99999999999999 72.3,33.59999999999999 73.1,31.29999999999999 C 73.8,29.29999999999999 73.89999999999999,28.39999999999999 73.89999999999999,26.69999999999999 C 73.89999999999999,25.19999999999999 73.8,24.399999999999988 73.49999999999999,23.99999999999999 C 73.09999999999998,23.49999999999999 73.19999999999999,23.399999999999988 73.99999999999999,22.59999999999999 L 74.89999999999999,21.699999999999992 L 75.49999999999999,22.39999999999999 C 75.79999999999998,22.79999999999999 76.19999999999999,23.699999999999992 76.39999999999999,24.499999999999993 C 76.8,26.299999999999994 76.39999999999999,29.699999999999992 75.49999999999999,32.39999999999999 C 74.79999999999998,34.49999999999999 74.49999999999999,37.19999999999999 74.69999999999999,39.099999999999994 L 74.89999999999999,40.3 L 75.49999999999999,39.599999999999994 C 76.39999999999999,38.49999999999999 78.29999999999998,34.49999999999999 78.79999999999998,32.699999999999996 C 79.29999999999998,30.599999999999994 79.39999999999998,25.499999999999996 78.89999999999998,22.999999999999996 C 77.89999999999998,17.699999999999996 74.29999999999998,12.299999999999997 69.89999999999998,9.299999999999997 C 67.29999999999998,7.499999999999997 61.49999999999998,5.6999999999999975 55.799999999999976,4.899999999999997 C 49.6,3.7 40.3,4.8 34.4,7.0 C 27.799999999999997,9.6 23.099999999999998,14.7 21.299999999999997,21.4 C 20.199999999999996,25.299999999999997 20.699999999999996,31.099999999999998 22.499999999999996,35.7 C 23.2,37.3 24.8,40.3 25.1,40.5 M 55.7,37.0 L 56.7,36.0 L 58.900000000000006,36.2 C 62.10000000000001,36.400000000000006 66.0,37.1 67.30000000000001,37.5 C 69.00000000000001,38.1 70.4,40.1 70.4,42.0 C 70.4,42.8 68.4,47.6 67.60000000000001,48.6 C 67.2,49.1 66.30000000000001,49.9 65.7,50.2 L 65.7,50.2 C 64.4,51.0 62.1,51.2 60.900000000000006,50.7 C 58.900000000000006,49.7 54.7,43.800000000000004 54.300000000000004,41.300000000000004 C 54.1,39.8 54.6,38.2 55.7,37.0 M 50.7,53.4 C 50.7,52.0 50.7,50.8 50.7,49.8 L 50.7,48.099999999999994 C 50.7,48.099999999999994 50.800000000000004,48.099999999999994 50.800000000000004,48.199999999999996 C 50.800000000000004,48.099999999999994 50.800000000000004,47.99999999999999 50.900000000000006,47.99999999999999 C 51.50000000000001,47.99999999999999 53.900000000000006,50.79999999999999 54.7,52.49999999999999 C 55.6,54.29999999999999 55.6,54.49999999999999 55.6,57.199999999999996 C 55.6,59.699999999999996 55.5,60.099999999999994 55.1,60.699999999999996 C 54.800000000000004,61.099999999999994 54.4,61.4 54.1,61.49999999999999 C 53.4,61.599999999999994 52.2,60.79999999999999 51.4,59.699999999999996 L 50.699999999999996,58.8 L 50.699999999999996,53.4 L 50.7,53.4 M 49.3,48.0 C 49.3,48.0 49.4,48.0 49.4,48.1 C 49.4,48.1 49.4,48.1 49.4,48.1 L 49.4,48.4 C 49.5,49.1 49.5,50.8 49.5,53.5 L 49.4,59.0 L 48.6,60.0 C 48.2,60.6 47.5,61.2 47.1,61.4 L 47.1,61.4 C 46.2,61.9 45.800000000000004,61.8 45.300000000000004,61.3 C 44.50000000000001,60.4 44.300000000000004,59.0 44.400000000000006,56.599999999999994 C 44.50000000000001,54.699999999999996 44.7,53.99999999999999 45.400000000000006,52.49999999999999 C 46.3,50.7 48.6,48.0 49.3,48.0 M 31.9,38.1 C 33.0,37.300000000000004 34.9,36.9 39.9,36.4 C 42.3,36.1 43.0,36.1 43.6,36.4 C 45.5,37.199999999999996 46.5,40.5 45.4,42.8 C 44.1,45.699999999999996 40.699999999999996,50.0 39.1,50.699999999999996 C 37.5,51.4 35.6,50.99999999999999 34.0,49.8 C 32.6,48.8 31.9,47.8 30.9,45.3 C 29.4,41.6 29.7,39.6 31.9,38.1" fill="#005da4" stroke="none" stroke-width="3.0" /><path d="M 66.8,61.7 C 67.2,60.400000000000006 67.39999999999999,59.6 67.2,59.6 C 66.3,59.9 64.3,66.4 63.6,71.2 C 63.4,72.9 62.0,74.3 59.6,75.5 C 56.5,77.0 54.800000000000004,77.3 50.1,77.3 C 43.800000000000004,77.3 40.7,76.3 37.7,73.7 L 36.400000000000006,72.5 L 36.00000000000001,70.1 C 35.60000000000001,67.5 34.70000000000001,64.3 33.70000000000001,61.49999999999999 C 32.70000000000001,58.89999999999999 32.20000000000001,58.99999999999999 33.10000000000001,61.599999999999994 C 34.10000000000001,64.5 34.30000000000001,66.19999999999999 34.20000000000001,69.89999999999999 C 34.00000000000001,74.49999999999999 34.80000000000001,77.1 37.20000000000001,79.89999999999999 C 39.30000000000001,82.39999999999999 41.10000000000001,83.3 44.80000000000001,84.1 C 46.80000000000001,84.5 52.500000000000014,84.6 54.500000000000014,84.19999999999999 C 55.30000000000001,83.99999999999999 56.90000000000001,83.6 58.000000000000014,83.19999999999999 C 59.70000000000002,82.6 60.30000000000001,82.1 61.80000000000001,80.6 C 65.00000000000001,77.5 65.9,74.8 65.60000000000001,69.6 C 65.6,66.3 65.8,64.7 66.8,61.7" fill="#005da4" stroke="none" stroke-width="3.0" /><path d="M 21.2,63.0 C 26.799999999999997,65.7 31.5,68.0 31.6,68.0 C 32.0,68.0 31.8,66.0 31.1,63.6 L 30.3,61.1 L 22.0,56.9 C 16.4,54.1 13.3,52.4 12.7,51.699999999999996 C 12.2,51.199999999999996 11.2,49.599999999999994 10.5,48.3 C 8.6,44.8 6.5,43.599999999999994 5.6,45.5 C 5.3999999999999995,45.9 5.199999999999999,47.2 5.1,48.4 C 4.8,51.6 4.8,51.699999999999996 2.6999999999999997,53.699999999999996 C 0.3999999999999999,55.9 -0.40000000000000036,57.199999999999996 0.2999999999999998,57.599999999999994 C 1.2999999999999998,58.3 3.0999999999999996,58.49999999999999 5.3,58.3 C 10.3,57.6 9.9,57.4 21.2,63.0" fill="#005da4" stroke="none" stroke-width="3.0" /><path d="M 92.3,82.3 C 91.8,81.8 91.2,81.7 89.39999999999999,81.7 C 88.19999999999999,81.7 86.39999999999999,81.8 85.49999999999999,82.0 C 83.39999999999999,82.3 83.09999999999998,82.2 74.59999999999998,78.2 C 70.79999999999998,76.4 67.59999999999998,74.9 67.59999999999998,74.9 C 67.49999999999999,74.9 67.49999999999999,75.2 67.49999999999999,75.5 C 67.49999999999999,75.8 67.19999999999999,77.0 66.79999999999998,78.1 C 66.39999999999998,79.19999999999999 66.09999999999998,80.19999999999999 66.19999999999999,80.3 C 66.29999999999998,80.39999999999999 69.19999999999999,82.0 72.79999999999998,83.89999999999999 C 79.89999999999998,87.6 80.69999999999999,88.19999999999999 82.49999999999999,91.8 C 83.19999999999999,93.1 83.99999999999999,94.2 84.79999999999998,94.8 C 85.49999999999999,95.3 86.09999999999998,95.7 86.29999999999998,95.6 C 86.89999999999998,95.39999999999999 87.39999999999998,93.8 87.69999999999999,91.1 L 87.99999999999999,88.3 L 90.49999999999999,85.89999999999999 C 91.89999999999999,84.6 92.99999999999999,83.3 92.99999999999999,83.19999999999999 C 92.9,83.1 92.7,82.7 92.3,82.3" fill="#005da4" stroke="none" stroke-width="3.0" /><path d="M 32.6,75.4 C 32.6,75.10000000000001 32.5,74.80000000000001 32.5,74.80000000000001 C 32.4,74.80000000000001 30.1,75.9 27.4,77.30000000000001 C 19.7,81.10000000000001 18.0,81.80000000000001 15.599999999999998,81.70000000000002 C 14.499999999999998,81.70000000000002 12.499999999999998,81.60000000000002 11.299999999999997,81.50000000000001 C 8.899999999999997,81.30000000000001 7.6999999999999975,81.60000000000001 7.499999999999997,82.60000000000001 C 7.399999999999998,82.9 8.299999999999997,84.10000000000001 9.899999999999997,85.7 L 12.399999999999997,88.3 L 12.799999999999997,91.3 C 12.999999999999996,92.89999999999999 13.299999999999997,94.5 13.499999999999996,94.8 L 13.499999999999996,94.8 C 14.199999999999996,96.1 15.499999999999996,95.0 18.299999999999997,90.8 L 20.499999999999996,87.5 L 27.299999999999997,83.9 C 31.099999999999998,81.9 34.199999999999996,80.30000000000001 34.3,80.2 C 34.4,80.10000000000001 34.099999999999994,79.2 33.599999999999994,78.0 C 33.0,76.9 32.6,75.7 32.6,75.4" fill="#005da4" stroke="none" stroke-width="3.0" /><path d="M 97.7,54.3 C 95.5,51.9 95.2,51.4 95.2,50.5 C 95.2,49.0 94.4,45.4 94.0,44.9 C 93.2,43.9 91.0,45.699999999999996 89.7,48.4 C 87.7,52.4 87.7,52.4 78.3,57.0 L 69.8,61.2 L 69.1,63.2 C 68.69999999999999,64.3 68.3,65.9 68.19999999999999,66.7 L 68.0,68.2 L 69.6,67.5 C 70.5,67.1 75.1,64.9 79.8,62.7 C 84.5,60.5 89.0,58.5 89.7,58.300000000000004 C 90.7,58.00000000000001 91.5,58.00000000000001 93.10000000000001,58.300000000000004 C 95.7,58.7 97.10000000000001,58.800000000000004 98.50000000000001,58.300000000000004 C 100.6,57.8 100.5,57.3 97.7,54.3" fill="#005da4" stroke="none" stroke-width="3.0" /><path d="M 37.9,64.9 C 37.8,63.800000000000004 37.4,62.800000000000004 36.6,61.900000000000006 C 36.300000000000004,61.60000000000001 35.0,60.60000000000001 35.0,60.60000000000001 C 35.0,60.60000000000001 35.1,60.900000000000006 35.2,61.20000000000001 C 35.6,62.30000000000001 36.5,64.9 36.800000000000004,66.10000000000001 C 37.2,67.50000000000001 37.50000000000001,69.10000000000001 37.6,70.60000000000001 C 37.800000000000004,72.00000000000001 37.7,71.9 38.2,72.4 C 38.5,72.80000000000001 38.6,72.80000000000001 38.6,72.7 C 38.6,72.60000000000001 38.6,71.10000000000001 38.6,69.3 L 38.6,66.0 L 38.2,65.8 L 38.0,65.6 L 37.9,64.9" fill="#005da4" stroke="none" stroke-width="3.0" /><path d="M 41.3,68.6 L 41.3,67.0 L 40.599999999999994,66.8 C 40.199999999999996,66.7 39.89999999999999,66.6 39.8,66.6 C 39.699999999999996,66.6 39.699999999999996,66.69999999999999 39.699999999999996,68.0 L 39.699999999999996,69.4 L 40.199999999999996,69.7 C 40.49999999999999,69.8 40.8,70.0 40.99999999999999,70.10000000000001 C 41.199999999999996,70.2 41.29999999999999,70.2 41.29999999999999,70.2 C 41.3,70.2 41.3,69.4 41.3,68.6" fill="#005da4" stroke="none" stroke-width="3.0" /><path d="M 39.7,70.6 C 39.7,70.6 39.7,71.3 39.7,72.1 L 39.7,73.6 L 39.900000000000006,73.69999999999999 C 40.00000000000001,73.79999999999998 40.300000000000004,73.99999999999999 40.60000000000001,74.1 C 40.900000000000006,74.3 41.10000000000001,74.39999999999999 41.20000000000001,74.39999999999999 C 41.20000000000001,74.39999999999999 41.30000000000001,73.69999999999999 41.30000000000001,72.8 L 41.30000000000001,71.2 L 40.60000000000001,70.9 C 40.1,70.7 39.7,70.6 39.7,70.6" fill="#005da4" stroke="none" stroke-width="3.0" /><path d="M 42.9,71.9 C 42.6,71.80000000000001 42.3,71.7 42.3,71.7 C 42.3,71.7 42.199999999999996,72.4 42.199999999999996,73.3 L 42.199999999999996,75.0 L 42.4,75.1 C 42.5,75.1 42.9,75.3 43.199999999999996,75.39999999999999 C 43.49999999999999,75.49999999999999 43.8,75.6 43.8,75.6 C 43.9,75.6 44.0,74.5 44.0,73.3 L 44.0,72.2 L 43.7,72.10000000000001 C 43.6,72.0 43.2,71.9 42.9,71.9" fill="#005da4" stroke="none" stroke-width="3.0" /><path d="M 44.1,67.4 L 43.2,67.30000000000001 C 42.7,67.20000000000002 42.300000000000004,67.20000000000002 42.300000000000004,67.20000000000002 C 42.300000000000004,67.20000000000002 42.2,68.00000000000001 42.2,68.90000000000002 L 42.2,70.60000000000002 L 43.0,70.80000000000003 C 43.4,70.90000000000002 43.8,71.10000000000002 43.9,71.10000000000002 C 44.0,71.10000000000002 44.1,71.10000000000002 44.1,71.10000000000002 C 44.1,71.10000000000002 44.1,70.30000000000003 44.1,69.20000000000002 L 44.1,67.4" fill="#005da4" stroke="none" stroke-width="3.0" /><path d="M 46.5,67.6 C 46.4,67.6 46.1,67.6 45.7,67.6 L 45.1,67.6 L 45.1,69.5 C 45.1,70.9 45.1,71.4 45.2,71.4 C 45.300000000000004,71.4 45.6,71.5 45.900000000000006,71.5 C 46.2,71.5 46.50000000000001,71.6 46.60000000000001,71.6 C 46.70000000000001,71.6 46.70000000000001,71.19999999999999 46.70000000000001,69.69999999999999 C 46.7,67.9 46.6,67.6 46.5,67.6" fill="#005da4" stroke="none" stroke-width="3.0" /><path d="M 45.7,72.4 L 45.1,72.30000000000001 L 45.1,72.80000000000001 C 45.1,73.10000000000001 45.1,73.80000000000001 45.1,74.50000000000001 L 45.1,75.70000000000002 L 45.9,75.80000000000001 C 46.3,75.9 46.699999999999996,75.9 46.699999999999996,75.9 C 46.699999999999996,75.9 46.699999999999996,75.10000000000001 46.699999999999996,74.2 L 46.699999999999996,72.5 L 46.49999999999999,72.5 C 46.4,72.5 46.0,72.5 45.7,72.4" fill="#005da4" stroke="none" stroke-width="3.0" /><path d="M 47.7,72.7 L 47.7,74.4 L 47.7,76.10000000000001 L 48.1,76.10000000000001 C 48.300000000000004,76.10000000000001 48.7,76.10000000000001 49.1,76.10000000000001 L 49.7,76.10000000000001 L 49.7,74.30000000000001 L 49.7,72.50000000000001 L 48.7,72.50000000000001 L 47.7,72.50000000000001 L 47.7,72.7" fill="#005da4" stroke="none" stroke-width="3.0" /><path d="M 52.1,71.5 L 52.4,71.5 L 52.4,69.5 L 52.4,67.5 L 51.5,67.5 L 50.6,67.5 L 50.6,69.5 L 50.6,71.5 L 51.2,71.4 C 51.5,71.6 51.9,71.5 52.1,71.5" fill="#005da4" stroke="none" stroke-width="3.0" /><path d="M 50.6,74.4 C 50.6,75.4 50.6,76.2 50.7,76.2 C 50.7,76.2 51.0,76.2 51.300000000000004,76.2 C 51.6,76.2 52.00000000000001,76.2 52.2,76.2 L 52.5,76.2 L 52.5,75.4 C 52.5,74.9 52.5,74.10000000000001 52.4,73.60000000000001 L 52.3,72.60000000000001 L 51.699999999999996,72.60000000000001 C 51.4,72.60000000000001 50.99999999999999,72.60000000000001 50.8,72.7 L 50.5,72.8 L 50.5,74.4 L 50.6,74.4" fill="#005da4" stroke="none" stroke-width="3.0" /><path d="M 55.0,75.1 C 55.0,75.0 55.0,74.8 55.0,74.69999999999999 C 55.0,74.59999999999998 55.0,74.69999999999999 55.0,74.89999999999999 C 54.9,75.1 54.9,75.2 55.0,75.1" fill="#005da4" stroke="none" stroke-width="3.0" /><path d="M 54.9,69.4 C 54.9,68.4 54.8,67.5 54.8,67.5 C 54.8,67.5 54.5,67.5 54.099999999999994,67.5 L 53.39999999999999,67.6 L 53.39999999999999,69.6 L 53.39999999999999,71.6 L 53.69999999999999,71.6 C 53.89999999999999,71.6 54.19999999999999,71.5 54.499999999999986,71.5 L 54.999999999999986,71.4 L 54.9,69.4" fill="#005da4" stroke="none" stroke-width="3.0" /><path d="M 57.8,69.3 C 57.8,68.6 57.699999999999996,67.8 57.699999999999996,67.6 L 57.699999999999996,67.1 L 56.8,67.19999999999999 L 55.9,67.29999999999998 L 55.9,68.99999999999999 C 55.9,69.89999999999999 55.9,70.79999999999998 55.9,70.89999999999999 C 55.9,71.1 56.0,71.1 56.199999999999996,70.99999999999999 C 56.4,70.99999999999999 56.8,70.89999999999999 57.099999999999994,70.69999999999999 L 57.699999999999996,70.49999999999999 L 57.8,69.3" fill="#005da4" stroke="none" stroke-width="3.0" /><path d="M 57.6,71.7 C 57.5,71.7 57.1,71.8 56.7,71.9 L 55.900000000000006,72.10000000000001 L 55.900000000000006,73.80000000000001 C 55.900000000000006,75.4 55.900000000000006,75.50000000000001 56.00000000000001,75.50000000000001 C 56.10000000000001,75.50000000000001 56.50000000000001,75.40000000000002 56.900000000000006,75.20000000000002 L 57.7,74.90000000000002 L 57.7,73.20000000000002 C 57.8,71.7 57.8,71.7 57.6,71.7" fill="#005da4" stroke="none" stroke-width="3.0" /><path d="M 58.8,72.3 C 58.8,72.89999999999999 58.9,73.6 58.9,73.89999999999999 C 58.9,74.19999999999999 58.9,74.49999999999999 58.9,74.49999999999999 C 59.0,74.49999999999999 59.699999999999996,74.09999999999998 60.1,73.89999999999999 L 60.4,73.69999999999999 L 60.4,72.1 C 60.4,71.19999999999999 60.4,70.5 60.3,70.5 C 60.3,70.5 59.9,70.7 59.4,70.9 L 58.6,71.30000000000001 L 58.8,72.3" fill="#005da4" stroke="none" stroke-width="3.0" /><path d="M 60.3,69.3 L 60.3,67.89999999999999 C 60.3,66.6 60.3,66.49999999999999 60.199999999999996,66.49999999999999 C 60.099999999999994,66.49999999999999 59.8,66.59999999999998 59.4,66.69999999999999 L 58.699999999999996,66.89999999999999 L 58.699999999999996,68.6 L 58.699999999999996,70.3 L 59.199999999999996,70.0 C 59.49999999999999,69.9 59.8,69.7 59.99999999999999,69.6 L 60.3,69.3" fill="#005da4" stroke="none" stroke-width="3.0" /><path d="M 63.7,61.8 C 62.900000000000006,62.599999999999994 62.400000000000006,63.8 62.400000000000006,64.8 C 62.400000000000006,65.39999999999999 62.300000000000004,65.5 61.900000000000006,65.8 L 61.4,66.0 L 61.4,68.4 C 61.4,69.7 61.4,71.2 61.5,71.80000000000001 C 61.5,72.30000000000001 61.6,72.80000000000001 61.6,72.80000000000001 C 61.6,72.80000000000001 61.800000000000004,72.60000000000001 62.0,72.4 C 62.3,72.0 62.3,71.9 62.4,71.10000000000001 C 62.699999999999996,68.30000000000001 63.3,65.9 64.3,63.00000000000001 C 64.7,62.00000000000001 65.0,61.00000000000001 65.0,61.00000000000001 C 65.0,60.7 64.3,61.2 63.7,61.8" fill="#005da4" stroke="none" stroke-width="3.0" /><path d="M 53.6,72.5 C 53.4,72.5 53.4,72.6 53.4,74.3 L 53.4,76.0 L 53.699999999999996,76.0 C 53.9,76.0 54.199999999999996,76.0 54.4,75.9 L 54.8,75.80000000000001 L 54.8,74.00000000000001 L 54.8,72.20000000000002 L 54.3,72.30000000000001 C 54.0,72.4 53.7,72.5 53.6,72.5" fill="#005da4" stroke="none" stroke-width="3.0" /><path d="M 49.6,69.6 L 49.6,67.6 L 48.7,67.6 L 47.7,67.6 L 47.7,69.6 L 47.7,71.6 L 48.7,71.6 L 49.6,71.6 L 49.6,69.6" fill="#005da4" stroke="none" stroke-width="3.0" /></g></svg>