<?xml version="1.0" encoding="utf-8" ?>
<svg baseProfile="full" height="100px" version="1.1" width="150px" xmlns="http://www.w3.org/2000/svg" xmlns:ev="http://www.w3.org/2001/xml-events" xmlns:xlink="http://www.w3.org/1999/xlink"><defs><clipPath id="mask0"><rect height="100" width="150" x="0" y="0" /></clipPath></defs><g clip-path="url(#mask0)"><path d="M0,0 L17.93471242605938,148.92396076587056 L67.78811132845465,133.80871407543322 z" fill="#000000" stroke="none" transform="translate(75.0, 50.0)" /><path d="M0,0 L67.78811132845465,133.80871407543322 L109.46526355866558,102.55416166120165 z" fill="#ffce00" stroke="none" transform="translate(75.0, 50.0)" /><path d="M0,0 L109.46526355866558,102.55416166120165 L137.93928946847063,58.930063812399425 z" fill="#000000" stroke="none" transform="translate(75.0, 50.0)" /><path d="M0,0 L137.93928946847063,58.930063812399425 L149.77580130128086,8.198130552707198 z" fill="#ffce00" stroke="none" transform="translate(75.0, 50.0)" /><path d="M0,0 L149.77580130128086,8.198130552707198 L143.54714104174954,-43.52261824316251 z" fill="#000000" stroke="none" transform="translate(75.0, 50.0)" /><path d="M0,0 L143.54714104174954,-43.52261824316251 L120.00457704241128,-89.99389695347108 z" fill="#ffce00" stroke="none" transform="translate(75.0, 50.0)" /><path d="M0,0 L120.00457704241128,-89.99389695347108 L81.98768997282626,-125.61058352272599 z" fill="#000000" stroke="none" transform="translate(75.0, 50.0)" /><path d="M0,0 L81.98768997282626,-125.61058352272599 L34.08187748308403,-146.07677990436417 z" fill="#ffce00" stroke="none" transform="translate(75.0, 50.0)" /><path d="M0,0 L34.08187748308403,-146.07677990436417 L-17.93471242605933,-148.92396076587056 z" fill="#000000" stroke="none" transform="translate(75.0, 50.0)" /><path d="M0,0 L-17.93471242605933,-148.92396076587056 L-67.7881113284546,-133.80871407543324 z" fill="#ffce00" stroke="none" transform="translate(75.0, 50.0)" /><path d="M0,0 L-67.7881113284546,-133.80871407543324 L-109.46526355866554,-102.55416166120168 z" fill="#000000" stroke="none" transform="translate(75.0, 50.0)" /><path d="M0,0 L-109.46526355866554,-102.55416166120168 L-137.9392894684706,-58.930063812399446 z" fill="#ffce00" stroke="none" transform="translate(75.0, 50.0)" /><path d="M0,0 L-137.9392894684706,-58.930063812399446 L-149.77580130128086,-8.19813055270715 z" fill="#000000" stroke="none" transform="translate(75.0, 50.0)" /><path d="M0,0 L-149.77580130128086,-8.19813055270715 L-143.54714104174954,43.5226182431625 z" fill="#ffce00" stroke="none" transform="translate(75.0, 50.0)" /><path d="M0,0 L-143.54714104174954,43.5226182431625 L-120.00457704241121,89.99389695347118 z" fill="#000000" stroke="none" transform="translate(75.0, 50.0)" /><path d="M0,0 L-120.00457704241121,89.99389695347118 L-81.98768997282623,125.61058352272603 z" fill="#ffce00" stroke="none" transform="translate(75.0, 50.0)" /><path d="M0,0 L-81.98768997282623,125.61058352272603 L-34.08187748308405,146.07677990436417 z" fill="#000000" stroke="none" transform="translate(75.0, 50.0)" /><path d="M0,0 L-34.08187748308405,146.07677990436417 L17.93471242605938,148.92396076587056 z" fill="#ffce00" stroke="none" transform="translate(75.0, 50.0)" /></g><g id="empty" /></svg>