<?xml version="1.0" encoding="utf-8" ?>
<svg baseProfile="full" height="100px" version="1.1" width="150px" xmlns="http://www.w3.org/2000/svg" xmlns:ev="http://www.w3.org/2001/xml-events" xmlns:xlink="http://www.w3.org/1999/xlink"><defs><clipPath id="mask0"><rect height="100" width="150" x="0" y="0" /></clipPath></defs><g clip-path="url(#mask0)"><path d="M0,0 L0.0,300.0 L176.33557568774194,242.70509831248424 z" fill="#0032cc" stroke="none" transform="translate(0, 0)" /><path d="M0,0 L176.33557568774194,242.70509831248424 L285.31695488854604,92.70509831248424 z" fill="#cc0000" stroke="none" transform="translate(0, 0)" /><path d="M0,0 L285.31695488854604,92.70509831248424 L285.3169548885461,-92.7050983124842 z" fill="#0032cc" stroke="none" transform="translate(0, 0)" /><path d="M0,0 L285.3169548885461,-92.7050983124842 L176.33557568774197,-242.7050983124842 z" fill="#cc0000" stroke="none" transform="translate(0, 0)" /><path d="M0,0 L176.33557568774197,-242.7050983124842 L3.6739403974420595e-14,-300.0 z" fill="#0032cc" stroke="none" transform="translate(0, 0)" /><path d="M0,0 L3.6739403974420595e-14,-300.0 L-176.3355756877419,-242.70509831248424 z" fill="#cc0000" stroke="none" transform="translate(0, 0)" /><path d="M0,0 L-176.3355756877419,-242.70509831248424 L-285.31695488854604,-92.70509831248427 z" fill="#0032cc" stroke="none" transform="translate(0, 0)" /><path d="M0,0 L-285.31695488854604,-92.70509831248427 L-285.3169548885461,92.70509831248417 z" fill="#cc0000" stroke="none" transform="translate(0, 0)" /><path d="M0,0 L-285.3169548885461,92.70509831248417 L-176.335575687742,242.7050983124842 z" fill="#0032cc" stroke="none" transform="translate(0, 0)" /><path d="M0,0 L-176.335575687742,242.7050983124842 L-7.347880794884119e-14,300.0 z" fill="#cc0000" stroke="none" transform="translate(0, 0)" /></g><g transform="translate(100.85903431918435, 50.859034319184346) scale(0.38281931361631305) rotate(0, 50.0, 50.0)"><path d="M 35.6,100.0 C 35.2,99.9 34.9,99.8 34.800000000000004,99.8 C 34.6,99.6 34.1,99.39999999999999 33.900000000000006,99.39999999999999 C 33.60000000000001,99.39999999999999 33.10000000000001,98.99999999999999 33.00000000000001,98.6 C 33.00000000000001,98.5 32.900000000000006,97.39999999999999 33.00000000000001,95.6 L 33.00000000000001,92.8 L 33.20000000000001,92.5 C 33.30000000000001,92.2 33.50000000000001,91.6 33.60000000000001,90.7 C 33.70000000000001,90.2 33.80000000000001,89.7 34.00000000000001,89.3 C 34.10000000000001,89.1 34.10000000000001,88.8 34.20000000000001,88.5 C 34.20000000000001,88.2 34.30000000000001,87.9 34.30000000000001,87.8 C 34.30000000000001,87.69999999999999 34.40000000000001,87.3 34.40000000000001,86.89999999999999 C 34.40000000000001,86.19999999999999 34.500000000000014,86.1 34.600000000000016,85.69999999999999 C 34.80000000000002,85.39999999999999 34.80000000000002,85.19999999999999 34.90000000000001,84.69999999999999 C 34.90000000000001,84.39999999999999 35.000000000000014,83.99999999999999 35.000000000000014,83.89999999999999 C 35.000000000000014,83.8 35.100000000000016,83.1 35.100000000000016,82.3 C 35.100000000000016,81.1 35.100000000000016,80.89999999999999 35.20000000000002,80.6 C 35.40000000000002,80.0 35.500000000000014,79.69999999999999 35.500000000000014,79.3 C 35.500000000000014,79.1 35.600000000000016,78.7 35.600000000000016,78.5 C 35.70000000000002,78.3 35.70000000000002,77.7 35.70000000000002,77.1 C 35.70000000000002,76.0 35.80000000000002,75.5 36.000000000000014,75.19999999999999 C 36.100000000000016,74.99999999999999 36.100000000000016,74.69999999999999 36.20000000000002,74.19999999999999 C 36.20000000000002,73.79999999999998 36.30000000000002,73.39999999999999 36.30000000000002,73.39999999999999 C 36.30000000000002,73.39999999999999 36.40000000000002,73.1 36.40000000000002,72.89999999999999 C 36.40000000000002,72.6 36.50000000000002,72.3 36.70000000000002,71.99999999999999 L 36.90000000000002,71.49999999999999 L 36.90000000000002,70.69999999999999 C 36.90000000000002,69.99999999999999 36.90000000000002,69.89999999999999 36.70000000000002,69.6 C 36.600000000000016,69.39999999999999 36.40000000000002,69.1 36.40000000000002,69.0 C 36.20000000000002,68.6 36.00000000000002,68.2 35.70000000000002,67.9 C 35.40000000000002,67.60000000000001 35.20000000000002,67.2 35.000000000000014,66.60000000000001 C 34.90000000000001,66.4 34.80000000000001,66.10000000000001 34.600000000000016,65.9 C 34.500000000000014,65.7 34.40000000000001,65.60000000000001 34.40000000000001,65.5 C 34.40000000000001,65.39999999999999 34.30000000000001,65.3 34.20000000000001,65.2 C 34.10000000000001,65.10000000000001 33.90000000000001,64.9 33.90000000000001,64.9 C 33.600000000000016,64.30000000000001 33.20000000000001,63.7 33.100000000000016,63.50000000000001 C 33.100000000000016,63.50000000000001 33.000000000000014,63.300000000000004 32.90000000000001,63.10000000000001 C 32.80000000000001,62.900000000000006 32.500000000000014,62.400000000000006 32.100000000000016,62.00000000000001 C 31.700000000000017,61.60000000000001 31.500000000000014,61.300000000000004 31.500000000000014,61.20000000000001 C 31.500000000000014,61.20000000000001 31.400000000000013,61.00000000000001 31.300000000000015,60.90000000000001 C 31.200000000000014,60.80000000000001 31.000000000000014,60.500000000000014 30.900000000000016,60.30000000000001 C 30.800000000000015,60.10000000000001 30.700000000000017,59.80000000000001 30.600000000000016,59.80000000000001 C 30.500000000000014,59.70000000000001 30.500000000000014,59.60000000000001 30.500000000000014,59.60000000000001 C 30.500000000000014,59.60000000000001 30.400000000000013,59.400000000000006 30.300000000000015,59.30000000000001 C 30.100000000000016,59.10000000000001 29.600000000000016,58.20000000000001 29.400000000000016,57.70000000000001 C 29.200000000000017,57.30000000000001 29.200000000000017,57.00000000000001 29.300000000000015,56.80000000000001 C 29.400000000000016,56.70000000000001 29.400000000000016,56.500000000000014 29.400000000000016,56.30000000000001 C 29.400000000000016,55.90000000000001 29.300000000000015,55.80000000000001 28.600000000000016,55.80000000000001 C 28.200000000000017,55.80000000000001 28.000000000000014,55.70000000000001 27.600000000000016,55.500000000000014 C 27.300000000000015,55.40000000000001 27.100000000000016,55.30000000000001 27.000000000000014,55.30000000000001 C 26.800000000000015,55.30000000000001 26.400000000000013,54.80000000000001 26.100000000000016,54.20000000000001 C 25.900000000000016,53.90000000000001 25.800000000000015,53.60000000000001 25.800000000000015,53.50000000000001 C 25.800000000000015,53.50000000000001 25.700000000000014,53.400000000000006 25.600000000000016,53.300000000000004 C 25.500000000000014,53.2 25.300000000000015,52.900000000000006 25.200000000000017,52.7 C 25.000000000000018,52.2 24.700000000000017,51.800000000000004 24.500000000000018,51.7 C 24.400000000000016,51.6 24.10000000000002,51.1 23.900000000000016,50.6 C 23.800000000000015,50.4 23.700000000000017,50.2 23.600000000000016,50.1 C 23.400000000000016,49.9 23.300000000000015,49.7 23.200000000000017,49.300000000000004 C 23.100000000000016,49.1 23.000000000000018,48.900000000000006 22.900000000000016,48.7 C 22.800000000000015,48.6 22.600000000000016,48.300000000000004 22.600000000000016,48.0 C 22.400000000000016,47.3 22.200000000000017,47.1 21.700000000000017,46.9 C 20.80000000000002,46.6 20.500000000000018,46.1 20.400000000000016,45.199999999999996 C 20.300000000000015,44.49999999999999 20.000000000000018,44.099999999999994 19.400000000000016,43.99999999999999 C 19.000000000000018,43.89999999999999 18.800000000000015,43.699999999999996 18.500000000000018,43.39999999999999 C 18.200000000000017,43.099999999999994 17.60000000000002,42.19999999999999 17.60000000000002,42.099999999999994 C 17.60000000000002,42.099999999999994 17.500000000000018,41.89999999999999 17.30000000000002,41.699999999999996 C 17.10000000000002,41.49999999999999 16.90000000000002,41.099999999999994 16.80000000000002,40.9 C 16.700000000000017,40.699999999999996 16.500000000000018,40.4 16.40000000000002,40.4 C 16.30000000000002,40.3 16.10000000000002,40.1 16.00000000000002,39.9 C 15.800000000000022,39.699999999999996 15.70000000000002,39.4 15.600000000000021,39.4 C 15.500000000000021,39.4 15.500000000000021,39.3 15.500000000000021,39.3 C 15.500000000000021,39.3 15.400000000000022,39.099999999999994 15.300000000000022,39.0 C 14.800000000000022,38.4 14.800000000000022,37.6 15.300000000000022,37.1 C 15.400000000000022,37.0 15.500000000000021,36.9 15.500000000000021,36.800000000000004 C 15.500000000000021,36.70000000000001 15.600000000000021,36.6 15.800000000000022,36.400000000000006 C 16.00000000000002,36.2 16.100000000000023,36.10000000000001 16.100000000000023,36.00000000000001 C 16.100000000000023,35.900000000000006 16.200000000000024,35.800000000000004 16.300000000000022,35.60000000000001 C 16.40000000000002,35.40000000000001 16.600000000000023,35.00000000000001 16.600000000000023,34.80000000000001 C 16.800000000000022,34.30000000000001 17.00000000000002,33.90000000000001 17.700000000000024,33.20000000000001 C 18.100000000000023,32.80000000000001 18.400000000000023,32.50000000000001 18.400000000000023,32.40000000000001 C 18.500000000000025,32.30000000000001 18.500000000000025,32.20000000000001 18.400000000000023,32.000000000000014 C 18.300000000000022,31.200000000000014 18.300000000000022,31.000000000000014 18.600000000000023,30.400000000000013 C 18.800000000000022,30.100000000000012 19.00000000000002,29.700000000000014 19.200000000000024,29.500000000000014 C 19.400000000000023,29.300000000000015 19.500000000000025,29.200000000000014 19.500000000000025,29.200000000000014 C 19.500000000000025,29.200000000000014 19.600000000000026,29.000000000000014 19.800000000000026,28.900000000000013 C 19.900000000000027,28.80000000000001 20.100000000000026,28.600000000000012 20.100000000000026,28.600000000000012 C 20.100000000000026,28.600000000000012 20.200000000000028,28.50000000000001 20.200000000000028,28.400000000000013 C 20.30000000000003,28.30000000000001 20.400000000000027,28.100000000000012 20.50000000000003,27.900000000000013 C 20.60000000000003,27.700000000000014 20.80000000000003,27.30000000000001 20.900000000000027,27.100000000000012 C 21.200000000000028,26.80000000000001 21.600000000000026,26.30000000000001 21.700000000000028,26.30000000000001 C 21.80000000000003,26.30000000000001 22.100000000000026,25.900000000000013 22.200000000000028,25.600000000000012 C 22.400000000000027,25.100000000000012 22.700000000000028,24.700000000000014 23.100000000000026,24.30000000000001 C 23.600000000000026,23.80000000000001 23.700000000000028,23.600000000000012 23.900000000000027,23.100000000000012 C 24.00000000000003,22.600000000000012 24.200000000000028,22.200000000000014 24.400000000000027,22.100000000000012 C 24.600000000000026,21.900000000000013 25.00000000000003,21.50000000000001 25.100000000000026,21.200000000000014 C 25.300000000000026,20.800000000000015 25.300000000000026,20.700000000000014 25.500000000000025,20.500000000000014 C 25.600000000000026,20.400000000000013 25.700000000000024,20.100000000000016 25.800000000000026,20.000000000000014 C 25.900000000000027,19.600000000000016 26.200000000000024,19.200000000000014 26.500000000000025,18.800000000000015 C 26.600000000000026,18.700000000000014 26.700000000000024,18.500000000000014 26.700000000000024,18.500000000000014 C 26.700000000000024,18.400000000000013 27.100000000000023,18.000000000000014 27.500000000000025,17.600000000000016 C 27.600000000000026,17.500000000000014 27.700000000000024,17.400000000000016 27.700000000000024,17.300000000000015 C 27.700000000000024,17.200000000000014 28.000000000000025,16.600000000000016 28.100000000000023,16.500000000000014 C 28.100000000000023,16.400000000000013 28.300000000000022,16.300000000000015 28.400000000000023,16.100000000000016 C 28.500000000000025,15.900000000000016 28.700000000000024,15.800000000000015 28.700000000000024,15.700000000000015 C 28.700000000000024,15.600000000000016 29.800000000000026,14.500000000000016 29.900000000000023,14.500000000000016 C 29.900000000000023,14.500000000000016 30.100000000000023,14.400000000000016 30.200000000000024,14.300000000000017 C 30.600000000000023,13.900000000000016 31.100000000000023,13.700000000000017 31.400000000000023,13.800000000000017 C 31.600000000000023,13.800000000000017 31.800000000000022,13.900000000000016 31.900000000000023,13.900000000000016 C 32.10000000000002,14.000000000000016 32.300000000000026,14.100000000000016 33.40000000000002,14.300000000000017 C 34.00000000000002,14.500000000000016 34.40000000000002,14.600000000000017 34.60000000000002,14.700000000000017 C 34.800000000000026,14.800000000000017 35.00000000000002,14.900000000000016 35.10000000000002,14.900000000000016 C 35.300000000000026,15.000000000000016 35.800000000000026,15.200000000000017 35.90000000000002,15.300000000000017 C 36.00000000000002,15.400000000000016 36.60000000000002,15.600000000000017 36.90000000000002,15.700000000000017 C 37.10000000000002,15.700000000000017 37.40000000000002,15.800000000000017 37.50000000000002,15.900000000000016 C 37.90000000000002,16.100000000000016 38.40000000000002,16.300000000000015 38.700000000000024,16.500000000000018 C 38.800000000000026,16.60000000000002 39.10000000000002,16.700000000000017 39.200000000000024,16.80000000000002 C 40.00000000000002,17.40000000000002 40.200000000000024,17.500000000000018 40.700000000000024,17.500000000000018 C 41.00000000000002,17.500000000000018 41.300000000000026,17.60000000000002 41.50000000000002,17.60000000000002 C 41.70000000000002,17.60000000000002 42.10000000000002,17.70000000000002 42.30000000000002,17.70000000000002 C 42.70000000000002,17.70000000000002 42.80000000000002,17.70000000000002 43.100000000000016,17.90000000000002 C 43.30000000000002,18.00000000000002 43.40000000000001,18.20000000000002 43.500000000000014,18.20000000000002 C 43.600000000000016,18.300000000000022 43.70000000000002,18.40000000000002 43.80000000000001,18.40000000000002 C 43.900000000000006,18.40000000000002 44.10000000000001,18.50000000000002 44.30000000000001,18.70000000000002 C 44.500000000000014,18.90000000000002 44.9,19.0 45.0,19.0 C 45.2,19.0 45.4,19.1 46.2,19.5 C 46.5,19.6 47.0,19.8 47.300000000000004,19.9 C 47.6,20.0 47.900000000000006,20.099999999999998 48.00000000000001,20.2 C 48.10000000000001,20.3 48.400000000000006,20.4 48.70000000000001,20.4 C 49.60000000000001,20.599999999999998 49.60000000000001,20.599999999999998 50.00000000000001,20.9 C 50.20000000000001,21.0 50.400000000000006,21.099999999999998 50.400000000000006,21.099999999999998 C 50.400000000000006,21.099999999999998 50.60000000000001,21.2 50.800000000000004,21.4 C 51.00000000000001,21.5 51.2,21.7 51.2,21.7 C 51.300000000000004,21.7 51.300000000000004,21.7 51.400000000000006,21.8 C 51.400000000000006,21.8 51.7,21.900000000000002 51.900000000000006,21.900000000000002 C 52.300000000000004,22.000000000000004 52.400000000000006,22.000000000000004 52.7,22.200000000000003 C 52.900000000000006,22.300000000000004 53.2,22.500000000000004 53.400000000000006,22.700000000000003 C 53.60000000000001,22.900000000000002 53.900000000000006,23.000000000000004 53.900000000000006,23.1 C 53.900000000000006,23.200000000000003 54.00000000000001,23.200000000000003 54.00000000000001,23.200000000000003 C 54.10000000000001,23.200000000000003 54.800000000000004,23.800000000000004 54.900000000000006,23.900000000000002 C 55.00000000000001,24.1 55.00000000000001,25.6 54.900000000000006,26.000000000000004 C 54.900000000000006,26.200000000000003 54.7,26.500000000000004 54.60000000000001,26.600000000000005 C 54.400000000000006,26.900000000000006 54.400000000000006,27.000000000000004 54.400000000000006,27.700000000000006 C 54.300000000000004,28.400000000000006 54.300000000000004,28.900000000000006 54.00000000000001,29.500000000000007 C 53.900000000000006,29.700000000000006 53.60000000000001,30.300000000000008 53.60000000000001,30.400000000000006 C 53.30000000000001,30.800000000000004 53.20000000000001,30.900000000000006 53.10000000000001,30.900000000000006 C 53.00000000000001,30.900000000000006 53.00000000000001,30.900000000000006 53.00000000000001,31.000000000000007 C 52.900000000000006,31.10000000000001 52.300000000000004,31.400000000000006 51.900000000000006,31.500000000000007 C 51.50000000000001,31.60000000000001 50.900000000000006,31.800000000000008 50.900000000000006,31.900000000000006 C 50.900000000000006,31.900000000000006 50.900000000000006,32.00000000000001 50.800000000000004,32.00000000000001 C 50.800000000000004,32.00000000000001 50.6,32.10000000000001 50.50000000000001,32.10000000000001 C 50.1,32.0 50.0,32.0 48.9,32.0 C 47.4,32.0 47.1,32.0 46.6,32.4 C 46.2,32.699999999999996 45.7,32.8 45.6,32.8 C 45.5,32.8 45.4,32.9 45.300000000000004,33.0 C 45.2,33.1 45.00000000000001,33.2 44.900000000000006,33.3 C 44.800000000000004,33.39999999999999 44.2,33.3 43.50000000000001,33.3 C 42.00000000000001,33.3 42.10000000000001,33.3 41.70000000000001,32.699999999999996 C 41.20000000000001,31.999999999999996 41.10000000000001,31.899999999999995 40.70000000000001,31.599999999999994 C 40.50000000000001,31.499999999999993 40.20000000000001,31.299999999999994 40.20000000000001,31.199999999999996 C 40.10000000000001,31.099999999999994 40.10000000000001,31.099999999999994 40.00000000000001,31.099999999999994 C 39.900000000000006,31.099999999999994 39.00000000000001,30.099999999999994 38.70000000000001,29.699999999999996 C 38.60000000000001,29.599999999999994 38.40000000000001,29.399999999999995 38.20000000000001,29.299999999999997 C 37.80000000000001,29.099999999999998 37.30000000000001,28.599999999999998 37.20000000000001,28.299999999999997 C 37.10000000000001,28.099999999999998 36.40000000000001,27.599999999999998 36.30000000000001,27.599999999999998 C 36.30000000000001,27.599999999999998 36.20000000000001,27.599999999999998 36.20000000000001,27.499999999999996 C 36.20000000000001,27.499999999999996 36.10000000000001,27.399999999999995 36.00000000000001,27.299999999999997 C 35.900000000000006,27.199999999999996 35.800000000000004,27.199999999999996 35.800000000000004,27.299999999999997 C 35.6,27.499999999999996 35.800000000000004,28.499999999999996 36.00000000000001,28.9 C 36.20000000000001,29.2 36.20000000000001,29.299999999999997 36.20000000000001,29.9 C 36.20000000000001,30.299999999999997 36.20000000000001,30.799999999999997 36.20000000000001,31.0 C 36.20000000000001,31.4 36.10000000000001,31.5 35.90000000000001,31.8 C 35.80000000000001,32.0 35.600000000000016,32.3 35.500000000000014,32.4 C 35.40000000000001,32.5 35.40000000000001,32.699999999999996 35.30000000000001,32.699999999999996 C 35.20000000000001,32.699999999999996 35.20000000000001,32.8 35.10000000000001,32.9 C 35.00000000000001,33.0 34.80000000000001,33.4 34.50000000000001,33.8 C 34.20000000000001,34.099999999999994 34.00000000000001,34.5 34.00000000000001,34.5 C 34.00000000000001,34.6 33.900000000000006,34.7 33.70000000000001,34.9 C 33.50000000000001,35.1 33.40000000000001,35.199999999999996 33.10000000000001,35.3 C 32.900000000000006,35.4 32.60000000000001,35.4 32.400000000000006,35.4 C 32.10000000000001,35.4 31.800000000000004,35.5 31.800000000000004,35.699999999999996 C 31.800000000000004,35.8 32.00000000000001,35.99999999999999 32.2,36.099999999999994 C 32.6,36.3 33.300000000000004,36.49999999999999 34.1,36.49999999999999 C 34.5,36.49999999999999 35.0,36.599999999999994 35.1,36.699999999999996 C 35.2,36.8 35.300000000000004,36.8 35.4,36.8 C 35.49999999999999,36.8 35.5,36.8 35.6,36.9 C 35.6,36.9 35.800000000000004,37.1 36.0,37.199999999999996 C 36.2,37.3 36.4,37.49999999999999 36.6,37.599999999999994 C 36.800000000000004,37.699999999999996 37.0,37.8 37.1,37.89999999999999 C 37.4,37.99999999999999 37.6,38.099999999999994 37.800000000000004,38.19999999999999 C 38.00000000000001,38.39999999999999 38.50000000000001,38.59999999999999 38.900000000000006,38.69999999999999 C 39.10000000000001,38.69999999999999 39.300000000000004,38.79999999999999 39.400000000000006,38.79999999999999 C 39.50000000000001,38.79999999999999 39.800000000000004,38.99999999999999 40.00000000000001,39.09999999999999 C 40.400000000000006,39.29999999999999 40.50000000000001,39.29999999999999 41.00000000000001,39.399999999999984 C 41.400000000000006,39.399999999999984 41.70000000000001,39.499999999999986 41.900000000000006,39.59999999999999 C 42.300000000000004,39.79999999999999 43.2,40.79999999999999 43.400000000000006,41.09999999999999 C 43.50000000000001,41.19999999999999 43.60000000000001,41.399999999999984 43.7,41.499999999999986 C 43.800000000000004,41.59999999999999 43.800000000000004,41.69999999999999 43.800000000000004,41.69999999999999 C 43.800000000000004,41.69999999999999 44.00000000000001,41.89999999999999 44.2,42.09999999999999 C 44.6,42.499999999999986 44.900000000000006,42.999999999999986 44.900000000000006,43.19999999999999 C 44.900000000000006,43.29999999999999 45.00000000000001,43.499999999999986 45.2,43.69999999999999 C 45.300000000000004,43.89999999999999 45.5,44.09999999999999 45.5,44.09999999999999 C 45.5,44.09999999999999 45.7,44.399999999999984 46.0,44.69999999999999 C 46.3,44.999999999999986 46.5,45.29999999999999 46.5,45.29999999999999 C 46.5,45.29999999999999 46.8,45.79999999999999 46.9,45.99999999999999 C 46.9,45.99999999999999 47.0,46.099999999999994 47.0,46.099999999999994 C 47.0,46.099999999999994 47.1,46.199999999999996 47.2,46.39999999999999 C 47.400000000000006,46.599999999999994 47.400000000000006,46.69999999999999 47.5,46.99999999999999 C 47.6,47.39999999999999 47.8,47.699999999999996 48.2,47.89999999999999 C 48.5,48.099999999999994 48.800000000000004,48.49999999999999 48.900000000000006,48.89999999999999 C 49.00000000000001,49.19999999999999 49.10000000000001,49.29999999999999 49.7,49.99999999999999 C 50.1,50.39999999999999 50.400000000000006,50.79999999999999 50.400000000000006,50.79999999999999 C 50.400000000000006,50.79999999999999 50.50000000000001,50.89999999999999 50.60000000000001,51.09999999999999 C 50.70000000000001,51.19999999999999 50.80000000000001,51.499999999999986 50.900000000000006,51.69999999999999 C 51.00000000000001,52.09999999999999 51.10000000000001,52.29999999999999 51.60000000000001,52.79999999999999 C 51.80000000000001,52.99999999999999 52.10000000000001,53.39999999999999 52.20000000000001,53.69999999999999 C 52.40000000000001,53.999999999999986 52.60000000000001,54.39999999999999 52.70000000000001,54.59999999999999 C 52.80000000000001,54.79999999999999 52.90000000000001,54.999999999999986 52.90000000000001,54.999999999999986 C 52.90000000000001,54.999999999999986 53.100000000000016,55.29999999999998 53.40000000000001,55.59999999999999 C 54.000000000000014,56.19999999999999 54.40000000000001,56.79999999999999 54.40000000000001,56.999999999999986 C 54.40000000000001,57.09999999999999 54.500000000000014,57.19999999999999 54.500000000000014,57.19999999999999 C 54.600000000000016,57.29999999999999 54.70000000000002,57.39999999999999 54.70000000000002,57.499999999999986 C 54.80000000000002,57.59999999999999 55.100000000000016,57.999999999999986 55.30000000000002,58.29999999999998 C 55.80000000000002,58.79999999999998 56.00000000000002,59.09999999999998 56.30000000000002,60.19999999999998 C 56.40000000000002,60.399999999999984 56.50000000000002,60.69999999999998 56.80000000000002,60.99999999999998 C 57.100000000000016,61.39999999999998 57.30000000000002,61.49999999999998 57.40000000000002,61.89999999999998 C 57.50000000000002,62.09999999999998 57.60000000000002,62.39999999999998 57.60000000000002,62.39999999999998 C 57.800000000000026,62.59999999999998 58.00000000000002,63.09999999999998 58.00000000000002,63.299999999999976 C 58.00000000000002,63.59999999999997 57.700000000000024,64.09999999999998 57.40000000000002,64.39999999999998 C 56.90000000000002,64.79999999999998 56.80000000000002,64.89999999999998 56.70000000000002,64.89999999999998 C 56.600000000000016,64.89999999999998 55.90000000000002,65.19999999999997 55.80000000000002,65.29999999999998 C 55.80000000000002,65.29999999999998 55.70000000000002,65.39999999999998 55.70000000000002,65.39999999999998 C 55.70000000000002,65.39999999999998 55.500000000000014,65.49999999999997 55.40000000000002,65.69999999999997 C 55.10000000000002,66.09999999999998 54.80000000000002,66.29999999999997 54.60000000000002,66.39999999999998 C 54.50000000000002,66.39999999999998 54.300000000000026,66.59999999999998 54.10000000000002,66.69999999999997 C 53.90000000000002,66.79999999999997 53.700000000000024,66.89999999999998 53.700000000000024,66.89999999999998 C 53.700000000000024,66.89999999999998 53.50000000000002,66.99999999999997 53.40000000000003,67.09999999999998 C 52.90000000000003,67.49999999999999 52.40000000000003,67.79999999999998 51.800000000000026,67.89999999999998 C 51.300000000000026,67.99999999999997 51.00000000000003,68.09999999999998 50.90000000000003,68.29999999999998 C 50.800000000000026,68.39999999999998 50.800000000000026,68.39999999999998 51.700000000000024,68.59999999999998 C 52.60000000000002,68.79999999999998 54.00000000000002,68.79999999999998 54.60000000000002,68.69999999999997 C 54.800000000000026,68.59999999999998 55.10000000000002,68.59999999999998 55.40000000000002,68.59999999999998 C 55.80000000000002,68.59999999999998 55.80000000000002,68.59999999999998 56.10000000000002,68.79999999999998 L 56.40000000000002,68.99999999999999 L 56.40000000000002,70.09999999999998 C 56.40000000000002,71.19999999999997 56.50000000000002,71.19999999999997 56.60000000000002,71.59999999999998 C 56.800000000000026,71.99999999999999 56.90000000000002,72.59999999999998 57.00000000000002,74.29999999999998 C 57.00000000000002,74.69999999999999 57.10000000000002,74.99999999999999 57.200000000000024,75.19999999999999 C 57.40000000000003,75.49999999999999 57.40000000000003,75.6 57.40000000000003,77.1 C 57.40000000000003,78.19999999999999 57.50000000000003,78.69999999999999 57.50000000000003,79.0 C 57.60000000000003,79.2 57.60000000000003,79.6 57.60000000000003,80.2 C 57.60000000000003,80.60000000000001 57.60000000000003,81.3 57.70000000000003,81.7 C 57.70000000000003,82.10000000000001 57.80000000000003,82.7 57.80000000000003,83.0 C 57.80000000000003,83.5 57.80000000000003,83.6 58.000000000000036,84.0 L 58.20000000000004,84.4 L 58.20000000000004,86.60000000000001 C 58.20000000000004,88.2 58.20000000000004,88.9 58.30000000000004,89.10000000000001 C 58.30000000000004,89.2 58.40000000000004,89.60000000000001 58.40000000000004,89.80000000000001 C 58.40000000000004,90.70000000000002 58.70000000000004,91.00000000000001 59.00000000000004,90.50000000000001 C 59.100000000000044,90.40000000000002 59.100000000000044,90.10000000000001 59.100000000000044,89.10000000000001 C 59.100000000000044,87.80000000000001 59.100000000000044,87.50000000000001 58.700000000000045,86.80000000000001 C 58.600000000000044,86.50000000000001 58.600000000000044,86.50000000000001 58.600000000000044,85.50000000000001 C 58.600000000000044,85.00000000000001 58.600000000000044,81.50000000000001 58.700000000000045,77.80000000000001 L 58.80000000000005,71.10000000000001 L 58.90000000000005,70.80000000000001 C 59.10000000000005,70.50000000000001 59.40000000000005,70.30000000000001 60.00000000000005,70.10000000000001 C 60.50000000000005,69.9 61.10000000000005,69.7 61.10000000000005,69.7 C 61.10000000000005,69.7 61.20000000000005,69.60000000000001 61.300000000000054,69.60000000000001 C 61.400000000000055,69.60000000000001 61.60000000000005,69.4 61.70000000000005,69.30000000000001 C 62.300000000000054,68.80000000000001 62.50000000000005,68.60000000000001 62.50000000000005,68.4 C 62.50000000000005,68.2 62.20000000000005,68.0 61.90000000000005,67.9 C 61.30000000000005,67.7 60.90000000000005,67.4 60.10000000000005,66.5 C 59.60000000000005,65.9 59.50000000000005,65.9 59.50000000000005,65.5 C 59.40000000000005,64.6 59.10000000000005,63.6 58.80000000000005,63.0 C 58.600000000000044,62.7 58.50000000000005,62.4 58.50000000000005,62.3 C 58.50000000000005,62.3 58.40000000000005,62.099999999999994 58.30000000000005,61.8 C 58.100000000000044,61.5 58.100000000000044,61.3 58.00000000000005,61.0 C 58.00000000000005,60.6 57.90000000000005,60.5 57.70000000000005,60.1 C 57.50000000000005,59.9 57.400000000000055,59.6 57.400000000000055,59.0 C 57.400000000000055,58.8 57.20000000000005,58.5 57.10000000000006,58.1 C 56.80000000000006,57.5 56.70000000000006,57.300000000000004 56.60000000000006,56.800000000000004 C 56.60000000000006,56.7 56.400000000000055,56.400000000000006 56.30000000000006,56.2 C 56.1,56.3 56.0,56.1 56.0,56.0 C 56.0,55.9 55.9,55.7 55.8,55.5 C 55.699999999999996,55.3 55.5,55.0 55.5,54.9 C 55.5,54.8 55.4,54.5 55.3,54.3 C 55.199999999999996,53.9 55.0,53.4 54.8,53.199999999999996 C 54.699999999999996,53.199999999999996 54.599999999999994,52.9 54.4,52.699999999999996 C 54.199999999999996,52.4 53.9,51.99999999999999 53.0,51.099999999999994 C 52.4,50.49999999999999 51.8,49.89999999999999 51.8,49.89999999999999 C 51.8,49.69999999999999 51.4,49.19999999999999 50.9,48.89999999999999 C 50.6,48.69999999999999 50.4,48.49999999999999 50.3,48.39999999999999 C 50.199999999999996,48.19999999999999 49.9,47.79999999999999 49.8,47.599999999999994 C 49.8,47.599999999999994 49.699999999999996,47.49999999999999 49.699999999999996,47.39999999999999 C 49.699999999999996,47.39999999999999 49.49999999999999,47.099999999999994 49.3,46.89999999999999 C 49.099999999999994,46.599999999999994 48.699999999999996,46.29999999999999 48.599999999999994,46.19999999999999 C 48.49999999999999,46.09999999999999 48.3,45.79999999999999 48.199999999999996,45.59999999999999 C 48.099999999999994,45.399999999999984 47.99999999999999,45.19999999999999 47.9,45.09999999999999 C 47.8,44.999999999999986 47.699999999999996,44.79999999999999 47.699999999999996,44.79999999999999 C 47.699999999999996,44.69999999999999 47.3,44.29999999999999 46.699999999999996,43.59999999999999 C 46.3,43.09999999999999 46.199999999999996,42.999999999999986 46.099999999999994,42.69999999999999 C 45.99999999999999,42.499999999999986 45.99999999999999,42.29999999999999 46.099999999999994,42.19999999999999 C 46.199999999999996,41.999999999999986 46.39999999999999,41.89999999999999 46.699999999999996,41.999999999999986 C 46.8,41.999999999999986 47.199999999999996,42.09999999999999 47.49999999999999,42.09999999999999 C 47.79999999999999,42.09999999999999 48.29999999999999,42.19999999999999 48.49999999999999,42.29999999999999 C 48.699999999999996,42.39999999999999 49.199999999999996,42.39999999999999 49.599999999999994,42.39999999999999 C 50.39999999999999,42.39999999999999 50.8,42.49999999999999 51.599999999999994,42.69999999999999 C 52.199999999999996,42.89999999999999 53.199999999999996,43.09999999999999 53.49999999999999,43.09999999999999 C 53.599999999999994,43.09999999999999 53.89999999999999,43.19999999999999 54.099999999999994,43.29999999999999 C 54.39999999999999,43.49999999999999 54.599999999999994,43.49999999999999 55.39999999999999,43.59999999999999 C 55.49999999999999,43.59999999999999 55.79999999999999,43.69999999999999 55.99999999999999,43.79999999999999 C 56.39999999999999,43.99999999999999 57.39999999999999,44.29999999999999 57.89999999999999,44.39999999999999 C 58.39999999999999,44.49999999999999 58.89999999999999,44.599999999999994 59.099999999999994,44.69999999999999 C 59.199999999999996,44.79999999999999 59.599999999999994,44.89999999999999 59.89999999999999,44.89999999999999 C 60.89999999999999,45.099999999999994 60.89999999999999,45.099999999999994 61.599999999999994,45.79999999999999 C 61.699999999999996,45.89999999999999 61.99999999999999,46.09999999999999 62.199999999999996,46.19999999999999 C 62.4,46.29999999999999 62.599999999999994,46.499999999999986 62.599999999999994,46.499999999999986 C 62.599999999999994,46.499999999999986 62.699999999999996,46.59999999999999 62.699999999999996,46.59999999999999 C 62.699999999999996,46.59999999999999 62.99999999999999,46.79999999999999 63.199999999999996,47.09999999999999 C 63.49999999999999,47.399999999999984 63.699999999999996,47.59999999999999 63.8,47.69999999999999 C 64.89999999999999,48.39999999999999 65.1,48.59999999999999 65.6,49.499999999999986 C 65.6,49.59999999999999 65.8,49.69999999999999 66.0,49.79999999999998 C 66.2,49.899999999999984 66.5,50.09999999999998 66.7,50.29999999999998 C 67.5,51.09999999999998 67.60000000000001,51.19999999999998 67.8,51.29999999999998 C 68.0,51.29999999999998 68.5,51.79999999999998 68.7,52.09999999999998 C 68.8,52.49999999999998 69.2,52.79999999999998 69.4,52.79999999999998 C 69.60000000000001,52.79999999999998 69.7,52.69999999999998 70.0,52.19999999999998 C 70.2,51.79999999999998 70.8,51.29999999999998 71.0,51.29999999999998 C 71.1,51.29999999999998 71.7,50.899999999999984 71.7,50.899999999999984 C 71.7,50.899999999999984 71.7,50.79999999999998 71.8,50.79999999999998 C 71.8,50.79999999999998 72.1,50.59999999999998 72.39999999999999,50.29999999999998 C 72.69999999999999,49.999999999999986 72.89999999999999,49.79999999999998 72.99999999999999,49.79999999999998 C 73.09999999999998,49.79999999999998 73.89999999999999,49.29999999999998 73.89999999999999,49.09999999999998 C 73.99999999999999,48.89999999999998 74.6,48.19999999999998 74.69999999999999,48.19999999999998 C 74.99999999999999,48.19999999999998 75.69999999999999,47.59999999999998 75.69999999999999,47.399999999999984 C 75.69999999999999,47.29999999999998 75.99999999999999,46.999999999999986 76.19999999999999,46.899999999999984 C 76.29999999999998,46.899999999999984 76.39999999999999,46.79999999999998 76.39999999999999,46.79999999999998 C 76.39999999999999,46.79999999999998 76.39999999999999,46.69999999999998 76.49999999999999,46.69999999999998 C 76.59999999999998,46.69999999999998 76.69999999999999,46.59999999999998 76.79999999999998,46.49999999999998 C 76.89999999999998,46.39999999999998 77.09999999999998,46.299999999999976 77.19999999999999,46.19999999999998 C 77.29999999999998,46.09999999999998 77.69999999999999,45.399999999999984 77.69999999999999,45.29999999999998 C 77.69999999999999,45.19999999999998 77.49999999999999,45.29999999999998 77.39999999999999,45.29999999999998 C 76.8,45.59999999999998 76.6,45.69999999999998 76.49999999999999,45.899999999999984 C 76.39999999999999,45.999999999999986 76.39999999999999,46.09999999999999 76.39999999999999,46.09999999999999 C 76.39999999999999,46.09999999999999 76.3,46.19999999999999 76.19999999999999,46.399999999999984 C 76.09999999999998,46.59999999999998 75.99999999999999,46.59999999999999 75.99999999999999,46.69999999999998 C 75.99999999999999,46.69999999999998 75.89999999999999,46.79999999999998 75.89999999999999,46.79999999999998 C 75.89999999999999,46.899999999999984 75.69999999999999,46.899999999999984 75.49999999999999,46.999999999999986 C 74.79999999999998,47.09999999999999 74.79999999999998,47.19999999999999 74.19999999999999,47.69999999999999 C 73.89999999999999,47.999999999999986 73.69999999999999,48.19999999999999 73.6,48.19999999999999 C 73.39999999999999,48.19999999999999 72.5,48.89999999999999 72.1,49.29999999999999 C 71.8,49.59999999999999 71.6,49.79999999999999 71.6,49.79999999999999 C 71.5,49.79999999999999 71.39999999999999,49.89999999999999 70.6,50.59999999999999 C 70.39999999999999,50.79999999999999 70.1,50.999999999999986 70.0,51.09999999999999 C 69.7,51.19999999999999 69.2,51.19999999999999 68.7,50.999999999999986 C 68.3,50.79999999999998 68.10000000000001,50.59999999999999 66.2,48.69999999999999 C 65.0,47.4 64.0,46.4 64.0,46.3 C 63.9,46.199999999999996 63.9,46.099999999999994 63.8,46.099999999999994 C 63.699999999999996,45.99999999999999 63.599999999999994,45.599999999999994 63.699999999999996,45.39999999999999 C 63.8,45.19999999999999 64.19999999999999,44.599999999999994 64.3,44.599999999999994 C 64.39999999999999,44.599999999999994 64.8,44.199999999999996 65.0,43.89999999999999 C 65.2,43.599999999999994 65.5,43.099999999999994 65.6,43.099999999999994 C 65.6,43.099999999999994 65.6,42.99999999999999 65.6,42.99999999999999 C 65.6,42.89999999999999 65.8,42.699999999999996 66.1,42.49999999999999 C 66.69999999999999,41.99999999999999 66.89999999999999,41.699999999999996 67.19999999999999,41.199999999999996 C 67.29999999999998,40.99999999999999 67.49999999999999,40.699999999999996 67.79999999999998,40.4 C 68.19999999999999,40.0 68.49999999999999,39.699999999999996 68.69999999999999,39.4 C 68.79999999999998,39.3 68.99999999999999,39.0 69.29999999999998,38.8 C 69.59999999999998,38.5 69.79999999999998,38.199999999999996 69.89999999999998,38.0 C 69.99999999999997,37.6 70.29999999999998,37.2 70.39999999999998,37.1 C 70.69999999999997,36.800000000000004 71.29999999999998,36.300000000000004 71.29999999999998,36.2 C 71.29999999999998,36.2 71.29999999999998,36.1 71.39999999999998,36.0 C 71.49999999999997,35.9 71.69999999999997,35.7 71.89999999999998,35.5 C 72.09999999999998,35.3 72.69999999999997,34.7 73.09999999999998,34.3 C 73.79999999999998,33.599999999999994 74.39999999999998,32.8 74.39999999999998,32.599999999999994 C 74.39999999999998,32.599999999999994 74.59999999999998,32.3 74.89999999999998,31.999999999999993 C 75.19999999999997,31.699999999999992 75.49999999999997,31.39999999999999 75.59999999999998,31.199999999999992 C 75.69999999999997,31.09999999999999 75.79999999999998,30.89999999999999 75.89999999999998,30.89999999999999 C 75.89999999999998,30.89999999999999 75.99999999999997,30.79999999999999 75.99999999999997,30.79999999999999 C 75.99999999999997,30.79999999999999 76.19999999999997,30.49999999999999 76.49999999999997,30.29999999999999 C 76.79999999999997,29.99999999999999 76.99999999999997,29.69999999999999 77.09999999999997,29.49999999999999 C 77.29999999999997,29.09999999999999 77.59999999999997,28.69999999999999 77.99999999999997,28.29999999999999 C 78.39999999999998,27.99999999999999 78.69999999999997,27.99999999999999 79.09999999999997,28.19999999999999 C 79.19999999999996,28.29999999999999 79.29999999999997,28.399999999999988 79.39999999999996,28.399999999999988 C 79.59999999999997,28.399999999999988 80.69999999999996,29.599999999999987 80.69999999999996,29.799999999999986 C 80.69999999999996,29.799999999999986 80.79999999999995,29.999999999999986 80.99999999999996,30.199999999999985 C 81.39999999999996,30.599999999999984 81.69999999999996,30.999999999999986 81.69999999999996,31.099999999999984 C 81.69999999999996,31.099999999999984 82.09999999999997,31.599999999999984 82.69999999999996,32.19999999999998 C 83.29999999999995,32.79999999999998 83.69999999999996,33.29999999999998 83.79999999999995,33.399999999999984 C 83.79999999999995,33.499999999999986 83.89999999999995,33.59999999999999 83.89999999999995,33.59999999999999 C 83.89999999999995,33.59999999999999 83.99999999999994,33.69999999999999 84.09999999999995,33.899999999999984 C 84.19999999999996,34.09999999999998 84.29999999999995,34.19999999999998 84.39999999999995,34.19999999999998 C 84.49999999999994,34.19999999999998 85.09999999999995,34.79999999999998 85.19999999999995,35.09999999999998 C 85.39999999999995,35.49999999999998 85.29999999999994,36.39999999999998 85.09999999999995,36.89999999999998 C 84.79999999999995,37.39999999999998 84.79999999999995,37.49999999999998 84.39999999999995,37.89999999999998 C 84.19999999999995,38.09999999999998 83.89999999999995,38.39999999999998 83.79999999999995,38.59999999999998 C 83.69999999999996,38.79999999999998 82.89999999999995,39.59999999999998 82.19999999999996,40.29999999999998 C 80.89999999999996,41.59999999999998 80.69999999999996,41.79999999999998 80.09999999999997,42.79999999999998 C 79.99999999999997,42.999999999999986 79.79999999999997,43.19999999999998 79.49999999999997,43.29999999999998 C 79.29999999999997,43.499999999999986 78.99999999999997,43.59999999999998 78.89999999999998,43.69999999999998 C 78.79999999999998,43.79999999999998 78.19999999999997,44.99999999999998 78.19999999999997,45.09999999999998 C 78.19999999999997,45.09999999999998 78.29999999999997,45.09999999999998 78.49999999999997,44.99999999999998 C 78.69999999999997,44.89999999999998 78.79999999999997,44.799999999999976 78.89999999999998,44.799999999999976 C 78.89999999999998,44.799999999999976 78.99999999999997,44.799999999999976 79.09999999999998,44.699999999999974 C 79.29999999999998,44.49999999999997 80.09999999999998,43.99999999999997 80.19999999999997,43.89999999999998 C 80.59999999999998,43.799999999999976 80.89999999999998,44.199999999999974 80.89999999999998,44.699999999999974 C 80.89999999999998,44.99999999999997 80.79999999999998,45.59999999999997 80.69999999999997,45.699999999999974 C 80.59999999999998,45.89999999999998 80.49999999999997,46.299999999999976 80.49999999999997,47.09999999999997 L 80.39999999999998,47.99999999999997 L 79.99999999999997,48.699999999999974 C 79.79999999999997,49.09999999999997 79.59999999999997,49.49999999999997 79.59999999999997,49.59999999999997 C 79.59999999999997,49.799999999999976 79.39999999999996,50.299999999999976 79.09999999999997,50.699999999999974 C 78.79999999999997,51.199999999999974 78.69999999999996,51.39999999999998 78.79999999999997,51.699999999999974 C 78.79999999999997,51.89999999999998 78.89999999999996,52.09999999999997 78.89999999999996,52.299999999999976 C 79.09999999999997,52.699999999999974 79.29999999999997,53.09999999999997 79.29999999999997,53.299999999999976 C 79.29999999999997,53.39999999999998 79.29999999999997,53.49999999999998 79.19999999999997,53.699999999999974 C 79.09999999999998,53.799999999999976 79.09999999999998,54.299999999999976 78.99999999999997,54.59999999999997 C 78.89999999999998,54.99999999999997 78.89999999999998,55.39999999999997 78.89999999999998,55.49999999999997 C 78.89999999999998,55.59999999999997 78.79999999999998,55.79999999999997 78.79999999999998,55.99999999999997 C 78.69999999999999,56.39999999999997 78.59999999999998,56.89999999999997 78.49999999999999,57.199999999999974 C 78.39999999999999,57.299999999999976 78.39999999999999,57.699999999999974 78.29999999999998,58.09999999999997 C 78.29999999999998,58.49999999999997 78.19999999999999,58.799999999999976 78.19999999999999,58.99999999999997 C 78.19999999999999,59.09999999999997 78.1,59.29999999999997 78.1,59.39999999999997 C 78.1,59.49999999999997 78.0,59.79999999999997 77.8,60.09999999999997 C 77.6,60.49999999999997 77.5,60.699999999999974 77.5,60.99999999999997 C 77.5,61.39999999999997 77.4,61.699999999999974 77.2,62.09999999999997 C 77.0,62.39999999999997 76.9,62.699999999999974 76.8,63.199999999999974 C 76.7,63.59999999999997 76.5,64.39999999999998 76.39999999999999,64.69999999999997 C 76.39999999999999,64.79999999999997 76.1,65.09999999999998 75.89999999999999,65.29999999999997 C 75.6,65.59999999999997 75.39999999999999,65.79999999999997 75.39999999999999,65.79999999999997 C 75.39999999999999,65.79999999999997 75.39999999999999,65.89999999999996 75.3,65.89999999999996 C 75.3,65.89999999999996 75.1,66.09999999999997 75.0,66.19999999999996 C 74.9,66.29999999999995 74.4,66.79999999999995 74.0,67.29999999999995 C 73.1,68.19999999999996 73.0,68.39999999999995 73.0,68.79999999999995 C 73.0,69.19999999999996 72.8,69.59999999999995 72.3,70.09999999999995 C 72.0,70.39999999999995 71.8,70.69999999999995 71.7,70.79999999999995 C 71.60000000000001,70.89999999999995 71.60000000000001,70.99999999999996 71.5,70.99999999999996 C 71.39999999999999,70.99999999999996 71.4,71.09999999999995 71.3,71.19999999999996 C 71.2,71.29999999999995 71.1,71.49999999999996 71.0,71.49999999999996 C 70.8,71.59999999999995 70.3,72.19999999999996 70.3,72.39999999999996 C 70.3,72.49999999999996 70.1,72.79999999999997 70.0,73.09999999999997 L 69.8,73.59999999999997 L 69.8,76.19999999999996 C 69.8,78.59999999999997 69.8,78.79999999999995 69.7,79.29999999999995 C 69.60000000000001,79.79999999999995 69.60000000000001,79.99999999999996 69.60000000000001,83.19999999999996 C 69.60000000000001,86.09999999999997 69.60000000000001,86.59999999999997 69.50000000000001,87.09999999999997 C 69.40000000000002,87.59999999999997 69.40000000000002,87.69999999999996 69.50000000000001,88.19999999999996 C 69.60000000000001,88.69999999999996 69.60000000000001,89.19999999999996 69.60000000000001,92.09999999999997 C 69.60000000000001,93.99999999999997 69.60000000000001,95.59999999999997 69.50000000000001,95.79999999999997 C 69.50000000000001,95.89999999999996 69.40000000000002,96.29999999999997 69.30000000000001,96.49999999999997 C 69.0,96.5 69.0,96.6 69.0,97.9 C 69.0,99.10000000000001 69.0,99.30000000000001 68.9,99.5 C 68.6,100.0 70.2,100.0 52.0,100.0 C 43.1,100.0 35.7,100.0 35.6,100.0 L 35.6,100.0 M 61.7,44.5 C 61.5,44.5 61.2,44.3 61.0,44.1 C 61.0,44.1 60.9,44.0 60.8,44.0 C 60.699999999999996,44.0 60.599999999999994,43.9 60.3,43.7 C 59.8,43.300000000000004 59.599999999999994,43.2 59.0,43.2 C 58.4,43.1 58.1,43.1 57.8,42.800000000000004 C 56.699999999999996,42.1 56.5,42.00000000000001 56.3,42.00000000000001 C 56.099999999999994,42.00000000000001 55.599999999999994,41.70000000000001 55.199999999999996,41.400000000000006 C 54.99999999999999,41.300000000000004 54.699999999999996,41.10000000000001 54.49999999999999,41.00000000000001 C 54.29999999999999,40.900000000000006 53.99999999999999,40.800000000000004 53.89999999999999,40.60000000000001 C 53.79999999999999,40.40000000000001 53.599999999999994,40.400000000000006 53.49999999999999,40.400000000000006 C 53.39999999999999,40.400000000000006 52.99999999999999,40.2 52.699999999999996,39.900000000000006 C 52.4,39.60000000000001 52.3,39.400000000000006 52.4,39.00000000000001 C 52.5,38.70000000000001 52.9,38.10000000000001 53.199999999999996,37.900000000000006 C 53.3,37.800000000000004 53.4,37.7 53.4,37.60000000000001 C 53.6,37.00000000000001 53.9,36.50000000000001 54.1,36.30000000000001 C 54.2,36.20000000000001 54.300000000000004,36.10000000000001 54.300000000000004,36.000000000000014 C 54.300000000000004,36.000000000000014 54.50000000000001,35.600000000000016 54.800000000000004,35.20000000000002 C 55.1,34.80000000000002 55.300000000000004,34.500000000000014 55.300000000000004,34.40000000000002 C 55.300000000000004,34.40000000000002 55.300000000000004,34.30000000000002 55.400000000000006,34.20000000000002 C 55.800000000000004,33.80000000000002 56.400000000000006,33.100000000000016 56.400000000000006,33.000000000000014 C 56.400000000000006,32.90000000000001 56.60000000000001,32.70000000000002 56.7,32.600000000000016 C 57.1,32.20000000000002 57.2,32.000000000000014 57.300000000000004,31.600000000000016 C 57.400000000000006,31.400000000000016 57.50000000000001,31.100000000000016 57.6,30.900000000000016 C 57.7,30.800000000000015 57.9,30.500000000000018 58.0,30.400000000000016 C 58.1,30.200000000000017 58.2,30.000000000000018 58.3,30.000000000000018 C 58.4,29.900000000000016 58.4,29.80000000000002 58.4,29.80000000000002 C 58.4,29.80000000000002 58.5,29.60000000000002 58.6,29.60000000000002 C 58.7,29.500000000000018 58.9,29.30000000000002 58.9,29.20000000000002 C 58.9,29.10000000000002 59.1,28.800000000000022 59.199999999999996,28.50000000000002 C 59.3,28.20000000000002 59.4,28.00000000000002 59.4,28.00000000000002 C 59.6,27.90000000000002 59.9,27.40000000000002 59.9,27.300000000000022 C 59.9,27.300000000000022 60.0,27.100000000000023 60.1,27.00000000000002 C 60.300000000000004,26.800000000000022 60.6,26.20000000000002 60.7,25.70000000000002 C 60.7,25.60000000000002 60.800000000000004,25.50000000000002 60.800000000000004,25.40000000000002 C 60.800000000000004,25.30000000000002 60.900000000000006,25.20000000000002 60.900000000000006,25.20000000000002 C 60.900000000000006,25.20000000000002 61.00000000000001,25.00000000000002 61.10000000000001,24.90000000000002 C 61.50000000000001,24.50000000000002 61.80000000000001,24.20000000000002 62.00000000000001,23.80000000000002 C 62.10000000000001,23.60000000000002 62.20000000000001,23.40000000000002 62.300000000000004,23.40000000000002 C 62.400000000000006,23.30000000000002 62.400000000000006,23.30000000000002 62.400000000000006,23.20000000000002 C 62.400000000000006,23.100000000000023 62.60000000000001,22.90000000000002 62.800000000000004,22.50000000000002 C 63.00000000000001,22.20000000000002 63.300000000000004,21.800000000000022 63.300000000000004,21.70000000000002 C 63.400000000000006,21.60000000000002 63.50000000000001,21.40000000000002 63.7,21.20000000000002 C 63.900000000000006,21.00000000000002 64.3,20.50000000000002 64.4,20.20000000000002 C 64.4,20.10000000000002 64.5,20.00000000000002 64.5,19.90000000000002 C 64.6,19.70000000000002 64.9,19.00000000000002 64.9,18.90000000000002 C 64.9,18.90000000000002 65.0,18.70000000000002 65.10000000000001,18.60000000000002 C 65.2,18.500000000000018 65.30000000000001,18.30000000000002 65.4,18.20000000000002 C 65.5,17.70000000000002 65.60000000000001,17.50000000000002 65.80000000000001,17.300000000000022 C 66.10000000000001,17.00000000000002 66.4,16.900000000000023 66.80000000000001,17.00000000000002 C 66.9,17.100000000000023 67.20000000000002,17.100000000000023 67.30000000000001,17.20000000000002 C 67.70000000000002,17.300000000000022 68.00000000000001,17.50000000000002 68.50000000000001,17.90000000000002 C 68.70000000000002,18.10000000000002 69.90000000000002,18.70000000000002 70.20000000000002,18.80000000000002 C 70.30000000000001,18.80000000000002 70.70000000000002,19.10000000000002 71.00000000000001,19.500000000000018 C 71.40000000000002,19.900000000000016 71.80000000000001,20.200000000000017 71.90000000000002,20.30000000000002 C 72.10000000000002,20.40000000000002 72.60000000000002,20.90000000000002 72.70000000000002,21.10000000000002 C 72.70000000000002,21.20000000000002 73.00000000000001,21.500000000000018 73.40000000000002,21.70000000000002 C 73.80000000000003,21.90000000000002 73.90000000000002,22.00000000000002 74.30000000000003,22.40000000000002 C 74.60000000000002,22.70000000000002 74.80000000000003,22.90000000000002 74.80000000000003,22.90000000000002 C 74.80000000000003,22.90000000000002 74.90000000000002,23.00000000000002 75.00000000000003,23.00000000000002 C 75.10000000000002,23.100000000000023 75.30000000000003,23.20000000000002 75.40000000000003,23.300000000000022 C 75.70000000000003,23.50000000000002 76.10000000000004,23.900000000000023 76.10000000000004,24.100000000000023 C 76.10000000000004,24.200000000000024 76.20000000000003,24.400000000000023 76.30000000000004,24.600000000000023 C 76.60000000000004,25.00000000000002 76.60000000000004,25.200000000000024 76.40000000000003,25.600000000000023 C 76.30000000000004,25.800000000000022 75.90000000000003,26.700000000000024 75.70000000000003,27.00000000000002 C 75.60000000000004,27.100000000000023 75.50000000000003,27.40000000000002 75.40000000000003,27.600000000000023 C 75.30000000000004,27.800000000000022 75.20000000000003,28.00000000000002 75.20000000000003,28.00000000000002 C 75.10000000000004,28.100000000000023 74.90000000000003,28.40000000000002 74.90000000000003,28.50000000000002 C 74.90000000000003,28.600000000000023 74.90000000000003,28.600000000000023 74.80000000000004,28.600000000000023 C 74.60000000000004,28.700000000000024 74.20000000000005,29.400000000000023 74.00000000000004,29.800000000000022 C 73.90000000000005,30.100000000000023 73.80000000000004,30.300000000000022 73.80000000000004,30.400000000000023 C 73.80000000000004,30.500000000000025 73.70000000000005,30.600000000000023 73.60000000000004,30.700000000000024 C 73.50000000000004,30.800000000000026 73.40000000000003,30.900000000000023 73.40000000000003,30.900000000000023 C 73.40000000000003,30.900000000000023 73.20000000000003,31.100000000000023 73.10000000000004,31.300000000000022 C 73.00000000000004,31.50000000000002 72.60000000000004,31.900000000000023 72.40000000000003,32.10000000000002 C 72.20000000000003,32.40000000000002 72.00000000000003,32.60000000000002 72.00000000000003,32.60000000000002 C 71.90000000000003,32.60000000000002 71.40000000000003,33.40000000000002 71.40000000000003,33.50000000000002 C 71.40000000000003,33.60000000000002 71.20000000000003,33.90000000000002 71.00000000000003,34.10000000000002 C 70.50000000000003,34.60000000000002 70.40000000000003,34.800000000000026 70.40000000000003,34.90000000000002 C 70.40000000000003,34.90000000000002 70.10000000000004,35.30000000000002 69.70000000000003,35.70000000000002 C 69.30000000000003,36.100000000000016 68.90000000000003,36.500000000000014 68.90000000000003,36.600000000000016 C 68.90000000000003,36.70000000000002 68.80000000000004,36.90000000000001 68.70000000000003,37.000000000000014 C 68.60000000000004,37.20000000000002 68.50000000000003,37.30000000000001 68.50000000000003,37.40000000000001 C 68.50000000000003,37.500000000000014 68.20000000000003,37.70000000000001 68.00000000000003,38.000000000000014 C 67.60000000000002,38.40000000000001 67.50000000000003,38.600000000000016 67.20000000000003,39.100000000000016 C 67.3,39.6 67.1,40.0 67.0,40.0 C 66.7,40.2 66.6,40.4 66.4,40.5 C 66.30000000000001,40.6 66.2,40.7 66.2,40.8 C 65.9,41.4 64.5,43.0 64.3,43.0 C 64.2,43.0 63.699999999999996,43.5 63.199999999999996,44.0 C 62.99999999999999,44.2 62.8,44.4 62.8,44.4 C 62.5,44.5 62.0,44.6 61.7,44.5 L 61.7,44.5 M 47.0,39.8 C 46.9,39.699999999999996 46.7,39.599999999999994 46.7,39.599999999999994 C 46.7,39.599999999999994 46.6,39.49999999999999 46.6,39.49999999999999 C 46.6,39.49999999999999 46.4,39.39999999999999 46.300000000000004,39.29999999999999 C 46.2,39.19999999999999 46.00000000000001,39.09999999999999 45.900000000000006,38.99999999999999 C 45.800000000000004,38.99999999999999 45.300000000000004,38.599999999999994 45.2,38.49999999999999 C 45.2,38.49999999999999 45.1,38.49999999999999 45.1,38.49999999999999 C 45.1,38.49999999999999 44.9,38.39999999999999 44.7,38.29999999999999 C 44.5,38.19999999999999 44.300000000000004,38.09999999999999 44.2,37.99999999999999 C 43.7,37.89999999999999 42.7,37.49999999999999 42.6,37.29999999999999 C 42.6,37.29999999999999 42.4,37.09999999999999 42.2,36.99999999999999 C 41.800000000000004,36.79999999999999 41.6,36.49999999999999 41.6,36.29999999999999 C 41.6,36.09999999999999 41.800000000000004,35.79999999999999 41.9,35.79999999999999 C 41.9,35.79999999999999 42.199999999999996,35.69999999999999 42.5,35.59999999999999 C 42.8,35.499999999999986 43.2,35.29999999999999 43.5,35.19999999999999 C 43.8,35.09999999999999 44.3,34.89999999999999 44.6,34.69999999999999 C 45.2,34.39999999999999 45.4,34.29999999999999 45.800000000000004,34.29999999999999 C 46.1,34.29999999999999 46.400000000000006,34.19999999999999 46.7,33.99999999999999 C 47.1,33.79999999999999 47.2,33.79999999999999 48.1,33.699999999999996 C 49.1,33.699999999999996 49.300000000000004,33.599999999999994 49.9,33.4 C 50.3,33.199999999999996 50.699999999999996,33.1 51.3,33.1 C 51.5,33.1 51.9,33.0 52.099999999999994,32.9 C 52.699999999999996,32.699999999999996 52.99999999999999,32.699999999999996 53.199999999999996,33.0 C 53.3,33.2 53.3,33.4 53.099999999999994,33.8 C 52.99999999999999,34.0 52.89999999999999,34.199999999999996 52.89999999999999,34.3 C 52.89999999999999,34.4 52.69999999999999,34.599999999999994 52.599999999999994,34.8 C 52.39999999999999,35.099999999999994 52.3,35.199999999999996 51.99999999999999,35.3 C 51.599999999999994,35.5 51.099999999999994,35.699999999999996 50.99999999999999,35.699999999999996 C 50.89999999999999,35.699999999999996 50.29999999999999,36.4 50.29999999999999,36.599999999999994 C 50.29999999999999,36.599999999999994 49.89999999999999,37.599999999999994 49.69999999999999,37.8 C 49.499999999999986,38.199999999999996 49.29999999999999,38.599999999999994 49.29999999999999,38.699999999999996 C 49.29999999999999,38.8 48.29999999999999,39.699999999999996 48.09999999999999,39.8 C 47.8,40.0 47.3,39.9 47.0,39.8 L 47.0,39.8 M 55.2,29.4 C 55.0,29.2 55.0,28.9 55.1,28.5 C 55.1,28.4 55.2,27.9 55.2,27.3 C 55.300000000000004,26.400000000000002 55.400000000000006,25.900000000000002 55.6,25.6 C 55.7,25.5 56.0,24.3 56.0,23.900000000000002 C 56.0,23.3 55.9,23.1 55.6,22.700000000000003 C 55.4,22.500000000000004 55.300000000000004,22.400000000000002 55.2,22.400000000000002 C 55.0,22.400000000000002 53.7,21.8 53.400000000000006,21.6 C 53.2,21.5 53.00000000000001,21.400000000000002 53.00000000000001,21.400000000000002 C 52.900000000000006,21.400000000000002 52.400000000000006,21.1 52.400000000000006,21.000000000000004 C 52.400000000000006,21.000000000000004 52.300000000000004,20.900000000000002 52.2,20.900000000000002 C 51.6,20.8 50.900000000000006,20.400000000000002 50.2,20.000000000000004 C 49.5,19.500000000000004 49.5,19.500000000000004 48.900000000000006,19.400000000000002 C 48.2,19.3 48.10000000000001,19.200000000000003 47.900000000000006,18.900000000000002 C 47.60000000000001,18.400000000000002 47.7,17.700000000000003 48.10000000000001,17.1 C 48.20000000000001,17.0 48.20000000000001,16.900000000000002 48.20000000000001,16.8 C 48.20000000000001,16.7 48.50000000000001,16.1 48.60000000000001,16.0 C 48.70000000000001,16.0 48.70000000000001,15.9 48.70000000000001,15.8 C 48.70000000000001,15.8 48.80000000000001,15.600000000000001 48.90000000000001,15.5 C 49.30000000000001,15.2 49.500000000000014,14.9 49.600000000000016,14.6 C 49.90000000000001,13.9 50.30000000000002,13.2 50.600000000000016,12.9 C 51.000000000000014,12.5 51.100000000000016,12.3 51.20000000000002,12.1 C 51.30000000000002,12.0 51.40000000000002,11.799999999999999 51.500000000000014,11.5 C 51.600000000000016,11.3 51.70000000000002,11.1 51.70000000000002,11.0 C 51.70000000000002,10.9 51.90000000000002,10.4 52.000000000000014,10.3 C 52.000000000000014,10.200000000000001 52.20000000000002,10.0 52.30000000000001,9.8 C 52.400000000000006,9.600000000000001 52.500000000000014,9.4 52.60000000000001,9.4 C 52.60000000000001,9.4 52.70000000000001,9.200000000000001 52.80000000000001,9.1 C 53.0,9.4 53.0,9.3 53.1,9.3 C 53.2,9.3 53.5,8.5 53.5,8.4 C 53.5,8.4 53.6,8.200000000000001 53.7,8.1 C 53.9,8.0 54.0,7.9 54.2,7.9 C 54.6,7.9 54.800000000000004,7.800000000000001 55.0,7.6000000000000005 C 55.2,7.300000000000001 55.5,7.2 55.7,7.300000000000001 C 55.800000000000004,7.300000000000001 56.1,7.4 56.300000000000004,7.6000000000000005 C 56.50000000000001,7.7 56.800000000000004,7.800000000000001 57.00000000000001,7.800000000000001 C 57.300000000000004,7.800000000000001 57.900000000000006,8.200000000000001 58.400000000000006,8.5 C 58.50000000000001,8.6 58.7,8.7 58.900000000000006,8.8 C 59.0,8.8 59.2,8.9 59.4,9.0 C 59.6,9.1 59.9,9.2 60.0,9.3 C 60.4,9.4 62.0,10.200000000000001 62.0,10.4 C 62.0,10.4 62.2,10.6 62.5,10.8 C 62.7,11.0 63.2,11.4 63.6,11.700000000000001 C 63.9,12.000000000000002 64.2,12.3 64.3,12.3 C 64.3,12.3 64.39999999999999,12.4 64.5,12.4 C 64.6,12.5 64.8,12.6 65.0,12.700000000000001 C 65.2,12.8 65.5,13.000000000000002 65.6,13.100000000000001 C 65.8,13.200000000000001 65.89999999999999,13.400000000000002 66.0,13.400000000000002 C 66.1,13.400000000000002 66.3,13.900000000000002 66.3,14.100000000000001 C 66.3,14.600000000000001 66.0,15.8 65.8,16.200000000000003 C 65.7,16.400000000000002 65.6,16.800000000000004 65.5,17.500000000000004 C 65.5,17.600000000000005 65.4,17.800000000000004 65.3,17.900000000000002 C 65.2,18.0 65.2,18.0 65.2,18.0 C 65.2,18.0 65.10000000000001,18.2 65.0,18.3 C 64.9,18.5 64.8,18.7 64.7,18.900000000000002 C 64.60000000000001,19.200000000000003 64.3,19.6 63.900000000000006,20.1 C 63.7,20.3 63.10000000000001,21.3 63.10000000000001,21.400000000000002 C 63.10000000000001,21.400000000000002 62.900000000000006,21.700000000000003 62.50000000000001,22.1 C 62.00000000000001,22.6 61.900000000000006,22.8 61.70000000000001,23.200000000000003 C 61.50000000000001,23.6 61.40000000000001,23.800000000000004 61.10000000000001,24.200000000000003 C 60.900000000000006,24.500000000000004 60.70000000000001,24.700000000000003 60.60000000000001,24.700000000000003 C 60.50000000000001,24.700000000000003 60.50000000000001,24.800000000000004 60.50000000000001,24.800000000000004 C 60.50000000000001,24.800000000000004 60.400000000000006,25.000000000000004 60.20000000000001,25.200000000000003 C 60.10000000000001,25.400000000000002 59.90000000000001,25.6 59.90000000000001,25.6 C 59.90000000000001,25.6 59.90000000000001,25.700000000000003 59.90000000000001,25.700000000000003 C 59.80000000000001,25.700000000000003 59.40000000000001,26.300000000000004 59.30000000000001,26.500000000000004 C 59.30000000000001,26.600000000000005 59.20000000000001,26.700000000000003 59.20000000000001,26.700000000000003 C 59.20000000000001,26.700000000000003 59.10000000000001,26.800000000000004 58.90000000000001,26.900000000000002 C 58.80000000000001,27.000000000000004 58.600000000000016,27.1 58.500000000000014,27.200000000000003 C 58.40000000000001,27.300000000000004 57.90000000000001,27.6 57.500000000000014,28.000000000000004 C 56.500000000000014,29.000000000000004 56.30000000000001,29.100000000000005 55.90000000000001,29.300000000000004 C 55.5,29.6 55.4,29.6 55.2,29.4 L 55.2,29.4 M 44.6,18.2 C 44.4,18.2 44.1,18.0 43.800000000000004,17.9 C 43.7,17.799999999999997 43.400000000000006,17.799999999999997 43.300000000000004,17.7 C 43.1,17.7 42.900000000000006,17.599999999999998 42.7,17.3 C 42.300000000000004,16.900000000000002 41.900000000000006,16.8 40.900000000000006,16.6 C 40.300000000000004,16.5 40.00000000000001,16.400000000000002 39.60000000000001,16.1 C 39.400000000000006,16.0 39.30000000000001,15.900000000000002 39.20000000000001,15.900000000000002 C 39.10000000000001,15.900000000000002 39.10000000000001,15.900000000000002 39.10000000000001,15.800000000000002 C 39.00000000000001,15.600000000000003 38.400000000000006,15.400000000000002 38.20000000000001,15.400000000000002 C 37.90000000000001,15.400000000000002 37.30000000000001,15.200000000000003 37.10000000000001,15.000000000000002 C 37.00000000000001,14.900000000000002 36.900000000000006,14.900000000000002 36.80000000000001,14.900000000000002 C 36.80000000000001,14.900000000000002 36.70000000000001,14.900000000000002 36.60000000000001,14.800000000000002 C 36.50000000000001,14.700000000000003 36.30000000000001,14.600000000000003 36.10000000000001,14.400000000000002 C 35.900000000000006,14.300000000000002 35.60000000000001,14.100000000000001 35.50000000000001,14.000000000000002 C 35.400000000000006,13.900000000000002 35.300000000000004,13.900000000000002 35.20000000000001,13.800000000000002 C 35.00000000000001,13.800000000000002 34.60000000000001,13.500000000000002 34.50000000000001,13.300000000000002 C 34.400000000000006,13.100000000000003 34.400000000000006,13.000000000000002 34.400000000000006,12.700000000000003 C 34.400000000000006,12.200000000000003 34.60000000000001,11.900000000000002 34.800000000000004,11.600000000000003 C 34.900000000000006,11.500000000000004 35.00000000000001,11.300000000000002 35.00000000000001,11.300000000000002 C 35.00000000000001,11.200000000000003 35.300000000000004,10.800000000000002 35.50000000000001,10.600000000000003 C 35.60000000000001,10.500000000000004 35.800000000000004,10.400000000000004 36.00000000000001,10.300000000000002 C 36.300000000000004,10.100000000000003 36.400000000000006,10.000000000000002 36.800000000000004,9.200000000000003 C 36.9,8.9 37.0,8.6 37.0,8.5 C 37.0,8.3 37.2,7.7 37.3,7.7 C 37.3,7.7 37.5,7.4 37.699999999999996,7.0 C 37.9,6.6 38.099999999999994,6.2 38.199999999999996,6.2 C 38.3,6.1000000000000005 38.4,5.9 38.599999999999994,5.6000000000000005 C 38.9,5.0 39.0,4.8 39.5,4.2 C 39.7,4.0 39.9,3.7 40.0,3.6 C 40.1,3.5 40.2,3.3000000000000003 40.4,3.2 C 40.5,3.1 40.6,2.9000000000000004 40.6,2.9000000000000004 C 40.6,2.9000000000000004 40.7,2.7 40.800000000000004,2.5000000000000004 C 40.9,2.3 41.0,2.1 41.1,2.0 C 41.2,1.8 41.800000000000004,1.1 41.9,1.1 C 41.9,1.1 42.1,1.0 42.199999999999996,0.9000000000000001 C 43.099999999999994,0.10000000000000009 43.199999999999996,0.10000000000000009 43.99999999999999,0.10000000000000009 C 44.699999999999996,0.10000000000000009 44.89999999999999,0.2000000000000001 45.199999999999996,0.5000000000000001 C 45.4,0.7000000000000002 45.699999999999996,0.9000000000000001 46.3,1.1 C 46.599999999999994,1.2000000000000002 46.8,1.3 46.9,1.3 C 46.9,1.3 47.1,1.4000000000000001 47.199999999999996,1.5 C 47.3,1.6 47.4,1.6 47.4,1.7 C 47.4,1.7 47.4,1.7 47.5,1.7 C 47.6,1.7 47.8,1.8 47.9,1.9 C 48.1,2.0 48.3,2.1999999999999997 48.5,2.3 C 48.7,2.4 48.8,2.5 48.9,2.5999999999999996 C 49.0,2.6999999999999993 49.1,2.6999999999999997 49.1,2.6999999999999997 C 49.2,2.6999999999999997 49.2,2.6999999999999997 49.300000000000004,2.8 C 49.400000000000006,2.9 50.1,3.1999999999999997 50.2,3.1999999999999997 C 50.300000000000004,3.1999999999999997 51.0,3.8999999999999995 51.0,4.1 C 51.0,4.1 51.1,4.199999999999999 51.2,4.3 C 51.300000000000004,4.3999999999999995 51.5,4.5 51.6,4.6 C 52.1,5.1 52.5,5.3999999999999995 52.7,5.6 C 52.800000000000004,5.699999999999999 52.900000000000006,5.8 53.0,5.8 C 53.099999999999994,5.8 53.2,5.8999999999999995 53.3,6.0 C 53.5,6.2 53.599999999999994,6.3 53.599999999999994,6.6 C 53.599999999999994,6.8999999999999995 53.599999999999994,7.0 53.3,7.3999999999999995 C 53.199999999999996,7.499999999999999 53.099999999999994,7.8 53.0,8.2 C 52.9,8.5 52.8,8.899999999999999 52.7,8.899999999999999 C 52.2,9.799999999999999 52.2,9.899999999999999 51.800000000000004,10.299999999999999 C 51.7,10.499999999999998 51.50000000000001,10.6 51.50000000000001,10.7 C 51.50000000000001,10.7 51.50000000000001,10.799999999999999 51.400000000000006,10.799999999999999 C 51.300000000000004,10.899999999999999 51.00000000000001,11.399999999999999 51.00000000000001,11.6 C 51.00000000000001,11.7 50.900000000000006,11.9 50.60000000000001,12.4 C 50.60000000000001,12.5 50.400000000000006,12.700000000000001 50.30000000000001,12.9 C 50.20000000000002,13.1 50.10000000000001,13.3 50.10000000000001,13.3 C 50.10000000000001,13.3 50.00000000000001,13.5 49.80000000000001,13.700000000000001 C 49.60000000000001,13.9 49.500000000000014,14.100000000000001 49.500000000000014,14.100000000000001 C 49.500000000000014,14.100000000000001 49.40000000000001,14.3 49.30000000000001,14.400000000000002 C 49.20000000000001,14.500000000000002 49.10000000000001,14.700000000000003 49.10000000000001,14.700000000000003 C 49.10000000000001,14.700000000000003 49.00000000000001,14.900000000000002 48.80000000000001,15.200000000000003 C 48.70000000000001,15.400000000000002 48.500000000000014,15.600000000000003 48.500000000000014,15.600000000000003 C 48.500000000000014,15.600000000000003 48.40000000000001,15.800000000000002 48.20000000000002,15.900000000000004 C 48.000000000000014,16.000000000000004 47.90000000000002,16.200000000000003 47.90000000000002,16.200000000000003 C 47.90000000000002,16.200000000000003 47.80000000000002,16.300000000000004 47.80000000000002,16.400000000000002 C 47.70000000000002,16.500000000000004 47.50000000000002,16.900000000000002 47.40000000000002,17.1 C 47.40000000000002,17.200000000000003 47.20000000000002,17.400000000000002 47.10000000000002,17.6 C 46.700000000000024,18.1 46.40000000000002,18.200000000000003 45.60000000000002,18.200000000000003 C 45.0,18.2 44.7,18.2 44.6,18.2 L 44.6,18.2" fill="#ffffff" stroke="none" stroke-width="3.0" /></g></svg>