<?xml version="1.0" encoding="utf-8" ?>
<svg baseProfile="full" height="100px" version="1.1" width="150px" xmlns="http://www.w3.org/2000/svg" xmlns:ev="http://www.w3.org/2001/xml-events" xmlns:xlink="http://www.w3.org/1999/xlink"><defs><clipPath id="mask0"><rect height="100" width="150" x="0" y="0" /></clipPath></defs><g clip-path="url(#mask0)"><path d="M0,0 L85.76461648208246,123.0627098664795 L147.66321855812436,26.373734757436235 z" fill="#ffffff" stroke="none" transform="translate(75.0, 50.0)" /><path d="M0,0 L147.66321855812436,26.373734757436235 L123.06270986647948,-85.76461648208247 z" fill="#3366cc" stroke="none" transform="translate(75.0, 50.0)" /><path d="M0,0 L123.06270986647948,-85.76461648208247 L26.373734757436246,-147.66321855812436 z" fill="#ffffff" stroke="none" transform="translate(75.0, 50.0)" /><path d="M0,0 L26.373734757436246,-147.66321855812436 L-85.76461648208246,-123.0627098664795 z" fill="#3366cc" stroke="none" transform="translate(75.0, 50.0)" /><path d="M0,0 L-85.76461648208246,-123.0627098664795 L-147.66321855812436,-26.373734757436253 z" fill="#ffffff" stroke="none" transform="translate(75.0, 50.0)" /><path d="M0,0 L-147.66321855812436,-26.373734757436253 L-123.0627098664795,85.76461648208246 z" fill="#3366cc" stroke="none" transform="translate(75.0, 50.0)" /><path d="M0,0 L-123.0627098664795,85.76461648208246 L-26.37373475743626,147.66321855812436 z" fill="#ffffff" stroke="none" transform="translate(75.0, 50.0)" /><path d="M0,0 L-26.37373475743626,147.66321855812436 L85.76461648208245,123.06270986647951 z" fill="#3366cc" stroke="none" transform="translate(75.0, 50.0)" /></g><g id="empty" /></svg>