<?xml version="1.0" encoding="utf-8" ?>
<svg baseProfile="full" height="100px" version="1.1" width="150px" xmlns="http://www.w3.org/2000/svg" xmlns:ev="http://www.w3.org/2001/xml-events" xmlns:xlink="http://www.w3.org/1999/xlink"><defs><clipPath id="mask0"><rect height="100" width="150" x="0" y="0" /></clipPath></defs><g clip-path="url(#mask0)"><rect fill="#ffffff" height="20.0" stroke="none" width="25.0" x="0.0" y="0.0" /><rect fill="#6699cc" height="20.0" stroke="none" width="25.0" x="0.0" y="20.0" /><rect fill="#ffffff" height="20.0" stroke="none" width="25.0" x="0.0" y="40.0" /><rect fill="#6699cc" height="20.0" stroke="none" width="25.0" x="0.0" y="60.0" /><rect fill="#ffffff" height="20.0" stroke="none" width="25.0" x="0.0" y="80.0" /><rect fill="#6699cc" height="20.0" stroke="none" width="25.0" x="25.0" y="0.0" /><rect fill="#ffffff" height="20.0" stroke="none" width="25.0" x="25.0" y="20.0" /><rect fill="#6699cc" height="20.0" stroke="none" width="25.0" x="25.0" y="40.0" /><rect fill="#ffffff" height="20.0" stroke="none" width="25.0" x="25.0" y="60.0" /><rect fill="#6699cc" height="20.0" stroke="none" width="25.0" x="25.0" y="80.0" /><rect fill="#ffffff" height="20.0" stroke="none" width="25.0" x="50.0" y="0.0" /><rect fill="#6699cc" height="20.0" stroke="none" width="25.0" x="50.0" y="20.0" /><rect fill="#ffffff" height="20.0" stroke="none" width="25.0" x="50.0" y="40.0" /><rect fill="#6699cc" height="20.0" stroke="none" width="25.0" x="50.0" y="60.0" /><rect fill="#ffffff" height="20.0" stroke="none" width="25.0" x="50.0" y="80.0" /><rect fill="#6699cc" height="20.0" stroke="none" width="25.0" x="75.0" y="0.0" /><rect fill="#ffffff" height="20.0" stroke="none" width="25.0" x="75.0" y="20.0" /><rect fill="#6699cc" height="20.0" stroke="none" width="25.0" x="75.0" y="40.0" /><rect fill="#ffffff" height="20.0" stroke="none" width="25.0" x="75.0" y="60.0" /><rect fill="#6699cc" height="20.0" stroke="none" width="25.0" x="75.0" y="80.0" /><rect fill="#ffffff" height="20.0" stroke="none" width="25.0" x="100.0" y="0.0" /><rect fill="#6699cc" height="20.0" stroke="none" width="25.0" x="100.0" y="20.0" /><rect fill="#ffffff" height="20.0" stroke="none" width="25.0" x="100.0" y="40.0" /><rect fill="#6699cc" height="20.0" stroke="none" width="25.0" x="100.0" y="60.0" /><rect fill="#ffffff" height="20.0" stroke="none" width="25.0" x="100.0" y="80.0" /><rect fill="#6699cc" height="20.0" stroke="none" width="25.0" x="125.0" y="0.0" /><rect fill="#ffffff" height="20.0" stroke="none" width="25.0" x="125.0" y="20.0" /><rect fill="#6699cc" height="20.0" stroke="none" width="25.0" x="125.0" y="40.0" /><rect fill="#ffffff" height="20.0" stroke="none" width="25.0" x="125.0" y="60.0" /><rect fill="#6699cc" height="20.0" stroke="none" width="25.0" x="125.0" y="80.0" /></g><g transform="translate(44.546199637122214, 19.546199637122218) scale(0.6090760072575556) rotate(0, 50.0, 50.0)"><path d="M 66.7,33.3 L 100.0,33.3 L 100.0,66.6 L 66.7,66.6 L 66.7,99.89999999999999 L 33.400000000000006,99.89999999999999 L 33.400000000000006,66.6 L 0.0,66.6 L 0.0,33.3 L 33.3,33.3 L 33.3,0.0 L 66.6,0.0 L 66.7,33.3" fill="#ff3333" stroke="none" stroke-width="3.0" /></g></svg>