<?xml version="1.0" encoding="utf-8" ?>
<svg baseProfile="full" height="100px" version="1.1" width="150px" xmlns="http://www.w3.org/2000/svg" xmlns:ev="http://www.w3.org/2001/xml-events" xmlns:xlink="http://www.w3.org/1999/xlink"><defs><clipPath id="mask0"><rect height="100" width="150" x="0" y="0" /></clipPath></defs><g clip-path="url(#mask0)"><rect fill="#fdef42" height="100" stroke="none" width="150" x="0" y="0" /><rect fill="#0032cc" height="100" stroke="none" width="35.89664080472241" x="0" y="0" /></g><g transform="translate(60.294420320395645, 17.34609991803444) scale(0.6530780016393112) rotate(0, 50.0, 50.0)"><path d="M 50.0,0.0 C 22.4,0.0 0.0,22.4 0.0,50.0 C 0.0,77.6 22.4,100.0 50.0,100.0 C 77.6,100.0 100.0,77.6 100.0,50.0 C 100.0,22.4 77.6,0.0 50.0,0.0 M 9.1,26.5 C 17.4,12.0 32.8,3.1 49.5,2.8 L 43.0,45.7 L 8.8,73.3 C 0.6,58.8 0.7,41.0 9.1,26.5 M 50.2,97.4 C 33.5,97.5 18.0,88.7 9.4,74.4 L 50.0,57.6 L 90.8,74.1 C 82.3,88.5 66.9,97.4 50.2,97.4 M 56.8,46.3 L 50.7,2.8 C 67.3,3.1 82.5,12.0 90.9,26.4 C 99.30000000000001,40.8 99.5,58.4 91.4,73.0 L 56.8,46.3" fill="#127cbc" stroke="none" stroke-width="3.0" /></g></svg>