<?xml version="1.0" encoding="utf-8" ?>
<svg baseProfile="full" height="100px" version="1.1" width="150px" xmlns="http://www.w3.org/2000/svg" xmlns:ev="http://www.w3.org/2001/xml-events" xmlns:xlink="http://www.w3.org/1999/xlink"><defs><clipPath id="mask0"><rect height="100" width="150" x="0" y="0" /></clipPath></defs><g clip-path="url(#mask0)"><rect fill="#000000" height="100" stroke="none" width="150" x="0" y="0" /></g><g transform="translate(36.12725831600236, 11.127258316002361) scale(0.7774548336799527) rotate(0, 50.0, 50.0)"><path d="M 50.4,0.0 C 22.9,-0.2 -0.1,22.8 0.0,50.3 C 0.1,77.19999999999999 22.7,100.3 49.9,100.0 C 77.2,100.4 99.9,77.4 100.0,50.2 C 100.1,22.8 77.2,0.2 50.4,0.0 M 21.2,80.7 C 3.4,63.9 5.3,37.9 16.8,24.4 C 25.200000000000003,32.8 33.5,41.2 42.0,49.599999999999994 C 41.7,49.89999999999999 41.2,50.49999999999999 40.6,51.099999999999994 C 39.6,52.099999999999994 38.6,53.099999999999994 37.5,54.099999999999994 C 35.9,55.699999999999996 35.7,55.8 36.9,57.8 C 37.6,59.099999999999994 37.3,60.0 36.5,61.099999999999994 C 35.9,61.699999999999996 34.9,62.3 35.6,63.49999999999999 C 35.7,63.599999999999994 35.2,64.19999999999999 34.9,64.5 C 31.099999999999998,68.3 27.299999999999997,72.1 23.5,76.0 C 23.2,76.3 22.9,76.6 22.8,77.1 C 23.0,76.89999999999999 23.3,76.69999999999999 23.5,76.39999999999999 C 27.4,72.49999999999999 31.2,68.6 35.1,64.8 C 35.5,64.39999999999999 35.9,63.8 36.7,64.2 C 37.0,64.3 37.6,63.800000000000004 38.0,63.400000000000006 C 39.7,61.900000000000006 39.7,61.800000000000004 41.7,62.800000000000004 C 44.1,64.0 43.5,63.800000000000004 45.2,62.2 C 46.900000000000006,60.6 48.5,58.900000000000006 50.0,57.300000000000004 C 58.7,66.0 67.2,74.5 75.7,83.0 C 62.8,94.4 37.8,96.4 21.2,80.7 M 82.0,77.2 C 73.3,68.5 64.7,60.0 56.2,51.4 C 59.800000000000004,47.8 63.5,44.199999999999996 67.3,40.4 C 68.39999999999999,41.1 69.8,42.1 71.2,43.0 C 71.3,42.9 71.5,42.7 71.60000000000001,42.6 C 71.10000000000001,40.300000000000004 69.2,38.800000000000004 68.00000000000001,37.0 C 71.40000000000002,33.6 74.80000000000001,30.3 78.20000000000002,26.9 C 79.20000000000002,27.7 80.40000000000002,28.599999999999998 81.70000000000002,29.599999999999998 C 81.60000000000002,27.599999999999998 73.50000000000001,18.9 70.30000000000001,17.699999999999996 C 71.00000000000001,18.699999999999996 71.70000000000002,19.799999999999997 72.70000000000002,21.199999999999996 C 69.30000000000001,24.499999999999996 65.90000000000002,27.799999999999997 62.500000000000014,31.099999999999994 C 60.70000000000002,29.799999999999994 59.000000000000014,28.599999999999994 57.40000000000001,27.399999999999995 C 57.30000000000001,27.499999999999996 57.100000000000016,27.699999999999996 57.000000000000014,27.799999999999994 C 57.20000000000002,29.399999999999995 58.500000000000014,30.499999999999993 59.30000000000001,31.999999999999993 C 55.500000000000014,35.599999999999994 51.60000000000001,39.29999999999999 47.90000000000001,42.89999999999999 C 39.80000000000001,34.79999999999999 31.400000000000013,26.39999999999999 22.900000000000013,17.79999999999999 C 32.90000000000001,9.29999999999999 44.80000000000001,6.099999999999991 57.70000000000001,8.69999999999999 C 74.8,12.0 86.0,22.5 90.6,39.2 C 94.4,53.1 91.4,66.0 82.0,77.2" fill="#ffffff" stroke="none" stroke-width="3.0" /></g></svg>