<?xml version="1.0" encoding="utf-8" ?>
<svg baseProfile="full" height="100px" version="1.1" width="150px" xmlns="http://www.w3.org/2000/svg" xmlns:ev="http://www.w3.org/2001/xml-events" xmlns:xlink="http://www.w3.org/1999/xlink"><defs><clipPath id="mask0"><rect height="100" width="150" x="0" y="0" /></clipPath></defs><g clip-path="url(#mask0)"><path d="M0,0 L0.0,150.0 L51.303021498850306,140.95389311788625 z" fill="#ffffff" stroke="none" transform="translate(75.0, 50.0)" /><path d="M0,0 L51.303021498850306,140.95389311788625 L96.41814145298089,114.9066664678467 z" fill="#7d2a8a" stroke="none" transform="translate(75.0, 50.0)" /><path d="M0,0 L96.41814145298089,114.9066664678467 L129.9038105676658,75.00000000000001 z" fill="#630356" stroke="none" transform="translate(75.0, 50.0)" /><path d="M0,0 L129.9038105676658,75.00000000000001 L147.7211629518312,26.047226650039562 z" fill="#cc0000" stroke="none" transform="translate(75.0, 50.0)" /><path d="M0,0 L147.7211629518312,26.047226650039562 L147.7211629518312,-26.047226650039544 z" fill="#00008b" stroke="none" transform="translate(75.0, 50.0)" /><path d="M0,0 L147.7211629518312,-26.047226650039544 L129.9038105676658,-74.99999999999997 z" fill="#f3b3c9" stroke="none" transform="translate(75.0, 50.0)" /><path d="M0,0 L129.9038105676658,-74.99999999999997 L96.41814145298092,-114.90666646784669 z" fill="#ffce00" stroke="none" transform="translate(75.0, 50.0)" /><path d="M0,0 L96.41814145298092,-114.90666646784669 L51.303021498850335,-140.95389311788625 z" fill="#ff9932" stroke="none" transform="translate(75.0, 50.0)" /><path d="M0,0 L51.303021498850335,-140.95389311788625 L1.8369701987210297e-14,-150.0 z" fill="#007934" stroke="none" transform="translate(75.0, 50.0)" /><path d="M0,0 L1.8369701987210297e-14,-150.0 L-51.3030214988503,-140.95389311788625 z" fill="#000000" stroke="none" transform="translate(75.0, 50.0)" /><path d="M0,0 L-51.3030214988503,-140.95389311788625 L-96.41814145298089,-114.9066664678467 z" fill="#603814" stroke="none" transform="translate(75.0, 50.0)" /><path d="M0,0 L-96.41814145298089,-114.9066664678467 L-129.90381056766577,-75.00000000000007 z" fill="#848884" stroke="none" transform="translate(75.0, 50.0)" /><path d="M0,0 L-129.90381056766577,-75.00000000000007 L-147.7211629518312,-26.04722665003955 z" fill="#4997d0" stroke="none" transform="translate(75.0, 50.0)" /><path d="M0,0 L-147.7211629518312,-26.04722665003955 L-147.72116295183122,26.047226650039494 z" fill="#ffffff" stroke="none" transform="translate(75.0, 50.0)" /><path d="M0,0 L-147.72116295183122,26.047226650039494 L-129.9038105676658,75.00000000000001 z" fill="#f3b3c9" stroke="none" transform="translate(75.0, 50.0)" /><path d="M0,0 L-129.9038105676658,75.00000000000001 L-96.41814145298093,114.90666646784666 z" fill="#630356" stroke="none" transform="translate(75.0, 50.0)" /><path d="M0,0 L-96.41814145298093,114.90666646784666 L-51.30302149885041,140.95389311788622 z" fill="#cc0033" stroke="none" transform="translate(75.0, 50.0)" /><path d="M0,0 L-51.30302149885041,140.95389311788622 L-3.6739403974420595e-14,150.0 z" fill="#ff9901" stroke="none" transform="translate(75.0, 50.0)" /></g><g transform="translate(49.52819978208645, 24.528199782086453) scale(0.509436004358271) rotate(0, 50.0, 50.0)"><path d="M 55.3,10.9 L 48.699999999999996,17.9 L 61.89999999999999,31.299999999999997 L 55.79999999999999,37.099999999999994 C 49.79999999999999,32.599999999999994 42.499999999999986,30.099999999999994 34.999999999999986,30.099999999999994 C 15.699999999999985,30.099999999999994 0.09999999999998721,45.8 -1.4210854715202004e-14,65.1 C 0.1,84.4 15.7,100.0 35.0,100.0 C 54.3,100.0 69.9,84.3 70.0,65.0 C 70.0,57.5 67.5,50.2 63.0,44.1 L 69.1,38.2 L 82.89999999999999,51.900000000000006 L 89.69999999999999,44.900000000000006 L 75.9,31.1 L 89.9,17.1 L 89.9,35.7 L 99.9,35.7 L 99.9,0.0 L 64.2,0.0 L 64.2,10.0 L 83.0,10.0 L 68.8,24.4 L 55.3,10.9 L 55.3,10.9 M 59.9,65.1 C 59.9,78.89999999999999 48.7,90.1 34.9,90.1 C 21.2,90.0 10.0,78.9 10.1,65.1 C 10.1,51.3 21.299999999999997,40.099999999999994 35.1,40.099999999999994 C 48.900000000000006,40.099999999999994 60.0,51.3 59.9,65.1 L 59.9,65.1" fill="#ffce00" stroke="#935316" stroke-width="3.0" /></g></svg>