<?xml version="1.0" encoding="utf-8" ?>
<svg baseProfile="full" height="100px" version="1.1" width="150px" xmlns="http://www.w3.org/2000/svg" xmlns:ev="http://www.w3.org/2001/xml-events" xmlns:xlink="http://www.w3.org/1999/xlink"><defs><clipPath id="mask0"><rect height="100" width="150" x="0" y="0" /></clipPath></defs><g clip-path="url(#mask0)"><rect fill="#567ff4" height="33.333333333333336" stroke="none" width="150" x="0" y="0.0" /><rect fill="#ffffff" height="33.333333333333336" stroke="none" width="150" x="0" y="33.333333333333336" /><rect fill="#ffce00" height="33.333333333333336" stroke="none" width="150" x="0" y="66.66666666666667" /></g><g transform="translate(36.12725831600236, 11.127258316002361) scale(0.7774548336799527) rotate(0, 50.0, 50.0)"><path d="M 86.7,77.8 L 79.9,71.0 C 82.60000000000001,67.0 84.5,62.5 85.4,57.8 C 86.9,50.8 86.30000000000001,43.4 83.80000000000001,36.699999999999996 C 81.30000000000001,29.999999999999996 76.9,23.999999999999996 71.10000000000001,19.799999999999997 C 65.30000000000001,15.599999999999998 58.6,13.0 51.5,12.4 C 60.2,17.5 67.2,25.6 70.9,34.9 C 73.10000000000001,40.199999999999996 74.2,45.8 73.80000000000001,51.5 C 73.50000000000001,55.1 72.50000000000001,58.8 70.80000000000001,62.1 L 45.6,36.8 L 54.8,27.599999999999998 L 49.3,22.099999999999998 C 47.4,23.099999999999998 45.199999999999996,23.799999999999997 43.099999999999994,24.299999999999997 C 40.89999999999999,24.699999999999996 38.599999999999994,24.799999999999997 36.39999999999999,24.599999999999998 L 18.199999999999992,42.599999999999994 L 28.89999999999999,53.3 L 36.099999999999994,46.099999999999994 L 61.49999999999999,71.5 C 59.199999999999996,72.9 56.599999999999994,73.8 53.89999999999999,74.4 C 48.79999999999999,75.4 43.39999999999999,75.2 38.39999999999999,73.80000000000001 C 30.59999999999999,71.80000000000001 23.499999999999993,67.4 18.09999999999999,61.30000000000001 L -0.1,79.5 L 7.7,87.3 L 19.8,75.2 C 26.7,83.0 36.9,87.7 47.3,88.0 C 55.599999999999994,88.2 63.9,85.5 70.6,80.6 L 77.19999999999999,87.19999999999999 L 86.7,77.8" fill="#000000" stroke="none" stroke-width="3.0" /></g></svg>