<?xml version="1.0" encoding="utf-8" ?>
<svg baseProfile="full" height="100px" version="1.1" width="150px" xmlns="http://www.w3.org/2000/svg" xmlns:ev="http://www.w3.org/2001/xml-events" xmlns:xlink="http://www.w3.org/1999/xlink"><defs><clipPath id="mask0"><rect height="100" width="150" x="0" y="0" /></clipPath></defs><g clip-path="url(#mask0)"><rect fill="#ffffff" height="100" stroke="none" width="150" x="0" y="0" /><rect fill="#ffce00" height="100" stroke="none" width="150" x="111.72042747552601" y="0" /></g><g transform="translate(25.951722148433156, 20.09150841067015) scale(0.598169831786597) rotate(0, 50.0, 50.0)"><path d="M 74.6,93.5 L 49.3,95.4 L 24.0,93.5 L 24.0,43.3 L 74.5,43.3 L 74.6,93.5" fill="#D81E05" stroke="none" stroke-width="0px" /><path d="M 49.4,98.8 L 46.8,95.8 L 26.7,95.8 C 23.5,95.8 22.0,93.1 22.0,90.5 L 22.0,41.0 L 77.1,41.0 L 77.1,90.5 C 77.1,93.0 75.6,95.8 72.3,95.8 L 52.2,95.8 C 52.0,96.0 50.400000000000006,97.89999999999999 50.400000000000006,97.89999999999999 L 49.4,98.8 M 24.1,43.3 L 24.1,90.5 C 24.1,91.0 24.200000000000003,93.4 26.6,93.4 L 46.7,93.4 C 47.400000000000006,93.4 48.0,93.7 48.400000000000006,94.2 L 49.400000000000006,95.3 C 49.800000000000004,94.8 50.300000000000004,94.3 50.400000000000006,94.2 C 50.800000000000004,93.7 51.50000000000001,93.4 52.10000000000001,93.4 L 72.20000000000002,93.4 C 74.60000000000002,93.4 74.60000000000002,90.80000000000001 74.60000000000002,90.5 L 74.60000000000002,43.3 L 24.1,43.3" fill="#FFCC00" stroke="none" stroke-width="0px" /><path d="M 49.7,8.8 L 49.7,4.5 L 52.1,4.5 L 52.1,3.8 L 49.7,3.8 L 49.7,0.7999999999999998 L 49.0,0.7999999999999998 L 49.0,3.8 L 46.5,3.8 L 46.5,4.5 L 49.0,4.5 L 49.0,8.8 C 48.6,9.600000000000001 47.8,11.3 47.0,11.700000000000001 C 45.9,12.4 44.1,12.4 41.1,12.100000000000001 C 37.800000000000004,11.700000000000001 35.2,10.3 32.6,10.700000000000001 C 30.400000000000002,11.100000000000001 28.8,13.700000000000001 28.8,13.700000000000001 C 28.900000000000002,13.700000000000001 18.9,12.500000000000002 18.0,21.200000000000003 C 17.6,24.900000000000002 20.2,28.1 20.2,28.1 C 20.2,28.1 17.9,28.1 17.599999999999998,29.700000000000003 C 17.2,31.200000000000003 18.999999999999996,32.300000000000004 20.2,32.300000000000004 C 21.5,32.300000000000004 23.099999999999998,32.1 25.2,34.6 C 27.3,37.0 28.4,41.9 28.4,41.9 C 28.4,41.9 31.7,39.5 38.099999999999994,37.6 C 44.39999999999999,35.7 54.199999999999996,35.7 60.39999999999999,37.6 C 66.6,39.5 70.1,41.9 70.1,41.9 C 70.1,41.9 71.39999999999999,37.0 73.3,34.6 C 75.39999999999999,32.1 76.89999999999999,32.300000000000004 78.3,32.300000000000004 C 79.7,32.300000000000004 81.3,31.100000000000005 80.89999999999999,29.700000000000003 C 80.49999999999999,28.3 78.3,28.1 78.3,28.1 C 78.3,28.1 80.8,25.1 80.5,21.200000000000003 C 79.6,12.500000000000004 69.6,13.700000000000003 69.7,13.700000000000003 C 69.7,13.700000000000003 68.0,11.100000000000003 65.9,10.700000000000003 C 63.400000000000006,10.300000000000002 60.800000000000004,11.700000000000003 57.400000000000006,12.100000000000003 C 54.50000000000001,12.500000000000004 52.60000000000001,12.500000000000004 51.50000000000001,11.700000000000003 C 50.9,11.2 50.2,9.6 49.7,8.8 L 49.7,8.8" fill="#FFCC00" stroke="none" stroke-width="0px" /><path d="M 47.2,27.8 C 46.7,29.400000000000002 45.300000000000004,29.7 44.0,28.5 C 42.7,27.2 42.0,25.0 42.4,23.4 L 42.4,23.4 C 42.9,21.799999999999997 44.3,21.5 45.6,22.7 C 46.9,23.9 47.7,26.2 47.2,27.8 M 40.7,27.8 C 39.900000000000006,29.400000000000002 38.300000000000004,29.7 37.400000000000006,28.5 C 36.300000000000004,27.2 36.10000000000001,25.0 36.900000000000006,23.4 L 36.900000000000006,23.4 C 37.7,21.799999999999997 39.300000000000004,21.5 40.2,22.7 C 41.3,23.8 41.5,26.2 40.7,27.8 M 32.5,29.1 C 32.3,30.0 31.3,30.1 30.4,29.5 C 29.499999999999996,28.9 28.9,27.6 29.2,26.9 L 29.2,26.9 C 29.4,26.0 30.4,25.9 31.3,26.5 C 32.2,27.1 32.7,28.3 32.5,29.1 M 28.7,31.3 C 28.5,32.2 27.5,32.3 26.599999999999998,31.7 C 25.7,31.0 25.099999999999998,29.8 25.4,29.099999999999998 L 25.4,29.099999999999998 C 25.599999999999998,28.2 26.599999999999998,28.099999999999998 27.5,28.7 C 28.4,29.2 29.0,30.4 28.7,31.3 M 35.1,27.0 C 34.5,27.9 33.5,27.8 32.7,26.8 C 31.900000000000006,25.8 31.700000000000003,24.3 32.300000000000004,23.6 L 32.300000000000004,23.6 C 32.900000000000006,22.700000000000003 33.900000000000006,22.8 34.7,23.8 C 35.4,24.6 35.6,26.1 35.1,27.0 M 24.1,31.2 C 23.8,32.2 22.700000000000003,32.3 21.700000000000003,31.599999999999998 C 20.6,30.9 20.000000000000004,29.499999999999996 20.300000000000004,28.599999999999998 L 20.300000000000004,28.599999999999998 C 20.600000000000005,27.599999999999998 21.700000000000003,27.499999999999996 22.700000000000003,28.2 C 23.8,28.8 24.3,30.2 24.1,31.2 M 31.1,22.7 C 31.0,23.599999999999998 28.6,25.0 27.3,25.5 C 26.0,26.0 24.400000000000002,26.5 22.700000000000003,26.1 C 21.000000000000004,25.700000000000003 19.800000000000004,21.5 21.000000000000004,18.8 C 22.400000000000002,16.1 27.000000000000004,15.700000000000001 28.400000000000006,16.400000000000002 C 29.3,16.9 31.2,21.8 31.1,22.7 M 47.9,18.7 C 47.1,20.3 41.3,22.5 39.0,22.599999999999998 C 36.5,22.799999999999997 35.0,21.299999999999997 35.0,21.299999999999997 C 33.1,18.699999999999996 31.1,14.499999999999996 32.9,13.299999999999997 C 34.8,11.999999999999996 39.3,14.099999999999998 43.8,14.099999999999998 C 46.3,14.099999999999998 48.5,13.299999999999997 48.5,13.299999999999997 C 48.5,13.299999999999997 48.6,17.3 47.9,18.7 M 39.8,32.7 C 40.5,33.6 39.9,34.800000000000004 38.599999999999994,35.400000000000006 C 37.199999999999996,36.10000000000001 35.599999999999994,35.900000000000006 34.99999999999999,35.10000000000001 L 34.99999999999999,35.10000000000001 C 34.29999999999999,34.20000000000001 34.89999999999999,33.00000000000001 36.199999999999996,32.400000000000006 C 37.5,31.8 39.1,31.9 39.8,32.7" fill="#D81E05" stroke="none" stroke-width="0px" /><path d="M 47.5,10.2 C 47.5,11.0 46.8,11.7 46.0,11.7 C 45.2,11.7 44.5,11.0 44.5,10.2 L 44.5,10.2 C 44.5,9.399999999999999 45.2,8.7 46.0,8.7 C 46.8,8.6 47.4,9.3 47.5,10.2 M 43.1,10.2 C 43.1,11.0 42.4,11.7 41.6,11.7 C 40.800000000000004,11.7 40.1,11.0 40.1,10.2 L 40.1,10.2 C 40.1,9.399999999999999 40.800000000000004,8.7 41.6,8.7 C 42.4,8.7 43.0,9.3 43.1,10.2 M 38.6,9.2 C 38.6,10.0 37.9,10.7 37.1,10.7 C 36.300000000000004,10.7 35.6,10.0 35.6,9.2 L 35.6,9.2 C 35.6,8.399999999999999 36.300000000000004,7.699999999999999 37.1,7.699999999999999 C 38.0,7.8 38.6,8.3 38.6,9.2 M 33.6,9.2 C 33.6,10.0 32.9,10.7 32.1,10.7 C 31.300000000000004,10.7 30.6,10.0 30.6,9.2 L 30.6,9.2 C 30.6,8.399999999999999 31.3,7.699999999999999 32.1,7.699999999999999 C 32.900000000000006,7.699999999999999 33.6,8.3 33.6,9.2 M 29.0,11.4 C 29.0,12.200000000000001 28.3,12.9 27.5,12.9 C 26.7,12.9 26.0,12.2 26.0,11.4 L 26.0,11.4 C 26.0,10.6 26.7,9.9 27.5,9.9 C 28.3,9.9 29.0,10.6 29.0,11.4 M 23.7,12.6 C 23.7,13.4 23.0,14.1 22.2,14.1 C 21.4,14.1 20.7,13.4 20.7,12.6 L 20.7,12.6 C 20.7,11.799999999999999 21.4,11.1 22.2,11.1 C 23.0,11.1 23.7,11.8 23.7,12.6 M 19.0,16.2 C 19.0,17.0 18.3,17.7 17.5,17.7 C 16.7,17.7 16.0,17.0 16.0,16.2 L 16.0,16.2 C 16.0,15.399999999999999 16.7,14.7 17.5,14.7 C 18.3,14.7 19.0,15.4 19.0,16.2 M 17.3,21.3 C 17.3,22.1 16.6,22.8 15.8,22.8 C 15.0,22.8 14.3,22.1 14.3,21.3 L 14.3,21.3 C 14.3,20.5 15.0,19.8 15.8,19.8 C 16.7,19.8 17.3,20.5 17.3,21.3 M 17.8,26.4 C 17.8,27.2 17.1,27.9 16.3,27.9 C 15.5,27.9 14.8,27.2 14.8,26.4 L 14.8,26.4 C 14.8,25.599999999999998 15.5,24.9 16.3,24.9 C 17.1,24.9 17.8,25.6 17.8,26.4 M 29.0,37.4 C 29.0,38.199999999999996 28.3,38.9 27.5,38.9 C 26.7,38.9 26.0,38.2 26.0,37.4 L 26.0,37.4 C 26.0,36.6 26.7,35.9 27.5,35.9 C 28.3,35.8 29.0,36.5 29.0,37.4 M 29.1,27.1 C 29.1,27.900000000000002 28.400000000000002,28.6 27.6,28.6 C 26.8,28.6 26.1,27.900000000000002 26.1,27.1 L 26.1,27.1 C 26.1,26.3 26.8,25.6 27.6,25.6 C 28.400000000000002,25.6 29.1,26.3 29.1,27.1 M 43.0,23.4 C 43.0,24.2 42.3,24.9 41.5,24.9 C 40.7,24.9 40.0,24.2 40.0,23.4 L 40.0,23.4 C 40.0,22.599999999999998 40.7,21.9 41.5,21.9 C 42.3,21.9 43.0,22.6 43.0,23.4" fill="#FFFFFF" stroke="none" stroke-width="0px" /><path d="M 24.1,60.1 L 24.1,76.8 L 74.6,76.8 L 74.6,60.0 L 24.1,60.1 L 24.1,60.1" fill="#FFFFFF" stroke="none" stroke-width="0px" /><path d="M 51.9,28.0 C 51.4,26.3 52.1,24.1 53.5,22.9 C 54.9,21.7 56.2,22.0 56.7,23.599999999999998 L 56.7,23.599999999999998 C 57.1,25.2 56.400000000000006,27.4 55.1,28.699999999999996 C 53.8,29.9 52.4,29.6 51.9,28.0 M 58.4,27.9 C 57.6,26.299999999999997 57.8,24.0 58.9,22.799999999999997 C 59.9,21.599999999999998 61.4,21.9 62.199999999999996,23.499999999999996 L 62.199999999999996,23.499999999999996 C 62.99999999999999,25.099999999999998 62.8,27.299999999999997 61.699999999999996,28.599999999999994 C 60.7,29.8 59.2,29.5 58.4,27.9 M 66.6,29.3 C 66.39999999999999,28.5 66.89999999999999,27.2 67.8,26.7 C 68.7,26.099999999999998 69.7,26.2 69.89999999999999,27.099999999999998 L 69.89999999999999,27.099999999999998 C 70.19999999999999,27.9 69.6,29.2 68.69999999999999,29.7 C 67.79999999999998,30.2 66.8,30.1 66.6,29.3 M 70.4,31.4 C 70.10000000000001,30.5 70.7,29.299999999999997 71.60000000000001,28.799999999999997 C 72.50000000000001,28.299999999999997 73.50000000000001,28.299999999999997 73.7,29.199999999999996 L 73.7,29.199999999999996 C 74.0,29.999999999999996 73.4,31.199999999999996 72.5,31.799999999999997 C 71.6,32.4 70.6,32.3 70.4,31.4 M 64.0,27.1 L 64.0,27.1 C 63.5,26.200000000000003 63.7,24.700000000000003 64.4,23.900000000000002 C 65.2,22.900000000000002 66.2,22.8 66.80000000000001,23.700000000000003 L 66.80000000000001,23.700000000000003 C 67.4,24.500000000000004 67.20000000000002,26.000000000000004 66.4,26.900000000000002 C 65.5,27.9 64.6,28.0 64.0,27.1 M 75.0,31.3 C 74.8,30.3 75.4,28.900000000000002 76.4,28.3 C 77.4,27.6 78.5,27.7 78.80000000000001,28.7 L 78.80000000000001,28.7 C 79.10000000000001,29.7 78.50000000000001,31.099999999999998 77.4,31.7 C 76.3,32.4 75.3,32.3 75.0,31.3 M 70.6,16.6 C 72.1,15.8 76.69999999999999,16.200000000000003 78.0,19.0 C 79.3,21.6 78.0,25.9 76.3,26.3 C 74.6,26.700000000000003 73.0,26.3 71.7,25.7 C 70.4,25.099999999999998 68.0,23.7 67.9,22.9 C 67.9,21.9 69.8,17.0 70.6,16.6 L 70.6,16.6 M 51.2,18.9 C 50.5,17.4 50.6,13.499999999999998 50.6,13.499999999999998 C 50.6,13.499999999999998 52.800000000000004,14.299999999999999 55.300000000000004,14.299999999999999 C 59.800000000000004,14.299999999999999 64.30000000000001,12.2 66.2,13.499999999999998 C 68.10000000000001,14.799999999999999 66.0,18.9 64.10000000000001,21.5 C 64.10000000000001,21.5 62.50000000000001,23.0 60.10000000000001,22.8 C 57.8,22.7 52.0,20.4 51.2,18.9 L 51.2,18.9 M 59.3,32.9 C 60.0,32.0 61.699999999999996,31.9 62.9,32.6 C 64.2,33.300000000000004 64.8,34.5 64.1,35.300000000000004 L 64.1,35.300000000000004 C 63.49999999999999,36.1 61.8,36.300000000000004 60.49999999999999,35.6 C 59.19999999999999,34.9 58.6,33.8 59.3,32.9" fill="#D81E05" stroke="none" stroke-width="0px" /><path d="M 51.6,10.4 C 51.7,9.5 52.300000000000004,8.8 53.1,8.9 C 53.9,8.9 54.6,9.6 54.6,10.4 L 54.6,10.4 C 54.6,11.200000000000001 53.9,11.9 53.1,11.9 C 52.300000000000004,11.9 51.6,11.1 51.6,10.4 M 56.0,10.4 C 56.1,9.5 56.7,8.9 57.5,8.9 C 58.3,8.9 59.0,9.6 59.0,10.4 L 59.0,10.4 C 59.0,11.200000000000001 58.3,11.9 57.5,11.9 C 56.7,11.9 56.0,11.1 56.0,10.4 M 60.6,9.4 C 60.6,8.5 61.2,7.9 62.1,7.9 C 62.9,7.9 63.6,8.6 63.6,9.4 L 63.6,9.4 C 63.6,10.200000000000001 62.9,10.9 62.1,10.9 C 61.300000000000004,10.9 60.6,10.2 60.6,9.4 M 65.5,9.4 C 65.5,8.5 66.2,7.9 67.0,7.9 C 67.8,7.9 68.5,8.6 68.5,9.4 L 68.5,9.4 C 68.5,10.200000000000001 67.8,10.9 67.0,10.9 C 66.2,10.9 65.5,10.2 65.5,9.4 M 70.1,11.5 C 70.1,10.7 70.8,10.0 71.6,10.0 C 72.39999999999999,10.0 73.1,10.7 73.1,11.5 L 73.1,11.5 C 73.1,12.3 72.39999999999999,13.0 71.6,13.0 C 70.8,13.0 70.1,12.3 70.1,11.5 M 75.4,12.7 C 75.4,11.899999999999999 76.10000000000001,11.2 76.9,11.2 C 77.7,11.2 78.4,11.899999999999999 78.4,12.7 L 78.4,12.7 C 78.4,13.5 77.7,14.2 76.9,14.2 C 76.10000000000001,14.2 75.4,13.5 75.4,12.7 M 80.2,16.3 C 80.2,15.5 80.9,14.8 81.7,14.8 C 82.5,14.8 83.2,15.5 83.2,16.3 L 83.2,16.3 C 83.2,17.1 82.5,17.8 81.7,17.8 C 80.8,17.8 80.2,17.1 80.2,16.3 M 81.8,21.4 C 81.8,20.599999999999998 82.39999999999999,19.9 83.3,19.9 C 84.1,19.9 84.8,20.599999999999998 84.8,21.4 L 84.8,21.4 C 84.8,22.2 84.1,22.9 83.3,22.9 C 82.5,22.9 81.8,22.2 81.8,21.4 M 81.3,26.5 C 81.3,25.7 82.0,25.0 82.8,25.0 C 83.6,25.0 84.3,25.7 84.3,26.5 L 84.3,26.5 C 84.3,27.3 83.6,28.0 82.8,28.0 C 82.0,28.0 81.3,27.3 81.3,26.5 M 70.2,37.5 C 70.2,36.6 70.9,35.9 71.7,36.0 C 72.5,36.0 73.2,36.7 73.2,37.5 L 73.2,37.5 C 73.2,38.3 72.5,39.0 71.7,39.0 C 70.9,39.0 70.2,38.3 70.2,37.5 M 70.0,27.2 C 70.0,26.4 70.7,25.7 71.5,25.7 C 72.3,25.7 73.0,26.4 73.0,27.2 L 73.0,27.2 C 73.0,28.0 72.3,28.7 71.5,28.7 C 70.7,28.7 70.0,28.0 70.0,27.2 M 56.1,23.6 C 56.1,22.700000000000003 56.800000000000004,22.0 57.6,22.1 C 58.4,22.1 59.1,22.8 59.1,23.6 L 59.1,23.6 C 59.1,24.400000000000002 58.4,25.1 57.6,25.1 C 56.800000000000004,25.1 56.1,24.4 56.1,23.6" fill="#FFFFFF" stroke="none" stroke-width="0px" /><path d="M 47.4,23.2 A 1.9,2.5 0.0 1,0 51.199999999999996,23.2 A 1.9,2.5 0.0 1,0 47.4,23.2" fill="#D81E05" stroke="none" stroke-width="0px" /><path d="M 46.599999999999994,32.6 A 2.7,1.9 0.0 1,0 51.99999999999999,32.6 A 2.7,1.9 0.0 1,0 46.599999999999994,32.6" fill="#D81E05" stroke="none" stroke-width="0px" /></g></svg>