<?xml version="1.0" encoding="utf-8" ?>
<svg baseProfile="full" height="100px" version="1.1" width="150px" xmlns="http://www.w3.org/2000/svg" xmlns:ev="http://www.w3.org/2001/xml-events" xmlns:xlink="http://www.w3.org/1999/xlink"><defs><clipPath id="mask0"><rect height="100" width="150" x="0" y="0" /></clipPath></defs><g clip-path="url(#mask0)"><rect fill="#ffce00" height="100" stroke="none" width="75.0" x="0.0" y="0" /><rect fill="#000000" height="100" stroke="none" width="75.0" x="75.0" y="0" /></g><g transform="translate(53.665322775115, 28.665322775115005) scale(0.4266935444976999) rotate(0, 50.0, 50.0)"><path d="M 51.3,30.6 C 43.099999999999994,30.8 36.4,30.900000000000002 30.099999999999998,33.7 C 28.4,34.5 26.9,35.7 25.299999999999997,36.7 C 24.499999999999996,37.1 23.699999999999996,37.6 22.799999999999997,37.6 C 20.999999999999996,37.7 19.299999999999997,37.6 17.499999999999996,37.7 C 15.999999999999996,37.800000000000004 15.199999999999996,37.0 14.799999999999997,35.7 C 14.199999999999998,33.400000000000006 13.599999999999998,31.000000000000004 13.099999999999998,28.700000000000003 C 12.699999999999998,27.1 13.499999999999998,26.1 14.899999999999999,25.800000000000004 C 26.299999999999997,23.300000000000004 34.4,16.300000000000004 41.0,7.100000000000005 C 44.3,2.400000000000005 48.5,0.9000000000000048 53.2,2.400000000000005 C 55.900000000000006,3.3000000000000047 57.6,5.300000000000004 59.1,7.500000000000004 C 63.7,14.000000000000004 69.2,19.500000000000004 76.6,22.900000000000006 C 79.1,24.100000000000005 81.89999999999999,24.900000000000006 84.6,25.700000000000006 C 86.6,26.300000000000008 87.3,27.200000000000006 86.8,29.200000000000006 C 86.3,31.400000000000006 85.7,33.50000000000001 85.2,35.7 C 84.8,37.1 84.0,38.0 82.4,37.800000000000004 C 81.80000000000001,37.7 81.2,37.7 80.60000000000001,37.800000000000004 C 77.50000000000001,38.1 74.9,37.400000000000006 72.4,35.300000000000004 C 69.30000000000001,32.7 65.10000000000001,32.00000000000001 61.10000000000001,31.500000000000004 C 57.4,30.8 53.6,30.7 51.3,30.6" fill="#ff0000" stroke="none" stroke-width="2.0" /><path d="M 51.0,34.4 C 55.0,34.9 59.9,35.5 64.7,36.199999999999996 C 65.7,36.3 66.60000000000001,36.699999999999996 67.60000000000001,37.099999999999994 C 72.30000000000001,38.89999999999999 73.30000000000001,40.49999999999999 72.9,45.39999999999999 C 72.3,51.7 70.0,57.0 65.0,61.1 C 64.1,61.800000000000004 63.7,63.1 63.3,64.2 C 63.0,65.0 63.0,65.9 62.9,66.8 C 62.699999999999996,69.0 61.4,70.5 59.3,71.1 C 53.099999999999994,72.8 46.8,72.8 40.599999999999994,71.1 C 38.39999999999999,70.5 37.099999999999994,69.0 37.099999999999994,66.8 C 37.099999999999994,63.8 35.8,61.699999999999996 33.49999999999999,59.599999999999994 C 28.299999999999994,54.89999999999999 26.699999999999992,48.599999999999994 26.999999999999993,41.8 C 26.999999999999993,40.699999999999996 28.39999999999999,39.199999999999996 29.499999999999993,38.699999999999996 C 32.39999999999999,37.4 35.39999999999999,36.199999999999996 38.39999999999999,35.599999999999994 C 42.2,34.9 46.1,34.8 51.0,34.4 M 59.5,52.6 C 63.2,52.7 65.1,50.9 65.1,47.4 C 65.1,44.1 62.89999999999999,42.0 59.3,42.0 C 55.9,41.9 53.9,44.1 53.8,47.7 C 53.7,50.7 55.8,52.5 59.5,52.6 M 40.2,52.6 C 44.1,52.6 46.2,50.9 46.2,47.7 C 46.300000000000004,44.300000000000004 44.1,42.0 40.900000000000006,41.900000000000006 C 37.400000000000006,41.900000000000006 34.900000000000006,44.00000000000001 34.900000000000006,47.00000000000001 C 34.9,50.6 36.8,52.5 40.2,52.6 M 49.9,62.8 C 50.5,62.8 51.199999999999996,62.8 51.8,62.8 C 53.4,62.699999999999996 54.099999999999994,61.599999999999994 53.599999999999994,60.099999999999994 C 52.89999999999999,58.3 52.099999999999994,56.49999999999999 51.3,54.8 C 50.699999999999996,53.5 49.4,53.5 48.8,54.8 C 47.9,56.5 47.099999999999994,58.3 46.4,60.099999999999994 C 45.8,61.699999999999996 46.6,62.699999999999996 48.3,62.8 C 48.8,62.8 49.4,62.8 49.9,62.8" fill="#ff0000" stroke="none" stroke-width="2.0" /><path d="M 60.0,84.9 C 63.9,86.30000000000001 67.9,87.7 71.9,88.9 C 72.80000000000001,89.2 74.0,88.7 75.0,88.60000000000001 C 75.9,88.4 76.8,88.10000000000001 77.7,87.9 C 79.5,87.60000000000001 81.0,88.10000000000001 82.10000000000001,89.60000000000001 C 83.2,91.10000000000001 82.80000000000001,92.7 82.2,94.30000000000001 C 81.9,95.00000000000001 81.7,95.9 81.9,96.70000000000002 C 82.60000000000001,99.70000000000002 80.30000000000001,102.20000000000002 77.30000000000001,101.60000000000002 C 74.80000000000001,101.10000000000002 72.80000000000001,99.80000000000003 71.50000000000001,97.60000000000002 C 70.40000000000002,95.80000000000003 68.90000000000002,94.70000000000002 66.90000000000002,94.00000000000003 C 61.80000000000002,92.20000000000003 56.70000000000002,90.30000000000003 51.60000000000002,88.50000000000003 C 50.700000000000024,88.20000000000003 49.50000000000002,88.10000000000002 48.60000000000002,88.50000000000003 C 43.200000000000024,90.30000000000003 37.800000000000026,92.20000000000003 32.50000000000002,94.30000000000003 C 31.100000000000023,94.90000000000002 29.800000000000022,96.10000000000002 28.800000000000022,97.40000000000002 C 27.20000000000002,99.50000000000001 25.400000000000023,101.20000000000002 22.700000000000024,101.60000000000002 C 19.500000000000025,102.10000000000002 17.400000000000023,99.50000000000003 18.300000000000026,96.40000000000002 C 18.500000000000025,95.80000000000003 18.300000000000026,95.10000000000002 18.100000000000026,94.50000000000001 C 17.400000000000027,92.90000000000002 16.900000000000027,91.20000000000002 18.000000000000025,89.60000000000001 C 19.200000000000024,88.00000000000001 21.100000000000026,87.10000000000001 22.800000000000026,87.9 C 27.000000000000025,89.7 30.700000000000024,88.30000000000001 34.50000000000003,86.7 C 36.300000000000026,86.0 38.20000000000003,85.4 40.10000000000003,84.3 C 38.50000000000003,83.7 37.00000000000003,83.2 35.40000000000003,82.6 C 34.200000000000024,82.19999999999999 32.90000000000003,81.8 31.700000000000028,81.3 C 30.00000000000003,80.6 28.30000000000003,80.5 26.50000000000003,81.2 C 24.400000000000027,82.0 22.200000000000028,81.9 20.10000000000003,81.0 C 18.60000000000003,80.4 17.40000000000003,79.5 17.30000000000003,77.7 C 17.200000000000028,76.0 17.90000000000003,74.60000000000001 19.40000000000003,73.7 C 19.80000000000003,73.4 20.20000000000003,72.8 20.30000000000003,72.2 C 20.80000000000003,70.4 21.60000000000003,68.7 23.700000000000028,68.3 C 25.80000000000003,67.89999999999999 27.50000000000003,68.89999999999999 28.400000000000027,70.7 C 29.900000000000027,73.60000000000001 32.300000000000026,74.9 35.200000000000024,75.9 C 39.700000000000024,77.4 44.10000000000002,79.10000000000001 48.50000000000003,80.7 C 49.300000000000026,81.0 50.40000000000003,81.0 51.20000000000003,80.7 C 56.400000000000034,78.9 61.60000000000003,77.0 66.90000000000003,75.2 C 68.60000000000004,74.60000000000001 69.90000000000003,73.60000000000001 70.70000000000003,71.9 C 71.00000000000003,71.30000000000001 71.30000000000003,70.7 71.80000000000003,70.30000000000001 C 73.00000000000003,69.00000000000001 74.40000000000002,68.00000000000001 76.30000000000003,68.50000000000001 C 78.20000000000003,69.00000000000001 79.10000000000002,70.50000000000001 79.60000000000002,72.30000000000001 C 79.80000000000003,72.9 80.10000000000002,73.50000000000001 80.60000000000002,73.9 C 83.40000000000002,75.7 83.30000000000003,79.2 80.40000000000002,80.80000000000001 C 78.20000000000002,82.00000000000001 75.90000000000002,82.20000000000002 73.60000000000002,81.4 C 71.80000000000003,80.7 70.20000000000002,80.80000000000001 68.40000000000002,81.5 C 65.60000000000002,82.6 62.80000000000002,83.6 60.00000000000002,84.6 C 60.0,84.5 60.0,84.7 60.0,84.9" fill="#ff0000" stroke="none" stroke-width="2.0" /></g></svg>