<?xml version="1.0" encoding="utf-8" ?>
<svg baseProfile="full" height="100px" version="1.1" width="150px" xmlns="http://www.w3.org/2000/svg" xmlns:ev="http://www.w3.org/2001/xml-events" xmlns:xlink="http://www.w3.org/1999/xlink"><defs><clipPath id="mask0"><rect height="100" width="150" x="0" y="0" /></clipPath></defs><g clip-path="url(#mask0)"><rect fill="#0066cc" height="100" stroke="none" width="150" x="0" y="0" /></g><g transform="translate(59.79185722340439, 34.79185722340439) scale(0.30416285553191225) rotate(0, 50.0, 50.0)"><path d="M 76.6,27.6 L 76.6,33.4 L 89.0,33.4 L 73.5,48.6 C 68.8,45.1 63.4,42.800000000000004 57.2,42.4 C 56.800000000000004,36.199999999999996 54.5,30.7 51.0,26.099999999999998 L 66.2,10.899999999999999 L 66.2,23.299999999999997 L 72.8,23.299999999999997 L 72.8,0.0 L 49.4,0.0 L 49.4,6.6 L 61.8,6.6 L 46.7,21.8 C 41.6,17.900000000000002 35.400000000000006,15.600000000000001 28.800000000000004,15.600000000000001 C 12.8,15.6 0.0,28.4 0.0,44.3 C 0.0,59.5 12.1,72.0 27.2,73.1 C 28.0,88.3 40.5,100.4 56.0,100.4 C 71.9,100.4 84.8,87.60000000000001 84.8,71.60000000000001 C 84.8,65.00000000000001 82.5,58.80000000000001 78.6,53.70000000000001 L 93.8,38.500000000000014 L 93.8,51.0 L 100.39999999999999,51.0 L 100.39999999999999,27.6 L 76.6,27.6 M 6.6,44.3 C 6.6,32.199999999999996 16.7,22.099999999999998 28.799999999999997,22.099999999999998 C 40.5,22.099999999999998 50.199999999999996,31.4 51.0,43.099999999999994 C 38.9,44.99999999999999 29.6,54.8 27.7,66.39999999999999 C 15.9,65.7 6.6,56.0 6.6,44.3 M 50.2,49.8 C 48.300000000000004,57.599999999999994 42.0,63.8 34.300000000000004,65.7 C 36.2,58.0 42.4,51.7 50.2,49.8 M 55.6,93.4 C 43.900000000000006,93.4 34.2,84.10000000000001 33.400000000000006,72.4 C 45.5,70.4 54.8,60.7 56.8,49.0 C 68.5,49.8 77.8,59.5 77.8,71.2 C 77.8,83.6 68.1,93.4 55.6,93.4" fill="#f3b3c9" stroke="none" stroke-width="3.0px" /></g></svg>