<?xml version="1.0" encoding="utf-8" ?>
<svg baseProfile="full" height="100px" version="1.1" width="150px" xmlns="http://www.w3.org/2000/svg" xmlns:ev="http://www.w3.org/2001/xml-events" xmlns:xlink="http://www.w3.org/1999/xlink"><defs><clipPath id="mask0"><rect height="100" width="150" x="0" y="0" /></clipPath></defs><g clip-path="url(#mask0)"><rect fill="#ff1ea8" height="100" stroke="none" width="150" x="0" y="0" /></g><g transform="translate(38.639682946805586, 13.639682946805586) scale(0.7272063410638883) rotate(0, 50.0, 50.0)"><path d="M 45.1,76.0 C 44.0,77.2 42.9,78.4 41.800000000000004,79.5 C 40.50000000000001,80.8 38.900000000000006,81.9 37.1,82.4 C 35.5,82.80000000000001 34.0,82.60000000000001 32.6,81.80000000000001 C 32.4,81.70000000000002 32.1,81.50000000000001 32.2,81.20000000000002 C 32.300000000000004,80.90000000000002 32.6,81.00000000000001 32.800000000000004,81.00000000000001 C 36.00000000000001,81.20000000000002 38.2,79.50000000000001 40.1,77.20000000000002 C 41.2,75.90000000000002 42.0,74.40000000000002 42.6,72.80000000000001 C 42.6,72.70000000000002 42.6,72.60000000000001 42.7,72.50000000000001 C 42.6,72.50000000000001 42.5,72.60000000000001 42.5,72.60000000000001 C 39.7,75.30000000000001 36.3,76.7 32.6,77.80000000000001 C 30.5,78.4 28.700000000000003,79.50000000000001 27.0,81.20000000000002 C 26.7,79.10000000000002 27.4,77.70000000000002 28.7,76.40000000000002 C 30.5,74.60000000000002 32.7,73.30000000000003 35.1,72.40000000000002 C 36.4,71.90000000000002 37.800000000000004,71.50000000000001 39.2,71.10000000000002 C 39.7,70.90000000000002 40.0,70.80000000000003 39.5,70.20000000000002 C 39.1,69.70000000000002 38.9,69.10000000000002 39.2,68.40000000000002 C 40.5,68.90000000000002 41.7,69.40000000000002 43.0,68.60000000000002 C 43.8,68.10000000000002 44.1,67.40000000000002 44.3,66.30000000000003 C 43.5,66.60000000000002 42.8,66.90000000000002 42.0,67.10000000000002 C 41.2,67.30000000000003 40.5,67.40000000000002 39.7,66.70000000000002 C 41.0,66.20000000000002 42.2,65.70000000000002 42.7,64.00000000000001 C 41.7,64.60000000000001 40.900000000000006,65.30000000000001 39.800000000000004,65.10000000000001 C 39.7,64.60000000000001 40.400000000000006,64.30000000000001 40.1,63.60000000000001 C 38.800000000000004,64.10000000000001 37.5,64.80000000000001 35.9,64.00000000000001 C 37.3,63.100000000000016 38.4,62.000000000000014 38.3,60.30000000000001 C 38.3,60.10000000000001 38.3,59.90000000000001 38.199999999999996,59.70000000000001 C 38.099999999999994,59.40000000000001 37.99999999999999,59.00000000000001 37.599999999999994,59.10000000000001 C 37.3,59.10000000000001 37.3,59.50000000000001 37.3,59.80000000000001 C 37.3,60.80000000000001 37.0,61.70000000000001 36.099999999999994,62.500000000000014 C 36.099999999999994,61.000000000000014 35.8,59.80000000000001 34.599999999999994,58.80000000000001 C 34.49999999999999,59.40000000000001 34.39999999999999,59.90000000000001 34.39999999999999,60.40000000000001 C 34.099999999999994,63.80000000000001 30.199999999999992,67.50000000000001 25.79999999999999,66.20000000000002 C 24.19999999999999,65.70000000000002 22.59999999999999,65.40000000000002 20.89999999999999,65.00000000000001 C 19.89999999999999,64.80000000000001 18.999999999999993,64.70000000000002 18.699999999999992,66.00000000000001 C 18.59999999999999,66.40000000000002 18.299999999999994,66.60000000000001 17.89999999999999,66.60000000000001 C 17.39999999999999,66.60000000000001 16.999999999999993,66.7 16.59999999999999,67.10000000000001 C 16.29999999999999,67.50000000000001 15.899999999999991,67.60000000000001 15.499999999999991,67.2 C 15.299999999999992,67.10000000000001 15.09999999999999,66.9 14.999999999999991,66.9 C 13.499999999999991,67.2 13.499999999999991,65.80000000000001 12.999999999999991,65.10000000000001 C 12.299999999999992,64.00000000000001 12.399999999999991,63.20000000000001 12.899999999999991,62.30000000000001 C 13.399999999999991,62.30000000000001 13.199999999999992,62.80000000000001 13.399999999999991,63.000000000000014 C 13.799999999999992,63.40000000000001 14.199999999999992,63.600000000000016 14.59999999999999,63.000000000000014 C 14.69999999999999,62.80000000000001 14.79999999999999,62.500000000000014 15.09999999999999,62.30000000000001 C 15.899999999999991,61.80000000000001 15.399999999999991,61.500000000000014 14.899999999999991,61.20000000000001 C 14.699999999999992,61.10000000000001 14.09999999999999,61.30000000000001 14.299999999999992,60.70000000000001 C 14.399999999999991,60.30000000000001 14.799999999999992,60.20000000000001 15.299999999999992,60.20000000000001 C 16.79999999999999,60.20000000000001 18.199999999999992,60.20000000000001 18.89999999999999,61.90000000000001 C 18.89999999999999,62.000000000000014 19.199999999999992,62.100000000000016 19.29999999999999,62.100000000000016 C 21.49999999999999,62.30000000000002 23.59999999999999,62.90000000000001 25.79999999999999,62.70000000000002 C 27.59999999999999,62.600000000000016 28.19999999999999,61.70000000000002 27.39999999999999,60.000000000000014 C 27.09999999999999,59.30000000000001 26.89999999999999,58.600000000000016 26.89999999999999,57.90000000000001 C 26.999999999999993,55.70000000000001 27.59999999999999,53.600000000000016 28.199999999999992,51.500000000000014 C 28.59999999999999,50.100000000000016 29.999999999999993,49.600000000000016 31.499999999999993,50.000000000000014 C 32.89999999999999,50.40000000000001 33.99999999999999,51.30000000000001 35.29999999999999,52.000000000000014 C 35.89999999999999,52.30000000000001 36.39999999999999,52.80000000000001 37.09999999999999,52.40000000000001 C 37.69999999999999,52.000000000000014 37.59999999999999,51.40000000000001 37.59999999999999,50.80000000000001 C 37.59999999999999,49.20000000000001 37.499999999999986,47.500000000000014 37.399999999999984,45.60000000000001 C 36.29999999999998,47.00000000000001 35.79999999999998,48.50000000000001 33.79999999999998,49.00000000000001 C 34.79999999999998,47.60000000000001 35.499999999999986,46.400000000000006 35.19999999999998,44.70000000000001 C 34.899999999999984,45.20000000000001 34.69999999999998,45.50000000000001 34.399999999999984,46.00000000000001 C 34.09999999999999,45.20000000000001 34.399999999999984,44.50000000000001 33.899999999999984,43.900000000000006 C 33.499999999999986,44.900000000000006 33.499999999999986,46.00000000000001 32.399999999999984,46.900000000000006 C 32.0,44.7 32.0,42.5 30.0,40.8 C 30.3,42.699999999999996 30.7,44.4 30.7,46.099999999999994 C 30.7,46.699999999999996 30.7,47.199999999999996 30.599999999999998,47.8 C 30.499999999999996,48.5 30.099999999999998,49.099999999999994 29.299999999999997,49.099999999999994 C 28.299999999999997,48.99999999999999 28.299999999999997,48.3 28.299999999999997,47.599999999999994 C 28.499999999999996,45.599999999999994 28.199999999999996,43.699999999999996 27.499999999999996,41.8 C 27.399999999999995,41.599999999999994 27.299999999999997,41.4 27.099999999999998,41.199999999999996 C 26.999999999999996,44.699999999999996 26.4,47.99999999999999 24.9,51.099999999999994 C 25.2,49.699999999999996 25.599999999999998,48.39999999999999 25.7,46.99999999999999 C 25.8,45.599999999999994 25.8,44.099999999999994 25.4,42.599999999999994 C 25.0,42.89999999999999 25.0,43.3 24.799999999999997,43.699999999999996 C 24.299999999999997,45.4 23.699999999999996,47.099999999999994 22.799999999999997,48.599999999999994 C 22.299999999999997,49.49999999999999 21.799999999999997,50.099999999999994 20.699999999999996,49.599999999999994 C 19.699999999999996,49.199999999999996 19.499999999999996,48.3 20.099999999999994,47.099999999999994 C 21.099999999999994,45.199999999999996 21.999999999999993,43.199999999999996 22.699999999999996,41.099999999999994 C 22.799999999999997,40.699999999999996 23.099999999999994,40.39999999999999 22.799999999999997,39.699999999999996 C 21.199999999999996,41.99999999999999 19.799999999999997,44.199999999999996 17.799999999999997,45.9 C 19.699999999999996,43.4 21.4,40.699999999999996 22.299999999999997,37.599999999999994 C 21.599999999999998,37.699999999999996 21.499999999999996,38.099999999999994 21.299999999999997,38.39999999999999 C 19.699999999999996,40.29999999999999 18.199999999999996,42.099999999999994 16.599999999999998,43.99999999999999 C 16.299999999999997,44.29999999999999 16.099999999999998,44.599999999999994 15.699999999999998,44.89999999999999 C 14.999999999999998,45.39999999999999 14.099999999999998,45.49999999999999 13.399999999999999,44.89999999999999 C 12.7,44.29999999999999 12.799999999999999,43.49999999999999 13.2,42.69999999999999 C 13.399999999999999,42.19999999999999 13.899999999999999,41.89999999999999 14.299999999999999,41.59999999999999 C 16.2,40.09999999999999 18.0,38.399999999999984 19.5,36.499999999999986 C 19.8,36.19999999999999 20.2,35.899999999999984 20.1,35.19999999999999 C 18.8,36.09999999999999 17.700000000000003,37.09999999999999 16.3,37.59999999999999 C 14.9,38.19999999999999 13.5,38.69999999999999 11.9,38.399999999999984 C 14.8,37.499999999999986 17.3,36.09999999999999 19.7,33.69999999999998 C 18.3,33.99999999999998 17.5,34.49999999999998 16.5,34.899999999999984 C 15.5,35.29999999999998 14.5,35.69999999999998 13.4,35.79999999999998 C 12.700000000000001,35.899999999999984 12.1,35.69999999999998 11.8,34.999999999999986 C 11.5,34.19999999999999 11.9,33.69999999999999 12.5,33.29999999999998 C 13.3,32.79999999999998 14.2,32.59999999999998 15.2,32.399999999999984 C 16.0,32.29999999999998 16.8,32.29999999999998 17.8,31.699999999999985 C 15.5,30.899999999999984 13.0,30.899999999999984 11.4,28.999999999999986 C 13.7,29.599999999999987 15.8,30.699999999999985 18.6,30.499999999999986 C 17.5,29.899999999999984 16.6,29.399999999999984 15.8,28.799999999999986 C 14.3,27.899999999999988 12.9,26.799999999999986 11.700000000000001,25.599999999999987 C 10.9,24.69999999999999 10.600000000000001,23.69999999999999 10.8,22.599999999999987 C 10.9,22.19999999999999 11.0,21.799999999999986 11.4,21.69999999999999 C 11.9,21.599999999999987 12.1,21.99999999999999 12.4,22.29999999999999 C 13.8,24.19999999999999 15.4,25.99999999999999 17.3,27.29999999999999 C 17.7,27.59999999999999 18.0,27.99999999999999 18.6,27.89999999999999 C 18.5,27.39999999999999 18.0,27.09999999999999 17.700000000000003,26.79999999999999 C 15.500000000000004,24.59999999999999 13.700000000000003,22.29999999999999 12.300000000000002,19.49999999999999 C 12.200000000000003,19.399999999999988 12.100000000000003,19.19999999999999 12.100000000000003,19.09999999999999 C 12.000000000000004,18.79999999999999 11.600000000000003,18.39999999999999 12.000000000000004,18.199999999999992 C 12.400000000000004,17.999999999999993 12.500000000000004,18.499999999999993 12.700000000000003,18.799999999999994 C 13.400000000000002,19.999999999999993 14.100000000000003,21.099999999999994 15.000000000000004,22.199999999999992 C 15.500000000000004,22.799999999999994 15.900000000000004,23.499999999999993 16.700000000000003,23.89999999999999 C 16.900000000000002,23.29999999999999 16.400000000000002,22.999999999999993 16.200000000000003,22.59999999999999 C 13.400000000000002,18.699999999999992 11.600000000000003,14.499999999999991 11.100000000000003,9.69999999999999 C 11.100000000000003,9.39999999999999 11.000000000000004,9.09999999999999 11.100000000000003,8.69999999999999 C 11.100000000000003,8.39999999999999 11.300000000000002,8.09999999999999 11.700000000000003,7.99999999999999 C 12.100000000000003,7.899999999999991 12.400000000000002,8.09999999999999 12.700000000000003,8.39999999999999 C 13.0,8.4 13.1,8.7 13.2,9.0 C 15.8,16.7 21.0,22.4 27.7,27.0 C 28.3,27.4 28.9,27.8 29.4,28.3 C 30.2,29.1 30.2,29.900000000000002 29.4,30.7 C 29.099999999999998,31.0 28.7,31.3 28.4,31.599999999999998 C 27.9,32.099999999999994 27.599999999999998,32.8 27.9,33.5 C 28.2,34.2 28.9,34.7 29.599999999999998,34.7 C 30.999999999999996,34.6 32.099999999999994,35.1 33.3,35.800000000000004 C 34.5,36.6 36.5,36.2 37.599999999999994,35.00000000000001 C 38.39999999999999,34.20000000000001 38.8,33.10000000000001 38.89999999999999,31.900000000000006 C 38.29999999999999,31.900000000000006 37.79999999999999,32.400000000000006 37.099999999999994,32.2 C 37.89999999999999,31.200000000000003 39.199999999999996,30.300000000000004 38.699999999999996,28.700000000000003 C 37.99999999999999,29.300000000000004 37.699999999999996,30.200000000000003 36.699999999999996,30.400000000000002 C 36.699999999999996,29.500000000000004 37.099999999999994,28.700000000000003 36.8,27.8 C 36.3,27.900000000000002 36.099999999999994,28.5 35.5,28.400000000000002 C 35.1,25.700000000000003 35.1,25.700000000000003 32.2,25.6 C 31.500000000000004,25.6 30.800000000000004,25.5 30.200000000000003,25.0 C 30.1,24.9 29.900000000000002,24.7 29.900000000000002,24.5 C 30.000000000000004,24.2 30.200000000000003,24.3 30.400000000000002,24.3 C 31.1,24.3 31.900000000000002,24.400000000000002 32.5,23.7 C 32.0,23.5 31.6,23.599999999999998 31.2,23.7 C 29.599999999999998,23.9 28.0,24.099999999999998 26.5,23.4 C 25.1,22.799999999999997 24.5,21.4 25.3,20.4 C 25.7,19.9 26.1,19.5 26.7,20.0 C 27.2,20.4 27.099999999999998,20.7 26.599999999999998,21.2 C 25.9,21.9 26.599999999999998,22.5 27.299999999999997,22.9 C 28.199999999999996,23.4 29.299999999999997,23.4 30.299999999999997,23.4 C 30.999999999999996,23.4 31.599999999999998,23.299999999999997 32.3,23.299999999999997 C 32.599999999999994,23.299999999999997 33.0,23.299999999999997 33.0,22.9 C 33.0,22.5 32.5,22.5 32.2,22.5 C 31.000000000000004,22.2 29.900000000000002,22.7 28.500000000000004,23.0 C 28.900000000000002,21.7 29.800000000000004,21.2 30.900000000000002,20.9 C 31.8,20.599999999999998 32.6,20.5 33.2,19.599999999999998 C 33.7,18.799999999999997 34.800000000000004,18.599999999999998 35.7,18.599999999999998 C 37.2,18.599999999999998 38.7,18.599999999999998 40.300000000000004,18.7 C 41.400000000000006,18.7 42.6,18.7 43.800000000000004,18.4 C 43.7,19.4 43.1,19.9 42.6,20.5 C 42.0,21.2 41.800000000000004,21.7 42.6,22.5 C 43.9,23.7 44.6,25.4 46.0,26.6 C 45.4,27.1 44.9,26.5 44.3,26.8 C 45.199999999999996,28.400000000000002 46.699999999999996,29.3 48.199999999999996,30.3 C 47.4,30.8 46.699999999999996,30.3 45.699999999999996,30.6 C 46.99999999999999,31.6 48.199999999999996,32.6 49.4,33.4 C 49.699999999999996,33.6 50.0,33.3 50.3,33.199999999999996 C 51.599999999999994,32.49999999999999 52.5,31.399999999999995 53.599999999999994,30.099999999999994 C 52.699999999999996,29.799999999999994 51.99999999999999,30.499999999999993 51.099999999999994,30.099999999999994 C 52.699999999999996,29.099999999999994 54.099999999999994,27.899999999999995 54.99999999999999,26.099999999999994 C 54.29999999999999,26.099999999999994 53.79999999999999,26.099999999999994 52.99999999999999,26.099999999999994 C 54.89999999999999,24.599999999999994 55.099999999999994,22.399999999999995 56.699999999999996,20.999999999999993 C 57.199999999999996,20.599999999999994 56.699999999999996,20.199999999999992 56.3,19.999999999999993 C 55.8,19.599999999999994 55.199999999999996,19.39999999999999 54.9,18.89999999999999 C 54.8,18.699999999999992 54.6,18.39999999999999 54.8,18.199999999999992 C 54.9,18.09999999999999 55.199999999999996,18.09999999999999 55.4,18.09999999999999 C 57.0,18.49999999999999 58.5,18.09999999999999 60.0,17.89999999999999 C 62.1,17.699999999999992 64.2,17.59999999999999 65.7,19.59999999999999 C 66.0,19.99999999999999 66.60000000000001,19.89999999999999 67.10000000000001,19.99999999999999 C 68.30000000000001,20.29999999999999 69.50000000000001,20.399999999999988 70.30000000000001,21.79999999999999 C 69.4,21.59999999999999 68.70000000000002,21.39999999999999 68.00000000000001,21.29999999999999 C 67.60000000000001,21.19999999999999 67.00000000000001,21.29999999999999 66.90000000000002,21.79999999999999 C 66.80000000000003,22.39999999999999 67.50000000000001,22.19999999999999 67.80000000000003,22.29999999999999 C 68.90000000000002,22.39999999999999 70.00000000000003,22.39999999999999 71.10000000000002,22.09999999999999 C 72.50000000000003,21.699999999999992 72.70000000000002,20.99999999999999 71.80000000000003,19.89999999999999 C 71.70000000000003,19.79999999999999 71.50000000000003,19.59999999999999 71.60000000000002,19.39999999999999 C 71.70000000000002,19.199999999999992 71.90000000000002,19.199999999999992 72.10000000000002,19.199999999999992 C 72.80000000000003,19.199999999999992 73.30000000000003,19.499999999999993 73.60000000000002,20.09999999999999 C 73.90000000000002,20.699999999999992 73.70000000000002,21.29999999999999 73.30000000000003,21.79999999999999 C 72.70000000000003,22.39999999999999 72.00000000000003,22.59999999999999 71.20000000000003,22.69999999999999 C 69.50000000000003,22.99999999999999 67.90000000000003,22.599999999999987 66.10000000000004,22.69999999999999 C 66.90000000000003,24.19999999999999 68.10000000000004,23.49999999999999 69.20000000000003,23.49999999999999 C 68.40000000000003,24.69999999999999 67.30000000000003,24.79999999999999 66.10000000000004,24.79999999999999 C 63.30000000000004,24.89999999999999 63.20000000000004,24.89999999999999 64.30000000000004,27.49999999999999 C 64.30000000000004,27.49999999999999 64.30000000000004,27.59999999999999 64.30000000000004,27.69999999999999 C 63.60000000000004,27.69999999999999 63.30000000000004,26.99999999999999 62.70000000000004,26.79999999999999 C 62.40000000000004,27.79999999999999 63.10000000000004,28.59999999999999 63.20000000000004,29.49999999999999 C 62.40000000000004,29.399999999999988 62.40000000000004,29.399999999999988 61.10000000000004,27.99999999999999 C 60.70000000000004,29.09999999999999 60.70000000000004,29.19999999999999 62.80000000000004,31.399999999999988 C 62.10000000000004,31.69999999999999 61.60000000000004,30.99999999999999 61.00000000000004,31.099999999999987 C 61.200000000000045,34.59999999999999 64.30000000000004,36.29999999999999 67.30000000000004,34.499999999999986 C 68.20000000000005,33.999999999999986 69.10000000000004,33.59999999999999 70.20000000000005,33.59999999999999 C 71.00000000000004,33.59999999999999 71.80000000000004,33.399999999999984 72.10000000000005,32.59999999999999 C 72.50000000000006,31.799999999999986 71.90000000000005,31.099999999999987 71.50000000000006,30.499999999999986 C 71.30000000000005,30.299999999999986 71.10000000000005,30.099999999999987 70.90000000000006,29.899999999999984 C 69.50000000000006,28.599999999999984 69.50000000000006,28.099999999999984 71.00000000000006,26.799999999999983 C 72.30000000000005,25.69999999999998 73.50000000000006,24.599999999999984 74.80000000000005,23.499999999999982 C 79.50000000000006,19.399999999999984 82.70000000000006,14.399999999999983 84.60000000000005,8.499999999999982 C 84.80000000000005,7.799999999999982 85.00000000000006,6.599999999999982 86.00000000000006,6.799999999999982 C 87.10000000000005,6.999999999999982 86.80000000000005,8.099999999999982 86.80000000000005,8.899999999999983 C 86.80000000000005,13.299999999999983 85.30000000000005,17.299999999999983 82.80000000000005,20.999999999999982 C 82.10000000000005,21.999999999999982 81.40000000000005,22.89999999999998 80.80000000000005,23.89999999999998 C 80.70000000000006,23.999999999999982 80.70000000000006,23.999999999999982 80.60000000000005,24.09999999999998 C 80.50000000000006,24.19999999999998 80.30000000000005,24.29999999999998 80.40000000000005,24.39999999999998 C 80.50000000000004,24.499999999999982 80.70000000000005,24.499999999999982 80.80000000000005,24.29999999999998 C 80.90000000000005,24.199999999999978 81.00000000000006,24.199999999999978 81.10000000000005,24.09999999999998 C 82.90000000000005,22.89999999999998 83.90000000000005,21.09999999999998 85.00000000000006,19.39999999999998 C 85.50000000000006,18.69999999999998 85.80000000000005,17.79999999999998 86.60000000000005,17.39999999999998 C 85.50000000000006,20.69999999999998 83.80000000000005,23.59999999999998 81.30000000000005,26.09999999999998 C 81.20000000000006,26.19999999999998 81.10000000000005,26.29999999999998 81.00000000000006,26.49999999999998 C 80.90000000000006,26.49999999999998 80.70000000000006,26.49999999999998 80.70000000000006,26.699999999999978 C 80.70000000000006,26.699999999999978 81.00000000000006,26.699999999999978 81.10000000000007,26.699999999999978 C 81.20000000000006,26.599999999999977 81.40000000000006,26.49999999999998 81.50000000000007,26.399999999999977 C 83.20000000000007,25.399999999999977 84.30000000000007,23.699999999999978 85.40000000000008,22.199999999999978 C 85.80000000000008,21.599999999999977 86.20000000000007,21.099999999999977 86.60000000000008,20.49999999999998 C 86.90000000000008,20.09999999999998 87.40000000000008,19.699999999999978 88.00000000000009,19.99999999999998 C 88.60000000000008,20.199999999999978 88.70000000000009,20.79999999999998 88.70000000000009,21.29999999999998 C 88.70000000000009,22.39999999999998 88.20000000000009,23.39999999999998 87.50000000000009,24.199999999999978 C 85.80000000000008,26.099999999999977 84.00000000000009,27.899999999999977 81.70000000000009,29.09999999999998 C 84.1000000000001,29.29999999999998 86.1000000000001,27.99999999999998 88.20000000000009,27.39999999999998 C 86.6000000000001,29.19999999999998 84.40000000000009,29.79999999999998 82.1000000000001,30.499999999999982 C 82.70000000000009,30.999999999999982 83.20000000000009,30.999999999999982 83.8000000000001,30.999999999999982 C 84.90000000000009,31.099999999999984 86.1000000000001,31.099999999999984 87.2000000000001,31.599999999999984 C 87.9000000000001,31.999999999999982 88.60000000000011,32.399999999999984 88.4000000000001,33.29999999999998 C 88.2000000000001,34.29999999999998 87.30000000000011,34.29999999999998 86.5000000000001,34.29999999999998 C 85.2000000000001,34.29999999999998 83.9000000000001,33.79999999999998 82.7000000000001,33.399999999999984 C 82.3000000000001,33.29999999999998 81.9000000000001,32.899999999999984 81.2000000000001,33.09999999999999 C 83.4000000000001,35.19999999999999 86.0000000000001,36.09999999999999 88.8000000000001,36.69999999999999 C 87.2000000000001,37.59999999999999 84.6000000000001,36.69999999999999 80.3000000000001,34.09999999999999 C 80.2000000000001,34.09999999999999 80.1000000000001,33.999999999999986 80.0000000000001,33.999999999999986 C 80.0000000000001,34.09999999999999 80.0000000000001,34.19999999999999 80.0000000000001,34.29999999999998 C 81.1000000000001,35.999999999999986 82.7000000000001,37.29999999999998 84.3000000000001,38.499999999999986 C 85.0000000000001,39.09999999999999 85.90000000000009,39.59999999999999 86.40000000000009,40.29999999999998 C 87.00000000000009,41.19999999999998 87.20000000000009,42.09999999999998 86.40000000000009,42.999999999999986 C 85.6000000000001,43.79999999999998 84.70000000000009,43.499999999999986 83.90000000000009,42.999999999999986 C 82.20000000000009,41.999999999999986 81.00000000000009,40.399999999999984 79.8000000000001,38.899999999999984 C 79.2000000000001,38.09999999999999 78.6000000000001,37.29999999999998 78.0000000000001,36.499999999999986 C 77.9000000000001,36.399999999999984 77.9000000000001,36.19999999999999 77.7000000000001,36.29999999999998 C 77.60000000000011,36.29999999999998 77.7000000000001,36.59999999999998 77.8000000000001,36.69999999999998 C 78.2000000000001,38.29999999999998 78.90000000000009,39.69999999999998 79.8000000000001,41.09999999999998 C 80.6000000000001,42.39999999999998 81.7000000000001,43.59999999999998 82.6000000000001,44.89999999999998 C 79.90000000000009,43.299999999999976 78.40000000000009,40.699999999999974 76.8000000000001,37.99999999999998 C 76.7000000000001,38.89999999999998 77.0000000000001,39.39999999999998 77.2000000000001,39.99999999999998 C 77.8000000000001,41.99999999999998 78.8000000000001,43.799999999999976 79.8000000000001,45.59999999999998 C 80.0000000000001,45.99999999999998 80.2000000000001,46.29999999999998 80.3000000000001,46.69999999999998 C 80.6000000000001,47.49999999999998 80.3000000000001,48.29999999999998 79.5000000000001,48.59999999999998 C 78.7000000000001,48.99999999999998 78.1000000000001,48.59999999999998 77.6000000000001,47.89999999999998 C 76.5000000000001,46.199999999999974 75.8000000000001,44.299999999999976 75.3000000000001,42.39999999999998 C 75.2000000000001,41.99999999999998 75.1000000000001,41.59999999999998 75.0000000000001,41.199999999999974 C 74.5000000000001,41.99999999999997 74.4000000000001,43.49999999999997 74.6000000000001,45.39999999999998 C 74.8000000000001,46.799999999999976 75.3000000000001,48.09999999999998 75.6000000000001,49.39999999999998 C 73.70000000000009,46.59999999999998 73.5000000000001,43.299999999999976 73.40000000000009,39.799999999999976 C 72.50000000000009,41.09999999999997 72.40000000000009,42.299999999999976 72.20000000000009,43.39999999999998 C 72.00000000000009,44.299999999999976 72.00000000000009,45.199999999999974 72.1000000000001,46.199999999999974 C 72.20000000000009,46.99999999999997 72.1000000000001,47.699999999999974 71.1000000000001,47.799999999999976 C 70.1000000000001,47.89999999999998 69.6000000000001,47.299999999999976 69.5000000000001,46.39999999999998 C 69.3000000000001,44.699999999999974 69.6000000000001,43.09999999999998 69.9000000000001,41.49999999999998 C 70.0000000000001,41.09999999999998 70.2000000000001,40.799999999999976 69.9000000000001,40.19999999999998 C 68.10000000000011,41.899999999999984 68.10000000000011,44.09999999999998 67.9000000000001,46.49999999999998 C 66.60000000000011,45.59999999999998 66.80000000000011,44.299999999999976 66.30000000000011,43.09999999999998 C 65.9000000000001,43.79999999999998 66.20000000000012,44.39999999999998 66.00000000000011,44.99999999999998 C 65.50000000000011,44.89999999999998 65.60000000000011,44.299999999999976 65.10000000000011,44.09999999999998 C 64.9000000000001,45.69999999999998 65.80000000000011,46.89999999999998 66.7000000000001,48.09999999999998 C 64.8000000000001,47.69999999999998 64.0000000000001,46.19999999999998 63.1000000000001,44.59999999999998 C 62.7000000000001,45.89999999999998 62.9000000000001,46.99999999999998 62.800000000000104,48.09999999999998 C 62.800000000000104,49.19999999999998 62.800000000000104,50.29999999999998 62.800000000000104,51.39999999999998 C 62.800000000000104,51.89999999999998 62.900000000000105,52.299999999999976 63.400000000000105,52.49999999999998 C 63.900000000000105,52.69999999999998 64.30000000000011,52.49999999999998 64.60000000000011,52.19999999999998 C 65.10000000000011,51.69999999999998 65.7000000000001,51.19999999999998 66.2000000000001,50.69999999999998 C 68.3000000000001,48.69999999999998 71.10000000000011,48.99999999999998 71.9000000000001,51.69999999999998 C 72.7000000000001,54.19999999999998 74.30000000000011,56.899999999999984 72.30000000000011,59.69999999999998 C 71.60000000000011,60.59999999999998 72.9000000000001,62.59999999999998 74.10000000000011,62.69999999999998 C 76.30000000000011,62.899999999999984 78.2000000000001,61.99999999999998 80.10000000000011,60.899999999999984 C 80.50000000000011,60.59999999999999 80.4000000000001,60.19999999999998 80.4000000000001,59.79999999999998 C 80.60000000000011,58.399999999999984 82.0000000000001,56.999999999999986 83.30000000000011,56.79999999999998 C 83.70000000000012,56.69999999999998 84.10000000000011,56.69999999999998 84.30000000000011,57.09999999999998 C 84.60000000000011,57.59999999999998 84.10000000000011,57.59999999999998 83.9000000000001,57.79999999999998 C 83.4000000000001,58.19999999999998 83.60000000000011,58.69999999999998 83.7000000000001,59.19999999999998 C 84.3000000000001,59.09999999999998 84.60000000000011,58.49999999999998 85.2000000000001,58.29999999999998 C 86.5000000000001,57.899999999999984 86.8000000000001,58.09999999999998 87.0000000000001,59.399999999999984 C 87.1000000000001,59.999999999999986 86.9000000000001,60.499999999999986 86.5000000000001,60.999999999999986 C 86.3000000000001,61.19999999999999 85.9000000000001,61.29999999999998 86.1000000000001,61.59999999999999 C 86.3000000000001,61.899999999999984 86.70000000000009,61.69999999999999 86.8000000000001,61.29999999999999 C 87.2000000000001,60.49999999999999 88.0000000000001,60.49999999999999 88.7000000000001,60.19999999999999 C 89.10000000000011,60.09999999999999 89.3000000000001,60.29999999999999 89.5000000000001,60.59999999999999 C 90.0000000000001,61.69999999999999 89.7000000000001,62.899999999999984 88.5000000000001,63.59999999999999 C 88.0000000000001,63.899999999999984 87.4000000000001,63.999999999999986 87.0000000000001,64.39999999999999 C 86.1000000000001,65.19999999999999 85.4000000000001,64.8 84.4000000000001,64.39999999999999 C 83.10000000000011,63.89999999999999 81.7000000000001,62.89999999999999 80.10000000000011,63.99999999999999 C 78.50000000000011,65.1 76.60000000000011,65.89999999999999 74.7000000000001,66.5 C 72.4000000000001,67.3 70.5000000000001,66.8 68.7000000000001,65.3 C 66.5000000000001,63.4 65.5000000000001,61.0 65.5000000000001,57.9 C 64.2000000000001,58.8 63.6000000000001,59.8 63.6000000000001,61.199999999999996 C 62.7000000000001,60.599999999999994 62.9000000000001,59.8 62.9000000000001,59.099999999999994 C 62.9000000000001,58.8 63.1000000000001,58.3 62.5000000000001,58.199999999999996 C 62.0000000000001,58.099999999999994 62.0000000000001,58.599999999999994 61.8000000000001,58.9 C 61.200000000000095,61.0 61.700000000000095,62.199999999999996 64.0000000000001,63.5 C 63.0000000000001,64.3 63.0000000000001,64.3 59.8000000000001,62.5 C 59.600000000000094,63.4 59.600000000000094,63.4 60.100000000000094,64.6 C 59.200000000000095,65.0 58.600000000000094,64.5 57.90000000000009,63.99999999999999 C 57.70000000000009,65.19999999999999 57.80000000000009,65.39999999999999 59.600000000000094,66.3 C 58.00000000000009,67.39999999999999 56.8000000000001,66.5 55.50000000000009,65.7 C 55.00000000000009,67.4 55.80000000000009,68.4 57.50000000000009,68.4 C 58.40000000000009,68.4 59.200000000000095,68.10000000000001 60.00000000000009,67.80000000000001 C 60.200000000000095,67.70000000000002 60.40000000000009,67.50000000000001 60.700000000000095,67.70000000000002 C 60.9000000000001,67.90000000000002 60.8000000000001,68.20000000000002 60.700000000000095,68.50000000000001 C 60.4000000000001,69.30000000000001 59.700000000000095,69.80000000000001 59.00000000000009,70.10000000000001 C 58.200000000000095,70.4 58.40000000000009,70.7 58.90000000000009,71.2 C 60.00000000000009,72.0 61.20000000000009,72.7 62.600000000000094,73.0 C 65.0000000000001,73.5 67.20000000000009,74.5 69.0000000000001,76.1 C 70.5000000000001,77.39999999999999 71.5000000000001,79.1 71.6000000000001,81.1 C 71.6000000000001,81.3 71.70000000000009,81.6 71.40000000000009,81.69999999999999 C 71.20000000000009,81.79999999999998 71.00000000000009,81.6 70.90000000000009,81.49999999999999 C 69.3000000000001,79.29999999999998 66.8000000000001,78.59999999999998 64.3000000000001,78.09999999999998 C 61.4000000000001,77.59999999999998 58.700000000000095,76.69999999999997 57.0000000000001,74.19999999999997 C 56.8000000000001,73.89999999999998 56.4000000000001,73.49999999999997 55.9000000000001,73.49999999999997 C 56.4000000000001,76.79999999999997 59.9000000000001,80.79999999999997 62.8000000000001,81.39999999999998 C 63.5000000000001,81.49999999999997 64.1000000000001,81.49999999999997 64.8000000000001,81.49999999999997 C 65.0000000000001,81.49999999999997 65.3000000000001,81.49999999999997 65.40000000000009,81.79999999999997 C 65.50000000000009,82.09999999999997 65.20000000000009,82.19999999999997 65.00000000000009,82.29999999999997 C 63.20000000000009,83.39999999999996 61.30000000000008,83.39999999999996 59.500000000000085,82.29999999999997 C 57.500000000000085,81.09999999999997 55.900000000000084,79.39999999999996 54.30000000000008,77.69999999999997 C 53.80000000000008,77.09999999999998 53.30000000000008,76.59999999999998 52.70000000000008,75.89999999999998 C 52.50000000000008,76.99999999999997 53.00000000000008,77.59999999999998 53.30000000000008,78.29999999999998 C 54.10000000000008,79.89999999999998 55.000000000000085,81.29999999999998 55.60000000000008,82.99999999999999 C 56.50000000000008,85.49999999999999 56.00000000000008,87.29999999999998 53.90000000000008,88.99999999999999 C 53.300000000000075,89.49999999999999 53.00000000000008,89.89999999999999 53.200000000000074,90.79999999999998 C 53.700000000000074,92.39999999999998 52.90000000000008,93.69999999999999 52.00000000000007,94.89999999999998 C 50.80000000000007,96.49999999999997 49.40000000000007,97.99999999999997 48.60000000000007,100.19999999999997 C 47.90000000000007,98.09999999999998 46.700000000000074,96.69999999999997 45.60000000000007,95.09999999999998 C 44.60000000000007,93.59999999999998 43.90000000000007,92.09999999999998 44.60000000000007,90.19999999999997 C 44.800000000000075,89.69999999999997 44.50000000000007,89.49999999999997 44.200000000000074,89.29999999999997 C 41.800000000000075,87.39999999999996 41.50000000000007,84.99999999999997 42.50000000000007,82.39999999999996 C 43.00000000000007,81.09999999999997 43.60000000000007,79.89999999999996 44.200000000000074,78.69999999999996 C 44.60000000000007,77.89999999999996 45.00000000000007,77.19999999999996 45.00000000000007,76.29999999999995 C 45.00000000000007,76.19999999999996 45.00000000000007,76.09999999999995 45.00000000000007,75.99999999999996 C 45.1,75.9 45.1,75.9 45.1,76.0 M 38.1,21.3 C 37.6,20.400000000000002 37.1,20.2 36.4,20.7 C 36.9,20.8 37.3,21.0 38.1,21.3 M 61.0,20.6 C 61.8,20.3 62.3,20.1 63.1,19.700000000000003 C 62.0,19.4 61.5,19.6 61.0,20.6 M 19.1,27.8 C 19.0,27.8 19.0,27.8 18.900000000000002,27.900000000000002 C 18.900000000000002,28.000000000000004 19.000000000000004,28.000000000000004 19.000000000000004,28.1 C 19.000000000000004,28.1 19.100000000000005,28.1 19.100000000000005,28.0 C 19.1,27.9 19.1,27.9 19.1,27.8 M 17.6,24.2 C 17.6,24.2 17.5,24.2 17.6,24.2 C 17.5,24.3 17.6,24.3 17.6,24.4 C 17.6,24.3 17.7,24.3 17.6,24.2 C 17.7,24.2 17.6,24.2 17.6,24.2 M 81.0,32.9 L 81.0,32.9 L 81.0,32.9 L 81.0,32.9 M 22.6,37.3 L 22.6,37.3 L 22.6,37.3 L 22.6,37.3" fill="#75197d" stroke="none" stroke-width="2.0px" /><path d="M 53.3,6.1 C 55.3,6.3999999999999995 57.0,7.0 58.099999999999994,8.5 C 58.99999999999999,9.6 58.89999999999999,9.7 57.599999999999994,10.2 C 55.99999999999999,10.799999999999999 54.39999999999999,11.0 52.8,10.6 C 51.9,10.4 51.699999999999996,10.5 51.8,11.4 C 52.0,13.200000000000001 51.3,14.600000000000001 50.0,15.8 C 49.5,16.3 49.2,16.2 48.7,15.8 C 47.5,14.700000000000001 46.800000000000004,13.3 46.900000000000006,11.600000000000001 C 47.00000000000001,10.700000000000001 47.00000000000001,10.3 45.800000000000004,10.600000000000001 C 44.1,11.000000000000002 42.400000000000006,10.700000000000001 40.800000000000004,10.000000000000002 C 40.1,9.700000000000001 40.00000000000001,9.400000000000002 40.400000000000006,8.800000000000002 C 41.300000000000004,7.500000000000003 42.50000000000001,6.700000000000003 44.10000000000001,6.3000000000000025 C 44.50000000000001,6.200000000000003 45.00000000000001,6.100000000000002 45.50000000000001,6.000000000000003 C 44.60000000000001,4.700000000000003 43.70000000000001,3.5000000000000027 43.70000000000001,1.900000000000003 C 43.60000000000001,-0.09999999999999698 44.10000000000001,-0.4999999999999969 46.10000000000001,0.30000000000000293 C 47.400000000000006,0.8000000000000029 48.10000000000001,1.5000000000000029 49.400000000000006,3.500000000000003 C 49.800000000000004,3.000000000000003 50.10000000000001,2.500000000000003 50.400000000000006,2.000000000000003 C 51.300000000000004,0.900000000000003 52.400000000000006,0.20000000000000306 53.800000000000004,3.1086244689504383e-15 C 54.6,-0.1999999999999969 55.00000000000001,0.10000000000000311 55.1,1.000000000000003 C 55.2,2.400000000000003 54.9,3.7000000000000033 54.1,4.900000000000003 C 54.0,5.2 53.7,5.6 53.3,6.1" fill="#0066cc" stroke="none" stroke-width="2.0px" /></g></svg>