<?xml version="1.0" encoding="utf-8" ?>
<svg baseProfile="full" height="100px" version="1.1" width="150px" xmlns="http://www.w3.org/2000/svg" xmlns:ev="http://www.w3.org/2001/xml-events" xmlns:xlink="http://www.w3.org/1999/xlink"><defs><clipPath id="mask0"><rect height="100" width="150" x="0" y="0" /></clipPath></defs><g clip-path="url(#mask0)"><path d="M0,0 L0.0,150.0 L51.303021498850306,140.95389311788625 z" fill="#ffffff" stroke="none" transform="translate(75.0, 50.0)" /><path d="M0,0 L51.303021498850306,140.95389311788625 L96.41814145298089,114.9066664678467 z" fill="#ff3333" stroke="none" transform="translate(75.0, 50.0)" /><path d="M0,0 L96.41814145298089,114.9066664678467 L129.9038105676658,75.00000000000001 z" fill="#ffffff" stroke="none" transform="translate(75.0, 50.0)" /><path d="M0,0 L129.9038105676658,75.00000000000001 L147.7211629518312,26.047226650039562 z" fill="#ff3333" stroke="none" transform="translate(75.0, 50.0)" /><path d="M0,0 L147.7211629518312,26.047226650039562 L147.7211629518312,-26.047226650039544 z" fill="#ffffff" stroke="none" transform="translate(75.0, 50.0)" /><path d="M0,0 L147.7211629518312,-26.047226650039544 L129.9038105676658,-74.99999999999997 z" fill="#ff3333" stroke="none" transform="translate(75.0, 50.0)" /><path d="M0,0 L129.9038105676658,-74.99999999999997 L96.41814145298092,-114.90666646784669 z" fill="#ffffff" stroke="none" transform="translate(75.0, 50.0)" /><path d="M0,0 L96.41814145298092,-114.90666646784669 L51.303021498850335,-140.95389311788625 z" fill="#ff3333" stroke="none" transform="translate(75.0, 50.0)" /><path d="M0,0 L51.303021498850335,-140.95389311788625 L1.8369701987210297e-14,-150.0 z" fill="#ffffff" stroke="none" transform="translate(75.0, 50.0)" /><path d="M0,0 L1.8369701987210297e-14,-150.0 L-51.3030214988503,-140.95389311788625 z" fill="#ff3333" stroke="none" transform="translate(75.0, 50.0)" /><path d="M0,0 L-51.3030214988503,-140.95389311788625 L-96.41814145298089,-114.9066664678467 z" fill="#ffffff" stroke="none" transform="translate(75.0, 50.0)" /><path d="M0,0 L-96.41814145298089,-114.9066664678467 L-129.90381056766577,-75.00000000000007 z" fill="#ff3333" stroke="none" transform="translate(75.0, 50.0)" /><path d="M0,0 L-129.90381056766577,-75.00000000000007 L-147.7211629518312,-26.04722665003955 z" fill="#ffffff" stroke="none" transform="translate(75.0, 50.0)" /><path d="M0,0 L-147.7211629518312,-26.04722665003955 L-147.72116295183122,26.047226650039494 z" fill="#ff3333" stroke="none" transform="translate(75.0, 50.0)" /><path d="M0,0 L-147.72116295183122,26.047226650039494 L-129.9038105676658,75.00000000000001 z" fill="#ffffff" stroke="none" transform="translate(75.0, 50.0)" /><path d="M0,0 L-129.9038105676658,75.00000000000001 L-96.41814145298093,114.90666646784666 z" fill="#ff3333" stroke="none" transform="translate(75.0, 50.0)" /><path d="M0,0 L-96.41814145298093,114.90666646784666 L-51.30302149885041,140.95389311788622 z" fill="#ffffff" stroke="none" transform="translate(75.0, 50.0)" /><path d="M0,0 L-51.30302149885041,140.95389311788622 L-3.6739403974420595e-14,150.0 z" fill="#ff3333" stroke="none" transform="translate(75.0, 50.0)" /></g><g transform="translate(45.21286166003916, 16.21286166003916) scale(0.5957427667992168) rotate(0, 50.0, 50.0)"><path d="M 50.0,0.0 L 55.9,18.8 L 75.3,18.8 L 59.7,30.1 L 65.60000000000001,48.400000000000006 L 50.0,37.1 L 34.4,48.4 L 40.3,30.099999999999998 L 24.7,18.8 L 44.099999999999994,18.8 C 44.1,18.8 50.0,0.0 50.0,0.0 M 96.8,55.9 L 87.1,72.6 L 100.0,87.1 L 81.2,82.8 L 71.5,100.0 L 69.3,80.6 L 50.5,76.3 L 68.2,68.2 L 66.0,49.400000000000006 L 78.9,63.400000000000006 L 96.8,55.9 M 3.2,55.9 L 21.0,63.4 L 33.9,48.9 L 32.3,68.3 L 50.0,76.3 L 30.6,80.6 L 29.0,99.5 L 18.8,82.8 L 0.0,87.1 L 12.9,72.6 L 3.2,55.9 L 3.2,55.9" fill="#000000" stroke="none" stroke-width="2.0px" /></g></svg>