<?xml version="1.0" encoding="utf-8" ?>
<svg baseProfile="full" height="100px" version="1.1" width="150px" xmlns="http://www.w3.org/2000/svg" xmlns:ev="http://www.w3.org/2001/xml-events" xmlns:xlink="http://www.w3.org/1999/xlink"><defs><clipPath id="mask0"><rect height="100" width="150" x="0" y="0" /></clipPath></defs><g clip-path="url(#mask0)"><path d="M0,0 L0.0,150.0 L74.99999999999999,129.9038105676658 z" fill="#CB001E" stroke="none" transform="translate(75.0, 50.0)" /><path d="M0,0 L74.99999999999999,129.9038105676658 L129.9038105676658,75.00000000000001 z" fill="#ff9932" stroke="none" transform="translate(75.0, 50.0)" /><path d="M0,0 L129.9038105676658,75.00000000000001 L150.0,9.184850993605149e-15 z" fill="#fcdc04" stroke="none" transform="translate(75.0, 50.0)" /><path d="M0,0 L150.0,9.184850993605149e-15 L129.9038105676658,-74.99999999999997 z" fill="#009966" stroke="none" transform="translate(75.0, 50.0)" /><path d="M0,0 L129.9038105676658,-74.99999999999997 L75.00000000000006,-129.90381056766577 z" fill="#3366cc" stroke="none" transform="translate(75.0, 50.0)" /><path d="M0,0 L75.00000000000006,-129.90381056766577 L1.8369701987210297e-14,-150.0 z" fill="#760188" stroke="none" transform="translate(75.0, 50.0)" /><path d="M0,0 L1.8369701987210297e-14,-150.0 L-74.99999999999996,-129.90381056766583 z" fill="#935316" stroke="none" transform="translate(75.0, 50.0)" /><path d="M0,0 L-74.99999999999996,-129.90381056766583 L-129.90381056766577,-75.00000000000007 z" fill="#cc3333" stroke="none" transform="translate(75.0, 50.0)" /><path d="M0,0 L-129.90381056766577,-75.00000000000007 L-150.0,-2.7554552980815446e-14 z" fill="#ff9901" stroke="none" transform="translate(75.0, 50.0)" /><path d="M0,0 L-150.0,-2.7554552980815446e-14 L-129.90381056766586,74.9999999999999 z" fill="#ffce00" stroke="none" transform="translate(75.0, 50.0)" /><path d="M0,0 L-129.90381056766586,74.9999999999999 L-75.00000000000007,129.90381056766574 z" fill="#007e3a" stroke="none" transform="translate(75.0, 50.0)" /><path d="M0,0 L-75.00000000000007,129.90381056766574 L-3.6739403974420595e-14,150.0 z" fill="#003265" stroke="none" transform="translate(75.0, 50.0)" /></g><g transform="translate(45.4922885695918, 20.4922885695918) scale(0.590154228608164) rotate(0, 50.0, 50.0)"><path d="M 35.7,67.8 L 35.7,67.8 C 35.7,67.8 30.700000000000003,76.0 24.500000000000004,80.39999999999999 C 24.500000000000004,80.39999999999999 21.600000000000005,78.49999999999999 18.500000000000004,79.8 C 15.400000000000004,81.2 14.800000000000004,83.0 16.500000000000004,86.39999999999999 C 16.500000000000004,86.39999999999999 17.400000000000002,81.8 20.900000000000006,82.6 C 20.900000000000006,82.6 16.000000000000007,87.8 21.500000000000007,90.6 C 21.500000000000007,90.6 20.800000000000008,86.19999999999999 23.60000000000001,85.39999999999999 C 23.60000000000001,85.39999999999999 22.800000000000008,92.39999999999999 28.70000000000001,92.3 C 28.70000000000001,92.3 26.20000000000001,88.8 26.60000000000001,85.6 C 27.000000000000007,82.39999999999999 28.70000000000001,82.39999999999999 29.300000000000008,82.6 C 29.90000000000001,82.8 31.000000000000007,83.8 31.300000000000008,85.3 C 31.300000000000008,85.3 33.30000000000001,81.39999999999999 30.000000000000007,79.7 C 30.000000000000007,79.7 33.400000000000006,75.10000000000001 37.400000000000006,73.4 C 36.4,71.6 35.8,69.7 35.7,67.8 L 35.7,67.8 M 63.5,67.8 L 63.5,67.8 C 63.5,67.8 68.5,76.0 74.7,80.39999999999999 C 74.7,80.39999999999999 77.60000000000001,78.49999999999999 80.7,79.8 C 83.8,81.2 84.4,83.0 82.7,86.39999999999999 C 82.7,86.39999999999999 81.8,81.8 78.3,82.6 C 78.3,82.6 83.2,87.8 77.7,90.6 C 77.7,90.6 78.4,86.19999999999999 75.60000000000001,85.39999999999999 C 75.60000000000001,85.39999999999999 76.4,92.39999999999999 70.50000000000001,92.3 C 70.50000000000001,92.3 73.00000000000001,88.8 72.60000000000001,85.6 C 72.2,82.39999999999999 70.50000000000001,82.39999999999999 69.9,82.6 C 69.30000000000001,82.8 68.2,83.8 67.9,85.3 C 67.9,85.3 65.9,81.39999999999999 69.2,79.7 C 69.2,79.7 65.8,75.10000000000001 61.800000000000004,73.4 C 62.8,71.6 63.3,69.7 63.5,67.8 L 63.5,67.8 M 70.1,6.4 C 70.5,6.9 70.6,7.6000000000000005 70.39999999999999,8.3 C 69.39999999999999,7.9 65.69999999999999,6.500000000000001 62.39999999999999,8.5 C 62.69999999999999,6.9 63.89999999999999,5.6 64.99999999999999,4.5 C 65.6,4.5 69.0,4.8 70.1,6.4 M 63.9,11.2 C 64.0,11.2 64.1,11.1 64.2,11.1 C 64.3,11.1 64.5,11.1 64.60000000000001,11.1 C 65.50000000000001,11.1 66.4,11.5 67.10000000000001,12.2 L 63.00000000000001,12.2 C 62.900000000000006,12.0 62.800000000000004,11.7 62.70000000000001,11.5 C 62.70000000000001,11.5 62.70000000000001,11.5 62.70000000000001,11.5 C 62.8,11.4 63.3,11.3 63.9,11.2 L 63.9,11.2 L 63.9,11.2 M 67.2,10.7 C 66.0,10.299999999999999 64.8,10.5 64.10000000000001,10.7 C 63.400000000000006,10.799999999999999 62.900000000000006,10.899999999999999 62.50000000000001,11.1 C 62.50000000000001,11.1 62.50000000000001,11.1 62.50000000000001,11.1 C 62.400000000000006,10.799999999999999 62.400000000000006,10.6 62.300000000000004,10.299999999999999 C 62.300000000000004,10.299999999999999 62.300000000000004,10.299999999999999 62.300000000000004,10.299999999999999 C 63.400000000000006,9.499999999999998 64.7,9.1 66.0,9.1 C 66.0,9.1 66.0,9.1 66.0,9.1 C 67.4,9.1 68.5,9.5 69.4,9.799999999999999 L 69.60000000000001,9.899999999999999 C 70.60000000000001,10.299999999999999 71.7,10.099999999999998 72.4,9.999999999999998 C 71.2,11.3 68.7,11.2 67.2,10.7 M 36.8,8.5 C 35.5,7.7 34.099999999999994,7.4 32.8,7.4 C 30.9,7.4 29.299999999999997,8.0 28.799999999999997,8.200000000000001 C 28.599999999999998,7.500000000000001 28.699999999999996,6.800000000000001 29.099999999999998,6.300000000000001 C 30.2,4.700000000000001 33.699999999999996,4.4 34.3,4.4 C 35.3,5.6 36.4,6.9 36.8,8.5 M 33.2,9.0 L 33.2,9.0 L 33.2,9.2 C 33.2,9.2 33.2,9.2 33.2,9.2 C 34.5,9.2 35.7,9.6 36.900000000000006,10.399999999999999 C 36.900000000000006,10.399999999999999 36.900000000000006,10.399999999999999 36.900000000000006,10.399999999999999 C 36.900000000000006,10.599999999999998 36.800000000000004,10.899999999999999 36.7,11.2 C 36.7,11.2 36.7,11.2 36.7,11.2 C 36.300000000000004,11.0 35.800000000000004,10.899999999999999 35.1,10.799999999999999 C 34.4,10.6 33.2,10.399999999999999 32.0,10.799999999999999 C 30.5,11.399999999999999 27.9,11.399999999999999 26.8,10.2 C 27.5,10.299999999999999 28.6,10.5 29.6,10.1 L 29.8,10.0 C 30.7,9.7 31.8,9.3 33.2,9.3 L 33.2,9.0 M 36.6,11.5 C 36.5,11.7 36.4,12.0 36.300000000000004,12.2 L 32.2,12.2 C 32.900000000000006,11.5 33.800000000000004,11.1 34.7,11.1 C 34.800000000000004,11.1 35.0,11.1 35.1,11.1 C 35.2,11.1 35.300000000000004,11.2 35.4,11.2 L 35.4,11.2 L 35.4,11.2 C 35.9,11.3 36.3,11.4 36.6,11.5 C 36.6,11.5 36.6,11.5 36.6,11.5" fill="#F4BD20" stroke="none" stroke-width="3.0px" /><path d="M 47.9,32.1 L 47.9,46.7 L 35.0,46.7 L 35.0,50.2 L 47.8,50.2 L 47.8,63.2 L 49.5,65.10000000000001 L 51.2,63.20000000000001 L 51.2,50.20000000000001 L 64.0,50.20000000000001 L 64.0,46.70000000000001 L 51.3,46.70000000000001 L 51.3,32.1 C 50.2,32.1 49.0,32.1 47.9,32.1 M 45.9,43.4 C 45.9,43.4 45.1,43.5 44.4,43.9 C 43.699999999999996,44.3 41.699999999999996,44.8 40.3,43.8 C 38.9,42.8 39.599999999999994,41.199999999999996 40.599999999999994,41.099999999999994 C 40.599999999999994,41.099999999999994 40.599999999999994,42.49999999999999 41.8,42.699999999999996 C 42.9,42.9 43.599999999999994,42.199999999999996 43.699999999999996,41.3 C 43.699999999999996,40.4 42.99999999999999,39.8 42.199999999999996,39.5 C 42.99999999999999,39.2 43.8,38.6 43.699999999999996,37.7 C 43.699999999999996,36.800000000000004 42.9,36.1 41.8,36.300000000000004 C 40.599999999999994,36.50000000000001 40.599999999999994,37.900000000000006 40.599999999999994,37.900000000000006 C 39.599999999999994,37.800000000000004 38.89999999999999,36.2 40.3,35.2 C 41.699999999999996,34.2 43.599999999999994,34.800000000000004 44.4,35.1 C 45.1,35.5 45.9,35.6 45.9,35.6 L 45.9,43.4 M 53.3,43.4 C 53.3,43.4 54.099999999999994,43.5 54.8,43.9 C 55.5,44.3 57.5,44.8 58.9,43.8 C 60.3,42.8 59.6,41.199999999999996 58.6,41.099999999999994 C 58.6,41.099999999999994 58.6,42.49999999999999 57.4,42.699999999999996 C 56.3,42.9 55.6,42.199999999999996 55.5,41.3 C 55.5,40.4 56.2,39.8 57.0,39.5 C 56.2,39.2 55.4,38.6 55.5,37.7 C 55.5,36.800000000000004 56.3,36.1 57.4,36.300000000000004 C 58.6,36.50000000000001 58.6,37.900000000000006 58.6,37.900000000000006 C 59.6,37.800000000000004 60.300000000000004,36.2 58.9,35.2 C 57.5,34.2 55.6,34.800000000000004 54.8,35.1 C 54.099999999999994,35.5 53.3,35.6 53.3,35.6 L 53.3,43.4 M 45.9,52.9 C 45.9,52.9 45.1,52.8 44.4,52.4 C 43.699999999999996,52.0 41.699999999999996,51.5 40.3,52.5 C 38.9,53.5 39.599999999999994,55.1 40.599999999999994,55.2 C 40.599999999999994,55.2 40.599999999999994,53.800000000000004 41.8,53.6 C 42.9,53.4 43.599999999999994,54.1 43.699999999999996,55.0 C 43.699999999999996,55.9 42.99999999999999,56.5 42.199999999999996,56.8 C 42.99999999999999,57.099999999999994 43.8,57.699999999999996 43.699999999999996,58.599999999999994 C 43.699999999999996,59.49999999999999 42.9,60.199999999999996 41.8,59.99999999999999 C 40.599999999999994,59.79999999999999 40.599999999999994,58.39999999999999 40.599999999999994,58.39999999999999 C 39.599999999999994,58.49999999999999 38.89999999999999,60.099999999999994 40.3,61.099999999999994 C 41.699999999999996,62.099999999999994 43.599999999999994,61.49999999999999 44.4,61.199999999999996 C 45.1,60.8 45.9,60.699999999999996 45.9,60.699999999999996 L 45.9,52.9 M 53.3,52.9 C 53.3,52.9 54.099999999999994,52.8 54.8,52.4 C 55.5,52.0 57.5,51.5 58.9,52.5 C 60.3,53.5 59.6,55.1 58.6,55.2 C 58.6,55.2 58.6,53.800000000000004 57.4,53.6 C 56.3,53.4 55.6,54.1 55.5,55.0 C 55.5,55.9 56.2,56.5 57.0,56.8 C 56.2,57.099999999999994 55.4,57.699999999999996 55.5,58.599999999999994 C 55.5,59.49999999999999 56.3,60.199999999999996 57.4,59.99999999999999 C 58.6,59.79999999999999 58.6,58.39999999999999 58.6,58.39999999999999 C 59.6,58.49999999999999 60.300000000000004,60.099999999999994 58.9,61.099999999999994 C 57.5,62.099999999999994 55.6,61.49999999999999 54.8,61.199999999999996 C 54.099999999999994,60.8 53.3,60.699999999999996 53.3,60.699999999999996 L 53.3,52.9 M 59.1,64.6 C 60.9,64.3 62.1,63.49999999999999 62.800000000000004,62.89999999999999 C 63.800000000000004,66.6 63.00000000000001,71.1 60.900000000000006,74.19999999999999 C 60.8,70.5 60.1,66.8 59.1,64.6 M 66.8,67.0 C 65.39999999999999,66.5 64.0,63.6 63.4,62.3 C 64.2,61.3 64.8,60.4 65.1,59.5 C 65.5,61.9 66.1,64.5 66.8,67.0 M 65.2,27.5 C 68.8,26.3 70.7,23.5 71.10000000000001,18.9 C 71.4,15.299999999999999 72.30000000000001,12.599999999999998 73.7,10.999999999999998 C 74.60000000000001,9.999999999999998 75.7,9.399999999999999 77.0,9.099999999999998 C 77.3,10.499999999999998 78.0,15.899999999999999 76.8,20.4 C 75.2,26.0 70.6,30.0 65.6,30.0 L 65.6,30.0 L 65.39999999999999,30.0 L 65.39999999999999,30.0 C 63.89999999999999,30.0 62.29999999999999,30.0 60.79999999999999,30.0 C 61.2,29.3 62.3,28.5 65.2,27.5 M 54.2,65.2 C 55.1,64.9 56.2,64.8 57.300000000000004,64.8 C 57.6,64.8 57.900000000000006,64.8 58.2,64.8 C 59.1,66.6 60.0,70.3 60.0,74.5 C 57.0,71.5 55.2,67.9 54.2,65.2 M 56.8,20.0 C 56.699999999999996,22.7 56.9,26.3 59.3,29.9 C 58.199999999999996,29.799999999999997 55.699999999999996,29.599999999999998 53.4,28.599999999999998 C 54.8,26.799999999999997 55.3,24.799999999999997 54.9,22.599999999999998 C 54.6,21.299999999999997 54.1,19.999999999999996 53.199999999999996,18.5 C 54.2,19.1 55.4,19.6 56.8,20.0 M 51.8,77.5 C 52.8,74.1 53.4,70.4 53.699999999999996,68.0 C 54.599999999999994,73.5 55.9,77.8 57.8,81.1 C 60.0,85.0 63.0,87.39999999999999 66.7,88.5 C 65.0,88.9 61.900000000000006,89.3 58.800000000000004,87.8 C 55.5,86.0 53.2,82.6 51.8,77.5 M 37.6,5.3 C 37.4,5.3 37.2,5.1 37.2,4.8999999999999995 C 37.2,4.699999999999999 37.400000000000006,4.499999999999999 37.6,4.499999999999999 C 37.800000000000004,4.499999999999999 38.0,4.699999999999999 38.0,4.8999999999999995 C 38.0,5.1 37.8,5.3 37.6,5.3 M 61.6,4.5 C 61.800000000000004,4.5 62.0,4.7 62.0,4.9 C 62.0,5.1000000000000005 61.8,5.300000000000001 61.6,5.300000000000001 C 61.4,5.300000000000001 61.2,5.1000000000000005 61.2,4.9 C 61.2,4.7 61.4,4.5 61.6,4.5 M 43.4,6.4 C 46.3,9.4 48.1,12.0 49.199999999999996,14.4 L 49.199999999999996,14.4 C 49.099999999999994,14.6 48.9,14.8 48.8,15.0 C 48.4,15.5 48.099999999999994,15.9 47.699999999999996,16.3 L 47.699999999999996,16.3 L 47.599999999999994,16.400000000000002 C 46.3,17.6 44.699999999999996,18.500000000000004 42.39999999999999,19.1 L 42.39999999999999,19.1 L 41.89999999999999,19.200000000000003 C 41.599999999999994,19.300000000000004 41.29999999999999,19.300000000000004 40.99999999999999,19.300000000000004 C 41.79999999999999,18.100000000000005 41.89999999999999,16.700000000000003 41.29999999999999,15.300000000000004 C 40.49999999999999,13.600000000000005 38.79999999999999,12.200000000000005 37.09999999999999,12.000000000000004 C 37.79999999999999,10.500000000000004 37.79999999999999,9.000000000000004 37.29999999999999,7.5000000000000036 C 36.89999999999999,6.400000000000004 36.09999999999999,5.300000000000003 34.99999999999999,4.200000000000004 C 35.49999999999999,4.100000000000004 36.199999999999996,4.0000000000000036 36.79999999999999,3.900000000000004 C 36.59999999999999,4.100000000000004 36.39999999999999,4.400000000000004 36.39999999999999,4.800000000000004 C 36.39999999999999,5.500000000000004 36.89999999999999,6.000000000000004 37.599999999999994,6.000000000000004 C 38.3,6.000000000000004 38.8,5.500000000000004 38.8,4.800000000000004 C 38.8,4.700000000000005 38.8,4.600000000000004 38.8,4.500000000000004 C 38.9,4.600000000000004 39.0,4.600000000000004 39.099999999999994,4.700000000000005 C 39.89999999999999,5.400000000000005 41.49999999999999,6.100000000000005 42.89999999999999,6.100000000000005 C 42.99999999999999,6.100000000000005 42.99999999999999,6.100000000000005 43.099999999999994,6.100000000000005 C 43.2,6.2 43.3,6.3 43.4,6.4 M 34.0,3.7 C 33.4,2.9000000000000004 34.4,1.9000000000000001 36.6,1.7000000000000002 C 37.9,1.6 39.1,1.7000000000000002 40.1,2.2 C 41.2,2.6 42.300000000000004,2.7 43.7,2.8000000000000003 C 45.2,2.9000000000000004 46.400000000000006,2.7 47.400000000000006,2.3000000000000003 C 46.50000000000001,4.300000000000001 45.10000000000001,5.4 43.10000000000001,5.6 C 42.900000000000006,5.6 42.60000000000001,5.6 42.400000000000006,5.6 C 42.400000000000006,5.6 42.400000000000006,5.6 42.400000000000006,5.6 C 42.400000000000006,5.6 42.400000000000006,5.6 42.400000000000006,5.6 C 42.400000000000006,5.6 42.300000000000004,5.6 42.300000000000004,5.6 C 42.300000000000004,5.6 42.2,5.6 42.2,5.6 C 42.2,5.6 42.1,5.6 42.1,5.6 C 42.1,5.6 42.0,5.6 42.0,5.6 C 42.0,5.6 41.9,5.6 41.9,5.6 C 41.9,5.6 41.8,5.6 41.8,5.6 C 41.8,5.6 41.699999999999996,5.6 41.699999999999996,5.6 C 41.599999999999994,5.6 41.49999999999999,5.6 41.49999999999999,5.5 C 41.49999999999999,5.5 41.39999999999999,5.5 41.39999999999999,5.5 C 41.29999999999999,5.5 41.29999999999999,5.5 41.19999999999999,5.4 C 41.19999999999999,5.4 41.09999999999999,5.4 41.09999999999999,5.4 C 41.09999999999999,5.4 40.999999999999986,5.4 40.999999999999986,5.4 C 40.999999999999986,5.4 40.899999999999984,5.4 40.899999999999984,5.4 C 40.899999999999984,5.4 40.79999999999998,5.4 40.79999999999998,5.300000000000001 C 40.79999999999998,5.300000000000001 40.69999999999998,5.300000000000001 40.69999999999998,5.300000000000001 C 40.59999999999998,5.300000000000001 40.59999999999998,5.300000000000001 40.49999999999998,5.200000000000001 C 40.49999999999998,5.200000000000001 40.49999999999998,5.200000000000001 40.39999999999998,5.200000000000001 C 40.299999999999976,5.200000000000001 40.299999999999976,5.100000000000001 40.199999999999974,5.100000000000001 C 40.199999999999974,5.100000000000001 40.199999999999974,5.100000000000001 40.09999999999997,5.100000000000001 C 40.09999999999997,5.100000000000001 39.99999999999997,5.000000000000002 39.99999999999997,5.000000000000002 C 39.99999999999997,5.000000000000002 39.99999999999997,5.000000000000002 39.89999999999997,5.000000000000002 C 39.89999999999997,5.000000000000002 39.79999999999997,5.000000000000002 39.79999999999997,4.900000000000002 C 39.79999999999997,4.900000000000002 39.79999999999997,4.900000000000002 39.69999999999997,4.900000000000002 C 39.69999999999997,4.900000000000002 39.599999999999966,4.8000000000000025 39.599999999999966,4.8000000000000025 C 39.599999999999966,4.8000000000000025 39.599999999999966,4.8000000000000025 39.499999999999964,4.8000000000000025 C 39.39999999999996,4.8000000000000025 39.39999999999996,4.700000000000003 39.39999999999996,4.700000000000003 C 39.29999999999996,4.600000000000003 39.29999999999996,4.600000000000003 39.19999999999996,4.500000000000003 C 39.19999999999996,4.500000000000003 39.19999999999996,4.500000000000003 39.09999999999996,4.400000000000003 C 37.8,3.3 36.2,3.1 34.0,3.7 M 50.1,14.5 L 50.1,14.5 C 51.2,12.0 53.0,9.5 55.9,6.5 C 56.0,6.4 56.1,6.3 56.199999999999996,6.2 C 56.3,6.2 56.3,6.2 56.4,6.2 C 57.9,6.2 59.5,5.5 60.199999999999996,4.800000000000001 C 60.3,4.700000000000001 60.4,4.700000000000001 60.49999999999999,4.6000000000000005 C 60.49999999999999,4.7 60.49999999999999,4.800000000000001 60.49999999999999,4.9 C 60.49999999999999,5.6000000000000005 60.99999999999999,6.1000000000000005 61.699999999999996,6.1000000000000005 C 62.4,6.1000000000000005 62.9,5.6000000000000005 62.9,4.9 C 62.9,4.5 62.699999999999996,4.2 62.5,4.0 C 63.2,4.0 63.8,4.2 64.3,4.3 C 63.199999999999996,5.4 62.4,6.5 62.0,7.6 C 61.4,9.1 61.5,10.6 62.2,12.1 C 60.400000000000006,12.299999999999999 58.7,13.6 58.0,15.399999999999999 C 57.4,16.799999999999997 57.5,18.299999999999997 58.3,19.4 C 58.0,19.4 57.699999999999996,19.299999999999997 57.4,19.299999999999997 L 57.1,19.199999999999996 L 56.9,19.099999999999994 L 56.9,19.099999999999994 C 54.699999999999996,18.499999999999993 53.0,17.699999999999996 51.699999999999996,16.399999999999995 L 51.599999999999994,16.299999999999994 L 51.599999999999994,16.299999999999994 C 51.199999999999996,15.899999999999993 50.89999999999999,15.499999999999993 50.49999999999999,14.999999999999993 C 50.4,14.8 50.2,14.6 50.1,14.5 M 49.3,15.5 C 49.4,15.4 49.5,15.3 49.5,15.2 C 49.6,15.299999999999999 49.7,15.399999999999999 49.7,15.5 C 51.0,17.6 51.7,22.2 49.5,25.7 C 47.3,22.2 48.1,17.6 49.3,15.5 M 51.8,2.3 C 52.8,2.6999999999999997 54.0,2.8 55.5,2.8 C 56.9,2.6999999999999997 58.0,2.5999999999999996 59.1,2.1999999999999997 C 60.2,1.6999999999999997 61.300000000000004,1.5999999999999996 62.6,1.6999999999999997 C 64.8,1.8999999999999997 65.8,2.8999999999999995 65.2,3.6999999999999997 C 63.0,3.0999999999999996 61.400000000000006,3.4 60.2,4.199999999999999 C 60.2,4.199999999999999 60.2,4.199999999999999 60.1,4.299999999999999 C 60.0,4.399999999999999 60.0,4.399999999999999 59.9,4.499999999999999 C 59.9,4.499999999999999 59.8,4.599999999999999 59.8,4.599999999999999 C 59.8,4.599999999999999 59.8,4.599999999999999 59.699999999999996,4.599999999999999 C 59.699999999999996,4.599999999999999 59.599999999999994,4.699999999999998 59.599999999999994,4.699999999999998 C 59.599999999999994,4.699999999999998 59.599999999999994,4.699999999999998 59.49999999999999,4.699999999999998 C 59.49999999999999,4.699999999999998 59.39999999999999,4.699999999999998 59.39999999999999,4.799999999999998 C 59.39999999999999,4.799999999999998 59.39999999999999,4.799999999999998 59.29999999999999,4.799999999999998 C 59.29999999999999,4.799999999999998 59.19999999999999,4.899999999999998 59.19999999999999,4.899999999999998 C 59.19999999999999,4.899999999999998 59.19999999999999,4.899999999999998 59.09999999999999,4.899999999999998 C 59.1,4.9 59.0,5.0 58.9,5.0 C 58.9,5.0 58.9,5.0 58.8,5.0 C 58.699999999999996,5.0 58.699999999999996,5.0 58.599999999999994,5.1 C 58.599999999999994,5.1 58.49999999999999,5.1 58.49999999999999,5.1 C 58.49999999999999,5.1 58.39999999999999,5.1 58.39999999999999,5.199999999999999 C 58.39999999999999,5.199999999999999 58.29999999999999,5.199999999999999 58.29999999999999,5.199999999999999 C 58.29999999999999,5.199999999999999 58.19999999999999,5.199999999999999 58.19999999999999,5.299999999999999 C 58.19999999999999,5.299999999999999 58.09999999999999,5.299999999999999 58.09999999999999,5.299999999999999 C 57.999999999999986,5.299999999999999 57.999999999999986,5.299999999999999 57.899999999999984,5.399999999999999 C 57.899999999999984,5.399999999999999 57.79999999999998,5.399999999999999 57.79999999999998,5.399999999999999 C 57.69999999999998,5.399999999999999 57.59999999999998,5.399999999999999 57.59999999999998,5.499999999999998 C 57.59999999999998,5.499999999999998 57.49999999999998,5.499999999999998 57.49999999999998,5.499999999999998 C 57.49999999999998,5.499999999999998 57.39999999999998,5.499999999999998 57.39999999999998,5.499999999999998 C 57.39999999999998,5.499999999999998 57.299999999999976,5.499999999999998 57.299999999999976,5.499999999999998 C 57.299999999999976,5.499999999999998 57.199999999999974,5.499999999999998 57.199999999999974,5.499999999999998 C 57.199999999999974,5.499999999999998 57.09999999999997,5.499999999999998 57.09999999999997,5.499999999999998 C 57.09999999999997,5.499999999999998 56.99999999999997,5.499999999999998 56.99999999999997,5.499999999999998 C 56.99999999999997,5.499999999999998 56.89999999999997,5.499999999999998 56.89999999999997,5.499999999999998 C 56.89999999999997,5.499999999999998 56.89999999999997,5.499999999999998 56.89999999999997,5.499999999999998 C 56.89999999999997,5.499999999999998 56.89999999999997,5.499999999999998 56.89999999999997,5.499999999999998 C 56.69999999999997,5.499999999999998 56.39999999999997,5.499999999999998 56.19999999999997,5.499999999999998 C 54.2,5.4 52.7,4.3 51.8,2.3 M 32.4,67.0 C 33.1,64.5 33.699999999999996,62.0 34.0,59.5 C 34.4,60.4 34.9,61.3 35.7,62.3 C 35.1,63.5 33.7,66.5 32.4,67.0 M 39.9,29.9 C 42.199999999999996,26.299999999999997 42.5,22.7 42.4,20.0 C 43.8,19.6 45.1,19.2 46.1,18.5 C 45.2,20.0 44.6,21.3 44.4,22.6 C 43.9,24.8 44.4,26.900000000000002 45.8,28.6 C 43.4,29.6 40.9,29.8 39.9,29.9 M 47.4,19.3 C 47.199999999999996,21.900000000000002 47.699999999999996,24.4 49.1,26.3 C 49.1,26.3 49.1,26.3 49.1,26.400000000000002 C 48.5,27.1 47.6,27.8 46.5,28.3 C 44.1,25.5 44.4,22.0 47.7,17.5 C 47.5,18.1 47.4,18.7 47.4,19.3 M 77.5,20.6 C 80.9,26.3 81.1,34.5 78.1,40.3 C 76.39999999999999,43.599999999999994 72.89999999999999,47.4 66.0,47.699999999999996 L 66.0,30.699999999999996 C 68.6,30.599999999999994 71.1,29.599999999999994 73.2,27.699999999999996 C 75.2,25.9 76.7,23.4 77.5,20.6 M 78.3,15.2 C 78.3,14.2 78.3,13.299999999999999 78.2,12.299999999999999 C 80.9,12.499999999999998 82.7,13.7 84.4,16.4 C 85.5,18.0 86.7,19.0 88.0,19.4 C 92.1,26.0 91.4,31.5 90.4,33.9 C 88.7,28.2 87.0,23.9 85.0,20.9 C 83.1,17.8 80.9,15.9 78.3,15.2 M 78.1,11.5 C 78.0,10.4 77.89999999999999,9.5 77.8,8.9 C 78.3,8.9 78.8,8.9 79.3,8.9 C 82.1,9.0 84.5,10.1 87.2,15.0 C 88.5,17.3 89.8,18.3 90.8,18.8 C 90.3,18.900000000000002 89.6,18.900000000000002 88.7,18.8 L 88.7,18.8 L 88.5,18.8 C 87.3,18.5 86.2,17.6 85.1,16.1 C 83.2,13.0 81.1,11.6 78.1,11.5 M 36.4,62.9 C 37.1,63.5 38.3,64.3 40.1,64.6 C 39.1,66.8 38.4,70.39999999999999 38.300000000000004,74.1 C 36.2,71.1 35.4,66.7 36.4,62.9 M 44.3,30.0 C 46.199999999999996,29.5 48.199999999999996,28.6 49.599999999999994,27.0 C 50.99999999999999,28.5 52.99999999999999,29.4 54.89999999999999,30.0 C 53.19999999999999,30.0 51.39999999999999,30.0 49.599999999999994,30.0 C 47.8,30.0 46.1,30.0 44.3,30.0 M 41.9,64.8 C 43.0,64.8 44.1,64.89999999999999 45.0,65.2 C 44.0,67.9 42.2,71.5 39.1,74.4 C 39.1,70.2 40.0,66.5 40.9,64.7 C 41.2,64.8 41.5,64.8 41.9,64.8 M 50.1,26.3 C 51.4,24.400000000000002 52.0,21.9 51.800000000000004,19.3 C 51.7,18.7 51.6,18.0 51.50000000000001,17.5 C 54.800000000000004,22.0 55.10000000000001,25.4 52.70000000000001,28.3 C 51.6,27.7 50.7,27.1 50.1,26.3 C 50.1,26.3 50.1,26.3 50.1,26.3 M 22.4,20.3 C 21.099999999999998,15.8 21.9,10.4 22.2,9.0 C 23.5,9.3 24.599999999999998,9.9 25.4,10.9 C 26.799999999999997,12.5 27.7,15.2 28.0,18.8 C 28.4,23.4 30.3,26.200000000000003 33.9,27.4 C 36.8,28.4 37.9,29.2 38.3,29.9 C 36.8,29.9 35.199999999999996,29.9 33.699999999999996,29.9 L 33.699999999999996,29.9 L 33.49999999999999,29.9 C 28.6,30.0 24.0,26.0 22.4,20.3 M 32.6,88.3 C 36.2,87.2 39.2,84.8 41.3,81.0 C 43.199999999999996,77.7 44.5,73.4 45.4,67.9 C 45.699999999999996,70.30000000000001 46.4,74.0 47.3,77.30000000000001 L 47.3,77.30000000000001 C 46.0,82.50000000000001 43.599999999999994,85.9 40.3,87.60000000000001 C 37.4,89.1 34.3,88.7 32.6,88.3 M 68.1,48.3 C 69.6,52.199999999999996 69.89999999999999,56.099999999999994 69.19999999999999,60.099999999999994 C 67.99999999999999,59.599999999999994 66.89999999999999,58.099999999999994 65.89999999999999,56.3 C 65.99999999999999,55.699999999999996 65.99999999999999,54.9 65.99999999999999,54.099999999999994 L 65.99999999999999,48.39999999999999 C 66.7,48.5 67.4,48.4 68.1,48.3 M 56.4,92.6 C 56.5,93.5 56.5,94.5 56.3,95.3 C 55.4,95.39999999999999 54.3,94.8 53.5,94.3 C 53.6,93.7 53.9,92.39999999999999 53.8,90.5 C 54.6,91.5 55.5,92.1 56.4,92.6 M 63.6,89.4 C 65.1,89.4 66.4,89.10000000000001 67.3,88.9 C 65.0,92.30000000000001 61.699999999999996,93.30000000000001 57.3,92.10000000000001 L 57.3,92.10000000000001 L 57.1,92.0 C 54.300000000000004,90.7 52.0,87.4 50.1,82.2 C 50.6,81.10000000000001 51.1,79.9 51.5,78.7 C 52.9,83.5 55.3,86.7 58.6,88.3 C 60.0,89.0 61.7,89.4 63.6,89.4 M 79.0,60.5 L 79.0,67.8 C 77.8,66.3 76.4,64.7 74.5,63.699999999999996 C 75.1,61.8 75.3,59.4 75.3,56.9 C 76.7,58.8 77.8,59.7 79.0,60.5 M 73.7,63.6 C 71.9,63.7 70.7,62.800000000000004 69.9,60.7 C 70.7,56.5 70.4,52.300000000000004 68.9,48.2 C 70.10000000000001,47.900000000000006 71.30000000000001,47.5 72.4,47.0 C 74.5,51.6 75.1,58.9 73.7,63.6 M 53.2,65.6 C 52.900000000000006,67.89999999999999 51.900000000000006,76.19999999999999 49.6,81.39999999999999 C 47.300000000000004,76.3 46.2,67.99999999999999 46.0,65.6 C 47.5,66.19999999999999 48.6,67.3 49.3,68.6 L 49.699999999999996,69.39999999999999 L 50.099999999999994,68.6 C 50.6,67.2 51.7,66.2 53.2,65.6 M 53.1,89.7 C 53.300000000000004,91.7 53.0,93.3 52.9,94.0 L 52.8,94.4 C 52.0,96.5 51.199999999999996,98.2 50.099999999999994,99.60000000000001 L 50.099999999999994,84.3 C 50.9,86.5 52.0,88.3 53.1,89.7 M 46.1,89.7 C 47.2,88.3 48.2,86.5 49.1,84.3 L 49.1,99.7 C 48.0,98.3 47.2,96.60000000000001 46.4,94.5 C 46.4,94.3 45.9,92.4 46.1,89.7 M 90.0,35.1 C 91.4,40.1 91.4,45.1 89.9,50.0 C 89.4,48.8 89.10000000000001,47.6 88.80000000000001,45.9 C 87.10000000000001,37.099999999999994 84.30000000000001,30.5 80.60000000000001,26.099999999999998 C 80.10000000000001,23.7 79.10000000000001,21.4 77.9,19.5 C 78.10000000000001,18.4 78.30000000000001,17.3 78.30000000000001,16.0 C 83.00000000000001,17.3 86.60000000000001,23.2 90.00000000000001,34.8 L 90.00000000000001,34.8 L 90.0,35.1 M 89.5,51.3 C 91.0,59.8 90.5,68.3 89.2,70.0 C 89.2,70.0 89.10000000000001,70.1 89.10000000000001,70.1 C 88.80000000000001,69.5 88.2,68.5 87.4,67.69999999999999 C 86.4,66.69999999999999 85.80000000000001,64.99999999999999 85.60000000000001,64.19999999999999 L 85.60000000000001,64.1 C 85.60000000000001,61.89999999999999 85.50000000000001,59.49999999999999 85.30000000000001,57.099999999999994 C 84.60000000000001,48.89999999999999 82.60000000000001,41.49999999999999 80.10000000000001,37.199999999999996 C 80.80000000000001,34.9 81.00000000000001,32.3 80.9,29.799999999999997 C 80.9,29.199999999999996 80.80000000000001,28.499999999999996 80.7,27.9 C 84.0,32.0 86.4,38.2 87.9,46.0 C 88.4,48.2 88.8,49.7 89.5,51.3 M 88.6,70.7 C 89.6,74.8 89.0,78.3 86.69999999999999,81.4 C 86.49999999999999,79.0 85.6,76.9 84.1,75.2 C 85.0,73.2 85.5,70.2 85.69999999999999,66.4 C 86.1,67.10000000000001 86.49999999999999,67.80000000000001 86.99999999999999,68.30000000000001 C 87.8,69.1 88.4,70.5 88.6,70.7 M 76.4,44.1 C 78.0,46.9 78.7,50.1 79.0,55.1 L 79.0,59.6 C 77.8,58.800000000000004 76.8,57.800000000000004 75.2,55.6 C 75.0,52.300000000000004 74.2,49.1 73.10000000000001,46.8 C 73.30000000000001,46.699999999999996 73.50000000000001,46.599999999999994 73.60000000000001,46.5 C 74.6,45.7 75.6,44.9 76.4,44.1 M 83.3,74.9 C 82.2,74.9 81.39999999999999,74.5 80.8,73.9 C 80.0,73.0 79.6,71.30000000000001 79.8,69.0 L 79.8,68.9 L 79.8,68.9 L 79.8,55.2 L 79.8,55.2 L 79.8,55.0 L 79.8,54.8 L 79.8,54.8 C 79.5,49.599999999999994 78.7,46.4 77.0,43.4 C 77.7,42.6 78.3,41.699999999999996 78.8,40.699999999999996 C 79.2,39.9 79.6,39.099999999999994 79.89999999999999,38.199999999999996 C 82.19999999999999,42.49999999999999 83.99999999999999,49.5 84.69999999999999,57.099999999999994 C 85.3,64.7 84.8,71.5 83.3,74.9 M 42.1,92.0 L 41.9,92.1 L 41.9,92.1 C 37.6,93.3 34.3,92.3 32.0,89.0 C 32.8,89.2 34.1,89.5 35.6,89.5 C 37.4,89.5 39.2,89.1 40.7,88.4 C 43.900000000000006,86.80000000000001 46.300000000000004,83.60000000000001 47.800000000000004,78.80000000000001 C 48.2,80.10000000000001 48.7,81.30000000000001 49.1,82.20000000000002 C 48.0,85.10000000000002 46.800000000000004,87.50000000000001 45.4,89.20000000000002 L 45.3,89.20000000000002 L 45.3,89.30000000000001 C 44.4,90.6 43.3,91.5 42.1,92.0 M 45.6,94.4 C 44.800000000000004,94.9 43.7,95.4 42.800000000000004,95.4 C 42.6,94.60000000000001 42.6,93.60000000000001 42.7,92.7 C 43.6,92.2 44.400000000000006,91.60000000000001 45.300000000000004,90.7 C 45.2,92.5 45.5,93.8 45.6,94.4 M 11.7,67.7 C 10.899999999999999,68.4 10.299999999999999,69.5 10.0,70.10000000000001 C 10.0,70.0 10.0,70.0 10.0,70.0 C 8.6,68.3 8.2,59.8 9.7,51.3 C 10.399999999999999,49.699999999999996 10.899999999999999,48.199999999999996 11.299999999999999,46.0 C 12.799999999999999,38.1 15.2,32.0 18.4,27.7 C 18.299999999999997,28.3 18.2,29.0 18.2,29.599999999999998 C 18.099999999999998,32.099999999999994 18.3,34.699999999999996 19.0,37.0 C 16.4,41.3 14.5,48.7 13.8,56.9 C 13.600000000000001,59.3 13.5,61.699999999999996 13.5,63.9 L 13.5,64.0 C 13.3,65.0 12.7,66.7 11.7,67.7 M 13.5,66.4 C 13.7,70.2 14.3,73.2 15.1,75.2 C 13.6,76.9 12.7,79.0 12.5,81.4 C 10.1,78.2 9.5,74.80000000000001 10.6,70.7 C 10.7,70.5 11.4,69.10000000000001 12.2,68.2 C 12.7,67.8 13.2,67.2 13.5,66.4 M 8.4,18.8 C 9.4,18.400000000000002 10.7,17.400000000000002 12.0,15.0 C 14.7,10.1 17.1,9.0 19.9,8.9 C 20.4,8.9 20.9,8.9 21.4,8.9 C 21.299999999999997,9.4 21.2,10.3 21.099999999999998,11.5 C 18.099999999999998,11.6 15.999999999999998,13.0 14.099999999999998,15.9 C 12.999999999999998,17.4 11.899999999999999,18.4 10.699999999999998,18.7 L 10.499999999999998,18.7 L 10.499999999999998,18.7 C 9.6,18.9 8.9,18.9 8.4,18.8 M 8.7,33.9 C 7.699999999999999,31.5 6.999999999999999,26.0 11.1,19.4 C 12.4,19.0 13.6,18.0 14.8,16.4 C 16.5,13.7 18.400000000000002,12.499999999999998 21.0,12.299999999999999 C 20.9,13.299999999999999 20.9,14.299999999999999 20.9,15.2 C 18.299999999999997,15.899999999999999 16.099999999999998,17.7 14.099999999999998,20.9 C 12.2,23.9 10.4,28.2 8.7,33.9 M 19.4,69.1 C 19.599999999999998,71.39999999999999 19.299999999999997,73.0 18.4,74.0 C 17.799999999999997,74.6 17.0,75.0 15.899999999999999,75.0 C 14.399999999999999,71.6 13.899999999999999,64.8 14.599999999999998,57.2 C 15.299999999999997,49.5 16.999999999999996,42.5 19.4,38.300000000000004 C 19.7,39.2 20.099999999999998,40.00000000000001 20.5,40.800000000000004 C 21.0,41.800000000000004 21.6,42.7 22.3,43.50000000000001 C 20.6,46.50000000000001 19.8,49.70000000000001 19.5,54.900000000000006 L 19.5,54.900000000000006 L 19.5,55.10000000000001 L 19.5,55.30000000000001 L 19.5,55.30000000000001 L 19.5,69.00000000000001 L 19.5,69.00000000000001 L 19.4,69.1 M 9.3,50.0 C 7.800000000000001,45.1 7.800000000000001,40.2 9.100000000000001,35.2 L 9.100000000000001,35.2 L 9.200000000000001,35.0 C 12.5,23.2 16.200000000000003,17.4 20.9,16.0 C 21.0,17.2 21.099999999999998,18.4 21.299999999999997,19.5 C 20.099999999999998,21.4 19.099999999999998,23.6 18.599999999999998,26.1 C 14.799999999999997,30.5 12.099999999999998,37.1 10.399999999999999,45.900000000000006 C 10.1,47.6 9.8,48.8 9.3,50.0 M 33.3,56.4 C 32.3,58.1 31.299999999999997,59.699999999999996 29.999999999999996,60.199999999999996 C 29.299999999999997,56.199999999999996 29.599999999999998,52.199999999999996 31.099999999999998,48.39999999999999 C 31.799999999999997,48.49999999999999 32.5,48.599999999999994 33.199999999999996,48.599999999999994 L 33.199999999999996,54.3 C 33.2,55.1 33.3,55.8 33.3,56.4 M 21.7,20.6 C 22.5,23.400000000000002 24.0,25.900000000000002 26.1,27.700000000000003 C 28.200000000000003,29.6 30.700000000000003,30.6 33.300000000000004,30.700000000000003 L 33.300000000000004,47.7 C 26.400000000000006,47.400000000000006 22.900000000000006,43.5 21.200000000000003,40.300000000000004 C 18.0,34.5 18.3,26.3 21.7,20.6 M 29.3,60.7 C 28.6,62.800000000000004 27.3,63.7 25.5,63.6 C 24.0,58.9 24.6,51.6 26.8,47.0 C 27.900000000000002,47.5 29.1,47.9 30.3,48.2 C 28.8,52.3 28.5,56.5 29.3,60.7 M 20.2,59.5 L 20.2,55.0 C 20.5,50.0 21.3,46.8 22.8,44.0 C 23.6,44.9 24.6,45.7 25.6,46.3 C 25.8,46.4 25.900000000000002,46.5 26.1,46.599999999999994 C 25.0,49.0 24.2,52.2 24.0,55.5 C 22.4,57.7 21.3,58.7 20.2,59.5 M 24.7,63.7 C 22.8,64.60000000000001 21.3,66.2 20.2,67.8 L 20.2,60.5 C 21.4,59.8 22.5,58.9 23.9,57.0 C 23.9,59.5 24.1,61.8 24.7,63.7" fill="#FFFFFF" stroke="none" stroke-width="3.0px" /></g></svg>