<?xml version="1.0" encoding="utf-8" ?>
<svg baseProfile="full" height="100px" version="1.1" width="150px" xmlns="http://www.w3.org/2000/svg" xmlns:ev="http://www.w3.org/2001/xml-events" xmlns:xlink="http://www.w3.org/1999/xlink"><defs><clipPath id="mask0"><rect height="100" width="150" x="0" y="0" /></clipPath></defs><g clip-path="url(#mask0)"><rect fill="#fec50c" height="14.285714285714286" stroke="none" width="10.714285714285714" x="0.0" y="0.0" /><rect fill="#ff0032" height="14.285714285714286" stroke="none" width="10.714285714285714" x="0.0" y="14.285714285714286" /><rect fill="#fec50c" height="14.285714285714286" stroke="none" width="10.714285714285714" x="0.0" y="28.571428571428573" /><rect fill="#ff0032" height="14.285714285714286" stroke="none" width="10.714285714285714" x="0.0" y="42.857142857142854" /><rect fill="#fec50c" height="14.285714285714286" stroke="none" width="10.714285714285714" x="0.0" y="57.142857142857146" /><rect fill="#ff0032" height="14.285714285714286" stroke="none" width="10.714285714285714" x="0.0" y="71.42857142857143" /><rect fill="#fec50c" height="14.285714285714286" stroke="none" width="10.714285714285714" x="0.0" y="85.71428571428571" /><rect fill="#ff0032" height="14.285714285714286" stroke="none" width="10.714285714285714" x="10.714285714285714" y="0.0" /><rect fill="#fec50c" height="14.285714285714286" stroke="none" width="10.714285714285714" x="10.714285714285714" y="14.285714285714286" /><rect fill="#ff0032" height="14.285714285714286" stroke="none" width="10.714285714285714" x="10.714285714285714" y="28.571428571428573" /><rect fill="#fec50c" height="14.285714285714286" stroke="none" width="10.714285714285714" x="10.714285714285714" y="42.857142857142854" /><rect fill="#ff0032" height="14.285714285714286" stroke="none" width="10.714285714285714" x="10.714285714285714" y="57.142857142857146" /><rect fill="#fec50c" height="14.285714285714286" stroke="none" width="10.714285714285714" x="10.714285714285714" y="71.42857142857143" /><rect fill="#ff0032" height="14.285714285714286" stroke="none" width="10.714285714285714" x="10.714285714285714" y="85.71428571428571" /><rect fill="#fec50c" height="14.285714285714286" stroke="none" width="10.714285714285714" x="21.428571428571427" y="0.0" /><rect fill="#ff0032" height="14.285714285714286" stroke="none" width="10.714285714285714" x="21.428571428571427" y="14.285714285714286" /><rect fill="#fec50c" height="14.285714285714286" stroke="none" width="10.714285714285714" x="21.428571428571427" y="28.571428571428573" /><rect fill="#ff0032" height="14.285714285714286" stroke="none" width="10.714285714285714" x="21.428571428571427" y="42.857142857142854" /><rect fill="#fec50c" height="14.285714285714286" stroke="none" width="10.714285714285714" x="21.428571428571427" y="57.142857142857146" /><rect fill="#ff0032" height="14.285714285714286" stroke="none" width="10.714285714285714" x="21.428571428571427" y="71.42857142857143" /><rect fill="#fec50c" height="14.285714285714286" stroke="none" width="10.714285714285714" x="21.428571428571427" y="85.71428571428571" /><rect fill="#ff0032" height="14.285714285714286" stroke="none" width="10.714285714285714" x="32.142857142857146" y="0.0" /><rect fill="#fec50c" height="14.285714285714286" stroke="none" width="10.714285714285714" x="32.142857142857146" y="14.285714285714286" /><rect fill="#ff0032" height="14.285714285714286" stroke="none" width="10.714285714285714" x="32.142857142857146" y="28.571428571428573" /><rect fill="#fec50c" height="14.285714285714286" stroke="none" width="10.714285714285714" x="32.142857142857146" y="42.857142857142854" /><rect fill="#ff0032" height="14.285714285714286" stroke="none" width="10.714285714285714" x="32.142857142857146" y="57.142857142857146" /><rect fill="#fec50c" height="14.285714285714286" stroke="none" width="10.714285714285714" x="32.142857142857146" y="71.42857142857143" /><rect fill="#ff0032" height="14.285714285714286" stroke="none" width="10.714285714285714" x="32.142857142857146" y="85.71428571428571" /><rect fill="#fec50c" height="14.285714285714286" stroke="none" width="10.714285714285714" x="42.857142857142854" y="0.0" /><rect fill="#ff0032" height="14.285714285714286" stroke="none" width="10.714285714285714" x="42.857142857142854" y="14.285714285714286" /><rect fill="#fec50c" height="14.285714285714286" stroke="none" width="10.714285714285714" x="42.857142857142854" y="28.571428571428573" /><rect fill="#ff0032" height="14.285714285714286" stroke="none" width="10.714285714285714" x="42.857142857142854" y="42.857142857142854" /><rect fill="#fec50c" height="14.285714285714286" stroke="none" width="10.714285714285714" x="42.857142857142854" y="57.142857142857146" /><rect fill="#ff0032" height="14.285714285714286" stroke="none" width="10.714285714285714" x="42.857142857142854" y="71.42857142857143" /><rect fill="#fec50c" height="14.285714285714286" stroke="none" width="10.714285714285714" x="42.857142857142854" y="85.71428571428571" /><rect fill="#ff0032" height="14.285714285714286" stroke="none" width="10.714285714285714" x="53.57142857142857" y="0.0" /><rect fill="#fec50c" height="14.285714285714286" stroke="none" width="10.714285714285714" x="53.57142857142857" y="14.285714285714286" /><rect fill="#ff0032" height="14.285714285714286" stroke="none" width="10.714285714285714" x="53.57142857142857" y="28.571428571428573" /><rect fill="#fec50c" height="14.285714285714286" stroke="none" width="10.714285714285714" x="53.57142857142857" y="42.857142857142854" /><rect fill="#ff0032" height="14.285714285714286" stroke="none" width="10.714285714285714" x="53.57142857142857" y="57.142857142857146" /><rect fill="#fec50c" height="14.285714285714286" stroke="none" width="10.714285714285714" x="53.57142857142857" y="71.42857142857143" /><rect fill="#ff0032" height="14.285714285714286" stroke="none" width="10.714285714285714" x="53.57142857142857" y="85.71428571428571" /><rect fill="#fec50c" height="14.285714285714286" stroke="none" width="10.714285714285714" x="64.28571428571429" y="0.0" /><rect fill="#ff0032" height="14.285714285714286" stroke="none" width="10.714285714285714" x="64.28571428571429" y="14.285714285714286" /><rect fill="#fec50c" height="14.285714285714286" stroke="none" width="10.714285714285714" x="64.28571428571429" y="28.571428571428573" /><rect fill="#ff0032" height="14.285714285714286" stroke="none" width="10.714285714285714" x="64.28571428571429" y="42.857142857142854" /><rect fill="#fec50c" height="14.285714285714286" stroke="none" width="10.714285714285714" x="64.28571428571429" y="57.142857142857146" /><rect fill="#ff0032" height="14.285714285714286" stroke="none" width="10.714285714285714" x="64.28571428571429" y="71.42857142857143" /><rect fill="#fec50c" height="14.285714285714286" stroke="none" width="10.714285714285714" x="64.28571428571429" y="85.71428571428571" /><rect fill="#ff0032" height="14.285714285714286" stroke="none" width="10.714285714285714" x="75.0" y="0.0" /><rect fill="#fec50c" height="14.285714285714286" stroke="none" width="10.714285714285714" x="75.0" y="14.285714285714286" /><rect fill="#ff0032" height="14.285714285714286" stroke="none" width="10.714285714285714" x="75.0" y="28.571428571428573" /><rect fill="#fec50c" height="14.285714285714286" stroke="none" width="10.714285714285714" x="75.0" y="42.857142857142854" /><rect fill="#ff0032" height="14.285714285714286" stroke="none" width="10.714285714285714" x="75.0" y="57.142857142857146" /><rect fill="#fec50c" height="14.285714285714286" stroke="none" width="10.714285714285714" x="75.0" y="71.42857142857143" /><rect fill="#ff0032" height="14.285714285714286" stroke="none" width="10.714285714285714" x="75.0" y="85.71428571428571" /><rect fill="#fec50c" height="14.285714285714286" stroke="none" width="10.714285714285714" x="85.71428571428571" y="0.0" /><rect fill="#ff0032" height="14.285714285714286" stroke="none" width="10.714285714285714" x="85.71428571428571" y="14.285714285714286" /><rect fill="#fec50c" height="14.285714285714286" stroke="none" width="10.714285714285714" x="85.71428571428571" y="28.571428571428573" /><rect fill="#ff0032" height="14.285714285714286" stroke="none" width="10.714285714285714" x="85.71428571428571" y="42.857142857142854" /><rect fill="#fec50c" height="14.285714285714286" stroke="none" width="10.714285714285714" x="85.71428571428571" y="57.142857142857146" /><rect fill="#ff0032" height="14.285714285714286" stroke="none" width="10.714285714285714" x="85.71428571428571" y="71.42857142857143" /><rect fill="#fec50c" height="14.285714285714286" stroke="none" width="10.714285714285714" x="85.71428571428571" y="85.71428571428571" /><rect fill="#ff0032" height="14.285714285714286" stroke="none" width="10.714285714285714" x="96.42857142857143" y="0.0" /><rect fill="#fec50c" height="14.285714285714286" stroke="none" width="10.714285714285714" x="96.42857142857143" y="14.285714285714286" /><rect fill="#ff0032" height="14.285714285714286" stroke="none" width="10.714285714285714" x="96.42857142857143" y="28.571428571428573" /><rect fill="#fec50c" height="14.285714285714286" stroke="none" width="10.714285714285714" x="96.42857142857143" y="42.857142857142854" /><rect fill="#ff0032" height="14.285714285714286" stroke="none" width="10.714285714285714" x="96.42857142857143" y="57.142857142857146" /><rect fill="#fec50c" height="14.285714285714286" stroke="none" width="10.714285714285714" x="96.42857142857143" y="71.42857142857143" /><rect fill="#ff0032" height="14.285714285714286" stroke="none" width="10.714285714285714" x="96.42857142857143" y="85.71428571428571" /><rect fill="#fec50c" height="14.285714285714286" stroke="none" width="10.714285714285714" x="107.14285714285714" y="0.0" /><rect fill="#ff0032" height="14.285714285714286" stroke="none" width="10.714285714285714" x="107.14285714285714" y="14.285714285714286" /><rect fill="#fec50c" height="14.285714285714286" stroke="none" width="10.714285714285714" x="107.14285714285714" y="28.571428571428573" /><rect fill="#ff0032" height="14.285714285714286" stroke="none" width="10.714285714285714" x="107.14285714285714" y="42.857142857142854" /><rect fill="#fec50c" height="14.285714285714286" stroke="none" width="10.714285714285714" x="107.14285714285714" y="57.142857142857146" /><rect fill="#ff0032" height="14.285714285714286" stroke="none" width="10.714285714285714" x="107.14285714285714" y="71.42857142857143" /><rect fill="#fec50c" height="14.285714285714286" stroke="none" width="10.714285714285714" x="107.14285714285714" y="85.71428571428571" /><rect fill="#ff0032" height="14.285714285714286" stroke="none" width="10.714285714285714" x="117.85714285714286" y="0.0" /><rect fill="#fec50c" height="14.285714285714286" stroke="none" width="10.714285714285714" x="117.85714285714286" y="14.285714285714286" /><rect fill="#ff0032" height="14.285714285714286" stroke="none" width="10.714285714285714" x="117.85714285714286" y="28.571428571428573" /><rect fill="#fec50c" height="14.285714285714286" stroke="none" width="10.714285714285714" x="117.85714285714286" y="42.857142857142854" /><rect fill="#ff0032" height="14.285714285714286" stroke="none" width="10.714285714285714" x="117.85714285714286" y="57.142857142857146" /><rect fill="#fec50c" height="14.285714285714286" stroke="none" width="10.714285714285714" x="117.85714285714286" y="71.42857142857143" /><rect fill="#ff0032" height="14.285714285714286" stroke="none" width="10.714285714285714" x="117.85714285714286" y="85.71428571428571" /><rect fill="#fec50c" height="14.285714285714286" stroke="none" width="10.714285714285714" x="128.57142857142858" y="0.0" /><rect fill="#ff0032" height="14.285714285714286" stroke="none" width="10.714285714285714" x="128.57142857142858" y="14.285714285714286" /><rect fill="#fec50c" height="14.285714285714286" stroke="none" width="10.714285714285714" x="128.57142857142858" y="28.571428571428573" /><rect fill="#ff0032" height="14.285714285714286" stroke="none" width="10.714285714285714" x="128.57142857142858" y="42.857142857142854" /><rect fill="#fec50c" height="14.285714285714286" stroke="none" width="10.714285714285714" x="128.57142857142858" y="57.142857142857146" /><rect fill="#ff0032" height="14.285714285714286" stroke="none" width="10.714285714285714" x="128.57142857142858" y="71.42857142857143" /><rect fill="#fec50c" height="14.285714285714286" stroke="none" width="10.714285714285714" x="128.57142857142858" y="85.71428571428571" /><rect fill="#ff0032" height="14.285714285714286" stroke="none" width="10.714285714285714" x="139.28571428571428" y="0.0" /><rect fill="#fec50c" height="14.285714285714286" stroke="none" width="10.714285714285714" x="139.28571428571428" y="14.285714285714286" /><rect fill="#ff0032" height="14.285714285714286" stroke="none" width="10.714285714285714" x="139.28571428571428" y="28.571428571428573" /><rect fill="#fec50c" height="14.285714285714286" stroke="none" width="10.714285714285714" x="139.28571428571428" y="42.857142857142854" /><rect fill="#ff0032" height="14.285714285714286" stroke="none" width="10.714285714285714" x="139.28571428571428" y="57.142857142857146" /><rect fill="#fec50c" height="14.285714285714286" stroke="none" width="10.714285714285714" x="139.28571428571428" y="71.42857142857143" /><rect fill="#ff0032" height="14.285714285714286" stroke="none" width="10.714285714285714" x="139.28571428571428" y="85.71428571428571" /></g><g transform="translate(50.56949605390864, 25.56949605390864) scale(0.4886100789218272) rotate(0, 50.0, 50.0)"><path d="M 86.7,77.8 L 79.9,71.0 C 82.60000000000001,67.0 84.5,62.5 85.4,57.8 C 86.9,50.8 86.30000000000001,43.4 83.80000000000001,36.699999999999996 C 81.30000000000001,29.999999999999996 76.9,23.999999999999996 71.10000000000001,19.799999999999997 C 65.30000000000001,15.599999999999998 58.6,13.0 51.5,12.4 C 60.2,17.5 67.2,25.6 70.9,34.9 C 73.10000000000001,40.199999999999996 74.2,45.8 73.80000000000001,51.5 C 73.50000000000001,55.1 72.50000000000001,58.8 70.80000000000001,62.1 L 45.6,36.8 L 54.8,27.599999999999998 L 49.3,22.099999999999998 C 47.4,23.099999999999998 45.199999999999996,23.799999999999997 43.099999999999994,24.299999999999997 C 40.89999999999999,24.699999999999996 38.599999999999994,24.799999999999997 36.39999999999999,24.599999999999998 L 18.199999999999992,42.599999999999994 L 28.89999999999999,53.3 L 36.099999999999994,46.099999999999994 L 61.49999999999999,71.5 C 59.199999999999996,72.9 56.599999999999994,73.8 53.89999999999999,74.4 C 48.79999999999999,75.4 43.39999999999999,75.2 38.39999999999999,73.80000000000001 C 30.59999999999999,71.80000000000001 23.499999999999993,67.4 18.09999999999999,61.30000000000001 L -0.1,79.5 L 7.7,87.3 L 19.8,75.2 C 26.7,83.0 36.9,87.7 47.3,88.0 C 55.599999999999994,88.2 63.9,85.5 70.6,80.6 L 77.19999999999999,87.19999999999999 L 86.7,77.8" fill="#6699ff" stroke="#ffffff" stroke-width="3.0" /></g></svg>