<?xml version="1.0" encoding="utf-8" ?>
<svg baseProfile="full" height="100px" version="1.1" width="150px" xmlns="http://www.w3.org/2000/svg" xmlns:ev="http://www.w3.org/2001/xml-events" xmlns:xlink="http://www.w3.org/1999/xlink"><defs><clipPath id="mask0"><rect height="100" width="150" x="0" y="0" /></clipPath><clipPath id="mask1"><rect height="50.0" width="75.0" x="0" y="0" /></clipPath></defs><g clip-path="url(#mask0)"><rect fill="#bcb844" height="100" stroke="none" width="150" x="0" y="0" /></g><g clip-path="url(#mask1)"><rect fill="#0039a6" height="50.0" stroke="none" width="37.5" x="0.0" y="2" /><rect fill="#75197d" height="50.0" stroke="none" width="37.5" x="37.5" y="2" /></g><g id="empty" /><g transform="translate(87.29535005240935, 24.795350052409344) scale(0.5040929989518131) rotate(0, 50.0, 50.0)"><path d="M 90.0,56.4 L 90.0,3.6 L 10.0,3.6 L 10.0,56.4 C 10.0,78.5 27.9,96.4 50.0,96.4 C 72.1,96.4 90.0,78.5 90.0,56.4" fill="#CC3026" stroke="none" stroke-width="2.0" /><path d="M 29.0,16.7 C 29.0,16.4 28.9,16.099999999999998 28.6,15.899999999999999 L 28.0,14.099999999999998 L 27.4,15.899999999999999 C 27.0,16.2 26.9,16.9 27.2,17.299999999999997 C 27.3,17.499999999999996 27.5,17.599999999999998 27.7,17.599999999999998 L 27.7,18.799999999999997 L 28.3,18.799999999999997 L 28.3,17.599999999999998 C 28.8,17.5 29.0,17.1 29.0,16.7" fill="#FDDA2A" stroke="none" stroke-width="2.0" /><path d="M 28.4,19.0 L 27.799999999999997,19.0 C 27.699999999999996,19.0 27.599999999999998,18.9 27.599999999999998,18.8 L 27.599999999999998,17.7 C 27.4,17.599999999999998 27.299999999999997,17.5 27.099999999999998,17.3 C 26.9,17.1 26.799999999999997,16.8 26.9,16.400000000000002 C 26.9,16.1 27.099999999999998,15.900000000000002 27.299999999999997,15.700000000000003 L 27.9,13.900000000000002 C 27.9,13.800000000000002 28.2,13.800000000000002 28.2,13.900000000000002 L 28.8,15.700000000000003 C 29.1,15.900000000000002 29.2,16.200000000000003 29.2,16.6 C 29.2,17.1 28.9,17.5 28.5,17.700000000000003 L 28.5,18.800000000000004 C 28.5,18.9 28.5,19.0 28.4,19.0 M 27.9,18.7 L 28.2,18.7 L 28.2,17.7 C 28.2,17.599999999999998 28.2,17.599999999999998 28.3,17.5 C 28.6,17.4 28.900000000000002,17.1 28.900000000000002,16.7 C 28.900000000000002,16.4 28.8,16.2 28.6,16.0 C 28.6,16.0 28.6,16.0 28.5,15.9 L 28.1,14.5 L 27.6,16.0 C 27.6,16.0 27.6,16.1 27.5,16.1 C 27.3,16.200000000000003 27.2,16.400000000000002 27.2,16.6 C 27.2,16.8 27.2,17.0 27.4,17.200000000000003 C 27.5,17.300000000000004 27.599999999999998,17.400000000000002 27.799999999999997,17.500000000000004 C 27.9,17.500000000000004 27.9,17.600000000000005 27.9,17.700000000000003 L 27.9,18.7" fill="#111111" stroke="none" stroke-width="2.0" /><path d="M 35.4,16.7 C 35.4,16.4 35.3,16.099999999999998 35.0,15.899999999999999 L 34.4,14.099999999999998 L 33.8,15.899999999999999 C 33.4,16.2 33.3,16.9 33.599999999999994,17.299999999999997 C 33.699999999999996,17.499999999999996 33.89999999999999,17.599999999999998 34.099999999999994,17.599999999999998 L 34.099999999999994,18.799999999999997 L 34.699999999999996,18.799999999999997 L 34.699999999999996,17.599999999999998 C 35.2,17.5 35.4,17.1 35.4,16.7" fill="#FDDA2A" stroke="none" stroke-width="2.0" /><path d="M 34.8,19.0 L 34.199999999999996,19.0 C 34.099999999999994,19.0 33.99999999999999,18.9 33.99999999999999,18.8 L 33.99999999999999,17.7 C 33.79999999999999,17.599999999999998 33.699999999999996,17.5 33.49999999999999,17.3 C 33.29999999999999,17.1 33.199999999999996,16.8 33.29999999999999,16.5 C 33.29999999999999,16.2 33.49999999999999,16.0 33.69999999999999,15.8 L 34.29999999999999,14.0 C 34.29999999999999,13.9 34.59999999999999,13.9 34.59999999999999,14.0 L 35.19999999999999,15.8 C 35.499999999999986,16.0 35.59999999999999,16.3 35.59999999999999,16.7 L 35.59999999999999,16.7 C 35.59999999999999,17.2 35.29999999999999,17.599999999999998 34.899999999999984,17.8 L 34.899999999999984,18.900000000000002 C 34.9,18.9 34.9,19.0 34.8,19.0 M 34.3,18.7 L 34.599999999999994,18.7 L 34.599999999999994,17.7 C 34.599999999999994,17.599999999999998 34.599999999999994,17.599999999999998 34.699999999999996,17.5 C 34.99999999999999,17.4 35.3,17.1 35.3,16.7 C 35.3,16.4 35.199999999999996,16.2 35.0,16.0 C 35.0,16.0 35.0,16.0 34.9,15.9 L 34.5,14.5 L 34.0,16.0 C 34.0,16.0 34.0,16.1 33.9,16.1 C 33.699999999999996,16.200000000000003 33.6,16.400000000000002 33.6,16.6 C 33.6,16.8 33.6,17.0 33.800000000000004,17.200000000000003 C 33.900000000000006,17.300000000000004 34.00000000000001,17.400000000000002 34.2,17.500000000000004 C 34.300000000000004,17.500000000000004 34.300000000000004,17.600000000000005 34.300000000000004,17.700000000000003 L 34.300000000000004,18.7 L 34.3,18.7" fill="#111111" stroke="none" stroke-width="2.0" /><path d="M 35.0,18.5 L 27.5,18.5 L 27.4,18.7 L 24.0,23.6 L 23.5,24.400000000000002 L 24.7,24.400000000000002 L 25.599999999999998,25.3 L 25.2,25.7 L 24.8,26.0 L 25.1,26.3 L 25.700000000000003,26.900000000000002 L 25.700000000000003,35.900000000000006 L 25.1,36.50000000000001 L 24.8,37.0 L 25.1,37.3 L 25.700000000000003,37.9 L 25.700000000000003,53.099999999999994 L 36.7,53.099999999999994 L 36.7,37.9 L 37.300000000000004,37.3 L 37.6,37.0 L 37.300000000000004,36.7 L 36.8,36.0 L 36.8,27.0 L 37.4,26.4 L 37.699999999999996,26.099999999999998 L 37.4,25.799999999999997 L 37.0,25.2 L 37.9,24.3 L 39.0,24.3 L 38.5,23.5 L 35.1,18.6 L 35.0,18.5" fill="#111111" stroke="none" stroke-width="2.0" /><path d="M 33.1,28.1 L 32.5,28.1 L 32.5,28.0 C 32.5,27.7 32.3,27.5 32.0,27.5 C 31.9,27.5 31.7,27.5 31.7,27.6 C 31.599999999999998,27.700000000000003 31.599999999999998,27.8 31.599999999999998,27.900000000000002 L 31.599999999999998,28.000000000000004 L 31.499999999999996,28.000000000000004 L 30.999999999999996,28.000000000000004 L 30.999999999999996,27.900000000000002 C 30.999999999999996,27.8 30.999999999999996,27.6 30.899999999999995,27.6 C 30.799999999999994,27.5 30.699999999999996,27.5 30.599999999999994,27.5 C 30.499999999999993,27.5 30.299999999999994,27.5 30.299999999999994,27.6 C 30.199999999999992,27.700000000000003 30.199999999999992,27.8 30.199999999999992,27.900000000000002 L 30.199999999999992,28.000000000000004 L 30.09999999999999,28.000000000000004 L 29.59999999999999,28.000000000000004 L 29.59999999999999,27.900000000000002 C 29.59999999999999,27.6 29.39999999999999,27.400000000000002 29.09999999999999,27.400000000000002 C 28.99999999999999,27.400000000000002 28.79999999999999,27.400000000000002 28.79999999999999,27.500000000000004 C 28.69999999999999,27.600000000000005 28.69999999999999,27.700000000000003 28.69999999999999,27.800000000000004 L 28.69999999999999,27.900000000000006 L 28.599999999999987,27.900000000000006 L 28.099999999999987,27.900000000000006 L 28.099999999999987,27.800000000000004 C 28.099999999999987,27.500000000000004 27.899999999999988,27.300000000000004 27.599999999999987,27.300000000000004 C 27.599999999999987,27.300000000000004 27.599999999999987,27.300000000000004 27.599999999999987,27.300000000000004 C 27.299999999999986,27.300000000000004 27.099999999999987,27.500000000000004 27.099999999999987,27.800000000000004 L 27.099999999999987,27.900000000000006 L 26.999999999999986,27.900000000000006 L 26.599999999999987,27.900000000000006 L 26.599999999999987,27.700000000000006 L 26.899999999999988,27.700000000000006 C 26.99999999999999,27.300000000000008 27.299999999999986,27.100000000000005 27.599999999999987,27.100000000000005 C 27.599999999999987,27.100000000000005 27.599999999999987,27.100000000000005 27.599999999999987,27.100000000000005 C 27.999999999999986,27.100000000000005 28.299999999999986,27.400000000000006 28.299999999999986,27.700000000000006 L 28.0,27.700000000000006 C 28.1,27.300000000000008 28.4,27.100000000000005 28.7,27.100000000000005 C 28.7,27.100000000000005 28.7,27.100000000000005 28.7,27.100000000000005 C 28.9,27.100000000000005 29.099999999999998,27.200000000000006 29.2,27.300000000000004 C 29.3,27.400000000000006 29.4,27.500000000000004 29.4,27.700000000000003 L 29.599999999999998,27.700000000000003 C 29.599999999999998,27.500000000000004 29.7,27.400000000000002 29.799999999999997,27.300000000000004 C 29.9,27.200000000000003 30.099999999999998,27.100000000000005 30.299999999999997,27.100000000000005 C 30.299999999999997,27.100000000000005 30.299999999999997,27.100000000000005 30.299999999999997,27.100000000000005 C 30.499999999999996,27.100000000000005 30.699999999999996,27.200000000000006 30.799999999999997,27.300000000000004 C 30.9,27.400000000000006 30.999999999999996,27.500000000000004 30.999999999999996,27.700000000000003 L 31.199999999999996,27.700000000000003 C 31.299999999999997,27.400000000000002 31.599999999999994,27.1 31.899999999999995,27.1 C 31.899999999999995,27.1 31.899999999999995,27.1 31.899999999999995,27.1 C 32.3,27.1 32.599999999999994,27.400000000000002 32.599999999999994,27.700000000000003 L 32.99999999999999,27.700000000000003 L 32.99999999999999,28.1 L 33.1,28.1" fill="#111111" stroke="none" stroke-width="2.0" /><path d="M 36.4,28.1 L 35.9,28.1 L 35.9,28.0 C 35.9,27.7 35.8,27.5 35.6,27.5 C 35.400000000000006,27.5 35.300000000000004,27.7 35.300000000000004,28.0 L 35.300000000000004,28.1 L 34.800000000000004,28.1 L 34.800000000000004,28.0 C 34.800000000000004,27.7 34.7,27.5 34.50000000000001,27.5 C 34.30000000000001,27.5 34.20000000000001,27.7 34.20000000000001,28.0 L 34.20000000000001,28.1 L 33.70000000000001,28.1 L 33.70000000000001,28.0 C 33.70000000000001,27.7 33.60000000000001,27.5 33.40000000000001,27.5 C 33.20000000000002,27.5 33.100000000000016,27.7 33.100000000000016,28.0 L 33.100000000000016,28.1 L 32.500000000000014,28.1 L 32.500000000000014,27.900000000000002 L 32.80000000000001,27.900000000000002 C 32.80000000000001,27.500000000000004 33.000000000000014,27.3 33.30000000000001,27.3 C 33.60000000000001,27.3 33.80000000000001,27.6 33.80000000000001,27.900000000000002 L 33.80000000000001,27.900000000000002 C 33.80000000000001,27.500000000000004 34.000000000000014,27.3 34.30000000000001,27.3 C 34.60000000000001,27.3 34.80000000000001,27.6 34.80000000000001,27.900000000000002 L 34.80000000000001,27.900000000000002 C 34.80000000000001,27.500000000000004 35.000000000000014,27.3 35.30000000000001,27.3 C 35.60000000000001,27.3 35.80000000000001,27.6 35.80000000000001,27.900000000000002 L 36.000000000000014,27.900000000000002 L 36.000000000000014,28.1 L 36.4,28.1" fill="#111111" stroke="none" stroke-width="2.0" /><path d="M 30.9,45.9 L 28.2,45.9 L 28.2,39.6 L 30.9,39.6 L 30.9,45.9 M 28.5,45.7 L 30.7,45.7 L 30.7,39.800000000000004 L 28.5,39.800000000000004 L 28.5,45.7" fill="#111111" stroke="none" stroke-width="2.0" /><path d="M 35.4,45.9 L 33.9,45.9 L 33.9,39.6 L 35.4,39.6 L 35.4,45.9 M 34.2,45.7 L 35.2,45.7 L 35.2,39.800000000000004 L 34.2,39.800000000000004 L 34.2,45.7" fill="#111111" stroke="none" stroke-width="2.0" /><path d="M 29.2,34.5 L 27.099999999999998,34.5 L 27.099999999999998,31.6 C 27.099999999999998,30.400000000000002 27.599999999999998,29.400000000000002 28.099999999999998,29.400000000000002 C 28.599999999999998,29.400000000000002 29.099999999999998,30.400000000000002 29.099999999999998,31.6 L 29.099999999999998,34.5 L 29.2,34.5 M 27.4,34.2 L 29.0,34.2 L 29.0,31.6 C 29.0,30.5 28.6,29.700000000000003 28.2,29.700000000000003 C 27.8,29.700000000000003 27.4,30.500000000000004 27.4,31.6 L 27.4,34.2" fill="#111111" stroke="none" stroke-width="2.0" /><path d="M 27.7,33.9 L 27.7,31.7 C 27.7,30.7 28.099999999999998,30.099999999999998 28.2,30.099999999999998 C 28.3,30.099999999999998 28.7,30.599999999999998 28.7,31.7 L 28.7,33.9 L 27.7,33.9" fill="#111111" stroke="none" stroke-width="2.0" /><path d="M 32.0,34.5 L 29.9,34.5 L 29.9,31.6 C 29.9,30.400000000000002 30.4,29.400000000000002 30.9,29.400000000000002 C 31.4,29.400000000000002 31.9,30.400000000000002 31.9,31.6 L 31.9,34.5 L 32.0,34.5 M 30.2,34.2 L 31.8,34.2 L 31.8,31.6 C 31.8,30.5 31.400000000000002,29.700000000000003 31.0,29.700000000000003 C 30.6,29.700000000000003 30.2,30.500000000000004 30.2,31.6 L 30.2,34.2" fill="#111111" stroke="none" stroke-width="2.0" /><path d="M 30.4,33.9 L 30.4,31.7 C 30.4,30.7 30.799999999999997,30.099999999999998 30.9,30.099999999999998 C 31.0,30.099999999999998 31.4,30.599999999999998 31.4,31.7 L 31.4,33.9 L 30.4,33.9" fill="#111111" stroke="none" stroke-width="2.0" /><path d="M 35.4,34.5 L 33.9,34.5 L 33.9,31.6 C 33.9,30.5 34.199999999999996,29.400000000000002 34.6,29.400000000000002 C 35.00000000000001,29.400000000000002 35.300000000000004,30.500000000000004 35.300000000000004,31.6 L 35.300000000000004,34.5 L 35.4,34.5 M 34.2,34.3 L 35.2,34.3 L 35.2,31.699999999999996 C 35.2,30.499999999999996 34.900000000000006,29.799999999999997 34.7,29.799999999999997 C 34.5,29.799999999999997 34.2,30.599999999999998 34.2,31.699999999999996 L 34.2,34.3" fill="#111111" stroke="none" stroke-width="2.0" /><path d="M 34.0,34.0 L 34.0,31.8 C 34.0,30.8 34.1,30.2 34.4,30.2 C 34.5,30.2 34.8,30.7 34.8,31.8 L 34.8,34.0 L 34.0,34.0" fill="#111111" stroke="none" stroke-width="2.0" /><path d="M 24.4,24.0 C 24.299999999999997,24.0 24.2,23.9 24.2,23.8 C 24.2,23.8 24.2,23.7 24.2,23.7 L 27.599999999999998,18.799999999999997 C 27.599999999999998,18.799999999999997 27.7,18.699999999999996 27.7,18.699999999999996 L 34.7,18.699999999999996 C 34.800000000000004,18.699999999999996 34.800000000000004,18.699999999999996 34.800000000000004,18.799999999999997 L 38.2,23.699999999999996 C 38.300000000000004,23.799999999999997 38.2,23.899999999999995 38.2,23.899999999999995 C 38.2,23.899999999999995 38.1,23.899999999999995 38.1,23.899999999999995 L 24.4,23.899999999999995 L 24.4,24.0" fill="#A22921" stroke="none" stroke-width="2.0" /><path d="M 34.8,19.0 L 38.199999999999996,23.9 L 24.4,23.9 L 27.799999999999997,19.0 L 34.8,19.0 M 34.8,18.7 L 27.799999999999997,18.7 C 27.699999999999996,18.7 27.599999999999998,18.8 27.499999999999996,18.8 L 24.099999999999998,23.700000000000003 C 23.999999999999996,23.800000000000004 23.999999999999996,24.000000000000004 24.2,24.1 C 24.3,24.1 24.3,24.200000000000003 24.4,24.200000000000003 L 38.099999999999994,24.200000000000003 C 38.3,24.200000000000003 38.39999999999999,24.1 38.39999999999999,23.900000000000002 C 38.39999999999999,23.8 38.39999999999999,23.8 38.29999999999999,23.700000000000003 L 35.0,18.8 C 35.0,18.7 34.9,18.7 34.8,18.7 L 34.8,18.7" fill="#111111" stroke="none" stroke-width="2.0" /><path d="M 29.7,24.0 C 29.6,24.0 29.6,24.0 29.7,24.0 L 29.7,24.0 C 29.6,24.0 29.6,24.0 29.7,24.0 L 29.7,24.0 L 29.7,24.0 C 29.6,24.0 29.6,24.0 29.7,24.0 L 29.7,24.0 C 29.6,24.0 29.6,24.0 29.7,24.0 C 29.6,24.0 29.6,24.0 29.7,24.0 C 29.6,24.0 29.6,24.0 29.7,24.0 L 29.7,24.0 C 29.6,24.0 29.6,24.0 29.7,24.0 L 29.7,24.0 C 29.6,24.0 29.6,24.0 29.7,24.0 L 29.7,24.0 C 29.6,24.0 29.6,24.0 29.7,24.0 L 29.7,24.0 C 29.6,24.0 29.6,24.0 29.7,24.0 L 29.7,24.0 C 29.6,24.0 29.6,24.0 29.7,24.0 L 29.7,24.0 C 29.6,24.0 29.6,24.0 29.7,24.0 C 29.6,24.0 29.6,24.0 29.7,24.0 L 29.7,24.0 C 29.6,23.9 29.6,23.9 29.7,24.0 C 29.3,23.5 28.7,23.4 28.2,23.8 C 28.099999999999998,23.900000000000002 28.099999999999998,23.900000000000002 28.0,24.0 C 28.0,24.0 28.0,24.0 28.0,24.0 L 28.0,24.0 L 28.0,24.0 C 28.0,24.0 28.0,24.0 28.0,24.0 C 28.0,24.0 28.0,24.0 28.0,24.0 L 28.0,24.0 C 28.0,24.0 28.0,24.0 28.0,24.0 L 28.0,24.0 C 28.0,24.0 28.0,24.0 28.0,24.0 L 28.0,24.0 C 28.0,24.0 28.0,24.0 28.0,24.0 L 28.0,24.0 L 28.0,24.0 L 28.0,24.0 C 28.0,24.0 28.0,24.0 28.0,24.0 L 28.0,24.0 L 28.0,24.0 C 28.0,24.0 28.0,24.0 27.9,24.0 C 27.9,24.0 27.9,24.0 27.9,24.0 L 27.9,24.0 C 27.9,24.0 27.9,24.0 27.9,24.0 C 27.9,24.0 27.9,24.0 27.9,24.0 L 27.9,24.0 C 27.9,24.0 27.9,24.0 27.9,24.0 C 27.9,24.0 27.9,24.0 27.9,24.0 C 27.9,24.0 27.9,24.0 27.9,24.0 C 27.9,24.0 27.9,24.0 27.9,24.0 C 27.599999999999998,23.6 27.0,23.5 26.5,23.8 C 26.4,23.900000000000002 26.4,23.900000000000002 26.3,24.0 C 26.3,24.0 26.3,24.0 26.3,24.0 C 26.3,24.0 26.3,24.0 26.3,24.0 L 26.3,24.0 C 26.3,24.0 26.3,24.0 26.3,24.0 C 26.3,24.0 26.3,24.0 26.3,24.0 L 26.3,24.0 L 26.3,24.0 C 26.3,24.0 26.3,24.0 26.3,24.0 C 26.3,24.0 26.3,24.0 26.2,24.0 C 26.2,24.0 26.2,24.0 26.2,24.0 L 26.2,24.0 C 26.2,24.0 26.2,24.0 26.2,24.0 L 26.2,24.0 C 26.2,24.0 26.2,24.0 26.2,24.0 C 26.2,24.0 26.2,24.0 26.2,24.0 C 26.2,24.0 26.2,24.0 26.2,24.0 C 26.2,24.0 26.2,24.0 26.2,24.0 L 26.2,24.0 C 26.2,24.0 26.2,24.0 26.2,24.0 C 26.2,24.0 26.2,24.0 26.2,24.0 C 25.9,23.6 25.3,23.5 24.8,23.8 C 24.7,23.900000000000002 24.7,23.900000000000002 24.6,24.0 C 24.6,24.1 24.5,24.1 24.400000000000002,24.0 C 24.3,24.0 24.3,23.9 24.400000000000002,23.8 C 24.500000000000004,23.7 24.6,23.6 24.6,23.6 C 25.1,23.200000000000003 25.8,23.3 26.200000000000003,23.700000000000003 L 27.700000000000003,21.500000000000004 C 27.500000000000004,21.300000000000004 27.300000000000004,21.200000000000003 27.1,21.200000000000003 C 26.8,21.200000000000003 26.6,21.200000000000003 26.400000000000002,21.400000000000002 C 26.3,21.500000000000004 26.3,21.500000000000004 26.200000000000003,21.6 C 26.200000000000003,21.700000000000003 26.1,21.700000000000003 26.000000000000004,21.6 C 25.900000000000002,21.6 25.900000000000002,21.5 26.000000000000004,21.400000000000002 C 26.100000000000005,21.3 26.200000000000003,21.200000000000003 26.200000000000003,21.200000000000003 C 26.500000000000004,21.000000000000004 26.800000000000004,20.900000000000002 27.1,21.000000000000004 C 27.400000000000002,21.000000000000004 27.6,21.200000000000003 27.8,21.400000000000002 L 29.400000000000002,19.1 C 29.400000000000002,19.0 29.500000000000004,19.0 29.6,19.1 C 29.700000000000003,19.1 29.700000000000003,19.200000000000003 29.6,19.3 L 28.3,21.2 C 28.7,21.099999999999998 29.2,21.2 29.6,21.5 L 31.200000000000003,19.2 C 31.200000000000003,19.099999999999998 31.300000000000004,19.099999999999998 31.400000000000002,19.2 C 31.500000000000004,19.2 31.500000000000004,19.3 31.400000000000002,19.4 L 30.1,21.299999999999997 C 30.3,21.199999999999996 30.5,21.199999999999996 30.700000000000003,21.199999999999996 C 31.000000000000004,21.199999999999996 31.200000000000003,21.399999999999995 31.400000000000002,21.599999999999994 L 33.0,19.299999999999994 C 33.0,19.199999999999992 33.1,19.199999999999992 33.2,19.299999999999994 C 33.300000000000004,19.299999999999994 33.300000000000004,19.399999999999995 33.2,19.499999999999993 L 31.900000000000002,21.39999999999999 C 32.1,21.29999999999999 32.300000000000004,21.29999999999999 32.5,21.29999999999999 C 32.8,21.29999999999999 33.0,21.49999999999999 33.2,21.69999999999999 L 34.800000000000004,19.399999999999988 C 34.800000000000004,19.299999999999986 34.900000000000006,19.299999999999986 35.00000000000001,19.399999999999988 C 35.10000000000001,19.399999999999988 35.10000000000001,19.49999999999999 35.00000000000001,19.599999999999987 L 34.00000000000001,21.099999999999987 L 34.00000000000001,21.69999999999999 C 34.300000000000004,21.49999999999999 34.60000000000001,21.399999999999988 34.900000000000006,21.399999999999988 C 35.300000000000004,21.399999999999988 35.60000000000001,21.49999999999999 35.900000000000006,21.69999999999999 L 35.900000000000006,21.099999999999987 C 35.900000000000006,20.999999999999986 36.00000000000001,20.999999999999986 36.00000000000001,20.999999999999986 C 36.00000000000001,20.999999999999986 36.10000000000001,21.099999999999987 36.10000000000001,21.099999999999987 L 36.10000000000001,21.69999999999999 C 36.20000000000001,21.599999999999987 36.20000000000001,21.599999999999987 36.30000000000001,21.599999999999987 C 36.40000000000001,21.599999999999987 36.40000000000001,21.599999999999987 36.500000000000014,21.69999999999999 C 36.500000000000014,21.79999999999999 36.500000000000014,21.79999999999999 36.40000000000001,21.899999999999988 C 36.30000000000001,21.99999999999999 36.20000000000001,21.99999999999999 36.100000000000016,22.099999999999987 L 36.100000000000016,24.19999999999999 C 36.70000000000002,23.69999999999999 37.600000000000016,23.79999999999999 38.20000000000002,24.399999999999988 C 38.20000000000002,24.399999999999988 38.20000000000002,24.49999999999999 38.20000000000002,24.599999999999987 C 38.20000000000002,24.599999999999987 38.100000000000016,24.599999999999987 38.000000000000014,24.599999999999987 C 37.500000000000014,24.099999999999987 36.600000000000016,23.999999999999986 36.100000000000016,24.499999999999986 C 36.100000000000016,24.499999999999986 36.100000000000016,24.499999999999986 36.000000000000014,24.599999999999987 C 36.000000000000014,24.599999999999987 36.000000000000014,24.599999999999987 36.000000000000014,24.599999999999987 C 36.000000000000014,24.599999999999987 36.000000000000014,24.599999999999987 36.000000000000014,24.599999999999987 L 36.000000000000014,24.599999999999987 C 36.000000000000014,24.599999999999987 36.000000000000014,24.599999999999987 36.000000000000014,24.599999999999987 L 36.000000000000014,24.599999999999987 C 36.000000000000014,24.599999999999987 36.000000000000014,24.599999999999987 36.000000000000014,24.599999999999987 L 36.000000000000014,24.599999999999987 L 36.000000000000014,24.599999999999987 C 36.000000000000014,24.599999999999987 36.000000000000014,24.599999999999987 36.000000000000014,24.599999999999987 L 36.000000000000014,24.599999999999987 L 36.000000000000014,24.599999999999987 C 36.000000000000014,24.599999999999987 35.90000000000001,24.599999999999987 35.90000000000001,24.599999999999987 L 35.90000000000001,24.599999999999987 L 35.90000000000001,24.599999999999987 L 35.90000000000001,24.599999999999987 L 35.90000000000001,24.599999999999987 C 35.90000000000001,24.599999999999987 35.90000000000001,24.599999999999987 35.90000000000001,24.599999999999987 L 35.90000000000001,24.599999999999987 C 35.90000000000001,24.599999999999987 35.90000000000001,24.599999999999987 35.90000000000001,24.599999999999987 L 35.90000000000001,24.599999999999987 C 35.90000000000001,24.599999999999987 35.90000000000001,24.599999999999987 35.90000000000001,24.599999999999987 C 35.90000000000001,24.599999999999987 35.90000000000001,24.599999999999987 35.90000000000001,24.599999999999987 L 35.90000000000001,24.599999999999987 C 35.90000000000001,24.599999999999987 35.90000000000001,24.599999999999987 35.90000000000001,24.599999999999987 C 35.90000000000001,24.599999999999987 35.90000000000001,24.599999999999987 35.90000000000001,24.599999999999987 C 35.40000000000001,24.099999999999987 34.500000000000014,23.999999999999986 34.000000000000014,24.499999999999986 C 34.000000000000014,24.499999999999986 34.000000000000014,24.499999999999986 34.000000000000014,24.499999999999986 C 34.000000000000014,24.499999999999986 33.90000000000001,24.499999999999986 33.90000000000001,24.499999999999986 L 33.90000000000001,24.499999999999986 C 33.90000000000001,24.499999999999986 33.90000000000001,24.499999999999986 33.90000000000001,24.499999999999986 C 33.90000000000001,24.499999999999986 33.90000000000001,24.499999999999986 33.90000000000001,24.499999999999986 L 33.90000000000001,24.499999999999986 C 33.90000000000001,24.499999999999986 33.90000000000001,24.499999999999986 33.90000000000001,24.499999999999986 L 33.90000000000001,24.499999999999986 C 33.90000000000001,24.499999999999986 33.90000000000001,24.499999999999986 33.90000000000001,24.499999999999986 L 33.90000000000001,24.499999999999986 L 33.90000000000001,24.499999999999986 C 33.90000000000001,24.499999999999986 33.90000000000001,24.499999999999986 33.90000000000001,24.499999999999986 C 33.90000000000001,24.499999999999986 33.90000000000001,24.499999999999986 33.90000000000001,24.499999999999986 L 33.90000000000001,24.499999999999986 C 33.90000000000001,24.499999999999986 33.90000000000001,24.499999999999986 33.90000000000001,24.499999999999986 C 33.90000000000001,24.499999999999986 33.90000000000001,24.499999999999986 33.90000000000001,24.499999999999986 C 33.70000000000001,24.199999999999985 33.30000000000001,24.099999999999987 33.000000000000014,24.099999999999987 C 32.600000000000016,24.099999999999987 32.30000000000001,24.19999999999999 32.000000000000014,24.499999999999986 L 31.6,24.0 C 31.6,24.0 31.5,24.0 31.400000000000002,24.0 C 31.400000000000002,24.0 31.400000000000002,24.0 31.400000000000002,24.0 L 31.400000000000002,24.0 L 31.400000000000002,24.0 C 31.400000000000002,24.0 31.400000000000002,24.0 31.3,24.0 C 31.3,24.0 31.3,24.0 31.3,24.0 C 31.3,24.0 31.3,24.0 31.3,24.0 C 31.3,24.0 31.3,24.0 31.3,24.0 C 31.0,23.6 30.400000000000002,23.5 29.900000000000002,23.8 C 29.9,23.8 29.8,23.9 29.7,24.0 C 29.8,23.9 29.7,24.0 29.7,24.0 C 29.7,24.0 29.7,24.0 29.7,24.0 L 29.7,24.0 C 29.7,24.0 29.7,24.0 29.7,24.0 L 29.7,24.0 C 29.7,24.0 29.7,24.0 29.7,24.0 L 29.7,24.0 L 29.7,24.0 L 29.7,24.0 C 29.7,24.0 29.7,24.0 29.7,24.0 L 29.7,24.0 L 29.7,24.0 C 29.7,24.0 29.7,24.0 29.7,24.0 C 29.7,24.0 29.7,24.0 29.7,24.0 L 29.7,24.0 L 29.7,24.0 C 29.7,24.0 29.7,24.0 29.7,24.0 M 28.8,23.3 C 29.1,23.3 29.400000000000002,23.400000000000002 29.7,23.7 L 31.2,21.5 C 31.0,21.3 30.8,21.2 30.599999999999998,21.2 C 30.299999999999997,21.2 30.099999999999998,21.2 29.9,21.4 C 29.799999999999997,21.5 29.799999999999997,21.5 29.7,21.599999999999998 C 29.7,21.599999999999998 29.7,21.599999999999998 29.7,21.599999999999998 L 28.4,23.499999999999996 C 28.5,23.3 28.6,23.3 28.8,23.3 M 27.0,23.3 C 27.3,23.3 27.6,23.400000000000002 27.9,23.7 L 29.4,21.5 C 29.2,21.3 29.0,21.2 28.799999999999997,21.2 C 28.499999999999996,21.2 28.299999999999997,21.2 28.099999999999998,21.4 C 27.999999999999996,21.5 27.999999999999996,21.5 27.9,21.599999999999998 C 27.9,21.599999999999998 27.9,21.599999999999998 27.9,21.599999999999998 L 26.599999999999998,23.499999999999996 C 26.8,23.3 26.9,23.3 27.0,23.3 M 30.5,23.3 C 30.8,23.3 31.1,23.400000000000002 31.4,23.7 L 32.9,21.5 C 32.699999999999996,21.3 32.5,21.2 32.3,21.2 C 31.999999999999996,21.2 31.799999999999997,21.2 31.599999999999998,21.4 C 31.499999999999996,21.5 31.499999999999996,21.5 31.4,21.599999999999998 C 31.4,21.599999999999998 31.4,21.599999999999998 31.4,21.599999999999998 L 30.099999999999998,23.499999999999996 C 30.3,23.3 30.4,23.3 30.5,23.3 M 34.8,23.3 C 35.099999999999994,23.3 35.5,23.400000000000002 35.699999999999996,23.6 L 35.699999999999996,21.5 C 35.699999999999996,21.5 35.699999999999996,21.5 35.699999999999996,21.5 C 35.199999999999996,21.0 34.3,21.0 33.8,21.5 L 33.8,23.6 C 34.1,23.4 34.4,23.3 34.8,23.3 M 32.6,23.3 C 32.6,23.3 32.7,23.3 32.6,23.3 C 33.0,23.3 33.300000000000004,23.400000000000002 33.5,23.6 L 33.5,21.5 C 33.4,21.4 33.3,21.4 33.3,21.3 L 33.199999999999996,21.5 C 33.199999999999996,21.5 33.199999999999996,21.5 33.199999999999996,21.5 L 31.799999999999997,23.5 C 32.0,23.4 32.3,23.3 32.6,23.3 M 33.5,21.1 C 33.5,21.1 33.6,21.1 33.6,21.200000000000003 L 33.6,21.000000000000004 L 33.5,21.1" fill="#111111" stroke="none" stroke-width="2.0" /><path d="M 71.0,16.7 C 71.0,16.4 71.1,16.099999999999998 71.4,15.899999999999999 L 72.0,14.099999999999998 L 72.6,15.899999999999999 C 73.0,16.2 73.1,16.9 72.8,17.299999999999997 C 72.7,17.499999999999996 72.5,17.599999999999998 72.3,17.599999999999998 L 72.3,18.799999999999997 L 71.7,18.799999999999997 L 71.7,17.599999999999998 C 71.2,17.5 71.0,17.1 71.0,16.7" fill="#FDDA2A" stroke="none" stroke-width="2.0" /><path d="M 72.2,19.0 L 71.60000000000001,19.0 C 71.50000000000001,19.0 71.4,18.9 71.4,18.8 L 71.4,17.7 C 71.0,17.5 70.7,17.099999999999998 70.7,16.599999999999998 C 70.7,16.299999999999997 70.9,15.899999999999999 71.10000000000001,15.699999999999998 L 71.7,13.899999999999997 C 71.7,13.799999999999997 72.0,13.799999999999997 72.0,13.899999999999997 L 72.6,15.699999999999998 C 72.8,15.899999999999997 73.0,16.099999999999998 73.0,16.4 C 73.0,16.7 73.0,17.0 72.8,17.299999999999997 C 72.7,17.499999999999996 72.5,17.599999999999998 72.3,17.699999999999996 L 72.3,18.799999999999997 C 72.4,18.9 72.3,19.0 72.2,19.0 M 71.8,18.7 L 72.1,18.7 L 72.1,17.7 C 72.1,17.599999999999998 72.1,17.599999999999998 72.19999999999999,17.5 C 72.39999999999999,17.4 72.49999999999999,17.3 72.6,17.2 C 72.69999999999999,17.0 72.8,16.8 72.8,16.599999999999998 C 72.8,16.399999999999995 72.7,16.2 72.5,16.099999999999998 C 72.5,16.099999999999998 72.5,16.099999999999998 72.4,15.999999999999998 L 71.9,14.599999999999998 L 71.5,16.0 C 71.5,16.0 71.5,16.1 71.4,16.1 C 71.2,16.3 71.10000000000001,16.5 71.10000000000001,16.8 C 71.10000000000001,17.2 71.30000000000001,17.5 71.7,17.6 C 71.8,17.6 71.8,17.700000000000003 71.8,17.8 L 71.8,18.7" fill="#111111" stroke="none" stroke-width="2.0" /><path d="M 64.6,16.7 C 64.6,16.4 64.69999999999999,16.099999999999998 65.0,15.899999999999999 L 65.6,14.099999999999998 L 66.19999999999999,15.899999999999999 C 66.6,16.2 66.69999999999999,16.9 66.39999999999999,17.299999999999997 C 66.3,17.499999999999996 66.1,17.599999999999998 65.89999999999999,17.599999999999998 L 65.89999999999999,18.799999999999997 L 65.3,18.799999999999997 L 65.3,17.599999999999998 C 64.8,17.5 64.6,17.1 64.6,16.7" fill="#FDDA2A" stroke="none" stroke-width="2.0" /><path d="M 65.8,19.0 L 65.2,19.0 C 65.10000000000001,19.0 65.0,18.9 65.0,18.8 L 65.0,17.7 C 64.6,17.5 64.3,17.099999999999998 64.3,16.599999999999998 C 64.3,16.299999999999997 64.5,15.899999999999999 64.7,15.699999999999998 L 65.3,13.899999999999997 C 65.3,13.799999999999997 65.6,13.799999999999997 65.6,13.899999999999997 L 66.19999999999999,15.699999999999998 C 66.39999999999999,15.899999999999997 66.6,16.099999999999998 66.6,16.4 C 66.6,16.7 66.6,17.0 66.39999999999999,17.2 C 66.3,17.4 66.1,17.5 65.99999999999999,17.599999999999998 L 65.99999999999999,18.7 C 66.0,18.9 65.9,19.0 65.8,19.0 M 65.4,18.7 L 65.7,18.7 L 65.7,17.7 C 65.7,17.599999999999998 65.7,17.599999999999998 65.8,17.5 C 66.0,17.4 66.1,17.3 66.2,17.2 C 66.3,17.0 66.4,16.8 66.4,16.599999999999998 C 66.4,16.4 66.30000000000001,16.2 66.10000000000001,16.099999999999998 C 66.10000000000001,16.099999999999998 66.10000000000001,16.099999999999998 66.00000000000001,15.999999999999998 L 65.50000000000001,14.599999999999998 L 65.1,16.0 C 65.1,16.0 65.1,16.1 65.0,16.1 C 64.8,16.3 64.7,16.5 64.7,16.8 C 64.7,17.2 64.9,17.5 65.3,17.6 C 65.39999999999999,17.6 65.39999999999999,17.700000000000003 65.39999999999999,17.8 L 65.39999999999999,18.7 L 65.4,18.7" fill="#111111" stroke="none" stroke-width="2.0" /><path d="M 65.0,18.5 L 72.5,18.5 L 72.6,18.7 L 76.0,23.6 L 76.5,24.400000000000002 L 75.3,24.400000000000002 L 74.39999999999999,25.3 L 74.8,25.7 L 75.1,26.0 L 74.8,26.3 L 74.3,27.0 L 74.3,36.0 L 74.89999999999999,36.6 L 75.19999999999999,36.9 L 74.89999999999999,37.199999999999996 L 74.3,37.8 L 74.3,53.0 L 63.3,53.0 L 63.3,37.9 L 62.699999999999996,37.3 L 62.3,37.0 L 62.599999999999994,36.7 L 63.199999999999996,36.1 L 63.199999999999996,27.0 L 62.599999999999994,26.4 L 62.3,26.0 L 62.599999999999994,25.7 L 62.99999999999999,25.3 L 62.099999999999994,24.400000000000002 L 61.0,24.400000000000002 L 61.5,23.6 L 64.9,18.700000000000003 L 65.0,18.5" fill="#111111" stroke="none" stroke-width="2.0" /><path d="M 73.9,28.1 L 73.4,28.1 L 73.4,28.0 C 73.4,27.7 73.2,27.5 72.9,27.5 C 72.80000000000001,27.5 72.60000000000001,27.6 72.60000000000001,27.6 C 72.50000000000001,27.700000000000003 72.50000000000001,27.8 72.50000000000001,27.900000000000002 L 72.50000000000001,28.000000000000004 L 71.90000000000002,28.000000000000004 L 71.90000000000002,28.0 C 71.90000000000002,27.7 71.70000000000002,27.5 71.40000000000002,27.5 C 71.10000000000002,27.5 70.90000000000002,27.7 70.90000000000002,28.0 L 70.90000000000002,28.1 L 70.30000000000003,28.1 L 70.30000000000003,28.0 C 70.30000000000003,27.9 70.20000000000003,27.7 70.20000000000003,27.6 C 70.10000000000004,27.5 70.00000000000003,27.5 69.90000000000003,27.5 C 69.80000000000004,27.5 69.60000000000004,27.6 69.60000000000004,27.6 C 69.50000000000004,27.700000000000003 69.50000000000004,27.8 69.50000000000004,27.900000000000002 L 69.50000000000004,28.000000000000004 L 68.90000000000005,28.000000000000004 L 68.90000000000005,28.0 C 68.90000000000005,27.7 68.70000000000005,27.5 68.40000000000005,27.5 C 68.10000000000005,27.5 67.90000000000005,27.7 67.90000000000005,28.0 L 67.90000000000005,28.1 L 67.30000000000005,28.1 L 67.30000000000005,27.900000000000002 L 67.70000000000006,27.900000000000002 C 67.80000000000005,27.6 68.00000000000006,27.3 68.40000000000006,27.3 C 68.40000000000006,27.3 68.40000000000006,27.3 68.40000000000006,27.3 C 68.80000000000007,27.3 69.10000000000007,27.6 69.10000000000007,27.900000000000002 L 69.30000000000007,27.900000000000002 C 69.30000000000007,27.8 69.40000000000006,27.6 69.50000000000007,27.500000000000004 C 69.60000000000007,27.400000000000002 69.80000000000007,27.300000000000004 70.00000000000007,27.300000000000004 C 70.20000000000007,27.300000000000004 70.40000000000008,27.400000000000006 70.50000000000007,27.500000000000004 C 70.60000000000007,27.600000000000005 70.70000000000007,27.800000000000004 70.70000000000007,27.900000000000002 L 70.90000000000008,27.900000000000002 C 71.00000000000007,27.6 71.20000000000007,27.3 71.60000000000008,27.3 C 71.60000000000008,27.3 71.60000000000008,27.3 71.60000000000008,27.3 C 72.00000000000009,27.3 72.30000000000008,27.6 72.30000000000008,27.900000000000002 L 72.50000000000009,27.900000000000002 C 72.50000000000009,27.8 72.60000000000008,27.6 72.70000000000009,27.500000000000004 C 72.80000000000008,27.400000000000002 73.00000000000009,27.300000000000004 73.20000000000009,27.300000000000004 C 73.6000000000001,27.300000000000004 73.90000000000009,27.600000000000005 73.90000000000009,27.900000000000006 L 74.20000000000009,27.900000000000006 L 74.20000000000009,28.1 L 73.9,28.1" fill="#111111" stroke="none" stroke-width="2.0" /><path d="M 67.2,28.1 L 66.60000000000001,28.1 L 66.60000000000001,28.0 C 66.60000000000001,27.7 66.50000000000001,27.5 66.30000000000001,27.5 C 66.10000000000001,27.5 66.00000000000001,27.7 66.00000000000001,28.0 L 66.00000000000001,28.1 L 65.50000000000001,28.1 L 65.50000000000001,28.0 C 65.50000000000001,27.7 65.40000000000002,27.5 65.20000000000002,27.5 C 65.00000000000001,27.5 64.90000000000002,27.7 64.90000000000002,28.0 L 64.90000000000002,28.1 L 64.40000000000002,28.1 L 64.40000000000002,28.0 C 64.40000000000002,27.7 64.30000000000003,27.5 64.10000000000002,27.5 C 63.90000000000002,27.5 63.800000000000026,27.7 63.800000000000026,28.0 L 63.800000000000026,28.1 L 63.300000000000026,28.1 L 63.300000000000026,27.900000000000002 L 63.50000000000003,27.900000000000002 C 63.50000000000003,27.500000000000004 63.70000000000003,27.3 64.00000000000003,27.3 C 64.30000000000003,27.3 64.50000000000003,27.6 64.50000000000003,27.900000000000002 L 64.50000000000003,27.900000000000002 C 64.50000000000003,27.500000000000004 64.70000000000003,27.3 65.00000000000003,27.3 C 65.30000000000003,27.3 65.50000000000003,27.6 65.50000000000003,27.900000000000002 L 65.50000000000003,27.900000000000002 C 65.50000000000003,27.500000000000004 65.70000000000003,27.3 66.00000000000003,27.3 C 66.30000000000003,27.3 66.50000000000003,27.6 66.50000000000003,27.900000000000002 L 66.80000000000003,27.900000000000002 L 66.80000000000003,28.1 L 67.2,28.1" fill="#111111" stroke="none" stroke-width="2.0" /><path d="M 71.8,45.9 L 69.1,45.9 L 69.1,39.6 L 71.8,39.6 L 71.8,45.9 M 69.3,45.7 L 71.5,45.7 L 71.5,39.800000000000004 L 69.3,39.800000000000004 L 69.3,45.7" fill="#111111" stroke="none" stroke-width="2.0" /><path d="M 66.1,45.9 L 64.6,45.9 L 64.6,39.6 L 66.1,39.6 L 66.1,45.9 M 64.9,45.7 L 65.9,45.7 L 65.9,39.800000000000004 L 64.9,39.800000000000004 L 64.9,45.7" fill="#111111" stroke="none" stroke-width="2.0" /><path d="M 72.8,34.5 L 70.7,34.5 L 70.7,31.6 C 70.7,30.400000000000002 71.2,29.400000000000002 71.7,29.400000000000002 C 72.2,29.400000000000002 72.7,30.400000000000002 72.7,31.6 L 72.7,34.5 L 72.8,34.5 M 71.0,34.2 L 72.6,34.2 L 72.6,31.6 C 72.6,30.5 72.19999999999999,29.700000000000003 71.8,29.700000000000003 C 71.4,29.700000000000003 71.0,30.5 71.0,31.6 L 71.0,34.2" fill="#111111" stroke="none" stroke-width="2.0" /><path d="M 72.3,33.9 L 72.3,31.7 C 72.3,30.7 71.89999999999999,30.099999999999998 71.8,30.099999999999998 C 71.7,30.099999999999998 71.3,30.599999999999998 71.3,31.7 L 71.3,33.9 L 72.3,33.9" fill="#111111" stroke="none" stroke-width="2.0" /><path d="M 70.1,34.5 L 68.0,34.5 L 68.0,31.6 C 68.0,30.400000000000002 68.5,29.400000000000002 69.0,29.400000000000002 C 69.5,29.400000000000002 70.0,30.400000000000002 70.0,31.6 L 70.0,34.5 L 70.1,34.5 M 68.3,34.2 L 69.89999999999999,34.2 L 69.89999999999999,31.6 C 69.89999999999999,30.5 69.49999999999999,29.700000000000003 69.1,29.700000000000003 C 68.7,29.700000000000003 68.3,30.500000000000004 68.3,31.6 L 68.3,34.2" fill="#111111" stroke="none" stroke-width="2.0" /><path d="M 69.6,33.9 L 69.6,31.7 C 69.6,30.7 69.19999999999999,30.099999999999998 69.1,30.099999999999998 C 69.0,30.099999999999998 68.6,30.599999999999998 68.6,31.7 L 68.6,33.9 L 69.6,33.9" fill="#111111" stroke="none" stroke-width="2.0" /><path d="M 66.1,34.5 L 64.6,34.5 L 64.6,31.6 C 64.6,30.5 64.89999999999999,29.400000000000002 65.3,29.400000000000002 C 65.7,29.400000000000002 66.0,30.500000000000004 66.0,31.6 L 66.0,34.5 L 66.1,34.5 M 64.9,34.3 L 65.9,34.3 L 65.9,31.699999999999996 C 65.9,30.499999999999996 65.60000000000001,29.799999999999997 65.4,29.799999999999997 C 65.2,29.799999999999997 64.9,30.599999999999998 64.9,31.699999999999996 L 64.9,34.3" fill="#111111" stroke="none" stroke-width="2.0" /><path d="M 66.0,34.0 L 66.0,31.8 C 66.0,30.8 65.9,30.2 65.6,30.2 C 65.5,30.2 65.19999999999999,30.7 65.19999999999999,31.8 L 65.19999999999999,34.0 L 66.0,34.0" fill="#111111" stroke="none" stroke-width="2.0" /><path d="M 75.6,24.0 C 75.69999999999999,24.0 75.8,23.9 75.8,23.8 C 75.8,23.8 75.8,23.7 75.8,23.7 L 72.39999999999999,18.799999999999997 C 72.39999999999999,18.799999999999997 72.3,18.699999999999996 72.3,18.699999999999996 L 65.3,18.699999999999996 C 65.2,18.699999999999996 65.2,18.699999999999996 65.2,18.799999999999997 L 61.800000000000004,23.699999999999996 C 61.7,23.799999999999997 61.800000000000004,23.899999999999995 61.800000000000004,23.899999999999995 C 61.800000000000004,23.899999999999995 61.900000000000006,23.899999999999995 61.900000000000006,23.899999999999995 L 75.6,23.899999999999995 L 75.6,24.0" fill="#A22921" stroke="none" stroke-width="2.0" /><path d="M 65.2,19.0 L 61.800000000000004,23.9 L 75.5,23.9 L 72.2,19.0 L 65.2,19.0 M 65.2,18.7 L 72.2,18.7 C 72.3,18.7 72.4,18.8 72.5,18.8 L 75.9,23.700000000000003 C 76.0,23.800000000000004 76.0,24.000000000000004 75.80000000000001,24.1 C 75.70000000000002,24.1 75.70000000000002,24.200000000000003 75.60000000000001,24.200000000000003 L 61.9,24.200000000000003 C 61.699999999999996,24.200000000000003 61.6,24.1 61.6,23.900000000000002 C 61.6,23.8 61.6,23.8 61.7,23.700000000000003 L 65.10000000000001,18.800000000000004 C 65.0,18.7 65.1,18.7 65.2,18.7 L 65.2,18.7" fill="#111111" stroke="none" stroke-width="2.0" /><path d="M 73.8,24.0 C 73.8,24.0 73.8,24.0 73.8,24.0 L 73.8,24.0 C 73.8,24.0 73.8,24.0 73.8,24.0 C 73.8,24.0 73.8,24.0 73.8,24.0 L 73.8,24.0 C 73.8,24.0 73.8,24.0 73.8,24.0 C 73.8,24.0 73.8,24.0 73.8,24.0 L 73.8,24.0 C 73.8,24.0 73.8,24.0 73.8,24.0 L 73.8,24.0 C 73.8,24.0 73.8,24.0 73.8,24.0 C 73.8,24.0 73.8,23.9 73.8,24.0 C 73.6,23.9 73.6,23.8 73.5,23.8 C 73.1,23.5 72.5,23.6 72.1,24.0 C 72.1,24.0 72.1,24.0 72.1,24.0 L 72.1,24.0 C 72.1,24.0 72.1,24.0 72.1,24.0 C 72.1,24.0 72.1,24.0 72.1,24.0 C 72.1,24.0 72.1,24.0 72.1,24.0 L 72.1,24.0 L 72.1,24.0 L 72.1,24.0 C 72.1,24.0 72.1,24.0 72.1,24.0 C 72.1,24.0 72.1,24.0 72.1,24.0 C 72.1,24.0 72.1,24.0 72.1,24.0 L 72.1,24.0 L 72.1,24.0 L 72.1,24.0 C 72.1,24.0 72.1,24.0 72.1,24.0 L 72.1,24.0 L 72.1,24.0 C 72.1,24.0 72.1,24.0 72.1,24.0 L 72.1,24.0 C 72.1,24.0 72.1,24.0 72.0,24.0 C 72.0,24.0 72.0,24.0 72.0,24.0 C 72.0,24.0 72.0,24.0 72.0,24.0 C 71.9,23.9 71.9,23.9 71.8,23.8 C 71.6,23.6 71.3,23.6 71.1,23.6 C 70.8,23.6 70.6,23.8 70.5,24.0 C 70.5,24.0 70.5,24.0 70.5,24.0 L 70.5,24.0 C 70.5,24.0 70.5,24.0 70.5,24.0 L 70.5,24.0 C 70.5,24.0 70.5,24.0 70.5,24.0 L 70.5,24.0 C 70.5,24.0 70.5,24.0 70.5,24.0 C 70.5,24.0 70.5,24.0 70.5,24.0 L 70.5,24.0 C 70.5,24.0 70.5,24.0 70.5,24.0 L 70.5,24.0 C 70.5,24.0 70.5,24.0 70.5,24.0 C 70.5,24.0 70.5,24.0 70.5,24.0 C 70.5,24.0 70.5,24.0 70.5,24.0 L 70.5,24.0 L 70.5,24.0 C 70.5,24.0 70.5,24.0 70.5,24.0 C 70.5,24.0 70.5,24.0 70.5,24.0 C 70.5,24.0 70.5,24.0 70.5,24.0 C 70.5,24.0 70.5,24.0 70.5,24.0 L 70.5,24.0 L 70.5,24.0 L 70.5,24.0 C 70.5,24.0 70.5,24.0 70.5,24.0 L 70.5,24.0 C 70.5,24.0 70.5,24.0 70.5,24.0 L 70.5,24.0 L 70.5,24.0 C 70.5,24.0 70.5,24.0 70.5,24.0 L 70.5,24.0 C 70.5,24.0 70.5,24.0 70.5,24.0 L 70.5,24.0 C 70.5,24.0 70.5,24.0 70.5,24.0 C 70.5,24.0 70.5,24.0 70.5,24.0 L 70.5,24.0 C 70.5,24.0 70.5,24.0 70.5,24.0 C 70.5,24.0 70.5,24.0 70.5,24.0 C 70.4,23.9 70.4,23.9 70.3,23.8 C 69.89999999999999,23.5 69.3,23.6 68.89999999999999,24.0 C 68.89999999999999,24.0 68.89999999999999,24.0 68.89999999999999,24.0 C 68.89999999999999,24.0 68.89999999999999,24.0 68.89999999999999,24.0 C 68.89999999999999,24.0 68.89999999999999,24.0 68.89999999999999,24.0 C 68.89999999999999,24.0 68.89999999999999,24.0 68.89999999999999,24.0 C 68.89999999999999,24.0 68.89999999999999,24.0 68.89999999999999,24.0 C 68.89999999999999,24.0 68.8,24.0 68.69999999999999,24.0 C 68.69999999999999,24.0 68.69999999999999,24.0 68.6,23.9 C 68.1,23.4 67.19999999999999,23.4 66.69999999999999,24.0 C 66.69999999999999,24.0 66.69999999999999,24.0 66.69999999999999,24.0 C 66.69999999999999,24.0 66.69999999999999,24.0 66.69999999999999,24.0 C 66.69999999999999,24.0 66.69999999999999,24.0 66.69999999999999,24.0 C 66.69999999999999,24.0 66.69999999999999,24.0 66.69999999999999,24.0 C 66.69999999999999,24.0 66.69999999999999,24.0 66.6,24.0 L 66.6,24.0 L 66.6,24.0 C 66.6,24.0 66.6,24.0 66.6,24.0 L 66.6,24.0 C 66.6,24.0 66.6,24.0 66.6,24.0 C 66.6,24.0 66.5,24.0 66.5,24.0 C 66.5,24.0 66.5,24.0 66.5,24.0 C 66.2,23.8 65.9,23.6 65.6,23.6 C 65.6,23.6 65.6,23.6 65.6,23.6 C 65.19999999999999,23.6 64.89999999999999,23.8 64.69999999999999,24.0 C 64.69999999999999,24.0 64.69999999999999,24.0 64.69999999999999,24.0 C 64.69999999999999,24.0 64.69999999999999,24.0 64.69999999999999,24.0 C 64.69999999999999,24.0 64.69999999999999,24.0 64.69999999999999,24.0 C 64.69999999999999,24.0 64.69999999999999,24.0 64.69999999999999,24.0 L 64.69999999999999,24.0 L 64.69999999999999,24.0 L 64.69999999999999,24.0 C 64.69999999999999,24.0 64.6,24.0 64.6,24.0 L 64.6,24.0 C 64.6,24.0 64.6,24.0 64.6,24.0 L 64.6,24.0 L 64.6,24.0 C 64.6,24.0 64.6,24.0 64.6,24.0 L 64.6,24.0 L 64.6,24.0 L 64.6,24.0 C 64.6,24.0 64.6,24.0 64.6,24.0 C 64.6,24.0 64.6,24.0 64.6,24.0 L 64.6,24.0 C 64.6,24.0 64.6,24.0 64.6,24.0 C 64.6,24.0 64.6,24.0 64.5,23.9 C 64.2,23.7 63.9,23.5 63.5,23.5 C 63.1,23.5 62.8,23.7 62.6,23.9 C 62.6,23.9 62.5,23.9 62.4,23.9 C 62.4,23.9 62.3,23.799999999999997 62.4,23.7 C 62.699999999999996,23.4 63.1,23.2 63.5,23.2 C 63.5,23.2 63.5,23.2 63.5,23.2 C 63.8,23.2 64.2,23.3 64.4,23.5 L 64.4,21.4 C 64.30000000000001,21.299999999999997 64.2,21.2 64.10000000000001,21.2 C 64.00000000000001,21.2 64.00000000000001,21.099999999999998 64.00000000000001,21.0 C 64.00000000000001,20.9 64.10000000000001,20.9 64.20000000000002,20.9 C 64.30000000000001,20.9 64.40000000000002,21.0 64.40000000000002,21.0 L 64.40000000000002,20.4 C 64.40000000000002,20.299999999999997 64.50000000000001,20.299999999999997 64.50000000000001,20.299999999999997 C 64.50000000000001,20.299999999999997 64.60000000000001,20.4 64.60000000000001,20.4 L 64.60000000000001,21.0 C 65.2,20.6 65.9,20.6 66.50000000000001,21.0 L 66.50000000000001,20.4 L 65.50000000000001,18.9 C 65.50000000000001,18.799999999999997 65.50000000000001,18.799999999999997 65.50000000000001,18.7 C 65.60000000000001,18.7 65.60000000000001,18.7 65.70000000000002,18.7 L 67.30000000000001,21.0 C 67.60000000000001,20.7 68.10000000000001,20.6 68.60000000000001,20.7 L 67.30000000000001,18.8 C 67.30000000000001,18.7 67.30000000000001,18.7 67.30000000000001,18.6 C 67.4,18.6 67.4,18.6 67.50000000000001,18.6 L 69.10000000000001,20.900000000000002 C 69.4,20.6 69.9,20.500000000000004 70.4,20.6 L 69.10000000000001,18.700000000000003 C 69.10000000000001,18.6 69.10000000000001,18.6 69.10000000000001,18.500000000000004 C 69.2,18.500000000000004 69.2,18.500000000000004 69.30000000000001,18.500000000000004 L 70.9,20.800000000000004 C 71.10000000000001,20.600000000000005 71.30000000000001,20.500000000000004 71.60000000000001,20.400000000000006 C 71.80000000000001,20.400000000000006 72.00000000000001,20.400000000000006 72.2,20.500000000000007 L 70.9,18.60000000000001 C 70.9,18.500000000000007 70.9,18.500000000000007 70.9,18.40000000000001 C 71.0,18.40000000000001 71.0,18.40000000000001 71.10000000000001,18.40000000000001 L 72.7,20.70000000000001 C 73.10000000000001,20.30000000000001 73.8,20.20000000000001 74.3,20.60000000000001 C 74.39999999999999,20.70000000000001 74.5,20.800000000000008 74.5,20.800000000000008 C 74.5,20.90000000000001 74.5,20.90000000000001 74.5,21.000000000000007 C 74.4,21.000000000000007 74.4,21.000000000000007 74.3,21.000000000000007 C 74.2,20.900000000000006 74.2,20.900000000000006 74.1,20.800000000000008 C 73.69999999999999,20.500000000000007 73.1,20.60000000000001 72.8,20.90000000000001 L 74.3,23.10000000000001 C 74.5,22.90000000000001 74.7,22.800000000000008 75.0,22.70000000000001 C 75.3,22.70000000000001 75.6,22.70000000000001 75.9,22.90000000000001 C 76.0,23.00000000000001 76.10000000000001,23.10000000000001 76.10000000000001,23.10000000000001 C 76.10000000000001,23.20000000000001 76.10000000000001,23.20000000000001 76.10000000000001,23.300000000000008 C 76.00000000000001,23.300000000000008 76.00000000000001,23.300000000000008 75.9,23.300000000000008 C 75.80000000000001,23.200000000000006 75.80000000000001,23.200000000000006 75.7,23.10000000000001 C 75.5,22.90000000000001 75.2,22.90000000000001 75.0,22.90000000000001 C 74.3,23.6 74.1,23.7 73.8,24.0 C 73.9,23.9 73.9,24.0 73.8,24.0 C 73.9,24.0 73.9,24.0 73.8,24.0 C 73.9,24.0 73.9,24.0 73.8,24.0 C 73.9,24.0 73.9,24.0 73.8,24.0 L 73.8,24.0 L 73.8,24.0 L 73.8,24.0 C 73.9,24.0 73.9,24.0 73.8,24.0 M 67.1,21.4 L 68.6,23.599999999999998 C 68.89999999999999,23.299999999999997 69.39999999999999,23.2 69.89999999999999,23.299999999999997 L 68.6,21.4 C 68.5,21.299999999999997 68.5,21.299999999999997 68.39999999999999,21.2 C 68.0,21.0 67.4,21.1 67.1,21.4 M 70.6,21.4 L 72.1,23.599999999999998 C 72.39999999999999,23.299999999999997 72.89999999999999,23.2 73.39999999999999,23.299999999999997 L 72.1,21.4 C 72.1,21.4 72.1,21.4 72.1,21.4 C 72.0,21.299999999999997 72.0,21.299999999999997 71.89999999999999,21.2 C 71.69999999999999,21.0 71.39999999999999,21.0 71.19999999999999,21.0 C 70.9,21.2 70.7,21.3 70.6,21.4 M 68.8,21.4 L 70.3,23.599999999999998 C 70.5,23.4 70.7,23.299999999999997 71.0,23.2 C 71.2,23.2 71.4,23.2 71.6,23.3 L 70.3,21.400000000000002 L 70.3,21.400000000000002 C 70.2,21.3 70.2,21.3 70.1,21.200000000000003 C 69.7,21.0 69.1,21.1 68.8,21.4 M 66.4,21.5 L 66.4,23.6 C 66.9,23.200000000000003 67.60000000000001,23.200000000000003 68.2,23.5 L 66.8,21.5 C 66.8,21.5 66.8,21.5 66.8,21.5 L 66.7,21.3 C 66.6,21.3 66.5,21.4 66.4,21.5 M 64.3,21.5 L 64.3,23.6 C 64.89999999999999,23.200000000000003 65.6,23.200000000000003 66.2,23.6 L 66.2,21.5 C 65.7,21.0 64.8,21.0 64.3,21.5 C 64.3,21.5 64.3,21.5 64.3,21.5 M 66.4,20.9 L 66.4,21.099999999999998 C 66.4,21.099999999999998 66.5,20.999999999999996 66.5,20.999999999999996 L 66.4,20.9" fill="#111111" stroke="none" stroke-width="2.0" /><path d="M 47.8,9.6 C 47.8,9.299999999999999 47.699999999999996,9.0 47.4,8.799999999999999 L 46.8,7.0 L 46.199999999999996,8.8 C 45.8,9.100000000000001 45.699999999999996,9.8 45.99999999999999,10.200000000000001 C 46.099999999999994,10.4 46.29999999999999,10.500000000000002 46.49999999999999,10.500000000000002 L 46.49999999999999,11.700000000000001 L 47.099999999999994,11.700000000000001 L 47.099999999999994,10.500000000000002 C 47.5,10.4 47.8,10.0 47.8,9.6" fill="#FDDA2A" stroke="none" stroke-width="2.0" /><path d="M 47.1,11.8 L 46.5,11.8 C 46.4,11.8 46.3,11.700000000000001 46.3,11.600000000000001 L 46.3,10.500000000000002 C 46.099999999999994,10.400000000000002 46.0,10.300000000000002 45.8,10.100000000000001 C 45.599999999999994,9.900000000000002 45.5,9.600000000000001 45.599999999999994,9.200000000000001 C 45.599999999999994,8.9 45.8,8.700000000000001 45.99999999999999,8.500000000000002 L 46.599999999999994,6.700000000000002 C 46.599999999999994,6.600000000000002 46.89999999999999,6.600000000000002 46.89999999999999,6.700000000000002 L 47.49999999999999,8.500000000000002 C 47.8,8.9 48.0,9.2 48.0,9.6 C 48.0,10.1 47.7,10.5 47.3,10.7 L 47.3,11.799999999999999 C 47.3,11.8 47.2,11.8 47.1,11.8 M 46.7,11.5 L 47.0,11.5 L 47.0,10.5 C 47.0,10.4 47.0,10.4 47.1,10.3 C 47.4,10.200000000000001 47.7,9.9 47.7,9.5 C 47.7,9.2 47.6,9.0 47.400000000000006,8.8 C 47.400000000000006,8.8 47.400000000000006,8.8 47.300000000000004,8.700000000000001 L 46.900000000000006,7.300000000000001 L 46.50000000000001,8.700000000000001 C 46.50000000000001,8.700000000000001 46.50000000000001,8.8 46.400000000000006,8.8 C 46.1,9.0 46.0,9.2 46.0,9.4 C 46.0,9.6 46.0,9.8 46.2,10.0 C 46.300000000000004,10.1 46.400000000000006,10.2 46.6,10.3 C 46.7,10.3 46.7,10.4 46.7,10.5 L 46.7,11.5" fill="#111111" stroke="none" stroke-width="2.0" /><path d="M 54.2,9.6 C 54.2,9.299999999999999 54.1,9.0 53.800000000000004,8.799999999999999 L 53.2,7.0 L 52.6,8.8 C 52.2,9.100000000000001 52.1,9.8 52.4,10.200000000000001 C 52.5,10.4 52.699999999999996,10.500000000000002 52.9,10.500000000000002 L 52.9,11.700000000000001 L 53.5,11.700000000000001 L 53.5,10.500000000000002 C 53.9,10.4 54.2,10.0 54.2,9.6" fill="#FDDA2A" stroke="none" stroke-width="2.0" /><path d="M 53.5,11.8 L 52.9,11.8 C 52.8,11.8 52.699999999999996,11.700000000000001 52.699999999999996,11.600000000000001 L 52.699999999999996,10.500000000000002 C 52.49999999999999,10.400000000000002 52.4,10.300000000000002 52.199999999999996,10.100000000000001 C 51.8,9.600000000000001 51.9,8.900000000000002 52.4,8.500000000000002 L 53.0,6.9 C 53.0,6.800000000000001 53.3,6.800000000000001 53.3,6.9 L 53.9,8.700000000000001 C 54.199999999999996,8.9 54.3,9.200000000000001 54.3,9.600000000000001 C 54.3,10.100000000000001 54.0,10.500000000000002 53.599999999999994,10.700000000000001 L 53.599999999999994,11.8 C 53.7,11.8 53.6,11.8 53.5,11.8 M 53.1,11.5 L 53.4,11.5 L 53.4,10.5 C 53.4,10.4 53.4,10.4 53.5,10.3 C 53.8,10.200000000000001 54.1,9.9 54.1,9.5 C 54.1,9.2 54.0,9.0 53.800000000000004,8.8 C 53.800000000000004,8.8 53.800000000000004,8.8 53.7,8.700000000000001 L 53.2,7.300000000000001 L 52.7,8.700000000000001 C 52.7,8.700000000000001 52.7,8.8 52.6,8.8 C 52.2,9.100000000000001 52.2,9.600000000000001 52.4,10.0 C 52.5,10.1 52.6,10.2 52.8,10.3 C 52.9,10.3 52.9,10.4 52.9,10.5 L 52.9,11.5 L 53.1,11.5" fill="#111111" stroke="none" stroke-width="2.0" /><path d="M 53.8,11.4 L 46.3,11.4 L 46.199999999999996,11.6 L 42.8,16.5 L 42.3,17.3 L 43.5,17.3 L 44.4,18.2 L 44.0,18.599999999999998 L 43.7,18.9 L 44.0,19.2 L 44.6,19.8 L 44.6,31.4 L 44.0,32.0 L 43.7,32.3 L 44.0,32.599999999999994 L 44.4,32.99999999999999 L 43.0,34.5 L 42.9,34.6 L 42.9,53.1 L 57.3,53.1 L 57.3,34.6 L 57.0,34.5 L 55.7,33.2 L 56.1,32.800000000000004 L 56.4,32.50000000000001 L 56.1,32.20000000000001 L 55.5,31.60000000000001 L 55.5,19.8 L 56.1,19.2 L 56.4,18.9 L 56.1,18.599999999999998 L 55.7,18.2 L 56.6,17.3 L 57.800000000000004,17.3 L 57.300000000000004,16.5 L 53.900000000000006,11.6 L 53.8,11.4 L 53.8,11.4" fill="#111111" stroke="none" stroke-width="2.0" /><path d="M 57.1,47.3 L 42.9,47.3 L 44.6,45.599999999999994 L 44.6,33.0 L 55.3,33.0 L 55.3,45.6 L 57.1,47.3 M 43.7,47.0 L 56.300000000000004,47.0 L 55.1,45.8 L 44.9,45.8 L 43.7,47.0 M 45.0,45.5 L 55.0,45.5 L 55.0,33.3 L 45.0,33.3 L 45.0,45.5" fill="#111111" stroke="none" stroke-width="2.0" /><path d="M 52.7,44.0 L 47.300000000000004,44.0 L 47.300000000000004,38.9 C 47.300000000000004,36.8 48.50000000000001,35.1 50.00000000000001,35.1 C 51.50000000000001,35.1 52.70000000000001,36.800000000000004 52.70000000000001,38.9 L 52.70000000000001,44.0 L 52.7,44.0 M 47.5,43.7 L 52.4,43.7 L 52.4,38.900000000000006 C 52.4,36.900000000000006 51.3,35.300000000000004 49.9,35.300000000000004 C 48.5,35.300000000000004 47.4,36.900000000000006 47.4,38.900000000000006 L 47.4,43.7 L 47.5,43.7" fill="#111111" stroke="none" stroke-width="2.0" /><path d="M 52.1,43.3 L 47.9,43.3 L 47.9,38.8 C 47.9,37.0 48.9,35.599999999999994 50.0,35.599999999999994 C 51.1,35.599999999999994 52.1,37.099999999999994 52.1,38.8 L 52.1,43.3 M 48.1,43.1 L 51.800000000000004,43.1 L 51.800000000000004,38.9 C 51.800000000000004,37.3 50.900000000000006,35.9 49.900000000000006,35.9 C 48.900000000000006,35.9 48.00000000000001,37.3 48.00000000000001,38.9 L 48.00000000000001,43.1 L 48.1,43.1" fill="#111111" stroke="none" stroke-width="2.0" /><path d="M 49.8,38.7 L 49.8,42.800000000000004 L 48.4,42.800000000000004 L 48.4,38.7 C 48.4,38.0 48.699999999999996,37.5 49.1,37.5 C 49.50000000000001,37.5 49.8,38.0 49.8,38.7 M 50.8,37.4 C 50.4,37.4 50.099999999999994,37.9 50.099999999999994,38.6 L 50.099999999999994,42.7 L 51.49999999999999,42.7 L 51.49999999999999,38.6 C 51.5,38.0 51.2,37.4 50.8,37.4 L 50.8,37.4 M 49.2,37.1 C 49.6,37.1 49.900000000000006,37.4 50.0,37.800000000000004 C 50.2,37.400000000000006 50.5,37.1 50.8,37.1 C 50.9,37.1 51.0,37.1 51.0,37.1 C 50.7,36.6 50.3,36.2 49.9,36.2 C 49.5,36.2 49.1,36.6 48.8,37.1 C 49.0,37.1 49.1,37.1 49.2,37.1 L 49.2,37.1" fill="#111111" stroke="none" stroke-width="2.0" /><path d="M 51.3,29.7 L 48.8,29.7 L 48.8,25.7 C 48.8,24.0 49.4,22.599999999999998 50.099999999999994,22.599999999999998 C 50.8,22.599999999999998 51.39999999999999,23.9 51.39999999999999,25.7 L 51.39999999999999,29.7 L 51.3,29.7 M 49.0,29.5 L 51.0,29.5 L 51.0,25.7 C 51.0,24.0 50.5,22.9 50.0,22.9 C 49.5,22.9 49.0,24.0 49.0,25.7 L 49.0,29.5" fill="#111111" stroke="none" stroke-width="2.0" /><path d="M 49.2,29.1 L 49.2,25.700000000000003 C 49.2,24.1 49.7,23.300000000000004 50.0,23.300000000000004 C 50.3,23.300000000000004 50.8,24.200000000000003 50.8,25.700000000000003 L 50.8,29.1 L 49.2,29.1" fill="#111111" stroke="none" stroke-width="2.0" /><path d="M 55.0,20.9 L 54.5,20.9 L 54.5,20.799999999999997 C 54.5,20.699999999999996 54.5,20.499999999999996 54.4,20.499999999999996 C 54.3,20.399999999999995 54.199999999999996,20.399999999999995 54.1,20.399999999999995 L 54.1,20.399999999999995 C 54.0,20.399999999999995 53.800000000000004,20.499999999999996 53.800000000000004,20.499999999999996 C 53.7,20.599999999999998 53.7,20.699999999999996 53.7,20.799999999999997 L 53.7,20.9 L 53.1,20.9 L 53.1,20.799999999999997 C 53.1,20.499999999999996 52.9,20.299999999999997 52.6,20.299999999999997 L 52.6,20.299999999999997 C 52.300000000000004,20.299999999999997 52.1,20.499999999999996 52.1,20.799999999999997 L 52.1,20.9 L 51.5,20.9 L 51.5,20.799999999999997 C 51.5,20.699999999999996 51.5,20.499999999999996 51.4,20.499999999999996 C 51.3,20.399999999999995 51.199999999999996,20.399999999999995 51.1,20.399999999999995 L 51.1,20.399999999999995 C 51.0,20.399999999999995 50.800000000000004,20.499999999999996 50.800000000000004,20.499999999999996 C 50.7,20.599999999999998 50.7,20.699999999999996 50.7,20.799999999999997 L 50.7,20.9 L 50.1,20.9 L 50.1,20.799999999999997 C 50.1,20.499999999999996 49.9,20.299999999999997 49.6,20.299999999999997 C 49.6,20.299999999999997 49.6,20.299999999999997 49.6,20.299999999999997 C 49.300000000000004,20.299999999999997 49.1,20.499999999999996 49.1,20.799999999999997 L 49.1,20.9 L 48.5,20.9 L 48.5,20.799999999999997 C 48.5,20.499999999999996 48.3,20.299999999999997 48.0,20.299999999999997 C 48.0,20.299999999999997 48.0,20.299999999999997 48.0,20.299999999999997 C 47.7,20.299999999999997 47.5,20.499999999999996 47.5,20.799999999999997 L 47.5,20.9 L 46.9,20.9 L 46.9,20.799999999999997 C 46.9,20.699999999999996 46.8,20.499999999999996 46.8,20.499999999999996 C 46.699999999999996,20.399999999999995 46.599999999999994,20.399999999999995 46.5,20.399999999999995 C 46.5,20.399999999999995 46.5,20.399999999999995 46.5,20.399999999999995 C 46.2,20.399999999999995 46.0,20.599999999999994 46.0,20.899999999999995 L 46.0,20.999999999999996 L 45.0,20.999999999999996 L 45.0,20.799999999999997 L 45.3,20.799999999999997 C 45.4,20.499999999999996 45.699999999999996,20.199999999999996 46.0,20.199999999999996 C 46.0,20.199999999999996 46.0,20.199999999999996 46.0,20.199999999999996 C 46.2,20.199999999999996 46.4,20.299999999999997 46.5,20.399999999999995 C 46.6,20.499999999999996 46.7,20.599999999999994 46.7,20.799999999999994 L 46.900000000000006,20.799999999999994 C 47.00000000000001,20.499999999999993 47.300000000000004,20.199999999999992 47.60000000000001,20.199999999999992 C 47.60000000000001,20.199999999999992 47.60000000000001,20.199999999999992 47.60000000000001,20.199999999999992 C 48.00000000000001,20.199999999999992 48.30000000000001,20.499999999999993 48.30000000000001,20.799999999999994 L 48.500000000000014,20.799999999999994 C 48.600000000000016,20.499999999999993 48.90000000000001,20.199999999999992 49.20000000000002,20.199999999999992 C 49.20000000000002,20.199999999999992 49.20000000000002,20.199999999999992 49.20000000000002,20.199999999999992 C 49.600000000000016,20.199999999999992 49.90000000000002,20.499999999999993 49.90000000000002,20.799999999999994 L 50.10000000000002,20.799999999999994 C 50.10000000000002,20.699999999999992 50.200000000000024,20.499999999999993 50.300000000000026,20.399999999999995 C 50.40000000000003,20.299999999999994 50.60000000000002,20.199999999999996 50.800000000000026,20.199999999999996 L 50.800000000000026,20.199999999999996 C 51.00000000000003,20.199999999999996 51.200000000000024,20.299999999999997 51.300000000000026,20.399999999999995 C 51.40000000000003,20.499999999999996 51.50000000000003,20.599999999999994 51.50000000000003,20.799999999999994 L 51.70000000000003,20.799999999999994 C 51.80000000000003,20.499999999999993 52.10000000000003,20.199999999999992 52.400000000000034,20.199999999999992 L 52.400000000000034,20.199999999999992 C 52.80000000000003,20.199999999999992 53.10000000000004,20.499999999999993 53.10000000000004,20.799999999999994 L 53.30000000000004,20.799999999999994 C 53.30000000000004,20.699999999999992 53.40000000000004,20.499999999999993 53.50000000000004,20.399999999999995 C 53.600000000000044,20.299999999999994 53.80000000000004,20.199999999999996 54.00000000000004,20.199999999999996 L 54.00000000000004,20.199999999999996 C 54.200000000000045,20.199999999999996 54.40000000000004,20.299999999999997 54.50000000000004,20.399999999999995 C 54.600000000000044,20.499999999999996 54.700000000000045,20.599999999999994 54.700000000000045,20.799999999999994 L 55.0,20.799999999999994 L 55.0,20.9" fill="#111111" stroke="none" stroke-width="2.0" /><path d="M 43.1,16.9 C 43.0,16.9 42.9,16.799999999999997 42.9,16.7 C 42.9,16.7 42.9,16.599999999999998 42.9,16.599999999999998 L 46.3,11.699999999999998 C 46.3,11.699999999999998 46.4,11.599999999999998 46.4,11.599999999999998 L 53.4,11.599999999999998 C 53.5,11.599999999999998 53.5,11.599999999999998 53.5,11.699999999999998 L 56.9,16.599999999999998 C 57.0,16.7 56.9,16.799999999999997 56.9,16.799999999999997 C 56.9,16.799999999999997 56.8,16.799999999999997 56.8,16.799999999999997 L 43.1,16.799999999999997 L 43.1,16.9" fill="#A22921" stroke="none" stroke-width="2.0" /><path d="M 53.5,11.8 L 56.9,16.700000000000003 L 43.1,16.700000000000003 L 46.5,11.800000000000002 L 53.5,11.800000000000002 M 53.5,11.5 L 46.5,11.5 C 46.4,11.5 46.3,11.6 46.2,11.6 L 42.800000000000004,16.5 C 42.7,16.6 42.7,16.8 42.900000000000006,16.9 C 43.00000000000001,16.9 43.00000000000001,17.0 43.10000000000001,17.0 L 56.80000000000001,17.0 C 57.000000000000014,17.0 57.10000000000001,16.9 57.10000000000001,16.7 C 57.10000000000001,16.599999999999998 57.10000000000001,16.599999999999998 57.00000000000001,16.5 L 53.60000000000001,11.6 C 53.7,11.6 53.6,11.5 53.5,11.5 L 53.5,11.5" fill="#111111" stroke="none" stroke-width="2.0" /><path d="M 48.2,29.7 L 45.7,29.7 L 45.7,25.7 C 45.7,24.0 46.300000000000004,22.599999999999998 47.0,22.599999999999998 C 47.7,22.599999999999998 48.3,23.9 48.3,25.7 L 48.3,29.7 L 48.2,29.7 M 45.9,29.5 L 47.9,29.5 L 47.9,25.7 C 47.9,24.0 47.4,22.9 46.9,22.9 C 46.4,22.9 45.9,24.0 45.9,25.7 L 45.9,29.5" fill="#111111" stroke="none" stroke-width="2.0" /><path d="M 46.2,29.1 L 46.2,25.700000000000003 C 46.2,24.1 46.7,23.300000000000004 47.0,23.300000000000004 C 47.3,23.300000000000004 47.8,24.200000000000003 47.8,25.700000000000003 L 47.8,29.1 L 46.2,29.1" fill="#111111" stroke="none" stroke-width="2.0" /><path d="M 54.3,29.7 L 51.8,29.7 L 51.8,25.7 C 51.8,24.0 52.4,22.599999999999998 53.099999999999994,22.599999999999998 C 53.79999999999999,22.599999999999998 54.39999999999999,23.9 54.39999999999999,25.7 L 54.39999999999999,29.7 L 54.3,29.7 M 52.0,29.5 L 54.0,29.5 L 54.0,25.7 C 54.0,24.0 53.5,22.9 53.0,22.9 C 52.5,22.9 52.0,24.0 52.0,25.7 L 52.0,29.5" fill="#111111" stroke="none" stroke-width="2.0" /><path d="M 52.3,29.1 L 52.3,25.700000000000003 C 52.3,24.1 52.8,23.300000000000004 53.099999999999994,23.300000000000004 C 53.39999999999999,23.300000000000004 53.89999999999999,24.200000000000003 53.89999999999999,25.700000000000003 L 53.89999999999999,29.1 L 52.3,29.1" fill="#111111" stroke="none" stroke-width="2.0" /><path d="M 48.9,16.8 C 48.9,16.8 48.9,16.8 48.9,16.8 C 48.9,16.8 48.9,16.8 48.9,16.8 L 48.9,16.8 L 48.9,16.8 C 48.9,16.8 48.9,16.8 48.9,16.8 L 48.9,16.8 C 48.9,16.8 48.9,16.8 48.9,16.8 L 48.9,16.8 C 48.9,16.8 48.9,16.8 48.9,16.8 L 48.9,16.8 C 48.9,16.8 48.9,16.8 48.9,16.8 C 48.9,16.8 48.9,16.8 48.9,16.8 C 48.8,16.8 48.8,16.8 48.9,16.8 C 48.6,16.5 48.199999999999996,16.400000000000002 47.9,16.3 C 47.5,16.3 47.199999999999996,16.400000000000002 46.9,16.7 C 46.9,16.7 46.9,16.7 46.8,16.8 C 46.8,16.8 46.8,16.8 46.8,16.8 C 46.8,16.8 46.8,16.8 46.8,16.8 L 46.8,16.8 C 46.8,16.8 46.8,16.8 46.8,16.8 C 46.8,16.8 46.8,16.8 46.8,16.8 L 46.8,16.8 C 46.8,16.8 46.8,16.8 46.8,16.8 C 46.8,16.8 46.8,16.8 46.8,16.8 C 46.8,16.8 46.8,16.8 46.8,16.8 L 46.8,16.8 C 46.8,16.8 46.8,16.8 46.8,16.8 L 46.8,16.8 C 46.8,16.8 46.699999999999996,16.8 46.699999999999996,16.8 C 46.699999999999996,16.8 46.699999999999996,16.8 46.699999999999996,16.8 C 46.699999999999996,16.8 46.699999999999996,16.8 46.699999999999996,16.8 L 46.699999999999996,16.8 C 46.699999999999996,16.8 46.699999999999996,16.8 46.699999999999996,16.8 L 46.699999999999996,16.8 C 46.699999999999996,16.8 46.699999999999996,16.8 46.699999999999996,16.8 L 46.699999999999996,16.8 C 46.699999999999996,16.8 46.699999999999996,16.8 46.699999999999996,16.8 C 46.699999999999996,16.8 46.699999999999996,16.8 46.699999999999996,16.8 L 46.699999999999996,16.8 C 46.699999999999996,16.8 46.699999999999996,16.8 46.699999999999996,16.8 L 46.699999999999996,16.8 L 46.699999999999996,16.8 C 46.699999999999996,16.8 46.699999999999996,16.8 46.699999999999996,16.8 C 46.699999999999996,16.8 46.699999999999996,16.8 46.599999999999994,16.7 C 46.099999999999994,16.2 45.199999999999996,16.2 44.699999999999996,16.8 C 44.699999999999996,16.8 44.599999999999994,16.8 44.49999999999999,16.8 C 44.49999999999999,16.8 44.49999999999999,16.8 44.49999999999999,16.8 C 44.49999999999999,16.8 44.49999999999999,16.8 44.49999999999999,16.8 C 44.29999999999999,16.5 43.89999999999999,16.400000000000002 43.49999999999999,16.400000000000002 C 43.39999999999999,16.400000000000002 43.39999999999999,16.400000000000002 43.39999999999999,16.400000000000002 C 43.29999999999999,16.400000000000002 43.29999999999999,16.400000000000002 43.29999999999999,16.3 C 43.29999999999999,16.2 43.29999999999999,16.2 43.39999999999999,16.2 C 43.49999999999999,16.2 43.49999999999999,16.2 43.599999999999994,16.2 C 43.89999999999999,16.2 44.3,16.3 44.49999999999999,16.5 L 44.49999999999999,14.5 C 44.49999999999999,14.4 44.599999999999994,14.4 44.599999999999994,14.4 C 44.599999999999994,14.4 44.699999999999996,14.5 44.699999999999996,14.5 L 44.699999999999996,16.5 C 45.3,16.1 45.99999999999999,16.1 46.599999999999994,16.5 L 46.599999999999994,14.4 C 46.39999999999999,14.200000000000001 45.99999999999999,14.0 45.699999999999996,14.0 C 45.699999999999996,14.0 45.699999999999996,14.0 45.699999999999996,14.0 C 45.49999999999999,14.0 45.199999999999996,14.1 44.99999999999999,14.2 C 44.89999999999999,14.2 44.89999999999999,14.2 44.79999999999999,14.2 C 44.79999999999999,14.1 44.79999999999999,14.1 44.79999999999999,14.0 C 44.99999999999999,13.9 45.29999999999999,13.8 45.59999999999999,13.8 C 45.59999999999999,13.8 45.59999999999999,13.8 45.59999999999999,13.8 C 45.899999999999984,13.8 46.29999999999999,13.9 46.499999999999986,14.100000000000001 L 46.499999999999986,11.900000000000002 C 46.499999999999986,11.800000000000002 46.59999999999999,11.800000000000002 46.59999999999999,11.800000000000002 C 46.59999999999999,11.800000000000002 46.69999999999999,11.900000000000002 46.69999999999999,11.900000000000002 L 46.69999999999999,14.0 C 46.999999999999986,13.8 47.29999999999999,13.7 47.69999999999999,13.7 C 47.999999999999986,13.7 48.29999999999999,13.799999999999999 48.59999999999999,14.0 L 48.59999999999999,11.8 C 48.59999999999999,11.700000000000001 48.69999999999999,11.700000000000001 48.69999999999999,11.700000000000001 C 48.69999999999999,11.700000000000001 48.79999999999999,11.8 48.79999999999999,11.8 L 48.79999999999999,14.0 C 49.09999999999999,13.8 49.39999999999999,13.7 49.79999999999999,13.7 C 50.09999999999999,13.7 50.39999999999999,13.799999999999999 50.69999999999999,14.0 L 50.69999999999999,11.8 C 50.69999999999999,11.700000000000001 50.79999999999999,11.700000000000001 50.79999999999999,11.700000000000001 C 50.79999999999999,11.700000000000001 50.89999999999999,11.8 50.89999999999999,11.8 L 50.89999999999999,14.0 C 51.49999999999999,13.6 52.19999999999999,13.6 52.79999999999999,14.0 L 52.79999999999999,11.8 C 52.79999999999999,11.700000000000001 52.89999999999999,11.700000000000001 52.89999999999999,11.700000000000001 C 52.89999999999999,11.700000000000001 52.99999999999999,11.8 52.99999999999999,11.8 L 52.99999999999999,14.0 C 53.29999999999999,13.8 53.599999999999994,13.7 53.89999999999999,13.7 C 53.89999999999999,13.7 53.89999999999999,13.7 53.89999999999999,13.7 C 54.19999999999999,13.7 54.39999999999999,13.799999999999999 54.69999999999999,13.899999999999999 C 54.79999999999999,13.899999999999999 54.79999999999999,13.999999999999998 54.69999999999999,14.099999999999998 C 54.69999999999999,14.199999999999998 54.59999999999999,14.199999999999998 54.499999999999986,14.099999999999998 C 54.29999999999998,13.999999999999998 54.09999999999999,13.899999999999999 53.79999999999998,13.899999999999999 C 53.79999999999998,13.899999999999999 53.79999999999998,13.899999999999999 53.79999999999998,13.899999999999999 C 53.499999999999986,13.899999999999999 53.09999999999998,13.999999999999998 52.899999999999984,14.299999999999999 L 52.899999999999984,16.4 C 53.499999999999986,15.999999999999998 54.19999999999998,15.999999999999998 54.79999999999998,16.4 L 54.79999999999998,14.399999999999999 C 54.79999999999998,14.299999999999999 54.899999999999984,14.299999999999999 54.899999999999984,14.299999999999999 C 54.899999999999984,14.299999999999999 54.999999999999986,14.399999999999999 54.999999999999986,14.399999999999999 L 54.999999999999986,16.4 C 55.29999999999998,16.2 55.59999999999999,16.099999999999998 55.899999999999984,16.099999999999998 C 55.899999999999984,16.099999999999998 55.899999999999984,16.099999999999998 55.899999999999984,16.099999999999998 L 55.899999999999984,16.099999999999998 C 55.999999999999986,16.099999999999998 55.999999999999986,16.099999999999998 56.09999999999999,16.099999999999998 C 56.19999999999999,16.099999999999998 56.19999999999999,16.2 56.19999999999999,16.2 C 56.19999999999999,16.2 56.09999999999999,16.3 56.09999999999999,16.3 C 55.999999999999986,16.3 55.999999999999986,16.3 55.899999999999984,16.3 C 55.499999999999986,16.3 55.19999999999998,16.400000000000002 54.999999999999986,16.7 C 54.999999999999986,16.7 54.999999999999986,16.7 54.999999999999986,16.7 C 54.999999999999986,16.7 54.999999999999986,16.7 54.999999999999986,16.7 C 54.999999999999986,16.7 54.999999999999986,16.7 54.999999999999986,16.7 C 54.999999999999986,16.7 54.899999999999984,16.7 54.79999999999998,16.7 C 54.59999999999998,16.4 54.19999999999998,16.3 53.899999999999984,16.3 C 53.499999999999986,16.3 53.19999999999998,16.400000000000002 52.899999999999984,16.7 C 52.899999999999984,16.7 52.899999999999984,16.7 52.79999999999998,16.8 C 52.79999999999998,16.8 52.79999999999998,16.8 52.79999999999998,16.8 C 52.79999999999998,16.8 52.69999999999998,16.8 52.69999999999998,16.8 L 52.69999999999998,16.8 L 52.69999999999998,16.8 L 52.69999999999998,16.8 L 52.69999999999998,16.8 C 52.69999999999998,16.8 52.69999999999998,16.8 52.69999999999998,16.8 L 52.69999999999998,16.8 L 52.69999999999998,16.8 L 52.69999999999998,16.8 L 52.69999999999998,16.8 C 52.69999999999998,16.8 52.69999999999998,16.8 52.69999999999998,16.8 L 52.69999999999998,16.8 C 52.69999999999998,16.8 52.69999999999998,16.8 52.69999999999998,16.8 C 52.19999999999998,16.3 51.29999999999998,16.2 50.79999999999998,16.7 C 50.79999999999998,16.7 50.79999999999998,16.7 50.69999999999998,16.8 C 50.69999999999998,16.8 50.69999999999998,16.8 50.69999999999998,16.8 L 50.69999999999998,16.8 L 50.69999999999998,16.8 C 50.69999999999998,16.8 50.69999999999998,16.8 50.69999999999998,16.8 L 50.69999999999998,16.8 L 50.69999999999998,16.8 C 50.69999999999998,16.8 50.69999999999998,16.8 50.69999999999998,16.8 L 50.69999999999998,16.8 L 50.69999999999998,16.8 C 50.69999999999998,16.8 50.69999999999998,16.8 50.69999999999998,16.8 L 50.69999999999998,16.8 C 50.69999999999998,16.8 50.59999999999998,16.8 50.59999999999998,16.8 L 50.59999999999998,16.8 L 50.59999999999998,16.8 L 50.59999999999998,16.8 L 50.59999999999998,16.8 C 50.59999999999998,16.8 50.59999999999998,16.8 50.59999999999998,16.8 C 50.59999999999998,16.8 50.59999999999998,16.8 50.59999999999998,16.8 L 50.59999999999998,16.8 C 50.59999999999998,16.8 50.59999999999998,16.8 50.59999999999998,16.8 C 50.59999999999998,16.8 50.59999999999998,16.8 50.59999999999998,16.8 C 50.39999999999998,16.5 49.99999999999998,16.400000000000002 49.69999999999998,16.400000000000002 C 49.69999999999998,16.400000000000002 49.69999999999998,16.400000000000002 49.69999999999998,16.400000000000002 C 49.399999999999984,16.400000000000002 48.99999999999998,16.500000000000004 48.79999999999998,16.8 C 49.1,16.8 49.0,16.8 48.9,16.8 C 49.0,16.8 49.0,16.8 48.9,16.8 L 48.9,16.8 L 48.9,16.8 C 49.0,16.8 49.0,16.8 48.9,16.8 L 48.9,16.8 C 49.0,16.8 49.0,16.8 48.9,16.8 C 49.0,16.8 49.0,16.8 48.9,16.8 L 48.9,16.8 C 49.0,16.8 49.0,16.8 48.9,16.8 L 48.9,16.8 C 49.0,16.8 49.0,16.8 48.9,16.8 C 49.0,16.8 49.0,16.8 48.9,16.8 L 48.9,16.8 L 48.9,16.8 C 48.9,16.8 48.9,16.8 48.9,16.8 L 48.9,16.8 C 48.9,16.8 48.9,16.8 48.9,16.8 L 48.9,16.8 L 48.9,16.8 L 48.9,16.8 C 48.9,16.8 48.9,16.8 48.9,16.8 L 48.9,16.8 L 48.9,16.8 L 48.9,16.8 C 48.9,16.8 48.9,16.8 48.9,16.8 M 51.2,14.3 L 51.2,16.400000000000002 C 51.800000000000004,16.000000000000004 52.5,16.000000000000004 53.1,16.400000000000002 L 53.1,14.300000000000002 C 52.6,13.8 51.7,13.8 51.2,14.3 C 51.2,14.3 51.2,14.3 51.2,14.3 M 46.9,14.3 L 46.9,16.400000000000002 C 47.199999999999996,16.200000000000003 47.5,16.1 47.9,16.1 C 48.199999999999996,16.1 48.5,16.200000000000003 48.8,16.400000000000002 L 48.8,14.300000000000002 C 48.599999999999994,14.100000000000003 48.199999999999996,13.900000000000002 47.9,13.900000000000002 C 47.5,13.9 47.2,14.1 46.9,14.3 C 46.9,14.3 46.9,14.3 46.9,14.3 M 49.1,14.3 L 49.1,16.400000000000002 C 49.4,16.200000000000003 49.7,16.1 50.1,16.1 C 50.4,16.1 50.7,16.200000000000003 51.0,16.400000000000002 L 51.0,14.300000000000002 C 50.8,14.100000000000003 50.4,13.900000000000002 50.1,13.900000000000002 C 49.7,13.9 49.3,14.1 49.1,14.3 C 49.1,14.3 49.1,14.3 49.1,14.3" fill="#111111" stroke="none" stroke-width="2.0" /><path d="M 55.9,61.7 L 55.9,61.1 L 54.199999999999996,61.1 L 54.199999999999996,59.300000000000004 L 53.599999999999994,59.300000000000004 L 53.599999999999994,61.1 L 52.199999999999996,61.1 L 52.199999999999996,59.300000000000004 L 51.599999999999994,59.300000000000004 L 51.599999999999994,61.1 L 50.199999999999996,61.1 L 50.199999999999996,59.300000000000004 L 49.599999999999994,59.300000000000004 L 49.599999999999994,61.1 L 48.199999999999996,61.1 L 48.199999999999996,59.300000000000004 L 47.599999999999994,59.300000000000004 L 47.599999999999994,61.1 L 46.199999999999996,61.1 L 46.199999999999996,59.300000000000004 L 45.599999999999994,59.300000000000004 L 45.599999999999994,61.1 L 43.89999999999999,61.1 L 43.89999999999999,61.7 L 45.599999999999994,61.7 L 45.599999999999994,63.2 L 43.89999999999999,63.2 L 43.89999999999999,63.800000000000004 L 45.599999999999994,63.800000000000004 L 45.599999999999994,65.30000000000001 L 43.89999999999999,65.30000000000001 L 43.89999999999999,65.9 L 45.599999999999994,65.9 L 45.599999999999994,67.4 L 45.3,67.4 L 46.0,69.0 L 46.6,67.5 L 46.300000000000004,67.5 L 46.300000000000004,66.0 L 47.7,66.0 L 47.7,67.5 L 47.400000000000006,67.5 L 48.0,69.0 L 48.6,67.5 L 48.300000000000004,67.5 L 48.300000000000004,66.0 L 49.7,66.0 L 49.7,67.5 L 49.400000000000006,67.5 L 50.0,69.0 L 50.6,67.5 L 50.300000000000004,67.5 L 50.300000000000004,66.0 L 51.7,66.0 L 51.7,67.5 L 51.400000000000006,67.5 L 52.0,69.0 L 52.6,67.5 L 52.300000000000004,67.5 L 52.300000000000004,66.0 L 53.7,66.0 L 53.7,67.5 L 53.400000000000006,67.5 L 54.0,69.0 L 54.6,67.5 L 54.300000000000004,67.5 L 54.300000000000004,66.0 L 56.00000000000001,66.0 L 56.00000000000001,65.4 L 54.300000000000004,65.4 L 54.300000000000004,63.900000000000006 L 56.00000000000001,63.900000000000006 L 56.00000000000001,63.300000000000004 L 54.300000000000004,63.300000000000004 L 54.300000000000004,61.800000000000004 L 55.9,61.7 M 46.3,61.7 L 47.699999999999996,61.7 L 47.699999999999996,63.2 L 46.3,63.2 L 46.3,61.7 M 46.3,65.3 L 46.3,63.8 L 47.699999999999996,63.8 L 47.699999999999996,65.3 L 46.3,65.3 M 48.3,61.7 L 49.699999999999996,61.7 L 49.699999999999996,63.2 L 48.3,63.2 L 48.3,61.7 M 48.3,65.3 L 48.3,63.8 L 49.699999999999996,63.8 L 49.699999999999996,65.3 L 48.3,65.3 M 50.3,61.7 L 51.699999999999996,61.7 L 51.699999999999996,63.2 L 50.3,63.2 L 50.3,61.7 M 50.3,65.3 L 50.3,63.8 L 51.699999999999996,63.8 L 51.699999999999996,65.3 L 50.3,65.3 M 52.3,61.7 L 53.699999999999996,61.7 L 53.699999999999996,63.2 L 52.3,63.2 L 52.3,61.7 M 52.3,65.3 L 52.3,63.8 L 53.699999999999996,63.8 L 53.699999999999996,65.3 L 52.3,65.3" fill="#FDDA2A" stroke="none" stroke-width="2.0" /><path d="M 52.0,69.3 L 51.2,67.3 L 51.6,67.3 L 51.6,66.0 L 50.5,66.0 L 50.5,67.3 L 50.9,67.3 L 50.1,69.3 L 49.300000000000004,67.3 L 49.7,67.3 L 49.7,66.0 L 48.6,66.0 L 48.6,67.3 L 49.0,67.3 L 48.2,69.3 L 47.400000000000006,67.3 L 47.800000000000004,67.3 L 47.800000000000004,66.0 L 46.7,66.0 L 46.7,67.3 L 47.1,67.3 L 46.300000000000004,69.3 L 45.50000000000001,67.3 L 45.900000000000006,67.3 L 45.900000000000006,66.0 L 44.2,66.0 L 44.2,65.1 L 45.900000000000006,65.1 L 45.900000000000006,63.8 L 44.2,63.8 L 44.2,63.0 L 45.900000000000006,63.0 L 45.900000000000006,61.7 L 44.2,61.7 L 44.2,60.800000000000004 L 45.900000000000006,60.800000000000004 L 45.900000000000006,59.00000000000001 L 46.800000000000004,59.00000000000001 L 46.800000000000004,60.800000000000004 L 47.900000000000006,60.800000000000004 L 47.900000000000006,59.00000000000001 L 48.800000000000004,59.00000000000001 L 48.800000000000004,60.800000000000004 L 49.900000000000006,60.800000000000004 L 49.900000000000006,59.00000000000001 L 50.7,59.00000000000001 L 50.7,60.800000000000004 L 51.800000000000004,60.800000000000004 L 51.800000000000004,59.00000000000001 L 52.7,59.00000000000001 L 52.7,60.800000000000004 L 53.800000000000004,60.800000000000004 L 53.800000000000004,59.00000000000001 L 54.6,59.00000000000001 L 54.6,60.800000000000004 L 56.300000000000004,60.800000000000004 L 56.300000000000004,61.6 L 54.6,61.6 L 54.6,62.9 L 56.300000000000004,62.9 L 56.300000000000004,63.699999999999996 L 54.6,63.699999999999996 L 54.6,65.0 L 56.300000000000004,65.0 L 56.300000000000004,65.9 L 54.6,65.9 L 54.6,67.2 L 55.0,67.2 L 54.2,69.2 L 53.400000000000006,67.2 L 53.800000000000004,67.2 L 53.800000000000004,65.9 L 52.7,65.9 L 52.7,67.2 L 53.1,67.2 L 52.0,69.3 M 53.5,67.6 L 53.9,68.69999999999999 L 54.3,67.6 L 54.099999999999994,67.6 L 54.099999999999994,65.8 L 55.8,65.8 L 55.8,65.39999999999999 L 54.099999999999994,65.39999999999999 L 54.099999999999994,63.599999999999994 L 55.8,63.599999999999994 L 55.8,63.199999999999996 L 54.099999999999994,63.199999999999996 L 54.099999999999994,61.4 L 55.8,61.4 L 55.8,61.0 L 54.099999999999994,61.0 L 54.099999999999994,59.2 L 53.699999999999996,59.2 L 53.699999999999996,61.0 L 52.099999999999994,61.0 L 52.099999999999994,59.2 L 51.699999999999996,59.2 L 51.699999999999996,61.0 L 50.099999999999994,61.0 L 50.099999999999994,59.2 L 49.699999999999996,59.2 L 49.699999999999996,61.0 L 48.099999999999994,61.0 L 48.099999999999994,59.2 L 47.699999999999996,59.2 L 47.699999999999996,61.0 L 46.099999999999994,61.0 L 46.099999999999994,59.2 L 45.699999999999996,59.2 L 45.699999999999996,61.0 L 43.99999999999999,61.0 L 43.99999999999999,61.4 L 45.699999999999996,61.4 L 45.699999999999996,63.199999999999996 L 43.99999999999999,63.199999999999996 L 43.99999999999999,63.599999999999994 L 45.699999999999996,63.599999999999994 L 45.699999999999996,65.39999999999999 L 43.99999999999999,65.39999999999999 L 43.99999999999999,65.8 L 45.699999999999996,65.8 L 45.699999999999996,67.6 L 45.49999999999999,67.6 L 45.89999999999999,68.69999999999999 L 46.29999999999999,67.6 L 46.09999999999999,67.6 L 46.09999999999999,65.8 L 47.69999999999999,65.8 L 47.69999999999999,67.6 L 47.499999999999986,67.6 L 47.899999999999984,68.69999999999999 L 48.29999999999998,67.6 L 48.09999999999998,67.6 L 48.09999999999998,65.8 L 49.69999999999998,65.8 L 49.69999999999998,67.6 L 49.49999999999998,67.6 L 49.89999999999998,68.69999999999999 L 50.299999999999976,67.6 L 50.09999999999997,67.6 L 50.09999999999997,65.8 L 51.699999999999974,65.8 L 51.699999999999974,67.6 L 51.49999999999997,67.6 L 51.89999999999997,68.69999999999999 L 52.29999999999997,67.6 L 52.099999999999966,67.6 L 52.099999999999966,65.8 L 53.69999999999997,65.8 L 53.69999999999997,67.6 L 53.5,67.6 M 55.9,61.7 L 55.9,61.7 L 55.9,61.7 M 53.8,65.4 L 52.199999999999996,65.4 L 52.199999999999996,63.60000000000001 L 53.8,63.60000000000001 L 53.8,65.4 M 52.4,65.2 L 53.5,65.2 L 53.5,63.900000000000006 L 52.4,63.900000000000006 L 52.4,65.2 M 51.8,65.4 L 50.199999999999996,65.4 L 50.199999999999996,63.60000000000001 L 51.8,63.60000000000001 L 51.8,65.4 M 50.4,65.2 L 51.5,65.2 L 51.5,63.900000000000006 L 50.4,63.900000000000006 L 50.4,65.2 M 49.8,65.4 L 48.199999999999996,65.4 L 48.199999999999996,63.60000000000001 L 49.8,63.60000000000001 L 49.8,65.4 M 48.4,65.2 L 49.5,65.2 L 49.5,63.900000000000006 L 48.4,63.900000000000006 L 48.4,65.2 M 47.8,65.4 L 46.199999999999996,65.4 L 46.199999999999996,63.60000000000001 L 47.8,63.60000000000001 L 47.8,65.4 M 46.5,65.2 L 47.6,65.2 L 47.6,63.900000000000006 L 46.5,63.900000000000006 L 46.5,65.2 M 53.8,63.3 L 52.199999999999996,63.3 L 52.199999999999996,61.5 L 53.8,61.5 L 53.8,63.3 M 52.4,63.1 L 53.5,63.1 L 53.5,61.800000000000004 L 52.4,61.800000000000004 L 52.4,63.1 M 51.8,63.3 L 50.199999999999996,63.3 L 50.199999999999996,61.5 L 51.8,61.5 L 51.8,63.3 M 50.4,63.1 L 51.5,63.1 L 51.5,61.800000000000004 L 50.4,61.800000000000004 L 50.4,63.1 M 49.8,63.3 L 48.199999999999996,63.3 L 48.199999999999996,61.5 L 49.8,61.5 L 49.8,63.3 M 48.4,63.1 L 49.5,63.1 L 49.5,61.800000000000004 L 48.4,61.800000000000004 L 48.4,63.1 M 47.8,63.3 L 46.199999999999996,63.3 L 46.199999999999996,61.5 L 47.8,61.5 L 47.8,63.3 M 46.5,63.1 L 47.6,63.1 L 47.6,61.800000000000004 L 46.5,61.800000000000004 L 46.5,63.1" fill="#111111" stroke="none" stroke-width="2.0" /><path d="M 55.4,77.6 L 55.4,66.7 C 55.4,61.6 51.0,59.800000000000004 50.0,59.800000000000004 C 49.0,59.800000000000004 44.6,61.6 44.6,66.7 L 44.6,77.60000000000001 L 20.2,77.60000000000001 L 22.4,75.4 L 22.4,48.9 L 24.599999999999998,48.9 L 24.599999999999998,52.4 L 27.499999999999996,52.4 L 27.499999999999996,48.9 L 31.499999999999996,48.9 L 31.499999999999996,52.4 L 34.4,52.4 L 34.4,48.9 L 38.4,48.9 L 38.4,52.4 L 41.3,52.4 L 41.3,48.9 L 45.3,48.9 L 45.3,52.4 L 48.0,52.4 L 48.0,48.9 L 52.0,48.9 L 52.0,52.4 L 54.9,52.4 L 54.9,48.9 L 58.9,48.9 L 58.9,52.4 L 61.8,52.4 L 61.8,48.9 L 65.8,48.9 L 65.8,52.4 L 68.7,52.4 L 68.7,48.9 L 72.7,48.9 L 72.7,52.4 L 75.60000000000001,52.4 L 75.60000000000001,48.9 L 77.80000000000001,48.9 L 77.80000000000001,75.4 L 80.00000000000001,77.60000000000001 L 55.4,77.60000000000001 L 55.4,77.6" fill="#FAFAFA" stroke="none" stroke-width="2.0" /><path d="M 77.4,49.2 L 77.4,75.6 L 79.2,77.39999999999999 L 55.6,77.39999999999999 L 55.6,66.7 C 55.6,61.400000000000006 51.0,59.5 50.0,59.5 C 49.0,59.5 44.4,61.4 44.4,66.7 L 44.4,77.4 L 20.7,77.4 L 22.5,75.60000000000001 L 22.5,49.2 L 24.3,49.2 L 24.3,52.7 L 27.7,52.7 L 27.7,49.2 L 31.2,49.2 L 31.2,52.7 L 34.6,52.7 L 34.6,49.2 L 38.0,49.2 L 38.0,52.7 L 41.4,52.7 L 41.4,49.2 L 44.9,49.2 L 44.9,52.7 L 48.3,52.7 L 48.3,49.2 L 51.8,49.2 L 51.8,52.7 L 55.199999999999996,52.7 L 55.199999999999996,49.2 L 58.699999999999996,49.2 L 58.699999999999996,52.7 L 62.0,52.7 L 62.0,49.2 L 65.5,49.2 L 65.5,52.7 L 68.9,52.7 L 68.9,49.2 L 72.4,49.2 L 72.4,52.7 L 75.80000000000001,52.7 L 75.80000000000001,49.2 L 77.4,49.2 M 77.9,48.7 L 75.2,48.7 L 75.2,52.2 L 72.8,52.2 L 72.8,48.7 L 68.3,48.7 L 68.3,52.2 L 65.89999999999999,52.2 L 65.89999999999999,48.7 L 61.39999999999999,48.7 L 61.39999999999999,52.2 L 58.99999999999999,52.2 L 58.99999999999999,48.7 L 54.49999999999999,48.7 L 54.49999999999999,52.2 L 52.099999999999994,52.2 L 52.099999999999994,48.7 L 47.599999999999994,48.7 L 47.599999999999994,52.2 L 45.199999999999996,52.2 L 45.199999999999996,48.7 L 40.699999999999996,48.7 L 40.699999999999996,52.2 L 38.3,52.2 L 38.3,48.7 L 33.8,48.7 L 33.8,52.2 L 31.4,52.2 L 31.4,48.7 L 26.9,48.7 L 26.9,52.2 L 24.5,52.2 L 24.5,48.7 L 21.8,48.7 L 21.8,75.30000000000001 L 20.4,77.0 L 19.599999999999998,77.8 L 44.9,77.8 L 44.9,66.7 C 44.9,64.10000000000001 46.1,62.400000000000006 47.199999999999996,61.5 C 48.49999999999999,60.4 49.8,60.0 50.099999999999994,60.0 C 50.39999999999999,60.0 51.699999999999996,60.4 52.99999999999999,61.5 C 53.99999999999999,62.4 55.29999999999999,64.1 55.29999999999999,66.7 L 55.29999999999999,77.8 L 80.6,77.8 L 79.6,77.0 L 77.89999999999999,75.3 L 77.9,48.7 L 77.9,48.7" fill="#111111" stroke="none" stroke-width="2.0" /><path d="M 43.1,75.7 L 22.4,75.7 L 22.4,75.4 L 29.299999999999997,75.4 L 29.299999999999997,72.2 L 22.599999999999998,72.2 L 22.599999999999998,71.9 L 25.9,71.9 L 25.9,68.7 L 22.599999999999998,68.7 L 22.599999999999998,68.4 L 29.299999999999997,68.4 L 29.299999999999997,65.2 L 22.599999999999998,65.2 L 22.599999999999998,64.9 L 25.9,64.9 L 25.9,61.7 L 22.599999999999998,61.7 L 22.599999999999998,61.400000000000006 L 29.299999999999997,61.400000000000006 L 29.299999999999997,58.2 L 22.599999999999998,58.2 L 22.599999999999998,57.900000000000006 L 25.9,57.900000000000006 L 25.9,54.7 L 22.599999999999998,54.7 L 22.599999999999998,54.400000000000006 L 50.0,54.400000000000006 L 50.0,54.7 L 46.7,54.7 L 46.7,57.900000000000006 L 50.0,57.900000000000006 L 50.0,58.2 L 43.3,58.2 L 43.3,61.400000000000006 L 44.699999999999996,61.400000000000006 L 44.699999999999996,61.7 L 39.9,61.7 L 39.9,64.9 L 43.199999999999996,64.9 L 43.199999999999996,65.2 L 36.49999999999999,65.2 L 36.49999999999999,68.4 L 43.199999999999996,68.4 L 43.199999999999996,68.7 L 39.9,68.7 L 39.9,71.9 L 43.199999999999996,71.9 L 43.199999999999996,72.2 L 36.49999999999999,72.2 L 36.49999999999999,75.4 L 43.199999999999996,75.4 L 43.199999999999996,75.7 L 43.1,75.7 M 29.6,75.4 L 36.1,75.4 L 36.1,72.2 L 29.6,72.2 L 29.6,75.4 M 33.0,71.9 L 39.5,71.9 L 39.5,68.7 L 33.0,68.7 L 33.0,71.9 M 26.2,71.9 L 32.7,71.9 L 32.7,68.7 L 26.200000000000003,68.7 L 26.200000000000003,71.9 L 26.2,71.9 M 29.6,68.4 L 36.1,68.4 L 36.1,65.2 L 29.6,65.2 L 29.6,68.4 M 33.0,64.9 L 39.5,64.9 L 39.5,61.7 L 33.0,61.7 L 33.0,64.9 M 26.2,64.9 L 32.7,64.9 L 32.7,61.7 L 26.200000000000003,61.7 L 26.200000000000003,64.9 L 26.2,64.9 M 36.4,61.4 L 43.0,61.4 L 43.0,58.199999999999996 L 36.5,58.199999999999996 L 36.5,61.4 L 36.4,61.4 M 29.6,61.4 L 36.1,61.4 L 36.1,58.199999999999996 L 29.6,58.199999999999996 L 29.6,61.4 M 39.9,57.8 L 46.4,57.8 L 46.4,54.599999999999994 L 39.9,54.599999999999994 L 39.9,57.8 M 33.0,57.8 L 39.5,57.8 L 39.5,54.599999999999994 L 33.0,54.599999999999994 L 33.0,57.8 M 26.2,57.8 L 32.7,57.8 L 32.7,54.599999999999994 L 26.200000000000003,54.599999999999994 L 26.200000000000003,57.8 L 26.2,57.8" fill="#111111" stroke="none" stroke-width="2.0" /><path d="M 77.6,75.7 L 56.9,75.7 L 56.9,75.4 L 63.6,75.4 L 63.6,72.2 L 56.9,72.2 L 56.9,71.9 L 60.199999999999996,71.9 L 60.199999999999996,68.7 L 56.9,68.7 L 56.9,68.4 L 63.6,68.4 L 63.6,65.2 L 56.9,65.2 L 56.9,64.9 L 60.199999999999996,64.9 L 60.199999999999996,61.7 L 55.4,61.7 L 55.4,61.400000000000006 L 56.8,61.400000000000006 L 56.8,58.2 L 50.0,58.2 L 50.0,57.900000000000006 L 53.3,57.900000000000006 L 53.3,54.7 L 50.0,54.7 L 50.0,54.400000000000006 L 77.4,54.400000000000006 L 77.4,54.7 L 74.10000000000001,54.7 L 74.10000000000001,57.900000000000006 L 77.4,57.900000000000006 L 77.4,58.2 L 70.7,58.2 L 70.7,61.400000000000006 L 77.4,61.400000000000006 L 77.4,61.7 L 74.10000000000001,61.7 L 74.10000000000001,64.9 L 77.4,64.9 L 77.4,65.2 L 70.7,65.2 L 70.7,68.4 L 77.4,68.4 L 77.4,68.7 L 74.10000000000001,68.7 L 74.10000000000001,71.9 L 77.4,71.9 L 77.4,72.2 L 70.7,72.2 L 70.7,75.4 L 77.60000000000001,75.4 L 77.60000000000001,75.7 L 77.6,75.7 M 63.9,75.4 L 70.4,75.4 L 70.4,72.2 L 63.900000000000006,72.2 L 63.900000000000006,75.4 L 63.9,75.4 M 67.3,71.9 L 73.8,71.9 L 73.8,68.7 L 67.3,68.7 L 67.3,71.9 M 60.4,71.9 L 67.0,71.9 L 67.0,68.7 L 60.5,68.7 L 60.5,71.9 L 60.4,71.9 M 63.9,68.4 L 70.4,68.4 L 70.4,65.2 L 63.900000000000006,65.2 L 63.900000000000006,68.4 L 63.9,68.4 M 67.3,64.9 L 73.8,64.9 L 73.8,61.7 L 67.3,61.7 L 67.3,64.9 M 60.4,64.9 L 67.0,64.9 L 67.0,61.7 L 60.5,61.7 L 60.5,64.9 L 60.4,64.9 M 63.9,61.4 L 70.4,61.4 L 70.4,58.199999999999996 L 63.900000000000006,58.199999999999996 L 63.900000000000006,61.4 L 63.9,61.4 M 57.0,61.4 L 63.5,61.4 L 63.5,58.199999999999996 L 57.0,58.199999999999996 L 57.0,61.4 M 67.3,57.8 L 73.8,57.8 L 73.8,54.599999999999994 L 67.3,54.599999999999994 L 67.3,57.8 M 60.4,57.8 L 67.0,57.8 L 67.0,54.599999999999994 L 60.5,54.599999999999994 L 60.5,57.8 L 60.4,57.8 M 53.6,57.8 L 60.1,57.8 L 60.1,54.599999999999994 L 53.6,54.599999999999994 L 53.6,57.8" fill="#111111" stroke="none" stroke-width="2.0" /><path d="M 56.4,77.5 C 56.3,77.5 56.199999999999996,77.4 56.199999999999996,77.3 L 56.199999999999996,66.7 C 56.199999999999996,61.0 51.199999999999996,58.900000000000006 49.99999999999999,58.900000000000006 C 48.79999999999999,58.900000000000006 43.79999999999999,60.900000000000006 43.79999999999999,66.7 L 43.79999999999999,77.4 C 43.79999999999999,77.5 43.69999999999999,77.60000000000001 43.59999999999999,77.60000000000001 L 42.79999999999999,77.60000000000001 C 42.69999999999999,77.60000000000001 42.59999999999999,77.50000000000001 42.59999999999999,77.4 L 42.59999999999999,66.7 C 42.59999999999999,60.6 47.899999999999984,57.900000000000006 49.899999999999984,57.900000000000006 C 51.899999999999984,57.900000000000006 57.19999999999998,60.60000000000001 57.19999999999998,66.7 L 57.19999999999998,77.4 C 57.19999999999998,77.5 57.09999999999998,77.60000000000001 56.99999999999998,77.60000000000001 L 56.4,77.60000000000001 L 56.4,77.5" fill="#FAFAFA" stroke="none" stroke-width="2.0" /><path d="M 50.0,58.0 C 51.8,58.0 57.2,60.5 57.2,66.7 L 57.2,77.4 L 56.400000000000006,77.4 L 56.400000000000006,66.7 C 56.400000000000006,60.800000000000004 51.300000000000004,58.800000000000004 50.00000000000001,58.800000000000004 C 48.70000000000001,58.800000000000004 43.60000000000001,60.900000000000006 43.60000000000001,66.7 L 43.60000000000001,77.4 L 42.80000000000001,77.4 L 42.80000000000001,66.7 C 42.8,60.5 48.2,58.0 50.0,58.0 M 50.0,57.7 C 48.9,57.7 47.1,58.400000000000006 45.5,59.800000000000004 C 44.1,61.00000000000001 42.5,63.2 42.5,66.7 L 42.5,77.4 C 42.5,77.60000000000001 42.6,77.7 42.8,77.7 L 43.599999999999994,77.7 C 43.8,77.7 43.89999999999999,77.60000000000001 43.89999999999999,77.4 L 43.89999999999999,66.7 C 43.89999999999999,63.7 45.29999999999999,61.800000000000004 46.49999999999999,60.800000000000004 C 47.79999999999999,59.6 49.39999999999999,59.1 49.99999999999999,59.1 C 50.599999999999994,59.1 52.199999999999996,59.6 53.49999999999999,60.800000000000004 C 54.699999999999996,61.800000000000004 56.099999999999994,63.7 56.099999999999994,66.7 L 56.099999999999994,77.4 C 56.099999999999994,77.60000000000001 56.199999999999996,77.7 56.39999999999999,77.7 L 57.19999999999999,77.7 C 57.39999999999999,77.7 57.499999999999986,77.60000000000001 57.499999999999986,77.4 L 57.499999999999986,66.7 C 57.499999999999986,63.2 55.899999999999984,61.0 54.499999999999986,59.800000000000004 C 52.9,58.4 51.1,57.7 50.0,57.7 L 50.0,57.7" fill="#111111" stroke="none" stroke-width="2.0" /><path d="M 50.0,96.4 C 27.9,96.4 10.0,78.5 10.0,56.400000000000006 L 10.0,3.6 L 90.0,3.6 L 90.0,56.4 C 90.0,78.5 72.1,96.4 50.0,96.4 M 11.0,4.6 L 11.0,56.4 C 11.0,77.9 28.5,95.4 50.0,95.4 C 71.5,95.4 89.0,77.9 89.0,56.400000000000006 L 89.0,4.6 L 11.0,4.6" fill="#111111" stroke="none" stroke-width="2.0" /><path d="M 36.3,52.7 L 26.2,52.7 L 26.2,37.7 L 25.5,37.0 L 26.2,36.2 L 26.2,26.8 L 25.5,26.0 L 26.2,25.2 L 24.9,23.9 L 24.4,23.9 L 27.8,19.0 L 34.8,19.0 L 38.1,23.9 L 37.6,23.9 L 36.3,25.2 L 37.0,26.0 L 36.3,26.8 L 36.3,36.2 L 37.0,37.0 L 36.3,37.7 L 36.3,52.7" fill="#FAFAFA" stroke="none" stroke-width="2.0" /><path d="M 33.1,52.8 L 32.8,52.8 L 32.8,37.8 L 31.9,37.0 L 32.8,36.2 L 32.8,26.8 L 31.9,26.0 L 32.7,25.2 L 31.3,23.9 L 31.6,23.6 L 33.2,25.2 L 32.4,26.0 L 33.1,26.7 L 33.1,36.3 L 32.4,37.0 L 33.1,37.7 L 33.1,52.8" fill="#111111" stroke="none" stroke-width="2.0" /><path d="M 30.2,45.3 L 30.8,45.8 L 28.4,45.8 L 29.0,45.3 L 29.0,40.2 L 28.4,39.7 L 30.8,39.7 L 30.2,40.2 L 30.2,45.3" fill="#111111" stroke="none" stroke-width="2.0" /><path d="M 34.8,45.3 L 35.3,45.8 L 34.0,45.8 L 34.0,39.7 L 35.3,39.7 L 34.8,40.2 L 34.8,45.3" fill="#111111" stroke="none" stroke-width="2.0" /><path d="M 63.7,52.7 L 73.8,52.7 L 73.8,37.7 L 74.5,37.0 L 73.8,36.2 L 73.8,26.8 L 74.5,26.0 L 73.8,25.2 L 75.1,23.9 L 75.6,23.9 L 72.2,19.0 L 65.2,19.0 L 61.9,23.9 L 62.4,23.9 L 63.7,25.2 L 63.0,26.0 L 63.7,26.8 L 63.7,36.2 L 63.0,37.0 L 63.7,37.7 L 63.7,52.7" fill="#FAFAFA" stroke="none" stroke-width="2.0" /><path d="M 67.2,52.8 L 66.9,52.8 L 66.9,37.7 L 67.6,37.0 L 66.9,36.3 L 66.9,26.7 L 67.6,26.0 L 66.8,25.2 L 68.4,23.6 L 68.7,23.9 L 67.3,25.2 L 68.1,26.0 L 67.2,26.8 L 67.2,36.2 L 68.1,37.0 L 67.2,37.8 L 67.2,52.8" fill="#111111" stroke="none" stroke-width="2.0" /><path d="M 69.8,45.3 L 69.2,45.8 L 71.6,45.8 L 71.0,45.3 L 71.0,40.2 L 71.6,39.7 L 69.2,39.7 L 69.8,40.2 L 69.8,45.3" fill="#111111" stroke="none" stroke-width="2.0" /><path d="M 65.2,45.3 L 64.7,45.8 L 66.0,45.8 L 66.0,39.7 L 64.7,39.7 L 65.2,40.2 L 65.2,45.3" fill="#111111" stroke="none" stroke-width="2.0" /><path d="M 56.7,52.7 L 43.3,52.7 L 43.3,34.8 L 45.0,33.2 L 44.2,32.4 L 45.0,31.6 L 45.0,19.6 L 44.2,18.8 L 45.0,18.1 L 43.6,16.7 L 43.1,16.7 L 46.5,11.8 L 53.5,11.8 L 56.9,16.7 L 56.4,16.7 L 55.0,18.1 L 55.8,18.8 L 55.0,19.6 L 55.0,31.6 L 55.8,32.4 L 55.0,33.2 L 56.7,34.8 L 56.7,52.7" fill="#FAFAFA" stroke="none" stroke-width="2.0" /><path d="M 26.1,36.1 L 36.5,36.1 L 36.5,36.4 L 26.1,36.4 L 26.1,36.1" fill="#111111" stroke="none" stroke-width="2.0" /><path d="M 25.3,36.9 L 37.1,36.9 L 37.1,37.1 L 25.3,37.1 L 25.3,36.9" fill="#111111" stroke="none" stroke-width="2.0" /><path d="M 26.1,37.6 L 36.5,37.6 L 36.5,37.9 L 26.1,37.9 L 26.1,37.6" fill="#111111" stroke="none" stroke-width="2.0" /><path d="M 26.1,25.1 L 36.5,25.1 L 36.5,25.400000000000002 L 26.1,25.400000000000002 L 26.1,25.1" fill="#111111" stroke="none" stroke-width="2.0" /><path d="M 25.3,25.9 L 37.1,25.9 L 37.1,26.099999999999998 L 25.3,26.099999999999998 L 25.3,25.9" fill="#111111" stroke="none" stroke-width="2.0" /><path d="M 26.1,26.6 L 36.5,26.6 L 36.5,26.900000000000002 L 26.1,26.900000000000002 L 26.1,26.6" fill="#111111" stroke="none" stroke-width="2.0" /><path d="M 63.6,36.1 L 74.0,36.1 L 74.0,36.4 L 63.6,36.4 L 63.6,36.1" fill="#111111" stroke="none" stroke-width="2.0" /><path d="M 62.8,36.9 L 74.6,36.9 L 74.6,37.1 L 62.8,37.1 L 62.8,36.9" fill="#111111" stroke="none" stroke-width="2.0" /><path d="M 63.6,37.6 L 74.0,37.6 L 74.0,37.9 L 63.6,37.9 L 63.6,37.6" fill="#111111" stroke="none" stroke-width="2.0" /><path d="M 63.6,25.1 L 74.0,25.1 L 74.0,25.400000000000002 L 63.6,25.400000000000002 L 63.6,25.1" fill="#111111" stroke="none" stroke-width="2.0" /><path d="M 62.8,25.9 L 74.6,25.9 L 74.6,26.099999999999998 L 62.8,26.099999999999998 L 62.8,25.9" fill="#111111" stroke="none" stroke-width="2.0" /><path d="M 63.6,26.6 L 74.0,26.6 L 74.0,26.900000000000002 L 63.6,26.900000000000002 L 63.6,26.6" fill="#111111" stroke="none" stroke-width="2.0" /><path d="M 44.8,31.5 L 55.199999999999996,31.5 L 55.199999999999996,31.8 L 44.8,31.8 L 44.8,31.5" fill="#111111" stroke="none" stroke-width="2.0" /><path d="M 44.1,32.3 L 55.900000000000006,32.3 L 55.900000000000006,32.5 L 44.1,32.5 L 44.1,32.3" fill="#111111" stroke="none" stroke-width="2.0" /><path d="M 44.8,17.9 L 55.199999999999996,17.9 L 55.199999999999996,18.2 L 44.8,18.2 L 44.8,17.9" fill="#111111" stroke="none" stroke-width="2.0" /><path d="M 44.1,18.7 L 55.900000000000006,18.7 L 55.900000000000006,18.9 L 44.1,18.9 L 44.1,18.7" fill="#111111" stroke="none" stroke-width="2.0" /><path d="M 44.8,19.4 L 55.199999999999996,19.4 L 55.199999999999996,19.7 L 44.8,19.7 L 44.8,19.4" fill="#111111" stroke="none" stroke-width="2.0" /></g></svg>