<?xml version="1.0" encoding="utf-8" ?>
<svg baseProfile="full" height="100px" version="1.1" width="150px" xmlns="http://www.w3.org/2000/svg" xmlns:ev="http://www.w3.org/2001/xml-events" xmlns:xlink="http://www.w3.org/1999/xlink"><defs><clipPath id="mask0"><rect height="100" width="150" x="0" y="0" /></clipPath></defs><g clip-path="url(#mask0)"><rect fill="#630356" height="100" stroke="none" width="150" x="0" y="0" /><path d="M54.41525586791163,0 L95.58474413208836,0 L95.58474413208836,100 L54.41525586791163,100 z" fill="#ba0e54" stroke="none" /></g><g transform="translate(9.86500012079869, 9.86500012079869) scale(0.2026999975840262) rotate(0, 50.0, 50.0)"><path d="M 40.6,0.0 C 40.4,0.0 40.300000000000004,0.0 40.1,0.1 C 39.9,0.2 39.7,0.30000000000000004 39.6,0.4 C 39.5,0.5 39.300000000000004,0.5 39.2,0.5 C 39.1,0.5 39.0,0.5 38.800000000000004,0.5 C 38.7,0.6 38.50000000000001,0.6 38.400000000000006,0.6 C 38.300000000000004,0.5 38.2,0.39999999999999997 38.10000000000001,0.39999999999999997 C 38.00000000000001,0.39999999999999997 37.900000000000006,0.29999999999999993 37.80000000000001,0.29999999999999993 C 37.70000000000001,0.3999999999999999 37.70000000000001,0.49999999999999994 37.60000000000001,0.49999999999999994 C 37.50000000000001,0.49999999999999994 37.400000000000006,0.6 37.30000000000001,0.49999999999999994 C 37.20000000000001,0.3999999999999999 37.10000000000001,0.49999999999999994 37.10000000000001,0.3999999999999999 C 37.00000000000001,0.29999999999999993 36.80000000000001,0.29999999999999993 36.70000000000001,0.1999999999999999 C 36.60000000000001,0.29999999999999993 36.60000000000001,0.3999999999999999 36.50000000000001,0.3999999999999999 C 36.300000000000004,0.4999999999999999 36.20000000000001,0.4999999999999999 36.00000000000001,0.4999999999999999 C 35.800000000000004,0.4999999999999999 35.70000000000001,0.5999999999999999 35.60000000000001,0.5999999999999999 C 35.50000000000001,0.5999999999999999 35.400000000000006,0.5999999999999999 35.30000000000001,0.4999999999999999 C 35.20000000000001,0.3999999999999999 35.20000000000001,0.3999999999999999 35.10000000000001,0.2999999999999999 C 34.900000000000006,0.2999999999999999 34.80000000000001,0.2999999999999999 34.60000000000001,0.19999999999999987 C 34.400000000000006,0.19999999999999987 34.20000000000001,0.19999999999999987 33.900000000000006,0.19999999999999987 C 33.800000000000004,0.19999999999999987 33.60000000000001,0.2999999999999999 33.50000000000001,0.2999999999999999 C 33.400000000000006,0.2999999999999999 33.300000000000004,0.2999999999999999 33.20000000000001,0.2999999999999999 C 33.10000000000001,0.2999999999999999 32.90000000000001,0.2999999999999999 32.80000000000001,0.2999999999999999 C 32.70000000000001,0.2999999999999999 32.70000000000001,0.3999999999999999 32.60000000000001,0.3999999999999999 C 32.50000000000001,0.4999999999999999 32.400000000000006,0.4999999999999999 32.30000000000001,0.4999999999999999 C 32.000000000000014,0.4999999999999999 31.70000000000001,0.4999999999999999 31.50000000000001,0.4999999999999999 C 31.30000000000001,0.4999999999999999 31.100000000000012,0.4999999999999999 30.90000000000001,0.4999999999999999 C 30.60000000000001,0.5999999999999999 30.300000000000008,0.5999999999999999 30.10000000000001,0.7 C 30.000000000000007,0.7999999999999999 29.90000000000001,0.8999999999999999 29.70000000000001,0.8999999999999999 C 29.50000000000001,0.8999999999999999 29.40000000000001,1.0999999999999999 29.20000000000001,1.2 C 29.20000000000001,1.3 29.10000000000001,1.3 29.00000000000001,1.3 C 28.90000000000001,1.3 28.80000000000001,1.4000000000000001 28.80000000000001,1.3 C 28.70000000000001,1.2 28.600000000000012,1.2 28.600000000000012,1.3 C 28.50000000000001,1.3 28.50000000000001,1.4000000000000001 28.400000000000013,1.4000000000000001 C 28.30000000000001,1.4000000000000001 28.200000000000014,1.4000000000000001 28.100000000000012,1.4000000000000001 C 28.00000000000001,1.5000000000000002 27.80000000000001,1.5000000000000002 27.80000000000001,1.6 C 27.70000000000001,1.7000000000000002 27.600000000000012,1.9000000000000001 27.400000000000013,2.0 C 27.200000000000014,2.1 27.000000000000014,2.2 26.80000000000001,2.2 C 26.600000000000012,2.3000000000000003 26.400000000000013,2.1 26.100000000000012,2.1 C 26.00000000000001,2.1 25.900000000000013,2.1 25.80000000000001,2.1 C 25.70000000000001,2.1 25.600000000000012,1.9000000000000001 25.50000000000001,1.9000000000000001 C 25.40000000000001,1.8 25.30000000000001,1.9000000000000001 25.20000000000001,1.9000000000000001 C 25.00000000000001,1.9000000000000001 24.80000000000001,1.9000000000000001 24.70000000000001,1.9000000000000001 C 24.60000000000001,1.9000000000000001 24.50000000000001,1.9000000000000001 24.40000000000001,1.9000000000000001 C 24.20000000000001,1.9000000000000001 24.00000000000001,2.0 23.800000000000008,2.0 C 23.700000000000006,2.0 23.60000000000001,2.0 23.500000000000007,1.9 C 23.2,2.1 23.0,2.0 22.9,1.8 C 22.799999999999997,1.7 22.7,1.6 22.7,1.4 C 22.7,1.2999999999999998 22.7,1.2 22.599999999999998,1.2 C 22.4,1.2 22.299999999999997,1.3 22.099999999999998,1.3 C 21.999999999999996,1.3 21.999999999999996,1.4000000000000001 21.9,1.5 C 21.7,1.8 21.5,2.2 21.299999999999997,2.5 C 21.199999999999996,2.7 21.099999999999998,2.8 20.999999999999996,3.0 C 20.899999999999995,3.1 20.699999999999996,3.3 20.599999999999998,3.4 C 20.499999999999996,3.5 20.499999999999996,3.6 20.4,3.6999999999999997 C 20.3,3.9 20.0,4.0 19.8,4.1 C 19.6,4.199999999999999 19.3,4.3 19.0,4.3999999999999995 C 18.8,4.499999999999999 18.6,4.499999999999999 18.3,4.6 C 18.2,4.699999999999999 18.0,4.8 17.900000000000002,4.8999999999999995 C 17.700000000000003,5.1 17.500000000000004,5.3 17.200000000000003,5.499999999999999 C 17.1,5.599999999999999 17.200000000000003,5.699999999999999 17.1,5.799999999999999 C 17.1,5.899999999999999 17.0,5.999999999999999 16.900000000000002,6.099999999999999 C 16.900000000000002,6.199999999999998 16.8,6.199999999999998 16.8,6.299999999999999 C 16.900000000000002,6.299999999999999 16.7,6.299999999999999 16.7,6.399999999999999 C 16.599999999999998,6.399999999999999 16.5,6.399999999999999 16.5,6.499999999999998 C 16.3,6.699999999999998 16.1,6.899999999999999 16.0,7.099999999999998 C 15.9,7.299999999999998 15.9,7.599999999999998 15.8,7.899999999999998 C 16.0,8.0 15.9,8.0 15.9,8.1 C 16.0,8.299999999999999 16.1,8.4 16.0,8.6 C 16.0,8.799999999999999 16.0,8.9 15.9,9.1 C 15.8,9.299999999999999 15.6,9.4 15.5,9.5 C 15.4,9.6 15.3,9.7 15.2,9.9 C 15.1,10.0 15.0,10.200000000000001 14.799999999999999,10.200000000000001 C 14.7,10.4 14.499999999999998,10.4 14.399999999999999,10.500000000000002 C 14.2,10.600000000000001 13.999999999999998,10.600000000000001 13.799999999999999,10.700000000000001 C 13.6,10.8 13.499999999999998,11.000000000000002 13.299999999999999,11.100000000000001 C 13.2,11.200000000000001 12.999999999999998,11.3 12.899999999999999,11.3 C 12.7,11.3 12.499999999999998,11.4 12.299999999999999,11.5 C 12.1,11.5 11.899999999999999,11.6 11.7,11.6 C 11.6,11.6 11.5,11.6 11.399999999999999,11.6 C 11.299999999999999,11.7 11.299999999999999,11.9 11.2,11.9 C 11.1,12.0 11.0,12.200000000000001 10.899999999999999,12.3 C 10.799999999999999,12.5 10.599999999999998,12.700000000000001 10.499999999999998,12.9 C 10.499999999999998,13.0 10.399999999999999,13.1 10.299999999999999,13.1 C 10.1,13.2 9.899999999999999,13.299999999999999 9.7,13.4 C 9.6,13.5 9.399999999999999,13.5 9.299999999999999,13.6 C 9.2,13.7 8.999999999999998,13.9 8.899999999999999,14.0 C 8.799999999999999,14.3 8.7,14.5 8.499999999999998,14.7 C 8.399999999999999,14.799999999999999 8.299999999999999,15.0 8.299999999999999,15.2 C 8.299999999999999,15.299999999999999 8.2,15.399999999999999 8.1,15.5 C 8.2,15.8 8.1,16.0 8.0,16.1 C 7.7,16.400000000000002 7.4,16.6 7.2,16.900000000000002 C 7.0,17.0 7.0,17.2 6.9,17.3 C 6.7,17.6 6.5,17.8 6.2,18.1 C 6.2,18.200000000000003 6.3,18.3 6.2,18.400000000000002 C 6.1000000000000005,18.500000000000004 6.0,18.700000000000003 5.9,18.900000000000002 C 5.800000000000001,19.000000000000004 5.7,19.200000000000003 5.6000000000000005,19.3 C 5.500000000000001,19.3 5.4,19.400000000000002 5.300000000000001,19.400000000000002 C 5.2,19.6 5.1,19.8 5.0,20.0 C 4.9,20.3 4.8,20.6 4.7,21.0 C 4.7,21.1 4.6000000000000005,21.2 4.7,21.1 C 4.8,21.1 4.9,20.900000000000002 4.9,21.1 C 4.9,21.3 5.1000000000000005,21.400000000000002 5.1000000000000005,21.6 C 5.1000000000000005,21.700000000000003 5.1000000000000005,21.8 5.2,21.8 C 5.3,21.8 5.3,21.6 5.4,21.8 C 5.5,22.0 5.6000000000000005,22.1 5.6000000000000005,22.3 C 5.6000000000000005,22.5 5.500000000000001,22.6 5.500000000000001,22.7 C 5.500000000000001,22.9 5.400000000000001,23.0 5.400000000000001,23.2 C 5.300000000000002,23.3 5.300000000000002,23.4 5.200000000000001,23.5 C 5.100000000000001,23.4 5.100000000000001,23.6 5.200000000000001,23.6 C 5.300000000000001,23.8 5.400000000000001,24.0 5.500000000000001,24.1 C 5.500000000000001,24.200000000000003 5.6000000000000005,24.3 5.6000000000000005,24.400000000000002 C 5.6000000000000005,24.700000000000003 5.6000000000000005,25.000000000000004 5.500000000000001,25.200000000000003 C 5.500000000000001,25.500000000000004 5.400000000000001,25.700000000000003 5.300000000000001,26.000000000000004 C 5.200000000000001,26.300000000000004 5.000000000000001,26.600000000000005 4.9,26.900000000000002 C 4.800000000000001,27.000000000000004 4.800000000000001,27.200000000000003 4.7,27.3 C 4.6000000000000005,27.5 4.6000000000000005,27.7 4.6000000000000005,27.900000000000002 C 4.6000000000000005,28.1 4.6000000000000005,28.400000000000002 4.500000000000001,28.6 C 4.400000000000001,28.8 4.300000000000001,29.0 4.1000000000000005,29.200000000000003 C 4.000000000000001,29.400000000000002 3.9000000000000004,29.6 3.7000000000000006,29.700000000000003 C 3.6000000000000005,29.800000000000004 3.5000000000000004,30.000000000000004 3.3000000000000007,30.1 C 3.3000000000000007,30.200000000000003 3.2000000000000006,30.3 3.2000000000000006,30.3 C 3.3000000000000007,30.400000000000002 3.400000000000001,30.6 3.5000000000000004,30.7 C 3.6000000000000005,30.9 3.7000000000000006,31.099999999999998 3.7000000000000006,31.4 C 3.8000000000000007,31.5 3.8000000000000007,31.599999999999998 3.900000000000001,31.7 C 3.900000000000001,31.8 4.000000000000001,32.0 4.000000000000001,32.1 C 4.000000000000001,32.2 4.000000000000001,32.300000000000004 4.1000000000000005,32.300000000000004 C 4.2,32.300000000000004 4.2,32.2 4.300000000000001,32.2 C 4.300000000000001,32.2 4.4,32.1 4.4,32.2 C 4.4,32.300000000000004 4.5,32.2 4.6000000000000005,32.2 C 4.7,32.2 4.800000000000001,32.2 4.9,32.2 C 5.0,32.2 5.0,32.1 5.1000000000000005,32.2 C 5.2,32.2 5.2,32.1 5.2,32.2 C 5.2,32.300000000000004 5.3,32.2 5.3,32.2 C 5.3,32.2 5.5,32.300000000000004 5.5,32.2 C 5.5,32.2 5.5,32.300000000000004 5.4,32.300000000000004 C 5.300000000000001,32.300000000000004 5.300000000000001,32.2 5.2,32.2 C 5.2,32.2 5.1000000000000005,32.1 5.1000000000000005,32.2 C 5.1000000000000005,32.2 5.000000000000001,32.300000000000004 5.000000000000001,32.2 C 4.900000000000001,32.2 4.900000000000001,32.300000000000004 4.800000000000001,32.2 C 4.800000000000001,32.2 4.700000000000001,32.2 4.700000000000001,32.2 C 4.600000000000001,32.2 4.500000000000001,32.2 4.400000000000001,32.2 C 4.300000000000002,32.2 4.300000000000002,32.2 4.300000000000002,32.2 C 4.300000000000002,32.2 4.300000000000002,32.300000000000004 4.300000000000002,32.300000000000004 C 4.300000000000002,32.400000000000006 4.400000000000001,32.300000000000004 4.400000000000001,32.300000000000004 C 4.400000000000001,32.300000000000004 4.300000000000002,32.300000000000004 4.300000000000002,32.300000000000004 C 4.300000000000002,32.2 4.200000000000002,32.300000000000004 4.100000000000001,32.300000000000004 C 4.000000000000002,32.300000000000004 3.9000000000000012,32.300000000000004 3.9000000000000012,32.2 C 3.800000000000001,32.2 3.800000000000001,32.1 3.800000000000001,32.0 C 3.700000000000001,32.0 3.700000000000001,32.1 3.700000000000001,32.2 C 3.600000000000001,32.300000000000004 3.700000000000001,32.400000000000006 3.700000000000001,32.5 C 3.600000000000001,32.8 3.600000000000001,33.0 3.600000000000001,33.3 C 3.600000000000001,33.4 3.500000000000001,33.5 3.600000000000001,33.599999999999994 C 3.600000000000001,33.699999999999996 3.700000000000001,33.8 3.800000000000001,33.8 C 3.8,33.9 3.9,34.0 4.0,34.0 C 4.0,34.1 4.0,34.2 4.1,34.3 C 4.1,34.4 4.3,34.4 4.3,34.4 C 4.3999999999999995,34.4 4.5,34.3 4.5,34.5 C 4.5,34.6 4.5,34.7 4.6,34.7 C 4.8,34.7 5.0,34.5 5.199999999999999,34.5 C 5.3999999999999995,34.4 5.6,34.5 5.799999999999999,34.4 C 5.899999999999999,34.4 5.899999999999999,34.4 5.899999999999999,34.5 C 5.699999999999998,34.5 5.499999999999998,34.5 5.299999999999999,34.6 C 5.299999999999999,34.7 5.099999999999999,34.7 5.099999999999999,34.800000000000004 C 5.099999999999999,34.900000000000006 5.199999999999998,35.00000000000001 5.199999999999998,35.1 C 5.199999999999998,35.2 5.099999999999999,35.300000000000004 5.099999999999999,35.4 C 5.099999999999999,35.5 5.199999999999998,35.6 5.199999999999998,35.6 C 5.299999999999998,35.7 5.399999999999999,35.6 5.499999999999998,35.6 C 5.399999999999999,35.7 5.399999999999999,35.800000000000004 5.399999999999999,35.9 C 5.399999999999999,36.0 5.499999999999998,36.0 5.499999999999998,36.1 C 5.599999999999998,36.1 5.699999999999998,36.1 5.699999999999998,36.0 C 5.799999999999998,35.9 5.799999999999998,35.8 5.899999999999999,35.8 C 5.899999999999999,35.9 5.899999999999999,36.0 5.899999999999999,36.099999999999994 C 5.899999999999999,36.199999999999996 5.999999999999998,36.199999999999996 6.099999999999999,36.199999999999996 C 6.199999999999998,36.199999999999996 6.099999999999999,36.3 6.199999999999998,36.4 C 6.199999999999998,36.6 6.299999999999998,36.8 6.299999999999998,36.9 C 6.299999999999998,37.0 6.499999999999998,37.0 6.499999999999998,37.1 C 6.599999999999998,37.2 6.699999999999998,37.300000000000004 6.899999999999999,37.300000000000004 C 6.999999999999998,37.400000000000006 7.099999999999999,37.50000000000001 7.199999999999998,37.7 C 7.299999999999998,37.800000000000004 7.399999999999999,37.800000000000004 7.299999999999998,37.900000000000006 C 7.299999999999998,38.00000000000001 7.499999999999998,38.10000000000001 7.499999999999998,38.2 C 7.599999999999998,38.300000000000004 7.699999999999998,38.400000000000006 7.699999999999998,38.5 C 7.699999999999998,38.6 7.799999999999998,38.7 7.699999999999998,38.8 C 7.9,38.9 8.0,39.0 7.9,39.1 C 7.9,39.2 7.9,39.300000000000004 7.9,39.4 C 7.9,39.4 8.1,39.5 8.0,39.6 C 8.0,39.6 7.9,39.7 8.0,39.9 C 8.0,40.0 8.1,40.0 8.1,40.0 C 8.2,40.0 8.2,40.1 8.299999999999999,40.1 C 8.299999999999999,40.2 8.299999999999999,40.300000000000004 8.299999999999999,40.4 C 8.399999999999999,40.5 8.6,40.6 8.7,40.699999999999996 C 8.799999999999999,40.8 8.899999999999999,40.8 8.899999999999999,40.99999999999999 C 8.899999999999999,41.099999999999994 8.899999999999999,41.199999999999996 8.999999999999998,41.199999999999996 C 9.299999999999999,41.4 9.599999999999998,41.49999999999999 9.999999999999998,41.699999999999996 C 10.199999999999998,41.8 10.299999999999999,41.9 10.399999999999999,41.99999999999999 C 10.499999999999998,41.99999999999999 10.499999999999998,42.099999999999994 10.399999999999999,42.099999999999994 C 10.399999999999999,42.199999999999996 10.499999999999998,42.199999999999996 10.499999999999998,42.3 C 10.599999999999998,42.4 10.599999999999998,42.4 10.699999999999998,42.4 C 10.799999999999997,42.4 10.899999999999997,42.4 10.999999999999998,42.5 C 11.099999999999998,42.6 11.199999999999998,42.8 11.399999999999999,42.8 C 11.599999999999998,42.9 11.7,42.9 11.899999999999999,43.099999999999994 C 12.299999999999999,43.39999999999999 12.599999999999998,43.8 12.899999999999999,44.099999999999994 C 13.099999999999998,44.3 13.2,44.39999999999999 13.399999999999999,44.599999999999994 C 13.599999999999998,44.8 13.799999999999999,44.89999999999999 13.999999999999998,44.99999999999999 C 14.399999999999999,45.099999999999994 14.899999999999999,45.29999999999999 15.299999999999999,45.49999999999999 C 15.399999999999999,45.39999999999999 15.6,45.49999999999999 15.7,45.39999999999999 C 15.899999999999999,45.29999999999999 16.099999999999998,45.19999999999999 16.3,45.099999999999994 C 16.6,44.99999999999999 16.900000000000002,44.8 17.3,44.699999999999996 C 17.5,44.599999999999994 17.6,44.49999999999999 17.8,44.49999999999999 C 18.0,44.49999999999999 18.1,44.39999999999999 18.3,44.39999999999999 C 18.7,44.29999999999999 19.0,44.29999999999999 19.400000000000002,44.19999999999999 C 19.700000000000003,44.19999999999999 20.000000000000004,44.09999999999999 20.3,44.09999999999999 C 20.5,44.09999999999999 20.6,44.19999999999999 20.8,44.19999999999999 C 21.1,44.19999999999999 21.3,44.29999999999999 21.6,44.39999999999999 C 21.8,44.39999999999999 22.0,44.39999999999999 22.200000000000003,44.49999999999999 C 22.500000000000004,44.599999999999994 22.800000000000004,44.699999999999996 23.000000000000004,44.79999999999999 C 23.200000000000003,44.69999999999999 23.500000000000004,44.59999999999999 23.700000000000003,44.39999999999999 C 23.800000000000004,44.29999999999999 23.900000000000002,44.29999999999999 24.000000000000004,44.29999999999999 C 24.300000000000004,44.19999999999999 24.500000000000004,44.19999999999999 24.800000000000004,44.09999999999999 C 25.200000000000003,43.899999999999984 25.600000000000005,43.59999999999999 26.000000000000004,43.399999999999984 C 26.200000000000003,43.29999999999998 26.400000000000002,43.29999999999998 26.600000000000005,43.29999999999998 C 26.700000000000006,43.29999999999998 26.600000000000005,43.29999999999998 26.600000000000005,43.19999999999998 C 26.600000000000005,43.09999999999998 26.600000000000005,43.09999999999998 26.600000000000005,42.99999999999998 C 26.600000000000005,42.89999999999998 26.500000000000004,42.89999999999998 26.500000000000004,42.89999999999998 C 26.500000000000004,42.799999999999976 26.400000000000002,42.799999999999976 26.400000000000002,42.799999999999976 C 26.3,42.799999999999976 26.3,42.89999999999998 26.3,42.89999999999998 C 26.2,42.89999999999998 26.2,42.799999999999976 26.1,42.799999999999976 C 26.200000000000003,42.699999999999974 26.200000000000003,42.799999999999976 26.200000000000003,42.89999999999998 C 26.200000000000003,42.89999999999998 26.300000000000004,42.89999999999998 26.300000000000004,42.89999999999998 C 26.400000000000006,42.89999999999998 26.400000000000006,42.89999999999998 26.500000000000004,42.99999999999998 C 26.600000000000005,42.99999999999998 26.700000000000003,43.09999999999998 26.700000000000003,43.299999999999976 C 26.700000000000003,43.299999999999976 26.800000000000004,43.39999999999998 26.800000000000004,43.39999999999998 C 26.800000000000004,43.39999999999998 26.900000000000006,43.39999999999998 27.000000000000004,43.39999999999998 C 27.100000000000005,43.49999999999998 27.200000000000003,43.39999999999998 27.200000000000003,43.39999999999998 C 27.300000000000004,43.39999999999998 27.300000000000004,43.299999999999976 27.400000000000002,43.199999999999974 C 27.500000000000004,43.09999999999997 27.500000000000004,42.99999999999997 27.6,42.99999999999997 C 27.8,42.89999999999997 27.900000000000002,42.89999999999997 28.1,42.79999999999997 C 28.400000000000002,42.69999999999997 28.700000000000003,42.599999999999966 29.0,42.599999999999966 C 29.3,42.599999999999966 29.6,42.499999999999964 29.8,42.499999999999964 C 30.0,42.499999999999964 30.1,42.499999999999964 30.3,42.499999999999964 C 30.7,42.499999999999964 31.0,42.39999999999996 31.400000000000002,42.499999999999964 C 31.6,42.499999999999964 31.900000000000002,42.499999999999964 32.1,42.599999999999966 C 32.2,42.599999999999966 32.4,42.79999999999997 32.5,42.79999999999997 C 32.6,42.89999999999997 32.7,42.89999999999997 32.7,42.99999999999997 C 32.800000000000004,43.09999999999997 32.800000000000004,43.199999999999974 32.900000000000006,43.29999999999997 C 33.00000000000001,43.29999999999997 33.00000000000001,43.39999999999997 33.10000000000001,43.49999999999997 C 33.10000000000001,43.59999999999997 33.20000000000001,43.59999999999997 33.20000000000001,43.699999999999974 C 33.20000000000001,43.799999999999976 33.20000000000001,43.89999999999998 33.30000000000001,43.89999999999998 C 33.30000000000001,43.89999999999998 33.500000000000014,43.89999999999998 33.500000000000014,43.99999999999998 C 33.40000000000001,43.99999999999998 33.40000000000001,44.09999999999998 33.40000000000001,44.19999999999998 C 33.40000000000001,44.399999999999984 33.500000000000014,44.59999999999998 33.500000000000014,44.899999999999984 C 33.70000000000002,44.999999999999986 33.80000000000001,45.19999999999998 33.90000000000001,45.399999999999984 C 33.90000000000001,45.499999999999986 34.100000000000016,45.499999999999986 34.100000000000016,45.499999999999986 C 34.20000000000002,45.59999999999999 34.30000000000002,45.499999999999986 34.500000000000014,45.499999999999986 C 34.500000000000014,45.59999999999999 34.500000000000014,45.69999999999999 34.600000000000016,45.69999999999999 C 34.70000000000002,45.59999999999999 34.90000000000001,45.59999999999999 35.000000000000014,45.499999999999986 C 35.100000000000016,45.59999999999999 35.100000000000016,45.399999999999984 35.20000000000002,45.499999999999986 C 35.30000000000002,45.59999999999999 35.30000000000002,45.499999999999986 35.40000000000002,45.499999999999986 C 35.50000000000002,45.499999999999986 35.50000000000002,45.399999999999984 35.60000000000002,45.29999999999998 C 35.700000000000024,45.29999999999998 35.700000000000024,45.19999999999998 35.800000000000026,45.09999999999998 C 36.00000000000003,45.19999999999998 36.200000000000024,45.29999999999998 36.40000000000003,45.29999999999998 C 36.700000000000024,45.29999999999998 37.00000000000003,45.29999999999998 37.300000000000026,45.29999999999998 C 37.300000000000026,45.09999999999998 37.300000000000026,44.999999999999986 37.40000000000003,44.79999999999998 C 37.40000000000003,44.69999999999998 37.50000000000003,44.79999999999998 37.60000000000003,44.79999999999998 C 37.60000000000003,44.899999999999984 37.70000000000003,44.899999999999984 37.70000000000003,44.999999999999986 C 37.70000000000003,45.09999999999999 37.70000000000003,45.19999999999999 37.80000000000003,45.19999999999999 C 37.900000000000034,45.29999999999999 38.000000000000036,45.19999999999999 38.000000000000036,45.19999999999999 C 38.10000000000004,45.19999999999999 38.20000000000004,45.19999999999999 38.20000000000004,45.29999999999999 C 38.30000000000004,45.49999999999999 38.30000000000004,45.69999999999999 38.40000000000004,45.89999999999999 C 38.600000000000044,45.99999999999999 38.70000000000004,46.099999999999994 38.90000000000004,46.099999999999994 C 39.00000000000004,46.099999999999994 39.00000000000004,45.99999999999999 39.100000000000044,45.99999999999999 C 39.200000000000045,45.99999999999999 39.30000000000005,45.99999999999999 39.30000000000005,45.99999999999999 C 39.30000000000005,46.099999999999994 39.30000000000005,46.199999999999996 39.30000000000005,46.29999999999999 C 39.200000000000045,46.29999999999999 39.200000000000045,46.39999999999999 39.30000000000005,46.49999999999999 C 39.40000000000005,46.599999999999994 39.40000000000005,46.699999999999996 39.50000000000005,46.79999999999999 C 39.60000000000005,46.89999999999999 39.60000000000005,46.99999999999999 39.70000000000005,47.09999999999999 C 39.60000000000005,47.19999999999999 39.70000000000005,47.29999999999999 39.60000000000005,47.399999999999984 C 39.50000000000005,47.69999999999998 39.40000000000005,47.999999999999986 39.40000000000005,48.399999999999984 C 39.30000000000005,48.59999999999999 39.30000000000005,48.69999999999998 39.30000000000005,48.899999999999984 C 39.200000000000045,49.09999999999999 39.100000000000044,49.19999999999998 39.100000000000044,49.399999999999984 C 39.100000000000044,49.59999999999999 38.90000000000004,49.79999999999998 38.80000000000005,49.999999999999986 C 38.90000000000005,50.09999999999999 39.00000000000005,50.09999999999999 39.200000000000045,50.19999999999999 C 39.30000000000005,50.29999999999999 39.100000000000044,50.39999999999999 39.100000000000044,50.39999999999999 C 39.100000000000044,50.49999999999999 39.100000000000044,50.69999999999999 39.100000000000044,50.79999999999999 C 39.100000000000044,50.89999999999999 39.00000000000004,50.89999999999999 38.90000000000004,50.89999999999999 C 38.80000000000004,50.89999999999999 38.80000000000004,50.99999999999999 38.80000000000004,51.099999999999994 C 38.90000000000004,51.3 39.10000000000004,51.39999999999999 39.20000000000004,51.49999999999999 C 39.30000000000004,51.49999999999999 39.40000000000004,51.49999999999999 39.500000000000036,51.599999999999994 C 39.500000000000036,51.699999999999996 39.400000000000034,51.699999999999996 39.30000000000003,51.699999999999996 C 39.20000000000003,51.699999999999996 39.000000000000036,51.699999999999996 38.900000000000034,51.599999999999994 C 38.80000000000003,51.49999999999999 38.80000000000003,51.49999999999999 38.70000000000003,51.49999999999999 C 38.70000000000003,51.49999999999999 38.70000000000003,51.699999999999996 38.70000000000003,51.699999999999996 C 38.70000000000003,51.9 38.70000000000003,52.199999999999996 38.60000000000003,52.4 C 38.50000000000003,52.5 38.40000000000003,52.6 38.30000000000003,52.699999999999996 C 38.30000000000003,52.8 38.10000000000003,52.8 38.000000000000036,52.8 C 37.900000000000034,52.8 38.000000000000036,52.9 38.000000000000036,53.0 C 38.10000000000004,53.2 38.20000000000004,53.4 38.30000000000003,53.6 C 38.400000000000034,53.9 38.500000000000036,54.2 38.60000000000003,54.5 C 38.80000000000003,54.7 39.00000000000003,54.9 39.20000000000003,55.2 C 39.30000000000003,55.300000000000004 39.400000000000034,55.5 39.50000000000003,55.7 C 39.800000000000026,55.900000000000006 40.00000000000003,56.1 40.300000000000026,56.400000000000006 C 40.50000000000003,56.60000000000001 40.700000000000024,56.900000000000006 40.90000000000003,57.00000000000001 C 41.00000000000003,57.10000000000001 41.00000000000003,57.300000000000004 41.200000000000024,57.400000000000006 C 41.300000000000026,57.50000000000001 41.40000000000003,57.50000000000001 41.50000000000002,57.60000000000001 C 41.60000000000002,57.80000000000001 41.700000000000024,57.900000000000006 41.90000000000002,58.10000000000001 C 42.00000000000002,58.20000000000001 42.10000000000002,58.30000000000001 42.20000000000002,58.50000000000001 C 42.30000000000002,58.70000000000001 42.40000000000002,58.900000000000006 42.40000000000002,59.10000000000001 C 42.50000000000002,59.20000000000001 42.60000000000002,59.20000000000001 42.50000000000002,59.30000000000001 C 42.50000000000002,59.500000000000014 42.60000000000002,59.60000000000001 42.50000000000002,59.80000000000001 C 42.50000000000002,59.90000000000001 42.50000000000002,60.000000000000014 42.60000000000002,60.10000000000001 C 42.700000000000024,60.20000000000001 42.800000000000026,60.30000000000001 42.90000000000002,60.400000000000006 C 42.90000000000002,60.400000000000006 43.00000000000002,60.50000000000001 43.00000000000002,60.50000000000001 C 43.00000000000002,60.400000000000006 43.10000000000002,60.400000000000006 43.10000000000002,60.50000000000001 C 43.10000000000002,60.60000000000001 43.00000000000002,60.60000000000001 43.10000000000002,60.60000000000001 C 43.200000000000024,60.60000000000001 43.200000000000024,60.60000000000001 43.200000000000024,60.50000000000001 C 43.300000000000026,60.400000000000006 43.40000000000003,60.50000000000001 43.40000000000003,60.50000000000001 C 43.40000000000003,60.50000000000001 43.40000000000003,60.400000000000006 43.50000000000003,60.400000000000006 C 43.50000000000003,60.400000000000006 43.60000000000003,60.400000000000006 43.60000000000003,60.300000000000004 C 43.70000000000003,60.300000000000004 43.70000000000003,60.300000000000004 43.70000000000003,60.300000000000004 C 43.80000000000003,60.300000000000004 43.80000000000003,60.400000000000006 43.900000000000034,60.300000000000004 C 43.900000000000034,60.300000000000004 44.000000000000036,60.300000000000004 44.10000000000004,60.300000000000004 C 44.20000000000004,60.300000000000004 44.10000000000004,60.400000000000006 44.000000000000036,60.400000000000006 C 44.000000000000036,60.400000000000006 43.900000000000034,60.300000000000004 43.900000000000034,60.400000000000006 C 43.900000000000034,60.400000000000006 43.80000000000003,60.400000000000006 43.80000000000003,60.50000000000001 C 43.80000000000003,60.60000000000001 43.70000000000003,60.60000000000001 43.60000000000003,60.60000000000001 C 43.60000000000003,60.60000000000001 43.50000000000003,60.60000000000001 43.50000000000003,60.60000000000001 C 43.40000000000003,60.50000000000001 43.40000000000003,60.70000000000001 43.300000000000026,60.60000000000001 C 43.300000000000026,60.60000000000001 43.200000000000024,60.60000000000001 43.200000000000024,60.60000000000001 C 43.10000000000002,60.70000000000001 43.10000000000002,60.60000000000001 43.00000000000002,60.60000000000001 C 43.00000000000002,60.60000000000001 42.90000000000002,60.60000000000001 42.90000000000002,60.70000000000001 C 42.90000000000002,60.80000000000001 42.90000000000002,60.90000000000001 42.90000000000002,60.90000000000001 C 43.00000000000002,61.100000000000016 43.10000000000002,61.20000000000001 43.20000000000002,61.40000000000001 C 43.30000000000002,61.600000000000016 43.500000000000014,61.70000000000001 43.600000000000016,61.90000000000001 C 43.70000000000002,62.100000000000016 43.70000000000002,62.40000000000001 43.80000000000002,62.600000000000016 C 43.90000000000002,62.90000000000001 43.90000000000002,63.100000000000016 44.100000000000016,63.40000000000001 C 44.100000000000016,63.500000000000014 44.30000000000002,63.600000000000016 44.30000000000002,63.70000000000001 C 44.40000000000002,63.90000000000001 44.40000000000002,64.10000000000001 44.40000000000002,64.30000000000001 C 44.40000000000002,64.4 44.30000000000002,64.50000000000001 44.20000000000002,64.50000000000001 C 44.100000000000016,64.60000000000001 44.100000000000016,64.60000000000001 44.100000000000016,64.70000000000002 C 44.100000000000016,64.90000000000002 44.20000000000002,65.10000000000002 44.20000000000002,65.30000000000001 C 44.20000000000002,65.50000000000001 44.30000000000002,65.80000000000001 44.40000000000002,66.00000000000001 C 44.50000000000002,66.10000000000001 44.60000000000002,66.20000000000002 44.60000000000002,66.40000000000002 C 44.60000000000002,66.50000000000001 44.700000000000024,66.60000000000002 44.700000000000024,66.60000000000002 C 44.800000000000026,66.70000000000002 44.90000000000003,66.70000000000002 44.90000000000003,66.80000000000003 C 44.90000000000003,67.00000000000003 45.00000000000003,67.10000000000002 45.00000000000003,67.30000000000003 C 45.00000000000003,67.40000000000002 44.90000000000003,67.40000000000002 44.90000000000003,67.50000000000003 C 44.90000000000003,67.70000000000003 45.00000000000003,67.90000000000003 44.90000000000003,68.00000000000003 C 44.90000000000003,68.20000000000003 44.90000000000003,68.30000000000003 44.90000000000003,68.50000000000003 C 44.90000000000003,68.70000000000003 44.800000000000026,68.90000000000003 44.800000000000026,69.10000000000002 C 44.700000000000024,69.40000000000002 44.50000000000003,69.60000000000002 44.300000000000026,69.80000000000003 C 44.10000000000002,69.90000000000002 44.00000000000003,70.00000000000003 43.800000000000026,70.00000000000003 C 43.800000000000026,70.10000000000002 43.800000000000026,70.20000000000003 43.700000000000024,70.30000000000003 C 43.60000000000002,70.40000000000002 43.50000000000002,70.50000000000003 43.300000000000026,70.60000000000002 C 43.200000000000024,70.80000000000003 43.10000000000002,70.90000000000002 43.10000000000002,71.10000000000002 C 43.10000000000002,71.20000000000002 43.00000000000002,71.20000000000002 43.00000000000002,71.30000000000003 C 43.00000000000002,71.40000000000002 42.90000000000002,71.60000000000002 42.90000000000002,71.70000000000003 C 42.80000000000002,71.80000000000003 42.80000000000002,72.00000000000003 42.80000000000002,72.10000000000004 C 42.70000000000002,72.30000000000004 42.70000000000002,72.50000000000004 42.70000000000002,72.70000000000003 C 42.600000000000016,72.90000000000003 42.70000000000002,73.10000000000004 42.600000000000016,73.20000000000003 C 42.500000000000014,73.40000000000003 42.500000000000014,73.70000000000003 42.40000000000001,73.90000000000003 C 42.40000000000001,74.00000000000003 42.20000000000001,74.10000000000004 42.20000000000001,74.20000000000003 C 42.20000000000001,74.50000000000003 42.20000000000001,74.90000000000003 42.20000000000001,75.20000000000003 C 42.20000000000001,75.30000000000003 42.20000000000001,75.40000000000003 42.20000000000001,75.30000000000003 C 42.20000000000001,75.20000000000003 42.00000000000001,75.10000000000002 42.10000000000001,75.20000000000003 C 42.10000000000001,75.50000000000003 42.20000000000001,75.70000000000003 42.20000000000001,76.00000000000003 C 42.20000000000001,76.20000000000003 42.20000000000001,76.30000000000003 42.20000000000001,76.50000000000003 C 42.20000000000001,76.70000000000003 42.20000000000001,76.90000000000003 42.30000000000001,77.00000000000003 C 42.30000000000001,77.10000000000002 42.30000000000001,77.20000000000003 42.40000000000001,77.30000000000003 C 42.500000000000014,77.50000000000003 42.600000000000016,77.70000000000003 42.70000000000001,77.80000000000003 C 42.70000000000001,77.90000000000002 42.80000000000001,77.90000000000002 42.90000000000001,77.90000000000002 C 43.000000000000014,78.00000000000001 43.100000000000016,78.10000000000002 43.100000000000016,78.20000000000002 C 43.100000000000016,78.30000000000001 43.20000000000002,78.40000000000002 43.30000000000002,78.50000000000001 C 43.40000000000002,78.60000000000001 43.40000000000002,78.70000000000002 43.50000000000002,78.80000000000001 C 43.60000000000002,78.9 43.700000000000024,79.00000000000001 43.700000000000024,79.10000000000001 C 43.700000000000024,79.30000000000001 43.90000000000003,79.4 43.90000000000003,79.50000000000001 C 44.00000000000003,79.70000000000002 44.10000000000003,79.80000000000001 44.200000000000024,79.90000000000002 C 44.300000000000026,80.00000000000001 44.40000000000003,80.10000000000002 44.40000000000003,80.30000000000003 C 44.40000000000003,80.40000000000002 44.50000000000003,80.50000000000003 44.50000000000003,80.60000000000002 C 44.60000000000003,80.80000000000003 44.70000000000003,81.00000000000003 44.800000000000026,81.20000000000002 C 44.90000000000003,81.40000000000002 45.00000000000003,81.60000000000002 45.200000000000024,81.80000000000001 C 45.200000000000024,81.9 45.300000000000026,82.00000000000001 45.300000000000026,82.20000000000002 C 45.50000000000003,82.40000000000002 45.60000000000002,82.60000000000002 45.800000000000026,82.80000000000001 C 45.90000000000003,83.00000000000001 46.00000000000003,83.20000000000002 46.00000000000003,83.4 C 46.10000000000003,83.60000000000001 46.00000000000003,83.9 46.00000000000003,84.10000000000001 C 46.00000000000003,84.4 46.00000000000003,84.7 46.00000000000003,85.00000000000001 C 46.00000000000003,85.20000000000002 46.00000000000003,85.40000000000002 46.00000000000003,85.60000000000001 C 46.00000000000003,85.7 46.10000000000003,85.9 46.20000000000003,86.00000000000001 C 46.30000000000003,86.20000000000002 46.400000000000034,86.40000000000002 46.50000000000003,86.60000000000001 C 46.60000000000003,86.80000000000001 46.40000000000003,87.00000000000001 46.50000000000003,87.2 C 46.50000000000003,87.4 46.50000000000003,87.60000000000001 46.60000000000003,87.8 C 46.60000000000003,87.89999999999999 46.70000000000003,88.0 46.70000000000003,88.1 C 46.70000000000003,88.19999999999999 46.60000000000003,88.3 46.70000000000003,88.3 C 46.80000000000003,88.39999999999999 46.80000000000003,88.6 46.900000000000034,88.8 C 46.900000000000034,89.0 46.900000000000034,89.1 47.000000000000036,89.3 C 47.000000000000036,89.5 47.000000000000036,89.7 47.10000000000004,89.8 C 47.20000000000004,90.0 47.400000000000034,90.1 47.500000000000036,90.3 C 47.60000000000004,90.5 47.70000000000004,90.7 47.80000000000003,90.8 C 47.900000000000034,90.89999999999999 48.000000000000036,91.0 48.10000000000003,91.0 C 48.20000000000003,91.1 48.30000000000003,91.3 48.50000000000003,91.4 C 48.60000000000003,91.4 48.70000000000003,91.4 48.70000000000003,91.5 C 48.70000000000003,91.6 48.70000000000003,91.7 48.70000000000003,91.7 C 48.80000000000003,91.8 48.900000000000034,91.9 49.00000000000003,92.10000000000001 C 49.10000000000003,92.4 49.20000000000003,92.60000000000001 49.300000000000026,92.80000000000001 C 49.40000000000003,93.20000000000002 49.50000000000003,93.50000000000001 49.700000000000024,93.80000000000001 C 49.800000000000026,94.00000000000001 49.800000000000026,94.10000000000001 50.00000000000002,94.20000000000002 C 50.10000000000002,94.30000000000001 50.10000000000002,94.50000000000001 50.200000000000024,94.70000000000002 C 50.300000000000026,94.90000000000002 50.40000000000003,95.00000000000001 50.50000000000002,95.20000000000002 C 50.60000000000002,95.40000000000002 50.80000000000002,95.60000000000002 50.90000000000002,95.80000000000001 C 50.90000000000002,95.9 50.90000000000002,96.10000000000001 50.90000000000002,96.20000000000002 C 50.90000000000002,96.40000000000002 50.90000000000002,96.50000000000001 50.90000000000002,96.70000000000002 C 50.80000000000002,96.80000000000001 50.80000000000002,96.90000000000002 50.70000000000002,97.00000000000001 C 50.600000000000016,97.00000000000001 50.500000000000014,96.90000000000002 50.40000000000002,96.90000000000002 C 50.30000000000002,97.00000000000001 50.30000000000002,97.10000000000002 50.30000000000002,97.20000000000002 C 50.30000000000002,97.30000000000001 50.40000000000002,97.30000000000001 50.40000000000002,97.40000000000002 C 50.50000000000002,97.40000000000002 50.50000000000002,97.60000000000002 50.50000000000002,97.60000000000002 C 50.40000000000002,97.60000000000002 50.60000000000002,97.70000000000002 50.60000000000002,97.80000000000003 C 50.60000000000002,97.90000000000002 50.700000000000024,97.90000000000002 50.800000000000026,98.00000000000003 C 50.90000000000003,98.10000000000002 51.00000000000003,98.30000000000003 51.10000000000002,98.40000000000003 C 51.10000000000002,98.50000000000003 51.10000000000002,98.60000000000004 51.10000000000002,98.60000000000004 C 51.00000000000002,98.70000000000003 51.00000000000002,98.90000000000003 51.00000000000002,99.10000000000004 C 51.00000000000002,99.10000000000004 51.10000000000002,99.30000000000004 51.10000000000002,99.30000000000004 C 51.10000000000002,99.20000000000005 51.10000000000002,99.10000000000004 51.10000000000002,99.10000000000004 C 51.10000000000002,99.00000000000004 51.200000000000024,98.90000000000003 51.300000000000026,98.90000000000003 C 51.40000000000003,98.90000000000003 51.50000000000003,98.90000000000003 51.60000000000002,98.90000000000003 C 51.60000000000002,99.00000000000003 51.60000000000002,99.20000000000003 51.60000000000002,99.30000000000004 C 51.700000000000024,99.40000000000003 51.800000000000026,99.40000000000003 51.800000000000026,99.30000000000004 C 51.90000000000003,99.30000000000004 52.00000000000003,99.30000000000004 52.10000000000002,99.30000000000004 C 52.200000000000024,99.40000000000003 52.200000000000024,99.40000000000003 52.200000000000024,99.50000000000004 C 52.200000000000024,99.60000000000004 52.300000000000026,99.60000000000004 52.40000000000003,99.60000000000004 C 52.50000000000003,99.70000000000003 52.60000000000003,99.60000000000004 52.700000000000024,99.70000000000003 C 52.800000000000026,99.70000000000003 53.00000000000002,99.70000000000003 53.10000000000002,99.70000000000003 C 53.200000000000024,99.70000000000003 53.300000000000026,99.70000000000003 53.300000000000026,99.60000000000004 C 53.40000000000003,99.50000000000004 53.40000000000003,99.50000000000004 53.50000000000003,99.40000000000003 C 53.60000000000003,99.40000000000003 53.800000000000026,99.40000000000003 53.90000000000003,99.40000000000003 C 54.00000000000003,99.30000000000004 54.00000000000003,99.30000000000004 54.10000000000003,99.30000000000004 C 54.30000000000003,99.30000000000004 54.40000000000003,99.30000000000004 54.60000000000003,99.40000000000003 C 54.70000000000003,99.30000000000004 54.70000000000003,99.30000000000004 54.80000000000003,99.30000000000004 C 55.000000000000036,99.30000000000004 55.10000000000003,99.40000000000003 55.30000000000003,99.30000000000004 C 55.30000000000003,99.20000000000005 55.30000000000003,99.10000000000004 55.400000000000034,99.10000000000004 C 55.500000000000036,99.10000000000004 55.70000000000003,99.00000000000004 55.80000000000003,98.90000000000003 C 56.000000000000036,98.90000000000003 56.30000000000003,98.80000000000004 56.500000000000036,98.90000000000003 C 56.60000000000004,98.90000000000003 56.80000000000003,99.00000000000003 56.900000000000034,99.00000000000003 C 57.000000000000036,99.00000000000003 57.10000000000004,99.00000000000003 57.10000000000004,98.90000000000003 C 57.20000000000004,98.80000000000004 57.20000000000004,98.80000000000004 57.30000000000004,98.80000000000004 C 57.50000000000004,98.80000000000004 57.70000000000004,98.80000000000004 57.90000000000004,98.90000000000003 C 58.100000000000044,99.00000000000003 58.40000000000004,99.00000000000003 58.600000000000044,99.10000000000004 C 58.700000000000045,99.10000000000004 58.80000000000005,99.10000000000004 58.90000000000004,99.10000000000004 C 59.00000000000004,99.00000000000004 59.00000000000004,98.90000000000003 59.100000000000044,98.80000000000004 C 59.200000000000045,98.80000000000004 59.40000000000004,98.80000000000004 59.50000000000004,98.80000000000004 C 59.700000000000045,98.90000000000003 59.80000000000004,98.90000000000003 60.00000000000004,98.90000000000003 C 60.00000000000004,98.80000000000004 60.00000000000004,98.70000000000003 60.00000000000004,98.60000000000004 C 59.90000000000004,98.50000000000004 60.00000000000004,98.50000000000004 60.100000000000044,98.40000000000003 C 60.30000000000005,98.30000000000004 60.50000000000004,98.30000000000004 60.700000000000045,98.40000000000003 C 60.90000000000005,98.40000000000003 61.100000000000044,98.50000000000003 61.30000000000005,98.40000000000003 C 61.80000000000005,98.30000000000004 62.200000000000045,98.00000000000003 62.600000000000044,97.70000000000003 C 62.80000000000005,97.60000000000004 63.00000000000004,97.40000000000003 63.200000000000045,97.20000000000003 C 63.40000000000005,97.00000000000003 63.600000000000044,97.00000000000003 63.80000000000005,96.80000000000003 C 64.00000000000004,96.60000000000002 64.20000000000005,96.50000000000003 64.30000000000004,96.30000000000003 C 64.50000000000004,96.10000000000002 64.70000000000005,95.80000000000003 64.90000000000003,95.60000000000002 C 65.20000000000003,95.40000000000002 65.40000000000003,95.20000000000002 65.70000000000003,95.00000000000003 C 65.90000000000003,94.80000000000003 66.00000000000003,94.60000000000002 66.20000000000003,94.40000000000003 C 66.30000000000003,94.30000000000004 66.50000000000003,94.10000000000004 66.50000000000003,94.00000000000003 C 66.70000000000003,93.80000000000003 66.80000000000003,93.50000000000003 67.00000000000003,93.30000000000003 C 67.10000000000002,93.20000000000003 67.20000000000003,93.10000000000002 67.20000000000003,92.90000000000002 C 67.20000000000003,92.80000000000003 67.30000000000003,92.70000000000002 67.40000000000003,92.60000000000002 C 67.50000000000003,92.40000000000002 67.70000000000003,92.30000000000003 67.80000000000004,92.20000000000002 C 67.90000000000003,92.10000000000002 68.00000000000004,92.10000000000002 68.20000000000005,92.00000000000001 C 68.30000000000004,91.90000000000002 68.50000000000004,91.80000000000001 68.60000000000005,91.70000000000002 C 68.80000000000005,91.60000000000002 68.90000000000005,91.50000000000001 69.00000000000006,91.30000000000001 C 69.10000000000005,91.10000000000001 69.10000000000005,90.80000000000001 69.20000000000006,90.60000000000001 C 69.30000000000005,90.50000000000001 69.40000000000006,90.30000000000001 69.40000000000006,90.2 C 69.50000000000006,90.10000000000001 69.40000000000006,89.9 69.50000000000006,89.8 C 69.60000000000005,89.7 69.70000000000006,89.5 69.70000000000006,89.39999999999999 C 69.70000000000006,89.3 69.80000000000005,89.19999999999999 69.80000000000005,89.1 C 69.80000000000005,89.1 69.80000000000005,88.89999999999999 69.90000000000005,88.89999999999999 C 69.90000000000005,88.69999999999999 70.00000000000004,88.49999999999999 70.00000000000004,88.3 C 70.00000000000004,88.39999999999999 69.90000000000005,88.5 69.80000000000004,88.5 C 69.70000000000005,88.5 69.70000000000005,88.4 69.70000000000005,88.3 C 69.70000000000005,88.2 69.60000000000005,88.2 69.50000000000004,88.1 C 69.60000000000004,88.1 69.60000000000004,88.0 69.70000000000005,88.0 C 69.90000000000005,87.9 69.90000000000005,87.6 70.10000000000005,87.5 C 70.30000000000005,87.5 70.40000000000005,87.4 70.50000000000006,87.3 C 70.60000000000005,87.2 70.70000000000006,87.1 70.90000000000006,87.1 C 71.20000000000006,87.0 71.50000000000006,86.89999999999999 71.90000000000006,86.8 C 72.10000000000007,86.8 72.20000000000006,86.8 72.30000000000007,86.7 C 72.40000000000006,86.7 72.60000000000007,86.60000000000001 72.70000000000007,86.5 C 72.80000000000007,86.4 73.00000000000007,86.3 73.10000000000008,86.2 C 73.20000000000007,86.10000000000001 73.40000000000008,85.9 73.50000000000009,85.8 C 73.60000000000008,85.7 73.60000000000008,85.5 73.70000000000009,85.39999999999999 C 73.70000000000009,85.3 73.6000000000001,85.49999999999999 73.6000000000001,85.49999999999999 C 73.5000000000001,85.59999999999998 73.5000000000001,85.69999999999999 73.40000000000009,85.79999999999998 C 73.40000000000009,85.69999999999999 73.40000000000009,85.49999999999999 73.40000000000009,85.39999999999998 C 73.50000000000009,85.09999999999998 73.6000000000001,84.79999999999998 73.8000000000001,84.49999999999997 C 73.90000000000009,84.19999999999997 73.90000000000009,83.89999999999998 74.0000000000001,83.59999999999997 C 74.0000000000001,83.39999999999996 74.1000000000001,83.19999999999996 74.1000000000001,82.99999999999997 C 74.0000000000001,82.89999999999998 74.0000000000001,82.89999999999998 73.90000000000009,82.99999999999997 C 73.8000000000001,83.09999999999997 73.8000000000001,82.89999999999998 73.8000000000001,82.79999999999997 C 73.8000000000001,82.59999999999997 73.8000000000001,82.39999999999996 73.8000000000001,82.19999999999997 C 73.8000000000001,81.99999999999997 73.7000000000001,81.69999999999997 73.6000000000001,81.49999999999997 C 73.6000000000001,81.39999999999998 73.6000000000001,81.29999999999997 73.6000000000001,81.29999999999997 C 73.6000000000001,81.19999999999997 73.6000000000001,81.09999999999997 73.5000000000001,80.99999999999997 C 73.4000000000001,80.89999999999998 73.3000000000001,80.79999999999997 73.2000000000001,80.69999999999997 C 73.2000000000001,80.59999999999998 73.2000000000001,80.49999999999997 73.2000000000001,80.49999999999997 C 73.2000000000001,80.29999999999997 73.3000000000001,79.99999999999997 73.3000000000001,79.79999999999997 C 73.40000000000009,79.79999999999997 73.5000000000001,79.79999999999997 73.6000000000001,79.69999999999997 C 73.70000000000009,79.59999999999998 73.8000000000001,79.49999999999997 73.90000000000009,79.39999999999998 C 74.00000000000009,79.29999999999998 74.20000000000009,79.19999999999997 74.3000000000001,79.09999999999998 C 74.5000000000001,78.89999999999998 74.7000000000001,78.79999999999998 74.8000000000001,78.59999999999998 C 74.90000000000009,78.49999999999999 75.0000000000001,78.49999999999999 75.1000000000001,78.39999999999998 C 75.20000000000009,78.29999999999998 75.20000000000009,78.09999999999998 75.3000000000001,77.99999999999997 C 75.3000000000001,78.09999999999997 75.3000000000001,78.19999999999997 75.40000000000009,78.19999999999997 C 75.50000000000009,78.29999999999997 75.50000000000009,78.29999999999997 75.6000000000001,78.19999999999997 C 75.8000000000001,77.99999999999997 76.0000000000001,77.79999999999997 76.20000000000009,77.59999999999998 C 76.20000000000009,77.49999999999999 76.00000000000009,77.49999999999999 76.1000000000001,77.39999999999998 C 76.20000000000009,77.29999999999998 76.40000000000009,77.39999999999998 76.5000000000001,77.29999999999998 C 76.6000000000001,77.19999999999999 76.6000000000001,77.09999999999998 76.6000000000001,76.99999999999999 C 76.8000000000001,76.79999999999998 77.1000000000001,76.59999999999998 77.40000000000009,76.49999999999999 C 77.8000000000001,76.29999999999998 78.20000000000009,76.19999999999999 78.6000000000001,75.99999999999999 C 78.70000000000009,75.99999999999999 78.90000000000009,75.89999999999999 79.0000000000001,75.89999999999999 C 79.1000000000001,75.89999999999999 79.2000000000001,75.99999999999999 79.3000000000001,75.89999999999999 C 79.40000000000009,75.8 79.5000000000001,75.8 79.6000000000001,75.69999999999999 C 79.70000000000009,75.6 79.70000000000009,75.49999999999999 79.8000000000001,75.49999999999999 C 80.1000000000001,75.39999999999999 80.3000000000001,75.19999999999999 80.6000000000001,75.09999999999998 C 80.6000000000001,74.99999999999999 80.70000000000009,74.99999999999999 80.70000000000009,74.89999999999998 C 80.70000000000009,74.79999999999998 80.50000000000009,74.79999999999998 80.70000000000009,74.69999999999997 C 80.80000000000008,74.59999999999998 80.90000000000009,74.59999999999998 81.1000000000001,74.49999999999997 C 81.20000000000009,74.39999999999998 81.20000000000009,74.19999999999997 81.40000000000009,74.09999999999997 C 81.50000000000009,73.99999999999997 81.6000000000001,73.89999999999996 81.70000000000009,73.79999999999997 C 81.80000000000008,73.79999999999997 81.90000000000009,73.69999999999997 81.90000000000009,73.69999999999997 C 82.00000000000009,73.59999999999998 82.00000000000009,73.39999999999998 82.00000000000009,73.29999999999997 C 82.00000000000009,73.29999999999997 81.80000000000008,73.29999999999997 81.90000000000009,73.19999999999997 C 82.00000000000009,73.09999999999998 82.1000000000001,72.99999999999997 82.20000000000009,72.89999999999998 C 82.20000000000009,72.79999999999998 82.30000000000008,72.59999999999998 82.40000000000009,72.49999999999997 C 82.40000000000009,72.39999999999998 82.50000000000009,72.29999999999997 82.40000000000009,72.29999999999997 C 82.40000000000009,72.19999999999997 82.20000000000009,72.29999999999997 82.3000000000001,72.19999999999997 C 82.3000000000001,72.09999999999998 82.5000000000001,72.09999999999998 82.40000000000009,71.99999999999997 C 82.40000000000009,71.89999999999998 82.3000000000001,71.89999999999998 82.3000000000001,71.99999999999997 C 82.2000000000001,71.99999999999997 82.2000000000001,71.89999999999998 82.2000000000001,71.79999999999997 C 82.3000000000001,71.69999999999997 82.2000000000001,71.59999999999997 82.2000000000001,71.49999999999997 C 82.2000000000001,71.29999999999997 82.2000000000001,70.99999999999997 82.3000000000001,70.79999999999997 C 82.3000000000001,70.69999999999997 82.3000000000001,70.49999999999997 82.3000000000001,70.39999999999996 C 82.2000000000001,70.39999999999996 82.2000000000001,70.29999999999997 82.2000000000001,70.19999999999996 C 82.2000000000001,70.09999999999997 82.3000000000001,70.09999999999997 82.3000000000001,69.99999999999996 C 82.40000000000009,69.89999999999996 82.3000000000001,69.79999999999995 82.3000000000001,69.79999999999995 C 82.3000000000001,69.49999999999996 82.2000000000001,69.19999999999996 82.3000000000001,68.89999999999995 C 82.3000000000001,68.69999999999995 82.3000000000001,68.49999999999994 82.3000000000001,68.39999999999995 C 82.3000000000001,68.19999999999995 82.40000000000009,68.09999999999995 82.5000000000001,67.89999999999995 C 82.6000000000001,67.79999999999995 82.6000000000001,67.59999999999995 82.7000000000001,67.49999999999994 C 82.7000000000001,67.39999999999995 82.8000000000001,67.29999999999994 82.7000000000001,67.29999999999994 C 82.7000000000001,67.19999999999995 82.7000000000001,67.09999999999994 82.7000000000001,66.99999999999994 C 82.8000000000001,66.89999999999995 82.7000000000001,66.79999999999994 82.7000000000001,66.79999999999994 C 82.60000000000011,66.69999999999995 82.60000000000011,66.59999999999994 82.5000000000001,66.49999999999994 C 82.4000000000001,66.39999999999995 82.3000000000001,66.39999999999995 82.2000000000001,66.39999999999995 C 82.2000000000001,66.29999999999995 82.10000000000011,66.19999999999995 82.10000000000011,66.09999999999995 C 82.00000000000011,66.09999999999995 81.9000000000001,65.99999999999996 81.9000000000001,65.89999999999995 C 81.9000000000001,65.79999999999995 81.9000000000001,65.69999999999995 81.9000000000001,65.59999999999995 C 81.9000000000001,65.49999999999996 81.9000000000001,65.39999999999995 81.9000000000001,65.29999999999995 C 81.9000000000001,65.19999999999996 81.80000000000011,65.19999999999996 81.7000000000001,65.09999999999995 C 81.7000000000001,64.99999999999996 81.8000000000001,64.79999999999995 81.7000000000001,64.69999999999995 C 81.60000000000011,64.59999999999995 81.60000000000011,64.49999999999994 81.5000000000001,64.29999999999994 C 81.4000000000001,64.19999999999995 81.6000000000001,64.19999999999995 81.6000000000001,64.09999999999994 C 81.6000000000001,63.999999999999936 81.5000000000001,63.999999999999936 81.5000000000001,63.899999999999935 C 81.4000000000001,63.69999999999993 81.4000000000001,63.59999999999994 81.4000000000001,63.399999999999935 C 81.4000000000001,63.29999999999993 81.4000000000001,63.19999999999993 81.5000000000001,63.19999999999993 C 81.6000000000001,63.19999999999993 81.6000000000001,63.09999999999993 81.6000000000001,62.99999999999993 C 81.6000000000001,62.89999999999993 81.6000000000001,62.799999999999926 81.6000000000001,62.59999999999993 C 81.6000000000001,62.49999999999993 81.5000000000001,62.39999999999993 81.6000000000001,62.29999999999993 C 81.70000000000009,62.19999999999993 81.6000000000001,61.999999999999936 81.70000000000009,61.899999999999935 C 81.80000000000008,61.79999999999993 81.80000000000008,61.69999999999993 81.90000000000009,61.69999999999993 C 81.90000000000009,61.59999999999993 81.8000000000001,61.399999999999935 81.8000000000001,61.29999999999993 C 81.7000000000001,61.19999999999993 81.6000000000001,61.09999999999993 81.5000000000001,60.999999999999936 C 81.5000000000001,60.899999999999935 81.4000000000001,60.79999999999993 81.3000000000001,60.79999999999993 C 81.2000000000001,60.69999999999993 81.1000000000001,60.69999999999993 81.0000000000001,60.59999999999993 C 81.0000000000001,60.49999999999993 80.9000000000001,60.29999999999993 80.9000000000001,60.19999999999993 C 81.0000000000001,59.899999999999935 81.2000000000001,59.59999999999993 81.30000000000011,59.19999999999993 C 81.4000000000001,58.99999999999993 81.50000000000011,58.79999999999993 81.50000000000011,58.59999999999993 C 81.50000000000011,58.49999999999993 81.60000000000011,58.29999999999993 81.60000000000011,58.19999999999993 C 81.7000000000001,58.09999999999993 81.9000000000001,58.09999999999993 82.00000000000011,57.99999999999993 C 82.10000000000011,57.799999999999926 82.30000000000011,57.59999999999993 82.30000000000011,57.299999999999926 C 82.4000000000001,57.09999999999992 82.50000000000011,56.89999999999993 82.60000000000011,56.799999999999926 C 82.7000000000001,56.59999999999992 82.9000000000001,56.299999999999926 83.00000000000011,56.09999999999992 C 83.00000000000011,55.89999999999992 83.00000000000011,55.799999999999926 83.10000000000011,55.59999999999992 C 83.2000000000001,55.49999999999992 83.2000000000001,55.39999999999992 83.30000000000011,55.299999999999926 C 83.50000000000011,55.199999999999925 83.70000000000012,55.09999999999992 83.9000000000001,54.99999999999993 C 83.9000000000001,54.89999999999993 83.9000000000001,54.799999999999926 84.0000000000001,54.69999999999993 C 84.1000000000001,54.59999999999993 84.1000000000001,54.49999999999993 84.2000000000001,54.399999999999935 C 84.4000000000001,54.399999999999935 84.60000000000011,54.399999999999935 84.7000000000001,54.29999999999993 C 84.8000000000001,54.19999999999993 84.9000000000001,54.09999999999993 85.0000000000001,53.999999999999936 C 85.1000000000001,53.899999999999935 85.1000000000001,53.69999999999994 85.2000000000001,53.59999999999994 C 85.2000000000001,53.499999999999936 85.3000000000001,53.499999999999936 85.4000000000001,53.399999999999935 C 85.60000000000011,52.999999999999936 85.9000000000001,52.69999999999993 86.2000000000001,52.399999999999935 C 86.2000000000001,52.29999999999993 86.2000000000001,52.19999999999993 86.3000000000001,52.09999999999994 C 86.40000000000009,52.09999999999994 86.5000000000001,52.09999999999994 86.40000000000009,51.999999999999936 C 86.40000000000009,51.79999999999993 86.20000000000009,51.999999999999936 86.3000000000001,51.999999999999936 C 86.3000000000001,51.999999999999936 86.40000000000009,51.79999999999993 86.40000000000009,51.899999999999935 C 86.40000000000009,51.899999999999935 86.50000000000009,51.79999999999993 86.6000000000001,51.79999999999993 C 86.70000000000009,51.79999999999993 86.70000000000009,51.79999999999993 86.8000000000001,51.69999999999993 C 87.0000000000001,51.399999999999935 87.2000000000001,51.09999999999993 87.5000000000001,50.79999999999993 C 87.7000000000001,50.59999999999993 87.9000000000001,50.399999999999935 88.0000000000001,50.29999999999993 C 88.1000000000001,50.19999999999993 88.3000000000001,49.999999999999936 88.4000000000001,49.899999999999935 C 88.5000000000001,49.79999999999993 88.60000000000011,49.59999999999994 88.7000000000001,49.59999999999994 C 89.0000000000001,49.399999999999935 89.2000000000001,49.09999999999994 89.5000000000001,48.999999999999936 C 89.6000000000001,48.899999999999935 89.8000000000001,48.899999999999935 89.9000000000001,48.899999999999935 C 90.2000000000001,48.69999999999993 90.5000000000001,48.499999999999936 90.7000000000001,48.29999999999993 C 90.9000000000001,48.09999999999993 91.0000000000001,47.999999999999936 91.2000000000001,47.79999999999993 C 91.3000000000001,47.69999999999993 91.3000000000001,47.59999999999993 91.4000000000001,47.499999999999936 C 91.5000000000001,47.399999999999935 91.60000000000011,47.29999999999993 91.80000000000011,47.19999999999994 C 92.00000000000011,47.09999999999994 92.10000000000011,46.89999999999994 92.30000000000011,46.69999999999994 C 92.4000000000001,46.59999999999994 92.4000000000001,46.39999999999994 92.60000000000011,46.29999999999994 C 92.80000000000011,46.09999999999994 93.00000000000011,45.89999999999994 93.10000000000011,45.69999999999994 C 93.2000000000001,45.499999999999936 93.4000000000001,45.29999999999994 93.50000000000011,45.09999999999994 C 93.60000000000011,44.899999999999935 93.70000000000012,44.59999999999994 93.70000000000012,44.399999999999935 C 93.90000000000012,44.19999999999993 94.10000000000012,43.899999999999935 94.30000000000011,43.69999999999993 C 94.4000000000001,43.59999999999993 94.50000000000011,43.49999999999993 94.60000000000011,43.399999999999935 C 94.7000000000001,43.19999999999993 94.80000000000011,43.09999999999994 94.80000000000011,42.899999999999935 C 94.9000000000001,42.69999999999993 94.9000000000001,42.399999999999935 94.9000000000001,42.19999999999993 C 94.9000000000001,41.99999999999993 94.9000000000001,42.29999999999993 94.9000000000001,42.19999999999993 C 95.0000000000001,41.899999999999935 95.2000000000001,41.59999999999993 95.30000000000011,41.29999999999993 C 95.4000000000001,40.999999999999936 95.50000000000011,40.79999999999993 95.60000000000011,40.499999999999936 C 95.7000000000001,40.29999999999993 95.60000000000011,40.19999999999994 95.7000000000001,39.999999999999936 C 95.7000000000001,39.899999999999935 95.8000000000001,39.79999999999993 95.9000000000001,39.69999999999994 C 96.0000000000001,39.69999999999994 96.0000000000001,39.59999999999994 96.0000000000001,39.499999999999936 C 96.0000000000001,39.399999999999935 96.1000000000001,39.29999999999993 96.2000000000001,39.19999999999994 C 96.3000000000001,39.09999999999994 96.3000000000001,38.999999999999936 96.3000000000001,38.89999999999994 C 96.3000000000001,38.79999999999994 96.3000000000001,38.69999999999994 96.40000000000009,38.599999999999945 C 96.50000000000009,38.49999999999994 96.50000000000009,38.49999999999994 96.6000000000001,38.39999999999994 C 96.70000000000009,38.19999999999994 96.70000000000009,38.099999999999945 96.70000000000009,37.89999999999994 C 96.70000000000009,37.69999999999994 96.70000000000009,37.49999999999994 96.70000000000009,37.39999999999994 C 96.70000000000009,37.19999999999994 96.70000000000009,36.99999999999994 96.80000000000008,36.79999999999994 C 96.80000000000008,36.69999999999994 96.90000000000008,36.59999999999994 96.90000000000008,36.59999999999994 C 97.00000000000007,36.499999999999936 97.20000000000007,36.499999999999936 97.30000000000008,36.499999999999936 C 97.20000000000009,36.499999999999936 97.20000000000009,36.29999999999993 97.10000000000008,36.399999999999935 C 97.00000000000009,36.499999999999936 97.00000000000009,36.29999999999993 97.00000000000009,36.19999999999993 C 97.00000000000009,35.99999999999993 97.00000000000009,35.79999999999993 96.90000000000009,35.59999999999993 C 96.8000000000001,35.39999999999993 96.70000000000009,35.29999999999993 96.8000000000001,35.09999999999993 C 96.8000000000001,34.99999999999993 96.8000000000001,34.89999999999993 96.90000000000009,34.79999999999993 C 97.00000000000009,34.69999999999993 96.90000000000009,34.69999999999993 96.90000000000009,34.59999999999993 C 96.90000000000009,34.49999999999993 96.8000000000001,34.49999999999993 96.70000000000009,34.39999999999993 C 96.6000000000001,34.299999999999926 96.40000000000009,34.39999999999993 96.30000000000008,34.299999999999926 C 96.20000000000009,34.199999999999925 96.20000000000009,34.39999999999993 96.10000000000008,34.39999999999993 C 96.00000000000009,34.39999999999993 95.90000000000008,34.39999999999993 95.90000000000008,34.49999999999993 C 95.80000000000008,34.59999999999993 95.80000000000008,34.799999999999926 95.70000000000007,34.89999999999993 C 95.60000000000008,34.99999999999993 95.60000000000008,34.99999999999993 95.50000000000007,35.09999999999993 C 95.30000000000007,35.19999999999993 95.00000000000007,35.19999999999993 94.80000000000007,35.29999999999993 C 94.70000000000007,35.29999999999993 94.60000000000007,35.499999999999936 94.40000000000006,35.499999999999936 C 94.20000000000006,35.59999999999994 93.90000000000006,35.59999999999994 93.70000000000006,35.59999999999994 C 93.60000000000007,35.59999999999994 93.50000000000006,35.499999999999936 93.50000000000006,35.59999999999994 C 93.40000000000006,35.79999999999994 93.20000000000006,36.09999999999994 93.10000000000005,36.29999999999994 C 93.10000000000005,36.09999999999994 93.10000000000005,35.99999999999994 93.10000000000005,35.79999999999994 C 92.90000000000005,35.79999999999994 92.70000000000005,35.79999999999994 92.40000000000005,35.79999999999994 C 92.30000000000005,35.79999999999994 92.10000000000005,35.69999999999994 92.00000000000004,35.69999999999994 C 91.90000000000005,35.79999999999994 91.70000000000005,35.89999999999994 91.60000000000004,35.999999999999936 C 91.40000000000003,36.19999999999994 91.20000000000003,36.399999999999935 91.10000000000004,36.59999999999994 C 90.90000000000003,36.59999999999994 90.70000000000003,36.59999999999994 90.50000000000004,36.59999999999994 C 89.5,36.0 89.3,36.0 89.0,35.9 C 88.8,36.1 88.5,36.3 88.3,36.4 C 88.2,36.5 88.1,36.6 88.0,36.6 C 87.8,36.6 87.7,36.7 87.5,36.6 C 87.3,36.6 87.1,36.5 86.9,36.4 C 86.80000000000001,36.3 86.7,36.3 86.60000000000001,36.199999999999996 C 86.4,35.99999999999999 86.10000000000001,35.699999999999996 86.00000000000001,35.4 C 85.90000000000002,35.3 85.80000000000001,35.1 85.60000000000001,35.1 C 85.50000000000001,35.1 85.4,34.9 85.50000000000001,35.1 C 85.40000000000002,35.1 85.40000000000002,35.0 85.20000000000002,35.0 C 85.00000000000001,35.0 84.80000000000001,35.1 84.70000000000002,35.1 C 84.70000000000002,35.0 84.70000000000002,34.9 84.80000000000001,34.9 C 84.9,34.8 84.9,34.699999999999996 85.00000000000001,34.699999999999996 C 85.20000000000002,34.599999999999994 85.40000000000002,34.4 85.60000000000001,34.3 C 85.7,34.3 85.7,34.199999999999996 85.7,34.099999999999994 C 85.7,33.99999999999999 85.60000000000001,33.89999999999999 85.60000000000001,33.8 C 85.4,33.599999999999994 85.30000000000001,33.4 85.2,33.199999999999996 C 85.10000000000001,33.199999999999996 85.0,33.199999999999996 84.9,33.099999999999994 C 84.80000000000001,32.99999999999999 84.7,32.8 84.60000000000001,32.699999999999996 C 84.4,32.599999999999994 84.30000000000001,32.49999999999999 84.2,32.3 C 84.10000000000001,32.099999999999994 83.8,31.999999999999996 83.60000000000001,31.799999999999997 C 83.50000000000001,31.699999999999996 83.30000000000001,31.699999999999996 83.2,31.499999999999996 C 83.0,31.299999999999997 82.8,30.999999999999996 82.60000000000001,30.699999999999996 C 82.50000000000001,30.599999999999994 82.30000000000001,30.499999999999996 82.2,30.499999999999996 C 82.10000000000001,30.499999999999996 82.0,30.399999999999995 81.8,30.399999999999995 C 81.8,30.299999999999994 81.8,30.199999999999996 81.7,30.199999999999996 C 81.60000000000001,30.099999999999994 81.5,30.099999999999994 81.4,30.099999999999994 C 81.30000000000001,30.099999999999994 81.2,30.099999999999994 81.10000000000001,30.099999999999994 C 81.00000000000001,30.099999999999994 81.00000000000001,29.999999999999993 80.9,29.899999999999995 C 80.80000000000001,29.699999999999996 80.7,29.599999999999994 80.60000000000001,29.399999999999995 C 80.60000000000001,29.499999999999996 80.50000000000001,29.599999999999994 80.50000000000001,29.699999999999996 C 80.50000000000001,29.799999999999997 80.50000000000001,29.899999999999995 80.50000000000001,29.999999999999996 C 80.40000000000002,29.799999999999997 80.20000000000002,29.599999999999998 80.00000000000001,29.399999999999995 C 79.90000000000002,29.199999999999996 79.80000000000001,29.099999999999994 79.70000000000002,28.899999999999995 C 79.60000000000002,28.499999999999996 79.50000000000001,28.099999999999994 79.40000000000002,27.699999999999996 C 79.30000000000003,27.499999999999996 79.20000000000002,27.299999999999997 79.20000000000002,27.099999999999994 C 79.10000000000002,26.899999999999995 79.10000000000002,26.699999999999996 79.00000000000001,26.499999999999993 C 78.90000000000002,26.299999999999994 78.70000000000002,26.099999999999994 78.60000000000001,25.89999999999999 C 78.60000000000001,25.79999999999999 78.50000000000001,25.79999999999999 78.4,25.79999999999999 C 78.30000000000001,25.69999999999999 78.30000000000001,25.59999999999999 78.30000000000001,25.59999999999999 C 78.20000000000002,25.699999999999992 78.20000000000002,25.49999999999999 78.10000000000001,25.49999999999999 C 78.00000000000001,25.59999999999999 78.00000000000001,25.49999999999999 77.9,25.399999999999988 C 77.9,25.299999999999986 77.80000000000001,25.19999999999999 77.7,25.19999999999999 C 77.60000000000001,25.099999999999987 77.5,25.099999999999987 77.3,25.099999999999987 C 77.2,24.999999999999986 77.0,24.999999999999986 76.89999999999999,24.899999999999988 C 76.8,24.799999999999986 76.69999999999999,24.69999999999999 76.69999999999999,24.599999999999987 C 76.6,24.299999999999986 76.49999999999999,23.999999999999986 76.39999999999999,23.599999999999987 C 76.3,23.19999999999999 76.3,22.799999999999986 76.19999999999999,22.299999999999986 C 76.19999999999999,22.099999999999987 76.1,21.799999999999986 76.1,21.599999999999987 C 76.19999999999999,21.599999999999987 76.1,21.499999999999986 76.1,21.499999999999986 C 76.0,21.399999999999984 75.8,21.199999999999985 75.69999999999999,21.099999999999987 C 75.6,20.899999999999988 75.6,20.799999999999986 75.6,20.599999999999987 C 75.6,20.499999999999986 75.6,20.399999999999988 75.5,20.299999999999986 C 75.4,20.199999999999985 75.3,20.099999999999987 75.2,19.999999999999986 C 75.10000000000001,19.899999999999984 75.0,19.899999999999984 74.9,19.799999999999986 C 74.80000000000001,19.699999999999985 74.7,19.599999999999987 74.60000000000001,19.499999999999986 C 74.50000000000001,19.399999999999984 74.30000000000001,19.399999999999984 74.10000000000001,19.299999999999986 C 74.00000000000001,19.199999999999985 73.9,18.999999999999986 73.80000000000001,18.899999999999988 C 73.80000000000001,18.799999999999986 73.70000000000002,18.599999999999987 73.60000000000001,18.49999999999999 C 73.60000000000001,18.399999999999988 73.60000000000001,18.19999999999999 73.50000000000001,18.09999999999999 C 73.50000000000001,17.99999999999999 73.40000000000002,17.89999999999999 73.50000000000001,17.89999999999999 C 73.50000000000001,17.79999999999999 73.60000000000001,17.89999999999999 73.70000000000002,17.89999999999999 C 73.80000000000001,17.89999999999999 73.90000000000002,17.999999999999993 73.80000000000001,17.89999999999999 C 73.70000000000002,17.79999999999999 73.60000000000001,17.79999999999999 73.50000000000001,17.699999999999992 C 73.30000000000001,17.499999999999993 73.00000000000001,17.299999999999994 72.80000000000001,16.999999999999993 C 72.70000000000002,16.799999999999994 72.60000000000001,16.599999999999994 72.4,16.499999999999993 C 72.2,16.299999999999994 72.10000000000001,15.999999999999993 72.0,15.799999999999994 C 71.9,15.699999999999994 71.8,15.499999999999993 71.7,15.399999999999993 C 71.5,15.199999999999994 71.5,14.999999999999993 71.3,14.799999999999994 C 71.2,14.599999999999994 71.1,14.499999999999993 71.0,14.299999999999994 C 70.9,13.999999999999993 70.8,13.699999999999994 70.7,13.399999999999993 C 70.5,13.299999999999994 70.4,13.099999999999993 70.3,12.999999999999993 C 70.2,12.799999999999994 70.2,12.599999999999993 70.2,12.499999999999993 C 70.2,12.399999999999993 70.10000000000001,12.399999999999993 70.0,12.399999999999993 C 69.8,12.199999999999994 69.6,11.999999999999993 69.4,11.799999999999994 C 69.2,11.599999999999994 69.10000000000001,11.299999999999994 68.9,11.099999999999994 C 68.80000000000001,10.799999999999994 68.60000000000001,10.599999999999994 68.5,10.299999999999994 C 68.5,10.199999999999994 68.5,9.999999999999993 68.5,9.899999999999993 C 68.5,9.799999999999994 68.5,9.699999999999994 68.4,9.499999999999993 C 68.30000000000001,9.399999999999993 68.30000000000001,9.399999999999993 68.2,9.299999999999994 C 68.2,9.199999999999994 68.2,9.099999999999994 68.2,8.999999999999993 C 68.2,8.799999999999994 68.10000000000001,8.599999999999993 68.10000000000001,8.399999999999993 C 68.10000000000001,8.299999999999994 68.10000000000001,8.199999999999994 68.00000000000001,8.099999999999993 C 68.00000000000001,7.999999999999993 67.90000000000002,8.099999999999993 67.80000000000001,7.999999999999993 C 67.70000000000002,7.999999999999993 67.60000000000001,7.899999999999993 67.60000000000001,7.799999999999993 C 67.30000000000001,7.799999999999993 67.10000000000001,7.799999999999993 66.80000000000001,7.799999999999993 C 66.70000000000002,7.799999999999993 66.60000000000001,7.799999999999993 66.50000000000001,7.799999999999993 C 66.60000000000001,7.899999999999992 66.40000000000002,7.899999999999992 66.40000000000002,7.999999999999993 C 66.30000000000003,8.099999999999993 66.20000000000002,8.099999999999993 66.00000000000001,8.099999999999993 C 66.00000000000001,8.099999999999993 65.80000000000001,8.199999999999992 65.80000000000001,8.099999999999993 C 65.80000000000001,7.999999999999993 66.00000000000001,7.999999999999993 66.10000000000001,7.899999999999992 C 66.2,7.899999999999992 66.10000000000001,7.799999999999993 66.00000000000001,7.899999999999992 C 65.90000000000002,7.999999999999992 65.70000000000002,7.999999999999992 65.60000000000001,7.999999999999992 C 65.50000000000001,8.099999999999993 65.4,8.199999999999992 65.30000000000001,8.199999999999992 C 65.10000000000001,8.299999999999992 64.9,8.399999999999991 64.80000000000001,8.599999999999993 C 64.60000000000001,8.699999999999992 64.50000000000001,8.799999999999992 64.30000000000001,8.799999999999992 C 64.20000000000002,8.799999999999992 64.10000000000001,8.899999999999991 64.00000000000001,8.799999999999992 C 63.80000000000001,8.699999999999992 63.500000000000014,8.599999999999993 63.20000000000002,8.599999999999993 C 63.100000000000016,8.599999999999993 62.90000000000002,8.599999999999993 62.80000000000002,8.599999999999993 C 62.70000000000002,8.499999999999993 62.600000000000016,8.499999999999993 62.50000000000002,8.499999999999993 C 62.40000000000002,8.499999999999993 62.200000000000024,8.499999999999993 62.10000000000002,8.399999999999993 C 62.00000000000002,8.299999999999994 61.800000000000026,8.199999999999994 61.700000000000024,8.199999999999994 C 61.50000000000002,8.099999999999994 61.300000000000026,8.099999999999994 61.10000000000002,8.099999999999994 C 60.90000000000002,8.099999999999994 60.700000000000024,8.099999999999994 60.40000000000002,7.999999999999995 C 60.20000000000002,7.999999999999995 60.10000000000002,7.899999999999995 59.90000000000002,7.999999999999995 C 59.70000000000002,7.999999999999995 59.50000000000002,8.099999999999994 59.30000000000002,8.099999999999994 C 59.20000000000002,8.099999999999994 59.100000000000016,8.099999999999994 59.100000000000016,7.999999999999995 C 59.000000000000014,7.899999999999995 59.000000000000014,7.7999999999999945 58.90000000000001,7.699999999999995 C 58.80000000000001,7.599999999999995 58.70000000000001,7.599999999999995 58.600000000000016,7.599999999999995 C 58.40000000000001,7.599999999999995 58.20000000000002,7.599999999999995 58.000000000000014,7.599999999999995 C 57.80000000000001,7.599999999999995 57.600000000000016,7.399999999999995 57.40000000000001,7.399999999999995 C 57.20000000000001,7.399999999999995 57.100000000000016,7.299999999999995 56.90000000000001,7.299999999999995 C 56.80000000000001,7.399999999999995 56.600000000000016,7.199999999999996 56.500000000000014,7.199999999999996 C 56.40000000000001,7.199999999999996 56.40000000000001,6.999999999999996 56.40000000000001,6.999999999999996 C 56.500000000000014,6.999999999999996 56.40000000000001,6.899999999999996 56.40000000000001,6.799999999999995 C 56.40000000000001,6.699999999999996 56.30000000000001,6.699999999999996 56.20000000000001,6.699999999999996 C 56.10000000000001,6.699999999999996 56.00000000000001,6.699999999999996 55.90000000000001,6.599999999999996 C 55.70000000000001,6.4999999999999964 55.40000000000001,6.4999999999999964 55.20000000000001,6.399999999999996 C 55.00000000000001,6.399999999999996 54.70000000000001,6.399999999999996 54.50000000000001,6.399999999999996 C 54.400000000000006,6.499999999999996 54.20000000000001,6.499999999999996 54.10000000000001,6.499999999999996 C 54.00000000000001,6.499999999999996 53.900000000000006,6.499999999999996 53.80000000000001,6.599999999999995 C 53.60000000000001,6.699999999999995 53.40000000000001,6.899999999999995 53.20000000000001,6.999999999999996 C 53.00000000000001,7.099999999999995 52.90000000000001,7.299999999999995 52.70000000000001,7.499999999999996 C 52.60000000000001,7.699999999999996 52.60000000000001,7.899999999999996 52.70000000000001,8.099999999999996 C 52.80000000000001,8.199999999999996 52.90000000000001,8.299999999999995 52.80000000000001,8.399999999999997 C 52.80000000000001,8.499999999999996 52.90000000000001,8.699999999999998 52.90000000000001,8.799999999999997 C 52.90000000000001,8.899999999999997 52.90000000000001,8.999999999999996 52.80000000000001,8.999999999999996 C 52.70000000000001,9.099999999999996 52.70000000000001,9.299999999999997 52.60000000000001,9.399999999999997 C 52.50000000000001,9.499999999999996 52.400000000000006,9.599999999999996 52.20000000000001,9.699999999999998 C 52.10000000000001,9.799999999999997 51.90000000000001,9.799999999999997 51.70000000000001,9.899999999999997 C 51.60000000000001,9.899999999999997 51.50000000000001,9.899999999999997 51.40000000000001,9.899999999999997 C 51.20000000000001,9.799999999999997 51.100000000000016,9.799999999999997 50.90000000000001,9.699999999999998 C 50.70000000000001,9.599999999999998 50.600000000000016,9.499999999999998 50.500000000000014,9.299999999999997 C 50.40000000000001,9.199999999999998 50.30000000000001,9.199999999999998 50.100000000000016,9.199999999999998 C 49.90000000000001,9.099999999999998 49.70000000000002,8.999999999999998 49.500000000000014,8.899999999999997 C 49.20000000000002,8.799999999999997 48.90000000000001,8.699999999999998 48.600000000000016,8.699999999999998 C 48.40000000000001,8.699999999999998 48.100000000000016,8.699999999999998 47.90000000000001,8.699999999999998 C 47.70000000000001,8.599999999999998 47.600000000000016,8.599999999999998 47.40000000000001,8.499999999999998 C 47.20000000000001,8.299999999999999 47.100000000000016,8.199999999999998 46.90000000000001,7.999999999999998 C 46.90000000000001,7.899999999999999 46.80000000000001,7.899999999999999 46.80000000000001,7.799999999999998 C 46.80000000000001,7.599999999999998 46.80000000000001,7.499999999999998 46.70000000000001,7.399999999999998 C 46.60000000000001,7.299999999999998 46.50000000000001,7.299999999999998 46.40000000000001,7.1999999999999975 C 46.20000000000001,7.099999999999998 46.000000000000014,7.099999999999998 45.80000000000001,6.999999999999997 C 45.60000000000001,6.899999999999998 45.40000000000001,6.799999999999997 45.30000000000001,6.799999999999997 C 45.10000000000001,6.6999999999999975 44.90000000000001,6.6999999999999975 44.70000000000001,6.6999999999999975 C 44.50000000000001,6.6999999999999975 44.40000000000001,6.599999999999998 44.20000000000001,6.599999999999998 C 44.10000000000001,6.599999999999998 43.90000000000001,6.599999999999998 43.80000000000001,6.599999999999998 C 43.70000000000001,6.599999999999998 43.500000000000014,6.6999999999999975 43.40000000000001,6.6999999999999975 C 43.20000000000001,6.6999999999999975 43.100000000000016,6.6999999999999975 42.90000000000001,6.599999999999998 C 42.70000000000001,6.499999999999998 42.40000000000001,6.399999999999998 42.20000000000001,6.299999999999998 C 42.10000000000001,6.199999999999998 41.90000000000001,6.199999999999998 41.80000000000001,6.099999999999998 C 41.70000000000001,6.099999999999998 41.60000000000001,6.099999999999998 41.60000000000001,6.099999999999998 C 41.50000000000001,5.999999999999998 41.50000000000001,5.999999999999998 41.50000000000001,5.899999999999998 C 41.50000000000001,5.799999999999998 41.400000000000006,5.6999999999999975 41.400000000000006,5.599999999999998 C 41.300000000000004,5.599999999999998 41.2,5.6999999999999975 41.10000000000001,5.6999999999999975 C 41.00000000000001,5.599999999999998 41.00000000000001,5.599999999999998 40.900000000000006,5.499999999999997 C 40.7,5.599999999999997 40.50000000000001,5.499999999999997 40.400000000000006,5.399999999999998 C 40.300000000000004,5.399999999999998 40.2,5.299999999999998 40.2,5.1999999999999975 C 40.2,5.099999999999998 40.1,4.999999999999997 40.2,4.899999999999998 C 40.2,4.799999999999998 40.300000000000004,4.899999999999998 40.400000000000006,4.899999999999998 C 40.50000000000001,4.999999999999997 40.50000000000001,4.799999999999998 40.50000000000001,4.799999999999998 C 40.50000000000001,4.699999999999998 40.50000000000001,4.599999999999998 40.60000000000001,4.599999999999998 C 40.70000000000001,4.599999999999998 40.80000000000001,4.499999999999998 40.900000000000006,4.399999999999998 C 41.10000000000001,4.299999999999998 41.300000000000004,4.1999999999999975 41.400000000000006,3.999999999999998 C 41.9,3.4 42.0,3.2 42.0,3.0 C 42.0,2.9 42.1,2.9 42.1,2.8 C 42.0,2.6999999999999997 42.0,2.5 42.0,2.4 C 41.9,2.3 41.8,2.3 41.8,2.1999999999999997 C 41.8,2.0 41.7,2.0 41.6,2.0 C 41.5,2.0 41.5,1.9 41.5,1.8 C 41.5,1.7 41.4,1.5 41.5,1.4 C 41.5,1.2999999999999998 41.5,1.2 41.6,1.2 C 41.7,1.0999999999999999 41.800000000000004,1.0999999999999999 42.0,1.0 C 42.1,0.8 42.2,0.7 42.3,0.6 C 42.3,0.5 42.199999999999996,0.39999999999999997 42.199999999999996,0.39999999999999997 C 42.099999999999994,0.39999999999999997 41.99999999999999,0.39999999999999997 41.99999999999999,0.5 C 41.89999999999999,0.6 41.79999999999999,0.7 41.699999999999996,0.7 C 41.599999999999994,0.7 41.599999999999994,0.7999999999999999 41.49999999999999,0.7999999999999999 C 41.39999999999999,0.7999999999999999 41.29999999999999,0.7999999999999999 41.39999999999999,0.7 C 41.39999999999999,0.6 41.39999999999999,0.49999999999999994 41.39999999999999,0.49999999999999994 C 41.39999999999999,0.3999999999999999 41.29999999999999,0.29999999999999993 41.29999999999999,0.29999999999999993 C 40.9,0.1 40.7,0.0 40.6,0.0 L 40.6,0.0 M 70.6,7.5 C 70.5,7.6 70.39999999999999,7.7 70.3,7.8 C 70.2,7.9 70.0,7.9 69.9,8.0 C 69.80000000000001,8.0 69.60000000000001,8.0 69.5,8.1 C 69.4,8.1 69.4,8.1 69.3,8.1 C 69.3,8.1 69.2,8.0 69.2,8.0 C 69.10000000000001,8.0 69.10000000000001,8.1 69.10000000000001,8.1 C 69.00000000000001,8.1 68.9,8.1 68.7,8.1 C 68.60000000000001,8.1 68.60000000000001,8.1 68.5,8.0 C 68.4,7.9 68.4,7.8 68.3,7.8 C 68.3,7.8 68.2,7.8 68.1,7.8 C 68.1,7.8 68.1,7.8999999999999995 68.19999999999999,7.8999999999999995 C 68.19999999999999,7.999999999999999 68.19999999999999,8.2 68.29999999999998,8.299999999999999 C 68.29999999999998,8.499999999999998 68.29999999999998,8.6 68.39999999999998,8.799999999999999 C 68.39999999999998,8.899999999999999 68.39999999999998,8.899999999999999 68.49999999999997,8.999999999999998 C 68.59999999999997,9.099999999999998 68.69999999999997,9.199999999999998 68.79999999999997,9.399999999999999 C 68.79999999999997,9.399999999999999 68.89999999999996,9.399999999999999 68.89999999999996,9.499999999999998 C 68.99999999999996,9.499999999999998 68.99999999999996,9.599999999999998 68.99999999999996,9.699999999999998 C 69.09999999999995,9.699999999999998 69.09999999999995,9.799999999999997 69.09999999999995,9.899999999999997 C 69.09999999999995,9.999999999999996 69.19999999999995,10.099999999999996 69.19999999999995,10.199999999999998 C 69.29999999999994,10.299999999999997 69.39999999999995,10.399999999999997 69.39999999999995,10.499999999999998 C 69.49999999999994,10.599999999999998 69.59999999999995,10.699999999999998 69.69999999999995,10.799999999999999 C 69.79999999999994,10.899999999999999 69.89999999999995,10.999999999999998 69.89999999999995,11.1 C 69.89999999999995,11.2 69.99999999999994,11.299999999999999 69.99999999999994,11.5 C 70.09999999999994,11.6 70.19999999999995,11.7 70.29999999999994,11.9 C 70.49999999999994,12.1 70.79999999999994,12.4 70.99999999999994,12.6 C 71.09999999999994,12.6 71.19999999999995,12.6 71.29999999999994,12.7 C 71.39999999999993,12.6 71.39999999999993,12.6 71.49999999999994,12.5 C 71.59999999999994,12.5 71.59999999999994,12.4 71.59999999999994,12.3 C 71.59999999999994,12.200000000000001 71.59999999999994,12.100000000000001 71.59999999999994,11.9 C 71.59999999999994,11.8 71.69999999999993,11.700000000000001 71.69999999999993,11.6 C 71.69999999999993,11.4 71.69999999999993,11.299999999999999 71.79999999999993,11.1 C 71.79999999999993,10.9 71.79999999999993,10.799999999999999 71.89999999999992,10.6 C 71.89999999999992,10.5 71.89999999999992,10.5 71.89999999999992,10.4 C 71.89999999999992,10.3 71.99999999999991,10.3 71.99999999999991,10.200000000000001 C 71.89999999999992,10.100000000000001 71.89999999999992,10.000000000000002 71.89999999999992,9.9 C 71.79999999999993,9.700000000000001 71.69999999999992,9.5 71.59999999999992,9.3 C 71.39999999999992,9.0 71.29999999999993,8.700000000000001 71.19999999999992,8.4 C 71.0,8.0 70.8,7.9 70.8,7.7 C 70.8,7.7 70.6,7.5 70.6,7.5 L 70.6,7.5 M 93.2,69.7 C 93.2,69.7 93.10000000000001,69.8 93.0,69.8 C 92.9,69.89999999999999 92.9,69.89999999999999 92.8,70.0 C 92.7,70.0 92.7,70.2 92.6,70.1 C 92.6,70.1 92.6,70.1 92.6,70.1 C 92.6,70.19999999999999 92.69999999999999,70.19999999999999 92.69999999999999,70.3 C 92.69999999999999,70.5 92.69999999999999,70.6 92.6,70.8 C 92.6,70.89999999999999 92.5,71.0 92.5,71.1 C 92.5,71.19999999999999 92.5,71.3 92.4,71.3 C 92.30000000000001,71.3 92.30000000000001,71.39999999999999 92.2,71.39999999999999 C 92.10000000000001,71.39999999999999 92.10000000000001,71.3 92.0,71.3 C 92.0,71.39999999999999 92.0,71.5 91.9,71.6 C 91.80000000000001,71.8 91.7,71.89999999999999 91.5,72.1 C 91.5,72.0 91.5,71.89999999999999 91.4,71.8 C 91.30000000000001,71.8 91.2,71.7 91.10000000000001,71.7 C 91.00000000000001,71.8 91.00000000000001,71.8 91.00000000000001,71.9 C 91.00000000000001,72.0 91.00000000000001,72.10000000000001 91.10000000000001,72.30000000000001 C 91.10000000000001,72.4 91.10000000000001,72.50000000000001 91.10000000000001,72.60000000000001 C 91.10000000000001,72.60000000000001 91.00000000000001,72.50000000000001 91.00000000000001,72.50000000000001 C 91.00000000000001,72.50000000000001 90.90000000000002,72.60000000000001 90.90000000000002,72.60000000000001 C 90.80000000000003,72.7 90.80000000000003,72.80000000000001 90.70000000000002,72.9 C 90.70000000000002,73.0 90.80000000000001,73.0 90.80000000000001,73.10000000000001 C 90.80000000000001,73.10000000000001 90.9,73.10000000000001 91.00000000000001,73.2 C 91.10000000000001,73.2 91.10000000000001,73.3 91.10000000000001,73.3 C 91.00000000000001,73.3 90.9,73.3 90.80000000000001,73.3 C 90.70000000000002,73.5 90.50000000000001,73.6 90.4,73.8 C 90.4,73.8 90.4,73.7 90.4,73.6 C 90.4,73.5 90.4,73.39999999999999 90.4,73.3 C 90.4,73.2 90.4,73.3 90.30000000000001,73.3 C 90.30000000000001,73.39999999999999 90.20000000000002,73.39999999999999 90.20000000000002,73.5 C 90.30000000000001,73.6 90.10000000000002,73.6 90.10000000000002,73.7 C 90.00000000000003,73.8 89.90000000000002,73.9 89.80000000000003,74.0 C 89.90000000000002,74.1 89.90000000000002,74.3 89.90000000000002,74.4 C 90.00000000000001,74.5 89.90000000000002,74.5 89.80000000000003,74.60000000000001 C 89.70000000000003,74.7 89.60000000000002,74.60000000000001 89.60000000000002,74.60000000000001 C 89.60000000000002,74.50000000000001 89.60000000000002,74.4 89.60000000000002,74.30000000000001 C 89.60000000000002,74.20000000000002 89.50000000000003,74.20000000000002 89.40000000000002,74.20000000000002 C 89.30000000000003,74.30000000000001 89.20000000000002,74.30000000000001 89.10000000000002,74.40000000000002 C 89.00000000000003,74.50000000000001 88.90000000000002,74.60000000000002 88.90000000000002,74.60000000000002 C 88.80000000000003,74.70000000000002 88.80000000000003,74.80000000000003 88.80000000000003,74.80000000000003 C 88.80000000000003,74.90000000000002 88.90000000000002,74.90000000000002 88.90000000000002,75.00000000000003 C 88.90000000000002,75.10000000000002 89.00000000000001,75.10000000000002 89.00000000000001,75.20000000000003 C 89.00000000000001,75.30000000000003 89.10000000000001,75.40000000000003 88.90000000000002,75.40000000000003 C 88.80000000000003,75.40000000000003 88.70000000000002,75.40000000000003 88.60000000000002,75.40000000000003 C 88.60000000000002,75.30000000000004 88.50000000000003,75.30000000000004 88.40000000000002,75.20000000000003 C 88.40000000000002,75.10000000000004 88.40000000000002,75.00000000000003 88.30000000000003,75.00000000000003 C 88.20000000000003,74.90000000000003 88.10000000000002,75.00000000000003 88.10000000000002,75.10000000000002 C 88.00000000000003,75.20000000000002 88.00000000000003,75.10000000000002 87.90000000000002,75.00000000000003 C 87.80000000000003,75.00000000000003 87.70000000000002,75.00000000000003 87.70000000000002,75.10000000000002 C 87.70000000000002,75.20000000000002 87.70000000000002,75.30000000000003 87.60000000000002,75.30000000000003 C 87.60000000000002,75.40000000000002 87.50000000000003,75.40000000000002 87.40000000000002,75.30000000000003 C 87.30000000000003,75.20000000000003 87.30000000000003,75.40000000000002 87.20000000000002,75.40000000000002 C 87.10000000000002,75.40000000000002 87.10000000000002,75.30000000000003 87.10000000000002,75.20000000000002 C 87.00000000000003,75.20000000000002 87.00000000000003,75.30000000000001 86.90000000000002,75.30000000000001 C 86.80000000000003,75.30000000000001 86.80000000000003,75.4 86.70000000000002,75.50000000000001 C 86.60000000000002,75.50000000000001 86.60000000000002,75.50000000000001 86.50000000000001,75.50000000000001 C 86.40000000000002,75.50000000000001 86.30000000000001,75.50000000000001 86.30000000000001,75.50000000000001 C 86.20000000000002,75.40000000000002 86.10000000000001,75.50000000000001 86.10000000000001,75.60000000000001 C 86.00000000000001,75.7 86.10000000000001,75.7 86.00000000000001,75.80000000000001 C 86.00000000000001,75.9 86.00000000000001,76.00000000000001 86.00000000000001,76.00000000000001 C 85.90000000000002,76.20000000000002 85.80000000000001,76.40000000000002 85.70000000000002,76.70000000000002 C 85.60000000000002,76.90000000000002 85.50000000000001,77.00000000000001 85.40000000000002,77.20000000000002 C 85.40000000000002,77.30000000000001 85.20000000000002,77.40000000000002 85.30000000000003,77.40000000000002 C 85.40000000000002,77.50000000000001 85.40000000000002,77.60000000000002 85.50000000000003,77.80000000000003 C 85.50000000000003,78.00000000000003 85.50000000000003,78.20000000000003 85.40000000000003,78.30000000000003 C 85.40000000000003,78.50000000000003 85.40000000000003,78.60000000000002 85.40000000000003,78.80000000000003 C 85.40000000000003,79.10000000000002 85.40000000000003,79.30000000000003 85.50000000000003,79.60000000000002 C 85.50000000000003,79.70000000000002 85.60000000000002,79.80000000000003 85.60000000000002,79.90000000000002 C 85.60000000000002,80.00000000000001 85.70000000000002,80.10000000000002 85.70000000000002,80.20000000000002 C 85.70000000000002,80.30000000000001 85.70000000000002,80.40000000000002 85.60000000000002,80.40000000000002 C 85.60000000000002,80.50000000000001 85.60000000000002,80.60000000000002 85.60000000000002,80.70000000000002 C 85.50000000000003,80.80000000000001 85.50000000000003,80.90000000000002 85.40000000000002,81.00000000000001 C 85.30000000000003,81.10000000000001 85.30000000000003,81.10000000000001 85.20000000000002,81.20000000000002 C 85.10000000000002,81.30000000000001 85.00000000000001,81.40000000000002 85.00000000000001,81.50000000000001 C 84.90000000000002,81.70000000000002 84.80000000000001,81.90000000000002 84.60000000000001,82.00000000000001 C 84.50000000000001,82.20000000000002 84.4,82.40000000000002 84.30000000000001,82.60000000000001 C 84.20000000000002,82.7 84.10000000000001,82.60000000000001 84.10000000000001,82.7 C 84.00000000000001,82.8 83.9,83.0 83.80000000000001,83.10000000000001 C 83.80000000000001,83.2 83.70000000000002,83.30000000000001 83.70000000000002,83.30000000000001 C 83.70000000000002,83.4 83.60000000000002,83.4 83.60000000000002,83.50000000000001 C 83.60000000000002,83.70000000000002 83.50000000000003,83.90000000000002 83.50000000000003,84.00000000000001 C 83.50000000000003,84.20000000000002 83.50000000000003,84.40000000000002 83.40000000000003,84.60000000000001 C 83.40000000000003,84.7 83.40000000000003,84.80000000000001 83.50000000000003,84.9 C 83.50000000000003,85.0 83.60000000000002,85.10000000000001 83.60000000000002,85.10000000000001 C 84.0,85.0 84.0,85.0 84.0,85.1 C 84.1,85.3 84.1,85.5 84.1,85.69999999999999 C 84.1,85.79999999999998 84.0,85.89999999999999 84.0,85.99999999999999 C 84.0,86.09999999999998 83.9,86.29999999999998 83.9,86.39999999999999 C 83.9,86.49999999999999 83.9,86.69999999999999 83.9,86.8 C 83.9,86.89999999999999 83.9,87.0 84.0,87.2 C 84.1,87.3 84.1,87.5 84.2,87.60000000000001 C 84.2,87.7 84.2,87.7 84.3,87.80000000000001 C 84.39999999999999,87.9 84.5,88.00000000000001 84.6,88.10000000000001 C 84.8,88.2 84.89999999999999,88.30000000000001 85.1,88.50000000000001 C 85.19999999999999,88.60000000000001 85.39999999999999,88.70000000000002 85.5,88.90000000000002 C 85.6,88.90000000000002 85.7,88.90000000000002 85.8,88.90000000000002 C 85.89999999999999,88.80000000000003 86.1,88.80000000000003 86.2,88.70000000000002 C 86.3,88.60000000000002 86.5,88.60000000000002 86.60000000000001,88.50000000000001 C 86.80000000000001,88.50000000000001 87.00000000000001,88.40000000000002 87.2,88.40000000000002 C 87.3,88.40000000000002 87.4,88.30000000000003 87.5,88.40000000000002 C 87.6,88.50000000000001 87.7,88.40000000000002 87.8,88.40000000000002 C 87.89999999999999,88.40000000000002 88.0,88.30000000000003 88.1,88.20000000000002 C 88.19999999999999,88.20000000000002 88.19999999999999,88.10000000000002 88.3,88.00000000000001 C 88.39999999999999,87.80000000000001 88.5,87.70000000000002 88.6,87.50000000000001 C 88.69999999999999,87.30000000000001 88.8,87.10000000000001 89.0,86.90000000000002 C 89.1,86.70000000000002 89.1,86.60000000000002 89.2,86.40000000000002 C 89.3,86.20000000000002 89.3,86.10000000000002 89.4,85.90000000000002 C 89.5,85.70000000000002 89.60000000000001,85.50000000000001 89.60000000000001,85.40000000000002 C 89.7,85.00000000000001 89.9,84.70000000000002 90.10000000000001,84.30000000000003 C 90.2,84.10000000000002 90.30000000000001,83.90000000000002 90.4,83.70000000000003 C 90.5,83.40000000000003 90.60000000000001,83.20000000000003 90.7,82.90000000000003 C 90.8,82.70000000000003 90.9,82.40000000000003 91.0,82.10000000000004 C 91.1,81.90000000000003 91.2,81.70000000000003 91.3,81.60000000000004 C 91.39999999999999,81.40000000000003 91.5,81.20000000000003 91.6,81.00000000000004 C 91.69999999999999,80.80000000000004 91.8,80.60000000000004 91.8,80.40000000000005 C 91.8,80.30000000000005 91.89999999999999,80.20000000000005 92.0,80.10000000000005 C 92.0,80.00000000000006 92.0,79.90000000000005 92.1,79.90000000000005 C 92.19999999999999,79.70000000000005 92.3,79.50000000000004 92.39999999999999,79.20000000000005 C 92.49999999999999,78.90000000000005 92.6,78.60000000000005 92.69999999999999,78.30000000000004 C 92.79999999999998,78.10000000000004 92.79999999999998,77.90000000000003 92.79999999999998,77.70000000000005 C 92.79999999999998,77.50000000000004 92.89999999999998,77.30000000000004 92.89999999999998,77.00000000000004 C 92.99999999999997,76.90000000000005 92.99999999999997,76.80000000000004 93.09999999999998,76.70000000000005 C 93.19999999999997,76.60000000000005 93.19999999999997,76.50000000000004 93.29999999999998,76.40000000000005 C 93.39999999999998,76.30000000000005 93.39999999999998,76.20000000000005 93.39999999999998,76.10000000000005 C 93.39999999999998,76.00000000000006 93.39999999999998,75.80000000000005 93.49999999999997,75.70000000000005 C 93.49999999999997,75.60000000000005 93.39999999999998,75.50000000000004 93.39999999999998,75.40000000000005 C 93.39999999999998,75.30000000000005 93.39999999999998,75.10000000000005 93.39999999999998,75.00000000000004 C 93.39999999999998,74.80000000000004 93.49999999999997,74.60000000000004 93.59999999999998,74.40000000000005 C 93.59999999999998,74.30000000000005 93.69999999999997,74.40000000000005 93.79999999999998,74.40000000000005 C 93.79999999999998,74.40000000000005 93.79999999999998,74.50000000000004 93.79999999999998,74.60000000000005 C 93.79999999999998,74.80000000000005 93.89999999999998,74.90000000000005 93.89999999999998,75.10000000000005 C 93.89999999999998,75.20000000000005 93.99999999999997,75.10000000000005 94.09999999999998,75.10000000000005 C 94.09999999999998,75.00000000000006 94.19999999999997,74.90000000000005 94.19999999999997,74.80000000000005 C 94.19999999999997,74.70000000000006 94.29999999999997,74.50000000000006 94.29999999999997,74.40000000000005 C 94.29999999999997,74.30000000000005 94.29999999999997,74.10000000000005 94.29999999999997,74.00000000000004 C 94.29999999999997,73.90000000000005 94.19999999999997,73.70000000000005 94.19999999999997,73.60000000000004 C 94.19999999999997,73.40000000000003 94.19999999999997,73.20000000000003 94.19999999999997,73.00000000000004 C 94.19999999999997,72.80000000000004 94.19999999999997,72.60000000000004 94.19999999999997,72.50000000000004 C 94.19999999999997,72.30000000000004 94.19999999999997,72.10000000000004 94.19999999999997,72.00000000000004 C 94.19999999999997,71.80000000000004 94.09999999999998,71.70000000000005 94.09999999999998,71.50000000000004 C 94.09999999999998,71.30000000000004 94.09999999999998,71.10000000000004 94.09999999999998,71.00000000000004 C 94.09999999999998,70.90000000000005 93.99999999999999,70.80000000000004 93.99999999999999,70.70000000000005 C 93.99999999999999,70.60000000000005 93.89999999999999,70.60000000000005 93.79999999999998,70.50000000000004 C 93.69999999999999,70.40000000000005 93.59999999999998,70.20000000000005 93.49999999999999,70.00000000000004 C 93.4,69.8 93.3,69.8 93.2,69.7 C 93.2,69.7 93.2,69.7 93.2,69.7 L 93.2,69.7" fill="#ffffff" stroke="none" stroke-width="2.0" /></g></svg>