<?xml version="1.0" encoding="utf-8" ?>
<svg baseProfile="full" height="100px" version="1.1" width="150px" xmlns="http://www.w3.org/2000/svg" xmlns:ev="http://www.w3.org/2001/xml-events" xmlns:xlink="http://www.w3.org/1999/xlink"><defs><clipPath id="mask0"><rect height="100" width="150" x="0" y="0" /></clipPath></defs><g clip-path="url(#mask0)"><rect fill="#935316" height="14.285714285714286" stroke="none" width="150" x="0" y="0.0" /><rect fill="#ff0032" height="14.285714285714286" stroke="none" width="150" x="0" y="14.285714285714286" /><rect fill="#ff9932" height="14.285714285714286" stroke="none" width="150" x="0" y="28.571428571428573" /><rect fill="#ffce00" height="14.285714285714286" stroke="none" width="150" x="0" y="42.857142857142854" /><rect fill="#339933" height="14.285714285714286" stroke="none" width="150" x="0" y="57.142857142857146" /><rect fill="#003265" height="14.285714285714286" stroke="none" width="150" x="0" y="71.42857142857143" /><rect fill="#925394" height="14.285714285714286" stroke="none" width="150" x="0" y="85.71428571428571" /></g><g transform="translate(48.148790865460924, 23.14879086546092) scale(0.5370241826907816) rotate(0, 50.0, 50.0)"><path d="M 50.1,0.0 C 22.3,0.1 0.0,22.4 0.0,50.1 C 0.0,77.6 22.5,100.0 50.1,100.0 C 77.7,100.0 100.0,77.6 100.0,50.0 C 100.0,22.3 77.6,0.0 50.1,0.0 M 22.0,80.9 C 3.8,64.4 5.2,38.6 17.4,24.2 C 25.0,31.6 32.5,38.9 40.3,46.5 C 35.9,50.6 31.699999999999996,54.5 27.499999999999996,58.4 C 27.599999999999998,58.6 27.799999999999997,58.699999999999996 27.899999999999995,58.9 C 27.599999999999994,58.6 27.199999999999996,58.4 26.999999999999996,58.1 C 26.199999999999996,57.1 25.599999999999998,57.2 24.799999999999997,58.1 C 23.999999999999996,59.0 23.999999999999996,59.5 24.9,60.2 C 26.0,61.2 27.0,62.400000000000006 28.2,63.300000000000004 C 29.5,64.30000000000001 29.099999999999998,65.60000000000001 28.3,66.5 C 26.8,68.2 25.2,69.7 23.3,71.6 C 22.0,70.0 20.8,68.6 19.7,67.19999999999999 C 18.5,68.39999999999999 17.599999999999998,69.29999999999998 16.8,70.19999999999999 C 21.0,74.29999999999998 25.200000000000003,78.49999999999999 29.4,82.69999999999999 C 30.2,81.89999999999999 31.099999999999998,80.99999999999999 32.1,79.99999999999999 C 30.8,78.89999999999999 29.5,77.59999999999998 28.0,76.29999999999998 C 29.9,74.39999999999998 31.5,72.69999999999999 33.3,71.09999999999998 C 34.3,70.19999999999997 35.5,70.39999999999998 36.4,71.29999999999998 C 37.5,72.29999999999998 38.6,73.29999999999998 39.6,74.39999999999998 C 40.300000000000004,75.19999999999997 40.800000000000004,74.89999999999998 41.4,74.19999999999997 C 41.9,73.59999999999998 42.8,72.99999999999997 41.699999999999996,72.19999999999997 C 41.4,71.99999999999997 41.199999999999996,71.69999999999997 41.099999999999994,71.59999999999998 C 45.0,67.3 49.0,63.2 53.1,59.0 C 61.0,66.7 68.8,74.3 76.6,82.0 C 64.0,93.5 39.5,96.8 22.0,80.9 M 50.5,38.3 C 51.4,37.699999999999996 51.9,37.3 52.6,36.9 C 53.0,37.199999999999996 53.6,37.8 54.300000000000004,38.5 C 54.7,38.2 55.00000000000001,37.8 55.400000000000006,37.4 C 54.800000000000004,36.699999999999996 54.2,36.0 53.50000000000001,35.3 C 54.00000000000001,34.8 54.50000000000001,34.3 55.10000000000001,33.8 C 56.80000000000001,35.599999999999994 58.400000000000006,37.199999999999996 60.10000000000001,39.0 C 60.60000000000001,38.5 61.00000000000001,38.2 61.50000000000001,37.7 C 59.70000000000001,36.1 58.00000000000001,34.5 56.300000000000004,33.0 C 57.900000000000006,30.1 59.2,29.9 61.2,31.9 C 63.400000000000006,34.1 65.60000000000001,36.3 67.8,38.5 C 68.89999999999999,39.6 69.0,40.5 68.0,41.5 C 64.8,44.7 61.6,47.9 58.3,51.2 C 54.9,47.6 51.699999999999996,44.2 48.4,40.7 C 48.199999999999996,40.800000000000004 48.1,40.800000000000004 47.9,40.900000000000006 C 48.4,40.50000000000001 48.9,40.00000000000001 49.5,39.400000000000006 C 51.1,41.10000000000001 52.7,42.800000000000004 54.5,44.7 C 55.0,44.1 55.3,43.800000000000004 55.7,43.2 C 54.1,41.7 52.4,40.1 50.5,38.3 M 51.4,58.3 C 50.199999999999996,59.4 48.699999999999996,60.9 47.199999999999996,62.4 C 44.99999999999999,64.5 42.9,66.7 40.8,68.9 C 39.8,69.9 39.099999999999994,69.9 38.199999999999996,68.9 C 35.8,66.4 33.199999999999996,64.10000000000001 30.699999999999996,61.7 C 29.099999999999994,60.2 29.099999999999994,59.900000000000006 30.699999999999996,58.300000000000004 C 30.899999999999995,58.1 31.199999999999996,57.900000000000006 31.699999999999996,57.50000000000001 C 33.3,59.300000000000004 34.9,61.00000000000001 36.599999999999994,62.800000000000004 C 37.099999999999994,62.300000000000004 37.49999999999999,62.00000000000001 37.99999999999999,61.400000000000006 C 36.199999999999996,59.800000000000004 34.39999999999999,58.2 32.599999999999994,56.7 C 33.49999999999999,55.800000000000004 33.99999999999999,55.2 34.699999999999996,54.6 C 35.3,55.2 35.9,55.7 36.49999999999999,56.300000000000004 C 37.79999999999999,55.400000000000006 37.79999999999999,55.400000000000006 36.099999999999994,53.300000000000004 C 36.49999999999999,52.800000000000004 36.89999999999999,52.300000000000004 37.39999999999999,51.7 C 39.099999999999994,53.5 40.69999999999999,55.2 42.39999999999999,57.0 C 42.99999999999999,56.4 43.39999999999999,56.1 43.79999999999999,55.7 C 41.99999999999999,54.1 40.19999999999999,52.5 38.39999999999999,50.900000000000006 C 39.39999999999999,50.00000000000001 39.99999999999999,49.400000000000006 40.599999999999994,48.800000000000004 C 41.199999999999996,49.300000000000004 41.8,49.800000000000004 42.39999999999999,50.300000000000004 C 42.49999999999999,50.2 42.49999999999999,50.1 42.599999999999994,50.00000000000001 C 43.199999999999996,50.300000000000004 44.099999999999994,50.300000000000004 44.49999999999999,50.800000000000004 C 46.7,53.1 49.0,55.7 51.4,58.3 M 83.0,75.4 C 75.3,67.80000000000001 67.6,60.2 59.8,52.50000000000001 C 60.8,51.50000000000001 61.699999999999996,50.400000000000006 62.699999999999996,49.400000000000006 C 64.89999999999999,47.2 67.19999999999999,45.00000000000001 69.39999999999999,42.800000000000004 C 71.1,41.1 71.1,39.1 69.39999999999999,37.300000000000004 C 68.39999999999999,36.300000000000004 67.3,35.400000000000006 66.1,34.400000000000006 C 69.5,31.000000000000007 72.6,27.900000000000006 75.8,24.900000000000006 C 76.7,24.000000000000007 77.7,23.100000000000005 78.6,22.100000000000005 C 78.89999999999999,21.800000000000004 78.8,21.200000000000006 78.89999999999999,20.700000000000006 C 78.39999999999999,20.800000000000008 77.69999999999999,20.700000000000006 77.39999999999999,21.000000000000007 C 73.4,24.6 69.7,28.3 66.0,32.0 C 65.7,32.3 65.3,32.6 64.9,33.1 C 63.900000000000006,32.0 62.900000000000006,31.0 61.900000000000006,30.0 C 60.10000000000001,28.3 58.2,28.3 56.400000000000006,30.0 C 53.50000000000001,32.8 50.7,35.7 47.900000000000006,38.6 C 47.5,39.0 47.3,39.5 47.0,40.0 C 39.2,32.3 31.7,24.9 24.1,17.5 C 36.400000000000006,6.5 60.9,3.0 78.5,19.4 C 96.3,36.1 94.5,61.6 83.0,75.4" fill="#935316" stroke="none" stroke-width="3.0px" /></g></svg>