<?xml version="1.0" encoding="utf-8" ?>
<svg baseProfile="full" height="100px" version="1.1" width="150px" xmlns="http://www.w3.org/2000/svg" xmlns:ev="http://www.w3.org/2001/xml-events" xmlns:xlink="http://www.w3.org/1999/xlink"><defs><clipPath id="mask0"><rect height="100" width="150" x="0" y="0" /></clipPath></defs><g clip-path="url(#mask0)"><path d="M0,100 L150,0 L150,100 z" fill="#cc3200" stroke="none" /><path d="M0,100 L150,0 L0,0 z" fill="#000000" stroke="none" /></g><g transform="translate(40.20804633739667, 15.208046337396667) scale(0.6958390732520667) rotate(0, 50.0, 50.0)"><path d="M 80.9,29.7 C 80.5,28.3 78.30000000000001,28.099999999999998 78.30000000000001,28.099999999999998 C 78.30000000000001,28.099999999999998 80.80000000000001,25.099999999999998 80.50000000000001,21.199999999999996 C 79.60000000000001,12.499999999999996 69.60000000000001,13.699999999999996 69.70000000000002,13.699999999999996 C 69.70000000000002,13.699999999999996 68.00000000000001,11.099999999999996 65.90000000000002,10.699999999999996 C 63.40000000000002,10.299999999999995 60.80000000000002,11.699999999999996 57.40000000000002,12.099999999999996 C 54.50000000000002,12.499999999999996 52.60000000000002,12.499999999999996 51.50000000000002,11.699999999999996 C 50.90000000000002,11.199999999999996 50.200000000000024,9.599999999999996 49.700000000000024,8.799999999999995 L 49.700000000000024,4.5 L 52.10000000000002,4.5 L 52.10000000000002,3.8 L 49.700000000000024,3.8 L 49.700000000000024,0.7999999999999998 L 49.0,0.7999999999999998 L 49.0,3.8 L 46.5,3.8 L 46.5,4.5 L 49.0,4.5 L 49.0,8.8 C 48.6,9.600000000000001 47.8,11.3 47.0,11.700000000000001 C 45.9,12.4 44.1,12.4 41.1,12.100000000000001 C 37.800000000000004,11.700000000000001 35.2,10.3 32.6,10.700000000000001 C 30.400000000000002,11.100000000000001 28.8,13.700000000000001 28.8,13.700000000000001 C 28.900000000000002,13.700000000000001 18.9,12.500000000000002 18.0,21.200000000000003 C 17.6,24.900000000000002 20.2,28.1 20.2,28.1 C 20.2,28.1 17.9,28.1 17.599999999999998,29.700000000000003 C 17.2,31.200000000000003 18.999999999999996,32.300000000000004 20.2,32.300000000000004 C 21.5,32.300000000000004 23.099999999999998,32.1 25.2,34.6 C 26.7,36.4 27.7,39.5 28.2,41.0 L 22.0,41.0 L 22.0,90.5 C 22.0,93.1 23.5,95.8 26.7,95.8 L 46.8,95.8 L 49.4,98.8 L 50.4,97.89999999999999 C 50.4,97.89999999999999 52.0,95.99999999999999 52.199999999999996,95.8 L 72.3,95.8 C 75.6,95.8 77.1,93.0 77.1,90.5 L 77.1,41.0 L 70.39999999999999,41.0 C 70.89999999999999,39.5 71.89999999999999,36.4 73.3,34.6 C 75.39999999999999,32.1 76.89999999999999,32.300000000000004 78.3,32.300000000000004 C 79.7,32.3 81.3,31.1 80.9,29.7 M 74.6,90.5 C 74.6,90.8 74.6,93.4 72.19999999999999,93.4 L 52.1,93.4 C 51.5,93.4 50.800000000000004,93.7 50.4,94.2 C 50.3,94.3 49.8,94.8 49.4,95.3 L 48.4,94.2 C 48.0,93.7 47.4,93.4 46.699999999999996,93.4 L 26.6,93.4 C 24.200000000000003,93.4 24.1,91.0 24.1,90.5 L 24.1,43.3 L 74.6,43.3 L 74.6,90.5 M 29.9,41.0 C 31.4,40.1 34.199999999999996,38.8 38.099999999999994,37.6 C 44.39999999999999,35.7 54.199999999999996,35.7 60.39999999999999,37.6 C 64.19999999999999,38.800000000000004 66.99999999999999,40.1 68.6,41.0 L 29.9,41.0" fill="#FFCC00" stroke="none" stroke-width="0px" /><path d="M 52.0,32.6 C 52.0,33.6 50.8,34.5 49.3,34.5 C 47.8,34.5 46.599999999999994,33.6 46.599999999999994,32.6 C 46.599999999999994,31.6 47.8,30.700000000000003 49.3,30.700000000000003 C 50.8,30.7 52.0,31.6 52.0,32.6 M 55.1,28.7 C 56.4,27.4 57.1,25.2 56.7,23.6 C 56.2,22.0 54.900000000000006,21.700000000000003 53.5,22.900000000000002 C 52.1,24.1 51.4,26.3 51.9,28.0 C 52.4,29.6 53.8,29.9 55.1,28.7 M 72.5,31.8 C 73.4,31.2 74.0,30.0 73.7,29.2 C 73.5,28.3 72.5,28.3 71.60000000000001,28.8 C 70.7,29.3 70.10000000000001,30.5 70.4,31.400000000000002 C 70.6,32.3 71.6,32.4 72.5,31.8 M 64.1,35.3 C 64.8,34.5 64.19999999999999,33.3 62.89999999999999,32.599999999999994 C 61.69999999999999,31.899999999999995 59.99999999999999,31.999999999999993 59.29999999999999,32.89999999999999 C 58.59999999999999,33.79999999999999 59.19999999999999,34.89999999999999 60.49999999999999,35.599999999999994 C 61.8,36.3 63.5,36.1 64.1,35.3 M 42.4,23.4 C 42.0,25.0 42.7,27.2 44.0,28.5 C 45.3,29.7 46.7,29.4 47.2,27.8 C 47.7,26.2 46.900000000000006,23.900000000000002 45.6,22.700000000000003 C 44.3,21.5 42.9,21.8 42.4,23.4 M 24.2,90.7 C 24.2,91.2 24.3,93.60000000000001 26.7,93.60000000000001 L 46.8,93.60000000000001 C 47.5,93.60000000000001 48.099999999999994,93.9 48.5,94.4 L 49.4,95.4 L 49.6,95.4 C 50.0,94.9 50.4,94.5 50.5,94.4 C 50.9,93.9 51.6,93.60000000000001 52.2,93.60000000000001 L 72.30000000000001,93.60000000000001 C 73.9,93.60000000000001 74.4,92.50000000000001 74.60000000000001,91.60000000000001 L 74.50000000000001,43.30000000000001 L 24.0,43.30000000000001 L 24.0,79.50000000000001 M 71.7,25.7 C 73.0,26.3 74.60000000000001,26.7 76.3,26.3 C 78.0,25.900000000000002 79.3,21.6 78.0,19.0 C 76.7,16.2 72.1,15.8 70.6,16.6 C 69.8,17.0 67.89999999999999,21.900000000000002 67.89999999999999,22.900000000000002 C 68.0,23.7 70.4,25.1 71.7,25.7 M 28.7,31.3 C 29.0,30.400000000000002 28.4,29.2 27.5,28.7 C 26.6,28.099999999999998 25.6,28.2 25.4,29.099999999999998 C 25.099999999999998,29.799999999999997 25.7,30.999999999999996 26.599999999999998,31.7 C 27.5,32.3 28.5,32.2 28.7,31.3 M 38.6,35.4 C 39.9,34.8 40.5,33.6 39.800000000000004,32.699999999999996 C 39.1,31.899999999999995 37.50000000000001,31.799999999999997 36.2,32.4 C 34.900000000000006,33.0 34.300000000000004,34.199999999999996 35.0,35.1 C 35.6,35.9 37.2,36.1 38.6,35.4 M 78.8,28.7 C 78.5,27.7 77.39999999999999,27.599999999999998 76.39999999999999,28.3 C 75.39999999999999,28.900000000000002 74.8,30.3 74.99999999999999,31.3 C 75.29999999999998,32.3 76.29999999999998,32.4 77.39999999999999,31.7 C 78.5,31.1 79.1,29.7 78.8,28.7 M 35.1,27.0 C 35.6,26.1 35.4,24.6 34.7,23.8 C 33.900000000000006,22.8 32.900000000000006,22.7 32.300000000000004,23.6 C 31.700000000000003,24.3 31.900000000000006,25.8 32.7,26.8 C 33.5,27.8 34.5,27.9 35.1,27.0 M 22.7,26.1 C 24.4,26.5 26.0,26.0 27.299999999999997,25.5 C 28.599999999999994,25.0 30.999999999999996,23.6 31.099999999999998,22.7 C 31.2,21.8 29.299999999999997,16.9 28.4,16.4 C 27.0,15.7 22.4,16.099999999999998 21.0,18.799999999999997 C 19.8,21.5 21.0,25.7 22.7,26.1 M 29.2,26.9 C 28.9,27.599999999999998 29.5,28.9 30.4,29.5 C 31.299999999999997,30.1 32.3,30.0 32.5,29.1 C 32.7,28.3 32.2,27.1 31.3,26.5 C 30.4,25.9 29.4,26.0 29.2,26.9 M 24.1,31.2 C 24.3,30.2 23.8,28.8 22.700000000000003,28.2 C 21.700000000000003,27.5 20.6,27.599999999999998 20.300000000000004,28.599999999999998 C 20.000000000000004,29.499999999999996 20.600000000000005,30.9 21.700000000000003,31.599999999999998 C 22.7,32.3 23.8,32.2 24.1,31.2 M 64.4,23.9 C 63.7,24.7 63.50000000000001,26.2 64.0,27.099999999999998 C 64.6,27.999999999999996 65.5,27.9 66.4,26.9 C 67.2,26.0 67.4,24.5 66.80000000000001,23.7 C 66.2,22.8 65.2,22.9 64.4,23.9 M 59.0,22.7 C 59.0,22.8 58.9,22.8 58.9,22.8 C 57.8,24.0 57.6,26.3 58.4,27.9 C 59.199999999999996,29.5 60.699999999999996,29.799999999999997 61.699999999999996,28.599999999999998 C 62.8,27.299999999999997 62.99999999999999,25.099999999999998 62.199999999999996,23.5 C 61.99999999999999,23.2 61.8,22.9 61.599999999999994,22.7 C 63.099999999999994,22.4 64.1,21.5 64.1,21.5 C 66.0,18.9 68.1,14.8 66.19999999999999,13.5 C 64.29999999999998,12.2 59.79999999999999,14.3 55.29999999999999,14.3 C 52.79999999999999,14.3 50.59999999999999,13.5 50.59999999999999,13.5 C 50.59999999999999,13.5 50.499999999999986,17.4 51.19999999999999,18.9 C 51.9,20.2 56.4,22.1 59.0,22.7 M 66.6,29.3 C 66.8,30.1 67.8,30.2 68.69999999999999,29.7 C 69.6,29.2 70.19999999999999,27.9 69.89999999999999,27.099999999999998 C 69.69999999999999,26.2 68.69999999999999,26.099999999999998 67.8,26.7 C 66.9,27.2 66.4,28.5 66.6,29.3 M 37.6,22.5 C 37.4,22.7 37.1,23.0 36.9,23.4 C 36.1,25.0 36.3,27.2 37.4,28.5 C 38.3,29.7 39.9,29.4 40.699999999999996,27.8 C 41.49999999999999,26.2 41.3,23.8 40.199999999999996,22.700000000000003 C 40.099999999999994,22.6 40.099999999999994,22.500000000000004 39.99999999999999,22.500000000000004 C 42.699999999999996,22.000000000000004 47.199999999999996,20.100000000000005 47.89999999999999,18.700000000000003 C 48.599999999999994,17.300000000000004 48.49999999999999,13.300000000000002 48.49999999999999,13.300000000000002 C 48.49999999999999,13.300000000000002 46.29999999999999,14.100000000000003 43.79999999999999,14.100000000000003 C 39.29999999999999,14.100000000000003 34.79999999999999,12.000000000000004 32.89999999999999,13.300000000000002 C 31.09999999999999,14.500000000000002 33.099999999999994,18.700000000000003 34.99999999999999,21.300000000000004 C 35.0,21.3 35.9,22.2 37.6,22.5 M 47.4,23.2 C 47.4,24.599999999999998 48.3,25.7 49.3,25.7 C 50.3,25.7 51.199999999999996,24.599999999999998 51.199999999999996,23.2 C 51.199999999999996,21.8 50.3,20.7 49.3,20.7 C 48.3,20.7 47.4,21.8 47.4,23.2" fill="#D81E05" stroke="none" stroke-width="0px" /><path d="M 26.5,37.0 C 26.5,36.2 27.2,35.5 28.0,35.5 C 28.8,35.4 29.5,36.1 29.5,37.0 C 29.5,37.8 28.8,38.5 28.0,38.5 C 27.2,38.5 26.5,37.8 26.5,37.0 M 28.0,12.5 C 28.8,12.5 29.5,11.8 29.5,11.0 C 29.5,10.2 28.8,9.5 28.0,9.5 C 27.2,9.5 26.5,10.2 26.5,11.0 C 26.5,11.8 27.2,12.5 28.0,12.5 M 28.0,25.2 C 27.2,25.2 26.5,25.9 26.5,26.7 C 26.5,27.5 27.2,28.2 28.0,28.2 C 28.8,28.2 29.5,27.5 29.5,26.7 C 29.5,25.8 28.8,25.2 28.0,25.2 M 37.5,10.3 C 38.3,10.3 39.0,9.600000000000001 39.0,8.8 C 39.0,7.9 38.4,7.4 37.5,7.300000000000001 C 36.8,7.3 36.0,8.0 36.0,8.8 C 36.0,9.600000000000001 36.8,10.3 37.5,10.3 M 17.8,20.8 C 17.8,20.0 17.2,19.3 16.3,19.3 C 15.5,19.3 14.8,20.0 14.8,20.8 C 14.8,21.6 15.5,22.3 16.3,22.3 C 17.1,22.3 17.8,21.7 17.8,20.8 M 46.5,11.3 C 47.3,11.3 48.0,10.600000000000001 48.0,9.8 C 47.9,8.9 47.3,8.200000000000001 46.5,8.3 C 45.7,8.3 45.0,9.0 45.0,9.8 C 45.0,10.600000000000001 45.7,11.3 46.5,11.3 M 42.0,11.3 C 42.8,11.3 43.5,10.600000000000001 43.5,9.8 C 43.4,8.9 42.8,8.3 42.0,8.3 C 41.2,8.3 40.5,9.0 40.5,9.8 C 40.5,10.600000000000001 41.3,11.3 42.0,11.3 M 42.0,24.5 C 42.8,24.5 43.5,23.8 43.5,23.0 C 43.5,22.2 42.8,21.5 42.0,21.5 C 41.2,21.5 40.5,22.2 40.5,23.0 C 40.5,23.8 41.2,24.5 42.0,24.5 M 32.5,10.3 C 33.3,10.3 34.0,9.600000000000001 34.0,8.8 C 34.0,7.9 33.3,7.300000000000001 32.5,7.300000000000001 C 31.700000000000003,7.300000000000001 31.0,8.0 31.0,8.8 C 31.0,9.600000000000001 31.8,10.3 32.5,10.3 M 16.8,24.5 C 16.0,24.5 15.3,25.2 15.3,26.0 C 15.3,26.8 16.0,27.5 16.8,27.5 C 17.6,27.5 18.3,26.8 18.3,26.0 C 18.3,25.2 17.5,24.5 16.8,24.5 M 22.7,10.7 C 21.9,10.7 21.2,11.399999999999999 21.2,12.2 C 21.2,13.0 21.9,13.7 22.7,13.7 C 23.5,13.7 24.2,13.0 24.2,12.2 C 24.2,11.3 23.5,10.7 22.7,10.7 M 18.0,14.3 C 17.2,14.3 16.5,15.0 16.5,15.8 C 16.5,16.6 17.2,17.3 18.0,17.3 C 18.8,17.3 19.5,16.6 19.5,15.8 C 19.5,15.0 18.8,14.3 18.0,14.3 M 24.1,76.8 L 74.6,76.8 L 74.6,60.0 L 24.099999999999994,60.1 L 24.099999999999994,76.8 L 24.1,76.8 M 58.0,11.5 C 58.8,11.5 59.5,10.8 59.5,10.0 C 59.5,9.2 58.8,8.5 58.0,8.5 C 57.2,8.5 56.5,9.0 56.5,10.0 C 56.5,10.7 57.2,11.5 58.0,11.5 M 62.5,10.5 C 63.3,10.5 64.0,9.8 64.0,9.0 C 64.0,8.2 63.3,7.5 62.5,7.5 C 61.7,7.5 61.0,8.0 61.0,9.0 C 61.0,9.8 61.8,10.5 62.5,10.5 M 67.5,10.5 C 68.3,10.5 69.0,9.8 69.0,9.0 C 69.0,8.2 68.3,7.5 67.5,7.5 C 66.7,7.5 66.0,8.0 66.0,9.0 C 66.0,9.8 66.7,10.5 67.5,10.5 M 72.0,12.5 C 72.8,12.5 73.5,11.8 73.5,11.0 C 73.5,10.2 72.8,9.5 72.0,9.5 C 71.2,9.5 70.5,10.2 70.5,11.0 C 70.5,11.8 71.3,12.5 72.0,12.5 M 72.0,28.3 C 72.8,28.3 73.5,27.6 73.5,26.8 C 73.5,26.0 72.8,25.3 72.0,25.3 C 71.2,25.3 70.5,26.0 70.5,26.8 C 70.5,27.6 71.2,28.3 72.0,28.3 M 72.2,35.5 C 71.4,35.4 70.7,36.1 70.7,37.0 C 70.7,37.8 71.4,38.5 72.2,38.5 C 73.0,38.5 73.7,37.8 73.7,37.0 C 73.7,36.2 73.0,35.5 72.2,35.5 M 83.7,15.8 C 83.7,15.0 83.0,14.3 82.2,14.3 C 81.4,14.3 80.7,15.0 80.7,15.8 C 80.7,16.6 81.3,17.3 82.2,17.3 C 83.0,17.3 83.7,16.7 83.7,15.8 M 77.3,10.8 C 76.5,10.8 75.8,11.5 75.8,12.3 C 75.8,13.100000000000001 76.5,13.8 77.3,13.8 C 78.1,13.8 78.8,13.100000000000001 78.8,12.3 C 78.8,11.5 78.2,10.8 77.3,10.8 M 83.3,24.5 C 82.5,24.5 81.8,25.2 81.8,26.0 C 81.8,26.8 82.5,27.5 83.3,27.5 C 84.1,27.5 84.8,26.8 84.8,26.0 C 84.8,25.2 84.0,24.5 83.3,24.5 M 58.0,21.7 C 57.2,21.599999999999998 56.5,22.3 56.5,23.2 C 56.5,24.0 57.2,24.7 58.0,24.7 C 58.8,24.7 59.5,24.0 59.5,23.2 C 59.5,22.3 58.8,21.7 58.0,21.7 M 53.5,11.5 C 54.3,11.5 55.0,10.8 55.0,10.0 C 55.0,9.2 54.3,8.5 53.5,8.5 C 52.8,8.3 52.2,9.0 52.0,10.0 C 52.0,10.7 52.8,11.5 53.5,11.5 M 83.8,19.5 C 82.89999999999999,19.5 82.3,20.2 82.3,21.0 C 82.3,21.8 83.0,22.5 83.8,22.5 C 84.6,22.5 85.3,21.8 85.3,21.0 C 85.3,20.2 84.5,19.5 83.8,19.5" fill="#FFFFFF" stroke="none" stroke-width="0px" /></g></svg>