<?xml version="1.0" encoding="utf-8" ?>
<svg baseProfile="full" height="100px" version="1.1" width="150px" xmlns="http://www.w3.org/2000/svg" xmlns:ev="http://www.w3.org/2001/xml-events" xmlns:xlink="http://www.w3.org/1999/xlink"><defs><clipPath id="mask0"><rect height="100" width="150" x="0" y="0" /></clipPath></defs><g clip-path="url(#mask0)"><rect fill="#cc6600" height="100" stroke="none" width="25.0" x="0.0" y="0" /><rect fill="#ffce00" height="100" stroke="none" width="25.0" x="25.0" y="0" /><rect fill="#339933" height="100" stroke="none" width="25.0" x="50.0" y="0" /><rect fill="#0066cc" height="100" stroke="none" width="25.0" x="75.0" y="0" /><rect fill="#630356" height="100" stroke="none" width="25.0" x="100.0" y="0" /><rect fill="#784f16" height="100" stroke="none" width="25.0" x="125.0" y="0" /></g><g transform="translate(40.48103315514035, 15.481033155140352) scale(0.6903793368971929) rotate(0, 50.0, 50.0)"><path d="M 15.2,50.9 L 10.899999999999999,50.699999999999996 L 10.7,50.49999999999999 L 10.799999999999999,47.89999999999999 L 10.899999999999999,45.89999999999999 L 11.599999999999998,40.99999999999999 L 13.099999999999998,34.599999999999994 L 14.499999999999998,30.899999999999995 L 16.099999999999998,27.499999999999996 L 18.4,23.899999999999995 L 20.799999999999997,20.799999999999994 L 24.199999999999996,17.499999999999993 L 27.699999999999996,14.699999999999992 L 30.499999999999996,12.899999999999991 L 31.199999999999996,12.999999999999991 L 31.899999999999995,13.69999999999999 L 38.8,10.29999999999999 L 42.3,9.29999999999999 L 45.099999999999994,11.59999999999999 L 43.99999999999999,16.499999999999993 L 38.79999999999999,18.699999999999992 L 34.69999999999999,21.59999999999999 L 31.0,25.1 L 30.4,25.900000000000002 L 31.099999999999998,26.700000000000003 L 31.0,27.3 L 29.8,28.7 L 28.2,31.0 L 25.7,35.9 L 24.4,40.6 L 23.7,44.9 L 23.4,49.5 L 23.4,52.3 L 17.9,51.3 L 15.2,50.9 M 89.4,47.8 L 89.30000000000001,45.8 L 88.60000000000001,40.9 L 87.10000000000001,34.5 L 85.7,30.8 L 84.10000000000001,27.400000000000002 L 81.80000000000001,23.8 L 79.4,20.7 L 76.0,17.4 L 72.5,14.599999999999998 L 69.7,12.799999999999997 L 69.0,12.899999999999997 L 68.3,13.599999999999996 L 61.4,10.199999999999996 L 57.9,9.199999999999996 L 55.0,11.4 L 56.1,16.3 L 61.300000000000004,18.5 L 65.4,21.4 L 69.2,25.099999999999998 L 69.8,25.9 L 69.1,26.7 L 69.19999999999999,27.3 L 70.39999999999999,28.7 L 72.0,31.0 L 74.5,35.9 L 75.8,40.6 L 76.5,44.9 L 76.8,49.5 L 76.8,52.3 L 82.3,51.3 L 85.0,50.9 L 89.3,50.699999999999996 L 89.5,50.49999999999999 L 89.4,47.8 M 85.4,57.1 L 81.2,57.7 L 75.7,58.900000000000006 C 74.9,61.7 72.9,65.4 70.4,68.80000000000001 L 71.30000000000001,67.60000000000001 L 71.00000000000001,67.30000000000001 L 71.30000000000001,66.4 L 70.8,66.0 L 70.2,66.2 L 69.8,65.7 L 70.1,64.8 L 69.69999999999999,64.5 L 69.0,64.8 L 68.5,63.599999999999994 L 68.8,61.699999999999996 L 67.5,60.199999999999996 L 63.4,63.49999999999999 L 64.6,65.0 L 65.3,64.8 L 66.7,65.0 L 67.3,65.9 L 66.89999999999999,66.7 L 67.19999999999999,67.0 L 67.99999999999999,66.8 L 68.39999999999999,67.3 L 68.0,68.3 L 68.4,68.7 L 69.10000000000001,68.5 L 69.9,69.4 C 68.5,71.2 67.0,72.80000000000001 65.4,74.2 L 66.10000000000001,74.3 L 67.2,77.0 L 66.5,79.7 C 71.6,76.5 75.3,72.2 78.1,67.0 L 78.1,67.0 L 78.1,67.0 L 78.1,67.0 L 81.5,66.2 L 83.2,65.2 L 86.60000000000001,64.3 L 89.30000000000001,56.8 L 87.8,56.0 L 85.4,57.1 M 64.4,71.0 L 64.10000000000001,70.6 L 63.50000000000001,70.69999999999999 L 63.20000000000001,70.19999999999999 L 63.70000000000001,69.29999999999998 L 63.40000000000001,68.89999999999998 L 62.70000000000001,68.99999999999997 L 62.5,68.0 L 63.2,65.8 L 62.300000000000004,64.2 L 57.6,66.3 L 58.300000000000004,68.1 L 60.00000000000001,68.39999999999999 L 60.70000000000001,69.49999999999999 L 60.10000000000001,70.29999999999998 L 60.400000000000006,70.69999999999999 L 61.10000000000001,70.69999999999999 L 61.400000000000006,71.49999999999999 L 61.00000000000001,71.69999999999999 L 60.800000000000004,72.29999999999998 L 61.2,72.69999999999999 L 61.900000000000006,72.6 L 62.400000000000006,73.8 L 65.0,74.0 L 64.0,71.7 L 64.4,71.0 M 56.6,68.7 L 56.300000000000004,66.8 L 51.1,67.5 L 51.300000000000004,69.4 L 52.7,70.0 L 53.2,71.6 L 52.7,71.6 L 52.300000000000004,72.1 L 52.6,72.69999999999999 L 55.4,72.6 L 56.0,72.1 L 55.9,71.5 L 55.199999999999996,71.4 L 55.599999999999994,69.80000000000001 L 56.6,68.7 M 49.0,69.2 L 49.2,67.3 L 44.0,66.6 L 43.7,68.6 L 44.900000000000006,69.6 L 45.10000000000001,71.19999999999999 L 44.400000000000006,71.39999999999999 L 44.400000000000006,71.99999999999999 L 45.10000000000001,72.19999999999999 L 45.0,72.9 L 47.5,72.80000000000001 L 47.9,72.30000000000001 L 48.0,71.80000000000001 L 47.2,71.50000000000001 L 47.6,70.00000000000001 L 49.0,69.2 M 37.9,73.7 L 38.3,72.7 L 38.699999999999996,72.5 L 39.3,72.4 L 39.4,71.80000000000001 L 38.9,71.4 L 39.199999999999996,70.7 L 39.99999999999999,70.7 L 40.199999999999996,70.10000000000001 L 39.599999999999994,69.60000000000001 L 40.599999999999994,68.2 L 42.199999999999996,67.9 L 42.8,66.10000000000001 L 38.199999999999996,63.900000000000006 L 37.3,65.60000000000001 L 37.599999999999994,66.10000000000001 L 37.99999999999999,67.50000000000001 L 37.79999999999999,68.60000000000001 L 37.0,68.8 L 36.8,69.3 L 37.4,69.8 L 37.0,70.6 L 36.2,70.69999999999999 L 36.1,71.0 L 36.6,71.5 L 36.300000000000004,72.2 C 36.300000000000004,72.2 36.300000000000004,72.2 36.300000000000004,72.2 L 36.300000000000004,72.2 L 35.50000000000001,74.10000000000001 L 37.9,73.7 L 37.9,73.7 M 30.4,69.4 L 31.099999999999998,68.4 L 31.499999999999996,68.60000000000001 L 32.099999999999994,68.60000000000001 L 32.3,68.10000000000001 L 31.9,67.60000000000001 L 32.4,66.9 L 32.699999999999996,67.10000000000001 L 33.199999999999996,67.10000000000001 L 33.4,66.60000000000001 L 32.9,66.0 L 33.5,65.2 L 34.5,64.8 L 35.6,65.0 L 36.800000000000004,63.4 L 32.7,60.1 L 31.400000000000002,61.6 L 31.8,62.5 L 31.7,63.7 L 31.2,64.60000000000001 L 30.4,64.30000000000001 L 30.099999999999998,64.9 L 30.599999999999998,65.5 L 30.099999999999998,66.1 L 29.299999999999997,65.89999999999999 L 29.099999999999998,66.39999999999999 L 29.499999999999996,66.89999999999999 L 29.399999999999995,67.1 L 29.0,67.7 C 27.1,65.10000000000001 25.6,62.2 24.4,58.900000000000006 L 15.399999999999999,57.300000000000004 L 12.499999999999998,56.50000000000001 L 11.199999999999998,56.900000000000006 L 12.199999999999998,60.800000000000004 C 12.199999999999998,60.900000000000006 12.299999999999997,61.1 12.299999999999997,61.2 L 13.799999999999997,64.9 L 16.9,65.80000000000001 L 17.4,66.20000000000002 L 22.2,67.10000000000002 C 25.099999999999998,73.50000000000003 29.1,77.20000000000002 33.5,79.90000000000002 L 32.9,77.10000000000002 L 34.8,74.20000000000002 C 33.3,72.7 31.8,71.1 30.4,69.4 M 59.6,88.8 L 59.800000000000004,86.6 L 61.1,81.3 L 59.1,78.7 L 50.1,83.3 L 42.1,80.39999999999999 L 38.9,81.6 L 40.699999999999996,85.89999999999999 L 40.699999999999996,86.99999999999999 L 41.199999999999996,91.39999999999999 L 37.599999999999994,89.99999999999999 L 35.8,90.19999999999999 L 38.0,94.6 L 39.3,95.19999999999999 L 40.199999999999996,97.6 L 50.199999999999996,94.0 L 61.39999999999999,97.5 L 65.1,90.7 L 60.3,91.0 L 59.6,88.8 M 46.5,11.1 L 42.3,7.5 L 47.5,6.7 L 50.0,1.4000000000000004 L 52.4,6.800000000000001 L 58.0,7.4 L 53.6,11.100000000000001 L 54.800000000000004,16.6 L 50.00000000000001,13.700000000000001 L 45.00000000000001,16.5 L 46.5,11.1 M 47.1,10.9 L 46.0,15.5 L 50.1,13.2 L 54.1,15.6 L 53.0,11.0 L 56.7,7.9 L 52.0,7.4 L 50.0,3.0 L 48.0,7.3 L 48.0,7.3 L 43.7,7.8999999999999995 L 47.1,10.9" fill="#ff9932" stroke="none" stroke-width="0px" /><path d="M 70.0,57.0 C 66.0,63.2 58.0,67.9 50.7,67.6 C 42.6,67.3 32.6,63.099999999999994 29.700000000000003,55.49999999999999 C 27.6,50.099999999999994 32.400000000000006,45.99999999999999 33.300000000000004,43.8 C 34.2,41.5 33.400000000000006,40.599999999999994 36.00000000000001,37.8 C 36.00000000000001,33.5 39.00000000000001,30.199999999999996 44.50000000000001,30.299999999999997 L 44.50000000000001,30.299999999999997 C 42.20000000000001,31.199999999999996 40.20000000000001,33.699999999999996 41.50000000000001,37.099999999999994 C 42.00000000000001,34.3 43.00000000000001,33.3 45.20000000000001,32.39999999999999 C 44.50000000000001,35.099999999999994 45.00000000000001,38.39999999999999 46.70000000000001,38.79999999999999 C 45.80000000000001,35.39999999999999 46.50000000000001,32.79999999999999 48.10000000000001,30.79999999999999 C 50.10000000000001,28.39999999999999 49.70000000000001,25.69999999999999 48.900000000000006,24.89999999999999 C 50.60000000000001,25.39999999999999 53.00000000000001,28.09999999999999 52.00000000000001,30.89999999999999 C 51.10000000000001,33.29999999999999 51.400000000000006,35.69999999999999 52.20000000000001,36.19999999999999 C 52.40000000000001,34.499999999999986 52.70000000000001,32.79999999999999 54.70000000000001,32.09999999999999 C 54.10000000000001,34.499999999999986 54.70000000000001,36.09999999999999 56.20000000000001,37.19999999999999 C 56.80000000000001,33.79999999999999 56.50000000000001,31.79999999999999 55.80000000000001,30.49999999999999 C 57.20000000000001,31.79999999999999 58.60000000000001,32.999999999999986 59.90000000000001,34.29999999999999 C 60.30000000000001,32.49999999999999 59.80000000000001,30.69999999999999 58.70000000000001,28.99999999999999 C 65.4,31.69999999999999 63.90000000000001,36.69999999999999 64.4,38.59999999999999 C 64.9,40.59999999999999 65.30000000000001,41.19999999999999 68.10000000000001,44.499999999999986 C 70.0,46.8 72.7,52.8 70.0,57.0 M 50.1,3.0 L 48.0,7.3 L 43.7,7.8999999999999995 L 47.1,10.899999999999999 L 46.0,15.5 L 50.1,13.2 L 54.1,15.6 L 53.0,11.0 L 56.7,7.9 L 52.0,7.4 L 50.1,3.0" fill="#fec50c" stroke="none" stroke-width="0px" /><path d="M 37.7,46.2 C 37.400000000000006,48.900000000000006 35.5,50.400000000000006 34.900000000000006,51.7 C 33.7,54.300000000000004 33.60000000000001,56.1 34.300000000000004,58.5 C 31.100000000000005,56.1 30.800000000000004,49.9 34.1,45.7 C 35.5,43.900000000000006 34.6,40.7 36.1,39.1 C 36.7,42.1 37.1,44.1 35.9,46.9 C 37.6,45.0 37.4,42.699999999999996 37.0,38.099999999999994 C 36.8,35.49999999999999 38.3,33.39999999999999 40.0,31.999999999999993 C 39.0,38.099999999999994 41.2,39.599999999999994 42.0,42.8 C 42.7,45.599999999999994 42.6,48.8 39.7,51.5 C 37.5,53.6 36.1,57.0 36.2,60.0 C 35.0,57.8 34.0,54.8 36.0,51.2 C 36.7,49.5 37.7,48.9 37.7,46.2 L 37.7,46.2 M 44.8,50.2 C 39.5,55.7 40.5,61.300000000000004 43.8,65.3 C 41.199999999999996,65.39999999999999 35.5,60.9 39.9,53.099999999999994 C 41.5,50.3 44.0,45.89999999999999 42.4,40.99999999999999 C 41.199999999999996,37.39999999999999 42.8,35.49999999999999 44.199999999999996,34.699999999999996 C 43.9,38.3 44.99999999999999,39.99999999999999 45.699999999999996,40.599999999999994 C 48.4,42.9 47.1,47.8 44.8,50.2 L 44.8,50.2 M 50.2,52.6 C 43.900000000000006,58.300000000000004 45.6,62.0 47.2,65.9 C 43.2,63.2 40.7,60.00000000000001 46.7,53.2 C 44.400000000000006,54.400000000000006 43.1,56.400000000000006 42.400000000000006,58.6 C 42.10000000000001,56.6 42.300000000000004,54.2 46.00000000000001,49.8 C 48.400000000000006,47.0 48.900000000000006,42.699999999999996 47.400000000000006,39.4 C 46.00000000000001,36.4 47.00000000000001,33.1 50.300000000000004,29.299999999999997 C 48.6,35.0 49.2,37.3 51.800000000000004,39.8 C 55.1,43.0 53.2,50.0 50.2,52.6 L 50.2,52.6 M 51.0,43.5 C 52.9,47.1 51.1,49.1 48.6,50.8 C 51.1,48.7 51.9,46.1 51.0,43.5 M 60.8,48.0 C 62.599999999999994,51.4 60.699999999999996,56.4 58.3,58.3 C 60.9,55.3 61.9,49.9 60.8,48.0 M 51.2,55.1 C 47.900000000000006,57.7 48.0,61.7 50.7,66.5 C 43.5,61.9 48.900000000000006,55.1 49.6,54.3 C 54.9,49.0 55.6,45.0 53.800000000000004,40.5 C 53.2,38.9 52.400000000000006,36.7 53.7,34.0 C 53.800000000000004,36.4 54.800000000000004,38.4 56.5,40.0 C 56.0,43.1 58.2,45.7 59.1,48.4 C 60.4,52.4 54.800000000000004,54.8 56.1,60.5 C 56.6,62.6 56.6,64.6 55.6,66.1 C 55.7,65.39999999999999 55.1,63.49999999999999 54.1,61.49999999999999 C 53.1,59.39999999999999 53.0,56.599999999999994 54.800000000000004,54.79999999999999 C 56.1,53.49999999999999 56.800000000000004,51.69999999999999 56.900000000000006,49.29999999999999 C 56.400000000000006,51.29999999999999 56.2,52.99999999999999 54.400000000000006,54.49999999999999 C 52.50000000000001,56.199999999999996 51.900000000000006,58.599999999999994 53.400000000000006,61.29999999999999 C 54.10000000000001,62.49999999999999 54.10000000000001,64.19999999999999 53.300000000000004,66.1 C 50.5,63.9 49.3,60.6 51.2,55.1 L 51.2,55.1 M 60.2,62.6 C 60.1,63.6 59.6,64.5 58.900000000000006,64.9 C 58.800000000000004,63.50000000000001 58.300000000000004,62.00000000000001 57.900000000000006,60.7 C 57.10000000000001,58.5 58.00000000000001,56.0 59.10000000000001,53.300000000000004 C 60.20000000000001,50.7 60.00000000000001,47.300000000000004 58.60000000000001,44.800000000000004 C 56.400000000000006,41.00000000000001 57.400000000000006,37.400000000000006 57.50000000000001,33.800000000000004 C 58.70000000000001,34.7 59.20000000000001,36.300000000000004 59.20000000000001,38.800000000000004 C 59.20000000000001,41.50000000000001 60.60000000000001,44.00000000000001 62.10000000000001,46.2 C 64.60000000000001,49.800000000000004 64.7,53.900000000000006 62.10000000000001,57.300000000000004 C 60.4,59.5 60.3,61.3 60.2,62.6 L 60.2,62.6 M 66.8,46.7 C 70.2,52.2 68.1,57.2 62.4,61.2 C 66.5,55.800000000000004 67.4,50.300000000000004 63.0,45.5 C 60.1,42.3 59.9,39.6 60.4,37.4 C 60.699999999999996,36.0 61.0,34.6 60.9,33.1 C 61.9,34.4 62.0,36.300000000000004 62.3,38.800000000000004 C 62.9,42.3 65.5,44.5 66.8,46.7" fill="#006600" stroke="none" stroke-width="0px" /><path d="M 80.4,25.4 L 79.10000000000001,25.4 L 78.30000000000001,24.2 L 78.30000000000001,22.599999999999998 L 79.80000000000001,22.7 L 80.70000000000002,23.9 L 80.4,25.4 M 32.3,77.9 C 27.099999999999998,73.2 23.599999999999998,68.30000000000001 21.299999999999997,63.300000000000004 L 22.099999999999998,63.50000000000001 C 24.9,69.2 28.299999999999997,73.60000000000001 32.199999999999996,76.60000000000001 L 32.0,77.0 L 32.3,77.9 L 32.3,77.9 M 13.5,61.2 L 14.9,61.800000000000004 L 16.3,60.1 L 15.700000000000001,58.800000000000004 L 14.4,60.6 L 12.8,59.5 L 13.5,61.2 M 21.7,62.7 L 21.099999999999998,61.1 L 22.9,61.4 L 23.7,59.699999999999996 L 24.5,61.3 L 24.0,63.1 C 26.5,68.3 29.6,72.4 33.3,75.5 L 32.8,76.1 C 28.599999999999998,72.1 25.4,67.8 23.4,63.39999999999999 L 21.7,62.7 M 22.3,62.2 L 22.0,61.5 L 23.2,61.7 L 23.599999999999998,60.7 L 24.099999999999998,61.5 L 23.599999999999998,62.8 L 22.3,62.2 L 22.3,62.2 M 33.6,75.1 C 29.900000000000002,71.39999999999999 26.900000000000002,67.3 24.5,62.8 L 24.7,62.0 C 27.099999999999998,66.8 30.1,71.0 33.9,74.6 L 33.6,75.1 L 33.6,75.1 M 21.0,66.6 L 19.3,63.3 L 18.0,62.6 L 17.2,60.7 L 18.8,61.300000000000004 L 19.900000000000002,59.800000000000004 L 20.700000000000003,61.50000000000001 L 20.0,63.2 L 21.6,66.7 L 21.0,66.6 L 21.0,66.6 M 19.5,62.7 L 18.2,62.300000000000004 L 17.8,61.300000000000004 L 19.0,61.7 L 19.8,60.7 L 20.2,61.400000000000006 L 19.5,62.7 M 16.4,59.2 L 15.7,57.2 L 16.4,57.400000000000006 L 16.799999999999997,58.800000000000004 L 18.4,59.50000000000001 L 19.4,57.800000000000004 L 19.9,57.900000000000006 L 18.5,60.10000000000001 L 16.4,59.2 M 21.4,59.8 L 22.299999999999997,60.0 L 22.699999999999996,58.4 L 23.199999999999996,58.4 L 22.499999999999996,60.5 L 20.799999999999997,60.0 L 19.9,57.8 L 20.9,58.0 L 21.4,59.8 M 12.4,58.4 L 12.0,57.1 L 15.1,57.300000000000004 L 14.299999999999999,59.50000000000001 L 12.4,58.4 M 14.2,62.9 L 15.1,63.3 L 15.799999999999999,65.1 L 15.0,65.1 L 14.2,62.9 M 16.6,65.5 L 15.8,63.0 L 16.7,60.9 L 18.9,66.2 L 16.6,65.5 M 35.0,73.9 C 33.7,72.9 32.2,71.30000000000001 30.7,69.4 L 31.2,68.80000000000001 L 30.8,68.50000000000001 L 30.4,69.0 C 30.099999999999998,68.6 29.7,68.1 29.4,67.6 L 29.5,67.5 L 29.1,67.2 L 29.1,67.2 C 29.1,67.2 29.1,67.2 29.1,67.10000000000001 C 29.1,67.10000000000001 29.1,67.10000000000001 29.1,67.10000000000001 L 31.200000000000003,68.80000000000001 L 31.200000000000003,68.80000000000001 C 31.400000000000002,68.9 31.6,69.00000000000001 31.700000000000003,69.00000000000001 C 31.900000000000002,69.00000000000001 32.1,68.90000000000002 32.2,68.70000000000002 L 32.2,68.70000000000002 L 32.2,68.70000000000002 C 32.300000000000004,68.60000000000002 32.300000000000004,68.40000000000002 32.300000000000004,68.20000000000002 C 32.300000000000004,68.00000000000001 32.2,67.80000000000001 32.00000000000001,67.70000000000002 L 32.00000000000001,67.70000000000002 L 32.0,67.6 L 32.3,67.19999999999999 L 31.9,66.89999999999999 L 31.599999999999998,67.3 L 30.299999999999997,66.3 L 30.599999999999998,65.89999999999999 L 30.2,65.6 L 30.0,66.0 L 30.0,66.0 L 30.0,66.0 L 30.0,66.0 C 29.8,65.9 29.6,65.8 29.5,65.8 C 29.3,65.8 29.2,65.89999999999999 29.0,66.0 L 29.0,66.0 L 29.0,66.0 C 28.9,66.2 28.8,66.4 28.8,66.5 C 28.8,66.6 28.8,66.6 28.8,66.7 C 27.2,64.3 25.7,61.6 24.4,58.800000000000004 L 23.7,58.7 C 25.8,64.2 30.4,70.60000000000001 34.3,74.0 L 34.5,73.8 L 35.0,73.9 M 29.4,66.4 L 29.4,66.4 C 29.4,66.30000000000001 29.5,66.30000000000001 29.599999999999998,66.30000000000001 C 29.7,66.30000000000001 29.7,66.30000000000001 29.799999999999997,66.4 L 29.799999999999997,66.4 L 31.9,68.10000000000001 L 31.9,68.10000000000001 L 31.9,68.10000000000001 C 32.0,68.10000000000001 32.0,68.2 32.0,68.30000000000001 C 32.0,68.4 32.0,68.4 31.9,68.50000000000001 L 31.9,68.50000000000001 C 31.9,68.60000000000001 31.799999999999997,68.60000000000001 31.7,68.60000000000001 C 31.599999999999998,68.60000000000001 31.599999999999998,68.60000000000001 31.5,68.50000000000001 L 31.5,68.50000000000001 L 29.4,66.80000000000001 C 29.299999999999997,66.80000000000001 29.299999999999997,66.70000000000002 29.299999999999997,66.60000000000001 C 29.3,66.5 29.3,66.4 29.4,66.4 M 51.0,69.4 L 51.0,69.60000000000001 L 51.2,69.60000000000001 C 51.7,69.7 52.1,69.9 52.400000000000006,70.2 C 52.7,70.5 52.900000000000006,70.9 52.900000000000006,71.3 L 52.900000000000006,71.39999999999999 L 52.900000000000006,71.39999999999999 L 53.400000000000006,71.3 L 53.400000000000006,71.2 C 53.400000000000006,71.0 53.300000000000004,70.7 53.2,70.5 L 55.1,70.3 C 55.0,70.6 55.0,70.8 55.0,71.1 L 54.8,71.1 C 54.5,71.1 54.599999999999994,71.6 54.9,71.6 L 55.6,71.5 L 55.6,71.5 C 55.7,71.5 55.7,71.5 55.800000000000004,71.6 C 55.900000000000006,71.6 55.900000000000006,71.69999999999999 55.900000000000006,71.8 L 55.900000000000006,71.8 C 55.900000000000006,71.89999999999999 55.900000000000006,71.89999999999999 55.800000000000004,72.0 C 55.800000000000004,72.1 55.7,72.1 55.6,72.1 L 52.9,72.39999999999999 L 52.9,72.39999999999999 C 52.8,72.39999999999999 52.8,72.39999999999999 52.699999999999996,72.3 C 52.599999999999994,72.3 52.599999999999994,72.2 52.599999999999994,72.1 L 52.599999999999994,72.1 C 52.599999999999994,72.0 52.599999999999994,72.0 52.699999999999996,71.89999999999999 C 52.699999999999996,71.8 52.8,71.8 52.9,71.8 L 52.9,71.8 L 53.6,71.7 C 53.9,71.7 53.800000000000004,71.2 53.6,71.2 L 52.9,71.3 L 52.9,71.3 C 52.699999999999996,71.3 52.5,71.39999999999999 52.4,71.6 C 52.3,71.69999999999999 52.199999999999996,71.89999999999999 52.199999999999996,72.1 L 52.199999999999996,72.1 L 52.199999999999996,72.19999999999999 C 52.199999999999996,72.39999999999999 52.3,72.6 52.49999999999999,72.69999999999999 C 52.599999999999994,72.79999999999998 52.79999999999999,72.89999999999999 52.99999999999999,72.89999999999999 L 52.99999999999999,72.89999999999999 L 55.699999999999996,72.6 C 55.9,72.6 56.099999999999994,72.5 56.199999999999996,72.3 C 56.3,72.2 56.4,72.0 56.4,71.8 L 56.4,71.8 L 56.4,71.8 C 56.4,71.6 56.3,71.5 56.1,71.39999999999999 C 56.0,71.3 55.800000000000004,71.19999999999999 55.6,71.19999999999999 L 55.6,71.19999999999999 L 55.6,71.19999999999999 L 55.5,71.19999999999999 C 55.5,70.79999999999998 55.6,70.49999999999999 55.8,70.1 C 56.0,69.6 56.4,69.19999999999999 56.8,69.0 L 56.9,68.9 L 56.9,68.7 L 56.6,66.7 L 56.6,66.5 L 56.4,66.5 L 51.199999999999996,67.1 L 50.99999999999999,67.1 L 50.99999999999999,67.3 L 51.0,69.4 M 56.1,67.1 L 56.300000000000004,68.69999999999999 L 51.400000000000006,69.19999999999999 L 51.300000000000004,67.69999999999999 L 56.1,67.1 M 45.3,80.9 L 50.099999999999994,82.9 L 54.89999999999999,80.30000000000001 L 55.89999999999999,80.70000000000002 L 50.79999999999999,83.20000000000002 L 52.19999999999999,83.70000000000002 L 57.29999999999999,80.50000000000001 L 58.29999999999999,80.80000000000001 L 53.0,84.1 L 54.3,84.5 L 59.199999999999996,81.0 L 60.699999999999996,81.3 L 55.3,84.89999999999999 L 56.699999999999996,85.39999999999999 L 60.8,82.69999999999999 L 60.5,83.49999999999999 L 60.6,84.09999999999998 L 58.0,85.8 L 59.0,86.2 L 60.2,85.3 L 60.1,87.0 C 55.4,85.6 48.1,83.0 43.8,81.0 L 45.3,80.9 M 85.2,62.5 L 86.4,62.0 L 85.60000000000001,64.3 L 84.4,64.7 L 85.2,62.5 M 84.5,62.1 L 83.4,65.0 L 81.60000000000001,65.6 L 83.50000000000001,60.699999999999996 L 84.5,62.1 M 38.7,72.8 C 38.900000000000006,72.89999999999999 39.1,72.89999999999999 39.300000000000004,72.8 C 39.50000000000001,72.7 39.6,72.6 39.7,72.39999999999999 L 39.7,72.39999999999999 L 39.7,72.39999999999999 C 39.800000000000004,72.19999999999999 39.800000000000004,72.1 39.7,71.89999999999999 C 39.6,71.69999999999999 39.5,71.6 39.300000000000004,71.49999999999999 L 39.300000000000004,71.49999999999999 L 39.1,71.39999999999999 L 39.300000000000004,70.99999999999999 L 38.900000000000006,70.79999999999998 L 38.7,71.19999999999999 L 37.2,70.49999999999999 L 37.400000000000006,70.09999999999998 L 37.0,69.9 L 36.8,70.30000000000001 L 36.8,70.30000000000001 L 36.8,70.30000000000001 L 36.8,70.30000000000001 C 36.599999999999994,70.20000000000002 36.4,70.20000000000002 36.199999999999996,70.30000000000001 C 35.99999999999999,70.4 35.9,70.50000000000001 35.8,70.60000000000001 L 35.8,70.60000000000001 L 35.8,70.60000000000001 C 35.699999999999996,70.80000000000001 35.699999999999996,71.00000000000001 35.8,71.2 C 35.9,71.4 36.0,71.5 36.199999999999996,71.60000000000001 L 38.7,72.8 L 38.7,72.8 M 36.3,71.1 C 36.3,71.0 36.3,71.0 36.3,70.89999999999999 L 36.3,70.89999999999999 C 36.3,70.8 36.4,70.8 36.4,70.8 C 36.5,70.8 36.5,70.8 36.6,70.8 L 36.6,70.8 L 39.1,71.89999999999999 L 39.1,71.89999999999999 L 39.1,71.89999999999999 C 39.2,71.89999999999999 39.2,71.99999999999999 39.2,71.99999999999999 C 39.2,72.09999999999998 39.2,72.09999999999998 39.2,72.19999999999999 L 39.2,72.19999999999999 C 39.2,72.29999999999998 39.1,72.29999999999998 39.1,72.29999999999998 C 39.0,72.29999999999998 39.0,72.29999999999998 38.9,72.29999999999998 L 38.9,72.29999999999998 L 36.4,71.19999999999999 C 36.4,71.2 36.3,71.1 36.3,71.1 M 81.6,60.1 L 80.69999999999999,57.9 L 81.29999999999998,57.699999999999996 L 81.69999999999999,59.4 L 83.29999999999998,58.699999999999996 L 83.69999999999999,57.3 L 84.29999999999998,57.199999999999996 L 83.79999999999998,59.099999999999994 L 81.6,60.1 M 58.1,68.2 L 58.2,68.4 L 58.400000000000006,68.4 C 58.900000000000006,68.30000000000001 59.300000000000004,68.4 59.7,68.60000000000001 C 60.1,68.80000000000001 60.400000000000006,69.10000000000001 60.5,69.50000000000001 L 60.6,69.60000000000001 L 60.6,69.60000000000001 L 61.0,69.4 L 61.0,69.30000000000001 C 60.9,69.10000000000001 60.8,68.9 60.6,68.70000000000002 L 62.300000000000004,67.90000000000002 C 62.300000000000004,68.20000000000002 62.300000000000004,68.50000000000001 62.400000000000006,68.70000000000002 L 62.800000000000004,68.50000000000001 C 62.7,68.10000000000001 62.7,67.80000000000001 62.800000000000004,67.40000000000002 C 62.900000000000006,66.90000000000002 63.1,66.40000000000002 63.400000000000006,66.00000000000001 L 63.50000000000001,65.90000000000002 L 63.400000000000006,65.80000000000003 L 62.6,64.0 L 62.5,63.8 L 62.3,63.9 L 57.5,66.1 L 57.3,66.19999999999999 L 57.4,66.39999999999999 L 58.1,68.2 M 62.2,64.4 L 62.900000000000006,65.9 L 58.400000000000006,67.9 L 57.800000000000004,66.5 L 62.2,64.4 M 64.4,65.2 L 64.5,65.3 L 64.7,65.2 C 65.2,65.0 65.60000000000001,65.0 66.0,65.10000000000001 C 66.4,65.2 66.8,65.4 67.0,65.80000000000001 L 67.1,65.9 L 67.0,66.1 L 67.0,66.1 C 66.8,66.19999999999999 66.7,66.39999999999999 66.7,66.6 C 66.7,66.8 66.7,66.89999999999999 66.8,67.1 L 66.8,67.1 L 66.8,67.1 C 66.89999999999999,67.3 67.1,67.39999999999999 67.3,67.39999999999999 C 67.5,67.39999999999999 67.7,67.39999999999999 67.8,67.19999999999999 L 67.8,67.19999999999999 L 69.89999999999999,65.49999999999999 C 70.1,65.39999999999999 70.19999999999999,65.19999999999999 70.19999999999999,64.99999999999999 C 70.19999999999999,64.79999999999998 70.19999999999999,64.59999999999998 69.99999999999999,64.49999999999999 L 69.99999999999999,64.49999999999999 L 69.99999999999999,64.49999999999999 C 69.89999999999999,64.39999999999999 69.69999999999999,64.29999999999998 69.49999999999999,64.29999999999998 C 69.29999999999998,64.29999999999998 69.09999999999998,64.29999999999998 68.99999999999999,64.49999999999999 L 68.99999999999999,64.49999999999999 L 68.99999999999999,64.49999999999999 L 68.99999999999999,64.49999999999999 C 68.79999999999998,64.19999999999999 68.69999999999999,63.79999999999998 68.69999999999999,63.399999999999984 C 68.69999999999999,62.899999999999984 68.79999999999998,62.29999999999998 68.99999999999999,61.899999999999984 L 69.09999999999998,61.79999999999998 L 69.0,61.6 L 67.7,60.1 L 67.60000000000001,59.9 L 67.4,60.0 L 63.300000000000004,63.3 L 63.1,63.4 L 63.2,63.6 L 64.4,65.2 M 68.8,65.2 L 69.39999999999999,64.8 L 69.39999999999999,64.8 C 69.49999999999999,64.8 69.49999999999999,64.7 69.6,64.7 C 69.69999999999999,64.7 69.69999999999999,64.7 69.8,64.8 L 69.8,64.8 C 69.8,64.89999999999999 69.89999999999999,64.89999999999999 69.89999999999999,65.0 C 69.89999999999999,65.1 69.89999999999999,65.1 69.8,65.2 L 67.7,66.9 L 67.7,66.9 C 67.60000000000001,66.9 67.60000000000001,67.0 67.5,67.0 C 67.4,67.0 67.4,67.0 67.3,66.9 L 67.3,66.9 C 67.3,66.80000000000001 67.2,66.80000000000001 67.2,66.7 C 67.2,66.60000000000001 67.2,66.60000000000001 67.3,66.5 L 67.3,66.5 L 67.89999999999999,66.0 C 68.1,65.8 67.8,65.5 67.6,65.6 L 67.5,65.69999999999999 L 67.4,65.6 C 67.30000000000001,65.39999999999999 67.10000000000001,65.3 66.9,65.1 L 68.4,63.89999999999999 C 68.5,64.19999999999999 68.60000000000001,64.39999999999999 68.7,64.69999999999999 L 68.5,64.79999999999998 C 68.3,65.0 68.6,65.4 68.8,65.2 M 67.5,60.6 L 68.6,61.800000000000004 L 64.69999999999999,64.80000000000001 L 63.79999999999999,63.60000000000001 L 67.5,60.6 M 62.9,68.5 L 62.9,68.5 L 62.9,68.5 L 62.9,68.5 M 37.8,73.4 L 38.199999999999996,72.5 L 38.599999999999994,72.7 L 38.39999999999999,73.3 L 37.8,73.4 M 85.7,60.6 L 87.3,59.5 L 86.8,61.2 L 85.39999999999999,61.800000000000004 L 83.99999999999999,60.1 L 84.59999999999998,58.800000000000004 L 85.7,60.6 M 77.7,60.6 L 77.0,58.6 L 77.5,58.5 L 77.9,60.0 L 78.80000000000001,59.8 L 79.30000000000001,58.099999999999994 L 80.10000000000001,57.89999999999999 L 79.30000000000001,60.099999999999994 L 77.7,60.6 M 68.2,67.5 L 68.2,67.5 L 67.9,67.1 L 68.30000000000001,66.8 L 68.60000000000001,67.2 L 68.2,67.5 M 88.2,56.8 L 87.7,58.3 L 85.8,59.4 L 84.5,57.199999999999996 L 88.2,56.8 M 66.9,74.9 L 66.5,74.30000000000001 C 70.2,71.00000000000001 73.2,66.80000000000001 75.6,61.60000000000001 L 75.89999999999999,62.30000000000001 C 73.7,67.3 70.6,71.4 66.9,74.9 M 30.3,65.6 L 32.4,67.3 L 32.4,67.3 C 32.6,67.39999999999999 32.8,67.5 32.9,67.5 C 33.1,67.5 33.3,67.4 33.4,67.2 L 33.4,67.2 L 33.4,67.2 C 33.5,67.10000000000001 33.5,66.9 33.5,66.7 C 33.5,66.5 33.4,66.3 33.2,66.2 L 33.2,66.2 L 33.2,66.0 L 33.300000000000004,65.9 C 33.50000000000001,65.60000000000001 33.900000000000006,65.30000000000001 34.300000000000004,65.2 C 34.7,65.10000000000001 35.2,65.10000000000001 35.6,65.3 L 35.800000000000004,65.39999999999999 L 35.900000000000006,65.3 L 37.10000000000001,63.8 L 37.20000000000001,63.599999999999994 L 37.0,63.4 L 32.9,60.1 L 32.699999999999996,60.0 L 32.599999999999994,60.2 L 31.299999999999994,61.7 L 31.199999999999992,61.800000000000004 L 31.299999999999994,61.900000000000006 C 31.499999999999993,62.300000000000004 31.599999999999994,62.900000000000006 31.599999999999994,63.400000000000006 C 31.599999999999994,63.800000000000004 31.499999999999993,64.2 31.299999999999994,64.5 L 31.299999999999994,64.5 L 31.299999999999994,64.5 L 31.299999999999994,64.5 C 31.099999999999994,64.4 30.899999999999995,64.3 30.799999999999994,64.3 C 30.599999999999994,64.3 30.499999999999993,64.39999999999999 30.299999999999994,64.5 L 30.299999999999994,64.5 L 30.299999999999994,64.5 C 30.0,64.7 30.0,64.9 30.0,65.1 C 30.0,65.3 30.1,65.4 30.3,65.6 M 32.8,60.6 L 36.5,63.6 L 35.6,64.8 L 31.700000000000003,61.8 L 32.8,60.6 M 30.5,64.8 L 30.5,64.8 C 30.5,64.7 30.6,64.7 30.7,64.7 C 30.8,64.7 30.8,64.7 30.9,64.8 L 30.9,64.8 L 31.5,65.2 C 31.7,65.4 32.0,65.0 31.8,64.8 L 31.6,64.7 C 31.700000000000003,64.5 31.8,64.2 31.900000000000002,63.900000000000006 L 33.400000000000006,65.10000000000001 C 33.2,65.2 33.00000000000001,65.4 32.900000000000006,65.60000000000001 L 32.800000000000004,65.7 L 32.7,65.60000000000001 C 32.5,65.4 32.2,65.80000000000001 32.400000000000006,66.00000000000001 L 33.00000000000001,66.50000000000001 L 33.00000000000001,66.50000000000001 C 33.10000000000001,66.50000000000001 33.10000000000001,66.60000000000001 33.10000000000001,66.70000000000002 C 33.10000000000001,66.80000000000001 33.10000000000001,66.80000000000001 33.00000000000001,66.90000000000002 L 33.00000000000001,66.90000000000002 C 33.00000000000001,67.00000000000001 32.900000000000006,67.00000000000001 32.800000000000004,67.00000000000001 C 32.7,67.00000000000001 32.7,67.00000000000001 32.6,66.90000000000002 L 32.6,66.90000000000002 L 30.5,65.20000000000002 C 30.4,65.20000000000002 30.4,65.10000000000002 30.4,65.00000000000001 C 30.4,65.0 30.5,64.9 30.5,64.8 M 75.2,61.0 L 75.0,60.6 C 73.7,63.1 72.5,65.3 71.2,67.2 L 71.10000000000001,67.10000000000001 L 71.10000000000001,67.10000000000001 C 71.30000000000001,67.00000000000001 71.4,66.80000000000001 71.4,66.60000000000001 C 71.4,66.4 71.4,66.2 71.2,66.10000000000001 L 71.2,66.10000000000001 L 71.2,66.10000000000001 C 71.10000000000001,66.00000000000001 70.9,65.9 70.7,65.9 C 70.5,65.9 70.3,65.9 70.2,66.10000000000001 L 70.2,66.10000000000001 L 70.2,66.10000000000001 L 70.2,66.10000000000001 L 70.2,66.10000000000001 L 70.2,66.10000000000001 L 69.9,65.7 L 69.5,66.0 L 69.8,66.4 L 68.1,67.80000000000001 L 68.1,67.80000000000001 C 67.89999999999999,67.9 67.8,68.10000000000001 67.8,68.30000000000001 C 67.8,68.50000000000001 67.8,68.60000000000001 67.89999999999999,68.80000000000001 L 67.89999999999999,68.80000000000001 L 67.89999999999999,68.80000000000001 C 67.99999999999999,69.00000000000001 68.19999999999999,69.10000000000001 68.39999999999999,69.10000000000001 C 68.6,69.10000000000001 68.8,69.10000000000001 68.89999999999999,68.9 L 68.89999999999999,68.9 L 68.99999999999999,68.80000000000001 L 69.49999999999999,69.50000000000001 C 67.99999999999999,71.40000000000002 66.59999999999998,72.80000000000001 65.19999999999999,73.90000000000002 L 66.0,74.0 C 70.1,70.3 73.2,66.0 75.2,61.0 M 68.7,68.4 L 68.7,68.4 C 68.60000000000001,68.4 68.60000000000001,68.5 68.5,68.5 C 68.4,68.5 68.4,68.5 68.3,68.4 L 68.3,68.4 C 68.3,68.30000000000001 68.2,68.30000000000001 68.2,68.2 C 68.2,68.10000000000001 68.2,68.10000000000001 68.3,68.0 L 68.3,68.0 L 68.3,68.0 L 70.39999999999999,66.3 L 70.39999999999999,66.3 C 70.49999999999999,66.3 70.49999999999999,66.2 70.6,66.2 C 70.69999999999999,66.2 70.69999999999999,66.2 70.8,66.3 L 70.8,66.3 C 70.8,66.39999999999999 70.89999999999999,66.39999999999999 70.89999999999999,66.5 C 70.89999999999999,66.6 70.89999999999999,66.6 70.8,66.7 L 68.7,68.4 M 69.5,68.4 L 70.8,67.4 L 70.89999999999999,67.60000000000001 C 70.6,68.10000000000001 70.19999999999999,68.50000000000001 69.89999999999999,69.00000000000001 L 69.5,68.4 M 64.2,91.8 L 63.900000000000006,92.2 L 62.7,91.7 L 61.5,92.0 L 63.6,92.7 L 63.0,93.9 C 55.5,91.4 48.1,88.5 40.8,85.5 L 40.3,84.3 C 46.699999999999996,86.89999999999999 53.0,89.3 59.4,91.39999999999999 L 59.3,90.49999999999999 C 53.0,88.59999999999998 45.699999999999996,85.79999999999998 39.699999999999996,83.19999999999999 L 39.8,84.1 L 40.4,85.8 L 40.5,88.2 L 34.9,83.7 L 34.5,84.4 L 40.2,89.30000000000001 L 40.300000000000004,90.20000000000002 L 42.00000000000001,91.10000000000002 L 41.400000000000006,89.40000000000002 C 48.00000000000001,91.90000000000002 55.00000000000001,94.30000000000003 61.60000000000001,96.30000000000003 L 61.20000000000001,97.10000000000002 L 41.8,91.0 L 41.8,92.0 L 41.9,92.0 L 42.5,92.4 L 38.5,94.0 L 37.8,93.6 L 41.199999999999996,91.8 L 40.4,91.6 L 37.5,93.1 L 37.1,92.39999999999999 L 39.6,91.39999999999999 L 38.800000000000004,91.19999999999999 L 36.900000000000006,92.1 L 36.2,91.0 L 37.2,90.7 L 34.900000000000006,89.60000000000001 C 36.2,91.60000000000001 37.00000000000001,93.4 37.60000000000001,95.00000000000001 L 38.70000000000001,95.40000000000002 L 39.80000000000001,98.00000000000001 L 50.40000000000001,94.40000000000002 L 61.5,98.0 L 61.8,97.2 L 61.8,97.2 L 64.89999999999999,91.4 L 63.49999999999999,91.60000000000001 L 64.2,91.8 M 39.2,94.8 L 39.1,94.6 L 43.2,93.0 L 44.7,93.4 L 39.7,95.5 L 39.2,94.8 M 40.5,97.3 L 40.1,96.3 L 39.9,96.39999999999999 L 46.0,93.89999999999999 L 48.3,94.49999999999999 L 40.5,97.3 M 61.8,95.5 C 54.5,93.2 47.9,91.0 41.0,88.0 L 40.7,86.2 C 47.800000000000004,89.2 55.300000000000004,91.9 62.6,94.4 L 61.8,95.5 M 77.2,63.0 L 78.5,62.6 L 79.2,60.9 L 77.3,61.199999999999996 L 76.7,59.8 L 76.0,61.5 L 76.5,62.8 L 76.5,62.8 C 73.8,68.7 70.7,72.7 67.2,75.5 L 67.60000000000001,76.2 C 72.3,72.0 75.3,67.6 77.2,63.0 M 76.4,61.6 L 76.4,61.6 L 76.7,60.800000000000004 L 77.2,61.7 L 78.2,61.5 L 77.8,62.3 L 76.7,62.5 L 76.4,61.6 M 64.2,71.6 C 64.4,71.5 64.5,71.39999999999999 64.60000000000001,71.19999999999999 C 64.7,70.99999999999999 64.7,70.79999999999998 64.60000000000001,70.6 L 64.60000000000001,70.6 L 64.60000000000001,70.6 C 64.50000000000001,70.39999999999999 64.4,70.3 64.2,70.3 C 64.0,70.2 63.800000000000004,70.2 63.6,70.3 L 63.6,70.3 L 63.6,70.3 L 63.4,70.39999999999999 L 63.5,70.3 L 63.5,70.3 L 63.3,69.89999999999999 L 63.4,69.89999999999999 C 63.6,69.8 63.699999999999996,69.69999999999999 63.8,69.49999999999999 C 63.9,69.29999999999998 63.9,69.09999999999998 63.8,68.89999999999999 L 63.8,68.89999999999999 L 63.8,68.89999999999999 C 63.699999999999996,68.69999999999999 63.599999999999994,68.6 63.4,68.6 C 63.199999999999996,68.5 63.0,68.5 62.8,68.6 L 62.8,68.6 L 62.099999999999994,68.89999999999999 C 61.8,68.99999999999999 62.099999999999994,69.39999999999999 62.3,69.3 L 62.9,69.0 L 62.9,69.0 C 63.0,69.0 63.0,69.0 63.1,69.0 C 63.2,69.0 63.2,69.1 63.2,69.1 L 63.2,69.1 C 63.2,69.19999999999999 63.2,69.19999999999999 63.2,69.3 C 63.2,69.39999999999999 63.1,69.39999999999999 63.1,69.39999999999999 L 60.6,70.49999999999999 L 60.6,70.49999999999999 C 60.5,70.49999999999999 60.5,70.49999999999999 60.4,70.49999999999999 C 60.3,70.49999999999999 60.3,70.39999999999999 60.3,70.39999999999999 L 60.3,70.39999999999999 C 60.3,70.3 60.3,70.3 60.3,70.19999999999999 C 60.3,70.1 60.4,70.1 60.4,70.1 L 60.4,70.1 L 61.1,69.8 C 61.4,69.7 61.1,69.3 60.9,69.39999999999999 L 60.199999999999996,69.69999999999999 L 60.199999999999996,69.69999999999999 C 59.99999999999999,69.79999999999998 59.9,69.89999999999999 59.8,70.1 C 59.699999999999996,70.3 59.699999999999996,70.39999999999999 59.8,70.6 L 59.8,70.6 L 59.8,70.6 C 59.9,70.8 60.0,70.89999999999999 60.199999999999996,71.0 C 60.4,71.1 60.599999999999994,71.1 60.8,71.0 L 60.8,71.0 L 60.9,71.0 L 61.1,71.4 L 61.5,71.2 L 61.3,70.8 L 62.699999999999996,70.2 L 62.9,70.60000000000001 L 60.9,71.50000000000001 L 60.9,71.50000000000001 C 60.699999999999996,71.60000000000001 60.6,71.70000000000002 60.5,71.90000000000002 C 60.4,72.10000000000002 60.4,72.20000000000002 60.5,72.40000000000002 L 60.5,72.40000000000002 L 60.5,72.40000000000002 C 60.6,72.60000000000002 60.7,72.70000000000002 60.9,72.80000000000003 C 61.1,72.90000000000002 61.3,72.90000000000002 61.5,72.80000000000003 L 61.5,72.80000000000003 L 61.6,72.80000000000003 L 61.800000000000004,73.40000000000002 L 62.300000000000004,73.50000000000001 L 62.00000000000001,72.60000000000001 L 63.50000000000001,71.9 L 64.30000000000001,73.7 L 64.9,73.8 L 64.2,71.6 L 64.2,71.6 M 64.2,71.1 C 64.2,71.19999999999999 64.10000000000001,71.19999999999999 64.10000000000001,71.19999999999999 L 61.60000000000001,72.29999999999998 L 61.60000000000001,72.29999999999998 C 61.50000000000001,72.29999999999998 61.50000000000001,72.29999999999998 61.400000000000006,72.29999999999998 C 61.300000000000004,72.29999999999998 61.300000000000004,72.19999999999999 61.300000000000004,72.19999999999999 L 61.300000000000004,72.19999999999999 C 61.300000000000004,72.1 61.300000000000004,72.1 61.300000000000004,71.99999999999999 C 61.300000000000004,71.89999999999999 61.400000000000006,71.89999999999999 61.400000000000006,71.89999999999999 L 61.400000000000006,71.89999999999999 L 61.400000000000006,71.89999999999999 L 63.900000000000006,70.8 L 63.900000000000006,70.8 C 64.0,70.8 64.0,70.8 64.10000000000001,70.8 C 64.2,70.8 64.2,70.89999999999999 64.2,70.89999999999999 L 64.2,70.89999999999999 C 64.2,70.9 64.2,71.0 64.2,71.1 M 59.7,87.3 L 59.7,88.1 C 54.800000000000004,86.8 46.900000000000006,83.69999999999999 42.0,81.39999999999999 L 43.0,81.1 C 47.4,83.3 54.7,86.1 59.7,87.3 M 83.0,60.3 L 81.3,60.9 L 80.2,59.5 L 79.5,61.4 L 80.2,62.699999999999996 L 78.60000000000001,66.39999999999999 L 79.50000000000001,66.19999999999999 L 81.10000000000001,62.79999999999999 L 82.10000000000001,62.49999999999999 L 83.0,60.3 M 80.9,62.4 L 80.0,61.1 L 80.4,60.300000000000004 L 81.2,61.400000000000006 L 82.3,61.00000000000001 L 81.8,62.10000000000001 L 80.9,62.4 M 36.3,71.7 L 36.699999999999996,71.9 L 36.699999999999996,71.9 L 35.9,73.80000000000001 L 35.3,73.9 L 36.3,71.7 M 59.4,89.6 C 52.9,87.8 44.0,84.0 39.3,81.7 L 40.599999999999994,81.4 C 46.39999999999999,84.2 54.99999999999999,87.60000000000001 59.8,88.7 L 59.4,89.6 M 78.7,63.1 C 76.3,69.3 72.5,74.1 67.7,77.9 L 68.0,76.80000000000001 L 68.0,76.80000000000001 C 72.2,73.10000000000001 75.4,68.70000000000002 77.8,63.30000000000001 L 78.7,63.1 M 44.6,70.0 C 44.800000000000004,70.4 44.9,70.7 44.9,71.1 L 44.8,71.1 L 44.8,71.1 L 44.8,71.1 C 44.599999999999994,71.1 44.4,71.1 44.3,71.3 C 44.199999999999996,71.39999999999999 44.099999999999994,71.6 44.0,71.7 L 44.0,71.7 L 44.0,71.7 C 44.0,71.9 44.0,72.10000000000001 44.2,72.2 C 44.300000000000004,72.3 44.5,72.4 44.7,72.5 L 44.800000000000004,72.5 L 44.800000000000004,72.6 L 44.800000000000004,72.6 L 45.2,72.6 L 45.2,72.5 L 47.300000000000004,72.7 L 47.300000000000004,72.7 C 47.50000000000001,72.7 47.7,72.7 47.800000000000004,72.5 C 47.900000000000006,72.4 48.00000000000001,72.2 48.1,72.0 L 48.1,71.9 L 48.1,71.9 C 48.1,71.7 48.0,71.60000000000001 47.9,71.4 C 47.8,71.30000000000001 47.6,71.2 47.4,71.10000000000001 L 47.4,71.10000000000001 L 46.699999999999996,71.00000000000001 C 46.4,71.00000000000001 46.4,71.40000000000002 46.699999999999996,71.50000000000001 L 47.4,71.60000000000001 L 47.4,71.60000000000001 C 47.5,71.60000000000001 47.5,71.60000000000001 47.6,71.7 C 47.6,71.8 47.7,71.8 47.7,71.9 L 47.7,71.9 C 47.7,72.0 47.7,72.0 47.6,72.10000000000001 C 47.5,72.10000000000001 47.5,72.2 47.4,72.2 L 47.4,72.2 L 44.7,72.0 C 44.6,72.0 44.6,72.0 44.5,71.9 C 44.5,71.80000000000001 44.4,71.80000000000001 44.4,71.7 L 44.4,71.7 C 44.4,71.60000000000001 44.4,71.60000000000001 44.5,71.5 C 44.6,71.5 44.6,71.4 44.7,71.4 L 44.7,71.4 L 45.400000000000006,71.5 C 45.7,71.5 45.7,71.1 45.50000000000001,71.0 L 45.300000000000004,71.0 C 45.300000000000004,70.7 45.2,70.4 45.2,70.2 L 47.1,70.4 C 47.0,70.60000000000001 47.0,70.80000000000001 46.9,71.10000000000001 L 46.9,71.2 L 47.4,71.3 L 47.4,71.3 L 47.4,71.2 C 47.4,70.8 47.6,70.4 47.9,70.10000000000001 C 48.199999999999996,69.80000000000001 48.6,69.60000000000001 49.1,69.50000000000001 L 49.300000000000004,69.50000000000001 L 49.300000000000004,69.30000000000001 L 49.50000000000001,67.4 L 49.50000000000001,67.2 L 49.300000000000004,67.2 L 44.0,66.4 L 43.8,66.4 L 43.8,66.60000000000001 L 43.5,68.60000000000001 L 43.5,68.80000000000001 L 43.6,68.9 C 44.0,69.1 44.3,69.5 44.6,70.0 M 44.2,66.9 L 49.0,67.5 L 48.8,69.0 L 43.9,68.5 L 44.2,66.9 M 36.9,65.9 L 37.0,66.0 C 37.3,66.4 37.5,66.9 37.6,67.4 C 37.7,67.80000000000001 37.7,68.2 37.6,68.5 L 37.6,68.5 L 37.6,68.5 L 37.6,68.5 C 37.4,68.4 37.2,68.4 37.0,68.5 C 36.8,68.6 36.7,68.7 36.6,68.8 L 36.6,68.8 L 36.6,68.8 C 36.5,69.0 36.5,69.2 36.6,69.39999999999999 C 36.7,69.6 36.800000000000004,69.69999999999999 37.0,69.8 L 39.5,70.89999999999999 L 39.5,70.89999999999999 C 39.7,70.99999999999999 39.9,70.99999999999999 40.1,70.89999999999999 C 40.300000000000004,70.8 40.4,70.69999999999999 40.5,70.49999999999999 L 40.5,70.49999999999999 L 40.5,70.49999999999999 C 40.6,70.29999999999998 40.6,70.19999999999999 40.5,69.99999999999999 C 40.4,69.79999999999998 40.3,69.69999999999999 40.1,69.59999999999998 L 40.1,69.59999999999998 L 40.0,69.49999999999999 L 40.1,69.39999999999999 C 40.300000000000004,68.99999999999999 40.5,68.69999999999999 40.9,68.49999999999999 C 41.3,68.29999999999998 41.699999999999996,68.19999999999999 42.199999999999996,68.29999999999998 L 42.4,68.29999999999998 L 42.5,68.09999999999998 L 43.2,66.29999999999998 L 43.300000000000004,66.09999999999998 L 43.0,66.1 L 38.2,63.89999999999999 L 38.0,63.8 L 37.9,64.0 L 37.0,65.8 L 36.9,65.9 M 40.0,70.2 C 40.0,70.3 40.0,70.3 40.0,70.4 L 40.0,70.4 C 40.0,70.5 39.9,70.5 39.9,70.5 C 39.8,70.5 39.8,70.5 39.699999999999996,70.5 L 39.699999999999996,70.5 L 37.199999999999996,69.4 C 37.099999999999994,69.4 37.099999999999994,69.30000000000001 37.099999999999994,69.30000000000001 C 37.099999999999994,69.20000000000002 37.099999999999994,69.20000000000002 37.099999999999994,69.10000000000001 L 37.099999999999994,69.10000000000001 C 37.099999999999994,69.00000000000001 37.199999999999996,69.00000000000001 37.199999999999996,69.00000000000001 C 37.3,69.00000000000001 37.3,69.00000000000001 37.4,69.00000000000001 L 37.4,69.00000000000001 L 38.0,69.30000000000001 C 38.2,69.4 38.5,69.00000000000001 38.2,68.9 L 38.0,68.7 C 38.1,68.4 38.1,68.2 38.1,67.9 L 39.800000000000004,68.7 C 39.7,68.9 39.50000000000001,69.10000000000001 39.400000000000006,69.3 L 39.400000000000006,69.39999999999999 L 39.300000000000004,69.39999999999999 C 39.1,69.3 38.900000000000006,69.69999999999999 39.1,69.8 L 39.800000000000004,70.1 L 39.800000000000004,70.1 C 39.9,70.1 40.0,70.2 40.0,70.2 M 38.2,64.4 L 42.6,66.4 L 42.0,67.8 L 37.5,65.8 L 38.2,64.4 M 79.2,21.8 L 78.4,22.1 C 71.5,15.400000000000002 64.60000000000001,11.200000000000001 57.50000000000001,9.500000000000002 L 58.300000000000004,8.800000000000002 C 67.6,11.6 74.1,16.2 79.2,21.8 M 80.9,26.3 L 79.7,26.2 L 80.60000000000001,27.9 L 81.80000000000001,28.099999999999998 L 82.10000000000001,26.7 L 81.10000000000001,24.9 L 80.9,26.3 M 82.3,29.0 L 81.2,28.6 L 81.9,30.200000000000003 L 83.30000000000001,30.800000000000004 L 83.70000000000002,29.500000000000004 L 82.80000000000001,27.100000000000005 L 82.3,29.0 M 83.8,31.7 L 82.39999999999999,31.4 L 83.39999999999999,33.5 L 84.69999999999999,33.8 L 85.19999999999999,32.4 L 84.29999999999998,30.599999999999998 L 83.8,31.7 M 77.3,23.9 L 77.1,22.099999999999998 C 71.39999999999999,16.599999999999998 64.5,12.299999999999997 56.699999999999996,10.099999999999998 L 55.9,10.799999999999997 C 63.4,12.4 70.7,16.9 77.3,23.9 M 54.4,11.5 L 55.8,18.0 L 50.199999999999996,14.5 L 44.4,17.8 L 46.0,11.3 L 41.0,7.1 L 47.2,6.199999999999999 L 47.2,6.199999999999999 L 50.2,-8.881784197001252e-16 L 53.0,6.3999999999999995 L 59.6,7.199999999999999 L 54.4,11.5 M 53.7,11.2 L 58.1,7.499999999999999 L 52.5,6.8999999999999995 L 50.1,1.4999999999999991 L 47.6,6.799999999999999 L 47.6,6.799999999999999 L 42.4,7.599999999999999 L 46.6,11.2 L 45.300000000000004,16.7 L 50.300000000000004,13.899999999999999 L 55.1,16.799999999999997 L 53.7,11.2 M 78.4,25.7 L 79.5,27.7 L 79.0,29.4 L 77.2,28.7 L 76.2,27.2 L 76.3,26.2 C 70.9,19.1 63.9,14.3 55.2,12.0 L 55.0,11.4 L 55.2,11.200000000000001 C 67.5,15.200000000000001 72.6,20.200000000000003 76.80000000000001,25.4 L 78.4,25.7 M 78.8,27.8 L 77.8,26.1 L 76.89999999999999,26.0 L 76.8,27.2 L 76.8,27.2 L 77.39999999999999,28.099999999999998 L 78.69999999999999,28.499999999999996 L 78.8,27.8 M 79.1,30.1 L 80.0,28.3 L 81.2,30.7 L 80.2,33.1 L 77.0,31.3 C 76.0,28.900000000000002 74.0,25.9 72.3,24.0 C 67.6,18.9 62.099999999999994,15.6 55.599999999999994,13.7 L 55.4,13.0 C 63.1,15.1 67.9,18.5 71.7,22.4 C 73.9,24.7 75.4,26.799999999999997 76.8,29.099999999999998 L 79.1,30.1 M 78.9,30.3 L 76.80000000000001,29.3 L 77.30000000000001,30.400000000000002 L 78.50000000000001,31.000000000000004 L 78.9,30.3 M 80.0,29.5 L 79.0,31.4 L 79.0,31.4 L 80.0,31.9 L 80.5,30.599999999999998 L 80.0,29.5 M 70.1,12.8 C 69.8,12.600000000000001 69.19999999999999,12.4 68.89999999999999,12.700000000000001 L 68.39999999999999,13.100000000000001 L 68.89999999999999,13.400000000000002 L 69.19999999999999,13.100000000000001 C 69.39999999999999,12.900000000000002 69.69999999999999,13.100000000000001 69.79999999999998,13.200000000000001 C 84.7,22.9 89.0,36.1 89.2,50.4 L 89.9,50.199999999999996 C 89.2,35.0 84.3,21.4 70.1,12.8 M 69.5,27.2 C 75.2,33.1 77.2,41.8 77.1,52.0 L 76.6,52.1 C 76.6,43.2 75.1,34.6 69.0,27.3 C 68.8,27.1 68.7,26.7 68.9,26.400000000000002 L 69.4,25.8 C 65.9,21.700000000000003 61.60000000000001,18.4 56.2,16.6 L 56.0,15.9 C 61.9,17.6 67.9,22.1 73.8,30.5 L 74.1,29.4 C 69.19999999999999,21.9 62.8,17.7 55.8,15.099999999999998 L 55.599999999999994,14.399999999999999 C 63.3,17.099999999999998 70.0,21.299999999999997 74.6,29.2 L 75.5,29.599999999999998 L 76.3,31.2 L 75.7,33.1 L 74.2,32.7 C 72.8,30.500000000000004 71.4,28.300000000000004 69.7,26.400000000000002 L 69.4,26.700000000000003 C 69.3,26.7 69.4,27.0 69.5,27.2 M 74.1,31.1 L 74.69999999999999,32.1 L 75.39999999999999,32.2 L 75.69999999999999,31.300000000000004 L 75.1,30.200000000000003 L 74.5,30.000000000000004 L 74.1,31.1 M 69.7,26.1 L 69.7,26.1 C 69.7,26.2 69.7,26.2 69.7,26.1 M 84.9,34.9 L 83.7,34.3 L 84.2,36.3 L 85.5,36.9 L 86.1,35.699999999999996 L 85.6,33.4 L 84.9,34.9 M 85.7,37.7 L 84.4,37.1 L 84.9,39.0 L 86.30000000000001,39.6 L 87.00000000000001,38.2 L 86.50000000000001,36.300000000000004 L 85.7,37.7 M 85.4,41.6 L 86.7,42.300000000000004 L 87.5,41.2 L 87.4,39.300000000000004 L 86.5,40.800000000000004 L 85.0,39.9 L 85.4,41.6 M 86.9,45.2 L 87.9,43.900000000000006 L 87.7,42.0 L 86.7,43.4 L 85.60000000000001,42.6 L 85.80000000000001,44.5 L 86.9,45.2 M 87.4,48.5 L 88.30000000000001,47.3 L 88.10000000000001,44.8 L 86.9,46.4 L 85.80000000000001,45.5 L 86.00000000000001,48.0 L 87.4,48.5 M 87.4,49.4 L 86.0,48.5 L 86.2,50.8 L 88.5,50.8 L 88.4,48.099999999999994 L 87.4,49.4 M 79.9,38.1 L 79.9,38.1 L 79.30000000000001,35.9 L 81.60000000000001,36.9 L 82.80000000000001,34.6 L 83.60000000000001,37.0 L 82.4,39.5 L 79.9,38.1 M 81.2,38.1 L 82.3,38.7 L 82.3,38.7 L 83.0,37.2 L 82.5,35.800000000000004 L 81.2,38.1 M 80.4,37.8 L 80.7,38.0 L 81.2,37.1 L 79.7,36.5 L 80.4,37.8 M 82.4,33.7 L 81.2,35.900000000000006 L 78.8,35.2 L 78.1,32.900000000000006 L 80.3,33.800000000000004 L 81.5,31.300000000000004 L 82.4,33.7 M 79.8,35.0 L 80.2,34.0 L 80.2,34.0 L 79.0,33.5 L 79.4,34.8 L 79.8,35.0 M 81.8,33.8 L 81.3,32.599999999999994 L 80.1,35.099999999999994 L 81.0,35.39999999999999 L 81.8,33.8 M 81.3,50.4 L 81.3,51.3 L 82.2,51.199999999999996 L 82.2,51.199999999999996 L 81.3,50.4 M 81.1,46.0 L 80.6,42.6 L 83.1,44.2 L 84.5,42.300000000000004 L 84.9,45.300000000000004 L 83.2,47.50000000000001 L 83.2,47.50000000000001 L 81.1,46.0 M 82.2,46.0 L 83.2,46.7 L 83.2,46.7 L 84.3,45.300000000000004 L 84.1,43.50000000000001 L 82.2,46.0 M 81.3,43.3 L 81.39999999999999,45.5 L 81.6,45.7 L 82.5,44.2 L 81.3,43.3 M 85.1,46.2 L 85.5,49.6 L 84.6,50.7 L 82.8,51.0 L 82.8,51.0 L 81.2,49.6 L 81.0,46.8 L 83.4,48.5 L 85.1,46.2 M 82.1,49.7 L 82.8,48.6 L 81.5,47.6 L 81.7,49.4 L 82.1,49.7 M 84.7,49.6 L 84.5,47.7 L 82.8,50.0 L 83.89999999999999,50.7 L 84.7,49.6 M 80.5,41.5 L 80.0,38.9 L 82.5,40.4 L 83.9,38.199999999999996 L 84.4,40.99999999999999 L 83.30000000000001,43.199999999999996 L 83.30000000000001,43.199999999999996 L 80.5,41.5 M 82.0,41.7 L 83.1,42.300000000000004 L 83.69999999999999,41.2 L 83.39999999999999,39.5 L 82.0,41.7 M 80.6,39.7 L 81.1,41.400000000000006 L 81.3,41.50000000000001 L 81.89999999999999,40.50000000000001 L 80.6,39.7 M 80.5,48.1 L 80.5,51.300000000000004 L 77.5,51.800000000000004 L 80.5,48.1 M 80.2,50.6 L 80.2,49.300000000000004 L 78.60000000000001,51.400000000000006 L 79.60000000000001,51.400000000000006 L 80.2,50.6 M 77.7,47.8 L 77.5,45.5 L 78.8,46.6 L 80.1,45.0 L 80.3,47.4 L 79.1,48.9 L 79.1,48.9 L 77.7,47.8 M 78.3,47.7 L 79.0,48.1 L 79.9,47.0 L 79.80000000000001,45.7 L 78.3,47.7 M 77.8,46.1 L 77.89999999999999,47.300000000000004 L 78.1,47.400000000000006 L 78.1,47.400000000000006 L 78.6,46.7 L 77.8,46.1 M 79.0,45.5 L 77.6,44.5 L 77.0,41.8 L 78.5,42.699999999999996 L 79.7,41.199999999999996 L 80.10000000000001,43.9 L 79.0,45.5 L 79.0,45.5 M 77.7,43.9 L 78.3,43.0 L 77.39999999999999,42.5 L 77.6,43.9 L 77.7,43.9 M 78.7,45.0 L 79.7,43.7 L 79.2,42.300000000000004 L 77.8,44.400000000000006 L 78.7,45.0 M 76.1,37.5 L 75.6,35.9 L 77.0,36.4 L 78.0,34.5 L 78.6,36.5 L 77.6,38.6 L 76.1,37.5 M 77.2,36.7 L 77.60000000000001,38.0 L 78.30000000000001,36.6 L 78.0,35.4 L 77.2,36.7 M 76.0,36.4 L 76.3,37.3 L 77.3,38.0 L 76.89999999999999,36.7 L 76.0,36.4 M 79.5,39.9 L 78.5,41.699999999999996 L 78.5,41.699999999999996 L 76.7,40.599999999999994 L 76.3,38.3 L 78.0,39.199999999999996 L 79.0,37.49999999999999 L 79.5,39.9 M 77.2,40.6 L 77.60000000000001,39.7 L 76.60000000000001,39.1 L 76.9,40.4 L 77.2,40.6 M 79.0,39.9 L 78.6,38.8 L 77.39999999999999,40.8 L 78.1,41.3 L 79.0,39.9 M 77.7,33.8 L 76.7,35.9 L 75.2,35.199999999999996 L 74.60000000000001,33.4 L 76.00000000000001,33.8 L 76.60000000000001,31.999999999999996 L 77.7,33.8 M 76.4,35.3 L 76.0,34.1 L 75.1,33.800000000000004 L 75.5,34.900000000000006 L 76.4,35.3 M 77.3,33.8 L 76.7,32.8 L 76.3,34.0 L 76.7,35.2 L 77.3,33.8 M 77.9,50.8 L 77.80000000000001,48.5 L 78.80000000000001,49.4 L 78.80000000000001,49.4 L 77.9,50.8 M 78.0,49.0 L 78.1,50.2 L 78.5,49.400000000000006 L 78.0,49.0 M 21.0,21.8 L 21.8,22.1 C 28.700000000000003,15.400000000000002 35.6,11.200000000000001 42.7,9.500000000000002 L 42.0,8.8 C 32.6,11.6 26.1,16.3 21.0,21.8 M 19.8,25.4 L 21.1,25.4 L 21.900000000000002,24.2 L 21.900000000000002,22.599999999999998 L 20.400000000000002,22.7 L 19.500000000000004,23.9 L 19.8,25.4 M 18.3,28.0 L 19.5,27.8 L 20.4,26.1 L 19.2,26.200000000000003 L 19.0,24.8 L 18.0,26.6 L 18.3,28.0 M 22.9,23.9 C 29.5,16.799999999999997 36.8,12.399999999999999 44.3,10.7 L 43.4,10.0 C 35.699999999999996,12.3 28.799999999999997,16.5 23.0,22.0 L 22.9,23.9 M 20.7,27.7 L 21.2,29.4 L 23.0,28.7 L 24.0,27.2 L 23.9,26.2 C 29.3,19.1 36.3,14.3 45.0,12.0 L 45.1,11.4 L 44.9,11.200000000000001 C 32.599999999999994,15.200000000000001 27.5,20.200000000000003 23.299999999999997,25.4 L 21.699999999999996,25.599999999999998 L 20.7,27.7 M 23.5,27.1 L 23.4,26.0 L 22.5,26.1 L 21.5,27.8 L 21.6,28.400000000000002 L 22.900000000000002,28.000000000000004 L 23.5,27.1 M 18.2,30.3 L 18.9,28.7 L 17.799999999999997,29.099999999999998 L 17.299999999999997,27.2 L 16.4,29.599999999999998 L 16.799999999999997,30.9 L 18.2,30.3 M 15.5,33.8 L 16.8,33.5 L 17.8,31.4 L 16.400000000000002,31.7 L 15.900000000000002,30.5 L 15.0,32.3 L 15.5,33.8 M 23.4,29.0 L 21.099999999999998,30.1 L 20.2,28.3 L 19.0,30.6 L 20.0,33.0 L 23.2,31.2 C 24.2,28.8 26.2,25.799999999999997 27.9,23.9 C 32.6,18.799999999999997 38.099999999999994,15.499999999999998 44.599999999999994,13.7 L 44.699999999999996,13.0 C 36.99999999999999,15.1 32.199999999999996,18.5 28.399999999999995,22.4 C 26.3,24.6 24.8,26.7 23.4,29.0 L 23.4,29.0 M 22.9,30.5 L 23.4,29.4 L 21.299999999999997,30.4 L 21.699999999999996,31.2 L 22.9,30.5 M 21.2,31.5 L 20.3,29.6 L 19.7,30.8 L 20.2,32.1 L 21.2,31.5 M 23.8,31.1 L 24.400000000000002,33.0 L 25.900000000000002,32.6 C 30.300000000000004,25.400000000000002 35.800000000000004,19.400000000000002 43.900000000000006,16.700000000000003 L 44.00000000000001,16.000000000000004 C 38.10000000000001,17.700000000000003 32.10000000000001,22.200000000000003 26.200000000000006,30.6 L 26.0,29.4 C 30.9,21.9 37.3,17.7 44.3,15.099999999999998 L 44.5,14.399999999999999 C 36.8,17.099999999999998 30.1,21.299999999999997 25.5,29.2 L 24.6,29.599999999999998 L 23.8,31.1 L 23.8,31.1 M 25.5,32.0 L 26.1,31.0 L 25.700000000000003,29.8 L 25.1,30.0 L 24.5,31.1 L 24.8,32.0 L 25.5,32.0 L 25.5,32.0 M 31.3,13.4 L 31.8,13.1 L 31.3,12.7 C 31.0,12.399999999999999 30.400000000000002,12.6 30.1,12.799999999999999 C 15.9,21.4 11.0,35.0 10.3,50.2 L 11.0,50.800000000000004 C 11.2,36.400000000000006 15.5,22.900000000000006 30.3,13.100000000000001 C 30.5,13.000000000000002 30.8,12.900000000000002 30.900000000000002,13.000000000000002 L 31.3,13.4 M 30.8,25.8 L 30.5,26.2 L 30.8,26.5 C 30.900000000000002,26.7 30.900000000000002,27.0 30.7,27.2 C 25.0,33.1 23.0,42.0 23.1,52.099999999999994 L 23.6,52.199999999999996 C 23.6,43.3 25.1,34.599999999999994 31.200000000000003,27.299999999999997 C 31.400000000000002,27.099999999999998 31.500000000000004,26.699999999999996 31.300000000000004,26.4 L 30.8,25.8 M 14.6,36.9 L 15.9,36.3 L 16.4,34.3 L 15.2,34.9 L 14.399999999999999,33.4 L 14.0,35.7 L 14.6,36.9 M 13.9,39.7 L 15.3,39.1 L 15.8,37.2 L 14.5,37.800000000000004 L 13.8,36.400000000000006 L 13.3,38.300000000000004 L 13.9,39.7 M 13.5,42.3 L 14.8,41.599999999999994 L 15.200000000000001,39.89999999999999 L 13.8,40.79999999999999 L 12.9,39.29999999999999 L 12.8,41.19999999999999 L 13.5,42.3 M 13.3,45.2 L 14.4,44.5 L 14.6,42.6 L 13.5,43.4 L 12.5,42.0 L 12.3,43.9 L 13.3,45.2 M 12.8,48.5 L 14.200000000000001,47.9 L 14.4,45.4 L 13.3,46.3 L 12.100000000000001,44.699999999999996 L 11.900000000000002,47.199999999999996 L 12.8,48.5 M 11.8,48.1 L 11.700000000000001,50.6 L 14.100000000000001,50.800000000000004 L 14.3,48.50000000000001 L 12.9,49.400000000000006 L 11.8,48.1 M 18.0,51.1 L 18.9,51.2 L 18.9,50.300000000000004 C 18.9,50.4 18.0,51.1 18.0,51.1 M 17.4,51.0 L 19.0,49.6 L 19.2,46.7 L 16.8,48.400000000000006 L 15.100000000000001,46.2 L 14.700000000000001,49.6 L 15.600000000000001,50.7 C 15.6,50.7 17.4,51.0 17.4,51.0 M 16.4,50.7 L 17.5,50.0 L 15.8,47.7 L 15.600000000000001,49.6 L 16.4,50.7 M 17.4,48.6 L 18.099999999999998,49.7 L 18.499999999999996,49.400000000000006 L 18.699999999999996,47.60000000000001 C 18.6,47.6 17.4,48.6 17.4,48.6 M 16.9,47.5 L 19.099999999999998,46.0 L 19.599999999999998,42.6 L 17.099999999999998,44.2 L 15.699999999999998,42.300000000000004 L 15.299999999999997,45.300000000000004 L 16.9,47.5 L 16.9,47.5 M 17.0,46.8 L 18.0,46.099999999999994 L 16.1,43.599999999999994 L 15.900000000000002,45.39999999999999 L 17.0,46.8 M 18.8,45.5 L 18.900000000000002,43.3 L 17.6,44.099999999999994 L 18.5,45.599999999999994 L 18.8,45.5 M 16.9,43.2 L 19.7,41.6 L 20.2,39.0 L 17.7,40.5 L 16.3,38.3 L 15.8,41.099999999999994 L 16.9,43.2 L 16.9,43.2 M 17.1,42.3 L 18.200000000000003,41.699999999999996 L 16.800000000000004,39.49999999999999 L 16.500000000000004,41.199999999999996 C 16.5,41.2 17.1,42.3 17.1,42.3 M 18.2,40.5 L 18.8,41.5 L 19.0,41.4 L 19.5,39.699999999999996 L 18.2,40.5 L 18.2,40.5 M 20.3,38.1 L 20.900000000000002,35.9 L 18.6,36.9 L 17.400000000000002,34.6 L 16.6,37.0 L 17.8,39.5 L 20.3,38.1 L 20.3,38.1 M 17.9,38.7 L 19.0,38.1 L 17.7,35.800000000000004 L 17.2,37.2 L 17.9,38.7 L 17.9,38.7 M 19.0,37.1 L 19.5,38.0 L 19.8,37.8 L 20.400000000000002,36.5 L 19.0,37.1 L 19.0,37.1 M 18.9,35.9 L 21.299999999999997,35.199999999999996 L 21.999999999999996,32.9 L 19.799999999999997,33.8 L 18.599999999999998,31.299999999999997 L 17.7,33.699999999999996 L 18.9,35.9 L 18.9,35.9 M 19.2,35.4 L 20.099999999999998,35.1 L 18.9,32.6 L 18.4,33.800000000000004 L 19.2,35.4 M 20.0,34.0 L 20.4,35.0 L 20.799999999999997,34.9 L 21.199999999999996,33.6 L 20.0,34.0 M 22.1,47.4 L 22.3,47.3 L 22.400000000000002,46.099999999999994 L 21.6,46.699999999999996 L 22.1,47.4 L 22.1,47.4 M 21.0,48.8 L 22.4,47.8 L 22.599999999999998,45.5 L 21.299999999999997,46.6 L 20.0,44.9 L 19.8,47.3 L 21.0,48.8 M 20.3,47.1 L 21.2,48.2 L 21.9,47.800000000000004 L 20.4,45.900000000000006 L 20.3,47.1 L 20.3,47.1 M 21.2,45.6 L 22.599999999999998,44.6 L 23.2,41.800000000000004 L 21.7,42.7 L 20.5,41.2 L 20.1,44.0 L 21.2,45.6 L 21.2,45.6 M 21.4,49.4 L 22.299999999999997,50.8 L 22.4,48.5 L 21.4,49.4 L 21.4,49.4 M 22.6,51.8 L 19.700000000000003,48.199999999999996 L 19.700000000000003,51.4 L 22.6,51.8 M 20.7,51.3 L 21.7,51.3 L 20.099999999999998,49.199999999999996 L 20.099999999999998,50.49999999999999 L 20.7,51.3 M 22.3,44.5 L 21.0,42.4 L 20.5,43.8 L 21.5,45.099999999999994 L 22.3,44.5 M 22.6,43.8 L 22.8,42.4 L 21.900000000000002,42.9 L 22.500000000000004,43.8 L 22.6,43.8 M 22.0,41.2 L 22.7,40.7 L 21.5,38.7 L 21.1,39.800000000000004 L 22.0,41.2 L 22.0,41.2 M 21.7,41.7 L 23.5,40.6 L 23.9,38.300000000000004 L 22.2,39.2 L 21.2,37.5 L 20.7,39.8 L 21.7,41.7 L 21.7,41.7 M 22.6,39.7 L 23.0,40.6 L 23.3,40.5 L 23.6,39.2 L 22.6,39.7 L 22.6,39.7 M 21.9,36.7 L 22.599999999999998,38.1 L 22.999999999999996,36.800000000000004 L 22.199999999999996,35.50000000000001 L 21.9,36.7 L 21.9,36.7 M 22.5,38.7 L 24.0,37.5 L 24.5,35.9 L 23.1,36.4 L 22.1,34.5 L 21.5,36.5 L 22.5,38.7 L 22.5,38.7 M 23.9,37.4 L 24.2,36.5 L 23.4,36.8 L 23.0,38.099999999999994 L 23.9,37.4 M 24.9,35.2 L 25.5,33.400000000000006 L 24.1,33.800000000000004 L 23.5,32.00000000000001 L 22.5,33.900000000000006 L 23.5,36.00000000000001 L 24.9,35.2 L 24.9,35.2 M 23.5,35.2 L 23.9,34.0 L 23.5,32.8 L 22.9,33.8 L 23.5,35.2 M 25.1,33.9 L 24.200000000000003,34.199999999999996 L 23.800000000000004,35.4 L 24.700000000000003,35.1 L 25.1,33.9 L 25.1,33.9 M 22.1,50.2 L 22.200000000000003,49.0 L 21.700000000000003,49.4 L 22.1,50.2" fill="#4997d0" stroke="none" stroke-width="0px" /><path d="M 11.7,57.0 L 10.7,57.2 L 9.7,56.6 L 4.3999999999999995,53.2 L 8.2,52.6 L 6.699999999999999,48.1 L 10.7,50.300000000000004 L 15.0,50.6 L 23.3,51.9 L 26.1,54.0 L 26.0,60.1 L 25.0,60.800000000000004 L 24.8,61.0 L 23.8,58.8 C 20.0,58.0 15.8,57.3 11.7,57.0 M 91.7,52.7 L 93.2,48.2 L 89.2,50.400000000000006 L 84.9,50.7 L 76.60000000000001,52.0 L 73.8,54.0 L 73.89999999999999,60.1 L 74.89999999999999,60.800000000000004 L 75.3,61.00000000000001 L 76.3,58.800000000000004 C 80.1,58.00000000000001 84.3,57.300000000000004 88.39999999999999,57.00000000000001 L 89.39999999999999,57.20000000000001 L 90.39999999999999,56.60000000000001 L 95.69999999999999,53.20000000000001 L 91.7,52.7 M 88.7,57.2 L 86.2,64.10000000000001 L 77.8,66.60000000000001 C 75.2,71.7 71.7,75.60000000000001 67.39999999999999,78.80000000000001 L 67.99999999999999,76.9 L 66.3,74.0 C 55.599999999999994,71.9 45.0,71.9 34.5,74.0 L 32.0,77.0 L 32.9,79.9 L 32.9,79.9 L 32.699999999999996,79.4 C 28.899999999999995,76.30000000000001 25.199999999999996,73.0 22.399999999999995,66.9 L 19.0,66.2 L 16.7,65.5 L 15.0,65.1 L 14.4,64.89999999999999 C 13.200000000000001,62.29999999999999 12.2,59.79999999999999 11.7,57.19999999999999 L 11.0,57.3 C 11.5,59.599999999999994 12.1,61.4 12.7,62.8 C 12.1,63.4 11.1,64.39999999999999 11.5,65.3 L 14.6,72.1 L 17.2,73.19999999999999 C 21.9,80.39999999999999 31.7,89.19999999999999 38.5,91.1 L 42.0,92.1 L 41.8,91.1 L 41.8,91.1 L 41.5,89.89999999999999 C 40.8,86.69999999999999 40.7,84.99999999999999 39.5,81.89999999999999 C 41.5,81.6 46.6,80.89999999999999 50.2,80.8 L 50.2,80.8 C 53.6,80.7 58.6,81.3 60.7,81.6 C 60.1,83.39999999999999 59.5,87.3 59.2,89.6 L 59.0,89.69999999999999 L 59.0,89.69999999999999 L 59.1,90.29999999999998 C 59.1,90.39999999999998 59.1,90.49999999999999 59.1,90.49999999999999 L 59.1,90.49999999999999 L 59.2,91.39999999999999 L 61.400000000000006,92.1 L 64.9,91.5 L 65.60000000000001,89.8 C 73.30000000000001,86.1 79.7,81.0 83.60000000000001,73.1 L 85.9,72.0 L 89.0,65.0 C 89.3,64.3 88.6,63.4 88.0,62.8 C 87.9,62.699999999999996 89.2,57.599999999999994 89.2,57.599999999999994 L 88.7,57.2" fill="#760188" stroke="none" stroke-width="0px" /></g></svg>