<?xml version="1.0" encoding="utf-8" ?>
<svg baseProfile="full" height="100px" version="1.1" width="150px" xmlns="http://www.w3.org/2000/svg" xmlns:ev="http://www.w3.org/2001/xml-events" xmlns:xlink="http://www.w3.org/1999/xlink"><defs><clipPath id="mask0"><rect height="100" width="150" x="0" y="0" /></clipPath></defs><g clip-path="url(#mask0)"><rect fill="#ffce00" height="33.333333333333336" stroke="none" width="13.636363636363637" x="0.0" y="0.0" /><rect fill="#009966" height="33.333333333333336" stroke="none" width="13.636363636363637" x="0.0" y="33.333333333333336" /><rect fill="#0099cc" height="33.333333333333336" stroke="none" width="13.636363636363637" x="0.0" y="66.66666666666667" /><rect fill="#760188" height="33.333333333333336" stroke="none" width="13.636363636363637" x="13.636363636363637" y="0.0" /><rect fill="#603814" height="33.333333333333336" stroke="none" width="13.636363636363637" x="13.636363636363637" y="33.333333333333336" /><rect fill="#CB001E" height="33.333333333333336" stroke="none" width="13.636363636363637" x="13.636363636363637" y="66.66666666666667" /><rect fill="#ff6602" height="33.333333333333336" stroke="none" width="13.636363636363637" x="27.272727272727273" y="0.0" /><rect fill="#fec50c" height="33.333333333333336" stroke="none" width="13.636363636363637" x="27.272727272727273" y="33.333333333333336" /><rect fill="#007e3a" height="33.333333333333336" stroke="none" width="13.636363636363637" x="27.272727272727273" y="66.66666666666667" /><rect fill="#3366cc" height="33.333333333333336" stroke="none" width="13.636363636363637" x="40.90909090909091" y="0.0" /><rect fill="#760188" height="33.333333333333336" stroke="none" width="13.636363636363637" x="40.90909090909091" y="33.333333333333336" /><rect fill="#784f16" height="33.333333333333336" stroke="none" width="13.636363636363637" x="40.90909090909091" y="66.66666666666667" /><rect fill="#993332" height="33.333333333333336" stroke="none" width="13.636363636363637" x="54.54545454545455" y="0.0" /><rect fill="#ff9932" height="33.333333333333336" stroke="none" width="13.636363636363637" x="54.54545454545455" y="33.333333333333336" /><rect fill="#fdef42" height="33.333333333333336" stroke="none" width="13.636363636363637" x="54.54545454545455" y="66.66666666666667" /><rect fill="#3e9a00" height="33.333333333333336" stroke="none" width="13.636363636363637" x="68.18181818181819" y="0.0" /><rect fill="#003897" height="33.333333333333336" stroke="none" width="13.636363636363637" x="68.18181818181819" y="33.333333333333336" /><rect fill="#630356" height="33.333333333333336" stroke="none" width="13.636363636363637" x="68.18181818181819" y="66.66666666666667" /><rect fill="#784f16" height="33.333333333333336" stroke="none" width="13.636363636363637" x="81.81818181818181" y="0.0" /><rect fill="#cc0000" height="33.333333333333336" stroke="none" width="13.636363636363637" x="81.81818181818181" y="33.333333333333336" /><rect fill="#ff9932" height="33.333333333333336" stroke="none" width="13.636363636363637" x="81.81818181818181" y="66.66666666666667" /><rect fill="#ffce00" height="33.333333333333336" stroke="none" width="13.636363636363637" x="95.45454545454545" y="0.0" /><rect fill="#009966" height="33.333333333333336" stroke="none" width="13.636363636363637" x="95.45454545454545" y="33.333333333333336" /><rect fill="#6699ff" height="33.333333333333336" stroke="none" width="13.636363636363637" x="95.45454545454545" y="66.66666666666667" /><rect fill="#630356" height="33.333333333333336" stroke="none" width="13.636363636363637" x="109.0909090909091" y="0.0" /><rect fill="#784f16" height="33.333333333333336" stroke="none" width="13.636363636363637" x="109.0909090909091" y="33.333333333333336" /><rect fill="#990000" height="33.333333333333336" stroke="none" width="13.636363636363637" x="109.0909090909091" y="66.66666666666667" /><rect fill="#cc6600" height="33.333333333333336" stroke="none" width="13.636363636363637" x="122.72727272727273" y="0.0" /><rect fill="#ffce00" height="33.333333333333336" stroke="none" width="13.636363636363637" x="122.72727272727273" y="33.333333333333336" /><rect fill="#007934" height="33.333333333333336" stroke="none" width="13.636363636363637" x="122.72727272727273" y="66.66666666666667" /><rect fill="#00008b" height="33.333333333333336" stroke="none" width="13.636363636363637" x="136.36363636363637" y="0.0" /><rect fill="#925394" height="33.333333333333336" stroke="none" width="13.636363636363637" x="136.36363636363637" y="33.333333333333336" /><rect fill="#935316" height="33.333333333333336" stroke="none" width="13.636363636363637" x="136.36363636363637" y="66.66666666666667" /><path d="M0,0 L86.60254037844386,50.0 L0,100" fill="none" stroke="#ff9932" stroke-width="11.511321679599112" /><path d="M0,0 L86.60254037844386,50.0 L0,100 z" fill="#cc3333" stroke="none" /></g><g id="empty" /></svg>