<?xml version="1.0" encoding="utf-8" ?>
<svg baseProfile="full" height="100px" version="1.1" width="150px" xmlns="http://www.w3.org/2000/svg" xmlns:ev="http://www.w3.org/2001/xml-events" xmlns:xlink="http://www.w3.org/1999/xlink"><defs><clipPath id="mask0"><rect height="100" width="150" x="0" y="0" /></clipPath></defs><g clip-path="url(#mask0)"><rect fill="#ff6602" height="33.333333333333336" stroke="none" width="15.0" x="0.0" y="0.0" /><rect fill="#ffffff" height="33.333333333333336" stroke="none" width="15.0" x="0.0" y="33.333333333333336" /><rect fill="#ff6602" height="33.333333333333336" stroke="none" width="15.0" x="0.0" y="66.66666666666667" /><rect fill="#ffffff" height="33.333333333333336" stroke="none" width="15.0" x="15.0" y="0.0" /><rect fill="#ff6602" height="33.333333333333336" stroke="none" width="15.0" x="15.0" y="33.333333333333336" /><rect fill="#ffffff" height="33.333333333333336" stroke="none" width="15.0" x="15.0" y="66.66666666666667" /><rect fill="#ff6602" height="33.333333333333336" stroke="none" width="15.0" x="30.0" y="0.0" /><rect fill="#ffffff" height="33.333333333333336" stroke="none" width="15.0" x="30.0" y="33.333333333333336" /><rect fill="#ff6602" height="33.333333333333336" stroke="none" width="15.0" x="30.0" y="66.66666666666667" /><rect fill="#ffffff" height="33.333333333333336" stroke="none" width="15.0" x="45.0" y="0.0" /><rect fill="#ff6602" height="33.333333333333336" stroke="none" width="15.0" x="45.0" y="33.333333333333336" /><rect fill="#ffffff" height="33.333333333333336" stroke="none" width="15.0" x="45.0" y="66.66666666666667" /><rect fill="#ff6602" height="33.333333333333336" stroke="none" width="15.0" x="60.0" y="0.0" /><rect fill="#ffffff" height="33.333333333333336" stroke="none" width="15.0" x="60.0" y="33.333333333333336" /><rect fill="#ff6602" height="33.333333333333336" stroke="none" width="15.0" x="60.0" y="66.66666666666667" /><rect fill="#ffffff" height="33.333333333333336" stroke="none" width="15.0" x="75.0" y="0.0" /><rect fill="#ff6602" height="33.333333333333336" stroke="none" width="15.0" x="75.0" y="33.333333333333336" /><rect fill="#ffffff" height="33.333333333333336" stroke="none" width="15.0" x="75.0" y="66.66666666666667" /><rect fill="#ff6602" height="33.333333333333336" stroke="none" width="15.0" x="90.0" y="0.0" /><rect fill="#ffffff" height="33.333333333333336" stroke="none" width="15.0" x="90.0" y="33.333333333333336" /><rect fill="#ff6602" height="33.333333333333336" stroke="none" width="15.0" x="90.0" y="66.66666666666667" /><rect fill="#ffffff" height="33.333333333333336" stroke="none" width="15.0" x="105.0" y="0.0" /><rect fill="#ff6602" height="33.333333333333336" stroke="none" width="15.0" x="105.0" y="33.333333333333336" /><rect fill="#ffffff" height="33.333333333333336" stroke="none" width="15.0" x="105.0" y="66.66666666666667" /><rect fill="#ff6602" height="33.333333333333336" stroke="none" width="15.0" x="120.0" y="0.0" /><rect fill="#ffffff" height="33.333333333333336" stroke="none" width="15.0" x="120.0" y="33.333333333333336" /><rect fill="#ff6602" height="33.333333333333336" stroke="none" width="15.0" x="120.0" y="66.66666666666667" /><rect fill="#ffffff" height="33.333333333333336" stroke="none" width="15.0" x="135.0" y="0.0" /><rect fill="#ff6602" height="33.333333333333336" stroke="none" width="15.0" x="135.0" y="33.333333333333336" /><rect fill="#ffffff" height="33.333333333333336" stroke="none" width="15.0" x="135.0" y="66.66666666666667" /></g><g transform="translate(43.83400655475735, 18.834006554757348) scale(0.623319868904853) rotate(0, 50.0, 50.0)"><path d="M 0.0,49.9 C 0.1,22.4 22.5,-0.10000000000000142 50.4,0.10000000000000142 C 77.7,0.3 100.0,22.4 100.0,50.0 C 100.0,77.6 77.6,100.0 49.9,100.0 C 22.4,99.9 0.0,77.5 0.0,49.9 M 50.0,1.9 C 23.8,1.6 1.7,23.2 1.7,50.1 C 1.7,76.8 24.0,99.1 51.7,98.2 C 77.1,97.3 98.80000000000001,76.1 98.2,48.7 C 97.6,22.7 76.0,1.7 50.0,1.9" fill="#000000" stroke="none" stroke-width="3.0px" /><path d="M 68.6,32.5 C 67.3,33.9 66.0,35.2 64.69999999999999,36.6 C 62.29999999999999,39.0 59.89999999999999,41.4 57.39999999999999,43.800000000000004 C 57.0,44.2 57.0,44.5 57.3,45.0 C 57.9,46.1 58.199999999999996,47.3 58.699999999999996,48.4 C 58.8,48.699999999999996 59.099999999999994,49.1 59.4,49.1 C 62.699999999999996,49.1 66.0,49.1 69.2,49.1 C 69.3,49.1 69.4,49.0 69.5,49.0 C 68.8,46.3 67.0,44.9 64.3,44.6 C 64.3,44.1 64.3,43.6 64.3,43.0 C 66.2,43.0 67.7,43.6 69.1,44.8 C 70.19999999999999,45.8 71.0,47.0 71.3,48.5 C 71.5,49.5 72.2,49.0 72.7,49.1 C 73.3,49.2 73.3,48.7 73.3,48.300000000000004 C 73.3,47.7 73.3,47.1 73.3,46.50000000000001 C 73.89999999999999,46.50000000000001 74.5,46.50000000000001 75.1,46.50000000000001 C 75.1,47.400000000000006 75.1,48.20000000000001 75.1,49.10000000000001 C 75.5,49.10000000000001 75.8,49.10000000000001 76.1,49.10000000000001 C 76.6,49.20000000000001 76.89999999999999,49.00000000000001 77.0,48.400000000000006 C 77.9,45.2 80.2,43.2 83.3,42.900000000000006 C 83.5,42.900000000000006 83.6,42.900000000000006 83.89999999999999,42.900000000000006 C 83.89999999999999,43.50000000000001 83.89999999999999,44.00000000000001 83.89999999999999,44.50000000000001 C 81.19999999999999,44.800000000000004 79.39999999999999,46.20000000000001 78.69999999999999,48.900000000000006 C 78.89999999999999,49.00000000000001 79.1,49.00000000000001 79.29999999999998,49.00000000000001 C 81.19999999999999,49.00000000000001 83.09999999999998,49.00000000000001 84.99999999999999,49.00000000000001 C 85.59999999999998,49.00000000000001 85.79999999999998,48.70000000000001 85.79999999999998,48.20000000000001 C 85.79999999999998,46.70000000000001 85.79999999999998,45.20000000000001 85.79999999999998,43.80000000000001 C 85.79999999999998,43.500000000000014 85.79999999999998,43.20000000000001 85.79999999999998,42.80000000000001 C 88.19999999999999,42.80000000000001 90.49999999999999,42.80000000000001 92.89999999999998,42.80000000000001 C 92.89999999999998,43.30000000000001 92.89999999999998,43.80000000000001 92.89999999999998,44.500000000000014 C 91.19999999999997,44.500000000000014 89.49999999999997,44.500000000000014 87.69999999999997,44.500000000000014 C 87.69999999999997,46.000000000000014 87.69999999999997,47.500000000000014 87.69999999999997,49.000000000000014 C 89.39999999999998,49.000000000000014 91.19999999999997,49.000000000000014 92.89999999999998,49.000000000000014 C 92.89999999999998,49.30000000000001 92.99999999999997,49.500000000000014 92.99999999999997,49.70000000000002 C 92.99999999999997,50.80000000000002 92.99999999999997,50.80000000000002 91.89999999999998,50.80000000000002 C 90.49999999999997,50.80000000000002 89.09999999999998,50.80000000000002 87.69999999999997,50.80000000000002 C 87.69999999999997,52.30000000000002 87.69999999999997,53.70000000000002 87.69999999999997,55.20000000000002 C 89.39999999999998,55.20000000000002 91.09999999999998,55.20000000000002 92.89999999999998,55.20000000000002 C 92.89999999999998,55.80000000000002 92.89999999999998,56.30000000000002 92.89999999999998,56.90000000000002 C 90.59999999999998,56.90000000000002 88.29999999999998,56.90000000000002 85.79999999999998,56.90000000000002 C 85.79999999999998,55.50000000000002 85.79999999999998,54.20000000000002 85.79999999999998,52.80000000000002 C 85.79999999999998,50.70000000000002 85.79999999999998,50.70000000000002 83.79999999999998,50.70000000000002 C 82.19999999999999,50.70000000000002 80.49999999999999,50.70000000000002 78.89999999999998,50.70000000000002 C 78.99999999999997,53.000000000000014 80.69999999999997,54.500000000000014 84.09999999999998,55.30000000000002 C 84.09999999999998,55.80000000000002 84.09999999999998,56.30000000000002 84.09999999999998,56.90000000000002 C 83.09999999999998,57.00000000000002 82.09999999999998,56.80000000000002 81.19999999999997,56.30000000000002 C 79.19999999999997,55.40000000000002 77.79999999999997,53.80000000000002 77.29999999999997,51.70000000000002 C 77.09999999999997,50.80000000000002 76.59999999999997,50.500000000000014 75.79999999999997,50.600000000000016 C 75.69999999999997,50.600000000000016 75.49999999999997,50.600000000000016 75.29999999999997,50.70000000000002 C 75.29999999999997,51.500000000000014 75.29999999999997,52.30000000000002 75.29999999999997,53.20000000000002 C 74.69999999999997,53.20000000000002 74.19999999999997,53.20000000000002 73.49999999999997,53.20000000000002 C 73.49999999999997,52.40000000000002 73.49999999999997,51.600000000000016 73.49999999999997,50.70000000000002 C 73.19999999999997,50.70000000000002 72.99999999999997,50.70000000000002 72.79999999999997,50.600000000000016 C 71.99999999999997,50.500000000000014 71.59999999999997,50.70000000000002 71.39999999999996,51.600000000000016 C 70.59999999999997,54.600000000000016 68.19999999999996,56.500000000000014 65.19999999999996,56.90000000000001 C 64.99999999999996,56.90000000000001 64.89999999999996,56.90000000000001 64.59999999999997,56.90000000000001 C 64.59999999999997,56.500000000000014 64.59999999999997,56.20000000000001 64.59999999999997,55.90000000000001 C 64.49999999999997,55.30000000000001 64.79999999999997,55.100000000000016 65.39999999999996,55.100000000000016 C 67.49999999999996,54.90000000000001 69.39999999999996,53.20000000000002 69.89999999999996,51.100000000000016 C 69.89999999999996,51.000000000000014 69.89999999999996,50.90000000000001 69.89999999999996,50.70000000000002 C 69.69999999999996,50.70000000000002 69.59999999999997,50.600000000000016 69.39999999999996,50.600000000000016 C 66.19999999999996,50.600000000000016 63.099999999999966,50.600000000000016 59.89999999999996,50.600000000000016 C 59.39999999999996,50.600000000000016 59.29999999999996,50.80000000000002 59.099999999999966,51.20000000000002 C 58.69999999999997,52.40000000000002 58.099999999999966,53.600000000000016 57.599999999999966,54.90000000000002 C 57.499999999999964,55.10000000000002 57.499999999999964,55.50000000000002 57.599999999999966,55.60000000000002 C 61.19999999999997,59.300000000000026 64.89999999999996,62.90000000000002 68.59999999999997,66.50000000000003 C 68.59999999999997,66.50000000000003 68.69999999999996,66.50000000000003 68.89999999999996,66.60000000000002 C 69.39999999999996,66.00000000000003 69.89999999999996,65.40000000000002 70.39999999999996,64.70000000000002 C 70.89999999999996,65.30000000000001 71.29999999999997,65.60000000000002 71.69999999999996,66.10000000000002 C 71.09999999999997,66.70000000000002 70.59999999999997,67.30000000000003 69.89999999999996,68.00000000000003 C 70.39999999999996,68.40000000000003 70.79999999999997,68.70000000000003 71.39999999999996,69.20000000000003 C 71.79999999999997,68.70000000000003 72.29999999999997,68.00000000000003 72.79999999999997,67.30000000000003 C 73.39999999999996,67.90000000000002 73.69999999999997,68.30000000000003 74.19999999999997,68.90000000000002 C 73.59999999999998,69.30000000000003 72.99999999999997,69.90000000000002 72.29999999999997,70.40000000000002 C 72.89999999999996,70.90000000000002 73.29999999999997,71.30000000000003 73.89999999999996,71.80000000000003 C 74.39999999999996,71.20000000000003 74.79999999999997,70.50000000000003 75.39999999999996,69.80000000000003 C 75.99999999999996,70.40000000000002 76.39999999999996,70.80000000000003 76.99999999999996,71.30000000000003 C 76.29999999999995,71.80000000000003 75.59999999999995,72.30000000000003 74.89999999999996,72.90000000000002 C 75.49999999999996,73.40000000000002 75.89999999999996,73.80000000000003 76.39999999999996,74.20000000000002 C 77.79999999999997,72.80000000000001 79.09999999999997,71.30000000000001 80.49999999999996,69.90000000000002 C 82.29999999999995,71.70000000000002 83.89999999999996,73.40000000000002 85.69999999999996,75.10000000000002 C 85.39999999999996,75.30000000000003 84.99999999999996,75.60000000000002 84.59999999999997,76.00000000000003 C 83.49999999999997,74.80000000000003 82.29999999999997,73.50000000000003 81.19999999999996,72.30000000000003 C 79.99999999999996,73.60000000000002 78.99999999999996,74.60000000000002 77.89999999999996,75.70000000000003 C 78.99999999999996,76.70000000000003 80.29999999999997,77.90000000000003 81.69999999999996,79.20000000000003 C 81.09999999999997,79.80000000000003 80.69999999999996,80.10000000000004 80.09999999999997,80.70000000000003 C 78.89999999999996,79.40000000000003 77.69999999999996,78.20000000000003 76.49999999999997,76.90000000000003 C 75.39999999999998,78.00000000000003 74.39999999999998,79.00000000000003 73.39999999999998,80.10000000000004 C 74.59999999999998,81.20000000000003 75.79999999999998,82.40000000000003 77.19999999999997,83.70000000000003 C 76.59999999999998,84.20000000000003 76.19999999999997,84.50000000000003 75.79999999999997,84.80000000000003 C 74.19999999999997,83.20000000000003 72.59999999999997,81.60000000000002 70.89999999999996,79.90000000000002 C 72.29999999999997,78.60000000000002 73.69999999999996,77.20000000000002 75.29999999999997,75.70000000000002 C 74.69999999999997,75.20000000000002 74.29999999999997,74.80000000000001 73.69999999999997,74.30000000000001 C 73.19999999999997,75.00000000000001 72.59999999999998,75.60000000000001 71.99999999999997,76.4 C 71.49999999999997,75.80000000000001 71.19999999999997,75.4 70.69999999999997,75.0 C 71.29999999999997,74.4 71.89999999999998,73.8 72.59999999999998,73.0 C 72.09999999999998,72.6 71.59999999999998,72.3 71.09999999999998,71.8 C 70.69999999999997,72.3 70.09999999999998,73.0 69.59999999999998,73.8 C 68.99999999999999,73.3 68.69999999999997,72.89999999999999 68.19999999999997,72.5 C 68.79999999999997,71.8 69.39999999999998,71.2 70.09999999999998,70.5 C 69.69999999999997,70.0 69.29999999999998,69.6 68.69999999999997,69.0 C 68.09999999999998,69.8 67.59999999999998,70.5 66.99999999999997,71.3 C 66.49999999999997,70.7 66.19999999999997,70.3 65.69999999999997,69.7 C 66.29999999999997,69.2 66.99999999999997,68.7 67.69999999999997,68.10000000000001 C 66.49999999999997,66.9 65.59999999999998,65.9 64.59999999999998,65.00000000000001 C 61.99999999999998,62.40000000000001 59.29999999999998,59.80000000000001 56.69999999999998,57.100000000000016 C 56.29999999999998,56.70000000000002 56.09999999999998,56.70000000000002 55.59999999999998,57.000000000000014 C 54.29999999999998,57.70000000000002 52.89999999999998,58.20000000000002 51.49999999999998,58.90000000000001 C 51.49999999999998,65.20000000000002 51.49999999999998,71.70000000000002 51.49999999999998,78.30000000000001 C 51.89999999999998,78.30000000000001 52.19999999999998,78.30000000000001 52.59999999999998,78.30000000000001 C 56.09999999999998,78.30000000000001 59.59999999999998,78.30000000000001 62.99999999999998,78.30000000000001 C 63.799999999999976,78.30000000000001 63.99999999999998,78.50000000000001 63.99999999999998,79.30000000000001 C 63.89999999999998,81.70000000000002 63.99999999999998,84.00000000000001 63.89999999999998,86.4 C 63.89999999999998,86.80000000000001 63.799999999999976,87.4 64.49999999999997,87.4 C 64.59999999999997,87.4 64.79999999999997,87.7 64.79999999999997,87.80000000000001 C 64.79999999999997,88.20000000000002 64.79999999999997,88.50000000000001 64.79999999999997,88.9 C 64.49999999999997,89.0 64.19999999999997,89.10000000000001 63.99999999999997,89.10000000000001 C 63.699999999999974,90.60000000000001 63.79999999999997,90.7 64.69999999999997,91.00000000000001 C 64.99999999999997,92.60000000000001 64.99999999999997,92.60000000000001 63.39999999999998,92.60000000000001 C 62.99999999999998,92.60000000000001 62.59999999999998,92.60000000000001 62.199999999999974,92.60000000000001 C 61.39999999999998,92.60000000000001 60.89999999999998,91.80000000000001 61.299999999999976,91.10000000000001 C 61.39999999999998,90.9 61.799999999999976,90.9 62.09999999999997,90.7 C 62.09999999999997,90.2 62.09999999999997,89.7 62.09999999999997,89.10000000000001 C 61.89999999999997,89.00000000000001 61.59999999999997,89.00000000000001 61.39999999999997,88.9 C 61.09999999999997,88.5 61.29999999999997,87.4 61.79999999999997,87.2 C 61.99999999999997,87.10000000000001 62.19999999999997,86.9 62.19999999999997,86.7 C 62.19999999999997,84.5 62.19999999999997,82.3 62.19999999999997,80.0 C 61.69999999999997,80.0 61.29999999999997,80.0 60.999999999999964,79.9 C 60.599999999999966,80.5 61.499999999999964,81.80000000000001 59.89999999999996,81.7 C 58.39999999999996,81.60000000000001 59.599999999999966,80.4 58.89999999999996,79.9 C 56.599999999999966,79.9 54.19999999999996,79.9 51.599999999999966,79.9 C 51.599999999999966,80.5 51.599999999999966,81.0 51.599999999999966,81.60000000000001 C 53.69999999999997,81.60000000000001 55.69999999999997,81.60000000000001 57.79999999999997,81.60000000000001 C 57.79999999999997,84.00000000000001 57.79999999999997,86.30000000000001 57.79999999999997,88.7 C 57.19999999999997,88.7 56.69999999999997,88.7 56.099999999999966,88.7 C 56.099999999999966,87.0 56.099999999999966,85.3 56.099999999999966,83.5 C 54.599999999999966,83.5 53.099999999999966,83.5 51.69999999999997,83.5 C 51.69999999999997,85.8 51.69999999999997,88.1 51.69999999999997,90.4 C 52.69999999999997,90.7 52.69999999999997,90.9 52.39999999999997,92.30000000000001 C 51.29999999999997,92.30000000000001 50.19999999999997,92.30000000000001 49.09999999999997,92.30000000000001 C 48.699999999999974,91.00000000000001 48.89999999999997,90.70000000000002 49.799999999999976,90.4 C 49.799999999999976,88.2 49.799999999999976,86.10000000000001 49.799999999999976,83.9 C 49.799999999999976,83.80000000000001 49.49999999999998,83.5 49.299999999999976,83.5 C 47.99999999999998,83.5 46.699999999999974,83.5 45.39999999999998,83.5 C 45.39999999999998,85.3 45.39999999999998,87.0 45.39999999999998,88.8 C 44.799999999999976,88.8 44.199999999999974,88.8 43.59999999999998,88.8 C 43.59999999999998,87.8 43.59999999999998,86.89999999999999 43.59999999999998,85.89999999999999 C 43.59999999999998,84.8 43.59999999999998,83.69999999999999 43.59999999999998,82.6 C 43.59999999999998,81.89999999999999 43.79999999999998,81.69999999999999 44.49999999999998,81.69999999999999 C 45.99999999999998,81.79999999999998 47.39999999999998,81.69999999999999 48.89999999999998,81.69999999999999 C 49.199999999999974,81.69999999999999 49.49999999999998,81.69999999999999 49.799999999999976,81.69999999999999 C 49.89999999999998,81.6 49.89999999999998,81.49999999999999 49.89999999999998,81.49999999999999 C 50.09999999999998,79.99999999999999 50.09999999999998,79.99999999999999 48.49999999999998,79.99999999999999 C 46.799999999999976,79.99999999999999 45.09999999999998,79.99999999999999 43.39999999999998,79.99999999999999 C 43.09999999999998,79.99999999999999 42.799999999999976,79.99999999999999 42.59999999999998,79.99999999999999 C 41.99999999999998,80.59999999999998 42.99999999999998,81.89999999999999 41.39999999999998,81.79999999999998 C 39.89999999999998,81.79999999999998 40.89999999999998,80.59999999999998 40.39999999999998,79.99999999999999 C 40.09999999999998,79.99999999999999 39.699999999999974,79.99999999999999 39.199999999999974,79.99999999999999 C 39.199999999999974,81.29999999999998 39.199999999999974,82.59999999999998 39.199999999999974,83.89999999999999 C 39.199999999999974,84.69999999999999 39.199999999999974,85.49999999999999 39.199999999999974,86.3 C 39.199999999999974,86.7 39.09999999999997,87.3 39.799999999999976,87.3 C 39.89999999999998,87.3 39.99999999999998,87.6 40.09999999999997,87.8 C 40.09999999999997,88.1 40.09999999999997,88.5 40.09999999999997,88.89999999999999 C 39.799999999999976,88.99999999999999 39.49999999999997,88.99999999999999 39.299999999999976,89.1 C 39.299999999999976,89.6 39.299999999999976,90.1 39.299999999999976,90.69999999999999 C 39.49999999999998,90.79999999999998 39.799999999999976,90.89999999999999 40.09999999999997,90.99999999999999 C 40.09999999999997,91.49999999999999 40.09999999999997,91.99999999999999 40.09999999999997,92.59999999999998 C 38.99999999999997,92.59999999999998 37.89999999999997,92.59999999999998 36.699999999999974,92.59999999999998 C 36.799999999999976,91.99999999999999 36.09999999999997,91.19999999999997 37.39999999999998,90.79999999999998 C 37.59999999999998,90.69999999999999 37.59999999999998,89.79999999999998 37.59999999999998,89.29999999999998 C 37.19999999999998,89.19999999999999 36.99999999999998,89.09999999999998 36.69999999999998,88.99999999999999 C 36.69999999999998,88.59999999999998 36.69999999999998,88.29999999999998 36.69999999999998,87.89999999999999 C 36.69999999999998,87.69999999999999 36.79999999999998,87.49999999999999 36.899999999999984,87.49999999999999 C 37.899999999999984,87.49999999999999 37.59999999999999,86.69999999999999 37.59999999999999,86.19999999999999 C 37.59999999999999,83.99999999999999 37.59999999999999,81.79999999999998 37.59999999999999,79.49999999999999 C 37.59999999999999,79.19999999999999 37.59999999999999,78.89999999999999 37.59999999999999,78.39999999999999 C 37.999999999999986,78.39999999999999 38.29999999999999,78.39999999999999 38.69999999999999,78.39999999999999 C 42.19999999999999,78.39999999999999 45.69999999999999,78.39999999999999 49.19999999999999,78.39999999999999 C 49.89999999999999,78.39999999999999 50.09999999999999,78.19999999999999 50.09999999999999,77.49999999999999 C 50.09999999999999,71.49999999999999 50.09999999999999,65.49999999999999 50.09999999999999,59.499999999999986 C 50.09999999999999,58.899999999999984 49.899999999999984,58.69999999999999 49.29999999999999,58.499999999999986 C 47.89999999999999,58.09999999999999 46.59999999999999,57.499999999999986 45.19999999999999,56.999999999999986 C 42.499999999999986,59.79999999999998 39.59999999999999,62.69999999999999 36.69999999999999,65.59999999999998 C 37.999999999999986,66.99999999999999 40.499999999999986,66.89999999999998 43.499999999999986,65.09999999999998 C 43.79999999999998,65.49999999999999 44.19999999999999,65.89999999999998 44.499999999999986,66.29999999999998 C 43.79999999999998,67.19999999999999 42.69999999999999,67.69999999999999 41.59999999999999,67.99999999999999 C 39.69999999999999,68.59999999999998 37.79999999999999,68.39999999999999 36.09999999999999,67.39999999999999 C 35.29999999999999,66.89999999999999 34.899999999999984,66.99999999999999 34.399999999999984,67.6 C 34.29999999999998,67.8 34.09999999999999,67.89999999999999 33.899999999999984,68.1 C 34.499999999999986,68.69999999999999 35.09999999999999,69.3 35.69999999999998,70.0 C 35.29999999999998,70.4 34.899999999999984,70.7 34.399999999999984,71.1 C 33.899999999999984,70.6 33.29999999999998,70.0 32.59999999999999,69.39999999999999 C 32.19999999999999,69.8 31.799999999999986,70.19999999999999 31.399999999999988,70.6 C 32.89999999999999,72.0 34.29999999999999,73.39999999999999 35.69999999999999,74.8 C 32.29999999999999,78.2 28.99999999999999,81.6 25.599999999999987,85.0 C 25.19999999999999,84.6 24.799999999999986,84.2 24.399999999999988,83.8 C 27.399999999999988,80.89999999999999 30.29999999999999,78.0 33.19999999999999,75.1 C 32.09999999999999,74.0 30.99999999999999,73.0 29.99999999999999,72.0 C 29.49999999999999,72.5 28.79999999999999,73.2 28.09999999999999,73.9 C 28.79999999999999,74.4 29.39999999999999,74.9 30.09999999999999,75.5 C 29.49999999999999,76.0 29.199999999999992,76.4 28.59999999999999,76.9 C 28.09999999999999,76.30000000000001 27.59999999999999,75.60000000000001 27.09999999999999,74.9 C 26.29999999999999,75.80000000000001 25.699999999999992,76.4 25.09999999999999,77.10000000000001 C 25.59999999999999,77.60000000000001 26.09999999999999,78.2 26.79999999999999,78.9 C 26.39999999999999,79.30000000000001 25.99999999999999,79.60000000000001 25.59999999999999,80.10000000000001 C 24.99999999999999,79.50000000000001 24.39999999999999,78.9 23.59999999999999,78.2 C 22.89999999999999,79.10000000000001 22.199999999999992,79.9 21.39999999999999,80.8 C 20.89999999999999,80.2 20.499999999999993,79.8 20.09999999999999,79.3 C 20.89999999999999,78.6 21.699999999999992,77.89999999999999 22.699999999999992,77.1 C 21.89999999999999,76.39999999999999 21.199999999999992,75.89999999999999 20.499999999999993,75.3 C 21.099999999999994,74.8 21.499999999999993,74.5 21.999999999999993,74.1 C 22.499999999999993,74.6 23.099999999999994,75.19999999999999 23.699999999999992,75.69999999999999 C 24.299999999999994,75.1 24.89999999999999,74.39999999999999 25.699999999999992,73.69999999999999 C 25.09999999999999,73.19999999999999 24.39999999999999,72.69999999999999 23.699999999999992,72.19999999999999 C 24.299999999999994,71.6 24.699999999999992,71.29999999999998 25.199999999999992,70.79999999999998 C 25.699999999999992,71.39999999999998 26.299999999999994,71.99999999999999 26.799999999999994,72.69999999999999 C 27.599999999999994,71.89999999999999 28.199999999999992,71.29999999999998 28.799999999999994,70.79999999999998 C 27.799999999999994,69.79999999999998 26.699999999999992,68.69999999999999 25.599999999999994,67.59999999999998 C 22.799999999999994,70.49999999999999 19.899999999999995,73.39999999999998 16.899999999999995,76.49999999999999 C 16.399999999999995,75.99999999999999 16.099999999999994,75.59999999999998 15.799999999999995,75.19999999999999 C 19.099999999999994,71.79999999999998 22.499999999999996,68.49999999999999 25.899999999999995,65.1 C 27.299999999999994,66.5 28.699999999999996,68.0 30.199999999999996,69.5 C 30.599999999999994,69.0 30.899999999999995,68.6 31.299999999999997,68.0 C 30.799999999999997,67.6 30.099999999999998,67.1 29.299999999999997,66.5 C 29.9,65.9 30.299999999999997,65.6 30.799999999999997,65.1 C 31.299999999999997,65.8 31.9,66.39999999999999 32.4,67.19999999999999 C 32.9,66.6 33.3,66.19999999999999 33.699999999999996,65.69999999999999 C 32.49999999999999,63.999999999999986 31.999999999999996,62.09999999999999 32.4,60.09999999999999 C 32.6,58.69999999999999 33.3,57.499999999999986 34.3,56.399999999999984 C 34.699999999999996,56.79999999999998 35.0,57.19999999999998 35.5,57.59999999999999 C 33.8,59.69999999999999 33.5,61.999999999999986 35.3,64.6 C 35.699999999999996,64.1 36.099999999999994,63.49999999999999 36.599999999999994,62.99999999999999 C 38.89999999999999,60.699999999999996 41.099999999999994,58.39999999999999 43.39999999999999,56.199999999999996 C 43.89999999999999,55.699999999999996 43.79999999999999,55.49999999999999 43.49999999999999,54.9 C 42.89999999999999,53.8 42.49999999999999,52.699999999999996 42.099999999999994,51.5 C 41.89999999999999,51.0 41.699999999999996,50.8 41.199999999999996,50.8 C 32.8,50.8 24.299999999999997,50.8 15.899999999999995,50.8 C 15.699999999999996,50.8 15.499999999999995,50.8 15.099999999999994,50.9 C 15.099999999999994,55.0 15.099999999999994,59.099999999999994 15.099999999999994,63.2 C 12.699999999999994,63.2 10.399999999999995,63.2 7.999999999999995,63.2 C 7.999999999999995,62.900000000000006 7.999999999999995,62.7 7.899999999999995,62.400000000000006 C 7.799999999999995,61.7 8.099999999999994,61.50000000000001 8.799999999999995,61.50000000000001 C 10.099999999999996,61.60000000000001 11.299999999999995,61.50000000000001 12.599999999999994,61.50000000000001 C 13.099999999999994,61.50000000000001 13.399999999999995,61.400000000000006 13.399999999999995,60.800000000000004 C 13.399999999999995,59.6 13.399999999999995,58.400000000000006 13.399999999999995,57.00000000000001 C 11.599999999999994,57.00000000000001 9.899999999999995,57.00000000000001 8.099999999999994,57.00000000000001 C 8.099999999999994,56.400000000000006 8.099999999999994,55.800000000000004 8.099999999999994,55.20000000000001 C 9.599999999999994,55.20000000000001 10.999999999999995,55.20000000000001 12.499999999999995,55.20000000000001 C 13.299999999999995,55.20000000000001 13.499999999999995,55.00000000000001 13.399999999999995,54.20000000000001 C 13.299999999999995,53.10000000000001 13.399999999999995,51.90000000000001 13.399999999999995,50.70000000000001 C 11.999999999999995,50.70000000000001 10.699999999999996,50.70000000000001 9.399999999999995,50.70000000000001 C 7.899999999999995,50.70000000000001 7.799999999999995,50.70000000000001 8.099999999999994,48.90000000000001 C 9.499999999999995,48.90000000000001 10.799999999999994,48.90000000000001 12.199999999999994,48.90000000000001 C 13.399999999999993,48.90000000000001 13.399999999999993,48.90000000000001 13.399999999999993,47.70000000000001 C 13.399999999999993,46.80000000000001 13.399999999999993,46.00000000000001 13.399999999999993,45.10000000000001 C 13.399999999999993,44.50000000000001 13.199999999999994,44.30000000000001 12.599999999999993,44.30000000000001 C 11.099999999999993,44.30000000000001 9.599999999999993,44.30000000000001 7.999999999999993,44.30000000000001 C 7.999999999999993,43.70000000000001 7.999999999999993,43.20000000000001 7.999999999999993,42.500000000000014 C 9.399999999999993,42.500000000000014 10.799999999999994,42.500000000000014 12.199999999999992,42.500000000000014 C 13.299999999999992,42.500000000000014 13.299999999999992,42.500000000000014 13.299999999999992,41.30000000000001 C 13.299999999999992,40.30000000000001 13.299999999999992,39.20000000000001 13.299999999999992,38.000000000000014 C 11.499999999999991,38.000000000000014 9.699999999999992,38.000000000000014 7.8999999999999915,38.000000000000014 C 7.8999999999999915,37.40000000000001 7.8999999999999915,36.90000000000001 7.8999999999999915,36.30000000000001 C 10.299999999999992,36.30000000000001 12.59999999999999,36.30000000000001 14.999999999999991,36.30000000000001 C 14.999999999999991,40.40000000000001 14.999999999999991,44.500000000000014 14.999999999999991,48.70000000000001 C 15.399999999999991,48.70000000000001 15.69999999999999,48.80000000000001 15.999999999999991,48.80000000000001 C 24.29999999999999,48.80000000000001 32.599999999999994,48.80000000000001 40.89999999999999,48.80000000000001 C 41.599999999999994,48.80000000000001 41.89999999999999,48.60000000000001 42.099999999999994,47.90000000000001 C 42.49999999999999,46.70000000000001 43.099999999999994,45.600000000000016 43.599999999999994,44.40000000000001 C 43.699999999999996,44.20000000000001 43.699999999999996,43.80000000000001 43.599999999999994,43.600000000000016 C 39.99999999999999,40.000000000000014 36.39999999999999,36.40000000000001 32.8,32.80000000000001 C 32.699999999999996,32.70000000000001 32.699999999999996,32.70000000000001 32.599999999999994,32.70000000000001 C 31.099999999999994,34.40000000000001 31.199999999999996,37.00000000000001 33.099999999999994,39.60000000000001 C 32.699999999999996,39.900000000000006 32.3,40.20000000000001 31.799999999999994,40.60000000000001 C 31.099999999999994,39.900000000000006 30.499999999999993,39.00000000000001 30.199999999999992,37.900000000000006 C 29.59999999999999,35.900000000000006 29.699999999999992,34.00000000000001 30.799999999999994,32.2 C 31.299999999999994,31.400000000000002 31.199999999999992,31.000000000000004 30.499999999999993,30.500000000000004 C 30.299999999999994,30.400000000000002 30.199999999999992,30.100000000000005 30.099999999999994,30.000000000000004 C 27.699999999999996,32.400000000000006 25.499999999999993,34.7 23.299999999999994,36.900000000000006 C 19.799999999999994,33.400000000000006 16.499999999999993,30.100000000000005 13.199999999999994,26.800000000000004 C 13.499999999999995,26.600000000000005 13.899999999999993,26.200000000000003 14.399999999999993,25.700000000000003 C 17.199999999999992,28.500000000000004 19.999999999999993,31.500000000000004 22.89999999999999,34.400000000000006 C 24.79999999999999,32.400000000000006 26.699999999999992,30.500000000000007 28.699999999999992,28.500000000000007 C 28.499999999999993,28.400000000000006 28.199999999999992,28.200000000000006 27.799999999999994,27.900000000000006 C 27.299999999999994,28.500000000000007 26.799999999999994,29.200000000000006 26.199999999999992,29.900000000000006 C 25.59999999999999,29.400000000000006 25.299999999999994,29.000000000000007 24.699999999999992,28.500000000000007 C 25.39999999999999,27.900000000000006 26.09999999999999,27.400000000000006 26.799999999999994,26.900000000000006 C 26.299999999999994,26.100000000000005 25.999999999999993,25.800000000000004 25.199999999999992,26.200000000000006 C 23.299999999999994,27.100000000000005 21.199999999999992,26.400000000000006 19.999999999999993,24.700000000000006 C 18.89999999999999,23.000000000000007 19.099999999999994,20.800000000000008 20.499999999999993,19.400000000000006 C 21.89999999999999,17.900000000000006 24.099999999999994,17.700000000000006 25.799999999999994,18.800000000000004 C 27.499999999999993,19.900000000000006 28.299999999999994,22.100000000000005 27.399999999999995,24.000000000000004 C 27.099999999999994,24.700000000000003 27.199999999999996,25.100000000000005 27.899999999999995,25.500000000000004 C 28.499999999999996,24.900000000000002 29.099999999999994,24.400000000000002 29.799999999999994,23.700000000000003 C 30.199999999999992,24.1 30.499999999999993,24.500000000000004 30.899999999999995,24.900000000000002 C 30.299999999999994,25.500000000000004 29.799999999999994,26.1 29.099999999999994,26.8 C 29.399999999999995,27.1 29.599999999999994,27.3 29.899999999999995,27.6 C 30.399999999999995,27.1 30.899999999999995,26.700000000000003 31.299999999999994,26.200000000000003 C 32.49999999999999,25.000000000000004 33.699999999999996,23.800000000000004 34.89999999999999,22.6 C 35.39999999999999,22.1 35.49999999999999,21.8 34.89999999999999,21.200000000000003 C 32.49999999999999,18.800000000000004 30.09999999999999,16.400000000000002 27.59999999999999,14.000000000000004 C 27.29999999999999,13.700000000000003 26.99999999999999,13.500000000000004 26.699999999999992,13.300000000000004 C 27.199999999999992,12.800000000000004 27.59999999999999,12.400000000000004 27.89999999999999,12.100000000000005 C 31.199999999999992,15.400000000000006 34.49999999999999,18.700000000000003 37.79999999999999,22.000000000000007 C 35.59999999999999,24.200000000000006 33.39999999999999,26.500000000000007 30.79999999999999,29.000000000000007 C 31.29999999999999,29.400000000000006 31.69999999999999,29.700000000000006 32.19999999999999,29.900000000000006 C 32.39999999999999,30.000000000000007 32.79999999999999,29.900000000000006 33.09999999999999,29.800000000000004 C 35.69999999999999,28.300000000000004 38.19999999999999,28.300000000000004 40.79999999999999,29.900000000000006 C 40.89999999999999,30.000000000000007 41.09999999999999,30.100000000000005 41.19999999999999,30.200000000000006 C 41.39999999999999,30.400000000000006 41.59999999999999,30.500000000000007 41.79999999999999,30.800000000000008 C 41.39999999999999,31.200000000000006 41.09999999999999,31.60000000000001 40.69999999999999,32.00000000000001 C 38.499999999999986,30.300000000000008 36.29999999999999,29.900000000000006 33.89999999999999,31.400000000000006 C 37.69999999999999,35.2 41.39999999999999,38.900000000000006 44.99999999999999,42.50000000000001 C 46.49999999999999,42.00000000000001 47.99999999999999,41.50000000000001 49.39999999999999,40.900000000000006 C 49.599999999999994,40.800000000000004 49.79999999999999,40.50000000000001 49.79999999999999,40.300000000000004 C 49.79999999999999,35.300000000000004 49.79999999999999,30.300000000000004 49.79999999999999,25.300000000000004 C 49.79999999999999,24.800000000000004 49.59999999999999,24.700000000000003 49.09999999999999,24.700000000000003 C 48.399999999999984,24.700000000000003 47.79999999999999,24.700000000000003 47.19999999999999,24.700000000000003 C 47.09999999999999,24.6 47.09999999999999,24.6 46.999999999999986,24.500000000000004 C 46.79999999999998,23.000000000000004 46.79999999999998,23.000000000000004 48.29999999999998,23.000000000000004 C 48.69999999999998,23.000000000000004 49.09999999999998,23.000000000000004 49.59999999999998,23.000000000000004 C 49.59999999999998,22.800000000000004 49.69999999999998,22.700000000000003 49.69999999999998,22.500000000000004 C 49.79999999999998,21.100000000000005 49.79999999999998,21.100000000000005 48.399999999999984,21.100000000000005 C 47.999999999999986,21.100000000000005 47.59999999999999,21.100000000000005 47.09999999999999,21.100000000000005 C 47.09999999999999,20.500000000000004 47.09999999999999,20.000000000000004 47.09999999999999,19.400000000000006 C 47.69999999999999,19.400000000000006 48.29999999999999,19.400000000000006 48.79999999999999,19.400000000000006 C 49.59999999999999,19.500000000000007 49.79999999999999,19.200000000000006 49.69999999999999,18.400000000000006 C 49.69999999999999,18.200000000000006 49.69999999999999,17.900000000000006 49.59999999999999,17.500000000000007 C 48.69999999999999,17.500000000000007 47.899999999999984,17.500000000000007 46.999999999999986,17.500000000000007 C 46.999999999999986,16.900000000000006 46.999999999999986,16.300000000000008 46.999999999999986,15.700000000000006 C 47.899999999999984,15.700000000000006 48.69999999999999,15.700000000000006 49.59999999999999,15.700000000000006 C 49.59999999999999,15.100000000000007 49.59999999999999,14.600000000000007 49.59999999999999,14.000000000000007 C 47.499999999999986,14.000000000000007 45.499999999999986,14.000000000000007 43.399999999999984,14.000000000000007 C 43.399999999999984,11.600000000000007 43.399999999999984,9.200000000000006 43.399999999999984,6.9000000000000075 C 43.899999999999984,6.9000000000000075 44.399999999999984,6.9000000000000075 45.09999999999999,6.9000000000000075 C 45.09999999999999,7.300000000000008 45.19999999999999,7.700000000000007 45.19999999999999,8.100000000000007 C 45.19999999999999,9.200000000000006 45.19999999999999,10.400000000000006 45.19999999999999,11.500000000000007 C 45.19999999999999,12.000000000000007 45.39999999999999,12.200000000000006 45.89999999999999,12.200000000000006 C 46.99999999999999,12.200000000000006 47.99999999999999,12.200000000000006 49.099999999999994,12.200000000000006 C 49.599999999999994,12.200000000000006 49.8,12.000000000000007 49.8,11.500000000000007 C 49.8,10.300000000000008 49.8,9.000000000000007 49.8,7.800000000000007 C 49.8,7.500000000000007 49.8,7.200000000000007 49.8,6.900000000000007 C 50.0,6.900000000000007 50.099999999999994,6.800000000000007 50.199999999999996,6.800000000000007 C 51.49999999999999,6.700000000000007 51.49999999999999,6.700000000000007 51.49999999999999,8.100000000000007 C 51.49999999999999,9.200000000000006 51.49999999999999,10.300000000000008 51.49999999999999,11.400000000000006 C 51.49999999999999,11.900000000000006 51.599999999999994,12.200000000000006 52.199999999999996,12.200000000000006 C 53.4,12.200000000000006 54.599999999999994,12.200000000000006 55.99999999999999,12.200000000000006 C 55.99999999999999,10.400000000000006 55.99999999999999,8.600000000000007 55.99999999999999,6.900000000000007 C 56.599999999999994,6.900000000000007 57.099999999999994,6.900000000000007 57.699999999999996,6.900000000000007 C 57.699999999999996,9.200000000000006 57.699999999999996,11.600000000000007 57.699999999999996,14.000000000000007 C 55.699999999999996,14.000000000000007 53.699999999999996,14.000000000000007 51.599999999999994,14.000000000000007 C 51.599999999999994,14.600000000000007 51.599999999999994,15.100000000000007 51.599999999999994,15.700000000000006 C 52.39999999999999,15.700000000000006 53.199999999999996,15.700000000000006 54.099999999999994,15.700000000000006 C 54.099999999999994,16.400000000000006 54.099999999999994,16.900000000000006 54.099999999999994,17.500000000000007 C 53.199999999999996,17.500000000000007 52.49999999999999,17.500000000000007 51.599999999999994,17.500000000000007 C 51.599999999999994,18.10000000000001 51.599999999999994,18.60000000000001 51.599999999999994,19.300000000000008 C 52.39999999999999,19.300000000000008 53.199999999999996,19.300000000000008 54.099999999999994,19.300000000000008 C 54.099999999999994,19.90000000000001 54.099999999999994,20.500000000000007 54.099999999999994,21.10000000000001 C 53.3,21.10000000000001 52.49999999999999,21.10000000000001 51.599999999999994,21.10000000000001 C 51.599999999999994,21.70000000000001 51.599999999999994,22.300000000000008 51.599999999999994,22.90000000000001 C 52.39999999999999,22.90000000000001 53.199999999999996,22.90000000000001 54.099999999999994,22.90000000000001 C 54.099999999999994,23.50000000000001 54.099999999999994,24.00000000000001 54.099999999999994,24.70000000000001 C 53.3,24.70000000000001 52.49999999999999,24.70000000000001 51.599999999999994,24.70000000000001 C 51.599999999999994,25.10000000000001 51.49999999999999,25.30000000000001 51.49999999999999,25.60000000000001 C 51.49999999999999,30.40000000000001 51.49999999999999,35.20000000000001 51.49999999999999,40.10000000000001 C 51.49999999999999,40.70000000000001 51.699999999999996,40.900000000000006 52.29999999999999,41.10000000000001 C 53.69999999999999,41.50000000000001 54.99999999999999,42.10000000000001 56.39999999999999,42.60000000000001 C 60.19999999999999,38.80000000000001 64.1,34.900000000000006 67.89999999999999,31.000000000000007 C 66.3,29.60000000000001 63.99999999999999,29.800000000000008 61.19999999999999,31.500000000000007 C 60.89999999999999,31.10000000000001 60.499999999999986,30.800000000000008 60.19999999999999,30.400000000000006 C 61.69999999999999,28.100000000000005 65.39999999999999,27.800000000000004 69.39999999999999,29.700000000000006 C 69.49999999999999,29.700000000000006 69.6,29.600000000000005 69.6,29.600000000000005 C 70.69999999999999,28.600000000000005 70.69999999999999,28.600000000000005 70.0,27.300000000000004 C 69.1,25.400000000000006 69.0,23.400000000000006 69.8,21.400000000000006 C 70.89999999999999,22.000000000000007 71.2,22.400000000000006 71.0,23.600000000000005 C 70.9,24.900000000000006 71.1,26.000000000000004 71.8,27.000000000000004 C 72.8,25.900000000000002 73.89999999999999,24.900000000000002 75.0,23.700000000000003 C 73.7,22.400000000000002 72.2,21.000000000000004 70.8,19.700000000000003 C 72.6,17.900000000000002 74.2,16.300000000000004 75.89999999999999,14.600000000000003 C 76.19999999999999,14.900000000000004 76.49999999999999,15.300000000000002 76.89999999999999,15.800000000000002 C 75.69999999999999,17.000000000000004 74.39999999999999,18.200000000000003 73.19999999999999,19.400000000000002 C 74.29999999999998,20.500000000000004 75.29999999999998,21.500000000000004 76.29999999999998,22.6 C 77.49999999999999,21.400000000000002 78.69999999999999,20.1 79.99999999999999,18.8 C 80.49999999999999,19.400000000000002 80.89999999999999,19.7 81.29999999999998,20.2 C 80.09999999999998,21.4 78.79999999999998,22.599999999999998 77.59999999999998,23.8 C 78.69999999999997,24.900000000000002 79.79999999999998,25.900000000000002 80.79999999999998,26.900000000000002 C 81.89999999999998,25.8 83.09999999999998,24.6 84.29999999999998,23.3 C 84.79999999999998,23.900000000000002 85.19999999999999,24.2 85.49999999999999,24.6 C 83.89999999999999,26.200000000000003 82.29999999999998,27.8 80.59999999999998,29.5 C 79.29999999999998,28.1 77.89999999999998,26.7 76.49999999999999,25.2 C 75.29999999999998,26.4 74.29999999999998,27.4 73.19999999999999,28.5 C 74.19999999999999,29.4 75.39999999999999,29.6 76.69999999999999,29.4 C 77.89999999999999,29.2 78.29999999999998,29.799999999999997 78.99999999999999,30.599999999999998 C 76.89999999999999,31.499999999999996 74.89999999999999,31.4 72.89999999999999,30.4 C 71.39999999999999,29.7 71.49999999999999,29.7 70.49999999999999,31.0 C 72.49999999999999,34.9 72.29999999999998,38.4 69.79999999999998,40.4 C 69.49999999999999,40.0 69.19999999999999,39.6 68.79999999999998,39.1 C 69.89999999999998,37.9 70.49999999999999,36.300000000000004 70.19999999999999,34.6 C 70.1,33.800000000000004 69.69999999999999,33.1 69.39999999999999,32.300000000000004 C 68.8,32.6 68.7,32.5 68.6,32.5 M 49.9,57.2 C 53.699999999999996,57.300000000000004 57.0,54.1 57.199999999999996,50.300000000000004 C 57.3,46.300000000000004 54.099999999999994,43.00000000000001 50.099999999999994,42.900000000000006 C 46.39999999999999,42.800000000000004 42.99999999999999,46.00000000000001 42.89999999999999,49.7 C 42.7,53.8 45.8,57.0 49.9,57.2 M 23.4,25.0 C 22.4,23.9 21.299999999999997,22.9 20.299999999999997,21.8 C 19.9,22.8 20.099999999999998,23.7 20.9,24.400000000000002 C 21.5,25.2 22.5,25.4 23.4,25.0 M 24.9,23.5 C 25.299999999999997,22.5 25.099999999999998,21.6 24.2,20.8 C 23.5,20.1 22.5,20.0 21.9,20.400000000000002 C 22.9,21.4 23.9,22.4 24.9,23.5" fill="#000000" stroke="none" stroke-width="3.0px" /></g></svg>