<?xml version="1.0" encoding="utf-8" ?>
<svg baseProfile="full" height="100px" version="1.1" width="150px" xmlns="http://www.w3.org/2000/svg" xmlns:ev="http://www.w3.org/2001/xml-events" xmlns:xlink="http://www.w3.org/1999/xlink"><defs><clipPath id="mask0"><rect height="100" width="150" x="0" y="0" /></clipPath></defs><g clip-path="url(#mask0)"><path d="M0,0 L0.0,300.0 L102.60604299770061,281.9077862357725 z" fill="#ff0032" stroke="none" transform="translate(0, 0)" /><path d="M0,0 L102.60604299770061,281.9077862357725 L192.83628290596178,229.8133329356934 z" fill="#ff9932" stroke="none" transform="translate(0, 0)" /><path d="M0,0 L192.83628290596178,229.8133329356934 L259.8076211353316,150.00000000000003 z" fill="#ffce00" stroke="none" transform="translate(0, 0)" /><path d="M0,0 L259.8076211353316,150.00000000000003 L295.4423259036624,52.094453300079124 z" fill="#14b53a" stroke="none" transform="translate(0, 0)" /><path d="M0,0 L295.4423259036624,52.094453300079124 L295.4423259036624,-52.09445330007909 z" fill="#003897" stroke="none" transform="translate(0, 0)" /><path d="M0,0 L295.4423259036624,-52.09445330007909 L259.8076211353316,-149.99999999999994 z" fill="#75197d" stroke="none" transform="translate(0, 0)" /><path d="M0,0 L259.8076211353316,-149.99999999999994 L192.83628290596184,-229.81333293569338 z" fill="#935316" stroke="none" transform="translate(0, 0)" /><path d="M0,0 L192.83628290596184,-229.81333293569338 L102.60604299770067,-281.9077862357725 z" fill="#ff0000" stroke="none" transform="translate(0, 0)" /><path d="M0,0 L102.60604299770067,-281.9077862357725 L3.6739403974420595e-14,-300.0 z" fill="#ff9901" stroke="none" transform="translate(0, 0)" /><path d="M0,0 L3.6739403974420595e-14,-300.0 L-102.6060429977006,-281.9077862357725 z" fill="#ffce00" stroke="none" transform="translate(0, 0)" /><path d="M0,0 L-102.6060429977006,-281.9077862357725 L-192.83628290596178,-229.8133329356934 z" fill="#229e45" stroke="none" transform="translate(0, 0)" /><path d="M0,0 L-192.83628290596178,-229.8133329356934 L-259.80762113533154,-150.00000000000014 z" fill="#003265" stroke="none" transform="translate(0, 0)" /><path d="M0,0 L-259.80762113533154,-150.00000000000014 L-295.4423259036624,-52.0944533000791 z" fill="#760188" stroke="none" transform="translate(0, 0)" /><path d="M0,0 L-295.4423259036624,-52.0944533000791 L-295.44232590366244,52.09445330007899 z" fill="#935316" stroke="none" transform="translate(0, 0)" /><path d="M0,0 L-295.44232590366244,52.09445330007899 L-259.8076211353316,150.00000000000003 z" fill="#ff0000" stroke="none" transform="translate(0, 0)" /><path d="M0,0 L-259.8076211353316,150.00000000000003 L-192.83628290596187,229.81333293569332 z" fill="#cc6600" stroke="none" transform="translate(0, 0)" /><path d="M0,0 L-192.83628290596187,229.81333293569332 L-102.60604299770083,281.90778623577245 z" fill="#d0a650" stroke="none" transform="translate(0, 0)" /><path d="M0,0 L-102.60604299770083,281.90778623577245 L-7.347880794884119e-14,300.0 z" fill="#339933" stroke="none" transform="translate(0, 0)" /></g><g id="empty" /></svg>