<?xml version="1.0" encoding="utf-8" ?>
<svg baseProfile="full" height="100px" version="1.1" width="150px" xmlns="http://www.w3.org/2000/svg" xmlns:ev="http://www.w3.org/2001/xml-events" xmlns:xlink="http://www.w3.org/1999/xlink"><defs><clipPath id="mask0"><rect height="100" width="150" x="0" y="0" /></clipPath></defs><g clip-path="url(#mask0)"><path d="M0,0 L0.0,300.0 L176.33557568774194,242.70509831248424 z" fill="#003897" stroke="none" transform="translate(0, 0)" /><path d="M0,0 L176.33557568774194,242.70509831248424 L285.31695488854604,92.70509831248424 z" fill="#CB001E" stroke="none" transform="translate(0, 0)" /><path d="M0,0 L285.31695488854604,92.70509831248424 L285.3169548885461,-92.7050983124842 z" fill="#ffffff" stroke="none" transform="translate(0, 0)" /><path d="M0,0 L285.3169548885461,-92.7050983124842 L176.33557568774197,-242.7050983124842 z" fill="#009966" stroke="none" transform="translate(0, 0)" /><path d="M0,0 L176.33557568774197,-242.7050983124842 L3.6739403974420595e-14,-300.0 z" fill="#630356" stroke="none" transform="translate(0, 0)" /><path d="M0,0 L3.6739403974420595e-14,-300.0 L-176.3355756877419,-242.70509831248424 z" fill="#ff9932" stroke="none" transform="translate(0, 0)" /><path d="M0,0 L-176.3355756877419,-242.70509831248424 L-285.31695488854604,-92.70509831248427 z" fill="#000000" stroke="none" transform="translate(0, 0)" /><path d="M0,0 L-285.31695488854604,-92.70509831248427 L-285.3169548885461,92.70509831248417 z" fill="#fec50c" stroke="none" transform="translate(0, 0)" /><path d="M0,0 L-285.3169548885461,92.70509831248417 L-176.335575687742,242.7050983124842 z" fill="#e93d8c" stroke="none" transform="translate(0, 0)" /><path d="M0,0 L-176.335575687742,242.7050983124842 L-7.347880794884119e-14,300.0 z" fill="#784f16" stroke="none" transform="translate(0, 0)" /></g><g id="empty" /></svg>