<?xml version="1.0" encoding="utf-8" ?>
<svg baseProfile="full" height="100px" version="1.1" width="150px" xmlns="http://www.w3.org/2000/svg" xmlns:ev="http://www.w3.org/2001/xml-events" xmlns:xlink="http://www.w3.org/1999/xlink"><defs><clipPath id="mask0"><rect height="100" width="150" x="0" y="0" /></clipPath></defs><g clip-path="url(#mask0)"><rect fill="#006699" height="7.142857142857143" stroke="none" width="150" x="0" y="0.0" /><rect fill="#ffffff" height="7.142857142857143" stroke="none" width="150" x="0" y="7.142857142857143" /><rect fill="#006699" height="7.142857142857143" stroke="none" width="150" x="0" y="14.285714285714286" /><rect fill="#ffffff" height="7.142857142857143" stroke="none" width="150" x="0" y="21.428571428571427" /><rect fill="#006699" height="7.142857142857143" stroke="none" width="150" x="0" y="28.571428571428573" /><rect fill="#ffffff" height="7.142857142857143" stroke="none" width="150" x="0" y="35.714285714285715" /><rect fill="#006699" height="7.142857142857143" stroke="none" width="150" x="0" y="42.857142857142854" /><rect fill="#ffffff" height="7.142857142857143" stroke="none" width="150" x="0" y="50.0" /><rect fill="#006699" height="7.142857142857143" stroke="none" width="150" x="0" y="57.142857142857146" /><rect fill="#ffffff" height="7.142857142857143" stroke="none" width="150" x="0" y="64.28571428571429" /><rect fill="#006699" height="7.142857142857143" stroke="none" width="150" x="0" y="71.42857142857143" /><rect fill="#ffffff" height="7.142857142857143" stroke="none" width="150" x="0" y="78.57142857142857" /><rect fill="#006699" height="7.142857142857143" stroke="none" width="150" x="0" y="85.71428571428571" /><rect fill="#ffffff" height="7.142857142857143" stroke="none" width="150" x="0" y="92.85714285714286" /><rect fill="#CB001E" height="50.0" stroke="none" width="75.0" x="0" y="0" /></g><g transform="translate(13.75, 11.666666666666668) scale(0.1) rotate(0, 50.0, 50.0)"><path d="M 50.0,1.9 L 61.8,38.199999999999996 L 100.0,38.199999999999996 L 69.1,60.7 L 80.9,97.0 L 50.0,74.5 L 19.1,97.0 L 30.900000000000002,60.7 L 0.0,38.2 L 38.2,38.2 L 50.0,1.9" fill="#ffce00" stroke="none" stroke-width="2.0px" /></g><g transform="translate(7.5, 28.333333333333336) scale(0.1) rotate(0, 50.0, 50.0)"><path d="M 50.0,1.9 L 61.8,38.199999999999996 L 100.0,38.199999999999996 L 69.1,60.7 L 80.9,97.0 L 50.0,74.5 L 19.1,97.0 L 30.900000000000002,60.7 L 0.0,38.2 L 38.2,38.2 L 50.0,1.9" fill="#ffce00" stroke="none" stroke-width="2.0px" /></g><g transform="translate(26.25, 11.666666666666668) scale(0.1) rotate(0, 50.0, 50.0)"><path d="M 50.0,1.9 L 61.8,38.199999999999996 L 100.0,38.199999999999996 L 69.1,60.7 L 80.9,97.0 L 50.0,74.5 L 19.1,97.0 L 30.900000000000002,60.7 L 0.0,38.2 L 38.2,38.2 L 50.0,1.9" fill="#ffce00" stroke="none" stroke-width="2.0px" /></g><g transform="translate(20.0, 28.333333333333336) scale(0.1) rotate(0, 50.0, 50.0)"><path d="M 50.0,1.9 L 61.8,38.199999999999996 L 100.0,38.199999999999996 L 69.1,60.7 L 80.9,97.0 L 50.0,74.5 L 19.1,97.0 L 30.900000000000002,60.7 L 0.0,38.2 L 38.2,38.2 L 50.0,1.9" fill="#ffce00" stroke="none" stroke-width="2.0px" /></g><g transform="translate(38.75, 11.666666666666668) scale(0.1) rotate(0, 50.0, 50.0)"><path d="M 50.0,1.9 L 61.8,38.199999999999996 L 100.0,38.199999999999996 L 69.1,60.7 L 80.9,97.0 L 50.0,74.5 L 19.1,97.0 L 30.900000000000002,60.7 L 0.0,38.2 L 38.2,38.2 L 50.0,1.9" fill="#ffce00" stroke="none" stroke-width="2.0px" /></g><g transform="translate(32.5, 28.333333333333336) scale(0.1) rotate(0, 50.0, 50.0)"><path d="M 50.0,1.9 L 61.8,38.199999999999996 L 100.0,38.199999999999996 L 69.1,60.7 L 80.9,97.0 L 50.0,74.5 L 19.1,97.0 L 30.900000000000002,60.7 L 0.0,38.2 L 38.2,38.2 L 50.0,1.9" fill="#ffce00" stroke="none" stroke-width="2.0px" /></g><g transform="translate(51.25, 11.666666666666668) scale(0.1) rotate(0, 50.0, 50.0)"><path d="M 50.0,1.9 L 61.8,38.199999999999996 L 100.0,38.199999999999996 L 69.1,60.7 L 80.9,97.0 L 50.0,74.5 L 19.1,97.0 L 30.900000000000002,60.7 L 0.0,38.2 L 38.2,38.2 L 50.0,1.9" fill="#ffce00" stroke="none" stroke-width="2.0px" /></g><g transform="translate(45.0, 28.333333333333336) scale(0.1) rotate(0, 50.0, 50.0)"><path d="M 50.0,1.9 L 61.8,38.199999999999996 L 100.0,38.199999999999996 L 69.1,60.7 L 80.9,97.0 L 50.0,74.5 L 19.1,97.0 L 30.900000000000002,60.7 L 0.0,38.2 L 38.2,38.2 L 50.0,1.9" fill="#ffce00" stroke="none" stroke-width="2.0px" /></g><g transform="translate(57.5, 28.333333333333336) scale(0.1) rotate(0, 50.0, 50.0)"><path d="M 50.0,1.9 L 61.8,38.199999999999996 L 100.0,38.199999999999996 L 69.1,60.7 L 80.9,97.0 L 50.0,74.5 L 19.1,97.0 L 30.900000000000002,60.7 L 0.0,38.2 L 38.2,38.2 L 50.0,1.9" fill="#ffce00" stroke="none" stroke-width="2.0px" /></g></svg>