<?xml version="1.0" encoding="utf-8" ?>
<svg baseProfile="full" height="100px" version="1.1" width="150px" xmlns="http://www.w3.org/2000/svg" xmlns:ev="http://www.w3.org/2001/xml-events" xmlns:xlink="http://www.w3.org/1999/xlink"><defs><clipPath id="mask0"><rect height="100" width="150" x="0" y="0" /></clipPath></defs><g clip-path="url(#mask0)"><rect fill="#ffffff" height="11.11111111111111" stroke="none" width="150" x="0" y="0.0" /><rect fill="#003897" height="11.11111111111111" stroke="none" width="150" x="0" y="11.11111111111111" /><rect fill="#ffffff" height="11.11111111111111" stroke="none" width="150" x="0" y="22.22222222222222" /><rect fill="#003897" height="11.11111111111111" stroke="none" width="150" x="0" y="33.333333333333336" /><rect fill="#ffffff" height="11.11111111111111" stroke="none" width="150" x="0" y="44.44444444444444" /><rect fill="#003897" height="11.11111111111111" stroke="none" width="150" x="0" y="55.55555555555556" /><rect fill="#ffffff" height="11.11111111111111" stroke="none" width="150" x="0" y="66.66666666666667" /><rect fill="#003897" height="11.11111111111111" stroke="none" width="150" x="0" y="77.77777777777777" /><rect fill="#ffffff" height="11.11111111111111" stroke="none" width="150" x="0" y="88.88888888888889" /></g><g transform="translate(52.00030543803078, 27.00030543803078) scale(0.45999389123938444) rotate(0, 50.0, 50.0)"><path d="M 70.2,61.8 C 78.7,55.699999999999996 87.1,49.599999999999994 95.6,43.4 C 97.1,42.3 98.6,41.199999999999996 100.1,40.1 C 100.1,40.0 100.0,39.9 100.0,39.800000000000004 C 66.7,39.800000000000004 33.400000000000006,39.800000000000004 0.09999999999999432,39.800000000000004 C 0.2999999999999943,40.300000000000004 0.5999999999999943,40.50000000000001 0.9999999999999943,40.800000000000004 C 10.599999999999994,47.800000000000004 20.199999999999992,54.7 29.799999999999994,61.7 C 30.499999999999993,62.2 30.699999999999992,62.6 30.399999999999995,63.5 C 26.999999999999996,73.7 23.699999999999996,83.9 20.399999999999995,94.2 C 19.899999999999995,95.60000000000001 19.499999999999996,97.10000000000001 18.999999999999996,98.5 C 19.099999999999998,98.6 19.199999999999996,98.6 19.299999999999997,98.7 C 19.599999999999998,98.5 19.9,98.3 20.199999999999996,98.10000000000001 C 29.899999999999995,91.10000000000001 39.5,84.10000000000001 49.199999999999996,77.10000000000001 C 49.9,76.60000000000001 50.3,76.60000000000001 50.99999999999999,77.10000000000001 C 60.599999999999994,84.10000000000001 70.19999999999999,91.10000000000001 79.89999999999999,98.10000000000001 C 80.19999999999999,98.30000000000001 80.6,98.50000000000001 81.19999999999999,98.9 C 80.99999999999999,98.2 80.99999999999999,97.80000000000001 80.79999999999998,97.5 C 77.0,86.2 73.3,74.9 69.6,63.6 C 69.4,62.8 69.4,62.3 70.2,61.8" fill="#ffce00" stroke="none" stroke-width="2.0" /><path d="M 24.3,24.8 C 24.900000000000002,25.5 25.400000000000002,25.400000000000002 26.1,24.8 C 27.6,23.5 29.0,22.1 30.700000000000003,21.0 C 34.400000000000006,18.5 38.5,18.0 42.800000000000004,19.6 C 44.7,20.3 46.7,21.1 48.6,21.8 C 52.800000000000004,23.5 57.0,24.8 61.900000000000006,24.8 C 62.300000000000004,24.8 63.00000000000001,24.7 63.7,24.7 C 64.10000000000001,24.7 64.60000000000001,24.599999999999998 65.0,24.5 C 72.6,23.3 78.4,19.1 83.5,13.6 C 84.1,12.9 83.9,12.299999999999999 83.4,11.7 C 80.5,8.399999999999999 77.60000000000001,4.999999999999999 74.7,1.6999999999999993 C 74.0,0.8999999999999992 73.3,0.8999999999999992 72.5,1.5999999999999992 C 71.5,2.499999999999999 70.5,3.3999999999999995 69.5,4.199999999999999 C 66.0,6.8999999999999995 62.3,8.6 57.8,7.499999999999999 C 55.8,6.999999999999999 53.699999999999996,6.299999999999999 51.8,5.6 C 46.3,3.4999999999999996 40.8,1.8999999999999995 34.8,2.6999999999999997 C 26.999999999999996,3.6999999999999997 20.599999999999998,7.299999999999999 15.299999999999997,12.899999999999999 C 14.699999999999998,13.499999999999998 14.599999999999998,14.099999999999998 15.299999999999997,14.799999999999999 C 18.3,18.2 21.3,21.5 24.3,24.8" fill="#ffce00" stroke="none" stroke-width="2.0" /></g></svg>