<?xml version="1.0" encoding="utf-8" ?>
<svg baseProfile="full" height="100px" version="1.1" width="150px" xmlns="http://www.w3.org/2000/svg" xmlns:ev="http://www.w3.org/2001/xml-events" xmlns:xlink="http://www.w3.org/1999/xlink"><defs><clipPath id="mask0"><rect height="100" width="150" x="0" y="0" /></clipPath></defs><g clip-path="url(#mask0)"><rect fill="#ff0000" height="33.333333333333336" stroke="none" width="150" x="0" y="0.0" /><rect fill="#007934" height="33.333333333333336" stroke="none" width="150" x="0" y="33.333333333333336" /><rect fill="#ff6602" height="33.333333333333336" stroke="none" width="150" x="0" y="66.66666666666667" /></g><g transform="translate(48.148790865460924, 23.14879086546092) scale(0.5370241826907816) rotate(0, 50.0, 50.0)"><path d="M 59.4,65.3 C 58.699999999999996,65.3 58.199999999999996,65.3 57.699999999999996,65.3 C 45.39999999999999,65.3 33.099999999999994,65.3 20.799999999999997,65.3 C 14.2,65.3 9.0,69.1 7.0,75.2 C 4.5,83.0 9.3,91.30000000000001 17.4,93.2 C 25.2,95.0 33.2,89.60000000000001 34.4,81.7 C 34.6,80.3 34.6,78.9 34.699999999999996,77.4 C 36.3,77.4 37.9,77.4 39.599999999999994,77.4 C 39.99999999999999,81.80000000000001 39.099999999999994,85.80000000000001 36.8,89.5 C 32.5,96.3 24.799999999999997,99.7 16.799999999999997,98.3 C 9.5,96.9 3.2,90.8 1.7,83.5 C 0.0,75.5 3.2,67.7 10.0,63.2 C 13.1,61.2 16.5,60.1 20.1,60.1 C 32.8,60.1 45.5,60.1 58.2,60.1 C 59.1,60.1 59.400000000000006,60.300000000000004 59.300000000000004,61.2 C 59.4,62.5 59.4,63.8 59.4,65.3" fill="#ffffff" stroke="none" stroke-width="2.0px" /><path d="M 40.4,34.8 C 41.1,34.8 41.6,34.8 42.1,34.8 C 54.5,34.8 66.8,34.8 79.2,34.8 C 87.5,34.8 93.9,27.999999999999996 93.4,19.699999999999996 C 93.0,12.2 86.6,6.4 78.9,6.6 C 71.60000000000001,6.699999999999999 65.4,12.8 65.2,20.2 C 65.2,21.0 65.2,21.8 65.2,22.7 C 63.400000000000006,22.7 61.800000000000004,22.7 60.2,22.7 C 59.800000000000004,18.4 60.7,14.399999999999999 62.900000000000006,10.7 C 68.4,1.799999999999999 79.5,-1.1000000000000014 88.7,3.8999999999999995 C 97.60000000000001,8.8 101.2,19.9 96.60000000000001,29.2 C 93.2,36.0 87.50000000000001,39.8 79.9,39.9 C 67.10000000000001,40.1 54.300000000000004,40.0 41.50000000000001,40.0 C 40.70000000000001,40.0 40.300000000000004,39.8 40.300000000000004,38.9 C 40.5,37.5 40.4,36.2 40.4,34.8" fill="#ffffff" stroke="none" stroke-width="2.0px" /><path d="M 22.6,34.8 C 22.6,36.5 22.6,38.099999999999994 22.6,39.8 C 21.200000000000003,39.8 19.900000000000002,39.9 18.6,39.8 C 8.600000000000001,38.8 1.2000000000000028,30.299999999999997 1.4000000000000021,20.299999999999997 C 1.600000000000002,10.399999999999997 9.400000000000002,2.1999999999999957 19.400000000000002,1.4999999999999964 C 29.1,0.8 38.0,7.8 39.5,17.6 C 39.7,18.700000000000003 39.7,19.8 39.7,21.0 C 39.7,33.3 39.7,45.7 39.7,58.0 C 39.7,59.2 39.400000000000006,59.7 38.1,59.6 C 37.0,59.5 35.9,59.6 34.6,59.6 C 34.6,59.0 34.6,58.4 34.6,57.9 C 34.6,45.5 34.6,33.099999999999994 34.6,20.699999999999996 C 34.6,12.099999999999996 26.8,5.399999999999995 18.400000000000002,6.799999999999995 C 11.100000000000001,7.999999999999996 5.900000000000002,14.399999999999995 6.400000000000002,21.799999999999997 C 6.900000000000002,28.9 12.800000000000002,34.599999999999994 20.1,34.9 C 20.9,34.8 21.7,34.8 22.6,34.8" fill="#ffffff" stroke="none" stroke-width="2.0px" /><path d="M 77.2,65.3 C 77.2,63.699999999999996 77.2,62.199999999999996 77.2,60.8 C 77.2,60.599999999999994 77.7,60.199999999999996 78.0,60.199999999999996 C 85.6,59.599999999999994 93.2,63.9 96.5,70.89999999999999 C 100.0,78.19999999999999 99.3,85.3 94.2,91.5 C 89.0,97.8 82.10000000000001,100.0 74.2,97.9 C 66.4,95.80000000000001 61.800000000000004,90.4 60.300000000000004,82.5 C 60.1,81.3 60.1,80.1 60.1,78.9 C 60.1,66.7 60.1,54.50000000000001 60.1,42.300000000000004 C 60.1,40.6 60.1,40.6 61.800000000000004,40.6 C 65.2,40.6 65.2,40.6 65.2,44.1 C 65.2,55.900000000000006 65.2,67.7 65.2,79.5 C 65.2,89.1 74.5,95.9 83.5,93.0 C 90.1,90.9 94.3,84.4 93.3,77.7 C 92.3,70.7 86.5,65.60000000000001 79.5,65.4 C 78.8,65.3 78.1,65.3 77.2,65.3" fill="#ffffff" stroke="none" stroke-width="2.0px" /><path d="M 22.6,29.1 C 22.6,30.900000000000002 22.6,32.5 22.6,34.1 C 17.900000000000002,34.6 13.900000000000002,33.4 10.700000000000001,29.900000000000002 C 6.500000000000001,25.400000000000002 5.800000000000001,18.900000000000002 8.9,13.700000000000003 C 12.0,8.500000000000004 18.1,6.000000000000003 23.9,7.500000000000003 C 30.0,9.100000000000003 34.099999999999994,14.200000000000003 34.2,20.500000000000004 C 34.300000000000004,33.1 34.2,45.7 34.2,58.3 C 34.2,59.199999999999996 34.0,59.5 33.1,59.4 C 31.8,59.3 30.5,59.4 29.1,59.4 C 29.1,58.699999999999996 29.1,58.199999999999996 29.1,57.699999999999996 C 29.1,45.39999999999999 29.1,33.099999999999994 29.1,20.9 C 29.1,15.599999999999998 25.1,11.799999999999999 20.0,12.2 C 15.5,12.6 12.2,16.2 12.3,20.799999999999997 C 12.4,25.299999999999997 15.9,28.799999999999997 20.4,28.999999999999996 C 21.0,29.1 21.7,29.1 22.6,29.1" fill="#ffffff" stroke="none" stroke-width="2.0px" /><path d="M 77.3,71.0 C 77.3,69.2 77.3,67.6 77.3,66.0 C 83.39999999999999,64.7 90.39999999999999,69.0 92.2,75.2 C 93.8,80.60000000000001 92.60000000000001,85.5 88.4,89.3 C 84.10000000000001,93.2 79.10000000000001,93.89999999999999 73.9,91.6 C 68.60000000000001,89.3 65.9,85.0 65.80000000000001,79.3 C 65.70000000000002,66.7 65.80000000000001,54.099999999999994 65.70000000000002,41.599999999999994 C 65.70000000000002,40.8 65.90000000000002,40.39999999999999 66.80000000000001,40.39999999999999 C 68.10000000000001,40.49999999999999 69.80000000000001,39.99999999999999 70.50000000000001,40.69999999999999 C 71.20000000000002,41.29999999999999 70.80000000000001,43.09999999999999 70.80000000000001,44.39999999999999 C 70.80000000000001,55.99999999999999 70.80000000000001,67.6 70.80000000000001,79.1 C 70.80000000000001,83.89999999999999 74.30000000000001,87.5 78.9,87.69999999999999 C 83.5,87.89999999999999 87.4,84.19999999999999 87.60000000000001,79.69999999999999 C 87.80000000000001,74.89999999999999 84.30000000000001,71.1 79.50000000000001,70.89999999999999 C 78.9,70.9 78.1,71.0 77.3,71.0" fill="#ffffff" stroke="none" stroke-width="2.0px" /><path d="M 40.4,34.1 C 40.4,32.6 40.4,31.3 40.4,29.900000000000002 C 40.4,29.6 40.9,29.200000000000003 41.199999999999996,29.1 C 41.599999999999994,29.0 41.99999999999999,29.1 42.4,29.1 C 54.599999999999994,29.1 66.9,29.1 79.1,29.1 C 84.89999999999999,29.1 88.8,24.0 87.39999999999999,18.5 C 86.39999999999999,14.5 82.6,12.0 78.39999999999999,12.4 C 74.3,12.8 71.1,16.1 70.89999999999999,20.2 C 70.8,21.0 70.89999999999999,21.9 70.89999999999999,22.8 C 69.1,22.8 67.49999999999999,22.8 65.89999999999999,22.8 C 64.89999999999999,16.0 69.19999999999999,9.0 76.6,7.600000000000001 C 81.89999999999999,6.500000000000002 86.5,8.100000000000001 89.89999999999999,12.400000000000002 C 93.39999999999999,16.700000000000003 93.89999999999999,21.6 91.6,26.6 C 89.3,31.5 85.19999999999999,34.300000000000004 79.69999999999999,34.4 C 66.89999999999999,34.5 54.09999999999999,34.4 41.29999999999999,34.4 C 41.1,34.2 40.8,34.1 40.4,34.1" fill="#ffffff" stroke="none" stroke-width="2.0px" /><path d="M 28.9,77.4 C 30.7,77.4 32.3,77.4 34.0,77.4 C 34.4,82.10000000000001 33.2,86.2 29.6,89.4 C 25.0,93.5 18.400000000000002,94.0 13.400000000000002,90.9 C 8.200000000000003,87.7 5.900000000000002,81.5 7.600000000000002,75.60000000000001 C 9.200000000000003,69.9 14.500000000000004,65.9 20.700000000000003,65.9 C 33.2,65.9 45.800000000000004,65.9 58.300000000000004,65.9 C 58.7,65.9 59.00000000000001,65.9 59.50000000000001,66.0 C 59.50000000000001,67.7 59.50000000000001,69.3 59.50000000000001,71.0 C 58.900000000000006,71.0 58.300000000000004,71.0 57.70000000000001,71.0 C 45.500000000000014,71.0 33.30000000000001,71.0 21.10000000000001,71.0 C 16.70000000000001,71.0 13.40000000000001,73.4 12.500000000000009,77.4 C 11.700000000000008,80.7 12.600000000000009,83.60000000000001 15.20000000000001,85.80000000000001 C 17.80000000000001,88.00000000000001 20.80000000000001,88.4 24.00000000000001,87.10000000000001 C 27.100000000000012,85.7 28.80000000000001,83.2 29.10000000000001,79.80000000000001 C 29.0,79.0 28.9,78.2 28.9,77.4" fill="#ffffff" stroke="none" stroke-width="2.0px" /><path d="M 76.5,22.7 C 74.8,22.7 73.2,22.7 71.6,22.7 C 71.19999999999999,19.3 71.89999999999999,16.4 74.8,14.299999999999999 C 77.39999999999999,12.399999999999999 80.2,12.2 83.1,13.7 C 86.0,15.2 87.39999999999999,17.7 87.3,21.0 C 87.2,25.3 83.7,28.5 79.2,28.5 C 70.2,28.5 61.2,28.5 52.2,28.5 C 48.800000000000004,28.5 45.5,28.5 42.1,28.5 C 41.6,28.5 41.2,28.5 40.6,28.5 C 40.6,26.8 40.6,25.2 40.6,23.4 C 41.1,23.4 41.6,23.4 42.1,23.4 C 54.1,23.4 66.1,23.4 78.1,23.4 C 78.6,23.4 79.19999999999999,23.4 79.69999999999999,23.4 C 81.1,23.2 82.1,22.0 82.1,20.599999999999998 C 82.1,19.2 81.0,18.099999999999998 79.6,17.9 C 78.3,17.799999999999997 76.89999999999999,18.7 76.69999999999999,20.099999999999998 C 76.5,20.9 76.5,21.8 76.5,22.7" fill="#ffffff" stroke="none" stroke-width="2.0px" /><path d="M 28.4,59.5 C 26.599999999999998,59.5 25.099999999999998,59.5 23.299999999999997,59.5 C 23.299999999999997,58.9 23.299999999999997,58.4 23.299999999999997,57.9 C 23.299999999999997,45.8 23.299999999999997,33.7 23.299999999999997,21.5 C 23.299999999999997,21.0 23.299999999999997,20.6 23.199999999999996,20.1 C 22.899999999999995,18.700000000000003 21.599999999999994,17.8 20.299999999999997,17.900000000000002 C 18.9,18.000000000000004 17.799999999999997,19.200000000000003 17.799999999999997,20.6 C 17.799999999999997,22.0 18.799999999999997,23.200000000000003 20.199999999999996,23.400000000000002 C 20.899999999999995,23.500000000000004 21.699999999999996,23.400000000000002 22.699999999999996,23.400000000000002 C 22.699999999999996,25.000000000000004 22.699999999999996,26.500000000000004 22.699999999999996,28.1 C 22.699999999999996,28.3 22.299999999999997,28.6 22.099999999999994,28.6 C 19.099999999999994,28.8 15.899999999999995,28.200000000000003 13.699999999999994,24.6 C 12.099999999999994,21.8 12.499999999999995,18.200000000000003 14.599999999999994,15.600000000000001 C 16.699999999999996,13.100000000000001 20.299999999999994,12.200000000000001 23.399999999999995,13.400000000000002 C 26.499999999999996,14.600000000000001 28.399999999999995,17.5 28.399999999999995,21.0 C 28.399999999999995,32.9 28.399999999999995,44.8 28.399999999999995,56.7 C 28.4,57.6 28.4,58.4 28.4,59.5" fill="#ffffff" stroke="none" stroke-width="2.0px" /><path d="M 23.2,77.3 C 25.0,77.3 26.599999999999998,77.3 28.1,77.3 C 29.1,80.89999999999999 27.1,85.1 23.5,86.6 C 19.7,88.19999999999999 15.5,86.69999999999999 13.5,83.1 C 11.6,79.69999999999999 12.6,75.3 15.8,73.1 C 17.1,72.1 18.6,71.6 20.200000000000003,71.6 C 32.900000000000006,71.6 45.7,71.6 58.400000000000006,71.6 C 58.60000000000001,71.6 58.900000000000006,71.69999999999999 59.2,71.69999999999999 C 59.2,73.29999999999998 59.2,74.89999999999999 59.2,76.69999999999999 C 58.6,76.69999999999999 58.1,76.69999999999999 57.6,76.69999999999999 C 45.5,76.69999999999999 33.400000000000006,76.69999999999999 21.4,76.69999999999999 C 20.9,76.69999999999999 20.5,76.69999999999999 20.0,76.79999999999998 C 18.6,76.99999999999999 17.6,78.29999999999998 17.7,79.59999999999998 C 17.8,80.99999999999999 18.9,82.09999999999998 20.3,82.19999999999997 C 21.7,82.29999999999997 23.0,81.29999999999997 23.2,79.79999999999997 C 23.3,79.0 23.2,78.2 23.2,77.3" fill="#ffffff" stroke="none" stroke-width="2.0px" /><path d="M 77.2,76.6 C 77.2,75.0 77.2,73.6 77.2,72.3 C 77.2,72.0 77.60000000000001,71.6 77.9,71.6 C 81.9,71.0 85.80000000000001,73.5 86.9,77.19999999999999 C 88.0,80.99999999999999 86.10000000000001,84.99999999999999 82.5,86.6 C 78.9,88.19999999999999 74.6,86.89999999999999 72.6,83.39999999999999 C 71.89999999999999,82.19999999999999 71.5,80.69999999999999 71.5,79.39999999999999 C 71.4,66.89999999999999 71.5,54.29999999999999 71.4,41.79999999999999 C 71.4,40.89999999999999 71.60000000000001,40.49999999999999 72.60000000000001,40.59999999999999 C 73.60000000000001,40.69999999999999 74.50000000000001,40.69999999999999 75.50000000000001,40.59999999999999 C 76.30000000000001,40.499999999999986 76.60000000000001,40.899999999999984 76.60000000000001,41.69999999999999 C 76.60000000000001,45.29999999999999 76.60000000000001,48.89999999999999 76.60000000000001,52.59999999999999 C 76.60000000000001,61.29999999999998 76.60000000000001,69.89999999999999 76.60000000000001,78.6 C 76.60000000000001,79.1 76.60000000000001,79.5 76.7,80.0 C 77.0,81.5 78.2,82.4 79.7,82.3 C 81.0,82.2 82.10000000000001,81.0 82.2,79.7 C 82.3,78.3 81.2,77.0 79.8,76.9 C 78.9,76.6 78.1,76.6 77.2,76.6" fill="#ffffff" stroke="none" stroke-width="2.0px" /><path d="M 96.1,53.5 C 96.3,56.7 96.8,59.7 97.89999999999999,62.7 C 98.6,64.7 98.49999999999999,65.10000000000001 96.6,66.3 C 95.8,66.8 95.3,66.7 94.8,65.8 C 93.0,62.5 92.0,59.0 91.5,55.3 C 91.4,54.699999999999996 91.3,54.199999999999996 91.2,53.5 C 90.2,53.5 89.2,53.5 88.0,53.5 C 88.0,54.8 88.0,56.0 88.0,57.2 C 88.0,57.5 87.6,58.1 87.3,58.1 C 85.5,58.2 83.7,58.1 81.8,58.1 C 81.8,56.5 81.8,55.0 81.8,53.300000000000004 C 80.5,53.300000000000004 79.3,53.300000000000004 78.2,53.300000000000004 C 77.4,53.300000000000004 77.2,53.00000000000001 77.2,52.300000000000004 C 77.2,50.800000000000004 77.3,49.300000000000004 77.2,47.800000000000004 C 77.2,46.900000000000006 77.5,46.7 78.3,46.800000000000004 C 79.1,46.800000000000004 80.0,46.800000000000004 80.8,46.800000000000004 C 81.6,46.800000000000004 81.8,46.50000000000001 81.8,45.800000000000004 C 81.8,44.6 81.8,43.400000000000006 81.8,42.1 C 83.8,42.1 85.6,42.1 87.39999999999999,42.1 C 87.6,42.1 87.89999999999999,42.6 87.99999999999999,42.800000000000004 C 88.09999999999998,43.800000000000004 88.09999999999998,44.7 87.99999999999999,45.7 C 87.99999999999999,46.5 88.19999999999999,46.800000000000004 88.99999999999999,46.800000000000004 C 91.49999999999999,46.7 91.09999999999998,47.1 91.39999999999999,44.800000000000004 C 91.89999999999999,41.2 92.89999999999999,37.7 94.69999999999999,34.5 C 95.19999999999999,33.5 95.69999999999999,33.4 96.69999999999999,34.0 C 98.49999999999999,35.2 98.69999999999999,35.5 97.89999999999999,37.5 C 96.8,40.5 96.3,43.5 96.1,46.8 C 97.0,46.8 97.89999999999999,46.699999999999996 98.69999999999999,46.8 C 99.1,46.9 99.6,47.199999999999996 99.69999999999999,47.599999999999994 C 99.89999999999999,48.3 99.99999999999999,49.099999999999994 99.99999999999999,49.8 C 100.09999999999998,53.099999999999994 99.99999999999999,53.099999999999994 96.79999999999998,53.3 C 96.6,53.4 96.4,53.4 96.1,53.5" fill="#ffffff" stroke="none" stroke-width="2.0px" /><path d="M 57.9,12.0 C 57.9,14.1 57.9,16.0 57.9,18.2 C 56.699999999999996,18.2 55.6,18.3 54.4,18.2 C 53.4,18.099999999999998 53.1,18.5 53.199999999999996,19.5 C 53.3,20.5 53.199999999999996,21.6 53.199999999999996,22.7 C 50.99999999999999,22.7 48.9,22.7 46.699999999999996,22.7 C 46.699999999999996,21.5 46.699999999999996,20.4 46.699999999999996,19.3 C 46.699999999999996,18.5 46.4,18.2 45.599999999999994,18.2 C 44.599999999999994,18.2 43.699999999999996,18.3 42.699999999999996,18.2 C 42.4,18.2 41.9,17.8 41.9,17.599999999999998 C 41.8,15.799999999999997 41.9,13.999999999999998 41.9,12.099999999999998 C 43.199999999999996,12.099999999999998 44.4,12.099999999999998 45.6,12.099999999999998 C 46.4,12.099999999999998 46.7,11.799999999999997 46.6,10.999999999999998 C 46.6,10.799999999999999 46.6,10.499999999999998 46.6,10.299999999999999 C 46.800000000000004,9.299999999999999 46.300000000000004,8.899999999999999 45.300000000000004,8.799999999999999 C 41.50000000000001,8.399999999999999 37.900000000000006,7.399999999999999 34.5,5.599999999999999 C 33.2,4.899999999999999 33.1,4.599999999999999 33.9,3.3999999999999986 C 35.0,1.6999999999999986 35.3,1.5999999999999985 37.3,2.2999999999999985 C 40.3,3.2999999999999985 43.3,3.9999999999999982 46.699999999999996,4.099999999999999 C 46.699999999999996,3.199999999999999 46.8,2.4999999999999987 46.699999999999996,1.6999999999999988 C 46.599999999999994,0.7999999999999988 46.99999999999999,0.3999999999999988 47.8,0.3999999999999988 C 49.199999999999996,0.2999999999999988 50.699999999999996,0.2999999999999988 52.199999999999996,0.3999999999999988 C 52.99999999999999,0.3999999999999988 53.4,0.8999999999999988 53.3,1.6999999999999988 C 53.199999999999996,2.3999999999999986 53.3,3.199999999999999 53.3,4.199999999999999 C 55.199999999999996,3.8999999999999995 57.0,3.7999999999999994 58.699999999999996,3.3999999999999995 C 60.3,3.0999999999999996 61.8,2.4999999999999996 63.4,1.9999999999999996 C 64.6,1.5999999999999996 66.8,3.3 66.6,4.5 C 66.5,4.9 66.0,5.2 65.69999999999999,5.4 C 62.29999999999999,7.2 58.69999999999999,8.3 54.89999999999999,8.8 C 54.39999999999999,8.9 53.599999999999994,9.0 53.49999999999999,9.3 C 53.29999999999999,10.100000000000001 53.39999999999999,11.0 53.49999999999999,11.9 C 53.49999999999999,12.0 54.099999999999994,12.1 54.39999999999999,12.200000000000001 C 55.4,12.0 56.6,12.0 57.9,12.0" fill="#ffffff" stroke="none" stroke-width="2.0px" /><path d="M 3.7,53.3 C 2.9000000000000004,53.3 2.2,53.199999999999996 1.4000000000000004,53.3 C 0.5000000000000003,53.4 0.10000000000000031,53.0 0.10000000000000031,52.199999999999996 C 0.0,50.8 0.0,49.4 0.0,48.0 C 0.0,47.1 0.5,46.6 1.5,46.8 C 2.2,46.9 2.9,46.8 3.7,46.8 C 3.7,46.099999999999994 3.8000000000000003,45.5 3.7,45.0 C 3.1,42.2 2.5,39.5 1.8000000000000003,36.8 C 1.5000000000000002,35.599999999999994 3.1000000000000005,33.4 4.4,33.599999999999994 C 4.7,33.699999999999996 5.0,34.099999999999994 5.2,34.39999999999999 C 7.0,37.69999999999999 8.0,41.19999999999999 8.6,44.89999999999999 C 8.7,45.49999999999999 8.799999999999999,45.99999999999999 8.799999999999999,46.599999999999994 C 8.999999999999998,46.699999999999996 8.999999999999998,46.8 9.1,46.8 C 12.0,47.0 12.0,47.0 12.0,44.199999999999996 C 12.0,43.49999999999999 12.0,42.9 12.0,42.199999999999996 C 14.1,42.199999999999996 16.0,42.199999999999996 18.2,42.199999999999996 C 18.2,43.699999999999996 18.2,45.199999999999996 18.2,46.9 C 19.599999999999998,46.9 20.7,46.9 21.9,46.9 C 22.599999999999998,46.9 22.9,47.1 22.9,47.8 C 22.9,49.4 22.9,51.0 22.9,52.5 C 22.9,53.2 22.599999999999998,53.4 22.0,53.4 C 20.8,53.4 19.7,53.4 18.3,53.4 C 18.3,55.0 18.3,56.5 18.3,58.199999999999996 C 16.3,58.199999999999996 14.5,58.199999999999996 12.8,58.199999999999996 C 12.600000000000001,58.199999999999996 12.200000000000001,57.599999999999994 12.100000000000001,57.3 C 12.000000000000002,56.099999999999994 12.100000000000001,54.9 12.100000000000001,53.5 C 11.100000000000001,53.5 10.200000000000001,53.4 9.400000000000002,53.6 C 9.100000000000001,53.7 8.800000000000002,54.4 8.700000000000003,54.800000000000004 C 8.300000000000002,58.1 7.500000000000003,61.300000000000004 6.000000000000003,64.4 C 5.900000000000003,64.60000000000001 5.900000000000003,64.80000000000001 5.700000000000003,65.0 C 5.200000000000003,65.6 4.500000000000003,66.8 4.400000000000003,66.7 C 3.400000000000003,66.3 2.600000000000003,65.60000000000001 1.800000000000003,64.9 C 1.600000000000003,64.7 1.800000000000003,64.0 1.900000000000003,63.50000000000001 C 2.500000000000003,60.60000000000001 3.200000000000003,57.800000000000004 3.800000000000003,54.900000000000006 C 3.8,54.3 3.7,53.9 3.7,53.3" fill="#ffffff" stroke="none" stroke-width="2.0px" /><path d="M 46.7,81.9 C 46.7,80.30000000000001 46.7,78.9 46.7,77.4 C 48.900000000000006,77.4 51.0,77.4 53.2,77.4 C 53.2,78.10000000000001 53.2,78.9 53.2,79.60000000000001 C 53.2,81.9 53.2,81.9 55.400000000000006,81.9 C 56.00000000000001,81.9 56.60000000000001,81.80000000000001 57.10000000000001,81.9 C 57.400000000000006,82.0 57.900000000000006,82.4 57.900000000000006,82.7 C 58.00000000000001,84.2 57.900000000000006,85.7 57.900000000000006,87.2 C 57.900000000000006,88.0 57.60000000000001,88.10000000000001 56.900000000000006,88.10000000000001 C 55.7,88.10000000000001 54.50000000000001,88.10000000000001 53.300000000000004,88.10000000000001 C 53.2,88.30000000000001 53.1,88.4 53.1,88.60000000000001 C 52.9,91.30000000000001 52.9,91.30000000000001 55.5,91.60000000000001 C 58.9,92.10000000000001 62.2,93.10000000000001 65.3,94.80000000000001 C 66.5,95.50000000000001 66.6,95.70000000000002 65.8,96.9 C 64.6,98.60000000000001 64.39999999999999,98.7 62.5,98.0 C 59.5,96.9 56.5,96.4 53.1,96.2 C 53.1,97.10000000000001 53.1,97.9 53.1,98.7 C 53.2,99.4 52.800000000000004,99.9 52.2,99.9 C 50.7,100.0 49.1,100.0 47.6,100.0 C 46.800000000000004,100.0 46.5,99.5 46.6,98.8 C 46.7,98.0 46.6,97.2 46.6,96.2 C 44.4,96.60000000000001 42.300000000000004,96.8 40.300000000000004,97.3 C 39.00000000000001,97.6 37.7,98.1 36.400000000000006,98.5 C 35.300000000000004,98.9 33.10000000000001,97.0 33.400000000000006,95.8 C 33.50000000000001,95.5 33.900000000000006,95.2 34.300000000000004,95.0 C 37.7,93.1 41.300000000000004,92.1 45.10000000000001,91.7 C 46.400000000000006,91.60000000000001 46.900000000000006,91.10000000000001 46.70000000000001,89.9 C 46.60000000000001,89.5 46.70000000000001,89.0 46.70000000000001,88.30000000000001 C 45.40000000000001,88.30000000000001 44.30000000000001,88.30000000000001 43.20000000000001,88.30000000000001 C 42.30000000000001,88.30000000000001 41.90000000000001,88.10000000000001 42.00000000000001,87.10000000000001 C 42.10000000000001,85.7 42.00000000000001,84.4 42.00000000000001,83.00000000000001 C 42.00000000000001,82.30000000000001 42.300000000000004,82.00000000000001 43.00000000000001,82.10000000000001 C 44.0,81.9 45.2,81.9 46.7,81.9" fill="#ffffff" stroke="none" stroke-width="2.0px" /><path d="M 41.0,46.4 C 42.8,44.6 44.5,42.9 46.2,41.199999999999996 C 47.300000000000004,42.49999999999999 48.5,43.699999999999996 49.800000000000004,45.099999999999994 C 51.1,43.599999999999994 52.2,42.3 53.300000000000004,41.099999999999994 C 55.300000000000004,43.099999999999994 57.00000000000001,44.699999999999996 58.800000000000004,46.599999999999994 C 57.6,47.599999999999994 56.300000000000004,48.699999999999996 54.800000000000004,50.099999999999994 C 56.400000000000006,51.39999999999999 57.7,52.599999999999994 59.00000000000001,53.599999999999994 C 57.10000000000001,55.49999999999999 55.400000000000006,57.199999999999996 53.60000000000001,58.99999999999999 C 52.50000000000001,57.79999999999999 51.400000000000006,56.49999999999999 50.10000000000001,55.099999999999994 C 48.70000000000001,56.599999999999994 47.60000000000001,57.89999999999999 46.50000000000001,59.099999999999994 C 44.60000000000001,57.199999999999996 43.00000000000001,55.49999999999999 41.10000000000001,53.599999999999994 C 42.20000000000001,52.599999999999994 43.60000000000001,51.49999999999999 45.00000000000001,50.3 C 43.5,48.8 42.3,47.6 41.0,46.4" fill="#ffffff" stroke="none" stroke-width="2.0px" /></g></svg>