<?xml version="1.0" encoding="utf-8" ?>
<svg baseProfile="full" height="100px" version="1.1" width="150px" xmlns="http://www.w3.org/2000/svg" xmlns:ev="http://www.w3.org/2001/xml-events" xmlns:xlink="http://www.w3.org/1999/xlink"><defs><clipPath id="mask0"><rect height="100" width="150" x="0" y="0" /></clipPath></defs><g clip-path="url(#mask0)"><rect fill="#ff3333" height="33.333333333333336" stroke="none" width="150" x="0" y="0.0" /><rect fill="#ffffff" height="33.333333333333336" stroke="none" width="150" x="0" y="33.333333333333336" /><rect fill="#6699ff" height="33.333333333333336" stroke="none" width="150" x="0" y="66.66666666666667" /></g><g transform="translate(54.53932086479277, 29.539320864792774) scale(0.40921358270414454) rotate(0, 50.0, 50.0)"><path d="M 51.4,81.1 C 51.4,82.5 51.4,83.89999999999999 51.4,85.3 C 51.3,87.8 52.0,90.1 53.6,92.1 C 55.4,94.5 55.300000000000004,97.0 53.6,98.8 C 52.1,100.39999999999999 49.5,100.7 47.7,99.6 C 45.7,98.3 44.5,95.39999999999999 45.900000000000006,93.69999999999999 C 49.7,89.1 49.00000000000001,83.79999999999998 49.00000000000001,78.6 C 49.00000000000001,76.6 48.60000000000001,74.6 48.50000000000001,72.6 C 48.400000000000006,71.5 47.900000000000006,71.19999999999999 46.900000000000006,71.0 C 45.900000000000006,70.9 45.00000000000001,70.7 44.00000000000001,70.4 C 41.10000000000001,69.4 41.10000000000001,69.4 39.300000000000004,71.9 C 36.7,75.30000000000001 34.7,78.9 35.50000000000001,83.60000000000001 C 35.900000000000006,86.00000000000001 33.70000000000001,88.30000000000001 31.300000000000008,88.60000000000001 C 29.40000000000001,88.9 27.000000000000007,87.30000000000001 26.300000000000008,85.30000000000001 C 25.500000000000007,83.10000000000001 26.40000000000001,80.50000000000001 28.60000000000001,79.60000000000001 C 33.70000000000001,77.60000000000001 35.80000000000001,73.4 37.400000000000006,68.7 C 37.60000000000001,68.2 37.300000000000004,67.2 36.900000000000006,66.7 C 36.300000000000004,65.9 35.400000000000006,65.3 34.7,64.60000000000001 C 32.7,62.30000000000001 32.6,62.20000000000001 29.800000000000004,63.60000000000001 C 26.300000000000004,65.4 22.700000000000003,67.2 19.400000000000006,69.4 C 17.800000000000004,70.5 16.600000000000005,72.30000000000001 15.700000000000006,74.0 C 13.700000000000006,77.9 9.900000000000006,78.9 7.300000000000006,75.9 C 6.000000000000006,74.4 5.700000000000006,72.7 6.500000000000006,70.9 C 7.200000000000006,69.2 8.600000000000007,67.7 10.400000000000006,68.10000000000001 C 16.100000000000005,69.10000000000001 20.300000000000004,66.10000000000001 24.700000000000006,63.50000000000001 C 26.500000000000007,62.400000000000006 28.300000000000008,61.10000000000001 29.900000000000006,59.800000000000004 C 30.300000000000004,59.50000000000001 30.500000000000007,58.7 30.400000000000006,58.1 C 30.100000000000005,56.4 29.600000000000005,54.800000000000004 29.100000000000005,53.2 C 28.900000000000006,52.7 28.300000000000004,52.1 27.700000000000006,51.900000000000006 C 26.300000000000008,51.60000000000001 24.900000000000006,51.50000000000001 23.500000000000007,51.400000000000006 C 20.10000000000001,51.10000000000001 16.900000000000006,51.7 14.200000000000006,53.900000000000006 C 12.900000000000006,54.900000000000006 11.500000000000007,55.300000000000004 9.900000000000006,54.7 C 8.000000000000005,54.1 6.900000000000006,52.800000000000004 6.600000000000006,50.900000000000006 C 6.300000000000006,48.900000000000006 7.100000000000006,47.300000000000004 8.800000000000006,46.2 C 10.400000000000006,45.2 12.200000000000006,45.0 13.600000000000005,46.2 C 17.800000000000004,49.7 22.500000000000007,49.300000000000004 27.400000000000006,48.6 C 28.500000000000007,48.5 29.000000000000007,48.0 29.200000000000006,46.9 C 29.300000000000008,46.0 29.500000000000007,45.1 29.700000000000006,44.199999999999996 C 30.700000000000006,41.099999999999994 30.800000000000008,40.99999999999999 28.100000000000005,39.199999999999996 C 24.700000000000006,36.99999999999999 21.200000000000003,34.8 17.500000000000007,32.99999999999999 C 15.700000000000006,32.199999999999996 13.500000000000007,32.199999999999996 11.400000000000007,32.29999999999999 C 8.700000000000006,32.29999999999999 6.500000000000007,30.89999999999999 6.000000000000007,28.39999999999999 C 5.600000000000007,26.09999999999999 7.100000000000007,23.699999999999992 9.400000000000007,22.999999999999993 C 11.400000000000007,22.39999999999999 13.800000000000008,22.999999999999993 14.500000000000007,24.89999999999999 C 16.900000000000006,31.09999999999999 22.700000000000006,32.99999999999999 27.700000000000006,35.99999999999999 C 28.700000000000006,36.599999999999994 30.000000000000007,36.89999999999999 31.000000000000007,37.49999999999999 C 32.20000000000001,38.199999999999996 33.00000000000001,37.79999999999999 33.800000000000004,36.79999999999999 C 34.300000000000004,36.09999999999999 34.900000000000006,35.49999999999999 35.50000000000001,34.89999999999999 C 38.300000000000004,32.39999999999999 37.800000000000004,33.29999999999999 36.60000000000001,30.199999999999992 C 35.00000000000001,26.199999999999992 32.900000000000006,22.699999999999992 28.500000000000007,20.999999999999993 C 26.000000000000007,19.999999999999993 25.200000000000006,17.499999999999993 26.10000000000001,14.999999999999993 C 26.90000000000001,12.799999999999994 29.20000000000001,11.599999999999993 31.40000000000001,12.099999999999993 C 34.00000000000001,12.699999999999992 35.60000000000001,14.799999999999994 35.20000000000001,17.499999999999993 C 34.40000000000001,22.89999999999999 37.40000000000001,26.599999999999994 40.40000000000001,30.299999999999994 C 40.70000000000001,30.599999999999994 41.600000000000016,30.699999999999992 42.20000000000001,30.499999999999993 C 43.30000000000001,30.299999999999994 44.40000000000001,29.599999999999994 45.50000000000001,29.599999999999994 C 47.400000000000006,29.499999999999993 48.300000000000004,28.699999999999996 48.300000000000004,26.799999999999994 C 48.300000000000004,21.999999999999993 48.6,17.199999999999996 48.300000000000004,12.499999999999993 C 48.2,10.699999999999992 46.7,8.999999999999993 45.7,7.299999999999993 C 44.6,5.299999999999993 44.900000000000006,2.8999999999999924 46.5,1.3999999999999924 C 48.1,-0.10000000000000764 50.5,-0.3000000000000076 52.4,0.9999999999999923 C 54.199999999999996,2.199999999999992 55.3,5.099999999999992 53.9,6.799999999999992 C 49.8,11.799999999999992 51.1,17.599999999999994 50.9,23.19999999999999 C 50.9,23.899999999999988 51.0,24.49999999999999 51.0,25.19999999999999 C 51.1,28.69999999999999 51.2,28.899999999999988 54.6,29.599999999999987 C 54.9,29.69999999999999 55.2,29.69999999999999 55.5,29.799999999999986 C 58.9,30.899999999999988 58.8,30.899999999999988 60.9,27.999999999999986 C 63.3,24.699999999999985 65.1,21.299999999999986 64.4,16.999999999999986 C 64.0,14.399999999999986 65.80000000000001,12.299999999999986 68.4,11.899999999999986 C 70.7,11.499999999999986 72.9,12.899999999999986 73.60000000000001,15.299999999999986 C 74.30000000000001,17.499999999999986 73.4,19.999999999999986 71.00000000000001,20.899999999999984 C 65.90000000000002,22.899999999999984 64.00000000000001,27.299999999999983 62.30000000000001,31.899999999999984 C 62.10000000000001,32.29999999999998 62.40000000000001,33.19999999999998 62.80000000000001,33.59999999999999 C 63.40000000000001,34.399999999999984 64.30000000000001,34.899999999999984 64.9,35.59999999999999 C 67.10000000000001,37.999999999999986 67.2,38.19999999999999 70.2,36.79999999999999 C 73.9,34.99999999999999 77.5,32.99999999999999 80.8,30.69999999999999 C 82.5,29.49999999999999 83.5,27.29999999999999 84.7,25.49999999999999 C 86.5,22.49999999999999 90.2,21.899999999999988 92.4,24.399999999999988 C 93.80000000000001,25.899999999999988 94.0,27.69999999999999 93.2,29.499999999999986 C 92.4,31.199999999999985 91.0,32.499999999999986 89.0,32.19999999999999 C 80.8,31.29999999999999 75.5,36.79999999999999 69.5,40.69999999999999 C 69.2,40.89999999999999 69.1,41.79999999999999 69.2,42.29999999999999 C 69.4,43.29999999999999 69.9,44.29999999999999 70.10000000000001,45.29999999999999 C 70.7,48.49999999999999 70.7,48.49999999999999 73.9,48.79999999999999 C 78.2,49.19999999999999 82.30000000000001,49.09999999999999 85.9,46.19999999999999 C 87.60000000000001,44.79999999999999 90.4,45.39999999999999 91.9,46.999999999999986 C 93.5,48.69999999999999 93.5,51.399999999999984 92.0,53.19999999999999 C 90.6,54.89999999999999 87.8,55.59999999999999 86.1,54.19999999999999 C 81.8,50.59999999999999 76.89999999999999,50.999999999999986 72.0,51.89999999999999 C 71.5,51.99999999999999 70.8,52.69999999999999 70.6,53.19999999999999 C 70.1,54.69999999999999 69.6,56.39999999999999 69.3,57.999999999999986 C 69.2,58.499999999999986 69.39999999999999,59.499999999999986 69.7,59.69999999999999 C 74.10000000000001,62.499999999999986 78.5,65.29999999999998 83.0,67.69999999999999 C 84.4,68.39999999999999 86.3,68.1 88.0,67.99999999999999 C 90.6,67.89999999999999 92.8,69.19999999999999 93.4,71.69999999999999 C 94.0,73.89999999999999 92.7,76.29999999999998 90.5,77.29999999999998 C 88.4,78.19999999999999 85.8,77.49999999999999 84.8,75.29999999999998 C 82.1,68.0 74.9,66.1 68.5,63.0 C 68.1,62.8 67.1,63.1 66.7,63.5 C 65.9,64.2 65.2,65.2 64.4,65.9 C 62.300000000000004,67.80000000000001 62.2,67.80000000000001 63.400000000000006,70.4 C 64.7,73.30000000000001 65.9,76.4 68.9,78.2 C 69.80000000000001,78.8 70.9,79.2 71.80000000000001,79.7 C 73.9,80.9 74.70000000000002,83.2 73.9,85.4 C 73.2,87.5 70.80000000000001,89.0 68.9,88.7 C 66.5,88.3 64.4,86.3 64.80000000000001,83.8 C 65.60000000000001,78.5 63.000000000000014,74.6 60.10000000000001,70.8 C 59.30000000000001,69.8 58.60000000000001,69.6 57.50000000000001,70.0 C 56.50000000000001,70.4 55.400000000000006,70.8 54.300000000000004,70.9 C 52.400000000000006,71.0 51.6,71.9 51.6,73.7 C 51.5,76.2 51.4,78.7 51.4,81.1 C 51.3,81.1 51.4,81.1 51.4,81.1" fill="#000000" stroke="#e4ba28" stroke-width="2.0" /></g></svg>