<?xml version="1.0" encoding="utf-8" ?>
<svg baseProfile="full" height="100px" version="1.1" width="150px" xmlns="http://www.w3.org/2000/svg" xmlns:ev="http://www.w3.org/2001/xml-events" xmlns:xlink="http://www.w3.org/1999/xlink"><defs><clipPath id="mask0"><rect height="100" width="150" x="0" y="0" /></clipPath></defs><g clip-path="url(#mask0)"><rect fill="#ffffff" height="100" stroke="none" width="150" x="0" y="0" /></g><g transform="translate(20.0, 25.0) scale(0.5) rotate(0, 50.0, 50.0)"><path d="M 47.7,99.9 C 43.1,99.7 37.800000000000004,98.60000000000001 33.5,97.10000000000001 C 30.3,96.00000000000001 25.9,93.9 23.9,92.50000000000001 L 23.4,92.20000000000002 L 35.099999999999994,92.10000000000002 L 46.9,92.0 L 46.9,74.9 C 46.9,61.300000000000004 46.9,57.800000000000004 46.699999999999996,57.800000000000004 C 46.599999999999994,57.800000000000004 39.8,64.5 31.699999999999996,72.60000000000001 L 16.9,87.4 L 15.7,86.30000000000001 C 14.2,85.00000000000001 11.5,81.9 9.899999999999999,79.80000000000001 C 6.899999999999999,75.80000000000001 4.299999999999999,70.9 2.6999999999999984,66.10000000000001 C 2.0999999999999983,64.4 1.2999999999999985,61.30000000000001 1.3999999999999984,61.20000000000001 C 7.299999999999999,66.9 11.899999999999999,72.00000000000001 17.799999999999997,77.4 C 17.999999999999996,77.60000000000001 19.699999999999996,75.9 30.199999999999996,65.60000000000001 C 36.8,59.00000000000001 42.3,53.50000000000001 42.3,53.400000000000006 C 26.9,53.1 17.0,53.0 0.2,53.0 C -0.09999999999999998,52.8 0.0,46.5 0.4,43.6 C 1.0,39.3 2.3,34.3 4.0,30.4 C 5.3,27.299999999999997 7.2,23.799999999999997 7.7,23.599999999999998 C 7.7,31.799999999999997 7.9,36.599999999999994 7.9,46.9 C 19.200000000000003,46.699999999999996 30.9,46.9 42.199999999999996,46.8 C 42.199999999999996,46.699999999999996 35.49999999999999,40.0 27.399999999999995,31.9 C 19.299999999999997,23.799999999999997 12.599999999999994,17.0 12.599999999999994,16.9 C 12.599999999999994,16.599999999999998 17.099999999999994,12.2 18.799999999999994,10.899999999999999 C 23.299999999999994,7.399999999999999 28.299999999999994,4.599999999999999 33.599999999999994,2.799999999999999 C 35.89999999999999,1.999999999999999 38.099999999999994,1.399999999999999 38.599999999999994,1.399999999999999 C 38.8,1.399999999999999 35.699999999999996,4.6 30.599999999999994,9.7 L 22.4,18.0 L 34.5,30.1 C 41.2,36.800000000000004 46.7,42.2 46.8,42.2 C 46.89999999999999,42.2 47.0,32.7 47.0,21.1 L 47.0,0.10000000000000142 L 51.0,0.20000000000000143 C 55.2,0.30000000000000143 57.5,0.6000000000000014 61.2,1.4000000000000015 C 66.0,2.5000000000000018 71.4,4.600000000000001 75.2,6.900000000000001 L 76.60000000000001,7.800000000000002 L 64.9,7.8 L 53.1,7.9 L 53.1,24.9 C 53.1,34.3 53.1,42.0 53.1,42.099999999999994 C 53.2,42.3 58.1,37.39999999999999 68.1,27.399999999999995 L 83.0,12.499999999999995 L 83.9,13.299999999999995 C 85.4,14.699999999999996 88.4,17.999999999999996 89.5,19.399999999999995 C 92.5,23.299999999999994 95.2,28.099999999999994 96.8,32.599999999999994 C 97.7,34.99999999999999 98.7,38.599999999999994 98.6,38.8 C 98.5,38.9 94.8,35.199999999999996 90.3,30.699999999999996 L 82.0,22.4 L 70.0,34.5 C 63.4,41.1 57.9,46.6 57.9,46.7 C 57.9,46.800000000000004 63.699999999999996,46.900000000000006 78.9,46.900000000000006 L 100.0,46.900000000000006 L 100.1,49.300000000000004 C 100.3,56.7 98.39999999999999,65.10000000000001 95.0,71.80000000000001 C 93.9,74.00000000000001 92.5,76.4 92.4,76.30000000000001 C 92.30000000000001,76.30000000000001 92.30000000000001,71.00000000000001 92.30000000000001,64.60000000000001 L 92.30000000000001,53.2 L 75.0,53.2 C 65.3,53.2 57.8,53.300000000000004 57.8,53.300000000000004 C 57.8,53.400000000000006 64.5,60.1 72.6,68.10000000000001 C 80.69999999999999,76.10000000000002 87.4,82.9 87.4,83.0 C 87.4,83.3 83.80000000000001,86.9 81.7,88.6 C 76.3,93.0 69.8,96.39999999999999 63.1,98.1 C 61.9,98.39999999999999 61.300000000000004,98.5 61.300000000000004,98.39999999999999 C 61.300000000000004,98.3 65.0,94.49999999999999 69.5,89.99999999999999 L 77.7,81.79999999999998 L 65.5,69.8 C 58.9,63.199999999999996 53.3,57.699999999999996 53.2,57.699999999999996 C 53.0,57.699999999999996 53.0,61.99999999999999 53.0,78.69999999999999 L 53.0,99.69999999999999 L 51.7,99.79999999999998 C 50.6,100.0 49.8,100.0 47.7,99.9 L 47.7,99.9" fill="#ffce00" stroke="none" stroke-width="3.0px" /></g><g transform="translate(80.0, 25.0) scale(0.5) rotate(0, 50.0, 50.0)"><path d="M 50.0,0.0 C 22.4,0.0 0.0,22.4 0.0,50.0 C 0.0,77.6 22.4,100.0 50.0,100.0 C 77.6,100.0 100.0,77.6 100.0,50.0 C 100.0,22.400000000000006 77.6,0.0 50.0,0.0 M 41.2,5.9 C 44.0,5.300000000000001 46.7,7.2 47.300000000000004,10.0 C 47.300000000000004,10.1 47.300000000000004,10.2 47.300000000000004,10.3 L 47.400000000000006,10.3 L 49.10000000000001,35.7 L 49.10000000000001,35.7 C 49.20000000000001,36.7 48.60000000000001,37.6 47.60000000000001,37.800000000000004 C 46.60000000000001,38.00000000000001 45.70000000000001,37.400000000000006 45.400000000000006,36.400000000000006 L 45.400000000000006,36.400000000000006 L 37.2,12.300000000000004 L 37.300000000000004,12.300000000000004 C 37.300000000000004,12.200000000000005 37.2,12.100000000000005 37.2,12.000000000000004 C 36.6,9.1 38.4,6.4 41.2,5.9 M 25.0,12.6 C 27.4,11.0 30.6,11.7 32.2,14.0 C 32.300000000000004,14.1 32.300000000000004,14.2 32.400000000000006,14.3 L 32.50000000000001,14.3 L 43.80000000000001,37.1 L 43.80000000000001,37.1 C 44.30000000000001,37.9 44.000000000000014,39.0 43.20000000000001,39.6 C 42.400000000000006,40.2 41.30000000000001,40.0 40.70000000000001,39.2 L 40.70000000000001,39.2 L 23.7,20.0 L 23.7,20.0 C 23.599999999999998,19.9 23.599999999999998,19.8 23.5,19.7 C 22.0,17.4 22.6,14.2 25.0,12.6 M 12.6,25.0 C 14.2,22.6 17.4,22.0 19.8,23.6 C 19.900000000000002,23.700000000000003 20.0,23.700000000000003 20.1,23.8 L 20.1,23.8 L 39.2,40.6 L 39.2,40.6 C 40.0,41.2 40.2,42.300000000000004 39.6,43.1 C 39.0,43.9 38.0,44.2 37.1,43.7 L 37.1,43.7 L 14.3,32.4 L 14.3,32.3 C 14.200000000000001,32.199999999999996 14.100000000000001,32.199999999999996 14.0,32.099999999999994 C 11.6,30.6 11.0,27.4 12.6,25.0 M 5.9,41.2 C 6.5,38.400000000000006 9.2,36.6 12.0,37.1 C 12.1,37.1 12.2,37.2 12.3,37.2 L 12.3,37.1 L 36.400000000000006,45.3 L 36.400000000000006,45.3 C 37.300000000000004,45.599999999999994 37.900000000000006,46.5 37.800000000000004,47.5 C 37.7,48.5 36.7,49.1 35.7,49.0 L 35.7,49.0 L 10.300000000000004,47.3 L 10.300000000000004,47.199999999999996 C 10.200000000000005,47.199999999999996 10.100000000000005,47.199999999999996 10.000000000000004,47.199999999999996 C 7.1,46.7 5.3,44.0 5.9,41.2 M 5.9,58.8 C 5.300000000000001,56.0 7.2,53.3 10.0,52.699999999999996 C 10.1,52.699999999999996 10.2,52.699999999999996 10.3,52.699999999999996 L 10.3,52.599999999999994 L 35.7,50.89999999999999 L 35.7,50.89999999999999 C 36.7,50.79999999999999 37.6,51.39999999999999 37.800000000000004,52.39999999999999 C 38.00000000000001,53.39999999999999 37.400000000000006,54.29999999999999 36.400000000000006,54.599999999999994 L 36.400000000000006,54.599999999999994 L 12.300000000000004,62.8 L 12.300000000000004,62.699999999999996 C 12.200000000000005,62.699999999999996 12.100000000000005,62.8 12.000000000000004,62.8 C 9.1,63.4 6.4,61.6 5.9,58.8 M 20.0,76.2 C 19.9,76.3 19.8,76.3 19.7,76.4 C 17.3,78.0 14.1,77.30000000000001 12.5,75.0 C 10.9,72.6 11.6,69.4 13.9,67.8 C 14.0,67.7 14.1,67.7 14.200000000000001,67.6 L 14.200000000000001,67.5 L 37.0,56.2 L 37.0,56.2 C 37.8,55.7 38.9,56.0 39.5,56.800000000000004 C 40.1,57.60000000000001 39.9,58.7 39.1,59.300000000000004 L 39.1,59.300000000000004 L 20.0,76.2 L 20.0,76.2 M 32.3,85.7 C 32.199999999999996,85.8 32.199999999999996,85.9 32.099999999999994,86.0 C 30.499999999999993,88.4 27.299999999999994,89.0 24.899999999999995,87.4 C 22.499999999999996,85.80000000000001 21.899999999999995,82.60000000000001 23.499999999999996,80.2 C 23.599999999999998,80.10000000000001 23.599999999999998,80.0 23.699999999999996,79.9 L 23.699999999999996,79.9 L 40.5,60.800000000000004 L 40.5,60.800000000000004 C 41.1,60.00000000000001 42.2,59.800000000000004 43.0,60.400000000000006 C 43.8,61.00000000000001 44.1,62.00000000000001 43.6,62.900000000000006 L 43.6,62.900000000000006 L 32.3,85.7 L 32.3,85.7 M 49.1,64.3 L 47.4,89.69999999999999 L 47.3,89.69999999999999 C 47.3,89.79999999999998 47.3,89.89999999999999 47.3,89.99999999999999 C 46.699999999999996,92.79999999999998 44.0,94.59999999999998 41.199999999999996,94.09999999999998 C 38.4,93.49999999999999 36.599999999999994,90.79999999999998 37.099999999999994,87.99999999999999 C 37.099999999999994,87.89999999999999 37.199999999999996,87.79999999999998 37.199999999999996,87.69999999999999 L 37.099999999999994,87.69999999999999 L 45.3,63.59999999999999 L 45.3,63.59999999999999 C 45.599999999999994,62.69999999999999 46.5,62.09999999999999 47.5,62.19999999999999 C 48.5,62.29999999999999 49.2,63.4 49.1,64.3 L 49.1,64.3 M 94.1,41.2 C 94.69999999999999,44.0 92.8,46.7 90.0,47.300000000000004 C 89.9,47.300000000000004 89.8,47.300000000000004 89.7,47.300000000000004 L 89.7,47.400000000000006 L 64.30000000000001,49.10000000000001 L 64.30000000000001,49.10000000000001 C 63.30000000000001,49.20000000000001 62.40000000000001,48.60000000000001 62.20000000000001,47.60000000000001 C 62.00000000000001,46.60000000000001 62.60000000000001,45.70000000000001 63.60000000000001,45.400000000000006 L 63.60000000000001,45.400000000000006 L 87.70000000000002,37.2 L 87.70000000000002,37.300000000000004 C 87.80000000000001,37.300000000000004 87.90000000000002,37.2 88.00000000000001,37.2 C 90.9,36.6 93.6,38.4 94.1,41.2 M 80.0,23.8 C 80.1,23.7 80.2,23.7 80.3,23.6 C 82.7,22.0 85.89999999999999,22.700000000000003 87.5,25.0 C 89.1,27.4 88.4,30.6 86.1,32.2 C 86.0,32.300000000000004 85.89999999999999,32.300000000000004 85.8,32.400000000000006 L 85.8,32.50000000000001 L 62.9,43.6 L 62.9,43.6 C 62.1,44.1 61.0,43.800000000000004 60.4,43.0 C 59.8,42.199999999999996 60.0,41.1 60.8,40.5 L 60.8,40.5 L 80.0,23.8 L 80.0,23.8 M 67.7,14.3 C 67.8,14.200000000000001 67.8,14.100000000000001 67.9,14.0 C 69.5,11.6 72.7,11.0 75.10000000000001,12.6 C 77.50000000000001,14.2 78.10000000000001,17.4 76.50000000000001,19.8 C 76.40000000000002,19.900000000000002 76.40000000000002,20.0 76.30000000000001,20.1 L 76.30000000000001,20.1 L 59.5,39.2 L 59.5,39.2 C 58.9,40.0 57.8,40.2 57.0,39.6 C 56.2,39.0 55.9,38.0 56.4,37.1 L 56.4,37.1 L 67.7,14.3 L 67.7,14.3 M 50.9,35.7 L 52.6,10.300000000000004 L 52.7,10.300000000000004 C 52.7,10.200000000000005 52.7,10.100000000000005 52.7,10.000000000000004 C 53.300000000000004,7.200000000000004 56.0,5.400000000000004 58.800000000000004,5.900000000000004 C 61.6,6.5000000000000036 63.400000000000006,9.200000000000003 62.900000000000006,12.000000000000004 C 62.900000000000006,12.100000000000003 62.800000000000004,12.200000000000003 62.800000000000004,12.300000000000004 L 62.900000000000006,12.300000000000004 L 54.7,36.400000000000006 L 54.7,36.400000000000006 C 54.400000000000006,37.300000000000004 53.5,37.900000000000006 52.5,37.800000000000004 C 51.5,37.7 50.8,36.6 50.9,35.7 L 50.9,35.7 M 58.8,94.1 C 56.0,94.69999999999999 53.3,92.8 52.699999999999996,90.0 C 52.699999999999996,89.9 52.699999999999996,89.8 52.699999999999996,89.7 L 52.599999999999994,89.7 L 50.89999999999999,64.30000000000001 L 50.89999999999999,64.30000000000001 C 50.79999999999999,63.30000000000001 51.39999999999999,62.40000000000001 52.39999999999999,62.20000000000001 C 53.39999999999999,62.00000000000001 54.29999999999999,62.60000000000001 54.599999999999994,63.60000000000001 L 54.599999999999994,63.60000000000001 L 62.8,87.70000000000002 L 62.699999999999996,87.70000000000002 C 62.699999999999996,87.80000000000001 62.8,87.90000000000002 62.8,88.00000000000001 C 63.4,90.9 61.6,93.6 58.8,94.1 M 75.0,87.4 C 72.6,89.0 69.4,88.30000000000001 67.8,86.0 C 67.7,85.9 67.7,85.8 67.6,85.7 L 67.5,85.7 L 56.4,62.9 L 56.4,62.9 C 55.9,62.1 56.199999999999996,61.0 57.0,60.4 C 57.800000000000004,59.8 58.9,60.0 59.5,60.8 L 59.5,60.8 L 76.3,80.0 L 76.3,80.0 C 76.39999999999999,80.1 76.39999999999999,80.2 76.5,80.3 C 78.0,82.6 77.4,85.8 75.0,87.4 M 87.4,75.0 C 85.80000000000001,77.4 82.60000000000001,78.0 80.2,76.4 C 80.10000000000001,76.30000000000001 80.0,76.30000000000001 79.9,76.2 L 79.9,76.2 L 60.8,59.5 L 60.8,59.5 C 60.0,58.9 59.8,57.8 60.4,57.0 C 61.0,56.2 62.0,55.9 62.9,56.4 L 62.9,56.4 L 85.7,67.7 L 85.7,67.8 C 85.8,67.89999999999999 85.9,67.89999999999999 86.0,68.0 C 88.4,69.4 89.0,72.6 87.4,75.0 M 94.1,58.8 C 93.5,61.599999999999994 90.8,63.4 88.0,62.9 C 87.9,62.9 87.8,62.8 87.7,62.8 L 87.7,62.9 L 63.6,54.7 L 63.6,54.7 C 62.7,54.400000000000006 62.1,53.5 62.2,52.5 C 62.300000000000004,51.5 63.300000000000004,50.9 64.3,51.0 L 64.3,51.0 L 89.69999999999999,52.7 L 89.69999999999999,52.800000000000004 C 89.79999999999998,52.800000000000004 89.89999999999999,52.800000000000004 89.99999999999999,52.800000000000004 C 92.9,53.3 94.7,56.0 94.1,58.8" fill="#006a4e" stroke="none" stroke-width="3.0px" /></g></svg>