<?xml version="1.0" encoding="utf-8" ?>
<svg baseProfile="full" height="100px" version="1.1" width="150px" xmlns="http://www.w3.org/2000/svg" xmlns:ev="http://www.w3.org/2001/xml-events" xmlns:xlink="http://www.w3.org/1999/xlink"><defs><clipPath id="mask0"><rect height="100" width="150" x="0" y="0" /></clipPath></defs><g clip-path="url(#mask0)"><path d="M0,0 L0.0,300.0 L114.80502970952693,277.163859753386 z" fill="#fcdc04" stroke="none" transform="translate(150, 0)" /><path d="M0,0 L114.80502970952693,277.163859753386 L212.13203435596427,212.13203435596427 z" fill="#4244e3" stroke="none" transform="translate(150, 0)" /><path d="M0,0 L212.13203435596427,212.13203435596427 L277.163859753386,114.80502970952695 z" fill="#000000" stroke="none" transform="translate(150, 0)" /><path d="M0,0 L277.163859753386,114.80502970952695 L300.0,1.8369701987210297e-14 z" fill="#CB001E" stroke="none" transform="translate(150, 0)" /><path d="M0,0 L300.0,1.8369701987210297e-14 L277.163859753386,-114.80502970952692 z" fill="#603814" stroke="none" transform="translate(150, 0)" /><path d="M0,0 L277.163859753386,-114.80502970952692 L212.13203435596427,-212.13203435596424 z" fill="#003897" stroke="none" transform="translate(150, 0)" /><path d="M0,0 L212.13203435596427,-212.13203435596424 L114.80502970952696,-277.163859753386 z" fill="#ff6602" stroke="none" transform="translate(150, 0)" /><path d="M0,0 L114.80502970952696,-277.163859753386 L3.6739403974420595e-14,-300.0 z" fill="#75197d" stroke="none" transform="translate(150, 0)" /><path d="M0,0 L3.6739403974420595e-14,-300.0 L-114.8050297095269,-277.1638597533861 z" fill="#006a4e" stroke="none" transform="translate(150, 0)" /><path d="M0,0 L-114.8050297095269,-277.1638597533861 L-212.13203435596424,-212.1320343559643 z" fill="#ffffff" stroke="none" transform="translate(150, 0)" /><path d="M0,0 L-212.13203435596424,-212.1320343559643 L-277.16385975338596,-114.8050297095271 z" fill="#990033" stroke="none" transform="translate(150, 0)" /><path d="M0,0 L-277.16385975338596,-114.8050297095271 L-300.0,-5.510910596163089e-14 z" fill="#808080" stroke="none" transform="translate(150, 0)" /><path d="M0,0 L-300.0,-5.510910596163089e-14 L-277.16385975338596,114.805029709527 z" fill="#C0C0C0" stroke="none" transform="translate(150, 0)" /><path d="M0,0 L-277.16385975338596,114.805029709527 L-212.1320343559643,212.1320343559642 z" fill="#760188" stroke="none" transform="translate(150, 0)" /><path d="M0,0 L-212.1320343559643,212.1320343559642 L-114.80502970952712,277.16385975338596 z" fill="#68bfe5" stroke="none" transform="translate(150, 0)" /><path d="M0,0 L-114.80502970952712,277.16385975338596 L-7.347880794884119e-14,300.0 z" fill="#000000" stroke="none" transform="translate(150, 0)" /></g><g id="empty" /></svg>