<?xml version="1.0" encoding="utf-8" ?>
<svg baseProfile="full" height="100px" version="1.1" width="150px" xmlns="http://www.w3.org/2000/svg" xmlns:ev="http://www.w3.org/2001/xml-events" xmlns:xlink="http://www.w3.org/1999/xlink"><defs><clipPath id="mask0"><rect height="100" width="150" x="0" y="0" /></clipPath></defs><g clip-path="url(#mask0)"><path d="M0,0 L0.0,300.0 L130.16512173526743,270.29066037072573 z" fill="#ffce00" stroke="none" transform="translate(0, 100)" /><path d="M0,0 L130.16512173526743,270.29066037072573 L234.54944474040894,187.04694055762008 z" fill="#2bea8b" stroke="none" transform="translate(0, 100)" /><path d="M0,0 L234.54944474040894,187.04694055762008 L292.4783736545471,66.75628018689433 z" fill="#ffffff" stroke="none" transform="translate(0, 100)" /><path d="M0,0 L292.4783736545471,66.75628018689433 L292.4783736545471,-66.7562801868943 z" fill="#000000" stroke="none" transform="translate(0, 100)" /><path d="M0,0 L292.4783736545471,-66.7562801868943 L234.54944474040897,-187.04694055762005 z" fill="#006699" stroke="none" transform="translate(0, 100)" /><path d="M0,0 L234.54944474040897,-187.04694055762005 L130.16512173526746,-270.29066037072573 z" fill="#ff9932" stroke="none" transform="translate(0, 100)" /><path d="M0,0 L130.16512173526746,-270.29066037072573 L3.6739403974420595e-14,-300.0 z" fill="#cc3200" stroke="none" transform="translate(0, 100)" /><path d="M0,0 L3.6739403974420595e-14,-300.0 L-130.1651217352674,-270.29066037072573 z" fill="#c31207" stroke="none" transform="translate(0, 100)" /><path d="M0,0 L-130.1651217352674,-270.29066037072573 L-234.54944474040892,-187.0469405576201 z" fill="#229e45" stroke="none" transform="translate(0, 100)" /><path d="M0,0 L-234.54944474040892,-187.0469405576201 L-292.4783736545471,-66.75628018689437 z" fill="#c42b70" stroke="none" transform="translate(0, 100)" /><path d="M0,0 L-292.4783736545471,-66.75628018689437 L-292.4783736545471,66.75628018689427 z" fill="#760188" stroke="none" transform="translate(0, 100)" /><path d="M0,0 L-292.4783736545471,66.75628018689427 L-234.54944474040897,187.04694055762002 z" fill="#784f16" stroke="none" transform="translate(0, 100)" /><path d="M0,0 L-234.54944474040897,187.04694055762002 L-130.1651217352675,270.29066037072573 z" fill="#808080" stroke="none" transform="translate(0, 100)" /><path d="M0,0 L-130.1651217352675,270.29066037072573 L-7.347880794884119e-14,300.0 z" fill="#ff6602" stroke="none" transform="translate(0, 100)" /></g><path d="M 137.5977229533135 70.0 L 127.10522206218107 72.30862659411122 L 134.23685693153274 80.34368202588644 L 124.39126873204353 76.04406289071508 L 125.43799545487597 86.73642908670561 L 120.0 77.47087259320773 L 114.56200454512404 86.73642908670561 L 115.60873126795647 76.04406289071508 L 105.76314306846727 80.34368202588644 L 112.89477793781893 72.30862659411122 L 102.40227704668648 70.0 L 112.89477793781892 67.69137340588878 L 105.76314306846727 59.65631797411357 L 115.60873126795647 63.95593710928492 L 114.56200454512403 53.26357091329438 L 120.0 62.52912740679228 L 125.43799545487596 53.26357091329438 L 124.39126873204353 63.95593710928492 L 134.2368569315327 59.65631797411356 L 127.10522206218107 67.69137340588878 z" fill="#4997d0" stroke="none" /></svg>