<?xml version="1.0" encoding="utf-8" ?>
<svg baseProfile="full" height="100px" version="1.1" width="150px" xmlns="http://www.w3.org/2000/svg" xmlns:ev="http://www.w3.org/2001/xml-events" xmlns:xlink="http://www.w3.org/1999/xlink"><defs><clipPath id="mask0"><rect height="100" width="150" x="0" y="0" /></clipPath></defs><g clip-path="url(#mask0)"><rect fill="#ff3333" height="11.11111111111111" stroke="none" width="10.714285714285714" x="0.0" y="0.0" /><rect fill="#ffffff" height="11.11111111111111" stroke="none" width="10.714285714285714" x="0.0" y="11.11111111111111" /><rect fill="#ff3333" height="11.11111111111111" stroke="none" width="10.714285714285714" x="0.0" y="22.22222222222222" /><rect fill="#ffffff" height="11.11111111111111" stroke="none" width="10.714285714285714" x="0.0" y="33.333333333333336" /><rect fill="#ff3333" height="11.11111111111111" stroke="none" width="10.714285714285714" x="0.0" y="44.44444444444444" /><rect fill="#ffffff" height="11.11111111111111" stroke="none" width="10.714285714285714" x="0.0" y="55.55555555555556" /><rect fill="#ff3333" height="11.11111111111111" stroke="none" width="10.714285714285714" x="0.0" y="66.66666666666667" /><rect fill="#ffffff" height="11.11111111111111" stroke="none" width="10.714285714285714" x="0.0" y="77.77777777777777" /><rect fill="#ff3333" height="11.11111111111111" stroke="none" width="10.714285714285714" x="0.0" y="88.88888888888889" /><rect fill="#ffffff" height="11.11111111111111" stroke="none" width="10.714285714285714" x="10.714285714285714" y="0.0" /><rect fill="#ff3333" height="11.11111111111111" stroke="none" width="10.714285714285714" x="10.714285714285714" y="11.11111111111111" /><rect fill="#ffffff" height="11.11111111111111" stroke="none" width="10.714285714285714" x="10.714285714285714" y="22.22222222222222" /><rect fill="#ff3333" height="11.11111111111111" stroke="none" width="10.714285714285714" x="10.714285714285714" y="33.333333333333336" /><rect fill="#ffffff" height="11.11111111111111" stroke="none" width="10.714285714285714" x="10.714285714285714" y="44.44444444444444" /><rect fill="#ff3333" height="11.11111111111111" stroke="none" width="10.714285714285714" x="10.714285714285714" y="55.55555555555556" /><rect fill="#ffffff" height="11.11111111111111" stroke="none" width="10.714285714285714" x="10.714285714285714" y="66.66666666666667" /><rect fill="#ff3333" height="11.11111111111111" stroke="none" width="10.714285714285714" x="10.714285714285714" y="77.77777777777777" /><rect fill="#ffffff" height="11.11111111111111" stroke="none" width="10.714285714285714" x="10.714285714285714" y="88.88888888888889" /><rect fill="#ff3333" height="11.11111111111111" stroke="none" width="10.714285714285714" x="21.428571428571427" y="0.0" /><rect fill="#ffffff" height="11.11111111111111" stroke="none" width="10.714285714285714" x="21.428571428571427" y="11.11111111111111" /><rect fill="#ff3333" height="11.11111111111111" stroke="none" width="10.714285714285714" x="21.428571428571427" y="22.22222222222222" /><rect fill="#ffffff" height="11.11111111111111" stroke="none" width="10.714285714285714" x="21.428571428571427" y="33.333333333333336" /><rect fill="#ff3333" height="11.11111111111111" stroke="none" width="10.714285714285714" x="21.428571428571427" y="44.44444444444444" /><rect fill="#ffffff" height="11.11111111111111" stroke="none" width="10.714285714285714" x="21.428571428571427" y="55.55555555555556" /><rect fill="#ff3333" height="11.11111111111111" stroke="none" width="10.714285714285714" x="21.428571428571427" y="66.66666666666667" /><rect fill="#ffffff" height="11.11111111111111" stroke="none" width="10.714285714285714" x="21.428571428571427" y="77.77777777777777" /><rect fill="#ff3333" height="11.11111111111111" stroke="none" width="10.714285714285714" x="21.428571428571427" y="88.88888888888889" /><rect fill="#ffffff" height="11.11111111111111" stroke="none" width="10.714285714285714" x="32.142857142857146" y="0.0" /><rect fill="#ff3333" height="11.11111111111111" stroke="none" width="10.714285714285714" x="32.142857142857146" y="11.11111111111111" /><rect fill="#ffffff" height="11.11111111111111" stroke="none" width="10.714285714285714" x="32.142857142857146" y="22.22222222222222" /><rect fill="#ff3333" height="11.11111111111111" stroke="none" width="10.714285714285714" x="32.142857142857146" y="33.333333333333336" /><rect fill="#ffffff" height="11.11111111111111" stroke="none" width="10.714285714285714" x="32.142857142857146" y="44.44444444444444" /><rect fill="#ff3333" height="11.11111111111111" stroke="none" width="10.714285714285714" x="32.142857142857146" y="55.55555555555556" /><rect fill="#ffffff" height="11.11111111111111" stroke="none" width="10.714285714285714" x="32.142857142857146" y="66.66666666666667" /><rect fill="#ff3333" height="11.11111111111111" stroke="none" width="10.714285714285714" x="32.142857142857146" y="77.77777777777777" /><rect fill="#ffffff" height="11.11111111111111" stroke="none" width="10.714285714285714" x="32.142857142857146" y="88.88888888888889" /><rect fill="#ff3333" height="11.11111111111111" stroke="none" width="10.714285714285714" x="42.857142857142854" y="0.0" /><rect fill="#ffffff" height="11.11111111111111" stroke="none" width="10.714285714285714" x="42.857142857142854" y="11.11111111111111" /><rect fill="#ff3333" height="11.11111111111111" stroke="none" width="10.714285714285714" x="42.857142857142854" y="22.22222222222222" /><rect fill="#ffffff" height="11.11111111111111" stroke="none" width="10.714285714285714" x="42.857142857142854" y="33.333333333333336" /><rect fill="#ff3333" height="11.11111111111111" stroke="none" width="10.714285714285714" x="42.857142857142854" y="44.44444444444444" /><rect fill="#ffffff" height="11.11111111111111" stroke="none" width="10.714285714285714" x="42.857142857142854" y="55.55555555555556" /><rect fill="#ff3333" height="11.11111111111111" stroke="none" width="10.714285714285714" x="42.857142857142854" y="66.66666666666667" /><rect fill="#ffffff" height="11.11111111111111" stroke="none" width="10.714285714285714" x="42.857142857142854" y="77.77777777777777" /><rect fill="#ff3333" height="11.11111111111111" stroke="none" width="10.714285714285714" x="42.857142857142854" y="88.88888888888889" /><rect fill="#ffffff" height="11.11111111111111" stroke="none" width="10.714285714285714" x="53.57142857142857" y="0.0" /><rect fill="#ff3333" height="11.11111111111111" stroke="none" width="10.714285714285714" x="53.57142857142857" y="11.11111111111111" /><rect fill="#ffffff" height="11.11111111111111" stroke="none" width="10.714285714285714" x="53.57142857142857" y="22.22222222222222" /><rect fill="#ff3333" height="11.11111111111111" stroke="none" width="10.714285714285714" x="53.57142857142857" y="33.333333333333336" /><rect fill="#ffffff" height="11.11111111111111" stroke="none" width="10.714285714285714" x="53.57142857142857" y="44.44444444444444" /><rect fill="#ff3333" height="11.11111111111111" stroke="none" width="10.714285714285714" x="53.57142857142857" y="55.55555555555556" /><rect fill="#ffffff" height="11.11111111111111" stroke="none" width="10.714285714285714" x="53.57142857142857" y="66.66666666666667" /><rect fill="#ff3333" height="11.11111111111111" stroke="none" width="10.714285714285714" x="53.57142857142857" y="77.77777777777777" /><rect fill="#ffffff" height="11.11111111111111" stroke="none" width="10.714285714285714" x="53.57142857142857" y="88.88888888888889" /><rect fill="#ff3333" height="11.11111111111111" stroke="none" width="10.714285714285714" x="64.28571428571429" y="0.0" /><rect fill="#ffffff" height="11.11111111111111" stroke="none" width="10.714285714285714" x="64.28571428571429" y="11.11111111111111" /><rect fill="#ff3333" height="11.11111111111111" stroke="none" width="10.714285714285714" x="64.28571428571429" y="22.22222222222222" /><rect fill="#ffffff" height="11.11111111111111" stroke="none" width="10.714285714285714" x="64.28571428571429" y="33.333333333333336" /><rect fill="#ff3333" height="11.11111111111111" stroke="none" width="10.714285714285714" x="64.28571428571429" y="44.44444444444444" /><rect fill="#ffffff" height="11.11111111111111" stroke="none" width="10.714285714285714" x="64.28571428571429" y="55.55555555555556" /><rect fill="#ff3333" height="11.11111111111111" stroke="none" width="10.714285714285714" x="64.28571428571429" y="66.66666666666667" /><rect fill="#ffffff" height="11.11111111111111" stroke="none" width="10.714285714285714" x="64.28571428571429" y="77.77777777777777" /><rect fill="#ff3333" height="11.11111111111111" stroke="none" width="10.714285714285714" x="64.28571428571429" y="88.88888888888889" /><rect fill="#ffffff" height="11.11111111111111" stroke="none" width="10.714285714285714" x="75.0" y="0.0" /><rect fill="#ff3333" height="11.11111111111111" stroke="none" width="10.714285714285714" x="75.0" y="11.11111111111111" /><rect fill="#ffffff" height="11.11111111111111" stroke="none" width="10.714285714285714" x="75.0" y="22.22222222222222" /><rect fill="#ff3333" height="11.11111111111111" stroke="none" width="10.714285714285714" x="75.0" y="33.333333333333336" /><rect fill="#ffffff" height="11.11111111111111" stroke="none" width="10.714285714285714" x="75.0" y="44.44444444444444" /><rect fill="#ff3333" height="11.11111111111111" stroke="none" width="10.714285714285714" x="75.0" y="55.55555555555556" /><rect fill="#ffffff" height="11.11111111111111" stroke="none" width="10.714285714285714" x="75.0" y="66.66666666666667" /><rect fill="#ff3333" height="11.11111111111111" stroke="none" width="10.714285714285714" x="75.0" y="77.77777777777777" /><rect fill="#ffffff" height="11.11111111111111" stroke="none" width="10.714285714285714" x="75.0" y="88.88888888888889" /><rect fill="#ff3333" height="11.11111111111111" stroke="none" width="10.714285714285714" x="85.71428571428571" y="0.0" /><rect fill="#ffffff" height="11.11111111111111" stroke="none" width="10.714285714285714" x="85.71428571428571" y="11.11111111111111" /><rect fill="#ff3333" height="11.11111111111111" stroke="none" width="10.714285714285714" x="85.71428571428571" y="22.22222222222222" /><rect fill="#ffffff" height="11.11111111111111" stroke="none" width="10.714285714285714" x="85.71428571428571" y="33.333333333333336" /><rect fill="#ff3333" height="11.11111111111111" stroke="none" width="10.714285714285714" x="85.71428571428571" y="44.44444444444444" /><rect fill="#ffffff" height="11.11111111111111" stroke="none" width="10.714285714285714" x="85.71428571428571" y="55.55555555555556" /><rect fill="#ff3333" height="11.11111111111111" stroke="none" width="10.714285714285714" x="85.71428571428571" y="66.66666666666667" /><rect fill="#ffffff" height="11.11111111111111" stroke="none" width="10.714285714285714" x="85.71428571428571" y="77.77777777777777" /><rect fill="#ff3333" height="11.11111111111111" stroke="none" width="10.714285714285714" x="85.71428571428571" y="88.88888888888889" /><rect fill="#ffffff" height="11.11111111111111" stroke="none" width="10.714285714285714" x="96.42857142857143" y="0.0" /><rect fill="#ff3333" height="11.11111111111111" stroke="none" width="10.714285714285714" x="96.42857142857143" y="11.11111111111111" /><rect fill="#ffffff" height="11.11111111111111" stroke="none" width="10.714285714285714" x="96.42857142857143" y="22.22222222222222" /><rect fill="#ff3333" height="11.11111111111111" stroke="none" width="10.714285714285714" x="96.42857142857143" y="33.333333333333336" /><rect fill="#ffffff" height="11.11111111111111" stroke="none" width="10.714285714285714" x="96.42857142857143" y="44.44444444444444" /><rect fill="#ff3333" height="11.11111111111111" stroke="none" width="10.714285714285714" x="96.42857142857143" y="55.55555555555556" /><rect fill="#ffffff" height="11.11111111111111" stroke="none" width="10.714285714285714" x="96.42857142857143" y="66.66666666666667" /><rect fill="#ff3333" height="11.11111111111111" stroke="none" width="10.714285714285714" x="96.42857142857143" y="77.77777777777777" /><rect fill="#ffffff" height="11.11111111111111" stroke="none" width="10.714285714285714" x="96.42857142857143" y="88.88888888888889" /><rect fill="#ff3333" height="11.11111111111111" stroke="none" width="10.714285714285714" x="107.14285714285714" y="0.0" /><rect fill="#ffffff" height="11.11111111111111" stroke="none" width="10.714285714285714" x="107.14285714285714" y="11.11111111111111" /><rect fill="#ff3333" height="11.11111111111111" stroke="none" width="10.714285714285714" x="107.14285714285714" y="22.22222222222222" /><rect fill="#ffffff" height="11.11111111111111" stroke="none" width="10.714285714285714" x="107.14285714285714" y="33.333333333333336" /><rect fill="#ff3333" height="11.11111111111111" stroke="none" width="10.714285714285714" x="107.14285714285714" y="44.44444444444444" /><rect fill="#ffffff" height="11.11111111111111" stroke="none" width="10.714285714285714" x="107.14285714285714" y="55.55555555555556" /><rect fill="#ff3333" height="11.11111111111111" stroke="none" width="10.714285714285714" x="107.14285714285714" y="66.66666666666667" /><rect fill="#ffffff" height="11.11111111111111" stroke="none" width="10.714285714285714" x="107.14285714285714" y="77.77777777777777" /><rect fill="#ff3333" height="11.11111111111111" stroke="none" width="10.714285714285714" x="107.14285714285714" y="88.88888888888889" /><rect fill="#ffffff" height="11.11111111111111" stroke="none" width="10.714285714285714" x="117.85714285714286" y="0.0" /><rect fill="#ff3333" height="11.11111111111111" stroke="none" width="10.714285714285714" x="117.85714285714286" y="11.11111111111111" /><rect fill="#ffffff" height="11.11111111111111" stroke="none" width="10.714285714285714" x="117.85714285714286" y="22.22222222222222" /><rect fill="#ff3333" height="11.11111111111111" stroke="none" width="10.714285714285714" x="117.85714285714286" y="33.333333333333336" /><rect fill="#ffffff" height="11.11111111111111" stroke="none" width="10.714285714285714" x="117.85714285714286" y="44.44444444444444" /><rect fill="#ff3333" height="11.11111111111111" stroke="none" width="10.714285714285714" x="117.85714285714286" y="55.55555555555556" /><rect fill="#ffffff" height="11.11111111111111" stroke="none" width="10.714285714285714" x="117.85714285714286" y="66.66666666666667" /><rect fill="#ff3333" height="11.11111111111111" stroke="none" width="10.714285714285714" x="117.85714285714286" y="77.77777777777777" /><rect fill="#ffffff" height="11.11111111111111" stroke="none" width="10.714285714285714" x="117.85714285714286" y="88.88888888888889" /><rect fill="#ff3333" height="11.11111111111111" stroke="none" width="10.714285714285714" x="128.57142857142858" y="0.0" /><rect fill="#ffffff" height="11.11111111111111" stroke="none" width="10.714285714285714" x="128.57142857142858" y="11.11111111111111" /><rect fill="#ff3333" height="11.11111111111111" stroke="none" width="10.714285714285714" x="128.57142857142858" y="22.22222222222222" /><rect fill="#ffffff" height="11.11111111111111" stroke="none" width="10.714285714285714" x="128.57142857142858" y="33.333333333333336" /><rect fill="#ff3333" height="11.11111111111111" stroke="none" width="10.714285714285714" x="128.57142857142858" y="44.44444444444444" /><rect fill="#ffffff" height="11.11111111111111" stroke="none" width="10.714285714285714" x="128.57142857142858" y="55.55555555555556" /><rect fill="#ff3333" height="11.11111111111111" stroke="none" width="10.714285714285714" x="128.57142857142858" y="66.66666666666667" /><rect fill="#ffffff" height="11.11111111111111" stroke="none" width="10.714285714285714" x="128.57142857142858" y="77.77777777777777" /><rect fill="#ff3333" height="11.11111111111111" stroke="none" width="10.714285714285714" x="128.57142857142858" y="88.88888888888889" /><rect fill="#ffffff" height="11.11111111111111" stroke="none" width="10.714285714285714" x="139.28571428571428" y="0.0" /><rect fill="#ff3333" height="11.11111111111111" stroke="none" width="10.714285714285714" x="139.28571428571428" y="11.11111111111111" /><rect fill="#ffffff" height="11.11111111111111" stroke="none" width="10.714285714285714" x="139.28571428571428" y="22.22222222222222" /><rect fill="#ff3333" height="11.11111111111111" stroke="none" width="10.714285714285714" x="139.28571428571428" y="33.333333333333336" /><rect fill="#ffffff" height="11.11111111111111" stroke="none" width="10.714285714285714" x="139.28571428571428" y="44.44444444444444" /><rect fill="#ff3333" height="11.11111111111111" stroke="none" width="10.714285714285714" x="139.28571428571428" y="55.55555555555556" /><rect fill="#ffffff" height="11.11111111111111" stroke="none" width="10.714285714285714" x="139.28571428571428" y="66.66666666666667" /><rect fill="#ff3333" height="11.11111111111111" stroke="none" width="10.714285714285714" x="139.28571428571428" y="77.77777777777777" /><rect fill="#ffffff" height="11.11111111111111" stroke="none" width="10.714285714285714" x="139.28571428571428" y="88.88888888888889" /></g><g id="empty" /></svg>