<?xml version="1.0" encoding="utf-8" ?>
<svg baseProfile="full" height="100px" version="1.1" width="150px" xmlns="http://www.w3.org/2000/svg" xmlns:ev="http://www.w3.org/2001/xml-events" xmlns:xlink="http://www.w3.org/1999/xlink"><defs><clipPath id="mask0"><rect height="100" width="150" x="0" y="0" /></clipPath></defs><g clip-path="url(#mask0)"><path d="M0,100 L150,0 L150,100 z" fill="#003897" stroke="none" /><path d="M0,100 L150,0 L0,0 z" fill="#ffffff" stroke="none" /></g><g transform="translate(8.316166277065017, 8.316166277065017) scale(0.23367667445869966) rotate(0, 50.0, 50.0)"><path d="M 29.1,41.8 C 29.200000000000003,41.699999999999996 29.400000000000002,41.4 29.5,41.199999999999996 C 29.6,41.099999999999994 29.7,40.99999999999999 29.8,40.99999999999999 C 30.0,41.29999999999999 30.2,43.599999999999994 30.1,45.099999999999994 C 29.900000000000002,47.89999999999999 29.3,49.89999999999999 27.5,53.99999999999999 C 26.1,57.199999999999996 25.0,59.79999999999999 25.1,59.89999999999999 C 25.1,59.89999999999999 25.200000000000003,59.89999999999999 25.400000000000002,59.89999999999999 C 26.1,59.69999999999999 28.6,57.099999999999994 29.700000000000003,55.39999999999999 C 30.800000000000004,53.69999999999999 31.700000000000003,51.99999999999999 31.500000000000004,51.69999999999999 C 31.500000000000004,51.59999999999999 31.500000000000004,51.59999999999999 31.500000000000004,51.59999999999999 C 31.500000000000004,51.59999999999999 31.500000000000004,51.59999999999999 31.500000000000004,51.59999999999999 C 31.500000000000004,51.59999999999999 31.500000000000004,51.59999999999999 31.500000000000004,51.59999999999999 C 31.600000000000005,51.69999999999999 32.1,50.59999999999999 32.5,48.999999999999986 C 32.6,48.59999999999999 32.8,47.499999999999986 32.9,46.59999999999999 C 33.1,44.999999999999986 33.4,43.899999999999984 33.9,43.499999999999986 C 34.0,43.399999999999984 34.0,43.399999999999984 34.1,43.399999999999984 C 34.1,43.499999999999986 34.1,43.999999999999986 33.800000000000004,45.09999999999999 C 33.400000000000006,47.19999999999999 33.2,49.09999999999999 33.2,50.59999999999999 C 33.2,51.899999999999984 33.400000000000006,53.999999999999986 33.6,54.09999999999999 C 33.6,54.09999999999999 33.7,54.09999999999999 33.7,54.09999999999999 C 33.900000000000006,54.09999999999999 35.0,52.999999999999986 35.5,52.19999999999999 C 35.7,51.79999999999999 36.4,49.89999999999999 37.0,48.09999999999999 C 37.6,46.19999999999999 38.2,44.69999999999999 38.3,44.59999999999999 C 38.3,44.59999999999999 38.3,44.59999999999999 38.3,44.59999999999999 C 38.4,44.69999999999999 38.4,45.499999999999986 38.4,47.499999999999986 L 38.4,50.499999999999986 L 38.4,50.399999999999984 L 38.4,50.499999999999986 L 39.0,49.899999999999984 C 39.5,49.399999999999984 39.7,48.899999999999984 40.3,47.09999999999999 C 40.699999999999996,45.899999999999984 41.099999999999994,44.29999999999999 41.3,43.399999999999984 C 41.699999999999996,41.29999999999998 42.0,37.499999999999986 41.9,36.19999999999998 L 41.9,35.0 L 41.9,35.0 L 41.9,34.9 L 41.3,35.0 C 40.599999999999994,35.1 39.5,34.9 38.8,34.6 C 38.599999999999994,34.5 38.3,34.300000000000004 38.199999999999996,34.0 C 37.699999999999996,33.3 37.49999999999999,32.4 37.699999999999996,31.6 C 37.9,30.700000000000003 38.599999999999994,29.700000000000003 39.099999999999994,29.5 C 39.39999999999999,29.3 39.49999999999999,29.2 39.39999999999999,29.1 C 39.39999999999999,28.900000000000002 38.99999999999999,28.900000000000002 37.99999999999999,28.900000000000002 C 35.599999999999994,28.900000000000002 34.699999999999996,29.8 34.99999999999999,31.8 C 35.199999999999996,32.6 35.599999999999994,33.8 35.99999999999999,34.4 C 36.099999999999994,34.6 36.099999999999994,34.699999999999996 36.099999999999994,34.8 C 35.99999999999999,34.9 35.8,34.699999999999996 35.599999999999994,34.5 C 35.39999999999999,34.3 35.199999999999996,34.0 35.099999999999994,33.7 C 34.99999999999999,33.6 34.99999999999999,33.400000000000006 34.89999999999999,33.400000000000006 C 34.69999999999999,33.2 34.29999999999999,33.00000000000001 33.099999999999994,32.7 C 30.499999999999993,32.0 28.399999999999995,31.1 27.099999999999994,30.000000000000004 C 27.1,30.0 27.0,29.9 27.0,29.9 C 25.4,28.299999999999997 24.9,27.099999999999998 24.7,24.7 L 24.599999999999998,23.4 L 25.599999999999998,22.7 C 26.499999999999996,22.099999999999998 26.599999999999998,22.099999999999998 26.999999999999996,22.2 C 27.499999999999996,22.4 27.999999999999996,22.8 28.799999999999997,23.8 C 28.9,23.900000000000002 28.999999999999996,24.0 29.099999999999998,24.2 C 29.2,24.3 29.2,24.4 29.299999999999997,24.5 C 29.699999999999996,25.0 30.099999999999998,25.4 30.199999999999996,25.4 C 30.499999999999996,25.4 30.899999999999995,23.599999999999998 30.799999999999997,22.5 C 30.699999999999996,21.5 30.4,20.6 29.9,20.0 C 28.799999999999997,18.4 26.799999999999997,17.9 24.799999999999997,19.0 C 23.299999999999997,19.8 22.299999999999997,21.2 21.799999999999997,23.1 C 21.4,24.6 21.499999999999996,25.700000000000003 22.099999999999998,27.400000000000002 C 22.7,28.900000000000002 22.799999999999997,29.700000000000003 22.499999999999996,29.700000000000003 C 22.499999999999996,29.700000000000003 22.499999999999996,29.700000000000003 22.499999999999996,29.700000000000003 C 22.399999999999995,29.6 22.299999999999997,29.500000000000004 22.299999999999997,29.300000000000004 C 22.199999999999996,29.000000000000004 21.999999999999996,28.300000000000004 21.799999999999997,27.800000000000004 C 21.599999999999998,27.300000000000004 21.4,26.400000000000006 21.4,25.900000000000006 C 21.4,25.400000000000006 21.299999999999997,24.900000000000006 21.2,24.800000000000004 C 21.099999999999998,24.800000000000004 20.5,24.000000000000004 19.7,23.100000000000005 C 15.399999999999999,18.000000000000007 13.799999999999999,14.900000000000006 13.6,11.800000000000004 C 13.6,10.900000000000004 13.6,10.100000000000005 13.7,9.700000000000005 C 13.899999999999999,8.800000000000004 14.799999999999999,7.700000000000005 15.6,7.300000000000004 C 16.4,6.900000000000004 17.8,6.600000000000004 18.5,6.700000000000005 C 18.7,6.800000000000004 19.0,6.900000000000005 19.2,7.100000000000005 C 19.4,7.400000000000005 19.5,7.700000000000005 19.5,8.000000000000005 C 19.5,8.300000000000006 19.3,8.500000000000005 19.2,8.600000000000005 C 19.2,8.600000000000005 19.2,8.500000000000005 19.2,8.500000000000005 C 19.2,8.300000000000006 19.0,8.100000000000005 18.9,7.800000000000005 C 18.799999999999997,7.7000000000000055 18.7,7.600000000000005 18.7,7.500000000000005 C 18.3,7.100000000000005 18.099999999999998,7.000000000000005 17.599999999999998,7.000000000000005 C 16.799999999999997,7.000000000000005 16.2,7.2000000000000055 15.799999999999997,7.7000000000000055 C 15.499999999999996,8.100000000000005 15.299999999999997,9.300000000000006 15.399999999999997,9.900000000000006 C 15.499999999999996,10.200000000000006 15.699999999999998,10.600000000000005 15.999999999999996,10.900000000000006 C 16.299999999999997,11.300000000000006 16.799999999999997,11.600000000000005 17.199999999999996,11.900000000000006 C 17.799999999999997,12.200000000000006 18.199999999999996,12.300000000000006 19.199999999999996,12.300000000000006 C 21.599999999999994,12.200000000000006 22.899999999999995,11.000000000000005 22.699999999999996,8.700000000000006 C 22.599999999999994,8.000000000000007 22.399999999999995,7.300000000000006 21.899999999999995,6.700000000000006 C 21.299999999999994,5.700000000000006 20.199999999999996,4.800000000000006 19.099999999999994,4.400000000000007 C 17.999999999999993,4.000000000000006 16.099999999999994,4.100000000000007 15.199999999999994,4.600000000000007 C 12.899999999999995,5.800000000000007 11.599999999999994,7.400000000000007 8.799999999999994,12.700000000000006 C 6.699999999999994,16.600000000000005 6.299999999999994,17.400000000000006 5.099999999999993,18.900000000000006 C 4.499999999999994,19.700000000000006 3.9999999999999933,20.400000000000006 4.099999999999993,20.400000000000006 C 4.199999999999993,20.500000000000007 4.099999999999993,20.500000000000007 3.9999999999999933,20.400000000000006 C 3.8999999999999932,20.300000000000004 3.4999999999999933,20.500000000000007 3.0999999999999934,20.800000000000004 C 2.6999999999999935,21.100000000000005 2.0999999999999934,21.500000000000004 1.5999999999999934,21.800000000000004 C 1.1999999999999935,22.100000000000005 0.6999999999999934,22.500000000000004 0.49999999999999334,22.700000000000003 L 0.0,22.8 L 0.3,22.8 L 0.2,23.0 L 0.8999999999999999,23.1 C 2.0,23.3 3.6,23.1 4.6,22.700000000000003 C 5.8999999999999995,22.1 7.0,21.400000000000002 6.8999999999999995,21.200000000000003 C 6.8,21.1 6.8999999999999995,21.1 6.999999999999999,21.1 C 7.099999999999999,21.200000000000003 7.699999999999999,20.700000000000003 8.5,20.1 C 9.2,19.5 10.2,18.700000000000003 10.6,18.5 L 11.299999999999999,18.1 L 11.399999999999999,18.700000000000003 C 11.7,20.000000000000004 11.7,22.900000000000002 11.299999999999999,24.700000000000003 C 10.6,28.000000000000004 9.0,30.900000000000002 4.799999999999999,36.2 C 3.899999999999999,37.400000000000006 3.699999999999999,37.7 4.099999999999999,37.6 C 4.099999999999999,37.7 4.399999999999999,37.6 4.999999999999999,37.5 C 7.299999999999999,36.7 9.2,34.9 11.799999999999999,31.2 C 12.1,30.7 12.7,30.0 12.999999999999998,29.599999999999998 C 13.399999999999999,29.099999999999998 13.599999999999998,28.799999999999997 13.499999999999998,28.599999999999998 C 13.399999999999999,28.499999999999996 13.399999999999999,28.4 13.599999999999998,28.499999999999996 C 13.699999999999998,28.599999999999998 13.899999999999999,28.499999999999996 14.099999999999998,28.199999999999996 L 14.299999999999997,27.899999999999995 L 14.399999999999997,28.099999999999994 C 14.899999999999997,29.499999999999993 15.099999999999996,32.49999999999999 14.699999999999998,34.39999999999999 C 14.099999999999998,37.99999999999999 11.999999999999996,41.69999999999999 7.099999999999998,48.19999999999999 C 6.999999999999998,48.29999999999999 7.099999999999998,48.29999999999999 7.299999999999998,48.29999999999999 C 7.399999999999998,48.39999999999999 8.299999999999997,48.09999999999999 9.299999999999997,47.59999999999999 C 11.199999999999998,46.59999999999999 12.399999999999997,45.499999999999986 14.399999999999997,42.69999999999999 C 14.999999999999996,41.79999999999999 15.499999999999996,41.09999999999999 15.499999999999996,41.09999999999999 C 15.499999999999996,40.899999999999984 17.799999999999997,37.09999999999999 18.399999999999995,36.399999999999984 C 18.899999999999995,35.69999999999998 19.799999999999994,34.79999999999998 19.999999999999996,34.69999999999998 C 20.099999999999998,35.09999999999998 20.199999999999996,36.99999999999998 20.099999999999998,38.49999999999998 C 19.9,41.299999999999976 18.999999999999996,44.299999999999976 17.7,47.199999999999974 C 17.3,47.99999999999997 17.099999999999998,48.699999999999974 17.099999999999998,48.799999999999976 C 17.099999999999998,48.799999999999976 17.099999999999998,48.89999999999998 17.099999999999998,48.89999999999998 C 17.099999999999998,48.89999999999998 17.099999999999998,48.89999999999998 17.099999999999998,48.89999999999998 C 17.099999999999998,48.89999999999998 17.099999999999998,48.89999999999998 17.099999999999998,48.89999999999998 C 16.999999999999996,48.799999999999976 16.7,49.09999999999998 16.499999999999996,49.59999999999998 C 15.499999999999996,51.39999999999998 12.899999999999997,55.29999999999998 11.099999999999996,57.79999999999998 L 10.699999999999996,58.29999999999998 L 10.899999999999995,58.19999999999998 L 10.799999999999995,58.29999999999998 L 11.699999999999996,57.899999999999984 C 15.099999999999996,56.09999999999999 18.299999999999997,51.999999999999986 21.099999999999994,45.59999999999998 C 21.699999999999996,44.19999999999998 22.499999999999993,42.49999999999998 22.899999999999995,41.89999999999998 C 23.299999999999994,41.299999999999976 23.599999999999994,40.699999999999974 23.499999999999996,40.59999999999998 C 23.499999999999996,40.49999999999998 23.499999999999996,40.49999999999998 23.599999999999998,40.49999999999998 C 23.7,40.49999999999998 24.099999999999998,40.19999999999998 24.499999999999996,39.799999999999976 C 24.799999999999997,39.49999999999998 25.099999999999998,39.199999999999974 25.299999999999997,39.09999999999997 C 25.299999999999997,39.299999999999976 25.4,39.799999999999976 25.299999999999997,40.39999999999997 C 25.199999999999996,47.29999999999997 22.799999999999997,53.99999999999997 17.9,60.89999999999997 C 17.2,61.99999999999997 16.5,62.89999999999997 16.4,62.99999999999997 L 16.4,62.99999999999997 C 16.2,63.199999999999974 16.299999999999997,63.199999999999974 16.599999999999998,63.09999999999997 C 16.7,63.09999999999997 16.9,62.99999999999997 17.299999999999997,62.799999999999976 C 21.199999999999996,60.799999999999976 24.499999999999996,55.699999999999974 26.9,47.89999999999998 C 27.5,44.9 28.4,42.6 29.1,41.8" fill="#ff0032" stroke="none" stroke-width="2.0px" /><path d="M 13.7,46.9 C 13.7,46.9 13.7,46.9 13.7,46.9 C 13.5,46.8 13.2,47.199999999999996 12.899999999999999,47.699999999999996 C 12.599999999999998,48.199999999999996 11.999999999999998,49.199999999999996 11.399999999999999,49.9 L 10.399999999999999,51.199999999999996 L 10.7,50.99999999999999 L 10.6,51.199999999999996 L 11.5,50.699999999999996 C 12.8,49.9 14.3,48.8 14.8,48.3 C 15.0,48.0 15.200000000000001,47.8 15.200000000000001,47.9 C 15.200000000000001,47.9 15.500000000000002,47.699999999999996 15.8,47.3 C 16.900000000000002,46.0 17.900000000000002,44.4 18.6,42.4 C 19.200000000000003,40.9 19.5,36.3 19.1,35.699999999999996 C 19.1,35.699999999999996 19.1,35.699999999999996 19.0,35.699999999999996 C 19.0,35.699999999999996 19.0,35.599999999999994 19.0,35.599999999999994 C 18.9,35.39999999999999 18.3,36.49999999999999 16.9,39.599999999999994 C 15.799999999999999,41.89999999999999 14.599999999999998,44.49999999999999 14.2,45.3 C 13.8,46.1 13.6,46.7 13.7,46.9 C 13.7,46.9 13.7,46.9 13.7,46.9 C 13.7,46.9 13.7,46.9 13.7,46.9" fill="#ff0032" stroke="none" stroke-width="2.0px" /><path d="M 24.2,57.6 C 25.8,55.6 28.0,52.1 27.8,51.7 C 27.8,51.6 27.8,51.6 27.8,51.6 C 27.8,51.6 27.8,51.6 27.8,51.6 C 27.8,51.6 27.8,51.6 27.8,51.6 C 28.0,51.7 28.8,49.5 29.1,48.0 C 29.5,46.2 29.400000000000002,42.3 29.0,42.4 C 29.0,42.4 28.9,42.3 28.9,42.4 C 28.799999999999997,42.5 27.799999999999997,45.6 26.599999999999998,49.199999999999996 C 25.4,52.9 24.2,56.3 23.999999999999996,56.99999999999999 L 23.599999999999998,58.099999999999994 L 23.799999999999997,57.89999999999999 L 23.8,58.0 L 24.2,57.6" fill="#ff0032" stroke="none" stroke-width="2.0px" /><path d="M 16.2,57.9 C 21.0,55.1 23.799999999999997,49.7 24.4,42.5 C 24.599999999999998,40.3 24.599999999999998,39.7 24.4,40.0 C 24.4,39.8 24.299999999999997,40.0 24.099999999999998,40.4 C 23.9,40.8 23.4,41.6 22.999999999999996,42.199999999999996 C 21.799999999999997,43.99999999999999 21.599999999999998,44.49999999999999 21.399999999999995,46.3 C 21.199999999999996,49.3 20.299999999999994,51.0 16.699999999999996,55.9 C 15.599999999999996,57.3 14.799999999999995,58.5 14.799999999999995,58.5 C 14.799999999999995,58.6 14.799999999999995,58.6 14.999999999999995,58.5 C 15.0,58.6 15.3,58.4 16.2,57.9" fill="#ff0032" stroke="none" stroke-width="2.0px" /><path d="M 4.4,29.3 C 9.600000000000001,26.8 11.7,23.700000000000003 10.9,19.700000000000003 C 10.8,19.300000000000004 10.700000000000001,18.900000000000002 10.6,18.900000000000002 C 10.6,18.900000000000002 10.6,18.900000000000002 10.5,18.900000000000002 C 10.5,18.8 10.4,18.8 10.4,18.8 C 10.1,18.8 9.200000000000001,20.2 8.4,21.8 C 7.9,22.8 7.4,23.900000000000002 7.1000000000000005,24.3 C 6.9,24.7 6.7,25.1 6.7,25.2 C 6.7,25.3 6.7,25.4 6.6000000000000005,25.3 C 6.6000000000000005,25.3 6.2,25.6 5.9,26.2 C 5.5,26.7 4.6000000000000005,27.7 3.9000000000000004,28.5 C 3.2,29.3 2.7,29.8 2.7,29.8 C 2.7,29.8 2.9000000000000004,29.7 3.1,29.7 C 3.0,29.9 2.9,29.9 3.0,29.9 C 3.0,29.9 3.7,29.7 4.4,29.3" fill="#ff0032" stroke="none" stroke-width="2.0px" /><path d="M 38.5,74.7 C 38.5,74.7 38.4,74.60000000000001 38.3,74.60000000000001 C 38.199999999999996,74.60000000000001 38.199999999999996,74.7 38.099999999999994,74.7 C 38.099999999999994,74.7 37.99999999999999,74.8 37.99999999999999,74.8 C 37.99999999999999,74.89999999999999 38.099999999999994,74.89999999999999 38.199999999999996,74.89999999999999 C 38.3,74.8 38.4,74.8 38.4,74.69999999999999 C 38.4,74.8 38.4,74.8 38.5,74.7 C 38.5,74.8 38.5,74.7 38.5,74.7" fill="#ff0032" stroke="none" stroke-width="2.0px" /><path d="M 7.4,41.3 C 8.200000000000001,41.0 9.0,40.5 10.100000000000001,39.8 C 10.900000000000002,39.3 12.700000000000001,37.5 12.700000000000001,37.199999999999996 C 12.700000000000001,37.099999999999994 12.8,36.99999999999999 12.8,36.99999999999999 C 12.9,36.99999999999999 13.8,35.29999999999999 14.100000000000001,34.29999999999999 C 14.400000000000002,33.39999999999999 14.400000000000002,29.39999999999999 14.100000000000001,28.99999999999999 C 14.000000000000002,28.899999999999988 13.900000000000002,28.79999999999999 13.900000000000002,28.79999999999999 C 13.800000000000002,28.69999999999999 13.700000000000003,28.69999999999999 13.600000000000001,28.69999999999999 C 13.500000000000002,28.69999999999999 13.200000000000001,29.399999999999988 13.000000000000002,30.099999999999987 C 11.200000000000001,34.899999999999984 9.900000000000002,37.59999999999999 8.200000000000003,39.499999999999986 C 7.8000000000000025,39.999999999999986 7.500000000000003,40.499999999999986 7.500000000000003,40.59999999999999 C 7.600000000000002,40.69999999999999 7.500000000000003,40.69999999999999 7.400000000000003,40.69999999999999 C 7.300000000000003,40.69999999999999 7.000000000000003,40.79999999999999 6.800000000000003,40.999999999999986 L 6.800000000000003,40.999999999999986 L 6.400000000000003,41.399999999999984 L 6.700000000000003,41.29999999999998 L 6.500000000000003,41.499999999999986 L 7.4,41.3" fill="#ff0032" stroke="none" stroke-width="2.0px" /><path d="M 43.9,55.1 C 44.699999999999996,54.4 44.8,54.2 44.8,53.6 C 44.8,53.2 44.599999999999994,52.5 44.4,51.800000000000004 L 44.0,50.7 L 44.0,50.7 L 44.0,50.7 L 43.0,52.6 C 41.8,54.7 40.9,55.9 39.5,56.7 C 39.0,57.0 38.5,57.2 38.0,57.400000000000006 C 37.7,57.50000000000001 37.4,57.60000000000001 37.2,57.800000000000004 C 37.1,57.900000000000006 36.900000000000006,58.00000000000001 36.900000000000006,58.00000000000001 C 36.60000000000001,58.300000000000004 36.50000000000001,58.300000000000004 36.7,58.60000000000001 C 37.0,59.00000000000001 38.1,59.20000000000001 39.2,59.10000000000001 C 39.800000000000004,59.00000000000001 40.300000000000004,59.00000000000001 40.400000000000006,58.900000000000006 C 40.50000000000001,58.900000000000006 40.60000000000001,59.2 40.7,59.800000000000004 C 40.800000000000004,61.00000000000001 41.300000000000004,62.1 41.800000000000004,62.300000000000004 C 42.2,62.50000000000001 42.400000000000006,62.50000000000001 42.50000000000001,62.300000000000004 C 42.60000000000001,62.1 42.60000000000001,61.7 42.50000000000001,61.00000000000001 C 42.300000000000004,59.400000000000006 42.400000000000006,57.60000000000001 42.800000000000004,56.70000000000001 C 42.9,56.2 43.4,55.6 43.9,55.1" fill="#ff0032" stroke="none" stroke-width="2.0px" /><path d="M 60.3,8.3 C 60.8,8.200000000000001 60.9,8.200000000000001 60.9,8.0 C 61.0,7.9 61.0,7.9 60.9,7.7 C 60.699999999999996,7.2 59.9,7.5 59.9,8.0 C 59.9,8.1 59.9,8.1 59.9,8.2 C 59.7,8.3 59.9,8.4 60.3,8.3" fill="#ff0032" stroke="none" stroke-width="2.0px" /><path d="M 51.0,24.4 C 51.3,24.4 51.9,24.5 52.3,24.7 L 52.3,24.7 C 53.599999999999994,25.099999999999998 53.599999999999994,25.099999999999998 53.9,23.7 C 54.6,21.0 55.5,19.1 56.6,18.0 C 57.2,17.4 58.5,16.9 59.800000000000004,16.7 C 60.900000000000006,16.5 61.1,16.5 61.1,16.2 C 61.1,16.099999999999998 61.2,16.099999999999998 61.2,16.0 C 61.2,15.8 61.300000000000004,15.5 61.400000000000006,15.1 C 61.60000000000001,14.5 61.900000000000006,13.799999999999999 62.300000000000004,13.299999999999999 C 62.6,12.899999999999999 63.00000000000001,12.2 63.2,11.7 C 63.5,11.0 63.6,10.899999999999999 63.800000000000004,11.1 C 63.900000000000006,11.2 64.10000000000001,11.299999999999999 64.2,11.299999999999999 C 64.5,11.299999999999999 66.3,9.299999999999999 66.3,9.099999999999998 C 66.2,9.0 66.2,9.0 66.2,9.0 C 66.2,9.0 66.2,9.0 66.2,9.0 C 66.3,9.0 66.7,8.6 67.2,8.0 C 67.60000000000001,7.4 68.10000000000001,6.8 68.2,6.7 C 68.3,6.6000000000000005 68.4,6.5 68.3,6.5 C 68.39999999999999,6.3 68.39999999999999,6.3 68.3,6.3 C 67.89999999999999,6.3 66.7,7.3 65.89999999999999,8.2 C 64.89999999999999,9.5 64.6,9.5 64.8,8.299999999999999 C 64.8,8.0 64.9,7.6 65.0,7.3 C 65.6,5.699999999999999 67.1,4.8 70.1,3.9 C 71.0,3.6 71.69999999999999,3.4 71.8,3.3 C 71.8,3.3 71.8,3.1999999999999997 71.8,3.1999999999999997 C 71.89999999999999,3.1999999999999997 71.89999999999999,3.1999999999999997 71.89999999999999,3.0999999999999996 C 72.1,2.8999999999999995 71.1,2.1999999999999997 70.3,1.9999999999999996 C 68.8,1.5999999999999996 66.7,2.0999999999999996 64.5,3.3999999999999995 C 63.8,3.7999999999999994 63.6,3.9999999999999996 63.6,4.199999999999999 C 63.5,4.299999999999999 63.5,4.3999999999999995 63.6,4.499999999999999 C 63.800000000000004,5.199999999999999 63.9,5.799999999999999 63.9,6.1 C 63.699999999999996,6.6 63.4,6.3999999999999995 63.4,5.8 C 63.4,4.699999999999999 62.6,3.6999999999999997 61.5,3.5 C 60.9,3.4 60.2,3.7 58.6,4.8 C 56.9,6.0 55.9,6.199999999999999 54.7,5.6 C 54.300000000000004,5.3999999999999995 54.300000000000004,5.3999999999999995 54.300000000000004,5.699999999999999 C 54.300000000000004,5.699999999999999 54.300000000000004,5.799999999999999 54.300000000000004,5.8999999999999995 C 54.300000000000004,6.499999999999999 55.00000000000001,7.0 56.2,7.3999999999999995 C 56.800000000000004,7.6 57.2,7.699999999999999 57.300000000000004,7.8999999999999995 C 57.300000000000004,7.8999999999999995 57.2,7.8999999999999995 57.2,7.8999999999999995 C 56.6,7.8999999999999995 55.2,9.6 54.6,10.899999999999999 C 53.1,14.2 52.300000000000004,16.5 51.5,19.4 C 51.3,20.099999999999998 50.6,23.799999999999997 50.6,24.099999999999998 C 50.6,24.099999999999998 50.6,24.099999999999998 50.6,24.099999999999998 C 50.6,24.099999999999998 50.6,24.2 50.6,24.2 C 50.5,24.3 50.7,24.4 51.0,24.4 M 59.2,7.8 C 59.900000000000006,6.8 60.6,6.3 61.6,6.3 L 62.4,6.3 L 62.4,7.0 C 62.4,7.2 62.4,7.4 62.3,7.6 C 62.3,7.699999999999999 62.199999999999996,7.8 62.199999999999996,7.8999999999999995 C 61.9,8.399999999999999 60.99999999999999,8.799999999999999 60.3,8.799999999999999 C 59.699999999999996,8.799999999999999 59.4,9.1 58.9,10.1 L 58.9,10.1 C 58.6,10.9 58.199999999999996,11.4 58.0,11.1 C 58.0,11.1 58.0,11.0 58.0,10.9 C 58.2,10.0 58.8,8.3 59.2,7.8" fill="#ff0032" stroke="none" stroke-width="2.0px" /><path d="M 51.8,64.8 C 49.5,63.699999999999996 46.8,64.7 46.5,66.7 C 46.5,66.9 46.5,67.0 46.5,67.2 C 46.5,68.0 47.2,68.8 48.7,69.3 C 48.800000000000004,69.3 49.5,69.39999999999999 50.2,69.3 C 52.300000000000004,69.2 53.2,68.6 53.2,67.0 C 53.2,66.7 53.2,66.5 53.1,66.3 C 53.0,65.6 52.6,65.1 51.8,64.8" fill="#ff0032" stroke="none" stroke-width="2.0px" /><path d="M 67.0,82.5 C 66.0,81.7 63.6,80.6 63.4,80.9 C 63.4,80.9 63.4,81.0 63.5,81.10000000000001 C 63.5,81.2 63.7,81.50000000000001 64.0,81.9 C 64.2,82.10000000000001 64.3,82.30000000000001 64.4,82.5 C 64.7,83.1 64.5,83.7 64.0,84.2 C 63.2,85.0 62.0,85.4 60.3,85.4 C 58.3,85.4 57.5,85.10000000000001 56.099999999999994,83.7 C 53.699999999999996,81.4 51.99999999999999,77.3 51.8,73.2 C 51.8,72.60000000000001 51.8,72.0 51.8,71.4 C 51.8,70.7 51.8,70.10000000000001 51.8,69.9 C 51.8,69.80000000000001 51.8,69.7 51.8,69.80000000000001 C 51.699999999999996,69.9 50.9,69.9 49.9,69.9 L 48.1,69.9 L 48.1,70.0 L 48.1,70.0 L 47.8,72.0 C 47.3,78.2 45.099999999999994,83.0 42.099999999999994,84.6 C 38.599999999999994,86.5 33.89999999999999,84.5 35.199999999999996,81.89999999999999 C 35.199999999999996,81.8 35.3,81.69999999999999 35.3,81.6 L 35.699999999999996,81.0 L 35.699999999999996,81.0 L 35.8,80.9 L 35.2,81.0 C 34.300000000000004,81.2 33.1,81.8 32.400000000000006,82.4 C 32.2,82.6 32.0,82.8 32.0,83.0 C 31.9,83.2 31.8,83.4 31.8,83.9 C 31.8,86.4 34.0,88.10000000000001 37.6,88.4 C 38.800000000000004,88.5 39.5,88.4 41.4,87.9 C 41.5,87.9 41.6,87.9 41.6,88.0 C 41.5,88.2 41.4,88.5 41.1,89.0 C 40.800000000000004,89.7 40.6,90.0 40.5,90.4 C 40.4,90.7 40.4,91.10000000000001 40.4,91.5 C 40.4,92.8 40.8,93.5 41.6,93.4 C 42.4,93.30000000000001 43.7,92.60000000000001 44.9,91.5 C 46.4,90.2 46.5,90.2 46.5,91.5 C 46.3,94.6 47.3,97.3 49.0,98.4 L 49.0,98.4 C 49.5,98.7 49.8,98.7 50.7,98.10000000000001 C 52.1,97.2 52.800000000000004,95.30000000000001 52.800000000000004,92.00000000000001 C 52.800000000000004,90.90000000000002 52.900000000000006,90.10000000000001 52.900000000000006,90.10000000000001 C 53.00000000000001,90.10000000000001 53.50000000000001,90.60000000000001 54.2,91.2 C 55.400000000000006,92.3 56.6,93.10000000000001 57.7,93.3 C 58.300000000000004,93.39999999999999 58.400000000000006,93.39999999999999 58.7,92.89999999999999 C 59.1,92.3 59.1,91.69999999999999 58.900000000000006,90.8 C 58.800000000000004,90.3 58.60000000000001,89.7 58.300000000000004,89.0 C 58.00000000000001,88.3 57.800000000000004,87.8 57.7,87.6 C 57.7,87.5 57.7,87.39999999999999 57.800000000000004,87.39999999999999 C 57.800000000000004,87.39999999999999 58.1,87.49999999999999 58.400000000000006,87.69999999999999 C 59.7,88.39999999999999 61.800000000000004,88.6 63.50000000000001,88.19999999999999 C 66.0,87.49999999999999 67.5,85.99999999999999 67.7,83.99999999999999 C 67.7,83.49999999999999 67.8,83.29999999999998 67.60000000000001,83.09999999999998 C 67.5,82.8 67.3,82.7 67.0,82.5" fill="#ff0032" stroke="none" stroke-width="2.0px" /><path d="M 38.9,7.6 C 38.6,7.8 38.6,7.8 38.8,7.8999999999999995 C 38.6,8.0 38.6,8.0 38.9,8.1 L 38.9,8.1 C 39.199999999999996,8.2 40.1,8.299999999999999 40.1,8.2 C 40.1,8.1 40.1,7.999999999999999 40.0,7.999999999999999 C 40.0,7.4 39.5,7.3 38.9,7.6" fill="#ff0032" stroke="none" stroke-width="2.0px" /><path d="M 45.3,26.8 C 45.3,26.900000000000002 45.3,27.0 45.5,27.1 C 46.0,27.5 47.5,28.200000000000003 48.4,28.3 L 48.4,28.3 C 50.9,28.7 53.4,28.1 54.199999999999996,26.900000000000002 C 54.3,26.700000000000003 54.4,26.6 54.4,26.500000000000004 C 54.5,26.300000000000004 54.4,26.200000000000003 54.0,25.900000000000002 C 53.3,25.3 51.7,24.900000000000002 49.8,24.900000000000002 C 47.8,24.900000000000002 46.4,25.400000000000002 45.599999999999994,26.200000000000003 C 45.4,26.6 45.3,26.7 45.3,26.8" fill="#ff0032" stroke="none" stroke-width="2.0px" /><path d="M 55.5,50.8 C 55.5,50.8 55.5,50.8 55.5,50.8 C 55.5,50.8 55.5,50.8 55.5,50.8 C 55.4,50.8 55.0,52.5 55.0,53.599999999999994 C 55.0,54.099999999999994 55.1,54.3 55.6,54.8 C 56.9,56.099999999999994 57.5,58.199999999999996 57.5,61.0 L 57.5,61.0 C 57.5,62.0 57.5,62.3 57.6,62.4 C 57.6,62.5 57.7,62.5 57.800000000000004,62.5 C 58.2,62.5 58.800000000000004,61.8 58.900000000000006,61.2 C 59.00000000000001,61.0 59.10000000000001,60.300000000000004 59.300000000000004,59.800000000000004 C 59.50000000000001,59.00000000000001 59.6,58.800000000000004 59.900000000000006,58.900000000000006 C 60.10000000000001,58.900000000000006 60.7,59.00000000000001 61.300000000000004,59.00000000000001 C 62.50000000000001,59.00000000000001 63.7,58.60000000000001 63.6,58.300000000000004 C 63.6,58.300000000000004 63.5,58.2 63.4,58.1 C 63.199999999999996,58.0 62.9,57.9 62.6,57.800000000000004 C 61.9,57.6 61.2,57.2 60.5,56.800000000000004 C 59.8,56.400000000000006 59.2,55.900000000000006 58.6,55.300000000000004 C 57.6,54.300000000000004 56.300000000000004,52.300000000000004 55.9,51.300000000000004 C 55.7,51.1 55.6,50.8 55.5,50.8" fill="#ff0032" stroke="none" stroke-width="2.0px" /><path d="M 56.2,31.0 C 55.7,30.1 54.400000000000006,28.9 54.1,29.0 C 54.0,29.0 54.0,29.0 54.0,29.0 C 54.0,29.0 54.0,28.9 54.0,28.9 C 54.1,28.599999999999998 53.5,28.599999999999998 51.7,28.7 C 49.900000000000006,28.8 49.5,28.8 47.400000000000006,28.599999999999998 C 46.400000000000006,28.499999999999996 46.400000000000006,28.499999999999996 45.50000000000001,29.2 C 43.300000000000004,31.099999999999998 42.20000000000001,34.3 42.400000000000006,38.1 C 42.50000000000001,40.5 42.900000000000006,42.300000000000004 44.10000000000001,47.3 C 45.400000000000006,52.4 45.60000000000001,53.9 45.80000000000001,57.4 C 45.90000000000001,58.8 46.000000000000014,60.3 46.10000000000001,60.699999999999996 C 46.50000000000001,62.3 47.30000000000001,63.49999999999999 48.400000000000006,63.8 L 48.400000000000006,63.8 C 49.10000000000001,64.0 51.10000000000001,64.0 51.60000000000001,63.699999999999996 C 51.900000000000006,63.599999999999994 52.30000000000001,63.3 52.60000000000001,62.99999999999999 C 53.60000000000001,61.89999999999999 53.80000000000001,61.099999999999994 54.00000000000001,56.49999999999999 C 54.10000000000001,52.199999999999996 54.20000000000001,51.99999999999999 55.70000000000001,45.49999999999999 C 56.80000000000001,40.89999999999999 57.00000000000001,39.599999999999994 57.10000000000001,36.69999999999999 C 57.20000000000001,34.499999999999986 57.10000000000001,33.999999999999986 56.900000000000006,32.89999999999999 C 56.8,32.3 56.5,31.4 56.2,31.0" fill="#ff0032" stroke="none" stroke-width="2.0px" /><path d="M 84.4,57.5 C 82.30000000000001,55.2 81.10000000000001,53.0 78.9,47.0 C 78.0,44.4 76.4,40.9 75.9,40.2 L 75.60000000000001,39.800000000000004 L 75.60000000000001,40.00000000000001 L 75.50000000000001,39.800000000000004 L 75.60000000000001,40.800000000000004 C 75.80000000000001,43.900000000000006 76.2,46.2 76.9,48.50000000000001 C 78.4,53.300000000000004 81.30000000000001,57.10000000000001 84.30000000000001,58.2 C 84.80000000000001,58.400000000000006 85.30000000000001,58.5 85.30000000000001,58.5 C 85.30000000000001,58.5 85.30000000000001,58.5 85.30000000000001,58.5 C 85.4,58.5 85.4,58.5 85.50000000000001,58.5 C 85.4,58.6 85.0,58.1 84.4,57.5" fill="#ff0032" stroke="none" stroke-width="2.0px" /><path d="M 100.0,22.8 L 99.6,22.3 C 99.39999999999999,22.0 98.39999999999999,21.3 97.39999999999999,20.6 C 94.99999999999999,18.8 93.69999999999999,17.1 91.8,13.3 C 91.5,12.700000000000001 91.2,12.3 91.1,12.4 C 91.0,12.5 91.0,12.4 91.0,12.3 C 91.1,12.100000000000001 89.9,9.700000000000001 89.1,8.4 C 88.89999999999999,8.0 88.5,7.5 88.39999999999999,7.300000000000001 C 87.8,6.4 86.3,5.000000000000001 85.3,4.500000000000001 C 82.8,3.200000000000001 79.8,4.000000000000001 78.5,6.200000000000001 C 78.4,6.400000000000001 78.3,6.500000000000001 78.2,6.700000000000001 C 77.7,7.600000000000001 77.7,9.8 78.10000000000001,10.700000000000001 C 78.50000000000001,11.500000000000002 79.60000000000001,11.9 81.2,11.9 C 82.7,11.9 83.8,11.5 84.4,10.700000000000001 C 84.80000000000001,10.200000000000001 85.10000000000001,9.600000000000001 85.10000000000001,8.700000000000001 L 85.2,7.600000000000001 L 84.5,7.200000000000001 C 84.0,6.900000000000001 83.6,6.800000000000001 82.8,6.800000000000001 C 82.0,6.800000000000001 81.8,6.800000000000001 81.6,7.1000000000000005 C 81.5,7.2 81.39999999999999,7.500000000000001 81.19999999999999,7.9 C 81.19999999999999,8.0 81.1,8.1 81.1,8.200000000000001 C 81.1,8.200000000000001 81.1,8.200000000000001 81.0,8.200000000000001 C 80.8,8.200000000000001 80.8,7.200000000000001 81.0,6.700000000000001 C 81.4,6.300000000000001 82.3,6.000000000000001 83.1,6.200000000000001 C 84.5,6.400000000000001 85.5,7.300000000000001 86.19999999999999,8.900000000000002 C 87.6,11.900000000000002 85.39999999999999,17.0 80.29999999999998,22.900000000000002 C 79.39999999999998,23.900000000000002 78.89999999999998,24.6 78.89999999999998,24.900000000000002 C 78.89999999999998,25.900000000000002 77.99999999999997,28.700000000000003 77.49999999999997,29.300000000000004 C 77.49999999999997,29.300000000000004 77.49999999999997,29.300000000000004 77.39999999999998,29.300000000000004 C 77.39999999999998,29.300000000000004 77.49999999999997,28.700000000000003 77.69999999999997,28.200000000000003 C 78.39999999999998,26.300000000000004 78.39999999999998,23.200000000000003 77.49999999999997,21.500000000000004 C 77.19999999999997,20.900000000000002 76.39999999999998,19.800000000000004 75.89999999999998,19.400000000000002 C 74.89999999999998,18.500000000000004 73.09999999999998,18.1 71.69999999999997,18.500000000000004 C 70.99999999999997,18.700000000000003 70.29999999999997,19.300000000000004 69.79999999999997,20.100000000000005 C 69.59999999999997,20.400000000000006 69.49999999999997,20.700000000000006 69.39999999999996,21.000000000000004 C 69.09999999999997,21.800000000000004 69.09999999999997,24.200000000000003 69.29999999999997,25.200000000000003 L 69.39999999999996,25.700000000000003 L 69.89999999999996,25.300000000000004 C 70.09999999999997,25.100000000000005 70.39999999999996,24.800000000000004 70.69999999999996,24.400000000000006 C 70.89999999999996,24.200000000000006 71.09999999999997,23.900000000000006 71.19999999999996,23.700000000000006 C 71.29999999999995,23.600000000000005 71.29999999999995,23.500000000000007 71.39999999999996,23.400000000000006 C 71.89999999999996,22.700000000000006 72.39999999999996,22.400000000000006 73.09999999999997,22.200000000000006 C 73.49999999999997,22.100000000000005 74.39999999999996,23.000000000000007 74.89999999999996,23.800000000000008 C 75.29999999999997,24.60000000000001 75.19999999999996,26.10000000000001 74.69999999999996,27.200000000000006 C 74.29999999999995,28.100000000000005 73.59999999999997,28.900000000000006 72.69999999999996,29.700000000000006 C 70.79999999999995,31.500000000000007 67.99999999999996,32.900000000000006 65.79999999999995,33.10000000000001 C 65.19999999999996,33.20000000000001 64.99999999999996,33.20000000000001 64.89999999999995,33.400000000000006 C 64.79999999999995,33.50000000000001 64.79999999999995,33.50000000000001 64.79999999999995,33.60000000000001 C 64.69999999999996,33.900000000000006 64.59999999999995,34.20000000000001 64.39999999999995,34.400000000000006 C 64.09999999999995,34.800000000000004 63.59999999999995,34.900000000000006 63.39999999999995,34.60000000000001 C 63.39999999999995,34.60000000000001 63.39999999999995,34.60000000000001 63.39999999999995,34.60000000000001 C 63.39999999999995,34.60000000000001 63.39999999999995,34.60000000000001 63.39999999999995,34.60000000000001 C 63.39999999999995,34.60000000000001 63.49999999999995,34.60000000000001 63.59999999999995,34.50000000000001 C 63.69999999999995,34.400000000000006 63.89999999999995,34.10000000000001 64.09999999999995,33.70000000000001 C 64.49999999999996,32.90000000000001 64.59999999999995,32.50000000000001 64.59999999999995,31.60000000000001 C 64.59999999999995,30.10000000000001 64.29999999999995,29.500000000000007 63.49999999999995,29.20000000000001 C 62.69999999999995,28.90000000000001 60.59999999999995,29.00000000000001 60.09999999999995,29.20000000000001 C 59.799999999999955,29.30000000000001 59.69999999999995,29.40000000000001 59.799999999999955,29.40000000000001 C 59.69999999999995,29.50000000000001 59.69999999999995,29.50000000000001 59.99999999999996,29.50000000000001 C 61.09999999999996,29.50000000000001 62.09999999999996,30.70000000000001 62.19999999999996,32.000000000000014 C 62.29999999999996,32.70000000000002 62.09999999999996,33.30000000000001 61.79999999999996,33.80000000000001 C 61.59999999999996,34.10000000000001 61.29999999999996,34.30000000000001 60.999999999999964,34.60000000000001 C 60.39999999999996,35.00000000000001 60.19999999999997,35.00000000000001 59.099999999999966,35.00000000000001 C 58.099999999999966,35.00000000000001 57.79999999999997,35.10000000000001 57.69999999999997,35.20000000000001 C 57.69999999999997,35.20000000000001 57.69999999999997,35.20000000000001 57.69999999999997,35.20000000000001 C 57.69999999999997,35.20000000000001 57.69999999999997,35.20000000000001 57.69999999999997,35.20000000000001 C 57.499999999999964,35.60000000000001 57.499999999999964,37.20000000000001 57.69999999999997,39.80000000000001 C 57.89999999999997,43.500000000000014 58.39999999999997,45.60000000000001 59.499999999999964,47.90000000000001 C 60.099999999999966,49.100000000000016 60.89999999999996,50.30000000000001 61.099999999999966,50.20000000000001 C 61.099999999999966,50.20000000000001 61.19999999999997,50.20000000000001 61.19999999999997,50.20000000000001 C 61.29999999999997,50.10000000000001 61.29999999999997,48.90000000000001 61.39999999999997,47.40000000000001 C 61.49999999999997,45.600000000000016 61.49999999999997,44.70000000000001 61.69999999999997,44.500000000000014 C 61.79999999999997,44.500000000000014 61.999999999999964,45.100000000000016 62.29999999999997,46.20000000000002 C 62.99999999999997,49.500000000000014 64.39999999999996,52.500000000000014 65.59999999999997,53.70000000000002 L 65.99999999999997,54.100000000000016 L 65.99999999999997,54.100000000000016 L 66.09999999999997,54.20000000000002 L 66.29999999999997,53.600000000000016 C 66.79999999999997,52.500000000000014 66.79999999999997,50.500000000000014 66.29999999999997,47.500000000000014 C 65.89999999999996,45.000000000000014 65.79999999999997,43.70000000000002 65.89999999999996,43.500000000000014 C 65.89999999999996,43.500000000000014 65.89999999999996,43.500000000000014 65.89999999999996,43.500000000000014 C 65.99999999999996,43.600000000000016 66.19999999999996,44.30000000000001 66.29999999999997,45.000000000000014 C 67.19999999999997,50.000000000000014 68.99999999999997,54.20000000000002 71.39999999999996,57.30000000000001 C 71.99999999999996,58.10000000000001 73.79999999999997,59.60000000000001 74.49999999999996,60.10000000000001 L 74.99999999999996,60.400000000000006 L 74.99999999999996,60.400000000000006 L 75.09999999999995,60.50000000000001 L 75.0,59.6 C 74.8,59.1 74.1,57.5 73.3,56.0 C 70.39999999999999,50.1 69.6,47.3 69.8,43.8 C 69.89999999999999,42.4 70.2,41.199999999999996 70.5,41.0 C 70.5,41.0 70.5,41.0 70.5,41.0 C 70.6,41.0 70.8,41.3 70.9,41.6 C 72.10000000000001,44.4 72.5,45.4 73.2,47.2 C 75.8,54.400000000000006 77.0,57.0 78.7,59.300000000000004 C 79.8,60.800000000000004 81.10000000000001,61.900000000000006 82.3,62.50000000000001 C 82.39999999999999,62.60000000000001 82.6,62.60000000000001 82.8,62.70000000000001 C 83.2,62.80000000000001 83.5,62.90000000000001 83.7,62.90000000000001 C 84.10000000000001,62.90000000000001 84.10000000000001,62.90000000000001 83.9,62.600000000000016 C 83.80000000000001,62.40000000000001 83.2,61.70000000000002 82.60000000000001,60.90000000000001 C 82.00000000000001,60.100000000000016 81.50000000000001,59.500000000000014 81.4,59.600000000000016 C 81.4,59.600000000000016 81.30000000000001,59.600000000000016 81.30000000000001,59.600000000000016 C 81.30000000000001,59.600000000000016 81.30000000000001,59.600000000000016 81.30000000000001,59.600000000000016 C 81.30000000000001,59.600000000000016 81.30000000000001,59.500000000000014 81.30000000000001,59.500000000000014 C 81.30000000000001,59.40000000000001 81.30000000000001,59.20000000000002 81.10000000000001,59.000000000000014 C 80.60000000000001,58.30000000000001 79.00000000000001,55.70000000000002 78.4,54.30000000000001 C 76.9,51.20000000000001 75.7,47.60000000000001 75.30000000000001,44.60000000000001 C 75.00000000000001,42.400000000000006 74.80000000000001,39.20000000000001 75.00000000000001,38.70000000000001 C 75.10000000000001,38.80000000000001 75.40000000000002,39.00000000000001 75.60000000000001,39.30000000000001 C 76.2,40.10000000000001 77.7,42.40000000000001 77.7,42.500000000000014 C 77.7,42.600000000000016 77.8,42.80000000000001 78.0,43.000000000000014 C 78.2,43.20000000000002 78.6,44.100000000000016 79.1,44.90000000000001 C 79.5,45.70000000000001 79.89999999999999,46.30000000000001 80.0,46.30000000000001 C 80.1,46.20000000000001 80.1,46.30000000000001 80.0,46.40000000000001 C 79.8,46.70000000000001 82.0,50.90000000000001 83.6,53.100000000000016 C 84.8,54.90000000000001 86.69999999999999,56.70000000000002 88.5,57.70000000000002 L 89.3,58.20000000000002 L 89.2,58.100000000000016 L 89.4,58.20000000000002 L 88.9,57.30000000000002 C 88.60000000000001,56.80000000000002 87.9,55.70000000000002 87.4,54.90000000000002 C 86.80000000000001,54.10000000000002 86.10000000000001,53.00000000000002 85.9,52.60000000000002 C 85.60000000000001,52.200000000000024 85.4,51.800000000000026 85.30000000000001,51.800000000000026 C 85.20000000000002,51.800000000000026 85.20000000000002,51.700000000000024 85.20000000000002,51.60000000000002 C 85.20000000000002,51.50000000000002 85.00000000000001,51.10000000000002 84.70000000000002,50.800000000000026 C 83.80000000000001,49.40000000000003 82.30000000000001,46.800000000000026 81.70000000000002,45.40000000000003 C 80.50000000000001,42.60000000000003 80.00000000000001,40.50000000000003 79.80000000000001,37.800000000000026 C 79.70000000000002,36.40000000000003 79.80000000000001,36.10000000000002 80.00000000000001,35.40000000000003 C 80.10000000000001,35.10000000000003 80.30000000000001,34.800000000000026 80.40000000000002,34.700000000000024 C 80.60000000000002,34.800000000000026 82.60000000000002,37.700000000000024 83.20000000000002,38.90000000000003 C 83.90000000000002,40.200000000000024 85.50000000000001,42.700000000000024 86.50000000000001,44.00000000000003 C 88.00000000000001,45.90000000000003 90.60000000000001,47.800000000000026 92.40000000000002,48.300000000000026 C 92.60000000000002,48.300000000000026 92.70000000000002,48.40000000000003 92.70000000000002,48.300000000000026 C 93.10000000000002,48.40000000000003 93.00000000000001,48.200000000000024 91.50000000000001,46.300000000000026 C 88.60000000000001,42.40000000000003 86.80000000000001,39.10000000000002 85.70000000000002,35.90000000000003 C 85.10000000000002,34.200000000000024 85.10000000000002,34.00000000000003 85.10000000000002,32.10000000000003 C 85.10000000000002,30.20000000000003 85.10000000000002,30.00000000000003 85.60000000000002,29.10000000000003 C 85.80000000000003,28.70000000000003 86.00000000000003,28.30000000000003 86.20000000000002,28.20000000000003 C 86.30000000000001,28.20000000000003 86.50000000000001,28.20000000000003 86.50000000000001,28.300000000000033 C 86.50000000000001,28.500000000000032 89.20000000000002,32.60000000000003 90.20000000000002,33.80000000000003 C 91.20000000000002,35.10000000000003 92.60000000000002,36.30000000000003 93.70000000000002,36.80000000000003 C 94.60000000000002,37.20000000000003 96.00000000000001,37.60000000000003 96.10000000000002,37.500000000000036 C 96.10000000000002,37.500000000000036 96.10000000000002,37.500000000000036 96.10000000000002,37.500000000000036 C 96.20000000000002,37.500000000000036 96.30000000000003,37.500000000000036 96.30000000000003,37.500000000000036 C 96.40000000000002,37.400000000000034 95.90000000000002,36.900000000000034 95.40000000000002,36.20000000000004 C 90.80000000000003,30.80000000000004 89.00000000000001,27.400000000000038 88.60000000000002,22.80000000000004 C 88.50000000000003,21.40000000000004 88.60000000000002,18.70000000000004 88.80000000000003,18.10000000000004 C 89.10000000000002,18.200000000000042 90.10000000000002,18.90000000000004 90.90000000000002,19.700000000000042 C 92.00000000000001,20.800000000000043 93.30000000000003,21.700000000000042 93.50000000000001,21.60000000000004 C 93.60000000000001,21.50000000000004 93.60000000000001,21.60000000000004 93.60000000000001,21.700000000000042 C 93.50000000000001,21.90000000000004 95.2,22.800000000000043 96.4,23.10000000000004 C 97.4,23.40000000000004 98.80000000000001,23.40000000000004 99.5,23.200000000000042 L 99.9,23.10000000000004 L 99.9,23.10000000000004 L 100.0,22.8" fill="#ff0032" stroke="none" stroke-width="2.0px" /><path d="M 28.2,3.4 C 28.099999999999998,3.6 28.5,3.6999999999999997 29.3,3.8 C 30.6,4.0 32.2,4.6 33.2,5.3 C 33.900000000000006,5.8 34.400000000000006,6.3 34.6,7.0 C 34.7,7.4 34.800000000000004,7.7 34.800000000000004,8.2 C 34.800000000000004,9.1 34.6,9.6 34.50000000000001,9.2 C 34.400000000000006,8.799999999999999 33.10000000000001,7.299999999999999 32.60000000000001,6.8999999999999995 C 32.30000000000001,6.699999999999999 31.90000000000001,6.499999999999999 31.70000000000001,6.499999999999999 C 31.50000000000001,6.499999999999999 31.50000000000001,6.499999999999999 31.60000000000001,6.699999999999999 C 31.60000000000001,6.799999999999999 31.70000000000001,6.8999999999999995 32.00000000000001,7.299999999999999 C 32.300000000000004,7.599999999999999 32.800000000000004,8.299999999999999 33.20000000000001,8.7 C 34.10000000000001,9.899999999999999 35.00000000000001,10.899999999999999 35.50000000000001,11.1 C 36.10000000000001,11.4 36.10000000000001,11.4 36.10000000000001,10.9 C 36.10000000000001,9.8 36.60000000000001,9.3 36.900000000000006,10.1 C 36.900000000000006,10.1 36.900000000000006,10.1 36.900000000000006,10.1 C 37.00000000000001,10.299999999999999 36.900000000000006,10.6 36.60000000000001,11.1 L 36.20000000000001,11.799999999999999 L 36.30000000000001,11.899999999999999 L 36.30000000000001,11.999999999999998 L 37.000000000000014,12.599999999999998 C 37.70000000000002,13.199999999999998 37.90000000000001,13.499999999999998 38.100000000000016,14.099999999999998 C 38.100000000000016,14.199999999999998 38.20000000000002,14.299999999999997 38.20000000000002,14.399999999999999 C 38.30000000000002,14.7 38.40000000000002,15.2 38.40000000000002,15.499999999999998 L 38.50000000000002,16.4 L 38.50000000000002,16.4 L 38.50000000000002,16.5 L 39.90000000000002,16.7 C 43.00000000000002,17.099999999999998 44.40000000000002,18.7 45.60000000000002,23.1 C 45.90000000000002,24.1 46.200000000000024,25.0 46.300000000000026,25.0 C 46.40000000000003,25.0 46.800000000000026,24.9 47.300000000000026,24.8 C 47.700000000000024,24.7 48.300000000000026,24.5 48.60000000000002,24.5 C 49.00000000000002,24.5 49.10000000000002,24.5 49.10000000000002,24.0 C 49.10000000000002,23.7 49.00000000000002,23.0 48.800000000000026,21.7 C 47.800000000000026,15.799999999999999 46.10000000000002,11.6 43.60000000000002,8.7 L 42.700000000000024,7.699999999999999 L 43.300000000000026,7.6 C 44.700000000000024,7.3999999999999995 45.60000000000002,6.699999999999999 45.40000000000003,6.0 C 45.40000000000003,5.9 45.40000000000003,5.7 45.300000000000026,5.6 C 45.200000000000024,5.3 45.10000000000002,5.3 44.60000000000002,5.6 C 43.800000000000026,6.0 42.700000000000024,5.8999999999999995 41.700000000000024,5.3 C 39.90000000000003,4.199999999999999 38.40000000000003,3.5 38.200000000000024,3.5 C 37.60000000000002,3.5 36.300000000000026,5.1 36.300000000000026,5.9 C 36.300000000000026,6.300000000000001 36.00000000000003,6.300000000000001 35.800000000000026,6.0 C 35.800000000000026,5.8 35.800000000000026,5.3 36.00000000000003,4.8 L 36.3,4.0 L 36.2,4.0 L 36.2,3.9 L 35.300000000000004,3.4 C 34.00000000000001,2.7 32.300000000000004,2.0999999999999996 31.300000000000004,2.0 C 30.000000000000004,1.8 29.200000000000003,2.0 28.500000000000004,2.7 C 28.1,3.1 28.0,3.2 28.2,3.4 M 42.0,10.4 C 42.1,10.5 42.2,10.700000000000001 42.3,10.8 C 42.3,10.8 42.3,10.8 42.3,10.8 L 42.3,10.8 C 42.199999999999996,11.0 41.5,11.0 41.3,10.700000000000001 C 41.199999999999996,10.600000000000001 41.0,10.100000000000001 40.8,9.600000000000001 C 40.4,8.700000000000001 40.4,8.700000000000001 39.699999999999996,8.700000000000001 C 38.49999999999999,8.600000000000001 37.8,8.100000000000001 37.49999999999999,7.200000000000001 C 37.49999999999999,7.100000000000001 37.39999999999999,7.000000000000001 37.39999999999999,6.800000000000001 L 37.29999999999999,6.000000000000001 L 38.29999999999999,6.1000000000000005 C 39.59999999999999,6.2 40.09999999999999,6.6000000000000005 40.89999999999999,8.3 C 41.19999999999999,9.0 41.599999999999994,9.600000000000001 41.599999999999994,9.5 C 41.599999999999994,9.5 41.599999999999994,9.5 41.599999999999994,9.5 C 41.599999999999994,9.5 41.599999999999994,9.6 41.599999999999994,9.7 C 41.7,9.9 41.8,10.2 42.0,10.4" fill="#ff0032" stroke="none" stroke-width="2.0px" /><path d="M 91.7,22.5 C 91.4,21.8 91.10000000000001,20.8 90.9,20.4 C 90.60000000000001,19.7 89.7,18.799999999999997 89.4,18.799999999999997 C 89.30000000000001,18.799999999999997 89.30000000000001,18.9 89.30000000000001,18.9 C 89.30000000000001,18.9 89.30000000000001,18.9 89.30000000000001,18.9 C 89.00000000000001,18.9 88.9,20.099999999999998 89.00000000000001,21.599999999999998 C 89.10000000000001,23.7 90.20000000000002,25.499999999999996 92.10000000000001,27.099999999999998 C 93.10000000000001,27.9 95.4,29.2 95.4,28.999999999999996 C 95.4,28.899999999999995 95.5,28.899999999999995 95.5,29.099999999999998 C 95.6,29.2 95.9,29.4 96.2,29.499999999999996 L 96.2,29.499999999999996 C 96.5,29.599999999999998 96.8,29.799999999999997 96.8,29.799999999999997 C 96.8,29.799999999999997 96.8,29.699999999999996 96.7,29.599999999999998 C 96.9,29.7 97.0,29.7 97.0,29.7 C 97.1,29.7 96.5,29.099999999999998 95.1,27.5 C 93.2,25.4 92.3,24.1 91.7,22.5" fill="#ff0032" stroke="none" stroke-width="2.0px" /><path d="M 88.7,50.0 C 87.10000000000001,48.2 86.0,46.2 84.2,41.9 C 82.2,37.199999999999996 81.2,35.5 80.7,35.5 C 80.7,35.5 80.60000000000001,35.5 80.60000000000001,35.6 C 80.60000000000001,35.6 80.60000000000001,35.6 80.60000000000001,35.6 C 80.00000000000001,35.6 80.4,39.1 81.30000000000001,41.800000000000004 C 82.50000000000001,45.7 85.60000000000001,49.400000000000006 88.30000000000001,50.5 C 88.70000000000002,50.7 89.10000000000001,50.8 89.20000000000002,50.8 C 89.20000000000002,50.8 89.20000000000002,50.8 89.20000000000002,50.8 C 89.30000000000001,50.8 89.30000000000001,50.8 89.40000000000002,50.8 C 89.3,50.8 89.1,50.5 88.7,50.0" fill="#ff0032" stroke="none" stroke-width="2.0px" /><path d="M 91.6,39.6 C 91.4,39.6 91.4,39.6 91.6,39.6 C 91.6,39.4 91.39999999999999,39.0 90.89999999999999,38.5 C 89.89999999999999,37.3 89.19999999999999,35.8 88.3,33.3 C 87.5,30.999999999999996 86.89999999999999,29.699999999999996 86.39999999999999,29.199999999999996 C 86.19999999999999,28.999999999999996 86.19999999999999,28.999999999999996 86.1,29.199999999999996 C 86.0,29.099999999999994 85.89999999999999,29.299999999999997 85.8,29.799999999999997 C 85.6,30.999999999999996 85.7,33.099999999999994 85.89999999999999,34.099999999999994 C 86.6,36.99999999999999 88.49999999999999,39.3 91.6,40.99999999999999 L 91.6,40.99999999999999 C 92.39999999999999,41.39999999999999 93.1,41.699999999999996 93.1,41.699999999999996 C 93.1,41.699999999999996 93.1,41.699999999999996 93.1,41.599999999999994 C 93.19999999999999,41.599999999999994 93.19999999999999,41.699999999999996 93.3,41.699999999999996 C 93.5,41.699999999999996 93.1,41.199999999999996 92.2,40.199999999999996 C 92.0,39.7 91.7,39.5 91.6,39.6" fill="#ff0032" stroke="none" stroke-width="2.0px" /><path d="M 34.7,72.4 C 35.400000000000006,72.80000000000001 36.5,73.4 37.0,73.7 C 37.8,74.2 37.9,74.3 37.9,74.10000000000001 C 38.0,74.10000000000001 38.0,74.00000000000001 37.9,73.80000000000001 C 37.699999999999996,72.60000000000001 36.199999999999996,71.20000000000002 34.3,70.20000000000002 L 33.0,69.6 L 33.4,68.8 C 33.6,68.39999999999999 33.8,68.0 33.9,67.89999999999999 C 34.0,67.8 34.3,67.3 34.699999999999996,66.69999999999999 C 35.099999999999994,66.1 35.99999999999999,64.99999999999999 36.699999999999996,64.19999999999999 C 37.4,63.39999999999999 38.199999999999996,62.39999999999999 38.599999999999994,61.999999999999986 C 39.199999999999996,61.19999999999999 40.099999999999994,59.79999999999998 39.99999999999999,59.59999999999999 C 39.99999999999999,59.59999999999999 39.699999999999996,59.59999999999999 39.39999999999999,59.69999999999999 C 39.099999999999994,59.79999999999999 38.69999999999999,59.999999999999986 38.39999999999999,60.29999999999999 C 37.79999999999999,60.79999999999999 37.19999999999999,61.59999999999999 36.599999999999994,62.59999999999999 C 36.099999999999994,63.399999999999984 35.49999999999999,64.29999999999998 35.199999999999996,64.69999999999999 C 34.9,65.1 34.699999999999996,65.49999999999999 34.8,65.6 C 34.8,65.6 34.8,65.6 34.8,65.6 C 34.699999999999996,65.6 34.4,65.8 34.0,66.19999999999999 C 33.9,66.29999999999998 33.9,66.29999999999998 33.8,66.39999999999999 C 33.699999999999996,66.49999999999999 33.599999999999994,66.6 33.5,66.69999999999999 C 32.7,67.39999999999999 31.8,68.1 31.5,68.1 C 31.4,68.1 31.0,67.8 30.5,67.39999999999999 C 30.1,66.99999999999999 29.6,66.69999999999999 29.5,66.8 C 29.4,66.8 29.3,66.8 29.4,66.7 C 29.599999999999998,66.3 27.0,65.0 25.7,64.8 C 25.099999999999998,64.7 24.599999999999998,64.8 24.2,65.0 C 24.0,65.1 23.8,65.3 23.599999999999998,65.5 C 23.299999999999997,66.0 23.299999999999997,66.1 23.799999999999997,65.9 C 23.999999999999996,65.80000000000001 24.599999999999998,65.7 25.199999999999996,65.7 C 26.099999999999994,65.7 26.199999999999996,65.7 27.199999999999996,66.5 C 28.299999999999997,67.3 28.899999999999995,68.1 28.999999999999996,68.7 C 28.999999999999996,68.8 28.999999999999996,68.8 28.999999999999996,68.9 C 28.899999999999995,69.0 28.599999999999998,68.9 27.999999999999996,68.9 C 26.599999999999998,68.80000000000001 24.399999999999995,69.10000000000001 23.499999999999996,69.4 C 23.199999999999996,69.5 22.899999999999995,69.7 22.599999999999998,69.9 C 22.2,70.2 21.999999999999996,70.4 21.999999999999996,70.60000000000001 C 21.999999999999996,70.60000000000001 21.999999999999996,70.60000000000001 21.999999999999996,70.60000000000001 C 21.999999999999996,70.60000000000001 21.899999999999995,70.60000000000001 21.899999999999995,70.7 C 21.699999999999996,70.7 21.299999999999994,71.60000000000001 21.299999999999994,72.2 C 21.299999999999994,72.5 21.299999999999994,72.5 21.799999999999994,72.2 C 21.899999999999995,72.10000000000001 22.099999999999994,72.0 22.299999999999994,71.8 C 22.299999999999994,71.8 22.399999999999995,71.8 22.399999999999995,71.7 C 22.799999999999994,71.4 23.399999999999995,71.0 23.799999999999994,70.8 C 24.099999999999994,70.6 24.399999999999995,70.5 24.499999999999993,70.39999999999999 C 24.599999999999994,70.3 24.599999999999994,70.3 24.599999999999994,70.3 C 24.599999999999994,70.3 24.699999999999996,70.3 24.699999999999996,70.3 C 24.799999999999997,70.3 25.399999999999995,70.2 25.899999999999995,70.2 C 26.999999999999996,70.10000000000001 27.699999999999996,70.2 28.399999999999995,70.60000000000001 C 28.699999999999996,70.80000000000001 28.799999999999994,70.9 28.799999999999994,71.00000000000001 C 28.799999999999994,71.00000000000001 28.799999999999994,71.00000000000001 28.799999999999994,71.00000000000001 C 28.699999999999992,71.10000000000001 28.399999999999995,71.20000000000002 28.199999999999992,71.20000000000002 C 27.09999999999999,71.40000000000002 25.799999999999994,72.20000000000002 24.89999999999999,73.00000000000001 C 24.699999999999992,73.10000000000001 24.59999999999999,73.30000000000001 24.499999999999993,73.50000000000001 C 23.999999999999993,74.20000000000002 23.499999999999993,75.40000000000002 23.499999999999993,76.30000000000001 L 23.499999999999993,76.30000000000001 C 23.499999999999993,76.70000000000002 23.599999999999994,76.9 23.699999999999992,76.80000000000001 C 23.699999999999992,76.80000000000001 23.799999999999994,76.70000000000002 23.799999999999994,76.70000000000002 C 23.799999999999994,76.70000000000002 23.799999999999994,76.70000000000002 23.799999999999994,76.70000000000002 C 23.899999999999995,76.60000000000002 23.999999999999993,76.50000000000001 23.999999999999993,76.40000000000002 C 23.999999999999993,76.10000000000002 24.699999999999992,75.20000000000002 25.499999999999993,74.50000000000001 C 25.699999999999992,74.30000000000001 25.999999999999993,74.10000000000001 26.199999999999992,73.90000000000002 C 28.39999999999999,72.20000000000002 30.39999999999999,71.50000000000001 32.39999999999999,71.60000000000002 C 33.2,71.7 33.5,71.8 34.7,72.4" fill="#ff0032" stroke="none" stroke-width="2.0px" /><path d="M 78.4,71.3 C 78.30000000000001,70.8 78.0,70.5 77.60000000000001,70.2 C 76.80000000000001,69.60000000000001 75.30000000000001,69.2 72.7,69.0 C 71.8,68.9 71.10000000000001,68.8 70.8,68.8 C 70.8,68.7 71.0,68.39999999999999 71.1,68.1 C 72.3,66.3 74.6,65.3 76.1,66.0 C 76.69999999999999,66.2 76.69999999999999,66.2 76.5,66.0 C 76.3,65.6 76.0,65.4 75.5,65.1 C 75.3,65.0 75.1,64.89999999999999 74.9,64.8 C 74.10000000000001,64.39999999999999 73.7,64.5 72.60000000000001,65.1 C 72.00000000000001,65.39999999999999 70.10000000000001,66.89999999999999 69.80000000000001,67.3 C 69.60000000000001,67.5 68.4,68.3 68.10000000000001,68.3 C 67.9,68.3 67.00000000000001,67.7 66.60000000000001,67.3 C 66.50000000000001,67.2 66.50000000000001,67.1 66.4,67.1 C 66.4,67.0 66.30000000000001,67.0 66.30000000000001,67.0 C 66.20000000000002,66.9 66.10000000000001,66.9 66.00000000000001,66.9 C 66.00000000000001,66.9 65.90000000000002,66.9 65.90000000000002,66.9 C 65.90000000000002,66.9 65.90000000000002,66.9 65.90000000000002,66.9 C 65.90000000000002,66.80000000000001 65.50000000000001,66.0 64.80000000000003,65.2 C 64.20000000000003,64.3 63.50000000000003,63.300000000000004 63.200000000000024,62.900000000000006 C 63.00000000000002,62.50000000000001 62.700000000000024,62.10000000000001 62.50000000000002,62.00000000000001 C 62.40000000000002,61.900000000000006 62.30000000000002,61.70000000000001 62.40000000000002,61.70000000000001 C 62.60000000000002,61.70000000000001 61.90000000000002,61.00000000000001 61.40000000000002,60.60000000000001 C 61.20000000000002,60.400000000000006 61.00000000000002,60.30000000000001 60.90000000000002,60.20000000000001 C 60.60000000000002,60.00000000000001 60.20000000000002,59.90000000000001 59.90000000000002,59.80000000000001 L 59.40000000000002,59.70000000000001 L 59.90000000000002,60.50000000000001 C 60.60000000000002,61.60000000000001 61.00000000000002,62.20000000000001 62.50000000000002,63.900000000000006 C 64.40000000000002,66.0 65.20000000000002,67.10000000000001 65.80000000000003,68.4 C 66.50000000000003,69.9 66.50000000000003,70.10000000000001 65.70000000000003,70.2 C 64.90000000000003,70.3 63.20000000000003,71.4 63.30000000000003,71.60000000000001 C 63.400000000000034,71.7 63.30000000000003,71.7 63.20000000000003,71.7 C 62.80000000000003,71.5 61.60000000000003,73.3 61.400000000000034,74.4 L 61.30000000000003,74.9 L 61.400000000000034,74.7 L 61.7,75.0 L 62.1,74.4 C 62.300000000000004,74.10000000000001 62.9,73.5 63.5,73.10000000000001 C 66.2,71.30000000000001 70.7,71.60000000000001 73.9,73.80000000000001 C 74.4,74.20000000000002 74.9,74.50000000000001 75.2,74.9 C 75.60000000000001,75.30000000000001 75.9,75.7 76.2,76.2 L 76.2,76.2 C 76.4,76.60000000000001 76.60000000000001,76.8 76.60000000000001,76.8 C 76.60000000000001,76.8 76.60000000000001,76.8 76.60000000000001,76.8 C 76.7,76.89999999999999 76.7,76.89999999999999 76.7,76.89999999999999 C 76.8,76.8 76.4,74.99999999999999 76.10000000000001,74.39999999999999 C 75.9,73.89999999999999 75.50000000000001,73.39999999999999 74.9,72.99999999999999 C 74.0,72.19999999999999 72.80000000000001,71.39999999999999 71.7,70.99999999999999 C 71.5,70.89999999999999 71.3,70.79999999999998 71.2,70.79999999999998 C 71.2,70.79999999999998 71.2,70.79999999999998 71.2,70.79999999999998 C 71.2,70.69999999999999 71.60000000000001,70.59999999999998 72.0,70.39999999999998 C 73.7,69.79999999999998 75.6,70.29999999999998 77.7,71.89999999999998 L 78.7,72.69999999999997 L 78.60000000000001,72.19999999999997 C 78.5,71.8 78.5,71.5 78.4,71.3" fill="#ff0032" stroke="none" stroke-width="2.0px" /><path d="M 76.0,57.8 C 76.0,57.8 75.9,57.4 75.8,57.0 C 75.6,56.6 75.2,55.4 74.89999999999999,54.3 C 72.99999999999999,48.099999999999994 72.3,46.0 71.6,44.5 C 71.19999999999999,43.6 70.69999999999999,42.6 70.6,42.4 C 70.5,42.3 70.39999999999999,42.199999999999996 70.39999999999999,42.3 C 70.3,42.199999999999996 70.3,42.5 70.3,44.199999999999996 C 70.5,48.4 71.89999999999999,52.3 74.5,55.89999999999999 C 75.2,56.89999999999999 75.8,57.69999999999999 75.8,57.599999999999994 C 75.8,57.599999999999994 75.8,57.599999999999994 75.8,57.49999999999999 C 76.0,57.7 76.0,57.8 76.0,57.8" fill="#ff0032" stroke="none" stroke-width="2.0px" /><path d="M 82.4,62.4 L 82.4,62.4 L 82.4,62.4 L 82.4,62.4" fill="#ff0032" stroke="none" stroke-width="2.0px" /></g></svg>