<?xml version="1.0" encoding="utf-8" ?>
<svg baseProfile="full" height="100px" version="1.1" width="150px" xmlns="http://www.w3.org/2000/svg" xmlns:ev="http://www.w3.org/2001/xml-events" xmlns:xlink="http://www.w3.org/1999/xlink"><defs><clipPath id="mask0"><rect height="100" width="150" x="0" y="0" /></clipPath></defs><g clip-path="url(#mask0)"><rect fill="#f3b3c9" height="100" stroke="none" width="75.0" x="0.0" y="0" /><rect fill="#9477fe" height="100" stroke="none" width="75.0" x="75.0" y="0" /></g><g transform="translate(49.53546925767924, 24.53546925767924) scale(0.5092906148464152) rotate(0, 50.0, 50.0)"><path d="M 71.7,54.8 C 85.2,52.8 95.30000000000001,41.199999999999996 95.30000000000001,27.499999999999996 C 95.3,12.3 83.0,0.0 67.8,0.0 C 61.0,0.0 54.8,2.5 50.0,6.5 C 45.2,2.5 39.0,0.0 32.2,0.0 C 17.0,0.0 4.7,12.3 4.7,27.5 C 4.7,41.1 14.8,52.8 28.3,54.8 L 28.3,72.5 L 8.6,72.5 L 8.6,80.4 L 28.299999999999997,80.4 L 28.299999999999997,100.0 L 36.199999999999996,100.0 L 36.199999999999996,80.3 L 44.3,80.3 L 44.3,80.3 L 64.0,80.3 L 64.0,100.0 L 71.9,100.0 L 71.9,80.3 L 91.60000000000001,80.3 L 91.60000000000001,72.39999999999999 L 71.7,72.39999999999999 L 71.7,54.8 M 50.0,19.2 C 51.2,21.7 51.9,24.5 51.9,27.5 C 51.9,30.5 51.199999999999996,33.3 50.0,35.8 C 48.8,33.3 48.1,30.499999999999996 48.1,27.499999999999996 C 48.1,24.6 48.8,21.7 50.0,19.2 M 32.2,47.2 C 21.300000000000004,47.2 12.500000000000004,38.400000000000006 12.500000000000004,27.500000000000004 C 12.500000000000004,16.6 21.300000000000004,7.800000000000004 32.2,7.800000000000004 C 37.0,7.800000000000004 41.400000000000006,9.500000000000004 44.800000000000004,12.400000000000004 C 44.1,13.400000000000004 43.50000000000001,14.500000000000004 43.00000000000001,15.600000000000005 C 41.20000000000001,19.300000000000004 40.20000000000001,23.400000000000006 40.20000000000001,27.700000000000003 L 40.30000000000001,27.700000000000003 C 40.30000000000001,33.1 42.000000000000014,38.300000000000004 44.80000000000001,42.6 C 41.4,45.5 37.0,47.2 32.2,47.2 M 63.9,72.5 L 55.8,72.5 L 55.8,72.5 L 36.1,72.5 L 36.1,54.8 C 41.4,54.0 46.1,51.8 49.900000000000006,48.5 C 53.7,51.8 58.50000000000001,54.0 63.800000000000004,54.8 L 63.800000000000004,72.5 L 63.9,72.5 M 67.8,47.2 C 63.0,47.2 58.599999999999994,45.5 55.199999999999996,42.6 C 58.099999999999994,38.2 59.699999999999996,33.0 59.699999999999996,27.5 C 59.699999999999996,22.0 58.099999999999994,16.8 55.199999999999996,12.5 C 58.599999999999994,9.7 62.9,8.1 67.6,8.1 C 78.5,8.1 87.39999999999999,16.7 87.39999999999999,27.5 C 87.39999999999999,38.3 78.7,47.2 67.8,47.2" fill="#ffffff" stroke="none" stroke-width="2.0" /></g></svg>