<?xml version="1.0" encoding="utf-8" ?>
<svg baseProfile="full" height="100px" version="1.1" width="150px" xmlns="http://www.w3.org/2000/svg" xmlns:ev="http://www.w3.org/2001/xml-events" xmlns:xlink="http://www.w3.org/1999/xlink"><defs><clipPath id="mask0"><rect height="100" width="150" x="0" y="0" /></clipPath></defs><g clip-path="url(#mask0)"><rect fill="#eaf8fc" height="100" stroke="none" width="150" x="0" y="0" /><path d="M0,0 L86.60254037844386,50.0 L0,100 z" fill="#d66884" stroke="none" /></g><g transform="translate(9.032290065031287, 32.03229006503129) scale(0.3593541986993743) rotate(0, 50.0, 50.0)"><path d="M 3.9,3.4 L 95.9,3.4 L 95.9,48.9 C 92.9,74.4 68.2,95.4 48.800000000000004,97.5 C 28.2,93.8 5.5,72.0 3.9,48.9 L 3.9,3.4 L 3.9,3.4" fill="#000000" stroke="none" stroke-width="3.0px" /><path d="M 48.8,100.5 L 48.4,100.4 C 27.4,96.7 2.8,74.7 1.0,49.1 L 1.0,0.5 L 98.9,0.5 L 98.9,48.9 C 95.80000000000001,75.7 70.10000000000001,98.1 49.2,100.4 L 48.8,100.5 M 6.8,6.3 L 6.8,48.9 C 8.3,70.8 30.2,91.0 49.0,94.6 C 67.3,92.3 90.4,71.89999999999999 93.1,48.599999999999994 L 93.1,6.299999999999997 L 6.8,6.299999999999997 L 6.8,6.3 M 53.2,80.5 L 54.1,74.6 L 56.9,74.69999999999999 L 56.9,70.79999999999998 L 54.6,70.79999999999998 L 55.4,65.69999999999999 L 64.2,65.79999999999998 L 64.2,61.59999999999998 L 57.2,61.59999999999998 C 62.0,53.29999999999998 68.60000000000001,53.49999999999998 72.0,56.19999999999998 C 74.2,59.19999999999998 74.1,62.79999999999998 71.3,65.79999999999998 C 75.7,66.19999999999999 81.89999999999999,64.29999999999998 82.5,55.79999999999998 C 82.5,50.899999999999984 76.7,41.899999999999984 64.6,47.09999999999998 C 58.39999999999999,49.79999999999998 55.699999999999996,55.69999999999998 54.599999999999994,61.09999999999998 C 54.49999999999999,61.79999999999998 53.39999999999999,61.19999999999998 53.099999999999994,61.49999999999998 C 52.099999999999994,52.09999999999998 60.599999999999994,40.89999999999998 60.89999999999999,29.99999999999998 C 60.29999999999999,17.399999999999977 52.599999999999994,15.399999999999979 49.49999999999999,9.499999999999979 C 46.29999999999999,15.399999999999979 38.69999999999999,17.399999999999977 38.099999999999994,29.99999999999998 C 38.39999999999999,40.89999999999998 46.89999999999999,52.09999999999998 45.89999999999999,61.49999999999998 C 45.69999999999999,61.299999999999976 44.599999999999994,61.799999999999976 44.39999999999999,61.09999999999998 C 43.29999999999999,55.69999999999998 40.599999999999994,49.79999999999998 34.39999999999999,47.09999999999998 C 22.29999999999999,41.89999999999998 16.59999999999999,50.89999999999998 16.499999999999993,55.79999999999998 C 17.199999999999992,64.29999999999998 23.299999999999994,66.19999999999999 27.699999999999992,65.79999999999998 C 24.89999999999999,62.79999999999998 24.799999999999994,59.19999999999998 26.999999999999993,56.19999999999998 C 30.39999999999999,53.49999999999998 36.99999999999999,53.29999999999998 41.8,61.59999999999998 L 34.8,61.59999999999998 L 34.8,65.79999999999998 L 43.599999999999994,65.69999999999999 L 44.39999999999999,70.79999999999998 L 42.099999999999994,70.79999999999998 L 42.099999999999994,74.69999999999999 L 44.89999999999999,74.6 L 45.79999999999999,80.5 L 53.2,80.5" fill="#760188" stroke="none" stroke-width="3.0px" /></g></svg>