<?xml version="1.0" encoding="utf-8" ?>
<svg baseProfile="full" height="100px" version="1.1" width="150px" xmlns="http://www.w3.org/2000/svg" xmlns:ev="http://www.w3.org/2001/xml-events" xmlns:xlink="http://www.w3.org/1999/xlink"><defs><clipPath id="mask0"><rect height="100" width="150" x="0" y="0" /></clipPath></defs><g clip-path="url(#mask0)"><path d="M0,100 L150,0 L150,100 z" fill="#221e88" stroke="none" /><path d="M0,100 L150,0 L0,0 z" fill="#ff0032" stroke="none" /></g><g transform="translate(6.8720887516497555, 6.8720887516497555) scale(0.26255822496700487) rotate(0, 50.0, 50.0)"><path d="M 14.1,46.1 C 12.0,46.1 9.3,47.6 8.1,49.4 C 7.5,50.6 6.6,51.5 5.699999999999999,51.5 C 3.0,52.0 0.0,56.5 0.6,58.9 C 1.2,61.9 3.6,63.1 9.0,63.699999999999996 C 17.4,64.89999999999999 31.7,70.6 46.1,78.39999999999999 C 60.4,86.4 65.8,89.1 67.0,89.1 C 67.9,89.1 71.2,91.5 74.2,94.19999999999999 C 75.7,95.69999999999999 78.10000000000001,97.49999999999999 79.3,98.39999999999999 C 83.8,101.1 86.8,100.49999999999999 89.8,95.69999999999999 C 90.39999999999999,94.79999999999998 91.0,94.19999999999999 91.6,94.49999999999999 C 92.8,94.79999999999998 95.5,93.59999999999998 96.39999999999999,92.09999999999998 C 96.99999999999999,90.59999999999998 96.99999999999999,87.89999999999998 95.8,86.99999999999999 C 94.0,85.19999999999999 92.5,84.89999999999999 84.39999999999999,84.29999999999998 C 75.69999999999999,83.99999999999999 71.49999999999999,82.79999999999998 66.19999999999999,79.79999999999998 C 64.69999999999999,78.89999999999998 61.999999999999986,77.69999999999999 60.499999999999986,76.79999999999998 C 58.999999999999986,75.89999999999998 54.79999999999998,73.49999999999999 51.499999999999986,71.69999999999999 C 44.29999999999998,67.49999999999999 34.19999999999999,61.79999999999999 29.699999999999985,59.69999999999999 C 25.499999999999986,57.29999999999999 21.899999999999984,54.29999999999999 19.499999999999986,50.69999999999999 C 17.4,47.6 15.9,46.1 14.1,46.1 M 11.8,57.1 C 11.9,57.1 11.8,57.300000000000004 11.700000000000001,57.7 C 11.4,58.900000000000006 11.700000000000001,58.900000000000006 14.700000000000001,59.800000000000004 C 17.700000000000003,60.7 21.6,62.50000000000001 21.6,63.1 C 21.6,63.4 21.0,63.1 19.5,62.5 C 18.6,62.2 16.2,61.3 14.4,61.0 C 12.3,60.4 10.8,59.8 10.5,59.5 C 10.2,59.2 10.5,58.6 11.1,58.0 C 11.5,57.4 11.8,57.1 11.8,57.1 M 71.8,87.6 C 72.1,87.6 74.8,89.39999999999999 78.39999999999999,92.39999999999999 C 81.39999999999999,95.1 81.99999999999999,95.1 83.49999999999999,94.8 C 85.59999999999998,94.2 86.49999999999999,94.8 84.69999999999999,95.7 C 82.89999999999999,96.60000000000001 82.29999999999998,96.60000000000001 77.79999999999998,93.0 C 75.69999999999999,90.9 73.29999999999998,89.1 72.39999999999998,88.8 C 71.49999999999997,88.5 70.9,87.6 71.8,87.6 M 89.3,88.5 C 89.39999999999999,88.5 89.6,88.5 89.8,88.5 C 90.39999999999999,88.5 91.0,88.8 91.0,89.1 C 91.0,90.0 90.1,90.0 89.2,89.39999999999999 C 88.4,88.6 88.3,88.5 89.3,88.5" fill="#9efb05" stroke="none" stroke-width="2.0px" /><path d="M 39.2,75.7 L 34.400000000000006,78.10000000000001 C 25.8,82.0 22.2,82.6 9.3,82.0 C 6.0,81.7 4.8,82.0 3.0,82.9 C 0.8999999999999999,84.10000000000001 0.2999999999999998,85.30000000000001 0.6000000000000001,87.7 C 1.2000000000000002,89.5 2.1,90.4 4.800000000000001,91.3 C 6.300000000000001,91.89999999999999 6.9,92.5 7.200000000000001,93.7 C 7.500000000000001,94.60000000000001 8.4,96.10000000000001 9.3,96.7 C 12.600000000000001,99.4 17.1,97.9 24.6,92.2 C 26.700000000000003,90.7 30.0,88.9 31.8,88.3 C 34.5,87.1 39.9,84.7 46.8,81.7 L 48.3,81.10000000000001 L 45.9,79.60000000000001 C 44.4,78.7 42.3,77.50000000000001 41.4,76.9 L 39.2,75.7 M 8.5,85.0 C 8.7,85.0 8.9,85.0 9.0,85.2 C 9.3,85.2 9.0,85.8 8.7,86.10000000000001 C 7.799999999999999,86.7 7.199999999999999,86.7 6.8999999999999995,86.10000000000001 C 6.7,85.7 7.8,85.1 8.5,85.0 M 11.4,89.0 C 11.5,88.9 11.9,89.5 12.5,90.7 C 13.7,93.10000000000001 14.0,93.4 16.4,92.5 C 17.599999999999998,92.2 17.599999999999998,92.2 16.7,93.4 C 16.099999999999998,94.0 15.2,94.30000000000001 14.0,94.30000000000001 C 12.5,94.30000000000001 12.2,94.30000000000001 11.9,92.20000000000002 C 11.5,90.1 11.3,89.0 11.4,89.0" fill="#9efb05" stroke="none" stroke-width="2.0px" /><path d="M 86.7,47.8 C 86.10000000000001,47.8 85.5,47.9 85.0,48.099999999999994 C 84.4,48.39999999999999 83.2,49.89999999999999 82.0,51.39999999999999 C 78.7,56.19999999999999 75.1,58.89999999999999 67.6,62.49999999999999 C 57.099999999999994,67.3 51.39999999999999,70.0 51.699999999999996,70.3 C 51.699999999999996,70.6 53.8,71.8 55.9,73.0 L 60.1,75.4 L 65.5,73.30000000000001 C 73.6,70.00000000000001 84.0,67.00000000000001 90.0,66.4 C 96.6,65.5 96.9,65.5 98.4,64.0 C 99.60000000000001,62.5 99.9,59.8 98.4,57.7 C 98.10000000000001,56.800000000000004 96.60000000000001,55.300000000000004 95.10000000000001,54.400000000000006 C 93.30000000000001,53.50000000000001 92.4,52.300000000000004 92.4,51.7 C 92.5,49.8 89.3,47.9 86.7,47.8 M 88.9,58.9 L 89.2,60.4 C 89.8,61.9 88.60000000000001,63.1 86.8,63.1 C 86.2,63.1 84.1,63.7 82.0,64.3 C 80.2,64.6 78.7,64.89999999999999 78.7,64.89999999999999 C 78.7,64.3 79.9,63.69999999999999 84.4,62.79999999999999 C 88.0,61.89999999999999 88.30000000000001,61.89999999999999 88.60000000000001,60.39999999999999 L 88.9,58.9" fill="#9efb05" stroke="none" stroke-width="2.0px" /><path d="M 49.4,47.0 C 49.1,47.0 48.8,47.3 48.8,48.2 C 48.8,48.2 48.5,50.0 49.099999999999994,49.7 C 49.699999999999996,49.7 50.89999999999999,50.300000000000004 50.599999999999994,48.5 C 50.6,47.6 50.0,47.0 49.4,47.0" fill="#9efb05" stroke="none" stroke-width="2.0px" /><path d="M 48.8,55.6 C 48.5,54.1 48.5,53.2 49.699999999999996,53.2 C 50.9,53.2 51.199999999999996,53.800000000000004 50.599999999999994,55.300000000000004 C 50.0,56.8 49.4,56.8 48.8,55.6" fill="#9efb05" stroke="none" stroke-width="2.0px" /><path d="M 47.0,46.7 C 46.7,46.7 46.1,47.6 46.1,48.5 C 46.1,48.8 46.1,49.7 46.1,50.0 C 46.4,50.0 47.0,50.0 47.300000000000004,50.0 C 47.900000000000006,50.0 47.6,48.2 47.6,47.6 C 47.6,47.0 47.3,46.7 47.0,46.7 L 47.0,46.7" fill="#9efb05" stroke="none" stroke-width="2.0px" /><path d="M 46.4,55.6 C 45.8,55.0 46.1,53.2 46.699999999999996,53.2 C 47.3,53.2 47.599999999999994,53.800000000000004 47.599999999999994,54.7 C 47.6,55.9 47.0,56.2 46.4,55.6" fill="#9efb05" stroke="none" stroke-width="2.0px" /><path d="M 53.0,55.6 C 52.4,54.7 52.7,53.2 53.9,53.2 C 54.5,53.2 54.8,53.5 54.8,54.400000000000006 C 54.5,55.6 53.6,56.2 53.0,55.6" fill="#9efb05" stroke="none" stroke-width="2.0px" /><path d="M 43.7,55.0 C 43.1,54.4 43.400000000000006,53.2 44.300000000000004,53.2 C 44.6,53.2 44.900000000000006,53.800000000000004 44.900000000000006,54.400000000000006 C 44.9,55.3 44.3,55.6 43.7,55.0" fill="#9efb05" stroke="none" stroke-width="2.0px" /><path d="M 51.5,49.7 C 50.9,49.1 51.8,46.7 52.4,46.7 C 53.3,47.0 53.6,49.7 52.4,50.0 C 52.1,50.0 51.5,50.0 51.5,49.7" fill="#9efb05" stroke="none" stroke-width="2.0px" /><path d="M 43.1,49.1 C 42.800000000000004,47.9 43.1,46.7 44.300000000000004,46.7 C 44.6,46.7 44.900000000000006,47.300000000000004 44.900000000000006,48.2 C 44.9,50.0 43.7,50.5 43.1,49.1" fill="#9efb05" stroke="none" stroke-width="2.0px" /><path d="M 54.2,48.2 C 54.2,47.0 54.5,46.7 55.1,46.7 C 55.7,47.0 56.0,47.300000000000004 56.0,48.2 C 56.0,49.1 55.7,49.7 55.1,49.7 C 54.5,49.7 54.2,49.4 54.2,48.2" fill="#9efb05" stroke="none" stroke-width="2.0px" /><path d="M 44.9,62.8 C 42.199999999999996,61.9 41.9,61.599999999999994 38.6,57.699999999999996 C 36.2,54.099999999999994 35.9,53.8 35.300000000000004,46.599999999999994 C 35.00000000000001,42.39999999999999 35.300000000000004,42.099999999999994 38.00000000000001,44.49999999999999 C 39.50000000000001,45.99999999999999 39.800000000000004,46.599999999999994 40.400000000000006,49.89999999999999 C 41.00000000000001,55.29999999999999 43.10000000000001,57.099999999999994 49.7,57.099999999999994 C 54.800000000000004,57.099999999999994 56.900000000000006,56.199999999999996 58.1,53.49999999999999 C 58.4,52.599999999999994 59.0,51.099999999999994 59.0,50.49999999999999 C 59.0,47.79999999999999 60.2,45.39999999999999 61.7,44.49999999999999 C 62.6,43.89999999999999 63.5,43.599999999999994 63.800000000000004,43.599999999999994 C 64.4,43.599999999999994 63.800000000000004,53.199999999999996 62.900000000000006,54.699999999999996 C 62.00000000000001,56.8 57.800000000000004,61.599999999999994 56.60000000000001,62.199999999999996 C 54.8,62.8 47.3,63.4 44.9,62.8" fill="#9efb05" stroke="none" stroke-width="2.0px" /><path d="M 49.4,0.0 C 43.4,0.3 42.8,0.6 39.5,2.1 C 35.9,3.9000000000000004 31.7,7.800000000000001 29.9,11.7 C 28.7,14.1 28.7,15.0 28.7,20.1 C 28.7,25.200000000000003 28.7,26.1 29.9,28.200000000000003 C 30.5,29.700000000000003 31.4,30.6 31.4,30.300000000000004 C 31.7,30.300000000000004 31.7,27.600000000000005 31.7,24.600000000000005 C 31.7,19.200000000000003 31.7,18.900000000000006 33.5,15.000000000000005 C 35.6,11.100000000000005 37.7,8.400000000000006 37.1,10.800000000000004 C 36.5,13.200000000000005 35.300000000000004,15.600000000000005 34.4,18.000000000000004 C 33.199999999999996,20.400000000000002 32.9,21.600000000000005 32.9,26.1 C 32.9,30.900000000000002 32.9,31.8 32.0,32.1 C 30.2,32.7 29.6,33.300000000000004 29.6,34.2 C 29.3,36.300000000000004 30.8,37.800000000000004 35.0,39.6 C 38.3,40.800000000000004 39.5,41.7 40.4,42.9 C 41.3,44.4 42.199999999999996,45.3 44.6,45.9 C 44.9,46.199999999999996 47.9,46.199999999999996 51.2,46.199999999999996 L 57.2,45.9 L 59.6,43.5 C 61.1,41.7 62.6,40.5 64.4,39.9 C 70.10000000000001,37.8 72.2,33.6 68.30000000000001,32.699999999999996 L 66.1,32.0 L 66.1,28.4 C 66.1,24.799999999999997 66.39999999999999,23.299999999999997 67.3,23.299999999999997 C 67.6,23.299999999999997 67.6,24.799999999999997 67.6,26.599999999999998 C 67.6,30.499999999999996 68.19999999999999,30.799999999999997 70.0,28.4 C 71.5,26.299999999999997 71.8,17.0 70.6,12.799999999999999 C 69.1,7.399999999999999 64.3,2.5999999999999996 58.3,0.7999999999999989 C 56.3,0.0 54.5,0.0 49.4,0.0 M 41.7,21.3 C 43.1,21.2 44.5,21.7 45.800000000000004,23.0 C 48.2,25.4 46.7,30.2 42.800000000000004,32.3 C 38.300000000000004,34.699999999999996 35.900000000000006,32.599999999999994 36.2,27.799999999999997 C 36.6,23.9 39.1,21.5 41.7,21.3 M 57.9,21.3 C 60.6,21.2 63.0,23.7 63.4,27.8 C 63.699999999999996,30.2 63.699999999999996,30.5 62.5,31.7 C 59.8,34.4 56.2,33.2 54.1,29.3 C 52.300000000000004,26.6 52.300000000000004,24.8 54.1,23.0 C 55.4,21.9 56.7,21.4 57.9,21.3 M 50.0,30.2 C 50.6,30.2 52.1,36.2 52.1,38.3 C 52.1,39.5 52.1,39.5 50.9,38.599999999999994 C 49.699999999999996,37.99999999999999 49.4,37.99999999999999 48.199999999999996,38.599999999999994 C 46.699999999999996,39.8 46.4,39.49999999999999 46.699999999999996,38.599999999999994 C 46.99999999999999,37.99999999999999 46.99999999999999,36.8 47.3,35.89999999999999 C 47.9,33.5 49.4,30.2 50.0,30.2" fill="#9efb05" stroke="none" stroke-width="2.0px" /></g></svg>