<?xml version="1.0" encoding="utf-8" ?>
<svg baseProfile="full" height="100px" version="1.1" width="150px" xmlns="http://www.w3.org/2000/svg" xmlns:ev="http://www.w3.org/2001/xml-events" xmlns:xlink="http://www.w3.org/1999/xlink"><defs><clipPath id="mask0"><rect height="100" width="150" x="0" y="0" /></clipPath></defs><g clip-path="url(#mask0)"><rect fill="#ffce00" height="100" stroke="none" width="150" x="0" y="0" /><line fill="none" stroke="#ffffff" stroke-width="29.57054677808063" x1="0" x2="150" y1="100" y2="0" /></g><g transform="translate(8.228156711883162, 8.228156711883162) scale(0.23543686576233674) rotate(0, 50.0, 50.0)"><path d="M 50.0,0.0 C 22.4,0.0 0.0,22.4 0.0,50.0 C 0.0,77.6 22.4,100.0 50.0,100.0 C 77.6,100.0 100.0,77.6 100.0,50.0 C 100.0,22.400000000000006 77.6,0.0 50.0,0.0 M 78.3,83.3 C 77.6,82.39999999999999 76.2,82.2 75.3,82.89999999999999 C 74.39999999999999,83.6 74.2,84.99999999999999 74.89999999999999,85.89999999999999 C 72.99999999999999,87.19999999999999 70.89999999999999,88.39999999999999 68.8,89.39999999999999 C 68.3,88.3 67.1,87.8 66.0,88.3 C 64.9,88.8 64.4,90.0 64.8,91.1 C 62.599999999999994,91.89999999999999 60.3,92.5 58.0,92.89999999999999 C 57.8,91.69999999999999 56.7,90.89999999999999 55.6,91.1 C 54.4,91.3 53.6,92.3 53.7,93.5 C 52.5,93.6 51.400000000000006,93.6 50.2,93.6 C 49.0,93.6 47.800000000000004,93.6 46.7,93.5 C 46.800000000000004,92.3 46.0,91.3 44.800000000000004,91.1 C 43.6,90.89999999999999 42.50000000000001,91.8 42.400000000000006,92.89999999999999 C 40.00000000000001,92.49999999999999 37.800000000000004,91.89999999999999 35.60000000000001,91.1 C 36.00000000000001,90.0 35.50000000000001,88.69999999999999 34.400000000000006,88.3 C 33.300000000000004,87.8 32.00000000000001,88.39999999999999 31.600000000000005,89.39999999999999 C 29.500000000000004,88.39999999999999 27.400000000000006,87.19999999999999 25.500000000000007,85.89999999999999 C 26.200000000000006,84.89999999999999 26.000000000000007,83.6 25.10000000000001,82.89999999999999 C 24.20000000000001,82.19999999999999 22.800000000000008,82.3 22.10000000000001,83.3 C 21.20000000000001,82.5 20.300000000000008,81.7 19.500000000000007,80.89999999999999 C 18.700000000000006,80.1 17.900000000000006,79.19999999999999 17.10000000000001,78.3 C 18.000000000000007,77.6 18.20000000000001,76.2 17.500000000000007,75.3 C 16.800000000000008,74.39999999999999 15.400000000000007,74.2 14.500000000000007,74.89999999999999 C 13.200000000000006,72.99999999999999 12.000000000000007,70.89999999999999 11.000000000000007,68.8 C 12.100000000000007,68.3 12.600000000000007,67.1 12.100000000000007,66.0 C 11.600000000000007,64.9 10.400000000000007,64.4 9.300000000000008,64.8 C 8.0,62.5 7.4,60.2 7.0,57.9 C 8.2,57.699999999999996 9.0,56.6 8.8,55.5 C 8.600000000000001,54.3 7.6000000000000005,53.5 6.4,53.6 C 6.300000000000001,52.4 6.300000000000001,51.300000000000004 6.300000000000001,50.1 C 6.300000000000001,48.9 6.300000000000001,47.7 6.4,46.6 C 7.6000000000000005,46.7 8.600000000000001,45.9 8.8,44.7 C 9.0,43.5 8.100000000000001,42.400000000000006 7.000000000000001,42.300000000000004 C 7.400000000000001,39.900000000000006 8.0,37.7 8.8,35.50000000000001 C 9.9,35.900000000000006 11.200000000000001,35.400000000000006 11.600000000000001,34.300000000000004 C 12.100000000000001,33.2 11.500000000000002,31.900000000000006 10.500000000000002,31.500000000000004 C 11.500000000000002,29.400000000000002 12.700000000000003,27.300000000000004 14.000000000000002,25.400000000000006 C 15.000000000000002,26.100000000000005 16.3,25.900000000000006 17.0,25.000000000000007 C 17.7,24.10000000000001 17.6,22.700000000000006 16.6,22.000000000000007 C 17.400000000000002,21.10000000000001 18.200000000000003,20.200000000000006 19.0,19.400000000000006 C 19.8,18.600000000000005 20.7,17.800000000000004 21.6,17.000000000000007 C 22.3,17.900000000000006 23.700000000000003,18.10000000000001 24.6,17.400000000000006 C 25.5,16.700000000000006 25.700000000000003,15.300000000000006 25.0,14.400000000000006 C 26.9,13.100000000000005 29.0,11.900000000000006 31.1,10.900000000000006 C 31.6,12.000000000000005 32.800000000000004,12.500000000000005 33.9,12.000000000000005 C 35.0,11.500000000000005 35.5,10.300000000000006 35.1,9.200000000000006 C 37.5,8.0 39.8,7.4 42.1,7.0 C 42.300000000000004,8.2 43.4,9.0 44.5,8.8 C 45.7,8.600000000000001 46.5,7.6000000000000005 46.4,6.4 C 47.6,6.300000000000001 48.699999999999996,6.300000000000001 49.9,6.300000000000001 C 51.1,6.300000000000001 52.3,6.300000000000001 53.4,6.4 C 53.3,7.6000000000000005 54.1,8.600000000000001 55.3,8.8 C 56.5,9.0 57.599999999999994,8.100000000000001 57.699999999999996,7.000000000000001 C 60.099999999999994,7.400000000000001 62.3,8.0 64.5,8.8 C 64.1,9.9 64.6,11.200000000000001 65.7,11.600000000000001 C 66.8,12.100000000000001 68.10000000000001,11.500000000000002 68.5,10.500000000000002 C 70.6,11.500000000000002 72.7,12.700000000000003 74.6,14.000000000000002 C 73.89999999999999,15.000000000000002 74.1,16.3 75.0,17.0 C 75.9,17.7 77.3,17.6 78.0,16.6 C 78.9,17.400000000000002 79.8,18.200000000000003 80.6,19.0 C 81.39999999999999,19.8 82.19999999999999,20.7 83.0,21.6 C 82.1,22.3 81.9,23.700000000000003 82.6,24.6 C 83.3,25.5 84.69999999999999,25.700000000000003 85.6,25.0 C 86.89999999999999,26.9 88.1,29.0 89.1,31.1 C 88.0,31.6 87.5,32.800000000000004 88.0,33.9 C 88.5,35.0 89.7,35.5 90.8,35.1 C 91.6,37.300000000000004 92.2,39.6 92.6,41.9 C 91.39999999999999,42.1 90.6,43.199999999999996 90.8,44.3 C 91.0,45.5 92.0,46.3 93.2,46.199999999999996 C 93.3,47.4 93.3,48.49999999999999 93.3,49.699999999999996 C 93.3,50.9 93.3,52.099999999999994 93.2,53.199999999999996 C 92.0,53.099999999999994 91.0,53.9 90.8,55.099999999999994 C 90.6,56.3 91.5,57.39999999999999 92.6,57.49999999999999 C 92.19999999999999,59.89999999999999 91.6,62.099999999999994 90.8,64.3 C 89.7,63.9 88.39999999999999,64.39999999999999 88.0,65.5 C 87.5,66.6 88.1,67.9 89.1,68.3 C 88.1,70.39999999999999 86.89999999999999,72.5 85.6,74.39999999999999 C 84.6,73.69999999999999 83.3,73.89999999999999 82.6,74.8 C 81.89999999999999,75.7 82.0,77.1 83.0,77.8 C 82.2,78.7 81.4,79.6 80.6,80.39999999999999 C 80.1,81.8 79.2,82.6 78.3,83.3" fill="#6699cc" stroke="none" stroke-width="2.0" /><path d="M 56.5,55.9 C 56.8,55.6 57.1,55.199999999999996 57.4,54.8 L 64.5,60.099999999999994 L 88.0,71.89999999999999 L 66.0,57.49999999999999 L 57.8,54.0 C 58.0,53.6 58.199999999999996,53.2 58.3,52.7 L 66.5,56.0 L 92.2,61.3 L 67.2,53.099999999999994 L 58.5,51.8 C 58.6,51.4 58.6,50.9 58.7,50.4 L 67.5,51.5 L 93.8,50.0 L 67.5,48.5 L 58.7,49.6 C 58.7,49.1 58.6,48.7 58.5,48.2 L 67.2,46.900000000000006 L 92.2,38.7 L 66.5,44.0 L 58.3,47.3 C 58.199999999999996,46.9 58.0,46.4 57.8,46.0 L 65.89999999999999,42.5 L 87.89999999999999,28.1 L 64.4,40.0 L 57.300000000000004,45.3 C 57.00000000000001,44.9 56.800000000000004,44.5 56.400000000000006,44.199999999999996 L 63.300000000000004,38.699999999999996 L 80.80000000000001,19.099999999999994 L 61.3,36.6 L 55.8,43.5 C 55.5,43.2 55.099999999999994,42.9 54.699999999999996,42.6 L 59.99999999999999,35.5 L 71.8,12.0 L 57.4,34.0 L 54.0,42.2 C 53.6,42.0 53.2,41.800000000000004 52.7,41.7 L 56.0,33.5 L 61.3,7.800000000000001 L 53.099999999999994,32.8 L 51.8,41.5 C 51.4,41.4 50.9,41.4 50.4,41.3 L 51.5,32.5 L 50.0,6.3 L 48.5,32.6 L 49.6,41.400000000000006 C 49.1,41.400000000000006 48.7,41.50000000000001 48.2,41.60000000000001 L 46.900000000000006,32.900000000000006 L 38.7,7.900000000000006 L 44.0,33.5 L 47.3,41.7 C 46.9,41.800000000000004 46.4,42.0 46.0,42.2 L 42.5,34.1 L 28.1,12.100000000000001 L 40.0,35.6 L 45.3,42.7 C 44.9,43.0 44.5,43.2 44.199999999999996,43.6 L 38.699999999999996,36.7 L 19.1,19.1 L 36.6,38.7 L 43.5,44.2 C 43.2,44.5 42.9,44.900000000000006 42.6,45.300000000000004 L 35.6,40.0 L 12.1,28.1 L 34.1,42.5 L 42.2,46.0 C 42.0,46.4 41.800000000000004,46.8 41.7,47.3 L 33.5,44.0 L 7.7,38.7 L 32.7,46.900000000000006 L 41.400000000000006,48.2 C 41.300000000000004,48.6 41.300000000000004,49.1 41.2,49.6 L 32.400000000000006,48.5 L 6.3,50.0 L 32.6,51.5 L 41.400000000000006,50.4 C 41.400000000000006,50.9 41.50000000000001,51.3 41.60000000000001,51.8 L 32.900000000000006,53.099999999999994 L 7.900000000000006,61.3 L 33.5,56.0 L 41.7,52.7 C 41.800000000000004,53.1 42.0,53.6 42.2,54.0 L 34.1,57.5 L 12.100000000000001,71.9 L 35.6,60.0 L 42.7,54.7 C 43.0,55.1 43.2,55.5 43.6,55.800000000000004 L 36.7,61.300000000000004 L 19.1,80.9 L 38.7,63.400000000000006 L 44.2,56.50000000000001 C 44.5,56.800000000000004 44.900000000000006,57.10000000000001 45.300000000000004,57.400000000000006 L 40.0,64.4 L 28.1,87.9 L 42.5,65.9 L 46.0,57.800000000000004 C 46.4,58.00000000000001 46.8,58.2 47.3,58.300000000000004 L 44.0,66.5 L 38.7,92.2 L 46.900000000000006,67.2 L 48.2,58.5 C 48.6,58.6 49.1,58.6 49.6,58.7 L 48.5,67.5 L 50.0,93.8 L 51.5,67.5 L 50.4,58.7 C 50.9,58.7 51.3,58.6 51.8,58.5 L 53.099999999999994,67.2 L 61.3,92.2 L 56.0,66.5 L 52.7,58.3 C 53.1,58.199999999999996 53.6,58.0 54.0,57.8 L 57.5,65.89999999999999 L 71.9,87.89999999999999 L 60.0,64.4 L 54.7,57.300000000000004 C 55.1,57.00000000000001 55.5,56.800000000000004 55.800000000000004,56.400000000000006 L 61.300000000000004,63.300000000000004 L 80.9,80.80000000000001 L 63.4,61.3 L 56.5,55.9" fill="#6699cc" stroke="none" stroke-width="2.0" /></g></svg>