<?xml version="1.0" encoding="utf-8" ?>
<svg baseProfile="full" height="100px" version="1.1" width="150px" xmlns="http://www.w3.org/2000/svg" xmlns:ev="http://www.w3.org/2001/xml-events" xmlns:xlink="http://www.w3.org/1999/xlink"><defs><clipPath id="mask0"><rect height="100" width="150" x="0" y="0" /></clipPath></defs><g clip-path="url(#mask0)"><rect fill="#000000" height="100" stroke="none" width="150" x="0" y="0" /></g><g transform="translate(54.53932086479277, 29.539320864792774) scale(0.40921358270414454) rotate(0, 50.0, 50.0)"><path d="M 22.7,98.8 L 24.4,99.8 L 69.0,22.3 C 71.6,21.6 73.0,19.1 74.5,16.6 C 75.5,14.900000000000002 79.3,8.3 80.9,-0.29999999999999716 C 74.30000000000001,5.400000000000003 70.4,12.100000000000003 69.5,13.700000000000003 C 68.1,16.200000000000003 66.6,18.700000000000003 67.3,21.300000000000004 L 22.7,98.8" fill="#ffffff" stroke="none" stroke-width="2.0" /><path d="M 22.7,98.8 L 24.4,99.8 L 69.0,22.3 C 71.6,21.6 73.0,19.1 74.5,16.6 C 75.5,14.900000000000002 79.3,8.3 80.9,-0.29999999999999716 C 74.30000000000001,5.400000000000003 70.4,12.100000000000003 69.5,13.700000000000003 C 68.1,16.200000000000003 66.6,18.700000000000003 67.3,21.300000000000004 L 22.7,98.8" fill="#ffffff" stroke="none" stroke-width="2.0" /><path d="M 77.3,98.8 L 75.6,99.8 L 31.0,22.3 C 28.4,21.6 27.0,19.1 25.5,16.6 C 24.5,14.900000000000002 20.7,8.3 19.1,-0.29999999999999716 C 25.700000000000003,5.400000000000003 29.6,12.100000000000003 30.5,13.700000000000003 C 31.9,16.200000000000003 33.4,18.700000000000003 32.7,21.300000000000004 L 77.3,98.8" fill="#ffffff" stroke="none" stroke-width="2.0" /><path d="M 77.3,98.8 L 75.6,99.8 L 31.0,22.3 C 28.4,21.6 27.0,19.1 25.5,16.6 C 24.5,14.900000000000002 20.7,8.3 19.1,-0.29999999999999716 C 25.700000000000003,5.400000000000003 29.6,12.100000000000003 30.5,13.700000000000003 C 31.9,16.200000000000003 33.4,18.700000000000003 32.7,21.300000000000004 L 77.3,98.8" fill="#ffffff" stroke="none" stroke-width="2.0" /><path d="M 68.2,30.4 L 68.2,76.3 C 71.10000000000001,68.6 73.0,61.0 73.0,53.3 C 73.0,45.599999999999994 71.1,38.0 68.2,30.4" fill="#ffffff" stroke="none" stroke-width="2.0" /><path d="M 27.0,53.3 C 27.0,61.0 28.9,68.6 31.8,76.3 L 31.8,30.4 C 28.9,38.0 27.0,45.7 27.0,53.3" fill="#ffffff" stroke="none" stroke-width="2.0" /><path d="M 68.2,30.4 C 65.3,22.7 55.800000000000004,7.399999999999999 50.0,7.399999999999999 C 44.199999999999996,7.399999999999999 34.7,22.7 31.8,30.4 C 34.7,38.1 36.6,45.7 36.6,53.4 C 36.6,61.099999999999994 34.7,68.7 31.8,76.4 C 34.7,84.10000000000001 44.2,99.4 50.0,99.4 C 55.8,99.4 65.3,84.10000000000001 68.2,76.4 C 65.3,68.7 63.400000000000006,61.10000000000001 63.400000000000006,53.400000000000006 C 63.400000000000006,45.7 65.3,38.0 68.2,30.4 M 49.0,7.5 L 49.0,47.7 C 49.0,47.7 45.2,40.0 45.2,27.6 C 45.2,15.200000000000003 49.0,7.5 49.0,7.5 M 49.0,99.1 C 49.0,99.1 45.2,91.39999999999999 45.2,79.0 C 45.2,66.60000000000001 49.0,58.9 49.0,58.9 L 49.0,99.1 M 46.2,53.3 C 46.2,50.099999999999994 47.900000000000006,47.599999999999994 50.0,47.599999999999994 C 52.099999999999994,47.599999999999994 53.8,50.199999999999996 53.8,53.3 C 53.8,56.4 52.099999999999994,59.0 50.0,59.0 C 47.900000000000006,59.0 46.2,56.5 46.2,53.3 M 51.0,99.1 L 51.0,58.9 C 51.0,58.9 54.8,66.6 54.8,79.0 C 54.8,91.4 51.0,99.1 51.0,99.1 M 51.0,47.7 L 51.0,7.5 C 51.0,7.5 54.8,15.2 54.8,27.6 C 54.8,40.0 51.0,47.7 51.0,47.7" fill="#ffffff" stroke="none" stroke-width="2.0" /></g></svg>