<?xml version="1.0" encoding="utf-8" ?>
<svg baseProfile="full" height="100px" version="1.1" width="150px" xmlns="http://www.w3.org/2000/svg" xmlns:ev="http://www.w3.org/2001/xml-events" xmlns:xlink="http://www.w3.org/1999/xlink"><defs><clipPath id="mask0"><rect height="100" width="150" x="0" y="0" /></clipPath></defs><g clip-path="url(#mask0)"><rect fill="#fec50c" height="100" stroke="none" width="150" x="0" y="0" /><line fill="none" stroke="#1b54a1" stroke-width="6.471937354255709" x1="0" x2="150" y1="11.595623407973497" y2="11.595623407973497" /><line fill="none" stroke="#1b54a1" stroke-width="6.471937354255709" x1="0" x2="150" y1="88.40437659202651" y2="88.40437659202651" /></g><g transform="translate(20.0, 40.0) scale(0.2) rotate(0, 50.0, 50.0)"><path d="M 92.3,38.6 L 92.3,64.4 C 92.3,67.80000000000001 89.5,70.60000000000001 86.1,70.60000000000001 C 82.69999999999999,70.60000000000001 79.89999999999999,67.80000000000001 79.89999999999999,64.4 L 79.89999999999999,38.6 C 79.89999999999999,35.2 82.69999999999999,32.4 86.1,32.4 C 89.5,32.5 92.3,35.2 92.3,38.6 M 13.9,32.5 C 10.5,32.5 7.7,35.3 7.7,38.7 L 7.7,64.5 C 7.7,67.9 10.5,70.7 13.9,70.7 C 17.3,70.7 20.1,67.9 20.1,64.5 L 20.1,38.6 C 20.1,35.2 17.3,32.5 13.9,32.5 M 77.6,31.3 L 22.4,31.3 C 22.4,21.8 28.099999999999998,13.5 36.5,9.100000000000001 L 32.1,1.200000000000001 C 31.900000000000002,0.800000000000001 32.0,0.20000000000000107 32.4,1.1102230246251565e-15 C 32.8,-0.1999999999999989 33.4,-0.0999999999999989 33.6,0.3000000000000011 L 38.0,8.3 C 41.6,6.700000000000001 45.7,5.800000000000001 49.9,5.800000000000001 C 54.199999999999996,5.800000000000001 58.2,6.700000000000001 61.8,8.3 L 66.2,0.3000000000000007 C 66.5,0.2 66.8,0.0 67.1,0.0 C 67.19999999999999,0.0 67.39999999999999,0.0 67.5,0.1 C 67.9,0.30000000000000004 68.1,0.9 67.8,1.3 L 63.4,9.200000000000001 C 71.9,13.5 77.6,21.8 77.6,31.3 M 39.6,18.9 C 39.6,17.599999999999998 38.6,16.599999999999998 37.300000000000004,16.599999999999998 C 36.00000000000001,16.599999999999998 35.00000000000001,17.599999999999998 35.00000000000001,18.9 C 35.00000000000001,20.2 36.00000000000001,21.2 37.300000000000004,21.2 C 38.6,21.2 39.6,20.2 39.6,18.9 M 65.0,18.9 C 65.0,17.599999999999998 64.0,16.599999999999998 62.7,16.599999999999998 C 61.400000000000006,16.599999999999998 60.400000000000006,17.599999999999998 60.400000000000006,18.9 C 60.400000000000006,20.2 61.400000000000006,21.2 62.7,21.2 C 64.0,21.2 65.0,20.2 65.0,18.9 M 22.4,73.5 C 22.4,77.2 25.4,80.2 29.099999999999998,80.2 L 33.5,80.2 L 33.5,93.8 C 33.5,97.2 36.3,100.0 39.7,100.0 C 43.1,100.0 45.900000000000006,97.2 45.900000000000006,93.8 L 45.900000000000006,80.2 L 54.10000000000001,80.2 L 54.10000000000001,93.8 C 54.10000000000001,97.2 56.900000000000006,100.0 60.30000000000001,100.0 C 63.70000000000001,100.0 66.50000000000001,97.2 66.50000000000001,93.8 L 66.50000000000001,80.2 L 70.90000000000002,80.2 C 74.60000000000002,80.2 77.60000000000002,77.2 77.60000000000002,73.5 L 77.60000000000002,33.5 L 22.4,33.5 L 22.4,73.5" fill="#000000" stroke="none" stroke-width="2.0px" /></g><g transform="translate(50.0, 40.0) scale(0.2) rotate(0, 50.0, 50.0)"><path d="M 92.3,38.6 L 92.3,64.4 C 92.3,67.80000000000001 89.5,70.60000000000001 86.1,70.60000000000001 C 82.69999999999999,70.60000000000001 79.89999999999999,67.80000000000001 79.89999999999999,64.4 L 79.89999999999999,38.6 C 79.89999999999999,35.2 82.69999999999999,32.4 86.1,32.4 C 89.5,32.5 92.3,35.2 92.3,38.6 M 13.9,32.5 C 10.5,32.5 7.7,35.3 7.7,38.7 L 7.7,64.5 C 7.7,67.9 10.5,70.7 13.9,70.7 C 17.3,70.7 20.1,67.9 20.1,64.5 L 20.1,38.6 C 20.1,35.2 17.3,32.5 13.9,32.5 M 77.6,31.3 L 22.4,31.3 C 22.4,21.8 28.099999999999998,13.5 36.5,9.100000000000001 L 32.1,1.200000000000001 C 31.900000000000002,0.800000000000001 32.0,0.20000000000000107 32.4,1.1102230246251565e-15 C 32.8,-0.1999999999999989 33.4,-0.0999999999999989 33.6,0.3000000000000011 L 38.0,8.3 C 41.6,6.700000000000001 45.7,5.800000000000001 49.9,5.800000000000001 C 54.199999999999996,5.800000000000001 58.2,6.700000000000001 61.8,8.3 L 66.2,0.3000000000000007 C 66.5,0.2 66.8,0.0 67.1,0.0 C 67.19999999999999,0.0 67.39999999999999,0.0 67.5,0.1 C 67.9,0.30000000000000004 68.1,0.9 67.8,1.3 L 63.4,9.200000000000001 C 71.9,13.5 77.6,21.8 77.6,31.3 M 39.6,18.9 C 39.6,17.599999999999998 38.6,16.599999999999998 37.300000000000004,16.599999999999998 C 36.00000000000001,16.599999999999998 35.00000000000001,17.599999999999998 35.00000000000001,18.9 C 35.00000000000001,20.2 36.00000000000001,21.2 37.300000000000004,21.2 C 38.6,21.2 39.6,20.2 39.6,18.9 M 65.0,18.9 C 65.0,17.599999999999998 64.0,16.599999999999998 62.7,16.599999999999998 C 61.400000000000006,16.599999999999998 60.400000000000006,17.599999999999998 60.400000000000006,18.9 C 60.400000000000006,20.2 61.400000000000006,21.2 62.7,21.2 C 64.0,21.2 65.0,20.2 65.0,18.9 M 22.4,73.5 C 22.4,77.2 25.4,80.2 29.099999999999998,80.2 L 33.5,80.2 L 33.5,93.8 C 33.5,97.2 36.3,100.0 39.7,100.0 C 43.1,100.0 45.900000000000006,97.2 45.900000000000006,93.8 L 45.900000000000006,80.2 L 54.10000000000001,80.2 L 54.10000000000001,93.8 C 54.10000000000001,97.2 56.900000000000006,100.0 60.30000000000001,100.0 C 63.70000000000001,100.0 66.50000000000001,97.2 66.50000000000001,93.8 L 66.50000000000001,80.2 L 70.90000000000002,80.2 C 74.60000000000002,80.2 77.60000000000002,77.2 77.60000000000002,73.5 L 77.60000000000002,33.5 L 22.4,33.5 L 22.4,73.5" fill="#000000" stroke="none" stroke-width="2.0px" /></g><g transform="translate(80.0, 40.0) scale(0.2) rotate(0, 50.0, 50.0)"><path d="M 92.3,38.6 L 92.3,64.4 C 92.3,67.80000000000001 89.5,70.60000000000001 86.1,70.60000000000001 C 82.69999999999999,70.60000000000001 79.89999999999999,67.80000000000001 79.89999999999999,64.4 L 79.89999999999999,38.6 C 79.89999999999999,35.2 82.69999999999999,32.4 86.1,32.4 C 89.5,32.5 92.3,35.2 92.3,38.6 M 13.9,32.5 C 10.5,32.5 7.7,35.3 7.7,38.7 L 7.7,64.5 C 7.7,67.9 10.5,70.7 13.9,70.7 C 17.3,70.7 20.1,67.9 20.1,64.5 L 20.1,38.6 C 20.1,35.2 17.3,32.5 13.9,32.5 M 77.6,31.3 L 22.4,31.3 C 22.4,21.8 28.099999999999998,13.5 36.5,9.100000000000001 L 32.1,1.200000000000001 C 31.900000000000002,0.800000000000001 32.0,0.20000000000000107 32.4,1.1102230246251565e-15 C 32.8,-0.1999999999999989 33.4,-0.0999999999999989 33.6,0.3000000000000011 L 38.0,8.3 C 41.6,6.700000000000001 45.7,5.800000000000001 49.9,5.800000000000001 C 54.199999999999996,5.800000000000001 58.2,6.700000000000001 61.8,8.3 L 66.2,0.3000000000000007 C 66.5,0.2 66.8,0.0 67.1,0.0 C 67.19999999999999,0.0 67.39999999999999,0.0 67.5,0.1 C 67.9,0.30000000000000004 68.1,0.9 67.8,1.3 L 63.4,9.200000000000001 C 71.9,13.5 77.6,21.8 77.6,31.3 M 39.6,18.9 C 39.6,17.599999999999998 38.6,16.599999999999998 37.300000000000004,16.599999999999998 C 36.00000000000001,16.599999999999998 35.00000000000001,17.599999999999998 35.00000000000001,18.9 C 35.00000000000001,20.2 36.00000000000001,21.2 37.300000000000004,21.2 C 38.6,21.2 39.6,20.2 39.6,18.9 M 65.0,18.9 C 65.0,17.599999999999998 64.0,16.599999999999998 62.7,16.599999999999998 C 61.400000000000006,16.599999999999998 60.400000000000006,17.599999999999998 60.400000000000006,18.9 C 60.400000000000006,20.2 61.400000000000006,21.2 62.7,21.2 C 64.0,21.2 65.0,20.2 65.0,18.9 M 22.4,73.5 C 22.4,77.2 25.4,80.2 29.099999999999998,80.2 L 33.5,80.2 L 33.5,93.8 C 33.5,97.2 36.3,100.0 39.7,100.0 C 43.1,100.0 45.900000000000006,97.2 45.900000000000006,93.8 L 45.900000000000006,80.2 L 54.10000000000001,80.2 L 54.10000000000001,93.8 C 54.10000000000001,97.2 56.900000000000006,100.0 60.30000000000001,100.0 C 63.70000000000001,100.0 66.50000000000001,97.2 66.50000000000001,93.8 L 66.50000000000001,80.2 L 70.90000000000002,80.2 C 74.60000000000002,80.2 77.60000000000002,77.2 77.60000000000002,73.5 L 77.60000000000002,33.5 L 22.4,33.5 L 22.4,73.5" fill="#000000" stroke="none" stroke-width="2.0px" /></g><g transform="translate(110.0, 40.0) scale(0.2) rotate(0, 50.0, 50.0)"><path d="M 92.3,38.6 L 92.3,64.4 C 92.3,67.80000000000001 89.5,70.60000000000001 86.1,70.60000000000001 C 82.69999999999999,70.60000000000001 79.89999999999999,67.80000000000001 79.89999999999999,64.4 L 79.89999999999999,38.6 C 79.89999999999999,35.2 82.69999999999999,32.4 86.1,32.4 C 89.5,32.5 92.3,35.2 92.3,38.6 M 13.9,32.5 C 10.5,32.5 7.7,35.3 7.7,38.7 L 7.7,64.5 C 7.7,67.9 10.5,70.7 13.9,70.7 C 17.3,70.7 20.1,67.9 20.1,64.5 L 20.1,38.6 C 20.1,35.2 17.3,32.5 13.9,32.5 M 77.6,31.3 L 22.4,31.3 C 22.4,21.8 28.099999999999998,13.5 36.5,9.100000000000001 L 32.1,1.200000000000001 C 31.900000000000002,0.800000000000001 32.0,0.20000000000000107 32.4,1.1102230246251565e-15 C 32.8,-0.1999999999999989 33.4,-0.0999999999999989 33.6,0.3000000000000011 L 38.0,8.3 C 41.6,6.700000000000001 45.7,5.800000000000001 49.9,5.800000000000001 C 54.199999999999996,5.800000000000001 58.2,6.700000000000001 61.8,8.3 L 66.2,0.3000000000000007 C 66.5,0.2 66.8,0.0 67.1,0.0 C 67.19999999999999,0.0 67.39999999999999,0.0 67.5,0.1 C 67.9,0.30000000000000004 68.1,0.9 67.8,1.3 L 63.4,9.200000000000001 C 71.9,13.5 77.6,21.8 77.6,31.3 M 39.6,18.9 C 39.6,17.599999999999998 38.6,16.599999999999998 37.300000000000004,16.599999999999998 C 36.00000000000001,16.599999999999998 35.00000000000001,17.599999999999998 35.00000000000001,18.9 C 35.00000000000001,20.2 36.00000000000001,21.2 37.300000000000004,21.2 C 38.6,21.2 39.6,20.2 39.6,18.9 M 65.0,18.9 C 65.0,17.599999999999998 64.0,16.599999999999998 62.7,16.599999999999998 C 61.400000000000006,16.599999999999998 60.400000000000006,17.599999999999998 60.400000000000006,18.9 C 60.400000000000006,20.2 61.400000000000006,21.2 62.7,21.2 C 64.0,21.2 65.0,20.2 65.0,18.9 M 22.4,73.5 C 22.4,77.2 25.4,80.2 29.099999999999998,80.2 L 33.5,80.2 L 33.5,93.8 C 33.5,97.2 36.3,100.0 39.7,100.0 C 43.1,100.0 45.900000000000006,97.2 45.900000000000006,93.8 L 45.900000000000006,80.2 L 54.10000000000001,80.2 L 54.10000000000001,93.8 C 54.10000000000001,97.2 56.900000000000006,100.0 60.30000000000001,100.0 C 63.70000000000001,100.0 66.50000000000001,97.2 66.50000000000001,93.8 L 66.50000000000001,80.2 L 70.90000000000002,80.2 C 74.60000000000002,80.2 77.60000000000002,77.2 77.60000000000002,73.5 L 77.60000000000002,33.5 L 22.4,33.5 L 22.4,73.5" fill="#000000" stroke="none" stroke-width="2.0px" /></g></svg>