<?xml version="1.0" encoding="utf-8" ?>
<svg baseProfile="full" height="100px" version="1.1" width="150px" xmlns="http://www.w3.org/2000/svg" xmlns:ev="http://www.w3.org/2001/xml-events" xmlns:xlink="http://www.w3.org/1999/xlink"><defs><clipPath id="mask0"><rect height="100" width="150" x="0" y="0" /></clipPath></defs><g clip-path="url(#mask0)"><rect fill="#760188" height="100" stroke="none" width="150" x="0" y="0" /></g><g transform="translate(-8.970467966072244, -8.970467966072244) scale(0.17940935932144486) rotate(0, 50.0, 50.0)"><path d="M 50.0,0.0 L 55.9,18.8 L 75.3,18.8 L 59.7,30.1 L 65.60000000000001,48.400000000000006 L 50.0,37.1 L 34.4,48.4 L 40.3,30.099999999999998 L 24.7,18.8 L 44.099999999999994,18.8 C 44.1,18.8 50.0,0.0 50.0,0.0 M 96.8,55.9 L 87.1,72.6 L 100.0,87.1 L 81.2,82.8 L 71.5,100.0 L 69.3,80.6 L 50.5,76.3 L 68.2,68.2 L 66.0,49.400000000000006 L 78.9,63.400000000000006 L 96.8,55.9 M 3.2,55.9 L 21.0,63.4 L 33.9,48.9 L 32.3,68.3 L 50.0,76.3 L 30.6,80.6 L 29.0,99.5 L 18.8,82.8 L 0.0,87.1 L 12.9,72.6 L 3.2,55.9 L 3.2,55.9" fill="#ffffff" stroke="#456202" stroke-width="2.0px" /></g><g transform="translate(6.029532033927756, 1.0295320339277563) scale(0.17940935932144486) rotate(0, 50.0, 50.0)"><path d="M 50.0,0.0 L 55.9,18.8 L 75.3,18.8 L 59.7,30.1 L 65.60000000000001,48.400000000000006 L 50.0,37.1 L 34.4,48.4 L 40.3,30.099999999999998 L 24.7,18.8 L 44.099999999999994,18.8 C 44.1,18.8 50.0,0.0 50.0,0.0 M 96.8,55.9 L 87.1,72.6 L 100.0,87.1 L 81.2,82.8 L 71.5,100.0 L 69.3,80.6 L 50.5,76.3 L 68.2,68.2 L 66.0,49.400000000000006 L 78.9,63.400000000000006 L 96.8,55.9 M 3.2,55.9 L 21.0,63.4 L 33.9,48.9 L 32.3,68.3 L 50.0,76.3 L 30.6,80.6 L 29.0,99.5 L 18.8,82.8 L 0.0,87.1 L 12.9,72.6 L 3.2,55.9 L 3.2,55.9" fill="#ffffff" stroke="#456202" stroke-width="2.0px" /></g><g transform="translate(21.029532033927758, 11.029532033927756) scale(0.17940935932144486) rotate(0, 50.0, 50.0)"><path d="M 50.0,0.0 L 55.9,18.8 L 75.3,18.8 L 59.7,30.1 L 65.60000000000001,48.400000000000006 L 50.0,37.1 L 34.4,48.4 L 40.3,30.099999999999998 L 24.7,18.8 L 44.099999999999994,18.8 C 44.1,18.8 50.0,0.0 50.0,0.0 M 96.8,55.9 L 87.1,72.6 L 100.0,87.1 L 81.2,82.8 L 71.5,100.0 L 69.3,80.6 L 50.5,76.3 L 68.2,68.2 L 66.0,49.400000000000006 L 78.9,63.400000000000006 L 96.8,55.9 M 3.2,55.9 L 21.0,63.4 L 33.9,48.9 L 32.3,68.3 L 50.0,76.3 L 30.6,80.6 L 29.0,99.5 L 18.8,82.8 L 0.0,87.1 L 12.9,72.6 L 3.2,55.9 L 3.2,55.9" fill="#ffffff" stroke="#456202" stroke-width="2.0px" /></g><g transform="translate(36.02953203392776, 21.029532033927758) scale(0.17940935932144486) rotate(0, 50.0, 50.0)"><path d="M 50.0,0.0 L 55.9,18.8 L 75.3,18.8 L 59.7,30.1 L 65.60000000000001,48.400000000000006 L 50.0,37.1 L 34.4,48.4 L 40.3,30.099999999999998 L 24.7,18.8 L 44.099999999999994,18.8 C 44.1,18.8 50.0,0.0 50.0,0.0 M 96.8,55.9 L 87.1,72.6 L 100.0,87.1 L 81.2,82.8 L 71.5,100.0 L 69.3,80.6 L 50.5,76.3 L 68.2,68.2 L 66.0,49.400000000000006 L 78.9,63.400000000000006 L 96.8,55.9 M 3.2,55.9 L 21.0,63.4 L 33.9,48.9 L 32.3,68.3 L 50.0,76.3 L 30.6,80.6 L 29.0,99.5 L 18.8,82.8 L 0.0,87.1 L 12.9,72.6 L 3.2,55.9 L 3.2,55.9" fill="#ffffff" stroke="#456202" stroke-width="2.0px" /></g><g transform="translate(51.02953203392776, 31.029532033927758) scale(0.17940935932144486) rotate(0, 50.0, 50.0)"><path d="M 50.0,0.0 L 55.9,18.8 L 75.3,18.8 L 59.7,30.1 L 65.60000000000001,48.400000000000006 L 50.0,37.1 L 34.4,48.4 L 40.3,30.099999999999998 L 24.7,18.8 L 44.099999999999994,18.8 C 44.1,18.8 50.0,0.0 50.0,0.0 M 96.8,55.9 L 87.1,72.6 L 100.0,87.1 L 81.2,82.8 L 71.5,100.0 L 69.3,80.6 L 50.5,76.3 L 68.2,68.2 L 66.0,49.400000000000006 L 78.9,63.400000000000006 L 96.8,55.9 M 3.2,55.9 L 21.0,63.4 L 33.9,48.9 L 32.3,68.3 L 50.0,76.3 L 30.6,80.6 L 29.0,99.5 L 18.8,82.8 L 0.0,87.1 L 12.9,72.6 L 3.2,55.9 L 3.2,55.9" fill="#ffffff" stroke="#456202" stroke-width="2.0px" /></g><g transform="translate(66.02953203392775, 41.02953203392776) scale(0.17940935932144486) rotate(0, 50.0, 50.0)"><path d="M 50.0,0.0 L 55.9,18.8 L 75.3,18.8 L 59.7,30.1 L 65.60000000000001,48.400000000000006 L 50.0,37.1 L 34.4,48.4 L 40.3,30.099999999999998 L 24.7,18.8 L 44.099999999999994,18.8 C 44.1,18.8 50.0,0.0 50.0,0.0 M 96.8,55.9 L 87.1,72.6 L 100.0,87.1 L 81.2,82.8 L 71.5,100.0 L 69.3,80.6 L 50.5,76.3 L 68.2,68.2 L 66.0,49.400000000000006 L 78.9,63.400000000000006 L 96.8,55.9 M 3.2,55.9 L 21.0,63.4 L 33.9,48.9 L 32.3,68.3 L 50.0,76.3 L 30.6,80.6 L 29.0,99.5 L 18.8,82.8 L 0.0,87.1 L 12.9,72.6 L 3.2,55.9 L 3.2,55.9" fill="#ffffff" stroke="#456202" stroke-width="2.0px" /></g><g transform="translate(81.02953203392775, 51.02953203392776) scale(0.17940935932144486) rotate(0, 50.0, 50.0)"><path d="M 50.0,0.0 L 55.9,18.8 L 75.3,18.8 L 59.7,30.1 L 65.60000000000001,48.400000000000006 L 50.0,37.1 L 34.4,48.4 L 40.3,30.099999999999998 L 24.7,18.8 L 44.099999999999994,18.8 C 44.1,18.8 50.0,0.0 50.0,0.0 M 96.8,55.9 L 87.1,72.6 L 100.0,87.1 L 81.2,82.8 L 71.5,100.0 L 69.3,80.6 L 50.5,76.3 L 68.2,68.2 L 66.0,49.400000000000006 L 78.9,63.400000000000006 L 96.8,55.9 M 3.2,55.9 L 21.0,63.4 L 33.9,48.9 L 32.3,68.3 L 50.0,76.3 L 30.6,80.6 L 29.0,99.5 L 18.8,82.8 L 0.0,87.1 L 12.9,72.6 L 3.2,55.9 L 3.2,55.9" fill="#ffffff" stroke="#456202" stroke-width="2.0px" /></g><g transform="translate(96.02953203392775, 61.02953203392776) scale(0.17940935932144486) rotate(0, 50.0, 50.0)"><path d="M 50.0,0.0 L 55.9,18.8 L 75.3,18.8 L 59.7,30.1 L 65.60000000000001,48.400000000000006 L 50.0,37.1 L 34.4,48.4 L 40.3,30.099999999999998 L 24.7,18.8 L 44.099999999999994,18.8 C 44.1,18.8 50.0,0.0 50.0,0.0 M 96.8,55.9 L 87.1,72.6 L 100.0,87.1 L 81.2,82.8 L 71.5,100.0 L 69.3,80.6 L 50.5,76.3 L 68.2,68.2 L 66.0,49.400000000000006 L 78.9,63.400000000000006 L 96.8,55.9 M 3.2,55.9 L 21.0,63.4 L 33.9,48.9 L 32.3,68.3 L 50.0,76.3 L 30.6,80.6 L 29.0,99.5 L 18.8,82.8 L 0.0,87.1 L 12.9,72.6 L 3.2,55.9 L 3.2,55.9" fill="#ffffff" stroke="#456202" stroke-width="2.0px" /></g><g transform="translate(111.02953203392775, 71.02953203392775) scale(0.17940935932144486) rotate(0, 50.0, 50.0)"><path d="M 50.0,0.0 L 55.9,18.8 L 75.3,18.8 L 59.7,30.1 L 65.60000000000001,48.400000000000006 L 50.0,37.1 L 34.4,48.4 L 40.3,30.099999999999998 L 24.7,18.8 L 44.099999999999994,18.8 C 44.1,18.8 50.0,0.0 50.0,0.0 M 96.8,55.9 L 87.1,72.6 L 100.0,87.1 L 81.2,82.8 L 71.5,100.0 L 69.3,80.6 L 50.5,76.3 L 68.2,68.2 L 66.0,49.400000000000006 L 78.9,63.400000000000006 L 96.8,55.9 M 3.2,55.9 L 21.0,63.4 L 33.9,48.9 L 32.3,68.3 L 50.0,76.3 L 30.6,80.6 L 29.0,99.5 L 18.8,82.8 L 0.0,87.1 L 12.9,72.6 L 3.2,55.9 L 3.2,55.9" fill="#ffffff" stroke="#456202" stroke-width="2.0px" /></g><g transform="translate(126.02953203392775, 81.02953203392775) scale(0.17940935932144486) rotate(0, 50.0, 50.0)"><path d="M 50.0,0.0 L 55.9,18.8 L 75.3,18.8 L 59.7,30.1 L 65.60000000000001,48.400000000000006 L 50.0,37.1 L 34.4,48.4 L 40.3,30.099999999999998 L 24.7,18.8 L 44.099999999999994,18.8 C 44.1,18.8 50.0,0.0 50.0,0.0 M 96.8,55.9 L 87.1,72.6 L 100.0,87.1 L 81.2,82.8 L 71.5,100.0 L 69.3,80.6 L 50.5,76.3 L 68.2,68.2 L 66.0,49.400000000000006 L 78.9,63.400000000000006 L 96.8,55.9 M 3.2,55.9 L 21.0,63.4 L 33.9,48.9 L 32.3,68.3 L 50.0,76.3 L 30.6,80.6 L 29.0,99.5 L 18.8,82.8 L 0.0,87.1 L 12.9,72.6 L 3.2,55.9 L 3.2,55.9" fill="#ffffff" stroke="#456202" stroke-width="2.0px" /></g><g transform="translate(141.02953203392775, 91.02953203392775) scale(0.17940935932144486) rotate(0, 50.0, 50.0)"><path d="M 50.0,0.0 L 55.9,18.8 L 75.3,18.8 L 59.7,30.1 L 65.60000000000001,48.400000000000006 L 50.0,37.1 L 34.4,48.4 L 40.3,30.099999999999998 L 24.7,18.8 L 44.099999999999994,18.8 C 44.1,18.8 50.0,0.0 50.0,0.0 M 96.8,55.9 L 87.1,72.6 L 100.0,87.1 L 81.2,82.8 L 71.5,100.0 L 69.3,80.6 L 50.5,76.3 L 68.2,68.2 L 66.0,49.400000000000006 L 78.9,63.400000000000006 L 96.8,55.9 M 3.2,55.9 L 21.0,63.4 L 33.9,48.9 L 32.3,68.3 L 50.0,76.3 L 30.6,80.6 L 29.0,99.5 L 18.8,82.8 L 0.0,87.1 L 12.9,72.6 L 3.2,55.9 L 3.2,55.9" fill="#ffffff" stroke="#456202" stroke-width="2.0px" /></g></svg>