<?xml version="1.0" encoding="utf-8" ?>
<svg baseProfile="full" height="100px" version="1.1" width="150px" xmlns="http://www.w3.org/2000/svg" xmlns:ev="http://www.w3.org/2001/xml-events" xmlns:xlink="http://www.w3.org/1999/xlink"><defs><clipPath id="mask0"><rect height="100" width="150" x="0" y="0" /></clipPath></defs><g clip-path="url(#mask0)"><rect fill="#ff3333" height="33.333333333333336" stroke="none" width="150" x="0" y="0.0" /><rect fill="#6699ff" height="33.333333333333336" stroke="none" width="150" x="0" y="33.333333333333336" /><rect fill="#ffffff" height="33.333333333333336" stroke="none" width="150" x="0" y="66.66666666666667" /></g><g transform="translate(54.53932086479277, 29.539320864792774) scale(0.40921358270414454) rotate(0, 50.0, 50.0)"><path d="M 62.1,53.6 C 61.1,55.1 58.9,55.6 57.5,57.0 C 55.9,58.6 53.3,61.0 49.9,61.0 C 46.6,61.0 43.5,59.1 41.7,56.9 C 40.7,55.699999999999996 37.800000000000004,54.9 37.0,53.6 C 35.9,51.800000000000004 34.9,48.9 35.2,47.2 C 35.300000000000004,46.5 37.6,45.800000000000004 37.900000000000006,46.6 C 40.60000000000001,52.6 44.7,53.6 49.800000000000004,53.6 C 54.800000000000004,53.6 58.2,53.7 61.10000000000001,46.7 C 61.60000000000001,45.5 63.60000000000001,46.400000000000006 63.80000000000001,47.2 C 64.60000000000001,49.900000000000006 63.80000000000001,47.2 63.80000000000001,47.2 C 64.0,47.2 63.3,51.8 62.1,53.6 M 50.1,73.7 C 56.7,71.0 66.9,66.8 73.7,65.60000000000001 C 75.7,61.50000000000001 85.9,52.900000000000006 84.0,65.80000000000001 C 89.8,69.80000000000001 87.4,76.80000000000001 76.6,70.60000000000001 C 71.19999999999999,71.00000000000001 61.3,75.00000000000001 56.699999999999996,77.30000000000001 C 60.99999999999999,79.30000000000001 69.69999999999999,84.4 73.5,86.60000000000001 C 96.0,88.60000000000001 86.0,95.50000000000001 80.4,96.10000000000001 C 80.5,99.00000000000001 71.10000000000001,104.80000000000001 68.60000000000001,91.80000000000001 C 66.10000000000001,89.30000000000001 52.80000000000001,81.30000000000001 49.60000000000001,80.60000000000001 C 45.10000000000001,82.30000000000001 34.70000000000001,88.80000000000001 30.500000000000007,92.4 C 29.10000000000001,101.60000000000001 24.300000000000008,100.80000000000001 19.700000000000006,95.60000000000001 C 10.700000000000006,95.50000000000001 7.600000000000007,86.10000000000001 26.800000000000004,85.80000000000001 C 30.500000000000004,83.9 39.2,78.9 43.10000000000001,77.20000000000002 C 36.20000000000001,74.40000000000002 28.10000000000001,71.80000000000001 22.70000000000001,70.60000000000002 C 14.70000000000001,76.40000000000002 9.10000000000001,71.20000000000002 15.30000000000001,65.80000000000003 C 14.70000000000001,63.10000000000002 15.90000000000001,54.700000000000024 27.500000000000007,64.80000000000003 C 31.9,66.4 44.6,71.3 50.1,73.7 M 49.9,34.9 C 48.9,36.699999999999996 45.4,39.5 45.4,40.5 C 45.4,43.2 48.1,43.3 49.9,42.1 C 51.8,43.1 54.4,43.6 54.3,40.5 C 54.3,39.3 51.2,37.0 49.9,34.9 M 59.1,45.7 C 58.1,46.300000000000004 58.6,48.6 57.6,49.0 C 52.9,50.8 47.0,50.4 42.400000000000006,49.2 C 40.900000000000006,48.800000000000004 41.10000000000001,46.0 40.60000000000001,45.800000000000004 C 37.400000000000006,44.1 32.60000000000001,43.6 30.000000000000007,41.50000000000001 C 28.800000000000008,40.50000000000001 29.500000000000007,33.900000000000006 27.500000000000007,32.7 C 25.60000000000001,31.6 24.800000000000008,27.400000000000002 24.200000000000006,23.900000000000002 C 23.500000000000007,20.400000000000002 23.000000000000007,13.400000000000002 27.000000000000007,8.700000000000003 C 31.000000000000007,4.0000000000000036 38.5,0.0 50.0,0.0 C 61.5,0.0 69.2,3.7 73.1,8.6 C 76.89999999999999,13.5 75.89999999999999,20.6 75.3,23.799999999999997 C 74.6,27.4 72.89999999999999,31.099999999999998 71.39999999999999,32.5 C 69.8,33.9 70.3,40.7 69.6,41.4 C 68.2,42.9 62.1,43.8 59.1,45.7 M 32.2,29.2 C 32.1,34.1 37.0,36.4 41.1,35.0 C 45.7,33.4 46.300000000000004,25.1 41.300000000000004,23.6 C 37.2,22.5 32.3,24.1 32.2,29.2 M 62.1,35.3 C 67.4,34.599999999999994 69.0,26.199999999999996 64.4,23.9 C 60.7,22.099999999999998 54.900000000000006,23.5 54.400000000000006,28.599999999999998 C 53.8,34.7 58.2,35.8 62.1,35.3" fill="#ffce00" stroke="none" stroke-width="3.0" /></g></svg>