<?xml version="1.0" encoding="utf-8" ?>
<svg baseProfile="full" height="100px" version="1.1" width="150px" xmlns="http://www.w3.org/2000/svg" xmlns:ev="http://www.w3.org/2001/xml-events" xmlns:xlink="http://www.w3.org/1999/xlink"><defs><clipPath id="mask0"><rect height="100" width="150" x="0" y="0" /></clipPath></defs><g clip-path="url(#mask0)"><rect fill="#CB001E" height="33.333333333333336" stroke="none" width="150" x="0" y="0.0" /><rect fill="#003265" height="33.333333333333336" stroke="none" width="150" x="0" y="33.333333333333336" /><rect fill="#ffffff" height="33.333333333333336" stroke="none" width="150" x="0" y="66.66666666666667" /></g><g transform="translate(23.796791446427484, 36.296791446427484) scale(0.27406417107145037) rotate(0, 50.0, 50.0)"><path d="M 50.0,1.9 L 61.8,38.199999999999996 L 100.0,38.199999999999996 L 69.1,60.7 L 80.9,97.0 L 50.0,74.5 L 19.1,97.0 L 30.900000000000002,60.7 L 0.0,38.2 L 38.2,38.2 L 50.0,1.9" fill="#fec50c" stroke="none" stroke-width="3.0px" /></g><g transform="translate(61.296791446427484, 36.296791446427484) scale(0.27406417107145037) rotate(0, 50.0, 50.0)"><path d="M 50.0,1.9 L 61.8,38.199999999999996 L 100.0,38.199999999999996 L 69.1,60.7 L 80.9,97.0 L 50.0,74.5 L 19.1,97.0 L 30.900000000000002,60.7 L 0.0,38.2 L 38.2,38.2 L 50.0,1.9" fill="#fec50c" stroke="none" stroke-width="3.0px" /></g><g transform="translate(98.79679144642748, 36.296791446427484) scale(0.27406417107145037) rotate(0, 50.0, 50.0)"><path d="M 50.0,1.9 L 61.8,38.199999999999996 L 100.0,38.199999999999996 L 69.1,60.7 L 80.9,97.0 L 50.0,74.5 L 19.1,97.0 L 30.900000000000002,60.7 L 0.0,38.2 L 38.2,38.2 L 50.0,1.9" fill="#fec50c" stroke="none" stroke-width="3.0px" /></g></svg>