<?xml version="1.0" encoding="utf-8" ?>
<svg baseProfile="full" height="100px" version="1.1" width="150px" xmlns="http://www.w3.org/2000/svg" xmlns:ev="http://www.w3.org/2001/xml-events" xmlns:xlink="http://www.w3.org/1999/xlink"><defs><clipPath id="mask0"><rect height="100" width="150" x="0" y="0" /></clipPath></defs><g clip-path="url(#mask0)"><rect fill="#ffffff" height="100" stroke="none" width="150" x="0" y="0" /></g><g transform="translate(66.33708187868925, 7.600125248869713) scale(0.17325836242621512) rotate(0, 50.0, 50.0)"><path d="M 59.9,100.0 L 40.1,100.0 L 40.1,58.3 L 0.0,58.3 L 0.0,39.0 L 40.1,39.0 L 40.1,0.0 L 59.9,0.0 L 59.9,39.0 L 100.0,39.0 L 100.0,58.3 L 59.9,58.3 L 59.9,100.0" fill="#000000" stroke="#784f16" stroke-width="3.0px" /></g><g transform="translate(88.02277958886938, 15.493073724670026) scale(0.17325836242621512) rotate(0, 50.0, 50.0)"><path d="M 59.9,100.0 L 40.1,100.0 L 40.1,58.3 L 0.0,58.3 L 0.0,39.0 L 40.1,39.0 L 40.1,0.0 L 59.9,0.0 L 59.9,39.0 L 100.0,39.0 L 100.0,58.3 L 59.9,58.3 L 59.9,100.0" fill="#000000" stroke="#784f16" stroke-width="3.0px" /></g><g transform="translate(99.56149833077214, 35.478720839892816) scale(0.17325836242621512) rotate(0, 50.0, 50.0)"><path d="M 59.9,100.0 L 40.1,100.0 L 40.1,58.3 L 0.0,58.3 L 0.0,39.0 L 40.1,39.0 L 40.1,0.0 L 59.9,0.0 L 59.9,39.0 L 100.0,39.0 L 100.0,58.3 L 59.9,58.3 L 59.9,100.0" fill="#000000" stroke="#784f16" stroke-width="3.0px" /></g><g transform="translate(95.5541433664868, 58.20556019359901) scale(0.17325836242621512) rotate(0, 50.0, 50.0)"><path d="M 59.9,100.0 L 40.1,100.0 L 40.1,58.3 L 0.0,58.3 L 0.0,39.0 L 40.1,39.0 L 40.1,0.0 L 59.9,0.0 L 59.9,39.0 L 100.0,39.0 L 100.0,58.3 L 59.9,58.3 L 59.9,100.0" fill="#000000" stroke="#784f16" stroke-width="3.0px" /></g><g transform="translate(77.875800620592, 73.03945107150489) scale(0.17325836242621512) rotate(0, 50.0, 50.0)"><path d="M 59.9,100.0 L 40.1,100.0 L 40.1,58.3 L 0.0,58.3 L 0.0,39.0 L 40.1,39.0 L 40.1,0.0 L 59.9,0.0 L 59.9,39.0 L 100.0,39.0 L 100.0,58.3 L 59.9,58.3 L 59.9,100.0" fill="#000000" stroke="#784f16" stroke-width="3.0px" /></g><g transform="translate(54.798363136786506, 73.03945107150489) scale(0.17325836242621512) rotate(0, 50.0, 50.0)"><path d="M 59.9,100.0 L 40.1,100.0 L 40.1,58.3 L 0.0,58.3 L 0.0,39.0 L 40.1,39.0 L 40.1,0.0 L 59.9,0.0 L 59.9,39.0 L 100.0,39.0 L 100.0,58.3 L 59.9,58.3 L 59.9,100.0" fill="#000000" stroke="#784f16" stroke-width="3.0px" /></g><g transform="translate(37.120020390891696, 58.20556019359903) scale(0.17325836242621512) rotate(0, 50.0, 50.0)"><path d="M 59.9,100.0 L 40.1,100.0 L 40.1,58.3 L 0.0,58.3 L 0.0,39.0 L 40.1,39.0 L 40.1,0.0 L 59.9,0.0 L 59.9,39.0 L 100.0,39.0 L 100.0,58.3 L 59.9,58.3 L 59.9,100.0" fill="#000000" stroke="#784f16" stroke-width="3.0px" /></g><g transform="translate(33.112665426606355, 35.47872083989283) scale(0.17325836242621512) rotate(0, 50.0, 50.0)"><path d="M 59.9,100.0 L 40.1,100.0 L 40.1,58.3 L 0.0,58.3 L 0.0,39.0 L 40.1,39.0 L 40.1,0.0 L 59.9,0.0 L 59.9,39.0 L 100.0,39.0 L 100.0,58.3 L 59.9,58.3 L 59.9,100.0" fill="#000000" stroke="#784f16" stroke-width="3.0px" /></g><g transform="translate(44.6513841685091, 15.493073724670033) scale(0.17325836242621512) rotate(0, 50.0, 50.0)"><path d="M 59.9,100.0 L 40.1,100.0 L 40.1,58.3 L 0.0,58.3 L 0.0,39.0 L 40.1,39.0 L 40.1,0.0 L 59.9,0.0 L 59.9,39.0 L 100.0,39.0 L 100.0,58.3 L 59.9,58.3 L 59.9,100.0" fill="#000000" stroke="#784f16" stroke-width="3.0px" /></g></svg>