<?xml version="1.0" encoding="utf-8" ?>
<svg baseProfile="full" height="100px" version="1.1" width="150px" xmlns="http://www.w3.org/2000/svg" xmlns:ev="http://www.w3.org/2001/xml-events" xmlns:xlink="http://www.w3.org/1999/xlink"><defs><clipPath id="mask0"><rect height="100" width="150" x="0" y="0" /></clipPath></defs><g clip-path="url(#mask0)"><path d="M0,100 L150,0 L150,100 z" fill="#ffffff" stroke="none" /><path d="M0,100 L150,0 L0,0 z" fill="#afdb30" stroke="none" /></g><g transform="translate(-9.074824554481154, 90.92517544551885) scale(0.18149649108962307) rotate(0, 50.0, 50.0)"><path d="M 66.7,33.3 L 100.0,33.3 L 100.0,66.6 L 66.7,66.6 L 66.7,99.89999999999999 L 33.400000000000006,99.89999999999999 L 33.400000000000006,66.6 L 0.0,66.6 L 0.0,33.3 L 33.3,33.3 L 33.3,0.0 L 66.6,0.0 L 66.7,33.3" fill="#000000" stroke="none" stroke-width="3.0px" /></g><g transform="translate(7.591842112185514, 79.81406433440773) scale(0.18149649108962307) rotate(0, 50.0, 50.0)"><path d="M 66.7,33.3 L 100.0,33.3 L 100.0,66.6 L 66.7,66.6 L 66.7,99.89999999999999 L 33.400000000000006,99.89999999999999 L 33.400000000000006,66.6 L 0.0,66.6 L 0.0,33.3 L 33.3,33.3 L 33.3,0.0 L 66.6,0.0 L 66.7,33.3" fill="#000000" stroke="none" stroke-width="3.0px" /></g><g transform="translate(24.258508778852182, 68.70295322329662) scale(0.18149649108962307) rotate(0, 50.0, 50.0)"><path d="M 66.7,33.3 L 100.0,33.3 L 100.0,66.6 L 66.7,66.6 L 66.7,99.89999999999999 L 33.400000000000006,99.89999999999999 L 33.400000000000006,66.6 L 0.0,66.6 L 0.0,33.3 L 33.3,33.3 L 33.3,0.0 L 66.6,0.0 L 66.7,33.3" fill="#000000" stroke="none" stroke-width="3.0px" /></g><g transform="translate(40.925175445518846, 57.5918421121855) scale(0.18149649108962307) rotate(0, 50.0, 50.0)"><path d="M 66.7,33.3 L 100.0,33.3 L 100.0,66.6 L 66.7,66.6 L 66.7,99.89999999999999 L 33.400000000000006,99.89999999999999 L 33.400000000000006,66.6 L 0.0,66.6 L 0.0,33.3 L 33.3,33.3 L 33.3,0.0 L 66.6,0.0 L 66.7,33.3" fill="#000000" stroke="none" stroke-width="3.0px" /></g><g transform="translate(57.59184211218552, 46.48073100107439) scale(0.18149649108962307) rotate(0, 50.0, 50.0)"><path d="M 66.7,33.3 L 100.0,33.3 L 100.0,66.6 L 66.7,66.6 L 66.7,99.89999999999999 L 33.400000000000006,99.89999999999999 L 33.400000000000006,66.6 L 0.0,66.6 L 0.0,33.3 L 33.3,33.3 L 33.3,0.0 L 66.6,0.0 L 66.7,33.3" fill="#000000" stroke="none" stroke-width="3.0px" /></g><g transform="translate(74.25850877885219, 35.369619889963275) scale(0.18149649108962307) rotate(0, 50.0, 50.0)"><path d="M 66.7,33.3 L 100.0,33.3 L 100.0,66.6 L 66.7,66.6 L 66.7,99.89999999999999 L 33.400000000000006,99.89999999999999 L 33.400000000000006,66.6 L 0.0,66.6 L 0.0,33.3 L 33.3,33.3 L 33.3,0.0 L 66.6,0.0 L 66.7,33.3" fill="#000000" stroke="none" stroke-width="3.0px" /></g><g transform="translate(90.92517544551886, 24.25850877885216) scale(0.18149649108962307) rotate(0, 50.0, 50.0)"><path d="M 66.7,33.3 L 100.0,33.3 L 100.0,66.6 L 66.7,66.6 L 66.7,99.89999999999999 L 33.400000000000006,99.89999999999999 L 33.400000000000006,66.6 L 0.0,66.6 L 0.0,33.3 L 33.3,33.3 L 33.3,0.0 L 66.6,0.0 L 66.7,33.3" fill="#000000" stroke="none" stroke-width="3.0px" /></g><g transform="translate(107.59184211218553, 13.14739766774105) scale(0.18149649108962307) rotate(0, 50.0, 50.0)"><path d="M 66.7,33.3 L 100.0,33.3 L 100.0,66.6 L 66.7,66.6 L 66.7,99.89999999999999 L 33.400000000000006,99.89999999999999 L 33.400000000000006,66.6 L 0.0,66.6 L 0.0,33.3 L 33.3,33.3 L 33.3,0.0 L 66.6,0.0 L 66.7,33.3" fill="#000000" stroke="none" stroke-width="3.0px" /></g><g transform="translate(124.25850877885219, 2.036286556629939) scale(0.18149649108962307) rotate(0, 50.0, 50.0)"><path d="M 66.7,33.3 L 100.0,33.3 L 100.0,66.6 L 66.7,66.6 L 66.7,99.89999999999999 L 33.400000000000006,99.89999999999999 L 33.400000000000006,66.6 L 0.0,66.6 L 0.0,33.3 L 33.3,33.3 L 33.3,0.0 L 66.6,0.0 L 66.7,33.3" fill="#000000" stroke="none" stroke-width="3.0px" /></g><g transform="translate(140.92517544551885, -9.074824554481172) scale(0.18149649108962307) rotate(0, 50.0, 50.0)"><path d="M 66.7,33.3 L 100.0,33.3 L 100.0,66.6 L 66.7,66.6 L 66.7,99.89999999999999 L 33.400000000000006,99.89999999999999 L 33.400000000000006,66.6 L 0.0,66.6 L 0.0,33.3 L 33.3,33.3 L 33.3,0.0 L 66.6,0.0 L 66.7,33.3" fill="#000000" stroke="none" stroke-width="3.0px" /></g></svg>