<?xml version="1.0" encoding="utf-8" ?>
<svg baseProfile="full" height="100px" version="1.1" width="150px" xmlns="http://www.w3.org/2000/svg" xmlns:ev="http://www.w3.org/2001/xml-events" xmlns:xlink="http://www.w3.org/1999/xlink"><defs><clipPath id="mask0"><rect height="100" width="150" x="0" y="0" /></clipPath></defs><g clip-path="url(#mask0)"><path d="M0,0 L150,100 L150,0 z" fill="#cc3200" stroke="none" /><path d="M0,0 L150,100 L0,100 z" fill="#ffffff" stroke="none" /></g><path d="M 53.34063978603149 67.0 L 44.909417239636205 69.69680732848643 L 49.63463408353881 77.18216698396867 L 41.44246856671034 73.82855586478556 L 40.25069823192264 82.59998487395745 L 36.13079503576319 74.76514722100654 L 29.579680106984263 80.71839646690177 L 31.459787724600602 72.06833989252011 L 22.614667684538546 72.41781788998878 L 29.61506286657932 67.0 L 22.614667684538542 61.582182110011225 L 31.459787724600602 61.931660107479885 L 29.57968010698425 53.28160353309824 L 36.130795035763185 59.23485277899346 L 40.250698231922634 51.40001512604255 L 41.44246856671033 60.171444135214436 L 49.63463408353881 56.81783301603132 L 44.909417239636205 64.30319267151357 z" fill="#fcdc04" stroke="none" /><path d="M 128.3406397860315 33.0 L 117.51895444830156 34.630757154748935 L 125.3153467886714 42.310894453106705 L 115.60188443703784 37.269377658529784 L 117.39502689565566 48.06534369078951 L 112.5 38.2772410075617 L 107.60497310434434 48.06534369078951 L 109.39811556296216 37.269377658529784 L 99.6846532113286 42.310894453106705 L 107.48104555169844 34.630757154748935 L 96.65936021396851 33.0 L 107.48104555169844 31.369242845251065 L 99.6846532113286 23.6891055468933 L 109.39811556296216 28.730622341470216 L 107.60497310434434 17.93465630921049 L 112.5 27.722758992438305 L 117.39502689565566 17.93465630921049 L 115.60188443703784 28.730622341470216 L 125.3153467886714 23.689105546893295 L 117.51895444830156 31.369242845251065 z" fill="#cc6600" stroke="none" /></svg>