<?xml version="1.0" encoding="utf-8" ?>
<svg baseProfile="full" height="100px" version="1.1" width="150px" xmlns="http://www.w3.org/2000/svg" xmlns:ev="http://www.w3.org/2001/xml-events" xmlns:xlink="http://www.w3.org/1999/xlink"><defs><clipPath id="mask0"><rect height="100" width="150" x="0" y="0" /></clipPath></defs><g clip-path="url(#mask0)"><rect fill="#cc0000" height="100" stroke="none" width="21.428571428571427" x="0.0" y="0" /><rect fill="#e5c12f" height="100" stroke="none" width="21.428571428571427" x="21.428571428571427" y="0" /><rect fill="#cc0000" height="100" stroke="none" width="21.428571428571427" x="42.857142857142854" y="0" /><rect fill="#e5c12f" height="100" stroke="none" width="21.428571428571427" x="64.28571428571429" y="0" /><rect fill="#cc0000" height="100" stroke="none" width="21.428571428571427" x="85.71428571428571" y="0" /><rect fill="#e5c12f" height="100" stroke="none" width="21.428571428571427" x="107.14285714285714" y="0" /><rect fill="#cc0000" height="100" stroke="none" width="21.428571428571427" x="128.57142857142858" y="0" /></g><g transform="translate(43.32641098378848, 18.326410983788477) scale(0.6334717803242305) rotate(0, 50.0, 50.0)"><path d="M 66.7,33.3 L 100.0,33.3 L 100.0,66.6 L 66.7,66.6 L 66.7,99.89999999999999 L 33.400000000000006,99.89999999999999 L 33.400000000000006,66.6 L 0.0,66.6 L 0.0,33.3 L 33.3,33.3 L 33.3,0.0 L 66.6,0.0 L 66.7,33.3" fill="#000000" stroke="none" stroke-width="3.0px" /></g></svg>