<?xml version="1.0" encoding="utf-8" ?>
<svg baseProfile="full" height="100px" version="1.1" width="150px" xmlns="http://www.w3.org/2000/svg" xmlns:ev="http://www.w3.org/2001/xml-events" xmlns:xlink="http://www.w3.org/1999/xlink"><defs><clipPath id="mask0"><rect height="100" width="150" x="0" y="0" /></clipPath></defs><g clip-path="url(#mask0)"><rect fill="#f24190" height="9.090909090909092" stroke="none" width="150" x="0" y="0.0" /><rect fill="#3666ea" height="9.090909090909092" stroke="none" width="150" x="0" y="9.090909090909092" /><rect fill="#f24190" height="9.090909090909092" stroke="none" width="150" x="0" y="18.181818181818183" /><rect fill="#3666ea" height="9.090909090909092" stroke="none" width="150" x="0" y="27.272727272727273" /><rect fill="#f24190" height="9.090909090909092" stroke="none" width="150" x="0" y="36.36363636363637" /><rect fill="#3666ea" height="9.090909090909092" stroke="none" width="150" x="0" y="45.45454545454545" /><rect fill="#f24190" height="9.090909090909092" stroke="none" width="150" x="0" y="54.54545454545455" /><rect fill="#3666ea" height="9.090909090909092" stroke="none" width="150" x="0" y="63.63636363636363" /><rect fill="#f24190" height="9.090909090909092" stroke="none" width="150" x="0" y="72.72727272727273" /><rect fill="#3666ea" height="9.090909090909092" stroke="none" width="150" x="0" y="81.81818181818181" /><rect fill="#f24190" height="9.090909090909092" stroke="none" width="150" x="0" y="90.9090909090909" /></g><path d="M 107.41984987595791 50.0 L 95.00058452070311 56.498583846947426 L 101.22820950473448 69.05590963862403 L 87.36104102865954 67.0135133900494 L 85.01828456675553 80.8331094818404 L 75.0 71.02985908620396 L 64.98171543324447 80.83310948184041 L 62.63895897134046 67.0135133900494 L 48.77179049526552 69.05590963862403 L 54.999415479296886 56.498583846947426 L 42.580150124042085 50.00000000000001 L 54.999415479296886 43.50141615305258 L 48.77179049526551 30.944090361375977 L 62.63895897134045 32.9864866099506 L 64.98171543324447 19.1668905181596 L 75.0 28.970140913796047 L 85.01828456675553 19.166890518159597 L 87.36104102865954 32.986486609950596 L 101.22820950473448 30.944090361375967 L 95.00058452070311 43.501416153052574 z" fill="#ffffff" stroke="none" /></svg>