<?xml version="1.0" encoding="utf-8" ?>
<svg baseProfile="full" height="100px" version="1.1" width="150px" xmlns="http://www.w3.org/2000/svg" xmlns:ev="http://www.w3.org/2001/xml-events" xmlns:xlink="http://www.w3.org/1999/xlink"><defs><clipPath id="mask0"><rect height="100" width="150" x="0" y="0" /></clipPath></defs><g clip-path="url(#mask0)"><rect fill="#ffffff" height="100" stroke="none" width="150" x="0" y="0" /><rect fill="none" height="87.08992054553644" stroke="#ff0000" stroke-width="12.910079454463553" width="137.08992054553644" x="6.455039727231776" y="6.455039727231776" /></g><g transform="translate(56.36600677785236, 31.36600677785236) scale(0.3726798644429528) rotate(0, 50.0, 50.0)"><path d="M 50.0,0.0 C 77.6,0.0 100.1,22.5 100.0,50.1 C 99.9,77.7 77.4,100.2 49.9,100.0 C 22.3,99.9 0.0,77.6 0.0,50.0 C 0.0,22.5 22.5,0.0 50.0,0.0 M 26.4,19.0 C 33.199999999999996,25.8 40.0,32.7 46.8,39.6 C 49.4,37.0 52.0,34.4 54.599999999999994,31.8 C 56.89999999999999,29.6 58.599999999999994,29.5 60.8,31.8 C 61.9,33.0 62.8,32.9 63.9,31.8 C 66.4,29.2 69.0,26.700000000000003 71.5,24.200000000000003 C 71.9,23.800000000000004 72.4,23.400000000000002 72.9,23.000000000000004 C 74.2,22.200000000000003 76.0,22.400000000000002 76.9,23.400000000000002 C 77.9,24.500000000000004 78.10000000000001,26.1 77.2,27.400000000000002 C 76.9,27.900000000000002 76.5,28.400000000000002 76.0,28.8 C 73.5,31.3 71.0,33.8 68.5,36.3 C 67.0,37.8 67.0,38.0 68.4,39.599999999999994 C 70.60000000000001,41.89999999999999 70.60000000000001,43.39999999999999 68.4,45.599999999999994 C 65.7,48.3 63.10000000000001,50.89999999999999 60.60000000000001,53.39999999999999 C 67.4,60.19999999999999 74.10000000000001,66.89999999999999 80.80000000000001,73.6 C 91.70000000000002,60.599999999999994 93.00000000000001,37.89999999999999 77.70000000000002,22.39999999999999 C 62.1,6.7 39.2,8.3 26.4,19.0 M 19.1,26.2 C 7.200000000000001,41.2 8.000000000000002,63.900000000000006 23.0,78.2 C 38.9,93.4 61.4,91.3 73.7,80.9 C 67.0,74.2 60.2,67.5 53.4,60.7 C 50.8,63.300000000000004 48.1,66.0 45.4,68.8 C 43.1,71.1 41.5,71.1 39.199999999999996,68.8 C 37.9,67.5 37.49999999999999,67.5 36.199999999999996,68.8 C 33.099999999999994,71.89999999999999 33.099999999999994,71.89999999999999 35.9,75.39999999999999 C 37.0,76.89999999999999 37.0,78.49999999999999 35.8,79.69999999999999 C 34.5,80.99999999999999 32.699999999999996,81.19999999999999 31.4,79.89999999999999 C 27.599999999999998,76.19999999999999 23.9,72.49999999999999 20.2,68.69999999999999 C 19.0,67.39999999999999 19.2,65.6 20.5,64.29999999999998 C 21.7,63.09999999999998 23.3,63.09999999999998 24.7,64.29999999999998 C 25.3,64.79999999999998 25.7,65.29999999999998 26.3,65.79999999999998 C 27.7,67.09999999999998 28.6,67.09999999999998 30.0,65.79999999999998 C 30.4,65.39999999999998 30.8,64.99999999999999 31.2,64.59999999999998 C 33.0,62.79999999999998 33.0,62.79999999999998 31.3,60.79999999999998 C 29.3,58.59999999999998 29.3,57.19999999999998 31.400000000000002,55.19999999999998 C 34.2,52.399999999999984 37.1,49.59999999999998 39.900000000000006,46.89999999999998 C 32.8,39.9 26.0,33.1 19.1,26.2 M 58.9,41.0 C 58.8,42.8 57.3,43.7 56.1,43.0 C 55.4,42.6 54.9,42.0 54.4,41.4 C 53.699999999999996,40.699999999999996 53.1,40.699999999999996 52.4,41.4 C 51.699999999999996,42.1 51.4,42.699999999999996 52.199999999999996,43.5 C 53.4,44.6 54.49999999999999,45.8 55.699999999999996,46.9 C 56.4,47.6 56.99999999999999,47.5 57.699999999999996,46.8 C 59.4,45.099999999999994 60.99999999999999,43.5 62.699999999999996,41.8 C 63.49999999999999,41.0 63.4,40.4 62.599999999999994,39.699999999999996 C 61.599999999999994,38.699999999999996 60.599999999999994,37.8 59.599999999999994,36.8 C 58.89999999999999,36.099999999999994 58.199999999999996,35.5 57.199999999999996,36.5 C 56.199999999999996,37.5 56.49999999999999,38.2 57.3,39.0 C 58.0,39.8 58.5,40.6 58.9,41.0 M 43.8,56.8 C 43.3,57.5 43.099999999999994,58.199999999999996 42.599999999999994,58.3 C 41.89999999999999,58.5 41.099999999999994,58.5 40.39999999999999,58.199999999999996 C 39.79999999999999,57.99999999999999 39.39999999999999,57.3 38.89999999999999,56.8 C 38.19999999999999,56.099999999999994 37.599999999999994,56.099999999999994 36.89999999999999,56.8 C 36.19999999999999,57.5 35.89999999999999,58.099999999999994 36.69999999999999,58.9 C 37.89999999999999,60.0 38.999999999999986,61.199999999999996 40.09999999999999,62.3 C 40.79999999999999,63.0 41.399999999999984,63.0 42.09999999999999,62.3 C 43.79999999999999,60.599999999999994 45.499999999999986,58.9 47.19999999999999,57.199999999999996 C 47.89999999999999,56.49999999999999 47.79999999999999,55.9 47.09999999999999,55.199999999999996 C 46.09999999999999,54.199999999999996 45.09999999999999,53.199999999999996 44.09999999999999,52.199999999999996 C 43.29999999999999,51.4 42.69999999999999,50.8 41.59999999999999,51.9 C 40.499999999999986,53.0 41.09999999999999,53.699999999999996 41.899999999999984,54.5 C 42.8,55.2 43.2,56.0 43.8,56.8" fill="#6699ff" stroke="none" stroke-width="3.0" /></g></svg>