<?xml version="1.0" encoding="utf-8" ?>
<svg baseProfile="full" height="100px" version="1.1" width="150px" xmlns="http://www.w3.org/2000/svg" xmlns:ev="http://www.w3.org/2001/xml-events" xmlns:xlink="http://www.w3.org/1999/xlink"><defs><clipPath id="mask0"><rect height="100" width="150" x="0" y="0" /></clipPath></defs><g clip-path="url(#mask0)"><rect fill="#ffffff" height="100" stroke="none" width="150" x="0" y="0" /><rect fill="#003897" height="100" stroke="none" width="150" x="0" y="74.74032207639387" /></g><g transform="translate(55.55114476075143, 17.92130579894836) scale(0.3889771047849715) rotate(0, 50.0, 50.0)"><path d="M 57.7,70.8 L 57.7,70.8 C 86.0,71.6 95.0,46.6 77.5,25.3 L 75.8,27.7 C 76.89999999999999,37.6 78.6,47.5 78.7,57.7 C 75.3,61.400000000000006 70.3,60.0 69.3,55.900000000000006 C 69.3,54.00000000000001 69.1,52.2 68.7,50.50000000000001 C 72.3,48.20000000000001 75.3,45.20000000000001 74.9,42.50000000000001 C 74.10000000000001,37.20000000000001 71.10000000000001,34.00000000000001 67.80000000000001,38.00000000000001 C 64.50000000000001,42.10000000000001 67.60000000000001,43.20000000000001 73.70000000000002,42.800000000000004 C 73.30000000000001,44.50000000000001 70.90000000000002,46.6 68.10000000000002,48.300000000000004 C 67.30000000000003,45.900000000000006 66.20000000000002,43.6 64.90000000000002,41.300000000000004 L 63.50000000000002,43.7 C 64.30000000000003,45.5 65.20000000000002,47.400000000000006 65.80000000000003,49.5 C 64.30000000000003,50.2 62.700000000000024,50.7 61.300000000000026,50.9 C 61.200000000000024,44.8 61.00000000000003,38.7 60.40000000000003,32.7 C 63.300000000000026,29.500000000000004 60.10000000000003,29.6 59.00000000000003,26.200000000000003 C 58.50000000000003,28.200000000000003 57.300000000000026,30.300000000000004 58.50000000000003,31.900000000000002 C 59.10000000000003,38.2 59.60000000000003,44.6 59.70000000000003,51.1 C 56.20000000000003,51.0 54.20000000000003,48.300000000000004 57.10000000000003,40.8 C 51.80000000000003,46.9 54.20000000000003,53.599999999999994 59.80000000000003,54.0 C 59.80000000000003,55.0 59.80000000000003,56.0 59.80000000000003,57.0 C 57.30000000000003,58.8 55.000000000000036,60.2 53.10000000000003,61.1 C 52.70000000000003,59.800000000000004 52.80000000000003,57.800000000000004 53.60000000000003,55.1 C 52.00000000000003,57.6 51.40000000000003,59.9 51.60000000000003,61.7 C 50.80000000000003,62.0 50.00000000000003,62.300000000000004 49.30000000000003,62.400000000000006 C 49.60000000000003,61.50000000000001 49.80000000000003,60.60000000000001 49.900000000000034,59.60000000000001 C 50.500000000000036,53.00000000000001 45.80000000000003,52.60000000000001 40.500000000000036,52.60000000000001 C 40.60000000000004,52.20000000000001 40.70000000000004,51.80000000000001 40.900000000000034,51.50000000000001 L 40.900000000000034,51.50000000000001 C 40.70000000000003,51.900000000000006 40.500000000000036,52.300000000000004 40.30000000000003,52.60000000000001 C 39.400000000000034,52.60000000000001 38.500000000000036,52.60000000000001 37.500000000000036,52.60000000000001 C 35.900000000000034,52.60000000000001 34.10000000000004,52.60000000000001 32.60000000000004,52.00000000000001 C 33.80000000000004,50.60000000000001 35.20000000000004,49.60000000000001 36.500000000000036,48.800000000000004 C 37.70000000000004,49.7 38.900000000000034,50.50000000000001 40.400000000000034,50.7 C 44.80000000000003,49.900000000000006 46.000000000000036,47.6 47.500000000000036,45.5 C 47.500000000000036,42.5 47.400000000000034,37.5 46.70000000000004,32.5 C 49.70000000000004,29.4 46.500000000000036,29.4 45.60000000000004,25.9 C 45.000000000000036,27.9 43.70000000000004,30.0 44.900000000000034,31.5 C 45.60000000000004,36.0 45.60000000000004,40.6 45.900000000000034,45.5 C 43.30000000000003,47.4 41.10000000000004,47.6 38.900000000000034,47.5 C 41.400000000000034,46.3 43.30000000000003,45.6 43.70000000000003,43.9 C 42.50000000000003,39.8 30.500000000000032,41.0 29.20000000000003,46.199999999999996 C 31.500000000000032,45.3 33.10000000000003,46.099999999999994 34.70000000000003,47.3 C 34.70000000000003,47.3 34.70000000000003,47.3 34.70000000000003,47.3 C 33.30000000000003,49.0 32.10000000000003,50.599999999999994 31.10000000000003,52.199999999999996 L 31.60000000000003,51.4 C 30.80000000000003,50.699999999999996 30.20000000000003,49.699999999999996 29.20000000000003,48.3 C 29.10000000000003,48.9 28.20000000000003,50.0 28.300000000000033,51.199999999999996 C 28.900000000000034,51.99999999999999 29.400000000000034,52.99999999999999 30.20000000000003,53.8 L 30.20000000000003,53.8 C 30.20000000000003,53.8 30.20000000000003,53.8 30.20000000000003,53.8 C 29.20000000000003,55.699999999999996 28.500000000000032,57.5 28.10000000000003,59.099999999999994 C 28.00000000000003,59.199999999999996 27.90000000000003,59.3 27.80000000000003,59.39999999999999 C 23.20000000000003,63.19999999999999 13.900000000000029,63.39999999999999 17.80000000000003,52.99999999999999 C 12.80000000000003,59.89999999999999 16.40000000000003,64.3 21.60000000000003,64.69999999999999 C 23.20000000000003,64.79999999999998 25.70000000000003,63.79999999999999 27.80000000000003,62.19999999999999 C 27.90000000000003,67.69999999999999 32.300000000000026,70.6 37.20000000000003,70.6 C 41.20000000000003,70.6 45.50000000000003,68.69999999999999 47.900000000000034,65.1 C 48.000000000000036,65.1 48.20000000000003,65.1 48.30000000000003,65.0 C 49.500000000000036,64.8 50.900000000000034,64.4 52.20000000000003,63.9 C 54.30000000000003,67.4 60.80000000000003,66.7 67.80000000000003,56.699999999999996 C 70.10000000000002,67.39999999999999 79.20000000000003,60.699999999999996 79.80000000000003,58.4 C 80.80000000000003,51.4 80.30000000000003,40.099999999999994 78.30000000000003,31.2 C 86.20000000000003,43.6 86.50000000000003,52.599999999999994 82.30000000000003,58.599999999999994 C 77.6,65.1 67.5,68.2 57.7,70.8 M 71.6,39.7 C 71.39999999999999,40.0 69.69999999999999,40.400000000000006 68.69999999999999,39.800000000000004 C 68.29999999999998,39.6 68.89999999999999,38.400000000000006 69.6,38.400000000000006 L 69.6,38.400000000000006 C 70.6,38.4 71.9,39.0 71.6,39.7 M 39.5,44.6 C 38.8,45.0 38.1,45.5 37.6,46.0 C 36.6,45.5 36.0,45.1 35.300000000000004,44.6 C 35.9,44.0 38.5,43.6 39.5,44.6 M 48.6,59.3 C 48.5,60.5 48.1,61.5 47.6,62.4 C 47.2,62.4 46.800000000000004,62.5 46.4,62.5 C 41.5,62.5 39.5,59.6 39.8,55.5 C 42.9,55.4 48.9,55.2 48.6,59.3 M 31.0,54.1 C 31.4,53.4 31.9,52.800000000000004 32.3,52.2 L 31.0,54.1 M 30.2,53.6 L 30.4,53.2 C 30.3,53.4 30.3,53.5 30.2,53.6 L 30.2,53.6 M 30.5,55.0 C 30.7,56.3 30.2,57.1 29.3,58.0 C 29.7,56.8 30.1,55.8 30.5,55.0 M 28.6,61.3 C 30.6,59.5 32.1,57.199999999999996 32.1,54.699999999999996 C 33.7,55.199999999999996 35.9,55.599999999999994 39.0,55.49999999999999 C 37.1,61.699999999999996 40.5,64.8 45.5,65.0 C 43.4,66.8 40.5,67.9 37.8,68.0 C 33.2,68.3 28.7,65.1 28.6,61.3 M 54.6,62.7 C 57.2,61.400000000000006 59.6,59.6 61.4,57.5 C 61.4,56.2 61.4,55.0 61.4,53.7 C 62.8,53.400000000000006 64.7,52.7 66.6,51.7 C 66.89999999999999,53.0 67.19999999999999,54.400000000000006 67.3,55.900000000000006 C 62.4,61.2 57.2,63.9 54.6,62.7" fill="#000000" stroke="none" stroke-width="3.0" /><path d="M 50.6,25.2 C 50.0,27.099999999999998 48.7,29.299999999999997 49.9,30.799999999999997 C 50.4,39.199999999999996 50.9,47.599999999999994 51.0,56.0 C 51.7,55.6 52.5,55.4 52.8,54.0 C 52.699999999999996,46.1 52.599999999999994,37.2 51.8,31.7 C 54.8,28.7 51.6,28.6 50.6,25.2" fill="#000000" stroke="none" stroke-width="3.0" /><path d="M 36.1,32.8 C 36.0,32.599999999999994 35.9,31.799999999999997 35.4,31.9 C 33.4,34.9 31.4,36.5 29.2,36.5 C 24.7,36.6 26.099999999999998,32.8 23.9,32.7 C 21.4,32.7 19.099999999999998,35.7 18.099999999999998,37.400000000000006 C 16.799999999999997,39.60000000000001 15.999999999999998,41.7 14.999999999999998,41.800000000000004 C 13.599999999999998,41.900000000000006 12.299999999999997,38.900000000000006 12.099999999999998,33.900000000000006 C 10.399999999999999,39.10000000000001 14.399999999999999,50.400000000000006 18.699999999999996,39.2 C 19.799999999999997,36.7 22.099999999999994,35.5 23.399999999999995,35.5 C 26.699999999999996,36.4 25.599999999999994,39.2 29.099999999999994,39.3 C 30.899999999999995,39.3 32.3,38.099999999999994 34.3,35.099999999999994 C 34.699999999999996,34.89999999999999 35.199999999999996,35.3 35.3,35.49999999999999 C 36.199999999999996,37.099999999999994 37.4,37.39999999999999 38.5,37.29999999999999 C 40.3,37.19999999999999 42.0,35.49999999999999 42.4,33.69999999999999 C 42.4,32.29999999999999 42.1,31.399999999999988 41.4,29.99999999999999 L 40.199999999999996,32.29999999999999 C 40.9,32.49999999999999 40.8,33.39999999999999 40.99999999999999,33.99999999999999 C 38.4,36.7 36.4,33.8 36.1,32.8" fill="#000000" stroke="none" stroke-width="3.0" /><path d="M 27.4,18.9 C 27.599999999999998,18.5 27.9,18.599999999999998 28.0,19.0 C 29.7,22.6 33.2,23.8 37.0,24.0 C 40.2,24.2 44.2,22.9 48.5,20.7 C 49.6,21.8 50.6,23.2 53.0,23.4 C 53.9,23.4 54.8,23.299999999999997 55.6,23.0 C 55.6,23.3 55.6,23.6 55.7,23.8 C 55.7,23.7 56.0,22.8 56.0,22.8 L 56.0,22.8 C 57.7,22.1 59.2,20.8 59.6,19.3 C 59.9,18.1 60.0,15.8 58.6,15.700000000000001 C 57.2,15.700000000000001 56.0,18.0 55.7,20.8 L 55.7,20.7 C 53.300000000000004,21.8 51.6,20.8 50.6,19.8 C 52.300000000000004,19.5 53.7,18.900000000000002 54.1,17.7 C 53.300000000000004,16.099999999999998 51.5,15.399999999999999 48.9,15.399999999999999 C 45.4,15.499999999999998 43.6,16.799999999999997 43.4,18.5 C 45.0,18.6 46.5,18.1 47.1,19.6 C 44.2,20.900000000000002 40.9,21.3 37.2,21.3 C 31.200000000000003,21.6 30.300000000000004,19.1 28.800000000000004,17.0 C 28.700000000000003,16.9 28.200000000000003,16.6 27.900000000000006,16.7 C 26.100000000000005,16.7 24.700000000000006,22.6 22.600000000000005,22.5 C 20.500000000000004,22.3 21.000000000000004,18.7 20.400000000000006,16.7 C 19.8,19.9 20.9,31.7 27.4,18.9 M 58.4,17.4 C 58.6,18.7 58.699999999999996,19.5 56.8,20.299999999999997 C 57.0,19.1 57.2,18.1 58.4,17.4 M 50.9,18.1 C 50.1,18.3 49.699999999999996,18.5 49.3,18.8 C 48.8,18.400000000000002 48.0,18.2 47.5,17.7 C 48.7,17.2 49.9,16.9 50.9,18.1" fill="#000000" stroke="none" stroke-width="3.0" /><path d="M 65.2,24.9 L 64.9,24.799999999999997 L 65.30000000000001,26.4 L 65.60000000000001,26.4 L 65.50000000000001,24.9 C 65.80000000000001,25.0 66.20000000000002,25.0 66.50000000000001,25.0 C 69.70000000000002,24.9 73.20000000000002,22.0 78.20000000000002,20.3 C 78.50000000000001,20.1 79.60000000000002,18.900000000000002 78.50000000000001,18.5 C 76.50000000000001,18.0 74.40000000000002,17.6 72.80000000000001,17.1 C 70.80000000000001,16.5 69.4,15.8 67.4,15.600000000000001 C 65.4,15.400000000000002 63.10000000000001,16.700000000000003 63.400000000000006,19.1 C 63.50000000000001,20.3 63.900000000000006,21.200000000000003 64.30000000000001,22.3 L 64.30000000000001,22.3 C 63.40000000000001,22.0 62.90000000000001,21.3 62.500000000000014,20.5 C 62.40000000000001,15.9 62.20000000000002,11.3 61.90000000000001,6.9 C 61.600000000000016,7.4 61.40000000000001,7.9 60.70000000000001,8.6 C 61.20000000000001,11.899999999999999 61.40000000000001,17.2 61.50000000000001,21.7 C 62.6,23.5 63.8,24.5 65.2,24.9 M 66.9,17.2 C 69.60000000000001,17.9 72.10000000000001,18.7 74.5,19.599999999999998 L 67.6,22.599999999999998 C 64.89999999999999,23.299999999999997 65.3,21.2 65.0,19.9 C 64.6,18.5 64.8,16.8 66.9,17.2" fill="#000000" stroke="none" stroke-width="3.0" /><path d="M 82.6,14.4 C 89.0,21.2 92.9,30.2 92.9,40.0 C 92.9,61.8 73.7,79.5 50.00000000000001,79.5 C 26.3,79.5 7.1,61.8 7.1,40.0 C 7.1,30.2 11.0,21.2 17.4,14.3 C 6.8,22.7 0.0,35.0 0.0,48.8 C 0.0,73.9 22.4,94.3 50.0,94.3 L 50.0,94.3 C 77.6,94.3 100.0,73.9 100.0,48.8 C 100.0,35.0 93.2,22.7 82.6,14.4" fill="#000000" stroke="none" stroke-width="3.0" /><path d="M 52.8,54.0 L 52.8,54.0 L 52.8,54.0 L 52.8,54.0" fill="#000000" stroke="none" stroke-width="3.0" /><path d="M 23.6,43.1 L 25.1,41.9 L 23.5,40.7 L 22.2,42.0 L 23.6,43.1" fill="#000000" stroke="none" stroke-width="3.0" /><path d="M 27.1,42.7 L 28.6,41.5 L 27.0,40.3 L 25.6,41.6 L 27.1,42.7" fill="#000000" stroke="none" stroke-width="3.0" /><path d="M 16.0,28.4 L 17.5,29.5 L 18.9,28.3 L 17.4,27.1 L 16.0,28.4" fill="#000000" stroke="none" stroke-width="3.0" /><path d="M 16.6,32.1 L 18.1,33.3 L 19.5,32.1 L 18.0,30.9 L 16.6,32.1" fill="#000000" stroke="none" stroke-width="3.0" /><path d="M 44.0,38.6 L 42.8,37.5 L 41.6,38.4 L 42.7,39.5 L 44.0,38.6" fill="#000000" stroke="none" stroke-width="3.0" /><path d="M 26.8,14.4 L 25.8,13.6 L 24.9,14.4 L 25.9,15.2 L 26.8,14.4" fill="#000000" stroke="none" stroke-width="3.0" /><path d="M 29.1,14.1 L 28.1,13.3 L 27.2,14.2 L 28.2,14.9 L 29.1,14.1" fill="#000000" stroke="none" stroke-width="3.0" /><path d="M 74.1,22.9 L 73.2,23.5 L 74.0,24.3 L 74.9,23.7 L 74.1,22.9" fill="#000000" stroke="none" stroke-width="3.0" /></g></svg>