<?xml version="1.0" encoding="utf-8" ?>
<svg baseProfile="full" height="100px" version="1.1" width="150px" xmlns="http://www.w3.org/2000/svg" xmlns:ev="http://www.w3.org/2001/xml-events" xmlns:xlink="http://www.w3.org/1999/xlink"><defs><clipPath id="mask0"><rect height="100" width="150" x="0" y="0" /></clipPath></defs><g clip-path="url(#mask0)"><path d="M0,0 L0.0,300.0 L114.80502970952693,277.163859753386 z" fill="#ffffff" stroke="none" transform="translate(150, 100)" /><path d="M0,0 L114.80502970952693,277.163859753386 L212.13203435596427,212.13203435596427 z" fill="#fec50c" stroke="none" transform="translate(150, 100)" /><path d="M0,0 L212.13203435596427,212.13203435596427 L277.163859753386,114.80502970952695 z" fill="#ffffff" stroke="none" transform="translate(150, 100)" /><path d="M0,0 L277.163859753386,114.80502970952695 L300.0,1.8369701987210297e-14 z" fill="#fec50c" stroke="none" transform="translate(150, 100)" /><path d="M0,0 L300.0,1.8369701987210297e-14 L277.163859753386,-114.80502970952692 z" fill="#ffffff" stroke="none" transform="translate(150, 100)" /><path d="M0,0 L277.163859753386,-114.80502970952692 L212.13203435596427,-212.13203435596424 z" fill="#fec50c" stroke="none" transform="translate(150, 100)" /><path d="M0,0 L212.13203435596427,-212.13203435596424 L114.80502970952696,-277.163859753386 z" fill="#ffffff" stroke="none" transform="translate(150, 100)" /><path d="M0,0 L114.80502970952696,-277.163859753386 L3.6739403974420595e-14,-300.0 z" fill="#fec50c" stroke="none" transform="translate(150, 100)" /><path d="M0,0 L3.6739403974420595e-14,-300.0 L-114.8050297095269,-277.1638597533861 z" fill="#ffffff" stroke="none" transform="translate(150, 100)" /><path d="M0,0 L-114.8050297095269,-277.1638597533861 L-212.13203435596424,-212.1320343559643 z" fill="#fec50c" stroke="none" transform="translate(150, 100)" /><path d="M0,0 L-212.13203435596424,-212.1320343559643 L-277.16385975338596,-114.8050297095271 z" fill="#ffffff" stroke="none" transform="translate(150, 100)" /><path d="M0,0 L-277.16385975338596,-114.8050297095271 L-300.0,-5.510910596163089e-14 z" fill="#fec50c" stroke="none" transform="translate(150, 100)" /><path d="M0,0 L-300.0,-5.510910596163089e-14 L-277.16385975338596,114.805029709527 z" fill="#ffffff" stroke="none" transform="translate(150, 100)" /><path d="M0,0 L-277.16385975338596,114.805029709527 L-212.1320343559643,212.1320343559642 z" fill="#fec50c" stroke="none" transform="translate(150, 100)" /><path d="M0,0 L-212.1320343559643,212.1320343559642 L-114.80502970952712,277.16385975338596 z" fill="#ffffff" stroke="none" transform="translate(150, 100)" /><path d="M0,0 L-114.80502970952712,277.16385975338596 L-7.347880794884119e-14,300.0 z" fill="#fec50c" stroke="none" transform="translate(150, 100)" /></g><g transform="translate(100.85903431918435, 10.859034319184346) scale(0.38281931361631305) rotate(0, 50.0, 50.0)"><path d="M 28.8,84.1 C 27.0,84.8 25.0,85.1 23.200000000000003,85.19999999999999 C 23.200000000000003,84.6 23.800000000000004,55.69999999999999 21.400000000000002,43.29999999999999 C 19.000000000000004,55.69999999999999 19.6,84.6 19.6,85.19999999999999 C 17.700000000000003,85.1 15.8,84.79999999999998 14.000000000000002,84.1 C 14.000000000000002,84.1 16.6,86.1 20.400000000000002,86.5 L 20.400000000000002,97.2 C 20.1,97.5 19.900000000000002,97.8 19.900000000000002,98.3 C 19.900000000000002,99.1 20.6,99.8 21.400000000000002,99.8 C 22.200000000000003,99.8 22.900000000000002,99.1 22.900000000000002,98.3 C 22.900000000000002,97.89999999999999 22.700000000000003,97.5 22.400000000000002,97.2 L 22.400000000000002,86.5 C 26.2,86.1 28.8,84.1 28.8,84.1" fill="#c42b70" stroke="#cc3200" stroke-width="2.0" /><path d="M 48.5,8.8 L 48.5,8.8 C 48.8,8.9 49.1,8.8 49.3,8.8 C 49.699999999999996,8.8 50.099999999999994,8.9 50.5,8.9 L 50.5,4.7 C 51.4,4.7 52.4,4.7 53.3,4.7 L 53.3,2.8 L 50.5,2.8 C 50.5,1.9 50.5,0.8999999999999999 50.5,0.0 C 49.8,0.0 49.1,0.0 48.4,0.0 L 48.4,2.8 C 47.5,2.9 46.5,2.8 45.699999999999996,2.8 C 45.699999999999996,3.4 45.699999999999996,4.1 45.699999999999996,4.8 L 48.4,4.8 L 48.4,8.8 L 48.5,8.8" fill="#c42b70" stroke="#cc3200" stroke-width="2.0" /><path d="M 53.8,14.6 C 53.9,14.2 53.9,13.9 53.9,13.5 L 50.1,13.5 L 50.1,10.1 C 50.2,9.799999999999999 50.4,9.6 50.5,9.299999999999999 C 49.8,9.1 49.1,9.1 48.4,9.299999999999999 C 48.5,9.6 48.699999999999996,9.799999999999999 48.8,10.1 L 48.8,13.5 L 45.099999999999994,13.5 C 45.099999999999994,13.9 45.099999999999994,14.3 45.199999999999996,14.6 L 53.8,14.6" fill="#c42b70" stroke="#cc3200" stroke-width="2.0" /><path d="M 48.6,13.2 L 48.6,10.299999999999999 L 48.2,9.499999999999998 C 48.1,9.299999999999999 48.0,9.499999999999998 47.900000000000006,9.499999999999998 C 46.50000000000001,10.099999999999998 45.300000000000004,11.599999999999998 45.2,13.099999999999998 C 46.3,13.2 47.4,13.2 48.6,13.2" fill="#c42b70" stroke="#cc3200" stroke-width="2.0" /><path d="M 50.9,9.4 L 50.4,10.200000000000001 L 50.4,13.200000000000001 C 51.5,13.200000000000001 52.699999999999996,13.200000000000001 53.9,13.200000000000001 L 53.8,12.700000000000001 C 53.6,11.2 52.3,9.9 50.9,9.4" fill="#c42b70" stroke="#cc3200" stroke-width="2.0" /><path d="M 53.7,14.8 L 53.7,14.8 L 45.300000000000004,14.8 C 45.400000000000006,15.5 45.900000000000006,16.1 46.300000000000004,16.6 C 47.300000000000004,17.8 48.900000000000006,18.200000000000003 50.400000000000006,17.900000000000002 C 51.9,17.6 53.4,16.4 53.7,14.8" fill="#c42b70" stroke="#cc3200" stroke-width="2.0" /><path d="M 35.4,24.5 L 35.4,24.5 C 36.1,24.1 36.9,24.2 37.699999999999996,24.2 L 37.4,21.4 C 37.4,20.9 37.199999999999996,20.299999999999997 37.4,19.799999999999997 C 37.8,18.999999999999996 38.699999999999996,18.699999999999996 39.5,18.499999999999996 C 42.3,18.299999999999997 45.0,18.799999999999997 47.8,19.199999999999996 C 47.8,18.799999999999997 47.8,18.399999999999995 47.8,17.999999999999996 C 45.5,17.499999999999996 43.099999999999994,17.199999999999996 40.699999999999996,17.099999999999998 C 39.0,17.2 37.0,17.0 35.5,18.0 C 35.0,18.3 34.6,18.9 34.7,19.5 C 34.9,21.2 35.2,22.8 35.4,24.5" fill="#c42b70" stroke="#cc3200" stroke-width="2.0" /><path d="M 51.2,18.7 C 51.2,18.9 51.1,19.099999999999998 51.2,19.3 C 53.400000000000006,19.0 55.5,18.6 57.800000000000004,18.6 C 58.6,18.6 59.400000000000006,18.6 60.1,18.8 C 60.800000000000004,19.0 61.6,19.5 61.6,20.3 C 61.5,21.7 61.300000000000004,23.0 61.2,24.4 C 61.800000000000004,24.299999999999997 62.5,24.299999999999997 63.0,24.5 C 63.2,24.6 63.3,24.7 63.5,24.7 L 64.2,19.9 C 64.3,19.2 64.10000000000001,18.599999999999998 63.6,18.2 C 63.0,17.7 62.300000000000004,17.5 61.7,17.4 C 61.400000000000006,17.299999999999997 61.1,17.299999999999997 60.800000000000004,17.299999999999997 C 57.50000000000001,17.199999999999996 54.400000000000006,17.499999999999996 51.300000000000004,18.099999999999998 C 51.2,18.3 51.2,18.5 51.2,18.7" fill="#c42b70" stroke="#cc3200" stroke-width="2.0" /><path d="M 25.3,25.0 L 25.2,24.0 C 25.0,23.1 24.8,22.1 24.8,21.1 C 24.900000000000002,20.400000000000002 25.6,19.900000000000002 26.2,19.700000000000003 C 27.2,19.400000000000002 28.4,19.200000000000003 29.5,19.200000000000003 C 31.2,19.1 32.8,19.200000000000003 34.4,19.300000000000004 C 34.4,18.800000000000004 34.6,18.400000000000006 34.9,18.000000000000004 C 33.3,17.900000000000002 31.7,17.800000000000004 30.099999999999998,17.800000000000004 C 28.099999999999998,17.900000000000006 26.0,18.000000000000004 24.199999999999996,18.700000000000003 C 23.499999999999996,19.000000000000004 22.799999999999997,19.700000000000003 22.799999999999997,20.500000000000004 C 22.999999999999996,21.900000000000002 23.299999999999997,23.400000000000002 23.599999999999998,24.800000000000004 C 24.1,24.7 24.8,24.7 25.3,25.0" fill="#c42b70" stroke="#cc3200" stroke-width="2.0" /><path d="M 65.4,19.4 C 67.9,19.299999999999997 70.4,19.2 72.80000000000001,19.9 C 73.50000000000001,20.099999999999998 74.20000000000002,20.599999999999998 74.30000000000001,21.4 C 74.20000000000002,22.7 73.9,23.9 73.70000000000002,25.2 C 74.20000000000002,25.0 75.00000000000001,24.9 75.60000000000002,25.0 C 75.80000000000003,23.9 76.10000000000002,22.9 76.30000000000003,21.8 C 76.30000000000003,21.400000000000002 76.50000000000003,21.0 76.40000000000002,20.5 C 76.30000000000003,19.5 75.30000000000003,18.9 74.40000000000002,18.6 L 73.40000000000002,18.3 C 70.50000000000001,17.7 67.20000000000002,17.7 64.20000000000002,18.0 C 64.50000000000001,18.4 64.70000000000002,18.8 64.70000000000002,19.3 L 65.4,19.4" fill="#c42b70" stroke="#cc3200" stroke-width="2.0" /><path d="M 50.8,18.2 C 49.9,18.4 49.0,18.4 48.099999999999994,18.2 C 48.099999999999994,20.099999999999998 48.099999999999994,22.0 48.3,23.9 C 49.0,23.7 49.9,23.7 50.599999999999994,23.9 C 50.699999999999996,22.5 50.8,21.099999999999998 50.8,19.7 C 50.8,19.2 50.9,18.7 50.8,18.2" fill="#c42b70" stroke="#cc3200" stroke-width="2.0" /><path d="M 25.2,38.1 L 73.8,38.1 C 74.1,36.2 74.5,34.300000000000004 74.89999999999999,32.4 L 75.99999999999999,28.299999999999997 L 76.79999999999998,25.699999999999996 C 76.49999999999999,25.599999999999994 76.19999999999999,25.499999999999996 75.99999999999999,25.399999999999995 C 75.09999999999998,25.199999999999996 73.89999999999999,25.099999999999994 73.39999999999999,25.999999999999996 C 72.89999999999999,26.999999999999996 73.6,28.099999999999998 74.19999999999999,28.899999999999995 C 73.99999999999999,29.099999999999994 73.79999999999998,29.299999999999994 73.6,29.499999999999996 C 73.0,28.799999999999997 72.39999999999999,28.099999999999998 71.6,27.799999999999997 C 71.0,27.599999999999998 70.3,27.599999999999998 69.89999999999999,28.199999999999996 C 69.39999999999999,29.099999999999994 69.3,30.299999999999997 69.8,31.199999999999996 C 70.1,31.699999999999996 70.7,31.899999999999995 71.3,31.899999999999995 C 72.1,31.699999999999996 72.8,31.199999999999996 73.5,30.599999999999994 L 73.6,30.599999999999994 C 73.69999999999999,30.799999999999994 73.89999999999999,30.999999999999993 74.0,31.299999999999994 C 73.5,32.199999999999996 73.0,33.099999999999994 72.4,33.99999999999999 C 72.2,34.29999999999999 71.9,34.29999999999999 71.60000000000001,34.39999999999999 C 69.9,34.79999999999999 67.9,34.79999999999999 66.2,34.599999999999994 C 65.60000000000001,34.49999999999999 64.9,34.39999999999999 64.5,33.89999999999999 C 63.8,32.89999999999999 63.2,31.79999999999999 62.7,30.699999999999992 C 62.800000000000004,30.499999999999993 63.0,30.199999999999992 63.2,29.999999999999993 C 63.300000000000004,30.099999999999994 63.300000000000004,30.199999999999992 63.400000000000006,30.299999999999994 C 64.10000000000001,30.999999999999993 64.80000000000001,32.099999999999994 66.0,31.699999999999992 C 66.7,31.39999999999999 67.2,30.59999999999999 67.2,29.799999999999994 C 67.2,28.999999999999993 67.0,28.199999999999992 66.3,27.799999999999994 C 65.1,27.499999999999993 64.3,28.399999999999995 63.4,29.099999999999994 L 63.0,29.099999999999994 L 62.7,28.299999999999994 C 63.400000000000006,27.599999999999994 64.10000000000001,26.699999999999992 63.900000000000006,25.699999999999992 C 63.800000000000004,25.199999999999992 63.2,24.799999999999994 62.7,24.59999999999999 C 61.900000000000006,24.49999999999999 60.800000000000004,24.39999999999999 60.300000000000004,25.199999999999992 C 59.6,26.39999999999999 60.7,27.39999999999999 61.300000000000004,28.299999999999994 L 61.0,29.1 L 61.0,29.1 C 60.3,28.5 59.6,27.700000000000003 58.7,27.5 C 58.1,27.5 57.5,27.8 57.300000000000004,28.3 C 57.00000000000001,29.2 57.00000000000001,30.3 57.400000000000006,31.1 C 57.60000000000001,31.400000000000002 58.00000000000001,31.700000000000003 58.300000000000004,31.700000000000003 C 59.300000000000004,31.700000000000003 60.1,30.900000000000002 60.800000000000004,30.1 C 61.00000000000001,30.3 61.1,30.6 61.300000000000004,30.8 L 60.900000000000006,31.6 C 60.400000000000006,32.5 60.10000000000001,33.4 59.50000000000001,34.1 C 59.00000000000001,34.4 58.400000000000006,34.5 57.800000000000004,34.6 C 56.7,34.7 55.50000000000001,34.7 54.400000000000006,34.6 C 53.60000000000001,34.5 52.800000000000004,34.5 52.00000000000001,34.0 C 51.10000000000001,32.9 50.60000000000001,31.6 50.00000000000001,30.4 C 50.20000000000001,30.2 50.300000000000004,29.9 50.50000000000001,29.7 L 50.70000000000001,29.9 C 51.50000000000001,30.599999999999998 52.30000000000001,31.7 53.40000000000001,31.4 C 54.000000000000014,31.099999999999998 54.40000000000001,30.4 54.40000000000001,29.799999999999997 C 54.500000000000014,28.799999999999997 54.30000000000001,27.799999999999997 53.40000000000001,27.299999999999997 C 52.70000000000001,27.099999999999998 52.20000000000001,27.499999999999996 51.70000000000001,27.9 C 51.30000000000001,28.2 51.00000000000001,28.5 50.60000000000001,28.799999999999997 C 50.50000000000001,28.599999999999998 50.30000000000001,28.4 50.20000000000001,28.099999999999998 C 50.70000000000001,27.099999999999998 52.00000000000001,26.099999999999998 51.30000000000001,24.9 C 51.10000000000001,24.599999999999998 50.80000000000001,24.4 50.500000000000014,24.2 C 50.100000000000016,24.099999999999998 49.600000000000016,24.0 49.20000000000002,24.0 C 48.600000000000016,24.0 48.100000000000016,24.2 47.70000000000002,24.7 C 46.80000000000002,26.0 48.100000000000016,27.099999999999998 48.600000000000016,28.099999999999998 C 48.500000000000014,28.299999999999997 48.40000000000001,28.599999999999998 48.20000000000002,28.799999999999997 C 47.80000000000002,28.499999999999996 47.500000000000014,28.099999999999998 47.100000000000016,27.9 C 46.600000000000016,27.5 45.90000000000001,27.099999999999998 45.30000000000002,27.4 C 44.50000000000002,27.9 44.30000000000002,28.9 44.40000000000002,29.799999999999997 C 44.50000000000002,30.499999999999996 44.80000000000002,31.299999999999997 45.60000000000002,31.499999999999996 C 46.800000000000026,31.699999999999996 47.60000000000002,30.599999999999998 48.40000000000002,29.799999999999997 C 48.50000000000002,29.999999999999996 48.70000000000002,30.299999999999997 48.80000000000002,30.499999999999996 L 47.70000000000002,32.699999999999996 C 47.30000000000002,33.199999999999996 47.20000000000002,33.99999999999999 46.500000000000014,34.3 C 44.600000000000016,34.8 42.30000000000001,34.8 40.40000000000001,34.5 C 40.000000000000014,34.4 39.500000000000014,34.3 39.20000000000001,33.9 C 38.60000000000001,32.9 38.10000000000001,31.799999999999997 37.60000000000001,30.799999999999997 L 38.00000000000001,30.099999999999998 L 38.00000000000001,30.099999999999998 C 38.70000000000001,30.999999999999996 39.70000000000001,31.999999999999996 40.900000000000006,31.599999999999998 C 41.60000000000001,31.299999999999997 41.7,30.499999999999996 41.800000000000004,29.9 C 41.800000000000004,29.0 41.7,28.0 40.900000000000006,27.7 C 40.60000000000001,27.599999999999998 40.300000000000004,27.5 40.10000000000001,27.599999999999998 C 39.30000000000001,27.9 38.70000000000001,28.599999999999998 38.00000000000001,29.2 C 37.800000000000004,29.0 37.800000000000004,28.7 37.70000000000001,28.4 C 38.10000000000001,27.799999999999997 38.60000000000001,27.299999999999997 38.80000000000001,26.7 C 39.000000000000014,26.3 38.90000000000001,25.8 38.70000000000001,25.4 C 38.50000000000001,25.0 38.10000000000001,24.799999999999997 37.70000000000001,24.7 C 36.90000000000001,24.5 35.80000000000001,24.599999999999998 35.20000000000001,25.4 C 34.60000000000001,26.5 35.50000000000001,27.599999999999998 36.20000000000001,28.4 L 35.9,29.0 L 35.9,29.0 C 35.4,28.6 34.8,28.1 34.199999999999996,27.8 C 33.8,27.6 33.199999999999996,27.5 32.8,27.8 C 32.199999999999996,28.3 32.099999999999994,29.1 32.099999999999994,29.8 C 32.099999999999994,30.6 32.599999999999994,31.400000000000002 33.39999999999999,31.7 C 34.599999999999994,32.0 35.39999999999999,30.8 36.19999999999999,30.0 C 36.29999999999999,30.2 36.499999999999986,30.5 36.59999999999999,30.7 L 35.69999999999999,32.3 C 35.19999999999999,33.0 34.89999999999999,34.0 33.999999999999986,34.3 C 32.09999999999999,34.8 29.999999999999986,34.8 28.199999999999985,34.4 C 27.699999999999985,34.199999999999996 26.999999999999986,34.3 26.799999999999986,33.6 C 26.299999999999986,32.800000000000004 25.799999999999986,31.900000000000002 25.299999999999986,31.0 L 25.699999999999985,30.3 L 25.699999999999985,30.3 C 26.099999999999984,30.7 26.699999999999985,31.1 27.199999999999985,31.400000000000002 C 27.699999999999985,31.700000000000003 28.199999999999985,31.8 28.699999999999985,31.500000000000004 C 29.299999999999986,31.300000000000004 29.599999999999984,30.600000000000005 29.599999999999984,30.100000000000005 C 29.599999999999984,29.300000000000004 29.599999999999984,28.200000000000006 28.899999999999984,27.700000000000006 C 28.499999999999986,27.400000000000006 27.899999999999984,27.500000000000007 27.499999999999986,27.600000000000005 C 26.699999999999985,28.000000000000004 26.099999999999987,28.600000000000005 25.599999999999987,29.300000000000004 L 25.599999999999987,29.300000000000004 L 24.999999999999986,28.600000000000005 C 25.499999999999986,28.000000000000004 25.899999999999984,27.400000000000006 25.999999999999986,26.700000000000006 C 26.099999999999987,26.200000000000006 25.899999999999984,25.800000000000008 25.599999999999987,25.500000000000007 C 24.69999999999999,24.700000000000006 23.399999999999988,25.000000000000007 22.399999999999988,25.400000000000006 C 23.49999999999999,29.100000000000005 24.399999999999988,33.00000000000001 25.099999999999987,36.900000000000006 C 25.1,37.3 25.1,37.7 25.2,38.1" fill="#c42b70" stroke="#cc3200" stroke-width="2.0" /><path d="M 52.0,46.4 C 52.1,46.3 52.1,46.1 52.1,46.0 L 51.300000000000004,45.8 C 51.300000000000004,45.8 51.2,45.8 51.2,45.8 C 51.2,46.0 51.2,46.199999999999996 51.400000000000006,46.3 C 51.6,46.5 51.8,46.5 52.0,46.4" fill="#c42b70" stroke="#cc3200" stroke-width="2.0" /><path d="M 50.4,48.1 L 50.4,48.1 L 50.5,48.5 C 51.2,48.5 51.7,48.6 52.3,48.6 C 52.3,48.5 52.3,48.300000000000004 52.199999999999996,48.2 L 50.4,48.1" fill="#c42b70" stroke="#cc3200" stroke-width="2.0" /><path d="M 66.1,62.2 C 66.89999999999999,60.800000000000004 68.1,59.800000000000004 69.3,58.6 C 70.7,57.2 72.0,55.7 72.6,53.9 C 73.3,52.3 73.3,50.3 72.69999999999999,48.699999999999996 C 72.29999999999998,47.4 70.99999999999999,46.3 69.79999999999998,45.9 C 68.09999999999998,45.199999999999996 66.09999999999998,45.6 64.79999999999998,46.8 C 63.69999999999998,47.8 63.19999999999998,49.199999999999996 63.399999999999984,50.599999999999994 C 62.399999999999984,51.8 61.79999999999998,53.099999999999994 61.399999999999984,54.49999999999999 C 61.999999999999986,53.89999999999999 62.59999999999999,53.199999999999996 63.399999999999984,52.79999999999999 C 63.499999999999986,53.29999999999999 63.59999999999999,53.69999999999999 63.499999999999986,54.19999999999999 C 62.999999999999986,54.89999999999999 62.399999999999984,55.59999999999999 61.899999999999984,56.29999999999999 C 60.899999999999984,57.69999999999999 59.79999999999998,59.09999999999999 59.399999999999984,60.69999999999999 C 60.29999999999998,59.59999999999999 61.59999999999999,58.499999999999986 62.79999999999998,57.59999999999999 C 63.79999999999998,56.79999999999999 64.99999999999999,56.09999999999999 65.89999999999998,54.999999999999986 C 66.09999999999998,54.19999999999999 65.99999999999997,53.399999999999984 65.89999999999998,52.59999999999999 L 65.89999999999998,52.499999999999986 C 65.99999999999997,52.499999999999986 66.09999999999998,52.499999999999986 66.29999999999998,52.499999999999986 C 67.09999999999998,53.29999999999998 67.39999999999998,54.399999999999984 67.39999999999998,55.59999999999999 C 67.69999999999997,54.59999999999999 67.79999999999998,53.59999999999999 67.89999999999998,52.59999999999999 C 67.79999999999998,51.69999999999999 67.39999999999998,50.999999999999986 66.89999999999998,50.29999999999999 C 66.39999999999998,50.09999999999999 65.69999999999997,49.99999999999999 65.19999999999997,49.89999999999999 C 65.09999999999998,49.49999999999999 65.09999999999998,48.99999999999999 65.19999999999997,48.49999999999999 C 65.59999999999998,47.39999999999999 66.69999999999997,46.699999999999996 67.79999999999997,46.49999999999999 C 69.39999999999996,46.199999999999996 70.79999999999997,47.099999999999994 71.59999999999997,48.49999999999999 C 72.29999999999997,49.699999999999996 72.19999999999996,51.39999999999999 71.89999999999996,52.699999999999996 C 71.29999999999997,54.699999999999996 69.49999999999996,56.3 67.79999999999997,57.599999999999994 L 64.59999999999997,60.099999999999994 C 62.79999999999997,61.599999999999994 60.29999999999997,63.199999999999996 60.099999999999966,65.69999999999999 C 60.099999999999966,65.89999999999999 60.099999999999966,66.1 60.099999999999966,66.19999999999999 C 60.099999999999966,66.79999999999998 60.19999999999997,67.29999999999998 60.29999999999997,67.79999999999998 C 60.89999999999997,69.79999999999998 61.89999999999997,71.69999999999999 62.99999999999997,73.49999999999999 C 63.99999999999997,75.29999999999998 65.29999999999997,76.99999999999999 65.69999999999997,79.09999999999998 C 65.69999999999997,79.29999999999998 65.69999999999997,79.39999999999998 65.79999999999997,79.59999999999998 C 65.79999999999997,79.89999999999998 65.79999999999997,80.19999999999997 65.79999999999997,80.49999999999999 C 65.59999999999997,81.79999999999998 64.49999999999997,82.69999999999999 63.39999999999997,83.19999999999999 C 61.79999999999997,83.79999999999998 59.89999999999997,83.39999999999999 58.69999999999997,82.1 C 57.69999999999997,80.89999999999999 57.099999999999966,79.5 56.29999999999997,78.1 L 54.69999999999997,74.69999999999999 C 53.999999999999964,73.39999999999999 53.599999999999966,71.89999999999999 52.499999999999964,70.69999999999999 C 52.599999999999966,66.89999999999999 52.599999999999966,63.39999999999999 52.69999999999997,59.59999999999999 C 52.89999999999997,59.69999999999999 53.19999999999997,59.79999999999999 53.39999999999997,59.899999999999984 C 53.39999999999997,58.79999999999998 53.99999999999997,57.999999999999986 54.39999999999997,57.09999999999999 C 56.09999999999997,54.499999999999986 57.29999999999997,51.59999999999999 57.19999999999997,48.39999999999999 C 57.599999999999966,47.89999999999999 58.19999999999997,47.599999999999994 58.099999999999966,46.89999999999999 C 58.099999999999966,46.49999999999999 57.69999999999997,46.49999999999999 57.499999999999964,46.29999999999999 C 57.099999999999966,46.09999999999999 56.69999999999997,46.39999999999999 56.29999999999996,46.49999999999999 C 56.19999999999996,46.39999999999999 56.09999999999996,46.39999999999999 56.09999999999996,46.29999999999999 C 56.49999999999996,46.09999999999999 56.899999999999956,45.99999999999999 57.29999999999996,45.89999999999999 C 57.79999999999996,45.19999999999999 58.29999999999996,44.49999999999999 58.69999999999996,43.79999999999999 C 58.59999999999996,43.79999999999999 58.39999999999996,43.79999999999999 58.29999999999996,43.79999999999999 C 58.19999999999996,43.79999999999999 58.09999999999996,43.89999999999999 57.999999999999964,43.89999999999999 C 57.89999999999996,43.69999999999999 57.79999999999996,43.49999999999999 57.499999999999964,43.49999999999999 C 57.29999999999996,43.49999999999999 57.19999999999997,43.599999999999994 56.999999999999964,43.79999999999999 C 56.999999999999964,43.89999999999999 56.89999999999996,44.09999999999999 56.89999999999996,44.19999999999999 C 56.89999999999996,44.29999999999999 57.099999999999966,44.499999999999986 57.19999999999996,44.499999999999986 C 57.29999999999996,44.59999999999999 57.39999999999996,44.499999999999986 57.49999999999996,44.59999999999999 C 57.49999999999996,44.59999999999999 57.49999999999996,44.69999999999999 57.49999999999996,44.69999999999999 C 57.19999999999996,44.89999999999999 56.99999999999996,45.19999999999999 56.69999999999996,45.19999999999999 C 56.19999999999996,45.09999999999999 55.59999999999996,45.09999999999999 55.09999999999996,44.79999999999999 C 54.99999999999996,44.49999999999999 54.899999999999956,44.19999999999999 54.79999999999996,43.89999999999999 C 54.79999999999996,43.89999999999999 54.89999999999996,43.79999999999999 54.89999999999996,43.79999999999999 C 54.999999999999964,43.89999999999999 55.19999999999996,44.09999999999999 55.39999999999996,44.09999999999999 C 55.599999999999966,43.999999999999986 55.79999999999996,43.899999999999984 55.79999999999996,43.79999999999999 C 55.89999999999996,43.59999999999999 55.89999999999996,43.39999999999999 55.69999999999996,43.29999999999999 C 55.59999999999996,43.09999999999999 55.29999999999996,43.19999999999999 55.09999999999996,43.09999999999999 C 55.09999999999996,43.09999999999999 55.09999999999996,42.999999999999986 55.09999999999996,42.999999999999986 C 55.09999999999996,42.79999999999998 54.79999999999996,42.59999999999999 54.59999999999996,42.59999999999999 C 54.29999999999996,42.59999999999999 54.09999999999996,42.69999999999999 53.99999999999996,42.999999999999986 C 53.899999999999956,42.999999999999986 53.69999999999996,42.79999999999998 53.59999999999996,42.899999999999984 C 53.399999999999956,42.899999999999984 53.19999999999996,43.09999999999999 53.19999999999996,43.29999999999998 C 53.19999999999996,43.499999999999986 53.29999999999996,43.69999999999998 53.49999999999996,43.79999999999998 C 53.59999999999996,43.899999999999984 53.799999999999955,43.79999999999998 53.99999999999996,43.79999999999998 C 54.09999999999996,43.79999999999998 53.99999999999996,43.899999999999984 53.99999999999996,43.999999999999986 C 53.799999999999955,44.19999999999999 53.59999999999996,44.499999999999986 53.299999999999955,44.69999999999999 C 52.69999999999995,44.69999999999999 52.19999999999995,44.59999999999999 51.59999999999995,44.39999999999999 C 51.39999999999995,44.19999999999999 51.39999999999995,43.89999999999999 51.299999999999955,43.599999999999994 C 51.299999999999955,43.599999999999994 51.299999999999955,43.49999999999999 51.399999999999956,43.49999999999999 C 51.49999999999996,43.599999999999994 51.69999999999995,43.599999999999994 51.799999999999955,43.599999999999994 C 51.899999999999956,43.49999999999999 52.09999999999995,43.39999999999999 52.09999999999995,43.199999999999996 C 52.19999999999995,42.99999999999999 52.09999999999995,42.9 51.99999999999995,42.699999999999996 C 51.89999999999995,42.49999999999999 51.59999999999995,42.49999999999999 51.39999999999995,42.49999999999999 C 51.29999999999995,42.49999999999999 51.199999999999946,42.699999999999996 51.09999999999995,42.699999999999996 C 50.99999999999995,42.49999999999999 50.799999999999955,42.4 50.59999999999995,42.3 C 50.59999999999995,43.199999999999996 50.69999999999995,44.0 50.69999999999995,44.8 C 52.49999999999995,45.199999999999996 54.09999999999995,45.599999999999994 55.899999999999956,45.9 L 55.99999999999996,46.0 C 55.799999999999955,46.1 55.69999999999996,46.1 55.49999999999996,46.2 L 51.99999999999996,45.400000000000006 L 50.69999999999996,45.10000000000001 C 50.09999999999996,45.50000000000001 49.49999999999996,46.00000000000001 48.89999999999996,46.50000000000001 C 48.89999999999996,46.70000000000001 48.89999999999996,46.800000000000004 48.89999999999996,47.00000000000001 L 49.29999999999996,46.800000000000004 C 49.39999999999996,46.800000000000004 49.39999999999996,46.900000000000006 49.499999999999964,47.00000000000001 C 49.39999999999996,47.10000000000001 49.19999999999997,47.300000000000004 48.999999999999964,47.400000000000006 L 48.999999999999964,47.800000000000004 C 49.29999999999996,48.2 49.499999999999964,48.6 49.79999999999996,49.00000000000001 L 49.29999999999996,50.00000000000001 C 50.09999999999996,50.20000000000001 50.999999999999964,50.10000000000001 51.79999999999996,50.20000000000001 L 51.89999999999996,50.20000000000001 C 51.89999999999996,50.50000000000001 51.79999999999996,50.70000000000001 51.69999999999996,50.90000000000001 C 51.69999999999996,51.000000000000014 51.59999999999996,51.100000000000016 51.49999999999996,51.20000000000001 C 50.59999999999996,51.40000000000001 49.69999999999996,51.50000000000001 48.899999999999956,51.70000000000001 C 47.59999999999996,52.00000000000001 46.59999999999996,52.90000000000001 45.49999999999996,53.60000000000001 C 44.399999999999956,54.400000000000006 43.19999999999996,55.30000000000001 42.49999999999996,56.400000000000006 C 41.99999999999996,57.800000000000004 41.99999999999996,59.50000000000001 41.59999999999996,61.00000000000001 C 42.19999999999996,61.10000000000001 42.59999999999996,60.900000000000006 43.19999999999996,60.900000000000006 L 43.19999999999996,60.900000000000006 L 41.29999999999996,63.900000000000006 L 38.69999999999996,68.0 L 38.19999999999996,68.7 C 37.79999999999996,68.5 37.39999999999996,68.3 36.89999999999996,68.0 C 36.89999999999996,67.2 36.79999999999996,66.3 36.79999999999996,65.4 L 36.79999999999996,65.2 C 36.59999999999996,64.7 36.29999999999996,64.2 35.89999999999996,63.900000000000006 C 35.999999999999964,64.2 36.099999999999966,64.5 36.099999999999966,64.80000000000001 C 35.79999999999997,65.10000000000001 35.499999999999964,65.4 35.499999999999964,65.9 L 35.999999999999964,67.30000000000001 C 36.099999999999966,67.60000000000001 35.69999999999997,67.60000000000001 35.599999999999966,67.70000000000002 C 35.19999999999997,67.50000000000001 34.79999999999997,67.20000000000002 34.39999999999996,66.90000000000002 C 34.39999999999996,64.20000000000002 34.499999999999964,61.30000000000002 34.499999999999964,58.60000000000002 L 34.499999999999964,55.300000000000026 L 34.499999999999964,54.800000000000026 C 34.599999999999966,54.700000000000024 34.69999999999997,54.60000000000002 34.79999999999996,54.50000000000003 C 35.09999999999996,54.70000000000003 35.499999999999964,54.800000000000026 35.69999999999996,55.00000000000003 C 35.69999999999996,55.20000000000003 35.49999999999996,55.50000000000003 35.39999999999996,55.70000000000003 C 35.39999999999996,55.80000000000003 35.499999999999964,55.80000000000003 35.599999999999966,55.900000000000034 C 35.89999999999996,55.900000000000034 36.19999999999997,55.900000000000034 36.39999999999996,55.900000000000034 L 40.599999999999966,59.20000000000003 L 41.099999999999966,59.60000000000003 C 41.19999999999997,58.60000000000003 41.29999999999997,57.50000000000003 41.499999999999964,56.50000000000003 C 40.099999999999966,55.70000000000003 38.69999999999997,55.10000000000003 37.29999999999996,54.300000000000026 L 37.09999999999996,53.800000000000026 C 36.899999999999956,53.800000000000026 36.59999999999996,53.800000000000026 36.399999999999956,53.800000000000026 C 35.99999999999996,53.60000000000002 35.59999999999996,53.40000000000003 35.299999999999955,53.200000000000024 L 35.299999999999955,53.0 C 35.69999999999995,52.5 36.09999999999995,52.0 36.49999999999996,51.5 L 36.59999999999996,51.1 C 36.59999999999996,50.6 36.79999999999996,50.2 36.59999999999996,49.7 C 36.49999999999996,50.0 36.29999999999996,50.300000000000004 36.09999999999996,50.5 C 35.79999999999996,50.5 35.49999999999996,50.6 35.29999999999996,50.7 C 35.09999999999996,51.2 34.89999999999996,51.7 34.59999999999996,52.2 C 34.49999999999996,52.2 34.29999999999996,52.2 34.29999999999996,52.2 C 34.29999999999996,50.900000000000006 34.29999999999996,49.6 34.29999999999996,48.300000000000004 C 33.999999999999964,48.300000000000004 33.69999999999996,48.300000000000004 33.39999999999996,48.300000000000004 C 33.39999999999996,49.400000000000006 33.29999999999996,50.50000000000001 33.29999999999996,51.6 L 33.29999999999996,51.6 C 32.79999999999996,51.1 31.99999999999996,51.1 31.29999999999996,51.1 C 30.99999999999996,51.2 30.69999999999996,51.2 30.399999999999963,51.4 L 30.999999999999964,51.5 C 31.099999999999966,51.5 31.299999999999965,51.5 31.299999999999965,51.6 C 31.399999999999967,52.0 31.499999999999964,52.4 31.699999999999964,52.7 C 32.19999999999996,52.900000000000006 32.69999999999996,52.900000000000006 33.19999999999996,52.900000000000006 C 33.19999999999996,53.2 33.29999999999996,53.50000000000001 33.19999999999996,53.800000000000004 C 32.59999999999996,54.1 31.99999999999996,54.300000000000004 31.39999999999996,54.7 C 31.09999999999996,55.2 30.799999999999958,55.6 30.59999999999996,56.1 C 30.799999999999958,55.9 31.09999999999996,55.6 31.39999999999996,55.5 C 31.69999999999996,55.7 31.99999999999996,55.8 32.29999999999996,56.0 L 33.19999999999996,55.4 L 33.29999999999996,55.4 C 33.29999999999996,57.0 33.29999999999996,58.4 33.19999999999996,60.0 L 33.09999999999996,64.5 L 33.09999999999996,66.2 L 33.09999999999996,66.3 C 32.69999999999996,66.3 32.399999999999956,66.3 31.999999999999957,66.3 C 31.699999999999957,66.39999999999999 31.399999999999956,66.5 31.09999999999996,66.6 C 31.39999999999996,66.6 31.69999999999996,66.6 31.999999999999957,66.69999999999999 C 32.19999999999996,67.1 32.299999999999955,67.6 32.49999999999996,67.99999999999999 L 32.99999999999996,68.09999999999998 C 33.09999999999996,68.19999999999997 32.99999999999996,68.39999999999998 32.99999999999996,68.59999999999998 C 32.99999999999996,69.19999999999997 32.99999999999996,69.79999999999998 32.99999999999996,70.29999999999998 C 32.69999999999996,70.79999999999998 32.09999999999996,71.09999999999998 32.09999999999996,71.69999999999999 C 32.29999999999996,71.6 32.399999999999956,71.39999999999999 32.49999999999996,71.39999999999999 C 32.59999999999996,71.3 32.799999999999955,71.19999999999999 32.99999999999996,71.19999999999999 C 32.99999999999996,72.39999999999999 32.99999999999996,73.49999999999999 32.899999999999956,74.69999999999999 L 33.799999999999955,74.69999999999999 L 33.899999999999956,70.99999999999999 C 34.19999999999995,71.09999999999998 34.399999999999956,71.09999999999998 34.69999999999995,71.19999999999999 C 35.399999999999956,70.69999999999999 35.899999999999956,69.89999999999999 36.399999999999956,69.19999999999999 C 36.99999999999996,69.29999999999998 37.49999999999996,69.6 37.99999999999996,69.79999999999998 C 38.299999999999955,70.09999999999998 38.299999999999955,70.49999999999999 38.299999999999955,70.79999999999998 L 38.299999999999955,70.79999999999998 L 38.399999999999956,70.69999999999999 L 42.799999999999955,65.6 L 47.09999999999995,60.699999999999996 L 47.19999999999995,60.599999999999994 C 47.299999999999955,60.699999999999996 47.399999999999956,60.8 47.399999999999956,60.89999999999999 L 47.09999999999996,61.29999999999999 L 43.899999999999956,64.89999999999999 L 43.899999999999956,64.99999999999999 C 43.99999999999996,65.59999999999998 44.299999999999955,65.99999999999999 44.49999999999996,66.59999999999998 C 45.09999999999996,67.29999999999998 45.799999999999955,67.89999999999998 46.19999999999996,68.69999999999997 C 46.49999999999996,69.59999999999998 46.69999999999996,70.59999999999998 46.89999999999996,71.59999999999998 C 46.89999999999996,71.79999999999998 46.999999999999964,72.09999999999998 46.89999999999996,72.39999999999998 C 45.39999999999996,72.99999999999997 43.79999999999996,73.59999999999998 42.499999999999964,74.49999999999997 C 41.79999999999996,76.39999999999998 41.39999999999996,78.39999999999998 41.29999999999996,80.49999999999997 C 41.39999999999996,80.99999999999997 41.59999999999996,81.49999999999997 41.79999999999996,81.89999999999998 L 41.79999999999996,81.89999999999998 C 40.39999999999996,81.79999999999998 38.999999999999964,81.59999999999998 37.59999999999996,81.49999999999997 C 37.09999999999996,81.49999999999997 36.59999999999996,81.39999999999998 36.09999999999996,81.39999999999998 C 35.99999999999996,80.79999999999998 35.79999999999996,80.19999999999997 35.59999999999996,79.59999999999998 C 35.99999999999996,79.09999999999998 36.399999999999956,78.69999999999997 36.79999999999996,78.19999999999997 C 36.999999999999964,77.49999999999997 37.09999999999996,76.79999999999997 36.89999999999996,76.09999999999998 L 36.8,77.0 L 36.699999999999996,77.1 C 36.4,77.1 36.099999999999994,77.19999999999999 35.699999999999996,77.3 C 35.49999999999999,77.89999999999999 35.599999999999994,78.5 35.49999999999999,79.0 C 35.29999999999999,79.0 35.099999999999994,79.1 34.89999999999999,79.1 C 34.599999999999994,78.5 34.099999999999994,77.89999999999999 33.69999999999999,77.39999999999999 L 32.999999999999986,76.89999999999999 C 32.69999999999999,76.8 32.29999999999998,76.8 31.999999999999986,76.69999999999999 L 31.899999999999984,76.69999999999999 C 31.999999999999986,76.69999999999999 32.09999999999999,76.79999999999998 32.19999999999998,76.89999999999999 C 32.399999999999984,77.1 32.59999999999998,77.19999999999999 32.79999999999998,77.39999999999999 C 32.59999999999998,77.6 32.399999999999984,77.89999999999999 32.399999999999984,78.19999999999999 C 32.999999999999986,78.6 33.69999999999998,78.69999999999999 34.29999999999998,79.1 C 34.19999999999998,79.3 34.19999999999998,79.5 33.999999999999986,79.69999999999999 C 33.399999999999984,79.69999999999999 32.79999999999998,79.69999999999999 32.29999999999998,79.79999999999998 C 32.19999999999998,79.99999999999999 32.19999999999998,80.29999999999998 31.999999999999982,80.59999999999998 C 31.799999999999983,80.69999999999997 31.499999999999982,80.69999999999997 31.19999999999998,80.79999999999998 C 31.69999999999998,80.99999999999999 32.19999999999998,81.09999999999998 32.79999999999998,81.09999999999998 C 33.399999999999984,81.09999999999998 33.79999999999998,80.69999999999997 34.29999999999998,80.69999999999997 C 34.69999999999998,81.19999999999997 34.899999999999984,81.79999999999997 35.09999999999998,82.39999999999998 C 35.09999999999998,82.89999999999998 34.59999999999998,83.09999999999998 34.39999999999998,83.39999999999998 C 34.89999999999998,83.29999999999998 35.39999999999998,83.29999999999998 35.799999999999976,83.39999999999998 L 39.59999999999997,84.29999999999998 L 41.299999999999976,84.59999999999998 C 41.59999999999997,84.89999999999998 41.89999999999998,85.19999999999997 42.299999999999976,85.39999999999998 C 42.699999999999974,85.29999999999998 42.99999999999998,85.19999999999997 43.299999999999976,85.09999999999998 C 43.59999999999997,84.99999999999999 43.89999999999998,84.89999999999998 44.199999999999974,84.69999999999997 C 44.199999999999974,84.39999999999998 44.199999999999974,84.09999999999998 44.299999999999976,83.79999999999997 C 44.699999999999974,82.99999999999997 45.299999999999976,82.29999999999997 45.699999999999974,81.59999999999997 C 45.299999999999976,80.99999999999997 44.699999999999974,80.39999999999996 44.49999999999997,79.59999999999997 C 44.29999999999997,78.49999999999997 44.199999999999974,77.29999999999997 44.199999999999974,76.19999999999996 L 44.49999999999997,75.69999999999996 C 45.699999999999974,74.19999999999996 47.59999999999997,73.19999999999996 48.39999999999997,71.29999999999995 C 48.49999999999997,71.09999999999995 48.49999999999997,70.89999999999995 48.59999999999997,70.79999999999995 C 48.699999999999974,70.79999999999995 48.89999999999997,70.79999999999995 48.89999999999997,70.89999999999995 C 48.79999999999997,71.29999999999995 48.59999999999997,71.69999999999995 48.39999999999997,72.09999999999995 C 47.39999999999997,73.69999999999995 45.59999999999997,74.69999999999995 44.59999999999997,76.29999999999995 C 44.59999999999997,77.39999999999995 44.59999999999997,78.59999999999995 44.89999999999997,79.69999999999996 C 45.09999999999997,80.19999999999996 45.39999999999997,80.49999999999996 45.69999999999997,80.89999999999996 L 49.499999999999964,85.09999999999997 C 49.69999999999997,85.39999999999996 49.999999999999964,85.69999999999996 50.099999999999966,85.99999999999997 C 50.599999999999966,88.69999999999997 50.89999999999996,91.39999999999998 50.69999999999997,94.29999999999997 L 50.599999999999966,94.39999999999996 C 50.19999999999997,94.59999999999997 49.69999999999997,94.79999999999997 49.19999999999997,94.79999999999997 L 49.099999999999966,94.69999999999997 C 48.69999999999997,94.09999999999998 48.39999999999996,93.39999999999998 47.999999999999964,92.69999999999997 C 47.39999999999996,92.19999999999997 46.79999999999996,91.79999999999997 46.099999999999966,91.79999999999997 C 46.39999999999996,91.99999999999997 46.69999999999997,92.29999999999997 46.999999999999964,92.69999999999997 C 46.89999999999996,93.19999999999997 46.69999999999997,93.59999999999998 46.79999999999996,94.09999999999998 C 47.39999999999996,94.49999999999999 47.999999999999964,94.69999999999997 48.499999999999964,94.99999999999999 C 48.499999999999964,95.19999999999999 48.499999999999964,95.39999999999999 48.39999999999996,95.49999999999999 C 47.79999999999996,95.59999999999998 47.19999999999996,95.69999999999999 46.599999999999966,95.79999999999998 C 46.099999999999966,96.09999999999998 45.69999999999997,96.59999999999998 45.39999999999996,97.09999999999998 C 45.69999999999996,96.99999999999999 45.999999999999964,96.79999999999998 46.29999999999996,96.79999999999998 C 46.59999999999996,97.09999999999998 46.89999999999996,97.39999999999998 47.29999999999996,97.39999999999998 C 47.69999999999996,96.99999999999997 48.19999999999996,96.59999999999998 48.499999999999964,96.19999999999997 C 48.69999999999997,96.19999999999997 48.89999999999996,96.39999999999998 48.999999999999964,96.59999999999998 C 48.89999999999996,97.09999999999998 48.79999999999996,97.69999999999997 48.69999999999997,98.19999999999997 C 48.79999999999997,98.79999999999997 49.099999999999966,99.39999999999998 49.39999999999997,99.89999999999998 C 49.39999999999997,99.49999999999997 49.29999999999997,99.09999999999998 49.39999999999997,98.69999999999997 C 49.79999999999997,98.49999999999997 50.09999999999997,98.39999999999998 50.39999999999997,97.99999999999997 C 50.29999999999997,97.49999999999997 50.09999999999997,97.09999999999997 49.89999999999997,96.59999999999997 L 49.89999999999997,96.39999999999996 C 50.39999999999997,95.99999999999996 50.89999999999997,95.59999999999997 51.49999999999997,95.29999999999997 C 51.99999999999997,95.39999999999996 52.39999999999997,95.79999999999997 52.79999999999997,96.09999999999997 C 52.69999999999997,95.19999999999996 52.69999999999997,94.39999999999996 52.69999999999997,93.39999999999996 C 52.89999999999997,91.59999999999997 52.999999999999964,89.89999999999996 53.19999999999997,87.99999999999996 C 53.39999999999997,87.69999999999996 53.69999999999997,87.59999999999995 53.79999999999997,87.29999999999995 C 53.89999999999997,86.69999999999996 53.99999999999997,86.19999999999996 53.99999999999997,85.59999999999995 C 53.59999999999997,85.19999999999995 53.29999999999997,84.69999999999995 53.199999999999974,84.19999999999995 C 52.799999999999976,82.29999999999994 52.799999999999976,80.29999999999994 52.799999999999976,78.39999999999995 C 52.699999999999974,76.69999999999995 52.89999999999998,74.59999999999995 52.299999999999976,72.99999999999994 L 52.49999999999998,72.59999999999994 L 52.49999999999998,72.59999999999994 C 52.59999999999998,72.79999999999994 52.69999999999998,72.99999999999994 52.799999999999976,73.19999999999993 C 53.199999999999974,74.49999999999993 53.199999999999974,75.79999999999993 53.199999999999974,77.19999999999993 C 54.09999999999997,78.59999999999994 54.99999999999997,79.89999999999993 55.89999999999998,81.29999999999993 C 56.59999999999998,82.39999999999992 57.699999999999974,83.39999999999992 58.799999999999976,83.89999999999992 C 60.299999999999976,84.69999999999992 62.299999999999976,84.49999999999991 63.799999999999976,83.69999999999992 C 65.59999999999998,82.89999999999992 66.59999999999998,80.99999999999991 66.69999999999997,79.19999999999992 C 66.69999999999997,76.49999999999991 65.39999999999998,74.19999999999992 64.79999999999997,71.69999999999992 C 64.69999999999997,71.39999999999992 64.69999999999997,71.09999999999992 64.69999999999997,70.79999999999991 C 65.69999999999997,70.29999999999991 66.79999999999997,69.79999999999991 67.79999999999997,69.29999999999991 C 67.09999999999997,69.09999999999991 66.39999999999996,68.99999999999991 65.59999999999997,68.79999999999991 C 65.09999999999997,68.69999999999992 64.79999999999997,68.8999999999999 64.39999999999996,68.8999999999999 C 64.39999999999996,68.59999999999991 64.29999999999997,68.29999999999991 64.29999999999997,68.09999999999991 L 69.19999999999997,65.79999999999991 L 66.99999999999997,65.29999999999991 L 66.69999999999997,65.29999999999991 C 65.99999999999997,65.3999999999999 65.19999999999997,65.59999999999991 64.49999999999997,65.69999999999992 C 64.49999999999997,65.29999999999991 64.69999999999997,64.99999999999991 64.79999999999997,64.69999999999992 L 69.29999999999997,62.599999999999916 L 70.09999999999997,62.19999999999992 C 69.29999999999997,61.999999999999915 68.39999999999996,61.79999999999992 67.49999999999997,61.69999999999992 C 67.0,62.0 66.6,62.1 66.1,62.2 M 56.6,46.9 L 56.9,46.8 C 57.0,46.8 57.199999999999996,46.9 57.3,47.0 C 57.4,47.3 57.099999999999994,47.5 56.9,47.7 C 56.8,47.6 56.8,47.400000000000006 56.8,47.2 L 56.4,47.0 C 56.4,46.9 56.5,46.9 56.6,46.9 M 35.6,69.1 C 35.2,69.3 34.800000000000004,69.6 34.4,69.8 C 34.4,69.3 34.4,68.89999999999999 34.4,68.39999999999999 L 34.4,68.39999999999999 C 34.8,68.39999999999999 35.1,68.49999999999999 35.5,68.49999999999999 C 35.5,68.7 35.5,68.9 35.6,69.1 L 35.6,69.1 M 48.3,54.8 L 45.5,55.199999999999996 C 45.1,55.3 44.9,55.699999999999996 44.7,55.99999999999999 L 43.300000000000004,58.199999999999996 C 43.2,58.199999999999996 43.1,58.099999999999994 43.00000000000001,58.099999999999994 L 44.60000000000001,55.49999999999999 C 45.10000000000001,54.89999999999999 45.900000000000006,54.99999999999999 46.60000000000001,54.79999999999999 C 47.10000000000001,54.69999999999999 47.70000000000001,54.59999999999999 48.30000000000001,54.59999999999999 C 48.4,54.6 48.3,54.7 48.3,54.8 M 50.6,45.4 C 51.7,45.5 52.800000000000004,45.9 53.9,46.1 C 53.9,46.2 53.9,46.300000000000004 53.9,46.4 L 52.5,46.0 C 52.4,46.2 52.4,46.5 52.2,46.6 C 51.900000000000006,46.6 51.6,46.7 51.300000000000004,46.6 C 51.00000000000001,46.4 51.1,46.0 50.900000000000006,45.7 C 50.7,45.7 50.400000000000006,45.900000000000006 50.2,46.0 C 50.1,46.0 50.0,46.0 50.0,45.9 L 50.6,45.4 M 50.2,48.8 L 49.900000000000006,47.8 C 49.900000000000006,47.8 49.900000000000006,47.699999999999996 49.900000000000006,47.699999999999996 C 50.7,47.8 51.60000000000001,47.8 52.50000000000001,47.9 C 52.60000000000001,48.199999999999996 52.70000000000001,48.6 52.70000000000001,48.9 C 51.9,48.9 51.0,48.9 50.2,48.8" fill="#c42b70" stroke="#cc3200" stroke-width="2.0" /><path d="M 34.7,44.7 L 33.800000000000004,44.7 L 33.800000000000004,44.7 C 33.800000000000004,44.900000000000006 33.800000000000004,45.2 33.800000000000004,45.400000000000006 L 34.7,45.400000000000006 C 34.7,45.2 34.7,44.9 34.7,44.7" fill="#c42b70" stroke="#cc3200" stroke-width="2.0" /><path d="M 45.6,47.5 C 45.5,47.5 45.5,47.5 45.6,47.5 C 45.5,47.6 45.5,47.7 45.5,47.8 C 45.8,48.0 46.0,48.199999999999996 46.3,48.199999999999996 L 48.3,48.4 C 48.5,48.4 48.8,48.5 49.0,48.4 L 48.8,48.1 L 46.699999999999996,47.9 C 46.3,47.9 45.99999999999999,47.699999999999996 45.699999999999996,47.6 C 45.7,47.5 45.6,47.5 45.6,47.5" fill="#c42b70" stroke="#cc3200" stroke-width="2.0" /><path d="M 25.9,42.5 C 25.799999999999997,43.1 25.9,43.8 25.9,44.5 C 26.099999999999998,46.9 26.799999999999997,49.1 27.9,51.1 C 28.2,50.800000000000004 28.4,50.6 28.7,50.300000000000004 C 29.7,49.300000000000004 30.599999999999998,48.2 32.0,48.00000000000001 C 33.0,48.00000000000001 34.2,48.00000000000001 35.3,48.00000000000001 C 35.3,47.300000000000004 35.3,46.50000000000001 35.4,45.800000000000004 L 35.4,45.800000000000004 C 34.4,45.800000000000004 33.5,45.800000000000004 32.5,45.7 C 29.9,45.6 27.9,44.0 25.9,42.5" fill="#c42b70" stroke="#cc3200" stroke-width="2.0" /><path d="M 79.6,86.5 C 83.5,86.1 86.0,84.1 86.0,84.1 C 84.2,84.8 82.2,85.1 80.4,85.19999999999999 C 80.4,84.6 81.0,55.69999999999999 78.60000000000001,43.29999999999999 C 76.2,55.69999999999999 76.80000000000001,84.6 76.80000000000001,85.19999999999999 C 74.9,85.1 73.00000000000001,84.79999999999998 71.20000000000002,84.1 C 71.20000000000002,84.1 73.80000000000001,86.1 77.60000000000002,86.5 L 77.60000000000002,97.2 C 77.30000000000003,97.5 77.10000000000002,97.8 77.10000000000002,98.3 C 77.10000000000002,99.1 77.80000000000003,99.8 78.60000000000002,99.8 C 79.40000000000002,99.8 80.10000000000002,99.1 80.10000000000002,98.3 C 80.10000000000002,97.89999999999999 79.90000000000002,97.5 79.60000000000002,97.2 L 79.60000000000002,86.5 L 79.6,86.5" fill="#c42b70" stroke="#cc3200" stroke-width="2.0" /></g></svg>