<?xml version="1.0" encoding="utf-8" ?>
<svg baseProfile="full" height="100px" version="1.1" width="150px" xmlns="http://www.w3.org/2000/svg" xmlns:ev="http://www.w3.org/2001/xml-events" xmlns:xlink="http://www.w3.org/1999/xlink"><defs><clipPath id="mask0"><rect height="100" width="150" x="0" y="0" /></clipPath></defs><g clip-path="url(#mask0)"><path d="M0,0 L0.0,150.0 L51.303021498850306,140.95389311788625 z" fill="#ffffff" stroke="none" transform="translate(75.0, 50.0)" /><path d="M0,0 L51.303021498850306,140.95389311788625 L96.41814145298089,114.9066664678467 z" fill="#ffce00" stroke="none" transform="translate(75.0, 50.0)" /><path d="M0,0 L96.41814145298089,114.9066664678467 L129.9038105676658,75.00000000000001 z" fill="#ffffff" stroke="none" transform="translate(75.0, 50.0)" /><path d="M0,0 L129.9038105676658,75.00000000000001 L147.7211629518312,26.047226650039562 z" fill="#ffce00" stroke="none" transform="translate(75.0, 50.0)" /><path d="M0,0 L147.7211629518312,26.047226650039562 L147.7211629518312,-26.047226650039544 z" fill="#ffffff" stroke="none" transform="translate(75.0, 50.0)" /><path d="M0,0 L147.7211629518312,-26.047226650039544 L129.9038105676658,-74.99999999999997 z" fill="#ffce00" stroke="none" transform="translate(75.0, 50.0)" /><path d="M0,0 L129.9038105676658,-74.99999999999997 L96.41814145298092,-114.90666646784669 z" fill="#ffffff" stroke="none" transform="translate(75.0, 50.0)" /><path d="M0,0 L96.41814145298092,-114.90666646784669 L51.303021498850335,-140.95389311788625 z" fill="#ffce00" stroke="none" transform="translate(75.0, 50.0)" /><path d="M0,0 L51.303021498850335,-140.95389311788625 L1.8369701987210297e-14,-150.0 z" fill="#ffffff" stroke="none" transform="translate(75.0, 50.0)" /><path d="M0,0 L1.8369701987210297e-14,-150.0 L-51.3030214988503,-140.95389311788625 z" fill="#ffce00" stroke="none" transform="translate(75.0, 50.0)" /><path d="M0,0 L-51.3030214988503,-140.95389311788625 L-96.41814145298089,-114.9066664678467 z" fill="#ffffff" stroke="none" transform="translate(75.0, 50.0)" /><path d="M0,0 L-96.41814145298089,-114.9066664678467 L-129.90381056766574,-75.00000000000007 z" fill="#ffce00" stroke="none" transform="translate(75.0, 50.0)" /><path d="M0,0 L-129.90381056766574,-75.00000000000007 L-147.7211629518312,-26.04722665003955 z" fill="#ffffff" stroke="none" transform="translate(75.0, 50.0)" /><path d="M0,0 L-147.7211629518312,-26.04722665003955 L-147.72116295183122,26.047226650039494 z" fill="#ffce00" stroke="none" transform="translate(75.0, 50.0)" /><path d="M0,0 L-147.72116295183122,26.047226650039494 L-129.9038105676658,75.00000000000001 z" fill="#ffffff" stroke="none" transform="translate(75.0, 50.0)" /><path d="M0,0 L-129.9038105676658,75.00000000000001 L-96.41814145298093,114.90666646784666 z" fill="#ffce00" stroke="none" transform="translate(75.0, 50.0)" /><path d="M0,0 L-96.41814145298093,114.90666646784666 L-51.30302149885041,140.95389311788622 z" fill="#ffffff" stroke="none" transform="translate(75.0, 50.0)" /><path d="M0,0 L-51.30302149885041,140.95389311788622 L-3.6739403974420595e-14,150.0 z" fill="#ffce00" stroke="none" transform="translate(75.0, 50.0)" /></g><g transform="translate(45.936933597069036, 20.936933597069036) scale(0.5812613280586193) rotate(0, 50.0, 50.0)"><path d="M 50.0,0.0 C 22.4,0.0 0.0,22.4 0.0,50.0 L 0.0,50.0 L 22.3,44.0 C 21.900000000000002,45.9 21.7,47.9 21.7,50.0 C 21.7,52.1 21.9,54.0 22.3,56.0 L 0.0,50.0 C 0.0,77.6 22.4,100.0 50.0,100.0 C 77.6,100.0 100.0,77.6 100.0,50.0 C 100.0,22.400000000000006 77.6,0.0 50.0,0.0 M 50.0,75.0 C 36.2,75.0 25.0,63.8 25.0,50.0 C 25.0,36.2 36.2,25.0 50.0,25.0 C 63.8,25.0 75.0,36.2 75.0,50.0 C 75.0,63.8 63.8,75.0 50.0,75.0 M 77.7,44.0 L 100.0,50.0 L 77.7,56.0 C 78.10000000000001,54.1 78.3,52.1 78.3,50.0 C 78.3,47.9 78.1,46.0 77.7,44.0 M 93.3,25.0 L 77.0,41.3 C 75.8,37.4 73.7,33.9 71.0,30.999999999999996 L 93.3,25.0 M 69.0,29.0 C 66.1,26.3 62.5,24.3 58.7,23.0 L 75.0,6.7 L 69.0,29.0 M 56.0,22.3 C 54.1,21.900000000000002 52.1,21.7 50.0,21.7 C 47.9,21.7 46.0,21.9 44.0,22.3 L 50.0,0.0 L 56.0,22.3 M 41.3,23.0 C 37.4,24.2 33.9,26.3 30.999999999999996,29.0 L 25.0,6.7 L 41.3,23.0 M 6.7,25.0 L 29.0,31.0 C 26.3,33.9 24.3,37.5 23.0,41.3 L 6.7,25.0 M 6.7,75.0 L 23.0,58.7 C 24.2,62.6 26.3,66.10000000000001 29.0,69.0 L 6.7,75.0 M 31.0,71.0 C 33.9,73.7 37.5,75.7 41.3,77.0 L 25.0,93.3 L 31.0,71.0 M 44.0,77.7 C 45.9,78.10000000000001 47.9,78.3 50.0,78.3 C 52.1,78.3 54.0,78.1 56.0,77.7 L 50.0,100.0 L 44.0,77.7 M 58.7,77.0 C 62.6,75.8 66.10000000000001,73.7 69.0,71.0 L 75.0,93.3 L 58.7,77.0 M 71.0,69.0 C 73.7,66.1 75.7,62.5 77.0,58.7 L 93.3,75.0 L 71.0,69.0" fill="#ff3333" stroke="none" stroke-width="2.0" /></g></svg>