<?xml version="1.0" encoding="utf-8" ?>
<svg baseProfile="full" height="100px" version="1.1" width="150px" xmlns="http://www.w3.org/2000/svg" xmlns:ev="http://www.w3.org/2001/xml-events" xmlns:xlink="http://www.w3.org/1999/xlink"><defs><clipPath id="mask0"><rect height="100" width="150" x="0" y="0" /></clipPath></defs><g clip-path="url(#mask0)"><rect fill="#339933" height="100" stroke="none" width="150" x="0" y="0" /><path d="M30.0,0 L130.05,100 L130.05,0 z" fill="#fec50c" stroke="none" /></g><g transform="translate(8.741943664639564, -4.758056335360437) scale(0.09516112670720873) rotate(0, 50.0, 50.0)"><path d="M 50.0,1.9 L 61.8,38.199999999999996 L 100.0,38.199999999999996 L 69.1,60.7 L 80.9,97.0 L 50.0,74.5 L 19.1,97.0 L 30.900000000000002,60.7 L 0.0,38.2 L 38.2,38.2 L 50.0,1.9" fill="#ffffff" stroke="none" stroke-width="2.0px" /></g><g transform="translate(18.741943664639564, 5.241943664639563) scale(0.09516112670720873) rotate(0, 50.0, 50.0)"><path d="M 50.0,1.9 L 61.8,38.199999999999996 L 100.0,38.199999999999996 L 69.1,60.7 L 80.9,97.0 L 50.0,74.5 L 19.1,97.0 L 30.900000000000002,60.7 L 0.0,38.2 L 38.2,38.2 L 50.0,1.9" fill="#ffffff" stroke="none" stroke-width="2.0px" /></g><g transform="translate(28.741943664639564, 15.241943664639564) scale(0.09516112670720873) rotate(0, 50.0, 50.0)"><path d="M 50.0,1.9 L 61.8,38.199999999999996 L 100.0,38.199999999999996 L 69.1,60.7 L 80.9,97.0 L 50.0,74.5 L 19.1,97.0 L 30.900000000000002,60.7 L 0.0,38.2 L 38.2,38.2 L 50.0,1.9" fill="#ffffff" stroke="none" stroke-width="2.0px" /></g><g transform="translate(38.741943664639564, 25.241943664639564) scale(0.09516112670720873) rotate(0, 50.0, 50.0)"><path d="M 50.0,1.9 L 61.8,38.199999999999996 L 100.0,38.199999999999996 L 69.1,60.7 L 80.9,97.0 L 50.0,74.5 L 19.1,97.0 L 30.900000000000002,60.7 L 0.0,38.2 L 38.2,38.2 L 50.0,1.9" fill="#ffffff" stroke="none" stroke-width="2.0px" /></g><g transform="translate(48.741943664639564, 35.241943664639564) scale(0.09516112670720873) rotate(0, 50.0, 50.0)"><path d="M 50.0,1.9 L 61.8,38.199999999999996 L 100.0,38.199999999999996 L 69.1,60.7 L 80.9,97.0 L 50.0,74.5 L 19.1,97.0 L 30.900000000000002,60.7 L 0.0,38.2 L 38.2,38.2 L 50.0,1.9" fill="#ffffff" stroke="none" stroke-width="2.0px" /></g><g transform="translate(58.741943664639564, 45.241943664639564) scale(0.09516112670720873) rotate(0, 50.0, 50.0)"><path d="M 50.0,1.9 L 61.8,38.199999999999996 L 100.0,38.199999999999996 L 69.1,60.7 L 80.9,97.0 L 50.0,74.5 L 19.1,97.0 L 30.900000000000002,60.7 L 0.0,38.2 L 38.2,38.2 L 50.0,1.9" fill="#ffffff" stroke="none" stroke-width="2.0px" /></g><g transform="translate(68.74194366463956, 55.241943664639564) scale(0.09516112670720873) rotate(0, 50.0, 50.0)"><path d="M 50.0,1.9 L 61.8,38.199999999999996 L 100.0,38.199999999999996 L 69.1,60.7 L 80.9,97.0 L 50.0,74.5 L 19.1,97.0 L 30.900000000000002,60.7 L 0.0,38.2 L 38.2,38.2 L 50.0,1.9" fill="#ffffff" stroke="none" stroke-width="2.0px" /></g><g transform="translate(78.74194366463956, 65.24194366463956) scale(0.09516112670720873) rotate(0, 50.0, 50.0)"><path d="M 50.0,1.9 L 61.8,38.199999999999996 L 100.0,38.199999999999996 L 69.1,60.7 L 80.9,97.0 L 50.0,74.5 L 19.1,97.0 L 30.900000000000002,60.7 L 0.0,38.2 L 38.2,38.2 L 50.0,1.9" fill="#ffffff" stroke="none" stroke-width="2.0px" /></g><g transform="translate(88.74194366463956, 75.24194366463956) scale(0.09516112670720873) rotate(0, 50.0, 50.0)"><path d="M 50.0,1.9 L 61.8,38.199999999999996 L 100.0,38.199999999999996 L 69.1,60.7 L 80.9,97.0 L 50.0,74.5 L 19.1,97.0 L 30.900000000000002,60.7 L 0.0,38.2 L 38.2,38.2 L 50.0,1.9" fill="#ffffff" stroke="none" stroke-width="2.0px" /></g><g transform="translate(98.74194366463956, 85.24194366463956) scale(0.09516112670720873) rotate(0, 50.0, 50.0)"><path d="M 50.0,1.9 L 61.8,38.199999999999996 L 100.0,38.199999999999996 L 69.1,60.7 L 80.9,97.0 L 50.0,74.5 L 19.1,97.0 L 30.900000000000002,60.7 L 0.0,38.2 L 38.2,38.2 L 50.0,1.9" fill="#ffffff" stroke="none" stroke-width="2.0px" /></g><g transform="translate(108.74194366463956, 95.24194366463956) scale(0.09516112670720873) rotate(0, 50.0, 50.0)"><path d="M 50.0,1.9 L 61.8,38.199999999999996 L 100.0,38.199999999999996 L 69.1,60.7 L 80.9,97.0 L 50.0,74.5 L 19.1,97.0 L 30.900000000000002,60.7 L 0.0,38.2 L 38.2,38.2 L 50.0,1.9" fill="#ffffff" stroke="none" stroke-width="2.0px" /></g></svg>