<?xml version="1.0" encoding="utf-8" ?>
<svg baseProfile="full" height="100px" version="1.1" width="150px" xmlns="http://www.w3.org/2000/svg" xmlns:ev="http://www.w3.org/2001/xml-events" xmlns:xlink="http://www.w3.org/1999/xlink"><defs><clipPath id="mask0"><rect height="100" width="150" x="0" y="0" /></clipPath></defs><g clip-path="url(#mask0)"><path d="M0,0 L150,100 L150,0 z" fill="#ffffff" stroke="none" /><path d="M0,0 L150,100 L0,100 z" fill="#003897" stroke="none" /></g><g transform="translate(-6.085135514014207, -6.085135514014207) scale(0.12170271028028415) rotate(0, 50.0, 50.0)"><path d="M 59.9,100.0 L 40.1,100.0 L 40.1,58.3 L 0.0,58.3 L 0.0,39.0 L 40.1,39.0 L 40.1,0.0 L 59.9,0.0 L 59.9,39.0 L 100.0,39.0 L 100.0,58.3 L 59.9,58.3 L 59.9,100.0" fill="#fec50c" stroke="none" stroke-width="3.0px" /></g><g transform="translate(18.91486448598579, 10.58153115265246) scale(0.12170271028028415) rotate(0, 50.0, 50.0)"><path d="M 59.9,100.0 L 40.1,100.0 L 40.1,58.3 L 0.0,58.3 L 0.0,39.0 L 40.1,39.0 L 40.1,0.0 L 59.9,0.0 L 59.9,39.0 L 100.0,39.0 L 100.0,58.3 L 59.9,58.3 L 59.9,100.0" fill="#fec50c" stroke="none" stroke-width="3.0px" /></g><g transform="translate(43.914864485985795, 27.248197819319127) scale(0.12170271028028415) rotate(0, 50.0, 50.0)"><path d="M 59.9,100.0 L 40.1,100.0 L 40.1,58.3 L 0.0,58.3 L 0.0,39.0 L 40.1,39.0 L 40.1,0.0 L 59.9,0.0 L 59.9,39.0 L 100.0,39.0 L 100.0,58.3 L 59.9,58.3 L 59.9,100.0" fill="#fec50c" stroke="none" stroke-width="3.0px" /></g><g transform="translate(68.91486448598579, 43.914864485985795) scale(0.12170271028028415) rotate(0, 50.0, 50.0)"><path d="M 59.9,100.0 L 40.1,100.0 L 40.1,58.3 L 0.0,58.3 L 0.0,39.0 L 40.1,39.0 L 40.1,0.0 L 59.9,0.0 L 59.9,39.0 L 100.0,39.0 L 100.0,58.3 L 59.9,58.3 L 59.9,100.0" fill="#fec50c" stroke="none" stroke-width="3.0px" /></g><g transform="translate(93.91486448598579, 60.58153115265247) scale(0.12170271028028415) rotate(0, 50.0, 50.0)"><path d="M 59.9,100.0 L 40.1,100.0 L 40.1,58.3 L 0.0,58.3 L 0.0,39.0 L 40.1,39.0 L 40.1,0.0 L 59.9,0.0 L 59.9,39.0 L 100.0,39.0 L 100.0,58.3 L 59.9,58.3 L 59.9,100.0" fill="#fec50c" stroke="none" stroke-width="3.0px" /></g><g transform="translate(118.91486448598579, 77.24819781931913) scale(0.12170271028028415) rotate(0, 50.0, 50.0)"><path d="M 59.9,100.0 L 40.1,100.0 L 40.1,58.3 L 0.0,58.3 L 0.0,39.0 L 40.1,39.0 L 40.1,0.0 L 59.9,0.0 L 59.9,39.0 L 100.0,39.0 L 100.0,58.3 L 59.9,58.3 L 59.9,100.0" fill="#fec50c" stroke="none" stroke-width="3.0px" /></g><g transform="translate(143.9148644859858, 93.9148644859858) scale(0.12170271028028415) rotate(0, 50.0, 50.0)"><path d="M 59.9,100.0 L 40.1,100.0 L 40.1,58.3 L 0.0,58.3 L 0.0,39.0 L 40.1,39.0 L 40.1,0.0 L 59.9,0.0 L 59.9,39.0 L 100.0,39.0 L 100.0,58.3 L 59.9,58.3 L 59.9,100.0" fill="#fec50c" stroke="none" stroke-width="3.0px" /></g></svg>