<?xml version="1.0" encoding="utf-8" ?>
<svg baseProfile="full" height="100px" version="1.1" width="150px" xmlns="http://www.w3.org/2000/svg" xmlns:ev="http://www.w3.org/2001/xml-events" xmlns:xlink="http://www.w3.org/1999/xlink"><defs><clipPath id="mask0"><rect height="100" width="150" x="0" y="0" /></clipPath></defs><g clip-path="url(#mask0)"><rect fill="#cc0033" height="100" stroke="none" width="150" x="0" y="0" /><line fill="none" stroke="#ffffff" stroke-width="19.7277079712496" x1="0" x2="150" y1="0" y2="100" /><line fill="none" stroke="#ffffff" stroke-width="19.7277079712496" x1="0" x2="150" y1="100" y2="0" /><line fill="none" stroke="#003265" stroke-width="9.527867940046812" x1="0" x2="150" y1="0" y2="100" /><line fill="none" stroke="#003265" stroke-width="9.527867940046812" x1="0" x2="150" y1="100" y2="0" /><line fill="none" stroke="#ffffff" stroke-width="29.23839547117449" x1="75.0" x2="75.0" y1="0" y2="100" /><line fill="none" stroke="#ffffff" stroke-width="29.23839547117449" x1="0" x2="150" y1="50.0" y2="50.0" /><line fill="none" stroke="#003265" stroke-width="14.07184576023328" x1="75.0" x2="75.0" y1="0" y2="100" /><line fill="none" stroke="#003265" stroke-width="14.07184576023328" x1="0" x2="150" y1="50.0" y2="50.0" /></g><g transform="translate(69.49047671246316, 44.49047671246317) scale(0.1101904657507366) rotate(0, 50.0, 50.0)"><path d="M 59.9,100.0 L 40.1,100.0 L 40.1,58.3 L 0.0,58.3 L 0.0,39.0 L 40.1,39.0 L 40.1,0.0 L 59.9,0.0 L 59.9,39.0 L 100.0,39.0 L 100.0,58.3 L 59.9,58.3 L 59.9,100.0" fill="#ffce00" stroke="none" stroke-width="3.0px" /></g></svg>