<?xml version="1.0" encoding="utf-8" ?>
<svg baseProfile="full" height="100px" version="1.1" width="150px" xmlns="http://www.w3.org/2000/svg" xmlns:ev="http://www.w3.org/2001/xml-events" xmlns:xlink="http://www.w3.org/1999/xlink"><defs><clipPath id="mask0"><rect height="100" width="150" x="0" y="0" /></clipPath></defs><g clip-path="url(#mask0)"><rect fill="#ffffff" height="7.142857142857143" stroke="none" width="150" x="0" y="0.0" /><rect fill="#CB001E" height="7.142857142857143" stroke="none" width="150" x="0" y="7.142857142857143" /><rect fill="#ffffff" height="7.142857142857143" stroke="none" width="150" x="0" y="14.285714285714286" /><rect fill="#CB001E" height="7.142857142857143" stroke="none" width="150" x="0" y="21.428571428571427" /><rect fill="#ffffff" height="7.142857142857143" stroke="none" width="150" x="0" y="28.571428571428573" /><rect fill="#CB001E" height="7.142857142857143" stroke="none" width="150" x="0" y="35.714285714285715" /><rect fill="#ffffff" height="7.142857142857143" stroke="none" width="150" x="0" y="42.857142857142854" /><rect fill="#CB001E" height="7.142857142857143" stroke="none" width="150" x="0" y="50.0" /><rect fill="#ffffff" height="7.142857142857143" stroke="none" width="150" x="0" y="57.142857142857146" /><rect fill="#CB001E" height="7.142857142857143" stroke="none" width="150" x="0" y="64.28571428571429" /><rect fill="#ffffff" height="7.142857142857143" stroke="none" width="150" x="0" y="71.42857142857143" /><rect fill="#CB001E" height="7.142857142857143" stroke="none" width="150" x="0" y="78.57142857142857" /><rect fill="#ffffff" height="7.142857142857143" stroke="none" width="150" x="0" y="85.71428571428571" /><rect fill="#CB001E" height="7.142857142857143" stroke="none" width="150" x="0" y="92.85714285714286" /><rect fill="#006699" height="50.0" stroke="none" width="75.0" x="0" y="0" /></g><g transform="translate(17.5, 11.666666666666668) scale(0.1) rotate(0, 50.0, 50.0)"><path d="M 72.0,12.5 C 80.6,12.5 87.5,48.7 87.5,93.4 L 100.0,93.4 C 100.0,45.300000000000004 87.4,6.400000000000006 71.9,6.400000000000006 C 63.10000000000001,6.400000000000006 55.300000000000004,18.100000000000005 50.10000000000001,36.400000000000006 C 44.900000000000006,18.100000000000005 37.10000000000001,6.400000000000006 28.40000000000001,6.400000000000006 C 12.90000000000001,6.400000000000006 0.40000000000000924,45.300000000000004 0.40000000000000924,93.4 L 12.90000000000001,93.4 C 12.90000000000001,48.7 19.80000000000001,12.600000000000009 28.40000000000001,12.600000000000009 C 37.00000000000001,12.600000000000009 43.900000000000006,46.00000000000001 43.900000000000006,87.2 L 56.300000000000004,87.2 C 56.3,45.9 63.3,12.5 72.0,12.5" fill="#fdef42" stroke="none" stroke-width="3.0px" /></g><g transform="translate(10.0, 28.333333333333336) scale(0.1) rotate(0, 50.0, 50.0)"><path d="M 72.0,12.5 C 80.6,12.5 87.5,48.7 87.5,93.4 L 100.0,93.4 C 100.0,45.300000000000004 87.4,6.400000000000006 71.9,6.400000000000006 C 63.10000000000001,6.400000000000006 55.300000000000004,18.100000000000005 50.10000000000001,36.400000000000006 C 44.900000000000006,18.100000000000005 37.10000000000001,6.400000000000006 28.40000000000001,6.400000000000006 C 12.90000000000001,6.400000000000006 0.40000000000000924,45.300000000000004 0.40000000000000924,93.4 L 12.90000000000001,93.4 C 12.90000000000001,48.7 19.80000000000001,12.600000000000009 28.40000000000001,12.600000000000009 C 37.00000000000001,12.600000000000009 43.900000000000006,46.00000000000001 43.900000000000006,87.2 L 56.300000000000004,87.2 C 56.3,45.9 63.3,12.5 72.0,12.5" fill="#fdef42" stroke="none" stroke-width="3.0px" /></g><g transform="translate(32.5, 11.666666666666668) scale(0.1) rotate(0, 50.0, 50.0)"><path d="M 72.0,12.5 C 80.6,12.5 87.5,48.7 87.5,93.4 L 100.0,93.4 C 100.0,45.300000000000004 87.4,6.400000000000006 71.9,6.400000000000006 C 63.10000000000001,6.400000000000006 55.300000000000004,18.100000000000005 50.10000000000001,36.400000000000006 C 44.900000000000006,18.100000000000005 37.10000000000001,6.400000000000006 28.40000000000001,6.400000000000006 C 12.90000000000001,6.400000000000006 0.40000000000000924,45.300000000000004 0.40000000000000924,93.4 L 12.90000000000001,93.4 C 12.90000000000001,48.7 19.80000000000001,12.600000000000009 28.40000000000001,12.600000000000009 C 37.00000000000001,12.600000000000009 43.900000000000006,46.00000000000001 43.900000000000006,87.2 L 56.300000000000004,87.2 C 56.3,45.9 63.3,12.5 72.0,12.5" fill="#fdef42" stroke="none" stroke-width="3.0px" /></g><g transform="translate(25.0, 28.333333333333336) scale(0.1) rotate(0, 50.0, 50.0)"><path d="M 72.0,12.5 C 80.6,12.5 87.5,48.7 87.5,93.4 L 100.0,93.4 C 100.0,45.300000000000004 87.4,6.400000000000006 71.9,6.400000000000006 C 63.10000000000001,6.400000000000006 55.300000000000004,18.100000000000005 50.10000000000001,36.400000000000006 C 44.900000000000006,18.100000000000005 37.10000000000001,6.400000000000006 28.40000000000001,6.400000000000006 C 12.90000000000001,6.400000000000006 0.40000000000000924,45.300000000000004 0.40000000000000924,93.4 L 12.90000000000001,93.4 C 12.90000000000001,48.7 19.80000000000001,12.600000000000009 28.40000000000001,12.600000000000009 C 37.00000000000001,12.600000000000009 43.900000000000006,46.00000000000001 43.900000000000006,87.2 L 56.300000000000004,87.2 C 56.3,45.9 63.3,12.5 72.0,12.5" fill="#fdef42" stroke="none" stroke-width="3.0px" /></g><g transform="translate(47.5, 11.666666666666668) scale(0.1) rotate(0, 50.0, 50.0)"><path d="M 72.0,12.5 C 80.6,12.5 87.5,48.7 87.5,93.4 L 100.0,93.4 C 100.0,45.300000000000004 87.4,6.400000000000006 71.9,6.400000000000006 C 63.10000000000001,6.400000000000006 55.300000000000004,18.100000000000005 50.10000000000001,36.400000000000006 C 44.900000000000006,18.100000000000005 37.10000000000001,6.400000000000006 28.40000000000001,6.400000000000006 C 12.90000000000001,6.400000000000006 0.40000000000000924,45.300000000000004 0.40000000000000924,93.4 L 12.90000000000001,93.4 C 12.90000000000001,48.7 19.80000000000001,12.600000000000009 28.40000000000001,12.600000000000009 C 37.00000000000001,12.600000000000009 43.900000000000006,46.00000000000001 43.900000000000006,87.2 L 56.300000000000004,87.2 C 56.3,45.9 63.3,12.5 72.0,12.5" fill="#fdef42" stroke="none" stroke-width="3.0px" /></g><g transform="translate(40.0, 28.333333333333336) scale(0.1) rotate(0, 50.0, 50.0)"><path d="M 72.0,12.5 C 80.6,12.5 87.5,48.7 87.5,93.4 L 100.0,93.4 C 100.0,45.300000000000004 87.4,6.400000000000006 71.9,6.400000000000006 C 63.10000000000001,6.400000000000006 55.300000000000004,18.100000000000005 50.10000000000001,36.400000000000006 C 44.900000000000006,18.100000000000005 37.10000000000001,6.400000000000006 28.40000000000001,6.400000000000006 C 12.90000000000001,6.400000000000006 0.40000000000000924,45.300000000000004 0.40000000000000924,93.4 L 12.90000000000001,93.4 C 12.90000000000001,48.7 19.80000000000001,12.600000000000009 28.40000000000001,12.600000000000009 C 37.00000000000001,12.600000000000009 43.900000000000006,46.00000000000001 43.900000000000006,87.2 L 56.300000000000004,87.2 C 56.3,45.9 63.3,12.5 72.0,12.5" fill="#fdef42" stroke="none" stroke-width="3.0px" /></g><g transform="translate(55.0, 28.333333333333336) scale(0.1) rotate(0, 50.0, 50.0)"><path d="M 72.0,12.5 C 80.6,12.5 87.5,48.7 87.5,93.4 L 100.0,93.4 C 100.0,45.300000000000004 87.4,6.400000000000006 71.9,6.400000000000006 C 63.10000000000001,6.400000000000006 55.300000000000004,18.100000000000005 50.10000000000001,36.400000000000006 C 44.900000000000006,18.100000000000005 37.10000000000001,6.400000000000006 28.40000000000001,6.400000000000006 C 12.90000000000001,6.400000000000006 0.40000000000000924,45.300000000000004 0.40000000000000924,93.4 L 12.90000000000001,93.4 C 12.90000000000001,48.7 19.80000000000001,12.600000000000009 28.40000000000001,12.600000000000009 C 37.00000000000001,12.600000000000009 43.900000000000006,46.00000000000001 43.900000000000006,87.2 L 56.300000000000004,87.2 C 56.3,45.9 63.3,12.5 72.0,12.5" fill="#fdef42" stroke="none" stroke-width="3.0px" /></g></svg>