<?xml version="1.0" encoding="utf-8" ?>
<svg baseProfile="full" height="100px" version="1.1" width="150px" xmlns="http://www.w3.org/2000/svg" xmlns:ev="http://www.w3.org/2001/xml-events" xmlns:xlink="http://www.w3.org/1999/xlink"><defs><clipPath id="mask0"><rect height="100" width="150" x="0" y="0" /></clipPath></defs><g clip-path="url(#mask0)"><rect fill="#708090" height="11.11111111111111" stroke="none" width="16.666666666666668" x="0.0" y="0.0" /><rect fill="#68bfe5" height="11.11111111111111" stroke="none" width="16.666666666666668" x="0.0" y="11.11111111111111" /><rect fill="#708090" height="11.11111111111111" stroke="none" width="16.666666666666668" x="0.0" y="22.22222222222222" /><rect fill="#68bfe5" height="11.11111111111111" stroke="none" width="16.666666666666668" x="0.0" y="33.333333333333336" /><rect fill="#708090" height="11.11111111111111" stroke="none" width="16.666666666666668" x="0.0" y="44.44444444444444" /><rect fill="#68bfe5" height="11.11111111111111" stroke="none" width="16.666666666666668" x="0.0" y="55.55555555555556" /><rect fill="#708090" height="11.11111111111111" stroke="none" width="16.666666666666668" x="0.0" y="66.66666666666667" /><rect fill="#68bfe5" height="11.11111111111111" stroke="none" width="16.666666666666668" x="0.0" y="77.77777777777777" /><rect fill="#708090" height="11.11111111111111" stroke="none" width="16.666666666666668" x="0.0" y="88.88888888888889" /><rect fill="#68bfe5" height="11.11111111111111" stroke="none" width="16.666666666666668" x="16.666666666666668" y="0.0" /><rect fill="#708090" height="11.11111111111111" stroke="none" width="16.666666666666668" x="16.666666666666668" y="11.11111111111111" /><rect fill="#68bfe5" height="11.11111111111111" stroke="none" width="16.666666666666668" x="16.666666666666668" y="22.22222222222222" /><rect fill="#708090" height="11.11111111111111" stroke="none" width="16.666666666666668" x="16.666666666666668" y="33.333333333333336" /><rect fill="#68bfe5" height="11.11111111111111" stroke="none" width="16.666666666666668" x="16.666666666666668" y="44.44444444444444" /><rect fill="#708090" height="11.11111111111111" stroke="none" width="16.666666666666668" x="16.666666666666668" y="55.55555555555556" /><rect fill="#68bfe5" height="11.11111111111111" stroke="none" width="16.666666666666668" x="16.666666666666668" y="66.66666666666667" /><rect fill="#708090" height="11.11111111111111" stroke="none" width="16.666666666666668" x="16.666666666666668" y="77.77777777777777" /><rect fill="#68bfe5" height="11.11111111111111" stroke="none" width="16.666666666666668" x="16.666666666666668" y="88.88888888888889" /><rect fill="#708090" height="11.11111111111111" stroke="none" width="16.666666666666668" x="33.333333333333336" y="0.0" /><rect fill="#68bfe5" height="11.11111111111111" stroke="none" width="16.666666666666668" x="33.333333333333336" y="11.11111111111111" /><rect fill="#708090" height="11.11111111111111" stroke="none" width="16.666666666666668" x="33.333333333333336" y="22.22222222222222" /><rect fill="#68bfe5" height="11.11111111111111" stroke="none" width="16.666666666666668" x="33.333333333333336" y="33.333333333333336" /><rect fill="#708090" height="11.11111111111111" stroke="none" width="16.666666666666668" x="33.333333333333336" y="44.44444444444444" /><rect fill="#68bfe5" height="11.11111111111111" stroke="none" width="16.666666666666668" x="33.333333333333336" y="55.55555555555556" /><rect fill="#708090" height="11.11111111111111" stroke="none" width="16.666666666666668" x="33.333333333333336" y="66.66666666666667" /><rect fill="#68bfe5" height="11.11111111111111" stroke="none" width="16.666666666666668" x="33.333333333333336" y="77.77777777777777" /><rect fill="#708090" height="11.11111111111111" stroke="none" width="16.666666666666668" x="33.333333333333336" y="88.88888888888889" /><rect fill="#68bfe5" height="11.11111111111111" stroke="none" width="16.666666666666668" x="50.0" y="0.0" /><rect fill="#708090" height="11.11111111111111" stroke="none" width="16.666666666666668" x="50.0" y="11.11111111111111" /><rect fill="#68bfe5" height="11.11111111111111" stroke="none" width="16.666666666666668" x="50.0" y="22.22222222222222" /><rect fill="#708090" height="11.11111111111111" stroke="none" width="16.666666666666668" x="50.0" y="33.333333333333336" /><rect fill="#68bfe5" height="11.11111111111111" stroke="none" width="16.666666666666668" x="50.0" y="44.44444444444444" /><rect fill="#708090" height="11.11111111111111" stroke="none" width="16.666666666666668" x="50.0" y="55.55555555555556" /><rect fill="#68bfe5" height="11.11111111111111" stroke="none" width="16.666666666666668" x="50.0" y="66.66666666666667" /><rect fill="#708090" height="11.11111111111111" stroke="none" width="16.666666666666668" x="50.0" y="77.77777777777777" /><rect fill="#68bfe5" height="11.11111111111111" stroke="none" width="16.666666666666668" x="50.0" y="88.88888888888889" /><rect fill="#708090" height="11.11111111111111" stroke="none" width="16.666666666666668" x="66.66666666666667" y="0.0" /><rect fill="#68bfe5" height="11.11111111111111" stroke="none" width="16.666666666666668" x="66.66666666666667" y="11.11111111111111" /><rect fill="#708090" height="11.11111111111111" stroke="none" width="16.666666666666668" x="66.66666666666667" y="22.22222222222222" /><rect fill="#68bfe5" height="11.11111111111111" stroke="none" width="16.666666666666668" x="66.66666666666667" y="33.333333333333336" /><rect fill="#708090" height="11.11111111111111" stroke="none" width="16.666666666666668" x="66.66666666666667" y="44.44444444444444" /><rect fill="#68bfe5" height="11.11111111111111" stroke="none" width="16.666666666666668" x="66.66666666666667" y="55.55555555555556" /><rect fill="#708090" height="11.11111111111111" stroke="none" width="16.666666666666668" x="66.66666666666667" y="66.66666666666667" /><rect fill="#68bfe5" height="11.11111111111111" stroke="none" width="16.666666666666668" x="66.66666666666667" y="77.77777777777777" /><rect fill="#708090" height="11.11111111111111" stroke="none" width="16.666666666666668" x="66.66666666666667" y="88.88888888888889" /><rect fill="#68bfe5" height="11.11111111111111" stroke="none" width="16.666666666666668" x="83.33333333333333" y="0.0" /><rect fill="#708090" height="11.11111111111111" stroke="none" width="16.666666666666668" x="83.33333333333333" y="11.11111111111111" /><rect fill="#68bfe5" height="11.11111111111111" stroke="none" width="16.666666666666668" x="83.33333333333333" y="22.22222222222222" /><rect fill="#708090" height="11.11111111111111" stroke="none" width="16.666666666666668" x="83.33333333333333" y="33.333333333333336" /><rect fill="#68bfe5" height="11.11111111111111" stroke="none" width="16.666666666666668" x="83.33333333333333" y="44.44444444444444" /><rect fill="#708090" height="11.11111111111111" stroke="none" width="16.666666666666668" x="83.33333333333333" y="55.55555555555556" /><rect fill="#68bfe5" height="11.11111111111111" stroke="none" width="16.666666666666668" x="83.33333333333333" y="66.66666666666667" /><rect fill="#708090" height="11.11111111111111" stroke="none" width="16.666666666666668" x="83.33333333333333" y="77.77777777777777" /><rect fill="#68bfe5" height="11.11111111111111" stroke="none" width="16.666666666666668" x="83.33333333333333" y="88.88888888888889" /><rect fill="#708090" height="11.11111111111111" stroke="none" width="16.666666666666668" x="100.0" y="0.0" /><rect fill="#68bfe5" height="11.11111111111111" stroke="none" width="16.666666666666668" x="100.0" y="11.11111111111111" /><rect fill="#708090" height="11.11111111111111" stroke="none" width="16.666666666666668" x="100.0" y="22.22222222222222" /><rect fill="#68bfe5" height="11.11111111111111" stroke="none" width="16.666666666666668" x="100.0" y="33.333333333333336" /><rect fill="#708090" height="11.11111111111111" stroke="none" width="16.666666666666668" x="100.0" y="44.44444444444444" /><rect fill="#68bfe5" height="11.11111111111111" stroke="none" width="16.666666666666668" x="100.0" y="55.55555555555556" /><rect fill="#708090" height="11.11111111111111" stroke="none" width="16.666666666666668" x="100.0" y="66.66666666666667" /><rect fill="#68bfe5" height="11.11111111111111" stroke="none" width="16.666666666666668" x="100.0" y="77.77777777777777" /><rect fill="#708090" height="11.11111111111111" stroke="none" width="16.666666666666668" x="100.0" y="88.88888888888889" /><rect fill="#68bfe5" height="11.11111111111111" stroke="none" width="16.666666666666668" x="116.66666666666667" y="0.0" /><rect fill="#708090" height="11.11111111111111" stroke="none" width="16.666666666666668" x="116.66666666666667" y="11.11111111111111" /><rect fill="#68bfe5" height="11.11111111111111" stroke="none" width="16.666666666666668" x="116.66666666666667" y="22.22222222222222" /><rect fill="#708090" height="11.11111111111111" stroke="none" width="16.666666666666668" x="116.66666666666667" y="33.333333333333336" /><rect fill="#68bfe5" height="11.11111111111111" stroke="none" width="16.666666666666668" x="116.66666666666667" y="44.44444444444444" /><rect fill="#708090" height="11.11111111111111" stroke="none" width="16.666666666666668" x="116.66666666666667" y="55.55555555555556" /><rect fill="#68bfe5" height="11.11111111111111" stroke="none" width="16.666666666666668" x="116.66666666666667" y="66.66666666666667" /><rect fill="#708090" height="11.11111111111111" stroke="none" width="16.666666666666668" x="116.66666666666667" y="77.77777777777777" /><rect fill="#68bfe5" height="11.11111111111111" stroke="none" width="16.666666666666668" x="116.66666666666667" y="88.88888888888889" /><rect fill="#708090" height="11.11111111111111" stroke="none" width="16.666666666666668" x="133.33333333333334" y="0.0" /><rect fill="#68bfe5" height="11.11111111111111" stroke="none" width="16.666666666666668" x="133.33333333333334" y="11.11111111111111" /><rect fill="#708090" height="11.11111111111111" stroke="none" width="16.666666666666668" x="133.33333333333334" y="22.22222222222222" /><rect fill="#68bfe5" height="11.11111111111111" stroke="none" width="16.666666666666668" x="133.33333333333334" y="33.333333333333336" /><rect fill="#708090" height="11.11111111111111" stroke="none" width="16.666666666666668" x="133.33333333333334" y="44.44444444444444" /><rect fill="#68bfe5" height="11.11111111111111" stroke="none" width="16.666666666666668" x="133.33333333333334" y="55.55555555555556" /><rect fill="#708090" height="11.11111111111111" stroke="none" width="16.666666666666668" x="133.33333333333334" y="66.66666666666667" /><rect fill="#68bfe5" height="11.11111111111111" stroke="none" width="16.666666666666668" x="133.33333333333334" y="77.77777777777777" /><rect fill="#708090" height="11.11111111111111" stroke="none" width="16.666666666666668" x="133.33333333333334" y="88.88888888888889" /></g><g transform="translate(44.768606947388804, 19.7686069473888) scale(0.604627861052224) rotate(0, 50.0, 50.0)"><path d="M 50.0,1.9 L 61.8,38.199999999999996 L 100.0,38.199999999999996 L 69.1,60.7 L 80.9,97.0 L 50.0,74.5 L 19.1,97.0 L 30.900000000000002,60.7 L 0.0,38.2 L 38.2,38.2 L 50.0,1.9" fill="#ff3333" stroke="#ffce00" stroke-width="3.0" /></g></svg>