<?xml version="1.0" encoding="utf-8" ?>
<svg baseProfile="full" height="100px" version="1.1" width="150px" xmlns="http://www.w3.org/2000/svg" xmlns:ev="http://www.w3.org/2001/xml-events" xmlns:xlink="http://www.w3.org/1999/xlink"><defs><clipPath id="mask0"><rect height="100" width="150" x="0" y="0" /></clipPath></defs><g clip-path="url(#mask0)"><path d="M0,100 L150,0 L150,100 z" fill="#000000" stroke="none" /><path d="M0,100 L150,0 L0,0 z" fill="#ff3333" stroke="none" /></g><g transform="translate(39.42553754246768, 14.42553754246768) scale(0.7114892491506464) rotate(0, 50.0, 50.0)"><path d="M 17.0,0.0 L 93.8,0.0 C 93.6,14.1 94.3,27.8 93.3,41.7 C 92.7,46.6 91.7,51.0 90.2,55.300000000000004 C 89.0,58.800000000000004 88.3,62.1 87.3,63.900000000000006 L 17.0,0.0" fill="#FECC08" stroke="none" stroke-width="0px" /><path d="M 50.2,100.0 C 26.0,87.9 10.8,68.4 7.2,40.8 C 6.8,37.699999999999996 6.7,37.0 6.5,32.9 C 6.4,31.9 6.4,26.9 6.4,21.7 L 6.2,0.0 L 17.7,0.0 C 41.0,21.1 64.2,42.5 87.6,63.4 C 81.1,78.3 65.1,92.4 50.2,100.0" fill="#293789" stroke="none" stroke-width="0px" /><path d="M 24.2,26.5 L 18.9,22.7 L 13.599999999999998,26.5 L 15.599999999999998,20.3 L 10.299999999999997,16.5 L 16.799999999999997,16.5 L 18.799999999999997,10.3 L 20.799999999999997,16.5 L 27.299999999999997,16.5 L 21.999999999999996,20.3 L 24.2,26.5 M 9.4,9.4 L 14.7,5.800000000000001 L 8.1,5.800000000000001 L 6.1,0.0 L 6.1,11.6 L 11.399999999999999,15.2 L 9.4,9.4 M 34.2,31.6 L 39.5,27.8 L 33.0,27.8 L 31.0,21.6 L 29.0,27.8 L 22.5,27.8 L 27.8,31.6 L 25.8,37.800000000000004 L 31.1,34.00000000000001 L 36.4,37.800000000000004 L 34.2,31.6 M 46.4,42.6 L 51.699999999999996,38.800000000000004 L 45.199999999999996,38.800000000000004 L 43.199999999999996,32.6 L 41.199999999999996,38.800000000000004 L 34.699999999999996,38.800000000000004 L 39.99999999999999,42.6 L 37.99999999999999,48.800000000000004 L 43.29999999999999,45.00000000000001 L 48.59999999999999,48.800000000000004 L 46.4,42.6 M 58.4,53.9 L 63.699999999999996,50.1 L 57.199999999999996,50.1 L 55.199999999999996,43.9 L 53.199999999999996,50.1 L 46.699999999999996,50.1 L 51.99999999999999,53.9 L 49.99999999999999,60.1 L 55.29999999999999,56.300000000000004 L 60.59999999999999,60.1 L 58.4,53.9 M 70.7,65.1 L 76.0,61.3 L 69.5,61.3 L 67.5,55.099999999999994 L 65.5,61.3 L 59.0,61.3 L 64.3,65.1 L 62.3,71.3 L 67.6,67.5 L 72.89999999999999,71.3 L 70.7,65.1 M 82.1,73.1 L 80.1,67.0 L 78.1,73.2 L 71.6,73.2 L 76.89999999999999,77.10000000000001 L 75.69999999999999,81.00000000000001 C 77.9,78.4 80.1,75.8 82.1,73.1" fill="#FFFFFF" stroke="none" stroke-width="0px" /></g></svg>