<?xml version="1.0" encoding="utf-8" ?>
<svg baseProfile="full" height="100px" version="1.1" width="150px" xmlns="http://www.w3.org/2000/svg" xmlns:ev="http://www.w3.org/2001/xml-events" xmlns:xlink="http://www.w3.org/1999/xlink"><defs><clipPath id="mask0"><rect height="100" width="150" x="0" y="0" /></clipPath></defs><g clip-path="url(#mask0)"><path d="M0,100 L150,0 L150,100 z" fill="#1b581c" stroke="none" /><path d="M0,100 L150,0 L0,0 z" fill="#cc0000" stroke="none" /></g><g transform="translate(50.02535598706613, 25.025355987066128) scale(0.49949288025867744) rotate(0, 50.0, 50.0)"><path d="M 53.3,0.0 C 38.0,5.1 27.4,15.1 22.5,30.6 C 19.0,41.7 19.8,52.7 24.9,63.2 C 31.4,76.7 42.0,85.1 56.6,88.1 C 71.1,91.1 84.1,87.5 95.6,78.19999999999999 C 91.6,84.1 86.6,88.89999999999999 80.5,92.6 C 69.0,99.5 56.7,101.69999999999999 43.6,98.69999999999999 C 28.700000000000003,95.29999999999998 17.5,86.69999999999999 10.300000000000004,73.19999999999999 C 3.9,61.2 2.7,48.4 6.7,35.3 C 10.9,21.499999999999996 19.8,11.399999999999999 32.7,4.899999999999999 C 39.2,1.7 46.1,0.1 53.3,0.0" fill="#00008b" stroke="none" stroke-width="3.0" /><path d="M 57.7,44.8 C 59.0,43.8 60.2,42.699999999999996 61.5,41.699999999999996 C 63.2,40.3 64.8,38.9 66.5,37.49999999999999 C 66.9,37.199999999999996 67.0,36.89999999999999 66.8,36.39999999999999 C 66.2,34.19999999999999 65.6,31.999999999999993 64.89999999999999,29.89999999999999 C 64.49999999999999,28.59999999999999 64.1,27.29999999999999 63.79999999999999,25.999999999999993 C 63.79999999999999,25.89999999999999 63.79999999999999,25.699999999999992 63.79999999999999,25.299999999999994 C 64.89999999999999,26.099999999999994 65.89999999999999,26.699999999999992 66.89999999999999,27.399999999999995 C 68.99999999999999,28.799999999999994 71.19999999999999,30.299999999999994 73.3,31.799999999999997 C 73.7,32.099999999999994 73.89999999999999,31.999999999999996 74.2,31.699999999999996 C 77.4,29.599999999999994 80.60000000000001,27.499999999999996 83.8,25.299999999999997 C 83.89999999999999,25.199999999999996 84.0,25.199999999999996 84.3,24.999999999999996 C 84.2,25.399999999999995 84.2,25.699999999999996 84.1,25.999999999999996 C 83.19999999999999,28.899999999999995 82.19999999999999,31.9 81.3,34.8 C 81.2,35.199999999999996 81.1,35.599999999999994 80.89999999999999,35.9 C 80.49999999999999,36.699999999999996 80.69999999999999,37.1 81.39999999999999,37.6 C 84.3,39.7 87.1,41.800000000000004 89.99999999999999,43.9 C 90.29999999999998,44.1 90.49999999999999,44.3 90.69999999999999,44.6 C 90.69999999999999,44.7 90.6,44.7 90.6,44.800000000000004 C 90.3,44.800000000000004 90.1,44.900000000000006 89.8,44.900000000000006 C 86.1,44.900000000000006 82.5,45.00000000000001 78.8,44.900000000000006 C 78.1,44.900000000000006 77.89999999999999,45.2 77.7,45.7 C 76.7,49.2 75.7,52.7 74.60000000000001,56.2 C 74.50000000000001,56.400000000000006 74.4,56.6 74.2,56.900000000000006 C 73.60000000000001,55.400000000000006 73.2,54.2 72.7,52.900000000000006 C 71.8,50.50000000000001 70.9,48.10000000000001 70.0,45.7 C 69.8,45.1 69.4,44.800000000000004 68.7,44.800000000000004 C 65.3,44.900000000000006 62.0,44.900000000000006 58.6,44.900000000000006 C 58.300000000000004,44.900000000000006 58.0,44.800000000000004 57.7,44.800000000000004 C 57.8,45.0 57.8,44.9 57.7,44.8" fill="#00008b" stroke="none" stroke-width="3.0" /></g></svg>