<?xml version="1.0" encoding="utf-8" ?>
<svg baseProfile="full" height="100px" version="1.1" width="150px" xmlns="http://www.w3.org/2000/svg" xmlns:ev="http://www.w3.org/2001/xml-events" xmlns:xlink="http://www.w3.org/1999/xlink"><defs><clipPath id="mask0"><rect height="100" width="150" x="0" y="0" /></clipPath></defs><g clip-path="url(#mask0)"><rect fill="#3299cc" height="11.11111111111111" stroke="none" width="25.0" x="0.0" y="0.0" /><rect fill="#ff3333" height="11.11111111111111" stroke="none" width="25.0" x="0.0" y="11.11111111111111" /><rect fill="#3299cc" height="11.11111111111111" stroke="none" width="25.0" x="0.0" y="22.22222222222222" /><rect fill="#ff3333" height="11.11111111111111" stroke="none" width="25.0" x="0.0" y="33.333333333333336" /><rect fill="#3299cc" height="11.11111111111111" stroke="none" width="25.0" x="0.0" y="44.44444444444444" /><rect fill="#ff3333" height="11.11111111111111" stroke="none" width="25.0" x="0.0" y="55.55555555555556" /><rect fill="#3299cc" height="11.11111111111111" stroke="none" width="25.0" x="0.0" y="66.66666666666667" /><rect fill="#ff3333" height="11.11111111111111" stroke="none" width="25.0" x="0.0" y="77.77777777777777" /><rect fill="#3299cc" height="11.11111111111111" stroke="none" width="25.0" x="0.0" y="88.88888888888889" /><rect fill="#ff3333" height="11.11111111111111" stroke="none" width="25.0" x="25.0" y="0.0" /><rect fill="#3299cc" height="11.11111111111111" stroke="none" width="25.0" x="25.0" y="11.11111111111111" /><rect fill="#ff3333" height="11.11111111111111" stroke="none" width="25.0" x="25.0" y="22.22222222222222" /><rect fill="#3299cc" height="11.11111111111111" stroke="none" width="25.0" x="25.0" y="33.333333333333336" /><rect fill="#ff3333" height="11.11111111111111" stroke="none" width="25.0" x="25.0" y="44.44444444444444" /><rect fill="#3299cc" height="11.11111111111111" stroke="none" width="25.0" x="25.0" y="55.55555555555556" /><rect fill="#ff3333" height="11.11111111111111" stroke="none" width="25.0" x="25.0" y="66.66666666666667" /><rect fill="#3299cc" height="11.11111111111111" stroke="none" width="25.0" x="25.0" y="77.77777777777777" /><rect fill="#ff3333" height="11.11111111111111" stroke="none" width="25.0" x="25.0" y="88.88888888888889" /><rect fill="#3299cc" height="11.11111111111111" stroke="none" width="25.0" x="50.0" y="0.0" /><rect fill="#ff3333" height="11.11111111111111" stroke="none" width="25.0" x="50.0" y="11.11111111111111" /><rect fill="#3299cc" height="11.11111111111111" stroke="none" width="25.0" x="50.0" y="22.22222222222222" /><rect fill="#ff3333" height="11.11111111111111" stroke="none" width="25.0" x="50.0" y="33.333333333333336" /><rect fill="#3299cc" height="11.11111111111111" stroke="none" width="25.0" x="50.0" y="44.44444444444444" /><rect fill="#ff3333" height="11.11111111111111" stroke="none" width="25.0" x="50.0" y="55.55555555555556" /><rect fill="#3299cc" height="11.11111111111111" stroke="none" width="25.0" x="50.0" y="66.66666666666667" /><rect fill="#ff3333" height="11.11111111111111" stroke="none" width="25.0" x="50.0" y="77.77777777777777" /><rect fill="#3299cc" height="11.11111111111111" stroke="none" width="25.0" x="50.0" y="88.88888888888889" /><rect fill="#ff3333" height="11.11111111111111" stroke="none" width="25.0" x="75.0" y="0.0" /><rect fill="#3299cc" height="11.11111111111111" stroke="none" width="25.0" x="75.0" y="11.11111111111111" /><rect fill="#ff3333" height="11.11111111111111" stroke="none" width="25.0" x="75.0" y="22.22222222222222" /><rect fill="#3299cc" height="11.11111111111111" stroke="none" width="25.0" x="75.0" y="33.333333333333336" /><rect fill="#ff3333" height="11.11111111111111" stroke="none" width="25.0" x="75.0" y="44.44444444444444" /><rect fill="#3299cc" height="11.11111111111111" stroke="none" width="25.0" x="75.0" y="55.55555555555556" /><rect fill="#ff3333" height="11.11111111111111" stroke="none" width="25.0" x="75.0" y="66.66666666666667" /><rect fill="#3299cc" height="11.11111111111111" stroke="none" width="25.0" x="75.0" y="77.77777777777777" /><rect fill="#ff3333" height="11.11111111111111" stroke="none" width="25.0" x="75.0" y="88.88888888888889" /><rect fill="#3299cc" height="11.11111111111111" stroke="none" width="25.0" x="100.0" y="0.0" /><rect fill="#ff3333" height="11.11111111111111" stroke="none" width="25.0" x="100.0" y="11.11111111111111" /><rect fill="#3299cc" height="11.11111111111111" stroke="none" width="25.0" x="100.0" y="22.22222222222222" /><rect fill="#ff3333" height="11.11111111111111" stroke="none" width="25.0" x="100.0" y="33.333333333333336" /><rect fill="#3299cc" height="11.11111111111111" stroke="none" width="25.0" x="100.0" y="44.44444444444444" /><rect fill="#ff3333" height="11.11111111111111" stroke="none" width="25.0" x="100.0" y="55.55555555555556" /><rect fill="#3299cc" height="11.11111111111111" stroke="none" width="25.0" x="100.0" y="66.66666666666667" /><rect fill="#ff3333" height="11.11111111111111" stroke="none" width="25.0" x="100.0" y="77.77777777777777" /><rect fill="#3299cc" height="11.11111111111111" stroke="none" width="25.0" x="100.0" y="88.88888888888889" /><rect fill="#ff3333" height="11.11111111111111" stroke="none" width="25.0" x="125.0" y="0.0" /><rect fill="#3299cc" height="11.11111111111111" stroke="none" width="25.0" x="125.0" y="11.11111111111111" /><rect fill="#ff3333" height="11.11111111111111" stroke="none" width="25.0" x="125.0" y="22.22222222222222" /><rect fill="#3299cc" height="11.11111111111111" stroke="none" width="25.0" x="125.0" y="33.333333333333336" /><rect fill="#ff3333" height="11.11111111111111" stroke="none" width="25.0" x="125.0" y="44.44444444444444" /><rect fill="#3299cc" height="11.11111111111111" stroke="none" width="25.0" x="125.0" y="55.55555555555556" /><rect fill="#ff3333" height="11.11111111111111" stroke="none" width="25.0" x="125.0" y="66.66666666666667" /><rect fill="#3299cc" height="11.11111111111111" stroke="none" width="25.0" x="125.0" y="77.77777777777777" /><rect fill="#ff3333" height="11.11111111111111" stroke="none" width="25.0" x="125.0" y="88.88888888888889" /></g><g transform="translate(49.410553155616576, 24.410553155616576) scale(0.5117889368876685) rotate(0, 50.0, 50.0)"><path d="M 70.7,33.2 C 72.7,32.900000000000006 74.7,32.5 76.8,32.7 C 78.3,32.7 79.7,32.6 81.1,33.0 C 85.39999999999999,36.0 90.8,32.0 90.39999999999999,27.1 C 89.39999999999999,23.6 84.99999999999999,21.0 81.49999999999999,22.5 C 79.29999999999998,23.3 78.59999999999998,24.7 81.49999999999999,24.8 C 85.19999999999999,27.2 80.99999999999999,32.2 77.59999999999998,30.0 C 73.89999999999998,27.7 74.09999999999998,21.7 78.29999999999998,20.2 C 71.69999999999999,18.3 76.09999999999998,6.5 82.09999999999998,11.1 C 82.99999999999999,11.799999999999999 82.89999999999998,13.0 82.79999999999998,14.0 C 82.19999999999999,15.6 80.39999999999998,15.8 79.09999999999998,16.2 C 81.79999999999998,19.9 87.99999999999999,18.4 89.69999999999997,14.5 C 92.19999999999997,7.5 83.79999999999997,4.800000000000001 78.59999999999998,7.6 C 77.49999999999999,8.0 75.39999999999998,8.0 74.29999999999998,7.6 C 72.99999999999999,7.5 71.79999999999998,7.3 70.59999999999998,7.1 C 70.29999999999998,7.199999999999999 69.79999999999998,6.8999999999999995 69.79999999999998,7.3999999999999995 L 69.79999999999998,33.0 C 69.9,33.4 70.4,33.2 70.7,33.2" fill="#fec50c" stroke="none" stroke-width="2.0" /><path d="M 18.9,32.9 C 20.2,32.6 21.7,32.6 23.2,32.6 C 25.3,32.5 27.299999999999997,32.800000000000004 29.299999999999997,33.1 C 29.599999999999998,33.0 30.099999999999998,33.300000000000004 30.099999999999998,32.800000000000004 L 30.099999999999998,7.3 C 30.099999999999998,6.8999999999999995 29.599999999999998,7.1 29.299999999999997,7.0 C 28.099999999999998,7.3 26.799999999999997,7.5 25.599999999999998,7.5 C 24.499999999999996,7.9 22.4,7.9 21.299999999999997,7.5 L 21.299999999999997,7.5 C 16.099999999999998,4.6 7.6999999999999975,7.4 10.199999999999998,14.4 C 11.899999999999997,18.3 18.099999999999998,19.8 20.799999999999997,16.1 C 19.599999999999998,15.700000000000001 17.699999999999996,15.500000000000002 17.099999999999998,13.900000000000002 C 16.9,12.900000000000002 16.9,11.700000000000003 17.799999999999997,11.000000000000002 C 23.799999999999997,6.400000000000002 28.199999999999996,18.3 21.599999999999998,20.1 C 25.9,21.6 26.099999999999998,27.6 22.299999999999997,29.900000000000002 C 18.9,32.1 14.799999999999997,27.1 18.4,24.700000000000003 C 21.299999999999997,24.6 20.599999999999998,23.200000000000003 18.4,22.400000000000002 C 14.899999999999999,20.900000000000002 10.599999999999998,23.500000000000004 9.499999999999998,27.0 C 9.2,32.0 14.6,35.9 18.9,32.9" fill="#fec50c" stroke="none" stroke-width="2.0" /><path d="M 81.6,82.5 C 79.39999999999999,83.3 78.69999999999999,84.7 81.6,84.8 C 85.3,87.2 81.1,92.2 77.69999999999999,90.0 C 73.99999999999999,87.7 74.19999999999999,81.7 78.39999999999999,80.2 C 71.8,78.3 76.19999999999999,66.5 82.19999999999999,71.10000000000001 C 83.1,71.80000000000001 82.99999999999999,73.00000000000001 82.89999999999999,74.00000000000001 C 82.3,75.60000000000001 80.49999999999999,75.80000000000001 79.19999999999999,76.20000000000002 C 81.89999999999999,79.90000000000002 88.1,78.40000000000002 89.79999999999998,74.50000000000001 C 92.29999999999998,67.50000000000001 83.89999999999998,64.80000000000001 78.69999999999999,67.60000000000001 C 77.6,68.00000000000001 75.49999999999999,68.00000000000001 74.39999999999999,67.60000000000001 C 73.1,67.50000000000001 71.89999999999999,67.30000000000001 70.69999999999999,67.10000000000001 C 70.39999999999999,67.2 69.89999999999999,66.9 69.89999999999999,67.4 L 69.89999999999999,93.0 C 69.89999999999999,93.4 70.39999999999999,93.2 70.69999999999999,93.3 C 72.69999999999999,93.0 74.69999999999999,92.6 76.79999999999998,92.8 C 78.29999999999998,92.8 79.69999999999999,92.7 81.09999999999998,93.1 C 85.39999999999998,96.1 90.79999999999998,92.1 90.39999999999998,87.19999999999999 C 89.4,83.5 85.1,81.0 81.6,82.5" fill="#fec50c" stroke="none" stroke-width="2.0" /><path d="M 29.3,67.1 C 28.1,67.39999999999999 26.8,67.6 25.6,67.6 C 24.5,68.0 22.400000000000002,68.0 21.3,67.6 L 21.3,67.6 C 16.1,64.69999999999999 7.700000000000001,67.5 10.200000000000001,74.5 C 11.9,78.4 18.1,79.9 20.8,76.2 C 19.6,75.8 17.7,75.60000000000001 17.1,74.0 C 16.900000000000002,73.0 16.900000000000002,71.8 17.8,71.1 C 23.8,66.5 28.200000000000003,78.39999999999999 21.6,80.19999999999999 C 25.900000000000002,81.69999999999999 26.1,87.69999999999999 22.3,89.99999999999999 C 18.900000000000002,92.19999999999999 14.8,87.19999999999999 18.400000000000002,84.79999999999998 C 21.3,84.69999999999999 20.6,83.29999999999998 18.400000000000002,82.49999999999999 C 14.900000000000002,80.99999999999999 10.600000000000001,83.59999999999998 9.500000000000002,87.09999999999998 C 9.200000000000001,91.99999999999999 14.500000000000002,95.89999999999998 18.800000000000004,92.99999999999999 C 20.100000000000005,92.69999999999999 21.600000000000005,92.69999999999999 23.100000000000005,92.69999999999999 C 25.200000000000006,92.6 27.200000000000003,92.89999999999999 29.200000000000003,93.19999999999999 C 29.500000000000004,93.1 30.000000000000004,93.39999999999999 30.000000000000004,92.89999999999999 L 30.000000000000004,67.3 C 30.1,66.9 29.6,67.1 29.3,67.1" fill="#fec50c" stroke="none" stroke-width="2.0" /><path d="M 60.0,40.0 L 60.0,0.0 L 40.0,0.0 L 40.0,40.0 L 0.0,40.0 L 0.0,60.0 L 40.0,60.0 L 40.0,100.0 L 60.0,100.0 L 60.0,60.0 L 100.0,60.0 L 100.0,40.0 L 60.0,40.0" fill="#fec50c" stroke="none" stroke-width="2.0" /></g></svg>