<?xml version="1.0" encoding="utf-8" ?>
<svg baseProfile="full" height="100px" version="1.1" width="150px" xmlns="http://www.w3.org/2000/svg"
     xmlns:ev="http://www.w3.org/2001/xml-events" xmlns:xlink="http://www.w3.org/1999/xlink">
    <defs>
        <clipPath id="mask0">
            <rect height="100" width="150" x="0" y="0"/>
        </clipPath>
    </defs>
    <g clip-path="url(#mask0)">
        <rect fill="#ff6602" height="7.6923076923076925" stroke="none" width="150" x="0" y="0.0"/>
        <rect fill="#ffce00" height="7.6923076923076925" stroke="none" width="150" x="0" y="7.6923076923076925"/>
        <rect fill="#229e45" height="7.6923076923076925" stroke="none" width="150" x="0" y="15.384615384615385"/>
        <rect fill="#0066cc" height="7.6923076923076925" stroke="none" width="150" x="0" y="23.076923076923077"/>
        <rect fill="#6f1aa5" height="7.6923076923076925" stroke="none" width="150" x="0" y="30.76923076923077"/>
        <rect fill="#935316" height="7.6923076923076925" stroke="none" width="150" x="0" y="38.46153846153846"/>
        <rect fill="#cc0000" height="7.6923076923076925" stroke="none" width="150" x="0" y="46.15384615384615"/>
        <rect fill="#ff9901" height="7.6923076923076925" stroke="none" width="150" x="0" y="53.84615384615385"/>
        <rect fill="#fec50c" height="7.6923076923076925" stroke="none" width="150" x="0" y="61.53846153846154"/>
        <rect fill="#339933" height="7.6923076923076925" stroke="none" width="150" x="0" y="69.23076923076923"/>
        <rect fill="#003897" height="7.6923076923076925" stroke="none" width="150" x="0" y="76.92307692307692"/>
        <rect fill="#630356" height="7.6923076923076925" stroke="none" width="150" x="0" y="84.61538461538461"/>
        <rect fill="#935316" height="7.6923076923076925" stroke="none" width="150" x="0" y="92.3076923076923"/>
    </g>
    <g transform="translate(42.580150124042085, 17.580150124042085) scale(0.6483969975191584) rotate(0, 50.0, 50.0)">
        <path d="M 50.0,1.9 L 61.8,38.199999999999996 L 100.0,38.199999999999996 L 69.1,60.7 L 80.9,97.0 L 50.0,74.5 L 19.1,97.0 L 30.900000000000002,60.7 L 0.0,38.2 L 38.2,38.2 L 50.0,1.9"
              fill="#cc0000" stroke="#ff9901" stroke-width="2"/>
    </g>
</svg>