<?xml version="1.0" encoding="utf-8" ?>
<svg baseProfile="full" height="100px" version="1.1" width="150px" xmlns="http://www.w3.org/2000/svg" xmlns:ev="http://www.w3.org/2001/xml-events" xmlns:xlink="http://www.w3.org/1999/xlink"><defs><clipPath id="mask0"><rect height="100" width="150" x="0" y="0" /></clipPath></defs><g clip-path="url(#mask0)"><rect fill="#ffffff" height="20.0" stroke="none" width="30.0" x="0.0" y="0.0" /><rect fill="#ffce00" height="20.0" stroke="none" width="30.0" x="0.0" y="20.0" /><rect fill="#ffffff" height="20.0" stroke="none" width="30.0" x="0.0" y="40.0" /><rect fill="#ffce00" height="20.0" stroke="none" width="30.0" x="0.0" y="60.0" /><rect fill="#ffffff" height="20.0" stroke="none" width="30.0" x="0.0" y="80.0" /><rect fill="#ffce00" height="20.0" stroke="none" width="30.0" x="30.0" y="0.0" /><rect fill="#ffffff" height="20.0" stroke="none" width="30.0" x="30.0" y="20.0" /><rect fill="#ffce00" height="20.0" stroke="none" width="30.0" x="30.0" y="40.0" /><rect fill="#ffffff" height="20.0" stroke="none" width="30.0" x="30.0" y="60.0" /><rect fill="#ffce00" height="20.0" stroke="none" width="30.0" x="30.0" y="80.0" /><rect fill="#ffffff" height="20.0" stroke="none" width="30.0" x="60.0" y="0.0" /><rect fill="#ffce00" height="20.0" stroke="none" width="30.0" x="60.0" y="20.0" /><rect fill="#ffffff" height="20.0" stroke="none" width="30.0" x="60.0" y="40.0" /><rect fill="#ffce00" height="20.0" stroke="none" width="30.0" x="60.0" y="60.0" /><rect fill="#ffffff" height="20.0" stroke="none" width="30.0" x="60.0" y="80.0" /><rect fill="#ffce00" height="20.0" stroke="none" width="30.0" x="90.0" y="0.0" /><rect fill="#ffffff" height="20.0" stroke="none" width="30.0" x="90.0" y="20.0" /><rect fill="#ffce00" height="20.0" stroke="none" width="30.0" x="90.0" y="40.0" /><rect fill="#ffffff" height="20.0" stroke="none" width="30.0" x="90.0" y="60.0" /><rect fill="#ffce00" height="20.0" stroke="none" width="30.0" x="90.0" y="80.0" /><rect fill="#ffffff" height="20.0" stroke="none" width="30.0" x="120.0" y="0.0" /><rect fill="#ffce00" height="20.0" stroke="none" width="30.0" x="120.0" y="20.0" /><rect fill="#ffffff" height="20.0" stroke="none" width="30.0" x="120.0" y="40.0" /><rect fill="#ffce00" height="20.0" stroke="none" width="30.0" x="120.0" y="60.0" /><rect fill="#ffffff" height="20.0" stroke="none" width="30.0" x="120.0" y="80.0" /></g><g transform="translate(51.732428696818765, 26.732428696818765) scale(0.46535142606362473) rotate(0, 50.0, 50.0)"><path d="M 76.7,51.3 C 74.2,50.9 71.4,52.4 70.5,54.5 C 69.9,56.0 70.3,57.5 70.7,58.7 C 69.10000000000001,58.800000000000004 67.2,59.0 66.0,60.1 C 64.1,61.5 63.2,63.800000000000004 64.8,66.7 C 66.3,69.3 69.89999999999999,69.60000000000001 72.2,67.5 C 71.4,71.9 69.3,73.7 67.10000000000001,73.7 C 64.9,73.7 63.400000000000006,72.8 62.00000000000001,70.4 C 60.50000000000001,72.9 58.300000000000004,73.7 56.20000000000001,73.7 C 53.40000000000001,73.7 50.60000000000001,70.4 50.90000000000001,67.2 C 52.100000000000016,67.8 53.70000000000001,68.8 56.000000000000014,68.8 C 58.20000000000002,68.8 61.000000000000014,67.0 61.000000000000014,63.3 C 61.000000000000014,58.5 55.20000000000002,58.199999999999996 54.40000000000001,58.8 C 54.80000000000001,57.9 55.500000000000014,56.699999999999996 55.000000000000014,54.599999999999994 C 54.80000000000001,53.699999999999996 53.100000000000016,50.99999999999999 50.000000000000014,50.99999999999999 C 46.40000000000001,50.99999999999999 45.20000000000002,54.599999999999994 45.20000000000002,54.599999999999994 C 44.600000000000016,56.39999999999999 45.20000000000002,57.599999999999994 45.70000000000002,58.8 C 44.600000000000016,58.199999999999996 39.000000000000014,58.3 38.90000000000002,63.3 C 38.80000000000002,67.39999999999999 41.80000000000002,68.8 43.70000000000002,68.8 C 45.70000000000002,68.8 47.70000000000002,67.8 48.80000000000002,67.2 C 49.20000000000002,69.9 46.40000000000002,73.7 43.20000000000002,73.7 C 40.600000000000016,73.7 39.30000000000002,72.3 38.100000000000016,70.4 C 37.20000000000002,72.4 35.70000000000002,73.7 33.100000000000016,73.7 C 30.800000000000015,73.7 28.200000000000017,71.10000000000001 27.100000000000016,67.60000000000001 C 29.600000000000016,69.60000000000001 33.000000000000014,68.9 34.600000000000016,67.30000000000001 C 37.100000000000016,65.10000000000001 36.40000000000001,60.90000000000001 33.30000000000002,59.500000000000014 C 32.00000000000002,58.70000000000002 30.40000000000002,58.600000000000016 28.80000000000002,58.70000000000002 C 29.10000000000002,57.20000000000002 29.40000000000002,55.80000000000002 28.700000000000017,54.500000000000014 C 27.900000000000016,52.20000000000002 25.000000000000018,51.100000000000016 22.600000000000016,51.30000000000001 C 23.800000000000015,60.000000000000014 25.300000000000015,68.70000000000002 26.800000000000015,77.4 L 72.20000000000002,77.4 L 76.7,51.3 L 76.7,51.3 M 27.3,78.6 L 29.0,89.4 L 70.4,89.4 C 71.10000000000001,85.80000000000001 71.7,82.30000000000001 72.30000000000001,78.60000000000001 L 27.3,78.60000000000001 L 27.3,78.6" fill="#e93d8c" stroke="none" stroke-width="2.0px" /><path d="M 100.0,11.9 C 97.9,11.6 95.6,12.8 94.8,14.600000000000001 C 94.3,15.900000000000002 94.7,17.1 95.0,18.200000000000003 C 93.6,18.300000000000004 92.0,18.500000000000004 91.0,19.400000000000002 C 89.4,20.6 89.2,22.700000000000003 89.8,24.300000000000004 C 90.7,26.600000000000005 93.1,27.000000000000004 95.3,26.900000000000006 C 95.3,29.700000000000006 93.39999999999999,30.800000000000004 91.89999999999999,30.800000000000004 C 90.1,30.800000000000004 88.8,30.000000000000004 87.6,28.000000000000004 C 86.39999999999999,30.100000000000005 84.5,30.800000000000004 82.69999999999999,30.800000000000004 C 80.29999999999998,30.800000000000004 77.99999999999999,28.000000000000004 78.19999999999999,25.300000000000004 C 79.19999999999999,25.800000000000004 80.6,26.600000000000005 82.49999999999999,26.600000000000005 C 84.39999999999999,26.600000000000005 86.69999999999999,25.100000000000005 86.69999999999999,22.000000000000007 C 86.69999999999999,17.900000000000006 81.79999999999998,17.700000000000006 81.19999999999999,18.200000000000006 C 81.49999999999999,17.500000000000007 82.19999999999999,16.400000000000006 81.69999999999999,14.700000000000006 C 81.49999999999999,13.900000000000006 80.1,11.600000000000007 77.49999999999999,11.600000000000007 C 74.39999999999999,11.600000000000007 73.49999999999999,14.700000000000006 73.49999999999999,14.700000000000006 C 72.99999999999999,16.200000000000006 73.49999999999999,17.200000000000006 73.99999999999999,18.200000000000006 C 72.99999999999999,17.700000000000006 68.39999999999999,17.700000000000006 68.29999999999998,22.000000000000007 C 68.19999999999999,25.400000000000006 70.69999999999999,26.60000000000001 72.39999999999998,26.60000000000001 C 74.09999999999998,26.60000000000001 75.79999999999998,25.800000000000008 76.69999999999997,25.300000000000008 C 76.99999999999997,27.60000000000001 74.69999999999997,30.800000000000008 71.89999999999998,30.800000000000008 C 69.69999999999997,30.800000000000008 68.59999999999998,29.60000000000001 67.59999999999998,28.000000000000007 C 66.79999999999998,29.700000000000006 65.59999999999998,30.800000000000008 63.39999999999998,30.800000000000008 C 61.199999999999974,30.800000000000008 59.89999999999998,28.60000000000001 59.39999999999998,26.90000000000001 C 61.299999999999976,27.10000000000001 63.299999999999976,26.800000000000008 64.69999999999997,25.40000000000001 C 66.79999999999997,23.60000000000001 66.19999999999997,20.000000000000007 63.59999999999997,18.80000000000001 C 62.49999999999997,18.100000000000012 61.09999999999997,18.00000000000001 59.799999999999976,18.100000000000012 C 59.99999999999998,16.900000000000013 60.299999999999976,15.700000000000012 59.799999999999976,14.500000000000012 C 59.09999999999997,12.500000000000012 56.699999999999974,11.600000000000012 54.59999999999997,11.800000000000011 C 55.59999999999997,19.20000000000001 56.89999999999997,26.50000000000001 58.199999999999974,33.80000000000001 L 96.49999999999997,33.80000000000001 L 100.0,11.9 L 100.0,11.9 M 58.3,34.9 L 59.8,44.0 L 94.69999999999999,44.0 C 95.29999999999998,40.9 95.79999999999998,38.0 96.29999999999998,34.9 L 58.3,34.9 L 58.3,34.9" fill="#e93d8c" stroke="none" stroke-width="2.0px" /><path d="M 45.4,11.9 C 43.3,11.6 41.0,12.8 40.199999999999996,14.600000000000001 C 39.699999999999996,15.900000000000002 40.099999999999994,17.1 40.4,18.200000000000003 C 39.0,18.300000000000004 37.4,18.500000000000004 36.4,19.400000000000002 C 34.8,20.6 34.6,22.700000000000003 35.199999999999996,24.300000000000004 C 36.099999999999994,26.600000000000005 38.49999999999999,27.000000000000004 40.699999999999996,26.900000000000006 C 40.699999999999996,29.700000000000006 38.8,30.800000000000004 37.3,30.800000000000004 C 35.5,30.800000000000004 34.199999999999996,30.000000000000004 33.0,28.000000000000004 C 31.7,30.100000000000005 29.9,30.800000000000004 28.1,30.800000000000004 C 25.700000000000003,30.800000000000004 23.400000000000002,28.000000000000004 23.6,25.300000000000004 C 24.6,25.800000000000004 26.0,26.600000000000005 27.900000000000002,26.600000000000005 C 29.8,26.600000000000005 32.1,25.100000000000005 32.1,22.000000000000007 C 32.1,17.900000000000006 27.200000000000003,17.700000000000006 26.6,18.200000000000006 C 26.900000000000002,17.500000000000007 27.6,16.400000000000006 27.1,14.700000000000006 C 27.0,14.0 25.6,11.7 23.0,11.7 C 19.9,11.7 19.0,14.799999999999999 19.0,14.799999999999999 C 18.5,16.299999999999997 19.0,17.299999999999997 19.5,18.299999999999997 C 18.5,17.799999999999997 13.9,17.799999999999997 13.8,22.099999999999998 C 13.700000000000001,25.499999999999996 16.2,26.699999999999996 17.9,26.699999999999996 C 19.599999999999998,26.699999999999996 21.299999999999997,25.899999999999995 22.2,25.399999999999995 C 22.5,27.699999999999996 20.2,30.899999999999995 17.4,30.899999999999995 C 15.2,30.899999999999995 14.099999999999998,29.699999999999996 13.099999999999998,28.099999999999994 C 12.299999999999997,29.799999999999994 11.099999999999998,30.899999999999995 8.899999999999999,30.899999999999995 C 6.699999999999998,30.899999999999995 5.399999999999999,28.699999999999996 4.899999999999999,26.999999999999996 C 6.799999999999999,27.199999999999996 8.799999999999999,26.899999999999995 10.2,25.499999999999996 C 12.299999999999999,23.699999999999996 11.7,20.099999999999994 9.1,18.9 C 8.0,18.2 6.6,18.099999999999998 5.3,18.2 C 5.5,17.0 5.8,15.799999999999999 5.3,14.6 C 4.6,12.6 2.1999999999999997,11.7 0.09999999999999964,11.899999999999999 C 1.0999999999999996,19.299999999999997 2.3999999999999995,26.599999999999998 3.6999999999999997,33.9 L 42.0,33.9 L 45.4,11.9 L 45.4,11.9 M 3.7,34.9 L 5.2,44.0 L 40.1,44.0 C 40.7,40.9 41.2,38.0 41.7,34.9 L 3.7,34.9 L 3.7,34.9" fill="#e93d8c" stroke="none" stroke-width="2.0px" /></g></svg>