<?xml version="1.0" encoding="utf-8" ?>
<svg baseProfile="full" height="100px" version="1.1" width="150px" xmlns="http://www.w3.org/2000/svg" xmlns:ev="http://www.w3.org/2001/xml-events" xmlns:xlink="http://www.w3.org/1999/xlink"><defs><clipPath id="mask0"><rect height="100" width="150" x="0" y="0" /></clipPath></defs><g clip-path="url(#mask0)"><rect fill="#ffce00" height="100" stroke="none" width="150" x="0" y="0" /><rect fill="#DCDCDC" height="100" stroke="none" width="40.73420850908526" x="0" y="0" /></g><g transform="translate(66.16751395252021, 20.800409697977596) scale(0.5839918060404481) rotate(0, 50.0, 50.0)"><path d="M 98.3,36.3 C 95.89999999999999,32.699999999999996 91.89999999999999,30.599999999999998 89.39999999999999,27.099999999999998 C 87.49999999999999,24.4 87.1,20.9 85.19999999999999,18.199999999999996 C 83.6,15.899999999999995 81.69999999999999,13.799999999999995 79.49999999999999,12.199999999999996 C 78.39999999999999,11.399999999999995 77.09999999999998,10.699999999999996 75.79999999999998,10.499999999999996 C 74.19999999999999,10.299999999999997 72.59999999999998,10.599999999999996 70.99999999999999,10.699999999999996 C 58.7,10.0 46.4,9.5 34.2,11.0 C 28.800000000000004,11.7 23.500000000000004,12.7 18.400000000000002,14.7 C 14.700000000000003,16.099999999999998 11.200000000000003,18.099999999999998 8.400000000000002,21.0 C 8.500000000000002,22.9 8.300000000000002,24.9 7.400000000000002,26.6 C 5.8000000000000025,29.900000000000002 2.400000000000002,31.700000000000003 0.700000000000002,34.8 C -0.39999999999999813,37.5 -0.19999999999999807,40.5 0.700000000000002,43.199999999999996 C 1.900000000000002,46.8 4.100000000000001,49.8 5.100000000000002,53.5 C 6.100000000000002,58.1 5.700000000000002,62.8 5.100000000000002,67.4 C 4.6,72.2 3.9,77.0 4.3,81.8 C 4.8999999999999995,83.39999999999999 5.9,84.8 7.0,86.1 C 9.9,89.19999999999999 14.1,90.6 18.2,91.1 C 24.2,91.69999999999999 30.2,90.8 36.099999999999994,89.5 C 38.49999999999999,89.0 40.89999999999999,88.3 43.3,87.9 C 46.099999999999994,87.4 48.9,87.10000000000001 51.599999999999994,86.0 C 54.39999999999999,84.8 57.099999999999994,83.2 59.89999999999999,81.9 C 65.8,79.0 71.89999999999999,76.60000000000001 77.6,73.2 C 81.5,70.8 85.19999999999999,68.0 87.8,64.2 C 88.89999999999999,62.300000000000004 89.3,60.2 90.39999999999999,58.300000000000004 C 92.1,55.50000000000001 94.6,53.300000000000004 96.89999999999999,51.00000000000001 C 98.6,49.20000000000001 99.89999999999999,47.00000000000001 100.1,44.50000000000001 C 100.2,41.6 99.9,38.6 98.3,36.3 M 96.4,47.3 C 94.80000000000001,50.099999999999994 92.30000000000001,52.099999999999994 89.4,53.5 C 89.5,53.6 89.7,53.6 89.80000000000001,53.7 C 90.30000000000001,53.5 90.80000000000001,53.2 91.20000000000002,52.900000000000006 C 91.30000000000001,53.00000000000001 91.40000000000002,53.300000000000004 91.50000000000001,53.400000000000006 C 90.80000000000001,53.900000000000006 90.00000000000001,54.300000000000004 89.40000000000002,55.00000000000001 C 88.10000000000002,56.60000000000001 87.70000000000002,58.60000000000001 87.00000000000001,60.400000000000006 C 86.20000000000002,62.50000000000001 84.70000000000002,64.30000000000001 83.20000000000002,65.9 C 79.40000000000002,69.60000000000001 74.70000000000002,72.2 70.00000000000001,74.5 C 66.70000000000002,76.1 63.20000000000002,77.7 59.90000000000001,79.3 C 57.000000000000014,80.7 54.20000000000001,82.39999999999999 51.20000000000002,83.8 C 50.500000000000014,84.1 49.90000000000002,84.39999999999999 49.20000000000002,84.5 C 48.20000000000002,84.5 47.20000000000002,84.2 46.20000000000002,84.3 C 44.40000000000002,84.5 42.80000000000002,85.2 41.100000000000016,85.8 C 37.600000000000016,87.1 34.000000000000014,87.8 30.400000000000016,88.3 C 26.30000000000002,88.8 22.100000000000016,89.1 18.000000000000014,88.6 C 14.600000000000014,88.1 11.100000000000014,87.19999999999999 8.700000000000014,84.69999999999999 C 7.400000000000014,83.29999999999998 6.300000000000013,81.39999999999999 6.500000000000013,79.49999999999999 C 6.500000000000013,71.49999999999999 8.600000000000014,63.59999999999999 7.900000000000013,55.59999999999999 C 7.600000000000013,53.19999999999999 7.200000000000013,50.59999999999999 5.900000000000013,48.499999999999986 C 4.900000000000013,46.69999999999999 3.400000000000013,45.09999999999999 2.900000000000013,42.999999999999986 C 2.400000000000013,40.59999999999999 2.400000000000013,37.899999999999984 3.500000000000013,35.59999999999999 C 4.900000000000013,32.59999999999999 8.100000000000012,30.999999999999986 9.400000000000013,27.999999999999986 C 10.100000000000012,26.399999999999984 10.200000000000014,24.699999999999985 10.100000000000012,22.999999999999986 C 13.600000000000012,18.999999999999986 18.400000000000013,15.999999999999986 23.70000000000001,14.999999999999986 C 27.30000000000001,14.299999999999986 30.90000000000001,15.099999999999985 34.500000000000014,15.199999999999985 C 41.70000000000002,15.699999999999985 48.80000000000001,13.199999999999985 56.100000000000016,13.499999999999986 C 59.40000000000001,13.699999999999985 62.70000000000002,14.699999999999985 65.70000000000002,16.099999999999987 C 69.00000000000001,17.69999999999999 72.00000000000001,19.799999999999986 75.10000000000002,21.799999999999986 C 76.10000000000002,22.399999999999988 77.10000000000002,22.999999999999986 78.20000000000002,23.499999999999986 C 74.90000000000002,20.899999999999984 71.60000000000002,18.399999999999984 67.90000000000002,16.399999999999984 C 64.10000000000002,14.299999999999985 59.80000000000002,13.099999999999984 55.40000000000002,12.899999999999984 C 48.20000000000002,12.699999999999985 41.10000000000002,14.799999999999985 33.80000000000002,14.599999999999984 C 32.20000000000002,14.499999999999984 30.500000000000018,14.499999999999984 28.90000000000002,14.099999999999984 C 41.10000000000002,12.299999999999983 53.40000000000002,11.599999999999984 65.70000000000002,11.999999999999984 C 68.60000000000002,12.199999999999983 71.50000000000001,11.999999999999984 74.40000000000002,12.399999999999984 C 76.80000000000003,12.699999999999985 79.10000000000002,14.099999999999984 80.60000000000002,15.999999999999984 C 84.40000000000002,20.399999999999984 85.50000000000003,26.399999999999984 89.40000000000002,30.69999999999998 C 87.80000000000003,30.89999999999998 86.10000000000002,30.39999999999998 84.50000000000001,30.59999999999998 C 84.00000000000001,30.59999999999998 83.60000000000001,30.89999999999998 83.20000000000002,31.19999999999998 C 85.70000000000002,30.89999999999998 88.30000000000001,30.999999999999982 90.70000000000002,31.999999999999982 C 93.90000000000002,33.29999999999998 96.50000000000001,36.09999999999998 97.50000000000001,39.399999999999984 C 98.1,42.1 97.7,45.0 96.4,47.3" fill="#007934" stroke="#ff1ea8" stroke-width="2.0" /><path d="M 46.6,16.6 C 52.4,15.8 58.400000000000006,16.1 64.0,18.1 C 67.4,19.3 70.5,21.200000000000003 73.2,23.6 C 74.10000000000001,24.400000000000002 75.0,25.3 75.60000000000001,26.3 C 71.10000000000001,22.200000000000003 65.7,19.0 59.70000000000001,17.6 C 56.10000000000001,16.8 52.30000000000001,16.6 48.60000000000001,16.900000000000002 C 45.70000000000001,17.200000000000003 43.00000000000001,18.400000000000002 40.00000000000001,18.500000000000004 C 34.60000000000001,18.900000000000002 29.300000000000008,18.300000000000004 23.900000000000006,17.600000000000005 C 23.400000000000006,17.500000000000004 22.900000000000006,17.400000000000006 22.300000000000004,17.500000000000004 C 21.400000000000006,18.000000000000004 20.700000000000003,18.800000000000004 19.600000000000005,19.000000000000004 C 20.300000000000004,17.800000000000004 21.500000000000004,17.100000000000005 22.900000000000006,16.900000000000002 C 25.600000000000005,16.6 28.100000000000005,17.500000000000004 30.800000000000004,17.8 C 36.1,18.3 41.4,17.3 46.6,16.6" fill="#007934" stroke="#ff1ea8" stroke-width="2.0" /><path d="M 50.5,19.6 C 55.9,19.0 61.4,19.400000000000002 66.4,21.6 C 68.7,22.700000000000003 71.10000000000001,24.3 71.80000000000001,26.900000000000002 C 70.10000000000001,23.900000000000002 67.00000000000001,22.200000000000003 63.80000000000001,21.300000000000004 C 59.000000000000014,19.900000000000006 53.90000000000001,19.700000000000003 48.90000000000001,19.900000000000006 C 49.4,19.8 50.0,19.7 50.5,19.6" fill="#007934" stroke="#ff1ea8" stroke-width="2.0" /><path d="M 22.7,21.5 C 26.3,20.3 30.2,20.3 33.9,21.1 C 34.6,21.200000000000003 35.3,21.3 35.9,21.700000000000003 C 36.3,21.900000000000002 35.9,22.300000000000004 35.9,22.6 C 32.6,21.3 29.0,20.900000000000002 25.5,21.400000000000002 C 23.4,21.8 21.2,22.700000000000003 19.9,24.400000000000002 C 19.299999999999997,25.1 19.0,26.000000000000004 18.7,26.900000000000002 C 18.8,25.6 19.3,24.400000000000002 19.8,23.200000000000003 C 20.6,22.3 21.7,21.9 22.7,21.5" fill="#007934" stroke="#ff1ea8" stroke-width="2.0" /><path d="M 50.1,20.8 C 50.5,20.400000000000002 50.9,20.8 51.2,20.900000000000002 C 50.0,21.6 49.1,22.700000000000003 48.6,24.000000000000004 C 48.5,24.800000000000004 48.7,25.600000000000005 48.4,26.300000000000004 C 47.9,25.300000000000004 48.0,24.200000000000003 48.1,23.100000000000005 C 48.9,22.5 49.3,21.5 50.1,20.8" fill="#007934" stroke="#ff1ea8" stroke-width="2.0" /><path d="M 33.3,23.8 C 33.599999999999994,23.7 33.9,23.6 34.199999999999996,23.6 C 34.49999999999999,24.200000000000003 34.9,24.8 35.3,25.3 C 35.3,26.8 35.3,28.3 35.3,29.8 C 34.099999999999994,28.7 35.199999999999996,27.0 34.8,25.6 C 34.3,25.0 33.6,24.5 33.3,23.8" fill="#007934" stroke="#ff1ea8" stroke-width="2.0" /><path d="M 67.2,27.5 C 63.7,25.9 59.6,25.9 55.900000000000006,26.5 C 52.900000000000006,27.1 49.800000000000004,28.2 47.800000000000004,30.6 C 47.2,31.3 46.400000000000006,32.300000000000004 46.900000000000006,33.300000000000004 C 47.400000000000006,34.900000000000006 49.300000000000004,35.300000000000004 50.400000000000006,36.400000000000006 C 54.7,34.00000000000001 59.60000000000001,32.50000000000001 64.60000000000001,32.900000000000006 C 66.4,33.00000000000001 68.10000000000001,33.900000000000006 69.9,33.800000000000004 C 70.7,33.800000000000004 71.4,33.400000000000006 72.0,32.900000000000006 C 71.4,30.4 69.4,28.5 67.2,27.5 M 54.0,32.3 C 52.7,33.0 51.2,34.099999999999994 49.6,33.5 C 49.4,32.3 50.300000000000004,31.2 51.300000000000004,30.6 C 53.2,29.5 55.300000000000004,28.900000000000002 57.400000000000006,28.3 C 57.10000000000001,29.400000000000002 57.900000000000006,30.400000000000002 58.00000000000001,31.400000000000002 C 56.6,31.2 55.2,31.5 54.0,32.3 M 69.1,31.9 C 68.39999999999999,31.299999999999997 67.5,31.299999999999997 66.69999999999999,31.2 C 66.19999999999999,31.2 66.19999999999999,30.599999999999998 66.1,30.3 C 67.0,30.1 68.1,30.3 68.8,30.900000000000002 C 69.2,31.1 69.1,31.5 69.1,31.9" fill="#007934" stroke="#ff1ea8" stroke-width="2.0" /><path d="M 39.5,34.0 C 39.9,33.7 39.9,33.2 39.9,32.7 C 38.8,32.0 37.5,32.5 36.4,32.900000000000006 C 35.3,31.200000000000006 33.4,30.300000000000004 31.599999999999998,29.600000000000005 C 28.9,28.700000000000006 25.9,28.200000000000006 23.099999999999998,28.900000000000006 C 21.4,29.300000000000004 19.799999999999997,30.600000000000005 19.4,32.400000000000006 C 22.099999999999998,33.50000000000001 25.0,33.60000000000001 27.9,33.800000000000004 C 30.099999999999998,34.00000000000001 32.4,34.2 34.3,35.400000000000006 C 34.3,36.60000000000001 34.3,37.900000000000006 34.3,39.10000000000001 C 30.199999999999996,42.20000000000001 26.4,45.900000000000006 21.499999999999996,47.900000000000006 C 23.699999999999996,48.300000000000004 25.399999999999995,46.300000000000004 27.4,45.800000000000004 C 27.7,46.300000000000004 27.799999999999997,46.900000000000006 28.2,47.400000000000006 C 28.9,47.50000000000001 29.4,46.800000000000004 29.8,46.400000000000006 C 31.900000000000002,47.800000000000004 33.2,50.2 35.4,51.50000000000001 C 36.0,51.900000000000006 36.8,52.10000000000001 37.5,51.800000000000004 C 38.5,51.2 39.1,50.1 39.5,49.00000000000001 C 39.2,48.800000000000004 39.0,48.70000000000001 38.7,48.50000000000001 C 37.900000000000006,48.800000000000004 37.400000000000006,49.70000000000001 36.5,49.60000000000001 C 34.3,48.900000000000006 32.9,46.80000000000001 31.8,44.900000000000006 C 32.5,42.7 35.1,42.400000000000006 36.5,40.900000000000006 C 36.5,39.300000000000004 36.5,37.7 36.5,36.10000000000001 C 37.1,34.8 38.6,34.9 39.5,34.0 M 24.8,31.4 C 24.1,31.5 23.3,31.4 22.8,30.799999999999997 C 23.900000000000002,30.9 25.1,30.599999999999998 26.2,30.599999999999998 C 26.7,30.599999999999998 27.3,30.799999999999997 27.599999999999998,31.2 C 26.7,31.3 25.8,31.3 24.8,31.4" fill="#007934" stroke="#ff1ea8" stroke-width="2.0" /><path d="M 72.9,30.8 C 74.5,30.6 76.0,31.7 77.60000000000001,31.400000000000002 C 77.30000000000001,33.0 75.00000000000001,33.400000000000006 73.9,32.400000000000006 C 74.60000000000001,32.300000000000004 75.60000000000001,32.60000000000001 76.10000000000001,31.900000000000006 C 75.0,31.8 73.8,31.6 72.9,30.8" fill="#007934" stroke="#ff1ea8" stroke-width="2.0" /><path d="M 10.8,32.0 C 12.4,32.3 14.0,31.9 15.600000000000001,31.7 C 16.5,31.5 17.6,31.7 18.200000000000003,32.5 C 15.300000000000002,32.1 12.300000000000002,32.2 9.600000000000003,33.2 C 7.4,34.0 5.3,35.7 4.4,38.0 C 3.6000000000000005,40.1 3.9000000000000004,42.4 4.5,44.4 C 4.7,44.8 4.8,45.3 5.2,45.6 C 6.6,46.6 8.4,46.6 9.8,47.7 C 10.200000000000001,48.0 10.100000000000001,48.5 10.100000000000001,48.900000000000006 C 9.500000000000002,48.50000000000001 8.900000000000002,48.00000000000001 8.200000000000001,47.7 C 6.900000000000001,47.1 5.400000000000001,46.900000000000006 4.300000000000001,45.800000000000004 C 3.3000000000000007,43.6 3.000000000000001,41.00000000000001 3.6000000000000005,38.6 C 4.300000000000001,35.5 6.800000000000001,32.9 9.7,31.8 C 10.1,31.8 10.4,31.9 10.8,32.0" fill="#007934" stroke="#ff1ea8" stroke-width="2.0" /><path d="M 81.8,32.2 C 83.0,31.800000000000004 84.3,31.900000000000002 85.6,31.900000000000002 C 88.0,31.900000000000002 90.5,32.400000000000006 92.3,34.1 C 93.89999999999999,35.6 94.5,37.9 94.7,40.0 C 94.8,41.2 94.60000000000001,42.5 94.60000000000001,43.7 C 94.50000000000001,43.6 94.30000000000001,43.400000000000006 94.2,43.300000000000004 C 94.4,41.400000000000006 94.3,39.50000000000001 94.10000000000001,37.6 C 93.30000000000001,35.7 91.9,34.0 89.9,33.2 C 87.4,32.1 84.5,32.5 81.8,32.2" fill="#007934" stroke="#ff1ea8" stroke-width="2.0" /><path d="M 72.8,33.4 C 73.5,33.0 74.3,33.6 74.6,34.199999999999996 C 73.9,34.3 73.3,33.9 72.8,33.4" fill="#007934" stroke="#ff1ea8" stroke-width="2.0" /><path d="M 79.2,34.0 C 82.2,33.4 85.4,33.9 87.9,35.7 C 90.2,37.300000000000004 91.7,40.0 91.60000000000001,42.800000000000004 C 91.60000000000001,45.2 90.2,47.400000000000006 88.4,48.900000000000006 C 87.7,47.300000000000004 88.60000000000001,45.800000000000004 89.10000000000001,44.400000000000006 C 89.80000000000001,42.800000000000004 89.4,40.900000000000006 88.60000000000001,39.400000000000006 C 87.80000000000001,37.900000000000006 86.30000000000001,36.800000000000004 84.7,36.300000000000004 C 83.2,35.800000000000004 81.7,35.900000000000006 80.2,36.00000000000001 C 78.7,37.50000000000001 76.60000000000001,38.300000000000004 74.60000000000001,38.800000000000004 C 71.9,39.50000000000001 69.10000000000001,39.7 66.4,39.300000000000004 C 64.60000000000001,39.00000000000001 62.60000000000001,38.300000000000004 61.50000000000001,36.800000000000004 C 60.900000000000006,36.00000000000001 60.70000000000001,35.00000000000001 60.60000000000001,34.00000000000001 C 63.00000000000001,34.300000000000004 64.4,36.70000000000001 66.60000000000001,37.400000000000006 C 68.60000000000001,38.00000000000001 70.9,37.800000000000004 72.80000000000001,37.00000000000001 C 74.9,36.0 76.8,34.5 79.2,34.0" fill="#007934" stroke="#ff1ea8" stroke-width="2.0" /><path d="M 6.9,36.5 C 8.1,35.5 9.600000000000001,35.0 11.0,34.5 C 10.3,36.1 8.0,35.8 7.4,37.5 C 6.9,39.0 7.5,40.6 7.0,42.1 C 6.9,41.9 6.7,41.7 6.6,41.5 C 6.5,39.9 6.8,38.2 6.9,36.5" fill="#007934" stroke="#ff1ea8" stroke-width="2.0" /><path d="M 10.9,36.9 C 12.8,36.0 15.0,36.4 17.0,37.0 C 18.8,37.6 20.5,38.4 21.9,39.7 C 22.7,39.300000000000004 23.299999999999997,38.6 24.2,38.300000000000004 C 24.7,38.2 25.099999999999998,38.400000000000006 25.5,38.6 C 25.4,39.6 25.1,40.6 24.2,41.0 C 22.4,41.9 20.3,41.5 18.299999999999997,41.6 C 18.199999999999996,40.4 17.699999999999996,39.1 16.4,38.800000000000004 C 13.899999999999999,38.2 11.399999999999999,39.400000000000006 8.999999999999998,39.6 C 9.2,38.5 9.8,37.4 10.9,36.9" fill="#007934" stroke="#ff1ea8" stroke-width="2.0" /><path d="M 47.7,43.2 C 47.800000000000004,41.900000000000006 49.2,41.400000000000006 50.300000000000004,41.5 C 51.7,41.7 53.300000000000004,42.0 54.300000000000004,43.1 C 54.6,43.9 54.50000000000001,44.9 54.50000000000001,45.7 C 54.400000000000006,47.0 53.900000000000006,48.5 52.70000000000001,49.0 C 52.10000000000001,49.3 51.40000000000001,49.0 50.80000000000001,48.8 C 50.80000000000001,48.4 50.70000000000001,48.0 50.90000000000001,47.599999999999994 C 51.20000000000001,46.8 52.20000000000001,46.599999999999994 52.500000000000014,45.699999999999996 C 52.70000000000002,45.099999999999994 52.500000000000014,44.49999999999999 52.40000000000001,43.99999999999999 C 50.8,43.6 49.1,43.9 47.7,43.2" fill="#007934" stroke="#ff1ea8" stroke-width="2.0" /><path d="M 55.0,43.2 C 54.8,42.7 54.7,42.0 55.3,41.800000000000004 C 55.5,41.800000000000004 55.8,41.900000000000006 55.9,42.00000000000001 C 55.699999999999996,42.20000000000001 55.5,42.300000000000004 55.3,42.50000000000001 C 55.3,43.10000000000001 55.8,43.60000000000001 56.3,43.70000000000001 C 58.4,44.20000000000001 60.5,43.50000000000001 62.599999999999994,43.90000000000001 C 63.099999999999994,43.90000000000001 63.199999999999996,44.40000000000001 63.099999999999994,44.80000000000001 C 61.199999999999996,43.70000000000001 58.89999999999999,44.60000000000001 56.8,44.40000000000001 C 56.2,44.2 55.3,44.0 55.0,43.2" fill="#007934" stroke="#ff1ea8" stroke-width="2.0" /><path d="M 6.6,42.1 C 6.699999999999999,42.2 6.8999999999999995,42.300000000000004 7.1,42.4 C 7.699999999999999,43.6 9.0,44.199999999999996 9.899999999999999,45.199999999999996 C 9.099999999999998,45.099999999999994 8.2,44.99999999999999 7.599999999999999,44.4 C 6.9,43.9 6.7,43.0 6.6,42.1" fill="#007934" stroke="#ff1ea8" stroke-width="2.0" /><path d="M 71.4,46.8 C 74.80000000000001,45.699999999999996 77.5,42.8 81.2,42.599999999999994 C 81.3,44.599999999999994 80.3,46.49999999999999 78.8,47.8 C 76.7,49.599999999999994 73.89999999999999,50.4 71.2,50.8 C 71.9,49.6 71.2,48.2 71.4,46.8" fill="#007934" stroke="#ff1ea8" stroke-width="2.0" /><path d="M 94.1,43.5 C 94.19999999999999,43.7 94.39999999999999,43.8 94.5,44.0 C 94.3,45.6 94.0,47.3 93.6,48.9 C 92.19999999999999,49.699999999999996 90.89999999999999,50.8 89.3,51.199999999999996 C 88.89999999999999,51.3 88.5,51.199999999999996 88.1,51.099999999999994 C 89.69999999999999,50.8 91.19999999999999,50.199999999999996 92.3,48.99999999999999 C 93.4,47.4 94.0,45.4 94.1,43.5" fill="#007934" stroke="#ff1ea8" stroke-width="2.0" /><path d="M 43.8,45.5 C 45.699999999999996,45.0 47.8,45.2 49.699999999999996,45.8 C 49.8,46.699999999999996 49.699999999999996,47.5 49.199999999999996,48.3 C 47.099999999999994,46.4 44.199999999999996,48.5 41.9,47.4 C 42.1,46.4 42.9,45.7 43.8,45.5" fill="#007934" stroke="#ff1ea8" stroke-width="2.0" /><path d="M 82.5,40.6 C 81.8,39.7 81.7,38.5 81.6,37.4 C 81.19999999999999,37.5 80.6,37.4 80.3,37.8 C 79.89999999999999,38.4 80.0,39.3 80.0,40.0 C 70.8,44.3 61.2,48.1 51.3,50.6 C 44.4,52.300000000000004 37.199999999999996,53.4 30.099999999999998,52.5 C 25.199999999999996,51.9 20.199999999999996,50.1 16.599999999999998,46.6 C 15.899999999999999,44.6 16.499999999999996,42.300000000000004 15.599999999999998,40.4 C 15.199999999999998,40.4 14.599999999999998,40.199999999999996 14.399999999999999,40.699999999999996 C 14.099999999999998,41.599999999999994 14.399999999999999,42.49999999999999 13.899999999999999,43.3 C 12.899999999999999,45.199999999999996 11.799999999999999,47.199999999999996 11.499999999999998,49.4 C 10.899999999999999,54.0 10.999999999999998,58.8 12.099999999999998,63.4 C 12.699999999999998,65.5 13.499999999999998,67.6 14.899999999999999,69.3 C 15.899999999999999,70.39999999999999 17.299999999999997,71.0 18.7,71.39999999999999 C 22.099999999999998,72.49999999999999 25.7,72.89999999999999 29.299999999999997,73.19999999999999 C 34.4,73.6 39.5,73.49999999999999 44.599999999999994,73.19999999999999 C 48.99999999999999,72.79999999999998 53.49999999999999,72.39999999999999 57.699999999999996,70.79999999999998 C 62.099999999999994,69.09999999999998 66.3,66.79999999999998 70.1,63.899999999999984 C 72.3,62.19999999999998 74.19999999999999,60.09999999999999 75.8,57.899999999999984 C 77.8,55.09999999999999 79.5,51.999999999999986 81.89999999999999,49.59999999999998 C 82.1,49.29999999999998 82.8,49.09999999999998 82.49999999999999,48.59999999999998 C 82.19999999999999,47.79999999999998 82.19999999999999,46.89999999999998 82.69999999999999,46.19999999999998 C 82.99999999999999,45.69999999999998 83.19999999999999,44.899999999999984 83.89999999999999,44.99999999999998 C 85.19999999999999,45.09999999999998 86.8,45.89999999999998 87.89999999999999,44.89999999999998 C 86.6,42.9 83.9,42.5 82.5,40.6 M 69.3,47.9 C 69.3,49.8 68.39999999999999,51.6 66.8,52.6 C 64.0,54.4 60.5,54.6 57.5,56.0 C 57.1,54.5 56.9,53.0 56.5,51.5 C 60.8,50.4 65.0,48.8 69.3,47.9 M 25.9,54.1 C 28.099999999999998,55.300000000000004 30.7,54.6 33.0,55.4 C 32.2,56.3 32.8,57.6 32.7,58.6 C 30.000000000000004,58.6 27.200000000000003,58.7 24.6,57.6 C 25.6,56.7 25.0,55.1 25.9,54.1 M 20.2,52.0 C 21.099999999999998,52.9 22.2,53.3 23.4,53.6 C 23.5,54.7 22.7,55.6 22.4,56.6 C 22.2,57.2 22.5,57.7 22.7,58.2 C 21.8,57.900000000000006 20.8,57.300000000000004 19.8,57.6 C 19.6,55.8 18.6,53.4 20.2,52.0 M 14.1,49.5 C 14.4,48.9 14.7,48.4 15.1,47.9 C 15.0,48.6 14.799999999999999,49.3 14.4,49.8 C 14.3,49.7 14.2,49.5 14.1,49.5 M 16.3,67.4 C 16.0,66.10000000000001 15.200000000000001,65.0 14.700000000000001,63.800000000000004 C 14.500000000000002,63.400000000000006 14.500000000000002,62.900000000000006 14.600000000000001,62.50000000000001 C 15.100000000000001,63.70000000000001 16.0,64.60000000000001 16.400000000000002,65.80000000000001 C 16.6,66.2 16.5,66.9 16.3,67.4 M 15.3,54.7 C 15.3,53.0 16.2,51.400000000000006 17.2,50.0 C 17.8,52.2 17.2,54.5 16.599999999999998,56.6 C 15.9,56.3 15.3,55.6 15.3,54.7 M 18.0,68.4 C 17.6,68.30000000000001 17.5,67.9 17.4,67.5 C 17.599999999999998,67.7 17.799999999999997,67.8 18.0,68.0 C 18.4,67.9 18.9,67.8 19.2,67.5 C 19.7,66.2 17.8,65.0 18.7,63.8 C 20.3,65.3 21.2,67.39999999999999 21.8,69.39999999999999 C 20.5,69.1 19.2,69.0 18.0,68.4 M 24.0,69.6 C 24.1,69.19999999999999 24.4,68.69999999999999 24.2,68.3 C 23.8,67.1 22.8,66.1 22.4,64.89999999999999 C 23.7,64.8 24.7,65.8 26.0,65.6 C 25.9,67.39999999999999 27.2,68.8 27.6,70.6 C 26.3,70.3 25.0,70.3 24.0,69.6 M 30.1,70.5 C 29.700000000000003,68.7 28.6,67.1 28.0,65.4 C 29.5,65.0 31.3,64.80000000000001 32.7,65.80000000000001 C 34.2,67.00000000000001 34.400000000000006,69.20000000000002 34.7,71.00000000000001 C 33.2,71.1 31.6,71.0 30.1,70.5 M 35.4,55.1 C 37.6,55.4 39.8,54.5 42.0,54.5 C 42.0,55.9 42.0,57.3 42.0,58.6 C 39.6,58.6 37.2,58.6 34.8,58.6 C 34.4,57.4 35.4,56.4 35.4,55.1 M 36.8,71.0 C 36.5,69.0 36.099999999999994,67.0 35.8,64.9 C 38.599999999999994,65.10000000000001 41.4,64.7 44.0,63.900000000000006 C 44.1,66.10000000000001 43.5,68.5 44.4,70.60000000000001 C 42.0,71.4 39.4,70.9 36.8,71.0 M 44.0,58.7 C 44.0,57.400000000000006 44.0,56.0 44.0,54.7 C 44.3,54.5 44.6,54.5 44.9,54.400000000000006 C 48.0,53.7 51.1,53.00000000000001 54.2,52.60000000000001 C 54.6,54.10000000000001 54.800000000000004,55.70000000000001 55.2,57.20000000000001 C 52.800000000000004,57.50000000000001 50.5,58.30000000000001 48.1,58.70000000000001 C 46.9,58.8 45.4,58.8 44.0,58.7 M 49.1,70.3 C 48.1,70.39999999999999 47.1,70.3 46.2,70.1 C 46.6,67.89999999999999 45.7,65.69999999999999 46.1,63.39999999999999 C 49.7,62.99999999999999 53.0,61.599999999999994 56.3,60.29999999999999 C 56.199999999999996,61.49999999999999 56.199999999999996,62.69999999999999 56.699999999999996,63.79999999999999 C 57.3,65.1 58.199999999999996,66.39999999999999 58.4,67.89999999999999 C 55.4,68.7 52.4,70.0 49.1,70.3 M 60.6,66.9 C 60.6,64.80000000000001 58.7,63.400000000000006 58.5,61.400000000000006 C 58.4,60.900000000000006 58.5,60.300000000000004 58.5,59.800000000000004 C 62.1,58.900000000000006 65.5,57.400000000000006 68.7,55.7 C 68.4,57.5 68.8,59.5 70.2,60.800000000000004 C 67.0,62.7 64.1,65.3 60.6,66.9 M 71.4,58.7 C 71.0,57.900000000000006 70.7,57.0 70.9,56.1 C 71.2,54.800000000000004 72.30000000000001,53.800000000000004 73.4,53.2 C 74.60000000000001,52.5 76.0,52.1 77.4,52.0 C 75.1,53.9 74.5,57.6 71.4,58.7" fill="#007934" stroke="#ff1ea8" stroke-width="2.0" /><path d="M 65.1,70.5 C 67.6,69.4 70.19999999999999,68.2 73.0,67.9 C 68.5,69.5 64.4,71.9 60.1,73.9 C 54.5,76.5 48.5,78.7 42.3,78.4 C 40.0,78.10000000000001 37.699999999999996,78.60000000000001 35.4,78.60000000000001 C 31.0,78.50000000000001 26.5,79.10000000000001 22.099999999999998,78.2 C 20.299999999999997,77.8 18.4,77.10000000000001 17.199999999999996,75.60000000000001 C 16.599999999999994,74.9 16.299999999999997,74.00000000000001 16.099999999999994,73.00000000000001 C 17.699999999999996,75.70000000000002 20.699999999999996,77.00000000000001 23.599999999999994,77.60000000000001 C 27.199999999999996,78.4 30.999999999999993,78.60000000000001 34.599999999999994,78.30000000000001 C 39.49999999999999,78.10000000000001 44.599999999999994,78.10000000000001 49.39999999999999,77.00000000000001 C 55.0,75.7 60.0,72.9 65.1,70.5" fill="#007934" stroke="#ff1ea8" stroke-width="2.0" /><path d="M 70.3,71.1 C 72.8,69.89999999999999 75.3,68.19999999999999 78.1,68.0 C 75.0,70.1 71.6,71.8 68.19999999999999,73.3 C 54.79999999999999,79.3 39.999999999999986,82.1 25.29999999999999,82.1 C 22.39999999999999,82.1 19.39999999999999,82.0 16.59999999999999,81.1 C 14.399999999999991,80.39999999999999 12.29999999999999,79.0 11.09999999999999,76.89999999999999 C 11.09999999999999,75.99999999999999 10.69999999999999,75.1 11.09999999999999,74.3 C 11.19999999999999,74.2 11.399999999999991,74.1 11.59999999999999,74.0 C 11.59999999999999,75.1 11.59999999999999,76.1 11.59999999999999,77.2 C 12.899999999999991,78.5 14.499999999999991,79.4 16.09999999999999,80.0 C 18.699999999999992,81.0 21.39999999999999,81.3 24.19999999999999,81.5 C 28.49999999999999,81.8 32.79999999999999,81.5 37.09999999999999,81.0 C 48.6,79.8 59.9,76.3 70.3,71.1" fill="#007934" stroke="#ff1ea8" stroke-width="2.0" /><path d="M 28.2,75.2 C 31.4,75.2 34.7,75.10000000000001 37.9,75.3 C 40.0,75.3 42.3,74.7 44.4,75.6 C 40.9,75.39999999999999 37.4,75.69999999999999 33.8,75.69999999999999 C 31.9,75.7 30.0,75.8 28.2,75.2" fill="#007934" stroke="#ff1ea8" stroke-width="2.0" /></g></svg>