<?xml version="1.0" encoding="utf-8" ?>
<svg baseProfile="full" height="100px" version="1.1" width="150px" xmlns="http://www.w3.org/2000/svg" xmlns:ev="http://www.w3.org/2001/xml-events" xmlns:xlink="http://www.w3.org/1999/xlink"><defs><clipPath id="mask0"><rect height="100" width="150" x="0" y="0" /></clipPath></defs><g clip-path="url(#mask0)"><rect fill="#3366cc" height="33.333333333333336" stroke="none" width="150" x="0" y="0.0" /><rect fill="#ffffff" height="33.333333333333336" stroke="none" width="150" x="0" y="33.333333333333336" /><rect fill="#ff3333" height="33.333333333333336" stroke="none" width="150" x="0" y="66.66666666666667" /></g><g transform="translate(36.12725831600236, 11.127258316002361) scale(0.7774548336799527) rotate(0, 50.0, 50.0)"><path d="M 44.8,0.0 L 44.8,10.6 L 34.1,10.6 L 34.1,20.0 L 44.7,20.0 L 44.7,30.5 L 23.7,30.5 L 23.7,40.1 L 44.8,40.1 L 44.8,70.3 L 34.9,65.6 L 34.9,75.19999999999999 L 44.8,79.99999999999999 L 44.8,99.99999999999999 L 55.3,99.99999999999999 L 55.3,84.9 L 65.2,89.7 L 65.2,80.0 L 55.300000000000004,75.2 L 55.300000000000004,40.1 L 76.4,40.1 L 76.4,30.5 L 55.2,30.5 L 55.2,20.0 L 65.8,20.0 L 65.8,10.4 L 55.2,10.4 L 55.2,0.0 L 44.8,0.0" fill="#fec50c" stroke="none" stroke-width="2.0" /></g></svg>