<?xml version="1.0" encoding="utf-8" ?>
<svg baseProfile="full" height="100px" version="1.1" width="150px" xmlns="http://www.w3.org/2000/svg" xmlns:ev="http://www.w3.org/2001/xml-events" xmlns:xlink="http://www.w3.org/1999/xlink"><defs><clipPath id="mask0"><rect height="100" width="150" x="0" y="0" /></clipPath></defs><g clip-path="url(#mask0)"><rect fill="#ffce00" height="100" stroke="none" width="150" x="0" y="0" /></g><g transform="translate(59.79185722340439, 34.79185722340439) scale(0.30416285553191225) rotate(0, 50.0, 50.0)"><path d="M 75.8,46.3 C 81.2,43.599999999999994 84.5,38.8 83.7,30.799999999999997 C 82.60000000000001,19.9 73.2,16.199999999999996 61.300000000000004,15.199999999999998 L 61.300000000000004,0.09999999999999787 L 52.10000000000001,0.09999999999999787 L 52.10000000000001,14.799999999999997 C 49.70000000000001,14.799999999999997 47.20000000000001,14.799999999999997 44.70000000000001,14.899999999999997 L 44.70000000000001,0.09999999999999609 L 35.500000000000014,0.09999999999999609 L 35.500000000000014,15.199999999999996 C 33.500000000000014,15.199999999999996 31.500000000000014,15.299999999999995 29.600000000000016,15.299999999999995 L 29.600000000000016,15.299999999999995 L 16.900000000000016,15.299999999999995 L 16.900000000000016,25.099999999999994 C 16.900000000000016,25.099999999999994 23.700000000000017,24.999999999999993 23.600000000000016,25.099999999999994 C 27.300000000000015,25.099999999999994 28.600000000000016,27.299999999999994 28.900000000000016,29.099999999999994 L 28.900000000000016,46.39999999999999 L 28.900000000000016,70.6 C 28.700000000000017,71.8 28.000000000000018,73.69999999999999 25.400000000000016,73.69999999999999 C 25.500000000000018,73.79999999999998 18.700000000000017,73.69999999999999 18.700000000000017,73.69999999999999 L 16.900000000000016,84.69999999999999 L 28.900000000000016,84.69999999999999 C 31.100000000000016,84.69999999999999 33.30000000000002,84.69999999999999 35.500000000000014,84.79999999999998 L 35.500000000000014,100.09999999999998 L 44.70000000000002,100.09999999999998 L 44.70000000000002,84.89999999999998 C 47.20000000000002,84.99999999999997 49.70000000000002,84.99999999999997 52.100000000000016,84.99999999999997 L 52.100000000000016,100.09999999999997 L 61.30000000000001,100.09999999999997 L 61.30000000000001,84.79999999999997 C 76.80000000000001,83.89999999999996 87.70000000000002,79.99999999999997 89.00000000000001,65.39999999999998 C 90.1,53.6 84.6,48.4 75.8,46.3 M 44.9,25.7 C 50.1,25.7 66.5,24.0 66.5,34.9 C 66.5,45.3 50.1,44.099999999999994 44.9,44.099999999999994 L 44.9,25.7 M 44.9,73.7 L 44.9,53.400000000000006 C 51.199999999999996,53.400000000000006 70.8,51.60000000000001 70.8,63.50000000000001 C 70.8,75.0 51.2,73.7 44.9,73.7" fill="#000000" stroke="none" stroke-width="3.0px" /></g></svg>