<?xml version="1.0" encoding="utf-8" ?>
<svg baseProfile="full" height="100px" version="1.1" width="150px" xmlns="http://www.w3.org/2000/svg" xmlns:ev="http://www.w3.org/2001/xml-events" xmlns:xlink="http://www.w3.org/1999/xlink"><defs><clipPath id="mask0"><rect height="100" width="150" x="0" y="0" /></clipPath><clipPath id="mask1"><rect height="50.0" width="75.0" x="0" y="0" /></clipPath></defs><g clip-path="url(#mask0)"><rect fill="#fec50c" height="100" stroke="none" width="150" x="0" y="0" /></g><g clip-path="url(#mask1)"><rect fill="#ffffff" height="50.0" stroke="none" width="75.0" x="0" y="0" /><path d="M0,0 L43.30127018922193,25.0 L0,50.0 z" fill="#ff3333" stroke="none" /></g><g transform="translate(4.814015769193018, 16.31401576919302) scale(0.17371968461613965) rotate(0, 25.0, 25.0)"><path d="M 51.3,30.6 C 43.099999999999994,30.8 36.4,30.900000000000002 30.099999999999998,33.7 C 28.4,34.5 26.9,35.7 25.299999999999997,36.7 C 24.499999999999996,37.1 23.699999999999996,37.6 22.799999999999997,37.6 C 20.999999999999996,37.7 19.299999999999997,37.6 17.499999999999996,37.7 C 15.999999999999996,37.800000000000004 15.199999999999996,37.0 14.799999999999997,35.7 C 14.199999999999998,33.400000000000006 13.599999999999998,31.000000000000004 13.099999999999998,28.700000000000003 C 12.699999999999998,27.1 13.499999999999998,26.1 14.899999999999999,25.800000000000004 C 26.299999999999997,23.300000000000004 34.4,16.300000000000004 41.0,7.100000000000005 C 44.3,2.400000000000005 48.5,0.9000000000000048 53.2,2.400000000000005 C 55.900000000000006,3.3000000000000047 57.6,5.300000000000004 59.1,7.500000000000004 C 63.7,14.000000000000004 69.2,19.500000000000004 76.6,22.900000000000006 C 79.1,24.100000000000005 81.89999999999999,24.900000000000006 84.6,25.700000000000006 C 86.6,26.300000000000008 87.3,27.200000000000006 86.8,29.200000000000006 C 86.3,31.400000000000006 85.7,33.50000000000001 85.2,35.7 C 84.8,37.1 84.0,38.0 82.4,37.800000000000004 C 81.80000000000001,37.7 81.2,37.7 80.60000000000001,37.800000000000004 C 77.50000000000001,38.1 74.9,37.400000000000006 72.4,35.300000000000004 C 69.30000000000001,32.7 65.10000000000001,32.00000000000001 61.10000000000001,31.500000000000004 C 57.4,30.8 53.6,30.7 51.3,30.6" fill="#000000" stroke="none" stroke-width="1.5" /><path d="M 51.0,34.4 C 55.0,34.9 59.9,35.5 64.7,36.199999999999996 C 65.7,36.3 66.60000000000001,36.699999999999996 67.60000000000001,37.099999999999994 C 72.30000000000001,38.89999999999999 73.30000000000001,40.49999999999999 72.9,45.39999999999999 C 72.3,51.7 70.0,57.0 65.0,61.1 C 64.1,61.800000000000004 63.7,63.1 63.3,64.2 C 63.0,65.0 63.0,65.9 62.9,66.8 C 62.699999999999996,69.0 61.4,70.5 59.3,71.1 C 53.099999999999994,72.8 46.8,72.8 40.599999999999994,71.1 C 38.39999999999999,70.5 37.099999999999994,69.0 37.099999999999994,66.8 C 37.099999999999994,63.8 35.8,61.699999999999996 33.49999999999999,59.599999999999994 C 28.299999999999994,54.89999999999999 26.699999999999992,48.599999999999994 26.999999999999993,41.8 C 26.999999999999993,40.699999999999996 28.39999999999999,39.199999999999996 29.499999999999993,38.699999999999996 C 32.39999999999999,37.4 35.39999999999999,36.199999999999996 38.39999999999999,35.599999999999994 C 42.2,34.9 46.1,34.8 51.0,34.4 M 59.5,52.6 C 63.2,52.7 65.1,50.9 65.1,47.4 C 65.1,44.1 62.89999999999999,42.0 59.3,42.0 C 55.9,41.9 53.9,44.1 53.8,47.7 C 53.7,50.7 55.8,52.5 59.5,52.6 M 40.2,52.6 C 44.1,52.6 46.2,50.9 46.2,47.7 C 46.300000000000004,44.300000000000004 44.1,42.0 40.900000000000006,41.900000000000006 C 37.400000000000006,41.900000000000006 34.900000000000006,44.00000000000001 34.900000000000006,47.00000000000001 C 34.9,50.6 36.8,52.5 40.2,52.6 M 49.9,62.8 C 50.5,62.8 51.199999999999996,62.8 51.8,62.8 C 53.4,62.699999999999996 54.099999999999994,61.599999999999994 53.599999999999994,60.099999999999994 C 52.89999999999999,58.3 52.099999999999994,56.49999999999999 51.3,54.8 C 50.699999999999996,53.5 49.4,53.5 48.8,54.8 C 47.9,56.5 47.099999999999994,58.3 46.4,60.099999999999994 C 45.8,61.699999999999996 46.6,62.699999999999996 48.3,62.8 C 48.8,62.8 49.4,62.8 49.9,62.8" fill="#000000" stroke="none" stroke-width="1.5" /><path d="M 60.0,84.9 C 63.9,86.30000000000001 67.9,87.7 71.9,88.9 C 72.80000000000001,89.2 74.0,88.7 75.0,88.60000000000001 C 75.9,88.4 76.8,88.10000000000001 77.7,87.9 C 79.5,87.60000000000001 81.0,88.10000000000001 82.10000000000001,89.60000000000001 C 83.2,91.10000000000001 82.80000000000001,92.7 82.2,94.30000000000001 C 81.9,95.00000000000001 81.7,95.9 81.9,96.70000000000002 C 82.60000000000001,99.70000000000002 80.30000000000001,102.20000000000002 77.30000000000001,101.60000000000002 C 74.80000000000001,101.10000000000002 72.80000000000001,99.80000000000003 71.50000000000001,97.60000000000002 C 70.40000000000002,95.80000000000003 68.90000000000002,94.70000000000002 66.90000000000002,94.00000000000003 C 61.80000000000002,92.20000000000003 56.70000000000002,90.30000000000003 51.60000000000002,88.50000000000003 C 50.700000000000024,88.20000000000003 49.50000000000002,88.10000000000002 48.60000000000002,88.50000000000003 C 43.200000000000024,90.30000000000003 37.800000000000026,92.20000000000003 32.50000000000002,94.30000000000003 C 31.100000000000023,94.90000000000002 29.800000000000022,96.10000000000002 28.800000000000022,97.40000000000002 C 27.20000000000002,99.50000000000001 25.400000000000023,101.20000000000002 22.700000000000024,101.60000000000002 C 19.500000000000025,102.10000000000002 17.400000000000023,99.50000000000003 18.300000000000026,96.40000000000002 C 18.500000000000025,95.80000000000003 18.300000000000026,95.10000000000002 18.100000000000026,94.50000000000001 C 17.400000000000027,92.90000000000002 16.900000000000027,91.20000000000002 18.000000000000025,89.60000000000001 C 19.200000000000024,88.00000000000001 21.100000000000026,87.10000000000001 22.800000000000026,87.9 C 27.000000000000025,89.7 30.700000000000024,88.30000000000001 34.50000000000003,86.7 C 36.300000000000026,86.0 38.20000000000003,85.4 40.10000000000003,84.3 C 38.50000000000003,83.7 37.00000000000003,83.2 35.40000000000003,82.6 C 34.200000000000024,82.19999999999999 32.90000000000003,81.8 31.700000000000028,81.3 C 30.00000000000003,80.6 28.30000000000003,80.5 26.50000000000003,81.2 C 24.400000000000027,82.0 22.200000000000028,81.9 20.10000000000003,81.0 C 18.60000000000003,80.4 17.40000000000003,79.5 17.30000000000003,77.7 C 17.200000000000028,76.0 17.90000000000003,74.60000000000001 19.40000000000003,73.7 C 19.80000000000003,73.4 20.20000000000003,72.8 20.30000000000003,72.2 C 20.80000000000003,70.4 21.60000000000003,68.7 23.700000000000028,68.3 C 25.80000000000003,67.89999999999999 27.50000000000003,68.89999999999999 28.400000000000027,70.7 C 29.900000000000027,73.60000000000001 32.300000000000026,74.9 35.200000000000024,75.9 C 39.700000000000024,77.4 44.10000000000002,79.10000000000001 48.50000000000003,80.7 C 49.300000000000026,81.0 50.40000000000003,81.0 51.20000000000003,80.7 C 56.400000000000034,78.9 61.60000000000003,77.0 66.90000000000003,75.2 C 68.60000000000004,74.60000000000001 69.90000000000003,73.60000000000001 70.70000000000003,71.9 C 71.00000000000003,71.30000000000001 71.30000000000003,70.7 71.80000000000003,70.30000000000001 C 73.00000000000003,69.00000000000001 74.40000000000002,68.00000000000001 76.30000000000003,68.50000000000001 C 78.20000000000003,69.00000000000001 79.10000000000002,70.50000000000001 79.60000000000002,72.30000000000001 C 79.80000000000003,72.9 80.10000000000002,73.50000000000001 80.60000000000002,73.9 C 83.40000000000002,75.7 83.30000000000003,79.2 80.40000000000002,80.80000000000001 C 78.20000000000002,82.00000000000001 75.90000000000002,82.20000000000002 73.60000000000002,81.4 C 71.80000000000003,80.7 70.20000000000002,80.80000000000001 68.40000000000002,81.5 C 65.60000000000002,82.6 62.80000000000002,83.6 60.00000000000002,84.6 C 60.0,84.5 60.0,84.7 60.0,84.9" fill="#000000" stroke="none" stroke-width="1.5" /></g><g transform="translate(89.47018218316927, 26.970182183169268) scale(0.46059635633661467) rotate(0, 50.0, 50.0)"><path d="M 95.3,53.4 C 92.7,53.3 91.2,53.1 90.89999999999999,52.9 C 90.39999999999999,52.4 88.69999999999999,52.199999999999996 84.3,51.9 C 81.7,51.699999999999996 81.6,51.699999999999996 81.7,51.0 C 82.0,49.9 81.3,44.9 80.5,42.5 C 79.2,38.2 78.9,37.6 77.6,36.2 C 76.89999999999999,35.400000000000006 76.3,34.6 76.3,34.400000000000006 C 76.3,34.2 75.89999999999999,33.60000000000001 75.5,33.00000000000001 C 75.0,32.50000000000001 74.7,31.800000000000008 74.7,31.60000000000001 C 74.7,31.40000000000001 74.3,31.000000000000007 73.9,30.800000000000008 C 73.4,30.60000000000001 73.10000000000001,30.300000000000008 73.10000000000001,30.200000000000006 C 73.10000000000001,29.800000000000008 71.4,29.200000000000006 70.60000000000001,29.200000000000006 C 70.10000000000001,29.300000000000008 69.9,29.100000000000005 69.9,28.600000000000005 C 69.9,27.100000000000005 64.80000000000001,24.200000000000003 62.2,24.200000000000003 C 61.6,24.200000000000003 61.400000000000006,24.000000000000004 61.400000000000006,23.400000000000002 C 61.400000000000006,22.900000000000002 61.2,22.6 61.00000000000001,22.6 C 60.800000000000004,22.6 60.70000000000001,22.200000000000003 60.800000000000004,21.700000000000003 C 61.00000000000001,20.6 60.00000000000001,17.000000000000004 59.50000000000001,17.000000000000004 C 59.300000000000004,17.000000000000004 59.20000000000001,15.900000000000004 59.20000000000001,14.000000000000004 C 59.20000000000001,12.400000000000004 59.20000000000001,11.000000000000004 59.10000000000001,11.000000000000004 C 58.60000000000001,11.000000000000004 57.400000000000006,12.500000000000004 57.400000000000006,13.000000000000004 C 57.400000000000006,13.700000000000003 56.50000000000001,14.500000000000004 56.300000000000004,14.000000000000004 C 56.2,13.800000000000004 56.1,13.200000000000003 56.00000000000001,12.700000000000003 C 55.900000000000006,11.500000000000004 55.50000000000001,11.400000000000002 54.50000000000001,12.300000000000002 C 53.900000000000006,12.900000000000002 53.70000000000001,12.900000000000002 53.300000000000004,12.600000000000003 C 52.900000000000006,12.300000000000002 52.7,12.300000000000002 52.50000000000001,12.700000000000003 C 52.300000000000004,13.000000000000004 52.20000000000001,13.500000000000004 52.20000000000001,13.800000000000002 C 52.20000000000001,14.800000000000002 51.60000000000001,19.400000000000002 51.50000000000001,19.900000000000002 C 51.20000000000001,21.1 50.900000000000006,21.3 49.300000000000004,21.1 C 48.400000000000006,21.0 46.7,21.1 44.900000000000006,21.400000000000002 C 43.400000000000006,21.700000000000003 41.400000000000006,22.000000000000004 40.60000000000001,22.000000000000004 C 39.00000000000001,22.100000000000005 35.30000000000001,23.300000000000004 32.70000000000001,24.700000000000003 C 31.80000000000001,25.200000000000003 30.70000000000001,25.500000000000004 30.40000000000001,25.500000000000004 C 29.800000000000008,25.500000000000004 29.50000000000001,26.000000000000004 29.70000000000001,26.900000000000002 C 29.70000000000001,27.000000000000004 29.40000000000001,27.1 28.90000000000001,27.1 C 28.40000000000001,27.1 28.10000000000001,27.200000000000003 28.10000000000001,27.400000000000002 C 28.10000000000001,27.6 27.800000000000008,27.8 27.500000000000007,27.900000000000002 C 27.200000000000006,28.000000000000004 26.60000000000001,28.6 26.200000000000006,29.200000000000003 C 25.800000000000008,29.800000000000004 24.700000000000006,31.200000000000003 23.700000000000006,32.300000000000004 C 22.700000000000006,33.400000000000006 21.600000000000005,35.00000000000001 21.100000000000005,35.800000000000004 C 20.700000000000006,36.6 20.100000000000005,37.7 19.900000000000006,38.1 C 19.700000000000006,38.5 19.400000000000006,39.2 19.300000000000004,39.7 C 19.200000000000003,40.2 18.900000000000006,41.0 18.600000000000005,41.400000000000006 C 18.300000000000004,41.900000000000006 18.100000000000005,42.60000000000001 18.100000000000005,43.00000000000001 C 18.200000000000006,43.400000000000006 18.000000000000004,44.10000000000001 17.700000000000006,44.60000000000001 C 17.400000000000006,45.10000000000001 17.100000000000005,46.20000000000001 16.900000000000006,47.00000000000001 C 16.500000000000007,49.900000000000006 16.800000000000004,49.800000000000004 9.400000000000006,50.00000000000001 C 3.800000000000006,50.10000000000001 2.800000000000006,50.300000000000004 2.800000000000006,51.20000000000001 C 2.800000000000006,51.80000000000001 3.400000000000006,52.00000000000001 5.000000000000006,51.90000000000001 C 5.200000000000006,51.90000000000001 5.500000000000006,52.30000000000001 5.600000000000006,52.80000000000001 C 5.7000000000000055,53.40000000000001 6.100000000000006,53.80000000000001 6.500000000000006,53.90000000000001 C 7.900000000000006,54.30000000000001 8.700000000000006,54.80000000000001 8.700000000000006,55.40000000000001 C 8.700000000000006,55.80000000000001 8.500000000000007,56.000000000000014 7.800000000000006,56.000000000000014 C 7.300000000000006,56.000000000000014 6.700000000000006,56.20000000000002 6.500000000000006,56.500000000000014 C 6.200000000000006,56.80000000000001 5.700000000000006,57.000000000000014 5.300000000000006,57.000000000000014 C 3.400000000000006,57.000000000000014 3.300000000000006,58.40000000000001 5.200000000000006,58.80000000000001 C 5.800000000000006,58.90000000000001 6.400000000000007,59.20000000000001 6.500000000000006,59.40000000000001 C 6.600000000000006,59.70000000000001 7.200000000000006,59.70000000000001 8.800000000000006,59.40000000000001 C 10.000000000000005,59.20000000000001 12.400000000000006,59.000000000000014 14.100000000000005,59.000000000000014 L 17.300000000000004,59.000000000000014 L 17.800000000000004,60.30000000000001 C 18.100000000000005,61.000000000000014 18.300000000000004,61.80000000000001 18.300000000000004,62.10000000000001 C 18.300000000000004,62.30000000000001 18.500000000000004,62.70000000000001 18.800000000000004,63.00000000000001 C 19.100000000000005,63.20000000000001 19.600000000000005,64.0 19.800000000000004,64.7 C 20.100000000000005,65.4 20.400000000000006,66.0 20.600000000000005,66.0 C 21.100000000000005,66.0 20.900000000000006,66.8 20.200000000000006,67.3 C 19.800000000000008,67.6 19.500000000000007,67.89999999999999 19.500000000000007,68.1 C 19.500000000000007,68.6 14.000000000000007,76.5 12.400000000000007,78.3 C 12.000000000000007,78.8 11.500000000000007,79.39999999999999 11.400000000000007,79.8 C 11.100000000000007,80.5 11.100000000000007,83.5 11.300000000000008,83.8 C 11.400000000000007,83.89999999999999 12.000000000000007,83.7 12.600000000000009,83.3 C 13.90000000000001,82.5 14.200000000000008,82.5 14.200000000000008,83.1 C 14.200000000000008,83.8 14.600000000000009,83.69999999999999 15.900000000000007,82.6 C 17.400000000000006,81.3 18.300000000000008,81.3 18.000000000000007,82.5 C 17.60000000000001,84.3 19.500000000000007,84.3 20.10000000000001,82.4 C 20.300000000000008,81.80000000000001 21.000000000000007,80.9 21.70000000000001,80.4 C 23.00000000000001,79.4 24.80000000000001,76.5 24.80000000000001,75.4 C 24.80000000000001,75.0 25.00000000000001,74.4 25.30000000000001,74.10000000000001 C 25.80000000000001,73.50000000000001 25.80000000000001,73.50000000000001 27.600000000000012,74.50000000000001 C 28.600000000000012,75.00000000000001 29.700000000000014,75.80000000000001 30.100000000000012,76.10000000000001 C 30.400000000000013,76.4 31.00000000000001,76.7 31.200000000000014,76.7 C 31.400000000000016,76.7 32.0,77.0 32.0,77.2 C 32.0,77.4 32.4,77.5 32.8,77.5 C 33.3,77.5 34.3,77.8 35.0,78.2 C 35.8,78.60000000000001 37.0,78.9 37.7,78.9 C 38.6,78.9 39.1,79.10000000000001 39.5,79.7 C 40.1,80.5 41.1,80.60000000000001 48.1,80.5 C 49.300000000000004,80.5 50.5,80.6 50.800000000000004,80.8 C 51.2,81.0 51.7,81.0 52.2,80.8 C 54.1,80.1 58.7,78.8 59.900000000000006,78.7 C 61.2,78.60000000000001 61.2,78.60000000000001 61.300000000000004,79.7 C 61.400000000000006,80.3 61.6,80.8 61.800000000000004,80.8 C 62.00000000000001,80.8 62.400000000000006,81.5 62.6,82.3 C 63.0,83.7 63.7,84.3 64.0,83.39999999999999 C 64.1,83.19999999999999 64.3,83.69999999999999 64.5,84.49999999999999 C 65.2,87.09999999999998 65.6,88.09999999999998 66.1,88.09999999999998 C 66.39999999999999,88.09999999999998 66.5,87.39999999999998 66.5,85.39999999999998 L 66.5,82.69999999999997 L 67.4,82.89999999999998 C 67.9,82.99999999999997 68.4,83.29999999999998 68.60000000000001,83.49999999999997 C 69.00000000000001,84.09999999999997 71.10000000000001,88.19999999999997 71.10000000000001,88.49999999999997 C 71.10000000000001,88.69999999999997 71.30000000000001,89.39999999999998 71.50000000000001,90.09999999999997 C 72.10000000000001,91.99999999999997 72.70000000000002,91.69999999999996 72.90000000000002,89.29999999999997 C 73.10000000000002,86.59999999999997 73.00000000000001,83.69999999999997 72.50000000000001,81.39999999999996 C 72.30000000000001,80.39999999999996 72.00000000000001,78.39999999999996 71.80000000000001,76.89999999999996 C 71.60000000000001,75.39999999999996 71.30000000000001,73.79999999999997 71.20000000000002,73.19999999999996 C 71.00000000000001,72.29999999999995 71.00000000000001,71.99999999999996 71.60000000000002,71.49999999999996 C 72.00000000000003,71.09999999999995 72.50000000000003,70.79999999999995 72.80000000000003,70.69999999999996 C 73.10000000000002,70.59999999999997 73.50000000000003,70.09999999999997 73.80000000000003,69.49999999999996 C 74.00000000000003,68.89999999999996 74.70000000000003,67.99999999999996 75.30000000000003,67.39999999999996 C 76.40000000000002,66.29999999999997 77.40000000000002,64.39999999999996 78.10000000000002,62.19999999999996 C 78.30000000000003,61.49999999999996 78.90000000000002,60.29999999999996 79.50000000000003,59.39999999999996 C 80.10000000000002,58.499999999999964 80.70000000000003,57.39999999999996 80.80000000000003,56.89999999999996 C 81.10000000000002,56.099999999999966 81.20000000000003,55.999999999999964 84.10000000000002,55.79999999999996 C 85.80000000000003,55.69999999999996 88.90000000000002,55.69999999999996 91.10000000000002,55.79999999999996 C 94.10000000000002,55.89999999999996 95.60000000000002,55.79999999999996 97.30000000000003,55.39999999999996 C 99.20000000000003,54.29999999999996 98.20000000000003,54.79999999999996 99.70000000000003,54.19999999999996 C 99.6,53.9 98.3,53.5 95.3,53.4 M 50.1,35.1 C 50.5,34.7 51.2,33.800000000000004 51.7,33.0 C 52.900000000000006,31.1 53.5,30.7 53.800000000000004,31.4 C 54.2,32.3 54.300000000000004,37.199999999999996 54.00000000000001,38.5 C 53.800000000000004,39.2 53.900000000000006,39.9 54.10000000000001,40.3 C 54.50000000000001,41.0 54.60000000000001,42.0 54.900000000000006,45.9 C 55.00000000000001,47.5 55.10000000000001,49.199999999999996 55.10000000000001,49.5 C 55.20000000000001,50.1 54.900000000000006,50.1 51.400000000000006,50.2 C 49.300000000000004,50.2 46.800000000000004,50.300000000000004 45.900000000000006,50.400000000000006 C 44.300000000000004,50.60000000000001 41.400000000000006,50.400000000000006 41.400000000000006,50.2 C 41.400000000000006,49.900000000000006 42.800000000000004,47.6 43.300000000000004,47.0 C 43.6,46.7 43.7,46.3 43.6,46.0 C 43.5,45.7 44.300000000000004,44.5 45.4,43.2 C 46.5,41.900000000000006 47.5,40.300000000000004 47.699999999999996,39.7 C 48.3,37.8 49.3,35.8 50.1,35.1 M 25.1,58.7 C 24.8,59.0 24.5,59.300000000000004 24.3,59.300000000000004 C 24.1,59.300000000000004 24.1,59.2 24.2,59.1 C 24.3,59.0 24.3,58.5 24.099999999999998,58.1 C 23.799999999999997,57.4 23.9,57.300000000000004 24.999999999999996,57.300000000000004 C 26.1,57.3 26.2,57.5 25.1,58.7 M 28.1,49.9 L 24.400000000000002,49.9 L 24.6,47.1 C 24.8,44.4 25.200000000000003,42.7 26.3,40.800000000000004 C 26.6,40.300000000000004 26.8,39.6 26.900000000000002,39.2 C 27.000000000000004,38.800000000000004 27.6,37.900000000000006 28.200000000000003,37.1 C 28.900000000000002,36.4 29.400000000000002,35.5 29.400000000000002,35.300000000000004 C 29.400000000000002,35.00000000000001 29.700000000000003,34.800000000000004 30.1,34.800000000000004 C 30.5,34.800000000000004 30.8,34.6 30.8,34.300000000000004 C 30.8,34.00000000000001 31.1,33.7 31.400000000000002,33.6 C 31.700000000000003,33.5 32.400000000000006,33.0 33.0,32.5 C 35.7,30.1 35.5,30.2 38.0,29.8 C 38.5,29.7 39.9,29.400000000000002 41.0,29.1 C 42.1,28.8 43.7,28.5 44.6,28.400000000000002 L 46.2,28.200000000000003 L 45.7,29.200000000000003 C 45.400000000000006,29.700000000000003 44.900000000000006,30.500000000000004 44.6,30.800000000000004 C 43.5,31.900000000000006 42.1,34.00000000000001 42.2,34.400000000000006 C 42.300000000000004,34.60000000000001 41.7,35.7 40.900000000000006,36.800000000000004 C 40.2,37.900000000000006 39.2,39.50000000000001 38.800000000000004,40.400000000000006 C 38.400000000000006,41.300000000000004 37.6,42.50000000000001 37.00000000000001,43.10000000000001 C 36.400000000000006,43.70000000000001 35.900000000000006,44.400000000000006 35.900000000000006,44.70000000000001 C 35.900000000000006,44.90000000000001 35.800000000000004,45.10000000000001 35.60000000000001,45.10000000000001 C 35.40000000000001,45.10000000000001 35.0,45.2 35.0,45.5 C 35.0,45.7 34.4,46.5 33.7,47.3 C 33.0,48.099999999999994 32.300000000000004,49.0 32.1,49.3 C 31.8,49.8 31.3,49.9 28.1,49.9 M 58.8,68.6 C 58.599999999999994,68.69999999999999 58.5,69.19999999999999 58.8,70.1 C 59.0,70.89999999999999 59.0,71.6 58.9,71.8 C 58.6,72.3 54.0,73.6 53.199999999999996,73.39999999999999 C 52.8,73.3 52.099999999999994,73.39999999999999 51.599999999999994,73.69999999999999 C 51.099999999999994,73.99999999999999 50.199999999999996,74.19999999999999 49.699999999999996,74.19999999999999 C 49.099999999999994,74.19999999999999 48.699999999999996,74.29999999999998 48.699999999999996,74.49999999999999 C 48.699999999999996,74.69999999999999 48.49999999999999,74.79999999999998 48.3,74.79999999999998 C 47.3,74.69999999999999 46.199999999999996,74.39999999999998 45.9,74.19999999999999 C 45.699999999999996,74.1 45.0,73.89999999999999 44.4,73.89999999999999 C 43.8,73.89999999999999 42.8,73.49999999999999 42.199999999999996,73.19999999999999 C 41.599999999999994,72.89999999999999 40.099999999999994,72.29999999999998 38.99999999999999,72.1 C 36.699999999999996,71.6 33.599999999999994,70.1 33.599999999999994,69.6 C 33.599999999999994,69.39999999999999 33.39999999999999,69.3 33.3,69.3 C 32.8,69.3 30.999999999999996,67.89999999999999 30.999999999999996,67.6 C 30.999999999999996,67.3 32.8,64.6 33.699999999999996,63.599999999999994 C 33.99999999999999,63.199999999999996 34.199999999999996,62.8 34.099999999999994,62.49999999999999 C 33.99999999999999,62.29999999999999 34.39999999999999,61.699999999999996 34.89999999999999,61.199999999999996 C 35.39999999999999,60.699999999999996 35.89999999999999,59.9 36.099999999999994,59.4 C 36.199999999999996,58.9 36.699999999999996,58.3 37.099999999999994,58.1 C 37.599999999999994,57.9 37.89999999999999,57.6 37.89999999999999,57.5 C 37.89999999999999,57.2 40.89999999999999,56.8 43.69999999999999,56.9 C 50.59999999999999,57.0 53.79999999999999,56.9 55.19999999999999,56.699999999999996 C 56.59999999999999,56.49999999999999 56.79999999999999,56.599999999999994 56.79999999999999,57.099999999999994 C 56.79999999999999,57.699999999999996 57.19999999999999,60.89999999999999 57.79999999999999,64.5 C 57.99999999999999,65.7 58.09999999999999,66.7 58.09999999999999,66.8 C 58.09999999999999,66.89999999999999 58.399999999999984,67.1 58.79999999999999,67.2 C 59.2,67.2 59.4,68.4 58.8,68.6 M 73.8,56.1 C 73.6,56.300000000000004 73.3,57.300000000000004 73.1,58.300000000000004 C 72.89999999999999,59.2 72.6,60.00000000000001 72.39999999999999,60.00000000000001 C 72.19999999999999,60.00000000000001 72.1,60.400000000000006 72.1,60.900000000000006 C 72.1,61.400000000000006 71.69999999999999,62.2 71.1,62.7 C 70.6,63.2 69.8,64.0 69.5,64.5 L 68.9,65.3 L 68.5,63.4 C 68.3,62.4 68.2,61.199999999999996 68.2,60.8 C 68.2,60.4 67.9,59.4 67.5,58.4 C 66.3,55.8 66.5,55.6 70.7,55.6 C 73.5,55.7 74.1,55.8 73.8,56.1 M 75.4,50.2 C 75.10000000000001,50.5 67.9,50.6 66.2,50.400000000000006 C 64.2,50.10000000000001 63.900000000000006,49.800000000000004 63.800000000000004,48.10000000000001 C 63.800000000000004,47.50000000000001 63.6,46.30000000000001 63.300000000000004,45.60000000000001 C 62.400000000000006,43.30000000000001 61.900000000000006,40.400000000000006 61.7,36.50000000000001 C 61.6,34.300000000000004 61.300000000000004,32.20000000000001 61.0,31.60000000000001 C 60.4,30.20000000000001 60.8,29.60000000000001 62.0,30.500000000000007 C 62.5,30.900000000000006 62.9,31.200000000000006 63.1,31.200000000000006 C 63.4,31.200000000000006 64.2,31.900000000000006 65.8,33.50000000000001 C 67.0,34.70000000000001 67.39999999999999,34.900000000000006 68.2,34.800000000000004 C 69.10000000000001,34.7 69.2,34.7 69.2,35.400000000000006 C 69.2,35.800000000000004 69.5,36.400000000000006 69.8,36.7 C 70.1,37.0 70.5,37.7 70.7,38.300000000000004 C 70.8,38.800000000000004 71.60000000000001,40.00000000000001 72.5,40.800000000000004 C 75.1,43.400000000000006 75.5,44.1 75.1,44.50000000000001 C 74.6,44.900000000000006 74.8,46.50000000000001 75.3,46.900000000000006 C 75.4,47.0 75.6,49.9 75.4,50.2" fill="#000000" stroke="none" stroke-width="2.0" /></g></svg>