<?xml version="1.0" encoding="utf-8" ?>
<svg baseProfile="full" height="100px" version="1.1" width="150px" xmlns="http://www.w3.org/2000/svg" xmlns:ev="http://www.w3.org/2001/xml-events" xmlns:xlink="http://www.w3.org/1999/xlink"><defs><clipPath id="mask0"><rect height="100" width="150" x="0" y="0" /></clipPath><clipPath id="mask1"><rect height="50.0" width="75.0" x="0" y="0" /></clipPath></defs><g clip-path="url(#mask0)"><rect fill="#cc0000" height="50.0" stroke="none" width="150" x="0" y="0.0" /><rect fill="#fcdc04" height="50.0" stroke="none" width="150" x="0" y="50.0" /></g><g clip-path="url(#mask1)"><rect fill="#fcdc04" height="8.333333333333334" stroke="none" width="75.0" x="0" y="0.0" /><rect fill="#003897" height="8.333333333333334" stroke="none" width="75.0" x="0" y="8.333333333333334" /><rect fill="#fcdc04" height="8.333333333333334" stroke="none" width="75.0" x="0" y="16.666666666666668" /><rect fill="#003897" height="8.333333333333334" stroke="none" width="75.0" x="0" y="25.0" /><rect fill="#fcdc04" height="8.333333333333334" stroke="none" width="75.0" x="0" y="33.333333333333336" /><rect fill="#003897" height="8.333333333333334" stroke="none" width="75.0" x="0" y="41.666666666666664" /></g><g id="empty" /><g transform="translate(85.38856198604046, 22.888561986040457) scale(0.5422287602791909) rotate(0, 50.0, 50.0)"><path d="M 50.0,0.0 C 36.3,0.0 23.2,3.5 14.1,7.8 L 14.1,7.8 C 13.2,8.2 12.2,8.6 11.3,9.0 L 14.3,55.7 C 16.400000000000002,80.1 32.3,94.30000000000001 50.0,99.9 C 67.7,94.30000000000001 83.6,80.10000000000001 85.7,55.7 L 88.7,9.100000000000001 C 87.8,8.600000000000001 86.9,8.200000000000001 85.9,7.800000000000002 L 85.9,7.800000000000002 C 76.8,3.5 63.8,0.0 50.0,0.0 C 50.0,0.0 50.0,0.0 50.0,0.0" fill="#3B62AE" stroke="none" stroke-width="0px" /><path d="M 50.0,32.3 L 41.3,49.3 L 35.699999999999996,42.0 L 20.9,61.6 C 21.2,62.800000000000004 21.5,64.0 21.799999999999997,65.1 C 23.4,67.89999999999999 26.599999999999998,71.1 30.699999999999996,71.1 C 33.9,71.1 37.099999999999994,68.5 40.39999999999999,68.5 C 43.599999999999994,68.5 46.79999999999999,71.1 50.099999999999994,71.1 C 53.3,71.1 56.49999999999999,68.5 59.8,68.5 C 63.0,68.5 66.2,71.1 69.5,71.1 C 73.5,71.1 76.7,68.0 78.3,65.19999999999999 C 78.7,63.999999999999986 79.0,62.79999999999999 79.2,61.59999999999999 L 64.4,42.1 L 58.800000000000004,49.4 L 50.0,32.3 M 40.3,71.0 C 37.099999999999994,71.0 33.9,73.6 30.599999999999998,73.6 C 28.099999999999998,73.6 25.9,72.69999999999999 24.199999999999996,71.39999999999999 C 24.799999999999997,72.69999999999999 25.399999999999995,73.89999999999999 26.099999999999994,75.1 C 27.399999999999995,75.89999999999999 28.899999999999995,76.5 30.599999999999994,76.5 C 33.8,76.5 36.99999999999999,73.9 40.3,73.9 C 43.5,73.9 46.699999999999996,76.5 50.0,76.5 C 53.2,76.5 56.4,73.9 59.7,73.9 C 62.900000000000006,73.9 66.10000000000001,76.5 69.4,76.5 C 71.0,76.5 72.5,76.0 73.9,75.1 C 74.60000000000001,73.89999999999999 75.2,72.69999999999999 75.80000000000001,71.39999999999999 C 74.10000000000001,72.69999999999999 71.9,73.49999999999999 69.4,73.49999999999999 C 66.2,73.49999999999999 63.00000000000001,70.89999999999999 59.7,70.89999999999999 C 56.5,70.89999999999999 53.300000000000004,73.49999999999999 50.0,73.49999999999999 C 46.8,73.6 43.6,71.0 40.3,71.0 L 40.3,71.0 M 40.3,76.5 C 37.099999999999994,76.5 33.9,79.1 30.599999999999998,79.1 C 29.9,79.1 29.2,79.0 28.599999999999998,78.89999999999999 C 34.199999999999996,86.3 41.8,91.3 49.9,94.19999999999999 C 58.0,91.29999999999998 65.6,86.39999999999999 71.2,78.89999999999999 C 70.60000000000001,78.99999999999999 69.9,79.1 69.2,79.1 C 66.0,79.1 62.800000000000004,76.5 59.5,76.5 C 56.3,76.5 53.1,79.1 49.8,79.1 C 46.8,79.1 43.6,76.5 40.3,76.5 L 40.3,76.5" fill="#FFFFFF" stroke="none" stroke-width="0px" /><path d="M 39.1,12.6 L 37.9,10.5 L 35.5,10.5 L 36.7,8.4 L 35.5,6.300000000000001 L 37.9,6.300000000000001 L 39.1,4.200000000000001 L 40.300000000000004,6.300000000000001 L 42.7,6.300000000000001 L 41.5,8.4 L 42.7,10.5 L 40.300000000000004,10.5 L 39.1,12.6 M 62.1,10.5 L 64.5,10.5 L 63.3,8.4 L 64.5,6.300000000000001 L 62.1,6.300000000000001 L 60.9,4.200000000000001 L 59.699999999999996,6.300000000000001 L 57.3,6.300000000000001 L 58.5,8.4 L 57.3,10.5 L 59.699999999999996,10.5 L 60.9,12.6 L 62.1,10.5 M 51.2,25.0 L 53.6,25.0 L 52.4,22.9 L 53.6,20.799999999999997 L 51.2,20.799999999999997 L 50.0,18.7 L 48.8,20.8 L 46.4,20.8 L 47.6,22.900000000000002 L 46.4,25.0 L 48.8,25.0 L 50.0,27.1 L 51.2,25.0" fill="#FFE500" stroke="none" stroke-width="0px" /><path d="M 85.9,7.8 L 83.10000000000001,54.199999999999996 C 81.2,78.0 66.4,91.8 50.0,97.2 C 33.6,91.8 18.8,77.9 16.9,54.2 L 14.1,7.8 C 13.2,8.2 12.2,8.6 11.3,9.0 L 14.3,55.7 C 16.400000000000002,80.1 32.3,94.4 50.0,99.9 C 67.7,94.30000000000001 83.6,80.10000000000001 85.7,55.7 L 88.7,9.100000000000001 C 87.8,8.7 86.8,8.3 85.9,7.8 L 85.9,7.8" fill="#ED2224" stroke="none" stroke-width="0px" /></g></svg>