<?xml version="1.0" encoding="utf-8" ?>
<svg baseProfile="full" height="100px" version="1.1" width="150px" xmlns="http://www.w3.org/2000/svg" xmlns:ev="http://www.w3.org/2001/xml-events" xmlns:xlink="http://www.w3.org/1999/xlink"><defs><clipPath id="mask0"><rect height="100" width="150" x="0" y="0" /></clipPath></defs><g clip-path="url(#mask0)"><rect fill="#1a6354" height="100" stroke="none" width="150" x="0" y="0" /></g><g transform="translate(52.45373000298501, 27.45373000298501) scale(0.4509253999402998) rotate(0, 50.0, 50.0)"><path d="M 95.4,51.3 L 97.0,56.5 L 92.7,53.3 L 88.3,56.5 L 90.0,51.5 L 85.6,48.3 L 90.89999999999999,48.4 L 92.6,43.199999999999996 L 94.19999999999999,48.3 L 99.69999999999999,48.3 L 95.4,51.3 M 82.6,34.9 L 87.0,31.7 L 91.3,34.9 L 89.7,29.7 L 94.10000000000001,26.599999999999998 L 88.60000000000001,26.599999999999998 L 87.0,21.5 L 85.3,26.7 L 80.0,26.599999999999998 L 84.4,29.799999999999997 L 82.6,34.9 M 71.7,6.0 L 70.0,11.2 L 64.7,11.1 L 69.10000000000001,14.3 L 67.4,19.3 L 71.80000000000001,16.1 L 76.10000000000001,19.3 L 74.50000000000001,14.100000000000001 L 78.90000000000002,11.000000000000002 L 73.40000000000002,11.000000000000002 L 71.7,6.0 M 50.1,0.0 L 48.4,5.2 L 43.1,5.1000000000000005 L 47.5,8.3 L 45.8,13.3 L 50.199999999999996,10.100000000000001 L 54.49999999999999,13.3 L 52.89999999999999,8.100000000000001 L 57.29999999999999,5.000000000000002 L 51.79999999999999,5.000000000000002 L 50.1,0.0 M 28.8,5.8 L 27.1,11.0 L 21.8,10.9 L 26.200000000000003,14.100000000000001 L 24.500000000000004,19.1 L 28.900000000000006,15.900000000000002 L 33.2,19.1 L 31.5,14.0 L 35.9,10.9 L 30.4,10.9 L 28.8,5.8 M 12.8,21.3 L 11.100000000000001,26.5 L 5.800000000000002,26.4 L 10.200000000000003,29.599999999999998 L 8.500000000000004,34.599999999999994 L 12.900000000000004,31.399999999999995 L 17.200000000000003,34.599999999999994 L 15.600000000000003,29.399999999999995 L 20.000000000000004,26.299999999999994 L 14.500000000000004,26.299999999999994 L 12.8,21.3 M 7.1,53.1 L 11.399999999999999,56.300000000000004 L 9.799999999999999,51.1 L 14.2,48.0 L 8.7,48.0 L 7.1,42.9 L 5.3,48.0 L 0.0,48.0 L 4.4,51.2 L 2.7,56.2 L 7.1,53.1 M 14.4,69.9 L 12.8,64.80000000000001 L 11.1,70.0 L 5.8,69.9 L 10.2,73.10000000000001 L 8.5,78.10000000000001 L 12.9,74.9 L 17.2,78.10000000000001 L 15.5,73.0 L 19.9,69.9 L 14.4,69.9 M 29.9,85.9 L 28.299999999999997,80.80000000000001 L 26.6,86.0 L 21.3,85.9 L 25.700000000000003,89.10000000000001 L 24.000000000000004,94.10000000000001 L 28.400000000000006,90.9 L 32.7,94.10000000000001 L 31.0,89.0 L 35.4,85.9 L 29.9,85.9 M 51.5,91.7 L 49.9,86.60000000000001 L 48.199999999999996,91.80000000000001 L 42.9,91.70000000000002 L 47.3,94.90000000000002 L 45.599999999999994,99.90000000000002 L 49.99999999999999,96.70000000000002 L 54.29999999999999,99.90000000000002 L 52.69999999999999,94.70000000000002 L 57.09999999999999,91.60000000000002 L 51.5,91.7 M 73.0,85.9 L 71.4,80.80000000000001 L 69.7,86.0 L 64.4,85.9 L 68.80000000000001,89.10000000000001 L 67.10000000000001,94.10000000000001 L 71.50000000000001,90.9 L 75.80000000000001,94.10000000000001 L 74.1,89.0 L 78.5,85.9 L 73.0,85.9 M 89.0,69.9 L 87.4,64.80000000000001 L 85.7,70.0 L 80.4,69.9 L 84.80000000000001,73.10000000000001 L 83.10000000000001,78.10000000000001 L 87.50000000000001,74.9 L 91.80000000000001,78.10000000000001 L 90.1,73.0 L 94.5,69.9 L 89.0,69.9" fill="#ffce00" stroke="none" stroke-width="3.0" /></g></svg>