<?xml version="1.0" encoding="utf-8" ?>
<svg baseProfile="full" height="100px" version="1.1" width="150px" xmlns="http://www.w3.org/2000/svg" xmlns:ev="http://www.w3.org/2001/xml-events" xmlns:xlink="http://www.w3.org/1999/xlink"><defs><clipPath id="mask0"><rect height="100" width="150" x="0" y="0" /></clipPath></defs><g clip-path="url(#mask0)"><rect fill="#0099cc" height="100" stroke="none" width="150" x="0" y="0" /><rect fill="none" height="91.60569664444147" stroke="#ffffff" stroke-width="8.394303355558531" width="141.60569664444148" x="4.1971516777792655" y="4.1971516777792655" /></g><g transform="translate(53.29203528055062, 28.292035280550618) scale(0.43415929438898765) rotate(0, 50.0, 50.0)"><path d="M 44.5,86.6 C 38.0,85.69999999999999 32.5,83.1 27.4,79.3 C 26.299999999999997,81.3 26.2,83.39999999999999 26.4,85.5 C 26.5,86.6 26.7,87.8 26.7,88.9 C 26.7,91.30000000000001 25.3,92.30000000000001 23.099999999999998,91.30000000000001 C 21.499999999999996,90.60000000000001 19.9,89.60000000000001 18.5,88.50000000000001 C 14.7,85.60000000000001 11.4,82.20000000000002 9.3,77.80000000000001 C 7.6000000000000005,74.4 8.8,72.70000000000002 12.5,72.80000000000001 C 15.1,72.9 17.7,73.4 20.3,71.9 C 16.7,66.80000000000001 14.200000000000001,61.10000000000001 13.4,54.7 C 11.100000000000001,55.2 9.8,56.7 8.4,58.2 C 7.6000000000000005,59.1 6.9,60.2 6.0,61.1 C 4.4,62.7 2.8,62.4 1.7999999999999998,60.4 C 0.2,57.3 -0.1,54.0 0.0,50.6 C 0.2,47.2 0.6,43.800000000000004 1.4,40.6 C 2.3,37.1 4.699999999999999,36.800000000000004 7.1,39.5 C 8.9,41.4 10.399999999999999,43.6 13.3,44.4 C 14.5,38.199999999999996 16.6,32.4 20.700000000000003,27.4 C 18.400000000000002,25.9 16.000000000000004,26.2 13.700000000000003,26.4 C 12.800000000000002,26.5 11.900000000000002,26.599999999999998 11.000000000000004,26.599999999999998 C 8.500000000000004,26.599999999999998 7.5000000000000036,25.2 8.600000000000003,22.9 C 9.400000000000004,21.099999999999998 10.400000000000004,19.2 11.800000000000004,17.7 C 14.600000000000005,14.899999999999999 17.600000000000005,12.399999999999999 20.600000000000005,9.799999999999999 C 21.2,9.4 22.0,9.0 22.8,8.7 C 25.7,7.699999999999999 27.3,9.0 27.200000000000003,12.0 C 27.1,14.0 27.1,16.1 27.200000000000003,18.1 C 27.200000000000003,18.8 27.700000000000003,19.5 28.000000000000004,20.3 C 33.0,16.7 38.400000000000006,14.3 45.0,13.4 C 44.0,11.9 43.3,10.600000000000001 42.3,9.5 C 41.3,8.4 40.0,7.5 38.9,6.4 C 37.199999999999996,4.7 37.4,2.8000000000000003 39.699999999999996,1.8000000000000007 C 41.49999999999999,1.0000000000000007 43.599999999999994,0.6000000000000008 45.599999999999994,0.20000000000000062 C 49.699999999999996,-0.49999999999999933 53.699999999999996,-0.1999999999999994 57.8,0.6000000000000006 C 58.0,0.8 58.4,1.0 58.8,1.1 C 60.199999999999996,1.6 61.8,2.0 62.099999999999994,3.6 C 62.39999999999999,5.3 60.99999999999999,6.2 59.8,7.1 C 57.699999999999996,8.799999999999999 55.599999999999994,10.399999999999999 54.699999999999996,13.3 C 60.9,14.3 66.69999999999999,16.400000000000002 71.8,20.3 C 73.2,18.2 73.0,15.9 72.89999999999999,13.8 C 72.89999999999999,12.9 72.69999999999999,12.0 72.8,11.100000000000001 C 73.0,8.900000000000002 74.3,7.900000000000001 76.39999999999999,8.600000000000001 C 78.19999999999999,9.200000000000001 79.8,10.3 81.39999999999999,11.3 C 84.99999999999999,13.8 87.89999999999999,17.1 90.3,20.8 C 90.89999999999999,21.7 91.39999999999999,22.8 91.6,23.900000000000002 C 92.0,25.6 91.0,26.700000000000003 89.3,26.700000000000003 C 88.0,26.700000000000003 86.7,26.6 85.39999999999999,26.400000000000002 C 83.3,26.200000000000003 81.3,26.3 79.3,27.500000000000004 C 83.1,32.6 85.6,38.2 86.6,44.5 C 89.0,43.8 90.6,42.2 92.0,40.4 C 93.0,39.1 94.0,37.5 95.9,37.9 C 98.0,38.3 98.60000000000001,40.199999999999996 99.0,42.0 C 100.2,47.4 100.2,52.9 99.0,58.3 C 99.0,58.6 99.0,58.8 98.9,59.0 C 98.4,60.4 97.9,62.0 96.30000000000001,62.0 C 95.20000000000002,62.0 94.10000000000001,60.9 93.20000000000002,60.1 C 91.70000000000002,58.800000000000004 90.50000000000001,57.2 89.10000000000002,55.9 C 88.60000000000002,55.4 87.80000000000003,55.1 86.80000000000003,54.6 C 85.70000000000003,61.0 83.60000000000002,66.8 79.80000000000003,72.0 C 81.60000000000002,73.1 83.40000000000002,73.1 85.30000000000003,73.1 C 86.40000000000002,73.1 87.40000000000002,72.89999999999999 88.50000000000003,72.89999999999999 C 91.00000000000003,72.89999999999999 92.20000000000003,74.6 91.20000000000003,76.89999999999999 C 90.30000000000003,78.99999999999999 89.00000000000003,81.19999999999999 87.50000000000003,82.89999999999999 C 85.20000000000003,85.49999999999999 82.50000000000003,87.8 79.80000000000003,89.99999999999999 C 78.80000000000003,90.79999999999998 77.50000000000003,91.29999999999998 76.30000000000003,91.59999999999998 C 74.30000000000003,92.09999999999998 73.30000000000003,91.39999999999998 73.30000000000003,89.39999999999998 C 73.20000000000003,88.09999999999998 73.60000000000002,86.79999999999998 73.60000000000002,85.49999999999997 C 73.60000000000002,83.59999999999997 73.40000000000002,81.59999999999997 73.00000000000003,79.59999999999997 C 67.50000000000003,83.49999999999997 61.60000000000003,85.99999999999997 55.00000000000003,86.79999999999997 C 55.60000000000003,89.09999999999997 57.10000000000003,90.39999999999996 58.70000000000003,91.79999999999997 C 59.50000000000003,92.59999999999997 60.50000000000003,93.19999999999997 61.30000000000003,93.99999999999997 C 62.900000000000034,95.59999999999997 62.80000000000003,97.19999999999997 60.60000000000003,98.19999999999997 C 59.20000000000003,98.89999999999998 57.60000000000003,99.19999999999997 56.10000000000003,99.49999999999997 C 51.60000000000003,100.29999999999997 47.20000000000003,100.09999999999997 42.800000000000026,99.19999999999997 C 42.40000000000003,99.09999999999998 41.90000000000003,98.99999999999997 41.50000000000003,98.79999999999997 C 40.00000000000003,98.19999999999997 38.40000000000003,97.69999999999997 38.00000000000003,95.89999999999996 C 37.70000000000003,94.19999999999996 39.10000000000003,93.29999999999997 40.20000000000003,92.29999999999997 C 41.400000000000034,91.09999999999997 42.60000000000003,89.89999999999996 43.70000000000003,88.69999999999997 C 43.9,88.2 44.1,87.4 44.5,86.6" fill="#fec50c" stroke="none" stroke-width="3.0" /></g></svg>