<?xml version="1.0" encoding="utf-8" ?>
<svg baseProfile="full" height="100px" version="1.1" width="150px" xmlns="http://www.w3.org/2000/svg" xmlns:ev="http://www.w3.org/2001/xml-events" xmlns:xlink="http://www.w3.org/1999/xlink"><defs><clipPath id="mask0"><rect height="100" width="150" x="0" y="0" /></clipPath></defs><g clip-path="url(#mask0)"><rect fill="#ffce00" height="100" stroke="none" width="150" x="0" y="0" /><line fill="none" stroke="#005da4" stroke-width="9.671694696843396" x1="0" x2="150" y1="11.005305894383694" y2="11.005305894383694" /><line fill="none" stroke="#005da4" stroke-width="9.671694696843396" x1="0" x2="150" y1="88.9946941056163" y2="88.9946941056163" /></g><g transform="translate(20.0, 40.0) scale(0.2) rotate(0, 50.0, 50.0)"><path d="M 66.7,33.3 L 100.0,33.3 L 100.0,66.6 L 66.7,66.6 L 66.7,99.89999999999999 L 33.400000000000006,99.89999999999999 L 33.400000000000006,66.6 L 0.0,66.6 L 0.0,33.3 L 33.3,33.3 L 33.3,0.0 L 66.6,0.0 L 66.7,33.3" fill="#ffffff" stroke="none" stroke-width="3.0px" /></g><g transform="translate(50.0, 40.0) scale(0.2) rotate(0, 50.0, 50.0)"><path d="M 66.7,33.3 L 100.0,33.3 L 100.0,66.6 L 66.7,66.6 L 66.7,99.89999999999999 L 33.400000000000006,99.89999999999999 L 33.400000000000006,66.6 L 0.0,66.6 L 0.0,33.3 L 33.3,33.3 L 33.3,0.0 L 66.6,0.0 L 66.7,33.3" fill="#ffffff" stroke="none" stroke-width="3.0px" /></g><g transform="translate(80.0, 40.0) scale(0.2) rotate(0, 50.0, 50.0)"><path d="M 66.7,33.3 L 100.0,33.3 L 100.0,66.6 L 66.7,66.6 L 66.7,99.89999999999999 L 33.400000000000006,99.89999999999999 L 33.400000000000006,66.6 L 0.0,66.6 L 0.0,33.3 L 33.3,33.3 L 33.3,0.0 L 66.6,0.0 L 66.7,33.3" fill="#ffffff" stroke="none" stroke-width="3.0px" /></g><g transform="translate(110.0, 40.0) scale(0.2) rotate(0, 50.0, 50.0)"><path d="M 66.7,33.3 L 100.0,33.3 L 100.0,66.6 L 66.7,66.6 L 66.7,99.89999999999999 L 33.400000000000006,99.89999999999999 L 33.400000000000006,66.6 L 0.0,66.6 L 0.0,33.3 L 33.3,33.3 L 33.3,0.0 L 66.6,0.0 L 66.7,33.3" fill="#ffffff" stroke="none" stroke-width="3.0px" /></g></svg>