<?xml version="1.0" encoding="utf-8" ?>
<svg baseProfile="full" height="100px" version="1.1" width="150px" xmlns="http://www.w3.org/2000/svg" xmlns:ev="http://www.w3.org/2001/xml-events" xmlns:xlink="http://www.w3.org/1999/xlink"><defs><clipPath id="mask0"><rect height="100" width="150" x="0" y="0" /></clipPath></defs><g clip-path="url(#mask0)"><rect fill="#ffce00" height="100" stroke="none" width="150" x="0" y="0" /><rect fill="#229e45" height="100" stroke="none" width="49.87543743993531" x="0" y="0" /></g><g transform="translate(67.17926243502956, 17.2415437150619) scale(0.655169125698762) rotate(0, 50.0, 50.0)"><path d="M 48.2,83.3 C 47.5,83.39999999999999 47.0,83.5 46.6,83.5 C 43.2,83.5 39.9,83.6 36.5,83.5 C 35.8,83.5 35.2,82.9 34.6,82.6 C 34.5,82.5 34.4,82.3 34.300000000000004,82.19999999999999 C 30.200000000000003,76.69999999999999 30.800000000000004,77.99999999999999 25.100000000000005,77.39999999999999 C 21.500000000000004,76.99999999999999 17.800000000000004,76.89999999999999 14.400000000000006,75.49999999999999 C 11.800000000000006,74.49999999999999 9.700000000000006,72.79999999999998 8.300000000000006,70.09999999999998 C 8.900000000000006,70.09999999999998 9.300000000000006,70.09999999999998 9.700000000000006,70.09999999999998 C 12.900000000000006,70.29999999999998 16.000000000000007,70.09999999999998 18.900000000000006,68.69999999999997 C 19.700000000000006,68.29999999999997 20.300000000000004,67.59999999999998 21.000000000000007,67.09999999999998 C 20.900000000000006,66.89999999999998 20.900000000000006,66.69999999999997 20.800000000000008,66.49999999999999 C 20.10000000000001,66.49999999999999 19.300000000000008,66.49999999999999 18.60000000000001,66.49999999999999 C 12.500000000000009,66.39999999999999 7.000000000000009,64.39999999999999 2.6000000000000085,60.09999999999999 C 1.7000000000000086,59.19999999999999 0.9000000000000086,58.09999999999999 0.20000000000000862,56.79999999999999 C 4.800000000000008,58.19999999999999 9.000000000000009,58.19999999999999 12.900000000000007,55.09999999999999 C 12.500000000000007,54.79999999999999 12.000000000000007,54.399999999999984 11.600000000000007,54.09999999999999 C 9.300000000000008,52.29999999999999 7.400000000000007,50.19999999999999 6.300000000000007,47.499999999999986 C 6.000000000000007,46.79999999999998 6.000000000000007,45.999999999999986 5.800000000000007,44.899999999999984 C 10.500000000000007,47.19999999999998 14.300000000000008,50.59999999999999 19.800000000000008,50.19999999999998 C 15.600000000000009,44.09999999999998 11.200000000000008,38.19999999999998 12.900000000000007,30.39999999999998 C 14.200000000000008,32.79999999999998 15.700000000000006,34.89999999999998 18.200000000000006,35.89999999999998 C 20.600000000000005,36.89999999999998 23.10000000000001,37.39999999999998 25.900000000000006,38.299999999999976 C 25.800000000000004,37.39999999999998 25.700000000000006,36.89999999999998 25.600000000000005,36.39999999999998 C 24.800000000000004,32.799999999999976 24.600000000000005,29.299999999999976 26.500000000000004,25.899999999999977 C 27.300000000000004,24.49999999999998 28.600000000000005,23.199999999999978 29.800000000000004,21.99999999999998 C 29.500000000000004,25.29999999999998 30.200000000000003,27.99999999999998 32.50000000000001,30.29999999999998 C 34.10000000000001,31.99999999999998 36.20000000000001,32.89999999999998 38.70000000000001,33.19999999999998 C 38.20000000000001,27.499999999999982 40.60000000000001,23.19999999999998 44.70000000000001,19.59999999999998 C 46.70000000000001,17.89999999999998 48.40000000000001,16.99999999999998 49.80000000000001,16.99999999999998 C 48.20000000000001,21.199999999999978 47.40000000000001,25.29999999999998 50.60000000000001,29.09999999999998 C 51.70000000000001,30.39999999999998 53.00000000000001,31.29999999999998 54.900000000000006,31.69999999999998 C 56.00000000000001,22.19999999999998 62.300000000000004,18.299999999999983 71.10000000000001,16.299999999999983 C 67.10000000000001,22.19999999999998 66.00000000000001,27.899999999999984 69.60000000000001,34.499999999999986 C 70.00000000000001,33.399999999999984 70.30000000000001,32.59999999999999 70.50000000000001,31.799999999999986 C 71.70000000000002,28.399999999999988 73.60000000000001,25.499999999999986 76.90000000000002,23.799999999999986 C 79.60000000000002,22.399999999999988 82.40000000000002,22.299999999999986 85.50000000000001,23.299999999999986 C 80.20000000000002,27.399999999999984 79.90000000000002,32.69999999999999 81.30000000000001,38.69999999999999 C 85.80000000000001,35.59999999999999 90.20000000000002,35.69999999999999 94.70000000000002,37.999999999999986 C 93.20000000000002,39.19999999999999 91.80000000000001,40.19999999999999 90.50000000000001,41.499999999999986 C 88.30000000000001,43.69999999999999 87.10000000000001,46.499999999999986 86.60000000000001,49.59999999999999 C 86.2,51.899999999999984 87.2,53.79999999999999 88.50000000000001,55.499999999999986 C 89.50000000000001,56.79999999999998 90.70000000000002,58.09999999999999 91.80000000000001,59.29999999999998 C 95.70000000000002,63.399999999999984 92.9,68.69999999999999 88.9,70.19999999999999 C 84.60000000000001,71.89999999999999 80.30000000000001,72.1 75.80000000000001,71.19999999999999 C 74.00000000000001,70.79999999999998 74.00000000000001,70.79999999999998 73.80000000000001,72.6 C 73.4,74.7 74.0,76.4 75.0,78.0 C 75.8,79.3 76.8,80.4 77.6,81.6 C 77.89999999999999,82.0 78.1,82.5 78.5,83.19999999999999 C 77.8,83.29999999999998 77.4,83.39999999999999 77.0,83.39999999999999 C 74.0,83.39999999999999 71.0,83.39999999999999 68.0,83.39999999999999 C 67.1,83.39999999999999 66.6,83.1 66.1,82.3 C 65.39999999999999,81.1 64.69999999999999,80.0 63.99999999999999,78.8 C 63.099999999999994,77.3 61.89999999999999,76.39999999999999 60.199999999999996,76.0 C 56.699999999999996,75.1 53.199999999999996,74.9 49.699999999999996,75.4 C 48.49999999999999,75.60000000000001 47.3,76.0 46.199999999999996,76.5 C 44.199999999999996,77.5 43.99999999999999,78.6 45.49999999999999,80.2 C 45.99999999999999,80.8 46.599999999999994,81.3 47.099999999999994,81.8 C 47.6,82.3 47.8,82.7 48.2,83.3 M 84.9,57.5 C 84.9,57.3 84.9,57.1 84.9,56.9 C 84.4,56.6 83.80000000000001,55.9 83.4,55.9 C 83.0,55.9 82.2,56.8 82.30000000000001,57.199999999999996 C 82.4,57.699999999999996 83.00000000000001,58.49999999999999 83.50000000000001,58.49999999999999 C 83.8,58.5 84.4,57.8 84.9,57.5" fill="#ffffff" stroke="#000000" stroke-width="3.0" /></g></svg>