<?xml version="1.0" encoding="utf-8" ?>
<svg baseProfile="full" height="100px" version="1.1" width="150px" xmlns="http://www.w3.org/2000/svg" xmlns:ev="http://www.w3.org/2001/xml-events" xmlns:xlink="http://www.w3.org/1999/xlink"><defs><clipPath id="mask0"><rect height="100" width="150" x="0" y="0" /></clipPath></defs><g clip-path="url(#mask0)"><rect fill="#fec50c" height="100" stroke="none" width="150" x="0" y="0" /></g><g transform="translate(22.5, 35.0) scale(0.3) rotate(0, 50.0, 50.0)"><path d="M 87.4,26.2 C 87.30000000000001,22.7 86.10000000000001,20.4 84.10000000000001,19.299999999999997 C 80.2,17.099999999999998 74.30000000000001,19.9 71.2,21.699999999999996 C 71.2,21.699999999999996 71.2,21.699999999999996 71.2,21.699999999999996 C 67.9,23.799999999999997 64.3,24.799999999999997 60.300000000000004,24.899999999999995 C 59.800000000000004,23.999999999999996 59.300000000000004,22.799999999999994 58.900000000000006,21.399999999999995 C 58.00000000000001,18.499999999999996 57.60000000000001,15.099999999999994 57.7,12.299999999999995 C 58.0,5.999999999999996 56.800000000000004,3.4999999999999947 55.800000000000004,2.4999999999999947 C 54.50000000000001,1.1999999999999946 50.800000000000004,0.19999999999999485 48.2,-5.329070518200751e-15 C 47.6,-5.329070518200751e-15 47.1,0.09999999999999468 46.800000000000004,0.49999999999999467 C 46.7,0.5999999999999946 46.6,0.7999999999999947 46.6,0.8999999999999947 C 44.7,0.49999999999999467 42.0,0.09999999999999465 40.6,0.9999999999999947 C 39.6,1.6999999999999946 39.300000000000004,3.7999999999999945 39.4,4.699999999999995 C 39.4,4.899999999999995 39.5,5.499999999999995 40.0,5.699999999999995 C 40.1,5.7999999999999945 40.5,5.7999999999999945 40.8,5.599999999999995 C 41.0,5.2 41.5,5.0 42.0,5.1 C 42.7,5.199999999999999 43.6,5.8999999999999995 44.3,7.0 C 45.099999999999994,8.2 45.199999999999996,12.0 43.699999999999996,16.9 C 42.8,19.9 40.9,22.9 39.599999999999994,24.799999999999997 C 35.599999999999994,24.799999999999997 31.999999999999993,23.699999999999996 28.799999999999994,21.599999999999998 C 28.799999999999994,21.599999999999998 28.799999999999994,21.599999999999998 28.799999999999994,21.599999999999998 C 25.599999999999994,19.799999999999997 19.699999999999996,17.099999999999998 15.899999999999993,19.2 C 13.799999999999994,20.3 12.699999999999992,22.7 12.599999999999994,26.1 L 9.799999999999994,92.1 C 9.799999999999994,92.3 9.899999999999993,92.5 10.099999999999994,92.6 C 10.299999999999994,92.69999999999999 10.599999999999994,92.69999999999999 10.699999999999994,92.5 L 30.699999999999996,74.3 L 26.299999999999997,90.1 C 25.599999999999998,89.89999999999999 25.099999999999998,89.69999999999999 24.599999999999998,89.6 C 24.599999999999998,89.6 24.599999999999998,89.6 24.599999999999998,89.6 C 23.9,89.39999999999999 23.2,89.6 22.599999999999998,90.0 C 21.499999999999996,90.0 20.599999999999998,90.5 19.999999999999996,91.4 C 19.099999999999998,92.60000000000001 18.899999999999995,94.2 19.499999999999996,95.4 C 19.599999999999998,95.60000000000001 19.799999999999997,95.7 19.999999999999996,95.7 C 19.999999999999996,95.7 19.999999999999996,95.7 19.999999999999996,95.7 C 20.199999999999996,95.7 20.399999999999995,95.60000000000001 20.499999999999996,95.4 C 20.599999999999998,95.2 21.099999999999998,95.0 21.499999999999996,94.80000000000001 C 21.899999999999995,94.60000000000001 22.399999999999995,94.4 22.799999999999997,94.10000000000001 C 22.999999999999996,94.2 23.099999999999998,94.30000000000001 23.299999999999997,94.4 C 23.299999999999997,94.4 23.299999999999997,94.4 23.4,94.4 C 25.9,95.10000000000001 29.599999999999998,95.80000000000001 32.099999999999994,96.30000000000001 C 32.199999999999996,96.80000000000001 32.599999999999994,97.20000000000002 32.8,97.60000000000001 C 33.199999999999996,98.10000000000001 33.5,98.4 33.5,99.10000000000001 C 33.5,99.4 33.8,99.7 34.1,99.7 C 34.4,99.7 34.7,99.4 34.7,99.10000000000001 C 34.7,98.50000000000001 35.0,98.2 35.400000000000006,97.80000000000001 C 35.7,97.60000000000001 35.900000000000006,97.30000000000001 36.2,97.00000000000001 C 37.900000000000006,97.20000000000002 40.0,97.40000000000002 42.0,97.40000000000002 C 43.1,97.40000000000002 44.2,97.30000000000003 45.2,97.20000000000002 C 45.300000000000004,97.20000000000002 45.5,97.20000000000002 45.6,97.10000000000002 C 45.800000000000004,97.50000000000003 46.300000000000004,97.80000000000003 46.7,98.20000000000002 C 47.2,98.60000000000002 47.800000000000004,98.90000000000002 47.800000000000004,99.30000000000001 C 47.800000000000004,99.50000000000001 48.00000000000001,99.80000000000001 48.2,99.80000000000001 C 48.300000000000004,99.80000000000001 48.300000000000004,99.80000000000001 48.400000000000006,99.80000000000001 C 48.60000000000001,99.80000000000001 48.800000000000004,99.70000000000002 48.900000000000006,99.60000000000001 C 49.800000000000004,98.30000000000001 50.400000000000006,96.10000000000001 49.60000000000001,94.60000000000001 C 49.20000000000001,93.80000000000001 48.50000000000001,93.30000000000001 47.50000000000001,93.30000000000001 C 47.10000000000001,92.80000000000001 46.400000000000006,92.4 45.70000000000001,92.4 C 45.70000000000001,92.4 45.70000000000001,92.4 45.60000000000001,92.4 C 44.70000000000001,92.5 43.70000000000001,92.60000000000001 42.70000000000001,92.60000000000001 L 43.50000000000001,88.7 L 44.70000000000001,89.9 L 46.60000000000001,88.5 L 49.70000000000001,66.2 L 48.40000000000001,88.5 L 50.20000000000001,90.8 L 52.00000000000001,88.5 L 50.70000000000001,66.2 L 53.80000000000001,88.5 L 55.70000000000001,89.9 L 56.90000000000001,88.7 L 57.70000000000001,92.60000000000001 C 56.70000000000001,92.60000000000001 55.70000000000001,92.60000000000001 54.90000000000001,92.4 C 54.90000000000001,92.4 54.90000000000001,92.4 54.80000000000001,92.4 C 54.10000000000001,92.4 53.40000000000001,92.80000000000001 52.90000000000001,93.30000000000001 C 52.000000000000014,93.4 51.20000000000001,93.80000000000001 50.80000000000001,94.60000000000001 C 50.000000000000014,96.10000000000001 50.60000000000001,98.30000000000001 51.500000000000014,99.60000000000001 C 51.600000000000016,99.80000000000001 51.80000000000001,99.80000000000001 52.000000000000014,99.80000000000001 C 52.100000000000016,99.80000000000001 52.100000000000016,99.80000000000001 52.20000000000002,99.80000000000001 C 52.40000000000002,99.70000000000002 52.600000000000016,99.50000000000001 52.600000000000016,99.30000000000001 C 52.600000000000016,98.9 53.100000000000016,98.50000000000001 53.70000000000002,98.20000000000002 C 54.100000000000016,97.90000000000002 54.600000000000016,97.60000000000002 54.80000000000002,97.10000000000002 C 54.90000000000002,97.10000000000002 55.00000000000002,97.10000000000002 55.20000000000002,97.20000000000002 C 56.20000000000002,97.30000000000001 57.20000000000002,97.40000000000002 58.40000000000002,97.40000000000002 C 60.40000000000002,97.40000000000002 62.50000000000002,97.20000000000002 64.20000000000002,97.00000000000001 C 64.40000000000002,97.40000000000002 64.70000000000002,97.60000000000001 65.00000000000001,97.80000000000001 C 65.40000000000002,98.20000000000002 65.70000000000002,98.4 65.70000000000002,99.10000000000001 C 65.70000000000002,99.4 66.00000000000001,99.7 66.30000000000001,99.7 C 66.60000000000001,99.7 66.9,99.4 66.9,99.10000000000001 C 66.9,98.50000000000001 67.2,98.10000000000001 67.60000000000001,97.60000000000001 C 67.9,97.30000000000001 68.2,96.9 68.30000000000001,96.30000000000001 C 70.80000000000001,95.80000000000001 74.50000000000001,95.10000000000001 77.00000000000001,94.4 C 77.00000000000001,94.4 77.00000000000001,94.4 77.10000000000001,94.4 C 77.30000000000001,94.30000000000001 77.50000000000001,94.2 77.60000000000001,94.10000000000001 C 78.00000000000001,94.4 78.4,94.60000000000001 78.9,94.80000000000001 C 79.30000000000001,95.00000000000001 79.80000000000001,95.20000000000002 79.9,95.4 C 80.0,95.60000000000001 80.2,95.7 80.4,95.7 C 80.4,95.7 80.4,95.7 80.4,95.7 C 80.60000000000001,95.7 80.80000000000001,95.60000000000001 80.9,95.4 C 81.5,94.2 81.30000000000001,92.60000000000001 80.4,91.4 C 79.7,90.5 78.80000000000001,90.10000000000001 77.80000000000001,90.0 C 77.20000000000002,89.6 76.50000000000001,89.4 75.80000000000001,89.6 C 75.80000000000001,89.6 75.80000000000001,89.6 75.80000000000001,89.6 C 75.30000000000001,89.69999999999999 74.80000000000001,89.89999999999999 74.10000000000001,90.1 L 69.0,74.0 L 89.2,92.8 C 89.3,92.89999999999999 89.4,93.0 89.60000000000001,93.0 C 89.7,93.0 89.80000000000001,93.0 89.80000000000001,92.9 C 90.00000000000001,92.80000000000001 90.10000000000001,92.60000000000001 90.10000000000001,92.4 L 87.4,26.2 M 59.7,26.2 C 59.300000000000004,26.099999999999998 58.800000000000004,26.0 58.400000000000006,25.9 C 58.800000000000004,25.9 59.2,25.9 59.50000000000001,26.0 C 59.6,26.1 59.6,26.1 59.7,26.2 M 40.3,26.0 C 40.699999999999996,26.0 41.0,26.0 41.4,26.0 C 40.9,26.2 40.5,26.4 40.0,26.5 C 40.1,26.3 40.2,26.2 40.3,26.0 M 44.6,25.6 C 45.5,25.400000000000002 46.300000000000004,25.3 47.2,25.0 C 47.2,25.0 47.2,25.1 47.2,25.1 C 46.900000000000006,25.3 45.7,26.400000000000002 44.2,27.3 L 44.6,25.6 M 48.6,24.6 C 49.1,24.5 49.5,24.3 50.0,24.200000000000003 C 50.5,24.400000000000002 51.0,24.500000000000004 51.5,24.700000000000003 C 51.5,24.900000000000002 51.6,25.200000000000003 51.6,25.300000000000004 C 51.2,25.700000000000003 50.5,26.400000000000006 49.9,27.000000000000004 L 48.3,25.400000000000002 C 48.4,25.1 48.5,24.9 48.6,24.6 M 52.7,25.1 C 52.7,25.1 52.7,25.0 52.7,24.900000000000002 C 53.800000000000004,25.200000000000003 54.800000000000004,25.400000000000002 55.800000000000004,25.6 C 55.900000000000006,25.700000000000003 55.900000000000006,25.8 56.00000000000001,25.900000000000002 C 56.20000000000001,26.3 56.300000000000004,26.700000000000003 56.400000000000006,27.000000000000004 C 54.5,26.7 53.1,25.5 52.7,25.1 M 44.9,17.2 C 46.1,13.299999999999999 46.4,9.7 45.9,7.5 C 45.9,7.5 45.9,7.5 45.9,7.5 C 46.3,7.2 47.9,7.5 47.9,7.5 C 45.699999999999996,3.8 43.3,2.9000000000000004 42.199999999999996,3.0 C 41.49999999999999,3.0 40.99999999999999,3.6 40.599999999999994,4.1 C 40.49999999999999,4.199999999999999 40.39999999999999,4.199999999999999 40.199999999999996,4.3 C 40.199999999999996,3.5999999999999996 40.49999999999999,2.1999999999999997 40.9,1.9 C 41.199999999999996,1.7999999999999998 41.6,1.7 42.0,1.5999999999999999 C 43.7,1.4999999999999998 44.2,1.7 45.4,2.7 C 46.6,3.7 47.6,4.2 48.3,4.1 C 48.4,4.199999999999999 48.5,4.3 48.699999999999996,4.3999999999999995 C 48.8,4.499999999999999 48.8,4.6 48.9,4.699999999999999 C 49.1,5.0 49.0,5.2 49.6,5.2 C 50.0,5.2 50.2,4.5 50.4,4.3 C 50.699999999999996,4.1 51.3,3.9 51.699999999999996,3.9 C 52.49999999999999,3.6999999999999997 52.9,3.6999999999999997 53.49999999999999,3.6999999999999997 C 53.699999999999996,3.6999999999999997 54.49999999999999,3.5999999999999996 55.099999999999994,3.8 C 55.699999999999996,4.7 56.599999999999994,7.0 56.39999999999999,12.399999999999999 C 56.29999999999999,15.299999999999999 56.69999999999999,18.799999999999997 57.599999999999994,21.799999999999997 C 57.89999999999999,22.699999999999996 58.3,23.9 58.8,24.9 C 58.0,24.9 57.3,24.799999999999997 56.5,24.7 C 56.2,24.2 56.0,23.5 55.8,22.9 L 55.0,19.299999999999997 C 54.5,16.499999999999996 54.4,13.899999999999997 54.4,13.899999999999997 C 54.4,13.599999999999996 54.1,13.299999999999997 53.8,13.399999999999997 C 53.5,13.399999999999997 53.199999999999996,13.699999999999998 53.3,13.999999999999996 C 53.3,14.299999999999997 53.699999999999996,20.699999999999996 55.199999999999996,24.599999999999994 C 54.3,24.399999999999995 53.4,24.199999999999996 52.49999999999999,23.999999999999993 C 52.29999999999999,21.499999999999993 52.199999999999996,16.799999999999994 52.199999999999996,13.499999999999993 C 52.199999999999996,13.199999999999992 51.9,12.899999999999993 51.599999999999994,12.899999999999993 C 51.3,12.899999999999993 50.99999999999999,13.199999999999994 50.99999999999999,13.499999999999993 C 50.99999999999999,14.299999999999994 50.99999999999999,20.199999999999992 51.29999999999999,23.599999999999994 C 50.89999999999999,23.499999999999993 50.49999999999999,23.399999999999995 50.19999999999999,23.199999999999996 C 50.09999999999999,23.199999999999996 49.89999999999999,23.199999999999996 49.79999999999999,23.199999999999996 C 49.49999999999999,23.299999999999997 49.29999999999999,23.399999999999995 48.99999999999999,23.499999999999996 C 49.99999999999999,19.499999999999996 50.29999999999999,13.499999999999996 50.39999999999999,13.099999999999996 C 50.39999999999999,12.799999999999995 50.19999999999999,12.499999999999996 49.89999999999999,12.499999999999996 C 49.599999999999994,12.499999999999996 49.29999999999999,12.699999999999996 49.29999999999999,12.999999999999996 C 49.29999999999999,13.099999999999996 48.89999999999999,19.999999999999996 47.79999999999999,23.799999999999997 C 46.99999999999999,23.999999999999996 46.19999999999999,24.199999999999996 45.49999999999999,24.4 C 47.39999999999999,20.799999999999997 48.39999999999999,13.7 48.39999999999999,13.399999999999999 C 48.39999999999999,13.099999999999998 48.19999999999999,12.799999999999999 47.89999999999999,12.799999999999999 C 47.599999999999994,12.799999999999999 47.29999999999999,12.999999999999998 47.29999999999999,13.299999999999999 C 47.29999999999999,13.299999999999999 46.99999999999999,15.7 46.39999999999999,18.299999999999997 L 44.89999999999999,23.099999999999998 C 44.599999999999994,23.7 44.29999999999999,24.299999999999997 43.99999999999999,24.7 C 42.99999999999999,24.8 42.099999999999994,24.9 41.199999999999996,25.0 C 42.4,22.8 44.0,20.1 44.9,17.2 M 16.5,20.3 C 17.3,19.8 18.3,19.7 19.3,19.7 C 22.6,19.7 26.5,21.7 28.3,22.7 C 31.5,24.7 35.0,25.8 38.8,26.0 C 38.8,26.0 38.9,26.0 38.9,26.0 C 38.5,26.5 38.199999999999996,26.9 38.199999999999996,26.9 C 38.099999999999994,27.099999999999998 37.99999999999999,27.299999999999997 38.099999999999994,27.5 C 38.199999999999996,27.7 38.39999999999999,27.8 38.599999999999994,27.8 C 40.099999999999994,27.8 41.99999999999999,27.0 43.199999999999996,26.400000000000002 L 42.699999999999996,28.3 C 42.599999999999994,28.5 42.699999999999996,28.7 42.9,28.900000000000002 C 43.0,29.000000000000004 43.1,29.000000000000004 43.3,29.000000000000004 C 43.4,29.000000000000004 43.5,29.000000000000004 43.5,28.900000000000002 C 45.3,28.000000000000004 46.8,26.900000000000002 47.5,26.3 L 49.4,28.3 C 49.5,28.400000000000002 49.699999999999996,28.5 49.8,28.5 C 50.0,28.5 50.099999999999994,28.4 50.199999999999996,28.3 C 50.699999999999996,27.6 51.49999999999999,26.8 51.99999999999999,26.3 C 52.699999999999996,26.900000000000002 54.39999999999999,28.2 56.699999999999996,28.400000000000002 C 56.699999999999996,28.400000000000002 56.699999999999996,28.400000000000002 56.699999999999996,28.400000000000002 C 56.9,28.400000000000002 57.099999999999994,28.3 57.3,28.1 C 57.4,28.0 57.5,27.8 57.3,27.0 C 58.8,27.5 60.699999999999996,27.6 61.0,27.7 C 61.3,27.7 61.5,27.5 61.6,27.3 C 61.7,27.1 61.5,26.8 61.300000000000004,26.6 C 61.1,26.5 60.900000000000006,26.400000000000002 60.7,26.1 C 60.800000000000004,26.1 60.900000000000006,26.1 61.0,26.1 C 64.8,25.900000000000002 68.3,24.8 71.5,22.8 C 73.9,21.400000000000002 79.8,18.5 83.3,20.400000000000002 C 84.89999999999999,21.3 85.8,23.200000000000003 86.0,26.0 C 84.9,25.0 83.1,24.0 82.3,24.0 L 85.0,87.2 L 83.7,86.0 L 81.0,25.0 C 80.1,25.9 77.4,28.1 76.9,28.6 L 76.9,28.6 L 79.2,81.80000000000001 L 77.3,80.0 L 75.0,29.9 C 74.1,30.799999999999997 72.3,32.1 71.8,32.6 L 71.8,32.6 L 73.6,76.6 L 71.8,74.89999999999999 L 70.0,33.6 C 69.1,34.0 67.3,35.0 66.4,35.0 L 66.4,35.0 L 68.10000000000001,70.7 L 66.10000000000001,63.800000000000004 L 65.0,35.4 C 64.1,35.4 61.8,35.4 61.4,35.0 L 61.4,35.0 L 62.1,51.7 C 62.0,51.7 61.9,51.800000000000004 61.9,51.900000000000006 L 55.1,59.60000000000001 L 50.800000000000004,55.60000000000001 C 50.6,55.400000000000006 50.2,55.400000000000006 50.00000000000001,55.60000000000001 L 45.20000000000001,60.00000000000001 L 38.10000000000001,51.900000000000006 C 38.00000000000001,51.800000000000004 38.00000000000001,51.800000000000004 37.900000000000006,51.7 L 38.6,35.0 L 38.6,35.0 C 38.2,35.4 35.9,35.4 35.0,35.4 L 33.9,63.7 L 31.9,70.60000000000001 L 33.6,35.0 L 33.6,35.0 C 32.7,35.0 30.900000000000002,34.0 30.0,33.6 L 28.2,75.4 L 26.4,77.0 L 28.2,32.7 L 28.2,32.7 C 27.7,32.2 25.9,30.900000000000002 25.0,30.000000000000004 L 22.7,80.4 L 20.9,82.0 L 23.2,28.6 L 23.2,28.6 C 22.7,28.1 20.0,25.900000000000002 19.1,25.0 L 16.3,86.2 L 15.0,87.3 L 17.7,24.0 C 16.9,24.0 15.1,25.0 13.799999999999999,25.9 C 13.9,23.1 14.9,21.2 16.5,20.3 M 61.1,56.8 C 60.800000000000004,56.8 60.5,57.0 60.5,57.3 L 59.8,63.8 L 56.0,60.3 L 62.1,53.4 L 62.2,53.9 L 62.7,66.6 L 60.800000000000004,64.8 L 61.6,57.5 C 61.6,57.1 61.4,56.8 61.1,56.8 M 57.4,67.5 C 57.4,67.4 57.3,67.2 57.1,67.2 L 55.5,65.0 C 55.3,64.7 54.9,64.7 54.7,64.9 C 54.400000000000006,65.10000000000001 54.400000000000006,65.5 54.6,65.7 L 56.2,67.8 L 54.5,73.6 L 52.4,64.19999999999999 L 55.199999999999996,61.09999999999999 L 59.599999999999994,65.19999999999999 L 59.099999999999994,69.79999999999998 L 57.4,67.5 M 66.7,84.4 L 64.10000000000001,80.10000000000001 C 64.00000000000001,79.9 63.80000000000001,79.80000000000001 63.50000000000001,79.80000000000001 C 63.300000000000004,79.80000000000001 63.10000000000001,80.00000000000001 63.00000000000001,80.20000000000002 L 61.60000000000001,84.60000000000002 L 59.0,80.5 L 60.1,74.4 L 62.7,77.9 C 62.800000000000004,78.10000000000001 63.0,78.2 63.300000000000004,78.10000000000001 C 63.50000000000001,78.10000000000001 63.7,77.9 63.7,77.7 L 64.9,73.4 L 68.7,77.30000000000001 L 66.7,84.4 M 61.3,86.2 C 61.4,86.4 61.599999999999994,86.5 61.9,86.5 C 62.1,86.5 62.3,86.3 62.4,86.1 L 63.8,81.8 L 66.39999999999999,86.0 L 64.89999999999999,90.9 L 62.89999999999999,87.4 C 62.79999999999999,87.2 62.599999999999994,87.10000000000001 62.29999999999999,87.10000000000001 C 62.09999999999999,87.10000000000001 61.89999999999999,87.30000000000001 61.79999999999999,87.50000000000001 L 60.19999999999999,92.30000000000001 L 58.69999999999999,92.50000000000001 L 57.59999999999999,87.50000000000001 L 58.69999999999999,82.10000000000001 L 61.3,86.2 M 61.5,92.1 L 62.5,89.1 L 64.1,91.8 L 61.5,92.1 M 56.9,84.8 L 55.199999999999996,76.89999999999999 L 57.8,80.8 L 56.9,84.8 M 66.4,69.9 L 66.30000000000001,68.5 L 66.80000000000001,70.3 L 66.4,69.9 M 36.0,91.7 L 37.6,89.0 L 38.6,92.0 L 36.0,91.7 M 38.2,87.5 C 38.1,87.3 37.900000000000006,87.1 37.7,87.1 C 37.5,87.1 37.300000000000004,87.19999999999999 37.1,87.39999999999999 L 35.1,90.89999999999999 L 33.7,86.0 L 36.300000000000004,81.8 L 37.7,86.1 C 37.800000000000004,86.3 38.0,86.5 38.2,86.5 C 38.400000000000006,86.5 38.6,86.4 38.800000000000004,86.2 L 41.400000000000006,82.10000000000001 L 42.50000000000001,87.50000000000001 L 41.400000000000006,92.50000000000001 L 39.900000000000006,92.30000000000001 L 38.2,87.5 M 33.3,84.4 L 31.4,77.30000000000001 L 35.199999999999996,73.4 L 36.4,77.7 C 36.5,77.9 36.6,78.10000000000001 36.8,78.10000000000001 C 37.0,78.10000000000001 37.199999999999996,78.10000000000001 37.4,77.9 L 40.0,74.4 L 41.1,80.5 L 38.5,84.6 L 37.1,80.19999999999999 C 37.0,79.99999999999999 36.800000000000004,79.79999999999998 36.6,79.79999999999998 C 36.6,79.79999999999998 36.6,79.79999999999998 36.5,79.79999999999998 C 36.3,79.79999999999998 36.1,79.89999999999998 36.0,80.09999999999998 L 33.3,84.4 M 42.2,80.8 L 44.800000000000004,76.89999999999999 L 43.1,84.8 L 42.2,80.8 M 45.5,73.6 L 43.8,67.8 L 45.4,65.7 C 45.6,65.4 45.5,65.10000000000001 45.3,64.9 C 45.0,64.7 44.699999999999996,64.80000000000001 44.5,65.0 L 42.9,67.2 C 42.8,67.3 42.699999999999996,67.4 42.6,67.5 L 40.9,69.8 L 40.5,65.8 L 45.2,61.5 L 47.6,64.2 L 45.5,73.6 M 40.3,64.4 L 39.5,57.300000000000004 C 39.5,57.00000000000001 39.2,56.800000000000004 38.9,56.800000000000004 C 38.6,56.800000000000004 38.4,57.1 38.4,57.400000000000006 L 39.199999999999996,65.30000000000001 L 33.0,71.0 L 33.7,68.6 L 33.6,70.39999999999999 L 37.300000000000004,66.8 L 37.800000000000004,53.9 L 37.900000000000006,53.4 L 44.400000000000006,60.699999999999996 L 40.3,64.4 M 39.4,66.7 L 39.9,71.3 C 39.9,71.5 40.1,71.7 40.3,71.8 C 40.4,71.8 40.4,71.8 40.5,71.8 C 40.7,71.8 40.8,71.7 41.0,71.6 L 43.0,68.89999999999999 L 44.7,74.89999999999999 L 41.900000000000006,79.1 L 40.800000000000004,72.8 C 40.800000000000004,72.6 40.6,72.39999999999999 40.400000000000006,72.3 C 40.2,72.2 39.900000000000006,72.3 39.800000000000004,72.5 L 37.2,76.1 L 36.1,72.0 C 36.0,71.8 35.9,71.7 35.7,71.6 C 35.5,71.5 35.300000000000004,71.6 35.1,71.8 L 31.900000000000002,75.0 L 32.5,73.0 L 39.4,66.7 M 30.7,79.1 L 32.5,85.5 L 29.6,89.6 C 29.400000000000002,89.89999999999999 29.5,90.19999999999999 29.700000000000003,90.39999999999999 C 30.000000000000004,90.6 30.300000000000004,90.49999999999999 30.500000000000004,90.3 L 32.900000000000006,87.0 L 34.2,91.4 L 27.6,90.4 L 30.7,79.1 M 23.3,93.3 C 23.400000000000002,92.8 23.3,92.5 23.3,92.2 C 23.2,91.9 23.2,91.7 23.6,91.2 C 23.6,91.10000000000001 23.700000000000003,91.0 23.700000000000003,91.0 C 23.900000000000002,90.9 24.1,90.9 24.300000000000004,91.0 C 26.100000000000005,91.6 29.600000000000005,92.6 33.7,93.2 C 32.800000000000004,93.5 32.1,94.4 32.1,95.4 C 32.1,95.4 32.1,95.4 32.1,95.4 C 29.700000000000003,94.9 26.200000000000003,94.30000000000001 23.8,93.60000000000001 C 23.6,93.4 23.5,93.3 23.3,93.3 M 45.5,93.7 C 46.1,93.7 46.5,94.2 46.7,94.7 C 46.6,94.8 46.5,94.9 46.400000000000006,95.0 C 46.10000000000001,95.2 45.7,95.6 45.50000000000001,96.1 C 45.300000000000004,96.1 45.20000000000001,96.19999999999999 45.00000000000001,96.19999999999999 C 42.60000000000001,96.49999999999999 39.10000000000001,96.29999999999998 36.50000000000001,95.99999999999999 C 36.50000000000001,95.89999999999999 36.50000000000001,95.89999999999999 36.50000000000001,95.79999999999998 C 36.50000000000001,94.89999999999998 36.20000000000001,93.89999999999998 35.50000000000001,93.29999999999998 C 36.70000000000001,93.49999999999999 38.00000000000001,93.59999999999998 39.300000000000004,93.69999999999999 C 39.400000000000006,93.69999999999999 39.50000000000001,93.79999999999998 39.6,93.79999999999998 C 39.7,93.79999999999998 39.7,93.79999999999998 39.800000000000004,93.79999999999998 C 39.800000000000004,93.79999999999998 39.800000000000004,93.79999999999998 39.800000000000004,93.79999999999998 C 41.7,93.9 43.8,93.9 45.5,93.7 M 48.2,63.2 L 48.2,63.2 L 46.0,60.7 L 50.4,56.7 L 54.3,60.300000000000004 L 51.8,63.2 L 51.8,63.2 L 48.2,63.2 M 55.1,96.2 C 54.9,96.2 54.7,96.10000000000001 54.6,96.10000000000001 C 54.4,95.60000000000001 54.0,95.30000000000001 53.7,95.00000000000001 C 53.5,94.90000000000002 53.400000000000006,94.80000000000001 53.400000000000006,94.70000000000002 C 53.50000000000001,94.20000000000002 54.00000000000001,93.70000000000002 54.60000000000001,93.70000000000002 C 56.30000000000001,93.90000000000002 58.30000000000001,93.90000000000002 60.30000000000001,93.80000000000001 C 60.30000000000001,93.80000000000001 60.30000000000001,93.80000000000001 60.30000000000001,93.80000000000001 C 60.40000000000001,93.80000000000001 60.40000000000001,93.80000000000001 60.500000000000014,93.80000000000001 C 60.600000000000016,93.80000000000001 60.70000000000002,93.80000000000001 60.80000000000001,93.70000000000002 C 62.10000000000001,93.60000000000002 63.40000000000001,93.50000000000001 64.60000000000001,93.30000000000001 C 63.900000000000006,93.9 63.60000000000001,94.9 63.60000000000001,95.80000000000001 C 63.60000000000001,95.9 63.60000000000001,95.9 63.60000000000001,96.00000000000001 C 60.9,96.3 57.5,96.5 55.1,96.2 M 75.7,90.9 C 75.9,90.9 76.10000000000001,90.9 76.3,90.9 C 76.3,91.0 76.3,91.10000000000001 76.39999999999999,91.10000000000001 C 76.8,91.60000000000001 76.69999999999999,91.80000000000001 76.69999999999999,92.10000000000001 C 76.69999999999999,92.4 76.6,92.7 76.69999999999999,93.2 C 76.6,93.3 76.39999999999999,93.4 76.29999999999998,93.4 C 73.89999999999998,94.10000000000001 70.39999999999998,94.80000000000001 67.99999999999999,95.2 C 67.99999999999999,95.2 67.99999999999999,95.2 67.99999999999999,95.2 C 67.99999999999999,94.3 67.29999999999998,93.4 66.39999999999999,93.0 C 70.4,92.5 73.9,91.5 75.7,90.9 M 65.9,91.5 L 67.2,87.1 L 69.60000000000001,90.39999999999999 C 69.80000000000001,90.69999999999999 70.10000000000001,90.69999999999999 70.4,90.49999999999999 C 70.7,90.29999999999998 70.7,89.99999999999999 70.5,89.69999999999999 L 67.6,85.6 L 69.39999999999999,79.19999999999999 L 72.6,90.49999999999999 L 65.9,91.5 M 68.2,75.1 L 65.0,71.9 C 64.9,71.80000000000001 64.6,71.7 64.4,71.7 C 64.2,71.8 64.0,71.9 64.0,72.10000000000001 L 62.9,76.2 L 60.3,72.60000000000001 C 60.199999999999996,72.4 59.9,72.30000000000001 59.699999999999996,72.4 C 59.49999999999999,72.5 59.3,72.60000000000001 59.3,72.9 L 58.199999999999996,79.2 L 55.4,75.0 L 57.1,69.0 L 59.1,71.7 C 59.2,71.8 59.4,71.9 59.6,71.9 C 59.7,71.9 59.7,71.9 59.800000000000004,71.9 C 60.00000000000001,71.80000000000001 60.2,71.60000000000001 60.2,71.4 L 60.800000000000004,66.2 L 67.60000000000001,72.5 L 68.2,75.1" fill="#ff6602" stroke="none" stroke-width="3.0px" /><path d="M 17.7,24.0 L 17.7,24.0 L 17.7,24.0 L 17.7,24.0" fill="#ff6602" stroke="none" stroke-width="3.0px" /><path d="M 82.3,24.0 L 82.3,24.0 L 82.3,24.0 L 82.3,24.0" fill="#ff6602" stroke="none" stroke-width="3.0px" /></g><g transform="translate(60.0, 35.0) scale(0.3) rotate(0, 50.0, 50.0)"><path d="M 87.4,26.2 C 87.30000000000001,22.7 86.10000000000001,20.4 84.10000000000001,19.299999999999997 C 80.2,17.099999999999998 74.30000000000001,19.9 71.2,21.699999999999996 C 71.2,21.699999999999996 71.2,21.699999999999996 71.2,21.699999999999996 C 67.9,23.799999999999997 64.3,24.799999999999997 60.300000000000004,24.899999999999995 C 59.800000000000004,23.999999999999996 59.300000000000004,22.799999999999994 58.900000000000006,21.399999999999995 C 58.00000000000001,18.499999999999996 57.60000000000001,15.099999999999994 57.7,12.299999999999995 C 58.0,5.999999999999996 56.800000000000004,3.4999999999999947 55.800000000000004,2.4999999999999947 C 54.50000000000001,1.1999999999999946 50.800000000000004,0.19999999999999485 48.2,-5.329070518200751e-15 C 47.6,-5.329070518200751e-15 47.1,0.09999999999999468 46.800000000000004,0.49999999999999467 C 46.7,0.5999999999999946 46.6,0.7999999999999947 46.6,0.8999999999999947 C 44.7,0.49999999999999467 42.0,0.09999999999999465 40.6,0.9999999999999947 C 39.6,1.6999999999999946 39.300000000000004,3.7999999999999945 39.4,4.699999999999995 C 39.4,4.899999999999995 39.5,5.499999999999995 40.0,5.699999999999995 C 40.1,5.7999999999999945 40.5,5.7999999999999945 40.8,5.599999999999995 C 41.0,5.2 41.5,5.0 42.0,5.1 C 42.7,5.199999999999999 43.6,5.8999999999999995 44.3,7.0 C 45.099999999999994,8.2 45.199999999999996,12.0 43.699999999999996,16.9 C 42.8,19.9 40.9,22.9 39.599999999999994,24.799999999999997 C 35.599999999999994,24.799999999999997 31.999999999999993,23.699999999999996 28.799999999999994,21.599999999999998 C 28.799999999999994,21.599999999999998 28.799999999999994,21.599999999999998 28.799999999999994,21.599999999999998 C 25.599999999999994,19.799999999999997 19.699999999999996,17.099999999999998 15.899999999999993,19.2 C 13.799999999999994,20.3 12.699999999999992,22.7 12.599999999999994,26.1 L 9.799999999999994,92.1 C 9.799999999999994,92.3 9.899999999999993,92.5 10.099999999999994,92.6 C 10.299999999999994,92.69999999999999 10.599999999999994,92.69999999999999 10.699999999999994,92.5 L 30.699999999999996,74.3 L 26.299999999999997,90.1 C 25.599999999999998,89.89999999999999 25.099999999999998,89.69999999999999 24.599999999999998,89.6 C 24.599999999999998,89.6 24.599999999999998,89.6 24.599999999999998,89.6 C 23.9,89.39999999999999 23.2,89.6 22.599999999999998,90.0 C 21.499999999999996,90.0 20.599999999999998,90.5 19.999999999999996,91.4 C 19.099999999999998,92.60000000000001 18.899999999999995,94.2 19.499999999999996,95.4 C 19.599999999999998,95.60000000000001 19.799999999999997,95.7 19.999999999999996,95.7 C 19.999999999999996,95.7 19.999999999999996,95.7 19.999999999999996,95.7 C 20.199999999999996,95.7 20.399999999999995,95.60000000000001 20.499999999999996,95.4 C 20.599999999999998,95.2 21.099999999999998,95.0 21.499999999999996,94.80000000000001 C 21.899999999999995,94.60000000000001 22.399999999999995,94.4 22.799999999999997,94.10000000000001 C 22.999999999999996,94.2 23.099999999999998,94.30000000000001 23.299999999999997,94.4 C 23.299999999999997,94.4 23.299999999999997,94.4 23.4,94.4 C 25.9,95.10000000000001 29.599999999999998,95.80000000000001 32.099999999999994,96.30000000000001 C 32.199999999999996,96.80000000000001 32.599999999999994,97.20000000000002 32.8,97.60000000000001 C 33.199999999999996,98.10000000000001 33.5,98.4 33.5,99.10000000000001 C 33.5,99.4 33.8,99.7 34.1,99.7 C 34.4,99.7 34.7,99.4 34.7,99.10000000000001 C 34.7,98.50000000000001 35.0,98.2 35.400000000000006,97.80000000000001 C 35.7,97.60000000000001 35.900000000000006,97.30000000000001 36.2,97.00000000000001 C 37.900000000000006,97.20000000000002 40.0,97.40000000000002 42.0,97.40000000000002 C 43.1,97.40000000000002 44.2,97.30000000000003 45.2,97.20000000000002 C 45.300000000000004,97.20000000000002 45.5,97.20000000000002 45.6,97.10000000000002 C 45.800000000000004,97.50000000000003 46.300000000000004,97.80000000000003 46.7,98.20000000000002 C 47.2,98.60000000000002 47.800000000000004,98.90000000000002 47.800000000000004,99.30000000000001 C 47.800000000000004,99.50000000000001 48.00000000000001,99.80000000000001 48.2,99.80000000000001 C 48.300000000000004,99.80000000000001 48.300000000000004,99.80000000000001 48.400000000000006,99.80000000000001 C 48.60000000000001,99.80000000000001 48.800000000000004,99.70000000000002 48.900000000000006,99.60000000000001 C 49.800000000000004,98.30000000000001 50.400000000000006,96.10000000000001 49.60000000000001,94.60000000000001 C 49.20000000000001,93.80000000000001 48.50000000000001,93.30000000000001 47.50000000000001,93.30000000000001 C 47.10000000000001,92.80000000000001 46.400000000000006,92.4 45.70000000000001,92.4 C 45.70000000000001,92.4 45.70000000000001,92.4 45.60000000000001,92.4 C 44.70000000000001,92.5 43.70000000000001,92.60000000000001 42.70000000000001,92.60000000000001 L 43.50000000000001,88.7 L 44.70000000000001,89.9 L 46.60000000000001,88.5 L 49.70000000000001,66.2 L 48.40000000000001,88.5 L 50.20000000000001,90.8 L 52.00000000000001,88.5 L 50.70000000000001,66.2 L 53.80000000000001,88.5 L 55.70000000000001,89.9 L 56.90000000000001,88.7 L 57.70000000000001,92.60000000000001 C 56.70000000000001,92.60000000000001 55.70000000000001,92.60000000000001 54.90000000000001,92.4 C 54.90000000000001,92.4 54.90000000000001,92.4 54.80000000000001,92.4 C 54.10000000000001,92.4 53.40000000000001,92.80000000000001 52.90000000000001,93.30000000000001 C 52.000000000000014,93.4 51.20000000000001,93.80000000000001 50.80000000000001,94.60000000000001 C 50.000000000000014,96.10000000000001 50.60000000000001,98.30000000000001 51.500000000000014,99.60000000000001 C 51.600000000000016,99.80000000000001 51.80000000000001,99.80000000000001 52.000000000000014,99.80000000000001 C 52.100000000000016,99.80000000000001 52.100000000000016,99.80000000000001 52.20000000000002,99.80000000000001 C 52.40000000000002,99.70000000000002 52.600000000000016,99.50000000000001 52.600000000000016,99.30000000000001 C 52.600000000000016,98.9 53.100000000000016,98.50000000000001 53.70000000000002,98.20000000000002 C 54.100000000000016,97.90000000000002 54.600000000000016,97.60000000000002 54.80000000000002,97.10000000000002 C 54.90000000000002,97.10000000000002 55.00000000000002,97.10000000000002 55.20000000000002,97.20000000000002 C 56.20000000000002,97.30000000000001 57.20000000000002,97.40000000000002 58.40000000000002,97.40000000000002 C 60.40000000000002,97.40000000000002 62.50000000000002,97.20000000000002 64.20000000000002,97.00000000000001 C 64.40000000000002,97.40000000000002 64.70000000000002,97.60000000000001 65.00000000000001,97.80000000000001 C 65.40000000000002,98.20000000000002 65.70000000000002,98.4 65.70000000000002,99.10000000000001 C 65.70000000000002,99.4 66.00000000000001,99.7 66.30000000000001,99.7 C 66.60000000000001,99.7 66.9,99.4 66.9,99.10000000000001 C 66.9,98.50000000000001 67.2,98.10000000000001 67.60000000000001,97.60000000000001 C 67.9,97.30000000000001 68.2,96.9 68.30000000000001,96.30000000000001 C 70.80000000000001,95.80000000000001 74.50000000000001,95.10000000000001 77.00000000000001,94.4 C 77.00000000000001,94.4 77.00000000000001,94.4 77.10000000000001,94.4 C 77.30000000000001,94.30000000000001 77.50000000000001,94.2 77.60000000000001,94.10000000000001 C 78.00000000000001,94.4 78.4,94.60000000000001 78.9,94.80000000000001 C 79.30000000000001,95.00000000000001 79.80000000000001,95.20000000000002 79.9,95.4 C 80.0,95.60000000000001 80.2,95.7 80.4,95.7 C 80.4,95.7 80.4,95.7 80.4,95.7 C 80.60000000000001,95.7 80.80000000000001,95.60000000000001 80.9,95.4 C 81.5,94.2 81.30000000000001,92.60000000000001 80.4,91.4 C 79.7,90.5 78.80000000000001,90.10000000000001 77.80000000000001,90.0 C 77.20000000000002,89.6 76.50000000000001,89.4 75.80000000000001,89.6 C 75.80000000000001,89.6 75.80000000000001,89.6 75.80000000000001,89.6 C 75.30000000000001,89.69999999999999 74.80000000000001,89.89999999999999 74.10000000000001,90.1 L 69.0,74.0 L 89.2,92.8 C 89.3,92.89999999999999 89.4,93.0 89.60000000000001,93.0 C 89.7,93.0 89.80000000000001,93.0 89.80000000000001,92.9 C 90.00000000000001,92.80000000000001 90.10000000000001,92.60000000000001 90.10000000000001,92.4 L 87.4,26.2 M 59.7,26.2 C 59.300000000000004,26.099999999999998 58.800000000000004,26.0 58.400000000000006,25.9 C 58.800000000000004,25.9 59.2,25.9 59.50000000000001,26.0 C 59.6,26.1 59.6,26.1 59.7,26.2 M 40.3,26.0 C 40.699999999999996,26.0 41.0,26.0 41.4,26.0 C 40.9,26.2 40.5,26.4 40.0,26.5 C 40.1,26.3 40.2,26.2 40.3,26.0 M 44.6,25.6 C 45.5,25.400000000000002 46.300000000000004,25.3 47.2,25.0 C 47.2,25.0 47.2,25.1 47.2,25.1 C 46.900000000000006,25.3 45.7,26.400000000000002 44.2,27.3 L 44.6,25.6 M 48.6,24.6 C 49.1,24.5 49.5,24.3 50.0,24.200000000000003 C 50.5,24.400000000000002 51.0,24.500000000000004 51.5,24.700000000000003 C 51.5,24.900000000000002 51.6,25.200000000000003 51.6,25.300000000000004 C 51.2,25.700000000000003 50.5,26.400000000000006 49.9,27.000000000000004 L 48.3,25.400000000000002 C 48.4,25.1 48.5,24.9 48.6,24.6 M 52.7,25.1 C 52.7,25.1 52.7,25.0 52.7,24.900000000000002 C 53.800000000000004,25.200000000000003 54.800000000000004,25.400000000000002 55.800000000000004,25.6 C 55.900000000000006,25.700000000000003 55.900000000000006,25.8 56.00000000000001,25.900000000000002 C 56.20000000000001,26.3 56.300000000000004,26.700000000000003 56.400000000000006,27.000000000000004 C 54.5,26.7 53.1,25.5 52.7,25.1 M 44.9,17.2 C 46.1,13.299999999999999 46.4,9.7 45.9,7.5 C 45.9,7.5 45.9,7.5 45.9,7.5 C 46.3,7.2 47.9,7.5 47.9,7.5 C 45.699999999999996,3.8 43.3,2.9000000000000004 42.199999999999996,3.0 C 41.49999999999999,3.0 40.99999999999999,3.6 40.599999999999994,4.1 C 40.49999999999999,4.199999999999999 40.39999999999999,4.199999999999999 40.199999999999996,4.3 C 40.199999999999996,3.5999999999999996 40.49999999999999,2.1999999999999997 40.9,1.9 C 41.199999999999996,1.7999999999999998 41.6,1.7 42.0,1.5999999999999999 C 43.7,1.4999999999999998 44.2,1.7 45.4,2.7 C 46.6,3.7 47.6,4.2 48.3,4.1 C 48.4,4.199999999999999 48.5,4.3 48.699999999999996,4.3999999999999995 C 48.8,4.499999999999999 48.8,4.6 48.9,4.699999999999999 C 49.1,5.0 49.0,5.2 49.6,5.2 C 50.0,5.2 50.2,4.5 50.4,4.3 C 50.699999999999996,4.1 51.3,3.9 51.699999999999996,3.9 C 52.49999999999999,3.6999999999999997 52.9,3.6999999999999997 53.49999999999999,3.6999999999999997 C 53.699999999999996,3.6999999999999997 54.49999999999999,3.5999999999999996 55.099999999999994,3.8 C 55.699999999999996,4.7 56.599999999999994,7.0 56.39999999999999,12.399999999999999 C 56.29999999999999,15.299999999999999 56.69999999999999,18.799999999999997 57.599999999999994,21.799999999999997 C 57.89999999999999,22.699999999999996 58.3,23.9 58.8,24.9 C 58.0,24.9 57.3,24.799999999999997 56.5,24.7 C 56.2,24.2 56.0,23.5 55.8,22.9 L 55.0,19.299999999999997 C 54.5,16.499999999999996 54.4,13.899999999999997 54.4,13.899999999999997 C 54.4,13.599999999999996 54.1,13.299999999999997 53.8,13.399999999999997 C 53.5,13.399999999999997 53.199999999999996,13.699999999999998 53.3,13.999999999999996 C 53.3,14.299999999999997 53.699999999999996,20.699999999999996 55.199999999999996,24.599999999999994 C 54.3,24.399999999999995 53.4,24.199999999999996 52.49999999999999,23.999999999999993 C 52.29999999999999,21.499999999999993 52.199999999999996,16.799999999999994 52.199999999999996,13.499999999999993 C 52.199999999999996,13.199999999999992 51.9,12.899999999999993 51.599999999999994,12.899999999999993 C 51.3,12.899999999999993 50.99999999999999,13.199999999999994 50.99999999999999,13.499999999999993 C 50.99999999999999,14.299999999999994 50.99999999999999,20.199999999999992 51.29999999999999,23.599999999999994 C 50.89999999999999,23.499999999999993 50.49999999999999,23.399999999999995 50.19999999999999,23.199999999999996 C 50.09999999999999,23.199999999999996 49.89999999999999,23.199999999999996 49.79999999999999,23.199999999999996 C 49.49999999999999,23.299999999999997 49.29999999999999,23.399999999999995 48.99999999999999,23.499999999999996 C 49.99999999999999,19.499999999999996 50.29999999999999,13.499999999999996 50.39999999999999,13.099999999999996 C 50.39999999999999,12.799999999999995 50.19999999999999,12.499999999999996 49.89999999999999,12.499999999999996 C 49.599999999999994,12.499999999999996 49.29999999999999,12.699999999999996 49.29999999999999,12.999999999999996 C 49.29999999999999,13.099999999999996 48.89999999999999,19.999999999999996 47.79999999999999,23.799999999999997 C 46.99999999999999,23.999999999999996 46.19999999999999,24.199999999999996 45.49999999999999,24.4 C 47.39999999999999,20.799999999999997 48.39999999999999,13.7 48.39999999999999,13.399999999999999 C 48.39999999999999,13.099999999999998 48.19999999999999,12.799999999999999 47.89999999999999,12.799999999999999 C 47.599999999999994,12.799999999999999 47.29999999999999,12.999999999999998 47.29999999999999,13.299999999999999 C 47.29999999999999,13.299999999999999 46.99999999999999,15.7 46.39999999999999,18.299999999999997 L 44.89999999999999,23.099999999999998 C 44.599999999999994,23.7 44.29999999999999,24.299999999999997 43.99999999999999,24.7 C 42.99999999999999,24.8 42.099999999999994,24.9 41.199999999999996,25.0 C 42.4,22.8 44.0,20.1 44.9,17.2 M 16.5,20.3 C 17.3,19.8 18.3,19.7 19.3,19.7 C 22.6,19.7 26.5,21.7 28.3,22.7 C 31.5,24.7 35.0,25.8 38.8,26.0 C 38.8,26.0 38.9,26.0 38.9,26.0 C 38.5,26.5 38.199999999999996,26.9 38.199999999999996,26.9 C 38.099999999999994,27.099999999999998 37.99999999999999,27.299999999999997 38.099999999999994,27.5 C 38.199999999999996,27.7 38.39999999999999,27.8 38.599999999999994,27.8 C 40.099999999999994,27.8 41.99999999999999,27.0 43.199999999999996,26.400000000000002 L 42.699999999999996,28.3 C 42.599999999999994,28.5 42.699999999999996,28.7 42.9,28.900000000000002 C 43.0,29.000000000000004 43.1,29.000000000000004 43.3,29.000000000000004 C 43.4,29.000000000000004 43.5,29.000000000000004 43.5,28.900000000000002 C 45.3,28.000000000000004 46.8,26.900000000000002 47.5,26.3 L 49.4,28.3 C 49.5,28.400000000000002 49.699999999999996,28.5 49.8,28.5 C 50.0,28.5 50.099999999999994,28.4 50.199999999999996,28.3 C 50.699999999999996,27.6 51.49999999999999,26.8 51.99999999999999,26.3 C 52.699999999999996,26.900000000000002 54.39999999999999,28.2 56.699999999999996,28.400000000000002 C 56.699999999999996,28.400000000000002 56.699999999999996,28.400000000000002 56.699999999999996,28.400000000000002 C 56.9,28.400000000000002 57.099999999999994,28.3 57.3,28.1 C 57.4,28.0 57.5,27.8 57.3,27.0 C 58.8,27.5 60.699999999999996,27.6 61.0,27.7 C 61.3,27.7 61.5,27.5 61.6,27.3 C 61.7,27.1 61.5,26.8 61.300000000000004,26.6 C 61.1,26.5 60.900000000000006,26.400000000000002 60.7,26.1 C 60.800000000000004,26.1 60.900000000000006,26.1 61.0,26.1 C 64.8,25.900000000000002 68.3,24.8 71.5,22.8 C 73.9,21.400000000000002 79.8,18.5 83.3,20.400000000000002 C 84.89999999999999,21.3 85.8,23.200000000000003 86.0,26.0 C 84.9,25.0 83.1,24.0 82.3,24.0 L 85.0,87.2 L 83.7,86.0 L 81.0,25.0 C 80.1,25.9 77.4,28.1 76.9,28.6 L 76.9,28.6 L 79.2,81.80000000000001 L 77.3,80.0 L 75.0,29.9 C 74.1,30.799999999999997 72.3,32.1 71.8,32.6 L 71.8,32.6 L 73.6,76.6 L 71.8,74.89999999999999 L 70.0,33.6 C 69.1,34.0 67.3,35.0 66.4,35.0 L 66.4,35.0 L 68.10000000000001,70.7 L 66.10000000000001,63.800000000000004 L 65.0,35.4 C 64.1,35.4 61.8,35.4 61.4,35.0 L 61.4,35.0 L 62.1,51.7 C 62.0,51.7 61.9,51.800000000000004 61.9,51.900000000000006 L 55.1,59.60000000000001 L 50.800000000000004,55.60000000000001 C 50.6,55.400000000000006 50.2,55.400000000000006 50.00000000000001,55.60000000000001 L 45.20000000000001,60.00000000000001 L 38.10000000000001,51.900000000000006 C 38.00000000000001,51.800000000000004 38.00000000000001,51.800000000000004 37.900000000000006,51.7 L 38.6,35.0 L 38.6,35.0 C 38.2,35.4 35.9,35.4 35.0,35.4 L 33.9,63.7 L 31.9,70.60000000000001 L 33.6,35.0 L 33.6,35.0 C 32.7,35.0 30.900000000000002,34.0 30.0,33.6 L 28.2,75.4 L 26.4,77.0 L 28.2,32.7 L 28.2,32.7 C 27.7,32.2 25.9,30.900000000000002 25.0,30.000000000000004 L 22.7,80.4 L 20.9,82.0 L 23.2,28.6 L 23.2,28.6 C 22.7,28.1 20.0,25.900000000000002 19.1,25.0 L 16.3,86.2 L 15.0,87.3 L 17.7,24.0 C 16.9,24.0 15.1,25.0 13.799999999999999,25.9 C 13.9,23.1 14.9,21.2 16.5,20.3 M 61.1,56.8 C 60.800000000000004,56.8 60.5,57.0 60.5,57.3 L 59.8,63.8 L 56.0,60.3 L 62.1,53.4 L 62.2,53.9 L 62.7,66.6 L 60.800000000000004,64.8 L 61.6,57.5 C 61.6,57.1 61.4,56.8 61.1,56.8 M 57.4,67.5 C 57.4,67.4 57.3,67.2 57.1,67.2 L 55.5,65.0 C 55.3,64.7 54.9,64.7 54.7,64.9 C 54.400000000000006,65.10000000000001 54.400000000000006,65.5 54.6,65.7 L 56.2,67.8 L 54.5,73.6 L 52.4,64.19999999999999 L 55.199999999999996,61.09999999999999 L 59.599999999999994,65.19999999999999 L 59.099999999999994,69.79999999999998 L 57.4,67.5 M 66.7,84.4 L 64.10000000000001,80.10000000000001 C 64.00000000000001,79.9 63.80000000000001,79.80000000000001 63.50000000000001,79.80000000000001 C 63.300000000000004,79.80000000000001 63.10000000000001,80.00000000000001 63.00000000000001,80.20000000000002 L 61.60000000000001,84.60000000000002 L 59.0,80.5 L 60.1,74.4 L 62.7,77.9 C 62.800000000000004,78.10000000000001 63.0,78.2 63.300000000000004,78.10000000000001 C 63.50000000000001,78.10000000000001 63.7,77.9 63.7,77.7 L 64.9,73.4 L 68.7,77.30000000000001 L 66.7,84.4 M 61.3,86.2 C 61.4,86.4 61.599999999999994,86.5 61.9,86.5 C 62.1,86.5 62.3,86.3 62.4,86.1 L 63.8,81.8 L 66.39999999999999,86.0 L 64.89999999999999,90.9 L 62.89999999999999,87.4 C 62.79999999999999,87.2 62.599999999999994,87.10000000000001 62.29999999999999,87.10000000000001 C 62.09999999999999,87.10000000000001 61.89999999999999,87.30000000000001 61.79999999999999,87.50000000000001 L 60.19999999999999,92.30000000000001 L 58.69999999999999,92.50000000000001 L 57.59999999999999,87.50000000000001 L 58.69999999999999,82.10000000000001 L 61.3,86.2 M 61.5,92.1 L 62.5,89.1 L 64.1,91.8 L 61.5,92.1 M 56.9,84.8 L 55.199999999999996,76.89999999999999 L 57.8,80.8 L 56.9,84.8 M 66.4,69.9 L 66.30000000000001,68.5 L 66.80000000000001,70.3 L 66.4,69.9 M 36.0,91.7 L 37.6,89.0 L 38.6,92.0 L 36.0,91.7 M 38.2,87.5 C 38.1,87.3 37.900000000000006,87.1 37.7,87.1 C 37.5,87.1 37.300000000000004,87.19999999999999 37.1,87.39999999999999 L 35.1,90.89999999999999 L 33.7,86.0 L 36.300000000000004,81.8 L 37.7,86.1 C 37.800000000000004,86.3 38.0,86.5 38.2,86.5 C 38.400000000000006,86.5 38.6,86.4 38.800000000000004,86.2 L 41.400000000000006,82.10000000000001 L 42.50000000000001,87.50000000000001 L 41.400000000000006,92.50000000000001 L 39.900000000000006,92.30000000000001 L 38.2,87.5 M 33.3,84.4 L 31.4,77.30000000000001 L 35.199999999999996,73.4 L 36.4,77.7 C 36.5,77.9 36.6,78.10000000000001 36.8,78.10000000000001 C 37.0,78.10000000000001 37.199999999999996,78.10000000000001 37.4,77.9 L 40.0,74.4 L 41.1,80.5 L 38.5,84.6 L 37.1,80.19999999999999 C 37.0,79.99999999999999 36.800000000000004,79.79999999999998 36.6,79.79999999999998 C 36.6,79.79999999999998 36.6,79.79999999999998 36.5,79.79999999999998 C 36.3,79.79999999999998 36.1,79.89999999999998 36.0,80.09999999999998 L 33.3,84.4 M 42.2,80.8 L 44.800000000000004,76.89999999999999 L 43.1,84.8 L 42.2,80.8 M 45.5,73.6 L 43.8,67.8 L 45.4,65.7 C 45.6,65.4 45.5,65.10000000000001 45.3,64.9 C 45.0,64.7 44.699999999999996,64.80000000000001 44.5,65.0 L 42.9,67.2 C 42.8,67.3 42.699999999999996,67.4 42.6,67.5 L 40.9,69.8 L 40.5,65.8 L 45.2,61.5 L 47.6,64.2 L 45.5,73.6 M 40.3,64.4 L 39.5,57.300000000000004 C 39.5,57.00000000000001 39.2,56.800000000000004 38.9,56.800000000000004 C 38.6,56.800000000000004 38.4,57.1 38.4,57.400000000000006 L 39.199999999999996,65.30000000000001 L 33.0,71.0 L 33.7,68.6 L 33.6,70.39999999999999 L 37.300000000000004,66.8 L 37.800000000000004,53.9 L 37.900000000000006,53.4 L 44.400000000000006,60.699999999999996 L 40.3,64.4 M 39.4,66.7 L 39.9,71.3 C 39.9,71.5 40.1,71.7 40.3,71.8 C 40.4,71.8 40.4,71.8 40.5,71.8 C 40.7,71.8 40.8,71.7 41.0,71.6 L 43.0,68.89999999999999 L 44.7,74.89999999999999 L 41.900000000000006,79.1 L 40.800000000000004,72.8 C 40.800000000000004,72.6 40.6,72.39999999999999 40.400000000000006,72.3 C 40.2,72.2 39.900000000000006,72.3 39.800000000000004,72.5 L 37.2,76.1 L 36.1,72.0 C 36.0,71.8 35.9,71.7 35.7,71.6 C 35.5,71.5 35.300000000000004,71.6 35.1,71.8 L 31.900000000000002,75.0 L 32.5,73.0 L 39.4,66.7 M 30.7,79.1 L 32.5,85.5 L 29.6,89.6 C 29.400000000000002,89.89999999999999 29.5,90.19999999999999 29.700000000000003,90.39999999999999 C 30.000000000000004,90.6 30.300000000000004,90.49999999999999 30.500000000000004,90.3 L 32.900000000000006,87.0 L 34.2,91.4 L 27.6,90.4 L 30.7,79.1 M 23.3,93.3 C 23.400000000000002,92.8 23.3,92.5 23.3,92.2 C 23.2,91.9 23.2,91.7 23.6,91.2 C 23.6,91.10000000000001 23.700000000000003,91.0 23.700000000000003,91.0 C 23.900000000000002,90.9 24.1,90.9 24.300000000000004,91.0 C 26.100000000000005,91.6 29.600000000000005,92.6 33.7,93.2 C 32.800000000000004,93.5 32.1,94.4 32.1,95.4 C 32.1,95.4 32.1,95.4 32.1,95.4 C 29.700000000000003,94.9 26.200000000000003,94.30000000000001 23.8,93.60000000000001 C 23.6,93.4 23.5,93.3 23.3,93.3 M 45.5,93.7 C 46.1,93.7 46.5,94.2 46.7,94.7 C 46.6,94.8 46.5,94.9 46.400000000000006,95.0 C 46.10000000000001,95.2 45.7,95.6 45.50000000000001,96.1 C 45.300000000000004,96.1 45.20000000000001,96.19999999999999 45.00000000000001,96.19999999999999 C 42.60000000000001,96.49999999999999 39.10000000000001,96.29999999999998 36.50000000000001,95.99999999999999 C 36.50000000000001,95.89999999999999 36.50000000000001,95.89999999999999 36.50000000000001,95.79999999999998 C 36.50000000000001,94.89999999999998 36.20000000000001,93.89999999999998 35.50000000000001,93.29999999999998 C 36.70000000000001,93.49999999999999 38.00000000000001,93.59999999999998 39.300000000000004,93.69999999999999 C 39.400000000000006,93.69999999999999 39.50000000000001,93.79999999999998 39.6,93.79999999999998 C 39.7,93.79999999999998 39.7,93.79999999999998 39.800000000000004,93.79999999999998 C 39.800000000000004,93.79999999999998 39.800000000000004,93.79999999999998 39.800000000000004,93.79999999999998 C 41.7,93.9 43.8,93.9 45.5,93.7 M 48.2,63.2 L 48.2,63.2 L 46.0,60.7 L 50.4,56.7 L 54.3,60.300000000000004 L 51.8,63.2 L 51.8,63.2 L 48.2,63.2 M 55.1,96.2 C 54.9,96.2 54.7,96.10000000000001 54.6,96.10000000000001 C 54.4,95.60000000000001 54.0,95.30000000000001 53.7,95.00000000000001 C 53.5,94.90000000000002 53.400000000000006,94.80000000000001 53.400000000000006,94.70000000000002 C 53.50000000000001,94.20000000000002 54.00000000000001,93.70000000000002 54.60000000000001,93.70000000000002 C 56.30000000000001,93.90000000000002 58.30000000000001,93.90000000000002 60.30000000000001,93.80000000000001 C 60.30000000000001,93.80000000000001 60.30000000000001,93.80000000000001 60.30000000000001,93.80000000000001 C 60.40000000000001,93.80000000000001 60.40000000000001,93.80000000000001 60.500000000000014,93.80000000000001 C 60.600000000000016,93.80000000000001 60.70000000000002,93.80000000000001 60.80000000000001,93.70000000000002 C 62.10000000000001,93.60000000000002 63.40000000000001,93.50000000000001 64.60000000000001,93.30000000000001 C 63.900000000000006,93.9 63.60000000000001,94.9 63.60000000000001,95.80000000000001 C 63.60000000000001,95.9 63.60000000000001,95.9 63.60000000000001,96.00000000000001 C 60.9,96.3 57.5,96.5 55.1,96.2 M 75.7,90.9 C 75.9,90.9 76.10000000000001,90.9 76.3,90.9 C 76.3,91.0 76.3,91.10000000000001 76.39999999999999,91.10000000000001 C 76.8,91.60000000000001 76.69999999999999,91.80000000000001 76.69999999999999,92.10000000000001 C 76.69999999999999,92.4 76.6,92.7 76.69999999999999,93.2 C 76.6,93.3 76.39999999999999,93.4 76.29999999999998,93.4 C 73.89999999999998,94.10000000000001 70.39999999999998,94.80000000000001 67.99999999999999,95.2 C 67.99999999999999,95.2 67.99999999999999,95.2 67.99999999999999,95.2 C 67.99999999999999,94.3 67.29999999999998,93.4 66.39999999999999,93.0 C 70.4,92.5 73.9,91.5 75.7,90.9 M 65.9,91.5 L 67.2,87.1 L 69.60000000000001,90.39999999999999 C 69.80000000000001,90.69999999999999 70.10000000000001,90.69999999999999 70.4,90.49999999999999 C 70.7,90.29999999999998 70.7,89.99999999999999 70.5,89.69999999999999 L 67.6,85.6 L 69.39999999999999,79.19999999999999 L 72.6,90.49999999999999 L 65.9,91.5 M 68.2,75.1 L 65.0,71.9 C 64.9,71.80000000000001 64.6,71.7 64.4,71.7 C 64.2,71.8 64.0,71.9 64.0,72.10000000000001 L 62.9,76.2 L 60.3,72.60000000000001 C 60.199999999999996,72.4 59.9,72.30000000000001 59.699999999999996,72.4 C 59.49999999999999,72.5 59.3,72.60000000000001 59.3,72.9 L 58.199999999999996,79.2 L 55.4,75.0 L 57.1,69.0 L 59.1,71.7 C 59.2,71.8 59.4,71.9 59.6,71.9 C 59.7,71.9 59.7,71.9 59.800000000000004,71.9 C 60.00000000000001,71.80000000000001 60.2,71.60000000000001 60.2,71.4 L 60.800000000000004,66.2 L 67.60000000000001,72.5 L 68.2,75.1" fill="#ff6602" stroke="none" stroke-width="3.0px" /><path d="M 17.7,24.0 L 17.7,24.0 L 17.7,24.0 L 17.7,24.0" fill="#ff6602" stroke="none" stroke-width="3.0px" /><path d="M 82.3,24.0 L 82.3,24.0 L 82.3,24.0 L 82.3,24.0" fill="#ff6602" stroke="none" stroke-width="3.0px" /></g><g transform="translate(97.5, 35.0) scale(0.3) rotate(0, 50.0, 50.0)"><path d="M 87.4,26.2 C 87.30000000000001,22.7 86.10000000000001,20.4 84.10000000000001,19.299999999999997 C 80.2,17.099999999999998 74.30000000000001,19.9 71.2,21.699999999999996 C 71.2,21.699999999999996 71.2,21.699999999999996 71.2,21.699999999999996 C 67.9,23.799999999999997 64.3,24.799999999999997 60.300000000000004,24.899999999999995 C 59.800000000000004,23.999999999999996 59.300000000000004,22.799999999999994 58.900000000000006,21.399999999999995 C 58.00000000000001,18.499999999999996 57.60000000000001,15.099999999999994 57.7,12.299999999999995 C 58.0,5.999999999999996 56.800000000000004,3.4999999999999947 55.800000000000004,2.4999999999999947 C 54.50000000000001,1.1999999999999946 50.800000000000004,0.19999999999999485 48.2,-5.329070518200751e-15 C 47.6,-5.329070518200751e-15 47.1,0.09999999999999468 46.800000000000004,0.49999999999999467 C 46.7,0.5999999999999946 46.6,0.7999999999999947 46.6,0.8999999999999947 C 44.7,0.49999999999999467 42.0,0.09999999999999465 40.6,0.9999999999999947 C 39.6,1.6999999999999946 39.300000000000004,3.7999999999999945 39.4,4.699999999999995 C 39.4,4.899999999999995 39.5,5.499999999999995 40.0,5.699999999999995 C 40.1,5.7999999999999945 40.5,5.7999999999999945 40.8,5.599999999999995 C 41.0,5.2 41.5,5.0 42.0,5.1 C 42.7,5.199999999999999 43.6,5.8999999999999995 44.3,7.0 C 45.099999999999994,8.2 45.199999999999996,12.0 43.699999999999996,16.9 C 42.8,19.9 40.9,22.9 39.599999999999994,24.799999999999997 C 35.599999999999994,24.799999999999997 31.999999999999993,23.699999999999996 28.799999999999994,21.599999999999998 C 28.799999999999994,21.599999999999998 28.799999999999994,21.599999999999998 28.799999999999994,21.599999999999998 C 25.599999999999994,19.799999999999997 19.699999999999996,17.099999999999998 15.899999999999993,19.2 C 13.799999999999994,20.3 12.699999999999992,22.7 12.599999999999994,26.1 L 9.799999999999994,92.1 C 9.799999999999994,92.3 9.899999999999993,92.5 10.099999999999994,92.6 C 10.299999999999994,92.69999999999999 10.599999999999994,92.69999999999999 10.699999999999994,92.5 L 30.699999999999996,74.3 L 26.299999999999997,90.1 C 25.599999999999998,89.89999999999999 25.099999999999998,89.69999999999999 24.599999999999998,89.6 C 24.599999999999998,89.6 24.599999999999998,89.6 24.599999999999998,89.6 C 23.9,89.39999999999999 23.2,89.6 22.599999999999998,90.0 C 21.499999999999996,90.0 20.599999999999998,90.5 19.999999999999996,91.4 C 19.099999999999998,92.60000000000001 18.899999999999995,94.2 19.499999999999996,95.4 C 19.599999999999998,95.60000000000001 19.799999999999997,95.7 19.999999999999996,95.7 C 19.999999999999996,95.7 19.999999999999996,95.7 19.999999999999996,95.7 C 20.199999999999996,95.7 20.399999999999995,95.60000000000001 20.499999999999996,95.4 C 20.599999999999998,95.2 21.099999999999998,95.0 21.499999999999996,94.80000000000001 C 21.899999999999995,94.60000000000001 22.399999999999995,94.4 22.799999999999997,94.10000000000001 C 22.999999999999996,94.2 23.099999999999998,94.30000000000001 23.299999999999997,94.4 C 23.299999999999997,94.4 23.299999999999997,94.4 23.4,94.4 C 25.9,95.10000000000001 29.599999999999998,95.80000000000001 32.099999999999994,96.30000000000001 C 32.199999999999996,96.80000000000001 32.599999999999994,97.20000000000002 32.8,97.60000000000001 C 33.199999999999996,98.10000000000001 33.5,98.4 33.5,99.10000000000001 C 33.5,99.4 33.8,99.7 34.1,99.7 C 34.4,99.7 34.7,99.4 34.7,99.10000000000001 C 34.7,98.50000000000001 35.0,98.2 35.400000000000006,97.80000000000001 C 35.7,97.60000000000001 35.900000000000006,97.30000000000001 36.2,97.00000000000001 C 37.900000000000006,97.20000000000002 40.0,97.40000000000002 42.0,97.40000000000002 C 43.1,97.40000000000002 44.2,97.30000000000003 45.2,97.20000000000002 C 45.300000000000004,97.20000000000002 45.5,97.20000000000002 45.6,97.10000000000002 C 45.800000000000004,97.50000000000003 46.300000000000004,97.80000000000003 46.7,98.20000000000002 C 47.2,98.60000000000002 47.800000000000004,98.90000000000002 47.800000000000004,99.30000000000001 C 47.800000000000004,99.50000000000001 48.00000000000001,99.80000000000001 48.2,99.80000000000001 C 48.300000000000004,99.80000000000001 48.300000000000004,99.80000000000001 48.400000000000006,99.80000000000001 C 48.60000000000001,99.80000000000001 48.800000000000004,99.70000000000002 48.900000000000006,99.60000000000001 C 49.800000000000004,98.30000000000001 50.400000000000006,96.10000000000001 49.60000000000001,94.60000000000001 C 49.20000000000001,93.80000000000001 48.50000000000001,93.30000000000001 47.50000000000001,93.30000000000001 C 47.10000000000001,92.80000000000001 46.400000000000006,92.4 45.70000000000001,92.4 C 45.70000000000001,92.4 45.70000000000001,92.4 45.60000000000001,92.4 C 44.70000000000001,92.5 43.70000000000001,92.60000000000001 42.70000000000001,92.60000000000001 L 43.50000000000001,88.7 L 44.70000000000001,89.9 L 46.60000000000001,88.5 L 49.70000000000001,66.2 L 48.40000000000001,88.5 L 50.20000000000001,90.8 L 52.00000000000001,88.5 L 50.70000000000001,66.2 L 53.80000000000001,88.5 L 55.70000000000001,89.9 L 56.90000000000001,88.7 L 57.70000000000001,92.60000000000001 C 56.70000000000001,92.60000000000001 55.70000000000001,92.60000000000001 54.90000000000001,92.4 C 54.90000000000001,92.4 54.90000000000001,92.4 54.80000000000001,92.4 C 54.10000000000001,92.4 53.40000000000001,92.80000000000001 52.90000000000001,93.30000000000001 C 52.000000000000014,93.4 51.20000000000001,93.80000000000001 50.80000000000001,94.60000000000001 C 50.000000000000014,96.10000000000001 50.60000000000001,98.30000000000001 51.500000000000014,99.60000000000001 C 51.600000000000016,99.80000000000001 51.80000000000001,99.80000000000001 52.000000000000014,99.80000000000001 C 52.100000000000016,99.80000000000001 52.100000000000016,99.80000000000001 52.20000000000002,99.80000000000001 C 52.40000000000002,99.70000000000002 52.600000000000016,99.50000000000001 52.600000000000016,99.30000000000001 C 52.600000000000016,98.9 53.100000000000016,98.50000000000001 53.70000000000002,98.20000000000002 C 54.100000000000016,97.90000000000002 54.600000000000016,97.60000000000002 54.80000000000002,97.10000000000002 C 54.90000000000002,97.10000000000002 55.00000000000002,97.10000000000002 55.20000000000002,97.20000000000002 C 56.20000000000002,97.30000000000001 57.20000000000002,97.40000000000002 58.40000000000002,97.40000000000002 C 60.40000000000002,97.40000000000002 62.50000000000002,97.20000000000002 64.20000000000002,97.00000000000001 C 64.40000000000002,97.40000000000002 64.70000000000002,97.60000000000001 65.00000000000001,97.80000000000001 C 65.40000000000002,98.20000000000002 65.70000000000002,98.4 65.70000000000002,99.10000000000001 C 65.70000000000002,99.4 66.00000000000001,99.7 66.30000000000001,99.7 C 66.60000000000001,99.7 66.9,99.4 66.9,99.10000000000001 C 66.9,98.50000000000001 67.2,98.10000000000001 67.60000000000001,97.60000000000001 C 67.9,97.30000000000001 68.2,96.9 68.30000000000001,96.30000000000001 C 70.80000000000001,95.80000000000001 74.50000000000001,95.10000000000001 77.00000000000001,94.4 C 77.00000000000001,94.4 77.00000000000001,94.4 77.10000000000001,94.4 C 77.30000000000001,94.30000000000001 77.50000000000001,94.2 77.60000000000001,94.10000000000001 C 78.00000000000001,94.4 78.4,94.60000000000001 78.9,94.80000000000001 C 79.30000000000001,95.00000000000001 79.80000000000001,95.20000000000002 79.9,95.4 C 80.0,95.60000000000001 80.2,95.7 80.4,95.7 C 80.4,95.7 80.4,95.7 80.4,95.7 C 80.60000000000001,95.7 80.80000000000001,95.60000000000001 80.9,95.4 C 81.5,94.2 81.30000000000001,92.60000000000001 80.4,91.4 C 79.7,90.5 78.80000000000001,90.10000000000001 77.80000000000001,90.0 C 77.20000000000002,89.6 76.50000000000001,89.4 75.80000000000001,89.6 C 75.80000000000001,89.6 75.80000000000001,89.6 75.80000000000001,89.6 C 75.30000000000001,89.69999999999999 74.80000000000001,89.89999999999999 74.10000000000001,90.1 L 69.0,74.0 L 89.2,92.8 C 89.3,92.89999999999999 89.4,93.0 89.60000000000001,93.0 C 89.7,93.0 89.80000000000001,93.0 89.80000000000001,92.9 C 90.00000000000001,92.80000000000001 90.10000000000001,92.60000000000001 90.10000000000001,92.4 L 87.4,26.2 M 59.7,26.2 C 59.300000000000004,26.099999999999998 58.800000000000004,26.0 58.400000000000006,25.9 C 58.800000000000004,25.9 59.2,25.9 59.50000000000001,26.0 C 59.6,26.1 59.6,26.1 59.7,26.2 M 40.3,26.0 C 40.699999999999996,26.0 41.0,26.0 41.4,26.0 C 40.9,26.2 40.5,26.4 40.0,26.5 C 40.1,26.3 40.2,26.2 40.3,26.0 M 44.6,25.6 C 45.5,25.400000000000002 46.300000000000004,25.3 47.2,25.0 C 47.2,25.0 47.2,25.1 47.2,25.1 C 46.900000000000006,25.3 45.7,26.400000000000002 44.2,27.3 L 44.6,25.6 M 48.6,24.6 C 49.1,24.5 49.5,24.3 50.0,24.200000000000003 C 50.5,24.400000000000002 51.0,24.500000000000004 51.5,24.700000000000003 C 51.5,24.900000000000002 51.6,25.200000000000003 51.6,25.300000000000004 C 51.2,25.700000000000003 50.5,26.400000000000006 49.9,27.000000000000004 L 48.3,25.400000000000002 C 48.4,25.1 48.5,24.9 48.6,24.6 M 52.7,25.1 C 52.7,25.1 52.7,25.0 52.7,24.900000000000002 C 53.800000000000004,25.200000000000003 54.800000000000004,25.400000000000002 55.800000000000004,25.6 C 55.900000000000006,25.700000000000003 55.900000000000006,25.8 56.00000000000001,25.900000000000002 C 56.20000000000001,26.3 56.300000000000004,26.700000000000003 56.400000000000006,27.000000000000004 C 54.5,26.7 53.1,25.5 52.7,25.1 M 44.9,17.2 C 46.1,13.299999999999999 46.4,9.7 45.9,7.5 C 45.9,7.5 45.9,7.5 45.9,7.5 C 46.3,7.2 47.9,7.5 47.9,7.5 C 45.699999999999996,3.8 43.3,2.9000000000000004 42.199999999999996,3.0 C 41.49999999999999,3.0 40.99999999999999,3.6 40.599999999999994,4.1 C 40.49999999999999,4.199999999999999 40.39999999999999,4.199999999999999 40.199999999999996,4.3 C 40.199999999999996,3.5999999999999996 40.49999999999999,2.1999999999999997 40.9,1.9 C 41.199999999999996,1.7999999999999998 41.6,1.7 42.0,1.5999999999999999 C 43.7,1.4999999999999998 44.2,1.7 45.4,2.7 C 46.6,3.7 47.6,4.2 48.3,4.1 C 48.4,4.199999999999999 48.5,4.3 48.699999999999996,4.3999999999999995 C 48.8,4.499999999999999 48.8,4.6 48.9,4.699999999999999 C 49.1,5.0 49.0,5.2 49.6,5.2 C 50.0,5.2 50.2,4.5 50.4,4.3 C 50.699999999999996,4.1 51.3,3.9 51.699999999999996,3.9 C 52.49999999999999,3.6999999999999997 52.9,3.6999999999999997 53.49999999999999,3.6999999999999997 C 53.699999999999996,3.6999999999999997 54.49999999999999,3.5999999999999996 55.099999999999994,3.8 C 55.699999999999996,4.7 56.599999999999994,7.0 56.39999999999999,12.399999999999999 C 56.29999999999999,15.299999999999999 56.69999999999999,18.799999999999997 57.599999999999994,21.799999999999997 C 57.89999999999999,22.699999999999996 58.3,23.9 58.8,24.9 C 58.0,24.9 57.3,24.799999999999997 56.5,24.7 C 56.2,24.2 56.0,23.5 55.8,22.9 L 55.0,19.299999999999997 C 54.5,16.499999999999996 54.4,13.899999999999997 54.4,13.899999999999997 C 54.4,13.599999999999996 54.1,13.299999999999997 53.8,13.399999999999997 C 53.5,13.399999999999997 53.199999999999996,13.699999999999998 53.3,13.999999999999996 C 53.3,14.299999999999997 53.699999999999996,20.699999999999996 55.199999999999996,24.599999999999994 C 54.3,24.399999999999995 53.4,24.199999999999996 52.49999999999999,23.999999999999993 C 52.29999999999999,21.499999999999993 52.199999999999996,16.799999999999994 52.199999999999996,13.499999999999993 C 52.199999999999996,13.199999999999992 51.9,12.899999999999993 51.599999999999994,12.899999999999993 C 51.3,12.899999999999993 50.99999999999999,13.199999999999994 50.99999999999999,13.499999999999993 C 50.99999999999999,14.299999999999994 50.99999999999999,20.199999999999992 51.29999999999999,23.599999999999994 C 50.89999999999999,23.499999999999993 50.49999999999999,23.399999999999995 50.19999999999999,23.199999999999996 C 50.09999999999999,23.199999999999996 49.89999999999999,23.199999999999996 49.79999999999999,23.199999999999996 C 49.49999999999999,23.299999999999997 49.29999999999999,23.399999999999995 48.99999999999999,23.499999999999996 C 49.99999999999999,19.499999999999996 50.29999999999999,13.499999999999996 50.39999999999999,13.099999999999996 C 50.39999999999999,12.799999999999995 50.19999999999999,12.499999999999996 49.89999999999999,12.499999999999996 C 49.599999999999994,12.499999999999996 49.29999999999999,12.699999999999996 49.29999999999999,12.999999999999996 C 49.29999999999999,13.099999999999996 48.89999999999999,19.999999999999996 47.79999999999999,23.799999999999997 C 46.99999999999999,23.999999999999996 46.19999999999999,24.199999999999996 45.49999999999999,24.4 C 47.39999999999999,20.799999999999997 48.39999999999999,13.7 48.39999999999999,13.399999999999999 C 48.39999999999999,13.099999999999998 48.19999999999999,12.799999999999999 47.89999999999999,12.799999999999999 C 47.599999999999994,12.799999999999999 47.29999999999999,12.999999999999998 47.29999999999999,13.299999999999999 C 47.29999999999999,13.299999999999999 46.99999999999999,15.7 46.39999999999999,18.299999999999997 L 44.89999999999999,23.099999999999998 C 44.599999999999994,23.7 44.29999999999999,24.299999999999997 43.99999999999999,24.7 C 42.99999999999999,24.8 42.099999999999994,24.9 41.199999999999996,25.0 C 42.4,22.8 44.0,20.1 44.9,17.2 M 16.5,20.3 C 17.3,19.8 18.3,19.7 19.3,19.7 C 22.6,19.7 26.5,21.7 28.3,22.7 C 31.5,24.7 35.0,25.8 38.8,26.0 C 38.8,26.0 38.9,26.0 38.9,26.0 C 38.5,26.5 38.199999999999996,26.9 38.199999999999996,26.9 C 38.099999999999994,27.099999999999998 37.99999999999999,27.299999999999997 38.099999999999994,27.5 C 38.199999999999996,27.7 38.39999999999999,27.8 38.599999999999994,27.8 C 40.099999999999994,27.8 41.99999999999999,27.0 43.199999999999996,26.400000000000002 L 42.699999999999996,28.3 C 42.599999999999994,28.5 42.699999999999996,28.7 42.9,28.900000000000002 C 43.0,29.000000000000004 43.1,29.000000000000004 43.3,29.000000000000004 C 43.4,29.000000000000004 43.5,29.000000000000004 43.5,28.900000000000002 C 45.3,28.000000000000004 46.8,26.900000000000002 47.5,26.3 L 49.4,28.3 C 49.5,28.400000000000002 49.699999999999996,28.5 49.8,28.5 C 50.0,28.5 50.099999999999994,28.4 50.199999999999996,28.3 C 50.699999999999996,27.6 51.49999999999999,26.8 51.99999999999999,26.3 C 52.699999999999996,26.900000000000002 54.39999999999999,28.2 56.699999999999996,28.400000000000002 C 56.699999999999996,28.400000000000002 56.699999999999996,28.400000000000002 56.699999999999996,28.400000000000002 C 56.9,28.400000000000002 57.099999999999994,28.3 57.3,28.1 C 57.4,28.0 57.5,27.8 57.3,27.0 C 58.8,27.5 60.699999999999996,27.6 61.0,27.7 C 61.3,27.7 61.5,27.5 61.6,27.3 C 61.7,27.1 61.5,26.8 61.300000000000004,26.6 C 61.1,26.5 60.900000000000006,26.400000000000002 60.7,26.1 C 60.800000000000004,26.1 60.900000000000006,26.1 61.0,26.1 C 64.8,25.900000000000002 68.3,24.8 71.5,22.8 C 73.9,21.400000000000002 79.8,18.5 83.3,20.400000000000002 C 84.89999999999999,21.3 85.8,23.200000000000003 86.0,26.0 C 84.9,25.0 83.1,24.0 82.3,24.0 L 85.0,87.2 L 83.7,86.0 L 81.0,25.0 C 80.1,25.9 77.4,28.1 76.9,28.6 L 76.9,28.6 L 79.2,81.80000000000001 L 77.3,80.0 L 75.0,29.9 C 74.1,30.799999999999997 72.3,32.1 71.8,32.6 L 71.8,32.6 L 73.6,76.6 L 71.8,74.89999999999999 L 70.0,33.6 C 69.1,34.0 67.3,35.0 66.4,35.0 L 66.4,35.0 L 68.10000000000001,70.7 L 66.10000000000001,63.800000000000004 L 65.0,35.4 C 64.1,35.4 61.8,35.4 61.4,35.0 L 61.4,35.0 L 62.1,51.7 C 62.0,51.7 61.9,51.800000000000004 61.9,51.900000000000006 L 55.1,59.60000000000001 L 50.800000000000004,55.60000000000001 C 50.6,55.400000000000006 50.2,55.400000000000006 50.00000000000001,55.60000000000001 L 45.20000000000001,60.00000000000001 L 38.10000000000001,51.900000000000006 C 38.00000000000001,51.800000000000004 38.00000000000001,51.800000000000004 37.900000000000006,51.7 L 38.6,35.0 L 38.6,35.0 C 38.2,35.4 35.9,35.4 35.0,35.4 L 33.9,63.7 L 31.9,70.60000000000001 L 33.6,35.0 L 33.6,35.0 C 32.7,35.0 30.900000000000002,34.0 30.0,33.6 L 28.2,75.4 L 26.4,77.0 L 28.2,32.7 L 28.2,32.7 C 27.7,32.2 25.9,30.900000000000002 25.0,30.000000000000004 L 22.7,80.4 L 20.9,82.0 L 23.2,28.6 L 23.2,28.6 C 22.7,28.1 20.0,25.900000000000002 19.1,25.0 L 16.3,86.2 L 15.0,87.3 L 17.7,24.0 C 16.9,24.0 15.1,25.0 13.799999999999999,25.9 C 13.9,23.1 14.9,21.2 16.5,20.3 M 61.1,56.8 C 60.800000000000004,56.8 60.5,57.0 60.5,57.3 L 59.8,63.8 L 56.0,60.3 L 62.1,53.4 L 62.2,53.9 L 62.7,66.6 L 60.800000000000004,64.8 L 61.6,57.5 C 61.6,57.1 61.4,56.8 61.1,56.8 M 57.4,67.5 C 57.4,67.4 57.3,67.2 57.1,67.2 L 55.5,65.0 C 55.3,64.7 54.9,64.7 54.7,64.9 C 54.400000000000006,65.10000000000001 54.400000000000006,65.5 54.6,65.7 L 56.2,67.8 L 54.5,73.6 L 52.4,64.19999999999999 L 55.199999999999996,61.09999999999999 L 59.599999999999994,65.19999999999999 L 59.099999999999994,69.79999999999998 L 57.4,67.5 M 66.7,84.4 L 64.10000000000001,80.10000000000001 C 64.00000000000001,79.9 63.80000000000001,79.80000000000001 63.50000000000001,79.80000000000001 C 63.300000000000004,79.80000000000001 63.10000000000001,80.00000000000001 63.00000000000001,80.20000000000002 L 61.60000000000001,84.60000000000002 L 59.0,80.5 L 60.1,74.4 L 62.7,77.9 C 62.800000000000004,78.10000000000001 63.0,78.2 63.300000000000004,78.10000000000001 C 63.50000000000001,78.10000000000001 63.7,77.9 63.7,77.7 L 64.9,73.4 L 68.7,77.30000000000001 L 66.7,84.4 M 61.3,86.2 C 61.4,86.4 61.599999999999994,86.5 61.9,86.5 C 62.1,86.5 62.3,86.3 62.4,86.1 L 63.8,81.8 L 66.39999999999999,86.0 L 64.89999999999999,90.9 L 62.89999999999999,87.4 C 62.79999999999999,87.2 62.599999999999994,87.10000000000001 62.29999999999999,87.10000000000001 C 62.09999999999999,87.10000000000001 61.89999999999999,87.30000000000001 61.79999999999999,87.50000000000001 L 60.19999999999999,92.30000000000001 L 58.69999999999999,92.50000000000001 L 57.59999999999999,87.50000000000001 L 58.69999999999999,82.10000000000001 L 61.3,86.2 M 61.5,92.1 L 62.5,89.1 L 64.1,91.8 L 61.5,92.1 M 56.9,84.8 L 55.199999999999996,76.89999999999999 L 57.8,80.8 L 56.9,84.8 M 66.4,69.9 L 66.30000000000001,68.5 L 66.80000000000001,70.3 L 66.4,69.9 M 36.0,91.7 L 37.6,89.0 L 38.6,92.0 L 36.0,91.7 M 38.2,87.5 C 38.1,87.3 37.900000000000006,87.1 37.7,87.1 C 37.5,87.1 37.300000000000004,87.19999999999999 37.1,87.39999999999999 L 35.1,90.89999999999999 L 33.7,86.0 L 36.300000000000004,81.8 L 37.7,86.1 C 37.800000000000004,86.3 38.0,86.5 38.2,86.5 C 38.400000000000006,86.5 38.6,86.4 38.800000000000004,86.2 L 41.400000000000006,82.10000000000001 L 42.50000000000001,87.50000000000001 L 41.400000000000006,92.50000000000001 L 39.900000000000006,92.30000000000001 L 38.2,87.5 M 33.3,84.4 L 31.4,77.30000000000001 L 35.199999999999996,73.4 L 36.4,77.7 C 36.5,77.9 36.6,78.10000000000001 36.8,78.10000000000001 C 37.0,78.10000000000001 37.199999999999996,78.10000000000001 37.4,77.9 L 40.0,74.4 L 41.1,80.5 L 38.5,84.6 L 37.1,80.19999999999999 C 37.0,79.99999999999999 36.800000000000004,79.79999999999998 36.6,79.79999999999998 C 36.6,79.79999999999998 36.6,79.79999999999998 36.5,79.79999999999998 C 36.3,79.79999999999998 36.1,79.89999999999998 36.0,80.09999999999998 L 33.3,84.4 M 42.2,80.8 L 44.800000000000004,76.89999999999999 L 43.1,84.8 L 42.2,80.8 M 45.5,73.6 L 43.8,67.8 L 45.4,65.7 C 45.6,65.4 45.5,65.10000000000001 45.3,64.9 C 45.0,64.7 44.699999999999996,64.80000000000001 44.5,65.0 L 42.9,67.2 C 42.8,67.3 42.699999999999996,67.4 42.6,67.5 L 40.9,69.8 L 40.5,65.8 L 45.2,61.5 L 47.6,64.2 L 45.5,73.6 M 40.3,64.4 L 39.5,57.300000000000004 C 39.5,57.00000000000001 39.2,56.800000000000004 38.9,56.800000000000004 C 38.6,56.800000000000004 38.4,57.1 38.4,57.400000000000006 L 39.199999999999996,65.30000000000001 L 33.0,71.0 L 33.7,68.6 L 33.6,70.39999999999999 L 37.300000000000004,66.8 L 37.800000000000004,53.9 L 37.900000000000006,53.4 L 44.400000000000006,60.699999999999996 L 40.3,64.4 M 39.4,66.7 L 39.9,71.3 C 39.9,71.5 40.1,71.7 40.3,71.8 C 40.4,71.8 40.4,71.8 40.5,71.8 C 40.7,71.8 40.8,71.7 41.0,71.6 L 43.0,68.89999999999999 L 44.7,74.89999999999999 L 41.900000000000006,79.1 L 40.800000000000004,72.8 C 40.800000000000004,72.6 40.6,72.39999999999999 40.400000000000006,72.3 C 40.2,72.2 39.900000000000006,72.3 39.800000000000004,72.5 L 37.2,76.1 L 36.1,72.0 C 36.0,71.8 35.9,71.7 35.7,71.6 C 35.5,71.5 35.300000000000004,71.6 35.1,71.8 L 31.900000000000002,75.0 L 32.5,73.0 L 39.4,66.7 M 30.7,79.1 L 32.5,85.5 L 29.6,89.6 C 29.400000000000002,89.89999999999999 29.5,90.19999999999999 29.700000000000003,90.39999999999999 C 30.000000000000004,90.6 30.300000000000004,90.49999999999999 30.500000000000004,90.3 L 32.900000000000006,87.0 L 34.2,91.4 L 27.6,90.4 L 30.7,79.1 M 23.3,93.3 C 23.400000000000002,92.8 23.3,92.5 23.3,92.2 C 23.2,91.9 23.2,91.7 23.6,91.2 C 23.6,91.10000000000001 23.700000000000003,91.0 23.700000000000003,91.0 C 23.900000000000002,90.9 24.1,90.9 24.300000000000004,91.0 C 26.100000000000005,91.6 29.600000000000005,92.6 33.7,93.2 C 32.800000000000004,93.5 32.1,94.4 32.1,95.4 C 32.1,95.4 32.1,95.4 32.1,95.4 C 29.700000000000003,94.9 26.200000000000003,94.30000000000001 23.8,93.60000000000001 C 23.6,93.4 23.5,93.3 23.3,93.3 M 45.5,93.7 C 46.1,93.7 46.5,94.2 46.7,94.7 C 46.6,94.8 46.5,94.9 46.400000000000006,95.0 C 46.10000000000001,95.2 45.7,95.6 45.50000000000001,96.1 C 45.300000000000004,96.1 45.20000000000001,96.19999999999999 45.00000000000001,96.19999999999999 C 42.60000000000001,96.49999999999999 39.10000000000001,96.29999999999998 36.50000000000001,95.99999999999999 C 36.50000000000001,95.89999999999999 36.50000000000001,95.89999999999999 36.50000000000001,95.79999999999998 C 36.50000000000001,94.89999999999998 36.20000000000001,93.89999999999998 35.50000000000001,93.29999999999998 C 36.70000000000001,93.49999999999999 38.00000000000001,93.59999999999998 39.300000000000004,93.69999999999999 C 39.400000000000006,93.69999999999999 39.50000000000001,93.79999999999998 39.6,93.79999999999998 C 39.7,93.79999999999998 39.7,93.79999999999998 39.800000000000004,93.79999999999998 C 39.800000000000004,93.79999999999998 39.800000000000004,93.79999999999998 39.800000000000004,93.79999999999998 C 41.7,93.9 43.8,93.9 45.5,93.7 M 48.2,63.2 L 48.2,63.2 L 46.0,60.7 L 50.4,56.7 L 54.3,60.300000000000004 L 51.8,63.2 L 51.8,63.2 L 48.2,63.2 M 55.1,96.2 C 54.9,96.2 54.7,96.10000000000001 54.6,96.10000000000001 C 54.4,95.60000000000001 54.0,95.30000000000001 53.7,95.00000000000001 C 53.5,94.90000000000002 53.400000000000006,94.80000000000001 53.400000000000006,94.70000000000002 C 53.50000000000001,94.20000000000002 54.00000000000001,93.70000000000002 54.60000000000001,93.70000000000002 C 56.30000000000001,93.90000000000002 58.30000000000001,93.90000000000002 60.30000000000001,93.80000000000001 C 60.30000000000001,93.80000000000001 60.30000000000001,93.80000000000001 60.30000000000001,93.80000000000001 C 60.40000000000001,93.80000000000001 60.40000000000001,93.80000000000001 60.500000000000014,93.80000000000001 C 60.600000000000016,93.80000000000001 60.70000000000002,93.80000000000001 60.80000000000001,93.70000000000002 C 62.10000000000001,93.60000000000002 63.40000000000001,93.50000000000001 64.60000000000001,93.30000000000001 C 63.900000000000006,93.9 63.60000000000001,94.9 63.60000000000001,95.80000000000001 C 63.60000000000001,95.9 63.60000000000001,95.9 63.60000000000001,96.00000000000001 C 60.9,96.3 57.5,96.5 55.1,96.2 M 75.7,90.9 C 75.9,90.9 76.10000000000001,90.9 76.3,90.9 C 76.3,91.0 76.3,91.10000000000001 76.39999999999999,91.10000000000001 C 76.8,91.60000000000001 76.69999999999999,91.80000000000001 76.69999999999999,92.10000000000001 C 76.69999999999999,92.4 76.6,92.7 76.69999999999999,93.2 C 76.6,93.3 76.39999999999999,93.4 76.29999999999998,93.4 C 73.89999999999998,94.10000000000001 70.39999999999998,94.80000000000001 67.99999999999999,95.2 C 67.99999999999999,95.2 67.99999999999999,95.2 67.99999999999999,95.2 C 67.99999999999999,94.3 67.29999999999998,93.4 66.39999999999999,93.0 C 70.4,92.5 73.9,91.5 75.7,90.9 M 65.9,91.5 L 67.2,87.1 L 69.60000000000001,90.39999999999999 C 69.80000000000001,90.69999999999999 70.10000000000001,90.69999999999999 70.4,90.49999999999999 C 70.7,90.29999999999998 70.7,89.99999999999999 70.5,89.69999999999999 L 67.6,85.6 L 69.39999999999999,79.19999999999999 L 72.6,90.49999999999999 L 65.9,91.5 M 68.2,75.1 L 65.0,71.9 C 64.9,71.80000000000001 64.6,71.7 64.4,71.7 C 64.2,71.8 64.0,71.9 64.0,72.10000000000001 L 62.9,76.2 L 60.3,72.60000000000001 C 60.199999999999996,72.4 59.9,72.30000000000001 59.699999999999996,72.4 C 59.49999999999999,72.5 59.3,72.60000000000001 59.3,72.9 L 58.199999999999996,79.2 L 55.4,75.0 L 57.1,69.0 L 59.1,71.7 C 59.2,71.8 59.4,71.9 59.6,71.9 C 59.7,71.9 59.7,71.9 59.800000000000004,71.9 C 60.00000000000001,71.80000000000001 60.2,71.60000000000001 60.2,71.4 L 60.800000000000004,66.2 L 67.60000000000001,72.5 L 68.2,75.1" fill="#ff6602" stroke="none" stroke-width="3.0px" /><path d="M 17.7,24.0 L 17.7,24.0 L 17.7,24.0 L 17.7,24.0" fill="#ff6602" stroke="none" stroke-width="3.0px" /><path d="M 82.3,24.0 L 82.3,24.0 L 82.3,24.0 L 82.3,24.0" fill="#ff6602" stroke="none" stroke-width="3.0px" /></g></svg>