<?xml version="1.0" encoding="utf-8" ?>
<svg baseProfile="full" height="100px" version="1.1" width="150px" xmlns="http://www.w3.org/2000/svg" xmlns:ev="http://www.w3.org/2001/xml-events" xmlns:xlink="http://www.w3.org/1999/xlink"><defs><clipPath id="mask0"><rect height="100" width="150" x="0" y="0" /></clipPath></defs><g clip-path="url(#mask0)"><rect fill="#000000" height="33.333333333333336" stroke="none" width="150" x="0" y="0.0" /><rect fill="#ffffff" height="33.333333333333336" stroke="none" width="150" x="0" y="33.333333333333336" /><rect fill="#d0a650" height="33.333333333333336" stroke="none" width="150" x="0" y="66.66666666666667" /></g><g transform="translate(36.301207891678025, 11.301207891678025) scale(0.7739758421664394) rotate(0, 50.0, 50.0)"><path d="M 50.0,2.4 C 50.1,2.6999999999999997 50.2,3.0 50.3,3.4 C 54.099999999999994,15.1 57.8,26.799999999999997 61.599999999999994,38.4 C 61.699999999999996,38.699999999999996 61.8,38.699999999999996 62.099999999999994,38.699999999999996 C 66.39999999999999,38.699999999999996 70.69999999999999,38.699999999999996 75.0,38.699999999999996 C 83.2,38.699999999999996 91.4,38.699999999999996 99.6,38.599999999999994 C 99.69999999999999,38.599999999999994 99.8,38.599999999999994 100.1,38.599999999999994 C 100.0,38.699999999999996 99.89999999999999,38.8 99.8,38.8 C 89.7,46.099999999999994 79.6,53.4 69.5,60.699999999999996 C 69.2,60.9 69.2,61.099999999999994 69.3,61.4 C 73.2,73.2 77.0,85.1 80.89999999999999,96.9 C 80.89999999999999,97.0 80.99999999999999,97.10000000000001 80.99999999999999,97.30000000000001 C 80.59999999999998,97.00000000000001 80.29999999999998,96.80000000000001 79.99999999999999,96.60000000000001 C 70.19999999999999,89.4 60.29999999999998,82.2 50.499999999999986,75.0 C 50.19999999999999,74.8 49.999999999999986,74.8 49.69999999999999,75.0 C 39.69999999999999,82.3 29.599999999999987,89.7 19.49999999999999,97.0 C 19.399999999999988,97.1 19.29999999999999,97.1 19.19999999999999,97.2 C 19.29999999999999,97.0 19.29999999999999,96.9 19.29999999999999,96.7 C 22.79999999999999,86.10000000000001 26.19999999999999,75.5 29.69999999999999,64.80000000000001 C 30.099999999999987,63.500000000000014 30.49999999999999,62.30000000000001 30.899999999999988,61.000000000000014 C 30.99999999999999,60.80000000000001 30.899999999999988,60.70000000000002 30.69999999999999,60.500000000000014 C 20.6,53.7 10.6,46.4 0.5,39.1 C 0.3,39.0 0.2,38.9 0.0,38.7 C 0.2,38.7 0.3,38.7 0.4,38.7 C 8.4,38.7 16.4,38.7 24.4,38.7 C 28.9,38.7 33.4,38.7 37.8,38.7 C 38.099999999999994,38.7 38.3,38.6 38.4,38.300000000000004 C 42.2,26.5 46.0,14.7 49.8,2.9 C 49.9,2.7 49.9,2.6 50.0,2.4 C 50.0,2.4 50.0,2.4 50.0,2.4 M 55.7,64.3 C 54.900000000000006,64.89999999999999 52.2,65.8 50.5,65.89999999999999 C 46.3,66.1 43.0,64.49999999999999 40.1,61.599999999999994 C 37.300000000000004,64.3 34.5,66.89999999999999 31.6,69.5 C 32.9,70.7 34.1,72.0 35.4,73.2 C 37.8,70.8 40.1,68.5 42.4,66.2 C 42.5,66.3 42.6,66.3 42.6,66.4 C 43.5,67.2 44.4,68.0 45.4,68.60000000000001 C 48.4,70.4 51.6,71.10000000000001 55.0,70.7 C 56.8,70.5 58.4,70.0 60.0,69.10000000000001 C 60.2,69.00000000000001 60.3,69.10000000000001 60.4,69.2 C 61.8,70.7 63.3,72.10000000000001 64.7,73.60000000000001 C 64.8,73.7 64.9,73.80000000000001 65.0,73.80000000000001 C 66.1,72.80000000000001 67.2,71.80000000000001 68.3,70.80000000000001 C 68.2,70.70000000000002 68.1,70.60000000000001 68.0,70.60000000000001 C 66.5,69.2 65.0,67.7 63.5,66.30000000000001 C 63.3,66.10000000000001 63.3,66.00000000000001 63.4,65.80000000000001 C 64.1,64.70000000000002 64.8,63.60000000000001 65.3,62.40000000000001 C 66.6,59.500000000000014 67.0,56.500000000000014 66.3,53.40000000000001 C 65.7,50.80000000000001 64.5,48.600000000000016 63.0,46.500000000000014 C 60.9,43.70000000000002 58.3,41.30000000000001 55.6,39.20000000000002 C 54.7,38.500000000000014 53.800000000000004,37.90000000000002 52.9,37.20000000000002 C 52.9,37.30000000000002 53.0,37.40000000000002 53.1,37.500000000000014 C 54.800000000000004,39.40000000000001 56.4,41.30000000000001 57.9,43.40000000000001 C 59.4,45.500000000000014 60.8,47.80000000000001 61.6,50.20000000000001 C 62.2,52.10000000000001 62.5,54.00000000000001 62.2,56.00000000000001 C 61.900000000000006,58.10000000000001 60.900000000000006,59.900000000000006 59.5,61.50000000000001 C 59.3,61.70000000000001 59.2,61.900000000000006 59.0,62.10000000000001 C 54.3,57.60000000000001 49.7,53.20000000000001 45.0,48.80000000000001 C 46.6,47.30000000000001 48.2,45.90000000000001 49.9,44.40000000000001 C 49.699999999999996,44.30000000000001 49.6,44.30000000000001 49.5,44.30000000000001 C 47.4,43.70000000000001 45.3,43.20000000000001 43.2,42.60000000000001 C 43.0,42.50000000000001 42.800000000000004,42.60000000000001 42.6,42.70000000000001 C 40.0,45.20000000000001 37.5,47.80000000000001 34.9,50.30000000000001 C 34.8,50.40000000000001 34.699999999999996,50.500000000000014 34.6,50.60000000000001 C 36.0,52.00000000000001 37.5,53.400000000000006 38.9,54.80000000000001 C 40.1,53.60000000000001 41.199999999999996,52.500000000000014 42.3,51.30000000000001 C 47.0,55.5 51.4,59.9 55.7,64.3" fill="#d505b5" stroke="none" stroke-width="2.0" /></g></svg>