<?xml version="1.0" encoding="utf-8" ?>
<svg baseProfile="full" height="100px" version="1.1" width="150px" xmlns="http://www.w3.org/2000/svg" xmlns:ev="http://www.w3.org/2001/xml-events" xmlns:xlink="http://www.w3.org/1999/xlink"><defs><clipPath id="mask0"><rect height="100" width="150" x="0" y="0" /></clipPath></defs><g clip-path="url(#mask0)"><rect fill="#6699cc" height="100" stroke="none" width="21.428571428571427" x="0.0" y="0" /><rect fill="#925394" height="100" stroke="none" width="21.428571428571427" x="21.428571428571427" y="0" /><rect fill="#fcdc04" height="100" stroke="none" width="21.428571428571427" x="42.857142857142854" y="0" /><rect fill="#ffffff" height="100" stroke="none" width="21.428571428571427" x="64.28571428571429" y="0" /><rect fill="#f3b3c9" height="100" stroke="none" width="21.428571428571427" x="85.71428571428571" y="0" /><rect fill="#cc0000" height="100" stroke="none" width="21.428571428571427" x="107.14285714285714" y="0" /><rect fill="#ff9901" height="100" stroke="none" width="21.428571428571427" x="128.57142857142858" y="0" /></g><g transform="translate(54.0945482611081, 29.0945482611081) scale(0.418109034777838) rotate(0, 50.0, 50.0)"><path d="M 91.9,75.0 L 91.9,0.0 L 9.5,0.0 L 9.5,75.0 C 9.5,75.0 9.0,87.0 23.5,91.0 C 37.9,95.1 46.4,92.8 50.8,100.0 C 55.199999999999996,92.8 63.599999999999994,95.1 78.1,91.0 C 92.4,87.0 91.9,75.0 91.9,75.0 M 16.9,21.8 C 18.299999999999997,21.7 19.9,22.3 20.4,23.6 C 20.799999999999997,24.400000000000002 20.599999999999998,25.200000000000003 20.4,26.0 C 21.299999999999997,26.0 22.2,26.0 22.9,26.5 C 24.599999999999998,27.3 25.0,29.7 23.599999999999998,30.9 C 22.7,31.799999999999997 21.299999999999997,32.0 20.099999999999998,31.9 C 20.4,33.1 21.299999999999997,34.5 22.799999999999997,34.5 C 24.199999999999996,34.5 25.099999999999998,33.7 25.599999999999998,32.6 C 26.299999999999997,33.7 26.999999999999996,34.5 28.499999999999996,34.5 C 30.399999999999995,34.5 31.899999999999995,32.3 31.699999999999996,30.8 C 31.099999999999994,31.1 29.899999999999995,31.7 28.799999999999997,31.7 C 27.699999999999996,31.7 25.999999999999996,30.9 26.099999999999998,28.599999999999998 C 26.2,25.7 29.299999999999997,25.7 29.9,25.999999999999996 C 29.599999999999998,25.299999999999997 29.2,24.699999999999996 29.599999999999998,23.599999999999998 C 29.599999999999998,23.599999999999998 30.299999999999997,21.599999999999998 32.3,21.599999999999998 C 34.099999999999994,21.599999999999998 35.0,23.099999999999998 35.099999999999994,23.599999999999998 C 35.39999999999999,24.799999999999997 34.99999999999999,25.499999999999996 34.8,25.999999999999996 C 35.199999999999996,25.699999999999996 38.5,25.799999999999997 38.5,28.599999999999998 C 38.5,30.7 37.0,31.7 35.7,31.7 C 34.400000000000006,31.7 33.5,31.2 32.800000000000004,30.8 C 32.6,32.6 34.2,34.5 35.800000000000004,34.5 C 37.00000000000001,34.5 38.2,34.0 39.1,32.6 C 39.9,34.0 40.800000000000004,34.5 42.0,34.5 C 43.0,34.5 44.3,33.7 44.3,31.9 C 42.8,32.0 41.199999999999996,31.7 40.599999999999994,30.099999999999998 C 40.199999999999996,28.999999999999996 40.3,27.599999999999998 41.39999999999999,26.799999999999997 C 42.099999999999994,26.199999999999996 43.099999999999994,26.099999999999998 44.099999999999994,25.999999999999996 C 43.89999999999999,25.299999999999997 43.599999999999994,24.499999999999996 43.99999999999999,23.599999999999998 C 44.49999999999999,22.4 46.099999999999994,21.599999999999998 47.49999999999999,21.799999999999997 L 47.49999999999999,21.799999999999997 L 45.099999999999994,36.599999999999994 L 19.2,36.599999999999994 C 18.4,31.7 17.5,26.8 16.9,21.8 M 20.4,43.4 L 19.4,37.3 L 19.4,37.3 L 44.9,37.3 C 44.6,39.4 44.199999999999996,41.4 43.8,43.4 L 20.4,43.4 M 64.0,73.8 L 36.3,73.8 L 35.099999999999994,66.6 L 35.099999999999994,66.6 L 65.3,66.6 C 64.9,69.0 64.5,71.3 64.0,73.8 M 68.2,48.3 L 65.4,65.8 L 35.0,65.8 C 34.0,60.0 33.0,54.199999999999996 32.2,48.3 C 33.800000000000004,48.199999999999996 35.800000000000004,48.9 36.300000000000004,50.4 C 36.800000000000004,51.3 36.50000000000001,52.3 36.300000000000004,53.199999999999996 C 37.300000000000004,53.099999999999994 38.400000000000006,53.199999999999996 39.300000000000004,53.8 C 41.300000000000004,54.8 41.800000000000004,57.599999999999994 40.2,59.0 C 39.1,60.1 36.900000000000006,60.5 35.2,59.2 C 35.900000000000006,61.5 37.6,63.300000000000004 39.2,63.300000000000004 C 40.900000000000006,63.300000000000004 41.900000000000006,62.400000000000006 42.5,61.1 C 43.3,62.4 44.2,63.300000000000004 45.9,63.300000000000004 C 48.1,63.300000000000004 49.9,60.7 49.699999999999996,59.00000000000001 C 48.99999999999999,59.400000000000006 47.599999999999994,60.00000000000001 46.3,60.00000000000001 C 45.0,60.00000000000001 43.0,59.10000000000001 43.099999999999994,56.300000000000004 C 43.199999999999996,52.900000000000006 46.89999999999999,52.900000000000006 47.599999999999994,53.300000000000004 C 47.199999999999996,52.50000000000001 46.8,51.7 47.199999999999996,50.50000000000001 C 47.199999999999996,50.50000000000001 47.99999999999999,48.10000000000001 50.4,48.10000000000001 C 52.5,48.10000000000001 53.6,49.900000000000006 53.8,50.50000000000001 C 54.199999999999996,51.900000000000006 53.599999999999994,52.70000000000001 53.4,53.300000000000004 C 53.9,52.900000000000006 57.8,53.1 57.8,56.300000000000004 C 57.8,58.800000000000004 56.0,60.00000000000001 54.5,60.00000000000001 C 53.0,60.00000000000001 51.9,59.400000000000006 51.1,59.00000000000001 C 50.9,61.20000000000001 52.800000000000004,63.300000000000004 54.6,63.300000000000004 C 56.0,63.300000000000004 57.5,62.7 58.5,61.1 C 59.4,62.7 60.5,63.300000000000004 61.9,63.300000000000004 C 63.4,63.300000000000004 64.8,62.1 65.3,59.1 C 63.8,60.5 61.4,60.300000000000004 60.4,58.5 C 59.3,56.6 59.9,55.0 61.199999999999996,54.1 C 61.99999999999999,53.4 63.3,53.2 64.3,53.2 C 64.1,52.400000000000006 63.699999999999996,51.400000000000006 64.2,50.400000000000006 C 64.7,49.0 66.6,48.0 68.2,48.3 L 68.2,48.3 M 80.3,43.4 L 56.9,43.4 L 55.9,37.3 L 81.4,37.3 C 81.1,39.3 80.7,41.3 80.3,43.4 M 83.9,21.8 L 81.5,36.6 L 55.8,36.6 C 55.0,31.700000000000003 54.099999999999994,26.8 53.4,21.8 C 54.8,21.7 56.4,22.3 56.9,23.6 C 57.3,24.400000000000002 57.1,25.200000000000003 56.9,26.0 C 57.8,26.0 58.699999999999996,26.0 59.4,26.5 C 61.1,27.3 61.5,29.7 60.1,30.9 C 59.2,31.799999999999997 57.800000000000004,32.0 56.6,31.9 C 56.9,33.1 57.800000000000004,34.5 59.300000000000004,34.5 C 60.7,34.5 61.6,33.7 62.1,32.6 C 62.800000000000004,33.7 63.5,34.5 65.0,34.5 C 66.9,34.5 68.4,32.3 68.2,30.8 C 67.60000000000001,31.1 66.4,31.7 65.3,31.7 C 64.2,31.7 62.5,30.9 62.599999999999994,28.599999999999998 C 62.699999999999996,25.7 65.8,25.7 66.39999999999999,25.999999999999996 C 66.1,25.299999999999997 65.69999999999999,24.699999999999996 66.1,23.599999999999998 C 66.1,23.599999999999998 66.8,21.599999999999998 68.8,21.599999999999998 C 70.6,21.599999999999998 71.5,23.099999999999998 71.6,23.599999999999998 C 71.89999999999999,24.799999999999997 71.5,25.499999999999996 71.3,25.999999999999996 C 71.7,25.699999999999996 75.0,25.799999999999997 75.0,28.599999999999998 C 75.0,30.7 73.5,31.7 72.2,31.7 C 70.9,31.7 70.0,31.2 69.3,30.8 C 69.1,32.6 70.7,34.5 72.3,34.5 C 73.5,34.5 74.7,34.0 75.6,32.6 C 76.39999999999999,34.0 77.3,34.5 78.5,34.5 C 79.5,34.5 80.8,33.7 80.8,31.9 C 79.3,32.0 77.7,31.7 77.1,30.099999999999998 C 76.69999999999999,28.999999999999996 76.8,27.599999999999998 77.89999999999999,26.799999999999997 C 78.6,26.199999999999996 79.6,26.099999999999998 80.6,25.999999999999996 C 80.39999999999999,25.299999999999997 80.1,24.499999999999996 80.5,23.599999999999998 C 80.9,22.4 82.4,21.6 83.9,21.8 L 83.9,21.8" fill="#339933" stroke="none" stroke-width="2.0px" /></g></svg>