<?xml version="1.0" encoding="utf-8" ?>
<svg baseProfile="full" height="100px" version="1.1" width="150px" xmlns="http://www.w3.org/2000/svg" xmlns:ev="http://www.w3.org/2001/xml-events" xmlns:xlink="http://www.w3.org/1999/xlink"><defs><clipPath id="mask0"><rect height="100" width="150" x="0" y="0" /></clipPath></defs><g clip-path="url(#mask0)"><path d="M0,0 L150,100 L150,0 z" fill="#ffffff" stroke="none" /><path d="M0,0 L150,100 L0,100 z" fill="#003897" stroke="none" /></g><g transform="translate(51.55816728317404, 26.558167283174043) scale(0.46883665433651917) rotate(0, 50.0, 50.0)"><path d="M 71.6,55.3 C 72.6,54.0 73.3,52.9 74.19999999999999,51.8 C 76.29999999999998,49.3 77.1,46.3 77.1,43.099999999999994 C 77.0,39.89999999999999 77.1,36.699999999999996 77.1,33.49999999999999 C 77.1,30.89999999999999 76.3,28.699999999999992 74.5,26.799999999999994 C 70.7,22.799999999999994 66.9,18.799999999999994 63.0,14.899999999999993 C 62.3,14.199999999999994 61.0,13.699999999999994 59.9,13.599999999999993 C 55.3,13.499999999999993 50.7,13.499999999999993 46.2,13.499999999999993 C 43.900000000000006,13.499999999999993 42.2,14.699999999999992 41.1,16.499999999999993 C 40.300000000000004,17.799999999999994 39.4,18.199999999999992 37.9,18.099999999999994 C 36.199999999999996,17.999999999999993 34.5,18.099999999999994 32.9,18.099999999999994 C 31.299999999999997,18.099999999999994 30.099999999999998,18.799999999999994 29.2,20.099999999999994 C 27.2,23.299999999999994 25.2,26.499999999999993 23.299999999999997,29.799999999999994 C 21.499999999999996,32.99999999999999 21.9,36.599999999999994 21.4,40.099999999999994 C 20.9,43.599999999999994 20.7,47.199999999999996 20.299999999999997,50.89999999999999 C 19.599999999999998,50.599999999999994 19.199999999999996,50.49999999999999 18.799999999999997,50.29999999999999 C 13.499999999999996,47.39999999999999 8.199999999999998,44.49999999999999 2.899999999999997,41.599999999999994 C 1.3999999999999968,40.8 0.6999999999999966,39.8 0.7999999999999967,37.99999999999999 C 0.8999999999999967,34.99999999999999 0.8999999999999967,31.999999999999993 0.7999999999999967,28.999999999999993 C 0.7999999999999967,26.599999999999994 1.7999999999999967,24.799999999999994 3.5999999999999965,23.39999999999999 C 5.699999999999997,21.79999999999999 7.699999999999996,20.09999999999999 9.699999999999996,18.39999999999999 C 11.399999999999995,16.999999999999993 13.199999999999996,16.199999999999992 15.399999999999995,16.199999999999992 C 18.199999999999996,16.199999999999992 20.999999999999993,16.199999999999992 23.799999999999997,16.199999999999992 C 27.099999999999998,16.199999999999992 28.499999999999996,14.799999999999992 28.499999999999996,11.499999999999993 C 28.499999999999996,9.999999999999993 28.299999999999997,8.399999999999993 28.599999999999998,6.999999999999993 C 28.799999999999997,5.999999999999993 29.499999999999996,4.5999999999999925 30.2,4.399999999999993 C 36.2,2.699999999999993 42.1,-7.105427357601002e-15 48.4,0.49999999999999334 C 55.3,1.0999999999999934 61.599999999999994,3.6999999999999935 66.3,9.199999999999992 C 67.7,10.899999999999991 69.1,12.699999999999992 70.6,14.299999999999992 C 72.1,15.999999999999991 73.3,16.199999999999992 75.3,15.099999999999993 C 77.5,13.999999999999993 78.0,13.999999999999993 79.7,15.799999999999992 C 83.9,20.199999999999992 88.10000000000001,24.599999999999994 92.3,28.999999999999993 C 95.2,32.099999999999994 95.2,32.99999999999999 92.6,36.29999999999999 C 88.0,41.99999999999999 83.3,47.599999999999994 78.69999999999999,53.19999999999999 C 76.7,55.6 74.5,55.9 71.6,55.3" fill="#f72d15" stroke="none" stroke-width="3.0px" /><path d="M 89.8,61.1 C 90.7,64.5 91.8,67.3 92.2,70.2 C 92.4,71.4 91.8,73.10000000000001 91.0,74.2 C 88.0,78.4 84.8,82.4 81.7,86.5 C 80.10000000000001,88.6 77.9,89.3 75.60000000000001,89.6 C 68.30000000000001,90.5 61.00000000000001,91.39999999999999 53.60000000000001,92.1 C 52.20000000000001,92.19999999999999 50.60000000000001,91.89999999999999 49.50000000000001,91.3 C 42.00000000000001,87.2 34.60000000000001,83.0 27.10000000000001,78.8 C 26.000000000000007,78.2 24.800000000000008,77.6 23.70000000000001,76.89999999999999 C 22.40000000000001,76.1 22.40000000000001,75.19999999999999 23.50000000000001,74.19999999999999 C 24.20000000000001,73.6 25.00000000000001,73.1 25.90000000000001,72.6 C 32.900000000000006,68.6 39.80000000000001,64.5 46.900000000000006,60.699999999999996 C 49.10000000000001,59.599999999999994 51.800000000000004,59.099999999999994 54.300000000000004,58.99999999999999 C 61.300000000000004,58.79999999999999 68.4,58.79999999999999 75.4,58.89999999999999 C 78.5,58.99999999999999 80.9,57.69999999999999 82.80000000000001,55.29999999999999 C 85.60000000000001,51.79999999999999 88.50000000000001,48.19999999999999 91.30000000000001,44.69999999999999 C 91.70000000000002,44.19999999999999 92.10000000000001,43.69999999999999 92.70000000000002,42.999999999999986 C 95.00000000000001,45.09999999999999 97.30000000000001,47.09999999999999 99.50000000000001,49.19999999999999 C 100.00000000000001,49.69999999999999 100.20000000000002,50.79999999999999 100.10000000000001,51.499999999999986 C 100.00000000000001,51.899999999999984 98.9,52.19999999999999 98.2,52.19999999999999 C 93.60000000000001,52.39999999999999 90.10000000000001,54.499999999999986 87.2,57.89999999999999 C 83.60000000000001,62.099999999999994 80.10000000000001,66.39999999999999 76.7,70.69999999999999 C 75.0,72.89999999999999 72.9,74.49999999999999 70.4,75.49999999999999 C 66.2,77.19999999999999 61.900000000000006,78.59999999999998 57.7,80.19999999999999 C 55.300000000000004,81.1 53.1,80.49999999999999 51.0,79.29999999999998 C 47.0,77.2 43.2,75.0 39.4,73.0 C 38.699999999999996,72.6 37.699999999999996,72.7 36.8,72.6 C 37.3,73.39999999999999 37.699999999999996,74.39999999999999 38.4,74.8 C 42.3,77.3 46.4,79.5 50.3,82.0 C 53.8,84.2 57.3,84.7 61.199999999999996,82.9 C 65.19999999999999,81.0 69.5,79.60000000000001 73.6,77.9 C 76.3,76.80000000000001 78.5,75.10000000000001 80.3,72.80000000000001 C 83.4,69.1 86.4,65.3 89.8,61.1" fill="#f72d15" stroke="none" stroke-width="3.0px" /><path d="M 49.5,94.6 C 49.0,95.6 48.5,96.39999999999999 48.1,97.19999999999999 C 46.800000000000004,99.6 45.7,99.99999999999999 43.2,98.69999999999999 C 40.5,97.29999999999998 37.800000000000004,95.79999999999998 35.1,94.29999999999998 C 28.3,90.49999999999999 21.5,86.69999999999999 14.700000000000003,82.99999999999999 C 12.000000000000004,81.49999999999999 10.000000000000004,79.29999999999998 8.600000000000003,76.49999999999999 C 5.800000000000003,70.79999999999998 3.100000000000003,65.09999999999998 0.4000000000000039,59.399999999999984 C -0.4999999999999961,57.499999999999986 -0.19999999999999607,56.499999999999986 1.700000000000004,55.59999999999999 C 4.800000000000004,54.19999999999999 7.900000000000004,52.79999999999999 11.000000000000005,51.399999999999984 C 12.500000000000005,50.69999999999998 13.900000000000006,50.999999999999986 15.500000000000005,51.59999999999999 C 19.400000000000006,53.09999999999999 21.300000000000004,55.899999999999984 22.100000000000005,59.999999999999986 C 22.600000000000005,62.59999999999999 23.400000000000006,65.09999999999998 24.100000000000005,67.59999999999998 C 24.400000000000006,68.59999999999998 24.200000000000006,69.29999999999998 23.200000000000006,69.79999999999998 C 22.300000000000008,70.29999999999998 21.400000000000006,70.89999999999998 20.500000000000007,71.49999999999999 C 17.700000000000006,73.69999999999999 17.800000000000008,76.49999999999999 20.800000000000008,78.39999999999999 C 22.500000000000007,79.49999999999999 24.300000000000008,80.39999999999999 26.000000000000007,81.39999999999999 C 33.400000000000006,85.49999999999999 40.80000000000001,89.6 48.30000000000001,93.8 C 48.8,94.0 49.1,94.3 49.5,94.6" fill="#f72d15" stroke="none" stroke-width="3.0px" /><path d="M 54.0,30.1 C 54.5,30.700000000000003 55.0,31.200000000000003 55.5,31.8 C 56.2,32.6 56.8,33.4 56.0,34.5 C 55.1,35.7 54.5,37.4 52.6,36.8 C 50.5,36.099999999999994 48.5,35.199999999999996 46.4,34.3 C 45.3,33.8 45.4,32.9 45.8,31.999999999999996 C 46.599999999999994,30.499999999999996 47.5,29.099999999999998 48.5,27.699999999999996 C 48.8,27.199999999999996 49.5,26.899999999999995 50.1,26.699999999999996 C 50.7,26.499999999999996 51.4,26.599999999999994 52.1,26.599999999999994 C 58.6,26.599999999999994 58.6,26.499999999999993 62.900000000000006,31.499999999999993 C 63.60000000000001,32.29999999999999 64.30000000000001,33.39999999999999 64.30000000000001,34.39999999999999 C 64.50000000000001,37.29999999999999 64.4,40.29999999999999 64.4,43.29999999999999 C 64.10000000000001,43.29999999999999 63.800000000000004,43.29999999999999 63.60000000000001,43.19999999999999 C 59.80000000000001,41.29999999999999 56.00000000000001,41.999999999999986 52.400000000000006,43.59999999999999 C 49.800000000000004,44.69999999999999 47.60000000000001,44.499999999999986 45.2,43.19999999999999 C 42.6,41.69999999999999 39.900000000000006,40.39999999999999 37.1,39.09999999999999 C 35.4,38.29999999999999 34.6,36.999999999999986 35.1,35.29999999999999 C 35.5,33.49999999999999 36.2,31.79999999999999 37.1,30.19999999999999 C 39.2,26.599999999999987 41.6,23.099999999999987 43.9,19.599999999999987 C 44.9,18.099999999999987 46.199999999999996,17.299999999999986 48.1,17.299999999999986 C 51.7,17.399999999999988 55.4,17.199999999999985 59.0,17.399999999999988 C 60.2,17.49999999999999 61.6,18.099999999999987 62.5,18.899999999999988 C 65.4,21.599999999999987 68.0,24.499999999999986 70.8,27.19999999999999 C 72.39999999999999,28.79999999999999 73.3,30.69999999999999 73.3,32.999999999999986 C 73.3,36.69999999999999 73.2,40.399999999999984 73.3,44.09999999999999 C 73.3,45.59999999999999 72.8,45.79999999999999 71.5,45.399999999999984 C 67.4,44.19999999999998 67.4,44.19999999999998 67.4,39.899999999999984 C 67.4,38.09999999999999 67.60000000000001,36.29999999999998 67.30000000000001,34.499999999999986 C 67.10000000000001,33.19999999999999 66.60000000000001,31.699999999999985 65.70000000000002,30.599999999999987 C 64.10000000000002,28.69999999999999 62.30000000000002,26.899999999999988 60.40000000000002,25.299999999999986 C 59.50000000000002,24.599999999999987 58.30000000000002,23.999999999999986 57.20000000000002,23.899999999999988 C 54.80000000000002,23.69999999999999 52.30000000000002,23.799999999999986 49.80000000000002,23.799999999999986 C 48.40000000000002,23.799999999999986 47.30000000000002,24.299999999999986 46.600000000000016,25.499999999999986 C 45.40000000000001,27.299999999999986 44.20000000000002,29.099999999999987 43.100000000000016,30.999999999999986 C 41.80000000000002,33.19999999999999 42.20000000000002,34.499999999999986 44.500000000000014,35.59999999999999 C 47.30000000000001,36.999999999999986 50.100000000000016,38.29999999999999 53.000000000000014,39.499999999999986 C 54.70000000000002,40.29999999999998 56.20000000000002,39.79999999999998 57.30000000000001,38.29999999999998 C 57.80000000000001,37.69999999999998 58.20000000000001,36.999999999999986 58.70000000000001,36.399999999999984 C 60.60000000000001,33.69999999999998 59.90000000000001,31.099999999999984 56.90000000000001,29.799999999999983 C 56.20000000000001,29.499999999999982 55.30000000000001,29.599999999999984 54.500000000000014,29.499999999999982 C 54.2,29.7 54.1,29.9 54.0,30.1" fill="#f72d15" stroke="none" stroke-width="3.0px" /><path d="M 71.3,48.5 C 69.6,50.9 68.2,53.1 66.6,55.2 C 66.3,55.7 65.3,55.800000000000004 64.69999999999999,55.900000000000006 C 60.29999999999999,56.00000000000001 55.999999999999986,56.00000000000001 51.59999999999999,55.900000000000006 C 48.79999999999999,55.800000000000004 46.29999999999999,56.60000000000001 43.899999999999984,57.900000000000006 C 39.79999999999998,60.2 35.59999999999998,62.60000000000001 31.499999999999986,64.9 C 30.999999999999986,65.2 30.399999999999984,65.4 29.499999999999986,65.9 C 29.999999999999986,63.50000000000001 30.699999999999985,61.60000000000001 30.799999999999986,59.60000000000001 C 31.199999999999985,54.80000000000001 33.79999999999998,52.70000000000001 38.29999999999998,51.60000000000001 C 43.79999999999998,50.30000000000001 49.19999999999998,48.400000000000006 54.59999999999998,46.70000000000001 C 58.29999999999998,45.50000000000001 61.79999999999998,45.60000000000001 65.49999999999999,46.60000000000001 C 67.4,47.2 69.2,47.8 71.3,48.5" fill="#f72d15" stroke="none" stroke-width="3.0px" /><path d="M 25.7,36.0 C 32.4,39.3 38.7,42.4 45.5,45.7 C 43.0,46.5 41.0,47.2 39.0,47.8 C 36.8,48.5 34.6,49.099999999999994 32.4,49.8 C 29.9,50.599999999999994 28.299999999999997,52.199999999999996 27.7,54.8 C 27.2,57.099999999999994 26.7,59.4 26.0,61.699999999999996 C 23.8,53.3 24.6,44.8 25.7,36.0" fill="#f72d15" stroke="none" stroke-width="3.0px" /><path d="M 38.0,21.7 C 35.8,26.7 31.1,30.2 31.3,36.4 C 29.8,35.6 28.400000000000002,35.199999999999996 27.3,34.3 C 26.8,33.9 26.5,32.5 26.8,31.9 C 28.400000000000002,28.799999999999997 30.2,25.799999999999997 32.2,22.9 C 32.7,22.2 34.0,21.9 34.900000000000006,21.7 C 35.8,21.4 36.8,21.6 38.0,21.7" fill="#f72d15" stroke="none" stroke-width="3.0px" /></g></svg>