<?xml version="1.0" encoding="utf-8" ?>
<svg baseProfile="full" height="100px" version="1.1" width="150px" xmlns="http://www.w3.org/2000/svg" xmlns:ev="http://www.w3.org/2001/xml-events" xmlns:xlink="http://www.w3.org/1999/xlink"><defs><clipPath id="mask0"><rect height="100" width="150" x="0" y="0" /></clipPath></defs><g clip-path="url(#mask0)"><rect fill="#32c2b4" height="100" stroke="none" width="150" x="0" y="0" /><path d="M56.47525087834157,0 L93.52474912165843,0 L93.52474912165843,100 L56.47525087834157,100 z" fill="#ffffff" stroke="none" /></g><g transform="translate(47.94264434281104, 22.942644342811043) scale(0.5411471131437792) rotate(0, 50.0, 50.0)"><path d="M 84.2,26.9 C 75.9,26.9 69.0,33.4 68.5,41.599999999999994 C 68.0,41.599999999999994 67.6,41.49999999999999 67.1,41.49999999999999 C 66.6,41.49999999999999 66.19999999999999,41.49999999999999 65.69999999999999,41.599999999999994 C 65.49999999999999,38.599999999999994 64.39999999999999,35.699999999999996 62.59999999999999,33.199999999999996 L 62.59999999999999,33.199999999999996 C 59.69999999999999,29.399999999999995 55.09999999999999,26.899999999999995 49.999999999999986,26.899999999999995 C 41.69999999999999,26.899999999999995 34.79999999999998,33.39999999999999 34.29999999999998,41.599999999999994 C 33.899999999999984,41.599999999999994 33.399999999999984,41.49999999999999 32.899999999999984,41.49999999999999 C 32.399999999999984,41.49999999999999 31.999999999999986,41.49999999999999 31.499999999999986,41.599999999999994 C 31.299999999999986,38.599999999999994 30.199999999999985,35.699999999999996 28.399999999999984,33.199999999999996 L 28.399999999999984,33.199999999999996 C 25.499999999999986,29.399999999999995 20.899999999999984,26.899999999999995 15.799999999999985,26.899999999999995 C 7.1,26.9 0.0,34.0 0.0,42.7 C 0.0,51.400000000000006 7.1,58.5 15.8,58.5 C 16.3,58.5 16.7,58.5 17.2,58.4 C 17.8,66.6 24.6,73.1 32.9,73.1 C 41.2,73.1 48.099999999999994,66.6 48.599999999999994,58.39999999999999 C 48.99999999999999,58.39999999999999 49.49999999999999,58.49999999999999 49.99999999999999,58.49999999999999 C 50.49999999999999,58.49999999999999 50.89999999999999,58.49999999999999 51.39999999999999,58.39999999999999 C 51.99999999999999,66.6 58.79999999999999,73.1 67.1,73.1 C 75.39999999999999,73.1 82.3,66.6 82.8,58.39999999999999 C 83.3,58.39999999999999 83.7,58.49999999999999 84.2,58.49999999999999 C 92.9,58.49999999999999 100.0,51.39999999999999 100.0,42.69999999999999 C 100.0,34.0 92.9,26.9 84.2,26.9 M 76.4,53.1 L 76.4,53.1 C 73.80000000000001,51.2 72.0,48.300000000000004 71.4,45.1 C 75.7,46.6 79.0,50.4 79.9,55.0 C 78.6,54.5 77.5,53.9 76.4,53.1 M 61.5,48.7 C 61.4,48.800000000000004 61.4,48.900000000000006 61.3,49.0 C 61.3,49.1 61.199999999999996,49.2 61.199999999999996,49.2 C 61.199999999999996,49.300000000000004 61.099999999999994,49.300000000000004 61.099999999999994,49.400000000000006 C 60.99999999999999,49.50000000000001 60.89999999999999,49.7 60.8,49.800000000000004 C 60.8,49.800000000000004 60.8,49.900000000000006 60.699999999999996,49.900000000000006 C 59.099999999999994,52.2 56.9,54.00000000000001 54.199999999999996,54.900000000000006 C 54.99999999999999,50.300000000000004 58.3,46.50000000000001 62.699999999999996,45.00000000000001 C 62.5,46.3 62.1,47.5 61.5,48.7 C 61.5,48.7 61.5,48.7 61.5,48.7 M 50.0,29.7 C 55.4,29.7 60.0,33.0 62.0,37.6 C 62.6,39.0 62.9,40.5 63.0,42.1 C 56.8,43.800000000000004 52.1,49.1 51.4,55.7 C 50.9,55.7 50.5,55.800000000000004 50.0,55.800000000000004 C 50.0,55.800000000000004 50.0,55.800000000000004 50.0,55.800000000000004 L 50.0,55.800000000000004 C 50.0,55.800000000000004 50.0,55.800000000000004 50.0,55.800000000000004 C 49.5,55.800000000000004 49.1,55.800000000000004 48.6,55.7 C 47.9,49.2 43.2,43.800000000000004 37.0,42.2 C 37.3,35.2 43.0,29.7 50.0,29.7 M 37.2,45.0 C 41.5,46.5 44.800000000000004,50.3 45.7,54.9 C 44.5,54.5 43.300000000000004,53.8 42.2,53.0 L 42.2,53.0 C 39.6,51.2 37.8,48.3 37.2,45.0 M 27.3,48.7 C 27.2,48.800000000000004 27.2,48.900000000000006 27.1,49.0 C 27.1,49.1 27.0,49.2 27.0,49.2 C 27.0,49.300000000000004 26.9,49.300000000000004 26.9,49.400000000000006 C 26.799999999999997,49.50000000000001 26.7,49.7 26.599999999999998,49.800000000000004 C 26.599999999999998,49.800000000000004 26.599999999999998,49.800000000000004 26.599999999999998,49.900000000000006 C 25.099999999999998,52.2 22.799999999999997,53.900000000000006 20.199999999999996,54.900000000000006 C 20.999999999999996,50.300000000000004 24.299999999999997,46.50000000000001 28.599999999999994,45.00000000000001 C 28.3,46.3 27.9,47.5 27.3,48.7 C 27.3,48.7 27.3,48.7 27.3,48.7 M 2.8,42.7 C 2.8,35.5 8.6,29.700000000000003 15.8,29.700000000000003 C 21.200000000000003,29.700000000000003 25.8,33.0 27.8,37.6 C 28.400000000000002,39.0 28.7,40.5 28.8,42.1 C 22.6,43.800000000000004 17.9,49.1 17.200000000000003,55.6 C 16.700000000000003,55.7 16.300000000000004,55.7 15.800000000000002,55.7 C 8.6,55.7 2.8,49.9 2.8,42.7 M 32.9,70.3 C 25.9,70.3 20.2,64.8 19.9,57.9 C 23.299999999999997,57.0 26.299999999999997,54.9 28.4,52.1 L 28.4,52.1 C 28.5,52.0 28.5,51.9 28.599999999999998,51.800000000000004 C 28.599999999999998,51.800000000000004 28.599999999999998,51.800000000000004 28.599999999999998,51.800000000000004 C 28.799999999999997,51.50000000000001 28.999999999999996,51.2 29.2,50.900000000000006 C 29.2,50.900000000000006 29.2,50.900000000000006 29.2,50.900000000000006 C 30.2,49.2 30.9,47.400000000000006 31.2,45.50000000000001 C 31.2,45.50000000000001 31.2,45.50000000000001 31.2,45.50000000000001 C 31.3,45.10000000000001 31.3,44.800000000000004 31.4,44.400000000000006 C 31.9,44.300000000000004 32.3,44.300000000000004 32.8,44.300000000000004 C 33.3,44.300000000000004 33.699999999999996,44.300000000000004 34.199999999999996,44.400000000000006 C 34.699999999999996,48.900000000000006 36.99999999999999,52.800000000000004 40.4,55.300000000000004 L 40.4,55.300000000000004 C 40.4,55.300000000000004 40.4,55.300000000000004 40.4,55.300000000000004 C 42.0,56.50000000000001 43.8,57.400000000000006 45.8,57.900000000000006 C 45.6,64.8 39.9,70.3 32.9,70.3 M 67.1,70.3 C 60.099999999999994,70.3 54.39999999999999,64.8 54.099999999999994,57.9 C 57.49999999999999,57.0 60.49999999999999,54.9 62.599999999999994,52.1 L 62.599999999999994,52.1 C 62.699999999999996,52.0 62.699999999999996,51.9 62.8,51.800000000000004 C 62.8,51.800000000000004 62.8,51.800000000000004 62.8,51.800000000000004 C 64.39999999999999,49.6 65.3,47.00000000000001 65.6,44.400000000000006 C 66.1,44.400000000000006 66.5,44.300000000000004 67.0,44.300000000000004 C 67.5,44.300000000000004 68.0,44.300000000000004 68.4,44.400000000000006 C 68.9,48.900000000000006 71.2,52.800000000000004 74.60000000000001,55.300000000000004 L 74.60000000000001,55.300000000000004 C 74.60000000000001,55.300000000000004 74.60000000000001,55.300000000000004 74.60000000000001,55.300000000000004 C 76.2,56.50000000000001 78.00000000000001,57.400000000000006 79.9,57.900000000000006 C 79.8,64.8 74.1,70.3 67.1,70.3 M 84.2,55.7 C 84.2,55.7 84.2,55.7 84.2,55.7 L 84.2,55.7 C 84.2,55.7 84.2,55.7 84.2,55.7 C 83.7,55.7 83.2,55.7 82.8,55.6 C 82.1,49.1 77.39999999999999,43.7 71.2,42.1 C 71.5,35.2 77.2,29.700000000000003 84.2,29.700000000000003 C 91.4,29.700000000000003 97.2,35.5 97.2,42.7 C 97.2,49.900000000000006 91.4,55.7 84.2,55.7" fill="#4997d0" stroke="none" stroke-width="2.0px" /></g></svg>