<?xml version="1.0" encoding="utf-8" ?>
<svg baseProfile="full" height="100px" version="1.1" width="150px" xmlns="http://www.w3.org/2000/svg" xmlns:ev="http://www.w3.org/2001/xml-events" xmlns:xlink="http://www.w3.org/1999/xlink"><defs><clipPath id="mask0"><rect height="100" width="150" x="0" y="0" /></clipPath></defs><g clip-path="url(#mask0)"><path d="M0,0 L37.75392553038388,145.17107531132444 L144.59880187950284,39.889679053763885 z" fill="#ffffff" stroke="none" transform="translate(75.0, 50.0)" /><path d="M0,0 L144.59880187950284,39.889679053763885 L106.84487634911898,-105.2813962575605 z" fill="#7addea" stroke="none" transform="translate(75.0, 50.0)" /><path d="M0,0 L106.84487634911898,-105.2813962575605 L-37.75392553038385,-145.17107531132444 z" fill="#ffffff" stroke="none" transform="translate(75.0, 50.0)" /><path d="M0,0 L-37.75392553038385,-145.17107531132444 L-144.59880187950284,-39.8896790537639 z" fill="#7addea" stroke="none" transform="translate(75.0, 50.0)" /><path d="M0,0 L-144.59880187950284,-39.8896790537639 L-106.84487634911899,105.2813962575605 z" fill="#ffffff" stroke="none" transform="translate(75.0, 50.0)" /><path d="M0,0 L-106.84487634911899,105.2813962575605 L37.7539255303839,145.17107531132442 z" fill="#7addea" stroke="none" transform="translate(75.0, 50.0)" /></g><g transform="translate(41.87353360744189, 16.873533607441892) scale(0.6625293278511621) rotate(0, 50.0, 50.0)"><path d="M 93.3,25.0 L 64.4,25.0 L 50.0,0.0 L 35.6,25.0 L 6.7,25.0 L 21.1,50.0 L 6.7,75.0 L 35.6,75.0 L 50.0,100.0 L 64.4,75.0 L 93.30000000000001,75.0 L 78.9,50.0 L 93.3,25.0 M 79.6,32.9 L 74.3,42.0 L 69.0,32.9 L 79.6,32.9 M 50.0,15.9 L 55.3,25.0 L 44.8,25.0 L 50.0,15.9 M 20.4,32.9 L 31.0,32.9 L 25.7,42.0 L 20.4,32.9 M 20.4,67.1 L 25.7,57.99999999999999 L 31.0,67.1 L 20.4,67.1 M 50.0,84.1 L 44.7,75.0 L 55.2,75.0 L 50.0,84.1 M 59.9,67.1 L 40.1,67.1 L 30.3,50.0 L 40.2,32.9 L 59.900000000000006,32.9 L 69.7,50.0 L 59.9,67.1 M 79.6,67.1 L 69.0,67.1 L 74.3,57.99999999999999 L 79.6,67.1" fill="#ff3333" stroke="none" stroke-width="3.0" /></g></svg>