<?xml version="1.0" encoding="utf-8" ?>
<svg baseProfile="full" height="100px" version="1.1" width="150px" xmlns="http://www.w3.org/2000/svg" xmlns:ev="http://www.w3.org/2001/xml-events" xmlns:xlink="http://www.w3.org/1999/xlink"><defs><clipPath id="mask0"><rect height="100" width="150" x="0" y="0" /></clipPath></defs><g clip-path="url(#mask0)"><path d="M0,100 L150,0 L150,100 z" fill="#6699cc" stroke="none" /><path d="M0,100 L150,0 L0,0 z" fill="#fcdc04" stroke="none" /></g><g transform="translate(38.00383139338928, 13.003831393389277) scale(0.7399233721322145) rotate(0, 50.0, 50.0)"><path d="M 74.5,93.8 L 49.6,95.6 L 24.700000000000003,93.8 L 24.700000000000003,44.4 L 74.4,44.4 L 74.5,93.8" fill="#0fb845" stroke="none" stroke-width="0px" /><path d="M 61.5,82.5 C 60.6,83.2 59.8,83.9 59.1,84.8 L 58.3,84.0 C 57.699999999999996,83.4 56.3,83.4 55.5,83.9 C 53.1,85.10000000000001 51.7,88.10000000000001 51.0,90.7 L 49.8,95.3 L 74.0,94.6 L 75.4,90.8 L 75.9,90.6 C 75.9,90.6 73.80000000000001,85.0 71.4,83.8 C 70.60000000000001,83.39999999999999 69.2,83.39999999999999 68.60000000000001,83.89999999999999 L 67.80000000000001,84.69999999999999 C 67.10000000000001,83.89999999999999 66.30000000000001,83.1 65.4,82.39999999999999 L 61.5,82.5" fill="#ffffff" stroke="none" stroke-width="0px" /><path d="M 72.4,61.7 L 72.4,65.5 L 71.30000000000001,65.5 L 71.30000000000001,64.7 L 64.70000000000002,64.7 L 64.70000000000002,80.4 L 62.500000000000014,80.4 L 62.500000000000014,64.7 L 55.90000000000001,64.7 L 55.90000000000001,65.5 L 54.80000000000001,65.5 L 54.80000000000001,61.7 L 55.90000000000001,61.7 L 55.90000000000001,62.5 L 62.500000000000014,62.5 L 62.500000000000014,58.0 L 57.40000000000001,58.0 L 57.40000000000001,58.7 L 56.30000000000001,58.7 L 56.30000000000001,54.800000000000004 L 57.40000000000001,54.800000000000004 L 57.40000000000001,55.7 L 62.500000000000014,55.7 L 62.500000000000014,50.800000000000004 L 61.70000000000002,50.800000000000004 L 61.70000000000002,49.7 L 65.50000000000001,49.7 L 65.50000000000001,50.800000000000004 L 64.70000000000002,50.800000000000004 L 64.70000000000002,55.7 L 69.70000000000002,55.7 L 69.70000000000002,54.900000000000006 L 70.80000000000001,54.900000000000006 L 70.80000000000001,58.7 L 69.70000000000002,58.7 L 69.70000000000002,58.0 L 64.70000000000002,58.0 L 64.70000000000002,62.5 L 71.20000000000002,62.5 L 71.20000000000002,61.7 L 72.4,61.7 M 23.1,12.6 C 22.3,12.6 21.700000000000003,13.299999999999999 21.700000000000003,14.1 L 21.700000000000003,14.1 C 21.700000000000003,14.9 22.300000000000004,15.6 23.1,15.6 C 23.9,15.6 24.5,14.9 24.5,14.1 L 24.5,14.1 C 24.5,13.3 23.8,12.6 23.1,12.6 M 17.6,26.4 C 16.8,26.4 16.200000000000003,27.099999999999998 16.200000000000003,27.9 L 16.200000000000003,27.9 C 16.200000000000003,28.7 16.800000000000004,29.4 17.6,29.4 C 18.400000000000002,29.4 19.0,28.7 19.0,27.9 L 19.0,27.9 C 19.0,27.0 18.4,26.4 17.6,26.4 M 18.2,22.7 L 18.2,22.7 C 18.2,21.9 17.599999999999998,21.2 16.8,21.2 C 16.0,21.2 15.4,21.9 15.4,22.7 L 15.4,22.7 C 15.4,23.5 16.0,24.2 16.8,24.2 C 17.6,24.2 18.2,23.5 18.2,22.7 M 18.4,16.1 C 17.599999999999998,16.1 17.0,16.8 17.0,17.6 L 17.0,17.6 C 17.0,18.400000000000002 17.6,19.1 18.4,19.1 C 19.199999999999996,19.1 19.799999999999997,18.400000000000002 19.799999999999997,17.6 L 19.799999999999997,17.6 C 19.8,16.7 19.2,16.1 18.4,16.1 M 28.4,13.4 C 29.2,13.4 29.799999999999997,12.700000000000001 29.799999999999997,11.9 L 29.799999999999997,11.9 C 29.799999999999997,11.1 29.199999999999996,10.4 28.4,10.4 C 27.6,10.4 27.0,11.1 27.0,11.9 L 27.0,11.9 C 27.0,12.8 27.6,13.4 28.4,13.4 M 33.9,11.8 C 34.699999999999996,11.8 35.3,11.100000000000001 35.3,10.3 L 35.3,10.3 C 35.3,9.5 34.699999999999996,8.8 33.9,8.8 C 33.1,8.8 32.5,9.5 32.5,10.3 L 32.5,10.3 C 32.4,11.2 33.1,11.8 33.9,11.8 M 39.3,10.7 C 40.099999999999994,10.7 40.699999999999996,10.0 40.699999999999996,9.2 L 40.699999999999996,9.2 C 40.699999999999996,8.399999999999999 40.099999999999994,7.699999999999999 39.3,7.699999999999999 C 38.5,7.699999999999999 37.9,8.399999999999999 37.9,9.2 L 37.9,9.2 C 37.9,10.1 38.5,10.7 39.3,10.7 M 44.7,10.0 C 45.5,10.0 46.1,9.3 46.1,8.5 L 46.1,8.5 C 46.1,7.7 45.5,7.0 44.7,7.0 C 43.900000000000006,7.0 43.300000000000004,7.7 43.300000000000004,8.5 L 43.300000000000004,8.5 C 43.3,9.4 43.9,10.0 44.7,10.0 M 24.6,95.8 L 49.5,95.8 L 49.5,88.2 L 24.6,88.2 L 24.6,95.8 M 24.6,56.7 L 49.5,56.7 L 49.5,50.800000000000004 L 24.6,50.800000000000004 L 24.6,56.7 M 24.6,81.4 L 49.5,81.4 L 49.5,75.5 L 24.6,75.5 L 24.6,81.4 M 24.6,68.8 L 49.5,68.8 L 49.5,62.9 L 24.6,62.9 L 24.6,68.8 M 76.9,12.6 C 76.10000000000001,12.6 75.5,13.299999999999999 75.5,14.1 L 75.5,14.1 C 75.5,14.9 76.1,15.6 76.9,15.6 C 77.70000000000002,15.6 78.30000000000001,14.9 78.30000000000001,14.1 L 78.30000000000001,14.1 C 78.4,13.3 77.7,12.6 76.9,12.6 M 82.4,26.4 C 81.60000000000001,26.4 81.0,27.099999999999998 81.0,27.9 L 81.0,27.9 C 81.0,28.7 81.6,29.4 82.4,29.4 C 83.2,29.4 83.80000000000001,28.7 83.80000000000001,27.9 L 83.80000000000001,27.9 C 83.8,27.0 83.2,26.4 82.4,26.4 M 83.2,21.2 C 82.4,21.2 81.8,21.9 81.8,22.7 L 81.8,22.7 C 81.8,23.5 82.39999999999999,24.2 83.2,24.2 C 84.0,24.2 84.60000000000001,23.5 84.60000000000001,22.7 L 84.60000000000001,22.7 C 84.7,21.9 84.0,21.2 83.2,21.2 M 83.1,17.6 L 83.1,17.6 C 83.1,16.8 82.5,16.1 81.69999999999999,16.1 C 80.89999999999999,16.1 80.29999999999998,16.8 80.29999999999998,17.6 L 80.29999999999998,17.6 C 80.29999999999998,18.400000000000002 80.89999999999998,19.1 81.69999999999999,19.1 C 82.5,19.1 83.1,18.4 83.1,17.6 M 71.6,10.5 C 70.8,10.5 70.19999999999999,11.2 70.19999999999999,12.0 L 70.19999999999999,12.0 C 70.19999999999999,12.8 70.79999999999998,13.5 71.6,13.5 C 72.39999999999999,13.5 73.0,12.8 73.0,12.0 L 73.0,12.0 C 73.0,11.1 72.4,10.5 71.6,10.5 M 66.1,11.8 C 66.89999999999999,11.8 67.5,11.100000000000001 67.5,10.3 L 67.5,10.3 C 67.5,9.5 66.9,8.8 66.1,8.8 C 65.3,8.8 64.69999999999999,9.5 64.69999999999999,10.3 L 64.69999999999999,10.3 C 64.7,11.1 65.3,11.8 66.1,11.8 M 60.7,10.7 C 61.5,10.7 62.1,10.0 62.1,9.2 L 62.1,9.2 C 62.1,8.399999999999999 61.5,7.699999999999999 60.7,7.699999999999999 C 59.900000000000006,7.699999999999999 59.300000000000004,8.399999999999999 59.300000000000004,9.2 L 59.300000000000004,9.2 C 59.3,10.1 59.9,10.7 60.7,10.7 M 56.7,8.5 L 56.7,8.5 C 56.7,7.7 56.1,7.0 55.300000000000004,7.0 C 54.50000000000001,7.0 53.900000000000006,7.7 53.900000000000006,8.5 L 53.900000000000006,8.5 C 53.900000000000006,9.3 54.50000000000001,10.0 55.300000000000004,10.0 C 56.1,10.0 56.7,9.4 56.7,8.5" fill="#000000" stroke="none" stroke-width="0px" /><path d="M 65.4,80.5 L 65.4,82.6 L 61.60000000000001,82.6 L 61.60000000000001,80.39999999999999 L 61.10000000000001,79.99999999999999 L 61.30000000000001,79.69999999999999 L 62.10000000000001,80.39999999999999 L 63.30000000000001,80.39999999999999 L 63.30000000000001,79.49999999999999 L 63.70000000000001,79.49999999999999 L 63.70000000000001,80.39999999999999 L 65.0,80.39999999999999 L 65.6,79.8 L 65.89999999999999,80.1 L 65.4,80.5 M 80.6,26.9 L 72.3,42.2 L 76.7,42.2 L 76.7,90.9 C 76.7,93.4 75.2,96.10000000000001 72.0,96.10000000000001 L 52.2,96.10000000000001 C 52.0,96.30000000000001 50.400000000000006,98.10000000000001 50.400000000000006,98.10000000000001 L 49.60000000000001,99.10000000000001 L 47.0,96.0 L 27.2,96.0 C 24.0,96.0 22.5,93.3 22.5,90.8 L 22.5,42.1 L 28.2,42.1 L 19.6,26.8 C 18.900000000000002,25.900000000000002 19.1,23.3 19.400000000000002,21.200000000000003 C 19.400000000000002,17.700000000000003 26.200000000000003,14.800000000000002 31.900000000000002,13.000000000000004 C 35.400000000000006,11.900000000000004 45.5,10.700000000000003 49.1,10.500000000000004 L 45.7,5.100000000000003 L 44.0,6.4 L 43.1,5.2 L 45.0,3.9 L 43.7,1.7999999999999998 L 44.9,1.0 L 46.199999999999996,3.0 L 47.9,1.8 L 48.8,3.0 L 47.0,4.3 L 50.9,10.6 C 54.4,10.799999999999999 65.2,12.0 67.6,13.1 C 68.5,13.4 77.89999999999999,16.4 80.39999999999999,20.9 L 80.49999999999999,21.0 L 80.49999999999999,21.1 C 81.2,25.6 80.8,26.6 80.6,26.9 M 23.8,25.9 L 29.700000000000003,34.0 L 30.6,21.9 L 36.4,30.799999999999997 L 38.3,20.999999999999996 L 41.4,27.699999999999996 C 42.199999999999996,21.299999999999997 47.9,18.699999999999996 47.9,18.699999999999996 L 47.9,12.199999999999996 C 43.699999999999996,12.599999999999996 35.3,13.599999999999996 32.3,14.499999999999996 C 25.099999999999998,16.699999999999996 20.699999999999996,19.299999999999997 20.799999999999997,21.299999999999997 L 20.799999999999997,21.4 L 20.799999999999997,21.5 C 20.499999999999996,23.5 20.4,25.5 20.599999999999998,26.0 L 20.7,26.1 L 20.8,26.200000000000003 L 23.6,31.300000000000004 L 23.8,25.9 M 74.5,44.4 L 24.700000000000003,44.4 L 24.700000000000003,90.9 C 24.700000000000003,91.4 24.800000000000004,93.80000000000001 27.1,93.80000000000001 L 47.0,93.80000000000001 C 47.6,93.80000000000001 48.3,94.10000000000001 48.7,94.60000000000001 L 49.6,95.7 C 50.0,95.2 50.5,94.7 50.6,94.60000000000001 C 51.0,94.10000000000001 51.6,93.9 52.300000000000004,93.9 L 72.0,93.9 C 74.4,93.9 74.4,91.30000000000001 74.4,91.0 L 74.4,44.4 L 74.5,44.4 M 71.2,42.1 C 70.0,41.5 62.1,37.7 57.300000000000004,37.7 L 43.2,37.7 C 38.5,37.7 32.6,39.6 29.300000000000004,42.1 L 71.2,42.1 M 79.0,21.6 C 76.6,17.5 67.2,14.600000000000001 67.1,14.500000000000002 L 67.0,14.500000000000002 C 65.2,13.600000000000001 56.0,12.500000000000002 51.9,12.200000000000003 L 51.9,18.800000000000004 C 51.9,18.800000000000004 56.4,20.300000000000004 58.199999999999996,27.700000000000003 L 61.699999999999996,20.6 L 63.3,31.8 L 68.89999999999999,21.8 L 70.49999999999999,34.1 L 75.39999999999999,26.1 L 76.1,32.1 L 79.39999999999999,26.0 C 79.5,25.5 79.3,23.4 79.0,21.6" fill="#009966" stroke="none" stroke-width="0px" /></g></svg>