<?xml version="1.0" encoding="utf-8" ?>
<svg baseProfile="full" height="100px" version="1.1" width="150px" xmlns="http://www.w3.org/2000/svg" xmlns:ev="http://www.w3.org/2001/xml-events" xmlns:xlink="http://www.w3.org/1999/xlink"><defs><clipPath id="mask0"><rect height="100" width="150" x="0" y="0" /></clipPath></defs><g clip-path="url(#mask0)"><rect fill="#003897" height="20.0" stroke="none" width="21.428571428571427" x="0.0" y="0.0" /><rect fill="#ffffff" height="20.0" stroke="none" width="21.428571428571427" x="0.0" y="20.0" /><rect fill="#003897" height="20.0" stroke="none" width="21.428571428571427" x="0.0" y="40.0" /><rect fill="#ffffff" height="20.0" stroke="none" width="21.428571428571427" x="0.0" y="60.0" /><rect fill="#003897" height="20.0" stroke="none" width="21.428571428571427" x="0.0" y="80.0" /><rect fill="#ffffff" height="20.0" stroke="none" width="21.428571428571427" x="21.428571428571427" y="0.0" /><rect fill="#003897" height="20.0" stroke="none" width="21.428571428571427" x="21.428571428571427" y="20.0" /><rect fill="#ffffff" height="20.0" stroke="none" width="21.428571428571427" x="21.428571428571427" y="40.0" /><rect fill="#003897" height="20.0" stroke="none" width="21.428571428571427" x="21.428571428571427" y="60.0" /><rect fill="#ffffff" height="20.0" stroke="none" width="21.428571428571427" x="21.428571428571427" y="80.0" /><rect fill="#003897" height="20.0" stroke="none" width="21.428571428571427" x="42.857142857142854" y="0.0" /><rect fill="#ffffff" height="20.0" stroke="none" width="21.428571428571427" x="42.857142857142854" y="20.0" /><rect fill="#003897" height="20.0" stroke="none" width="21.428571428571427" x="42.857142857142854" y="40.0" /><rect fill="#ffffff" height="20.0" stroke="none" width="21.428571428571427" x="42.857142857142854" y="60.0" /><rect fill="#003897" height="20.0" stroke="none" width="21.428571428571427" x="42.857142857142854" y="80.0" /><rect fill="#ffffff" height="20.0" stroke="none" width="21.428571428571427" x="64.28571428571429" y="0.0" /><rect fill="#003897" height="20.0" stroke="none" width="21.428571428571427" x="64.28571428571429" y="20.0" /><rect fill="#ffffff" height="20.0" stroke="none" width="21.428571428571427" x="64.28571428571429" y="40.0" /><rect fill="#003897" height="20.0" stroke="none" width="21.428571428571427" x="64.28571428571429" y="60.0" /><rect fill="#ffffff" height="20.0" stroke="none" width="21.428571428571427" x="64.28571428571429" y="80.0" /><rect fill="#003897" height="20.0" stroke="none" width="21.428571428571427" x="85.71428571428571" y="0.0" /><rect fill="#ffffff" height="20.0" stroke="none" width="21.428571428571427" x="85.71428571428571" y="20.0" /><rect fill="#003897" height="20.0" stroke="none" width="21.428571428571427" x="85.71428571428571" y="40.0" /><rect fill="#ffffff" height="20.0" stroke="none" width="21.428571428571427" x="85.71428571428571" y="60.0" /><rect fill="#003897" height="20.0" stroke="none" width="21.428571428571427" x="85.71428571428571" y="80.0" /><rect fill="#ffffff" height="20.0" stroke="none" width="21.428571428571427" x="107.14285714285714" y="0.0" /><rect fill="#003897" height="20.0" stroke="none" width="21.428571428571427" x="107.14285714285714" y="20.0" /><rect fill="#ffffff" height="20.0" stroke="none" width="21.428571428571427" x="107.14285714285714" y="40.0" /><rect fill="#003897" height="20.0" stroke="none" width="21.428571428571427" x="107.14285714285714" y="60.0" /><rect fill="#ffffff" height="20.0" stroke="none" width="21.428571428571427" x="107.14285714285714" y="80.0" /><rect fill="#003897" height="20.0" stroke="none" width="21.428571428571427" x="128.57142857142858" y="0.0" /><rect fill="#ffffff" height="20.0" stroke="none" width="21.428571428571427" x="128.57142857142858" y="20.0" /><rect fill="#003897" height="20.0" stroke="none" width="21.428571428571427" x="128.57142857142858" y="40.0" /><rect fill="#ffffff" height="20.0" stroke="none" width="21.428571428571427" x="128.57142857142858" y="60.0" /><rect fill="#003897" height="20.0" stroke="none" width="21.428571428571427" x="128.57142857142858" y="80.0" /></g><path d="M 106.7635675966484 50.0 L 88.66433409965892 55.65995250487588 L 97.46023404226737 72.46023404226737 L 80.65995250487587 63.664334099658916 L 75.0 81.7635675966484 L 69.34004749512413 63.664334099658916 L 52.539765957732634 72.46023404226737 L 61.335665900341084 55.65995250487588 L 43.2364324033516 50.00000000000001 L 61.335665900341084 44.340047495124125 L 52.53976595773263 27.539765957732634 L 69.34004749512411 36.335665900341084 L 75.0 18.236432403351603 L 80.65995250487589 36.335665900341084 L 97.46023404226736 27.539765957732627 L 88.66433409965892 44.34004749512411 z" fill="#fcdc04" stroke="none" /></svg>