<?xml version="1.0" encoding="utf-8" ?>
<svg baseProfile="full" height="100px" version="1.1" width="150px" xmlns="http://www.w3.org/2000/svg" xmlns:ev="http://www.w3.org/2001/xml-events" xmlns:xlink="http://www.w3.org/1999/xlink"><defs><clipPath id="mask0"><rect height="100" width="150" x="0" y="0" /></clipPath></defs><g clip-path="url(#mask0)"><rect fill="#d91450" height="100" stroke="none" width="150" x="0" y="0" /></g><g transform="translate(52.45373000298501, 27.45373000298501) scale(0.4509253999402998) rotate(0, 50.0, 50.0)"><path d="M 73.3,45.7 L 73.3,45.5 C 72.39999999999999,45.5 71.89999999999999,45.8 71.7,46.5 C 71.3,47.6 70.5,47.8 70.5,46.7 C 70.5,45.5 68.7,45.800000000000004 68.3,47.1 L 68.0,48.2 L 67.6,47.0 C 67.1,45.4 66.3,45.2 65.6,46.6 C 64.8,48.2 64.8,48.2 63.699999999999996,47.300000000000004 C 62.699999999999996,46.400000000000006 61.599999999999994,46.7 60.099999999999994,48.400000000000006 C 59.39999999999999,49.2 59.3,49.60000000000001 59.8,50.400000000000006 C 60.099999999999994,51.00000000000001 60.699999999999996,51.400000000000006 61.199999999999996,51.400000000000006 C 62.199999999999996,51.400000000000006 61.49999999999999,52.10000000000001 59.9,52.60000000000001 C 59.1,52.80000000000001 58.8,52.80000000000001 59.1,52.400000000000006 C 59.300000000000004,52.10000000000001 59.1,51.50000000000001 58.7,51.00000000000001 C 57.6,49.70000000000001 57.0,47.10000000000001 56.7,42.50000000000001 C 56.6,40.10000000000001 56.300000000000004,38.00000000000001 56.0,37.70000000000001 C 55.699999999999996,37.40000000000001 55.0,37.50000000000001 54.0,38.00000000000001 C 53.2,38.400000000000006 51.9,38.800000000000004 51.0,38.800000000000004 L 49.5,38.800000000000004 L 49.8,43.00000000000001 C 50.0,45.70000000000001 49.9,48.10000000000001 49.5,49.800000000000004 C 48.7,53.1 49.1,54.7 51.2,56.7 C 52.800000000000004,58.300000000000004 53.0,58.300000000000004 56.400000000000006,58.300000000000004 C 58.400000000000006,58.300000000000004 61.400000000000006,58.1 63.10000000000001,57.800000000000004 C 65.10000000000001,57.50000000000001 67.50000000000001,57.50000000000001 69.50000000000001,57.800000000000004 C 71.70000000000002,58.1 73.20000000000002,58.1 74.10000000000001,57.800000000000004 C 75.30000000000001,57.300000000000004 75.4,57.2 75.00000000000001,55.300000000000004 C 74.80000000000001,54.2 74.60000000000001,51.50000000000001 74.60000000000001,49.50000000000001 L 74.60000000000001,45.70000000000001 L 73.3,45.70000000000001 L 73.3,45.7" fill="#993332" stroke="none" stroke-width="3.0" /><path d="M 95.6,62.8 C 95.3,61.199999999999996 93.89999999999999,59.599999999999994 91.1,57.699999999999996 C 90.19999999999999,57.099999999999994 89.5,56.199999999999996 89.5,55.699999999999996 C 89.5,54.599999999999994 86.9,52.3 85.4,52.199999999999996 C 82.5,51.99999999999999 82.4,52.099999999999994 77.5,57.99999999999999 C 74.8,61.29999999999999 72.0,63.099999999999994 64.5,66.3 C 61.0,67.89999999999999 57.2,69.6 56.1,70.2 C 55.0,70.8 53.5,71.4 52.800000000000004,71.7 C 51.6,72.10000000000001 51.50000000000001,72.3 52.00000000000001,72.9 C 52.300000000000004,73.30000000000001 52.800000000000004,73.60000000000001 53.10000000000001,73.7 C 53.400000000000006,73.7 55.00000000000001,74.60000000000001 56.60000000000001,75.60000000000001 C 58.20000000000001,76.60000000000001 59.70000000000001,77.4 60.00000000000001,77.30000000000001 C 60.300000000000004,77.20000000000002 62.50000000000001,76.30000000000001 64.9,75.30000000000001 C 72.4,72.20000000000002 81.0,69.80000000000001 87.10000000000001,69.10000000000001 C 94.8,68.2 96.4,67.0 95.6,62.8 M 85.7,65.6 C 85.3,65.8 83.5,66.19999999999999 81.7,66.6 C 79.9,67.0 77.9,67.39999999999999 77.3,67.6 L 76.0,67.9 L 77.2,67.2 C 77.9,66.8 79.2,66.3 80.10000000000001,66.2 C 85.00000000000001,65.2 85.50000000000001,65.0 85.50000000000001,63.6 C 85.50000000000001,62.6 85.60000000000001,62.4 86.00000000000001,63.0 C 86.7,64.1 86.6,65.3 85.7,65.6" fill="#993332" stroke="none" stroke-width="3.0" /><path d="M 91.8,87.6 C 90.0,86.0 89.6,86.0 82.4,85.7 C 79.2,85.60000000000001 75.4,85.2 73.9,84.8 C 71.10000000000001,84.2 60.7,79.1 53.50000000000001,74.8 C 49.400000000000006,72.39999999999999 36.50000000000001,65.3 32.00000000000001,63.0 C 28.400000000000006,61.1 25.000000000000007,58.1 22.60000000000001,54.6 C 20.10000000000001,50.9 19.000000000000007,50.2 16.300000000000008,51.0 C 14.200000000000008,51.6 12.800000000000008,52.6 12.200000000000008,54.2 C 12.000000000000009,54.800000000000004 11.200000000000008,55.400000000000006 10.400000000000007,55.6 C 7.600000000000008,56.2 5.100000000000008,60.1 5.700000000000007,63.0 C 5.9000000000000075,64.9 8.100000000000007,66.1 13.200000000000006,66.8 C 15.300000000000006,67.1 20.300000000000004,68.5 24.400000000000006,69.8 C 32.00000000000001,72.39999999999999 38.10000000000001,75.3 51.900000000000006,82.89999999999999 C 59.2,86.89999999999999 62.7,88.6 66.80000000000001,90.19999999999999 C 67.60000000000001,90.49999999999999 69.4,91.79999999999998 70.70000000000002,92.99999999999999 C 78.20000000000002,99.99999999999999 81.30000000000001,101.29999999999998 84.20000000000002,98.99999999999999 C 84.90000000000002,98.49999999999999 85.90000000000002,97.19999999999999 86.50000000000001,96.29999999999998 C 87.30000000000001,94.99999999999999 87.80000000000001,94.59999999999998 88.60000000000001,94.79999999999998 C 89.80000000000001,95.09999999999998 92.2,93.99999999999999 92.80000000000001,92.69999999999999 C 93.8,90.9 93.4,88.9 91.8,87.6 M 22.6,65.7 C 21.900000000000002,65.3 20.0,64.7 18.200000000000003,64.2 C 14.100000000000003,63.1 13.800000000000002,62.900000000000006 14.700000000000003,61.800000000000004 C 15.200000000000003,61.2 15.400000000000002,61.1 15.300000000000002,61.6 C 15.200000000000003,62.1 16.200000000000003,62.6 18.300000000000004,63.300000000000004 C 21.500000000000004,64.4 24.600000000000005,65.80000000000001 24.600000000000005,66.2 C 24.6,66.6 23.9,66.4 22.6,65.7 M 82.5,95.3 C 82.4,95.6 81.7,95.89999999999999 80.9,96.0 C 79.80000000000001,96.1 78.60000000000001,95.4 75.2,92.7 C 72.8,90.8 70.7,89.3 70.5,89.3 C 70.3,89.3 70.1,89.1 70.1,88.8 C 69.89999999999999,88.0 72.6,89.7 76.0,92.6 C 78.7,95.0 79.2,95.19999999999999 80.8,95.0 C 82.1,94.8 82.6,94.9 82.5,95.3 M 86.8,90.3 C 86.39999999999999,90.3 86.0,90.1 85.8,89.8 C 85.6,89.5 85.89999999999999,89.3 86.5,89.3 C 87.10000000000001,89.3 87.5,89.5 87.5,89.8 C 87.5,90.1 87.2,90.3 86.8,90.3" fill="#993332" stroke="none" stroke-width="3.0" /><path d="M 23.0,41.6 C 23.4,42.6 24.5,44.0 25.2,44.7 C 27.3,46.7 28.5,46.0 30.0,41.6 L 31.2,38.1 L 29.4,36.2 C 27.299999999999997,34.1 26.099999999999998,30.6 25.0,23.800000000000004 C 24.2,18.700000000000003 24.1,18.200000000000003 24.7,18.200000000000003 C 24.9,18.200000000000003 25.4,19.800000000000004 25.7,21.700000000000003 C 27.5,32.300000000000004 27.8,33.300000000000004 29.599999999999998,35.300000000000004 C 30.599999999999998,36.300000000000004 31.7,37.2 31.999999999999996,37.2 C 33.0,37.2 35.4,32.800000000000004 36.699999999999996,28.900000000000002 C 37.3,26.900000000000002 38.3,24.0 38.9,22.6 C 39.5,21.1 40.699999999999996,17.900000000000002 41.6,15.3 C 42.5,12.8 43.5,10.5 43.7,10.3 C 44.300000000000004,9.700000000000001 42.2,16.3 40.6,20.200000000000003 C 39.9,21.900000000000002 38.300000000000004,26.000000000000004 37.2,29.300000000000004 C 35.7,33.50000000000001 34.6,35.900000000000006 33.300000000000004,37.5 C 31.400000000000006,39.8 30.100000000000005,43.1 30.100000000000005,45.5 C 30.100000000000005,46.2 30.700000000000006,48.1 31.500000000000004,49.7 C 33.5,54.0 36.2,55.5 41.0,55.0 C 42.3,54.9 44.0,54.5 44.6,54.1 C 46.2,53.300000000000004 47.2,52.1 48.300000000000004,49.9 C 49.400000000000006,47.8 49.400000000000006,42.199999999999996 48.300000000000004,39.599999999999994 C 47.6,37.99999999999999 44.00000000000001,34.3 43.1,34.3 C 41.7,34.3 42.5,38.599999999999994 44.4,41.4 C 47.8,46.4 43.3,52.2 37.699999999999996,49.9 C 35.599999999999994,49.0 34.49999999999999,45.8 35.3,42.5 L 35.699999999999996,40.8 L 35.699999999999996,42.599999999999994 C 35.8,45.099999999999994 36.599999999999994,46.699999999999996 38.199999999999996,47.39999999999999 C 39.599999999999994,47.99999999999999 42.3,47.69999999999999 43.4,46.79999999999999 C 44.4,45.99999999999999 44.1,42.69999999999999 43.0,41.19999999999999 C 42.5,40.499999999999986 41.9,38.79999999999999 41.7,37.39999999999999 C 41.5,35.39999999999999 41.6,34.49999999999999 42.7,32.39999999999999 C 46.400000000000006,25.09999999999999 57.2,9.399999999999991 57.900000000000006,10.199999999999992 C 58.00000000000001,10.299999999999992 56.900000000000006,12.099999999999993 55.50000000000001,13.999999999999993 C 52.300000000000004,18.199999999999992 45.80000000000001,28.099999999999994 44.400000000000006,30.999999999999993 C 43.10000000000001,33.599999999999994 43.60000000000001,33.99999999999999 46.800000000000004,33.29999999999999 C 52.300000000000004,31.99999999999999 54.800000000000004,30.19999999999999 56.10000000000001,26.39999999999999 C 56.900000000000006,24.09999999999999 57.10000000000001,25.199999999999992 56.400000000000006,28.09999999999999 C 55.60000000000001,31.29999999999999 54.60000000000001,32.19999999999999 50.10000000000001,33.49999999999999 C 45.900000000000006,34.79999999999999 45.900000000000006,34.79999999999999 46.20000000000001,35.599999999999994 C 46.40000000000001,36.199999999999996 47.50000000000001,36.3 51.30000000000001,36.3 L 56.10000000000001,36.3 L 56.900000000000006,38.099999999999994 C 57.300000000000004,39.099999999999994 58.50000000000001,40.89999999999999 59.60000000000001,42.099999999999994 C 60.60000000000001,43.3 61.50000000000001,44.39999999999999 61.50000000000001,44.699999999999996 C 61.50000000000001,44.9 61.900000000000006,45.099999999999994 62.50000000000001,45.099999999999994 C 63.10000000000001,45.099999999999994 63.60000000000001,44.699999999999996 63.800000000000004,43.89999999999999 C 64.2,42.39999999999999 64.80000000000001,42.29999999999999 65.2,43.69999999999999 C 65.4,44.19999999999999 65.8,44.69999999999999 66.3,44.69999999999999 C 66.8,44.69999999999999 67.2,44.29999999999999 67.3,43.69999999999999 C 67.39999999999999,43.19999999999999 67.7,42.69999999999999 68.0,42.69999999999999 C 68.2,42.69999999999999 68.5,43.09999999999999 68.7,43.69999999999999 C 69.10000000000001,44.89999999999999 70.2,44.999999999999986 70.9,43.79999999999999 C 71.4,42.99999999999999 71.4,42.99999999999999 71.9,43.79999999999999 C 72.5,44.79999999999999 73.7,44.89999999999999 74.10000000000001,43.99999999999999 C 74.2,43.599999999999994 74.00000000000001,42.49999999999999 73.60000000000001,41.39999999999999 C 73.10000000000001,40.29999999999999 72.80000000000001,38.29999999999999 72.80000000000001,36.79999999999999 C 72.9,33.59999999999999 72.20000000000002,32.79999999999999 70.80000000000001,34.49999999999999 L 70.00000000000001,35.49999999999999 L 70.00000000000001,34.29999999999999 C 70.00000000000001,33.59999999999999 70.30000000000001,31.89999999999999 70.80000000000001,30.39999999999999 L 71.60000000000001,27.699999999999992 L 69.9,24.39999999999999 C 68.4,21.39999999999999 68.2,20.79999999999999 68.5,18.09999999999999 C 68.7,15.399999999999991 68.6,14.899999999999991 67.5,13.399999999999991 C 66.8,12.499999999999991 65.9,10.999999999999991 65.4,10.199999999999992 C 63.900000000000006,7.5999999999999925 59.400000000000006,3.5999999999999925 55.800000000000004,1.7999999999999918 L 52.2,0.0 L 45.6,0.0 C 39.6,0.0 38.6,0.2 35.2,1.4 C 29.900000000000002,3.3 23.700000000000003,7.9 20.800000000000004,12.1 C 18.600000000000005,15.2 17.900000000000006,18.6 17.900000000000006,25.2 L 17.900000000000006,31.1 L 20.000000000000007,35.4 C 21.2,37.9 22.5,40.7 23.0,41.6 M 61.9,20.7 C 62.699999999999996,20.7 64.6,24.799999999999997 64.6,26.6 C 64.6,28.400000000000002 63.49999999999999,30.700000000000003 62.39999999999999,31.1 C 61.89999999999999,31.3 61.39999999999999,31.0 60.89999999999999,30.3 C 60.49999999999999,29.7 60.099999999999994,28.3 59.99999999999999,27.1 C 59.8,24.8 61.0,20.7 61.9,20.7 M 44.4,8.5 C 44.8,6.9 47.0,3.5 47.4,3.8 C 47.6,4.0 47.4,4.5 47.0,5.0 C 46.6,5.5 45.8,6.7 45.2,7.8 C 44.5,9.0 44.3,9.3 44.4,8.5" fill="#993332" stroke="none" stroke-width="3.0" /><path d="M 45.6,80.5 C 44.1,79.7 42.4,78.7 41.800000000000004,78.3 C 40.7,77.6 40.400000000000006,77.7 36.400000000000006,79.5 C 28.000000000000007,83.4 24.000000000000007,84.1 15.400000000000006,83.3 C 10.600000000000005,82.89999999999999 10.000000000000005,82.89999999999999 7.900000000000006,83.8 C 5.400000000000006,84.89999999999999 4.7000000000000055,86.3 5.400000000000006,88.89999999999999 C 6.000000000000005,90.39999999999999 6.400000000000006,90.69999999999999 9.100000000000005,91.69999999999999 C 10.300000000000004,92.1 11.000000000000005,92.79999999999998 11.600000000000005,94.39999999999999 C 13.200000000000005,98.19999999999999 16.700000000000003,98.99999999999999 21.300000000000004,96.6 C 22.800000000000004,95.8 25.500000000000004,94.1 27.400000000000006,92.69999999999999 C 29.500000000000007,91.19999999999999 32.900000000000006,89.29999999999998 35.900000000000006,88.1 C 45.7,84.1 48.50000000000001,82.8 48.400000000000006,82.39999999999999 C 48.3,82.2 47.1,81.3 45.6,80.5 M 13.0,86.8 C 12.1,87.39999999999999 11.0,87.39999999999999 11.3,86.8 C 11.5,86.5 12.100000000000001,86.3 12.700000000000001,86.3 C 13.6,86.3 13.6,86.4 13.0,86.8 M 19.9,93.6 C 18.599999999999998,94.69999999999999 16.5,95.0 16.2,94.0 C 15.1,90.5 14.899999999999999,89.6 15.1,89.4 C 15.2,89.30000000000001 15.799999999999999,90.2 16.4,91.4 C 17.4,93.7 17.5,93.80000000000001 20.099999999999998,92.9 C 20.9,92.6 20.9,92.7 19.9,93.6" fill="#993332" stroke="none" stroke-width="3.0" /></g></svg>