<?xml version="1.0" encoding="utf-8" ?>
<svg baseProfile="full" height="100px" version="1.1" width="150px" xmlns="http://www.w3.org/2000/svg" xmlns:ev="http://www.w3.org/2001/xml-events" xmlns:xlink="http://www.w3.org/1999/xlink"><defs><clipPath id="mask0"><rect height="100" width="150" x="0" y="0" /></clipPath></defs><g clip-path="url(#mask0)"><rect fill="#6f1aa5" height="100" stroke="none" width="150" x="0" y="0" /></g><g transform="translate(22.5, 35.0) scale(0.3) rotate(0, 50.0, 50.0)"><path d="M 93.3,25.0 L 64.4,25.0 L 50.0,0.0 L 35.6,25.0 L 6.7,25.0 L 21.1,50.0 L 6.7,75.0 L 35.6,75.0 L 50.0,100.0 L 64.4,75.0 L 93.30000000000001,75.0 L 78.9,50.0 L 93.3,25.0 M 79.6,32.9 L 74.3,42.0 L 69.0,32.9 L 79.6,32.9 M 50.0,15.9 L 55.3,25.0 L 44.8,25.0 L 50.0,15.9 M 20.4,32.9 L 31.0,32.9 L 25.7,42.0 L 20.4,32.9 M 20.4,67.1 L 25.7,57.99999999999999 L 31.0,67.1 L 20.4,67.1 M 50.0,84.1 L 44.7,75.0 L 55.2,75.0 L 50.0,84.1 M 59.9,67.1 L 40.1,67.1 L 30.3,50.0 L 40.2,32.9 L 59.900000000000006,32.9 L 69.7,50.0 L 59.9,67.1 M 79.6,67.1 L 69.0,67.1 L 74.3,57.99999999999999 L 79.6,67.1" fill="#fcdc04" stroke="none" stroke-width="2.0px" /></g><g transform="translate(60.0, 35.0) scale(0.3) rotate(0, 50.0, 50.0)"><path d="M 93.3,25.0 L 64.4,25.0 L 50.0,0.0 L 35.6,25.0 L 6.7,25.0 L 21.1,50.0 L 6.7,75.0 L 35.6,75.0 L 50.0,100.0 L 64.4,75.0 L 93.30000000000001,75.0 L 78.9,50.0 L 93.3,25.0 M 79.6,32.9 L 74.3,42.0 L 69.0,32.9 L 79.6,32.9 M 50.0,15.9 L 55.3,25.0 L 44.8,25.0 L 50.0,15.9 M 20.4,32.9 L 31.0,32.9 L 25.7,42.0 L 20.4,32.9 M 20.4,67.1 L 25.7,57.99999999999999 L 31.0,67.1 L 20.4,67.1 M 50.0,84.1 L 44.7,75.0 L 55.2,75.0 L 50.0,84.1 M 59.9,67.1 L 40.1,67.1 L 30.3,50.0 L 40.2,32.9 L 59.900000000000006,32.9 L 69.7,50.0 L 59.9,67.1 M 79.6,67.1 L 69.0,67.1 L 74.3,57.99999999999999 L 79.6,67.1" fill="#ffffff" stroke="none" stroke-width="2.0px" /></g><g transform="translate(97.5, 35.0) scale(0.3) rotate(0, 50.0, 50.0)"><path d="M 93.3,25.0 L 64.4,25.0 L 50.0,0.0 L 35.6,25.0 L 6.7,25.0 L 21.1,50.0 L 6.7,75.0 L 35.6,75.0 L 50.0,100.0 L 64.4,75.0 L 93.30000000000001,75.0 L 78.9,50.0 L 93.3,25.0 M 79.6,32.9 L 74.3,42.0 L 69.0,32.9 L 79.6,32.9 M 50.0,15.9 L 55.3,25.0 L 44.8,25.0 L 50.0,15.9 M 20.4,32.9 L 31.0,32.9 L 25.7,42.0 L 20.4,32.9 M 20.4,67.1 L 25.7,57.99999999999999 L 31.0,67.1 L 20.4,67.1 M 50.0,84.1 L 44.7,75.0 L 55.2,75.0 L 50.0,84.1 M 59.9,67.1 L 40.1,67.1 L 30.3,50.0 L 40.2,32.9 L 59.900000000000006,32.9 L 69.7,50.0 L 59.9,67.1 M 79.6,67.1 L 69.0,67.1 L 74.3,57.99999999999999 L 79.6,67.1" fill="#ff0032" stroke="none" stroke-width="3.0px" /></g></svg>