<?xml version="1.0" encoding="utf-8" ?>
<svg baseProfile="full" height="100px" version="1.1" width="150px" xmlns="http://www.w3.org/2000/svg" xmlns:ev="http://www.w3.org/2001/xml-events" xmlns:xlink="http://www.w3.org/1999/xlink"><defs><clipPath id="mask0"><rect height="100" width="150" x="0" y="0" /></clipPath></defs><g clip-path="url(#mask0)"><rect fill="#0046ae" height="100" stroke="none" width="150" x="0" y="0" /></g><g transform="translate(22.5, 35.0) scale(0.3) rotate(0, 50.0, 50.0)"><path d="M 75.1,50.0 L 100.0,75.0 L 75.1,100.0 L 50.3,75.0 L 25.4,100.0 L 0.5,75.0 L 25.4,50.0 L 0.5,25.0 L 25.4,0.0 L 50.3,25.0 L 75.1,0.0 L 100.0,25.0 L 75.1,50.0" fill="#ff0000" stroke="none" stroke-width="3.0px" /></g><g transform="translate(60.0, 35.0) scale(0.3) rotate(0, 50.0, 50.0)"><path d="M 75.1,50.0 L 100.0,75.0 L 75.1,100.0 L 50.3,75.0 L 25.4,100.0 L 0.5,75.0 L 25.4,50.0 L 0.5,25.0 L 25.4,0.0 L 50.3,25.0 L 75.1,0.0 L 100.0,25.0 L 75.1,50.0" fill="#000000" stroke="none" stroke-width="2.0px" /></g><g transform="translate(97.5, 35.0) scale(0.3) rotate(0, 50.0, 50.0)"><path d="M 75.1,50.0 L 100.0,75.0 L 75.1,100.0 L 50.3,75.0 L 25.4,100.0 L 0.5,75.0 L 25.4,50.0 L 0.5,25.0 L 25.4,0.0 L 50.3,25.0 L 75.1,0.0 L 100.0,25.0 L 75.1,50.0" fill="#ffffff" stroke="none" stroke-width="3.0px" /></g></svg>