<?xml version="1.0" encoding="utf-8" ?>
<svg baseProfile="full" height="100px" version="1.1" width="150px" xmlns="http://www.w3.org/2000/svg" xmlns:ev="http://www.w3.org/2001/xml-events" xmlns:xlink="http://www.w3.org/1999/xlink"><defs><clipPath id="mask0"><rect height="100" width="150" x="0" y="0" /></clipPath></defs><g clip-path="url(#mask0)"><path d="M0,0 L0.0,150.0 L106.06601717798213,106.06601717798213 z" fill="#007934" stroke="none" transform="translate(75.0, 50.0)" /><path d="M0,0 L106.06601717798213,106.06601717798213 L150.0,9.184850993605149e-15 z" fill="#003897" stroke="none" transform="translate(75.0, 50.0)" /><path d="M0,0 L150.0,9.184850993605149e-15 L106.06601717798213,-106.06601717798212 z" fill="#630356" stroke="none" transform="translate(75.0, 50.0)" /><path d="M0,0 L106.06601717798213,-106.06601717798212 L1.8369701987210297e-14,-150.0 z" fill="#784f16" stroke="none" transform="translate(75.0, 50.0)" /><path d="M0,0 L1.8369701987210297e-14,-150.0 L-106.06601717798212,-106.06601717798215 z" fill="#cc0000" stroke="none" transform="translate(75.0, 50.0)" /><path d="M0,0 L-106.06601717798212,-106.06601717798215 L-150.0,-2.7554552980815446e-14 z" fill="#ff9932" stroke="none" transform="translate(75.0, 50.0)" /><path d="M0,0 L-150.0,-2.7554552980815446e-14 L-106.06601717798215,106.0660171779821 z" fill="#d0a650" stroke="none" transform="translate(75.0, 50.0)" /><path d="M0,0 L-106.06601717798215,106.0660171779821 L-3.6739403974420595e-14,150.0 z" fill="#339933" stroke="none" transform="translate(75.0, 50.0)" /></g><g id="empty" /></svg>