<?xml version="1.0" encoding="utf-8" ?>
<svg baseProfile="full" height="100px" version="1.1" width="150px" xmlns="http://www.w3.org/2000/svg" xmlns:ev="http://www.w3.org/2001/xml-events" xmlns:xlink="http://www.w3.org/1999/xlink"><defs><clipPath id="mask0"><rect height="100" width="150" x="0" y="0" /></clipPath></defs><g clip-path="url(#mask0)"><rect fill="#ffffff" height="100" stroke="none" width="150" x="0" y="0" /><rect fill="none" height="78.99388558906297" stroke="#0039a6" stroke-width="21.006114410937034" width="128.99388558906296" x="10.503057205468517" y="10.503057205468517" /><rect fill="none" height="89.95903853310726" stroke="#cc0033" stroke-width="10.040961466892744" width="139.95903853310725" x="5.020480733446372" y="5.020480733446372" /></g><g transform="translate(41.65795131899705, 16.65795131899705) scale(0.666840973620059) rotate(0, 50.0, 50.0)"><path d="M 67.1,0.0 L 67.1,7.6 L 79.5,7.6 L 66.1,21.1 C 61.5,17.9 56.0,16.0 50.0,16.0 C 44.0,16.0 38.5,17.9 34.0,21.1 L 32.0,19.1 L 37.7,13.400000000000002 L 32.0,7.700000000000002 L 26.3,13.400000000000002 L 20.6,7.700000000000002 L 26.3,7.700000000000002 L 26.3,0.0 L 7.300000000000001,0.0 L 7.300000000000001,19.0 L 14.9,19.0 L 14.9,13.3 L 20.6,19.0 L 14.900000000000002,24.7 L 20.6,30.4 L 26.3,24.7 L 28.2,26.599999999999998 C 24.4,31.4 22.2,37.4 22.2,43.9 C 22.2,57.9 32.4,69.5 45.9,71.5 L 45.9,81.4 L 34.9,81.4 L 34.9,90.0 L 45.9,90.0 L 45.9,100.0 L 54.5,100.0 L 54.5,90.0 L 65.5,90.0 L 65.5,81.4 L 54.5,81.4 L 54.5,71.5 C 67.7,69.5 78.0,57.9 78.0,43.9 C 78.0,37.4 75.8,31.4 72.0,26.599999999999998 L 85.3,13.299999999999997 L 85.3,25.699999999999996 L 92.89999999999999,25.699999999999996 L 92.89999999999999,0.0 L 67.1,0.0 M 50.0,63.8 C 39.0,63.8 30.0,54.8 30.0,43.8 C 30.0,32.8 39.0,23.799999999999997 50.0,23.799999999999997 C 61.0,23.799999999999997 70.0,32.8 70.0,43.8 C 70.0,54.8 61.0,63.8 50.0,63.8" fill="#ffce00" stroke="none" stroke-width="2.0px" /></g></svg>