<?xml version="1.0" encoding="utf-8" ?>
<svg baseProfile="full" height="100px" version="1.1" width="150px" xmlns="http://www.w3.org/2000/svg" xmlns:ev="http://www.w3.org/2001/xml-events" xmlns:xlink="http://www.w3.org/1999/xlink"><defs><clipPath id="mask0"><rect height="100" width="150" x="0" y="0" /></clipPath><clipPath id="mask1"><rect height="50.0" width="75.0" x="0" y="0" /></clipPath></defs><g clip-path="url(#mask0)"><rect fill="#ff3333" height="100" stroke="none" width="150" x="0" y="0" /></g><g clip-path="url(#mask1)"><path d="M0,50.0 L75.0,0 L75.0,50.0 z" fill="#000000" stroke="none" /><path d="M0,50.0 L75.0,0 L0,0 z" fill="#339933" stroke="none" /></g><g id="empty" /><g transform="translate(85.27498207648065, 22.77498207648066) scale(0.5445003584703868) rotate(0, 50.0, 50.0)"><path d="M 77.4,93.8 L 52.50000000000001,95.6 L 27.60000000000001,93.8 L 27.60000000000001,44.4 L 77.30000000000001,44.4 L 77.4,93.8" fill="#61b1a2" stroke="none" stroke-width="0px" /><path d="M 64.4,82.5 C 63.50000000000001,83.2 62.7,83.9 62.00000000000001,84.8 L 61.2,84.0 C 60.6,83.4 59.2,83.4 58.400000000000006,83.9 C 56.00000000000001,85.10000000000001 54.60000000000001,88.10000000000001 53.900000000000006,90.7 L 52.7,95.3 L 77.0,94.7 L 78.4,90.9 L 78.9,90.7 C 78.9,90.7 76.80000000000001,85.10000000000001 74.4,83.9 C 73.60000000000001,83.5 72.2,83.5 71.60000000000001,84.0 L 70.80000000000001,84.8 C 70.10000000000001,84.0 69.30000000000001,83.2 68.4,82.5 L 64.4,82.5" fill="#000000" stroke="none" stroke-width="0px" /><path d="M 75.3,61.7 L 75.3,65.5 L 74.2,65.5 L 74.2,64.7 L 67.60000000000001,64.7 L 67.60000000000001,80.4 L 65.4,80.4 L 65.4,64.7 L 58.800000000000004,64.7 L 58.800000000000004,65.5 L 57.7,65.5 L 57.7,61.7 L 58.800000000000004,61.7 L 58.800000000000004,62.5 L 65.4,62.5 L 65.4,58.0 L 60.300000000000004,58.0 L 60.300000000000004,58.7 L 59.2,58.7 L 59.2,54.800000000000004 L 60.300000000000004,54.800000000000004 L 60.300000000000004,55.7 L 65.4,55.7 L 65.4,50.800000000000004 L 64.60000000000001,50.800000000000004 L 64.60000000000001,49.7 L 68.4,49.7 L 68.4,50.800000000000004 L 67.60000000000001,50.800000000000004 L 67.60000000000001,55.7 L 72.60000000000001,55.7 L 72.60000000000001,54.900000000000006 L 73.7,54.900000000000006 L 73.7,58.7 L 72.60000000000001,58.7 L 72.60000000000001,58.0 L 67.60000000000001,58.0 L 67.60000000000001,62.5 L 74.10000000000001,62.5 L 74.10000000000001,61.7 L 75.3,61.7 M 26.0,12.6 C 25.2,12.6 24.6,13.299999999999999 24.6,14.1 L 24.6,14.1 C 24.6,14.9 25.200000000000003,15.6 26.0,15.6 C 26.799999999999997,15.6 27.4,14.9 27.4,14.1 L 27.4,14.1 C 27.4,13.3 26.8,12.6 26.0,12.6 M 20.5,26.4 C 19.7,26.4 19.1,27.099999999999998 19.1,27.9 L 19.1,27.9 C 19.1,28.7 19.700000000000003,29.4 20.5,29.4 C 21.3,29.4 21.9,28.7 21.9,27.9 L 21.9,27.9 C 21.9,27.0 21.3,26.4 20.5,26.4 M 21.1,22.7 L 21.1,22.7 C 21.1,21.9 20.5,21.2 19.700000000000003,21.2 C 18.900000000000002,21.2 18.300000000000004,21.9 18.300000000000004,22.7 L 18.300000000000004,22.7 C 18.300000000000004,23.5 18.900000000000006,24.2 19.700000000000003,24.2 C 20.5,24.2 21.1,23.5 21.1,22.7 M 21.3,16.1 C 20.5,16.1 19.900000000000002,16.8 19.900000000000002,17.6 L 19.900000000000002,17.6 C 19.900000000000002,18.400000000000002 20.500000000000004,19.1 21.3,19.1 C 22.099999999999998,19.1 22.7,18.400000000000002 22.7,17.6 L 22.7,17.6 C 22.7,16.7 22.1,16.1 21.3,16.1 M 31.3,13.4 C 32.1,13.4 32.7,12.700000000000001 32.7,11.9 L 32.7,11.9 C 32.7,11.1 32.1,10.4 31.300000000000004,10.4 C 30.500000000000007,10.4 29.900000000000006,11.1 29.900000000000006,11.9 L 29.900000000000006,11.9 C 29.9,12.8 30.5,13.4 31.3,13.4 M 36.8,11.8 C 37.599999999999994,11.8 38.199999999999996,11.100000000000001 38.199999999999996,10.3 L 38.199999999999996,10.3 C 38.199999999999996,9.5 37.599999999999994,8.8 36.8,8.8 C 36.0,8.8 35.4,9.5 35.4,10.3 L 35.4,10.3 C 35.3,11.2 36.0,11.8 36.8,11.8 M 42.2,10.7 C 43.0,10.7 43.6,10.0 43.6,9.2 L 43.6,9.2 C 43.6,8.399999999999999 43.0,7.699999999999999 42.2,7.699999999999999 C 41.400000000000006,7.699999999999999 40.800000000000004,8.399999999999999 40.800000000000004,9.2 L 40.800000000000004,9.2 C 40.8,10.1 41.4,10.7 42.2,10.7 M 47.6,10.0 C 48.4,10.0 49.0,9.3 49.0,8.5 L 49.0,8.5 C 49.0,7.7 48.4,7.0 47.6,7.0 C 46.800000000000004,7.0 46.2,7.7 46.2,8.5 L 46.2,8.5 C 46.2,9.4 46.8,10.0 47.6,10.0 M 27.5,95.8 L 52.4,95.8 L 52.4,88.2 L 27.5,88.2 L 27.5,95.8 M 27.5,56.7 L 52.4,56.7 L 52.4,50.800000000000004 L 27.5,50.800000000000004 L 27.5,56.7 M 27.5,81.4 L 52.4,81.4 L 52.4,75.5 L 27.5,75.5 L 27.5,81.4 M 27.5,68.8 L 52.4,68.8 L 52.4,62.9 L 27.5,62.9 L 27.5,68.8 M 79.8,12.6 C 79.0,12.6 78.39999999999999,13.299999999999999 78.39999999999999,14.1 L 78.39999999999999,14.1 C 78.39999999999999,14.9 78.99999999999999,15.6 79.8,15.6 C 80.60000000000001,15.6 81.2,14.9 81.2,14.1 L 81.2,14.1 C 81.3,13.3 80.6,12.6 79.8,12.6 M 85.3,26.4 C 84.5,26.4 83.89999999999999,27.099999999999998 83.89999999999999,27.9 L 83.89999999999999,27.9 C 83.89999999999999,28.7 84.49999999999999,29.4 85.3,29.4 C 86.1,29.4 86.7,28.7 86.7,27.9 L 86.7,27.9 C 86.7,27.0 86.1,26.4 85.3,26.4 M 86.1,21.2 C 85.3,21.2 84.69999999999999,21.9 84.69999999999999,22.7 L 84.69999999999999,22.7 C 84.69999999999999,23.5 85.29999999999998,24.2 86.1,24.2 C 86.89999999999999,24.2 87.5,23.5 87.5,22.7 L 87.5,22.7 C 87.6,21.9 86.9,21.2 86.1,21.2 M 86.0,17.6 L 86.0,17.6 C 86.0,16.8 85.4,16.1 84.6,16.1 C 83.8,16.1 83.19999999999999,16.8 83.19999999999999,17.6 L 83.19999999999999,17.6 C 83.19999999999999,18.400000000000002 83.79999999999998,19.1 84.6,19.1 C 85.4,19.1 86.0,18.4 86.0,17.6 M 74.5,10.5 C 73.7,10.5 73.1,11.2 73.1,12.0 L 73.1,12.0 C 73.1,12.8 73.69999999999999,13.5 74.5,13.5 C 75.3,13.5 75.9,12.8 75.9,12.0 L 75.9,12.0 C 75.9,11.1 75.3,10.5 74.5,10.5 M 69.0,11.8 C 69.8,11.8 70.4,11.100000000000001 70.4,10.3 L 70.4,10.3 C 70.4,9.5 69.80000000000001,8.8 69.0,8.8 C 68.2,8.8 67.6,9.5 67.6,10.3 L 67.6,10.3 C 67.6,11.1 68.2,11.8 69.0,11.8 M 63.6,10.7 C 64.4,10.7 65.0,10.0 65.0,9.2 L 65.0,9.2 C 65.0,8.399999999999999 64.4,7.699999999999999 63.6,7.699999999999999 C 62.800000000000004,7.699999999999999 62.2,8.399999999999999 62.2,9.2 L 62.2,9.2 C 62.2,10.1 62.8,10.7 63.6,10.7 M 59.6,8.5 L 59.6,8.5 C 59.6,7.7 59.0,7.0 58.2,7.0 C 57.400000000000006,7.0 56.800000000000004,7.7 56.800000000000004,8.5 L 56.800000000000004,8.5 C 56.800000000000004,9.3 57.400000000000006,10.0 58.2,10.0 C 59.0,10.0 59.6,9.4 59.6,8.5" fill="#ffffff" stroke="none" stroke-width="0px" /><path d="M 68.3,80.5 L 68.3,82.6 L 64.5,82.6 L 64.5,80.39999999999999 L 64.0,79.9 L 64.2,79.60000000000001 L 65.0,80.30000000000001 L 66.2,80.30000000000001 L 66.2,79.4 L 66.60000000000001,79.4 L 66.60000000000001,80.30000000000001 L 67.9,80.30000000000001 L 68.5,79.70000000000002 L 68.8,80.00000000000001 L 68.3,80.5 M 83.5,26.9 L 75.2,42.2 L 79.60000000000001,42.2 L 79.60000000000001,90.9 C 79.60000000000001,93.4 78.10000000000001,96.10000000000001 74.9,96.10000000000001 L 55.1,96.10000000000001 C 54.9,96.30000000000001 53.300000000000004,98.10000000000001 53.300000000000004,98.10000000000001 L 52.50000000000001,99.10000000000001 L 49.900000000000006,96.10000000000001 L 30.100000000000005,96.10000000000001 C 26.900000000000006,96.10000000000001 25.400000000000006,93.4 25.400000000000006,90.9 L 25.400000000000006,42.1 L 31.100000000000005,42.1 L 22.500000000000007,26.8 C 21.800000000000008,25.900000000000002 22.000000000000007,23.3 22.300000000000008,21.200000000000003 C 22.300000000000008,17.700000000000003 29.10000000000001,14.800000000000002 34.80000000000001,13.000000000000004 C 38.30000000000001,11.900000000000004 48.40000000000001,10.700000000000003 52.000000000000014,10.500000000000004 L 48.600000000000016,5.100000000000003 L 46.80000000000002,6.300000000000003 L 45.90000000000002,5.100000000000003 L 47.70000000000002,3.8000000000000034 L 46.40000000000002,1.7000000000000033 L 47.8,1.0 L 49.099999999999994,3.0 L 50.8,1.8 L 51.699999999999996,3.0 L 49.9,4.2 L 53.8,10.5 C 57.3,10.7 68.1,11.9 70.5,13.0 C 71.4,13.3 80.8,16.3 83.3,20.8 L 83.39999999999999,20.900000000000002 L 83.39999999999999,21.000000000000004 C 84.1,25.6 83.7,26.6 83.5,26.9 M 26.7,25.9 L 32.6,34.0 L 33.5,21.9 L 39.3,30.799999999999997 L 41.199999999999996,20.999999999999996 L 44.3,27.699999999999996 C 45.099999999999994,21.299999999999997 50.8,18.699999999999996 50.8,18.699999999999996 L 50.8,12.199999999999996 C 46.599999999999994,12.599999999999996 38.199999999999996,13.599999999999996 35.199999999999996,14.499999999999996 C 27.999999999999996,16.699999999999996 23.599999999999994,19.299999999999997 23.699999999999996,21.299999999999997 L 23.699999999999996,21.4 L 23.699999999999996,21.5 C 23.399999999999995,23.5 23.299999999999997,25.5 23.499999999999996,26.0 L 23.599999999999998,26.1 L 23.7,26.200000000000003 L 26.5,31.300000000000004 L 26.7,25.9 M 77.4,44.4 L 27.60000000000001,44.4 L 27.60000000000001,90.9 C 27.60000000000001,91.4 27.70000000000001,93.80000000000001 30.000000000000007,93.80000000000001 L 49.80000000000001,93.80000000000001 C 50.40000000000001,93.80000000000001 51.10000000000001,94.10000000000001 51.500000000000014,94.60000000000001 L 52.40000000000001,95.7 C 52.80000000000001,95.2 53.30000000000001,94.7 53.40000000000001,94.60000000000001 C 53.80000000000001,94.10000000000001 54.40000000000001,93.9 55.100000000000016,93.9 L 74.90000000000002,93.9 C 77.30000000000003,93.9 77.30000000000003,91.30000000000001 77.30000000000003,91.0 L 77.30000000000003,44.4 L 77.4,44.4 M 74.1,42.1 C 72.89999999999999,41.5 65.0,37.7 60.199999999999996,37.7 L 46.1,37.7 C 41.4,37.7 35.5,39.6 32.2,42.1 L 74.1,42.1 M 81.9,21.6 C 79.5,17.5 70.10000000000001,14.600000000000001 70.0,14.500000000000002 L 69.9,14.500000000000002 C 68.10000000000001,13.600000000000001 58.900000000000006,12.500000000000002 54.800000000000004,12.200000000000003 L 54.800000000000004,18.800000000000004 C 54.800000000000004,18.800000000000004 59.300000000000004,20.300000000000004 61.1,27.700000000000003 L 64.6,20.6 L 66.19999999999999,31.8 L 71.79999999999998,21.8 L 73.39999999999998,34.1 L 78.29999999999998,26.1 L 78.99999999999999,32.1 L 82.29999999999998,26.0 C 82.4,25.5 82.2,23.4 81.9,21.6" fill="#003265" stroke="none" stroke-width="0px" /></g></svg>