<?xml version="1.0" encoding="utf-8" ?>
<svg baseProfile="full" height="100px" version="1.1" width="150px" xmlns="http://www.w3.org/2000/svg" xmlns:ev="http://www.w3.org/2001/xml-events" xmlns:xlink="http://www.w3.org/1999/xlink"><defs><clipPath id="mask0"><rect height="100" width="150" x="0" y="0" /></clipPath></defs><g clip-path="url(#mask0)"><rect fill="#cc3200" height="100" stroke="none" width="150" x="0" y="0" /></g><g transform="translate(23.21994249491012, 35.71994249491012) scale(0.2856011501017976) rotate(0, 50.0, 50.0)"><path d="M 44.2,5.8 C 44.2,4.3 44.800000000000004,2.8 45.900000000000006,1.7000000000000002 C 47.0,0.6 48.5,0.0 50.0,0.0 C 51.5,0.0 53.0,0.6 54.1,1.7 C 55.2,2.8 55.800000000000004,4.3 55.800000000000004,5.8 C 57.300000000000004,5.8 58.800000000000004,6.3999999999999995 59.900000000000006,7.5 C 61.00000000000001,8.6 61.60000000000001,10.1 61.60000000000001,11.6 C 61.60000000000001,13.1 61.00000000000001,14.6 59.900000000000006,15.7 C 58.800000000000004,16.8 57.300000000000004,17.4 55.800000000000004,17.4 L 55.800000000000004,31.599999999999998 L 70.0,31.599999999999998 C 70.0,30.099999999999998 70.6,28.599999999999998 71.7,27.5 C 72.8,26.4 74.3,25.8 75.8,25.8 C 77.3,25.8 78.8,26.400000000000002 79.89999999999999,27.5 C 80.99999999999999,28.6 81.6,30.1 81.6,31.6 C 83.1,31.6 84.6,32.2 85.69999999999999,33.300000000000004 C 86.79999999999998,34.400000000000006 87.39999999999999,35.900000000000006 87.39999999999999,37.400000000000006 C 87.39999999999999,38.900000000000006 86.8,40.400000000000006 85.69999999999999,41.50000000000001 C 84.6,42.60000000000001 83.1,43.20000000000001 81.6,43.20000000000001 C 81.6,44.70000000000001 81.0,46.20000000000001 79.89999999999999,47.30000000000001 C 78.8,48.40000000000001 77.3,49.000000000000014 75.8,49.000000000000014 C 74.3,49.000000000000014 72.8,48.40000000000001 71.7,47.30000000000001 C 70.60000000000001,46.20000000000001 70.0,44.70000000000001 70.0,43.20000000000001 L 55.8,43.20000000000001 L 55.8,82.4 C 57.3,82.4 58.8,83.0 59.9,84.10000000000001 C 61.0,85.2 61.6,86.7 61.6,88.2 C 61.6,89.7 61.0,91.2 59.9,92.3 C 58.8,93.39999999999999 57.3,94.0 55.8,94.0 C 55.8,95.5 55.199999999999996,97.0 54.099999999999994,98.1 C 52.99999999999999,99.19999999999999 51.5,100.0 50.0,100.0 C 48.5,100.0 47.0,99.4 45.9,98.3 C 44.8,97.2 44.199999999999996,95.7 44.199999999999996,94.2 C 42.699999999999996,94.2 41.199999999999996,93.60000000000001 40.099999999999994,92.5 C 38.99999999999999,91.4 38.39999999999999,89.9 38.39999999999999,88.4 C 38.39999999999999,86.9 38.99999999999999,85.4 40.099999999999994,84.30000000000001 C 41.199999999999996,83.20000000000002 42.699999999999996,82.60000000000001 44.199999999999996,82.60000000000001 L 44.199999999999996,43.3 L 30.0,43.3 C 30.0,44.8 29.4,46.3 28.3,47.4 C 27.2,48.5 25.7,49.1 24.200000000000003,49.1 C 22.700000000000003,49.1 21.200000000000003,48.5 20.1,47.4 C 19.0,46.3 18.400000000000002,44.8 18.400000000000002,43.3 C 16.900000000000002,43.3 15.400000000000002,42.699999999999996 14.300000000000002,41.599999999999994 C 13.200000000000003,40.49999999999999 12.600000000000003,38.99999999999999 12.600000000000003,37.49999999999999 C 12.600000000000003,35.99999999999999 13.200000000000003,34.49999999999999 14.300000000000002,33.39999999999999 C 15.400000000000002,32.29999999999999 16.900000000000002,31.699999999999992 18.400000000000002,31.699999999999992 C 18.400000000000002,30.199999999999992 19.000000000000004,28.699999999999992 20.1,27.599999999999994 C 21.200000000000003,26.499999999999993 22.700000000000003,25.899999999999995 24.200000000000003,25.899999999999995 C 25.700000000000003,25.899999999999995 27.200000000000003,26.499999999999996 28.300000000000004,27.599999999999994 C 29.400000000000006,28.699999999999996 30.000000000000004,30.199999999999996 30.000000000000004,31.699999999999996 L 44.2,31.699999999999996 L 44.2,17.5 C 42.7,17.5 41.2,16.9 40.1,15.8 C 39.0,14.700000000000003 38.4,13.200000000000001 38.4,11.700000000000001 C 38.4,10.200000000000001 39.0,8.700000000000001 40.1,7.600000000000001 C 41.2,6.500000000000002 42.6,5.8 44.2,5.8" fill="#ff9932" stroke="none" stroke-width="3.0px" /></g><g transform="translate(60.71994249491012, 35.71994249491012) scale(0.2856011501017976) rotate(0, 50.0, 50.0)"><path d="M 44.2,5.8 C 44.2,4.3 44.800000000000004,2.8 45.900000000000006,1.7000000000000002 C 47.0,0.6 48.5,0.0 50.0,0.0 C 51.5,0.0 53.0,0.6 54.1,1.7 C 55.2,2.8 55.800000000000004,4.3 55.800000000000004,5.8 C 57.300000000000004,5.8 58.800000000000004,6.3999999999999995 59.900000000000006,7.5 C 61.00000000000001,8.6 61.60000000000001,10.1 61.60000000000001,11.6 C 61.60000000000001,13.1 61.00000000000001,14.6 59.900000000000006,15.7 C 58.800000000000004,16.8 57.300000000000004,17.4 55.800000000000004,17.4 L 55.800000000000004,31.599999999999998 L 70.0,31.599999999999998 C 70.0,30.099999999999998 70.6,28.599999999999998 71.7,27.5 C 72.8,26.4 74.3,25.8 75.8,25.8 C 77.3,25.8 78.8,26.400000000000002 79.89999999999999,27.5 C 80.99999999999999,28.6 81.6,30.1 81.6,31.6 C 83.1,31.6 84.6,32.2 85.69999999999999,33.300000000000004 C 86.79999999999998,34.400000000000006 87.39999999999999,35.900000000000006 87.39999999999999,37.400000000000006 C 87.39999999999999,38.900000000000006 86.8,40.400000000000006 85.69999999999999,41.50000000000001 C 84.6,42.60000000000001 83.1,43.20000000000001 81.6,43.20000000000001 C 81.6,44.70000000000001 81.0,46.20000000000001 79.89999999999999,47.30000000000001 C 78.8,48.40000000000001 77.3,49.000000000000014 75.8,49.000000000000014 C 74.3,49.000000000000014 72.8,48.40000000000001 71.7,47.30000000000001 C 70.60000000000001,46.20000000000001 70.0,44.70000000000001 70.0,43.20000000000001 L 55.8,43.20000000000001 L 55.8,82.4 C 57.3,82.4 58.8,83.0 59.9,84.10000000000001 C 61.0,85.2 61.6,86.7 61.6,88.2 C 61.6,89.7 61.0,91.2 59.9,92.3 C 58.8,93.39999999999999 57.3,94.0 55.8,94.0 C 55.8,95.5 55.199999999999996,97.0 54.099999999999994,98.1 C 52.99999999999999,99.19999999999999 51.5,100.0 50.0,100.0 C 48.5,100.0 47.0,99.4 45.9,98.3 C 44.8,97.2 44.199999999999996,95.7 44.199999999999996,94.2 C 42.699999999999996,94.2 41.199999999999996,93.60000000000001 40.099999999999994,92.5 C 38.99999999999999,91.4 38.39999999999999,89.9 38.39999999999999,88.4 C 38.39999999999999,86.9 38.99999999999999,85.4 40.099999999999994,84.30000000000001 C 41.199999999999996,83.20000000000002 42.699999999999996,82.60000000000001 44.199999999999996,82.60000000000001 L 44.199999999999996,43.3 L 30.0,43.3 C 30.0,44.8 29.4,46.3 28.3,47.4 C 27.2,48.5 25.7,49.1 24.200000000000003,49.1 C 22.700000000000003,49.1 21.200000000000003,48.5 20.1,47.4 C 19.0,46.3 18.400000000000002,44.8 18.400000000000002,43.3 C 16.900000000000002,43.3 15.400000000000002,42.699999999999996 14.300000000000002,41.599999999999994 C 13.200000000000003,40.49999999999999 12.600000000000003,38.99999999999999 12.600000000000003,37.49999999999999 C 12.600000000000003,35.99999999999999 13.200000000000003,34.49999999999999 14.300000000000002,33.39999999999999 C 15.400000000000002,32.29999999999999 16.900000000000002,31.699999999999992 18.400000000000002,31.699999999999992 C 18.400000000000002,30.199999999999992 19.000000000000004,28.699999999999992 20.1,27.599999999999994 C 21.200000000000003,26.499999999999993 22.700000000000003,25.899999999999995 24.200000000000003,25.899999999999995 C 25.700000000000003,25.899999999999995 27.200000000000003,26.499999999999996 28.300000000000004,27.599999999999994 C 29.400000000000006,28.699999999999996 30.000000000000004,30.199999999999996 30.000000000000004,31.699999999999996 L 44.2,31.699999999999996 L 44.2,17.5 C 42.7,17.5 41.2,16.9 40.1,15.8 C 39.0,14.700000000000003 38.4,13.200000000000001 38.4,11.700000000000001 C 38.4,10.200000000000001 39.0,8.700000000000001 40.1,7.600000000000001 C 41.2,6.500000000000002 42.6,5.8 44.2,5.8" fill="#ff9932" stroke="none" stroke-width="3.0px" /></g><g transform="translate(98.21994249491011, 35.71994249491012) scale(0.2856011501017976) rotate(0, 50.0, 50.0)"><path d="M 44.2,5.8 C 44.2,4.3 44.800000000000004,2.8 45.900000000000006,1.7000000000000002 C 47.0,0.6 48.5,0.0 50.0,0.0 C 51.5,0.0 53.0,0.6 54.1,1.7 C 55.2,2.8 55.800000000000004,4.3 55.800000000000004,5.8 C 57.300000000000004,5.8 58.800000000000004,6.3999999999999995 59.900000000000006,7.5 C 61.00000000000001,8.6 61.60000000000001,10.1 61.60000000000001,11.6 C 61.60000000000001,13.1 61.00000000000001,14.6 59.900000000000006,15.7 C 58.800000000000004,16.8 57.300000000000004,17.4 55.800000000000004,17.4 L 55.800000000000004,31.599999999999998 L 70.0,31.599999999999998 C 70.0,30.099999999999998 70.6,28.599999999999998 71.7,27.5 C 72.8,26.4 74.3,25.8 75.8,25.8 C 77.3,25.8 78.8,26.400000000000002 79.89999999999999,27.5 C 80.99999999999999,28.6 81.6,30.1 81.6,31.6 C 83.1,31.6 84.6,32.2 85.69999999999999,33.300000000000004 C 86.79999999999998,34.400000000000006 87.39999999999999,35.900000000000006 87.39999999999999,37.400000000000006 C 87.39999999999999,38.900000000000006 86.8,40.400000000000006 85.69999999999999,41.50000000000001 C 84.6,42.60000000000001 83.1,43.20000000000001 81.6,43.20000000000001 C 81.6,44.70000000000001 81.0,46.20000000000001 79.89999999999999,47.30000000000001 C 78.8,48.40000000000001 77.3,49.000000000000014 75.8,49.000000000000014 C 74.3,49.000000000000014 72.8,48.40000000000001 71.7,47.30000000000001 C 70.60000000000001,46.20000000000001 70.0,44.70000000000001 70.0,43.20000000000001 L 55.8,43.20000000000001 L 55.8,82.4 C 57.3,82.4 58.8,83.0 59.9,84.10000000000001 C 61.0,85.2 61.6,86.7 61.6,88.2 C 61.6,89.7 61.0,91.2 59.9,92.3 C 58.8,93.39999999999999 57.3,94.0 55.8,94.0 C 55.8,95.5 55.199999999999996,97.0 54.099999999999994,98.1 C 52.99999999999999,99.19999999999999 51.5,100.0 50.0,100.0 C 48.5,100.0 47.0,99.4 45.9,98.3 C 44.8,97.2 44.199999999999996,95.7 44.199999999999996,94.2 C 42.699999999999996,94.2 41.199999999999996,93.60000000000001 40.099999999999994,92.5 C 38.99999999999999,91.4 38.39999999999999,89.9 38.39999999999999,88.4 C 38.39999999999999,86.9 38.99999999999999,85.4 40.099999999999994,84.30000000000001 C 41.199999999999996,83.20000000000002 42.699999999999996,82.60000000000001 44.199999999999996,82.60000000000001 L 44.199999999999996,43.3 L 30.0,43.3 C 30.0,44.8 29.4,46.3 28.3,47.4 C 27.2,48.5 25.7,49.1 24.200000000000003,49.1 C 22.700000000000003,49.1 21.200000000000003,48.5 20.1,47.4 C 19.0,46.3 18.400000000000002,44.8 18.400000000000002,43.3 C 16.900000000000002,43.3 15.400000000000002,42.699999999999996 14.300000000000002,41.599999999999994 C 13.200000000000003,40.49999999999999 12.600000000000003,38.99999999999999 12.600000000000003,37.49999999999999 C 12.600000000000003,35.99999999999999 13.200000000000003,34.49999999999999 14.300000000000002,33.39999999999999 C 15.400000000000002,32.29999999999999 16.900000000000002,31.699999999999992 18.400000000000002,31.699999999999992 C 18.400000000000002,30.199999999999992 19.000000000000004,28.699999999999992 20.1,27.599999999999994 C 21.200000000000003,26.499999999999993 22.700000000000003,25.899999999999995 24.200000000000003,25.899999999999995 C 25.700000000000003,25.899999999999995 27.200000000000003,26.499999999999996 28.300000000000004,27.599999999999994 C 29.400000000000006,28.699999999999996 30.000000000000004,30.199999999999996 30.000000000000004,31.699999999999996 L 44.2,31.699999999999996 L 44.2,17.5 C 42.7,17.5 41.2,16.9 40.1,15.8 C 39.0,14.700000000000003 38.4,13.200000000000001 38.4,11.700000000000001 C 38.4,10.200000000000001 39.0,8.700000000000001 40.1,7.600000000000001 C 41.2,6.500000000000002 42.6,5.8 44.2,5.8" fill="#ff9932" stroke="none" stroke-width="3.0px" /></g></svg>