<?xml version="1.0" encoding="utf-8" ?>
<svg baseProfile="full" height="100px" version="1.1" width="150px" xmlns="http://www.w3.org/2000/svg" xmlns:ev="http://www.w3.org/2001/xml-events" xmlns:xlink="http://www.w3.org/1999/xlink"><defs><clipPath id="mask0"><rect height="100" width="150" x="0" y="0" /></clipPath></defs><g clip-path="url(#mask0)"><rect fill="#000000" height="100" stroke="none" width="150" x="0" y="0" /><rect fill="#ffffff" height="100" stroke="none" width="37.55284814415949" x="0" y="0" /></g><g transform="translate(71.86075999985648, 28.08433592777673) scale(0.43831328144446535) rotate(0, 50.0, 50.0)"><path d="M 36.5,35.7 C 37.2,33.7 36.5,30.300000000000004 36.7,28.1 C 36.900000000000006,26.8 37.800000000000004,25.5 38.400000000000006,24.200000000000003 C 38.800000000000004,22.900000000000002 39.50000000000001,21.200000000000003 41.00000000000001,20.700000000000003 C 40.7,22.0 40.5,22.0 40.0,23.1 L 39.3,25.5 C 38.9,26.6 38.199999999999996,27.0 38.0,28.1 C 37.6,29.6 37.8,33.300000000000004 37.8,35.0 C 37.8,35.4 37.8,36.1 37.4,36.5 C 36.699999999999996,37.4 34.8,36.7 35.0,38.9 C 35.0,39.1 35.0,39.6 35.2,39.8 C 36.1,41.8 39.5,42.4 41.300000000000004,43.3 C 43.00000000000001,44.4 42.6,45.5 44.300000000000004,46.599999999999994 C 46.00000000000001,47.89999999999999 50.6,47.89999999999999 52.800000000000004,47.699999999999996 C 53.50000000000001,47.49999999999999 54.50000000000001,47.49999999999999 55.2,46.99999999999999 C 56.900000000000006,46.29999999999999 57.2,44.599999999999994 58.900000000000006,43.49999999999999 C 60.2,42.79999999999999 63.00000000000001,42.39999999999999 64.30000000000001,40.49999999999999 C 64.50000000000001,40.29999999999999 64.70000000000002,39.79999999999999 64.70000000000002,39.599999999999994 C 65.40000000000002,37.199999999999996 62.500000000000014,38.099999999999994 61.90000000000002,36.599999999999994 C 61.50000000000002,35.49999999999999 62.10000000000002,31.999999999999993 62.30000000000002,30.999999999999993 L 63.00000000000002,31.699999999999992 L 63.00000000000002,33.69999999999999 L 63.200000000000024,35.89999999999999 C 65.60000000000002,35.49999999999999 65.40000000000002,32.599999999999994 65.60000000000002,30.699999999999992 C 66.00000000000003,25.499999999999993 66.00000000000003,22.199999999999992 62.300000000000026,18.099999999999994 C 60.10000000000002,15.899999999999995 57.300000000000026,14.199999999999994 54.300000000000026,13.799999999999994 L 52.300000000000026,13.799999999999994 L 50.800000000000026,13.599999999999994 L 49.10000000000002,13.799999999999994 C 46.300000000000026,13.999999999999993 44.300000000000026,13.999999999999993 41.90000000000002,15.299999999999994 C 40.20000000000002,16.199999999999992 39.10000000000002,17.299999999999994 37.80000000000002,18.799999999999994 C 34.50000000000002,22.299999999999994 33.90000000000002,26.599999999999994 34.50000000000002,31.199999999999996 C 34.8,32.6 35.2,34.6 36.5,35.7 M 43.7,29.2 C 46.7,29.0 48.900000000000006,31.2 47.800000000000004,34.2 C 46.900000000000006,36.2 45.00000000000001,37.7 42.800000000000004,38.1 C 40.800000000000004,38.300000000000004 40.00000000000001,37.0 40.00000000000001,35.300000000000004 C 40.0,32.4 40.5,30.0 43.7,29.2 M 55.9,29.2 C 58.5,29.2 59.8,31.4 60.0,33.8 C 60.0,34.5 60.2,35.099999999999994 60.2,35.5 C 60.0,37.0 58.5,38.1 56.900000000000006,38.3 C 54.50000000000001,38.3 51.7,34.599999999999994 51.900000000000006,32.4 C 52.4,30.5 54.1,29.6 55.9,29.2 M 52.0,42.4 L 49.6,42.0 L 47.6,42.7 C 47.4,41.2 48.0,39.0 48.7,37.5 C 48.900000000000006,37.1 49.400000000000006,36.2 49.800000000000004,36.0 C 50.7,35.8 50.900000000000006,36.9 50.900000000000006,37.3 C 51.3,38.9 52.0,40.7 52.0,42.4" fill="#0046ae" stroke="#ff0000" stroke-width="2.0" /><path d="M 60.4,45.9 C 59.699999999999996,46.1 58.9,46.1 58.199999999999996,46.6 C 55.99999999999999,48.1 57.099999999999994,51.800000000000004 55.199999999999996,54.2 C 54.3,55.300000000000004 52.4,55.7 50.9,55.7 C 48.1,55.7 44.6,55.5 43.3,52.7 C 42.199999999999996,50.7 43.699999999999996,48.800000000000004 41.3,46.400000000000006 C 40.9,46.2 40.199999999999996,45.50000000000001 39.8,45.50000000000001 C 39.099999999999994,45.50000000000001 39.4,46.400000000000006 39.4,46.800000000000004 L 39.6,51.1 C 39.6,54.4 40.5,54.4 42.0,56.300000000000004 C 42.9,57.6 43.5,58.900000000000006 45.0,59.6 C 47.0,60.300000000000004 49.1,60.300000000000004 51.1,60.0 C 52.6,60.0 53.5,60.2 55.0,59.3 C 56.5,58.4 59.1,55.0 59.6,53.199999999999996 L 59.800000000000004,50.199999999999996 C 60.2,48.1 60.4,48.5 60.4,45.9 L 60.4,45.9" fill="#0046ae" stroke="#ff0000" stroke-width="2.0" /><path d="M 100.1,23.3 C 96.8,27.9 93.3,31.700000000000003 89.5,36.3 L 84.3,42.199999999999996 C 80.0,46.3 69.1,54.4 64.1,57.6 C 61.3,59.6 58.199999999999996,61.1 55.199999999999996,62.4 L 51.199999999999996,64.3 C 51.9,65.0 53.099999999999994,65.3 54.199999999999996,65.8 C 54.9,65.8 57.199999999999996,64.5 57.8,64.1 L 64.7,60.199999999999996 C 66.0,59.3 67.3,58.199999999999996 68.8,57.99999999999999 C 68.1,59.49999999999999 66.6,60.39999999999999 65.1,61.29999999999999 L 60.99999999999999,63.69999999999999 C 60.99999999999999,63.69999999999999 56.699999999999996,66.19999999999999 56.099999999999994,66.6 C 57.3,67.1 59.099999999999994,67.6 60.199999999999996,68.1 C 61.3,68.1 62.8,67.0 63.599999999999994,66.6 C 66.0,65.3 69.0,63.3 71.39999999999999,61.599999999999994 L 75.3,58.99999999999999 C 78.3,56.599999999999994 81.39999999999999,53.99999999999999 84.2,51.199999999999996 C 86.4,49.199999999999996 88.5,47.3 90.3,44.9 C 92.7,42.1 94.2,38.8 95.89999999999999,35.599999999999994 C 97.89999999999999,32.599999999999994 98.49999999999999,30.599999999999994 99.6,27.399999999999995 C 99.9,26.1 100.6,24.4 100.1,23.3 L 100.1,23.3" fill="#0046ae" stroke="#ff0000" stroke-width="2.0" /><path d="M 0.5,22.2 C -0.19999999999999996,24.599999999999998 0.7,27.4 1.6,29.6 C 3.6,34.800000000000004 6.800000000000001,39.400000000000006 10.1,43.7 C 12.1,46.5 15.3,50.0 17.7,52.400000000000006 L 20.3,54.60000000000001 L 25.9,59.60000000000001 C 30.5,63.10000000000001 38.9,68.30000000000001 44.099999999999994,70.7 L 50.99999999999999,73.7 L 53.79999999999999,74.8 C 57.09999999999999,76.1 60.29999999999999,77.0 63.79999999999999,77.6 C 65.79999999999998,78.0 67.89999999999999,78.69999999999999 69.89999999999999,78.69999999999999 C 69.19999999999999,76.29999999999998 67.89999999999999,76.49999999999999 65.99999999999999,75.89999999999999 L 58.9,73.0 C 48.9,68.9 37.8,64.8 30.0,57.0 C 31.5,57.0 32.6,58.3 33.7,59.2 C 35.2,60.300000000000004 37.2,61.6 38.900000000000006,62.7 C 43.7,65.5 54.50000000000001,70.5 60.00000000000001,72.5 C 62.20000000000001,73.4 65.9,74.9 68.0,74.9 C 69.7,75.10000000000001 72.1,74.0 73.4,73.2 C 72.5,72.3 71.7,72.5 70.4,72.3 L 63.7,70.3 C 57.800000000000004,68.8 52.2,66.6 46.800000000000004,63.8 L 43.800000000000004,62.5 L 39.7,59.9 L 34.7,56.6 L 29.500000000000004,52.5 L 20.6,45.6 L 12.2,37.0 L 8.1,32.2 L 3.8,27.400000000000002 L 0.5,22.2 L 0.5,22.2" fill="#0046ae" stroke="#ff0000" stroke-width="2.0" /><path d="M 70.2,75.8 C 70.60000000000001,76.7 71.5,78.0 71.5,79.1 C 71.5,81.5 68.7,83.69999999999999 66.5,83.39999999999999 C 65.6,83.19999999999999 63.7,82.1 63.0,83.39999999999999 C 62.8,83.8 62.8,84.3 63.0,84.49999999999999 C 63.0,85.39999999999999 64.1,85.79999999999998 65.0,86.19999999999999 C 67.4,86.89999999999999 70.0,85.99999999999999 71.9,84.69999999999999 C 73.4,83.79999999999998 74.5,82.29999999999998 74.9,80.6 L 75.30000000000001,77.8 C 75.50000000000001,76.89999999999999 76.4,76.7 77.50000000000001,75.2 C 78.80000000000001,73.5 80.10000000000001,70.4 81.80000000000001,69.10000000000001 C 82.50000000000001,68.7 83.10000000000001,68.4 84.00000000000001,68.2 C 83.60000000000001,67.5 83.10000000000001,67.10000000000001 82.70000000000002,66.5 C 82.30000000000001,66.3 81.80000000000001,65.8 81.40000000000002,65.8 C 80.70000000000002,65.6 79.90000000000002,65.6 79.20000000000002,66.0 C 76.20000000000002,67.5 76.80000000000001,70.3 75.10000000000002,72.5 C 73.9,74.3 72.4,75.2 70.2,75.8 L 70.2,75.8" fill="#0046ae" stroke="#ff0000" stroke-width="2.0" /><path d="M 77.1,78.7 C 78.6,79.4 79.89999999999999,79.10000000000001 81.39999999999999,79.10000000000001 L 84.69999999999999,79.30000000000001 C 86.19999999999999,79.30000000000001 86.69999999999999,78.4 87.29999999999998,77.10000000000001 C 87.49999999999999,76.7 87.69999999999999,75.80000000000001 87.29999999999998,75.4 C 86.89999999999998,75.0 86.0,75.0 85.4,75.0 L 81.7,75.2 C 81.0,75.2 80.0,75.2 79.3,75.4 C 78.2,76.1 77.4,77.6 77.1,78.7 L 77.1,78.7" fill="#0046ae" stroke="#ff0000" stroke-width="2.0" /><path d="M 88.9,81.7 C 87.80000000000001,81.3 87.2,80.8 86.5,80.0 C 86.3,80.2 86.1,80.2 85.8,80.4 C 85.6,81.5 88.4,84.1 88.9,81.7" fill="#0046ae" stroke="#ff0000" stroke-width="2.0" /><path d="M 87.3,74.3 L 89.0,75.39999999999999 C 88.6,76.3 87.5,77.99999999999999 87.7,79.1 C 87.9,81.3 91.0,81.3 92.3,80.0 C 93.8,78.3 93.8,75.7 91.6,74.4 C 90.4,73.7 88.9,73.9 87.3,74.3" fill="#0046ae" stroke="#ff0000" stroke-width="2.0" /><path d="M 9.4,80.4 L 9.6,80.60000000000001 C 11.299999999999999,80.2 12.399999999999999,79.50000000000001 12.6,77.80000000000001 C 11.4,78.0 10.1,79.3 9.4,80.4" fill="#0046ae" stroke="#ff0000" stroke-width="2.0" /><path d="M 10.9,72.4 C 10.200000000000001,72.0 9.6,71.7 8.7,71.7 C 7.999999999999999,71.7 7.3999999999999995,71.7 6.699999999999999,71.9 C 4.499999999999999,72.80000000000001 4.299999999999999,76.2 5.999999999999999,77.80000000000001 C 6.8999999999999995,78.70000000000002 9.0,79.10000000000001 9.899999999999999,78.00000000000001 C 10.799999999999999,77.10000000000001 10.599999999999998,76.00000000000001 10.099999999999998,75.00000000000001 C 9.899999999999999,74.30000000000001 9.399999999999999,73.50000000000001 9.899999999999999,73.00000000000001 C 10.3,72.6 10.7,72.6 10.9,72.4" fill="#0046ae" stroke="#ff0000" stroke-width="2.0" /><path d="M 10.7,73.2 C 10.899999999999999,73.9 12.0,76.5 12.399999999999999,76.9 C 13.099999999999998,77.30000000000001 13.7,77.30000000000001 14.399999999999999,77.30000000000001 L 18.299999999999997,77.10000000000001 L 21.099999999999998,77.10000000000001 C 21.099999999999998,76.4 21.099999999999998,75.80000000000001 20.9,75.4 C 20.2,73.7 17.9,72.80000000000001 16.099999999999998,72.80000000000001 L 14.099999999999998,73.00000000000001 C 12.9,73.0 11.8,72.8 10.7,73.2" fill="#0046ae" stroke="#ff0000" stroke-width="2.0" /><path d="M 14.8,66.3 C 18.9,67.39999999999999 18.9,70.89999999999999 20.700000000000003,73.2 C 21.400000000000002,74.10000000000001 23.1,75.4 23.300000000000004,76.2 C 23.500000000000004,76.9 23.300000000000004,77.10000000000001 23.500000000000004,78.60000000000001 C 23.900000000000002,80.60000000000001 25.200000000000003,82.50000000000001 27.000000000000004,83.60000000000001 C 29.000000000000004,84.9 30.700000000000003,85.80000000000001 33.1,85.10000000000001 C 34.4,84.7 35.7,83.80000000000001 35.1,82.30000000000001 C 34.4,80.80000000000001 32.1,82.30000000000001 30.5,81.9 C 29.0,81.2 27.2,79.10000000000001 27.2,77.30000000000001 L 28.099999999999998,74.30000000000001 C 25.7,73.4 22.9,71.50000000000001 21.799999999999997,69.10000000000001 C 21.099999999999998,67.60000000000001 21.099999999999998,65.4 20.099999999999998,64.30000000000001 C 18.1,62.8 15.5,64.1 14.8,66.3 L 14.8,66.3" fill="#0046ae" stroke="#ff0000" stroke-width="2.0" /><path d="M 25.3,71.3 C 26.0,72.2 26.400000000000002,72.39999999999999 27.3,72.8 C 30.3,74.5 32.3,73.2 35.3,72.6 L 41.599999999999994,70.6 C 40.8,70.0 38.89999999999999,68.89999999999999 38.099999999999994,68.39999999999999 L 33.99999999999999,69.49999999999999 L 25.3,71.3" fill="#0046ae" stroke="#ff0000" stroke-width="2.0" /><path d="M 28.3,77.6 C 33.9,77.6 39.2,75.89999999999999 44.6,74.6 C 44.6,74.6 47.0,73.5 47.800000000000004,73.5 C 47.00000000000001,73.0 44.00000000000001,71.8 43.50000000000001,71.4 C 42.800000000000004,71.60000000000001 40.300000000000004,72.5 39.400000000000006,72.7 L 34.00000000000001,74.2 L 31.400000000000006,74.9 C 29.8,75.4 28.7,75.6 28.3,77.6" fill="#0046ae" stroke="#ff0000" stroke-width="2.0" /><path d="M 45.0,52.6 C 45.0,53.1 45.1,53.800000000000004 45.3,54.1 C 45.5,54.4 46.3,54.5 46.5,54.300000000000004 C 46.7,54.1 46.3,53.300000000000004 46.1,53.00000000000001 C 46.0,52.8 45.7,52.7 45.0,52.6" fill="#0046ae" stroke="#ff0000" stroke-width="2.0" /><path d="M 46.7,52.8 L 46.900000000000006,53.9 C 46.900000000000006,54.1 47.10000000000001,54.6 47.300000000000004,54.8 C 48.2,55.199999999999996 48.6,53.099999999999994 48.00000000000001,52.8 C 47.6,52.6 47.2,52.8 46.7,52.8" fill="#0046ae" stroke="#ff0000" stroke-width="2.0" /><path d="M 49.4,53.1 C 48.699999999999996,53.5 48.699999999999996,54.300000000000004 49.0,54.7 C 49.2,55.1 49.8,55.1 50.1,55.0 C 50.300000000000004,54.9 50.6,54.3 50.7,53.9 C 50.6,53.4 50.3,52.9 49.4,53.1" fill="#0046ae" stroke="#ff0000" stroke-width="2.0" /><path d="M 47.0,50.2 C 47.6,50.5 48.6,50.2 48.6,50.2 L 48.6,48.900000000000006 C 48.4,48.00000000000001 47.7,47.800000000000004 47.300000000000004,48.2 C 47.0,48.7 47.0,49.8 47.0,50.2" fill="#0046ae" stroke="#ff0000" stroke-width="2.0" /><path d="M 50.2,48.1 C 50.0,48.1 49.300000000000004,48.0 49.1,48.2 C 48.7,48.6 48.5,50.0 49.1,50.5 C 49.5,50.6 50.2,50.7 50.4,49.8 L 50.4,49.199999999999996 C 50.4,49.1 50.4,48.4 50.2,48.1" fill="#0046ae" stroke="#ff0000" stroke-width="2.0" /><path d="M 52.4,55.0 C 52.6,55.1 52.8,54.8 53.1,54.6 C 54.6,53.1 51.5,51.9 52.0,54.2 C 52.0,54.1 52.2,55.0 52.4,55.0" fill="#0046ae" stroke="#ff0000" stroke-width="2.0" /><path d="M 46.3,47.8 C 46.099999999999994,47.699999999999996 45.699999999999996,47.8 45.5,47.8 C 43.8,48.599999999999994 45.9,51.5 46.6,49.5 C 46.6,49.3 46.6,49.1 46.6,48.8 C 46.5,48.9 46.4,47.9 46.3,47.8" fill="#0046ae" stroke="#ff0000" stroke-width="2.0" /><path d="M 51.1,48.1 C 51.1,48.1 50.7,50.300000000000004 50.9,50.5 C 51.199999999999996,50.7 52.1,50.6 52.4,50.4 C 52.4,49.699999999999996 52.4,49.0 52.3,48.6 C 52.1,48.1 51.8,48.2 51.1,48.1 L 51.1,48.1" fill="#0046ae" stroke="#ff0000" stroke-width="2.0" /><path d="M 53.2,47.8 L 53.0,48.9 C 53.0,49.6 53.1,50.8 54.0,50.199999999999996 C 54.1,50.099999999999994 54.4,48.8 54.3,48.199999999999996 C 54.1,47.9 53.7,47.9 53.2,47.8" fill="#0046ae" stroke="#ff0000" stroke-width="2.0" /></g></svg>