<?xml version="1.0" encoding="utf-8" ?>
<svg baseProfile="full" height="100px" version="1.1" width="150px" xmlns="http://www.w3.org/2000/svg" xmlns:ev="http://www.w3.org/2001/xml-events" xmlns:xlink="http://www.w3.org/1999/xlink"><defs><clipPath id="mask0"><rect height="100" width="150" x="0" y="0" /></clipPath></defs><g clip-path="url(#mask0)"><rect fill="#603814" height="11.11111111111111" stroke="none" width="150" x="0" y="0.0" /><rect fill="#CB001E" height="11.11111111111111" stroke="none" width="150" x="0" y="11.11111111111111" /><rect fill="#ff9932" height="11.11111111111111" stroke="none" width="150" x="0" y="22.22222222222222" /><rect fill="#ffce00" height="11.11111111111111" stroke="none" width="150" x="0" y="33.333333333333336" /><rect fill="#229e45" height="11.11111111111111" stroke="none" width="150" x="0" y="44.44444444444444" /><rect fill="#0066cc" height="11.11111111111111" stroke="none" width="150" x="0" y="55.55555555555556" /><rect fill="#75197d" height="11.11111111111111" stroke="none" width="150" x="0" y="66.66666666666667" /><rect fill="#784f16" height="11.11111111111111" stroke="none" width="150" x="0" y="77.77777777777777" /><rect fill="#ff3333" height="11.11111111111111" stroke="none" width="150" x="0" y="88.88888888888889" /></g><g transform="translate(48.148790865460924, 23.14879086546092) scale(0.5370241826907816) rotate(0, 50.0, 50.0)"><path d="M 91.5,52.0 C 90.6,50.9 90.0,50.0 89.3,49.3 C 88.6,48.599999999999994 88.5,48.0 89.1,47.199999999999996 C 89.69999999999999,46.4 90.19999999999999,45.49999999999999 90.69999999999999,44.699999999999996 C 90.6,44.599999999999994 90.49999999999999,44.49999999999999 90.49999999999999,44.4 C 89.49999999999999,44.8 88.49999999999999,45.1 87.59999999999998,45.6 C 86.79999999999998,46.0 86.29999999999998,45.9 85.79999999999998,45.2 C 85.19999999999999,44.300000000000004 84.39999999999998,43.5 83.69999999999999,42.7 C 83.49999999999999,43.900000000000006 83.49999999999999,44.900000000000006 83.6,45.900000000000006 C 83.69999999999999,46.800000000000004 83.39999999999999,47.300000000000004 82.5,47.60000000000001 C 81.5,47.900000000000006 80.6,48.400000000000006 79.7,48.70000000000001 C 79.60000000000001,48.90000000000001 79.60000000000001,49.00000000000001 79.5,49.20000000000001 C 83.3,49.00000000000001 84.5,50.90000000000001 84.2,54.20000000000001 C 84.2,54.30000000000001 84.3,54.30000000000001 84.5,54.50000000000001 C 84.9,54.00000000000001 85.2,53.400000000000006 85.6,52.900000000000006 C 87.1,50.50000000000001 86.5,50.900000000000006 89.1,51.400000000000006 C 89.8,51.5 90.4,51.7 91.5,52.0" fill="#ff9932" stroke="#d0a650" stroke-width="2.0px" /><path d="M 16.5,45.8 C 16.6,44.8 16.6,43.699999999999996 16.7,42.699999999999996 C 16.0,42.99999999999999 15.6,43.49999999999999 15.2,43.99999999999999 C 13.2,46.199999999999996 14.1,45.99999999999999 11.399999999999999,44.99999999999999 C 10.799999999999999,44.79999999999999 10.2,44.49999999999999 9.599999999999998,44.29999999999999 C 9.799999999999997,45.19999999999999 10.199999999999998,45.89999999999999 10.599999999999998,46.49999999999999 C 11.599999999999998,47.699999999999996 11.599999999999998,48.699999999999996 10.399999999999999,49.699999999999996 C 9.8,50.3 9.3,51.0 8.5,52.0 C 9.8,51.7 10.7,51.6 11.6,51.2 C 12.9,50.6 13.6,51.1 14.2,52.300000000000004 C 14.6,53.1 15.1,53.7 15.799999999999999,54.7 C 15.899999999999999,54.0 15.899999999999999,53.7 15.899999999999999,53.5 C 16.2,50.1 16.2,50.1 19.4,49.2 C 19.7,49.1 19.9,49.0 20.2,48.900000000000006 C 20.2,48.800000000000004 20.2,48.7 20.3,48.60000000000001 C 19.400000000000002,48.20000000000001 18.5,47.80000000000001 17.5,47.50000000000001 C 16.7,47.2 16.3,46.8 16.5,45.8" fill="#ff9932" stroke="#d0a650" stroke-width="2.0px" /><path d="M 29.9,35.7 C 30.299999999999997,35.0 30.599999999999998,34.300000000000004 30.9,33.6 C 30.799999999999997,33.5 30.7,33.4 30.599999999999998,33.4 C 29.4,34.1 28.2,34.8 26.9,35.5 C 25.799999999999997,34.5 24.7,33.6 23.7,32.6 C 23.599999999999998,33.6 23.7,34.4 23.9,35.1 C 24.4,36.5 24.099999999999998,37.4 22.7,37.9 C 22.0,38.199999999999996 21.3,38.699999999999996 20.599999999999998,39.1 C 20.599999999999998,39.2 20.7,39.4 20.7,39.5 C 21.7,39.6 22.7,39.8 23.7,39.8 C 24.599999999999998,39.8 25.0,40.3 25.2,41.099999999999994 C 25.4,42.099999999999994 25.599999999999998,43.099999999999994 25.9,44.099999999999994 C 26.599999999999998,43.199999999999996 27.099999999999998,42.3 27.4,41.39999999999999 C 27.7,40.599999999999994 28.2,40.19999999999999 29.099999999999998,40.39999999999999 C 30.099999999999998,40.599999999999994 31.2,40.599999999999994 32.699999999999996,40.69999999999999 C 31.799999999999997,39.79999999999999 31.199999999999996,39.19999999999999 30.499999999999996,38.69999999999999 C 29.2,37.9 29.2,36.9 29.9,35.7" fill="#ff9932" stroke="#d0a650" stroke-width="2.0px" /><path d="M 96.8,63.4 C 97.1,62.3 98.7,61.5 100.0,60.4 C 98.8,60.4 97.9,60.3 97.1,60.4 C 95.8,60.6 95.19999999999999,60.1 94.89999999999999,58.8 C 94.69999999999999,57.9 94.3,57.099999999999994 93.8,55.9 C 93.39999999999999,57.3 93.0,58.4 92.8,59.4 C 92.6,60.3 92.1,60.6 91.3,60.5 C 90.3,60.5 89.2,60.5 88.2,60.5 C 88.2,60.6 88.10000000000001,60.8 88.10000000000001,60.9 C 88.7,61.3 89.30000000000001,61.9 90.00000000000001,62.199999999999996 C 91.40000000000002,62.9 91.70000000000002,63.8 91.10000000000001,65.19999999999999 C 90.80000000000001,65.89999999999999 90.7,66.69999999999999 90.4,67.39999999999999 C 91.5,66.89999999999999 92.4,66.3 93.2,65.6 C 93.9,65.0 94.5,65.0 95.2,65.6 C 96.0,66.19999999999999 96.9,66.69999999999999 98.10000000000001,67.5 C 97.5,65.9 96.5,64.4 96.8,63.4" fill="#ff9932" stroke="#d0a650" stroke-width="2.0px" /><path d="M 76.0,35.9 C 76.1,34.8 76.4,33.8 76.6,32.699999999999996 C 76.5,32.599999999999994 76.39999999999999,32.599999999999994 76.3,32.49999999999999 C 75.2,33.49999999999999 74.2,34.39999999999999 73.1,35.39999999999999 C 71.8,34.69999999999999 70.6,33.99999999999999 69.39999999999999,33.29999999999999 C 69.39999999999999,33.99999999999999 69.6,34.49999999999999 69.8,34.99999999999999 C 71.1,37.99999999999999 71.3,37.099999999999994 68.89999999999999,39.199999999999996 C 68.49999999999999,39.599999999999994 67.89999999999999,39.8 67.3,39.99999999999999 C 67.5,40.199999999999996 67.7,40.39999999999999 67.89999999999999,40.599999999999994 C 68.89999999999999,40.49999999999999 69.89999999999999,40.49999999999999 70.89999999999999,40.3 C 71.89999999999999,40.099999999999994 72.39999999999999,40.5 72.69999999999999,41.4 C 72.99999999999999,42.3 73.49999999999999,43.199999999999996 73.89999999999999,44.1 C 74.49999999999999,43.1 74.69999999999999,42.1 74.89999999999999,41.1 C 74.99999999999999,40.1 75.49999999999999,39.7 76.49999999999999,39.7 C 77.49999999999999,39.7 78.49999999999999,39.5 79.39999999999999,39.400000000000006 C 79.39999999999999,39.300000000000004 79.49999999999999,39.2 79.49999999999999,39.10000000000001 C 78.59999999999998,38.60000000000001 77.59999999999998,38.10000000000001 76.69999999999999,37.400000000000006 C 76.3,37.1 76.0,36.4 76.0,35.9" fill="#ff9932" stroke="#d0a650" stroke-width="2.0px" /><path d="M 9.8,60.6 C 8.200000000000001,60.800000000000004 7.300000000000001,60.300000000000004 7.1000000000000005,58.6 C 7.000000000000001,57.800000000000004 6.7,57.1 6.300000000000001,55.9 C 5.800000000000001,57.199999999999996 5.300000000000001,58.199999999999996 5.1000000000000005,59.199999999999996 C 4.800000000000001,60.199999999999996 4.300000000000001,60.4 3.3000000000000007,60.4 C 2.3000000000000007,60.3 1.3000000000000007,60.4 8.881784197001252e-16,60.4 C 0.7000000000000008,61.0 1.100000000000001,61.3 1.5000000000000009,61.699999999999996 C 4.000000000000001,63.699999999999996 3.700000000000001,62.8 2.700000000000001,65.69999999999999 C 2.500000000000001,66.19999999999999 2.300000000000001,66.79999999999998 2.200000000000001,67.29999999999998 C 3.300000000000001,66.89999999999998 4.300000000000001,66.39999999999998 5.100000000000001,65.69999999999999 C 5.800000000000002,65.19999999999999 6.300000000000002,65.19999999999999 6.900000000000001,65.79999999999998 C 7.700000000000001,66.49999999999999 8.500000000000002,67.09999999999998 9.400000000000002,67.69999999999999 C 9.500000000000002,67.6 9.600000000000001,67.6 9.700000000000003,67.49999999999999 C 9.500000000000004,66.79999999999998 9.400000000000002,66.09999999999998 9.100000000000003,65.49999999999999 C 8.400000000000004,63.999999999999986 8.700000000000003,62.899999999999984 10.200000000000003,62.19999999999999 C 10.900000000000002,61.89999999999999 11.400000000000002,61.39999999999999 12.000000000000004,60.999999999999986 C 12.000000000000004,60.899999999999984 11.900000000000004,60.69999999999999 11.900000000000004,60.59999999999999 C 11.2,60.6 10.5,60.5 9.8,60.6" fill="#ff9932" stroke="#d0a650" stroke-width="2.0px" /><path d="M 47.8,29.3 C 46.3,29.6 45.199999999999996,29.7 44.199999999999996,29.900000000000002 C 43.4,30.1 42.9,29.900000000000002 42.49999999999999,29.1 C 42.099999999999994,28.200000000000003 41.49999999999999,27.3 40.99999999999999,26.3 C 40.49999999999999,27.400000000000002 40.29999999999999,28.400000000000002 40.199999999999996,29.400000000000002 C 40.099999999999994,30.3 39.699999999999996,30.700000000000003 38.8,30.8 C 37.8,30.900000000000002 36.8,31.1 35.8,31.3 C 36.599999999999994,32.0 37.3,32.5 38.099999999999994,32.7 C 39.39999999999999,33.1 39.699999999999996,34.0 39.39999999999999,35.300000000000004 C 39.19999999999999,36.1 39.19999999999999,37.00000000000001 38.99999999999999,38.300000000000004 C 39.99999999999999,37.2 40.79999999999999,36.50000000000001 41.39999999999999,35.7 C 41.99999999999999,35.0 42.49999999999999,34.900000000000006 43.29999999999999,35.300000000000004 C 44.19999999999999,35.800000000000004 45.19999999999999,36.2 46.09999999999999,36.7 C 46.19999999999999,36.6 46.19999999999999,36.5 46.29999999999999,36.400000000000006 C 45.79999999999999,35.50000000000001 45.39999999999999,34.50000000000001 44.79999999999999,33.60000000000001 C 44.29999999999999,32.900000000000006 44.39999999999999,32.400000000000006 44.99999999999999,31.800000000000008 C 46.0,31.2 46.7,30.4 47.8,29.3" fill="#ff9932" stroke="#d0a650" stroke-width="2.0px" /><path d="M 61.1,30.8 C 60.2,30.7 59.9,30.3 59.800000000000004,29.5 C 59.7,28.5 59.50000000000001,27.4 59.300000000000004,26.4 C 58.6,27.099999999999998 58.1,27.799999999999997 57.900000000000006,28.5 C 57.400000000000006,29.9 56.50000000000001,30.1 55.2,29.8 C 54.400000000000006,29.6 53.6,29.5 52.800000000000004,29.400000000000002 C 52.7,29.6 52.6,29.8 52.50000000000001,29.900000000000002 C 53.300000000000004,30.6 54.10000000000001,31.3 54.900000000000006,31.900000000000002 C 55.60000000000001,32.400000000000006 55.60000000000001,33.0 55.2,33.7 C 54.6,34.6 54.2,35.6 53.7,36.6 C 53.800000000000004,36.7 53.800000000000004,36.800000000000004 53.900000000000006,36.800000000000004 C 54.900000000000006,36.300000000000004 55.900000000000006,35.900000000000006 56.800000000000004,35.400000000000006 C 57.6,35.00000000000001 58.1,35.10000000000001 58.6,35.7 C 59.300000000000004,36.5 60.0,37.2 60.7,38.0 C 60.900000000000006,36.9 60.800000000000004,36.0 60.6,35.1 C 60.4,34.0 60.6,33.300000000000004 61.800000000000004,32.9 C 62.7,32.6 63.50000000000001,32.1 64.30000000000001,31.7 C 64.30000000000001,31.599999999999998 64.30000000000001,31.4 64.20000000000002,31.3 C 63.2,31.2 62.2,30.9 61.1,30.8" fill="#ff9932" stroke="#d0a650" stroke-width="2.0px" /></g></svg>