<?xml version="1.0" encoding="utf-8" ?>
<svg baseProfile="full" height="100px" version="1.1" width="150px" xmlns="http://www.w3.org/2000/svg" xmlns:ev="http://www.w3.org/2001/xml-events" xmlns:xlink="http://www.w3.org/1999/xlink"><defs><clipPath id="mask0"><rect height="100" width="150" x="0" y="0" /></clipPath></defs><g clip-path="url(#mask0)"><rect fill="#229e45" height="100" stroke="none" width="150" x="0" y="0" /></g><g transform="translate(-8.432757599685656, -8.432757599685656) scale(0.16865515199371311) rotate(0, 50.0, 50.0)"><path d="M 66.7,33.3 L 100.0,33.3 L 100.0,66.6 L 66.7,66.6 L 66.7,99.89999999999999 L 33.400000000000006,99.89999999999999 L 33.400000000000006,66.6 L 0.0,66.6 L 0.0,33.3 L 33.3,33.3 L 33.3,0.0 L 66.6,0.0 L 66.7,33.3" fill="#000000" stroke="none" stroke-width="2.0px" /></g><g transform="translate(6.567242400314344, 1.5672424003143437) scale(0.16865515199371311) rotate(0, 50.0, 50.0)"><path d="M 66.7,33.3 L 100.0,33.3 L 100.0,66.6 L 66.7,66.6 L 66.7,99.89999999999999 L 33.400000000000006,99.89999999999999 L 33.400000000000006,66.6 L 0.0,66.6 L 0.0,33.3 L 33.3,33.3 L 33.3,0.0 L 66.6,0.0 L 66.7,33.3" fill="#000000" stroke="none" stroke-width="2.0px" /></g><g transform="translate(21.567242400314342, 11.567242400314344) scale(0.16865515199371311) rotate(0, 50.0, 50.0)"><path d="M 66.7,33.3 L 100.0,33.3 L 100.0,66.6 L 66.7,66.6 L 66.7,99.89999999999999 L 33.400000000000006,99.89999999999999 L 33.400000000000006,66.6 L 0.0,66.6 L 0.0,33.3 L 33.3,33.3 L 33.3,0.0 L 66.6,0.0 L 66.7,33.3" fill="#000000" stroke="none" stroke-width="2.0px" /></g><g transform="translate(36.56724240031434, 21.567242400314342) scale(0.16865515199371311) rotate(0, 50.0, 50.0)"><path d="M 66.7,33.3 L 100.0,33.3 L 100.0,66.6 L 66.7,66.6 L 66.7,99.89999999999999 L 33.400000000000006,99.89999999999999 L 33.400000000000006,66.6 L 0.0,66.6 L 0.0,33.3 L 33.3,33.3 L 33.3,0.0 L 66.6,0.0 L 66.7,33.3" fill="#000000" stroke="none" stroke-width="2.0px" /></g><g transform="translate(51.56724240031434, 31.567242400314342) scale(0.16865515199371311) rotate(0, 50.0, 50.0)"><path d="M 66.7,33.3 L 100.0,33.3 L 100.0,66.6 L 66.7,66.6 L 66.7,99.89999999999999 L 33.400000000000006,99.89999999999999 L 33.400000000000006,66.6 L 0.0,66.6 L 0.0,33.3 L 33.3,33.3 L 33.3,0.0 L 66.6,0.0 L 66.7,33.3" fill="#000000" stroke="none" stroke-width="2.0px" /></g><g transform="translate(66.56724240031434, 41.56724240031434) scale(0.16865515199371311) rotate(0, 50.0, 50.0)"><path d="M 66.7,33.3 L 100.0,33.3 L 100.0,66.6 L 66.7,66.6 L 66.7,99.89999999999999 L 33.400000000000006,99.89999999999999 L 33.400000000000006,66.6 L 0.0,66.6 L 0.0,33.3 L 33.3,33.3 L 33.3,0.0 L 66.6,0.0 L 66.7,33.3" fill="#000000" stroke="none" stroke-width="2.0px" /></g><g transform="translate(81.56724240031434, 51.56724240031434) scale(0.16865515199371311) rotate(0, 50.0, 50.0)"><path d="M 66.7,33.3 L 100.0,33.3 L 100.0,66.6 L 66.7,66.6 L 66.7,99.89999999999999 L 33.400000000000006,99.89999999999999 L 33.400000000000006,66.6 L 0.0,66.6 L 0.0,33.3 L 33.3,33.3 L 33.3,0.0 L 66.6,0.0 L 66.7,33.3" fill="#000000" stroke="none" stroke-width="2.0px" /></g><g transform="translate(96.56724240031434, 61.56724240031434) scale(0.16865515199371311) rotate(0, 50.0, 50.0)"><path d="M 66.7,33.3 L 100.0,33.3 L 100.0,66.6 L 66.7,66.6 L 66.7,99.89999999999999 L 33.400000000000006,99.89999999999999 L 33.400000000000006,66.6 L 0.0,66.6 L 0.0,33.3 L 33.3,33.3 L 33.3,0.0 L 66.6,0.0 L 66.7,33.3" fill="#000000" stroke="none" stroke-width="2.0px" /></g><g transform="translate(111.56724240031434, 71.56724240031434) scale(0.16865515199371311) rotate(0, 50.0, 50.0)"><path d="M 66.7,33.3 L 100.0,33.3 L 100.0,66.6 L 66.7,66.6 L 66.7,99.89999999999999 L 33.400000000000006,99.89999999999999 L 33.400000000000006,66.6 L 0.0,66.6 L 0.0,33.3 L 33.3,33.3 L 33.3,0.0 L 66.6,0.0 L 66.7,33.3" fill="#000000" stroke="none" stroke-width="2.0px" /></g><g transform="translate(126.56724240031434, 81.56724240031434) scale(0.16865515199371311) rotate(0, 50.0, 50.0)"><path d="M 66.7,33.3 L 100.0,33.3 L 100.0,66.6 L 66.7,66.6 L 66.7,99.89999999999999 L 33.400000000000006,99.89999999999999 L 33.400000000000006,66.6 L 0.0,66.6 L 0.0,33.3 L 33.3,33.3 L 33.3,0.0 L 66.6,0.0 L 66.7,33.3" fill="#000000" stroke="none" stroke-width="2.0px" /></g><g transform="translate(141.56724240031434, 91.56724240031434) scale(0.16865515199371311) rotate(0, 50.0, 50.0)"><path d="M 66.7,33.3 L 100.0,33.3 L 100.0,66.6 L 66.7,66.6 L 66.7,99.89999999999999 L 33.400000000000006,99.89999999999999 L 33.400000000000006,66.6 L 0.0,66.6 L 0.0,33.3 L 33.3,33.3 L 33.3,0.0 L 66.6,0.0 L 66.7,33.3" fill="#000000" stroke="none" stroke-width="2.0px" /></g></svg>