<?xml version="1.0" encoding="utf-8" ?>
<svg baseProfile="full" height="100px" version="1.1" width="150px" xmlns="http://www.w3.org/2000/svg" xmlns:ev="http://www.w3.org/2001/xml-events" xmlns:xlink="http://www.w3.org/1999/xlink"><defs><clipPath id="mask0"><rect height="100" width="150" x="0" y="0" /></clipPath></defs><g clip-path="url(#mask0)"><rect fill="#000000" height="33.333333333333336" stroke="none" width="150" x="0" y="0.0" /><rect fill="#CB001E" height="33.333333333333336" stroke="none" width="150" x="0" y="33.333333333333336" /><rect fill="#ff6602" height="33.333333333333336" stroke="none" width="150" x="0" y="66.66666666666667" /></g><g transform="translate(41.56948705132992, 16.569487051329922) scale(0.6686102589734015) rotate(0, 50.0, 50.0)"><path d="M 90.7,56.1 C 91.3,57.300000000000004 91.0,59.6 91.0,59.6 C 91.0,59.6 90.2,58.0 89.3,57.5 C 88.6,57.0 86.7,57.2 86.7,57.2 C 86.7,57.2 89.0,59.1 89.5,60.400000000000006 C 89.9,61.60000000000001 89.4,64.30000000000001 89.4,64.30000000000001 C 89.4,64.30000000000001 88.5,62.30000000000001 87.60000000000001,61.70000000000001 C 87.00000000000001,61.30000000000001 86.7,61.00000000000001 86.00000000000001,61.00000000000001 C 85.30000000000001,61.10000000000001 84.90000000000002,61.400000000000006 84.10000000000001,65.10000000000001 L 84.10000000000001,65.10000000000001 C 82.50000000000001,69.30000000000001 73.30000000000001,73.80000000000001 68.50000000000001,68.30000000000001 C 67.10000000000001,66.70000000000002 66.20000000000002,63.70000000000001 66.20000000000002,63.70000000000001 C 66.20000000000002,63.70000000000001 64.20000000000002,68.30000000000001 64.50000000000001,70.70000000000002 C 64.70000000000002,73.00000000000001 65.70000000000002,75.40000000000002 67.30000000000001,76.80000000000001 L 68.20000000000002,77.60000000000001 C 68.20000000000002,77.60000000000001 69.70000000000002,77.00000000000001 70.50000000000001,77.10000000000001 C 71.10000000000001,77.2 71.90000000000002,77.50000000000001 72.20000000000002,78.10000000000001 C 72.40000000000002,78.7 72.10000000000002,79.4 71.80000000000001,79.9 C 71.50000000000001,80.5 70.30000000000001,81.5 70.30000000000001,81.5 C 70.30000000000001,81.5 71.80000000000001,82.8 72.00000000000001,83.8 C 72.30000000000001,85.3 71.40000000000002,87.39999999999999 71.40000000000002,87.39999999999999 C 71.40000000000002,87.39999999999999 71.00000000000001,85.69999999999999 70.00000000000001,84.99999999999999 C 69.20000000000002,84.39999999999999 67.10000000000001,84.99999999999999 67.10000000000001,84.99999999999999 C 67.10000000000001,84.99999999999999 68.60000000000001,85.69999999999999 68.9,86.39999999999999 C 69.5,87.89999999999999 68.7,90.69999999999999 68.7,90.69999999999999 C 68.7,90.69999999999999 67.60000000000001,88.6 66.5,88.1 C 65.9,87.8 64.6,88.1 64.6,88.1 C 64.6,88.1 66.19999999999999,89.5 66.39999999999999,90.5 C 66.6,91.8 66.3,93.8 66.3,93.8 C 66.3,93.8 65.39999999999999,91.89999999999999 64.6,91.39999999999999 C 63.8,90.89999999999999 62.199999999999996,91.3 62.199999999999996,91.3 C 62.199999999999996,91.3 63.49999999999999,92.39999999999999 63.699999999999996,93.1 C 64.1,94.39999999999999 63.699999999999996,96.0 63.699999999999996,96.0 C 63.699999999999996,96.0 62.3,94.7 61.4,94.2 C 61.1,94.0 60.199999999999996,94.2 60.199999999999996,94.2 C 60.199999999999996,94.2 59.599999999999994,97.9 58.199999999999996,98.9 C 57.4,99.5 55.99999999999999,99.60000000000001 55.099999999999994,99.0 C 54.49999999999999,98.6 54.3,97.7 54.199999999999996,97.0 C 54.099999999999994,96.5 54.49999999999999,95.7 54.49999999999999,95.7 C 54.49999999999999,95.7 53.099999999999994,96.0 52.49999999999999,96.0 C 51.49999999999999,95.9 50.599999999999994,96.0 50.099999999999994,95.2 C 49.699999999999996,94.60000000000001 49.699999999999996,93.7 49.99999999999999,93.0 C 50.199999999999996,92.4 51.199999999999996,91.6 51.199999999999996,91.6 C 51.199999999999996,91.6 50.099999999999994,91.0 49.8,90.19999999999999 C 49.5,89.29999999999998 49.5,88.49999999999999 50.199999999999996,87.89999999999999 C 50.9,87.19999999999999 52.199999999999996,87.6 53.099999999999994,87.89999999999999 C 54.3,88.3 55.39999999999999,89.49999999999999 55.39999999999999,89.49999999999999 C 55.39999999999999,89.49999999999999 57.099999999999994,86.49999999999999 58.19999999999999,85.09999999999998 C 59.09999999999999,83.99999999999999 61.39999999999999,82.39999999999998 61.39999999999999,82.39999999999998 L 60.6,81.0 C 60.6,81.0 56.9,79.0 55.300000000000004,77.7 C 54.00000000000001,76.60000000000001 52.50000000000001,75.4 51.800000000000004,73.8 C 51.2,72.6 51.00000000000001,71.1 51.300000000000004,69.8 C 51.400000000000006,69.1 51.7,68.3 52.00000000000001,67.6 C 50.60000000000001,67.89999999999999 45.70000000000001,67.6 41.60000000000001,67.39999999999999 C 40.00000000000001,67.3 41.900000000000006,72.1 41.900000000000006,72.1 C 41.900000000000006,72.1 43.10000000000001,73.0 43.60000000000001,73.8 C 44.10000000000001,74.5 44.30000000000001,75.39999999999999 43.900000000000006,76.2 C 43.50000000000001,77.0 42.400000000000006,77.3 41.400000000000006,77.5 C 40.50000000000001,77.7 39.2,77.1 39.2,77.1 C 39.6,77.8 40.0,78.5 39.900000000000006,79.3 C 39.7,80.6 37.00000000000001,82.2 37.00000000000001,82.2 C 37.00000000000001,82.2 37.50000000000001,80.9 37.300000000000004,80.3 C 37.1,79.6 36.300000000000004,78.6 36.300000000000004,78.6 C 36.300000000000004,78.6 36.2,79.69999999999999 36.00000000000001,80.19999999999999 C 35.400000000000006,81.69999999999999 32.300000000000004,83.1 32.300000000000004,83.1 C 32.300000000000004,83.1 33.00000000000001,81.6 33.00000000000001,80.8 C 33.00000000000001,80.0 32.10000000000001,79.3 32.10000000000001,79.3 C 32.10000000000001,79.3 31.800000000000008,80.6 31.20000000000001,81.3 C 30.50000000000001,82.2 28.30000000000001,83.2 28.30000000000001,83.2 C 28.30000000000001,83.2 28.80000000000001,82.0 28.80000000000001,81.3 C 28.80000000000001,80.7 28.50000000000001,79.5 28.50000000000001,79.5 C 28.50000000000001,79.5 27.20000000000001,81.5 26.50000000000001,82.2 C 25.600000000000012,83.0 23.600000000000012,83.60000000000001 23.600000000000012,83.60000000000001 C 23.600000000000012,83.60000000000001 24.80000000000001,81.50000000000001 24.400000000000013,80.50000000000001 C 24.000000000000014,79.50000000000001 21.400000000000013,79.00000000000001 21.400000000000013,79.00000000000001 C 21.400000000000013,79.00000000000001 18.600000000000012,80.30000000000001 16.80000000000001,80.60000000000001 C 15.900000000000011,80.7 14.700000000000012,80.9 14.100000000000012,80.2 C 13.300000000000011,79.3 13.200000000000012,78.5 13.600000000000012,77.4 C 13.800000000000011,76.80000000000001 15.300000000000011,76.0 15.300000000000011,76.0 C 15.300000000000011,76.0 14.200000000000012,75.4 13.900000000000011,75.0 C 13.300000000000011,74.2 13.400000000000011,73.3 13.800000000000011,72.5 C 14.200000000000012,71.6 15.100000000000012,71.3 16.100000000000012,71.3 C 16.80000000000001,71.3 18.00000000000001,72.2 18.00000000000001,72.2 C 18.00000000000001,72.2 18.30000000000001,69.8 19.20000000000001,69.4 C 20.10000000000001,69.0 21.60000000000001,70.30000000000001 21.60000000000001,70.30000000000001 L 23.40000000000001,74.60000000000001 C 23.40000000000001,74.60000000000001 26.300000000000008,74.2 27.80000000000001,73.80000000000001 C 29.80000000000001,73.20000000000002 32.90000000000001,71.4 32.90000000000001,71.4 C 34.30000000000001,70.60000000000001 31.200000000000014,68.4 30.100000000000012,67.2 C 29.30000000000001,66.3 28.700000000000014,65.10000000000001 28.700000000000014,65.10000000000001 C 27.900000000000013,63.80000000000001 30.800000000000015,61.70000000000001 32.90000000000001,60.30000000000001 C 35.600000000000016,58.500000000000014 38.70000000000001,56.80000000000001 41.500000000000014,56.30000000000001 C 44.80000000000001,55.70000000000001 51.40000000000001,54.80000000000001 55.000000000000014,54.40000000000001 C 53.6,53.0 50.0,51.8 50.0,51.8 C 51.4,51.4 52.9,51.199999999999996 54.6,51.3 C 52.800000000000004,50.4 50.9,49.599999999999994 49.2,48.699999999999996 C 46.900000000000006,47.49999999999999 46.1,44.9 44.1,43.8 C 43.1,43.199999999999996 41.6,43.599999999999994 41.6,43.599999999999994 C 41.6,43.599999999999994 40.0,45.699999999999996 38.9,46.3 C 37.8,46.9 35.199999999999996,47.4 35.199999999999996,47.4 C 35.199999999999996,47.4 35.99999999999999,46.199999999999996 36.199999999999996,45.699999999999996 C 36.4,45.099999999999994 36.3,43.9 36.3,43.9 C 36.3,43.9 35.199999999999996,45.6 34.3,46.199999999999996 C 33.099999999999994,46.9 30.4,47.49999999999999 30.4,47.49999999999999 C 30.4,47.49999999999999 31.099999999999998,45.99999999999999 31.4,45.29999999999999 C 31.7,44.69999999999999 31.7,43.69999999999999 31.7,43.69999999999999 C 31.7,43.69999999999999 29.9,45.89999999999999 28.599999999999998,46.499999999999986 C 27.2,47.19999999999999 24.199999999999996,47.499999999999986 24.199999999999996,47.499999999999986 C 24.199999999999996,47.499999999999986 25.799999999999997,46.19999999999999 26.399999999999995,45.399999999999984 C 26.899999999999995,44.79999999999998 26.999999999999996,43.59999999999999 26.999999999999996,43.59999999999999 C 26.999999999999996,43.59999999999999 24.399999999999995,45.999999999999986 22.499999999999996,46.69999999999999 C 21.599999999999998,46.999999999999986 19.599999999999998,46.89999999999999 19.599999999999998,46.89999999999999 C 19.599999999999998,46.89999999999999 21.599999999999998,44.99999999999999 22.099999999999998,43.79999999999999 C 22.299999999999997,43.29999999999999 22.2,42.79999999999999 22.099999999999998,42.29999999999999 C 21.9,41.69999999999999 21.7,40.99999999999999 21.099999999999998,40.59999999999999 C 20.4,40.19999999999999 18.7,40.399999999999984 18.7,40.399999999999984 C 18.7,40.399999999999984 17.599999999999998,41.79999999999998 16.599999999999998,42.09999999999999 C 15.499999999999998,42.499999999999986 14.599999999999998,42.499999999999986 13.699999999999998,41.69999999999999 C 12.999999999999998,40.999999999999986 12.699999999999998,39.69999999999999 12.999999999999998,38.79999999999999 C 13.199999999999998,38.09999999999999 14.199999999999998,37.59999999999999 14.199999999999998,37.59999999999999 C 14.199999999999998,37.59999999999999 13.099999999999998,37.59999999999999 12.599999999999998,37.399999999999984 C 11.499999999999998,36.899999999999984 10.899999999999999,35.59999999999999 10.899999999999999,34.399999999999984 C 10.899999999999999,33.399999999999984 11.499999999999998,32.79999999999998 12.399999999999999,32.29999999999998 C 13.2,31.899999999999984 15.2,32.29999999999998 15.2,32.29999999999998 C 15.2,32.29999999999998 14.899999999999999,30.399999999999984 15.6,29.899999999999984 C 16.2,29.299999999999983 17.4,29.499999999999986 18.1,29.899999999999984 C 19.1,30.399999999999984 19.1,31.599999999999984 19.5,32.59999999999999 L 20.7,35.19999999999999 C 20.7,35.19999999999999 26.799999999999997,35.39999999999999 30.0,35.59999999999999 C 33.0,35.69999999999999 36.5,36.59999999999999 39.6,36.499999999999986 C 39.800000000000004,36.499999999999986 40.1,36.399999999999984 40.4,36.399999999999984 C 40.4,36.399999999999984 40.4,36.399999999999984 40.4,36.399999999999984 L 41.199999999999996,36.09999999999999 C 40.599999999999994,35.999999999999986 40.099999999999994,35.79999999999999 39.699999999999996,35.59999999999999 C 38.699999999999996,34.899999999999984 37.699999999999996,32.69999999999999 37.699999999999996,32.69999999999999 C 37.699999999999996,32.69999999999999 35.199999999999996,32.999999999999986 34.099999999999994,32.69999999999999 C 32.89999999999999,32.39999999999999 31.199999999999996,30.79999999999999 31.199999999999996,30.79999999999999 C 32.3,30.69999999999999 33.199999999999996,30.49999999999999 34.3,29.59999999999999 C 34.3,29.59999999999999 32.099999999999994,29.39999999999999 30.9,28.79999999999999 C 29.799999999999997,28.29999999999999 28.099999999999998,26.69999999999999 28.099999999999998,26.69999999999999 C 29.099999999999998,26.49999999999999 30.2,26.599999999999987 30.999999999999996,25.49999999999999 C 30.999999999999996,25.49999999999999 28.899999999999995,25.399999999999988 27.899999999999995,24.99999999999999 C 26.899999999999995,24.59999999999999 25.399999999999995,23.09999999999999 25.399999999999995,23.09999999999999 C 26.599999999999994,22.99999999999999 27.699999999999996,22.89999999999999 28.399999999999995,21.89999999999999 C 28.399999999999995,21.89999999999999 26.199999999999996,21.89999999999999 25.299999999999994,21.499999999999993 C 23.999999999999993,20.89999999999999 22.099999999999994,18.999999999999993 22.099999999999994,18.999999999999993 C 23.299999999999994,18.89999999999999 24.499999999999993,18.89999999999999 25.399999999999995,18.199999999999992 L 25.0,16.6 C 24.2,14.8 22.5,15.3 21.3,14.8 C 20.2,14.3 19.6,12.9 19.5,12.200000000000001 C 19.4,10.9 20.0,8.900000000000002 22.8,9.400000000000002 C 21.5,7.100000000000002 22.900000000000002,5.500000000000002 24.3,4.900000000000002 C 25.7,4.3000000000000025 26.900000000000002,4.600000000000002 27.900000000000002,7.100000000000002 C 27.900000000000002,7.100000000000002 29.200000000000003,6.000000000000002 29.900000000000002,5.900000000000002 C 30.900000000000002,5.700000000000002 31.900000000000002,6.100000000000002 32.300000000000004,7.100000000000002 C 32.400000000000006,7.500000000000003 32.50000000000001,8.400000000000002 32.2,8.800000000000002 C 31.800000000000004,9.600000000000003 31.000000000000004,10.100000000000003 30.700000000000003,11.200000000000003 C 30.400000000000002,12.500000000000004 31.500000000000004,14.800000000000002 31.500000000000004,14.800000000000002 C 31.500000000000004,14.800000000000002 36.7,19.6 39.2,22.1 C 40.5,23.5 42.800000000000004,26.400000000000002 42.800000000000004,26.400000000000002 L 42.900000000000006,26.3 L 44.300000000000004,26.400000000000002 C 44.7,25.8 45.300000000000004,25.400000000000002 45.800000000000004,25.000000000000004 C 46.400000000000006,24.600000000000005 48.1,24.400000000000002 48.400000000000006,23.800000000000004 L 48.900000000000006,22.900000000000006 L 47.400000000000006,23.500000000000007 L 45.60000000000001,22.900000000000006 L 47.20000000000001,21.400000000000006 L 47.20000000000001,20.100000000000005 C 47.20000000000001,20.100000000000005 48.20000000000001,20.900000000000006 48.80000000000001,21.000000000000004 C 49.70000000000001,21.100000000000005 50.500000000000014,20.500000000000004 51.40000000000001,20.400000000000002 C 52.80000000000001,20.200000000000003 54.20000000000001,20.700000000000003 55.500000000000014,20.400000000000002 C 56.70000000000002,20.1 58.000000000000014,19.700000000000003 58.80000000000001,18.700000000000003 C 59.80000000000001,17.400000000000002 60.10000000000001,13.900000000000002 60.10000000000001,13.900000000000002 L 60.60000000000001,14.500000000000002 L 60.80000000000001,17.0 L 60.20000000000001,19.7 L 58.20000000000001,21.5 L 55.90000000000001,22.3 L 52.9,22.0 L 51.0,22.0 L 49.3,22.9 L 49.1,23.0 C 49.2,23.3 49.4,23.8 49.4,24.2 C 49.4,24.8 49.3,25.599999999999998 48.8,26.0 C 48.599999999999994,26.2 48.0,26.4 47.5,26.6 L 48.2,26.6 L 48.400000000000006,31.200000000000003 L 49.800000000000004,30.000000000000004 L 50.300000000000004,30.000000000000004 C 51.2,29.100000000000005 51.900000000000006,28.300000000000004 51.900000000000006,28.300000000000004 C 51.900000000000006,28.300000000000004 51.50000000000001,29.000000000000004 51.00000000000001,30.000000000000004 L 57.20000000000001,30.300000000000004 C 57.30000000000001,29.700000000000003 57.30000000000001,29.300000000000004 57.30000000000001,29.300000000000004 C 57.30000000000001,29.300000000000004 57.40000000000001,29.700000000000003 57.500000000000014,30.300000000000004 L 61.600000000000016,30.500000000000004 C 61.600000000000016,30.500000000000004 61.40000000000001,32.2 61.600000000000016,33.5 C 61.70000000000002,34.0 61.80000000000002,34.6 62.000000000000014,35.2 C 62.100000000000016,35.0 62.100000000000016,34.900000000000006 62.20000000000002,34.7 C 62.80000000000002,32.6 60.500000000000014,23.200000000000003 60.500000000000014,23.200000000000003 L 64.80000000000001,30.700000000000003 C 64.80000000000001,30.700000000000003 64.70000000000002,28.800000000000004 65.10000000000001,27.900000000000002 C 65.4,27.1 65.80000000000001,26.8 65.9,26.000000000000004 C 66.2,24.100000000000005 62.900000000000006,18.200000000000003 62.900000000000006,18.200000000000003 L 67.5,21.6 C 67.5,21.6 67.3,18.700000000000003 66.9,17.3 C 66.60000000000001,16.2 65.60000000000001,14.100000000000001 65.60000000000001,14.100000000000001 C 65.60000000000001,14.100000000000001 67.60000000000001,15.3 68.10000000000001,16.3 C 69.10000000000001,18.1 67.9,20.1 68.9,21.9 C 69.2,22.5 70.0,22.9 70.0,22.9 C 70.0,22.9 69.1,23.7 68.3,23.5 C 67.6,23.3 66.7,23.0 66.7,23.0 C 66.7,23.0 68.2,24.8 68.3,26.3 C 68.39999999999999,28.1 66.39999999999999,29.400000000000002 66.3,31.200000000000003 C 66.2,32.400000000000006 67.1,34.800000000000004 67.1,34.800000000000004 C 67.1,34.800000000000004 66.0,34.400000000000006 65.39999999999999,34.00000000000001 C 64.89999999999999,33.60000000000001 63.99999999999999,32.50000000000001 63.99999999999999,32.50000000000001 L 64.5,35.00000000000001 C 64.7,35.900000000000006 63.4,36.60000000000001 62.6,37.400000000000006 C 62.800000000000004,38.10000000000001 63.0,38.800000000000004 63.1,39.400000000000006 C 63.5,42.10000000000001 62.7,45.00000000000001 63.4,47.7 C 64.2,50.300000000000004 66.5,51.900000000000006 67.5,54.400000000000006 C 68.7,57.400000000000006 68.5,61.50000000000001 69.8,64.4 C 70.5,65.9 70.6,66.60000000000001 72.1,67.4 C 73.3,68.0 74.89999999999999,67.9 76.1,67.4 C 77.1,67.0 81.3,63.400000000000006 81.6,62.400000000000006 C 82.5,58.2 82.89999999999999,60.10000000000001 83.3,54.10000000000001 C 83.6,48.400000000000006 80.8,47.400000000000006 79.0,46.400000000000006 C 76.5,45.10000000000001 75.2,41.300000000000004 75.2,41.300000000000004 C 74.60000000000001,40.50000000000001 73.5,40.00000000000001 72.5,40.00000000000001 C 71.9,40.00000000000001 71.2,40.300000000000004 70.8,40.70000000000001 C 70.1,41.40000000000001 69.5,43.50000000000001 69.5,43.50000000000001 C 69.5,43.50000000000001 68.7,41.20000000000001 69.0,40.00000000000001 C 69.3,38.900000000000006 70.2,37.800000000000004 71.3,37.300000000000004 C 72.89999999999999,36.50000000000001 74.89999999999999,36.50000000000001 74.89999999999999,36.50000000000001 C 74.89999999999999,36.50000000000001 72.69999999999999,34.50000000000001 71.6,32.50000000000001 C 70.69999999999999,30.900000000000006 70.3,27.800000000000008 70.3,27.800000000000008 C 70.1,25.500000000000007 70.89999999999999,22.800000000000008 72.3,20.900000000000006 C 74.0,18.400000000000006 77.3,16.500000000000007 77.3,16.500000000000007 C 77.3,16.500000000000007 76.3,18.60000000000001 75.7,20.700000000000006 C 75.0,22.3 75.0,24.1 75.0,24.1 C 75.0,24.1 76.0,22.8 77.0,21.900000000000002 C 78.3,20.6 81.0,18.700000000000003 81.0,18.700000000000003 C 81.0,18.700000000000003 78.8,22.400000000000002 78.3,24.700000000000003 C 78.0,25.700000000000003 78.2,26.800000000000004 78.39999999999999,27.800000000000004 C 78.8,29.400000000000006 79.89999999999999,31.700000000000003 80.39999999999999,33.300000000000004 C 81.19999999999999,35.50000000000001 82.1,36.00000000000001 83.39999999999999,37.900000000000006 C 89.39999999999999,47.00000000000001 86.6,50.2 86.6,50.2 C 86.6,50.2 89.3,48.800000000000004 90.89999999999999,51.1 C 91.89999999999999,52.5 91.99999999999999,55.1 91.99999999999999,55.1 C 91.99999999999999,55.1 90.69999999999999,53.4 89.69999999999999,53.0 C 88.99999999999999,52.7 87.49999999999999,53.4 87.49999999999999,53.4 C 87.49999999999999,53.4 90.1,54.9 90.7,56.1 M 69.3,10.6 C 66.89999999999999,10.299999999999999 65.39999999999999,10.5 64.2,12.7 C 67.4,14.2 68.5,12.3 69.3,10.6 M 47.2,20.2 L 47.2,20.2 L 47.2,20.2 L 47.2,20.2 M 49.9,8.9 L 46.199999999999996,9.1 L 45.9,11.2 C 45.9,11.2 47.6,11.1 48.3,10.799999999999999 C 49.4,10.4 49.9,8.9 49.9,8.9" fill="#0066cc" stroke="none" stroke-width="0px" /><path d="M 66.8,17.4 C 66.5,16.299999999999997 65.5,14.2 65.5,14.2 C 65.5,14.2 65.7,14.299999999999999 65.9,14.5 C 65.9,14.5 65.9,14.5 65.9,14.5 C 65.7,14.3 65.5,14.2 65.5,14.2 C 65.5,14.2 67.1,14.1 67.6,13.7 C 68.0,13.399999999999999 68.5,13.399999999999999 69.0,13.0 C 69.6,12.4 70.2,11.1 70.3,10.4 C 70.3,10.200000000000001 69.3,9.4 68.3,9.3 C 67.5,9.200000000000001 66.8,9.9 66.8,9.700000000000001 C 66.7,9.3 67.89999999999999,8.4 68.0,7.900000000000001 C 68.2,6.800000000000001 67.5,6.200000000000001 67.5,6.200000000000001 C 66.4,6.500000000000001 66.5,7.100000000000001 65.9,7.300000000000001 C 65.4,7.500000000000001 64.10000000000001,7.4 63.60000000000001,7.6000000000000005 C 59.2,6.2 54.3,6.0 52.1,8.9 L 49.9,9.0 C 49.8,9.3 49.199999999999996,10.4 48.4,10.8 C 47.699999999999996,11.100000000000001 46.0,11.200000000000001 46.0,11.200000000000001 C 45.9,12.100000000000001 45.8,12.9 46.4,13.8 C 46.9,14.600000000000001 47.8,15.100000000000001 48.8,14.9 C 49.9,14.8 53.699999999999996,13.3 54.099999999999994,14.4 L 54.39999999999999,15.200000000000001 C 54.79999999999999,16.400000000000002 54.19999999999999,17.8 52.99999999999999,18.6 C 51.699999999999996,19.400000000000002 48.79999999999999,18.8 48.79999999999999,18.8 C 48.79999999999999,18.8 47.39999999999999,19.1 47.19999999999999,19.8 C 47.19999999999999,19.900000000000002 47.19999999999999,20.1 47.19999999999999,20.2 C 47.19999999999999,20.2 47.29999999999999,20.2 47.29999999999999,20.3 L 47.29999999999999,20.2 L 47.29999999999999,20.2 L 47.29999999999999,20.2 L 47.29999999999999,20.2 C 47.29999999999999,20.2 48.29999999999999,21.0 48.89999999999999,21.099999999999998 C 49.79999999999999,21.2 50.599999999999994,20.599999999999998 51.49999999999999,20.499999999999996 C 52.89999999999999,20.299999999999997 54.29999999999999,20.799999999999997 55.599999999999994,20.499999999999996 C 56.8,20.199999999999996 58.099999999999994,19.799999999999997 58.89999999999999,18.799999999999997 C 59.89999999999999,17.499999999999996 60.19999999999999,13.999999999999996 60.19999999999999,13.999999999999996 L 60.69999999999999,14.599999999999996 L 60.89999999999999,17.099999999999994 L 60.29999999999999,19.799999999999994 L 58.29999999999999,21.599999999999994 L 55.99999999999999,22.399999999999995 L 52.9,22.0 L 51.0,22.0 L 49.3,22.9 L 49.1,23.0 C 49.2,23.3 49.4,23.8 49.4,24.2 C 49.4,24.8 49.3,25.599999999999998 48.8,26.0 C 48.199999999999996,26.6 45.599999999999994,27.0 45.599999999999994,27.8 C 45.599999999999994,28.900000000000002 45.599999999999994,29.2 45.3,30.3 L 47.8,29.5 C 47.8,29.5 45.8,32.2 45.199999999999996,33.5 C 45.0,33.9 45.0,34.7 45.0,34.7 C 45.0,34.7 46.4,33.300000000000004 47.2,32.800000000000004 C 47.800000000000004,32.50000000000001 51.900000000000006,28.300000000000004 51.900000000000006,28.300000000000004 C 51.900000000000006,28.300000000000004 48.00000000000001,35.00000000000001 48.400000000000006,36.400000000000006 C 48.7,37.60000000000001 50.10000000000001,38.50000000000001 50.50000000000001,39.7 C 50.60000000000001,40.1 50.60000000000001,41.0 50.60000000000001,41.0 C 50.60000000000001,41.0 53.900000000000006,39.7 55.00000000000001,38.5 C 56.50000000000001,36.9 57.400000000000006,29.3 57.400000000000006,29.3 C 57.400000000000006,29.3 58.800000000000004,35.6 59.800000000000004,36.8 C 60.1,37.099999999999994 60.7,37.699999999999996 60.7,37.699999999999996 C 60.7,37.699999999999996 61.900000000000006,35.9 62.2,34.699999999999996 C 62.800000000000004,32.599999999999994 60.5,23.199999999999996 60.5,23.199999999999996 L 64.8,30.699999999999996 C 64.8,30.699999999999996 64.7,28.799999999999997 65.1,27.899999999999995 C 65.39999999999999,27.099999999999994 65.8,26.799999999999994 65.89999999999999,25.999999999999996 C 66.19999999999999,24.099999999999998 62.89999999999999,18.199999999999996 62.89999999999999,18.199999999999996 L 67.49999999999999,21.599999999999994 C 67.4,21.7 67.2,18.8 66.8,17.4 M 55.6,11.7 C 54.300000000000004,11.7 53.300000000000004,10.799999999999999 53.300000000000004,10.0 C 53.300000000000004,9.1 54.2,8.9 55.50000000000001,8.9 C 56.800000000000004,8.9 57.60000000000001,9.3 57.60000000000001,10.200000000000001 C 57.7,11.0 56.9,11.7 55.6,11.7 M 69.3,10.6 C 68.5,12.299999999999999 67.39999999999999,14.2 64.2,12.7 C 65.5,10.5 66.9,10.3 69.3,10.6 M 68.2,81.6 L 69.8,83.3 L 64.2,84.6 L 66.60000000000001,86.69999999999999 L 62.00000000000001,86.79999999999998 L 64.5,90.19999999999999 L 59.8,90.19999999999999 L 62.199999999999996,92.69999999999999 L 59.99999999999999,92.79999999999998 C 59.99999999999999,92.79999999999998 59.29999999999999,95.99999999999999 58.199999999999996,96.99999999999999 C 57.8,97.39999999999999 57.099999999999994,97.79999999999998 56.599999999999994,97.49999999999999 C 56.199999999999996,97.19999999999999 56.599999999999994,96.49999999999999 56.599999999999994,95.89999999999999 L 56.599999999999994,93.8 C 56.599999999999994,93.8 54.699999999999996,94.3 53.699999999999996,94.3 C 52.99999999999999,94.3 52.099999999999994,94.7 51.699999999999996,94.2 C 51.3,93.5 52.699999999999996,91.8 52.699999999999996,91.8 C 52.699999999999996,91.8 51.3,90.6 50.99999999999999,89.7 C 50.89999999999999,89.5 50.79999999999999,89.10000000000001 50.99999999999999,88.9 C 51.39999999999999,88.5 52.199999999999996,88.7 52.699999999999996,88.9 C 53.99999999999999,89.30000000000001 56.099999999999994,91.10000000000001 56.099999999999994,91.10000000000001 L 58.8,86.30000000000001 L 63.5,82.50000000000001 C 63.5,82.50000000000001 62.8,80.40000000000002 62.1,79.50000000000001 C 59.9,77.0 55.7,76.0 54.2,73.0 C 53.7,71.9 53.7,71.0 54.1,69.9 C 54.6,68.10000000000001 56.1,66.60000000000001 57.2,65.10000000000001 C 58.5,63.30000000000001 60.800000000000004,62.10000000000001 61.5,60.00000000000001 C 62.1,58.10000000000001 61.8,55.900000000000006 61.0,54.10000000000001 C 60.4,52.70000000000001 59.2,51.60000000000001 58.0,50.70000000000001 C 55.8,49.10000000000001 52.6,49.10000000000001 50.5,47.30000000000001 C 50.0,46.90000000000001 49.6,45.70000000000001 49.6,45.70000000000001 C 49.6,45.70000000000001 55.300000000000004,44.30000000000001 57.300000000000004,42.40000000000001 C 57.900000000000006,41.90000000000001 58.2,40.80000000000001 58.2,40.80000000000001 L 61.2,42.000000000000014 C 61.2,42.000000000000014 61.0,46.20000000000002 61.6,48.100000000000016 C 62.0,49.500000000000014 62.7,50.600000000000016 63.4,51.90000000000001 C 64.2,53.20000000000001 65.6,54.20000000000001 65.9,55.70000000000001 C 66.2,57.20000000000001 66.2,58.90000000000001 65.80000000000001,60.40000000000001 C 65.20000000000002,62.600000000000016 63.000000000000014,65.10000000000001 62.500000000000014,67.30000000000001 C 62.20000000000002,69.10000000000001 62.100000000000016,70.9 62.500000000000014,72.70000000000002 C 63.000000000000014,75.00000000000001 66.20000000000002,78.50000000000001 66.20000000000002,78.50000000000001 L 67.80000000000001,79.30000000000001 C 67.80000000000001,79.30000000000001 69.70000000000002,78.50000000000001 70.00000000000001,79.20000000000002 C 70.5,80.0 68.2,81.6 68.2,81.6 M 40.5,66.3 C 39.6,66.5 39.4,67.6 39.3,68.5 C 39.099999999999994,70.0 40.5,72.9 40.5,72.9 C 40.5,72.9 41.7,73.9 42.0,74.5 C 42.2,74.9 42.5,75.5 42.2,75.8 C 42.0,76.2 41.5,76.0 41.1,76.0 C 40.0,76.0 37.9,75.5 37.9,75.5 L 38.4,78.8 L 35.8,76.7 L 34.4,79.8 L 31.599999999999998,77.5 L 30.299999999999997,80.5 L 28.999999999999996,77.4 L 26.0,80.8 L 25.7,79.1 L 21.7,77.69999999999999 C 21.7,77.69999999999999 18.4,79.1 16.7,79.49999999999999 C 16.2,79.59999999999998 15.399999999999999,79.69999999999999 15.1,79.29999999999998 C 14.7,79.0 15.0,78.5 15.2,78.0 C 15.7,77.0 18.099999999999998,76.1 18.099999999999998,76.1 C 18.099999999999998,76.1 15.799999999999997,75.0 15.199999999999998,74.3 C 14.899999999999997,74.0 14.999999999999998,73.5 15.199999999999998,73.2 C 15.499999999999998,72.60000000000001 16.099999999999998,72.7 16.799999999999997,72.7 C 17.799999999999997,72.7 19.699999999999996,73.7 19.699999999999996,73.7 C 19.699999999999996,73.7 19.199999999999996,71.3 20.099999999999994,70.9 C 20.399999999999995,70.80000000000001 20.799999999999994,71.2 20.999999999999993,71.5 C 22.099999999999994,72.7 23.099999999999994,75.9 23.099999999999994,75.9 C 23.099999999999994,75.9 25.999999999999993,76.0 27.699999999999996,75.7 C 29.999999999999996,75.2 31.799999999999997,74.7 33.699999999999996,73.4 C 34.599999999999994,72.80000000000001 35.49999999999999,72.2 35.49999999999999,70.9 C 35.599999999999994,68.7 33.199999999999996,67.9 31.999999999999993,66.10000000000001 C 31.699999999999992,65.60000000000001 31.39999999999999,64.30000000000001 31.39999999999999,64.30000000000001 C 31.39999999999999,64.30000000000001 34.89999999999999,61.40000000000001 36.89999999999999,60.30000000000001 C 38.69999999999999,59.30000000000001 40.69999999999999,58.40000000000001 42.79999999999999,58.10000000000001 C 44.19999999999999,57.900000000000006 49.49999999999999,56.70000000000001 50.69999999999999,57.400000000000006 C 51.59999999999999,57.900000000000006 52.19999999999999,58.900000000000006 52.29999999999999,60.00000000000001 C 52.39999999999999,61.00000000000001 50.49999999999999,61.70000000000001 50.89999999999999,62.60000000000001 L 51.99999999999999,65.4 C 52.2,67.2 42.8,65.9 40.5,66.3 M 83.2,43.1 L 82.5,46.4 C 82.5,46.4 79.4,44.4 78.3,43.0 C 77.39999999999999,41.9 76.89999999999999,40.4 75.89999999999999,39.4 C 75.19999999999999,38.8 74.1,38.5 73.1,38.5 C 72.0,38.5 71.39999999999999,38.5 70.6,39.4 C 69.8,40.3 69.39999999999999,42.699999999999996 69.39999999999999,42.699999999999996 L 68.69999999999999,40.4 L 70.29999999999998,38.1 L 74.29999999999998,36.300000000000004 L 71.99999999999999,33.6 L 70.0,28.7 L 70.3,24.4 L 73.3,19.4 L 76.89999999999999,16.799999999999997 L 75.6,20.599999999999998 L 75.0,24.0 L 77.5,21.4 L 81.1,18.7 L 79.0,23.1 L 78.3,26.1 L 78.5,28.400000000000002 L 80.2,32.7 L 81.8,35.400000000000006 L 83.0,38.400000000000006 L 83.2,43.300000000000004 L 83.2,43.1 M 14.4,40.4 C 14.1,40.1 14.200000000000001,39.4 14.4,39.0 C 14.8,38.0 17.2,37.2 17.2,37.2 C 17.2,37.2 14.399999999999999,36.800000000000004 13.399999999999999,36.0 C 12.999999999999998,35.7 12.499999999999998,35.3 12.499999999999998,34.8 C 12.499999999999998,34.3 12.899999999999999,33.9 13.399999999999999,33.699999999999996 C 14.499999999999998,33.199999999999996 16.599999999999998,33.99999999999999 16.599999999999998,33.99999999999999 C 16.599999999999998,33.99999999999999 15.999999999999998,32.099999999999994 16.599999999999998,31.499999999999993 C 16.9,31.199999999999992 17.4,31.299999999999994 17.7,31.499999999999993 C 18.099999999999998,31.799999999999994 18.099999999999998,32.49999999999999 18.099999999999998,32.49999999999999 L 19.799999999999997,36.99999999999999 C 19.799999999999997,36.99999999999999 26.099999999999998,36.599999999999994 29.599999999999998,36.99999999999999 C 31.9,37.29999999999999 37.5,38.29999999999999 37.5,38.29999999999999 C 37.5,38.29999999999999 39.2,37.79999999999999 40.1,37.89999999999999 C 41.1,37.89999999999999 42.0,38.79999999999999 43.1,38.69999999999999 C 43.800000000000004,38.59999999999999 44.9,37.79999999999999 44.9,37.79999999999999 C 44.9,37.79999999999999 45.0,38.79999999999999 45.199999999999996,39.19999999999999 C 45.699999999999996,40.29999999999999 47.3,40.69999999999999 47.599999999999994,41.89999999999999 C 47.89999999999999,42.79999999999999 47.3,44.69999999999999 47.3,44.69999999999999 C 47.3,44.69999999999999 45.599999999999994,43.39999999999999 44.599999999999994,42.89999999999999 C 43.8,42.49999999999999 41.99999999999999,41.99999999999999 41.99999999999999,41.99999999999999 C 41.99999999999999,41.99999999999999 40.0,43.7 39.0,44.4 C 38.5,44.8 37.3,45.4 37.3,45.4 C 37.599999999999994,44.3 37.9,43.1 36.9,41.699999999999996 L 32.5,45.49999999999999 C 33.0,44.099999999999994 33.6,42.699999999999996 32.5,41.29999999999999 L 27.7,45.49999999999999 C 28.4,43.89999999999999 29.0,42.39999999999999 28.4,40.79999999999999 L 23.4,44.79999999999999 C 23.4,44.79999999999999 23.5,44.19999999999999 23.5,43.79999999999999 C 23.5,43.19999999999999 23.6,42.59999999999999 23.5,41.99999999999999 C 23.3,41.099999999999994 23.1,40.099999999999994 22.4,39.599999999999994 C 21.4,38.8 18.599999999999998,38.699999999999996 18.599999999999998,38.699999999999996 C 18.599999999999998,38.699999999999996 17.2,40.199999999999996 16.299999999999997,40.4 C 15.7,40.7 14.8,40.9 14.4,40.4 M 20.7,11.9 C 20.7,11.4 20.9,10.9 21.2,10.700000000000001 C 22.099999999999998,10.100000000000001 24.5,10.8 24.5,10.8 C 24.5,10.8 23.4,8.100000000000001 23.8,6.800000000000001 C 23.900000000000002,6.4 24.3,6.1000000000000005 24.6,5.9 C 25.0,5.7 25.5,5.7 25.8,6.0 C 26.7,6.5 27.7,8.5 27.7,8.5 C 27.7,8.5 29.4,7.0 30.4,7.0 C 30.7,7.0 31.0,7.2 31.099999999999998,7.4 C 31.2,7.6000000000000005 31.299999999999997,7.9 31.299999999999997,8.1 C 31.099999999999998,8.799999999999999 30.099999999999998,9.1 29.799999999999997,9.7 C 29.499999999999996,10.399999999999999 29.299999999999997,11.2 29.4,11.899999999999999 C 29.5,13.599999999999998 30.4,16.099999999999998 30.4,16.099999999999998 C 30.4,16.099999999999998 34.5,19.599999999999998 36.1,21.199999999999996 C 37.300000000000004,22.399999999999995 42.6,28.199999999999996 42.6,28.199999999999996 C 43.300000000000004,31.599999999999994 40.1,30.799999999999997 39.800000000000004,32.4 L 41.50000000000001,33.0 L 42.00000000000001,34.2 C 42.00000000000001,34.2 41.300000000000004,34.900000000000006 40.60000000000001,34.5 C 39.80000000000001,34.0 38.50000000000001,31.2 38.50000000000001,31.2 C 36.10000000000001,31.2 34.70000000000001,31.4 33.900000000000006,31.0 C 35.00000000000001,30.5 36.50000000000001,30.2 36.800000000000004,29.0 C 34.50000000000001,28.6 32.300000000000004,28.1 30.900000000000006,27.1 C 31.600000000000005,26.5 33.10000000000001,26.400000000000002 33.60000000000001,24.900000000000002 L 28.000000000000007,23.8 C 28.900000000000006,23.1 29.900000000000006,22.7 30.60000000000001,21.1 C 27.300000000000008,20.900000000000002 26.300000000000008,20.700000000000003 25.10000000000001,19.900000000000002 L 28.0,19.0 L 25.0,14.4 C 25.0,14.4 22.4,14.1 21.4,13.3 C 21.0,12.9 20.7,12.4 20.7,11.9 M 63.9,32.6 L 63.9,32.6 L 63.9,32.6 L 63.9,32.6" fill="#ffce00" stroke="none" stroke-width="0px" /><path d="M 54.5,10.1 C 54.5,10.6 54.9,10.9 55.4,10.9 C 55.9,10.9 56.3,10.5 56.199999999999996,10.0 C 56.199999999999996,9.5 55.8,9.1 55.3,9.2 C 54.9,9.3 54.5,9.7 54.5,10.1 M 31.7,6.3 C 31.9,7.3 31.5,7.9 30.7,8.1 C 30.3,8.2 29.9,8.1 29.4,7.5 C 29.6,6.0 29.5,5.3 28.5,4.0 C 31.0,4.6 31.1,5.8 31.7,6.3 L 31.7,6.3 M 24.7,5.2 C 25.2,6.0 25.099999999999998,6.800000000000001 24.5,7.300000000000001 C 24.2,7.6000000000000005 23.7,7.6000000000000005 23.1,7.4 C 22.700000000000003,5.9 22.400000000000002,5.300000000000001 21.0,4.5 C 23.5,4.0 24.0,5.1 24.7,5.2 L 24.7,5.2 L 24.7,5.2 M 20.7,10.4 C 21.5,10.9 21.7,11.700000000000001 21.4,12.5 C 21.2,12.9 20.799999999999997,13.2 20.2,13.2 C 19.3,11.899999999999999 18.8,11.6 17.2,11.5 C 19.1,9.9 20.0,10.6 20.7,10.4 L 20.7,10.4 M 14.1,71.8 C 15.0,72.0 15.5,72.6 15.4,73.5 C 15.4,73.9 15.1,74.3 14.5,74.6 C 13.2,73.69999999999999 12.6,73.6 11.1,74.0 C 12.4,71.8 13.5,72.2 14.1,71.8 L 14.1,71.8 M 13.9,78.4 C 14.8,78.2 15.5,78.5 15.9,79.30000000000001 C 16.1,79.70000000000002 16.0,80.20000000000002 15.6,80.70000000000002 C 14.0,80.50000000000001 13.7,80.40000000000002 12.5,81.50000000000001 C 12.7,78.9 13.6,79.0 13.9,78.4 C 13.9,78.4 13.9,78.4 13.9,78.4 M 20.3,68.9 C 20.8,69.60000000000001 20.8,70.4 20.2,71.10000000000001 C 19.9,71.4 19.4,71.50000000000001 18.8,71.30000000000001 C 18.400000000000002,69.80000000000001 18.0,69.30000000000001 16.6,68.60000000000001 C 19.1,67.8 19.6,68.8 20.3,68.9 L 20.3,68.9 M 17.1,29.2 C 17.700000000000003,29.9 17.700000000000003,30.7 17.1,31.4 C 16.8,31.7 16.400000000000002,31.9 15.700000000000001,31.7 C 15.200000000000001,30.2 14.8,29.8 13.3,29.2 C 15.8,28.3 16.4,29.2 17.1,29.2 C 17.1,29.2 17.1,29.2 17.1,29.2 M 11.4,32.5 C 12.3,32.8 12.6,33.5 12.4,34.4 C 12.3,34.8 12.0,35.199999999999996 11.3,35.3 C 10.100000000000001,34.3 9.600000000000001,34.0 8.0,34.199999999999996 C 9.8,32.3 10.8,32.9 11.4,32.5 L 11.4,32.5 M 13.3,39.9 C 14.200000000000001,39.8 14.9,40.199999999999996 15.200000000000001,41.0 C 15.3,41.4 15.200000000000001,41.9 14.700000000000001,42.3 C 13.200000000000001,42.0 12.600000000000001,42.099999999999994 11.3,43.0 C 11.8,40.5 12.9,40.5 13.3,39.9 C 13.3,39.9 13.3,39.9 13.3,39.9 M 50.2,87.5 C 50.900000000000006,88.0 51.1,88.8 50.800000000000004,89.6 C 50.6,90.0 50.2,90.19999999999999 49.50000000000001,90.19999999999999 C 48.60000000000001,88.89999999999999 48.10000000000001,88.49999999999999 46.50000000000001,88.29999999999998 C 48.7,86.9 49.6,87.7 50.2,87.5 L 50.2,87.5 L 50.2,87.5 M 49.8,93.3 C 50.699999999999996,93.2 51.4,93.6 51.699999999999996,94.39999999999999 C 51.8,94.8 51.699999999999996,95.3 51.199999999999996,95.69999999999999 C 49.699999999999996,95.39999999999999 49.099999999999994,95.49999999999999 47.8,96.39999999999999 C 48.2,93.9 49.4,93.9 49.8,93.3 L 49.8,93.3 L 49.8,93.3 M 55.3,96.7 C 56.199999999999996,96.5 56.9,96.9 57.199999999999996,97.7 C 57.4,98.10000000000001 57.3,98.60000000000001 56.8,99.10000000000001 C 55.3,98.9 54.699999999999996,99.00000000000001 53.5,100.10000000000001 C 53.8,97.4 55.0,97.3 55.3,96.7 L 55.3,96.7 M 54.3,16.7 C 53.699999999999996,16.599999999999998 53.199999999999996,16.5 52.8,16.4 C 50.8,15.899999999999999 47.8,16.9 45.8,16.2 C 44.599999999999994,15.799999999999999 44.3,15.6 43.8,14.5 C 43.4,13.8 43.3,12.7 43.3,12.7 C 43.3,12.7 42.3,13.899999999999999 42.5,15.0 C 42.6,15.9 43.3,16.8 44.1,17.3 C 46.4,18.5 50.4,17.7 52.900000000000006,18.3 C 53.00000000000001,18.3 53.2,18.400000000000002 53.2,18.400000000000002 C 53.2,18.400000000000002 53.9,17.9 54.3,16.7 M 52.0,0.7 L 53.4,2.2 C 53.4,2.2 54.199999999999996,2.1 54.5,2.3000000000000003 C 54.9,2.5000000000000004 55.2,2.9000000000000004 55.2,3.4000000000000004 C 55.2,3.8000000000000003 55.1,4.300000000000001 54.800000000000004,4.5 L 54.300000000000004,5.0 C 54.300000000000004,5.0 55.800000000000004,5.6 56.7,5.5 C 57.7,5.4 58.6,4.5 58.6,4.5 C 58.6,4.5 57.800000000000004,4.1 57.5,3.8 C 57.2,3.5 57.0,3.2 57.0,2.8 C 57.0,2.3 57.3,1.6999999999999997 57.7,1.4 C 57.900000000000006,1.2999999999999998 58.5,1.4 58.5,1.4 L 59.8,0.0 L 61.0,1.6 C 61.0,1.6 61.6,1.5 61.8,1.6 C 62.199999999999996,1.9000000000000001 62.4,2.5 62.4,3.0 C 62.4,3.3 62.1,3.6 61.8,3.9 C 61.5,4.2 60.599999999999994,4.5 60.599999999999994,4.5 C 60.599999999999994,4.5 61.3,5.5 62.3,5.7 C 63.099999999999994,5.8 64.8,5.4 64.8,5.4 L 64.3,4.9 C 64.0,4.5 63.9,4.1 64.0,3.7 C 64.1,3.3000000000000003 64.4,2.9000000000000004 64.8,2.7 C 65.2,2.5 65.89999999999999,2.8000000000000003 65.89999999999999,2.8000000000000003 L 67.49999999999999,1.5000000000000002 L 65.49999999999999,8.200000000000001 C 61.399999999999984,7.200000000000001 57.399999999999984,7.000000000000001 53.29999999999998,7.600000000000001 L 52.0,0.7" fill="#925394" stroke="none" stroke-width="0px" /></g></svg>