<?xml version="1.0" encoding="utf-8" ?>
<svg baseProfile="full" height="100px" version="1.1" width="150px" xmlns="http://www.w3.org/2000/svg" xmlns:ev="http://www.w3.org/2001/xml-events" xmlns:xlink="http://www.w3.org/1999/xlink"><defs><clipPath id="mask0"><rect height="100" width="150" x="0" y="0" /></clipPath></defs><g clip-path="url(#mask0)"><rect fill="#e93d8c" height="33.333333333333336" stroke="none" width="150" x="0" y="0.0" /><rect fill="#cc0000" height="33.333333333333336" stroke="none" width="150" x="0" y="33.333333333333336" /><rect fill="#ffffff" height="33.333333333333336" stroke="none" width="150" x="0" y="66.66666666666667" /></g><g transform="translate(15.347268294851986, 22.010568523986983) scale(0.5597886295202603) rotate(0, 50.0, 50.0)"><path d="M 28.7,15.4 C 28.7,15.4 28.7,15.5 28.7,15.6 C 28.5,15.799999999999999 28.3,16.0 28.3,16.3 C 28.3,16.8 28.7,17.2 29.2,17.2 C 29.3,17.2 29.4,17.2 29.4,17.2 C 29.4,17.2 29.4,17.2 29.4,17.3 C 29.2,17.5 29.0,17.7 29.0,18.0 C 29.0,18.5 29.4,18.9 29.9,18.9 C 30.0,18.9 30.099999999999998,18.9 30.2,18.799999999999997 C 30.2,18.799999999999997 30.2,18.799999999999997 30.2,18.9 C 30.0,19.099999999999998 29.8,19.299999999999997 29.8,19.599999999999998 C 29.8,19.799999999999997 29.900000000000002,19.999999999999996 30.0,20.2 C 29.9,20.3 29.8,20.5 29.9,20.8 C 30.0,21.0 30.2,21.2 30.299999999999997,21.1 C 30.499999999999996,21.1 30.799999999999997,21.1 31.099999999999998,21.1 C 31.099999999999998,21.1 31.099999999999998,21.200000000000003 31.2,21.200000000000003 C 31.3,21.6 31.5,22.1 31.9,22.300000000000004 C 31.9,22.400000000000006 31.9,22.500000000000004 32.0,22.600000000000005 C 32.0,22.600000000000005 32.1,22.700000000000006 32.1,22.700000000000006 C 32.1,22.700000000000006 32.2,22.800000000000008 32.2,22.800000000000008 C 32.2,22.800000000000008 32.2,22.800000000000008 32.2,22.800000000000008 C 32.2,22.90000000000001 32.2,23.000000000000007 32.2,23.200000000000006 C 32.300000000000004,23.400000000000006 32.400000000000006,23.500000000000007 32.6,23.500000000000007 C 32.6,23.60000000000001 32.7,23.700000000000006 32.7,23.700000000000006 C 32.800000000000004,23.900000000000006 32.900000000000006,24.000000000000007 33.0,24.000000000000007 C 33.1,24.500000000000007 33.3,24.900000000000006 33.5,25.200000000000006 C 33.7,25.400000000000006 33.9,25.600000000000005 34.0,25.800000000000008 C 34.3,26.200000000000006 34.5,26.700000000000006 34.8,27.200000000000006 C 34.0,27.300000000000008 34.199999999999996,28.100000000000005 34.9,28.000000000000007 C 35.0,28.000000000000007 35.0,28.000000000000007 35.1,28.000000000000007 L 35.2,28.300000000000008 C 35.0,28.40000000000001 35.0,28.700000000000006 34.900000000000006,29.000000000000007 C 34.60000000000001,29.200000000000006 34.50000000000001,29.60000000000001 34.60000000000001,29.900000000000006 C 34.60000000000001,30.300000000000004 34.900000000000006,30.700000000000006 35.30000000000001,30.800000000000004 C 35.500000000000014,31.100000000000005 35.60000000000001,31.400000000000006 35.80000000000001,31.400000000000006 L 35.80000000000001,31.600000000000005 C 35.60000000000001,31.700000000000006 35.40000000000001,31.800000000000004 35.40000000000001,32.00000000000001 C 35.40000000000001,32.20000000000001 35.500000000000014,32.400000000000006 35.80000000000001,32.400000000000006 C 35.90000000000001,32.400000000000006 35.90000000000001,32.400000000000006 36.000000000000014,32.400000000000006 C 44.90000000000001,33.2 54.30000000000001,33.2 63.20000000000002,32.400000000000006 C 63.30000000000002,32.400000000000006 63.40000000000002,32.400000000000006 63.40000000000002,32.400000000000006 C 63.70000000000002,32.400000000000006 63.80000000000002,32.2 63.80000000000002,32.00000000000001 C 63.80000000000002,31.800000000000008 63.70000000000002,31.700000000000006 63.40000000000002,31.60000000000001 L 63.40000000000002,31.40000000000001 C 63.60000000000002,31.300000000000008 63.80000000000002,31.10000000000001 63.90000000000002,30.800000000000008 C 64.30000000000003,30.700000000000006 64.60000000000002,30.300000000000008 64.60000000000002,29.90000000000001 C 64.60000000000002,29.50000000000001 64.50000000000003,29.20000000000001 64.30000000000003,29.00000000000001 C 64.30000000000003,28.70000000000001 64.20000000000003,28.40000000000001 64.00000000000003,28.30000000000001 L 64.10000000000002,28.00000000000001 C 64.20000000000002,28.00000000000001 64.20000000000002,28.00000000000001 64.30000000000003,28.00000000000001 C 65.00000000000003,28.100000000000012 65.10000000000002,27.30000000000001 64.40000000000002,27.20000000000001 C 64.60000000000002,26.70000000000001 64.90000000000002,26.30000000000001 65.20000000000002,25.80000000000001 C 65.40000000000002,25.600000000000012 65.60000000000002,25.400000000000013 65.70000000000002,25.20000000000001 C 66.00000000000001,24.90000000000001 66.20000000000002,24.40000000000001 66.20000000000002,24.00000000000001 C 66.30000000000001,24.00000000000001 66.40000000000002,23.90000000000001 66.50000000000001,23.70000000000001 C 66.50000000000001,23.60000000000001 66.60000000000001,23.60000000000001 66.60000000000001,23.50000000000001 C 66.80000000000001,23.50000000000001 66.9,23.30000000000001 67.00000000000001,23.20000000000001 C 67.10000000000001,23.10000000000001 67.10000000000001,22.90000000000001 67.00000000000001,22.80000000000001 C 67.00000000000001,22.80000000000001 67.00000000000001,22.80000000000001 67.00000000000001,22.80000000000001 C 67.00000000000001,22.80000000000001 67.10000000000001,22.70000000000001 67.10000000000001,22.70000000000001 C 67.10000000000001,22.70000000000001 67.2,22.60000000000001 67.2,22.60000000000001 C 67.3,22.500000000000007 67.3,22.40000000000001 67.3,22.300000000000008 C 67.7,22.000000000000007 67.89999999999999,21.60000000000001 68.0,21.200000000000006 C 68.0,21.100000000000005 68.0,21.100000000000005 68.1,21.100000000000005 C 68.39999999999999,21.200000000000006 68.69999999999999,21.200000000000006 68.89999999999999,21.100000000000005 C 68.89999999999999,21.200000000000006 69.19999999999999,21.000000000000004 69.3,20.800000000000004 C 69.39999999999999,20.600000000000005 69.39999999999999,20.400000000000006 69.2,20.200000000000003 C 69.3,20.000000000000004 69.4,19.800000000000004 69.4,19.6 C 69.4,19.3 69.2,19.0 69.0,18.900000000000002 C 69.0,18.900000000000002 69.0,18.900000000000002 69.0,18.8 C 69.1,18.8 69.2,18.900000000000002 69.3,18.900000000000002 C 69.8,18.900000000000002 70.2,18.500000000000004 70.2,18.000000000000004 C 70.2,17.700000000000003 70.10000000000001,17.500000000000004 69.8,17.300000000000004 C 69.8,17.300000000000004 69.8,17.300000000000004 69.8,17.200000000000003 C 69.89999999999999,17.200000000000003 70.0,17.200000000000003 70.0,17.200000000000003 C 70.5,17.200000000000003 70.9,16.800000000000004 70.9,16.300000000000004 C 70.9,16.000000000000004 70.7,15.700000000000005 70.5,15.600000000000005 C 70.5,15.500000000000005 70.5,15.500000000000005 70.5,15.400000000000006 C 70.9,15.300000000000006 71.1,15.000000000000005 71.1,14.500000000000005 C 71.1,14.000000000000005 70.69999999999999,13.600000000000005 70.19999999999999,13.600000000000005 C 70.1,13.600000000000005 69.89999999999999,13.600000000000005 69.79999999999998,13.700000000000005 C 69.79999999999998,13.700000000000005 69.69999999999999,13.600000000000005 69.69999999999999,13.600000000000005 C 69.79999999999998,13.400000000000006 69.89999999999999,13.300000000000004 69.89999999999999,13.100000000000005 C 69.89999999999999,12.600000000000005 69.49999999999999,12.200000000000005 68.99999999999999,12.200000000000005 C 68.59999999999998,12.200000000000005 68.29999999999998,12.400000000000004 68.19999999999999,12.700000000000005 C 68.19999999999999,12.700000000000005 68.19999999999999,12.700000000000005 68.19999999999999,12.700000000000005 C 68.29999999999998,12.500000000000005 68.39999999999999,12.400000000000004 68.39999999999999,12.100000000000005 C 68.39999999999999,11.600000000000005 67.99999999999999,11.200000000000005 67.49999999999999,11.200000000000005 C 67.09999999999998,11.200000000000005 66.69999999999999,11.500000000000005 66.59999999999998,11.900000000000004 C 66.49999999999999,11.900000000000004 66.49999999999999,11.900000000000004 66.39999999999998,11.800000000000004 C 66.49999999999997,11.600000000000005 66.59999999999998,11.400000000000004 66.59999999999998,11.200000000000005 C 66.59999999999998,10.700000000000005 66.19999999999997,10.300000000000004 65.69999999999997,10.300000000000004 C 65.19999999999997,10.300000000000004 64.79999999999997,10.700000000000005 64.79999999999997,11.200000000000005 C 64.79999999999997,11.200000000000005 64.79999999999997,11.200000000000005 64.79999999999997,11.200000000000005 C 64.69999999999997,11.200000000000005 64.69999999999997,11.200000000000005 64.59999999999997,11.100000000000005 C 64.79999999999997,10.900000000000006 64.89999999999996,10.700000000000005 64.89999999999996,10.500000000000005 C 64.89999999999996,10.000000000000005 64.49999999999996,9.600000000000005 63.999999999999964,9.600000000000005 C 63.499999999999964,9.600000000000005 63.19999999999997,10.000000000000005 63.099999999999966,10.400000000000006 C 63.099999999999966,10.400000000000006 63.099999999999966,10.400000000000006 63.099999999999966,10.400000000000006 C 63.099999999999966,10.400000000000006 63.099999999999966,10.400000000000006 63.099999999999966,10.400000000000006 C 63.099999999999966,10.400000000000006 63.099999999999966,10.400000000000006 63.099999999999966,10.400000000000006 C 63.19999999999997,10.300000000000006 63.19999999999997,10.100000000000005 63.19999999999997,10.000000000000005 C 63.19999999999997,9.500000000000005 62.79999999999997,9.100000000000005 62.29999999999997,9.100000000000005 C 62.19999999999997,9.100000000000005 62.099999999999966,9.100000000000005 61.99999999999997,9.200000000000005 C 61.79999999999997,8.900000000000004 61.49999999999997,8.800000000000004 61.199999999999974,8.800000000000004 C 60.99999999999997,8.800000000000004 60.799999999999976,8.900000000000004 60.59999999999997,9.000000000000004 C 60.59999999999997,9.000000000000004 60.59999999999997,9.000000000000004 60.59999999999997,9.000000000000004 C 60.59999999999997,8.500000000000004 60.199999999999974,8.100000000000003 59.699999999999974,8.100000000000003 C 59.299999999999976,8.100000000000003 58.99999999999997,8.300000000000002 58.89999999999998,8.600000000000003 C 58.89999999999998,8.500000000000004 58.89999999999998,8.500000000000004 58.89999999999998,8.400000000000004 C 58.89999999999998,7.900000000000004 58.49999999999998,7.5000000000000036 57.99999999999998,7.5000000000000036 C 57.59999999999998,7.5000000000000036 57.299999999999976,7.700000000000004 57.19999999999998,8.000000000000004 C 57.19999999999998,7.5000000000000036 56.79999999999998,7.200000000000004 56.29999999999998,7.200000000000004 C 55.79999999999998,7.200000000000004 55.399999999999984,7.600000000000004 55.399999999999984,8.100000000000003 C 55.399999999999984,8.200000000000003 55.399999999999984,8.300000000000002 55.499999999999986,8.400000000000004 C 55.399999999999984,8.400000000000004 55.399999999999984,8.400000000000004 55.29999999999998,8.400000000000004 C 55.399999999999984,8.300000000000004 55.399999999999984,8.100000000000003 55.399999999999984,8.000000000000004 C 55.399999999999984,7.5000000000000036 54.999999999999986,7.100000000000003 54.499999999999986,7.100000000000003 C 53.999999999999986,7.100000000000003 54.3,7.5 54.3,8.0 C 54.3,8.1 54.3,8.2 54.4,8.3 C 54.3,8.3 54.3,8.3 54.199999999999996,8.3 C 54.199999999999996,8.200000000000001 54.3,8.100000000000001 54.3,8.0 C 54.3,7.5 53.9,7.1 53.4,7.1 C 52.9,7.1 52.5,7.5 52.5,8.0 C 52.5,8.1 52.5,8.2 52.5,8.2 C 52.3,8.2 52.2,8.2 52.0,8.2 C 52.0,8.2 52.0,8.2 52.0,8.299999999999999 C 52.0,8.299999999999999 51.9,8.299999999999999 51.9,8.399999999999999 C 51.9,8.399999999999999 52.0,8.299999999999999 52.0,8.299999999999999 C 52.0,8.299999999999999 52.0,8.299999999999999 52.0,8.299999999999999 C 52.0,8.299999999999999 52.0,8.299999999999999 52.0,8.299999999999999 C 52.2,7.999999999999999 52.4,7.599999999999999 52.4,7.199999999999999 C 52.4,7.199999999999999 52.4,7.199999999999999 52.4,7.199999999999999 C 52.4,7.199999999999999 52.4,7.199999999999999 52.4,7.199999999999999 C 52.4,7.1 52.4,6.999999999999999 52.4,6.8999999999999995 C 52.4,5.699999999999999 51.5,4.699999999999999 50.3,4.3999999999999995 L 50.3,4.3999999999999995 C 50.3,4.3999999999999995 50.3,4.3999999999999995 50.3,4.3999999999999995 L 50.3,3.2 L 51.099999999999994,3.2 C 51.099999999999994,3.4000000000000004 51.3,3.6 51.599999999999994,3.6 C 51.8,3.6 51.99999999999999,3.4 52.099999999999994,3.2 C 52.3,3.2 52.599999999999994,3.0 52.599999999999994,2.7 C 52.599999999999994,2.5 52.39999999999999,2.2 52.099999999999994,2.2 C 52.099999999999994,2.0 51.89999999999999,1.8000000000000003 51.599999999999994,1.8000000000000003 C 51.39999999999999,1.8000000000000003 51.099999999999994,2.0000000000000004 51.099999999999994,2.3000000000000003 L 50.3,2.3000000000000003 L 50.3,1.4 C 50.5,1.4 50.699999999999996,1.2 50.699999999999996,0.8999999999999999 C 50.699999999999996,0.7 50.49999999999999,0.4999999999999999 50.3,0.3999999999999999 C 50.5,0.2 50.3,0.0 50.0,0.0 C 49.7,0.0 49.5,0.2 49.5,0.5 C 49.3,0.5 49.1,0.7 49.1,1.0 C 49.1,1.2 49.300000000000004,1.4 49.5,1.5 L 49.5,2.4 L 48.7,2.4 C 48.7,2.1999999999999997 48.5,1.9 48.2,1.9 C 48.0,1.9 47.800000000000004,2.1 47.7,2.3 C 47.5,2.3 47.2,2.5 47.2,2.8 C 47.2,3.0 47.400000000000006,3.3 47.7,3.3 C 47.7,3.5 47.900000000000006,3.6999999999999997 48.2,3.6999999999999997 C 48.400000000000006,3.6999999999999997 48.6,3.4999999999999996 48.7,3.3 L 49.5,3.3 L 49.5,4.4 C 48.5,4.6000000000000005 47.7,5.4 47.5,6.4 C 47.5,6.4 47.5,6.4 47.5,6.4 C 47.5,6.6000000000000005 47.4,6.7 47.4,6.9 C 47.4,6.9 47.4,7.0 47.4,7.0 C 47.4,7.1 47.4,7.1 47.4,7.2 C 47.4,7.2 47.4,7.2 47.4,7.3 C 47.4,7.3 47.4,7.3 47.4,7.3 C 47.5,7.7 47.6,8.0 47.8,8.4 C 47.8,8.4 47.8,8.4 47.8,8.4 C 47.8,8.4 47.8,8.4 47.8,8.4 C 47.8,8.4 47.9,8.5 47.9,8.5 C 47.9,8.5 47.8,8.5 47.8,8.4 C 47.8,8.4 47.8,8.4 47.8,8.3 C 47.699999999999996,8.3 47.5,8.3 47.3,8.3 C 47.3,8.200000000000001 47.3,8.200000000000001 47.3,8.100000000000001 C 47.3,7.600000000000001 46.9,7.200000000000001 46.4,7.200000000000001 C 45.9,7.200000000000001 45.5,7.600000000000001 45.5,8.100000000000001 C 45.5,8.200000000000001 45.5,8.3 45.6,8.400000000000002 C 45.5,8.400000000000002 45.5,8.400000000000002 45.4,8.400000000000002 C 45.4,8.300000000000002 45.5,8.200000000000003 45.5,8.100000000000001 C 45.5,7.600000000000001 45.1,7.200000000000001 44.6,7.200000000000001 C 44.1,7.200000000000001 43.7,7.600000000000001 43.7,8.100000000000001 C 43.7,8.3 43.7,8.400000000000002 43.800000000000004,8.500000000000002 C 43.7,8.500000000000002 43.7,8.500000000000002 43.6,8.500000000000002 C 43.6,8.400000000000002 43.7,8.300000000000002 43.7,8.200000000000001 C 43.7,7.700000000000001 43.300000000000004,7.300000000000001 42.800000000000004,7.300000000000001 C 42.300000000000004,7.300000000000001 41.900000000000006,7.700000000000001 41.900000000000006,8.100000000000001 C 41.800000000000004,7.800000000000002 41.50000000000001,7.600000000000001 41.10000000000001,7.600000000000001 C 40.60000000000001,7.600000000000001 40.20000000000001,8.000000000000002 40.20000000000001,8.500000000000002 C 40.20000000000001,8.600000000000001 40.20000000000001,8.600000000000001 40.20000000000001,8.700000000000001 C 40.10000000000001,8.4 39.70000000000001,8.200000000000001 39.40000000000001,8.200000000000001 C 38.90000000000001,8.200000000000001 38.500000000000014,8.600000000000001 38.500000000000014,9.100000000000001 C 38.500000000000014,9.100000000000001 38.500000000000014,9.100000000000001 38.500000000000014,9.100000000000001 C 38.30000000000001,9.000000000000002 38.100000000000016,8.900000000000002 37.90000000000001,8.900000000000002 C 37.600000000000016,8.900000000000002 37.30000000000001,9.100000000000001 37.100000000000016,9.300000000000002 C 37.000000000000014,9.300000000000002 36.90000000000001,9.200000000000003 36.80000000000002,9.200000000000003 C 36.4,9.2 36.0,9.6 36.0,10.0 C 36.0,10.2 36.0,10.3 36.1,10.4 C 36.1,10.4 36.1,10.4 36.1,10.4 C 36.1,10.4 36.1,10.4 36.1,10.4 C 36.1,10.4 36.1,10.4 36.1,10.4 C 36.1,9.9 35.7,9.6 35.2,9.6 C 34.7,9.6 34.300000000000004,10.0 34.300000000000004,10.5 C 34.300000000000004,10.7 34.400000000000006,11.0 34.6,11.1 C 34.5,11.1 34.5,11.1 34.4,11.2 C 34.4,11.2 34.4,11.2 34.4,11.2 C 34.4,10.7 34.0,10.299999999999999 33.5,10.299999999999999 C 33.0,10.299999999999999 32.6,10.7 32.6,11.2 C 32.6,11.399999999999999 32.7,11.6 32.800000000000004,11.799999999999999 C 32.7,11.799999999999999 32.7,11.799999999999999 32.6,11.899999999999999 C 32.5,11.499999999999998 32.2,11.2 31.700000000000003,11.2 C 31.200000000000003,11.2 30.800000000000004,11.6 30.800000000000004,12.1 C 30.800000000000004,12.299999999999999 30.900000000000006,12.5 31.000000000000004,12.7 C 31.000000000000004,12.7 31.000000000000004,12.7 31.000000000000004,12.7 C 30.900000000000002,12.399999999999999 30.600000000000005,12.2 30.200000000000003,12.2 C 29.700000000000003,12.2 29.300000000000004,12.6 29.300000000000004,13.1 C 29.300000000000004,13.299999999999999 29.400000000000006,13.5 29.500000000000004,13.6 C 29.500000000000004,13.6 29.400000000000002,13.7 29.400000000000002,13.7 C 29.3,13.7 29.200000000000003,13.6 29.000000000000004,13.6 C 28.500000000000004,13.6 28.100000000000005,14.0 28.100000000000005,14.5 C 28.1,14.9 28.4,15.2 28.7,15.4 M 69.4,20.8 C 69.30000000000001,20.7 69.2,20.6 69.10000000000001,20.6 C 69.3,20.6 69.4,20.7 69.4,20.8 M 55.3,21.8 C 55.3,21.8 55.2,21.8 55.3,21.8 C 55.3,21.7 55.3,21.8 55.3,21.8 C 55.3,21.8 55.3,21.8 55.3,21.8 M 63.9,22.9 C 63.9,22.9 63.9,22.9 63.9,22.9 C 63.9,22.9 63.9,22.9 63.9,22.9 C 64.0,22.9 63.9,22.9 63.9,22.9 M 66.2,23.4 C 66.2,23.4 66.2,23.4 66.2,23.4 C 66.2,23.4 66.2,23.4 66.2,23.4 C 66.2,23.4 66.2,23.4 66.2,23.4 M 61.4,20.5 C 61.6,20.3 62.0,20.1 62.3,19.8 C 62.699999999999996,19.400000000000002 62.9,19.0 62.599999999999994,18.900000000000002 C 62.599999999999994,18.900000000000002 62.599999999999994,18.900000000000002 62.599999999999994,18.900000000000002 C 62.599999999999994,18.900000000000002 62.599999999999994,18.900000000000002 62.599999999999994,18.900000000000002 C 62.599999999999994,18.900000000000002 62.49999999999999,18.900000000000002 62.49999999999999,18.900000000000002 C 62.49999999999999,18.900000000000002 62.49999999999999,18.900000000000002 62.39999999999999,18.900000000000002 C 62.39999999999999,18.900000000000002 62.29999999999999,18.900000000000002 62.29999999999999,18.900000000000002 C 62.29999999999999,18.900000000000002 62.39999999999999,18.8 62.39999999999999,18.8 C 62.39999999999999,18.8 62.39999999999999,18.8 62.39999999999999,18.8 C 62.39999999999999,18.8 62.39999999999999,18.8 62.39999999999999,18.7 C 62.599999999999994,18.4 62.99999999999999,18.099999999999998 63.19999999999999,17.9 C 63.29999999999999,17.9 63.499999999999986,17.799999999999997 63.499999999999986,17.7 C 63.999999999999986,16.099999999999998 64.49999999999999,14.5 64.99999999999999,13.1 C 64.99999999999999,13.0 64.99999999999999,13.0 64.99999999999999,12.9 C 64.99999999999999,12.9 64.99999999999999,12.9 64.99999999999999,12.8 C 64.99999999999999,12.8 64.99999999999999,12.700000000000001 64.99999999999999,12.700000000000001 C 64.99999999999999,12.700000000000001 64.99999999999999,12.600000000000001 64.99999999999999,12.600000000000001 C 64.99999999999999,12.600000000000001 64.99999999999999,12.500000000000002 64.99999999999999,12.500000000000002 C 64.99999999999999,12.500000000000002 64.99999999999999,12.500000000000002 64.99999999999999,12.400000000000002 C 65.09999999999998,12.400000000000002 65.09999999999998,12.500000000000002 65.19999999999999,12.500000000000002 C 65.19999999999999,12.500000000000002 65.29999999999998,12.500000000000002 65.29999999999998,12.500000000000002 C 65.39999999999998,12.500000000000002 65.49999999999999,12.600000000000001 65.49999999999999,12.600000000000001 C 65.49999999999999,12.600000000000001 65.59999999999998,12.600000000000001 65.59999999999998,12.600000000000001 C 65.69999999999997,12.600000000000001 65.79999999999998,12.700000000000001 65.79999999999998,12.700000000000001 C 65.79999999999998,12.700000000000001 65.89999999999998,12.700000000000001 65.89999999999998,12.700000000000001 C 65.99999999999997,12.8 66.19999999999997,12.8 66.29999999999998,12.9 C 66.29999999999998,12.9 66.39999999999998,12.9 66.39999999999998,13.0 C 66.49999999999997,13.0 66.49999999999997,13.1 66.59999999999998,13.1 C 66.69999999999997,13.1 66.69999999999997,13.1 66.79999999999998,13.2 C 66.89999999999998,13.2 66.89999999999998,13.299999999999999 66.99999999999999,13.299999999999999 C 66.99999999999999,13.299999999999999 67.09999999999998,13.299999999999999 67.09999999999998,13.399999999999999 C 67.19999999999997,13.399999999999999 67.19999999999997,13.499999999999998 67.19999999999997,13.499999999999998 C 67.19999999999997,13.499999999999998 67.29999999999997,13.499999999999998 67.29999999999997,13.599999999999998 C 67.29999999999997,13.599999999999998 67.39999999999996,13.699999999999998 67.39999999999996,13.699999999999998 C 67.39999999999996,13.699999999999998 67.49999999999996,13.799999999999997 67.49999999999996,13.799999999999997 C 67.49999999999996,13.799999999999997 67.59999999999995,13.899999999999997 67.59999999999995,13.899999999999997 C 67.59999999999995,13.899999999999997 67.69999999999995,13.999999999999996 67.69999999999995,13.999999999999996 C 67.69999999999995,13.999999999999996 67.79999999999994,13.999999999999996 67.79999999999994,14.099999999999996 C 68.99999999999994,14.999999999999996 69.09999999999994,15.299999999999995 67.59999999999994,17.399999999999995 C 67.49999999999994,17.599999999999994 67.29999999999994,17.799999999999994 67.19999999999993,17.999999999999996 C 67.19999999999993,17.999999999999996 67.19999999999993,17.999999999999996 67.19999999999993,17.999999999999996 C 67.09999999999994,18.099999999999998 66.99999999999993,18.299999999999997 67.09999999999994,18.399999999999995 C 67.19999999999993,18.599999999999994 67.29999999999994,19.399999999999995 67.09999999999994,19.999999999999996 C 66.79999999999994,19.899999999999995 66.79999999999994,20.399999999999995 66.99999999999994,20.799999999999997 C 67.19999999999995,21.099999999999998 67.09999999999994,21.499999999999996 66.89999999999995,21.799999999999997 C 66.89999999999995,21.9 66.79999999999995,21.9 66.79999999999995,21.999999999999996 C 66.79999999999995,21.999999999999996 66.69999999999996,21.999999999999996 66.69999999999996,21.999999999999996 C 66.69999999999996,21.999999999999996 66.69999999999996,21.999999999999996 66.59999999999997,21.999999999999996 C 66.69999999999996,21.699999999999996 66.59999999999997,21.499999999999996 66.59999999999997,21.199999999999996 C 66.59999999999997,20.899999999999995 66.19999999999996,20.699999999999996 66.19999999999996,20.899999999999995 C 66.19999999999996,20.899999999999995 66.19999999999996,20.899999999999995 66.19999999999996,20.899999999999995 C 66.19999999999996,20.899999999999995 66.19999999999996,20.899999999999995 66.19999999999996,20.899999999999995 L 66.19999999999996,20.899999999999995 C 66.09999999999997,20.999999999999996 66.09999999999997,21.099999999999994 65.99999999999996,21.199999999999996 C 65.79999999999995,21.699999999999996 65.69999999999996,21.699999999999996 65.29999999999995,21.699999999999996 C 64.99999999999996,21.699999999999996 64.69999999999996,22.299999999999997 64.69999999999996,22.599999999999994 C 64.69999999999996,22.799999999999994 64.79999999999995,22.799999999999994 64.79999999999995,22.999999999999993 C 64.89999999999995,23.299999999999994 64.79999999999995,23.299999999999994 64.79999999999995,23.499999999999993 C 64.79999999999995,23.699999999999992 64.69999999999996,23.89999999999999 64.59999999999995,23.999999999999993 C 64.49999999999996,24.099999999999994 64.49999999999996,24.299999999999994 64.49999999999996,24.39999999999999 C 64.59999999999995,24.39999999999999 64.69999999999996,24.39999999999999 64.79999999999995,24.39999999999999 C 64.79999999999995,24.39999999999999 64.79999999999995,24.39999999999999 64.79999999999995,24.39999999999999 C 64.79999999999995,24.39999999999999 64.79999999999995,24.39999999999999 64.79999999999995,24.39999999999999 C 64.89999999999995,24.39999999999999 65.39999999999995,23.699999999999992 65.79999999999995,23.699999999999992 C 64.79999999999995,25.999999999999993 63.899999999999956,25.999999999999993 63.69999999999995,23.699999999999992 C 63.899999999999956,23.59999999999999 63.799999999999955,23.199999999999992 64.09999999999995,23.39999999999999 C 64.19999999999995,23.499999999999993 64.39999999999995,23.199999999999992 64.29999999999995,23.09999999999999 C 64.19999999999996,22.99999999999999 63.99999999999996,22.99999999999999 63.899999999999956,22.99999999999999 C 63.899999999999956,22.99999999999999 63.99999999999996,22.899999999999988 63.99999999999996,22.899999999999988 C 64.29999999999995,22.599999999999987 65.19999999999996,21.099999999999987 64.59999999999995,20.49999999999999 C 64.69999999999995,20.19999999999999 64.69999999999995,19.99999999999999 64.49999999999996,19.899999999999988 L 64.49999999999996,19.899999999999988 C 64.19999999999996,19.799999999999986 64.09999999999995,20.099999999999987 63.99999999999996,20.299999999999986 C 63.19999999999996,20.399999999999988 62.99999999999996,22.099999999999987 63.09999999999996,22.599999999999987 C 63.09999999999996,22.69999999999999 63.09999999999996,22.69999999999999 63.19999999999996,22.799999999999986 C 63.09999999999996,22.699999999999985 62.89999999999996,22.699999999999985 62.69999999999996,22.799999999999986 C 62.49999999999996,22.899999999999988 62.59999999999996,23.199999999999985 62.79999999999996,23.099999999999987 C 63.09999999999996,23.099999999999987 62.999999999999964,23.299999999999986 62.999999999999964,23.499999999999986 C 61.19999999999997,25.899999999999984 60.29999999999996,25.599999999999987 60.499999999999964,22.599999999999987 C 60.499999999999964,22.599999999999987 60.499999999999964,22.599999999999987 60.499999999999964,22.599999999999987 C 60.599999999999966,22.599999999999987 60.599999999999966,22.69999999999999 60.69999999999997,22.799999999999986 C 60.79999999999997,22.999999999999986 60.89999999999997,23.299999999999986 60.999999999999964,23.499999999999986 C 61.19999999999997,23.699999999999985 61.39999999999996,23.899999999999984 61.499999999999964,23.899999999999984 C 61.499999999999964,23.899999999999984 61.499999999999964,23.899999999999984 61.599999999999966,23.899999999999984 C 61.599999999999966,23.899999999999984 61.599999999999966,23.899999999999984 61.599999999999966,23.899999999999984 C 61.599999999999966,23.899999999999984 61.599999999999966,23.899999999999984 61.599999999999966,23.899999999999984 C 61.599999999999966,23.899999999999984 61.599999999999966,23.899999999999984 61.599999999999966,23.799999999999983 C 61.599999999999966,23.69999999999998 61.69999999999997,23.69999999999998 61.69999999999997,23.599999999999984 C 61.69999999999997,23.399999999999984 61.79999999999997,23.199999999999985 61.89999999999997,23.099999999999984 C 61.99999999999997,22.999999999999982 61.99999999999997,22.899999999999984 62.19999999999997,22.799999999999983 C 62.29999999999997,22.69999999999998 62.499999999999964,22.799999999999983 62.599999999999966,22.599999999999984 C 62.79999999999997,22.399999999999984 62.999999999999964,21.799999999999983 62.79999999999997,21.599999999999984 C 62.599999999999966,21.399999999999984 62.49999999999997,21.299999999999983 62.599999999999966,20.899999999999984 C 62.599999999999966,20.899999999999984 62.599999999999966,20.799999999999983 62.599999999999966,20.799999999999983 C 62.89999999999996,20.099999999999984 62.599999999999966,20.19999999999998 62.099999999999966,20.499999999999982 C 61.999999999999964,20.599999999999984 61.79999999999997,20.69999999999998 61.69999999999997,20.799999999999983 C 61.599999999999966,20.899999999999984 61.39999999999997,20.999999999999982 61.29999999999997,21.099999999999984 C 61.099999999999966,21.299999999999983 60.89999999999997,21.299999999999983 60.79999999999997,21.299999999999983 C 60.79999999999997,21.299999999999983 60.79999999999997,21.399999999999984 60.69999999999997,21.399999999999984 C 60.69999999999997,21.299999999999983 60.599999999999966,21.099999999999984 60.499999999999964,20.999999999999986 C 61.2,20.7 61.2,20.6 61.4,20.5 M 59.6,8.8 C 59.6,8.8 59.6,8.9 59.6,8.9 C 59.5,8.9 59.5,8.9 59.6,8.8 C 59.5,8.9 59.5,8.9 59.6,8.8 M 57.9,8.5 C 57.9,8.5 57.9,8.6 57.9,8.6 C 57.9,8.6 57.8,8.6 57.8,8.6 C 57.8,8.6 57.8,8.6 57.9,8.5 M 50.7,19.9 C 50.800000000000004,19.799999999999997 50.800000000000004,19.7 51.0,19.4 C 51.2,19.2 51.6,18.9 51.8,18.7 C 52.099999999999994,18.3 52.199999999999996,17.9 51.8,17.8 C 51.8,17.8 51.8,17.8 51.8,17.8 C 51.8,17.8 51.8,17.8 51.8,17.8 C 51.8,17.7 51.9,17.6 52.0,17.5 C 52.1,17.4 52.3,17.2 52.5,17.1 C 52.7,17.0 52.8,16.900000000000002 52.9,16.900000000000002 C 52.9,16.900000000000002 52.9,16.900000000000002 52.9,16.900000000000002 C 52.9,16.900000000000002 53.0,16.8 53.0,16.8 C 53.1,16.7 53.1,16.7 53.1,16.6 C 53.1,16.6 53.1,16.5 53.1,16.5 C 53.1,16.3 53.0,16.2 52.9,15.9 C 52.8,15.5 52.699999999999996,15.1 52.6,14.6 C 52.5,14.0 52.5,13.4 52.4,12.9 C 52.4,11.9 52.5,10.8 52.6,9.600000000000001 C 54.1,9.600000000000001 55.4,9.600000000000001 56.5,9.700000000000001 C 59.0,10.000000000000002 60.5,10.600000000000001 61.0,11.600000000000001 C 61.6,12.700000000000001 60.6,14.700000000000001 59.0,16.8 C 58.8,17.1 58.8,17.0 59.0,17.3 C 59.0,17.3 59.0,17.3 59.0,17.3 C 59.2,17.6 59.4,18.1 59.3,18.5 C 59.0,18.5 59.0,19.0 59.199999999999996,19.5 C 59.3,19.8 59.599999999999994,20.1 59.699999999999996,20.4 C 59.8,20.599999999999998 59.8,20.7 59.8,20.799999999999997 C 59.699999999999996,20.9 59.599999999999994,20.999999999999996 59.5,21.099999999999998 C 59.5,20.999999999999996 59.5,20.999999999999996 59.5,20.9 C 59.5,20.799999999999997 59.3,20.799999999999997 59.2,20.5 C 59.0,20.3 58.900000000000006,19.8 58.7,19.6 C 58.300000000000004,19.200000000000003 57.900000000000006,19.0 57.800000000000004,19.8 C 57.800000000000004,20.0 57.800000000000004,20.1 57.7,20.2 C 57.7,20.2 57.7,20.2 57.7,20.2 C 57.7,20.2 57.7,20.3 57.6,20.3 C 57.5,20.400000000000002 57.5,20.3 57.2,20.5 C 57.1,20.5 57.1,20.6 57.0,20.6 C 56.9,20.6 56.9,20.700000000000003 56.8,20.8 C 56.699999999999996,20.900000000000002 56.699999999999996,21.1 56.699999999999996,21.2 C 56.699999999999996,21.2 56.699999999999996,21.3 56.699999999999996,21.3 C 56.699999999999996,21.400000000000002 56.699999999999996,21.5 56.699999999999996,21.6 C 56.8,21.700000000000003 56.8,21.8 56.99999999999999,22.0 L 56.99999999999999,22.0 C 57.199999999999996,22.2 57.199999999999996,22.1 57.29999999999999,22.2 C 57.39999999999999,22.3 57.29999999999999,22.5 57.29999999999999,22.7 C 57.29999999999999,22.8 57.29999999999999,22.8 57.29999999999999,22.9 C 57.29999999999999,22.9 57.29999999999999,22.9 57.29999999999999,22.9 C 57.19999999999999,23.4 57.59999999999999,23.299999999999997 58.09999999999999,23.099999999999998 C 58.399999999999984,22.999999999999996 58.59999999999999,22.599999999999998 58.899999999999984,22.499999999999996 C 59.09999999999999,22.299999999999997 59.29999999999998,22.299999999999997 59.399999999999984,22.299999999999997 C 59.399999999999984,22.299999999999997 59.399999999999984,22.299999999999997 59.399999999999984,22.199999999999996 C 59.399999999999984,22.299999999999997 59.499999999999986,22.399999999999995 59.499999999999986,22.399999999999995 C 57.899999999999984,25.499999999999996 56.69999999999999,25.499999999999996 55.79999999999998,22.599999999999994 C 55.999999999999986,22.399999999999995 55.899999999999984,22.099999999999994 56.29999999999998,22.199999999999996 C 56.499999999999986,22.299999999999997 56.59999999999998,21.999999999999996 56.499999999999986,21.799999999999997 C 56.29999999999998,21.699999999999996 56.19999999999999,21.599999999999998 55.999999999999986,21.599999999999998 C 55.999999999999986,21.599999999999998 55.999999999999986,21.599999999999998 56.09999999999999,21.499999999999996 C 56.399999999999984,21.099999999999998 56.79999999999999,19.499999999999996 56.09999999999999,19.099999999999998 C 56.09999999999999,18.799999999999997 56.09999999999999,18.499999999999996 55.79999999999999,18.499999999999996 L 55.79999999999999,18.499999999999996 C 55.49999999999999,18.499999999999996 55.39999999999999,18.799999999999997 55.39999999999999,18.999999999999996 C 54.599999999999994,19.299999999999997 54.89999999999999,20.999999999999996 55.099999999999994,21.399999999999995 C 55.099999999999994,21.399999999999995 55.099999999999994,21.499999999999996 55.199999999999996,21.499999999999996 C 54.99999999999999,21.399999999999995 54.8,21.399999999999995 54.599999999999994,21.599999999999998 C 54.39999999999999,21.7 54.49999999999999,21.999999999999996 54.699999999999996,21.999999999999996 C 54.99999999999999,21.899999999999995 54.9,22.399999999999995 55.099999999999994,22.499999999999996 C 54.39999999999999,25.299999999999997 50.8,25.499999999999996 51.199999999999996,21.599999999999998 C 51.199999999999996,21.599999999999998 51.199999999999996,21.499999999999996 51.3,21.499999999999996 C 51.3,21.499999999999996 51.3,21.599999999999998 51.3,21.599999999999998 C 51.4,21.7 51.5,21.7 51.8,21.9 C 52.0,22.099999999999998 52.3,22.5 52.5,22.7 C 53.0,23.0 53.4,23.099999999999998 53.4,22.599999999999998 C 53.4,22.599999999999998 53.4,22.599999999999998 53.4,22.599999999999998 C 53.4,22.599999999999998 53.4,22.599999999999998 53.4,22.599999999999998 C 53.4,22.599999999999998 53.4,22.599999999999998 53.4,22.599999999999998 C 53.4,22.499999999999996 53.4,22.499999999999996 53.4,22.4 C 53.4,22.4 53.4,22.299999999999997 53.4,22.299999999999997 C 53.4,22.199999999999996 53.4,21.999999999999996 53.5,21.9 C 53.6,21.799999999999997 53.6,21.799999999999997 53.8,21.7 C 53.9,21.599999999999998 54.099999999999994,21.5 54.099999999999994,21.4 C 54.099999999999994,21.299999999999997 54.099999999999994,21.299999999999997 54.099999999999994,21.2 C 54.099999999999994,21.1 54.099999999999994,21.099999999999998 54.099999999999994,21.0 C 54.099999999999994,20.9 54.099999999999994,20.9 54.099999999999994,20.8 C 54.099999999999994,20.7 54.099999999999994,20.7 54.099999999999994,20.6 C 54.099999999999994,20.6 54.099999999999994,20.6 54.099999999999994,20.6 C 54.099999999999994,20.6 54.099999999999994,20.6 54.099999999999994,20.6 C 54.099999999999994,20.6 53.99999999999999,20.5 53.99999999999999,20.5 C 53.99999999999999,20.5 53.99999999999999,20.5 53.99999999999999,20.5 C 53.89999999999999,20.4 53.89999999999999,20.4 53.79999999999999,20.3 C 53.3,20.0 53.2,20.0 53.2,20.0 C 53.2,20.0 53.2,20.0 53.2,20.0 C 53.0,19.9 53.0,19.7 53.0,19.6 C 53.0,19.6 53.0,19.5 53.0,19.5 C 53.0,19.4 53.0,19.4 53.0,19.3 C 53.0,19.3 53.0,19.3 53.0,19.3 C 53.0,19.3 53.0,19.3 53.0,19.3 C 53.0,19.3 53.0,19.3 53.0,19.3 C 53.0,18.8 52.6,18.900000000000002 52.1,19.2 C 51.800000000000004,19.4 51.6,19.8 51.4,20.0 C 51.199999999999996,20.2 51.0,20.2 50.9,20.3 C 50.9,20.3 50.9,20.400000000000002 50.9,20.400000000000002 C 50.8,20.200000000000003 50.6,20.1 50.4,20.000000000000004 C 50.6,19.9 50.6,19.9 50.7,19.9 M 33.8,23.4 C 33.8,23.4 33.8,23.4 33.8,23.4 C 33.8,23.4 33.8,23.3 33.8,23.4 C 33.8,23.4 33.8,23.4 33.8,23.4 M 36.1,22.9 C 36.1,22.9 36.1,22.9 36.1,22.9 C 36.1,22.9 36.1,22.9 36.1,22.9 C 36.1,22.9 36.1,22.9 36.1,22.9 M 44.7,21.8 C 44.7,21.8 44.7,21.8 44.7,21.8 C 44.7,21.8 44.8,21.7 44.7,21.8 C 44.8,21.8 44.7,21.8 44.7,21.8 M 42.1,8.5 C 42.1,8.5 42.1,8.6 42.2,8.6 C 42.2,8.6 42.1,8.6 42.1,8.6 C 42.1,8.6 42.1,8.6 42.1,8.5 M 40.5,8.9 C 40.5,8.9 40.5,8.9 40.5,8.9 C 40.5,8.9 40.5,8.9 40.5,8.9 C 40.5,8.9 40.5,8.9 40.5,8.9 M 39.0,11.5 C 39.3,10.9 40.1,10.4 41.2,10.1 C 42.6,9.7 44.7,9.5 47.400000000000006,9.5 C 47.400000000000006,9.5 47.400000000000006,9.5 47.400000000000006,9.5 C 47.400000000000006,9.5 47.400000000000006,9.5 47.400000000000006,9.5 C 47.400000000000006,9.4 47.400000000000006,9.3 47.400000000000006,9.3 C 47.400000000000006,9.200000000000001 47.400000000000006,9.200000000000001 47.400000000000006,9.100000000000001 C 47.400000000000006,9.100000000000001 47.400000000000006,9.100000000000001 47.400000000000006,9.100000000000001 C 47.400000000000006,9.100000000000001 47.400000000000006,9.100000000000001 47.400000000000006,9.100000000000001 C 47.400000000000006,9.000000000000002 47.400000000000006,8.8 47.400000000000006,8.700000000000001 C 47.400000000000006,8.700000000000001 47.400000000000006,8.700000000000001 47.400000000000006,8.700000000000001 C 47.400000000000006,8.8 47.400000000000006,8.9 47.400000000000006,9.000000000000002 C 47.400000000000006,9.200000000000001 47.400000000000006,9.500000000000002 47.400000000000006,9.700000000000001 C 47.400000000000006,10.100000000000001 47.50000000000001,10.600000000000001 47.50000000000001,11.000000000000002 C 47.50000000000001,11.400000000000002 47.50000000000001,11.900000000000002 47.60000000000001,12.300000000000002 C 47.60000000000001,13.000000000000002 47.60000000000001,13.800000000000002 47.400000000000006,14.600000000000001 C 47.300000000000004,14.900000000000002 47.300000000000004,15.3 47.2,15.600000000000001 C 47.1,16.0 47.0,16.2 47.0,16.4 C 47.0,16.4 47.0,16.5 47.0,16.5 C 47.0,16.6 47.0,16.6 47.0,16.7 C 47.0,16.7 47.1,16.8 47.1,16.8 C 47.1,16.8 47.1,16.8 47.2,16.8 C 47.300000000000004,16.900000000000002 47.400000000000006,16.900000000000002 47.5,17.0 C 47.7,17.2 47.9,17.3 48.0,17.4 C 48.1,17.5 48.1,17.599999999999998 48.2,17.7 C 48.2,17.7 48.2,17.7 48.2,17.7 C 48.2,17.7 48.2,17.7 48.2,17.7 C 47.800000000000004,17.8 48.0,18.099999999999998 48.2,18.599999999999998 C 48.400000000000006,18.9 48.800000000000004,19.099999999999998 49.0,19.299999999999997 C 49.2,19.499999999999996 49.2,19.699999999999996 49.3,19.799999999999997 C 49.3,19.799999999999997 49.4,19.799999999999997 49.4,19.799999999999997 C 49.199999999999996,19.9 49.0,20.099999999999998 48.9,20.299999999999997 C 48.9,20.299999999999997 48.9,20.199999999999996 48.9,20.199999999999996 C 48.8,20.099999999999994 48.699999999999996,20.099999999999994 48.4,19.899999999999995 C 48.199999999999996,19.699999999999996 47.9,19.299999999999994 47.699999999999996,19.099999999999994 C 47.3,18.799999999999994 46.9,18.699999999999996 46.8,19.099999999999994 C 46.8,19.099999999999994 46.8,19.099999999999994 46.8,19.099999999999994 L 46.8,19.099999999999994 C 46.8,19.099999999999994 46.8,19.099999999999994 46.8,19.099999999999994 C 46.8,19.099999999999994 46.8,19.199999999999996 46.8,19.199999999999996 C 46.8,19.199999999999996 46.8,19.199999999999996 46.8,19.199999999999996 C 46.8,19.299999999999997 46.8,19.299999999999997 46.8,19.399999999999995 C 46.8,19.499999999999996 46.8,19.699999999999996 46.8,19.799999999999994 C 46.8,19.799999999999994 46.8,19.799999999999994 46.8,19.899999999999995 C 46.8,19.899999999999995 46.8,19.899999999999995 46.8,19.899999999999995 C 46.699999999999996,19.999999999999996 46.699999999999996,19.999999999999996 46.5,20.099999999999994 C 46.4,20.199999999999996 46.2,20.299999999999994 46.2,20.399999999999995 C 46.2,20.399999999999995 46.2,20.499999999999996 46.2,20.499999999999996 C 46.2,20.599999999999998 46.2,20.699999999999996 46.2,20.799999999999997 C 46.2,20.9 46.2,21.099999999999998 46.2,21.199999999999996 C 46.300000000000004,21.299999999999997 46.400000000000006,21.399999999999995 46.5,21.499999999999996 C 46.7,21.599999999999998 46.8,21.599999999999998 46.8,21.699999999999996 C 46.9,21.799999999999997 46.9,21.999999999999996 46.9,22.199999999999996 C 46.9,22.299999999999997 46.9,22.299999999999997 46.9,22.399999999999995 C 46.9,22.399999999999995 46.9,22.399999999999995 46.9,22.399999999999995 C 46.9,22.399999999999995 46.9,22.499999999999996 46.9,22.499999999999996 C 46.9,22.499999999999996 46.9,22.499999999999996 46.9,22.499999999999996 C 46.9,22.499999999999996 46.9,22.499999999999996 46.9,22.499999999999996 C 47.0,22.899999999999995 47.3,22.699999999999996 47.8,22.499999999999996 C 48.099999999999994,22.299999999999997 48.3,21.899999999999995 48.5,21.699999999999996 C 48.7,21.499999999999996 48.9,21.499999999999996 49.0,21.399999999999995 C 49.0,21.399999999999995 49.0,21.299999999999994 49.0,21.299999999999994 C 49.0,21.299999999999994 49.0,21.399999999999995 49.1,21.399999999999995 C 49.5,25.299999999999994 45.9,25.099999999999994 45.2,22.299999999999994 C 45.5,22.099999999999994 45.300000000000004,21.699999999999992 45.6,21.799999999999994 C 45.800000000000004,21.799999999999994 45.9,21.499999999999993 45.7,21.399999999999995 C 45.5,21.299999999999994 45.300000000000004,21.199999999999996 45.1,21.299999999999994 C 45.1,21.299999999999994 45.1,21.199999999999992 45.2,21.199999999999992 C 45.400000000000006,20.799999999999994 45.7,19.09999999999999 44.900000000000006,18.799999999999994 C 44.900000000000006,18.499999999999993 44.800000000000004,18.199999999999992 44.50000000000001,18.299999999999994 L 44.50000000000001,18.299999999999994 C 44.20000000000001,18.299999999999994 44.20000000000001,18.599999999999994 44.20000000000001,18.899999999999995 C 43.50000000000001,19.299999999999994 43.90000000000001,20.999999999999996 44.20000000000001,21.299999999999994 C 44.20000000000001,21.299999999999994 44.20000000000001,21.299999999999994 44.30000000000001,21.399999999999995 C 44.10000000000001,21.399999999999995 44.000000000000014,21.399999999999995 43.80000000000001,21.599999999999994 C 43.60000000000001,21.699999999999996 43.80000000000001,21.999999999999993 44.000000000000014,21.999999999999993 C 44.30000000000001,21.89999999999999 44.20000000000002,22.299999999999994 44.500000000000014,22.39999999999999 C 43.600000000000016,25.29999999999999 42.40000000000001,25.29999999999999 40.80000000000001,22.199999999999992 C 40.80000000000001,22.09999999999999 40.90000000000001,21.999999999999993 40.90000000000001,21.999999999999993 C 40.90000000000001,21.999999999999993 40.90000000000001,21.999999999999993 40.90000000000001,22.099999999999994 C 41.000000000000014,22.199999999999996 41.100000000000016,22.199999999999996 41.40000000000001,22.299999999999994 C 41.600000000000016,22.499999999999993 41.90000000000001,22.799999999999994 42.20000000000001,22.899999999999995 C 42.70000000000001,23.099999999999994 43.00000000000001,23.199999999999996 43.00000000000001,22.699999999999996 C 43.00000000000001,22.699999999999996 43.00000000000001,22.699999999999996 43.00000000000001,22.699999999999996 C 43.00000000000001,22.699999999999996 43.00000000000001,22.599999999999994 43.00000000000001,22.599999999999994 C 43.00000000000001,22.599999999999994 43.00000000000001,22.599999999999994 43.00000000000001,22.599999999999994 C 43.00000000000001,22.499999999999993 42.900000000000006,22.399999999999995 42.900000000000006,22.299999999999994 C 42.900000000000006,22.199999999999992 42.900000000000006,22.199999999999992 42.900000000000006,22.199999999999992 C 43.00000000000001,22.09999999999999 43.00000000000001,22.09999999999999 43.2,21.999999999999993 L 43.2,21.999999999999993 C 43.300000000000004,21.89999999999999 43.400000000000006,21.799999999999994 43.400000000000006,21.699999999999992 C 43.400000000000006,21.699999999999992 43.400000000000006,21.699999999999992 43.400000000000006,21.59999999999999 C 43.400000000000006,21.49999999999999 43.400000000000006,21.39999999999999 43.400000000000006,21.29999999999999 C 43.400000000000006,21.29999999999999 43.400000000000006,21.19999999999999 43.400000000000006,21.19999999999999 C 43.400000000000006,21.19999999999999 43.400000000000006,21.099999999999987 43.400000000000006,21.099999999999987 C 43.400000000000006,20.999999999999986 43.400000000000006,20.899999999999988 43.300000000000004,20.799999999999986 C 43.2,20.699999999999985 43.1,20.599999999999987 42.900000000000006,20.499999999999986 C 42.7,20.399999999999984 42.60000000000001,20.399999999999984 42.50000000000001,20.299999999999986 C 42.400000000000006,20.199999999999985 42.400000000000006,19.999999999999986 42.300000000000004,19.799999999999986 C 42.300000000000004,19.799999999999986 42.300000000000004,19.799999999999986 42.300000000000004,19.799999999999986 C 42.300000000000004,19.699999999999985 42.300000000000004,19.699999999999985 42.300000000000004,19.599999999999987 C 42.300000000000004,19.599999999999987 42.300000000000004,19.599999999999987 42.300000000000004,19.599999999999987 C 42.2,18.999999999999986 41.800000000000004,19.19999999999999 41.50000000000001,19.599999999999987 C 41.300000000000004,19.799999999999986 41.10000000000001,20.299999999999986 41.00000000000001,20.499999999999986 C 40.800000000000004,20.699999999999985 40.70000000000001,20.799999999999986 40.70000000000001,20.899999999999984 C 40.70000000000001,20.999999999999986 40.70000000000001,20.999999999999986 40.70000000000001,21.099999999999984 C 40.60000000000001,20.999999999999982 40.50000000000001,20.899999999999984 40.40000000000001,20.799999999999983 C 40.40000000000001,20.69999999999998 40.40000000000001,20.599999999999984 40.500000000000014,20.399999999999984 C 40.600000000000016,20.099999999999984 40.90000000000001,19.799999999999983 41.000000000000014,19.499999999999986 C 41.20000000000002,18.999999999999986 41.20000000000002,18.499999999999986 40.90000000000001,18.499999999999986 C 40.80000000000001,18.099999999999987 41.000000000000014,17.699999999999985 41.20000000000001,17.299999999999986 C 41.20000000000001,17.299999999999986 41.20000000000001,17.299999999999986 41.20000000000001,17.299999999999986 C 41.40000000000001,17.099999999999987 41.40000000000001,17.099999999999987 41.20000000000001,16.799999999999986 C 39.5,14.5 38.4,12.6 39.0,11.5 M 31.9,13.9 C 31.9,13.9 32.0,13.8 32.0,13.8 C 32.0,13.8 32.1,13.8 32.1,13.700000000000001 C 32.1,13.700000000000001 32.2,13.600000000000001 32.2,13.600000000000001 C 32.2,13.600000000000001 32.300000000000004,13.500000000000002 32.300000000000004,13.500000000000002 C 32.300000000000004,13.500000000000002 32.400000000000006,13.500000000000002 32.400000000000006,13.400000000000002 C 32.400000000000006,13.400000000000002 32.50000000000001,13.300000000000002 32.60000000000001,13.300000000000002 C 32.60000000000001,13.300000000000002 32.70000000000001,13.300000000000002 32.70000000000001,13.200000000000003 C 32.80000000000001,13.200000000000003 32.80000000000001,13.100000000000003 32.90000000000001,13.100000000000003 C 32.90000000000001,13.100000000000003 33.000000000000014,13.100000000000003 33.000000000000014,13.000000000000004 C 33.100000000000016,13.000000000000004 33.100000000000016,12.900000000000004 33.20000000000002,12.900000000000004 C 33.20000000000002,12.900000000000004 33.30000000000002,12.900000000000004 33.30000000000002,12.900000000000004 C 33.50000000000002,12.800000000000004 33.80000000000002,12.700000000000005 34.00000000000002,12.600000000000003 C 34.00000000000002,12.600000000000003 34.10000000000002,12.600000000000003 34.10000000000002,12.600000000000003 C 34.200000000000024,12.600000000000003 34.300000000000026,12.500000000000004 34.40000000000002,12.500000000000004 C 34.40000000000002,12.500000000000004 34.50000000000002,12.500000000000004 34.50000000000002,12.500000000000004 C 34.60000000000002,12.500000000000004 34.700000000000024,12.400000000000004 34.80000000000002,12.400000000000004 C 34.80000000000002,12.400000000000004 34.90000000000002,12.400000000000004 34.90000000000002,12.400000000000004 C 34.90000000000002,12.400000000000004 34.90000000000002,12.400000000000004 34.90000000000002,12.400000000000004 C 34.90000000000002,12.400000000000004 34.90000000000002,12.500000000000004 34.90000000000002,12.500000000000004 C 34.90000000000002,12.500000000000004 34.90000000000002,12.600000000000003 34.90000000000002,12.600000000000003 C 34.90000000000002,12.600000000000003 34.90000000000002,12.700000000000003 34.90000000000002,12.700000000000003 C 34.90000000000002,12.700000000000003 34.90000000000002,12.800000000000002 34.90000000000002,12.800000000000002 C 34.90000000000002,12.800000000000002 34.90000000000002,12.900000000000002 34.90000000000002,12.900000000000002 C 34.90000000000002,12.900000000000002 34.90000000000002,13.000000000000002 34.90000000000002,13.000000000000002 C 35.30000000000002,14.400000000000002 35.90000000000002,15.900000000000002 36.40000000000002,17.6 C 36.40000000000002,17.700000000000003 36.60000000000002,17.8 36.70000000000002,17.8 C 36.90000000000002,17.900000000000002 37.20000000000002,18.2 37.500000000000014,18.6 C 37.500000000000014,18.6 37.500000000000014,18.6 37.500000000000014,18.700000000000003 C 37.500000000000014,18.700000000000003 37.500000000000014,18.700000000000003 37.500000000000014,18.700000000000003 C 37.500000000000014,18.700000000000003 37.600000000000016,18.800000000000004 37.600000000000016,18.800000000000004 C 37.600000000000016,18.800000000000004 37.500000000000014,18.800000000000004 37.500000000000014,18.800000000000004 C 37.500000000000014,18.800000000000004 37.500000000000014,18.800000000000004 37.500000000000014,18.800000000000004 C 37.500000000000014,18.800000000000004 37.40000000000001,18.800000000000004 37.40000000000001,18.800000000000004 C 37.40000000000001,18.800000000000004 37.40000000000001,18.800000000000004 37.40000000000001,18.800000000000004 C 37.40000000000001,18.800000000000004 37.40000000000001,18.800000000000004 37.40000000000001,18.800000000000004 C 37.100000000000016,18.900000000000006 37.30000000000001,19.300000000000004 37.70000000000001,19.700000000000003 C 37.90000000000001,19.900000000000002 38.30000000000001,20.200000000000003 38.60000000000001,20.400000000000002 C 38.70000000000001,20.500000000000004 38.80000000000001,20.6 38.900000000000006,20.700000000000003 C 38.800000000000004,20.800000000000004 38.800000000000004,20.900000000000002 38.7,21.1 C 38.7,21.1 38.7,21.0 38.6,21.0 C 38.5,20.9 38.4,20.9 38.1,20.8 C 38.0,20.7 37.800000000000004,20.6 37.7,20.5 C 37.6,20.4 37.400000000000006,20.3 37.300000000000004,20.2 C 36.800000000000004,19.9 36.400000000000006,19.9 36.800000000000004,20.5 C 36.800000000000004,20.5 36.800000000000004,20.6 36.800000000000004,20.6 C 36.900000000000006,20.900000000000002 36.800000000000004,21.0 36.6,21.200000000000003 C 36.4,21.500000000000004 36.6,22.000000000000004 36.800000000000004,22.200000000000003 C 36.900000000000006,22.300000000000004 37.00000000000001,22.300000000000004 37.2,22.400000000000002 C 37.400000000000006,22.500000000000004 37.400000000000006,22.6 37.5,22.700000000000003 C 37.6,22.800000000000004 37.7,23.000000000000004 37.7,23.200000000000003 C 37.7,23.300000000000004 37.800000000000004,23.300000000000004 37.800000000000004,23.400000000000002 C 37.800000000000004,23.400000000000002 37.800000000000004,23.500000000000004 37.900000000000006,23.500000000000004 C 37.900000000000006,23.500000000000004 37.900000000000006,23.500000000000004 37.900000000000006,23.500000000000004 C 37.900000000000006,23.500000000000004 37.900000000000006,23.500000000000004 37.900000000000006,23.500000000000004 C 37.900000000000006,23.500000000000004 37.900000000000006,23.500000000000004 38.00000000000001,23.500000000000004 C 38.10000000000001,23.500000000000004 38.300000000000004,23.400000000000002 38.50000000000001,23.100000000000005 C 38.60000000000001,22.900000000000006 38.70000000000001,22.600000000000005 38.800000000000004,22.400000000000006 C 38.900000000000006,22.300000000000004 39.00000000000001,22.200000000000006 39.00000000000001,22.200000000000006 C 39.00000000000001,22.200000000000006 39.00000000000001,22.200000000000006 39.00000000000001,22.200000000000006 C 39.20000000000001,25.200000000000006 38.300000000000004,25.500000000000007 36.50000000000001,23.100000000000005 C 36.60000000000001,22.900000000000006 36.50000000000001,22.700000000000006 36.70000000000001,22.700000000000006 C 36.90000000000001,22.700000000000006 36.90000000000001,22.400000000000006 36.80000000000001,22.400000000000006 C 36.60000000000001,22.300000000000004 36.40000000000001,22.300000000000004 36.30000000000001,22.400000000000006 C 36.30000000000001,22.300000000000004 36.30000000000001,22.300000000000004 36.40000000000001,22.200000000000006 C 36.500000000000014,21.700000000000006 36.30000000000001,20.000000000000007 35.500000000000014,19.900000000000006 C 35.40000000000001,19.600000000000005 35.30000000000001,19.400000000000006 35.000000000000014,19.500000000000007 L 35.000000000000014,19.500000000000007 C 34.70000000000002,19.60000000000001 34.80000000000001,19.900000000000006 34.90000000000001,20.10000000000001 C 34.30000000000001,20.70000000000001 35.100000000000016,22.20000000000001 35.500000000000014,22.500000000000007 C 35.500000000000014,22.500000000000007 35.600000000000016,22.60000000000001 35.600000000000016,22.60000000000001 C 35.500000000000014,22.60000000000001 35.40000000000001,22.60000000000001 35.20000000000002,22.70000000000001 C 35.100000000000016,22.80000000000001 35.30000000000002,23.10000000000001 35.40000000000002,23.00000000000001 C 35.70000000000002,22.80000000000001 35.60000000000002,23.20000000000001 35.80000000000002,23.30000000000001 C 35.600000000000016,25.600000000000012 34.70000000000002,25.600000000000012 33.70000000000002,23.30000000000001 C 34.100000000000016,23.20000000000001 34.600000000000016,24.00000000000001 34.70000000000002,24.00000000000001 C 34.70000000000002,24.00000000000001 34.70000000000002,24.00000000000001 34.70000000000002,24.00000000000001 C 34.70000000000002,24.00000000000001 34.70000000000002,24.00000000000001 34.70000000000002,24.00000000000001 C 34.90000000000002,24.100000000000012 34.90000000000002,24.00000000000001 35.000000000000014,24.00000000000001 C 35.000000000000014,23.90000000000001 35.000000000000014,23.80000000000001 34.90000000000001,23.600000000000012 C 34.80000000000001,23.400000000000013 34.70000000000001,23.200000000000014 34.70000000000001,23.100000000000012 C 34.70000000000001,23.00000000000001 34.60000000000001,22.900000000000013 34.70000000000001,22.600000000000012 C 34.70000000000001,22.400000000000013 34.80000000000001,22.400000000000013 34.80000000000001,22.200000000000014 C 34.80000000000001,21.900000000000013 34.500000000000014,21.300000000000015 34.20000000000001,21.300000000000015 C 33.90000000000001,21.300000000000015 33.70000000000001,21.300000000000015 33.50000000000001,20.800000000000015 C 33.400000000000006,20.600000000000016 33.400000000000006,20.600000000000016 33.300000000000004,20.500000000000014 L 33.300000000000004,20.500000000000014 C 33.300000000000004,20.500000000000014 33.300000000000004,20.500000000000014 33.300000000000004,20.500000000000014 C 33.300000000000004,20.500000000000014 33.300000000000004,20.500000000000014 33.300000000000004,20.500000000000014 C 33.300000000000004,20.300000000000015 32.900000000000006,20.400000000000013 32.900000000000006,20.800000000000015 C 32.900000000000006,21.100000000000016 32.900000000000006,21.300000000000015 32.900000000000006,21.600000000000016 C 32.900000000000006,21.600000000000016 32.900000000000006,21.600000000000016 32.800000000000004,21.600000000000016 C 32.800000000000004,21.600000000000016 32.7,21.600000000000016 32.7,21.600000000000016 C 32.7,21.500000000000014 32.7,21.500000000000014 32.6,21.400000000000016 C 32.5,21.100000000000016 32.4,20.700000000000017 32.5,20.400000000000016 C 32.7,20.000000000000018 32.7,19.500000000000018 32.4,19.600000000000016 C 32.199999999999996,19.000000000000014 32.3,18.200000000000017 32.4,18.000000000000014 C 32.4,17.900000000000013 32.3,17.700000000000014 32.3,17.600000000000016 C 30.6,15.1 30.6,14.9 31.9,13.9 M 30.8,20.5 C 30.7,20.6 30.6,20.6 30.5,20.7 C 30.6,20.7 30.7,20.6 30.8,20.5" fill="#313d83" stroke="none" stroke-width="3.0" /><path d="M 41.9,37.7 L 42.199999999999996,38.0 L 42.199999999999996,38.0 C 42.49999999999999,37.9 42.699999999999996,37.6 42.8,37.1 C 42.599999999999994,37.0 42.4,36.9 42.099999999999994,36.800000000000004 C 41.8,37.3 41.7,37.5 41.9,37.7" fill="#313d83" stroke="none" stroke-width="3.0" /><path d="M 57.8,38.0 L 57.8,38.0 L 58.099999999999994,37.7 C 58.3,37.5 58.199999999999996,37.2 57.8,36.900000000000006 C 57.5,37.00000000000001 57.3,37.10000000000001 57.099999999999994,37.2 C 57.3,37.6 57.5,37.9 57.8,38.0" fill="#313d83" stroke="none" stroke-width="3.0" /><path d="M 38.3,91.9 C 38.3,92.2 38.5,92.5 38.599999999999994,92.7 C 38.39999999999999,92.5 38.3,92.10000000000001 38.3,91.7 C 38.3,91.8 38.3,91.9 38.3,91.9" fill="#313d83" stroke="none" stroke-width="3.0" /><path d="M 38.5,63.0 C 38.5,62.7 38.5,62.4 38.5,62.1 C 38.5,62.1 38.5,62.1 38.5,62.1 C 38.6,62.3 38.6,62.6 38.5,63.0" fill="#313d83" stroke="none" stroke-width="3.0" /><path d="M 62.4,91.9 C 62.4,92.2 62.6,92.5 62.699999999999996,92.7 C 62.49999999999999,92.5 62.4,92.10000000000001 62.4,91.7 C 62.4,91.8 62.4,91.9 62.4,91.9" fill="#313d83" stroke="none" stroke-width="3.0" /><path d="M 37.6,91.9 C 37.6,91.80000000000001 37.6,91.80000000000001 37.6,91.7 C 37.5,92.10000000000001 37.4,92.5 37.300000000000004,92.7 C 37.4,92.5 37.5,92.3 37.6,91.9" fill="#313d83" stroke="none" stroke-width="3.0" /><path d="M 47.9,51.6 L 40.0,51.6 L 40.0,61.5 L 47.9,61.5 L 47.9,51.6 M 46.6,59.7 C 45.300000000000004,60.0 42.2,61.300000000000004 42.1,58.6 C 42.0,57.4 43.7,56.5 44.1,57.6 C 44.300000000000004,58.1 44.1,58.5 43.800000000000004,58.6 C 43.50000000000001,58.7 43.1,58.5 43.2,58.1 C 41.900000000000006,58.800000000000004 44.400000000000006,60.2 45.5,58.300000000000004 C 45.8,57.7 44.9,57.2 44.9,56.800000000000004 C 44.9,56.400000000000006 45.8,55.800000000000004 45.5,55.300000000000004 C 44.4,53.400000000000006 41.9,54.900000000000006 43.2,55.50000000000001 C 43.1,55.10000000000001 43.400000000000006,54.800000000000004 43.800000000000004,55.00000000000001 C 44.1,55.10000000000001 44.300000000000004,55.50000000000001 44.1,56.00000000000001 C 43.7,57.10000000000001 42.0,56.300000000000004 42.1,55.00000000000001 C 42.300000000000004,52.300000000000004 45.4,53.50000000000001 46.6,53.900000000000006 L 46.6,59.7" fill="#313d83" stroke="none" stroke-width="3.0" /><path d="M 50.0,78.1 C 50.4,78.1 50.7,78.1 51.1,78.0 C 50.7,78.1 50.4,78.1 50.0,78.1 L 50.0,78.1 C 49.8,78.1 49.6,78.1 49.5,78.1 C 49.6,78.1 49.8,78.1 50.0,78.1 L 50.0,78.1" fill="#313d83" stroke="none" stroke-width="3.0" /><path d="M 25.1,33.6 L 25.1,73.80000000000001 C 25.1,81.00000000000001 27.900000000000002,87.50000000000001 32.4,92.30000000000001 C 36.9,97.00000000000001 43.099999999999994,100.00000000000001 50.0,100.00000000000001 L 50.0,100.00000000000001 C 56.9,100.00000000000001 63.1,97.10000000000001 67.6,92.30000000000001 C 72.1,87.60000000000001 74.89999999999999,81.00000000000001 74.89999999999999,73.80000000000001 L 74.89999999999999,33.6 L 25.1,33.6 M 39.9,92.9 L 39.9,92.9 C 39.6,93.10000000000001 39.3,93.2 39.1,93.10000000000001 C 39.300000000000004,93.2 39.0,93.60000000000001 38.5,94.00000000000001 C 38.4,94.00000000000001 38.3,94.20000000000002 38.2,94.50000000000001 C 38.2,94.60000000000001 37.900000000000006,94.60000000000001 37.900000000000006,94.50000000000001 C 37.800000000000004,94.20000000000002 37.7,94.10000000000001 37.60000000000001,94.00000000000001 C 37.00000000000001,93.60000000000001 36.80000000000001,93.30000000000001 37.00000000000001,93.10000000000001 C 36.70000000000001,93.2 36.50000000000001,93.2 36.20000000000001,92.9 L 36.20000000000001,92.9 C 35.90000000000001,92.7 35.60000000000001,92.10000000000001 35.90000000000001,92.10000000000001 C 36.600000000000016,92.4 37.000000000000014,92.10000000000001 37.100000000000016,91.60000000000001 C 36.90000000000001,91.50000000000001 36.70000000000002,91.30000000000001 36.70000000000002,91.10000000000001 C 36.70000000000002,90.9 36.90000000000002,90.7 37.100000000000016,90.60000000000001 C 37.000000000000014,90.10000000000001 36.600000000000016,89.60000000000001 36.000000000000014,89.50000000000001 C 35.40000000000001,89.40000000000002 35.100000000000016,89.70000000000002 35.20000000000002,90.30000000000001 C 35.20000000000002,90.50000000000001 35.100000000000016,90.50000000000001 35.000000000000014,90.4 C 32.90000000000001,87.60000000000001 36.70000000000002,86.7 37.500000000000014,88.80000000000001 C 37.600000000000016,89.20000000000002 37.70000000000002,89.50000000000001 37.80000000000001,89.80000000000001 C 37.80000000000001,89.70000000000002 37.80000000000001,89.60000000000001 37.80000000000001,89.60000000000001 C 37.70000000000001,89.00000000000001 37.500000000000014,88.30000000000001 36.90000000000001,87.7 C 36.40000000000001,87.10000000000001 36.30000000000001,86.0 36.90000000000001,85.3 C 37.30000000000001,84.8 37.90000000000001,84.2 38.100000000000016,83.7 L 38.100000000000016,83.7 L 38.100000000000016,83.7 C 38.100000000000016,83.60000000000001 38.20000000000002,83.60000000000001 38.20000000000002,83.60000000000001 C 38.30000000000002,83.60000000000001 38.30000000000002,83.60000000000001 38.30000000000002,83.7 L 38.30000000000002,83.7 C 38.50000000000002,84.2 39.00000000000002,84.8 39.50000000000002,85.3 C 40.200000000000024,86.0 40.00000000000002,87.1 39.50000000000002,87.7 C 39.00000000000002,88.3 38.700000000000024,89.0 38.60000000000002,89.60000000000001 C 38.60000000000002,89.7 38.60000000000002,89.7 38.60000000000002,89.80000000000001 C 38.700000000000024,89.50000000000001 38.800000000000026,89.20000000000002 38.90000000000002,88.80000000000001 C 39.70000000000002,86.70000000000002 43.50000000000002,87.50000000000001 41.40000000000002,90.4 C 41.30000000000002,90.5 41.20000000000002,90.5 41.20000000000002,90.30000000000001 C 41.30000000000002,89.70000000000002 40.90000000000002,89.4 40.40000000000002,89.50000000000001 C 39.80000000000002,89.60000000000001 39.40000000000002,90.10000000000001 39.30000000000002,90.60000000000001 C 39.50000000000002,90.7 39.70000000000002,90.9 39.70000000000002,91.10000000000001 C 39.70000000000002,91.30000000000001 39.500000000000014,91.50000000000001 39.30000000000002,91.60000000000001 C 39.50000000000002,92.10000000000001 39.80000000000002,92.30000000000001 40.50000000000002,92.10000000000001 C 40.5,92.1 40.2,92.7 39.9,92.9 M 65.3,90.4 C 65.2,90.5 65.1,90.5 65.1,90.30000000000001 C 65.19999999999999,89.70000000000002 64.8,89.4 64.3,89.50000000000001 C 63.699999999999996,89.60000000000001 63.3,90.10000000000001 63.199999999999996,90.60000000000001 C 63.4,90.7 63.599999999999994,90.9 63.599999999999994,91.10000000000001 C 63.599999999999994,91.30000000000001 63.39999999999999,91.50000000000001 63.199999999999996,91.60000000000001 C 63.4,92.10000000000001 63.699999999999996,92.30000000000001 64.39999999999999,92.10000000000001 C 64.69999999999999,92.10000000000001 64.39999999999999,92.7 64.1,92.9 L 64.1,92.9 C 63.8,93.10000000000001 63.49999999999999,93.2 63.3,93.10000000000001 C 63.5,93.2 63.199999999999996,93.60000000000001 62.699999999999996,94.00000000000001 C 62.599999999999994,94.00000000000001 62.49999999999999,94.20000000000002 62.4,94.50000000000001 C 62.4,94.60000000000001 62.1,94.60000000000001 62.1,94.50000000000001 C 62.0,94.20000000000002 61.9,94.10000000000001 61.800000000000004,94.00000000000001 C 61.300000000000004,93.60000000000001 61.00000000000001,93.30000000000001 61.2,93.10000000000001 C 60.900000000000006,93.2 60.7,93.2 60.400000000000006,92.9 L 60.400000000000006,92.9 C 60.10000000000001,92.7 59.800000000000004,92.10000000000001 60.10000000000001,92.10000000000001 C 60.80000000000001,92.4 61.20000000000001,92.10000000000001 61.30000000000001,91.60000000000001 C 61.10000000000001,91.50000000000001 60.90000000000001,91.30000000000001 60.90000000000001,91.10000000000001 C 60.90000000000001,90.9 61.100000000000016,90.7 61.30000000000001,90.60000000000001 C 61.20000000000001,90.10000000000001 60.80000000000001,89.60000000000001 60.20000000000001,89.50000000000001 C 59.60000000000001,89.40000000000002 59.30000000000001,89.70000000000002 59.40000000000001,90.30000000000001 C 59.40000000000001,90.50000000000001 59.30000000000001,90.50000000000001 59.20000000000001,90.4 C 57.10000000000001,87.60000000000001 60.90000000000001,86.7 61.70000000000001,88.80000000000001 C 61.80000000000001,89.10000000000001 61.90000000000001,89.50000000000001 62.00000000000001,89.80000000000001 C 62.00000000000001,89.70000000000002 62.00000000000001,89.70000000000002 62.00000000000001,89.60000000000001 C 61.900000000000006,89.00000000000001 61.70000000000001,88.30000000000001 61.10000000000001,87.7 C 60.60000000000001,87.10000000000001 60.50000000000001,86.0 61.10000000000001,85.3 C 61.50000000000001,84.8 62.10000000000001,84.2 62.30000000000001,83.7 L 62.30000000000001,83.7 L 62.30000000000001,83.7 C 62.30000000000001,83.60000000000001 62.40000000000001,83.60000000000001 62.40000000000001,83.60000000000001 C 62.40000000000001,83.60000000000001 62.500000000000014,83.60000000000001 62.500000000000014,83.7 L 62.500000000000014,83.7 C 62.70000000000002,84.2 63.20000000000002,84.8 63.70000000000002,85.3 C 64.40000000000002,86.0 64.20000000000002,87.1 63.70000000000002,87.7 C 63.20000000000002,88.3 62.90000000000002,89.0 62.80000000000002,89.60000000000001 C 62.80000000000002,89.7 62.80000000000002,89.7 62.80000000000002,89.80000000000001 C 62.90000000000002,89.50000000000001 63.00000000000002,89.10000000000001 63.100000000000016,88.80000000000001 C 63.6,86.7 67.4,87.6 65.3,90.4 M 73.8,57.1 C 73.8,58.4 73.7,59.5 73.39999999999999,60.4 C 73.69999999999999,63.3 73.1,67.0 72.39999999999999,71.8 C 71.69999999999999,76.1 72.1,79.39999999999999 72.6,81.6 C 71.3,81.39999999999999 70.3,80.69999999999999 69.69999999999999,79.3 C 69.49999999999999,80.0 69.29999999999998,80.7 68.99999999999999,81.5 C 67.89999999999999,80.8 67.29999999999998,79.3 66.99999999999999,77.6 C 66.79999999999998,78.0 66.69999999999999,78.39999999999999 66.49999999999999,78.6 C 65.99999999999999,78.19999999999999 65.69999999999999,77.5 65.39999999999999,76.69999999999999 C 65.39999999999999,76.69999999999999 65.39999999999999,76.79999999999998 65.3,76.79999999999998 C 64.0,76.19999999999999 63.4,73.99999999999999 63.3,71.19999999999999 C 63.199999999999996,71.6 63.0,71.89999999999999 62.8,72.19999999999999 C 62.199999999999996,71.69999999999999 61.699999999999996,70.89999999999999 61.599999999999994,69.69999999999999 C 61.599999999999994,69.39999999999999 61.599999999999994,68.49999999999999 61.49999999999999,67.49999999999999 C 61.39999999999999,68.49999999999999 61.099999999999994,69.39999999999999 60.699999999999996,69.99999999999999 C 60.4,69.69999999999999 60.099999999999994,69.39999999999999 59.8,68.89999999999999 C 59.8,68.49999999999999 59.9,68.19999999999999 59.9,67.8 L 59.9,51.6 L 52.0,51.6 L 52.0,61.5 L 60.0,61.5 L 60.0,65.6 L 52.1,65.6 L 52.1,77.89999999999999 C 54.0,77.49999999999999 55.7,76.49999999999999 57.1,75.1 C 58.6,73.5 59.7,71.39999999999999 59.9,69.0 C 60.0,69.2 60.199999999999996,69.3 60.3,69.5 C 60.4,69.6 60.599999999999994,69.8 60.699999999999996,69.9 C 60.9,70.2 61.099999999999994,70.60000000000001 61.199999999999996,71.10000000000001 C 61.599999999999994,73.10000000000001 62.3,74.10000000000001 63.099999999999994,75.2 C 62.99999999999999,75.2 62.89999999999999,75.2 62.699999999999996,75.2 C 63.49999999999999,76.8 64.19999999999999,77.7 65.19999999999999,78.5 C 64.69999999999999,78.6 64.19999999999999,78.6 63.69999999999999,78.6 C 64.29999999999998,79.69999999999999 64.89999999999999,80.8 65.69999999999999,81.8 C 66.1,82.0 66.29999999999998,82.2 66.6,82.3 C 66.89999999999999,82.39999999999999 69.0,82.3 69.1,82.2 C 69.5,81.8 70.1,81.8 70.3,82.10000000000001 C 70.8,81.9 71.3,82.00000000000001 71.7,82.9 C 71.8,83.10000000000001 71.60000000000001,83.2 71.5,83.10000000000001 C 71.3,82.9 71.0,82.80000000000001 70.5,83.10000000000001 C 70.4,83.4 70.0,83.80000000000001 69.7,83.60000000000001 C 69.3,83.30000000000001 67.8,83.60000000000001 67.3,83.4 C 67.5,83.80000000000001 68.8,84.10000000000001 69.8,84.2 C 70.39999999999999,84.2 70.5,84.60000000000001 70.5,85.10000000000001 C 70.7,85.4 70.7,85.9 70.3,86.7 C 70.2,87.0 70.1,86.9 70.1,86.7 C 70.1,86.5 70.1,86.3 69.89999999999999,86.10000000000001 C 69.49999999999999,86.50000000000001 68.8,86.4 68.8,85.9 C 68.8,85.30000000000001 66.8,84.60000000000001 66.39999999999999,84.10000000000001 C 66.8,85.00000000000001 67.6,85.80000000000001 67.99999999999999,86.7 C 68.39999999999999,87.10000000000001 68.69999999999999,87.2 68.19999999999999,88.0 C 68.29999999999998,88.5 68.1,89.1 67.39999999999999,89.7 C 67.19999999999999,89.9 66.99999999999999,89.7 67.1,89.4 C 67.19999999999999,89.10000000000001 67.1,88.7 66.89999999999999,88.30000000000001 C 66.89999999999999,88.30000000000001 66.89999999999999,88.30000000000001 66.89999999999999,88.30000000000001 C 65.99999999999999,88.20000000000002 65.89999999999999,87.9 65.99999999999999,87.20000000000002 C 66.19999999999999,86.50000000000001 65.49999999999999,85.10000000000002 65.29999999999998,84.70000000000002 C 65.09999999999998,84.30000000000001 65.09999999999998,84.00000000000001 64.89999999999998,83.80000000000001 C 64.59999999999998,83.4 62.99999999999998,82.70000000000002 62.59999999999998,82.9 C 61.89999999999998,83.30000000000001 61.29999999999998,83.10000000000001 61.19999999999998,82.30000000000001 C 61.19999999999998,82.30000000000001 61.19999999999998,82.30000000000001 61.29999999999998,82.20000000000002 C 60.79999999999998,82.00000000000001 60.399999999999984,81.90000000000002 60.09999999999998,82.10000000000002 C 59.89999999999998,82.20000000000002 59.69999999999998,82.10000000000002 59.89999999999998,81.90000000000002 C 60.39999999999998,81.20000000000002 60.99999999999998,81.00000000000001 61.49999999999998,81.20000000000002 C 61.59999999999998,81.10000000000002 61.59999999999998,81.00000000000001 61.799999999999976,81.00000000000001 C 62.199999999999974,81.00000000000001 62.49999999999998,81.10000000000001 62.799999999999976,81.40000000000002 C 63.39999999999998,81.90000000000002 63.699999999999974,82.10000000000002 63.89999999999998,82.10000000000002 C 64.39999999999998,82.00000000000003 63.09999999999998,81.30000000000003 61.89999999999998,79.80000000000003 C 61.89999999999998,79.80000000000003 61.89999999999998,79.80000000000003 61.799999999999976,79.70000000000003 C 61.799999999999976,79.90000000000003 61.799999999999976,80.10000000000004 61.699999999999974,80.30000000000003 C 61.199999999999974,80.20000000000003 60.699999999999974,79.90000000000002 60.299999999999976,79.40000000000002 C 60.199999999999974,80.00000000000001 60.09999999999997,80.50000000000001 59.89999999999998,81.00000000000001 C 59.299999999999976,80.70000000000002 58.59999999999998,80.00000000000001 58.299999999999976,78.80000000000001 C 58.299999999999976,78.80000000000001 58.299999999999976,78.80000000000001 58.299999999999976,78.80000000000001 C 58.09999999999997,79.30000000000001 57.699999999999974,79.80000000000001 57.199999999999974,80.20000000000002 C 57.09999999999997,78.90000000000002 56.799999999999976,77.80000000000001 55.89999999999998,76.10000000000002 C 54.799999999999976,77.60000000000002 54.299999999999976,78.70000000000002 53.99999999999998,79.90000000000002 C 54.39999999999998,80.90000000000002 54.799999999999976,81.80000000000003 55.19999999999998,82.50000000000001 C 55.59999999999998,83.10000000000001 55.79999999999998,84.30000000000001 55.59999999999998,84.60000000000001 C 55.49999999999998,84.80000000000001 55.29999999999998,84.9 55.19999999999998,84.9 C 55.19999999999998,84.9 55.19999999999998,84.9 55.19999999999998,85.0 C 55.69999999999998,86.0 56.19999999999998,86.9 56.79999999999998,87.6 C 57.29999999999998,88.19999999999999 57.59999999999998,89.39999999999999 57.399999999999984,89.69999999999999 C 57.19999999999998,89.99999999999999 56.899999999999984,89.99999999999999 56.69999999999998,90.1 C 57.19999999999998,91.6 57.79999999999998,92.8 58.59999999999998,93.89999999999999 C 58.99999999999998,94.49999999999999 59.29999999999998,95.69999999999999 58.99999999999998,96.1 C 58.799999999999976,96.39999999999999 58.39999999999998,96.39999999999999 58.19999999999998,96.5 L 57.79999999999998,96.6 C 57.59999999999998,96.6 57.19999999999998,96.8 56.899999999999984,96.69999999999999 C 56.499999999999986,96.49999999999999 56.399999999999984,95.29999999999998 56.09999999999999,94.6 C 55.59999999999999,93.5 55.09999999999999,92.1 54.69999999999999,90.5 C 54.69999999999999,90.5 54.69999999999999,90.5 54.69999999999999,90.5 C 55.09999999999999,92.1 55.499999999999986,93.4 56.09999999999999,94.6 C 56.29999999999999,95.1 56.69999999999999,96.5 56.29999999999999,97.0 C 56.09999999999999,97.3 55.69999999999999,97.3 55.49999999999999,97.4 L 55.099999999999994,97.5 C 54.89999999999999,97.5 54.49999999999999,97.6 54.199999999999996,97.5 C 53.99999999999999,97.4 53.9,97.1 53.8,96.7 C 53.8,97.10000000000001 53.8,97.5 53.599999999999994,97.60000000000001 C 53.3,97.80000000000001 52.99999999999999,97.80000000000001 52.8,97.9 L 52.4,97.9 C 52.199999999999996,97.9 51.8,98.0 51.5,97.80000000000001 C 51.3,97.70000000000002 51.2,97.20000000000002 51.1,96.70000000000002 C 51.1,97.20000000000002 51.1,97.60000000000002 50.9,97.80000000000001 C 50.6,98.00000000000001 50.3,98.00000000000001 50.0,98.00000000000001 L 49.5,98.00000000000001 C 49.3,98.00000000000001 48.9,98.00000000000001 48.6,97.80000000000001 C 48.4,97.60000000000001 48.300000000000004,97.20000000000002 48.4,96.70000000000002 C 48.3,97.20000000000002 48.199999999999996,97.70000000000002 48.0,97.80000000000001 C 47.7,98.00000000000001 47.3,97.9 47.1,97.9 L 46.6,97.9 C 46.4,97.80000000000001 46.0,97.9 45.800000000000004,97.60000000000001 C 45.6,97.4 45.50000000000001,97.00000000000001 45.6,96.7 C 45.5,97.10000000000001 45.4,97.4 45.2,97.5 C 44.900000000000006,97.7 44.5,97.6 44.300000000000004,97.5 L 43.900000000000006,97.4 C 43.7,97.30000000000001 43.300000000000004,97.30000000000001 43.10000000000001,97.0 C 42.70000000000001,96.5 43.10000000000001,95.2 43.30000000000001,94.6 C 43.80000000000001,93.5 44.30000000000001,92.1 44.70000000000001,90.5 C 44.70000000000001,90.5 44.70000000000001,90.5 44.70000000000001,90.5 C 44.30000000000001,92.1 43.90000000000001,93.4 43.30000000000001,94.6 C 43.000000000000014,95.3 42.90000000000001,96.5 42.500000000000014,96.69999999999999 C 42.20000000000002,96.79999999999998 41.80000000000001,96.6 41.600000000000016,96.6 L 41.20000000000002,96.5 C 41.000000000000014,96.4 40.600000000000016,96.3 40.40000000000002,96.1 C 40.10000000000002,95.69999999999999 40.40000000000002,94.5 40.80000000000002,93.89999999999999 C 41.50000000000002,92.8 42.100000000000016,91.6 42.70000000000002,90.1 C 42.500000000000014,90.0 42.20000000000002,90.0 42.000000000000014,89.69999999999999 C 41.80000000000001,89.29999999999998 42.100000000000016,88.1 42.600000000000016,87.6 C 43.20000000000002,86.89999999999999 43.70000000000002,86.0 44.20000000000002,85.0 C 44.20000000000002,85.0 44.20000000000002,84.9 44.20000000000002,84.9 C 44.100000000000016,84.80000000000001 43.90000000000002,84.80000000000001 43.80000000000002,84.60000000000001 C 43.600000000000016,84.2 43.90000000000002,83.00000000000001 44.20000000000002,82.50000000000001 C 44.70000000000002,81.80000000000001 45.100000000000016,80.90000000000002 45.40000000000002,79.90000000000002 C 45.10000000000002,78.70000000000002 44.60000000000002,77.60000000000002 43.50000000000002,76.10000000000002 C 42.60000000000002,77.70000000000002 42.30000000000002,78.90000000000002 42.200000000000024,80.20000000000002 C 41.700000000000024,79.80000000000001 41.40000000000003,79.30000000000001 41.10000000000002,78.80000000000001 C 40.800000000000026,79.9 40.10000000000002,80.60000000000001 39.50000000000002,81.00000000000001 C 39.30000000000002,80.50000000000001 39.10000000000002,80.00000000000001 39.10000000000002,79.40000000000002 C 38.60000000000002,79.90000000000002 38.10000000000002,80.10000000000002 37.60000000000002,80.30000000000003 C 37.60000000000002,80.10000000000002 37.50000000000002,79.90000000000002 37.50000000000002,79.70000000000003 C 37.50000000000002,79.70000000000003 37.50000000000002,79.70000000000003 37.40000000000002,79.80000000000003 C 36.20000000000002,81.40000000000002 34.90000000000002,82.00000000000003 35.40000000000002,82.10000000000002 C 35.60000000000002,82.20000000000002 35.90000000000002,81.90000000000002 36.50000000000002,81.40000000000002 C 36.90000000000002,81.10000000000002 37.10000000000002,81.00000000000001 37.50000000000002,81.00000000000001 C 37.60000000000002,81.00000000000001 37.700000000000024,81.10000000000001 37.80000000000002,81.20000000000002 C 38.30000000000002,81.00000000000001 38.90000000000002,81.10000000000002 39.40000000000002,81.90000000000002 C 39.60000000000002,82.10000000000002 39.40000000000002,82.20000000000002 39.20000000000002,82.10000000000002 C 38.90000000000002,81.90000000000002 38.500000000000014,81.90000000000002 38.000000000000014,82.20000000000002 C 38.000000000000014,82.20000000000002 38.000000000000014,82.30000000000001 38.100000000000016,82.30000000000001 C 38.000000000000014,83.00000000000001 37.500000000000014,83.20000000000002 36.70000000000002,82.9 C 36.30000000000002,82.7 34.80000000000002,83.5 34.40000000000002,83.80000000000001 C 34.20000000000002,84.00000000000001 34.20000000000002,84.4 34.00000000000002,84.70000000000002 C 33.80000000000002,85.10000000000002 33.200000000000024,86.40000000000002 33.30000000000002,87.20000000000002 C 33.40000000000002,87.90000000000002 33.30000000000002,88.20000000000002 32.40000000000002,88.30000000000001 C 32.40000000000002,88.30000000000001 32.40000000000002,88.30000000000001 32.40000000000002,88.30000000000001 C 32.20000000000002,88.80000000000001 32.10000000000002,89.10000000000001 32.20000000000002,89.4 C 32.30000000000002,89.60000000000001 32.20000000000002,89.9 31.900000000000016,89.7 C 31.300000000000015,89.10000000000001 31.000000000000018,88.5 31.100000000000016,88.0 C 30.600000000000016,87.2 30.900000000000016,87.1 31.300000000000015,86.7 C 31.700000000000014,85.8 32.600000000000016,85.0 32.90000000000001,84.10000000000001 C 32.600000000000016,84.50000000000001 30.600000000000012,85.30000000000001 30.500000000000014,85.9 C 30.500000000000014,86.4 29.800000000000015,86.5 29.400000000000013,86.10000000000001 C 30.0,86.0 30.0,86.2 30.0,86.4 C 30.0,86.60000000000001 29.9,86.7 29.8,86.4 C 29.5,85.60000000000001 29.5,85.10000000000001 29.6,84.80000000000001 C 29.5,84.30000000000001 29.700000000000003,83.9 30.3,83.9 C 31.2,83.80000000000001 32.6,83.5 32.8,83.10000000000001 C 32.3,83.30000000000001 30.799999999999997,82.9 30.4,83.30000000000001 C 30.099999999999998,83.60000000000001 29.7,83.20000000000002 29.599999999999998,82.80000000000001 C 29.099999999999998,82.50000000000001 28.799999999999997,82.60000000000001 28.599999999999998,82.80000000000001 C 28.499999999999996,82.9 28.299999999999997,82.9 28.4,82.60000000000001 C 28.7,81.80000000000001 29.299999999999997,81.60000000000001 29.799999999999997,81.80000000000001 C 30.099999999999998,81.60000000000001 30.599999999999998,81.60000000000001 30.999999999999996,81.9 C 31.099999999999998,82.0 33.199999999999996,82.10000000000001 33.5,82.0 C 33.8,81.9 34.1,81.7 34.4,81.5 C 35.199999999999996,80.5 35.8,79.4 36.4,78.3 C 35.9,78.39999999999999 35.5,78.3 34.9,78.2 C 35.8,77.4 36.6,76.5 37.4,74.9 C 37.3,74.9 37.199999999999996,74.9 37.0,74.9 C 37.8,73.80000000000001 38.5,72.80000000000001 38.9,70.80000000000001 C 39.0,70.4 39.199999999999996,70.00000000000001 39.4,69.60000000000001 C 39.5,69.4 39.6,69.30000000000001 39.8,69.2 C 39.9,69.10000000000001 40.099999999999994,68.9 40.199999999999996,68.7 C 40.49999999999999,71.0 41.49999999999999,73.2 42.99999999999999,74.8 C 44.29999999999999,76.2 45.99999999999999,77.2 47.99999999999999,77.6 L 47.99999999999999,65.6 L 40.0,65.6 L 40.0,67.69999999999999 C 40.0,68.1 40.0,68.49999999999999 40.1,68.79999999999998 C 39.9,69.29999999999998 39.5,69.59999999999998 39.2,69.89999999999998 C 38.800000000000004,69.19999999999997 38.5,68.39999999999998 38.400000000000006,67.39999999999998 C 38.400000000000006,68.49999999999997 38.300000000000004,69.29999999999998 38.300000000000004,69.59999999999998 C 38.2,70.79999999999998 37.7,71.59999999999998 37.1,72.09999999999998 C 36.9,71.79999999999998 36.7,71.49999999999999 36.6,71.09999999999998 C 36.5,73.79999999999998 35.9,76.09999999999998 34.6,76.69999999999997 C 34.6,76.69999999999997 34.6,76.59999999999998 34.5,76.59999999999998 C 34.3,77.49999999999999 33.9,78.19999999999997 33.4,78.49999999999999 C 33.3,78.29999999999998 33.1,77.89999999999999 32.9,77.49999999999999 C 32.6,79.19999999999999 32.0,80.69999999999999 30.9,81.39999999999999 C 30.599999999999998,80.69999999999999 30.299999999999997,79.99999999999999 30.2,79.19999999999999 C 29.599999999999998,80.6 28.599999999999998,81.29999999999998 27.3,81.49999999999999 C 27.8,79.29999999999998 28.2,75.99999999999999 27.5,71.69999999999999 C 26.7,66.89999999999999 26.1,63.19999999999999 26.5,60.29999999999999 C 26.3,59.39999999999999 26.2,58.29999999999999 26.1,56.99999999999999 C 26.1,55.099999999999994 26.0,53.099999999999994 26.200000000000003,50.79999999999999 C 26.000000000000004,50.89999999999999 25.900000000000002,50.89999999999999 25.700000000000003,50.99999999999999 C 25.900000000000002,49.699999999999996 26.1,47.99999999999999 26.400000000000002,45.99999999999999 C 27.3,40.699999999999996 29.900000000000002,36.3 33.1,35.89999999999999 C 36.300000000000004,35.49999999999999 33.9,37.79999999999999 33.2,39.89999999999999 C 32.7,41.79999999999999 34.1,44.19999999999999 36.800000000000004,47.29999999999999 C 37.800000000000004,48.39999999999999 38.900000000000006,50.29999999999999 40.00000000000001,50.99999999999999 C 40.20000000000001,51.099999999999994 41.60000000000001,50.699999999999996 41.800000000000004,50.39999999999999 C 41.800000000000004,50.39999999999999 41.7,50.39999999999999 41.7,50.39999999999999 C 41.6,50.39999999999999 41.6,50.39999999999999 41.5,50.29999999999999 C 41.5,50.29999999999999 41.4,50.29999999999999 41.4,50.29999999999999 C 41.3,50.29999999999999 41.199999999999996,50.19999999999999 41.1,50.19999999999999 C 41.1,50.19999999999999 41.1,50.19999999999999 41.0,50.19999999999999 C 42.1,49.499999999999986 43.1,48.59999999999999 44.2,46.89999999999999 C 44.900000000000006,45.79999999999999 44.5,44.099999999999994 44.0,42.599999999999994 C 43.9,42.599999999999994 43.8,42.599999999999994 43.7,42.599999999999994 C 42.7,42.39999999999999 41.7,42.99999999999999 40.800000000000004,42.8 C 40.6,42.8 40.6,42.699999999999996 40.300000000000004,42.099999999999994 C 40.50000000000001,42.099999999999994 40.6,42.099999999999994 40.800000000000004,42.099999999999994 C 38.7,42.099999999999994 37.50000000000001,41.49999999999999 37.300000000000004,40.099999999999994 C 38.1,41.099999999999994 39.1,41.599999999999994 40.2,41.3 C 41.7,40.9 42.6,40.699999999999996 42.900000000000006,40.699999999999996 C 42.900000000000006,40.699999999999996 42.900000000000006,40.699999999999996 42.900000000000006,40.699999999999996 C 42.60000000000001,40.49999999999999 42.300000000000004,40.199999999999996 42.00000000000001,39.9 C 41.00000000000001,40.0 41.00000000000001,39.8 40.70000000000001,39.4 C 40.20000000000001,38.8 39.40000000000001,39.3 39.20000000000001,40.1 C 39.10000000000001,40.6 39.00000000000001,40.6 38.50000000000001,40.1 C 36.20000000000001,37.800000000000004 36.10000000000001,36.2 38.50000000000001,35.9 L 38.50000000000001,35.9 C 38.800000000000004,35.3 39.50000000000001,35.4 39.900000000000006,35.699999999999996 C 39.900000000000006,35.699999999999996 39.900000000000006,35.699999999999996 39.900000000000006,35.699999999999996 C 39.7,34.599999999999994 42.7,34.99999999999999 44.800000000000004,35.99999999999999 C 47.300000000000004,37.199999999999996 47.7,36.89999999999999 48.6,37.099999999999994 C 48.9,38.599999999999994 48.300000000000004,38.8 47.6,38.699999999999996 L 47.6,38.699999999999996 C 47.6,38.699999999999996 47.6,38.699999999999996 47.6,38.699999999999996 C 49.0,40.9 49.6,43.099999999999994 49.800000000000004,46.3 C 50.1,43.099999999999994 50.7,40.9 52.00000000000001,38.699999999999996 C 52.00000000000001,38.699999999999996 52.00000000000001,38.699999999999996 52.00000000000001,38.699999999999996 L 52.00000000000001,38.699999999999996 C 52.00000000000001,38.699999999999996 52.00000000000001,38.699999999999996 52.00000000000001,38.699999999999996 C 51.400000000000006,38.8 50.70000000000001,38.599999999999994 51.00000000000001,37.099999999999994 C 51.900000000000006,36.89999999999999 52.20000000000001,37.199999999999996 54.800000000000004,35.99999999999999 C 56.900000000000006,34.99999999999999 59.900000000000006,34.599999999999994 59.7,35.699999999999996 C 59.7,35.699999999999996 59.7,35.699999999999996 59.7,35.699999999999996 C 60.1,35.4 60.800000000000004,35.3 61.1,35.9 L 61.1,35.9 C 63.6,36.199999999999996 63.4,37.8 61.1,40.1 C 60.7,40.5 60.5,40.5 60.4,40.1 C 60.199999999999996,39.300000000000004 59.4,38.800000000000004 58.9,39.4 C 58.6,39.8 58.699999999999996,40.0 57.6,39.9 C 57.300000000000004,40.199999999999996 56.9,40.5 56.7,40.699999999999996 C 56.7,40.699999999999996 56.7,40.699999999999996 56.7,40.699999999999996 C 57.0,40.599999999999994 57.900000000000006,40.9 59.400000000000006,41.3 C 60.50000000000001,41.599999999999994 61.50000000000001,41.099999999999994 62.300000000000004,40.099999999999994 C 62.00000000000001,41.49999999999999 60.800000000000004,42.099999999999994 58.800000000000004,42.099999999999994 C 59.00000000000001,42.099999999999994 59.1,42.099999999999994 59.300000000000004,42.099999999999994 C 59.00000000000001,42.699999999999996 59.00000000000001,42.699999999999996 58.800000000000004,42.8 C 57.800000000000004,43.0 56.800000000000004,42.4 55.900000000000006,42.599999999999994 C 55.800000000000004,42.599999999999994 55.7,42.599999999999994 55.60000000000001,42.599999999999994 C 55.00000000000001,44.099999999999994 54.60000000000001,45.8 55.400000000000006,46.89999999999999 C 56.50000000000001,48.599999999999994 57.50000000000001,49.49999999999999 58.60000000000001,50.19999999999999 L 58.60000000000001,50.19999999999999 C 58.50000000000001,50.19999999999999 58.400000000000006,50.29999999999999 58.30000000000001,50.29999999999999 C 58.30000000000001,50.29999999999999 58.20000000000001,50.29999999999999 58.20000000000001,50.29999999999999 C 58.10000000000001,50.29999999999999 58.00000000000001,50.29999999999999 57.90000000000001,50.39999999999999 C 57.90000000000001,50.39999999999999 57.90000000000001,50.39999999999999 57.80000000000001,50.39999999999999 L 57.80000000000001,50.39999999999999 C 58.000000000000014,50.599999999999994 59.40000000000001,51.099999999999994 59.60000000000001,50.99999999999999 C 60.70000000000001,50.199999999999996 61.80000000000001,48.29999999999999 62.80000000000001,47.29999999999999 C 65.50000000000001,44.19999999999999 66.9,41.89999999999999 66.4,39.89999999999999 C 65.7,37.79999999999999 63.300000000000004,35.49999999999999 66.5,35.89999999999999 C 69.7,36.29999999999999 72.4,40.69999999999999 73.2,45.99999999999999 C 73.5,47.99999999999999 73.7,49.599999999999994 73.9,50.99999999999999 C 73.7,50.89999999999999 73.60000000000001,50.89999999999999 73.4,50.79999999999999 C 73.9,53.1 73.8,55.2 73.8,57.1 M 54.6,55.3 C 54.300000000000004,55.8 55.2,56.4 55.2,56.8 C 55.2,57.199999999999996 54.300000000000004,57.8 54.6,58.3 C 55.7,60.199999999999996 58.2,58.699999999999996 56.9,58.099999999999994 C 57.0,58.49999999999999 56.699999999999996,58.8 56.3,58.599999999999994 C 56.0,58.49999999999999 55.8,58.099999999999994 56.0,57.599999999999994 C 56.4,56.49999999999999 58.1,57.3 58.0,58.599999999999994 C 57.8,61.3 54.7,60.099999999999994 53.5,59.699999999999996 L 53.5,53.9 C 54.8,53.6 57.9,52.3 58.0,55.0 C 58.1,56.2 56.4,57.1 56.0,56.0 C 55.8,55.5 56.0,55.1 56.3,55.0 C 56.599999999999994,54.9 57.0,55.1 56.9,55.5 C 58.2,54.8 55.7,53.4 54.6,55.3 M 54.6,68.6 C 54.300000000000004,69.19999999999999 55.2,69.69999999999999 55.2,70.1 C 55.2,70.5 54.300000000000004,71.1 54.6,71.6 C 55.7,73.5 58.2,72.0 56.9,71.39999999999999 C 57.0,71.8 56.699999999999996,72.1 56.3,71.89999999999999 C 56.0,71.8 55.8,71.39999999999999 56.0,70.89999999999999 C 56.4,69.8 58.1,70.6 58.0,71.89999999999999 C 57.8,74.6 54.7,73.39999999999999 53.5,72.99999999999999 L 53.5,72.99999999999999 L 53.5,67.19999999999999 C 54.8,66.89999999999999 57.9,65.6 58.0,68.29999999999998 C 58.1,69.49999999999999 56.4,70.39999999999998 56.0,69.29999999999998 C 55.8,68.79999999999998 56.0,68.39999999999998 56.3,68.29999999999998 C 56.599999999999994,68.19999999999999 57.0,68.39999999999998 56.9,68.79999999999998 C 58.2,68.2 55.7,66.7 54.6,68.6 M 45.5,71.7 C 45.8,71.2 44.9,70.60000000000001 44.9,70.2 C 44.9,69.8 45.8,69.2 45.5,68.7 C 44.4,66.8 41.9,68.3 43.2,68.9 C 43.1,68.5 43.400000000000006,68.2 43.800000000000004,68.4 C 44.1,68.5 44.300000000000004,68.9 44.1,69.4 C 43.7,70.5 42.0,69.7 42.1,68.4 C 42.300000000000004,65.7 45.4,66.9 46.6,67.30000000000001 L 46.6,73.10000000000001 L 46.6,73.10000000000001 C 45.300000000000004,73.4 42.2,74.7 42.1,72.00000000000001 C 42.0,70.80000000000001 43.7,69.90000000000002 44.1,71.00000000000001 C 44.300000000000004,71.50000000000001 44.1,71.90000000000002 43.800000000000004,72.00000000000001 C 43.50000000000001,72.10000000000001 43.1,71.90000000000002 43.2,71.50000000000001 C 41.8,72.2 44.3,73.6 45.5,71.7" fill="#313d83" stroke="none" stroke-width="3.0" /><path d="M 61.4,62.0 C 61.4,62.3 61.4,62.6 61.4,62.9 C 61.5,62.6 61.4,62.3 61.4,62.0 C 61.4,62.0 61.4,62.0 61.4,62.0" fill="#313d83" stroke="none" stroke-width="3.0" /><path d="M 61.7,91.9 C 61.7,91.80000000000001 61.7,91.80000000000001 61.7,91.7 C 61.6,92.10000000000001 61.5,92.4 61.400000000000006,92.7 C 61.6,92.5 61.7,92.3 61.7,91.9" fill="#313d83" stroke="none" stroke-width="3.0" /><path d="M 47.9,77.9 C 47.9,77.9 47.9,77.9 47.9,77.9 L 47.9,77.9 C 47.9,77.9 47.9,77.9 47.9,77.9" fill="#313d83" stroke="none" stroke-width="3.0" /><path d="M 52.1,77.9 L 52.1,77.9 L 52.1,77.9 L 52.1,77.9" fill="#313d83" stroke="none" stroke-width="3.0" /><path d="M 47.9,51.6 L 52.0,51.6 L 52.0,51.6 L 47.9,51.6" fill="#313d83" stroke="none" stroke-width="3.0" /><path d="M 40.0,61.4 L 40.0,61.4 L 40.0,65.5 L 40.0,65.5 L 40.0,61.4" fill="#313d83" stroke="none" stroke-width="3.0" /></g></svg>