<?xml version="1.0" encoding="utf-8" ?>
<svg baseProfile="full" height="100px" version="1.1" width="150px" xmlns="http://www.w3.org/2000/svg" xmlns:ev="http://www.w3.org/2001/xml-events" xmlns:xlink="http://www.w3.org/1999/xlink"><defs><clipPath id="mask0"><rect height="100" width="150" x="0" y="0" /></clipPath></defs><g clip-path="url(#mask0)"><rect fill="#DCDCDC" height="33.333333333333336" stroke="none" width="150" x="0" y="0.0" /><rect fill="#6699ff" height="33.333333333333336" stroke="none" width="150" x="0" y="33.333333333333336" /><rect fill="#7f98c6" height="33.333333333333336" stroke="none" width="150" x="0" y="66.66666666666667" /></g><g transform="translate(-0.02960401107354471, 11.127258316002361) scale(0.7774548336799527) rotate(0, 50.0, 50.0)"><path d="M 50.0,40.0 C 44.5,40.0 39.8,36.7 37.8,32.0 C 37.8,32.1 37.8,32.1 37.8,32.2 C 37.8,38.900000000000006 43.3,44.400000000000006 50.0,44.400000000000006 C 56.7,44.400000000000006 62.2,39.0 62.2,32.2 C 62.2,32.1 62.2,32.1 62.2,32.0 C 60.2,36.7 55.5,40.0 50.0,40.0" fill="#ff9932" stroke="none" stroke-width="3.0" /><path d="M 50.9,0.0 C 49.8,0.5 49.4,1.4 49.3,2.3 C 49.199999999999996,3.0999999999999996 49.599999999999994,3.9 49.599999999999994,4.699999999999999 C 49.599999999999994,5.999999999999999 48.3,6.3999999999999995 48.3,8.2 C 48.3,8.799999999999999 48.9,9.5 48.9,11.1 C 48.8,12.0 48.3,12.1 47.8,12.2 C 47.199999999999996,12.2 46.699999999999996,11.7 46.699999999999996,11.1 C 46.699999999999996,10.799999999999999 46.8,10.5 46.99999999999999,10.299999999999999 C 46.99999999999999,10.299999999999999 47.099999999999994,10.2 47.099999999999994,10.2 C 47.39999999999999,9.899999999999999 47.699999999999996,9.799999999999999 47.699999999999996,9.2 C 47.699999999999996,8.899999999999999 47.49999999999999,8.5 47.3,7.8999999999999995 C 47.099999999999994,7.3 47.199999999999996,6.299999999999999 47.699999999999996,5.699999999999999 C 46.9,5.999999999999999 46.4,6.699999999999999 46.199999999999996,7.3999999999999995 C 45.9,8.2 46.199999999999996,8.7 45.8,9.399999999999999 C 45.599999999999994,9.799999999999999 45.3,9.999999999999998 45.099999999999994,10.399999999999999 C 44.8,10.799999999999999 44.49999999999999,11.7 44.49999999999999,12.2 C 44.49999999999999,15.299999999999999 46.99999999999999,17.799999999999997 50.099999999999994,17.799999999999997 C 53.199999999999996,17.799999999999997 55.699999999999996,15.299999999999997 55.699999999999996,12.199999999999998 C 55.699999999999996,11.799999999999997 55.4,10.799999999999997 55.099999999999994,10.399999999999997 C 54.89999999999999,9.999999999999996 54.599999999999994,9.799999999999997 54.39999999999999,9.399999999999997 C 54.099999999999994,8.699999999999998 54.29999999999999,8.199999999999998 53.99999999999999,7.399999999999997 C 53.79999999999999,6.699999999999997 53.29999999999999,5.9999999999999964 52.49999999999999,5.699999999999997 C 52.99999999999999,6.299999999999996 53.099999999999994,7.299999999999997 52.89999999999999,7.899999999999997 C 52.69999999999999,8.499999999999996 52.49999999999999,8.799999999999997 52.49999999999999,9.199999999999998 C 52.49999999999999,9.899999999999997 52.79999999999999,9.999999999999998 53.099999999999994,10.199999999999998 C 53.099999999999994,10.199999999999998 53.199999999999996,10.299999999999997 53.199999999999996,10.299999999999997 C 53.4,10.499999999999996 53.49999999999999,10.799999999999997 53.49999999999999,11.099999999999998 C 53.49999999999999,11.699999999999998 52.99999999999999,12.199999999999998 52.39999999999999,12.199999999999998 C 51.79999999999999,12.099999999999998 51.29999999999999,11.799999999999997 51.29999999999999,11.099999999999998 C 51.1,9.0 52.0,8.8 52.0,7.3 C 52.0,5.0 50.0,4.0 50.0,2.3 C 50.0,1.7 50.1,0.8 50.9,0.0 L 50.9,0.0 M 25.6,46.7 L 36.7,46.7 L 36.7,100.0 L 25.6,100.0 L 25.6,46.7 M 63.3,46.7 L 74.39999999999999,46.7 L 74.39999999999999,100.0 L 63.3,100.0 L 63.3,46.7 M 38.9,46.7 L 61.099999999999994,46.7 L 50.0,53.3 L 38.9,46.7 M 38.9,55.6 L 61.099999999999994,55.6 L 61.099999999999994,60.0 L 38.9,60.0 L 38.9,55.6 M 38.9,86.7 L 61.099999999999994,86.7 L 61.099999999999994,91.10000000000001 L 38.9,91.10000000000001 L 38.9,86.7 M 38.9,93.3 L 61.099999999999994,93.3 L 50.0,100.0 L 38.9,93.3" fill="#ff9932" stroke="none" stroke-width="3.0" /><path d="M 55.3,63.6 C 56.099999999999994,64.7 56.599999999999994,66.0 56.599999999999994,67.5 C 56.599999999999994,71.1 53.699999999999996,74.1 49.99999999999999,74.1 C 47.099999999999994,74.1 44.79999999999999,76.39999999999999 44.79999999999999,79.3 C 44.79999999999999,82.1 46.99999999999999,84.39999999999999 49.79999999999999,84.5 C 49.89999999999999,84.5 49.99999999999999,84.5 50.09999999999999,84.5 C 56.19999999999999,84.5 61.19999999999999,79.5 61.19999999999999,73.4 C 61.1,69.1 58.7,65.4 55.3,63.6 M 50.0,81.4 C 48.8,81.4 47.8,80.4 47.8,79.2 C 47.8,78.0 48.8,77.0 50.0,77.0 C 51.2,77.0 52.2,78.0 52.2,79.2 C 52.2,80.5 51.2,81.4 50.0,81.4" fill="#ff9932" stroke="none" stroke-width="3.0" /><path d="M 50.0,72.7 C 52.9,72.7 55.2,70.4 55.2,67.5 C 55.2,64.7 53.0,62.4 50.2,62.3 C 50.1,62.3 50.0,62.3 49.900000000000006,62.3 C 43.800000000000004,62.3 38.800000000000004,67.3 38.800000000000004,73.39999999999999 C 38.800000000000004,77.6 41.2,81.3 44.6,83.19999999999999 C 43.800000000000004,82.1 43.300000000000004,80.79999999999998 43.300000000000004,79.29999999999998 C 43.4,75.6 46.4,72.7 50.0,72.7 M 50.0,65.2 C 51.2,65.2 52.2,66.2 52.2,67.4 C 52.2,68.60000000000001 51.2,69.60000000000001 50.0,69.60000000000001 C 48.8,69.60000000000001 47.8,68.60000000000001 47.8,67.4 C 47.8,66.2 48.8,65.2 50.0,65.2" fill="#ff9932" stroke="none" stroke-width="3.0" /><path d="M 41.1,28.9 A 8.900000000000002,8.900000000000002 0.0 1,0 58.900000000000006,28.9 A 8.9,8.9 0.0 1,0 41.10000000000001,28.9" fill="#ff9932" stroke="none" stroke-width="3.0" /></g></svg>