<?xml version="1.0" encoding="utf-8"?>
<!-- Generator: Adobe Illustrator 21.0.0, SVG Export Plug-In . SVG Version: 6.00 Build 0)  -->
<svg version="1.1" id="main" xmlns="http://www.w3.org/2000/svg" xmlns:xlink="http://www.w3.org/1999/xlink" x="0px" y="0px"
	 viewBox="0 0 17 35" enable-background="new 0 0 17 35" xml:space="preserve">
<path fill="none" stroke="#1D1D1B" stroke-miterlimit="10" d="M15.887,20.221c0,0.535-0.014,1.053-0.041,1.555
	c-0.027,0.502-0.068,0.987-0.121,1.456c-0.053,0.469-0.118,0.921-0.195,1.357c-0.077,0.436-0.165,0.855-0.264,1.258
	c-0.099,0.403-0.208,0.789-0.328,1.158c-0.119,0.37-0.248,0.723-0.386,1.059c-0.138,0.337-0.285,0.657-0.44,0.96
	c-0.155,0.303-0.318,0.59-0.488,0.861c-0.17,0.27-0.347,0.524-0.53,0.762c-0.183,0.237-0.373,0.458-0.568,0.662
	c-0.195,0.204-0.395,0.392-0.6,0.563c-0.205,0.171-0.414,0.326-0.627,0.464c-0.213,0.138-0.43,0.26-0.649,0.365
	c-0.219,0.105-0.442,0.194-0.666,0.266c-0.224,0.072-0.45,0.127-0.677,0.166c-0.227,0.039-0.455,0.061-0.683,0.067
	c-0.233,0.006-0.467-0.005-0.699-0.034c-0.233-0.028-0.465-0.074-0.695-0.137c-0.23-0.063-0.459-0.143-0.685-0.241
	c-0.226-0.098-0.449-0.212-0.669-0.345c-0.22-0.132-0.436-0.282-0.648-0.448c-0.212-0.167-0.419-0.351-0.621-0.552
	c-0.202-0.201-0.398-0.42-0.588-0.656s-0.374-0.489-0.55-0.759s-0.345-0.558-0.506-0.863c-0.161-0.305-0.313-0.627-0.457-0.967
	c-0.143-0.34-0.278-0.696-0.402-1.07c-0.124-0.374-0.238-0.765-0.341-1.174c-0.103-0.409-0.195-0.835-0.275-1.278
	c-0.08-0.443-0.148-0.904-0.203-1.381s-0.098-0.973-0.126-1.485c-0.029-0.512-0.043-1.042-0.043-1.589"/>
<path fill="none" stroke="#1D1D1B" stroke-miterlimit="10" d="M1.115,14.78c0-0.541,0.014-1.065,0.042-1.572
	c0.028-0.507,0.069-0.997,0.124-1.471c0.054-0.473,0.121-0.93,0.199-1.369c0.078-0.439,0.169-0.862,0.27-1.268
	c0.101-0.406,0.213-0.794,0.334-1.166C2.206,7.563,2.338,7.208,2.478,6.87c0.141-0.338,0.29-0.659,0.448-0.963
	S3.25,5.315,3.423,5.044c0.173-0.27,0.353-0.524,0.54-0.761c0.187-0.237,0.38-0.456,0.578-0.659c0.198-0.203,0.402-0.389,0.61-0.558
	C5.36,2.898,5.573,2.746,5.789,2.61c0.216-0.135,0.436-0.254,0.659-0.355c0.223-0.101,0.448-0.186,0.675-0.254
	C7.351,1.934,7.58,1.884,7.809,1.85c0.23-0.034,0.461-0.051,0.692-0.051S8.963,1.816,9.193,1.85c0.23,0.034,0.459,0.085,0.686,0.152
	c0.227,0.068,0.453,0.152,0.675,0.254c0.223,0.101,0.443,0.22,0.659,0.355c0.216,0.135,0.429,0.287,0.637,0.456
	c0.208,0.169,0.412,0.355,0.61,0.558c0.198,0.203,0.391,0.423,0.578,0.659c0.187,0.237,0.367,0.49,0.54,0.761
	c0.173,0.27,0.339,0.558,0.497,0.862s0.307,0.625,0.448,0.963c0.141,0.338,0.272,0.693,0.394,1.065
	c0.122,0.372,0.234,0.761,0.334,1.166c0.101,0.406,0.191,0.828,0.27,1.268c0.078,0.439,0.145,0.896,0.199,1.369
	c0.054,0.473,0.096,0.963,0.124,1.471c0.028,0.507,0.042,1.031,0.042,1.572"/>
<path fill="none" stroke="#1D1D1B" stroke-miterlimit="10" d="M8.5,13.886c0.249,0,0.493,0.025,0.728,0.073
	c0.235,0.048,0.462,0.119,0.678,0.211s0.422,0.203,0.614,0.333c0.192,0.13,0.371,0.278,0.535,0.441
	c0.164,0.164,0.311,0.343,0.441,0.535c0.13,0.192,0.242,0.398,0.333,0.614c0.091,0.216,0.162,0.443,0.211,0.678
	c0.048,0.235,0.073,0.479,0.073,0.728s-0.025,0.493-0.073,0.728c-0.048,0.235-0.119,0.462-0.211,0.678s-0.203,0.422-0.333,0.614
	c-0.13,0.192-0.278,0.371-0.441,0.535c-0.164,0.163-0.343,0.311-0.535,0.441c-0.192,0.13-0.398,0.242-0.614,0.333
	c-0.216,0.091-0.443,0.162-0.678,0.211S8.749,21.114,8.5,21.114s-0.493-0.025-0.728-0.073c-0.235-0.048-0.462-0.119-0.678-0.211
	c-0.216-0.091-0.422-0.203-0.614-0.333c-0.192-0.13-0.371-0.278-0.535-0.441c-0.164-0.164-0.311-0.343-0.441-0.535
	c-0.13-0.192-0.242-0.398-0.333-0.614s-0.162-0.443-0.211-0.678c-0.048-0.235-0.073-0.479-0.073-0.728s0.025-0.493,0.073-0.728
	c0.048-0.235,0.119-0.462,0.211-0.678c0.091-0.216,0.203-0.422,0.333-0.614c0.13-0.192,0.278-0.371,0.441-0.535
	c0.164-0.164,0.343-0.311,0.535-0.441c0.192-0.13,0.398-0.242,0.614-0.333s0.443-0.162,0.678-0.211
	C8.007,13.911,8.251,13.886,8.5,13.886z"/>
</svg>
