<?xml version="1.0" encoding="utf-8"?>
<!-- Generator: Adobe Illustrator 21.0.0, SVG Export Plug-In . SVG Version: 6.00 Build 0)  -->
<svg version="1.1" id="main" xmlns="http://www.w3.org/2000/svg" xmlns:xlink="http://www.w3.org/1999/xlink" x="0px" y="0px"
	 viewBox="0 0 17 35" enable-background="new 0 0 17 35" xml:space="preserve">
<path fill="none" stroke="#1D1D1B" stroke-miterlimit="10" d="M6.435,17.673c0.153,0.074,0.306,0.153,0.458,0.237
	c0.152,0.083,0.304,0.171,0.455,0.263c0.151,0.092,0.301,0.188,0.451,0.289c0.15,0.101,0.298,0.206,0.446,0.315
	c0.148,0.109,0.295,0.222,0.44,0.34s0.29,0.239,0.434,0.365s0.286,0.255,0.426,0.389c0.141,0.134,0.28,0.271,0.418,0.413
	c0.138,0.142,0.274,0.287,0.409,0.437c0.135,0.149,0.268,0.303,0.399,0.46c0.131,0.157,0.261,0.318,0.388,0.482
	c0.128,0.165,0.253,0.333,0.377,0.505c0.124,0.172,0.245,0.347,0.364,0.527s0.236,0.362,0.351,0.548
	c0.115,0.186,0.227,0.376,0.337,0.569c0.11,0.193,0.217,0.39,0.322,0.59c0.086,0.164,0.17,0.33,0.252,0.498
	c0.082,0.168,0.162,0.339,0.241,0.511s0.155,0.347,0.229,0.524s0.147,0.356,0.217,0.537c0.07,0.181,0.139,0.365,0.205,0.55
	s0.13,0.373,0.192,0.562c0.062,0.189,0.121,0.381,0.178,0.574c0.057,0.194,0.112,0.389,0.165,0.586
	c0.052,0.197,0.103,0.397,0.15,0.598c0.048,0.201,0.093,0.405,0.135,0.61s0.083,0.412,0.12,0.621
	c0.037,0.209,0.072,0.42,0.105,0.632s0.062,0.427,0.088,0.643c0.027,0.216,0.051,0.434,0.072,0.653
	c0.021,0.22,0.039,0.441,0.055,0.664s0.028,0.448,0.037,0.674"/>
<path fill="none" stroke="#1D1D1B" stroke-miterlimit="10" d="M9.54,9.237c0,0.391-0.002,0.772-0.007,1.144s-0.011,0.736-0.02,1.092
	c-0.009,0.356-0.02,0.703-0.034,1.042c-0.013,0.34-0.029,0.672-0.047,0.996c-0.018,0.325-0.038,0.642-0.06,0.953
	c-0.022,0.311-0.047,0.615-0.074,0.914s-0.056,0.59-0.087,0.877s-0.064,0.568-0.1,0.844s-0.073,0.547-0.113,0.814
	c-0.04,0.267-0.082,0.529-0.126,0.787s-0.09,0.512-0.139,0.763c-0.048,0.251-0.099,0.498-0.151,0.743s-0.107,0.486-0.164,0.726
	c-0.057,0.239-0.116,0.476-0.177,0.712s-0.124,0.469-0.189,0.701c-0.065,0.232-0.132,0.463-0.202,0.693
	c-0.087,0.289-0.177,0.571-0.271,0.848c-0.093,0.277-0.19,0.547-0.29,0.813c-0.1,0.265-0.203,0.525-0.309,0.779
	s-0.216,0.503-0.328,0.748c-0.113,0.244-0.228,0.483-0.347,0.717c-0.119,0.234-0.241,0.464-0.366,0.689s-0.254,0.446-0.385,0.662
	c-0.131,0.216-0.266,0.429-0.404,0.637c-0.138,0.208-0.278,0.413-0.422,0.613c-0.144,0.201-0.291,0.398-0.44,0.591
	c-0.15,0.194-0.303,0.384-0.459,0.571c-0.156,0.187-0.315,0.371-0.477,0.553c-0.162,0.181-0.327,0.36-0.495,0.536
	s-0.339,0.349-0.512,0.52c-0.174,0.171-0.35,0.34-0.53,0.507c-0.18,0.167-0.362,0.331-0.548,0.494"/>
<path fill="none" stroke="#1D1D1B" stroke-miterlimit="10" d="M16.648,18.787c-0.13,0.004-0.259,0.002-0.387-0.004
	s-0.256-0.016-0.382-0.031c-0.126-0.015-0.252-0.034-0.376-0.056c-0.124-0.023-0.247-0.05-0.368-0.08s-0.241-0.064-0.36-0.101
	c-0.118-0.037-0.235-0.077-0.35-0.121s-0.228-0.089-0.338-0.138c-0.111-0.049-0.22-0.1-0.326-0.153
	c-0.154-0.078-0.303-0.16-0.447-0.246c-0.144-0.086-0.282-0.176-0.415-0.268c-0.132-0.092-0.259-0.187-0.378-0.284
	c-0.119-0.097-0.232-0.195-0.338-0.294c-0.105-0.099-0.203-0.198-0.293-0.297c-0.09-0.099-0.172-0.198-0.245-0.295
	c-0.073-0.097-0.138-0.193-0.193-0.287c-0.055-0.094-0.101-0.185-0.138-0.272"/>
<path fill="none" stroke="#1D1D1B" stroke-miterlimit="10" d="M0.768,15.86c0.186-0.218,0.379-0.423,0.576-0.616
	s0.4-0.374,0.608-0.544s0.419-0.328,0.634-0.476c0.215-0.148,0.434-0.285,0.656-0.412c0.222-0.127,0.446-0.244,0.673-0.352
	c0.226-0.108,0.455-0.206,0.685-0.295c0.23-0.089,0.46-0.17,0.692-0.242c0.231-0.072,0.463-0.137,0.694-0.194
	c0.247-0.061,0.494-0.113,0.739-0.157c0.245-0.044,0.489-0.081,0.73-0.111c0.241-0.03,0.48-0.053,0.715-0.069
	c0.235-0.017,0.467-0.027,0.694-0.032c0.227-0.005,0.45-0.005,0.668,0c0.218,0.005,0.43,0.014,0.636,0.028
	c0.206,0.013,0.405,0.031,0.597,0.051c0.192,0.02,0.377,0.043,0.553,0.069"/>
<path fill="none" stroke="#1D1D1B" stroke-miterlimit="10" d="M9.54,2.009c0.249,0,0.493,0.025,0.728,0.073
	c0.235,0.048,0.462,0.119,0.678,0.211c0.216,0.091,0.422,0.203,0.614,0.333c0.192,0.13,0.371,0.278,0.535,0.441
	c0.164,0.164,0.311,0.343,0.441,0.535S12.779,4,12.87,4.216s0.162,0.443,0.211,0.678c0.048,0.235,0.073,0.479,0.073,0.728
	s-0.025,0.493-0.073,0.728c-0.048,0.235-0.119,0.462-0.211,0.678s-0.203,0.422-0.333,0.614c-0.13,0.192-0.278,0.371-0.441,0.535
	c-0.164,0.164-0.343,0.311-0.535,0.441c-0.192,0.13-0.398,0.242-0.614,0.333s-0.443,0.162-0.678,0.211
	C10.033,9.212,9.789,9.237,9.54,9.237S9.047,9.212,8.812,9.164C8.576,9.115,8.349,9.044,8.133,8.953
	C7.917,8.862,7.712,8.75,7.519,8.62C7.327,8.49,7.148,8.342,6.985,8.178C6.821,8.015,6.673,7.836,6.543,7.644
	C6.413,7.451,6.301,7.246,6.21,7.03S6.048,6.587,5.999,6.351C5.951,6.116,5.926,5.872,5.926,5.623S5.951,5.13,5.999,4.895
	C6.048,4.659,6.119,4.432,6.21,4.216s0.203-0.422,0.333-0.614c0.13-0.192,0.278-0.371,0.441-0.535
	c0.164-0.164,0.343-0.311,0.535-0.441c0.192-0.13,0.398-0.242,0.614-0.333c0.216-0.091,0.443-0.162,0.678-0.211
	C9.047,2.034,9.291,2.009,9.54,2.009z"/>
</svg>
