<?xml version="1.0" encoding="utf-8"?>
<!-- Generator: Adobe Illustrator 21.0.0, SVG Export Plug-In . SVG Version: 6.00 Build 0)  -->
<svg version="1.1" id="main" xmlns="http://www.w3.org/2000/svg" xmlns:xlink="http://www.w3.org/1999/xlink" x="0px" y="0px"
	 viewBox="0 0 17 35" enable-background="new 0 0 17 35" xml:space="preserve">
<path fill="none" stroke="#1D1D1B" stroke-miterlimit="10" d="M3.104,26.252c-0.068-0.176-0.134-0.356-0.199-0.541
	s-0.128-0.374-0.19-0.568s-0.122-0.392-0.18-0.595c-0.058-0.203-0.115-0.409-0.169-0.62s-0.107-0.426-0.158-0.645
	c-0.051-0.219-0.1-0.442-0.146-0.668c-0.047-0.227-0.091-0.457-0.134-0.691c-0.042-0.234-0.083-0.472-0.12-0.713
	c-0.038-0.241-0.073-0.486-0.106-0.734c-0.033-0.248-0.064-0.499-0.092-0.754s-0.053-0.512-0.076-0.773
	C1.51,18.69,1.49,18.427,1.473,18.16c-0.017-0.267-0.032-0.536-0.043-0.808s-0.02-0.547-0.026-0.824
	c-0.006-0.277-0.008-0.557-0.007-0.84s0.004-0.567,0.011-0.854c0.006-0.232,0.014-0.465,0.024-0.7
	c0.01-0.235,0.022-0.471,0.037-0.709c0.015-0.238,0.031-0.476,0.051-0.717c0.019-0.24,0.041-0.481,0.065-0.724
	c0.024-0.243,0.05-0.486,0.079-0.731c0.029-0.245,0.06-0.491,0.094-0.737c0.034-0.247,0.07-0.495,0.109-0.743
	c0.039-0.249,0.08-0.498,0.124-0.749S2.08,8.522,2.13,8.27c0.049-0.252,0.101-0.505,0.156-0.758C2.341,7.259,2.399,7.005,2.459,6.75
	s0.124-0.51,0.19-0.766c0.066-0.256,0.135-0.512,0.207-0.769c0.072-0.257,0.147-0.514,0.225-0.771
	C3.159,4.187,3.24,3.93,3.324,3.672s0.171-0.516,0.262-0.775"/>
<path fill="none" stroke="#1D1D1B" stroke-miterlimit="10" d="M5.042,25.959c0.013-0.358,0.029-0.711,0.047-1.06
	c0.018-0.349,0.039-0.694,0.062-1.035c0.023-0.341,0.049-0.678,0.078-1.011c0.029-0.333,0.06-0.662,0.094-0.988
	c0.034-0.325,0.071-0.647,0.111-0.965c0.04-0.318,0.082-0.633,0.128-0.944c0.046-0.311,0.094-0.619,0.146-0.923
	c0.052-0.304,0.106-0.606,0.164-0.904s0.119-0.593,0.183-0.885c0.064-0.292,0.132-0.581,0.203-0.867
	c0.071-0.286,0.145-0.569,0.223-0.85c0.078-0.281,0.159-0.558,0.243-0.834c0.085-0.275,0.173-0.548,0.265-0.818
	c0.092-0.27,0.187-0.538,0.286-0.804c0.099-0.266,0.202-0.529,0.309-0.79c0.107-0.261,0.217-0.52,0.331-0.777
	c0.099-0.222,0.201-0.443,0.305-0.662s0.212-0.437,0.323-0.654s0.224-0.432,0.341-0.646c0.117-0.214,0.237-0.427,0.36-0.639
	S9.494,8.48,9.624,8.27c0.129-0.21,0.262-0.419,0.398-0.627c0.136-0.208,0.275-0.415,0.418-0.621
	c0.143-0.206,0.289-0.412,0.438-0.616c0.149-0.205,0.302-0.409,0.458-0.612c0.156-0.203,0.316-0.406,0.479-0.608
	c0.163-0.202,0.33-0.404,0.5-0.605s0.344-0.402,0.522-0.602c0.178-0.2,0.359-0.4,0.544-0.6c0.185-0.2,0.373-0.399,0.566-0.599
	c0.192-0.199,0.388-0.399,0.588-0.598s0.404-0.398,0.611-0.598"/>
<path fill="none" stroke="#1D1D1B" stroke-miterlimit="10" d="M6.938,26.584c0.117-0.282,0.234-0.571,0.353-0.866
	c0.119-0.294,0.24-0.594,0.364-0.897s0.253-0.609,0.387-0.915c0.134-0.307,0.274-0.614,0.421-0.921s0.302-0.611,0.466-0.913
	s0.338-0.6,0.522-0.893c0.185-0.293,0.38-0.58,0.589-0.859c0.209-0.279,0.431-0.551,0.667-0.813
	c0.171-0.189,0.349-0.373,0.537-0.551c0.187-0.178,0.382-0.35,0.587-0.515c0.205-0.165,0.418-0.323,0.642-0.474
	c0.223-0.151,0.457-0.294,0.7-0.429c0.244-0.135,0.498-0.261,0.763-0.378c0.265-0.117,0.542-0.225,0.83-0.323
	c0.288-0.098,0.588-0.186,0.901-0.263c0.313-0.077,0.638-0.143,0.976-0.198"/>
<path fill="none" stroke="#1D1D1B" stroke-miterlimit="10" d="M8.105,28.209c0.153-0.236,0.317-0.46,0.491-0.669
	c0.174-0.21,0.358-0.405,0.549-0.586s0.39-0.346,0.593-0.494c0.204-0.149,0.413-0.281,0.626-0.396s0.428-0.211,0.645-0.289
	c0.217-0.078,0.435-0.137,0.652-0.176s0.433-0.057,0.646-0.054c0.213,0.003,0.423,0.027,0.627,0.074
	c0.128,0.029,0.255,0.068,0.379,0.116c0.124,0.048,0.245,0.105,0.363,0.172c0.118,0.067,0.233,0.143,0.345,0.229
	s0.219,0.182,0.323,0.289s0.203,0.223,0.298,0.35c0.095,0.127,0.185,0.265,0.27,0.413s0.165,0.308,0.239,0.478
	c0.074,0.17,0.143,0.352,0.205,0.545"/>
<path fill="none" stroke="#1D1D1B" stroke-miterlimit="10" d="M4.799,25.962c0.249,0,0.493,0.025,0.728,0.073
	c0.235,0.048,0.462,0.119,0.678,0.211c0.216,0.091,0.422,0.203,0.614,0.333c0.192,0.13,0.371,0.278,0.535,0.441
	c0.164,0.164,0.311,0.343,0.441,0.535c0.13,0.192,0.242,0.398,0.333,0.614s0.162,0.443,0.211,0.678
	c0.048,0.235,0.073,0.479,0.073,0.728s-0.025,0.493-0.073,0.728c-0.048,0.235-0.119,0.462-0.211,0.678s-0.203,0.422-0.333,0.614
	c-0.13,0.192-0.278,0.371-0.441,0.535c-0.164,0.163-0.343,0.311-0.535,0.441c-0.192,0.13-0.398,0.242-0.614,0.333
	c-0.216,0.091-0.443,0.162-0.678,0.211c-0.235,0.048-0.479,0.073-0.728,0.073s-0.493-0.025-0.728-0.073
	c-0.235-0.048-0.462-0.119-0.678-0.211c-0.216-0.091-0.422-0.203-0.614-0.333c-0.192-0.13-0.371-0.278-0.535-0.441
	c-0.164-0.164-0.311-0.343-0.441-0.535c-0.13-0.192-0.242-0.398-0.333-0.614c-0.091-0.216-0.162-0.443-0.211-0.678
	c-0.048-0.235-0.073-0.479-0.073-0.728s0.025-0.493,0.073-0.728c0.048-0.235,0.119-0.462,0.211-0.678
	c0.091-0.216,0.203-0.422,0.333-0.614c0.13-0.192,0.278-0.371,0.441-0.535c0.164-0.163,0.343-0.311,0.535-0.441
	s0.398-0.242,0.614-0.333c0.216-0.091,0.443-0.162,0.678-0.211C4.306,25.987,4.55,25.962,4.799,25.962z"/>
</svg>
