<?xml version="1.0" encoding="utf-8"?>
<!-- Generator: Adobe Illustrator 21.0.0, SVG Export Plug-In . SVG Version: 6.00 Build 0)  -->
<svg version="1.1" id="main" xmlns="http://www.w3.org/2000/svg" xmlns:xlink="http://www.w3.org/1999/xlink" x="0px" y="0px"
	 viewBox="0 0 17 35" enable-background="new 0 0 17 35" xml:space="preserve">
<path fill="none" stroke="#1D1D1B" stroke-miterlimit="10" d="M14.374,24.907c0.193,0,0.377,0.039,0.545,0.11
	c0.167,0.071,0.318,0.173,0.445,0.3c0.127,0.127,0.229,0.277,0.3,0.445s0.11,0.351,0.11,0.545s-0.039,0.377-0.11,0.545
	s-0.173,0.318-0.3,0.445c-0.127,0.127-0.277,0.229-0.445,0.3c-0.167,0.071-0.351,0.11-0.545,0.11s-0.377-0.039-0.545-0.11
	c-0.167-0.071-0.318-0.173-0.445-0.3c-0.127-0.127-0.229-0.277-0.3-0.445s-0.11-0.351-0.11-0.545s0.039-0.377,0.11-0.545
	s0.173-0.318,0.3-0.445c0.127-0.127,0.277-0.229,0.445-0.3C13.997,24.946,14.181,24.907,14.374,24.907z"/>
<path fill="none" stroke="#1D1D1B" stroke-miterlimit="10" d="M8.527,2.337c0.249,0,0.493,0.025,0.728,0.073S9.718,2.53,9.934,2.621
	c0.216,0.091,0.422,0.203,0.614,0.333c0.192,0.13,0.371,0.278,0.535,0.441c0.164,0.164,0.311,0.343,0.441,0.535
	s0.242,0.398,0.333,0.614s0.162,0.443,0.211,0.678c0.048,0.235,0.073,0.479,0.073,0.728s-0.025,0.493-0.073,0.728
	c-0.048,0.235-0.119,0.462-0.211,0.678s-0.203,0.422-0.333,0.614s-0.278,0.371-0.441,0.535c-0.164,0.164-0.343,0.311-0.535,0.441
	c-0.192,0.13-0.398,0.242-0.614,0.333S9.491,9.443,9.255,9.492C9.02,9.54,8.776,9.565,8.527,9.565S8.034,9.54,7.799,9.492
	C7.563,9.443,7.336,9.372,7.12,9.281S6.699,9.078,6.506,8.948C6.314,8.818,6.135,8.67,5.972,8.506
	C5.808,8.343,5.66,8.164,5.53,7.972C5.4,7.779,5.288,7.574,5.197,7.358S5.035,6.915,4.986,6.679C4.938,6.444,4.913,6.2,4.913,5.951
	s0.025-0.493,0.073-0.728C5.035,4.987,5.106,4.76,5.197,4.544S5.4,4.123,5.53,3.93c0.13-0.192,0.278-0.371,0.441-0.535
	c0.164-0.164,0.343-0.311,0.535-0.441c0.192-0.13,0.398-0.242,0.614-0.333C7.336,2.53,7.563,2.459,7.799,2.41
	C8.034,2.362,8.278,2.337,8.527,2.337z"/>
<path fill="none" stroke="#1D1D1B" stroke-miterlimit="10" d="M0.969,18.75l0.472,0.472l0.472,0.472l0.472,0.472l0.472,0.472
	l0.472,0.472l0.472,0.472l0.472,0.472l0.472,0.472l0.472,0.472l0.472,0.472l0.472,0.472l0.472,0.472l0.472,0.472l0.472,0.472
	l0.472,0.472l0.472,0.472l0.472,0.472l0.472,0.472l0.472,0.472l0.472,0.472l0.472,0.472l0.472,0.472l0.472,0.472l0.472,0.472
	l0.472,0.472l0.472,0.472l0.472,0.472l0.472,0.472l0.472,0.472l0.472,0.472l0.472,0.472l0.472,0.472"/>
<path fill="none" stroke="#1D1D1B" stroke-miterlimit="10" d="M16.083,18.75l-0.472,0.472l-0.472,0.472l-0.472,0.472l-0.472,0.472
	l-0.472,0.472l-0.472,0.472l-0.472,0.472l-0.472,0.472l-0.472,0.472l-0.472,0.472l-0.472,0.472l-0.472,0.472L9.943,24.89
	l-0.472,0.472l-0.472,0.472l-0.472,0.472l-0.472,0.472l-0.472,0.472L7.11,27.723l-0.472,0.472l-0.472,0.472L5.693,29.14
	l-0.472,0.472l-0.472,0.472l-0.472,0.472l-0.472,0.472l-0.472,0.472l-0.472,0.472l-0.472,0.472l-0.472,0.472l-0.472,0.472
	L0.97,33.863"/>
<path fill="none" stroke="#1D1D1B" stroke-miterlimit="10" d="M8.526,9.565v1.027v1.027v1.027v1.027v1.027v1.027v1.027v1.027v1.027
	v1.027v1.027v1.027v1.027v1.027v1.027V26"/>
</svg>
