<?xml version="1.0" encoding="utf-8"?>
<!-- Generator: Adobe Illustrator 21.0.0, SVG Export Plug-In . SVG Version: 6.00 Build 0)  -->
<svg version="1.1" id="main" xmlns="http://www.w3.org/2000/svg" xmlns:xlink="http://www.w3.org/1999/xlink" x="0px" y="0px"
	 viewBox="0 0 17 35" enable-background="new 0 0 17 35" xml:space="preserve">
<path fill="none" stroke="#1D1D1B" stroke-miterlimit="10" d="M1.854,33.855c0.216-0.477,0.431-0.935,0.645-1.375
	c0.214-0.441,0.427-0.864,0.639-1.271c0.212-0.407,0.424-0.798,0.634-1.173c0.211-0.375,0.421-0.735,0.631-1.08
	c0.21-0.345,0.42-0.676,0.629-0.994c0.21-0.318,0.419-0.622,0.629-0.913c0.21-0.292,0.42-0.571,0.63-0.839
	c0.21-0.268,0.421-0.524,0.632-0.77c0.211-0.246,0.423-0.482,0.636-0.708c0.213-0.226,0.426-0.443,0.641-0.651
	c0.215-0.208,0.43-0.408,0.647-0.601c0.217-0.193,0.435-0.378,0.655-0.556c0.22-0.179,0.441-0.351,0.664-0.518
	c0.223-0.167,0.448-0.328,0.675-0.485c0.227-0.157,0.456-0.309,0.687-0.459s0.464-0.295,0.7-0.438"/>
<path fill="none" stroke="#1D1D1B" stroke-miterlimit="10" d="M15.98,4.669c-0.046,0.329-0.096,0.652-0.15,0.97
	c-0.054,0.317-0.111,0.628-0.172,0.934c-0.061,0.305-0.126,0.605-0.193,0.898s-0.139,0.581-0.214,0.863
	c-0.075,0.282-0.153,0.558-0.234,0.829c-0.081,0.271-0.165,0.536-0.253,0.796c-0.087,0.26-0.178,0.514-0.271,0.763
	c-0.093,0.249-0.189,0.493-0.288,0.731c-0.099,0.238-0.201,0.471-0.305,0.699c-0.104,0.228-0.211,0.451-0.321,0.668
	c-0.11,0.218-0.222,0.43-0.336,0.638c-0.114,0.208-0.231,0.411-0.35,0.609c-0.119,0.198-0.241,0.391-0.364,0.58
	c-0.124,0.188-0.249,0.372-0.377,0.551c-0.128,0.179-0.257,0.354-0.389,0.524c-0.132,0.17-0.265,0.336-0.4,0.497
	s-0.272,0.318-0.411,0.47s-0.279,0.301-0.42,0.445c-0.142,0.144-0.285,0.284-0.429,0.42c-0.144,0.136-0.29,0.267-0.437,0.395
	C9.517,18.076,9.369,18.2,9.219,18.32c-0.149,0.12-0.3,0.236-0.451,0.348c-0.151,0.112-0.304,0.221-0.457,0.326
	c-0.153,0.105-0.307,0.206-0.462,0.304s-0.31,0.192-0.466,0.283c-0.156,0.091-0.313,0.178-0.47,0.262
	c-0.157,0.084-0.315,0.165-0.473,0.242s-0.316,0.152-0.475,0.223s-0.317,0.139-0.476,0.205s-0.318,0.127-0.476,0.187
	c-0.159,0.059-0.317,0.116-0.476,0.169s-0.317,0.105-0.475,0.153"/>
<path fill="none" stroke="#1D1D1B" stroke-miterlimit="10" d="M12.855,1.064c0,0.164-0.001,0.333-0.004,0.505
	s-0.007,0.349-0.012,0.529c-0.005,0.18-0.012,0.364-0.021,0.552c-0.009,0.187-0.019,0.378-0.031,0.572
	c-0.012,0.194-0.026,0.391-0.042,0.592c-0.016,0.2-0.034,0.403-0.054,0.609c-0.02,0.206-0.042,0.414-0.067,0.625
	c-0.025,0.211-0.051,0.424-0.081,0.639c-0.029,0.215-0.061,0.433-0.095,0.652c-0.034,0.219-0.071,0.44-0.111,0.663
	s-0.082,0.447-0.128,0.672c-0.045,0.225-0.094,0.452-0.145,0.68c-0.051,0.228-0.106,0.456-0.163,0.686
	c-0.058,0.229-0.119,0.459-0.183,0.69c-0.064,0.231-0.132,0.462-0.203,0.693c-0.071,0.231-0.146,0.463-0.224,0.694
	s-0.16,0.462-0.246,0.693s-0.176,0.461-0.269,0.691s-0.191,0.459-0.293,0.687c-0.102,0.228-0.208,0.456-0.318,0.682
	c-0.11,0.226-0.225,0.451-0.344,0.675C9.7,14.768,9.577,14.99,9.449,15.21c-0.128,0.22-0.261,0.439-0.399,0.655
	c-0.138,0.217-0.28,0.431-0.427,0.643s-0.3,0.422-0.457,0.63c-0.157,0.207-0.32,0.412-0.487,0.614
	c-0.168,0.202-0.341,0.401-0.519,0.597s-0.362,0.389-0.551,0.579c-0.189,0.19-0.384,0.376-0.584,0.558
	c-0.2,0.183-0.407,0.361-0.619,0.536c-0.212,0.175-0.43,0.346-0.654,0.513c-0.224,0.167-0.454,0.329-0.69,0.488"/>
<path fill="none" stroke="#1D1D1B" stroke-miterlimit="10" d="M14.373,31.061c0.193,0,0.377,0.039,0.544,0.11
	c0.167,0.071,0.318,0.173,0.444,0.299c0.126,0.126,0.229,0.277,0.299,0.444s0.11,0.351,0.11,0.544s-0.039,0.377-0.11,0.544
	c-0.071,0.167-0.173,0.318-0.299,0.444c-0.126,0.126-0.277,0.229-0.444,0.299c-0.167,0.071-0.351,0.11-0.544,0.11
	s-0.377-0.039-0.544-0.11c-0.167-0.071-0.318-0.173-0.444-0.299s-0.229-0.277-0.299-0.444c-0.071-0.167-0.11-0.351-0.11-0.544
	s0.039-0.377,0.11-0.544s0.173-0.318,0.299-0.444s0.277-0.229,0.444-0.299C13.996,31.1,14.18,31.061,14.373,31.061z"/>
<path fill="none" stroke="#1D1D1B" stroke-miterlimit="10" d="M4.674,4.148c0.249,0,0.493,0.025,0.728,0.073
	C5.638,4.27,5.865,4.341,6.081,4.432s0.422,0.203,0.614,0.333c0.192,0.13,0.371,0.278,0.535,0.441s0.311,0.343,0.441,0.535
	c0.13,0.192,0.242,0.398,0.333,0.614s0.162,0.443,0.211,0.678c0.048,0.235,0.073,0.479,0.073,0.728S8.263,8.255,8.215,8.49
	C8.166,8.726,8.095,8.953,8.004,9.169S7.801,9.59,7.671,9.783c-0.13,0.192-0.278,0.371-0.441,0.535
	c-0.164,0.164-0.343,0.311-0.535,0.441c-0.192,0.13-0.398,0.242-0.614,0.333s-0.443,0.162-0.678,0.211
	c-0.235,0.048-0.479,0.073-0.728,0.073s-0.493-0.025-0.728-0.073c-0.235-0.048-0.462-0.119-0.678-0.211s-0.422-0.203-0.614-0.333
	s-0.371-0.278-0.535-0.441c-0.164-0.164-0.311-0.343-0.441-0.535C1.547,9.59,1.435,9.385,1.344,9.169
	C1.253,8.953,1.182,8.726,1.133,8.49C1.085,8.255,1.06,8.011,1.06,7.762s0.025-0.493,0.073-0.728
	c0.048-0.235,0.119-0.462,0.211-0.678c0.091-0.216,0.203-0.422,0.333-0.614c0.13-0.192,0.278-0.371,0.441-0.535
	c0.164-0.164,0.343-0.311,0.535-0.441c0.192-0.13,0.398-0.242,0.614-0.333S3.71,4.27,3.946,4.221
	C4.181,4.173,4.425,4.148,4.674,4.148z"/>
</svg>
