<?xml version="1.0" encoding="utf-8"?>
<!-- Generator: Adobe Illustrator 21.0.0, SVG Export Plug-In . SVG Version: 6.00 Build 0)  -->
<svg version="1.1" id="main" xmlns="http://www.w3.org/2000/svg" xmlns:xlink="http://www.w3.org/1999/xlink" x="0px" y="0px"
	 viewBox="0 0 17 35" enable-background="new 0 0 17 35" xml:space="preserve">
<path fill="none" stroke="#1D1D1B" stroke-miterlimit="10" d="M15,3.5c0.2,0,0.387,0.037,0.556,0.106
	C15.725,3.675,15.875,3.775,16,3.9s0.225,0.275,0.294,0.444C16.362,4.512,16.4,4.7,16.4,4.9s-0.038,0.388-0.106,0.556
	C16.225,5.625,16.125,5.775,16,5.9s-0.275,0.225-0.444,0.294C15.387,6.263,15.2,6.3,15,6.3s-0.387-0.037-0.556-0.106
	C14.275,6.125,14.125,6.025,14,5.9s-0.225-0.275-0.294-0.444C13.638,5.288,13.6,5.1,13.6,4.9s0.038-0.388,0.106-0.556
	C13.775,4.175,13.875,4.025,14,3.9s0.275-0.225,0.444-0.294C14.613,3.537,14.8,3.5,15,3.5z"/>
<path fill="none" stroke="#1D1D1B" stroke-miterlimit="10" d="M4.7,26.8c0.5,0,0.975,0.1,1.406,0.281
	c0.431,0.181,0.819,0.444,1.144,0.769c0.325,0.325,0.588,0.713,0.769,1.144C8.2,29.425,8.3,29.9,8.3,30.4s-0.1,0.975-0.281,1.406
	S7.575,32.625,7.25,32.95s-0.713,0.587-1.144,0.769C5.675,33.9,5.2,34,4.7,34s-0.975-0.1-1.406-0.281S2.475,33.275,2.15,32.95
	s-0.587-0.713-0.769-1.144S1.1,30.9,1.1,30.4s0.1-0.975,0.281-1.406s0.444-0.819,0.769-1.144s0.713-0.587,1.144-0.769
	S4.2,26.8,4.7,26.8z"/>
<path fill="none" stroke="#1D1D1B" stroke-miterlimit="10" d="M15,20.2l-0.481,0.481l-0.481,0.481l-0.481,0.481l-0.481,0.481
	l-0.481,0.481l-0.481,0.481l-0.481,0.481L11.15,24.05l-0.481,0.481l-0.481,0.481l-0.481,0.481l-0.481,0.481l-0.481,0.481
	l-0.481,0.481l-0.481,0.481L7.3,27.9"/>
<path fill="none" stroke="#1D1D1B" stroke-miterlimit="10" d="M7.3,0.2v1.706v1.706v1.706v1.706V8.73v1.706v1.706v1.706v1.706v1.706
	v1.706v1.706v1.706v1.706v1.706v1.71"/>
<path fill="none" stroke="#1D1D1B" stroke-miterlimit="10" d="M1.2,19.1c0.05-0.012,0.099-0.025,0.146-0.038
	c0.047-0.012,0.093-0.025,0.138-0.038C1.53,19.013,1.574,19,1.618,18.987c0.044-0.012,0.088-0.025,0.132-0.037
	s0.087-0.025,0.132-0.038c0.044-0.012,0.089-0.025,0.135-0.038c0.045-0.013,0.091-0.025,0.138-0.038
	C2.201,18.825,2.25,18.813,2.3,18.8c0.1-0.025,0.198-0.047,0.296-0.066s0.194-0.036,0.29-0.05s0.192-0.026,0.288-0.036
	c0.096-0.01,0.192-0.017,0.289-0.023s0.195-0.011,0.294-0.014c0.099-0.004,0.199-0.006,0.301-0.008
	c0.102-0.001,0.207-0.002,0.314-0.003c0.107,0,0.216,0,0.328,0c0.55,0,1.09,0.038,1.619,0.11s1.046,0.18,1.55,0.321
	s0.993,0.314,1.465,0.518c0.472,0.204,0.929,0.438,1.366,0.701s0.856,0.553,1.254,0.87c0.398,0.316,0.774,0.659,1.127,1.024
	c0.353,0.365,0.683,0.754,0.987,1.165c0.304,0.41,0.582,0.841,0.832,1.291"/>
</svg>
