<?xml version="1.0" encoding="utf-8"?>
<!-- Generator: Adobe Illustrator 21.0.0, SVG Export Plug-In . SVG Version: 6.00 Build 0)  -->
<svg version="1.1" id="main" xmlns="http://www.w3.org/2000/svg" xmlns:xlink="http://www.w3.org/1999/xlink" x="0px" y="0px"
	 viewBox="0 0 17 35" enable-background="new 0 0 17 35" xml:space="preserve">
<path fill="none" stroke="#1D1D1B" stroke-miterlimit="10" d="M8.5,26.6c0.238,0,0.47,0.025,0.696,0.072
	C9.421,26.72,9.64,26.79,9.848,26.88s0.407,0.2,0.594,0.327s0.361,0.272,0.52,0.431c0.159,0.159,0.304,0.334,0.431,0.52
	s0.237,0.385,0.327,0.594c0.09,0.209,0.16,0.427,0.207,0.653C11.975,29.63,12,29.863,12,30.1s-0.025,0.47-0.072,0.696
	c-0.047,0.226-0.117,0.444-0.207,0.653c-0.09,0.209-0.2,0.407-0.327,0.594c-0.127,0.187-0.272,0.361-0.431,0.52
	s-0.334,0.304-0.52,0.431s-0.385,0.237-0.594,0.327s-0.427,0.16-0.653,0.207C8.97,33.575,8.738,33.6,8.5,33.6
	s-0.47-0.025-0.696-0.072C7.579,33.48,7.36,33.41,7.152,33.32s-0.407-0.2-0.594-0.327s-0.361-0.272-0.52-0.431
	c-0.159-0.159-0.304-0.334-0.431-0.52c-0.127-0.187-0.237-0.385-0.327-0.594c-0.09-0.209-0.16-0.427-0.207-0.653
	C5.025,30.57,5,30.337,5,30.1s0.025-0.47,0.072-0.696C5.12,29.179,5.19,28.96,5.28,28.752c0.09-0.209,0.2-0.407,0.327-0.594
	s0.272-0.361,0.431-0.52c0.159-0.159,0.334-0.304,0.52-0.431s0.385-0.237,0.594-0.327c0.209-0.09,0.427-0.16,0.653-0.207
	C8.03,26.625,8.262,26.6,8.5,26.6z"/>
<path fill="none" stroke="#1D1D1B" stroke-miterlimit="10" d="M1.1,20.7c0.069-0.147,0.138-0.289,0.209-0.427
	c0.07-0.138,0.142-0.271,0.214-0.4s0.145-0.253,0.218-0.373s0.148-0.235,0.223-0.346s0.15-0.217,0.226-0.319
	c0.076-0.102,0.153-0.2,0.23-0.293c0.077-0.093,0.155-0.182,0.233-0.267c0.078-0.085,0.157-0.165,0.236-0.241
	s0.159-0.148,0.238-0.216c0.08-0.068,0.16-0.131,0.241-0.191c0.081-0.059,0.161-0.115,0.242-0.166
	c0.081-0.051,0.162-0.098,0.244-0.141c0.081-0.043,0.163-0.082,0.245-0.116s0.164-0.065,0.246-0.092s0.164-0.049,0.246-0.068
	C4.673,17.026,4.755,17.011,4.838,17s0.164-0.018,0.246-0.021c0.082-0.003,0.164-0.002,0.245,0.002s0.163,0.013,0.244,0.025
	s0.162,0.028,0.243,0.048c0.081,0.02,0.161,0.043,0.241,0.07c0.08,0.027,0.16,0.058,0.239,0.092s0.158,0.072,0.237,0.114
	s0.157,0.087,0.234,0.136s0.155,0.101,0.231,0.157c0.076,0.056,0.152,0.115,0.228,0.178C7.301,17.864,7.376,17.93,7.45,18
	s0.147,0.143,0.22,0.22s0.144,0.157,0.215,0.24s0.141,0.17,0.21,0.26C8.164,18.81,8.233,18.904,8.3,19
	c0.068,0.097,0.134,0.197,0.2,0.3c0.056-0.1,0.115-0.197,0.175-0.291c0.061-0.094,0.123-0.184,0.188-0.272s0.131-0.171,0.2-0.252
	c0.068-0.081,0.139-0.158,0.21-0.233s0.145-0.145,0.22-0.213s0.151-0.132,0.229-0.192c0.078-0.061,0.157-0.118,0.237-0.172
	s0.162-0.104,0.245-0.151c0.083-0.047,0.166-0.09,0.251-0.13s0.17-0.076,0.256-0.109s0.173-0.062,0.261-0.087
	c0.088-0.025,0.176-0.047,0.264-0.065s0.178-0.032,0.267-0.043c0.089-0.01,0.179-0.017,0.269-0.02s0.18-0.002,0.27,0.003
	s0.18,0.013,0.27,0.026c0.09,0.013,0.18,0.029,0.269,0.049s0.179,0.045,0.267,0.073c0.089,0.028,0.177,0.061,0.264,0.097
	s0.175,0.077,0.261,0.121c0.086,0.045,0.172,0.093,0.256,0.146c0.085,0.053,0.168,0.11,0.251,0.171s0.164,0.126,0.245,0.196
	c0.08,0.07,0.16,0.143,0.238,0.222s0.155,0.161,0.23,0.247c0.075,0.087,0.149,0.178,0.221,0.273c0.072,0.096,0.142,0.195,0.211,0.3
	s0.135,0.213,0.2,0.326s0.128,0.231,0.188,0.353s0.119,0.249,0.176,0.381c0.056,0.131,0.111,0.267,0.162,0.408
	c0.052,0.141,0.101,0.286,0.148,0.436"/>
<path fill="none" stroke="#1D1D1B" stroke-miterlimit="10" d="M1.1,13.9c0.069-0.147,0.138-0.289,0.209-0.427
	c0.07-0.138,0.142-0.271,0.214-0.4c0.072-0.129,0.145-0.253,0.218-0.373s0.148-0.235,0.223-0.346
	c0.075-0.111,0.15-0.217,0.226-0.319c0.076-0.102,0.153-0.2,0.23-0.293s0.155-0.182,0.233-0.267
	c0.078-0.085,0.157-0.165,0.236-0.241s0.159-0.148,0.238-0.216s0.16-0.131,0.241-0.191c0.081-0.059,0.161-0.115,0.242-0.166
	s0.162-0.098,0.244-0.141c0.081-0.043,0.163-0.082,0.245-0.116s0.164-0.065,0.246-0.092s0.164-0.049,0.246-0.068
	c0.082-0.019,0.164-0.034,0.246-0.045s0.164-0.018,0.246-0.021c0.082-0.003,0.164-0.002,0.245,0.002s0.163,0.013,0.244,0.025
	s0.162,0.028,0.243,0.048c0.081,0.02,0.161,0.043,0.241,0.07s0.16,0.058,0.239,0.092c0.079,0.034,0.158,0.072,0.237,0.114
	s0.157,0.087,0.234,0.136s0.155,0.101,0.231,0.157c0.076,0.056,0.152,0.115,0.228,0.178S7.376,11.13,7.45,11.2
	s0.147,0.143,0.22,0.22s0.144,0.157,0.215,0.24s0.141,0.17,0.21,0.26c0.069,0.09,0.138,0.183,0.205,0.28s0.134,0.197,0.2,0.3
	c0.056-0.1,0.115-0.197,0.175-0.291s0.123-0.184,0.188-0.272c0.065-0.087,0.131-0.171,0.2-0.252c0.068-0.081,0.139-0.158,0.21-0.233
	s0.145-0.145,0.22-0.213s0.151-0.132,0.229-0.192S9.88,10.93,9.96,10.876c0.08-0.054,0.162-0.104,0.245-0.151
	c0.083-0.047,0.166-0.09,0.251-0.13s0.17-0.076,0.256-0.109c0.086-0.033,0.173-0.062,0.261-0.087s0.176-0.047,0.264-0.065
	c0.089-0.018,0.178-0.032,0.267-0.043c0.089-0.01,0.179-0.017,0.269-0.02s0.18-0.002,0.27,0.003c0.09,0.005,0.18,0.013,0.27,0.026
	s0.18,0.029,0.269,0.049c0.089,0.02,0.179,0.045,0.267,0.073c0.089,0.028,0.177,0.061,0.264,0.097s0.175,0.077,0.261,0.121
	c0.086,0.045,0.172,0.093,0.256,0.146s0.168,0.11,0.251,0.171c0.083,0.061,0.164,0.126,0.245,0.196
	c0.08,0.07,0.16,0.143,0.238,0.222s0.155,0.161,0.23,0.247c0.075,0.087,0.149,0.178,0.221,0.273s0.142,0.195,0.211,0.3
	s0.135,0.213,0.2,0.326s0.128,0.231,0.188,0.353s0.119,0.249,0.176,0.381c0.056,0.131,0.111,0.267,0.162,0.408
	S15.853,13.95,15.9,14.1"/>
<path fill="none" stroke="#1D1D1B" stroke-miterlimit="10" d="M12.138,1.6c0.222,0,0.436,0.047,0.631,0.131s0.372,0.206,0.522,0.355
	s0.271,0.326,0.355,0.522c0.084,0.195,0.131,0.409,0.131,0.631S13.73,3.674,13.646,3.87c-0.084,0.195-0.206,0.372-0.355,0.522
	c-0.149,0.149-0.326,0.271-0.522,0.355c-0.195,0.084-0.409,0.131-0.631,0.131c-0.222,0-0.436-0.047-0.631-0.131
	c-0.195-0.084-0.372-0.206-0.522-0.355c-0.149-0.149-0.271-0.326-0.355-0.522C10.547,3.674,10.5,3.461,10.5,3.238
	s0.047-0.436,0.131-0.631c0.084-0.195,0.206-0.372,0.355-0.522s0.326-0.271,0.522-0.355S11.916,1.6,12.138,1.6z"/>
</svg>
