<?xml version="1.0" encoding="utf-8"?>
<!-- Generator: Adobe Illustrator 21.0.0, SVG Export Plug-In . SVG Version: 6.00 Build 0)  -->
<svg version="1.1" id="main" xmlns="http://www.w3.org/2000/svg" xmlns:xlink="http://www.w3.org/1999/xlink" x="0px" y="0px"
	 viewBox="0 0 17 35" enable-background="new 0 0 17 35" xml:space="preserve">
<path fill="none" stroke="#1D1D1B" stroke-miterlimit="10" d="M4.7,25.9c0.238,0,0.47,0.025,0.696,0.072
	C5.621,26.02,5.84,26.09,6.048,26.18c0.209,0.09,0.407,0.2,0.594,0.327s0.361,0.272,0.52,0.431c0.159,0.159,0.304,0.334,0.431,0.52
	s0.237,0.385,0.327,0.594c0.09,0.209,0.16,0.427,0.207,0.653C8.175,28.93,8.2,29.163,8.2,29.4s-0.025,0.47-0.072,0.696
	C8.08,30.321,8.01,30.54,7.92,30.748c-0.09,0.209-0.2,0.407-0.327,0.594s-0.272,0.361-0.431,0.52
	c-0.159,0.159-0.334,0.304-0.52,0.431S6.257,32.53,6.048,32.62c-0.209,0.09-0.427,0.16-0.653,0.207C5.17,32.875,4.938,32.9,4.7,32.9
	s-0.47-0.025-0.696-0.072C3.779,32.78,3.56,32.71,3.352,32.62s-0.407-0.2-0.594-0.327s-0.361-0.272-0.52-0.431
	c-0.159-0.159-0.304-0.334-0.431-0.52S1.57,30.957,1.48,30.748c-0.09-0.209-0.16-0.427-0.207-0.653C1.225,29.87,1.2,29.638,1.2,29.4
	s0.025-0.47,0.072-0.696C1.32,28.479,1.39,28.26,1.48,28.052c0.09-0.209,0.2-0.407,0.327-0.594s0.272-0.361,0.431-0.52
	c0.159-0.159,0.334-0.304,0.52-0.431c0.187-0.127,0.385-0.237,0.594-0.327c0.209-0.09,0.427-0.16,0.653-0.207
	C4.23,25.925,4.462,25.9,4.7,25.9z"/>
<path fill="none" stroke="#1D1D1B" stroke-miterlimit="10" d="M8.2,0.7v0.9v0.9v0.9v0.9v0.9v0.9V7v0.9v0.9v0.9v0.9v0.9v0.9v0.9v0.9
	v0.9V16v0.9v0.9v0.9v0.9v0.9v0.9v0.9v0.9v0.9V25v0.9v0.9v0.9v0.9v0.9"/>
<path fill="none" stroke="#1D1D1B" stroke-miterlimit="10" d="M8.2,0.7c0,0.387,0.03,0.748,0.086,1.084s0.139,0.649,0.244,0.942
	s0.233,0.565,0.38,0.821c0.147,0.256,0.312,0.495,0.493,0.722s0.376,0.44,0.583,0.645s0.425,0.4,0.65,0.589s0.459,0.373,0.696,0.555
	S11.809,6.419,12.05,6.6c0.241,0.181,0.481,0.364,0.718,0.552s0.47,0.381,0.696,0.583c0.226,0.202,0.444,0.413,0.65,0.636
	s0.402,0.459,0.583,0.71c0.18,0.252,0.346,0.519,0.493,0.806c0.147,0.287,0.274,0.594,0.38,0.924s0.188,0.683,0.244,1.064
	S15.9,12.662,15.9,13.1"/>
<path fill="none" stroke="#1D1D1B" stroke-miterlimit="10" d="M8.2,7.8c0,0.387,0.03,0.748,0.086,1.084s0.139,0.649,0.244,0.942
	c0.105,0.293,0.233,0.565,0.38,0.821c0.147,0.256,0.312,0.495,0.493,0.722s0.376,0.44,0.583,0.645s0.425,0.4,0.65,0.589
	c0.226,0.189,0.459,0.373,0.696,0.555c0.237,0.182,0.477,0.361,0.718,0.543c0.241,0.181,0.481,0.364,0.718,0.552
	s0.47,0.381,0.696,0.583c0.226,0.202,0.444,0.413,0.65,0.636s0.402,0.459,0.583,0.71c0.18,0.252,0.346,0.519,0.493,0.806
	c0.147,0.287,0.274,0.594,0.38,0.924s0.188,0.683,0.244,1.064c0.056,0.38,0.086,0.787,0.086,1.225"/>
</svg>
