<?xml version="1.0" encoding="utf-8"?>
<!-- Generator: Adobe Illustrator 21.0.0, SVG Export Plug-In . SVG Version: 6.00 Build 0)  -->
<svg version="1.1" id="main" xmlns="http://www.w3.org/2000/svg" xmlns:xlink="http://www.w3.org/1999/xlink" x="0px" y="0px"
	 viewBox="0 0 17 35" enable-background="new 0 0 17 35" xml:space="preserve">
<path fill="none" stroke="#1D1D1B" stroke-miterlimit="10" d="M0.6,2.6c0.509,0,0.987,0.03,1.434,0.089s0.865,0.146,1.254,0.259
	s0.75,0.254,1.086,0.418C4.709,3.531,5.018,3.72,5.303,3.932s0.546,0.447,0.785,0.702S6.544,5.166,6.74,5.461
	c0.197,0.295,0.374,0.609,0.532,0.94C7.432,6.732,7.572,7.08,7.697,7.444C7.821,7.807,7.93,8.185,8.025,8.577
	C8.119,8.969,8.199,9.374,8.268,9.79c0.068,0.416,0.125,0.844,0.171,1.281s0.082,0.884,0.11,1.338s0.048,0.916,0.062,1.383
	c0.014,0.467,0.022,0.94,0.025,1.417c0.004,0.477,0.003,0.957,0.001,1.44C8.634,17.131,8.63,17.616,8.625,18.1
	s-0.009,0.969-0.012,1.451s-0.004,0.963-0.001,1.44c0.003,0.477,0.01,0.95,0.022,1.417s0.031,0.929,0.058,1.383
	c0.026,0.454,0.061,0.901,0.105,1.338s0.098,0.865,0.164,1.281s0.144,0.821,0.236,1.213c0.092,0.392,0.197,0.77,0.319,1.133
	s0.259,0.711,0.414,1.043c0.155,0.331,0.328,0.645,0.521,0.94s0.406,0.571,0.64,0.827s0.491,0.49,0.772,0.702
	c0.28,0.212,0.585,0.401,0.915,0.566s0.686,0.305,1.07,0.418c0.384,0.114,0.795,0.201,1.237,0.259S15.997,33.6,16.5,33.6"/>
<path fill="none" stroke="#1D1D1B" stroke-miterlimit="10" d="M5.2,26.5c0.238,0,0.47,0.025,0.696,0.072
	C6.121,26.62,6.34,26.69,6.548,26.78c0.209,0.09,0.407,0.2,0.594,0.327s0.361,0.272,0.52,0.431c0.159,0.159,0.304,0.334,0.431,0.52
	s0.237,0.385,0.327,0.594c0.09,0.209,0.16,0.427,0.207,0.653C8.675,29.53,8.7,29.763,8.7,30s-0.025,0.47-0.072,0.696
	C8.58,30.921,8.51,31.14,8.42,31.348c-0.09,0.209-0.2,0.407-0.327,0.594s-0.272,0.361-0.431,0.52
	c-0.159,0.159-0.334,0.304-0.52,0.431S6.757,33.13,6.548,33.22c-0.209,0.09-0.427,0.16-0.653,0.207C5.67,33.475,5.438,33.5,5.2,33.5
	s-0.47-0.025-0.696-0.072C4.279,33.38,4.06,33.31,3.852,33.22s-0.407-0.2-0.594-0.327s-0.361-0.272-0.52-0.431
	c-0.159-0.159-0.304-0.334-0.431-0.52c-0.127-0.187-0.237-0.385-0.327-0.594c-0.09-0.209-0.16-0.427-0.207-0.653S1.7,30.237,1.7,30
	s0.025-0.47,0.072-0.696C1.82,29.079,1.89,28.86,1.98,28.652c0.09-0.209,0.2-0.407,0.327-0.594s0.272-0.361,0.431-0.52
	c0.159-0.159,0.334-0.304,0.52-0.431s0.385-0.237,0.594-0.327s0.427-0.16,0.653-0.207C4.73,26.525,4.962,26.5,5.2,26.5z"/>
<path fill="none" stroke="#1D1D1B" stroke-miterlimit="10" d="M0.7,15.2h0.494h0.494h0.494h0.494h0.494h0.494h0.494H4.65h0.494
	h0.494h0.494h0.494h0.494h0.494h0.494H8.6h0.494h0.494h0.494h0.494h0.494h0.494h0.494h0.494h0.494h0.494h0.494h0.494h0.494h0.494
	h0.494H16.5"/>
</svg>
