<?xml version="1.0" encoding="utf-8"?>
<!-- Generator: Adobe Illustrator 21.0.0, SVG Export Plug-In . SVG Version: 6.00 Build 0)  -->
<svg version="1.1" id="main" xmlns="http://www.w3.org/2000/svg" xmlns:xlink="http://www.w3.org/1999/xlink" x="0px" y="0px"
	 viewBox="0 0 17 35" enable-background="new 0 0 17 35" xml:space="preserve">
<path id="arm" fill="none" stroke="#1D1D1B" stroke-miterlimit="10" d="M0.066,12.942c0.075,0,0.248,0,0.494,0s0.567,0,0.939,0
	s0.794,0,1.245,0s0.928,0,1.411,0s0.969,0,1.437,0c0.468,0,0.917,0,1.324,0s0.772,0,1.072,0s0.534,0,0.68,0s0.376,0,0.668,0
	s0.646,0,1.041,0c0.394,0,0.829,0,1.282,0c0.453,0,0.924,0,1.391,0s0.931,0,1.368,0c0.438,0,0.85,0,1.214,0s0.681,0,0.927,0
	s0.424,0,0.509,0"/>
<path id="leg" fill="none" stroke="#1D1D1B" stroke-linejoin="round" stroke-miterlimit="10" d="M1.153,34.434
	c0.018-0.04,0.062-0.141,0.13-0.295c0.068-0.155,0.16-0.363,0.272-0.616c0.112-0.254,0.244-0.553,0.393-0.891
	c0.149-0.337,0.314-0.713,0.493-1.118c0.179-0.405,0.371-0.841,0.573-1.298s0.413-0.937,0.631-1.432s0.442-1.003,0.669-1.518
	c0.227-0.515,0.457-1.037,0.687-1.558c0.23-0.521,0.459-1.04,0.684-1.55c0.225-0.51,0.446-1.012,0.66-1.496
	c0.214-0.484,0.42-0.952,0.615-1.395c0.195-0.443,0.38-0.861,0.55-1.246s0.326-0.738,0.463-1.051s0.258-0.585,0.357-0.809
	c0.099-0.224,0.176-0.4,0.229-0.52c0.053-0.12,0.081-0.184,0.081-0.184s0.027,0.063,0.079,0.183
	c0.051,0.119,0.127,0.294,0.222,0.517c0.096,0.223,0.212,0.494,0.346,0.804c0.134,0.311,0.285,0.662,0.45,1.046
	c0.165,0.384,0.344,0.8,0.534,1.24s0.39,0.906,0.598,1.388c0.208,0.482,0.423,0.982,0.642,1.49s0.442,1.026,0.666,1.545
	c0.224,0.519,0.449,1.04,0.67,1.554s0.441,1.022,0.655,1.516c0.213,0.494,0.421,0.974,0.619,1.431
	c0.198,0.458,0.387,0.894,0.563,1.3c0.176,0.406,0.34,0.783,0.487,1.123s0.279,0.642,0.392,0.899
	c0.112,0.257,0.206,0.469,0.276,0.629s0.118,0.266,0.14,0.312"/>
<path id="head" fill="none" stroke="#1D1D1B" stroke-miterlimit="10" d="M8.5,1.517c0.249,0,0.493,0.025,0.728,0.073
	S9.691,1.71,9.907,1.801c0.216,0.091,0.422,0.203,0.614,0.333c0.192,0.13,0.371,0.278,0.535,0.441
	c0.164,0.164,0.311,0.343,0.441,0.535s0.242,0.398,0.333,0.614s0.162,0.443,0.211,0.678c0.048,0.235,0.073,0.479,0.073,0.728
	s-0.025,0.493-0.073,0.728c-0.048,0.235-0.119,0.462-0.211,0.678s-0.203,0.422-0.333,0.614s-0.278,0.371-0.441,0.535
	c-0.164,0.164-0.343,0.311-0.535,0.441c-0.192,0.13-0.398,0.242-0.614,0.333S9.464,8.623,9.228,8.672
	C8.993,8.72,8.749,8.745,8.5,8.745S8.007,8.72,7.772,8.672C7.536,8.623,7.309,8.552,7.093,8.461S6.672,8.258,6.479,8.128
	C6.287,7.998,6.108,7.85,5.945,7.686S5.633,7.344,5.503,7.152C5.373,6.959,5.261,6.754,5.17,6.538S5.008,6.095,4.959,5.859
	C4.911,5.624,4.886,5.38,4.886,5.131s0.025-0.493,0.073-0.728C5.008,4.167,5.079,3.94,5.17,3.724S5.373,3.303,5.503,3.11
	c0.13-0.192,0.278-0.371,0.441-0.535c0.164-0.164,0.343-0.311,0.535-0.441c0.192-0.13,0.398-0.242,0.614-0.333
	C7.309,1.71,7.536,1.639,7.772,1.59C8.007,1.542,8.251,1.517,8.5,1.517z"/>
</svg>
