<?xml version="1.0" encoding="utf-8"?>
<!-- Generator: Adobe Illustrator 21.0.0, SVG Export Plug-In . SVG Version: 6.00 Build 0)  -->
<svg version="1.1" id="main" xmlns="http://www.w3.org/2000/svg" xmlns:xlink="http://www.w3.org/1999/xlink" x="0px" y="0px"
	 viewBox="0 0 17 35" enable-background="new 0 0 17 35" xml:space="preserve">
<path fill="none" stroke="#1D1D1B" stroke-linejoin="round" stroke-miterlimit="10" d="M15.98,13.105
	c-0.009,0.014-0.024,0.04-0.046,0.076c-0.022,0.036-0.05,0.082-0.084,0.138c-0.034,0.056-0.074,0.122-0.12,0.196
	c-0.045,0.075-0.096,0.158-0.152,0.25s-0.117,0.192-0.183,0.3c-0.066,0.108-0.136,0.223-0.21,0.345
	c-0.074,0.122-0.153,0.251-0.235,0.386s-0.168,0.276-0.258,0.423c-0.089,0.147-0.182,0.299-0.278,0.456
	c-0.096,0.157-0.194,0.318-0.295,0.484c-0.101,0.166-0.204,0.335-0.31,0.508c-0.105,0.173-0.213,0.349-0.322,0.528
	s-0.22,0.36-0.331,0.544c-0.112,0.183-0.225,0.369-0.338,0.555c-0.114,0.186-0.228,0.374-0.343,0.562s-0.23,0.377-0.344,0.565
	c-0.115,0.188-0.229,0.377-0.344,0.564s-0.228,0.374-0.34,0.558c-0.113,0.185-0.224,0.368-0.334,0.548
	c-0.11,0.181-0.219,0.359-0.326,0.534c-0.107,0.175-0.212,0.348-0.314,0.516c-0.103,0.168-0.203,0.333-0.301,0.493
	c-0.098,0.16-0.193,0.316-0.284,0.467s-0.18,0.296-0.265,0.436c-0.085,0.14-0.166,0.273-0.244,0.4s-0.151,0.247-0.22,0.361
	c-0.069,0.113-0.133,0.219-0.193,0.317s-0.114,0.188-0.164,0.269s-0.093,0.153-0.132,0.216c-0.038,0.063-0.071,0.116-0.097,0.16
	c-0.026,0.043-0.047,0.077-0.06,0.099c-0.014,0.022-0.021,0.034-0.021,0.034s-0.007-0.011-0.02-0.034
	c-0.013-0.022-0.033-0.055-0.059-0.098c-0.026-0.043-0.057-0.096-0.094-0.159s-0.08-0.135-0.128-0.215
	c-0.048-0.081-0.101-0.17-0.159-0.267c-0.058-0.097-0.12-0.203-0.187-0.315s-0.138-0.232-0.213-0.359
	c-0.075-0.126-0.154-0.259-0.237-0.398c-0.083-0.139-0.169-0.284-0.258-0.433s-0.181-0.305-0.276-0.464S6.67,22.327,6.57,22.16
	c-0.1-0.168-0.202-0.339-0.306-0.514s-0.21-0.352-0.317-0.532c-0.107-0.18-0.216-0.362-0.325-0.546
	c-0.11-0.184-0.22-0.37-0.331-0.556s-0.223-0.374-0.335-0.562c-0.112-0.188-0.224-0.376-0.336-0.564
	c-0.112-0.188-0.224-0.375-0.334-0.561s-0.221-0.371-0.331-0.554c-0.109-0.183-0.217-0.364-0.324-0.543
	c-0.107-0.179-0.212-0.355-0.315-0.528c-0.103-0.173-0.205-0.343-0.304-0.508c-0.099-0.166-0.196-0.328-0.29-0.485
	c-0.094-0.157-0.185-0.31-0.273-0.457c-0.088-0.147-0.173-0.289-0.254-0.425c-0.081-0.136-0.159-0.265-0.233-0.388
	c-0.074-0.123-0.144-0.239-0.209-0.348c-0.065-0.109-0.126-0.21-0.183-0.303s-0.108-0.178-0.154-0.254
	c-0.046-0.076-0.087-0.143-0.122-0.201c-0.035-0.058-0.065-0.106-0.088-0.144s-0.041-0.065-0.052-0.082"/>
<path fill="none" stroke="#1D1D1B" stroke-miterlimit="10" d="M8.5,1.517c0.249,0,0.493,0.025,0.728,0.073S9.691,1.71,9.907,1.801
	c0.216,0.091,0.422,0.203,0.614,0.333c0.192,0.13,0.371,0.278,0.535,0.441c0.164,0.164,0.311,0.343,0.441,0.535
	s0.242,0.398,0.333,0.614s0.162,0.443,0.211,0.678c0.048,0.235,0.073,0.479,0.073,0.728s-0.025,0.493-0.073,0.728
	c-0.048,0.235-0.119,0.462-0.211,0.678s-0.203,0.422-0.333,0.614s-0.278,0.371-0.441,0.535c-0.164,0.164-0.343,0.311-0.535,0.441
	c-0.192,0.13-0.398,0.242-0.614,0.333S9.464,8.623,9.228,8.672C8.993,8.72,8.749,8.745,8.5,8.745S8.007,8.72,7.772,8.672
	C7.536,8.623,7.309,8.552,7.093,8.461S6.672,8.258,6.479,8.128C6.287,7.998,6.108,7.85,5.945,7.686S5.633,7.344,5.503,7.152
	C5.373,6.959,5.261,6.754,5.17,6.538S5.008,6.095,4.959,5.859C4.911,5.624,4.886,5.38,4.886,5.131s0.025-0.493,0.073-0.728
	C5.008,4.167,5.079,3.94,5.17,3.724S5.373,3.303,5.503,3.11c0.13-0.192,0.278-0.371,0.441-0.535
	c0.164-0.164,0.343-0.311,0.535-0.441c0.192-0.13,0.398-0.242,0.614-0.333C7.309,1.71,7.536,1.639,7.772,1.59
	C8.007,1.542,8.251,1.517,8.5,1.517z"/>
<path fill="none" stroke="#1D1D1B" stroke-linejoin="round" stroke-miterlimit="10" d="M8.5,8.745v0.787v0.787v0.787v0.787v0.787
	v0.787v0.787v0.787v0.787v0.787v0.787v0.787v0.787v0.787v0.787v0.787v0.787v0.787v0.787v0.787v0.787v0.787v0.787v0.787v0.787v0.787
	v0.787v0.787v0.787v0.787v0.787v0.787"/>
</svg>
