<?xml version="1.0" encoding="utf-8"?>
<!-- Generator: Adobe Illustrator 21.0.0, SVG Export Plug-In . SVG Version: 6.00 Build 0)  -->
<svg version="1.1" id="main" xmlns="http://www.w3.org/2000/svg" xmlns:xlink="http://www.w3.org/1999/xlink" x="0px" y="0px"
	 viewBox="0 0 17 35" enable-background="new 0 0 17 35" xml:space="preserve">
<path fill="none" stroke="#1D1D1B" stroke-miterlimit="10" d="M12.4,25.3c0.225,0,0.445,0.023,0.659,0.068
	c0.213,0.045,0.42,0.11,0.616,0.195c0.197,0.084,0.384,0.188,0.56,0.307c0.176,0.12,0.34,0.255,0.49,0.405
	c0.15,0.15,0.286,0.314,0.405,0.49c0.12,0.176,0.223,0.363,0.307,0.56c0.084,0.197,0.15,0.403,0.195,0.616
	c0.045,0.213,0.068,0.434,0.068,0.659s-0.023,0.445-0.068,0.659c-0.045,0.213-0.11,0.42-0.195,0.616
	c-0.084,0.197-0.188,0.384-0.307,0.56c-0.12,0.176-0.255,0.34-0.405,0.49c-0.15,0.15-0.314,0.286-0.49,0.405
	c-0.176,0.12-0.363,0.223-0.56,0.307c-0.197,0.084-0.403,0.15-0.616,0.195C12.845,31.877,12.625,31.9,12.4,31.9
	s-0.445-0.023-0.659-0.068c-0.213-0.045-0.42-0.11-0.616-0.195c-0.197-0.084-0.384-0.188-0.56-0.307
	c-0.176-0.12-0.34-0.255-0.49-0.405c-0.15-0.15-0.286-0.314-0.405-0.49c-0.12-0.176-0.223-0.363-0.307-0.56
	c-0.084-0.197-0.15-0.403-0.195-0.616C9.123,29.045,9.1,28.825,9.1,28.6s0.023-0.445,0.068-0.659c0.045-0.213,0.11-0.42,0.195-0.616
	c0.084-0.197,0.188-0.384,0.307-0.56s0.255-0.34,0.405-0.49s0.314-0.286,0.49-0.405c0.176-0.12,0.363-0.223,0.56-0.307
	c0.197-0.084,0.403-0.15,0.616-0.195C11.955,25.323,12.175,25.3,12.4,25.3z"/>
<path fill="none" stroke="#1D1D1B" stroke-miterlimit="10" d="M0.6,11.7c0.031,0,0.086,0,0.161,0s0.171,0,0.285,0
	c0.114,0,0.246,0,0.392,0s0.309,0,0.483,0s0.361,0,0.557,0c0.196,0,0.402,0,0.614,0s0.431,0,0.654,0c0.223,0,0.45,0,0.678,0
	s0.457,0,0.685,0s0.454,0,0.675,0c0.222,0,0.439,0,0.649,0s0.413,0,0.606,0c0.193,0,0.376,0,0.546,0c0.17,0,0.328,0,0.47,0
	c0.142,0,0.268,0,0.377,0s0.198,0,0.267,0s0.157,0,0.263,0s0.229,0,0.367,0c0.138,0,0.29,0,0.455,0s0.341,0,0.527,0
	c0.186,0,0.381,0,0.583,0s0.411,0,0.624,0s0.43,0,0.648,0s0.438,0,0.657,0s0.436,0,0.65,0c0.214,0,0.424,0,0.627,0
	c0.204,0,0.401,0,0.589,0s0.367,0,0.534,0s0.323,0,0.464,0s0.268,0,0.378,0s0.203,0,0.276,0c0.073,0,0.127,0,0.158,0"/>
<path fill="none" stroke="#1D1D1B" stroke-miterlimit="10" d="M0.6,28.6c0.025,0,0.102,0,0.218,0s0.272,0,0.456,0s0.395,0,0.622,0
	s0.47,0,0.717,0s0.498,0,0.74,0s0.478,0,0.692,0c0.215,0,0.41,0,0.573,0s0.294,0,0.382,0s0.213,0,0.365,0c0.153,0,0.333,0,0.53,0
	s0.413,0,0.636,0c0.223,0,0.453,0,0.681,0s0.454,0,0.667,0c0.213,0,0.415,0,0.594,0s0.336,0,0.46,0c0.124,0,0.217,0,0.267,0"/>
<path fill="none" stroke="#1D1D1B" stroke-miterlimit="10" d="M0.6,20.1c0.031,0,0.086,0,0.161,0s0.171,0,0.285,0
	c0.114,0,0.246,0,0.392,0s0.309,0,0.483,0s0.361,0,0.557,0c0.196,0,0.402,0,0.614,0s0.431,0,0.654,0c0.223,0,0.45,0,0.678,0
	s0.457,0,0.685,0s0.454,0,0.675,0c0.222,0,0.439,0,0.649,0s0.413,0,0.606,0c0.193,0,0.376,0,0.546,0c0.17,0,0.328,0,0.47,0
	c0.142,0,0.268,0,0.377,0s0.198,0,0.267,0s0.157,0,0.262,0c0.105,0,0.227,0,0.364,0c0.137,0,0.288,0,0.451,0
	c0.163,0,0.338,0,0.522,0c0.184,0,0.377,0,0.577,0c0.2,0,0.407,0,0.618,0c0.211,0,0.426,0,0.642,0c0.217,0,0.435,0,0.652,0
	c0.217,0,0.433,0,0.646,0c0.213,0,0.422,0,0.625,0c0.203,0,0.4,0,0.588,0c0.188,0,0.368,0,0.536,0c0.168,0,0.325,0,0.469,0
	c0.143,0,0.273,0,0.386,0c0.113,0,0.21,0,0.288,0c0.078,0,0.137,0,0.174,0"/>
<path fill="none" stroke="#1D1D1B" stroke-miterlimit="10" d="M0.6,3.2c0.031,0,0.086,0,0.161,0s0.171,0,0.285,0
	c0.114,0,0.246,0,0.392,0s0.309,0,0.483,0s0.361,0,0.557,0c0.196,0,0.402,0,0.614,0s0.431,0,0.654,0c0.223,0,0.45,0,0.678,0
	s0.457,0,0.685,0s0.454,0,0.675,0c0.222,0,0.439,0,0.649,0s0.413,0,0.606,0c0.193,0,0.376,0,0.546,0c0.17,0,0.328,0,0.47,0
	c0.142,0,0.268,0,0.377,0s0.198,0,0.267,0s0.157,0,0.262,0c0.105,0,0.227,0,0.364,0c0.137,0,0.288,0,0.451,0
	c0.163,0,0.338,0,0.522,0c0.184,0,0.377,0,0.577,0c0.2,0,0.407,0,0.618,0c0.211,0,0.426,0,0.642,0c0.217,0,0.435,0,0.652,0
	c0.217,0,0.433,0,0.646,0c0.213,0,0.422,0,0.625,0c0.203,0,0.4,0,0.588,0c0.188,0,0.368,0,0.536,0c0.168,0,0.325,0,0.469,0
	c0.143,0,0.273,0,0.386,0c0.113,0,0.21,0,0.288,0c0.078,0,0.137,0,0.174,0"/>
</svg>
