<?xml version="1.0" encoding="utf-8"?>
<!-- Generator: Adobe Illustrator 21.0.0, SVG Export Plug-In . SVG Version: 6.00 Build 0)  -->
<svg version="1.1" id="main" xmlns="http://www.w3.org/2000/svg" xmlns:xlink="http://www.w3.org/1999/xlink" x="0px" y="0px"
	 viewBox="0 0 17 35" enable-background="new 0 0 17 35" xml:space="preserve">
<path fill="none" stroke="#1D1D1B" stroke-miterlimit="10" d="M8.5,3.2c0.238,0,0.47,0.022,0.696,0.064S9.64,3.367,9.848,3.447
	c0.209,0.08,0.407,0.177,0.594,0.291c0.187,0.114,0.361,0.243,0.52,0.387c0.159,0.144,0.304,0.302,0.431,0.471
	s0.237,0.352,0.327,0.544s0.16,0.395,0.207,0.605C11.975,5.956,12,6.175,12,6.4s-0.025,0.444-0.072,0.654
	C11.88,7.265,11.81,7.467,11.72,7.659c-0.09,0.192-0.2,0.374-0.327,0.544s-0.272,0.328-0.431,0.471
	c-0.159,0.144-0.334,0.273-0.52,0.387c-0.187,0.114-0.385,0.211-0.594,0.291C9.64,9.433,9.421,9.495,9.196,9.536S8.738,9.6,8.5,9.6
	S8.03,9.578,7.804,9.536C7.579,9.495,7.36,9.433,7.152,9.353c-0.209-0.08-0.407-0.177-0.594-0.291
	c-0.187-0.114-0.361-0.243-0.52-0.387C5.878,8.531,5.734,8.373,5.606,8.204C5.479,8.034,5.37,7.852,5.28,7.659
	C5.19,7.467,5.12,7.265,5.072,7.054C5.025,6.844,5,6.625,5,6.4s0.025-0.444,0.072-0.654C5.12,5.535,5.19,5.333,5.28,5.141
	c0.09-0.192,0.2-0.374,0.327-0.544s0.272-0.328,0.431-0.471c0.159-0.144,0.334-0.273,0.52-0.387
	c0.187-0.114,0.385-0.211,0.594-0.291c0.209-0.08,0.427-0.141,0.653-0.183C8.03,3.222,8.262,3.2,8.5,3.2z"/>
<path fill="none" stroke="#1D1D1B" stroke-miterlimit="10" d="M1,32.4c0.038-0.044,0.096-0.114,0.174-0.208s0.175-0.211,0.288-0.348
	c0.113-0.137,0.242-0.295,0.386-0.469s0.3-0.366,0.468-0.572c0.168-0.205,0.347-0.425,0.535-0.655
	c0.188-0.23,0.384-0.471,0.586-0.719c0.202-0.248,0.41-0.504,0.622-0.764c0.211-0.26,0.426-0.525,0.642-0.79
	c0.216-0.266,0.432-0.532,0.647-0.797c0.215-0.265,0.427-0.528,0.636-0.785c0.208-0.258,0.412-0.51,0.609-0.754
	c0.197-0.244,0.387-0.48,0.568-0.704c0.18-0.224,0.351-0.437,0.51-0.635s0.305-0.381,0.437-0.547
	c0.132-0.165,0.249-0.313,0.349-0.44c0.1-0.127,0.182-0.232,0.245-0.313s0.144-0.185,0.242-0.309
	c0.098-0.124,0.213-0.267,0.342-0.427c0.129-0.16,0.272-0.337,0.427-0.528s0.321-0.396,0.496-0.611
	c0.175-0.216,0.36-0.442,0.551-0.677c0.191-0.235,0.389-0.477,0.59-0.725s0.407-0.5,0.615-0.755
	c0.207-0.255,0.416-0.512,0.624-0.768c0.208-0.256,0.415-0.512,0.618-0.763c0.203-0.252,0.403-0.5,0.597-0.741
	c0.194-0.241,0.382-0.476,0.561-0.701c0.179-0.225,0.35-0.441,0.51-0.644c0.16-0.203,0.308-0.394,0.444-0.569
	c0.135-0.175,0.257-0.335,0.362-0.476c0.106-0.141,0.195-0.264,0.266-0.366s0.123-0.182,0.155-0.238"/>
<path fill="none" stroke="#1D1D1B" stroke-miterlimit="10" d="M1,13.8c0.038,0.044,0.095,0.113,0.171,0.203s0.169,0.204,0.278,0.336
	s0.233,0.283,0.371,0.451c0.137,0.167,0.288,0.351,0.449,0.548c0.161,0.197,0.332,0.407,0.512,0.628s0.367,0.451,0.561,0.69
	s0.392,0.484,0.595,0.734c0.202,0.25,0.408,0.505,0.614,0.761c0.206,0.256,0.413,0.514,0.619,0.771
	c0.205,0.256,0.409,0.512,0.609,0.762c0.2,0.251,0.395,0.497,0.584,0.737s0.371,0.471,0.545,0.693
	c0.173,0.222,0.338,0.434,0.491,0.632c0.153,0.199,0.295,0.384,0.422,0.554c0.128,0.17,0.242,0.323,0.339,0.458
	c0.098,0.135,0.179,0.25,0.241,0.344c0.063,0.087,0.145,0.198,0.245,0.33c0.1,0.131,0.217,0.283,0.349,0.452
	c0.132,0.169,0.278,0.355,0.437,0.555c0.159,0.2,0.33,0.415,0.51,0.64c0.18,0.225,0.371,0.462,0.568,0.706s0.401,0.497,0.609,0.754
	c0.208,0.257,0.421,0.519,0.636,0.783c0.215,0.264,0.431,0.529,0.647,0.793c0.216,0.264,0.43,0.527,0.642,0.785
	c0.211,0.258,0.42,0.512,0.622,0.758s0.398,0.485,0.586,0.713c0.188,0.228,0.367,0.445,0.535,0.649s0.325,0.393,0.468,0.566
	c0.143,0.173,0.273,0.329,0.386,0.465c0.113,0.136,0.21,0.252,0.288,0.345c0.078,0.093,0.137,0.163,0.174,0.207"/>
</svg>
