<?xml version="1.0" encoding="utf-8"?>
<!-- Generator: Adobe Illustrator 21.0.0, SVG Export Plug-In . SVG Version: 6.00 Build 0)  -->
<svg version="1.1" id="main" xmlns="http://www.w3.org/2000/svg" xmlns:xlink="http://www.w3.org/1999/xlink" x="0px" y="0px"
	 viewBox="0 0 17 35" enable-background="new 0 0 17 35" xml:space="preserve">
<path fill="none" stroke="#1D1D1B" stroke-linejoin="bevel" stroke-miterlimit="10" d="M10.271,20.836
	c0.003-0.025,0.008-0.061,0.014-0.106c0.006-0.045,0.013-0.099,0.021-0.161c0.008-0.063,0.017-0.134,0.027-0.213
	s0.021-0.166,0.033-0.261c0.012-0.095,0.025-0.196,0.039-0.305c0.014-0.109,0.029-0.224,0.044-0.345
	c0.016-0.121,0.032-0.249,0.049-0.381c0.017-0.133,0.035-0.271,0.053-0.414s0.037-0.29,0.057-0.442
	c0.019-0.152,0.039-0.307,0.06-0.467c0.02-0.159,0.041-0.322,0.063-0.487c0.021-0.165,0.043-0.334,0.065-0.504
	c0.022-0.17,0.044-0.343,0.066-0.517c0.022-0.174,0.045-0.35,0.068-0.526c0.023-0.176,0.045-0.354,0.068-0.531
	s0.046-0.355,0.068-0.533c0.022-0.168,0.043-0.335,0.065-0.502s0.043-0.332,0.064-0.496c0.021-0.164,0.042-0.327,0.063-0.487
	c0.021-0.161,0.041-0.319,0.061-0.475c0.02-0.156,0.04-0.309,0.059-0.459c0.019-0.15,0.039-0.297,0.057-0.441
	c0.019-0.143,0.037-0.283,0.054-0.419c0.018-0.136,0.035-0.267,0.051-0.393c0.017-0.127,0.033-0.248,0.048-0.365
	s0.03-0.228,0.044-0.333c0.014-0.105,0.027-0.205,0.039-0.298c0.012-0.093,0.024-0.18,0.035-0.259s0.021-0.152,0.029-0.218
	c0.009-0.065,0.017-0.123,0.024-0.173s0.013-0.091,0.018-0.124s0.009-0.057,0.011-0.073"/>
<path fill="none" stroke="#1D1D1B" stroke-linejoin="bevel" stroke-miterlimit="10" d="M10.271,20.836
	c-0.002,0.013-0.005,0.038-0.009,0.075c-0.004,0.036-0.01,0.084-0.016,0.142c-0.007,0.058-0.014,0.127-0.023,0.205
	c-0.009,0.078-0.019,0.167-0.03,0.264c-0.011,0.097-0.023,0.203-0.036,0.318s-0.027,0.237-0.041,0.367
	c-0.015,0.13-0.03,0.268-0.046,0.412c-0.016,0.144-0.033,0.295-0.051,0.452s-0.036,0.319-0.055,0.487
	c-0.019,0.168-0.039,0.341-0.059,0.518c-0.02,0.177-0.041,0.359-0.062,0.545c-0.021,0.185-0.043,0.374-0.065,0.566
	c-0.022,0.192-0.045,0.387-0.068,0.584c-0.023,0.197-0.046,0.396-0.07,0.596c-0.023,0.2-0.047,0.402-0.071,0.604
	s-0.048,0.405-0.072,0.608s-0.048,0.405-0.073,0.606c-0.024,0.201-0.049,0.402-0.073,0.601c-0.024,0.199-0.049,0.396-0.073,0.59
	c-0.024,0.195-0.048,0.387-0.072,0.575c-0.024,0.189-0.047,0.374-0.071,0.556c-0.023,0.181-0.046,0.359-0.069,0.532
	C9.044,31.211,9.022,31.379,9,31.541c-0.022,0.162-0.044,0.319-0.065,0.47c-0.021,0.151-0.042,0.295-0.062,0.432
	c-0.02,0.137-0.04,0.267-0.058,0.389c-0.019,0.122-0.037,0.237-0.055,0.342c-0.017,0.106-0.034,0.203-0.05,0.291
	S8.679,33.631,8.665,33.7c-0.014,0.068-0.028,0.126-0.04,0.174C8.612,33.921,8.6,33.957,8.59,33.982s-0.02,0.038-0.029,0.038
	s-0.019-0.023-0.033-0.068c-0.013-0.046-0.029-0.114-0.047-0.203c-0.018-0.089-0.038-0.199-0.06-0.328s-0.046-0.278-0.072-0.445
	s-0.054-0.352-0.083-0.553c-0.029-0.201-0.061-0.419-0.093-0.652c-0.033-0.233-0.067-0.481-0.102-0.742s-0.072-0.536-0.11-0.823
	c-0.038-0.287-0.077-0.586-0.118-0.896c-0.04-0.31-0.082-0.63-0.124-0.959c-0.042-0.329-0.085-0.668-0.129-1.014
	c-0.044-0.346-0.088-0.7-0.133-1.06c-0.045-0.36-0.091-0.726-0.137-1.097c-0.046-0.371-0.092-0.746-0.139-1.125
	c-0.047-0.379-0.093-0.76-0.14-1.144c-0.047-0.383-0.094-0.769-0.141-1.154c-0.047-0.385-0.094-0.771-0.14-1.156
	s-0.093-0.768-0.138-1.148s-0.091-0.758-0.136-1.132c-0.045-0.374-0.089-0.743-0.132-1.107c-0.043-0.364-0.086-0.722-0.128-1.073
	c-0.042-0.351-0.083-0.695-0.122-1.03c-0.04-0.335-0.078-0.661-0.116-0.978c-0.037-0.316-0.074-0.623-0.108-0.917
	c-0.035-0.295-0.068-0.578-0.1-0.848c-0.032-0.27-0.062-0.527-0.09-0.769c-0.028-0.242-0.055-0.47-0.08-0.682
	c-0.025-0.212-0.048-0.408-0.069-0.586c-0.021-0.178-0.04-0.339-0.056-0.481C5.468,9.711,5.453,9.588,5.441,9.486
	S5.42,9.302,5.412,9.242c-0.007-0.06-0.012-0.098-0.013-0.113"/>
<path fill="none" stroke="#1D1D1B" stroke-miterlimit="10" d="M8.665,33.658c0.016-0.033,0.043-0.088,0.078-0.163
	c0.036-0.074,0.081-0.168,0.134-0.279c0.053-0.11,0.114-0.237,0.182-0.378c0.068-0.141,0.143-0.296,0.223-0.462
	c0.08-0.166,0.166-0.344,0.255-0.529c0.09-0.186,0.183-0.381,0.28-0.581c0.097-0.2,0.196-0.407,0.297-0.616
	c0.101-0.21,0.204-0.422,0.306-0.636s0.206-0.427,0.308-0.639c0.102-0.212,0.203-0.421,0.302-0.626
	c0.099-0.205,0.195-0.405,0.288-0.597c0.093-0.192,0.182-0.377,0.266-0.552c0.084-0.175,0.164-0.339,0.237-0.491
	c0.073-0.152,0.14-0.291,0.2-0.414c0.06-0.123,0.112-0.231,0.155-0.321c0.043-0.09,0.078-0.161,0.102-0.211s0.059-0.123,0.104-0.214
	c0.044-0.091,0.098-0.201,0.159-0.328s0.131-0.269,0.206-0.425s0.158-0.325,0.245-0.505c0.087-0.18,0.18-0.37,0.276-0.569
	c0.096-0.198,0.196-0.404,0.298-0.615s0.207-0.427,0.313-0.645s0.212-0.438,0.319-0.658c0.106-0.22,0.212-0.438,0.316-0.654
	c0.104-0.215,0.206-0.427,0.306-0.633c0.099-0.206,0.195-0.405,0.287-0.595s0.179-0.371,0.26-0.54
	c0.081-0.169,0.156-0.326,0.225-0.469c0.068-0.143,0.129-0.27,0.181-0.381c0.052-0.11,0.096-0.203,0.129-0.275
	c0.034-0.072,0.057-0.124,0.069-0.153"/>
<path fill="none" stroke="#1D1D1B" stroke-miterlimit="10" d="M8.443,33.658c-0.023-0.049-0.056-0.117-0.096-0.202
	c-0.041-0.085-0.089-0.187-0.145-0.304s-0.119-0.249-0.187-0.393c-0.069-0.144-0.143-0.3-0.222-0.467
	c-0.079-0.166-0.163-0.343-0.251-0.526s-0.179-0.375-0.273-0.572s-0.19-0.398-0.287-0.603c-0.097-0.204-0.196-0.412-0.295-0.619
	c-0.099-0.208-0.198-0.416-0.296-0.622s-0.196-0.41-0.291-0.61S5.91,28.346,5.82,28.158c-0.09-0.188-0.177-0.37-0.259-0.543
	s-0.16-0.336-0.233-0.488s-0.14-0.292-0.2-0.418c-0.06-0.126-0.114-0.239-0.16-0.335s-0.084-0.176-0.114-0.237
	s-0.068-0.141-0.114-0.238s-0.101-0.211-0.163-0.339c-0.062-0.128-0.13-0.271-0.204-0.425C4.3,24.98,4.22,24.814,4.136,24.638
	s-0.173-0.361-0.265-0.553c-0.092-0.192-0.187-0.391-0.285-0.594c-0.097-0.203-0.197-0.411-0.297-0.621s-0.202-0.422-0.303-0.633
	c-0.101-0.211-0.202-0.423-0.302-0.631c-0.099-0.208-0.197-0.413-0.293-0.613c-0.095-0.2-0.188-0.394-0.277-0.581
	c-0.089-0.187-0.174-0.366-0.254-0.534c-0.08-0.169-0.155-0.327-0.224-0.473c-0.069-0.146-0.132-0.279-0.187-0.396
	c-0.055-0.118-0.103-0.22-0.143-0.305s-0.07-0.152-0.092-0.199"/>
<path fill="none" stroke="#1D1D1B" stroke-miterlimit="10" d="M4.828,1.81c0.249,0,0.493,0.025,0.728,0.073
	c0.235,0.048,0.462,0.119,0.678,0.211c0.216,0.091,0.422,0.203,0.614,0.333c0.192,0.13,0.371,0.278,0.535,0.441
	c0.164,0.164,0.311,0.343,0.441,0.535c0.13,0.192,0.242,0.398,0.333,0.614C8.249,4.233,8.32,4.46,8.369,4.696
	c0.048,0.235,0.073,0.479,0.073,0.728S8.417,5.917,8.369,6.152C8.32,6.388,8.249,6.615,8.158,6.831S7.955,7.252,7.825,7.445
	c-0.13,0.192-0.278,0.371-0.441,0.535S7.041,8.291,6.849,8.421c-0.192,0.13-0.398,0.242-0.614,0.333S5.792,8.916,5.556,8.965
	C5.321,9.013,5.077,9.038,4.828,9.038S4.335,9.013,4.1,8.965C3.864,8.916,3.637,8.845,3.421,8.754S3,8.551,2.807,8.421
	S2.436,8.143,2.273,7.979C2.109,7.816,1.961,7.637,1.831,7.445c-0.13-0.192-0.242-0.398-0.333-0.614
	C1.407,6.615,1.336,6.388,1.287,6.152C1.239,5.917,1.214,5.673,1.214,5.424s0.025-0.493,0.073-0.728
	C1.336,4.46,1.407,4.233,1.498,4.017c0.091-0.216,0.203-0.422,0.333-0.614s0.278-0.371,0.441-0.535
	c0.164-0.164,0.343-0.311,0.535-0.441s0.398-0.242,0.614-0.333C3.637,2.003,3.864,1.932,4.1,1.883
	C4.335,1.835,4.579,1.81,4.828,1.81z"/>
</svg>
