<?xml version="1.0" encoding="utf-8"?>
<!-- Generator: Adobe Illustrator 21.0.0, SVG Export Plug-In . SVG Version: 6.00 Build 0)  -->
<svg version="1.1" id="main" xmlns="http://www.w3.org/2000/svg" xmlns:xlink="http://www.w3.org/1999/xlink" x="0px" y="0px"
	 viewBox="0 0 17 35" enable-background="new 0 0 17 35" xml:space="preserve">
<path fill="none" stroke="#1D1D1B" stroke-miterlimit="10" d="M12.5,14.1c0.238,0,0.47,0.025,0.696,0.072
	c0.226,0.047,0.444,0.117,0.653,0.207s0.407,0.2,0.594,0.327s0.361,0.272,0.52,0.431s0.304,0.334,0.431,0.52
	s0.237,0.385,0.327,0.594c0.09,0.209,0.16,0.427,0.207,0.653C15.975,17.13,16,17.363,16,17.6s-0.025,0.47-0.072,0.696
	c-0.047,0.226-0.117,0.444-0.207,0.653c-0.09,0.209-0.2,0.407-0.327,0.594s-0.272,0.361-0.431,0.52
	c-0.159,0.159-0.334,0.304-0.52,0.431s-0.385,0.237-0.594,0.327s-0.427,0.16-0.653,0.207C12.97,21.075,12.738,21.1,12.5,21.1
	s-0.47-0.025-0.696-0.072c-0.226-0.047-0.444-0.117-0.653-0.207s-0.407-0.2-0.594-0.327s-0.361-0.272-0.52-0.431
	c-0.159-0.159-0.304-0.334-0.431-0.52S9.37,19.157,9.28,18.948c-0.09-0.209-0.16-0.427-0.207-0.653C9.025,18.07,9,17.837,9,17.6
	s0.025-0.47,0.072-0.696C9.12,16.679,9.19,16.46,9.28,16.252c0.09-0.209,0.2-0.407,0.327-0.594s0.272-0.361,0.431-0.52
	s0.334-0.304,0.52-0.431s0.385-0.237,0.594-0.327s0.427-0.16,0.653-0.207C12.03,14.125,12.262,14.1,12.5,14.1z"/>
<path fill="none" stroke="#1D1D1B" stroke-miterlimit="10" d="M11.7,28.5c-0.181,0.212-0.367,0.42-0.557,0.622
	s-0.384,0.399-0.582,0.59s-0.4,0.377-0.607,0.558s-0.417,0.355-0.631,0.524c-0.214,0.169-0.433,0.332-0.655,0.488
	c-0.222,0.157-0.449,0.308-0.679,0.452c-0.23,0.145-0.464,0.283-0.702,0.415s-0.479,0.257-0.725,0.376
	c-0.245,0.119-0.494,0.231-0.747,0.336s-0.509,0.204-0.769,0.295c-0.26,0.091-0.523,0.176-0.79,0.253s-0.537,0.147-0.811,0.21
	s-0.551,0.118-0.832,0.165c-0.281,0.047-0.565,0.087-0.852,0.119s-0.578,0.056-0.871,0.072S0.3,34,0,34"/>
<path fill="none" stroke="#1D1D1B" stroke-miterlimit="10" d="M0,2c0.3,0,0.598,0.008,0.894,0.024s0.59,0.04,0.881,0.072
	s0.58,0.072,0.867,0.119c0.286,0.047,0.57,0.103,0.851,0.165s0.559,0.132,0.834,0.21c0.275,0.077,0.547,0.162,0.816,0.253
	c0.269,0.091,0.534,0.19,0.796,0.295c0.262,0.105,0.52,0.217,0.775,0.336c0.255,0.119,0.506,0.244,0.753,0.376
	c0.247,0.132,0.49,0.27,0.729,0.415C8.433,4.41,8.668,4.561,8.899,4.718c0.23,0.157,0.457,0.32,0.678,0.488
	c0.221,0.169,0.438,0.343,0.65,0.524c0.212,0.18,0.419,0.366,0.622,0.558c0.202,0.191,0.399,0.388,0.591,0.59S11.819,7.287,12,7.5"
	/>
<path fill="none" stroke="#1D1D1B" stroke-miterlimit="10" d="M12.3,28.8l-0.681-0.681l-0.681-0.681l-0.681-0.681l-0.681-0.681
	l-0.681-0.681l-0.681-0.681l-0.681-0.681L6.85,23.35l-0.681-0.681l-0.681-0.681l-0.681-0.681l-0.681-0.681l-0.681-0.681
	l-0.681-0.681l-0.681-0.681L1.4,17.9l0.687-0.688l0.688-0.688l0.688-0.688L4.15,15.15l0.688-0.688l0.687-0.688l0.688-0.688L6.9,12.4
	l0.688-0.688l0.688-0.688l0.688-0.688L9.65,9.65l0.688-0.688l0.688-0.688l0.688-0.688L12.4,6.9"/>
<path fill="none" stroke="#1D1D1B" stroke-miterlimit="10" d="M3.251,5.75c0.237,0,0.466,0.05,0.674,0.14s0.398,0.22,0.557,0.379
	c0.159,0.159,0.289,0.348,0.379,0.557s0.14,0.437,0.14,0.674s-0.05,0.466-0.14,0.674c-0.09,0.209-0.22,0.398-0.379,0.557
	C4.323,8.891,4.134,9.02,3.926,9.11S3.489,9.25,3.251,9.25S2.786,9.2,2.577,9.11C2.369,9.02,2.179,8.891,2.02,8.731
	C1.861,8.572,1.731,8.383,1.641,8.174c-0.09-0.209-0.14-0.437-0.14-0.674s0.05-0.466,0.14-0.674s0.22-0.398,0.379-0.557
	C2.179,6.109,2.369,5.98,2.577,5.89C2.786,5.8,3.014,5.75,3.251,5.75z"/>
</svg>
