<?xml version="1.0" encoding="utf-8"?>
<!-- Generator: Adobe Illustrator 21.0.0, SVG Export Plug-In . SVG Version: 6.00 Build 0)  -->
<svg version="1.1" id="main" xmlns="http://www.w3.org/2000/svg" xmlns:xlink="http://www.w3.org/1999/xlink" x="0px" y="0px"
	 viewBox="0 0 17 35" enable-background="new 0 0 17 35" xml:space="preserve">
<path fill="none" stroke="#1D1D1B" stroke-miterlimit="10" d="M5.998,17.091v1.062v1.062v1.062v1.062v1.062v1.062v1.062v1.062v1.062
	v1.062v1.062v1.062v1.062v1.062v1.062v1.062"/>
<path fill="none" stroke="#1D1D1B" stroke-miterlimit="10" d="M8.476,6c0.081-0.114,0.172-0.221,0.272-0.321s0.208-0.19,0.325-0.274
	c0.116-0.083,0.24-0.158,0.369-0.225c0.13-0.067,0.266-0.125,0.406-0.174s0.286-0.09,0.435-0.121
	c0.149-0.031,0.301-0.053,0.455-0.066c0.154-0.013,0.311-0.016,0.468-0.009c0.157,0.007,0.315,0.023,0.472,0.05
	s0.314,0.063,0.469,0.11c0.155,0.047,0.307,0.105,0.457,0.173s0.296,0.148,0.437,0.238s0.278,0.192,0.409,0.305
	c0.131,0.113,0.256,0.237,0.373,0.374c0.117,0.136,0.227,0.284,0.329,0.444c0.101,0.16,0.194,0.332,0.277,0.517
	c0.083,0.185,0.155,0.382,0.216,0.592c0.128,0.438,0.206,0.851,0.239,1.242s0.022,0.761-0.029,1.111s-0.142,0.68-0.267,0.993
	c-0.125,0.313-0.285,0.608-0.474,0.888c-0.189,0.28-0.407,0.545-0.65,0.797c-0.243,0.252-0.509,0.491-0.795,0.719
	s-0.591,0.445-0.91,0.654c-0.319,0.209-0.652,0.408-0.994,0.602c-0.342,0.193-0.693,0.381-1.047,0.564
	c-0.354,0.183-0.713,0.362-1.07,0.538s-0.712,0.352-1.061,0.527c-0.349,0.175-0.692,0.35-1.022,0.528
	c-0.331,0.178-0.65,0.358-0.953,0.543c-0.303,0.185-0.589,0.374-0.853,0.571c-0.264,0.196-0.506,0.4-0.722,0.612
	c-0.215,0.212-0.404,0.434-0.56,0.667c-0.149,0.221-0.288,0.473-0.418,0.751s-0.252,0.582-0.365,0.907
	c-0.113,0.325-0.218,0.671-0.315,1.034c-0.097,0.363-0.187,0.742-0.269,1.133c-0.083,0.391-0.158,0.794-0.227,1.204
	c-0.069,0.41-0.132,0.827-0.188,1.247s-0.108,0.842-0.153,1.262c-0.046,0.42-0.086,0.838-0.122,1.248s-0.067,0.815-0.094,1.207
	c-0.027,0.392-0.05,0.773-0.07,1.137s-0.036,0.712-0.049,1.04c-0.013,0.327-0.024,0.633-0.032,0.914
	c-0.008,0.28-0.014,0.535-0.019,0.76c-0.004,0.224-0.007,0.418-0.009,0.577c-0.002,0.159-0.002,0.283-0.003,0.367
	c0,0.084,0,0.129,0,0.129"/>
<path fill="none" stroke="#1D1D1B" stroke-miterlimit="10" d="M14.788,0.916c0.193,0,0.377,0.039,0.545,0.11
	c0.167,0.071,0.318,0.173,0.445,0.3c0.127,0.127,0.229,0.277,0.3,0.445c0.071,0.167,0.11,0.351,0.11,0.545s-0.039,0.377-0.11,0.545
	c-0.071,0.167-0.173,0.318-0.3,0.445c-0.127,0.127-0.277,0.229-0.445,0.3c-0.167,0.071-0.351,0.11-0.545,0.11
	s-0.377-0.039-0.545-0.11c-0.167-0.071-0.318-0.173-0.445-0.3c-0.127-0.127-0.229-0.277-0.3-0.445s-0.11-0.351-0.11-0.545
	s0.039-0.377,0.11-0.545s0.173-0.318,0.3-0.445c0.127-0.127,0.277-0.229,0.445-0.3C14.411,0.955,14.595,0.916,14.788,0.916z"/>
<path fill="none" stroke="#1D1D1B" stroke-miterlimit="10" d="M5.998,4.808c0.499,0,0.974,0.101,1.407,0.284S8.226,5.54,8.553,5.867
	C8.88,6.194,9.145,6.583,9.328,7.015s0.284,0.908,0.284,1.407S9.511,9.396,9.328,9.829S8.88,10.65,8.553,10.977
	c-0.327,0.327-0.716,0.592-1.149,0.775s-0.908,0.284-1.407,0.284s-0.974-0.101-1.407-0.284s-0.822-0.448-1.149-0.775
	c-0.327-0.327-0.592-0.716-0.775-1.149C2.485,9.396,2.384,8.921,2.384,8.422s0.101-0.974,0.284-1.407
	c0.183-0.432,0.448-0.822,0.775-1.149C3.77,5.54,4.159,5.275,4.591,5.092S5.499,4.808,5.998,4.808z"/>
</svg>
