<?xml version="1.0" encoding="utf-8"?>
<!-- Generator: Adobe Illustrator 21.0.0, SVG Export Plug-In . SVG Version: 6.00 Build 0)  -->
<svg version="1.1" id="main" xmlns="http://www.w3.org/2000/svg" xmlns:xlink="http://www.w3.org/1999/xlink" x="0px" y="0px"
	 viewBox="0 0 17 35" enable-background="new 0 0 17 35" xml:space="preserve">
<path fill="none" stroke="#1D1D1B" stroke-miterlimit="10" d="M8.5,31.666v-1.159v-1.159v-1.159V27.03V25.87v-1.159v-1.159v-1.159
	v-1.159v-1.159v-1.159v-1.159v-1.159v-1.159v-1.159V13.12"/>
<path fill="none" stroke="#1D1D1B" stroke-miterlimit="10" d="M0.229,33.847h1.034h1.034h1.034h1.034h1.034h1.034h1.034H8.5h1.034
	h1.034h1.034h1.034h1.034h1.034h1.034h1.034"/>
<path fill="none" stroke="#1D1D1B" stroke-miterlimit="10" d="M16.025,27.184l-0.472-0.913l-0.472-0.913l-0.472-0.913l-0.472-0.913
	l-0.472-0.913l-0.472-0.913l-0.472-0.913l-0.472-0.913l-0.472-0.913l-0.472-0.913l-0.472-0.913l-0.472-0.913l-0.472-0.913
	l-0.472-0.913l-0.472-0.913L8.48,12.572l0,0l0,0l0,0l0,0l0,0l0,0l0,0l0,0l0,0l0,0l0,0l0,0l0,0l0,0l0,0l0,0l-0.469,0.913
	l-0.469,0.913l-0.469,0.913l-0.469,0.913l-0.469,0.913l-0.469,0.913l-0.469,0.913l-0.469,0.913l-0.469,0.913l-0.469,0.913
	l-0.469,0.913L2.85,23.531l-0.469,0.913l-0.469,0.913l-0.469,0.913l-0.469,0.913"/>
<path fill="none" stroke="#1D1D1B" stroke-miterlimit="10" d="M8.499,1.625c0.249,0,0.493,0.025,0.728,0.073
	C9.463,1.747,9.69,1.818,9.906,1.909s0.422,0.203,0.614,0.333c0.192,0.13,0.371,0.278,0.535,0.441
	c0.164,0.164,0.311,0.343,0.441,0.535s0.242,0.398,0.333,0.614c0.091,0.216,0.162,0.443,0.211,0.678
	c0.048,0.235,0.073,0.479,0.073,0.728s-0.025,0.493-0.073,0.728c-0.048,0.235-0.119,0.462-0.211,0.678s-0.203,0.422-0.333,0.614
	s-0.278,0.371-0.441,0.535c-0.164,0.164-0.343,0.311-0.535,0.441c-0.192,0.13-0.398,0.242-0.614,0.333S9.463,8.731,9.227,8.78
	C8.992,8.828,8.748,8.853,8.499,8.853S8.006,8.828,7.771,8.78C7.535,8.731,7.308,8.66,7.092,8.569S6.671,8.366,6.478,8.236
	c-0.192-0.13-0.371-0.278-0.535-0.441S5.632,7.452,5.502,7.26C5.372,7.067,5.26,6.862,5.169,6.646S5.007,6.203,4.958,5.967
	C4.91,5.732,4.885,5.488,4.885,5.239S4.91,4.746,4.958,4.511c0.048-0.235,0.119-0.462,0.211-0.678
	C5.26,3.616,5.372,3.411,5.502,3.218c0.13-0.192,0.278-0.371,0.441-0.535C6.107,2.52,6.286,2.372,6.478,2.242
	C6.671,2.112,6.876,2,7.092,1.909s0.443-0.162,0.678-0.211S8.25,1.625,8.499,1.625z"/>
</svg>
