<?xml version="1.0" encoding="utf-8"?>
<!-- Generator: Adobe Illustrator 21.0.0, SVG Export Plug-In . SVG Version: 6.00 Build 0)  -->
<svg version="1.1" id="main" xmlns="http://www.w3.org/2000/svg" xmlns:xlink="http://www.w3.org/1999/xlink" x="0px" y="0px"
	 viewBox="0 0 17 35" enable-background="new 0 0 17 35" xml:space="preserve">
<path fill="none" stroke="#1D1D1B" stroke-linejoin="round" stroke-miterlimit="10" d="M2.771,1.667V2.25v0.583v0.583v0.583v0.583
	v0.583v0.583v0.583v0.583v0.583v0.583v0.583v0.583v0.583v0.583v0.583l0.635,0.489l0.635,0.489l0.635,0.489l0.635,0.489l0.635,0.489
	l0.635,0.489l0.635,0.489l0.635,0.489l0.635,0.489l0.635,0.489l0.635,0.489l0.635,0.489l0.635,0.489l0.635,0.489l0.635,0.489
	l0.635,0.489l-0.028,0.027l-0.029,0.027l-0.028,0.027l-0.029,0.027l-0.028,0.027l-0.029,0.027l-0.028,0.027l-0.029,0.027
	l-0.028,0.027l-0.028,0.027l-0.029,0.027l-0.028,0.027l-0.029,0.027l-0.028,0.027l-0.029,0.027l-0.028,0.027h-0.265h-0.265h-0.265
	h-0.265h-0.265H10.89h-0.265h-0.265h-0.265H9.829H9.564H9.298H9.033H8.768H8.502H8.237L8.208,19.28l-0.029,0.028L8.15,19.336
	l-0.029,0.028l-0.029,0.028l-0.029,0.028l-0.029,0.028l-0.029,0.028l-0.029,0.028l-0.029,0.028l-0.029,0.028L7.888,19.59
	l-0.029,0.028l-0.029,0.028L7.8,19.674l-0.029,0.028v0.357v0.357v0.357v0.357v0.357v0.357v0.357v0.357v0.357v0.357v0.357v0.357
	v0.357v0.357v0.357v0.357"/>
<path fill="none" stroke="#1D1D1B" stroke-miterlimit="10" d="M12.072,5.302c0.193,0,0.377,0.039,0.544,0.11s0.318,0.173,0.444,0.3
	c0.126,0.126,0.229,0.277,0.3,0.444s0.11,0.351,0.11,0.544s-0.039,0.377-0.11,0.544s-0.173,0.318-0.3,0.444
	c-0.126,0.126-0.277,0.229-0.444,0.3c-0.167,0.071-0.351,0.11-0.544,0.11s-0.377-0.039-0.544-0.11
	c-0.167-0.071-0.318-0.173-0.444-0.3c-0.126-0.126-0.229-0.277-0.3-0.444s-0.11-0.351-0.11-0.544s0.039-0.377,0.11-0.544
	s0.173-0.318,0.3-0.444c0.126-0.126,0.277-0.229,0.444-0.3S11.879,5.302,12.072,5.302z"/>
<path fill="none" stroke="#1D1D1B" stroke-miterlimit="10" d="M7.576,25.412c0.249,0,0.493,0.025,0.728,0.073
	c0.235,0.048,0.462,0.119,0.678,0.211c0.216,0.091,0.422,0.203,0.614,0.333c0.192,0.13,0.371,0.278,0.535,0.441
	s0.311,0.343,0.441,0.535s0.242,0.398,0.333,0.614c0.091,0.216,0.162,0.443,0.211,0.678s0.073,0.479,0.073,0.728
	s-0.025,0.493-0.073,0.728s-0.119,0.462-0.211,0.678c-0.091,0.216-0.203,0.422-0.333,0.614s-0.278,0.371-0.441,0.535
	s-0.343,0.311-0.535,0.441c-0.192,0.13-0.398,0.242-0.614,0.333c-0.216,0.091-0.443,0.162-0.678,0.211
	c-0.235,0.048-0.479,0.073-0.728,0.073c-0.249,0-0.493-0.025-0.728-0.073c-0.235-0.048-0.462-0.119-0.678-0.211
	c-0.216-0.091-0.422-0.203-0.614-0.333c-0.192-0.13-0.371-0.278-0.535-0.441S4.71,31.237,4.58,31.045
	c-0.13-0.192-0.242-0.398-0.333-0.614c-0.091-0.216-0.162-0.443-0.211-0.678c-0.048-0.235-0.073-0.479-0.073-0.728
	s0.025-0.493,0.073-0.728c0.048-0.235,0.119-0.462,0.211-0.678c0.091-0.216,0.203-0.422,0.333-0.614
	c0.13-0.192,0.278-0.371,0.441-0.535s0.343-0.311,0.535-0.441c0.192-0.13,0.398-0.242,0.614-0.333
	c0.216-0.091,0.443-0.162,0.678-0.211C7.083,25.437,7.327,25.412,7.576,25.412z"/>
</svg>
