<?xml version="1.0" encoding="utf-8"?>
<!-- Generator: Adobe Illustrator 21.0.0, SVG Export Plug-In . SVG Version: 6.00 Build 0)  -->
<svg version="1.1" id="main" xmlns="http://www.w3.org/2000/svg" xmlns:xlink="http://www.w3.org/1999/xlink" x="0px" y="0px"
	 viewBox="0 0 17 35" enable-background="new 0 0 17 35" xml:space="preserve">
<path fill="none" stroke="#1D1D1B" stroke-miterlimit="10" d="M8.5,12.942c0.249,0,0.493,0.025,0.728,0.073
	c0.235,0.048,0.462,0.119,0.678,0.211s0.422,0.203,0.614,0.333c0.192,0.13,0.371,0.278,0.535,0.441
	c0.164,0.164,0.311,0.343,0.441,0.535c0.13,0.192,0.242,0.398,0.333,0.614s0.162,0.443,0.211,0.678
	c0.048,0.235,0.073,0.479,0.073,0.728s-0.025,0.493-0.073,0.728c-0.048,0.235-0.119,0.462-0.211,0.678s-0.203,0.422-0.333,0.614
	c-0.13,0.192-0.278,0.371-0.441,0.535c-0.164,0.163-0.343,0.311-0.535,0.441c-0.192,0.13-0.398,0.242-0.614,0.333
	c-0.216,0.091-0.443,0.162-0.678,0.211S8.749,20.17,8.5,20.17s-0.493-0.025-0.728-0.073c-0.235-0.048-0.462-0.119-0.678-0.211
	c-0.216-0.091-0.422-0.203-0.614-0.333c-0.192-0.13-0.371-0.278-0.535-0.441c-0.164-0.164-0.311-0.343-0.441-0.535
	c-0.13-0.192-0.242-0.398-0.333-0.614s-0.162-0.443-0.211-0.678c-0.048-0.235-0.073-0.479-0.073-0.728s0.025-0.493,0.073-0.728
	c0.048-0.235,0.119-0.462,0.211-0.678s0.203-0.422,0.333-0.614c0.13-0.192,0.278-0.371,0.441-0.535
	c0.164-0.164,0.343-0.311,0.535-0.441c0.192-0.13,0.398-0.242,0.614-0.333s0.443-0.162,0.678-0.211
	C8.007,12.967,8.251,12.942,8.5,12.942z"/>
<path fill="none" stroke="#1D1D1B" stroke-miterlimit="10" d="M15.071,23.243l-0.499-0.499l-0.499-0.499l-0.499-0.499l-0.499-0.499
	l-0.499-0.499l-0.499-0.499l-0.499-0.499l-0.499-0.499"/>
<path fill="none" stroke="#1D1D1B" stroke-miterlimit="10" d="M1.375,34.083l0.36-0.886l0.36-0.886l0.36-0.886l0.36-0.886
	l0.36-0.886l0.36-0.886l0.36-0.886l0.36-0.886l0.36-0.886l0.36-0.886l0.36-0.886l0.36-0.886l0.36-0.886l0.36-0.886l0.36-0.886
	l0.36-0.886"/>
<path fill="none" stroke="#1D1D1B" stroke-miterlimit="10" d="M9.859,13.209l0.303-0.745l0.303-0.745l0.303-0.745l0.303-0.745
	l0.303-0.745l0.303-0.745l0.303-0.745l0.303-0.745l0.303-0.745l0.303-0.745l0.303-0.745l0.303-0.745l0.303-0.745l0.303-0.745
	l0.303-0.745l0.303-0.745"/>
<path fill="none" stroke="#1D1D1B" stroke-miterlimit="10" d="M6.077,14.077l-0.499-0.499l-0.499-0.499l-0.499-0.499L4.08,12.08
	l-0.499-0.499l-0.499-0.499l-0.499-0.499l-0.499-0.499"/>
<path fill="none" stroke="#1D1D1B" stroke-miterlimit="10" d="M2.444,1.297c0.193,0,0.377,0.039,0.544,0.11S3.305,1.58,3.432,1.706
	S3.661,1.983,3.731,2.15s0.11,0.351,0.11,0.544s-0.039,0.377-0.11,0.544S3.558,3.555,3.432,3.682S3.155,3.911,2.988,3.981
	s-0.351,0.11-0.544,0.11S2.067,4.052,1.9,3.981S1.583,3.808,1.456,3.682S1.227,3.405,1.157,3.238s-0.11-0.351-0.11-0.544
	s0.039-0.377,0.11-0.544S1.33,1.833,1.456,1.706S1.733,1.477,1.9,1.407S2.251,1.297,2.444,1.297z"/>
</svg>
