<?xml version="1.0" encoding="utf-8"?>
<!-- Generator: Adobe Illustrator 21.0.0, SVG Export Plug-In . SVG Version: 6.00 Build 0)  -->
<svg version="1.1" id="main" xmlns="http://www.w3.org/2000/svg" xmlns:xlink="http://www.w3.org/1999/xlink" x="0px" y="0px"
	 viewBox="0 0 17 35" enable-background="new 0 0 17 35" xml:space="preserve">
<path fill="none" stroke="#1D1D1B" stroke-miterlimit="10" d="M4.634,1.603c0.193,0,0.377,0.039,0.545,0.11
	c0.167,0.071,0.318,0.173,0.445,0.3c0.127,0.127,0.229,0.277,0.3,0.445c0.071,0.167,0.11,0.351,0.11,0.545s-0.039,0.377-0.11,0.545
	c-0.071,0.167-0.173,0.318-0.3,0.445s-0.277,0.229-0.445,0.3c-0.167,0.071-0.351,0.11-0.545,0.11s-0.377-0.039-0.545-0.11
	c-0.167-0.071-0.318-0.173-0.445-0.3c-0.127-0.127-0.229-0.277-0.3-0.445c-0.071-0.167-0.11-0.351-0.11-0.545
	s0.039-0.377,0.11-0.545c0.071-0.167,0.173-0.318,0.3-0.445c0.127-0.127,0.277-0.229,0.445-0.3C4.257,1.642,4.441,1.603,4.634,1.603
	z"/>
<path fill="none" stroke="#1D1D1B" stroke-miterlimit="10" d="M8.551,2.355c0.126,0,0.251,0.003,0.375,0.009
	C9.05,2.37,9.173,2.38,9.295,2.392C9.418,2.404,9.539,2.42,9.66,2.438s0.24,0.04,0.359,0.064c0.119,0.024,0.236,0.051,0.352,0.081
	s0.232,0.063,0.346,0.098c0.114,0.035,0.227,0.073,0.338,0.114c0.112,0.041,0.222,0.084,0.331,0.13
	c0.109,0.046,0.217,0.095,0.323,0.146c0.106,0.051,0.211,0.105,0.314,0.161c0.103,0.056,0.205,0.114,0.305,0.175
	c0.1,0.061,0.199,0.124,0.296,0.189s0.192,0.133,0.286,0.203c0.094,0.07,0.185,0.142,0.275,0.216c0.09,0.074,0.178,0.15,0.264,0.229
	c0.086,0.078,0.171,0.159,0.253,0.241s0.163,0.167,0.241,0.253c0.078,0.086,0.155,0.174,0.229,0.264s0.146,0.182,0.216,0.275
	c0.07,0.093,0.138,0.189,0.203,0.285s0.129,0.195,0.19,0.295s0.119,0.202,0.176,0.305c0.056,0.103,0.11,0.208,0.161,0.314
	c0.051,0.106,0.1,0.214,0.146,0.323c0.046,0.109,0.09,0.219,0.131,0.331c0.041,0.112,0.079,0.224,0.115,0.338
	c0.036,0.114,0.068,0.229,0.098,0.346c0.03,0.116,0.057,0.234,0.082,0.352c0.024,0.118,0.046,0.238,0.064,0.359
	c0.019,0.121,0.034,0.242,0.047,0.364c0.013,0.122,0.022,0.246,0.028,0.37c0.006,0.124,0.01,0.249,0.01,0.375
	c0,0.126-0.003,0.251-0.009,0.375c-0.006,0.124-0.016,0.248-0.028,0.37c-0.012,0.123-0.028,0.244-0.046,0.365
	c-0.018,0.121-0.04,0.24-0.064,0.359s-0.051,0.236-0.081,0.353c-0.03,0.116-0.063,0.232-0.098,0.346s-0.074,0.227-0.114,0.339
	c-0.041,0.112-0.084,0.222-0.13,0.331s-0.095,0.217-0.146,0.323s-0.105,0.211-0.161,0.314c-0.056,0.103-0.114,0.205-0.175,0.305
	c-0.061,0.1-0.124,0.199-0.189,0.296c-0.065,0.097-0.133,0.192-0.203,0.286c-0.07,0.094-0.142,0.185-0.216,0.276
	c-0.074,0.09-0.15,0.178-0.229,0.265c-0.078,0.086-0.159,0.171-0.241,0.253c-0.082,0.083-0.167,0.163-0.253,0.242
	c-0.086,0.079-0.174,0.155-0.264,0.229c-0.09,0.074-0.182,0.147-0.275,0.217c-0.093,0.07-0.189,0.138-0.285,0.204
	c-0.097,0.066-0.195,0.129-0.295,0.19c-0.1,0.061-0.202,0.12-0.305,0.176c-0.103,0.056-0.208,0.11-0.314,0.161
	c-0.106,0.051-0.214,0.1-0.322,0.146c-0.109,0.046-0.219,0.09-0.33,0.131s-0.224,0.079-0.338,0.115
	c-0.114,0.036-0.229,0.068-0.345,0.099s-0.234,0.057-0.352,0.082c-0.118,0.024-0.238,0.046-0.358,0.064
	c-0.12,0.019-0.242,0.034-0.364,0.047c-0.122,0.013-0.245,0.022-0.369,0.029c-0.124,0.006-0.249,0.01-0.374,0.01
	c-0.126,0-0.251-0.003-0.375-0.01c-0.124-0.006-0.248-0.016-0.37-0.028c-0.122-0.012-0.244-0.028-0.365-0.046
	s-0.24-0.04-0.359-0.064s-0.236-0.051-0.353-0.081s-0.232-0.063-0.346-0.098c-0.114-0.035-0.227-0.074-0.339-0.115
	s-0.222-0.084-0.331-0.131C5.618,16.31,5.51,16.261,5.404,16.21c-0.106-0.051-0.211-0.105-0.314-0.161
	c-0.103-0.056-0.205-0.115-0.305-0.175c-0.1-0.061-0.199-0.124-0.296-0.19c-0.097-0.065-0.192-0.133-0.286-0.203
	c-0.094-0.07-0.185-0.142-0.276-0.216c-0.09-0.074-0.178-0.151-0.265-0.229c-0.086-0.078-0.171-0.159-0.253-0.241
	c-0.082-0.082-0.163-0.167-0.242-0.253s-0.155-0.174-0.229-0.264c-0.074-0.09-0.147-0.182-0.217-0.275
	c-0.07-0.094-0.138-0.189-0.203-0.286c-0.066-0.097-0.129-0.195-0.19-0.296s-0.12-0.202-0.176-0.305s-0.11-0.208-0.161-0.314
	s-0.1-0.214-0.146-0.323c-0.046-0.109-0.09-0.219-0.131-0.331S1.636,11.923,1.6,11.809s-0.068-0.229-0.098-0.346
	S1.444,11.229,1.42,11.11c-0.024-0.119-0.046-0.238-0.064-0.359s-0.034-0.242-0.047-0.365c-0.013-0.122-0.022-0.246-0.028-0.37
	c-0.006-0.124-0.01-0.249-0.01-0.375c0-0.037,0-0.074,0.001-0.11c0.001-0.037,0.001-0.073,0.002-0.11s0.002-0.073,0.004-0.11
	C1.28,9.275,1.282,9.239,1.284,9.203S1.288,9.13,1.291,9.094S1.297,9.022,1.3,8.986c0.003-0.036,0.007-0.072,0.01-0.108
	S1.318,8.806,1.322,8.77c0.004-0.036,0.009-0.071,0.014-0.107c0.005-0.036,0.01-0.071,0.015-0.106
	c0.005-0.035,0.011-0.071,0.017-0.106c0.006-0.035,0.012-0.07,0.018-0.105s0.013-0.07,0.02-0.105
	c0.007-0.035,0.014-0.07,0.021-0.104c0.007-0.035,0.015-0.069,0.023-0.104c0.008-0.035,0.016-0.069,0.024-0.103
	C1.481,7.894,1.49,7.86,1.499,7.826c0.009-0.034,0.018-0.068,0.027-0.102C1.535,7.69,1.544,7.656,1.554,7.622
	c0.01-0.034,0.02-0.067,0.03-0.101c0.01-0.034,0.021-0.067,0.031-0.1c0.011-0.033,0.022-0.067,0.033-0.1
	c0.011-0.033,0.023-0.066,0.034-0.099s0.023-0.066,0.036-0.099C1.73,7.09,1.742,7.057,1.754,7.025
	C1.767,6.992,1.78,6.96,1.793,6.928s0.026-0.064,0.04-0.097c0.013-0.032,0.027-0.064,0.041-0.096
	C1.887,6.703,1.901,6.672,1.915,6.64C1.93,6.609,1.944,6.577,1.959,6.546s0.03-0.063,0.045-0.094C2.019,6.421,2.034,6.39,2.05,6.359
	"/>
<path fill="none" stroke="#1D1D1B" stroke-miterlimit="10" d="M8.554,9.643v0.528v0.528v0.528v0.528v0.528v0.528v0.528v0.528v0.528
	v0.528v0.528v0.528v0.528v0.528v0.528v0.528v0.528v0.528v0.528v0.528v0.528v0.528v0.528v0.528v0.528v0.528v0.528v0.528v0.528v0.528
	v0.528v0.528"/>
<path fill="none" stroke="#1D1D1B" stroke-miterlimit="10" d="M8.5,26.537c0.249,0,0.493,0.025,0.728,0.073s0.462,0.119,0.678,0.211
	c0.216,0.091,0.422,0.203,0.614,0.333c0.192,0.13,0.371,0.278,0.535,0.441c0.164,0.163,0.311,0.343,0.441,0.535
	c0.13,0.192,0.242,0.398,0.333,0.614s0.162,0.443,0.211,0.678c0.048,0.235,0.073,0.479,0.073,0.728s-0.025,0.493-0.073,0.728
	c-0.048,0.235-0.119,0.462-0.211,0.678s-0.203,0.422-0.333,0.614c-0.13,0.192-0.278,0.371-0.441,0.535
	c-0.164,0.164-0.343,0.311-0.535,0.441c-0.192,0.13-0.398,0.242-0.614,0.333c-0.216,0.091-0.443,0.162-0.678,0.211
	S8.749,33.765,8.5,33.765s-0.493-0.025-0.728-0.073c-0.235-0.048-0.462-0.119-0.678-0.211c-0.216-0.091-0.422-0.203-0.614-0.333
	c-0.192-0.13-0.371-0.278-0.535-0.441c-0.164-0.163-0.311-0.343-0.441-0.535c-0.13-0.192-0.242-0.398-0.333-0.614
	s-0.162-0.443-0.211-0.678c-0.048-0.235-0.073-0.479-0.073-0.728s0.025-0.493,0.073-0.728c0.048-0.235,0.119-0.462,0.211-0.678
	s0.203-0.422,0.333-0.614c0.13-0.192,0.278-0.371,0.441-0.535c0.164-0.164,0.343-0.311,0.535-0.441
	c0.192-0.13,0.398-0.242,0.614-0.333c0.216-0.091,0.443-0.162,0.678-0.211C8.007,26.562,8.251,26.537,8.5,26.537z"/>
</svg>
