<?xml version="1.0" encoding="utf-8"?>
<!-- Generator: Adobe Illustrator 16.0.0, SVG Export Plug-In . SVG Version: 6.00 Build 0)  -->
<!DOCTYPE svg PUBLIC "-//W3C//DTD SVG 1.1//EN" "http://www.w3.org/Graphics/SVG/1.1/DTD/svg11.dtd">
<svg version="1.1" id="main" xmlns="http://www.w3.org/2000/svg" xmlns:xlink="http://www.w3.org/1999/xlink" x="0px" y="0px"
	 width="17px" height="35px" viewBox="0 0 17 35" enable-background="new 0 0 17 35" xml:space="preserve">
<path id="leg2" fill="none" stroke="#1D1D1B" stroke-width="1.75" stroke-miterlimit="10" d="M6.435,17.673
	c2.451,1.191,4.8,3.528,6.475,6.728c1.372,2.62,2.291,5.818,2.441,9.439"/>
<path id="leg1" fill="none" stroke="#1D1D1B" stroke-width="1.75" stroke-miterlimit="10" d="M9.54,9.237
	c0,6.25-0.58,10.117-1.689,13.801c-1.391,4.618-3.616,7.67-6.583,10.278"/>
<path id="arm2" fill="none" stroke="#1D1D1B" stroke-width="1.75" stroke-miterlimit="10" d="M16.648,18.787
	c-1.038,0.029-2.035-0.256-2.887-0.684c-1.233-0.622-2.158-1.542-2.447-2.244"/>
<path id="arm1" fill="none" stroke="#1D1D1B" stroke-width="1.75" stroke-miterlimit="10" d="M0.768,15.86
	c1.491-1.743,3.368-2.677,5.217-3.132c1.976-0.486,3.921-0.426,5.332-0.222"/>
<circle id="head" fill="none" stroke="#1D1D1B" stroke-width="1.75" stroke-miterlimit="10" cx="9.54" cy="5.623" r="3.614"/>
</svg>
