<?xml version="1.0" encoding="utf-8"?>
<!-- Generator: Adobe Illustrator 21.0.0, SVG Export Plug-In . SVG Version: 6.00 Build 0)  -->
<svg version="1.2" baseProfile="tiny" id="main" xmlns="http://www.w3.org/2000/svg" xmlns:xlink="http://www.w3.org/1999/xlink"
	 x="0px" y="0px" viewBox="0 0 17 35" xml:space="preserve">
<path id="leg2" fill="none" stroke="#1D1D1B" stroke-width="1.75" stroke-miterlimit="10" d="M6.4,17.7c2.5,1.2,4.8,3.5,6.5,6.7
	c1.4,2.6,2.3,5.8,2.4,9.4"/>
<path id="leg1" fill="none" stroke="#1D1D1B" stroke-width="1.75" stroke-miterlimit="10" d="M9.5,9.2C9.5,15.5,9,19.4,7.9,23
	c-1.4,4.6-3.6,7.7-6.6,10.3"/>
<path id="arm2" fill="none" stroke="#1D1D1B" stroke-width="1.75" stroke-miterlimit="10" d="M16.6,18.8c-1,0-2-0.3-2.9-0.7
	c-1.2-0.6-2.2-1.5-2.4-2.2"/>
<path id="arm1" fill="none" stroke="#1D1D1B" stroke-width="1.75" stroke-miterlimit="10" d="M0.8,15.9c1.5-1.7,3.4-2.7,5.2-3.1
	c2-0.5,3.9-0.4,5.3-0.2"/>
<path fill="none" stroke="#1D1D1B" stroke-width="1.75" stroke-miterlimit="10" d="M9.5,2c2,0,3.6,1.6,3.6,3.6s-1.6,3.6-3.6,3.6
	S5.9,7.6,5.9,5.6S7.5,2,9.5,2z"/>
</svg>
