<?xml version="1.0" encoding="utf-8"?>
<!-- Generator: Adobe Illustrator 21.0.0, SVG Export Plug-In . SVG Version: 6.00 Build 0)  -->
<svg version="1.2" baseProfile="tiny" id="main" xmlns="http://www.w3.org/2000/svg" xmlns:xlink="http://www.w3.org/1999/xlink"
	 x="0px" y="0px" viewBox="0 0 17 35" xml:space="preserve">
<line fill="none" stroke="#1D1D1B" stroke-width="1.75" stroke-miterlimit="10" x1="3.6" y1="26.3" x2="3.6" y2="26.3"/>
<path id="arm1" fill="none" stroke="#1D1D1B" stroke-width="1.75" stroke-miterlimit="10" d="M3.1,26.3C2,23.4,1.3,19.4,1.4,14.8
	C1.5,11.1,2.1,7,3.6,2.9"/>
<path id="arm2" fill="none" stroke="#1D1D1B" stroke-width="1.75" stroke-miterlimit="10" d="M5,26c0.2-5.7,1-10.3,2.9-14.5
	c1.6-3.6,3.9-6.7,7.2-9.9"/>
<path id="leg1" fill="none" stroke="#1D1D1B" stroke-width="1.75" stroke-miterlimit="10" d="M6.9,26.6c0.9-2.3,1.9-5,3.8-7.1
	c1.4-1.5,3.2-2.7,5.9-3.1"/>
<path id="leg2" fill="none" stroke="#1D1D1B" stroke-width="1.75" stroke-miterlimit="10" d="M8.1,28.2c1.2-1.9,3.2-3,4.8-2.6
	c1,0.2,1.9,1,2.4,2.6"/>
<path fill="none" stroke="#1D1D1B" stroke-width="1.75" stroke-miterlimit="10" d="M4.8,26c2,0,3.6,1.6,3.6,3.6s-1.6,3.6-3.6,3.6
	s-3.6-1.6-3.6-3.6S2.8,26,4.8,26z"/>
</svg>
