<?xml version="1.0" encoding="utf-8"?>
<!-- Generator: Adobe Illustrator 16.0.0, SVG Export Plug-In . SVG Version: 6.00 Build 0)  -->
<!DOCTYPE svg PUBLIC "-//W3C//DTD SVG 1.1//EN" "http://www.w3.org/Graphics/SVG/1.1/DTD/svg11.dtd">
<svg version="1.1" id="main" xmlns="http://www.w3.org/2000/svg" xmlns:xlink="http://www.w3.org/1999/xlink" x="0px" y="0px"
	 width="17px" height="35px" viewBox="0 0 17 35" enable-background="new 0 0 17 35" xml:space="preserve">
<line fill="none" stroke="#1D1D1B" stroke-width="1.75" stroke-miterlimit="10" x1="3.587" y1="26.252" x2="3.587" y2="26.252"/>
<path id="arm1" fill="none" stroke="#1D1D1B" stroke-width="1.75" stroke-miterlimit="10" d="M3.104,26.252
	c-1.083-2.811-1.809-6.826-1.696-11.418C1.5,11.122,2.141,7.032,3.586,2.897"/>
<path id="arm2" fill="none" stroke="#1D1D1B" stroke-width="1.75" stroke-miterlimit="10" d="M5.042,25.959
	c0.213-5.722,1.043-10.341,2.873-14.455c1.581-3.555,3.909-6.733,7.231-9.92"/>
<path id="leg1" fill="none" stroke="#1D1D1B" stroke-width="1.75" stroke-miterlimit="10" d="M6.938,26.584
	c0.934-2.255,1.878-4.982,3.771-7.076c1.367-1.512,3.229-2.694,5.936-3.131"/>
<path id="leg2" fill="none" stroke="#1D1D1B" stroke-width="1.75" stroke-miterlimit="10" d="M8.105,28.209
	c1.223-1.89,3.192-2.967,4.829-2.59c1.027,0.236,1.924,1.047,2.422,2.59"/>
<circle id="head" fill="none" stroke="#1D1D1B" stroke-width="1.75" stroke-miterlimit="10" cx="4.799" cy="29.576" r="3.614"/>
</svg>
