<?xml version="1.0" encoding="utf-8"?>
<!-- Generator: Adobe Illustrator 21.0.0, SVG Export Plug-In . SVG Version: 6.00 Build 0)  -->
<svg version="1.2" baseProfile="tiny" id="main" xmlns="http://www.w3.org/2000/svg" xmlns:xlink="http://www.w3.org/1999/xlink"
	 x="0px" y="0px" viewBox="0 0 17 35" xml:space="preserve">
<path fill="none" stroke="#1D1D1B" stroke-width="1.75" stroke-miterlimit="10" d="M12.4,25.3c1.8,0,3.3,1.5,3.3,3.3
	s-1.5,3.3-3.3,3.3s-3.3-1.5-3.3-3.3S10.6,25.3,12.4,25.3z"/>
<path fill="none" stroke="#1D1D1B" stroke-width="1.75" stroke-miterlimit="10" d="M0.6,11.7c0.5,0,7,0,8.1,0s7.3,0,7.8,0"/>
<path fill="none" stroke="#1D1D1B" stroke-width="1.75" stroke-miterlimit="10" d="M0.6,28.6c0.2,0,3.7,0,4.4,0s3.8,0,4.2,0"/>
<path fill="none" stroke="#1D1D1B" stroke-width="1.75" stroke-miterlimit="10" d="M0.6,20.1c0.5,0,7,0,8.1,0s7.2,0,7.8,0"/>
<path fill="none" stroke="#1D1D1B" stroke-width="1.75" stroke-miterlimit="10" d="M0.6,3.2c0.5,0,7,0,8.1,0s7.2,0,7.8,0"/>
</svg>
