<?xml version="1.0" encoding="utf-8"?>
<!-- Generator: Adobe Illustrator 21.0.0, SVG Export Plug-In . SVG Version: 6.00 Build 0)  -->
<svg version="1.2" baseProfile="tiny" id="main" xmlns="http://www.w3.org/2000/svg" xmlns:xlink="http://www.w3.org/1999/xlink"
	 x="0px" y="0px" viewBox="0 0 17 35" xml:space="preserve">
<path fill="none" stroke="#1D1D1B" stroke-width="1.75" stroke-linejoin="bevel" stroke-miterlimit="10" d="M10.3,20.8
	c0.1-0.4,0.4-3.4,0.8-6.2c0.3-2.7,0.7-5.3,0.7-5.5"/>
<path fill="none" stroke="#1D1D1B" stroke-width="1.75" stroke-linejoin="bevel" stroke-miterlimit="10" d="M10.3,20.8
	C10.2,21.3,8.8,34,8.6,34S5.5,9.6,5.4,9.1"/>
<path fill="none" stroke="#1D1D1B" stroke-width="1.75" stroke-miterlimit="10" d="M8.7,33.7c0.3-0.5,3.2-6.7,3.6-7.5
	s3.5-7.2,3.7-7.7"/>
<path fill="none" stroke="#1D1D1B" stroke-width="1.75" stroke-miterlimit="10" d="M8.4,33.7c-0.4-0.8-3.1-6.5-3.6-7.5
	s-3.3-6.9-3.6-7.6"/>
<path fill="none" stroke="#1D1D1B" stroke-width="1.75" stroke-miterlimit="10" d="M4.8,1.8c2,0,3.6,1.6,3.6,3.6S6.8,9,4.8,9
	S1.2,7.4,1.2,5.4S2.8,1.8,4.8,1.8z"/>
</svg>
