<?xml version="1.0" encoding="utf-8"?>
<!-- Generator: Adobe Illustrator 19.0.0, SVG Export Plug-In . SVG Version: 6.00 Build 0)  -->
<svg version="1.1" id="total-flag" xmlns:ev="http://www.w3.org/2001/xml-events"
	 xmlns="http://www.w3.org/2000/svg" xmlns:xlink="http://www.w3.org/1999/xlink" x="0px" y="0px" viewBox="100 -50 300 200"
	 style="enable-background:new 100 -50 300 200;" xml:space="preserve">
<style type="text/css">
	.st0{clip-path:url(#SVGID_2_);}
	.st1{fill:#FCDC04;}
	.st2{fill:#CC0000;}
	.st3{clip-path:url(#SVGID_4_);}
	.st4{fill:#FDEF42;}
	.st5{clip-path:url(#SVGID_6_);}
	.st6{fill:#CB001E;}
	.st7{fill:#FFCE00;}
	.st8{clip-path:url(#SVGID_8_);}
	.st9{fill:#009966;}
	.st10{fill:#6699FF;}
	.st11{clip-path:url(#SVGID_10_);}
	.st12{fill:#FF9932;}
	.st13{clip-path:url(#SVGID_12_);}
	.st14{fill:#2224EB;}
	.st15{clip-path:url(#SVGID_14_);}
	.st16{fill:#FFFFFF;}
	.st17{fill:#4A9673;}
	.st18{clip-path:url(#SVGID_16_);}
	.st19{fill:#7305FA;}
	.st20{clip-path:url(#SVGID_18_);}
	.st21{fill:#FF6602;}
	.st22{clip-path:url(#SVGID_20_);}
	.st23{clip-path:url(#SVGID_22_);}
	.st24{fill:#003897;}
	.st25{fill:#FF0000;}
	.st26{clip-path:url(#SVGID_24_);}
	.st27{fill:#229E45;}
	.st28{clip-path:url(#SVGID_26_);}
	.st29{fill:#FC8BB4;}
	.st30{fill:#603814;}
	.st31{clip-path:url(#SVGID_28_);}
	.st32{fill:#CC6600;}
	.st33{clip-path:url(#SVGID_30_);}
	.st34{clip-path:url(#SVGID_32_);}
	.st35{fill:#F79180;}
	.st36{clip-path:url(#SVGID_34_);}
	.st37{clip-path:url(#SVGID_36_);}
	.st38{fill:#003265;}
	.st39{clip-path:url(#SVGID_38_);}
	.st40{clip-path:url(#SVGID_40_);}
	.st41{fill:#8A247D;}
	.st42{clip-path:url(#SVGID_42_);}
	.st43{clip-path:url(#SVGID_44_);}
	.st44{fill:none;stroke:#FEC50C;stroke-width:7.1724;}
	.st45{clip-path:url(#SVGID_46_);}
	.st46{clip-path:url(#SVGID_48_);}
	.st47{clip-path:url(#SVGID_50_);}
	.st48{clip-path:url(#SVGID_52_);}
	.st49{fill:#FEC50C;}
	.st50{clip-path:url(#SVGID_54_);}
	.st51{fill:#708090;}
	.st52{clip-path:url(#SVGID_56_);}
	.st53{fill:#007934;}
</style>
<g transform="translate(150, 0)">
	<g>
		<defs>
			<rect id="SVGID_1_" x="100" y="-50" width="150" height="100"/>
		</defs>
		<clipPath id="SVGID_2_">
			<use xlink:href="#SVGID_1_"  style="overflow:visible;"/>
		</clipPath>
		<g class="st0">
			<path d="M100,50L250-50V50H100z"/>
			<path class="st1" d="M100,50L250-50H100V50z"/>
		</g>
	</g>
	<g transform="translate(6.930371293830335, 6.930371293830335) scale(0.2613925741233933) rotate(0, 50.0, 50.0)">
		<path class="st2" d="M432.6-189.4l11.8,36.3h38.2l-30.9,22.5l11.8,36.3l-30.9-22.5l-30.9,22.5l11.8-36.3l-30.9-22.5h38.2
			L432.6-189.4"/>
	</g>
</g>
<g transform="translate(0, 0)">
	<g>
		<defs>
			<rect id="SVGID_3_" x="100" y="-50" width="75" height="50"/>
		</defs>
		<clipPath id="SVGID_4_">
			<use xlink:href="#SVGID_3_"  style="overflow:visible;"/>
		</clipPath>
		<g class="st3">
			<path class="st4" d="M100,0l75-50V0H100z"/>
			<path d="M100,0l75-50h-75V0z"/>
		</g>
	</g>
	<g id="empty">
	</g>
</g>
<g transform="translate(75, 100)">
	<g>
		<defs>
			<rect id="SVGID_5_" x="100" y="-50" width="75" height="50"/>
		</defs>
		<clipPath id="SVGID_6_">
			<use xlink:href="#SVGID_5_"  style="overflow:visible;"/>
		</clipPath>
		<g class="st5">
			<path class="st6" d="M100-50l75,50v-50H100z"/>
			<path class="st7" d="M100-50l75,50h-75V-50z"/>
		</g>
	</g>
	<g id="empty_1_">
	</g>
</g>
<g transform="translate(150, 150)">
	<g>
		<defs>
			<rect id="SVGID_7_" x="100" y="-50" width="75" height="50"/>
		</defs>
		<clipPath id="SVGID_8_">
			<use xlink:href="#SVGID_7_"  style="overflow:visible;"/>
		</clipPath>
		<g class="st8">
			<path class="st9" d="M100,0l75-50V0H100z"/>
			<path class="st10" d="M100,0l75-50h-75V0z"/>
		</g>
	</g>
	<g id="empty_2_">
	</g>
</g>
<g transform="translate(0, 175)">
	<g>
		<defs>
			<rect id="SVGID_9_" x="100" y="-50" width="37.5" height="25"/>
		</defs>
		<clipPath id="SVGID_10_">
			<use xlink:href="#SVGID_9_"  style="overflow:visible;"/>
		</clipPath>
		<g class="st11">
			<path class="st12" d="M100-25l37.5-25v25H100z"/>
			<path d="M100-25l37.5-25H100V-25z"/>
		</g>
	</g>
	<g transform="translate(7.7739040542986455, 7.7739040542986455) scale(0.24452191891402708) rotate(0, 50.0, 50.0)">
		<path class="st4" d="M397.6-227.8l2.9,9.1h9.6l-7.7,5.6l2.9,9.1l-7.7-5.6l-7.7,5.6l3-9.1l-7.7-5.6h9.5L397.6-227.8"/>
	</g>
</g>
<g transform="translate(262.5, 150)">
	<g>
		<defs>
			<rect id="SVGID_11_" x="100" y="-50" width="37.5" height="25"/>
		</defs>
		<clipPath id="SVGID_12_">
			<use xlink:href="#SVGID_11_"  style="overflow:visible;"/>
		</clipPath>
		<g class="st13">
			<path d="M100-25l37.5-25v25H100z"/>
			<path class="st14" d="M100-25l37.5-25H100V-25z"/>
		</g>
	</g>
	<g transform="translate(53.6202164837048, 28.6202164837048) scale(0.42759567032590395) rotate(0, 50.0, 50.0)">
		<path class="st12" d="M152.3-166.7l2.9,9.1h9.6l-7.7,5.6l2.9,9.1l-7.7-5.6l-7.7,5.6l2.9-9.1l-7.7-5.6h9.5L152.3-166.7"/>
	</g>
</g>
<g transform="translate(75, 50)">
	<g>
		<defs>
			<rect id="SVGID_13_" x="100" y="-50" width="75" height="50"/>
		</defs>
		<clipPath id="SVGID_14_">
			<use xlink:href="#SVGID_13_"  style="overflow:visible;"/>
		</clipPath>
		<g class="st15">
			<path class="st16" d="M100,0l75-50V0H100z"/>
			<path class="st17" d="M100,0l75-50h-75V0z"/>
		</g>
	</g>
	<g id="empty_3_">
	</g>
</g>
<g transform="translate(225, 100)">
	<g>
		<defs>
			<rect id="SVGID_15_" x="100" y="-50" width="75" height="50"/>
		</defs>
		<clipPath id="SVGID_16_">
			<use xlink:href="#SVGID_15_"  style="overflow:visible;"/>
		</clipPath>
		<g class="st18">
			<path class="st19" d="M100,0l75-50V0H100z"/>
			<path d="M100,0l75-50h-75V0z"/>
		</g>
	</g>
	<g id="empty_4_">
	</g>
</g>
<g transform="translate(37.5, 100)">
	<g>
		<defs>
			<rect id="SVGID_17_" x="100" y="-50" width="37.5" height="25"/>
		</defs>
		<clipPath id="SVGID_18_">
			<use xlink:href="#SVGID_17_"  style="overflow:visible;"/>
		</clipPath>
		<g class="st20">
			<path class="st7" d="M100-25l37.5-25v25H100z"/>
			<path d="M100-25l37.5-25H100V-25z"/>
		</g>
	</g>
	<g transform="translate(6.271573469000501, 6.271573469000501) scale(0.27456853061999) rotate(0, 50.0, 50.0)">
		<path class="st21" d="M359.6-198.8l2.9,9.1h9.5l-7.7,5.6l2.9,9.1l-7.7-5.6l-7.7,5.6l3-9.1l-7.7-5.6h9.5L359.6-198.8"/>
	</g>
</g>
<g transform="translate(0, 50)">
	<g>
		<defs>
			<rect id="SVGID_19_" x="100" y="-50" width="75" height="50"/>
		</defs>
		<clipPath id="SVGID_20_">
			<use xlink:href="#SVGID_19_"  style="overflow:visible;"/>
		</clipPath>
		<g class="st22">
			<path class="st7" d="M100-50l75,50v-50H100z"/>
			<path d="M100-50l75,50h-75V-50z"/>
		</g>
	</g>
	<g id="empty_5_">
	</g>
</g>
<g transform="translate(0, 125)">
	<g>
		<defs>
			<rect id="SVGID_21_" x="100" y="-50" width="37.5" height="25"/>
		</defs>
		<clipPath id="SVGID_22_">
			<use xlink:href="#SVGID_21_"  style="overflow:visible;"/>
		</clipPath>
		<g class="st23">
			<path class="st24" d="M100-25l37.5-25v25H100z"/>
			<path class="st16" d="M100-25l37.5-25H100V-25z"/>
		</g>
	</g>
	<g transform="translate(9.08695097795441, 9.08695097795441) scale(0.2182609804409118) rotate(0, 50.0, 50.0)">
		<path class="st25" d="M439.4-259.8l3,9.1h9.5l-7.7,5.6l3,9.1l-7.7-5.6l-7.7,5.6l3-9.1l-7.7-5.6h9.6L439.4-259.8"/>
	</g>
</g>
<g transform="translate(37.5, 125)">
	<g>
		<defs>
			<rect id="SVGID_23_" x="100" y="-50" width="37.5" height="25"/>
		</defs>
		<clipPath id="SVGID_24_">
			<use xlink:href="#SVGID_23_"  style="overflow:visible;"/>
		</clipPath>
		<g class="st26">
			<path class="st16" d="M100-50l37.5,25v-25H100z"/>
			<path class="st27" d="M100-50l37.5,25H100V-50z"/>
		</g>
	</g>
	<g transform="translate(54.12144211908364, 29.121442119083635) scale(0.4175711576183273) rotate(0, 50.0, 50.0)">
		<path d="M150.1-172C150.1-172,150.1-172,150.1-172c-0.1,0.3-0.1,1.4-0.8,1.6c-0.5,0.2-0.9,1.1-0.9,1.5c0,0.5,0.5,0.7,0.4,0.8
			c-0.1,0.2-0.6,0.4-0.9,0.3c-0.2-0.1-0.2-0.4-0.7-0.4c-0.4,0-0.4,0.4-0.6,0.4c-0.6,0-1.2,0-1.9,0c-0.3,0-0.4-0.5-0.6-0.5
			c-0.1,0-0.3,0.1-0.3,0.2c0,0.2,0.4,0.4,0.4,0.6c0,0.5-0.6,0.4-0.7,1.5c0,0.1,0.2,0.2,0.3,0.1c0.1-0.1,0-0.3,0.1-0.4
			c0.1-0.1,0.3-0.1,0.5-0.1c0.3,0,0.2,0.3,0.5,0.4c0.1-0.2,0.1-0.3,0.2-0.4c0.1-0.1,0.4-0.1,0.6,0c0.1,0.1,0.2,0.2,0.3,0.3
			c0.1-0.1,0.1-0.2,0.2-0.3c0.2-0.1,0.4-0.1,0.5-0.1c0.2,0.1,0.1,0.3,0.2,0.4c0.1-0.2,0.1-0.3,0.3-0.3c0.1-0.1,0.3,0,0.4,0.1
			c0.1,0.1,0.1,0.2,0.1,0.3c-0.4,0-1.9,0-2.8,0c-0.7,0-1.3,0-1.5,0c-0.1,0-0.2,0-0.3-0.1c-0.1-0.1-0.2-0.1-0.2-0.3
			c-0.1-0.3-0.2-0.6-0.2-0.6c0,0,0-0.1,0-0.1c0,0-0.1,0-0.1,0c0,0,0,0,0,0.1c0,0,0,0,0,0.1c0,0,0,0.3,0.2,0.6
			c0.1,0.2,0.1,0.3,0.3,0.4s0.3,0.2,0.4,0.2c0.2,0,0.8,0,1.5,0c0.2,0,0.5,0,0.8,0c-0.2,0.2-0.3,0.4-0.5,0.4c-0.4,0-0.5,0-0.8,0
			c-0.1,0-0.3-0.1-0.3-0.2c-0.1-0.1-0.2-0.1-0.2,0c0,0-0.1,0.1,0,0.1c0.3,0.5,0.9,1.2,1.4,1.2c0.3,0,0.8-0.4,1.4-0.4
			c0.1,0,1.1,0,1.3-0.1c0.3-0.1,0.3-0.6,0.4-0.7c0.1,0,0.2,0.1,0.3,0.1c0.1,0.1,0,0.2,0,0.3c-1.4,1.8-4,2.4-4,5.6
			c0,1.6,0.7,3.8,1.7,5.2c1.1,1.6,1.6,2.5,4.6,3.6c0.9,0.3,2.4,0.3,3,0c0.2-0.1-0.6-0.8-0.7-1c0-0.1,0.2-0.1,0.3-0.1
			c0.3,0.3,0.6,0.8,0.9,0.9c0,0,0.1,0.1,0.1,0.1c0,0,0,0,0,0.1c0,0,0,0.1,0,0.1s0,0.1,0,0.1c0,0.1,0,0.1-0.1,0.2c-0.1,0-0.2,0-0.2,0
			h0c-1,0.2-2.7,0.4-3.7,0.4c-0.9,0-0.4-0.2-0.9-0.3c-0.4,0-0.9,0.3-0.9,0.8c0,0.3-0.4,0.4-0.6,0.7c-0.2,0.4,0.1,0.8,0.2,0.9
			c0,0.4,0.2,0.5,0.3,0.5c-0.1-0.2-0.1-0.4,0-0.5c0.1-0.2,0.5-0.3,0.6-0.6c0.1-0.1,0-0.3,0-0.5c0-0.3,0.3-0.6,0.4-0.6
			c0.1,0,0.2,0.1,0.3,0.1c0,0.1,0,0.1,0,0.2c0,0.3-0.6,0.5-0.6,0.9c0,0.3,0.2,0.5,0.3,0.6c0.1,0.3,0.2,0.5,0.5,0.6
			c-0.1-0.2-0.2-0.4-0.1-0.6c0.1-0.2,0.3-0.3,0.4-0.4c0.1-0.2-0.1-0.5-0.1-0.7c0-0.1,0.1-0.3,0.2-0.5c0.1,0,0.3,0,0.5,0
			c0,0.1,0,0.2-0.1,0.2c0,0.2-0.3,0.5-0.3,0.7c0,0.4,0.1,0.5,0.2,0.7c0.1,0.4,0.3,0.7,0.6,0.7c-0.2-0.4-0.3-0.4-0.3-0.6
			c0-0.3,0.4-0.4,0.4-0.8c0-0.3-0.3-0.4-0.3-0.7c0-0.1,0.1-0.2,0.2-0.3c0.1,0,0.2,0,0.3,0c1.2-0.1,1.7-0.2,2.8-0.2
			c0.4,0,0.9,0.3,1.2,0.3c0.4,0,0.7-0.3,0.7-0.7c0-0.2-0.1-0.3-0.1-0.4l0,0v0c0,0-0.1-0.1-0.1-0.1l0,0l0,0c0,0-0.1,0-0.1-0.1
			c0,0-0.1-0.1-0.1-0.1c0,0,0,0-0.1-0.1c-0.1-0.1-0.1-0.1-0.1-0.1l0,0c-0.1-0.1-0.1-0.1-0.1-0.2l0,0c0,0,0,0,0,0c0-0.1,0-0.1,0-0.2
			c0,0,0,0,0-0.1c0,0,0,0,0,0c0,0,0,0,0-0.1c0,0,0-0.1-0.1-0.1v0l0,0c0,0,0,0,0-0.1c0,0,0-0.1,0-0.1c0,0,0-0.1,0-0.1c0,0,0,0,0,0
			l0,0c0,0,0-0.1,0-0.1c0-0.1,0-0.1,0-0.1c0-0.1,0.2-0.1,0.3-0.1c0.4,0.4,0.5,1.4,1,1.4c2.2,0,4,0,6-0.1c0.7,0,1.6-0.4,2.2-0.7
			c1.3-0.6,2.2-2.6,2.2-4c0-4.6-4.6-6.2-4.6-9.2c0-2.2,3.9-4.9,3.9-6.2c0-0.4-0.8-1.3-1-1s0.3,0.6,0.3,0.9c0,0.3-0.8,1.1-1.7,1.9
			c-1.3,1.1-3,2.6-3,4.5c0,3.2,3.7,5.7,3.7,8.3c0,1.1-1.1,2.1-1.8,2.1c-1.5,0-3.5-3-5.5-3c-0.5,0,0.6-0.6,0.8-0.9
			c0.2-0.2-0.3-0.6-0.3-0.9c0.1-0.6,0.9-1.3,0.8-1.6c0-0.2-0.6,0.2-0.9,0.2c-0.1,0-0.3-0.2-0.3-0.3c0.3-0.4,1.2-0.9,1.5-1.4l0.1-0.8
			c-0.7-0.1-1,0.4-1.6,0.6c-0.3,0.1-0.4-0.1-0.3-0.1c0-0.2,1.6-0.9,2.2-1.5l0.3-1.2c-1.1-0.1-2,1-3,1.7c-0.1,0.1-0.3-0.2-0.3-0.3
			c1.3-1.5,3.2-2.4,4.4-3.4l0-1c-1.6,0.4-3.7,1.8-5.1,3c-0.1,0.1-0.3-0.2-0.3-0.3c1.3-1.2,3.3-2.7,4.7-3.3l1.1-2.2
			c-1.8,0.1-5.6,3.6-7.8,5.7c-0.4,0.4-0.4,1.5-0.3,2.1c0.2,0.7,1.1,1.3,1,1.9c-0.2,1.4-1.2,3.4-1.7,4.6c-0.1,0.1-0.2,0.1-0.2,0
			l0.1-0.8c-0.2,0-0.3-0.1-0.5-0.1c-1.3,0.2-2.1,1.3-2.4,1.1c-0.8-0.7-2.1-3.1-2.2-4.5c-0.1-1.3,2.6-3,3.6-4.9
			c0.2-0.4-0.3-1.3-0.3-1.8c0-0.5,0.3-0.2,0.8-1.2c0.2-0.3,0.1-1.6,0.3-2.3c0.1-0.3,0.4-0.5,0.5-0.8c-0.8,0.1-0.8,0.6-1.1,1
			c-0.2,0.3-0.8,0.5-1.1,1.1c-0.2,0.4,0,1-0.1,1.4c-0.1,0.2-0.4,0.1-0.4,0c-0.2-1,0.8-2,0.9-3C150.5-171.3,150.2-172.1,150.1-172
			L150.1-172 M159.2-171.4c-1.4,0.6-4.3,2.4-6.5,5.5c-0.7,0.9-0.6,2.3-0.6,3.3c0,0.4,1,1,1,1.8c0,1.1-0.8,2.5-1.1,3.6
			c0.2,0,0.4,0,0.6,0.1c0.1-0.2,0.2-0.4,0.3-0.6c0.5-1,0.9-2.2,1.1-3.1c0-0.1-0.1-0.4-0.3-0.7c-0.2-0.3-0.5-0.7-0.7-1.1
			c-0.1-0.4-0.1-0.8-0.1-1.2c0-0.4,0.1-0.9,0.5-1.2c1.1-1.1,2.7-2.5,4.1-3.6c0.5-0.4,1.1-0.8,1.5-1.1L159.2-171.4L159.2-171.4
			 M147.1-167.3c0.1,0,0.3,0,0.4,0c0,0.2,0.1,0.8-0.2,0.8c-0.1,0-0.1-0.3-0.2-0.4c-0.1-0.1-0.4,0-0.4-0.2
			C146.8-167.3,146.9-167.3,147.1-167.3L147.1-167.3 M148.2-167.3c0.2,0,0.4,0,0.4,0.2c0,0.2-0.3,0.1-0.4,0.2
			c-0.1,0.1,0,0.4-0.2,0.4c-0.3,0-0.2-0.5-0.1-0.8C147.9-167.3,148-167.3,148.2-167.3 M144.9-167.3c0.1,0,0.1,0.2,0.1,0.3
			c0,0.1-0.3,0.1-0.5,0.1c-0.2,0-0.1-0.3,0-0.3C144.6-167.2,144.8-167.3,144.9-167.3 M147.6-165.6c-0.1,0.1-0.1,0.2-0.2,0.2
			s-0.3,0.1-0.4,0c-0.1-0.1-0.1-0.1-0.3-0.2C147.1-165.6,147.4-165.6,147.6-165.6 M145.6-165.6c0.4,0,0.7,0,1.1,0
			c-0.1,0.1-0.1,0.2-0.2,0.3c-0.1,0.1-0.3,0.1-0.4,0C145.8-165.3,145.7-165.4,145.6-165.6 M146.1-151.6c-0.4,0-1,0.1-0.9,1.3
			c-0.2,0.2-0.4,0.2-0.4,0.5s0,0.5,0.2,0.7c0.1,0.3-0.1,0.6,0.5,0.9c-0.2-0.6-0.2-0.6-0.1-0.8c0.2-0.2,0.4-0.1,0.4-0.7
			c0-0.3-0.2-0.3-0.1-0.6c0.1-0.3,0.1-0.7,0.3-0.6c0.1,0.1,0.3,0.1,0.5,0.1c-0.1,0.1-0.1,0.2-0.1,0.3c-0.1,0.2-0.4,0.4-0.3,0.7
			c0,0.3,0.3,0.6,0.4,0.6c0.1,0.3,0.1,0.3,0.4,0.4c-0.1-0.2-0.2-0.5-0.1-0.6c0.1-0.2,0.3-0.4,0.3-0.6c0-0.1-0.1-0.3-0.1-0.4
			c-0.1-0.1,0-0.2,0-0.3c0.3,0.1,0.6,0.1,0.9,0.1c0,0.2-0.6,0.4-0.6,0.6c-0.1,0.3,0.1,0.5,0.2,0.5c0,0.4,0,0.5,0.4,0.6
			c0-0.1-0.1-0.3,0-0.4c0.1-0.1,0.3-0.1,0.4-0.3c0.1-0.1,0-0.4,0-0.6c0-0.1,0.2-0.4,0.3-0.4c0,0,0.1,0,0.2,0c0.2,0,0.6-0.1,0.7-0.2
			c0.1,0,0.1-0.1,0.1-0.1c-0.4-0.2-0.7-0.4-1-0.6c-0.3,0.1-0.5,0.3-1,0.3c-0.6,0-0.9-0.3-1.2-0.3
			C146.2-151.6,146.1-151.6,146.1-151.6L146.1-151.6"/>
	</g>
</g>
<g transform="translate(150, 100)">
	<g>
		<defs>
			<rect id="SVGID_25_" x="100" y="-50" width="75" height="50"/>
		</defs>
		<clipPath id="SVGID_26_">
			<use xlink:href="#SVGID_25_"  style="overflow:visible;"/>
		</clipPath>
		<g class="st28">
			<path d="M100-50l75,50v-50H100z"/>
			<path class="st29" d="M100-50l75,50h-75V-50z"/>
		</g>
	</g>
	<g transform="translate(44.868504595533224, 19.86850459553322) scale(0.6026299080893356) rotate(0, 50.0, 50.0)">
		<path class="st30" d="M153.7-98.5l5.9,18.1h19.1l-15.4,11.3l5.9,18.1l-15.4-11.2L138.3-51l5.9-18.1l-15.4-11.3h19.1L153.7-98.5"/>
	</g>
</g>
<g transform="translate(225, 162.5)">
	<g>
		<defs>
			<rect id="SVGID_27_" x="100" y="-50" width="18.8" height="12.5"/>
		</defs>
		<clipPath id="SVGID_28_">
			<use xlink:href="#SVGID_27_"  style="overflow:visible;"/>
		</clipPath>
		<g class="st31">
			<path class="st32" d="M100-37.5L118.8-50v12.5H100z"/>
			<path class="st7" d="M100-37.5L118.8-50H100V-37.5z"/>
		</g>
	</g>
	<g id="empty_6_">
	</g>
</g>
<g transform="translate(243.75, 162.5)">
	<g>
		<defs>
			<rect id="SVGID_29_" x="100" y="-50" width="18.8" height="12.5"/>
		</defs>
		<clipPath id="SVGID_30_">
			<use xlink:href="#SVGID_29_"  style="overflow:visible;"/>
		</clipPath>
		<g class="st33">
			<path d="M100-37.5L118.8-50v12.5H100z"/>
			<path class="st6" d="M100-37.5L118.8-50H100V-37.5z"/>
		</g>
	</g>
	<g id="empty_7_">
	</g>
</g>
<g transform="translate(225, 150)">
	<g>
		<defs>
			<rect id="SVGID_31_" x="100" y="-50" width="18.8" height="12.5"/>
		</defs>
		<clipPath id="SVGID_32_">
			<use xlink:href="#SVGID_31_"  style="overflow:visible;"/>
		</clipPath>
		<g class="st34">
			<path class="st35" d="M100-37.5L118.8-50v12.5H100z"/>
			<path d="M100-37.5L118.8-50H100V-37.5z"/>
		</g>
	</g>
	<g id="empty_8_">
	</g>
</g>
<g transform="translate(243.75, 150)">
	<g>
		<defs>
			<rect id="SVGID_33_" x="100" y="-50" width="18.8" height="12.5"/>
		</defs>
		<clipPath id="SVGID_34_">
			<use xlink:href="#SVGID_33_"  style="overflow:visible;"/>
		</clipPath>
		<g class="st36">
			<path d="M100-50l18.8,12.5V-50H100z"/>
			<path class="st6" d="M100-50l18.8,12.5H100V-50z"/>
		</g>
	</g>
	<g id="empty_9_">
	</g>
</g>
<g transform="translate(75, 150)">
	<g>
		<defs>
			<rect id="SVGID_35_" x="100" y="-50" width="75" height="50"/>
		</defs>
		<clipPath id="SVGID_36_">
			<use xlink:href="#SVGID_35_"  style="overflow:visible;"/>
		</clipPath>
		<g class="st37">
			<path class="st38" d="M100,0l75-50V0H100z"/>
			<path class="st16" d="M100,0l75-50h-75V0z"/>
		</g>
	</g>
	<path class="st2" d="M115.1-40l-2.8,0.8l1.8,2.3l-2.7-1l0.1,2.9l-1.6-2.4l-1.6,2.4l0.1-2.9l-2.7,1l1.8-2.3l-2.8-0.8l2.8-0.8
		l-1.8-2.3l2.7,1l-0.1-2.9l1.6,2.4l1.6-2.4l-0.1,2.9l2.7-1l-1.8,2.3L115.1-40z"/>
</g>
<g transform="translate(0, 150)">
	<g>
		<defs>
			<rect id="SVGID_37_" x="100" y="-50" width="37.5" height="25"/>
		</defs>
		<clipPath id="SVGID_38_">
			<use xlink:href="#SVGID_37_"  style="overflow:visible;"/>
		</clipPath>
		<g class="st39">
			<path class="st7" d="M100-25l37.5-25v25H100z"/>
			<path class="st16" d="M100-25l37.5-25H100V-25z"/>
		</g>
	</g>
	<g transform="translate(7.467215234491997, 7.467215234491997) scale(0.2506556953101601) rotate(0, 50.0, 50.0)">
		<path class="st24" d="M389.1-221.3l3,9.1h9.5l-7.7,5.6l3,9.1l-7.7-5.6l-7.7,5.6l2.9-9.1l-7.7-5.6h9.5L389.1-221.3"/>
	</g>
</g>
<g transform="translate(0, 100)">
	<g>
		<defs>
			<rect id="SVGID_39_" x="100" y="-50" width="37.5" height="25"/>
		</defs>
		<clipPath id="SVGID_40_">
			<use xlink:href="#SVGID_39_"  style="overflow:visible;"/>
		</clipPath>
		<g class="st40">
			<path class="st41" d="M100-25l37.5-25v25H100z"/>
			<path class="st7" d="M100-25l37.5-25H100V-25z"/>
		</g>
	</g>
	<g transform="translate(9.452981309866695, 9.452981309866695) scale(0.2109403738026661) rotate(0, 50.0, 50.0)">
		<path class="st16" d="M453-270.2l3,9.1h9.6l-7.7,5.6l3,9.1L453-252l-7.7,5.6l2.9-9.1l-7.7-5.6h9.6L453-270.2"/>
	</g>
</g>
<g transform="translate(75, 0)">
	<g>
		<defs>
			<rect id="SVGID_41_" x="100" y="-50" width="37.5" height="25"/>
		</defs>
		<clipPath id="SVGID_42_">
			<use xlink:href="#SVGID_41_"  style="overflow:visible;"/>
		</clipPath>
		<g class="st42">
			<path class="st41" d="M100-25l37.5-25v25H100z"/>
			<path class="st7" d="M100-25l37.5-25H100V-25z"/>
		</g>
	</g>
	<g transform="translate(9.452981309866695, 9.452981309866695) scale(0.2109403738026661) rotate(0, 50.0, 50.0)">
		<path class="st16" d="M453-270.2l3,9.1h9.6l-7.7,5.6l3,9.1L453-252l-7.7,5.6l2.9-9.1l-7.7-5.6h9.6L453-270.2"/>
	</g>
</g>
<g transform="translate(112.5, 0)">
	<g>
		<defs>
			<rect id="SVGID_43_" x="100" y="-50" width="37.5" height="25"/>
		</defs>
		<clipPath id="SVGID_44_">
			<use xlink:href="#SVGID_43_"  style="overflow:visible;"/>
		</clipPath>
		<g class="st43">
			<rect x="100" y="-50" class="st16" width="37.5" height="25"/>
			<rect x="100.9" y="-49.1" class="st44" width="35.7" height="23.2"/>
		</g>
	</g>
	<g id="empty_10_">
	</g>
</g>
<g transform="translate(225, 175)">
	<g>
		<defs>
			<rect id="SVGID_45_" x="100" y="-50" width="37.5" height="25"/>
		</defs>
		<clipPath id="SVGID_46_">
			<use xlink:href="#SVGID_45_"  style="overflow:visible;"/>
		</clipPath>
		<g class="st45">
			<rect x="100" y="-50" width="37.5" height="25"/>
		</g>
	</g>
	<path class="st2" d="M123.9-37.5l-3.1,1.1l0.6,3.3l-2.6-2.1l-2.6,2.1l0.6-3.3l-3.1-1.1l3.1-1.1l-0.6-3.3l2.6,2.1l2.6-2.1l-0.6,3.3
		L123.9-37.5z"/>
</g>
<g transform="translate(262.5, 175)">
	<g>
		<defs>
			<rect id="SVGID_47_" x="100" y="-50" width="37.5" height="25"/>
		</defs>
		<clipPath id="SVGID_48_">
			<use xlink:href="#SVGID_47_"  style="overflow:visible;"/>
		</clipPath>
		<g class="st46">
			<rect x="100" y="-50" class="st16" width="37.5" height="25"/>
			<rect x="100.9" y="-49.1" class="st44" width="35.7" height="23.2"/>
		</g>
	</g>
	<g id="empty_11_">
	</g>
</g>
<g transform="translate(112.5, 25)">
	<g>
		<defs>
			<rect id="SVGID_49_" x="100" y="-50" width="37.5" height="25"/>
		</defs>
		<clipPath id="SVGID_50_">
			<use xlink:href="#SVGID_49_"  style="overflow:visible;"/>
		</clipPath>
		<g class="st47">
			<rect x="100" y="-50" width="37.5" height="25"/>
		</g>
	</g>
	<g transform="translate(36.12725831600236, 11.127258316002361) scale(0.7774548336799527) rotate(0, 50.0, 50.0)">
		<path class="st16" d="M99.3-55.5c-0.3,0-0.4,0-0.5,0c-0.1-0.1-0.1-0.5,0-1.2c0.1-0.3,0.2-0.8,0.3-1.3c0.1-0.5,0.2-0.9,0.2-1.1
			c0.1-0.4,0.3-0.9,0.5-1.1l0.1-0.1l0.2,0.2c0.2,0.2,0.2,0.2,0.4,0.2c0.2,0,0.3,0,0.3-0.1c0.1-0.1,0.2-0.4,0-0.6
			c-0.1-0.3-0.6-0.4-1.2-0.3c-0.3,0.1-0.3,0.1-0.5,0.3C98.6-59.9,98-58,98-56.4c0,0.5,0.1,1.2,0.2,1.4c0.1,0.2,0.3,0.3,0.6,0.4
			c0.4,0.2,0.8,0.1,1-0.1c0.1-0.2,0.1-0.5,0-0.7C99.7-55.5,99.7-55.5,99.3-55.5"/>
		<path class="st16" d="M118.8-59.4c0,0-0.2,0.1-0.4,0.2c-1.8,0.8-4.4,1.3-7.3,1.6c-2.2,0.2-5.9,0-8.1-0.2c-0.2,0-0.5-0.1-0.7-0.1
			c-0.4,0-2.2-0.3-2.4-0.4c-0.2,0-0.2,0-0.2,0.5c0,0.2-0.1,0.3-0.1,0.4c0,0,0.1,0.1,0.6,0.3c2.1,0.8,5.1,1.5,8,1.7
			c2.3,0.1,4.6-0.1,6.3-0.6c2-0.6,3.5-1.6,4.2-2.9C118.7-59.2,118.8-59.4,118.8-59.4 M110.1-57.1c-1.8,0.2-3.4,0.1-6.3-0.3
			c-1.8-0.3-1.7-0.2-1.6-0.4c0-0.1,0.1-0.2,0.3-0.2c0.1,0,0.2,0.1,0.3,0.1c0.1,0,0.3,0.1,0.5,0.1c0.4,0.1,1.7,0.2,2.7,0.3
			c0.9,0.1,3.9,0.1,5.2,0c0.5,0,0.9,0,0.9,0C112-57.4,110.7-57.2,110.1-57.1"/>
		<path class="st16" d="M97.8-58.9c0,0-0.5-0.1-1-0.3c-1.1-0.3-1.6-0.5-2.1-0.5s-0.7,0.1-0.9,0.4c-0.1,0.3-0.1,0.5,0.1,0.6
			c0.3,0.3,0.7,0.4,2.2,0.6c0.8,0.1,1.2,0.1,1.3,0.2c0.1,0.1,0.2,0,0.3-0.3C97.8-58.7,97.9-58.8,97.8-58.9"/>
		<path class="st16" d="M105.5-60.7c-0.1,0-0.1-0.1-0.1-0.3c0-0.2-0.1-0.3-0.1-0.1c0,0-0.1,0.1-0.1,0.1s-0.2-0.2-0.3-0.5
			c-0.2-0.3-0.3-0.5-0.3-0.7c0-0.3,0-0.3-0.3-0.4c-0.3-0.2-0.3-0.1-0.3,0.3c0,0.6,0.3,1.3,0.8,1.8c0.3,0.3,0.7,0.7,1,0.8
			c0.2,0.1,0.9,0.1,1.4,0c0.4-0.1,0.9-0.3,1.2-0.5c0.2-0.1,0.8-1,0.9-1.3c0.2-0.4,0.2-0.8-0.2-1l-0.2-0.2l-0.1,0.1
			c-0.1,0.1-0.2,0.4-0.2,0.8c0,0.3-0.1,0.6-0.2,0.7c-0.1,0.1-0.1,0-0.2-0.1c0-0.2-0.2-0.2-0.2,0s-0.1,0.3-0.2,0.3
			c-0.1,0-0.1-0.1-0.1-0.2c0-0.2-0.1-0.3-0.2-0.3c-0.1,0-0.1,0.1-0.1,0.2c0,0.2,0,0.3-0.3,0.3c-0.2,0-0.3-0.1-0.1-0.3
			c0.1-0.2,0.1-0.2,0-0.3c-0.1,0-0.1,0-0.2,0c0,0,0,0.1,0,0.2c0.1,0.3,0,0.4-0.2,0.3c-0.2-0.1-0.2-0.3-0.1-0.4
			c0.1-0.1-0.1-0.2-0.3-0.1c-0.1,0.1-0.1,0.1,0,0.2l0.1,0.2l-0.1,0.1c-0.2,0.2-0.3,0.1-0.3-0.1c-0.1-0.4-0.2-0.5-0.2-0.2
			C105.8-60.6,105.8-60.5,105.5-60.7"/>
		<path class="st16" d="M103.2-66.1l0-0.3c0.1-0.6,0.3-0.8,0.5-0.3c0.1,0.2,0.1,0.7,0.1,0.8c0,0.1-0.1,0.1-0.2,0.2
			c-0.4,0-0.7,0.4-0.7,0.8c0,0.3,0.1,0.4,0.2,0.5c0.1,0,0.3,0.2,0.4,0.3c0.3,0.3,0.6,0.4,0.8,0.4c0.1,0,0.1,0,0.1,0.1
			c0.1,0.2,0.1,0.3,0.3,0.4c0.3,0.1,0.3,0.2,0.3,0.5c0,0.2,0,0.3,0.1,0.3l0.1,0.1l-0.1-0.2c0-0.1,0-0.2,0.1-0.3
			c0.2-0.1,0.3-0.1,0.3,0.2c0,0.3,0,0.3,0.1,0.3c0.2,0,0.2-0.1,0.2-0.3s0-0.3,0.1-0.3c0.1,0,0.1,0,0.2,0.1c0.1,0.1,0.1,0.1,0,0.3
			c-0.1,0.3-0.1,0.3,0.2,0.3h0.2l0-0.2c0-0.1,0-0.2-0.1-0.3c0-0.1,0-0.1,0.1-0.2c0.1-0.1,0.1-0.1,0.3,0.1c0.1,0.1,0.2,0.1,0.1,0.3
			c-0.1,0.3-0.1,0.4,0,0.4c0.2,0,0.3,0,0.3-0.1c0-0.1,0-0.3,0-0.4c0-0.3,0-0.4,0.2-0.3c0.1,0,0.1,0.1,0.1,0.4c0,0.3,0.1,0.4,0.2,0.4
			c0.1,0,0.1-0.1,0.1-0.4c0-0.4,0.1-0.5,0.3-0.4c0.2,0,0.2,0.1,0.1,0.3c-0.1,0.2,0,0.3,0.1,0.1c0.1-0.1,0.2-0.3,0.3-0.7
			c0.1-0.5,0.1-0.6,0.5-0.6c0.8-0.2,1.4-0.5,1.5-0.9c0-0.2,0-0.2-0.2-0.4c-0.1-0.2-0.3-0.3-0.4-0.9c-0.4-1-0.5-1.3-0.3-1.5
			s0.4,0.1,0.7,0.7c0.1,0.2,0.2,0.3,0.2,0.4c0,0.3,0.2,0,0.2-0.3c0-0.1,0-0.4-0.1-0.9c-0.1-0.4-0.2-0.7-0.2-0.8
			c0-0.1-0.3-0.7-0.5-0.9c-0.4-0.4-1-0.8-1.7-0.9c-0.5-0.1-1.9-0.1-2.4,0c-1,0.2-1.8,0.6-2.3,1.2c-0.4,0.4-0.5,0.7-0.6,1.1
			c-0.1,0.4,0.1,1,0.3,1.4L103.2-66.1 M108-66.2c0.6-0.1,1.2,0.3,1.2,1c0,0.4-0.1,0.6-0.3,0.8c-0.2,0.1-0.5,0.2-0.8,0.1
			c-0.3-0.1-0.7-0.5-0.8-0.8C107.2-65.7,107.4-66.1,108-66.2 M106.6-64.5c0.1,0.1,0.2,0.1,0.3,0c0-0.1,0.1-0.1,0.1-0.1
			c0.1,0.1,0.3,0.6,0.4,0.9c0.1,0.3,0.1,0.3,0,0.4c-0.1,0.1-0.3,0.1-0.5-0.1l-0.1-0.1v0.2c0,0.1,0,0.1-0.1,0.1c0,0-0.1,0-0.2,0
			c-0.5,0.1-0.6-0.4-0.3-1C106.4-64.6,106.5-64.7,106.6-64.5 M104.3-65.8c0.2-0.2,0.3-0.3,0.7-0.4c0.4-0.1,0.8-0.1,1.1,0.2
			c0.2,0.1,0.2,0.2,0.2,0.5c0,0.5-0.3,0.8-0.8,1c-0.7,0.2-1.3-0.1-1.4-0.6C104-65.3,104.1-65.5,104.3-65.8"/>
	</g>
</g>
<g transform="translate(75, 25)">
	<g>
		<defs>
			<rect id="SVGID_51_" x="100" y="-50" width="37.5" height="25"/>
		</defs>
		<clipPath id="SVGID_52_">
			<use xlink:href="#SVGID_51_"  style="overflow:visible;"/>
		</clipPath>
		<g class="st48">
			<path class="st16" d="M100-25l37.5-25v25H100z"/>
			<path class="st38" d="M100-25l37.5-25H100V-25z"/>
		</g>
	</g>
	<circle class="st49" cx="105" cy="-45" r="2.3"/>
</g>
<g transform="translate(37.5, 175)">
	<g>
		<defs>
			<rect id="SVGID_53_" x="100" y="-50" width="37.5" height="25"/>
		</defs>
		<clipPath id="SVGID_54_">
			<use xlink:href="#SVGID_53_"  style="overflow:visible;"/>
		</clipPath>
		<g class="st50">
			<rect x="100" y="-50" class="st51" width="37.5" height="25"/>
		</g>
	</g>
	<path class="st16" d="M116.8-37.5l-3.4,0.7l1.9,2.9l-2.9-1.9l-0.7,3.4l-0.7-3.4l-2.9,1.9l1.9-2.9l-3.4-0.7l3.4-0.7l-1.9-2.9
		l2.9,1.9l0.7-3.4l0.7,3.4l2.9-1.9l-1.9,2.9L116.8-37.5z"/>
</g>
<g transform="translate(37.5, 150)">
	<g>
		<defs>
			<rect id="SVGID_55_" x="100" y="-50" width="37.5" height="25"/>
		</defs>
		<clipPath id="SVGID_56_">
			<use xlink:href="#SVGID_55_"  style="overflow:visible;"/>
		</clipPath>
		<g class="st52">
			<rect x="100" y="-50" class="st49" width="37.5" height="25"/>
			<path class="st53" d="M100-50l21.7,12.5L100-25V-50z"/>
		</g>
	</g>
	<g transform="translate(99.67403539381338, 29.674035393813384) scale(0.40651929212373233) rotate(0, 50.0, 50.0)">
		<path d="M74.6-177.3l2.9,9.1h9.6l-7.7,5.6l3,9.1l-7.7-5.6l-7.7,5.6l3-9.1l-7.7-5.6h9.6L74.6-177.3"/>
	</g>
</g>
</svg>
