<?xml version="1.0" encoding="utf-8"?>
<!-- Generator: Adobe Illustrator 19.0.0, SVG Export Plug-In . SVG Version: 6.00 Build 0)  -->
<svg version="1.1" id="total-flag" xmlns:ev="http://www.w3.org/2001/xml-events"
	 xmlns="http://www.w3.org/2000/svg" xmlns:xlink="http://www.w3.org/1999/xlink" x="0px" y="0px" viewBox="100 -50 300 200"
	 style="enable-background:new 100 -50 300 200;" xml:space="preserve">
<style type="text/css">
	.st0{clip-path:url(#SVGID_2_);}
	.st1{fill:#FFCE00;}
	.st2{fill:#FFFFFF;}
	.st3{fill:#DD0482;}
	.st4{clip-path:url(#SVGID_4_);}
	.st5{fill:#003897;}
	.st6{fill:#FF0000;}
	.st7{clip-path:url(#SVGID_6_);}
	.st8{fill:#0066CC;}
	.st9{clip-path:url(#SVGID_8_);}
	.st10{fill:#FF0032;}
	.st11{fill:#FF9932;}
	.st12{fill:#14B53A;}
	.st13{fill:#760188;}
	.st14{fill:#75197D;}
	.st15{fill:#935316;}
	.st16{fill:#FF9901;}
	.st17{fill:#229E45;}
	.st18{fill:#003265;}
	.st19{fill:#CC6600;}
	.st20{fill:#D0A650;}
	.st21{fill:#339933;}
	.st22{clip-path:url(#SVGID_10_);}
	.st23{clip-path:url(#SVGID_12_);}
	.st24{clip-path:url(#SVGID_14_);}
	.st25{fill:#CC0000;}
	.st26{clip-path:url(#SVGID_16_);}
	.st27{fill:#CC0033;}
	.st28{fill:#F1D7A6;}
	.st29{fill:#F94888;}
	.st30{clip-path:url(#SVGID_18_);}
	.st31{fill:none;stroke:#FF9932;stroke-width:3;}
	.st32{clip-path:url(#SVGID_20_);}
	.st33{fill:#FEC50C;}
	.st34{clip-path:url(#SVGID_22_);}
	.st35{clip-path:url(#SVGID_24_);}
	.st36{clip-path:url(#SVGID_26_);}
	.st37{clip-path:url(#SVGID_28_);}
	.st38{fill:#FF3333;}
</style>
<g transform="translate(0, 100)">
	<g>
		<defs>
			<rect id="SVGID_1_" x="100" y="-50" width="150" height="100"/>
		</defs>
		<clipPath id="SVGID_2_">
			<use xlink:href="#SVGID_1_"  style="overflow:visible;"/>
		</clipPath>
		<g class="st0">
			<path class="st1" d="M100,50L250-50V50H100z"/>
			<path class="st2" d="M100,50L250-50H100V50z"/>
		</g>
	</g>
	<g transform="translate(7.467215234491997, 7.467215234491997) scale(0.2506556953101601) rotate(0, 50.0, 50.0)">
		<path class="st3" d="M449-197.6l11.8,36.3H499l-30.9,22.5l11.8,36.3L449-125l-30.9,22.5l11.8-36.3L399-161.3h38.2L449-197.6"/>
	</g>
</g>
<g transform="translate(150, 0)">
	<g>
		<defs>
			<rect id="SVGID_3_" x="100" y="-50" width="150" height="100"/>
		</defs>
		<clipPath id="SVGID_4_">
			<use xlink:href="#SVGID_3_"  style="overflow:visible;"/>
		</clipPath>
		<g class="st4">
			<path class="st5" d="M100,50L250-50V50H100z"/>
			<path class="st2" d="M100,50L250-50H100V50z"/>
		</g>
	</g>
	<g transform="translate(9.08695097795441, 9.08695097795441) scale(0.2182609804409118) rotate(0, 50.0, 50.0)">
		<path class="st6" d="M508.2-227.2l11.8,36.3h38.2l-30.9,22.5l11.8,36.3l-30.9-22.5l-30.9,22.5l11.8-36.3l-30.9-22.5h38.2
			L508.2-227.2"/>
	</g>
</g>
<g transform="translate(150, 100)">
	<g>
		<defs>
			<rect id="SVGID_5_" x="100" y="-50" width="150" height="100"/>
		</defs>
		<clipPath id="SVGID_6_">
			<use xlink:href="#SVGID_5_"  style="overflow:visible;"/>
		</clipPath>
		<g class="st7">
			<rect x="100" y="-50" class="st8" width="150" height="100"/>
		</g>
	</g>
	<path class="st2" d="M197.5,0l-11.7,4.5l5.1,11.5l-11.5-5.1L175,22.5l-4.5-11.7l-11.5,5.1l5.1-11.5L152.5,0l11.7-4.5l-5.1-11.5
		l11.5,5.1l4.5-11.7l4.5,11.7l11.5-5.1l-5.1,11.5L197.5,0z"/>
</g>
<g transform="translate(75, 50)">
	<g>
		<defs>
			<rect id="SVGID_7_" x="100" y="-50" width="75" height="50"/>
		</defs>
		<clipPath id="SVGID_8_">
			<use xlink:href="#SVGID_7_"  style="overflow:visible;"/>
		</clipPath>
		<g class="st9">
			<path class="st10" d="M100-50v150l51.3-9L100-50z"/>
			<path class="st11" d="M100-50l51.3,141l45.1-26L100-50z"/>
			<path class="st1" d="M100-50l96.4,114.9L229.9,25L100-50z"/>
			<path class="st12" d="M100-50l129.9,75l17.8-49L100-50z"/>
			<path class="st13" d="M100-50l147.7,26V-76L100-50z"/>
			<path class="st14" d="M100-50l147.7-26l-17.8-49L100-50z"/>
			<path class="st15" d="M100-50l129.9-75l-33.5-39.9L100-50z"/>
			<path class="st6" d="M100-50l96.4-114.9l-45.1-26L100-50z"/>
			<path class="st16" d="M100-50l51.3-141l-51.3-9V-50z"/>
			<path class="st1" d="M100-50v-150l-51.3,9L100-50z"/>
			<path class="st17" d="M100-50L48.7-191l-45.1,26L100-50z"/>
			<path class="st18" d="M100-50L3.6-164.9L-29.9-125L100-50z"/>
			<path class="st13" d="M100-50l-129.9-75l-17.8,49L100-50z"/>
			<path class="st15" d="M100-50L-47.7-76V-24L100-50z"/>
			<path class="st6" d="M100-50L-47.7-24l17.8,49L100-50z"/>
			<path class="st19" d="M100-50L-29.9,25L3.6,64.9L100-50z"/>
			<path class="st20" d="M100-50L3.6,64.9l45.1,26L100-50z"/>
			<path class="st21" d="M100-50L48.7,91l51.3,9V-50z"/>
		</g>
	</g>
	<g id="empty">
	</g>
</g>
<g transform="translate(75, 0)">
	<g>
		<defs>
			<rect id="SVGID_9_" x="100" y="-50" width="75" height="50"/>
		</defs>
		<clipPath id="SVGID_10_">
			<use xlink:href="#SVGID_9_"  style="overflow:visible;"/>
		</clipPath>
		<g class="st22">
			<rect x="100" y="-50" class="st14" width="75" height="16.7"/>
			<rect x="100" y="-33.3" class="st2" width="75" height="16.7"/>
			<rect x="100" y="-16.7" width="75" height="16.7"/>
		</g>
	</g>
	<g transform="translate(47.59452940968443, 22.594529409684426) scale(0.5481094118063115) rotate(0, 50.0, 50.0)">
		<path class="st3" d="M174.4-95.2c1-0.2,2-0.4,3.1-0.3c0.8,0,1.4-0.1,2.1,0.1c2.2,1.5,4.9-0.5,4.7-2.9c-0.5-1.8-2.7-3.1-4.5-2.3
			c-1.1,0.4-1.4,1.1,0,1.2c1.9,1.2-0.3,3.7-1.9,2.6c-1.8-1.2-1.8-4.2,0.4-4.9c-3.3-1-1.1-6.9,1.9-4.6c0.5,0.3,0.4,0.9,0.4,1.4
			c-0.3,0.8-1.2,0.9-1.9,1.1c1.4,1.8,4.5,1.1,5.3-0.9c1.3-3.5-2.9-4.8-5.6-3.4c-0.6,0.2-1.6,0.2-2.1,0c-0.7-0.1-1.3-0.2-1.9-0.3
			c-0.1,0-0.4-0.1-0.4,0.1v12.8C174-95.1,174.2-95.2,174.4-95.2"/>
		<path class="st3" d="M148.5-95.4c0.7-0.2,1.4-0.2,2.2-0.2c1-0.1,2.1,0.1,3.1,0.3c0.1-0.1,0.4,0.1,0.4-0.2v-12.8
			c0-0.2-0.3-0.1-0.4-0.2c-0.6,0.2-1.3,0.3-1.9,0.3c-0.6,0.2-1.6,0.2-2.2,0l0,0c-2.6-1.5-6.8-0.1-5.6,3.5c0.9,1.9,4,2.7,5.3,0.8
			c-0.6-0.2-1.5-0.3-1.8-1.1c-0.1-0.5-0.1-1.1,0.3-1.5c3-2.3,5.2,3.7,1.9,4.6c2.1,0.8,2.3,3.8,0.3,4.9c-1.7,1.1-3.8-1.4-1.9-2.6
			c1.4-0.1,1.1-0.8,0-1.2c-1.8-0.8-3.9,0.6-4.4,2.3C143.6-95.8,146.3-93.9,148.5-95.4"/>
		<path class="st3" d="M179.8-70.6c-1.1,0.4-1.4,1.1,0,1.2c1.9,1.2-0.3,3.7-1.9,2.6c-1.9-1.2-1.8-4.2,0.4-4.9
			c-3.3-0.9-1.1-6.9,1.9-4.6c0.4,0.3,0.4,0.9,0.4,1.4c-0.3,0.8-1.2,0.9-1.9,1.1c1.4,1.9,4.4,1.1,5.3-0.8c1.3-3.5-2.9-4.8-5.6-3.5
			c-0.6,0.2-1.6,0.2-2.1,0c-0.7,0-1.3-0.1-1.9-0.3c-0.2,0.1-0.4-0.1-0.4,0.2v12.8c0,0.2,0.3,0.1,0.4,0.2c1-0.2,2-0.3,3.1-0.3
			c0.8,0,1.4-0.1,2.1,0.2c2.2,1.5,4.9-0.5,4.7-3C183.7-70.1,181.6-71.3,179.8-70.6"/>
		<path class="st3" d="M153.7-78.3c-0.6,0.2-1.3,0.3-1.9,0.3c-0.6,0.2-1.6,0.2-2.2,0l0,0c-2.6-1.4-6.8,0-5.6,3.5
			c0.9,2,4,2.7,5.3,0.8c-0.6-0.2-1.5-0.3-1.8-1.1c-0.1-0.5-0.1-1.1,0.3-1.4c3-2.3,5.2,3.7,1.9,4.6c2.1,0.8,2.3,3.8,0.3,4.9
			c-1.7,1.1-3.8-1.4-1.9-2.6c1.4-0.1,1.1-0.8,0-1.2c-1.8-0.8-3.9,0.5-4.4,2.3c-0.2,2.5,2.5,4.4,4.6,3c0.7-0.2,1.4-0.2,2.2-0.2
			c1.1,0,2.1,0.1,3.1,0.3c0.1,0,0.4,0.1,0.4-0.1v-12.8C154.1-78.4,153.8-78.3,153.7-78.3"/>
		<path class="st3" d="M169-91.8v-20h-10v20h-20v10h20v20h10v-20h20v-10H169"/>
	</g>
</g>
<g transform="translate(0, 50)">
	<g>
		<defs>
			<rect id="SVGID_11_" x="100" y="-50" width="75" height="50"/>
		</defs>
		<clipPath id="SVGID_12_">
			<use xlink:href="#SVGID_11_"  style="overflow:visible;"/>
		</clipPath>
		<g class="st23">
			<rect x="100" y="-50" width="75" height="50"/>
		</g>
	</g>
	<g transform="translate(36.12725831600236, 11.127258316002361) scale(0.7774548336799527) rotate(0, 50.0, 50.0)">
		<path class="st3" d="M131.4-42.7c-0.1,0-0.3,0-0.4,0.1c-0.6,0.2,0.1,1,0.4,0.2V-42.7"/>
		<path class="st3" d="M132.6-42c0.1,0,0.1,0,0.4-0.1c0.6-0.6-0.4-1.2-0.4-0.2L132.6-42"/>
		<path class="st3" d="M134.1-42.3c0.5-0.1,0.5-0.2,0.8-0.8C134.2-43.1,134-42.9,134.1-42.3"/>
		<path class="st3" d="M134.5-45c-0.1,0-0.2,0-0.4,0.2c-0.3,0.2-0.6,0.9-0.2,1.1c0.6,0.5,0.6-0.5,0.6-0.8L134.5-45"/>
		<path class="st3" d="M124.3-57c0,0.4-0.2,0.9-0.4,1.3c-0.2,0.8-0.4,1.5-0.5,2.3c0,0.4-0.1,1.3-0.3,1.5c-0.2,0.3-0.5,0.1-0.8,0.2
			c-0.7,0.1-0.9,1.3,0.2,2.3c0.7,0.5,1.2,0.6,2,0.6c0.6,0,1-0.2,1.6,0.1c0.4,0.1,1.1,1.1,1.3,1.5c0.2,0.2,0.5,1.8,0.3,2.1
			c0,0.4-0.3,1.1,0,1.5c0.4,0.2,1,0,1-0.5c0-0.3-0.3-0.6-0.3-0.9c0-0.1,0.1-0.2,0.3-0.2c0.4-0.1,0.4,0.1,0.6,0.5
			c0.1,0.6-0.2,1.1,0.4,1.5c-0.2,0.5-0.3,0.8,0.2,1.1l-0.3,0.2l-1.2,0.3c0.4-0.6,0.4-0.9-0.1-1.5c-0.7,0.5-0.6,0.8-0.4,1.4
			c-1.1-0.5-0.3-2.2-1.7-1.1c-0.3-1.3,0.2-1.8-0.1-3.6c-0.1-0.3-0.1-0.9-0.3-1c-0.2-0.3-0.8-0.3-0.9,0.2v1.2l-0.2,2.4
			c0,0.7-0.1,1.5,0.2,2.1c0.3,0.5,1.2,1.1,1.8,1.7c0.7,0.5,1.1,1.2,2,1.5l2.4-0.1c0.6,0,0.9,0.1,1.6,0.1c1.1-0.1,1-0.4,1.9-0.8
			c0.5-0.4,1.2-0.6,1.6-1.1c1-1.1,0.6-3.2,0.6-4.5c0-0.5,0.1-0.8,0.1-1.2c0-0.4,0.2-0.8,0-1.1c-0.3-0.5-1-0.1-1.2,0.4
			c-0.4,1,0.2,3.3-0.6,4.3c-0.5,0.9-1.3,0.5-1.6,0.5c-0.3,0-0.4,0.1-0.7,0.1l-0.7-0.1c-0.3,0.1-0.5,0.3-1,0.3
			c-0.3-0.1-0.8-0.3-0.9-0.6c-0.3-0.7,0-1.1,0-1.8c0-0.4-0.2-0.8-0.3-1.1c0.4,0.2,0.5,0.2,1,0c-0.1,0.5-0.3,1.1-0.2,1.5
			c0.1,0.5,0.8,0.4,0.9,0c0.2-0.4,0-1.2-0.1-1.6l0.9-0.1c-0.1,0.4-0.3,1.1-0.3,1.5c0.1,0.5,1.1,0.2,1.2,0c0.2-0.2-0.1-0.8,0-1.1
			c0.2-0.5,0.8-0.4,1-0.7c0-0.1,0.6-2.1,1-2.4c1.4-1.2,3.4-0.1,4.1-2.2c0.1-0.2,0.1-0.4,0.1-0.5c0-0.1,0-0.4-0.1-0.5
			c-0.3-1.2-1.5,0.3-1.8-0.7c-0.1-0.2,0-0.9,0.1-1.1c0.1-0.6,0.2-1.2,0.4-1.8c0-0.8-0.4-1.3-0.4-2c0.2,0.3,0.6,1.2,0.6,1.7
			c0.1,0.2,0,0.4,0,0.6v0.7c0,0.5-0.1,1.2,0,1.8c1-0.4,0.9-1,1-1.9c0.2-1.8,0.7-2.5,0.1-4.3c-0.2-0.8-0.9-2.3-1.3-2.8
			c-0.3-0.5-0.9-0.8-1.3-1.1c-0.4-0.4-0.8-0.7-1.2-1c-1.3-0.7-3.3-0.8-4.7-0.8c-0.9,0-3.4,0.5-4.1,1c-0.6,0.3-1.1,0.8-1.7,1.1
			c-0.7,0.5-1.2,0.9-1.7,1.5c-0.3,0.3-1.3,2.8-1.4,3.3c-0.1,0.8,0.1,1.5,0.2,2.1c0.1,0.8,0,1.1,0,1.8c0,0.3,0,1.1,0.6,0.9
			c0.3-0.1,0.3-1,0.4-1.3c0.2-1.7,0-0.9,0.7-2.4C124.1-56.4,124-56.5,124.3-57 M134.2-54.6c0.7,0,1.8,0.5,2.2,1
			c0.7,0.9,0.4,2.5-0.5,3c-0.4,0.2-1,0.3-1.3,0.3c-0.4,0-0.6-0.1-0.9-0.3c-1-0.5-0.9-0.9-1-1.8c-0.1-0.3-0.2-0.8-0.1-1.1
			C132.8-54.1,133.5-54.4,134.2-54.6 M126.7-54.4c0.5,0,1,0,1.4,0.1c1.1,0.5,1.8,1.9,1,3c-0.3,0.4-1.1,0.5-1.6,0.8l-0.9,0.3
			c-0.4,0.1-0.7-0.1-1-0.3c-0.8-0.5-0.9-0.6-0.9-1.5c0-0.3,0-0.6,0.1-1C125.1-54,125.8-54.2,126.7-54.4 M131.1-50.8
			c0.5,0.5,1.1,1.8,0.9,2.5c-0.1,0.5-0.8,1.3-1.2,0.2c-0.1,0.1-0.6,0.2-0.7,0.2c-0.4-0.1-0.3-0.8-0.2-1.1
			C130-49.7,130.4-50.4,131.1-50.8"/>
		<path class="st3" d="M111.4-40c0-1.5-0.2-1.5-0.5-2.8l-0.6-2c-0.1-0.5-0.5-1.6-0.2-2.1c0.3-0.5,0.8,0,1.7,0.1
			c1.2,0.1,2.9,0.4,4.1,0c0.2,0,0.8-0.1,0.9-0.2c0.3-0.2,0.2-0.9,0-1.1c-0.3-0.2-1-0.2-1.3-0.2c-0.7-0.2-0.7-0.3-1.5-0.3
			c-1,0-1,0.2-2.8,0.2c-0.5,0-0.5-0.2-1.5-0.2l-2.8,0.1c-0.2,0-0.9,0-1.1,0.1c-0.5,0.2-0.4,1.5-0.2,2c0.3,0.5,0.9,0.1,1.6,0
			c0.6-0.1,0.9,0.2,1.2,0.8L109-44l0.8,1.2l0.4,0.8l0.4,0.6C110.9-40.7,110.8-40.3,111.4-40"/>
		<path class="st3" d="M111.7-41.1c0.4-0.5,1.1-2.5,1.3-3.3c0.1-0.4,0.3-0.9,0.1-1.1c-0.2-0.2-0.7-0.2-0.9-0.2c-0.3,0-1,0-1.2,0.2
			c-0.2,0.2-0.1,0.8,0,1.1l0.4,1.8C111.6-41.8,111.4-41.8,111.7-41.1"/>
		<path class="st3" d="M111.5-52.8c-1,0.2-2.1,0.8-2.3,1.8c-0.2,1.3,0.8,1.7,1.8,1.9c0.3,0.1,0.8,0.3,1.1,0.3
			c0.8-0.1,1.8-1.5,1.7-2.4C113.4-52.2,112.4-52.9,111.5-52.8"/>
		<path class="st3" d="M145.3-36.3l-2,0.9l-3.3,0.8c-1.3,0.2-2.5-0.2-3.8-0.2h-1.9l-1.3-0.1h-2.3l-2.3,0.1l-5.4,0.4l-2-0.2
			c-0.7,0-1.6-0.1-2.2-0.3c-0.9-0.4-1.1-1-2.3-0.9c-0.7,0-1.6,0.7-1.6,1.3c0.1,0.5,0.5,0.8,0.2,1.3c-0.4,1.1-1.7,1.7-0.9,3.3
			c0.1,0.2,0.2,0.3,0.3,0.5c0.2,0.1,0.4,0.2,0.8,0.3c1.4,0.2,1.7-0.2,2.8-0.5l6.9-1.7h1l3.5-0.2l2.5-0.1l4.7,0.1l1,0.2l1.8,0.1
			l1,0.2l0.7,0.1l0.6,0.1c1,0.1,2.1,0.1,3.1,0.6c0.9,0.2,1.6,1.1,2.5,0.3c0.8-0.5,0.8-1.8,0.4-2.6c-0.4-0.4-0.7-0.5-0.8-1
			c-0.4-0.6,0.3-1.2,0.3-1.6C147.7-36.6,146-36.6,145.3-36.3"/>
		<path class="st3" d="M148.3-50.2c-0.4,0-1,0-1.3,0.1c-1.1,0.5-1.2,2-1.2,3c0,2,1.8,3.3,3.2,4.3c0.4,0.3,1.3,1.3,1.8,1.3
			c0.5,0,1.5-1.1,1.8-1.5l1-0.9c1.2-1.2,2.5-3.8,1.2-5.4c-0.8-1-2.2-1-3-0.1c-0.5,0.3-0.7,1-1.1,0.9c-0.4,0-0.6-0.6-0.9-0.9
			C149.3-49.8,149-50.2,148.3-50.2"/>
	</g>
</g>
<g transform="translate(37.5, 25)">
	<g>
		<defs>
			<rect id="SVGID_13_" x="100" y="-50" width="37.5" height="25"/>
		</defs>
		<clipPath id="SVGID_14_">
			<use xlink:href="#SVGID_13_"  style="overflow:visible;"/>
		</clipPath>
		<g class="st24">
			<path class="st1" d="M100-25l37.5-25v25H100z"/>
			<path class="st2" d="M100-25l37.5-25H100V-25z"/>
		</g>
	</g>
	<path class="st25" d="M107.6-45l-1.4,0.4l0.9,1.1l-1.4-0.5l0.1,1.4l-0.8-1.2l-0.8,1.2l0.1-1.4l-1.4,0.5l0.9-1.1l-1.4-0.4l1.4-0.4
		l-0.9-1.1l1.4,0.5l-0.1-1.4l0.8,1.2l0.8-1.2l-0.1,1.4l1.4-0.5l-0.9,1.1L107.6-45z"/>
</g>
<g transform="translate(37.5, 0)">
	<g>
		<defs>
			<rect id="SVGID_15_" x="100" y="-50" width="37.5" height="25"/>
		</defs>
		<clipPath id="SVGID_16_">
			<use xlink:href="#SVGID_15_"  style="overflow:visible;"/>
		</clipPath>
		<g class="st26">
			<polygon class="st27" points="-50,-150 -41.2,-147.7 -38.3,-142.7 -47.1,-145 			"/>
			<polygon class="st28" points="-47.1,-145 -38.3,-142.7 -35.5,-137.7 -44.3,-140 			"/>
			<polygon class="st27" points="-44.3,-140 -35.5,-137.7 -32.6,-132.7 -41.4,-135 			"/>
			<polygon class="st28" points="-41.4,-135 -32.6,-132.7 -29.7,-127.7 -38.5,-130 			"/>
			<polygon class="st27" points="-38.5,-130 -29.7,-127.7 -26.9,-122.7 -35.7,-125 			"/>
			<polygon class="st28" points="-35.7,-125 -26.9,-122.7 -24,-117.7 -32.8,-120 			"/>
			<polygon class="st27" points="-32.8,-120 -24,-117.7 -21.2,-112.7 -30,-115 			"/>
			<polygon class="st28" points="-30,-115 -21.2,-112.7 -18.3,-107.7 -27.1,-110 			"/>
			<polygon class="st27" points="-27.1,-110 -18.3,-107.7 -15.4,-102.7 -24.2,-105 			"/>
			<polygon class="st28" points="-24.2,-105 -15.4,-102.7 -12.6,-97.7 -21.4,-100 			"/>
			<polygon class="st27" points="-21.4,-100 -12.6,-97.7 -9.7,-92.7 -18.5,-95 			"/>
			<polygon class="st28" points="-18.5,-95 -9.7,-92.7 -6.8,-87.7 -15.6,-90 			"/>
			<polygon class="st27" points="-15.6,-90 -6.8,-87.7 -4,-82.7 -12.8,-85 			"/>
			<polygon class="st28" points="-12.8,-85 -4,-82.7 -1.1,-77.7 -9.9,-80 			"/>
			<polygon class="st27" points="-9.9,-80 -1.1,-77.7 1.7,-72.7 -7.1,-75 			"/>
			<polygon class="st28" points="-7.1,-75 1.7,-72.7 4.6,-67.7 -4.2,-70 			"/>
			<polygon class="st27" points="-4.2,-70 4.6,-67.7 7.5,-62.7 -1.3,-65 			"/>
			<polygon class="st28" points="-1.3,-65 7.5,-62.7 10.3,-57.7 1.5,-60 			"/>
			<polygon class="st27" points="1.5,-60 10.3,-57.7 13.2,-52.7 4.4,-55 			"/>
			<polygon class="st28" points="4.4,-55 13.2,-52.7 16.1,-47.7 7.3,-50 			"/>
			<polygon class="st27" points="7.3,-50 16.1,-47.7 18.9,-42.7 10.1,-45 			"/>
			<polygon class="st28" points="10.1,-45 18.9,-42.7 21.8,-37.7 13,-40 			"/>
			<polygon class="st27" points="13,-40 21.8,-37.7 24.7,-32.7 15.8,-35 			"/>
			<polygon class="st28" points="15.8,-35 24.7,-32.7 27.5,-27.7 18.7,-30 			"/>
			<polygon class="st27" points="18.7,-30 27.5,-27.7 30.4,-22.7 21.6,-25 			"/>
			<polygon class="st28" points="-41.2,-147.7 -32.4,-145.4 -29.5,-140.4 -38.3,-142.7 			"/>
			<polygon class="st27" points="-38.3,-142.7 -29.5,-140.4 -26.7,-135.4 -35.5,-137.7 			"/>
			<polygon class="st28" points="-35.5,-137.7 -26.7,-135.4 -23.8,-130.4 -32.6,-132.7 			"/>
			<polygon class="st27" points="-32.6,-132.7 -23.8,-130.4 -20.9,-125.4 -29.7,-127.7 			"/>
			<polygon class="st28" points="-29.7,-127.7 -20.9,-125.4 -18.1,-120.4 -26.9,-122.7 			"/>
			<polygon class="st27" points="-26.9,-122.7 -18.1,-120.4 -15.2,-115.4 -24,-117.7 			"/>
			<polygon class="st28" points="-24,-117.7 -15.2,-115.4 -12.4,-110.4 -21.2,-112.7 			"/>
			<polygon class="st27" points="-21.2,-112.7 -12.4,-110.4 -9.5,-105.4 -18.3,-107.7 			"/>
			<polygon class="st28" points="-18.3,-107.7 -9.5,-105.4 -6.6,-100.4 -15.4,-102.7 			"/>
			<polygon class="st27" points="-15.4,-102.7 -6.6,-100.4 -3.8,-95.4 -12.6,-97.7 			"/>
			<polygon class="st28" points="-12.6,-97.7 -3.8,-95.4 -0.9,-90.4 -9.7,-92.7 			"/>
			<polygon class="st27" points="-9.7,-92.7 -0.9,-90.4 2,-85.4 -6.8,-87.7 			"/>
			<polygon class="st28" points="-6.8,-87.7 2,-85.4 4.8,-80.4 -4,-82.7 			"/>
			<polygon class="st27" points="-4,-82.7 4.8,-80.4 7.7,-75.4 -1.1,-77.7 			"/>
			<polygon class="st28" points="-1.1,-77.7 7.7,-75.4 10.6,-70.4 1.7,-72.7 			"/>
			<polygon class="st27" points="1.7,-72.7 10.6,-70.4 13.4,-65.4 4.6,-67.7 			"/>
			<polygon class="st28" points="4.6,-67.7 13.4,-65.4 16.3,-60.4 7.5,-62.7 			"/>
			<polygon class="st27" points="7.5,-62.7 16.3,-60.4 19.1,-55.4 10.3,-57.7 			"/>
			<polygon class="st28" points="10.3,-57.7 19.1,-55.4 22,-50.4 13.2,-52.7 			"/>
			<polygon class="st27" points="13.2,-52.7 22,-50.4 24.9,-45.4 16.1,-47.7 			"/>
			<polygon class="st28" points="16.1,-47.7 24.9,-45.4 27.7,-40.4 18.9,-42.7 			"/>
			<polygon class="st27" points="18.9,-42.7 27.7,-40.4 30.6,-35.4 21.8,-37.7 			"/>
			<polygon class="st28" points="21.8,-37.7 30.6,-35.4 33.5,-30.4 24.7,-32.7 			"/>
			<polygon class="st27" points="24.7,-32.7 33.5,-30.4 36.3,-25.4 27.5,-27.7 			"/>
			<polygon class="st28" points="27.5,-27.7 36.3,-25.4 39.2,-20.4 30.4,-22.7 			"/>
			<polygon class="st27" points="-32.4,-145.4 -23.6,-143.2 -20.7,-138.2 -29.5,-140.4 			"/>
			<polygon class="st28" points="-29.5,-140.4 -20.7,-138.2 -17.9,-133.2 -26.7,-135.4 			"/>
			<polygon class="st27" points="-26.7,-135.4 -17.9,-133.2 -15,-128.2 -23.8,-130.4 			"/>
			<polygon class="st28" points="-23.8,-130.4 -15,-128.2 -12.1,-123.2 -20.9,-125.4 			"/>
			<polygon class="st27" points="-20.9,-125.4 -12.1,-123.2 -9.3,-118.2 -18.1,-120.4 			"/>
			<polygon class="st28" points="-18.1,-120.4 -9.3,-118.2 -6.4,-113.2 -15.2,-115.4 			"/>
			<polygon class="st27" points="-15.2,-115.4 -6.4,-113.2 -3.5,-108.2 -12.4,-110.4 			"/>
			<polygon class="st28" points="-12.4,-110.4 -3.5,-108.2 -0.7,-103.2 -9.5,-105.4 			"/>
			<polygon class="st27" points="-9.5,-105.4 -0.7,-103.2 2.2,-98.2 -6.6,-100.4 			"/>
			<polygon class="st28" points="-6.6,-100.4 2.2,-98.2 5,-93.2 -3.8,-95.4 			"/>
			<polygon class="st27" points="-3.8,-95.4 5,-93.2 7.9,-88.2 -0.9,-90.4 			"/>
			<polygon class="st28" points="-0.9,-90.4 7.9,-88.2 10.8,-83.2 2,-85.4 			"/>
			<polygon class="st27" points="2,-85.4 10.8,-83.2 13.6,-78.2 4.8,-80.4 			"/>
			<polygon class="st28" points="4.8,-80.4 13.6,-78.2 16.5,-73.2 7.7,-75.4 			"/>
			<polygon class="st27" points="7.7,-75.4 16.5,-73.2 19.4,-68.2 10.6,-70.4 			"/>
			<polygon class="st28" points="10.6,-70.4 19.4,-68.2 22.2,-63.2 13.4,-65.4 			"/>
			<polygon class="st27" points="13.4,-65.4 22.2,-63.2 25.1,-58.2 16.3,-60.4 			"/>
			<polygon class="st28" points="16.3,-60.4 25.1,-58.2 27.9,-53.2 19.1,-55.4 			"/>
			<polygon class="st27" points="19.1,-55.4 27.9,-53.2 30.8,-48.2 22,-50.4 			"/>
			<polygon class="st28" points="22,-50.4 30.8,-48.2 33.7,-43.2 24.9,-45.4 			"/>
			<polygon class="st27" points="24.9,-45.4 33.7,-43.2 36.5,-38.2 27.7,-40.4 			"/>
			<polygon class="st28" points="27.7,-40.4 36.5,-38.2 39.4,-33.2 30.6,-35.4 			"/>
			<polygon class="st27" points="30.6,-35.4 39.4,-33.2 42.3,-28.2 33.5,-30.4 			"/>
			<polygon class="st28" points="33.5,-30.4 42.3,-28.2 45.1,-23.2 36.3,-25.4 			"/>
			<polygon class="st27" points="36.3,-25.4 45.1,-23.2 48,-18.2 39.2,-20.4 			"/>
			<polygon class="st28" points="-23.6,-143.2 -14.8,-140.9 -11.9,-135.9 -20.7,-138.2 			"/>
			<polygon class="st27" points="-20.7,-138.2 -11.9,-135.9 -9.1,-130.9 -17.9,-133.2 			"/>
			<polygon class="st28" points="-17.9,-133.2 -9.1,-130.9 -6.2,-125.9 -15,-128.2 			"/>
			<polygon class="st27" points="-15,-128.2 -6.2,-125.9 -3.3,-120.9 -12.1,-123.2 			"/>
			<polygon class="st28" points="-12.1,-123.2 -3.3,-120.9 -0.5,-115.9 -9.3,-118.2 			"/>
			<polygon class="st27" points="-9.3,-118.2 -0.5,-115.9 2.4,-110.9 -6.4,-113.2 			"/>
			<polygon class="st28" points="-6.4,-113.2 2.4,-110.9 5.3,-105.9 -3.5,-108.2 			"/>
			<polygon class="st27" points="-3.5,-108.2 5.3,-105.9 8.1,-100.9 -0.7,-103.2 			"/>
			<polygon class="st28" points="-0.7,-103.2 8.1,-100.9 11,-95.9 2.2,-98.2 			"/>
			<polygon class="st27" points="2.2,-98.2 11,-95.9 13.8,-90.9 5,-93.2 			"/>
			<polygon class="st28" points="5,-93.2 13.8,-90.9 16.7,-85.9 7.9,-88.2 			"/>
			<polygon class="st27" points="7.9,-88.2 16.7,-85.9 19.6,-80.9 10.8,-83.2 			"/>
			<polygon class="st28" points="10.8,-83.2 19.6,-80.9 22.4,-75.9 13.6,-78.2 			"/>
			<polygon class="st27" points="13.6,-78.2 22.4,-75.9 25.3,-70.9 16.5,-73.2 			"/>
			<polygon class="st28" points="16.5,-73.2 25.3,-70.9 28.2,-65.9 19.4,-68.2 			"/>
			<polygon class="st27" points="19.4,-68.2 28.2,-65.9 31,-60.9 22.2,-63.2 			"/>
			<polygon class="st28" points="22.2,-63.2 31,-60.9 33.9,-55.9 25.1,-58.2 			"/>
			<polygon class="st27" points="25.1,-58.2 33.9,-55.9 36.8,-50.9 27.9,-53.2 			"/>
			<polygon class="st28" points="27.9,-53.2 36.8,-50.9 39.6,-45.9 30.8,-48.2 			"/>
			<polygon class="st27" points="30.8,-48.2 39.6,-45.9 42.5,-40.9 33.7,-43.2 			"/>
			<polygon class="st28" points="33.7,-43.2 42.5,-40.9 45.3,-35.9 36.5,-38.2 			"/>
			<polygon class="st27" points="36.5,-38.2 45.3,-35.9 48.2,-30.9 39.4,-33.2 			"/>
			<polygon class="st28" points="39.4,-33.2 48.2,-30.9 51.1,-25.9 42.3,-28.2 			"/>
			<polygon class="st27" points="42.3,-28.2 51.1,-25.9 53.9,-20.9 45.1,-23.2 			"/>
			<polygon class="st28" points="45.1,-23.2 53.9,-20.9 56.8,-15.9 48,-18.2 			"/>
			<polygon class="st27" points="-14.8,-140.9 -6,-138.6 -3.1,-133.6 -11.9,-135.9 			"/>
			<polygon class="st28" points="-11.9,-135.9 -3.1,-133.6 -0.3,-128.6 -9.1,-130.9 			"/>
			<polygon class="st27" points="-9.1,-130.9 -0.3,-128.6 2.6,-123.6 -6.2,-125.9 			"/>
			<polygon class="st28" points="-6.2,-125.9 2.6,-123.6 5.5,-118.6 -3.3,-120.9 			"/>
			<polygon class="st27" points="-3.3,-120.9 5.5,-118.6 8.3,-113.6 -0.5,-115.9 			"/>
			<polygon class="st28" points="-0.5,-115.9 8.3,-113.6 11.2,-108.6 2.4,-110.9 			"/>
			<polygon class="st27" points="2.4,-110.9 11.2,-108.6 14.1,-103.6 5.3,-105.9 			"/>
			<polygon class="st28" points="5.3,-105.9 14.1,-103.6 16.9,-98.6 8.1,-100.9 			"/>
			<polygon class="st27" points="8.1,-100.9 16.9,-98.6 19.8,-93.6 11,-95.9 			"/>
			<polygon class="st28" points="11,-95.9 19.8,-93.6 22.7,-88.6 13.8,-90.9 			"/>
			<polygon class="st27" points="13.8,-90.9 22.7,-88.6 25.5,-83.6 16.7,-85.9 			"/>
			<polygon class="st28" points="16.7,-85.9 25.5,-83.6 28.4,-78.6 19.6,-80.9 			"/>
			<polygon class="st27" points="19.6,-80.9 28.4,-78.6 31.2,-73.6 22.4,-75.9 			"/>
			<polygon class="st28" points="22.4,-75.9 31.2,-73.6 34.1,-68.6 25.3,-70.9 			"/>
			<polygon class="st27" points="25.3,-70.9 34.1,-68.6 37,-63.6 28.2,-65.9 			"/>
			<polygon class="st28" points="28.2,-65.9 37,-63.6 39.8,-58.6 31,-60.9 			"/>
			<polygon class="st27" points="31,-60.9 39.8,-58.6 42.7,-53.6 33.9,-55.9 			"/>
			<polygon class="st28" points="33.9,-55.9 42.7,-53.6 45.6,-48.6 36.8,-50.9 			"/>
			<polygon class="st27" points="36.8,-50.9 45.6,-48.6 48.4,-43.6 39.6,-45.9 			"/>
			<polygon class="st28" points="39.6,-45.9 48.4,-43.6 51.3,-38.6 42.5,-40.9 			"/>
			<polygon class="st27" points="42.5,-40.9 51.3,-38.6 54.1,-33.6 45.3,-35.9 			"/>
			<polygon class="st28" points="45.3,-35.9 54.1,-33.6 57,-28.6 48.2,-30.9 			"/>
			<polygon class="st27" points="48.2,-30.9 57,-28.6 59.9,-23.6 51.1,-25.9 			"/>
			<polygon class="st28" points="51.1,-25.9 59.9,-23.6 62.7,-18.6 53.9,-20.9 			"/>
			<polygon class="st27" points="53.9,-20.9 62.7,-18.6 65.6,-13.6 56.8,-15.9 			"/>
			<polygon class="st28" points="-6,-138.6 2.8,-136.3 5.7,-131.3 -3.1,-133.6 			"/>
			<polygon class="st27" points="-3.1,-133.6 5.7,-131.3 8.6,-126.3 -0.3,-128.6 			"/>
			<polygon class="st28" points="-0.3,-128.6 8.6,-126.3 11.4,-121.3 2.6,-123.6 			"/>
			<polygon class="st27" points="2.6,-123.6 11.4,-121.3 14.3,-116.3 5.5,-118.6 			"/>
			<polygon class="st28" points="5.5,-118.6 14.3,-116.3 17.1,-111.3 8.3,-113.6 			"/>
			<polygon class="st27" points="8.3,-113.6 17.1,-111.3 20,-106.3 11.2,-108.6 			"/>
			<polygon class="st28" points="11.2,-108.6 20,-106.3 22.9,-101.3 14.1,-103.6 			"/>
			<polygon class="st27" points="14.1,-103.6 22.9,-101.3 25.7,-96.3 16.9,-98.6 			"/>
			<polygon class="st28" points="16.9,-98.6 25.7,-96.3 28.6,-91.3 19.8,-93.6 			"/>
			<polygon class="st27" points="19.8,-93.6 28.6,-91.3 31.5,-86.3 22.7,-88.6 			"/>
			<polygon class="st28" points="22.7,-88.6 31.5,-86.3 34.3,-81.3 25.5,-83.6 			"/>
			<polygon class="st27" points="25.5,-83.6 34.3,-81.3 37.2,-76.3 28.4,-78.6 			"/>
			<polygon class="st28" points="28.4,-78.6 37.2,-76.3 40,-71.3 31.2,-73.6 			"/>
			<polygon class="st27" points="31.2,-73.6 40,-71.3 42.9,-66.3 34.1,-68.6 			"/>
			<polygon class="st28" points="34.1,-68.6 42.9,-66.3 45.8,-61.3 37,-63.6 			"/>
			<polygon class="st27" points="37,-63.6 45.8,-61.3 48.6,-56.3 39.8,-58.6 			"/>
			<polygon class="st28" points="39.8,-58.6 48.6,-56.3 51.5,-51.3 42.7,-53.6 			"/>
			<polygon class="st27" points="42.7,-53.6 51.5,-51.3 54.4,-46.3 45.6,-48.6 			"/>
			<polygon class="st28" points="45.6,-48.6 54.4,-46.3 57.2,-41.3 48.4,-43.6 			"/>
			<polygon class="st27" points="48.4,-43.6 57.2,-41.3 60.1,-36.3 51.3,-38.6 			"/>
			<polygon class="st28" points="51.3,-38.6 60.1,-36.3 62.9,-31.3 54.1,-33.6 			"/>
			<polygon class="st27" points="54.1,-33.6 62.9,-31.3 65.8,-26.3 57,-28.6 			"/>
			<polygon class="st28" points="57,-28.6 65.8,-26.3 68.7,-21.3 59.9,-23.6 			"/>
			<polygon class="st27" points="59.9,-23.6 68.7,-21.3 71.5,-16.3 62.7,-18.6 			"/>
			<polygon class="st28" points="62.7,-18.6 71.5,-16.3 74.4,-11.3 65.6,-13.6 			"/>
			<polygon class="st27" points="2.8,-136.3 11.6,-134 14.5,-129 5.7,-131.3 			"/>
			<polygon class="st28" points="5.7,-131.3 14.5,-129 17.4,-124 8.6,-126.3 			"/>
			<polygon class="st27" points="8.6,-126.3 17.4,-124 20.2,-119 11.4,-121.3 			"/>
			<polygon class="st28" points="11.4,-121.3 20.2,-119 23.1,-114 14.3,-116.3 			"/>
			<polygon class="st27" points="14.3,-116.3 23.1,-114 25.9,-109 17.1,-111.3 			"/>
			<polygon class="st28" points="17.1,-111.3 25.9,-109 28.8,-104 20,-106.3 			"/>
			<polygon class="st27" points="20,-106.3 28.8,-104 31.7,-99 22.9,-101.3 			"/>
			<polygon class="st28" points="22.9,-101.3 31.7,-99 34.5,-94 25.7,-96.3 			"/>
			<polygon class="st27" points="25.7,-96.3 34.5,-94 37.4,-89 28.6,-91.3 			"/>
			<polygon class="st28" points="28.6,-91.3 37.4,-89 40.3,-84 31.5,-86.3 			"/>
			<polygon class="st27" points="31.5,-86.3 40.3,-84 43.1,-79 34.3,-81.3 			"/>
			<polygon class="st28" points="34.3,-81.3 43.1,-79 46,-74 37.2,-76.3 			"/>
			<polygon class="st27" points="37.2,-76.3 46,-74 48.9,-69 40,-71.3 			"/>
			<polygon class="st28" points="40,-71.3 48.9,-69 51.7,-64 42.9,-66.3 			"/>
			<polygon class="st27" points="42.9,-66.3 51.7,-64 54.6,-59 45.8,-61.3 			"/>
			<polygon class="st28" points="45.8,-61.3 54.6,-59 57.4,-54 48.6,-56.3 			"/>
			<polygon class="st27" points="48.6,-56.3 57.4,-54 60.3,-49 51.5,-51.3 			"/>
			<polygon class="st28" points="51.5,-51.3 60.3,-49 63.2,-44 54.4,-46.3 			"/>
			<polygon class="st27" points="54.4,-46.3 63.2,-44 66,-39 57.2,-41.3 			"/>
			<polygon class="st28" points="57.2,-41.3 66,-39 68.9,-34 60.1,-36.3 			"/>
			<polygon class="st27" points="60.1,-36.3 68.9,-34 71.8,-29 62.9,-31.3 			"/>
			<polygon class="st28" points="62.9,-31.3 71.8,-29 74.6,-24 65.8,-26.3 			"/>
			<polygon class="st27" points="65.8,-26.3 74.6,-24 77.5,-19 68.7,-21.3 			"/>
			<polygon class="st28" points="68.7,-21.3 77.5,-19 80.3,-14 71.5,-16.3 			"/>
			<polygon class="st27" points="71.5,-16.3 80.3,-14 83.2,-9 74.4,-11.3 			"/>
			<polygon class="st28" points="11.6,-134 20.4,-131.8 23.3,-126.8 14.5,-129 			"/>
			<polygon class="st27" points="14.5,-129 23.3,-126.8 26.2,-121.8 17.4,-124 			"/>
			<polygon class="st28" points="17.4,-124 26.2,-121.8 29,-116.8 20.2,-119 			"/>
			<polygon class="st27" points="20.2,-119 29,-116.8 31.9,-111.8 23.1,-114 			"/>
			<polygon class="st28" points="23.1,-114 31.9,-111.8 34.8,-106.8 25.9,-109 			"/>
			<polygon class="st27" points="25.9,-109 34.8,-106.8 37.6,-101.8 28.8,-104 			"/>
			<polygon class="st28" points="28.8,-104 37.6,-101.8 40.5,-96.8 31.7,-99 			"/>
			<polygon class="st27" points="31.7,-99 40.5,-96.8 43.3,-91.8 34.5,-94 			"/>
			<polygon class="st28" points="34.5,-94 43.3,-91.8 46.2,-86.8 37.4,-89 			"/>
			<polygon class="st27" points="37.4,-89 46.2,-86.8 49.1,-81.8 40.3,-84 			"/>
			<polygon class="st28" points="40.3,-84 49.1,-81.8 51.9,-76.8 43.1,-79 			"/>
			<polygon class="st27" points="43.1,-79 51.9,-76.8 54.8,-71.8 46,-74 			"/>
			<polygon class="st28" points="46,-74 54.8,-71.8 57.7,-66.8 48.9,-69 			"/>
			<polygon class="st27" points="48.9,-69 57.7,-66.8 60.5,-61.8 51.7,-64 			"/>
			<polygon class="st28" points="51.7,-64 60.5,-61.8 63.4,-56.8 54.6,-59 			"/>
			<polygon class="st27" points="54.6,-59 63.4,-56.8 66.2,-51.8 57.4,-54 			"/>
			<polygon class="st28" points="57.4,-54 66.2,-51.8 69.1,-46.8 60.3,-49 			"/>
			<polygon class="st27" points="60.3,-49 69.1,-46.8 72,-41.8 63.2,-44 			"/>
			<polygon class="st28" points="63.2,-44 72,-41.8 74.8,-36.8 66,-39 			"/>
			<polygon class="st27" points="66,-39 74.8,-36.8 77.7,-31.8 68.9,-34 			"/>
			<polygon class="st28" points="68.9,-34 77.7,-31.8 80.6,-26.8 71.8,-29 			"/>
			<polygon class="st27" points="71.8,-29 80.6,-26.8 83.4,-21.8 74.6,-24 			"/>
			<polygon class="st28" points="74.6,-24 83.4,-21.8 86.3,-16.8 77.5,-19 			"/>
			<polygon class="st27" points="77.5,-19 86.3,-16.8 89.1,-11.8 80.3,-14 			"/>
			<polygon class="st28" points="80.3,-14 89.1,-11.8 92,-6.8 83.2,-9 			"/>
			<polygon class="st27" points="20.4,-131.8 29.2,-129.5 32.1,-124.5 23.3,-126.8 			"/>
			<polygon class="st28" points="23.3,-126.8 32.1,-124.5 35,-119.5 26.2,-121.8 			"/>
			<polygon class="st27" points="26.2,-121.8 35,-119.5 37.8,-114.5 29,-116.8 			"/>
			<polygon class="st28" points="29,-116.8 37.8,-114.5 40.7,-109.5 31.9,-111.8 			"/>
			<polygon class="st27" points="31.9,-111.8 40.7,-109.5 43.6,-104.5 34.8,-106.8 			"/>
			<polygon class="st28" points="34.8,-106.8 43.6,-104.5 46.4,-99.5 37.6,-101.8 			"/>
			<polygon class="st27" points="37.6,-101.8 46.4,-99.5 49.3,-94.5 40.5,-96.8 			"/>
			<polygon class="st28" points="40.5,-96.8 49.3,-94.5 52.1,-89.5 43.3,-91.8 			"/>
			<polygon class="st27" points="43.3,-91.8 52.1,-89.5 55,-84.5 46.2,-86.8 			"/>
			<polygon class="st28" points="46.2,-86.8 55,-84.5 57.9,-79.5 49.1,-81.8 			"/>
			<polygon class="st27" points="49.1,-81.8 57.9,-79.5 60.7,-74.5 51.9,-76.8 			"/>
			<polygon class="st28" points="51.9,-76.8 60.7,-74.5 63.6,-69.5 54.8,-71.8 			"/>
			<polygon class="st27" points="54.8,-71.8 63.6,-69.5 66.5,-64.5 57.7,-66.8 			"/>
			<polygon class="st28" points="57.7,-66.8 66.5,-64.5 69.3,-59.5 60.5,-61.8 			"/>
			<polygon class="st27" points="60.5,-61.8 69.3,-59.5 72.2,-54.5 63.4,-56.8 			"/>
			<polygon class="st28" points="63.4,-56.8 72.2,-54.5 75,-49.5 66.2,-51.8 			"/>
			<polygon class="st27" points="66.2,-51.8 75,-49.5 77.9,-44.5 69.1,-46.8 			"/>
			<polygon class="st28" points="69.1,-46.8 77.9,-44.5 80.8,-39.5 72,-41.8 			"/>
			<polygon class="st27" points="72,-41.8 80.8,-39.5 83.6,-34.5 74.8,-36.8 			"/>
			<polygon class="st28" points="74.8,-36.8 83.6,-34.5 86.5,-29.5 77.7,-31.8 			"/>
			<polygon class="st27" points="77.7,-31.8 86.5,-29.5 89.4,-24.5 80.6,-26.8 			"/>
			<polygon class="st28" points="80.6,-26.8 89.4,-24.5 92.2,-19.5 83.4,-21.8 			"/>
			<polygon class="st27" points="83.4,-21.8 92.2,-19.5 95.1,-14.5 86.3,-16.8 			"/>
			<polygon class="st28" points="86.3,-16.8 95.1,-14.5 98,-9.5 89.1,-11.8 			"/>
			<polygon class="st27" points="89.1,-11.8 98,-9.5 100.8,-4.5 92,-6.8 			"/>
			<polygon class="st28" points="29.2,-129.5 38,-127.2 40.9,-122.2 32.1,-124.5 			"/>
			<polygon class="st27" points="32.1,-124.5 40.9,-122.2 43.8,-117.2 35,-119.5 			"/>
			<polygon class="st28" points="35,-119.5 43.8,-117.2 46.6,-112.2 37.8,-114.5 			"/>
			<polygon class="st27" points="37.8,-114.5 46.6,-112.2 49.5,-107.2 40.7,-109.5 			"/>
			<polygon class="st28" points="40.7,-109.5 49.5,-107.2 52.4,-102.2 43.6,-104.5 			"/>
			<polygon class="st27" points="43.6,-104.5 52.4,-102.2 55.2,-97.2 46.4,-99.5 			"/>
			<polygon class="st28" points="46.4,-99.5 55.2,-97.2 58.1,-92.2 49.3,-94.5 			"/>
			<polygon class="st27" points="49.3,-94.5 58.1,-92.2 61,-87.2 52.1,-89.5 			"/>
			<polygon class="st28" points="52.1,-89.5 61,-87.2 63.8,-82.2 55,-84.5 			"/>
			<polygon class="st27" points="55,-84.5 63.8,-82.2 66.7,-77.2 57.9,-79.5 			"/>
			<polygon class="st28" points="57.9,-79.5 66.7,-77.2 69.5,-72.2 60.7,-74.5 			"/>
			<polygon class="st27" points="60.7,-74.5 69.5,-72.2 72.4,-67.2 63.6,-69.5 			"/>
			<polygon class="st28" points="63.6,-69.5 72.4,-67.2 75.3,-62.2 66.5,-64.5 			"/>
			<polygon class="st27" points="66.5,-64.5 75.3,-62.2 78.1,-57.2 69.3,-59.5 			"/>
			<polygon class="st28" points="69.3,-59.5 78.1,-57.2 81,-52.2 72.2,-54.5 			"/>
			<polygon class="st27" points="72.2,-54.5 81,-52.2 83.9,-47.2 75,-49.5 			"/>
			<polygon class="st28" points="75,-49.5 83.9,-47.2 86.7,-42.2 77.9,-44.5 			"/>
			<polygon class="st27" points="77.9,-44.5 86.7,-42.2 89.6,-37.2 80.8,-39.5 			"/>
			<polygon class="st28" points="80.8,-39.5 89.6,-37.2 92.4,-32.2 83.6,-34.5 			"/>
			<polygon class="st27" points="83.6,-34.5 92.4,-32.2 95.3,-27.2 86.5,-29.5 			"/>
			<polygon class="st28" points="86.5,-29.5 95.3,-27.2 98.2,-22.2 89.4,-24.5 			"/>
			<polygon class="st27" points="89.4,-24.5 98.2,-22.2 101,-17.2 92.2,-19.5 			"/>
			<polygon class="st28" points="92.2,-19.5 101,-17.2 103.9,-12.2 95.1,-14.5 			"/>
			<polygon class="st27" points="95.1,-14.5 103.9,-12.2 106.8,-7.2 98,-9.5 			"/>
			<polygon class="st28" points="98,-9.5 106.8,-7.2 109.6,-2.2 100.8,-4.5 			"/>
			<polygon class="st27" points="38,-127.2 46.9,-124.9 49.7,-119.9 40.9,-122.2 			"/>
			<polygon class="st28" points="40.9,-122.2 49.7,-119.9 52.6,-114.9 43.8,-117.2 			"/>
			<polygon class="st27" points="43.8,-117.2 52.6,-114.9 55.4,-109.9 46.6,-112.2 			"/>
			<polygon class="st28" points="46.6,-112.2 55.4,-109.9 58.3,-104.9 49.5,-107.2 			"/>
			<polygon class="st27" points="49.5,-107.2 58.3,-104.9 61.2,-99.9 52.4,-102.2 			"/>
			<polygon class="st28" points="52.4,-102.2 61.2,-99.9 64,-94.9 55.2,-97.2 			"/>
			<polygon class="st27" points="55.2,-97.2 64,-94.9 66.9,-89.9 58.1,-92.2 			"/>
			<polygon class="st28" points="58.1,-92.2 66.9,-89.9 69.8,-84.9 61,-87.2 			"/>
			<polygon class="st27" points="61,-87.2 69.8,-84.9 72.6,-79.9 63.8,-82.2 			"/>
			<polygon class="st28" points="63.8,-82.2 72.6,-79.9 75.5,-74.9 66.7,-77.2 			"/>
			<polygon class="st27" points="66.7,-77.2 75.5,-74.9 78.3,-69.9 69.5,-72.2 			"/>
			<polygon class="st28" points="69.5,-72.2 78.3,-69.9 81.2,-64.9 72.4,-67.2 			"/>
			<polygon class="st27" points="72.4,-67.2 81.2,-64.9 84.1,-59.9 75.3,-62.2 			"/>
			<polygon class="st28" points="75.3,-62.2 84.1,-59.9 86.9,-54.9 78.1,-57.2 			"/>
			<polygon class="st27" points="78.1,-57.2 86.9,-54.9 89.8,-49.9 81,-52.2 			"/>
			<polygon class="st28" points="81,-52.2 89.8,-49.9 92.7,-44.9 83.9,-47.2 			"/>
			<polygon class="st27" points="83.9,-47.2 92.7,-44.9 95.5,-39.9 86.7,-42.2 			"/>
			<polygon class="st28" points="86.7,-42.2 95.5,-39.9 98.4,-34.9 89.6,-37.2 			"/>
			<polygon class="st27" points="89.6,-37.2 98.4,-34.9 101.2,-29.9 92.4,-32.2 			"/>
			<polygon class="st28" points="92.4,-32.2 101.2,-29.9 104.1,-24.9 95.3,-27.2 			"/>
			<polygon class="st27" points="95.3,-27.2 104.1,-24.9 107,-19.9 98.2,-22.2 			"/>
			<polygon class="st28" points="98.2,-22.2 107,-19.9 109.8,-14.9 101,-17.2 			"/>
			<polygon class="st27" points="101,-17.2 109.8,-14.9 112.7,-9.9 103.9,-12.2 			"/>
			<polygon class="st28" points="103.9,-12.2 112.7,-9.9 115.6,-4.9 106.8,-7.2 			"/>
			<polygon class="st27" points="106.8,-7.2 115.6,-4.9 118.4,0.1 109.6,-2.2 			"/>
			<polygon class="st28" points="46.9,-124.9 55.7,-122.7 58.5,-117.7 49.7,-119.9 			"/>
			<polygon class="st27" points="49.7,-119.9 58.5,-117.7 61.4,-112.7 52.6,-114.9 			"/>
			<polygon class="st28" points="52.6,-114.9 61.4,-112.7 64.2,-107.7 55.4,-109.9 			"/>
			<polygon class="st27" points="55.4,-109.9 64.2,-107.7 67.1,-102.7 58.3,-104.9 			"/>
			<polygon class="st28" points="58.3,-104.9 67.1,-102.7 70,-97.7 61.2,-99.9 			"/>
			<polygon class="st27" points="61.2,-99.9 70,-97.7 72.8,-92.7 64,-94.9 			"/>
			<polygon class="st28" points="64,-94.9 72.8,-92.7 75.7,-87.7 66.9,-89.9 			"/>
			<polygon class="st27" points="66.9,-89.9 75.7,-87.7 78.6,-82.7 69.8,-84.9 			"/>
			<polygon class="st28" points="69.8,-84.9 78.6,-82.7 81.4,-77.7 72.6,-79.9 			"/>
			<polygon class="st27" points="72.6,-79.9 81.4,-77.7 84.3,-72.7 75.5,-74.9 			"/>
			<polygon class="st28" points="75.5,-74.9 84.3,-72.7 87.1,-67.7 78.3,-69.9 			"/>
			<polygon class="st27" points="78.3,-69.9 87.1,-67.7 90,-62.7 81.2,-64.9 			"/>
			<polygon class="st28" points="81.2,-64.9 90,-62.7 92.9,-57.7 84.1,-59.9 			"/>
			<polygon class="st27" points="84.1,-59.9 92.9,-57.7 95.7,-52.7 86.9,-54.9 			"/>
			<polygon class="st28" points="86.9,-54.9 95.7,-52.7 98.6,-47.7 89.8,-49.9 			"/>
			<polygon class="st27" points="89.8,-49.9 98.6,-47.7 101.5,-42.7 92.7,-44.9 			"/>
			<polygon class="st28" points="92.7,-44.9 101.5,-42.7 104.3,-37.7 95.5,-39.9 			"/>
			<polygon class="st27" points="95.5,-39.9 104.3,-37.7 107.2,-32.7 98.4,-34.9 			"/>
			<polygon class="st28" points="98.4,-34.9 107.2,-32.7 110.1,-27.7 101.2,-29.9 			"/>
			<polygon class="st27" points="101.2,-29.9 110.1,-27.7 112.9,-22.7 104.1,-24.9 			"/>
			<polygon class="st28" points="104.1,-24.9 112.9,-22.7 115.8,-17.7 107,-19.9 			"/>
			<polygon class="st27" points="107,-19.9 115.8,-17.7 118.6,-12.7 109.8,-14.9 			"/>
			<polygon class="st28" points="109.8,-14.9 118.6,-12.7 121.5,-7.7 112.7,-9.9 			"/>
			<polygon class="st27" points="112.7,-9.9 121.5,-7.7 124.4,-2.7 115.6,-4.9 			"/>
			<polygon class="st28" points="115.6,-4.9 124.4,-2.7 127.2,2.3 118.4,0.1 			"/>
			<polygon class="st27" points="55.7,-122.7 64.5,-120.4 67.3,-115.4 58.5,-117.7 			"/>
			<polygon class="st28" points="58.5,-117.7 67.3,-115.4 70.2,-110.4 61.4,-112.7 			"/>
			<polygon class="st27" points="61.4,-112.7 70.2,-110.4 73.1,-105.4 64.2,-107.7 			"/>
			<polygon class="st28" points="64.2,-107.7 73.1,-105.4 75.9,-100.4 67.1,-102.7 			"/>
			<polygon class="st27" points="67.1,-102.7 75.9,-100.4 78.8,-95.4 70,-97.7 			"/>
			<polygon class="st28" points="70,-97.7 78.8,-95.4 81.6,-90.4 72.8,-92.7 			"/>
			<polygon class="st27" points="72.8,-92.7 81.6,-90.4 84.5,-85.4 75.7,-87.7 			"/>
			<polygon class="st28" points="75.7,-87.7 84.5,-85.4 87.4,-80.4 78.6,-82.7 			"/>
			<polygon class="st27" points="78.6,-82.7 87.4,-80.4 90.2,-75.4 81.4,-77.7 			"/>
			<polygon class="st28" points="81.4,-77.7 90.2,-75.4 93.1,-70.4 84.3,-72.7 			"/>
			<polygon class="st27" points="84.3,-72.7 93.1,-70.4 96,-65.4 87.1,-67.7 			"/>
			<polygon class="st28" points="87.1,-67.7 96,-65.4 98.8,-60.4 90,-62.7 			"/>
			<polygon class="st27" points="90,-62.7 98.8,-60.4 101.7,-55.4 92.9,-57.7 			"/>
			<polygon class="st28" points="92.9,-57.7 101.7,-55.4 104.5,-50.4 95.7,-52.7 			"/>
			<polygon class="st27" points="95.7,-52.7 104.5,-50.4 107.4,-45.4 98.6,-47.7 			"/>
			<polygon class="st28" points="98.6,-47.7 107.4,-45.4 110.3,-40.4 101.5,-42.7 			"/>
			<polygon class="st27" points="101.5,-42.7 110.3,-40.4 113.1,-35.4 104.3,-37.7 			"/>
			<polygon class="st28" points="104.3,-37.7 113.1,-35.4 116,-30.4 107.2,-32.7 			"/>
			<polygon class="st27" points="107.2,-32.7 116,-30.4 118.9,-25.4 110.1,-27.7 			"/>
			<polygon class="st28" points="110.1,-27.7 118.9,-25.4 121.7,-20.4 112.9,-22.7 			"/>
			<polygon class="st27" points="112.9,-22.7 121.7,-20.4 124.6,-15.4 115.8,-17.7 			"/>
			<polygon class="st28" points="115.8,-17.7 124.6,-15.4 127.4,-10.4 118.6,-12.7 			"/>
			<polygon class="st27" points="118.6,-12.7 127.4,-10.4 130.3,-5.4 121.5,-7.7 			"/>
			<polygon class="st28" points="121.5,-7.7 130.3,-5.4 133.2,-0.4 124.4,-2.7 			"/>
			<polygon class="st27" points="124.4,-2.7 133.2,-0.4 136,4.6 127.2,2.3 			"/>
			<polygon class="st28" points="64.5,-120.4 73.3,-118.1 76.1,-113.1 67.3,-115.4 			"/>
			<polygon class="st27" points="67.3,-115.4 76.1,-113.1 79,-108.1 70.2,-110.4 			"/>
			<polygon class="st28" points="70.2,-110.4 79,-108.1 81.9,-103.1 73.1,-105.4 			"/>
			<polygon class="st27" points="73.1,-105.4 81.9,-103.1 84.7,-98.1 75.9,-100.4 			"/>
			<polygon class="st28" points="75.9,-100.4 84.7,-98.1 87.6,-93.1 78.8,-95.4 			"/>
			<polygon class="st27" points="78.8,-95.4 87.6,-93.1 90.4,-88.1 81.6,-90.4 			"/>
			<polygon class="st28" points="81.6,-90.4 90.4,-88.1 93.3,-83.1 84.5,-85.4 			"/>
			<polygon class="st27" points="84.5,-85.4 93.3,-83.1 96.2,-78.1 87.4,-80.4 			"/>
			<polygon class="st28" points="87.4,-80.4 96.2,-78.1 99,-73.1 90.2,-75.4 			"/>
			<polygon class="st27" points="90.2,-75.4 99,-73.1 101.9,-68.1 93.1,-70.4 			"/>
			<polygon class="st28" points="93.1,-70.4 101.9,-68.1 104.8,-63.1 96,-65.4 			"/>
			<polygon class="st27" points="96,-65.4 104.8,-63.1 107.6,-58.1 98.8,-60.4 			"/>
			<polygon class="st28" points="98.8,-60.4 107.6,-58.1 110.5,-53.1 101.7,-55.4 			"/>
			<polygon class="st27" points="101.7,-55.4 110.5,-53.1 113.3,-48.1 104.5,-50.4 			"/>
			<polygon class="st28" points="104.5,-50.4 113.3,-48.1 116.2,-43.1 107.4,-45.4 			"/>
			<polygon class="st27" points="107.4,-45.4 116.2,-43.1 119.1,-38.1 110.3,-40.4 			"/>
			<polygon class="st28" points="110.3,-40.4 119.1,-38.1 121.9,-33.1 113.1,-35.4 			"/>
			<polygon class="st27" points="113.1,-35.4 121.9,-33.1 124.8,-28.1 116,-30.4 			"/>
			<polygon class="st28" points="116,-30.4 124.8,-28.1 127.7,-23.1 118.9,-25.4 			"/>
			<polygon class="st27" points="118.9,-25.4 127.7,-23.1 130.5,-18.1 121.7,-20.4 			"/>
			<polygon class="st28" points="121.7,-20.4 130.5,-18.1 133.4,-13.1 124.6,-15.4 			"/>
			<polygon class="st27" points="124.6,-15.4 133.4,-13.1 136.3,-8.1 127.4,-10.4 			"/>
			<polygon class="st28" points="127.4,-10.4 136.3,-8.1 139.1,-3.1 130.3,-5.4 			"/>
			<polygon class="st27" points="130.3,-5.4 139.1,-3.1 142,1.9 133.2,-0.4 			"/>
			<polygon class="st28" points="133.2,-0.4 142,1.9 144.8,6.9 136,4.6 			"/>
			<polygon class="st27" points="73.3,-118.1 82.1,-115.8 84.9,-110.8 76.1,-113.1 			"/>
			<polygon class="st28" points="76.1,-113.1 84.9,-110.8 87.8,-105.8 79,-108.1 			"/>
			<polygon class="st27" points="79,-108.1 87.8,-105.8 90.7,-100.8 81.9,-103.1 			"/>
			<polygon class="st28" points="81.9,-103.1 90.7,-100.8 93.5,-95.8 84.7,-98.1 			"/>
			<polygon class="st27" points="84.7,-98.1 93.5,-95.8 96.4,-90.8 87.6,-93.1 			"/>
			<polygon class="st28" points="87.6,-93.1 96.4,-90.8 99.2,-85.8 90.4,-88.1 			"/>
			<polygon class="st27" points="90.4,-88.1 99.2,-85.8 102.1,-80.8 93.3,-83.1 			"/>
			<polygon class="st28" points="93.3,-83.1 102.1,-80.8 105,-75.8 96.2,-78.1 			"/>
			<polygon class="st27" points="96.2,-78.1 105,-75.8 107.8,-70.8 99,-73.1 			"/>
			<polygon class="st28" points="99,-73.1 107.8,-70.8 110.7,-65.8 101.9,-68.1 			"/>
			<polygon class="st27" points="101.9,-68.1 110.7,-65.8 113.6,-60.8 104.8,-63.1 			"/>
			<polygon class="st28" points="104.8,-63.1 113.6,-60.8 116.4,-55.8 107.6,-58.1 			"/>
			<polygon class="st27" points="107.6,-58.1 116.4,-55.8 119.3,-50.8 110.5,-53.1 			"/>
			<polygon class="st28" points="110.5,-53.1 119.3,-50.8 122.2,-45.8 113.3,-48.1 			"/>
			<polygon class="st27" points="113.3,-48.1 122.2,-45.8 125,-40.8 116.2,-43.1 			"/>
			<polygon class="st28" points="116.2,-43.1 125,-40.8 127.9,-35.8 119.1,-38.1 			"/>
			<polygon class="st27" points="119.1,-38.1 127.9,-35.8 130.7,-30.8 121.9,-33.1 			"/>
			<polygon class="st28" points="121.9,-33.1 130.7,-30.8 133.6,-25.8 124.8,-28.1 			"/>
			<polygon class="st27" points="124.8,-28.1 133.6,-25.8 136.5,-20.8 127.7,-23.1 			"/>
			<polygon class="st28" points="127.7,-23.1 136.5,-20.8 139.3,-15.8 130.5,-18.1 			"/>
			<polygon class="st27" points="130.5,-18.1 139.3,-15.8 142.2,-10.8 133.4,-13.1 			"/>
			<polygon class="st28" points="133.4,-13.1 142.2,-10.8 145.1,-5.8 136.3,-8.1 			"/>
			<polygon class="st27" points="136.3,-8.1 145.1,-5.8 147.9,-0.8 139.1,-3.1 			"/>
			<polygon class="st28" points="139.1,-3.1 147.9,-0.8 150.8,4.2 142,1.9 			"/>
			<polygon class="st27" points="142,1.9 150.8,4.2 153.6,9.2 144.8,6.9 			"/>
			<polygon class="st28" points="82.1,-115.8 90.9,-113.5 93.7,-108.5 84.9,-110.8 			"/>
			<polygon class="st27" points="84.9,-110.8 93.7,-108.5 96.6,-103.5 87.8,-105.8 			"/>
			<polygon class="st28" points="87.8,-105.8 96.6,-103.5 99.5,-98.5 90.7,-100.8 			"/>
			<polygon class="st27" points="90.7,-100.8 99.5,-98.5 102.3,-93.5 93.5,-95.8 			"/>
			<polygon class="st28" points="93.5,-95.8 102.3,-93.5 105.2,-88.5 96.4,-90.8 			"/>
			<polygon class="st27" points="96.4,-90.8 105.2,-88.5 108.1,-83.5 99.2,-85.8 			"/>
			<polygon class="st28" points="99.2,-85.8 108.1,-83.5 110.9,-78.5 102.1,-80.8 			"/>
			<polygon class="st27" points="102.1,-80.8 110.9,-78.5 113.8,-73.5 105,-75.8 			"/>
			<polygon class="st28" points="105,-75.8 113.8,-73.5 116.6,-68.5 107.8,-70.8 			"/>
			<polygon class="st27" points="107.8,-70.8 116.6,-68.5 119.5,-63.5 110.7,-65.8 			"/>
			<polygon class="st28" points="110.7,-65.8 119.5,-63.5 122.4,-58.5 113.6,-60.8 			"/>
			<polygon class="st27" points="113.6,-60.8 122.4,-58.5 125.2,-53.5 116.4,-55.8 			"/>
			<polygon class="st28" points="116.4,-55.8 125.2,-53.5 128.1,-48.5 119.3,-50.8 			"/>
			<polygon class="st27" points="119.3,-50.8 128.1,-48.5 131,-43.5 122.2,-45.8 			"/>
			<polygon class="st28" points="122.2,-45.8 131,-43.5 133.8,-38.5 125,-40.8 			"/>
			<polygon class="st27" points="125,-40.8 133.8,-38.5 136.7,-33.5 127.9,-35.8 			"/>
			<polygon class="st28" points="127.9,-35.8 136.7,-33.5 139.5,-28.5 130.7,-30.8 			"/>
			<polygon class="st27" points="130.7,-30.8 139.5,-28.5 142.4,-23.5 133.6,-25.8 			"/>
			<polygon class="st28" points="133.6,-25.8 142.4,-23.5 145.3,-18.5 136.5,-20.8 			"/>
			<polygon class="st27" points="136.5,-20.8 145.3,-18.5 148.1,-13.5 139.3,-15.8 			"/>
			<polygon class="st28" points="139.3,-15.8 148.1,-13.5 151,-8.5 142.2,-10.8 			"/>
			<polygon class="st27" points="142.2,-10.8 151,-8.5 153.9,-3.5 145.1,-5.8 			"/>
			<polygon class="st28" points="145.1,-5.8 153.9,-3.5 156.7,1.5 147.9,-0.8 			"/>
			<polygon class="st27" points="147.9,-0.8 156.7,1.5 159.6,6.5 150.8,4.2 			"/>
			<polygon class="st28" points="150.8,4.2 159.6,6.5 162.4,11.5 153.6,9.2 			"/>
			<polygon class="st27" points="90.9,-113.5 99.7,-111.3 102.5,-106.3 93.7,-108.5 			"/>
			<polygon class="st28" points="93.7,-108.5 102.5,-106.3 105.4,-101.3 96.6,-103.5 			"/>
			<polygon class="st27" points="96.6,-103.5 105.4,-101.3 108.3,-96.3 99.5,-98.5 			"/>
			<polygon class="st28" points="99.5,-98.5 108.3,-96.3 111.1,-91.3 102.3,-93.5 			"/>
			<polygon class="st27" points="102.3,-93.5 111.1,-91.3 114,-86.3 105.2,-88.5 			"/>
			<polygon class="st28" points="105.2,-88.5 114,-86.3 116.9,-81.3 108.1,-83.5 			"/>
			<polygon class="st27" points="108.1,-83.5 116.9,-81.3 119.7,-76.3 110.9,-78.5 			"/>
			<polygon class="st28" points="110.9,-78.5 119.7,-76.3 122.6,-71.3 113.8,-73.5 			"/>
			<polygon class="st27" points="113.8,-73.5 122.6,-71.3 125.4,-66.3 116.6,-68.5 			"/>
			<polygon class="st28" points="116.6,-68.5 125.4,-66.3 128.3,-61.3 119.5,-63.5 			"/>
			<polygon class="st27" points="119.5,-63.5 128.3,-61.3 131.2,-56.3 122.4,-58.5 			"/>
			<polygon class="st28" points="122.4,-58.5 131.2,-56.3 134,-51.3 125.2,-53.5 			"/>
			<polygon class="st27" points="125.2,-53.5 134,-51.3 136.9,-46.3 128.1,-48.5 			"/>
			<polygon class="st28" points="128.1,-48.5 136.9,-46.3 139.8,-41.3 131,-43.5 			"/>
			<polygon class="st27" points="131,-43.5 139.8,-41.3 142.6,-36.3 133.8,-38.5 			"/>
			<polygon class="st28" points="133.8,-38.5 142.6,-36.3 145.5,-31.3 136.7,-33.5 			"/>
			<polygon class="st27" points="136.7,-33.5 145.5,-31.3 148.4,-26.3 139.5,-28.5 			"/>
			<polygon class="st28" points="139.5,-28.5 148.4,-26.3 151.2,-21.3 142.4,-23.5 			"/>
			<polygon class="st27" points="142.4,-23.5 151.2,-21.3 154.1,-16.3 145.3,-18.5 			"/>
			<polygon class="st28" points="145.3,-18.5 154.1,-16.3 156.9,-11.3 148.1,-13.5 			"/>
			<polygon class="st27" points="148.1,-13.5 156.9,-11.3 159.8,-6.3 151,-8.5 			"/>
			<polygon class="st28" points="151,-8.5 159.8,-6.3 162.7,-1.3 153.9,-3.5 			"/>
			<polygon class="st27" points="153.9,-3.5 162.7,-1.3 165.5,3.7 156.7,1.5 			"/>
			<polygon class="st28" points="156.7,1.5 165.5,3.7 168.4,8.7 159.6,6.5 			"/>
			<polygon class="st27" points="159.6,6.5 168.4,8.7 171.3,13.7 162.4,11.5 			"/>
			<polygon class="st28" points="99.7,-111.3 108.5,-109 111.3,-104 102.5,-106.3 			"/>
			<polygon class="st27" points="102.5,-106.3 111.3,-104 114.2,-99 105.4,-101.3 			"/>
			<polygon class="st28" points="105.4,-101.3 114.2,-99 117.1,-94 108.3,-96.3 			"/>
			<polygon class="st27" points="108.3,-96.3 117.1,-94 119.9,-89 111.1,-91.3 			"/>
			<polygon class="st28" points="111.1,-91.3 119.9,-89 122.8,-84 114,-86.3 			"/>
			<polygon class="st27" points="114,-86.3 122.8,-84 125.7,-79 116.9,-81.3 			"/>
			<polygon class="st28" points="116.9,-81.3 125.7,-79 128.5,-74 119.7,-76.3 			"/>
			<polygon class="st27" points="119.7,-76.3 128.5,-74 131.4,-69 122.6,-71.3 			"/>
			<polygon class="st28" points="122.6,-71.3 131.4,-69 134.3,-64 125.4,-66.3 			"/>
			<polygon class="st27" points="125.4,-66.3 134.3,-64 137.1,-59 128.3,-61.3 			"/>
			<polygon class="st28" points="128.3,-61.3 137.1,-59 140,-54 131.2,-56.3 			"/>
			<polygon class="st27" points="131.2,-56.3 140,-54 142.8,-49 134,-51.3 			"/>
			<polygon class="st28" points="134,-51.3 142.8,-49 145.7,-44 136.9,-46.3 			"/>
			<polygon class="st27" points="136.9,-46.3 145.7,-44 148.6,-39 139.8,-41.3 			"/>
			<polygon class="st28" points="139.8,-41.3 148.6,-39 151.4,-34 142.6,-36.3 			"/>
			<polygon class="st27" points="142.6,-36.3 151.4,-34 154.3,-29 145.5,-31.3 			"/>
			<polygon class="st28" points="145.5,-31.3 154.3,-29 157.2,-24 148.4,-26.3 			"/>
			<polygon class="st27" points="148.4,-26.3 157.2,-24 160,-19 151.2,-21.3 			"/>
			<polygon class="st28" points="151.2,-21.3 160,-19 162.9,-14 154.1,-16.3 			"/>
			<polygon class="st27" points="154.1,-16.3 162.9,-14 165.7,-9 156.9,-11.3 			"/>
			<polygon class="st28" points="156.9,-11.3 165.7,-9 168.6,-4 159.8,-6.3 			"/>
			<polygon class="st27" points="159.8,-6.3 168.6,-4 171.5,1 162.7,-1.3 			"/>
			<polygon class="st28" points="162.7,-1.3 171.5,1 174.3,6 165.5,3.7 			"/>
			<polygon class="st27" points="165.5,3.7 174.3,6 177.2,11 168.4,8.7 			"/>
			<polygon class="st28" points="168.4,8.7 177.2,11 180.1,16 171.3,13.7 			"/>
			<polygon class="st27" points="108.5,-109 117.3,-106.7 120.2,-101.7 111.3,-104 			"/>
			<polygon class="st28" points="111.3,-104 120.2,-101.7 123,-96.7 114.2,-99 			"/>
			<polygon class="st27" points="114.2,-99 123,-96.7 125.9,-91.7 117.1,-94 			"/>
			<polygon class="st28" points="117.1,-94 125.9,-91.7 128.7,-86.7 119.9,-89 			"/>
			<polygon class="st27" points="119.9,-89 128.7,-86.7 131.6,-81.7 122.8,-84 			"/>
			<polygon class="st28" points="122.8,-84 131.6,-81.7 134.5,-76.7 125.7,-79 			"/>
			<polygon class="st27" points="125.7,-79 134.5,-76.7 137.3,-71.7 128.5,-74 			"/>
			<polygon class="st28" points="128.5,-74 137.3,-71.7 140.2,-66.7 131.4,-69 			"/>
			<polygon class="st27" points="131.4,-69 140.2,-66.7 143.1,-61.7 134.3,-64 			"/>
			<polygon class="st28" points="134.3,-64 143.1,-61.7 145.9,-56.7 137.1,-59 			"/>
			<polygon class="st27" points="137.1,-59 145.9,-56.7 148.8,-51.7 140,-54 			"/>
			<polygon class="st28" points="140,-54 148.8,-51.7 151.6,-46.7 142.8,-49 			"/>
			<polygon class="st27" points="142.8,-49 151.6,-46.7 154.5,-41.7 145.7,-44 			"/>
			<polygon class="st28" points="145.7,-44 154.5,-41.7 157.4,-36.7 148.6,-39 			"/>
			<polygon class="st27" points="148.6,-39 157.4,-36.7 160.2,-31.7 151.4,-34 			"/>
			<polygon class="st28" points="151.4,-34 160.2,-31.7 163.1,-26.7 154.3,-29 			"/>
			<polygon class="st27" points="154.3,-29 163.1,-26.7 166,-21.7 157.2,-24 			"/>
			<polygon class="st28" points="157.2,-24 166,-21.7 168.8,-16.7 160,-19 			"/>
			<polygon class="st27" points="160,-19 168.8,-16.7 171.7,-11.7 162.9,-14 			"/>
			<polygon class="st28" points="162.9,-14 171.7,-11.7 174.5,-6.7 165.7,-9 			"/>
			<polygon class="st27" points="165.7,-9 174.5,-6.7 177.4,-1.7 168.6,-4 			"/>
			<polygon class="st28" points="168.6,-4 177.4,-1.7 180.3,3.3 171.5,1 			"/>
			<polygon class="st27" points="171.5,1 180.3,3.3 183.1,8.3 174.3,6 			"/>
			<polygon class="st28" points="174.3,6 183.1,8.3 186,13.3 177.2,11 			"/>
			<polygon class="st27" points="177.2,11 186,13.3 188.9,18.3 180.1,16 			"/>
			<polygon class="st28" points="117.3,-106.7 126.1,-104.4 129,-99.4 120.2,-101.7 			"/>
			<polygon class="st27" points="120.2,-101.7 129,-99.4 131.8,-94.4 123,-96.7 			"/>
			<polygon class="st28" points="123,-96.7 131.8,-94.4 134.7,-89.4 125.9,-91.7 			"/>
			<polygon class="st27" points="125.9,-91.7 134.7,-89.4 137.5,-84.4 128.7,-86.7 			"/>
			<polygon class="st28" points="128.7,-86.7 137.5,-84.4 140.4,-79.4 131.6,-81.7 			"/>
			<polygon class="st27" points="131.6,-81.7 140.4,-79.4 143.3,-74.4 134.5,-76.7 			"/>
			<polygon class="st28" points="134.5,-76.7 143.3,-74.4 146.1,-69.4 137.3,-71.7 			"/>
			<polygon class="st27" points="137.3,-71.7 146.1,-69.4 149,-64.4 140.2,-66.7 			"/>
			<polygon class="st28" points="140.2,-66.7 149,-64.4 151.9,-59.4 143.1,-61.7 			"/>
			<polygon class="st27" points="143.1,-61.7 151.9,-59.4 154.7,-54.4 145.9,-56.7 			"/>
			<polygon class="st28" points="145.9,-56.7 154.7,-54.4 157.6,-49.4 148.8,-51.7 			"/>
			<polygon class="st27" points="148.8,-51.7 157.6,-49.4 160.5,-44.4 151.6,-46.7 			"/>
			<polygon class="st28" points="151.6,-46.7 160.5,-44.4 163.3,-39.4 154.5,-41.7 			"/>
			<polygon class="st27" points="154.5,-41.7 163.3,-39.4 166.2,-34.4 157.4,-36.7 			"/>
			<polygon class="st28" points="157.4,-36.7 166.2,-34.4 169,-29.4 160.2,-31.7 			"/>
			<polygon class="st27" points="160.2,-31.7 169,-29.4 171.9,-24.4 163.1,-26.7 			"/>
			<polygon class="st28" points="163.1,-26.7 171.9,-24.4 174.8,-19.4 166,-21.7 			"/>
			<polygon class="st27" points="166,-21.7 174.8,-19.4 177.6,-14.4 168.8,-16.7 			"/>
			<polygon class="st28" points="168.8,-16.7 177.6,-14.4 180.5,-9.4 171.7,-11.7 			"/>
			<polygon class="st27" points="171.7,-11.7 180.5,-9.4 183.4,-4.4 174.5,-6.7 			"/>
			<polygon class="st28" points="174.5,-6.7 183.4,-4.4 186.2,0.6 177.4,-1.7 			"/>
			<polygon class="st27" points="177.4,-1.7 186.2,0.6 189.1,5.6 180.3,3.3 			"/>
			<polygon class="st28" points="180.3,3.3 189.1,5.6 191.9,10.6 183.1,8.3 			"/>
			<polygon class="st27" points="183.1,8.3 191.9,10.6 194.8,15.6 186,13.3 			"/>
			<polygon class="st28" points="186,13.3 194.8,15.6 197.7,20.6 188.9,18.3 			"/>
			<polygon class="st27" points="126.1,-104.4 134.9,-102.1 137.8,-97.1 129,-99.4 			"/>
			<polygon class="st28" points="129,-99.4 137.8,-97.1 140.6,-92.1 131.8,-94.4 			"/>
			<polygon class="st27" points="131.8,-94.4 140.6,-92.1 143.5,-87.1 134.7,-89.4 			"/>
			<polygon class="st28" points="134.7,-89.4 143.5,-87.1 146.4,-82.1 137.5,-84.4 			"/>
			<polygon class="st27" points="137.5,-84.4 146.4,-82.1 149.2,-77.1 140.4,-79.4 			"/>
			<polygon class="st28" points="140.4,-79.4 149.2,-77.1 152.1,-72.1 143.3,-74.4 			"/>
			<polygon class="st27" points="143.3,-74.4 152.1,-72.1 154.9,-67.1 146.1,-69.4 			"/>
			<polygon class="st28" points="146.1,-69.4 154.9,-67.1 157.8,-62.1 149,-64.4 			"/>
			<polygon class="st27" points="149,-64.4 157.8,-62.1 160.7,-57.1 151.9,-59.4 			"/>
			<polygon class="st28" points="151.9,-59.4 160.7,-57.1 163.5,-52.1 154.7,-54.4 			"/>
			<polygon class="st27" points="154.7,-54.4 163.5,-52.1 166.4,-47.1 157.6,-49.4 			"/>
			<polygon class="st28" points="157.6,-49.4 166.4,-47.1 169.3,-42.1 160.5,-44.4 			"/>
			<polygon class="st27" points="160.5,-44.4 169.3,-42.1 172.1,-37.1 163.3,-39.4 			"/>
			<polygon class="st28" points="163.3,-39.4 172.1,-37.1 175,-32.1 166.2,-34.4 			"/>
			<polygon class="st27" points="166.2,-34.4 175,-32.1 177.8,-27.1 169,-29.4 			"/>
			<polygon class="st28" points="169,-29.4 177.8,-27.1 180.7,-22.1 171.9,-24.4 			"/>
			<polygon class="st27" points="171.9,-24.4 180.7,-22.1 183.6,-17.1 174.8,-19.4 			"/>
			<polygon class="st28" points="174.8,-19.4 183.6,-17.1 186.4,-12.1 177.6,-14.4 			"/>
			<polygon class="st27" points="177.6,-14.4 186.4,-12.1 189.3,-7.1 180.5,-9.4 			"/>
			<polygon class="st28" points="180.5,-9.4 189.3,-7.1 192.2,-2.1 183.4,-4.4 			"/>
			<polygon class="st27" points="183.4,-4.4 192.2,-2.1 195,2.9 186.2,0.6 			"/>
			<polygon class="st28" points="186.2,0.6 195,2.9 197.9,7.9 189.1,5.6 			"/>
			<polygon class="st27" points="189.1,5.6 197.9,7.9 200.7,12.9 191.9,10.6 			"/>
			<polygon class="st28" points="191.9,10.6 200.7,12.9 203.6,17.9 194.8,15.6 			"/>
			<polygon class="st27" points="194.8,15.6 203.6,17.9 206.5,22.9 197.7,20.6 			"/>
			<polygon class="st28" points="134.9,-102.1 143.7,-99.9 146.6,-94.9 137.8,-97.1 			"/>
			<polygon class="st27" points="137.8,-97.1 146.6,-94.9 149.4,-89.9 140.6,-92.1 			"/>
			<polygon class="st28" points="140.6,-92.1 149.4,-89.9 152.3,-84.9 143.5,-87.1 			"/>
			<polygon class="st27" points="143.5,-87.1 152.3,-84.9 155.2,-79.9 146.4,-82.1 			"/>
			<polygon class="st28" points="146.4,-82.1 155.2,-79.9 158,-74.9 149.2,-77.1 			"/>
			<polygon class="st27" points="149.2,-77.1 158,-74.9 160.9,-69.9 152.1,-72.1 			"/>
			<polygon class="st28" points="152.1,-72.1 160.9,-69.9 163.7,-64.9 154.9,-67.1 			"/>
			<polygon class="st27" points="154.9,-67.1 163.7,-64.9 166.6,-59.9 157.8,-62.1 			"/>
			<polygon class="st28" points="157.8,-62.1 166.6,-59.9 169.5,-54.9 160.7,-57.1 			"/>
			<polygon class="st27" points="160.7,-57.1 169.5,-54.9 172.3,-49.9 163.5,-52.1 			"/>
			<polygon class="st28" points="163.5,-52.1 172.3,-49.9 175.2,-44.9 166.4,-47.1 			"/>
			<polygon class="st27" points="166.4,-47.1 175.2,-44.9 178.1,-39.9 169.3,-42.1 			"/>
			<polygon class="st28" points="169.3,-42.1 178.1,-39.9 180.9,-34.9 172.1,-37.1 			"/>
			<polygon class="st27" points="172.1,-37.1 180.9,-34.9 183.8,-29.9 175,-32.1 			"/>
			<polygon class="st28" points="175,-32.1 183.8,-29.9 186.6,-24.9 177.8,-27.1 			"/>
			<polygon class="st27" points="177.8,-27.1 186.6,-24.9 189.5,-19.9 180.7,-22.1 			"/>
			<polygon class="st28" points="180.7,-22.1 189.5,-19.9 192.4,-14.9 183.6,-17.1 			"/>
			<polygon class="st27" points="183.6,-17.1 192.4,-14.9 195.2,-9.9 186.4,-12.1 			"/>
			<polygon class="st28" points="186.4,-12.1 195.2,-9.9 198.1,-4.9 189.3,-7.1 			"/>
			<polygon class="st27" points="189.3,-7.1 198.1,-4.9 201,0.1 192.2,-2.1 			"/>
			<polygon class="st28" points="192.2,-2.1 201,0.1 203.8,5.1 195,2.9 			"/>
			<polygon class="st27" points="195,2.9 203.8,5.1 206.7,10.1 197.9,7.9 			"/>
			<polygon class="st28" points="197.9,7.9 206.7,10.1 209.6,15.1 200.7,12.9 			"/>
			<polygon class="st27" points="200.7,12.9 209.6,15.1 212.4,20.1 203.6,17.9 			"/>
			<polygon class="st28" points="203.6,17.9 212.4,20.1 215.3,25.1 206.5,22.9 			"/>
			<polygon class="st27" points="143.7,-99.9 152.5,-97.6 155.4,-92.6 146.6,-94.9 			"/>
			<polygon class="st28" points="146.6,-94.9 155.4,-92.6 158.2,-87.6 149.4,-89.9 			"/>
			<polygon class="st27" points="149.4,-89.9 158.2,-87.6 161.1,-82.6 152.3,-84.9 			"/>
			<polygon class="st28" points="152.3,-84.9 161.1,-82.6 164,-77.6 155.2,-79.9 			"/>
			<polygon class="st27" points="155.2,-79.9 164,-77.6 166.8,-72.6 158,-74.9 			"/>
			<polygon class="st28" points="158,-74.9 166.8,-72.6 169.7,-67.6 160.9,-69.9 			"/>
			<polygon class="st27" points="160.9,-69.9 169.7,-67.6 172.6,-62.6 163.7,-64.9 			"/>
			<polygon class="st28" points="163.7,-64.9 172.6,-62.6 175.4,-57.6 166.6,-59.9 			"/>
			<polygon class="st27" points="166.6,-59.9 175.4,-57.6 178.3,-52.6 169.5,-54.9 			"/>
			<polygon class="st28" points="169.5,-54.9 178.3,-52.6 181.1,-47.6 172.3,-49.9 			"/>
			<polygon class="st27" points="172.3,-49.9 181.1,-47.6 184,-42.6 175.2,-44.9 			"/>
			<polygon class="st28" points="175.2,-44.9 184,-42.6 186.9,-37.6 178.1,-39.9 			"/>
			<polygon class="st27" points="178.1,-39.9 186.9,-37.6 189.7,-32.6 180.9,-34.9 			"/>
			<polygon class="st28" points="180.9,-34.9 189.7,-32.6 192.6,-27.6 183.8,-29.9 			"/>
			<polygon class="st27" points="183.8,-29.9 192.6,-27.6 195.5,-22.6 186.6,-24.9 			"/>
			<polygon class="st28" points="186.6,-24.9 195.5,-22.6 198.3,-17.6 189.5,-19.9 			"/>
			<polygon class="st27" points="189.5,-19.9 198.3,-17.6 201.2,-12.6 192.4,-14.9 			"/>
			<polygon class="st28" points="192.4,-14.9 201.2,-12.6 204,-7.6 195.2,-9.9 			"/>
			<polygon class="st27" points="195.2,-9.9 204,-7.6 206.9,-2.6 198.1,-4.9 			"/>
			<polygon class="st28" points="198.1,-4.9 206.9,-2.6 209.8,2.4 201,0.1 			"/>
			<polygon class="st27" points="201,0.1 209.8,2.4 212.6,7.4 203.8,5.1 			"/>
			<polygon class="st28" points="203.8,5.1 212.6,7.4 215.5,12.4 206.7,10.1 			"/>
			<polygon class="st27" points="206.7,10.1 215.5,12.4 218.4,17.4 209.6,15.1 			"/>
			<polygon class="st28" points="209.6,15.1 218.4,17.4 221.2,22.4 212.4,20.1 			"/>
			<polygon class="st27" points="212.4,20.1 221.2,22.4 224.1,27.4 215.3,25.1 			"/>
			<polygon class="st28" points="152.5,-97.6 161.3,-95.3 164.2,-90.3 155.4,-92.6 			"/>
			<polygon class="st27" points="155.4,-92.6 164.2,-90.3 167,-85.3 158.2,-87.6 			"/>
			<polygon class="st28" points="158.2,-87.6 167,-85.3 169.9,-80.3 161.1,-82.6 			"/>
			<polygon class="st27" points="161.1,-82.6 169.9,-80.3 172.8,-75.3 164,-77.6 			"/>
			<polygon class="st28" points="164,-77.6 172.8,-75.3 175.6,-70.3 166.8,-72.6 			"/>
			<polygon class="st27" points="166.8,-72.6 175.6,-70.3 178.5,-65.3 169.7,-67.6 			"/>
			<polygon class="st28" points="169.7,-67.6 178.5,-65.3 181.4,-60.3 172.6,-62.6 			"/>
			<polygon class="st27" points="172.6,-62.6 181.4,-60.3 184.2,-55.3 175.4,-57.6 			"/>
			<polygon class="st28" points="175.4,-57.6 184.2,-55.3 187.1,-50.3 178.3,-52.6 			"/>
			<polygon class="st27" points="178.3,-52.6 187.1,-50.3 189.9,-45.3 181.1,-47.6 			"/>
			<polygon class="st28" points="181.1,-47.6 189.9,-45.3 192.8,-40.3 184,-42.6 			"/>
			<polygon class="st27" points="184,-42.6 192.8,-40.3 195.7,-35.3 186.9,-37.6 			"/>
			<polygon class="st28" points="186.9,-37.6 195.7,-35.3 198.5,-30.3 189.7,-32.6 			"/>
			<polygon class="st27" points="189.7,-32.6 198.5,-30.3 201.4,-25.3 192.6,-27.6 			"/>
			<polygon class="st28" points="192.6,-27.6 201.4,-25.3 204.3,-20.3 195.5,-22.6 			"/>
			<polygon class="st27" points="195.5,-22.6 204.3,-20.3 207.1,-15.3 198.3,-17.6 			"/>
			<polygon class="st28" points="198.3,-17.6 207.1,-15.3 210,-10.3 201.2,-12.6 			"/>
			<polygon class="st27" points="201.2,-12.6 210,-10.3 212.8,-5.3 204,-7.6 			"/>
			<polygon class="st28" points="204,-7.6 212.8,-5.3 215.7,-0.3 206.9,-2.6 			"/>
			<polygon class="st27" points="206.9,-2.6 215.7,-0.3 218.6,4.7 209.8,2.4 			"/>
			<polygon class="st28" points="209.8,2.4 218.6,4.7 221.4,9.7 212.6,7.4 			"/>
			<polygon class="st27" points="212.6,7.4 221.4,9.7 224.3,14.7 215.5,12.4 			"/>
			<polygon class="st28" points="215.5,12.4 224.3,14.7 227.2,19.7 218.4,17.4 			"/>
			<polygon class="st27" points="218.4,17.4 227.2,19.7 230,24.7 221.2,22.4 			"/>
			<polygon class="st28" points="221.2,22.4 230,24.7 232.9,29.7 224.1,27.4 			"/>
			<polygon class="st27" points="161.3,-95.3 170.1,-93 173,-88 164.2,-90.3 			"/>
			<polygon class="st28" points="164.2,-90.3 173,-88 175.8,-83 167,-85.3 			"/>
			<polygon class="st27" points="167,-85.3 175.8,-83 178.7,-78 169.9,-80.3 			"/>
			<polygon class="st28" points="169.9,-80.3 178.7,-78 181.6,-73 172.8,-75.3 			"/>
			<polygon class="st27" points="172.8,-75.3 181.6,-73 184.4,-68 175.6,-70.3 			"/>
			<polygon class="st28" points="175.6,-70.3 184.4,-68 187.3,-63 178.5,-65.3 			"/>
			<polygon class="st27" points="178.5,-65.3 187.3,-63 190.2,-58 181.4,-60.3 			"/>
			<polygon class="st28" points="181.4,-60.3 190.2,-58 193,-53 184.2,-55.3 			"/>
			<polygon class="st27" points="184.2,-55.3 193,-53 195.9,-48 187.1,-50.3 			"/>
			<polygon class="st28" points="187.1,-50.3 195.9,-48 198.7,-43 189.9,-45.3 			"/>
			<polygon class="st27" points="189.9,-45.3 198.7,-43 201.6,-38 192.8,-40.3 			"/>
			<polygon class="st28" points="192.8,-40.3 201.6,-38 204.5,-33 195.7,-35.3 			"/>
			<polygon class="st27" points="195.7,-35.3 204.5,-33 207.3,-28 198.5,-30.3 			"/>
			<polygon class="st28" points="198.5,-30.3 207.3,-28 210.2,-23 201.4,-25.3 			"/>
			<polygon class="st27" points="201.4,-25.3 210.2,-23 213.1,-18 204.3,-20.3 			"/>
			<polygon class="st28" points="204.3,-20.3 213.1,-18 215.9,-13 207.1,-15.3 			"/>
			<polygon class="st27" points="207.1,-15.3 215.9,-13 218.8,-8 210,-10.3 			"/>
			<polygon class="st28" points="210,-10.3 218.8,-8 221.7,-3 212.8,-5.3 			"/>
			<polygon class="st27" points="212.8,-5.3 221.7,-3 224.5,2 215.7,-0.3 			"/>
			<polygon class="st28" points="215.7,-0.3 224.5,2 227.4,7 218.6,4.7 			"/>
			<polygon class="st27" points="218.6,4.7 227.4,7 230.2,12 221.4,9.7 			"/>
			<polygon class="st28" points="221.4,9.7 230.2,12 233.1,17 224.3,14.7 			"/>
			<polygon class="st27" points="224.3,14.7 233.1,17 236,22 227.2,19.7 			"/>
			<polygon class="st28" points="227.2,19.7 236,22 238.8,27 230,24.7 			"/>
			<polygon class="st27" points="230,24.7 238.8,27 241.7,32 232.9,29.7 			"/>
		</g>
	</g>
	<g transform="translate(43.3068134398453, 18.306813439845303) scale(0.6338637312030939) rotate(0, 50.0, 50.0)">
		<path class="st29" d="M112-93.2c1.1-1.4,2.3-2.2,3.7-2.7c-1.7,1.1-2.9,2.7-3.1,5.1c0.8-1.6,1.9-2.7,3.1-3.7
			c-1.3,1.6-2,3.7-1.6,6.3c0.4-2,1.3-3.6,2.5-5c-0.7,1.8-0.7,3.8,0.3,6.1c-0.1-2.3,0.4-4.3,1.3-5.7l0.2,2h-0.2l0.2,2.3h-0.2l0.2,2.3
			h-0.2l0.2,2.3l-0.7,0.7h1.3h1.3l-0.7-0.6l0.2-2.3h-0.2l0.2-2.3h-0.2l0.2-2.3h-0.2l0.2-2c1,1.4,1.5,3.4,1.3,5.7
			c1-2.3,0.9-4.3,0.3-6.1c1.2,1.4,2.1,3,2.5,5c0.4-2.5-0.3-4.6-1.6-6.2c1.3,0.9,2.4,2.1,3.1,3.7c-0.2-2.4-1.4-4-3.1-5.1
			c1.4,0.5,2.7,1.3,3.7,2.7c-0.7-2.5-2.3-3.5-4.2-4.1c1.3-0.1,2.5,0,3.8,0.8c-1.3-1.8-3.1-2.1-4.9-1.9c0.8-0.4,1.6-0.6,2.6-0.4
			c-1.1-0.8-2.4-0.8-3.6-0.2l-0.7-1.6l-0.6,1.6c-1.2-0.6-2.6-0.6-3.6,0.2c0.9-0.1,1.8,0,2.6,0.4c-1.8-0.2-3.6,0.1-5,1.9
			c1.2-0.8,2.5-0.9,3.8-0.8C114.2-96.7,112.7-95.7,112-93.2"/>
		<path class="st29" d="M124.3-77.5c-0.1,0.4-0.4,0.6-0.7,0.5c-0.5-0.1-1-0.6-1.4-0.9c0.9-1,0.7-2,0-2.1c0.3,0.8-0.3,1.3-0.6,1.6
			c-0.6-0.5-1.2-1-1.8-1.6c2.9-2.4,6.2-4.6,10.4-4.7c-4.6-1.7-8.2,1.1-11.3,3.9c-3.1-2.8-6.7-5.6-11.3-3.9c4.2,0.1,7.5,2.3,10.4,4.7
			c-0.6,0.6-1.2,1.1-1.8,1.6c-0.2-0.3-0.8-0.8-0.6-1.6c-0.7,0-0.9,1.1,0,2.1c-0.3,0.3-0.9,0.8-1.4,0.9c-0.3,0.1-0.7-0.1-0.7-0.5
			c-0.1-0.8-1.4-0.7-1.3,0.5c0.2,1,1.4,1.5,2.5,1c0.4-0.2,1-0.8,1.5-1.1c0.2,0.3,0.8,0.8,0.6,1.6c0.7,0,0.9-1.1,0-2.1
			c0.6-0.5,1.3-1.1,1.9-1.6c0.7,0.5,1.3,1.1,1.9,1.6c-0.9,1-0.7,2,0,2.1c-0.3-0.8,0.3-1.3,0.5-1.6c0.5,0.4,1.1,0.9,1.5,1.1
			c1.1,0.5,2.4,0,2.5-1C125.7-78.2,124.4-78.3,124.3-77.5"/>
	</g>
</g>
<g transform="translate(0, 25)">
	<g>
		<defs>
			<rect id="SVGID_17_" x="100" y="-50" width="37.5" height="25"/>
		</defs>
		<clipPath id="SVGID_18_">
			<use xlink:href="#SVGID_17_"  style="overflow:visible;"/>
		</clipPath>
		<g class="st30">
			<rect x="100" y="-50" class="st14" width="37.5" height="25"/>
			<rect x="101" y="-49" class="st31" width="35.5" height="23"/>
		</g>
	</g>
	<path class="st1" d="M125.6-37.5l-4.1,1.3l1.5,4l-3.6-2.4l-2.2,3.7l-0.4-4.3l-4.2,0.6l3.1-3l-3.1-3l4.2,0.6l0.4-4.3l2.2,3.7
		l3.6-2.4l-1.5,4L125.6-37.5z"/>
</g>
<g transform="translate(0, 0)">
	<g>
		<defs>
			<rect id="SVGID_19_" x="100" y="-50" width="18.8" height="12.5"/>
		</defs>
		<clipPath id="SVGID_20_">
			<use xlink:href="#SVGID_19_"  style="overflow:visible;"/>
		</clipPath>
		<g class="st32">
			<path class="st2" d="M109.4-43.8V-25l7.2-1.4L109.4-43.8z"/>
			<path class="st33" d="M109.4-43.8l7.2,17.3l6.1-4.1L109.4-43.8z"/>
			<path class="st2" d="M109.4-43.8l13.3,13.3l4.1-6.1L109.4-43.8z"/>
			<path class="st33" d="M109.4-43.8l17.3,7.2l1.4-7.2H109.4z"/>
			<path class="st2" d="M109.4-43.8h18.8l-1.4-7.2L109.4-43.8z"/>
			<path class="st33" d="M109.4-43.8l17.3-7.2l-4.1-6.1L109.4-43.8z"/>
			<path class="st2" d="M109.4-43.8L122.6-57l-6.1-4.1L109.4-43.8z"/>
			<path class="st33" d="M109.4-43.8l7.2-17.3l-7.2-1.4V-43.8z"/>
			<path class="st2" d="M109.4-43.8v-18.8l-7.2,1.4L109.4-43.8z"/>
			<path class="st33" d="M109.4-43.8l-7.2-17.3L96.1-57L109.4-43.8z"/>
			<path class="st2" d="M109.4-43.8L96.1-57l-4.1,6.1L109.4-43.8z"/>
			<path class="st33" d="M109.4-43.8l-17.3-7.2l-1.4,7.2H109.4z"/>
			<path class="st2" d="M109.4-43.8H90.6l1.4,7.2L109.4-43.8z"/>
			<path class="st33" d="M109.4-43.8l-17.3,7.2l4.1,6.1L109.4-43.8z"/>
			<path class="st2" d="M109.4-43.8L96.1-30.5l6.1,4.1L109.4-43.8z"/>
			<path class="st33" d="M109.4-43.8l-7.2,17.3l7.2,1.4V-43.8z"/>
		</g>
	</g>
	<g>
		<defs>
			<rect id="SVGID_21_" x="100" y="-50" width="9.4" height="6.3"/>
		</defs>
		<clipPath id="SVGID_22_">
			<use xlink:href="#SVGID_21_"  style="overflow:visible;"/>
		</clipPath>
		<g class="st34">
			<rect x="100" y="-50" class="st1" width="9.4" height="0.9"/>
			<rect x="100" y="-49.1" class="st2" width="9.4" height="0.9"/>
			<rect x="100" y="-48.2" class="st1" width="9.4" height="0.9"/>
			<rect x="100" y="-47.3" class="st2" width="9.4" height="0.9"/>
			<rect x="100" y="-46.4" class="st1" width="9.4" height="0.9"/>
			<rect x="100" y="-45.5" class="st2" width="9.4" height="0.9"/>
			<rect x="100" y="-44.6" class="st1" width="9.4" height="0.9"/>
		</g>
	</g>
	<g id="empty_1_">
	</g>
	<g id="empty_2_">
	</g>
</g>
<g transform="translate(18.75, 12.5)">
	<g>
		<defs>
			<rect id="SVGID_23_" x="100" y="-50" width="18.8" height="12.5"/>
		</defs>
		<clipPath id="SVGID_24_">
			<use xlink:href="#SVGID_23_"  style="overflow:visible;"/>
		</clipPath>
		<g class="st35">
			<rect x="100" y="-50" width="18.8" height="12.5"/>
		</g>
	</g>
	<path class="st3" d="M111.9-43.8l-1.6,0.6l0.3,1.6l-1.3-1.1l-1.3,1.1l0.3-1.6l-1.6-0.6l1.6-0.6l-0.3-1.6l1.3,1.1l1.3-1.1l-0.3,1.6
		L111.9-43.8z"/>
</g>
<g transform="translate(18.75, 0)">
	<g>
		<defs>
			<rect id="SVGID_25_" x="100" y="-50" width="18.8" height="12.5"/>
		</defs>
		<clipPath id="SVGID_26_">
			<use xlink:href="#SVGID_25_"  style="overflow:visible;"/>
		</clipPath>
		<g class="st36">
			<path class="st5" d="M100-37.5L118.8-50v12.5H100z"/>
			<path class="st2" d="M100-37.5L118.8-50H100V-37.5z"/>
		</g>
	</g>
	<g transform="translate(9.08695097795441, 9.08695097795441) scale(0.2182609804409118) rotate(0, 50.0, 50.0)">
		<path class="st6" d="M428-265.3l1.5,4.5h4.8l-3.9,2.8l1.5,4.5l-3.9-2.8l-3.9,2.8l1.5-4.5l-3.9-2.8h4.8L428-265.3"/>
	</g>
</g>
<g transform="translate(0, 12.5)">
	<g>
		<defs>
			<rect id="SVGID_27_" x="100" y="-50" width="18.8" height="12.5"/>
		</defs>
		<clipPath id="SVGID_28_">
			<use xlink:href="#SVGID_27_"  style="overflow:visible;"/>
		</clipPath>
		<g class="st37">
			<path class="st38" d="M100-37.5L118.8-50v12.5H100z"/>
			<path class="st11" d="M100-37.5L118.8-50H100V-37.5z"/>
		</g>
	</g>
	<g transform="translate(52.50557603784942, 27.505576037849426) scale(0.4498884792430115) rotate(0, 50.0, 50.0)">
		<path class="st2" d="M125.9-153.4c-0.3-0.3-0.9-0.9-1.5-1.3c-1.7-1.3-1.9-1.4-2.5-2c-1.2-1.1-1.7-2.3-1.7-3.8c0-0.8,0.1-1,0.3-1.5
			c0.4-0.8,0.9-1.3,1.6-1.6c0.5-0.2,0.7-0.4,1.5-0.4c0.8,0,1,0.1,1.5,0.4c0.6,0.3,1.2,1,1.3,1.5l0.1,0.3l0.2-0.4
			c1.1-2.4,4.6-2.3,5.8,0.1c0.4,0.8,0.4,2.4,0.1,3.3c-0.5,1.2-1.3,2.1-3.2,3.5c-1.3,0.9-2.7,2.3-2.8,2.5
			C126.3-152.6,126.4-152.8,125.9-153.4"/>
	</g>
</g>
</svg>
