<?xml version="1.0" encoding="utf-8"?>
<!-- Generator: Adobe Illustrator 19.0.0, SVG Export Plug-In . SVG Version: 6.00 Build 0)  -->
<svg version="1.1" xmlns="http://www.w3.org/2000/svg" xmlns:xlink="http://www.w3.org/1999/xlink" x="0px" y="0px"
	 viewBox="100 -50 300 200" style="enable-background:new 100 -50 300 200;" xml:space="preserve">
<style type="text/css">
	.st0{clip-path:url(#SVGID_2_);}
	.st1{fill:#FFCE00;}
	.st2{fill:#FFFFFF;}
	.st3{fill:#003897;}
	.st4{clip-path:url(#SVGID_4_);}
	.st5{fill:#FF0000;}
	.st6{clip-path:url(#SVGID_6_);}
	.st7{fill:#0066CC;}
	.st8{clip-path:url(#SVGID_8_);}
	.st9{fill:#003265;}
	.st10{fill:#CC0000;}
	.st11{clip-path:url(#SVGID_10_);}
	.st12{clip-path:url(#SVGID_12_);}
	.st13{clip-path:url(#SVGID_14_);}
	.st14{clip-path:url(#SVGID_16_);}
	.st15{fill:#313D83;}
	.st16{clip-path:url(#SVGID_18_);}
	.st17{fill:#5FA3E7;}
	.st18{fill:#4CCDE1;}
	.st19{clip-path:url(#SVGID_20_);}
	.st20{fill:#FE036C;}
	.st21{fill:#935316;}
	.st22{clip-path:url(#SVGID_22_);}
	.st23{fill:#708090;}
	.st24{clip-path:url(#SVGID_24_);}
	.st25{clip-path:url(#SVGID_26_);}
</style>
<g id="total-flag" xmlns:ev="http://www.w3.org/2001/xml-events">
	<g transform="translate(0, 100)">
		<g>
			<defs>
				<rect id="SVGID_1_" x="100" y="-50" width="150" height="100"/>
			</defs>
			<clipPath id="SVGID_2_">
				<use xlink:href="#SVGID_1_"  style="overflow:visible;"/>
			</clipPath>
			<g class="st0">
				<path class="st1" d="M100,50L250-50V50H100z"/>
				<path class="st2" d="M100,50L250-50H100V50z"/>
			</g>
		</g>
		<g transform="translate(7.467215234491997, 7.467215234491997) scale(0.2506556953101601) rotate(0, 50.0, 50.0)">
			<path class="st3" d="M449-197.6l11.8,36.3H499l-30.9,22.5l11.8,36.3L449-125l-30.9,22.5l11.8-36.3L399-161.3h38.2L449-197.6"/>
		</g>
	</g>
	<g transform="translate(150, 0)">
		<g>
			<defs>
				<rect id="SVGID_3_" x="100" y="-50" width="150" height="100"/>
			</defs>
			<clipPath id="SVGID_4_">
				<use xlink:href="#SVGID_3_"  style="overflow:visible;"/>
			</clipPath>
			<g class="st4">
				<path class="st3" d="M100,50L250-50V50H100z"/>
				<path class="st2" d="M100,50L250-50H100V50z"/>
			</g>
		</g>
		<g transform="translate(9.08695097795441, 9.08695097795441) scale(0.2182609804409118) rotate(0, 50.0, 50.0)">
			<path class="st5" d="M508.2-227.2l11.8,36.3h38.2l-30.9,22.5l11.8,36.3l-30.9-22.5l-30.9,22.5l11.8-36.3l-30.9-22.5h38.2
				L508.2-227.2"/>
		</g>
	</g>
	<g transform="translate(150, 100)">
		<g>
			<defs>
				<rect id="SVGID_5_" x="100" y="-50" width="150" height="100"/>
			</defs>
			<clipPath id="SVGID_6_">
				<use xlink:href="#SVGID_5_"  style="overflow:visible;"/>
			</clipPath>
			<g class="st6">
				<rect x="100" y="-50" class="st7" width="150" height="100"/>
			</g>
		</g>
		<path class="st2" d="M197.5,0l-11.7,4.5l5.1,11.5l-11.5-5.1L175,22.5l-4.5-11.7l-11.5,5.1l5.1-11.5L152.5,0l11.7-4.5l-5.1-11.5
			l11.5,5.1l4.5-11.7l4.5,11.7l11.5-5.1l-5.1,11.5L197.5,0z"/>
	</g>
	<g transform="translate(37.5, 25)">
		<g>
			<defs>
				<rect id="SVGID_7_" x="100" y="-50" width="37.5" height="25"/>
			</defs>
			<clipPath id="SVGID_8_">
				<use xlink:href="#SVGID_7_"  style="overflow:visible;"/>
			</clipPath>
			<g class="st8">
				<path class="st9" d="M100-25l37.5-25v25H100z"/>
				<path class="st2" d="M100-25l37.5-25H100V-25z"/>
			</g>
		</g>
		<path class="st10" d="M107.6-45l-1.4,0.4l0.9,1.1l-1.4-0.5l0.1,1.4l-0.8-1.2l-0.8,1.2l0.1-1.4l-1.4,0.5l0.9-1.1l-1.4-0.4l1.4-0.4
			l-0.9-1.1l1.4,0.5l-0.1-1.4l0.8,1.2l0.8-1.2l-0.1,1.4l1.4-0.5l-0.9,1.1L107.6-45z"/>
	</g>
	<g transform="translate(0, 25)">
		<g>
			<defs>
				<rect id="SVGID_9_" x="100" y="-50" width="37.5" height="25"/>
			</defs>
			<clipPath id="SVGID_10_">
				<use xlink:href="#SVGID_9_"  style="overflow:visible;"/>
			</clipPath>
			<g class="st11">
				<g>
					<path class="st1" d="M136.5-49v23H101v-23H136.5 M137.5-50H100v25h37.5V-50L137.5-50z"/>
				</g>
				<g>
					<path class="st1" d="M135.5-48v21H102v-21H135.5 M136.5-49H101v23h35.5V-49L136.5-49z"/>
				</g>
			</g>
		</g>
		<path class="st5" d="M125.6-37.5l-4.1,1.3l1.5,4l-3.6-2.4l-2.2,3.7l-0.4-4.3l-4.2,0.6l3.1-3l-3.1-3l4.2,0.6l0.4-4.3l2.2,3.7
			l3.6-2.4l-1.5,4L125.6-37.5z"/>
	</g>
	<g transform="translate(18.75, 12.5)">
		<g>
			<defs>
				<rect id="SVGID_11_" x="100" y="-50" width="18.8" height="12.5"/>
			</defs>
			<clipPath id="SVGID_12_">
				<use xlink:href="#SVGID_11_"  style="overflow:visible;"/>
			</clipPath>
			<g class="st12">
				<rect x="100" y="-50" width="18.8" height="12.5"/>
			</g>
		</g>
		<path class="st10" d="M111.9-43.8l-1.6,0.6l0.3,1.6l-1.3-1.1l-1.3,1.1l0.3-1.6l-1.6-0.6l1.6-0.6l-0.3-1.6l1.3,1.1l1.3-1.1
			l-0.3,1.6L111.9-43.8z"/>
	</g>
	<g transform="translate(18.75, 0)">
		<g>
			<defs>
				<rect id="SVGID_13_" x="100" y="-50" width="18.8" height="12.5"/>
			</defs>
			<clipPath id="SVGID_14_">
				<use xlink:href="#SVGID_13_"  style="overflow:visible;"/>
			</clipPath>
			<g class="st13">
				<path class="st3" d="M100-37.5L118.8-50v12.5H100z"/>
				<path class="st2" d="M100-37.5L118.8-50H100V-37.5z"/>
			</g>
		</g>
		<g transform="translate(9.08695097795441, 9.08695097795441) scale(0.2182609804409118) rotate(0, 50.0, 50.0)">
			<path class="st5" d="M428-265.3l1.5,4.5h4.8l-3.9,2.8l1.5,4.5l-3.9-2.8l-3.9,2.8l1.5-4.5l-3.9-2.8h4.8L428-265.3"/>
		</g>
	</g>
	<g transform="translate(75, 50)">
		<g>
			<defs>
				<rect id="SVGID_15_" x="100" y="-50" width="75" height="50"/>
			</defs>
			<clipPath id="SVGID_16_">
				<use xlink:href="#SVGID_15_"  style="overflow:visible;"/>
			</clipPath>
			<g class="st14">
				<rect x="100" y="-50" class="st5" width="75" height="50"/>
			</g>
		</g>
		<path class="st15" d="M156.9-25l-11.6,2.8l7.1,9.6l-10.7-5.3l-0.8,11.9l-4.8-10.9l-8.3,8.6l3.3-11.5l-11.9,1.3l9.9-6.6l-9.9-6.6
			l11.9,1.3l-3.3-11.5l8.3,8.6l4.8-10.9l0.8,11.9l10.7-5.3l-7.1,9.6L156.9-25z"/>
	</g>
	<g transform="translate(0, 50)">
		<g>
			<defs>
				<rect id="SVGID_17_" x="100" y="-50" width="75" height="50"/>
			</defs>
			<clipPath id="SVGID_18_">
				<use xlink:href="#SVGID_17_"  style="overflow:visible;"/>
			</clipPath>
			<g class="st16">
				<rect x="100" y="-50" class="st17" width="75" height="16.7"/>
				<rect x="100" y="-33.3" class="st2" width="75" height="16.7"/>
				<rect x="100" y="-16.7" class="st18" width="75" height="16.7"/>
			</g>
		</g>
		<path d="M156.9-25l-9.3,4.2l3.6,9.6l-9.6-3.6l-4.2,9.3l-4.2-9.3l-9.6,3.6l3.6-9.6l-9.3-4.2l9.3-4.2l-3.6-9.6l9.6,3.6l4.2-9.3
			l4.2,9.3l9.6-3.6l-3.6,9.6L156.9-25z"/>
	</g>
	<g transform="translate(75, 0)">
		<g>
			<defs>
				<rect id="SVGID_19_" x="100" y="-50" width="75" height="50"/>
			</defs>
			<clipPath id="SVGID_20_">
				<use xlink:href="#SVGID_19_"  style="overflow:visible;"/>
			</clipPath>
			<g class="st19">
				<path class="st1" d="M100,0l75-50V0H100z"/>
				<path class="st20" d="M100,0l75-50h-75V0z"/>
			</g>
		</g>
		<path class="st21" d="M149.1-25l-8.3,1.9l2.5,8.2l-5.8-6.3l-5.8,6.3l2.5-8.2l-8.3-1.9l8.3-1.9l-2.5-8.2l5.8,6.3l5.8-6.3l-2.5,8.2
			L149.1-25z"/>
	</g>
	<g transform="translate(37.5, 0)">
		<g>
			<defs>
				<rect id="SVGID_21_" x="100" y="-50" width="37.5" height="25"/>
			</defs>
			<clipPath id="SVGID_22_">
				<use xlink:href="#SVGID_21_"  style="overflow:visible;"/>
			</clipPath>
			<g class="st22">
				<rect x="100" y="-50" class="st23" width="37.5" height="25"/>
			</g>
		</g>
		<path class="st2" d="M116.8-37.5l-3.4,0.7l1.9,2.9l-2.9-1.9l-0.7,3.4l-0.7-3.4l-2.9,1.9l1.9-2.9l-3.4-0.7l3.4-0.7l-1.9-2.9
			l2.9,1.9l0.7-3.4l0.7,3.4l2.9-1.9l-1.9,2.9L116.8-37.5z"/>
	</g>
	<g transform="translate(0, 12.5)">
		<g>
			<defs>
				<rect id="SVGID_23_" x="100" y="-50" width="18.8" height="12.5"/>
			</defs>
			<clipPath id="SVGID_24_">
				<use xlink:href="#SVGID_23_"  style="overflow:visible;"/>
			</clipPath>
			<g class="st24">
				<rect x="100" y="-50" class="st5" width="18.8" height="12.5"/>
			</g>
		</g>
		<path class="st15" d="M114.2-43.8l-2.9,0.7l1.8,2.4l-2.7-1.3l-0.2,3l-1.2-2.7l-2.1,2.2l0.8-2.9l-3,0.3l2.5-1.7l-2.5-1.7l3,0.3
			l-0.8-2.9l2.1,2.2l1.2-2.7l0.2,3l2.7-1.3l-1.8,2.4L114.2-43.8z"/>
	</g>
	<g transform="translate(0, 0)">
		<g>
			<defs>
				<rect id="SVGID_25_" x="100" y="-50" width="18.8" height="12.5"/>
			</defs>
			<clipPath id="SVGID_26_">
				<use xlink:href="#SVGID_25_"  style="overflow:visible;"/>
			</clipPath>
			<g class="st25">
				<path class="st1" d="M100-37.5L118.8-50v12.5H100z"/>
				<path class="st20" d="M100-37.5L118.8-50H100V-37.5z"/>
			</g>
		</g>
		<path class="st21" d="M112.3-43.8l-2.1,0.5l0.6,2l-1.5-1.6l-1.5,1.6l0.6-2l-2.1-0.5l2.1-0.5l-0.6-2l1.5,1.6l1.5-1.6l-0.6,2
			L112.3-43.8z"/>
	</g>
</g>
<g id="Layer_2">
</g>
</svg>
