<svg id="total-flag" viewBox="0 0 450 300" preserveAspectRatio="xMidYMid meet"><g transform="translate(0, 0)"><svg xmlns="http://www.w3.org/2000/svg" xmlns:ev="http://www.w3.org/2001/xml-events" xmlns:xlink="http://www.w3.org/1999/xlink" baseProfile="full" height="100" version="1.1" width="150" viewBox="0 0 150 100" preserveAspectRatio="xMidYMid meet"><defs><clipPath id="mask0"><rect height="100" width="150" x="0" y="0"></rect></clipPath></defs><g clip-path="url(#mask0)"><rect fill="#ff3333" height="33.333333333333336" stroke="none" width="150" x="0" y="0.0"></rect><rect fill="#ffffff" height="33.333333333333336" stroke="none" width="150" x="0" y="33.333333333333336"></rect><rect fill="#6699ff" height="33.333333333333336" stroke="none" width="150" x="0" y="66.66666666666667"></rect></g><g transform="translate(54.53932086479277, 29.539320864792774) scale(0.40921358270414454) rotate(0, 50.0, 50.0)"><path d="M 51.4,81.1 C 51.4,82.5 51.4,83.89999999999999 51.4,85.3 C 51.3,87.8 52.0,90.1 53.6,92.1 C 55.4,94.5 55.300000000000004,97.0 53.6,98.8 C 52.1,100.39999999999999 49.5,100.7 47.7,99.6 C 45.7,98.3 44.5,95.39999999999999 45.900000000000006,93.69999999999999 C 49.7,89.1 49.00000000000001,83.79999999999998 49.00000000000001,78.6 C 49.00000000000001,76.6 48.60000000000001,74.6 48.50000000000001,72.6 C 48.400000000000006,71.5 47.900000000000006,71.19999999999999 46.900000000000006,71.0 C 45.900000000000006,70.9 45.00000000000001,70.7 44.00000000000001,70.4 C 41.10000000000001,69.4 41.10000000000001,69.4 39.300000000000004,71.9 C 36.7,75.30000000000001 34.7,78.9 35.50000000000001,83.60000000000001 C 35.900000000000006,86.00000000000001 33.70000000000001,88.30000000000001 31.300000000000008,88.60000000000001 C 29.40000000000001,88.9 27.000000000000007,87.30000000000001 26.300000000000008,85.30000000000001 C 25.500000000000007,83.10000000000001 26.40000000000001,80.50000000000001 28.60000000000001,79.60000000000001 C 33.70000000000001,77.60000000000001 35.80000000000001,73.4 37.400000000000006,68.7 C 37.60000000000001,68.2 37.300000000000004,67.2 36.900000000000006,66.7 C 36.300000000000004,65.9 35.400000000000006,65.3 34.7,64.60000000000001 C 32.7,62.30000000000001 32.6,62.20000000000001 29.800000000000004,63.60000000000001 C 26.300000000000004,65.4 22.700000000000003,67.2 19.400000000000006,69.4 C 17.800000000000004,70.5 16.600000000000005,72.30000000000001 15.700000000000006,74.0 C 13.700000000000006,77.9 9.900000000000006,78.9 7.300000000000006,75.9 C 6.000000000000006,74.4 5.700000000000006,72.7 6.500000000000006,70.9 C 7.200000000000006,69.2 8.600000000000007,67.7 10.400000000000006,68.10000000000001 C 16.100000000000005,69.10000000000001 20.300000000000004,66.10000000000001 24.700000000000006,63.50000000000001 C 26.500000000000007,62.400000000000006 28.300000000000008,61.10000000000001 29.900000000000006,59.800000000000004 C 30.300000000000004,59.50000000000001 30.500000000000007,58.7 30.400000000000006,58.1 C 30.100000000000005,56.4 29.600000000000005,54.800000000000004 29.100000000000005,53.2 C 28.900000000000006,52.7 28.300000000000004,52.1 27.700000000000006,51.900000000000006 C 26.300000000000008,51.60000000000001 24.900000000000006,51.50000000000001 23.500000000000007,51.400000000000006 C 20.10000000000001,51.10000000000001 16.900000000000006,51.7 14.200000000000006,53.900000000000006 C 12.900000000000006,54.900000000000006 11.500000000000007,55.300000000000004 9.900000000000006,54.7 C 8.000000000000005,54.1 6.900000000000006,52.800000000000004 6.600000000000006,50.900000000000006 C 6.300000000000006,48.900000000000006 7.100000000000006,47.300000000000004 8.800000000000006,46.2 C 10.400000000000006,45.2 12.200000000000006,45.0 13.600000000000005,46.2 C 17.800000000000004,49.7 22.500000000000007,49.300000000000004 27.400000000000006,48.6 C 28.500000000000007,48.5 29.000000000000007,48.0 29.200000000000006,46.9 C 29.300000000000008,46.0 29.500000000000007,45.1 29.700000000000006,44.199999999999996 C 30.700000000000006,41.099999999999994 30.800000000000008,40.99999999999999 28.100000000000005,39.199999999999996 C 24.700000000000006,36.99999999999999 21.200000000000003,34.8 17.500000000000007,32.99999999999999 C 15.700000000000006,32.199999999999996 13.500000000000007,32.199999999999996 11.400000000000007,32.29999999999999 C 8.700000000000006,32.29999999999999 6.500000000000007,30.89999999999999 6.000000000000007,28.39999999999999 C 5.600000000000007,26.09999999999999 7.100000000000007,23.699999999999992 9.400000000000007,22.999999999999993 C 11.400000000000007,22.39999999999999 13.800000000000008,22.999999999999993 14.500000000000007,24.89999999999999 C 16.900000000000006,31.09999999999999 22.700000000000006,32.99999999999999 27.700000000000006,35.99999999999999 C 28.700000000000006,36.599999999999994 30.000000000000007,36.89999999999999 31.000000000000007,37.49999999999999 C 32.20000000000001,38.199999999999996 33.00000000000001,37.79999999999999 33.800000000000004,36.79999999999999 C 34.300000000000004,36.09999999999999 34.900000000000006,35.49999999999999 35.50000000000001,34.89999999999999 C 38.300000000000004,32.39999999999999 37.800000000000004,33.29999999999999 36.60000000000001,30.199999999999992 C 35.00000000000001,26.199999999999992 32.900000000000006,22.699999999999992 28.500000000000007,20.999999999999993 C 26.000000000000007,19.999999999999993 25.200000000000006,17.499999999999993 26.10000000000001,14.999999999999993 C 26.90000000000001,12.799999999999994 29.20000000000001,11.599999999999993 31.40000000000001,12.099999999999993 C 34.00000000000001,12.699999999999992 35.60000000000001,14.799999999999994 35.20000000000001,17.499999999999993 C 34.40000000000001,22.89999999999999 37.40000000000001,26.599999999999994 40.40000000000001,30.299999999999994 C 40.70000000000001,30.599999999999994 41.600000000000016,30.699999999999992 42.20000000000001,30.499999999999993 C 43.30000000000001,30.299999999999994 44.40000000000001,29.599999999999994 45.50000000000001,29.599999999999994 C 47.400000000000006,29.499999999999993 48.300000000000004,28.699999999999996 48.300000000000004,26.799999999999994 C 48.300000000000004,21.999999999999993 48.6,17.199999999999996 48.300000000000004,12.499999999999993 C 48.2,10.699999999999992 46.7,8.999999999999993 45.7,7.299999999999993 C 44.6,5.299999999999993 44.900000000000006,2.8999999999999924 46.5,1.3999999999999924 C 48.1,-0.10000000000000764 50.5,-0.3000000000000076 52.4,0.9999999999999923 C 54.199999999999996,2.199999999999992 55.3,5.099999999999992 53.9,6.799999999999992 C 49.8,11.799999999999992 51.1,17.599999999999994 50.9,23.19999999999999 C 50.9,23.899999999999988 51.0,24.49999999999999 51.0,25.19999999999999 C 51.1,28.69999999999999 51.2,28.899999999999988 54.6,29.599999999999987 C 54.9,29.69999999999999 55.2,29.69999999999999 55.5,29.799999999999986 C 58.9,30.899999999999988 58.8,30.899999999999988 60.9,27.999999999999986 C 63.3,24.699999999999985 65.1,21.299999999999986 64.4,16.999999999999986 C 64.0,14.399999999999986 65.80000000000001,12.299999999999986 68.4,11.899999999999986 C 70.7,11.499999999999986 72.9,12.899999999999986 73.60000000000001,15.299999999999986 C 74.30000000000001,17.499999999999986 73.4,19.999999999999986 71.00000000000001,20.899999999999984 C 65.90000000000002,22.899999999999984 64.00000000000001,27.299999999999983 62.30000000000001,31.899999999999984 C 62.10000000000001,32.29999999999998 62.40000000000001,33.19999999999998 62.80000000000001,33.59999999999999 C 63.40000000000001,34.399999999999984 64.30000000000001,34.899999999999984 64.9,35.59999999999999 C 67.10000000000001,37.999999999999986 67.2,38.19999999999999 70.2,36.79999999999999 C 73.9,34.99999999999999 77.5,32.99999999999999 80.8,30.69999999999999 C 82.5,29.49999999999999 83.5,27.29999999999999 84.7,25.49999999999999 C 86.5,22.49999999999999 90.2,21.899999999999988 92.4,24.399999999999988 C 93.80000000000001,25.899999999999988 94.0,27.69999999999999 93.2,29.499999999999986 C 92.4,31.199999999999985 91.0,32.499999999999986 89.0,32.19999999999999 C 80.8,31.29999999999999 75.5,36.79999999999999 69.5,40.69999999999999 C 69.2,40.89999999999999 69.1,41.79999999999999 69.2,42.29999999999999 C 69.4,43.29999999999999 69.9,44.29999999999999 70.10000000000001,45.29999999999999 C 70.7,48.49999999999999 70.7,48.49999999999999 73.9,48.79999999999999 C 78.2,49.19999999999999 82.30000000000001,49.09999999999999 85.9,46.19999999999999 C 87.60000000000001,44.79999999999999 90.4,45.39999999999999 91.9,46.999999999999986 C 93.5,48.69999999999999 93.5,51.399999999999984 92.0,53.19999999999999 C 90.6,54.89999999999999 87.8,55.59999999999999 86.1,54.19999999999999 C 81.8,50.59999999999999 76.89999999999999,50.999999999999986 72.0,51.89999999999999 C 71.5,51.99999999999999 70.8,52.69999999999999 70.6,53.19999999999999 C 70.1,54.69999999999999 69.6,56.39999999999999 69.3,57.999999999999986 C 69.2,58.499999999999986 69.39999999999999,59.499999999999986 69.7,59.69999999999999 C 74.10000000000001,62.499999999999986 78.5,65.29999999999998 83.0,67.69999999999999 C 84.4,68.39999999999999 86.3,68.1 88.0,67.99999999999999 C 90.6,67.89999999999999 92.8,69.19999999999999 93.4,71.69999999999999 C 94.0,73.89999999999999 92.7,76.29999999999998 90.5,77.29999999999998 C 88.4,78.19999999999999 85.8,77.49999999999999 84.8,75.29999999999998 C 82.1,68.0 74.9,66.1 68.5,63.0 C 68.1,62.8 67.1,63.1 66.7,63.5 C 65.9,64.2 65.2,65.2 64.4,65.9 C 62.300000000000004,67.80000000000001 62.2,67.80000000000001 63.400000000000006,70.4 C 64.7,73.30000000000001 65.9,76.4 68.9,78.2 C 69.80000000000001,78.8 70.9,79.2 71.80000000000001,79.7 C 73.9,80.9 74.70000000000002,83.2 73.9,85.4 C 73.2,87.5 70.80000000000001,89.0 68.9,88.7 C 66.5,88.3 64.4,86.3 64.80000000000001,83.8 C 65.60000000000001,78.5 63.000000000000014,74.6 60.10000000000001,70.8 C 59.30000000000001,69.8 58.60000000000001,69.6 57.50000000000001,70.0 C 56.50000000000001,70.4 55.400000000000006,70.8 54.300000000000004,70.9 C 52.400000000000006,71.0 51.6,71.9 51.6,73.7 C 51.5,76.2 51.4,78.7 51.4,81.1 C 51.3,81.1 51.4,81.1 51.4,81.1" fill="#000000" stroke="#e4ba28" stroke-width="2.0"></path></g></svg></g><g transform="translate(0, 100)"><svg xmlns="http://www.w3.org/2000/svg" xmlns:ev="http://www.w3.org/2001/xml-events" xmlns:xlink="http://www.w3.org/1999/xlink" baseProfile="full" height="100" version="1.1" width="150" viewBox="0 0 150 100" preserveAspectRatio="xMidYMid meet"><defs><clipPath id="mask0"><rect height="100" width="150" x="0" y="0"></rect></clipPath></defs><g clip-path="url(#mask0)"><rect fill="#ff3333" height="50.0" stroke="none" width="150" x="0" y="0"></rect><rect fill="#ffffff" height="100" stroke="none" width="150" x="0" y="50.0"></rect><path d="M0,0 L86.60254037844386,50.0 L0,100 z" fill="#6699ff" stroke="none"></path><path d="M0,0 L86.60254037844386,50.0 L0,100 L86.60254037844386,50.0 L150,50.0" fill="none" stroke="#ffce00" stroke-width="17.15290526808648"></path></g><g id="empty"></g></svg></g><g transform="translate(0, 200)"><svg xmlns="http://www.w3.org/2000/svg" xmlns:ev="http://www.w3.org/2001/xml-events" xmlns:xlink="http://www.w3.org/1999/xlink" baseProfile="full" height="100" version="1.1" width="150" viewBox="0 0 150 100" preserveAspectRatio="xMidYMid meet"><defs><clipPath id="mask0"><rect height="100" width="150" x="0" y="0"></rect></clipPath></defs><g clip-path="url(#mask0)"><rect fill="#ffffff" height="100" stroke="none" width="18.75" x="0.0" y="0"></rect><rect fill="#4997d0" height="100" stroke="none" width="18.75" x="18.75" y="0"></rect><rect fill="#ffffff" height="100" stroke="none" width="18.75" x="37.5" y="0"></rect><rect fill="#4997d0" height="100" stroke="none" width="18.75" x="56.25" y="0"></rect><rect fill="#ffffff" height="100" stroke="none" width="18.75" x="75.0" y="0"></rect><rect fill="#4997d0" height="100" stroke="none" width="18.75" x="93.75" y="0"></rect><rect fill="#ffffff" height="100" stroke="none" width="18.75" x="112.5" y="0"></rect><rect fill="#4997d0" height="100" stroke="none" width="18.75" x="131.25" y="0"></rect></g><circle cx="75.0" cy="50.0" fill="#000000" r="19.455929042166826" stroke="none"></circle></svg></g><g transform="translate(150, 0)"><svg xmlns="http://www.w3.org/2000/svg" xmlns:ev="http://www.w3.org/2001/xml-events" xmlns:xlink="http://www.w3.org/1999/xlink" baseProfile="full" height="100" version="1.1" width="150" viewBox="0 0 150 100" preserveAspectRatio="xMidYMid meet"><defs><clipPath id="mask0"><rect height="100" width="150" x="0" y="0"></rect></clipPath></defs><g clip-path="url(#mask0)"><rect fill="#000000" height="100" stroke="none" width="150" x="0" y="0"></rect></g><path d="M 95.46067913520723 50.0 L 82.90948355683594 54.566542460690144 L 85.23033956760361 67.71946790977168 L 75.0 59.13308492138029 L 64.76966043239639 67.71946790977168 L 67.09051644316406 54.56654246069015 L 54.53932086479277 50.0 L 67.09051644316406 45.433457539309856 L 64.76966043239638 32.280532090228334 L 75.0 40.86691507861971 L 85.2303395676036 32.28053209022832 L 82.90948355683594 45.43345753930985 z" fill="#cc0000" stroke="none"></path></svg></g><g transform="translate(150, 100)"><svg xmlns="http://www.w3.org/2000/svg" xmlns:ev="http://www.w3.org/2001/xml-events" xmlns:xlink="http://www.w3.org/1999/xlink" baseProfile="full" height="100" version="1.1" width="150" viewBox="0 0 150 100" preserveAspectRatio="xMidYMid meet"><defs><clipPath id="mask0"><rect height="100" width="150" x="0" y="0"></rect></clipPath></defs><g clip-path="url(#mask0)"><rect fill="#0039a6" height="50.0" stroke="none" width="150" x="0" y="0"></rect><rect fill="#0a286e" height="100" stroke="none" width="150" x="0" y="50.0"></rect><path d="M0,0 L86.60254037844386,50.0 L0,100 z" fill="#ff0032" stroke="none"></path><path d="M0,0 L86.60254037844386,50.0 L0,100 L86.60254037844386,50.0 L150,50.0" fill="none" stroke="#ffffff" stroke-width="13.730320769979928"></path></g><g id="empty"></g></svg></g><g transform="translate(150, 200)"><svg xmlns="http://www.w3.org/2000/svg" xmlns:ev="http://www.w3.org/2001/xml-events" xmlns:xlink="http://www.w3.org/1999/xlink" baseProfile="full" height="100" version="1.1" width="150" viewBox="0 0 150 100" preserveAspectRatio="xMidYMid meet"><defs><clipPath id="mask0"><rect height="100" width="150" x="0" y="0"></rect></clipPath></defs><g clip-path="url(#mask0)"><rect fill="#ffffff" height="100" stroke="none" width="150" x="0" y="0"></rect><rect fill="none" height="87.08992054553644" stroke="#ff0000" stroke-width="12.910079454463553" width="137.08992054553644" x="6.455039727231776" y="6.455039727231776"></rect></g><g transform="translate(56.36600677785236, 31.36600677785236) scale(0.3726798644429528) rotate(0, 50.0, 50.0)"><path d="M 50.0,0.0 C 77.6,0.0 100.1,22.5 100.0,50.1 C 99.9,77.7 77.4,100.2 49.9,100.0 C 22.3,99.9 0.0,77.6 0.0,50.0 C 0.0,22.5 22.5,0.0 50.0,0.0 M 26.4,19.0 C 33.199999999999996,25.8 40.0,32.7 46.8,39.6 C 49.4,37.0 52.0,34.4 54.599999999999994,31.8 C 56.89999999999999,29.6 58.599999999999994,29.5 60.8,31.8 C 61.9,33.0 62.8,32.9 63.9,31.8 C 66.4,29.2 69.0,26.700000000000003 71.5,24.200000000000003 C 71.9,23.800000000000004 72.4,23.400000000000002 72.9,23.000000000000004 C 74.2,22.200000000000003 76.0,22.400000000000002 76.9,23.400000000000002 C 77.9,24.500000000000004 78.10000000000001,26.1 77.2,27.400000000000002 C 76.9,27.900000000000002 76.5,28.400000000000002 76.0,28.8 C 73.5,31.3 71.0,33.8 68.5,36.3 C 67.0,37.8 67.0,38.0 68.4,39.599999999999994 C 70.60000000000001,41.89999999999999 70.60000000000001,43.39999999999999 68.4,45.599999999999994 C 65.7,48.3 63.10000000000001,50.89999999999999 60.60000000000001,53.39999999999999 C 67.4,60.19999999999999 74.10000000000001,66.89999999999999 80.80000000000001,73.6 C 91.70000000000002,60.599999999999994 93.00000000000001,37.89999999999999 77.70000000000002,22.39999999999999 C 62.1,6.7 39.2,8.3 26.4,19.0 M 19.1,26.2 C 7.200000000000001,41.2 8.000000000000002,63.900000000000006 23.0,78.2 C 38.9,93.4 61.4,91.3 73.7,80.9 C 67.0,74.2 60.2,67.5 53.4,60.7 C 50.8,63.300000000000004 48.1,66.0 45.4,68.8 C 43.1,71.1 41.5,71.1 39.199999999999996,68.8 C 37.9,67.5 37.49999999999999,67.5 36.199999999999996,68.8 C 33.099999999999994,71.89999999999999 33.099999999999994,71.89999999999999 35.9,75.39999999999999 C 37.0,76.89999999999999 37.0,78.49999999999999 35.8,79.69999999999999 C 34.5,80.99999999999999 32.699999999999996,81.19999999999999 31.4,79.89999999999999 C 27.599999999999998,76.19999999999999 23.9,72.49999999999999 20.2,68.69999999999999 C 19.0,67.39999999999999 19.2,65.6 20.5,64.29999999999998 C 21.7,63.09999999999998 23.3,63.09999999999998 24.7,64.29999999999998 C 25.3,64.79999999999998 25.7,65.29999999999998 26.3,65.79999999999998 C 27.7,67.09999999999998 28.6,67.09999999999998 30.0,65.79999999999998 C 30.4,65.39999999999998 30.8,64.99999999999999 31.2,64.59999999999998 C 33.0,62.79999999999998 33.0,62.79999999999998 31.3,60.79999999999998 C 29.3,58.59999999999998 29.3,57.19999999999998 31.400000000000002,55.19999999999998 C 34.2,52.399999999999984 37.1,49.59999999999998 39.900000000000006,46.89999999999998 C 32.8,39.9 26.0,33.1 19.1,26.2 M 58.9,41.0 C 58.8,42.8 57.3,43.7 56.1,43.0 C 55.4,42.6 54.9,42.0 54.4,41.4 C 53.699999999999996,40.699999999999996 53.1,40.699999999999996 52.4,41.4 C 51.699999999999996,42.1 51.4,42.699999999999996 52.199999999999996,43.5 C 53.4,44.6 54.49999999999999,45.8 55.699999999999996,46.9 C 56.4,47.6 56.99999999999999,47.5 57.699999999999996,46.8 C 59.4,45.099999999999994 60.99999999999999,43.5 62.699999999999996,41.8 C 63.49999999999999,41.0 63.4,40.4 62.599999999999994,39.699999999999996 C 61.599999999999994,38.699999999999996 60.599999999999994,37.8 59.599999999999994,36.8 C 58.89999999999999,36.099999999999994 58.199999999999996,35.5 57.199999999999996,36.5 C 56.199999999999996,37.5 56.49999999999999,38.2 57.3,39.0 C 58.0,39.8 58.5,40.6 58.9,41.0 M 43.8,56.8 C 43.3,57.5 43.099999999999994,58.199999999999996 42.599999999999994,58.3 C 41.89999999999999,58.5 41.099999999999994,58.5 40.39999999999999,58.199999999999996 C 39.79999999999999,57.99999999999999 39.39999999999999,57.3 38.89999999999999,56.8 C 38.19999999999999,56.099999999999994 37.599999999999994,56.099999999999994 36.89999999999999,56.8 C 36.19999999999999,57.5 35.89999999999999,58.099999999999994 36.69999999999999,58.9 C 37.89999999999999,60.0 38.999999999999986,61.199999999999996 40.09999999999999,62.3 C 40.79999999999999,63.0 41.399999999999984,63.0 42.09999999999999,62.3 C 43.79999999999999,60.599999999999994 45.499999999999986,58.9 47.19999999999999,57.199999999999996 C 47.89999999999999,56.49999999999999 47.79999999999999,55.9 47.09999999999999,55.199999999999996 C 46.09999999999999,54.199999999999996 45.09999999999999,53.199999999999996 44.09999999999999,52.199999999999996 C 43.29999999999999,51.4 42.69999999999999,50.8 41.59999999999999,51.9 C 40.499999999999986,53.0 41.09999999999999,53.699999999999996 41.899999999999984,54.5 C 42.8,55.2 43.2,56.0 43.8,56.8" fill="#6699ff" stroke="none" stroke-width="3.0"></path></g></svg></g><g transform="translate(300, 0)"><svg xmlns="http://www.w3.org/2000/svg" xmlns:ev="http://www.w3.org/2001/xml-events" xmlns:xlink="http://www.w3.org/1999/xlink" baseProfile="full" height="100" version="1.1" width="150" viewBox="0 0 150 100" preserveAspectRatio="xMidYMid meet"><defs><clipPath id="mask0"><rect height="100" width="150" x="0" y="0"></rect></clipPath></defs><g clip-path="url(#mask0)"><rect fill="#cc3333" height="33.333333333333336" stroke="none" width="150" x="0" y="0.0"></rect><rect fill="#3366cc" height="33.333333333333336" stroke="none" width="150" x="0" y="33.333333333333336"></rect><rect fill="#ffffff" height="33.333333333333336" stroke="none" width="150" x="0" y="66.66666666666667"></rect></g><g transform="translate(46.096628401226965, 21.09662840122697) scale(0.5780674319754606) rotate(0, 50.0, 50.0)"><path d="M 41.8,47.2 C 41.8,46.7 42.0,46.300000000000004 42.4,46.1 C 41.4,46.300000000000004 40.6,46.7 40.4,47.2 C 41.0,47.800000000000004 41.699999999999996,48.2 42.4,48.400000000000006 C 42.1,48.2 41.8,47.7 41.8,47.2" fill="#ffce00" stroke="none" stroke-width="2.0"></path><path d="M 57.5,48.4 C 58.2,48.199999999999996 58.9,47.9 59.5,47.199999999999996 C 59.4,46.699999999999996 58.5,46.199999999999996 57.5,46.099999999999994 C 57.9,46.39999999999999 58.1,46.8 58.1,47.199999999999996 C 58.2,47.7 57.9,48.2 57.5,48.4" fill="#ffce00" stroke="none" stroke-width="2.0"></path><path d="M 43.9,48.4 C 44.699999999999996,48.3 45.4,48.0 46.0,47.5 C 45.5,46.7 44.8,46.3 44.1,46.1 C 44.4,46.4 44.6,46.7 44.6,47.2 C 44.6,47.7 44.3,48.2 43.9,48.4" fill="#ffce00" stroke="none" stroke-width="2.0"></path><path d="M 50.0,58.9 C 50.9,58.9 51.5,58.3 54.5,59.199999999999996 C 54.7,59.199999999999996 54.9,59.199999999999996 55.1,59.199999999999996 C 54.300000000000004,58.9 53.7,58.3 52.6,57.699999999999996 C 51.5,57.099999999999994 50.6,57.9 50.0,57.9 C 49.4,57.9 48.5,57.1 47.4,57.699999999999996 C 46.3,58.3 45.699999999999996,58.9 44.9,59.199999999999996 C 45.1,59.199999999999996 45.3,59.199999999999996 45.5,59.199999999999996 C 48.5,58.3 49.1,58.9 50.0,58.9" fill="#ffce00" stroke="none" stroke-width="2.0"></path><path d="M 50.0,59.5 C 48.8,59.5 48.2,58.6 45.5,59.2 C 48.1,59.2 47.4,60.900000000000006 50.0,60.900000000000006 C 52.6,60.900000000000006 51.8,59.2 54.5,59.2 C 51.8,58.7 51.2,59.5 50.0,59.5" fill="#ffce00" stroke="none" stroke-width="2.0"></path><path d="M 55.4,47.2 C 55.4,46.800000000000004 55.6,46.400000000000006 55.9,46.1 C 55.199999999999996,46.300000000000004 54.5,46.7 54.0,47.5 C 54.6,48.0 55.3,48.3 56.1,48.4 C 55.7,48.2 55.4,47.7 55.4,47.2" fill="#ffce00" stroke="none" stroke-width="2.0"></path><path d="M 99.1,49.4 L 69.89999999999999,48.3 C 69.89999999999999,48.199999999999996 69.89999999999999,48.099999999999994 69.89999999999999,48.0 C 74.69999999999999,47.1 78.1,44.4 82.99999999999999,44.9 C 89.09999999999998,45.4 92.49999999999999,42.1 94.79999999999998,41.3 C 97.19999999999999,40.5 98.59999999999998,42.099999999999994 98.89999999999998,41.4 C 99.19999999999997,40.699999999999996 97.39999999999998,39.199999999999996 93.99999999999997,39.699999999999996 C 90.59999999999997,40.199999999999996 89.69999999999997,42.699999999999996 82.19999999999997,42.099999999999994 C 75.89999999999998,41.599999999999994 73.69999999999997,44.099999999999994 69.09999999999998,44.39999999999999 C 69.09999999999998,44.19999999999999 68.99999999999999,44.099999999999994 68.99999999999999,43.89999999999999 L 95.49999999999999,31.699999999999992 C 95.49999999999999,31.699999999999992 96.39999999999999,31.299999999999994 96.09999999999998,30.799999999999994 C 95.89999999999998,30.199999999999992 94.99999999999999,30.599999999999994 94.99999999999999,30.599999999999994 L 67.8,40.8 C 67.7,40.699999999999996 67.7,40.599999999999994 67.6,40.5 C 71.69999999999999,37.9 73.8,34.1 78.5,32.6 C 84.3,30.8 86.2,26.400000000000002 88.1,24.8 C 90.0,23.2 91.89999999999999,24.1 91.89999999999999,23.400000000000002 C 91.89999999999999,22.6 89.6,21.900000000000002 86.69999999999999,23.700000000000003 C 83.79999999999998,25.400000000000002 83.79999999999998,28.200000000000003 76.79999999999998,30.500000000000004 C 70.79999999999998,32.400000000000006 69.69999999999999,35.6 65.49999999999999,37.6 C 65.39999999999999,37.5 65.29999999999998,37.4 65.19999999999999,37.2 L 84.99999999999999,15.800000000000004 C 84.99999999999999,15.800000000000004 85.69999999999999,15.100000000000005 85.19999999999999,14.700000000000005 C 84.79999999999998,14.300000000000004 84.1,14.900000000000004 84.1,14.900000000000004 L 62.9,34.7 C 62.8,34.6 62.699999999999996,34.6 62.6,34.5 C 65.4,30.5 65.9,26.2 69.7,23.0 C 74.4,19.1 74.4,14.3 75.60000000000001,12.1 C 76.7,9.899999999999999 78.9,10.0 78.60000000000001,9.3 C 78.30000000000001,8.600000000000001 76.00000000000001,8.8 73.9,11.5 C 71.9,14.2 73.0,16.7 67.30000000000001,21.5 C 62.500000000000014,25.6 62.70000000000001,28.9 59.60000000000001,32.4 C 59.50000000000001,32.3 59.30000000000001,32.199999999999996 59.20000000000001,32.199999999999996 L 69.3,4.9 C 69.3,4.9 69.7,4.0 69.1,3.8000000000000003 C 68.5,3.6 68.19999999999999,4.4 68.19999999999999,4.4 L 56.0,30.9 C 55.9,30.9 55.8,30.799999999999997 55.7,30.799999999999997 C 56.7,26.099999999999998 55.5,21.9 57.800000000000004,17.499999999999996 C 60.6,12.099999999999996 58.900000000000006,7.699999999999996 59.00000000000001,5.199999999999996 C 59.20000000000001,2.6999999999999957 61.20000000000001,1.9999999999999956 60.70000000000001,1.4999999999999956 C 60.20000000000001,0.8999999999999956 58.10000000000001,2.0999999999999956 57.20000000000001,5.399999999999995 C 56.40000000000001,8.699999999999996 58.30000000000001,10.599999999999994 55.00000000000001,17.199999999999996 C 52.10000000000001,22.799999999999997 53.60000000000001,25.799999999999997 52.10000000000001,30.199999999999996 C 51.900000000000006,30.199999999999996 51.80000000000001,30.199999999999996 51.60000000000001,30.199999999999996 L 50.6,0.9 C 50.6,0.9 50.6,0.0 50.0,0.0 C 49.4,0.0 49.4,0.9 49.4,0.9 L 48.3,30.099999999999998 C 48.199999999999996,30.099999999999998 48.099999999999994,30.099999999999998 48.0,30.099999999999998 C 47.1,25.299999999999997 44.4,21.9 44.9,17.0 C 45.4,10.9 42.1,7.5 41.3,5.199999999999999 C 40.5,2.7999999999999994 42.099999999999994,1.3999999999999995 41.4,1.0999999999999996 C 40.699999999999996,0.7999999999999996 39.199999999999996,2.5999999999999996 39.699999999999996,6.0 C 40.199999999999996,9.4 42.699999999999996,10.3 42.099999999999994,17.8 C 41.599999999999994,24.1 44.099999999999994,26.3 44.39999999999999,30.9 C 44.19999999999999,30.9 44.099999999999994,31.0 43.89999999999999,31.0 L 31.8,4.4 C 31.8,4.4 31.400000000000002,3.5000000000000004 30.900000000000002,3.8000000000000003 C 30.3,4.0 30.700000000000003,4.9 30.700000000000003,4.9 L 40.800000000000004,32.2 C 40.7,32.300000000000004 40.6,32.300000000000004 40.50000000000001,32.400000000000006 C 37.900000000000006,28.300000000000004 34.10000000000001,26.200000000000006 32.60000000000001,21.500000000000007 C 30.800000000000008,15.700000000000006 26.40000000000001,13.800000000000008 24.800000000000008,11.900000000000007 C 23.200000000000006,10.000000000000007 24.10000000000001,8.100000000000009 23.40000000000001,8.100000000000009 C 22.60000000000001,8.100000000000009 21.90000000000001,10.40000000000001 23.70000000000001,13.300000000000008 C 25.40000000000001,16.200000000000006 28.20000000000001,16.200000000000006 30.50000000000001,23.20000000000001 C 32.40000000000001,29.20000000000001 35.60000000000001,30.30000000000001 37.60000000000001,34.500000000000014 C 37.50000000000001,34.600000000000016 37.400000000000006,34.70000000000002 37.20000000000001,34.80000000000001 L 15.7,14.9 C 15.7,14.9 15.0,14.200000000000001 14.6,14.700000000000001 C 14.2,15.100000000000001 14.799999999999999,15.8 14.799999999999999,15.8 L 34.6,37.2 C 34.5,37.300000000000004 34.5,37.400000000000006 34.4,37.5 C 30.4,34.7 26.099999999999998,34.2 22.9,30.4 C 19.0,25.7 14.2,25.7 11.999999999999998,24.5 C 9.799999999999997,23.4 9.899999999999999,21.2 9.2,21.5 C 8.5,21.8 8.7,24.1 11.399999999999999,26.2 C 14.099999999999998,28.299999999999997 16.599999999999998,27.099999999999998 21.4,32.8 C 25.5,37.599999999999994 28.799999999999997,37.4 32.3,40.5 C 32.199999999999996,40.6 32.099999999999994,40.8 32.099999999999994,40.9 L 4.9,30.7 C 4.9,30.7 4.0,30.3 3.8000000000000003,30.9 C 3.6,31.5 4.4,31.799999999999997 4.4,31.799999999999997 L 30.9,44.0 C 30.9,44.1 30.799999999999997,44.2 30.799999999999997,44.3 C 26.099999999999998,43.3 21.9,44.5 17.499999999999996,42.199999999999996 C 12.099999999999996,39.4 7.699999999999996,41.099999999999994 5.199999999999996,40.99999999999999 C 2.6999999999999957,40.79999999999999 1.9999999999999956,38.79999999999999 1.4999999999999956,39.29999999999999 C 0.8999999999999956,39.79999999999999 2.0999999999999956,41.89999999999999 5.399999999999995,42.79999999999999 C 8.699999999999996,43.59999999999999 10.599999999999994,41.69999999999999 17.199999999999996,44.99999999999999 C 22.799999999999997,47.89999999999999 25.799999999999997,46.39999999999999 30.199999999999996,47.89999999999999 C 30.199999999999996,48.099999999999994 30.199999999999996,48.19999999999999 30.199999999999996,48.39999999999999 L 0.9,49.4 C 0.9,49.4 0.0,49.4 0.0,50.0 C 0.0,50.6 0.9,50.6 0.9,50.6 L 30.099999999999998,51.7 C 30.099999999999998,51.800000000000004 30.099999999999998,51.900000000000006 30.099999999999998,52.0 C 25.299999999999997,52.9 21.9,55.6 17.0,55.1 C 10.9,54.6 7.5,57.9 5.199999999999999,58.7 C 2.7999999999999994,59.5 1.3999999999999995,57.900000000000006 1.0999999999999996,58.6 C 0.7999999999999996,59.300000000000004 2.5999999999999996,60.800000000000004 6.0,60.300000000000004 C 9.4,59.800000000000004 10.3,57.300000000000004 17.8,57.900000000000006 C 24.1,58.400000000000006 26.3,55.900000000000006 30.9,55.60000000000001 C 30.9,55.80000000000001 31.0,55.900000000000006 31.0,56.10000000000001 L 4.4,68.2 C 4.4,68.2 3.5000000000000004,68.60000000000001 3.8000000000000003,69.10000000000001 C 4.0,69.7 4.9,69.30000000000001 4.9,69.30000000000001 L 32.2,59.20000000000001 C 32.300000000000004,59.30000000000001 32.300000000000004,59.40000000000001 32.400000000000006,59.50000000000001 C 28.300000000000004,62.10000000000001 26.200000000000006,65.9 21.500000000000007,67.4 C 15.700000000000006,69.2 13.800000000000008,73.60000000000001 11.900000000000007,75.2 C 10.000000000000007,76.8 8.100000000000009,75.9 8.100000000000009,76.60000000000001 C 8.100000000000009,77.4 10.40000000000001,78.10000000000001 13.300000000000008,76.30000000000001 C 16.200000000000006,74.60000000000001 16.200000000000006,71.80000000000001 23.20000000000001,69.50000000000001 C 29.20000000000001,67.60000000000001 30.30000000000001,64.40000000000002 34.500000000000014,62.40000000000001 C 34.600000000000016,62.500000000000014 34.70000000000002,62.600000000000016 34.80000000000001,62.80000000000001 L 14.9,84.3 C 14.9,84.3 14.200000000000001,85.0 14.700000000000001,85.39999999999999 C 15.100000000000001,85.8 15.8,85.19999999999999 15.8,85.19999999999999 L 37.2,65.39999999999999 C 37.300000000000004,65.49999999999999 37.400000000000006,65.49999999999999 37.5,65.6 C 34.7,69.6 34.2,73.89999999999999 30.4,77.1 C 25.7,81.0 25.7,85.8 24.5,88.0 C 23.4,90.2 21.2,90.1 21.5,90.8 C 21.8,91.5 24.1,91.3 26.2,88.6 C 28.299999999999997,85.89999999999999 27.099999999999998,83.39999999999999 32.8,78.6 C 37.599999999999994,74.5 37.4,71.19999999999999 40.5,67.69999999999999 C 40.6,67.79999999999998 40.8,67.89999999999999 40.9,67.89999999999999 L 30.7,95.1 C 30.7,95.1 30.3,96.0 30.9,96.19999999999999 C 31.5,96.39999999999999 31.799999999999997,95.6 31.799999999999997,95.6 L 44.0,69.1 C 44.1,69.1 44.2,69.19999999999999 44.3,69.19999999999999 C 43.3,73.89999999999999 44.5,78.1 42.199999999999996,82.49999999999999 C 39.4,87.89999999999999 41.099999999999994,92.29999999999998 40.99999999999999,94.79999999999998 C 40.79999999999999,97.29999999999998 38.79999999999999,97.99999999999999 39.29999999999999,98.49999999999999 C 39.79999999999999,99.09999999999998 41.89999999999999,97.89999999999999 42.79999999999999,94.59999999999998 C 43.59999999999999,91.29999999999998 41.69999999999999,89.39999999999998 44.99999999999999,82.79999999999998 C 47.89999999999999,77.19999999999999 46.39999999999999,74.19999999999999 47.89999999999999,69.79999999999998 C 48.099999999999994,69.79999999999998 48.19999999999999,69.79999999999998 48.39999999999999,69.79999999999998 L 49.49999999999999,98.99999999999999 C 49.49999999999999,98.99999999999999 49.49999999999999,99.89999999999999 50.099999999999994,99.89999999999999 C 50.699999999999996,99.89999999999999 50.699999999999996,98.99999999999999 50.699999999999996,98.99999999999999 L 51.8,69.79999999999998 C 51.9,69.79999999999998 52.0,69.79999999999998 52.099999999999994,69.79999999999998 C 52.99999999999999,74.59999999999998 55.699999999999996,77.99999999999999 55.199999999999996,82.89999999999998 C 54.699999999999996,88.99999999999997 57.99999999999999,92.39999999999998 58.8,94.69999999999997 C 59.599999999999994,97.09999999999998 58.0,98.49999999999997 58.699999999999996,98.79999999999997 C 59.4,99.09999999999997 60.9,97.29999999999997 60.4,93.89999999999996 C 59.9,90.49999999999996 57.4,89.59999999999997 58.0,82.09999999999997 C 58.5,75.79999999999997 56.0,73.59999999999997 55.7,68.99999999999997 C 55.900000000000006,68.99999999999997 56.0,68.89999999999998 56.2,68.89999999999998 L 68.4,95.39999999999998 C 68.4,95.39999999999998 68.80000000000001,96.29999999999998 69.30000000000001,95.99999999999997 C 69.9,95.79999999999997 69.50000000000001,94.89999999999998 69.50000000000001,94.89999999999998 L 59.2,67.8 C 59.300000000000004,67.7 59.400000000000006,67.7 59.5,67.6 C 62.1,71.69999999999999 65.9,73.8 67.4,78.5 C 69.2,84.3 73.60000000000001,86.2 75.2,88.1 C 76.8,90.0 75.9,91.89999999999999 76.60000000000001,91.89999999999999 C 77.4,91.89999999999999 78.10000000000001,89.6 76.30000000000001,86.69999999999999 C 74.60000000000001,83.79999999999998 71.80000000000001,83.79999999999998 69.50000000000001,76.79999999999998 C 67.60000000000001,70.79999999999998 64.40000000000002,69.69999999999999 62.40000000000001,65.49999999999999 C 62.500000000000014,65.39999999999999 62.600000000000016,65.29999999999998 62.80000000000001,65.19999999999999 L 84.20000000000002,84.99999999999999 C 84.20000000000002,84.99999999999999 84.90000000000002,85.69999999999999 85.30000000000001,85.19999999999999 C 85.70000000000002,84.79999999999998 85.10000000000001,84.1 85.10000000000001,84.1 L 65.3,62.9 C 65.39999999999999,62.8 65.39999999999999,62.699999999999996 65.5,62.6 C 69.5,65.4 73.8,65.9 77.0,69.7 C 80.9,74.4 85.7,74.4 87.9,75.60000000000001 C 90.10000000000001,76.7 90.0,78.9 90.7,78.60000000000001 C 91.4,78.30000000000001 91.2,76.00000000000001 88.5,73.9 C 85.8,71.9 83.3,73.0 78.5,67.30000000000001 C 74.4,62.500000000000014 71.1,62.70000000000001 67.6,59.60000000000001 C 67.69999999999999,59.50000000000001 67.8,59.30000000000001 67.8,59.20000000000001 L 95.1,69.30000000000001 C 95.1,69.30000000000001 96.0,69.70000000000002 96.19999999999999,69.10000000000001 C 96.39999999999999,68.50000000000001 95.6,68.2 95.6,68.2 L 69.1,56.0 C 69.1,55.9 69.19999999999999,55.8 69.19999999999999,55.7 C 73.89999999999999,56.7 78.1,55.5 82.49999999999999,57.800000000000004 C 87.89999999999999,60.6 92.29999999999998,58.900000000000006 94.79999999999998,59.00000000000001 C 97.29999999999998,59.20000000000001 97.99999999999999,61.20000000000001 98.49999999999999,60.70000000000001 C 99.09999999999998,60.20000000000001 97.89999999999999,58.10000000000001 94.59999999999998,57.20000000000001 C 91.29999999999998,56.40000000000001 89.39999999999998,58.30000000000001 82.79999999999998,55.00000000000001 C 77.19999999999999,52.10000000000001 74.19999999999999,53.60000000000001 69.79999999999998,52.10000000000001 C 69.79999999999998,51.900000000000006 69.79999999999998,51.80000000000001 69.79999999999998,51.60000000000001 L 98.99999999999999,50.50000000000001 C 98.99999999999999,50.50000000000001 99.89999999999999,50.50000000000001 99.89999999999999,49.900000000000006 C 99.89999999999999,49.300000000000004 99.1,49.4 99.1,49.4 M 52.8,64.2 C 52.8,64.10000000000001 52.8,64.0 52.699999999999996,64.0 C 52.699999999999996,64.0 52.699999999999996,64.0 52.699999999999996,63.9 C 52.699999999999996,63.8 52.699999999999996,63.8 52.599999999999994,63.699999999999996 C 52.599999999999994,63.699999999999996 52.599999999999994,63.699999999999996 52.599999999999994,63.599999999999994 C 52.599999999999994,63.49999999999999 52.49999999999999,63.49999999999999 52.49999999999999,63.39999999999999 C 52.49999999999999,63.39999999999999 52.49999999999999,63.29999999999999 52.49999999999999,63.29999999999999 C 52.49999999999999,63.29999999999999 52.39999999999999,63.19999999999999 52.39999999999999,63.19999999999999 C 52.39999999999999,63.19999999999999 52.39999999999999,63.19999999999999 52.29999999999999,63.09999999999999 C 52.29999999999999,62.999999999999986 52.19999999999999,62.999999999999986 52.19999999999999,62.899999999999984 C 52.19999999999999,62.899999999999984 52.19999999999999,62.899999999999984 52.09999999999999,62.79999999999998 C 52.09999999999999,62.79999999999998 51.999999999999986,62.69999999999998 51.999999999999986,62.69999999999998 C 51.999999999999986,62.69999999999998 51.999999999999986,62.69999999999998 51.899999999999984,62.59999999999998 C 51.79999999999998,62.49999999999998 51.79999999999998,62.49999999999998 51.69999999999998,62.39999999999998 C 51.69999999999998,62.39999999999998 51.69999999999998,62.39999999999998 51.69999999999998,62.39999999999998 C 51.59999999999998,62.39999999999998 51.59999999999998,62.299999999999976 51.49999999999998,62.299999999999976 C 51.49999999999998,62.299999999999976 51.49999999999998,62.299999999999976 51.39999999999998,62.299999999999976 C 51.299999999999976,62.299999999999976 51.299999999999976,62.199999999999974 51.199999999999974,62.199999999999974 C 51.199999999999974,62.199999999999974 51.199999999999974,62.199999999999974 51.199999999999974,62.199999999999974 C 51.09999999999997,62.199999999999974 51.09999999999997,62.09999999999997 50.99999999999997,62.09999999999997 C 50.99999999999997,62.09999999999997 50.99999999999997,62.09999999999997 50.89999999999997,62.09999999999997 C 50.79999999999997,62.09999999999997 50.79999999999997,62.09999999999997 50.69999999999997,61.99999999999997 C 50.69999999999997,61.99999999999997 50.599999999999966,61.99999999999997 50.599999999999966,61.99999999999997 C 50.599999999999966,61.99999999999997 50.499999999999964,61.99999999999997 50.499999999999964,61.99999999999997 C 50.39999999999996,61.99999999999997 50.39999999999996,61.99999999999997 50.29999999999996,61.99999999999997 C 50.29999999999996,61.99999999999997 50.19999999999996,61.99999999999997 50.19999999999996,61.99999999999997 C 50.09999999999996,61.99999999999997 50.09999999999996,61.99999999999997 49.99999999999996,61.99999999999997 C 49.99999999999996,61.99999999999997 49.899999999999956,61.99999999999997 49.899999999999956,61.99999999999997 C 49.899999999999956,61.99999999999997 49.799999999999955,61.99999999999997 49.799999999999955,61.99999999999997 C 49.69999999999995,61.99999999999997 49.69999999999995,61.99999999999997 49.59999999999995,61.99999999999997 C 49.59999999999995,61.99999999999997 49.49999999999995,61.99999999999997 49.49999999999995,61.99999999999997 C 49.39999999999995,61.99999999999997 49.39999999999995,61.99999999999997 49.29999999999995,61.99999999999997 C 49.29999999999995,61.99999999999997 49.199999999999946,61.99999999999997 49.199999999999946,61.99999999999997 C 49.199999999999946,61.99999999999997 49.099999999999945,61.99999999999997 49.099999999999945,61.99999999999997 C 48.99999999999994,61.99999999999997 48.99999999999994,61.99999999999997 48.89999999999994,62.09999999999997 C 48.89999999999994,62.09999999999997 48.89999999999994,62.09999999999997 48.79999999999994,62.09999999999997 C 48.69999999999994,62.09999999999997 48.69999999999994,62.199999999999974 48.59999999999994,62.199999999999974 C 48.59999999999994,62.199999999999974 48.59999999999994,62.199999999999974 48.59999999999994,62.199999999999974 C 48.499999999999936,62.199999999999974 48.499999999999936,62.299999999999976 48.399999999999935,62.299999999999976 C 48.399999999999935,62.299999999999976 48.399999999999935,62.299999999999976 48.29999999999993,62.299999999999976 C 48.19999999999993,62.299999999999976 48.19999999999993,62.39999999999998 48.09999999999993,62.39999999999998 C 48.09999999999993,62.39999999999998 48.09999999999993,62.39999999999998 48.09999999999993,62.39999999999998 C 47.99999999999993,62.39999999999998 47.99999999999993,62.49999999999998 47.89999999999993,62.59999999999998 C 47.89999999999993,62.59999999999998 47.89999999999993,62.59999999999998 47.799999999999926,62.69999999999998 C 47.799999999999926,62.69999999999998 47.699999999999925,62.79999999999998 47.699999999999925,62.79999999999998 C 47.699999999999925,62.79999999999998 47.699999999999925,62.79999999999998 47.59999999999992,62.899999999999984 C 47.59999999999992,62.999999999999986 47.49999999999992,62.999999999999986 47.49999999999992,63.09999999999999 C 47.49999999999992,63.09999999999999 47.49999999999992,63.09999999999999 47.39999999999992,63.19999999999999 C 47.39999999999992,63.19999999999999 47.29999999999992,63.29999999999999 47.29999999999992,63.29999999999999 C 47.29999999999992,63.29999999999999 47.29999999999992,63.39999999999999 47.29999999999992,63.39999999999999 C 47.29999999999992,63.49999999999999 47.19999999999992,63.49999999999999 47.19999999999992,63.599999999999994 C 47.19999999999992,63.599999999999994 47.19999999999992,63.599999999999994 47.19999999999992,63.699999999999996 C 47.19999999999992,63.8 47.099999999999916,63.8 47.099999999999916,63.9 C 47.099999999999916,63.9 47.099999999999916,63.9 47.099999999999916,64.0 C 47.099999999999916,64.1 46.999999999999915,64.2 46.999999999999915,64.2 C 46.999999999999915,62.7 48.19999999999992,61.400000000000006 49.79999999999991,61.400000000000006 C 46.39999999999991,61.400000000000006 47.999999999999915,59.60000000000001 44.69999999999991,59.2 C 46.09999999999991,58.300000000000004 46.69999999999991,56.900000000000006 48.19999999999991,56.900000000000006 C 48.49999999999991,56.900000000000006 49.09999999999991,57.10000000000001 49.69999999999991,57.400000000000006 C 50.29999999999991,57.10000000000001 50.89999999999991,56.900000000000006 51.19999999999991,56.900000000000006 C 52.69999999999991,56.900000000000006 53.39999999999991,58.300000000000004 54.69999999999991,59.2 C 51.49999999999991,59.5 52.99999999999991,61.400000000000006 49.59999999999991,61.400000000000006 C 51.5,61.4 52.8,62.6 52.8,64.2 M 53.2,52.8 C 53.6,52.9 53.900000000000006,53.099999999999994 54.1,53.4 C 54.5,54.0 54.4,54.9 53.800000000000004,55.3 C 53.2,55.699999999999996 52.300000000000004,55.599999999999994 51.900000000000006,55.0 C 51.300000000000004,55.5 50.400000000000006,55.5 50.10000000000001,55.5 C 49.80000000000001,55.5 48.900000000000006,55.5 48.30000000000001,55.0 C 47.90000000000001,55.6 47.000000000000014,55.8 46.40000000000001,55.3 C 45.80000000000001,54.9 45.600000000000016,54.0 46.100000000000016,53.4 C 46.30000000000002,53.1 46.600000000000016,52.9 47.000000000000014,52.8 C 46.500000000000014,53.0 46.30000000000001,53.5 46.40000000000001,54.0 C 46.600000000000016,54.5 47.100000000000016,54.7 47.600000000000016,54.6 C 47.90000000000001,54.5 48.20000000000002,54.2 48.20000000000002,53.800000000000004 C 48.40000000000002,54.1 49.000000000000014,55.00000000000001 50.20000000000002,55.00000000000001 C 51.40000000000002,55.00000000000001 52.000000000000014,54.10000000000001 52.20000000000002,53.800000000000004 C 52.20000000000002,54.2 52.500000000000014,54.50000000000001 52.80000000000002,54.6 C 53.30000000000002,54.800000000000004 53.80000000000002,54.5 54.00000000000002,54.0 C 54.0,53.5 53.7,52.9 53.2,52.8 M 48.0,52.9 C 47.8,52.699999999999996 47.5,52.6 47.4,52.6 C 49.5,49.6 49.6,46.800000000000004 47.9,44.400000000000006 C 45.4,42.10000000000001 41.0,42.60000000000001 37.4,45.60000000000001 C 40.8,41.00000000000001 45.4,41.30000000000001 48.8,44.10000000000001 C 49.8,46.9 49.6,50.0 48.0,52.9 M 42.9,44.8 C 44.9,44.8 45.4,45.3 46.3,46.0 C 47.199999999999996,46.8 47.699999999999996,46.6 47.8,46.8 C 48.0,47.0 47.8,47.4 47.5,47.3 C 47.2,47.099999999999994 46.6,46.8 45.7,46.099999999999994 C 44.800000000000004,45.3 43.900000000000006,45.3 42.900000000000006,45.3 C 40.10000000000001,45.3 38.60000000000001,47.599999999999994 38.300000000000004,47.5 C 38.0,47.2 39.8,44.8 42.9,44.8 M 46.6,47.5 C 45.800000000000004,48.2 44.6,48.6 43.2,48.6 C 43.2,48.6 43.2,48.6 43.2,48.6 C 43.2,48.6 43.1,48.6 43.1,48.6 C 41.800000000000004,48.6 40.5,48.2 39.4,47.4 C 41.4,45.2 45.1,45.1 46.6,47.5 M 45.4,48.8 C 46.6,48.199999999999996 46.9,47.9 47.199999999999996,47.9 C 47.49999999999999,47.9 47.49999999999999,48.199999999999996 45.99999999999999,49.1 C 44.49999999999999,50.0 41.79999999999999,50.2 39.199999999999996,48.2 C 42.3,49.4 44.2,49.4 45.4,48.8 M 54.0,49.1 C 52.5,48.2 52.5,47.9 52.8,47.9 C 53.099999999999994,47.9 53.4,48.199999999999996 54.599999999999994,48.8 C 55.8,49.4 57.699999999999996,49.4 60.8,48.199999999999996 C 58.2,50.2 55.5,50.0 54.0,49.1 M 53.4,47.5 C 54.9,45.0 58.6,45.2 60.6,47.3 C 59.5,48.099999999999994 58.2,48.5 56.9,48.5 C 56.9,48.5 56.8,48.5 56.8,48.5 C 56.8,48.5 56.8,48.5 56.8,48.5 C 55.4,48.6 54.2,48.2 53.4,47.5 M 57.1,45.2 C 56.2,45.2 55.300000000000004,45.2 54.300000000000004,46.0 C 53.400000000000006,46.8 52.800000000000004,47.1 52.50000000000001,47.2 C 52.20000000000001,47.400000000000006 52.00000000000001,46.900000000000006 52.20000000000001,46.7 C 52.40000000000001,46.5 52.80000000000001,46.7 53.70000000000001,45.900000000000006 C 54.60000000000001,45.10000000000001 55.10000000000001,44.7 57.10000000000001,44.7 C 60.20000000000001,44.7 62.00000000000001,47.2 61.70000000000001,47.300000000000004 C 61.4,47.5 59.8,45.2 57.1,45.2 M 52.2,44.5 C 50.400000000000006,46.9 50.6,49.7 52.7,52.7 C 52.5,52.7 52.2,52.900000000000006 52.1,53.0 C 50.5,50.0 50.300000000000004,47.0 51.300000000000004,44.2 C 54.7,41.400000000000006 59.300000000000004,41.1 62.7,45.7 C 59.1,42.6 54.6,42.2 52.2,44.5" fill="#ffce00" stroke="none" stroke-width="2.0"></path></g></svg></g><g transform="translate(300, 100)"><svg xmlns="http://www.w3.org/2000/svg" xmlns:ev="http://www.w3.org/2001/xml-events" xmlns:xlink="http://www.w3.org/1999/xlink" baseProfile="full" height="100" version="1.1" width="150" viewBox="0 0 150 100" preserveAspectRatio="xMidYMid meet"><defs><clipPath id="mask0"><rect height="100" width="150" x="0" y="0"></rect></clipPath></defs><g clip-path="url(#mask0)"><rect fill="#ffffff" height="100" stroke="none" width="150" x="0" y="0"></rect><rect fill="#68bfe5" height="100" stroke="none" width="150" x="0" y="71.67308631013631"></rect></g><path d="M 95.60879599164599 35.836543155068156 L 82.59949459594881 38.9843568838912 L 89.57261939778303 50.409162552851186 L 78.14781372882304 43.436037751016976 L 75.0 56.445339146714154 L 71.85218627117696 43.436037751016976 L 60.42738060221698 50.409162552851186 L 67.40050540405119 38.9843568838912 L 54.391204008354 35.836543155068156 L 67.40050540405119 32.68872942624511 L 60.42738060221697 21.263923757285134 L 71.85218627117695 28.23704855911934 L 75.0 15.227747163422158 L 78.14781372882305 28.23704855911934 L 89.57261939778301 21.263923757285127 L 82.59949459594881 32.688729426245104 z" fill="#ff3333" stroke="none"></path></svg></g><g transform="translate(300, 200)"><svg xmlns="http://www.w3.org/2000/svg" xmlns:ev="http://www.w3.org/2001/xml-events" xmlns:xlink="http://www.w3.org/1999/xlink" baseProfile="full" height="100" version="1.1" width="150" viewBox="0 0 150 100" preserveAspectRatio="xMidYMid meet"><defs><clipPath id="mask0"><rect height="100" width="150" x="0" y="0"></rect></clipPath></defs><g clip-path="url(#mask0)"><rect fill="#708090" height="100" stroke="none" width="150" x="0" y="0"></rect></g><path d="M 67.15431322128705 50.0 L 53.46877175746223 52.806353910431454 L 61.16151905026697 64.46788496418714 L 49.49998799651129 56.775137671382396 L 46.69363408607983 70.46067913520723 L 43.88728017564838 56.775137671382396 L 32.2257491218927 64.46788496418714 L 39.91849641469744 52.806353910431454 L 26.232954950872607 50.0 L 39.91849641469744 47.193646089568546 L 32.2257491218927 35.532115035812865 L 43.88728017564837 43.22486232861761 L 46.693634086079825 29.539320864792774 L 49.499987996511294 43.224862328617604 L 61.16151905026696 35.532115035812865 L 53.46877175746222 47.19364608956854 z" fill="#ffffff" stroke="none"></path></svg></g></svg>