<svg id="total-flag" viewBox="0 0 300 200" preserveAspectRatio="xMidYMid meet"><g transform="translate(0, 0)"><svg xmlns="http://www.w3.org/2000/svg" xmlns:ev="http://www.w3.org/2001/xml-events" xmlns:xlink="http://www.w3.org/1999/xlink" baseProfile="full" height="100" version="1.1" width="150" viewBox="0 0 150 100" preserveAspectRatio="xMidYMid meet"><defs><clipPath id="mask0"><rect height="100" width="150" x="0" y="0"></rect></clipPath></defs><g clip-path="url(#mask0)"><path d="M0,100 L150,0 L150,100 z" fill="#003265" stroke="none"></path><path d="M0,100 L150,0 L0,0 z" fill="#ffffff" stroke="none"></path></g><path d="M 30.254820432268478 20.0 L 24.665891221136814 21.51603995822756 L 28.296324003968643 26.027632214994934 L 22.883679362472304 23.969044138942717 L 23.168913787834406 29.752913795545616 L 20.0 24.90600836143032 L 16.831086212165598 29.75291379554562 L 17.116320637527696 23.969044138942717 L 11.703675996031357 26.027632214994938 L 15.334108778863186 21.51603995822756 L 9.745179567731522 20.0 L 15.334108778863184 18.48396004177244 L 11.703675996031357 13.972367785005066 L 17.116320637527696 16.030955861057283 L 16.831086212165594 10.247086204454382 L 20.0 15.09399163856968 L 23.168913787834402 10.24708620445438 L 22.883679362472304 16.03095586105728 L 28.296324003968643 13.972367785005062 L 24.665891221136814 18.48396004177244 z" fill="#cc0000" stroke="none"></path></svg></g><g transform="translate(0, 100)"><svg xmlns="http://www.w3.org/2000/svg" xmlns:ev="http://www.w3.org/2001/xml-events" xmlns:xlink="http://www.w3.org/1999/xlink" baseProfile="full" height="100" version="1.1" width="150" viewBox="0 0 150 100" preserveAspectRatio="xMidYMid meet"><defs><clipPath id="mask0"><rect height="100" width="150" x="0" y="0"></rect></clipPath></defs><g clip-path="url(#mask0)"><path d="M0,100 L150,0 L150,100 z" fill="#003265" stroke="none"></path><path d="M0,100 L150,0 L0,0 z" fill="#ffffff" stroke="none"></path></g><path d="M 30.254820432268478 20.0 L 24.665891221136814 21.51603995822756 L 28.296324003968643 26.027632214994934 L 22.883679362472304 23.969044138942717 L 23.168913787834406 29.752913795545616 L 20.0 24.90600836143032 L 16.831086212165598 29.75291379554562 L 17.116320637527696 23.969044138942717 L 11.703675996031357 26.027632214994938 L 15.334108778863186 21.51603995822756 L 9.745179567731522 20.0 L 15.334108778863184 18.48396004177244 L 11.703675996031357 13.972367785005066 L 17.116320637527696 16.030955861057283 L 16.831086212165594 10.247086204454382 L 20.0 15.09399163856968 L 23.168913787834402 10.24708620445438 L 22.883679362472304 16.03095586105728 L 28.296324003968643 13.972367785005062 L 24.665891221136814 18.48396004177244 z" fill="#cc0000" stroke="none"></path></svg></g><g transform="translate(150, 0)"><svg xmlns="http://www.w3.org/2000/svg" xmlns:ev="http://www.w3.org/2001/xml-events" xmlns:xlink="http://www.w3.org/1999/xlink" baseProfile="full" height="100" version="1.1" width="150" viewBox="0 0 150 100" preserveAspectRatio="xMidYMid meet"><defs><clipPath id="mask0"><rect height="100" width="150" x="0" y="0"></rect></clipPath></defs><g clip-path="url(#mask0)"><rect fill="#6699ff" height="33.333333333333336" stroke="none" transform="translate(-600 -400) skewX(21.279577223853867) skewY(21.708721180949794)" width="37.5" x="0.0" y="0.0"></rect><rect fill="#212121" height="33.333333333333336" stroke="none" transform="translate(-600 -400) skewX(21.279577223853867) skewY(21.708721180949794)" width="37.5" x="0.0" y="33.333333333333336"></rect><rect fill="#6699ff" height="33.333333333333336" stroke="none" transform="translate(-600 -400) skewX(21.279577223853867) skewY(21.708721180949794)" width="37.5" x="0.0" y="66.66666666666667"></rect><rect fill="#212121" height="33.333333333333336" stroke="none" transform="translate(-600 -400) skewX(21.279577223853867) skewY(21.708721180949794)" width="37.5" x="0.0" y="100.0"></rect><rect fill="#6699ff" height="33.333333333333336" stroke="none" transform="translate(-600 -400) skewX(21.279577223853867) skewY(21.708721180949794)" width="37.5" x="0.0" y="133.33333333333334"></rect><rect fill="#212121" height="33.333333333333336" stroke="none" transform="translate(-600 -400) skewX(21.279577223853867) skewY(21.708721180949794)" width="37.5" x="0.0" y="166.66666666666666"></rect><rect fill="#6699ff" height="33.333333333333336" stroke="none" transform="translate(-600 -400) skewX(21.279577223853867) skewY(21.708721180949794)" width="37.5" x="0.0" y="200.0"></rect><rect fill="#212121" height="33.333333333333336" stroke="none" transform="translate(-600 -400) skewX(21.279577223853867) skewY(21.708721180949794)" width="37.5" x="0.0" y="233.33333333333334"></rect><rect fill="#6699ff" height="33.333333333333336" stroke="none" transform="translate(-600 -400) skewX(21.279577223853867) skewY(21.708721180949794)" width="37.5" x="0.0" y="266.6666666666667"></rect><rect fill="#212121" height="33.333333333333336" stroke="none" transform="translate(-600 -400) skewX(21.279577223853867) skewY(21.708721180949794)" width="37.5" x="0.0" y="300.0"></rect><rect fill="#6699ff" height="33.333333333333336" stroke="none" transform="translate(-600 -400) skewX(21.279577223853867) skewY(21.708721180949794)" width="37.5" x="0.0" y="333.3333333333333"></rect><rect fill="#212121" height="33.333333333333336" stroke="none" transform="translate(-600 -400) skewX(21.279577223853867) skewY(21.708721180949794)" width="37.5" x="0.0" y="366.6666666666667"></rect><rect fill="#6699ff" height="33.333333333333336" stroke="none" transform="translate(-600 -400) skewX(21.279577223853867) skewY(21.708721180949794)" width="37.5" x="0.0" y="400.0"></rect><rect fill="#212121" height="33.333333333333336" stroke="none" transform="translate(-600 -400) skewX(21.279577223853867) skewY(21.708721180949794)" width="37.5" x="0.0" y="433.3333333333333"></rect><rect fill="#6699ff" height="33.333333333333336" stroke="none" transform="translate(-600 -400) skewX(21.279577223853867) skewY(21.708721180949794)" width="37.5" x="0.0" y="466.6666666666667"></rect><rect fill="#212121" height="33.333333333333336" stroke="none" transform="translate(-600 -400) skewX(21.279577223853867) skewY(21.708721180949794)" width="37.5" x="37.5" y="0.0"></rect><rect fill="#6699ff" height="33.333333333333336" stroke="none" transform="translate(-600 -400) skewX(21.279577223853867) skewY(21.708721180949794)" width="37.5" x="37.5" y="33.333333333333336"></rect><rect fill="#212121" height="33.333333333333336" stroke="none" transform="translate(-600 -400) skewX(21.279577223853867) skewY(21.708721180949794)" width="37.5" x="37.5" y="66.66666666666667"></rect><rect fill="#6699ff" height="33.333333333333336" stroke="none" transform="translate(-600 -400) skewX(21.279577223853867) skewY(21.708721180949794)" width="37.5" x="37.5" y="100.0"></rect><rect fill="#212121" height="33.333333333333336" stroke="none" transform="translate(-600 -400) skewX(21.279577223853867) skewY(21.708721180949794)" width="37.5" x="37.5" y="133.33333333333334"></rect><rect fill="#6699ff" height="33.333333333333336" stroke="none" transform="translate(-600 -400) skewX(21.279577223853867) skewY(21.708721180949794)" width="37.5" x="37.5" y="166.66666666666666"></rect><rect fill="#212121" height="33.333333333333336" stroke="none" transform="translate(-600 -400) skewX(21.279577223853867) skewY(21.708721180949794)" width="37.5" x="37.5" y="200.0"></rect><rect fill="#6699ff" height="33.333333333333336" stroke="none" transform="translate(-600 -400) skewX(21.279577223853867) skewY(21.708721180949794)" width="37.5" x="37.5" y="233.33333333333334"></rect><rect fill="#212121" height="33.333333333333336" stroke="none" transform="translate(-600 -400) skewX(21.279577223853867) skewY(21.708721180949794)" width="37.5" x="37.5" y="266.6666666666667"></rect><rect fill="#6699ff" height="33.333333333333336" stroke="none" transform="translate(-600 -400) skewX(21.279577223853867) skewY(21.708721180949794)" width="37.5" x="37.5" y="300.0"></rect><rect fill="#212121" height="33.333333333333336" stroke="none" transform="translate(-600 -400) skewX(21.279577223853867) skewY(21.708721180949794)" width="37.5" x="37.5" y="333.3333333333333"></rect><rect fill="#6699ff" height="33.333333333333336" stroke="none" transform="translate(-600 -400) skewX(21.279577223853867) skewY(21.708721180949794)" width="37.5" x="37.5" y="366.6666666666667"></rect><rect fill="#212121" height="33.333333333333336" stroke="none" transform="translate(-600 -400) skewX(21.279577223853867) skewY(21.708721180949794)" width="37.5" x="37.5" y="400.0"></rect><rect fill="#6699ff" height="33.333333333333336" stroke="none" transform="translate(-600 -400) skewX(21.279577223853867) skewY(21.708721180949794)" width="37.5" x="37.5" y="433.3333333333333"></rect><rect fill="#212121" height="33.333333333333336" stroke="none" transform="translate(-600 -400) skewX(21.279577223853867) skewY(21.708721180949794)" width="37.5" x="37.5" y="466.6666666666667"></rect><rect fill="#6699ff" height="33.333333333333336" stroke="none" transform="translate(-600 -400) skewX(21.279577223853867) skewY(21.708721180949794)" width="37.5" x="75.0" y="0.0"></rect><rect fill="#212121" height="33.333333333333336" stroke="none" transform="translate(-600 -400) skewX(21.279577223853867) skewY(21.708721180949794)" width="37.5" x="75.0" y="33.333333333333336"></rect><rect fill="#6699ff" height="33.333333333333336" stroke="none" transform="translate(-600 -400) skewX(21.279577223853867) skewY(21.708721180949794)" width="37.5" x="75.0" y="66.66666666666667"></rect><rect fill="#212121" height="33.333333333333336" stroke="none" transform="translate(-600 -400) skewX(21.279577223853867) skewY(21.708721180949794)" width="37.5" x="75.0" y="100.0"></rect><rect fill="#6699ff" height="33.333333333333336" stroke="none" transform="translate(-600 -400) skewX(21.279577223853867) skewY(21.708721180949794)" width="37.5" x="75.0" y="133.33333333333334"></rect><rect fill="#212121" height="33.333333333333336" stroke="none" transform="translate(-600 -400) skewX(21.279577223853867) skewY(21.708721180949794)" width="37.5" x="75.0" y="166.66666666666666"></rect><rect fill="#6699ff" height="33.333333333333336" stroke="none" transform="translate(-600 -400) skewX(21.279577223853867) skewY(21.708721180949794)" width="37.5" x="75.0" y="200.0"></rect><rect fill="#212121" height="33.333333333333336" stroke="none" transform="translate(-600 -400) skewX(21.279577223853867) skewY(21.708721180949794)" width="37.5" x="75.0" y="233.33333333333334"></rect><rect fill="#6699ff" height="33.333333333333336" stroke="none" transform="translate(-600 -400) skewX(21.279577223853867) skewY(21.708721180949794)" width="37.5" x="75.0" y="266.6666666666667"></rect><rect fill="#212121" height="33.333333333333336" stroke="none" transform="translate(-600 -400) skewX(21.279577223853867) skewY(21.708721180949794)" width="37.5" x="75.0" y="300.0"></rect><rect fill="#6699ff" height="33.333333333333336" stroke="none" transform="translate(-600 -400) skewX(21.279577223853867) skewY(21.708721180949794)" width="37.5" x="75.0" y="333.3333333333333"></rect><rect fill="#212121" height="33.333333333333336" stroke="none" transform="translate(-600 -400) skewX(21.279577223853867) skewY(21.708721180949794)" width="37.5" x="75.0" y="366.6666666666667"></rect><rect fill="#6699ff" height="33.333333333333336" stroke="none" transform="translate(-600 -400) skewX(21.279577223853867) skewY(21.708721180949794)" width="37.5" x="75.0" y="400.0"></rect><rect fill="#212121" height="33.333333333333336" stroke="none" transform="translate(-600 -400) skewX(21.279577223853867) skewY(21.708721180949794)" width="37.5" x="75.0" y="433.3333333333333"></rect><rect fill="#6699ff" height="33.333333333333336" stroke="none" transform="translate(-600 -400) skewX(21.279577223853867) skewY(21.708721180949794)" width="37.5" x="75.0" y="466.6666666666667"></rect><rect fill="#212121" height="33.333333333333336" stroke="none" transform="translate(-600 -400) skewX(21.279577223853867) skewY(21.708721180949794)" width="37.5" x="112.5" y="0.0"></rect><rect fill="#6699ff" height="33.333333333333336" stroke="none" transform="translate(-600 -400) skewX(21.279577223853867) skewY(21.708721180949794)" width="37.5" x="112.5" y="33.333333333333336"></rect><rect fill="#212121" height="33.333333333333336" stroke="none" transform="translate(-600 -400) skewX(21.279577223853867) skewY(21.708721180949794)" width="37.5" x="112.5" y="66.66666666666667"></rect><rect fill="#6699ff" height="33.333333333333336" stroke="none" transform="translate(-600 -400) skewX(21.279577223853867) skewY(21.708721180949794)" width="37.5" x="112.5" y="100.0"></rect><rect fill="#212121" height="33.333333333333336" stroke="none" transform="translate(-600 -400) skewX(21.279577223853867) skewY(21.708721180949794)" width="37.5" x="112.5" y="133.33333333333334"></rect><rect fill="#6699ff" height="33.333333333333336" stroke="none" transform="translate(-600 -400) skewX(21.279577223853867) skewY(21.708721180949794)" width="37.5" x="112.5" y="166.66666666666666"></rect><rect fill="#212121" height="33.333333333333336" stroke="none" transform="translate(-600 -400) skewX(21.279577223853867) skewY(21.708721180949794)" width="37.5" x="112.5" y="200.0"></rect><rect fill="#6699ff" height="33.333333333333336" stroke="none" transform="translate(-600 -400) skewX(21.279577223853867) skewY(21.708721180949794)" width="37.5" x="112.5" y="233.33333333333334"></rect><rect fill="#212121" height="33.333333333333336" stroke="none" transform="translate(-600 -400) skewX(21.279577223853867) skewY(21.708721180949794)" width="37.5" x="112.5" y="266.6666666666667"></rect><rect fill="#6699ff" height="33.333333333333336" stroke="none" transform="translate(-600 -400) skewX(21.279577223853867) skewY(21.708721180949794)" width="37.5" x="112.5" y="300.0"></rect><rect fill="#212121" height="33.333333333333336" stroke="none" transform="translate(-600 -400) skewX(21.279577223853867) skewY(21.708721180949794)" width="37.5" x="112.5" y="333.3333333333333"></rect><rect fill="#6699ff" height="33.333333333333336" stroke="none" transform="translate(-600 -400) skewX(21.279577223853867) skewY(21.708721180949794)" width="37.5" x="112.5" y="366.6666666666667"></rect><rect fill="#212121" height="33.333333333333336" stroke="none" transform="translate(-600 -400) skewX(21.279577223853867) skewY(21.708721180949794)" width="37.5" x="112.5" y="400.0"></rect><rect fill="#6699ff" height="33.333333333333336" stroke="none" transform="translate(-600 -400) skewX(21.279577223853867) skewY(21.708721180949794)" width="37.5" x="112.5" y="433.3333333333333"></rect><rect fill="#212121" height="33.333333333333336" stroke="none" transform="translate(-600 -400) skewX(21.279577223853867) skewY(21.708721180949794)" width="37.5" x="112.5" y="466.6666666666667"></rect><rect fill="#6699ff" height="33.333333333333336" stroke="none" transform="translate(-600 -400) skewX(21.279577223853867) skewY(21.708721180949794)" width="37.5" x="150.0" y="0.0"></rect><rect fill="#212121" height="33.333333333333336" stroke="none" transform="translate(-600 -400) skewX(21.279577223853867) skewY(21.708721180949794)" width="37.5" x="150.0" y="33.333333333333336"></rect><rect fill="#6699ff" height="33.333333333333336" stroke="none" transform="translate(-600 -400) skewX(21.279577223853867) skewY(21.708721180949794)" width="37.5" x="150.0" y="66.66666666666667"></rect><rect fill="#212121" height="33.333333333333336" stroke="none" transform="translate(-600 -400) skewX(21.279577223853867) skewY(21.708721180949794)" width="37.5" x="150.0" y="100.0"></rect><rect fill="#6699ff" height="33.333333333333336" stroke="none" transform="translate(-600 -400) skewX(21.279577223853867) skewY(21.708721180949794)" width="37.5" x="150.0" y="133.33333333333334"></rect><rect fill="#212121" height="33.333333333333336" stroke="none" transform="translate(-600 -400) skewX(21.279577223853867) skewY(21.708721180949794)" width="37.5" x="150.0" y="166.66666666666666"></rect><rect fill="#6699ff" height="33.333333333333336" stroke="none" transform="translate(-600 -400) skewX(21.279577223853867) skewY(21.708721180949794)" width="37.5" x="150.0" y="200.0"></rect><rect fill="#212121" height="33.333333333333336" stroke="none" transform="translate(-600 -400) skewX(21.279577223853867) skewY(21.708721180949794)" width="37.5" x="150.0" y="233.33333333333334"></rect><rect fill="#6699ff" height="33.333333333333336" stroke="none" transform="translate(-600 -400) skewX(21.279577223853867) skewY(21.708721180949794)" width="37.5" x="150.0" y="266.6666666666667"></rect><rect fill="#212121" height="33.333333333333336" stroke="none" transform="translate(-600 -400) skewX(21.279577223853867) skewY(21.708721180949794)" width="37.5" x="150.0" y="300.0"></rect><rect fill="#6699ff" height="33.333333333333336" stroke="none" transform="translate(-600 -400) skewX(21.279577223853867) skewY(21.708721180949794)" width="37.5" x="150.0" y="333.3333333333333"></rect><rect fill="#212121" height="33.333333333333336" stroke="none" transform="translate(-600 -400) skewX(21.279577223853867) skewY(21.708721180949794)" width="37.5" x="150.0" y="366.6666666666667"></rect><rect fill="#6699ff" height="33.333333333333336" stroke="none" transform="translate(-600 -400) skewX(21.279577223853867) skewY(21.708721180949794)" width="37.5" x="150.0" y="400.0"></rect><rect fill="#212121" height="33.333333333333336" stroke="none" transform="translate(-600 -400) skewX(21.279577223853867) skewY(21.708721180949794)" width="37.5" x="150.0" y="433.3333333333333"></rect><rect fill="#6699ff" height="33.333333333333336" stroke="none" transform="translate(-600 -400) skewX(21.279577223853867) skewY(21.708721180949794)" width="37.5" x="150.0" y="466.6666666666667"></rect><rect fill="#212121" height="33.333333333333336" stroke="none" transform="translate(-600 -400) skewX(21.279577223853867) skewY(21.708721180949794)" width="37.5" x="187.5" y="0.0"></rect><rect fill="#6699ff" height="33.333333333333336" stroke="none" transform="translate(-600 -400) skewX(21.279577223853867) skewY(21.708721180949794)" width="37.5" x="187.5" y="33.333333333333336"></rect><rect fill="#212121" height="33.333333333333336" stroke="none" transform="translate(-600 -400) skewX(21.279577223853867) skewY(21.708721180949794)" width="37.5" x="187.5" y="66.66666666666667"></rect><rect fill="#6699ff" height="33.333333333333336" stroke="none" transform="translate(-600 -400) skewX(21.279577223853867) skewY(21.708721180949794)" width="37.5" x="187.5" y="100.0"></rect><rect fill="#212121" height="33.333333333333336" stroke="none" transform="translate(-600 -400) skewX(21.279577223853867) skewY(21.708721180949794)" width="37.5" x="187.5" y="133.33333333333334"></rect><rect fill="#6699ff" height="33.333333333333336" stroke="none" transform="translate(-600 -400) skewX(21.279577223853867) skewY(21.708721180949794)" width="37.5" x="187.5" y="166.66666666666666"></rect><rect fill="#212121" height="33.333333333333336" stroke="none" transform="translate(-600 -400) skewX(21.279577223853867) skewY(21.708721180949794)" width="37.5" x="187.5" y="200.0"></rect><rect fill="#6699ff" height="33.333333333333336" stroke="none" transform="translate(-600 -400) skewX(21.279577223853867) skewY(21.708721180949794)" width="37.5" x="187.5" y="233.33333333333334"></rect><rect fill="#212121" height="33.333333333333336" stroke="none" transform="translate(-600 -400) skewX(21.279577223853867) skewY(21.708721180949794)" width="37.5" x="187.5" y="266.6666666666667"></rect><rect fill="#6699ff" height="33.333333333333336" stroke="none" transform="translate(-600 -400) skewX(21.279577223853867) skewY(21.708721180949794)" width="37.5" x="187.5" y="300.0"></rect><rect fill="#212121" height="33.333333333333336" stroke="none" transform="translate(-600 -400) skewX(21.279577223853867) skewY(21.708721180949794)" width="37.5" x="187.5" y="333.3333333333333"></rect><rect fill="#6699ff" height="33.333333333333336" stroke="none" transform="translate(-600 -400) skewX(21.279577223853867) skewY(21.708721180949794)" width="37.5" x="187.5" y="366.6666666666667"></rect><rect fill="#212121" height="33.333333333333336" stroke="none" transform="translate(-600 -400) skewX(21.279577223853867) skewY(21.708721180949794)" width="37.5" x="187.5" y="400.0"></rect><rect fill="#6699ff" height="33.333333333333336" stroke="none" transform="translate(-600 -400) skewX(21.279577223853867) skewY(21.708721180949794)" width="37.5" x="187.5" y="433.3333333333333"></rect><rect fill="#212121" height="33.333333333333336" stroke="none" transform="translate(-600 -400) skewX(21.279577223853867) skewY(21.708721180949794)" width="37.5" x="187.5" y="466.6666666666667"></rect><rect fill="#6699ff" height="33.333333333333336" stroke="none" transform="translate(-600 -400) skewX(21.279577223853867) skewY(21.708721180949794)" width="37.5" x="225.0" y="0.0"></rect><rect fill="#212121" height="33.333333333333336" stroke="none" transform="translate(-600 -400) skewX(21.279577223853867) skewY(21.708721180949794)" width="37.5" x="225.0" y="33.333333333333336"></rect><rect fill="#6699ff" height="33.333333333333336" stroke="none" transform="translate(-600 -400) skewX(21.279577223853867) skewY(21.708721180949794)" width="37.5" x="225.0" y="66.66666666666667"></rect><rect fill="#212121" height="33.333333333333336" stroke="none" transform="translate(-600 -400) skewX(21.279577223853867) skewY(21.708721180949794)" width="37.5" x="225.0" y="100.0"></rect><rect fill="#6699ff" height="33.333333333333336" stroke="none" transform="translate(-600 -400) skewX(21.279577223853867) skewY(21.708721180949794)" width="37.5" x="225.0" y="133.33333333333334"></rect><rect fill="#212121" height="33.333333333333336" stroke="none" transform="translate(-600 -400) skewX(21.279577223853867) skewY(21.708721180949794)" width="37.5" x="225.0" y="166.66666666666666"></rect><rect fill="#6699ff" height="33.333333333333336" stroke="none" transform="translate(-600 -400) skewX(21.279577223853867) skewY(21.708721180949794)" width="37.5" x="225.0" y="200.0"></rect><rect fill="#212121" height="33.333333333333336" stroke="none" transform="translate(-600 -400) skewX(21.279577223853867) skewY(21.708721180949794)" width="37.5" x="225.0" y="233.33333333333334"></rect><rect fill="#6699ff" height="33.333333333333336" stroke="none" transform="translate(-600 -400) skewX(21.279577223853867) skewY(21.708721180949794)" width="37.5" x="225.0" y="266.6666666666667"></rect><rect fill="#212121" height="33.333333333333336" stroke="none" transform="translate(-600 -400) skewX(21.279577223853867) skewY(21.708721180949794)" width="37.5" x="225.0" y="300.0"></rect><rect fill="#6699ff" height="33.333333333333336" stroke="none" transform="translate(-600 -400) skewX(21.279577223853867) skewY(21.708721180949794)" width="37.5" x="225.0" y="333.3333333333333"></rect><rect fill="#212121" height="33.333333333333336" stroke="none" transform="translate(-600 -400) skewX(21.279577223853867) skewY(21.708721180949794)" width="37.5" x="225.0" y="366.6666666666667"></rect><rect fill="#6699ff" height="33.333333333333336" stroke="none" transform="translate(-600 -400) skewX(21.279577223853867) skewY(21.708721180949794)" width="37.5" x="225.0" y="400.0"></rect><rect fill="#212121" height="33.333333333333336" stroke="none" transform="translate(-600 -400) skewX(21.279577223853867) skewY(21.708721180949794)" width="37.5" x="225.0" y="433.3333333333333"></rect><rect fill="#6699ff" height="33.333333333333336" stroke="none" transform="translate(-600 -400) skewX(21.279577223853867) skewY(21.708721180949794)" width="37.5" x="225.0" y="466.6666666666667"></rect><rect fill="#212121" height="33.333333333333336" stroke="none" transform="translate(-600 -400) skewX(21.279577223853867) skewY(21.708721180949794)" width="37.5" x="262.5" y="0.0"></rect><rect fill="#6699ff" height="33.333333333333336" stroke="none" transform="translate(-600 -400) skewX(21.279577223853867) skewY(21.708721180949794)" width="37.5" x="262.5" y="33.333333333333336"></rect><rect fill="#212121" height="33.333333333333336" stroke="none" transform="translate(-600 -400) skewX(21.279577223853867) skewY(21.708721180949794)" width="37.5" x="262.5" y="66.66666666666667"></rect><rect fill="#6699ff" height="33.333333333333336" stroke="none" transform="translate(-600 -400) skewX(21.279577223853867) skewY(21.708721180949794)" width="37.5" x="262.5" y="100.0"></rect><rect fill="#212121" height="33.333333333333336" stroke="none" transform="translate(-600 -400) skewX(21.279577223853867) skewY(21.708721180949794)" width="37.5" x="262.5" y="133.33333333333334"></rect><rect fill="#6699ff" height="33.333333333333336" stroke="none" transform="translate(-600 -400) skewX(21.279577223853867) skewY(21.708721180949794)" width="37.5" x="262.5" y="166.66666666666666"></rect><rect fill="#212121" height="33.333333333333336" stroke="none" transform="translate(-600 -400) skewX(21.279577223853867) skewY(21.708721180949794)" width="37.5" x="262.5" y="200.0"></rect><rect fill="#6699ff" height="33.333333333333336" stroke="none" transform="translate(-600 -400) skewX(21.279577223853867) skewY(21.708721180949794)" width="37.5" x="262.5" y="233.33333333333334"></rect><rect fill="#212121" height="33.333333333333336" stroke="none" transform="translate(-600 -400) skewX(21.279577223853867) skewY(21.708721180949794)" width="37.5" x="262.5" y="266.6666666666667"></rect><rect fill="#6699ff" height="33.333333333333336" stroke="none" transform="translate(-600 -400) skewX(21.279577223853867) skewY(21.708721180949794)" width="37.5" x="262.5" y="300.0"></rect><rect fill="#212121" height="33.333333333333336" stroke="none" transform="translate(-600 -400) skewX(21.279577223853867) skewY(21.708721180949794)" width="37.5" x="262.5" y="333.3333333333333"></rect><rect fill="#6699ff" height="33.333333333333336" stroke="none" transform="translate(-600 -400) skewX(21.279577223853867) skewY(21.708721180949794)" width="37.5" x="262.5" y="366.6666666666667"></rect><rect fill="#212121" height="33.333333333333336" stroke="none" transform="translate(-600 -400) skewX(21.279577223853867) skewY(21.708721180949794)" width="37.5" x="262.5" y="400.0"></rect><rect fill="#6699ff" height="33.333333333333336" stroke="none" transform="translate(-600 -400) skewX(21.279577223853867) skewY(21.708721180949794)" width="37.5" x="262.5" y="433.3333333333333"></rect><rect fill="#212121" height="33.333333333333336" stroke="none" transform="translate(-600 -400) skewX(21.279577223853867) skewY(21.708721180949794)" width="37.5" x="262.5" y="466.6666666666667"></rect><rect fill="#6699ff" height="33.333333333333336" stroke="none" transform="translate(-600 -400) skewX(21.279577223853867) skewY(21.708721180949794)" width="37.5" x="300.0" y="0.0"></rect><rect fill="#212121" height="33.333333333333336" stroke="none" transform="translate(-600 -400) skewX(21.279577223853867) skewY(21.708721180949794)" width="37.5" x="300.0" y="33.333333333333336"></rect><rect fill="#6699ff" height="33.333333333333336" stroke="none" transform="translate(-600 -400) skewX(21.279577223853867) skewY(21.708721180949794)" width="37.5" x="300.0" y="66.66666666666667"></rect><rect fill="#212121" height="33.333333333333336" stroke="none" transform="translate(-600 -400) skewX(21.279577223853867) skewY(21.708721180949794)" width="37.5" x="300.0" y="100.0"></rect><rect fill="#6699ff" height="33.333333333333336" stroke="none" transform="translate(-600 -400) skewX(21.279577223853867) skewY(21.708721180949794)" width="37.5" x="300.0" y="133.33333333333334"></rect><rect fill="#212121" height="33.333333333333336" stroke="none" transform="translate(-600 -400) skewX(21.279577223853867) skewY(21.708721180949794)" width="37.5" x="300.0" y="166.66666666666666"></rect><rect fill="#6699ff" height="33.333333333333336" stroke="none" transform="translate(-600 -400) skewX(21.279577223853867) skewY(21.708721180949794)" width="37.5" x="300.0" y="200.0"></rect><rect fill="#212121" height="33.333333333333336" stroke="none" transform="translate(-600 -400) skewX(21.279577223853867) skewY(21.708721180949794)" width="37.5" x="300.0" y="233.33333333333334"></rect><rect fill="#6699ff" height="33.333333333333336" stroke="none" transform="translate(-600 -400) skewX(21.279577223853867) skewY(21.708721180949794)" width="37.5" x="300.0" y="266.6666666666667"></rect><rect fill="#212121" height="33.333333333333336" stroke="none" transform="translate(-600 -400) skewX(21.279577223853867) skewY(21.708721180949794)" width="37.5" x="300.0" y="300.0"></rect><rect fill="#6699ff" height="33.333333333333336" stroke="none" transform="translate(-600 -400) skewX(21.279577223853867) skewY(21.708721180949794)" width="37.5" x="300.0" y="333.3333333333333"></rect><rect fill="#212121" height="33.333333333333336" stroke="none" transform="translate(-600 -400) skewX(21.279577223853867) skewY(21.708721180949794)" width="37.5" x="300.0" y="366.6666666666667"></rect><rect fill="#6699ff" height="33.333333333333336" stroke="none" transform="translate(-600 -400) skewX(21.279577223853867) skewY(21.708721180949794)" width="37.5" x="300.0" y="400.0"></rect><rect fill="#212121" height="33.333333333333336" stroke="none" transform="translate(-600 -400) skewX(21.279577223853867) skewY(21.708721180949794)" width="37.5" x="300.0" y="433.3333333333333"></rect><rect fill="#6699ff" height="33.333333333333336" stroke="none" transform="translate(-600 -400) skewX(21.279577223853867) skewY(21.708721180949794)" width="37.5" x="300.0" y="466.6666666666667"></rect><rect fill="#212121" height="33.333333333333336" stroke="none" transform="translate(-600 -400) skewX(21.279577223853867) skewY(21.708721180949794)" width="37.5" x="337.5" y="0.0"></rect><rect fill="#6699ff" height="33.333333333333336" stroke="none" transform="translate(-600 -400) skewX(21.279577223853867) skewY(21.708721180949794)" width="37.5" x="337.5" y="33.333333333333336"></rect><rect fill="#212121" height="33.333333333333336" stroke="none" transform="translate(-600 -400) skewX(21.279577223853867) skewY(21.708721180949794)" width="37.5" x="337.5" y="66.66666666666667"></rect><rect fill="#6699ff" height="33.333333333333336" stroke="none" transform="translate(-600 -400) skewX(21.279577223853867) skewY(21.708721180949794)" width="37.5" x="337.5" y="100.0"></rect><rect fill="#212121" height="33.333333333333336" stroke="none" transform="translate(-600 -400) skewX(21.279577223853867) skewY(21.708721180949794)" width="37.5" x="337.5" y="133.33333333333334"></rect><rect fill="#6699ff" height="33.333333333333336" stroke="none" transform="translate(-600 -400) skewX(21.279577223853867) skewY(21.708721180949794)" width="37.5" x="337.5" y="166.66666666666666"></rect><rect fill="#212121" height="33.333333333333336" stroke="none" transform="translate(-600 -400) skewX(21.279577223853867) skewY(21.708721180949794)" width="37.5" x="337.5" y="200.0"></rect><rect fill="#6699ff" height="33.333333333333336" stroke="none" transform="translate(-600 -400) skewX(21.279577223853867) skewY(21.708721180949794)" width="37.5" x="337.5" y="233.33333333333334"></rect><rect fill="#212121" height="33.333333333333336" stroke="none" transform="translate(-600 -400) skewX(21.279577223853867) skewY(21.708721180949794)" width="37.5" x="337.5" y="266.6666666666667"></rect><rect fill="#6699ff" height="33.333333333333336" stroke="none" transform="translate(-600 -400) skewX(21.279577223853867) skewY(21.708721180949794)" width="37.5" x="337.5" y="300.0"></rect><rect fill="#212121" height="33.333333333333336" stroke="none" transform="translate(-600 -400) skewX(21.279577223853867) skewY(21.708721180949794)" width="37.5" x="337.5" y="333.3333333333333"></rect><rect fill="#6699ff" height="33.333333333333336" stroke="none" transform="translate(-600 -400) skewX(21.279577223853867) skewY(21.708721180949794)" width="37.5" x="337.5" y="366.6666666666667"></rect><rect fill="#212121" height="33.333333333333336" stroke="none" transform="translate(-600 -400) skewX(21.279577223853867) skewY(21.708721180949794)" width="37.5" x="337.5" y="400.0"></rect><rect fill="#6699ff" height="33.333333333333336" stroke="none" transform="translate(-600 -400) skewX(21.279577223853867) skewY(21.708721180949794)" width="37.5" x="337.5" y="433.3333333333333"></rect><rect fill="#212121" height="33.333333333333336" stroke="none" transform="translate(-600 -400) skewX(21.279577223853867) skewY(21.708721180949794)" width="37.5" x="337.5" y="466.6666666666667"></rect><rect fill="#6699ff" height="33.333333333333336" stroke="none" transform="translate(-600 -400) skewX(21.279577223853867) skewY(21.708721180949794)" width="37.5" x="375.0" y="0.0"></rect><rect fill="#212121" height="33.333333333333336" stroke="none" transform="translate(-600 -400) skewX(21.279577223853867) skewY(21.708721180949794)" width="37.5" x="375.0" y="33.333333333333336"></rect><rect fill="#6699ff" height="33.333333333333336" stroke="none" transform="translate(-600 -400) skewX(21.279577223853867) skewY(21.708721180949794)" width="37.5" x="375.0" y="66.66666666666667"></rect><rect fill="#212121" height="33.333333333333336" stroke="none" transform="translate(-600 -400) skewX(21.279577223853867) skewY(21.708721180949794)" width="37.5" x="375.0" y="100.0"></rect><rect fill="#6699ff" height="33.333333333333336" stroke="none" transform="translate(-600 -400) skewX(21.279577223853867) skewY(21.708721180949794)" width="37.5" x="375.0" y="133.33333333333334"></rect><rect fill="#212121" height="33.333333333333336" stroke="none" transform="translate(-600 -400) skewX(21.279577223853867) skewY(21.708721180949794)" width="37.5" x="375.0" y="166.66666666666666"></rect><rect fill="#6699ff" height="33.333333333333336" stroke="none" transform="translate(-600 -400) skewX(21.279577223853867) skewY(21.708721180949794)" width="37.5" x="375.0" y="200.0"></rect><rect fill="#212121" height="33.333333333333336" stroke="none" transform="translate(-600 -400) skewX(21.279577223853867) skewY(21.708721180949794)" width="37.5" x="375.0" y="233.33333333333334"></rect><rect fill="#6699ff" height="33.333333333333336" stroke="none" transform="translate(-600 -400) skewX(21.279577223853867) skewY(21.708721180949794)" width="37.5" x="375.0" y="266.6666666666667"></rect><rect fill="#212121" height="33.333333333333336" stroke="none" transform="translate(-600 -400) skewX(21.279577223853867) skewY(21.708721180949794)" width="37.5" x="375.0" y="300.0"></rect><rect fill="#6699ff" height="33.333333333333336" stroke="none" transform="translate(-600 -400) skewX(21.279577223853867) skewY(21.708721180949794)" width="37.5" x="375.0" y="333.3333333333333"></rect><rect fill="#212121" height="33.333333333333336" stroke="none" transform="translate(-600 -400) skewX(21.279577223853867) skewY(21.708721180949794)" width="37.5" x="375.0" y="366.6666666666667"></rect><rect fill="#6699ff" height="33.333333333333336" stroke="none" transform="translate(-600 -400) skewX(21.279577223853867) skewY(21.708721180949794)" width="37.5" x="375.0" y="400.0"></rect><rect fill="#212121" height="33.333333333333336" stroke="none" transform="translate(-600 -400) skewX(21.279577223853867) skewY(21.708721180949794)" width="37.5" x="375.0" y="433.3333333333333"></rect><rect fill="#6699ff" height="33.333333333333336" stroke="none" transform="translate(-600 -400) skewX(21.279577223853867) skewY(21.708721180949794)" width="37.5" x="375.0" y="466.6666666666667"></rect><rect fill="#212121" height="33.333333333333336" stroke="none" transform="translate(-600 -400) skewX(21.279577223853867) skewY(21.708721180949794)" width="37.5" x="412.5" y="0.0"></rect><rect fill="#6699ff" height="33.333333333333336" stroke="none" transform="translate(-600 -400) skewX(21.279577223853867) skewY(21.708721180949794)" width="37.5" x="412.5" y="33.333333333333336"></rect><rect fill="#212121" height="33.333333333333336" stroke="none" transform="translate(-600 -400) skewX(21.279577223853867) skewY(21.708721180949794)" width="37.5" x="412.5" y="66.66666666666667"></rect><rect fill="#6699ff" height="33.333333333333336" stroke="none" transform="translate(-600 -400) skewX(21.279577223853867) skewY(21.708721180949794)" width="37.5" x="412.5" y="100.0"></rect><rect fill="#212121" height="33.333333333333336" stroke="none" transform="translate(-600 -400) skewX(21.279577223853867) skewY(21.708721180949794)" width="37.5" x="412.5" y="133.33333333333334"></rect><rect fill="#6699ff" height="33.333333333333336" stroke="none" transform="translate(-600 -400) skewX(21.279577223853867) skewY(21.708721180949794)" width="37.5" x="412.5" y="166.66666666666666"></rect><rect fill="#212121" height="33.333333333333336" stroke="none" transform="translate(-600 -400) skewX(21.279577223853867) skewY(21.708721180949794)" width="37.5" x="412.5" y="200.0"></rect><rect fill="#6699ff" height="33.333333333333336" stroke="none" transform="translate(-600 -400) skewX(21.279577223853867) skewY(21.708721180949794)" width="37.5" x="412.5" y="233.33333333333334"></rect><rect fill="#212121" height="33.333333333333336" stroke="none" transform="translate(-600 -400) skewX(21.279577223853867) skewY(21.708721180949794)" width="37.5" x="412.5" y="266.6666666666667"></rect><rect fill="#6699ff" height="33.333333333333336" stroke="none" transform="translate(-600 -400) skewX(21.279577223853867) skewY(21.708721180949794)" width="37.5" x="412.5" y="300.0"></rect><rect fill="#212121" height="33.333333333333336" stroke="none" transform="translate(-600 -400) skewX(21.279577223853867) skewY(21.708721180949794)" width="37.5" x="412.5" y="333.3333333333333"></rect><rect fill="#6699ff" height="33.333333333333336" stroke="none" transform="translate(-600 -400) skewX(21.279577223853867) skewY(21.708721180949794)" width="37.5" x="412.5" y="366.6666666666667"></rect><rect fill="#212121" height="33.333333333333336" stroke="none" transform="translate(-600 -400) skewX(21.279577223853867) skewY(21.708721180949794)" width="37.5" x="412.5" y="400.0"></rect><rect fill="#6699ff" height="33.333333333333336" stroke="none" transform="translate(-600 -400) skewX(21.279577223853867) skewY(21.708721180949794)" width="37.5" x="412.5" y="433.3333333333333"></rect><rect fill="#212121" height="33.333333333333336" stroke="none" transform="translate(-600 -400) skewX(21.279577223853867) skewY(21.708721180949794)" width="37.5" x="412.5" y="466.6666666666667"></rect><rect fill="#6699ff" height="33.333333333333336" stroke="none" transform="translate(-600 -400) skewX(21.279577223853867) skewY(21.708721180949794)" width="37.5" x="450.0" y="0.0"></rect><rect fill="#212121" height="33.333333333333336" stroke="none" transform="translate(-600 -400) skewX(21.279577223853867) skewY(21.708721180949794)" width="37.5" x="450.0" y="33.333333333333336"></rect><rect fill="#6699ff" height="33.333333333333336" stroke="none" transform="translate(-600 -400) skewX(21.279577223853867) skewY(21.708721180949794)" width="37.5" x="450.0" y="66.66666666666667"></rect><rect fill="#212121" height="33.333333333333336" stroke="none" transform="translate(-600 -400) skewX(21.279577223853867) skewY(21.708721180949794)" width="37.5" x="450.0" y="100.0"></rect><rect fill="#6699ff" height="33.333333333333336" stroke="none" transform="translate(-600 -400) skewX(21.279577223853867) skewY(21.708721180949794)" width="37.5" x="450.0" y="133.33333333333334"></rect><rect fill="#212121" height="33.333333333333336" stroke="none" transform="translate(-600 -400) skewX(21.279577223853867) skewY(21.708721180949794)" width="37.5" x="450.0" y="166.66666666666666"></rect><rect fill="#6699ff" height="33.333333333333336" stroke="none" transform="translate(-600 -400) skewX(21.279577223853867) skewY(21.708721180949794)" width="37.5" x="450.0" y="200.0"></rect><rect fill="#212121" height="33.333333333333336" stroke="none" transform="translate(-600 -400) skewX(21.279577223853867) skewY(21.708721180949794)" width="37.5" x="450.0" y="233.33333333333334"></rect><rect fill="#6699ff" height="33.333333333333336" stroke="none" transform="translate(-600 -400) skewX(21.279577223853867) skewY(21.708721180949794)" width="37.5" x="450.0" y="266.6666666666667"></rect><rect fill="#212121" height="33.333333333333336" stroke="none" transform="translate(-600 -400) skewX(21.279577223853867) skewY(21.708721180949794)" width="37.5" x="450.0" y="300.0"></rect><rect fill="#6699ff" height="33.333333333333336" stroke="none" transform="translate(-600 -400) skewX(21.279577223853867) skewY(21.708721180949794)" width="37.5" x="450.0" y="333.3333333333333"></rect><rect fill="#212121" height="33.333333333333336" stroke="none" transform="translate(-600 -400) skewX(21.279577223853867) skewY(21.708721180949794)" width="37.5" x="450.0" y="366.6666666666667"></rect><rect fill="#6699ff" height="33.333333333333336" stroke="none" transform="translate(-600 -400) skewX(21.279577223853867) skewY(21.708721180949794)" width="37.5" x="450.0" y="400.0"></rect><rect fill="#212121" height="33.333333333333336" stroke="none" transform="translate(-600 -400) skewX(21.279577223853867) skewY(21.708721180949794)" width="37.5" x="450.0" y="433.3333333333333"></rect><rect fill="#6699ff" height="33.333333333333336" stroke="none" transform="translate(-600 -400) skewX(21.279577223853867) skewY(21.708721180949794)" width="37.5" x="450.0" y="466.6666666666667"></rect><rect fill="#212121" height="33.333333333333336" stroke="none" transform="translate(-600 -400) skewX(21.279577223853867) skewY(21.708721180949794)" width="37.5" x="487.5" y="0.0"></rect><rect fill="#6699ff" height="33.333333333333336" stroke="none" transform="translate(-600 -400) skewX(21.279577223853867) skewY(21.708721180949794)" width="37.5" x="487.5" y="33.333333333333336"></rect><rect fill="#212121" height="33.333333333333336" stroke="none" transform="translate(-600 -400) skewX(21.279577223853867) skewY(21.708721180949794)" width="37.5" x="487.5" y="66.66666666666667"></rect><rect fill="#6699ff" height="33.333333333333336" stroke="none" transform="translate(-600 -400) skewX(21.279577223853867) skewY(21.708721180949794)" width="37.5" x="487.5" y="100.0"></rect><rect fill="#212121" height="33.333333333333336" stroke="none" transform="translate(-600 -400) skewX(21.279577223853867) skewY(21.708721180949794)" width="37.5" x="487.5" y="133.33333333333334"></rect><rect fill="#6699ff" height="33.333333333333336" stroke="none" transform="translate(-600 -400) skewX(21.279577223853867) skewY(21.708721180949794)" width="37.5" x="487.5" y="166.66666666666666"></rect><rect fill="#212121" height="33.333333333333336" stroke="none" transform="translate(-600 -400) skewX(21.279577223853867) skewY(21.708721180949794)" width="37.5" x="487.5" y="200.0"></rect><rect fill="#6699ff" height="33.333333333333336" stroke="none" transform="translate(-600 -400) skewX(21.279577223853867) skewY(21.708721180949794)" width="37.5" x="487.5" y="233.33333333333334"></rect><rect fill="#212121" height="33.333333333333336" stroke="none" transform="translate(-600 -400) skewX(21.279577223853867) skewY(21.708721180949794)" width="37.5" x="487.5" y="266.6666666666667"></rect><rect fill="#6699ff" height="33.333333333333336" stroke="none" transform="translate(-600 -400) skewX(21.279577223853867) skewY(21.708721180949794)" width="37.5" x="487.5" y="300.0"></rect><rect fill="#212121" height="33.333333333333336" stroke="none" transform="translate(-600 -400) skewX(21.279577223853867) skewY(21.708721180949794)" width="37.5" x="487.5" y="333.3333333333333"></rect><rect fill="#6699ff" height="33.333333333333336" stroke="none" transform="translate(-600 -400) skewX(21.279577223853867) skewY(21.708721180949794)" width="37.5" x="487.5" y="366.6666666666667"></rect><rect fill="#212121" height="33.333333333333336" stroke="none" transform="translate(-600 -400) skewX(21.279577223853867) skewY(21.708721180949794)" width="37.5" x="487.5" y="400.0"></rect><rect fill="#6699ff" height="33.333333333333336" stroke="none" transform="translate(-600 -400) skewX(21.279577223853867) skewY(21.708721180949794)" width="37.5" x="487.5" y="433.3333333333333"></rect><rect fill="#212121" height="33.333333333333336" stroke="none" transform="translate(-600 -400) skewX(21.279577223853867) skewY(21.708721180949794)" width="37.5" x="487.5" y="466.6666666666667"></rect><rect fill="#6699ff" height="33.333333333333336" stroke="none" transform="translate(-600 -400) skewX(21.279577223853867) skewY(21.708721180949794)" width="37.5" x="525.0" y="0.0"></rect><rect fill="#212121" height="33.333333333333336" stroke="none" transform="translate(-600 -400) skewX(21.279577223853867) skewY(21.708721180949794)" width="37.5" x="525.0" y="33.333333333333336"></rect><rect fill="#6699ff" height="33.333333333333336" stroke="none" transform="translate(-600 -400) skewX(21.279577223853867) skewY(21.708721180949794)" width="37.5" x="525.0" y="66.66666666666667"></rect><rect fill="#212121" height="33.333333333333336" stroke="none" transform="translate(-600 -400) skewX(21.279577223853867) skewY(21.708721180949794)" width="37.5" x="525.0" y="100.0"></rect><rect fill="#6699ff" height="33.333333333333336" stroke="none" transform="translate(-600 -400) skewX(21.279577223853867) skewY(21.708721180949794)" width="37.5" x="525.0" y="133.33333333333334"></rect><rect fill="#212121" height="33.333333333333336" stroke="none" transform="translate(-600 -400) skewX(21.279577223853867) skewY(21.708721180949794)" width="37.5" x="525.0" y="166.66666666666666"></rect><rect fill="#6699ff" height="33.333333333333336" stroke="none" transform="translate(-600 -400) skewX(21.279577223853867) skewY(21.708721180949794)" width="37.5" x="525.0" y="200.0"></rect><rect fill="#212121" height="33.333333333333336" stroke="none" transform="translate(-600 -400) skewX(21.279577223853867) skewY(21.708721180949794)" width="37.5" x="525.0" y="233.33333333333334"></rect><rect fill="#6699ff" height="33.333333333333336" stroke="none" transform="translate(-600 -400) skewX(21.279577223853867) skewY(21.708721180949794)" width="37.5" x="525.0" y="266.6666666666667"></rect><rect fill="#212121" height="33.333333333333336" stroke="none" transform="translate(-600 -400) skewX(21.279577223853867) skewY(21.708721180949794)" width="37.5" x="525.0" y="300.0"></rect><rect fill="#6699ff" height="33.333333333333336" stroke="none" transform="translate(-600 -400) skewX(21.279577223853867) skewY(21.708721180949794)" width="37.5" x="525.0" y="333.3333333333333"></rect><rect fill="#212121" height="33.333333333333336" stroke="none" transform="translate(-600 -400) skewX(21.279577223853867) skewY(21.708721180949794)" width="37.5" x="525.0" y="366.6666666666667"></rect><rect fill="#6699ff" height="33.333333333333336" stroke="none" transform="translate(-600 -400) skewX(21.279577223853867) skewY(21.708721180949794)" width="37.5" x="525.0" y="400.0"></rect><rect fill="#212121" height="33.333333333333336" stroke="none" transform="translate(-600 -400) skewX(21.279577223853867) skewY(21.708721180949794)" width="37.5" x="525.0" y="433.3333333333333"></rect><rect fill="#6699ff" height="33.333333333333336" stroke="none" transform="translate(-600 -400) skewX(21.279577223853867) skewY(21.708721180949794)" width="37.5" x="525.0" y="466.6666666666667"></rect><rect fill="#212121" height="33.333333333333336" stroke="none" transform="translate(-600 -400) skewX(21.279577223853867) skewY(21.708721180949794)" width="37.5" x="562.5" y="0.0"></rect><rect fill="#6699ff" height="33.333333333333336" stroke="none" transform="translate(-600 -400) skewX(21.279577223853867) skewY(21.708721180949794)" width="37.5" x="562.5" y="33.333333333333336"></rect><rect fill="#212121" height="33.333333333333336" stroke="none" transform="translate(-600 -400) skewX(21.279577223853867) skewY(21.708721180949794)" width="37.5" x="562.5" y="66.66666666666667"></rect><rect fill="#6699ff" height="33.333333333333336" stroke="none" transform="translate(-600 -400) skewX(21.279577223853867) skewY(21.708721180949794)" width="37.5" x="562.5" y="100.0"></rect><rect fill="#212121" height="33.333333333333336" stroke="none" transform="translate(-600 -400) skewX(21.279577223853867) skewY(21.708721180949794)" width="37.5" x="562.5" y="133.33333333333334"></rect><rect fill="#6699ff" height="33.333333333333336" stroke="none" transform="translate(-600 -400) skewX(21.279577223853867) skewY(21.708721180949794)" width="37.5" x="562.5" y="166.66666666666666"></rect><rect fill="#212121" height="33.333333333333336" stroke="none" transform="translate(-600 -400) skewX(21.279577223853867) skewY(21.708721180949794)" width="37.5" x="562.5" y="200.0"></rect><rect fill="#6699ff" height="33.333333333333336" stroke="none" transform="translate(-600 -400) skewX(21.279577223853867) skewY(21.708721180949794)" width="37.5" x="562.5" y="233.33333333333334"></rect><rect fill="#212121" height="33.333333333333336" stroke="none" transform="translate(-600 -400) skewX(21.279577223853867) skewY(21.708721180949794)" width="37.5" x="562.5" y="266.6666666666667"></rect><rect fill="#6699ff" height="33.333333333333336" stroke="none" transform="translate(-600 -400) skewX(21.279577223853867) skewY(21.708721180949794)" width="37.5" x="562.5" y="300.0"></rect><rect fill="#212121" height="33.333333333333336" stroke="none" transform="translate(-600 -400) skewX(21.279577223853867) skewY(21.708721180949794)" width="37.5" x="562.5" y="333.3333333333333"></rect><rect fill="#6699ff" height="33.333333333333336" stroke="none" transform="translate(-600 -400) skewX(21.279577223853867) skewY(21.708721180949794)" width="37.5" x="562.5" y="366.6666666666667"></rect><rect fill="#212121" height="33.333333333333336" stroke="none" transform="translate(-600 -400) skewX(21.279577223853867) skewY(21.708721180949794)" width="37.5" x="562.5" y="400.0"></rect><rect fill="#6699ff" height="33.333333333333336" stroke="none" transform="translate(-600 -400) skewX(21.279577223853867) skewY(21.708721180949794)" width="37.5" x="562.5" y="433.3333333333333"></rect><rect fill="#212121" height="33.333333333333336" stroke="none" transform="translate(-600 -400) skewX(21.279577223853867) skewY(21.708721180949794)" width="37.5" x="562.5" y="466.6666666666667"></rect><rect fill="#6699ff" height="33.333333333333336" stroke="none" transform="translate(-600 -400) skewX(21.279577223853867) skewY(21.708721180949794)" width="37.5" x="600.0" y="0.0"></rect><rect fill="#212121" height="33.333333333333336" stroke="none" transform="translate(-600 -400) skewX(21.279577223853867) skewY(21.708721180949794)" width="37.5" x="600.0" y="33.333333333333336"></rect><rect fill="#6699ff" height="33.333333333333336" stroke="none" transform="translate(-600 -400) skewX(21.279577223853867) skewY(21.708721180949794)" width="37.5" x="600.0" y="66.66666666666667"></rect><rect fill="#212121" height="33.333333333333336" stroke="none" transform="translate(-600 -400) skewX(21.279577223853867) skewY(21.708721180949794)" width="37.5" x="600.0" y="100.0"></rect><rect fill="#6699ff" height="33.333333333333336" stroke="none" transform="translate(-600 -400) skewX(21.279577223853867) skewY(21.708721180949794)" width="37.5" x="600.0" y="133.33333333333334"></rect><rect fill="#212121" height="33.333333333333336" stroke="none" transform="translate(-600 -400) skewX(21.279577223853867) skewY(21.708721180949794)" width="37.5" x="600.0" y="166.66666666666666"></rect><rect fill="#6699ff" height="33.333333333333336" stroke="none" transform="translate(-600 -400) skewX(21.279577223853867) skewY(21.708721180949794)" width="37.5" x="600.0" y="200.0"></rect><rect fill="#212121" height="33.333333333333336" stroke="none" transform="translate(-600 -400) skewX(21.279577223853867) skewY(21.708721180949794)" width="37.5" x="600.0" y="233.33333333333334"></rect><rect fill="#6699ff" height="33.333333333333336" stroke="none" transform="translate(-600 -400) skewX(21.279577223853867) skewY(21.708721180949794)" width="37.5" x="600.0" y="266.6666666666667"></rect><rect fill="#212121" height="33.333333333333336" stroke="none" transform="translate(-600 -400) skewX(21.279577223853867) skewY(21.708721180949794)" width="37.5" x="600.0" y="300.0"></rect><rect fill="#6699ff" height="33.333333333333336" stroke="none" transform="translate(-600 -400) skewX(21.279577223853867) skewY(21.708721180949794)" width="37.5" x="600.0" y="333.3333333333333"></rect><rect fill="#212121" height="33.333333333333336" stroke="none" transform="translate(-600 -400) skewX(21.279577223853867) skewY(21.708721180949794)" width="37.5" x="600.0" y="366.6666666666667"></rect><rect fill="#6699ff" height="33.333333333333336" stroke="none" transform="translate(-600 -400) skewX(21.279577223853867) skewY(21.708721180949794)" width="37.5" x="600.0" y="400.0"></rect><rect fill="#212121" height="33.333333333333336" stroke="none" transform="translate(-600 -400) skewX(21.279577223853867) skewY(21.708721180949794)" width="37.5" x="600.0" y="433.3333333333333"></rect><rect fill="#6699ff" height="33.333333333333336" stroke="none" transform="translate(-600 -400) skewX(21.279577223853867) skewY(21.708721180949794)" width="37.5" x="600.0" y="466.6666666666667"></rect><rect fill="#212121" height="33.333333333333336" stroke="none" transform="translate(-600 -400) skewX(21.279577223853867) skewY(21.708721180949794)" width="37.5" x="637.5" y="0.0"></rect><rect fill="#6699ff" height="33.333333333333336" stroke="none" transform="translate(-600 -400) skewX(21.279577223853867) skewY(21.708721180949794)" width="37.5" x="637.5" y="33.333333333333336"></rect><rect fill="#212121" height="33.333333333333336" stroke="none" transform="translate(-600 -400) skewX(21.279577223853867) skewY(21.708721180949794)" width="37.5" x="637.5" y="66.66666666666667"></rect><rect fill="#6699ff" height="33.333333333333336" stroke="none" transform="translate(-600 -400) skewX(21.279577223853867) skewY(21.708721180949794)" width="37.5" x="637.5" y="100.0"></rect><rect fill="#212121" height="33.333333333333336" stroke="none" transform="translate(-600 -400) skewX(21.279577223853867) skewY(21.708721180949794)" width="37.5" x="637.5" y="133.33333333333334"></rect><rect fill="#6699ff" height="33.333333333333336" stroke="none" transform="translate(-600 -400) skewX(21.279577223853867) skewY(21.708721180949794)" width="37.5" x="637.5" y="166.66666666666666"></rect><rect fill="#212121" height="33.333333333333336" stroke="none" transform="translate(-600 -400) skewX(21.279577223853867) skewY(21.708721180949794)" width="37.5" x="637.5" y="200.0"></rect><rect fill="#6699ff" height="33.333333333333336" stroke="none" transform="translate(-600 -400) skewX(21.279577223853867) skewY(21.708721180949794)" width="37.5" x="637.5" y="233.33333333333334"></rect><rect fill="#212121" height="33.333333333333336" stroke="none" transform="translate(-600 -400) skewX(21.279577223853867) skewY(21.708721180949794)" width="37.5" x="637.5" y="266.6666666666667"></rect><rect fill="#6699ff" height="33.333333333333336" stroke="none" transform="translate(-600 -400) skewX(21.279577223853867) skewY(21.708721180949794)" width="37.5" x="637.5" y="300.0"></rect><rect fill="#212121" height="33.333333333333336" stroke="none" transform="translate(-600 -400) skewX(21.279577223853867) skewY(21.708721180949794)" width="37.5" x="637.5" y="333.3333333333333"></rect><rect fill="#6699ff" height="33.333333333333336" stroke="none" transform="translate(-600 -400) skewX(21.279577223853867) skewY(21.708721180949794)" width="37.5" x="637.5" y="366.6666666666667"></rect><rect fill="#212121" height="33.333333333333336" stroke="none" transform="translate(-600 -400) skewX(21.279577223853867) skewY(21.708721180949794)" width="37.5" x="637.5" y="400.0"></rect><rect fill="#6699ff" height="33.333333333333336" stroke="none" transform="translate(-600 -400) skewX(21.279577223853867) skewY(21.708721180949794)" width="37.5" x="637.5" y="433.3333333333333"></rect><rect fill="#212121" height="33.333333333333336" stroke="none" transform="translate(-600 -400) skewX(21.279577223853867) skewY(21.708721180949794)" width="37.5" x="637.5" y="466.6666666666667"></rect><rect fill="#6699ff" height="33.333333333333336" stroke="none" transform="translate(-600 -400) skewX(21.279577223853867) skewY(21.708721180949794)" width="37.5" x="675.0" y="0.0"></rect><rect fill="#212121" height="33.333333333333336" stroke="none" transform="translate(-600 -400) skewX(21.279577223853867) skewY(21.708721180949794)" width="37.5" x="675.0" y="33.333333333333336"></rect><rect fill="#6699ff" height="33.333333333333336" stroke="none" transform="translate(-600 -400) skewX(21.279577223853867) skewY(21.708721180949794)" width="37.5" x="675.0" y="66.66666666666667"></rect><rect fill="#212121" height="33.333333333333336" stroke="none" transform="translate(-600 -400) skewX(21.279577223853867) skewY(21.708721180949794)" width="37.5" x="675.0" y="100.0"></rect><rect fill="#6699ff" height="33.333333333333336" stroke="none" transform="translate(-600 -400) skewX(21.279577223853867) skewY(21.708721180949794)" width="37.5" x="675.0" y="133.33333333333334"></rect><rect fill="#212121" height="33.333333333333336" stroke="none" transform="translate(-600 -400) skewX(21.279577223853867) skewY(21.708721180949794)" width="37.5" x="675.0" y="166.66666666666666"></rect><rect fill="#6699ff" height="33.333333333333336" stroke="none" transform="translate(-600 -400) skewX(21.279577223853867) skewY(21.708721180949794)" width="37.5" x="675.0" y="200.0"></rect><rect fill="#212121" height="33.333333333333336" stroke="none" transform="translate(-600 -400) skewX(21.279577223853867) skewY(21.708721180949794)" width="37.5" x="675.0" y="233.33333333333334"></rect><rect fill="#6699ff" height="33.333333333333336" stroke="none" transform="translate(-600 -400) skewX(21.279577223853867) skewY(21.708721180949794)" width="37.5" x="675.0" y="266.6666666666667"></rect><rect fill="#212121" height="33.333333333333336" stroke="none" transform="translate(-600 -400) skewX(21.279577223853867) skewY(21.708721180949794)" width="37.5" x="675.0" y="300.0"></rect><rect fill="#6699ff" height="33.333333333333336" stroke="none" transform="translate(-600 -400) skewX(21.279577223853867) skewY(21.708721180949794)" width="37.5" x="675.0" y="333.3333333333333"></rect><rect fill="#212121" height="33.333333333333336" stroke="none" transform="translate(-600 -400) skewX(21.279577223853867) skewY(21.708721180949794)" width="37.5" x="675.0" y="366.6666666666667"></rect><rect fill="#6699ff" height="33.333333333333336" stroke="none" transform="translate(-600 -400) skewX(21.279577223853867) skewY(21.708721180949794)" width="37.5" x="675.0" y="400.0"></rect><rect fill="#212121" height="33.333333333333336" stroke="none" transform="translate(-600 -400) skewX(21.279577223853867) skewY(21.708721180949794)" width="37.5" x="675.0" y="433.3333333333333"></rect><rect fill="#6699ff" height="33.333333333333336" stroke="none" transform="translate(-600 -400) skewX(21.279577223853867) skewY(21.708721180949794)" width="37.5" x="675.0" y="466.6666666666667"></rect><rect fill="#212121" height="33.333333333333336" stroke="none" transform="translate(-600 -400) skewX(21.279577223853867) skewY(21.708721180949794)" width="37.5" x="712.5" y="0.0"></rect><rect fill="#6699ff" height="33.333333333333336" stroke="none" transform="translate(-600 -400) skewX(21.279577223853867) skewY(21.708721180949794)" width="37.5" x="712.5" y="33.333333333333336"></rect><rect fill="#212121" height="33.333333333333336" stroke="none" transform="translate(-600 -400) skewX(21.279577223853867) skewY(21.708721180949794)" width="37.5" x="712.5" y="66.66666666666667"></rect><rect fill="#6699ff" height="33.333333333333336" stroke="none" transform="translate(-600 -400) skewX(21.279577223853867) skewY(21.708721180949794)" width="37.5" x="712.5" y="100.0"></rect><rect fill="#212121" height="33.333333333333336" stroke="none" transform="translate(-600 -400) skewX(21.279577223853867) skewY(21.708721180949794)" width="37.5" x="712.5" y="133.33333333333334"></rect><rect fill="#6699ff" height="33.333333333333336" stroke="none" transform="translate(-600 -400) skewX(21.279577223853867) skewY(21.708721180949794)" width="37.5" x="712.5" y="166.66666666666666"></rect><rect fill="#212121" height="33.333333333333336" stroke="none" transform="translate(-600 -400) skewX(21.279577223853867) skewY(21.708721180949794)" width="37.5" x="712.5" y="200.0"></rect><rect fill="#6699ff" height="33.333333333333336" stroke="none" transform="translate(-600 -400) skewX(21.279577223853867) skewY(21.708721180949794)" width="37.5" x="712.5" y="233.33333333333334"></rect><rect fill="#212121" height="33.333333333333336" stroke="none" transform="translate(-600 -400) skewX(21.279577223853867) skewY(21.708721180949794)" width="37.5" x="712.5" y="266.6666666666667"></rect><rect fill="#6699ff" height="33.333333333333336" stroke="none" transform="translate(-600 -400) skewX(21.279577223853867) skewY(21.708721180949794)" width="37.5" x="712.5" y="300.0"></rect><rect fill="#212121" height="33.333333333333336" stroke="none" transform="translate(-600 -400) skewX(21.279577223853867) skewY(21.708721180949794)" width="37.5" x="712.5" y="333.3333333333333"></rect><rect fill="#6699ff" height="33.333333333333336" stroke="none" transform="translate(-600 -400) skewX(21.279577223853867) skewY(21.708721180949794)" width="37.5" x="712.5" y="366.6666666666667"></rect><rect fill="#212121" height="33.333333333333336" stroke="none" transform="translate(-600 -400) skewX(21.279577223853867) skewY(21.708721180949794)" width="37.5" x="712.5" y="400.0"></rect><rect fill="#6699ff" height="33.333333333333336" stroke="none" transform="translate(-600 -400) skewX(21.279577223853867) skewY(21.708721180949794)" width="37.5" x="712.5" y="433.3333333333333"></rect><rect fill="#212121" height="33.333333333333336" stroke="none" transform="translate(-600 -400) skewX(21.279577223853867) skewY(21.708721180949794)" width="37.5" x="712.5" y="466.6666666666667"></rect></g><g transform="translate(43.807103745741756, 18.80710374574176) scale(0.6238579250851648) rotate(0, 50.0, 50.0)"><path d="M 51.4,81.1 C 51.4,82.5 51.4,83.89999999999999 51.4,85.3 C 51.3,87.8 52.0,90.1 53.6,92.1 C 55.4,94.5 55.300000000000004,97.0 53.6,98.8 C 52.1,100.39999999999999 49.5,100.7 47.7,99.6 C 45.7,98.3 44.5,95.39999999999999 45.900000000000006,93.69999999999999 C 49.7,89.1 49.00000000000001,83.79999999999998 49.00000000000001,78.6 C 49.00000000000001,76.6 48.60000000000001,74.6 48.50000000000001,72.6 C 48.400000000000006,71.5 47.900000000000006,71.19999999999999 46.900000000000006,71.0 C 45.900000000000006,70.9 45.00000000000001,70.7 44.00000000000001,70.4 C 41.10000000000001,69.4 41.10000000000001,69.4 39.300000000000004,71.9 C 36.7,75.30000000000001 34.7,78.9 35.50000000000001,83.60000000000001 C 35.900000000000006,86.00000000000001 33.70000000000001,88.30000000000001 31.300000000000008,88.60000000000001 C 29.40000000000001,88.9 27.000000000000007,87.30000000000001 26.300000000000008,85.30000000000001 C 25.500000000000007,83.10000000000001 26.40000000000001,80.50000000000001 28.60000000000001,79.60000000000001 C 33.70000000000001,77.60000000000001 35.80000000000001,73.4 37.400000000000006,68.7 C 37.60000000000001,68.2 37.300000000000004,67.2 36.900000000000006,66.7 C 36.300000000000004,65.9 35.400000000000006,65.3 34.7,64.60000000000001 C 32.7,62.30000000000001 32.6,62.20000000000001 29.800000000000004,63.60000000000001 C 26.300000000000004,65.4 22.700000000000003,67.2 19.400000000000006,69.4 C 17.800000000000004,70.5 16.600000000000005,72.30000000000001 15.700000000000006,74.0 C 13.700000000000006,77.9 9.900000000000006,78.9 7.300000000000006,75.9 C 6.000000000000006,74.4 5.700000000000006,72.7 6.500000000000006,70.9 C 7.200000000000006,69.2 8.600000000000007,67.7 10.400000000000006,68.10000000000001 C 16.100000000000005,69.10000000000001 20.300000000000004,66.10000000000001 24.700000000000006,63.50000000000001 C 26.500000000000007,62.400000000000006 28.300000000000008,61.10000000000001 29.900000000000006,59.800000000000004 C 30.300000000000004,59.50000000000001 30.500000000000007,58.7 30.400000000000006,58.1 C 30.100000000000005,56.4 29.600000000000005,54.800000000000004 29.100000000000005,53.2 C 28.900000000000006,52.7 28.300000000000004,52.1 27.700000000000006,51.900000000000006 C 26.300000000000008,51.60000000000001 24.900000000000006,51.50000000000001 23.500000000000007,51.400000000000006 C 20.10000000000001,51.10000000000001 16.900000000000006,51.7 14.200000000000006,53.900000000000006 C 12.900000000000006,54.900000000000006 11.500000000000007,55.300000000000004 9.900000000000006,54.7 C 8.000000000000005,54.1 6.900000000000006,52.800000000000004 6.600000000000006,50.900000000000006 C 6.300000000000006,48.900000000000006 7.100000000000006,47.300000000000004 8.800000000000006,46.2 C 10.400000000000006,45.2 12.200000000000006,45.0 13.600000000000005,46.2 C 17.800000000000004,49.7 22.500000000000007,49.300000000000004 27.400000000000006,48.6 C 28.500000000000007,48.5 29.000000000000007,48.0 29.200000000000006,46.9 C 29.300000000000008,46.0 29.500000000000007,45.1 29.700000000000006,44.199999999999996 C 30.700000000000006,41.099999999999994 30.800000000000008,40.99999999999999 28.100000000000005,39.199999999999996 C 24.700000000000006,36.99999999999999 21.200000000000003,34.8 17.500000000000007,32.99999999999999 C 15.700000000000006,32.199999999999996 13.500000000000007,32.199999999999996 11.400000000000007,32.29999999999999 C 8.700000000000006,32.29999999999999 6.500000000000007,30.89999999999999 6.000000000000007,28.39999999999999 C 5.600000000000007,26.09999999999999 7.100000000000007,23.699999999999992 9.400000000000007,22.999999999999993 C 11.400000000000007,22.39999999999999 13.800000000000008,22.999999999999993 14.500000000000007,24.89999999999999 C 16.900000000000006,31.09999999999999 22.700000000000006,32.99999999999999 27.700000000000006,35.99999999999999 C 28.700000000000006,36.599999999999994 30.000000000000007,36.89999999999999 31.000000000000007,37.49999999999999 C 32.20000000000001,38.199999999999996 33.00000000000001,37.79999999999999 33.800000000000004,36.79999999999999 C 34.300000000000004,36.09999999999999 34.900000000000006,35.49999999999999 35.50000000000001,34.89999999999999 C 38.300000000000004,32.39999999999999 37.800000000000004,33.29999999999999 36.60000000000001,30.199999999999992 C 35.00000000000001,26.199999999999992 32.900000000000006,22.699999999999992 28.500000000000007,20.999999999999993 C 26.000000000000007,19.999999999999993 25.200000000000006,17.499999999999993 26.10000000000001,14.999999999999993 C 26.90000000000001,12.799999999999994 29.20000000000001,11.599999999999993 31.40000000000001,12.099999999999993 C 34.00000000000001,12.699999999999992 35.60000000000001,14.799999999999994 35.20000000000001,17.499999999999993 C 34.40000000000001,22.89999999999999 37.40000000000001,26.599999999999994 40.40000000000001,30.299999999999994 C 40.70000000000001,30.599999999999994 41.600000000000016,30.699999999999992 42.20000000000001,30.499999999999993 C 43.30000000000001,30.299999999999994 44.40000000000001,29.599999999999994 45.50000000000001,29.599999999999994 C 47.400000000000006,29.499999999999993 48.300000000000004,28.699999999999996 48.300000000000004,26.799999999999994 C 48.300000000000004,21.999999999999993 48.6,17.199999999999996 48.300000000000004,12.499999999999993 C 48.2,10.699999999999992 46.7,8.999999999999993 45.7,7.299999999999993 C 44.6,5.299999999999993 44.900000000000006,2.8999999999999924 46.5,1.3999999999999924 C 48.1,-0.10000000000000764 50.5,-0.3000000000000076 52.4,0.9999999999999923 C 54.199999999999996,2.199999999999992 55.3,5.099999999999992 53.9,6.799999999999992 C 49.8,11.799999999999992 51.1,17.599999999999994 50.9,23.19999999999999 C 50.9,23.899999999999988 51.0,24.49999999999999 51.0,25.19999999999999 C 51.1,28.69999999999999 51.2,28.899999999999988 54.6,29.599999999999987 C 54.9,29.69999999999999 55.2,29.69999999999999 55.5,29.799999999999986 C 58.9,30.899999999999988 58.8,30.899999999999988 60.9,27.999999999999986 C 63.3,24.699999999999985 65.1,21.299999999999986 64.4,16.999999999999986 C 64.0,14.399999999999986 65.80000000000001,12.299999999999986 68.4,11.899999999999986 C 70.7,11.499999999999986 72.9,12.899999999999986 73.60000000000001,15.299999999999986 C 74.30000000000001,17.499999999999986 73.4,19.999999999999986 71.00000000000001,20.899999999999984 C 65.90000000000002,22.899999999999984 64.00000000000001,27.299999999999983 62.30000000000001,31.899999999999984 C 62.10000000000001,32.29999999999998 62.40000000000001,33.19999999999998 62.80000000000001,33.59999999999999 C 63.40000000000001,34.399999999999984 64.30000000000001,34.899999999999984 64.9,35.59999999999999 C 67.10000000000001,37.999999999999986 67.2,38.19999999999999 70.2,36.79999999999999 C 73.9,34.99999999999999 77.5,32.99999999999999 80.8,30.69999999999999 C 82.5,29.49999999999999 83.5,27.29999999999999 84.7,25.49999999999999 C 86.5,22.49999999999999 90.2,21.899999999999988 92.4,24.399999999999988 C 93.80000000000001,25.899999999999988 94.0,27.69999999999999 93.2,29.499999999999986 C 92.4,31.199999999999985 91.0,32.499999999999986 89.0,32.19999999999999 C 80.8,31.29999999999999 75.5,36.79999999999999 69.5,40.69999999999999 C 69.2,40.89999999999999 69.1,41.79999999999999 69.2,42.29999999999999 C 69.4,43.29999999999999 69.9,44.29999999999999 70.10000000000001,45.29999999999999 C 70.7,48.49999999999999 70.7,48.49999999999999 73.9,48.79999999999999 C 78.2,49.19999999999999 82.30000000000001,49.09999999999999 85.9,46.19999999999999 C 87.60000000000001,44.79999999999999 90.4,45.39999999999999 91.9,46.999999999999986 C 93.5,48.69999999999999 93.5,51.399999999999984 92.0,53.19999999999999 C 90.6,54.89999999999999 87.8,55.59999999999999 86.1,54.19999999999999 C 81.8,50.59999999999999 76.89999999999999,50.999999999999986 72.0,51.89999999999999 C 71.5,51.99999999999999 70.8,52.69999999999999 70.6,53.19999999999999 C 70.1,54.69999999999999 69.6,56.39999999999999 69.3,57.999999999999986 C 69.2,58.499999999999986 69.39999999999999,59.499999999999986 69.7,59.69999999999999 C 74.10000000000001,62.499999999999986 78.5,65.29999999999998 83.0,67.69999999999999 C 84.4,68.39999999999999 86.3,68.1 88.0,67.99999999999999 C 90.6,67.89999999999999 92.8,69.19999999999999 93.4,71.69999999999999 C 94.0,73.89999999999999 92.7,76.29999999999998 90.5,77.29999999999998 C 88.4,78.19999999999999 85.8,77.49999999999999 84.8,75.29999999999998 C 82.1,68.0 74.9,66.1 68.5,63.0 C 68.1,62.8 67.1,63.1 66.7,63.5 C 65.9,64.2 65.2,65.2 64.4,65.9 C 62.300000000000004,67.80000000000001 62.2,67.80000000000001 63.400000000000006,70.4 C 64.7,73.30000000000001 65.9,76.4 68.9,78.2 C 69.80000000000001,78.8 70.9,79.2 71.80000000000001,79.7 C 73.9,80.9 74.70000000000002,83.2 73.9,85.4 C 73.2,87.5 70.80000000000001,89.0 68.9,88.7 C 66.5,88.3 64.4,86.3 64.80000000000001,83.8 C 65.60000000000001,78.5 63.000000000000014,74.6 60.10000000000001,70.8 C 59.30000000000001,69.8 58.60000000000001,69.6 57.50000000000001,70.0 C 56.50000000000001,70.4 55.400000000000006,70.8 54.300000000000004,70.9 C 52.400000000000006,71.0 51.6,71.9 51.6,73.7 C 51.5,76.2 51.4,78.7 51.4,81.1 C 51.3,81.1 51.4,81.1 51.4,81.1" fill="#ffffff" stroke="none" stroke-width="2.0"></path></g></svg></g><g transform="translate(150, 100)"><svg xmlns="http://www.w3.org/2000/svg" xmlns:ev="http://www.w3.org/2001/xml-events" xmlns:xlink="http://www.w3.org/1999/xlink" baseProfile="full" height="100" version="1.1" width="150" viewBox="0 0 150 100" preserveAspectRatio="xMidYMid meet"><defs><clipPath id="mask0"><rect height="100" width="150" x="0" y="0"></rect></clipPath></defs><g clip-path="url(#mask0)"><rect fill="#C0C0C0" height="33.333333333333336" stroke="none" width="150" x="0" y="0.0"></rect><rect fill="#000000" height="33.333333333333336" stroke="none" width="150" x="0" y="33.333333333333336"></rect><rect fill="#935316" height="33.333333333333336" stroke="none" width="150" x="0" y="66.66666666666667"></rect></g><g transform="translate(36.301207891678025, 11.301207891678025) scale(0.7739758421664394) rotate(0, 50.0, 50.0)"><path d="M 22.2,78.2 C 20.9,78.3 20.599999999999998,78.3 20.3,78.0 C 19.8,77.5 19.8,75.8 20.400000000000002,73.3 C 20.700000000000003,72.2 21.1,69.89999999999999 21.500000000000004,68.1 C 21.800000000000004,66.3 22.200000000000003,64.39999999999999 22.400000000000002,63.699999999999996 C 22.8,62.3 23.8,60.099999999999994 24.400000000000002,59.49999999999999 L 24.8,59.099999999999994 L 25.5,59.8 C 26.1,60.4 26.2,60.4 27.1,60.4 C 27.900000000000002,60.4 28.1,60.3 28.5,59.9 C 29.0,59.4 29.1,58.4 28.7,57.5 C 28.2,56.3 26.099999999999998,55.8 24.0,56.4 C 23.0,56.699999999999996 22.6,56.9 21.9,57.699999999999996 C 19.2,60.49999999999999 16.9,68.1 16.9,74.5 C 16.9,76.6 17.2,79.2 17.599999999999998,79.9 C 17.9,80.60000000000001 18.999999999999996,81.30000000000001 20.099999999999998,81.7 C 21.799999999999997,82.3 23.499999999999996,82.0 24.099999999999998,81.10000000000001 C 24.499999999999996,80.50000000000001 24.499999999999996,78.9 24.099999999999998,78.4 C 23.8,78.1 23.6,78.1 22.2,78.2" fill="#ffce00" stroke="none" stroke-width="2.0"></path><path d="M 100.0,62.5 C 100.0,62.5 99.3,62.7 98.5,63.1 C 91.4,66.2 80.7,68.5 69.3,69.4 C 60.5,70.10000000000001 45.8,69.60000000000001 36.8,68.5 C 36.0,68.4 34.699999999999996,68.2 33.9,68.1 C 32.3,67.89999999999999 25.2,66.89999999999999 24.299999999999997,66.69999999999999 C 23.699999999999996,66.6 23.699999999999996,66.69999999999999 23.499999999999996,68.69999999999999 C 23.399999999999995,69.29999999999998 23.299999999999997,69.89999999999999 23.299999999999997,70.1 C 23.199999999999996,70.3 23.699999999999996,70.6 25.499999999999996,71.3 C 34.0,74.7 45.89999999999999,77.2 57.39999999999999,77.89999999999999 C 66.8,78.39999999999999 75.69999999999999,77.6 82.69999999999999,75.6 C 90.79999999999998,73.3 96.6,69.3 99.29999999999998,63.99999999999999 C 99.7,63.2 100.0,62.5 100.0,62.5 M 65.2,71.7 C 58.1,72.5 51.6,72.2 40.2,70.5 C 33.2,69.5 33.5,69.6 33.6,69.0 C 33.7,68.4 34.2,68.1 34.7,68.2 C 35.0,68.3 35.5,68.4 35.900000000000006,68.5 C 36.300000000000004,68.6 37.2,68.8 37.900000000000006,68.9 C 39.50000000000001,69.2 44.800000000000004,69.80000000000001 48.800000000000004,70.10000000000001 C 52.50000000000001,70.4 64.30000000000001,70.4 69.4,70.2 C 71.4,70.10000000000001 73.0,70.10000000000001 72.9,70.10000000000001 C 72.8,70.6 67.7,71.5 65.2,71.7" fill="#ffce00" stroke="none" stroke-width="2.0"></path><path d="M 16.1,64.7 C 16.0,64.7 14.3,64.10000000000001 12.3,63.5 C 7.800000000000001,62.1 5.700000000000001,61.6 3.700000000000001,61.6 C 1.700000000000001,61.6 0.9000000000000012,61.9 0.30000000000000115,63.1 C -0.19999999999999885,64.1 -0.09999999999999887,64.9 0.6000000000000012,65.7 C 1.8,67.0 3.5,67.4 9.4,68.0 C 12.4,68.3 14.3,68.5 14.5,68.7 C 14.8,69.0 15.2,68.60000000000001 15.6,67.3 C 16.3,65.4 16.4,64.8 16.1,64.7" fill="#ffce00" stroke="none" stroke-width="2.0"></path><path d="M 47.1,57.4 C 46.7,57.199999999999996 46.6,56.9 46.6,56.4 C 46.6,55.6 46.2,55.4 46.0,56.1 C 45.9,56.300000000000004 45.8,56.4 45.7,56.4 C 45.6,56.4 45.1,55.5 44.6,54.5 C 43.9,53.2 43.6,52.4 43.5,51.7 C 43.4,50.7 43.4,50.7 42.4,50.2 C 41.199999999999996,49.6 41.1,49.7 41.1,51.400000000000006 C 41.1,54.00000000000001 42.2,56.60000000000001 44.2,58.800000000000004 C 45.400000000000006,60.1 47.1,61.50000000000001 48.300000000000004,62.1 C 49.00000000000001,62.5 52.00000000000001,62.5 53.800000000000004,62.1 C 55.400000000000006,61.800000000000004 57.50000000000001,60.800000000000004 58.50000000000001,60.0 C 59.20000000000001,59.4 61.60000000000001,56.1 62.300000000000004,54.7 C 63.2,53.0 63.00000000000001,51.7 61.7,50.800000000000004 L 61.1,50.0 L 60.7,50.4 C 60.2,50.9 60.0,51.9 59.900000000000006,53.4 C 59.900000000000006,54.699999999999996 59.50000000000001,55.9 59.00000000000001,56.199999999999996 C 58.50000000000001,56.49999999999999 58.50000000000001,56.4 58.400000000000006,55.8 C 58.300000000000004,54.9 57.800000000000004,55.0 57.7,56.0 C 57.6,57.0 57.400000000000006,57.3 57.0,57.2 C 56.8,57.2 56.7,57.0 56.7,56.5 C 56.800000000000004,55.8 56.400000000000006,55.3 55.900000000000006,55.5 C 55.7,55.6 55.60000000000001,55.8 55.7,56.3 C 55.800000000000004,57.099999999999994 55.5,57.4 54.6,57.4 C 53.800000000000004,57.4 53.6,57.0 54.0,56.4 C 54.5,55.8 54.5,55.6 53.9,55.3 C 53.5,55.099999999999994 53.4,55.099999999999994 53.199999999999996,55.4 C 53.099999999999994,55.6 52.99999999999999,55.9 53.099999999999994,56.199999999999996 C 53.39999999999999,57.3 52.99999999999999,57.699999999999996 52.199999999999996,57.3 C 51.599999999999994,57.0 51.4,56.199999999999996 51.8,55.8 C 52.3,55.199999999999996 51.3,54.9 50.599999999999994,55.4 C 50.3,55.699999999999996 50.3,55.699999999999996 50.599999999999994,56.3 L 50.99999999999999,57.0 L 50.599999999999994,57.3 C 49.89999999999999,57.9 49.49999999999999,57.699999999999996 49.199999999999996,56.699999999999996 C 48.699999999999996,55.099999999999994 48.3,54.8 48.4,56.099999999999994 C 48.3,57.7 48.0,58.0 47.1,57.4" fill="#ffce00" stroke="none" stroke-width="2.0"></path><path d="M 37.6,35.8 L 37.7,34.8 C 38.0,32.4 38.800000000000004,31.799999999999997 39.6,33.5 C 39.9,34.1 40.0,36.1 39.800000000000004,36.9 C 39.7,37.3 39.50000000000001,37.4 39.00000000000001,37.5 C 37.50000000000001,37.7 36.400000000000006,39.0 36.400000000000006,40.7 C 36.400000000000006,41.800000000000004 36.60000000000001,42.2 37.300000000000004,42.6 C 37.6,42.800000000000004 38.400000000000006,43.4 39.1,44.0 C 40.300000000000004,45.1 41.5,45.8 42.2,45.8 C 42.400000000000006,45.8 42.7,45.9 42.7,46.099999999999994 C 43.0,46.89999999999999 43.2,47.199999999999996 44.0,47.699999999999996 C 45.0,48.3 45.2,48.599999999999994 45.2,49.9 C 45.2,50.6 45.300000000000004,51.0 45.6,51.3 L 46.0,51.699999999999996 L 45.8,51.0 C 45.699999999999996,50.4 45.8,50.2 46.199999999999996,49.9 C 46.9,49.4 47.199999999999996,49.6 47.199999999999996,50.699999999999996 C 47.199999999999996,51.8 47.3,52.099999999999994 47.699999999999996,52.099999999999994 C 48.3,52.099999999999994 48.49999999999999,51.599999999999994 48.3,50.8 C 48.099999999999994,50.0 48.199999999999996,49.599999999999994 48.699999999999996,49.4 C 48.99999999999999,49.3 49.199999999999996,49.4 49.4,49.699999999999996 C 49.699999999999996,49.99999999999999 49.699999999999996,50.199999999999996 49.5,50.9 C 49.2,52.1 49.2,52.1 50.2,52.1 L 51.1,52.1 L 51.0,51.4 C 50.9,51.0 50.9,50.5 50.8,50.199999999999996 C 50.699999999999996,49.8 50.8,49.699999999999996 51.199999999999996,49.4 C 51.699999999999996,49.1 51.699999999999996,49.1 52.3,49.699999999999996 C 52.8,50.199999999999996 52.9,50.3 52.599999999999994,50.9 C 52.099999999999994,52.0 52.099999999999994,52.5 52.599999999999994,52.6 C 53.49999999999999,52.800000000000004 53.699999999999996,52.7 53.89999999999999,52.2 C 53.99999999999999,51.900000000000006 54.099999999999994,51.2 53.99999999999999,50.6 C 53.89999999999999,49.5 54.199999999999996,49.0 54.79999999999999,49.300000000000004 C 54.99999999999999,49.400000000000006 55.09999999999999,49.7 55.09999999999999,50.7 C 55.09999999999999,52.0 55.29999999999999,52.400000000000006 55.79999999999999,52.2 C 55.99999999999999,52.1 56.09999999999999,51.7 56.09999999999999,50.800000000000004 C 56.09999999999999,49.300000000000004 56.29999999999999,48.900000000000006 57.09999999999999,49.1 C 57.69999999999999,49.300000000000004 57.79999999999999,49.6 57.59999999999999,50.5 C 57.29999999999999,51.4 57.499999999999986,51.6 57.999999999999986,51.0 C 58.499999999999986,50.5 58.69999999999999,49.9 58.999999999999986,48.1 C 59.29999999999998,46.0 59.499999999999986,45.800000000000004 60.899999999999984,45.5 C 63.999999999999986,44.9 66.49999999999999,43.4 66.79999999999998,42.0 C 66.89999999999998,41.4 66.79999999999998,41.2 66.19999999999999,40.5 C 65.69999999999999,39.9 65.19999999999999,39.1 64.39999999999999,37.0 C 62.89999999999999,33.0 62.599999999999994,31.6 63.099999999999994,30.9 C 63.599999999999994,30.2 64.69999999999999,31.099999999999998 65.89999999999999,33.5 C 66.3,34.2 66.6,34.9 66.6,35.2 C 66.6,36.2 67.3,35.2 67.39999999999999,33.900000000000006 C 67.49999999999999,33.400000000000006 67.3,32.300000000000004 66.89999999999999,30.400000000000006 C 66.49999999999999,28.900000000000006 66.19999999999999,27.500000000000007 66.19999999999999,27.400000000000006 C 66.19999999999999,26.900000000000006 64.99999999999999,24.600000000000005 64.29999999999998,23.800000000000004 C 62.79999999999998,22.100000000000005 60.29999999999998,20.700000000000003 57.399999999999984,20.000000000000004 C 55.499999999999986,19.500000000000004 49.79999999999998,19.500000000000004 47.69999999999999,20.000000000000004 C 43.59999999999999,20.900000000000002 40.39999999999999,22.400000000000002 38.29999999999999,24.6 C 36.79999999999999,26.1 36.09999999999999,27.400000000000002 35.89999999999999,29.0 C 35.599999999999994,30.8 36.099999999999994,32.9 37.19999999999999,34.7 L 37.6,35.8 M 57.0,35.4 C 59.6,34.9 61.7,36.699999999999996 61.9,39.4 C 62.0,40.9 61.6,41.9 60.5,42.6 C 59.7,43.1 58.4,43.300000000000004 57.5,43.0 C 56.5,42.7 54.9,41.0 54.5,39.8 C 53.8,37.5 54.7,35.8 57.0,35.4 M 51.5,42.1 C 51.8,42.6 52.2,42.6 52.5,42.1 C 52.7,41.800000000000004 52.9,41.800000000000004 53.1,41.800000000000004 C 53.5,42.00000000000001 54.4,44.00000000000001 54.7,45.400000000000006 C 54.900000000000006,46.400000000000006 54.900000000000006,46.60000000000001 54.6,46.900000000000006 C 54.1,47.50000000000001 53.300000000000004,47.300000000000004 52.4,46.50000000000001 L 52.0,46.10000000000001 L 52.0,46.70000000000001 C 52.0,47.10000000000001 51.9,47.30000000000001 51.7,47.30000000000001 C 51.6,47.30000000000001 51.2,47.30000000000001 50.900000000000006,47.40000000000001 C 49.10000000000001,47.70000000000001 48.7,45.90000000000001 49.900000000000006,43.40000000000001 C 50.7,41.8 51.1,41.5 51.5,42.1 M 42.2,37.0 C 42.900000000000006,36.2 43.6,35.8 44.900000000000006,35.5 C 46.7,35.0 48.300000000000004,35.3 49.300000000000004,36.3 C 49.900000000000006,36.8 49.900000000000006,36.9 49.900000000000006,38.099999999999994 C 49.900000000000006,40.099999999999994 48.900000000000006,41.49999999999999 46.900000000000006,42.099999999999994 C 44.300000000000004,42.89999999999999 41.800000000000004,41.89999999999999 41.300000000000004,39.8 C 41.1,38.8 41.3,38.0 42.2,37.0" fill="#ffce00" stroke="none" stroke-width="2.0"></path></g></svg></g></svg>