<?xml version="1.0" encoding="UTF-8"?>
<svg xmlns="http://www.w3.org/2000/svg" xmlns:xlink="http://www.w3.org/1999/xlink" width="100px" height="97px" viewBox="0 0 100 97" version="1.1">
<g id="surface1">
<path style=" stroke:none;fill-rule:nonzero;fill:rgb(0.392157%,0.392157%,0.392157%);fill-opacity:1;" d="M 60.632812 25.835938 C 60.632812 25.835938 59.9375 28.816406 62.722656 30.335938 C 66.328125 32.300781 66.328125 32.300781 66.328125 32.300781 C 66.328125 32.300781 61.328125 31.984375 59.242188 30.210938 C 57.910156 29.066406 58.101562 26.722656 58.671875 26.46875 C 59.304688 26.152344 60.632812 25.835938 60.632812 25.835938 Z M 60.632812 25.835938 "/>
<path style=" stroke:none;fill-rule:nonzero;fill:rgb(0.392157%,0.392157%,0.392157%);fill-opacity:1;" d="M 70.378906 27.992188 C 70.378906 27.992188 75.441406 28.117188 75.695312 28.75 C 75.949219 29.386719 75.125 29.890625 73.417969 30.335938 C 71.644531 30.714844 70.0625 30.019531 69.429688 31.160156 C 68.796875 32.238281 68.101562 33 68.101562 33 C 68.101562 33 62.53125 34.078125 61.773438 34.011719 C 61.011719 33.949219 66.011719 34.078125 68.292969 33.761719 C 70.632812 33.378906 69.875 33.824219 70.507812 34.265625 C 70.695312 34.394531 72.152344 35.027344 72.152344 35.027344 C 72.152344 35.027344 70.757812 34.011719 70.824219 33 C 70.886719 31.984375 71.707031 30.96875 72.976562 31.289062 C 74.175781 31.605469 74.492188 32.429688 74.492188 33.0625 C 74.492188 33.570312 74.175781 34.457031 73.480469 34.710938 C 72.785156 34.964844 72.46875 34.710938 72.46875 34.710938 C 72.46875 34.710938 72.976562 35.726562 73.734375 35.15625 C 74.492188 34.585938 74.875 33.761719 74.875 33.761719 C 74.875 33.761719 74.9375 33.949219 75.632812 33.761719 C 76.328125 33.570312 76.835938 33.125 76.835938 33.125 L 77.46875 33.1875 C 77.46875 33.1875 76.074219 32.492188 76.265625 31.605469 C 76.390625 30.78125 76.835938 30.589844 76.835938 30.589844 C 76.835938 30.589844 77.722656 29.765625 78.859375 29.386719 C 79.9375 29.003906 81.074219 29.066406 81.074219 29.066406 L 83.609375 29.066406 C 83.609375 29.066406 82.40625 29.257812 81.457031 28.625 C 80.695312 28.117188 78.859375 27.925781 77.660156 28.75 C 76.457031 29.574219 76.898438 29.066406 76.898438 29.066406 C 76.898438 29.066406 77.339844 27.863281 76.011719 27.355469 C 74.492188 26.785156 72.40625 26.660156 70.378906 27.992188 Z M 70.378906 27.992188 "/>
<path style=" stroke:none;fill-rule:nonzero;fill:rgb(0.392157%,0.392157%,0.392157%);fill-opacity:1;" d="M 72.53125 31.667969 C 72.53125 31.667969 72.59375 33.949219 72.53125 34.140625 C 72.46875 34.332031 74.492188 32.492188 72.53125 31.667969 Z M 72.53125 31.667969 "/>
<path style=" stroke:none;fill-rule:nonzero;fill:rgb(0.392157%,0.392157%,0.392157%);fill-opacity:1;" d="M 78.734375 34.078125 C 78.734375 34.078125 76.390625 33.824219 75.0625 34.710938 C 73.671875 35.597656 72.976562 35.597656 72.976562 35.597656 C 72.976562 35.597656 70.191406 35.28125 68.226562 34.773438 C 66.265625 34.332031 63.039062 36.421875 62.976562 39.210938 C 62.910156 42 63.226562 43.015625 63.609375 44.09375 C 64.050781 45.425781 66.011719 46.691406 69.429688 45.234375 C 72.847656 43.777344 72.847656 43.777344 72.847656 43.777344 C 72.847656 43.777344 66.519531 45.488281 65.632812 43.332031 C 64.808594 41.175781 65 38.132812 66.328125 36.867188 C 67.59375 35.597656 71.582031 37.054688 72.910156 37.246094 C 74.242188 37.4375 74.367188 36.929688 75.0625 36.042969 C 75.757812 35.28125 77.023438 34.710938 78.734375 34.078125 Z M 78.734375 34.078125 "/>
<path style=" stroke:none;fill-rule:nonzero;fill:rgb(0.392157%,0.392157%,0.392157%);fill-opacity:1;" d="M 73.417969 22.09375 C 73.417969 22.09375 76.390625 23.109375 77.847656 23.804688 C 79.367188 24.441406 81.707031 26.597656 81.960938 26.976562 C 82.214844 27.355469 81.265625 27.484375 80.125 26.660156 C 79.050781 25.835938 78.417969 25.199219 78.734375 25.898438 C 79.050781 26.53125 80.191406 27.738281 82.339844 27.925781 C 84.558594 28.117188 85.441406 28.433594 85.441406 28.433594 C 85.441406 28.433594 84.9375 29.386719 83.925781 29.449219 C 82.976562 29.511719 85.253906 29.320312 86.203125 29.066406 C 87.089844 28.816406 89.113281 30.144531 89.746094 30.464844 C 90.378906 30.78125 87.910156 28.179688 86.011719 27.863281 C 84.050781 27.546875 83.226562 27.800781 82.847656 26.976562 C 81.835938 24.757812 77.339844 22.539062 74.113281 21.523438 C 73.355469 21.269531 72.910156 20.699219 72.910156 20.699219 C 72.910156 20.699219 71.707031 21.902344 73.417969 22.09375 Z M 73.417969 22.09375 "/>
<path style=" stroke:none;fill-rule:nonzero;fill:rgb(0.392157%,0.392157%,0.392157%);fill-opacity:1;" d="M 87.339844 29.828125 C 87.339844 29.828125 88.039062 30.210938 89.746094 29.828125 C 91.457031 29.449219 92.339844 29.066406 94.175781 29.828125 C 96.011719 30.589844 97.152344 32.046875 97.976562 33.253906 C 99.113281 34.902344 98.796875 35.027344 98.796875 35.027344 L 98.164062 35.34375 C 98.164062 35.34375 94.621094 30.273438 92.46875 30.527344 C 90.316406 30.78125 89.808594 31.222656 88.859375 31.730469 C 87.910156 32.238281 86.328125 33 86.960938 32.175781 C 87.59375 31.351562 89.113281 30.714844 89.113281 30.714844 C 89.113281 30.714844 86.960938 31.539062 87.339844 29.828125 Z M 87.339844 29.828125 "/>
<path style=" stroke:none;fill-rule:nonzero;fill:rgb(0.392157%,0.392157%,0.392157%);fill-opacity:1;" d="M 87.976562 32.9375 C 87.976562 32.9375 89.492188 35.40625 90.695312 35.34375 C 91.898438 35.21875 94.304688 33.632812 95.757812 34.203125 C 97.214844 34.773438 98.164062 35.34375 98.164062 35.34375 C 98.164062 35.34375 99.683594 33.632812 99.9375 35.34375 C 100.191406 37.054688 99.113281 37.375 98.859375 37.878906 C 98.609375 38.386719 99.367188 36.867188 96.835938 38.132812 C 96.074219 38.515625 96.644531 40.542969 96.644531 40.542969 C 96.644531 40.542969 95.886719 40.796875 94.875 39.464844 C 93.925781 38.132812 93.101562 36.867188 91.773438 36.738281 C 90.378906 36.550781 88.355469 34.648438 87.976562 32.9375 Z M 87.976562 32.9375 "/>
<path style=" stroke:none;fill-rule:nonzero;fill:rgb(0.392157%,0.392157%,0.392157%);fill-opacity:1;" d="M 99.9375 35.28125 C 99.9375 35.28125 98.417969 38.132812 97.660156 38.894531 C 96.898438 39.59375 96.074219 39.277344 96.074219 39.277344 L 96.011719 40.417969 C 96.011719 40.417969 97.214844 40.289062 97.023438 41.875 C 96.898438 42.953125 96.519531 43.144531 95.316406 43.902344 C 94.175781 44.601562 92.214844 45.171875 91.644531 45.996094 C 91.074219 46.820312 89.367188 48.152344 88.039062 48.785156 C 86.644531 49.417969 83.417969 50.308594 82.339844 50.433594 C 81.265625 50.558594 83.417969 50.308594 83.417969 50.308594 C 83.417969 50.308594 79.304688 52.335938 78.417969 53.792969 C 77.53125 55.316406 76.707031 56.457031 76.582031 56.648438 C 76.457031 56.835938 77.40625 55.632812 77.847656 56.203125 C 78.292969 56.773438 78.292969 56.773438 78.292969 56.773438 L 80.570312 55.570312 L 80 59.121094 L 81.203125 59.121094 L 80.632812 60.957031 L 82.277344 60.957031 L 81.773438 62.988281 C 81.773438 62.988281 82.277344 62.542969 82.660156 62.542969 C 83.039062 62.542969 83.039062 64.191406 82.847656 64.824219 C 82.660156 65.460938 83.164062 65.332031 83.164062 65.332031 C 83.164062 65.332031 83.988281 65.140625 84.175781 65.964844 C 84.367188 66.789062 84.113281 68.375 84.113281 68.375 C 84.113281 68.375 84.875 67.359375 85.0625 66.980469 C 85.757812 65.523438 86.390625 62.859375 87.023438 60.832031 C 87.53125 59.308594 88.671875 54.933594 88.671875 54.933594 C 88.671875 54.933594 88.226562 51.257812 87.214844 49.925781 C 86.644531 49.164062 90.125 48.40625 90.757812 48.339844 C 91.390625 48.277344 92.152344 48.152344 92.152344 48.152344 L 92.785156 47.769531 L 92.785156 46.3125 L 93.925781 45.996094 C 93.925781 45.996094 97.40625 44.472656 97.785156 45.550781 C 98.164062 46.628906 98.355469 46.25 98.355469 46.25 C 98.355469 46.25 98.925781 46.058594 99.175781 44.855469 C 99.429688 43.714844 99.175781 43.394531 99.175781 43.394531 C 99.175781 43.394531 99.304688 45.363281 98.734375 44.980469 C 98.164062 44.601562 97.785156 43.902344 97.785156 43.902344 C 97.785156 43.902344 97.660156 43.144531 97.722656 42.128906 C 97.785156 41.304688 97.910156 39.972656 97.910156 39.972656 C 97.910156 39.972656 100.507812 36.105469 99.9375 35.28125 Z M 99.9375 35.28125 "/>
<path style=" stroke:none;fill-rule:nonzero;fill:rgb(0.392157%,0.392157%,0.392157%);fill-opacity:1;" d="M 86.835938 31.097656 C 86.835938 31.097656 85.316406 30.144531 83.542969 32.238281 C 81.773438 34.332031 82.53125 34.011719 82.53125 34.011719 L 86.328125 31.605469 C 86.328125 31.605469 85.949219 31.539062 85.253906 32.429688 C 84.558594 33.316406 84.621094 33.632812 83.542969 34.394531 C 82.53125 35.21875 82.53125 34.964844 81.265625 34.902344 C 79.9375 34.835938 77.277344 38.769531 77.722656 39.910156 C 78.164062 41.050781 78.542969 43.015625 81.582031 43.015625 C 84.621094 43.015625 83.542969 43.015625 83.542969 43.015625 C 83.542969 43.015625 81.265625 43.96875 79.808594 43.648438 C 78.988281 43.460938 78.671875 42.382812 78.671875 42.382812 C 78.671875 42.382812 78.859375 43.269531 77.660156 44.917969 C 76.390625 46.566406 76.390625 47.011719 76.265625 47.898438 C 76.140625 48.785156 76.203125 52.527344 79.113281 50.941406 C 82.023438 49.355469 82.53125 48.40625 82.53125 48.40625 C 82.53125 48.40625 81.519531 51.003906 79.492188 51.636719 C 77.46875 52.273438 76.582031 53.03125 75.507812 56.140625 C 74.429688 59.246094 73.796875 61.84375 73.796875 61.84375 C 73.796875 61.84375 73.734375 65.269531 74.304688 67.613281 C 74.875 69.960938 73.226562 64.886719 73.796875 60.324219 C 74.367188 55.757812 74.746094 54.679688 74.746094 54.679688 L 76.203125 51.195312 C 76.203125 51.195312 74.683594 49.609375 75.378906 47.707031 C 76.011719 45.742188 76.390625 45.171875 76.644531 44.347656 C 76.835938 43.777344 76.960938 41.9375 76.960938 41.9375 C 76.960938 41.9375 75.441406 39.527344 76.644531 38.132812 C 77.847656 36.675781 77.40625 35.851562 77.40625 35.851562 C 77.40625 35.851562 78.796875 34.457031 80.253906 33.761719 C 81.707031 33.0625 81.265625 32.113281 82.46875 31.097656 C 83.671875 30.082031 86.265625 29.890625 86.835938 31.097656 Z M 86.835938 31.097656 "/>
<path style=" stroke:none;fill-rule:nonzero;fill:rgb(0.392157%,0.392157%,0.392157%);fill-opacity:1;" d="M 98.480469 38.515625 C 98.480469 38.515625 99.113281 40.796875 99.175781 41.496094 C 99.242188 42.191406 99.808594 45.804688 98.796875 45.679688 C 97.785156 45.550781 98.417969 44.980469 98.417969 44.980469 C 98.417969 44.980469 98.671875 45.171875 98.796875 44.09375 C 98.859375 43.015625 97.722656 39.59375 97.722656 39.59375 Z M 98.480469 38.515625 "/>
<path style=" stroke:none;fill-rule:nonzero;fill:rgb(0.392157%,0.392157%,0.392157%);fill-opacity:1;" d="M 91.265625 47.769531 C 91.265625 47.769531 89.175781 54.109375 88.292969 55.824219 C 87.40625 57.535156 87.976562 57.027344 87.976562 57.027344 C 87.976562 57.027344 89.558594 54.554688 90.886719 52.652344 C 92.214844 50.75 93.925781 48.910156 93.925781 48.910156 C 93.925781 48.910156 94.746094 51.257812 94.683594 53.160156 C 94.621094 55.0625 94.683594 54.492188 94.683594 54.492188 C 94.683594 54.492188 95.441406 53.984375 96.140625 51.765625 C 96.835938 49.546875 97.40625 47.011719 97.40625 47.011719 L 96.898438 47.011719 C 96.898438 47.011719 95.441406 52.398438 95.316406 52.714844 C 95.191406 53.03125 94.683594 49.230469 94.242188 48.089844 C 93.859375 47.136719 93.164062 47.074219 93.164062 47.074219 L 92.59375 47.265625 C 92.660156 47.328125 91.707031 46.3125 91.265625 47.769531 Z M 91.265625 47.769531 "/>
<path style=" stroke:none;fill-rule:nonzero;fill:rgb(0.392157%,0.392157%,0.392157%);fill-opacity:1;" d="M 92.976562 47.453125 C 92.46875 47.453125 92.152344 47.136719 92.152344 47.136719 L 92.339844 46.945312 C 92.339844 46.945312 92.660156 47.265625 93.039062 47.199219 C 93.292969 47.199219 93.609375 47.011719 93.859375 46.628906 C 94.242188 46.121094 93.859375 45.488281 93.859375 45.488281 L 94.113281 45.363281 C 94.113281 45.425781 94.558594 46.1875 94.113281 46.820312 C 93.796875 47.265625 93.480469 47.453125 93.101562 47.515625 C 93.039062 47.453125 93.039062 47.453125 92.976562 47.453125 Z M 92.976562 47.453125 "/>
<path style=" stroke:none;fill-rule:nonzero;fill:rgb(0.392157%,0.392157%,0.392157%);fill-opacity:1;" d="M 93.988281 47.453125 L 93.671875 47.453125 L 93.671875 47.136719 L 93.988281 47.136719 C 94.429688 47.136719 94.875 46.058594 95 45.363281 L 95.316406 45.425781 C 95.253906 45.617188 94.808594 47.453125 93.988281 47.453125 Z M 93.988281 47.453125 "/>
<path style=" stroke:none;fill-rule:nonzero;fill:rgb(0.392157%,0.392157%,0.392157%);fill-opacity:1;" d="M 94.367188 47.328125 L 94.304688 47.011719 L 95.0625 46.820312 C 95.632812 46.691406 96.265625 45.234375 96.457031 44.726562 L 96.707031 44.855469 C 96.644531 45.042969 95.949219 46.945312 95.125 47.136719 Z M 94.367188 47.328125 "/>
<path style=" stroke:none;fill-rule:nonzero;fill:rgb(0.392157%,0.392157%,0.392157%);fill-opacity:1;" d="M 95.507812 46.945312 L 95.441406 46.628906 L 96.582031 46.441406 C 97.59375 46.3125 97.339844 44.792969 97.339844 44.792969 L 97.660156 44.726562 C 97.722656 45.363281 97.660156 46.566406 96.644531 46.691406 Z M 95.507812 46.945312 "/>
<path style=" stroke:none;fill-rule:nonzero;fill:rgb(0.392157%,0.392157%,0.392157%);fill-opacity:1;" d="M 97.53125 47.453125 C 97.46875 47.453125 97.40625 47.453125 97.40625 47.390625 C 96.960938 47.136719 96.074219 46.820312 96.011719 46.820312 L 96.140625 46.566406 C 96.203125 46.566406 97.089844 46.945312 97.53125 47.199219 C 97.53125 47.199219 97.53125 47.199219 97.59375 47.199219 C 97.847656 47.074219 98.292969 46.1875 98.480469 45.617188 L 98.734375 45.742188 C 98.671875 45.996094 98.164062 47.328125 97.660156 47.515625 C 97.660156 47.453125 97.59375 47.453125 97.53125 47.453125 Z M 97.53125 47.453125 "/>
<path style=" stroke:none;fill-rule:nonzero;fill:rgb(0.392157%,0.392157%,0.392157%);fill-opacity:1;" d="M 77.910156 55.695312 C 77.910156 55.695312 84.621094 67.359375 84.367188 68.058594 C 84.113281 68.757812 83.925781 69.007812 83.925781 69.007812 C 83.925781 69.007812 76.898438 56.394531 77.53125 55.695312 C 78.101562 55 77.910156 55.695312 77.910156 55.695312 Z M 77.910156 55.695312 "/>
<path style=" stroke:none;fill-rule:nonzero;fill:rgb(0.392157%,0.392157%,0.392157%);fill-opacity:1;" d="M 69.558594 48.785156 C 69.558594 48.785156 68.480469 51.003906 67.277344 52.652344 C 66.140625 54.363281 63.164062 56.648438 65.125 60.515625 C 67.089844 64.316406 66.074219 62.164062 66.074219 62.164062 C 66.074219 62.164062 65 60.070312 65.886719 57.851562 C 66.773438 55.632812 66.644531 56.011719 68.609375 55 C 69.050781 54.746094 69.367188 54.554688 69.683594 54.429688 C 70.695312 53.855469 70.886719 53.539062 71.140625 52.398438 C 71.457031 50.941406 71.140625 51.195312 71.140625 51.195312 C 71.140625 51.195312 71.328125 52.84375 69.050781 54.046875 C 66.773438 55.253906 67.46875 54.808594 67.46875 54.808594 C 67.46875 54.808594 69.050781 53.984375 69.683594 52.589844 C 70.316406 51.195312 70.316406 50.433594 70.316406 50.433594 C 70.316406 50.433594 68.734375 52.90625 67.785156 53.414062 C 66.898438 53.921875 67.660156 53.03125 67.785156 52.90625 C 68.480469 52.019531 68.988281 50.625 69.558594 48.785156 Z M 69.558594 48.785156 "/>
<path style=" stroke:none;fill-rule:nonzero;fill:rgb(0.392157%,0.392157%,0.392157%);fill-opacity:1;" d="M 82.277344 75.222656 C 81.835938 75.222656 81.519531 75.03125 81.074219 74.714844 C 80.632812 74.460938 80.507812 74.019531 80.316406 73.636719 C 80.0625 73.066406 79.808594 72.496094 78.988281 71.988281 C 77.40625 71.039062 76.707031 69.644531 76.707031 69.578125 L 75.191406 66.21875 L 74.9375 63.9375 L 75.0625 63.113281 C 74.9375 62.988281 74.875 62.667969 75.125 60.769531 C 75.441406 57.851562 77.53125 55.378906 77.660156 55.253906 L 77.976562 55.503906 C 77.976562 55.503906 75.886719 57.976562 75.570312 60.769531 C 75.441406 61.84375 75.441406 62.351562 75.441406 62.605469 C 75.507812 62.605469 76.835938 63.238281 76.707031 64.316406 C 76.644531 64.824219 76.644531 65.460938 76.644531 65.902344 C 76.773438 65.710938 76.960938 65.585938 77.152344 65.648438 C 77.46875 65.710938 77.59375 66.15625 77.660156 66.472656 C 77.785156 67.234375 77.847656 67.804688 77.910156 68.25 C 78.039062 68.121094 78.164062 67.996094 78.355469 67.933594 C 78.609375 67.867188 78.925781 67.933594 79.175781 68.121094 C 79.808594 68.628906 79.808594 69.390625 79.683594 70.023438 C 79.808594 69.960938 79.875 69.898438 80 69.832031 C 80.125 69.769531 80.378906 69.832031 80.570312 70.023438 L 81.265625 70.722656 C 81.457031 70.785156 82.214844 70.976562 82.847656 70.085938 C 83.671875 68.945312 85.824219 65.839844 85.824219 65.777344 L 86.203125 65.269531 L 86.203125 65.902344 C 86.203125 66.15625 86.203125 72.179688 84.429688 73.890625 C 83.480469 74.90625 82.847656 75.222656 82.277344 75.222656 Z M 77.59375 70.277344 C 77.910156 70.722656 78.480469 71.292969 79.175781 71.734375 C 80.125 72.304688 80.441406 73.003906 80.695312 73.574219 C 80.886719 73.953125 81.011719 74.273438 81.328125 74.523438 C 82.089844 75.03125 82.59375 75.347656 84.242188 73.699219 C 85.507812 72.433594 85.824219 68.25 85.824219 66.601562 C 85.191406 67.550781 83.859375 69.515625 83.226562 70.339844 C 82.277344 71.609375 81.140625 71.101562 81.140625 71.101562 L 81.074219 71.039062 L 80.378906 70.339844 C 80.253906 70.214844 80.191406 70.214844 80.125 70.214844 C 79.808594 70.277344 79.492188 70.976562 79.304688 71.417969 L 78.925781 71.292969 L 79.113281 70.59375 C 79.113281 70.53125 79.683594 69.074219 78.925781 68.4375 C 78.734375 68.3125 78.609375 68.25 78.480469 68.3125 C 78.164062 68.375 77.976562 68.882812 77.976562 69.074219 Z M 75.632812 66.15625 L 77.089844 69.453125 C 77.089844 69.453125 77.214844 69.769531 77.53125 70.214844 L 77.53125 69.007812 C 77.53125 69.007812 77.53125 68.121094 77.214844 66.601562 C 77.152344 66.09375 77.023438 66.09375 77.023438 66.09375 C 76.960938 66.09375 76.707031 66.347656 76.582031 66.664062 L 76.265625 67.296875 L 76.203125 66.601562 C 76.203125 66.535156 76.074219 65.332031 76.203125 64.382812 C 76.265625 63.8125 75.695312 63.367188 75.378906 63.175781 L 75.253906 64 Z M 75.632812 66.15625 "/>
<path style=" stroke:none;fill-rule:nonzero;fill:rgb(0.392157%,0.392157%,0.392157%);fill-opacity:1;" d="M 75.441406 61.464844 C 75.441406 61.464844 74.304688 64.0625 75 66.855469 C 75.632812 69.644531 75.886719 70.339844 75.886719 70.339844 L 75.378906 69.644531 C 75.378906 69.644531 75.378906 72.496094 76.707031 74.460938 C 78.039062 76.425781 79.175781 76.679688 79.175781 76.679688 C 81.898438 77.632812 81.265625 76.871094 83.292969 77.316406 C 84.9375 77.632812 85.507812 77.695312 86.074219 77.566406 C 86.644531 77.441406 88.164062 76.996094 88.164062 76.996094 C 88.164062 76.996094 89.050781 76.679688 88.859375 76.238281 C 88.671875 75.792969 88.164062 75.539062 88.164062 75.539062 C 88.164062 75.539062 87.53125 76.171875 86.390625 76.109375 C 85.316406 76.046875 84.113281 76.046875 84.113281 76.046875 L 86.390625 75.792969 C 86.390625 75.792969 88.039062 76.109375 88.417969 75.285156 C 88.859375 74.460938 88.417969 73.953125 88.417969 73.953125 C 88.417969 73.953125 88.226562 74.90625 87.277344 74.96875 C 86.328125 75.03125 84.492188 74.714844 84.492188 74.714844 L 83.226562 74.777344 C 83.226562 74.777344 83.101562 75.476562 81.898438 74.96875 C 80.695312 74.460938 80.191406 72.941406 80.191406 72.941406 L 79.492188 71.417969 L 77.785156 70.277344 L 76.074219 67.742188 L 75.441406 66.285156 C 75.253906 66.21875 75.316406 62.226562 75.441406 61.464844 Z M 75.441406 61.464844 "/>
<path style=" stroke:none;fill-rule:nonzero;fill:rgb(0.392157%,0.392157%,0.392157%);fill-opacity:1;" d="M 73.925781 69.898438 C 73.925781 69.898438 75.125 73.511719 76.582031 75.222656 C 78.039062 76.933594 78.101562 76.933594 78.734375 77.316406 C 79.746094 77.886719 81.140625 78.773438 83.226562 78.710938 C 85.316406 78.644531 86.835938 78.328125 86.835938 78.328125 C 86.835938 78.328125 88.039062 78.328125 88.039062 77.695312 C 88.039062 77.0625 88.039062 76.679688 88.039062 76.679688 L 88.734375 76.300781 C 88.734375 76.300781 89.683594 78.835938 88.039062 79.027344 C 86.328125 79.214844 84.683594 79.660156 83.542969 79.597656 C 82.660156 79.597656 80.253906 79.152344 80.253906 79.152344 C 80.253906 79.152344 76.707031 78.519531 74.875 73.511719 C 74.429688 72.433594 74.113281 71.292969 73.925781 69.898438 Z M 73.925781 69.898438 "/>
<path style=" stroke:none;fill-rule:nonzero;fill:rgb(0.392157%,0.392157%,0.392157%);fill-opacity:1;" d="M 85.886719 70.152344 C 85.886719 70.085938 86.582031 70.46875 87.785156 69.578125 C 88.988281 68.691406 89.492188 67.742188 90.316406 66.535156 C 91.074219 65.394531 91.328125 65.078125 91.328125 65.078125 C 91.328125 65.078125 91.707031 65.839844 91.328125 68.3125 C 90.949219 70.785156 89.242188 72.6875 88.734375 73.066406 C 88.292969 73.382812 90.253906 71.164062 90.695312 69.074219 C 91.140625 66.980469 90.949219 66.601562 90.949219 66.601562 C 90.949219 66.601562 89.492188 69.074219 87.785156 70.277344 C 86.519531 71.164062 85.757812 70.53125 85.757812 70.53125 Z M 85.886719 70.152344 "/>
<path style=" stroke:none;fill-rule:nonzero;fill:rgb(0.392157%,0.392157%,0.392157%);fill-opacity:1;" d="M 85.125 71.925781 C 85.125 71.925781 85.886719 71.800781 85.757812 72.75 C 85.632812 73.699219 83.542969 74.714844 83.542969 74.714844 C 83.542969 74.714844 83.101562 75.222656 83.859375 75.222656 C 84.621094 75.222656 85 74.460938 85.507812 74.019531 C 85.949219 73.574219 86.265625 72.625 86.265625 72.625 C 86.265625 72.625 86.773438 70.785156 85.125 71.925781 Z M 85.125 71.925781 "/>
<path style=" stroke:none;fill-rule:nonzero;fill:rgb(0.392157%,0.392157%,0.392157%);fill-opacity:1;" d="M 88.988281 71.863281 C 88.988281 71.863281 89.175781 73.511719 88.292969 73.890625 C 87.40625 74.273438 88.988281 71.863281 88.988281 71.863281 Z M 88.988281 71.863281 "/>
<path style=" stroke:none;fill-rule:nonzero;fill:rgb(0.392157%,0.392157%,0.392157%);fill-opacity:1;" d="M 86.074219 72.304688 C 86.074219 72.304688 87.46875 71.988281 86.835938 72.875 C 86.203125 73.828125 86.898438 73.574219 86.203125 73.828125 C 85.507812 74.019531 85 73.828125 85 73.828125 C 85 73.828125 85.632812 74.84375 86.328125 74.273438 C 87.023438 73.699219 87.40625 72.875 87.40625 72.875 L 87.40625 72.242188 C 87.40625 72.242188 87.089844 70.785156 86.074219 72.304688 Z M 86.074219 72.304688 "/>
<path style=" stroke:none;fill-rule:nonzero;fill:rgb(0.392157%,0.392157%,0.392157%);fill-opacity:1;" d="M 87.785156 71.546875 C 88.417969 71.355469 88.542969 72.304688 88.292969 73.382812 C 88.039062 74.398438 87.976562 74.523438 87.40625 74.398438 C 86.835938 74.273438 86.457031 74.652344 86.328125 74.207031 C 86.203125 73.765625 87.089844 74.523438 87.40625 73.890625 C 87.722656 73.195312 87.785156 72.875 87.785156 72.875 C 87.785156 72.875 87.976562 71.609375 87.40625 72.242188 C 86.835938 72.875 86.582031 71.988281 87.785156 71.546875 Z M 87.785156 71.546875 "/>
<path style=" stroke:none;fill-rule:nonzero;fill:rgb(0.392157%,0.392157%,0.392157%);fill-opacity:1;" d="M 88.292969 38.957031 C 88.292969 39.210938 87.976562 39.464844 87.53125 39.464844 C 87.152344 39.464844 86.773438 39.277344 86.773438 38.957031 C 86.773438 38.703125 87.089844 38.453125 87.53125 38.453125 C 87.976562 38.515625 88.292969 38.703125 88.292969 38.957031 Z M 88.292969 38.957031 "/>
<path style=" stroke:none;fill-rule:nonzero;fill:rgb(0.392157%,0.392157%,0.392157%);fill-opacity:1;" d="M 89.558594 44.285156 C 89.558594 44.539062 89.304688 44.792969 88.988281 44.792969 C 88.671875 44.792969 88.417969 44.539062 88.417969 44.285156 C 88.417969 44.03125 88.671875 43.777344 88.988281 43.777344 C 89.304688 43.777344 89.558594 43.96875 89.558594 44.285156 Z M 89.558594 44.285156 "/>
<path style=" stroke:none;fill-rule:nonzero;fill:rgb(0.392157%,0.392157%,0.392157%);fill-opacity:1;" d="M 91.457031 40.988281 C 91.457031 41.242188 91.265625 41.496094 90.949219 41.496094 C 90.695312 41.496094 90.441406 41.304688 90.441406 40.988281 C 90.441406 40.734375 90.632812 40.480469 90.949219 40.480469 C 91.265625 40.542969 91.457031 40.734375 91.457031 40.988281 Z M 91.457031 40.988281 "/>
<path style=" stroke:none;fill-rule:nonzero;fill:rgb(0.392157%,0.392157%,0.392157%);fill-opacity:1;" d="M 84.367188 41.875 C 84.367188 42.128906 84.175781 42.320312 83.925781 42.320312 C 83.671875 42.320312 83.480469 42.128906 83.480469 41.875 C 83.480469 41.621094 83.671875 41.429688 83.925781 41.429688 C 84.175781 41.496094 84.367188 41.683594 84.367188 41.875 Z M 84.367188 41.875 "/>
<path style=" stroke:none;fill-rule:nonzero;fill:rgb(0.392157%,0.392157%,0.392157%);fill-opacity:1;" d="M 85 46.375 C 85 46.691406 84.746094 46.945312 84.429688 46.945312 C 84.113281 46.945312 83.859375 46.691406 83.859375 46.375 C 83.859375 46.058594 84.113281 45.804688 84.429688 45.804688 C 84.808594 45.867188 85 46.121094 85 46.375 Z M 85 46.375 "/>
<path style=" stroke:none;fill-rule:nonzero;fill:rgb(0.392157%,0.392157%,0.392157%);fill-opacity:1;" d="M 88.039062 42.382812 C 88.039062 42.570312 87.910156 42.699219 87.722656 42.699219 C 87.53125 42.699219 87.40625 42.570312 87.40625 42.382812 C 87.40625 42.191406 87.53125 42.066406 87.722656 42.066406 C 87.847656 42.066406 88.039062 42.191406 88.039062 42.382812 Z M 88.039062 42.382812 "/>
<path style=" stroke:none;fill-rule:nonzero;fill:rgb(0.392157%,0.392157%,0.392157%);fill-opacity:1;" d="M 82.847656 39.023438 C 82.847656 39.339844 82.59375 39.59375 82.277344 39.59375 C 81.960938 39.59375 81.707031 39.339844 81.707031 39.023438 C 81.707031 38.703125 81.960938 38.453125 82.277344 38.453125 C 82.59375 38.515625 82.847656 38.769531 82.847656 39.023438 Z M 82.847656 39.023438 "/>
<path style=" stroke:none;fill-rule:nonzero;fill:rgb(0.392157%,0.392157%,0.392157%);fill-opacity:1;" d="M 95.253906 42.570312 C 95.253906 42.953125 94.9375 43.207031 94.621094 43.207031 C 94.304688 43.207031 93.988281 42.890625 93.988281 42.570312 C 93.988281 42.191406 94.304688 41.9375 94.621094 41.9375 C 94.9375 41.9375 95.253906 42.191406 95.253906 42.570312 Z M 95.253906 42.570312 "/>
<path style=" stroke:none;fill-rule:nonzero;fill:rgb(0.392157%,0.392157%,0.392157%);fill-opacity:1;" d="M 79.808594 47.898438 C 79.808594 48.214844 79.558594 48.46875 79.242188 48.46875 C 78.925781 48.46875 78.671875 48.214844 78.671875 47.898438 C 78.671875 47.582031 78.925781 47.328125 79.242188 47.328125 C 79.558594 47.328125 79.808594 47.582031 79.808594 47.898438 Z M 79.808594 47.898438 "/>
<path style=" stroke:none;fill-rule:nonzero;fill:rgb(0.392157%,0.392157%,0.392157%);fill-opacity:1;" d="M 85.824219 35.789062 C 85.824219 36.042969 85.632812 36.296875 85.316406 36.296875 C 85.0625 36.296875 84.808594 36.105469 84.808594 35.789062 C 84.808594 35.535156 85 35.28125 85.316406 35.28125 C 85.632812 35.28125 85.824219 35.535156 85.824219 35.789062 Z M 85.824219 35.789062 "/>
<path style=" stroke:none;fill-rule:nonzero;fill:rgb(0.392157%,0.392157%,0.392157%);fill-opacity:1;" d="M 60.191406 11.191406 C 60.191406 11.191406 66.328125 11.445312 67.214844 13.664062 C 68.039062 15.882812 68.734375 18.226562 70 19.875 C 71.328125 21.652344 72.976562 21.96875 72.976562 21.96875 L 73.671875 21.460938 C 73.671875 21.460938 72.59375 19.433594 73.417969 18.859375 C 74.242188 18.289062 74.621094 18.417969 75 18.609375 C 75.316406 18.796875 75.632812 18.796875 75.507812 20.003906 C 75.378906 22.222656 75.695312 21.144531 75.695312 21.144531 C 75.695312 21.144531 77.46875 19.113281 76.265625 17.785156 C 75.0625 16.386719 72.910156 16.832031 72.59375 18.164062 C 72.277344 19.558594 72.910156 16.894531 72.53125 14.929688 C 72.152344 12.964844 72.152344 12.964844 72.152344 12.964844 C 72.152344 12.964844 71.582031 14.867188 71.644531 16.769531 C 71.707031 18.734375 71.707031 19.113281 71.328125 18.988281 C 70.886719 18.796875 70.757812 18.925781 70.441406 16.832031 C 70.191406 14.738281 70.441406 12.710938 68.796875 11.570312 C 67.214844 10.429688 62.59375 9.476562 60.191406 11.191406 Z M 60.191406 11.191406 "/>
<path style=" stroke:none;fill-rule:nonzero;fill:rgb(0.392157%,0.392157%,0.392157%);fill-opacity:1;" d="M 71.265625 19.621094 C 71.265625 19.621094 70.757812 17.847656 71.265625 16.136719 C 71.773438 14.421875 72.152344 13.472656 72.152344 13.472656 C 72.152344 13.472656 72.976562 11.570312 71.011719 10.746094 C 69.050781 9.921875 66.457031 9.222656 64.429688 10.300781 C 62.40625 11.445312 70.695312 9.667969 70.757812 12.078125 C 70.824219 14.488281 69.875 17.972656 70.757812 19.304688 C 71.707031 20.574219 71.265625 19.621094 71.265625 19.621094 Z M 71.265625 19.621094 "/>
<path style=" stroke:none;fill-rule:nonzero;fill:rgb(0.392157%,0.392157%,0.392157%);fill-opacity:1;" d="M 69.304688 10.238281 C 69.304688 10.238281 68.101562 6.308594 65.191406 5.738281 C 62.339844 5.230469 56.140625 5.292969 55.949219 5.421875 C 55.757812 5.546875 54.808594 5.230469 55.632812 6.054688 C 56.457031 6.878906 57.089844 8.082031 59.175781 8.398438 C 61.328125 8.71875 62.214844 9.796875 62.53125 10.300781 C 62.910156 10.808594 68.925781 10.492188 69.304688 10.238281 Z M 69.304688 10.238281 "/>
<path style=" stroke:none;fill-rule:nonzero;fill:rgb(0.392157%,0.392157%,0.392157%);fill-opacity:1;" d="M 61.773438 24.1875 C 61.707031 24.1875 61.644531 24.1875 61.582031 24.1875 C 59.808594 24.125 58.164062 22.855469 56.707031 20.382812 C 56.644531 20.320312 56.582031 20.191406 56.582031 20.191406 C 56.519531 20.128906 56.390625 19.9375 56.074219 19.496094 C 55.125 18.101562 52.976562 14.867188 50.632812 13.28125 C 48.355469 11.761719 47.660156 11.761719 45.507812 11.824219 C 44.808594 11.824219 43.925781 11.886719 42.785156 11.824219 C 42.722656 11.824219 42.660156 11.824219 42.59375 11.824219 C 38.164062 11.824219 28.480469 18.226562 28.417969 18.226562 L 28.417969 17.65625 C 28.417969 17.65625 33.417969 13.664062 34.9375 12.519531 C 36.011719 11.632812 37.785156 11.125 39.304688 10.683594 C 39.875 10.492188 40.441406 10.367188 40.886719 10.175781 C 42.339844 9.605469 42.660156 9.035156 42.660156 9.035156 L 42.722656 8.972656 L 42.785156 8.972656 C 42.785156 8.972656 44.621094 8.589844 47.152344 7.386719 C 49.808594 6.117188 53.417969 7.324219 53.609375 7.386719 C 53.609375 7.386719 53.609375 7.386719 53.671875 7.386719 C 54.050781 7.574219 55.191406 8.273438 55.191406 8.273438 C 55.191406 8.273438 57.722656 9.921875 58.796875 10.554688 C 59.808594 11.125 60.191406 11.125 60.253906 11.125 L 60.316406 11.125 C 60.507812 11.125 64.429688 11.761719 66.011719 13.15625 L 66.328125 13.410156 C 67.089844 14.042969 67.089844 14.105469 67.46875 15.058594 C 67.660156 15.5625 67.976562 16.386719 68.609375 17.847656 C 70.378906 21.839844 72.660156 21.652344 72.722656 21.652344 L 72.785156 21.96875 L 73.988281 21.96875 L 72.089844 22.347656 C 72.023438 22.347656 71.265625 22.539062 70.191406 22.347656 L 70.0625 22.347656 L 68.101562 22.980469 C 68.039062 22.980469 67.023438 23.109375 63.101562 24.1875 C 62.53125 24.125 62.152344 24.1875 61.773438 24.1875 Z M 56.773438 19.75 C 56.835938 19.8125 56.898438 19.875 57.023438 20.128906 C 57.660156 21.207031 59.621094 24.503906 62.847656 23.617188 C 66.773438 22.539062 67.785156 22.410156 67.847656 22.347656 L 69.175781 21.902344 C 68.734375 21.777344 68.226562 21.585938 67.785156 21.269531 L 67.40625 21.015625 C 65.695312 19.9375 64.429688 19.113281 64.242188 17.339844 C 64.175781 16.894531 64.175781 16.453125 64.175781 16.007812 C 64.175781 14.613281 64.175781 13.535156 62.785156 13.15625 C 61.898438 12.902344 61.265625 12.839844 60.757812 12.773438 C 60.191406 12.710938 59.808594 12.648438 59.558594 12.332031 C 59.304688 12.078125 57.785156 11.191406 56.644531 10.492188 C 56.773438 10.808594 57.023438 11.316406 57.53125 11.632812 C 57.722656 11.761719 58.734375 12.332031 58.925781 12.394531 C 60 12.964844 60.632812 13.34375 61.140625 14.613281 C 61.644531 16.070312 61.835938 19.75 61.835938 19.8125 L 61.390625 17.972656 C 61.390625 17.972656 61.328125 16.324219 60.824219 14.867188 C 60.441406 13.726562 59.050781 12.964844 58.039062 12.394531 C 57.785156 12.269531 57.59375 12.140625 57.40625 12.078125 C 56.390625 11.445312 55.757812 10.046875 55.695312 9.984375 L 55.0625 8.082031 L 56.457031 10.046875 C 56.773438 10.238281 59.492188 11.695312 59.875 12.140625 C 60 12.332031 60.253906 12.332031 60.824219 12.394531 C 61.328125 12.457031 61.960938 12.519531 62.847656 12.773438 C 64.492188 13.21875 64.492188 14.613281 64.492188 16.007812 C 64.492188 16.453125 64.492188 16.894531 64.558594 17.277344 C 64.746094 18.859375 65.824219 19.621094 67.53125 20.636719 L 67.910156 20.890625 C 68.609375 21.332031 69.367188 21.585938 70 21.652344 L 71.644531 21.652344 C 70.695312 21.398438 69.242188 20.507812 68.039062 17.71875 C 67.40625 16.261719 67.089844 15.4375 66.898438 14.929688 C 66.582031 14.042969 66.582031 14.042969 65.886719 13.472656 L 65.570312 13.21875 C 64.113281 11.949219 60.441406 11.316406 60.125 11.253906 C 60 11.253906 59.492188 11.253906 58.480469 10.621094 C 57.40625 9.984375 54.875 8.335938 54.875 8.335938 L 53.417969 7.449219 C 53.101562 7.386719 49.683594 6.308594 47.277344 7.449219 C 45 8.527344 43.292969 8.972656 42.910156 9.097656 C 42.785156 9.289062 42.277344 9.859375 40.949219 10.367188 C 40.507812 10.554688 39.9375 10.683594 39.367188 10.871094 C 37.910156 11.316406 36.140625 11.824219 35.125 12.648438 C 34.492188 13.15625 33.734375 13.726562 33.101562 14.296875 C 35.507812 13.09375 39.683594 11.191406 42.785156 11.253906 C 43.925781 11.316406 44.746094 11.253906 45.441406 11.253906 C 47.59375 11.191406 48.355469 11.191406 50.757812 12.773438 C 53.226562 14.421875 55.378906 17.71875 56.328125 19.113281 C 56.582031 19.433594 56.707031 19.683594 56.773438 19.75 Z M 56.773438 19.75 "/>
<path style=" stroke:none;fill-rule:nonzero;fill:rgb(0.392157%,0.392157%,0.392157%);fill-opacity:1;" d="M 39.808594 10.621094 C 39.808594 10.621094 48.417969 9.289062 51.265625 11.761719 C 57.46875 17.210938 57.339844 18.542969 59.113281 20.636719 C 60.441406 22.222656 63.609375 23.804688 65.0625 23.425781 C 66.582031 23.046875 67.847656 22.347656 67.847656 22.347656 L 68.988281 22.410156 L 69.875 22.15625 L 69.175781 21.96875 C 69.175781 21.96875 67.339844 22.855469 66.074219 21.96875 C 64.875 21.078125 64.621094 20.761719 64.113281 19.179688 C 63.671875 17.59375 63.542969 15.691406 62.847656 14.359375 C 62.152344 13.027344 61.519531 12.902344 61.519531 12.902344 L 59.558594 12.394531 C 59.558594 12.394531 61.011719 15.628906 61.203125 16.640625 C 61.328125 17.65625 61.898438 18.609375 60.886719 17.785156 C 59.875 16.960938 58.671875 15.753906 57.46875 13.21875 C 56.265625 10.683594 53.671875 8.464844 51.457031 7.894531 C 49.242188 7.324219 47.277344 7.511719 47.277344 7.511719 L 42.910156 9.160156 L 41.140625 9.414062 Z M 39.808594 10.621094 "/>
<path style=" stroke:none;fill-rule:nonzero;fill:rgb(0.392157%,0.392157%,0.392157%);fill-opacity:1;" d="M 29.367188 18.796875 C 29.367188 18.796875 33.609375 16.007812 37.910156 17.023438 C 42.277344 18.035156 47.339844 21.015625 48.925781 22.410156 C 50.507812 23.804688 55.0625 27.355469 57.59375 27.355469 C 60.191406 27.355469 60.632812 26.785156 61.140625 25.773438 C 61.644531 24.820312 61.582031 23.742188 61.582031 23.742188 C 61.582031 23.742188 61.707031 25.519531 59.875 25.898438 C 57.976562 26.277344 56.773438 26.277344 54.621094 25.136719 C 53.039062 24.3125 45.441406 17.847656 40.886719 16.324219 C 37.722656 15.375 33.480469 14.675781 29.367188 18.796875 Z M 29.367188 18.796875 "/>
<path style=" stroke:none;fill-rule:nonzero;fill:rgb(0.392157%,0.392157%,0.392157%);fill-opacity:1;" d="M 61.265625 24.125 C 61.265625 24.125 60.757812 25.136719 59.113281 25.199219 C 57.46875 25.265625 53.925781 24.820312 52.910156 23.425781 C 51.898438 22.03125 49.175781 19.875 49.175781 19.875 C 49.175781 19.875 42.976562 16.199219 40.824219 15.5625 C 38.671875 14.929688 34.050781 14.550781 32.023438 15.375 C 30 16.199219 37.976562 12.078125 41.265625 14.042969 C 44.558594 16.007812 45.949219 17.464844 48.925781 18.164062 C 51.898438 18.796875 53.164062 18.734375 53.164062 18.734375 C 53.164062 18.734375 56.328125 20.382812 56.960938 20.636719 C 57.53125 20.828125 56.457031 20.066406 54.875 20.320312 C 53.292969 20.574219 52.53125 20.636719 54.429688 21.523438 C 56.265625 22.410156 59.683594 24.628906 61.265625 24.125 Z M 61.265625 24.125 "/>
<path style=" stroke:none;fill-rule:nonzero;fill:rgb(0.392157%,0.392157%,0.392157%);fill-opacity:1;" d="M 40.886719 14.804688 C 40.886719 14.804688 42.53125 14.167969 45.0625 15.121094 C 47.59375 16.007812 52.847656 19.367188 52.847656 19.367188 L 57.089844 20.636719 L 56.773438 19.75 C 56.773438 19.75 54.429688 19.050781 53.480469 18.226562 C 52.59375 17.402344 49.558594 14.550781 48.226562 13.851562 C 46.898438 13.15625 41.328125 11.824219 39.050781 13.21875 C 37.53125 14.234375 38.796875 13.15625 40.886719 14.804688 Z M 40.886719 14.804688 "/>
<path style=" stroke:none;fill-rule:nonzero;fill:rgb(0.392157%,0.392157%,0.392157%);fill-opacity:1;" d="M 46.328125 19.9375 C 46.328125 19.9375 44.621094 20.953125 42.53125 20.636719 C 40.441406 20.320312 36.835938 18.859375 36.390625 18.355469 C 35.949219 17.847656 36.773438 18.417969 38.417969 18.925781 C 40.0625 19.433594 40.507812 19.433594 40.507812 19.433594 C 40.507812 19.433594 34.492188 16.769531 32.339844 17.464844 C 30.125 18.101562 30.949219 17.464844 30.949219 17.464844 C 30.949219 17.464844 35.316406 15.691406 46.328125 19.9375 Z M 46.328125 19.9375 "/>
<path style=" stroke:none;fill-rule:nonzero;fill:rgb(0.392157%,0.392157%,0.392157%);fill-opacity:1;" d="M 48.039062 5.355469 C 48.039062 5.355469 39.492188 5.355469 36.582031 6.117188 C 33.671875 6.816406 31.835938 6.878906 29.367188 8.589844 C 26.898438 10.300781 22.46875 13.664062 22.023438 16.640625 C 21.582031 19.621094 22.023438 22.476562 22.023438 22.476562 C 22.023438 22.476562 23.796875 25.265625 24.808594 24.949219 C 25.695312 24.695312 26.773438 23.488281 26.773438 23.488281 C 26.773438 23.488281 24.558594 26.53125 25.949219 28.179688 C 27.339844 29.828125 27.339844 29.828125 27.339844 29.828125 C 27.339844 29.828125 29.492188 27.671875 32.152344 27.738281 C 34.808594 27.800781 39.175781 28.878906 41.265625 29.066406 C 43.417969 29.257812 46.519531 29.828125 48.417969 29.511719 C 50.316406 29.195312 51.011719 29.386719 51.011719 29.386719 L 52.023438 29.066406 C 52.023438 29.066406 50.0625 32.554688 44.808594 32.300781 C 39.558594 32.046875 38.417969 31.730469 38.417969 31.730469 C 38.417969 31.730469 32.089844 30.589844 30.191406 32.300781 C 28.859375 33.507812 27.339844 35.089844 26.773438 37.308594 C 26.519531 38.324219 26.457031 39.527344 26.707031 40.796875 C 27.53125 44.917969 27.339844 43.523438 27.339844 43.523438 C 27.339844 43.523438 25.125 39.910156 26.390625 36.613281 C 27.59375 33.378906 28.164062 32.9375 28.164062 32.9375 C 28.164062 32.9375 24.558594 35.15625 24.558594 39.148438 C 24.558594 43.144531 24.175781 45.296875 26.390625 46.628906 C 28.609375 47.898438 28.925781 47.898438 28.925781 47.898438 C 28.925781 47.898438 27.152344 50.6875 27.152344 51.132812 C 27.152344 52.398438 25.824219 51.257812 25.824219 51.257812 C 25.824219 51.257812 19.808594 49.355469 18.988281 44.601562 C 18.226562 39.847656 18.542969 39.402344 18.542969 39.402344 C 18.542969 39.402344 18.480469 36.613281 20.191406 34.710938 C 21.898438 32.871094 24.113281 31.730469 24.113281 31.730469 C 24.113281 31.730469 22.976562 33.441406 19.492188 30.210938 C 16.265625 27.167969 15.695312 27.546875 15.125 24.1875 C 14.621094 20.828125 15.441406 18.226562 15.441406 18.226562 C 15.441406 18.226562 15.757812 15.375 17.277344 13.472656 C 19.175781 11.0625 21.265625 10.367188 22.59375 9.667969 C 23.292969 9.351562 25.632812 9.097656 25.632812 9.097656 C 25.632812 9.097656 25.441406 7.828125 28.859375 5.675781 C 32.277344 3.519531 34.304688 2.695312 36.203125 2.1875 C 38.609375 1.554688 40.695312 1.808594 43.164062 2.441406 C 45.570312 3.136719 47.59375 3.898438 48.039062 5.355469 Z M 48.039062 5.355469 "/>
<path style=" stroke:none;fill-rule:nonzero;fill:rgb(0.392157%,0.392157%,0.392157%);fill-opacity:1;" d="M 38.859375 10.746094 C 38.859375 10.746094 42.59375 7.511719 45.441406 6.6875 C 48.292969 5.863281 51.265625 5.800781 51.457031 5.863281 C 51.644531 5.929688 52.40625 4.976562 53.859375 5.355469 C 55.316406 5.800781 53.859375 5.355469 53.859375 5.355469 C 53.859375 5.355469 52.40625 3.136719 54.808594 2.566406 C 57.152344 2.058594 58.226562 2.566406 58.226562 2.566406 L 60.125 2.949219 C 60.125 2.949219 55.125 2.820312 54.746094 3.707031 C 54.367188 4.597656 56.011719 5.421875 55.695312 6.878906 C 55.378906 8.335938 55.378906 8.335938 55.378906 8.335938 C 55.378906 8.335938 50.824219 6.179688 46.328125 7.894531 C 42.214844 9.605469 38.859375 10.746094 38.859375 10.746094 Z M 38.859375 10.746094 "/>
<path style=" stroke:none;fill-rule:nonzero;fill:rgb(0.392157%,0.392157%,0.392157%);fill-opacity:1;" d="M 16.898438 21.96875 C 16.898438 21.96875 9.367188 27.671875 8.039062 30.273438 C 6.644531 32.871094 6.140625 38.199219 7.59375 41.242188 C 9.242188 44.601562 9.9375 45.234375 9.9375 45.234375 C 9.9375 45.234375 8.292969 44.917969 6.644531 43.585938 C 5.632812 42.761719 5.378906 42 5.378906 42 C 5.378906 42 2.660156 46.757812 3.480469 49.546875 C 4.304688 52.335938 6.457031 54.046875 9.808594 55 C 13.164062 55.949219 16.328125 55.0625 16.328125 55.0625 L 21.898438 56.265625 L 16.328125 61.84375 C 16.328125 61.84375 10.507812 64.191406 10.191406 66.601562 C 9.875 69.007812 9.9375 68.183594 9.9375 68.183594 C 9.9375 68.183594 7.277344 65.710938 7.976562 62.796875 C 8.671875 59.878906 10.316406 58.675781 10.316406 58.675781 C 10.316406 58.675781 4.558594 58.546875 2.785156 55.632812 C 1.011719 52.714844 -0.824219 47.898438 0.253906 43.96875 C 1.265625 40.035156 3.609375 37.628906 3.609375 37.628906 C 3.609375 37.628906 1.898438 32.871094 4.113281 28.6875 C 6.140625 25.011719 6.835938 24.757812 7.660156 23.804688 C 9.175781 22.15625 15.886719 17.71875 15.886719 17.71875 C 15.886719 17.71875 25 14.738281 16.898438 21.96875 Z M 16.898438 21.96875 "/>
<path style=" stroke:none;fill-rule:nonzero;fill:rgb(0.392157%,0.392157%,0.392157%);fill-opacity:1;" d="M 17.277344 26.976562 C 17.277344 26.976562 10 30.273438 8.542969 35.34375 C 7.023438 40.351562 7.847656 41.496094 8.542969 43.269531 C 9.429688 45.617188 9.875 45.296875 9.875 45.296875 C 9.875 45.296875 8.734375 39.910156 11.835938 36.167969 C 14.621094 32.746094 16.519531 31.921875 17.722656 31.160156 C 20.316406 29.511719 21.328125 27.800781 21.960938 26.53125 C 22.53125 25.265625 19.683594 25.835938 17.277344 26.976562 Z M 17.277344 26.976562 "/>
<path style=" stroke:none;fill-rule:nonzero;fill:rgb(0.392157%,0.392157%,0.392157%);fill-opacity:1;" d="M 23.542969 31.097656 C 23.542969 31.097656 18.542969 33.761719 16.707031 37.054688 C 15.0625 39.972656 12.722656 45.363281 17.023438 49.484375 C 22.910156 55.125 27.089844 53.730469 27.089844 53.730469 L 27.089844 55.757812 C 27.089844 55.757812 22.023438 58.546875 20.378906 61.019531 C 18.734375 63.492188 18.542969 75.347656 19.050781 76.046875 C 19.492188 76.679688 19.175781 76.492188 19.175781 76.492188 C 19.175781 76.492188 17.277344 75.222656 16.390625 72.304688 C 15.507812 69.453125 15.378906 66.535156 15.378906 66.535156 C 15.378906 66.535156 15.125 62.796875 16.960938 60.386719 C 18.796875 57.976562 14.683594 55.570312 13.039062 53.792969 C 11.328125 52.019531 7.976562 49.164062 9.429688 44.15625 C 10.757812 39.210938 14.558594 30.84375 23.542969 31.097656 Z M 23.542969 31.097656 "/>
<path style=" stroke:none;fill-rule:nonzero;fill:rgb(0.392157%,0.392157%,0.392157%);fill-opacity:1;" d="M 27.722656 30.273438 C 27.214844 27.421875 26.644531 24.566406 30.695312 23.300781 C 34.304688 22.15625 41.328125 25.453125 46.011719 27.671875 C 46.519531 27.925781 47.023438 28.179688 47.53125 28.371094 C 49.492188 29.257812 50.949219 29.066406 52.089844 28.878906 L 52.40625 28.816406 C 53.292969 28.6875 54.746094 26.914062 55.191406 26.214844 L 55.507812 26.40625 C 55.441406 26.53125 53.734375 29.003906 52.46875 29.195312 L 52.152344 29.257812 C 51.011719 29.449219 49.429688 29.703125 47.339844 28.6875 C 46.898438 28.496094 46.390625 28.242188 45.824219 27.992188 C 41.203125 25.835938 34.242188 22.539062 30.824219 23.617188 C 27.089844 24.820312 27.59375 27.355469 28.101562 30.082031 L 28.101562 30.144531 Z M 27.722656 30.273438 "/>
<path style=" stroke:none;fill-rule:nonzero;fill:rgb(0.392157%,0.392157%,0.392157%);fill-opacity:1;" d="M 51.582031 27.738281 C 50.632812 27.738281 49.875 27.484375 48.480469 26.976562 C 47.339844 26.53125 45.253906 25.265625 43.292969 23.996094 C 42.152344 23.300781 41.140625 22.601562 40.316406 22.15625 C 38.796875 21.332031 35 19.367188 31.835938 19.558594 C 28.292969 19.75 25.378906 25.835938 25.316406 25.898438 L 24.9375 25.707031 C 25.0625 25.453125 28.039062 19.367188 31.773438 19.113281 C 35.125 18.925781 38.988281 20.890625 40.441406 21.714844 C 41.328125 22.222656 42.339844 22.855469 43.480469 23.550781 C 45.441406 24.820312 47.46875 26.089844 48.609375 26.46875 C 50.632812 27.230469 51.203125 27.355469 52.910156 27.101562 C 54.621094 26.847656 55.125 25.707031 55.125 25.644531 L 55.507812 25.835938 C 55.507812 25.898438 54.875 27.230469 52.976562 27.484375 C 52.40625 27.671875 52.023438 27.738281 51.582031 27.738281 Z M 51.582031 27.738281 "/>
<path style=" stroke:none;fill-rule:nonzero;fill:rgb(0.392157%,0.392157%,0.392157%);fill-opacity:1;" d="M 26.898438 22.539062 C 26.898438 22.539062 22.910156 20.507812 24.113281 17.085938 C 25.316406 13.726562 29.113281 9.984375 31.898438 8.78125 C 34.683594 7.574219 38.796875 6.941406 41.707031 6.5625 C 44.621094 6.179688 48.988281 5.992188 48.988281 5.992188 C 48.988281 5.992188 37.59375 7.386719 32.089844 12.140625 C 29.875 14.042969 28.859375 16.453125 29.113281 17.65625 C 29.367188 18.859375 30.507812 18.226562 30.757812 18.101562 C 31.011719 17.972656 32.40625 16.707031 34.113281 17.464844 C 35.824219 18.226562 39.808594 20.699219 39.808594 20.699219 C 39.808594 20.699219 36.328125 19.113281 33.925781 18.988281 C 31.519531 18.859375 30.378906 19.113281 29.558594 20.066406 C 28.796875 20.890625 26.898438 22.539062 26.898438 22.539062 Z M 26.898438 22.539062 "/>
<path style=" stroke:none;fill-rule:nonzero;fill:rgb(0.392157%,0.392157%,0.392157%);fill-opacity:1;" d="M 45.507812 5.355469 C 45.507812 5.355469 50.632812 6.054688 51.140625 6.5625 C 51.644531 7.003906 47.089844 4.976562 48.292969 2.378906 C 49.558594 -0.347656 51.140625 0.160156 51.140625 0.160156 C 51.140625 0.160156 46.074219 0.792969 45.507812 5.355469 Z M 45.507812 5.355469 "/>
<path style=" stroke:none;fill-rule:nonzero;fill:rgb(0.392157%,0.392157%,0.392157%);fill-opacity:1;" d="M 48.988281 31.539062 C 48.988281 31.539062 50.0625 34.835938 48.355469 36.230469 C 46.898438 37.5 45.378906 37.691406 44.558594 37.183594 C 43.796875 36.675781 34.367188 33.507812 30.757812 35.535156 C 27.152344 37.5625 27.152344 39.339844 27.089844 42.636719 C 27.023438 45.933594 30.125 46.945312 30.125 46.945312 C 30.125 46.945312 28.609375 43.648438 30.757812 41.429688 C 32.847656 39.210938 38.355469 38.894531 38.859375 38.957031 C 43.355469 39.464844 47.910156 43.207031 50.191406 44.21875 C 52.40625 45.296875 55.253906 45.742188 56.582031 45.296875 C 57.910156 44.855469 55.695312 45.234375 53.480469 44.21875 C 51.265625 43.207031 48.292969 40.480469 48.226562 39.71875 C 48.164062 39.023438 52.023438 34.078125 48.988281 31.539062 Z M 48.988281 31.539062 "/>
<path style=" stroke:none;fill-rule:nonzero;fill:rgb(0.392157%,0.392157%,0.392157%);fill-opacity:1;" d="M 49.558594 30.273438 C 49.558594 30.273438 46.960938 34.773438 41.457031 34.835938 C 35.886719 34.964844 31.644531 36.738281 31.644531 36.738281 C 31.644531 36.738281 48.101562 38.007812 49.558594 30.273438 Z M 49.558594 30.273438 "/>
<path style=" stroke:none;fill-rule:nonzero;fill:rgb(0.392157%,0.392157%,0.392157%);fill-opacity:1;" d="M 56.582031 45.363281 C 56.582031 45.363281 50.191406 45.296875 46.011719 44.792969 C 41.835938 44.285156 29.304688 43.394531 27.40625 46.441406 C 25.441406 49.417969 26.328125 48.46875 25.757812 51.257812 C 25.191406 54.046875 27.152344 55.886719 27.152344 55.886719 C 27.152344 55.886719 24.875 58.929688 22.910156 60.957031 C 20.949219 62.988281 18.671875 64.824219 18.101562 66.917969 C 17.46875 68.945312 17.847656 76.046875 20.191406 78.773438 C 22.53125 81.5 19.492188 78.519531 20.0625 75.285156 C 20.632812 72.050781 22.277344 69.515625 24.9375 66.789062 C 27.59375 64.0625 28.480469 63.683594 28.480469 63.683594 C 28.480469 63.683594 24.621094 67.425781 22.785156 70.785156 C 22.277344 71.734375 20.824219 76.425781 22.089844 78.710938 C 23.355469 80.992188 24.9375 82.261719 24.9375 82.261719 C 24.9375 82.261719 24.367188 78.390625 24.492188 76.617188 C 24.558594 75.160156 24.9375 73.953125 24.9375 73.953125 C 24.9375 73.953125 26.582031 81.117188 30.824219 81.6875 C 35.0625 82.261719 38.671875 82.324219 37.40625 80.992188 C 34.808594 78.265625 32.976562 78.203125 31.707031 74.777344 C 30.441406 71.355469 30.191406 68.820312 30.125 66.410156 C 30.125 65.839844 30.125 61.527344 30.695312 61.148438 C 31.265625 60.703125 33.164062 64.191406 33.039062 63.304688 C 32.976562 63.050781 32.910156 62.734375 32.785156 62.414062 C 31.898438 60.324219 29.429688 57.914062 29.429688 57.914062 C 29.429688 57.914062 27.785156 46.1875 56.582031 45.363281 Z M 56.582031 45.363281 "/>
<path style=" stroke:none;fill-rule:nonzero;fill:rgb(0.392157%,0.392157%,0.392157%);fill-opacity:1;" d="M 49.558594 32.9375 C 49.558594 32.9375 51.835938 35.980469 49.9375 38.515625 C 47.976562 41.050781 47.976562 41.050781 47.976562 41.050781 C 47.976562 41.050781 55.253906 38.703125 49.558594 32.9375 Z M 49.558594 32.9375 "/>
<path style=" stroke:none;fill-rule:nonzero;fill:rgb(0.392157%,0.392157%,0.392157%);fill-opacity:1;" d="M 56.898438 45.363281 C 56.898438 45.363281 56.898438 45.363281 53.988281 45.617188 C 51.074219 45.867188 42.53125 47.582031 38.859375 49.164062 C 35.191406 50.75 32.785156 51.890625 31.644531 54.746094 C 30.507812 57.597656 31.011719 59.054688 32.277344 61.464844 C 33.542969 63.875 35.378906 66.347656 35.378906 66.347656 C 35.378906 66.347656 34.367188 65.140625 33.988281 61.464844 C 33.859375 59.878906 33.417969 59.183594 37.152344 54.554688 C 40.253906 50.75 51.140625 47.769531 56.898438 45.363281 Z M 56.898438 45.363281 "/>
<path style=" stroke:none;fill-rule:nonzero;fill:rgb(0.392157%,0.392157%,0.392157%);fill-opacity:1;" d="M 88.417969 78.390625 C 88.417969 78.390625 90.632812 79.722656 91.457031 78.898438 C 92.339844 78.074219 92.339844 78.074219 92.339844 78.074219 C 92.339844 78.074219 91.457031 81.4375 89.367188 81.371094 C 87.53125 81.371094 87.785156 80.863281 87.785156 80.863281 C 87.785156 80.863281 87.277344 81.5625 86.960938 82.765625 C 86.707031 83.78125 86.328125 84.097656 86.773438 85.367188 C 87.152344 86.570312 87.214844 86.632812 87.214844 86.632812 C 87.214844 86.632812 86.328125 85.808594 86.328125 84.289062 C 86.328125 82.765625 87.40625 80.484375 87.40625 80.484375 L 87.722656 78.074219 Z M 88.417969 78.390625 "/>
<path style=" stroke:none;fill-rule:nonzero;fill:rgb(0.392157%,0.392157%,0.392157%);fill-opacity:1;" d="M 86.773438 88.535156 L 86.457031 88.472656 C 86.390625 88.472656 85.0625 88.09375 84.242188 86 L 84.175781 86.761719 L 83.925781 86.632812 C 83.859375 86.632812 82.40625 86 81.898438 83.527344 L 81.835938 83.085938 C 81.457031 81.117188 81.835938 80.359375 82.59375 79.152344 C 82.59375 79.152344 81.835938 81.054688 82.214844 83.019531 L 82.277344 83.464844 C 82.59375 85.113281 83.417969 85.875 83.796875 86.128906 L 83.925781 85.050781 C 84.050781 83.085938 84.621094 81.941406 84.621094 81.941406 L 84.304688 84.984375 C 84.367188 85.175781 84.429688 85.429688 84.558594 85.683594 C 85.125 87.078125 85.824219 87.648438 86.265625 87.902344 C 86.140625 87.457031 85.949219 86.761719 85.632812 85.683594 C 85.0625 83.972656 87.152344 78.835938 87.214844 78.582031 L 87.59375 78.710938 C 87.59375 78.773438 85.441406 83.90625 86.011719 85.492188 C 86.582031 87.140625 86.773438 88.09375 86.773438 88.09375 Z M 86.773438 88.535156 "/>
<path style=" stroke:none;fill-rule:nonzero;fill:rgb(0.392157%,0.392157%,0.392157%);fill-opacity:1;" d="M 82.40625 88.472656 C 82.339844 88.472656 82.339844 88.472656 82.277344 88.410156 C 82.214844 88.410156 82.214844 88.347656 82.152344 88.28125 C 81.707031 88.027344 80.507812 87.394531 78.988281 86.191406 C 77.339844 84.921875 77.59375 84.097656 77.847656 83.210938 C 77.910156 82.957031 77.976562 82.640625 78.039062 82.324219 C 78.164062 80.992188 77.910156 79.851562 77.910156 79.851562 L 77.722656 78.265625 C 77.722656 78.328125 78.609375 80.992188 78.480469 82.386719 C 78.417969 82.703125 78.355469 83.019531 78.292969 83.335938 C 78.039062 84.226562 77.910156 84.859375 79.304688 85.9375 C 80.441406 86.824219 81.390625 87.394531 81.960938 87.777344 C 81.898438 87.523438 81.835938 87.203125 81.773438 86.761719 C 81.519531 84.921875 81.960938 83.148438 82.023438 83.085938 L 82.40625 83.210938 C 82.40625 83.210938 81.898438 84.984375 82.214844 86.699219 C 82.339844 87.648438 82.53125 87.964844 82.59375 88.09375 C 82.660156 88.15625 82.722656 88.15625 82.722656 88.15625 L 82.339844 88.09375 L 82.785156 88.535156 C 82.53125 88.472656 82.46875 88.472656 82.40625 88.472656 Z M 82.40625 88.472656 "/>
<path style=" stroke:none;fill-rule:nonzero;fill:rgb(0.392157%,0.392157%,0.392157%);fill-opacity:1;" d="M 74.367188 89.359375 L 74.558594 88.726562 C 74.558594 88.726562 74.558594 88.726562 74.621094 88.664062 C 74.621094 88.535156 74.683594 88.21875 74.558594 87.269531 C 74.429688 86.445312 73.859375 85.367188 73.355469 84.289062 C 72.910156 83.402344 72.46875 82.578125 72.277344 81.878906 C 71.898438 80.359375 73.417969 76.617188 73.480469 76.425781 L 74.492188 75.222656 C 74.492188 75.285156 72.277344 80.359375 72.660156 81.816406 C 72.847656 82.449219 73.226562 83.273438 73.671875 84.160156 C 74.242188 85.238281 74.808594 86.316406 74.9375 87.269531 C 75 87.523438 75 87.710938 75 87.902344 C 75.191406 87.332031 75.378906 86.570312 75.191406 85.875 C 74.746094 84.414062 73.796875 81.625 73.796875 81.625 C 73.796875 81.625 73.796875 81.5625 73.796875 81.5625 C 73.796875 81.5 73.734375 80.484375 74.621094 78.710938 L 75.507812 76.933594 L 76.265625 76.171875 L 74.9375 78.898438 C 74.175781 80.421875 74.113281 81.371094 74.113281 81.5 C 74.175781 81.816406 75.125 84.351562 75.507812 85.746094 C 75.886719 87.078125 75.316406 88.15625 75.0625 88.601562 C 75 88.726562 74.808594 89.105469 74.746094 89.105469 Z M 74.367188 89.359375 "/>
<path style=" stroke:none;fill-rule:nonzero;fill:rgb(0.392157%,0.392157%,0.392157%);fill-opacity:1;" d="M 79.808594 86.824219 C 78.292969 86.570312 77.40625 86.0625 76.835938 85.683594 C 76.519531 85.429688 76.390625 85.304688 76.390625 85.304688 C 76.328125 85.238281 75.632812 83.972656 75.695312 82.386719 C 75.757812 80.863281 76.074219 78.773438 76.074219 78.710938 L 76.519531 76.742188 C 76.519531 76.742188 76.140625 80.863281 76.074219 82.386719 C 76.011719 83.84375 76.644531 84.984375 76.707031 85.050781 C 76.707031 85.050781 76.835938 85.175781 77.089844 85.367188 C 77.53125 85.746094 78.417969 86.191406 79.875 86.445312 Z M 79.808594 86.824219 "/>
<path style=" stroke:none;fill-rule:nonzero;fill:rgb(0.392157%,0.392157%,0.392157%);fill-opacity:1;" d="M 75.253906 88.601562 C 75.191406 88.601562 75.125 88.601562 75.125 88.535156 C 75.0625 88.472656 75 88.347656 75.191406 88.15625 L 75.253906 87.839844 C 75 87.269531 75.507812 88.28125 75.441406 88.28125 C 75.378906 88.21875 75.316406 88.21875 75.316406 88.21875 C 75.507812 88.15625 76.898438 87.332031 77.214844 86.507812 C 77.339844 86.253906 77.277344 86 77.152344 85.875 L 77.46875 85.621094 C 77.910156 86.191406 77.660156 86.953125 76.707031 87.777344 C 76.644531 87.777344 75.695312 88.601562 75.253906 88.601562 Z M 75.253906 88.601562 "/>
<path style=" stroke:none;fill-rule:nonzero;fill:rgb(0.392157%,0.392157%,0.392157%);fill-opacity:1;" d="M 85.757812 84.605469 C 85.757812 84.605469 86.011719 85.554688 86.835938 86.128906 C 87.277344 86.507812 87.277344 86.699219 87.152344 86.570312 C 87.089844 86.570312 85.441406 85.875 85.757812 84.605469 Z M 85.757812 84.605469 "/>
<path style=" stroke:none;fill-rule:nonzero;fill:rgb(0.392157%,0.392157%,0.392157%);fill-opacity:1;" d="M 66.140625 72.304688 C 66.140625 72.304688 66.265625 73.195312 65 73.890625 C 63.734375 74.652344 60.949219 76.046875 60.0625 78.265625 C 59.175781 80.484375 59.429688 80.546875 59.304688 82.386719 C 59.175781 84.226562 59.242188 86 59.050781 87.269531 C 58.859375 88.535156 58.542969 91.390625 57.59375 92.46875 C 56.644531 93.609375 56.265625 94.050781 56.265625 94.050781 C 56.265625 94.050781 57.46875 93.355469 58.101562 92.277344 C 58.734375 91.199219 58.925781 90.375 58.925781 90.375 C 58.925781 90.375 58.226562 92.910156 57.722656 93.355469 C 57.214844 93.796875 57.214844 93.796875 57.214844 93.796875 C 57.214844 93.796875 58.292969 93.609375 59.113281 91.644531 C 59.175781 91.453125 59.242188 91.261719 59.367188 91.007812 C 60 88.980469 60.507812 86.0625 60.507812 85.367188 C 60.507812 84.605469 60.695312 82.640625 60.695312 82.640625 C 60.695312 82.640625 61.074219 88.09375 60.507812 89.550781 C 60.125 90.566406 59.367188 91.136719 59.367188 91.136719 C 59.367188 91.136719 60.632812 90.753906 61.390625 89.488281 C 62.089844 88.21875 62.46875 87.078125 62.59375 86 C 62.722656 84.921875 62.847656 82.132812 62.847656 82.132812 C 62.847656 82.132812 63.164062 79.027344 64.050781 78.011719 C 65 76.996094 65.886719 76.109375 65.886719 76.109375 C 65.886719 76.109375 66.835938 75.476562 67.152344 74.652344 C 67.46875 73.828125 67.46875 73.320312 67.46875 73.320312 C 67.46875 73.320312 66.898438 74.714844 65.949219 75.476562 C 65 76.238281 63.542969 77.503906 63.164062 78.203125 C 62.785156 78.898438 62.785156 78.898438 62.785156 78.898438 C 62.785156 78.898438 62.277344 77.503906 63.101562 76.492188 C 63.925781 75.476562 64.242188 75.222656 65 74.652344 C 65.695312 74.144531 66.898438 73.257812 66.140625 72.304688 Z M 66.140625 72.304688 "/>
<path style=" stroke:none;fill-rule:nonzero;fill:rgb(0.392157%,0.392157%,0.392157%);fill-opacity:1;" d="M 61.140625 88.917969 C 61.140625 88.917969 62.40625 87.078125 62.722656 86.445312 C 63.039062 85.746094 63.226562 84.921875 63.226562 84.921875 L 63.542969 83.589844 C 63.542969 83.589844 63.101562 83.210938 63.039062 82.386719 C 62.976562 81.5 63.039062 80.546875 63.039062 80.546875 C 63.039062 80.546875 62.910156 79.597656 63.355469 78.835938 C 63.796875 78.074219 63.542969 76.425781 63.796875 78.390625 C 64.050781 80.421875 63.734375 82.449219 64.304688 83.589844 C 64.808594 84.730469 65.632812 86 66.582031 86.191406 C 67.53125 86.378906 68.101562 86.378906 68.101562 86.378906 C 68.101562 86.378906 65.757812 86.953125 64.875 85.683594 C 64.050781 84.605469 64.050781 84.414062 64.050781 84.414062 C 64.050781 84.414062 63.292969 88.789062 61.140625 88.917969 Z M 61.140625 88.917969 "/>
<path style=" stroke:none;fill-rule:nonzero;fill:rgb(0.392157%,0.392157%,0.392157%);fill-opacity:1;" d="M 60.316406 90.628906 C 60.316406 90.628906 61.265625 90.5 62.53125 89.488281 C 63.734375 88.535156 66.011719 86.570312 66.707031 85.492188 C 67.339844 84.414062 67.214844 84.480469 67.214844 84.480469 C 67.214844 84.480469 65.191406 83.78125 65.253906 82.703125 C 65.316406 81.625 65.316406 82.132812 65.316406 82.132812 C 65.316406 82.132812 64.875 83.78125 65.570312 84.859375 C 66.265625 85.9375 66.140625 85.683594 66.140625 85.683594 C 66.140625 85.683594 64.808594 84.730469 64.746094 83.65625 C 64.683594 82.640625 64.621094 81.941406 65.125 80.738281 C 65.632812 79.535156 65.695312 79.152344 65.695312 79.152344 C 65.695312 79.152344 65.632812 80.230469 65.949219 81.246094 C 66.265625 82.261719 66.265625 82.449219 66.898438 83.273438 C 67.53125 84.097656 68.039062 84.796875 68.039062 84.796875 C 68.039062 84.796875 65.695312 90.246094 60.316406 90.628906 Z M 60.316406 90.628906 "/>
<path style=" stroke:none;fill-rule:nonzero;fill:rgb(0.392157%,0.392157%,0.392157%);fill-opacity:1;" d="M 65.632812 82.007812 C 65.632812 82.007812 66.582031 84.035156 67.089844 84.289062 C 67.53125 84.542969 67.59375 84.921875 67.59375 84.921875 C 67.59375 84.921875 68.101562 86.0625 67.785156 87.269531 C 67.46875 88.410156 66.773438 89.804688 65.949219 90.183594 C 65.125 90.5 67.847656 90.945312 69.242188 88.535156 C 70.632812 86.128906 70.632812 84.921875 70.632812 84.921875 C 70.632812 84.921875 70.378906 86.316406 71.265625 87.203125 C 72.152344 88.027344 73.039062 87.839844 73.039062 87.839844 C 73.039062 87.839844 71.140625 86.0625 71.074219 84.542969 C 71.011719 82.957031 70.886719 82.261719 70.886719 82.261719 L 70.949219 79.214844 C 70.949219 79.214844 70.191406 83.84375 69.808594 84.921875 C 69.367188 86 68.292969 84.796875 68.292969 84.796875 C 68.292969 84.796875 65.695312 82.703125 65.632812 82.007812 Z M 65.632812 82.007812 "/>
<path style=" stroke:none;fill-rule:nonzero;fill:rgb(0.392157%,0.392157%,0.392157%);fill-opacity:1;" d="M 67.847656 75.476562 C 67.847656 75.476562 67.660156 76.425781 67.214844 77.632812 C 66.707031 78.835938 66.140625 81.5 66.773438 82.386719 C 67.40625 83.210938 69.050781 85.304688 69.113281 86.128906 C 69.175781 87.015625 69.9375 85.746094 69.9375 85.746094 C 69.9375 85.746094 69.304688 83.84375 69.304688 82.578125 C 69.242188 81.371094 68.859375 79.851562 69.429688 78.644531 C 70 77.441406 69.9375 77.820312 69.9375 77.820312 C 69.9375 77.820312 68.480469 78.265625 68.734375 80.738281 C 68.988281 83.210938 68.988281 83.210938 68.988281 83.210938 C 68.988281 83.210938 68.039062 82.449219 67.40625 81.4375 C 66.898438 80.738281 66.835938 80.484375 67.847656 75.476562 Z M 67.847656 75.476562 "/>
<path style=" stroke:none;fill-rule:nonzero;fill:rgb(0.392157%,0.392157%,0.392157%);fill-opacity:1;" d="M 71.960938 87.078125 C 71.960938 87.078125 71.773438 86 72.152344 84.984375 C 72.53125 83.972656 72.40625 84.796875 72.40625 83.210938 C 72.339844 81.625 72.46875 81.308594 72.46875 81.308594 C 72.46875 81.308594 72.910156 83.78125 72.785156 84.984375 C 72.660156 86.191406 72.59375 87.394531 72.785156 87.585938 C 72.910156 87.710938 71.960938 87.078125 71.960938 87.078125 Z M 71.960938 87.078125 "/>
<path style=" stroke:none;fill-rule:nonzero;fill:rgb(0.392157%,0.392157%,0.392157%);fill-opacity:1;" d="M 64.113281 74.96875 C 64.113281 74.96875 64.492188 71.355469 63.417969 69.074219 C 62.339844 66.726562 63.480469 68.183594 62.976562 69.578125 C 62.46875 70.976562 62.660156 68.691406 61.203125 66.789062 C 59.746094 64.886719 59.492188 65.015625 59.492188 65.015625 C 59.492188 65.015625 62.214844 68.4375 61.835938 70.085938 C 61.457031 71.734375 60.441406 73.953125 59.429688 75.476562 C 58.417969 76.996094 57.277344 78.644531 57.277344 80.613281 C 57.277344 82.640625 57.53125 84.414062 57.277344 87.585938 C 57.023438 90.753906 54.875 95.191406 53.988281 95.765625 C 53.164062 96.335938 57.339844 95.191406 57.976562 88.917969 C 58.609375 82.703125 58.226562 81.308594 58.226562 81.308594 C 58.226562 81.308594 58.292969 78.390625 59.558594 76.742188 C 61.519531 74.273438 61.265625 73.066406 63.226562 75.476562 Z M 64.113281 74.96875 "/>
<path style=" stroke:none;fill-rule:nonzero;fill:rgb(0.392157%,0.392157%,0.392157%);fill-opacity:1;" d="M 58.101562 63.558594 C 58.101562 63.558594 62.152344 67.296875 60.757812 69.960938 C 59.367188 72.625 56.960938 74.777344 56.203125 76.808594 C 55.507812 78.835938 54.9375 79.789062 55 81.878906 C 55.0625 83.972656 55.507812 86.886719 55.949219 88.28125 C 56.328125 89.742188 55.886719 93.863281 55 95.191406 C 54.113281 96.460938 53.226562 97.03125 53.226562 97.03125 C 53.226562 97.03125 55.125 94.558594 55.316406 92.148438 C 55.507812 89.742188 55.507812 89.742188 55.507812 89.742188 C 55.507812 89.742188 55.253906 91.390625 53.542969 91.894531 C 51.835938 92.402344 50 92.402344 48.859375 92.972656 C 47.785156 93.542969 47.40625 94.179688 47.277344 95.128906 C 47.152344 96.082031 46.519531 94.050781 47.023438 92.59375 C 47.53125 91.136719 47.976562 90.945312 49.875 90.121094 C 51.773438 89.296875 53.164062 88.410156 53.480469 86.953125 C 53.796875 85.429688 53.988281 84.667969 53.925781 82.703125 C 53.796875 80.738281 53.164062 79.214844 53.925781 77.695312 C 54.683594 76.171875 57.152344 74.019531 58.609375 71.609375 C 60.191406 69.136719 61.265625 68.121094 58.101562 63.558594 Z M 58.101562 63.558594 "/>
<path style=" stroke:none;fill-rule:nonzero;fill:rgb(0.392157%,0.392157%,0.392157%);fill-opacity:1;" d="M 57.339844 62.164062 C 57.339844 62.164062 58.417969 66.855469 56.898438 69.898438 C 55.378906 72.941406 55.191406 75.285156 54.746094 77.441406 C 54.304688 79.597656 55.632812 76.742188 55.632812 76.742188 L 57.277344 74.460938 C 57.277344 74.460938 60.632812 66.410156 57.339844 62.164062 Z M 57.339844 62.164062 "/>
<path style=" stroke:none;fill-rule:nonzero;fill:rgb(0.392157%,0.392157%,0.392157%);fill-opacity:1;" d="M 34.9375 78.644531 C 34.9375 78.644531 33.734375 74.96875 33.796875 72.304688 C 33.859375 69.644531 35 65.078125 35.378906 64.191406 C 35.886719 62.859375 36.074219 62.289062 36.773438 61.210938 C 37.46875 60.132812 39.429688 58.042969 39.429688 58.042969 C 39.429688 58.042969 35.632812 65.078125 35.824219 69.578125 C 36.011719 74.082031 37.339844 76.554688 37.339844 76.554688 L 38.417969 78.644531 C 38.417969 78.644531 41.644531 83.402344 40.570312 82.386719 C 40 81.816406 37.59375 82.703125 36.203125 81.816406 C 34.746094 80.929688 34.9375 78.644531 34.9375 78.644531 Z M 34.9375 78.644531 "/>
<path style=" stroke:none;fill-rule:nonzero;fill:rgb(0.392157%,0.392157%,0.392157%);fill-opacity:1;" d="M 38.609375 80.167969 C 38.609375 80.167969 40.632812 83.589844 42.785156 84.859375 C 44.9375 86.128906 44.621094 86.0625 44.621094 86.0625 C 44.621094 86.0625 45.632812 85.9375 45.316406 84.542969 C 45 83.148438 44.746094 81.816406 43.988281 81.246094 C 43.226562 80.675781 40 78.835938 39.175781 76.492188 C 38.355469 74.144531 38.671875 75.414062 38.671875 75.414062 C 38.671875 75.414062 39.875 79.089844 42.59375 79.789062 C 45.316406 80.484375 46.582031 81.246094 46.582031 81.246094 C 46.582031 81.246094 42.59375 80.484375 41.328125 78.582031 C 40.125 76.679688 39.050781 75.097656 38.542969 73.828125 C 37.847656 72.050781 37.660156 69.960938 37.785156 66.285156 C 37.910156 63.492188 39.050781 58.484375 39.050781 58.484375 C 39.050781 58.484375 35.824219 65.777344 36.582031 71.164062 C 37.339844 76.679688 38.417969 79.789062 38.609375 80.167969 Z M 38.609375 80.167969 "/>
<path style=" stroke:none;fill-rule:nonzero;fill:rgb(0.392157%,0.392157%,0.392157%);fill-opacity:1;" d="M 37.722656 80.546875 C 37.722656 80.546875 36.644531 83.464844 34.808594 84.414062 C 32.976562 85.367188 32.785156 85.429688 31.328125 84.921875 C 29.808594 84.414062 28.355469 83.402344 27.59375 82.449219 C 26.582031 81.246094 30.125 86.886719 33.796875 86 C 37.46875 85.175781 40.570312 79.914062 37.722656 80.546875 Z M 37.722656 80.546875 "/>
<path style=" stroke:none;fill-rule:nonzero;fill:rgb(0.392157%,0.392157%,0.392157%);fill-opacity:1;" d="M 40.632812 80.929688 C 40.632812 80.929688 40.632812 83.148438 38.796875 84.859375 C 37.339844 86.191406 36.140625 86.570312 34.746094 86.632812 C 33.355469 86.699219 30.125 85.683594 29.113281 84.414062 C 28.164062 83.210938 31.582031 87.585938 35.507812 87.585938 C 39.621094 87.585938 41.644531 85.113281 42.023438 83.589844 C 42.46875 82.132812 40.632812 80.929688 40.632812 80.929688 Z M 40.632812 80.929688 "/>
<path style=" stroke:none;fill-rule:nonzero;fill:rgb(0.392157%,0.392157%,0.392157%);fill-opacity:1;" d="M 44.429688 84.984375 C 44.429688 84.984375 42.722656 88.410156 40.125 88.15625 C 37.53125 87.902344 36.707031 87.078125 36.707031 87.078125 C 36.707031 87.078125 44.621094 89.613281 44.429688 84.984375 Z M 44.429688 84.984375 "/>
<path style=" stroke:none;fill-rule:nonzero;fill:rgb(0.392157%,0.392157%,0.392157%);fill-opacity:1;" d="M 47.785156 92.214844 C 47.785156 92.214844 47.152344 90.691406 48.671875 89.675781 C 50.253906 88.664062 51.390625 88.789062 51.960938 87.078125 C 52.53125 85.367188 52.40625 83.464844 52.277344 82.894531 C 52.152344 82.324219 53.671875 85.554688 53.988281 87.585938 C 54.304688 89.613281 54.621094 87.585938 54.621094 87.585938 C 54.621094 87.585938 52.59375 83.148438 52.40625 81.308594 C 52.214844 79.46875 52.214844 77.820312 53.039062 76.109375 C 53.859375 74.335938 54.492188 73.765625 54.875 72.941406 C 55.191406 72.242188 55.191406 71.734375 55.886719 69.960938 C 56.582031 68.183594 56.835938 67.679688 56.835938 67.679688 C 56.835938 67.679688 58.734375 64 56.835938 61.527344 C 54.9375 59.054688 56.203125 60.703125 56.203125 60.703125 C 56.203125 60.703125 57.277344 62.921875 56.960938 64.824219 C 56.644531 66.726562 55.507812 69.074219 55.507812 69.074219 L 55.125 69.644531 C 55.125 69.644531 55.0625 67.550781 54.621094 66.410156 C 54.175781 65.332031 54.746094 68.628906 54.621094 69.644531 C 54.492188 70.65625 54.113281 72.6875 53.039062 74.523438 C 51.960938 76.363281 51.707031 76.808594 51.582031 78.203125 C 51.519531 79.597656 51.390625 80.675781 51.390625 80.675781 C 51.390625 80.675781 50.316406 82.007812 50.253906 83.71875 C 50.191406 85.429688 50.191406 85.429688 50.191406 85.429688 C 50.191406 85.429688 49.175781 82.894531 49.367188 80.613281 C 49.558594 78.328125 49.9375 76.300781 49.9375 76.300781 C 49.9375 76.300781 48.480469 79.46875 48.796875 81.4375 C 49.050781 83.335938 49.367188 86.316406 49.367188 86.316406 C 49.367188 86.316406 48.796875 87.964844 48.039062 89.042969 C 47.277344 90.121094 46.898438 90.5 46.960938 91.960938 C 46.960938 93.480469 47.277344 94.179688 47.277344 94.179688 Z M 47.785156 92.214844 "/>
<path style=" stroke:none;fill-rule:nonzero;fill:rgb(0.392157%,0.392157%,0.392157%);fill-opacity:1;" d="M 44.621094 84.984375 C 44.621094 84.984375 46.074219 84.859375 45.507812 83.335938 C 45 81.878906 43.542969 80.359375 43.542969 80.359375 L 45.191406 80.992188 C 45.191406 80.992188 46.011719 81.941406 45.949219 82.703125 C 45.886719 83.464844 46.519531 82.578125 46.265625 80.546875 C 46.011719 78.519531 45.824219 78.140625 45.824219 78.140625 C 45.824219 78.140625 47.46875 80.484375 46.519531 83.210938 C 45.632812 85.9375 44.746094 86 44.683594 88.15625 C 44.621094 90.375 45.125 91.644531 46.011719 92.53125 C 46.960938 93.417969 47.214844 93.671875 47.214844 93.671875 C 47.214844 93.671875 44.9375 93.226562 44.304688 90.4375 C 43.796875 87.710938 44.175781 86.253906 44.621094 84.984375 Z M 44.621094 84.984375 "/>
<path style=" stroke:none;fill-rule:nonzero;fill:rgb(0.392157%,0.392157%,0.392157%);fill-opacity:1;" d="M 48.226562 80.929688 C 48.226562 80.929688 47.722656 82.957031 46.898438 84.859375 C 46.074219 86.761719 45 88.410156 45.757812 90.628906 C 46.457031 92.847656 47.339844 93.671875 47.339844 93.671875 C 47.339844 93.671875 45.757812 90.882812 46.582031 88.917969 C 47.40625 86.953125 47.847656 86.128906 48.292969 84.859375 C 48.671875 83.589844 49.367188 81.308594 48.226562 80.929688 Z M 48.226562 80.929688 "/>
<path style=" stroke:none;fill-rule:nonzero;fill:rgb(0.392157%,0.392157%,0.392157%);fill-opacity:1;" d="M 41.011719 66.789062 C 41.011719 66.789062 40.253906 65.460938 39.304688 61.84375 C 38.480469 58.613281 38.417969 56.648438 40 54.363281 C 41.644531 52.082031 44.050781 50.75 47.910156 49.230469 C 51.773438 47.707031 53.355469 47.265625 55.191406 45.996094 C 56.960938 44.792969 57.660156 44.21875 57.660156 44.21875 C 57.660156 44.21875 57.214844 45.996094 54.175781 47.835938 C 51.457031 49.484375 43.480469 51.066406 41.457031 54.300781 C 40.253906 56.457031 39.746094 55.824219 41.011719 66.789062 Z M 41.011719 66.789062 "/>
<path style=" stroke:none;fill-rule:nonzero;fill:rgb(0.392157%,0.392157%,0.392157%);fill-opacity:1;" d="M 40.125 63.238281 C 40.125 63.238281 39.808594 67.550781 41.140625 69.898438 C 42.46875 72.242188 43.480469 74.398438 45.441406 74.398438 C 47.40625 74.398438 47.910156 74.398438 47.910156 74.398438 L 46.898438 75.984375 C 46.898438 75.984375 43.796875 76.492188 42.339844 74.398438 C 40.886719 72.304688 39.9375 68.945312 40 68.945312 C 40.0625 68.945312 41.011719 75.160156 43.925781 76.679688 C 46.519531 78.011719 46.773438 77.378906 46.773438 77.378906 C 46.773438 77.378906 47.152344 81.246094 46.835938 81.246094 C 46.582031 81.246094 42.40625 79.214844 40.632812 76.492188 C 38.925781 73.828125 37.910156 73.003906 40.125 63.238281 Z M 40.125 63.238281 "/>
<path style=" stroke:none;fill-rule:nonzero;fill:rgb(0.392157%,0.392157%,0.392157%);fill-opacity:1;" d="M 49.050781 83.589844 C 49.050781 83.589844 45 77.566406 46.582031 75.476562 C 48.164062 73.382812 49.367188 71.671875 50.695312 70.277344 C 51.960938 68.882812 53.164062 67.425781 53.988281 65.839844 C 54.808594 64.191406 54.683594 59.753906 54.683594 59.753906 C 54.683594 59.753906 55.378906 64.316406 55 65.078125 C 54.621094 65.839844 55.378906 64.316406 55.378906 64.316406 C 55.378906 64.316406 55.757812 63.113281 55.824219 62.226562 C 55.886719 61.402344 55.886719 59.5625 55.757812 58.042969 C 55.570312 56.519531 55.191406 55.253906 55.191406 55.253906 C 55.191406 55.253906 56.582031 58.167969 56.582031 59.878906 C 56.582031 61.59375 56.898438 62.859375 55.757812 64.636719 C 54.621094 66.410156 51.203125 72.304688 50.757812 73.449219 C 49.875 75.730469 48.734375 80.992188 49.050781 83.589844 Z M 49.050781 83.589844 "/>
<path style=" stroke:none;fill-rule:nonzero;fill:rgb(0.392157%,0.392157%,0.392157%);fill-opacity:1;" d="M 51.960938 60.957031 C 51.960938 60.957031 51.707031 64 50.191406 66.347656 C 48.671875 68.691406 46.707031 72.050781 47.339844 74.714844 C 47.910156 77.378906 47.59375 76.300781 47.59375 76.300781 C 47.59375 76.300781 45.695312 70.847656 46.898438 68.375 C 48.039062 65.902344 49.304688 64.507812 50.191406 62.859375 C 51.074219 61.210938 52.46875 59.308594 53.417969 57.152344 C 54.367188 55 54.621094 53.222656 54.621094 53.222656 L 55.695312 50.179688 C 55.695312 50.179688 54.9375 54.679688 55 56.394531 C 55 58.167969 55.191406 60.832031 55.191406 61.019531 C 55.191406 61.210938 54.621094 65.269531 54.621094 65.269531 C 54.621094 65.269531 54.429688 61.71875 54.175781 60.132812 C 53.925781 58.546875 54.242188 65.902344 52.785156 68.3125 C 51.457031 70.722656 54.808594 65.710938 51.960938 60.957031 Z M 51.960938 60.957031 "/>
<path style=" stroke:none;fill-rule:nonzero;fill:rgb(0.392157%,0.392157%,0.392157%);fill-opacity:1;" d="M 56.707031 45.617188 C 56.707031 45.617188 55.695312 47.644531 53.226562 48.847656 C 50.757812 49.988281 47.277344 51.636719 45.441406 53.160156 C 43.355469 54.871094 42.023438 56.074219 41.140625 59.4375 C 40.253906 62.796875 40.441406 65.269531 41.519531 68.4375 C 42.660156 71.609375 45.570312 74.273438 46.203125 74.777344 C 46.835938 75.285156 41.644531 67.933594 42.847656 61.84375 C 43.355469 59.308594 45.507812 56.328125 46.835938 54.933594 C 50.441406 51.257812 56.582031 48.46875 56.582031 45.425781 Z M 56.707031 45.617188 "/>
<path style=" stroke:none;fill-rule:nonzero;fill:rgb(0.392157%,0.392157%,0.392157%);fill-opacity:1;" d="M 46.203125 74.714844 C 46.203125 74.714844 43.355469 69.832031 43.355469 65.585938 C 43.355469 61.148438 43.925781 60.195312 46.835938 57.152344 C 49.746094 54.109375 50.378906 53.730469 51.328125 52.78125 C 52.847656 51.257812 54.492188 50.433594 55.632812 48.46875 C 56.707031 46.503906 56.773438 45.617188 56.773438 45.617188 C 56.773438 45.617188 56.390625 49.609375 53.101562 54.617188 C 49.808594 59.625 45.632812 64.128906 46.140625 68.375 C 46.644531 72.625 47.53125 75.984375 47.53125 75.984375 Z M 46.203125 74.714844 "/>
<path style=" stroke:none;fill-rule:nonzero;fill:rgb(0.392157%,0.392157%,0.392157%);fill-opacity:1;" d="M 74.429688 72.242188 C 74.429688 72.242188 74.621094 73.511719 73.355469 74.714844 C 72.089844 75.921875 71.265625 75.539062 71.519531 77.632812 C 71.773438 79.722656 71.898438 79.28125 71.898438 79.28125 C 71.898438 79.28125 70.824219 78.265625 72.339844 77.125 C 73.859375 75.921875 74.050781 76.238281 75 75.476562 C 75.824219 74.84375 76.203125 74.460938 74.429688 72.242188 Z M 74.429688 72.242188 "/>
</g>
</svg>
