<?xml version="1.0" encoding="UTF-8"?>
<svg xmlns="http://www.w3.org/2000/svg" xmlns:xlink="http://www.w3.org/1999/xlink" width="49px" height="99px" viewBox="0 0 49 99" version="1.1">
<g id="surface1">
<path style=" stroke:none;fill-rule:evenodd;fill:rgb(25.490198%,13.725491%,7.058824%);fill-opacity:1;" d="M 5.34375 51.296875 C 2.355469 51.296875 0 54.261719 0 57.945312 C 0 60.101562 0.816406 61.988281 2.171875 63.246094 C 1.992188 63.425781 1.722656 63.695312 1.539062 63.964844 C 0.90625 64.953125 0.542969 66.210938 0.542969 67.644531 C 0.542969 69.082031 0.90625 70.429688 1.539062 71.328125 C 2.171875 72.316406 3.171875 72.945312 4.257812 72.945312 C 5.34375 72.945312 6.25 72.316406 6.972656 71.328125 C 7.609375 70.339844 7.96875 69.082031 7.96875 67.644531 C 7.96875 66.300781 7.609375 65.132812 7.066406 64.234375 C 7.699219 63.964844 8.242188 63.605469 8.785156 63.066406 C 8.421875 60.640625 8.152344 58.394531 7.96875 56.058594 C 7.789062 54.621094 7.609375 53.273438 7.515625 51.835938 C 6.882812 51.476562 6.160156 51.296875 5.34375 51.296875 Z M 5.34375 51.296875 "/>
<path style=" stroke:none;fill-rule:evenodd;fill:rgb(25.490198%,13.725491%,7.058824%);fill-opacity:1;" d="M 28.167969 30.1875 C 29.890625 30.457031 31.609375 30.90625 33.148438 31.625 C 35.867188 25.605469 36.589844 19.226562 34.78125 12.21875 C 34.328125 10.960938 35.503906 10.511719 37.316406 11.949219 C 45.105469 20.125 44.109375 28.390625 38.765625 36.5625 C 38.945312 37.011719 39.128906 37.640625 39.398438 38.269531 C 44.742188 54.890625 34.871094 85.074219 25.632812 98.28125 C 24.90625 99.269531 24.183594 99.269531 23.277344 98.191406 C 14.128906 86.152344 9.964844 70.878906 8.605469 55.96875 C 7.789062 49.859375 7.609375 43.75 9.511719 37.550781 C 9.691406 37.101562 9.871094 36.742188 10.054688 36.292969 C 4.800781 28.121094 3.804688 19.945312 11.59375 11.769531 C 13.40625 10.332031 14.582031 10.78125 14.128906 12.039062 C 12.316406 19.046875 13.042969 25.425781 15.757812 31.445312 C 17.390625 30.726562 19.203125 30.277344 21.011719 30.007812 C 23.910156 23.269531 20.652344 8.175781 18.566406 3.414062 C 17.300781 -0.269531 30.886719 -2.15625 30.34375 3.503906 C 29.074219 10.421875 26.355469 22.28125 28.167969 30.1875 Z M 28.167969 30.1875 "/>
<path style=" stroke:none;fill-rule:evenodd;fill:rgb(25.490198%,13.725491%,7.058824%);fill-opacity:1;" d="M 43.65625 51.296875 C 42.929688 51.296875 42.207031 51.476562 41.574219 51.835938 C 41.390625 55.429688 40.9375 59.203125 40.214844 63.066406 C 40.847656 63.695312 41.574219 64.144531 42.296875 64.414062 C 41.84375 65.3125 41.484375 66.480469 41.484375 67.734375 C 41.484375 69.171875 41.84375 70.519531 42.480469 71.417969 C 43.113281 72.40625 44.109375 73.035156 45.195312 73.035156 C 46.28125 73.035156 47.1875 72.40625 47.914062 71.417969 C 48.546875 70.429688 48.910156 69.171875 48.910156 67.734375 C 48.910156 66.300781 48.546875 64.953125 47.914062 64.054688 C 47.640625 63.695312 47.371094 63.335938 47.097656 63.066406 C 48.277344 61.808594 49 60.011719 49 58.035156 C 49 54.261719 46.554688 51.296875 43.65625 51.296875 Z M 43.65625 51.296875 "/>
<path style=" stroke:none;fill-rule:evenodd;fill:rgb(100%,100%,100%);fill-opacity:1;" d="M 17.390625 58.214844 C 14.945312 58.214844 12.863281 58.484375 12.863281 58.753906 C 12.863281 59.023438 14.855469 59.292969 17.390625 59.292969 C 19.835938 59.292969 21.917969 59.023438 21.917969 58.753906 C 21.917969 58.484375 19.835938 58.214844 17.390625 58.214844 Z M 17.390625 58.214844 "/>
<path style=" stroke:none;fill-rule:evenodd;fill:rgb(100%,100%,100%);fill-opacity:1;" d="M 31.792969 58.394531 C 29.34375 58.394531 27.261719 58.664062 27.261719 58.933594 C 27.261719 59.203125 29.253906 59.472656 31.792969 59.472656 C 34.238281 59.472656 36.320312 59.203125 36.320312 58.933594 C 36.230469 58.574219 34.238281 58.394531 31.792969 58.394531 Z M 31.792969 58.394531 "/>
<path style=" stroke:none;fill-rule:evenodd;fill:rgb(100%,100%,100%);fill-opacity:1;" d="M 24.363281 80.222656 C 21.195312 80.222656 18.65625 81.03125 18.65625 82.019531 C 18.65625 83.007812 21.195312 83.816406 24.363281 83.816406 C 27.535156 83.816406 30.070312 83.007812 30.070312 82.019531 C 30.070312 81.03125 27.535156 80.222656 24.363281 80.222656 Z M 24.363281 80.222656 "/>
<path style=" stroke:none;fill-rule:evenodd;fill:rgb(100%,100%,100%);fill-opacity:1;" d="M 46.375 63.515625 C 45.558594 64.144531 44.5625 64.503906 43.566406 64.503906 C 43.476562 64.503906 43.292969 64.503906 43.203125 64.503906 C 42.660156 65.3125 42.386719 66.390625 42.386719 67.644531 C 42.386719 68.902344 42.75 70.070312 43.292969 70.878906 C 43.835938 71.6875 44.472656 72.136719 45.285156 72.136719 C 46.011719 72.136719 46.734375 71.6875 47.277344 70.878906 C 47.824219 70.070312 48.183594 68.902344 48.183594 67.644531 C 48.183594 66.390625 47.824219 65.222656 47.277344 64.414062 C 47.007812 64.054688 46.734375 63.785156 46.375 63.515625 Z M 46.375 63.515625 "/>
<path style=" stroke:none;fill-rule:evenodd;fill:rgb(100%,100%,100%);fill-opacity:1;" d="M 2.808594 63.695312 C 3.53125 64.234375 4.4375 64.503906 5.34375 64.503906 C 5.617188 64.503906 5.886719 64.503906 6.160156 64.414062 C 6.703125 65.222656 6.972656 66.390625 6.972656 67.554688 C 6.972656 68.8125 6.613281 69.980469 6.070312 70.789062 C 5.523438 71.597656 4.890625 72.046875 4.074219 72.046875 C 3.351562 72.046875 2.625 71.597656 2.082031 70.789062 C 1.539062 69.980469 1.175781 68.8125 1.175781 67.554688 C 1.175781 66.300781 1.539062 65.132812 2.082031 64.324219 C 2.445312 64.144531 2.625 63.964844 2.808594 63.695312 Z M 2.808594 63.695312 "/>
</g>
</svg>
