<?xml version="1.0" encoding="UTF-8"?>
<svg xmlns="http://www.w3.org/2000/svg" xmlns:xlink="http://www.w3.org/1999/xlink" width="72px" height="100px" viewBox="0 0 72 100" version="1.1">
<g id="surface1">
<path style=" stroke:none;fill-rule:evenodd;fill:rgb(8.235294%,9.019608%,9.411765%);fill-opacity:1;" d="M 36.109375 1.515625 C 30.460938 1.082031 16.992188 -3.679688 17.207031 6.277344 C 13.949219 4.113281 9.605469 6.925781 7.652344 9.308594 C 7 9.957031 6.5625 10.824219 6.347656 11.6875 C 6.128906 12.335938 6.347656 13.636719 6.128906 14.285156 C 5.042969 15.800781 4.609375 17.75 4.609375 19.480469 C 4.609375 26.40625 8.738281 33.117188 13.949219 37.445312 C 5.914062 40.691406 0.699219 47.617188 0.699219 56.492188 C 0.699219 60.824219 1.566406 64.933594 3.089844 68.832031 C 3.742188 70.5625 4.828125 72.292969 5.914062 73.59375 C 6.5625 74.457031 7.214844 75.109375 8.085938 75.757812 C 9.171875 76.625 9.386719 76.839844 9.605469 78.136719 C 11.996094 85.496094 13.949219 92.855469 16.339844 100.214844 C 19.597656 98.703125 22.855469 97.1875 26.117188 95.671875 C 27.855469 95.023438 29.375 94.15625 31.113281 93.507812 C 31.980469 93.074219 32.851562 92.855469 33.5 92.425781 C 34.152344 92.207031 35.238281 91.125 35.890625 91.34375 C 36.542969 91.34375 37.628906 92.207031 38.28125 92.425781 C 39.148438 92.855469 40.019531 93.074219 40.671875 93.507812 C 42.410156 94.15625 43.929688 95.023438 45.667969 95.671875 C 48.925781 97.1875 52.183594 98.703125 55.441406 100.214844 C 56.746094 96.320312 57.832031 92.207031 59.136719 88.3125 C 59.789062 86.363281 60.222656 84.199219 60.875 82.25 C 61.523438 80.304688 61.742188 77.488281 63.261719 76.191406 C 69.347656 71.429688 71.953125 61.6875 70.867188 54.113281 C 69.78125 46.105469 65.21875 40.476562 57.613281 37.664062 C 62.828125 33.332031 66.957031 26.839844 66.957031 19.914062 C 66.957031 18.183594 66.738281 16.234375 65.652344 14.71875 C 65.21875 14.070312 65.4375 12.988281 65.21875 12.121094 C 65 11.253906 64.566406 10.390625 64.132812 9.742188 C 62.394531 7.144531 57.613281 4.328125 54.355469 6.492188 C 55.226562 -3.679688 41.539062 1.296875 36.109375 1.515625 M 36.109375 79.871094 C 31.113281 82.46875 26.117188 85.066406 21.335938 87.878906 C 20.25 85.066406 19.597656 82.25 18.730469 79.222656 C 22.421875 78.355469 26.550781 77.921875 29.375 74.890625 C 31.980469 72.292969 34.152344 67.53125 34.804688 63.851562 C 35.457031 59.308594 33.285156 56.0625 28.722656 55.195312 C 25.246094 54.546875 19.816406 56.0625 18.511719 59.742188 C 17.207031 63.417969 21.554688 66.449219 24.160156 68.183594 C 20.25 68.183594 15.90625 67.75 13.082031 64.71875 C 10.257812 61.472656 10.476562 57.144531 11.996094 53.464844 C 15.035156 45.238281 23.074219 40.910156 31.546875 42.207031 C 30.675781 38.746094 29.375 36.148438 26.984375 33.332031 C 24.8125 30.734375 22.207031 28.570312 19.816406 26.191406 C 17.644531 24.027344 15.035156 21.429688 15.472656 17.964844 C 15.90625 14.933594 19.597656 14.285156 21.988281 15.585938 C 22.855469 12.988281 24.59375 10.390625 27.636719 9.957031 C 29.15625 9.742188 30.675781 9.957031 31.980469 10.605469 C 32.414062 10.824219 33.285156 11.039062 33.9375 11.253906 C 34.371094 11.472656 35.675781 12.335938 36.109375 12.335938 C 36.542969 12.335938 37.628906 11.472656 38.0625 11.253906 C 38.714844 11.039062 39.367188 10.824219 39.800781 10.605469 C 41.105469 10.171875 42.84375 9.742188 44.144531 9.957031 C 47.1875 10.171875 49.144531 12.769531 50.011719 15.585938 C 52.402344 14.285156 56.09375 14.933594 56.527344 17.964844 C 56.964844 21.429688 54.574219 23.808594 52.183594 26.191406 C 49.792969 28.570312 46.96875 30.734375 45.015625 33.332031 C 42.84375 36.148438 41.324219 38.746094 40.453125 42.207031 C 48.707031 40.910156 56.964844 45.023438 59.789062 53.03125 C 61.089844 56.710938 61.523438 61.039062 58.917969 64.285156 C 56.09375 67.75 51.96875 68.183594 47.839844 68.183594 C 50.664062 66.234375 55.226562 62.769531 53.054688 58.875 C 51.097656 55.410156 45.667969 54.546875 42.191406 55.410156 C 38.0625 56.492188 36.109375 60.605469 37.195312 64.503906 C 38.28125 68.183594 40.019531 72.726562 43.058594 75.324219 C 45.882812 77.707031 49.792969 78.355469 53.269531 79.003906 C 52.402344 81.816406 51.53125 84.847656 50.664062 87.664062 C 45.882812 85.066406 40.886719 82.46875 36.109375 79.871094 "/>
</g>
</svg>
