<?xml version="1.0" encoding="UTF-8"?>
<svg xmlns="http://www.w3.org/2000/svg" xmlns:xlink="http://www.w3.org/1999/xlink" width="98px" height="100px" viewBox="0 0 98 100" version="1.1">
<g id="surface1">
<path style=" stroke:none;fill-rule:nonzero;fill:rgb(0.392157%,0.392157%,0.392157%);fill-opacity:1;" d="M 48.578125 30.605469 C 48.578125 30.605469 46.417969 25.464844 41.617188 25.582031 C 36.816406 25.761719 29.976562 28.929688 28.894531 30.542969 C 27.933594 32.039062 28.175781 29.46875 29.914062 27.675781 C 31.65625 25.882812 31.355469 26.242188 31.355469 26.242188 C 31.355469 26.242188 28.535156 27.914062 28.234375 29.765625 C 27.933594 31.621094 27.933594 25.523438 30.09375 23.730469 C 32.253906 21.9375 35.558594 20.679688 38.257812 20.921875 C 41.019531 21.160156 48.460938 20.980469 48.578125 30.605469 Z M 48.578125 30.605469 "/>
<path style=" stroke:none;fill-rule:nonzero;fill:rgb(0.392157%,0.392157%,0.392157%);fill-opacity:1;" d="M 36.335938 26.417969 C 36.335938 26.417969 32.855469 28.75 32.195312 29.886719 C 31.535156 31.023438 34.238281 29.230469 34.238281 29.230469 C 34.238281 29.230469 34.175781 29.109375 32.253906 31.621094 C 30.335938 34.128906 28.476562 37.597656 27.996094 39.511719 C 27.515625 41.421875 27.453125 41.183594 27.453125 41.183594 C 27.453125 41.183594 27.394531 40.167969 27.996094 37.835938 C 28.59375 35.683594 29.976562 34.25 30.753906 33.113281 C 31.234375 32.457031 32.617188 30.542969 32.617188 30.542969 L 31.117188 30.960938 C 31.117188 31.023438 31.65625 28.988281 36.335938 26.417969 Z M 36.335938 26.417969 "/>
<path style=" stroke:none;fill-rule:nonzero;fill:rgb(0.392157%,0.392157%,0.392157%);fill-opacity:1;" d="M 33.757812 27.195312 C 33.875 27.078125 27.695312 31.976562 27.453125 34.546875 C 27.15625 37.117188 27.632812 33.832031 27.632812 33.832031 C 27.632812 33.832031 28.355469 31.023438 29.316406 30.183594 C 30.933594 28.75 29.734375 29.167969 29.734375 29.167969 C 29.734375 29.167969 26.972656 31.140625 26.675781 33.292969 C 26.375 35.503906 26.433594 35.746094 26.855469 37.894531 C 27.273438 40.046875 27.515625 41.242188 27.515625 41.242188 C 27.515625 41.242188 27.933594 35.503906 29.015625 33.414062 C 30.214844 31.023438 31.835938 28.570312 33.757812 27.195312 Z M 33.757812 27.195312 "/>
<path style=" stroke:none;fill-rule:nonzero;fill:rgb(0.392157%,0.392157%,0.392157%);fill-opacity:1;" d="M 48.578125 30.605469 C 48.578125 30.605469 48.820312 25.164062 45.820312 21.996094 C 43 19.066406 40.058594 18.769531 36.335938 20.023438 C 32.554688 21.339844 31.894531 21.996094 31.894531 21.996094 C 31.894531 21.996094 38.015625 18.109375 42.039062 18.109375 C 46.238281 18.050781 48.160156 19.664062 48.640625 22.832031 C 49.058594 25.941406 49.238281 31.261719 48.578125 30.605469 Z M 48.578125 30.605469 "/>
<path style=" stroke:none;fill-rule:nonzero;fill:rgb(0.392157%,0.392157%,0.392157%);fill-opacity:1;" d="M 28.113281 38.195312 C 28.113281 38.195312 28.65625 37.179688 30.515625 37.117188 C 32.375 37.058594 32.375 37.058594 32.375 37.058594 L 33.15625 37.058594 C 33.15625 37.058594 31.296875 37.476562 30.09375 40.882812 C 28.894531 44.292969 29.554688 46.800781 27.394531 48.535156 C 25.234375 50.269531 23.195312 51.046875 23.195312 51.046875 C 23.195312 51.046875 24.992188 48.714844 26.855469 45.785156 C 28.476562 43.15625 28.175781 43.453125 28.953125 41.960938 C 29.433594 41.003906 33.394531 36.101562 28.113281 38.195312 Z M 28.113281 38.195312 "/>
<path style=" stroke:none;fill-rule:nonzero;fill:rgb(0.392157%,0.392157%,0.392157%);fill-opacity:1;" d="M 24.152344 50.628906 C 24.152344 50.628906 24.214844 48.296875 25.234375 46.921875 C 26.195312 45.546875 29.195312 40.464844 29.195312 40.464844 C 29.195312 40.464844 25.355469 45.25 24.695312 46.800781 C 23.914062 48.355469 23.011719 51.226562 24.152344 50.628906 Z M 24.152344 50.628906 "/>
<path style=" stroke:none;fill-rule:nonzero;fill:rgb(0.392157%,0.392157%,0.392157%);fill-opacity:1;" d="M 29.136719 39.808594 C 29.136719 39.808594 27.632812 42.019531 26.132812 43.335938 C 24.632812 44.710938 23.914062 45.425781 23.613281 45.605469 C 23.3125 45.785156 22.953125 46.800781 22.894531 47.699219 C 22.832031 48.59375 22.773438 49.789062 23.914062 49.96875 C 25.054688 50.148438 24.753906 49.96875 24.753906 49.96875 C 24.753906 49.96875 23.792969 50.6875 22.894531 51.285156 C 22.351562 51.644531 20.851562 54.394531 20.914062 57.082031 C 20.972656 59.773438 20.914062 58.160156 20.914062 58.160156 C 20.914062 58.160156 21.8125 55.050781 23.3125 53.914062 C 24.8125 52.71875 26.554688 51.105469 26.554688 51.105469 C 26.554688 51.105469 27.753906 49.96875 28.59375 48.773438 C 28.894531 48.296875 29.136719 47.816406 29.253906 47.398438 C 29.613281 45.90625 29.613281 45.667969 29.613281 45.667969 C 29.613281 45.667969 30.273438 48.296875 27.574219 50.746094 C 24.875 53.199219 24.214844 53.554688 23.734375 54.394531 C 23.253906 55.230469 22.59375 59.773438 23.132812 62.222656 C 23.671875 64.675781 24.515625 67.664062 25.355469 68.679688 C 26.132812 69.753906 19.59375 67.125 19.113281 63.300781 C 18.574219 59.472656 18.871094 61.625 18.871094 61.625 C 18.871094 61.625 16.351562 67.664062 17.671875 69.992188 C 19.171875 72.683594 18.152344 71.128906 18.152344 71.128906 C 18.152344 71.128906 16.53125 70.351562 16.113281 67.304688 C 15.691406 64.253906 15.8125 62.222656 17.132812 59.953125 C 18.453125 57.679688 18.453125 57.679688 18.453125 57.679688 C 18.453125 57.679688 19.53125 53.257812 20.132812 52.242188 C 20.851562 50.984375 20.851562 50.984375 20.851562 50.984375 C 20.851562 50.984375 17.972656 52.660156 17.550781 54.394531 C 17.132812 56.125 17.433594 56.484375 17.433594 56.484375 C 17.433594 56.484375 15.632812 53.496094 17.371094 50.984375 C 19.113281 48.476562 19.894531 47.699219 19.894531 47.699219 C 19.894531 47.699219 20.972656 46.621094 22.292969 44.589844 C 23.554688 42.558594 24.332031 41.183594 24.332031 41.183594 C 24.332031 41.183594 26.132812 37.777344 26.734375 35.445312 C 27.335938 33.054688 27.15625 34.191406 27.15625 34.191406 C 27.15625 34.191406 24.515625 43.515625 23.492188 44.472656 C 22.535156 45.425781 24.394531 43.933594 25.59375 43.035156 C 26.496094 42.140625 29.136719 39.808594 29.136719 39.808594 Z M 29.136719 39.808594 "/>
<path style=" stroke:none;fill-rule:nonzero;fill:rgb(0.392157%,0.392157%,0.392157%);fill-opacity:1;" d="M 17.371094 54.453125 C 17.371094 54.453125 16.292969 50.6875 17.3125 48.59375 C 18.332031 46.503906 18.632812 45.726562 20.191406 43.992188 C 21.753906 42.257812 23.792969 40.527344 24.753906 39.03125 C 25.714844 37.539062 26.855469 34.191406 26.855469 34.191406 L 27.15625 32.996094 C 27.15625 32.996094 25.472656 37 22.171875 38.492188 C 18.871094 39.988281 16.171875 41.183594 14.191406 43.515625 C 12.210938 45.847656 10.769531 48.476562 11.910156 50.984375 C 13.050781 53.496094 14.492188 55.050781 16.292969 56.1875 C 18.453125 57.621094 18.871094 57.261719 18.871094 57.261719 C 18.871094 57.261719 13.410156 53.914062 12.929688 50.984375 C 12.449219 48.058594 12.691406 47.757812 13.351562 46.503906 C 14.011719 45.308594 13.890625 45.546875 13.890625 45.546875 C 13.890625 45.546875 13.171875 47.160156 14.132812 49.3125 C 15.03125 51.464844 15.992188 53.316406 15.992188 53.316406 C 15.992188 53.316406 14.910156 49.910156 14.613281 48.238281 C 14.3125 46.621094 14.371094 46.382812 14.851562 45.546875 C 15.332031 44.710938 17.070312 43.035156 17.070312 43.035156 C 17.070312 43.035156 15.511719 44.292969 15.75 48.117188 C 15.992188 52.0625 16.53125 53.914062 17.371094 54.453125 Z M 17.371094 54.453125 "/>
<path style=" stroke:none;fill-rule:nonzero;fill:rgb(0.392157%,0.392157%,0.392157%);fill-opacity:1;" d="M 24.214844 34.90625 C 24.214844 34.90625 20.851562 37.058594 18.992188 38.671875 C 17.132812 40.226562 13.410156 42.796875 12.691406 45.667969 C 11.910156 48.535156 11.789062 49.613281 11.789062 49.613281 C 11.789062 49.613281 11.671875 59.292969 12.449219 62.941406 C 13.230469 66.527344 12.871094 64.734375 12.871094 64.734375 C 12.871094 64.734375 11.910156 63.957031 10.589844 59.175781 C 9.332031 54.394531 9.511719 52.242188 9.511719 50.449219 C 9.511719 48.714844 10.109375 41.660156 11.011719 39.75 C 12.152344 37.359375 13.53125 34.308594 15.75 32.875 C 17.972656 31.5 18.332031 31.5 18.332031 31.5 C 18.332031 31.5 19.894531 33.59375 20.613281 33.890625 C 21.152344 34.128906 18.390625 35.503906 16.230469 37.957031 C 14.371094 40.046875 13.050781 43.097656 12.75 44.050781 C 12.03125 46.203125 13.171875 40.046875 24.214844 34.90625 Z M 24.214844 34.90625 "/>
<path style=" stroke:none;fill-rule:nonzero;fill:rgb(0.392157%,0.392157%,0.392157%);fill-opacity:1;" d="M 13.171875 65.332031 C 13.171875 65.332031 12.449219 63.597656 12.8125 61.085938 C 13.171875 58.578125 13.472656 57.382812 13.472656 57.382812 L 14.191406 54.574219 C 14.191406 54.574219 13.769531 61.085938 14.191406 63.359375 C 14.613281 65.628906 16.171875 68.621094 16.832031 69.335938 C 17.492188 70.054688 17.492188 70.054688 17.492188 70.054688 C 17.492188 70.054688 15.75 68.796875 15.152344 67.484375 C 14.492188 66.167969 14.492188 65.808594 14.492188 65.808594 C 14.492188 65.808594 15.933594 72.386719 16.890625 74.597656 C 17.851562 76.808594 20.613281 81.710938 20.613281 81.710938 C 20.613281 81.710938 16.113281 74.238281 15.273438 71.367188 C 14.429688 68.5 13.53125 64.195312 13.589844 62.882812 C 13.589844 61.507812 13.109375 64.496094 13.171875 65.332031 Z M 13.171875 65.332031 "/>
<path style=" stroke:none;fill-rule:nonzero;fill:rgb(0.392157%,0.392157%,0.392157%);fill-opacity:1;" d="M 18.691406 32.695312 C 18.691406 32.695312 19.710938 34.128906 22.59375 33.832031 C 25.472656 33.53125 27.15625 32.695312 27.15625 32.695312 C 27.15625 32.695312 23.554688 37.179688 18.691406 32.695312 Z M 18.691406 32.695312 "/>
<path style=" stroke:none;fill-rule:nonzero;fill:rgb(0.392157%,0.392157%,0.392157%);fill-opacity:1;" d="M 10.769531 42.4375 C 10.769531 42.4375 7.167969 51.34375 7.410156 53.496094 C 7.648438 55.707031 7.589844 56.066406 7.589844 56.066406 C 7.589844 56.066406 5.847656 50.925781 6.148438 48.238281 C 6.570312 44.351562 7.828125 41.902344 9.089844 40.226562 C 10.351562 38.554688 9.929688 39.867188 9.929688 39.867188 C 9.929688 39.867188 8.851562 41.542969 8.070312 44.050781 C 6.929688 47.878906 7.167969 48.417969 7.167969 51.285156 C 7.167969 51.226562 8.25 44.949219 10.769531 42.4375 Z M 10.769531 42.4375 "/>
<path style=" stroke:none;fill-rule:nonzero;fill:rgb(0.392157%,0.392157%,0.392157%);fill-opacity:1;" d="M 11.492188 40.347656 C 11.492188 40.347656 11.492188 36.519531 13.953125 32.695312 C 16.53125 28.691406 19.894531 27.257812 19.894531 27.257812 C 19.894531 27.257812 18.871094 29.289062 18.933594 30.125 C 18.992188 32.335938 18.933594 30.960938 18.933594 30.960938 C 18.933594 30.960938 18.574219 31.261719 19.351562 29.347656 C 19.953125 27.855469 22.652344 25.402344 22.652344 25.402344 C 22.652344 25.402344 24.035156 24.089844 24.574219 23.730469 C 25.59375 23.074219 28.65625 21.875 29.136719 21.699219 C 29.675781 21.519531 30.636719 20.441406 31.355469 19.726562 C 32.074219 19.007812 35.558594 16.617188 37.957031 16.558594 C 40.359375 16.496094 41.136719 16.558594 41.136719 16.558594 C 41.136719 16.558594 35.257812 13.628906 29.613281 16.914062 C 23.914062 20.144531 23.195312 20.921875 23.195312 20.921875 C 23.195312 20.921875 21.394531 21.578125 20.011719 22.234375 C 18.632812 22.894531 15.210938 24.027344 11.492188 27.855469 C 10.230469 29.109375 7.53125 33.234375 8.191406 36.519531 C 8.851562 39.808594 9.992188 43.515625 11.492188 40.347656 Z M 11.492188 40.347656 "/>
<path style=" stroke:none;fill-rule:nonzero;fill:rgb(0.392157%,0.392157%,0.392157%);fill-opacity:1;" d="M 6.75 40.226562 C 6.75 40.226562 6.089844 42.976562 6.089844 44.710938 C 6.089844 46.445312 6.449219 49.253906 6.449219 49.253906 C 6.449219 49.253906 6.570312 41.183594 6.75 40.226562 Z M 6.75 40.226562 "/>
<path style=" stroke:none;fill-rule:nonzero;fill:rgb(0.392157%,0.392157%,0.392157%);fill-opacity:1;" d="M 9.449219 32.15625 C 9.449219 32.15625 8.070312 34.789062 6.089844 37.359375 C 4.648438 39.210938 1.589844 41.902344 0.6875 40.167969 C -0.210938 38.492188 0.0859375 39.332031 0.0859375 39.332031 C 0.0859375 39.332031 2.789062 43.394531 6.089844 41.242188 C 9.390625 39.03125 9.449219 37.777344 9.449219 37.777344 L 9.449219 37.058594 C 9.449219 37.058594 7.828125 38.972656 6.089844 40.226562 C 4.769531 41.125 3.390625 41.242188 3.390625 41.242188 C 3.390625 41.242188 8.25 37.539062 9.449219 32.15625 Z M 9.449219 32.15625 "/>
<path style=" stroke:none;fill-rule:nonzero;fill:rgb(0.392157%,0.392157%,0.392157%);fill-opacity:1;" d="M 21.03125 19.484375 C 21.03125 19.484375 15.332031 23.609375 14.371094 24.867188 C 13.410156 26.121094 11.972656 27.4375 11.972656 27.4375 L 10.171875 29.648438 C 10.171875 29.648438 8.96875 28.570312 9.808594 25.523438 C 10.652344 22.414062 12.03125 19.425781 14.371094 17.214844 C 16.773438 15.003906 16.773438 15.003906 16.773438 15.003906 C 16.773438 15.003906 17.433594 13.210938 18.390625 12.550781 C 19.351562 11.894531 20.613281 11.597656 21.574219 11.476562 C 22.535156 11.355469 26.914062 12.074219 27.214844 12.730469 C 27.515625 13.328125 27.214844 13.148438 27.214844 13.148438 C 27.214844 13.148438 20.792969 10.519531 18.753906 14.105469 C 17.972656 15.421875 18.453125 18.171875 18.453125 18.171875 L 19.414062 17.273438 L 19.773438 16.019531 C 19.773438 16.019531 20.3125 15.839844 20.371094 15.421875 C 20.433594 15.003906 21.453125 14.046875 21.453125 14.046875 L 22.714844 13.925781 L 23.3125 13.210938 C 23.3125 13.210938 23.734375 12.613281 24.273438 13.210938 C 24.875 13.808594 25.113281 14.824219 25.773438 14.585938 C 26.496094 14.285156 27.816406 13.988281 27.816406 13.988281 L 28.59375 13.867188 L 35.855469 14.046875 C 35.855469 14.046875 39.519531 15.421875 40.238281 15.960938 C 40.957031 16.496094 40.238281 16.316406 40.238281 16.316406 C 40.238281 16.316406 29.136719 14.167969 21.03125 19.484375 Z M 21.03125 19.484375 "/>
<path style=" stroke:none;fill-rule:nonzero;fill:rgb(0.392157%,0.392157%,0.392157%);fill-opacity:1;" d="M 29.554688 20.503906 C 29.554688 20.503906 27.574219 24.269531 25.714844 25.941406 C 23.855469 27.613281 21.8125 28.929688 21.574219 29.050781 C 21.332031 29.167969 16.351562 31.378906 17.550781 31.023438 C 17.792969 30.960938 24.992188 28.210938 26.792969 25.941406 C 28.59375 23.671875 29.253906 22.472656 30.515625 20.859375 C 31.714844 19.304688 32.136719 18.050781 32.136719 18.050781 C 32.136719 18.050781 30.457031 18.949219 29.554688 20.503906 Z M 29.554688 20.503906 "/>
<path style=" stroke:none;fill-rule:nonzero;fill:rgb(0.392157%,0.392157%,0.392157%);fill-opacity:1;" d="M 18.332031 32.15625 L 16.230469 31.441406 C 16.230469 31.441406 20.914062 31.621094 24.214844 29.648438 C 27.515625 27.613281 27.816406 26.898438 28.175781 26.179688 C 28.59375 25.464844 27.816406 26.359375 27.816406 28.09375 C 27.816406 29.828125 28.113281 31.023438 28.113281 31.023438 C 28.113281 31.023438 24.632812 34.128906 18.332031 32.15625 Z M 18.332031 32.15625 "/>
<path style=" stroke:none;fill-rule:nonzero;fill:rgb(0.392157%,0.392157%,0.392157%);fill-opacity:1;" d="M 27.15625 28.691406 C 30.996094 19.484375 34.117188 18.351562 36.335938 17.273438 C 38.558594 16.199219 41.078125 16.558594 41.078125 16.558594 L 40.476562 16.316406 L 36.878906 16.316406 C 36.878906 16.316406 34.175781 17.335938 31.894531 18.769531 C 29.675781 20.203125 27.15625 28.511719 27.15625 28.511719 Z M 27.15625 28.691406 "/>
<path style=" stroke:none;fill-rule:nonzero;fill:rgb(0.392157%,0.392157%,0.392157%);fill-opacity:1;" d="M 21.394531 11.835938 C 21.394531 11.835938 24.632812 9.742188 29.136719 8.785156 C 33.636719 7.832031 39.398438 6.753906 42.339844 8.785156 C 45.277344 10.820312 46.179688 13.507812 46.179688 13.507812 L 47.140625 14.941406 C 47.140625 14.941406 48.878906 17.273438 49 18.949219 C 49.121094 20.5625 49 20.859375 49 20.859375 C 49 20.859375 47.859375 17.574219 45.640625 17.15625 C 43.417969 16.738281 40.898438 16.738281 39.757812 17.691406 C 38.617188 18.648438 40.417969 16.199219 42.097656 16.199219 C 44.859375 16.199219 38.378906 16.496094 38.378906 16.496094 C 38.378906 16.496094 21.632812 11.835938 21.394531 11.835938 Z M 21.394531 11.835938 "/>
<path style=" stroke:none;fill-rule:nonzero;fill:rgb(0.392157%,0.392157%,0.392157%);fill-opacity:1;" d="M 45.757812 14.285156 C 47.378906 15.242188 46.238281 12.371094 45.21875 9.980469 C 44.257812 7.652344 44.320312 6.636719 42.160156 5.378906 C 40.476562 4.421875 35.375 3.886719 30.09375 5.5 C 24.8125 7.113281 21.332031 12.253906 21.332031 12.253906 C 21.332031 12.253906 20.554688 12.910156 23.195312 10.339844 C 25.835938 7.769531 31.296875 5.859375 33.757812 5.378906 C 36.277344 4.902344 38.199219 5.082031 41.617188 6.457031 C 45.039062 7.832031 45.757812 13.988281 45.757812 13.988281 Z M 45.757812 14.285156 "/>
<path style=" stroke:none;fill-rule:nonzero;fill:rgb(0.392157%,0.392157%,0.392157%);fill-opacity:1;" d="M 44.617188 9.027344 C 44.617188 9.027344 45.878906 9.144531 46.179688 10.101562 C 46.480469 11.058594 48.160156 15.539062 48.640625 17.632812 C 49.121094 19.726562 49.058594 19.90625 49.058594 19.90625 C 49.058594 19.90625 49.601562 18.886719 49.058594 16.855469 C 48.519531 14.824219 46.660156 7.53125 44.617188 9.027344 Z M 44.617188 9.027344 "/>
<path style=" stroke:none;fill-rule:nonzero;fill:rgb(0.392157%,0.392157%,0.392157%);fill-opacity:1;" d="M 28.714844 6.457031 C 28.714844 6.457031 23.734375 6.214844 23.734375 2.269531 C 23.734375 -1.671875 23.734375 0.65625 23.734375 0.65625 C 23.734375 0.65625 24.09375 4.601562 27.15625 5.261719 C 30.214844 5.917969 30.875 5.261719 30.875 5.261719 Z M 28.714844 6.457031 "/>
<path style=" stroke:none;fill-rule:nonzero;fill:rgb(0.392157%,0.392157%,0.392157%);fill-opacity:1;" d="M 49.179688 16.257812 C 49.179688 16.257812 48.101562 9.324219 46.597656 7.234375 C 45.097656 5.140625 43.417969 4.242188 40.476562 4.363281 C 37.539062 4.484375 33.636719 4.542969 31.355469 5.140625 C 29.074219 5.738281 25.472656 4.066406 24.632812 2.808594 C 23.792969 1.554688 23.792969 0.417969 23.792969 0.417969 C 23.792969 0.417969 26.015625 5.378906 32.4375 4.484375 C 38.859375 3.527344 43 3.226562 44.378906 4.003906 C 45.757812 4.78125 49.359375 6.035156 49.179688 16.257812 Z M 49.179688 16.257812 "/>
<path style=" stroke:none;fill-rule:nonzero;fill:rgb(0.392157%,0.392157%,0.392157%);fill-opacity:1;" d="M 20.554688 64.078125 C 20.554688 64.078125 17.011719 67.664062 17.492188 69.933594 C 17.972656 72.265625 17.972656 72.265625 17.972656 72.265625 C 17.972656 72.265625 17.671875 69.636719 18.574219 68.140625 C 19.414062 66.707031 19.050781 67.003906 19.050781 67.003906 C 19.050781 67.003906 17.914062 71.25 18.574219 74 C 19.292969 76.75 19.472656 77.945312 20.253906 79.917969 C 21.03125 81.890625 21.03125 81.890625 21.03125 81.890625 C 21.03125 81.890625 20.613281 75.851562 21.03125 72.207031 C 21.332031 69.574219 21.933594 68.621094 21.933594 68.621094 C 21.933594 68.621094 22.171875 75.671875 24.273438 78.660156 C 26.375 81.648438 28.59375 83.144531 28.59375 83.144531 C 28.59375 83.144531 25.953125 78.183594 26.015625 74.777344 C 26.074219 71.367188 26.433594 69.335938 26.433594 69.335938 C 26.433594 69.335938 24.933594 68.679688 23.671875 66.707031 C 22.351562 64.792969 20.554688 64.078125 20.554688 64.078125 Z M 20.554688 64.078125 "/>
<path style=" stroke:none;fill-rule:nonzero;fill:rgb(0.392157%,0.392157%,0.392157%);fill-opacity:1;" d="M 21.09375 68.082031 C 21.09375 68.082031 21.875 77.527344 24.214844 79.496094 C 26.554688 81.46875 27.273438 82.1875 27.273438 82.1875 C 27.273438 82.1875 20.433594 81.410156 21.09375 68.082031 Z M 21.09375 68.082031 "/>
<path style=" stroke:none;fill-rule:nonzero;fill:rgb(0.392157%,0.392157%,0.392157%);fill-opacity:1;" d="M 25.535156 69.277344 C 25.535156 69.277344 24.273438 66.109375 24.574219 62.820312 C 24.875 59.535156 25.535156 55.949219 26.375 54.511719 C 27.214844 53.078125 27.214844 53.078125 27.214844 53.078125 C 27.214844 53.078125 24.035156 61.625 25.535156 69.277344 Z M 25.535156 69.277344 "/>
<path style=" stroke:none;fill-rule:nonzero;fill:rgb(0.392157%,0.392157%,0.392157%);fill-opacity:1;" d="M 25.894531 69.992188 C 25.894531 69.992188 25.414062 64.972656 26.496094 62.820312 C 27.515625 60.667969 28.234375 59.890625 28.234375 59.890625 C 28.234375 59.890625 25.773438 66.347656 25.894531 69.992188 Z M 25.894531 69.992188 "/>
<path style=" stroke:none;fill-rule:nonzero;fill:rgb(0.392157%,0.392157%,0.392157%);fill-opacity:1;" d="M 29.554688 83.921875 C 29.554688 83.921875 26.855469 80.695312 27.15625 76.507812 C 27.453125 72.324219 27.632812 71.609375 27.632812 71.609375 L 27.816406 69.695312 L 27.933594 68.140625 C 27.933594 68.140625 26.132812 64.792969 27.035156 62.882812 C 27.875 60.96875 28.175781 60.070312 28.175781 60.070312 C 28.175781 60.070312 26.3125 55.230469 26.792969 53.914062 C 27.273438 52.660156 27.695312 50.628906 28.234375 49.910156 C 28.773438 49.191406 27.394531 52.480469 27.632812 54.511719 C 27.875 56.605469 28.59375 58.816406 28.59375 58.816406 L 29.195312 64.078125 C 29.195312 64.078125 29.796875 61.148438 29.976562 58.996094 C 30.15625 56.785156 29.976562 53.136719 29.613281 52.242188 C 29.253906 51.34375 28.535156 48.65625 28.535156 48.65625 C 28.535156 48.65625 30.09375 51.226562 30.15625 52.78125 C 30.214844 54.332031 30.15625 53.078125 30.15625 53.078125 C 30.15625 53.078125 31.777344 62.402344 31.234375 65.808594 C 30.753906 69.21875 31.234375 72.085938 31.234375 72.085938 C 31.234375 72.085938 29.855469 71.546875 29.136719 69.636719 C 28.414062 67.722656 27.574219 79.320312 29.554688 83.921875 Z M 29.554688 83.921875 "/>
<path style=" stroke:none;fill-rule:nonzero;fill:rgb(0.392157%,0.392157%,0.392157%);fill-opacity:1;" d="M 30.515625 70.769531 C 30.515625 70.769531 31.535156 71.488281 30.816406 73.101562 C 30.09375 74.65625 29.136719 76.6875 29.015625 79.199219 C 28.894531 81.710938 29.375 83.382812 29.375 83.382812 L 29.554688 84.636719 C 29.554688 84.636719 29.554688 83.683594 30.035156 82.726562 C 30.515625 81.769531 30.515625 81.769531 30.515625 81.769531 C 30.515625 81.769531 29.855469 85.355469 32.015625 87.507812 C 34.175781 89.660156 36.035156 91.273438 36.035156 91.273438 C 36.035156 91.273438 34.355469 89.839844 33.816406 86.492188 C 33.277344 83.203125 33.335938 81.292969 33.875 79.617188 C 33.996094 79.257812 34.535156 78.300781 34.535156 78.300781 C 34.535156 78.300781 31.117188 73.160156 30.996094 69.21875 C 30.875 65.332031 30.515625 70.769531 30.515625 70.769531 Z M 30.515625 70.769531 "/>
<path style=" stroke:none;fill-rule:nonzero;fill:rgb(0.392157%,0.392157%,0.392157%);fill-opacity:1;" d="M 32.496094 59.652344 C 32.496094 59.652344 33.097656 62.882812 32.796875 64.613281 C 32.4375 66.289062 32.015625 68.796875 32.496094 71.609375 C 33.15625 75.132812 32.914062 74.417969 32.914062 74.417969 C 32.914062 74.417969 32.976562 74.777344 33.15625 72.625 C 33.277344 70.472656 33.15625 70.890625 33.15625 70.890625 C 33.15625 70.890625 32.855469 74.957031 33.996094 76.507812 C 35.136719 78.125 35.855469 79.257812 36.996094 80.035156 C 38.136719 80.753906 36.15625 79.199219 36.035156 77.40625 C 35.917969 75.613281 35.917969 72.625 36.035156 72.144531 C 36.097656 71.789062 36.457031 70.171875 36.636719 69.277344 C 36.695312 68.917969 36.757812 68.679688 36.757812 68.679688 C 36.757812 68.679688 36.636719 77.765625 37.355469 79.019531 C 38.015625 80.273438 37.355469 77.105469 37.355469 77.105469 L 37.058594 69.695312 C 37.058594 69.695312 38.617188 75.253906 38.316406 77.046875 C 38.015625 78.839844 38.015625 78.839844 38.015625 78.839844 C 38.015625 78.839844 37.777344 80.515625 38.316406 78.660156 C 38.859375 76.808594 39.039062 76.089844 39.039062 76.089844 C 39.039062 76.089844 38.796875 78.601562 39.335938 79.320312 C 39.878906 80.035156 39.039062 78.722656 39.335938 77.527344 C 39.636719 76.328125 40.058594 76.03125 40.058594 76.03125 L 40.839844 76.089844 Z M 32.496094 59.652344 "/>
<path style=" stroke:none;fill-rule:nonzero;fill:rgb(0.392157%,0.392157%,0.392157%);fill-opacity:1;" d="M 36.757812 91.929688 C 36.757812 91.929688 34.417969 89.71875 34.355469 86.3125 C 34.296875 82.90625 34.355469 81.589844 34.355469 81.589844 L 35.195312 77.285156 C 35.195312 77.285156 36.035156 81.828125 36.757812 83.203125 C 37.539062 84.578125 37.058594 82.1875 37.058594 82.1875 C 37.058594 82.1875 37.117188 84.039062 37.957031 84.996094 C 38.796875 85.953125 41.019531 88.523438 41.019531 88.523438 C 41.019531 88.523438 41.136719 87.746094 41.019531 87.089844 C 40.898438 86.429688 38.015625 82.90625 38.015625 82.90625 C 38.015625 82.90625 36.757812 81.050781 36.457031 80.15625 C 36.097656 79.257812 35.675781 78.183594 35.675781 78.183594 C 35.675781 78.183594 38.496094 82.605469 39.335938 83.503906 C 40.179688 84.398438 37.835938 79.675781 38.015625 78.78125 C 38.136719 77.882812 38.617188 77.703125 38.617188 77.703125 C 38.617188 77.703125 39.097656 82.425781 40.179688 84.160156 C 41.257812 85.894531 41.078125 84.578125 41.078125 84.578125 L 42.277344 81.589844 L 42.277344 80.695312 C 42.277344 80.695312 43.179688 79.558594 43.296875 79.019531 C 43.417969 78.480469 42.699219 80.753906 42.457031 80.871094 C 42.21875 80.992188 42.457031 81.292969 42.757812 82.1875 C 43.058594 83.085938 42.820312 83.5625 43.597656 82.605469 C 44.378906 81.589844 44.558594 81.46875 45.039062 80.8125 C 45.519531 80.15625 45.578125 79.675781 45.699219 79.199219 C 45.820312 78.722656 46.058594 80.035156 45.699219 80.632812 C 45.339844 81.230469 44.800781 82.1875 44.800781 82.1875 L 45.398438 83.203125 C 45.398438 83.203125 45.339844 82.726562 45.9375 82.007812 C 46.480469 81.351562 46.898438 81.46875 47.019531 80.632812 C 47.140625 79.855469 47.140625 79.855469 47.140625 79.855469 C 47.140625 79.855469 47.199219 81.292969 46.660156 82.1875 C 46.121094 83.023438 45.9375 83.921875 45.9375 83.921875 C 45.9375 83.921875 46.058594 84.21875 46.597656 83.503906 C 46.660156 83.382812 46.71875 83.324219 46.839844 83.203125 C 47.621094 82.066406 47.800781 82.1875 47.859375 80.992188 C 47.917969 79.796875 47.859375 78.722656 47.859375 78.722656 C 47.859375 78.722656 48.820312 81.050781 47.257812 83.144531 C 45.699219 85.234375 46.78125 83.859375 46.78125 83.859375 C 46.78125 83.859375 47.5 84.339844 46.300781 85.414062 C 45.160156 86.550781 44.679688 86.789062 44.679688 86.789062 C 44.679688 86.789062 44.800781 87.507812 44.859375 89.300781 C 44.917969 91.09375 45.339844 93.1875 45.339844 93.1875 L 46.121094 95.21875 C 46.121094 95.21875 43.957031 88.402344 44.019531 87.386719 C 44.078125 86.3125 42.820312 92.46875 43.058594 94.441406 C 43.296875 96.472656 43.296875 96.472656 43.296875 96.472656 C 43.296875 96.472656 38.796875 93.722656 37.417969 90.078125 C 36.097656 86.429688 35.617188 85.476562 35.617188 85.476562 C 35.617188 85.476562 35.855469 91.214844 36.757812 91.929688 Z M 36.757812 91.929688 "/>
<path style=" stroke:none;fill-rule:nonzero;fill:rgb(0.392157%,0.392157%,0.392157%);fill-opacity:1;" d="M 49.359375 30.605469 C 49.359375 30.605469 51.519531 25.464844 56.320312 25.582031 C 61.121094 25.761719 67.964844 28.929688 69.046875 30.542969 C 70.003906 32.039062 69.765625 29.46875 68.023438 27.675781 C 66.285156 25.882812 66.585938 26.242188 66.585938 26.242188 C 66.585938 26.242188 69.40625 27.914062 69.707031 29.765625 C 70.003906 31.621094 70.003906 25.523438 67.84375 23.730469 C 65.683594 21.9375 62.382812 20.679688 59.683594 20.921875 C 56.980469 21.160156 49.539062 20.980469 49.359375 30.605469 Z M 49.359375 30.605469 "/>
<path style=" stroke:none;fill-rule:nonzero;fill:rgb(0.392157%,0.392157%,0.392157%);fill-opacity:1;" d="M 61.664062 26.417969 C 61.664062 26.417969 65.144531 28.75 65.804688 29.886719 C 66.464844 31.023438 63.761719 29.230469 63.761719 29.230469 C 63.761719 29.230469 63.824219 29.109375 65.746094 31.621094 C 67.664062 34.128906 69.523438 37.597656 70.003906 39.511719 C 70.484375 41.421875 70.546875 41.183594 70.546875 41.183594 C 70.546875 41.183594 70.605469 40.167969 70.003906 37.835938 C 69.40625 35.683594 68.023438 34.25 67.246094 33.113281 C 66.765625 32.457031 65.382812 30.542969 65.382812 30.542969 L 66.882812 30.960938 C 66.882812 31.023438 66.285156 28.988281 61.664062 26.417969 Z M 61.664062 26.417969 "/>
<path style=" stroke:none;fill-rule:nonzero;fill:rgb(0.392157%,0.392157%,0.392157%);fill-opacity:1;" d="M 64.183594 27.195312 C 64.0625 27.078125 70.246094 31.976562 70.484375 34.546875 C 70.785156 37.117188 70.304688 33.832031 70.304688 33.832031 C 70.304688 33.832031 69.585938 31.023438 68.625 30.183594 C 67.003906 28.75 68.203125 29.167969 68.203125 29.167969 C 68.203125 29.167969 70.964844 31.140625 71.265625 33.292969 C 71.566406 35.503906 71.503906 35.746094 71.085938 37.894531 C 70.664062 40.046875 70.425781 41.242188 70.425781 41.242188 C 70.425781 41.242188 70.003906 35.503906 68.925781 33.414062 C 67.785156 31.023438 66.105469 28.570312 64.183594 27.195312 Z M 64.183594 27.195312 "/>
<path style=" stroke:none;fill-rule:nonzero;fill:rgb(0.392157%,0.392157%,0.392157%);fill-opacity:1;" d="M 49.359375 30.605469 C 49.359375 30.605469 49.121094 25.164062 52.121094 21.996094 C 54.941406 19.066406 57.882812 18.769531 61.601562 20.023438 C 65.382812 21.339844 66.042969 21.996094 66.042969 21.996094 C 66.042969 21.996094 59.921875 18.109375 55.902344 18.109375 C 51.699219 18.050781 49.78125 19.664062 49.300781 22.832031 C 48.878906 25.941406 48.699219 31.261719 49.359375 30.605469 Z M 49.359375 30.605469 "/>
<path style=" stroke:none;fill-rule:nonzero;fill:rgb(0.392157%,0.392157%,0.392157%);fill-opacity:1;" d="M 69.824219 38.195312 C 69.824219 38.195312 69.285156 37.179688 67.425781 37.117188 C 65.5625 37.058594 65.5625 37.058594 65.5625 37.058594 L 64.785156 37.058594 C 64.785156 37.058594 66.644531 37.476562 67.84375 40.882812 C 69.046875 44.292969 68.386719 46.800781 70.546875 48.535156 C 72.707031 50.269531 74.746094 51.046875 74.746094 51.046875 C 74.746094 51.046875 72.945312 48.714844 71.085938 45.785156 C 69.464844 43.15625 69.765625 43.453125 68.984375 41.960938 C 68.566406 41.003906 64.605469 36.101562 69.824219 38.195312 Z M 69.824219 38.195312 "/>
<path style=" stroke:none;fill-rule:nonzero;fill:rgb(0.392157%,0.392157%,0.392157%);fill-opacity:1;" d="M 73.847656 50.628906 C 73.847656 50.628906 73.785156 48.296875 72.765625 46.921875 C 71.804688 45.546875 68.804688 40.464844 68.804688 40.464844 C 68.804688 40.464844 72.644531 45.25 73.304688 46.800781 C 74.085938 48.355469 74.925781 51.226562 73.847656 50.628906 Z M 73.847656 50.628906 "/>
<path style=" stroke:none;fill-rule:nonzero;fill:rgb(0.392157%,0.392157%,0.392157%);fill-opacity:1;" d="M 68.863281 39.808594 C 68.863281 39.808594 70.367188 42.019531 71.867188 43.335938 C 73.367188 44.710938 74.085938 45.425781 74.386719 45.605469 C 74.6875 45.785156 75.046875 46.800781 75.105469 47.699219 C 75.167969 48.59375 75.226562 49.789062 74.085938 49.96875 C 72.945312 50.148438 73.246094 49.96875 73.246094 49.96875 C 73.246094 49.96875 74.207031 50.6875 75.105469 51.285156 C 75.648438 51.644531 77.148438 54.394531 77.085938 57.082031 C 77.027344 59.773438 77.085938 58.160156 77.085938 58.160156 C 77.085938 58.160156 76.1875 55.050781 74.6875 53.914062 C 73.1875 52.71875 71.445312 51.105469 71.445312 51.105469 C 71.445312 51.105469 70.246094 49.96875 69.40625 48.773438 C 69.105469 48.296875 68.863281 47.816406 68.746094 47.398438 C 68.386719 45.90625 68.386719 45.667969 68.386719 45.667969 C 68.386719 45.667969 67.726562 48.296875 70.425781 50.746094 C 73.066406 53.199219 73.785156 53.554688 74.265625 54.394531 C 74.746094 55.230469 75.40625 59.773438 74.867188 62.222656 C 74.328125 64.675781 73.484375 67.664062 72.644531 68.679688 C 71.867188 69.753906 78.40625 67.125 78.886719 63.300781 C 79.425781 59.472656 79.128906 61.625 79.128906 61.625 C 79.128906 61.625 81.648438 67.664062 80.328125 69.992188 C 78.828125 72.683594 79.847656 71.128906 79.847656 71.128906 C 79.847656 71.128906 81.46875 70.351562 81.886719 67.304688 C 82.308594 64.253906 82.1875 62.222656 80.867188 59.953125 C 79.546875 57.679688 79.546875 57.679688 79.546875 57.679688 C 79.546875 57.679688 78.46875 53.257812 77.867188 52.242188 C 77.148438 50.984375 77.148438 50.984375 77.148438 50.984375 C 77.148438 50.984375 80.027344 52.660156 80.449219 54.394531 C 80.867188 56.125 80.566406 56.484375 80.566406 56.484375 C 80.566406 56.484375 82.367188 53.496094 80.628906 50.984375 C 78.886719 48.476562 78.105469 47.699219 78.105469 47.699219 C 78.105469 47.699219 77.027344 46.621094 75.707031 44.589844 C 74.445312 42.558594 73.667969 41.183594 73.667969 41.183594 C 73.667969 41.183594 71.867188 37.777344 71.265625 35.445312 C 70.664062 33.054688 70.84375 34.191406 70.84375 34.191406 C 70.84375 34.191406 73.484375 43.515625 74.507812 44.472656 C 75.464844 45.425781 73.605469 43.933594 72.40625 43.035156 C 71.503906 42.140625 68.863281 39.808594 68.863281 39.808594 Z M 68.863281 39.808594 "/>
<path style=" stroke:none;fill-rule:nonzero;fill:rgb(0.392157%,0.392157%,0.392157%);fill-opacity:1;" d="M 80.628906 54.453125 C 80.628906 54.453125 81.707031 50.6875 80.6875 48.59375 C 79.667969 46.503906 79.367188 45.726562 77.808594 43.992188 C 76.246094 42.257812 74.207031 40.527344 73.246094 39.03125 C 72.285156 37.539062 71.144531 34.191406 71.144531 34.191406 L 70.84375 32.996094 C 70.84375 32.996094 72.527344 37 75.828125 38.492188 C 79.128906 39.988281 81.828125 41.183594 83.808594 43.515625 C 85.789062 45.847656 87.230469 48.476562 86.089844 50.984375 C 84.949219 53.496094 83.507812 55.050781 81.707031 56.1875 C 79.546875 57.621094 79.128906 57.261719 79.128906 57.261719 C 79.128906 57.261719 84.589844 53.914062 85.070312 50.984375 C 85.550781 48.058594 85.308594 47.757812 84.648438 46.503906 C 83.988281 45.308594 84.109375 45.546875 84.109375 45.546875 C 84.109375 45.546875 84.828125 47.160156 83.867188 49.3125 C 82.96875 51.464844 82.007812 53.316406 82.007812 53.316406 C 82.007812 53.316406 83.089844 49.910156 83.386719 48.238281 C 83.6875 46.621094 83.628906 46.382812 83.148438 45.546875 C 82.667969 44.710938 80.929688 43.035156 80.929688 43.035156 C 80.929688 43.035156 82.488281 44.292969 82.25 48.117188 C 82.007812 52.0625 81.40625 53.914062 80.628906 54.453125 Z M 80.628906 54.453125 "/>
<path style=" stroke:none;fill-rule:nonzero;fill:rgb(0.392157%,0.392157%,0.392157%);fill-opacity:1;" d="M 73.785156 34.847656 C 73.785156 34.847656 77.148438 37 79.007812 38.613281 C 80.867188 40.167969 84.589844 42.738281 85.308594 45.605469 C 86.089844 48.476562 86.210938 49.550781 86.210938 49.550781 C 86.210938 49.550781 86.328125 59.234375 85.550781 62.882812 C 84.769531 66.46875 85.128906 64.675781 85.128906 64.675781 C 85.128906 64.675781 86.089844 63.898438 87.410156 59.117188 C 88.667969 54.332031 88.488281 52.183594 88.488281 50.386719 C 88.488281 48.65625 87.890625 41.601562 86.988281 39.6875 C 85.910156 37.296875 84.46875 34.25 82.25 32.816406 C 80.027344 31.441406 79.667969 31.441406 79.667969 31.441406 C 79.667969 31.441406 78.105469 33.53125 77.386719 33.832031 C 76.847656 34.070312 79.609375 35.445312 81.769531 37.894531 C 83.628906 39.988281 84.949219 43.035156 85.25 43.992188 C 85.96875 46.203125 84.769531 40.046875 73.785156 34.847656 Z M 73.785156 34.847656 "/>
<path style=" stroke:none;fill-rule:nonzero;fill:rgb(0.392157%,0.392157%,0.392157%);fill-opacity:1;" d="M 84.769531 65.332031 C 84.769531 65.332031 85.488281 63.597656 85.128906 61.085938 C 84.769531 58.578125 84.46875 57.382812 84.46875 57.382812 L 83.75 54.574219 C 83.75 54.574219 84.167969 61.085938 83.75 63.359375 C 83.328125 65.628906 81.769531 68.621094 81.109375 69.335938 C 80.449219 70.054688 80.449219 70.054688 80.449219 70.054688 C 80.449219 70.054688 82.1875 68.796875 82.789062 67.484375 C 83.449219 66.167969 83.449219 65.808594 83.449219 65.808594 C 83.449219 65.808594 82.007812 72.386719 81.046875 74.597656 C 80.085938 76.808594 77.328125 81.710938 77.328125 81.710938 C 77.328125 81.710938 81.828125 74.238281 82.667969 71.367188 C 83.507812 68.5 84.410156 64.195312 84.347656 62.882812 C 84.347656 61.507812 84.828125 64.496094 84.769531 65.332031 Z M 84.769531 65.332031 "/>
<path style=" stroke:none;fill-rule:nonzero;fill:rgb(0.392157%,0.392157%,0.392157%);fill-opacity:1;" d="M 79.246094 32.695312 C 79.246094 32.695312 78.226562 34.128906 75.347656 33.832031 C 72.464844 33.53125 70.785156 32.695312 70.785156 32.695312 C 70.785156 32.695312 74.386719 37.179688 79.246094 32.695312 Z M 79.246094 32.695312 "/>
<path style=" stroke:none;fill-rule:nonzero;fill:rgb(0.392157%,0.392157%,0.392157%);fill-opacity:1;" d="M 87.230469 42.4375 C 87.230469 42.4375 90.832031 51.34375 90.589844 53.496094 C 90.351562 55.707031 90.410156 56.066406 90.410156 56.066406 C 90.410156 56.066406 92.152344 50.925781 91.851562 48.238281 C 91.429688 44.351562 90.171875 41.902344 88.910156 40.226562 C 87.648438 38.554688 88.070312 39.867188 88.070312 39.867188 C 88.070312 39.867188 89.148438 41.542969 89.929688 44.050781 C 91.070312 47.878906 90.832031 48.417969 90.832031 51.285156 C 90.832031 51.226562 89.691406 44.949219 87.230469 42.4375 Z M 87.230469 42.4375 "/>
<path style=" stroke:none;fill-rule:nonzero;fill:rgb(0.392157%,0.392157%,0.392157%);fill-opacity:1;" d="M 86.449219 40.347656 C 86.449219 40.347656 86.449219 36.519531 83.988281 32.695312 C 81.40625 28.691406 78.046875 27.257812 78.046875 27.257812 C 78.046875 27.257812 79.066406 29.289062 79.007812 30.125 C 78.949219 32.335938 79.007812 30.960938 79.007812 30.960938 C 79.007812 30.960938 79.367188 31.261719 78.585938 29.347656 C 77.988281 27.855469 75.285156 25.402344 75.285156 25.402344 C 75.285156 25.402344 73.90625 24.089844 73.367188 23.730469 C 72.347656 23.074219 69.285156 21.875 68.804688 21.699219 C 68.265625 21.519531 67.304688 20.441406 66.585938 19.726562 C 65.863281 19.007812 62.382812 16.617188 59.984375 16.558594 C 57.582031 16.496094 56.800781 16.558594 56.800781 16.558594 C 56.800781 16.558594 62.683594 13.628906 68.324219 16.914062 C 73.964844 20.144531 74.625 20.921875 74.625 20.921875 C 74.625 20.921875 76.425781 21.578125 77.808594 22.234375 C 79.1875 22.894531 82.609375 24.027344 86.328125 27.855469 C 87.589844 29.109375 90.289062 33.234375 89.628906 36.519531 C 89.148438 39.808594 88.007812 43.515625 86.449219 40.347656 Z M 86.449219 40.347656 "/>
<path style=" stroke:none;fill-rule:nonzero;fill:rgb(0.392157%,0.392157%,0.392157%);fill-opacity:1;" d="M 91.191406 40.226562 C 91.191406 40.226562 91.851562 42.976562 91.851562 44.710938 C 91.851562 46.445312 91.492188 49.253906 91.492188 49.253906 C 91.492188 49.253906 91.371094 41.183594 91.191406 40.226562 Z M 91.191406 40.226562 "/>
<path style=" stroke:none;fill-rule:nonzero;fill:rgb(0.392157%,0.392157%,0.392157%);fill-opacity:1;" d="M 88.488281 32.15625 C 88.488281 32.15625 89.871094 34.789062 91.851562 37.359375 C 93.289062 39.210938 96.351562 41.902344 97.253906 40.167969 C 98.152344 38.492188 97.851562 39.332031 97.851562 39.332031 C 97.851562 39.332031 95.152344 43.394531 91.851562 41.242188 C 88.550781 39.03125 88.488281 37.777344 88.488281 37.777344 L 88.488281 37.058594 C 88.488281 37.058594 90.109375 38.972656 91.851562 40.226562 C 93.171875 41.183594 94.550781 41.242188 94.550781 41.242188 C 94.550781 41.242188 89.75 37.539062 88.488281 32.15625 Z M 88.488281 32.15625 "/>
<path style=" stroke:none;fill-rule:nonzero;fill:rgb(0.392157%,0.392157%,0.392157%);fill-opacity:1;" d="M 76.96875 19.484375 C 76.96875 19.484375 82.667969 23.609375 83.628906 24.867188 C 84.589844 26.121094 86.027344 27.4375 86.027344 27.4375 L 87.828125 29.648438 C 87.828125 29.648438 89.03125 28.570312 88.191406 25.523438 C 87.347656 22.414062 85.96875 19.425781 83.628906 17.214844 C 81.226562 15.003906 81.226562 15.003906 81.226562 15.003906 C 81.226562 15.003906 80.566406 13.210938 79.609375 12.550781 C 78.648438 11.894531 77.386719 11.597656 76.425781 11.476562 C 75.464844 11.355469 71.085938 12.074219 70.785156 12.730469 C 70.484375 13.328125 70.785156 13.148438 70.785156 13.148438 C 70.785156 13.148438 77.207031 10.519531 79.246094 14.105469 C 80.027344 15.421875 79.546875 18.171875 79.546875 18.171875 L 78.585938 17.273438 L 78.226562 16.019531 C 78.226562 16.019531 77.6875 15.839844 77.628906 15.421875 C 77.566406 15.003906 76.546875 14.046875 76.546875 14.046875 L 75.285156 13.925781 L 74.6875 13.210938 C 74.6875 13.210938 74.265625 12.613281 73.726562 13.210938 C 73.125 13.808594 72.886719 14.824219 72.226562 14.585938 C 71.503906 14.285156 70.183594 13.988281 70.183594 13.988281 L 69.40625 13.867188 L 62.144531 14.046875 C 62.144531 14.046875 58.480469 15.421875 57.761719 15.960938 C 57.042969 16.496094 57.761719 16.316406 57.761719 16.316406 C 57.761719 16.316406 68.863281 14.167969 76.96875 19.484375 Z M 76.96875 19.484375 "/>
<path style=" stroke:none;fill-rule:nonzero;fill:rgb(0.392157%,0.392157%,0.392157%);fill-opacity:1;" d="M 68.445312 20.503906 C 68.445312 20.503906 70.425781 24.269531 72.285156 25.941406 C 74.144531 27.613281 76.1875 28.929688 76.425781 29.050781 C 76.667969 29.167969 81.648438 31.378906 80.449219 31.023438 C 80.207031 30.960938 73.007812 28.210938 71.207031 25.941406 C 69.40625 23.671875 68.746094 22.472656 67.484375 20.859375 C 66.285156 19.304688 65.863281 18.050781 65.863281 18.050781 C 65.863281 18.050781 67.542969 18.949219 68.445312 20.503906 Z M 68.445312 20.503906 "/>
<path style=" stroke:none;fill-rule:nonzero;fill:rgb(0.392157%,0.392157%,0.392157%);fill-opacity:1;" d="M 79.609375 32.15625 L 81.769531 31.441406 C 81.769531 31.441406 77.085938 31.621094 73.785156 29.648438 C 70.484375 27.613281 70.183594 26.898438 69.824219 26.179688 C 69.40625 25.464844 70.183594 26.359375 70.183594 28.09375 C 70.183594 29.828125 69.886719 31.023438 69.886719 31.023438 C 69.886719 31.023438 73.367188 34.128906 79.609375 32.15625 Z M 79.609375 32.15625 "/>
<path style=" stroke:none;fill-rule:nonzero;fill:rgb(0.392157%,0.392157%,0.392157%);fill-opacity:1;" d="M 70.785156 28.691406 C 66.945312 19.484375 63.824219 18.351562 61.601562 17.273438 C 59.382812 16.199219 56.863281 16.558594 56.863281 16.558594 L 57.460938 16.316406 L 61.0625 16.316406 C 61.0625 16.316406 63.761719 17.335938 66.042969 18.769531 C 68.265625 20.203125 70.785156 28.511719 70.785156 28.511719 Z M 70.785156 28.691406 "/>
<path style=" stroke:none;fill-rule:nonzero;fill:rgb(0.392157%,0.392157%,0.392157%);fill-opacity:1;" d="M 76.605469 11.835938 C 76.605469 11.835938 73.367188 9.742188 68.863281 8.785156 C 64.363281 7.832031 58.601562 6.753906 55.660156 8.785156 C 52.722656 10.820312 51.820312 13.507812 51.820312 13.507812 L 50.859375 14.941406 C 50.859375 14.941406 49.121094 17.273438 49 18.949219 C 48.878906 20.5625 49 20.859375 49 20.859375 C 49 20.859375 50.140625 17.574219 52.359375 17.15625 C 54.582031 16.738281 57.101562 16.738281 58.242188 17.691406 C 59.382812 18.648438 57.582031 16.199219 55.902344 16.199219 C 53.140625 16.199219 59.621094 16.496094 59.621094 16.496094 C 59.621094 16.496094 76.308594 11.835938 76.605469 11.835938 Z M 76.605469 11.835938 "/>
<path style=" stroke:none;fill-rule:nonzero;fill:rgb(0.392157%,0.392157%,0.392157%);fill-opacity:1;" d="M 52.179688 14.285156 C 50.558594 15.242188 51.699219 12.371094 52.722656 9.980469 C 53.679688 7.652344 53.621094 6.636719 55.78125 5.378906 C 57.460938 4.421875 62.5625 3.886719 67.84375 5.5 C 73.125 7.113281 76.605469 12.253906 76.605469 12.253906 C 76.605469 12.253906 77.386719 12.910156 74.746094 10.339844 C 72.164062 7.769531 66.703125 5.859375 64.183594 5.378906 C 61.664062 4.902344 59.742188 5.082031 56.320312 6.457031 C 52.902344 7.832031 52.179688 13.988281 52.179688 13.988281 Z M 52.179688 14.285156 "/>
<path style=" stroke:none;fill-rule:nonzero;fill:rgb(0.392157%,0.392157%,0.392157%);fill-opacity:1;" d="M 53.382812 9.027344 C 53.382812 9.027344 52.121094 9.144531 51.820312 10.101562 C 51.519531 11.058594 49.839844 15.539062 49.359375 17.632812 C 48.878906 19.726562 48.941406 19.90625 48.941406 19.90625 C 48.941406 19.90625 48.398438 18.886719 48.941406 16.855469 C 49.480469 14.824219 51.339844 7.53125 53.382812 9.027344 Z M 53.382812 9.027344 "/>
<path style=" stroke:none;fill-rule:nonzero;fill:rgb(0.392157%,0.392157%,0.392157%);fill-opacity:1;" d="M 69.226562 6.457031 C 69.226562 6.457031 74.207031 6.214844 74.207031 2.269531 C 74.207031 -1.671875 74.207031 0.65625 74.207031 0.65625 C 74.207031 0.65625 73.847656 4.601562 70.785156 5.261719 C 67.726562 5.917969 67.066406 5.261719 67.066406 5.261719 Z M 69.226562 6.457031 "/>
<path style=" stroke:none;fill-rule:nonzero;fill:rgb(0.392157%,0.392157%,0.392157%);fill-opacity:1;" d="M 48.820312 16.257812 C 48.820312 16.257812 49.898438 9.324219 51.402344 7.234375 C 52.902344 5.140625 54.582031 4.242188 57.523438 4.363281 C 60.460938 4.484375 64.363281 4.542969 66.644531 5.140625 C 68.925781 5.738281 72.527344 4.066406 73.367188 2.808594 C 74.207031 1.554688 74.207031 0.417969 74.207031 0.417969 C 74.207031 0.417969 71.925781 5.378906 65.503906 4.421875 C 59.082031 3.527344 55 3.167969 53.621094 4.003906 C 52.179688 4.78125 48.640625 6.035156 48.820312 16.257812 Z M 48.820312 16.257812 "/>
<path style=" stroke:none;fill-rule:nonzero;fill:rgb(0.392157%,0.392157%,0.392157%);fill-opacity:1;" d="M 77.445312 64.078125 C 77.445312 64.078125 80.988281 67.664062 80.507812 69.933594 C 80.027344 72.265625 80.027344 72.265625 80.027344 72.265625 C 80.027344 72.265625 80.328125 69.636719 79.425781 68.140625 C 78.585938 66.707031 78.949219 67.003906 78.949219 67.003906 C 78.949219 67.003906 80.085938 71.25 79.425781 74 C 78.707031 76.75 78.527344 77.945312 77.746094 79.917969 C 76.96875 81.890625 76.96875 81.890625 76.96875 81.890625 C 76.96875 81.890625 77.386719 75.851562 76.96875 72.207031 C 76.667969 69.574219 76.066406 68.621094 76.066406 68.621094 C 76.066406 68.621094 75.828125 75.671875 73.726562 78.660156 C 71.625 81.648438 69.40625 83.144531 69.40625 83.144531 C 69.40625 83.144531 72.046875 78.242188 71.984375 74.777344 C 71.925781 71.367188 71.566406 69.335938 71.566406 69.335938 C 71.566406 69.335938 73.066406 68.679688 74.328125 66.707031 C 75.648438 64.792969 77.445312 64.078125 77.445312 64.078125 Z M 77.445312 64.078125 "/>
<path style=" stroke:none;fill-rule:nonzero;fill:rgb(0.392157%,0.392157%,0.392157%);fill-opacity:1;" d="M 76.90625 68.082031 C 76.90625 68.082031 76.125 77.527344 73.785156 79.496094 C 71.445312 81.46875 70.726562 82.1875 70.726562 82.1875 C 70.726562 82.1875 77.507812 81.410156 76.90625 68.082031 Z M 76.90625 68.082031 "/>
<path style=" stroke:none;fill-rule:nonzero;fill:rgb(0.392157%,0.392157%,0.392157%);fill-opacity:1;" d="M 72.464844 69.277344 C 72.464844 69.277344 73.726562 66.109375 73.425781 62.820312 C 73.125 59.535156 72.464844 55.949219 71.625 54.511719 C 70.785156 53.078125 70.785156 53.078125 70.785156 53.078125 C 70.785156 53.078125 73.964844 61.625 72.464844 69.277344 Z M 72.464844 69.277344 "/>
<path style=" stroke:none;fill-rule:nonzero;fill:rgb(0.392157%,0.392157%,0.392157%);fill-opacity:1;" d="M 72.105469 69.992188 C 72.105469 69.992188 72.585938 64.972656 71.503906 62.820312 C 70.484375 60.667969 69.765625 59.890625 69.765625 59.890625 C 69.765625 59.890625 72.164062 66.347656 72.105469 69.992188 Z M 72.105469 69.992188 "/>
<path style=" stroke:none;fill-rule:nonzero;fill:rgb(0.392157%,0.392157%,0.392157%);fill-opacity:1;" d="M 68.445312 83.921875 C 68.445312 83.921875 71.144531 80.695312 70.84375 76.507812 C 70.546875 72.324219 70.367188 71.609375 70.367188 71.609375 L 70.183594 69.695312 L 70.066406 68.140625 C 70.066406 68.140625 71.867188 64.792969 70.964844 62.882812 C 70.125 60.96875 69.824219 60.070312 69.824219 60.070312 C 69.824219 60.070312 71.6875 55.230469 71.207031 53.914062 C 70.726562 52.660156 70.304688 50.628906 69.765625 49.910156 C 69.226562 49.191406 70.605469 52.480469 70.367188 54.511719 C 70.125 56.605469 69.40625 58.816406 69.40625 58.816406 L 68.804688 64.078125 C 68.804688 64.078125 68.203125 61.148438 68.023438 58.996094 C 67.84375 56.785156 68.023438 53.136719 68.386719 52.242188 C 68.746094 51.34375 69.464844 48.65625 69.464844 48.65625 C 69.464844 48.65625 67.90625 51.226562 67.84375 52.78125 C 67.785156 54.332031 67.84375 53.078125 67.84375 53.078125 C 67.84375 53.078125 66.222656 62.402344 66.765625 65.808594 C 67.246094 69.21875 66.765625 72.085938 66.765625 72.085938 C 66.765625 72.085938 68.144531 71.546875 68.863281 69.636719 C 69.523438 67.722656 70.367188 79.320312 68.445312 83.921875 Z M 68.445312 83.921875 "/>
<path style=" stroke:none;fill-rule:nonzero;fill:rgb(0.392157%,0.392157%,0.392157%);fill-opacity:1;" d="M 67.484375 70.769531 C 67.484375 70.769531 66.464844 71.488281 67.183594 73.101562 C 67.90625 74.65625 68.863281 76.6875 68.984375 79.199219 C 69.105469 81.710938 68.625 83.382812 68.625 83.382812 L 68.445312 84.636719 C 68.445312 84.636719 68.445312 83.683594 67.964844 82.726562 C 67.484375 81.769531 67.484375 81.769531 67.484375 81.769531 C 67.484375 81.769531 68.144531 85.355469 65.984375 87.507812 C 63.824219 89.660156 61.964844 91.273438 61.964844 91.273438 C 61.964844 91.273438 63.644531 89.839844 64.183594 86.492188 C 64.722656 83.203125 64.664062 81.292969 64.125 79.617188 C 64.003906 79.257812 63.464844 78.300781 63.464844 78.300781 C 63.464844 78.300781 66.882812 73.160156 67.003906 69.21875 C 67.125 65.332031 67.484375 70.769531 67.484375 70.769531 Z M 67.484375 70.769531 "/>
<path style=" stroke:none;fill-rule:nonzero;fill:rgb(0.392157%,0.392157%,0.392157%);fill-opacity:1;" d="M 65.445312 59.652344 C 65.445312 59.652344 64.84375 62.882812 65.144531 64.613281 C 65.503906 66.289062 65.925781 68.796875 65.445312 71.609375 C 64.785156 75.132812 65.023438 74.417969 65.023438 74.417969 C 65.023438 74.417969 64.964844 74.777344 64.785156 72.625 C 64.664062 70.472656 64.785156 70.890625 64.785156 70.890625 C 64.785156 70.890625 65.085938 74.957031 63.945312 76.507812 C 62.804688 78.125 62.082031 79.257812 60.941406 80.035156 C 59.800781 80.753906 61.78125 79.199219 61.902344 77.40625 C 62.023438 75.613281 62.023438 72.625 61.902344 72.144531 C 61.84375 71.789062 61.484375 70.171875 61.304688 69.277344 C 61.242188 68.917969 61.183594 68.679688 61.183594 68.679688 C 61.183594 68.679688 61.304688 77.765625 60.582031 79.019531 C 59.921875 80.273438 60.582031 77.105469 60.582031 77.105469 L 60.882812 69.695312 C 60.882812 69.695312 59.324219 75.253906 59.621094 77.046875 C 59.921875 78.839844 59.921875 78.839844 59.921875 78.839844 C 59.921875 78.839844 60.164062 80.515625 59.621094 78.660156 C 59.082031 76.808594 58.902344 76.089844 58.902344 76.089844 C 58.902344 76.089844 59.140625 78.601562 58.601562 79.320312 C 58.0625 80.035156 58.902344 78.722656 58.601562 77.527344 C 58.300781 76.328125 57.882812 76.03125 57.882812 76.03125 Z M 65.445312 59.652344 "/>
<path style=" stroke:none;fill-rule:nonzero;fill:rgb(0.392157%,0.392157%,0.392157%);fill-opacity:1;" d="M 61.183594 91.929688 C 61.183594 91.929688 63.523438 89.71875 63.582031 86.3125 C 63.644531 82.90625 63.582031 81.589844 63.582031 81.589844 L 62.742188 77.285156 C 62.742188 77.285156 61.902344 81.828125 61.183594 83.203125 C 60.402344 84.578125 60.882812 82.1875 60.882812 82.1875 C 60.882812 82.1875 60.824219 84.039062 59.984375 84.996094 C 59.140625 85.953125 56.921875 88.523438 56.921875 88.523438 C 56.921875 88.523438 56.800781 87.746094 56.921875 87.089844 C 57.042969 86.429688 59.921875 82.964844 59.921875 82.964844 C 59.921875 82.964844 61.183594 81.113281 61.484375 80.214844 C 61.84375 79.320312 62.261719 78.242188 62.261719 78.242188 C 62.261719 78.242188 59.441406 82.664062 58.601562 83.5625 C 57.761719 84.460938 60.101562 79.738281 59.921875 78.839844 C 59.800781 77.945312 59.324219 77.765625 59.324219 77.765625 C 59.324219 77.765625 58.84375 82.488281 57.761719 84.21875 C 56.683594 85.953125 56.863281 84.636719 56.863281 84.636719 L 55.660156 81.648438 L 55.660156 80.695312 C 55.660156 80.695312 54.761719 79.558594 54.640625 79.019531 C 54.519531 78.480469 55.242188 80.753906 55.480469 80.871094 C 55.722656 80.992188 55.480469 81.292969 55.179688 82.1875 C 54.882812 83.085938 55.121094 83.5625 54.339844 82.605469 C 53.5625 81.589844 53.382812 81.46875 52.902344 80.8125 C 52.421875 80.15625 52.359375 79.675781 52.242188 79.199219 C 52.121094 78.722656 51.878906 80.035156 52.242188 80.632812 C 52.601562 81.230469 53.140625 82.1875 53.140625 82.1875 L 52.539062 83.203125 C 52.539062 83.203125 52.601562 82.726562 52 82.007812 C 51.402344 81.351562 51.039062 81.46875 50.921875 80.632812 C 50.800781 79.855469 50.800781 79.855469 50.800781 79.855469 C 50.800781 79.855469 50.742188 81.292969 51.28125 82.1875 C 51.820312 83.023438 52 83.921875 52 83.921875 C 52 83.921875 51.878906 84.21875 51.339844 83.503906 C 51.28125 83.382812 51.21875 83.324219 51.101562 83.203125 C 50.320312 82.066406 50.140625 82.1875 50.082031 80.992188 C 50.019531 79.796875 50.082031 78.722656 50.082031 78.722656 C 50.082031 78.722656 49.121094 81.050781 50.679688 83.144531 C 52.242188 85.234375 51.160156 83.859375 51.160156 83.859375 C 51.160156 83.859375 50.441406 84.339844 51.640625 85.414062 C 52.78125 86.550781 53.261719 86.789062 53.261719 86.789062 C 53.261719 86.789062 53.140625 87.507812 53.082031 89.300781 C 53.019531 91.09375 52.601562 93.1875 52.601562 93.1875 L 51.820312 95.21875 C 51.820312 95.21875 53.980469 88.402344 53.921875 87.386719 C 53.859375 86.3125 55.121094 92.46875 54.882812 94.441406 C 54.640625 96.472656 54.640625 96.472656 54.640625 96.472656 C 54.640625 96.472656 59.140625 93.722656 60.523438 90.078125 C 61.84375 86.429688 62.324219 85.476562 62.324219 85.476562 C 62.324219 85.476562 62.144531 91.214844 61.183594 91.929688 Z M 61.183594 91.929688 "/>
<path style=" stroke:none;fill-rule:nonzero;fill:rgb(0.392157%,0.392157%,0.392157%);fill-opacity:1;" d="M 47.621094 82.1875 C 47.621094 82.1875 48.339844 84.039062 48.761719 84.21875 C 49.121094 84.398438 49.480469 82.425781 49.480469 82.425781 L 49.78125 79.558594 C 49.78125 79.558594 49.78125 83.261719 49.480469 83.921875 C 49.179688 84.578125 50.261719 83.203125 50.378906 82.726562 C 50.5 82.308594 50.679688 83.144531 50.679688 83.144531 C 50.679688 83.144531 50.441406 83.800781 49.78125 84.160156 C 49.179688 84.519531 48.761719 84.699219 48.761719 84.699219 C 48.761719 84.699219 47.378906 83.023438 47.621094 82.1875 Z M 47.621094 82.1875 "/>
<path style=" stroke:none;fill-rule:nonzero;fill:rgb(0.392157%,0.392157%,0.392157%);fill-opacity:1;" d="M 47.558594 82.785156 C 47.558594 82.785156 46.960938 90.078125 46.539062 91.273438 C 46.121094 92.46875 46.058594 94.980469 46.058594 94.980469 C 46.058594 94.980469 46.121094 97.308594 46.839844 98.445312 C 47.5 99.582031 46.71875 96.59375 47.621094 94.203125 C 48.519531 91.8125 49 90.914062 49.300781 89.480469 C 49.660156 88.105469 49.539062 87.027344 49.480469 85.773438 C 49.359375 84.519531 49.179688 84.28125 49.179688 84.28125 L 48.761719 84.460938 Z M 47.558594 82.785156 "/>
<path style=" stroke:none;fill-rule:nonzero;fill:rgb(0.392157%,0.392157%,0.392157%);fill-opacity:1;" d="M 49.898438 83.503906 C 49.898438 83.503906 50.980469 86.492188 50.320312 88.34375 C 49.660156 90.195312 48.640625 94.5 48.21875 95.398438 C 47.800781 96.292969 46.839844 98.386719 46.839844 98.386719 C 46.839844 98.386719 47.679688 97.90625 47.800781 97.488281 C 47.980469 97.070312 48.640625 97.96875 48.578125 98.863281 C 48.519531 99.761719 48.101562 100.597656 49.421875 99.34375 C 50.800781 98.085938 51.339844 98.027344 51.339844 96.054688 C 51.339844 94.023438 50.800781 91.75 50.800781 91.75 C 50.800781 91.75 52.359375 95.21875 52.300781 97.25 C 52.242188 99.28125 52.300781 98.328125 52.300781 98.328125 C 52.300781 98.328125 54.042969 95.636719 53.199219 92.828125 C 52.359375 90.019531 51.460938 87.269531 51.460938 87.269531 L 50.621094 83.203125 Z M 49.898438 83.503906 "/>
<path style=" stroke:none;fill-rule:nonzero;fill:rgb(0.392157%,0.392157%,0.392157%);fill-opacity:1;" d="M 43.117188 88.644531 C 43.117188 88.644531 43.957031 94.203125 45.097656 95.398438 C 46.238281 96.59375 46.597656 96.53125 46.597656 96.53125 C 46.597656 96.53125 43 90.078125 43.417969 87.628906 C 43.839844 85.117188 43.117188 88.644531 43.117188 88.644531 Z M 43.117188 88.644531 "/>
<path style=" stroke:none;fill-rule:nonzero;fill:rgb(0.392157%,0.392157%,0.392157%);fill-opacity:1;" d="M 52.359375 30.542969 C 52.359375 30.542969 56.921875 28.273438 58.902344 28.691406 C 60.882812 29.109375 60.882812 29.109375 60.882812 29.109375 C 60.882812 29.109375 55.421875 26.480469 52.359375 30.542969 Z M 52.359375 30.542969 "/>
<path style=" stroke:none;fill-rule:nonzero;fill:rgb(0.392157%,0.392157%,0.392157%);fill-opacity:1;" d="M 44.199219 29.765625 C 44.199219 29.765625 39.757812 28.332031 37.898438 28.511719 C 36.035156 28.75 35.617188 28.511719 35.617188 28.511719 C 35.617188 28.511719 42.699219 27.375 44.199219 29.765625 Z M 44.199219 29.765625 "/>
<path style=" stroke:none;fill-rule:nonzero;fill:rgb(0.392157%,0.392157%,0.392157%);fill-opacity:1;" d="M 56.203125 51.703125 C 56.203125 51.703125 56.261719 52.0625 56.621094 50.984375 C 56.980469 49.910156 56.980469 48.65625 56.980469 48.65625 L 57.402344 47.21875 C 57.402344 47.21875 57.101562 46.265625 56.800781 45.605469 C 56.5 44.949219 56.082031 44.890625 56.203125 43.875 C 56.320312 42.855469 56.203125 41.542969 56.203125 41.542969 C 56.203125 41.542969 55.300781 39.808594 56.203125 38.492188 C 57.101562 37.179688 56.621094 36.820312 57.882812 36.460938 C 59.140625 36.042969 60.101562 35.984375 61.421875 36.042969 C 62.742188 36.101562 63.34375 36.460938 64.0625 35.984375 C 64.785156 35.503906 63.34375 37.597656 61.542969 37.359375 C 59.742188 37.117188 57.640625 37 57.582031 38.136719 C 57.523438 39.269531 58.003906 39.808594 59.382812 39.570312 C 60.761719 39.332031 60.761719 39.332031 60.761719 39.332031 L 61.121094 40.226562 C 61.121094 40.226562 59.863281 40.644531 59.503906 40.644531 C 59.082031 40.644531 57.460938 40.285156 57.582031 41.542969 C 57.703125 42.796875 56.980469 42.5 57.101562 43.394531 C 57.28125 44.292969 57.101562 44.53125 57.582031 45.605469 C 58.0625 46.683594 58.242188 46.203125 57.941406 47.460938 C 57.582031 48.714844 57.34375 49.074219 57.402344 49.730469 C 57.34375 50.269531 57.523438 51.464844 56.203125 51.703125 Z M 56.203125 51.703125 "/>
<path style=" stroke:none;fill-rule:nonzero;fill:rgb(0.392157%,0.392157%,0.392157%);fill-opacity:1;" d="M 41.378906 51.703125 C 41.378906 51.703125 41.316406 52.0625 40.957031 50.984375 C 40.597656 49.910156 40.597656 48.65625 40.597656 48.65625 L 40.238281 47.160156 C 40.238281 47.160156 40.539062 46.203125 40.839844 45.546875 C 41.136719 44.890625 41.558594 44.828125 41.4375 43.8125 C 41.316406 42.796875 41.4375 41.480469 41.4375 41.480469 C 41.4375 41.480469 42.339844 39.75 41.4375 38.433594 C 40.539062 37.117188 41.019531 36.761719 39.757812 36.402344 C 38.496094 35.984375 37.539062 35.921875 36.21875 35.984375 C 34.835938 36.101562 34.296875 36.402344 33.578125 35.921875 C 32.855469 35.445312 34.296875 37.539062 36.097656 37.296875 C 37.898438 37.058594 39.996094 36.941406 40.058594 38.074219 C 40.117188 39.210938 39.636719 39.75 38.257812 39.511719 C 36.878906 39.269531 36.878906 39.269531 36.878906 39.269531 L 36.515625 40.167969 C 36.515625 40.167969 37.777344 40.585938 38.136719 40.585938 C 38.558594 40.585938 40.179688 40.226562 40.058594 41.480469 C 39.9375 42.738281 40.65625 42.4375 40.539062 43.335938 C 40.359375 44.230469 40.539062 44.472656 40.058594 45.546875 C 39.578125 46.621094 39.398438 46.144531 39.699219 47.398438 C 40.058594 48.65625 40.296875 49.015625 40.238281 49.671875 C 40.238281 50.269531 42.757812 51.464844 41.378906 51.703125 Z M 41.378906 51.703125 "/>
<path style=" stroke:none;fill-rule:nonzero;fill:rgb(0.392157%,0.392157%,0.392157%);fill-opacity:1;" d="M 61.542969 36.640625 C 61.542969 36.640625 61.601562 39.511719 60.28125 39.570312 C 59.023438 39.628906 59.984375 40.109375 59.984375 40.109375 C 59.984375 40.109375 61.421875 40.527344 61.964844 39.570312 C 62.503906 38.613281 63.703125 37.957031 63.042969 37.058594 C 62.382812 36.164062 61.542969 36.640625 61.542969 36.640625 Z M 61.542969 36.640625 "/>
<path style=" stroke:none;fill-rule:nonzero;fill:rgb(0.392157%,0.392157%,0.392157%);fill-opacity:1;" d="M 36.335938 36.761719 C 36.335938 36.761719 36.035156 37.714844 36.335938 38.375 C 36.636719 39.03125 37.238281 39.75 37.957031 39.867188 C 38.675781 39.988281 38.675781 40.226562 38.675781 40.226562 C 38.675781 40.226562 36.515625 40.765625 35.796875 39.570312 C 35.078125 38.375 33.816406 36.761719 35.078125 36.761719 C 36.335938 36.761719 36.335938 36.761719 36.335938 36.761719 Z M 36.335938 36.761719 "/>
<path style=" stroke:none;fill-rule:nonzero;fill:rgb(0.392157%,0.392157%,0.392157%);fill-opacity:1;" d="M 58.421875 36.761719 C 58.421875 36.761719 58.121094 38.851562 58.902344 38.914062 C 59.621094 38.972656 59.742188 38.492188 59.742188 38.492188 L 59.742188 36.761719 Z M 58.421875 36.761719 "/>
<path style=" stroke:none;fill-rule:nonzero;fill:rgb(0.392157%,0.392157%,0.392157%);fill-opacity:1;" d="M 39.335938 36.761719 C 39.335938 36.761719 39.578125 38.734375 38.976562 38.914062 C 38.4375 39.089844 38.316406 38.375 38.316406 38.375 L 38.316406 36.761719 Z M 39.335938 36.761719 "/>
<path style=" stroke:none;fill-rule:nonzero;fill:rgb(0.392157%,0.392157%,0.392157%);fill-opacity:1;" d="M 57.703125 42.558594 C 57.703125 42.558594 58.003906 41.78125 59.984375 41.542969 C 61.902344 41.304688 61.84375 41.660156 62.441406 40.824219 C 63.042969 39.988281 63.523438 38.433594 63.523438 38.433594 C 63.523438 38.433594 64.0625 40.644531 62.742188 41.421875 C 61.363281 42.257812 58.84375 41.839844 57.703125 42.558594 Z M 57.703125 42.558594 "/>
<path style=" stroke:none;fill-rule:nonzero;fill:rgb(0.392157%,0.392157%,0.392157%);fill-opacity:1;" d="M 34.117188 38.554688 C 34.117188 38.554688 34.054688 40.40625 35.078125 40.882812 C 36.097656 41.363281 37.65625 41.660156 37.65625 41.660156 C 37.65625 41.660156 39.039062 41.421875 39.398438 42.378906 C 39.816406 43.335938 39.097656 42.320312 38.015625 42.082031 C 36.9375 41.839844 33.578125 43.035156 34.117188 38.554688 Z M 34.117188 38.554688 "/>
<path style=" stroke:none;fill-rule:nonzero;fill:rgb(0.392157%,0.392157%,0.392157%);fill-opacity:1;" d="M 41.859375 53.019531 C 41.859375 53.019531 43.898438 54.214844 44.199219 54.394531 C 44.5 54.632812 44.679688 53.796875 47.199219 53.675781 C 49.78125 53.617188 48.519531 60.789062 48.101562 60.132812 C 47.679688 59.472656 46.71875 57.742188 46.71875 57.742188 C 46.71875 57.742188 45.160156 57.441406 44.617188 56.246094 C 44.199219 55.289062 44.140625 55.886719 44.019531 55.949219 C 43.179688 56.367188 42.457031 55.351562 41.859375 53.019531 Z M 41.859375 53.019531 "/>
<path style=" stroke:none;fill-rule:nonzero;fill:rgb(0.392157%,0.392157%,0.392157%);fill-opacity:1;" d="M 56.203125 53.019531 C 56.203125 53.019531 54.160156 54.214844 53.859375 54.394531 C 53.5625 54.632812 53.382812 53.796875 50.859375 53.675781 C 48.28125 53.617188 49.898438 60.488281 50.261719 59.832031 C 50.679688 59.175781 51.339844 57.742188 51.339844 57.742188 C 51.339844 57.742188 52.902344 57.441406 53.441406 56.246094 C 53.859375 55.289062 53.921875 55.886719 54.042969 55.949219 C 54.820312 56.367188 55.542969 55.351562 56.203125 53.019531 Z M 56.203125 53.019531 "/>
<path style=" stroke:none;fill-rule:nonzero;fill:rgb(0.392157%,0.392157%,0.392157%);fill-opacity:1;" d="M 45.878906 53.855469 C 45.878906 53.855469 50.261719 53.078125 51.878906 53.796875 C 53.5 54.511719 52.359375 55.050781 52.359375 55.050781 L 50.320312 58.398438 L 50.5 59.414062 C 50.5 59.414062 50.199219 60.132812 49.78125 60.25 C 49.300781 60.371094 47.679688 61.328125 47.558594 58.097656 C 47.441406 54.871094 46.539062 54.09375 45.878906 54.035156 C 45.21875 54.035156 45.878906 53.855469 45.878906 53.855469 Z M 45.878906 53.855469 "/>
<path style=" stroke:none;fill-rule:nonzero;fill:rgb(0.392157%,0.392157%,0.392157%);fill-opacity:1;" d="M 49.359375 59.054688 C 49.359375 59.054688 49.660156 63.300781 50.980469 64.316406 C 52.300781 65.332031 53.082031 65.570312 54.582031 65.988281 C 56.082031 66.46875 57.703125 66.527344 57.703125 66.527344 C 57.703125 66.527344 59.082031 66.648438 59.984375 66.167969 C 61.421875 65.390625 62.144531 64.375 62.324219 63.058594 C 62.503906 61.746094 63.042969 59.535156 62.625 58.160156 C 62.144531 56.785156 60.703125 54.992188 60.703125 54.992188 C 60.703125 54.992188 59.441406 52.003906 59.441406 50.6875 C 59.441406 49.371094 59.683594 52.480469 60.703125 53.976562 C 61.722656 55.46875 63.582031 57.261719 63.285156 59.355469 C 62.984375 61.445312 63.285156 62.105469 63.285156 62.105469 C 63.285156 62.105469 63.824219 61.6875 64.242188 60.730469 C 64.664062 59.714844 65.085938 57.917969 64.785156 56.902344 C 64.484375 55.886719 63.882812 53.914062 63.285156 52.957031 C 62.683594 51.941406 62.023438 51.226562 62.441406 50.148438 C 62.921875 49.074219 62.921875 48.417969 64.605469 47.996094 C 66.285156 47.578125 67.304688 47.160156 67.304688 47.160156 C 67.304688 47.160156 67.183594 47.9375 66.34375 48.175781 C 65.503906 48.417969 63.464844 48.894531 63.285156 49.492188 C 63.101562 50.03125 64.363281 49.789062 64.242188 50.746094 C 64.125 51.703125 64.125 53.976562 65.265625 53.496094 C 66.464844 53.019531 66.824219 53.496094 67.425781 54.691406 C 67.964844 55.886719 67.066406 57.859375 66.222656 58.578125 C 65.382812 59.292969 65.625 58.816406 65.984375 60.191406 C 66.40625 61.566406 62.742188 68.917969 62.742188 68.917969 C 62.742188 68.917969 60.460938 67.960938 59.984375 69.574219 C 59.503906 71.191406 58.421875 73.9375 57.703125 74.179688 C 56.980469 74.417969 60.402344 70.472656 59.082031 68.738281 C 57.703125 67.003906 56.742188 67.246094 56.742188 67.246094 C 56.742188 67.246094 56.203125 68.320312 55.121094 67.78125 C 54.222656 67.363281 53.019531 67.84375 52.539062 67.722656 C 52.0625 67.601562 51.460938 67.421875 51.21875 67.902344 C 50.980469 68.378906 50.679688 69.335938 50.679688 69.335938 C 50.679688 69.335938 50.199219 68.320312 50.082031 68.199219 C 49.898438 68.082031 49.179688 67.78125 49.179688 67.78125 C 49.179688 67.78125 48.28125 61.445312 49.359375 59.054688 Z M 49.359375 59.054688 "/>
<path style=" stroke:none;fill-rule:nonzero;fill:rgb(0.392157%,0.392157%,0.392157%);fill-opacity:1;" d="M 48.699219 59.59375 C 48.699219 59.59375 48.398438 63.300781 47.078125 64.316406 C 45.757812 65.332031 44.980469 65.570312 43.480469 65.988281 C 41.976562 66.46875 40.359375 66.527344 40.359375 66.527344 C 40.359375 66.527344 38.976562 66.648438 38.078125 66.167969 C 36.636719 65.390625 35.917969 64.375 35.738281 63.058594 C 35.558594 61.746094 35.015625 59.535156 35.4375 58.160156 C 35.917969 56.785156 37.355469 54.992188 37.355469 54.992188 C 37.355469 54.992188 38.617188 52.003906 38.617188 50.6875 C 38.617188 49.371094 38.378906 52.480469 37.355469 53.976562 C 36.335938 55.46875 34.476562 57.261719 34.777344 59.355469 C 35.078125 61.445312 34.777344 62.105469 34.777344 62.105469 C 34.777344 62.105469 34.238281 61.6875 33.816406 60.730469 C 33.394531 59.714844 32.976562 57.917969 33.277344 56.902344 C 33.578125 55.886719 34.175781 53.914062 34.777344 52.957031 C 35.375 51.941406 36.035156 51.226562 35.617188 50.148438 C 35.136719 49.074219 35.136719 48.417969 33.457031 47.996094 C 31.835938 47.699219 30.816406 47.21875 30.816406 47.21875 C 30.816406 47.21875 30.933594 47.996094 31.777344 48.238281 C 32.617188 48.476562 34.65625 48.953125 34.835938 49.550781 C 35.015625 50.089844 33.757812 49.851562 33.875 50.808594 C 33.996094 51.761719 33.996094 54.035156 32.855469 53.554688 C 31.65625 53.078125 31.296875 53.554688 30.695312 54.75 C 30.15625 55.949219 31.054688 57.917969 31.894531 58.636719 C 32.734375 59.355469 32.496094 58.875 32.136719 60.25 C 31.714844 61.625 35.375 68.976562 35.375 68.976562 C 35.375 68.976562 37.65625 68.023438 38.136719 69.636719 C 38.617188 71.25 39.699219 74 40.417969 74.238281 C 41.136719 74.476562 38.015625 70.292969 39.398438 68.558594 C 40.777344 66.824219 41.378906 67.246094 41.378906 67.246094 C 41.378906 67.246094 41.859375 68.441406 43 67.78125 C 43.898438 67.304688 45.097656 67.84375 45.578125 67.722656 C 46.058594 67.601562 46.660156 67.421875 46.898438 67.902344 C 47.140625 68.378906 47.441406 69.335938 47.441406 69.335938 C 47.441406 69.335938 47.917969 68.320312 48.039062 68.199219 C 48.21875 68.082031 49.601562 67.722656 49.601562 67.722656 C 49.601562 67.722656 49.78125 61.925781 48.699219 59.59375 Z M 48.699219 59.59375 "/>
<path style=" stroke:none;fill-rule:nonzero;fill:rgb(0.392157%,0.392157%,0.392157%);fill-opacity:1;" d="M 58.0625 73.222656 C 58.0625 73.222656 56.441406 75.851562 53.742188 75.972656 C 51.039062 76.089844 48.519531 76.449219 47.441406 76.390625 C 46.359375 76.269531 41.976562 75.492188 41.316406 74.957031 C 40.65625 74.476562 39.816406 72.386719 39.816406 72.386719 C 39.816406 72.386719 39.878906 74.359375 40.179688 74.777344 C 40.539062 75.195312 41.859375 76.03125 41.859375 76.03125 C 41.859375 76.03125 48.101562 76.6875 49.660156 76.570312 C 51.21875 76.570312 59.140625 76.152344 58.0625 73.222656 Z M 58.0625 73.222656 "/>
<path style=" stroke:none;fill-rule:nonzero;fill:rgb(0.392157%,0.392157%,0.392157%);fill-opacity:1;" d="M 39.816406 58.398438 C 39.816406 58.636719 39.578125 58.816406 39.277344 58.816406 C 38.976562 58.816406 38.738281 58.636719 38.738281 58.398438 C 38.738281 58.160156 38.976562 57.980469 39.277344 57.980469 C 39.578125 57.980469 39.816406 58.160156 39.816406 58.398438 Z M 39.816406 58.398438 "/>
<path style=" stroke:none;fill-rule:nonzero;fill:rgb(0.392157%,0.392157%,0.392157%);fill-opacity:1;" d="M 43.238281 59.953125 C 43.238281 60.070312 43.117188 60.25 43 60.25 C 42.878906 60.25 42.699219 60.132812 42.699219 59.953125 C 42.699219 59.832031 42.820312 59.714844 43 59.714844 C 43.117188 59.652344 43.238281 59.773438 43.238281 59.953125 Z M 43.238281 59.953125 "/>
<path style=" stroke:none;fill-rule:nonzero;fill:rgb(0.392157%,0.392157%,0.392157%);fill-opacity:1;" d="M 42.339844 56.964844 C 42.339844 57.261719 42.097656 57.5 41.796875 57.5 C 41.5 57.5 41.257812 57.261719 41.257812 56.964844 C 41.257812 56.664062 41.5 56.425781 41.796875 56.425781 C 42.097656 56.484375 42.339844 56.722656 42.339844 56.964844 Z M 42.339844 56.964844 "/>
<path style=" stroke:none;fill-rule:nonzero;fill:rgb(0.392157%,0.392157%,0.392157%);fill-opacity:1;" d="M 41.078125 63.898438 C 41.078125 64.195312 40.839844 64.496094 40.476562 64.496094 C 40.179688 64.496094 39.878906 64.253906 39.878906 63.898438 C 39.878906 63.597656 40.117188 63.300781 40.476562 63.300781 C 40.839844 63.300781 41.078125 63.539062 41.078125 63.898438 Z M 41.078125 63.898438 "/>
<path style=" stroke:none;fill-rule:nonzero;fill:rgb(0.392157%,0.392157%,0.392157%);fill-opacity:1;" d="M 46.660156 62.222656 C 46.660156 62.523438 46.417969 62.761719 46.121094 62.761719 C 45.820312 62.761719 45.578125 62.523438 45.578125 62.222656 C 45.578125 61.925781 45.820312 61.6875 46.121094 61.6875 C 46.417969 61.746094 46.660156 61.984375 46.660156 62.222656 Z M 46.660156 62.222656 "/>
<path style=" stroke:none;fill-rule:nonzero;fill:rgb(0.392157%,0.392157%,0.392157%);fill-opacity:1;" d="M 41.078125 61.027344 C 41.078125 61.207031 40.957031 61.328125 40.777344 61.328125 C 40.597656 61.328125 40.476562 61.207031 40.476562 61.027344 C 40.476562 60.847656 40.597656 60.730469 40.777344 60.730469 C 40.957031 60.730469 41.078125 60.847656 41.078125 61.027344 Z M 41.078125 61.027344 "/>
<path style=" stroke:none;fill-rule:nonzero;fill:rgb(0.392157%,0.392157%,0.392157%);fill-opacity:1;" d="M 38.738281 61.804688 C 38.738281 62.222656 38.378906 62.582031 37.957031 62.582031 C 37.539062 62.582031 37.175781 62.222656 37.175781 61.804688 C 37.175781 61.386719 37.539062 61.027344 37.957031 61.027344 C 38.378906 61.027344 38.738281 61.386719 38.738281 61.804688 Z M 38.738281 61.804688 "/>
<path style=" stroke:none;fill-rule:nonzero;fill:rgb(0.392157%,0.392157%,0.392157%);fill-opacity:1;" d="M 37.175781 59.234375 C 37.175781 59.472656 36.996094 59.652344 36.757812 59.652344 C 36.515625 59.652344 36.335938 59.472656 36.335938 59.234375 C 36.335938 58.996094 36.515625 58.816406 36.757812 58.816406 C 36.996094 58.816406 37.175781 58.996094 37.175781 59.234375 Z M 37.175781 59.234375 "/>
<path style=" stroke:none;fill-rule:nonzero;fill:rgb(0.392157%,0.392157%,0.392157%);fill-opacity:1;" d="M 44.199219 63.238281 C 44.199219 63.480469 43.957031 63.71875 43.71875 63.71875 C 43.480469 63.71875 43.238281 63.480469 43.238281 63.238281 C 43.238281 63 43.480469 62.761719 43.71875 62.761719 C 43.957031 62.761719 44.199219 63 44.199219 63.238281 Z M 44.199219 63.238281 "/>
<path style=" stroke:none;fill-rule:nonzero;fill:rgb(0.392157%,0.392157%,0.392157%);fill-opacity:1;" d="M 54.582031 60.847656 C 54.582031 61.207031 54.28125 61.445312 53.980469 61.445312 C 53.621094 61.445312 53.382812 61.148438 53.382812 60.847656 C 53.382812 60.488281 53.679688 60.25 53.980469 60.25 C 54.339844 60.191406 54.582031 60.488281 54.582031 60.847656 Z M 54.582031 60.847656 "/>
<path style=" stroke:none;fill-rule:nonzero;fill:rgb(0.392157%,0.392157%,0.392157%);fill-opacity:1;" d="M 58.363281 64.914062 C 58.363281 65.152344 58.183594 65.332031 57.941406 65.332031 C 57.703125 65.332031 57.523438 65.152344 57.523438 64.914062 C 57.523438 64.675781 57.703125 64.496094 57.941406 64.496094 C 58.183594 64.496094 58.363281 64.675781 58.363281 64.914062 Z M 58.363281 64.914062 "/>
<path style=" stroke:none;fill-rule:nonzero;fill:rgb(0.392157%,0.392157%,0.392157%);fill-opacity:1;" d="M 59.082031 62.164062 C 59.082031 62.402344 58.902344 62.582031 58.664062 62.582031 C 58.421875 62.582031 58.242188 62.402344 58.242188 62.164062 C 58.242188 61.925781 58.421875 61.746094 58.664062 61.746094 C 58.84375 61.746094 59.082031 61.925781 59.082031 62.164062 Z M 59.082031 62.164062 "/>
<path style=" stroke:none;fill-rule:nonzero;fill:rgb(0.392157%,0.392157%,0.392157%);fill-opacity:1;" d="M 56.203125 63.058594 C 56.203125 63.300781 56.023438 63.480469 55.78125 63.480469 C 55.542969 63.480469 55.363281 63.300781 55.363281 63.058594 C 55.363281 62.820312 55.542969 62.640625 55.78125 62.640625 C 56.023438 62.703125 56.203125 62.882812 56.203125 63.058594 Z M 56.203125 63.058594 "/>
<path style=" stroke:none;fill-rule:nonzero;fill:rgb(0.392157%,0.392157%,0.392157%);fill-opacity:1;" d="M 52.722656 63.539062 C 52.722656 63.777344 52.539062 64.015625 52.242188 64.015625 C 52 64.015625 51.761719 63.835938 51.761719 63.539062 C 51.761719 63.300781 51.941406 63.058594 52.242188 63.058594 C 52.539062 63.058594 52.722656 63.300781 52.722656 63.539062 Z M 52.722656 63.539062 "/>
<path style=" stroke:none;fill-rule:nonzero;fill:rgb(0.392157%,0.392157%,0.392157%);fill-opacity:1;" d="M 51.820312 60.789062 C 51.820312 61.085938 51.582031 61.386719 51.21875 61.386719 C 50.859375 61.386719 50.621094 61.148438 50.621094 60.789062 C 50.621094 60.488281 50.859375 60.191406 51.21875 60.191406 C 51.582031 60.191406 51.820312 60.488281 51.820312 60.789062 Z M 51.820312 60.789062 "/>
<path style=" stroke:none;fill-rule:nonzero;fill:rgb(0.392157%,0.392157%,0.392157%);fill-opacity:1;" d="M 54.582031 57.679688 C 54.582031 57.859375 54.460938 57.980469 54.28125 57.980469 C 54.101562 57.980469 53.980469 57.859375 53.980469 57.679688 C 53.980469 57.5 54.101562 57.382812 54.28125 57.382812 C 54.460938 57.320312 54.582031 57.5 54.582031 57.679688 Z M 54.582031 57.679688 "/>
<path style=" stroke:none;fill-rule:nonzero;fill:rgb(0.392157%,0.392157%,0.392157%);fill-opacity:1;" d="M 57.941406 58.21875 C 57.941406 58.339844 57.820312 58.457031 57.703125 58.457031 C 57.582031 58.457031 57.460938 58.339844 57.460938 58.21875 C 57.460938 58.097656 57.582031 57.980469 57.703125 57.980469 C 57.882812 57.980469 57.941406 58.097656 57.941406 58.21875 Z M 57.941406 58.21875 "/>
<path style=" stroke:none;fill-rule:nonzero;fill:rgb(0.392157%,0.392157%,0.392157%);fill-opacity:1;" d="M 57.523438 60.371094 C 57.523438 60.609375 57.34375 60.847656 57.042969 60.847656 C 56.800781 60.847656 56.5625 60.667969 56.5625 60.371094 C 56.5625 60.132812 56.742188 59.890625 57.042969 59.890625 C 57.34375 59.890625 57.523438 60.070312 57.523438 60.371094 Z M 57.523438 60.371094 "/>
<path style=" stroke:none;fill-rule:nonzero;fill:rgb(0.392157%,0.392157%,0.392157%);fill-opacity:1;" d="M 62.261719 60.070312 C 62.261719 60.3125 62.082031 60.488281 61.84375 60.488281 C 61.601562 60.488281 61.421875 60.3125 61.421875 60.070312 C 61.421875 59.832031 61.601562 59.652344 61.84375 59.652344 C 62.082031 59.652344 62.261719 59.832031 62.261719 60.070312 Z M 62.261719 60.070312 "/>
<path style=" stroke:none;fill-rule:nonzero;fill:rgb(0.392157%,0.392157%,0.392157%);fill-opacity:1;" d="M 61.78125 63.539062 C 61.78125 63.777344 61.601562 64.015625 61.304688 64.015625 C 61.0625 64.015625 60.824219 63.835938 60.824219 63.539062 C 60.824219 63.300781 61.003906 63.058594 61.304688 63.058594 C 61.542969 63.058594 61.78125 63.300781 61.78125 63.539062 Z M 61.78125 63.539062 "/>
<path style=" stroke:none;fill-rule:nonzero;fill:rgb(0.392157%,0.392157%,0.392157%);fill-opacity:1;" d="M 60.164062 59.953125 C 60.164062 60.070312 60.042969 60.25 59.863281 60.25 C 59.742188 60.25 59.5625 60.132812 59.5625 59.953125 C 59.5625 59.832031 59.683594 59.714844 59.863281 59.714844 C 60.042969 59.652344 60.164062 59.773438 60.164062 59.953125 Z M 60.164062 59.953125 "/>
<path style=" stroke:none;fill-rule:nonzero;fill:rgb(0.392157%,0.392157%,0.392157%);fill-opacity:1;" d="M 60.882812 57.023438 C 60.882812 57.261719 60.703125 57.441406 60.460938 57.441406 C 60.222656 57.441406 60.042969 57.261719 60.042969 57.023438 C 60.042969 56.785156 60.222656 56.605469 60.460938 56.605469 C 60.644531 56.605469 60.882812 56.785156 60.882812 57.023438 Z M 60.882812 57.023438 "/>
<path style=" stroke:none;fill-rule:nonzero;fill:rgb(0.392157%,0.392157%,0.392157%);fill-opacity:1;" d="M 58.363281 55.707031 C 58.363281 55.949219 58.183594 56.125 57.941406 56.125 C 57.703125 56.125 57.523438 55.949219 57.523438 55.707031 C 57.523438 55.46875 57.703125 55.289062 57.941406 55.289062 C 58.183594 55.289062 58.363281 55.46875 58.363281 55.707031 Z M 58.363281 55.707031 "/>
<path style=" stroke:none;fill-rule:nonzero;fill:rgb(0.392157%,0.392157%,0.392157%);fill-opacity:1;" d="M 39.816406 55.410156 C 39.816406 55.648438 39.578125 55.886719 39.335938 55.886719 C 39.097656 55.886719 38.859375 55.648438 38.859375 55.410156 C 38.859375 55.171875 39.097656 54.929688 39.335938 54.929688 C 39.578125 54.992188 39.816406 55.171875 39.816406 55.410156 Z M 39.816406 55.410156 "/>
<path style=" stroke:none;fill-rule:nonzero;fill:rgb(0.392157%,0.392157%,0.392157%);fill-opacity:1;" d="M 44.738281 37.597656 C 44.679688 37.476562 44.558594 37.476562 44.558594 37.597656 C 44.4375 38.136719 44.5 38.792969 44.4375 39.332031 C 44.320312 39.988281 44.078125 40.644531 43.957031 41.304688 C 43.957031 41.363281 44.019531 41.363281 44.019531 41.363281 C 44.558594 40.347656 45.160156 38.734375 44.738281 37.597656 Z M 44.738281 37.597656 "/>
<path style=" stroke:none;fill-rule:nonzero;fill:rgb(0.392157%,0.392157%,0.392157%);fill-opacity:1;" d="M 53.199219 38.671875 C 53.140625 38.074219 53.441406 37.476562 53.261719 36.878906 C 53.199219 36.761719 53.082031 36.761719 53.019531 36.820312 C 52.121094 37.539062 52.902344 39.511719 53.261719 40.347656 C 53.261719 40.40625 53.382812 40.347656 53.382812 40.347656 C 53.320312 39.75 53.261719 39.210938 53.199219 38.671875 Z M 53.199219 38.671875 "/>
<path style=" stroke:none;fill-rule:nonzero;fill:rgb(0.392157%,0.392157%,0.392157%);fill-opacity:1;" d="M 56.980469 33.59375 C 56.5625 33.175781 55.839844 33.351562 55.78125 34.011719 C 55.78125 34.128906 55.902344 34.25 56.082031 34.25 C 56.203125 34.25 56.320312 34.128906 56.441406 34.191406 C 56.800781 34.429688 57.34375 33.949219 56.980469 33.59375 Z M 56.980469 33.59375 "/>
<path style=" stroke:none;fill-rule:nonzero;fill:rgb(0.392157%,0.392157%,0.392157%);fill-opacity:1;" d="M 40.839844 33.175781 C 40.359375 33.113281 40.359375 33.773438 40.71875 33.890625 C 40.957031 33.949219 41.019531 34.128906 41.136719 34.371094 C 41.257812 34.609375 41.617188 34.488281 41.617188 34.25 C 41.558594 33.773438 41.378906 33.234375 40.839844 33.175781 Z M 40.839844 33.175781 "/>
</g>
</svg>
