<?xml version="1.0" encoding="UTF-8"?>
<svg xmlns="http://www.w3.org/2000/svg" xmlns:xlink="http://www.w3.org/1999/xlink" width="60px" height="99px" viewBox="0 0 60 99" version="1.1">
<g id="surface1">
<path style=" stroke:none;fill-rule:evenodd;fill:rgb(8.235294%,9.019608%,9.411765%);fill-opacity:1;" d="M 33.902344 40.898438 C 33.492188 39.871094 32.875 39.054688 32.464844 38.027344 C 32.054688 37.210938 31.847656 35.777344 30.820312 35.777344 C 30.207031 35.777344 29.589844 35.777344 29.179688 35.777344 C 28.355469 35.980469 28.5625 35.777344 28.152344 36.59375 C 27.738281 37.414062 27.328125 38.234375 26.917969 39.054688 C 25.070312 42.742188 23.015625 46.222656 20.957031 49.703125 C 16.847656 57.078125 12.945312 64.25 9.65625 72.238281 C 8.21875 75.71875 6.984375 80.019531 7.398438 83.707031 C 7.601562 85.550781 7.808594 87.804688 9.246094 89.238281 C 9.863281 89.851562 10.683594 91.082031 11.710938 91.285156 C 12.535156 91.492188 13.5625 91.695312 14.382812 91.695312 C 23.21875 92.3125 27.328125 84.117188 29.792969 76.742188 C 31.4375 81.863281 33.902344 87.804688 39.042969 90.46875 C 41.507812 91.695312 44.179688 91.902344 46.847656 91.492188 C 49.726562 90.878906 51.164062 88.417969 51.984375 85.550781 C 53.015625 81.863281 51.78125 77.5625 50.546875 73.875 C 49.316406 69.984375 47.464844 66.09375 45.617188 62.40625 C 42.125 55.234375 37.601562 48.269531 33.902344 40.898438 Z M 46.234375 87.394531 C 42.125 88.214844 39.246094 85.960938 37.191406 82.683594 C 34.929688 79.40625 33.902344 75.308594 32.875 71.417969 C 32.464844 70.394531 32.261719 69.371094 31.847656 68.140625 C 31.4375 66.910156 30.617188 67.320312 29.382812 67.320312 C 28.765625 67.320312 28.355469 67.117188 28.355469 67.730469 C 28.152344 68.34375 27.945312 69.164062 27.738281 69.777344 C 27.535156 70.804688 27.125 71.621094 26.917969 72.648438 C 25.890625 76.128906 24.65625 80.019531 22.398438 83.09375 C 21.371094 84.527344 20.136719 85.960938 18.289062 86.574219 C 16.847656 87.191406 14.179688 87.804688 12.945312 86.574219 C 10.273438 83.914062 12.328125 78.382812 13.355469 75.515625 C 14.589844 71.621094 16.4375 67.933594 18.082031 64.25 C 21.78125 56.667969 25.890625 49.5 30 42.332031 C 32.054688 46.222656 34.316406 50.113281 36.371094 54.007812 C 40.273438 61.175781 44.382812 68.34375 46.847656 76.128906 C 47.671875 78.585938 50.136719 86.574219 46.234375 87.394531 Z M 49.519531 56.054688 C 49.316406 55.441406 47.671875 53.390625 48.289062 52.980469 C 49.109375 52.574219 49.929688 52.164062 50.753906 51.546875 C 52.398438 50.320312 53.835938 49.296875 55.273438 47.65625 C 60.410156 41.921875 62.261719 32.5 56.300781 26.558594 C 54.863281 25.125 53.21875 24.101562 51.371094 23.484375 C 50.957031 23.28125 49.929688 23.28125 49.726562 23.074219 C 49.519531 22.871094 49.519531 22.050781 49.519531 21.640625 C 49.316406 20.824219 49.109375 19.796875 48.902344 18.980469 C 47.875 15.292969 46.4375 11.605469 44.179688 8.53125 C 39.863281 2.386719 32.671875 -1.09375 25.273438 1.363281 C 17.464844 4.027344 13.5625 11.605469 11.507812 18.773438 C 11.300781 19.796875 10.890625 20.617188 10.683594 21.640625 C 10.273438 23.074219 10.480469 23.074219 9.246094 23.484375 C 7.398438 24.101562 5.546875 25.125 4.109375 26.351562 C 1.4375 29.015625 -0.207031 32.703125 0 36.59375 C 0.207031 40.28125 1.644531 44.378906 4.109375 47.246094 C 5.34375 48.679688 6.78125 49.910156 8.21875 51.140625 C 9.042969 51.753906 10.070312 52.367188 10.890625 52.777344 C 12.125 53.597656 11.300781 54.007812 10.683594 55.234375 C 6.984375 62.40625 3.492188 69.984375 1.847656 77.972656 C 1.234375 81.660156 1.027344 85.960938 2.464844 89.441406 C 4.109375 93.335938 6.984375 95.792969 10.890625 97.433594 C 18.902344 100.710938 25.683594 94.972656 29.792969 88.625 C 31.644531 91.492188 33.699219 94.359375 36.574219 96 C 39.863281 98.046875 43.765625 99.070312 47.464844 97.839844 C 51.371094 96.613281 54.863281 94.15625 56.507812 90.46875 C 59.792969 83.09375 56.917969 74.285156 54.246094 67.117188 C 53.015625 63.222656 51.371094 59.535156 49.519531 56.054688 Z M 54.65625 31.679688 C 56.300781 34.957031 55.890625 39.054688 54.042969 42.125 C 53.015625 43.765625 51.984375 45.199219 50.546875 46.425781 C 49.726562 47.042969 46.234375 50.113281 45.617188 49.089844 C 45.410156 48.679688 45 48.269531 44.792969 47.859375 C 49.929688 44.789062 55.070312 38.234375 52.191406 31.882812 C 49.109375 24.917969 40.070312 28.195312 34.929688 30.65625 C 34.316406 29.835938 35.753906 29.628906 36.371094 29.222656 C 37.398438 28.8125 38.425781 28.402344 39.453125 28.195312 C 41.300781 27.582031 43.152344 27.171875 45 27.171875 C 48.902344 26.761719 52.808594 28.195312 54.65625 31.679688 Z M 42.945312 43.96875 C 41.097656 40.691406 38.835938 37.621094 37.398438 34.136719 C 40.070312 32.703125 47.054688 29.425781 48.699219 33.726562 C 50.136719 37.824219 46.027344 42.125 42.945312 43.96875 Z M 30 19.183594 C 31.4375 21.4375 33.082031 23.484375 35.136719 25.328125 C 34.519531 25.738281 33.902344 25.945312 33.082031 26.148438 C 32.875 26.351562 32.054688 24.714844 32.054688 24.304688 C 31.644531 23.28125 31.644531 22.871094 30.617188 22.871094 C 30 22.871094 28.972656 22.871094 28.5625 22.871094 C 28.355469 23.691406 27.738281 24.917969 27.328125 25.738281 C 27.125 26.351562 25.683594 25.328125 25.070312 25.125 C 26.917969 23.484375 28.5625 21.4375 30 19.183594 Z M 20.546875 23.074219 C 20.34375 20.207031 20.546875 17.339844 22.398438 14.882812 C 24.246094 12.628906 27.125 11.195312 30 11.195312 C 32.875 11.195312 35.753906 12.628906 37.601562 14.882812 C 39.453125 17.136719 39.863281 20.207031 39.453125 23.074219 C 37.191406 22.257812 35.753906 20.207031 34.519531 18.363281 C 33.699219 17.136719 33.082031 16.113281 32.261719 14.882812 C 31.847656 14.269531 31.644531 13.652344 31.234375 13.039062 C 31.027344 12.425781 30.410156 12.628906 29.792969 12.628906 C 29.179688 12.628906 28.5625 12.425781 28.355469 13.039062 C 27.945312 13.652344 27.738281 14.269531 27.328125 14.882812 C 26.710938 16.113281 25.890625 17.339844 25.273438 18.363281 C 24.246094 20.207031 22.601562 22.257812 20.546875 23.074219 Z M 15.410156 18.570312 C 17.261719 11.398438 23.425781 3.617188 31.644531 5.253906 C 40.480469 6.894531 44.179688 14.882812 45.207031 22.871094 C 44.792969 22.871094 44.179688 22.871094 43.765625 22.871094 C 43.765625 22.257812 43.765625 21.640625 43.765625 21.027344 C 43.5625 16.929688 42.328125 13.859375 39.453125 10.785156 C 36.574219 7.917969 32.464844 6.6875 28.5625 6.894531 C 20.546875 7.507812 15.207031 15.085938 16.027344 22.667969 C 15.617188 22.667969 15 22.667969 14.589844 22.667969 C 15 21.4375 15.207031 20.003906 15.410156 18.570312 Z M 11.300781 47.859375 C 9.863281 47.042969 8.835938 45.8125 7.808594 44.582031 C 5.546875 42.125 4.109375 38.644531 4.519531 35.367188 C 4.726562 32.5 6.371094 29.425781 9.246094 28.195312 C 12.738281 26.761719 16.027344 27.171875 19.519531 27.992188 C 21.371094 28.402344 23.21875 29.222656 25.070312 30.039062 C 25.480469 30.246094 25.273438 30.65625 25.070312 30.65625 C 24.65625 30.449219 24.246094 30.246094 23.628906 30.039062 C 22.808594 29.628906 21.984375 29.222656 20.957031 28.8125 C 17.464844 27.378906 13.152344 27.171875 10.070312 29.222656 C 6.984375 31.269531 6.574219 36.1875 7.808594 39.257812 C 9.246094 42.945312 11.917969 45.609375 15.207031 47.65625 C 14.792969 48.269531 14.382812 49.5 13.765625 49.296875 C 12.738281 48.886719 11.917969 48.269531 11.300781 47.859375 Z M 22.808594 34.34375 C 21.164062 37.824219 19.109375 40.898438 17.261719 44.175781 C 14.179688 42.125 9.453125 37.621094 11.507812 33.523438 C 13.355469 29.425781 20.136719 32.90625 22.808594 34.34375 Z M 50.34375 91.492188 C 47.671875 94.15625 43.152344 94.769531 39.863281 93.335938 C 36.164062 91.902344 33.492188 88.417969 31.847656 84.9375 C 31.644531 84.324219 31.644531 83.707031 30.820312 83.707031 C 30.207031 83.707031 29.792969 83.707031 29.179688 83.707031 C 27.945312 83.707031 27.945312 84.527344 27.535156 85.550781 C 26.710938 87.394531 25.273438 89.238281 23.835938 90.671875 C 21.371094 93.128906 17.464844 94.5625 13.972656 93.746094 C 4.316406 91.285156 5.546875 80.839844 7.601562 73.464844 C 9.863281 65.683594 13.765625 58.101562 17.671875 51.140625 C 21.574219 43.96875 25.890625 37.003906 29.589844 29.628906 C 36.164062 42.742188 44.589844 54.824219 49.929688 68.550781 C 53.015625 75.308594 56.507812 85.757812 50.34375 91.492188 Z M 50.34375 91.492188 "/>
</g>
</svg>
