<?xml version="1.0" encoding="UTF-8"?>
<svg xmlns="http://www.w3.org/2000/svg" xmlns:xlink="http://www.w3.org/1999/xlink" width="88px" height="99px" viewBox="0 0 88 99" version="1.1">
<g id="surface1">
<path style=" stroke:none;fill-rule:evenodd;fill:rgb(8.235294%,9.019608%,9.411765%);fill-opacity:1;" d="M 30.066406 82.4375 C 27.523438 79.21875 24.746094 76.230469 21.738281 73.355469 C 19.082031 76.574219 16.535156 79.792969 14.109375 83.242188 C 13.066406 84.851562 11.910156 86.460938 11.101562 88.070312 C 10.175781 89.796875 9.828125 86.347656 9.480469 85.542969 C 8.789062 83.816406 8.210938 81.863281 7.054688 80.367188 C 6.128906 79.101562 4.394531 78.644531 4.625 80.714844 C 4.855469 82.78125 6.707031 84.964844 7.746094 86.578125 C 7.980469 86.921875 8.902344 87.957031 8.671875 88.414062 C 8.324219 89.105469 7.402344 87.035156 7.402344 86.921875 C 6.476562 85.195312 5.550781 83.128906 4.277344 81.632812 C 3.351562 80.367188 1.851562 80.941406 2.429688 82.550781 C 3.121094 84.621094 5.089844 86.578125 6.359375 88.300781 C 6.476562 88.53125 6.9375 89.105469 6.476562 89.105469 C 6.011719 89.21875 5.320312 87.839844 4.972656 87.382812 C 4.164062 86.117188 2.890625 83.585938 1.503906 82.898438 C 0.117188 82.207031 -0.578125 83.472656 0.460938 84.507812 C 1.964844 86 3.46875 87.382812 4.511719 89.21875 C 5.433594 90.945312 6.011719 92.898438 7.054688 94.625 C 8.210938 96.464844 9.597656 97.957031 11.910156 96.808594 C 14.109375 95.660156 16.074219 93.820312 18.039062 92.324219 C 22.203125 89.105469 26.132812 85.769531 30.066406 82.4375 M 65.683594 72.664062 C 62.328125 75.308594 59.554688 78.414062 56.777344 81.632812 C 55.96875 82.4375 56.894531 82.667969 57.585938 83.355469 C 58.28125 84.046875 58.976562 84.738281 59.785156 85.425781 C 61.171875 86.691406 62.558594 88.070312 63.949219 89.335938 C 66.953125 92.09375 70.078125 94.855469 73.429688 97.269531 C 74.46875 97.957031 76.203125 99.453125 77.476562 98.1875 C 78.863281 96.808594 79.789062 94.96875 80.945312 93.359375 C 82.21875 91.632812 83.488281 89.910156 84.878906 88.300781 C 85.6875 87.265625 87.882812 85.769531 87.882812 84.390625 C 87.882812 82.898438 85.339844 85.082031 85.109375 85.425781 C 84.761719 85.886719 81.753906 89.335938 81.410156 88.761719 C 81.0625 88.1875 84.53125 85.425781 84.992188 84.621094 C 85.6875 83.585938 86.613281 80.484375 84.300781 81.863281 C 82.679688 82.898438 81.640625 84.851562 80.597656 86.347656 C 80.253906 86.921875 79.441406 88.53125 78.863281 88.875 C 78.519531 89.105469 78.171875 88.875 78.402344 88.414062 C 79.328125 87.035156 84.878906 80.941406 82.910156 78.875 C 80.832031 76.804688 77.59375 84.160156 77.128906 85.3125 C 77.015625 85.65625 75.972656 89.21875 75.511719 88.1875 C 74.703125 86.117188 73.660156 84.160156 72.621094 82.207031 C 70.769531 78.757812 68.339844 75.65625 65.683594 72.664062 M 67.53125 36.679688 C 68.457031 37.027344 68.457031 36.796875 68.917969 35.992188 C 69.496094 35.1875 69.960938 34.265625 70.539062 33.460938 C 71.578125 31.96875 72.503906 30.359375 73.546875 28.863281 C 74.585938 27.253906 75.625 25.644531 76.550781 23.921875 C 77.363281 22.3125 78.75 20.585938 78.519531 18.746094 C 78.285156 17.023438 76.78125 15.527344 75.742188 14.261719 C 74.46875 12.652344 73.3125 11.042969 72.15625 9.320312 C 71 7.59375 69.960938 5.871094 68.804688 4.261719 C 68.339844 3.570312 67.070312 1.617188 66.492188 3.226562 C 66.027344 4.492188 68.457031 7.019531 69.152344 7.824219 C 69.84375 8.746094 70.421875 9.78125 71.117188 10.699219 C 71.464844 11.160156 71 11.160156 70.65625 11.042969 C 70.078125 10.8125 69.382812 9.203125 69.035156 8.746094 C 68.226562 7.59375 67.417969 6.332031 66.605469 5.179688 C 66.261719 4.605469 65.105469 3.226562 64.640625 4.492188 C 64.292969 5.640625 66.375 7.480469 66.839844 8.171875 C 68.109375 9.894531 70.078125 11.734375 71 13.6875 C 71.117188 13.917969 70.65625 14.148438 70.421875 13.917969 C 69.84375 13.113281 69.152344 12.308594 68.574219 11.503906 C 67.183594 9.664062 65.683594 7.824219 64.292969 5.984375 C 63.484375 4.949219 62.210938 5.753906 62.445312 6.90625 C 62.558594 7.480469 63.023438 7.824219 63.371094 8.285156 C 64.410156 9.320312 65.449219 10.46875 66.605469 11.503906 C 66.839844 11.734375 67.878906 12.421875 67.648438 12.882812 C 67.417969 13.457031 66.953125 12.769531 66.722656 12.539062 C 65.21875 11.042969 63.714844 8.859375 61.867188 7.710938 C 60.476562 6.90625 59.667969 8.859375 60.246094 9.894531 C 61.054688 11.390625 63.371094 12.652344 64.640625 13.804688 C 65.796875 14.722656 66.839844 15.644531 67.996094 16.5625 C 68.457031 16.90625 69.382812 17.367188 69.613281 17.941406 C 69.960938 18.515625 67.183594 20.929688 66.722656 21.507812 C 64.527344 23.804688 62.328125 26.566406 62.097656 29.898438 C 61.867188 33.347656 64.179688 35.761719 67.53125 36.679688 M 55.507812 82.207031 C 56.429688 81.519531 53.308594 79.21875 52.613281 78.644531 C 52.382812 78.414062 49.492188 81.289062 49.03125 81.746094 C 49.492188 82.207031 51.574219 84.738281 52.035156 84.507812 C 53.425781 83.816406 54.464844 83.242188 55.507812 82.207031 M 51.574219 24.496094 C 51.804688 19.78125 44.519531 19.898438 44.636719 24.726562 C 44.867188 29.554688 52.152344 29.207031 51.574219 24.496094 M 52.152344 24.496094 C 52.269531 30.011719 44.289062 30.242188 44.058594 24.726562 C 43.941406 22.539062 45.675781 20.355469 47.988281 20.242188 C 50.417969 20.242188 51.921875 22.195312 52.152344 24.496094 M 39.546875 25.183594 C 39.316406 23.34375 38.160156 21.507812 36.078125 21.507812 C 34.113281 21.507812 32.492188 23.230469 32.492188 25.183594 C 32.492188 30.011719 39.546875 30.011719 39.546875 25.183594 M 40.125 25.070312 C 40.242188 30.589844 32.148438 30.816406 32.03125 25.300781 C 31.800781 19.78125 40.472656 19.667969 40.125 25.070312 M 56.316406 81.289062 C 57.007812 80.484375 57.820312 79.5625 58.628906 78.757812 C 59.785156 77.492188 59.320312 77.609375 58.164062 76.460938 C 57.242188 75.539062 56.894531 74.503906 55.96875 75.425781 C 55.042969 76.34375 54.117188 77.265625 53.078125 78.070312 C 54.117188 79.101562 55.160156 80.136719 56.316406 81.289062 M 59.785156 77.378906 C 60.941406 76.230469 61.980469 75.195312 63.136719 74.046875 C 62.792969 73.699219 60.246094 71.171875 60.246094 71.285156 C 59.089844 72.320312 57.933594 73.46875 56.777344 74.503906 C 57.820312 75.425781 58.859375 76.34375 59.785156 77.378906 M 63.601562 73.699219 C 64.527344 72.894531 67.417969 70.824219 66.027344 69.445312 C 65.335938 68.871094 64.410156 67.148438 63.601562 67.835938 C 62.558594 68.757812 61.519531 69.792969 60.59375 70.710938 C 61.632812 71.746094 62.675781 72.664062 63.601562 73.699219 M 66.839844 69.332031 C 67.183594 68.527344 67.53125 67.722656 67.878906 66.917969 C 67.996094 66.457031 68.917969 64.847656 68.804688 64.503906 C 68.339844 62.777344 65.21875 66.574219 64.640625 67.03125 C 65.335938 67.953125 66.027344 68.640625 66.839844 69.332031 M 68.917969 63.929688 C 69.035156 63.582031 69.035156 63.238281 69.152344 62.894531 C 68.917969 63.125 68.6875 63.351562 68.457031 63.582031 C 68.574219 63.582031 68.6875 63.8125 68.917969 63.929688 M 48.683594 82.09375 C 48.453125 82.324219 47.640625 83.585938 47.179688 83.128906 C 46.71875 82.667969 48.105469 81.863281 48.335938 81.632812 C 47.988281 81.289062 46.601562 80.367188 46.484375 79.792969 C 46.371094 78.988281 47.296875 79.910156 47.527344 80.136719 C 48.566406 81.171875 48.453125 81.519531 49.492188 80.484375 C 50.417969 79.679688 51.226562 78.875 52.152344 77.953125 C 51.457031 77.265625 50.765625 76.574219 50.070312 75.882812 C 48.914062 74.734375 49.144531 74.734375 47.875 75.882812 C 47.640625 76.113281 47.296875 76.460938 47.0625 76 C 46.832031 75.65625 48.222656 74.734375 48.453125 74.503906 C 48.105469 74.160156 46.601562 73.125 46.601562 72.550781 C 46.484375 71.859375 47.179688 72.433594 47.527344 72.664062 C 48.683594 73.816406 48.566406 74.390625 49.722656 73.355469 C 50.648438 72.550781 51.457031 71.746094 52.382812 70.824219 C 51.691406 70.136719 50.996094 69.445312 50.1875 68.757812 C 49.03125 67.722656 49.261719 67.605469 48.105469 68.640625 C 47.875 68.871094 47.410156 69.445312 47.0625 68.871094 C 46.949219 68.527344 48.453125 67.378906 48.683594 67.148438 C 48.335938 66.800781 46.71875 65.539062 46.71875 65.191406 C 46.832031 64.503906 47.296875 64.960938 47.527344 65.191406 C 48.453125 66.113281 48.683594 67.03125 49.722656 66.113281 C 50.648438 65.308594 51.574219 64.386719 52.5 63.582031 C 51.691406 62.777344 50.878906 61.972656 50.070312 61.285156 C 49.03125 60.25 49.03125 60.59375 47.988281 61.628906 C 47.875 61.742188 47.0625 62.546875 47.0625 61.859375 C 47.0625 61.398438 48.566406 60.363281 48.914062 60.019531 C 48.566406 59.675781 46.832031 58.523438 46.832031 58.066406 C 46.832031 57.375 47.410156 57.71875 47.640625 58.066406 C 48.566406 58.984375 48.914062 60.019531 49.957031 58.984375 C 50.878906 58.179688 51.804688 57.261719 52.730469 56.457031 C 51.804688 55.652344 50.996094 54.730469 50.070312 53.925781 C 49.144531 53.007812 48.800781 53.925781 47.875 54.847656 C 47.527344 55.191406 47.0625 55.535156 47.0625 54.847656 C 47.0625 54.386719 48.683594 53.238281 49.03125 52.890625 C 48.566406 52.429688 46.949219 51.28125 46.949219 50.707031 C 46.949219 49.789062 48.105469 51.167969 48.222656 51.28125 C 49.261719 52.316406 49.261719 52.777344 50.300781 51.742188 C 51.226562 50.9375 52.035156 50.132812 52.960938 49.210938 C 52.035156 48.292969 51.113281 47.375 50.070312 46.453125 C 49.261719 45.648438 48.335938 47.257812 47.757812 47.832031 C 47.410156 48.179688 47.0625 48.179688 47.0625 47.71875 C 47.0625 47.144531 48.800781 45.992188 49.261719 45.648438 C 48.800781 45.1875 47.179688 44.039062 47.179688 43.578125 C 47.0625 42.773438 47.875 43.464844 48.222656 43.808594 C 49.144531 44.613281 49.492188 45.761719 50.417969 44.84375 C 51.34375 43.925781 52.269531 43.003906 53.308594 42.199219 C 52.382812 41.394531 51.574219 40.476562 50.648438 39.671875 C 50.417969 39.441406 50.1875 38.980469 49.839844 39.210938 C 49.261719 39.785156 48.683594 40.246094 48.222656 40.820312 C 47.988281 41.050781 47.179688 41.855469 47.179688 40.933594 C 47.179688 40.359375 49.144531 39.09375 49.609375 38.75 C 49.144531 38.289062 47.410156 37.027344 47.410156 36.566406 C 47.410156 35.875 47.875 36.222656 48.222656 36.566406 C 48.914062 37.257812 49.722656 38.75 50.417969 38.0625 C 51.34375 37.140625 52.382812 36.222656 53.308594 35.417969 C 52.5 34.613281 51.691406 33.808594 50.878906 33.003906 C 49.722656 31.851562 49.839844 32.3125 48.683594 33.460938 C 48.566406 33.578125 47.410156 34.957031 47.179688 34.382812 C 47.0625 34.039062 47.410156 33.808594 47.640625 33.578125 C 51.226562 30.359375 54.8125 27.023438 58.398438 23.804688 C 58.628906 23.691406 54.464844 19.898438 54.003906 19.550781 C 52.269531 18.285156 50.535156 17.253906 48.566406 16.449219 C 45.097656 14.839844 40.820312 14.953125 37.234375 16.21875 C 35.039062 17.023438 33.074219 18.058594 31.222656 19.667969 C 30.179688 20.472656 29.371094 21.507812 28.5625 22.539062 C 28.214844 23.117188 27.867188 23.691406 27.523438 24.265625 C 27.40625 24.609375 28.5625 25.53125 28.792969 25.757812 C 30.644531 27.597656 32.492188 29.324219 34.460938 31.164062 C 35.152344 31.851562 35.847656 32.425781 36.542969 33.117188 C 36.773438 33.347656 37.582031 34.382812 37.929688 34.382812 C 38.277344 34.382812 38.390625 33.578125 38.855469 33.808594 C 39.316406 34.039062 38.507812 34.726562 38.390625 34.84375 C 39.546875 35.417969 38.621094 36.335938 38.042969 35.300781 C 37.003906 36.335938 35.964844 37.484375 34.921875 38.519531 C 34.808594 38.636719 37.582031 41.164062 37.929688 41.511719 C 38.042969 41.394531 39.085938 39.902344 39.433594 40.476562 C 39.777344 41.050781 38.390625 41.394531 38.390625 41.96875 C 38.390625 42.316406 39.894531 42.890625 39.433594 43.464844 C 39.085938 43.808594 38.160156 42.660156 37.929688 42.429688 C 36.886719 43.464844 35.847656 44.613281 34.921875 45.648438 C 34.808594 45.761719 37.582031 48.292969 37.8125 48.636719 C 38.042969 48.40625 39.316406 46.570312 39.777344 47.027344 C 40.359375 47.601562 38.160156 48.636719 38.160156 49.097656 C 38.160156 49.671875 40.011719 50.246094 39.664062 51.050781 C 39.316406 51.625 37.929688 49.789062 37.699219 49.558594 C 37.121094 50.132812 34.574219 52.085938 34.574219 52.777344 C 34.574219 53.464844 37.003906 55.191406 37.582031 55.765625 C 37.929688 55.421875 39.433594 53.238281 40.011719 53.582031 C 40.589844 53.925781 38.277344 55.878906 38.042969 56.109375 C 37.8125 56.339844 40.703125 58.292969 40.011719 58.640625 C 39.433594 58.984375 38.042969 57.03125 37.582031 56.570312 C 37.003906 57.144531 34.460938 59.097656 34.460938 59.789062 C 34.460938 60.480469 36.886719 62.203125 37.464844 62.777344 C 37.8125 62.433594 40.125 59.675781 40.589844 60.019531 C 41.050781 60.480469 38.277344 62.777344 37.929688 63.125 C 37.582031 63.46875 41.050781 65.539062 40.472656 66.113281 C 40.011719 66.574219 37.8125 63.929688 37.464844 63.582031 C 36.886719 64.15625 34.34375 65.996094 34.34375 66.6875 C 34.34375 67.378906 36.773438 69.101562 37.351562 69.675781 C 38.390625 68.640625 39.316406 67.605469 40.359375 66.574219 C 40.703125 66.226562 41.167969 66.574219 40.820312 67.03125 C 40.242188 67.605469 37.699219 69.445312 37.699219 70.136719 C 37.699219 70.824219 40.242188 72.78125 40.703125 73.242188 C 41.167969 72.550781 41.515625 73.242188 40.9375 73.816406 C 40.472656 74.273438 37.464844 77.035156 37.699219 77.265625 C 38.390625 77.953125 39.085938 78.644531 39.664062 79.332031 C 40.359375 80.023438 40.359375 80.367188 41.050781 79.792969 C 41.167969 79.679688 41.628906 79.21875 41.746094 79.5625 C 41.976562 80.023438 41.167969 80.484375 40.9375 80.597656 C 41.515625 81.058594 40.9375 81.632812 40.472656 81.058594 C 40.011719 81.519531 37.234375 83.933594 37.582031 84.277344 C 37.929688 84.738281 38.855469 86.117188 39.433594 86.117188 C 40.242188 86.230469 41.167969 86.347656 41.976562 86.460938 C 45.097656 86.804688 48.335938 86.460938 51.34375 85.425781 C 50.535156 83.816406 49.609375 83.011719 48.683594 82.09375 M 37.464844 41.394531 C 36.425781 40.359375 35.5 39.441406 34.460938 38.40625 C 33.535156 39.441406 32.492188 40.589844 31.453125 41.625 C 31.335938 41.738281 34.113281 44.269531 34.34375 44.613281 C 35.386719 43.464844 36.425781 42.429688 37.464844 41.394531 M 37.351562 48.40625 C 36.308594 47.375 35.386719 46.453125 34.34375 45.417969 C 33.417969 46.453125 32.378906 47.488281 31.335938 48.636719 C 31.222656 48.753906 33.996094 51.28125 34.230469 51.625 C 35.269531 50.476562 36.308594 49.441406 37.351562 48.40625 M 33.996094 44.957031 C 32.957031 43.925781 32.03125 43.003906 30.992188 41.96875 C 29.949219 43.003906 29.023438 44.039062 27.984375 45.074219 C 27.867188 45.1875 30.527344 47.832031 30.875 48.0625 C 31.914062 47.144531 32.957031 46.109375 33.996094 44.957031 M 37.234375 55.421875 C 36.195312 54.386719 35.269531 53.464844 34.230469 52.429688 C 33.765625 52.890625 31.222656 54.847656 31.222656 55.535156 C 31.222656 56.226562 33.652344 58.066406 34.113281 58.640625 C 35.152344 57.488281 36.195312 56.457031 37.234375 55.421875 M 33.882812 51.972656 C 32.957031 50.9375 31.914062 50.015625 30.992188 48.984375 C 30.414062 49.558594 27.867188 51.511719 27.867188 52.203125 C 27.867188 52.890625 30.296875 54.617188 30.875 55.191406 C 31.800781 54.15625 32.839844 53.007812 33.882812 51.972656 M 30.527344 48.636719 C 29.488281 47.601562 28.5625 46.683594 27.523438 45.648438 C 26.945312 46.222656 24.515625 48.0625 24.515625 48.753906 C 24.515625 49.441406 26.945312 51.167969 27.523438 51.742188 C 28.5625 50.707031 29.488281 49.671875 30.527344 48.636719 M 37.121094 62.433594 C 36.078125 61.398438 35.152344 60.363281 34.113281 59.328125 C 33.535156 59.90625 31.105469 61.742188 31.105469 62.433594 C 31.105469 63.125 33.535156 64.960938 33.996094 65.539062 C 35.039062 64.503906 36.078125 63.46875 37.121094 62.433594 M 33.765625 58.984375 C 32.726562 57.949219 31.800781 56.914062 30.757812 55.878906 C 29.71875 56.914062 28.792969 57.949219 27.753906 58.984375 C 27.636719 59.097656 30.296875 61.742188 30.644531 61.972656 C 31.683594 61.054688 32.726562 60.019531 33.765625 58.984375 M 30.414062 55.535156 C 29.488281 54.5 28.445312 53.582031 27.523438 52.546875 C 26.480469 53.582031 25.554688 54.617188 24.515625 55.652344 C 24.398438 55.765625 27.058594 58.410156 27.40625 58.640625 C 28.445312 57.605469 29.371094 56.570312 30.414062 55.535156 M 27.058594 52.203125 C 26.132812 51.167969 25.09375 50.246094 24.167969 49.210938 C 23.128906 50.246094 22.203125 51.28125 21.160156 52.203125 C 21.046875 52.316406 23.707031 54.960938 24.050781 55.191406 C 25.09375 54.15625 26.132812 53.238281 27.058594 52.203125 M 40.359375 72.894531 C 39.316406 71.859375 38.390625 70.824219 37.351562 69.792969 C 36.773438 70.367188 34.230469 72.207031 34.230469 72.894531 C 34.230469 73.585938 36.65625 75.425781 37.234375 76 C 38.277344 74.964844 39.316406 73.929688 40.359375 72.894531 M 37.003906 69.332031 C 35.964844 68.296875 35.039062 67.378906 33.996094 66.34375 C 33.417969 66.917969 30.992188 68.757812 30.992188 69.445312 C 30.992188 70.136719 33.417969 71.976562 33.882812 72.550781 C 34.921875 71.515625 35.964844 70.480469 37.003906 69.332031 M 33.652344 65.996094 C 32.609375 64.960938 31.683594 63.929688 30.644531 62.894531 C 29.601562 63.929688 28.679688 64.960938 27.636719 65.996094 C 27.523438 66.113281 30.179688 68.757812 30.527344 68.988281 C 31.570312 67.953125 32.609375 67.03125 33.652344 65.996094 M 30.296875 62.433594 C 29.257812 61.398438 28.332031 60.480469 27.289062 59.445312 C 26.710938 60.019531 24.285156 61.859375 24.285156 62.546875 C 24.285156 63.238281 26.710938 65.078125 27.175781 65.652344 C 28.332031 64.617188 29.371094 63.46875 30.296875 62.433594 M 27.058594 59.097656 C 26.019531 58.066406 25.09375 57.144531 24.050781 56.109375 C 23.128906 57.144531 22.085938 58.179688 21.160156 59.097656 C 21.046875 59.214844 23.707031 61.859375 24.050781 62.089844 C 24.976562 61.054688 26.019531 60.132812 27.058594 59.097656 M 23.707031 55.652344 C 22.78125 54.617188 21.738281 53.695312 20.816406 52.660156 C 19.890625 53.695312 18.847656 54.730469 17.921875 55.652344 C 17.808594 55.765625 20.46875 58.410156 20.816406 58.640625 C 21.738281 57.71875 22.78125 56.683594 23.707031 55.652344 M 40.242188 79.910156 C 39.199219 78.875 38.277344 77.839844 37.234375 76.804688 C 36.65625 77.378906 34.113281 79.21875 34.113281 79.910156 C 34.113281 80.597656 36.542969 82.4375 37.121094 83.011719 C 38.160156 81.976562 39.199219 80.941406 40.242188 79.910156 M 36.886719 76.460938 C 35.847656 75.425781 34.921875 74.390625 33.882812 73.355469 C 33.304688 73.929688 30.875 75.769531 30.875 76.460938 C 30.875 77.148438 33.304688 78.988281 33.765625 79.5625 C 34.808594 78.414062 35.847656 77.378906 36.886719 76.460938 M 33.535156 72.894531 C 32.609375 71.859375 31.570312 70.824219 30.644531 69.792969 C 30.066406 70.367188 27.636719 72.207031 27.636719 72.894531 C 27.636719 73.585938 30.066406 75.425781 30.527344 76 C 31.453125 74.964844 32.492188 73.929688 33.535156 72.894531 M 30.179688 69.445312 C 29.140625 68.410156 28.214844 67.378906 27.175781 66.34375 C 26.25 67.378906 25.207031 68.410156 24.285156 69.445312 C 24.167969 69.5625 26.828125 72.207031 27.175781 72.433594 C 28.214844 71.515625 29.257812 70.480469 30.179688 69.445312 M 26.945312 65.996094 C 26.019531 64.960938 24.976562 63.929688 24.050781 62.894531 C 23.128906 63.929688 22.085938 64.960938 21.160156 65.882812 C 21.046875 65.996094 23.707031 68.640625 23.9375 68.988281 C 24.863281 68.066406 25.902344 67.03125 26.945312 65.996094 M 23.589844 62.546875 C 22.664062 61.515625 21.738281 60.59375 20.699219 59.558594 C 19.660156 60.59375 18.734375 61.628906 17.691406 62.546875 C 17.578125 62.664062 20.238281 65.308594 20.582031 65.539062 C 21.625 64.617188 22.550781 63.582031 23.589844 62.546875 M 20.351562 59.097656 C 19.425781 58.066406 18.386719 57.144531 17.460938 56.109375 C 16.421875 57.261719 16.304688 57.605469 16.652344 59.214844 C 16.882812 60.132812 16.882812 61.398438 17.34375 62.203125 C 18.386719 61.167969 19.3125 60.132812 20.351562 59.097656 M 37.699219 34.382812 C 36.542969 33.234375 35.269531 32.082031 34.113281 30.933594 C 33.535156 31.507812 30.992188 33.578125 30.992188 34.265625 C 30.992188 34.613281 32.378906 35.648438 32.609375 35.875 C 33.1875 36.453125 33.882812 37.140625 34.460938 37.714844 C 35.5 36.566406 36.542969 35.417969 37.699219 34.382812 M 33.652344 30.589844 C 32.726562 29.667969 31.683594 28.75 30.757812 27.828125 C 29.71875 28.863281 28.792969 30.011719 27.753906 31.046875 C 27.636719 31.164062 30.296875 33.578125 30.527344 33.808594 C 31.570312 32.65625 32.609375 31.621094 33.652344 30.589844 M 30.296875 27.371094 C 29.257812 26.449219 28.332031 25.53125 27.289062 24.496094 C 26.597656 26.21875 26.019531 29.207031 27.289062 30.589844 C 28.332031 29.554688 29.257812 28.402344 30.296875 27.371094 M 34.113281 38.0625 C 32.957031 36.910156 31.800781 35.761719 30.644531 34.613281 C 30.296875 34.957031 27.636719 37.714844 27.636719 37.832031 C 28.792969 38.980469 29.949219 40.128906 31.105469 41.28125 C 32.03125 40.128906 33.074219 39.09375 34.113281 38.0625 M 30.179688 34.152344 C 29.257812 33.234375 28.332031 32.3125 27.289062 31.394531 C 26.367188 32.425781 25.324219 33.460938 24.398438 34.496094 C 24.285156 34.613281 26.828125 37.027344 27.175781 37.257812 C 28.214844 36.335938 29.140625 35.300781 30.179688 34.152344 M 26.945312 31.046875 C 26.828125 30.816406 26.597656 30.703125 26.367188 30.472656 C 26.019531 31.851562 24.863281 33.117188 23.472656 33.691406 C 23.589844 33.808594 23.707031 34.039062 23.9375 34.152344 C 24.976562 33.117188 25.902344 32.082031 26.945312 31.046875 M 30.644531 41.625 C 29.488281 40.476562 28.332031 39.324219 27.175781 38.175781 C 26.828125 38.519531 24.167969 41.28125 24.285156 41.28125 C 25.441406 42.429688 26.480469 43.578125 27.636719 44.730469 C 28.5625 43.695312 29.601562 42.660156 30.644531 41.625 M 26.828125 37.832031 C 25.902344 36.910156 24.976562 35.992188 23.9375 35.070312 C 23.011719 36.105469 21.972656 37.140625 21.046875 38.175781 C 20.929688 38.289062 23.472656 40.707031 23.820312 41.050781 C 24.863281 39.902344 25.789062 38.867188 26.828125 37.832031 M 23.589844 34.613281 C 22.433594 33.578125 20.699219 34.152344 19.425781 33.003906 C 19.195312 33.578125 18.386719 35.070312 18.503906 35.648438 C 18.617188 36.335938 20.121094 37.257812 20.582031 37.714844 C 21.625 36.679688 22.550781 35.648438 23.589844 34.613281 M 27.175781 45.1875 C 26.019531 44.039062 24.976562 42.890625 23.820312 41.738281 C 23.472656 42.085938 20.816406 44.84375 20.929688 44.84375 C 21.972656 45.992188 23.128906 47.144531 24.167969 48.292969 C 25.207031 47.257812 26.132812 46.222656 27.175781 45.1875 M 23.359375 41.394531 C 22.433594 40.476562 21.507812 39.554688 20.582031 38.519531 C 19.660156 39.554688 18.617188 40.589844 17.691406 41.625 C 17.578125 41.738281 20.003906 44.152344 20.351562 44.5 C 21.394531 43.464844 22.433594 42.429688 23.359375 41.394531 M 20.238281 38.175781 C 19.542969 37.484375 18.964844 36.910156 18.269531 36.222656 C 17.808594 37.714844 17.460938 39.324219 17 40.933594 C 16.765625 41.855469 18.269531 40.246094 18.386719 40.128906 C 19.082031 39.441406 19.660156 38.867188 20.238281 38.175781 M 23.820312 48.753906 C 22.664062 47.601562 21.625 46.453125 20.46875 45.417969 C 20.003906 45.992188 17.578125 47.832031 17.578125 48.523438 C 17.578125 48.867188 18.964844 49.902344 19.195312 50.246094 C 19.773438 50.820312 20.238281 51.398438 20.816406 51.972656 C 21.738281 50.820312 22.78125 49.789062 23.820312 48.753906 M 20.121094 44.957031 C 19.195312 44.039062 18.269531 43.121094 17.460938 42.085938 C 16.652344 42.773438 16.652344 43.925781 16.535156 44.957031 C 16.421875 46.453125 16.1875 46.796875 17.230469 47.949219 C 18.15625 47.027344 19.082031 45.992188 20.121094 44.957031 M 17 41.738281 L 17 41.738281 M 20.351562 52.203125 C 19.3125 51.050781 18.269531 50.015625 17.113281 48.867188 C 16.074219 50.015625 15.84375 50.476562 15.84375 51.972656 C 15.84375 52.429688 15.726562 53.351562 15.957031 53.8125 C 16.1875 54.386719 17 54.847656 17.460938 55.304688 C 18.386719 54.269531 19.425781 53.238281 20.351562 52.203125 M 16.765625 48.40625 C 16.535156 48.179688 16.304688 47.949219 16.074219 47.71875 C 16.074219 48.179688 15.957031 48.753906 15.957031 49.210938 C 16.1875 48.984375 16.535156 48.753906 16.765625 48.40625 M 17.113281 55.652344 C 16.765625 55.304688 16.421875 54.960938 16.074219 54.617188 C 16.1875 55.191406 16.1875 55.878906 16.304688 56.457031 C 16.535156 56.226562 16.765625 55.996094 17.113281 55.652344 M 17.578125 63.238281 C 17.921875 64.617188 18.503906 65.882812 19.082031 67.148438 C 19.773438 66.457031 20.46875 66.226562 19.773438 65.421875 C 19.082031 64.734375 18.269531 64.042969 17.578125 63.238281 M 19.3125 67.835938 C 19.890625 69.214844 20.582031 70.480469 21.277344 71.746094 C 21.507812 71.515625 23.589844 69.5625 23.472656 69.445312 C 22.550781 68.410156 21.507812 67.492188 20.582031 66.457031 C 20.238281 66.917969 19.773438 67.378906 19.3125 67.835938 M 21.625 72.207031 C 22.203125 73.355469 23.589844 74.273438 24.628906 75.195312 C 24.976562 74.851562 27.058594 73.011719 26.710938 72.78125 C 25.789062 71.746094 24.863281 70.824219 23.9375 69.792969 C 23.128906 70.597656 22.316406 71.402344 21.625 72.207031 M 24.863281 75.65625 C 25.902344 76.574219 26.710938 77.722656 27.753906 78.757812 C 27.984375 78.527344 30.066406 76.460938 30.066406 76.34375 C 29.140625 75.308594 28.101562 74.390625 27.175781 73.355469 C 26.367188 74.160156 25.671875 74.851562 24.863281 75.65625 M 28.101562 79.101562 C 28.792969 79.910156 29.371094 80.714844 30.066406 81.402344 C 30.992188 82.550781 30.875 82.324219 31.914062 81.289062 C 32.609375 80.597656 33.765625 80.136719 32.957031 79.332031 C 32.148438 78.414062 31.335938 77.609375 30.414062 76.6875 C 29.71875 77.609375 28.910156 78.296875 28.101562 79.101562 M 31.335938 82.667969 C 32.261719 83.128906 34.460938 84.738281 35.617188 84.507812 C 35.964844 84.390625 36.425781 83.703125 36.65625 83.472656 C 36.773438 83.355469 36.308594 82.898438 36.078125 82.78125 C 35.269531 81.976562 34.574219 81.171875 33.765625 80.367188 C 32.957031 81.058594 32.148438 81.863281 31.335938 82.667969 M 36.195312 84.621094 C 36.886719 84.851562 37.699219 85.082031 38.507812 85.195312 C 38.160156 84.738281 37.699219 84.390625 37.351562 83.933594 C 36.886719 83.585938 36.542969 84.277344 36.195312 84.621094 M 53.769531 34.613281 C 54.695312 33.808594 55.621094 33.003906 56.546875 32.199219 C 55.507812 31.164062 54.464844 30.128906 53.425781 29.09375 C 53.191406 28.863281 50.996094 31.046875 50.648438 31.394531 C 51.574219 32.425781 52.613281 33.578125 53.769531 34.613281 M 56.894531 31.738281 C 57.820312 30.933594 58.742188 30.011719 59.785156 29.207031 C 58.742188 28.175781 57.703125 27.023438 56.664062 25.988281 C 56.546875 25.875 54.003906 28.402344 53.65625 28.632812 C 54.695312 29.667969 55.738281 30.703125 56.894531 31.738281 M 60.132812 28.75 C 61.171875 27.714844 61.402344 27.828125 60.710938 26.566406 C 60.132812 25.644531 59.4375 24.839844 58.742188 23.921875 C 58.164062 24.496094 57.585938 24.953125 57.007812 25.53125 C 58.050781 26.566406 59.089844 27.714844 60.132812 28.75 M 52.613281 77.722656 C 53.769531 76.6875 54.925781 75.539062 56.085938 74.503906 C 55.507812 73.929688 53.539062 71.285156 52.847656 71.285156 C 52.5 71.285156 51.457031 72.664062 51.113281 72.894531 C 50.535156 73.46875 49.957031 73.929688 49.378906 74.503906 C 50.417969 75.539062 51.457031 76.574219 52.613281 77.722656 M 56.429688 74.046875 C 57.585938 73.011719 58.742188 71.859375 59.898438 70.824219 C 59.320312 70.25 57.355469 67.722656 56.664062 67.722656 C 56.316406 67.722656 55.160156 69.101562 54.925781 69.332031 C 54.347656 69.90625 53.769531 70.367188 53.191406 70.941406 C 54.234375 71.859375 55.390625 72.894531 56.429688 74.046875 M 52.847656 70.480469 C 54.003906 69.445312 55.042969 68.296875 56.199219 67.261719 C 55.621094 66.6875 53.65625 64.042969 52.960938 64.042969 C 52.613281 64.042969 51.574219 65.308594 51.34375 65.539062 C 50.765625 66.113281 50.070312 66.6875 49.492188 67.261719 C 50.648438 68.296875 51.691406 69.445312 52.847656 70.480469 M 60.246094 70.367188 C 61.402344 69.332031 62.558594 68.183594 63.714844 67.148438 C 63.136719 66.574219 61.171875 63.929688 60.476562 63.929688 C 60.132812 63.929688 59.089844 65.191406 58.859375 65.421875 C 58.28125 65.996094 57.585938 66.574219 57.007812 67.148438 C 58.164062 68.296875 59.207031 69.332031 60.246094 70.367188 M 56.664062 66.800781 C 57.820312 65.765625 58.976562 64.617188 60.132812 63.582031 C 59.554688 63.007812 57.585938 60.480469 56.894531 60.480469 C 56.546875 60.480469 55.507812 61.742188 55.273438 61.972656 C 54.695312 62.546875 54.003906 63.125 53.425781 63.699219 C 54.464844 64.734375 55.507812 65.765625 56.664062 66.800781 M 52.960938 63.238281 C 54.117188 62.203125 55.273438 61.054688 56.429688 60.019531 C 55.851562 59.445312 53.886719 56.800781 53.191406 56.800781 C 52.847656 56.800781 51.804688 58.066406 51.574219 58.292969 C 50.996094 58.871094 50.300781 59.445312 49.722656 60.019531 C 50.765625 61.167969 51.921875 62.203125 52.960938 63.238281 M 64.0625 66.800781 C 65.21875 65.765625 66.375 64.617188 67.53125 63.582031 C 66.953125 63.007812 64.988281 60.480469 64.292969 60.480469 C 63.949219 60.480469 62.90625 61.742188 62.675781 61.972656 C 62.097656 62.546875 61.402344 63.125 60.824219 63.699219 C 61.980469 64.617188 63.023438 65.652344 64.0625 66.800781 M 60.476562 63.238281 C 61.632812 62.203125 62.792969 61.054688 63.949219 60.019531 C 63.371094 59.445312 61.402344 56.800781 60.710938 56.800781 C 60.363281 56.800781 59.320312 58.066406 59.089844 58.292969 C 58.511719 58.871094 57.820312 59.445312 57.242188 60.019531 C 58.398438 61.054688 59.4375 62.089844 60.476562 63.238281 M 56.894531 59.675781 C 58.050781 58.640625 59.207031 57.488281 60.363281 56.457031 C 59.785156 55.878906 57.820312 53.238281 57.125 53.238281 C 56.777344 53.238281 55.738281 54.5 55.507812 54.730469 C 54.925781 55.304688 54.234375 55.878906 53.65625 56.457031 C 54.695312 57.488281 55.738281 58.640625 56.894531 59.675781 M 53.191406 56.109375 C 54.347656 55.074219 55.507812 53.925781 56.664062 52.890625 C 56.085938 52.316406 54.117188 49.789062 53.425781 49.789062 C 53.078125 49.789062 51.921875 51.167969 51.691406 51.398438 C 51.113281 51.972656 50.535156 52.429688 49.957031 53.007812 C 51.113281 53.925781 52.152344 54.960938 53.191406 56.109375 M 67.996094 63.125 C 68.917969 62.320312 69.265625 61.972656 69.496094 60.824219 C 69.613281 60.25 70.078125 58.523438 69.613281 58.066406 C 68.457031 57.03125 68.457031 56.457031 67.417969 57.488281 C 66.492188 58.292969 65.683594 59.097656 64.757812 60.019531 C 65.796875 61.054688 66.953125 62.089844 67.996094 63.125 M 64.292969 59.558594 C 65.449219 58.523438 66.605469 57.375 67.761719 56.339844 C 67.183594 55.765625 65.21875 53.238281 64.527344 53.238281 C 64.179688 53.238281 63.136719 54.5 62.90625 54.730469 C 62.328125 55.304688 61.632812 55.878906 61.054688 56.457031 C 62.210938 57.488281 63.253906 58.523438 64.292969 59.558594 M 60.710938 55.996094 C 61.867188 54.960938 63.023438 53.8125 64.179688 52.777344 C 63.601562 52.203125 61.632812 49.671875 60.941406 49.671875 C 60.59375 49.671875 59.554688 50.9375 59.320312 51.167969 C 58.742188 51.742188 58.050781 52.316406 57.472656 52.890625 C 58.628906 53.925781 59.667969 54.960938 60.710938 55.996094 M 57.125 52.429688 C 58.28125 51.398438 59.4375 50.246094 60.59375 49.210938 C 60.015625 48.636719 58.050781 46.109375 57.355469 46.109375 C 57.007812 46.109375 55.851562 47.488281 55.621094 47.71875 C 55.042969 48.292969 54.464844 48.753906 53.886719 49.328125 C 54.925781 50.363281 55.96875 51.398438 57.125 52.429688 M 53.425781 48.867188 C 54.582031 47.832031 55.738281 46.796875 56.894531 45.648438 C 56.316406 45.074219 54.347656 42.429688 53.65625 42.429688 C 53.308594 42.429688 52.269531 43.695312 52.035156 43.925781 C 51.457031 44.5 50.765625 45.074219 50.1875 45.648438 C 51.226562 46.796875 52.382812 47.832031 53.425781 48.867188 M 69.960938 57.605469 C 69.960938 56.800781 70.078125 55.996094 70.078125 55.191406 C 69.613281 55.535156 69.152344 55.996094 68.804688 56.339844 C 69.035156 56.683594 69.496094 57.144531 69.960938 57.605469 M 68.226562 55.996094 C 68.917969 55.421875 69.960938 54.847656 69.960938 53.925781 C 69.84375 53.238281 70.078125 52.085938 69.613281 51.625 C 68.917969 50.9375 68.457031 49.789062 67.648438 50.476562 C 66.839844 51.28125 65.914062 52.085938 65.105469 52.890625 C 66.027344 53.8125 67.183594 54.847656 68.226562 55.996094 M 69.730469 50.820312 C 69.613281 50.132812 69.613281 49.328125 69.496094 48.636719 C 68.339844 49.671875 68.574219 49.558594 69.730469 50.820312 M 64.640625 52.429688 C 65.683594 51.511719 66.722656 50.476562 67.761719 49.558594 C 66.722656 48.523438 65.683594 47.488281 64.640625 46.453125 C 64.527344 46.339844 61.867188 48.984375 61.519531 49.328125 C 62.445312 50.246094 63.484375 51.28125 64.640625 52.429688 M 68.109375 49.097656 C 69.035156 48.292969 69.382812 48.179688 69.265625 47.027344 C 69.152344 46.222656 68.917969 45.417969 68.917969 44.5 C 68.804688 43.925781 67.878906 43.121094 67.417969 43.578125 C 66.605469 44.382812 65.683594 45.1875 64.871094 45.992188 C 65.914062 47.027344 67.070312 48.0625 68.109375 49.097656 M 68.804688 43.347656 C 68.804688 43.003906 68.6875 42.773438 68.574219 42.429688 C 68.457031 42.542969 68.226562 42.660156 68.109375 42.773438 C 68.339844 43.003906 68.574219 43.234375 68.804688 43.347656 M 60.941406 48.867188 C 61.980469 47.832031 63.023438 46.914062 64.0625 45.878906 C 63.023438 44.84375 61.980469 43.808594 60.941406 42.773438 C 60.824219 42.660156 58.050781 45.417969 57.703125 45.648438 C 58.742188 46.683594 59.898438 47.832031 60.941406 48.867188 M 64.527344 45.535156 C 65.449219 44.613281 66.375 43.808594 67.417969 42.890625 C 66.375 41.855469 65.335938 40.933594 64.292969 39.902344 C 64.0625 39.671875 61.75 41.96875 61.402344 42.429688 C 62.445312 43.347656 63.484375 44.382812 64.527344 45.535156 M 67.761719 42.429688 C 69.035156 41.511719 67.996094 38.867188 67.761719 37.484375 C 67.53125 36.105469 64.757812 39.09375 64.527344 39.210938 C 65.566406 40.359375 66.722656 41.394531 67.761719 42.429688 M 57.242188 45.304688 C 58.28125 44.269531 59.320312 43.347656 60.476562 42.316406 C 59.898438 41.738281 58.050781 39.09375 57.355469 39.09375 C 56.664062 39.09375 54.695312 41.625 54.117188 42.199219 C 55.160156 43.121094 56.199219 44.269531 57.242188 45.304688 M 60.941406 41.855469 C 61.867188 41.050781 62.792969 40.128906 63.832031 39.324219 C 62.792969 38.289062 61.75 37.257812 60.710938 36.222656 C 60.476562 35.992188 58.28125 38.289062 57.933594 38.75 C 58.859375 39.785156 59.898438 40.820312 60.941406 41.855469 M 64.179688 38.867188 C 64.871094 38.175781 65.566406 37.484375 66.261719 36.910156 C 64.640625 36.335938 63.714844 35.417969 62.558594 34.152344 C 61.980469 34.726562 61.402344 35.1875 60.824219 35.761719 C 61.980469 36.796875 63.023438 37.832031 64.179688 38.867188 M 53.65625 41.738281 C 54.695312 40.707031 55.851562 39.671875 56.894531 38.636719 C 56.316406 38.0625 54.464844 35.417969 53.65625 35.417969 C 52.960938 35.417969 50.878906 37.945312 50.300781 38.519531 C 51.457031 39.554688 52.613281 40.707031 53.65625 41.738281 M 57.355469 38.289062 C 58.28125 37.484375 59.207031 36.566406 60.132812 35.761719 C 59.089844 34.726562 58.050781 33.808594 57.007812 32.773438 C 56.777344 32.542969 54.582031 34.726562 54.234375 35.070312 C 55.160156 36.105469 56.316406 37.257812 57.355469 38.289062 M 60.476562 35.300781 C 60.824219 34.957031 62.445312 33.921875 62.210938 33.460938 C 61.980469 32.773438 61.632812 31.96875 61.632812 31.164062 C 61.632812 30.589844 60.363281 29.4375 59.898438 29.785156 C 59.089844 30.589844 58.164062 31.277344 57.355469 32.082031 C 58.398438 33.234375 59.4375 34.265625 60.476562 35.300781 M 61.519531 30.242188 C 61.632812 29.667969 61.867188 28.75 61.632812 28.175781 C 60.476562 29.207031 60.476562 29.09375 61.519531 30.242188 M 23.820312 6.675781 C 21.972656 8.285156 20.121094 9.78125 18.15625 11.390625 C 18.039062 11.503906 17.230469 12.421875 17 12.078125 C 16.652344 11.503906 17.691406 11.042969 18.15625 10.585938 C 19.773438 9.203125 21.277344 7.941406 22.894531 6.675781 C 23.359375 6.214844 25.207031 4.605469 23.707031 4.375 C 22.433594 4.144531 20.121094 7.019531 19.425781 7.710938 C 19.082031 8.054688 17.921875 9.550781 17.34375 9.550781 C 17 9.550781 16.652344 9.433594 17 9.089844 C 18.503906 7.710938 20.121094 6.332031 21.625 4.835938 C 21.972656 4.492188 23.589844 2.191406 21.855469 2.652344 C 20.121094 3.113281 18.503906 5.410156 17.34375 6.5625 C 17 6.90625 16.074219 8.171875 15.609375 8.171875 C 14.800781 8.171875 15.726562 7.367188 15.84375 7.25 C 17.230469 5.871094 18.847656 4.605469 20.121094 3.113281 C 20.699219 2.421875 21.277344 -0.222656 19.542969 0.46875 C 17.921875 1.15625 16.765625 3.570312 15.726562 4.949219 C 14.453125 6.5625 12.953125 8.171875 11.5625 9.664062 C 10.40625 11.042969 8.324219 12.195312 7.632812 14.035156 C 6.9375 15.644531 7.515625 17.597656 8.671875 18.863281 C 11.449219 22.082031 13.992188 25.300781 16.535156 28.632812 C 18.269531 30.816406 21.046875 35.417969 24.398438 32.65625 C 27.175781 30.242188 26.25 25.875 24.167969 23.460938 C 22.78125 21.851562 21.160156 20.585938 19.425781 19.320312 C 18.847656 18.863281 15.265625 17.023438 15.378906 16.21875 C 15.496094 15.644531 18.734375 13.804688 19.3125 13.34375 C 20.699219 12.308594 21.972656 11.273438 23.128906 10.125 C 23.820312 9.433594 26.132812 7.824219 26.019531 6.789062 C 25.902344 5.410156 24.398438 6.214844 23.820312 6.675781 "/>
</g>
</svg>
