<?xml version="1.0" encoding="UTF-8"?>
<svg xmlns="http://www.w3.org/2000/svg" xmlns:xlink="http://www.w3.org/1999/xlink" width="99px" height="76px" viewBox="0 0 99 76" version="1.1">
<g id="surface1">
<path style=" stroke:none;fill-rule:nonzero;fill:rgb(0%,0%,0%);fill-opacity:1;" d="M 29.667969 70.40625 C 29.554688 70.292969 29.441406 70.292969 29.328125 70.179688 C 27.644531 67.914062 25.171875 64.171875 23.597656 61.226562 C 23.148438 60.433594 23.261719 59.300781 23.933594 58.621094 C 26.855469 55.449219 29.21875 51.710938 30.789062 47.628906 C 30.339844 47.402344 29.890625 47.175781 29.441406 46.949219 C 30.117188 47.289062 30.789062 47.628906 31.464844 47.972656 C 30.789062 41.398438 27.417969 30.75 16.855469 23.382812 C 16.519531 23.496094 16.179688 23.609375 15.84375 23.722656 C 15.84375 23.722656 15.730469 23.722656 15.621094 23.835938 C 15.394531 23.949219 15.058594 24.0625 14.832031 24.175781 C 14.722656 24.175781 14.609375 24.289062 14.609375 24.289062 C 14.382812 24.402344 14.269531 24.515625 14.046875 24.515625 C 8.878906 25.308594 5.84375 33.582031 4.945312 36.753906 C 2.695312 38.453125 -1.910156 44.003906 1.234375 57.828125 C 1.234375 57.828125 4.046875 50.464844 5.84375 44.34375 C 7.304688 39.132812 5.84375 36.1875 5.84375 36.1875 C 6.855469 34.941406 7.753906 33.695312 8.652344 32.5625 C 8.652344 32.449219 8.652344 32.675781 8.652344 33.015625 C 8.652344 33.355469 8.652344 33.808594 8.652344 34.148438 C 8.652344 34.148438 8.652344 34.261719 8.652344 34.261719 C 8.652344 34.714844 8.652344 35.054688 8.765625 35.507812 C 12.699219 38.566406 20.113281 44.230469 24.160156 47.0625 C 23.824219 47.628906 23.484375 48.085938 23.148438 48.652344 C 20.453125 46.382812 15.394531 42.757812 10.675781 42.984375 C 10.789062 43.097656 10.789062 43.324219 10.898438 43.4375 C 11.347656 44.570312 11.910156 45.703125 12.25 46.835938 L 22.472656 49.558594 C 22.136719 50.011719 21.800781 50.464844 21.464844 50.917969 L 12.808594 48.878906 C 12.808594 49.105469 12.921875 49.332031 12.921875 49.558594 C 12.921875 49.785156 12.921875 50.011719 12.921875 50.238281 C 14.722656 51.597656 16.855469 53.183594 18.429688 54.542969 C 18.992188 53.976562 19.441406 53.410156 19.890625 52.730469 C 19.777344 52.957031 19.554688 53.070312 19.441406 53.296875 C 18.992188 55.222656 18.429688 57.261719 17.640625 59.074219 C 17.304688 59.867188 17.53125 60.660156 18.09375 61.226562 C 20.675781 63.832031 23.035156 67.914062 24.273438 70.40625 C 24.273438 70.292969 24.496094 73.351562 24.496094 74.9375 L 31.464844 74.9375 C 31.800781 73.351562 31.128906 71.539062 29.667969 70.40625 Z M 8.878906 30.523438 C 9.214844 29.164062 9.777344 28.027344 10.5625 27.007812 C 15.28125 30.523438 25.84375 39.019531 29.328125 46.949219 C 28.09375 46.269531 26.96875 45.589844 25.84375 44.910156 C 25.734375 44.796875 25.621094 44.796875 25.507812 44.683594 C 25.507812 44.683594 25.507812 44.796875 25.394531 44.796875 C 25.171875 45.136719 25.058594 45.476562 24.835938 45.816406 C 21.464844 41.625 13.371094 33.015625 8.878906 30.523438 Z M 24.835938 46.042969 C 24.722656 46.15625 24.722656 46.269531 24.609375 46.382812 C 24.722656 46.269531 24.722656 46.15625 24.835938 46.042969 Z M 24.835938 46.042969 "/>
<path style=" stroke:none;fill-rule:nonzero;fill:rgb(0%,0%,0%);fill-opacity:1;" d="M 15.730469 67.003906 C 14.832031 65.53125 14.046875 63.832031 13.710938 62.246094 L 8.765625 62.246094 C 8.988281 62.925781 9.328125 63.71875 9.777344 64.511719 Z M 15.730469 67.003906 "/>
<path style=" stroke:none;fill-rule:nonzero;fill:rgb(0%,0%,0%);fill-opacity:1;" d="M 14.046875 60.09375 C 14.609375 59.414062 15.171875 58.621094 15.730469 57.941406 C 15.957031 57.714844 16.070312 57.488281 16.292969 57.261719 C 14.832031 56.582031 12.921875 55.675781 11.347656 54.882812 C 10.898438 55.449219 10.5625 56.015625 10.113281 56.582031 C 9.4375 57.488281 8.765625 58.507812 8.429688 59.527344 C 8.429688 59.640625 8.429688 59.753906 8.429688 59.980469 L 13.710938 61.339844 C 13.597656 61 13.710938 60.546875 14.046875 60.09375 Z M 14.046875 60.09375 "/>
<path style=" stroke:none;fill-rule:nonzero;fill:rgb(0%,0%,0%);fill-opacity:1;" d="M 31.6875 23.15625 C 31.578125 23.15625 31.578125 23.15625 31.464844 23.15625 C 30.789062 23.15625 30.117188 23.15625 29.554688 23.15625 C 29.328125 23.15625 29.105469 23.15625 28.878906 23.15625 C 28.429688 23.15625 27.867188 23.15625 27.417969 23.15625 C 27.195312 23.15625 26.96875 23.15625 26.855469 23.15625 C 26.183594 23.15625 25.621094 23.042969 25.058594 23.042969 C 25.058594 23.042969 24.945312 23.042969 24.945312 23.042969 C 28.542969 28.484375 34.722656 39.359375 34.949219 49.558594 C 35.734375 49.898438 36.519531 50.125 37.421875 50.351562 C 36.632812 43.777344 34.949219 30.75 31.6875 23.15625 Z M 31.6875 23.15625 "/>
<path style=" stroke:none;fill-rule:nonzero;fill:rgb(0%,0%,0%);fill-opacity:1;" d="M 40.003906 22.929688 C 38.878906 23.042969 37.644531 23.042969 36.519531 23.042969 C 38.320312 29.730469 41.578125 43.097656 40.003906 50.804688 C 40.453125 50.917969 41.015625 51.03125 41.464844 51.03125 C 42.253906 44.796875 43.710938 29.957031 40.339844 22.816406 C 40.230469 22.929688 40.117188 22.929688 40.003906 22.929688 Z M 40.003906 22.929688 "/>
<path style=" stroke:none;fill-rule:nonzero;fill:rgb(0%,0%,0%);fill-opacity:1;" d="M 44.835938 36.300781 C 43.488281 39.8125 55.398438 29.277344 54.5 21.117188 C 54.5 21.117188 54.386719 21.117188 54.386719 21.117188 C 53.488281 21.34375 52.589844 21.457031 51.578125 21.683594 C 51.578125 21.683594 51.578125 21.683594 51.464844 21.683594 C 51.578125 24.742188 51.128906 28.371094 48.996094 30.863281 C 48.542969 31.316406 47.757812 30.976562 47.871094 30.296875 C 48.207031 28.253906 48.542969 24.855469 48.542969 22.023438 C 48.320312 22.023438 48.09375 22.136719 47.871094 22.136719 C 47.421875 22.25 46.972656 22.25 46.410156 22.363281 C 46.074219 22.363281 45.734375 22.476562 45.398438 22.476562 C 44.949219 22.476562 44.386719 22.589844 43.9375 22.589844 C 43.824219 22.589844 43.824219 22.589844 43.710938 22.589844 C 44.613281 26.328125 45.960938 33.355469 44.835938 36.300781 Z M 44.835938 36.300781 "/>
<path style=" stroke:none;fill-rule:nonzero;fill:rgb(0%,0%,0%);fill-opacity:1;" d="M 50.679688 35.507812 C 44.613281 37.660156 43.375 45.929688 43.152344 51.371094 C 43.601562 51.371094 43.9375 51.484375 44.386719 51.484375 C 48.542969 37.320312 58.996094 32.5625 50.679688 35.507812 Z M 50.679688 35.507812 "/>
<path style=" stroke:none;fill-rule:nonzero;fill:rgb(0%,0%,0%);fill-opacity:1;" d="M 61.355469 18.851562 C 61.019531 18.964844 60.679688 19.191406 60.34375 19.304688 C 60.230469 19.417969 60.007812 19.417969 59.894531 19.53125 C 59.445312 19.644531 59.109375 19.871094 58.660156 19.984375 C 58.546875 19.984375 58.433594 20.097656 58.320312 20.097656 C 57.984375 20.210938 57.648438 20.324219 57.308594 20.4375 C 55.738281 24.515625 53.375 30.410156 52.925781 32.222656 C 52.253906 34.375 61.46875 23.722656 61.355469 18.851562 Z M 61.355469 18.851562 "/>
<path style=" stroke:none;fill-rule:nonzero;fill:rgb(0%,0%,0%);fill-opacity:1;" d="M 48.09375 51.371094 C 48.65625 51.371094 49.21875 51.257812 49.78125 51.144531 C 50.34375 51.03125 50.90625 50.917969 51.464844 50.804688 C 53.039062 50.464844 54.613281 49.898438 56.296875 49.21875 C 56.636719 48.992188 57.085938 48.878906 57.421875 48.652344 C 57.757812 48.425781 58.207031 48.3125 58.546875 48.085938 C 61.242188 21.117188 51.355469 43.324219 48.09375 51.371094 Z M 48.09375 51.371094 "/>
<path style=" stroke:none;fill-rule:nonzero;fill:rgb(0%,0%,0%);fill-opacity:1;" d="M 95.292969 15 C 94.953125 14.660156 94.617188 14.320312 94.394531 13.867188 C 94.167969 13.640625 94.054688 13.414062 93.832031 13.1875 C 91.023438 14.773438 86.75 17.71875 87.761719 21.003906 C 87.761719 21.003906 87.875 21.003906 87.875 21.003906 C 88.4375 21.230469 89 21.34375 89.5625 21.570312 C 89.785156 21.683594 90.121094 21.796875 90.347656 21.796875 C 90.011719 19.644531 90.570312 16.585938 95.292969 15 Z M 95.292969 15 "/>
<path style=" stroke:none;fill-rule:nonzero;fill:rgb(0%,0%,0%);fill-opacity:1;" d="M 86.527344 14.09375 C 84.953125 16.246094 85.179688 17.945312 85.289062 19.984375 C 85.289062 19.984375 85.289062 19.984375 85.402344 19.984375 C 85.628906 20.097656 85.851562 20.210938 86.078125 20.210938 C 86.300781 18.171875 86.976562 17.152344 88.210938 15.453125 C 88.773438 14.660156 87.539062 12.621094 86.527344 14.09375 Z M 86.527344 14.09375 "/>
<path style=" stroke:none;fill-rule:nonzero;fill:rgb(0%,0%,0%);fill-opacity:1;" d="M 90.011719 8.425781 C 89.898438 8.3125 89.785156 8.085938 89.671875 7.972656 C 80.121094 8.652344 81.808594 18.285156 82.929688 22.476562 C 83.15625 22.023438 83.492188 21.570312 83.828125 21.117188 C 81.46875 12.28125 86.75 9.335938 90.011719 8.425781 Z M 90.011719 8.425781 "/>
<path style=" stroke:none;fill-rule:nonzero;fill:rgb(0%,0%,0%);fill-opacity:1;" d="M 68.324219 22.136719 C 68.773438 24.515625 73.15625 33.015625 76.976562 35.167969 C 77.199219 34.375 77.535156 33.695312 77.761719 33.015625 C 74.503906 28.597656 67.871094 19.984375 68.324219 22.136719 Z M 68.324219 22.136719 "/>
<path style=" stroke:none;fill-rule:nonzero;fill:rgb(0%,0%,0%);fill-opacity:1;" d="M 68.773438 27.574219 C 67.535156 23.382812 62.929688 31.429688 76.300781 36.980469 C 76.300781 36.867188 76.414062 36.640625 76.414062 36.527344 C 74.277344 34.714844 69.78125 30.863281 68.773438 27.574219 Z M 68.773438 27.574219 "/>
<path style=" stroke:none;fill-rule:nonzero;fill:rgb(0%,0%,0%);fill-opacity:1;" d="M 64.613281 31.089844 C 62.816406 28.027344 57.421875 36.867188 75.625 38.90625 C 75.738281 38.679688 75.738281 38.453125 75.851562 38.226562 C 72.59375 36.640625 66.074219 33.46875 64.613281 31.089844 Z M 64.613281 31.089844 "/>
<path style=" stroke:none;fill-rule:nonzero;fill:rgb(0%,0%,0%);fill-opacity:1;" d="M 61.804688 40.039062 C 64.390625 43.097656 66.972656 44.570312 69.109375 45.363281 C 68.660156 45.589844 68.210938 45.929688 67.871094 46.269531 C 65.0625 46.496094 62.03125 49.105469 60.230469 50.804688 C 60.230469 50.917969 60.230469 51.144531 60.230469 51.371094 C 60.230469 51.597656 60.230469 51.710938 60.230469 51.9375 C 60.230469 51.9375 60.230469 52.050781 60.230469 52.050781 L 66.074219 50.578125 C 66.074219 50.351562 66.1875 50.238281 66.1875 50.011719 C 65.625 52.164062 65.402344 53.863281 65.289062 55.449219 C 65.289062 55.335938 65.289062 55.109375 65.289062 54.996094 L 60.121094 54.089844 C 60.121094 54.542969 60.121094 55.109375 60.007812 55.5625 C 60.007812 55.675781 60.007812 55.789062 60.007812 55.902344 L 65.175781 55.675781 C 65.175781 55.5625 65.175781 55.5625 65.175781 55.449219 C 65.175781 56.46875 65.175781 57.488281 65.289062 58.621094 C 65.289062 59.074219 65.402344 59.640625 65.402344 60.207031 C 65.402344 60.207031 65.402344 60.207031 65.402344 60.09375 L 60.230469 59.300781 C 60.230469 59.640625 60.34375 59.980469 60.34375 60.433594 C 60.34375 60.773438 60.457031 61.226562 60.457031 61.679688 C 60.457031 61.679688 60.457031 61.792969 60.457031 61.792969 L 65.402344 61.226562 C 65.511719 62.585938 65.738281 64.285156 65.851562 65.757812 C 64.164062 65.304688 62.253906 64.851562 60.679688 64.398438 C 60.679688 64.398438 60.679688 64.511719 60.679688 64.511719 C 60.679688 65.078125 60.792969 65.644531 60.792969 66.210938 C 60.792969 66.324219 60.792969 66.324219 60.792969 66.4375 C 60.792969 67.003906 60.90625 67.460938 60.90625 67.914062 C 60.90625 67.914062 60.90625 68.027344 60.90625 68.027344 L 65.960938 67.6875 C 66.074219 68.707031 66.1875 69.726562 66.300781 70.40625 C 66.300781 70.746094 66.410156 71.085938 66.410156 71.3125 C 66.410156 71.3125 66.300781 71.199219 66.300781 71.199219 C 64.953125 70.179688 62.929688 70.066406 61.46875 70.859375 C 61.242188 70.972656 61.128906 71.085938 60.90625 71.199219 C 60.90625 72.785156 60.90625 74.371094 61.019531 75.957031 L 72.144531 75.957031 C 72.480469 74.257812 71.804688 72.21875 70.34375 71.199219 C 70.121094 71.085938 70.007812 70.972656 69.78125 70.859375 C 68.210938 61.453125 68.097656 54.65625 69.558594 45.023438 C 69.894531 44.796875 70.234375 44.683594 70.570312 44.457031 C 71.019531 44.230469 71.582031 44.003906 72.03125 43.777344 C 72.703125 43.4375 73.378906 42.984375 73.941406 42.304688 C 74.164062 41.964844 74.503906 41.738281 74.613281 41.285156 C 69.894531 39.359375 56.523438 33.808594 61.804688 40.039062 Z M 61.804688 40.039062 "/>
<path style=" stroke:none;fill-rule:nonzero;fill:rgb(0%,0%,0%);fill-opacity:1;" d="M 88.210938 11.488281 C 88.550781 12.054688 89.109375 12.621094 89.671875 12.847656 C 90.234375 12.960938 91.246094 12.621094 91.246094 12.621094 C 90.347656 11.261719 89.449219 11.148438 88.210938 11.488281 Z M 88.210938 11.488281 "/>
<path style=" stroke:none;fill-rule:nonzero;fill:rgb(0%,0%,0%);fill-opacity:1;" d="M 98.324219 19.078125 C 98.101562 18.625 97.425781 17.71875 97.425781 17.71875 C 96.753906 17.039062 95.179688 17.945312 95.066406 18.964844 C 94.953125 19.871094 95.292969 20.550781 94.503906 21.230469 C 94.054688 21.570312 93.042969 22.023438 93.042969 22.703125 C 93.042969 22.816406 93.042969 22.929688 93.15625 23.042969 C 93.382812 23.609375 93.941406 24.289062 94.28125 24.628906 C 95.402344 25.988281 97.652344 25.875 98.550781 24.289062 C 99.335938 22.703125 99 20.664062 98.324219 19.078125 Z M 97.652344 22.136719 C 97.425781 22.25 97.089844 21.910156 96.976562 21.683594 C 96.753906 21.117188 96.863281 20.777344 97.089844 20.777344 C 97.539062 20.777344 97.765625 21.457031 97.765625 21.796875 C 97.875 21.910156 97.765625 22.023438 97.652344 22.136719 Z M 97.652344 22.136719 "/>
<path style=" stroke:none;fill-rule:nonzero;fill:rgb(0%,0%,0%);fill-opacity:1;" d="M 79.671875 7.632812 C 82.03125 9.335938 84.953125 7.746094 86.75 6.386719 C 86.300781 6.273438 85.738281 5.933594 85.515625 5.707031 C 85.515625 5.707031 85.402344 5.59375 85.402344 5.59375 C 85.402344 5.59375 85.402344 5.480469 85.515625 5.480469 C 86.300781 5.59375 87.089844 5.933594 87.761719 6.273438 C 87.875 6.386719 87.988281 6.386719 88.101562 6.5 C 88.324219 6.726562 88.550781 6.839844 88.660156 6.839844 C 89.222656 7.066406 89.785156 6.953125 90.570312 6.726562 C 91.246094 6.5 92.257812 5.59375 92.257812 5.59375 C 92.257812 5.59375 91.246094 4.234375 90.347656 3.328125 C 90.796875 2.535156 91.023438 1.742188 90.910156 0.722656 C 90.121094 1.289062 89.449219 1.855469 88.773438 2.308594 C 87.875 1.855469 86.863281 1.515625 85.964844 1.402344 C 85.402344 1.289062 84.839844 1.289062 84.390625 1.289062 C 83.492188 0.496094 82.480469 0.0429688 82.480469 0.0429688 C 82.03125 0.382812 81.582031 1.289062 81.359375 1.855469 C 80.683594 2.082031 80.007812 2.308594 79.335938 2.761719 C 67.648438 9.222656 63.492188 16.925781 61.804688 18.625 C 61.917969 18.738281 62.480469 18.625 63.152344 18.398438 C 62.703125 22.25 61.46875 27.914062 58.097656 31.203125 C 53.152344 36.074219 71.46875 25.535156 66.1875 17.039062 C 66.636719 16.8125 67.199219 16.585938 67.648438 16.246094 C 69.894531 21.117188 76.300781 28.710938 78.4375 31.203125 C 78.546875 30.75 78.773438 30.410156 78.886719 29.957031 C 75.515625 26.667969 71.804688 19.078125 69.894531 14.886719 C 70.570312 14.433594 71.355469 13.980469 72.144531 13.414062 C 73.714844 18.171875 77.535156 25.535156 79.558594 28.484375 C 79.785156 28.027344 80.007812 27.574219 80.234375 27.121094 C 78.773438 22.363281 76.074219 15.453125 74.613281 11.714844 C 75.402344 11.148438 76.074219 10.582031 76.863281 10.015625 C 77.648438 11.488281 78.546875 13.300781 78.886719 15.566406 C 79.558594 19.417969 80.234375 23.609375 80.90625 25.648438 C 81.246094 24.855469 81.695312 24.175781 82.144531 23.382812 C 81.582031 19.871094 80.347656 12.621094 78.546875 8.652344 C 78.996094 8.3125 79.335938 7.972656 79.671875 7.632812 Z M 82.820312 5.59375 C 83.042969 5.820312 83.269531 6.046875 83.605469 6.160156 C 83.378906 6.273438 83.042969 6.5 82.59375 6.613281 C 82.144531 6.726562 81.695312 6.613281 81.132812 6.386719 C 81.582031 6.046875 82.144531 5.707031 82.820312 5.59375 Z M 82.820312 5.59375 "/>
<path style=" stroke:none;fill-rule:nonzero;fill:rgb(0%,0%,0%);fill-opacity:1;" d="M 19.214844 71.539062 C 19.214844 71.539062 19.101562 71.539062 19.101562 71.425781 C 18.992188 71.3125 18.878906 71.3125 18.765625 71.199219 C 18.203125 70.519531 17.191406 69.160156 16.179688 67.460938 L 10.675781 65.984375 C 11.910156 68.367188 13.371094 70.632812 13.933594 71.539062 C 13.933594 71.425781 14.160156 71.765625 14.160156 75.730469 L 21.125 75.730469 C 21.351562 74.371094 20.5625 72.558594 19.214844 71.539062 Z M 19.214844 71.539062 "/>
</g>
</svg>
