<?xml version="1.0" encoding="UTF-8"?>
<svg xmlns="http://www.w3.org/2000/svg" xmlns:xlink="http://www.w3.org/1999/xlink" width="84px" height="100px" viewBox="0 0 84 100" version="1.1">
<g id="surface1">
<path style=" stroke:none;fill-rule:nonzero;fill:rgb(0%,0%,0%);fill-opacity:1;" d="M 49.160156 12.308594 C 47.847656 11.875 46.753906 12.089844 45.554688 12.199219 C 45.007812 12.308594 44.460938 12.527344 44.023438 12.746094 C 48.613281 13.726562 51.457031 17.101562 52.550781 21.023438 C 53.644531 19.0625 53.316406 16.992188 53.316406 16.777344 C 52.988281 15.6875 52.113281 13.179688 49.160156 12.308594 Z M 49.160156 12.308594 "/>
<path style=" stroke:none;fill-rule:nonzero;fill:rgb(0%,0%,0%);fill-opacity:1;" d="M 40.414062 16.011719 C 38.664062 19.0625 38.882812 23.964844 40.195312 24.835938 C 40.742188 25.273438 43.039062 25.164062 44.242188 25.054688 C 44.242188 25.925781 44.242188 26.90625 44.242188 27.667969 C 43.695312 27.886719 43.257812 27.996094 42.710938 28.214844 C 42.710938 28.214844 45.117188 32.027344 48.722656 31.15625 C 51.675781 30.390625 51.019531 26.90625 50.910156 26.363281 C 50.800781 26.363281 50.582031 26.363281 50.472656 26.363281 C 50.144531 26.363281 49.925781 26.363281 49.597656 26.46875 C 49.378906 26.46875 49.269531 26.46875 49.050781 26.578125 C 48.832031 25.816406 48.503906 25.054688 48.285156 24.402344 C 49.269531 24.074219 50.035156 23.636719 50.691406 23.203125 C 49.597656 18.953125 46.644531 15.359375 41.617188 14.378906 C 41.070312 14.921875 40.632812 15.578125 40.414062 16.011719 Z M 40.414062 16.011719 "/>
<path style=" stroke:none;fill-rule:nonzero;fill:rgb(0%,0%,0%);fill-opacity:1;" d="M 65.777344 99.128906 C 67.417969 95.75 61.84375 95.644531 60.3125 91.175781 C 59.546875 88.78125 59.328125 81.808594 59.21875 76.035156 C 60.640625 76.035156 61.625 75.925781 61.625 75.925781 C 61.625 75.925781 60.640625 74.617188 65.449219 60.894531 C 70.261719 47.167969 60.859375 45.75 60.859375 45.75 L 48.832031 49.5625 L 29.152344 62.855469 C 30.027344 64.816406 31.230469 66.449219 32.652344 67.863281 C 32.761719 73.964844 32.652344 84.203125 31.667969 87.253906 C 30.136719 91.722656 24.671875 91.828125 26.203125 95.207031 C 27.734375 98.367188 28.496094 92.808594 36.480469 90.414062 C 37.355469 90.085938 37.898438 89.324219 37.789062 88.34375 C 37.355469 85.292969 36.699219 78.539062 38.773438 72.113281 C 43.476562 74.402344 48.722656 75.273438 52.988281 75.707031 C 55.175781 82.136719 54.519531 89.105469 54.082031 92.15625 C 53.972656 93.027344 54.519531 93.898438 55.394531 94.226562 C 63.484375 96.730469 64.359375 102.289062 65.777344 99.128906 "/>
<path style=" stroke:none;fill-rule:nonzero;fill:rgb(0%,0%,0%);fill-opacity:1;" d="M 40.632812 29.628906 C 40.414062 29.738281 40.304688 30.066406 40.523438 30.390625 C 40.742188 30.609375 41.070312 30.71875 41.289062 30.5 C 41.507812 30.285156 41.507812 30.066406 41.398438 29.738281 C 41.179688 29.519531 40.851562 29.410156 40.632812 29.628906 Z M 40.632812 29.628906 "/>
<path style=" stroke:none;fill-rule:nonzero;fill:rgb(0%,0%,0%);fill-opacity:1;" d="M 42.164062 31.480469 C 42.382812 31.261719 42.382812 30.9375 42.164062 30.71875 C 41.945312 30.5 41.617188 30.5 41.398438 30.71875 C 41.179688 30.9375 41.179688 31.261719 41.398438 31.480469 C 41.617188 31.589844 41.945312 31.589844 42.164062 31.480469 Z M 42.164062 31.480469 "/>
<path style=" stroke:none;fill-rule:nonzero;fill:rgb(0%,0%,0%);fill-opacity:1;" d="M 43.148438 32.351562 C 43.367188 32.136719 43.257812 31.808594 43.148438 31.589844 C 42.929688 31.371094 42.601562 31.480469 42.382812 31.589844 C 42.164062 31.808594 42.164062 32.136719 42.382812 32.351562 C 42.710938 32.679688 43.039062 32.570312 43.148438 32.351562 Z M 43.148438 32.351562 "/>
<path style=" stroke:none;fill-rule:nonzero;fill:rgb(0%,0%,0%);fill-opacity:1;" d="M 43.585938 33.332031 C 43.804688 33.550781 44.132812 33.441406 44.351562 33.222656 C 44.460938 33.007812 44.460938 32.679688 44.242188 32.570312 C 44.023438 32.460938 43.695312 32.460938 43.585938 32.679688 C 43.257812 32.789062 43.367188 33.117188 43.585938 33.332031 Z M 43.585938 33.332031 "/>
<path style=" stroke:none;fill-rule:nonzero;fill:rgb(0%,0%,0%);fill-opacity:1;" d="M 44.898438 34.097656 C 45.117188 34.203125 45.445312 34.097656 45.554688 33.878906 C 45.664062 33.550781 45.554688 33.332031 45.335938 33.222656 C 45.117188 33.117188 44.789062 33.222656 44.679688 33.441406 C 44.460938 33.550781 44.570312 33.878906 44.898438 34.097656 Z M 44.898438 34.097656 "/>
<path style=" stroke:none;fill-rule:nonzero;fill:rgb(0%,0%,0%);fill-opacity:1;" d="M 46.210938 34.53125 C 46.539062 34.640625 46.753906 34.421875 46.863281 34.203125 C 46.863281 33.878906 46.753906 33.660156 46.539062 33.550781 C 46.320312 33.550781 45.992188 33.660156 45.882812 33.878906 C 45.773438 34.203125 45.992188 34.53125 46.210938 34.53125 Z M 46.210938 34.53125 "/>
<path style=" stroke:none;fill-rule:nonzero;fill:rgb(0%,0%,0%);fill-opacity:1;" d="M 47.738281 34.75 C 48.066406 34.75 48.285156 34.53125 48.285156 34.203125 C 48.285156 33.878906 48.066406 33.769531 47.847656 33.660156 C 47.628906 33.660156 47.300781 33.878906 47.300781 34.097656 C 47.191406 34.53125 47.410156 34.75 47.738281 34.75 Z M 47.738281 34.75 "/>
<path style=" stroke:none;fill-rule:nonzero;fill:rgb(0%,0%,0%);fill-opacity:1;" d="M 49.160156 34.640625 C 49.488281 34.53125 49.597656 34.3125 49.597656 33.988281 C 49.488281 33.660156 49.269531 33.550781 49.050781 33.550781 C 48.832031 33.660156 48.613281 33.878906 48.613281 34.097656 C 48.613281 34.53125 48.941406 34.75 49.160156 34.640625 Z M 49.160156 34.640625 "/>
<path style=" stroke:none;fill-rule:nonzero;fill:rgb(0%,0%,0%);fill-opacity:1;" d="M 50.691406 34.3125 C 51.019531 34.203125 51.128906 33.878906 51.019531 33.660156 C 50.910156 33.441406 50.582031 33.332031 50.363281 33.332031 C 50.144531 33.441406 50.035156 33.769531 50.035156 33.988281 C 50.035156 34.203125 50.363281 34.421875 50.691406 34.3125 Z M 50.691406 34.3125 "/>
<path style=" stroke:none;fill-rule:nonzero;fill:rgb(0%,0%,0%);fill-opacity:1;" d="M 52.003906 33.550781 C 52.222656 33.332031 52.332031 33.007812 52.113281 32.789062 C 51.894531 32.570312 51.566406 32.570312 51.457031 32.679688 C 51.238281 32.789062 51.128906 33.117188 51.347656 33.332031 C 51.347656 33.660156 51.675781 33.769531 52.003906 33.550781 Z M 52.003906 33.550781 "/>
<path style=" stroke:none;fill-rule:nonzero;fill:rgb(0%,0%,0%);fill-opacity:1;" d="M 53.097656 32.460938 C 53.316406 32.242188 53.207031 31.917969 52.988281 31.699219 C 52.769531 31.589844 52.441406 31.589844 52.332031 31.808594 C 52.222656 32.027344 52.222656 32.351562 52.441406 32.460938 C 52.550781 32.789062 52.878906 32.789062 53.097656 32.460938 Z M 53.097656 32.460938 "/>
<path style=" stroke:none;fill-rule:nonzero;fill:rgb(0%,0%,0%);fill-opacity:1;" d="M 53.863281 31.15625 C 53.972656 30.828125 53.863281 30.609375 53.535156 30.5 C 53.207031 30.390625 52.988281 30.5 52.878906 30.828125 C 52.769531 31.046875 52.878906 31.371094 53.097656 31.480469 C 53.425781 31.589844 53.644531 31.480469 53.863281 31.15625 Z M 53.863281 31.15625 "/>
<path style=" stroke:none;fill-rule:nonzero;fill:rgb(0%,0%,0%);fill-opacity:1;" d="M 54.300781 29.738281 C 54.410156 29.410156 54.191406 29.195312 53.863281 29.085938 C 53.535156 29.085938 53.316406 29.195312 53.316406 29.519531 C 53.316406 29.738281 53.425781 30.066406 53.753906 30.066406 C 53.863281 30.285156 54.191406 30.066406 54.300781 29.738281 Z M 54.300781 29.738281 "/>
<path style=" stroke:none;fill-rule:nonzero;fill:rgb(0%,0%,0%);fill-opacity:1;" d="M 53.863281 27.777344 C 53.535156 27.777344 53.316406 27.996094 53.316406 28.324219 C 53.316406 28.539062 53.535156 28.867188 53.753906 28.867188 C 54.082031 28.867188 54.300781 28.648438 54.300781 28.324219 C 54.410156 27.996094 54.191406 27.777344 53.863281 27.777344 Z M 53.863281 27.777344 "/>
<path style=" stroke:none;fill-rule:nonzero;fill:rgb(0%,0%,0%);fill-opacity:1;" d="M 53.753906 26.46875 C 53.425781 26.46875 53.316406 26.796875 53.316406 27.015625 C 53.316406 27.234375 53.535156 27.449219 53.863281 27.449219 C 54.191406 27.449219 54.410156 27.234375 54.300781 26.90625 C 54.300781 26.578125 54.082031 26.363281 53.753906 26.46875 Z M 53.753906 26.46875 "/>
<path style=" stroke:none;fill-rule:nonzero;fill:rgb(0%,0%,0%);fill-opacity:1;" d="M 42.820312 29.738281 C 43.039062 29.519531 43.039062 29.195312 42.929688 28.976562 C 42.710938 28.757812 42.492188 28.757812 42.164062 28.867188 C 41.945312 28.976562 41.835938 29.410156 42.054688 29.628906 C 42.273438 29.957031 42.601562 29.957031 42.820312 29.738281 Z M 42.820312 29.738281 "/>
<path style=" stroke:none;fill-rule:nonzero;fill:rgb(0%,0%,0%);fill-opacity:1;" d="M 43.804688 30.71875 C 44.023438 30.5 44.023438 30.175781 43.804688 29.957031 C 43.585938 29.738281 43.257812 29.738281 43.039062 29.957031 C 42.820312 30.175781 42.820312 30.5 43.039062 30.71875 C 43.257812 30.9375 43.585938 30.9375 43.804688 30.71875 Z M 43.804688 30.71875 "/>
<path style=" stroke:none;fill-rule:nonzero;fill:rgb(0%,0%,0%);fill-opacity:1;" d="M 44.898438 31.589844 C 45.007812 31.371094 45.007812 31.046875 44.789062 30.9375 C 44.570312 30.828125 44.242188 30.828125 44.023438 31.046875 C 43.914062 31.15625 43.914062 31.589844 44.132812 31.699219 C 44.460938 31.917969 44.789062 31.808594 44.898438 31.589844 Z M 44.898438 31.589844 "/>
<path style=" stroke:none;fill-rule:nonzero;fill:rgb(0%,0%,0%);fill-opacity:1;" d="M 46.210938 32.136719 C 46.320312 31.917969 46.210938 31.589844 45.882812 31.480469 C 45.664062 31.371094 45.335938 31.480469 45.226562 31.699219 C 45.117188 31.917969 45.226562 32.242188 45.445312 32.351562 C 45.773438 32.570312 46.101562 32.460938 46.210938 32.136719 Z M 46.210938 32.136719 "/>
<path style=" stroke:none;fill-rule:nonzero;fill:rgb(0%,0%,0%);fill-opacity:1;" d="M 47.519531 32.460938 C 47.519531 32.242188 47.300781 31.917969 47.082031 31.917969 C 46.863281 31.917969 46.539062 32.027344 46.539062 32.351562 C 46.429688 32.570312 46.644531 32.898438 46.972656 33.007812 C 47.300781 32.898438 47.519531 32.679688 47.519531 32.460938 Z M 47.519531 32.460938 "/>
<path style=" stroke:none;fill-rule:nonzero;fill:rgb(0%,0%,0%);fill-opacity:1;" d="M 48.503906 32.898438 C 48.832031 32.789062 49.050781 32.570312 48.941406 32.242188 C 48.832031 32.027344 48.613281 31.808594 48.394531 31.808594 C 48.175781 31.917969 47.957031 32.027344 47.957031 32.351562 C 47.957031 32.679688 48.175781 32.898438 48.503906 32.898438 Z M 48.503906 32.898438 "/>
<path style=" stroke:none;fill-rule:nonzero;fill:rgb(0%,0%,0%);fill-opacity:1;" d="M 50.035156 32.351562 C 50.363281 32.242188 50.472656 31.917969 50.253906 31.589844 C 50.144531 31.371094 49.816406 31.261719 49.597656 31.371094 C 49.378906 31.480469 49.269531 31.808594 49.378906 32.027344 C 49.378906 32.351562 49.707031 32.570312 50.035156 32.351562 Z M 50.035156 32.351562 "/>
<path style=" stroke:none;fill-rule:nonzero;fill:rgb(0%,0%,0%);fill-opacity:1;" d="M 51.238281 30.71875 C 51.019531 30.609375 50.691406 30.609375 50.582031 30.828125 C 50.472656 31.046875 50.363281 31.261719 50.582031 31.480469 C 50.800781 31.699219 51.128906 31.699219 51.347656 31.480469 C 51.457031 31.15625 51.457031 30.828125 51.238281 30.71875 Z M 51.238281 30.71875 "/>
<path style=" stroke:none;fill-rule:nonzero;fill:rgb(0%,0%,0%);fill-opacity:1;" d="M 51.128906 29.738281 C 51.019531 29.957031 51.128906 30.285156 51.347656 30.390625 C 51.566406 30.5 51.894531 30.390625 52.003906 30.066406 C 52.113281 29.738281 52.003906 29.410156 51.675781 29.410156 C 51.457031 29.304688 51.238281 29.519531 51.128906 29.738281 Z M 51.128906 29.738281 "/>
<path style=" stroke:none;fill-rule:nonzero;fill:rgb(0%,0%,0%);fill-opacity:1;" d="M 51.457031 28.539062 C 51.457031 28.757812 51.566406 29.085938 51.894531 29.085938 C 52.222656 29.195312 52.441406 28.976562 52.441406 28.648438 C 52.441406 28.324219 52.222656 28.105469 52.003906 28.105469 C 51.675781 27.996094 51.457031 28.214844 51.457031 28.539062 Z M 51.457031 28.539062 "/>
<path style=" stroke:none;fill-rule:nonzero;fill:rgb(0%,0%,0%);fill-opacity:1;" d="M 51.894531 26.578125 C 51.566406 26.6875 51.457031 26.90625 51.457031 27.125 C 51.457031 27.34375 51.675781 27.558594 52.003906 27.558594 C 52.332031 27.558594 52.550781 27.34375 52.441406 27.015625 C 52.441406 26.796875 52.113281 26.578125 51.894531 26.578125 Z M 51.894531 26.578125 "/>
<path style=" stroke:none;fill-rule:nonzero;fill:rgb(0%,0%,0%);fill-opacity:1;" d="M 82.835938 9.367188 L 65.339844 5.445312 C 64.90625 3.050781 63.15625 2.832031 63.15625 2.832031 C 60.859375 2.398438 60.3125 3.269531 60.53125 4.464844 L 40.851562 0.109375 C 40.195312 0 39.539062 0.109375 39.210938 0.328125 C 38.882812 0.652344 39.210938 0.980469 39.867188 1.089844 L 60.96875 5.773438 C 61.625 7.296875 62.828125 8.824219 62.9375 8.933594 C 65.230469 11.65625 64.796875 18.84375 64.578125 21.023438 C 64.578125 21.351562 64.25 21.675781 63.921875 21.785156 C 59.328125 23.09375 57.03125 24.402344 54.738281 25.816406 C 54.628906 25.925781 54.519531 25.925781 54.300781 25.925781 C 54.300781 25.925781 57.25 32.136719 50.800781 34.53125 C 42.601562 37.691406 39.539062 29.738281 39.539062 29.738281 C 37.355469 30.9375 34.292969 33.007812 31.011719 35.511719 C 31.011719 35.511719 28.171875 36.492188 19.640625 29.304688 C 19.53125 29.195312 19.421875 29.085938 19.3125 28.976562 C 19.09375 28.648438 18.550781 27.777344 17.675781 27.125 L 31.230469 12.855469 C 31.558594 12.417969 31.667969 11.984375 31.449219 11.765625 C 31.230469 11.546875 30.683594 11.765625 30.355469 12.089844 L 16.800781 26.46875 C 16.363281 26.253906 15.816406 26.035156 15.269531 26.144531 C 13.300781 26.144531 11.222656 27.449219 14.175781 29.304688 L 0.835938 43.246094 C 0.402344 43.683594 0.0742188 44.335938 0.183594 44.769531 C 0.292969 45.097656 0.726562 45.097656 1.164062 44.554688 L 15.269531 29.738281 C 15.925781 30.066406 16.691406 30.390625 17.675781 30.71875 C 17.894531 30.828125 18.113281 30.9375 18.332031 31.15625 C 19.75 32.898438 27.40625 41.503906 30.246094 41.175781 C 32.214844 40.957031 37.027344 37.910156 40.523438 35.621094 C 40.851562 35.839844 41.070312 36.058594 41.507812 36.382812 C 46.210938 39.542969 48.175781 45.425781 48.722656 47.820312 L 60.75 44.007812 C 59.765625 37.910156 58.5625 33.878906 57.03125 31.15625 C 62.5 28.976562 68.621094 23.855469 69.277344 22.113281 C 69.933594 20.371094 66.433594 11.003906 65.558594 8.933594 C 65.449219 8.605469 65.449219 8.386719 65.449219 8.0625 C 65.449219 7.625 65.558594 7.191406 65.449219 6.753906 L 82.726562 10.566406 C 83.273438 10.675781 83.707031 10.566406 83.707031 10.238281 C 83.816406 9.914062 83.382812 9.585938 82.835938 9.367188 Z M 82.835938 9.367188 "/>
</g>
</svg>
