<?xml version="1.0" encoding="UTF-8"?>
<svg xmlns="http://www.w3.org/2000/svg" xmlns:xlink="http://www.w3.org/1999/xlink" width="85px" height="100px" viewBox="0 0 85 100" version="1.1">
<g id="surface1">
<path style=" stroke:none;fill-rule:nonzero;fill:rgb(0%,0%,0%);fill-opacity:1;" d="M 42.4375 6.179688 C 55.707031 6.179688 67.714844 10.84375 75.675781 22.574219 C 76.308594 23.457031 76.8125 24.339844 77.320312 25.21875 C 75.800781 20.933594 73.78125 16.898438 71.125 13.367188 C 64.300781 3.78125 54.0625 0 42.4375 0 C 30.9375 0 20.570312 3.78125 13.621094 13.367188 C 11.09375 16.898438 8.945312 20.933594 7.429688 25.21875 C 7.933594 24.339844 8.566406 23.457031 9.070312 22.574219 C 17.285156 10.84375 29.167969 6.304688 42.4375 6.179688 Z M 42.4375 6.179688 "/>
<path style=" stroke:none;fill-rule:nonzero;fill:rgb(0%,0%,0%);fill-opacity:1;" d="M 84.398438 45.648438 C 82.878906 39.09375 80.480469 33.164062 77.320312 27.867188 C 76.8125 26.984375 76.183594 26.101562 75.675781 25.21875 C 67.714844 13.367188 55.832031 8.828125 42.4375 8.699219 C 29.167969 8.699219 17.160156 13.367188 9.199219 25.09375 C 8.566406 25.976562 8.058594 26.859375 7.554688 27.742188 C 4.394531 33.039062 1.992188 39.09375 0.476562 45.523438 C -1.039062 52.460938 3.761719 58.890625 10.460938 60.152344 C 10.335938 59.269531 10.207031 58.511719 10.207031 57.753906 C 10.207031 48.421875 13.117188 39.847656 17.917969 33.164062 C 23.859375 24.96875 32.707031 21.816406 42.5625 21.691406 C 52.421875 21.691406 61.269531 24.96875 67.207031 33.164062 C 72.011719 39.847656 74.917969 48.421875 74.917969 57.753906 C 74.917969 58.511719 74.792969 59.269531 74.664062 60.152344 C 81.238281 58.890625 86.039062 52.460938 84.398438 45.648438 Z M 5.910156 51.449219 C 4.140625 51.449219 2.75 50.0625 2.75 48.550781 C 2.75 46.910156 4.140625 45.648438 5.910156 45.648438 C 7.679688 45.648438 9.070312 46.785156 9.070312 48.421875 C 9.070312 50.0625 7.679688 51.449219 5.910156 51.449219 Z M 9.070312 39.722656 C 7.679688 39.722656 6.542969 38.714844 6.542969 37.328125 C 6.542969 36.066406 7.679688 34.929688 9.070312 34.929688 C 10.460938 34.929688 11.597656 35.941406 11.597656 37.328125 C 11.597656 38.714844 10.460938 39.722656 9.070312 39.722656 Z M 36.371094 18.789062 C 36.371094 19.167969 35.738281 19.546875 34.980469 19.546875 C 34.222656 19.546875 33.589844 19.167969 33.589844 18.789062 L 33.589844 12.359375 C 33.589844 11.980469 34.222656 11.601562 34.980469 11.601562 C 35.738281 11.601562 36.371094 11.980469 36.371094 12.359375 Z M 43.953125 18.03125 C 43.953125 18.410156 43.320312 18.789062 42.5625 18.789062 C 41.804688 18.789062 41.171875 18.410156 41.171875 18.03125 L 41.171875 11.601562 C 41.171875 11.222656 41.804688 10.84375 42.5625 10.84375 C 43.320312 10.84375 43.953125 11.222656 43.953125 11.601562 Z M 51.410156 18.789062 C 51.410156 19.167969 50.777344 19.546875 50.019531 19.546875 C 49.261719 19.546875 48.628906 19.167969 48.628906 18.789062 L 48.628906 12.359375 C 48.628906 11.980469 49.261719 11.601562 50.019531 11.601562 C 50.777344 11.601562 51.410156 11.980469 51.410156 12.359375 Z M 73.402344 37.453125 C 73.402344 36.191406 74.539062 35.058594 75.929688 35.058594 C 77.320312 35.058594 78.457031 36.066406 78.457031 37.453125 C 78.457031 38.714844 77.320312 39.847656 75.929688 39.847656 C 74.539062 39.722656 73.402344 38.714844 73.402344 37.453125 Z M 79.089844 51.449219 C 77.320312 51.449219 75.929688 50.0625 75.929688 48.550781 C 75.929688 46.910156 77.320312 45.648438 79.089844 45.648438 C 80.859375 45.648438 82.25 47.035156 82.25 48.550781 C 82.25 50.0625 80.859375 51.449219 79.089844 51.449219 Z M 79.089844 51.449219 "/>
<path style=" stroke:none;fill-rule:nonzero;fill:rgb(0%,0%,0%);fill-opacity:1;" d="M 42.4375 24.210938 C 33.210938 24.210938 25.121094 27.492188 19.5625 35.6875 C 15.136719 42.371094 12.484375 50.945312 12.484375 60.277344 C 12.484375 61.035156 12.609375 61.789062 12.734375 62.671875 C 14.632812 73.390625 28.28125 90.542969 33.085938 95.585938 C 35.992188 98.613281 39.277344 100.125 42.5625 100.125 C 45.847656 100.125 49.136719 98.613281 52.042969 95.585938 C 56.84375 90.542969 70.367188 73.390625 72.390625 62.671875 C 72.515625 61.789062 72.644531 61.035156 72.644531 60.277344 C 72.644531 50.945312 69.988281 42.371094 65.566406 35.6875 C 59.878906 27.492188 51.664062 24.210938 42.4375 24.210938 Z M 42.4375 37.328125 C 42.4375 37.328125 51.03125 30.644531 59.121094 36.820312 C 59.121094 36.820312 42.4375 36.820312 42.4375 43 C 42.4375 36.820312 25.753906 36.820312 25.753906 36.820312 C 33.84375 30.769531 42.4375 37.328125 42.4375 37.328125 Z M 27.144531 79.445312 C 26.132812 79.570312 25.25 79.191406 25.121094 78.5625 L 23.101562 68.726562 C 22.972656 68.097656 23.605469 67.464844 24.617188 67.339844 C 25.5 67.214844 26.386719 67.589844 26.511719 68.222656 L 28.535156 78.058594 C 28.789062 78.5625 28.027344 79.191406 27.144531 79.445312 Z M 30.554688 78.308594 L 30.554688 68.222656 C 30.554688 67.589844 31.316406 67.085938 32.324219 67.085938 C 33.335938 67.085938 34.09375 67.589844 34.09375 68.222656 L 34.09375 78.308594 C 34.09375 78.941406 33.335938 79.445312 32.324219 79.445312 C 31.316406 79.445312 30.554688 78.941406 30.554688 78.308594 Z M 53.054688 87.011719 C 53.054688 87.011719 52.042969 93.0625 42.5625 93.0625 C 32.957031 93.0625 32.074219 87.011719 32.074219 87.011719 C 32.074219 87.011719 35.234375 77.933594 42.5625 84.363281 C 49.894531 78.058594 53.054688 87.011719 53.054688 87.011719 Z M 54.445312 78.308594 C 54.445312 78.941406 53.683594 79.445312 52.675781 79.445312 C 51.664062 79.445312 50.90625 78.941406 50.90625 78.308594 L 50.90625 68.222656 C 50.90625 67.589844 51.664062 67.085938 52.675781 67.085938 C 53.683594 67.085938 54.445312 67.589844 54.445312 68.222656 Z M 61.773438 68.601562 L 59.75 78.4375 C 59.625 79.066406 58.742188 79.445312 57.855469 79.320312 C 56.972656 79.191406 56.210938 78.5625 56.339844 77.933594 L 58.363281 68.097656 C 58.488281 67.464844 59.371094 67.085938 60.257812 67.214844 C 61.269531 67.339844 61.898438 67.96875 61.773438 68.601562 Z M 54.445312 64.4375 C 50.273438 64.4375 46.734375 62.167969 44.839844 58.890625 C 45.46875 62.421875 45.847656 67.464844 45.597656 74.273438 C 45.597656 74.273438 51.914062 79.191406 44.710938 78.941406 C 44.710938 78.941406 44.207031 81.589844 42.4375 81.589844 C 40.667969 81.589844 40.160156 78.941406 40.160156 78.941406 C 33.085938 79.066406 39.402344 74.148438 39.402344 74.148438 C 39.152344 67.214844 39.65625 62.167969 40.289062 58.636719 C 40.160156 58.511719 36.242188 64.4375 30.304688 64.4375 C 24.109375 64.4375 19.183594 59.519531 19.183594 53.339844 C 19.183594 47.164062 24.109375 42.246094 30.304688 42.246094 C 36.117188 42.246094 40.921875 46.660156 41.300781 52.332031 C 41.679688 52.207031 42.058594 52.082031 42.4375 52.082031 C 42.816406 52.082031 43.195312 52.207031 43.449219 52.207031 C 43.953125 46.53125 48.628906 42.117188 54.445312 42.117188 C 60.636719 42.117188 65.566406 47.035156 65.566406 53.214844 C 65.566406 59.394531 60.636719 64.4375 54.445312 64.4375 Z M 54.445312 64.4375 "/>
<path style=" stroke:none;fill-rule:nonzero;fill:rgb(0%,0%,0%);fill-opacity:1;" d="M 37.632812 54.222656 C 36.875 48.800781 33.589844 45.269531 30.175781 45.269531 C 26.765625 45.269531 23.480469 48.800781 22.71875 54.222656 C 22.71875 54.222656 22.71875 54.222656 22.71875 54.351562 C 22.214844 57.628906 24.996094 60.53125 28.28125 60.53125 L 32.074219 60.53125 C 35.359375 60.53125 38.140625 57.628906 37.632812 54.222656 C 37.632812 54.351562 37.632812 54.351562 37.632812 54.222656 Z M 24.617188 53.847656 C 24.617188 53.847656 29.417969 47.414062 35.613281 53.847656 C 35.613281 53.847656 30.429688 59.773438 24.617188 53.847656 Z M 24.617188 53.847656 "/>
<path style=" stroke:none;fill-rule:nonzero;fill:rgb(0%,0%,0%);fill-opacity:1;" d="M 61.898438 54.222656 C 61.140625 48.800781 57.855469 45.269531 54.445312 45.269531 C 51.03125 45.269531 47.746094 48.800781 46.988281 54.222656 C 46.988281 54.222656 46.988281 54.222656 46.988281 54.351562 C 46.480469 57.628906 49.261719 60.53125 52.546875 60.53125 L 56.339844 60.53125 C 59.75 60.53125 62.40625 57.628906 61.898438 54.222656 C 61.898438 54.351562 61.898438 54.351562 61.898438 54.222656 Z M 49.007812 53.847656 C 55.203125 47.414062 60.003906 53.847656 60.003906 53.847656 C 54.191406 59.773438 49.007812 53.847656 49.007812 53.847656 Z M 49.007812 53.847656 "/>
</g>
</svg>
