<?xml version="1.0" encoding="UTF-8"?>
<svg xmlns="http://www.w3.org/2000/svg" xmlns:xlink="http://www.w3.org/1999/xlink" width="64px" height="100px" viewBox="0 0 64 100" version="1.1">
<g id="surface1">
<path style="fill-rule:evenodd;fill:rgb(8.235294%,9.019608%,9.411765%);fill-opacity:1;stroke-width:1;stroke-linecap:butt;stroke-linejoin:miter;stroke:rgb(100%,100%,100%);stroke-opacity:1;stroke-miterlimit:10;" d="M 28.80118 29.200206 C 29.800363 29.100061 30.799546 28.999917 31.69881 28.799628 C 32.801135 28.499194 32.901053 28.098616 32.901053 27.000257 C 33.000972 24.800308 32.901053 22.700503 32.901053 20.500554 C 34.100073 20.901132 35.199174 21.29848 36.301498 21.899347 C 36.80109 22.19978 37.300681 22.400069 37.800273 22.800648 C 38.499701 23.30137 38.00011 23.498429 37.900191 24.299585 C 37.700355 25.501319 38.799456 26.199101 39.798639 26.599679 C 40.301454 26.799968 41.000882 26.900112 41.500473 27.000257 C 42.29982 27.100401 42.499656 27.601124 42.899329 28.198761 C 45.700265 32.498514 47.199039 38.000003 47.598712 43.100912 C 46.699448 40.800819 44.401327 39.198506 42.000065 40.500385 C 40.098394 41.4986 38.799456 44.099127 38.999293 46.198932 C 39.199129 48.699315 39.498884 52.000854 42.099983 53.099213 C 44.601164 54.100658 47.398876 52.100998 48.101527 49.800904 C 47.798549 56.701185 45.40051 63.401177 41.70031 69.199869 C 39.898557 72.000685 38.00011 74.801501 35.598847 77.198509 C 33.400645 79.398458 30.499791 81.998985 27.199264 82.299419 C 20.298455 82.800141 14.899644 75.89986 11.99879 70.498517 C 8.801405 64.599681 7.09957 57.999834 6.100387 51.299842 C 5.301041 45.801584 6.899734 39.699229 9.101159 34.60155 C 9.700669 33.199526 10.400097 31.700589 11.099525 30.39871 C 11.499199 29.700929 11.798953 29.100061 12.198627 28.39905 C 12.701441 27.500979 13.001196 27.400835 13.800543 26.900112 C 14.300134 26.599679 14.799726 26.199101 14.999562 25.701608 C 15.299317 25.200886 14.899644 24.499874 15.299317 24.099296 C 16.2985 23.000937 17.300906 22.099636 18.499926 21.201566 C 18.799681 22.800648 18.999517 24.499874 19.199354 26.098956 C 19.299272 26.900112 19.299272 27.801413 19.698945 28.499194 C 20.098618 29.30035 20.701351 29.200206 21.500698 29.30035 C 21.900371 29.30035 23.399145 29.200206 23.598982 29.400495 C 23.898737 29.700929 23.598982 31.5003 23.499064 32.001022 C 23.499064 33.900538 23.499064 35.800053 23.399145 37.799713 C 23.199309 44.399561 23.598982 51.199697 24.29841 57.799545 C 24.50147 59.498771 24.701306 61.201228 25.001061 63.000599 C 25.10098 63.601466 25.400735 64.499537 25.001061 64.900115 C 24.50147 65.400837 23.998655 65.90156 23.598982 66.499197 C 22.100208 68.999579 23.399145 72.698466 26.000244 74.000345 C 29.001016 75.499282 32.198402 72.9989 32.50138 69.90088 C 32.601298 68.498857 32.198402 67.100064 31.399056 65.90156 C 30.899464 65.200548 30.399873 64.699826 29.800363 64.199103 C 29.40069 63.798525 29.40069 64.098959 29.40069 63.401177 C 29.40069 62.900455 29.40069 62.399732 29.40069 61.899009 C 29.40069 56.400752 29.600526 50.999408 29.600526 45.501151 C 29.600526 42.700334 29.600526 39.999663 29.500608 37.198846 C 29.40069 35.800053 29.300771 34.40126 29.100935 33.099382 C 29.200853 31.900878 28.701262 30.298565 28.80118 29.200206 M 20.198537 28.499194 C 19.9987 27.000257 19.698945 25.601464 19.499109 24.099296 C 21.300861 24.800308 23.798819 24.39973 25.700489 24.39973 C 27.99861 24.39973 30.399873 24.39973 32.701217 23.999151 C 32.701217 25.200886 33.200808 27.601124 32.198402 28.298905 C 31.598892 28.699483 30.699627 28.699483 30.000199 28.799628 C 29.600526 28.899772 29.100935 28.899772 28.701262 28.899772 C 28.501425 28.899772 27.99861 28.39905 27.798774 28.298905 C 26.299999 27.400835 25.400735 28.39905 23.998655 28.799628 C 23.099391 29.100061 20.901188 29.200206 20.198537 28.499194 M 48.101527 15.299499 C 48.101527 15.199355 48.101527 15.199355 48.101527 15.299499 M 19.39919 23.698718 C 19.099435 21.999491 18.799681 20.500554 18.899599 18.801327 C 18.999517 17.199015 18.799681 15.700078 18.400007 14.100996 C 17.700579 10.799457 15.998745 7.99864 13.201033 6.199269 C 10.599934 4.500043 6.699897 5.10091 4.701531 7.401004 C 2.600024 9.901386 2.000514 13.199695 2.400187 16.300945 C 2.79986 19.198675 4.398553 22.400069 7.199489 23.598573 C 8.601568 24.199441 10.200261 24.499874 11.699035 24.600019 C 12.198627 24.600019 13.700624 25.000597 14.100297 24.700163 C 14.899644 24.199441 13.201033 24.199441 13.001196 24.199441 C 10.100342 24.099296 6.899734 23.798862 5.001286 21.29848 C 3.199534 18.901472 2.500105 15.700078 2.899779 12.799117 C 3.499288 8.499363 7.199489 4.399898 11.898872 6.299414 C 16.801315 8.299074 18.200171 13.600273 18.400007 18.400749 C 18.100253 16.998726 17.700579 15.299499 16.398418 14.598488 C 15.09948 13.800562 13.201033 13.700417 11.798953 14.301285 C 9.201078 15.399644 7.998835 18.500894 9.700669 21.001277 C 10.599934 22.299925 11.99879 23.201226 13.500788 23.698718 C 14.200216 23.899007 15.199399 23.798862 14.899644 24.700163 C 14.699807 25.401175 14.100297 25.998812 13.500788 26.39939 C 11.099525 28.198761 6.999652 27.998472 4.701531 26.199101 C -0.600585 22.19978 -0.500667 13.09955 2.699942 7.801582 C 6.300224 1.899516 13.400869 -1.599082 19.9987 1.799371 C 22.399962 3.10125 24.401552 5.000765 26.000244 7.10057 C 30.399873 2.700672 36.20158 -0.600867 42.499656 1.799371 C 45.500428 2.900961 48.201445 5.000765 49.999975 7.701437 C 51.898422 10.499023 52.2014 13.700417 51.898422 16.998726 C 51.598668 20.300265 49.70022 23.30137 46.899284 24.900452 C 45.000837 25.998812 39.898557 27.400835 38.299864 25.000597 C 37.4006 23.598573 39.998475 22.600359 40.701127 21.799202 C 41.70031 20.600698 42.199901 18.998386 42.000065 17.499449 C 41.70031 14.501574 39.199129 12.101335 36.098439 13.500128 C 34.899419 14.100996 32.701217 15.09921 32.50138 16.701523 C 32.701217 13.600273 33.500563 10.398879 35.598847 8.098785 C 37.700355 5.698547 41.300637 4.199609 44.20149 6.299414 C 46.399693 7.898496 48.201445 12.001191 48.001609 14.698632 C 47.898467 17.399304 45.800183 20.600698 43.598757 21.999491 C 42.799411 22.500214 41.900146 22.900792 41.000882 23.201226 C 40.401372 23.30137 38.599619 23.201226 38.799456 23.999151 C 42.099983 23.798862 44.701082 22.400069 46.499611 19.699398 C 48.301364 17.199015 48.800955 14.501574 47.898467 11.500468 C 46.999203 8.599507 45.500428 5.598402 42.29982 4.900621 C 39.199129 4.199609 36.098439 6.399558 34.399828 8.899941 C 33.000972 10.999746 32.301543 13.500128 32.098484 15.900367 C 31.898647 18.500894 32.50138 21.001277 32.50138 23.598573 C 30.200036 23.698718 27.898692 23.899007 25.500653 23.899007 C 23.6989 23.999151 21.300861 24.39973 19.39919 23.698718 M 43.998431 43.898838 C 47.298958 44.499705 44.601164 50.398541 43.398921 49.600615 C 41.800228 48.499026 41.000882 43.798694 43.998431 43.898838 M 44.900918 44.699994 C 44.101572 43.698549 42.999248 44.299416 42.499656 45.200717 C 41.900146 46.299076 42.199901 47.600955 42.799411 48.59917 C 44.401327 51.099553 45.800183 46.198932 44.900918 44.699994 M 44.301409 42.399901 C 47.798549 43.000768 46.799366 51.70042 43.299002 50.999408 C 39.698721 50.298397 40.401372 41.398456 44.301409 42.399901 M 44.20149 42.60019 C 42.399738 42.500045 41.400555 44.299416 41.200718 45.898498 C 41.1008 47.300522 41.400555 50.398541 43.099166 50.698975 C 46.599529 51.399986 47.298958 43.598405 44.20149 42.60019 M 47.798549 44.299416 C 48.001609 47.000088 48.701037 50.899264 45.700265 52.401432 C 42.399738 54.100658 40.098394 51.900709 39.498884 48.59917 C 38.999293 45.998643 39.099211 42.800479 41.500473 41.101252 C 44.401327 39.101592 47.199039 41.201397 47.798549 44.299416 M 44.101572 41.201397 C 46.999203 41.799034 47.498794 44.699994 47.199039 47.200377 C 46.999203 49.200037 45.900101 52.698635 43.199084 52.100998 C 38.799456 50.999408 38.899374 41.001108 44.101572 41.201397 M 44.101572 41.398456 C 41.800228 41.301541 40.301454 43.501491 40.301454 45.601295 C 40.301454 47.300522 40.701127 51.70042 43.099166 51.70042 C 47.798549 51.800564 48.701037 42.399901 44.101572 41.398456 M 11.099525 41.301541 C 14.599889 41.899178 15.299317 45.501151 14.799726 48.499026 C 14.499971 50.59883 12.601523 54.798439 9.700669 53.800225 C 6.999652 52.898924 5.301041 49.70076 6.000469 46.799799 C 6.699897 44.59985 8.098753 40.800819 11.099525 41.301541 M 11.099525 41.598745 C 8.498426 40.800819 6.899734 44.699994 6.50006 46.499365 C 6.000469 48.799459 6.699897 52.698635 9.400914 53.499791 C 15.199399 55.098873 17.200988 42.700334 11.099525 41.598745 M 11.299362 43.000768 C 16.098663 44.099127 14.899644 52.898924 9.900506 52.59849 C 5.700714 52.301287 6.699897 41.999323 11.299362 43.000768 M 13.500788 44.699994 C 12.501605 43.000768 10.100342 42.700334 8.901323 44.199272 C 7.399325 46.098787 7.199489 48.499026 8.098753 50.698975 C 9.101159 52.999068 11.599117 52.59849 13.001196 50.899264 C 14.200216 49.400326 14.699807 46.299076 13.500788 44.699994 M 11.798953 44.199272 C 15.299317 44.900283 13.300951 51.70042 10.000424 50.999408 C 7.199489 50.498686 8.498426 43.598405 11.798953 44.199272 M 13.101114 45.501151 C 12.501605 44.099127 10.500016 44.299416 9.700669 45.300862 C 8.801405 46.399221 8.601568 48.499026 9.101159 49.800904 C 9.600751 51.399986 11.299362 50.999408 12.298545 50.001193 C 13.201033 48.999748 13.900461 46.699655 13.101114 45.501151 M 11.299362 44.900283 C 13.500788 45.000428 12.701441 50.101338 10.599934 49.70076 C 8.601568 49.300182 9.300996 44.900283 11.299362 44.900283 M 11.199444 45.100573 C 9.500833 44.800139 9.001241 48.899604 10.699852 49.400326 C 12.198627 50.001193 13.201033 45.200717 11.199444 45.100573 M 17.10107 43.501491 C 19.099435 43.598405 21.101025 43.401346 23.099391 43.201057 C 22.999472 45.100573 22.699717 47.400666 23.299227 49.200037 C 21.400779 49.200037 19.698945 49.400326 17.900416 49.901049 C 17.900416 47.801244 17.700579 45.601295 17.10107 43.501491 M 29.200853 63.798525 C 29.500608 56.901474 29.600526 49.901049 29.500608 43.000768 C 29.40069 39.398795 29.300771 35.900198 28.901098 32.4016 C 28.701262 30.899432 28.80118 29.100061 27.099346 28.599339 C 26.499836 28.39905 25.900326 28.499194 25.300816 28.599339 C 23.998655 28.999917 24.198492 29.50064 24.198492 30.699143 C 23.998655 41.999323 24.401552 53.199357 25.900326 64.399392 C 26.999427 63.89867 27.898692 63.401177 29.200853 63.798525 M 28.301588 63.998814 C 26.000244 63.998814 23.898737 66.399052 23.598982 68.498857 C 23.299227 70.899095 25.300816 73.699911 27.698855 74.100489 C 30.299954 74.501068 32.50138 71.800396 32.50138 69.300013 C 32.50138 67.400498 30.499791 63.701611 28.301588 63.998814 M 31.199219 43.798694 C 33.200808 43.998983 35.099256 44.099127 37.100845 43.698549 C 37.000927 45.70144 37.000927 47.7011 37.700355 49.600615 C 35.498929 49.400326 33.400645 49.600615 31.199219 50.001193 C 31.399056 47.901389 31.299137 45.898498 31.199219 43.798694 " transform="matrix(1.211928,0,0,1.20919,0.126303,0.000000000000008561)"/>
</g>
</svg>
