<?xml version="1.0" encoding="UTF-8"?>
<svg xmlns="http://www.w3.org/2000/svg" xmlns:xlink="http://www.w3.org/1999/xlink" width="56px" height="99px" viewBox="0 0 56 99" version="1.1">
<g id="surface1">
<path style=" stroke:none;fill-rule:nonzero;fill:rgb(72.549021%,39.215687%,25.882354%);fill-opacity:1;" d="M 47.109375 47.347656 C 47.109375 65.003906 38.554688 91.046875 28.109375 91.046875 C 17.667969 91.046875 9.109375 65.003906 9.109375 47.347656 C 9.109375 29.691406 17.667969 15.457031 28.109375 15.457031 C 38.554688 15.457031 47.109375 29.800781 47.109375 47.347656 Z M 47.109375 47.347656 "/>
<path style=" stroke:none;fill-rule:nonzero;fill:rgb(95.294118%,70.588237%,10.588235%);fill-opacity:1;" d="M 5.332031 38.078125 C 5.332031 15.566406 14.667969 1.21875 28 1.21875 C 41.332031 1.21875 50.667969 15.566406 50.667969 38.078125 C 50.667969 38.078125 47.667969 6.074219 27.777344 6.074219 C 9 6.074219 5.332031 38.078125 5.332031 38.078125 Z M 5.332031 38.078125 "/>
<path style=" stroke:none;fill-rule:nonzero;fill:rgb(95.294118%,45.09804%,17.254902%);fill-opacity:1;" d="M 18.777344 79.351562 C 18.777344 79.351562 20.554688 72.507812 28 72.507812 C 35.445312 72.507812 36.777344 79.351562 36.777344 79.351562 C 36.777344 79.351562 35.332031 86.746094 28 86.746094 C 20.667969 86.746094 18.777344 79.351562 18.777344 79.351562 Z M 18.777344 79.351562 "/>
<path style=" stroke:none;fill-rule:nonzero;fill:rgb(95.294118%,45.09804%,17.254902%);fill-opacity:1;" d="M 41.222656 32.78125 C 33.890625 32.78125 28.109375 43.484375 28.109375 43.484375 C 28.109375 43.484375 33.890625 54.191406 41.222656 54.191406 C 48.554688 54.191406 48.777344 43.484375 48.777344 43.484375 C 48.777344 43.484375 48.445312 32.78125 41.222656 32.78125 Z M 41.222656 32.78125 "/>
<path style=" stroke:none;fill-rule:nonzero;fill:rgb(95.294118%,45.09804%,17.254902%);fill-opacity:1;" d="M 15.109375 32.78125 C 7.777344 32.78125 7.554688 43.484375 7.554688 43.484375 C 7.554688 43.484375 7.777344 54.191406 15.109375 54.191406 C 22.445312 54.191406 27.777344 43.484375 27.777344 43.484375 C 27.777344 43.484375 22.332031 32.78125 15.109375 32.78125 Z M 15.109375 32.78125 "/>
<path style=" stroke:none;fill-rule:nonzero;fill:rgb(30.588236%,30.588236%,30.588236%);fill-opacity:1;" d="M 51.332031 38.078125 L 50.222656 38.078125 C 50.222656 16.339844 41.332031 1.773438 28.109375 1.773438 C 14.890625 1.773438 5.890625 16.339844 5.890625 38.078125 L 4.777344 38.078125 C 4.777344 15.675781 14.222656 0.667969 28.109375 0.667969 C 42 0.667969 51.332031 15.675781 51.332031 38.078125 Z M 51.332031 38.078125 "/>
<path style=" stroke:none;fill-rule:nonzero;fill:rgb(30.588236%,30.588236%,30.588236%);fill-opacity:1;" d="M 52.667969 53.859375 L 52.667969 53.308594 L 52.667969 53.859375 L 50.667969 53.859375 L 50.667969 52.753906 L 52.667969 52.753906 C 54.332031 52.753906 54.890625 51.210938 54.890625 50.328125 L 54.890625 41.167969 C 54.890625 39.84375 53.777344 38.742188 52.445312 38.742188 L 50.777344 38.742188 L 50.777344 37.636719 L 52.445312 37.636719 C 54.445312 37.636719 56 39.183594 56 41.167969 L 56 50.328125 C 56 51.984375 54.890625 53.859375 52.667969 53.859375 Z M 52.667969 53.859375 "/>
<path style=" stroke:none;fill-rule:nonzero;fill:rgb(30.588236%,30.588236%,30.588236%);fill-opacity:1;" d="M 28.109375 98.332031 C 14.667969 98.332031 4.445312 65.777344 4.445312 44.699219 C 4.445312 23.179688 15.109375 5.523438 28.109375 5.523438 C 41.109375 5.523438 51.667969 23.070312 51.667969 44.699219 C 51.667969 65.777344 41.554688 98.332031 28.109375 98.332031 Z M 28.109375 6.628906 C 15.667969 6.628906 5.554688 23.734375 5.554688 44.699219 C 5.554688 65.445312 15.667969 97.117188 28.109375 97.117188 C 40.554688 97.117188 50.554688 65.335938 50.554688 44.699219 C 50.554688 23.734375 40.554688 6.628906 28.109375 6.628906 Z M 28.109375 6.628906 "/>
<path style=" stroke:none;fill-rule:nonzero;fill:rgb(30.588236%,30.588236%,30.588236%);fill-opacity:1;" d="M 28 87.1875 C 20.222656 87.1875 18.332031 79.460938 18.332031 79.351562 L 18.332031 79.128906 C 18.332031 79.019531 20.222656 71.847656 28 71.847656 C 35.777344 71.847656 37.332031 79.019531 37.332031 79.128906 L 37.332031 79.351562 C 37.332031 79.460938 35.777344 87.1875 28 87.1875 Z M 19.332031 79.351562 C 19.554688 80.34375 21.445312 86.191406 27.890625 86.191406 C 34.332031 86.191406 35.890625 80.234375 36.109375 79.351562 C 35.890625 78.46875 34.332031 73.058594 27.890625 73.058594 C 21.554688 73.058594 19.667969 78.355469 19.332031 79.351562 Z M 19.332031 79.351562 "/>
<path style=" stroke:none;fill-rule:nonzero;fill:rgb(30.588236%,30.588236%,30.588236%);fill-opacity:1;" d="M 41.222656 54.742188 C 33.667969 54.742188 27.890625 44.148438 27.667969 43.707031 L 27.554688 43.484375 L 27.667969 43.265625 C 27.890625 42.824219 33.667969 32.230469 41.222656 32.230469 C 49 32.230469 49.222656 43.375 49.332031 43.484375 C 49.222656 43.597656 48.890625 54.742188 41.222656 54.742188 Z M 28.777344 43.484375 C 29.667969 45.140625 35 53.636719 41.222656 53.636719 C 47.890625 53.636719 48.109375 43.597656 48.222656 43.484375 C 48.222656 43.375 47.890625 33.332031 41.222656 33.332031 C 34.890625 33.332031 29.667969 41.832031 28.777344 43.484375 Z M 28.777344 43.484375 "/>
<path style=" stroke:none;fill-rule:nonzero;fill:rgb(30.588236%,30.588236%,30.588236%);fill-opacity:1;" d="M 15.109375 54.742188 C 7.332031 54.742188 7.109375 43.597656 7 43.484375 C 7 43.375 7.332031 32.230469 15.109375 32.230469 C 22.667969 32.230469 28.109375 42.824219 28.332031 43.265625 L 28.445312 43.484375 L 28.222656 43.707031 C 28 44.148438 22.554688 54.742188 15.109375 54.742188 Z M 15.109375 33.332031 C 8.445312 33.332031 8.222656 43.375 8.109375 43.484375 C 8.109375 43.597656 8.445312 53.636719 15.109375 53.636719 C 21.332031 53.636719 26.332031 45.03125 27.222656 43.484375 C 26.332031 41.832031 21.332031 33.332031 15.109375 33.332031 Z M 15.109375 33.332031 "/>
<path style=" stroke:none;fill-rule:nonzero;fill:rgb(30.588236%,30.588236%,30.588236%);fill-opacity:1;" d="M 31.445312 43.484375 C 36.332031 40.066406 45.332031 43.484375 45.332031 43.484375 C 45.332031 43.484375 36.109375 46.6875 31.445312 43.484375 Z M 31.445312 43.484375 "/>
<path style=" stroke:none;fill-rule:nonzero;fill:rgb(30.588236%,30.588236%,30.588236%);fill-opacity:1;" d="M 24.554688 43.484375 C 19.667969 40.066406 10.667969 43.484375 10.667969 43.484375 C 10.667969 43.484375 19.890625 46.6875 24.554688 43.484375 Z M 24.554688 43.484375 "/>
<path style=" stroke:none;fill-rule:nonzero;fill:rgb(30.588236%,30.588236%,30.588236%);fill-opacity:1;" d="M 28 66.21875 C 27.890625 66.21875 27.890625 66.21875 28 66.21875 C 26 65.886719 21.445312 64.894531 21.332031 63.128906 C 21.222656 61.253906 22.445312 60.039062 23.667969 59.707031 C 24.222656 59.597656 25 59.707031 25.445312 59.816406 L 26.890625 44.480469 C 26.890625 44.148438 27.109375 43.925781 27.445312 43.925781 L 28 43.925781 C 28.332031 43.925781 28.554688 44.148438 28.554688 44.480469 L 28.554688 65.554688 C 28.554688 65.667969 28.445312 65.886719 28.332031 65.996094 C 28.222656 66.21875 28.109375 66.21875 28 66.21875 Z M 24.222656 60.8125 C 24.109375 60.8125 24 60.8125 23.777344 60.8125 C 23 61.03125 22.222656 61.695312 22.222656 63.019531 C 22.222656 63.570312 24.554688 64.453125 27.222656 65.003906 L 27.222656 50.4375 L 26.222656 60.8125 C 26.222656 61.03125 26.109375 61.140625 25.890625 61.253906 C 25.667969 61.363281 25.554688 61.363281 25.332031 61.253906 C 25.554688 61.140625 24.890625 60.8125 24.222656 60.8125 Z M 24.222656 60.8125 "/>
<path style=" stroke:none;fill-rule:nonzero;fill:rgb(30.588236%,30.588236%,30.588236%);fill-opacity:1;" d="M 28 66.21875 C 27.890625 66.21875 27.777344 66.21875 27.667969 66.109375 C 27.554688 65.996094 27.445312 65.886719 27.445312 65.667969 L 27.445312 44.589844 C 27.445312 44.257812 27.667969 44.039062 28 44.039062 L 28.554688 44.039062 C 28.890625 44.039062 29.109375 44.257812 29.109375 44.589844 L 30.554688 59.929688 C 31 59.816406 31.777344 59.707031 32.332031 59.816406 C 33.554688 60.148438 34.777344 61.253906 34.667969 63.238281 C 34.554688 64.894531 30 65.886719 28 66.21875 Z M 28.554688 50.4375 L 28.554688 65.003906 C 31.222656 64.453125 33.554688 63.570312 33.554688 63.019531 C 33.667969 61.695312 32.777344 60.921875 32 60.8125 C 31.222656 60.589844 30.332031 61.140625 30.332031 61.140625 C 30.222656 61.253906 30 61.253906 29.777344 61.140625 C 29.554688 61.03125 29.445312 60.921875 29.445312 60.699219 Z M 28.554688 50.4375 "/>
<path style=" stroke:none;fill-rule:nonzero;fill:rgb(30.588236%,30.588236%,30.588236%);fill-opacity:1;" d="M 18.777344 79.351562 C 28.890625 71.40625 36.777344 79.351562 36.777344 79.351562 C 36.777344 79.351562 29.667969 87.515625 18.777344 79.351562 Z M 18.777344 79.351562 "/>
<path style=" stroke:none;fill-rule:nonzero;fill:rgb(30.588236%,30.588236%,30.588236%);fill-opacity:1;" d="M 52.109375 51.652344 L 53.222656 51.652344 L 53.222656 58.050781 L 52.109375 58.050781 Z M 52.109375 51.652344 "/>
<path style=" stroke:none;fill-rule:nonzero;fill:rgb(30.588236%,30.588236%,30.588236%);fill-opacity:1;" d="M 5.332031 53.859375 L 3.332031 53.859375 L 3.332031 53.308594 L 3.332031 53.859375 C 1.109375 53.859375 0 51.984375 0 50.328125 L 0 41.167969 C 0 39.183594 1.554688 37.636719 3.554688 37.636719 L 5.222656 37.636719 L 5.222656 38.742188 L 3.554688 38.742188 C 2.222656 38.742188 1.109375 39.84375 1.109375 41.167969 L 1.109375 50.328125 C 1.109375 51.320312 1.667969 52.753906 3.332031 52.753906 L 5.332031 52.753906 Z M 5.332031 53.859375 "/>
<path style=" stroke:none;fill-rule:nonzero;fill:rgb(30.588236%,30.588236%,30.588236%);fill-opacity:1;" d="M 2.777344 51.652344 L 3.890625 51.652344 L 3.890625 58.050781 L 2.777344 58.050781 Z M 2.777344 51.652344 "/>
</g>
</svg>
