<?xml version="1.0" encoding="UTF-8"?>
<svg xmlns="http://www.w3.org/2000/svg" xmlns:xlink="http://www.w3.org/1999/xlink" width="37px" height="100px" viewBox="0 0 37 100" version="1.1">
<g id="surface1">
<path style=" stroke:none;fill-rule:nonzero;fill:rgb(30.588236%,30.588236%,30.588236%);fill-opacity:1;" d="M 4.4375 23.214844 L 5.261719 22.863281 L 9.519531 32.789062 L 8.699219 33.140625 Z M 4.4375 23.214844 "/>
<path style=" stroke:none;fill-rule:nonzero;fill:rgb(30.588236%,30.588236%,30.588236%);fill-opacity:1;" d="M 27.828125 77.632812 L 28.652344 77.28125 L 32.945312 87.289062 L 32.125 87.640625 Z M 27.828125 77.632812 "/>
<path style=" stroke:none;fill-rule:nonzero;fill:rgb(30.588236%,30.588236%,30.588236%);fill-opacity:1;" d="M 4.289062 23.324219 L 4.109375 23.054688 C 4.023438 22.964844 1.519531 19.84375 0.804688 18.59375 C 0 17.257812 0 13.242188 0 12.796875 L 0 11.726562 L 0.714844 12.4375 C 1.074219 12.707031 3.84375 15.472656 4.289062 16.898438 C 4.824219 18.417969 5.363281 22.34375 5.363281 22.429688 L 5.363281 22.789062 Z M 0.894531 13.957031 C 0.984375 15.382812 1.160156 17.433594 1.519531 18.148438 C 2.054688 19.039062 3.664062 21.09375 4.378906 22.074219 C 4.199219 20.914062 3.84375 18.328125 3.484375 17.34375 C 3.308594 16.453125 1.875 14.9375 0.894531 13.957031 Z M 0.894531 13.957031 "/>
<path style=" stroke:none;fill-rule:nonzero;fill:rgb(30.588236%,30.588236%,30.588236%);fill-opacity:1;" d="M 27.523438 32.777344 L 31.78125 22.851562 L 32.601562 23.203125 L 28.347656 33.128906 Z M 27.523438 32.777344 "/>
<path style=" stroke:none;fill-rule:nonzero;fill:rgb(30.588236%,30.588236%,30.588236%);fill-opacity:1;" d="M 4.148438 87.304688 L 8.4375 77.296875 L 9.257812 77.648438 L 4.96875 87.65625 Z M 4.148438 87.304688 "/>
<path style=" stroke:none;fill-rule:nonzero;fill:rgb(30.588236%,30.588236%,30.588236%);fill-opacity:1;" d="M 32.710938 23.414062 L 31.636719 22.878906 L 31.726562 22.519531 C 31.726562 22.34375 32.261719 18.503906 32.710938 17.078125 C 33.15625 15.652344 36.015625 12.882812 36.285156 12.617188 L 37 11.902344 L 37 12.972656 C 37 13.421875 37 17.34375 36.195312 18.683594 C 35.480469 19.933594 32.976562 23.054688 32.890625 23.144531 Z M 36.105469 14.042969 C 35.125 15.113281 33.78125 16.632812 33.515625 17.34375 C 33.15625 18.328125 32.800781 20.914062 32.621094 22.074219 C 33.335938 21.183594 34.945312 19.128906 35.480469 18.148438 C 35.839844 17.523438 36.015625 15.472656 36.105469 14.042969 Z M 36.105469 14.042969 "/>
<path style=" stroke:none;fill-rule:nonzero;fill:rgb(30.588236%,30.588236%,30.588236%);fill-opacity:1;" d="M 18.054688 14.9375 L 18.945312 14.9375 L 18.945312 22.074219 L 18.054688 22.074219 Z M 18.054688 14.9375 "/>
<path style=" stroke:none;fill-rule:nonzero;fill:rgb(30.588236%,30.588236%,30.588236%);fill-opacity:1;" d="M 18.054688 88.453125 L 18.945312 88.453125 L 18.945312 99.425781 L 18.054688 99.425781 Z M 18.054688 88.453125 "/>
<path style=" stroke:none;fill-rule:nonzero;fill:rgb(30.588236%,30.588236%,30.588236%);fill-opacity:1;" d="M 19.125 14.9375 L 17.875 14.9375 L 17.785156 14.578125 C 17.785156 14.402344 16.710938 10.652344 16.535156 9.136719 C 16.355469 7.621094 17.875 2.535156 18.054688 1.910156 L 18.5 0.574219 L 18.945312 2 C 19.125 2.535156 20.644531 7.710938 20.464844 9.226562 C 20.289062 10.652344 19.304688 14.492188 19.214844 14.667969 Z M 18.5 3.785156 C 17.964844 5.65625 17.339844 8.246094 17.425781 9.136719 C 17.515625 10.207031 18.230469 12.707031 18.5 13.867188 C 18.769531 12.707031 19.484375 10.207031 19.574219 9.136719 C 19.660156 8.246094 19.035156 5.65625 18.5 3.785156 Z M 18.5 3.785156 "/>
<path style=" stroke:none;fill-rule:nonzero;fill:rgb(72.549021%,39.215687%,25.882354%);fill-opacity:1;" d="M 18.859375 28.5 L 18.5 28.230469 L 18.230469 28.5 C 0.804688 44.558594 0.804688 66.417969 18.230469 82.386719 L 18.5 82.65625 L 18.769531 82.386719 C 36.285156 66.328125 36.285156 44.46875 18.859375 28.5 Z M 18.859375 28.5 "/>
<path style=" stroke:none;fill-rule:nonzero;fill:rgb(30.588236%,30.588236%,30.588236%);fill-opacity:1;" d="M 18.5 89.433594 L 17.875 88.8125 C 7.238281 79.085938 1.699219 67.488281 1.699219 55.441406 C 1.699219 43.308594 7.238281 31.800781 17.875 22.074219 L 18.5 21.449219 L 19.125 22.074219 C 29.761719 31.800781 35.390625 43.308594 35.390625 55.441406 C 35.390625 67.578125 29.761719 79.085938 19.214844 88.8125 Z M 18.5 22.609375 C 8.042969 32.246094 2.589844 43.578125 2.589844 55.441406 C 2.589844 67.308594 8.042969 78.640625 18.5 88.1875 L 18.589844 88.273438 L 18.679688 88.1875 C 29.046875 78.640625 34.585938 67.308594 34.585938 55.441406 C 34.496094 43.578125 28.957031 32.246094 18.5 22.609375 Z M 18.5 22.609375 "/>
<path style=" stroke:none;fill-rule:nonzero;fill:rgb(30.588236%,30.588236%,30.588236%);fill-opacity:1;" d="M 7.238281 74.269531 L 6.523438 73.820312 L 18.410156 55.441406 L 5.808594 38.402344 L 6.523438 37.867188 L 19.484375 55.351562 Z M 7.238281 74.269531 "/>
<path style=" stroke:none;fill-rule:nonzero;fill:rgb(30.588236%,30.588236%,30.588236%);fill-opacity:1;" d="M 29.941406 74 L 17.605469 55.351562 L 30.476562 37.867188 L 31.191406 38.402344 L 18.679688 55.441406 L 30.742188 73.464844 Z M 29.941406 74 "/>
<path style=" stroke:none;fill-rule:nonzero;fill:rgb(36.862746%,23.137255%,17.647059%);fill-opacity:1;" d="M 21.808594 55.441406 C 21.808594 57.265625 20.328125 58.742188 18.5 58.742188 C 16.671875 58.742188 15.191406 57.265625 15.191406 55.441406 C 15.191406 53.621094 16.671875 52.140625 18.5 52.140625 C 20.328125 52.140625 21.808594 53.621094 21.808594 55.441406 Z M 21.808594 55.441406 "/>
<path style=" stroke:none;fill-rule:nonzero;fill:rgb(95.294118%,70.588237%,10.588235%);fill-opacity:1;" d="M 21.894531 55.441406 L 31.726562 43.039062 C 31.726562 43.039062 36.554688 56.871094 30.921875 69.003906 Z M 21.894531 55.441406 "/>
<path style=" stroke:none;fill-rule:nonzero;fill:rgb(95.294118%,45.09804%,17.254902%);fill-opacity:1;" d="M 24.128906 55.621094 L 30.742188 47.234375 C 30.742188 47.234375 34.050781 56.601562 30.207031 64.808594 Z M 24.128906 55.621094 "/>
<path style=" stroke:none;fill-rule:nonzero;fill:rgb(95.294118%,70.588237%,10.588235%);fill-opacity:1;" d="M 15.191406 55.441406 L 5.363281 43.039062 C 5.363281 43.039062 0.535156 56.871094 6.167969 69.003906 Z M 15.191406 55.441406 "/>
<path style=" stroke:none;fill-rule:nonzero;fill:rgb(95.294118%,45.09804%,17.254902%);fill-opacity:1;" d="M 13.40625 55.710938 L 6.613281 64.808594 C 6.613281 64.808594 2.949219 56.421875 6.34375 47.234375 Z M 13.40625 55.710938 "/>
</g>
</svg>
