<?xml version="1.0" encoding="UTF-8"?>
<svg xmlns="http://www.w3.org/2000/svg" xmlns:xlink="http://www.w3.org/1999/xlink" width="68px" height="99px" viewBox="0 0 68 99" version="1.1">
<g id="surface1">
<path style=" stroke:none;fill-rule:evenodd;fill:rgb(25.490198%,13.725491%,7.058824%);fill-opacity:1;" d="M 37.53125 25.152344 C 36.894531 25.0625 36.894531 25.0625 37.53125 25.152344 Z M 37.53125 25.152344 "/>
<path style=" stroke:none;fill-rule:evenodd;fill:rgb(0%,0%,0%);fill-opacity:1;" d="M 66.761719 22.550781 L 60.515625 21.382812 L 54.273438 20.214844 L 51.015625 25.78125 L 48.660156 29.734375 C 47.214844 28.65625 45.675781 27.757812 44.046875 26.949219 L 46.308594 19.675781 L 49.113281 10.78125 L 41.875 5.300781 L 34.632812 -0.179688 L 27.394531 5.300781 L 20.152344 10.78125 L 22.957031 19.675781 L 25.128906 26.589844 C 23.140625 27.488281 21.238281 28.566406 19.429688 29.914062 L 17.167969 26.050781 L 13.726562 20.664062 L 7.484375 21.832031 L 1.238281 23 L 0.695312 29.285156 L 0.152344 35.574219 L 6.035156 38.359375 L 10.832031 40.605469 C 8.027344 45.726562 6.398438 52.015625 6.398438 58.753906 C 6.398438 67.558594 9.113281 75.550781 13.636719 81.570312 L 9.292969 84.445312 L 4.769531 87.410156 L 6.304688 92.890625 L 7.84375 98.371094 L 13.367188 98.730469 L 18.886719 99.089844 L 20.695312 93.878906 L 22.234375 89.476562 C 25.765625 91.542969 29.746094 92.621094 34 92.621094 C 38.433594 92.621094 42.6875 91.363281 46.398438 89.027344 L 47.757812 92.890625 L 49.566406 98.101562 L 55.085938 97.742188 L 60.609375 97.382812 L 62.144531 91.902344 L 63.683594 86.421875 L 59.160156 83.457031 L 54.90625 80.671875 C 58.980469 74.742188 61.511719 67.109375 61.511719 58.753906 C 61.511719 51.925781 59.792969 45.457031 56.988281 40.15625 L 61.785156 37.910156 L 67.667969 35.125 L 67.125 28.835938 Z M 66.761719 22.550781 "/>
<path style=" stroke:none;fill-rule:evenodd;fill:rgb(100%,100%,100%);fill-opacity:1;" d="M 37.53125 25.152344 L 36.261719 28.925781 C 36.261719 28.925781 32.824219 32.699219 32.824219 35.125 C 32.824219 37.640625 33.09375 41.683594 35.359375 42.761719 C 37.53125 43.839844 40.0625 42.761719 41.511719 42.761719 C 42.960938 42.761719 45.402344 44.199219 47.03125 45.90625 C 48.570312 47.613281 51.558594 49.140625 53.820312 48.601562 C 55.992188 47.972656 60.066406 46.714844 60.15625 46.625 C 60.425781 47.613281 60.699219 48.601562 60.96875 49.589844 C 58.980469 49.949219 55.902344 50.308594 54.453125 50.578125 C 52.554688 50.847656 48.933594 52.015625 48.75 53.992188 C 48.570312 56.058594 49.65625 59.023438 50.289062 61.988281 C 50.925781 64.953125 49.835938 66.660156 51.195312 68.546875 C 52.644531 70.433594 53.910156 72.679688 56.261719 73.667969 C 57.078125 74.027344 57.800781 74.5625 58.4375 75.011719 C 57.800781 76.449219 56.988281 77.886719 56.171875 79.234375 C 55.539062 78.335938 54.726562 77.257812 54.089844 76.449219 C 52.824219 74.921875 50.652344 70.253906 49.023438 70.792969 C 47.484375 71.421875 46.941406 70.972656 45.585938 72.230469 C 44.136719 73.488281 38.707031 75.460938 37.710938 76.898438 C 36.804688 78.335938 36.445312 79.683594 37.257812 81.390625 C 37.890625 82.738281 41.332031 88.128906 42.960938 90.644531 C 40.246094 91.8125 37.257812 92.351562 34.179688 92.351562 C 33.910156 92.351562 33.636719 92.351562 33.277344 92.351562 C 33.546875 90.105469 33.726562 87.050781 33.546875 85.433594 C 33.277344 82.648438 33.09375 78.066406 29.925781 76.71875 C 26.761719 75.28125 21.871094 72.230469 20.515625 69.894531 C 19.066406 67.558594 19.066406 63.066406 15.988281 62.078125 C 12.824219 61.179688 9.292969 60.011719 6.488281 60.191406 C 6.488281 59.652344 6.488281 59.113281 6.488281 58.574219 C 6.488281 57.945312 6.488281 57.316406 6.488281 56.777344 C 8.660156 56.867188 11.464844 57.046875 12.1875 56.957031 C 13.457031 56.777344 20.878906 53.363281 22.054688 51.835938 C 23.320312 50.308594 27.394531 46.085938 27.847656 43.390625 C 28.296875 40.695312 28.117188 38.359375 28.296875 36.203125 C 28.480469 34.046875 28.117188 31.082031 28.117188 30.273438 C 28.117188 29.824219 27.9375 27.578125 27.753906 25.691406 L 27.9375 25.601562 Z M 37.53125 25.152344 "/>
<path style=" stroke:none;fill-rule:evenodd;fill:rgb(100%,100%,100%);fill-opacity:1;" d="M 28.75 9.792969 C 30.46875 9.792969 31.828125 11.140625 31.828125 12.847656 C 31.828125 14.554688 30.46875 15.902344 28.75 15.902344 C 27.03125 15.902344 25.671875 14.554688 25.671875 12.847656 C 25.671875 11.140625 27.121094 9.792969 28.75 9.792969 Z M 28.75 9.792969 "/>
<path style=" stroke:none;fill-rule:evenodd;fill:rgb(100%,100%,100%);fill-opacity:1;" d="M 40.335938 9.792969 C 42.054688 9.792969 43.414062 11.140625 43.414062 12.847656 C 43.414062 14.554688 42.054688 15.902344 40.335938 15.902344 C 38.617188 15.902344 37.257812 14.554688 37.257812 12.847656 C 37.257812 11.140625 38.617188 9.792969 40.335938 9.792969 Z M 40.335938 9.792969 "/>
<path style=" stroke:none;fill-rule:evenodd;fill:rgb(0%,0%,0%);fill-opacity:1;" d="M 25.492188 67.019531 C 25.492188 67.019531 21.871094 61.089844 22.957031 57.496094 C 24.042969 53.902344 29.65625 49.859375 30.378906 47.703125 C 31.011719 45.546875 38.886719 46.265625 41.238281 47.433594 C 43.59375 48.511719 45.492188 49.140625 46.308594 53.8125 C 47.121094 58.484375 46.578125 63.335938 46.035156 65.402344 C 45.402344 67.46875 41.601562 70.882812 39.25 72.410156 C 36.894531 73.9375 32.640625 75.820312 30.5625 73.21875 C 28.480469 70.433594 25.492188 67.019531 25.492188 67.019531 Z M 25.492188 67.019531 "/>
</g>
</svg>
