<?xml version="1.0" encoding="UTF-8"?>
<svg xmlns="http://www.w3.org/2000/svg" xmlns:xlink="http://www.w3.org/1999/xlink" width="64px" height="99px" viewBox="0 0 64 99" version="1.1">
<g id="surface1">
<path style=" stroke:none;fill-rule:evenodd;fill:rgb(8.235294%,9.019608%,9.411765%);fill-opacity:1;" d="M 33.101562 29.414062 C 35.523438 29.414062 37.945312 29.742188 40.367188 30.183594 C 39.488281 31.5 38.496094 32.707031 37.503906 33.914062 C 36.953125 34.574219 36.84375 34.683594 35.964844 34.574219 C 35.304688 34.464844 34.640625 34.464844 33.980469 34.355469 C 33.101562 34.242188 30.570312 34.792969 30.128906 34.132812 C 29.246094 32.816406 28.257812 31.390625 27.484375 29.855469 C 29.359375 29.523438 31.230469 29.414062 33.101562 29.414062 M 29.90625 34.464844 C 28.917969 34.683594 28.035156 34.792969 27.046875 35.011719 C 26.386719 35.121094 25.835938 34.023438 25.394531 33.476562 C 24.292969 32.160156 23.082031 30.953125 21.980469 29.632812 C 22.972656 29.742188 24.074219 29.742188 25.0625 29.964844 C 25.394531 29.304688 25.722656 28.757812 26.054688 28.097656 C 27.265625 30.183594 28.585938 32.269531 29.90625 34.464844 M 21.761719 29.195312 C 21.429688 28.867188 21.101562 28.425781 20.878906 27.988281 C 21.871094 28.097656 22.863281 28.316406 23.851562 28.425781 C 24.292969 28.535156 25.171875 26.78125 25.394531 26.453125 C 26.054688 27.769531 25.835938 27.988281 25.0625 29.414062 C 24.84375 29.742188 22.199219 29.304688 21.761719 29.195312 M 20.660156 27.660156 C 20.441406 27.328125 20.21875 27 20 26.671875 C 21.101562 26.78125 22.199219 27 23.191406 27.109375 C 23.632812 27.21875 24.402344 25.574219 24.625 25.132812 C 24.734375 25.355469 25.171875 26.121094 25.171875 26.230469 C 24.734375 26.78125 24.402344 27.328125 23.960938 27.878906 C 23.523438 28.535156 21.320312 27.769531 20.660156 27.660156 M 19.777344 26.339844 C 19.449219 25.792969 19.117188 25.132812 18.898438 24.585938 C 20 24.804688 21.320312 24.804688 22.3125 25.132812 C 22.75 24.476562 23.191406 23.707031 23.742188 23.046875 C 23.960938 23.597656 24.183594 24.035156 24.402344 24.585938 C 24.625 25.023438 23.632812 26.011719 23.300781 26.453125 C 22.972656 27.21875 20.550781 26.453125 19.777344 26.339844 M 18.679688 24.367188 C 18.566406 24.035156 18.347656 23.707031 18.238281 23.378906 C 19.339844 23.488281 20.441406 23.597656 21.539062 23.816406 C 22.199219 23.925781 22.75 22.28125 23.082031 21.839844 C 23.742188 23.269531 23.082031 23.597656 22.199219 24.914062 C 21.980469 25.132812 19.226562 24.367188 18.679688 24.367188 M 18.128906 22.9375 C 18.015625 22.609375 17.796875 22.171875 17.6875 21.839844 C 18.789062 21.953125 20 21.953125 20.988281 22.28125 C 21.429688 21.730469 22.3125 21.292969 22.863281 20.855469 C 23.191406 21.511719 22.199219 23.269531 21.652344 23.488281 C 20.878906 23.707031 19.007812 23.046875 18.128906 22.9375 M 17.578125 21.511719 C 17.355469 21.074219 17.246094 20.523438 17.136719 20.085938 C 18.238281 20.304688 19.339844 20.632812 20.441406 20.855469 C 20.878906 20.964844 22.089844 19.644531 22.421875 19.425781 C 22.972656 20.855469 22.089844 20.964844 20.988281 21.839844 C 20.441406 22.28125 18.347656 21.621094 17.578125 21.511719 M 17.136719 19.757812 C 16.917969 19.097656 16.917969 18.546875 16.804688 17.890625 C 17.90625 18.21875 19.007812 18.660156 20.109375 18.988281 C 20.769531 19.207031 21.652344 18.328125 22.199219 18 C 22.199219 18.21875 22.421875 19.097656 22.3125 19.207031 C 21.761719 19.644531 21.101562 20.085938 20.550781 20.632812 C 20.109375 20.855469 17.6875 19.976562 17.136719 19.757812 M 16.695312 17.5625 C 16.695312 17.011719 16.585938 16.464844 16.585938 16.023438 C 17.6875 16.464844 18.679688 16.902344 19.777344 17.453125 C 20.441406 17.671875 21.320312 16.792969 21.871094 16.574219 C 21.871094 16.792969 22.089844 17.671875 21.980469 17.78125 C 21.539062 18 20.769531 18.769531 20.21875 18.878906 C 19.339844 18.878906 17.6875 17.890625 16.695312 17.5625 M 16.695312 15.695312 C 16.695312 15.257812 16.695312 14.816406 16.804688 14.378906 C 17.796875 14.816406 18.789062 15.367188 19.890625 15.804688 C 20.660156 16.132812 21.320312 15.476562 22.089844 15.144531 C 21.980469 18.4375 18.347656 16.464844 16.695312 15.695312 M 16.695312 14.046875 C 16.917969 13.28125 16.917969 12.511719 17.136719 11.855469 C 18.015625 12.621094 18.898438 13.390625 19.777344 14.160156 C 20.441406 14.707031 21.320312 13.9375 22.089844 13.609375 C 21.980469 13.828125 21.980469 14.816406 21.871094 14.925781 C 21.429688 15.144531 20.660156 15.695312 20.109375 15.695312 C 19.226562 15.695312 17.6875 14.488281 16.695312 14.046875 M 17.246094 11.523438 C 17.464844 10.976562 17.6875 10.316406 17.90625 9.769531 C 18.679688 10.425781 19.449219 11.085938 20.21875 11.742188 C 20.988281 12.402344 21.539062 12.074219 22.53125 11.964844 C 22.421875 12.183594 22.3125 13.28125 22.089844 13.390625 C 21.652344 13.609375 20.660156 14.269531 20.21875 14.160156 C 19.449219 13.9375 18.015625 12.183594 17.246094 11.523438 M 18.015625 9.546875 C 18.238281 9.109375 18.457031 8.671875 18.679688 8.230469 C 19.339844 9 20 9.769531 20.769531 10.535156 C 21.210938 10.976562 22.3125 10.757812 22.972656 10.757812 C 22.863281 11.523438 21.429688 12.292969 20.769531 11.742188 C 19.890625 10.976562 19.007812 10.207031 18.015625 9.546875 M 18.898438 8.011719 C 19.117188 7.574219 19.449219 7.242188 19.667969 6.804688 C 20.109375 7.355469 20.550781 8.890625 21.210938 9.21875 C 21.761719 9.546875 22.972656 9.328125 23.632812 9.4375 C 23.082031 10.757812 22.75 10.535156 21.210938 10.535156 C 20.660156 10.425781 19.339844 8.453125 18.898438 8.011719 M 19.890625 6.585938 C 20.21875 6.257812 20.550781 5.816406 20.878906 5.488281 C 21.101562 6.035156 21.320312 7.574219 21.761719 8.011719 C 22.3125 8.453125 23.632812 8.230469 24.292969 8.230469 C 24.183594 8.453125 23.960938 9.109375 23.742188 9.21875 C 23.414062 9.4375 22.199219 9.109375 21.871094 9.109375 C 20.878906 8.890625 20.441406 7.355469 19.890625 6.585938 M 21.101562 5.160156 C 21.429688 4.828125 21.761719 4.5 22.089844 4.171875 C 22.199219 4.71875 22.089844 6.585938 22.421875 6.914062 C 22.75 7.242188 24.402344 7.132812 24.953125 7.242188 C 24.511719 8.230469 23.191406 7.792969 22.3125 7.792969 C 21.652344 7.683594 21.320312 5.816406 21.101562 5.160156 M 22.421875 3.953125 C 22.863281 3.621094 23.300781 3.292969 23.742188 2.964844 C 23.742188 3.511719 23.414062 4.9375 23.742188 5.488281 C 24.074219 5.925781 25.0625 6.035156 25.722656 6.257812 C 25.394531 6.585938 25.394531 7.023438 24.953125 7.023438 C 24.292969 6.914062 23.742188 6.804688 23.082031 6.695312 C 22.421875 6.585938 22.421875 4.609375 22.421875 3.953125 M 23.960938 2.742188 C 24.292969 2.523438 24.625 2.304688 24.953125 2.085938 C 24.953125 2.632812 24.734375 3.953125 24.953125 4.390625 C 25.171875 4.828125 26.054688 4.9375 26.496094 5.160156 C 26.273438 5.378906 25.945312 5.925781 25.722656 5.925781 C 25.394531 6.035156 24.511719 5.488281 24.183594 5.378906 C 23.632812 5.269531 23.960938 3.402344 23.960938 2.742188 M 25.285156 1.976562 C 27.046875 0.878906 29.246094 0.21875 31.230469 0.109375 C 32.109375 0 35.742188 0.109375 34.753906 1.316406 C 34.3125 1.867188 32.550781 2.195312 31.890625 2.523438 C 30.789062 2.855469 29.796875 3.292969 28.808594 3.839844 C 27.925781 4.28125 27.15625 5.269531 26.164062 4.828125 C 25.503906 4.5 25.285156 4.609375 25.285156 3.953125 C 25.285156 3.183594 25.285156 2.632812 25.285156 1.976562 M 37.285156 34.574219 C 37.726562 34.683594 38.054688 34.792969 38.496094 34.902344 C 38.714844 35.011719 42.570312 36.4375 43.121094 36.21875 C 43.558594 36 44.441406 34.683594 44.773438 34.242188 C 45.320312 33.585938 45.871094 32.816406 46.535156 32.160156 C 46.3125 32.160156 46.203125 31.9375 46.09375 31.9375 C 46.753906 30.953125 47.304688 29.855469 47.964844 28.867188 C 46.972656 28.976562 45.871094 28.976562 44.882812 29.304688 C 44.550781 28.207031 43.78125 27.109375 43.230469 26.011719 C 41.578125 29.085938 39.488281 31.9375 37.285156 34.574219 M 48.074219 28.535156 C 48.292969 28.207031 48.40625 27.988281 48.515625 27.660156 C 47.746094 27.660156 46.203125 28.097656 45.652344 27.660156 C 44.882812 27.21875 44.332031 25.464844 43.890625 24.695312 C 43.78125 25.023438 43.339844 25.464844 43.449219 25.792969 C 43.890625 26.5625 44.222656 27.4375 44.660156 28.207031 C 45.320312 29.414062 46.972656 28.644531 48.074219 28.535156 M 48.734375 27.328125 C 48.957031 26.890625 49.175781 26.339844 49.394531 25.902344 C 48.734375 26.011719 46.863281 26.5625 46.203125 26.230469 C 45.542969 25.902344 44.882812 23.925781 44.550781 23.269531 C 44.441406 23.597656 44 24.144531 44.222656 24.476562 C 44.660156 25.242188 45.101562 26.011719 45.542969 26.78125 C 46.203125 27.988281 47.523438 27.4375 48.734375 27.328125 M 49.507812 25.683594 C 49.617188 25.464844 49.726562 25.132812 49.835938 24.804688 C 49.066406 24.804688 47.195312 25.242188 46.644531 24.914062 C 45.984375 24.585938 45.433594 22.71875 45.101562 22.0625 C 44.441406 23.488281 45.433594 24.367188 46.09375 25.683594 C 46.644531 26.453125 48.625 25.792969 49.507812 25.683594 M 49.945312 24.476562 C 50.054688 24.144531 50.167969 23.925781 50.277344 23.597656 C 49.507812 23.597656 47.746094 23.816406 47.082031 23.488281 C 46.421875 23.046875 45.871094 21.402344 45.542969 20.742188 C 44.992188 22.0625 45.984375 23.046875 46.644531 24.257812 C 47.082031 25.023438 49.066406 24.476562 49.945312 24.476562 M 50.496094 23.269531 C 50.605469 22.9375 50.71875 22.5 50.828125 22.171875 C 50.054688 22.28125 48.625 22.609375 47.964844 22.390625 C 47.195312 22.0625 46.3125 20.523438 45.761719 19.867188 C 45.433594 20.742188 46.644531 22.0625 47.082031 22.828125 C 47.632812 23.597656 49.617188 23.269531 50.496094 23.269531 M 50.9375 21.953125 C 51.046875 21.730469 51.15625 21.402344 51.15625 21.183594 C 50.605469 21.292969 48.734375 21.839844 48.40625 21.402344 C 47.632812 20.523438 46.863281 19.644531 45.984375 18.769531 C 45.542969 19.976562 46.863281 20.855469 47.632812 21.730469 C 48.515625 22.5 49.835938 21.953125 50.9375 21.953125 M 51.265625 20.855469 C 51.378906 20.632812 51.378906 20.304688 51.488281 20.085938 C 50.9375 20.195312 49.285156 20.632812 48.957031 20.195312 C 48.074219 19.425781 47.195312 18.660156 46.3125 17.890625 C 45.984375 18.769531 47.632812 19.867188 48.074219 20.523438 C 48.957031 21.511719 49.835938 20.964844 51.265625 20.855469 M 51.597656 19.757812 C 51.707031 19.425781 51.707031 19.097656 51.707031 18.878906 C 51.15625 18.988281 49.726562 19.425781 49.285156 19.097656 C 48.292969 18.4375 47.304688 17.671875 46.3125 17.011719 C 45.871094 18 47.855469 18.988281 48.40625 19.535156 C 49.394531 20.304688 50.386719 19.867188 51.597656 19.757812 M 51.707031 18.546875 C 51.707031 18.21875 51.816406 17.890625 51.816406 17.5625 C 51.15625 17.671875 50.167969 18.109375 49.507812 17.78125 C 48.40625 17.230469 47.414062 16.683594 46.3125 16.132812 C 46.09375 17.011719 47.964844 17.78125 48.515625 18.328125 C 49.726562 18.988281 50.386719 18.660156 51.707031 18.546875 M 51.929688 17.230469 C 51.929688 16.792969 52.039062 16.355469 52.039062 15.914062 C 51.488281 16.132812 50.277344 17.011719 49.617188 16.683594 C 48.515625 16.132812 47.523438 15.585938 46.421875 15.035156 C 46.09375 16.132812 47.964844 16.574219 48.625 16.902344 C 49.945312 17.5625 50.386719 17.453125 51.929688 17.230469 M 52.039062 15.585938 C 52.039062 15.257812 52.039062 14.816406 51.929688 14.488281 C 51.488281 14.707031 50.054688 15.695312 49.617188 15.585938 C 48.515625 15.144531 47.523438 14.816406 46.421875 14.378906 C 46.3125 15.144531 48.40625 15.695312 48.957031 16.023438 C 50.167969 16.574219 50.71875 16.132812 52.039062 15.585938 M 51.929688 14.160156 C 51.929688 13.71875 51.816406 13.28125 51.707031 12.839844 C 51.265625 13.171875 49.945312 14.378906 49.394531 14.269531 C 48.40625 14.046875 47.304688 13.828125 46.3125 13.71875 C 46.421875 14.488281 48.40625 14.816406 49.066406 15.035156 C 50.054688 15.367188 50.9375 14.707031 51.929688 14.160156 M 51.597656 12.621094 C 51.488281 12.183594 51.378906 11.855469 51.15625 11.523438 C 50.71875 11.964844 49.835938 13.28125 49.175781 13.5 C 48.515625 13.71875 46.863281 13.0625 46.09375 12.953125 C 45.984375 13.9375 47.964844 13.828125 48.625 14.046875 C 49.945312 14.046875 50.71875 13.171875 51.597656 12.621094 M 51.046875 11.085938 C 50.828125 10.644531 50.71875 10.316406 50.496094 9.988281 C 50.054688 10.535156 49.285156 11.855469 48.625 12.074219 C 48.074219 12.292969 46.535156 11.742188 45.871094 11.632812 C 45.761719 12.953125 47.632812 12.730469 48.625 12.953125 C 49.617188 13.0625 50.386719 11.742188 51.046875 11.085938 M 50.386719 9.769531 C 50.167969 9.4375 50.054688 9.109375 49.835938 8.890625 C 49.507812 9.328125 48.84375 10.644531 48.292969 10.867188 C 47.746094 11.085938 46.203125 10.644531 45.542969 10.535156 C 45.761719 11.855469 47.195312 11.523438 48.292969 11.742188 C 48.957031 11.742188 49.945312 10.207031 50.386719 9.769531 M 49.617188 8.5625 C 49.394531 8.121094 49.066406 7.792969 48.84375 7.464844 C 48.625 7.902344 48.183594 9.21875 47.746094 9.546875 C 47.195312 9.878906 45.652344 9.546875 45.101562 9.546875 C 45.320312 10.535156 46.863281 10.207031 47.632812 10.316406 C 48.515625 10.425781 49.066406 9.21875 49.617188 8.5625 M 48.625 7.242188 C 48.40625 6.914062 48.074219 6.585938 47.855469 6.367188 C 47.746094 6.914062 47.746094 8.453125 47.304688 8.78125 C 46.863281 9.109375 45.210938 8.78125 44.660156 8.890625 C 44.882812 9.769531 46.421875 9.328125 47.082031 9.328125 C 47.964844 9.21875 48.183594 8.011719 48.625 7.242188 M 47.523438 6.144531 C 47.195312 5.816406 46.863281 5.488281 46.535156 5.160156 C 46.535156 5.707031 46.753906 7.464844 46.421875 7.792969 C 46.09375 8.121094 44.550781 7.902344 44 7.902344 C 44.441406 9 45.871094 8.5625 46.863281 8.5625 C 47.414062 8.453125 47.414062 6.695312 47.523438 6.144531 M 46.203125 4.828125 C 45.984375 4.609375 45.761719 4.390625 45.433594 4.171875 C 45.433594 4.609375 45.652344 6.367188 45.320312 6.695312 C 45.101562 6.914062 43.449219 6.804688 43.121094 6.804688 C 43.671875 7.792969 44.882812 7.464844 45.984375 7.464844 C 46.203125 7.464844 46.203125 5.160156 46.203125 4.828125 M 45.210938 3.953125 C 45.101562 3.730469 44.773438 3.621094 44.550781 3.511719 C 44.441406 3.953125 44.550781 5.269531 44.332031 5.597656 C 44.109375 5.925781 42.898438 5.925781 42.460938 6.035156 C 42.898438 6.804688 44.109375 6.476562 44.882812 6.476562 C 45.433594 6.476562 45.210938 4.5 45.210938 3.953125 M 44.332031 3.292969 C 42.679688 2.195312 41.027344 1.316406 39.046875 0.660156 C 38.054688 0.328125 34.753906 -0.328125 35.851562 1.535156 C 36.84375 3.183594 39.265625 3.839844 40.699219 4.828125 C 41.6875 5.488281 42.019531 5.816406 43.121094 5.597656 C 44.550781 5.378906 44.222656 4.609375 44.332031 3.292969 M 21.652344 36.546875 C 20.21875 35.230469 18.789062 33.804688 17.796875 32.046875 C 17.246094 31.0625 15.375 28.097656 17.027344 27.109375 C 18.457031 26.230469 21.101562 28.976562 21.980469 29.855469 C 23.523438 31.390625 24.953125 33.144531 26.386719 34.902344 C 24.734375 35.453125 23.191406 35.890625 21.652344 36.546875 M 18.566406 28.097656 C 19.667969 28.757812 24.734375 34.574219 22.863281 35.339844 C 21.652344 35.78125 20.328125 32.816406 19.890625 31.9375 C 19.667969 31.5 17.796875 27.988281 18.566406 28.097656 M 18.898438 28.644531 C 18.789062 28.535156 18.789062 28.535156 18.679688 28.425781 C 18.898438 29.304688 21.652344 35.78125 22.972656 35.011719 C 24.074219 34.355469 19.449219 29.414062 18.898438 28.644531 M 43.230469 36.4375 C 44.660156 34.792969 46.09375 32.707031 47.746094 31.28125 C 48.957031 30.292969 52.480469 29.304688 52.589844 31.9375 C 52.699219 33.914062 50.054688 36.109375 48.734375 37.207031 C 48.292969 37.644531 47.855469 37.976562 47.414062 38.304688 C 46.972656 38.632812 46.644531 38.195312 46.203125 37.976562 C 45.210938 37.316406 44.222656 36.878906 43.230469 36.4375 M 44.441406 36.4375 C 44.992188 35.121094 49.507812 29.632812 50.828125 31.609375 C 52.148438 33.476562 45.542969 36.21875 44.222656 36.769531 C 44.441406 36.660156 44.441406 36.546875 44.441406 36.4375 M 44.992188 36 C 44.992188 36.109375 44.882812 36.21875 44.882812 36.328125 C 45.871094 35.890625 51.707031 33.257812 50.605469 31.828125 C 49.617188 30.402344 45.542969 35.121094 44.992188 36 M 21.429688 36.660156 C 14.164062 40.5 9.210938 46.097656 6.125 53.671875 C 4.695312 57.402344 3.703125 61.242188 3.265625 65.195312 C 2.824219 69.476562 3.925781 73.425781 5.574219 77.269531 C 12.183594 91.867188 31.121094 99 45.433594 91.867188 C 52.699219 88.242188 57.433594 81.546875 58.644531 73.644531 C 59.855469 65.632812 60.296875 57.511719 56.773438 49.9375 C 54.570312 45.328125 51.378906 41.707031 47.304688 38.742188 C 48.074219 38.085938 48.84375 37.425781 49.617188 36.769531 C 50.167969 36.328125 51.046875 34.792969 51.707031 35.230469 C 53.25 36.4375 54.679688 37.757812 56 39.292969 C 58.644531 42.476562 60.40625 45.878906 61.726562 49.71875 C 64.371094 57.074219 64.148438 65.523438 62.9375 73.207031 C 61.617188 81.4375 57.652344 89.121094 50.71875 93.953125 C 44.222656 98.5625 34.863281 99.878906 27.15625 98.5625 C 18.457031 97.132812 11.082031 92.414062 6.238281 85.171875 C 1.503906 78.257812 0.292969 70.242188 0.292969 62.230469 C 0.292969 55.425781 3.042969 48.511719 6.898438 42.914062 C 8.660156 40.390625 11.082031 37.976562 13.503906 36.109375 C 14.824219 35.121094 16.253906 34.132812 17.6875 33.367188 C 18.238281 33.035156 19.007812 34.355469 19.449219 34.902344 C 20.109375 35.453125 20.769531 36.109375 21.429688 36.660156 M 23.082031 50.597656 C 21.429688 51.035156 19.777344 51.695312 18.789062 53.230469 C 17.796875 54.769531 18.015625 56.195312 18.128906 57.839844 C 19.777344 55.425781 21.429688 53.011719 23.082031 50.597656 M 18.238281 57.839844 C 19.007812 59.160156 19.339844 60.914062 20.328125 62.339844 C 21.210938 63.660156 22.75 65.085938 24.292969 65.523438 C 27.816406 66.621094 28.808594 62.011719 29.246094 59.378906 C 29.796875 55.757812 29.246094 52.355469 25.613281 50.816406 C 23.632812 49.9375 23.082031 50.816406 21.980469 52.355469 C 20.660156 54.21875 19.449219 56.085938 18.238281 57.839844 M 41.910156 49.390625 C 45.433594 49.828125 48.734375 52.683594 48.183594 56.523438 C 47.632812 59.816406 45.984375 63 43.558594 65.195312 C 42.347656 66.292969 40.585938 67.171875 38.9375 67.0625 C 37.066406 66.953125 36.402344 65.414062 35.742188 63.878906 C 34.421875 60.914062 33.210938 55.425781 35.414062 52.574219 C 36.625 50.488281 39.265625 48.621094 41.910156 49.390625 M 38.277344 57.621094 C 38.054688 59.597656 38.386719 64.207031 41.46875 62.230469 C 42.238281 61.792969 42.679688 60.914062 43.121094 60.144531 C 43.78125 59.046875 43.890625 58.828125 42.789062 58.28125 C 41.6875 57.730469 39.488281 57.402344 38.277344 57.621094 M 41.578125 52.464844 C 47.964844 53.339844 45.433594 62.78125 40.476562 63.769531 C 36.183594 64.644531 34.640625 51.144531 41.578125 52.464844 M 41.800781 53.011719 C 39.375 52.355469 37.503906 54.660156 37.394531 56.855469 C 37.394531 58.5 37.726562 62.890625 39.707031 63.109375 C 42.128906 63.4375 44 59.925781 44.550781 58.0625 C 45.433594 55.535156 44.332031 54 41.800781 53.011719 M 41.6875 50.597656 C 45.210938 51.476562 47.414062 53.78125 46.644531 57.511719 C 45.984375 60.695312 43.339844 65.304688 39.707031 65.632812 C 36.292969 65.855469 35.742188 60.035156 35.523438 57.621094 C 35.082031 54.109375 37.613281 49.9375 41.6875 50.597656 M 42.019531 51.257812 C 38.828125 50.816406 36.402344 52.902344 36.074219 56.085938 C 35.851562 58.171875 36.515625 64.757812 39.265625 65.085938 C 42.460938 65.414062 44.992188 61.132812 45.871094 58.5 C 46.863281 55.207031 45.652344 52.242188 42.019531 51.257812 M 42.460938 50.046875 C 38.828125 48.621094 35.191406 52.132812 34.863281 55.535156 C 34.640625 57.511719 35.082031 59.597656 35.523438 61.464844 C 35.851562 62.890625 36.625 65.632812 38.054688 66.183594 C 41.359375 67.609375 44.773438 62.78125 46.09375 60.585938 C 47.855469 57.839844 48.40625 53.5625 45.542969 51.367188 C 44.660156 50.816406 43.449219 50.269531 42.460938 50.046875 M 23.082031 49.390625 C 19.558594 49.828125 16.253906 52.683594 16.804688 56.523438 C 17.355469 59.925781 19.007812 63.109375 21.652344 65.414062 C 22.75 66.402344 24.511719 67.171875 26.054688 67.0625 C 27.925781 66.953125 28.476562 65.304688 29.246094 63.878906 C 30.789062 60.804688 31.449219 55.644531 29.578125 52.574219 C 28.367188 50.488281 25.503906 48.621094 23.082031 49.390625 M 26.714844 57.621094 C 26.933594 59.597656 26.496094 64.097656 23.523438 62.230469 C 22.863281 61.792969 22.3125 61.132812 21.980469 60.476562 C 21.429688 59.378906 20.988281 58.828125 22.199219 58.28125 C 23.300781 57.839844 25.394531 57.402344 26.714844 57.621094 M 23.191406 52.464844 C 20.328125 52.902344 18.898438 55.207031 19.449219 57.953125 C 20 60.367188 21.980469 63.660156 24.625 63.878906 C 27.15625 64.097656 27.925781 59.488281 27.925781 57.511719 C 28.035156 54.878906 26.386719 51.914062 23.191406 52.464844 M 23.082031 53.011719 C 25.503906 52.242188 27.375 54.769531 27.484375 56.855469 C 27.597656 58.5 27.046875 62.78125 25.0625 63.109375 C 22.640625 63.546875 20.660156 59.925781 20.109375 58.0625 C 19.449219 55.535156 20.660156 54 23.082031 53.011719 M 22.863281 51.257812 C 25.835938 50.707031 28.585938 52.902344 28.808594 55.867188 C 29.027344 58.0625 28.367188 64.757812 25.503906 64.976562 C 22.3125 65.304688 19.667969 60.914062 19.007812 58.28125 C 18.128906 55.207031 19.226562 52.023438 22.863281 51.257812 M 18.238281 57.839844 C 18.128906 57.839844 18.128906 57.839844 18.238281 57.839844 M 22.421875 50.046875 C 26.054688 48.730469 29.796875 52.023438 30.128906 55.535156 C 30.347656 57.402344 29.90625 59.707031 29.359375 61.464844 C 28.917969 62.890625 28.257812 65.523438 26.824219 66.183594 C 23.632812 67.609375 19.890625 62.78125 18.679688 60.476562 C 17.136719 57.621094 16.367188 53.671875 19.339844 51.367188 C 20.21875 50.816406 21.320312 50.269531 22.421875 50.046875 M 32.992188 79.902344 C 33.652344 80.453125 33.761719 80.78125 34.53125 80.339844 C 35.082031 80.011719 35.191406 80.121094 35.742188 80.453125 C 36.402344 80.78125 36.625 79.902344 37.175781 80.121094 C 37.394531 80.230469 37.613281 80.453125 37.835938 80.671875 C 38.164062 80.890625 38.386719 80.121094 38.714844 80.121094 C 39.265625 80.121094 39.375 80.78125 40.039062 80.339844 C 40.699219 79.902344 40.808594 80.121094 41.46875 80.5625 C 41.800781 80.78125 42.019531 80.230469 42.460938 80.339844 C 43.339844 80.671875 43.671875 80.5625 44.550781 80.339844 C 44.550781 81.21875 44.882812 83.304688 44.441406 84.074219 C 44.109375 84.621094 43.121094 84.402344 42.347656 84.402344 C 39.265625 84.402344 36.183594 84.402344 33.210938 84.402344 C 30.238281 84.402344 27.265625 84.402344 24.183594 84.402344 C 23.851562 84.402344 21.871094 84.511719 21.871094 84.292969 C 21.871094 82.976562 21.761719 81.660156 21.761719 80.339844 C 22.53125 80.5625 22.863281 80.78125 23.632812 80.453125 C 24.292969 80.230469 24.183594 80.78125 24.734375 80.671875 C 25.285156 80.5625 25.503906 79.902344 26.054688 80.230469 C 26.386719 80.453125 26.605469 80.78125 26.824219 80.5625 C 26.933594 80.453125 27.375 80.011719 27.484375 80.121094 C 27.707031 80.339844 27.925781 80.453125 28.148438 80.671875 C 28.476562 80.890625 28.695312 80.230469 29.027344 80.230469 C 29.46875 80.230469 30.019531 80.78125 30.238281 80.671875 C 30.570312 80.453125 31.007812 80.011719 31.449219 80.230469 C 32.109375 80.78125 32 80.5625 32.992188 79.902344 M 32.992188 79.355469 C 33.652344 78.804688 33.761719 78.476562 34.53125 78.914062 C 35.191406 79.242188 35.082031 79.132812 35.742188 78.804688 C 36.292969 78.476562 36.84375 79.355469 37.175781 79.132812 C 38.277344 78.367188 37.726562 79.023438 38.714844 79.132812 C 39.265625 79.132812 39.488281 78.585938 40.039062 78.914062 C 40.699219 79.242188 40.699219 79.132812 41.46875 78.695312 C 41.800781 78.476562 42.019531 79.023438 42.460938 78.914062 C 43.339844 78.585938 43.671875 78.695312 44.550781 78.914062 C 44.550781 78.035156 44.882812 75.953125 44.441406 75.183594 C 44.109375 74.632812 43.121094 74.855469 42.347656 74.855469 C 39.265625 74.855469 36.183594 74.855469 33.210938 74.855469 C 30.238281 74.855469 27.265625 74.855469 24.183594 74.855469 C 23.851562 74.855469 21.871094 74.742188 21.871094 74.964844 C 21.871094 76.28125 21.761719 77.597656 21.761719 78.914062 C 22.53125 78.695312 22.863281 78.476562 23.632812 78.804688 C 24.292969 79.023438 24.183594 78.476562 24.734375 78.585938 C 25.394531 78.695312 25.394531 79.355469 26.054688 79.023438 C 26.386719 78.914062 26.605469 78.585938 26.824219 78.804688 C 26.933594 78.914062 27.375 79.242188 27.484375 79.132812 C 27.707031 79.023438 27.925781 78.804688 28.148438 78.585938 C 28.476562 78.367188 28.695312 78.914062 29.027344 79.023438 C 29.359375 79.023438 30.019531 78.476562 30.238281 78.585938 C 30.679688 78.914062 31.007812 79.242188 31.449219 79.023438 C 32.109375 78.476562 32.109375 78.585938 32.992188 79.355469 M 32.992188 77.378906 C 33.652344 76.9375 33.980469 76.5 34.640625 76.9375 C 35.191406 77.269531 35.414062 76.5 35.742188 76.71875 C 36.402344 77.160156 36.402344 77.378906 37.175781 76.828125 C 37.503906 76.609375 37.726562 77.378906 38.277344 77.046875 C 39.375 76.390625 39.046875 77.269531 39.925781 77.378906 C 40.699219 77.378906 40.585938 76.28125 41.46875 76.9375 C 42.128906 77.378906 42.128906 77.269531 42.789062 76.9375 C 43.449219 76.5 43.890625 77.597656 43.78125 78.144531 C 43.121094 77.707031 42.789062 78.367188 42.128906 78.367188 C 41.578125 78.367188 41.800781 77.816406 41.25 78.144531 C 40.476562 78.585938 40.367188 78.585938 39.707031 78.035156 C 39.597656 77.925781 39.375 78.144531 39.265625 78.257812 C 38.714844 78.695312 38.714844 78.476562 38.277344 78.144531 C 37.835938 77.816406 37.613281 78.144531 37.175781 78.476562 C 36.84375 78.695312 36.292969 78.035156 35.851562 78.144531 C 34.753906 78.367188 35.191406 78.804688 34.09375 78.144531 C 33.429688 77.707031 33.542969 78.804688 32.992188 78.804688 C 32.550781 78.804688 32.332031 78.035156 31.890625 78.035156 C 30.898438 78.144531 31.339844 78.914062 30.238281 78.257812 C 29.796875 78.035156 29.578125 78.257812 29.136719 78.585938 C 28.695312 78.476562 28.148438 77.925781 27.816406 77.925781 C 26.933594 77.925781 27.484375 78.695312 26.496094 78.035156 C 26.164062 77.816406 25.613281 78.585938 25.0625 78.257812 C 24.402344 77.925781 24.511719 77.816406 23.960938 78.257812 C 23.523438 78.585938 22.863281 77.707031 22.199219 78.144531 C 22.089844 77.597656 22.53125 76.5 23.191406 76.9375 C 23.851562 77.378906 23.851562 77.488281 24.511719 76.9375 C 25.394531 76.390625 25.285156 77.378906 26.054688 77.378906 C 26.714844 77.378906 26.714844 76.390625 27.484375 76.9375 C 28.476562 77.488281 27.925781 76.71875 28.695312 76.71875 C 29.578125 76.71875 29.027344 77.488281 30.019531 76.9375 C 30.457031 76.609375 30.789062 77.046875 31.230469 77.046875 C 31.449219 77.046875 31.667969 76.5 32 76.71875 C 32.21875 76.828125 32.550781 77.046875 32.992188 77.378906 M 32.992188 76.609375 C 32.769531 76.5 32 75.839844 31.78125 75.839844 C 31.121094 75.839844 31.230469 76.609375 30.570312 76.171875 C 29.796875 75.730469 29.46875 77.046875 28.695312 75.953125 C 28.035156 76.828125 27.816406 76.28125 27.046875 76.0625 C 26.273438 75.839844 26.386719 76.9375 25.394531 76.28125 C 24.511719 75.730469 24.84375 76.609375 23.851562 76.609375 C 23.082031 76.609375 22.863281 75.402344 22.199219 76.5 C 22.199219 75.402344 22.089844 75.511719 23.082031 75.511719 C 24.292969 75.511719 25.503906 75.511719 26.714844 75.511719 C 28.808594 75.511719 31.007812 75.511719 33.101562 75.511719 C 35.082031 75.511719 37.066406 75.511719 39.046875 75.511719 C 40.257812 75.511719 41.578125 75.511719 42.789062 75.511719 C 43.890625 75.511719 43.890625 75.402344 43.890625 76.5 C 43.449219 75.621094 43.011719 76.171875 42.347656 76.609375 C 41.910156 76.828125 41.46875 75.839844 40.917969 76.171875 C 39.707031 76.9375 40.257812 76.0625 39.15625 76.0625 C 38.277344 76.0625 38.277344 77.046875 37.503906 75.953125 C 36.625 77.046875 36.292969 75.621094 35.632812 76.171875 C 34.972656 76.609375 34.972656 75.953125 34.421875 75.839844 C 33.871094 75.839844 33.210938 76.5 32.992188 76.609375 M 32.992188 81.769531 C 33.761719 82.316406 33.980469 82.757812 34.753906 82.097656 C 35.191406 81.769531 35.523438 82.535156 35.851562 82.316406 C 36.625 81.878906 36.625 81.660156 37.285156 82.316406 C 37.613281 82.535156 37.835938 81.769531 38.386719 81.988281 C 39.488281 82.644531 39.15625 81.769531 40.039062 81.769531 C 40.808594 81.769531 40.699219 82.757812 41.578125 82.207031 C 42.238281 81.769531 42.238281 81.878906 42.898438 82.207031 C 43.558594 82.644531 44 81.660156 43.890625 81 C 43.339844 81.328125 43.011719 81 42.347656 80.78125 C 41.910156 80.671875 41.800781 81.328125 41.359375 81 C 40.257812 80.339844 40.808594 81 39.816406 81 C 39.265625 81 39.15625 80.339844 38.496094 80.78125 C 37.945312 81.21875 37.945312 81.328125 37.394531 80.890625 C 36.734375 80.339844 36.515625 81.328125 35.964844 81.109375 C 34.863281 80.78125 35.191406 80.453125 34.203125 81.109375 C 33.542969 81.546875 33.652344 80.453125 33.101562 80.453125 C 32.660156 80.453125 32.441406 81.21875 32 81.21875 C 31.78125 81.21875 31.339844 80.78125 31.121094 80.671875 C 30.789062 80.453125 30.457031 81.109375 30.128906 81.109375 C 29.6875 81.21875 29.359375 80.5625 29.027344 80.671875 C 28.257812 80.671875 28.476562 81.546875 27.816406 81.109375 C 26.714844 80.339844 27.15625 81.21875 26.273438 81.21875 C 25.394531 81.21875 25.722656 80.453125 24.734375 81 C 23.960938 81.4375 24.292969 80.78125 23.632812 80.78125 C 22.863281 80.78125 22.75 81.4375 21.980469 81 C 21.871094 81.660156 22.3125 82.535156 22.972656 82.207031 C 23.632812 81.769531 23.632812 81.660156 24.292969 82.207031 C 25.171875 82.757812 25.0625 81.769531 25.835938 81.769531 C 26.496094 81.769531 26.496094 82.644531 27.265625 82.207031 C 28.257812 81.546875 27.597656 82.425781 28.476562 82.425781 C 29.359375 82.425781 28.808594 81.546875 29.796875 82.207031 C 30.238281 82.535156 30.457031 82.097656 31.007812 82.097656 C 31.230469 82.097656 31.449219 82.644531 31.78125 82.535156 C 32.21875 82.316406 32.550781 82.097656 32.992188 81.769531 M 32.992188 82.535156 C 32.769531 82.644531 32 83.414062 31.667969 83.195312 C 31.449219 83.085938 31.121094 82.757812 30.898438 82.757812 C 30.679688 82.757812 30.347656 83.304688 30.238281 83.195312 C 29.46875 83.085938 29.6875 82.316406 28.917969 82.976562 C 28.257812 83.523438 28.148438 82.425781 27.707031 82.644531 C 27.265625 82.976562 27.046875 83.304688 26.605469 82.976562 C 25.722656 82.316406 25.722656 82.644531 24.84375 83.195312 C 24.511719 83.414062 24.074219 82.425781 23.414062 82.757812 C 22.863281 83.085938 22.53125 83.414062 22.089844 82.757812 C 22.089844 83.742188 21.980469 83.742188 22.972656 83.742188 C 24.183594 83.742188 25.394531 83.742188 26.605469 83.742188 C 28.695312 83.742188 30.898438 83.742188 32.992188 83.742188 C 34.972656 83.742188 36.953125 83.742188 38.9375 83.742188 C 40.148438 83.742188 41.46875 83.742188 42.679688 83.742188 C 43.78125 83.742188 43.78125 83.964844 43.78125 82.757812 C 43.449219 83.304688 43.230469 83.195312 42.789062 82.976562 C 41.800781 82.425781 42.019531 83.304688 41.136719 83.304688 C 40.699219 83.304688 40.367188 82.316406 39.925781 82.644531 C 39.15625 83.195312 39.265625 83.414062 38.496094 82.867188 C 37.835938 82.535156 37.613281 83.414062 37.285156 83.195312 C 36.625 82.757812 36.515625 82.535156 35.851562 83.195312 C 35.742188 83.304688 35.632812 83.085938 35.523438 83.085938 C 34.863281 82.644531 35.082031 83.195312 34.421875 83.195312 C 33.761719 83.195312 33.429688 82.867188 32.992188 82.535156 M 34.640625 35.011719 C 26.824219 34.355469 18.566406 37.425781 13.28125 43.242188 C 7.777344 49.28125 4.804688 56.964844 3.925781 64.976562 C 2.933594 73.316406 7.449219 81.328125 13.613281 86.707031 C 19.777344 92.085938 27.707031 94.609375 35.851562 93.953125 C 43.449219 93.292969 51.597656 88.902344 55.339844 82.207031 C 57.324219 78.695312 58.09375 74.632812 58.535156 70.792969 C 59.085938 66.730469 59.414062 62.671875 58.753906 58.609375 C 56.992188 45.988281 47.414062 36.21875 34.640625 35.011719 "/>
</g>
</svg>
