<?xml version="1.0" encoding="UTF-8"?>
<svg xmlns="http://www.w3.org/2000/svg" xmlns:xlink="http://www.w3.org/1999/xlink" width="46px" height="99px" viewBox="0 0 46 99" version="1.1">
<g id="surface1">
<path style=" stroke:none;fill-rule:nonzero;fill:rgb(0%,0%,0%);fill-opacity:1;" d="M 43.898438 95.535156 C 42.660156 94.550781 40.929688 93.6875 40.1875 92.332031 C 39.074219 90.242188 41.300781 82.242188 40.683594 75.226562 C 40.3125 71.53125 38.828125 68.085938 37.097656 65.378906 L 38.210938 65.378906 C 37.46875 61.070312 36.355469 56.761719 34.746094 52.453125 C 35.613281 51.714844 36.601562 50.363281 36.726562 47.652344 C 36.726562 47.285156 36.847656 46.914062 36.972656 46.667969 C 38.332031 44.453125 44.515625 35.097656 44.144531 33.007812 C 43.773438 30.792969 36.601562 22.914062 30.914062 20.082031 C 30.789062 20.082031 30.667969 19.960938 30.667969 19.960938 C 28.8125 19.589844 27.082031 19.222656 24.730469 19.222656 C 24.484375 18.484375 24.238281 17.496094 24.113281 16.390625 C 25.347656 16.511719 26.710938 16.511719 28.070312 16.265625 C 30.789062 15.773438 30.417969 8.144531 28.441406 4.574219 C 27.945312 3.710938 27.328125 2.972656 26.585938 2.359375 C 21.023438 4.695312 18.425781 9.375 18.175781 14.296875 C 18.425781 14.421875 18.671875 14.667969 18.917969 14.789062 C 19.167969 14.914062 19.414062 15.035156 19.660156 15.160156 C 19.539062 16.757812 18.917969 18.113281 18.054688 19.34375 C 16.695312 19.46875 15.085938 19.589844 13.355469 19.714844 C 10.757812 19.835938 8.902344 21.929688 7.542969 23.28125 C 4.824219 26.113281 1.359375 31.160156 0.867188 32.636719 C -0.246094 35.835938 8.78125 44.699219 10.386719 46.792969 C 10.511719 47.039062 10.632812 47.285156 10.757812 47.652344 C 10.882812 49.128906 11.128906 50.363281 11.375 51.222656 C 10.015625 54.546875 8.65625 59.222656 7.789062 65.253906 L 9.027344 65.253906 C 7.296875 68.085938 5.6875 71.410156 5.441406 75.101562 C 4.699219 82.117188 6.925781 90.242188 5.8125 92.210938 C 5.070312 93.5625 3.339844 94.550781 2.101562 95.410156 C -0.246094 97.132812 -1.730469 99.226562 3.832031 98.117188 C 5.6875 97.75 8.039062 96.765625 11.5 96.273438 C 12.242188 96.148438 12.738281 95.535156 12.738281 94.796875 C 12.613281 92.578125 11.253906 78.300781 11.5 76.085938 C 11.625 75.226562 11.871094 74.363281 12.242188 73.625 C 12.117188 73.132812 12.117188 72.640625 11.996094 72.148438 L 33.632812 72.148438 C 33.632812 72.394531 33.511719 72.761719 33.511719 73.007812 C 34.003906 73.992188 34.375 74.980469 34.5 76.085938 C 34.746094 78.300781 33.386719 92.578125 33.261719 94.796875 C 33.261719 95.535156 33.757812 96.148438 34.5 96.273438 C 37.960938 96.765625 40.3125 97.871094 42.167969 98.117188 C 47.855469 99.347656 46.246094 97.257812 43.898438 95.535156 Z M 32.027344 52.945312 C 32.027344 52.945312 32.027344 53.070312 32.152344 53.070312 C 33.140625 54.667969 33.882812 58.363281 33.882812 58.363281 C 33.882812 58.363281 11.746094 58.363281 11.746094 58.363281 C 11.746094 58.363281 11.746094 58.363281 11.746094 58.238281 C 11.746094 58.238281 11.746094 58.238281 11.746094 58.117188 C 11.996094 56.640625 12.984375 53.929688 12.984375 53.929688 C 13.230469 54.054688 13.476562 53.929688 13.726562 53.808594 C 14.46875 53.4375 15.085938 52.453125 15.332031 51.347656 C 15.332031 51.347656 15.332031 51.347656 15.332031 51.222656 L 29.925781 51.222656 C 29.925781 52.207031 30.417969 52.824219 32.027344 52.945312 Z M 32.769531 60.945312 C 32.769531 61.5625 32.273438 62.054688 31.65625 62.054688 C 31.039062 62.054688 30.542969 61.5625 30.542969 60.945312 C 30.542969 60.332031 31.039062 59.839844 31.65625 59.839844 C 32.273438 59.839844 32.769531 60.332031 32.769531 60.945312 Z M 29.304688 60.945312 C 29.304688 61.5625 28.8125 62.054688 28.195312 62.054688 C 27.574219 62.054688 27.082031 61.5625 27.082031 60.945312 C 27.082031 60.332031 27.574219 59.839844 28.195312 59.839844 C 28.8125 59.839844 29.304688 60.332031 29.304688 60.945312 Z M 25.71875 60.945312 C 25.71875 61.5625 25.226562 62.054688 24.609375 62.054688 C 23.988281 62.054688 23.496094 61.5625 23.496094 60.945312 C 23.496094 60.332031 23.988281 59.839844 24.609375 59.839844 C 25.226562 59.839844 25.71875 60.332031 25.71875 60.945312 Z M 22.257812 60.945312 C 22.257812 61.5625 21.761719 62.054688 21.144531 62.054688 C 20.527344 62.054688 20.03125 61.5625 20.03125 60.945312 C 20.03125 60.332031 20.527344 59.839844 21.144531 59.839844 C 21.640625 59.839844 22.257812 60.332031 22.257812 60.945312 Z M 18.671875 60.945312 C 18.671875 61.5625 18.175781 62.054688 17.558594 62.054688 C 16.941406 62.054688 16.445312 61.5625 16.445312 60.945312 C 16.445312 60.332031 16.941406 59.839844 17.558594 59.839844 C 18.175781 59.839844 18.671875 60.332031 18.671875 60.945312 Z M 15.085938 60.945312 C 15.085938 61.5625 14.589844 62.054688 13.972656 62.054688 C 13.355469 62.054688 12.859375 61.5625 12.859375 60.945312 C 12.859375 60.332031 13.355469 59.839844 13.972656 59.839844 C 14.589844 59.714844 15.085938 60.332031 15.085938 60.945312 Z M 25.347656 29.929688 C 25.472656 29.558594 25.71875 29.4375 26.089844 29.4375 C 26.460938 29.558594 26.710938 29.804688 26.585938 30.175781 C 26.460938 30.546875 26.089844 30.667969 25.84375 30.667969 C 25.472656 30.546875 25.226562 30.296875 25.347656 29.929688 Z M 24.730469 25.746094 C 24.359375 25.746094 24.113281 25.375 24.113281 25.128906 C 24.113281 24.761719 24.484375 24.515625 24.730469 24.515625 C 25.101562 24.515625 25.347656 24.882812 25.347656 25.128906 C 25.347656 25.5 25.101562 25.867188 24.730469 25.746094 Z M 26.957031 34.730469 C 27.328125 34.851562 27.453125 35.222656 27.203125 35.589844 C 27.082031 35.960938 26.585938 36.082031 26.339844 35.835938 C 26.089844 35.589844 25.96875 35.222656 26.089844 34.976562 C 26.214844 34.730469 26.585938 34.605469 26.957031 34.730469 Z M 26.710938 33.5 C 26.832031 33.128906 27.203125 33.007812 27.453125 33.128906 C 27.824219 33.253906 27.945312 33.621094 27.824219 33.992188 C 27.699219 34.359375 27.328125 34.484375 26.957031 34.359375 C 26.832031 34.238281 26.585938 33.867188 26.710938 33.5 Z M 26.089844 37.191406 C 25.84375 37.4375 25.347656 37.4375 25.101562 37.191406 C 24.855469 36.945312 24.855469 36.574219 25.101562 36.328125 C 25.347656 36.082031 25.71875 36.082031 25.96875 36.328125 C 26.339844 36.453125 26.460938 36.824219 26.089844 37.191406 Z M 25.597656 31.160156 C 25.96875 31.285156 26.089844 31.652344 25.96875 32.023438 C 25.84375 32.390625 25.472656 32.515625 25.101562 32.269531 C 24.730469 32.144531 24.730469 31.777344 24.730469 31.40625 C 24.976562 31.160156 25.347656 31.039062 25.597656 31.160156 Z M 24.976562 32.636719 C 25.226562 32.882812 25.347656 33.253906 25.101562 33.5 C 24.855469 33.746094 24.359375 33.746094 24.238281 33.5 C 23.988281 33.253906 23.988281 32.882812 24.238281 32.636719 C 24.238281 32.515625 24.609375 32.390625 24.976562 32.636719 Z M 23.988281 37.191406 C 24.238281 37.070312 24.609375 37.191406 24.855469 37.4375 C 25.101562 37.683594 24.976562 38.175781 24.609375 38.300781 C 24.238281 38.546875 23.867188 38.300781 23.742188 37.929688 C 23.617188 37.683594 23.742188 37.316406 23.988281 37.191406 Z M 23.371094 34.605469 C 23 34.730469 22.628906 34.484375 22.503906 34.113281 C 22.503906 33.746094 22.628906 33.5 22.875 33.375 C 23.125 33.253906 23.496094 33.375 23.617188 33.746094 C 23.988281 34.113281 23.867188 34.484375 23.371094 34.605469 Z M 22.628906 37.5625 C 22.875 37.5625 23.246094 37.808594 23.246094 38.054688 C 23.371094 38.421875 23 38.667969 22.628906 38.792969 C 22.132812 38.792969 21.886719 38.421875 22.011719 38.175781 C 22.011719 37.808594 22.382812 37.5625 22.628906 37.5625 Z M 21.390625 34.730469 C 21.023438 34.605469 20.898438 34.113281 21.023438 33.867188 C 21.269531 33.621094 21.515625 33.5 21.761719 33.5 C 22.011719 33.621094 22.132812 33.867188 22.132812 34.238281 C 22.132812 34.605469 21.761719 34.851562 21.390625 34.730469 Z M 21.269531 37.316406 C 21.515625 37.4375 21.640625 37.808594 21.515625 38.175781 C 21.390625 38.546875 21.023438 38.667969 20.652344 38.421875 C 20.28125 38.175781 20.15625 37.808594 20.402344 37.5625 C 20.652344 37.191406 21.023438 37.070312 21.269531 37.316406 Z M 20.652344 33.621094 C 20.402344 33.867188 20.03125 33.867188 19.785156 33.621094 C 19.539062 33.375 19.660156 32.882812 19.910156 32.761719 C 20.15625 32.515625 20.527344 32.636719 20.773438 32.882812 C 20.898438 33.007812 20.898438 33.253906 20.652344 33.621094 Z M 17.1875 31.53125 C 17.558594 31.40625 17.929688 31.652344 17.929688 31.898438 C 18.054688 32.269531 17.804688 32.636719 17.558594 32.761719 C 17.1875 32.882812 16.816406 32.636719 16.695312 32.390625 C 16.570312 32.023438 16.816406 31.652344 17.1875 31.53125 Z M 16.199219 30.667969 C 16.074219 30.296875 16.324219 29.929688 16.695312 29.929688 C 17.066406 29.804688 17.3125 30.050781 17.433594 30.421875 C 17.558594 30.792969 17.3125 31.160156 16.941406 31.160156 C 16.695312 31.160156 16.324219 30.914062 16.199219 30.667969 Z M 17.683594 33.128906 C 18.054688 33.007812 18.425781 33.128906 18.546875 33.5 C 18.671875 33.867188 18.546875 34.238281 18.175781 34.359375 C 17.804688 34.484375 17.433594 34.359375 17.3125 33.992188 C 17.1875 33.621094 17.3125 33.253906 17.683594 33.128906 Z M 18.300781 34.730469 C 18.671875 34.605469 19.042969 34.730469 19.167969 34.976562 C 19.289062 35.222656 19.289062 35.589844 18.917969 35.835938 C 18.671875 36.082031 18.175781 35.960938 18.054688 35.589844 C 17.929688 35.222656 18.054688 34.851562 18.300781 34.730469 Z M 19.289062 36.207031 C 19.539062 35.960938 19.910156 36.082031 20.15625 36.328125 C 20.402344 36.574219 20.402344 36.945312 20.15625 37.191406 C 19.910156 37.4375 19.539062 37.4375 19.289062 37.191406 C 18.917969 36.824219 18.917969 36.453125 19.289062 36.207031 Z M 19.660156 32.269531 C 19.414062 32.390625 18.917969 32.269531 18.796875 32.023438 C 18.671875 31.652344 18.796875 31.285156 19.167969 31.160156 C 19.539062 31.039062 19.910156 31.160156 20.03125 31.40625 C 20.15625 31.652344 20.03125 32.023438 19.660156 32.269531 Z M 19.042969 30.667969 C 18.671875 30.792969 18.300781 30.667969 18.175781 30.296875 C 18.054688 29.929688 18.300781 29.558594 18.546875 29.558594 C 18.917969 29.4375 19.167969 29.683594 19.289062 29.929688 C 19.539062 30.296875 19.289062 30.546875 19.042969 30.667969 Z M 18.425781 29.191406 C 18.054688 29.3125 17.683594 29.066406 17.683594 28.699219 C 17.558594 28.328125 17.804688 27.960938 18.175781 27.960938 C 18.546875 27.835938 18.917969 28.082031 18.917969 28.453125 C 19.042969 28.699219 18.796875 29.066406 18.425781 29.191406 Z M 18.054688 27.46875 C 17.683594 27.589844 17.3125 27.34375 17.3125 26.976562 C 17.1875 26.605469 17.433594 26.359375 17.804688 26.238281 C 18.175781 26.238281 18.425781 26.359375 18.546875 26.730469 C 18.671875 27.097656 18.425781 27.46875 18.054688 27.46875 Z M 17.804688 25.867188 C 17.433594 25.867188 17.1875 25.746094 17.066406 25.375 C 17.066406 25.007812 17.3125 24.761719 17.558594 24.636719 C 17.929688 24.636719 18.175781 24.761719 18.300781 25.128906 C 18.300781 25.5 18.054688 25.867188 17.804688 25.867188 Z M 17.066406 28.699219 C 17.1875 29.066406 16.941406 29.4375 16.570312 29.4375 C 16.199219 29.558594 15.828125 29.3125 15.828125 28.945312 C 15.703125 28.574219 15.953125 28.207031 16.324219 28.207031 C 16.695312 28.082031 16.941406 28.328125 17.066406 28.699219 Z M 28.195312 29.683594 C 28.566406 29.683594 28.8125 30.050781 28.6875 30.421875 C 28.6875 30.792969 28.316406 31.039062 27.945312 30.914062 C 27.574219 30.914062 27.328125 30.546875 27.453125 30.175781 C 27.453125 29.929688 27.824219 29.683594 28.195312 29.683594 Z M 27.574219 28.574219 C 27.574219 28.207031 27.945312 27.960938 28.195312 27.960938 C 28.566406 27.960938 28.8125 28.328125 28.8125 28.699219 C 28.8125 29.066406 28.441406 29.3125 28.070312 29.3125 C 27.824219 29.3125 27.574219 28.945312 27.574219 28.574219 Z M 28.316406 27.589844 C 27.945312 27.589844 27.699219 27.34375 27.699219 26.976562 C 27.699219 26.605469 27.945312 26.359375 28.316406 26.359375 C 28.6875 26.359375 28.933594 26.605469 28.933594 26.976562 C 28.933594 27.34375 28.6875 27.589844 28.316406 27.589844 Z M 28.316406 25.867188 C 27.945312 25.867188 27.699219 25.621094 27.699219 25.253906 C 27.699219 24.882812 27.945312 24.636719 28.316406 24.636719 C 28.6875 24.636719 28.933594 24.882812 28.933594 25.253906 C 28.933594 25.5 28.6875 25.867188 28.316406 25.867188 Z M 28.316406 24.144531 C 27.945312 24.144531 27.699219 23.898438 27.699219 23.527344 C 27.699219 23.160156 27.945312 22.914062 28.316406 22.914062 C 28.6875 22.914062 28.933594 23.160156 28.933594 23.527344 C 28.933594 23.773438 28.6875 24.144531 28.316406 24.144531 Z M 28.195312 22.421875 C 27.824219 22.421875 27.574219 22.175781 27.453125 21.804688 C 27.453125 21.4375 27.699219 21.191406 28.070312 21.066406 C 28.441406 21.066406 28.6875 21.3125 28.8125 21.683594 C 28.8125 22.050781 28.566406 22.421875 28.195312 22.421875 Z M 27.824219 19.46875 C 28.195312 19.46875 28.441406 19.714844 28.566406 20.082031 C 28.566406 20.453125 28.316406 20.699219 27.945312 20.820312 C 27.574219 20.820312 27.328125 20.574219 27.203125 20.207031 C 27.328125 19.835938 27.574219 19.589844 27.824219 19.46875 Z M 27.203125 31.898438 C 27.328125 31.53125 27.574219 31.285156 27.945312 31.40625 C 28.316406 31.40625 28.566406 31.777344 28.441406 32.144531 C 28.316406 32.515625 28.070312 32.761719 27.699219 32.636719 C 27.328125 32.636719 27.082031 32.269531 27.203125 31.898438 Z M 26.460938 25.746094 C 26.089844 25.746094 25.84375 25.5 25.84375 25.128906 C 25.84375 24.761719 26.089844 24.515625 26.460938 24.515625 C 26.832031 24.515625 27.082031 24.761719 27.082031 25.128906 C 27.082031 25.5 26.832031 25.746094 26.460938 25.746094 Z M 27.082031 26.851562 C 27.082031 27.222656 26.710938 27.46875 26.339844 27.46875 C 25.96875 27.46875 25.71875 27.097656 25.71875 26.851562 C 25.71875 26.484375 26.089844 26.238281 26.339844 26.238281 C 26.585938 26.238281 27.082031 26.484375 27.082031 26.851562 Z M 26.460938 24.144531 C 26.089844 24.144531 25.84375 23.898438 25.84375 23.527344 C 25.84375 23.160156 26.089844 22.914062 26.460938 22.914062 C 26.832031 22.914062 27.082031 23.160156 27.082031 23.527344 C 27.082031 23.773438 26.832031 24.019531 26.460938 24.144531 Z M 26.460938 22.421875 C 26.089844 22.421875 25.84375 22.175781 25.84375 21.804688 C 25.84375 21.4375 26.089844 21.191406 26.460938 21.191406 C 26.832031 21.191406 27.082031 21.4375 27.082031 21.804688 C 27.082031 22.050781 26.832031 22.421875 26.460938 22.421875 Z M 26.214844 19.46875 C 26.585938 19.46875 26.832031 19.714844 26.957031 19.960938 C 26.957031 20.328125 26.710938 20.574219 26.339844 20.699219 C 25.96875 20.699219 25.71875 20.453125 25.597656 20.207031 C 25.597656 19.835938 25.84375 19.589844 26.214844 19.46875 Z M 26.339844 27.835938 C 26.710938 27.835938 26.957031 28.207031 26.832031 28.574219 C 26.832031 28.945312 26.460938 29.191406 26.089844 29.066406 C 25.71875 29.066406 25.472656 28.699219 25.597656 28.328125 C 25.71875 28.082031 25.96875 27.835938 26.339844 27.835938 Z M 24.855469 24.019531 C 24.484375 24.019531 24.238281 23.773438 24.238281 23.40625 C 24.238281 23.035156 24.484375 22.789062 24.855469 22.789062 C 25.226562 22.789062 25.472656 23.035156 25.472656 23.40625 C 25.472656 23.773438 25.101562 24.019531 24.855469 24.019531 Z M 24.855469 22.421875 C 24.484375 22.421875 24.238281 22.175781 24.238281 21.804688 C 24.238281 21.4375 24.484375 21.191406 24.855469 21.191406 C 25.226562 21.191406 25.472656 21.4375 25.472656 21.804688 C 25.472656 22.050781 25.101562 22.296875 24.855469 22.421875 Z M 24.609375 19.34375 C 24.976562 19.34375 25.226562 19.589844 25.347656 19.960938 C 25.347656 20.328125 25.101562 20.574219 24.730469 20.574219 C 24.359375 20.574219 24.113281 20.328125 24.113281 19.960938 C 23.988281 19.714844 24.359375 19.46875 24.609375 19.34375 Z M 24.609375 26.238281 C 24.976562 26.238281 25.226562 26.605469 25.101562 26.976562 C 25.101562 27.34375 24.730469 27.589844 24.359375 27.46875 C 23.988281 27.34375 23.742188 27.097656 23.867188 26.730469 C 23.988281 26.484375 24.359375 26.238281 24.609375 26.238281 Z M 23.617188 28.328125 C 23.742188 27.960938 23.988281 27.835938 24.359375 27.835938 C 24.730469 27.960938 24.976562 28.207031 24.855469 28.574219 C 24.730469 28.945312 24.359375 29.191406 23.988281 28.945312 C 23.742188 28.945312 23.496094 28.699219 23.617188 28.328125 Z M 23 29.683594 C 23.125 29.4375 23.496094 29.3125 23.867188 29.4375 C 24.238281 29.558594 24.359375 29.929688 24.113281 30.296875 C 23.867188 30.667969 23.371094 30.667969 23.125 30.421875 C 22.875 30.296875 22.875 29.929688 23 29.683594 Z M 21.515625 30.914062 C 21.761719 30.667969 22.011719 30.421875 22.132812 30.421875 C 22.257812 30.421875 22.628906 30.546875 22.753906 30.914062 C 22.875 31.160156 22.753906 31.652344 22.257812 31.777344 C 21.640625 31.652344 21.390625 31.160156 21.515625 30.914062 Z M 21.269531 29.804688 C 21.390625 30.050781 21.390625 30.421875 21.144531 30.667969 C 20.898438 30.914062 20.402344 30.914062 20.15625 30.546875 C 19.910156 30.175781 20.03125 29.804688 20.402344 29.683594 C 20.773438 29.4375 21.144531 29.558594 21.269531 29.804688 Z M 20.652344 28.453125 C 20.773438 28.699219 20.652344 29.066406 20.28125 29.191406 C 19.910156 29.3125 19.539062 29.191406 19.414062 28.820312 C 19.289062 28.453125 19.539062 28.082031 19.785156 27.960938 C 20.28125 27.960938 20.527344 28.082031 20.652344 28.453125 Z M 20.28125 26.851562 C 20.402344 27.222656 20.15625 27.46875 19.785156 27.589844 C 19.414062 27.714844 19.042969 27.46875 19.042969 27.097656 C 18.917969 26.730469 19.167969 26.359375 19.539062 26.359375 C 19.910156 26.238281 20.15625 26.484375 20.28125 26.851562 Z M 19.414062 25.867188 C 19.042969 25.992188 18.796875 25.746094 18.671875 25.375 C 18.671875 25.007812 18.796875 24.761719 19.167969 24.636719 C 19.539062 24.636719 19.785156 24.882812 19.910156 25.128906 C 20.03125 25.5 19.785156 25.867188 19.414062 25.867188 Z M 19.167969 24.144531 C 18.796875 24.144531 18.546875 23.898438 18.425781 23.527344 C 18.425781 23.160156 18.671875 22.914062 19.042969 22.789062 C 19.414062 22.789062 19.660156 23.035156 19.785156 23.40625 C 19.785156 23.898438 19.539062 24.144531 19.167969 24.144531 Z M 19.539062 21.804688 C 19.539062 22.175781 19.289062 22.421875 18.917969 22.542969 C 18.546875 22.542969 18.300781 22.296875 18.175781 21.929688 C 18.175781 21.558594 18.425781 21.3125 18.796875 21.191406 C 19.167969 21.066406 19.539062 21.4375 19.539062 21.804688 Z M 18.796875 19.589844 C 19.167969 19.589844 19.414062 19.835938 19.414062 20.207031 C 19.414062 20.574219 19.167969 20.820312 18.796875 20.820312 C 18.425781 20.820312 18.175781 20.574219 18.175781 20.207031 C 18.175781 19.835938 18.425781 19.589844 18.796875 19.589844 Z M 18.054688 23.527344 C 18.054688 23.898438 17.804688 24.144531 17.558594 24.269531 C 17.1875 24.269531 16.941406 24.019531 16.816406 23.773438 C 16.816406 23.40625 17.066406 23.160156 17.433594 23.035156 C 17.683594 22.914062 18.054688 23.160156 18.054688 23.527344 Z M 17.3125 22.542969 C 16.941406 22.542969 16.695312 22.296875 16.570312 21.929688 C 16.570312 21.558594 16.816406 21.3125 17.1875 21.3125 C 17.558594 21.3125 17.804688 21.558594 17.929688 21.929688 C 17.929688 22.175781 17.683594 22.542969 17.3125 22.542969 Z M 17.066406 19.714844 C 17.433594 19.714844 17.683594 19.960938 17.683594 20.328125 C 17.683594 20.699219 17.433594 20.945312 17.066406 20.945312 C 16.695312 20.945312 16.445312 20.699219 16.445312 20.328125 C 16.445312 19.960938 16.695312 19.714844 17.066406 19.714844 Z M 16.695312 26.976562 C 16.695312 27.34375 16.570312 27.589844 16.199219 27.714844 C 15.828125 27.835938 15.582031 27.589844 15.457031 27.222656 C 15.457031 26.851562 15.582031 26.484375 15.953125 26.484375 C 16.324219 26.359375 16.695312 26.605469 16.695312 26.976562 Z M 15.953125 25.992188 C 15.582031 25.992188 15.332031 25.746094 15.210938 25.5 C 15.210938 25.128906 15.457031 24.761719 15.703125 24.761719 C 16.074219 24.761719 16.324219 25.007812 16.445312 25.253906 C 16.445312 25.621094 16.324219 25.992188 15.953125 25.992188 Z M 15.703125 24.269531 C 15.332031 24.269531 15.085938 24.019531 14.960938 23.652344 C 14.960938 23.28125 15.210938 23.035156 15.457031 22.914062 C 15.828125 22.914062 16.074219 23.160156 16.199219 23.527344 C 16.324219 23.898438 16.074219 24.269531 15.703125 24.269531 Z M 15.457031 22.542969 C 15.085938 22.542969 14.839844 22.296875 14.714844 21.929688 C 14.714844 21.558594 14.960938 21.3125 15.332031 21.191406 C 15.703125 21.191406 15.953125 21.4375 16.074219 21.804688 C 16.074219 22.296875 15.828125 22.542969 15.457031 22.542969 Z M 15.210938 19.589844 C 15.582031 19.589844 15.828125 19.835938 15.828125 20.207031 C 15.828125 20.574219 15.582031 20.820312 15.210938 20.945312 C 14.839844 20.945312 14.589844 20.699219 14.589844 20.328125 C 14.589844 19.960938 14.839844 19.589844 15.210938 19.589844 Z M 7.542969 34.484375 C 7.296875 33.746094 7.542969 32.882812 8.160156 32.390625 C 9.523438 31.039062 11.128906 29.066406 12.367188 27.589844 C 12.859375 31.039062 13.726562 36.082031 15.210938 43.59375 C 15.210938 43.59375 14.46875 44.453125 13.476562 46.421875 C 13.355469 46.300781 13.230469 46.054688 13.109375 46.054688 C 12.984375 45.929688 12.859375 45.808594 12.738281 45.683594 C 9.152344 39.160156 7.914062 35.960938 7.542969 34.484375 Z M 33.882812 69.933594 L 11.746094 69.933594 C 11.746094 69.316406 11.625 68.703125 11.625 68.085938 L 34.128906 68.085938 C 34.003906 68.703125 34.003906 69.316406 33.882812 69.933594 Z M 34.253906 65.253906 C 34.253906 65.746094 34.253906 66.117188 34.253906 66.609375 L 11.625 66.609375 C 11.625 66.117188 11.625 65.746094 11.625 65.253906 C 11.625 64.640625 11.625 64.023438 11.625 63.53125 L 34.5 63.53125 C 34.253906 64.148438 34.253906 64.640625 34.253906 65.253906 Z M 34.003906 45.929688 C 33.882812 46.054688 33.261719 46.667969 32.523438 47.40625 C 31.902344 46.054688 31.160156 44.824219 30.296875 43.59375 C 30.296875 43.59375 31.039062 32.636719 31.53125 27.589844 C 33.386719 29.066406 38.085938 32.761719 38.085938 33.5 C 37.960938 35.960938 37.097656 42.730469 34.003906 45.929688 Z M 34.003906 45.929688 "/>
<path style=" stroke:none;fill-rule:nonzero;fill:rgb(0%,0%,0%);fill-opacity:1;" d="M 23.246094 0.636719 C 18.917969 -0.472656 13.847656 1.742188 13.847656 6.914062 C 13.847656 8.636719 14.46875 10.359375 15.582031 11.714844 C 16.074219 7.28125 18.425781 3.097656 23.246094 0.636719 Z M 23.246094 0.636719 "/>
<path style=" stroke:none;fill-rule:nonzero;fill:rgb(0%,0%,0%);fill-opacity:1;" d="M 12.242188 74.117188 C 13.109375 80.148438 14.839844 87.78125 17.683594 97.503906 L 27.945312 97.503906 C 30.789062 87.78125 32.523438 80.148438 33.386719 74.117188 Z M 12.242188 74.117188 "/>
</g>
</svg>
