<?xml version="1.0" encoding="UTF-8"?>
<svg xmlns="http://www.w3.org/2000/svg" xmlns:xlink="http://www.w3.org/1999/xlink" width="47px" height="100px" viewBox="0 0 47 100" version="1.1">
<g id="surface1">
<path style=" stroke:none;fill-rule:evenodd;fill:rgb(8.235294%,9.019608%,9.411765%);fill-opacity:1;" d="M 41.847656 59.894531 C 36.570312 52.753906 28.652344 49.625 19.980469 49.625 C 17.96875 49.75 16.085938 50.25 14.199219 51 C 7.414062 53.882812 1.382812 62.273438 0.503906 69.410156 C -0.628906 77.550781 0.125 86.066406 5.78125 92.578125 C 17.46875 105.976562 40.589844 98.589844 45.867188 82.933594 C 48.507812 75.296875 46.621094 66.40625 41.847656 59.894531 Z M 43.859375 83.9375 C 41.09375 91.449219 32.925781 96.710938 25.132812 97.710938 C 16.460938 98.714844 9.171875 95.457031 4.523438 88.070312 C -3.644531 75.171875 4.019531 52.753906 20.234375 51.128906 C 28.777344 51.128906 35.5625 54.382812 40.84375 61.019531 C 45.867188 67.40625 46.621094 76.546875 43.859375 83.9375 Z M 18.222656 52.003906 C 10.179688 53.257812 4.273438 62.023438 2.511719 69.410156 C 0.753906 77.050781 2.511719 86.191406 8.167969 91.828125 C 14.328125 97.960938 23.5 98.589844 31.292969 95.332031 C 37.828125 92.578125 43.230469 87.191406 44.488281 80.179688 C 45.742188 73.167969 44.109375 66.28125 39.835938 60.519531 C 34.558594 54.257812 26.515625 50.75 18.222656 52.003906 Z M 23.878906 7.921875 C 25.886719 7.921875 27.648438 6.296875 27.648438 4.167969 C 27.648438 1.914062 25.886719 0.785156 23.878906 0.410156 C 21.867188 0.660156 20.105469 1.914062 20.105469 4.167969 C 19.980469 6.296875 21.742188 7.921875 23.878906 7.921875 Z M 24.128906 3.164062 C 24.253906 1.914062 24.757812 2.164062 25.886719 2.164062 C 25.761719 2.539062 25.761719 2.414062 25.257812 2.539062 C 24.253906 2.664062 24.378906 2.664062 24.253906 3.664062 C 24.378906 3.664062 25.761719 3.289062 25.636719 3.664062 C 25.386719 4.292969 24.003906 3.289062 24.253906 4.542969 C 23.878906 4.792969 24.128906 3.539062 24.128906 3.164062 Z M 25.511719 5.542969 C 26.265625 5.667969 25.007812 6.171875 24.757812 6.171875 C 24.003906 6.421875 23.121094 6.421875 22.367188 6.296875 C 22.117188 5.792969 22.996094 6.042969 23.375 6.042969 C 24.003906 6.042969 25.132812 5.542969 25.511719 5.542969 Z M 21.867188 3.039062 C 21.742188 1.914062 23.625 4.667969 21.867188 3.039062 Z M 23.25 2.039062 C 24.128906 2.039062 23.75 2.664062 23.75 3.414062 C 23.625 6.171875 23.5 3.539062 23.5 2.414062 C 22.871094 2.414062 22.367188 2.414062 21.742188 2.414062 C 21.488281 1.914062 22.746094 2.039062 23.25 2.039062 Z M 19.730469 36.726562 C 18.851562 36.226562 17.96875 35.722656 17.214844 35.222656 C 17.34375 36.351562 17.59375 37.476562 17.71875 38.605469 C 18.347656 37.976562 18.976562 37.351562 19.730469 36.726562 Z M 16.964844 32.59375 C 16.589844 33.09375 16.085938 33.46875 15.707031 33.972656 C 16.335938 34.347656 16.964844 34.722656 17.59375 35.097656 C 17.34375 34.347656 17.089844 33.46875 16.964844 32.59375 Z M 14.328125 37.601562 C 15.332031 37.976562 16.335938 38.355469 17.34375 38.730469 C 17.214844 37.601562 16.964844 36.476562 16.839844 35.222656 C 15.960938 35.972656 15.082031 36.851562 14.328125 37.601562 Z M 20.988281 31.589844 C 21.867188 31.089844 22.746094 30.714844 23.625 30.214844 C 23.25 29.964844 21.363281 28.585938 21.113281 28.710938 C 20.609375 29.085938 20.988281 30.964844 20.988281 31.589844 Z M 20.609375 29.085938 C 20.105469 29.460938 19.605469 29.964844 19.101562 30.339844 C 19.605469 30.589844 20.105469 30.964844 20.609375 31.339844 C 20.609375 30.714844 20.609375 29.964844 20.609375 29.085938 Z M 13.949219 37.476562 C 14.828125 36.601562 15.707031 35.722656 16.589844 34.972656 C 15.582031 34.472656 15.457031 34.097656 14.828125 35.097656 C 14.328125 35.847656 13.949219 36.601562 13.570312 37.351562 C 13.824219 37.351562 13.949219 37.476562 13.949219 37.476562 Z M 17.84375 41.734375 C 17.46875 40.859375 17.089844 39.855469 16.714844 38.980469 C 15.835938 39.605469 14.953125 40.230469 14.199219 40.859375 C 15.457031 41.109375 16.714844 41.359375 17.84375 41.734375 Z M 18.851562 30.964844 C 18.472656 30.964844 17.46875 32.09375 17.214844 32.34375 C 17.46875 33.34375 17.71875 34.347656 17.96875 35.347656 C 18.851562 34.222656 19.730469 33.21875 20.484375 32.09375 C 20.234375 31.84375 19.226562 30.839844 18.851562 30.964844 Z M 22.367188 27.710938 C 22.871094 27.585938 23.375 27.585938 23.878906 27.457031 C 23.25 26.832031 22.871094 27.332031 22.367188 27.710938 Z M 12.691406 40.355469 C 13.070312 40.484375 13.445312 40.609375 13.949219 40.609375 C 14.828125 39.980469 15.707031 39.355469 16.589844 38.730469 C 15.582031 38.355469 14.578125 37.976562 13.570312 37.601562 C 13.195312 38.605469 12.945312 39.480469 12.691406 40.355469 Z M 32.800781 41.859375 C 32.925781 42.613281 32.925781 43.488281 32.800781 44.363281 C 33.679688 44.238281 35.4375 44.363281 35.4375 43.363281 C 35.5625 42.484375 33.554688 42.109375 32.800781 41.859375 Z M 19.351562 23.453125 C 18.851562 23.328125 17.34375 24.328125 16.839844 24.578125 C 15.835938 24.953125 14.953125 25.457031 13.949219 25.832031 C 14.953125 27.332031 16.460938 28.460938 17.84375 29.585938 C 19.101562 30.464844 18.851562 30.464844 19.980469 29.460938 C 20.988281 28.710938 21.867188 27.835938 22.871094 27.082031 C 22.117188 26.582031 21.363281 26.082031 20.734375 25.328125 C 20.484375 24.828125 19.605469 23.453125 19.351562 23.453125 Z M 34.433594 52.378906 C 35.0625 49.625 35.691406 46.996094 35.4375 44.113281 C 33.300781 44.488281 31.164062 44.867188 28.902344 45.242188 C 28.902344 46.117188 28.277344 49.875 29.15625 50.125 C 31.039062 50.75 32.800781 51.503906 34.433594 52.378906 Z M 20.859375 7.796875 C 21.742188 9.050781 22.746094 10.175781 23.625 11.429688 C 24.632812 10.175781 25.636719 9.050781 26.515625 7.796875 C 25.761719 7.671875 24.632812 8.550781 23.75 8.550781 C 22.871094 8.550781 21.742188 7.671875 20.859375 7.796875 Z M 29.03125 42.109375 C 30.035156 41.859375 30.914062 41.734375 31.917969 41.609375 C 30.789062 41.234375 29.53125 40.859375 28.402344 40.484375 C 28.527344 40.859375 28.652344 42.109375 29.03125 42.109375 Z M 24.128906 30.089844 C 25.257812 30.089844 26.390625 29.964844 27.648438 29.964844 C 26.515625 29.210938 25.511719 28.460938 24.378906 27.835938 C 24.253906 28.585938 24.128906 29.335938 24.128906 30.089844 Z M 13.699219 25.328125 C 13.824219 25.582031 14.703125 24.953125 14.953125 24.953125 C 16.335938 24.328125 17.71875 23.703125 19.226562 23.199219 C 17.59375 19.695312 18.472656 12.179688 23.878906 12.558594 C 26.894531 12.304688 28.902344 15.5625 29.28125 18.191406 C 29.40625 18.566406 29.03125 22.824219 28.777344 22.699219 C 30.410156 23.828125 32.046875 24.828125 33.679688 25.957031 C 35.941406 22.699219 36.570312 18.566406 35.4375 14.8125 C 34.808594 12.683594 33.429688 11.054688 31.542969 9.925781 C 30.664062 9.300781 29.785156 8.925781 28.777344 8.550781 C 27.519531 8.046875 27.144531 7.921875 26.265625 9.050781 C 29.28125 10.050781 32.046875 11.304688 33.554688 14.308594 C 34.183594 15.6875 34.433594 17.191406 34.433594 18.691406 C 34.433594 19.445312 34.183594 20.195312 34.433594 20.945312 C 34.558594 21.199219 34.433594 22.199219 34.308594 21.574219 C 33.929688 20.195312 34.308594 18.691406 34.183594 17.316406 C 34.054688 15.8125 33.429688 14.308594 32.421875 13.058594 C 31.292969 11.679688 30.160156 10.804688 28.902344 10.175781 C 28.148438 9.800781 27.394531 9.550781 26.640625 9.300781 C 25.636719 9.050781 25.511719 9.675781 24.882812 10.429688 C 28.652344 12.054688 31.792969 14.308594 32.046875 18.691406 C 32.171875 19.820312 31.667969 20.320312 31.164062 21.324219 C 30.664062 22.449219 31.164062 20.570312 31.417969 20.195312 C 32.296875 18.566406 31.417969 16.4375 30.539062 14.9375 C 29.65625 13.308594 27.648438 12.054688 26.011719 11.304688 C 25.761719 11.179688 24.882812 10.679688 24.632812 10.679688 C 24.378906 10.804688 24.128906 11.679688 23.878906 11.679688 C 22.871094 11.804688 23.375 10.175781 22.117188 10.929688 C 18.472656 13.058594 17.46875 17.316406 17.46875 21.199219 C 17.46875 21.699219 17.59375 22.199219 17.34375 22.574219 C 16.839844 22.074219 17.214844 20.195312 17.214844 19.570312 C 17.34375 18.316406 17.59375 17.066406 17.96875 15.9375 C 18.597656 13.558594 20.484375 11.554688 22.621094 10.429688 C 21.992188 9.675781 22.117188 9.425781 21.238281 9.925781 C 20.734375 10.175781 20.105469 10.554688 19.730469 10.929688 C 18.597656 11.929688 17.59375 12.933594 16.714844 14.308594 C 16.085938 15.4375 15.835938 16.5625 15.582031 17.816406 C 15.332031 18.816406 15.707031 20.570312 14.453125 21.070312 C 13.949219 21.324219 14.328125 20.820312 14.453125 20.695312 C 15.082031 20.070312 15.082031 19.820312 15.207031 18.941406 C 15.332031 17.566406 15.707031 16.3125 16.210938 15.0625 C 17.214844 12.558594 19.480469 10.554688 21.867188 9.300781 C 20.859375 8.046875 20.734375 7.921875 19.226562 8.550781 C 17.96875 9.050781 16.839844 9.550781 15.707031 10.429688 C 13.699219 12.054688 12.316406 14.183594 12.191406 16.816406 C 12.0625 19.070312 11.9375 21.699219 13.070312 23.828125 C 13.070312 24.203125 13.320312 24.828125 13.699219 25.328125 Z M 33.679688 22.324219 C 33.300781 22.949219 33.300781 20.570312 33.300781 20.320312 C 33.804688 20.195312 33.804688 21.949219 33.679688 22.324219 Z M 32.800781 20.570312 C 33.429688 20.070312 32.925781 22.199219 32.925781 22.574219 C 32.925781 22.824219 32.546875 22.824219 32.671875 22.574219 C 32.671875 21.949219 32.671875 21.324219 32.800781 20.570312 Z M 32.171875 20.070312 C 32.671875 19.945312 32.421875 22.324219 32.046875 22.699219 C 31.542969 23.199219 32.171875 20.445312 32.171875 20.070312 Z M 16.460938 20.695312 C 17.089844 20.445312 16.714844 22.699219 16.589844 22.824219 C 15.960938 23.199219 16.460938 20.945312 16.460938 20.695312 Z M 15.707031 20.570312 C 16.210938 20.445312 15.707031 22.324219 15.457031 22.574219 C 15.082031 23.199219 15.707031 20.820312 15.707031 20.570312 Z M 15.082031 20.195312 C 15.707031 19.945312 15.207031 21.949219 14.953125 22.074219 C 14.328125 22.574219 15.082031 20.570312 15.082031 20.195312 Z M 26.765625 36.726562 C 26.765625 35.472656 26.894531 34.347656 26.894531 33.09375 C 25.886719 33.34375 24.882812 33.71875 24.003906 33.972656 C 24.882812 34.722656 25.761719 35.847656 26.765625 36.726562 Z M 28.402344 40.105469 C 29.28125 40.734375 30.410156 37.976562 30.789062 37.351562 C 29.40625 37.226562 28.148438 37.101562 26.765625 36.976562 C 27.144531 37.476562 27.394531 37.851562 27.648438 38.480469 C 27.773438 38.730469 28.148438 39.980469 28.402344 40.105469 Z M 21.238281 36.601562 C 21.113281 35.222656 20.859375 33.84375 20.734375 32.46875 C 19.855469 33.46875 18.976562 34.472656 18.222656 35.597656 C 19.101562 36.101562 19.980469 36.726562 20.859375 37.226562 C 20.859375 36.851562 21.113281 36.726562 21.238281 36.601562 Z M 27.269531 32.71875 C 28.527344 32.84375 29.785156 32.84375 31.039062 32.96875 C 30.160156 31.96875 29.15625 31.089844 28.023438 30.339844 C 27.773438 31.089844 27.519531 31.84375 27.269531 32.71875 Z M 27.019531 32.46875 C 27.269531 31.714844 27.519531 30.964844 27.773438 30.339844 C 26.640625 30.339844 25.511719 30.464844 24.378906 30.464844 C 25.386719 31.089844 26.140625 31.714844 27.019531 32.46875 Z M 31.292969 37.351562 C 31.917969 38.605469 32.421875 39.730469 32.671875 41.109375 C 33.300781 40.230469 33.804688 39.230469 34.433594 38.355469 C 34.308594 37.351562 32.171875 37.476562 31.292969 37.351562 Z M 31.164062 33.21875 C 30.035156 33.21875 28.902344 33.09375 27.648438 33.09375 C 28.902344 34.222656 29.910156 35.347656 30.789062 36.851562 C 30.914062 35.597656 31.039062 34.347656 31.164062 33.21875 Z M 33.050781 41.359375 C 33.804688 41.234375 34.433594 41.109375 35.1875 40.984375 C 35.0625 40.230469 34.808594 39.605469 34.683594 38.980469 C 34.054688 39.730469 33.554688 40.484375 33.050781 41.359375 Z M 35.4375 42.613281 C 35.4375 42.359375 35.3125 41.234375 35.1875 41.234375 C 34.558594 41.359375 33.804688 41.484375 33.175781 41.609375 C 33.929688 41.859375 34.683594 42.234375 35.4375 42.613281 Z M 31.164062 36.851562 C 31.164062 37.226562 33.554688 37.351562 34.054688 37.476562 C 33.429688 35.972656 32.546875 34.597656 31.542969 33.34375 C 31.417969 34.472656 31.292969 35.722656 31.164062 36.851562 Z M 29.03125 44.613281 C 30.035156 43.613281 31.164062 42.738281 32.171875 41.734375 C 31.039062 41.984375 29.910156 42.234375 28.777344 42.359375 C 28.902344 43.113281 29.03125 43.863281 29.03125 44.613281 Z M 24.003906 30.589844 C 23.878906 31.589844 23.878906 32.59375 23.878906 33.59375 C 24.882812 33.34375 26.011719 32.96875 27.019531 32.71875 C 26.011719 31.96875 25.007812 31.214844 24.003906 30.589844 Z M 32.546875 41.984375 C 31.417969 42.988281 30.285156 43.988281 29.15625 44.992188 C 30.285156 44.742188 31.417969 44.613281 32.421875 44.363281 C 32.800781 44.363281 32.546875 42.234375 32.546875 41.984375 Z M 32.421875 41.359375 C 32.046875 39.980469 31.542969 38.730469 30.914062 37.476562 C 30.285156 38.480469 29.785156 39.480469 29.15625 40.355469 C 30.285156 40.734375 31.417969 40.984375 32.421875 41.359375 Z M 27.144531 32.96875 C 27.019531 34.222656 27.019531 35.472656 27.019531 36.726562 C 28.277344 36.851562 29.53125 36.976562 30.789062 37.101562 C 29.65625 35.472656 28.527344 34.222656 27.144531 32.96875 Z M 24.003906 27.710938 C 23.25 27.835938 22.621094 27.960938 21.867188 28.085938 C 21.742188 28.210938 21.613281 28.335938 21.488281 28.460938 C 22.242188 28.960938 23.121094 29.335938 23.878906 29.964844 C 23.878906 29.210938 23.878906 28.460938 24.003906 27.710938 Z M 18.976562 41.234375 C 18.722656 41.359375 18.597656 41.609375 18.472656 41.734375 C 18.597656 41.734375 18.722656 41.859375 18.851562 41.859375 C 18.976562 41.734375 18.976562 41.484375 18.976562 41.234375 Z M 15.582031 41.359375 C 15.960938 41.859375 16.839844 44.488281 17.46875 44.742188 C 18.472656 44.992188 18.851562 42.863281 18.976562 42.234375 C 17.71875 41.984375 16.589844 41.734375 15.582031 41.359375 Z M 18.722656 43.988281 C 18.472656 44.238281 18.222656 44.488281 17.84375 44.742188 C 18.097656 44.867188 18.472656 44.867188 18.597656 44.742188 C 18.597656 44.488281 18.722656 44.238281 18.722656 43.988281 Z M 16.964844 44.613281 C 16.335938 43.613281 15.835938 42.484375 15.207031 41.484375 C 14.453125 42.484375 13.699219 43.363281 12.945312 44.363281 C 14.328125 44.488281 15.707031 44.613281 16.964844 44.613281 Z M 12.816406 51 C 14.328125 50.25 15.960938 49.625 17.59375 49.25 C 18.851562 49 18.722656 48.871094 18.722656 47.621094 C 18.722656 46.742188 18.597656 45.992188 18.597656 45.117188 C 16.460938 44.992188 14.328125 44.867188 12.0625 44.742188 C 12.191406 46.871094 12.441406 48.871094 12.816406 51 Z M 19.730469 39.105469 C 19.980469 38.480469 20.234375 37.976562 20.609375 37.351562 C 19.605469 36.351562 18.472656 38.230469 17.71875 38.855469 C 18.472656 38.980469 19.351562 39.730469 19.730469 39.105469 Z M 23.75 30.589844 C 22.871094 30.964844 21.992188 31.464844 21.238281 31.84375 C 21.992188 32.34375 22.746094 32.96875 23.5 33.59375 C 23.625 32.46875 23.75 31.589844 23.75 30.589844 Z M 23.375 34.222656 C 22.496094 33.71875 21.742188 32.96875 20.988281 32.46875 C 21.113281 33.71875 21.238281 34.972656 21.363281 36.226562 C 22.117188 35.472656 22.746094 34.847656 23.375 34.222656 Z M 17.214844 38.855469 C 17.59375 39.730469 17.96875 40.734375 18.347656 41.609375 C 18.851562 40.984375 19.351562 40.484375 19.480469 39.730469 C 18.722656 39.480469 17.96875 39.230469 17.214844 38.855469 Z M 12.691406 44.488281 C 13.445312 43.488281 14.328125 42.359375 15.082031 41.359375 C 14.328125 41.109375 13.445312 40.984375 12.691406 40.734375 C 12.441406 41.359375 11.6875 44.488281 12.691406 44.488281 Z M 24.378906 27.207031 C 25.132812 27.710938 25.761719 28.085938 26.515625 28.585938 C 27.019531 28.835938 28.277344 30.214844 28.902344 30.214844 C 29.40625 30.214844 30.914062 28.710938 31.292969 28.335938 C 32.046875 27.710938 32.800781 26.957031 33.429688 26.207031 C 31.792969 25.078125 30.160156 24.078125 28.652344 22.949219 C 27.648438 24.703125 26.140625 26.082031 24.378906 27.207031 Z M 24.378906 27.207031 "/>
</g>
</svg>
