<?xml version="1.0" encoding="UTF-8"?>
<svg xmlns="http://www.w3.org/2000/svg" xmlns:xlink="http://www.w3.org/1999/xlink" width="51px" height="100px" viewBox="0 0 51 100" version="1.1">
<g id="surface1">
<path style=" stroke:none;fill-rule:evenodd;fill:rgb(8.235294%,9.019608%,9.411765%);fill-opacity:1;" d="M 26.890625 99.890625 C 20.332031 94.492188 14.222656 88.433594 9.109375 81.71875 C 6.667969 78.632812 4.332031 75.441406 4.445312 71.363281 C 4.554688 67.289062 5.777344 63.324219 8.109375 59.910156 C 10.445312 56.496094 14.109375 54.183594 17 51.320312 C 18.554688 49.78125 20 48.238281 21.222656 46.367188 C 21.890625 45.375 21.890625 45.484375 23.109375 45.375 C 24.667969 45.265625 26.222656 45.15625 27.777344 45.042969 C 28.667969 44.933594 28.890625 46.035156 29.445312 46.585938 C 30.109375 47.246094 31 47.90625 31.777344 48.457031 C 33.445312 49.667969 35.332031 50.660156 37.109375 51.542969 C 40.445312 53.304688 44.222656 55.285156 46.332031 58.589844 C 48.554688 61.894531 49.222656 66.1875 48.777344 70.152344 C 48.332031 74.007812 45.332031 77.753906 43.222656 80.835938 C 40.777344 84.359375 38.109375 87.773438 35.445312 91.078125 C 33.109375 94.050781 30.222656 97.796875 26.890625 99.890625 M 38.445312 81.277344 C 38.554688 82.488281 38.777344 83.699219 38.890625 84.910156 C 39.890625 83.699219 40.890625 82.488281 41.890625 81.277344 C 40.667969 81.277344 39.554688 81.277344 38.445312 81.277344 M 30.332031 91.519531 C 30.445312 92.839844 30.554688 94.160156 30.667969 95.484375 C 31.777344 94.160156 32.890625 92.839844 34 91.628906 C 32.777344 91.519531 31.554688 91.519531 30.332031 91.519531 M 34.222656 86.5625 C 34.222656 87.882812 34.332031 89.097656 34.332031 90.417969 C 35.445312 89.097656 36.554688 87.773438 37.554688 86.5625 C 36.554688 86.5625 35.445312 86.5625 34.222656 86.5625 M 46.109375 75.660156 C 44.890625 77.09375 43.777344 78.632812 42.554688 80.066406 C 42.554688 78.742188 42.554688 77.3125 42.667969 75.992188 C 42.554688 75.550781 45.554688 75.660156 46.109375 75.660156 M 6.222656 75.109375 C 7.777344 78.304688 9.777344 81.277344 12 83.917969 C 11.890625 82.269531 11.890625 80.617188 11.777344 78.964844 C 10.777344 79.074219 9.777344 79.183594 8.777344 79.292969 C 8.777344 77.972656 8.667969 76.652344 8.667969 75.21875 C 8.667969 74.777344 6.554688 75 6.222656 75.109375 M 12.445312 84.140625 C 15.890625 88.324219 19.554688 92.070312 23.222656 95.925781 C 23.222656 94.492188 23.222656 93.0625 23.109375 91.628906 C 22.109375 91.738281 21.109375 91.960938 20.109375 92.070312 C 20.109375 90.746094 20 89.316406 20 87.996094 C 20 87.882812 16.667969 87.996094 16.332031 87.996094 C 16.332031 86.5625 16.445312 85.132812 16.445312 83.699219 C 15.109375 83.808594 13.777344 83.917969 12.445312 84.140625 M 8.445312 72.578125 C 13.890625 78.742188 18.667969 85.460938 24.445312 91.410156 C 25 91.960938 25.777344 92.949219 26.445312 93.28125 C 27.332031 93.609375 27.777344 92.949219 28.445312 92.289062 C 29.890625 90.859375 31.222656 89.207031 32.445312 87.554688 C 35.109375 84.140625 37.777344 80.835938 40.332031 77.421875 C 41.445312 75.992188 42.554688 74.558594 43.667969 73.015625 C 43.777344 73.015625 44.109375 73.238281 44.109375 73.347656 C 41.667969 76.542969 39.222656 79.734375 36.777344 83.039062 C 35.445312 84.691406 34.109375 86.453125 32.777344 87.996094 C 32 88.875 31.332031 89.757812 30.554688 90.636719 C 30.109375 91.1875 28.667969 92.289062 28.667969 92.949219 C 28.667969 94.273438 28.777344 95.59375 28.777344 96.914062 C 28.777344 97.796875 28.109375 98.125 27.332031 98.566406 C 26.890625 98.898438 26.445312 98.675781 26.109375 98.566406 C 25 98.238281 25 97.464844 25.109375 96.585938 C 25.109375 95.703125 25.667969 93.941406 25.332031 93.171875 C 25 92.398438 23.445312 91.296875 22.777344 90.746094 C 21.332031 89.207031 19.890625 87.554688 18.554688 86.011719 C 15 81.605469 11.667969 77.203125 8 72.90625 C 8.109375 72.796875 8.332031 72.6875 8.445312 72.578125 M 12.554688 70.703125 C 14.667969 71.804688 18.332031 71.476562 20.445312 70.59375 C 18.332031 69.050781 14.554688 69.164062 12.554688 70.703125 M 12.222656 71.914062 C 9.777344 71.035156 12.445312 69.164062 13.777344 68.722656 C 15.777344 68.0625 18 68.390625 20 69.050781 C 20.667969 69.273438 22.667969 70.484375 21.890625 71.035156 C 21.109375 71.585938 20 72.027344 19 72.136719 C 16.890625 72.578125 14.332031 72.6875 12.222656 71.914062 M 31.445312 73.566406 C 29.667969 72.355469 35.445312 70.375 36.222656 70.265625 C 38.554688 69.714844 41.332031 69.601562 43.332031 71.144531 C 42.109375 72.796875 39.777344 73.347656 37.890625 73.898438 C 36.222656 74.339844 32.777344 74.890625 31.445312 73.566406 M 32.667969 72.90625 C 35.222656 73.679688 39.222656 72.6875 41.332031 71.253906 C 39 70.59375 34.445312 71.035156 32.667969 72.90625 M 8.777344 70.375 C 10.667969 67.511719 14.777344 66.738281 18 67.402344 C 19.667969 67.730469 21.332031 68.390625 22.667969 69.382812 C 23.445312 70.042969 25.332031 71.695312 25.222656 72.796875 C 24.890625 77.640625 24.667969 82.488281 24.332031 87.332031 C 24.222656 88.875 27.222656 90.527344 28.332031 89.207031 C 28.777344 88.65625 29.445312 88.214844 29.445312 87.445312 C 29.445312 86.34375 29.445312 85.132812 29.445312 84.03125 C 29.445312 80.835938 29.445312 77.640625 29.445312 74.449219 C 29.445312 73.898438 29.222656 73.015625 29.445312 72.464844 C 29.777344 71.695312 31.109375 70.925781 31.890625 70.484375 C 35.667969 68.0625 40.667969 68.390625 44.667969 69.824219 C 44.109375 70.925781 43.222656 70.265625 42.222656 70.042969 C 41.222656 69.824219 40.332031 69.601562 39.332031 69.492188 C 37.332031 69.382812 35.554688 69.601562 33.667969 70.265625 C 32.445312 70.703125 30 71.804688 30 73.238281 C 30 75.992188 30 78.742188 30 81.496094 C 30 83.699219 30 85.792969 30 87.996094 C 30 88.65625 28.890625 89.425781 28.554688 89.867188 C 28.109375 90.417969 26.445312 89.976562 25.777344 89.976562 C 25.109375 89.976562 24.332031 88.546875 24 88.105469 C 23.667969 87.773438 23.777344 87.445312 23.777344 86.894531 C 23.890625 84.03125 24.109375 81.277344 24.222656 78.414062 C 24.332031 76.542969 25.109375 73.789062 24.222656 72.027344 C 23.332031 70.265625 21.445312 68.941406 19.667969 68.28125 C 17.777344 67.621094 15.667969 67.402344 13.777344 67.949219 C 12.890625 68.171875 11.777344 68.613281 11.109375 69.273438 C 10.222656 70.375 10.109375 70.925781 8.777344 70.375 M 8.332031 65.859375 C 11.222656 62.773438 14.445312 59.800781 18.777344 59.03125 C 22.777344 58.257812 26.332031 61.34375 28.445312 64.207031 C 29.890625 61.453125 31.777344 58.699219 35.109375 58.480469 C 38.332031 58.257812 41.109375 60.023438 43.667969 61.671875 C 41.777344 59.25 39.554688 55.835938 36.445312 54.84375 C 32.445312 53.523438 30 56.277344 28 59.472656 C 26.109375 55.066406 21.109375 53.746094 17 55.835938 C 12.890625 57.820312 10.222656 61.785156 8.332031 65.859375 M 22.109375 44.824219 C 22.332031 44.054688 22.667969 43.28125 22.890625 42.402344 C 23.222656 41.078125 23 40.75 24.445312 40.640625 C 25.890625 40.527344 26 40.417969 26.554688 41.742188 C 27 42.621094 27.445312 43.503906 27.890625 44.382812 C 25.890625 44.605469 24 44.714844 22.109375 44.824219 M 13.890625 52.644531 C 15.445312 51.210938 17.109375 49.667969 18.667969 48.238281 C 19.222656 47.6875 19.890625 47.027344 20.332031 46.476562 C 21.332031 45.265625 21.109375 45.265625 20.109375 44.164062 C 17.222656 40.96875 14.445312 37.664062 12.109375 34.140625 C 10.109375 30.949219 8.222656 27.3125 8.667969 23.457031 C 9.109375 19.605469 11.554688 15.640625 13.667969 12.445312 C 14.777344 10.683594 15.890625 8.921875 17 7.160156 C 17.667969 6.167969 19.777344 3.964844 19.554688 2.753906 C 18.890625 -0.988281 12.332031 5.949219 11.554688 6.71875 C 8.667969 9.472656 6.109375 12.886719 4 16.300781 C 2.109375 19.273438 0 22.796875 0 26.652344 C 0 37.113281 6.222656 45.925781 13.890625 52.644531 M 21.554688 44.714844 C 21.890625 43.832031 22.109375 42.953125 22.332031 42.070312 C 22.667969 40.859375 22.777344 40.75 21.890625 39.867188 C 20.445312 38.546875 19.222656 37.113281 18 35.683594 C 15.554688 32.820312 13.109375 29.40625 12.332031 25.660156 C 11.445312 21.695312 14 18.613281 15.777344 15.308594 C 17.667969 11.894531 19.554688 8.261719 19.777344 4.1875 C 17.667969 7.488281 15.332031 10.574219 13.554688 13.988281 C 11.667969 17.292969 9.222656 21.257812 9.445312 25.222656 C 9.667969 28.855469 11.777344 32.378906 13.777344 35.242188 C 16 38.546875 18.667969 41.628906 21.554688 44.714844 M 37.109375 50.332031 C 35.222656 49.558594 33.332031 48.789062 31.667969 47.578125 C 30.890625 47.027344 30.109375 46.367188 29.445312 45.703125 C 28.332031 44.605469 29.445312 44.164062 30.332031 43.28125 C 33.332031 40.308594 36 37.226562 38.667969 34.03125 C 40.554688 31.609375 44.109375 27.753906 42.777344 24.449219 C 41.222656 20.59375 38.890625 17.070312 36.667969 13.65625 C 34.445312 10.132812 31.890625 6.71875 29.222656 3.636719 C 28.554688 2.976562 28 2.203125 27.332031 1.542969 C 27 1.210938 28.554688 0.332031 28.890625 0.332031 C 30.667969 -0.109375 32.332031 1.210938 33.667969 2.203125 C 37 4.625 39.777344 8.261719 42.332031 11.34375 C 45 14.539062 47.445312 17.84375 49.445312 21.367188 C 52.109375 26.101562 50.890625 31.9375 48.445312 36.675781 C 45.667969 41.960938 41.777344 46.476562 37.109375 50.332031 M 28.332031 44.273438 C 27.890625 43.390625 27.445312 42.621094 27 41.742188 C 26.332031 40.308594 27.109375 40.199219 28.109375 39.097656 C 29.445312 37.664062 31 36.34375 32.332031 34.800781 C 34.667969 32.160156 38.109375 28.523438 37.667969 24.671875 C 37.222656 20.816406 34.109375 17.179688 32.109375 13.988281 C 30.890625 12.117188 29.777344 10.351562 28.667969 8.480469 C 27.890625 7.160156 26.109375 4.738281 26.332031 3.085938 C 26.445312 2.644531 26.554688 2.3125 26.777344 1.875 C 32.890625 7.488281 37.332031 15.308594 41.222656 22.359375 C 42.109375 24.007812 43 25.550781 42.222656 27.421875 C 41.332031 29.40625 39.890625 31.167969 38.667969 33.039062 C 36.445312 36.234375 33.667969 39.207031 30.890625 41.851562 C 30 42.621094 29.222656 43.503906 28.332031 44.273438 "/>
</g>
</svg>
