<?xml version="1.0" encoding="UTF-8"?>
<svg xmlns="http://www.w3.org/2000/svg" xmlns:xlink="http://www.w3.org/1999/xlink" width="100px" height="100px" viewBox="0 0 100 100" version="1.1">
<g id="surface1">
<path style=" stroke:none;fill-rule:evenodd;fill:rgb(8.235294%,9.019608%,9.411765%);fill-opacity:1;" d="M 50.109375 0 C 58.53125 0.433594 66.523438 1.945312 73.867188 6.046875 C 80.992188 9.933594 87.257812 15.550781 91.792969 22.460938 C 100.863281 36.71875 103.023438 54.425781 96.113281 69.976562 C 89.199219 85.527344 75.160156 96.328125 58.316406 99.351562 C 41.683594 102.375 24.621094 95.894531 13.175781 83.585938 C 1.945312 71.492188 -2.808594 53.347656 1.726562 37.363281 C 6.261719 21.597656 17.925781 8.207031 33.691406 2.808594 C 39.09375 0.863281 44.492188 0.214844 50.109375 0 M 95.894531 47.515625 C 86.609375 45.789062 77.105469 44.277344 67.820312 42.546875 C 73.21875 34.773438 78.832031 26.996094 84.234375 19.222656 C 91.144531 27.214844 95.25 36.933594 95.894531 47.515625 M 80.777344 15.984375 C 73.003906 21.382812 65.226562 26.996094 57.453125 32.398438 C 55.722656 23.109375 54.210938 13.605469 52.484375 4.320312 C 62.851562 4.75 73.003906 8.855469 80.777344 15.984375 M 47.730469 4.105469 C 46.003906 13.605469 44.492188 22.894531 42.765625 32.179688 C 34.988281 26.78125 27.214844 21.167969 19.4375 15.765625 C 26.996094 8.855469 37.148438 4.75 47.730469 4.105469 M 15.984375 19.222656 C 21.382812 26.996094 26.996094 34.773438 32.398438 42.546875 C 22.894531 44.277344 13.605469 45.789062 4.320312 47.515625 C 4.75 36.933594 8.855469 27.214844 15.984375 19.222656 M 4.105469 52.484375 C 13.390625 54.210938 22.894531 55.722656 32.179688 57.453125 C 26.78125 65.226562 21.167969 73.003906 15.765625 80.777344 C 8.855469 73.003906 4.75 62.851562 4.105469 52.484375 M 19.222656 84.015625 C 26.996094 78.617188 34.773438 73.21875 42.546875 67.601562 C 44.277344 77.105469 45.789062 86.394531 47.515625 95.679688 C 37.148438 95.25 27.214844 91.144531 19.222656 84.015625 M 52.484375 95.894531 C 54.210938 86.609375 55.722656 77.105469 57.453125 67.820312 C 65.226562 73.21875 73.003906 78.832031 80.777344 84.234375 C 73.003906 91.144531 62.851562 95.25 52.484375 95.894531 M 84.234375 80.777344 C 78.832031 73.003906 73.21875 65.226562 67.820312 57.453125 C 77.320312 55.722656 86.609375 54.210938 95.894531 52.484375 C 95.25 62.851562 91.359375 73.003906 84.234375 80.777344 M 50.109375 33.910156 C 54.210938 34.125 57.667969 35.207031 60.691406 38.011719 C 63.714844 40.820312 65.660156 44.492188 65.875 48.597656 C 66.523438 56.585938 60.476562 65.011719 52.269531 65.660156 C 43.628906 66.308594 36.285156 61.554688 34.339844 52.914062 C 32.398438 44.925781 38.011719 36.285156 46.003906 34.339844 C 47.300781 34.125 48.597656 34.125 50.109375 33.910156 "/>
</g>
</svg>
