<?xml version="1.0" encoding="UTF-8"?>
<svg xmlns="http://www.w3.org/2000/svg" xmlns:xlink="http://www.w3.org/1999/xlink" width="100px" height="100px" viewBox="0 0 100 100" version="1.1">
<g id="surface1">
<path style=" stroke:none;fill-rule:evenodd;fill:rgb(8.235294%,9.019608%,9.411765%);fill-opacity:1;" d="M 63.390625 53.78125 C 67.710938 53.78125 67.710938 47.085938 63.390625 47.085938 C 59.070312 47.085938 59.070312 53.78125 63.390625 53.78125 Z M 54.105469 36.5 C 54.105469 32.179688 47.410156 32.179688 47.410156 36.5 C 47.410156 40.820312 54.105469 40.820312 54.105469 36.5 Z M 36.394531 46.4375 C 32.074219 46.652344 32.074219 53.132812 36.394531 53.132812 C 40.710938 52.914062 40.710938 46.4375 36.394531 46.4375 Z M 62.742188 43.414062 C 63.175781 41.683594 63.605469 39.957031 64.253906 38.230469 C 64.472656 37.582031 65.550781 36.070312 64.6875 35.636719 C 64.039062 35.207031 61.878906 36.5 61.015625 36.5 C 59.71875 36.933594 58.421875 37.148438 56.910156 37.363281 C 56.910156 35.421875 57.128906 33.476562 55.617188 31.964844 C 54.105469 30.453125 52.375 30.453125 50.433594 30.453125 C 48.488281 30.453125 46.542969 30.238281 44.816406 31.535156 C 43.304688 32.828125 43.089844 34.773438 43.089844 36.71875 C 41.578125 36.285156 39.847656 35.636719 38.335938 35.207031 C 37.6875 34.988281 36.175781 33.691406 35.746094 34.773438 C 35.527344 35.421875 36.824219 37.796875 37.042969 38.660156 C 37.472656 40.171875 37.90625 41.683594 38.121094 43.414062 C 37.042969 43.414062 36.175781 43.414062 35.097656 43.414062 C 33.152344 43.628906 31.640625 44.277344 30.5625 46.003906 C 29.480469 47.515625 30.128906 50.324219 30.128906 52.050781 C 30.128906 56.371094 33.585938 57.234375 37.257812 57.234375 C 37.042969 58.097656 34.449219 64.792969 35.097656 65.011719 C 36.175781 65.441406 37.472656 64.363281 38.554688 63.929688 C 40.066406 63.28125 41.578125 62.851562 43.089844 62.636719 C 43.089844 64.578125 42.871094 66.738281 44.382812 68.464844 C 45.894531 70.195312 47.625 70.195312 49.566406 70.195312 C 51.511719 70.195312 53.886719 70.410156 55.398438 68.898438 C 56.910156 67.171875 56.910156 65.660156 56.910156 63.5 C 58.421875 64.148438 59.71875 64.578125 61.015625 65.441406 C 61.664062 65.660156 62.742188 66.953125 63.175781 65.875 C 63.605469 65.226562 62.3125 62.636719 62.09375 61.769531 C 61.664062 60.257812 61.664062 58.964844 61.445312 57.453125 C 63.605469 57.453125 65.984375 57.667969 67.710938 56.371094 C 69.65625 55.074219 69.65625 52.914062 69.65625 50.972656 C 69.65625 48.8125 69.871094 46.652344 68.140625 44.925781 C 66.847656 43.195312 64.6875 43.414062 62.742188 43.414062 Z M 57.128906 38.875 C 59.289062 38.445312 61.230469 38.011719 63.390625 37.363281 C 62.957031 38.445312 62.527344 39.742188 62.3125 40.820312 C 62.09375 41.46875 61.878906 42.332031 61.664062 42.980469 C 61.445312 43.628906 61.230469 43.414062 60.582031 43.414062 C 59.933594 43.414062 57.128906 43.84375 57.128906 42.980469 C 57.128906 41.683594 57.128906 40.171875 57.128906 38.875 Z M 55.832031 49.027344 C 55.617188 49.242188 53.671875 49.027344 53.238281 49.027344 C 52.375 49.027344 51.511719 49.027344 50.648438 49.027344 C 50.648438 49.027344 50.648438 45.140625 50.648438 44.707031 C 52.375 44.707031 54.105469 44.707031 55.832031 44.707031 C 55.617188 44.707031 56.046875 48.8125 55.832031 49.027344 Z M 44.601562 36.71875 C 44.601562 35.421875 44.601562 33.910156 45.679688 33.046875 C 46.761719 31.964844 48.054688 31.964844 49.566406 31.964844 C 51.078125 31.964844 53.238281 31.535156 54.535156 32.613281 C 55.617188 33.476562 56.046875 34.773438 56.046875 35.851562 C 56.046875 38.230469 56.046875 40.605469 56.046875 42.980469 C 56.046875 43.84375 51.945312 43.414062 51.296875 43.414062 C 49.136719 43.414062 46.976562 43.414062 45.03125 43.414062 C 44.601562 41.253906 44.601562 38.875 44.601562 36.71875 Z M 44.601562 44.707031 C 45.464844 44.707031 46.328125 44.707031 47.410156 44.707031 C 47.625 44.707031 49.136719 44.492188 49.351562 44.707031 C 49.566406 44.925781 49.136719 49.027344 49.351562 49.027344 C 47.839844 49.027344 46.328125 49.027344 44.601562 49.027344 C 44.601562 48.597656 44.601562 44.707031 44.601562 44.707031 Z M 43.304688 61.125 C 41.144531 61.554688 38.984375 62.203125 37.042969 63.066406 C 37.472656 61.988281 37.90625 60.90625 38.335938 59.609375 C 38.554688 58.746094 38.554688 57.019531 39.632812 57.019531 C 40.066406 57.019531 43.304688 56.804688 43.304688 57.234375 C 43.304688 58.53125 43.304688 59.828125 43.304688 61.125 Z M 43.304688 49.460938 C 43.304688 51.621094 43.304688 53.78125 43.304688 55.722656 C 41.144531 55.722656 38.769531 55.722656 36.609375 55.722656 C 35.3125 55.722656 34.015625 55.722656 32.9375 54.644531 C 31.859375 53.5625 31.859375 52.269531 31.859375 50.757812 C 31.859375 49.242188 31.425781 47.085938 32.503906 46.003906 C 33.371094 44.925781 34.449219 44.492188 35.746094 44.492188 C 38.121094 44.492188 40.496094 44.492188 42.871094 44.492188 C 43.738281 44.707031 43.304688 48.597656 43.304688 49.460938 Z M 43.304688 43.414062 C 42.871094 43.84375 40.28125 43.414062 39.632812 43.414062 C 39.199219 41.035156 38.554688 38.660156 37.6875 36.285156 C 38.769531 36.71875 40.066406 37.148438 41.144531 37.582031 C 42.226562 38.011719 43.089844 37.796875 43.089844 39.09375 C 43.304688 39.742188 43.738281 42.980469 43.304688 43.414062 Z M 44.601562 50.324219 C 45.03125 49.890625 49.351562 50.324219 49.351562 50.539062 C 49.351562 52.269531 49.351562 53.996094 49.351562 55.941406 C 48.703125 55.941406 44.601562 56.15625 44.601562 55.722656 C 44.601562 54.644531 44.601562 53.5625 44.601562 52.484375 C 44.601562 52.269531 44.382812 50.539062 44.601562 50.324219 Z M 55.832031 63.929688 C 55.832031 65.226562 55.832031 66.523438 54.75 67.601562 C 53.671875 68.898438 52.375 68.683594 50.863281 68.683594 C 49.351562 68.683594 47.410156 69.113281 46.113281 68.035156 C 45.03125 67.171875 44.601562 65.875 44.601562 64.578125 C 44.601562 62.203125 44.601562 59.828125 44.601562 57.453125 C 44.601562 56.585938 48.703125 57.019531 49.351562 57.019531 C 51.511719 57.019531 53.671875 57.019531 55.617188 57.019531 C 55.832031 59.394531 55.832031 61.554688 55.832031 63.929688 Z M 55.832031 55.722656 C 55.617188 55.941406 50.863281 55.941406 50.648438 55.722656 C 50.433594 55.507812 50.433594 50.539062 50.648438 50.324219 C 50.863281 50.109375 52.808594 50.324219 53.238281 50.324219 C 54.105469 50.324219 54.96875 50.324219 55.832031 50.324219 C 55.832031 51.1875 55.832031 52.269531 55.832031 53.132812 C 55.832031 53.5625 56.046875 55.507812 55.832031 55.722656 Z M 61.664062 63.929688 C 60.582031 63.5 59.71875 62.851562 58.640625 62.417969 C 57.34375 61.769531 56.910156 62.203125 56.910156 60.476562 C 56.910156 60.257812 56.910156 57.019531 56.910156 57.019531 C 57.992188 57.019531 59.070312 57.019531 60.152344 57.019531 C 60.800781 59.394531 61.015625 61.769531 61.664062 63.929688 Z M 67.496094 45.574219 C 68.789062 46.652344 68.574219 47.949219 68.574219 49.460938 C 68.574219 50.972656 69.007812 52.914062 67.925781 54.210938 C 67.0625 55.292969 65.765625 55.722656 64.472656 55.722656 C 62.09375 55.722656 59.71875 55.722656 57.34375 55.722656 C 56.480469 55.722656 56.910156 51.621094 56.910156 50.972656 C 56.910156 48.8125 56.910156 46.652344 56.910156 44.707031 C 59.070312 44.707031 61.445312 44.707031 63.605469 44.707031 C 65.117188 44.707031 66.414062 44.707031 67.496094 45.574219 Z M 46.761719 63.28125 C 46.761719 67.601562 53.238281 67.601562 53.457031 63.28125 C 53.238281 59.179688 46.761719 59.179688 46.761719 63.28125 Z M 50.214844 19.871094 C 35.960938 19.871094 23.21875 30.238281 20.410156 44.277344 C 16.953125 60.90625 28.832031 78.1875 45.894531 80.34375 C 63.390625 82.503906 79.15625 69.761719 80.453125 52.050781 C 81.964844 34.988281 67.277344 19.871094 50.214844 19.871094 Z M 54.320312 79.265625 C 37.472656 81.425781 22.355469 69.113281 21.058594 52.050781 C 20.410156 44.277344 23.433594 35.851562 28.832031 30.238281 C 34.449219 24.191406 42.007812 21.167969 50.214844 20.949219 C 64.039062 21.597656 75.917969 30.667969 78.941406 44.492188 C 82.398438 60.476562 70.734375 77.105469 54.320312 79.265625 Z M 95.789062 49.242188 C 95.355469 49.027344 93.628906 47.949219 93.628906 47.730469 C 93.628906 47.300781 94.925781 45.789062 95.140625 45.574219 C 95.789062 44.707031 96.4375 44.058594 97.300781 43.195312 C 97.730469 42.765625 99.027344 41.902344 99.242188 41.253906 C 99.675781 39.957031 97.085938 39.523438 96.21875 39.09375 C 94.492188 38.230469 92.765625 37.148438 91.253906 35.851562 C 93.414062 32.398438 94.707031 29.15625 93.414062 25.269531 C 92.332031 21.382812 87.582031 19.871094 84.125 19.871094 C 83.476562 19.871094 81.964844 20.519531 81.964844 19.65625 C 81.75 18.789062 81.75 17.925781 81.75 17.0625 C 81.75 16.199219 81.75 15.117188 81.75 14.253906 C 81.75 13.605469 82.179688 12.3125 81.964844 11.664062 C 81.535156 10.367188 79.375 11.664062 78.292969 11.878906 C 76.351562 12.3125 74.40625 12.527344 72.460938 12.742188 C 72.246094 8.421875 70.300781 4.320312 65.984375 2.589844 C 61.878906 0.863281 57.558594 3.886719 54.96875 6.695312 C 53.671875 5.617188 52.589844 4.320312 51.511719 3.023438 C 51.296875 2.160156 50.214844 0 49.351562 0 C 48.488281 0 47.191406 3.023438 46.542969 3.671875 C 45.894531 4.320312 45.25 4.96875 44.601562 5.617188 C 43.738281 6.480469 43.519531 7.128906 42.65625 6.261719 C 40.28125 3.886719 36.609375 2.160156 33.152344 3.023438 C 29.480469 3.886719 27.320312 7.128906 26.675781 10.582031 C 26.457031 11.445312 26.457031 12.527344 26.242188 13.390625 C 26.242188 13.824219 24.082031 13.390625 23.648438 13.390625 C 22.570312 13.390625 21.707031 12.957031 20.625 12.742188 C 19.976562 12.527344 18.683594 11.878906 17.820312 11.878906 C 16.308594 12.09375 17.171875 14.039062 17.171875 15.117188 C 17.171875 16.199219 17.171875 17.277344 17.171875 18.359375 C 17.171875 18.789062 17.171875 20.734375 16.953125 21.167969 C 16.738281 21.382812 14.363281 21.167969 13.929688 21.167969 C 13.066406 21.167969 12.203125 21.382812 11.339844 21.597656 C 9.394531 22.246094 7.667969 23.324219 6.371094 25.054688 C 3.996094 28.507812 5.074219 32.828125 7.234375 36.070312 C 7.453125 36.285156 8.097656 37.148438 7.882812 37.148438 C 7.453125 37.363281 7.019531 37.796875 6.585938 38.011719 C 5.722656 38.445312 5.074219 39.09375 4.210938 39.523438 C 3.347656 39.957031 0.324219 40.820312 0.109375 41.683594 C -0.109375 42.546875 2.699219 44.707031 3.132812 45.140625 C 3.78125 46.003906 4.425781 46.652344 5.074219 47.515625 C 5.292969 47.730469 5.941406 48.597656 5.941406 48.8125 C 5.941406 49.027344 5.074219 49.460938 4.859375 49.675781 C 1.835938 52.050781 -0.324219 55.941406 0.757812 59.828125 C 1.835938 63.714844 5.722656 65.875 9.609375 66.523438 C 9.179688 68.464844 8.53125 70.410156 7.667969 72.136719 C 7.453125 72.570312 5.722656 74.945312 6.804688 75.378906 C 8.316406 75.808594 10.257812 75.59375 11.988281 76.027344 C 12.851562 76.242188 13.929688 76.457031 14.792969 76.675781 C 15.660156 76.890625 15.660156 76.890625 15.441406 77.753906 C 15.441406 78.1875 15.226562 78.617188 15.226562 79.050781 C 14.578125 82.9375 15.660156 86.824219 19.113281 88.984375 C 22.355469 90.929688 26.457031 90.28125 29.699219 88.335938 C 30.34375 90.066406 31.210938 91.792969 31.859375 93.519531 C 32.074219 94.382812 32.074219 96.761719 33.371094 96.761719 C 34.015625 96.761719 34.882812 95.679688 35.3125 95.464844 C 35.960938 95.03125 36.824219 94.382812 37.6875 93.953125 C 38.554688 93.519531 39.417969 92.871094 40.28125 92.65625 C 41.578125 92.226562 41.359375 92.441406 42.007812 93.519531 C 43.953125 96.542969 46.542969 99.351562 50.433594 99.351562 C 54.320312 99.351562 57.34375 96.761719 58.855469 93.519531 C 58.855469 93.304688 59.289062 92.226562 59.503906 92.007812 C 59.71875 92.007812 60.582031 92.441406 60.800781 92.441406 C 61.664062 92.871094 62.3125 93.304688 63.175781 93.738281 C 64.039062 94.167969 66.628906 96.542969 67.496094 96.328125 C 68.359375 96.113281 68.574219 92.871094 69.007812 92.007812 C 69.4375 91.144531 69.65625 90.066406 70.085938 89.199219 C 70.300781 88.769531 70.519531 88.121094 70.734375 87.6875 C 70.949219 87.472656 71.597656 87.90625 71.8125 88.121094 C 75.703125 89.417969 79.804688 89.847656 83.046875 86.609375 C 85.851562 83.800781 85.851562 79.265625 84.558594 75.808594 C 86.070312 75.378906 87.582031 74.945312 89.09375 74.730469 C 89.957031 74.515625 92.546875 74.945312 93.195312 74.296875 C 93.84375 73.648438 92.546875 72.136719 92.332031 71.273438 C 91.683594 69.761719 91.035156 68.25 90.820312 66.523438 C 90.820312 66.089844 90.390625 65.011719 90.605469 65.011719 C 91.035156 64.792969 91.683594 64.578125 92.117188 64.578125 C 92.980469 64.363281 93.84375 63.929688 94.492188 63.5 C 96.21875 62.636719 97.515625 61.125 98.378906 59.394531 C 100.539062 55.941406 98.8125 51.835938 95.789062 49.242188 Z M 97.515625 41.035156 C 95.574219 42.980469 94.058594 44.707031 92.546875 46.867188 C 90.390625 45.789062 87.796875 45.140625 85.421875 44.707031 C 84.558594 44.492188 81.964844 44.707031 82.613281 43.195312 C 82.828125 42.546875 84.988281 41.683594 85.636719 41.253906 C 86.71875 40.390625 87.582031 39.742188 88.660156 38.660156 C 89.09375 38.230469 89.523438 38.011719 89.742188 37.582031 C 90.390625 36.933594 90.390625 36.71875 91.035156 37.363281 C 92.980469 38.875 95.355469 39.957031 97.515625 41.035156 Z M 67.496094 80.128906 C 67.925781 80.5625 68.574219 81.210938 69.222656 81.640625 C 70.300781 82.722656 71.597656 83.585938 72.894531 84.234375 C 75.054688 85.527344 78.292969 86.394531 80.453125 84.449219 C 82.613281 82.503906 82.179688 79.050781 81.316406 76.675781 C 80.667969 75.160156 80.023438 73.867188 79.15625 72.785156 C 78.726562 72.136719 76.566406 70.410156 77.429688 69.761719 C 80.238281 73.003906 86.71875 80.992188 81.535156 85.097656 C 76.566406 88.984375 69.222656 83.371094 66.199219 79.699219 C 66.628906 79.050781 66.847656 79.480469 67.496094 80.128906 Z M 67.277344 78.832031 C 70.734375 76.675781 73.542969 74.082031 76.132812 71.058594 C 78.726562 73.867188 83.476562 80.128906 79.804688 83.800781 C 76.132812 87.472656 69.65625 81.210938 67.277344 78.832031 Z M 49.785156 82.289062 C 32.503906 81.640625 18.035156 67.820312 18.035156 50.109375 C 18.035156 32.613281 32.722656 17.925781 50.214844 17.925781 C 50.648438 17.925781 51.078125 17.925781 51.511719 17.925781 C 69.007812 17.925781 82.828125 34.339844 82.179688 51.402344 C 81.75 68.25 66.847656 82.9375 49.785156 82.289062 Z M 45.25 90.710938 C 46.113281 93.089844 48.054688 96.113281 50.863281 95.894531 C 53.886719 95.894531 55.617188 92.871094 56.480469 90.28125 C 56.910156 88.769531 57.128906 87.472656 57.34375 85.960938 C 57.34375 85.097656 56.695312 82.503906 57.992188 82.503906 C 58.207031 86.609375 57.558594 97.625 51.078125 96.761719 C 44.816406 95.894531 43.089844 87.6875 43.089844 82.503906 C 44.167969 82.722656 43.953125 83.152344 44.167969 84.015625 C 44.167969 84.664062 44.382812 85.527344 44.382812 86.175781 C 44.382812 87.90625 44.816406 89.199219 45.25 90.710938 Z M 44.816406 83.152344 C 48.703125 83.800781 52.589844 83.585938 56.480469 82.9375 C 56.695312 87.042969 56.261719 93.953125 51.078125 95.03125 C 48.921875 95.464844 46.761719 92.65625 46.113281 90.710938 C 45.25 88.335938 44.816406 85.746094 44.816406 83.152344 Z M 23.433594 72.136719 C 23.003906 72.785156 22.570312 73.433594 22.136719 74.082031 C 21.492188 75.378906 20.625 76.675781 20.195312 78.1875 C 19.332031 80.5625 18.683594 84.449219 21.273438 86.175781 C 23.648438 87.6875 26.890625 86.824219 29.265625 85.3125 C 30.34375 84.664062 31.425781 83.585938 32.503906 82.722656 C 33.152344 82.074219 33.585938 81.425781 34.015625 80.777344 C 34.449219 80.128906 34.664062 79.699219 35.3125 80.128906 C 32.503906 83.585938 25.160156 91.578125 20.625 86.609375 C 16.523438 82.074219 20.625 74.296875 23.867188 70.625 C 24.515625 71.058594 24.082031 71.273438 23.433594 72.136719 Z M 24.730469 71.707031 C 26.890625 74.730469 30.5625 77.320312 33.800781 79.265625 C 31.640625 82.074219 25.808594 88.554688 21.707031 85.097656 C 17.820312 81.859375 22.785156 74.515625 24.730469 71.707031 Z M 15.660156 49.675781 C 15.011719 49.890625 14.363281 50.109375 13.5 50.324219 C 11.988281 50.757812 10.691406 51.402344 9.394531 52.050781 C 7.234375 53.347656 4.425781 55.722656 4.859375 58.746094 C 5.507812 61.554688 8.746094 63.066406 11.339844 63.5 C 12.851562 63.714844 14.363281 63.714844 15.660156 63.5 C 16.523438 63.28125 17.386719 63.28125 18.035156 63.066406 C 18.683594 62.851562 19.332031 62.636719 19.332031 63.5 C 15.011719 64.363281 3.996094 65.875 3.78125 58.964844 C 3.5625 52.699219 11.769531 49.460938 16.738281 48.597656 C 16.953125 49.675781 16.523438 49.460938 15.660156 49.675781 Z M 19.113281 61.988281 C 15.011719 63.066406 7.882812 63.714844 5.941406 58.964844 C 4.859375 56.585938 8.097656 54.425781 9.609375 53.132812 C 11.769531 51.621094 14.578125 50.972656 16.953125 50.539062 C 17.171875 54.425781 17.820312 58.097656 19.113281 61.988281 Z M 21.707031 26.78125 C 20.195312 26.351562 18.898438 25.703125 17.386719 25.484375 C 14.792969 25.054688 11.339844 25.269531 9.828125 27.644531 C 8.316406 30.238281 10.042969 33.476562 11.988281 35.636719 C 12.851562 36.71875 13.929688 37.582031 15.226562 38.445312 C 15.875 38.875 16.738281 39.308594 17.386719 39.742188 C 18.035156 39.957031 18.683594 40.171875 18.25 40.820312 C 14.363281 38.660156 4.644531 32.828125 8.964844 27.214844 C 12.851562 22.246094 21.273438 25.054688 25.59375 27.863281 C 25.160156 28.941406 22.785156 27.214844 21.707031 26.78125 Z M 24.730469 28.941406 C 22.355469 31.964844 20.195312 35.421875 18.898438 39.09375 C 15.441406 37.582031 7.882812 32.613281 10.691406 27.863281 C 13.28125 23.542969 21.492188 27.429688 24.730469 28.941406 Z M 43.304688 14.253906 C 42.65625 12.957031 41.792969 11.664062 40.710938 10.367188 C 38.984375 8.421875 36.609375 6.046875 33.800781 6.910156 C 27.539062 8.640625 30.128906 18.359375 32.289062 22.246094 C 32.074219 22.460938 31.859375 22.679688 31.640625 22.679688 C 30.128906 18.574219 26.457031 8.207031 32.9375 6.261719 C 39.417969 4.320312 43.953125 12.527344 45.679688 17.277344 C 44.601562 17.710938 44.601562 17.0625 44.382812 16.199219 C 43.953125 15.550781 43.738281 14.902344 43.304688 14.253906 Z M 43.953125 17.496094 C 40.066406 18.359375 36.394531 19.65625 32.9375 21.8125 C 31.210938 18.574219 28.617188 9.933594 33.585938 7.992188 C 38.769531 6.046875 42.441406 14.253906 43.953125 17.496094 Z M 67.925781 18.140625 C 68.140625 16.628906 68.359375 15.117188 68.359375 13.605469 C 68.359375 10.800781 67.496094 7.34375 64.6875 6.480469 C 61.878906 5.617188 59.070312 7.773438 57.558594 9.933594 C 56.695312 11.015625 56.046875 12.3125 55.398438 13.605469 C 54.96875 14.472656 54.75 15.335938 54.535156 15.984375 C 54.320312 16.847656 54.535156 17.496094 53.457031 17.277344 C 54.96875 12.957031 58.640625 3.023438 64.902344 5.398438 C 67.710938 6.480469 69.222656 10.367188 69.222656 13.175781 C 69.222656 16.199219 68.574219 19.007812 67.710938 22.03125 C 66.414062 21.597656 67.710938 19.222656 67.925781 18.140625 Z M 66.199219 21.167969 C 62.742188 19.222656 59.070312 17.925781 54.96875 17.277344 C 56.046875 13.175781 59.070312 6.046875 64.253906 7.128906 C 66.847656 7.773438 67.496094 11.015625 67.496094 12.957031 C 67.496094 15.765625 67.0625 18.359375 66.199219 21.167969 Z M 82.613281 38.230469 C 83.261719 37.796875 83.910156 37.363281 84.339844 36.933594 C 85.421875 36.070312 86.71875 34.988281 87.582031 33.910156 C 89.308594 31.75 90.820312 28.726562 89.09375 26.132812 C 87.363281 23.757812 83.910156 23.757812 81.316406 24.191406 C 80.023438 24.40625 78.507812 25.054688 77.429688 25.703125 C 76.78125 26.132812 75.917969 26.566406 75.269531 26.996094 C 74.621094 27.429688 74.191406 27.863281 73.757812 26.996094 C 77.863281 24.621094 86.285156 19.871094 89.742188 25.269531 C 91.46875 27.863281 89.742188 31.535156 88.445312 33.910156 C 86.71875 36.5 84.125 38.445312 81.535156 39.957031 C 81.316406 38.875 81.75 38.875 82.613281 38.230469 Z M 81.101562 38.230469 C 79.589844 34.558594 77.429688 31.316406 75.054688 28.292969 C 77.214844 26.566406 79.804688 25.484375 82.398438 24.839844 C 84.339844 24.40625 87.363281 24.621094 88.660156 26.566406 C 91.253906 30.886719 84.339844 36.070312 81.101562 38.230469 Z M 84.773438 61.988281 C 86.285156 61.988281 87.796875 61.988281 89.09375 61.554688 C 91.683594 60.90625 94.925781 59.828125 95.355469 56.804688 C 95.789062 53.78125 93.195312 51.621094 91.035156 50.324219 C 89.742188 49.675781 88.230469 49.242188 86.933594 48.8125 C 86.070312 48.597656 85.421875 48.378906 84.558594 48.378906 C 83.910156 48.378906 83.261719 48.597656 83.476562 47.515625 C 87.796875 48.164062 97.949219 50.324219 96.652344 56.585938 C 95.355469 62.851562 86.070312 63.066406 81.316406 62.203125 C 81.316406 61.339844 83.691406 61.988281 84.773438 61.988281 Z M 83.476562 49.242188 C 87.582031 49.460938 94.707031 51.402344 94.707031 56.585938 C 94.707031 58.964844 91.683594 60.042969 89.957031 60.476562 C 87.363281 61.125 84.558594 61.125 81.964844 60.691406 C 82.828125 57.453125 84.125 53.132812 83.476562 49.242188 Z M 91.683594 24.621094 C 96.21875 31.535156 87.582031 38.660156 82.398438 41.902344 C 81.964844 40.605469 82.179688 40.820312 83.261719 39.957031 C 83.910156 39.523438 84.773438 39.09375 85.421875 38.445312 C 86.933594 37.363281 88.230469 35.851562 89.308594 34.339844 C 91.253906 31.75 92.546875 28.078125 91.035156 25.054688 C 89.308594 21.8125 85.421875 21.597656 82.179688 22.246094 C 80.453125 22.679688 78.726562 23.324219 77.214844 24.191406 C 76.351562 24.621094 75.484375 25.054688 74.621094 25.703125 C 73.542969 26.351562 73.542969 26.566406 72.679688 25.703125 C 77.429688 22.246094 87.363281 17.925781 91.683594 24.621094 Z M 72.460938 17.0625 C 72.460938 16.199219 72.460938 14.039062 73.109375 14.039062 C 75.703125 13.824219 78.078125 13.390625 80.667969 12.742188 C 80.453125 15.335938 80.238281 17.925781 80.667969 20.519531 C 78.292969 21.167969 75.917969 22.03125 73.972656 23.324219 C 73.542969 23.542969 72.894531 23.972656 72.460938 24.191406 C 71.597656 24.839844 71.597656 24.839844 70.734375 24.191406 C 70.519531 23.972656 71.382812 21.382812 71.597656 20.949219 C 72.03125 19.65625 72.246094 18.359375 72.460938 17.0625 Z M 56.910156 6.910156 C 59.070312 4.535156 62.742188 2.589844 65.984375 4.105469 C 73.324219 7.34375 71.597656 17.496094 69.4375 23.324219 C 68.359375 22.679688 68.359375 22.460938 68.789062 21.382812 C 69.007812 20.519531 69.4375 19.4375 69.65625 18.574219 C 70.085938 16.847656 70.300781 14.902344 70.085938 13.175781 C 69.871094 9.933594 68.574219 6.046875 65.335938 4.75 C 61.878906 3.457031 58.640625 5.832031 56.910156 8.421875 C 55.832031 9.933594 54.75 11.664062 54.105469 13.390625 C 53.671875 14.253906 53.457031 15.117188 53.238281 15.984375 C 52.808594 17.0625 52.808594 17.277344 51.726562 17.0625 C 52.589844 13.390625 54.105469 9.503906 56.910156 6.910156 Z M 49.351562 1.726562 C 50.863281 3.886719 52.375 5.832031 54.320312 7.558594 C 52.808594 9.503906 51.726562 11.664062 50.863281 14.039062 C 50.648438 14.6875 50.433594 15.117188 50.214844 15.765625 C 50 16.628906 50.214844 16.847656 49.136719 16.847656 C 48.488281 16.847656 47.839844 14.253906 47.625 13.824219 C 47.191406 13.175781 43.953125 7.558594 43.953125 7.773438 C 46.328125 6.046875 48.054688 3.886719 49.351562 1.726562 Z M 32.9375 4.320312 C 40.496094 1.945312 45.679688 11.445312 47.839844 17.0625 C 46.542969 17.277344 46.542969 17.0625 46.113281 15.984375 C 45.894531 15.117188 45.464844 14.253906 45.03125 13.605469 C 44.167969 12.09375 43.089844 10.582031 42.007812 9.289062 C 39.847656 6.695312 36.394531 4.75 33.152344 5.398438 C 29.480469 6.046875 28.1875 10.152344 28.402344 13.390625 C 28.617188 15.335938 28.832031 17.0625 29.480469 19.007812 C 29.699219 19.871094 30.128906 20.734375 30.5625 21.8125 C 30.992188 22.894531 31.210938 23.109375 30.34375 23.972656 C 27.753906 18.359375 24.730469 6.910156 32.9375 4.320312 Z M 18.464844 13.605469 C 20.84375 14.472656 23.648438 14.902344 26.242188 14.902344 C 26.457031 17.277344 26.890625 19.65625 27.753906 22.03125 C 27.96875 22.679688 29.699219 25.054688 28.1875 25.269531 C 27.539062 25.269531 25.59375 23.972656 24.945312 23.542969 C 23.867188 23.109375 22.570312 22.460938 21.492188 22.246094 C 20.625 22.03125 18.464844 21.8125 18.464844 20.949219 C 18.898438 18.574219 18.683594 15.984375 18.464844 13.605469 Z M 7.667969 26.132812 C 11.988281 19.4375 21.921875 23.324219 27.320312 26.132812 C 26.675781 26.996094 26.457031 26.996094 25.378906 26.566406 C 24.730469 26.132812 23.867188 25.703125 23.003906 25.269531 C 21.273438 24.621094 19.546875 23.972656 17.601562 23.757812 C 14.148438 23.324219 10.042969 23.972656 7.882812 26.996094 C 5.722656 30.238281 7.882812 33.691406 10.257812 36.285156 C 11.554688 37.582031 13.066406 38.660156 14.578125 39.742188 C 15.226562 40.171875 16.089844 40.820312 16.953125 41.035156 C 18.25 41.683594 18.035156 41.46875 17.820312 42.765625 C 12.417969 39.742188 3.132812 33.261719 7.667969 26.132812 Z M 2.484375 42.332031 C 4.859375 41.253906 7.019531 39.957031 9.179688 38.230469 C 10.90625 39.957031 12.851562 41.46875 15.011719 42.765625 C 15.441406 42.980469 16.089844 43.414062 16.523438 43.628906 C 17.386719 44.058594 17.386719 43.84375 17.386719 44.925781 C 17.386719 45.355469 14.578125 45.789062 14.148438 46.003906 C 13.28125 46.21875 7.453125 48.597656 7.453125 48.597656 C 5.941406 46.21875 4.210938 44.277344 2.484375 42.332031 Z M 2.269531 58.964844 C 1.1875 51.402344 11.339844 47.515625 17.171875 46.4375 C 16.953125 47.730469 16.953125 47.730469 15.660156 47.949219 C 14.792969 48.164062 13.714844 48.378906 12.851562 48.597656 C 11.125 49.027344 9.394531 49.890625 8.097656 50.972656 C 5.507812 52.699219 2.914062 55.722656 3.347656 59.179688 C 3.78125 62.851562 7.453125 64.363281 10.691406 64.792969 C 12.636719 65.011719 14.363281 65.011719 16.308594 64.792969 C 17.171875 64.792969 18.035156 64.578125 19.113281 64.363281 C 19.976562 64.148438 19.976562 64.148438 20.410156 65.226562 C 14.792969 66.523438 3.347656 67.171875 2.269531 58.964844 Z M 15.875 76.027344 C 13.5 75.160156 10.90625 74.945312 8.53125 74.730469 C 9.609375 72.355469 10.691406 69.761719 11.125 67.171875 C 13.5 67.386719 16.089844 67.386719 18.464844 66.953125 C 19.113281 66.738281 19.761719 66.738281 20.410156 66.523438 C 21.273438 66.308594 21.273438 66.523438 21.707031 67.171875 C 21.921875 67.601562 20.195312 69.546875 19.761719 69.976562 C 19.113281 71.058594 18.25 72.136719 17.601562 73.433594 C 17.171875 74.296875 16.738281 76.457031 15.875 76.027344 Z M 19.761719 87.90625 C 13.066406 82.9375 18.898438 73.433594 22.570312 68.464844 C 23.433594 69.546875 23.21875 69.546875 22.570312 70.410156 C 21.921875 71.058594 21.492188 71.707031 21.058594 72.570312 C 20.195312 74.082031 19.113281 75.808594 18.683594 77.753906 C 17.820312 80.992188 17.820312 84.882812 20.410156 87.257812 C 23.003906 89.632812 26.675781 88.554688 29.480469 86.824219 C 30.992188 85.746094 32.289062 84.664062 33.585938 83.371094 C 34.234375 82.722656 34.664062 82.074219 35.3125 81.425781 C 35.960938 80.5625 36.175781 80.34375 37.042969 80.777344 C 33.585938 85.527344 25.808594 92.441406 19.761719 87.90625 Z M 40.496094 92.007812 C 38.335938 93.089844 36.175781 94.167969 34.015625 95.679688 C 33.371094 93.089844 32.503906 90.710938 31.210938 88.121094 C 33.152344 86.609375 35.097656 85.097656 36.609375 83.152344 C 37.042969 82.722656 37.472656 82.074219 37.90625 81.425781 C 38.335938 80.992188 38.769531 81.425781 39.199219 81.640625 C 39.632812 81.859375 39.417969 84.449219 39.632812 85.097656 C 39.847656 86.394531 40.066406 87.90625 40.28125 89.199219 C 40.496094 89.632812 40.496094 90.28125 40.710938 90.710938 C 41.144531 91.578125 41.359375 91.578125 40.496094 92.007812 Z M 50.648438 98.488281 C 43.089844 98.273438 41.144531 87.90625 40.929688 82.074219 C 42.226562 82.289062 42.007812 82.503906 42.226562 83.800781 C 42.226562 84.664062 42.226562 85.527344 42.441406 86.175781 C 42.65625 87.90625 43.089844 89.632812 43.953125 91.359375 C 45.25 94.382812 47.625 97.191406 51.078125 97.625 C 54.75 98.054688 56.695312 94.601562 57.992188 91.792969 C 58.640625 90.066406 58.855469 88.335938 59.070312 86.394531 C 59.070312 85.527344 59.070312 84.449219 59.070312 83.585938 C 59.070312 82.503906 58.855469 82.074219 60.152344 81.859375 C 60.152344 88.121094 58.640625 98.703125 50.648438 98.488281 Z M 69.65625 88.335938 C 68.574219 90.496094 67.710938 92.871094 67.0625 95.25 C 64.902344 93.738281 62.742188 92.441406 60.152344 91.359375 C 60.800781 88.984375 61.230469 86.824219 61.230469 84.234375 C 61.230469 83.585938 61.230469 82.9375 61.230469 82.289062 C 61.230469 81.425781 61.445312 81.425781 62.3125 81.210938 C 62.527344 80.992188 64.472656 83.152344 64.6875 83.585938 C 65.550781 84.449219 66.628906 85.3125 67.710938 86.175781 C 68.140625 86.394531 68.574219 86.824219 69.007812 87.042969 C 70.085938 87.472656 70.085938 87.472656 69.65625 88.335938 Z M 82.179688 86.609375 C 76.132812 91.792969 68.140625 85.097656 63.824219 80.5625 C 64.902344 79.914062 64.902344 80.128906 65.765625 80.992188 C 66.414062 81.640625 67.0625 82.289062 67.710938 82.9375 C 69.222656 84.234375 70.734375 85.097656 72.246094 85.960938 C 75.269531 87.257812 79.15625 87.90625 81.75 85.746094 C 84.339844 83.585938 83.910156 79.699219 82.828125 76.890625 C 82.179688 75.378906 81.316406 73.867188 80.238281 72.355469 C 79.589844 71.707031 79.15625 70.84375 78.507812 70.195312 C 77.644531 69.113281 77.429688 69.113281 78.292969 68.25 C 82.179688 72.355469 88.011719 81.425781 82.179688 86.609375 Z M 92.117188 73.648438 C 89.523438 73.867188 86.933594 74.296875 84.558594 74.945312 C 83.476562 72.785156 82.179688 70.625 80.667969 68.683594 C 80.238281 68.25 79.804688 67.601562 79.375 67.171875 C 79.15625 66.953125 79.375 65.875 79.804688 65.660156 C 80.453125 65.441406 82.613281 66.089844 83.476562 66.089844 C 84.773438 66.308594 86.070312 66.089844 87.363281 66.089844 C 87.796875 66.089844 88.445312 66.089844 88.875 65.875 C 89.742188 65.660156 89.523438 65.875 89.742188 66.738281 C 90.171875 69.332031 91.253906 71.492188 92.117188 73.648438 Z M 98.164062 57.453125 C 97.300781 65.226562 85.851562 65.441406 80.238281 64.578125 C 80.886719 63.5 80.667969 63.5 81.964844 63.714844 C 82.828125 63.714844 83.691406 63.929688 84.558594 63.929688 C 86.5 63.929688 88.230469 63.714844 90.171875 63.28125 C 93.195312 62.417969 96.652344 60.476562 97.515625 57.019531 C 98.164062 53.347656 95.355469 50.757812 92.332031 49.242188 C 90.820312 48.378906 88.875 47.949219 87.363281 47.515625 C 86.5 47.300781 85.636719 47.085938 84.773438 47.085938 C 83.476562 46.867188 83.476562 46.867188 83.476562 45.789062 C 89.308594 46.652344 99.027344 49.460938 98.164062 57.453125 Z M 50.214844 22.894531 C 40.066406 22.894531 31.210938 28.507812 26.242188 37.148438 C 22.355469 43.84375 21.921875 52.484375 24.515625 59.609375 C 27.320312 67.386719 33.585938 73.003906 41.144531 76.027344 C 56.910156 82.074219 74.191406 70.84375 77.214844 54.644531 C 80.238281 38.445312 66.628906 22.894531 50.214844 22.894531 Z M 66.414062 70.625 C 59.933594 75.378906 51.296875 77.753906 43.304688 75.378906 C 35.097656 73.003906 28.1875 67.171875 25.378906 58.964844 C 19.761719 42.332031 32.289062 23.972656 50.214844 23.972656 C 55.183594 23.972656 59.71875 25.269531 63.824219 27.863281 C 71.167969 32.398438 75.917969 40.171875 76.351562 48.8125 C 76.78125 57.019531 73.109375 65.660156 66.414062 70.625 Z M 50.214844 25.703125 C 46.976562 25.917969 43.738281 26.351562 40.710938 27.644531 C 24.945312 34.125 20.84375 55.507812 32.9375 67.601562 C 38.769531 73.433594 47.191406 76.027344 55.183594 74.296875 C 63.175781 72.785156 69.65625 66.953125 72.894531 59.828125 C 76.132812 52.269531 75.054688 43.195312 70.519531 36.5 C 65.765625 29.589844 58.421875 26.132812 50.214844 25.703125 Z M 73.109375 45.574219 C 74.839844 53.132812 72.246094 61.339844 66.628906 66.738281 C 55.183594 78.1875 34.882812 74.515625 28.617188 59.179688 C 25.59375 51.835938 26.242188 43.628906 30.777344 36.933594 C 35.3125 30.238281 42.441406 26.996094 50.214844 26.566406 C 53.238281 26.78125 56.480469 27.214844 59.289062 28.292969 C 66.414062 31.75 71.597656 38.011719 73.109375 45.574219 Z M 73.109375 45.574219 "/>
</g>
</svg>
