<?xml version="1.0" encoding="UTF-8"?>
<svg xmlns="http://www.w3.org/2000/svg" xmlns:xlink="http://www.w3.org/1999/xlink" width="100px" height="44px" viewBox="0 0 100 44" version="1.1">
<g id="surface1">
<path style=" stroke:none;fill-rule:evenodd;fill:rgb(8.235294%,9.019608%,9.411765%);fill-opacity:1;" d="M 39.144531 31.429688 C 40.832031 32.152344 42.039062 32.273438 43.847656 32.273438 C 47.347656 32.273438 50.722656 32.273438 54.222656 32.273438 C 57.238281 32.273438 60.25 32.273438 63.386719 32.273438 C 65.078125 32.273438 66.160156 31.429688 67.730469 30.703125 C 57.71875 30.703125 47.828125 30.703125 37.816406 30.703125 C 38.179688 31.066406 38.664062 31.308594 39.144531 31.429688 M 32.511719 25.988281 C 31.183594 23.207031 30.824219 21.03125 31.789062 18.132812 C 32.753906 15.109375 32.992188 11.726562 33.113281 8.582031 C 33.234375 6.042969 33.71875 1.691406 30.703125 0.847656 C 29.253906 0.484375 27.6875 0.605469 26.238281 0.605469 C 25.394531 0.605469 24.550781 0.726562 23.707031 0.726562 C 22.257812 0.726562 22.621094 1.089844 22.378906 2.417969 C 23.105469 2.417969 23.949219 2.296875 24.671875 2.417969 C 24.671875 2.417969 26.238281 2.660156 25.878906 2.902344 C 25.273438 3.265625 24.429688 3.144531 23.707031 3.144531 C 22.5 3.144531 22.257812 2.902344 22.140625 4.230469 C 22.621094 4.230469 26.359375 4.230469 25.878906 4.835938 C 25.035156 5.800781 21.65625 3.867188 22.019531 5.800781 C 24.070312 5.921875 26.238281 5.800781 28.167969 5.078125 C 28.53125 4.957031 29.859375 4.109375 30.097656 4.472656 C 30.339844 4.714844 29.375 6.527344 29.253906 6.890625 C 28.289062 10.636719 28.652344 14.625 29.496094 18.496094 C 29.738281 19.824219 26.359375 19.097656 25.394531 19.097656 C 23.585938 18.976562 21.65625 18.976562 19.847656 18.855469 C 16.109375 18.734375 12.25 18.734375 8.511719 19.21875 C 7.542969 19.339844 -1.140625 20.066406 1.03125 22.121094 C 1.996094 23.089844 5.132812 22.96875 6.578125 23.089844 C 8.511719 23.207031 10.441406 23.328125 12.371094 23.449219 C 16.347656 23.570312 20.449219 23.691406 24.429688 23.933594 C 25.273438 23.933594 29.253906 23.691406 29.375 24.296875 C 29.375 24.78125 28.410156 26.109375 28.289062 26.59375 C 27.929688 27.558594 27.808594 28.527344 27.6875 29.496094 C 27.445312 31.550781 27.566406 33.484375 28.167969 35.539062 C 28.410156 36.503906 29.253906 37.230469 29.496094 38.078125 C 29.738281 38.679688 27.808594 37.714844 27.566406 37.714844 C 26.722656 37.351562 25.757812 37.351562 24.914062 37.230469 C 24.429688 37.109375 22.378906 36.867188 22.019531 37.230469 C 21.898438 37.351562 21.898438 38.679688 22.019531 38.800781 C 22.140625 39.042969 23.222656 38.921875 23.464844 39.042969 C 24.308594 39.164062 25.273438 39.285156 26 39.648438 C 25.273438 40.253906 22.863281 39.769531 22.019531 39.648438 C 21.777344 41.21875 24.308594 40.375 25.152344 41.097656 C 24.671875 41.339844 22.019531 41.21875 21.898438 41.339844 C 21.777344 42.066406 22.621094 41.945312 23.222656 42.066406 C 23.949219 42.1875 24.550781 42.308594 25.273438 42.429688 C 27.082031 42.792969 29.980469 43.757812 31.0625 41.460938 C 32.148438 39.285156 32.269531 36.265625 32.511719 33.847656 C 32.875 31.1875 32.992188 28.648438 32.511719 25.988281 M 78.222656 18.617188 C 78.101562 20.550781 78.101562 22.484375 77.980469 24.417969 C 82.082031 24.539062 85.699219 24.902344 89.078125 27.441406 C 89.441406 27.679688 93.421875 25.023438 94.023438 24.78125 C 95.710938 23.933594 97.398438 23.207031 99.089844 22.363281 C 99.691406 22.121094 96.195312 19.945312 95.710938 19.703125 C 94.023438 18.617188 92.335938 17.648438 90.644531 16.558594 C 89.679688 15.957031 89.558594 15.714844 88.59375 16.320312 C 87.75 16.921875 86.785156 17.527344 85.820312 17.890625 C 84.011719 18.617188 81.960938 18.734375 79.910156 18.734375 C 79.429688 18.617188 78.824219 18.617188 78.222656 18.617188 M 74.242188 21.515625 C 74.363281 23.089844 73.761719 24.78125 73.398438 26.351562 C 73.15625 27.921875 72.917969 29.496094 72.917969 31.066406 C 72.796875 34.207031 71.953125 37.714844 72.3125 40.855469 C 72.675781 44.726562 76.894531 43.878906 79.671875 43.878906 C 80.515625 43.878906 81.359375 43.878906 82.082031 43.878906 C 82.203125 43.878906 83.046875 44 83.167969 43.878906 C 83.289062 43.757812 83.410156 42.429688 83.289062 42.308594 C 83.046875 41.945312 81.480469 42.1875 80.875 42.066406 C 80.152344 41.945312 79.1875 41.945312 78.707031 41.460938 C 79.1875 41.097656 80.152344 41.21875 80.753906 41.21875 C 81.238281 41.21875 83.046875 41.703125 83.289062 41.339844 C 83.410156 41.21875 83.410156 40.253906 83.289062 40.132812 C 82.804688 40.132812 82.203125 40.011719 81.722656 40.011719 C 80.875 39.890625 79.910156 39.890625 79.066406 39.527344 C 79.550781 39.164062 80.753906 39.285156 81.359375 39.285156 C 81.960938 39.285156 82.566406 39.285156 83.289062 39.285156 C 83.769531 39.285156 83.652344 38.558594 83.652344 38.078125 C 81.480469 38.199219 79.308594 38.320312 77.015625 38.320312 C 76.414062 38.320312 76.894531 34.328125 76.894531 33.726562 C 77.015625 29.617188 77.257812 25.503906 77.5 21.394531 C 77.621094 17.285156 77.621094 13.296875 77.742188 9.1875 C 77.742188 8.582031 77.621094 4.59375 78.101562 4.59375 C 80.273438 4.957031 82.445312 5.199219 84.617188 5.558594 C 84.617188 5.320312 84.734375 4.109375 84.496094 4.109375 C 83.890625 4.109375 83.167969 4.109375 82.566406 3.988281 C 81.839844 3.867188 80.636719 3.867188 80.03125 3.382812 C 81.359375 2.78125 83.167969 3.144531 84.617188 3.265625 C 84.617188 2.902344 84.617188 2.417969 84.617188 2.054688 C 83.289062 2.054688 81.359375 2.417969 80.273438 1.691406 C 81.480469 1.089844 83.167969 1.8125 84.253906 1.328125 C 84.734375 1.089844 84.617188 1.328125 84.617188 0.605469 C 84.617188 0.121094 84.855469 -0.121094 84.253906 -0.121094 C 83.410156 -0.121094 82.445312 -0.121094 81.601562 -0.121094 C 79.066406 -0.242188 74.847656 -1.089844 73.761719 2.054688 C 72.796875 4.957031 73.398438 8.703125 73.398438 11.726562 C 73.640625 15.109375 74.121094 18.253906 74.242188 21.515625 M 68.210938 30.339844 C 68.9375 29.855469 69.539062 29.375 70.140625 28.769531 C 58.441406 28.769531 46.863281 28.769531 35.164062 28.769531 C 35.648438 29.132812 36.613281 30.339844 37.214844 30.339844 C 37.9375 30.339844 38.664062 30.339844 39.507812 30.339844 C 43.125 30.339844 46.621094 30.339844 50.242188 30.339844 C 56.152344 30.339844 62.183594 30.339844 68.210938 30.339844 M 70.503906 28.285156 C 70.988281 27.800781 71.46875 27.199219 71.832031 26.714844 C 59.046875 26.714844 46.140625 26.714844 33.355469 26.714844 C 33.839844 27.441406 34.199219 28.285156 35.164062 28.285156 C 36.25 28.285156 37.335938 28.285156 38.542969 28.285156 C 42.644531 28.285156 46.742188 28.285156 50.84375 28.285156 C 57.476562 28.285156 63.992188 28.285156 70.503906 28.285156 M 72.191406 26.230469 C 72.554688 25.746094 72.796875 25.144531 73.035156 24.660156 C 59.40625 24.660156 45.898438 24.660156 32.269531 24.660156 C 32.753906 25.503906 32.753906 26.230469 33.71875 26.230469 C 34.921875 26.230469 36.25 26.230469 37.457031 26.230469 C 41.917969 26.230469 46.382812 26.230469 50.84375 26.230469 C 58.082031 26.230469 65.195312 26.230469 72.191406 26.230469 M 73.277344 24.296875 C 73.519531 23.8125 73.640625 23.207031 73.761719 22.605469 C 59.769531 22.605469 45.777344 22.605469 31.789062 22.605469 C 32.027344 23.570312 31.910156 24.296875 32.875 24.296875 C 34.199219 24.296875 35.527344 24.296875 36.851562 24.296875 C 41.558594 24.296875 46.261719 24.296875 50.964844 24.296875 C 58.441406 24.296875 65.800781 24.296875 73.277344 24.296875 M 73.761719 22.242188 C 73.761719 20.429688 73.640625 20.671875 72.070312 20.671875 C 70.019531 20.671875 67.972656 20.671875 65.921875 20.671875 C 59.769531 20.671875 53.496094 20.671875 47.347656 20.671875 C 42.523438 20.671875 37.699219 20.671875 32.875 20.671875 C 31.667969 20.671875 31.304688 20.550781 31.667969 22.121094 C 31.789062 22.484375 33.957031 22.242188 34.199219 22.242188 C 47.46875 22.242188 60.613281 22.242188 73.761719 22.242188 M 73.640625 20.1875 C 73.398438 19.097656 73.277344 18.617188 72.191406 18.617188 C 70.746094 18.617188 69.296875 18.617188 67.730469 18.617188 C 62.664062 18.617188 57.597656 18.617188 52.652344 18.617188 C 47.585938 18.617188 42.523438 18.617188 37.457031 18.617188 C 35.886719 18.617188 34.441406 18.617188 32.875 18.617188 C 31.667969 18.617188 31.910156 18.976562 31.546875 20.1875 C 45.65625 20.1875 59.648438 20.1875 73.640625 20.1875 M 72.796875 18.132812 C 72.191406 17.285156 71.953125 16.558594 70.867188 16.558594 C 69.417969 16.558594 68.089844 16.558594 66.644531 16.558594 C 61.820312 16.558594 56.996094 16.558594 52.171875 16.558594 C 47.347656 16.558594 42.523438 16.558594 37.699219 16.558594 C 36.371094 16.558594 34.921875 16.558594 33.597656 16.558594 C 32.390625 16.558594 32.511719 17.042969 32.027344 18.132812 C 45.777344 18.132812 59.285156 18.132812 72.796875 18.132812 M 71.347656 16.199219 C 70.746094 15.59375 70.140625 14.625 69.175781 14.625 C 67.972656 14.625 66.886719 14.625 65.679688 14.625 C 61.335938 14.625 56.875 14.625 52.53125 14.625 C 48.070312 14.625 43.488281 14.625 39.023438 14.625 C 37.699219 14.625 36.371094 14.625 35.042969 14.625 C 33.957031 14.625 33.71875 15.230469 33.113281 16.199219 C 45.898438 16.199219 58.683594 16.199219 71.347656 16.199219 M 69.054688 14.144531 C 68.332031 13.660156 67.367188 12.570312 66.523438 12.570312 C 65.679688 12.570312 64.714844 12.570312 63.871094 12.570312 C 59.890625 12.570312 55.910156 12.570312 52.050781 12.570312 C 48.070312 12.570312 44.089844 12.570312 40.109375 12.570312 C 39.023438 12.570312 37.9375 12.570312 36.851562 12.570312 C 36.007812 12.570312 35.285156 13.539062 34.683594 14.144531 C 46.140625 14.144531 57.597656 14.144531 69.054688 14.144531 M 65.921875 12.089844 C 64.351562 11.242188 62.785156 10.394531 61.097656 10.394531 C 57.960938 10.394531 54.703125 10.394531 51.566406 10.394531 C 48.191406 10.394531 44.8125 10.394531 41.4375 10.394531 C 39.628906 10.394531 38.421875 10.878906 36.972656 12.089844 C 46.621094 12.089844 56.273438 12.089844 65.921875 12.089844 M 60.855469 10.03125 C 57.597656 9.1875 54.34375 8.582031 50.964844 8.582031 C 47.46875 8.582031 44.453125 9.1875 41.074219 10.03125 C 47.585938 10.03125 54.222656 10.03125 60.855469 10.03125 M 43.003906 32.757812 C 49.515625 34.328125 56.632812 34.691406 63.148438 32.757812 C 56.390625 32.757812 49.757812 32.757812 43.003906 32.757812 "/>
</g>
</svg>
