<?xml version="1.0" encoding="UTF-8"?>
<svg xmlns="http://www.w3.org/2000/svg" xmlns:xlink="http://www.w3.org/1999/xlink" width="100px" height="79px" viewBox="0 0 100 79" version="1.1">
<g id="surface1">
<path style=" stroke:none;fill-rule:evenodd;fill:rgb(8.235294%,9.019608%,9.411765%);fill-opacity:1;" d="M 7.605469 10.292969 C 10.847656 12.917969 14.839844 13.921875 18.828125 14.546875 C 22.816406 15.171875 27.058594 15.546875 31.046875 15.796875 C 39.527344 16.046875 47.878906 15.921875 56.359375 15.671875 C 60.722656 15.546875 65.085938 15.296875 69.328125 15.171875 C 73.566406 15.046875 77.929688 15.296875 82.167969 14.421875 C 90.273438 12.667969 97.007812 7.792969 100 0.0351562 C 98.753906 0.160156 97.382812 0.285156 96.132812 0.285156 C 94.761719 0.410156 94.015625 0.160156 93.265625 1.285156 C 91.273438 4.664062 87.65625 7.414062 84.164062 9.042969 C 80.175781 10.792969 76.058594 10.667969 71.820312 10.917969 C 63.339844 11.292969 54.863281 11.667969 46.507812 11.542969 C 37.90625 11.417969 29.300781 11.167969 20.699219 10.417969 C 16.957031 10.167969 13.464844 8.042969 10.847656 5.539062 C 9.351562 4.164062 8.105469 2.664062 7.105469 0.910156 C 6.734375 0.285156 1.996094 0.660156 1.121094 0.660156 C 2.617188 4.289062 4.488281 7.792969 7.605469 10.292969 Z M 76.683594 16.796875 C 75.808594 17.921875 74.9375 19.046875 74.066406 20.050781 C 66.832031 29.179688 59.601562 38.3125 52.367188 47.441406 C 46.257812 55.199219 40.023438 62.953125 33.914062 70.707031 C 36.410156 70.707031 39.027344 70.707031 41.519531 70.707031 C 53.367188 55.824219 65.085938 41.0625 76.933594 26.179688 C 77.554688 25.429688 77.679688 25.304688 77.679688 24.300781 C 77.679688 21.550781 77.679688 18.921875 77.679688 16.171875 C 77.554688 15.546875 76.683594 16.671875 76.683594 16.796875 Z M 69.949219 23.800781 C 71.945312 21.175781 74.066406 18.671875 76.058594 16.046875 C 74.191406 16.046875 72.320312 16.171875 70.449219 16.171875 C 69.453125 16.171875 69.453125 16.546875 68.828125 17.296875 C 66.457031 20.300781 64.089844 23.300781 61.71875 26.304688 C 53.867188 36.183594 46.011719 46.066406 38.15625 55.824219 C 34.164062 60.828125 30.300781 65.707031 26.308594 70.707031 C 28.429688 70.707031 30.425781 70.707031 32.542969 70.707031 C 45.011719 55.074219 57.480469 39.4375 69.949219 23.800781 Z M 62.09375 24.175781 C 64.214844 21.550781 66.335938 18.796875 68.453125 16.171875 C 66.210938 16.296875 64.089844 16.296875 61.84375 16.421875 C 49.875 31.433594 38.03125 46.441406 26.058594 61.453125 C 25.6875 61.828125 24.9375 62.453125 24.9375 63.078125 C 24.9375 65.578125 24.9375 68.207031 24.9375 70.707031 C 25.4375 70.582031 25.6875 69.957031 26.058594 69.457031 C 27.058594 68.207031 28.054688 67.082031 28.925781 65.832031 C 32.167969 61.703125 35.535156 57.574219 38.777344 53.445312 C 46.632812 43.691406 54.363281 33.933594 62.09375 24.175781 Z M 86.78125 71.585938 C 77.429688 71.585938 68.078125 71.585938 58.726562 71.585938 C 58.726562 73.210938 58.726562 74.835938 58.726562 76.585938 C 58.726562 77.210938 58.355469 78.839844 59.101562 78.839844 C 62.09375 78.839844 65.085938 78.839844 68.078125 78.839844 C 73.941406 78.839844 79.675781 78.839844 85.535156 78.839844 C 87.40625 78.839844 87.28125 78.964844 87.28125 76.960938 C 87.15625 76.085938 87.65625 71.585938 86.78125 71.585938 Z M 57.730469 73.460938 C 57.730469 71.960938 58.105469 71.585938 56.734375 71.585938 C 53.367188 71.585938 50 71.585938 46.632812 71.585938 C 46.632812 73.335938 46.632812 75.085938 46.632812 76.960938 C 46.632812 78.464844 46.257812 78.839844 47.632812 78.839844 C 49.625 78.839844 51.746094 78.839844 53.742188 78.839844 C 54.363281 78.839844 57.230469 79.214844 57.730469 78.839844 C 57.980469 78.714844 57.730469 77.210938 57.730469 76.960938 C 57.730469 75.835938 57.730469 74.585938 57.730469 73.460938 Z M 45.511719 71.585938 C 36.285156 71.585938 27.183594 71.585938 17.957031 71.585938 C 17.957031 72.460938 17.707031 78.714844 18.078125 78.714844 C 20.699219 78.714844 23.191406 78.714844 25.808594 78.714844 C 31.671875 78.714844 37.53125 78.714844 43.515625 78.714844 C 45.136719 78.714844 45.636719 79.214844 45.636719 77.464844 C 45.636719 76.960938 45.886719 71.585938 45.511719 71.585938 Z M 84.414062 70.707031 C 85.535156 70.707031 84.539062 67.457031 84.164062 66.832031 C 82.542969 63.578125 79.675781 62.078125 76.433594 61.078125 C 76.433594 59.324219 76.558594 43.316406 76.308594 43.316406 C 72.691406 43.316406 69.078125 43.316406 65.460938 43.316406 C 64.214844 43.316406 64.214844 43.691406 63.339844 44.816406 C 62.34375 46.066406 61.347656 47.316406 60.347656 48.695312 C 62.34375 48.695312 64.464844 48.695312 66.457031 48.695312 C 67.332031 48.695312 68.078125 48.695312 68.953125 48.695312 C 69.203125 48.695312 69.078125 49.445312 69.078125 49.570312 C 69.078125 51.945312 69.078125 54.449219 69.078125 56.824219 C 69.078125 57.324219 69.453125 61.078125 68.953125 61.203125 C 65.960938 62.328125 62.71875 63.953125 61.597656 67.207031 C 61.347656 68.082031 60.972656 69.082031 61.097656 69.957031 C 61.097656 70.957031 61.222656 70.832031 62.09375 70.832031 C 64.089844 70.832031 65.960938 70.832031 67.957031 70.832031 C 66.457031 64.328125 79.675781 64.328125 78.179688 70.832031 C 80.175781 70.707031 82.292969 70.707031 84.414062 70.707031 Z M 11.597656 15.421875 C 10.222656 16.921875 8.105469 17.671875 6.234375 16.421875 C 4.488281 15.296875 4.238281 12.917969 4.363281 11.042969 C 4.363281 10.542969 4.738281 9.917969 4.738281 9.417969 C 4.738281 8.667969 4.738281 8.917969 4.363281 8.292969 C 3.742188 7.539062 3.117188 6.664062 2.617188 5.914062 C -0.996094 9.792969 -0.996094 16.546875 3.617188 19.675781 C 8.480469 23.050781 14.089844 20.175781 15.960938 15.046875 C 15.085938 14.921875 14.214844 14.671875 13.339844 14.421875 C 12.21875 13.921875 12.21875 14.671875 11.597656 15.421875 Z M 92.519531 11.167969 C 91.398438 11.917969 91.894531 11.917969 91.769531 13.042969 C 91.644531 14.546875 90.898438 15.921875 89.402344 16.421875 C 88.03125 16.921875 86.410156 16.546875 85.410156 15.546875 C 84.664062 14.796875 84.414062 14.796875 83.292969 15.171875 C 82.417969 15.421875 81.546875 15.546875 80.671875 15.671875 C 82.667969 19.550781 87.03125 22.300781 91.398438 20.550781 C 96.132812 18.796875 96.507812 13.421875 94.761719 9.292969 C 94.015625 10.042969 93.265625 10.667969 92.519531 11.167969 Z M 20.949219 24.800781 C 21.320312 25.179688 25.3125 27.179688 25.3125 27.179688 C 25.3125 28.804688 25.3125 30.429688 25.3125 32.058594 C 25.3125 37.3125 25.3125 42.441406 25.3125 47.691406 C 25.3125 47.941406 25.1875 48.445312 25.4375 48.445312 C 26.433594 48.445312 27.429688 48.445312 28.429688 48.445312 C 30.671875 48.445312 32.917969 48.445312 35.160156 48.445312 C 36.535156 46.691406 37.90625 44.941406 39.277344 43.191406 C 37.65625 43.191406 35.910156 43.191406 34.289062 43.191406 C 33.914062 43.191406 34.164062 40.8125 34.164062 40.4375 C 34.164062 36.308594 34.164062 32.183594 34.164062 28.054688 C 34.164062 26.679688 34.789062 27.054688 35.910156 26.304688 C 37.15625 25.554688 38.15625 24.800781 39.152344 23.925781 C 41.023438 22.175781 42.019531 19.550781 42.394531 17.046875 C 40.773438 17.046875 39.277344 17.046875 37.65625 17.046875 C 36.535156 17.046875 36.285156 16.796875 36.035156 17.921875 C 35.910156 18.546875 35.535156 19.046875 35.160156 19.550781 C 33.664062 21.550781 31.171875 22.425781 28.679688 22.175781 C 26.058594 21.925781 23.816406 20.175781 23.066406 17.796875 C 22.941406 17.421875 22.816406 16.171875 22.691406 16.171875 C 22.070312 16.171875 21.445312 16.046875 20.824219 15.921875 C 19.453125 15.796875 18.078125 15.546875 16.707031 15.296875 C 16.707031 19.046875 17.957031 22.300781 20.949219 24.800781 Z M 20.949219 24.800781 "/>
</g>
</svg>
