<?xml version="1.0" encoding="UTF-8"?>
<svg xmlns="http://www.w3.org/2000/svg" xmlns:xlink="http://www.w3.org/1999/xlink" width="68px" height="99px" viewBox="0 0 68 99" version="1.1">
<g id="surface1">
<path style=" stroke:none;fill-rule:nonzero;fill:rgb(95.294118%,70.588237%,10.588235%);fill-opacity:1;" d="M 50.898438 69.9375 L 17.101562 69.9375 L 17.375 67.90625 L 50.625 67.90625 Z M 50.898438 69.9375 "/>
<path style=" stroke:none;fill-rule:nonzero;fill:rgb(95.294118%,70.588237%,10.588235%);fill-opacity:1;" d="M 53.75 90.914062 L 14.25 90.914062 L 14.523438 88.886719 L 53.476562 88.886719 Z M 53.75 90.914062 "/>
<path style=" stroke:none;fill-rule:nonzero;fill:rgb(95.294118%,70.588237%,10.588235%);fill-opacity:1;" d="M 27.824219 88.207031 L 21.714844 73.050781 L 14.660156 88.207031 L 15.203125 84.285156 L 21.851562 70.480469 L 27.824219 85.367188 L 33.660156 70.207031 L 41.804688 85.367188 L 46.417969 70.34375 L 52.796875 84.417969 L 53.339844 87.9375 L 46.691406 73.320312 L 42.074219 88.074219 L 33.796875 72.78125 Z M 27.824219 88.207031 "/>
<path style=" stroke:none;fill-rule:nonzero;fill:rgb(95.294118%,45.09804%,17.254902%);fill-opacity:1;" d="M 29.996094 86.585938 L 33.933594 75.757812 L 39.226562 86.585938 Z M 29.996094 86.585938 "/>
<path style=" stroke:none;fill-rule:nonzero;fill:rgb(95.294118%,45.09804%,17.254902%);fill-opacity:1;" d="M 44.246094 86.585938 L 46.828125 75.757812 L 51.035156 86.585938 Z M 44.246094 86.585938 "/>
<path style=" stroke:none;fill-rule:nonzero;fill:rgb(95.294118%,45.09804%,17.254902%);fill-opacity:1;" d="M 45.0625 72.101562 L 41.667969 83.878906 L 36.105469 72.101562 Z M 45.0625 72.101562 "/>
<path style=" stroke:none;fill-rule:nonzero;fill:rgb(95.294118%,45.09804%,17.254902%);fill-opacity:1;" d="M 51.167969 72.101562 L 52.527344 81.847656 L 47.777344 72.101562 Z M 51.167969 72.101562 "/>
<path style=" stroke:none;fill-rule:nonzero;fill:rgb(95.294118%,45.09804%,17.254902%);fill-opacity:1;" d="M 16.832031 72.101562 L 15.472656 81.847656 L 20.085938 72.101562 Z M 16.832031 72.101562 "/>
<path style=" stroke:none;fill-rule:nonzero;fill:rgb(95.294118%,45.09804%,17.254902%);fill-opacity:1;" d="M 31.894531 72.101562 L 27.824219 83.878906 L 23.34375 72.101562 Z M 31.894531 72.101562 "/>
<path style=" stroke:none;fill-rule:nonzero;fill:rgb(95.294118%,45.09804%,17.254902%);fill-opacity:1;" d="M 16.695312 86.585938 L 21.714844 75.757812 L 25.382812 86.585938 Z M 16.695312 86.585938 "/>
<path style=" stroke:none;fill-rule:nonzero;fill:rgb(30.588236%,30.588236%,30.588236%);fill-opacity:1;" d="M 54.699219 93.214844 L 13.300781 93.214844 L 18.460938 53.964844 L 19.816406 54.101562 L 14.792969 91.863281 L 53.207031 91.863281 L 48.046875 54.101562 L 49.40625 53.964844 Z M 54.699219 93.214844 "/>
<path style=" stroke:none;fill-rule:nonzero;fill:rgb(30.588236%,30.588236%,30.588236%);fill-opacity:1;" d="M 44.65625 55.589844 L 23.34375 55.589844 C 18.050781 55.589844 13.164062 51.53125 11.671875 45.84375 L 2.035156 9.574219 L 3.394531 9.167969 L 12.894531 45.574219 C 14.25 50.582031 18.59375 54.238281 23.210938 54.238281 L 44.519531 54.238281 C 49.269531 54.238281 53.613281 50.582031 54.835938 45.574219 L 64.335938 9.167969 L 65.691406 9.574219 L 56.191406 45.980469 C 54.835938 51.53125 49.949219 55.589844 44.65625 55.589844 Z M 44.65625 55.589844 "/>
<path style=" stroke:none;fill-rule:nonzero;fill:rgb(72.549021%,39.215687%,25.882354%);fill-opacity:1;" d="M 61.078125 12.007812 L 52.796875 43.542969 C 51.578125 48.28125 47.503906 51.53125 43.160156 51.53125 L 24.703125 51.53125 C 20.496094 51.53125 16.289062 48.28125 15.066406 43.542969 L 6.921875 12.007812 Z M 61.078125 12.007812 "/>
<path style=" stroke:none;fill-rule:nonzero;fill:rgb(30.588236%,30.588236%,30.588236%);fill-opacity:1;" d="M 65.148438 9.980469 L 2.714844 9.980469 C 1.222656 9.980469 0 8.761719 0 7.273438 L 0 3.078125 C 0 1.453125 1.355469 0.0976562 2.984375 0.0976562 L 64.878906 0.0976562 C 66.507812 0.0976562 67.863281 1.453125 67.863281 3.078125 L 67.863281 7.273438 C 68 8.761719 66.777344 9.980469 65.148438 9.980469 Z M 2.984375 1.453125 C 2.035156 1.453125 1.355469 2.128906 1.355469 3.078125 L 1.355469 7.273438 C 1.355469 8.085938 2.035156 8.625 2.714844 8.625 L 65.148438 8.625 C 65.964844 8.625 66.507812 7.949219 66.507812 7.273438 L 66.507812 3.078125 C 66.507812 2.128906 65.828125 1.453125 64.878906 1.453125 Z M 2.984375 1.453125 "/>
<path style=" stroke:none;fill-rule:nonzero;fill:rgb(30.588236%,30.588236%,30.588236%);fill-opacity:1;" d="M 18.050781 62.222656 L 49.949219 62.222656 L 49.949219 63.574219 L 18.050781 63.574219 Z M 18.050781 62.222656 "/>
<path style=" stroke:none;fill-rule:nonzero;fill:rgb(30.588236%,30.588236%,30.588236%);fill-opacity:1;" d="M 18.59375 58.164062 L 49.40625 58.164062 L 49.40625 59.515625 L 18.59375 59.515625 Z M 18.59375 58.164062 "/>
<path style=" stroke:none;fill-rule:nonzero;fill:rgb(30.588236%,30.588236%,30.588236%);fill-opacity:1;" d="M 11.945312 44.628906 L 55.921875 44.628906 L 55.921875 45.980469 L 11.945312 45.980469 Z M 11.945312 44.628906 "/>
<path style=" stroke:none;fill-rule:nonzero;fill:rgb(30.588236%,30.588236%,30.588236%);fill-opacity:1;" d="M 11.347656 44.578125 L 19.726562 9.28125 L 21.046875 9.59375 L 12.667969 44.890625 Z M 11.347656 44.578125 "/>
<path style=" stroke:none;fill-rule:nonzero;fill:rgb(30.588236%,30.588236%,30.588236%);fill-opacity:1;" d="M 19.78125 9.546875 L 21.109375 9.273438 L 28.554688 45.191406 L 27.226562 45.464844 Z M 19.78125 9.546875 "/>
<path style=" stroke:none;fill-rule:nonzero;fill:rgb(30.588236%,30.588236%,30.588236%);fill-opacity:1;" d="M 27.199219 45.128906 L 34.457031 9.171875 L 35.789062 9.4375 L 28.53125 45.394531 Z M 27.199219 45.128906 "/>
<path style=" stroke:none;fill-rule:nonzero;fill:rgb(30.588236%,30.588236%,30.588236%);fill-opacity:1;" d="M 34.527344 9.527344 L 35.859375 9.257812 L 43.125 45.214844 L 41.796875 45.480469 Z M 34.527344 9.527344 "/>
<path style=" stroke:none;fill-rule:nonzero;fill:rgb(30.588236%,30.588236%,30.588236%);fill-opacity:1;" d="M 41.761719 45.136719 L 48.949219 9.167969 L 50.277344 9.433594 L 43.089844 45.402344 Z M 41.761719 45.136719 "/>
<path style=" stroke:none;fill-rule:nonzero;fill:rgb(30.588236%,30.588236%,30.588236%);fill-opacity:1;" d="M 48.914062 9.554688 L 50.25 9.324219 L 56.425781 45.207031 L 55.089844 45.4375 Z M 48.914062 9.554688 "/>
<path style=" stroke:none;fill-rule:nonzero;fill:rgb(30.588236%,30.588236%,30.588236%);fill-opacity:1;" d="M 52.121094 98.902344 L 16.289062 98.902344 C 12.894531 98.902344 10.042969 96.058594 10.042969 92.675781 L 10.042969 92 L 58.226562 92 L 58.226562 92.675781 C 58.226562 96.058594 55.511719 98.902344 52.121094 98.902344 Z M 11.535156 93.214844 C 11.808594 95.652344 13.84375 97.546875 16.289062 97.546875 L 51.984375 97.546875 C 54.425781 97.546875 56.464844 95.652344 56.734375 93.351562 L 11.535156 93.351562 Z M 11.535156 93.214844 "/>
</g>
</svg>
