<?xml version="1.0" encoding="UTF-8"?>
<svg xmlns="http://www.w3.org/2000/svg" xmlns:xlink="http://www.w3.org/1999/xlink" width="100px" height="52px" viewBox="0 0 100 52" version="1.1">
<g id="surface1">
<path style=" stroke:none;fill-rule:nonzero;fill:rgb(0%,0%,0%);fill-opacity:1;" d="M 100 29.496094 C 90.167969 5.023438 68.175781 3.339844 44.371094 0.359375 C 44.5 2.433594 44.5 4.761719 44.632812 6.964844 C 43.46875 7.222656 41.527344 7.871094 40.363281 8.257812 C 40.492188 8.90625 40.621094 9.296875 40.75 9.941406 C 40.101562 10.203125 36.871094 11.238281 35.1875 11.753906 C 35.316406 12.53125 35.316406 13.308594 35.316406 13.957031 C 34.28125 14.34375 33.117188 14.734375 31.953125 15.25 C 32.210938 16.160156 32.472656 16.933594 32.730469 17.972656 C 31.4375 18.75 30.140625 19.523438 28.589844 20.433594 C 22.25 14.992188 7.246094 10.847656 0 12.402344 C 9.574219 21.726562 16.558594 35.324219 16.171875 48.144531 C 25.613281 46.332031 29.105469 44.519531 37.515625 38.820312 C 39.585938 40.503906 42.433594 43.222656 44.242188 44.90625 C 42.691406 46.976562 41.398438 48.273438 39.714844 50.214844 C 60.15625 53.972656 84.992188 50.34375 97.152344 37.265625 C 95.34375 35.582031 92.753906 32.992188 91.980469 32.214844 C 94.566406 31.179688 97.414062 30.402344 100 29.496094 Z M 19.921875 42.574219 C 19.277344 38.5625 17.464844 32.605469 15.652344 29.367188 C 20.699219 30.402344 23.027344 35.582031 24.96875 40.246094 C 23.15625 41.152344 21.734375 41.796875 19.921875 42.574219 Z M 30.011719 41.796875 C 27.039062 34.417969 18.242188 25.351562 11.511719 24.058594 C 10.347656 22.375 9.183594 20.5625 8.019531 18.878906 C 17.722656 19.914062 28.460938 31.566406 32.082031 40.113281 C 31.4375 40.632812 30.53125 41.28125 30.011719 41.796875 Z M 33.246094 39.078125 C 29.367188 29.109375 17.207031 17.972656 6.855469 16.804688 C 6.082031 15.769531 5.304688 14.863281 4.527344 13.828125 C 19.277344 14.863281 31.304688 20.691406 36.609375 36.359375 C 35.574219 37.265625 34.410156 38.171875 33.246094 39.078125 Z M 39.714844 35.324219 C 40.621094 34.675781 42.171875 33.640625 42.691406 33.25 C 41.398438 32.605469 38.035156 30.015625 37.257812 28.976562 C 39.84375 29.753906 42.820312 30.53125 45.277344 31.4375 C 46.699219 33.511719 48.898438 35.710938 50.710938 37.394531 C 50.324219 37.785156 48.898438 39.207031 48.511719 39.597656 C 46.570312 39.46875 41.65625 36.617188 39.714844 35.324219 Z M 46.054688 43.613281 C 49.160156 40.890625 52.003906 38.429688 54.980469 35.972656 C 54.203125 35.195312 53.300781 34.160156 52.523438 33.382812 C 53.429688 33.25 55.367188 32.992188 56.664062 32.863281 C 58.601562 35.195312 63 40.890625 64.035156 42.1875 C 64.164062 42.316406 64.035156 42.316406 64.035156 42.316406 C 61.0625 41.152344 58.730469 39.078125 56.015625 36.878906 C 52.78125 39.207031 50.066406 41.410156 46.960938 44 C 46.699219 43.871094 46.441406 43.742188 46.054688 43.613281 Z M 50.195312 16.675781 C 55.109375 14.605469 58.730469 14.214844 63.390625 13.4375 C 63.519531 13.4375 63.519531 13.4375 63.390625 13.570312 C 59.898438 16.289062 56.664062 19.007812 53.429688 21.984375 C 52.523438 20.433594 51.101562 18.230469 50.195312 16.675781 Z M 52.394531 47.367188 C 52.523438 47.109375 55.5 45.292969 56.402344 44.648438 C 56.015625 44.519531 54.464844 44.128906 53.429688 43.871094 C 53.429688 43.871094 53.429688 43.871094 53.429688 43.742188 C 54.722656 43.480469 56.015625 43.222656 57.308594 42.835938 C 56.664062 42.574219 54.851562 41.667969 53.816406 41.019531 C 54.851562 40.761719 55.628906 40.632812 56.664062 40.375 C 60.15625 42.574219 64.035156 44.257812 67.789062 45.8125 C 65.460938 47.625 55.757812 48.402344 52.394531 47.367188 Z M 70.761719 45.425781 C 65.71875 39.46875 58.085938 30.273438 55.238281 26.90625 C 60.285156 21.855469 65.070312 17.195312 70.117188 12.273438 C 71.28125 12.402344 72.445312 12.53125 73.609375 12.660156 C 69.210938 16.933594 64.683594 21.339844 60.027344 25.222656 C 65.847656 31.828125 75.421875 44.90625 76.324219 46.332031 C 74.386719 46.203125 72.445312 45.941406 70.761719 45.425781 Z M 77.621094 46.332031 C 76.066406 44.257812 66.753906 32.085938 61.707031 25.613281 C 63.90625 23.539062 72.574219 15.382812 74.773438 13.308594 C 75.808594 13.570312 76.972656 13.828125 78.007812 14.085938 C 77.101562 14.863281 65.070312 25.222656 64.164062 25.871094 C 68.304688 30.792969 79.300781 43.613281 80.207031 45.554688 C 79.429688 45.8125 78.523438 46.070312 77.621094 46.332031 Z M 81.890625 45.035156 C 79.171875 41.796875 66.882812 27.164062 66.234375 26 C 70.761719 21.855469 74.902344 18.359375 79.691406 14.476562 C 81.113281 14.992188 82.277344 15.511719 83.570312 16.160156 C 79.558594 19.523438 75.160156 23.28125 71.023438 26.777344 C 75.9375 32.605469 80.984375 38.429688 85.640625 43.613281 C 84.347656 44 83.3125 44.386719 81.890625 45.035156 Z M 80.984375 26 C 80.855469 25.351562 80.722656 24.703125 80.464844 24.058594 C 81.757812 23.796875 84.605469 23.28125 86.289062 23.023438 C 86.417969 23.667969 86.546875 24.574219 86.675781 24.964844 C 84.734375 25.351562 82.792969 25.742188 80.984375 26 Z M 77.101562 11.886719 C 64.296875 8.648438 54.722656 11.109375 45.019531 17.066406 C 46.570312 20.171875 49.417969 23.796875 52.003906 27.683594 C 47.734375 28.070312 39.714844 25.613281 36.351562 23.410156 C 36.351562 23.410156 39.972656 22.890625 41.65625 22.503906 C 40.492188 21.46875 38.808594 19.785156 37.515625 18.488281 C 37.515625 18.488281 37.515625 18.359375 37.515625 18.359375 C 39.328125 18.878906 41.785156 19.65625 43.597656 20.171875 C 43.207031 19.136719 41.914062 15.25 41.136719 12.921875 C 41.65625 12.792969 42.433594 12.53125 42.949219 12.402344 C 43.335938 13.179688 43.726562 14.085938 44.113281 14.992188 C 46.054688 14.085938 48.125 13.179688 50.066406 12.273438 C 49.546875 9.8125 48.898438 7.351562 48.382812 4.761719 C 55.109375 5.667969 66.105469 7.480469 72.574219 8.777344 C 87.320312 11.625 93.144531 18.101562 98.058594 28.589844 C 97.414062 28.71875 96.894531 28.976562 96.25 29.238281 C 92.496094 21.726562 88.617188 14.734375 77.101562 11.886719 Z M 77.101562 11.886719 "/>
</g>
</svg>
