<?xml version="1.0" encoding="UTF-8"?>
<svg xmlns="http://www.w3.org/2000/svg" xmlns:xlink="http://www.w3.org/1999/xlink" width="95px" height="100px" viewBox="0 0 95 100" version="1.1">
<g id="surface1">
<path style=" stroke:none;fill-rule:nonzero;fill:rgb(0.392157%,0.392157%,0.392157%);fill-opacity:1;" d="M 54.261719 36.019531 C 54.261719 36.019531 54.851562 35.136719 55.738281 34.84375 C 56.5625 34.550781 57.683594 33.84375 57.683594 33.84375 C 57.683594 33.84375 54.496094 33.488281 54.261719 36.019531 Z M 54.261719 36.019531 "/>
<path style=" stroke:none;fill-rule:nonzero;fill:rgb(0.392157%,0.392157%,0.392157%);fill-opacity:1;" d="M 38.378906 33.785156 C 38.378906 33.785156 40.445312 35.078125 40.796875 35.667969 C 41.152344 36.257812 41.328125 36.609375 41.328125 36.609375 C 41.328125 36.609375 41.507812 34.136719 38.378906 33.785156 Z M 38.378906 33.785156 "/>
<path style=" stroke:none;fill-rule:nonzero;fill:rgb(0.392157%,0.392157%,0.392157%);fill-opacity:1;" d="M 61.226562 36.199219 C 62.703125 36.136719 63.765625 34.550781 63.765625 34.550781 C 63.765625 34.550781 63.765625 34.550781 62.054688 35.136719 C 60.34375 35.726562 60.164062 35.550781 59.339844 35.609375 C 58.570312 35.667969 57.742188 36.019531 57.210938 36.199219 C 56.621094 36.433594 55.914062 37.082031 54.734375 38.023438 C 53.550781 38.90625 53.375 39.082031 52.253906 38.492188 C 52.015625 38.375 51.78125 38.257812 51.601562 38.257812 C 51.367188 38.023438 51.011719 37.785156 50.835938 37.492188 C 50.363281 36.84375 50.246094 35.960938 49.832031 35.3125 C 49.832031 35.253906 49.773438 35.3125 49.773438 35.3125 C 49.714844 36.199219 49.832031 37.082031 50.128906 37.902344 C 50.1875 38.082031 50.304688 38.257812 50.421875 38.433594 C 49.949219 38.550781 49.359375 38.789062 48.535156 38.964844 C 46.464844 39.375 46.171875 39.023438 45.464844 38.492188 C 45.699219 38.140625 45.757812 37.550781 45.816406 37.257812 C 45.933594 36.667969 46.230469 35.667969 46.054688 35.078125 C 46.054688 35.019531 45.933594 35.019531 45.933594 35.078125 C 45.699219 35.609375 45.582031 36.257812 45.285156 36.785156 C 45.109375 37.082031 44.929688 37.375 44.695312 37.667969 C 44.460938 37.964844 44.578125 37.785156 44.28125 38.023438 C 43.867188 38.023438 43.277344 38.140625 42.15625 38.082031 C 39.972656 37.964844 41.269531 37.550781 39.855469 36.609375 C 38.4375 35.667969 36.429688 35.667969 35.070312 35.550781 C 33.714844 35.433594 32.472656 34.902344 32.472656 34.902344 C 32.472656 34.902344 32.355469 35.433594 33.65625 35.726562 C 34.953125 36.019531 36.074219 36.019531 36.074219 36.019531 C 36.074219 36.019531 36.84375 36.316406 35.542969 36.257812 C 34.246094 36.199219 33.832031 37.199219 33.0625 37.433594 C 32.296875 37.667969 32 37.019531 32.238281 37.433594 C 32.472656 37.84375 33.417969 38.316406 33.890625 38.492188 C 34.363281 38.667969 35.070312 38.257812 35.25 37.84375 C 35.425781 37.375 36.253906 36.84375 37.019531 37.199219 C 37.90625 37.667969 38.023438 37.964844 38.4375 39.140625 C 38.730469 40.023438 38.4375 40.316406 38.730469 40.730469 C 39.027344 41.140625 39.675781 41.082031 39.914062 41.316406 C 40.148438 41.554688 40.207031 40.789062 40.207031 40.789062 C 40.207031 40.789062 40.386719 40.433594 40.445312 40.199219 C 40.503906 39.90625 39.914062 40.023438 39.914062 40.023438 C 39.914062 40.023438 39.914062 39.433594 40.207031 39.550781 C 40.503906 39.671875 41.390625 39.550781 42.453125 39.257812 C 43.515625 38.964844 44.753906 39.257812 44.753906 39.257812 C 44.753906 39.257812 46.289062 40.023438 46.9375 40.257812 C 47.589844 40.492188 47.882812 40.257812 49.65625 39.671875 C 51.425781 39.082031 51.308594 39.375 52.195312 39.609375 C 53.078125 39.847656 55.441406 40.140625 55.441406 40.140625 L 55.441406 41.316406 C 55.441406 41.316406 55.441406 41.316406 55.675781 41.082031 C 55.914062 40.847656 56.269531 41.023438 56.679688 40.671875 C 57.152344 40.316406 56.679688 39.789062 56.679688 39.789062 C 56.679688 39.789062 56.800781 39.257812 57.449219 38.023438 C 58.097656 36.726562 59.398438 37.433594 59.808594 37.550781 C 60.222656 37.726562 60.28125 38.375 61.226562 38.433594 C 62.171875 38.492188 63.234375 37.550781 63.234375 37.550781 C 63.234375 37.550781 59.75 36.257812 61.226562 36.199219 Z M 61.226562 36.199219 "/>
<path style=" stroke:none;fill-rule:nonzero;fill:rgb(0.392157%,0.392157%,0.392157%);fill-opacity:1;" d="M 57.390625 37.140625 C 57.390625 37.140625 57.390625 39.199219 58.273438 39.082031 C 59.042969 39.023438 59.101562 37.492188 58.925781 37.140625 C 58.808594 36.726562 57.921875 36.550781 57.390625 37.140625 Z M 57.390625 37.140625 "/>
<path style=" stroke:none;fill-rule:nonzero;fill:rgb(0.392157%,0.392157%,0.392157%);fill-opacity:1;" d="M 36.726562 36.609375 C 36.726562 36.609375 36.253906 38.023438 36.664062 38.550781 C 37.078125 39.140625 37.078125 39.316406 37.550781 38.726562 C 38.023438 38.140625 37.964844 37.140625 37.964844 37.140625 C 37.964844 37.140625 36.960938 36.199219 36.726562 36.609375 Z M 36.726562 36.609375 "/>
<path style=" stroke:none;fill-rule:nonzero;fill:rgb(0.392157%,0.392157%,0.392157%);fill-opacity:1;" d="M 55.972656 40.140625 C 55.972656 40.140625 56.5625 39.375 57.683594 39.550781 C 58.808594 39.789062 58.984375 40.257812 59.457031 39.492188 C 59.988281 38.726562 60.28125 37.726562 60.28125 37.726562 L 61.285156 37.84375 C 61.285156 37.84375 60.636719 38.316406 60.28125 38.90625 C 59.929688 39.433594 59.101562 40.316406 57.625 40.082031 C 56.269531 39.964844 56.328125 39.730469 55.972656 40.140625 Z M 55.972656 40.140625 "/>
<path style=" stroke:none;fill-rule:nonzero;fill:rgb(0.392157%,0.392157%,0.392157%);fill-opacity:1;" d="M 55.675781 42.140625 C 55.675781 42.140625 56.503906 42.554688 57.152344 42.140625 C 57.742188 41.730469 57.742188 41.730469 57.742188 41.730469 C 57.742188 41.730469 56.917969 44.4375 55.675781 42.140625 Z M 55.675781 42.140625 "/>
<path style=" stroke:none;fill-rule:nonzero;fill:rgb(0.392157%,0.392157%,0.392157%);fill-opacity:1;" d="M 56.328125 41.257812 C 56.328125 41.257812 56.859375 41.257812 57.390625 40.964844 C 57.980469 40.671875 57.980469 40.671875 58.6875 40.671875 C 59.398438 40.671875 60.875 40.964844 61.34375 40.140625 C 61.875 39.316406 62.171875 38.964844 62.171875 38.964844 C 62.171875 38.964844 61.464844 41.378906 59.21875 41.199219 C 57.035156 41.140625 56.03125 42.789062 56.328125 41.257812 Z M 56.328125 41.257812 "/>
<path style=" stroke:none;fill-rule:nonzero;fill:rgb(0.392157%,0.392157%,0.392157%);fill-opacity:1;" d="M 34.894531 37.375 C 34.894531 37.375 35.25 39.140625 35.722656 39.375 C 36.253906 39.671875 36.132812 39.90625 36.960938 39.730469 C 37.789062 39.550781 39.085938 39.671875 38.851562 40.140625 C 38.613281 40.613281 38.671875 39.789062 37.964844 39.90625 C 37.257812 39.964844 36.605469 40.613281 36.074219 40.140625 C 35.484375 39.730469 34.066406 39.199219 34.894531 37.375 Z M 34.894531 37.375 "/>
<path style=" stroke:none;fill-rule:nonzero;fill:rgb(0.392157%,0.392157%,0.392157%);fill-opacity:1;" d="M 37.550781 41.257812 C 37.550781 41.257812 37.726562 41.847656 38.320312 41.789062 C 38.910156 41.730469 38.851562 41.554688 38.851562 41.554688 C 38.851562 41.554688 38.613281 41.140625 37.90625 40.90625 C 37.257812 40.671875 36.429688 41.082031 35.898438 40.90625 C 35.308594 40.730469 34.007812 40.140625 33.300781 39.375 C 32.652344 38.667969 34.007812 41.199219 35.070312 41.257812 C 36.253906 41.316406 37.195312 40.789062 37.550781 41.257812 Z M 37.550781 41.257812 "/>
<path style=" stroke:none;fill-rule:nonzero;fill:rgb(0.392157%,0.392157%,0.392157%);fill-opacity:1;" d="M 54.496094 40.492188 C 54.496094 40.492188 54.023438 41.257812 54.734375 42.4375 C 55.382812 43.554688 56.328125 44.910156 56.269531 45.496094 C 56.207031 46.085938 56.207031 46.085938 56.207031 46.085938 C 56.207031 46.085938 56.859375 46.734375 56.738281 47.851562 C 56.621094 48.96875 56.269531 48.734375 56.269531 48.734375 C 56.269531 48.734375 57.210938 49.207031 56.738281 50.558594 C 56.328125 51.972656 56.148438 51.972656 56.269531 52.324219 C 56.386719 52.738281 56.03125 52.558594 56.03125 52.558594 L 56.03125 51.5 C 56.03125 51.5 53.671875 52.914062 53.609375 52.621094 C 53.550781 52.265625 54.4375 51.558594 54.4375 51.558594 C 54.4375 51.558594 55.558594 51.382812 55.796875 50.558594 C 56.03125 49.734375 55.796875 49.207031 55.207031 48.5 C 54.613281 47.792969 52.195312 47.558594 51.484375 45.851562 C 50.835938 44.144531 51.132812 44.554688 51.132812 44.554688 C 51.132812 44.554688 51.191406 45.613281 52.371094 46.144531 C 53.550781 46.675781 54.203125 46.792969 55.027344 47.320312 C 55.796875 47.851562 56.089844 48.144531 56.089844 48.144531 C 56.089844 48.144531 56.445312 47.320312 55.796875 46.378906 C 55.144531 45.4375 54.320312 44.910156 53.257812 44.320312 C 52.195312 43.730469 52.136719 43.082031 52.136719 43.082031 C 52.136719 43.082031 52.667969 43.554688 53.375 43.90625 C 54.082031 44.261719 54.910156 44.496094 54.910156 44.496094 C 54.910156 44.496094 52.546875 42.90625 54.496094 40.492188 Z M 54.496094 40.492188 "/>
<path style=" stroke:none;fill-rule:nonzero;fill:rgb(0.392157%,0.392157%,0.392157%);fill-opacity:1;" d="M 41.269531 40.492188 C 41.269531 40.492188 41.742188 41.257812 41.035156 42.4375 C 40.386719 43.554688 39.441406 44.910156 39.5 45.496094 C 39.558594 46.085938 39.558594 46.085938 39.558594 46.085938 C 39.558594 46.085938 38.910156 46.734375 39.027344 47.851562 C 39.144531 48.96875 39.5 48.734375 39.5 48.734375 C 39.5 48.734375 38.554688 49.207031 39.027344 50.558594 C 39.441406 51.972656 39.617188 51.972656 39.5 52.324219 C 39.382812 52.738281 39.734375 52.558594 39.734375 52.558594 L 39.734375 51.5 C 39.734375 51.5 41.269531 52.679688 41.390625 52.324219 C 41.449219 51.972656 41.390625 51.558594 41.390625 51.558594 C 41.390625 51.558594 40.265625 51.382812 40.089844 50.558594 C 39.855469 49.734375 40.089844 49.207031 40.679688 48.5 C 41.269531 47.792969 43.691406 47.558594 44.398438 45.851562 C 45.050781 44.144531 44.753906 44.554688 44.753906 44.554688 C 44.753906 44.554688 44.695312 45.613281 43.515625 46.144531 C 42.332031 46.675781 41.683594 46.792969 40.859375 47.320312 C 40.089844 47.851562 39.792969 48.144531 39.792969 48.144531 C 39.792969 48.144531 39.441406 47.320312 40.089844 46.378906 C 40.738281 45.4375 41.566406 44.910156 42.628906 44.320312 C 43.691406 43.730469 43.75 43.082031 43.75 43.082031 C 43.75 43.082031 43.21875 43.554688 42.511719 43.90625 C 41.800781 44.261719 40.976562 44.496094 40.976562 44.496094 C 40.976562 44.496094 43.21875 42.90625 41.269531 40.492188 Z M 41.269531 40.492188 "/>
<path style=" stroke:none;fill-rule:nonzero;fill:rgb(0.392157%,0.392157%,0.392157%);fill-opacity:1;" d="M 41.269531 51.914062 C 41.269531 51.914062 41.328125 50.972656 42.6875 50.792969 C 44.046875 50.617188 45.757812 51.148438 46.527344 51.089844 C 47.234375 51.03125 50.070312 51.089844 51.011719 50.792969 C 51.957031 50.5 54.378906 50.792969 54.320312 51.972656 C 54.261719 53.148438 53.136719 53.089844 53.136719 53.089844 C 53.136719 53.089844 50.128906 54.855469 49.832031 55.089844 C 49.535156 55.386719 49.773438 56.210938 48.945312 56.621094 C 48.121094 57.035156 48.59375 56.855469 48.59375 56.976562 C 48.472656 57.976562 48.652344 59.445312 48.769531 59.917969 C 48.945312 60.449219 46.644531 60.507812 46.644531 60.507812 C 46.644531 60.507812 46.9375 57.386719 46.820312 57.035156 C 46.703125 56.679688 45.699219 56.269531 45.523438 55.328125 C 45.464844 54.972656 45.464844 54.972656 45.464844 54.972656 C 45.464844 54.972656 45.109375 54.621094 44.339844 54.207031 C 43.515625 53.738281 41.152344 53.03125 41.269531 51.914062 Z M 41.269531 51.914062 "/>
<path style=" stroke:none;fill-rule:nonzero;fill:rgb(0.392157%,0.392157%,0.392157%);fill-opacity:1;" d="M 47.824219 60.449219 C 47.824219 60.449219 48.59375 60.449219 49.476562 60.976562 C 50.304688 61.507812 53.730469 62.859375 55.324219 63.039062 C 56.917969 63.214844 60.875 63.800781 61.875 62.332031 C 62.878906 60.800781 63.058594 59.917969 62.941406 57.976562 C 62.820312 56.03125 62.230469 54.679688 62.230469 54.679688 L 61.816406 54.089844 C 61.816406 54.089844 61.9375 52.621094 61.816406 51.441406 C 61.699219 50.265625 61.699219 50.265625 61.699219 50.265625 C 61.699219 50.265625 62.289062 49.675781 63.472656 49.265625 C 64.652344 48.851562 65.773438 48.085938 65.773438 48.085938 C 65.773438 48.085938 66.1875 48.144531 66.246094 47.027344 C 66.304688 45.910156 66.421875 45.4375 66.246094 43.90625 C 66.070312 42.320312 65.65625 42.378906 65.65625 42.378906 C 65.65625 42.378906 66.601562 46.203125 65.417969 47.085938 C 64.238281 47.96875 63.472656 48.144531 62.46875 48.851562 C 61.523438 49.558594 61.523438 49.558594 61.523438 49.558594 C 61.523438 49.558594 60.460938 47.203125 59.871094 46.320312 C 59.277344 45.4375 57.332031 44.496094 57.332031 44.496094 C 57.332031 44.496094 60.460938 46.675781 60.519531 49.558594 C 60.578125 52.441406 60.578125 52.738281 60.578125 52.738281 C 60.578125 52.738281 59.75 52.265625 58.984375 51.855469 C 58.15625 51.382812 59.988281 53.089844 60.695312 53.855469 C 61.699219 54.914062 62.410156 57.5625 61.875 59.917969 C 61.464844 61.917969 60.34375 62.683594 58.15625 62.625 C 55.972656 62.566406 53.316406 61.917969 51.78125 61.273438 C 50.1875 60.683594 48.414062 59.742188 47.941406 59.742188 C 47.410156 59.683594 47.824219 60.449219 47.824219 60.449219 Z M 47.824219 60.449219 "/>
<path style=" stroke:none;fill-rule:nonzero;fill:rgb(0.392157%,0.392157%,0.392157%);fill-opacity:1;" d="M 48.414062 60.507812 C 48.414062 60.507812 47.292969 60.328125 46.464844 60.800781 C 45.640625 61.332031 42.214844 62.683594 40.621094 62.859375 C 39.027344 63.039062 35.070312 63.625 34.066406 62.15625 C 33.0625 60.625 32.886719 59.742188 33.003906 57.800781 C 33.125 55.855469 33.714844 54.503906 33.714844 54.503906 L 34.125 53.914062 C 34.125 53.914062 34.007812 52.441406 34.125 51.265625 C 34.246094 50.089844 34.246094 50.089844 34.246094 50.089844 C 34.246094 50.089844 33.65625 49.5 32.472656 49.085938 C 31.292969 48.675781 30.171875 47.910156 30.171875 47.910156 C 30.171875 47.910156 29.757812 47.96875 29.699219 46.851562 C 29.640625 45.734375 29.519531 45.261719 29.699219 43.730469 C 29.875 42.140625 30.289062 42.199219 30.289062 42.199219 C 30.289062 42.199219 29.34375 46.027344 30.523438 46.910156 C 31.707031 47.792969 32.472656 47.96875 33.476562 48.675781 C 34.421875 49.382812 34.421875 49.382812 34.421875 49.382812 C 34.421875 49.382812 35.484375 47.027344 36.074219 46.144531 C 36.664062 45.261719 38.613281 44.320312 38.613281 44.320312 C 38.613281 44.320312 35.484375 46.496094 35.425781 49.382812 C 35.367188 52.265625 35.367188 52.558594 35.367188 52.558594 C 35.367188 52.558594 36.191406 52.089844 36.960938 51.675781 C 37.789062 51.207031 35.722656 52.855469 35.011719 53.621094 C 34.007812 54.679688 33.59375 57.386719 34.066406 59.742188 C 34.480469 61.742188 35.601562 62.507812 37.789062 62.449219 C 39.972656 62.390625 42.628906 61.742188 44.164062 61.09375 C 45.757812 60.507812 47.53125 59.566406 48 59.566406 C 48.472656 59.566406 48.414062 60.507812 48.414062 60.507812 Z M 48.414062 60.507812 "/>
<path style=" stroke:none;fill-rule:nonzero;fill:rgb(0.392157%,0.392157%,0.392157%);fill-opacity:1;" d="M 44.753906 61.210938 C 44.753906 61.210938 45.996094 61.449219 46.40625 61.449219 C 46.820312 61.449219 47.058594 60.859375 47.648438 61.210938 C 48.238281 61.566406 48.945312 61.449219 48.945312 61.449219 C 48.945312 61.449219 50.007812 61.332031 50.128906 61.09375 C 50.246094 60.859375 51.25 61.449219 51.25 61.449219 C 51.25 61.449219 50.007812 61.683594 49.65625 61.976562 C 49.300781 62.332031 48.535156 61.976562 48.535156 61.976562 C 48.535156 61.976562 47.234375 61.449219 46.761719 61.800781 C 46.289062 62.15625 45.933594 61.566406 45.933594 61.566406 L 44.695312 61.800781 L 43.988281 61.566406 Z M 44.753906 61.210938 "/>
<path style=" stroke:none;fill-rule:nonzero;fill:rgb(0.392157%,0.392157%,0.392157%);fill-opacity:1;" d="M 41.863281 62.15625 C 41.863281 62.15625 41.863281 62.214844 41.800781 62.332031 C 41.507812 62.980469 40.503906 65.390625 40.503906 65.863281 C 40.445312 66.390625 39.5 62.742188 39.5 62.742188 L 39.085938 62.800781 C 39.085938 62.800781 39.675781 64.566406 39.914062 66.273438 C 40.148438 67.980469 40.265625 69.6875 40.265625 70.570312 C 40.265625 71.453125 40.5625 74.75 42.332031 74.808594 C 44.164062 74.867188 44.339844 74.398438 44.339844 74.398438 C 44.339844 74.398438 42.332031 73.925781 41.683594 72.277344 C 41.035156 70.570312 40.976562 69.570312 40.976562 69.570312 C 40.976562 69.570312 41.980469 70.453125 42.984375 70.6875 C 43.988281 70.925781 44.105469 70.570312 44.105469 70.570312 C 44.105469 70.570312 44.398438 70.75 44.105469 69.925781 C 43.808594 69.101562 42.097656 66.390625 42.332031 64.921875 C 42.628906 63.449219 43.101562 63.273438 43.101562 63.273438 L 44.046875 63.273438 L 44.28125 62.917969 L 44.8125 63.273438 L 45.109375 63.15625 L 45.757812 63.273438 L 46.289062 63.15625 C 46.289062 63.15625 47.117188 64.214844 47.707031 64.039062 C 48.296875 63.863281 48 64.15625 48 64.15625 C 48 64.15625 47.824219 69.453125 48.0625 70.277344 C 48.355469 71.101562 48.238281 64.273438 48.414062 64.097656 C 48.59375 63.921875 49.003906 64.039062 49.359375 63.683594 C 49.714844 63.332031 49.890625 63.214844 49.890625 63.214844 C 49.890625 63.214844 49.773438 63.332031 50.539062 63.214844 C 51.011719 63.15625 50.71875 63.214844 51.011719 63.15625 C 51.132812 63.097656 51.308594 62.625 51.308594 62.625 C 51.308594 62.625 52.605469 63.332031 52.84375 63.15625 C 53.078125 62.917969 54.613281 64.097656 54.320312 65.214844 C 53.964844 66.332031 52.84375 68.277344 52.84375 68.277344 C 52.84375 68.277344 52.015625 69.6875 52.074219 69.984375 C 52.136719 70.277344 52.488281 71.277344 53.375 70.75 C 54.261719 70.21875 55.144531 69.746094 55.207031 69.277344 C 55.324219 68.804688 55.207031 66.214844 55.207031 66.214844 C 55.207031 66.214844 54.96875 63.390625 54.378906 62.800781 C 53.789062 62.273438 52.726562 62.625 52.726562 62.625 L 51.070312 61.566406 C 51.070312 61.566406 51.367188 62.625 50.421875 62.566406 C 49.476562 62.507812 49.832031 61.566406 49.832031 61.566406 L 49.359375 61.566406 C 49.359375 61.566406 49.535156 62.800781 48.945312 62.742188 C 48.355469 62.683594 48 61.566406 48 61.566406 L 47.53125 61.09375 C 47.53125 61.09375 47.882812 62.214844 47.46875 62.566406 C 47.058594 62.917969 46.703125 61.566406 46.703125 61.566406 L 46.289062 61.566406 C 46.289062 61.566406 46.527344 62.273438 46.230469 62.449219 C 45.933594 62.625 45.050781 62.097656 45.285156 61.683594 C 45.464844 61.273438 44.8125 61.566406 44.8125 61.566406 C 44.8125 61.566406 45.402344 62.449219 44.8125 62.390625 C 44.222656 62.332031 43.515625 61.566406 43.808594 61.566406 C 44.105469 61.566406 43.808594 62.683594 43.277344 62.566406 C 42.746094 62.507812 41.863281 62.15625 41.863281 62.15625 Z M 41.863281 62.15625 "/>
<path style=" stroke:none;fill-rule:nonzero;fill:rgb(0.392157%,0.392157%,0.392157%);fill-opacity:1;" d="M 57.390625 62.800781 C 57.390625 62.800781 56.089844 65.449219 56.269531 67.15625 C 56.445312 68.921875 56.269531 70.21875 56.269531 70.21875 C 56.269531 70.21875 55.914062 73.398438 54.910156 74.042969 C 53.90625 74.632812 53.078125 74.398438 53.078125 74.398438 L 51.839844 74.398438 L 51.839844 73.867188 L 50.71875 72.75 C 50.71875 72.75 50.71875 72.394531 50.71875 72.160156 C 50.71875 71.867188 52.136719 69.984375 52.429688 69.867188 C 52.726562 69.746094 50.894531 71.984375 52.074219 72.867188 C 53.257812 73.75 54.792969 73.632812 55.265625 71.984375 C 55.738281 70.277344 54.910156 67.804688 54.910156 67.804688 L 55.675781 66.15625 L 56.859375 62.800781 Z M 57.390625 62.800781 "/>
<path style=" stroke:none;fill-rule:nonzero;fill:rgb(0.392157%,0.392157%,0.392157%);fill-opacity:1;" d="M 43.574219 70.394531 C 43.574219 70.394531 45.34375 72.277344 44.753906 73.101562 C 44.164062 73.867188 43.515625 73.984375 42.6875 73.691406 C 41.863281 73.457031 41.800781 73.808594 41.800781 73.808594 L 42.332031 74.457031 C 42.332031 74.457031 43.632812 74.515625 44.871094 74.457031 C 46.113281 74.457031 46.347656 74.574219 47.117188 74.457031 C 47.882812 74.339844 48.472656 74.457031 49.417969 74.515625 C 50.304688 74.574219 51.839844 74.457031 52.429688 74.457031 C 53.019531 74.457031 52.429688 73.632812 52.429688 73.632812 C 52.429688 73.632812 51.722656 74.222656 51.011719 74.101562 C 50.304688 73.984375 48.828125 73.808594 48.828125 73.808594 C 48.828125 73.808594 47.589844 73.808594 47.292969 73.925781 C 47 74.042969 45.933594 74.101562 45.933594 74.101562 L 45.996094 73.515625 L 46.464844 73.101562 L 46.878906 72.632812 C 46.878906 72.632812 46.464844 71.925781 46.113281 72.394531 C 45.640625 72.925781 43.398438 68.6875 43.574219 70.394531 Z M 43.574219 70.394531 "/>
<path style=" stroke:none;fill-rule:nonzero;fill:rgb(0.392157%,0.392157%,0.392157%);fill-opacity:1;" d="M 46.171875 72.808594 L 47.117188 73.632812 C 47.117188 73.632812 47.234375 73.457031 47.648438 73.21875 C 48.0625 72.984375 48.414062 73.21875 48.414062 73.21875 L 48.886719 74.101562 C 48.886719 74.101562 48.886719 73.339844 49.359375 73.101562 C 49.832031 72.867188 50.007812 73.21875 50.007812 73.21875 L 50.480469 74.101562 C 50.480469 74.101562 50.304688 72.925781 50.71875 72.808594 C 51.132812 72.691406 50.246094 71.691406 49.417969 72.277344 C 48.59375 72.808594 49.066406 73.042969 48.414062 72.632812 C 47.824219 72.160156 47.765625 72.101562 47.292969 72.75 C 46.761719 73.339844 46.820312 71.808594 46.171875 72.808594 Z M 46.171875 72.808594 "/>
<path style=" stroke:none;fill-rule:nonzero;fill:rgb(0.392157%,0.392157%,0.392157%);fill-opacity:1;" d="M 38.320312 62.800781 C 38.320312 62.800781 39.085938 64.566406 39.261719 65.921875 C 39.441406 67.335938 39.617188 68.980469 39.5 69.925781 C 39.382812 70.867188 39.261719 72.925781 40.089844 73.398438 C 40.917969 73.925781 40.679688 75.28125 42.925781 75.398438 C 45.167969 75.515625 45.816406 75.105469 47.648438 75.105469 C 49.476562 75.105469 51.308594 75.398438 51.308594 75.398438 C 51.308594 75.398438 52.488281 75.808594 53.433594 75.398438 C 54.378906 74.984375 55.441406 74.28125 55.972656 72.984375 C 56.503906 71.691406 56.738281 68.804688 56.859375 67.214844 C 56.976562 65.570312 57.507812 62.742188 57.742188 62.742188 C 58.039062 62.742188 58.335938 62.742188 58.335938 62.742188 C 58.335938 62.742188 57.507812 65.746094 57.390625 67.214844 C 57.273438 68.6875 57.09375 72.394531 56.269531 73.691406 C 55.441406 75.046875 54.140625 76.75 51.898438 76.28125 C 49.714844 75.75 46.40625 75.222656 44.753906 75.988281 C 43.101562 76.75 40.976562 76.164062 40.265625 75.105469 C 39.558594 74.042969 38.96875 73.457031 38.96875 71.984375 C 38.96875 70.511719 38.96875 68.335938 38.851562 67.394531 C 38.792969 66.453125 37.550781 62.742188 37.550781 62.742188 L 38.320312 62.742188 Z M 38.320312 62.800781 "/>
<path style=" stroke:none;fill-rule:nonzero;fill:rgb(0.392157%,0.392157%,0.392157%);fill-opacity:1;" d="M 47.117188 30.605469 C 47.117188 30.605469 45.050781 25.425781 40.386719 25.601562 C 35.722656 25.777344 29.050781 28.957031 28.046875 30.605469 C 27.160156 32.078125 27.335938 29.546875 29.050781 27.78125 C 30.761719 26.015625 30.464844 26.308594 30.464844 26.308594 C 30.464844 26.308594 27.691406 28.015625 27.453125 29.839844 C 27.160156 31.664062 27.160156 25.601562 29.285156 23.777344 C 31.351562 21.953125 34.597656 20.777344 37.195312 20.953125 C 39.792969 21.1875 47 21.011719 47.117188 30.605469 Z M 47.117188 30.605469 "/>
<path style=" stroke:none;fill-rule:nonzero;fill:rgb(0.392157%,0.392157%,0.392157%);fill-opacity:1;" d="M 35.191406 26.484375 C 35.191406 26.484375 31.824219 28.839844 31.175781 29.957031 C 30.585938 31.078125 33.125 29.3125 33.125 29.3125 C 33.125 29.3125 33.125 29.898438 32.828125 30.015625 C 32.472656 30.195312 33.0625 29.191406 31.175781 31.722656 C 29.34375 34.253906 27.515625 37.726562 27.042969 39.609375 C 26.570312 41.496094 26.511719 41.257812 26.511719 41.257812 C 26.511719 41.257812 26.453125 40.199219 27.042969 37.902344 C 27.574219 35.726562 28.929688 34.3125 29.699219 33.195312 C 30.113281 32.546875 31.46875 30.605469 31.46875 30.605469 L 29.992188 31.019531 C 30.171875 31.019531 30.703125 29.015625 35.191406 26.484375 Z M 35.191406 26.484375 "/>
<path style=" stroke:none;fill-rule:nonzero;fill:rgb(0.392157%,0.392157%,0.392157%);fill-opacity:1;" d="M 32.769531 27.25 C 32.886719 27.132812 26.921875 32.019531 26.628906 34.609375 C 26.332031 37.199219 26.804688 33.902344 26.804688 33.902344 C 26.804688 33.902344 27.515625 31.078125 28.398438 30.253906 C 29.992188 28.78125 28.8125 29.191406 28.8125 29.191406 C 28.8125 29.191406 26.15625 31.136719 25.859375 33.371094 C 25.566406 35.550781 25.625 35.84375 26.039062 37.964844 C 26.453125 40.140625 26.628906 41.316406 26.628906 41.316406 C 26.628906 41.316406 26.984375 35.609375 28.105469 33.488281 C 29.285156 31.019531 30.878906 28.605469 32.769531 27.25 Z M 32.769531 27.25 "/>
<path style=" stroke:none;fill-rule:nonzero;fill:rgb(0.392157%,0.392157%,0.392157%);fill-opacity:1;" d="M 47.117188 30.605469 C 47.117188 30.605469 47.351562 25.191406 44.398438 22.011719 C 41.625 19.070312 38.851562 18.773438 35.191406 20.070312 C 31.527344 21.363281 30.878906 22.011719 30.878906 22.011719 C 30.878906 22.011719 36.84375 18.128906 40.679688 18.128906 C 44.753906 18.070312 46.644531 19.65625 47.117188 22.835938 C 47.589844 25.957031 47.765625 31.3125 47.117188 30.605469 Z M 47.117188 30.605469 "/>
<path style=" stroke:none;fill-rule:nonzero;fill:rgb(0.392157%,0.392157%,0.392157%);fill-opacity:1;" d="M 27.277344 38.199219 C 27.277344 38.199219 27.808594 37.199219 29.582031 37.140625 C 31.410156 37.082031 31.410156 37.082031 31.410156 37.082031 L 32.179688 37.082031 C 32.179688 37.082031 30.40625 37.492188 29.226562 40.90625 C 28.046875 44.320312 28.695312 46.792969 26.628906 48.558594 C 24.5625 50.324219 22.554688 51.089844 22.554688 51.089844 C 22.554688 51.089844 24.324219 48.792969 26.097656 45.792969 C 27.691406 43.144531 27.394531 43.4375 28.105469 41.964844 C 28.519531 41.023438 32.355469 36.136719 27.277344 38.199219 Z M 27.277344 38.199219 "/>
<path style=" stroke:none;fill-rule:nonzero;fill:rgb(0.392157%,0.392157%,0.392157%);fill-opacity:1;" d="M 23.382812 50.617188 C 23.382812 50.617188 23.441406 48.261719 24.382812 46.910156 C 25.328125 45.554688 28.222656 40.492188 28.222656 40.492188 C 28.222656 40.492188 24.503906 45.320312 23.851562 46.792969 C 23.203125 48.324219 22.316406 51.207031 23.382812 50.617188 Z M 23.382812 50.617188 "/>
<path style=" stroke:none;fill-rule:nonzero;fill:rgb(0.392157%,0.392157%,0.392157%);fill-opacity:1;" d="M 28.222656 39.789062 C 28.222656 39.789062 26.746094 41.964844 25.269531 43.320312 C 23.792969 44.671875 23.144531 45.4375 22.847656 45.554688 C 22.554688 45.734375 22.199219 46.792969 22.140625 47.675781 C 22.082031 48.558594 22.023438 49.734375 23.144531 49.910156 C 24.265625 50.089844 23.914062 49.910156 23.914062 49.910156 C 23.914062 49.910156 23.027344 50.675781 22.140625 51.265625 C 21.609375 51.617188 20.132812 54.328125 20.191406 57.035156 C 20.25 59.742188 20.191406 58.09375 20.191406 58.09375 C 20.191406 58.09375 21.019531 55.03125 22.496094 53.855469 C 23.972656 52.679688 25.625 51.03125 25.625 51.03125 C 25.625 51.03125 26.804688 49.910156 27.574219 48.675781 C 27.867188 48.203125 28.105469 47.734375 28.222656 47.320312 C 28.578125 45.792969 28.578125 45.613281 28.578125 45.613281 C 28.578125 45.613281 29.167969 48.261719 26.628906 50.734375 C 24.03125 53.207031 23.382812 53.5625 22.910156 54.386719 C 22.496094 55.210938 21.785156 59.800781 22.316406 62.214844 C 22.847656 64.625 23.675781 67.628906 24.445312 68.6875 C 25.210938 69.746094 18.894531 67.15625 18.363281 63.332031 C 17.832031 59.507812 18.125 61.683594 18.125 61.683594 C 18.125 61.683594 15.707031 67.746094 16.945312 70.042969 C 18.421875 72.75 17.417969 71.160156 17.417969 71.160156 C 17.417969 71.160156 15.824219 70.394531 15.46875 67.335938 C 15.054688 64.332031 15.175781 62.214844 16.472656 59.976562 C 17.773438 57.738281 17.773438 57.738281 17.773438 57.738281 C 17.773438 57.738281 18.835938 53.324219 19.425781 52.324219 C 20.074219 51.089844 20.074219 51.089844 20.074219 51.089844 C 20.074219 51.089844 17.242188 52.796875 16.886719 54.503906 C 16.472656 56.269531 16.769531 56.5625 16.769531 56.5625 C 16.769531 56.5625 14.996094 53.621094 16.710938 51.089844 C 18.421875 48.558594 19.128906 47.792969 19.128906 47.792969 C 19.128906 47.792969 20.191406 46.734375 21.433594 44.730469 C 22.671875 42.730469 23.382812 41.378906 23.382812 41.378906 C 23.382812 41.378906 25.152344 37.964844 25.683594 35.609375 C 26.214844 33.253906 26.097656 34.371094 26.097656 34.371094 C 26.097656 34.371094 23.5 43.671875 22.554688 44.613281 C 21.609375 45.554688 23.441406 44.085938 24.5625 43.144531 C 25.683594 42.140625 28.222656 39.789062 28.222656 39.789062 Z M 28.222656 39.789062 "/>
<path style=" stroke:none;fill-rule:nonzero;fill:rgb(0.392157%,0.392157%,0.392157%);fill-opacity:1;" d="M 16.828125 54.445312 C 16.828125 54.445312 15.765625 50.675781 16.769531 48.617188 C 17.773438 46.558594 18.066406 45.734375 19.601562 44.027344 C 21.136719 42.320312 23.085938 40.554688 24.03125 39.082031 C 24.976562 37.609375 26.039062 34.253906 26.039062 34.253906 L 26.332031 33.078125 C 26.332031 33.078125 24.679688 37.082031 21.492188 38.550781 C 18.304688 40.082031 15.644531 41.257812 13.757812 43.554688 C 11.867188 45.851562 10.449219 48.5 11.574219 51.03125 C 12.695312 53.5625 14.109375 55.089844 15.824219 56.269531 C 17.890625 57.679688 18.304688 57.328125 18.304688 57.328125 C 18.304688 57.328125 12.988281 53.972656 12.574219 51.03125 C 12.105469 48.085938 12.339844 47.792969 12.988281 46.558594 C 13.578125 45.378906 13.519531 45.613281 13.519531 45.613281 C 13.519531 45.613281 12.871094 47.203125 13.757812 49.382812 C 14.644531 51.5 15.527344 53.382812 15.527344 53.382812 C 15.527344 53.382812 14.464844 49.96875 14.171875 48.324219 C 13.875 46.675781 13.933594 46.496094 14.40625 45.613281 C 14.878906 44.730469 16.53125 43.082031 16.53125 43.082031 C 16.53125 43.082031 14.996094 44.320312 15.292969 48.203125 C 15.46875 52.03125 16 53.914062 16.828125 54.445312 Z M 16.828125 54.445312 "/>
<path style=" stroke:none;fill-rule:nonzero;fill:rgb(0.392157%,0.392157%,0.392157%);fill-opacity:1;" d="M 23.441406 34.902344 C 23.441406 34.902344 20.191406 37.082031 18.363281 38.609375 C 16.589844 40.199219 12.988281 42.730469 12.222656 45.554688 C 11.511719 48.382812 11.394531 49.441406 11.394531 49.441406 C 11.394531 49.441406 11.277344 59.152344 11.984375 62.742188 C 12.695312 66.332031 12.398438 64.507812 12.398438 64.507812 C 12.398438 64.507812 11.453125 63.742188 10.214844 58.976562 C 8.972656 54.207031 9.152344 52.03125 9.152344 50.265625 C 9.152344 48.5 9.742188 41.496094 10.628906 39.550781 C 11.691406 37.140625 13.046875 34.136719 15.234375 32.722656 C 17.359375 31.3125 17.710938 31.371094 17.710938 31.371094 C 17.710938 31.371094 19.246094 33.488281 19.898438 33.785156 C 20.429688 34.019531 17.773438 35.433594 15.644531 37.84375 C 13.816406 39.90625 12.574219 42.964844 12.28125 43.96875 C 11.632812 46.203125 12.753906 40.082031 23.441406 34.902344 Z M 23.441406 34.902344 "/>
<path style=" stroke:none;fill-rule:nonzero;fill:rgb(0.392157%,0.392157%,0.392157%);fill-opacity:1;" d="M 12.753906 65.332031 C 12.753906 65.332031 12.105469 63.625 12.398438 61.09375 C 12.753906 58.5625 12.988281 57.386719 12.988281 57.386719 L 13.699219 54.5625 C 13.699219 54.5625 13.285156 61.09375 13.699219 63.332031 C 14.109375 65.570312 15.585938 68.570312 16.238281 69.277344 C 16.886719 69.984375 16.886719 69.984375 16.886719 69.984375 C 16.886719 69.984375 15.234375 68.6875 14.582031 67.394531 C 13.933594 66.097656 13.933594 65.6875 13.933594 65.6875 C 13.933594 65.6875 15.351562 72.21875 16.238281 74.457031 C 17.121094 76.691406 19.839844 81.578125 19.839844 81.578125 C 19.839844 81.578125 15.527344 74.101562 14.761719 71.277344 C 13.992188 68.394531 13.046875 64.097656 13.109375 62.800781 C 13.167969 61.507812 12.695312 64.507812 12.753906 65.332031 Z M 12.753906 65.332031 "/>
<path style=" stroke:none;fill-rule:nonzero;fill:rgb(0.392157%,0.392157%,0.392157%);fill-opacity:1;" d="M 18.125 32.664062 C 18.125 32.664062 19.128906 34.078125 21.964844 33.785156 C 24.796875 33.488281 26.390625 32.664062 26.390625 32.664062 C 26.390625 32.664062 22.847656 37.199219 18.125 32.664062 Z M 18.125 32.664062 "/>
<path style=" stroke:none;fill-rule:nonzero;fill:rgb(0.392157%,0.392157%,0.392157%);fill-opacity:1;" d="M 10.390625 42.4375 C 10.390625 42.4375 6.90625 51.324219 7.144531 53.503906 C 7.378906 55.679688 7.320312 56.09375 7.320312 56.09375 C 7.320312 56.09375 5.667969 50.914062 5.902344 48.261719 C 6.316406 44.378906 7.558594 41.90625 8.796875 40.257812 C 10.039062 38.550781 9.625 39.90625 9.625 39.90625 C 9.625 39.90625 8.5625 41.554688 7.792969 44.085938 C 6.671875 47.910156 6.90625 48.441406 6.90625 51.265625 C 6.90625 51.265625 7.972656 44.96875 10.390625 42.4375 Z M 10.390625 42.4375 "/>
<path style=" stroke:none;fill-rule:nonzero;fill:rgb(0.392157%,0.392157%,0.392157%);fill-opacity:1;" d="M 11.160156 40.316406 C 11.160156 40.316406 11.160156 36.492188 13.519531 32.664062 C 16 28.664062 19.308594 27.25 19.308594 27.25 C 19.308594 27.25 18.304688 29.25 18.363281 30.132812 C 18.421875 32.371094 18.363281 30.957031 18.363281 30.957031 C 18.363281 30.957031 18.007812 31.253906 18.777344 29.3125 C 19.367188 27.78125 21.964844 25.367188 21.964844 25.367188 C 21.964844 25.367188 23.320312 24.011719 23.851562 23.660156 C 24.855469 23.011719 27.808594 21.835938 28.28125 21.660156 C 28.8125 21.480469 29.757812 20.421875 30.40625 19.714844 C 31.054688 19.011719 34.480469 16.65625 36.785156 16.597656 C 39.085938 16.539062 39.855469 16.597656 39.855469 16.597656 C 39.855469 16.597656 34.125 13.652344 28.695312 16.949219 C 23.203125 20.1875 22.554688 20.953125 22.554688 20.953125 C 22.554688 20.953125 20.78125 21.601562 19.484375 22.246094 C 18.125 22.894531 14.820312 24.011719 11.21875 27.839844 C 10.039062 29.132812 7.378906 33.195312 8.03125 36.492188 C 8.5625 39.789062 9.683594 43.554688 11.160156 40.316406 Z M 11.160156 40.316406 "/>
<path style=" stroke:none;fill-rule:nonzero;fill:rgb(0.392157%,0.392157%,0.392157%);fill-opacity:1;" d="M 6.554688 40.199219 C 6.554688 40.199219 5.902344 42.90625 5.902344 44.671875 C 5.902344 46.4375 6.199219 49.207031 6.199219 49.207031 C 6.199219 49.207031 6.375 41.199219 6.554688 40.199219 Z M 6.554688 40.199219 "/>
<path style=" stroke:none;fill-rule:nonzero;fill:rgb(0.392157%,0.392157%,0.392157%);fill-opacity:1;" d="M 9.152344 32.195312 C 9.152344 32.195312 7.851562 34.84375 5.84375 37.433594 C 4.429688 39.257812 1.476562 41.964844 0.589844 40.257812 C -0.296875 38.550781 0 39.375 0 39.375 C 0 39.375 2.714844 43.4375 5.902344 41.257812 C 9.09375 39.082031 9.210938 37.785156 9.210938 37.785156 L 9.210938 37.019531 C 9.210938 37.019531 7.617188 38.964844 5.902344 40.199219 C 4.605469 41.140625 3.246094 41.257812 3.246094 41.257812 C 3.246094 41.257812 7.972656 37.550781 9.152344 32.195312 Z M 9.152344 32.195312 "/>
<path style=" stroke:none;fill-rule:nonzero;fill:rgb(0.392157%,0.392157%,0.392157%);fill-opacity:1;" d="M 20.371094 19.539062 C 20.371094 19.539062 14.878906 23.660156 13.875 24.894531 C 12.929688 26.132812 11.511719 27.425781 11.511719 27.425781 L 9.800781 29.664062 C 9.800781 29.664062 8.679688 28.605469 9.445312 25.542969 C 10.214844 22.484375 11.574219 19.421875 13.875 17.246094 C 16.179688 15.066406 16.179688 15.066406 16.179688 15.066406 C 16.179688 15.066406 16.769531 13.300781 17.773438 12.59375 C 18.714844 11.945312 19.898438 11.652344 20.84375 11.535156 C 21.785156 11.417969 26.039062 12.125 26.273438 12.769531 C 26.570312 13.359375 26.273438 13.183594 26.273438 13.183594 C 26.273438 13.183594 20.074219 10.535156 18.066406 14.125 C 17.359375 15.417969 17.773438 18.1875 17.773438 18.1875 L 18.714844 17.246094 L 19.070312 16.007812 C 19.070312 16.007812 19.601562 15.832031 19.660156 15.417969 C 19.71875 15.007812 20.722656 14.066406 20.722656 14.066406 L 21.964844 13.949219 L 22.554688 13.242188 C 22.554688 13.242188 22.96875 12.652344 23.5 13.242188 C 24.089844 13.832031 24.265625 14.890625 24.976562 14.59375 C 25.625 14.300781 26.921875 14.007812 26.921875 14.007812 L 27.632812 13.890625 L 34.65625 14.066406 C 34.65625 14.066406 38.199219 15.480469 38.910156 15.949219 C 39.617188 16.480469 38.910156 16.300781 38.910156 16.300781 C 38.910156 16.300781 28.222656 14.183594 20.371094 19.539062 Z M 20.371094 19.539062 "/>
<path style=" stroke:none;fill-rule:nonzero;fill:rgb(0.392157%,0.392157%,0.392157%);fill-opacity:1;" d="M 28.636719 20.539062 C 28.636719 20.539062 26.6875 24.308594 24.917969 25.957031 C 23.144531 27.605469 21.136719 28.957031 20.902344 29.074219 C 20.664062 29.191406 15.824219 31.429688 17.003906 31.019531 C 17.242188 30.957031 24.207031 28.191406 25.917969 25.957031 C 27.691406 23.71875 28.339844 22.484375 29.519531 20.894531 C 30.703125 19.304688 31.117188 18.070312 31.117188 18.070312 C 31.117188 18.070312 29.519531 19.011719 28.636719 20.539062 Z M 28.636719 20.539062 "/>
<path style=" stroke:none;fill-rule:nonzero;fill:rgb(0.392157%,0.392157%,0.392157%);fill-opacity:1;" d="M 17.773438 32.195312 L 15.707031 31.488281 C 15.707031 31.488281 20.25 31.664062 23.441406 29.664062 C 26.628906 27.664062 26.921875 26.957031 27.335938 26.191406 C 27.75 25.484375 26.984375 26.367188 26.984375 28.074219 C 26.984375 29.839844 27.21875 31.019531 27.21875 31.019531 C 27.21875 31.019531 23.851562 34.136719 17.773438 32.195312 Z M 17.773438 32.195312 "/>
<path style=" stroke:none;fill-rule:nonzero;fill:rgb(0.392157%,0.392157%,0.392157%);fill-opacity:1;" d="M 26.332031 28.722656 C 30.054688 19.539062 33.0625 18.421875 35.191406 17.304688 C 37.316406 16.242188 39.792969 16.597656 39.792969 16.597656 L 39.203125 16.363281 L 35.722656 16.363281 C 35.722656 16.363281 33.0625 17.363281 30.9375 18.773438 C 28.753906 20.1875 26.332031 28.488281 26.332031 28.488281 Z M 26.332031 28.722656 "/>
<path style=" stroke:none;fill-rule:nonzero;fill:rgb(0.392157%,0.392157%,0.392157%);fill-opacity:1;" d="M 20.722656 11.886719 C 20.722656 11.886719 23.851562 9.828125 28.28125 8.886719 C 32.652344 7.945312 38.261719 6.886719 41.09375 8.886719 C 43.988281 10.886719 44.8125 13.59375 44.8125 13.59375 L 45.757812 15.066406 C 45.757812 15.066406 47.46875 17.421875 47.589844 19.070312 C 47.707031 20.71875 47.589844 21.011719 47.589844 21.011719 C 47.589844 21.011719 46.464844 17.714844 44.339844 17.363281 C 42.214844 16.949219 39.734375 16.949219 38.671875 17.949219 C 37.550781 18.890625 39.261719 16.421875 40.917969 16.421875 C 43.632812 16.421875 37.257812 16.714844 37.257812 16.714844 C 37.257812 16.714844 20.960938 11.886719 20.722656 11.886719 Z M 20.722656 11.886719 "/>
<path style=" stroke:none;fill-rule:nonzero;fill:rgb(0.392157%,0.392157%,0.392157%);fill-opacity:1;" d="M 44.398438 14.300781 C 45.996094 15.242188 44.871094 12.359375 43.867188 10.003906 C 42.925781 7.648438 43.042969 6.648438 40.917969 5.414062 C 39.261719 4.472656 34.304688 3.882812 29.226562 5.53125 C 24.089844 7.179688 20.722656 12.300781 20.722656 12.300781 C 20.722656 12.300781 20.015625 12.949219 22.496094 10.359375 C 25.035156 7.769531 30.289062 5.882812 32.710938 5.414062 C 35.128906 4.941406 37.019531 5.121094 40.386719 6.472656 C 43.691406 7.828125 44.398438 14.007812 44.398438 14.007812 Z M 44.398438 14.300781 "/>
<path style=" stroke:none;fill-rule:nonzero;fill:rgb(0.392157%,0.392157%,0.392157%);fill-opacity:1;" d="M 43.277344 9.0625 C 43.277344 9.0625 44.519531 9.179688 44.8125 10.121094 C 45.109375 11.0625 46.761719 15.597656 47.175781 17.65625 C 47.589844 19.714844 47.589844 19.894531 47.589844 19.894531 C 47.589844 19.894531 48.121094 18.890625 47.589844 16.890625 C 47.058594 14.832031 45.226562 7.589844 43.277344 9.0625 Z M 43.277344 9.0625 "/>
<path style=" stroke:none;fill-rule:nonzero;fill:rgb(0.392157%,0.392157%,0.392157%);fill-opacity:1;" d="M 27.867188 6.53125 C 27.867188 6.53125 23.027344 6.296875 23.027344 2.410156 C 23.027344 -1.53125 23.027344 0.761719 23.027344 0.761719 C 23.027344 0.761719 23.382812 4.707031 26.332031 5.355469 C 29.285156 6.003906 29.933594 5.355469 29.933594 5.355469 Z M 27.867188 6.53125 "/>
<path style=" stroke:none;fill-rule:nonzero;fill:rgb(0.392157%,0.392157%,0.392157%);fill-opacity:1;" d="M 47.648438 16.300781 C 47.648438 16.300781 46.585938 9.355469 45.167969 7.296875 C 43.691406 5.179688 42.039062 4.355469 39.203125 4.414062 C 36.371094 4.53125 32.53125 4.589844 30.347656 5.179688 C 28.164062 5.765625 24.621094 4.117188 23.792969 2.882812 C 23.027344 1.707031 23.027344 0.527344 23.027344 0.527344 C 23.027344 0.527344 25.210938 5.472656 31.46875 4.53125 C 37.667969 3.589844 41.683594 3.234375 43.042969 4.058594 C 44.398438 4.824219 47.882812 6.0625 47.648438 16.300781 Z M 47.648438 16.300781 "/>
<path style=" stroke:none;fill-rule:nonzero;fill:rgb(0.392157%,0.392157%,0.392157%);fill-opacity:1;" d="M 19.898438 64.097656 C 19.898438 64.097656 16.472656 67.6875 16.945312 69.984375 C 17.417969 72.277344 17.417969 72.277344 17.417969 72.277344 C 17.417969 72.277344 17.121094 69.628906 18.007812 68.160156 C 18.835938 66.6875 18.480469 67.039062 18.480469 67.039062 C 18.480469 67.039062 17.359375 71.277344 18.007812 74.042969 C 18.65625 76.8125 18.894531 77.988281 19.660156 79.929688 C 20.371094 81.871094 20.371094 81.871094 20.371094 81.871094 C 20.371094 81.871094 19.957031 75.808594 20.371094 72.160156 C 20.664062 69.570312 21.253906 68.570312 21.253906 68.570312 C 21.253906 68.570312 21.492188 75.632812 23.5 78.578125 C 25.507812 81.519531 27.691406 83.050781 27.691406 83.050781 C 27.691406 83.050781 25.09375 78.105469 25.152344 74.691406 C 25.210938 71.277344 25.566406 69.277344 25.566406 69.277344 C 25.566406 69.277344 24.148438 68.628906 22.910156 66.628906 C 21.667969 64.746094 19.898438 64.097656 19.898438 64.097656 Z M 19.898438 64.097656 "/>
<path style=" stroke:none;fill-rule:nonzero;fill:rgb(0.392157%,0.392157%,0.392157%);fill-opacity:1;" d="M 20.429688 68.039062 C 20.429688 68.039062 21.195312 77.457031 23.441406 79.460938 C 25.742188 81.460938 26.453125 82.167969 26.453125 82.167969 C 26.453125 82.167969 19.78125 81.402344 20.429688 68.039062 Z M 20.429688 68.039062 "/>
<path style=" stroke:none;fill-rule:nonzero;fill:rgb(0.392157%,0.392157%,0.392157%);fill-opacity:1;" d="M 24.738281 69.277344 C 24.738281 69.277344 23.5 66.15625 23.792969 62.800781 C 24.089844 59.507812 24.679688 55.914062 25.507812 54.503906 C 26.332031 53.089844 26.332031 53.089844 26.332031 53.089844 C 26.332031 53.089844 23.320312 61.625 24.738281 69.277344 Z M 24.738281 69.277344 "/>
<path style=" stroke:none;fill-rule:nonzero;fill:rgb(0.392157%,0.392157%,0.392157%);fill-opacity:1;" d="M 25.09375 69.984375 C 25.09375 69.984375 24.679688 64.921875 25.683594 62.800781 C 26.6875 60.683594 27.335938 59.859375 27.335938 59.859375 C 27.335938 59.859375 24.976562 66.332031 25.09375 69.984375 Z M 25.09375 69.984375 "/>
<path style=" stroke:none;fill-rule:nonzero;fill:rgb(0.392157%,0.392157%,0.392157%);fill-opacity:1;" d="M 28.636719 83.875 C 28.636719 83.875 26.039062 80.636719 26.332031 76.457031 C 26.628906 72.277344 26.804688 71.570312 26.804688 71.570312 L 26.984375 69.628906 L 27.101562 68.039062 C 27.101562 68.039062 25.386719 64.746094 26.214844 62.800781 C 27.042969 60.859375 27.335938 60.035156 27.335938 60.035156 C 27.335938 60.035156 25.507812 55.210938 25.980469 53.914062 C 26.453125 52.621094 26.863281 50.675781 27.394531 49.910156 C 27.867188 49.207031 26.570312 52.441406 26.804688 54.503906 C 27.042969 56.5625 27.75 58.800781 27.75 58.800781 L 28.339844 64.097656 C 28.339844 64.097656 28.929688 61.152344 29.050781 58.976562 C 29.226562 56.796875 29.050781 53.148438 28.695312 52.265625 C 28.339844 51.382812 27.632812 48.675781 27.632812 48.675781 C 27.632812 48.675781 29.167969 51.207031 29.226562 52.796875 C 29.285156 54.328125 29.226562 53.089844 29.226562 53.089844 C 29.226562 53.089844 29.875 51.675781 30.523438 52.089844 C 31.117188 52.5 31.648438 52.679688 32.179688 53.503906 C 32.710938 54.328125 32.945312 54.503906 32.945312 54.503906 C 32.945312 54.503906 32.472656 52.796875 32.769531 52.03125 C 33.0625 51.265625 33.535156 49.207031 33.535156 49.207031 L 34.65625 49.96875 L 34.65625 52.621094 L 34.246094 53.972656 C 34.246094 53.972656 33.0625 55.5625 33.242188 56.738281 C 33.417969 57.917969 33.535156 58.621094 33.476562 59.800781 C 33.417969 61.035156 32.945312 59.445312 32.238281 60.390625 C 31.527344 61.273438 30.820312 62.332031 30.347656 65.746094 C 29.875 69.160156 30.347656 71.984375 30.347656 71.984375 C 30.347656 71.984375 28.988281 71.453125 28.339844 69.570312 C 27.574219 67.746094 26.746094 79.28125 28.636719 83.875 Z M 28.636719 83.875 "/>
<path style=" stroke:none;fill-rule:nonzero;fill:rgb(0.392157%,0.392157%,0.392157%);fill-opacity:1;" d="M 29.582031 70.75 C 29.582031 70.75 30.523438 71.511719 29.875 73.042969 C 29.226562 74.632812 28.222656 76.632812 28.105469 79.164062 C 27.984375 81.695312 28.398438 83.34375 28.398438 83.34375 L 28.578125 84.582031 C 28.578125 84.582031 28.578125 83.636719 29.050781 82.695312 C 29.519531 81.753906 29.519531 81.753906 29.519531 81.753906 C 29.519531 81.753906 28.929688 85.34375 30.996094 87.464844 C 33.0625 89.582031 34.894531 91.230469 34.894531 91.230469 C 34.894531 91.230469 33.242188 89.761719 32.769531 86.464844 C 32.238281 83.167969 32.296875 81.285156 32.828125 79.636719 C 32.945312 79.28125 33.417969 78.339844 33.417969 78.339844 C 33.417969 78.339844 30.113281 73.160156 29.992188 69.277344 C 29.933594 65.332031 29.582031 70.75 29.582031 70.75 Z M 29.582031 70.75 "/>
<path style=" stroke:none;fill-rule:nonzero;fill:rgb(0.392157%,0.392157%,0.392157%);fill-opacity:1;" d="M 31.527344 59.683594 C 31.527344 59.683594 32.058594 62.917969 31.765625 64.625 C 31.46875 66.332031 31.054688 68.804688 31.527344 71.570312 C 32.121094 75.105469 31.941406 74.398438 31.941406 74.398438 C 31.941406 74.398438 32 74.75 32.121094 72.632812 C 32.238281 70.511719 32.121094 70.867188 32.121094 70.867188 C 32.121094 70.867188 31.824219 74.925781 32.886719 76.515625 C 33.949219 78.105469 34.539062 79.28125 35.601562 79.988281 C 36.664062 80.695312 34.835938 79.164062 34.71875 77.339844 C 34.597656 75.574219 34.597656 72.574219 34.71875 72.101562 C 34.777344 71.75 35.128906 70.160156 35.25 69.277344 C 35.308594 68.921875 35.367188 68.6875 35.367188 68.6875 C 35.367188 68.6875 35.308594 77.753906 35.898438 78.988281 C 36.488281 80.226562 35.898438 77.105469 35.898438 77.105469 L 35.601562 69.6875 C 35.601562 69.6875 37.019531 75.28125 36.726562 77.046875 C 36.488281 78.8125 36.488281 78.8125 36.488281 78.8125 C 36.488281 78.8125 36.3125 80.519531 36.785156 78.636719 C 37.257812 76.8125 37.433594 76.046875 37.433594 76.046875 C 37.433594 76.046875 37.195312 78.578125 37.667969 79.28125 C 38.140625 79.988281 37.433594 78.695312 37.667969 77.515625 C 37.90625 76.339844 38.320312 75.988281 38.320312 75.988281 L 39.027344 76.046875 L 39.972656 75.105469 C 39.972656 75.105469 38.320312 73.632812 38.554688 72.101562 C 38.792969 70.511719 38.613281 68.6875 38.613281 68.6875 L 38.320312 65.921875 L 37.789062 63.800781 L 37.433594 62.859375 C 37.433594 62.859375 35.898438 63.683594 34.71875 62.214844 C 33.535156 60.800781 33.300781 59.445312 33.300781 59.445312 Z M 31.527344 59.683594 "/>
<path style=" stroke:none;fill-rule:nonzero;fill:rgb(0.392157%,0.392157%,0.392157%);fill-opacity:1;" d="M 35.660156 91.878906 C 35.660156 91.878906 33.417969 89.699219 33.359375 86.289062 C 33.300781 82.875 33.359375 81.578125 33.359375 81.578125 L 34.125 77.28125 C 34.125 77.28125 34.894531 81.8125 35.660156 83.167969 C 36.371094 84.519531 35.957031 82.167969 35.957031 82.167969 C 35.957031 82.167969 36.015625 83.992188 36.84375 84.992188 C 37.609375 85.933594 39.792969 88.523438 39.792969 88.523438 C 39.792969 88.523438 39.914062 87.757812 39.792969 87.050781 C 39.675781 86.40625 36.84375 82.933594 36.84375 82.933594 C 36.84375 82.933594 35.660156 81.046875 35.308594 80.226562 C 35.011719 79.339844 34.539062 78.222656 34.539062 78.222656 C 34.539062 78.222656 37.257812 82.636719 38.082031 83.578125 C 38.910156 84.460938 36.664062 79.753906 36.785156 78.871094 C 36.902344 77.988281 37.375 77.8125 37.375 77.8125 C 37.375 77.8125 37.847656 82.519531 38.910156 84.285156 C 39.972656 86.050781 39.792969 84.699219 39.792969 84.699219 L 40.976562 81.695312 L 40.976562 80.695312 C 40.976562 80.695312 41.863281 79.578125 41.980469 78.988281 C 42.097656 78.398438 41.390625 80.753906 41.210938 80.8125 C 40.976562 80.929688 41.210938 81.226562 41.507812 82.109375 C 41.800781 82.992188 41.566406 83.519531 42.273438 82.519531 C 42.984375 81.519531 43.21875 81.402344 43.691406 80.753906 C 44.164062 80.105469 44.222656 79.636719 44.28125 79.105469 C 44.398438 78.578125 44.636719 79.929688 44.28125 80.578125 C 43.929688 81.167969 43.398438 82.167969 43.398438 82.167969 L 43.988281 83.167969 C 43.988281 83.167969 43.929688 82.636719 44.519531 81.992188 C 45.050781 81.34375 45.464844 81.402344 45.582031 80.636719 C 45.699219 79.871094 45.699219 79.871094 45.699219 79.871094 C 45.699219 79.871094 45.757812 81.34375 45.226562 82.167969 C 44.695312 82.992188 44.578125 83.933594 44.578125 83.933594 C 44.578125 83.933594 44.636719 84.226562 45.167969 83.519531 C 45.226562 83.402344 45.285156 83.34375 45.402344 83.167969 C 46.113281 82.050781 46.347656 82.167969 46.40625 80.988281 C 46.464844 79.8125 46.40625 78.753906 46.40625 78.753906 C 46.40625 78.753906 47.351562 81.109375 45.816406 83.167969 C 44.28125 85.226562 45.34375 83.875 45.34375 83.875 C 45.34375 83.875 45.996094 84.34375 44.871094 85.464844 C 43.75 86.582031 43.277344 86.816406 43.277344 86.816406 C 43.277344 86.816406 43.398438 87.523438 43.457031 89.347656 C 43.515625 91.113281 43.929688 93.234375 43.929688 93.234375 L 44.636719 95.234375 C 44.636719 95.234375 42.570312 88.464844 42.628906 87.40625 C 42.6875 86.347656 41.449219 92.46875 41.742188 94.46875 C 41.980469 96.46875 41.980469 96.46875 41.980469 96.46875 C 41.980469 96.46875 37.609375 93.703125 36.3125 90.054688 C 35.011719 86.40625 34.539062 85.464844 34.539062 85.464844 C 34.539062 85.464844 34.777344 91.171875 35.660156 91.878906 Z M 35.660156 91.878906 "/>
<path style=" stroke:none;fill-rule:nonzero;fill:rgb(0.392157%,0.392157%,0.392157%);fill-opacity:1;" d="M 47.882812 30.605469 C 47.882812 30.605469 49.949219 25.425781 54.613281 25.601562 C 59.277344 25.777344 65.949219 28.957031 66.953125 30.605469 C 67.839844 32.078125 67.664062 29.546875 65.949219 27.78125 C 64.238281 26.015625 64.535156 26.308594 64.535156 26.308594 C 64.535156 26.308594 67.308594 28.015625 67.546875 29.839844 C 67.839844 31.664062 67.839844 25.601562 65.714844 23.777344 C 63.648438 22.011719 60.402344 20.777344 57.804688 20.953125 C 55.265625 21.1875 48.0625 21.011719 47.882812 30.605469 Z M 47.882812 30.605469 "/>
<path style=" stroke:none;fill-rule:nonzero;fill:rgb(0.392157%,0.392157%,0.392157%);fill-opacity:1;" d="M 59.808594 26.484375 C 59.808594 26.484375 63.175781 28.839844 63.824219 29.957031 C 64.414062 31.078125 61.875 29.3125 61.875 29.3125 C 61.875 29.3125 61.875 29.898438 62.171875 30.015625 C 62.527344 30.195312 61.9375 29.191406 63.824219 31.722656 C 65.65625 34.253906 67.484375 37.726562 67.957031 39.609375 C 68.429688 41.496094 68.488281 41.257812 68.488281 41.257812 C 68.488281 41.257812 68.546875 40.199219 67.957031 37.902344 C 67.425781 35.726562 66.070312 34.3125 65.300781 33.195312 C 64.886719 32.546875 63.53125 30.605469 63.53125 30.605469 L 65.007812 31.019531 C 64.886719 31.019531 64.296875 29.015625 59.808594 26.484375 Z M 59.808594 26.484375 "/>
<path style=" stroke:none;fill-rule:nonzero;fill:rgb(0.392157%,0.392157%,0.392157%);fill-opacity:1;" d="M 62.289062 27.25 C 62.171875 27.132812 68.136719 32.019531 68.429688 34.609375 C 68.726562 37.199219 68.253906 33.902344 68.253906 33.902344 C 68.253906 33.902344 67.546875 31.078125 66.660156 30.253906 C 65.066406 28.78125 66.246094 29.191406 66.246094 29.191406 C 66.246094 29.191406 68.902344 31.136719 69.199219 33.3125 C 69.492188 35.492188 69.433594 35.785156 69.019531 37.902344 C 68.609375 40.082031 68.429688 41.257812 68.429688 41.257812 C 68.429688 41.257812 68.078125 35.550781 66.953125 33.429688 C 65.714844 31.019531 64.121094 28.605469 62.289062 27.25 Z M 62.289062 27.25 "/>
<path style=" stroke:none;fill-rule:nonzero;fill:rgb(0.392157%,0.392157%,0.392157%);fill-opacity:1;" d="M 47.882812 30.605469 C 47.882812 30.605469 47.648438 25.191406 50.601562 22.011719 C 53.375 19.070312 56.148438 18.773438 59.808594 20.070312 C 63.472656 21.363281 64.121094 22.011719 64.121094 22.011719 C 64.121094 22.011719 58.15625 18.1875 54.320312 18.128906 C 50.246094 18.070312 48.355469 19.65625 47.882812 22.835938 C 47.410156 25.957031 47.234375 31.3125 47.882812 30.605469 Z M 47.882812 30.605469 "/>
<path style=" stroke:none;fill-rule:nonzero;fill:rgb(0.392157%,0.392157%,0.392157%);fill-opacity:1;" d="M 67.78125 38.199219 C 67.78125 38.199219 67.25 37.199219 65.480469 37.140625 C 63.648438 37.082031 63.648438 37.082031 63.648438 37.082031 L 62.878906 37.082031 C 62.878906 37.082031 64.652344 37.492188 65.832031 40.90625 C 67.015625 44.320312 66.363281 46.792969 68.429688 48.558594 C 70.496094 50.324219 72.503906 51.089844 72.503906 51.089844 C 72.503906 51.089844 70.734375 48.792969 68.960938 45.792969 C 67.367188 43.144531 67.664062 43.4375 66.953125 41.964844 C 66.480469 41.023438 62.644531 36.136719 67.78125 38.199219 Z M 67.78125 38.199219 "/>
<path style=" stroke:none;fill-rule:nonzero;fill:rgb(0.392157%,0.392157%,0.392157%);fill-opacity:1;" d="M 71.617188 50.617188 C 71.617188 50.617188 71.558594 48.261719 70.617188 46.910156 C 69.671875 45.554688 66.777344 40.492188 66.777344 40.492188 C 66.777344 40.492188 70.496094 45.320312 71.148438 46.792969 C 71.855469 48.324219 72.683594 51.207031 71.617188 50.617188 Z M 71.617188 50.617188 "/>
<path style=" stroke:none;fill-rule:nonzero;fill:rgb(0.392157%,0.392157%,0.392157%);fill-opacity:1;" d="M 66.777344 39.789062 C 66.777344 39.789062 68.253906 41.964844 69.730469 43.320312 C 71.207031 44.671875 71.855469 45.4375 72.152344 45.554688 C 72.445312 45.734375 72.800781 46.792969 72.859375 47.675781 C 72.917969 48.558594 72.976562 49.734375 71.855469 49.910156 C 70.734375 50.089844 71.085938 49.910156 71.085938 49.910156 C 71.085938 49.910156 72.03125 50.617188 72.917969 51.207031 C 73.449219 51.558594 74.925781 54.265625 74.867188 56.976562 C 74.808594 59.683594 74.867188 58.035156 74.867188 58.035156 C 74.867188 58.035156 74.039062 54.972656 72.5625 53.796875 C 71.085938 52.621094 69.433594 50.972656 69.433594 50.972656 C 69.433594 50.972656 68.253906 49.851562 67.484375 48.617188 C 67.191406 48.144531 66.953125 47.675781 66.835938 47.261719 C 66.480469 45.734375 66.480469 45.554688 66.480469 45.554688 C 66.480469 45.554688 65.890625 48.203125 68.429688 50.675781 C 71.027344 53.148438 71.679688 53.503906 72.152344 54.328125 C 72.5625 55.148438 73.273438 59.742188 72.742188 62.15625 C 72.210938 64.566406 71.382812 67.570312 70.617188 68.628906 C 69.847656 69.6875 76.164062 67.097656 76.695312 63.273438 C 77.226562 59.445312 76.933594 61.625 76.933594 61.625 C 76.933594 61.625 79.355469 67.6875 78.113281 69.984375 C 76.636719 72.691406 77.640625 71.101562 77.640625 71.101562 C 77.640625 71.101562 79.234375 70.335938 79.589844 67.277344 C 80.003906 64.273438 79.886719 62.15625 78.585938 59.917969 C 77.289062 57.679688 77.289062 57.679688 77.289062 57.679688 C 77.289062 57.679688 76.222656 53.265625 75.632812 52.265625 C 74.984375 51.03125 74.984375 51.03125 74.984375 51.03125 C 74.984375 51.03125 77.820312 52.738281 78.171875 54.445312 C 78.585938 56.210938 78.289062 56.503906 78.289062 56.503906 C 78.289062 56.503906 80.0625 53.5625 78.351562 51.03125 C 76.636719 48.5 75.929688 47.734375 75.929688 47.734375 C 75.929688 47.734375 74.867188 46.675781 73.625 44.671875 C 72.386719 42.671875 71.679688 41.316406 71.679688 41.316406 C 71.679688 41.316406 69.90625 37.902344 69.375 35.550781 C 68.84375 33.195312 68.960938 34.3125 68.960938 34.3125 C 68.960938 34.3125 71.558594 43.613281 72.503906 44.554688 C 73.449219 45.496094 71.617188 44.027344 70.496094 43.082031 C 69.375 42.140625 66.777344 39.789062 66.777344 39.789062 Z M 66.777344 39.789062 "/>
<path style=" stroke:none;fill-rule:nonzero;fill:rgb(0.392157%,0.392157%,0.392157%);fill-opacity:1;" d="M 78.171875 54.445312 C 78.171875 54.445312 79.234375 50.675781 78.230469 48.617188 C 77.226562 46.558594 76.933594 45.734375 75.398438 44.027344 C 73.863281 42.320312 71.914062 40.554688 70.96875 39.082031 C 70.023438 37.609375 68.960938 34.253906 68.960938 34.253906 L 68.667969 33.078125 C 68.667969 33.078125 70.320312 37.082031 73.507812 38.550781 C 76.695312 40.082031 79.355469 41.257812 81.242188 43.554688 C 83.132812 45.851562 84.550781 48.5 83.425781 51.03125 C 82.304688 53.5625 80.890625 55.089844 79.175781 56.269531 C 77.109375 57.679688 76.695312 57.328125 76.695312 57.328125 C 76.695312 57.328125 82.011719 53.972656 82.425781 51.03125 C 82.894531 48.085938 82.660156 47.792969 82.011719 46.558594 C 81.421875 45.378906 81.480469 45.613281 81.480469 45.613281 C 81.480469 45.613281 82.128906 47.203125 81.242188 49.382812 C 80.355469 51.5 79.472656 53.382812 79.472656 53.382812 C 79.472656 53.382812 80.535156 49.96875 80.828125 48.324219 C 81.125 46.675781 81.066406 46.496094 80.59375 45.613281 C 80.121094 44.730469 78.46875 43.082031 78.46875 43.082031 C 78.46875 43.082031 80.003906 44.320312 79.707031 48.203125 C 79.53125 52.03125 79 53.914062 78.171875 54.445312 Z M 78.171875 54.445312 "/>
<path style=" stroke:none;fill-rule:nonzero;fill:rgb(0.392157%,0.392157%,0.392157%);fill-opacity:1;" d="M 71.558594 34.902344 C 71.558594 34.902344 74.808594 37.082031 76.636719 38.609375 C 78.410156 40.199219 82.011719 42.730469 82.777344 45.554688 C 83.488281 48.382812 83.605469 49.441406 83.605469 49.441406 C 83.605469 49.441406 83.722656 59.152344 83.015625 62.742188 C 82.304688 66.332031 82.601562 64.507812 82.601562 64.507812 C 82.601562 64.507812 83.546875 63.742188 84.785156 58.976562 C 86.027344 54.207031 85.847656 52.03125 85.847656 50.265625 C 85.847656 48.5 85.257812 41.496094 84.371094 39.550781 C 83.308594 37.140625 81.953125 34.136719 79.765625 32.722656 C 77.640625 31.3125 77.289062 31.371094 77.289062 31.371094 C 77.289062 31.371094 75.753906 33.488281 75.101562 33.785156 C 74.570312 34.019531 77.226562 35.433594 79.355469 37.84375 C 81.183594 39.90625 82.425781 42.964844 82.71875 43.96875 C 83.367188 46.203125 82.246094 40.082031 71.558594 34.902344 Z M 71.558594 34.902344 "/>
<path style=" stroke:none;fill-rule:nonzero;fill:rgb(0.392157%,0.392157%,0.392157%);fill-opacity:1;" d="M 82.246094 65.332031 C 82.246094 65.332031 82.894531 63.625 82.601562 61.09375 C 82.246094 58.5625 82.011719 57.386719 82.011719 57.386719 L 81.300781 54.5625 C 81.300781 54.5625 81.714844 61.09375 81.300781 63.332031 C 80.890625 65.570312 79.414062 68.570312 78.761719 69.277344 C 78.113281 69.984375 78.113281 69.984375 78.113281 69.984375 C 78.113281 69.984375 79.765625 68.6875 80.417969 67.394531 C 81.066406 66.097656 81.066406 65.6875 81.066406 65.6875 C 81.066406 65.6875 79.648438 72.21875 78.761719 74.457031 C 77.878906 76.691406 75.160156 81.578125 75.160156 81.578125 C 75.160156 81.578125 79.53125 74.101562 80.355469 71.277344 C 81.125 68.394531 82.070312 64.097656 82.011719 62.800781 C 81.832031 61.507812 82.304688 64.507812 82.246094 65.332031 Z M 82.246094 65.332031 "/>
<path style=" stroke:none;fill-rule:nonzero;fill:rgb(0.392157%,0.392157%,0.392157%);fill-opacity:1;" d="M 76.875 32.664062 C 76.875 32.664062 75.871094 34.078125 73.035156 33.785156 C 70.203125 33.488281 68.609375 32.664062 68.609375 32.664062 C 68.609375 32.664062 72.152344 37.199219 76.875 32.664062 Z M 76.875 32.664062 "/>
<path style=" stroke:none;fill-rule:nonzero;fill:rgb(0.392157%,0.392157%,0.392157%);fill-opacity:1;" d="M 84.609375 42.4375 C 84.609375 42.4375 88.09375 51.324219 87.855469 53.503906 C 87.621094 55.679688 87.679688 56.09375 87.679688 56.09375 C 87.679688 56.09375 89.332031 50.972656 89.097656 48.261719 C 88.683594 44.378906 87.441406 41.90625 86.203125 40.257812 C 84.960938 38.550781 85.375 39.90625 85.375 39.90625 C 85.375 39.90625 86.4375 41.554688 87.207031 44.085938 C 88.328125 47.910156 88.09375 48.441406 88.09375 51.265625 C 88.09375 51.265625 87.027344 44.96875 84.609375 42.4375 Z M 84.609375 42.4375 "/>
<path style=" stroke:none;fill-rule:nonzero;fill:rgb(0.392157%,0.392157%,0.392157%);fill-opacity:1;" d="M 83.898438 40.316406 C 83.898438 40.316406 83.898438 36.492188 81.539062 32.664062 C 79.058594 28.664062 75.753906 27.25 75.753906 27.25 C 75.753906 27.25 76.753906 29.25 76.695312 30.132812 C 76.636719 32.371094 76.695312 30.957031 76.695312 30.957031 C 76.695312 30.957031 77.050781 31.253906 76.285156 29.3125 C 75.691406 27.78125 73.09375 25.367188 73.09375 25.367188 C 73.09375 25.367188 71.738281 24.011719 71.207031 23.660156 C 70.203125 23.011719 67.25 21.835938 66.777344 21.660156 C 66.246094 21.480469 65.300781 20.421875 64.652344 19.714844 C 64.003906 19.011719 60.578125 16.65625 58.273438 16.597656 C 55.972656 16.539062 55.207031 16.597656 55.207031 16.597656 C 55.207031 16.597656 60.933594 13.652344 66.363281 16.949219 C 71.855469 20.1875 72.503906 20.953125 72.503906 20.953125 C 72.503906 20.953125 74.277344 21.601562 75.574219 22.246094 C 76.933594 22.894531 80.238281 24.011719 83.839844 27.839844 C 85.023438 29.132812 87.679688 33.195312 87.027344 36.492188 C 86.4375 39.789062 85.375 43.554688 83.898438 40.316406 Z M 83.898438 40.316406 "/>
<path style=" stroke:none;fill-rule:nonzero;fill:rgb(0.392157%,0.392157%,0.392157%);fill-opacity:1;" d="M 88.503906 40.199219 C 88.503906 40.199219 89.15625 42.90625 89.15625 44.671875 C 89.15625 46.4375 88.859375 49.207031 88.859375 49.207031 C 88.859375 49.207031 88.683594 41.199219 88.503906 40.199219 Z M 88.503906 40.199219 "/>
<path style=" stroke:none;fill-rule:nonzero;fill:rgb(0.392157%,0.392157%,0.392157%);fill-opacity:1;" d="M 85.847656 32.195312 C 85.847656 32.195312 87.148438 34.84375 89.15625 37.433594 C 90.570312 39.257812 93.523438 41.964844 94.410156 40.257812 C 95.296875 38.550781 95 39.375 95 39.375 C 95 39.375 92.34375 43.4375 89.15625 41.257812 C 85.964844 39.082031 85.847656 37.785156 85.847656 37.785156 L 85.847656 37.019531 C 85.847656 37.019531 87.441406 38.964844 89.15625 40.199219 C 90.453125 41.140625 91.753906 41.257812 91.753906 41.257812 C 91.753906 41.257812 87.027344 37.550781 85.847656 32.195312 Z M 85.847656 32.195312 "/>
<path style=" stroke:none;fill-rule:nonzero;fill:rgb(0.392157%,0.392157%,0.392157%);fill-opacity:1;" d="M 74.628906 19.539062 C 74.628906 19.539062 80.121094 23.660156 81.125 24.894531 C 82.070312 26.132812 83.488281 27.425781 83.488281 27.425781 L 85.199219 29.664062 C 85.199219 29.664062 86.320312 28.605469 85.554688 25.542969 C 84.785156 22.484375 83.425781 19.421875 81.125 17.246094 C 78.820312 15.066406 78.820312 15.066406 78.820312 15.066406 C 78.820312 15.066406 78.230469 13.300781 77.226562 12.59375 C 76.285156 11.945312 75.101562 11.652344 74.15625 11.535156 C 73.214844 11.417969 68.960938 12.125 68.726562 12.769531 C 68.429688 13.359375 68.726562 13.183594 68.726562 13.183594 C 68.726562 13.183594 74.925781 10.535156 76.933594 14.125 C 77.640625 15.417969 77.226562 18.1875 77.226562 18.1875 L 76.285156 17.246094 L 75.929688 16.007812 C 75.929688 16.007812 75.398438 15.832031 75.339844 15.417969 C 75.28125 15.007812 74.277344 14.066406 74.277344 14.066406 L 73.035156 13.949219 L 72.445312 13.242188 C 72.445312 13.242188 72.03125 12.652344 71.5 13.242188 C 70.910156 13.832031 70.734375 14.890625 70.023438 14.59375 C 69.375 14.300781 68.078125 14.007812 68.078125 14.007812 L 67.367188 13.890625 L 60.34375 14.066406 C 60.34375 14.066406 56.800781 15.480469 56.089844 15.949219 C 55.382812 16.480469 56.089844 16.300781 56.089844 16.300781 C 56.089844 16.300781 66.777344 14.183594 74.628906 19.539062 Z M 74.628906 19.539062 "/>
<path style=" stroke:none;fill-rule:nonzero;fill:rgb(0.392157%,0.392157%,0.392157%);fill-opacity:1;" d="M 66.363281 20.539062 C 66.363281 20.539062 68.3125 24.308594 70.082031 25.957031 C 71.855469 27.605469 73.863281 28.957031 74.097656 29.074219 C 74.335938 29.191406 79.175781 31.429688 77.996094 31.019531 C 77.757812 30.957031 70.792969 28.191406 69.082031 25.957031 C 67.308594 23.71875 66.660156 22.484375 65.480469 20.894531 C 64.296875 19.304688 63.882812 18.070312 63.882812 18.070312 C 63.882812 18.070312 65.480469 19.011719 66.363281 20.539062 Z M 66.363281 20.539062 "/>
<path style=" stroke:none;fill-rule:nonzero;fill:rgb(0.392157%,0.392157%,0.392157%);fill-opacity:1;" d="M 77.226562 32.195312 L 79.292969 31.488281 C 79.292969 31.488281 74.75 31.664062 71.558594 29.664062 C 68.371094 27.664062 68.078125 26.957031 67.664062 26.191406 C 67.25 25.484375 68.015625 26.367188 68.015625 28.074219 C 68.015625 29.839844 67.78125 31.019531 67.78125 31.019531 C 67.78125 31.019531 71.148438 34.136719 77.226562 32.195312 Z M 77.226562 32.195312 "/>
<path style=" stroke:none;fill-rule:nonzero;fill:rgb(0.392157%,0.392157%,0.392157%);fill-opacity:1;" d="M 68.667969 28.722656 C 64.945312 19.539062 61.9375 18.421875 59.75 17.363281 C 57.625 16.300781 55.144531 16.65625 55.144531 16.65625 L 55.738281 16.421875 L 59.21875 16.421875 C 59.21875 16.421875 61.875 17.421875 64.003906 18.832031 C 66.1875 20.246094 68.609375 28.546875 68.609375 28.546875 L 68.609375 28.722656 Z M 68.667969 28.722656 "/>
<path style=" stroke:none;fill-rule:nonzero;fill:rgb(0.392157%,0.392157%,0.392157%);fill-opacity:1;" d="M 74.335938 11.886719 C 74.335938 11.886719 71.207031 9.828125 66.777344 8.886719 C 62.410156 7.945312 56.800781 6.886719 53.964844 8.886719 C 51.070312 10.886719 50.246094 13.59375 50.246094 13.59375 L 49.300781 15.066406 C 49.300781 15.066406 47.589844 17.421875 47.46875 19.070312 C 47.351562 20.71875 47.46875 21.011719 47.46875 21.011719 C 47.46875 21.011719 48.59375 17.714844 50.71875 17.363281 C 52.84375 16.949219 55.324219 16.949219 56.386719 17.949219 C 57.507812 18.890625 55.796875 16.421875 54.140625 16.421875 C 51.425781 16.421875 57.804688 16.714844 57.804688 16.714844 C 57.804688 16.714844 74.039062 11.886719 74.335938 11.886719 Z M 74.335938 11.886719 "/>
<path style=" stroke:none;fill-rule:nonzero;fill:rgb(0.392157%,0.392157%,0.392157%);fill-opacity:1;" d="M 50.660156 14.300781 C 49.066406 15.242188 50.1875 12.417969 51.132812 10.0625 C 52.074219 7.710938 51.957031 6.707031 54.082031 5.472656 C 55.738281 4.53125 60.695312 3.941406 65.773438 5.589844 C 70.910156 7.238281 74.277344 12.359375 74.277344 12.359375 C 74.277344 12.359375 74.984375 13.007812 72.503906 10.417969 C 69.964844 7.828125 64.710938 5.941406 62.289062 5.472656 C 59.871094 5 57.980469 5.179688 54.613281 6.53125 C 51.308594 7.886719 50.601562 14.066406 50.601562 14.066406 L 50.601562 14.300781 Z M 50.660156 14.300781 "/>
<path style=" stroke:none;fill-rule:nonzero;fill:rgb(0.392157%,0.392157%,0.392157%);fill-opacity:1;" d="M 51.78125 9.0625 C 51.78125 9.0625 50.539062 9.179688 50.246094 10.121094 C 49.949219 11.0625 48.296875 15.597656 47.882812 17.65625 C 47.46875 19.714844 47.46875 19.894531 47.46875 19.894531 C 47.46875 19.894531 46.9375 18.890625 47.46875 16.890625 C 48 14.832031 49.773438 7.589844 51.78125 9.0625 Z M 51.78125 9.0625 "/>
<path style=" stroke:none;fill-rule:nonzero;fill:rgb(0.392157%,0.392157%,0.392157%);fill-opacity:1;" d="M 67.191406 6.472656 C 67.191406 6.472656 72.03125 6.238281 72.03125 2.351562 C 72.03125 -1.589844 72.03125 0.703125 72.03125 0.703125 C 72.03125 0.703125 71.679688 4.648438 68.726562 5.296875 C 65.773438 5.941406 65.125 5.296875 65.125 5.296875 Z M 67.191406 6.472656 "/>
<path style=" stroke:none;fill-rule:nonzero;fill:rgb(0.392157%,0.392157%,0.392157%);fill-opacity:1;" d="M 47.351562 16.300781 C 47.351562 16.300781 48.414062 9.355469 49.832031 7.296875 C 51.308594 5.179688 52.960938 4.355469 55.796875 4.414062 C 58.628906 4.53125 62.46875 4.589844 64.652344 5.179688 C 66.835938 5.765625 70.378906 4.117188 71.207031 2.882812 C 72.03125 1.644531 72.03125 0.46875 72.03125 0.46875 C 72.03125 0.46875 69.847656 5.414062 63.589844 4.472656 C 57.332031 3.589844 53.316406 3.234375 52.015625 4.058594 C 50.660156 4.824219 47.175781 6.0625 47.351562 16.300781 Z M 47.351562 16.300781 "/>
<path style=" stroke:none;fill-rule:nonzero;fill:rgb(0.392157%,0.392157%,0.392157%);fill-opacity:1;" d="M 75.101562 64.097656 C 75.101562 64.097656 78.527344 67.6875 78.054688 69.984375 C 77.582031 72.277344 77.582031 72.277344 77.582031 72.277344 C 77.582031 72.277344 77.878906 69.628906 76.992188 68.160156 C 76.164062 66.6875 76.519531 67.039062 76.519531 67.039062 C 76.519531 67.039062 77.640625 71.277344 76.992188 74.042969 C 76.34375 76.8125 76.105469 77.988281 75.339844 79.929688 C 74.628906 81.871094 74.628906 81.871094 74.628906 81.871094 C 74.628906 81.871094 75.042969 75.808594 74.628906 72.160156 C 74.335938 69.570312 73.746094 68.570312 73.746094 68.570312 C 73.746094 68.570312 73.507812 75.632812 71.5 78.578125 C 69.492188 81.519531 67.308594 83.050781 67.308594 83.050781 C 67.308594 83.050781 69.90625 78.105469 69.847656 74.691406 C 69.789062 71.277344 69.433594 69.277344 69.433594 69.277344 C 69.433594 69.277344 70.851562 68.628906 72.089844 66.628906 C 73.332031 64.746094 75.101562 64.097656 75.101562 64.097656 Z M 75.101562 64.097656 "/>
<path style=" stroke:none;fill-rule:nonzero;fill:rgb(0.392157%,0.392157%,0.392157%);fill-opacity:1;" d="M 74.570312 68.039062 C 74.570312 68.039062 73.804688 77.457031 71.558594 79.460938 C 69.257812 81.460938 68.546875 82.167969 68.546875 82.167969 C 68.546875 82.167969 75.21875 81.402344 74.570312 68.039062 Z M 74.570312 68.039062 "/>
<path style=" stroke:none;fill-rule:nonzero;fill:rgb(0.392157%,0.392157%,0.392157%);fill-opacity:1;" d="M 70.261719 69.277344 C 70.261719 69.277344 71.5 66.15625 71.207031 62.800781 C 70.910156 59.507812 70.320312 55.914062 69.492188 54.503906 C 68.667969 53.089844 68.667969 53.089844 68.667969 53.089844 C 68.667969 53.089844 71.738281 61.625 70.261719 69.277344 Z M 70.261719 69.277344 "/>
<path style=" stroke:none;fill-rule:nonzero;fill:rgb(0.392157%,0.392157%,0.392157%);fill-opacity:1;" d="M 69.90625 69.984375 C 69.90625 69.984375 70.320312 64.921875 69.316406 62.800781 C 68.3125 60.683594 67.664062 59.859375 67.664062 59.859375 C 67.664062 59.859375 70.023438 66.332031 69.90625 69.984375 Z M 69.90625 69.984375 "/>
<path style=" stroke:none;fill-rule:nonzero;fill:rgb(0.392157%,0.392157%,0.392157%);fill-opacity:1;" d="M 66.363281 83.875 C 66.363281 83.875 68.960938 80.636719 68.667969 76.457031 C 68.371094 72.277344 68.195312 71.570312 68.195312 71.570312 L 68.015625 69.628906 L 67.898438 68.039062 C 67.898438 68.039062 69.613281 64.746094 68.785156 62.800781 C 67.957031 60.859375 67.664062 60.035156 67.664062 60.035156 C 67.664062 60.035156 69.492188 55.210938 69.019531 53.914062 C 68.546875 52.621094 68.136719 50.675781 67.605469 49.910156 C 67.132812 49.207031 68.429688 52.441406 68.195312 54.503906 C 67.957031 56.5625 67.25 58.800781 67.25 58.800781 L 66.660156 64.097656 C 66.660156 64.097656 66.070312 61.152344 65.949219 58.976562 C 65.773438 56.796875 65.949219 53.148438 66.304688 52.265625 C 66.660156 51.382812 67.367188 48.675781 67.367188 48.675781 C 67.367188 48.675781 65.832031 51.207031 65.773438 52.796875 C 65.714844 54.328125 65.773438 53.089844 65.773438 53.089844 C 65.773438 53.089844 65.125 51.675781 64.476562 52.089844 C 63.882812 52.5 63.351562 52.679688 62.820312 53.503906 C 62.289062 54.328125 62.054688 54.503906 62.054688 54.503906 C 62.054688 54.503906 62.527344 52.796875 62.230469 52.03125 C 61.9375 51.265625 61.464844 49.207031 61.464844 49.207031 L 60.34375 49.96875 L 60.34375 52.621094 L 60.753906 53.972656 C 60.753906 53.972656 61.9375 55.5625 61.757812 56.738281 C 61.582031 57.917969 61.464844 58.621094 61.523438 59.800781 C 61.582031 61.035156 62.054688 59.445312 62.761719 60.390625 C 63.472656 61.273438 64.179688 62.332031 64.652344 65.746094 C 65.125 69.160156 64.652344 71.984375 64.652344 71.984375 C 64.652344 71.984375 66.011719 71.453125 66.660156 69.570312 C 67.425781 67.746094 68.253906 79.28125 66.363281 83.875 Z M 66.363281 83.875 "/>
<path style=" stroke:none;fill-rule:nonzero;fill:rgb(0.392157%,0.392157%,0.392157%);fill-opacity:1;" d="M 65.417969 70.75 C 65.417969 70.75 64.476562 71.511719 65.125 73.042969 C 65.773438 74.632812 66.777344 76.632812 66.894531 79.164062 C 67.015625 81.695312 66.601562 83.34375 66.601562 83.34375 L 66.421875 84.582031 C 66.421875 84.582031 66.421875 83.636719 65.949219 82.695312 C 65.480469 81.753906 65.480469 81.753906 65.480469 81.753906 C 65.480469 81.753906 66.070312 85.34375 64.003906 87.464844 C 61.9375 89.582031 60.105469 91.230469 60.105469 91.230469 C 60.105469 91.230469 61.757812 89.761719 62.230469 86.464844 C 62.761719 83.167969 62.703125 81.285156 62.171875 79.636719 C 62.054688 79.28125 61.582031 78.339844 61.582031 78.339844 C 61.582031 78.339844 64.886719 73.160156 65.007812 69.277344 C 65.066406 65.332031 65.417969 70.75 65.417969 70.75 Z M 65.417969 70.75 "/>
<path style=" stroke:none;fill-rule:nonzero;fill:rgb(0.392157%,0.392157%,0.392157%);fill-opacity:1;" d="M 63.53125 59.683594 C 63.53125 59.683594 63.058594 62.917969 63.351562 64.625 C 63.589844 66.332031 63.945312 68.804688 63.53125 71.570312 C 63.058594 75.105469 63.175781 74.398438 63.175781 74.398438 C 63.175781 74.398438 63.117188 74.75 63 72.632812 C 62.878906 70.511719 63 70.867188 63 70.867188 C 63 70.867188 63.234375 74.925781 62.347656 76.515625 C 61.464844 78.105469 60.933594 79.28125 60.046875 79.988281 C 59.160156 80.695312 60.695312 79.164062 60.8125 77.339844 C 60.875 75.574219 60.875 72.574219 60.8125 72.101562 C 60.753906 71.75 60.460938 70.160156 60.34375 69.277344 C 60.28125 68.921875 60.222656 68.6875 60.222656 68.6875 C 60.222656 68.6875 60.28125 77.753906 59.75 78.988281 C 59.21875 80.226562 59.75 77.105469 59.75 77.105469 L 59.988281 69.6875 C 59.988281 69.6875 58.808594 75.28125 59.042969 77.046875 C 59.277344 78.8125 59.277344 78.8125 59.277344 78.8125 C 59.277344 78.8125 59.457031 80.519531 59.042969 78.636719 C 58.628906 76.8125 58.511719 76.046875 58.511719 76.046875 C 58.511719 76.046875 58.6875 78.578125 58.273438 79.28125 C 57.863281 79.988281 58.511719 78.695312 58.273438 77.515625 C 58.039062 76.339844 57.742188 75.988281 57.742188 75.988281 L 57.152344 76.046875 L 56.386719 75.105469 C 56.386719 75.105469 57.804688 73.632812 57.566406 72.101562 C 57.332031 70.511719 57.507812 68.6875 57.507812 68.6875 L 57.742188 65.921875 L 58.214844 63.800781 L 58.511719 62.859375 C 58.511719 62.859375 59.808594 63.683594 60.8125 62.214844 C 61.816406 60.800781 61.996094 59.445312 61.996094 59.445312 Z M 63.53125 59.683594 "/>
<path style=" stroke:none;fill-rule:nonzero;fill:rgb(0.392157%,0.392157%,0.392157%);fill-opacity:1;" d="M 59.339844 91.878906 C 59.339844 91.878906 61.582031 89.699219 61.640625 86.289062 C 61.699219 82.875 61.640625 81.578125 61.640625 81.578125 L 60.875 77.28125 C 60.875 77.28125 60.105469 81.8125 59.339844 83.167969 C 58.628906 84.519531 59.042969 82.167969 59.042969 82.167969 C 59.042969 82.167969 58.984375 83.992188 58.15625 84.992188 C 57.390625 85.933594 55.207031 88.523438 55.207031 88.523438 C 55.207031 88.523438 55.085938 87.757812 55.207031 87.050781 C 55.324219 86.40625 58.15625 82.875 58.15625 82.875 C 58.15625 82.875 59.339844 80.988281 59.691406 80.164062 C 59.988281 79.28125 60.460938 78.164062 60.460938 78.164062 C 60.460938 78.164062 57.742188 82.578125 56.917969 83.519531 C 56.089844 84.402344 58.335938 79.695312 58.214844 78.8125 C 58.097656 77.929688 57.625 77.753906 57.625 77.753906 C 57.625 77.753906 57.152344 82.460938 56.089844 84.226562 C 55.027344 85.992188 55.207031 84.640625 55.207031 84.640625 L 54.023438 81.636719 L 54.023438 80.695312 C 54.023438 80.695312 53.136719 79.578125 53.019531 78.988281 C 52.902344 78.398438 53.609375 80.753906 53.789062 80.8125 C 54.023438 80.929688 53.789062 81.226562 53.492188 82.109375 C 53.199219 82.992188 53.433594 83.519531 52.726562 82.519531 C 52.015625 81.519531 51.78125 81.402344 51.308594 80.753906 C 50.835938 80.105469 50.777344 79.636719 50.71875 79.105469 C 50.601562 78.578125 50.363281 79.929688 50.71875 80.578125 C 51.070312 81.167969 51.601562 82.167969 51.601562 82.167969 L 51.011719 83.167969 C 51.011719 83.167969 51.070312 82.636719 50.480469 81.992188 C 49.949219 81.34375 49.535156 81.402344 49.417969 80.636719 C 49.300781 79.871094 49.300781 79.871094 49.300781 79.871094 C 49.300781 79.871094 49.242188 81.34375 49.773438 82.167969 C 50.304688 82.992188 50.421875 83.933594 50.421875 83.933594 C 50.421875 83.933594 50.363281 84.226562 49.832031 83.519531 C 49.773438 83.402344 49.714844 83.34375 49.597656 83.167969 C 48.886719 82.050781 48.652344 82.167969 48.59375 80.988281 C 48.535156 79.8125 48.59375 78.753906 48.59375 78.753906 C 48.59375 78.753906 47.648438 81.109375 49.183594 83.167969 C 50.71875 85.226562 49.65625 83.875 49.65625 83.875 C 49.65625 83.875 49.003906 84.34375 50.128906 85.464844 C 51.25 86.582031 51.722656 86.816406 51.722656 86.816406 C 51.722656 86.816406 51.601562 87.523438 51.542969 89.347656 C 51.484375 91.113281 51.070312 93.234375 51.070312 93.234375 L 50.363281 95.234375 C 50.363281 95.234375 52.429688 88.464844 52.371094 87.40625 C 52.3125 86.347656 53.550781 92.46875 53.257812 94.46875 C 53.019531 96.46875 53.019531 96.46875 53.019531 96.46875 C 53.019531 96.46875 57.390625 93.703125 58.6875 90.054688 C 59.988281 86.40625 60.460938 85.464844 60.460938 85.464844 C 60.460938 85.464844 60.222656 91.171875 59.339844 91.878906 Z M 59.339844 91.878906 "/>
<path style=" stroke:none;fill-rule:nonzero;fill:rgb(0.392157%,0.392157%,0.392157%);fill-opacity:1;" d="M 46.171875 82.109375 C 46.171875 82.109375 46.878906 83.992188 47.234375 84.167969 C 47.589844 84.34375 47.941406 82.402344 47.941406 82.402344 L 48.238281 79.578125 C 48.238281 79.578125 48.238281 83.285156 47.941406 83.933594 C 47.648438 84.582031 48.710938 83.226562 48.828125 82.753906 C 48.945312 82.285156 49.125 83.226562 49.125 83.226562 C 49.125 83.226562 48.886719 83.875 48.238281 84.226562 C 47.648438 84.582031 47.234375 84.757812 47.234375 84.757812 C 47.234375 84.757812 45.933594 82.992188 46.171875 82.109375 Z M 46.171875 82.109375 "/>
<path style=" stroke:none;fill-rule:nonzero;fill:rgb(0.392157%,0.392157%,0.392157%);fill-opacity:1;" d="M 46.171875 82.753906 C 46.171875 82.753906 45.582031 90.054688 45.167969 91.230469 C 44.753906 92.410156 44.695312 94.878906 44.695312 94.878906 C 44.695312 94.878906 44.753906 97.234375 45.402344 98.355469 C 46.054688 99.472656 45.285156 96.527344 46.113281 94.117188 C 47 91.703125 47.410156 90.820312 47.765625 89.40625 C 48.121094 87.996094 48 86.992188 47.941406 85.699219 C 47.824219 84.402344 47.648438 84.167969 47.648438 84.167969 L 47.234375 84.34375 Z M 46.171875 82.753906 "/>
<path style=" stroke:none;fill-rule:nonzero;fill:rgb(0.392157%,0.392157%,0.392157%);fill-opacity:1;" d="M 48.414062 83.460938 C 48.414062 83.460938 49.476562 86.464844 48.828125 88.289062 C 48.238281 90.113281 47.175781 94.46875 46.761719 95.351562 C 46.347656 96.234375 45.402344 98.292969 45.402344 98.292969 C 45.402344 98.292969 46.171875 97.765625 46.347656 97.410156 C 46.527344 97 47.175781 97.882812 47.117188 98.765625 C 47.058594 99.648438 46.644531 100.53125 47.941406 99.296875 C 49.242188 98.058594 49.832031 98 49.832031 96 C 49.832031 93.996094 49.300781 91.703125 49.300781 91.703125 C 49.300781 91.703125 50.777344 95.175781 50.777344 97.175781 C 50.71875 99.175781 50.777344 98.234375 50.777344 98.234375 C 50.777344 98.234375 52.488281 95.527344 51.664062 92.761719 C 50.835938 89.9375 49.949219 87.230469 49.949219 87.230469 L 49.125 83.167969 Z M 48.414062 83.460938 "/>
<path style=" stroke:none;fill-rule:nonzero;fill:rgb(0.392157%,0.392157%,0.392157%);fill-opacity:1;" d="M 41.863281 88.582031 C 41.863281 88.582031 42.6875 94.117188 43.808594 95.292969 C 44.871094 96.46875 45.285156 96.410156 45.285156 96.410156 C 45.285156 96.410156 41.800781 89.9375 42.214844 87.523438 C 42.511719 85.050781 41.863281 88.582031 41.863281 88.582031 Z M 41.863281 88.582031 "/>
<path style=" stroke:none;fill-rule:nonzero;fill:rgb(0.392157%,0.392157%,0.392157%);fill-opacity:1;" d="M 39.855469 56.5625 C 39.855469 56.796875 39.617188 57.035156 39.382812 57.035156 C 39.144531 57.035156 38.910156 56.796875 38.910156 56.5625 C 38.910156 56.328125 39.144531 56.09375 39.382812 56.09375 C 39.617188 56.09375 39.855469 56.269531 39.855469 56.5625 Z M 39.855469 56.5625 "/>
<path style=" stroke:none;fill-rule:nonzero;fill:rgb(0.392157%,0.392157%,0.392157%);fill-opacity:1;" d="M 43.515625 56.09375 C 43.515625 56.386719 43.277344 56.621094 42.984375 56.621094 C 42.6875 56.621094 42.453125 56.386719 42.453125 56.09375 C 42.453125 55.796875 42.6875 55.5625 42.984375 55.5625 C 43.277344 55.5625 43.515625 55.796875 43.515625 56.09375 Z M 43.515625 56.09375 "/>
<path style=" stroke:none;fill-rule:nonzero;fill:rgb(0.392157%,0.392157%,0.392157%);fill-opacity:1;" d="M 38.378906 54.089844 C 38.378906 54.328125 38.199219 54.503906 37.964844 54.503906 C 37.726562 54.503906 37.550781 54.328125 37.550781 54.089844 C 37.550781 53.855469 37.726562 53.679688 37.964844 53.679688 C 38.199219 53.738281 38.378906 53.914062 38.378906 54.089844 Z M 38.378906 54.089844 "/>
<path style=" stroke:none;fill-rule:nonzero;fill:rgb(0.392157%,0.392157%,0.392157%);fill-opacity:1;" d="M 36.546875 58.269531 C 36.546875 58.445312 36.429688 58.5625 36.253906 58.5625 C 36.074219 58.5625 35.957031 58.445312 35.957031 58.269531 C 35.957031 58.09375 36.074219 57.976562 36.253906 57.976562 C 36.429688 57.976562 36.546875 58.152344 36.546875 58.269531 Z M 36.546875 58.269531 "/>
<path style=" stroke:none;fill-rule:nonzero;fill:rgb(0.392157%,0.392157%,0.392157%);fill-opacity:1;" d="M 41.269531 61.035156 C 41.269531 61.390625 40.976562 61.625 40.679688 61.625 C 40.386719 61.625 40.089844 61.332031 40.089844 61.035156 C 40.089844 60.683594 40.386719 60.449219 40.679688 60.449219 C 40.976562 60.449219 41.269531 60.742188 41.269531 61.035156 Z M 41.269531 61.035156 "/>
<path style=" stroke:none;fill-rule:nonzero;fill:rgb(0.392157%,0.392157%,0.392157%);fill-opacity:1;" d="M 44.046875 59.917969 C 44.046875 60.210938 43.808594 60.449219 43.515625 60.449219 C 43.21875 60.449219 42.984375 60.210938 42.984375 59.917969 C 42.984375 59.625 43.21875 59.386719 43.515625 59.386719 C 43.808594 59.386719 44.046875 59.625 44.046875 59.917969 Z M 44.046875 59.917969 "/>
<path style=" stroke:none;fill-rule:nonzero;fill:rgb(0.392157%,0.392157%,0.392157%);fill-opacity:1;" d="M 36.253906 61.273438 C 36.253906 61.566406 36.015625 61.800781 35.722656 61.800781 C 35.425781 61.800781 35.191406 61.566406 35.191406 61.273438 C 35.191406 60.976562 35.425781 60.742188 35.722656 60.742188 C 36.015625 60.800781 36.253906 61.035156 36.253906 61.273438 Z M 36.253906 61.273438 "/>
<path style=" stroke:none;fill-rule:nonzero;fill:rgb(0.392157%,0.392157%,0.392157%);fill-opacity:1;" d="M 35.957031 55.914062 C 35.957031 56.152344 35.78125 56.269531 35.601562 56.269531 C 35.367188 56.269531 35.25 56.09375 35.25 55.914062 C 35.25 55.679688 35.425781 55.5625 35.601562 55.5625 C 35.839844 55.5625 35.957031 55.738281 35.957031 55.914062 Z M 35.957031 55.914062 "/>
<path style=" stroke:none;fill-rule:nonzero;fill:rgb(0.392157%,0.392157%,0.392157%);fill-opacity:1;" d="M 54.023438 56.328125 C 54.023438 56.5625 53.847656 56.738281 53.609375 56.738281 C 53.375 56.738281 53.199219 56.5625 53.199219 56.328125 C 53.199219 56.09375 53.375 55.914062 53.609375 55.914062 C 53.847656 55.914062 54.023438 56.09375 54.023438 56.328125 Z M 54.023438 56.328125 "/>
<path style=" stroke:none;fill-rule:nonzero;fill:rgb(0.392157%,0.392157%,0.392157%);fill-opacity:1;" d="M 56.738281 55.914062 C 56.738281 56.09375 56.5625 56.269531 56.386719 56.269531 C 56.207031 56.269531 56.03125 56.09375 56.03125 55.914062 C 56.03125 55.738281 56.207031 55.5625 56.386719 55.5625 C 56.5625 55.5625 56.738281 55.738281 56.738281 55.914062 Z M 56.738281 55.914062 "/>
<path style=" stroke:none;fill-rule:nonzero;fill:rgb(0.392157%,0.392157%,0.392157%);fill-opacity:1;" d="M 59.042969 54.148438 C 59.042969 54.378906 58.859375 54.5625 58.628906 54.5625 C 58.402344 54.5625 58.214844 54.378906 58.214844 54.148438 C 58.214844 53.921875 58.402344 53.738281 58.628906 53.738281 C 58.859375 53.738281 59.042969 53.921875 59.042969 54.148438 Z M 59.042969 54.148438 "/>
<path style=" stroke:none;fill-rule:nonzero;fill:rgb(0.392157%,0.392157%,0.392157%);fill-opacity:1;" d="M 60.875 58.386719 C 60.875 58.621094 60.695312 58.800781 60.460938 58.800781 C 60.222656 58.800781 60.046875 58.621094 60.046875 58.386719 C 60.046875 58.152344 60.222656 57.976562 60.460938 57.976562 C 60.695312 58.035156 60.875 58.210938 60.875 58.386719 Z M 60.875 58.386719 "/>
<path style=" stroke:none;fill-rule:nonzero;fill:rgb(0.392157%,0.392157%,0.392157%);fill-opacity:1;" d="M 56.976562 60.742188 C 56.976562 60.917969 56.859375 61.035156 56.679688 61.035156 C 56.503906 61.035156 56.386719 60.917969 56.386719 60.742188 C 56.386719 60.566406 56.503906 60.449219 56.679688 60.449219 C 56.859375 60.449219 56.976562 60.566406 56.976562 60.742188 Z M 56.976562 60.742188 "/>
<path style=" stroke:none;fill-rule:nonzero;fill:rgb(0.392157%,0.392157%,0.392157%);fill-opacity:1;" d="M 59.042969 57.976562 C 59.042969 58.328125 58.746094 58.5625 58.453125 58.5625 C 58.097656 58.5625 57.863281 58.269531 57.863281 57.976562 C 57.863281 57.621094 58.15625 57.386719 58.453125 57.386719 C 58.746094 57.328125 59.042969 57.621094 59.042969 57.976562 Z M 59.042969 57.976562 "/>
<path style=" stroke:none;fill-rule:nonzero;fill:rgb(0.392157%,0.392157%,0.392157%);fill-opacity:1;" d="M 51.78125 58.800781 C 51.78125 59.09375 51.542969 59.328125 51.25 59.328125 C 50.953125 59.328125 50.71875 59.09375 50.71875 58.800781 C 50.71875 58.503906 50.953125 58.269531 51.25 58.269531 C 51.542969 58.269531 51.78125 58.503906 51.78125 58.800781 Z M 51.78125 58.800781 "/>
<path style=" stroke:none;fill-rule:nonzero;fill:rgb(0.392157%,0.392157%,0.392157%);fill-opacity:1;" d="M 54.496094 59.625 C 54.496094 59.800781 54.378906 59.917969 54.203125 59.917969 C 54.023438 59.917969 53.90625 59.800781 53.90625 59.625 C 53.90625 59.445312 54.023438 59.328125 54.203125 59.328125 C 54.378906 59.328125 54.496094 59.445312 54.496094 59.625 Z M 54.496094 59.625 "/>
<path style=" stroke:none;fill-rule:nonzero;fill:rgb(0.392157%,0.392157%,0.392157%);fill-opacity:1;" d="M 54.023438 54.503906 C 54.023438 54.738281 53.847656 54.914062 53.609375 54.914062 C 53.375 54.914062 53.199219 54.738281 53.199219 54.503906 C 53.199219 54.265625 53.375 54.089844 53.609375 54.089844 C 53.847656 54.089844 54.023438 54.328125 54.023438 54.503906 Z M 54.023438 54.503906 "/>
<path style=" stroke:none;fill-rule:nonzero;fill:rgb(0.392157%,0.392157%,0.392157%);fill-opacity:1;" d="M 60.105469 61.800781 C 60.105469 62.097656 59.871094 62.332031 59.574219 62.332031 C 59.277344 62.332031 59.042969 62.097656 59.042969 61.800781 C 59.042969 61.507812 59.277344 61.273438 59.574219 61.273438 C 59.871094 61.273438 60.105469 61.507812 60.105469 61.800781 Z M 60.105469 61.800781 "/>
</g>
</svg>
