<?xml version="1.0" encoding="UTF-8"?>
<svg xmlns="http://www.w3.org/2000/svg" xmlns:xlink="http://www.w3.org/1999/xlink" width="84px" height="100px" viewBox="0 0 84 100" version="1.1">
<g id="surface1">
<path style=" stroke:none;fill-rule:nonzero;fill:rgb(0%,0%,0%);fill-opacity:1;" d="M 61.171875 0.496094 L 50.925781 5.3125 L 77.855469 33.058594 L 84 27.21875 C 84 27.21875 79.316406 5.898438 61.171875 0.496094 Z M 61.171875 0.496094 "/>
<path style=" stroke:none;fill-rule:nonzero;fill:rgb(0%,0%,0%);fill-opacity:1;" d="M 48.585938 70.882812 C 48.585938 75.238281 45.046875 78.769531 40.683594 78.769531 C 36.320312 78.769531 32.78125 75.238281 32.78125 70.882812 C 32.78125 66.527344 36.320312 62.996094 40.683594 62.996094 C 45.046875 62.996094 48.585938 66.527344 48.585938 70.882812 Z M 48.585938 70.882812 "/>
<path style=" stroke:none;fill-rule:nonzero;fill:rgb(0%,0%,0%);fill-opacity:1;" d="M 4.683594 33.207031 C 4.535156 35.105469 6.144531 37.878906 7.023438 39.632812 C 9.074219 43.28125 5.121094 47.808594 2.046875 50.292969 C 0.730469 51.460938 -0.585938 52.628906 0.144531 54.382812 C 0.585938 55.695312 4.242188 56.71875 4.390625 58.03125 C 4.535156 59.492188 0.878906 60.515625 1.171875 62.121094 C 1.316406 63.289062 2.488281 64.601562 3.511719 65.1875 C 3.804688 65.480469 3.660156 65.625 3.660156 65.625 C 1.609375 66.792969 2.488281 69.277344 5.269531 70.738281 L 5.855469 71.175781 C 6.730469 71.90625 7.464844 72.925781 7.609375 74.09375 C 7.757812 75.265625 7.757812 76.433594 7.902344 77.746094 C 8.488281 80.082031 10.683594 80.960938 12.878906 80.960938 C 16.828125 80.960938 21.804688 76.578125 25.757812 78.183594 C 29.5625 79.789062 27.953125 87.382812 27.21875 90.304688 C 26.632812 93.078125 26.046875 95.855469 25.316406 98.628906 C 34.097656 100.671875 52.535156 99.066406 52.242188 97.316406 C 51.074219 92.203125 49.902344 86.070312 50.195312 79.789062 C 47.855469 82.273438 44.488281 83.878906 40.683594 83.878906 C 33.511719 83.878906 27.660156 78.039062 27.660156 70.882812 C 27.660156 63.726562 33.511719 57.886719 40.683594 57.886719 C 46.535156 57.886719 51.511719 61.683594 53.121094 67.085938 C 53.707031 66.0625 54.4375 65.042969 55.171875 63.875 L 9.367188 21.523438 C 5.269531 26.632812 4.828125 31.453125 4.683594 33.207031 Z M 4.683594 33.207031 "/>
<path style=" stroke:none;fill-rule:nonzero;fill:rgb(0%,0%,0%);fill-opacity:1;" d="M 32.488281 7.503906 L 30.292969 5.898438 L 15.074219 12.175781 L 16.683594 13.636719 L 63.660156 55.109375 L 64.828125 56.132812 L 75.21875 40.507812 L 73.464844 39.195312 Z M 32.488281 7.503906 "/>
</g>
</svg>
