<?xml version="1.0" encoding="UTF-8"?>
<svg xmlns="http://www.w3.org/2000/svg" xmlns:xlink="http://www.w3.org/1999/xlink" width="100px" height="76px" viewBox="0 0 100 76" version="1.1">
<g id="surface1">
<path style=" stroke:none;fill-rule:nonzero;fill:rgb(72.549021%,39.215687%,25.882354%);fill-opacity:1;" d="M 8.433594 20.175781 C 7.652344 21.1875 7.542969 22.308594 6.984375 24.210938 C 6.539062 34.636719 14.226562 40.578125 14.226562 43.605469 C 14.5625 46.40625 12.109375 50.21875 12.222656 52.125 C 12.332031 53.804688 15.675781 59.632812 16.792969 65.238281 C 17.238281 66.246094 16.679688 67.703125 17.238281 68.378906 C 17.683594 69.050781 19.355469 69.722656 19.355469 69.722656 L 18.460938 73.757812 L 24.480469 73.757812 C 24.480469 73.757812 24.703125 71.515625 24.035156 70.621094 C 23.367188 69.722656 22.472656 69.273438 21.917969 68.9375 C 19.910156 66.136719 18.460938 58.175781 18.238281 56.71875 C 18.128906 52.796875 22.699219 44.054688 23.367188 41.363281 C 23.921875 39.792969 26.039062 33.851562 26.152344 31.050781 C 26.261719 28.246094 28.269531 20.175781 18.351562 17.824219 C 14.675781 16.589844 11.21875 16.8125 8.433594 20.175781 Z M 8.433594 20.175781 "/>
<path style=" stroke:none;fill-rule:nonzero;fill:rgb(72.549021%,39.215687%,25.882354%);fill-opacity:1;" d="M 61.253906 44.835938 C 60.585938 48.761719 58.582031 56.382812 58.136719 60.082031 C 57.914062 63.667969 58.359375 67.59375 58.46875 68.152344 C 58.914062 69.609375 60.476562 70.84375 60.585938 71.066406 C 60.699219 71.292969 60.363281 71.851562 60.363281 71.851562 L 61.144531 73.757812 C 61.144531 73.757812 56.464844 73.871094 55.90625 73.757812 C 55.90625 73.757812 56.796875 71.851562 56.6875 70.84375 C 56.351562 69.273438 55.125 69.273438 54.679688 67.929688 C 54.234375 66.585938 55.683594 61.089844 55.015625 58.289062 C 55.015625 58.289062 53.789062 49.097656 54.679688 47.863281 C 55.792969 38.113281 61.253906 44.835938 61.253906 44.835938 Z M 61.253906 44.835938 "/>
<path style=" stroke:none;fill-rule:nonzero;fill:rgb(72.549021%,39.215687%,25.882354%);fill-opacity:1;" d="M 2.75 33.964844 C 3.195312 43.492188 4.980469 46.96875 1.414062 53.582031 C 6.984375 50.777344 7.097656 41.699219 7.097656 41.699219 Z M 2.75 33.964844 "/>
<path style=" stroke:none;fill-rule:nonzero;fill:rgb(30.588236%,30.588236%,30.588236%);fill-opacity:1;" d="M 0.0742188 54.8125 L 0.855469 53.246094 C 3.417969 48.535156 3.085938 45.398438 2.636719 40.355469 C 2.414062 38.558594 2.304688 36.429688 2.191406 33.851562 L 2.082031 31.5 L 7.652344 41.476562 L 7.652344 41.585938 C 7.652344 41.921875 7.542969 51.113281 1.746094 54.03125 Z M 3.417969 36.320312 C 3.53125 37.777344 3.640625 39.121094 3.753906 40.242188 C 4.199219 44.726562 4.53125 47.863281 2.75 51.898438 C 6.09375 48.761719 6.425781 42.820312 6.425781 41.8125 Z M 3.417969 36.320312 "/>
<path style=" stroke:none;fill-rule:nonzero;fill:rgb(30.588236%,30.588236%,30.588236%);fill-opacity:1;" d="M 24.925781 74.320312 L 17.683594 74.320312 L 18.574219 70.058594 C 18.015625 69.835938 17.015625 69.273438 16.679688 68.714844 C 16.34375 68.152344 16.34375 67.480469 16.34375 66.921875 C 16.34375 66.472656 16.34375 65.910156 16.234375 65.464844 C 15.675781 62.101562 14.226562 58.847656 13.113281 56.160156 C 12.332031 54.253906 11.664062 52.796875 11.664062 52.011719 C 11.554688 51.113281 12.109375 49.882812 12.554688 48.535156 C 13.113281 46.855469 13.894531 45.0625 13.671875 43.605469 C 13.671875 42.707031 12.78125 41.363281 11.664062 39.792969 C 9.4375 36.429688 6.09375 31.386719 6.425781 24.210938 L 6.425781 24.101562 C 6.539062 23.539062 6.648438 23.203125 6.761719 22.867188 C 7.097656 21.632812 7.320312 20.738281 7.988281 19.839844 C 10.773438 16.703125 14.003906 15.804688 18.460938 17.261719 C 27.824219 19.390625 27.042969 26.679688 26.710938 30.152344 C 26.710938 30.488281 26.597656 30.824219 26.597656 31.050781 C 26.488281 33.742188 24.703125 38.785156 23.921875 41.027344 L 23.8125 41.476562 C 23.589844 42.371094 22.921875 44.164062 22.027344 46.070312 C 20.46875 49.65625 18.6875 54.253906 18.6875 56.609375 C 18.910156 58.402344 20.355469 65.910156 22.25 68.488281 C 22.363281 68.601562 22.472656 68.601562 22.585938 68.714844 C 23.144531 69.050781 23.8125 69.5 24.480469 70.28125 C 25.261719 71.292969 25.039062 73.535156 25.039062 73.871094 Z M 19.019531 73.199219 L 23.8125 73.199219 C 23.8125 72.414062 23.699219 71.292969 23.476562 70.957031 C 23.03125 70.394531 22.363281 69.945312 21.917969 69.609375 C 21.804688 69.5 21.582031 69.386719 21.472656 69.273438 L 21.359375 69.164062 C 19.242188 66.246094 17.792969 58.066406 17.570312 56.609375 C 17.460938 53.917969 19.464844 49.210938 20.914062 45.511719 C 21.695312 43.605469 22.363281 41.921875 22.585938 41.027344 L 22.808594 40.464844 C 23.476562 38.558594 25.261719 33.292969 25.371094 30.824219 C 25.371094 30.601562 25.371094 30.265625 25.484375 29.816406 C 25.816406 26.453125 26.488281 20.066406 18.015625 18.160156 C 16.679688 17.824219 15.566406 17.597656 14.5625 17.597656 C 12.222656 17.597656 10.328125 18.496094 8.65625 20.402344 C 8.097656 21.074219 7.988281 21.859375 7.652344 22.980469 C 7.542969 23.316406 7.429688 23.765625 7.320312 24.101562 C 6.984375 30.824219 10.105469 35.535156 12.445312 38.898438 C 13.671875 40.800781 14.5625 42.148438 14.5625 43.269531 C 14.785156 44.949219 14.003906 46.855469 13.335938 48.648438 C 12.890625 49.882812 12.445312 51.003906 12.445312 51.675781 C 12.445312 52.347656 13.113281 53.804688 13.78125 55.488281 C 14.898438 58.066406 16.34375 61.539062 16.902344 64.902344 C 17.125 65.464844 17.125 66.023438 17.125 66.695312 C 17.125 67.144531 17.125 67.703125 17.238281 67.929688 C 17.460938 68.265625 18.460938 68.824219 19.132812 69.050781 L 19.578125 69.273438 Z M 19.019531 73.199219 "/>
<path style=" stroke:none;fill-rule:nonzero;fill:rgb(30.588236%,30.588236%,30.588236%);fill-opacity:1;" d="M 57.578125 74.320312 C 56.351562 74.320312 56.019531 74.320312 55.90625 74.320312 L 55.238281 74.207031 L 55.570312 73.535156 C 55.90625 72.863281 56.351562 71.515625 56.351562 70.957031 C 56.242188 70.394531 55.90625 70.058594 55.460938 69.722656 C 55.015625 69.386719 54.570312 68.9375 54.347656 68.152344 C 54.125 67.59375 54.234375 66.472656 54.457031 64.679688 C 54.679688 62.660156 55.015625 60.082031 54.570312 58.511719 C 54.234375 56.269531 53.453125 49.320312 54.234375 47.753906 C 54.679688 44.054688 55.90625 42.148438 57.6875 42.148438 C 59.695312 42.148438 61.589844 44.5 61.699219 44.613281 L 61.8125 44.835938 L 61.8125 45.0625 C 61.476562 46.742188 61.03125 49.097656 60.476562 51.5625 C 59.695312 54.8125 58.914062 58.175781 58.691406 60.308594 C 58.46875 63.78125 58.914062 67.703125 59.027344 68.152344 C 59.25 69.050781 60.140625 69.835938 60.585938 70.394531 C 60.921875 70.730469 61.03125 70.84375 61.144531 71.066406 C 61.253906 71.402344 61.144531 71.742188 61.03125 72.078125 L 62.035156 74.542969 L 61.253906 74.542969 C 61.144531 74.320312 59.136719 74.320312 57.578125 74.320312 Z M 56.796875 73.199219 C 57.019531 73.199219 57.242188 73.199219 57.578125 73.199219 C 58.46875 73.199219 59.582031 73.199219 60.363281 73.199219 L 59.804688 71.742188 L 59.917969 71.515625 C 60.03125 71.402344 60.03125 71.179688 60.03125 71.066406 C 60.03125 70.957031 59.917969 70.957031 59.804688 70.84375 C 59.25 70.28125 58.246094 69.273438 57.914062 68.152344 C 57.800781 67.59375 57.242188 63.558594 57.578125 59.96875 C 57.800781 57.839844 58.582031 54.367188 59.359375 51.113281 C 59.917969 48.761719 60.363281 46.632812 60.699219 44.949219 C 60.140625 44.277344 58.804688 43.042969 57.6875 43.042969 C 56.128906 43.042969 55.570312 45.621094 55.238281 47.753906 L 55.125 47.976562 C 54.679688 48.648438 55.015625 53.804688 55.570312 58.066406 C 56.019531 59.746094 55.683594 62.4375 55.460938 64.566406 C 55.347656 65.910156 55.125 67.257812 55.238281 67.59375 C 55.347656 68.042969 55.683594 68.265625 56.019531 68.601562 C 56.464844 69.050781 57.019531 69.5 57.242188 70.507812 C 57.355469 71.402344 57.019531 72.523438 56.796875 73.199219 Z M 56.796875 73.199219 "/>
<path style=" stroke:none;fill-rule:nonzero;fill:rgb(100%,100%,100%);fill-opacity:1;" d="M 97.917969 20.511719 C 93.351562 15.691406 91.789062 9.640625 89.785156 7.621094 C 88.890625 6.835938 88.558594 6.5 88.558594 6.5 C 88.558594 6.5 85.4375 4.257812 82.984375 4.484375 C 78.863281 4.933594 65.601562 14.125 58.023438 16.589844 C 52.117188 16.925781 48.328125 18.046875 42.644531 18.269531 C 33.507812 18.382812 22.585938 13.898438 16.121094 14.234375 C 14.898438 14.234375 9.660156 14.125 5.535156 18.160156 C 1.636719 21.746094 1.414062 25.78125 1.414062 25.78125 C 0.96875 36.207031 8.65625 42.148438 8.65625 45.175781 C 8.992188 47.976562 6.539062 51.789062 6.648438 53.691406 C 6.761719 55.488281 10.214844 61.316406 11.21875 66.921875 C 11.664062 67.929688 11.109375 69.386719 11.664062 70.058594 C 12.109375 70.730469 13.78125 71.402344 13.78125 71.402344 L 12.890625 75.441406 L 18.910156 75.441406 C 18.910156 75.441406 19.132812 73.199219 18.460938 72.300781 C 17.792969 71.402344 16.902344 70.957031 16.34375 70.621094 C 14.339844 67.816406 12.890625 59.859375 12.667969 58.402344 C 12.554688 54.476562 17.125 45.734375 17.792969 43.042969 C 17.792969 43.042969 19.464844 40.242188 22.699219 40.800781 C 25.59375 41.25 27.933594 45.0625 37.40625 46.296875 C 46.101562 47.078125 51.894531 44.835938 51.894531 44.835938 C 51.894531 49.320312 52.007812 59.410156 51.335938 62.4375 C 50.445312 65.910156 49.441406 68.152344 49.777344 68.9375 C 50.113281 69.722656 51.335938 72.414062 51.335938 72.414062 L 50.445312 75.441406 L 55.90625 75.441406 L 54.792969 73.644531 L 54.679688 72.414062 L 54.011719 71.515625 C 54.011719 71.515625 53.453125 70.507812 53.121094 69.050781 C 52.898438 67.59375 53.34375 65.125 54.011719 62.101562 C 55.347656 55.597656 58.804688 48.984375 60.140625 45.285156 C 61.367188 44.613281 64.933594 44.164062 67.160156 41.8125 C 69.390625 39.457031 69.390625 36.320312 69.390625 36.320312 C 69.390625 36.320312 79.644531 21.746094 81.871094 21.1875 C 84.433594 23.652344 86.664062 23.539062 92.234375 27.351562 C 92.457031 27.6875 93.238281 29.144531 94.019531 29.59375 C 94.796875 30.152344 96.914062 29.703125 96.914062 29.703125 L 96.914062 29.03125 L 98.03125 29.144531 C 97.917969 29.257812 101.261719 24.210938 97.917969 20.511719 Z M 97.917969 20.511719 "/>
<path style=" stroke:none;fill-rule:nonzero;fill:rgb(72.549021%,39.215687%,25.882354%);fill-opacity:1;" d="M 57.914062 16.925781 C 57.578125 16.703125 57.800781 14.910156 58.804688 13.675781 C 66.269531 9.527344 75.183594 0.558594 83.207031 0.558594 C 90.117188 0.785156 91.566406 7.175781 91.566406 7.175781 C 91.566406 7.175781 90.117188 7.511719 89.785156 7.621094 C 87.554688 5.269531 84.878906 4.371094 82.09375 4.484375 C 74.960938 8.070312 62.703125 14.574219 57.914062 16.925781 Z M 57.914062 16.925781 "/>
<path style=" stroke:none;fill-rule:nonzero;fill:rgb(30.588236%,30.588236%,30.588236%);fill-opacity:1;" d="M 57.355469 16.925781 C 57.355469 16.8125 57.242188 14.683594 58.46875 13.226562 L 58.582031 13.113281 C 60.921875 11.882812 63.261719 10.089844 65.824219 8.296875 C 71.621094 4.257812 77.527344 0 83.207031 0 C 90.453125 0.335938 92.125 6.949219 92.125 7.0625 L 92.234375 7.621094 L 91.679688 7.734375 C 91.679688 7.734375 90.230469 8.070312 89.785156 8.183594 L 89.5625 7.0625 C 89.785156 6.949219 90.339844 6.835938 90.785156 6.726562 C 90.230469 5.269531 88.335938 1.234375 83.097656 1.007812 C 77.75 1.007812 71.953125 5.15625 66.382812 9.078125 C 63.820312 10.875 61.367188 12.667969 59.027344 13.898438 C 58.136719 15.019531 58.246094 16.703125 58.246094 16.703125 Z M 57.355469 16.925781 "/>
<path style=" stroke:none;fill-rule:nonzero;fill:rgb(72.549021%,39.215687%,25.882354%);fill-opacity:1;" d="M 2.636719 21.859375 C 9.214844 21.96875 15.566406 26.117188 20.582031 30.9375 L 20.46875 31.945312 C 20.46875 31.945312 27.824219 34.636719 32.058594 45.0625 C 29.828125 35.421875 21.25 27.464844 21.25 27.464844 L 21.472656 26.230469 C 17.683594 22.417969 12.222656 18.496094 6.761719 18.945312 C 5.648438 18.945312 3.195312 19.953125 2.636719 21.859375 Z M 2.636719 21.859375 "/>
<path style=" stroke:none;fill-rule:nonzero;fill:rgb(72.549021%,39.215687%,25.882354%);fill-opacity:1;" d="M 5.425781 18.160156 C 5.425781 18.382812 9.660156 16.703125 9.660156 16.703125 L 14.226562 17.488281 L 27.933594 27.6875 L 33.0625 35.871094 L 35.511719 45.734375 L 34.511719 35.871094 L 30.050781 26.566406 L 20.804688 19.054688 L 20.804688 17.152344 L 23.921875 19.390625 L 26.488281 19.390625 L 27.265625 22.644531 L 30.273438 23.875 L 34.84375 32.730469 L 37.519531 45.511719 L 36.851562 32.621094 L 29.050781 19.167969 L 30.609375 19.167969 L 38.300781 32.621094 L 34.398438 19.28125 L 35.847656 19.28125 L 39.636719 31.945312 L 41.085938 45.511719 L 42.421875 31.945312 L 38.523438 19.28125 L 39.523438 19.953125 L 43.648438 31.945312 L 43.871094 19.839844 L 45.097656 19.953125 L 44.09375 35.308594 L 46.769531 24.546875 L 47.769531 24.4375 L 42.980469 43.71875 L 43.089844 45.734375 L 44.652344 45.734375 L 44.652344 43.269531 L 46.101562 40.800781 L 50.222656 22.753906 L 50.222656 19.503906 L 51.558594 20.289062 L 51.78125 24.4375 L 48.105469 39.570312 L 46.992188 43.605469 L 48.105469 45.0625 L 49.554688 44.5 L 48.664062 43.378906 L 50.890625 36.878906 L 54.125 23.988281 L 53.230469 17.824219 L 54.570312 17.597656 L 55.570312 20.402344 L 53.453125 31.945312 L 50.78125 40.242188 L 50.890625 44.054688 L 51.671875 44.054688 L 52.453125 38.898438 L 55.570312 32.394531 L 57.355469 23.988281 L 57.355469 17.933594 C 57.355469 17.933594 56.910156 17.039062 56.128906 16.703125 C 50.445312 17.152344 45.988281 18.496094 40.527344 18.269531 C 36.515625 18.496094 24.59375 15.355469 24.59375 15.355469 C 24.59375 15.355469 17.683594 13.5625 12.554688 14.460938 C 10.886719 14.683594 7.542969 15.917969 5.425781 18.160156 Z M 5.425781 18.160156 "/>
<path style=" stroke:none;fill-rule:nonzero;fill:rgb(72.549021%,39.215687%,25.882354%);fill-opacity:1;" d="M 1.746094 24.210938 L 13.335938 30.488281 L 20.246094 34.414062 L 20.246094 34.863281 C 20.914062 34.972656 22.808594 34.75 23.8125 35.421875 C 25.261719 36.429688 27.265625 39.90625 27.265625 40.914062 C 27.265625 41.8125 24.144531 36.429688 22.585938 36.320312 C 20.914062 36.207031 23.476562 39.007812 22.808594 39.234375 C 22.25 39.34375 20.46875 37.328125 19.800781 36.429688 L 19.910156 35.980469 L 14.117188 32.730469 L 19.355469 37.886719 L 19.019531 39.007812 L 14.339844 33.402344 L 11.109375 32.28125 C 11.109375 32.28125 1.746094 26.566406 1.414062 26.453125 C 1.414062 25.332031 1.746094 24.210938 1.746094 24.210938 Z M 1.746094 24.210938 "/>
<path style=" stroke:none;fill-rule:nonzero;fill:rgb(72.549021%,39.215687%,25.882354%);fill-opacity:1;" d="M 1.746094 30.488281 L 7.429688 32.84375 L 9.214844 32.84375 L 15.007812 34.414062 L 16.011719 35.644531 L 14.449219 35.085938 L 12.890625 35.308594 L 9.214844 33.851562 L 6.648438 35.871094 L 3.863281 33.964844 C 3.863281 33.964844 3.308594 35.421875 3.195312 35.199219 C 2.527344 33.742188 1.746094 30.488281 1.746094 30.488281 Z M 1.746094 30.488281 "/>
<path style=" stroke:none;fill-rule:nonzero;fill:rgb(72.549021%,39.215687%,25.882354%);fill-opacity:1;" d="M 4.980469 37.886719 L 6.425781 38.785156 L 8.542969 38.785156 L 13.671875 40.355469 L 17.460938 40.578125 L 14.449219 40.914062 L 15.789062 41.699219 L 17.460938 41.699219 L 17.683594 43.042969 L 16.902344 42.597656 L 15.230469 42.597656 L 13.558594 41.363281 L 6.761719 40.464844 Z M 4.980469 37.886719 "/>
<path style=" stroke:none;fill-rule:nonzero;fill:rgb(72.549021%,39.215687%,25.882354%);fill-opacity:1;" d="M 17.683594 39.90625 L 5.757812 36.765625 L 11.332031 35.980469 L 18.015625 39.121094 Z M 17.683594 39.90625 "/>
<path style=" stroke:none;fill-rule:nonzero;fill:rgb(72.549021%,39.215687%,25.882354%);fill-opacity:1;" d="M 8.097656 43.378906 C 8.878906 44.835938 8.769531 45.398438 8.769531 45.398438 L 12.78125 44.613281 C 13.335938 44.5 13.894531 44.5 14.449219 44.726562 L 16.679688 45.511719 L 15.121094 44.390625 C 13.558594 43.269531 11.664062 42.707031 9.769531 43.042969 C 9.214844 43.042969 8.65625 43.15625 8.097656 43.378906 Z M 8.097656 43.378906 "/>
<path style=" stroke:none;fill-rule:nonzero;fill:rgb(72.549021%,39.215687%,25.882354%);fill-opacity:1;" d="M 8.769531 46.183594 C 8.769531 46.183594 11.332031 45.957031 15.230469 47.304688 C 12.667969 48.089844 9.546875 47.976562 8.542969 47.414062 C 8.769531 46.96875 8.769531 46.183594 8.769531 46.183594 Z M 8.769531 46.183594 "/>
<path style=" stroke:none;fill-rule:nonzero;fill:rgb(72.549021%,39.215687%,25.882354%);fill-opacity:1;" d="M 60.253906 23.652344 L 60.476562 33.851562 L 54.234375 39.121094 L 57.800781 34.300781 C 57.800781 34.300781 60.699219 25.667969 57.578125 16.589844 C 58.359375 16.253906 59.472656 16.03125 59.472656 16.03125 L 65.15625 38.222656 L 58.023438 37.777344 L 63.707031 36.429688 Z M 60.253906 23.652344 "/>
<path style=" stroke:none;fill-rule:nonzero;fill:rgb(72.549021%,39.215687%,25.882354%);fill-opacity:1;" d="M 60.476562 15.691406 L 67.273438 41.476562 L 68.5 39.90625 L 61.476562 15.246094 Z M 60.476562 15.691406 "/>
<path style=" stroke:none;fill-rule:nonzero;fill:rgb(72.549021%,39.215687%,25.882354%);fill-opacity:1;" d="M 62.703125 14.574219 L 69.390625 35.980469 L 70.617188 34.414062 L 64.152344 13.898438 Z M 62.703125 14.574219 "/>
<path style=" stroke:none;fill-rule:nonzero;fill:rgb(72.549021%,39.215687%,25.882354%);fill-opacity:1;" d="M 65.488281 13.226562 L 71.953125 32.84375 L 73.402344 30.824219 L 66.714844 12.554688 Z M 65.488281 13.226562 "/>
<path style=" stroke:none;fill-rule:nonzero;fill:rgb(72.549021%,39.215687%,25.882354%);fill-opacity:1;" d="M 68.5 11.546875 L 74.183594 29.816406 L 74.628906 28.921875 L 73.960938 26.007812 L 75.632812 27.910156 L 77.078125 26.117188 L 70.617188 11.882812 L 69.390625 11.097656 Z M 68.5 11.546875 "/>
<path style=" stroke:none;fill-rule:nonzero;fill:rgb(72.549021%,39.215687%,25.882354%);fill-opacity:1;" d="M 71.617188 9.976562 L 77.636719 25.445312 L 78.75 24.101562 L 74.40625 8.296875 L 73.625 8.632812 L 74.960938 13.898438 L 72.398438 9.304688 Z M 71.617188 9.976562 "/>
<path style=" stroke:none;fill-rule:nonzero;fill:rgb(72.549021%,39.215687%,25.882354%);fill-opacity:1;" d="M 75.632812 7.734375 L 78.75 23.539062 L 79.976562 22.53125 L 77.078125 6.949219 Z M 75.632812 7.734375 "/>
<path style=" stroke:none;fill-rule:nonzero;fill:rgb(72.549021%,39.215687%,25.882354%);fill-opacity:1;" d="M 77.859375 6.5 L 79.976562 17.488281 L 78.863281 5.941406 Z M 77.859375 6.5 "/>
<path style=" stroke:none;fill-rule:nonzero;fill:rgb(72.549021%,39.215687%,25.882354%);fill-opacity:1;" d="M 80.3125 5.378906 L 80.757812 21.859375 L 81.871094 21.1875 L 81.089844 5.042969 Z M 80.3125 5.378906 "/>
<path style=" stroke:none;fill-rule:nonzero;fill:rgb(72.549021%,39.215687%,25.882354%);fill-opacity:1;" d="M 81.871094 4.820312 L 82.652344 9.304688 L 82.207031 17.710938 L 83.765625 8.632812 L 82.761719 4.484375 Z M 81.871094 4.820312 "/>
<path style=" stroke:none;fill-rule:nonzero;fill:rgb(72.549021%,39.215687%,25.882354%);fill-opacity:1;" d="M 83.765625 4.484375 L 83.765625 5.71875 L 84.433594 4.707031 Z M 83.765625 4.484375 "/>
<path style=" stroke:none;fill-rule:nonzero;fill:rgb(72.549021%,39.215687%,25.882354%);fill-opacity:1;" d="M 82.761719 21.859375 L 83.765625 18.160156 L 84.433594 10.648438 L 86.441406 8.632812 L 84.992188 11.097656 L 84.101562 17.710938 L 86.441406 13.226562 L 85.996094 10.648438 L 87.332031 13.226562 L 83.207031 22.308594 Z M 82.761719 21.859375 "/>
<path style=" stroke:none;fill-rule:nonzero;fill:rgb(72.549021%,39.215687%,25.882354%);fill-opacity:1;" d="M 83.878906 22.753906 L 88.113281 13.453125 L 86.328125 9.976562 L 87.554688 8.632812 L 87.332031 9.976562 L 88.667969 13.898438 L 84.433594 23.089844 Z M 83.878906 22.753906 "/>
<path style=" stroke:none;fill-rule:nonzero;fill:rgb(72.549021%,39.215687%,25.882354%);fill-opacity:1;" d="M 85.101562 23.425781 L 87.890625 17.039062 L 86.21875 23.988281 Z M 85.101562 23.425781 "/>
<path style=" stroke:none;fill-rule:nonzero;fill:rgb(72.549021%,39.215687%,25.882354%);fill-opacity:1;" d="M 88.667969 7.734375 L 89.5625 11.097656 L 89.5625 8.96875 L 90.230469 12.332031 L 90.339844 11.320312 L 91.230469 12.667969 L 91.902344 12.777344 L 91.789062 16.8125 L 92.570312 15.019531 L 94.464844 17.152344 L 93.460938 15.691406 C 93.460938 15.691406 93.90625 15.691406 94.128906 15.246094 C 93.351562 14.234375 91.230469 9.078125 89.894531 7.734375 C 90.117188 7.0625 88.667969 7.734375 88.667969 7.734375 Z M 88.667969 7.734375 "/>
<path style=" stroke:none;fill-rule:nonzero;fill:rgb(72.549021%,39.215687%,25.882354%);fill-opacity:1;" d="M 94.128906 17.488281 C 94.351562 17.152344 96.136719 20.066406 96.136719 20.066406 C 96.136719 20.066406 93.90625 17.824219 94.128906 17.488281 Z M 94.128906 17.488281 "/>
<path style=" stroke:none;fill-rule:nonzero;fill:rgb(72.549021%,39.215687%,25.882354%);fill-opacity:1;" d="M 97.136719 19.617188 C 96.804688 18.945312 96.246094 20.175781 96.246094 20.175781 L 96.691406 24.4375 L 93.574219 25.558594 L 94.019531 28.136719 L 92.234375 27.574219 C 92.234375 27.574219 93.351562 29.59375 94.019531 29.816406 C 95.46875 30.488281 96.914062 29.929688 96.914062 29.929688 L 96.914062 29.257812 L 98.03125 29.367188 C 97.917969 29.257812 101.820312 23.765625 97.136719 19.617188 Z M 97.136719 19.617188 "/>
<path style=" stroke:none;fill-rule:nonzero;fill:rgb(43.137255%,23.529412%,15.686275%);fill-opacity:1;" d="M 96.582031 29.59375 L 93.90625 25.894531 L 97.363281 29.03125 L 96.582031 28.921875 Z M 96.582031 29.59375 "/>
<path style=" stroke:none;fill-rule:nonzero;fill:rgb(43.137255%,23.529412%,15.686275%);fill-opacity:1;" d="M 98.699219 24.324219 C 96.804688 23.765625 97.25 26.007812 98.253906 26.007812 C 98.253906 26.007812 98.140625 25.558594 98.253906 25.109375 C 98.363281 24.660156 98.699219 24.324219 98.699219 24.324219 Z M 98.699219 24.324219 "/>
<path style=" stroke:none;fill-rule:nonzero;fill:rgb(72.549021%,39.215687%,25.882354%);fill-opacity:1;" d="M 88.113281 24.210938 L 88.667969 17.933594 L 94.128906 18.160156 L 89.449219 18.609375 L 88.890625 21.859375 L 90.230469 19.390625 L 93.796875 18.609375 L 91.007812 21.074219 L 88.890625 22.753906 L 88.890625 24.660156 L 90.230469 21.859375 L 94.464844 19.054688 L 95.46875 20.738281 L 91.007812 22.753906 L 89.785156 25.894531 L 88.113281 24.886719 Z M 88.113281 24.210938 "/>
<path style=" stroke:none;fill-rule:nonzero;fill:rgb(72.549021%,39.215687%,25.882354%);fill-opacity:1;" d="M 91.121094 23.539062 L 95.914062 22.308594 L 95.46875 23.988281 Z M 91.121094 23.539062 "/>
<path style=" stroke:none;fill-rule:nonzero;fill:rgb(72.549021%,39.215687%,25.882354%);fill-opacity:1;" d="M 90.785156 26.34375 C 90.785156 26.34375 92.570312 24.886719 92.570312 24.996094 C 92.457031 24.996094 91.679688 27.125 91.679688 27.125 Z M 90.785156 26.34375 "/>
<path style=" stroke:none;fill-rule:nonzero;fill:rgb(72.549021%,39.215687%,25.882354%);fill-opacity:1;" d="M 61.589844 44.390625 C 61.8125 44.949219 52.453125 43.042969 52.453125 43.042969 C 52.453125 43.042969 57.132812 40.128906 61.589844 44.390625 Z M 61.589844 44.390625 "/>
<path style=" stroke:none;fill-rule:nonzero;fill:rgb(72.549021%,39.215687%,25.882354%);fill-opacity:1;" d="M 65.601562 41.585938 C 65.9375 42.257812 55.460938 39.34375 55.460938 39.34375 C 55.460938 39.34375 63.59375 38.335938 65.601562 41.585938 Z M 65.601562 41.585938 "/>
<path style=" stroke:none;fill-rule:nonzero;fill:rgb(72.549021%,39.215687%,25.882354%);fill-opacity:1;" d="M 53.121094 68.601562 C 52.117188 68.714844 50.558594 68.824219 49.777344 68.9375 L 49.664062 68.714844 C 50.558594 68.378906 52.007812 67.703125 53.121094 67.816406 Z M 53.121094 68.601562 "/>
<path style=" stroke:none;fill-rule:nonzero;fill:rgb(72.549021%,39.215687%,25.882354%);fill-opacity:1;" d="M 53.230469 67.03125 C 52.230469 67.03125 51.003906 66.921875 50.113281 66.808594 L 50.222656 66.136719 C 51.113281 65.910156 52.230469 65.6875 53.34375 66.023438 Z M 53.230469 67.03125 "/>
<path style=" stroke:none;fill-rule:nonzero;fill:rgb(72.549021%,39.215687%,25.882354%);fill-opacity:1;" d="M 53.566406 64.789062 C 52.5625 64.789062 51.558594 64.789062 50.78125 64.679688 L 51.003906 63.78125 C 51.894531 63.558594 52.675781 63.445312 53.789062 63.78125 Z M 53.566406 64.789062 "/>
<path style=" stroke:none;fill-rule:nonzero;fill:rgb(72.549021%,39.215687%,25.882354%);fill-opacity:1;" d="M 53.898438 62.660156 C 52.898438 62.660156 52.117188 62.660156 51.226562 62.660156 L 51.449219 61.425781 C 52.339844 61.203125 53.007812 61.316406 54.125 61.539062 Z M 53.898438 62.660156 "/>
<path style=" stroke:none;fill-rule:nonzero;fill:rgb(72.549021%,39.215687%,25.882354%);fill-opacity:1;" d="M 54.457031 60.417969 C 53.566406 59.96875 52.5625 60.082031 51.671875 59.96875 L 51.78125 58.847656 C 52.675781 58.625 53.898438 58.625 54.902344 58.847656 Z M 54.457031 60.417969 "/>
<path style=" stroke:none;fill-rule:nonzero;fill:rgb(72.549021%,39.215687%,25.882354%);fill-opacity:1;" d="M 56.464844 54.367188 C 55.570312 53.917969 52.785156 54.03125 51.894531 54.03125 L 51.894531 52.460938 C 52.785156 52.234375 55.792969 51.5625 57.242188 52.347656 Z M 56.464844 54.367188 "/>
<path style=" stroke:none;fill-rule:nonzero;fill:rgb(72.549021%,39.215687%,25.882354%);fill-opacity:1;" d="M 14.117188 52.234375 C 13.226562 51.789062 8.433594 50.441406 7.542969 50.441406 L 8.210938 48.535156 C 9.101562 48.3125 13.558594 49.210938 15.007812 49.992188 Z M 14.117188 52.234375 "/>
<path style=" stroke:none;fill-rule:nonzero;fill:rgb(72.549021%,39.215687%,25.882354%);fill-opacity:1;" d="M 12.890625 56.046875 C 12 55.597656 7.542969 53.691406 6.648438 53.582031 C 6.648438 53.582031 6.648438 52.574219 6.984375 51.898438 C 7.320312 51.675781 12.109375 52.910156 13.558594 53.804688 Z M 12.890625 56.046875 "/>
<path style=" stroke:none;fill-rule:nonzero;fill:rgb(72.549021%,39.215687%,25.882354%);fill-opacity:1;" d="M 12.78125 59.523438 C 11.886719 59.074219 9.4375 58.960938 8.542969 58.960938 C 8.542969 58.960938 7.765625 57.054688 7.429688 56.160156 C 7.765625 55.933594 11.777344 56.609375 12.667969 57.28125 C 12.667969 58.511719 12.78125 59.523438 12.78125 59.523438 Z M 12.78125 59.523438 "/>
<path style=" stroke:none;fill-rule:nonzero;fill:rgb(72.549021%,39.215687%,25.882354%);fill-opacity:1;" d="M 13.449219 62.4375 C 12.445312 62.210938 10.996094 62.546875 10.105469 62.660156 L 9.660156 61.425781 C 9.882812 61.089844 12 59.96875 13.003906 60.417969 C 13.226562 61.652344 13.449219 62.4375 13.449219 62.4375 Z M 13.449219 62.4375 "/>
<path style=" stroke:none;fill-rule:nonzero;fill:rgb(72.549021%,39.215687%,25.882354%);fill-opacity:1;" d="M 14.339844 66.136719 C 13.335938 65.910156 11.886719 66.136719 11.109375 66.359375 L 10.773438 64.902344 C 10.996094 64.566406 12.78125 63.667969 13.78125 64.117188 C 14.117188 65.351562 14.339844 66.136719 14.339844 66.136719 Z M 14.339844 66.136719 "/>
<path style=" stroke:none;fill-rule:nonzero;fill:rgb(72.549021%,39.215687%,25.882354%);fill-opacity:1;" d="M 15.789062 69.722656 C 14.785156 69.5 12.332031 69.273438 11.441406 69.386719 L 11.441406 68.601562 C 11.664062 68.265625 14.003906 67.367188 15.007812 67.816406 C 15.230469 68.714844 15.789062 69.722656 15.789062 69.722656 Z M 15.789062 69.722656 "/>
<path style=" stroke:none;fill-rule:nonzero;fill:rgb(72.549021%,39.215687%,25.882354%);fill-opacity:1;" d="M 18.910156 75.441406 C 18.574219 75.441406 12.890625 75.441406 12.890625 75.441406 L 13.78125 71.402344 C 14.003906 71.066406 15.34375 70.058594 16.34375 70.507812 C 19.019531 72.1875 18.910156 72.972656 18.910156 75.441406 Z M 18.910156 75.441406 "/>
<path style=" stroke:none;fill-rule:nonzero;fill:rgb(72.549021%,39.215687%,25.882354%);fill-opacity:1;" d="M 57.914062 50.890625 C 57.464844 50.105469 53.789062 49.769531 52.007812 50.332031 L 52.007812 48.875 C 54.125 47.640625 57.6875 48.648438 58.804688 48.984375 Z M 57.914062 50.890625 "/>
<path style=" stroke:none;fill-rule:nonzero;fill:rgb(72.549021%,39.215687%,25.882354%);fill-opacity:1;" d="M 59.136719 47.863281 C 58.246094 47.414062 52.785156 47.527344 51.894531 47.414062 L 51.894531 45.847656 C 53.121094 45.0625 58.804688 45.734375 59.917969 46.070312 Z M 59.136719 47.863281 "/>
<path style=" stroke:none;fill-rule:nonzero;fill:rgb(72.549021%,39.215687%,25.882354%);fill-opacity:1;" d="M 55.347656 57.503906 C 54.125 57.503906 52.898438 57.167969 51.894531 57.054688 L 51.894531 55.710938 C 53.007812 55.375 54.679688 55.261719 56.019531 55.597656 Z M 55.347656 57.503906 "/>
<path style=" stroke:none;fill-rule:nonzero;fill:rgb(72.549021%,39.215687%,25.882354%);fill-opacity:1;" d="M 53.566406 70.621094 C 53.789062 70.84375 50.558594 70.84375 50.558594 70.84375 C 50.558594 70.84375 51.78125 69.164062 53.34375 69.835938 Z M 53.566406 70.621094 "/>
<path style=" stroke:none;fill-rule:nonzero;fill:rgb(72.549021%,39.215687%,25.882354%);fill-opacity:1;" d="M 54.570312 72.414062 C 54.679688 72.636719 51.449219 72.414062 51.449219 72.414062 C 51.449219 72.414062 53.789062 71.628906 54.570312 72.414062 Z M 54.570312 72.414062 "/>
<path style=" stroke:none;fill-rule:nonzero;fill:rgb(72.549021%,39.215687%,25.882354%);fill-opacity:1;" d="M 54.792969 73.644531 L 55.90625 75.441406 L 50.445312 75.441406 L 51.003906 73.308594 C 52.007812 72.863281 54.347656 73.199219 54.792969 73.644531 Z M 54.792969 73.644531 "/>
<path style=" stroke:none;fill-rule:nonzero;fill:rgb(72.549021%,39.215687%,25.882354%);fill-opacity:1;" d="M 86.773438 24.210938 L 87.890625 19.390625 L 87.554688 24.546875 Z M 86.773438 24.210938 "/>
<path style=" stroke:none;fill-rule:nonzero;fill:rgb(72.549021%,39.215687%,25.882354%);fill-opacity:1;" d="M 88.667969 16.703125 L 89.226562 14.234375 L 90.339844 15.246094 L 91.457031 15.019531 L 91.34375 17.039062 L 93.351562 17.710938 L 90.453125 17.488281 L 90.5625 16.03125 L 89.671875 15.46875 Z M 88.667969 16.703125 "/>
<path style=" stroke:none;fill-rule:nonzero;fill:rgb(72.549021%,39.215687%,25.882354%);fill-opacity:1;" d="M 88.445312 17.488281 C 88.445312 17.375 89.671875 16.140625 89.671875 16.140625 L 90.117188 16.253906 L 89.785156 17.710938 Z M 88.445312 17.488281 "/>
<path style=" stroke:none;fill-rule:nonzero;fill:rgb(72.549021%,39.215687%,25.882354%);fill-opacity:1;" d="M 92.347656 16.589844 L 93.238281 17.261719 L 93.683594 16.589844 L 92.792969 16.03125 Z M 92.347656 16.589844 "/>
<path style=" stroke:none;fill-rule:nonzero;fill:rgb(72.549021%,39.215687%,25.882354%);fill-opacity:1;" d="M 33.0625 45.285156 L 30.609375 37.214844 L 23.03125 26.230469 L 32.167969 35.980469 L 34.84375 45.734375 Z M 33.0625 45.285156 "/>
<path style=" stroke:none;fill-rule:nonzero;fill:rgb(72.549021%,39.215687%,25.882354%);fill-opacity:1;" d="M 38.632812 46.183594 L 38.632812 34.300781 L 40.082031 46.183594 Z M 38.632812 46.183594 "/>
<path style=" stroke:none;fill-rule:nonzero;fill:rgb(72.549021%,39.215687%,25.882354%);fill-opacity:1;" d="M 41.863281 46.296875 L 41.863281 43.941406 L 43.425781 35.980469 L 42.644531 44.164062 L 42.644531 46.183594 Z M 41.863281 46.296875 "/>
<path style=" stroke:none;fill-rule:nonzero;fill:rgb(72.549021%,39.215687%,25.882354%);fill-opacity:1;" d="M 1.859375 23.765625 L 2.414062 22.308594 L 11.664062 25.445312 L 19.464844 32.621094 L 11.886719 27.574219 Z M 1.859375 23.765625 "/>
<path style=" stroke:none;fill-rule:nonzero;fill:rgb(30.588236%,30.588236%,30.588236%);fill-opacity:1;" d="M 69.835938 36.65625 L 68.945312 35.980469 C 70.617188 33.628906 79.417969 21.296875 81.761719 20.625 L 82.09375 20.511719 L 82.316406 20.738281 C 83.542969 21.96875 84.769531 22.53125 86.328125 23.316406 C 87.890625 24.101562 89.785156 24.996094 92.570312 26.902344 L 92.679688 27.015625 C 92.792969 27.125 92.902344 27.238281 93.015625 27.464844 C 93.351562 27.910156 93.90625 28.808594 94.351562 29.144531 C 94.6875 29.367188 95.578125 29.367188 96.46875 29.257812 L 96.46875 28.359375 L 97.808594 28.585938 C 98.476562 27.464844 100.257812 23.765625 97.695312 20.847656 C 94.910156 17.933594 93.238281 14.574219 91.902344 11.882812 C 91.007812 10.199219 90.339844 8.742188 89.5625 7.957031 L 88.335938 6.835938 C 88.335938 6.835938 85.324219 4.707031 83.097656 4.933594 C 81.089844 5.15625 76.632812 7.621094 71.84375 10.3125 C 67.050781 13.003906 62.035156 15.804688 58.136719 17.039062 L 58.023438 17.039062 C 55.238281 17.152344 52.785156 17.488281 50.445312 17.824219 C 47.992188 18.160156 45.542969 18.496094 42.644531 18.609375 C 37.742188 18.71875 32.28125 17.375 27.488281 16.367188 C 23.144531 15.355469 19.132812 14.460938 16.121094 14.574219 L 15.789062 14.574219 C 14.226562 14.574219 9.546875 14.683594 5.871094 18.382812 C 2.304688 21.859375 2.082031 25.667969 2.082031 25.667969 L 0.96875 25.667969 C 0.96875 25.445312 1.191406 21.296875 5.089844 17.597656 C 9.101562 13.675781 14.003906 13.5625 15.675781 13.5625 L 16.011719 13.5625 C 19.132812 13.453125 23.253906 14.347656 27.710938 15.355469 C 32.726562 16.476562 37.851562 17.710938 42.644531 17.597656 C 45.542969 17.488281 47.882812 17.152344 50.335938 16.8125 C 52.675781 16.476562 55.015625 16.140625 57.914062 16.03125 C 61.589844 14.796875 66.714844 11.882812 71.285156 9.414062 C 76.410156 6.613281 80.757812 4.148438 82.984375 3.921875 C 85.660156 3.699219 88.890625 5.941406 89.003906 6.054688 L 90.339844 7.175781 C 91.230469 8.070312 92.011719 9.527344 92.902344 11.433594 C 94.242188 14.011719 95.914062 17.261719 98.476562 20.066406 C 102.042969 23.988281 98.585938 29.367188 98.585938 29.480469 L 98.363281 29.816406 L 97.585938 29.703125 L 97.585938 30.265625 L 96.914062 30.265625 C 96.46875 30.378906 94.464844 30.714844 93.574219 30.152344 C 92.902344 29.703125 92.347656 28.695312 91.902344 28.136719 C 91.789062 28.023438 91.789062 27.910156 91.679688 27.800781 C 89.113281 26.007812 87.21875 25.109375 85.660156 24.324219 C 84.101562 23.539062 82.875 22.980469 81.648438 21.859375 C 80.089844 22.867188 74.40625 30.042969 69.835938 36.65625 Z M 69.835938 36.65625 "/>
<path style=" stroke:none;fill-rule:nonzero;fill:rgb(30.588236%,30.588236%,30.588236%);fill-opacity:1;" d="M 41.976562 46.855469 C 40.527344 46.855469 38.96875 46.742188 37.183594 46.519531 C 30.945312 45.734375 27.710938 43.828125 25.484375 42.484375 C 24.367188 41.8125 23.476562 41.25 22.472656 41.136719 C 19.6875 40.691406 18.128906 43.042969 18.128906 43.15625 L 17.238281 42.597656 C 17.347656 42.484375 19.132812 39.457031 22.699219 40.019531 C 23.8125 40.242188 24.816406 40.800781 26.039062 41.585938 C 28.269531 42.933594 31.277344 44.726562 37.296875 45.511719 C 45.765625 46.519531 51.558594 44.390625 51.558594 44.390625 L 52.007812 45.398438 C 51.894531 45.511719 48.105469 46.855469 41.976562 46.855469 Z M 41.976562 46.855469 "/>
<path style=" stroke:none;fill-rule:nonzero;fill:rgb(30.588236%,30.588236%,30.588236%);fill-opacity:1;" d="M 56.910156 76 L 49.664062 76 L 50.667969 72.414062 L 49.21875 69.164062 C 48.886719 68.488281 49.21875 67.59375 49.777344 65.800781 C 50.113281 64.902344 50.445312 63.667969 50.78125 62.324219 C 51.449219 59.746094 51.335938 51.5625 51.335938 46.742188 C 51.335938 45.175781 51.335938 43.941406 51.335938 43.269531 C 51.003906 42.257812 52.007812 40.800781 53.566406 38.449219 C 54.234375 37.328125 55.125 36.207031 55.90625 34.75 L 56.910156 35.308594 C 56.019531 36.65625 55.238281 37.886719 54.457031 39.007812 C 53.34375 40.691406 52.117188 42.371094 52.339844 42.933594 L 52.339844 43.15625 C 52.339844 43.828125 52.339844 45.0625 52.339844 46.742188 C 52.339844 52.011719 52.339844 59.859375 51.671875 62.546875 C 51.335938 63.894531 51.003906 65.125 50.667969 66.136719 C 50.335938 67.257812 50 68.488281 50.113281 68.714844 L 51.78125 72.414062 L 51.113281 74.992188 L 54.902344 74.992188 L 54.234375 73.871094 L 54.125 72.636719 L 53.566406 71.851562 C 53.566406 71.742188 52.898438 70.621094 52.675781 69.164062 C 52.453125 67.816406 52.898438 65.574219 53.34375 62.886719 L 53.453125 62.101562 C 54.347656 57.617188 56.351562 53.132812 57.800781 49.546875 C 58.46875 47.863281 59.136719 46.40625 59.582031 45.285156 L 59.695312 45.0625 L 59.917969 44.949219 C 60.363281 44.726562 60.921875 44.5 61.699219 44.277344 C 63.261719 43.828125 65.378906 43.15625 66.828125 41.585938 C 68.832031 39.457031 68.832031 36.542969 68.832031 36.429688 C 68.832031 36.429688 68.386719 32.621094 66.605469 31.386719 L 67.273438 30.488281 C 69.390625 32.058594 69.949219 36.207031 69.949219 36.429688 C 69.949219 36.65625 69.949219 39.90625 67.605469 42.371094 C 65.9375 44.164062 63.59375 44.835938 61.925781 45.398438 C 61.367188 45.621094 60.921875 45.734375 60.585938 45.847656 C 60.140625 46.96875 59.582031 48.425781 58.914062 49.992188 C 57.355469 53.582031 55.460938 58.066406 54.570312 62.324219 L 54.457031 63.109375 C 54.011719 65.6875 53.566406 67.816406 53.789062 69.050781 C 54.011719 70.394531 54.570312 71.292969 54.570312 71.292969 L 55.347656 72.1875 L 55.460938 73.535156 Z M 56.910156 76 "/>
<path style=" stroke:none;fill-rule:nonzero;fill:rgb(30.588236%,30.588236%,30.588236%);fill-opacity:1;" d="M 19.355469 76 L 12.109375 76 L 13.003906 71.742188 C 12.445312 71.515625 11.441406 70.957031 11.109375 70.394531 C 10.773438 69.835938 10.773438 69.164062 10.773438 68.601562 C 10.773438 68.152344 10.773438 67.59375 10.660156 67.144531 C 10.105469 63.78125 8.65625 60.53125 7.542969 57.839844 C 6.761719 55.933594 6.09375 54.476562 6.09375 53.691406 C 5.980469 52.796875 6.539062 51.5625 6.984375 50.21875 C 7.542969 48.535156 8.320312 46.742188 8.097656 45.285156 C 8.097656 44.390625 7.207031 43.042969 6.09375 41.476562 C 3.863281 38.113281 0.519531 33.066406 0.855469 25.894531 L 1.96875 25.894531 C 1.636719 32.621094 4.753906 37.328125 7.097656 40.800781 C 8.320312 42.707031 9.214844 44.054688 9.214844 45.175781 C 9.4375 46.855469 8.65625 48.761719 7.988281 50.554688 C 7.542969 51.789062 7.097656 52.910156 7.097656 53.582031 C 7.097656 54.253906 7.765625 55.710938 8.433594 57.390625 C 9.546875 59.96875 10.996094 63.445312 11.554688 66.808594 C 11.777344 67.367188 11.777344 67.929688 11.777344 68.601562 C 11.777344 69.050781 11.777344 69.609375 11.886719 69.835938 C 12.109375 70.171875 13.113281 70.730469 13.78125 70.957031 L 14.226562 71.179688 L 13.449219 74.992188 L 18.238281 74.992188 C 18.238281 74.207031 18.128906 73.085938 17.90625 72.75 C 17.460938 72.1875 16.792969 71.742188 16.34375 71.402344 C 16.234375 71.292969 16.011719 71.179688 15.898438 71.066406 L 15.789062 70.957031 C 13.671875 68.042969 12.222656 59.859375 12 58.402344 C 11.886719 55.710938 13.894531 51.003906 15.34375 47.304688 C 16.121094 45.398438 16.792969 43.71875 17.015625 42.820312 L 17.238281 42.257812 C 17.90625 40.355469 19.6875 35.085938 19.800781 32.621094 C 19.800781 32.394531 19.800781 32.058594 19.910156 31.609375 C 20.132812 29.816406 20.355469 27.015625 19.132812 24.546875 L 20.132812 24.101562 C 21.472656 26.789062 21.136719 29.929688 20.914062 31.722656 C 20.914062 32.058594 20.804688 32.394531 20.804688 32.621094 C 20.691406 35.308594 18.910156 40.355469 18.128906 42.597656 L 18.015625 43.042969 C 17.792969 43.941406 17.125 45.734375 16.234375 47.640625 C 14.675781 51.226562 12.890625 55.824219 12.890625 58.175781 C 13.113281 59.96875 14.5625 67.480469 16.457031 70.058594 C 16.566406 70.171875 16.679688 70.171875 16.792969 70.28125 C 17.347656 70.621094 18.015625 71.066406 18.6875 71.851562 C 19.464844 72.863281 19.242188 75.101562 19.242188 75.441406 Z M 19.355469 76 "/>
<path style=" stroke:none;fill-rule:nonzero;fill:rgb(100%,100%,100%);fill-opacity:1;" d="M 84.210938 6.277344 C 84.210938 6.277344 87.332031 2.242188 90.5625 1.792969 C 90.453125 5.71875 87.667969 8.632812 87.667969 8.632812 Z M 84.210938 6.277344 "/>
<path style=" stroke:none;fill-rule:nonzero;fill:rgb(30.588236%,30.588236%,30.588236%);fill-opacity:1;" d="M 88.113281 8.96875 L 87.332031 8.183594 C 87.332031 8.183594 89.5625 5.828125 90.007812 2.464844 C 87.332031 3.363281 84.65625 6.613281 84.65625 6.613281 L 83.765625 5.941406 C 83.878906 5.71875 87.109375 1.792969 90.453125 1.234375 L 91.121094 1.121094 L 91.121094 1.792969 C 91.007812 5.828125 88.222656 8.855469 88.113281 8.96875 Z M 88.113281 8.96875 "/>
<path style=" stroke:none;fill-rule:nonzero;fill:rgb(43.137255%,23.529412%,15.686275%);fill-opacity:1;" d="M 88.890625 13.339844 C 88.890625 13.339844 91.007812 13.113281 91.230469 13.339844 C 92.125 14.796875 90.5625 14.683594 90.5625 14.683594 Z M 88.890625 13.339844 "/>
</g>
</svg>
