<?xml version="1.0" encoding="UTF-8"?>
<svg xmlns="http://www.w3.org/2000/svg" xmlns:xlink="http://www.w3.org/1999/xlink" width="99px" height="52px" viewBox="0 0 99 52" version="1.1">
<g id="surface1">
<path style=" stroke:none;fill-rule:nonzero;fill:rgb(72.549021%,39.215687%,25.882354%);fill-opacity:1;" d="M 77.300781 27.898438 L 80.070312 26.972656 C 79.054688 26.789062 78.132812 27.160156 77.300781 27.898438 Z M 77.300781 27.898438 "/>
<path style=" stroke:none;fill-rule:nonzero;fill:rgb(72.549021%,39.215687%,25.882354%);fill-opacity:1;" d="M 96.140625 48.753906 L 96.601562 41.898438 C 96.601562 41.898438 97.15625 40.226562 96.972656 38.46875 C 96.789062 36.707031 95.496094 34.480469 94.941406 33.925781 C 93.554688 31.609375 94.109375 28.179688 94.015625 23.082031 C 93.925781 19.09375 92.632812 6.582031 80.902344 2.59375 C 78.132812 2.316406 75.820312 3.058594 74.621094 3.058594 C 73.511719 2.964844 72.128906 1.945312 70.464844 2.039062 C 68.804688 2.222656 64.09375 4.542969 59.382812 4.542969 C 54.671875 4.542969 48.300781 0.277344 45.621094 0.464844 C 38.140625 0.742188 25.210938 15.015625 21.515625 19.371094 C 21.144531 18.910156 19.851562 17.332031 19.023438 17.613281 C 17.730469 19.09375 20.128906 23.359375 20.128906 23.359375 C 18.929688 21.226562 16.4375 18.632812 16.066406 18.816406 C 15.695312 18.910156 15.605469 19.742188 15.789062 21.410156 C 15.882812 22.339844 16.621094 22.800781 17.453125 23.542969 L 16.988281 23.359375 C 16.621094 23.730469 16.34375 24.191406 16.25 24.46875 C 15.328125 26.972656 16.804688 27.898438 15.695312 31.238281 C 15.511719 33.277344 11.632812 35.6875 11.632812 35.6875 C 11.632812 35.6875 10.339844 35.5 9.96875 35.5 C 8.402344 38.558594 8.863281 40.507812 8.863281 40.507812 C 8.953125 41.0625 9.230469 41.433594 9.785156 41.527344 C 9.785156 41.988281 9.878906 45.695312 12.648438 45.882812 C 13.480469 46.066406 14.035156 45.046875 14.035156 45.046875 C 14.035156 45.046875 14.3125 45.328125 16.25 45.417969 C 17.914062 44.214844 20.867188 44.121094 23.269531 42.082031 C 24.378906 41.0625 27.332031 38.835938 28.535156 34.574219 C 30.84375 35.222656 32.507812 33.648438 32.507812 33.648438 L 32.597656 33.648438 C 33.152344 38.835938 36.753906 40.785156 36.753906 40.785156 C 36.753906 40.785156 38.046875 44.398438 37.214844 48.570312 C 36.847656 48.570312 33.429688 48.570312 33.800781 51.351562 C 34.445312 51.351562 42.296875 51.351562 43.035156 51.351562 C 43.773438 48.753906 41.28125 48.664062 41.003906 48.386719 C 40.726562 44.863281 42.480469 43.285156 42.296875 41.617188 C 42.109375 39.949219 41.28125 39.300781 41.28125 39.300781 C 41.28125 39.300781 42.296875 37.632812 42.480469 36.613281 C 42.664062 35.59375 42.574219 35.039062 42.574219 35.039062 L 43.679688 35.222656 C 44.789062 37.355469 46.082031 39.855469 47.191406 40.96875 C 48.300781 45.046875 46.453125 49.125 46.453125 49.125 C 46.453125 49.125 44.144531 49.035156 44.144531 51.722656 L 53.378906 51.722656 C 53.5625 49.21875 51.625 49.035156 51.347656 49.035156 C 50.792969 46.347656 52.269531 43.9375 52.179688 42.636719 C 52.085938 41.339844 51.625 41.433594 51.347656 40.136719 C 51.164062 38.835938 51.992188 38.652344 52.363281 36.796875 C 54.765625 37.261719 58.183594 37.726562 62.0625 37.355469 C 67.785156 36.890625 71.203125 34.203125 73.699219 31.792969 C 74.4375 33.832031 75.636719 34.019531 75.730469 35.039062 C 76.191406 37.167969 75.359375 39.207031 75.730469 41.804688 C 74.621094 46.4375 70.371094 48.753906 70.371094 48.753906 C 70.371094 48.753906 68.894531 48.476562 68.15625 49.3125 C 67.324219 50.238281 67.878906 51.257812 67.878906 51.257812 L 76.097656 51.257812 C 76.097656 51.257812 77.113281 49.40625 75.730469 48.847656 C 76.007812 47.457031 81.179688 44.675781 81.640625 43.285156 C 81.917969 42.359375 81.546875 41.0625 81.546875 41.0625 C 81.546875 41.0625 80.53125 37.355469 82.5625 35.039062 C 83.027344 34.480469 83.671875 33.738281 84.042969 33.277344 C 84.042969 33.277344 84.042969 33.089844 83.949219 32.90625 C 85.980469 34.386719 88.753906 35.128906 90.324219 36.984375 C 92.445312 39.394531 92.632812 48.199219 92.355469 49.035156 C 91.707031 49.3125 90.875 49.21875 90.046875 49.867188 C 89.03125 50.609375 89.675781 51.628906 89.675781 51.628906 C 89.675781 51.628906 97.804688 51.628906 98.359375 51.628906 C 98.726562 49.3125 96.140625 48.753906 96.140625 48.753906 Z M 96.140625 48.753906 "/>
<path style=" stroke:none;fill-rule:nonzero;fill:rgb(30.588236%,30.588236%,30.588236%);fill-opacity:1;" d="M 18.652344 21.503906 C 18.46875 21.039062 17.820312 18.445312 18.375 17.519531 C 18.558594 17.242188 18.746094 17.148438 18.929688 17.054688 C 20.128906 16.777344 21.609375 18.632812 21.976562 19.1875 L 21.238281 19.742188 C 20.59375 18.816406 19.484375 17.890625 19.113281 17.980469 C 18.929688 18.261719 19.113281 19.835938 19.484375 21.320312 Z M 18.652344 21.503906 "/>
<path style=" stroke:none;fill-rule:nonzero;fill:rgb(30.588236%,30.588236%,30.588236%);fill-opacity:1;" d="M 76.007812 51.535156 L 67.234375 51.535156 L 67.140625 51.257812 C 67.140625 51.164062 66.492188 49.960938 67.511719 48.847656 C 68.339844 47.921875 69.542969 48.015625 70.003906 48.105469 C 70.742188 47.644531 73.976562 45.511719 74.992188 41.617188 C 74.804688 40.320312 74.898438 39.117188 74.992188 38.003906 C 75.082031 36.984375 75.175781 35.964844 74.992188 34.945312 C 74.992188 34.574219 74.804688 34.386719 74.4375 33.925781 C 73.976562 33.460938 73.328125 32.8125 72.960938 31.515625 L 73.882812 31.238281 C 74.160156 32.441406 74.621094 32.90625 75.082031 33.367188 C 75.453125 33.832031 75.820312 34.203125 75.914062 34.851562 C 76.191406 35.871094 76.007812 36.984375 75.914062 38.097656 C 75.820312 39.207031 75.730469 40.320312 75.914062 41.527344 L 75.914062 41.710938 C 74.714844 46.4375 70.464844 48.847656 70.28125 48.941406 L 70.097656 49.035156 L 69.910156 49.035156 C 69.910156 49.035156 68.710938 48.753906 68.15625 49.496094 C 67.785156 49.960938 67.785156 50.425781 67.878906 50.703125 L 75.453125 50.703125 C 75.546875 50.425781 75.730469 49.867188 75.636719 49.589844 C 75.636719 49.496094 75.546875 49.3125 75.269531 49.21875 L 74.898438 49.035156 L 74.992188 48.664062 C 75.175781 47.828125 76.285156 46.902344 78.222656 45.511719 C 79.332031 44.675781 80.808594 43.566406 80.996094 43.101562 C 81.179688 42.453125 80.996094 41.527344 80.902344 41.15625 C 80.808594 40.96875 79.886719 37.167969 82.011719 34.667969 C 82.472656 34.109375 83.117188 33.367188 83.488281 32.90625 L 84.132812 33.554688 C 83.765625 34.019531 83.117188 34.667969 82.65625 35.222656 C 80.808594 37.355469 81.734375 40.785156 81.734375 40.878906 C 81.734375 40.878906 82.195312 42.265625 81.824219 43.378906 C 81.546875 44.121094 80.53125 44.957031 78.777344 46.253906 C 77.761719 46.996094 76.46875 48.015625 76.007812 48.570312 C 76.191406 48.753906 76.375 48.941406 76.46875 49.21875 C 76.839844 50.144531 76.191406 51.257812 76.191406 51.351562 Z M 76.007812 51.535156 "/>
<path style=" stroke:none;fill-rule:nonzero;fill:rgb(30.588236%,30.588236%,30.588236%);fill-opacity:1;" d="M 43.21875 51.535156 L 33.246094 51.535156 L 33.152344 51.164062 C 33.058594 50.332031 33.246094 49.589844 33.707031 49.035156 C 34.261719 48.386719 35.277344 47.921875 36.664062 47.921875 C 37.308594 44.585938 36.476562 41.617188 36.199219 40.96875 C 35.460938 40.507812 32.320312 38.375 31.953125 33.367188 L 32.875 33.277344 C 33.335938 38.28125 36.664062 40.136719 36.847656 40.226562 L 37.03125 40.320312 L 37.125 40.507812 C 37.214844 40.691406 38.417969 44.304688 37.585938 48.476562 L 37.492188 48.847656 L 37.03125 48.847656 C 35.832031 48.847656 34.90625 49.125 34.445312 49.683594 C 34.261719 49.960938 34.074219 50.238281 34.074219 50.703125 L 42.480469 50.703125 C 42.757812 49.496094 42.019531 49.125 41.09375 48.753906 C 40.816406 48.664062 40.632812 48.570312 40.542969 48.476562 L 40.449219 48.386719 L 40.449219 48.199219 C 40.265625 45.976562 40.816406 44.492188 41.28125 43.378906 C 41.558594 42.636719 41.835938 41.988281 41.742188 41.433594 C 41.558594 40.042969 40.910156 39.488281 40.910156 39.488281 L 40.542969 39.207031 L 40.726562 38.835938 C 41.003906 38.375 41.742188 37.078125 41.835938 36.335938 C 41.925781 35.40625 41.925781 34.851562 41.925781 34.851562 L 42.851562 34.757812 C 42.851562 34.757812 42.941406 35.40625 42.757812 36.429688 C 42.664062 37.261719 42.019531 38.46875 41.648438 39.023438 C 41.925781 39.394531 42.480469 40.136719 42.574219 41.339844 C 42.664062 42.175781 42.386719 42.824219 42.019531 43.75 C 41.558594 44.863281 41.09375 46.066406 41.1875 47.921875 C 41.1875 47.921875 41.28125 47.921875 41.28125 47.921875 C 42.019531 48.199219 43.867188 48.847656 43.21875 51.257812 Z M 43.21875 51.535156 "/>
<path style=" stroke:none;fill-rule:nonzero;fill:rgb(30.588236%,30.588236%,30.588236%);fill-opacity:1;" d="M 58.828125 37.816406 C 56.058594 37.816406 53.75 37.449219 52.085938 37.078125 L 52.269531 36.148438 C 54.488281 36.613281 57.90625 37.078125 61.785156 36.707031 C 68.527344 36.148438 71.851562 32.628906 74.621094 29.753906 C 76.5625 27.714844 78.039062 26.140625 80.164062 26.324219 L 80.070312 27.25 C 78.40625 27.066406 77.023438 28.550781 75.269531 30.402344 C 72.589844 33.183594 68.988281 36.984375 61.875 37.632812 C 60.769531 37.816406 59.75 37.816406 58.828125 37.816406 Z M 58.828125 37.816406 "/>
<path style=" stroke:none;fill-rule:nonzero;fill:rgb(30.588236%,30.588236%,30.588236%);fill-opacity:1;" d="M 12.742188 46.160156 C 12.648438 46.160156 12.554688 46.160156 12.464844 46.160156 C 11.355469 46.066406 9.507812 45.417969 9.230469 41.710938 C 8.953125 41.527344 8.675781 41.339844 8.492188 40.96875 C 7.660156 39.300781 9.230469 35.5 9.417969 35.128906 L 9.507812 34.851562 L 11.355469 35.039062 C 11.910156 34.667969 14.21875 33.277344 14.867188 31.421875 C 15.605469 29.382812 15.511719 28.269531 15.417969 27.160156 C 15.328125 26.230469 15.234375 25.398438 15.695312 24.101562 C 15.789062 23.730469 16.066406 23.265625 16.527344 22.800781 L 17.175781 23.449219 C 16.621094 24.007812 16.621094 24.191406 16.621094 24.285156 L 16.621094 24.378906 C 16.25 25.488281 16.34375 26.230469 16.4375 27.066406 C 16.527344 28.179688 16.710938 29.476562 15.882812 31.699219 C 14.957031 34.019531 11.910156 35.777344 11.816406 35.777344 L 11.726562 35.871094 L 10.246094 35.6875 C 9.601562 37.167969 8.953125 39.488281 9.417969 40.414062 C 9.507812 40.597656 9.601562 40.691406 9.878906 40.785156 L 10.246094 40.878906 L 10.246094 41.339844 C 10.339844 43.007812 10.800781 45.046875 12.648438 45.140625 C 13.203125 45.234375 13.574219 44.585938 13.574219 44.585938 L 13.851562 44.121094 L 14.3125 44.492188 C 14.3125 44.492188 14.589844 44.675781 16.066406 44.769531 C 16.804688 44.214844 17.730469 43.9375 18.746094 43.65625 C 20.128906 43.195312 21.609375 42.730469 22.902344 41.617188 C 22.992188 41.527344 23.179688 41.433594 23.269531 41.246094 C 24.5625 40.136719 26.964844 38.003906 27.980469 34.296875 L 28.074219 33.832031 L 28.535156 33.925781 C 30.566406 34.480469 31.953125 33.183594 32.042969 33.183594 L 32.136719 33.089844 L 34.074219 33.089844 L 43.21875 34.480469 L 43.035156 35.40625 L 33.984375 34.019531 L 32.414062 34.019531 C 31.953125 34.386719 30.566406 35.40625 28.628906 35.039062 C 27.425781 38.835938 25.023438 40.878906 23.730469 42.082031 C 23.546875 42.175781 23.453125 42.359375 23.363281 42.453125 C 21.886719 43.65625 20.316406 44.214844 18.835938 44.675781 C 17.820312 45.046875 16.898438 45.328125 16.25 45.789062 L 16.160156 45.882812 L 15.972656 45.882812 C 15.050781 45.882812 14.402344 45.789062 13.941406 45.605469 C 13.851562 45.789062 13.386719 46.160156 12.742188 46.160156 Z M 12.742188 46.160156 "/>
<path style=" stroke:none;fill-rule:nonzero;fill:rgb(30.588236%,30.588236%,30.588236%);fill-opacity:1;" d="M 94.480469 24.378906 L 93.554688 24.285156 C 93.554688 24.101562 94.292969 7.601562 80.808594 3.058594 C 79.148438 2.875 77.578125 3.152344 76.375 3.335938 C 75.636719 3.429688 75.082031 3.523438 74.621094 3.523438 C 74.066406 3.523438 73.511719 3.246094 72.960938 3.058594 C 72.128906 2.78125 71.296875 2.410156 70.464844 2.503906 C 70.003906 2.503906 69.078125 2.875 67.972656 3.152344 C 65.664062 3.894531 62.523438 4.914062 59.289062 4.914062 C 56.613281 4.914062 53.472656 3.613281 50.699219 2.410156 C 48.667969 1.574219 46.730469 0.742188 45.621094 0.835938 C 37.125 1.203125 21.054688 20.578125 20.867188 20.761719 L 20.777344 20.855469 C 20.777344 20.855469 20.128906 21.226562 19.390625 21.691406 L 18.835938 20.949219 C 19.484375 20.484375 20.039062 20.207031 20.222656 20.113281 C 21.421875 18.722656 36.847656 0.371094 45.527344 0 C 46.820312 -0.09375 48.761719 0.742188 50.976562 1.667969 C 53.65625 2.78125 56.703125 4.078125 59.289062 4.078125 C 62.335938 4.078125 65.386719 3.058594 67.695312 2.316406 C 68.894531 1.945312 69.726562 1.667969 70.371094 1.574219 C 71.480469 1.484375 72.40625 1.855469 73.234375 2.222656 C 73.789062 2.410156 74.253906 2.59375 74.621094 2.59375 C 74.992188 2.59375 75.546875 2.503906 76.191406 2.410156 C 77.390625 2.222656 79.054688 1.945312 80.902344 2.132812 L 80.996094 2.132812 C 95.21875 6.953125 94.480469 24.191406 94.480469 24.378906 Z M 94.480469 24.378906 "/>
<path style=" stroke:none;fill-rule:nonzero;fill:rgb(30.588236%,30.588236%,30.588236%);fill-opacity:1;" d="M 95.585938 52 C 93 52 89.398438 52 89.398438 52 L 89.121094 52 L 89.03125 51.816406 C 88.753906 51.351562 88.476562 50.238281 89.582031 49.496094 C 90.136719 49.035156 90.785156 48.941406 91.246094 48.753906 C 91.429688 48.753906 91.523438 48.664062 91.707031 48.664062 C 91.890625 47.179688 91.617188 39.394531 89.675781 37.261719 C 88.753906 36.242188 87.460938 35.59375 86.167969 34.945312 C 84.410156 34.019531 82.5625 33.089844 81.457031 31.328125 C 79.515625 28.269531 77.484375 19 77.390625 18.632812 L 78.316406 18.445312 C 78.316406 18.539062 80.441406 27.992188 82.289062 30.867188 C 83.304688 32.441406 84.964844 33.277344 86.628906 34.109375 C 88.011719 34.851562 89.398438 35.5 90.414062 36.707031 C 92.722656 39.300781 92.910156 48.199219 92.539062 49.21875 L 92.445312 49.40625 L 92.261719 49.496094 C 91.984375 49.589844 91.707031 49.683594 91.429688 49.777344 C 90.96875 49.867188 90.507812 49.960938 90.136719 50.332031 C 89.675781 50.703125 89.675781 50.980469 89.769531 51.257812 C 91.0625 51.257812 96.234375 51.257812 97.804688 51.257812 C 97.804688 50.886719 97.804688 50.609375 97.617188 50.425781 C 97.15625 49.683594 96.140625 49.496094 96.140625 49.496094 L 95.773438 49.40625 L 96.234375 41.988281 C 96.234375 41.988281 96.789062 40.414062 96.601562 38.746094 C 96.417969 37.078125 95.125 34.945312 94.664062 34.480469 L 94.570312 34.386719 C 93.460938 32.628906 93.554688 30.308594 93.554688 27.066406 C 93.554688 25.953125 93.648438 24.65625 93.554688 23.265625 L 94.480469 23.265625 C 94.480469 24.65625 94.480469 25.953125 94.480469 27.066406 C 94.386719 30.03125 94.386719 32.257812 95.308594 33.832031 C 95.957031 34.480469 97.15625 36.707031 97.433594 38.558594 C 97.617188 40.226562 97.15625 41.804688 97.066406 42.082031 L 96.695312 48.570312 C 97.15625 48.753906 97.988281 49.125 98.449219 49.867188 C 98.820312 50.425781 98.910156 51.074219 98.726562 51.816406 L 98.632812 52.183594 L 98.265625 52.183594 C 97.988281 52 96.878906 52 95.585938 52 Z M 95.585938 52 "/>
<path style=" stroke:none;fill-rule:nonzero;fill:rgb(30.588236%,30.588236%,30.588236%);fill-opacity:1;" d="M 53.5625 52 L 43.496094 52 L 43.496094 51.535156 C 43.496094 50.515625 43.773438 49.777344 44.328125 49.21875 C 44.882812 48.664062 45.527344 48.570312 45.992188 48.476562 C 46.359375 47.550781 47.46875 44.304688 46.636719 41.0625 C 45.527344 39.949219 44.421875 37.632812 43.3125 35.6875 C 42.480469 34.109375 41.371094 31.980469 40.910156 31.792969 C 40.449219 31.699219 39.800781 31.609375 38.972656 31.699219 C 37.863281 31.699219 36.753906 31.144531 36.199219 30.03125 L 37.03125 29.570312 C 37.402344 30.308594 38.140625 30.679688 38.972656 30.679688 C 39.894531 30.679688 40.632812 30.679688 41.09375 30.867188 C 41.925781 31.050781 42.664062 32.441406 44.050781 35.222656 C 45.066406 37.167969 46.265625 39.394531 47.285156 40.414062 L 47.375 40.507812 L 47.375 40.597656 C 48.578125 44.769531 46.636719 48.847656 46.636719 49.035156 L 46.542969 49.3125 L 46.265625 49.3125 C 46.265625 49.3125 45.527344 49.3125 44.972656 49.777344 C 44.699219 50.054688 44.511719 50.425781 44.421875 50.980469 L 52.640625 50.980469 C 52.640625 50.425781 52.457031 50.054688 52.179688 49.683594 C 51.808594 49.3125 51.253906 49.21875 51.070312 49.21875 L 50.699219 49.21875 L 50.609375 48.847656 C 50.238281 47.085938 50.699219 45.417969 51.070312 44.121094 C 51.253906 43.472656 51.441406 42.824219 51.441406 42.453125 C 51.441406 41.898438 51.253906 41.617188 51.070312 41.339844 C 50.886719 41.0625 50.699219 40.691406 50.609375 39.949219 C 50.515625 39.117188 50.699219 38.652344 50.976562 38.097656 C 51.253906 37.632812 51.441406 37.167969 51.625 36.242188 C 51.992188 34.296875 50.886719 30.867188 50.886719 30.867188 L 50.792969 30.589844 L 53.285156 29.9375 C 53.839844 29.753906 54.300781 29.105469 54.300781 28.457031 L 55.226562 28.457031 C 55.226562 29.570312 54.578125 30.496094 53.5625 30.867188 L 51.992188 31.238281 C 52.269531 32.257812 52.917969 34.851562 52.640625 36.519531 C 52.457031 37.539062 52.179688 38.1875 51.902344 38.652344 C 51.625 39.117188 51.53125 39.394531 51.625 39.855469 C 51.714844 40.414062 51.808594 40.691406 51.992188 40.878906 C 52.179688 41.246094 52.363281 41.527344 52.457031 42.359375 C 52.457031 42.917969 52.269531 43.566406 52.085938 44.398438 C 51.714844 45.511719 51.347656 46.902344 51.53125 48.386719 C 51.902344 48.476562 52.457031 48.664062 52.917969 49.035156 C 53.472656 49.589844 53.75 50.425781 53.65625 51.445312 Z M 53.5625 52 "/>
<path style=" stroke:none;fill-rule:nonzero;fill:rgb(30.588236%,30.588236%,30.588236%);fill-opacity:1;" d="M 8.675781 40.691406 C 8.585938 40.691406 -0.835938 36.707031 0.457031 28.640625 L 0.734375 27.066406 L 1.382812 28.550781 C 4.058594 34.667969 9.785156 34.757812 10.0625 34.757812 L 10.0625 35.6875 C 9.96875 35.6875 4.519531 35.59375 1.289062 30.402344 C 1.472656 36.707031 8.953125 39.855469 8.953125 39.855469 Z M 8.675781 40.691406 "/>
<path style=" stroke:none;fill-rule:nonzero;fill:rgb(30.588236%,30.588236%,30.588236%);fill-opacity:1;" d="M 11.261719 35.777344 C 10.894531 35.40625 7.382812 32.070312 7.382812 29.753906 C 7.382812 29.199219 7.570312 28.734375 7.847656 28.363281 C 9.878906 26.324219 15.328125 30.125 15.882812 30.589844 L 15.328125 31.328125 C 13.296875 29.847656 9.601562 27.898438 8.492188 29.011719 C 8.308594 29.199219 8.214844 29.382812 8.214844 29.660156 C 8.214844 31.328125 10.800781 34.109375 11.816406 35.039062 Z M 11.261719 35.777344 "/>
<path style=" stroke:none;fill-rule:nonzero;fill:rgb(30.588236%,30.588236%,30.588236%);fill-opacity:1;" d="M 17.082031 36.796875 C 16.804688 36.796875 16.34375 36.707031 16.066406 36.058594 C 15.789062 35.5 15.882812 35.128906 15.972656 34.945312 C 16.160156 34.574219 16.710938 34.386719 17.453125 34.386719 C 18.003906 34.386719 18.46875 34.480469 18.558594 34.480469 L 18.929688 34.574219 L 18.929688 35.039062 C 18.929688 35.40625 18.003906 36.796875 17.082031 36.796875 Z M 16.804688 35.5 C 16.804688 35.5 16.804688 35.59375 16.898438 35.6875 C 16.988281 35.777344 17.082031 35.871094 17.082031 35.871094 C 17.265625 35.871094 17.542969 35.59375 17.730469 35.316406 C 17.636719 35.316406 17.542969 35.316406 17.453125 35.316406 C 16.988281 35.316406 16.804688 35.40625 16.804688 35.5 Z M 16.804688 35.5 "/>
<path style=" stroke:none;fill-rule:nonzero;fill:rgb(30.588236%,30.588236%,30.588236%);fill-opacity:1;" d="M 12.1875 44.492188 C 12.003906 44.492188 11.726562 44.398438 11.449219 44.121094 C 11.078125 43.65625 11.078125 43.378906 11.171875 43.101562 C 11.261719 42.824219 11.632812 42.636719 12.09375 42.636719 C 12.371094 42.636719 12.554688 42.730469 12.742188 42.824219 C 13.019531 43.007812 13.203125 43.378906 13.019531 43.75 C 12.925781 44.214844 12.554688 44.492188 12.1875 44.492188 Z M 12.1875 44.492188 "/>
<path style=" stroke:none;fill-rule:nonzero;fill:rgb(30.588236%,30.588236%,30.588236%);fill-opacity:1;" d="M 14.3125 45.140625 L 13.941406 44.863281 L 13.480469 44.675781 C 14.035156 43.101562 14.867188 42.175781 15.417969 41.617188 L 16.066406 42.265625 C 15.511719 42.730469 14.773438 43.566406 14.402344 44.863281 Z M 14.3125 45.140625 "/>
<path style=" stroke:none;fill-rule:nonzero;fill:rgb(30.588236%,30.588236%,30.588236%);fill-opacity:1;" d="M 18.929688 25.675781 C 18.375 24.65625 17.636719 24.101562 16.988281 23.542969 C 16.25 22.894531 15.511719 22.339844 15.417969 21.320312 C 15.234375 19.652344 15.234375 18.539062 15.972656 18.261719 C 16.988281 17.980469 19.761719 21.503906 20.59375 23.082031 L 19.761719 23.542969 C 18.746094 21.78125 16.898438 19.742188 16.25 19.28125 C 16.25 19.464844 16.160156 20.019531 16.34375 21.226562 C 16.4375 21.875 16.898438 22.246094 17.636719 22.800781 C 18.28125 23.359375 19.207031 24.007812 19.851562 25.210938 Z M 18.929688 25.675781 "/>
</g>
</svg>
