<?xml version="1.0" encoding="UTF-8"?>
<svg xmlns="http://www.w3.org/2000/svg" xmlns:xlink="http://www.w3.org/1999/xlink" width="36px" height="98px" viewBox="0 0 36 98" version="1.1">
<g id="surface1">
<path style=" stroke:none;fill-rule:evenodd;fill:rgb(8.235294%,9.019608%,9.411765%);fill-opacity:1;" d="M 11.367188 48.121094 C 11.550781 50 11.855469 51.816406 12.285156 53.636719 C 12.46875 54.484375 12.714844 55.394531 12.894531 56.300781 C 13.019531 56.847656 13.691406 58.363281 13.507812 58.847656 C 13.324219 59.269531 12.285156 59.574219 11.980469 59.757812 C 10.757812 60.421875 9.472656 61.089844 8.25 61.753906 C 6.96875 62.421875 7.640625 65.332031 7.640625 66.664062 C 7.640625 69.207031 7.640625 71.753906 7.640625 74.300781 C 7.640625 75.875 5.195312 74.359375 4.402344 75.207031 C 3.851562 75.753906 7.210938 75.691406 7.335938 75.933594 C 7.761719 76.785156 5.011719 76.542969 4.585938 76.964844 C 5.316406 77.269531 7.457031 76.785156 7.945312 77.390625 C 8.558594 78.175781 5.441406 78.054688 5.132812 78.296875 C 4.09375 79.085938 7.210938 78.90625 7.703125 78.964844 C 8.617188 79.085938 8.984375 79.570312 9.839844 79.207031 C 10.878906 78.660156 11.980469 78.175781 13.019531 77.632812 C 9.351562 75.933594 10.390625 70.601562 10.390625 67.332031 C 10.390625 66.601562 10.207031 65.574219 10.574219 64.96875 C 11.0625 64.179688 12.773438 63.453125 13.570312 62.90625 C 13.8125 62.726562 14.609375 61.9375 14.914062 62.300781 C 15.339844 62.726562 15.339844 64.058594 15.464844 64.664062 C 17.175781 72.90625 19.679688 80.722656 19.496094 89.207031 C 19.4375 92.234375 19.253906 95.082031 19.988281 98.054688 C 20.046875 94.113281 21.332031 90.417969 21.820312 86.539062 C 22.371094 82.359375 22.429688 78.175781 22.921875 73.996094 C 23.164062 71.9375 23.226562 69.9375 23.410156 67.875 C 23.46875 66.90625 23.59375 65.9375 23.652344 64.96875 C 23.652344 64.542969 23.652344 62.785156 23.898438 62.484375 C 24.691406 61.695312 28.175781 63.390625 29.214844 63.753906 C 29.886719 63.9375 29.765625 67.574219 29.765625 68.300781 C 29.765625 70.300781 29.703125 72.238281 29.277344 74.179688 C 29.09375 74.964844 28.847656 75.753906 28.542969 76.542969 C 28.054688 77.753906 28.421875 77.632812 29.582031 77.753906 C 31.597656 77.933594 33.371094 78.175781 35.265625 78.84375 C 35.816406 79.027344 36.246094 78.601562 35.753906 78.175781 C 35.265625 77.691406 33.800781 77.691406 33.554688 77.269531 C 32.761719 75.996094 35.695312 77.328125 36 76.722656 C 36.550781 75.691406 32.699219 76.175781 33.25 75.085938 C 33.371094 74.84375 36.917969 75.269531 35.878906 74.601562 C 35.144531 74.117188 33.800781 74.179688 32.945312 74.058594 C 32.027344 73.875 32.453125 72.964844 32.515625 72.238281 C 32.699219 70.117188 32.699219 68.058594 32.578125 65.9375 C 32.515625 65.089844 32.578125 61.269531 31.660156 61.089844 C 29.277344 60.421875 26.832031 59.816406 24.449219 59.148438 C 23.777344 58.96875 24.875 55.089844 25 54.363281 C 26.28125 46.242188 25.546875 38 23.777344 30.0625 C 23.285156 27.882812 22.738281 25.699219 22.066406 23.519531 C 21.757812 22.550781 20.414062 20.429688 21.941406 20.308594 C 22.796875 20.1875 27.992188 20.066406 27.992188 19.339844 C 27.992188 16.671875 27.992188 13.945312 27.992188 11.277344 C 27.992188 9.824219 27.566406 8.734375 29.277344 9.15625 C 29.398438 9.15625 32.761719 10.128906 31.90625 8.855469 C 31.722656 8.613281 28.480469 7.945312 29.335938 7.523438 C 29.703125 7.339844 33.1875 7.765625 31.597656 6.792969 C 31.292969 6.613281 28.542969 6.734375 29.277344 5.886719 C 29.460938 5.644531 32.515625 6.128906 32.089844 5.339844 C 31.78125 4.734375 29.03125 5.097656 28.480469 5.039062 C 27.136719 4.917969 25.730469 4.734375 24.386719 4.671875 C 25.976562 6.128906 25.855469 7.644531 25.792969 9.582031 C 25.730469 11.519531 25.792969 13.460938 25.671875 15.460938 C 25.609375 15.945312 25.914062 17.339844 25.609375 17.703125 C 25.242188 18.125 23.960938 17.882812 23.410156 17.882812 C 22.738281 17.882812 20.84375 18.1875 20.292969 17.824219 C 19.742188 17.519531 19.679688 16.246094 19.496094 15.703125 C 19.3125 14.976562 18.703125 13.882812 18.886719 13.15625 C 19.070312 12.371094 20.109375 11.640625 20.476562 10.914062 C 21.390625 9.277344 20.964844 7.339844 20.351562 5.644531 C 19.3125 3.039062 16.257812 -2.296875 13.570312 1.824219 C 11.980469 4.25 11.183594 7.582031 12.164062 10.371094 C 12.652344 11.703125 13.753906 12.914062 13.996094 14.308594 C 14.179688 15.398438 13.753906 17.21875 12.589844 17.640625 C 11.492188 18.066406 9.839844 17.339844 8.800781 17.035156 C 7.152344 16.609375 7.027344 16.792969 6.90625 15.035156 C 6.664062 11.582031 5.929688 8.1875 7.640625 5.21875 C 5.746094 5.28125 3.851562 5.039062 2.015625 4.492188 C -0.609375 3.703125 0.671875 5.160156 2.261719 5.765625 C 2.75 5.945312 3.726562 5.945312 3.972656 6.429688 C 4.277344 7.097656 2.933594 6.734375 2.8125 6.734375 C 2.199219 6.613281 1.101562 6.066406 0.488281 6.308594 C -0.121094 6.492188 0.792969 6.976562 1.039062 7.035156 C 1.832031 7.339844 2.871094 7.339844 3.667969 7.703125 C 4.21875 7.945312 3.726562 8.371094 3.300781 8.308594 C 3.054688 8.308594 -0.792969 7.523438 0.183594 8.855469 C 0.976562 9.886719 3.789062 8.429688 4.277344 9.398438 C 4.523438 9.824219 4.339844 10.492188 4.339844 10.914062 C 4.277344 12.492188 4.21875 14.003906 4.15625 15.582031 C 4.09375 17.035156 4.035156 18.550781 3.972656 20.003906 C 5.804688 19.945312 7.640625 19.882812 9.535156 19.882812 C 10.023438 19.882812 13.140625 19.398438 13.386719 19.882812 C 13.753906 20.550781 12.773438 22.730469 12.589844 23.519531 C 12.222656 25.15625 11.855469 26.730469 11.675781 28.367188 C 10.695312 34.910156 10.636719 41.578125 11.367188 48.121094 M 19.070312 7.886719 C 18.886719 6.1875 17.480469 6.308594 17.601562 8.007812 C 17.726562 9.640625 19.128906 9.460938 19.070312 7.886719 M 19.742188 7.824219 C 19.925781 10.371094 17.050781 10.550781 16.992188 8.007812 C 16.808594 5.523438 19.742188 5.28125 19.742188 7.824219 M 15.339844 7.703125 C 15.097656 5.886719 13.628906 5.765625 13.628906 7.703125 C 13.691406 9.640625 15.15625 9.460938 15.339844 7.703125 M 16.074219 7.703125 C 16.011719 8.429688 15.523438 10.308594 14.425781 9.945312 C 13.570312 9.640625 13.140625 9.035156 13.019531 8.066406 C 12.714844 5.160156 15.707031 4.671875 16.074219 7.703125 M 14.609375 19.824219 C 15.15625 18.609375 16.5625 18.550781 17.664062 19.035156 C 19.191406 19.640625 19.804688 21.398438 20.351562 22.851562 C 21.453125 25.882812 21.757812 29.277344 22.308594 32.304688 C 23.46875 39.09375 23.652344 46.304688 23.042969 53.152344 C 22.796875 55.878906 22.738281 60 18.949219 60 C 14.667969 60 14.242188 54.847656 13.691406 51.636719 C 12.53125 44.605469 12.46875 37.578125 12.46875 30.367188 C 12.53125 26.792969 13.996094 23.398438 14.609375 19.824219 M 15.28125 20.125 C 15.097656 20.671875 14.609375 21.519531 14.851562 22.066406 C 15.707031 21.15625 16.074219 21.15625 15.28125 20.125 M 16.378906 20.429688 C 16.625 20.125 16.929688 19.882812 17.175781 19.582031 C 16.6875 19.398438 16.195312 19.398438 15.707031 19.582031 C 15.953125 19.882812 16.195312 20.1875 16.378906 20.429688 M 14.300781 23.761719 C 14.058594 24.1875 13.933594 24.730469 14.363281 25.035156 C 15.035156 24.308594 15.769531 24.003906 14.914062 23.09375 C 14.667969 23.277344 14.425781 23.519531 14.300781 23.761719 M 15.890625 23.335938 C 16.5625 22.609375 17.234375 22.367188 16.320312 21.519531 C 15.648438 22.246094 14.972656 22.550781 15.890625 23.335938 M 17.417969 21.761719 C 17.847656 21.277344 18.824219 20.730469 18.214844 20.1875 C 17.726562 19.703125 17.726562 20.003906 17.296875 20.429688 C 16.6875 21.09375 16.871094 21.035156 17.417969 21.761719 M 13.691406 26.671875 C 13.570312 27.398438 13.324219 28.246094 13.933594 28.851562 C 14.363281 28.425781 14.851562 27.941406 15.28125 27.519531 C 15.402344 27.398438 14.484375 26.304688 14.300781 26.0625 C 14.058594 26.246094 13.8125 26.429688 13.691406 26.671875 M 15.769531 26.972656 C 16.011719 26.730469 16.871094 26.0625 16.929688 25.761719 C 16.929688 25.457031 16.011719 24.609375 15.832031 24.367188 C 14.667969 25.640625 14.792969 25.578125 15.769531 26.972656 M 17.480469 25.277344 C 18.640625 24.066406 18.335938 24.125 17.359375 22.792969 C 17.175781 22.972656 16.257812 23.699219 16.378906 23.882812 C 16.746094 24.367188 17.113281 24.851562 17.480469 25.277344 M 18.949219 23.820312 C 19.558594 23.277344 19.621094 23.335938 19.558594 22.609375 C 19.496094 22.1875 19.070312 21.519531 18.886719 21.15625 C 17.664062 22.488281 17.910156 22.367188 18.949219 23.820312 M 13.261719 30.488281 C 13.140625 31.09375 13.019531 31.882812 13.203125 32.488281 C 13.628906 32.003906 14.058594 31.578125 14.546875 31.15625 C 14.914062 30.789062 14.179688 30.246094 13.875 29.882812 C 13.628906 30.0625 13.386719 30.246094 13.261719 30.488281 M 15.15625 30.425781 C 16.320312 29.277344 16.6875 29.335938 15.707031 28.003906 C 15.28125 28.425781 14.851562 28.851562 14.363281 29.277344 C 14.242188 29.457031 15.035156 30.246094 15.15625 30.425781 M 16.992188 28.667969 C 18.152344 27.519531 18.398438 27.640625 17.417969 26.304688 C 16.257812 27.457031 16.074219 27.335938 16.992188 28.667969 M 18.765625 26.914062 C 19.804688 25.882812 19.742188 26.003906 18.886719 24.792969 C 17.847656 25.882812 17.847656 25.761719 18.765625 26.914062 M 20.167969 25.398438 C 20.476562 25.09375 20.046875 24.246094 19.925781 23.761719 C 19.007812 24.308594 19.804688 24.851562 20.167969 25.398438 M 13.078125 33.578125 C 13.078125 34.183594 13.078125 34.789062 13.078125 35.457031 C 13.996094 34.546875 13.8125 34.609375 13.078125 33.578125 M 14.363281 34.125 C 14.851562 33.640625 15.28125 33.214844 15.769531 32.789062 C 16.136719 32.425781 15.464844 31.941406 15.15625 31.578125 C 14.730469 32.003906 14.300781 32.425781 13.8125 32.910156 C 13.445312 33.214844 14.058594 33.699219 14.363281 34.125 M 16.441406 32.003906 C 17.542969 30.910156 17.910156 30.972656 16.929688 29.699219 C 15.769531 30.851562 15.402344 30.730469 16.441406 32.003906 M 18.214844 30.246094 C 19.3125 29.15625 19.679688 29.214844 18.703125 27.941406 C 17.542969 29.09375 17.296875 28.972656 18.214844 30.246094 M 19.925781 28.546875 C 20.902344 27.578125 20.964844 27.578125 20.109375 26.488281 C 19.128906 27.519531 19.128906 27.398438 19.925781 28.546875 M 13.078125 36.367188 C 13.078125 36.910156 13.078125 37.457031 13.078125 38 C 13.628906 37.457031 14.242188 36.972656 14.792969 36.425781 C 15.15625 36.0625 14.484375 35.515625 14.179688 35.152344 C 13.8125 35.578125 13.445312 36.003906 13.078125 36.367188 M 15.464844 35.757812 C 16.011719 35.273438 16.503906 34.789062 17.050781 34.304688 C 17.417969 33.941406 16.625 33.394531 16.378906 33.03125 C 15.890625 33.519531 15.402344 34.003906 14.972656 34.425781 C 14.609375 34.910156 15.21875 35.394531 15.464844 35.757812 M 17.726562 33.699219 C 18.152344 33.335938 18.519531 32.972656 18.949219 32.609375 C 19.128906 32.488281 18.335938 31.578125 18.152344 31.335938 C 16.992188 32.488281 16.6875 32.367188 17.726562 33.699219 M 19.558594 32.0625 C 19.988281 31.640625 20.476562 31.277344 20.902344 30.851562 C 21.027344 30.730469 20.109375 29.699219 19.925781 29.519531 C 19.496094 29.941406 19.128906 30.304688 18.703125 30.730469 C 18.519531 30.910156 19.375 31.882812 19.558594 32.0625 M 21.332031 30.183594 C 21.207031 29.578125 21.085938 29.035156 20.964844 28.425781 C 19.988281 29.15625 20.71875 29.519531 21.332031 30.183594 M 13.140625 38.910156 C 13.140625 39.394531 13.386719 39.636719 13.691406 40.0625 C 14.300781 39.515625 14.914062 38.972656 15.585938 38.367188 C 16.320312 37.699219 15.953125 37.636719 15.402344 36.851562 C 14.609375 37.515625 13.875 38.242188 13.140625 38.910156 M 16.625 37.394531 C 17.113281 36.972656 17.542969 36.546875 18.03125 36.0625 C 18.640625 35.515625 18.089844 35.273438 17.664062 34.667969 C 17.175781 35.09375 16.746094 35.515625 16.320312 36.003906 C 15.707031 36.546875 16.195312 36.789062 16.625 37.394531 M 19.007812 35.273438 C 20.109375 34.183594 20.351562 34.304688 19.4375 33.03125 C 18.335938 34.183594 18.03125 34.0625 19.007812 35.273438 M 20.71875 33.699219 C 21.515625 32.972656 22.066406 32.425781 21.332031 31.335938 C 20.109375 32.425781 19.742188 32.367188 20.71875 33.699219 M 13.261719 41.335938 C 13.324219 42.0625 13.324219 42.847656 13.445312 43.515625 C 14.730469 42.304688 14.609375 42.425781 13.570312 41.03125 C 13.445312 41.152344 13.324219 41.273438 13.261719 41.335938 M 15.035156 41.941406 C 15.707031 41.273438 16.378906 40.667969 17.050781 40 C 17.601562 39.457031 16.871094 38.972656 16.441406 38.367188 C 15.769531 38.972656 15.035156 39.636719 14.363281 40.242188 C 13.8125 40.789062 14.667969 41.394531 15.035156 41.941406 M 17.910156 39.214844 C 18.457031 38.667969 19.007812 38.121094 19.558594 37.578125 C 19.925781 37.214844 19.128906 36.609375 18.824219 36.246094 C 18.273438 36.789062 17.726562 37.273438 17.175781 37.820312 C 16.808594 38.183594 17.601562 38.851562 17.910156 39.214844 M 20.230469 36.910156 C 21.332031 35.820312 21.515625 35.941406 20.597656 34.667969 C 19.496094 35.757812 19.253906 35.699219 20.230469 36.910156 M 21.882812 35.273438 C 22.125 34.851562 21.882812 34.0625 21.820312 33.578125 C 20.902344 34.246094 21.332031 34.546875 21.882812 35.273438 M 13.507812 44.484375 C 13.570312 45.089844 13.570312 45.699219 14.058594 46.183594 C 14.546875 45.636719 15.035156 45.152344 15.523438 44.605469 C 16.074219 44 15.402344 43.636719 15.035156 43.03125 C 14.484375 43.515625 13.996094 44 13.507812 44.484375 M 16.320312 43.757812 C 16.871094 43.152344 17.480469 42.546875 18.03125 41.941406 C 18.703125 41.214844 18.335938 41.09375 17.726562 40.304688 C 17.113281 40.910156 16.5625 41.457031 15.953125 42.0625 C 15.28125 42.789062 15.769531 42.910156 16.320312 43.757812 M 19.070312 40.851562 C 19.621094 40.304688 20.109375 39.820312 20.660156 39.273438 C 21.207031 38.730469 20.660156 38.488281 20.230469 37.878906 C 19.742188 38.367188 19.191406 38.910156 18.703125 39.394531 C 18.089844 40 18.640625 40.242188 19.070312 40.851562 M 21.453125 38.425781 C 22.066406 37.757812 22.675781 37.152344 21.820312 36.367188 C 20.78125 37.394531 20.535156 37.273438 21.453125 38.425781 M 13.8125 47.394531 C 13.875 48.242188 14.058594 49.03125 14.117188 49.878906 C 15.21875 48.546875 14.972656 48.605469 13.996094 47.273438 C 13.933594 47.273438 13.875 47.332031 13.8125 47.394531 M 15.464844 48.183594 C 16.011719 47.574219 16.503906 46.96875 17.050781 46.363281 C 17.359375 46 16.503906 45.152344 16.257812 44.789062 C 15.707031 45.332031 15.15625 45.878906 14.609375 46.425781 C 14.242188 46.910156 15.21875 47.757812 15.464844 48.183594 M 17.664062 45.699219 C 18.214844 45.03125 18.765625 44.363281 19.375 43.757812 C 20.046875 42.96875 19.621094 42.910156 19.007812 42.0625 C 18.335938 42.726562 17.726562 43.394531 17.050781 44.0625 C 16.503906 44.605469 17.296875 45.089844 17.664062 45.699219 M 20.230469 42.605469 C 20.71875 42 21.269531 41.457031 21.757812 40.851562 C 22.246094 40.242188 21.820312 40.121094 21.390625 39.515625 C 20.84375 40.0625 20.351562 40.605469 19.804688 41.152344 C 19.253906 41.699219 19.804688 42 20.230469 42.605469 M 22.429688 39.699219 C 22.371094 39.335938 22.371094 38.910156 22.371094 38.546875 C 21.699219 38.851562 21.941406 39.273438 22.429688 39.699219 M 14.300781 50.726562 C 14.300781 51.453125 14.667969 51.878906 15.097656 52.484375 C 15.523438 51.9375 16.011719 51.394531 16.441406 50.789062 C 16.5625 50.605469 15.648438 49.515625 15.464844 49.273438 C 15.035156 49.816406 14.667969 50.304688 14.300781 50.726562 M 16.871094 50.179688 C 17.296875 49.636719 17.785156 49.03125 18.214844 48.484375 C 18.703125 47.878906 18.089844 47.453125 17.664062 46.847656 C 17.113281 47.453125 16.625 48.0625 16.074219 48.667969 C 15.707031 48.96875 16.625 49.816406 16.871094 50.179688 M 19.007812 47.453125 C 19.496094 46.789062 20.046875 46.121094 20.535156 45.394531 C 21.148438 44.605469 20.78125 44.546875 20.167969 43.699219 C 19.621094 44.363281 19.070312 44.96875 18.519531 45.636719 C 17.910156 46.484375 18.335938 46.605469 19.007812 47.453125 M 21.453125 44.304688 C 22.429688 43.03125 22.554688 42.667969 22.492188 41.152344 C 22.003906 41.699219 21.515625 42.304688 21.027344 42.847656 C 20.476562 43.457031 21.027344 43.699219 21.453125 44.304688 M 14.792969 53.9375 C 15.035156 54.90625 15.21875 55.878906 15.585938 56.847656 C 15.890625 56.484375 16.625 55.878906 16.320312 55.453125 C 15.890625 54.847656 15.464844 54.242188 15.035156 53.695312 C 14.972656 53.757812 14.914062 53.816406 14.792969 53.9375 M 16.992188 55.089844 C 17.296875 54.726562 18.273438 53.816406 18.335938 53.394531 C 18.335938 52.910156 17.175781 51.695312 16.871094 51.273438 C 16.5625 51.695312 15.523438 52.605469 15.464844 53.089844 C 15.464844 53.515625 16.6875 54.726562 16.992188 55.089844 M 18.765625 52.789062 C 19.3125 52.121094 19.863281 51.394531 20.414062 50.726562 C 20.535156 50.546875 19.128906 48.847656 18.949219 48.605469 C 18.398438 49.332031 17.910156 50 17.359375 50.726562 C 17.175781 50.910156 18.582031 52.542969 18.765625 52.789062 M 20.84375 50.179688 C 21.269531 49.636719 22.613281 48.484375 22.613281 47.757812 C 22.613281 46.789062 21.941406 46.183594 21.390625 45.394531 C 20.78125 46.242188 20.167969 47.03125 19.496094 47.878906 C 19.253906 48.304688 20.597656 49.757812 20.84375 50.179688 M 22.613281 45.941406 C 22.613281 45.210938 22.613281 44.546875 22.613281 43.820312 C 21.757812 44.96875 21.820312 44.847656 22.613281 45.941406 M 15.832031 57.574219 C 16.074219 58.121094 16.929688 59.453125 17.542969 58.90625 C 18.089844 58.421875 18.457031 58.363281 18.03125 57.757812 C 17.664062 57.210938 17.296875 56.726562 16.871094 56.179688 C 16.5625 56.664062 16.195312 57.148438 15.832031 57.574219 M 18.949219 57.695312 C 19.3125 57.394531 20.597656 56.605469 20.351562 56.179688 C 19.804688 55.394531 19.3125 54.664062 18.765625 53.878906 C 18.519531 54.242188 17.417969 55.210938 17.417969 55.636719 C 17.417969 56.179688 18.640625 57.269531 18.949219 57.695312 M 20.964844 55.878906 C 21.820312 55.152344 22.1875 54.96875 22.308594 53.878906 C 22.371094 52.910156 21.390625 52.058594 20.84375 51.273438 C 20.476562 51.695312 19.191406 52.847656 19.128906 53.394531 C 19.128906 54 20.597656 55.394531 20.964844 55.878906 M 22.429688 52.300781 C 22.554688 51.273438 22.554688 50.179688 22.554688 49.152344 C 22.308594 49.453125 21.269531 50.363281 21.269531 50.789062 C 21.269531 51.152344 22.1875 52 22.429688 52.300781 M 18.089844 59.390625 C 18.519531 59.453125 18.886719 59.453125 19.3125 59.390625 C 19.253906 59.210938 19.007812 58.90625 18.824219 58.726562 C 18.582031 58.96875 18.335938 59.148438 18.089844 59.390625 M 19.988281 59.210938 C 21.390625 58.726562 21.574219 58 20.84375 56.90625 C 20.414062 57.269531 19.988281 57.636719 19.558594 58 C 19.191406 58.421875 19.742188 58.785156 19.988281 59.210938 M 21.820312 57.148438 C 22.003906 56.726562 22.066406 56.242188 22.125 55.757812 C 21.515625 56.300781 21.085938 56.484375 21.820312 57.148438 "/>
</g>
</svg>
