<?xml version="1.0" encoding="UTF-8"?>
<svg xmlns="http://www.w3.org/2000/svg" xmlns:xlink="http://www.w3.org/1999/xlink" width="62px" height="100px" viewBox="0 0 62 100" version="1.1">
<g id="surface1">
<path style=" stroke:none;fill-rule:evenodd;fill:rgb(8.235294%,9.019608%,9.411765%);fill-opacity:1;" d="M 14.390625 76.523438 C 14.269531 76.523438 14.152344 76.523438 14.03125 76.523438 C 17.628906 81.671875 23.144531 84.066406 29.261719 84.425781 C 35.738281 84.902344 41.734375 81.910156 46.410156 77.839844 C 45.449219 77.480469 43.773438 79.15625 42.933594 79.636719 C 41.613281 80.355469 40.292969 81.070312 38.855469 81.550781 C 35.976562 82.628906 32.980469 83.585938 29.859375 83.585938 C 26.984375 83.585938 24.34375 82.988281 21.707031 81.789062 C 20.265625 81.070312 18.828125 80.234375 17.628906 79.277344 C 16.910156 78.675781 15.230469 76.523438 14.390625 76.523438 M 14.03125 74.367188 C 14.511719 72.089844 19.308594 70.773438 21.226562 70.535156 C 24.105469 70.296875 26.863281 70.894531 29.742188 70.65625 C 29.621094 71.734375 29.5 72.808594 29.261719 74.007812 C 29.261719 74.128906 27.34375 74.007812 27.222656 74.007812 C 24.34375 74.007812 21.347656 73.886719 18.46875 73.886719 C 17.390625 73.886719 17.507812 73.769531 17.390625 74.847656 C 17.390625 75.085938 17.148438 76.164062 17.390625 76.28125 C 17.988281 76.523438 18.589844 76.640625 19.1875 76.882812 C 20.988281 77.480469 22.90625 77.957031 24.824219 78.199219 C 28.660156 78.796875 32.980469 79.035156 36.9375 78.316406 C 38.976562 77.957031 40.894531 77.480469 42.8125 76.761719 C 43.652344 76.402344 44.132812 76.042969 44.132812 75.085938 C 44.011719 74.007812 43.652344 74.367188 42.574219 74.246094 C 39.574219 74.246094 36.695312 74.128906 33.699219 74.128906 C 33.21875 74.128906 32.019531 74.367188 31.898438 73.886719 C 31.660156 72.929688 31.417969 71.972656 31.417969 71.132812 C 31.417969 70.296875 32.980469 70.65625 33.699219 70.65625 C 34.898438 70.65625 36.097656 70.65625 37.175781 70.65625 C 39.09375 70.65625 41.132812 71.015625 42.933594 71.492188 C 44.609375 71.851562 46.890625 72.570312 47.609375 74.367188 C 48.089844 75.445312 47.730469 75.683594 46.769531 76.523438 C 45.929688 77.242188 44.972656 77.839844 44.011719 78.558594 C 40.773438 80.714844 36.695312 82.390625 32.859375 82.867188 C 28.902344 83.347656 25.664062 82.988281 22.066406 81.429688 C 19.1875 80.234375 14.628906 77.71875 14.03125 74.367188 M 27.101562 12.941406 C 27.820312 13.417969 28.421875 13.898438 29.019531 14.378906 C 29.382812 14.617188 30.582031 15.933594 30.941406 15.933594 C 31.300781 15.933594 32.5 14.738281 32.738281 14.496094 C 33.457031 14.019531 34.058594 13.539062 34.65625 13.0625 C 33.457031 12.34375 31.898438 11.023438 30.460938 10.664062 C 29.742188 10.425781 29.5 10.785156 28.902344 11.265625 C 28.300781 11.863281 27.703125 12.34375 27.101562 12.941406 M 23.265625 11.742188 C 23.265625 12.703125 23.265625 13.660156 23.386719 14.617188 C 23.984375 14.019531 24.585938 13.539062 25.183594 12.941406 C 24.464844 12.582031 23.863281 12.101562 23.265625 11.742188 M 23.023438 14.976562 C 23.144531 13.777344 21.464844 15.335938 23.023438 14.976562 M 23.023438 14.257812 C 23.144531 13.777344 22.90625 13.539062 22.304688 13.660156 C 22.1875 14.257812 22.425781 14.378906 23.023438 14.257812 M 23.023438 13.417969 C 23.023438 12.460938 21.464844 13.898438 23.023438 13.417969 M 23.023438 12.820312 C 23.144531 12.34375 22.785156 12.222656 22.304688 12.34375 C 22.1875 12.820312 22.546875 12.941406 23.023438 12.820312 M 22.90625 12.101562 C 23.023438 10.90625 21.347656 12.460938 22.90625 12.101562 M 22.90625 11.382812 C 23.023438 11.265625 23.144531 11.023438 23.386719 10.664062 C 23.023438 10.425781 22.546875 10.308594 22.1875 10.1875 C 22.1875 10.90625 21.945312 11.625 22.90625 11.382812 M 23.265625 11.382812 C 23.503906 11.503906 23.746094 11.625 23.984375 11.863281 C 24.703125 11.265625 23.503906 10.546875 23.265625 11.382812 M 24.222656 11.984375 C 24.34375 12.101562 24.585938 12.222656 24.703125 12.34375 C 25.0625 11.984375 25.0625 11.625 24.585938 11.382812 C 24.464844 11.625 24.222656 11.742188 24.222656 11.984375 M 24.824219 12.460938 C 25.183594 12.820312 25.542969 12.703125 25.785156 12.222656 C 25.421875 11.863281 25.0625 11.863281 24.824219 12.460938 M 22.304688 15.335938 C 22.304688 15.574219 22.304688 15.933594 22.425781 16.175781 C 22.785156 15.816406 23.503906 15.695312 23.144531 15.214844 C 23.023438 15.335938 22.664062 15.214844 22.304688 15.335938 M 23.625 15.335938 C 23.863281 15.097656 23.984375 14.976562 23.625 14.617188 C 23.265625 14.855469 23.386719 14.976562 23.625 15.335938 M 24.105469 14.855469 C 24.585938 14.617188 24.703125 14.378906 24.222656 14.019531 C 23.863281 14.257812 23.863281 14.496094 24.105469 14.855469 M 24.824219 14.257812 C 25.0625 14.019531 25.0625 13.777344 24.703125 13.539062 C 24.464844 13.777344 24.585938 14.019531 24.824219 14.257812 M 25.421875 13.898438 C 25.542969 13.777344 25.785156 13.660156 25.902344 13.539062 C 25.421875 12.941406 24.824219 13.179688 25.421875 13.898438 M 26.023438 12.101562 C 26.984375 11.265625 27.941406 10.546875 28.902344 9.828125 C 27.703125 9.109375 26.621094 8.511719 25.542969 7.792969 C 28.183594 7.792969 31.058594 7.792969 33.578125 7.3125 C 32.980469 8.152344 31.898438 8.988281 31.058594 9.589844 C 32.378906 10.425781 33.699219 11.144531 34.898438 11.984375 C 35.855469 12.582031 36.214844 11.984375 37.054688 11.382812 C 37.65625 10.90625 38.375 10.546875 38.855469 10.066406 C 38.855469 12.101562 38.734375 14.257812 39.214844 16.292969 C 38.375 15.816406 36.816406 13.898438 35.855469 13.898438 C 35.496094 13.898438 34.296875 15.097656 34.058594 15.335938 C 33.339844 15.933594 32.617188 16.414062 31.898438 17.011719 C 32.859375 17.96875 34.058594 18.929688 34.539062 20.125 C 31.78125 20.125 29.140625 20.125 26.382812 20.125 C 27.34375 18.929688 28.78125 17.851562 29.980469 16.890625 C 29.5 16.53125 26.503906 13.660156 26.144531 13.898438 C 24.824219 14.855469 23.625 16.054688 22.1875 16.773438 C 22.1875 14.617188 22.066406 12.460938 21.945312 10.308594 C 21.824219 9.46875 25.664062 11.863281 26.023438 12.101562 M 29.140625 9.589844 C 29.382812 9.46875 29.5 9.347656 29.742188 9.109375 C 29.382812 8.871094 29.140625 8.988281 28.902344 9.347656 C 28.902344 9.46875 29.019531 9.589844 29.140625 9.589844 M 29.019531 8.871094 C 28.660156 8.628906 28.421875 8.628906 28.0625 8.988281 C 28.421875 9.230469 28.660156 9.230469 29.019531 8.871094 M 28.300781 8.390625 C 28.183594 8.390625 27.941406 8.269531 27.820312 8.152344 C 28.660156 7.910156 27.582031 7.671875 27.582031 8.03125 C 27.460938 8.75 27.703125 9.109375 28.300781 8.390625 M 27.222656 7.910156 C 26.984375 7.910156 26.742188 7.910156 26.382812 7.910156 C 26.621094 8.152344 26.863281 8.269531 27.222656 8.511719 C 27.222656 8.269531 27.222656 8.152344 27.222656 7.910156 M 28.421875 8.152344 C 28.78125 8.152344 29.019531 8.152344 29.019531 7.792969 C 28.421875 7.792969 28.421875 7.910156 28.421875 8.152344 M 29.261719 8.152344 C 29.621094 8.152344 29.859375 8.269531 29.859375 7.792969 C 29.382812 7.671875 29.261719 7.792969 29.261719 8.152344 M 30.101562 8.03125 C 30.582031 8.03125 31.300781 8.152344 31.300781 7.671875 C 30.820312 7.792969 30.101562 7.550781 30.101562 8.03125 M 31.539062 8.03125 C 31.660156 8.03125 31.660156 8.03125 31.78125 8.03125 C 31.78125 8.152344 31.898438 8.152344 31.898438 8.511719 C 32.140625 8.269531 32.5 7.910156 32.738281 7.671875 C 32.257812 7.671875 31.539062 7.433594 31.539062 8.03125 M 31.417969 8.269531 C 31.300781 8.269531 31.179688 8.390625 31.058594 8.511719 C 31.179688 8.628906 31.300781 8.75 31.417969 8.988281 C 31.78125 8.75 31.660156 8.628906 31.417969 8.269531 M 30.941406 8.628906 C 30.699219 8.75 30.460938 8.988281 30.21875 9.109375 C 30.699219 9.589844 31.417969 9.230469 30.941406 8.628906 M 35.855469 12.582031 C 36.214844 12.941406 36.578125 13.0625 36.816406 12.703125 C 36.578125 12.101562 36.214844 12.101562 35.855469 12.582031 M 37.175781 12.460938 C 37.296875 12.34375 37.414062 12.222656 37.535156 12.101562 C 37.296875 11.625 36.9375 11.625 36.695312 11.984375 C 36.816406 12.101562 36.9375 12.34375 37.175781 12.460938 M 37.894531 11.863281 C 38.015625 11.742188 38.015625 11.742188 38.136719 11.625 C 37.777344 11.265625 37.777344 11.144531 37.414062 11.382812 C 37.535156 11.625 37.65625 11.742188 37.894531 11.863281 M 38.496094 11.503906 C 38.855469 11.382812 38.734375 10.90625 38.734375 10.546875 C 38.496094 10.664062 38.253906 10.90625 38.015625 11.023438 C 38.136719 11.265625 38.253906 11.503906 38.496094 11.503906 M 38.375 11.742188 C 37.894531 13.179688 39.453125 11.625 38.375 11.742188 M 38.375 12.703125 C 38.253906 13.179688 38.375 13.300781 38.855469 13.300781 C 38.855469 12.703125 38.734375 12.820312 38.375 12.703125 M 38.375 13.539062 C 37.894531 14.976562 39.574219 13.300781 38.375 13.539062 M 38.375 14.496094 C 38.253906 14.976562 38.496094 15.335938 38.855469 15.574219 C 38.855469 15.097656 39.09375 14.136719 38.375 14.496094 M 38.015625 14.378906 C 37.777344 14.257812 37.65625 14.136719 37.535156 14.617188 C 37.65625 14.738281 37.894531 14.855469 38.015625 14.976562 C 38.015625 14.738281 38.015625 14.617188 38.015625 14.378906 M 37.535156 14.019531 C 37.296875 13.777344 37.175781 13.660156 36.816406 14.136719 C 36.9375 14.257812 37.175781 14.378906 37.296875 14.496094 C 37.414062 14.257812 37.414062 14.136719 37.535156 14.019531 M 36.9375 13.660156 C 36.695312 13.300781 36.335938 13.300781 35.976562 13.539062 C 36.335938 13.898438 36.695312 14.019531 36.9375 13.660156 M 31.660156 17.011719 C 31.539062 17.132812 31.300781 17.25 31.179688 17.371094 C 31.179688 17.371094 31.300781 17.492188 31.300781 17.492188 C 31.660156 17.371094 31.539062 17.132812 31.660156 17.011719 M 31.539062 17.609375 C 31.78125 17.851562 31.898438 17.730469 32.257812 17.371094 C 32.140625 17.25 32.140625 17.25 32.019531 17.132812 C 31.78125 17.371094 31.660156 17.492188 31.539062 17.609375 M 31.898438 18.089844 C 32.140625 18.449219 32.5 18.449219 32.738281 18.089844 C 32.5 17.730469 32.257812 17.730469 31.898438 18.089844 M 32.5 18.6875 C 33.457031 20.003906 33.457031 17.492188 32.5 18.6875 M 33.339844 19.167969 C 33.21875 19.644531 33.699219 19.765625 34.179688 19.644531 C 33.9375 19.167969 33.699219 18.808594 33.339844 19.167969 M 32.980469 19.167969 C 32.019531 19.167969 32.859375 20.125 32.980469 19.167969 M 32.257812 19.167969 C 30.699219 18.808594 32.5 20.484375 32.257812 19.167969 M 31.300781 19.167969 C 29.382812 18.6875 31.539062 20.484375 31.300781 19.167969 M 30.21875 19.167969 C 28.300781 18.6875 30.460938 20.484375 30.21875 19.167969 M 29.140625 19.167969 C 27.582031 18.808594 29.261719 20.484375 29.140625 19.167969 M 28.421875 19.046875 C 28.660156 18.929688 28.902344 18.6875 29.019531 18.570312 C 28.542969 17.96875 27.820312 18.449219 28.421875 19.046875 M 29.261719 18.449219 C 29.382812 18.328125 29.5 18.210938 29.742188 18.089844 C 29.5 17.609375 29.140625 17.609375 28.78125 17.851562 C 28.902344 18.089844 29.140625 18.328125 29.261719 18.449219 M 29.980469 17.851562 C 30.101562 17.730469 30.101562 17.730469 30.21875 17.609375 C 29.980469 17.25 29.742188 17.011719 29.5 17.25 C 29.621094 17.609375 29.742188 17.851562 29.980469 17.851562 M 30.460938 17.492188 C 30.582031 17.492188 30.582031 17.371094 30.699219 17.25 C 30.460938 16.890625 30.339844 16.773438 29.980469 16.890625 C 30.101562 17.132812 30.21875 17.371094 30.460938 17.492188 M 27.820312 18.808594 C 27.582031 19.046875 27.222656 19.40625 26.984375 19.644531 C 27.703125 19.644531 28.660156 19.644531 27.820312 18.808594 M 27.101562 11.503906 C 26.742188 11.742188 26.863281 11.984375 27.222656 12.34375 C 27.582031 12.101562 27.460938 11.863281 27.101562 11.503906 M 26.621094 12.101562 C 26.503906 12.222656 26.382812 12.222656 26.261719 12.34375 C 26.382812 12.460938 26.621094 12.703125 26.863281 12.820312 C 26.863281 12.820312 26.984375 12.703125 26.984375 12.703125 C 26.863281 12.460938 26.742188 12.222656 26.621094 12.101562 M 27.820312 11.863281 C 27.941406 11.742188 28.0625 11.625 28.300781 11.503906 C 27.941406 10.664062 27.101562 11.265625 27.820312 11.863281 M 28.542969 11.265625 C 29.019531 11.023438 28.902344 10.664062 28.542969 10.425781 C 28.0625 10.664062 28.0625 11.023438 28.542969 11.265625 M 29.140625 10.785156 C 29.382812 10.664062 29.5 10.425781 29.859375 10.1875 C 29.261719 9.707031 28.300781 10.1875 29.140625 10.785156 M 26.023438 12.460938 C 25.902344 12.582031 25.664062 12.820312 25.542969 12.941406 C 25.902344 13.417969 26.261719 13.417969 26.621094 12.941406 C 26.382812 12.820312 26.261719 12.582031 26.023438 12.460938 M 26.382812 13.539062 C 26.742188 13.898438 27.101562 13.898438 27.34375 13.417969 C 26.984375 13.0625 26.621094 13.0625 26.382812 13.539062 M 27.101562 14.019531 C 27.460938 14.496094 27.820312 14.496094 28.0625 13.898438 C 27.703125 13.539062 27.34375 13.539062 27.101562 14.019531 M 27.820312 14.617188 C 28.183594 15.097656 28.542969 15.214844 28.902344 14.617188 C 28.542969 14.136719 28.0625 14.019531 27.820312 14.617188 M 28.660156 15.335938 C 28.902344 15.695312 29.140625 15.574219 29.382812 15.097656 C 29.382812 14.976562 29.140625 14.855469 29.019531 14.738281 C 29.019531 14.976562 28.78125 15.097656 28.660156 15.335938 M 29.261719 15.695312 C 30.101562 16.773438 29.980469 14.378906 29.261719 15.695312 M 29.859375 16.175781 C 30.101562 16.53125 30.460938 16.414062 30.699219 16.054688 C 30.582031 15.933594 30.460938 15.816406 30.339844 15.695312 C 30.101562 15.933594 29.980469 16.054688 29.859375 16.175781 M 30.460938 16.652344 C 30.699219 17.132812 31.179688 17.25 31.417969 16.773438 C 31.058594 16.292969 30.699219 16.292969 30.460938 16.652344 M 31.660156 16.652344 C 31.898438 16.414062 32.257812 16.292969 32.5 16.054688 C 32.019531 15.335938 31.660156 15.816406 31.179688 16.175781 C 31.300781 16.292969 31.417969 16.53125 31.660156 16.652344 M 32.617188 15.816406 C 32.859375 15.695312 32.980469 15.574219 33.21875 15.335938 C 32.980469 14.738281 32.5 14.855469 32.140625 15.214844 C 32.378906 15.457031 32.5 15.695312 32.617188 15.816406 M 33.578125 15.214844 C 33.699219 15.097656 33.9375 14.976562 34.058594 14.855469 C 33.816406 14.378906 33.457031 14.257812 33.097656 14.738281 C 33.21875 14.855469 33.339844 15.097656 33.578125 15.214844 M 34.296875 14.496094 C 34.417969 14.378906 34.539062 14.378906 34.65625 14.257812 C 34.417969 13.898438 34.179688 13.660156 33.816406 14.019531 C 33.9375 14.257812 34.179688 14.496094 34.296875 14.496094 M 34.898438 14.019531 C 35.136719 13.898438 35.378906 13.777344 35.496094 13.539062 C 35.136719 13.179688 34.65625 13.0625 34.417969 13.539062 C 34.65625 13.777344 34.777344 14.019531 34.898438 14.019531 M 35.855469 13.417969 C 35.976562 13.300781 36.097656 13.179688 36.214844 13.0625 C 35.976562 12.703125 35.617188 12.582031 35.257812 12.941406 C 35.378906 13.179688 35.617188 13.300781 35.855469 13.417969 M 35.378906 12.582031 C 35.136719 12.222656 34.777344 12.222656 34.417969 12.582031 C 34.777344 12.941406 35.136719 12.941406 35.378906 12.582031 M 34.65625 12.101562 C 34.296875 11.863281 34.058594 11.863281 33.816406 12.222656 C 34.179688 12.460938 34.296875 12.34375 34.65625 12.101562 M 33.9375 11.625 C 33.578125 11.382812 33.339844 11.382812 33.097656 11.742188 C 33.457031 12.101562 33.699219 12.101562 33.9375 11.625 M 33.339844 11.265625 C 32.980469 11.023438 32.738281 11.023438 32.378906 11.382812 C 32.738281 11.625 32.980469 11.625 33.339844 11.265625 M 32.5 10.785156 C 32.140625 10.425781 31.660156 10.308594 31.417969 10.90625 C 31.78125 11.265625 32.257812 11.382812 32.5 10.785156 M 31.660156 10.308594 C 31.300781 9.949219 31.058594 10.066406 30.820312 10.546875 C 31.179688 10.785156 31.417969 10.785156 31.660156 10.308594 M 31.058594 9.949219 C 30.699219 9.707031 30.460938 9.828125 30.21875 10.1875 C 30.582031 10.425781 30.820312 10.308594 31.058594 9.949219 M 30.582031 9.707031 C 30.21875 9.347656 29.742188 9.347656 29.5 9.828125 C 29.859375 10.066406 30.21875 10.066406 30.582031 9.707031 M 29.859375 8.988281 C 30.21875 8.75 30.460938 8.628906 30.820312 8.269531 C 30.21875 8.390625 29.5 8.390625 28.902344 8.390625 C 29.261719 8.628906 29.621094 8.871094 29.859375 8.988281 M 36.695312 13.0625 C 37.175781 13.417969 37.65625 13.660156 38.015625 14.019531 C 38.015625 13.417969 38.015625 12.703125 38.015625 12.101562 C 37.535156 12.460938 37.175781 12.703125 36.695312 13.0625 M 30.941406 17.492188 C 30.339844 17.96875 29.742188 18.328125 29.140625 18.808594 C 30.21875 18.808594 31.300781 18.808594 32.378906 18.808594 C 31.898438 18.449219 31.417969 17.96875 30.941406 17.492188 M 58.402344 43.953125 C 60.800781 44.3125 60.679688 48.863281 58.164062 48.742188 C 55.882812 48.621094 56.003906 43.953125 58.402344 43.953125 M 58.28125 44.3125 C 56.363281 43.953125 56.242188 48.382812 58.164062 48.503906 C 60.320312 48.621094 60.441406 44.671875 58.28125 44.3125 M 55.882812 50.058594 C 56.84375 50.058594 56.964844 51.734375 56.003906 51.734375 C 54.925781 51.855469 54.804688 50.179688 55.882812 50.058594 M 2.757812 42.996094 C 5.15625 42.398438 5.757812 47.90625 2.757812 47.90625 C 0.238281 47.90625 0.238281 42.996094 2.757812 42.996094 M 2.878906 43.234375 C 0.960938 43.234375 0.601562 46.585938 2.039062 47.425781 C 4.4375 48.742188 5.636719 43.59375 2.878906 43.234375 M 5.515625 49.222656 C 6.597656 49.339844 6.234375 51.136719 5.15625 50.660156 C 4.316406 50.300781 4.558594 49.222656 5.515625 49.222656 M 27.460938 65.265625 C 28.0625 64.1875 29.261719 63.949219 30.339844 64.667969 C 30.941406 65.148438 31.539062 64.308594 32.257812 64.308594 C 33.097656 64.308594 33.816406 64.667969 34.296875 65.386719 C 34.058594 64.667969 33.699219 63.113281 32.859375 62.992188 C 31.898438 62.753906 31.058594 64.1875 30.699219 64.90625 C 30.339844 64.1875 29.742188 62.753906 28.78125 62.753906 C 27.703125 62.511719 27.582031 64.429688 27.460938 65.265625 M 28.902344 64.429688 C 28.300781 64.667969 27.941406 65.265625 27.582031 65.746094 C 28.902344 66.703125 33.699219 67.542969 34.539062 65.625 C 33.578125 65.625 33.097656 64.070312 31.78125 64.667969 C 31.417969 64.90625 30.941406 65.265625 30.582031 65.027344 C 29.980469 64.667969 29.5 64.429688 28.902344 64.429688 M 11.03125 55.207031 C 12.351562 57.363281 13.910156 59.640625 16.429688 60.476562 C 16.550781 59.28125 16.667969 58.082031 16.789062 56.886719 C 16.910156 57.960938 16.910156 59.039062 17.027344 60 C 17.148438 60.957031 17.75 60.835938 18.707031 60.957031 C 18.828125 60 18.949219 58.921875 19.066406 57.960938 C 19.1875 58.5625 19.1875 59.28125 19.308594 59.878906 C 19.425781 60.835938 19.1875 60.835938 20.027344 61.074219 C 20.867188 61.195312 22.066406 60.597656 22.90625 60.355469 C 25.0625 59.519531 26.984375 57.960938 28.660156 56.40625 C 29.382812 57.246094 28.902344 60 28.902344 61.195312 C 28.902344 62.152344 28.660156 62.152344 29.382812 62.394531 C 29.980469 62.632812 30.460938 63.230469 30.820312 63.828125 C 30.699219 59.160156 30.582031 54.609375 30.460938 49.941406 C 30.339844 47.1875 30.339844 44.550781 30.21875 41.796875 C 30.21875 40 29.980469 39.761719 28.660156 38.324219 C 26.144531 35.691406 22.425781 32.9375 18.589844 32.699219 C 14.269531 32.339844 11.152344 35.09375 9.59375 38.925781 C 8.875 40.839844 8.515625 42.875 8.273438 45.03125 C 7.554688 44.910156 8.875 40.242188 9.113281 39.523438 C 9.59375 37.726562 10.433594 35.929688 11.871094 34.734375 C 15.109375 31.859375 19.066406 31.859375 22.90625 33.65625 C 24.703125 34.492188 26.382812 35.691406 27.820312 37.007812 C 28.542969 37.605469 29.140625 38.324219 29.859375 39.042969 C 30.339844 39.644531 30.21875 39.644531 30.820312 39.164062 C 31.300781 38.804688 31.78125 38.445312 32.257812 37.964844 C 35.015625 35.691406 38.734375 33.296875 42.453125 32.9375 C 46.890625 32.578125 49.769531 35.332031 51.445312 39.285156 C 51.804688 40.121094 52.167969 41.078125 52.40625 42.039062 C 52.527344 42.515625 52.644531 42.996094 52.765625 43.59375 C 52.886719 44.074219 52.285156 42.996094 52.167969 42.753906 C 51.566406 40.960938 51.085938 39.164062 50.128906 37.605469 C 47.730469 34.132812 44.609375 32.578125 40.535156 33.777344 C 36.816406 34.851562 33.457031 37.367188 30.582031 39.882812 C 30.101562 40.242188 30.582031 42.996094 30.582031 43.472656 C 30.699219 46.226562 30.699219 48.980469 30.820312 51.734375 C 30.941406 55.808594 31.058594 59.878906 31.179688 63.949219 C 31.660156 63.113281 32.617188 62.152344 33.578125 62.871094 C 33.457031 61.675781 33.339844 60.355469 33.097656 59.160156 C 32.980469 58.441406 32.140625 56.527344 32.5 56.046875 C 34.539062 57.84375 36.695312 59.519531 39.335938 60.476562 C 40.414062 60.835938 41.375 61.195312 42.574219 61.195312 C 43.410156 61.195312 43.292969 58.082031 43.292969 57.246094 C 43.410156 58.5625 43.53125 59.878906 43.652344 61.195312 C 44.371094 61.074219 45.210938 61.074219 45.210938 60.355469 C 45.332031 59.398438 45.332031 58.441406 45.449219 57.363281 C 45.570312 58.441406 45.691406 59.398438 45.808594 60.476562 C 52.40625 56.167969 54.324219 46.707031 52.40625 39.402344 C 51.445312 35.691406 49.648438 32.097656 45.808594 30.664062 C 42.332031 29.34375 38.253906 30.664062 35.136719 32.457031 C 33.457031 33.417969 31.898438 34.492188 30.460938 35.691406 C 28.421875 32.9375 23.863281 30.0625 20.507812 29.585938 C 16.550781 28.984375 12.230469 31.261719 9.832031 34.375 C 7.316406 37.488281 7.074219 41.558594 7.554688 45.390625 C 8.035156 49.222656 8.875 53.652344 10.792969 57.003906 C 12.230469 59.519531 13.910156 62.035156 14.75 64.789062 C 15.710938 67.78125 15.46875 70.296875 14.511719 73.289062 C 16.667969 71.613281 18.949219 70.535156 21.707031 70.414062 C 24.464844 70.175781 27.101562 70.894531 29.742188 70.65625 C 35.378906 70.296875 41.972656 70.054688 47.007812 73.167969 C 45.808594 69.335938 45.929688 65.625 47.847656 62.035156 C 48.929688 60.117188 50.007812 58.320312 50.96875 56.285156 C 51.804688 54.488281 52.046875 52.695312 52.527344 50.777344 C 51.207031 54.96875 49.40625 59.519531 44.972656 61.195312 C 40.414062 62.992188 36.214844 60 32.859375 57.246094 C 33.21875 58.921875 34.058594 61.433594 33.699219 62.992188 C 34.058594 63.351562 34.296875 63.949219 34.539062 64.429688 C 34.898438 65.507812 35.015625 65.746094 33.9375 66.34375 C 32.257812 67.0625 30.101562 67.183594 28.421875 66.464844 C 26.863281 65.746094 27.101562 64.1875 27.941406 62.871094 C 28.0625 62.632812 28.542969 62.511719 28.542969 62.273438 C 28.542969 61.675781 28.542969 61.195312 28.542969 60.597656 C 28.542969 59.519531 28.542969 58.320312 28.542969 57.246094 C 26.023438 59.640625 22.785156 61.914062 19.066406 61.675781 C 15.589844 61.316406 11.753906 58.679688 11.03125 55.207031 M 31.539062 46.46875 C 34.058594 50.058594 37.296875 51.734375 41.734375 51.734375 C 43.652344 51.734375 45.808594 51.136719 47.488281 50.058594 C 48.449219 49.460938 51.925781 47.066406 51.207031 45.75 C 47.25 38.925781 36.097656 38.804688 31.898438 45.628906 C 31.78125 45.867188 31.660156 46.226562 31.539062 46.46875 M 35.496094 50.660156 C 34.296875 49.941406 31.300781 48.023438 31.300781 46.46875 C 31.300781 45.152344 33.578125 43.355469 34.539062 42.636719 C 37.65625 40.359375 41.851562 39.882812 45.570312 40.960938 C 47.371094 41.558594 49.046875 42.515625 50.246094 43.953125 C 50.726562 44.433594 51.6875 45.511719 51.804688 46.109375 C 51.804688 46.707031 50.847656 47.785156 50.367188 48.265625 C 47.609375 51.019531 43.171875 52.8125 39.09375 51.855469 C 37.777344 51.617188 36.578125 51.257812 35.496094 50.660156 M 9.472656 46.109375 C 12.351562 49.222656 15.828125 51.136719 20.148438 51.136719 C 22.304688 51.136719 30.460938 48.980469 28.78125 45.867188 C 24.945312 38.804688 14.269531 38.324219 10.074219 45.152344 C 9.832031 45.390625 9.714844 45.75 9.472656 46.109375 M 13.429688 49.699219 C 12.832031 49.339844 8.753906 46.828125 9.113281 46.109375 C 9.953125 44.433594 11.152344 42.636719 12.832031 41.558594 C 15.949219 39.523438 19.90625 39.402344 23.386719 40.71875 C 25.421875 41.4375 27.101562 42.875 28.300781 44.550781 C 28.660156 45.03125 29.5 46.109375 29.5 46.585938 C 29.5 47.1875 28.0625 48.503906 27.582031 48.742188 C 24.34375 51.136719 20.265625 51.855469 16.308594 50.777344 C 15.351562 50.660156 14.390625 50.179688 13.429688 49.699219 M 10.792969 45.75 C 15.46875 48.023438 21.707031 46.828125 26.621094 45.988281 C 21.347656 45.390625 16.070312 45.75 10.792969 45.75 M 34.777344 46.46875 C 39.335938 47.425781 43.890625 47.066406 48.570312 46.46875 C 44.609375 44.433594 38.855469 45.75 34.777344 46.46875 M 31.417969 74.246094 C 30.820312 74.246094 30.21875 74.246094 29.621094 74.128906 C 29.742188 73.410156 29.859375 72.570312 29.859375 71.851562 C 29.980469 70.894531 29.742188 70.773438 30.699219 70.773438 C 30.941406 70.773438 31.417969 73.648438 31.417969 74.246094 M 38.253906 77.839844 C 38.855469 77.121094 39.335938 76.28125 39.933594 75.5625 C 40.414062 76.042969 41.011719 76.402344 41.492188 76.882812 C 40.414062 77.121094 39.335938 77.480469 38.253906 77.839844 M 34.417969 74.605469 C 35.015625 75.203125 35.617188 75.921875 36.214844 76.523438 C 36.695312 75.804688 37.296875 75.203125 37.777344 74.488281 C 36.578125 74.488281 35.496094 74.605469 34.417969 74.605469 M 35.015625 78.316406 C 35.257812 77.957031 35.976562 76.761719 36.335938 76.761719 C 36.578125 76.761719 37.535156 77.71875 37.777344 77.957031 C 36.9375 78.078125 35.976562 78.199219 35.015625 78.316406 M 30.699219 74.605469 C 31.300781 75.203125 31.898438 75.921875 32.5 76.523438 C 32.980469 75.921875 33.457031 75.203125 33.9375 74.605469 C 32.859375 74.605469 31.78125 74.605469 30.699219 74.605469 M 30.21875 78.4375 C 30.582031 78.078125 31.539062 76.882812 31.898438 76.761719 C 32.257812 76.761719 33.578125 78.078125 33.816406 78.4375 C 32.738281 78.4375 31.539062 78.4375 30.21875 78.4375 M 25.664062 74.367188 C 26.261719 75.085938 26.863281 75.804688 27.460938 76.402344 C 27.941406 75.804688 28.542969 75.085938 29.019531 74.488281 C 27.941406 74.488281 26.742188 74.488281 25.664062 74.367188 M 26.503906 78.316406 C 26.742188 77.839844 27.101562 77.359375 27.34375 76.761719 C 28.0625 77.359375 28.660156 77.839844 29.382812 78.4375 C 28.421875 78.4375 27.460938 78.316406 26.503906 78.316406 M 21.945312 74.246094 C 22.546875 74.726562 23.144531 75.324219 23.625 75.804688 C 24.105469 75.324219 24.585938 74.847656 24.945312 74.367188 C 23.984375 74.246094 22.90625 74.246094 21.945312 74.246094 M 23.863281 76.28125 C 24.34375 76.882812 24.945312 77.601562 25.421875 78.199219 C 24.585938 78.078125 23.625 77.839844 22.785156 77.71875 C 23.144531 77.242188 23.503906 76.761719 23.863281 76.28125 M 19.90625 76.882812 C 20.386719 76.523438 20.867188 76.164062 21.347656 75.804688 C 21.707031 76.402344 21.945312 77 22.304688 77.601562 C 21.585938 77.359375 20.746094 77.121094 19.90625 76.882812 M 8.632812 52.214844 C 4.199219 53.054688 0.601562 51.136719 0 46.347656 C -0.359375 42.753906 1.558594 37.246094 6.117188 38.683594 C 5.035156 23.957031 10.433594 1.445312 28.542969 0.128906 C 36.816406 -0.46875 45.691406 3.121094 49.769531 10.785156 C 53.726562 18.328125 54.925781 26.710938 54.925781 35.09375 C 54.925781 37.007812 54.925781 38.804688 54.804688 40.71875 C 58.761719 40.601562 62.71875 43.234375 62 47.546875 C 61.28125 52.335938 56.601562 53.652344 52.40625 53.171875 C 53.125 49.101562 53.726562 44.910156 52.886719 40.839844 C 52.167969 37.488281 50.96875 33.296875 47.730469 31.378906 C 44.132812 29.34375 40.414062 29.703125 36.816406 31.378906 C 35.015625 32.21875 33.21875 33.296875 31.660156 34.492188 C 30.339844 35.570312 30.460938 35.210938 29.140625 34.132812 C 28.300781 33.417969 27.460938 32.816406 26.621094 32.21875 C 21.347656 28.148438 14.152344 28.625 9.832031 34.015625 C 5.636719 39.164062 7.074219 46.226562 8.632812 52.214844 M 13.671875 76.523438 C 12.953125 76.523438 7.433594 76.042969 7.433594 76.402344 C 7.074219 78.199219 6.476562 80.59375 7.074219 82.390625 C 8.15625 85.863281 10.792969 88.976562 13.429688 91.371094 C 18.828125 96.160156 27.820312 97.835938 34.898438 97.117188 C 43.171875 96.160156 50.605469 91.609375 53.125 83.46875 C 53.367188 82.75 53.84375 78.078125 53.125 78.078125 C 51.804688 78.078125 50.488281 78.078125 49.167969 77.957031 C 48.089844 77.957031 47.128906 77.71875 46.289062 78.4375 C 43.292969 81.070312 39.933594 83.109375 36.097656 84.066406 C 27.941406 86.101562 18.46875 83.707031 13.671875 76.523438 M 6.957031 82.867188 C 9.113281 99.511719 34.65625 104.898438 46.53125 95.320312 C 49.886719 92.566406 52.167969 88.855469 52.886719 84.664062 C 50.726562 92.449219 42.332031 96.398438 34.898438 97.238281 C 27.703125 98.074219 19.1875 96.398438 13.429688 91.847656 C 10.671875 89.453125 8.273438 86.339844 6.957031 82.867188 "/>
</g>
</svg>
