<?xml version="1.0" encoding="UTF-8"?>
<svg xmlns="http://www.w3.org/2000/svg" xmlns:xlink="http://www.w3.org/1999/xlink" width="98px" height="99px" viewBox="0 0 98 99" version="1.1">
<g id="surface1">
<path style=" stroke:none;fill-rule:nonzero;fill:rgb(0%,0%,0%);fill-opacity:1;" d="M 49 0.535156 C -22.371094 4.167969 5.324219 68.496094 5.324219 68.496094 C 9.738281 65.46875 15.21875 63.652344 21 62.59375 C 21 63.046875 21.152344 63.347656 21.152344 63.804688 C 21.152344 63.953125 21.304688 64.257812 21.304688 64.410156 C 21.457031 65.015625 21.609375 65.621094 21.761719 66.226562 C 21.761719 66.226562 21.761719 66.375 21.761719 66.375 C 21.914062 66.679688 21.914062 66.980469 22.066406 67.285156 L 45.042969 67.285156 C 45.195312 65.46875 45.5 63.804688 45.804688 62.441406 C 46.566406 59.414062 47.324219 57.75 47.933594 56.691406 C 48.238281 56.234375 49.609375 56.234375 49.914062 56.691406 C 50.523438 57.597656 51.433594 59.261719 52.042969 62.441406 C 52.347656 63.804688 52.652344 65.316406 52.804688 67.285156 L 75.78125 67.285156 C 75.933594 66.980469 75.933594 66.679688 76.085938 66.375 C 76.085938 66.375 76.085938 66.226562 76.085938 66.226562 C 76.238281 65.621094 76.390625 65.015625 76.542969 64.410156 C 76.542969 64.257812 76.695312 63.953125 76.695312 63.804688 C 76.847656 63.347656 76.847656 63.046875 76.847656 62.59375 C 82.476562 63.652344 88.109375 65.621094 92.523438 68.496094 C 92.675781 68.496094 120.371094 4.167969 49 0.535156 Z M 92.675781 35.195312 C 93.433594 35.347656 94.042969 35.953125 93.890625 36.710938 C 93.738281 37.464844 92.976562 37.921875 92.21875 37.769531 C 91.457031 37.617188 90.847656 37.011719 91 36.253906 C 91.152344 35.5 91.761719 35.195312 92.675781 35.195312 Z M 90.542969 46.851562 C 89.933594 46.546875 89.628906 45.792969 89.933594 45.1875 C 90.238281 44.429688 91 44.125 91.609375 44.429688 C 92.371094 44.730469 92.523438 45.488281 92.21875 46.09375 C 91.914062 46.851562 91.304688 47.152344 90.542969 46.851562 Z M 90.695312 53.207031 C 90.390625 53.8125 89.628906 54.269531 89.023438 53.964844 C 88.414062 53.664062 87.957031 53.058594 88.109375 52.300781 C 88.261719 51.542969 89.175781 51.242188 89.933594 51.542969 C 90.542969 51.695312 91 52.453125 90.695312 53.207031 Z M 90.238281 26.871094 C 91 27.023438 91.609375 27.628906 91.457031 28.386719 C 91.304688 29.140625 90.695312 29.597656 89.933594 29.445312 C 89.175781 29.292969 88.566406 28.6875 88.71875 27.929688 C 88.71875 27.324219 89.476562 26.71875 90.238281 26.871094 Z M 88.71875 34.742188 C 89.476562 34.894531 90.085938 35.5 89.933594 36.253906 C 89.78125 37.011719 89.175781 37.464844 88.414062 37.464844 C 87.652344 37.316406 87.042969 36.710938 87.195312 35.953125 C 87.195312 35.195312 87.957031 34.742188 88.71875 34.742188 Z M 86.28125 26.570312 C 87.042969 26.570312 87.652344 27.324219 87.652344 27.929688 C 87.652344 28.6875 86.890625 29.140625 86.128906 29.140625 C 85.371094 29.140625 84.761719 28.535156 84.761719 27.78125 C 84.914062 27.023438 85.523438 26.417969 86.28125 26.570312 Z M 86.128906 35.953125 C 86.128906 36.710938 85.371094 37.316406 84.609375 37.164062 C 83.847656 37.164062 83.238281 36.558594 83.238281 35.800781 C 83.238281 35.046875 83.847656 34.441406 84.761719 34.441406 C 85.675781 34.589844 86.28125 35.195312 86.128906 35.953125 Z M 83.847656 27.78125 C 83.847656 28.535156 83.238281 29.140625 82.476562 29.140625 C 81.71875 29.140625 81.109375 28.535156 81.109375 27.78125 C 81.109375 27.023438 81.71875 26.417969 82.476562 26.417969 C 83.238281 26.417969 83.847656 27.023438 83.847656 27.78125 Z M 81.109375 42.160156 C 81.871094 42.160156 82.324219 42.765625 82.324219 43.519531 C 82.324219 44.277344 81.71875 44.882812 80.957031 44.730469 C 80.347656 44.730469 79.738281 44.125 79.738281 43.371094 C 79.890625 42.765625 80.5 42.160156 81.109375 42.160156 Z M 79.585938 35.953125 C 79.585938 35.195312 80.195312 34.589844 80.957031 34.589844 C 81.71875 34.589844 82.476562 35.195312 82.476562 35.800781 C 82.476562 36.558594 81.871094 37.164062 81.109375 37.164062 C 80.195312 37.164062 79.585938 36.710938 79.585938 35.953125 Z M 80.957031 16.277344 C 81.71875 16.125 82.476562 16.425781 82.628906 17.183594 C 82.78125 17.941406 82.324219 18.546875 81.71875 18.847656 C 80.957031 19 80.195312 18.699219 80.042969 17.941406 C 79.890625 17.335938 80.347656 16.578125 80.957031 16.277344 Z M 80.042969 27.78125 C 80.042969 28.535156 79.433594 29.140625 78.824219 29.140625 C 78.066406 29.140625 77.457031 28.6875 77.304688 27.929688 C 77.152344 27.175781 77.761719 26.570312 78.523438 26.417969 C 79.433594 26.570312 80.042969 27.023438 80.042969 27.78125 Z M 57.21875 26.113281 C 56.761719 26.71875 56.152344 26.871094 55.390625 26.570312 C 54.78125 26.265625 54.476562 25.359375 54.933594 24.753906 C 55.390625 24.148438 56.152344 23.996094 56.761719 24.449219 C 57.371094 24.753906 57.523438 25.507812 57.21875 26.113281 Z M 57.066406 21.726562 C 57.523438 21.121094 58.433594 21.121094 58.890625 21.574219 C 59.347656 22.027344 59.5 22.9375 59.042969 23.390625 C 58.585938 23.84375 57.824219 23.996094 57.21875 23.542969 C 56.761719 23.085938 56.609375 22.332031 57.066406 21.726562 Z M 61.023438 26.570312 C 61.628906 25.964844 62.542969 25.964844 63 26.570312 C 63.457031 27.175781 63.457031 27.929688 63 28.386719 C 62.542969 28.839844 61.628906 28.839844 61.175781 28.386719 C 60.566406 27.929688 60.566406 27.175781 61.023438 26.570312 Z M 64.066406 23.996094 C 64.675781 23.542969 65.585938 23.691406 65.890625 24.296875 C 66.347656 24.902344 66.195312 25.8125 65.585938 26.113281 C 64.976562 26.570312 64.21875 26.417969 63.761719 25.8125 C 63.304688 25.359375 63.304688 24.449219 64.066406 23.996094 Z M 67.261719 29.597656 C 68.023438 29.140625 68.78125 29.445312 69.085938 30.203125 C 69.390625 30.808594 69.085938 31.5625 68.476562 32.019531 C 67.871094 32.320312 67.109375 32.167969 66.652344 31.5625 C 66.195312 30.808594 66.5 29.898438 67.261719 29.597656 Z M 75.78125 36.40625 C 75.628906 35.652344 76.085938 35.046875 77 34.894531 C 77.761719 34.742188 78.523438 35.347656 78.675781 35.953125 C 78.675781 36.710938 78.21875 37.316406 77.457031 37.464844 C 76.695312 37.617188 75.933594 37.164062 75.78125 36.40625 Z M 73.804688 38.375 C 73.195312 38.527344 72.433594 38.222656 72.128906 37.617188 C 71.824219 37.011719 72.28125 36.105469 73.042969 35.800781 C 73.804688 35.5 74.71875 35.953125 74.871094 36.710938 C 75.023438 37.464844 74.566406 38.070312 73.804688 38.375 Z M 71.675781 30.503906 C 70.914062 30.65625 70.152344 30.351562 70 29.746094 C 69.695312 29.140625 70.152344 28.234375 70.914062 28.082031 C 71.675781 27.78125 72.433594 28.234375 72.585938 28.992188 C 72.890625 29.597656 72.433594 30.351562 71.675781 30.503906 Z M 76.390625 43.671875 C 76.238281 42.914062 76.847656 42.308594 77.609375 42.160156 C 78.371094 42.160156 78.976562 42.613281 78.976562 43.371094 C 78.976562 44.125 78.523438 44.730469 77.761719 44.730469 C 77.152344 44.882812 76.542969 44.429688 76.390625 43.671875 Z M 77.457031 17.488281 C 78.21875 17.183594 78.976562 17.636719 79.128906 18.242188 C 79.28125 19 78.976562 19.757812 78.21875 19.910156 C 77.457031 20.210938 76.695312 19.757812 76.542969 19.152344 C 76.390625 18.394531 76.695312 17.636719 77.457031 17.488281 Z M 75.175781 29.746094 C 74.414062 29.898438 73.804688 29.445312 73.5 28.6875 C 73.347656 27.929688 73.804688 27.324219 74.566406 27.175781 C 75.324219 27.023438 76.085938 27.476562 76.238281 28.234375 C 76.390625 28.839844 75.933594 29.597656 75.175781 29.746094 Z M 75.78125 19.453125 C 76.085938 20.210938 75.628906 20.816406 75.023438 21.121094 C 74.414062 21.421875 73.5 21.121094 73.195312 20.363281 C 72.890625 19.757812 73.195312 18.847656 73.957031 18.546875 C 74.71875 18.394531 75.476562 18.847656 75.78125 19.453125 Z M 71.976562 11.734375 C 72.738281 11.433594 73.5 11.886719 73.652344 12.492188 C 73.957031 13.25 73.5 13.855469 72.890625 14.15625 C 72.28125 14.460938 71.523438 14.003906 71.21875 13.398438 C 70.914062 12.792969 71.21875 12.039062 71.976562 11.734375 Z M 72.28125 20.816406 C 72.585938 21.421875 72.28125 22.332031 71.675781 22.632812 C 71.066406 22.9375 70.152344 22.632812 69.847656 22.027344 C 69.542969 21.421875 69.847656 20.515625 70.457031 20.210938 C 71.21875 19.910156 71.976562 20.210938 72.28125 20.816406 Z M 68.628906 13.097656 C 69.238281 12.792969 70.152344 13.097656 70.457031 13.703125 C 70.761719 14.308594 70.457031 15.066406 69.847656 15.519531 C 69.238281 15.820312 68.476562 15.519531 68.175781 14.914062 C 67.71875 14.308594 68.023438 13.398438 68.628906 13.097656 Z M 69.085938 22.480469 C 69.390625 23.085938 69.238281 23.84375 68.628906 24.296875 C 68.023438 24.601562 67.261719 24.449219 66.804688 23.84375 C 66.347656 23.238281 66.652344 22.332031 67.261719 22.027344 C 67.871094 21.574219 68.78125 21.875 69.085938 22.480469 Z M 65.433594 14.914062 C 66.042969 14.460938 66.957031 14.761719 67.261719 15.367188 C 67.566406 15.972656 67.414062 16.730469 66.804688 17.183594 C 66.195312 17.488281 65.433594 17.335938 64.976562 16.730469 C 64.675781 16.125 64.824219 15.214844 65.433594 14.914062 Z M 62.390625 16.882812 C 63 16.425781 63.761719 16.578125 64.21875 17.183594 C 64.675781 17.789062 64.523438 18.546875 63.914062 19 C 63.304688 19.453125 62.542969 19.304688 62.085938 18.699219 C 61.78125 18.09375 61.78125 17.183594 62.390625 16.882812 Z M 61.476562 19.304688 C 61.933594 19.910156 61.933594 20.664062 61.324219 21.121094 C 60.871094 21.574219 59.957031 21.574219 59.5 20.96875 C 59.042969 20.515625 59.042969 19.605469 59.5 19.152344 C 60.261719 18.546875 61.023438 18.699219 61.476562 19.304688 Z M 57.675781 7.042969 C 58.128906 6.4375 59.042969 6.4375 59.5 6.890625 C 59.957031 7.347656 60.109375 8.253906 59.652344 8.707031 C 59.195312 9.164062 58.433594 9.3125 57.824219 8.859375 C 57.21875 8.558594 57.21875 7.648438 57.675781 7.042969 Z M 55.542969 10.070312 C 56 9.464844 56.761719 9.3125 57.371094 9.617188 C 57.976562 10.070312 58.128906 10.828125 57.824219 11.433594 C 57.523438 12.039062 56.609375 12.1875 56 11.886719 C 55.238281 11.582031 55.085938 10.828125 55.542969 10.070312 Z M 53.71875 13.398438 C 54.023438 12.644531 54.933594 12.492188 55.542969 12.792969 C 56.152344 13.097656 56.457031 13.855469 56.152344 14.460938 C 55.847656 15.066406 55.085938 15.367188 54.476562 15.066406 C 53.71875 14.914062 53.414062 14.15625 53.71875 13.398438 Z M 52.347656 16.882812 C 52.652344 16.125 53.414062 15.820312 54.023438 15.972656 C 54.78125 16.277344 55.085938 17.03125 54.78125 17.636719 C 54.78125 18.242188 54.023438 18.699219 53.261719 18.546875 C 52.652344 18.242188 52.195312 17.488281 52.347656 16.882812 Z M 51.433594 20.363281 C 51.585938 19.605469 52.347656 19.152344 52.957031 19.304688 C 53.71875 19.453125 54.175781 20.210938 54.023438 20.816406 C 53.871094 21.421875 53.109375 22.027344 52.5 21.875 C 51.738281 21.875 51.28125 21.121094 51.433594 20.363281 Z M 52.347656 22.9375 C 53.109375 23.085938 53.566406 23.691406 53.566406 24.449219 C 53.566406 25.207031 52.957031 25.660156 52.195312 25.660156 C 51.433594 25.660156 50.824219 24.902344 50.976562 24.148438 C 50.976562 23.238281 51.738281 22.785156 52.347656 22.9375 Z M 48.847656 4.320312 C 49.609375 4.320312 50.21875 4.925781 50.21875 5.679688 C 50.21875 6.4375 49.609375 7.042969 48.847656 7.042969 C 48.085938 7.042969 47.476562 6.4375 47.476562 5.679688 C 47.628906 4.925781 48.085938 4.320312 48.847656 4.320312 Z M 48.847656 7.953125 C 49.609375 7.953125 50.21875 8.558594 50.21875 9.3125 C 50.21875 10.070312 49.609375 10.675781 48.847656 10.675781 C 48.085938 10.675781 47.476562 10.070312 47.476562 9.3125 C 47.628906 8.558594 48.085938 7.953125 48.847656 7.953125 Z M 48.847656 11.582031 C 49.609375 11.582031 50.21875 12.1875 50.21875 12.945312 C 50.21875 13.703125 49.609375 14.308594 48.847656 14.308594 C 48.085938 14.308594 47.476562 13.703125 47.476562 12.945312 C 47.628906 12.1875 48.085938 11.582031 48.847656 11.582031 Z M 48.847656 15.214844 C 49.609375 15.214844 50.21875 15.820312 50.21875 16.578125 C 50.21875 17.335938 49.609375 17.941406 48.847656 17.941406 C 48.085938 17.941406 47.476562 17.335938 47.476562 16.578125 C 47.628906 15.820312 48.085938 15.214844 48.847656 15.214844 Z M 48.847656 18.847656 C 49.609375 18.847656 50.21875 19.453125 50.21875 20.210938 C 50.21875 20.96875 49.609375 21.574219 48.847656 21.574219 C 48.085938 21.574219 47.476562 20.96875 47.476562 20.210938 C 47.628906 19.453125 48.085938 18.847656 48.847656 18.847656 Z M 48.847656 22.480469 C 49.609375 22.480469 50.21875 23.085938 50.21875 23.84375 C 50.21875 24.601562 49.609375 25.207031 48.847656 25.207031 C 48.085938 25.207031 47.476562 24.601562 47.476562 23.84375 C 47.628906 23.085938 48.085938 22.480469 48.847656 22.480469 Z M 20.542969 44.882812 C 19.933594 44.882812 19.324219 44.277344 19.324219 43.519531 C 19.324219 42.765625 19.933594 42.160156 20.695312 42.308594 C 21.457031 42.308594 21.914062 43.066406 21.914062 43.824219 C 21.914062 44.429688 21.304688 44.882812 20.542969 44.882812 Z M 25.71875 28.992188 C 25.871094 28.234375 26.628906 27.929688 27.390625 28.082031 C 28.152344 28.386719 28.609375 29.140625 28.304688 29.746094 C 28 30.503906 27.238281 30.808594 26.628906 30.503906 C 26.023438 30.351562 25.566406 29.597656 25.71875 28.992188 Z M 25.566406 37.617188 C 25.261719 38.222656 24.5 38.527344 23.890625 38.375 C 23.28125 38.070312 22.824219 37.464844 22.976562 36.710938 C 23.128906 35.953125 23.890625 35.5 24.804688 35.800781 C 25.566406 36.105469 25.871094 36.859375 25.566406 37.617188 Z M 24.804688 28.6875 C 24.652344 29.445312 23.890625 29.898438 23.128906 29.746094 C 22.371094 29.597656 21.914062 28.992188 22.066406 28.234375 C 22.21875 27.476562 22.824219 27.023438 23.738281 27.175781 C 24.5 27.324219 24.957031 27.929688 24.804688 28.6875 Z M 29.976562 31.867188 C 29.371094 31.5625 29.066406 30.808594 29.371094 30.050781 C 29.675781 29.445312 30.585938 29.140625 31.195312 29.445312 C 31.804688 29.746094 32.109375 30.351562 31.957031 30.957031 C 31.5 31.261719 31.042969 31.5625 30.738281 32.019531 C 30.433594 32.019531 30.128906 32.019531 29.976562 31.867188 Z M 34.847656 28.386719 C 34.390625 27.929688 34.238281 27.023438 34.847656 26.570312 C 35.304688 25.964844 36.21875 25.964844 36.824219 26.570312 C 37.433594 27.175781 37.433594 27.929688 36.824219 28.386719 C 36.523438 28.535156 36.21875 28.6875 36.066406 28.6875 C 35.457031 28.839844 35 28.6875 34.847656 28.386719 Z M 41.085938 23.542969 C 40.476562 23.996094 39.71875 23.996094 39.261719 23.390625 C 38.804688 22.9375 38.957031 22.027344 39.414062 21.574219 C 40.023438 21.121094 40.78125 21.121094 41.238281 21.726562 C 41.847656 22.332031 41.695312 23.085938 41.085938 23.542969 Z M 41.695312 24.296875 C 42.304688 23.84375 43.066406 23.996094 43.523438 24.601562 C 43.976562 25.207031 43.675781 26.113281 43.066406 26.417969 C 42.457031 26.71875 41.695312 26.570312 41.238281 25.964844 C 40.933594 25.507812 41.085938 24.753906 41.695312 24.296875 Z M 46.871094 23.996094 C 46.871094 24.753906 46.414062 25.359375 45.652344 25.507812 C 44.890625 25.507812 44.28125 25.054688 44.28125 24.296875 C 44.128906 23.542969 44.738281 22.9375 45.5 22.785156 C 45.957031 22.785156 46.71875 23.238281 46.871094 23.996094 Z M 46.261719 20.363281 C 46.414062 21.121094 45.957031 21.726562 45.195312 21.875 C 44.433594 22.027344 43.824219 21.574219 43.675781 20.816406 C 43.523438 20.210938 43.976562 19.453125 44.738281 19.304688 C 45.347656 19.152344 46.109375 19.605469 46.261719 20.363281 Z M 45.347656 16.882812 C 45.5 17.636719 45.195312 18.394531 44.433594 18.546875 C 43.675781 18.699219 43.066406 18.394531 42.761719 17.636719 C 42.457031 17.03125 42.914062 16.277344 43.523438 15.972656 C 44.28125 15.671875 45.042969 16.125 45.347656 16.882812 Z M 43.976562 13.398438 C 44.28125 14.15625 43.976562 14.914062 43.21875 15.214844 C 42.457031 15.519531 41.695312 15.214844 41.542969 14.609375 C 41.238281 14.003906 41.542969 13.25 42.152344 12.945312 C 42.914062 12.339844 43.675781 12.644531 43.976562 13.398438 Z M 42.304688 10.070312 C 42.761719 10.675781 42.457031 11.582031 41.847656 11.886719 C 41.238281 12.1875 40.324219 12.039062 40.023438 11.433594 C 39.566406 10.828125 39.71875 10.070312 40.324219 9.617188 C 40.933594 9.3125 41.847656 9.464844 42.304688 10.070312 Z M 38.195312 6.890625 C 38.652344 6.4375 39.566406 6.4375 40.023438 7.042969 C 40.476562 7.648438 40.476562 8.558594 39.871094 8.859375 C 39.261719 9.3125 38.5 9.164062 38.042969 8.707031 C 37.585938 8.253906 37.585938 7.496094 38.195312 6.890625 Z M 36.824219 19.304688 C 37.28125 18.699219 38.195312 18.699219 38.652344 19.152344 C 39.261719 19.605469 39.261719 20.515625 38.652344 20.96875 C 38.195312 21.421875 37.28125 21.574219 36.824219 21.121094 C 36.523438 20.664062 36.371094 19.757812 36.824219 19.304688 Z M 34.085938 17.183594 C 34.542969 16.578125 35.304688 16.425781 35.914062 16.882812 C 36.523438 17.335938 36.675781 18.09375 36.21875 18.699219 C 35.761719 19.304688 35 19.304688 34.390625 19 C 33.78125 18.546875 33.628906 17.789062 34.085938 17.183594 Z M 33.933594 25.964844 C 33.476562 26.570312 32.71875 26.570312 32.109375 26.265625 C 31.5 25.8125 31.347656 25.054688 31.804688 24.449219 C 32.261719 23.84375 33.023438 23.691406 33.628906 24.148438 C 34.390625 24.449219 34.390625 25.359375 33.933594 25.964844 Z M 31.195312 15.367188 C 31.5 14.761719 32.414062 14.460938 33.023438 14.914062 C 33.628906 15.367188 33.78125 16.125 33.476562 16.730469 C 33.023438 17.335938 32.261719 17.488281 31.652344 17.183594 C 31.042969 16.730469 30.738281 15.972656 31.195312 15.367188 Z M 31.042969 23.84375 C 30.585938 24.449219 29.824219 24.601562 29.21875 24.296875 C 28.609375 23.84375 28.304688 23.085938 28.761719 22.480469 C 29.066406 21.875 29.976562 21.574219 30.585938 22.027344 C 31.195312 22.332031 31.347656 23.238281 31.042969 23.84375 Z M 28 13.855469 C 28.304688 13.25 29.066406 12.945312 29.824219 13.25 C 30.433594 13.550781 30.738281 14.308594 30.433594 15.066406 C 30.128906 15.671875 29.371094 15.972656 28.761719 15.671875 C 28 15.214844 27.695312 14.460938 28 13.855469 Z M 27.847656 22.027344 C 27.542969 22.632812 26.78125 22.9375 26.023438 22.632812 C 25.414062 22.332031 25.109375 21.574219 25.414062 20.816406 C 25.71875 20.210938 26.476562 19.910156 27.238281 20.210938 C 27.847656 20.515625 28.152344 21.421875 27.847656 22.027344 Z M 24.804688 12.492188 C 25.109375 11.734375 25.871094 11.433594 26.476562 11.734375 C 27.238281 12.039062 27.542969 12.792969 27.238281 13.398438 C 26.933594 14.003906 26.175781 14.460938 25.566406 14.15625 C 24.957031 13.855469 24.5 13.25 24.804688 12.492188 Z M 21.914062 19.453125 C 22.21875 18.847656 22.976562 18.394531 23.738281 18.699219 C 24.5 19 24.804688 19.757812 24.5 20.515625 C 24.195312 21.121094 23.433594 21.574219 22.675781 21.269531 C 22.066406 20.96875 21.761719 20.210938 21.914062 19.453125 Z M 21.914062 36.40625 C 21.761719 37.164062 21 37.617188 20.390625 37.464844 C 19.628906 37.316406 19.175781 36.710938 19.175781 35.953125 C 19.175781 35.195312 19.933594 34.742188 20.847656 34.894531 C 21.609375 35.046875 22.066406 35.800781 21.914062 36.40625 Z M 18.566406 18.242188 C 18.71875 17.488281 19.628906 17.183594 20.238281 17.488281 C 21 17.789062 21.304688 18.546875 21.152344 19.152344 C 20.847656 19.910156 20.085938 20.210938 19.476562 19.910156 C 18.71875 19.757812 18.261719 19 18.566406 18.242188 Z M 19.78125 26.570312 C 20.542969 26.570312 21.152344 27.324219 21 28.082031 C 20.847656 28.839844 20.238281 29.292969 19.476562 29.292969 C 18.71875 29.292969 18.109375 28.535156 18.261719 27.929688 C 18.261719 27.023438 19.023438 26.570312 19.78125 26.570312 Z M 18.109375 35.953125 C 18.109375 36.710938 17.347656 37.164062 16.585938 37.164062 C 15.824219 37.164062 15.21875 36.558594 15.21875 35.800781 C 15.21875 35.046875 15.824219 34.441406 16.738281 34.589844 C 17.652344 34.589844 18.261719 35.195312 18.109375 35.953125 Z M 15.066406 17.183594 C 15.21875 16.425781 15.976562 16.125 16.738281 16.277344 C 17.5 16.425781 17.957031 17.183594 17.652344 17.941406 C 17.5 18.699219 16.738281 19 15.976562 18.847656 C 15.21875 18.699219 14.761719 17.941406 15.066406 17.183594 Z M 15.976562 26.417969 C 16.738281 26.417969 17.347656 27.023438 17.347656 27.78125 C 17.347656 28.535156 16.738281 29.140625 15.976562 29.140625 C 15.21875 29.140625 14.609375 28.535156 14.609375 27.78125 C 14.457031 27.023438 15.066406 26.417969 15.976562 26.417969 Z M 14.304688 35.800781 C 14.304688 36.558594 13.695312 37.164062 12.933594 37.164062 C 12.175781 37.164062 11.566406 36.710938 11.414062 35.953125 C 11.414062 35.195312 12.023438 34.589844 12.78125 34.589844 C 13.695312 34.441406 14.304688 35.046875 14.304688 35.800781 Z M 12.023438 26.570312 C 12.78125 26.570312 13.542969 27.023438 13.542969 27.78125 C 13.542969 28.535156 12.933594 29.140625 12.175781 29.140625 C 11.414062 29.140625 10.804688 28.6875 10.652344 27.929688 C 10.652344 27.175781 11.261719 26.570312 12.023438 26.570312 Z M 11.71875 44.125 C 11.871094 44.882812 11.566406 45.488281 10.804688 45.792969 C 10.195312 45.941406 9.433594 45.640625 9.28125 44.882812 C 8.976562 44.277344 9.433594 43.371094 10.195312 43.21875 C 10.804688 43.066406 11.566406 43.519531 11.71875 44.125 Z M 8.824219 53.964844 C 8.21875 54.269531 7.304688 53.8125 7.152344 53.207031 C 6.847656 52.601562 7.152344 51.695312 7.914062 51.390625 C 8.675781 51.089844 9.433594 51.542969 9.738281 52.148438 C 9.890625 52.90625 9.433594 53.664062 8.824219 53.964844 Z M 10.5 35.953125 C 10.5 36.710938 10.042969 37.316406 9.28125 37.464844 C 8.523438 37.464844 7.761719 37.011719 7.761719 36.253906 C 7.609375 35.5 8.21875 34.894531 8.976562 34.742188 C 9.738281 34.742188 10.5 35.195312 10.5 35.953125 Z M 8.21875 26.871094 C 8.976562 26.71875 9.738281 27.324219 9.738281 28.082031 C 9.738281 28.839844 9.28125 29.445312 8.523438 29.597656 C 7.761719 29.746094 7.152344 29.140625 7 28.535156 C 6.847656 27.628906 7.457031 27.023438 8.21875 26.871094 Z M 8.371094 45.1875 C 8.675781 45.792969 8.371094 46.699219 7.761719 46.851562 C 7.152344 47.152344 6.390625 46.851562 6.085938 46.09375 C 5.78125 45.488281 6.085938 44.582031 6.695312 44.429688 C 7.457031 44.125 8.21875 44.429688 8.371094 45.1875 Z M 5.175781 35.195312 C 5.933594 35.046875 6.695312 35.652344 6.847656 36.253906 C 7 37.011719 6.390625 37.617188 5.628906 37.769531 C 4.871094 37.921875 4.109375 37.464844 3.957031 36.710938 C 3.804688 36.105469 4.261719 35.347656 5.175781 35.195312 Z M 3.042969 47.910156 C 2.585938 47.304688 2.738281 46.546875 3.5 46.09375 C 4.109375 45.792969 5.023438 45.941406 5.324219 46.546875 C 5.628906 47.152344 5.476562 47.910156 4.871094 48.363281 C 4.261719 48.667969 3.5 48.515625 3.042969 47.910156 Z M 3.804688 54.875 C 3.347656 54.269531 3.652344 53.359375 4.414062 53.058594 C 5.175781 52.601562 5.933594 52.90625 6.238281 53.664062 C 6.542969 54.269531 6.238281 55.175781 5.628906 55.480469 C 4.871094 55.628906 4.109375 55.480469 3.804688 54.875 Z M 7.304688 63.804688 C 6.847656 64.257812 6.085938 64.105469 5.476562 63.652344 C 5.023438 63.199219 5.023438 62.289062 5.628906 61.835938 C 6.238281 61.382812 7 61.382812 7.457031 61.988281 C 7.914062 62.441406 7.914062 63.347656 7.304688 63.804688 Z M 10.042969 61.683594 C 9.433594 62.140625 8.675781 61.835938 8.21875 61.382812 C 7.761719 60.777344 7.914062 60.019531 8.523438 59.566406 C 9.128906 59.113281 10.042969 59.414062 10.347656 60.019531 C 10.804688 60.625 10.652344 61.382812 10.042969 61.683594 Z M 10.5 51.996094 C 10.347656 51.242188 10.804688 50.484375 11.566406 50.332031 C 12.324219 50.179688 13.085938 50.636719 13.238281 51.390625 C 13.390625 52.148438 12.933594 52.753906 12.175781 52.90625 C 11.414062 53.058594 10.804688 52.601562 10.5 51.996094 Z M 12.933594 60.019531 C 12.324219 60.324219 11.566406 60.019531 11.261719 59.414062 C 10.957031 58.808594 11.109375 57.902344 11.871094 57.597656 C 12.628906 57.296875 13.390625 57.597656 13.695312 58.203125 C 13.847656 59.113281 13.542969 59.867188 12.933594 60.019531 Z M 12.628906 43.976562 C 12.476562 43.21875 12.933594 42.613281 13.695312 42.460938 C 14.457031 42.308594 15.066406 42.914062 15.21875 43.671875 C 15.21875 44.429688 14.761719 45.035156 14.152344 45.1875 C 13.390625 45.1875 12.78125 44.730469 12.628906 43.976562 Z M 15.371094 49.574219 C 16.128906 49.425781 16.890625 50.03125 16.890625 50.785156 C 16.890625 51.542969 16.433594 52.148438 15.675781 52.300781 C 14.914062 52.453125 14.304688 51.847656 14.152344 51.242188 C 14 50.484375 14.609375 49.726562 15.371094 49.574219 Z M 16.128906 58.808594 C 15.523438 59.113281 14.761719 58.65625 14.457031 58.050781 C 14.152344 57.445312 14.609375 56.539062 15.21875 56.386719 C 15.976562 56.085938 16.738281 56.539062 16.890625 57.296875 C 17.042969 57.902344 16.738281 58.507812 16.128906 58.808594 Z M 15.976562 43.519531 C 15.976562 42.765625 16.433594 42.160156 17.195312 42.160156 C 17.957031 42.160156 18.566406 42.765625 18.566406 43.371094 C 18.566406 44.125 17.957031 44.730469 17.347656 44.730469 C 16.585938 44.882812 15.976562 44.277344 15.976562 43.519531 Z M 19.324219 57.902344 C 18.71875 58.050781 17.957031 57.597656 17.804688 56.839844 C 17.652344 56.085938 18.109375 55.328125 18.871094 55.328125 C 19.628906 55.175781 20.238281 55.628906 20.390625 56.386719 C 20.390625 57.144531 19.933594 57.902344 19.324219 57.902344 Z M 19.175781 51.996094 C 18.414062 51.996094 17.804688 51.390625 17.804688 50.785156 C 17.804688 50.03125 18.414062 49.425781 19.175781 49.425781 C 19.933594 49.425781 20.542969 50.03125 20.542969 50.785156 C 20.542969 51.390625 19.933594 51.996094 19.175781 51.996094 Z M 43.371094 61.988281 C 41.695312 63.199219 39.566406 63.953125 37.28125 63.953125 C 33.933594 63.953125 30.890625 62.441406 29.066406 59.867188 C 27.695312 58.050781 26.933594 55.933594 26.933594 53.511719 C 26.933594 47.757812 31.652344 43.066406 37.433594 43.066406 C 43.21875 43.066406 47.933594 47.757812 47.933594 53.511719 C 47.78125 56.992188 46.109375 60.171875 43.371094 61.988281 Z M 60.261719 63.953125 C 57.976562 63.953125 56 63.199219 54.324219 62.140625 C 51.585938 60.324219 49.914062 57.144531 49.914062 53.664062 C 49.914062 47.910156 54.628906 43.21875 60.414062 43.21875 C 66.195312 43.21875 70.914062 47.910156 70.914062 53.664062 C 70.914062 56.085938 70 58.355469 68.628906 60.019531 C 66.5 62.441406 63.609375 63.953125 60.261719 63.953125 Z M 77.152344 50.636719 C 77.152344 49.878906 77.761719 49.273438 78.523438 49.273438 C 79.28125 49.273438 79.890625 49.878906 79.890625 50.636719 C 79.890625 51.390625 79.28125 51.996094 78.523438 51.847656 C 77.761719 51.996094 77.152344 51.390625 77.152344 50.636719 Z M 80.652344 56.992188 C 80.5 57.75 79.738281 58.050781 79.128906 58.050781 C 78.523438 57.902344 78.066406 57.296875 78.066406 56.539062 C 78.21875 55.78125 78.824219 55.328125 79.585938 55.480469 C 80.347656 55.480469 80.804688 56.234375 80.652344 56.992188 Z M 80.804688 50.785156 C 80.804688 50.03125 81.566406 49.574219 82.324219 49.574219 C 83.085938 49.726562 83.695312 50.332031 83.542969 51.089844 C 83.390625 51.847656 82.78125 52.300781 82.023438 52.148438 C 81.261719 52.148438 80.804688 51.542969 80.804688 50.785156 Z M 84 58.050781 C 83.695312 58.65625 82.933594 59.113281 82.324219 58.808594 C 81.71875 58.507812 81.261719 57.902344 81.566406 57.144531 C 81.71875 56.386719 82.476562 55.933594 83.238281 56.234375 C 83.847656 56.539062 84.304688 57.296875 84 58.050781 Z M 83.238281 43.671875 C 83.238281 42.914062 84 42.460938 84.761719 42.460938 C 85.523438 42.613281 85.976562 43.371094 85.824219 43.976562 C 85.675781 44.730469 85.066406 45.1875 84.304688 45.035156 C 83.695312 45.035156 83.238281 44.429688 83.238281 43.671875 Z M 86.128906 50.332031 C 86.890625 50.484375 87.347656 51.242188 87.195312 51.996094 C 87.042969 52.753906 86.28125 53.058594 85.523438 52.90625 C 84.761719 52.753906 84.304688 51.996094 84.457031 51.390625 C 84.609375 50.636719 85.371094 50.179688 86.128906 50.332031 Z M 87.195312 59.566406 C 86.890625 60.171875 85.976562 60.472656 85.523438 60.171875 C 84.914062 59.867188 84.609375 59.113281 84.914062 58.507812 C 85.21875 57.902344 85.976562 57.445312 86.738281 57.902344 C 87.347656 58.050781 87.5 58.808594 87.195312 59.566406 Z M 86.738281 44.125 C 86.890625 43.371094 87.652344 42.914062 88.261719 43.21875 C 89.023438 43.371094 89.324219 44.125 89.175781 44.882812 C 88.871094 45.640625 88.261719 45.941406 87.652344 45.792969 C 86.890625 45.640625 86.585938 44.882812 86.738281 44.125 Z M 90.085938 61.382812 C 89.628906 61.988281 88.871094 62.140625 88.261719 61.683594 C 87.652344 61.382812 87.5 60.472656 87.804688 59.867188 C 88.109375 59.261719 89.023438 58.960938 89.628906 59.414062 C 90.390625 60.019531 90.542969 60.777344 90.085938 61.382812 Z M 92.824219 63.652344 C 92.371094 64.105469 91.457031 64.257812 91 63.804688 C 90.542969 63.347656 90.390625 62.59375 90.847656 61.988281 C 91.304688 61.382812 92.21875 61.382812 92.675781 61.835938 C 93.28125 62.289062 93.433594 63.046875 92.824219 63.652344 Z M 94.042969 54.875 C 93.585938 55.480469 92.824219 55.628906 92.21875 55.328125 C 91.457031 55.023438 91.304688 54.269531 91.609375 53.511719 C 91.914062 52.90625 92.824219 52.601562 93.433594 52.90625 C 94.195312 53.359375 94.347656 54.269531 94.042969 54.875 Z M 93.585938 48.363281 C 92.976562 48.0625 92.824219 47.304688 93.128906 46.546875 C 93.433594 45.941406 94.347656 45.640625 94.957031 46.09375 C 95.566406 46.546875 95.71875 47.304688 95.414062 47.910156 C 94.804688 48.515625 94.042969 48.667969 93.585938 48.363281 Z M 93.585938 48.363281 "/>
<path style=" stroke:none;fill-rule:nonzero;fill:rgb(0%,0%,0%);fill-opacity:1;" d="M 71.21875 77.878906 C 71.21875 77.878906 59.042969 72.429688 52.957031 69.253906 C 52.957031 69.859375 53.109375 70.613281 53.109375 71.371094 C 53.109375 71.371094 61.175781 75.914062 54.933594 76.519531 C 54.175781 76.519531 53.414062 76.667969 52.347656 76.519531 C 52.347656 76.519531 51.738281 80 49 80 C 46.261719 80 45.652344 76.519531 45.652344 76.519531 C 44.585938 76.519531 43.675781 76.519531 43.066406 76.519531 C 36.675781 75.914062 44.890625 71.371094 44.890625 71.371094 C 44.890625 70.613281 45.042969 70.007812 45.042969 69.253906 C 39.109375 72.429688 26.78125 77.878906 26.78125 77.878906 C 26.933594 78.183594 27.085938 78.484375 27.238281 78.636719 C 27.542969 79.089844 27.847656 79.695312 28 80.152344 C 28.152344 80.300781 28.304688 80.605469 28.304688 80.757812 C 28.609375 81.363281 29.066406 82.117188 29.371094 82.722656 C 29.523438 83.027344 29.675781 83.179688 29.824219 83.480469 C 30.128906 83.933594 30.28125 84.238281 30.585938 84.691406 C 30.738281 84.996094 30.890625 85.296875 31.042969 85.449219 C 31.347656 85.902344 31.5 86.207031 31.804688 86.507812 C 31.957031 86.8125 32.109375 86.960938 32.261719 87.265625 C 32.261719 87.265625 32.261719 87.265625 32.261719 87.417969 C 33.933594 89.835938 35.457031 91.957031 36.675781 93.167969 C 39.414062 95.890625 43.066406 98.617188 49 98.617188 C 54.324219 98.617188 58.585938 96.042969 61.324219 93.167969 C 62.542969 91.957031 64.066406 89.988281 65.738281 87.417969 C 65.738281 87.417969 65.738281 87.417969 65.738281 87.265625 C 65.890625 87.113281 66.042969 86.8125 66.195312 86.507812 C 66.5 86.207031 66.652344 85.75 66.957031 85.449219 C 67.109375 85.144531 67.261719 84.996094 67.414062 84.691406 C 67.71875 84.238281 67.871094 83.933594 68.175781 83.480469 C 68.324219 83.179688 68.476562 83.027344 68.628906 82.722656 C 68.933594 82.117188 69.390625 81.363281 69.695312 80.757812 C 69.847656 80.605469 70 80.300781 70 80.152344 C 70.304688 79.695312 70.609375 79.089844 70.761719 78.636719 C 70.914062 78.335938 71.066406 78.183594 71.21875 77.878906 Z M 58.890625 85.144531 C 58.890625 85.144531 57.976562 90.746094 49 90.898438 C 40.023438 90.898438 39.109375 85.144531 39.109375 85.144531 C 39.109375 85.144531 42 76.667969 49 82.574219 C 55.847656 76.820312 58.890625 85.144531 58.890625 85.144531 Z M 58.890625 85.144531 "/>
<path style=" stroke:none;fill-rule:nonzero;fill:rgb(0%,0%,0%);fill-opacity:1;" d="M 32.109375 53.964844 C 37.585938 59.566406 42.457031 53.964844 42.457031 53.964844 C 36.675781 48.0625 32.109375 53.964844 32.109375 53.964844 Z M 32.109375 53.964844 "/>
<path style=" stroke:none;fill-rule:nonzero;fill:rgb(0%,0%,0%);fill-opacity:1;" d="M 55.085938 53.964844 C 55.085938 53.964844 59.957031 59.566406 65.433594 53.964844 C 65.433594 53.964844 60.871094 48.0625 55.085938 53.964844 Z M 55.085938 53.964844 "/>
</g>
</svg>
