<?xml version="1.0" encoding="UTF-8"?>
<svg xmlns="http://www.w3.org/2000/svg" xmlns:xlink="http://www.w3.org/1999/xlink" width="99px" height="75px" viewBox="0 0 99 75" version="1.1">
<g id="surface1">
<path style=" stroke:none;fill-rule:evenodd;fill:rgb(8.235294%,9.019608%,9.411765%);fill-opacity:1;" d="M 27.058594 73.132812 C 31.347656 72.84375 35.636719 72.414062 39.921875 72.125 C 39.351562 67.242188 38.636719 62.5 38.066406 57.613281 C 37.921875 56.753906 37.066406 54.023438 37.636719 53.160156 C 37.921875 52.730469 41.640625 55.027344 42.210938 55.316406 C 49.785156 58.621094 58.074219 57.472656 64.792969 52.875 C 66.222656 51.867188 67.792969 50.71875 69.082031 49.570312 C 69.796875 48.996094 70.226562 50.574219 70.367188 50.863281 C 72.796875 55.460938 75.226562 59.914062 77.65625 64.511719 C 79.515625 67.960938 81.375 71.40625 83.230469 74.855469 C 83.375 75.144531 88.089844 73.851562 88.519531 73.707031 C 90.519531 73.277344 92.523438 72.84375 94.523438 72.414062 C 89.378906 65.085938 84.375 57.757812 79.230469 50.429688 C 78.800781 49.855469 82.085938 48.277344 82.660156 47.988281 C 84.375 46.839844 86.089844 45.546875 87.660156 44.109375 C 90.664062 41.234375 93.09375 38.21875 95.09375 34.625 C 99.238281 27.011719 99.8125 18.246094 97.808594 9.914062 C 95.808594 11.207031 93.664062 12.5 91.664062 13.792969 C 91.378906 13.9375 89.949219 14.511719 89.804688 14.941406 C 89.664062 15.949219 89.519531 16.953125 89.234375 17.960938 C 88.234375 21.839844 86.804688 25.429688 84.660156 28.878906 C 83.660156 30.601562 82.375 32.039062 80.945312 33.476562 C 80.515625 33.90625 78.800781 35.34375 79.371094 33.765625 C 81.085938 28.734375 82.800781 23.851562 84.515625 18.820312 C 85.519531 15.804688 86.660156 12.789062 87.660156 9.914062 C 85.375 9.484375 83.089844 8.90625 80.800781 8.476562 C 79.800781 8.332031 77.226562 7.039062 76.800781 8.191406 C 74.511719 13.074219 72.226562 17.960938 70.082031 22.84375 C 69.082031 24.855469 68.222656 27.011719 67.222656 29.023438 C 66.507812 30.601562 65.792969 29.023438 65.078125 28.015625 C 62.507812 24.570312 59.503906 21.40625 55.789062 19.253906 C 52.929688 17.671875 50.070312 16.953125 46.785156 17.386719 C 45.355469 17.527344 43.78125 18.246094 42.496094 18.964844 C 42.066406 19.253906 39.496094 21.550781 39.210938 21.265625 C 38.78125 20.832031 39.496094 19.828125 39.636719 19.398438 C 40.496094 17.386719 41.210938 15.375 42.066406 13.363281 C 43.496094 9.914062 44.925781 6.464844 46.210938 2.875 C 44.925781 2.441406 34.921875 -0.71875 34.777344 -0.289062 C 33.347656 4.597656 31.777344 9.625 30.347656 14.511719 C 29.632812 16.808594 28.917969 19.109375 28.347656 21.40625 C 27.917969 22.84375 26.773438 22.558594 25.34375 22.988281 C 21.773438 23.996094 18.628906 26.003906 15.769531 28.449219 C 12.480469 31.179688 9.765625 34.625 6.90625 37.644531 C 4.335938 40.515625 1.617188 43.679688 0.476562 47.414062 C -0.667969 51.148438 0.332031 54.886719 1.90625 58.332031 C 3.476562 61.925781 4.476562 65.949219 7.050781 69.109375 C 12.910156 76.292969 21.484375 64.65625 23.773438 59.484375 C 25.488281 55.601562 25.632812 51.722656 23.914062 47.699219 C 23.628906 47.125 21.484375 43.535156 22.34375 43.535156 C 23.199219 43.535156 27.347656 42.960938 27.773438 43.820312 C 28.203125 44.683594 27.773438 46.839844 27.773438 47.84375 C 27.632812 51.148438 27.632812 54.453125 27.488281 57.757812 C 27.347656 63.21875 27.203125 68.101562 27.058594 73.132812 "/>
</g>
</svg>
