<?xml version="1.0" encoding="UTF-8"?>
<svg xmlns="http://www.w3.org/2000/svg" xmlns:xlink="http://www.w3.org/1999/xlink" width="96px" height="100px" viewBox="0 0 96 100" version="1.1">
<g id="surface1">
<path style=" stroke:none;fill-rule:evenodd;fill:rgb(8.235294%,9.019608%,9.411765%);fill-opacity:1;" d="M 55.695312 39.523438 C 54.179688 40.171875 52.660156 40.605469 50.925781 41.253906 C 51.144531 40.171875 51.578125 39.09375 51.792969 38.011719 C 52.011719 36.933594 52.660156 36.5 51.359375 36.285156 C 50.058594 36.070312 50.277344 36.5 49.84375 37.796875 C 49.410156 38.660156 49.191406 39.742188 48.757812 40.605469 C 47.890625 39.308594 47.023438 38.011719 46.15625 36.71875 C 45.507812 38.230469 45.074219 39.957031 44.421875 41.46875 C 43.773438 40.390625 43.121094 39.308594 42.472656 38.230469 C 41.820312 36.933594 41.820312 36.933594 40.523438 37.582031 C 39.222656 38.445312 39.4375 38.445312 40.304688 39.742188 C 40.953125 40.605469 41.605469 41.683594 42.253906 42.546875 C 40.523438 42.546875 38.789062 42.765625 37.269531 42.765625 C 38.355469 44.058594 39.222656 45.355469 40.304688 46.867188 C 38.789062 46.652344 37.488281 46.4375 35.96875 46.21875 C 35.753906 46.21875 34.886719 46.003906 34.886719 46.21875 C 34.886719 46.652344 34.667969 47.300781 34.667969 47.730469 C 34.453125 49.027344 34.667969 48.8125 35.96875 49.027344 C 37.269531 49.027344 38.570312 49.242188 39.871094 49.242188 C 39.003906 50.757812 38.136719 52.269531 37.269531 53.5625 C 39.003906 53.78125 40.738281 53.996094 42.472656 54.210938 C 41.605469 55.292969 40.738281 56.371094 39.871094 57.234375 C 39.003906 58.316406 38.789062 58.316406 39.871094 58.964844 C 41.171875 59.828125 40.953125 59.394531 42.039062 58.316406 C 42.90625 57.453125 43.554688 56.585938 44.421875 55.507812 C 44.421875 57.234375 44.640625 58.964844 44.640625 60.691406 C 45.941406 59.179688 47.457031 57.667969 48.757812 56.371094 C 48.976562 57.667969 48.976562 58.964844 49.191406 60.257812 C 49.410156 61.554688 49.191406 61.554688 50.492188 61.339844 C 51.792969 61.125 51.578125 61.125 51.359375 59.828125 C 51.144531 58.746094 50.925781 57.453125 50.710938 56.371094 C 52.226562 57.019531 53.960938 57.667969 55.476562 58.097656 C 55.261719 56.371094 55.046875 54.859375 54.828125 53.132812 C 55.695312 53.5625 56.777344 53.78125 57.644531 54.210938 C 58.730469 54.644531 58.945312 55.074219 59.378906 53.996094 C 60.03125 52.699219 59.8125 52.914062 58.730469 52.269531 C 57.863281 51.621094 57.210938 51.1875 56.34375 50.539062 C 57.644531 49.675781 58.945312 48.8125 60.03125 47.730469 C 58.511719 47.085938 57.210938 46.4375 55.695312 45.789062 C 56.777344 45.355469 57.863281 44.925781 58.945312 44.492188 C 60.03125 44.058594 59.8125 43.84375 59.164062 42.765625 C 58.730469 41.902344 58.296875 42.332031 57.429688 42.765625 C 56.5625 43.195312 55.476562 43.628906 54.613281 44.058594 C 55.046875 42.765625 55.261719 41.035156 55.695312 39.523438 Z M 55.046875 48.597656 C 55.046875 52.484375 51.792969 55.507812 47.890625 55.507812 C 43.988281 55.507812 40.738281 52.484375 40.738281 48.597656 C 40.738281 44.707031 44.207031 41.902344 47.890625 41.683594 C 51.792969 41.902344 55.046875 44.707031 55.046875 48.597656 Z M 48.109375 42.117188 C 44.640625 42.332031 41.386719 44.707031 41.386719 48.597656 C 41.386719 52.269531 44.640625 55.074219 48.109375 55.074219 C 51.578125 55.074219 54.828125 52.269531 54.828125 48.597656 C 54.613281 44.925781 51.578125 42.546875 48.109375 42.117188 Z M 89.292969 25.269531 C 84.957031 17.496094 79.105469 11.230469 71.519531 6.480469 C 64.367188 1.945312 56.34375 0.433594 48.109375 0 C 47.023438 0 45.722656 0 44.640625 0.214844 C 27.515625 1.945312 12.773438 12.742188 5.40625 28.292969 C -1.316406 42.980469 -0.882812 61.769531 7.574219 75.808594 C 12.125 83.152344 18.195312 89.847656 25.78125 93.953125 C 33.152344 98.054688 40.953125 99.785156 49.410156 99.785156 C 66.316406 99.785156 82.574219 88.335938 89.945312 73.433594 C 97.097656 58.53125 97.53125 40.171875 89.292969 25.269531 Z M 81.273438 17.925781 C 78.023438 18.574219 75.421875 20.300781 72.820312 22.460938 C 74.121094 18.574219 74.554688 15.117188 73.902344 11.015625 C 76.722656 13.175781 79.105469 15.335938 81.273438 17.925781 Z M 65.449219 6.261719 C 62.632812 8.207031 59.8125 9.933594 56.5625 11.230469 C 55.476562 7.34375 53.3125 4.535156 48.976562 4.105469 C 45.074219 3.671875 41.386719 6.910156 40.089844 10.367188 C 37.269531 9.070312 34.886719 7.34375 32.71875 5.398438 C 43.773438 1.296875 55.046875 1.726562 65.449219 6.261719 Z M 56.128906 11.230469 C 50.925781 12.957031 45.722656 12.742188 40.523438 10.367188 C 45.289062 5.617188 52.226562 5.832031 56.128906 11.230469 Z M 28.382812 7.128906 C 29.683594 6.480469 30.984375 5.832031 32.5 5.398438 C 35.101562 12.527344 40.953125 18.574219 48.976562 18.359375 C 56.5625 17.925781 62.847656 13.175781 66.101562 6.480469 C 67.835938 7.34375 69.351562 8.207031 70.867188 9.070312 C 66.101562 15.984375 59.597656 21.597656 50.710938 22.03125 C 42.039062 22.460938 34.234375 17.496094 29.683594 10.582031 C 29.25 9.933594 27.730469 7.558594 28.382812 7.128906 Z M 23.398438 10.152344 C 22.746094 14.902344 23.179688 19.871094 25.566406 24.191406 C 22.746094 21.167969 19.0625 18.574219 14.726562 17.925781 C 17.328125 14.902344 20.363281 12.527344 23.398438 10.152344 Z M 7.355469 70.410156 C 1.503906 56.371094 1.71875 41.253906 8.222656 27.644531 C 10.175781 30.453125 11.90625 33.691406 13.207031 36.933594 C 10.824219 37.148438 8.007812 38.660156 6.707031 40.820312 C 5.40625 42.980469 5.839844 46.003906 8.222656 47.085938 C 14.074219 49.675781 16.027344 38.445312 9.957031 38.875 C 10.824219 38.230469 11.90625 38.011719 12.992188 37.796875 C 13.859375 37.796875 14.292969 40.171875 14.507812 41.035156 C 15.160156 43.84375 15.808594 46.652344 15.808594 49.675781 C 15.808594 52.269531 15.59375 54.859375 14.726562 57.453125 C 14.507812 58.097656 13.859375 61.125 13.207031 61.554688 C 12.339844 61.988281 10.175781 60.476562 9.523438 60.042969 C 11.90625 60.476562 14.507812 58.097656 14.292969 55.507812 C 13.859375 52.699219 11.472656 50.757812 8.65625 51.621094 C 6.054688 52.484375 4.753906 55.507812 6.273438 57.882812 C 7.574219 60.042969 10.609375 61.988281 12.992188 62.203125 C 11.691406 65.011719 9.742188 67.820312 7.355469 70.410156 Z M 7.789062 71.492188 C 15.59375 69.976562 23.179688 63.929688 24.699219 55.722656 C 26.214844 47.085938 23.832031 38.875 17.328125 32.828125 C 14.726562 30.453125 11.90625 28.726562 8.65625 27.214844 C 9.089844 26.351562 9.523438 25.703125 9.957031 24.839844 C 10.175781 24.40625 10.390625 23.972656 10.824219 23.542969 C 11.257812 22.894531 11.691406 23.542969 12.125 23.757812 C 13.859375 24.839844 15.59375 25.917969 17.328125 27.429688 C 20.363281 30.023438 22.964844 33.046875 24.699219 36.71875 C 28.382812 44.058594 28.816406 53.347656 25.132812 60.691406 C 21.664062 67.386719 16.242188 71.492188 9.523438 74.515625 C 8.875 73.433594 8.441406 72.355469 7.789062 71.492188 Z M 12.773438 79.480469 C 17.328125 80.34375 21.878906 78.402344 25.132812 75.378906 C 22.746094 79.914062 22.3125 84.449219 22.746094 89.417969 C 19.0625 86.394531 15.808594 83.152344 12.773438 79.480469 Z M 49.191406 97.625 C 43.554688 97.839844 37.703125 96.542969 32.5 94.601562 C 34.667969 92.65625 37.054688 90.710938 39.871094 89.632812 C 41.386719 93.519531 44.855469 96.113281 48.757812 96.113281 C 52.878906 96.113281 55.695312 92.65625 56.34375 88.984375 C 59.597656 90.28125 62.632812 92.007812 65.449219 93.953125 C 60.246094 95.894531 55.046875 97.410156 49.191406 97.625 Z M 40.304688 89.417969 C 45.507812 87.257812 50.710938 87.042969 55.910156 88.554688 C 54.394531 91.144531 51.144531 93.089844 48.324219 93.089844 C 45.074219 93.089844 42.472656 91.578125 40.304688 89.417969 Z M 65.882812 93.738281 C 62.847656 87.257812 56.34375 81.640625 48.542969 81.640625 C 40.089844 81.640625 34.667969 87.257812 31.851562 94.601562 C 30.332031 93.953125 28.816406 93.304688 27.515625 92.441406 C 28.164062 91.144531 28.816406 90.066406 29.464844 88.769531 C 34.019531 81.859375 42.253906 77.105469 50.492188 77.753906 C 59.164062 78.402344 66.101562 83.800781 70.652344 90.929688 C 69.351562 92.007812 67.617188 92.871094 65.882812 93.738281 Z M 73.902344 88.984375 C 74.554688 84.234375 74.335938 79.914062 72.167969 75.59375 C 75.636719 78.402344 78.890625 79.480469 83.441406 79.480469 C 80.40625 82.9375 77.371094 86.175781 73.902344 88.984375 Z M 76.289062 76.890625 C 73.6875 75.378906 71.519531 73.433594 69.785156 70.84375 C 66.316406 65.441406 65.234375 59.179688 64.582031 52.914062 C 62.847656 58.746094 58.945312 62.851562 53.3125 65.011719 C 59.597656 66.089844 65.234375 68.464844 69.351562 73.433594 C 71.300781 75.808594 72.386719 78.617188 72.820312 81.425781 C 73.253906 83.585938 73.6875 89.199219 71.519531 90.28125 C 70.652344 83.152344 67.835938 76.242188 61.765625 71.707031 C 54.828125 66.523438 45.289062 65.875 37.921875 70.195312 C 30.117188 74.730469 27.515625 83.152344 26.863281 91.578125 C 25.996094 91.144531 25.347656 90.710938 24.699219 90.28125 C 24.046875 89.847656 24.046875 88.984375 24.046875 88.121094 C 23.832031 86.394531 23.832031 84.882812 24.046875 83.152344 C 24.265625 80.128906 25.566406 76.890625 27.296875 74.515625 C 30.984375 69.113281 36.835938 66.523438 42.90625 65.226562 C 38.570312 64.148438 34.019531 60.476562 32.285156 56.371094 C 31.417969 61.769531 30.117188 68.035156 26.429688 72.136719 C 22.53125 76.675781 17.976562 78.617188 11.90625 77.753906 C 11.472656 77.96875 11.472656 77.753906 11.472656 77.539062 C 15.375 75.808594 18.84375 73.867188 21.878906 71.058594 C 24.914062 68.25 27.082031 65.011719 28.816406 61.339844 C 29.683594 59.609375 30.117188 57.882812 30.550781 56.15625 C 30.765625 55.292969 31.199219 54.425781 30.984375 53.5625 C 30.765625 52.484375 30.550781 51.621094 30.332031 50.539062 C 30.117188 48.597656 30.332031 46.4375 30.984375 44.492188 C 31.417969 42.980469 29.898438 39.957031 29.464844 38.445312 C 26.429688 30.238281 20.144531 24.40625 12.992188 20.085938 C 13.640625 19.4375 13.640625 19.007812 14.726562 19.007812 C 15.375 19.222656 15.808594 19.4375 16.460938 19.65625 C 17.761719 19.871094 19.0625 20.519531 20.144531 21.167969 C 22.3125 22.460938 24.046875 24.40625 25.78125 26.351562 C 29.03125 30.238281 31.417969 36.71875 31.851562 41.683594 C 33.367188 38.230469 36.402344 34.773438 40.089844 33.261719 C 34.667969 31.316406 29.683594 28.507812 26.648438 23.324219 C 25.132812 20.734375 24.480469 17.496094 24.480469 14.6875 C 24.480469 13.390625 24.480469 12.09375 24.699219 10.800781 C 24.914062 9.070312 25.996094 8.855469 27.515625 7.992188 C 27.949219 15.984375 30.332031 23.757812 37.269531 28.507812 C 38.789062 29.589844 40.523438 30.453125 42.253906 30.886719 C 43.121094 31.101562 43.988281 31.535156 45.074219 31.535156 C 46.15625 31.75 47.023438 31.535156 47.890625 31.535156 C 52.011719 31.964844 55.695312 31.101562 59.597656 29.15625 C 66.96875 25.269531 70.867188 17.496094 71.519531 9.503906 C 73.6875 10.800781 73.035156 15.550781 72.820312 17.925781 C 72.386719 20.734375 71.300781 23.324219 69.785156 25.484375 C 66.75 30.023438 61.332031 32.613281 56.128906 33.910156 C 60.246094 36.71875 63.714844 40.390625 64.582031 45.355469 C 65.449219 39.09375 66.75 33.046875 70.21875 27.644531 C 71.734375 25.269531 73.6875 23.324219 76.070312 21.597656 C 77.15625 20.734375 78.457031 20.300781 79.972656 19.871094 C 80.625 19.65625 81.273438 19.4375 82.140625 19.222656 C 82.359375 19.222656 83.226562 20.300781 83.441406 20.519531 C 76.722656 24.40625 70.867188 29.804688 68.050781 37.148438 C 65.015625 44.707031 64.582031 53.347656 68.050781 60.90625 C 71.519531 68.683594 77.371094 73.648438 84.957031 77.320312 C 83.875 79.480469 78.023438 77.96875 76.289062 76.890625 Z M 86.691406 74.296875 C 79.105469 71.273438 72.601562 65.011719 70.21875 57.019531 C 67.835938 48.8125 69.351562 40.605469 73.902344 33.476562 C 76.070312 30.023438 79.324219 27.214844 82.574219 25.054688 C 83.441406 24.40625 84.308594 23.972656 85.175781 23.542969 C 85.390625 23.324219 86.476562 25.484375 86.691406 25.703125 C 87.34375 26.566406 87.992188 27.214844 86.691406 27.644531 C 85.609375 28.292969 84.527344 28.726562 83.441406 29.375 C 76.070312 33.691406 71.734375 41.46875 71.300781 49.890625 C 70.867188 60.042969 78.238281 68.683594 87.992188 71.058594 C 87.777344 72.136719 87.34375 73.21875 86.691406 74.296875 Z M 89.078125 69.761719 C 86.910156 67.386719 85.175781 64.578125 83.875 61.769531 C 86.476562 61.339844 89.292969 59.828125 90.59375 57.453125 C 91.894531 55.074219 90.8125 51.835938 88.210938 51.1875 C 85.390625 50.324219 83.007812 52.269531 82.574219 55.074219 C 82.359375 57.667969 84.957031 60.042969 87.34375 59.609375 C 86.257812 60.476562 85.175781 60.90625 83.875 61.125 C 83.226562 61.339844 82.359375 57.882812 82.140625 57.234375 C 81.273438 54.859375 80.839844 52.269531 80.839844 49.675781 C 80.839844 46.652344 81.273438 44.058594 81.925781 41.035156 C 82.140625 40.390625 82.574219 37.796875 83.226562 37.582031 C 83.875 37.148438 86.042969 38.230469 86.691406 38.660156 C 80.40625 38.230469 82.792969 49.675781 88.210938 47.085938 C 94.28125 44.058594 88.210938 36.933594 83.441406 36.71875 C 84.742188 33.691406 86.257812 30.886719 87.992188 28.078125 C 90.8125 34.558594 92.546875 41.253906 92.980469 48.164062 C 93.414062 55.941406 91.460938 62.851562 89.078125 69.761719 Z M 47.675781 31.964844 C 42.472656 32.398438 37.488281 34.339844 34.234375 38.660156 C 29.683594 44.925781 29.683594 53.347656 34.667969 59.394531 C 39.4375 65.441406 47.890625 67.171875 54.828125 63.929688 C 61.980469 60.691406 65.667969 52.484375 63.933594 44.925781 C 62.199219 37.148438 55.476562 32.613281 47.675781 31.964844 Z M 61.332031 49.675781 C 60.679688 57.667969 53.746094 62.851562 45.722656 62.203125 C 38.789062 61.554688 33.367188 54.644531 34.019531 47.949219 C 34.667969 41.035156 40.304688 34.988281 47.675781 35.207031 C 55.261719 34.988281 61.980469 42.117188 61.332031 49.675781 Z M 61.332031 49.675781 "/>
</g>
</svg>
