<?xml version="1.0" encoding="UTF-8"?>
<svg xmlns="http://www.w3.org/2000/svg" xmlns:xlink="http://www.w3.org/1999/xlink" width="77px" height="99px" viewBox="0 0 77 99" version="1.1">
<g id="surface1">
<path style=" stroke:none;fill-rule:nonzero;fill:rgb(72.549021%,39.215687%,25.882354%);fill-opacity:1;" d="M 72.605469 45.070312 C 68.207031 30.722656 49.914062 24.253906 47.929688 15.535156 C 45.945312 6.671875 58 1.1875 58 1.1875 L 19 1.1875 C 19 1.1875 30.914062 6.8125 29.070312 15.535156 C 26.941406 24.394531 8.792969 30.722656 4.253906 45.070312 C -0.140625 59.554688 27.511719 97.8125 28.929688 97.8125 C 29.496094 97.8125 47.363281 97.8125 48.070312 97.8125 C 49.488281 97.8125 77 59.554688 72.605469 45.070312 Z M 72.605469 45.070312 "/>
<path style=" stroke:none;fill-rule:nonzero;fill:rgb(95.294118%,45.09804%,17.254902%);fill-opacity:1;" d="M 48.214844 16.238281 C 48.496094 16.238281 28.785156 16.238281 28.785156 16.238281 C 28.785156 16.238281 29.636719 13.144531 28.503906 10.328125 C 28.785156 10.328125 48.355469 10.328125 48.355469 10.328125 C 48.355469 10.328125 47.222656 13.566406 48.214844 16.238281 Z M 48.214844 16.238281 "/>
<path style=" stroke:none;fill-rule:nonzero;fill:rgb(72.549021%,39.215687%,25.882354%);fill-opacity:1;" d="M 48.640625 17.363281 L 28.21875 17.363281 L 28.785156 16.238281 L 48.214844 16.238281 Z M 48.640625 17.363281 "/>
<path style=" stroke:none;fill-rule:nonzero;fill:rgb(72.549021%,39.215687%,25.882354%);fill-opacity:1;" d="M 48.355469 10.328125 L 28.503906 10.328125 L 28.078125 9.203125 L 48.921875 9.203125 Z M 48.355469 10.328125 "/>
<path style=" stroke:none;fill-rule:nonzero;fill:rgb(95.294118%,70.588237%,10.588235%);fill-opacity:1;" d="M 30.914062 13.285156 C 30.914062 14.410156 30.0625 15.253906 28.929688 15.394531 C 28.929688 15.394531 29.355469 13.566406 28.785156 11.171875 C 29.921875 11.171875 30.914062 12.15625 30.914062 13.285156 Z M 30.914062 13.285156 "/>
<path style=" stroke:none;fill-rule:nonzero;fill:rgb(95.294118%,70.588237%,10.588235%);fill-opacity:1;" d="M 37.152344 13.285156 C 37.152344 14.449219 36.199219 15.394531 35.027344 15.394531 C 33.851562 15.394531 32.898438 14.449219 32.898438 13.285156 C 32.898438 12.117188 33.851562 11.171875 35.027344 11.171875 C 36.199219 11.171875 37.152344 12.117188 37.152344 13.285156 Z M 37.152344 13.285156 "/>
<path style=" stroke:none;fill-rule:nonzero;fill:rgb(95.294118%,70.588237%,10.588235%);fill-opacity:1;" d="M 43.816406 13.285156 C 43.816406 14.449219 42.867188 15.394531 41.691406 15.394531 C 40.515625 15.394531 39.5625 14.449219 39.5625 13.285156 C 39.5625 12.117188 40.515625 11.171875 41.691406 11.171875 C 42.867188 11.171875 43.816406 12.117188 43.816406 13.285156 Z M 43.816406 13.285156 "/>
<path style=" stroke:none;fill-rule:nonzero;fill:rgb(95.294118%,70.588237%,10.588235%);fill-opacity:1;" d="M 47.929688 15.394531 C 47.929688 15.394531 47.789062 15.394531 47.789062 15.394531 C 46.652344 15.394531 45.660156 14.410156 45.660156 13.285156 C 45.660156 12.15625 46.652344 11.171875 47.789062 11.171875 C 47.929688 11.171875 48.070312 11.171875 48.214844 11.171875 C 47.503906 13.988281 47.929688 15.394531 47.929688 15.394531 Z M 47.929688 15.394531 "/>
<path style=" stroke:none;fill-rule:nonzero;fill:rgb(72.549021%,39.215687%,25.882354%);fill-opacity:1;" d="M 69.910156 39.164062 L 7.089844 39.164062 C 7.515625 38.601562 8.507812 37.195312 8.507812 37.195312 L 68.492188 37.195312 C 68.492188 37.195312 69.34375 38.320312 69.910156 39.164062 Z M 69.910156 39.164062 "/>
<path style=" stroke:none;fill-rule:nonzero;fill:rgb(72.549021%,39.215687%,25.882354%);fill-opacity:1;" d="M 63.101562 75.871094 L 13.898438 75.871094 L 12.761719 73.902344 L 64.238281 73.902344 Z M 63.101562 75.871094 "/>
<path style=" stroke:none;fill-rule:nonzero;fill:rgb(95.294118%,70.588237%,10.588235%);fill-opacity:1;" d="M 55.871094 71.652344 L 48.214844 60.398438 L 39.421875 71.371094 L 29.210938 60.257812 L 21.128906 71.230469 L 13.898438 60.820312 L 9.925781 68.558594 L 8.082031 64.621094 L 13.472656 54.210938 L 21.128906 65.324219 L 28.929688 54.773438 L 39.136719 66.167969 L 48.496094 54.632812 L 55.871094 65.464844 L 62.960938 54.351562 L 69.058594 64.199219 L 67.214844 67.996094 L 62.820312 60.679688 Z M 55.871094 71.652344 "/>
<path style=" stroke:none;fill-rule:nonzero;fill:rgb(95.294118%,45.09804%,17.254902%);fill-opacity:1;" d="M 21.554688 73.058594 L 29.355469 62.371094 L 38.570312 73.058594 Z M 21.554688 73.058594 "/>
<path style=" stroke:none;fill-rule:nonzero;fill:rgb(95.294118%,45.09804%,17.254902%);fill-opacity:1;" d="M 10.351562 69.402344 L 14.039062 62.933594 L 20.703125 73.058594 L 12.335938 73.058594 Z M 10.351562 69.402344 "/>
<path style=" stroke:none;fill-rule:nonzero;fill:rgb(95.294118%,45.09804%,17.254902%);fill-opacity:1;" d="M 39.421875 73.058594 L 48.355469 62.371094 L 55.304688 73.058594 Z M 39.421875 73.058594 "/>
<path style=" stroke:none;fill-rule:nonzero;fill:rgb(95.294118%,45.09804%,17.254902%);fill-opacity:1;" d="M 56.296875 73.058594 L 62.960938 62.933594 L 66.648438 69.121094 C 65.515625 71.511719 64.664062 73.058594 64.664062 73.058594 Z M 56.296875 73.058594 "/>
<path style=" stroke:none;fill-rule:nonzero;fill:rgb(95.294118%,45.09804%,17.254902%);fill-opacity:1;" d="M 56.863281 50.273438 L 47.789062 44.789062 L 39.136719 49.992188 L 28.785156 44.507812 L 20.703125 48.445312 L 12.761719 43.945312 L 6.097656 46.898438 L 4.539062 44.648438 L 6.523438 40.429688 L 7.089844 42.398438 L 12.761719 39.585938 L 20.703125 44.085938 L 28.785156 40.148438 L 38.996094 45.632812 L 47.789062 40.429688 L 56.582031 45.773438 L 61.257812 39.867188 L 71.1875 44.226562 L 72.035156 42.398438 C 72.035156 42.398438 72.886719 45.773438 72.886719 47.039062 C 72.746094 47.179688 71.46875 48.726562 71.46875 48.726562 L 61.542969 44.367188 Z M 56.863281 50.273438 "/>
<path style=" stroke:none;fill-rule:nonzero;fill:rgb(95.294118%,45.09804%,17.254902%);fill-opacity:1;" d="M 33.75 53.085938 L 38.710938 62.371094 L 43.535156 53.085938 Z M 33.75 53.085938 "/>
<path style=" stroke:none;fill-rule:nonzero;fill:rgb(95.294118%,45.09804%,17.254902%);fill-opacity:1;" d="M 52.042969 53.085938 L 56.296875 61.523438 L 58.992188 53.085938 Z M 52.042969 53.085938 "/>
<path style=" stroke:none;fill-rule:nonzero;fill:rgb(95.294118%,45.09804%,17.254902%);fill-opacity:1;" d="M 16.875 53.085938 L 21.554688 61.523438 L 24.105469 53.085938 Z M 16.875 53.085938 "/>
<path style=" stroke:none;fill-rule:nonzero;fill:rgb(95.294118%,45.09804%,17.254902%);fill-opacity:1;" d="M 4.253906 52.804688 L 9.21875 52.945312 L 6.097656 59.414062 C 6.097656 59.414062 4.820312 55.898438 4.253906 52.804688 Z M 4.253906 52.804688 "/>
<path style=" stroke:none;fill-rule:nonzero;fill:rgb(95.294118%,45.09804%,17.254902%);fill-opacity:1;" d="M 67.78125 53.085938 L 72.605469 53.085938 C 72.605469 53.085938 72.035156 56.039062 70.902344 59.132812 Z M 67.78125 53.085938 "/>
<path style=" stroke:none;fill-rule:nonzero;fill:rgb(95.294118%,70.588237%,10.588235%);fill-opacity:1;" d="M 4.539062 49.851562 L 12.761719 45.351562 L 19.851562 49.851562 Z M 4.539062 49.851562 "/>
<path style=" stroke:none;fill-rule:nonzero;fill:rgb(95.294118%,70.588237%,10.588235%);fill-opacity:1;" d="M 21.554688 49.851562 L 28.785156 45.632812 L 37.152344 49.851562 Z M 21.554688 49.851562 "/>
<path style=" stroke:none;fill-rule:nonzero;fill:rgb(95.294118%,70.588237%,10.588235%);fill-opacity:1;" d="M 41.125 49.851562 L 47.644531 45.914062 L 54.878906 49.851562 Z M 41.125 49.851562 "/>
<path style=" stroke:none;fill-rule:nonzero;fill:rgb(95.294118%,70.588237%,10.588235%);fill-opacity:1;" d="M 58.992188 49.851562 L 62.109375 45.351562 L 71.753906 49.851562 Z M 58.992188 49.851562 "/>
<path style=" stroke:none;fill-rule:nonzero;fill:rgb(30.588236%,30.588236%,30.588236%);fill-opacity:1;" d="M 68.066406 37.617188 L 67.78125 36.207031 C 67.78125 36.207031 71.328125 35.363281 74.023438 31.425781 C 75.441406 29.316406 75.867188 26.785156 75.15625 23.832031 C 74.589844 21.019531 73.03125 19.050781 70.761719 18.066406 C 63.8125 14.832031 51.617188 21.019531 51.191406 21.160156 L 50.484375 19.894531 C 51.902344 19.191406 63.953125 13.285156 71.328125 16.660156 C 74.023438 17.925781 75.722656 20.175781 76.433594 23.410156 C 77.140625 26.785156 76.714844 29.597656 75.015625 31.988281 C 72.179688 36.769531 68.066406 37.617188 68.066406 37.617188 Z M 68.066406 37.617188 "/>
<path style=" stroke:none;fill-rule:nonzero;fill:rgb(30.588236%,30.588236%,30.588236%);fill-opacity:1;" d="M 8.933594 37.195312 C 8.792969 37.195312 4.679688 36.628906 1.703125 32.269531 C 0 29.878906 -0.425781 26.925781 0.285156 23.691406 C 0.992188 20.457031 2.695312 18.207031 5.386719 16.941406 C 12.902344 13.425781 25.667969 19.894531 26.234375 20.175781 L 25.523438 21.441406 C 24.957031 21.160156 12.902344 15.113281 5.957031 18.347656 C 3.6875 19.472656 2.269531 21.300781 1.558594 24.113281 C 1.132812 26.925781 1.417969 29.457031 2.835938 31.566406 C 5.386719 35.363281 9.074219 35.925781 9.074219 35.925781 Z M 8.933594 37.195312 "/>
<path style=" stroke:none;fill-rule:nonzero;fill:rgb(30.588236%,30.588236%,30.588236%);fill-opacity:1;" d="M 48.070312 98.515625 L 28.929688 98.515625 C 28.503906 98.515625 28.078125 98.515625 24.816406 94.15625 C 17.582031 84.589844 -0.140625 57.023438 3.546875 44.789062 C 6.097656 36.628906 12.761719 31.144531 18.578125 26.222656 C 23.257812 22.285156 27.226562 19.050781 28.078125 15.253906 C 30.0625 7.234375 18.71875 1.890625 18.578125 1.890625 L 15.742188 0.484375 L 61.257812 0.484375 L 58.421875 1.890625 C 58.28125 1.890625 46.9375 7.375 48.78125 15.535156 C 49.632812 19.191406 53.601562 22.566406 58.28125 26.503906 C 64.238281 31.425781 70.902344 36.910156 73.3125 45.070312 C 77 57.164062 59.273438 84.871094 52.042969 94.4375 C 48.921875 98.515625 48.355469 98.515625 48.070312 98.515625 Z M 29.070312 97.109375 L 47.789062 97.109375 C 50.058594 95.140625 76.148438 58.851562 71.894531 45.351562 C 69.484375 37.617188 62.960938 32.269531 57.289062 27.488281 C 52.46875 23.410156 48.214844 19.894531 47.222656 15.816406 C 45.804688 8.921875 51.757812 4.140625 55.304688 1.890625 L 21.695312 1.890625 C 25.242188 4.140625 31.195312 8.921875 29.636719 15.675781 C 28.644531 19.894531 24.53125 23.410156 19.570312 27.347656 C 13.898438 32.128906 7.375 37.476562 4.964844 45.210938 C 0.851562 58.992188 26.800781 95.140625 29.070312 97.109375 Z M 29.070312 97.109375 "/>
</g>
</svg>
