<?xml version="1.0" encoding="UTF-8"?>
<svg xmlns="http://www.w3.org/2000/svg" xmlns:xlink="http://www.w3.org/1999/xlink" width="41px" height="100px" viewBox="0 0 41 100" version="1.1">
<g id="surface1">
<path style=" stroke:none;fill-rule:evenodd;fill:rgb(8.235294%,9.019608%,9.411765%);fill-opacity:1;" d="M 26.261719 43.285156 C 26.742188 44.84375 21.460938 45.5625 20.5 45.5625 C 18.460938 45.5625 16.539062 44.363281 14.859375 43.40625 C 17.257812 41.605469 23.980469 40.527344 26.261719 43.285156 M 15.460938 9.234375 C 18.460938 8.273438 21.460938 8.511719 24.460938 9.234375 C 21.21875 17.144531 21.21875 25.898438 21.820312 34.292969 C 20.140625 34.292969 20.140625 34.53125 20.140625 32.855469 C 20.140625 31.773438 20.140625 30.574219 20.019531 29.496094 C 19.78125 27.097656 19.660156 24.699219 19.300781 22.300781 C 18.578125 17.746094 17.140625 13.429688 15.460938 9.234375 M 15.21875 9.351562 C 17.859375 15.828125 19.300781 22.300781 19.78125 29.257812 C 18.339844 26.019531 14.621094 23.980469 11.140625 25.300781 C 7.777344 26.738281 6.699219 30.335938 5.980469 33.453125 C 5.140625 28.898438 4.417969 23.859375 5.980469 19.304688 C 7.539062 14.75 10.539062 11.269531 15.21875 9.351562 M 24.699219 9.234375 C 29.261719 10.792969 31.300781 14.148438 33.339844 18.34375 C 35.5 22.78125 36.339844 26.976562 35.621094 31.894531 C 34.0625 25.058594 24.582031 23.140625 21.941406 30.214844 C 21.941406 23.023438 22.179688 16.1875 24.699219 9.234375 C 24.582031 9.234375 24.699219 9.234375 24.699219 9.234375 M 35.621094 32.613281 C 35.5 33.332031 35.261719 33.933594 35.140625 34.652344 C 31.421875 30.933594 27.339844 29.257812 22.179688 30.695312 C 23.5 27.339844 26.140625 25.660156 29.742188 26.140625 C 32.980469 26.5 34.660156 29.855469 35.621094 32.613281 M 34.902344 35.011719 C 34.421875 36.8125 29.5 36.332031 28.179688 35.972656 C 25.421875 35.25 23.742188 33.574219 21.941406 31.535156 C 23.261719 32.015625 24.699219 32.253906 26.140625 32.492188 C 27.101562 32.734375 26.859375 33.574219 27.820312 33.8125 C 28.0625 33.933594 28.539062 33.691406 28.78125 33.453125 C 29.140625 32.855469 29.742188 33.574219 30.339844 33.8125 C 31.902344 34.414062 33.339844 35.011719 34.902344 35.011719 M 34.660156 35.730469 C 33.699219 38.847656 31.300781 41.367188 28.660156 43.40625 C 27.101562 41.246094 25.539062 39.207031 24.101562 37.050781 C 23.5 36.210938 22.898438 35.371094 22.300781 34.53125 C 21.941406 34.054688 22.179688 32.734375 22.058594 32.132812 C 25.300781 35.851562 29.859375 37.648438 34.660156 35.730469 M 33.460938 38.96875 C 31.0625 44.003906 26.5 50.839844 20.5 51.917969 C 17.738281 52.398438 14.378906 48.921875 12.9375 47.003906 C 10.777344 44.484375 9.21875 41.726562 7.777344 38.730469 C 10.777344 42.925781 15.097656 46.882812 20.5 46.882812 C 26.019531 47.003906 30.222656 42.925781 33.460938 38.96875 M 7.179688 37.53125 C 6.9375 36.8125 6.578125 36.210938 6.457031 35.492188 C 10.777344 38.25 17.140625 36.089844 19.78125 32.015625 C 19.78125 32.613281 20.140625 34.054688 19.78125 34.53125 C 19.058594 35.492188 18.21875 36.570312 17.5 37.53125 C 16.417969 38.96875 15.339844 40.40625 14.257812 41.847656 C 13.898438 42.324219 12.699219 43.523438 12.9375 43.886719 C 10.660156 42.085938 8.980469 39.929688 7.179688 37.53125 M 6.457031 35.011719 C 5.738281 33.8125 8.980469 33.8125 9.820312 33.691406 C 10.660156 33.574219 11.621094 33.332031 12.460938 33.214844 C 13.179688 33.09375 13.058594 33.574219 13.660156 33.8125 C 14.859375 34.171875 14.738281 32.855469 15.460938 32.613281 C 16.898438 32.132812 18.460938 32.015625 19.898438 31.535156 C 16.660156 35.492188 11.257812 37.890625 6.457031 35.011719 M 25.78125 43.285156 C 22.898438 41.367188 18.578125 41.964844 15.578125 43.285156 C 18.941406 43.285156 22.421875 43.285156 25.78125 43.285156 M 15.578125 43.523438 C 18.578125 45.683594 22.78125 45.804688 25.78125 43.523438 C 22.421875 43.523438 18.941406 43.523438 15.578125 43.523438 M 14.378906 43.046875 C 18.21875 40.765625 23.019531 40.527344 26.980469 42.445312 C 23.261719 39.449219 17.980469 39.929688 14.378906 43.046875 M 15.578125 42.6875 C 14.738281 43.046875 13.898438 43.40625 13.179688 43.886719 C 15.339844 45.5625 18.21875 46.761719 20.980469 46.523438 C 23.859375 46.28125 26.140625 45.082031 28.539062 43.523438 C 25.058594 41.128906 19.417969 40.167969 15.578125 42.6875 M 26.621094 41.726562 C 26.980469 41.964844 27.339844 42.324219 27.699219 42.566406 C 26.621094 41.007812 25.421875 39.449219 24.339844 37.890625 C 23.742188 37.050781 23.019531 36.089844 22.421875 35.25 C 21.820312 34.414062 21.820312 34.53125 20.738281 34.53125 C 19.300781 34.53125 18.21875 36.929688 17.378906 38.128906 C 16.179688 39.6875 14.980469 41.367188 13.78125 42.925781 C 15.820312 41.488281 17.859375 40.289062 20.378906 40.046875 C 22.78125 39.808594 24.699219 40.765625 26.621094 41.726562 M 19.898438 31.296875 C 19.78125 30.457031 14.378906 30.933594 13.539062 31.175781 C 11.257812 31.65625 9.097656 32.492188 7.179688 33.933594 C 8.738281 33.8125 10.300781 33.574219 11.859375 33.214844 C 12.460938 33.09375 12.820312 33.09375 12.9375 32.613281 C 13.058594 32.253906 13.300781 32.015625 13.660156 31.894531 C 14.621094 31.535156 14.738281 32.613281 15.699219 32.375 C 17.019531 31.894531 18.578125 31.65625 19.898438 31.296875 M 19.898438 30.695312 C 19.660156 27.457031 15.460938 24.460938 12.339844 25.300781 C 8.378906 26.378906 6.9375 30.097656 6.339844 33.8125 C 7.179688 33.8125 8.257812 32.734375 8.980469 32.375 C 10.179688 31.773438 11.378906 31.296875 12.699219 31.054688 C 14.980469 30.457031 17.378906 30.457031 19.898438 30.695312 M 21.941406 30.933594 C 21.941406 31.65625 24.820312 32.015625 25.539062 32.132812 C 26.140625 32.253906 26.621094 32.613281 27.101562 32.253906 C 27.339844 32.015625 27.699219 31.773438 28.0625 31.894531 C 28.539062 32.015625 28.539062 32.253906 28.902344 32.613281 C 29.019531 32.734375 28.902344 32.972656 29.019531 33.09375 C 29.261719 33.332031 29.742188 33.453125 30.101562 33.691406 C 31.539062 34.292969 33.222656 34.890625 34.78125 35.011719 C 31.539062 30.816406 26.742188 29.617188 21.941406 30.933594 M 4.539062 19.542969 C 2.980469 22.183594 1.539062 24.941406 0.21875 27.699219 C 0.21875 19.542969 2.019531 10.792969 8.019531 4.917969 C 13.898438 -0.960938 22.898438 -1.558594 29.621094 3.117188 C 37.300781 8.394531 39.582031 18.464844 40.78125 27.097656 C 38.863281 24.582031 36.820312 21.941406 34.902344 19.425781 C 35.621094 21.222656 36.339844 22.902344 37.179688 24.582031 C 38.019531 26.257812 39.582031 28.296875 39.941406 30.097656 C 40.300781 31.773438 39.460938 34.171875 39.101562 35.730469 C 38.742188 37.648438 38.261719 39.449219 37.660156 41.246094 C 37.300781 42.324219 36.941406 43.285156 36.582031 44.363281 C 36.339844 45.082031 37.660156 46.164062 38.140625 46.761719 C 38.863281 47.601562 39.941406 48.203125 38.980469 49.039062 C 38.261719 49.640625 37.542969 50.238281 36.703125 50.71875 C 34.902344 51.679688 33.101562 51.796875 31.179688 50.960938 C 30.460938 50.597656 26.742188 48.441406 27.820312 47.722656 C 30.460938 50.839844 33.941406 52.039062 37.421875 49.761719 C 37.78125 49.519531 38.980469 48.800781 38.742188 48.441406 C 37.902344 47.363281 37.0625 46.28125 36.101562 45.203125 C 35.261719 44.246094 37.0625 40.886719 37.421875 39.566406 C 38.019531 37.769531 38.5 35.851562 38.863281 33.933594 C 38.980469 32.972656 39.101562 32.015625 39.222656 31.054688 C 39.339844 29.855469 38.980469 29.496094 38.5 28.539062 C 36.703125 25.300781 34.179688 21.582031 33.941406 17.867188 C 36.339844 20.265625 38.140625 22.902344 40.0625 25.660156 C 39.582031 18.105469 35.980469 8.871094 29.742188 4.078125 C 23.140625 -1.078125 13.300781 -0.597656 7.660156 5.996094 C 3.097656 11.390625 0.21875 19.304688 0.457031 26.378906 C 1.539062 24.101562 2.859375 19.785156 5.140625 18.34375 C 4.058594 22.300781 2.738281 26.378906 1.417969 30.214844 C 0.820312 31.894531 1.417969 34.171875 1.898438 35.730469 C 2.378906 37.648438 3.097656 39.328125 3.9375 41.128906 C 4.296875 41.964844 4.898438 42.6875 5.257812 43.523438 C 5.859375 44.484375 4.417969 45.203125 3.699219 46.042969 C 3.339844 46.402344 2.257812 47.121094 2.257812 47.601562 C 2.257812 48.203125 3.699219 49.640625 4.179688 50.121094 C 7.058594 53.238281 11.140625 52.519531 13.898438 49.640625 C 14.140625 49.402344 14.257812 49.28125 14.5 49.039062 C 14.621094 49.039062 14.859375 49.28125 14.980469 49.402344 C 12.339844 51.796875 8.859375 54.195312 5.378906 51.679688 C 4.898438 51.320312 1.179688 47.839844 1.660156 47.363281 C 2.5 46.523438 3.457031 45.5625 4.296875 44.722656 C 5.257812 43.765625 5.019531 43.765625 4.296875 42.445312 C 2.257812 38.847656 1.179688 35.132812 0.578125 31.054688 C 0.339844 29.375 1.898438 26.859375 2.378906 25.300781 C 3.097656 23.621094 3.820312 21.582031 4.539062 19.542969 M 8.019531 46.164062 C 9.820312 45.324219 10.898438 47.480469 9.097656 48.320312 C 7.179688 49.28125 6.339844 47.242188 8.019531 46.164062 M 8.140625 46.402344 C 6.699219 47.242188 7.417969 48.800781 8.980469 48.082031 C 10.417969 47.363281 9.578125 45.804688 8.140625 46.402344 M 31.78125 46.882812 C 33.101562 45.324219 34.902344 46.761719 33.699219 48.320312 C 32.5 50 30.582031 48.441406 31.78125 46.882812 M 32.140625 46.761719 C 31.179688 47.839844 31.902344 49.519531 33.222656 48.320312 C 34.421875 47.363281 33.582031 45.683594 32.140625 46.761719 M 5.257812 17.867188 C 5.378906 17.746094 5.5 17.746094 5.617188 17.625 C 4.898438 21.582031 3.339844 25.417969 2.136719 29.257812 C 1.539062 31.296875 1.660156 32.855469 2.019531 35.011719 C 2.378906 36.929688 2.980469 38.847656 3.9375 40.527344 C 4.417969 41.367188 4.777344 42.085938 5.257812 42.925781 C 5.980469 44.003906 6.21875 44.003906 5.257812 44.964844 C 4.296875 45.804688 3.457031 46.761719 2.5 47.601562 C 2.257812 47.839844 3.9375 49.761719 4.179688 50 C 7.179688 52.996094 10.539062 52.277344 13.539062 49.640625 C 13.78125 49.519531 13.898438 49.28125 14.140625 49.160156 C 8.738281 43.765625 5.019531 35.972656 4.777344 28.417969 C 4.539062 21.101562 6.578125 12.46875 14.257812 9.472656 C 14.980469 9.234375 15.820312 8.871094 16.539062 8.753906 C 15.699219 7.3125 14.980469 5.996094 14.140625 4.554688 C 13.78125 3.835938 13.300781 3.238281 12.9375 2.519531 C 12.820312 2.277344 11.738281 2.996094 11.5 3.117188 C 9.339844 4.4375 7.417969 6.59375 5.980469 8.753906 C 2.859375 13.667969 1.660156 19.066406 0.9375 24.699219 C 2.019531 22.542969 3.097656 19.183594 5.257812 17.867188 M 28.179688 47.363281 C 30.222656 49.519531 33.222656 51.679688 36.339844 50 C 37.0625 49.640625 37.78125 49.160156 38.382812 48.5625 C 38.980469 48.082031 37.78125 47.242188 37.421875 46.761719 C 37.0625 46.28125 35.742188 45.203125 35.621094 44.605469 C 35.5 44.125 36.101562 43.164062 36.222656 42.6875 C 37.300781 39.6875 38.382812 36.570312 38.742188 33.332031 C 38.863281 32.375 38.980469 31.535156 39.101562 30.574219 C 39.222656 29.734375 38.742188 29.257812 38.382812 28.539062 C 37.542969 27.097656 36.703125 25.539062 35.980469 24.101562 C 37.300781 27.816406 36.222656 32.613281 35.019531 36.210938 C 33.460938 40.527344 31.0625 44.125 28.179688 47.363281 M 33.820312 18.585938 C 33.699219 18.105469 33.699219 17.625 33.699219 17.144531 C 35.980469 19.425781 37.78125 21.824219 39.582031 24.339844 C 38.621094 18.703125 37.0625 13.429688 33.699219 8.632812 C 32.019531 6.234375 29.980469 4.316406 27.582031 2.878906 C 27.460938 2.878906 26.140625 2.039062 26.140625 2.160156 C 25.78125 2.757812 25.421875 3.355469 25.058594 3.957031 C 24.21875 5.515625 23.378906 6.953125 22.539062 8.511719 C 28.539062 9.113281 31.539062 13.550781 33.820312 18.585938 M 22.179688 8.394531 C 23.378906 6.234375 24.582031 4.078125 25.902344 1.917969 C 25.539062 1.796875 24.820312 1.199219 24.582031 1.679688 C 24.21875 2.398438 23.742188 3.117188 23.378906 3.957031 C 22.539062 5.394531 21.820312 6.953125 20.980469 8.394531 C 21.460938 8.394531 21.820312 8.394531 22.179688 8.394531 M 20.738281 8.394531 C 21.941406 6.113281 23.261719 3.835938 24.460938 1.4375 C 22.898438 0.71875 22.660156 2.519531 22.058594 3.835938 C 21.339844 5.277344 20.5 6.835938 19.78125 8.273438 C 20.140625 8.273438 20.378906 8.273438 20.738281 8.394531 M 19.300781 8.273438 C 18.578125 6.835938 17.738281 5.515625 17.019531 4.078125 C 16.539062 3.355469 16.179688 2.519531 15.699219 1.796875 C 15.339844 1.199219 15.21875 1.320312 14.378906 1.558594 C 15.21875 2.996094 15.941406 4.316406 16.78125 5.753906 C 17.140625 6.476562 17.621094 7.195312 17.980469 7.914062 C 18.339844 8.511719 18.820312 8.273438 19.300781 8.273438 M 17.980469 8.394531 C 17.257812 7.074219 16.539062 5.875 15.820312 4.554688 C 15.21875 3.476562 14.738281 1.320312 13.300781 2.160156 C 14.019531 3.476562 14.738281 4.796875 15.460938 5.996094 C 16.179688 7.3125 16.417969 8.753906 17.980469 8.394531 M 23.140625 1.078125 C 20.738281 0.597656 18.101562 0.480469 15.699219 1.320312 C 17.019531 3.597656 18.339844 5.875 19.539062 8.152344 C 20.738281 5.753906 21.941406 3.476562 23.140625 1.078125 M 17.257812 51.320312 C 17.257812 55.394531 17.378906 59.472656 17.378906 63.550781 C 18.578125 63.429688 18.460938 63.550781 18.460938 62.46875 C 18.460938 60.910156 18.460938 59.351562 18.460938 57.675781 C 18.460938 56.113281 18.460938 54.554688 18.460938 52.878906 C 18.460938 51.679688 18.21875 52.039062 17.257812 51.320312 M 18.820312 63.429688 C 19.539062 63.550781 19.179688 58.394531 19.179688 57.554688 C 19.179688 56.835938 19.660156 52.160156 18.820312 52.039062 C 18.820312 55.875 18.820312 59.59375 18.820312 63.429688 M 19.417969 63.429688 C 19.78125 63.429688 21.941406 63.550781 21.941406 63.1875 C 21.941406 62.109375 21.941406 60.910156 21.941406 59.832031 C 21.941406 57.195312 21.941406 54.554688 21.941406 51.917969 C 21.101562 52.160156 20.261719 52.398438 19.417969 52.277344 C 19.417969 55.996094 19.417969 59.710938 19.417969 63.429688 M 22.179688 63.308594 C 22.898438 63.429688 22.539062 58.511719 22.539062 57.914062 C 22.539062 55.875 22.539062 53.71875 22.539062 51.679688 C 21.582031 51.796875 22.179688 61.871094 22.179688 63.308594 M 22.898438 63.308594 C 23.5 63.308594 24.101562 63.308594 24.699219 63.308594 C 23.742188 59.351562 23.980469 55.035156 23.742188 50.960938 C 22.898438 51.4375 22.898438 51.320312 22.898438 52.398438 C 22.898438 53.71875 22.898438 55.035156 22.898438 56.355469 C 22.898438 58.753906 22.898438 61.03125 22.898438 63.308594 M 17.257812 63.789062 C 15.097656 67.265625 12.699219 70.625 10.058594 73.859375 C 9.339844 74.820312 8.617188 75.78125 7.777344 76.617188 C 7.417969 77.097656 7.898438 77.457031 8.257812 77.9375 C 9.699219 80.335938 11.140625 82.855469 12.578125 85.25 C 13.898438 87.53125 15.21875 89.808594 16.660156 91.964844 C 17.5 93.285156 15.339844 95.445312 14.621094 96.644531 C 14.378906 97.003906 15.941406 98.800781 16.300781 99.160156 C 16.898438 100 17.621094 99.761719 18.699219 99.761719 C 20.019531 99.761719 21.460938 99.761719 22.78125 99.761719 C 23.261719 99.761719 23.980469 98.082031 24.21875 97.601562 C 24.339844 97.363281 24.582031 97.121094 24.699219 96.882812 C 23.742188 96.882812 15.820312 96.761719 15.941406 96.523438 C 16.058594 95.921875 23.859375 96.402344 24.820312 96.402344 C 24.339844 95.445312 23.859375 94.484375 23.5 93.40625 C 22.898438 92.207031 23.378906 91.964844 24.101562 90.765625 C 25.058594 89.207031 26.019531 87.648438 27.101562 86.089844 C 28.300781 84.414062 29.5 82.613281 30.699219 80.933594 C 31.179688 80.214844 31.78125 79.496094 32.261719 78.898438 C 32.859375 78.058594 34.0625 77.457031 33.222656 76.5 C 30.582031 73.5 28.421875 70.382812 26.5 66.90625 C 26.019531 65.945312 25.421875 63.308594 24.339844 63.308594 C 21.820312 63.789062 19.539062 63.789062 17.257812 63.789062 M 20.621094 70.265625 C 21.339844 71.101562 26.621094 76.976562 26.261719 77.457031 C 24.101562 80.214844 21.941406 83.09375 19.78125 85.851562 C 18.941406 84.53125 18.101562 83.214844 17.140625 82.015625 C 16.539062 81.054688 15.941406 80.214844 15.339844 79.257812 C 15.21875 79.015625 14.378906 78.175781 14.378906 77.816406 C 14.378906 77.457031 15.339844 76.617188 15.578125 76.257812 C 16.179688 75.539062 16.78125 74.699219 17.378906 73.980469 C 18.460938 72.660156 19.539062 71.34375 20.621094 70.265625 "/>
</g>
</svg>
