<?xml version="1.0" encoding="UTF-8"?>
<svg xmlns="http://www.w3.org/2000/svg" xmlns:xlink="http://www.w3.org/1999/xlink" width="100px" height="100px" viewBox="0 0 100 100" version="1.1">
<g id="surface1">
<path style=" stroke:none;fill-rule:evenodd;fill:rgb(8.235294%,9.019608%,9.411765%);fill-opacity:1;" d="M 56.511719 43.488281 C 59.707031 47.175781 60.195312 52.824219 56.511719 56.511719 C 53.070312 59.949219 46.929688 60.195312 43.488281 56.511719 C 40.050781 53.070312 40.050781 46.929688 43.488281 43.488281 C 47.175781 39.804688 52.824219 40.050781 56.511719 43.488281 M 61.179688 38.574219 C 53.070312 30.957031 39.3125 33.167969 35.136719 43.734375 C 30.957031 54.300781 39.066406 66.09375 50.367188 65.601562 C 56.511719 65.355469 62.40625 61.425781 64.621094 55.773438 C 67.320312 49.878906 65.601562 43.488281 61.179688 38.574219 M 53.5625 46.4375 C 49.140625 42.015625 42.015625 48.894531 46.4375 53.316406 C 50.859375 57.984375 57.984375 51.105469 53.5625 46.4375 M 48.15625 66.832031 C 45.699219 71.5 43.734375 76.414062 41.523438 81.082031 C 40.785156 82.554688 40.292969 83.785156 39.558594 85.257812 C 39.3125 85.996094 38.574219 88.453125 38.082031 88.453125 C 35.378906 89.1875 32.679688 90.171875 29.976562 90.910156 C 19.902344 93.859375 10.074219 96.804688 0 100 C 2.949219 89.925781 5.898438 80.097656 9.089844 70.023438 C 9.828125 67.320312 10.8125 64.621094 11.546875 61.917969 C 11.792969 60.933594 17.445312 59.214844 18.425781 58.722656 C 23.339844 56.511719 28.253906 54.300781 32.925781 51.84375 C 32.925781 53.070312 33.414062 54.054688 33.660156 55.035156 C 33.660156 55.773438 34.152344 56.019531 33.414062 56.265625 C 32.679688 56.511719 32.1875 56.757812 31.449219 57.25 C 29.484375 58.230469 27.519531 58.96875 25.796875 59.949219 C 23.832031 60.933594 21.621094 61.917969 19.65625 62.898438 C 18.671875 63.390625 17.691406 63.882812 16.707031 64.128906 C 14.988281 64.863281 14.988281 64.863281 14.25 66.585938 C 11.300781 75.675781 8.84375 84.765625 6.140625 93.859375 C 15.480469 90.910156 24.570312 88.453125 33.414062 85.503906 C 34.890625 85.011719 34.890625 85.011719 35.625 83.539062 C 36.117188 82.554688 36.609375 81.328125 37.101562 80.34375 C 38.082031 78.378906 39.066406 76.660156 39.804688 74.691406 C 40.785156 72.726562 41.769531 70.515625 42.75 68.550781 C 43.242188 67.566406 43.488281 66.09375 44.71875 66.339844 C 45.945312 66.585938 46.929688 66.832031 48.15625 66.832031 M 32.925781 48.15625 C 28.253906 45.945312 23.585938 43.734375 18.917969 41.769531 C 17.445312 41.03125 16.214844 40.539062 14.742188 39.804688 C 13.757812 39.3125 11.792969 38.820312 11.300781 38.082031 C 10.566406 37.101562 10.320312 35.136719 10.074219 33.90625 C 9.582031 32.679688 9.335938 31.203125 8.84375 29.976562 C 5.898438 19.902344 3.195312 10.074219 0 0 C 10.074219 3.195312 19.902344 5.898438 29.976562 9.089844 C 32.679688 9.828125 35.378906 10.8125 38.082031 11.546875 C 38.574219 11.792969 39.3125 14.003906 39.558594 14.496094 C 40.292969 15.96875 41.03125 17.445312 41.523438 18.917969 C 43.734375 23.832031 45.945312 28.5 48.15625 33.167969 C 47.175781 33.167969 45.945312 33.660156 44.964844 33.660156 C 44.226562 33.660156 43.980469 34.398438 43.734375 33.660156 C 43.488281 32.925781 43.242188 32.433594 42.75 31.695312 C 42.015625 29.730469 41.03125 28.011719 40.050781 26.042969 C 39.066406 24.078125 38.082031 21.867188 37.101562 19.65625 C 36.117188 17.691406 35.625 14.988281 33.660156 14.496094 C 24.570312 11.792969 15.480469 9.089844 6.386719 6.386719 C 9.089844 15.480469 11.792969 24.324219 14.496094 33.414062 C 14.988281 34.890625 14.742188 35.136719 16.214844 35.871094 C 17.199219 36.117188 18.425781 36.609375 19.65625 37.101562 C 21.621094 38.082031 23.832031 39.066406 25.796875 40.050781 C 27.765625 41.03125 29.730469 41.769531 31.695312 42.75 C 32.679688 43.242188 34.152344 43.488281 33.90625 44.71875 C 33.414062 45.699219 33.167969 46.929688 32.925781 48.15625 M 51.597656 32.925781 C 54.054688 28.253906 56.265625 23.339844 58.230469 18.671875 C 58.96875 17.445312 59.707031 16.214844 60.195312 14.742188 C 60.6875 13.757812 60.933594 12.039062 61.671875 11.300781 C 62.40625 10.566406 64.863281 10.320312 65.847656 10.074219 C 67.320312 9.828125 68.796875 9.335938 70.023438 9.089844 C 80.097656 6.140625 89.925781 2.949219 100 0 C 97.050781 10.074219 93.859375 19.902344 90.910156 29.976562 C 90.171875 32.679688 89.1875 35.378906 88.453125 38.082031 C 88.207031 39.066406 82.800781 40.785156 81.574219 41.277344 C 76.660156 43.734375 71.746094 45.699219 66.832031 48.15625 C 66.832031 46.929688 66.339844 45.945312 66.09375 44.964844 C 66.09375 44.226562 65.601562 43.980469 66.339844 43.734375 C 67.074219 43.488281 67.566406 43.242188 68.304688 42.75 C 70.269531 41.769531 72.234375 40.785156 74.203125 40.050781 C 76.167969 39.066406 78.132812 38.082031 80.097656 37.347656 C 81.082031 36.855469 82.0625 36.363281 83.046875 36.117188 C 84.765625 35.378906 85.011719 35.378906 85.503906 33.414062 C 88.207031 24.570312 90.910156 15.480469 93.613281 6.386719 C 84.519531 9.089844 75.675781 11.792969 66.585938 14.496094 C 65.109375 14.988281 64.863281 14.988281 64.128906 16.460938 C 63.636719 17.445312 63.144531 18.671875 62.652344 19.65625 C 61.917969 21.621094 60.933594 23.339844 59.949219 25.308594 C 58.96875 27.519531 57.984375 29.484375 57.003906 31.695312 C 56.511719 32.679688 56.265625 34.152344 55.035156 33.90625 C 54.054688 33.414062 52.824219 33.167969 51.597656 32.925781 M 66.832031 51.84375 C 71.5 54.054688 76.167969 56.265625 80.835938 58.230469 C 83.292969 59.460938 85.75 60.6875 88.453125 61.671875 C 89.433594 62.164062 90.417969 68.058594 90.910156 69.289062 C 94.101562 79.359375 96.804688 89.679688 100 99.753906 C 89.925781 96.804688 80.097656 93.859375 70.023438 90.664062 C 67.320312 89.925781 64.621094 88.945312 61.917969 88.207031 C 61.425781 87.960938 60.6875 85.75 60.195312 85.011719 C 59.460938 83.539062 58.96875 82.308594 58.230469 80.835938 C 56.019531 75.921875 53.808594 71.253906 51.597656 66.585938 C 52.578125 66.585938 53.808594 66.09375 54.792969 65.847656 C 55.527344 65.847656 55.527344 65.109375 56.019531 65.847656 C 56.265625 66.585938 56.757812 67.074219 57.003906 67.8125 C 57.984375 69.777344 58.722656 71.5 59.707031 73.464844 C 60.6875 75.429688 61.671875 77.640625 62.652344 79.851562 C 63.636719 81.816406 64.128906 84.519531 66.09375 85.011719 C 75.183594 87.714844 84.519531 90.417969 93.613281 93.367188 C 90.910156 84.273438 88.207031 75.429688 85.503906 66.339844 C 85.011719 64.863281 85.257812 64.621094 83.785156 63.882812 C 82.554688 63.390625 81.574219 62.898438 80.34375 62.40625 C 78.378906 61.425781 76.167969 60.441406 74.203125 59.460938 C 72.234375 58.476562 70.269531 57.492188 68.304688 56.757812 C 67.074219 56.265625 65.601562 56.265625 66.09375 54.792969 C 66.585938 54.300781 66.832031 52.824219 66.832031 51.84375 M 42.996094 65.601562 C 41.277344 68.796875 39.804688 71.988281 38.082031 75.429688 C 37.347656 76.902344 36.609375 78.625 35.625 80.34375 C 34.644531 82.308594 33.167969 82.554688 30.957031 83.292969 C 23.339844 86.242188 15.480469 89.1875 7.617188 92.382812 C 10.566406 84.765625 13.511719 77.148438 16.460938 69.53125 C 17.199219 67.566406 17.445312 65.847656 19.164062 64.863281 C 20.882812 64.128906 22.359375 63.390625 24.078125 62.40625 C 27.519531 60.6875 30.710938 58.96875 34.152344 57.25 C 34.644531 58.476562 35.378906 59.949219 36.363281 60.933594 C 33.90625 62.164062 31.203125 63.390625 28.746094 64.621094 C 27.519531 65.355469 26.289062 65.847656 25.0625 66.585938 C 24.324219 66.832031 21.375 68.058594 21.128906 68.550781 C 19.164062 73.957031 16.953125 79.359375 14.988281 85.011719 C 20.394531 82.800781 25.796875 80.589844 31.449219 78.625 C 32.1875 78.378906 33.167969 75.429688 33.414062 74.9375 C 34.152344 73.710938 34.644531 72.480469 35.378906 71.253906 C 36.609375 68.796875 37.835938 66.09375 39.3125 63.636719 C 40.292969 64.128906 41.769531 64.863281 42.996094 65.601562 M 34.398438 42.996094 C 30.957031 41.523438 27.519531 39.804688 24.324219 38.082031 C 22.851562 37.347656 21.128906 36.609375 19.65625 35.871094 C 17.691406 34.890625 17.445312 33.414062 16.707031 31.203125 C 13.757812 23.339844 10.8125 15.480469 7.863281 7.863281 C 15.726562 10.8125 23.339844 13.757812 31.203125 16.707031 C 33.414062 17.445312 34.644531 17.691406 35.625 19.902344 C 36.363281 21.375 37.347656 22.851562 37.835938 24.570312 C 39.558594 28.011719 41.277344 31.203125 42.75 34.644531 C 41.523438 35.136719 40.292969 35.871094 39.066406 36.855469 C 37.835938 34.398438 36.609375 31.695312 35.378906 29.238281 C 34.644531 28.011719 34.152344 26.78125 33.660156 25.554688 C 33.414062 24.816406 32.1875 22.113281 31.695312 21.867188 C 26.289062 19.65625 20.882812 17.691406 15.234375 15.480469 C 17.445312 20.882812 19.410156 26.535156 21.621094 31.941406 C 21.867188 32.679688 24.570312 33.660156 25.308594 33.90625 C 26.535156 34.644531 27.765625 35.136719 28.992188 35.625 C 31.695312 36.855469 34.152344 38.328125 36.609375 39.558594 C 35.871094 40.539062 35.136719 41.523438 34.398438 42.996094 M 57.003906 34.398438 C 58.722656 31.203125 60.195312 27.765625 61.917969 24.324219 C 62.652344 22.851562 63.390625 21.128906 64.128906 19.65625 C 65.109375 17.691406 66.585938 17.445312 68.550781 16.707031 C 76.414062 13.757812 84.03125 10.8125 91.890625 7.617188 C 88.699219 15.234375 85.996094 22.851562 83.046875 30.46875 C 82.308594 32.433594 82.0625 34.152344 80.34375 35.136719 C 78.625 35.871094 77.148438 36.855469 75.429688 37.59375 C 71.988281 39.3125 68.796875 41.03125 65.355469 42.75 C 64.863281 41.523438 64.128906 40.050781 63.144531 39.066406 C 65.601562 37.835938 68.304688 36.609375 70.761719 35.378906 C 71.988281 34.644531 73.21875 34.152344 74.445312 33.414062 C 75.183594 33.167969 78.132812 32.1875 78.378906 31.449219 C 80.34375 26.042969 82.554688 20.640625 84.519531 15.234375 C 79.117188 17.199219 73.710938 19.410156 68.058594 21.375 C 67.320312 21.621094 66.339844 24.324219 66.09375 25.0625 C 65.601562 26.289062 64.863281 27.519531 64.128906 28.746094 C 62.898438 31.203125 61.425781 33.90625 60.195312 36.363281 C 59.707031 35.625 58.230469 34.890625 57.003906 34.398438 M 65.355469 57.003906 C 68.796875 58.722656 71.988281 60.441406 75.429688 61.917969 C 76.902344 62.652344 78.378906 63.636719 80.097656 64.128906 C 82.308594 65.109375 82.308594 66.339844 83.292969 68.550781 C 86.242188 76.414062 89.1875 84.03125 92.136719 91.890625 C 84.273438 88.945312 76.660156 85.996094 68.796875 83.046875 C 66.585938 82.308594 65.355469 82.0625 64.375 80.097656 C 63.636719 78.625 62.898438 76.902344 62.164062 75.429688 C 60.441406 71.988281 58.722656 68.796875 57.25 65.355469 C 58.476562 64.863281 59.707031 64.128906 60.933594 63.144531 C 62.164062 65.601562 63.390625 68.304688 64.621094 70.761719 C 65.355469 71.988281 65.847656 73.21875 66.339844 74.445312 C 66.832031 75.429688 67.566406 77.394531 68.304688 78.132812 C 69.042969 78.871094 71.5 79.359375 72.480469 79.605469 C 73.957031 80.097656 75.183594 80.835938 76.660156 81.328125 C 79.359375 82.308594 82.0625 83.292969 85.011719 84.519531 C 82.800781 79.117188 80.835938 73.464844 78.625 68.058594 C 78.378906 67.320312 75.675781 66.339844 74.9375 66.09375 C 73.710938 65.355469 72.480469 64.863281 71.253906 64.375 C 68.550781 63.144531 66.09375 61.671875 63.636719 60.441406 C 64.128906 59.460938 64.863281 58.476562 65.355469 57.003906 M 58.476562 41.523438 C 50.613281 33.167969 36.363281 40.785156 38.082031 51.84375 C 39.804688 63.390625 54.792969 65.355469 60.6875 55.773438 C 63.144531 51.351562 62.164062 44.964844 58.476562 41.523438 "/>
</g>
</svg>
