<?xml version="1.0" encoding="UTF-8"?>
<svg xmlns="http://www.w3.org/2000/svg" xmlns:xlink="http://www.w3.org/1999/xlink" width="57px" height="99px" viewBox="0 0 57 99" version="1.1">
<g id="surface1">
<path style=" stroke:none;fill-rule:evenodd;fill:rgb(8.235294%,9.019608%,9.411765%);fill-opacity:1;" d="M 45.296875 12.84375 C 41.28125 6.664062 35.195312 -1.695312 26.796875 0.242188 C 19.128906 2.058594 12.796875 9.210938 9.269531 15.753906 C 8.539062 17.328125 7.808594 18.78125 7.199219 20.355469 C 0.992188 35.382812 -1.929688 52.710938 1.84375 68.707031 C 5.007812 82.035156 15.71875 102.757812 32.636719 98.515625 C 49.4375 94.394531 55.886719 75.855469 56.738281 60.464844 C 57.589844 44.351562 54.304688 26.539062 45.296875 12.84375 Z M 10.605469 18.296875 C 10.972656 17.449219 11.457031 16.480469 11.945312 15.632812 C 12.917969 13.933594 14.136719 12.359375 15.355469 10.90625 C 17.910156 7.753906 21.195312 5.453125 24.605469 3.394531 C 24.726562 16.117188 24.847656 28.71875 24.96875 41.441406 C 20.589844 34.171875 15.597656 27.265625 10.242188 20.722656 C 9.511719 19.75 10.242188 19.265625 10.605469 18.296875 Z M 6.589844 76.460938 C 0.625 61.070312 1.964844 43.988281 6.589844 28.476562 C 8.660156 30.898438 10.851562 33.203125 12.917969 35.625 C 15.71875 38.777344 18.640625 42.046875 20.953125 45.683594 C 23.265625 49.316406 22.535156 52.710938 21.074219 56.589844 C 19.613281 60.34375 17.179688 63.859375 14.746094 67.132812 C 12.1875 70.402344 9.632812 73.675781 6.589844 76.460938 Z M 15.355469 90.152344 C 14.746094 89.546875 9.753906 84.335938 10.363281 83.367188 C 12.066406 80.824219 13.773438 78.398438 15.476562 75.855469 C 19.003906 70.765625 22.535156 65.675781 25.214844 60.222656 C 25.335938 72.339844 25.457031 84.335938 25.578125 96.457031 C 21.5625 95.363281 18.273438 93.183594 15.355469 90.152344 Z M 28.742188 96.699219 C 26.917969 96.699219 26.796875 96.820312 26.796875 95.121094 C 26.796875 90.03125 26.675781 84.945312 26.675781 79.855469 C 26.675781 73.917969 26.550781 67.980469 26.550781 62.042969 C 26.550781 60.585938 26.550781 59.253906 26.550781 57.800781 C 26.550781 56.46875 27.769531 54.648438 28.011719 53.316406 C 28.378906 51.5 28.742188 49.5625 28.378906 47.742188 C 28.257812 46.773438 27.769531 45.925781 27.28125 45.199219 C 27.039062 44.714844 26.308594 43.988281 26.308594 43.378906 C 26.308594 39.625 26.1875 35.746094 26.1875 31.988281 C 26.066406 22.296875 25.945312 12.601562 25.820312 2.90625 C 27.769531 2.542969 29.351562 2.179688 31.421875 2.421875 C 31.910156 2.542969 31.664062 4.363281 31.664062 4.726562 C 31.664062 9.453125 31.785156 14.296875 31.785156 19.023438 C 31.785156 24.597656 31.910156 30.171875 31.910156 35.746094 C 31.910156 37.320312 31.910156 39.019531 31.910156 40.59375 C 31.910156 41.683594 31.421875 42.53125 31.054688 43.5 C 29.71875 47.378906 29.59375 51.015625 31.054688 54.890625 C 31.542969 56.105469 32.03125 56.953125 32.152344 58.285156 C 32.152344 60.222656 32.152344 62.164062 32.152344 64.101562 C 32.273438 74.644531 32.394531 85.066406 32.394531 95.605469 C 32.515625 96.699219 29.351562 96.699219 28.742188 96.699219 Z M 32.761719 2.90625 C 35.804688 4.242188 38.480469 7.269531 40.429688 9.816406 C 41.644531 11.390625 42.863281 13.085938 43.957031 14.90625 C 44.203125 15.390625 46.757812 19.265625 46.515625 19.628906 C 41.644531 25.929688 36.898438 32.113281 33.125 39.140625 C 33.003906 27.023438 32.882812 15.027344 32.761719 2.90625 Z M 47.367188 84.824219 C 46.269531 86.640625 44.933594 88.214844 43.472656 89.667969 C 40.914062 92.457031 37.265625 94.636719 33.734375 95.726562 C 33.613281 83.609375 33.492188 71.492188 33.367188 59.375 C 33.492188 59.617188 33.613281 59.738281 33.734375 59.980469 C 38.238281 67.132812 44.445312 73.070312 49.558594 79.734375 C 50.289062 80.824219 47.976562 83.851562 47.367188 84.824219 Z M 52.84375 71.128906 C 51.019531 69.675781 49.070312 68.222656 47.246094 66.644531 C 41.644531 61.800781 34.828125 54.890625 35.925781 46.773438 C 37.019531 38.171875 43.226562 32.113281 49.558594 26.78125 C 54.546875 40.714844 56.253906 56.46875 52.84375 71.128906 Z M 27.648438 66.523438 C 28.011719 66.160156 31.421875 62.769531 31.300781 62.648438 C 30.082031 61.195312 28.863281 59.738281 27.648438 58.285156 C 27.648438 61.070312 27.648438 63.859375 27.648438 66.523438 Z M 27.648438 75.371094 C 28.011719 75.007812 31.421875 71.613281 31.300781 71.492188 C 30.082031 70.039062 28.863281 68.585938 27.648438 67.132812 C 27.648438 69.917969 27.648438 72.582031 27.648438 75.371094 Z M 27.648438 84.460938 C 28.011719 84.09375 31.421875 80.703125 31.300781 80.582031 C 30.082031 79.128906 28.863281 77.671875 27.648438 76.21875 C 27.648438 79.007812 27.648438 81.792969 27.648438 84.460938 Z M 27.648438 94.394531 C 28.011719 94.03125 31.421875 90.640625 31.300781 90.519531 C 30.082031 89.0625 28.863281 87.609375 27.648438 86.15625 C 27.648438 88.941406 27.648438 91.609375 27.648438 94.394531 Z M 27.648438 34.050781 C 27.648438 36.835938 27.648438 39.503906 27.648438 42.289062 C 28.011719 41.925781 31.421875 38.535156 31.300781 38.414062 C 30.082031 37.078125 28.863281 35.503906 27.648438 34.050781 Z M 27.648438 24.355469 C 27.648438 27.144531 27.648438 29.808594 27.648438 32.597656 C 28.011719 32.234375 31.421875 28.839844 31.300781 28.71875 C 30.082031 27.386719 28.863281 25.929688 27.648438 24.355469 Z M 31.300781 18.296875 C 31.300781 17.8125 29.71875 16.480469 29.472656 16.117188 C 28.863281 15.390625 28.257812 14.664062 27.648438 13.933594 C 27.648438 16.722656 27.648438 19.386719 27.648438 22.175781 C 28.257812 21.570312 28.742188 20.964844 29.351562 20.355469 C 29.71875 19.992188 31.300781 18.78125 31.300781 18.296875 Z M 27.648438 3.636719 C 27.648438 6.421875 27.648438 9.089844 27.648438 11.875 C 28.011719 11.511719 31.421875 8.117188 31.300781 7.996094 C 30.082031 6.542969 28.863281 5.089844 27.648438 3.636719 Z M 27.648438 3.636719 "/>
</g>
</svg>
