<?xml version="1.0" encoding="UTF-8"?>
<svg xmlns="http://www.w3.org/2000/svg" xmlns:xlink="http://www.w3.org/1999/xlink" width="32px" height="98px" viewBox="0 0 32 98" version="1.1">
<g id="surface1">
<path style=" stroke:none;fill-rule:evenodd;fill:rgb(8.235294%,9.019608%,9.411765%);fill-opacity:1;" d="M 18.648438 72.84375 C 16.835938 72.84375 15.09375 72.84375 13.28125 72.84375 C 13.492188 72.84375 12.933594 77.613281 13.28125 77.957031 C 13.5625 78.234375 15.371094 77.957031 15.789062 77.957031 C 16.765625 77.957031 17.671875 77.957031 18.648438 77.957031 C 18.71875 77.886719 18.648438 73.328125 18.648438 72.84375 M 19.136719 44.992188 C 16.140625 44.992188 19.484375 46.097656 19.136719 44.992188 M 17.53125 44.992188 C 16.835938 44.992188 14.398438 44.578125 14.398438 45.335938 C 14.398438 46.027344 13.910156 49.207031 14.398438 49.691406 C 14.605469 49.898438 16.070312 49.691406 16.347656 49.691406 C 16.90625 49.691406 17.53125 49.96875 17.53125 49.34375 C 17.53125 47.894531 17.53125 46.441406 17.53125 44.992188 M 14.117188 44.992188 C 11.125 44.992188 14.398438 46.097656 14.117188 44.992188 M 19.136719 49.621094 C 19.34375 48.863281 18.367188 48.445312 17.882812 48.929688 C 17.046875 49.761719 18.925781 49.621094 19.136719 49.621094 M 19.136719 48.65625 C 19.34375 47.964844 18.367188 47.480469 17.882812 47.964844 C 17.046875 48.722656 18.925781 48.65625 19.136719 48.65625 M 19.136719 47.546875 C 19.34375 46.859375 18.367188 46.375 17.882812 46.859375 C 17.046875 47.617188 18.925781 47.546875 19.136719 47.546875 M 19.136719 46.511719 C 19.34375 45.75 18.367188 45.335938 17.882812 45.820312 C 17.046875 46.648438 18.925781 46.511719 19.136719 46.511719 M 12.796875 49.621094 C 13.003906 49.621094 14.886719 49.691406 14.050781 48.929688 C 13.5625 48.445312 12.585938 48.929688 12.796875 49.621094 M 12.796875 45.820312 C 12.585938 46.582031 13.5625 46.996094 14.050781 46.511719 C 14.953125 45.75 13.074219 45.820312 12.796875 45.820312 M 12.796875 46.859375 C 12.585938 47.546875 13.5625 48.03125 14.050781 47.546875 C 14.953125 46.789062 13.074219 46.859375 12.796875 46.859375 M 12.796875 47.894531 C 12.585938 48.585938 13.5625 49.070312 14.050781 48.585938 C 14.953125 47.824219 13.074219 47.894531 12.796875 47.894531 M 12.933594 23.914062 C 14.953125 23.914062 16.90625 23.914062 18.925781 23.914062 C 19.621094 23.914062 19.136719 17.347656 19.136719 16.378906 C 17.464844 17.691406 14.46875 17.484375 12.726562 16.378906 C 12.726562 17.554688 11.960938 23.496094 12.933594 23.914062 M 19.203125 24.1875 C 19.203125 25.984375 19.203125 27.78125 19.203125 29.511719 C 19.203125 31.167969 24.359375 30.476562 25.265625 30.476562 C 26.171875 30.476562 26.796875 29.71875 27.496094 29.164062 C 27.632812 29.097656 28.75 28.058594 28.609375 28.75 C 28.46875 29.304688 26.589844 30.339844 26.03125 30.683594 C 25.824219 30.894531 25.960938 32.34375 25.960938 32.621094 C 25.960938 35.59375 25.960938 38.5625 25.960938 41.535156 C 25.960938 42.226562 25.960938 42.988281 25.960938 43.679688 C 25.960938 43.886719 28.121094 44.507812 27.5625 44.921875 C 27.285156 45.128906 26.03125 43.886719 25.542969 43.886719 C 24.152344 43.886719 22.757812 43.886719 21.292969 43.886719 C 18.578125 43.886719 19.34375 46.859375 19.34375 48.863281 C 19.34375 51.003906 22.410156 49.96875 23.941406 49.691406 C 25.890625 49.34375 27.914062 49.070312 29.792969 48.378906 C 32.023438 47.546875 31.8125 46.71875 31.742188 44.578125 C 31.675781 42.433594 31.675781 40.292969 31.605469 38.148438 C 31.464844 34.140625 31.8125 29.996094 31.257812 26.054688 C 30.976562 24.121094 29.515625 24.050781 27.84375 24.050781 C 25.753906 24.050781 23.734375 24.050781 21.644531 23.980469 C 21.015625 23.980469 19.832031 23.707031 19.203125 24.1875 M 20.109375 43.746094 C 20.109375 39.601562 20.109375 35.453125 20.109375 31.238281 C 20.109375 29.855469 18.230469 30.132812 17.183594 30.132812 C 16.140625 30.132812 13.699219 29.71875 12.796875 30.203125 C 11.960938 30.683594 11.820312 30.546875 11.820312 31.445312 C 11.820312 32.480469 11.820312 33.519531 11.820312 34.625 C 11.820312 37.25 11.820312 39.808594 11.820312 42.433594 C 11.820312 44.023438 12.167969 44.714844 13.910156 44.714844 C 15.234375 44.714844 16.628906 44.714844 17.949219 44.714844 C 19.203125 44.644531 19.273438 44.578125 20.109375 43.746094 M 11.609375 43.953125 C 10.148438 43.953125 8.683594 43.953125 7.222656 43.953125 C 5.96875 43.953125 5.410156 44.371094 4.296875 44.992188 C 4.085938 44.4375 5.339844 44.09375 5.757812 43.816406 C 6.039062 43.679688 5.828125 42.15625 5.828125 41.882812 C 5.828125 38.910156 5.828125 35.9375 5.828125 32.964844 C 5.828125 32.273438 5.828125 31.515625 5.828125 30.824219 C 5.828125 30.410156 3.738281 29.164062 3.320312 28.886719 C 2.765625 28.472656 3.878906 28.886719 4.019531 29.097656 C 4.785156 29.648438 5.550781 30.617188 6.527344 30.617188 C 7.5 30.617188 12.585938 31.308594 12.585938 29.648438 C 12.585938 28.75 12.585938 27.851562 12.585938 26.953125 C 12.585938 26.402344 12.863281 24.671875 12.585938 24.328125 C 11.960938 23.496094 7.5 24.1875 6.457031 24.1875 C 4.992188 24.257812 2.484375 23.707031 1.230469 24.671875 C 0.117188 25.503906 0.324219 27.851562 0.324219 29.097656 C 0.324219 30.960938 0.257812 32.757812 0.257812 34.625 C 0.1875 38.148438 0.1875 41.882812 0.117188 45.613281 C 0.046875 47.410156 0.324219 47.964844 2.207031 48.515625 C 3.949219 49.070312 5.757812 49.414062 7.570312 49.761719 C 8.265625 49.898438 12.515625 50.867188 12.515625 49.761719 C 12.515625 48.65625 12.515625 47.546875 12.515625 46.375 C 12.445312 45.0625 12.515625 44.921875 11.609375 43.953125 M 12.167969 50.519531 C 12.167969 51.28125 12.308594 56.742188 11.960938 56.742188 C 10.007812 56.949219 8.058594 57.15625 6.109375 57.292969 C 5.0625 57.363281 1.441406 57.222656 0.953125 58.398438 C 0.257812 60.058594 0.742188 62.546875 0.675781 64.410156 C 0.605469 66.484375 0.605469 68.558594 0.535156 70.632812 C 0.464844 71.808594 -0.0234375 74.777344 0.605469 75.675781 C 1.441406 76.851562 4.226562 76.988281 5.550781 77.265625 C 7.640625 77.679688 9.730469 77.957031 11.820312 78.234375 C 12.027344 78.304688 12.238281 78.304688 12.445312 78.304688 C 10.773438 78.578125 10.914062 78.71875 10.355469 80.308594 C 9.800781 81.691406 9.3125 83.140625 8.753906 84.523438 C 13.492188 84.523438 18.230469 84.523438 23.035156 84.523438 C 22.546875 83.210938 22.0625 81.964844 21.574219 80.652344 C 20.945312 78.996094 21.15625 78.578125 19.414062 78.304688 C 21.433594 77.957031 23.453125 77.75 25.40625 77.40625 C 27.144531 77.058594 29.375 76.921875 30.90625 75.953125 C 32.023438 75.191406 31.394531 72.359375 31.324219 71.183594 C 31.257812 69.179688 31.1875 67.105469 31.1875 65.101562 C 31.1875 63.03125 31.394531 60.816406 31.046875 58.746094 C 30.839844 57.292969 27.496094 57.429688 26.449219 57.363281 C 24.5 57.292969 22.546875 57.085938 20.597656 56.878906 C 19.414062 56.742188 19.832031 55.910156 19.832031 54.804688 C 19.832031 53.421875 19.761719 52.039062 19.761719 50.660156 C 19.761719 49.554688 17.113281 49.96875 16.558594 49.96875 C 15.511719 50.035156 12.796875 49.414062 12.167969 50.519531 M 14.257812 24.257812 C 14.050781 24.257812 13.074219 24.1875 13.074219 24.328125 C 13.074219 24.605469 12.933594 25.640625 13.074219 25.847656 C 13.214844 25.984375 14.257812 25.847656 14.257812 25.777344 C 14.257812 25.292969 14.257812 24.742188 14.257812 24.257812 M 14.605469 24.257812 C 14.605469 24.742188 14.605469 25.292969 14.605469 25.777344 C 14.605469 25.917969 15.789062 25.984375 15.859375 25.847656 C 16 25.640625 15.859375 24.605469 15.859375 24.328125 C 15.859375 24.121094 14.816406 24.257812 14.605469 24.257812 M 14.257812 26.191406 C 14.050781 26.191406 13.074219 26.054688 13.074219 26.261719 C 13.074219 26.539062 12.933594 27.644531 13.074219 27.851562 C 13.214844 27.988281 14.257812 27.851562 14.257812 27.78125 C 14.257812 27.230469 14.257812 26.675781 14.257812 26.191406 M 14.605469 26.191406 C 14.605469 26.746094 14.605469 27.230469 14.605469 27.78125 C 14.605469 27.921875 15.789062 27.988281 15.859375 27.851562 C 16.070312 27.644531 15.859375 26.539062 15.859375 26.261719 C 15.859375 26.054688 14.816406 26.191406 14.605469 26.191406 M 14.257812 28.128906 C 14.050781 28.128906 13.074219 27.988281 13.074219 28.199219 C 13.074219 28.472656 12.933594 29.578125 13.074219 29.785156 C 13.214844 29.925781 14.257812 29.785156 14.257812 29.71875 C 14.257812 29.234375 14.257812 28.679688 14.257812 28.128906 M 14.605469 28.128906 C 14.605469 28.679688 14.605469 29.164062 14.605469 29.71875 C 14.605469 29.855469 15.789062 29.925781 15.859375 29.785156 C 16.070312 29.578125 15.859375 28.472656 15.859375 28.199219 C 15.859375 28.058594 14.816406 28.128906 14.605469 28.128906 M 16.140625 24.257812 C 16.140625 24.742188 16.140625 25.292969 16.140625 25.777344 C 16.140625 25.917969 17.253906 25.984375 17.324219 25.847656 C 17.464844 25.640625 17.324219 24.605469 17.324219 24.328125 C 17.324219 24.121094 16.347656 24.257812 16.140625 24.257812 M 16.140625 26.191406 C 16.140625 26.746094 16.140625 27.230469 16.140625 27.78125 C 16.140625 27.921875 17.253906 27.988281 17.324219 27.851562 C 17.53125 27.644531 17.324219 26.539062 17.324219 26.261719 C 17.324219 26.054688 16.347656 26.191406 16.140625 26.191406 M 16.140625 28.128906 C 16.140625 28.679688 16.140625 29.164062 16.140625 29.71875 C 16.140625 29.855469 17.253906 29.925781 17.324219 29.785156 C 17.53125 29.578125 17.324219 28.472656 17.324219 28.199219 C 17.324219 28.058594 16.347656 28.128906 16.140625 28.128906 M 17.742188 24.257812 C 17.742188 24.742188 17.742188 25.292969 17.742188 25.777344 C 17.742188 25.917969 18.855469 25.984375 18.925781 25.847656 C 19.066406 25.640625 18.925781 24.605469 18.925781 24.328125 C 18.925781 24.121094 17.949219 24.257812 17.742188 24.257812 M 17.742188 26.191406 C 17.742188 26.746094 17.742188 27.230469 17.742188 27.78125 C 17.742188 27.921875 18.855469 27.988281 18.925781 27.851562 C 19.066406 27.644531 18.925781 26.539062 18.925781 26.261719 C 18.925781 26.054688 17.949219 26.191406 17.742188 26.191406 M 17.742188 28.128906 C 17.742188 28.679688 17.742188 29.164062 17.742188 29.71875 C 17.742188 29.855469 18.855469 29.925781 18.925781 29.785156 C 19.066406 29.578125 18.925781 28.472656 18.925781 28.199219 C 18.925781 28.058594 17.949219 28.128906 17.742188 28.128906 M 6.734375 62.339844 C 8.617188 62.339844 10.425781 62.339844 12.308594 62.339844 C 12.933594 62.339844 12.585938 66.070312 12.585938 66.691406 C 12.585938 68.003906 12.097656 70.492188 12.726562 71.738281 C 13.28125 72.636719 13.28125 72.566406 14.328125 72.566406 C 15.652344 72.566406 16.90625 72.566406 18.230469 72.566406 C 19.761719 72.566406 19.414062 70.355469 19.414062 69.386719 C 19.414062 67.175781 19.414062 64.964844 19.414062 62.753906 C 19.414062 61.992188 23.246094 62.40625 23.941406 62.40625 C 25.472656 62.40625 26.589844 61.855469 27.980469 61.234375 C 28.050781 61.855469 26.519531 62.199219 25.890625 62.40625 C 25.335938 62.613281 25.683594 64.136719 25.683594 64.621094 C 25.683594 66.140625 25.683594 67.589844 25.683594 69.113281 C 25.683594 69.457031 25.40625 71.390625 25.753906 71.597656 C 25.890625 71.667969 27.773438 72.84375 27.007812 72.773438 C 26.101562 72.707031 25.613281 71.667969 24.570312 71.667969 C 23.105469 71.667969 18.925781 70.699219 18.925781 73.050781 C 18.925781 74.363281 18.925781 75.675781 18.925781 77.058594 C 18.925781 77.75 19.203125 78.304688 18.4375 78.304688 C 17.113281 78.304688 15.722656 78.304688 14.398438 78.304688 C 13.699219 78.304688 12.933594 78.578125 12.933594 77.820312 C 12.933594 77.058594 13.5625 71.738281 12.167969 71.738281 C 9.871094 71.738281 7.363281 71.253906 5.339844 72.496094 C 3.390625 73.671875 6.175781 71.460938 6.175781 71.390625 C 6.175781 69.25 6.175781 67.105469 6.175781 65.035156 C 6.175781 64.273438 6.175781 63.445312 6.175781 62.683594 C 6.175781 62.40625 4.4375 61.855469 4.085938 61.714844 C 3.808594 61.578125 3.601562 61.234375 4.019531 61.371094 C 4.992188 61.578125 5.828125 61.992188 6.734375 62.339844 M 25.890625 98 C 25.335938 94.890625 24.570312 91.847656 23.664062 88.878906 C 23.453125 88.324219 22.898438 85.421875 22.339844 85.421875 C 20.25 85.421875 18.160156 85.421875 16 85.421875 C 13.910156 85.421875 11.890625 85.421875 9.800781 85.421875 C 8.964844 85.421875 8.617188 87.980469 8.40625 88.671875 C 7.429688 91.78125 6.664062 94.890625 6.109375 98.070312 C 12.65625 98 19.273438 98 25.890625 98 M 15.929688 0 C 9.800781 0.691406 8.617188 6.910156 10.21875 11.957031 C 10.289062 9.328125 10.148438 6.910156 10.914062 4.355469 C 11.261719 3.109375 11.679688 2.832031 13.003906 2.695312 C 13.980469 2.558594 14.953125 2.488281 16 2.488281 C 16.976562 2.488281 18.019531 2.558594 18.996094 2.695312 C 20.390625 2.832031 20.667969 3.039062 21.085938 4.214844 C 21.992188 6.632812 21.921875 9.46875 21.78125 11.957031 C 23.316406 6.910156 22.128906 0.691406 15.929688 0 M 14.535156 11.265625 C 15.164062 11.265625 17.464844 10.917969 17.8125 11.472656 C 18.160156 12.023438 18.089844 13.269531 17.601562 13.613281 C 17.253906 13.824219 14.605469 13.753906 14.257812 13.40625 C 13.839844 12.992188 13.980469 11.472656 14.535156 11.265625 M 17.53125 11.679688 C 16.488281 11.679688 15.511719 11.609375 14.46875 11.609375 C 14.46875 13.339844 14.257812 13.199219 16 13.269531 C 17.464844 13.269531 17.949219 13.339844 17.53125 11.679688 M 15.234375 11.816406 C 15.652344 11.816406 16.765625 11.609375 17.046875 12.023438 C 17.324219 12.371094 17.113281 13.132812 16.695312 13.132812 C 16.210938 13.132812 15.234375 13.339844 14.953125 12.925781 C 14.746094 12.507812 14.886719 11.957031 15.234375 11.816406 M 16.765625 12.164062 C 16.488281 12.164062 15.304688 12.023438 15.304688 12.300781 C 15.304688 12.992188 16.140625 12.714844 16.765625 12.785156 C 16.765625 12.578125 16.765625 12.300781 16.765625 12.164062 M 16.277344 7.742188 C 16.628906 8.707031 16.976562 9.882812 17.464844 10.710938 C 16.488281 10.710938 15.582031 10.710938 14.605469 10.710938 C 14.886719 9.539062 15.652344 8.5 16.070312 7.324219 C 16.140625 7.464844 16.210938 7.601562 16.277344 7.742188 M 16.488281 9.191406 C 16.347656 8.847656 16.210938 8.5 16.070312 8.15625 C 15.722656 8.847656 15.441406 9.605469 15.09375 10.296875 C 15.722656 10.367188 16.347656 10.367188 16.976562 10.367188 C 16.835938 10.019531 16.695312 9.605469 16.488281 9.191406 M 14.328125 6.703125 C 15.09375 6.84375 15.023438 8.15625 14.117188 7.949219 C 13.421875 7.808594 13.632812 6.773438 14.328125 6.703125 M 14.328125 7.050781 C 13.28125 7.601562 15.234375 7.742188 14.328125 7.050781 M 17.671875 7.050781 C 16.628906 7.671875 18.71875 7.601562 17.671875 7.050781 M 17.671875 6.773438 C 18.300781 6.703125 18.578125 7.808594 17.882812 7.949219 C 16.976562 8.15625 16.765625 6.84375 17.671875 6.773438 M 10.773438 13.132812 C 12.585938 16.308594 16.765625 17.625 19.691406 15.066406 C 22.199219 12.855469 21.644531 7.949219 20.808594 5.046875 C 20.527344 4.148438 20.527344 3.457031 19.621094 3.25 C 18.785156 3.039062 18.089844 3.039062 17.253906 2.902344 C 15.789062 2.765625 14.117188 2.832031 12.726562 3.109375 C 11.609375 3.386719 11.472656 3.871094 11.125 4.90625 C 10.914062 5.734375 10.707031 6.632812 10.636719 7.53125 C 10.496094 9.398438 10.566406 11.335938 10.773438 13.132812 "/>
</g>
</svg>
