<?xml version="1.0" encoding="UTF-8"?>
<svg xmlns="http://www.w3.org/2000/svg" xmlns:xlink="http://www.w3.org/1999/xlink" width="47px" height="100px" viewBox="0 0 47 100" version="1.1">
<g id="surface1">
<path style=" stroke:none;fill-rule:evenodd;fill:rgb(8.235294%,9.019608%,9.411765%);fill-opacity:1;" d="M 33.484375 71.699219 C 37.433594 78.039062 37.792969 87.484375 33.726562 93.820312 C 31.453125 97.285156 27.863281 99.558594 23.679688 99.917969 C 19.253906 100.277344 15.546875 97.882812 12.917969 94.535156 C 7.894531 88.320312 8.492188 79.949219 11.71875 73.136719 C 13.273438 69.90625 16.265625 65.960938 19.253906 64.046875 C 22.960938 61.777344 26.550781 64.289062 29.300781 66.558594 C 30.972656 67.992188 32.171875 69.90625 33.484375 71.699219 M 28.820312 65.601562 C 29.300781 66.199219 29.777344 66.679688 30.375 67.277344 C 30.496094 66.199219 30.496094 65.125 30.617188 64.046875 C 29.898438 64.527344 29.417969 65.003906 28.820312 65.601562 M 16.625 65.960938 C 15.667969 66.917969 14.472656 67.15625 13.15625 67.394531 C 11.480469 67.753906 10.761719 68.113281 9.6875 66.679688 C 10.761719 66.441406 11.839844 66.679688 12.917969 66.320312 C 13.992188 65.960938 15.90625 64.886719 16.625 65.960938 M 16.027344 66.679688 C 15.546875 67.394531 11.242188 68.472656 10.761719 67.875 C 12.558594 67.753906 14.230469 67.039062 16.027344 66.679688 M 15.785156 67.039062 C 15.070312 67.992188 14.828125 68.472656 13.753906 68.710938 C 12.4375 68.949219 11.960938 69.191406 11.003906 68.234375 C 12.558594 67.753906 14.230469 67.394531 15.785156 67.039062 M 14.351562 68.832031 C 13.992188 69.308594 13.515625 69.90625 13.15625 70.386719 C 12.796875 70.027344 12.316406 69.546875 11.960938 69.191406 C 12.675781 69.191406 13.632812 69.070312 14.351562 68.832031 M 9.449219 66.441406 C 8.96875 65.84375 8.609375 65.363281 8.25 64.765625 C 9.328125 65.003906 10.523438 64.886719 11.71875 64.765625 C 12.4375 64.765625 13.035156 64.644531 13.753906 64.644531 C 14.949219 64.527344 14.949219 64.527344 15.785156 65.246094 C 13.632812 65.601562 11.71875 66.441406 9.449219 66.441406 M 8.011719 64.527344 C 7.652344 63.929688 7.296875 63.449219 6.9375 62.851562 C 8.25 62.613281 9.566406 62.851562 10.761719 62.851562 C 11.480469 62.851562 12.199219 62.851562 12.917969 62.734375 C 13.871094 62.613281 14.230469 63.449219 14.710938 64.167969 C 12.558594 64.40625 10.285156 64.527344 8.011719 64.527344 M 6.695312 62.496094 C 6.457031 62.136719 6.21875 61.777344 5.980469 61.417969 C 7.175781 61.296875 8.371094 61.417969 9.566406 61.539062 C 10.164062 61.539062 10.761719 61.65625 11.359375 61.65625 C 12.316406 61.777344 12.4375 61.65625 13.15625 62.375 C 11.121094 62.734375 8.851562 62.613281 6.695312 62.496094 M 5.859375 61.179688 C 5.742188 60.941406 5.5 60.582031 5.382812 60.34375 C 6.457031 60.34375 7.652344 60.460938 8.730469 60.582031 C 9.328125 60.699219 9.925781 60.699219 10.523438 60.699219 C 11.601562 60.699219 11.71875 60.699219 12.4375 61.539062 C 10.285156 61.539062 8.132812 61.179688 5.859375 61.179688 M 5.261719 60.101562 C 5.023438 59.625 4.785156 59.265625 4.542969 58.789062 C 5.742188 58.789062 7.054688 59.148438 8.25 59.386719 C 8.851562 59.503906 9.449219 59.503906 10.046875 59.503906 C 11.121094 59.503906 11.121094 59.503906 11.71875 60.34375 C 9.6875 60.34375 7.296875 59.746094 5.261719 60.101562 M 4.425781 58.429688 C 4.1875 57.949219 4.066406 57.59375 3.828125 57.113281 C 5.140625 57.234375 6.339844 57.59375 7.652344 57.832031 C 8.25 57.949219 8.96875 58.070312 9.6875 58.070312 C 10.523438 58.070312 10.523438 58.429688 11.003906 59.148438 C 8.730469 59.148438 6.695312 58.667969 4.425781 58.429688 M 3.828125 57.113281 C 3.828125 56.996094 3.707031 56.875 3.707031 56.753906 C 4.785156 56.875 10.046875 57.351562 10.285156 58.070312 C 8.132812 58.070312 6.097656 57.351562 3.828125 57.113281 M 3.707031 56.875 C 3.46875 56.277344 3.230469 55.796875 2.988281 55.199219 C 4.304688 55.320312 5.621094 56.039062 6.816406 56.277344 C 7.535156 56.398438 8.132812 56.636719 8.851562 56.753906 C 9.6875 56.875 9.6875 57.234375 10.164062 57.949219 C 8.011719 57.710938 5.980469 57.113281 3.707031 56.875 M 2.988281 54.84375 C 2.75 54.363281 2.632812 53.886719 2.390625 53.40625 C 3.828125 53.765625 5.261719 54.363281 6.578125 54.84375 C 7.175781 54.960938 7.652344 55.199219 8.25 55.320312 C 9.089844 55.558594 9.089844 55.796875 9.449219 56.515625 C 7.296875 56.15625 5.140625 54.960938 2.988281 54.84375 M 2.390625 53.289062 C 2.390625 53.167969 2.273438 53.167969 2.390625 52.929688 C 3.585938 53.167969 4.785156 53.648438 5.980469 54.125 C 6.578125 54.363281 8.851562 54.722656 8.96875 55.199219 C 6.578125 55.199219 4.664062 53.886719 2.390625 53.289062 M 2.390625 53.050781 C 2.273438 52.691406 2.03125 52.210938 1.914062 51.851562 C 3.230469 51.972656 4.425781 52.691406 5.621094 53.167969 C 6.21875 53.40625 6.9375 53.648438 7.535156 53.765625 C 8.492188 53.886719 8.371094 54.363281 8.851562 55.199219 C 6.578125 54.722656 4.542969 53.527344 2.390625 53.050781 M 1.792969 51.496094 C 1.675781 51.015625 1.433594 50.417969 1.316406 49.941406 C 2.511719 50.058594 3.707031 50.777344 4.902344 51.253906 C 5.5 51.496094 6.21875 51.851562 6.816406 51.972656 C 7.894531 52.210938 7.652344 52.570312 8.132812 53.40625 C 6.097656 53.050781 3.945312 51.613281 1.792969 51.496094 M 1.316406 49.582031 C 1.195312 49.101562 1.078125 48.625 0.957031 48.148438 C 2.152344 48.386719 3.46875 49.101562 4.664062 49.582031 C 5.140625 49.820312 5.742188 49.941406 6.339844 50.179688 C 7.414062 50.539062 7.296875 50.898438 7.652344 51.851562 C 5.5 51.375 3.585938 50.058594 1.316406 49.582031 M 0.957031 47.90625 C 0.835938 47.429688 0.835938 46.832031 0.71875 46.351562 C 1.914062 46.832031 2.988281 47.550781 4.1875 48.027344 C 4.785156 48.265625 5.382812 48.503906 5.859375 48.625 C 6.816406 48.984375 6.695312 49.222656 7.054688 50.058594 C 5.023438 49.582031 2.988281 48.148438 0.957031 47.90625 M 0.597656 45.996094 C 0.476562 45.398438 0.476562 44.917969 0.359375 44.320312 C 1.554688 44.800781 2.632812 45.515625 3.828125 46.113281 C 4.425781 46.351562 5.023438 46.59375 5.742188 46.832031 C 6.457031 47.070312 6.457031 47.90625 6.578125 48.625 C 4.542969 47.90625 2.75 46.59375 0.597656 45.996094 M 0.359375 43.960938 C 0.359375 43.484375 0.238281 43.125 0.238281 42.648438 C 1.316406 43.003906 2.390625 43.722656 3.46875 44.320312 C 4.425781 44.917969 6.339844 45.398438 6.339844 46.59375 C 4.066406 45.996094 2.390625 44.679688 0.359375 43.960938 M 0.121094 42.40625 C 0.121094 41.808594 0 41.210938 0.121094 40.613281 C 1.316406 41.332031 2.390625 42.050781 3.585938 42.765625 C 4.1875 43.125 4.785156 43.484375 5.382812 43.722656 C 5.980469 43.960938 5.859375 44.679688 5.980469 45.398438 C 3.945312 44.558594 2.273438 43.003906 0.121094 42.40625 M 0 40.253906 C 0 39.65625 0 39.058594 0 38.460938 C 1.078125 39.058594 2.03125 39.898438 3.109375 40.613281 C 3.585938 40.972656 4.1875 41.453125 4.785156 41.691406 C 5.742188 42.167969 5.5 42.527344 5.742188 43.601562 C 3.707031 42.648438 2.03125 41.09375 0 40.253906 M 0 38.582031 C 0 38.460938 0 38.34375 0 38.222656 C 1.078125 38.703125 2.03125 39.539062 3.109375 40.253906 C 3.707031 40.734375 5.5 41.453125 5.5 42.167969 C 3.585938 41.09375 1.914062 39.539062 0 38.582031 M 0 38.222656 C 0 37.863281 0 37.503906 0 37.027344 C 1.078125 37.625 1.914062 38.34375 2.988281 39.058594 C 3.585938 39.417969 4.066406 39.777344 4.664062 40.136719 C 5.5 40.613281 5.382812 40.851562 5.5 41.808594 C 3.585938 40.734375 1.914062 39.058594 0 38.222656 M 0 36.789062 C 0 36.308594 0 35.710938 0.121094 35.234375 C 1.195312 35.710938 2.152344 36.550781 3.109375 37.265625 C 3.707031 37.625 4.1875 37.984375 4.785156 38.34375 C 5.5 38.703125 5.140625 39.539062 5.261719 40.253906 C 3.46875 39.179688 1.914062 37.625 0 36.789062 M 0.121094 34.875 C 0.238281 34.277344 0.238281 33.558594 0.359375 32.960938 C 1.433594 33.800781 2.390625 34.753906 3.46875 35.59375 C 3.945312 35.953125 4.425781 36.308594 4.902344 36.667969 C 5.5 37.027344 5.261719 37.625 5.382812 38.34375 C 3.347656 37.386719 1.914062 35.710938 0.121094 34.875 M 0.238281 32.605469 C 0.359375 32.125 0.359375 31.765625 0.476562 31.289062 C 1.433594 32.125 2.390625 32.84375 3.347656 33.679688 C 3.828125 34.15625 4.425781 34.515625 4.902344 34.875 C 5.5 35.234375 5.261719 35.832031 5.261719 36.550781 C 3.46875 35.355469 2.03125 33.800781 0.238281 32.605469 M 0.476562 30.929688 C 0.476562 30.453125 0.597656 29.972656 0.71875 29.496094 C 1.554688 30.332031 2.511719 31.050781 3.347656 31.886719 C 3.828125 32.363281 4.304688 32.84375 4.902344 33.203125 C 5.5 33.558594 5.261719 34.15625 5.261719 34.875 C 3.585938 33.679688 2.152344 32.007812 0.476562 30.929688 M 0.71875 29.136719 C 1.914062 22.800781 4.066406 16.460938 7.773438 11.082031 C 9.449219 8.691406 11.242188 6.417969 13.515625 4.507812 C 14.710938 3.550781 20.449219 -0.992188 21.644531 0.5625 C 10.644531 7.613281 6.578125 20.648438 5.382812 33.082031 C 3.828125 31.765625 2.273438 30.453125 0.71875 29.136719 M 30.617188 67.515625 C 30.972656 67.875 31.453125 68.351562 31.8125 68.710938 C 31.929688 66.679688 31.929688 64.765625 31.929688 62.734375 C 31.09375 63.570312 30.734375 63.691406 30.734375 64.765625 C 30.734375 65.601562 30.734375 66.558594 30.617188 67.515625 M 32.050781 69.070312 C 32.289062 69.308594 32.527344 69.667969 32.769531 69.90625 C 33.84375 68.949219 33.367188 67.039062 33.484375 65.722656 C 33.605469 64.167969 33.484375 62.613281 33.484375 61.058594 C 33.128906 61.417969 32.171875 62.253906 32.171875 62.734375 C 32.171875 63.449219 32.171875 64.167969 32.171875 64.886719 C 32.171875 66.199219 32.050781 67.636719 32.050781 69.070312 M 33.605469 68.949219 C 33.964844 68.59375 35.28125 67.515625 35.28125 67.15625 C 35.160156 66.082031 35.160156 65.125 35.160156 64.046875 C 35.160156 62.375 34.921875 60.582031 35.160156 59.027344 C 34.800781 59.386719 33.726562 60.460938 33.726562 60.941406 C 33.726562 61.777344 33.726562 62.613281 33.726562 63.570312 C 33.605469 65.246094 33.726562 67.039062 33.605469 68.949219 M 35.519531 66.917969 C 35.996094 66.441406 36.714844 65.84375 36.714844 65.125 C 36.59375 64.167969 36.476562 63.332031 36.476562 62.375 C 36.355469 60.699219 36.238281 59.027344 36.238281 57.472656 C 34.441406 59.746094 35.398438 64.167969 35.519531 66.917969 M 36.953125 65.125 C 37.433594 64.527344 37.910156 63.929688 38.390625 63.210938 C 38.628906 62.734375 38.148438 61.296875 38.03125 60.699219 C 37.792969 59.027344 37.3125 56.996094 37.433594 55.320312 C 37.074219 55.917969 36.476562 56.515625 36.476562 57.234375 C 36.476562 58.070312 36.59375 58.789062 36.59375 59.625 C 36.59375 61.539062 36.835938 63.332031 36.953125 65.125 M 38.75 62.851562 C 39.105469 62.136719 39.585938 61.539062 40.0625 60.941406 C 40.542969 60.34375 39.824219 59.503906 39.585938 58.789062 C 39.105469 57.234375 38.628906 55.558594 38.390625 53.886719 C 36.835938 56.15625 38.269531 60.222656 38.75 62.851562 M 40.421875 60.222656 C 40.78125 59.746094 41.019531 59.148438 41.378906 58.546875 C 41.738281 57.949219 40.902344 56.753906 40.660156 56.039062 C 40.183594 54.722656 39.703125 53.289062 39.347656 51.851562 C 39.226562 52.210938 38.507812 53.167969 38.628906 53.527344 C 38.75 54.246094 38.988281 55.082031 39.105469 55.796875 C 39.347656 57.351562 39.703125 58.90625 40.421875 60.222656 M 41.738281 57.949219 C 42.097656 57.234375 42.574219 56.515625 42.8125 55.679688 C 42.933594 55.199219 42.097656 54.246094 41.859375 53.886719 C 41.257812 53.050781 41.140625 52.210938 41.976562 53.40625 C 42.335938 54.003906 42.695312 54.601562 43.171875 55.199219 C 43.53125 53.886719 44.367188 53.40625 43.292969 52.09375 C 42.457031 51.015625 41.378906 50.058594 40.542969 48.863281 C 40.304688 49.582031 40.0625 50.300781 39.703125 51.015625 C 39.347656 51.734375 39.703125 52.332031 39.945312 53.050781 C 40.421875 54.722656 41.019531 56.398438 41.738281 57.949219 M 44.011719 52.691406 C 44.609375 51.375 44.011719 51.015625 43.171875 49.941406 C 42.457031 49.101562 41.617188 48.265625 41.019531 47.308594 C 40.902344 47.789062 40.421875 48.386719 40.78125 48.746094 C 41.140625 49.222656 41.378906 49.582031 41.738281 49.941406 C 42.574219 50.898438 43.414062 51.851562 44.011719 52.691406 M 44.609375 51.253906 C 45.085938 49.941406 44.488281 49.222656 43.652344 48.027344 C 42.933594 47.070312 42.214844 46.113281 41.617188 45.277344 C 41.5 45.753906 41.019531 46.710938 41.140625 47.070312 C 41.257812 47.550781 41.976562 48.148438 42.335938 48.503906 C 43.054688 49.34375 43.890625 50.179688 44.609375 51.253906 M 45.085938 49.582031 C 45.445312 48.265625 45.566406 47.667969 44.609375 46.59375 C 43.769531 45.515625 42.8125 44.558594 41.976562 43.484375 C 41.738281 44.917969 42.097656 45.277344 42.933594 46.472656 C 43.652344 47.550781 44.367188 48.503906 45.085938 49.582031 M 45.683594 47.550781 C 45.804688 47.070312 46.28125 45.996094 46.164062 45.636719 C 46.042969 45.277344 45.324219 44.679688 45.085938 44.441406 C 44.25 43.484375 43.292969 42.648438 42.457031 41.570312 C 42.214844 43.003906 42.335938 43.363281 43.292969 44.441406 C 44.011719 45.515625 44.847656 46.59375 45.683594 47.550781 M 46.164062 45.277344 C 46.402344 43.84375 46.28125 43.601562 45.324219 42.527344 C 44.488281 41.570312 43.53125 40.734375 42.574219 39.898438 C 42.574219 40.253906 42.214844 41.09375 42.457031 41.332031 C 42.933594 41.808594 43.292969 42.167969 43.652344 42.648438 C 44.488281 43.484375 45.324219 44.320312 46.164062 45.277344 M 46.402344 43.363281 C 46.640625 41.808594 46.523438 41.453125 45.445312 40.375 C 44.488281 39.539062 43.53125 38.703125 42.695312 37.863281 C 42.695312 38.222656 42.457031 39.300781 42.695312 39.539062 C 43.171875 40.015625 43.652344 40.496094 44.128906 40.972656 C 44.96875 41.808594 45.804688 42.527344 46.402344 43.363281 M 46.640625 41.332031 C 46.640625 40.972656 46.878906 39.898438 46.640625 39.65625 C 46.164062 39.058594 45.804688 38.582031 45.207031 38.105469 C 44.367188 37.265625 43.414062 36.550781 42.574219 35.710938 C 42.574219 36.191406 42.335938 37.148438 42.457031 37.503906 C 42.574219 37.863281 43.414062 38.34375 43.652344 38.582031 C 44.847656 39.539062 45.804688 40.375 46.640625 41.332031 M 46.878906 39.300781 C 46.878906 36.90625 44.25 35.472656 42.695312 33.917969 C 42.695312 34.277344 42.574219 35.234375 42.8125 35.472656 C 43.292969 35.953125 43.769531 36.308594 44.25 36.789062 C 45.207031 37.625 46.042969 38.34375 46.878906 39.300781 M 47 37.625 C 47 37.148438 47.121094 36.308594 47 35.953125 C 46.761719 35.355469 45.804688 34.636719 45.324219 34.15625 C 44.367188 33.320312 43.53125 32.363281 42.574219 31.527344 C 42.695312 32.007812 42.574219 32.960938 42.8125 33.441406 C 43.054688 33.917969 43.890625 34.398438 44.25 34.753906 C 45.085938 35.832031 46.042969 36.667969 47 37.625 M 46.878906 35.59375 C 46.878906 35.113281 47 34.15625 46.761719 33.679688 C 46.523438 33.203125 45.683594 32.605469 45.324219 32.246094 C 44.25 31.289062 43.292969 30.453125 42.214844 29.496094 C 42.335938 29.972656 42.214844 30.808594 42.457031 31.167969 C 42.695312 31.648438 43.652344 32.246094 44.128906 32.605469 C 45.085938 33.558594 46.042969 34.515625 46.878906 35.59375 M 46.761719 33.082031 C 46.640625 31.527344 46.042969 31.050781 44.847656 30.210938 C 43.890625 29.496094 42.933594 28.777344 41.976562 28.058594 C 42.097656 29.375 43.054688 29.734375 44.011719 30.570312 C 44.96875 31.289062 45.921875 32.246094 46.761719 33.082031 M 46.523438 31.167969 C 46.402344 29.015625 43.292969 27.582031 41.617188 26.507812 C 42.214844 28.539062 44.96875 29.855469 46.523438 31.167969 M 46.28125 29.613281 C 46.042969 28.179688 45.683594 27.941406 44.488281 27.105469 C 43.652344 26.507812 42.574219 25.910156 41.738281 25.429688 C 42.097656 24.953125 45.324219 27.222656 45.921875 27.703125 C 44.609375 22.082031 42.695312 16.941406 39.464844 12.160156 C 37.910156 9.765625 36.117188 7.496094 33.964844 5.582031 C 33.007812 4.746094 28.34375 0.203125 27.027344 1.039062 C 30.617188 5.703125 34.441406 10.125 37.550781 15.265625 C 39.105469 17.777344 40.0625 20.648438 40.78125 23.398438 C 41.019531 24.234375 41.257812 25.070312 41.5 25.910156 C 41.617188 26.507812 42.335938 26.746094 42.8125 27.105469 C 44.011719 27.820312 45.207031 28.65625 46.28125 29.613281 M 24.636719 65.125 C 24.277344 65.363281 23.917969 65.601562 23.441406 65.84375 C 24.15625 66.199219 24.996094 66.558594 25.59375 67.039062 C 25.113281 67.394531 23.558594 68.59375 22.960938 68.472656 C 22.363281 68.472656 21.167969 67.394531 20.691406 66.917969 C 21.289062 66.441406 21.886719 66.082031 22.484375 65.722656 C 22.125 65.484375 21.765625 65.363281 21.40625 65.125 C 21.765625 65.003906 22.246094 65.484375 22.722656 65.601562 C 22.363281 65.484375 22.125 65.246094 21.765625 65.125 C 21.765625 65.125 21.886719 65.003906 21.886719 65.003906 C 23.082031 65.722656 23.320312 65.246094 24.398438 64.40625 C 24.398438 64.40625 24.398438 64.527344 24.515625 64.527344 C 24.039062 64.886719 23.441406 65.246094 22.960938 65.601562 C 23.679688 65.601562 24.277344 65.003906 24.636719 65.125 M 23.320312 65.960938 C 23.558594 66.320312 24.636719 66.917969 25.234375 67.15625 C 24.753906 67.394531 23.679688 68.234375 23.199219 68.234375 C 22.722656 68.234375 21.765625 67.394531 21.40625 67.039062 C 21.886719 66.679688 22.484375 66.320312 23.082031 65.960938 C 22.484375 65.960938 21.765625 66.679688 21.167969 67.039062 C 21.644531 67.394531 22.601562 68.351562 23.199219 68.351562 C 23.800781 68.351562 24.996094 67.394531 25.59375 67.039062 C 24.753906 66.679688 24.039062 66.320312 23.320312 65.960938 M 22.960938 65.84375 C 23.082031 65.84375 23.082031 65.960938 23.199219 65.84375 C 23.082031 65.722656 22.960938 65.84375 22.960938 65.84375 M 23.082031 66.082031 C 22.601562 66.441406 22.003906 66.679688 21.527344 67.039062 C 21.886719 67.277344 22.722656 68.113281 23.082031 68.113281 C 23.558594 68.113281 24.515625 67.394531 24.875 67.15625 C 24.277344 66.796875 23.679688 66.441406 23.082031 66.082031 M 9.089844 85.929688 C 6.578125 82.222656 3.109375 78.039062 2.390625 73.492188 C 1.792969 70.265625 4.664062 71.941406 5.980469 73.253906 C 6.695312 73.972656 10.046875 77.320312 9.566406 78.277344 C 8.96875 77.441406 4.304688 71.101562 3.46875 72.179688 C 5.742188 73.253906 7.535156 75.765625 8.96875 77.796875 C 9.804688 78.992188 9.328125 80.308594 9.207031 81.742188 C 8.96875 83.179688 8.96875 84.613281 9.089844 85.929688 M 36.714844 84.851562 C 38.03125 83.058594 39.464844 81.265625 40.78125 79.351562 C 41.976562 77.558594 44.011719 75.289062 44.25 73.015625 C 44.488281 70.503906 41.378906 72.894531 40.542969 73.492188 C 39.703125 74.089844 35.757812 77.082031 36.238281 78.039062 C 38.390625 76.242188 40.78125 73.015625 43.53125 72.296875 C 43.53125 72.777344 41.140625 74.210938 40.660156 74.570312 C 39.585938 75.40625 38.628906 76.363281 37.550781 77.199219 C 37.3125 77.441406 36.117188 78.277344 36.238281 78.515625 C 36.355469 79.234375 36.476562 80.070312 36.59375 80.789062 C 36.835938 82.101562 36.714844 83.539062 36.714844 84.851562 M 17.699219 96.6875 C 19.492188 97.40625 21.40625 96.808594 23.199219 96.929688 C 24.996094 97.046875 26.667969 97.40625 28.464844 97.046875 C 27.507812 99.082031 24.636719 98.960938 22.722656 98.960938 C 20.210938 98.960938 18.894531 98.601562 17.222656 96.570312 C 17.339844 96.570312 17.460938 96.570312 17.699219 96.6875 M 19.972656 97.285156 C 19.734375 97.285156 19.613281 97.285156 19.375 97.167969 C 20.332031 98.125 22.003906 97.765625 23.082031 97.765625 C 24.277344 97.765625 25.59375 98.125 26.789062 97.40625 C 25.710938 97.285156 24.753906 97.046875 23.679688 96.929688 C 22.363281 97.046875 21.167969 97.40625 19.972656 97.285156 M 18.894531 97.285156 C 18.65625 97.167969 18.296875 97.046875 17.9375 97.046875 C 19.253906 98.722656 20.808594 98.839844 22.722656 98.722656 C 24.277344 98.722656 26.550781 98.839844 27.746094 97.527344 C 27.148438 97.527344 26.667969 98.003906 26.070312 98.125 C 25.355469 98.363281 24.515625 98.242188 23.917969 98.125 C 22.003906 98.003906 20.570312 98.484375 18.894531 97.285156 M 21.886719 77.199219 C 19.972656 75.527344 16.980469 76.242188 15.308594 78.039062 C 13.632812 80.070312 13.035156 82.339844 13.273438 84.972656 C 13.515625 87.484375 13.992188 90.472656 15.785156 92.386719 C 17.460938 94.179688 19.734375 94.296875 22.003906 93.820312 C 21.40625 91.546875 25.832031 92.027344 24.753906 93.699219 C 27.265625 93.820312 29.417969 94.058594 30.855469 91.667969 C 32.289062 89.277344 32.648438 86.765625 32.769531 84.015625 C 32.886719 81.863281 32.289062 78.992188 30.734375 77.441406 C 28.820312 75.644531 26.550781 76.363281 24.515625 77.679688 C 24.15625 76.484375 28.34375 75.886719 29.179688 76.242188 C 31.09375 77.082031 31.929688 78.394531 32.527344 80.308594 C 33.605469 84.015625 33.007812 88.558594 31.09375 91.785156 C 28.941406 95.375 24.875 93.582031 21.527344 94.058594 C 17.222656 94.777344 14.949219 92.265625 13.753906 88.4375 C 12.917969 85.449219 12.4375 81.742188 14.230469 78.992188 C 15.785156 76.484375 19.492188 74.570312 22.125 76.960938 C 22.003906 77.082031 21.886719 77.199219 21.886719 77.199219 M 22.363281 93.820312 C 22.722656 93.699219 24.277344 93.9375 24.398438 93.699219 C 24.875 93.339844 24.515625 92.863281 24.15625 92.625 C 23.558594 92.265625 22.003906 92.863281 22.363281 93.820312 M 21.886719 75.886719 C 19.015625 74.449219 14.472656 76.125 13.15625 79.113281 C 11.71875 82.460938 11.71875 86.765625 12.917969 90.234375 C 13.515625 91.785156 14.589844 94.179688 16.265625 94.894531 C 17.101562 95.253906 17.699219 95.613281 18.65625 95.613281 C 19.253906 95.613281 20.929688 95.132812 21.40625 95.375 C 22.003906 95.734375 22.722656 95.972656 23.441406 95.972656 C 24.277344 95.972656 24.636719 95.375 25.355469 95.132812 C 26.191406 94.894531 27.148438 95.132812 27.984375 94.894531 C 28.941406 94.65625 29.660156 94.296875 30.375 93.699219 C 33.605469 90.949219 34.324219 85.210938 33.605469 81.265625 C 32.769531 77.082031 28.941406 73.375 24.515625 75.886719 C 24.15625 74.808594 27.863281 74.808594 28.582031 74.929688 C 30.257812 75.289062 31.8125 76.484375 32.769531 78.039062 C 34.683594 81.144531 34.5625 85.6875 33.484375 89.035156 C 32.410156 92.027344 30.496094 95.492188 26.789062 95.492188 C 25.710938 95.492188 25.355469 95.851562 24.277344 96.210938 C 23.320312 96.570312 22.722656 96.089844 21.886719 95.851562 C 20.210938 95.375 18.417969 96.210938 16.625 95.253906 C 11.960938 93.101562 11.359375 86.289062 12.078125 81.863281 C 12.796875 77.320312 17.460938 73.613281 22.125 75.527344 C 22.003906 75.644531 22.003906 75.765625 21.886719 75.886719 M 27.386719 83.417969 C 31.691406 83.058594 32.527344 91.308594 26.910156 90.234375 C 22.84375 89.394531 23.082031 83.296875 27.386719 83.417969 M 29.539062 84.734375 C 27.148438 81.742188 22.484375 85.808594 24.753906 88.679688 C 25.832031 89.992188 28.222656 90.589844 29.660156 89.636719 C 31.332031 88.558594 30.855469 86.046875 29.539062 84.734375 M 18.179688 83.417969 C 23.441406 83.777344 22.246094 91.429688 17.460938 90.472656 C 15.667969 90.113281 14.351562 88.199219 14.589844 86.40625 C 14.828125 84.375 16.144531 83.65625 18.179688 83.417969 M 18.179688 83.777344 C 14.351562 83.65625 13.515625 89.035156 17.101562 90.234375 C 21.644531 91.546875 23.320312 83.777344 18.179688 83.777344 M 24.515625 76.722656 C 30.136719 72.894531 33.605469 79.472656 33.605469 84.375 C 33.605469 86.886719 32.886719 89.875 31.574219 92.027344 C 29.898438 94.65625 27.507812 95.492188 24.515625 94.777344 C 24.636719 94.296875 27.027344 94.777344 27.625 94.65625 C 29.0625 94.417969 30.257812 93.582031 30.972656 92.386719 C 32.410156 90.113281 33.246094 87.242188 33.246094 84.492188 C 33.367188 81.863281 32.648438 79.472656 31.09375 77.320312 C 30.375 76.363281 28.941406 75.765625 27.746094 75.886719 C 27.027344 76.003906 24.753906 77.082031 24.515625 76.722656 M 22.125 76.601562 C 19.613281 75.644531 17.101562 75.765625 15.070312 77.679688 C 12.917969 79.832031 12.675781 82.699219 12.796875 85.570312 C 12.917969 88.082031 13.871094 90.710938 15.308594 92.742188 C 16.980469 95.132812 19.972656 95.132812 22.601562 94.535156 C 22.601562 95.132812 19.851562 95.253906 19.253906 95.132812 C 17.820312 95.015625 16.503906 94.65625 15.546875 93.460938 C 13.753906 91.308594 12.796875 88.4375 12.558594 85.570312 C 12.316406 82.820312 12.675781 79.832031 14.589844 77.796875 C 16.503906 75.765625 19.734375 74.808594 22.363281 76.242188 C 22.246094 76.363281 22.125 76.484375 22.125 76.601562 M 22.484375 75.765625 C 23.441406 75.765625 25.113281 75.765625 23.917969 76.960938 C 23.558594 77.320312 23.679688 77.320312 23.800781 77.796875 C 23.917969 78.039062 24.15625 78.15625 23.917969 78.394531 C 23.441406 78.875 23.800781 78.875 23.679688 79.351562 C 23.679688 79.234375 23.679688 80.070312 23.679688 79.949219 C 23.679688 80.429688 23.320312 80.191406 23.679688 80.667969 C 23.800781 80.90625 24.15625 81.027344 23.917969 81.386719 C 23.679688 81.625 23.441406 81.863281 23.558594 82.101562 C 23.679688 82.339844 23.917969 82.699219 23.917969 82.9375 C 23.917969 83.179688 23.441406 83.296875 23.441406 83.539062 C 23.441406 84.136719 24.277344 84.136719 23.800781 84.734375 C 23.441406 85.210938 22.484375 85.449219 22.003906 84.972656 C 21.644531 84.613281 22.484375 84.375 22.246094 84.136719 C 22.125 83.894531 21.765625 83.65625 22.003906 83.417969 C 22.363281 83.058594 22.125 82.9375 22.246094 82.699219 C 22.246094 82.820312 22.246094 81.984375 22.246094 82.101562 C 22.363281 81.984375 22.484375 81.984375 22.601562 81.863281 C 22.484375 81.742188 22.484375 81.625 22.363281 81.503906 C 22.363281 81.625 22.363281 80.789062 22.363281 80.90625 C 22.246094 80.429688 22.722656 80.789062 22.363281 80.308594 C 22.125 79.949219 22.84375 79.710938 22.246094 79.113281 C 22.003906 78.875 22.601562 78.277344 21.886719 77.796875 C 22.960938 77.320312 21.886719 76.601562 22.484375 75.765625 M 27.386719 84.734375 C 30.375 84.972656 30.375 89.394531 27.507812 89.515625 C 24.636719 89.515625 24.039062 84.492188 27.386719 84.734375 M 18.058594 84.613281 C 19.253906 84.972656 20.210938 85.570312 20.332031 86.886719 C 20.449219 88.082031 19.136719 89.515625 17.9375 89.515625 C 15.070312 89.515625 15.070312 84.734375 18.058594 84.613281 "/>
</g>
</svg>
