<?xml version="1.0" encoding="UTF-8"?>
<svg xmlns="http://www.w3.org/2000/svg" xmlns:xlink="http://www.w3.org/1999/xlink" width="62px" height="100px" viewBox="0 0 62 100" version="1.1">
<g id="surface1">
<path style=" stroke:none;fill-rule:evenodd;fill:rgb(0%,0%,0%);fill-opacity:1;" d="M 5.835938 12.976562 C 5.652344 9.617188 8.019531 7.714844 11.386719 5.71875 C 17.03125 2.359375 23.128906 0.179688 30.042969 0 C 36.507812 0.0898438 42.605469 1.269531 47.882812 4.082031 C 52.980469 6.351562 54.617188 10.253906 55.617188 14.429688 C 57.347656 22.140625 57.257812 29.671875 56.253906 36.933594 C 58.804688 36.933594 61.351562 36.933594 61.898438 39.835938 C 62.261719 42.558594 61.441406 51.722656 57.164062 50.816406 C 55.34375 50.363281 55.074219 50.636719 55.4375 51.269531 C 56.4375 52.902344 57.53125 54.539062 58.53125 56.171875 C 59.988281 58.167969 60.351562 58.894531 59.804688 60.527344 C 58.167969 65.609375 56.621094 70.78125 54.980469 75.863281 C 49.429688 88.023438 43.878906 98.820312 28.859375 99.820312 C 14.480469 97.640625 6.015625 80.761719 3.289062 68.332031 C 2.648438 65.515625 1.921875 62.703125 1.285156 59.890625 C 1.195312 59.4375 1.195312 59.074219 1.285156 58.800781 C 1.375 58.4375 2.648438 57.078125 3.105469 56.535156 C 4.195312 54.992188 5.105469 53.175781 5.925781 50.90625 C 4.46875 51.269531 3.195312 51 2.195312 50.179688 C 0.191406 48.367188 0.285156 43.828125 0.0117188 41.289062 C 0.285156 37.207031 2.46875 37.660156 5.835938 37.207031 C 5.652344 29.128906 5.289062 21.234375 5.835938 12.976562 Z M 5.835938 12.976562 "/>
<path style=" stroke:none;fill-rule:evenodd;fill:rgb(100%,100%,100%);fill-opacity:1;" d="M 36.507812 63.882812 L 32.410156 68.511719 L 38.597656 68.332031 Z M 36.507812 63.882812 "/>
<path style=" stroke:none;fill-rule:evenodd;fill:rgb(100%,100%,100%);fill-opacity:1;" d="M 23.492188 63.882812 L 21.398438 68.332031 L 27.585938 68.511719 Z M 23.492188 63.882812 "/>
<path style=" stroke:none;fill-rule:evenodd;fill:rgb(100%,100%,100%);fill-opacity:1;" d="M 36.414062 43.101562 C 35.597656 44.101562 35.6875 44.738281 36.414062 45.191406 C 43.515625 50.363281 51.433594 44.464844 48.15625 42.105469 C 44.96875 38.929688 39.238281 39.5625 36.414062 43.101562 Z M 36.414062 43.101562 "/>
<path style=" stroke:none;fill-rule:evenodd;fill:rgb(100%,100%,100%);fill-opacity:1;" d="M 23.855469 43.464844 C 21.035156 39.835938 15.300781 39.292969 12.113281 42.46875 C 8.839844 44.828125 16.757812 50.726562 23.855469 45.554688 C 24.582031 45.191406 24.765625 44.464844 23.855469 43.464844 Z M 23.855469 43.464844 "/>
<path style=" stroke:none;fill-rule:evenodd;fill:rgb(100%,100%,100%);fill-opacity:1;" d="M 34.777344 33.667969 C 36.597656 33.03125 38.234375 32.304688 39.875 31.851562 C 42.875 30.945312 44.96875 31.308594 47.609375 32.941406 C 49.613281 34.121094 51.25 35.933594 52.613281 38.203125 C 50.429688 29.128906 41.238281 26.496094 34.777344 33.667969 Z M 34.777344 33.667969 "/>
<path style=" stroke:none;fill-rule:evenodd;fill:rgb(100%,100%,100%);fill-opacity:1;" d="M 25.222656 33.667969 C 18.757812 26.496094 9.566406 29.128906 7.382812 38.113281 C 8.746094 35.84375 10.386719 34.027344 12.386719 32.847656 C 15.027344 31.214844 17.121094 30.945312 20.125 31.761719 C 21.761719 32.214844 23.402344 33.03125 25.222656 33.667969 Z M 25.222656 33.667969 "/>
<path style=" stroke:none;fill-rule:evenodd;fill:rgb(100%,100%,100%);fill-opacity:1;" d="M 32.320312 45.007812 C 30.863281 45.007812 29.5 45.007812 28.042969 45.007812 C 27.3125 50.179688 26.402344 55.898438 24.3125 60.980469 C 24.039062 61.976562 24.039062 62.886719 24.855469 63.792969 C 26.132812 65.425781 27.40625 67.058594 28.769531 68.601562 L 31.773438 68.601562 C 33.046875 66.96875 34.320312 65.335938 35.6875 63.792969 C 36.414062 62.886719 36.507812 61.976562 36.234375 60.980469 C 33.957031 55.898438 33.046875 50.179688 32.320312 45.007812 Z M 32.320312 45.007812 "/>
<path style=" stroke:none;fill-rule:evenodd;fill:rgb(100%,100%,100%);fill-opacity:1;" d="M 18.03125 82.03125 C 24.3125 90.5625 38.328125 89.925781 42.511719 81.035156 C 39.144531 78.949219 21.214844 78.128906 18.03125 82.03125 Z M 18.03125 82.03125 "/>
<path style=" stroke:none;fill-rule:evenodd;fill:rgb(0%,0%,0%);fill-opacity:1;" d="M 21.125 83.304688 C 24.855469 87.929688 36.597656 87.839844 39.144531 82.941406 C 37.234375 81.761719 23.765625 81.214844 21.125 83.304688 Z M 21.125 83.304688 "/>
</g>
</svg>
