<?xml version="1.0" encoding="UTF-8"?>
<svg xmlns="http://www.w3.org/2000/svg" xmlns:xlink="http://www.w3.org/1999/xlink" width="99px" height="52px" viewBox="0 0 99 52" version="1.1">
<g id="surface1">
<path style=" stroke:none;fill-rule:evenodd;fill:rgb(0%,0%,0%);fill-opacity:1;" d="M 21.300781 45.71875 C 23.976562 46.964844 26.652344 48.210938 29.535156 49.039062 C 48.058594 54.125 68.4375 52.570312 84.488281 41.152344 C 88.398438 38.351562 91.898438 34.925781 95.089844 31.292969 C 95.707031 30.566406 99.515625 26.621094 99 25.792969 C 97.457031 23.714844 95.914062 21.640625 94.265625 19.773438 C 88.089844 12.714844 80.886719 6.695312 72.140625 3.480469 C 55.261719 -2.644531 34.476562 -0.152344 19.347656 9.394531 C 11.835938 14.273438 5.660156 20.1875 0.617188 27.660156 C 0.207031 28.285156 -0.207031 28.492188 0.308594 29.113281 C 0.824219 29.734375 1.441406 30.253906 1.957031 30.878906 C 2.777344 31.707031 3.601562 32.539062 4.425781 33.265625 C 6.070312 34.925781 7.820312 36.378906 9.671875 37.933594 C 13.171875 41.046875 17.1875 43.4375 21.300781 45.71875 M 24.90625 25.792969 C 25.007812 28.386719 28.507812 28.492188 28.609375 25.894531 C 28.609375 23.300781 25.214844 23.40625 24.90625 25.792969 M 18.523438 24.859375 C 18.625 27.453125 22.230469 27.558594 22.230469 24.960938 C 22.230469 22.265625 19.039062 22.472656 18.523438 24.859375 M 16.980469 37.417969 C 19.140625 39.285156 21.40625 40.21875 24.285156 40.113281 C 23.464844 38.871094 19.246094 32.539062 22.433594 31.707031 C 23.976562 31.292969 23.464844 33.992188 23.566406 34.820312 C 23.773438 36.480469 24.59375 38.246094 25.417969 39.699219 C 26.960938 39.078125 26.757812 37.207031 26.652344 35.859375 C 26.550781 34.40625 26.859375 33.472656 27.578125 32.226562 C 28.917969 29.945312 32.929688 30.460938 35.09375 30.878906 C 37.355469 31.292969 39.519531 32.539062 40.957031 34.300781 C 41.988281 35.652344 41.882812 38.972656 39.519531 38.660156 C 37.871094 38.453125 37.664062 35.445312 35.914062 35.753906 C 33.652344 36.171875 36.429688 38.765625 36.328125 39.804688 C 36.222656 41.984375 33.753906 38.351562 33.445312 37.726562 C 33.035156 36.898438 32.109375 35.027344 31.285156 36.585938 C 30.460938 38.144531 32.828125 39.804688 33.753906 40.53125 C 34.886719 41.464844 34.785156 43.125 33.035156 42.191406 C 31.695312 41.566406 30.5625 39.179688 28.917969 40.738281 C 27.476562 42.191406 30.253906 43.4375 31.183594 43.953125 C 34.886719 45.71875 40.136719 46.238281 44.148438 45.71875 C 45.898438 45.511719 48.367188 45.40625 48.367188 43.019531 C 48.367188 40.839844 48.265625 38.660156 48.265625 36.585938 C 48.265625 35.027344 47.441406 31.707031 49.292969 30.980469 C 50.835938 30.359375 53.71875 30.671875 55.367188 30.878906 C 57.320312 31.085938 60.101562 31.914062 61.335938 33.578125 C 62.671875 35.445312 60.613281 37.625 58.761719 36.171875 C 57.9375 35.546875 56.496094 32.640625 55.160156 34.511719 C 54.132812 35.964844 57.320312 38.246094 55.777344 39.285156 C 54.75 40.011719 53.617188 37.832031 53 37.207031 C 51.765625 36.066406 50.527344 37 50.941406 38.558594 C 51.25 39.59375 53 39.90625 53.820312 40.53125 C 54.335938 40.945312 54.335938 41.566406 53.71875 41.984375 C 53.101562 42.292969 52.175781 41.566406 51.351562 41.878906 C 48.984375 42.8125 51.148438 44.578125 52.691406 44.992188 C 54.953125 45.613281 57.527344 45.304688 59.792969 44.992188 C 64.113281 44.371094 68.949219 43.019531 72.859375 41.046875 C 74.40625 40.21875 76.769531 39.078125 77.183594 37.105469 C 77.59375 34.925781 76.050781 33.265625 74.199219 32.433594 C 73.785156 32.226562 72.039062 32.125 71.933594 31.707031 C 71.625 30.878906 72.757812 30.980469 73.273438 30.878906 C 75.535156 30.566406 77.902344 30.152344 79.859375 28.90625 C 89.019531 22.886719 78.007812 12.820312 72.347656 9.601562 C 64.832031 5.554688 54.441406 3.375 45.898438 6.074219 C 41.472656 7.421875 37.769531 9.601562 34.679688 13.234375 C 34.0625 13.960938 32.519531 16.347656 34.269531 16.347656 C 35.914062 16.347656 38.386719 13.546875 39.621094 12.714844 C 47.234375 7.628906 57.320312 7.835938 65.347656 11.886719 C 68.847656 13.648438 72.347656 16.554688 74.09375 20.085938 C 74.917969 21.640625 73.683594 22.367188 72.242188 21.640625 C 70.492188 20.707031 68.949219 18.527344 67.40625 17.28125 C 59.996094 11.261719 49.292969 11.988281 41.265625 16.453125 C 39.414062 17.488281 37.769531 19.148438 36.328125 20.601562 C 35.710938 21.226562 35.195312 22.054688 34.371094 22.265625 C 34.0625 22.367188 32.109375 22.367188 32.003906 21.847656 C 31.695312 20.914062 32.109375 19.980469 31.800781 18.941406 C 31.492188 18.007812 30.976562 17.59375 30.253906 16.972656 C 28.816406 15.726562 25.832031 15.828125 24.183594 16.347656 C 19.554688 17.59375 16.054688 20.601562 14.40625 25.167969 C 12.65625 29.425781 13.996094 34.199219 16.980469 37.417969 M 93.441406 25.792969 C 94.058594 26.933594 88.605469 31.8125 87.578125 32.851562 C 85.3125 35.132812 82.84375 37.3125 80.167969 39.179688 C 75.023438 42.8125 69.363281 45.199219 63.289062 46.859375 C 45.488281 51.738281 25.523438 47.171875 12.144531 34.40625 C 10.496094 32.851562 9.054688 31.085938 7.71875 29.320312 C 6.585938 27.765625 8.542969 26.414062 9.570312 25.167969 C 12.554688 21.433594 15.949219 17.90625 19.757812 15 C 27.269531 9.1875 35.914062 5.035156 45.28125 3.996094 C 54.542969 2.960938 63.703125 3.996094 72.140625 8.148438 C 80.476562 12.300781 87.472656 18.734375 93.441406 25.792969 "/>
</g>
</svg>
