<?xml version="1.0" encoding="UTF-8"?>
<svg xmlns="http://www.w3.org/2000/svg" xmlns:xlink="http://www.w3.org/1999/xlink" width="75px" height="100px" viewBox="0 0 75 100" version="1.1">
<g id="surface1">
<path style=" stroke:none;fill-rule:nonzero;fill:rgb(63.921571%,35.686275%,14.901961%);fill-opacity:1;" d="M 2.699219 65.039062 C -0.578125 65.714844 0.191406 72.847656 2.023438 75.644531 C 1.929688 70.4375 6.84375 66.386719 3.277344 64.941406 C 2.890625 65.039062 3.179688 64.847656 2.699219 65.039062 Z M 2.699219 65.039062 "/>
<path style=" stroke:none;fill-rule:nonzero;fill:rgb(95.294118%,70.588237%,10.588235%);fill-opacity:1;" d="M 33.742188 30.71875 L 35.1875 29.273438 C 34.320312 29.949219 33.742188 30.527344 33.742188 30.71875 Z M 33.742188 30.71875 "/>
<path style=" stroke:none;fill-rule:nonzero;fill:rgb(63.921571%,35.686275%,14.901961%);fill-opacity:1;" d="M 46.175781 20.597656 C 51.863281 14.621094 57.359375 3.4375 59.480469 5.269531 C 53.117188 19.054688 39.042969 33.515625 33.742188 30.71875 C 34.222656 29.464844 42.707031 24.261719 46.175781 20.597656 Z M 46.175781 20.597656 "/>
<path style=" stroke:none;fill-rule:nonzero;fill:rgb(95.294118%,70.588237%,10.588235%);fill-opacity:1;" d="M 74.132812 13.078125 C 74.132812 13.078125 69.699219 8.933594 68.347656 5.367188 C 67.578125 5.078125 65.457031 5.367188 65.457031 5.367188 C 65.457031 5.367188 64.300781 3.34375 62.949219 0.546875 C 62.660156 0.449219 62.273438 1.027344 62.273438 1.027344 C 62.273438 1.027344 62.851562 3.535156 62.660156 4.015625 C 62.46875 4.5 61.792969 5.078125 61.792969 5.078125 C 61.792969 5.078125 60.058594 4.882812 59.574219 5.269531 C 59.285156 6.234375 48.488281 28.597656 33.933594 30.816406 C 32.390625 30.335938 29.691406 32.359375 29.113281 32.839844 C 27.28125 34.09375 24.871094 38.238281 21.207031 40.746094 C 17.546875 43.25 11.085938 44.890625 10.507812 45.082031 C 7.328125 47.300781 4.917969 52.121094 5.589844 56.265625 C 5.207031 58.773438 6.363281 62.148438 6.265625 66.386719 C 6.167969 71.015625 3.855469 73.617188 3.46875 74.390625 C 3.085938 75.257812 6.457031 80.171875 1.253906 95.117188 C 1.445312 96.078125 2.507812 96.273438 2.507812 96.273438 C 2.507812 96.273438 1.542969 99.261719 2.121094 99.261719 C 2.601562 99.261719 5.878906 99.355469 6.457031 99.261719 C 6.363281 96.949219 4.917969 97.238281 4.53125 95.40625 C 4.050781 93.667969 7.230469 80.269531 7.617188 78.4375 C 7.90625 77.859375 8.097656 77.378906 8.386719 76.800781 C 11.375 85.859375 10.027344 94.730469 10.410156 95.5 C 10.796875 96.273438 11.855469 96.5625 11.855469 96.5625 L 11.566406 99.355469 L 16.195312 99.355469 C 16.195312 99.355469 16.484375 97.910156 15.808594 97.042969 C 15.230469 96.175781 14.460938 95.886719 13.496094 95.40625 C 11.953125 93.574219 12.242188 79.113281 12.242188 78.4375 C 12.628906 73.234375 17.160156 63.976562 16.582031 61.855469 C 16.582031 61.855469 16.582031 61.761719 16.675781 61.761719 C 18.703125 62.628906 20.4375 63.304688 21.496094 63.496094 C 25.160156 64.074219 29.210938 62.628906 29.210938 62.628906 L 30.945312 62.4375 C 30.847656 65.617188 30.945312 69.183594 28.921875 76.800781 C 29.882812 83.835938 27.183594 93.667969 27.183594 94.828125 C 27.183594 95.984375 28.148438 96.851562 28.148438 96.851562 L 27.667969 99.355469 C 27.667969 99.355469 31.714844 99.261719 32.199219 99.355469 C 32.101562 96.273438 30.171875 95.886719 30.171875 95.886719 C 30.171875 95.886719 30.65625 82.96875 32.777344 78.148438 C 33.546875 75.933594 33.257812 72.847656 35.1875 66.484375 C 35.1875 66.484375 39.429688 71.882812 41.355469 78.050781 C 44.152344 84.414062 45.019531 91.933594 45.308594 93.863281 C 45.597656 95.789062 46.367188 94.828125 46.5625 95.789062 C 46.753906 96.753906 45.40625 97.621094 45.984375 99.261719 L 51.476562 99.261719 C 51.476562 99.261719 51.285156 95.886719 48.875 95.886719 C 46.273438 89.523438 45.984375 81.042969 45.117188 76.894531 C 44.34375 72.847656 40.679688 68.605469 39.910156 59.351562 C 41.742188 56.554688 42.417969 52.410156 42.417969 51.640625 C 42.511719 50.578125 40.777344 48.746094 40.296875 47.878906 C 39.8125 47.109375 39.8125 44.988281 40.296875 44.3125 C 54.464844 32.839844 60.636719 14.8125 61.792969 13.945312 C 62.179688 13.464844 62.660156 13.078125 62.949219 12.980469 C 63.335938 12.886719 64.878906 14.140625 66.132812 14.140625 C 67.382812 14.140625 67.769531 13.945312 68.347656 13.851562 C 68.925781 13.753906 70.757812 15.101562 71.722656 15.199219 C 72.6875 15.199219 73.070312 14.910156 73.070312 14.910156 C 73.070312 14.910156 74.035156 15.296875 74.324219 15.007812 C 74.710938 14.71875 74.132812 13.078125 74.132812 13.078125 Z M 8.195312 76.894531 C 11.085938 70.917969 15.230469 63.6875 16.386719 61.855469 Z M 8.195312 76.894531 "/>
<path style=" stroke:none;fill-rule:nonzero;fill:rgb(30.588236%,30.588236%,30.588236%);fill-opacity:1;" d="M 34.222656 30.816406 L 33.257812 30.71875 C 33.257812 30.046875 34.222656 29.371094 37.113281 27.347656 C 39.71875 25.515625 43.1875 23.007812 45.886719 20.308594 C 48.683594 17.417969 50.898438 14.042969 52.925781 11.148438 C 55.71875 6.910156 57.746094 3.921875 59.769531 4.882812 L 59.382812 5.75 C 58.035156 5.078125 56.105469 8.160156 53.695312 11.632812 C 51.765625 14.523438 49.453125 18.089844 46.5625 20.984375 C 43.863281 23.777344 40.296875 26.285156 37.691406 28.214844 C 36.054688 29.273438 34.414062 30.429688 34.222656 30.816406 Z M 34.222656 30.816406 "/>
<path style=" stroke:none;fill-rule:nonzero;fill:rgb(30.588236%,30.588236%,30.588236%);fill-opacity:1;" d="M 51.863281 99.839844 L 45.597656 99.839844 L 45.5 99.550781 C 45.117188 98.394531 45.5 97.527344 45.886719 96.949219 C 46.078125 96.5625 46.175781 96.273438 46.175781 96.078125 C 46.175781 95.886719 46.175781 95.886719 45.984375 95.886719 C 45.40625 95.695312 45.019531 95.308594 44.921875 94.152344 L 44.828125 93.574219 C 44.441406 91.066406 43.574219 84.222656 40.96875 78.4375 C 39.140625 72.363281 34.992188 67.0625 34.898438 66.964844 L 35.667969 66.386719 C 35.859375 66.582031 40.007812 71.882812 41.839844 78.148438 C 44.441406 84.03125 45.308594 90.875 45.695312 93.476562 L 45.789062 94.054688 C 45.886719 94.921875 46.078125 95.019531 46.273438 95.019531 C 46.464844 95.117188 46.949219 95.210938 47.042969 95.886719 C 47.140625 96.464844 46.949219 96.949219 46.65625 97.429688 C 46.464844 97.910156 46.175781 98.394531 46.273438 98.972656 L 50.804688 98.972656 C 50.707031 98.105469 50.226562 96.5625 48.777344 96.5625 L 48.488281 96.5625 L 48.394531 96.273438 C 46.5625 91.644531 45.789062 86.148438 45.308594 81.714844 C 45.117188 79.980469 44.921875 78.4375 44.632812 77.28125 C 44.34375 75.835938 43.765625 74.390625 42.996094 72.75 C 41.644531 69.664062 39.910156 65.714844 39.429688 59.640625 L 40.390625 59.542969 C 40.875 65.425781 42.609375 69.28125 43.957031 72.363281 C 44.730469 74.101562 45.40625 75.546875 45.695312 77.089844 C 45.886719 78.246094 46.078125 79.789062 46.367188 81.621094 C 46.949219 85.957031 47.527344 91.257812 49.261719 95.695312 C 51.285156 95.886719 51.960938 98.296875 51.960938 99.550781 Z M 51.863281 99.839844 "/>
<path style=" stroke:none;fill-rule:nonzero;fill:rgb(30.588236%,30.588236%,30.588236%);fill-opacity:1;" d="M 16.386719 99.839844 L 10.796875 99.839844 L 11.085938 96.851562 C 10.699219 96.65625 10.027344 96.273438 9.738281 95.695312 C 9.640625 95.40625 9.640625 94.921875 9.640625 93.378906 C 9.738281 90.199219 9.832031 83.546875 7.710938 76.894531 L 8.675781 76.605469 C 10.894531 83.449219 10.699219 90.101562 10.699219 93.378906 C 10.699219 94.152344 10.699219 95.019531 10.699219 95.210938 C 10.894531 95.597656 11.566406 95.886719 11.855469 95.984375 L 12.242188 96.078125 L 11.953125 98.777344 L 15.617188 98.777344 C 15.617188 98.296875 15.617188 97.621094 15.328125 97.238281 C 14.847656 96.5625 14.363281 96.367188 13.6875 95.984375 C 13.496094 95.886719 13.398438 95.789062 13.207031 95.695312 L 13.109375 95.597656 C 11.566406 93.957031 11.472656 83.066406 11.566406 78.4375 L 11.566406 78.34375 C 11.761719 75.644531 13.015625 71.882812 14.171875 68.507812 C 15.136719 65.714844 16.097656 62.820312 15.90625 61.953125 L 16.871094 61.664062 C 17.160156 62.726562 16.386719 65.136719 15.136719 68.796875 C 13.976562 72.074219 12.726562 75.835938 12.53125 78.34375 C 12.4375 87.113281 12.820312 93.765625 13.6875 94.921875 C 13.785156 95.019531 13.976562 95.019531 14.074219 95.117188 C 14.75 95.5 15.425781 95.886719 16.003906 96.65625 C 16.773438 97.71875 16.484375 99.261719 16.484375 99.355469 Z M 16.386719 99.839844 "/>
<path style=" stroke:none;fill-rule:nonzero;fill:rgb(30.588236%,30.588236%,30.588236%);fill-opacity:1;" d="M 37.019531 62.242188 L 36.824219 61.277344 C 40.390625 60.410156 41.742188 53.085938 41.933594 51.640625 C 42.03125 51.058594 41.066406 49.808594 40.488281 49.035156 C 40.199219 48.746094 40.007812 48.457031 39.910156 48.167969 C 39.332031 47.300781 39.332031 44.988281 39.910156 44.121094 L 40.007812 44.023438 C 50.804688 35.152344 56.875 22.71875 59.769531 16.839844 C 60.734375 14.71875 61.214844 13.945312 61.503906 13.65625 C 61.984375 13.078125 62.46875 12.691406 62.949219 12.597656 C 63.238281 12.597656 63.527344 12.691406 64.105469 12.980469 C 64.683594 13.269531 65.550781 13.753906 66.226562 13.753906 C 67 13.753906 67.382812 13.65625 67.769531 13.558594 C 67.960938 13.558594 68.15625 13.464844 68.347656 13.464844 C 68.734375 13.367188 69.3125 13.65625 70.082031 14.042969 C 70.660156 14.332031 71.433594 14.71875 71.820312 14.71875 C 72.589844 14.71875 72.878906 14.523438 72.878906 14.523438 L 73.070312 14.332031 L 73.359375 14.429688 C 73.554688 14.523438 73.84375 14.621094 74.035156 14.621094 C 74.035156 14.332031 73.84375 13.851562 73.746094 13.367188 C 73.070312 12.789062 69.410156 9.125 67.960938 5.847656 C 67.382812 5.75 66.226562 5.847656 65.550781 5.945312 L 65.261719 5.945312 L 65.070312 5.65625 C 65.070312 5.65625 64.105469 3.921875 62.851562 1.414062 C 63.046875 2.378906 63.335938 3.726562 63.144531 4.210938 C 62.949219 4.789062 62.273438 5.367188 62.082031 5.460938 L 61.890625 5.558594 L 61.695312 5.558594 C 60.925781 5.460938 60.152344 5.460938 59.863281 5.558594 C 58.804688 7.777344 48.488281 29.082031 33.933594 31.203125 L 33.742188 31.203125 C 32.488281 30.816406 30.171875 32.359375 29.304688 33.128906 C 28.535156 33.613281 27.761719 34.574219 26.800781 35.734375 C 25.351562 37.371094 23.617188 39.492188 21.304688 41.035156 C 18.21875 43.058594 13.398438 44.601562 11.277344 45.179688 C 10.894531 45.277344 10.699219 45.371094 10.507812 45.371094 C 7.808594 47.589844 5.398438 52.121094 6.074219 56.265625 L 5.109375 56.457031 C 4.339844 52.023438 7.039062 47.011719 10.121094 44.792969 L 10.21875 44.699219 C 10.316406 44.699219 10.605469 44.601562 11.085938 44.410156 C 13.109375 43.832031 17.835938 42.382812 20.824219 40.359375 C 22.945312 38.914062 24.679688 36.890625 26.125 35.25 C 27.183594 34.09375 28.050781 33.035156 28.824219 32.453125 C 28.824219 32.453125 31.910156 29.851562 33.933594 30.335938 C 47.621094 28.214844 58.515625 7.003906 59.09375 5.078125 L 59.09375 4.980469 L 59.285156 4.882812 C 59.769531 4.5 60.925781 4.5 61.695312 4.59375 C 61.890625 4.402344 62.179688 4.113281 62.273438 3.921875 C 62.371094 3.632812 62.082031 2.28125 61.890625 1.125 L 61.890625 0.933594 L 61.984375 0.738281 C 62.082031 0.546875 62.5625 -0.128906 63.238281 0.0625 L 63.433594 0.160156 L 63.527344 0.351562 C 64.589844 2.472656 65.457031 4.210938 65.84375 4.882812 C 66.421875 4.789062 67.769531 4.691406 68.445312 4.882812 L 68.636719 4.980469 L 68.734375 5.171875 C 70.082031 8.546875 74.421875 12.597656 74.421875 12.691406 L 74.519531 12.789062 L 74.519531 12.886719 C 75.289062 14.8125 74.808594 15.199219 74.710938 15.390625 C 74.324219 15.777344 73.648438 15.585938 73.167969 15.488281 C 72.878906 15.585938 72.398438 15.777344 71.722656 15.777344 C 71.144531 15.777344 70.371094 15.390625 69.601562 15.007812 C 69.214844 14.8125 68.636719 14.523438 68.445312 14.523438 C 68.25 14.523438 68.15625 14.621094 67.960938 14.621094 C 67.578125 14.71875 67.09375 14.8125 66.132812 14.8125 C 65.261719 14.8125 64.300781 14.332031 63.527344 13.945312 C 63.238281 13.851562 62.949219 13.65625 62.851562 13.65625 C 62.757812 13.65625 62.46875 13.851562 62.082031 14.429688 L 61.984375 14.523438 C 61.792969 14.71875 61.117188 16.066406 60.445312 17.417969 C 57.550781 23.394531 51.476562 35.925781 40.488281 44.890625 C 40.101562 45.46875 40.199219 47.300781 40.585938 47.878906 C 40.679688 48.070312 40.875 48.359375 41.164062 48.648438 C 41.933594 49.613281 42.898438 50.964844 42.800781 51.929688 C 42.800781 51.832031 41.742188 61.085938 37.019531 62.242188 Z M 37.019531 62.242188 "/>
<path style=" stroke:none;fill-rule:nonzero;fill:rgb(30.588236%,30.588236%,30.588236%);fill-opacity:1;" d="M 23.136719 64.074219 C 22.558594 64.074219 21.882812 64.074219 21.304688 63.976562 C 20.246094 63.785156 18.605469 63.207031 16.292969 62.242188 L 16.675781 61.375 C 18.894531 62.339844 20.535156 62.917969 21.402344 63.109375 C 24.871094 63.6875 28.824219 62.242188 28.921875 62.242188 L 29.015625 62.242188 L 30.75 62.050781 L 30.847656 63.015625 L 29.210938 63.109375 C 28.726562 63.109375 26.027344 64.074219 23.136719 64.074219 Z M 23.136719 64.074219 "/>
<path style=" stroke:none;fill-rule:nonzero;fill:rgb(30.588236%,30.588236%,30.588236%);fill-opacity:1;" d="M 5.109375 99.839844 C 4.433594 99.839844 3.664062 99.839844 2.796875 99.839844 C 2.410156 99.839844 2.21875 99.839844 2.023438 99.839844 C 1.832031 99.839844 1.640625 99.742188 1.542969 99.550781 C 1.445312 99.453125 1.15625 98.972656 1.832031 96.65625 C 1.351562 96.464844 0.769531 96.078125 0.675781 95.210938 L 0.675781 95.019531 C 4.722656 83.257812 3.566406 77.761719 3.085938 75.644531 C 2.890625 74.96875 2.796875 74.582031 2.988281 74.195312 C 3.085938 74.101562 3.179688 73.90625 3.375 73.617188 C 4.144531 72.460938 5.6875 70.148438 5.785156 66.386719 C 5.785156 64.265625 5.589844 62.4375 5.300781 60.796875 C 5.109375 58.867188 4.820312 57.132812 5.207031 55.6875 C 5.496094 54.820312 7.039062 51.351562 9.0625 48.648438 L 9.832031 49.230469 C 7.90625 51.832031 6.363281 55.109375 6.074219 55.976562 C 5.785156 57.230469 5.976562 58.867188 6.265625 60.796875 C 6.554688 62.53125 6.75 64.460938 6.75 66.582031 C 6.652344 70.628906 5.011719 73.039062 4.144531 74.292969 C 4.050781 74.484375 3.855469 74.679688 3.855469 74.773438 C 3.855469 74.773438 3.953125 75.160156 4.050781 75.546875 C 4.53125 77.667969 5.785156 83.355469 1.640625 95.308594 C 1.832031 95.886719 2.507812 95.984375 2.507812 95.984375 L 2.988281 96.078125 L 2.988281 96.464844 C 2.699219 97.332031 2.507812 98.394531 2.410156 98.875 C 2.507812 98.875 2.699219 98.875 2.796875 98.875 C 3.566406 98.875 5.011719 98.875 5.785156 98.875 C 5.6875 98.105469 5.300781 97.71875 4.917969 97.332031 C 4.53125 96.949219 4.050781 96.464844 3.855469 95.597656 C 3.46875 94.25 4.917969 87.402344 6.457031 80.269531 C 6.652344 79.402344 6.84375 78.726562 6.84375 78.34375 L 6.84375 78.246094 C 9.832031 71.496094 15.519531 61.953125 16.097656 61.085938 C 16.195312 60.507812 16.773438 57.328125 16.773438 54.050781 L 17.738281 54.050781 C 17.738281 57.710938 17.0625 61.277344 17.0625 61.277344 L 16.964844 61.472656 C 16.871094 61.566406 10.894531 71.59375 7.808594 78.632812 C 7.710938 79.015625 7.617188 79.59375 7.421875 80.460938 C 6.652344 84.125 4.433594 93.957031 4.820312 95.308594 C 5.011719 95.984375 5.300781 96.273438 5.6875 96.65625 C 6.167969 97.140625 6.75 97.816406 6.84375 99.261719 L 6.84375 99.648438 L 6.457031 99.742188 C 6.265625 99.839844 5.785156 99.839844 5.109375 99.839844 Z M 5.109375 99.839844 "/>
<path style=" stroke:none;fill-rule:nonzero;fill:rgb(30.588236%,30.588236%,30.588236%);fill-opacity:1;" d="M 32.582031 99.9375 L 32.003906 99.839844 C 31.621094 99.839844 29.113281 99.839844 27.472656 99.839844 L 26.894531 99.839844 L 27.472656 97.042969 C 27.183594 96.65625 26.605469 95.789062 26.605469 94.828125 C 26.605469 94.539062 26.703125 93.863281 26.992188 92.609375 C 27.667969 89.234375 29.015625 82.199219 28.34375 76.800781 L 28.34375 76.605469 C 30.269531 69.085938 30.460938 63.976562 30.558594 60.894531 C 30.65625 59.15625 30.65625 58.097656 30.945312 57.328125 L 31.8125 57.617188 C 31.621094 58.195312 31.523438 59.351562 31.523438 60.894531 C 31.425781 63.976562 31.234375 69.183594 29.304688 76.703125 C 29.980469 82.199219 28.632812 89.234375 27.957031 92.707031 C 27.761719 93.667969 27.570312 94.539062 27.570312 94.730469 C 27.570312 95.695312 28.34375 96.464844 28.34375 96.464844 L 28.535156 96.65625 L 28.050781 98.777344 C 28.921875 98.777344 30.558594 98.777344 31.523438 98.777344 C 31.234375 96.5625 29.980469 96.273438 29.882812 96.273438 L 29.5 96.175781 L 29.5 95.789062 C 29.5 95.210938 30.078125 82.679688 32.199219 77.859375 C 32.488281 77.089844 32.582031 76.027344 32.777344 74.871094 C 33.160156 71.691406 33.835938 66.964844 37.597656 58.386719 L 38.464844 58.773438 C 34.800781 67.253906 34.125 71.882812 33.742188 74.96875 C 33.546875 76.316406 33.449219 77.28125 33.066406 78.246094 C 31.136719 82.488281 30.558594 93.378906 30.367188 95.5 C 31.042969 95.789062 32.292969 96.753906 32.390625 99.261719 Z M 32.582031 99.9375 "/>
<path style=" stroke:none;fill-rule:nonzero;fill:rgb(30.588236%,30.588236%,30.588236%);fill-opacity:1;" d="M 3.46875 65.136719 L 2.601562 64.75 C 3.375 63.015625 3.179688 60.894531 3.085938 58.675781 C 2.890625 55.011719 2.601562 51.058594 6.84375 48.457031 L 7.328125 49.324219 C 3.664062 51.542969 3.855469 55.011719 4.050781 58.675781 C 4.242188 60.894531 4.339844 63.207031 3.46875 65.136719 Z M 3.46875 65.136719 "/>
<path style=" stroke:none;fill-rule:nonzero;fill:rgb(30.588236%,30.588236%,30.588236%);fill-opacity:1;" d="M 2.507812 77.378906 L 1.542969 75.933594 C 0.0976562 73.714844 -0.578125 69.085938 0.480469 66.484375 C 0.964844 65.425781 1.640625 64.75 2.601562 64.554688 C 2.796875 64.460938 2.890625 64.460938 2.988281 64.460938 L 3.46875 64.554688 C 4.242188 64.847656 4.722656 65.328125 4.917969 65.90625 C 5.398438 67.0625 4.722656 68.414062 4.050781 70.050781 C 3.277344 71.691406 2.507812 73.617188 2.507812 75.738281 Z M 2.988281 65.425781 C 2.988281 65.425781 2.890625 65.425781 2.890625 65.425781 C 2.21875 65.617188 1.734375 66.003906 1.445312 66.773438 C 0.675781 68.605469 0.964844 71.59375 1.734375 73.8125 C 2.023438 72.269531 2.699219 70.824219 3.179688 69.570312 C 3.757812 68.125 4.339844 66.964844 4.050781 66.195312 C 3.953125 65.90625 3.664062 65.617188 3.179688 65.425781 C 3.085938 65.425781 2.988281 65.425781 2.988281 65.425781 Z M 2.988281 65.425781 "/>
<path style=" stroke:none;fill-rule:nonzero;fill:rgb(54.11765%,30.19608%,12.54902%);fill-opacity:1;" d="M 63.335938 7.871094 C 63.335938 7.488281 65.84375 7.292969 65.746094 8.257812 C 65.746094 9.125 63.335938 8.257812 63.335938 7.871094 Z M 63.335938 7.871094 "/>
<path style=" stroke:none;fill-rule:nonzero;fill:rgb(63.921571%,35.686275%,14.901961%);fill-opacity:1;" d="M 56.875 11.730469 L 55.71875 13.078125 L 57.164062 14.234375 L 58.996094 13.945312 L 58.996094 12.113281 Z M 56.875 11.730469 "/>
<path style=" stroke:none;fill-rule:nonzero;fill:rgb(63.921571%,35.686275%,14.901961%);fill-opacity:1;" d="M 55.71875 13.753906 L 56.78125 15.007812 L 56.78125 16.550781 L 54.753906 17.898438 L 53.214844 17.417969 L 53.792969 16.164062 Z M 55.71875 13.753906 "/>
<path style=" stroke:none;fill-rule:nonzero;fill:rgb(63.921571%,35.686275%,14.901961%);fill-opacity:1;" d="M 57.359375 14.910156 L 57.359375 16.839844 L 58.996094 16.453125 L 58.996094 14.621094 Z M 57.359375 14.910156 "/>
<path style=" stroke:none;fill-rule:nonzero;fill:rgb(63.921571%,35.686275%,14.901961%);fill-opacity:1;" d="M 43.574219 35.25 L 43.574219 37.273438 L 45.210938 36.890625 L 45.210938 34.960938 Z M 43.574219 35.25 "/>
<path style=" stroke:none;fill-rule:nonzero;fill:rgb(63.921571%,35.686275%,14.901961%);fill-opacity:1;" d="M 52.539062 17.898438 L 54.949219 19.054688 L 53.214844 21.851562 L 49.742188 21.851562 Z M 52.539062 17.898438 "/>
<path style=" stroke:none;fill-rule:nonzero;fill:rgb(63.921571%,35.686275%,14.901961%);fill-opacity:1;" d="M 55.914062 18.1875 L 54.660156 20.5 L 56.394531 21.753906 L 57.839844 18.667969 L 56.394531 18.667969 Z M 55.914062 18.1875 "/>
<path style=" stroke:none;fill-rule:nonzero;fill:rgb(63.921571%,35.686275%,14.901961%);fill-opacity:1;" d="M 48.394531 28.597656 L 47.140625 30.816406 L 48.972656 32.164062 L 50.417969 29.082031 L 48.972656 29.082031 Z M 48.394531 28.597656 "/>
<path style=" stroke:none;fill-rule:nonzero;fill:rgb(63.921571%,35.686275%,14.901961%);fill-opacity:1;" d="M 54.660156 21.5625 L 53.214844 22.71875 L 51.09375 22.332031 L 52.347656 23.972656 L 54.660156 22.71875 Z M 54.660156 21.5625 "/>
<path style=" stroke:none;fill-rule:nonzero;fill:rgb(63.921571%,35.686275%,14.901961%);fill-opacity:1;" d="M 49.164062 22.621094 L 50.804688 23.488281 L 51.382812 25.320312 L 50.226562 27.25 L 47.816406 26.863281 L 47.429688 24.164062 Z M 49.164062 22.621094 "/>
<path style=" stroke:none;fill-rule:nonzero;fill:rgb(63.921571%,35.686275%,14.901961%);fill-opacity:1;" d="M 46.851562 24.9375 L 46.851562 27.730469 L 47.816406 28.214844 L 46.078125 30.335938 L 43.667969 29.851562 L 43.285156 28.308594 Z M 46.851562 24.9375 "/>
<path style=" stroke:none;fill-rule:nonzero;fill:rgb(63.921571%,35.686275%,14.901961%);fill-opacity:1;" d="M 43.667969 30.046875 L 45.597656 30.71875 L 45.597656 32.648438 L 43.667969 33.902344 L 41.644531 33.417969 L 41.933594 31.105469 Z M 43.667969 30.046875 "/>
<path style=" stroke:none;fill-rule:nonzero;fill:rgb(63.921571%,35.686275%,14.901961%);fill-opacity:1;" d="M 42.609375 28.792969 L 42.898438 30.238281 L 41.066406 31.203125 L 40.007812 30.046875 Z M 42.609375 28.792969 "/>
<path style=" stroke:none;fill-rule:nonzero;fill:rgb(63.921571%,35.686275%,14.901961%);fill-opacity:1;" d="M 40.390625 31.683594 L 40.390625 33.902344 L 38.753906 33.902344 L 37.597656 32.359375 L 39.332031 31.394531 Z M 40.390625 31.683594 "/>
<path style=" stroke:none;fill-rule:nonzero;fill:rgb(63.921571%,35.686275%,14.901961%);fill-opacity:1;" d="M 39.332031 34.574219 L 41.066406 34.574219 L 41.453125 33.902344 L 43.285156 34.574219 L 42.222656 36.117188 L 39.332031 36.117188 Z M 39.332031 34.574219 "/>
<path style=" stroke:none;fill-rule:nonzero;fill:rgb(63.921571%,35.686275%,14.901961%);fill-opacity:1;" d="M 37.113281 32.070312 L 39.140625 30.914062 L 39.140625 30.140625 L 36.824219 30.816406 Z M 37.113281 32.070312 "/>
<path style=" stroke:none;fill-rule:nonzero;fill:rgb(63.921571%,35.686275%,14.901961%);fill-opacity:1;" d="M 36.730469 32.359375 L 38.367188 34.382812 L 37.886719 35.925781 L 35.1875 34.574219 Z M 36.730469 32.359375 "/>
<path style=" stroke:none;fill-rule:nonzero;fill:rgb(63.921571%,35.686275%,14.901961%);fill-opacity:1;" d="M 36.054688 31.972656 L 34.414062 34.09375 L 32.777344 31.683594 L 35.476562 31.683594 Z M 36.054688 31.972656 "/>
<path style=" stroke:none;fill-rule:nonzero;fill:rgb(63.921571%,35.686275%,14.901961%);fill-opacity:1;" d="M 38.175781 36.40625 L 41.453125 37.082031 L 39.8125 39.589844 L 37.308594 38.046875 Z M 38.175781 36.40625 "/>
<path style=" stroke:none;fill-rule:nonzero;fill:rgb(63.921571%,35.686275%,14.901961%);fill-opacity:1;" d="M 37.308594 36.40625 L 36.054688 37.660156 L 33.742188 36.117188 L 35.1875 35.058594 Z M 37.308594 36.40625 "/>
<path style=" stroke:none;fill-rule:nonzero;fill:rgb(63.921571%,35.686275%,14.901961%);fill-opacity:1;" d="M 32.488281 32.070312 L 34.03125 34.480469 L 32.488281 35.925781 L 30.269531 33.035156 Z M 32.488281 32.070312 "/>
<path style=" stroke:none;fill-rule:nonzero;fill:rgb(63.921571%,35.686275%,14.901961%);fill-opacity:1;" d="M 37.308594 38.914062 L 38.65625 39.589844 L 37.886719 42.382812 L 36.730469 41.804688 Z M 37.308594 38.914062 "/>
<path style=" stroke:none;fill-rule:nonzero;fill:rgb(63.921571%,35.686275%,14.901961%);fill-opacity:1;" d="M 46.464844 31.683594 L 47.816406 32.359375 L 47.042969 35.152344 L 45.886719 34.574219 Z M 46.464844 31.683594 "/>
<path style=" stroke:none;fill-rule:nonzero;fill:rgb(63.921571%,35.686275%,14.901961%);fill-opacity:1;" d="M 35.1875 38.046875 L 36.730469 38.914062 L 36.054688 41.132812 L 34.800781 41.132812 L 34.222656 38.914062 Z M 35.1875 38.046875 "/>
<path style=" stroke:none;fill-rule:nonzero;fill:rgb(63.921571%,35.686275%,14.901961%);fill-opacity:1;" d="M 34.800781 37.660156 L 33.742188 38.046875 L 33.355469 36.40625 Z M 34.800781 37.660156 "/>
<path style=" stroke:none;fill-rule:nonzero;fill:rgb(63.921571%,35.686275%,14.901961%);fill-opacity:1;" d="M 32.390625 36.792969 L 32.101562 38.433594 L 30.269531 38.046875 L 29.691406 36.40625 L 31.234375 35.539062 Z M 32.390625 36.792969 "/>
<path style=" stroke:none;fill-rule:nonzero;fill:rgb(63.921571%,35.686275%,14.901961%);fill-opacity:1;" d="M 30.269531 35.058594 L 28.632812 36.117188 L 27.859375 35.347656 L 29.015625 33.902344 Z M 30.269531 35.058594 "/>
<path style=" stroke:none;fill-rule:nonzero;fill:rgb(63.921571%,35.686275%,14.901961%);fill-opacity:1;" d="M 43.765625 38.433594 L 42.128906 39.589844 L 41.355469 38.722656 L 42.511719 37.371094 Z M 43.765625 38.433594 "/>
<path style=" stroke:none;fill-rule:nonzero;fill:rgb(63.921571%,35.686275%,14.901961%);fill-opacity:1;" d="M 41.164062 41.132812 L 39.523438 42.191406 L 38.753906 41.324219 L 40.007812 39.972656 Z M 41.164062 41.132812 "/>
<path style=" stroke:none;fill-rule:nonzero;fill:rgb(63.921571%,35.686275%,14.901961%);fill-opacity:1;" d="M 33.355469 39.105469 L 34.222656 41.902344 L 31.8125 42.382812 L 30.460938 39.589844 Z M 33.355469 39.105469 "/>
<path style=" stroke:none;fill-rule:nonzero;fill:rgb(63.921571%,35.686275%,14.901961%);fill-opacity:1;" d="M 29.691406 38.433594 L 29.015625 39.972656 L 27.472656 39.589844 L 28.148438 37.660156 Z M 29.691406 38.433594 "/>
<path style=" stroke:none;fill-rule:nonzero;fill:rgb(63.921571%,35.686275%,14.901961%);fill-opacity:1;" d="M 28.632812 36.792969 L 29.691406 37.660156 L 29.113281 36.40625 Z M 28.632812 36.792969 "/>
<path style=" stroke:none;fill-rule:nonzero;fill:rgb(63.921571%,35.686275%,14.901961%);fill-opacity:1;" d="M 27.089844 35.925781 L 27.761719 37.082031 L 26.800781 39.589844 C 26.800781 39.589844 25.257812 38.816406 25.257812 38.527344 C 25.351562 38.144531 27.089844 35.925781 27.089844 35.925781 Z M 27.089844 35.925781 "/>
<path style=" stroke:none;fill-rule:nonzero;fill:rgb(63.921571%,35.686275%,14.901961%);fill-opacity:1;" d="M 28.632812 40.648438 L 30.269531 40.648438 L 31.042969 42.09375 L 29.691406 42.960938 Z M 28.632812 40.648438 "/>
<path style=" stroke:none;fill-rule:nonzero;fill:rgb(63.921571%,35.686275%,14.901961%);fill-opacity:1;" d="M 27.859375 41.515625 L 29.691406 43.542969 L 28.148438 45.179688 L 26.605469 42.960938 Z M 27.859375 41.515625 "/>
<path style=" stroke:none;fill-rule:nonzero;fill:rgb(63.921571%,35.686275%,14.901961%);fill-opacity:1;" d="M 26.703125 39.972656 L 27.089844 41.515625 L 25.835938 42.382812 L 25.351562 40.746094 Z M 26.703125 39.972656 "/>
<path style=" stroke:none;fill-rule:nonzero;fill:rgb(63.921571%,35.686275%,14.901961%);fill-opacity:1;" d="M 24.773438 38.433594 L 25.351562 39.972656 L 23.617188 41.515625 L 22.945312 40.648438 Z M 24.773438 38.433594 "/>
<path style=" stroke:none;fill-rule:nonzero;fill:rgb(63.921571%,35.686275%,14.901961%);fill-opacity:1;" d="M 24.871094 41.515625 L 25.351562 43.347656 L 22.945312 44.121094 L 22.945312 42.769531 Z M 24.871094 41.515625 "/>
<path style=" stroke:none;fill-rule:nonzero;fill:rgb(63.921571%,35.686275%,14.901961%);fill-opacity:1;" d="M 24.679688 45.179688 L 26.222656 43.832031 L 27.089844 45.757812 L 24.679688 46.433594 Z M 24.679688 45.179688 "/>
<path style=" stroke:none;fill-rule:nonzero;fill:rgb(63.921571%,35.686275%,14.901961%);fill-opacity:1;" d="M 22.269531 40.746094 L 22.945312 41.804688 L 21.59375 43.347656 L 20.628906 42 Z M 22.269531 40.746094 "/>
<path style=" stroke:none;fill-rule:nonzero;fill:rgb(63.921571%,35.686275%,14.901961%);fill-opacity:1;" d="M 23.328125 46.144531 L 24.101562 49.230469 L 20.628906 49.808594 L 20.628906 47.203125 Z M 23.328125 46.144531 "/>
<path style=" stroke:none;fill-rule:nonzero;fill:rgb(63.921571%,35.686275%,14.901961%);fill-opacity:1;" d="M 21.980469 44.121094 L 21.980469 46.144531 L 19.664062 46.144531 L 19.664062 44.699219 Z M 21.980469 44.121094 "/>
<path style=" stroke:none;fill-rule:nonzero;fill:rgb(63.921571%,35.686275%,14.901961%);fill-opacity:1;" d="M 19.664062 42.382812 L 20.628906 43.542969 L 18.414062 44.792969 L 17.929688 43.542969 Z M 19.664062 42.382812 "/>
<path style=" stroke:none;fill-rule:nonzero;fill:rgb(63.921571%,35.686275%,14.901961%);fill-opacity:1;" d="M 16.871094 43.542969 L 14.652344 44.121094 L 14.652344 45.179688 L 15.328125 45.757812 L 17.929688 45.082031 Z M 16.871094 43.542969 "/>
<path style=" stroke:none;fill-rule:nonzero;fill:rgb(63.921571%,35.686275%,14.901961%);fill-opacity:1;" d="M 13.785156 44.792969 L 14.363281 46.433594 L 13.496094 47.109375 L 11.855469 46.433594 L 12.339844 44.792969 Z M 13.785156 44.792969 "/>
<path style=" stroke:none;fill-rule:nonzero;fill:rgb(63.921571%,35.686275%,14.901961%);fill-opacity:1;" d="M 11.375 45.371094 L 10.988281 46.820312 L 8.964844 47.109375 Z M 11.375 45.371094 "/>
<path style=" stroke:none;fill-rule:nonzero;fill:rgb(63.921571%,35.686275%,14.901961%);fill-opacity:1;" d="M 8.195312 47.976562 L 7.132812 50.191406 L 9.640625 47.492188 Z M 8.195312 47.976562 "/>
<path style=" stroke:none;fill-rule:nonzero;fill:rgb(63.921571%,35.686275%,14.901961%);fill-opacity:1;" d="M 11.375 47.492188 L 10.21875 49.324219 L 12.148438 49.808594 L 13.109375 47.976562 Z M 11.375 47.492188 "/>
<path style=" stroke:none;fill-rule:nonzero;fill:rgb(63.921571%,35.686275%,14.901961%);fill-opacity:1;" d="M 9.351562 50.191406 L 8.195312 52.21875 L 9.640625 53.46875 L 11.664062 51.832031 Z M 9.351562 50.191406 "/>
<path style=" stroke:none;fill-rule:nonzero;fill:rgb(63.921571%,35.686275%,14.901961%);fill-opacity:1;" d="M 7.808594 53.085938 L 9.351562 54.433594 L 6.84375 55.011719 Z M 7.808594 53.085938 "/>
<path style=" stroke:none;fill-rule:nonzero;fill:rgb(63.921571%,35.686275%,14.901961%);fill-opacity:1;" d="M 6.457031 56.554688 L 6.84375 58.867188 L 8.675781 55.496094 Z M 6.457031 56.554688 "/>
<path style=" stroke:none;fill-rule:nonzero;fill:rgb(63.921571%,35.686275%,14.901961%);fill-opacity:1;" d="M 10.605469 50.578125 L 12.339844 52.21875 L 13.109375 50.191406 Z M 10.605469 50.578125 "/>
<path style=" stroke:none;fill-rule:nonzero;fill:rgb(63.921571%,35.686275%,14.901961%);fill-opacity:1;" d="M 13.496094 49.230469 L 14.652344 47.976562 L 15.714844 48.84375 L 14.847656 50.867188 Z M 13.496094 49.230469 "/>
<path style=" stroke:none;fill-rule:nonzero;fill:rgb(63.921571%,35.686275%,14.901961%);fill-opacity:1;" d="M 15.519531 47.109375 L 16.773438 48.648438 L 18.894531 47.492188 L 17.449219 46.242188 Z M 15.519531 47.109375 "/>
<path style=" stroke:none;fill-rule:nonzero;fill:rgb(63.921571%,35.686275%,14.901961%);fill-opacity:1;" d="M 18.894531 48.359375 L 18.894531 49.808594 L 20.246094 49.808594 L 19.570312 47.976562 Z M 18.894531 48.359375 "/>
<path style=" stroke:none;fill-rule:nonzero;fill:rgb(63.921571%,35.686275%,14.901961%);fill-opacity:1;" d="M 13.882812 51.832031 L 14.941406 51.253906 L 16.484375 53.085938 L 14.652344 54.050781 Z M 13.882812 51.832031 "/>
<path style=" stroke:none;fill-rule:nonzero;fill:rgb(63.921571%,35.686275%,14.901961%);fill-opacity:1;" d="M 16.097656 49.808594 L 15.714844 51.253906 L 16.964844 52.21875 Z M 16.097656 49.808594 "/>
<path style=" stroke:none;fill-rule:nonzero;fill:rgb(63.921571%,35.686275%,14.901961%);fill-opacity:1;" d="M 11.664062 53.085938 L 9.929688 54.050781 L 12.339844 54.628906 Z M 11.664062 53.085938 "/>
<path style=" stroke:none;fill-rule:nonzero;fill:rgb(63.921571%,35.686275%,14.901961%);fill-opacity:1;" d="M 12.339844 52.890625 L 13.109375 54.433594 L 13.882812 54.050781 L 13.109375 52.601562 Z M 12.339844 52.890625 "/>
<path style=" stroke:none;fill-rule:nonzero;fill:rgb(63.921571%,35.686275%,14.901961%);fill-opacity:1;" d="M 9.640625 55.496094 L 8.195312 57.710938 L 9.351562 59.15625 L 11.183594 58.289062 Z M 9.640625 55.496094 "/>
<path style=" stroke:none;fill-rule:nonzero;fill:rgb(63.921571%,35.686275%,14.901961%);fill-opacity:1;" d="M 7.132812 59.449219 L 8.386719 59.449219 L 8.675781 61.761719 L 6.84375 61.761719 Z M 7.132812 59.449219 "/>
<path style=" stroke:none;fill-rule:nonzero;fill:rgb(63.921571%,35.686275%,14.901961%);fill-opacity:1;" d="M 11.761719 56.84375 L 12.339844 55.496094 L 13.882812 56.84375 L 12.339844 57.617188 Z M 11.761719 56.84375 "/>
<path style=" stroke:none;fill-rule:nonzero;fill:rgb(63.921571%,35.686275%,14.901961%);fill-opacity:1;" d="M 10.605469 55.207031 L 11.183594 55.878906 L 11.761719 55.207031 L 11.183594 54.628906 Z M 10.605469 55.207031 "/>
<path style=" stroke:none;fill-rule:nonzero;fill:rgb(63.921571%,35.686275%,14.901961%);fill-opacity:1;" d="M 7.132812 63.109375 L 8.097656 64.941406 L 9.351562 63.59375 Z M 7.132812 63.109375 "/>
<path style=" stroke:none;fill-rule:nonzero;fill:rgb(63.921571%,35.686275%,14.901961%);fill-opacity:1;" d="M 9.351562 65.328125 L 9.738281 66.871094 L 11.183594 65.328125 L 10.21875 64.074219 Z M 9.351562 65.328125 "/>
<path style=" stroke:none;fill-rule:nonzero;fill:rgb(63.921571%,35.686275%,14.901961%);fill-opacity:1;" d="M 7.710938 66.675781 C 7.710938 66.675781 8.675781 68.507812 8.675781 68.507812 C 8.675781 68.507812 7.132812 68.507812 7.132812 68.507812 C 7.132812 68.507812 7.132812 67.160156 7.132812 67.160156 Z M 7.710938 66.675781 "/>
<path style=" stroke:none;fill-rule:nonzero;fill:rgb(63.921571%,35.686275%,14.901961%);fill-opacity:1;" d="M 7.328125 69.664062 L 8.675781 69.664062 L 8 71.207031 C 8 71.207031 6.457031 72.269531 6.457031 72.074219 C 6.457031 71.980469 7.328125 69.664062 7.328125 69.664062 Z M 7.328125 69.664062 "/>
<path style=" stroke:none;fill-rule:nonzero;fill:rgb(63.921571%,35.686275%,14.901961%);fill-opacity:1;" d="M 5.6875 72.558594 L 6.457031 73.425781 L 4.820312 74.96875 L 4.53125 74.292969 Z M 5.6875 72.558594 "/>
<path style=" stroke:none;fill-rule:nonzero;fill:rgb(63.921571%,35.686275%,14.901961%);fill-opacity:1;" d="M 4.53125 76.027344 L 6.074219 75.738281 L 6.074219 77.667969 L 4.53125 78.34375 Z M 4.53125 76.027344 "/>
<path style=" stroke:none;fill-rule:nonzero;fill:rgb(63.921571%,35.686275%,14.901961%);fill-opacity:1;" d="M 4.820312 78.824219 L 5.785156 79.113281 L 4.820312 80.558594 Z M 4.820312 78.824219 "/>
<path style=" stroke:none;fill-rule:nonzero;fill:rgb(63.921571%,35.686275%,14.901961%);fill-opacity:1;" d="M 4.53125 80.945312 L 4.53125 82.390625 L 4.820312 83.066406 L 5.496094 81.425781 Z M 4.53125 80.945312 "/>
<path style=" stroke:none;fill-rule:nonzero;fill:rgb(63.921571%,35.686275%,14.901961%);fill-opacity:1;" d="M 5.011719 75.449219 L 6.84375 74.003906 L 7.132812 74.96875 Z M 5.011719 75.449219 "/>
<path style=" stroke:none;fill-rule:nonzero;fill:rgb(63.921571%,35.686275%,14.901961%);fill-opacity:1;" d="M 4.53125 83.449219 L 5.300781 83.933594 L 4.53125 86.34375 L 3.855469 86.34375 Z M 4.53125 83.449219 "/>
<path style=" stroke:none;fill-rule:nonzero;fill:rgb(63.921571%,35.686275%,14.901961%);fill-opacity:1;" d="M 3.855469 87.113281 L 3.277344 89.140625 L 3.855469 89.140625 L 4.53125 87.113281 Z M 3.855469 87.113281 "/>
<path style=" stroke:none;fill-rule:nonzero;fill:rgb(63.921571%,35.686275%,14.901961%);fill-opacity:1;" d="M 3.277344 89.910156 L 3.953125 89.910156 L 3.566406 91.164062 L 3.277344 91.164062 Z M 3.277344 89.910156 "/>
<path style=" stroke:none;fill-rule:nonzero;fill:rgb(63.921571%,35.686275%,14.901961%);fill-opacity:1;" d="M 2.507812 92.222656 L 2.121094 93.378906 C 2.121094 93.378906 2.699219 94.25 2.699219 93.957031 C 2.699219 93.667969 3.566406 92.417969 3.566406 92.417969 Z M 2.507812 92.222656 "/>
<path style=" stroke:none;fill-rule:nonzero;fill:rgb(63.921571%,35.686275%,14.901961%);fill-opacity:1;" d="M 2.121094 94.730469 L 2.890625 95.789062 C 2.890625 95.789062 3.566406 94.828125 3.277344 94.730469 C 3.085938 94.632812 2.121094 94.730469 2.121094 94.730469 Z M 2.121094 94.730469 "/>
<path style=" stroke:none;fill-rule:nonzero;fill:rgb(63.921571%,35.686275%,14.901961%);fill-opacity:1;" d="M 9.351562 60.21875 L 8.964844 62.4375 L 10.894531 63.109375 L 11.183594 60.605469 Z M 9.351562 60.21875 "/>
<path style=" stroke:none;fill-rule:nonzero;fill:rgb(63.921571%,35.686275%,14.901961%);fill-opacity:1;" d="M 34.992188 42.382812 C 34.992188 42.382812 36.148438 42.191406 36.441406 42.191406 C 36.730469 42.191406 37.691406 43.15625 37.691406 43.15625 L 37.019531 44.792969 L 35.476562 44.988281 L 34.703125 44.121094 Z M 34.992188 42.382812 "/>
<path style=" stroke:none;fill-rule:nonzero;fill:rgb(63.921571%,35.686275%,14.901961%);fill-opacity:1;" d="M 34.414062 42.191406 L 34.03125 43.832031 L 32.390625 44.121094 L 31.8125 42.769531 Z M 34.414062 42.191406 "/>
<path style=" stroke:none;fill-rule:nonzero;fill:rgb(63.921571%,35.686275%,14.901961%);fill-opacity:1;" d="M 31.425781 43.15625 L 32.003906 44.792969 L 30.460938 44.792969 L 30.078125 43.832031 Z M 31.425781 43.15625 "/>
<path style=" stroke:none;fill-rule:nonzero;fill:rgb(63.921571%,35.686275%,14.901961%);fill-opacity:1;" d="M 29.691406 44.121094 L 30.75 45.949219 L 29.113281 46.914062 L 28.148438 45.949219 Z M 29.691406 44.121094 "/>
<path style=" stroke:none;fill-rule:nonzero;fill:rgb(63.921571%,35.686275%,14.901961%);fill-opacity:1;" d="M 27.472656 46.144531 L 28.4375 47.78125 L 25.351562 49.230469 L 24.679688 47.492188 Z M 27.472656 46.144531 "/>
<path style=" stroke:none;fill-rule:nonzero;fill:rgb(63.921571%,35.686275%,14.901961%);fill-opacity:1;" d="M 17.929688 50.964844 L 18.414062 53.46875 L 20.535156 53.085938 L 20.628906 50.867188 Z M 17.929688 50.964844 "/>
<path style=" stroke:none;fill-rule:nonzero;fill:rgb(63.921571%,35.686275%,14.901961%);fill-opacity:1;" d="M 17.160156 49.230469 L 17.640625 50 L 18.507812 50 L 18.21875 48.84375 Z M 17.160156 49.230469 "/>
<path style=" stroke:none;fill-rule:nonzero;fill:rgb(63.921571%,35.686275%,14.901961%);fill-opacity:1;" d="M 21.785156 51.253906 L 21.785156 53.179688 L 23.523438 52.601562 L 23.523438 50.675781 Z M 21.785156 51.253906 "/>
<path style=" stroke:none;fill-rule:nonzero;fill:rgb(63.921571%,35.686275%,14.901961%);fill-opacity:1;" d="M 29.691406 47.109375 L 29.789062 48.265625 L 31.523438 47.6875 L 31.234375 46.820312 Z M 29.691406 47.109375 "/>
<path style=" stroke:none;fill-rule:nonzero;fill:rgb(63.921571%,35.686275%,14.901961%);fill-opacity:1;" d="M 31.621094 45.949219 L 32.003906 46.820312 L 32.777344 46.242188 L 32.777344 45.082031 Z M 31.621094 45.949219 "/>
<path style=" stroke:none;fill-rule:nonzero;fill:rgb(63.921571%,35.686275%,14.901961%);fill-opacity:1;" d="M 33.355469 45.757812 L 33.742188 47.300781 L 35.1875 47.300781 L 35.1875 45.757812 Z M 33.355469 45.757812 "/>
<path style=" stroke:none;fill-rule:nonzero;fill:rgb(63.921571%,35.686275%,14.901961%);fill-opacity:1;" d="M 33.355469 44.601562 L 33.355469 45.082031 L 34.800781 44.988281 Z M 33.355469 44.601562 "/>
<path style=" stroke:none;fill-rule:nonzero;fill:rgb(63.921571%,35.686275%,14.901961%);fill-opacity:1;" d="M 36.054688 45.757812 L 36.34375 46.820312 L 37.691406 46.625 L 37.308594 45.371094 Z M 36.054688 45.757812 "/>
<path style=" stroke:none;fill-rule:nonzero;fill:rgb(63.921571%,35.686275%,14.901961%);fill-opacity:1;" d="M 31.332031 48.648438 L 30.078125 49.421875 L 31.042969 50.675781 L 32.390625 49.808594 Z M 31.332031 48.648438 "/>
<path style=" stroke:none;fill-rule:nonzero;fill:rgb(63.921571%,35.686275%,14.901961%);fill-opacity:1;" d="M 32.390625 48.265625 L 32.777344 49.230469 C 32.777344 49.230469 33.742188 49.230469 33.742188 49.035156 C 33.742188 48.941406 33.160156 47.878906 33.160156 47.878906 Z M 32.390625 48.265625 "/>
<path style=" stroke:none;fill-rule:nonzero;fill:rgb(63.921571%,35.686275%,14.901961%);fill-opacity:1;" d="M 34.800781 48.265625 L 34.992188 49.808594 L 36.535156 49.421875 L 36.246094 47.976562 Z M 34.800781 48.265625 "/>
<path style=" stroke:none;fill-rule:nonzero;fill:rgb(63.921571%,35.686275%,14.901961%);fill-opacity:1;" d="M 37.308594 48.84375 L 36.824219 50.675781 L 37.691406 50.675781 L 38.65625 48.84375 L 37.691406 47.492188 L 37.789062 48.84375 Z M 37.308594 48.84375 "/>
<path style=" stroke:none;fill-rule:nonzero;fill:rgb(63.921571%,35.686275%,14.901961%);fill-opacity:1;" d="M 32.777344 50.867188 L 31.621094 51.640625 L 32.582031 53.085938 L 34.03125 51.929688 Z M 32.777344 50.867188 "/>
<path style=" stroke:none;fill-rule:nonzero;fill:rgb(63.921571%,35.686275%,14.901961%);fill-opacity:1;" d="M 33.449219 50.191406 L 34.03125 51.253906 L 35.476562 50.964844 L 34.414062 50 Z M 33.449219 50.191406 "/>
<path style=" stroke:none;fill-rule:nonzero;fill:rgb(63.921571%,35.686275%,14.901961%);fill-opacity:1;" d="M 36.054688 51.253906 L 36.054688 52.601562 L 37.5 52.796875 L 37.308594 51.542969 Z M 36.054688 51.253906 "/>
<path style=" stroke:none;fill-rule:nonzero;fill:rgb(63.921571%,35.686275%,14.901961%);fill-opacity:1;" d="M 34.511719 52.21875 L 34.800781 53.566406 C 34.800781 53.566406 35.570312 53.566406 35.667969 53.375 C 35.765625 53.277344 35.476562 52.023438 35.476562 52.023438 Z M 34.511719 52.21875 "/>
<path style=" stroke:none;fill-rule:nonzero;fill:rgb(63.921571%,35.686275%,14.901961%);fill-opacity:1;" d="M 37.789062 51.832031 L 38.078125 52.796875 L 38.851562 52.601562 L 39.042969 51.445312 Z M 37.789062 51.832031 "/>
<path style=" stroke:none;fill-rule:nonzero;fill:rgb(63.921571%,35.686275%,14.901961%);fill-opacity:1;" d="M 35.667969 50.386719 L 35.859375 50.675781 L 36.34375 50.480469 L 36.246094 50.191406 Z M 35.667969 50.386719 "/>
<path style=" stroke:none;fill-rule:nonzero;fill:rgb(63.921571%,35.686275%,14.901961%);fill-opacity:1;" d="M 30.078125 52.507812 L 31.042969 52.601562 L 31.042969 54.050781 L 30.078125 53.855469 Z M 30.078125 52.507812 "/>
<path style=" stroke:none;fill-rule:nonzero;fill:rgb(63.921571%,35.686275%,14.901961%);fill-opacity:1;" d="M 32.003906 54.050781 L 33.742188 53.46875 L 34.03125 55.011719 L 32.390625 55.300781 Z M 32.003906 54.050781 "/>
<path style=" stroke:none;fill-rule:nonzero;fill:rgb(63.921571%,35.686275%,14.901961%);fill-opacity:1;" d="M 32.582031 56.167969 L 34.414062 56.167969 L 33.742188 57.617188 L 32.199219 57.617188 Z M 32.582031 56.167969 "/>
<path style=" stroke:none;fill-rule:nonzero;fill:rgb(63.921571%,35.686275%,14.901961%);fill-opacity:1;" d="M 34.800781 55.300781 L 35.089844 56.554688 L 36.535156 56.167969 L 36.246094 55.011719 Z M 34.800781 55.300781 "/>
<path style=" stroke:none;fill-rule:nonzero;fill:rgb(63.921571%,35.686275%,14.901961%);fill-opacity:1;" d="M 35.667969 54.433594 L 36.054688 53.566406 L 37.886719 53.46875 L 37.691406 55.300781 Z M 35.667969 54.433594 "/>
<path style=" stroke:none;fill-rule:nonzero;fill:rgb(63.921571%,35.686275%,14.901961%);fill-opacity:1;" d="M 36.824219 56.554688 L 36.054688 59.15625 L 37.113281 59.449219 L 37.886719 57.617188 Z M 36.824219 56.554688 "/>
<path style=" stroke:none;fill-rule:nonzero;fill:rgb(63.921571%,35.686275%,14.901961%);fill-opacity:1;" d="M 34.320312 58 L 34.511719 59.15625 L 35.1875 59.15625 L 35.667969 57.617188 L 34.511719 57.328125 Z M 34.320312 58 "/>
<path style=" stroke:none;fill-rule:nonzero;fill:rgb(63.921571%,35.686275%,14.901961%);fill-opacity:1;" d="M 31.8125 59.15625 L 31.8125 61.085938 L 33.742188 61.085938 L 33.449219 59.449219 Z M 31.8125 59.15625 "/>
<path style=" stroke:none;fill-rule:nonzero;fill:rgb(63.921571%,35.686275%,14.901961%);fill-opacity:1;" d="M 35.089844 60.21875 L 34.800781 61.761719 L 35.667969 61.761719 L 36.054688 60.605469 Z M 35.089844 60.21875 "/>
<path style=" stroke:none;fill-rule:nonzero;fill:rgb(63.921571%,35.686275%,14.901961%);fill-opacity:1;" d="M 34.414062 62.339844 L 35.667969 62.628906 L 34.800781 64.460938 L 33.355469 64.460938 Z M 34.414062 62.339844 "/>
<path style=" stroke:none;fill-rule:nonzero;fill:rgb(63.921571%,35.686275%,14.901961%);fill-opacity:1;" d="M 32.199219 61.664062 L 33.644531 61.664062 L 33.449219 63.59375 L 31.8125 63.59375 Z M 32.199219 61.664062 "/>
<path style=" stroke:none;fill-rule:nonzero;fill:rgb(63.921571%,35.686275%,14.901961%);fill-opacity:1;" d="M 31.523438 64.941406 L 32.777344 64.941406 L 32.390625 66.195312 L 31.621094 66.195312 Z M 31.523438 64.941406 "/>
<path style=" stroke:none;fill-rule:nonzero;fill:rgb(63.921571%,35.686275%,14.901961%);fill-opacity:1;" d="M 32.96875 65.617188 L 32.96875 66.871094 L 33.449219 66.871094 L 33.742188 65.617188 Z M 32.96875 65.617188 "/>
<path style=" stroke:none;fill-rule:nonzero;fill:rgb(63.921571%,35.686275%,14.901961%);fill-opacity:1;" d="M 34.03125 64.941406 L 34.222656 66.195312 L 34.898438 66.003906 L 34.992188 65.230469 Z M 34.03125 64.941406 "/>
<path style=" stroke:none;fill-rule:nonzero;fill:rgb(63.921571%,35.686275%,14.901961%);fill-opacity:1;" d="M 31.234375 66.871094 L 31.042969 68.507812 L 32.199219 68.507812 L 32.199219 67.546875 Z M 31.234375 66.871094 "/>
<path style=" stroke:none;fill-rule:nonzero;fill:rgb(63.921571%,35.686275%,14.901961%);fill-opacity:1;" d="M 32.871094 67.351562 L 32.777344 68.125 L 34.03125 68.507812 L 34.222656 67.546875 Z M 32.871094 67.351562 "/>
<path style=" stroke:none;fill-rule:nonzero;fill:rgb(63.921571%,35.686275%,14.901961%);fill-opacity:1;" d="M 31.136719 69.570312 L 32.199219 69.570312 L 32.488281 70.726562 L 31.425781 70.726562 Z M 31.136719 69.570312 "/>
<path style=" stroke:none;fill-rule:nonzero;fill:rgb(63.921571%,35.686275%,14.901961%);fill-opacity:1;" d="M 32.96875 68.992188 L 32.96875 70.4375 L 33.644531 69.28125 Z M 32.96875 68.992188 "/>
<path style=" stroke:none;fill-rule:nonzero;fill:rgb(63.921571%,35.686275%,14.901961%);fill-opacity:1;" d="M 31.523438 71.496094 L 32.777344 71.496094 L 32.199219 73.617188 Z M 31.523438 71.496094 "/>
<path style=" stroke:none;fill-rule:nonzero;fill:rgb(63.921571%,35.686275%,14.901961%);fill-opacity:1;" d="M 30.460938 72.945312 L 31.523438 73.523438 L 31.332031 75.160156 L 30.171875 75.160156 Z M 30.460938 72.945312 "/>
<path style=" stroke:none;fill-rule:nonzero;fill:rgb(63.921571%,35.686275%,14.901961%);fill-opacity:1;" d="M 30.558594 76.222656 L 31.8125 76.222656 L 31.234375 77.859375 L 30.75 77.859375 Z M 30.558594 76.222656 "/>
<path style=" stroke:none;fill-rule:nonzero;fill:rgb(63.921571%,35.686275%,14.901961%);fill-opacity:1;" d="M 30.269531 78.4375 L 30.269531 79.691406 L 30.847656 79.691406 L 31.136719 78.4375 Z M 30.269531 78.4375 "/>
<path style=" stroke:none;fill-rule:nonzero;fill:rgb(63.921571%,35.686275%,14.901961%);fill-opacity:1;" d="M 30.847656 80.65625 L 29.59375 81.042969 L 30.558594 81.714844 Z M 30.847656 80.65625 "/>
<path style=" stroke:none;fill-rule:nonzero;fill:rgb(63.921571%,35.686275%,14.901961%);fill-opacity:1;" d="M 30.078125 82.777344 L 29.59375 83.066406 L 30.078125 84.414062 L 30.558594 83.066406 Z M 30.078125 82.777344 "/>
<path style=" stroke:none;fill-rule:nonzero;fill:rgb(63.921571%,35.686275%,14.901961%);fill-opacity:1;" d="M 29.304688 84.898438 L 29.882812 87.886719 L 30.171875 85.28125 Z M 29.304688 84.898438 "/>
<path style=" stroke:none;fill-rule:nonzero;fill:rgb(63.921571%,35.686275%,14.901961%);fill-opacity:1;" d="M 28.632812 89.042969 L 28.34375 91.453125 L 29.402344 91.933594 L 29.59375 89.429688 Z M 28.632812 89.042969 "/>
<path style=" stroke:none;fill-rule:nonzero;fill:rgb(63.921571%,35.686275%,14.901961%);fill-opacity:1;" d="M 28.148438 92.800781 L 28.726562 95.789062 L 29.210938 92.800781 Z M 28.148438 92.800781 "/>
<path style=" stroke:none;fill-rule:nonzero;fill:rgb(63.921571%,35.686275%,14.901961%);fill-opacity:1;" d="M 24.292969 53.085938 L 27.089844 53.277344 L 28.4375 50.675781 L 25.933594 49.808594 Z M 24.292969 53.085938 "/>
<path style=" stroke:none;fill-rule:nonzero;fill:rgb(63.921571%,35.686275%,14.901961%);fill-opacity:1;" d="M 28.824219 50.191406 L 28.632812 52.023438 L 31.234375 51.929688 L 28.824219 48.265625 L 26.894531 49.132812 Z M 28.824219 50.191406 "/>
<path style=" stroke:none;fill-rule:nonzero;fill:rgb(63.921571%,35.686275%,14.901961%);fill-opacity:1;" d="M 57.839844 10.765625 L 59.480469 11.34375 L 61.023438 8.546875 L 58.996094 7.488281 Z M 57.839844 10.765625 "/>
<path style=" stroke:none;fill-rule:nonzero;fill:rgb(63.921571%,35.686275%,14.901961%);fill-opacity:1;" d="M 59.382812 12.019531 L 59.769531 13.175781 L 61.214844 12.597656 Z M 59.382812 12.019531 "/>
<path style=" stroke:none;fill-rule:nonzero;fill:rgb(63.921571%,35.686275%,14.901961%);fill-opacity:1;" d="M 60.347656 11.34375 L 61.601562 8.546875 L 61.601562 11.632812 Z M 60.347656 11.34375 "/>
<path style=" stroke:none;fill-rule:nonzero;fill:rgb(63.921571%,35.686275%,14.901961%);fill-opacity:1;" d="M 59.863281 7.292969 L 60.347656 5.75 L 62.5625 6.136719 L 62.179688 8.449219 Z M 59.863281 7.292969 "/>
<path style=" stroke:none;fill-rule:nonzero;fill:rgb(63.921571%,35.686275%,14.901961%);fill-opacity:1;" d="M 63.046875 5.367188 L 63.625 4.210938 C 63.625 4.210938 64.300781 4.691406 64.203125 4.789062 C 64.105469 4.980469 63.625 5.75 63.625 5.75 Z M 63.046875 5.367188 "/>
<path style=" stroke:none;fill-rule:nonzero;fill:rgb(63.921571%,35.686275%,14.901961%);fill-opacity:1;" d="M 62.371094 8.546875 L 62.082031 10.570312 L 63.625 10.570312 L 63.625 9.222656 Z M 62.371094 8.546875 "/>
<path style=" stroke:none;fill-rule:nonzero;fill:rgb(63.921571%,35.686275%,14.901961%);fill-opacity:1;" d="M 62.851562 5.847656 L 62.851562 7.488281 L 67.769531 5.847656 Z M 62.851562 5.847656 "/>
<path style=" stroke:none;fill-rule:nonzero;fill:rgb(63.921571%,35.686275%,14.901961%);fill-opacity:1;" d="M 66.613281 7.292969 L 67.578125 6.8125 L 68.542969 8.355469 Z M 66.613281 7.292969 "/>
<path style=" stroke:none;fill-rule:nonzero;fill:rgb(63.921571%,35.686275%,14.901961%);fill-opacity:1;" d="M 66.324219 8.160156 L 66.324219 9.414062 L 67.578125 8.835938 L 67.382812 8.160156 Z M 66.324219 8.160156 "/>
</g>
</svg>
