<?xml version="1.0" encoding="UTF-8"?>
<svg xmlns="http://www.w3.org/2000/svg" xmlns:xlink="http://www.w3.org/1999/xlink" width="100px" height="100px" viewBox="0 0 100 100" version="1.1">
<g id="surface1">
<path style=" stroke:none;fill-rule:evenodd;fill:rgb(8.235294%,9.019608%,9.411765%);fill-opacity:1;" d="M 67.820312 56.804688 C 70.410156 54.210938 73.003906 51.621094 75.378906 49.242188 C 72.785156 46.652344 70.195312 44.277344 67.820312 41.683594 C 65.226562 44.277344 62.636719 46.867188 60.257812 49.242188 C 62.851562 51.835938 65.441406 54.210938 67.820312 56.804688 M 51.402344 13.605469 C 51.402344 24.191406 51.402344 34.773438 51.402344 45.140625 C 53.996094 42.546875 56.585938 39.742188 59.394531 37.148438 C 60.691406 35.851562 61.988281 34.558594 63.28125 33.261719 C 63.929688 32.613281 67.171875 30.023438 67.171875 29.375 C 67.171875 28.726562 63.714844 25.917969 63.28125 25.484375 C 61.988281 24.191406 60.691406 22.894531 59.394531 21.597656 C 56.585938 19.007812 53.996094 16.199219 51.402344 13.605469 M 51.402344 51.402344 C 51.402344 63.066406 51.402344 74.730469 51.402344 86.175781 C 57.234375 80.34375 62.851562 74.515625 68.898438 68.683594 C 63.066406 63.066406 57.234375 57.019531 51.402344 51.402344 M 48.597656 86.175781 C 48.597656 74.515625 48.597656 62.851562 48.597656 51.402344 C 42.765625 57.234375 36.933594 63.066406 31.101562 68.898438 C 36.933594 74.515625 42.765625 80.34375 48.597656 86.175781 M 48.597656 44.058594 C 48.597656 33.910156 48.597656 23.757812 48.597656 13.605469 C 46.003906 16.199219 43.414062 18.574219 41.035156 21.167969 C 39.742188 22.460938 38.445312 23.757812 37.148438 25.054688 C 36.71875 25.484375 33.261719 28.292969 33.261719 28.941406 C 33.261719 29.589844 36.5 32.179688 37.148438 32.828125 C 38.445312 34.125 39.742188 35.421875 41.035156 36.71875 C 43.414062 39.09375 46.003906 41.683594 48.597656 44.058594 M 31.75 41.46875 C 29.15625 44.058594 26.566406 46.652344 24.191406 49.027344 C 25.484375 50.324219 26.78125 51.621094 28.078125 52.914062 C 28.507812 53.347656 31.316406 56.804688 31.964844 56.804688 C 32.613281 56.804688 35.207031 53.5625 35.851562 52.914062 C 37.148438 51.621094 38.445312 50.324219 39.742188 49.027344 C 36.933594 46.652344 34.339844 44.058594 31.75 41.46875 M 49.890625 95.464844 C 38.011719 83.585938 26.351562 71.492188 14.253906 59.828125 C 10.800781 56.585938 7.558594 53.132812 4.320312 49.890625 C 16.414062 37.796875 28.292969 25.703125 40.390625 13.824219 C 43.414062 10.800781 46.4375 7.773438 49.460938 4.75 C 50.324219 3.886719 50.757812 4.96875 51.402344 5.617188 C 52.050781 6.261719 52.699219 6.910156 53.5625 7.773438 C 55.292969 9.503906 56.804688 11.015625 58.53125 12.742188 C 64.578125 18.789062 70.410156 24.621094 76.457031 30.667969 C 82.9375 37.148438 89.417969 43.628906 95.679688 49.890625 C 83.585938 61.769531 71.707031 73.433594 60.042969 85.527344 C 56.585938 88.984375 53.347656 92.226562 49.890625 95.464844 M 98.921875 48.8125 C 86.394531 36.285156 74.082031 23.757812 61.554688 11.445312 C 58.316406 8.207031 55.292969 5.183594 52.050781 1.945312 C 51.621094 1.726562 50.324219 0 49.890625 0 C 49.460938 0 47.949219 1.945312 47.515625 2.160156 C 46.003906 3.671875 44.277344 5.398438 42.765625 6.910156 C 36.71875 12.957031 30.453125 19.222656 24.40625 25.269531 C 16.414062 33.476562 8.207031 41.683594 0 49.890625 C 12.3125 62.203125 24.621094 74.515625 37.148438 86.824219 C 40.171875 89.847656 43.414062 93.089844 46.4375 96.113281 C 47.300781 96.976562 48.164062 97.839844 49.027344 98.703125 C 49.242188 98.921875 49.890625 99.785156 50.109375 99.785156 C 50.324219 99.785156 50.972656 98.921875 51.1875 98.703125 C 52.914062 96.976562 54.425781 95.464844 56.15625 93.738281 C 62.417969 87.472656 68.683594 81.210938 74.945312 74.945312 C 83.371094 66.523438 91.359375 57.882812 100 49.890625 C 99.566406 49.675781 99.136719 49.242188 98.921875 48.8125 M 87.6875 49.890625 C 82.074219 55.507812 76.457031 61.125 71.058594 66.523438 C 65.011719 60.476562 58.746094 54.425781 52.699219 48.164062 C 51.835938 47.300781 52.914062 46.867188 53.78125 46.003906 C 54.644531 45.140625 55.292969 44.492188 56.15625 43.628906 C 57.667969 42.117188 58.964844 40.820312 60.476562 39.308594 C 61.988281 37.796875 63.28125 36.5 64.792969 34.988281 C 65.441406 34.339844 66.089844 33.691406 66.953125 32.828125 C 67.386719 32.398438 68.683594 30.667969 69.113281 30.667969 C 69.546875 30.667969 71.058594 32.613281 71.492188 33.046875 C 72.355469 33.910156 73.003906 34.558594 73.867188 35.421875 C 75.378906 36.933594 77.105469 38.660156 78.617188 40.171875 C 81.425781 43.628906 84.449219 46.867188 87.6875 49.890625 M 12.3125 49.890625 C 18.359375 43.628906 24.40625 37.582031 30.667969 31.535156 C 31.535156 30.667969 31.964844 31.75 32.828125 32.613281 C 33.691406 33.476562 34.339844 34.125 35.207031 34.988281 C 36.71875 36.5 38.230469 38.011719 39.742188 39.523438 C 42.765625 42.546875 45.574219 45.355469 48.597656 48.378906 C 42.546875 54.425781 36.5 60.691406 30.238281 66.738281 C 29.375 67.601562 28.941406 66.523438 28.078125 65.660156 C 27.214844 64.792969 26.566406 64.148438 25.703125 63.28125 C 24.191406 61.769531 22.679688 60.257812 21.167969 58.746094 C 18.140625 55.722656 15.117188 52.914062 12.3125 49.890625 M 48.8125 8.855469 C 36.5 20.949219 24.40625 33.476562 12.09375 45.574219 C 10.582031 47.085938 9.289062 48.378906 7.773438 49.890625 C 20.085938 61.988281 32.179688 74.296875 44.277344 86.394531 C 46.003906 88.121094 47.515625 90.066406 49.460938 91.578125 C 49.675781 91.792969 49.890625 92.226562 50.109375 92.007812 C 50.539062 91.578125 50.757812 91.359375 51.1875 90.929688 C 52.269531 89.847656 53.347656 88.769531 54.644531 87.472656 C 57.667969 84.449219 60.691406 81.425781 63.5 78.617188 C 69.546875 72.570312 75.59375 66.523438 81.640625 60.476562 C 85.097656 57.019531 88.335938 53.78125 91.792969 50.324219 C 92.226562 49.890625 84.449219 42.546875 83.371094 41.46875 C 77.320312 35.421875 71.273438 29.589844 65.441406 23.542969 C 62.417969 20.519531 59.609375 17.496094 56.585938 14.6875 C 55.292969 12.957031 53.996094 11.664062 52.484375 10.367188 C 51.835938 9.71875 51.402344 9.289062 50.757812 8.640625 C 50.539062 8.421875 50.109375 7.773438 49.890625 7.773438 C 49.890625 7.773438 49.027344 8.855469 48.8125 8.855469 "/>
</g>
</svg>
