<?xml version="1.0" encoding="UTF-8"?>
<svg xmlns="http://www.w3.org/2000/svg" xmlns:xlink="http://www.w3.org/1999/xlink" width="52px" height="100px" viewBox="0 0 52 100" version="1.1">
<g id="surface1">
<path style=" stroke:none;fill-rule:nonzero;fill:rgb(0%,0%,0%);fill-opacity:1;" d="M 45.9375 90.335938 C 45.332031 88.523438 45.089844 84.417969 44.96875 80.070312 C 45.816406 79.949219 46.789062 79.828125 47.636719 79.707031 C 47.636719 79.707031 49.574219 70.769531 48 59.417969 C 51.636719 62.078125 52.242188 56.882812 49.210938 51.8125 C 48.847656 51.207031 48.605469 50.605469 48.605469 49.878906 C 48.363281 46.738281 47.757812 37.441406 48.121094 34.179688 C 48.484375 30.316406 48.726562 18.964844 42.183594 18.359375 C 41.210938 18.117188 40.242188 17.996094 39.152344 17.878906 C 39.03125 17.878906 38.910156 17.878906 38.667969 17.878906 C 38.425781 17.878906 38.183594 17.878906 37.9375 17.878906 C 37.695312 17.878906 37.574219 17.878906 37.332031 17.878906 C 37.210938 17.878906 37.089844 17.878906 36.96875 17.878906 C 36.726562 17.394531 36.605469 16.667969 36.484375 16.066406 C 37.210938 16.308594 37.816406 16.429688 38.546875 16.546875 C 41.089844 16.910156 42.910156 9.90625 42.183594 6.164062 C 41.9375 5.195312 41.574219 4.472656 41.210938 3.746094 C 35.636719 4.351562 32 7.855469 30.304688 12.082031 C 30.304688 12.082031 30.546875 12.441406 30.789062 12.683594 C 31.273438 13.167969 31.636719 13.53125 32.121094 13.890625 C 32 15.460938 31.515625 16.789062 30.546875 17.996094 C 30.304688 17.996094 30.0625 17.996094 29.9375 17.996094 C 29.816406 17.996094 29.816406 17.996094 29.695312 17.996094 C 29.453125 17.996094 29.089844 17.996094 28.847656 18.117188 C 28.726562 18.117188 28.605469 18.117188 28.363281 18.117188 C 28.121094 18.117188 27.757812 18.117188 27.515625 18.238281 C 27.515625 18.238281 27.394531 18.238281 27.394531 18.238281 C 27.273438 18.238281 27.152344 18.238281 27.03125 18.238281 C 19.394531 17.757812 20.121094 30.4375 20.484375 34.300781 C 20.726562 37.5625 20.121094 46.859375 20 50 C 20 50.722656 19.757812 51.328125 19.394531 51.933594 C 19.03125 52.535156 18.667969 53.140625 18.425781 53.742188 L 2.0625 43.839844 C 1.453125 43.480469 0.605469 43.238281 0.242188 43.480469 C -0.121094 43.71875 0 44.203125 0.726562 44.566406 L 17.695312 54.953125 C 16.242188 59.179688 17.574219 62.195312 21.210938 58.695312 C 21.574219 58.332031 21.816406 57.96875 22.0625 57.609375 L 23.152344 58.332031 L 23.273438 56.882812 L 22.667969 56.519531 C 23.636719 54.46875 23.273438 52.535156 23.03125 51.570312 C 22.910156 51.085938 22.910156 50.605469 22.910156 50.121094 C 23.515625 45.53125 24 38.769531 24.242188 35.992188 C 24.363281 35.144531 24.484375 34.300781 24.726562 33.457031 C 25.089844 32.007812 25.332031 30.4375 25.453125 29.109375 C 25.574219 29.589844 25.574219 30.074219 25.695312 30.679688 C 25.695312 30.796875 25.695312 30.796875 25.695312 30.917969 C 25.816406 31.523438 25.9375 32.128906 26.0625 32.730469 C 26.0625 32.730469 26.0625 32.851562 26.0625 32.851562 C 26.183594 33.457031 26.304688 34.179688 26.425781 34.90625 C 26.425781 34.90625 26.425781 35.027344 26.425781 35.027344 C 26.546875 35.75 26.667969 36.472656 26.910156 37.320312 C 26.910156 37.320312 26.910156 37.320312 26.910156 37.441406 C 27.152344 38.527344 27.394531 39.734375 27.636719 41.0625 C 27.636719 41.0625 24.121094 46.136719 23.152344 57.125 L 43.636719 69.320312 C 44.121094 69.683594 44.484375 70.167969 44.363281 70.410156 C 44.242188 70.769531 43.636719 70.769531 43.152344 70.410156 L 23.273438 58.332031 C 22.789062 64.007812 23.03125 71.011719 24.605469 79.707031 C 24.605469 79.707031 25.332031 79.949219 26.667969 80.191406 C 26.546875 84.539062 26.183594 88.644531 25.695312 90.457031 C 24.121094 95.285156 18.183594 95.40625 19.878906 99.03125 C 21.574219 102.53125 22.425781 96.253906 31.515625 93.714844 C 32.121094 93.59375 32.605469 92.871094 32.484375 92.265625 C 32.121094 90.214844 31.636719 85.867188 32.121094 80.914062 C 34.183594 81.035156 36.726562 81.035156 39.515625 80.914062 C 40 85.867188 39.515625 90.335938 39.152344 92.386719 C 39.03125 92.992188 39.394531 93.714844 40.121094 93.835938 C 49.210938 96.371094 50.0625 102.652344 51.757812 99.152344 C 53.453125 95.285156 47.515625 95.164062 45.9375 90.335938 Z M 29.9375 21.5 C 30.304688 21.5 30.546875 21.742188 30.546875 21.984375 C 30.546875 22.34375 30.304688 22.585938 30.0625 22.585938 C 29.695312 22.585938 29.453125 22.34375 29.453125 22.105469 C 29.332031 21.863281 29.574219 21.5 29.9375 21.5 Z M 29.210938 20.535156 C 29.210938 20.171875 29.453125 19.929688 29.695312 19.929688 C 30.0625 19.929688 30.304688 20.171875 30.304688 20.414062 C 30.304688 20.777344 30.0625 21.015625 29.816406 21.015625 C 29.453125 21.136719 29.210938 20.894531 29.210938 20.535156 Z M 38.425781 24.035156 C 38.0625 24.035156 37.816406 23.792969 37.816406 23.433594 C 37.816406 23.070312 38.0625 22.828125 38.425781 22.828125 C 38.789062 22.828125 39.03125 23.070312 39.03125 23.433594 C 39.03125 23.792969 38.789062 24.035156 38.425781 24.035156 Z M 38.910156 25.121094 C 38.910156 25.484375 38.546875 25.726562 38.304688 25.605469 C 37.9375 25.605469 37.695312 25.242188 37.816406 25.003906 C 37.816406 24.640625 38.0625 24.398438 38.425781 24.519531 C 38.667969 24.519531 38.910156 24.761719 38.910156 25.121094 Z M 38.425781 22.464844 C 38.0625 22.464844 37.816406 22.222656 37.816406 21.863281 C 37.816406 21.5 38.0625 21.257812 38.425781 21.257812 C 38.789062 21.257812 39.03125 21.5 39.03125 21.863281 C 39.03125 22.222656 38.789062 22.464844 38.425781 22.464844 Z M 38.425781 20.894531 C 38.0625 20.894531 37.816406 20.65625 37.816406 20.414062 C 37.816406 20.050781 38.0625 19.808594 38.425781 19.808594 C 38.789062 19.808594 39.03125 20.050781 39.03125 20.292969 C 38.910156 20.65625 38.667969 20.894531 38.425781 20.894531 Z M 38.304688 19.328125 C 37.9375 19.328125 37.695312 19.085938 37.695312 18.84375 C 37.695312 18.480469 37.9375 18.238281 38.183594 18.238281 C 38.546875 18.238281 38.789062 18.480469 38.789062 18.722656 C 38.789062 19.085938 38.546875 19.328125 38.304688 19.328125 Z M 38.304688 25.96875 C 38.667969 25.96875 38.910156 26.332031 38.789062 26.570312 C 38.789062 26.933594 38.425781 27.175781 38.0625 27.054688 C 37.695312 27.054688 37.574219 26.691406 37.574219 26.453125 C 37.695312 26.210938 37.9375 25.96875 38.304688 25.96875 Z M 38.0625 27.539062 C 38.425781 27.660156 38.546875 27.902344 38.546875 28.261719 C 38.425781 28.625 38.183594 28.746094 37.816406 28.625 C 37.453125 28.503906 37.332031 28.261719 37.453125 27.902344 C 37.453125 27.660156 37.695312 27.539062 38.0625 27.539062 Z M 31.636719 23.070312 C 32 23.070312 32.242188 23.191406 32.363281 23.554688 C 32.363281 23.914062 32.242188 24.15625 31.878906 24.277344 C 31.515625 24.277344 31.273438 24.15625 31.152344 23.792969 C 31.03125 23.3125 31.273438 23.070312 31.636719 23.070312 Z M 30.910156 22.105469 C 30.910156 21.742188 31.152344 21.5 31.394531 21.5 C 31.757812 21.5 32 21.742188 32 21.984375 C 32 22.34375 31.757812 22.585938 31.515625 22.585938 C 31.273438 22.707031 30.910156 22.464844 30.910156 22.105469 Z M 31.878906 24.640625 C 32.242188 24.640625 32.484375 24.761719 32.605469 25.121094 C 32.726562 25.484375 32.484375 25.726562 32.121094 25.847656 C 31.757812 25.96875 31.515625 25.726562 31.394531 25.363281 C 31.394531 25.003906 31.515625 24.640625 31.878906 24.640625 Z M 31.394531 21.015625 C 31.03125 21.015625 30.789062 20.777344 30.789062 20.535156 C 30.789062 20.171875 31.03125 19.929688 31.394531 19.929688 C 31.757812 19.929688 32 20.171875 32 20.414062 C 32 20.65625 31.757812 21.015625 31.394531 21.015625 Z M 31.03125 25.003906 C 31.03125 25.363281 30.910156 25.605469 30.546875 25.726562 C 30.183594 25.847656 29.9375 25.605469 29.816406 25.242188 C 29.695312 24.882812 29.9375 24.640625 30.304688 24.519531 C 30.667969 24.519531 30.910156 24.761719 31.03125 25.003906 Z M 30.667969 26.089844 C 31.03125 25.96875 31.273438 26.210938 31.394531 26.453125 C 31.515625 26.691406 31.273438 27.054688 30.910156 27.175781 C 30.546875 27.296875 30.304688 27.054688 30.183594 26.8125 C 30.0625 26.453125 30.304688 26.210938 30.667969 26.089844 Z M 31.03125 27.660156 C 31.394531 27.539062 31.636719 27.78125 31.757812 28.019531 C 31.878906 28.261719 31.636719 28.625 31.394531 28.746094 C 31.03125 28.867188 30.789062 28.746094 30.667969 28.382812 C 30.546875 28.019531 30.667969 27.660156 31.03125 27.660156 Z M 31.515625 29.109375 C 31.757812 28.988281 32.121094 29.109375 32.242188 29.347656 C 32.363281 29.589844 32.242188 29.953125 32 30.074219 C 31.757812 30.195312 31.394531 30.074219 31.152344 29.832031 C 31.152344 29.589844 31.273438 29.230469 31.515625 29.109375 Z M 31.878906 26.933594 C 31.757812 26.570312 32 26.210938 32.242188 26.210938 C 32.605469 26.089844 32.847656 26.332031 32.96875 26.570312 C 33.089844 26.8125 32.96875 27.175781 32.605469 27.296875 C 32.363281 27.417969 32 27.296875 31.878906 26.933594 Z M 32.847656 27.660156 C 33.089844 27.539062 33.453125 27.660156 33.574219 27.902344 C 33.695312 28.140625 33.695312 28.382812 33.453125 28.625 C 33.210938 28.867188 32.847656 28.867188 32.605469 28.503906 C 32.363281 28.140625 32.484375 27.78125 32.847656 27.660156 Z M 33.816406 28.867188 C 33.9375 28.625 34.183594 28.382812 34.304688 28.382812 C 34.425781 28.382812 34.789062 28.503906 34.910156 28.746094 C 35.03125 28.988281 34.910156 29.46875 34.425781 29.46875 C 33.9375 29.589844 33.695312 29.109375 33.816406 28.867188 Z M 35.152344 27.78125 C 35.273438 27.539062 35.636719 27.417969 35.878906 27.539062 C 36.121094 27.660156 36.242188 28.019531 36.121094 28.382812 C 35.878906 28.746094 35.394531 28.746094 35.273438 28.503906 C 35.03125 28.261719 35.03125 28.019531 35.152344 27.78125 Z M 36.121094 27.175781 C 35.757812 27.054688 35.636719 26.691406 35.757812 26.453125 C 35.878906 26.210938 36.121094 25.96875 36.484375 26.089844 C 36.847656 26.210938 36.96875 26.453125 36.847656 26.8125 C 36.847656 27.175781 36.484375 27.296875 36.121094 27.175781 Z M 36.726562 24.519531 C 37.089844 24.519531 37.332031 24.882812 37.210938 25.242188 C 37.210938 25.605469 36.847656 25.847656 36.484375 25.726562 C 36.121094 25.605469 36 25.363281 36 25.003906 C 36.121094 24.640625 36.363281 24.398438 36.726562 24.519531 Z M 36.242188 23.433594 C 36.242188 23.070312 36.484375 22.828125 36.847656 22.828125 C 37.210938 22.828125 37.453125 23.070312 37.453125 23.433594 C 37.453125 23.792969 37.089844 24.035156 36.847656 24.035156 C 36.484375 24.035156 36.242188 23.792969 36.242188 23.433594 Z M 36.847656 29.347656 C 36.96875 29.109375 37.332031 28.988281 37.574219 28.988281 C 37.9375 29.109375 38.0625 29.46875 37.9375 29.710938 C 37.816406 30.074219 37.453125 30.195312 37.089844 29.953125 C 36.847656 29.953125 36.726562 29.589844 36.847656 29.347656 Z M 36.847656 22.464844 C 36.484375 22.464844 36.242188 22.222656 36.242188 21.863281 C 36.242188 21.5 36.484375 21.257812 36.847656 21.257812 C 37.210938 21.257812 37.453125 21.5 37.453125 21.863281 C 37.453125 22.222656 37.210938 22.464844 36.847656 22.464844 Z M 36.847656 20.894531 C 36.484375 20.894531 36.242188 20.65625 36.242188 20.292969 C 36.242188 19.929688 36.484375 19.6875 36.847656 19.6875 C 37.210938 19.6875 37.453125 19.929688 37.453125 20.292969 C 37.453125 20.65625 37.210938 20.894531 36.847656 20.894531 Z M 36.726562 19.328125 C 36.363281 19.328125 36.121094 19.085938 36.121094 18.722656 C 36.121094 18.359375 36.363281 18.117188 36.605469 18.117188 C 36.96875 18.117188 37.210938 18.359375 37.210938 18.722656 C 37.332031 18.964844 37.089844 19.207031 36.726562 19.328125 Z M 31.878906 18.84375 C 31.878906 19.207031 31.636719 19.445312 31.273438 19.445312 C 30.910156 19.445312 30.667969 19.207031 30.667969 18.84375 C 30.667969 18.480469 30.910156 18.238281 31.273438 18.238281 C 31.515625 18.238281 31.757812 18.480469 31.878906 18.84375 Z M 30.789062 23.554688 C 30.789062 23.914062 30.667969 24.15625 30.304688 24.15625 C 29.9375 24.15625 29.695312 24.035156 29.574219 23.671875 C 29.574219 23.3125 29.695312 23.070312 30.0625 23.070312 C 30.425781 22.949219 30.667969 23.191406 30.789062 23.554688 Z M 29.574219 26.8125 C 29.695312 27.175781 29.453125 27.417969 29.089844 27.539062 C 28.726562 27.660156 28.484375 27.417969 28.363281 27.054688 C 28.242188 26.691406 28.484375 26.453125 28.847656 26.332031 C 29.210938 26.210938 29.574219 26.453125 29.574219 26.8125 Z M 29.210938 27.902344 C 29.574219 27.78125 29.816406 28.019531 29.9375 28.382812 C 30.0625 28.746094 29.816406 28.988281 29.574219 29.109375 C 29.210938 29.230469 28.96875 28.988281 28.847656 28.625 C 28.726562 28.261719 28.96875 28.019531 29.210938 27.902344 Z M 29.695312 29.46875 C 30.0625 29.347656 30.304688 29.589844 30.425781 29.832031 C 30.546875 30.195312 30.304688 30.4375 30.0625 30.558594 C 29.695312 30.679688 29.453125 30.4375 29.332031 30.195312 C 29.210938 29.832031 29.332031 29.589844 29.695312 29.46875 Z M 30.183594 31.039062 C 30.546875 30.917969 30.789062 31.039062 30.910156 31.402344 C 31.03125 31.644531 30.910156 32.007812 30.546875 32.128906 C 30.304688 32.246094 29.9375 32.128906 29.816406 31.765625 C 29.695312 31.402344 29.816406 31.039062 30.183594 31.039062 Z M 30.789062 32.488281 C 31.03125 32.367188 31.394531 32.488281 31.636719 32.730469 C 31.757812 32.972656 31.757812 33.335938 31.394531 33.578125 C 31.152344 33.695312 30.789062 33.695312 30.546875 33.335938 C 30.425781 32.972656 30.546875 32.609375 30.789062 32.488281 Z M 31.636719 33.816406 C 31.878906 33.578125 32.242188 33.695312 32.484375 33.9375 C 32.726562 34.179688 32.726562 34.542969 32.484375 34.785156 C 32.242188 35.027344 31.878906 35.027344 31.636719 34.785156 C 31.273438 34.421875 31.394531 34.058594 31.636719 33.816406 Z M 32.121094 31.28125 C 31.878906 31.039062 32 30.558594 32.242188 30.4375 C 32.484375 30.316406 32.847656 30.316406 33.089844 30.558594 C 33.210938 30.796875 33.210938 31.039062 32.96875 31.402344 C 32.726562 31.644531 32.363281 31.644531 32.121094 31.28125 Z M 32.726562 35.027344 C 32.96875 34.785156 33.332031 34.664062 33.453125 34.785156 C 33.695312 34.90625 33.816406 35.265625 33.695312 35.507812 C 33.574219 35.871094 33.210938 35.992188 32.847656 35.75 C 32.605469 35.75 32.484375 35.265625 32.726562 35.027344 Z M 33.574219 32.488281 C 33.210938 32.367188 33.089844 31.886719 33.210938 31.644531 C 33.453125 31.402344 33.695312 31.28125 33.9375 31.402344 C 34.183594 31.523438 34.304688 31.765625 34.304688 32.128906 C 34.425781 32.367188 34.0625 32.609375 33.574219 32.488281 Z M 34.789062 35.144531 C 35.03125 35.144531 35.273438 35.386719 35.394531 35.628906 C 35.515625 35.992188 35.273438 36.234375 34.789062 36.355469 C 34.425781 36.355469 34.0625 36.113281 34.183594 35.75 C 34.304688 35.386719 34.546875 35.144531 34.789062 35.144531 Z M 34.789062 32.007812 C 34.789062 31.644531 34.910156 31.402344 35.152344 31.28125 C 35.394531 31.160156 35.636719 31.28125 35.878906 31.523438 C 36.121094 31.765625 35.878906 32.128906 35.515625 32.367188 C 35.152344 32.609375 34.789062 32.367188 34.789062 32.007812 Z M 36.121094 34.785156 C 36.363281 34.664062 36.726562 34.785156 36.847656 35.027344 C 37.089844 35.265625 36.96875 35.75 36.605469 35.871094 C 36.242188 36.113281 35.878906 35.871094 35.757812 35.507812 C 35.757812 35.265625 35.878906 34.90625 36.121094 34.785156 Z M 36.242188 31.402344 C 36 31.160156 36 30.796875 36.242188 30.558594 C 36.363281 30.316406 36.726562 30.316406 37.089844 30.4375 C 37.332031 30.558594 37.453125 31.039062 37.210938 31.28125 C 36.847656 31.644531 36.363281 31.644531 36.242188 31.402344 Z M 37.210938 33.9375 C 37.453125 33.695312 37.816406 33.695312 38.0625 33.9375 C 38.304688 34.179688 38.304688 34.542969 38.0625 34.785156 C 37.816406 35.027344 37.332031 35.027344 37.210938 34.785156 C 36.96875 34.542969 37.089844 34.179688 37.210938 33.9375 Z M 38.0625 32.730469 C 38.183594 32.488281 38.546875 32.367188 38.789062 32.488281 C 39.03125 32.609375 39.273438 32.972656 39.03125 33.335938 C 38.910156 33.695312 38.425781 33.816406 38.183594 33.578125 C 38.0625 33.335938 37.9375 32.972656 38.0625 32.730469 Z M 39.03125 32.128906 C 38.789062 32.007812 38.546875 31.644531 38.667969 31.402344 C 38.789062 31.160156 39.03125 30.917969 39.394531 31.039062 C 39.757812 31.160156 39.878906 31.523438 39.757812 31.765625 C 39.636719 32.128906 39.273438 32.246094 39.03125 32.128906 Z M 39.515625 30.558594 C 39.152344 30.4375 39.03125 30.195312 39.03125 29.832031 C 39.152344 29.46875 39.394531 29.347656 39.757812 29.347656 C 40.121094 29.347656 40.242188 29.710938 40.242188 30.074219 C 40.121094 30.4375 39.757812 30.679688 39.515625 30.558594 Z M 40.121094 22.585938 C 39.757812 22.585938 39.515625 22.34375 39.515625 21.984375 C 39.515625 21.621094 39.757812 21.378906 40.121094 21.378906 C 40.484375 21.378906 40.726562 21.621094 40.726562 21.984375 C 40.726562 22.222656 40.484375 22.464844 40.121094 22.585938 Z M 40.726562 23.554688 C 40.726562 23.914062 40.484375 24.15625 40.121094 24.15625 C 39.757812 24.15625 39.515625 23.914062 39.515625 23.554688 C 39.515625 23.191406 39.757812 22.949219 40.121094 22.949219 C 40.484375 22.949219 40.726562 23.191406 40.726562 23.554688 Z M 40 20.894531 C 39.636719 20.894531 39.394531 20.65625 39.394531 20.292969 C 39.394531 19.929688 39.636719 19.6875 39.878906 19.6875 C 40.242188 19.6875 40.484375 19.929688 40.484375 20.292969 C 40.605469 20.65625 40.363281 20.894531 40 20.894531 Z M 39.878906 19.445312 C 39.515625 19.445312 39.273438 19.207031 39.273438 18.964844 C 39.273438 18.601562 39.515625 18.359375 39.757812 18.238281 C 40.121094 18.238281 40.363281 18.480469 40.363281 18.722656 C 40.484375 19.085938 40.242188 19.328125 39.878906 19.445312 Z M 39.878906 28.988281 C 39.515625 28.988281 39.394531 28.625 39.394531 28.261719 C 39.394531 27.902344 39.757812 27.660156 40 27.78125 C 40.363281 27.78125 40.605469 28.140625 40.484375 28.503906 C 40.484375 28.867188 40.121094 28.988281 39.878906 28.988281 Z M 40 27.417969 C 39.636719 27.417969 39.394531 27.054688 39.515625 26.8125 C 39.515625 26.453125 39.757812 26.210938 40.121094 26.210938 C 40.484375 26.210938 40.726562 26.453125 40.726562 26.8125 C 40.605469 27.175781 40.363281 27.417969 40 27.417969 Z M 40.121094 25.726562 C 39.757812 25.726562 39.515625 25.484375 39.515625 25.121094 C 39.515625 24.761719 39.757812 24.519531 40.121094 24.519531 C 40.484375 24.519531 40.726562 24.761719 40.726562 25.121094 C 40.726562 25.484375 40.484375 25.726562 40.121094 25.726562 Z M 29.574219 18.359375 C 29.9375 18.359375 30.183594 18.601562 30.183594 18.84375 C 30.183594 19.207031 29.9375 19.445312 29.574219 19.445312 C 29.210938 19.445312 28.96875 19.207031 28.96875 18.964844 C 29.089844 18.601562 29.332031 18.359375 29.574219 18.359375 Z M 29.332031 25.242188 C 29.332031 25.605469 29.210938 25.847656 28.847656 25.96875 C 28.484375 26.089844 28.242188 25.847656 28.121094 25.484375 C 28.121094 25.121094 28.242188 24.882812 28.605469 24.761719 C 28.96875 24.640625 29.210938 24.882812 29.332031 25.242188 Z M 28.484375 24.277344 C 28.121094 24.277344 27.878906 24.15625 27.757812 23.792969 C 27.757812 23.433594 27.878906 23.191406 28.242188 23.070312 C 28.605469 23.070312 28.847656 23.3125 28.96875 23.554688 C 29.089844 23.914062 28.847656 24.277344 28.484375 24.277344 Z M 28.242188 22.707031 C 27.878906 22.707031 27.636719 22.464844 27.636719 22.222656 C 27.636719 21.863281 27.878906 21.621094 28.121094 21.5 C 28.484375 21.5 28.726562 21.742188 28.726562 21.984375 C 28.847656 22.34375 28.605469 22.707031 28.242188 22.707031 Z M 28.605469 20.414062 C 28.605469 20.777344 28.363281 21.015625 28.121094 21.015625 C 27.757812 21.015625 27.515625 20.777344 27.515625 20.535156 C 27.515625 20.171875 27.757812 19.929688 28 19.929688 C 28.363281 19.808594 28.605469 20.050781 28.605469 20.414062 Z M 27.878906 18.238281 C 28.242188 18.238281 28.484375 18.480469 28.484375 18.84375 C 28.484375 19.207031 28.242188 19.445312 27.878906 19.445312 C 27.515625 19.445312 27.273438 19.207031 27.273438 18.84375 C 27.273438 18.601562 27.515625 18.238281 27.878906 18.238281 Z M 41.9375 40.820312 C 41.9375 40.820312 42.0625 39.371094 42.183594 37.199219 C 42.304688 35.265625 42.546875 32.730469 42.667969 30.4375 C 42.789062 31.523438 43.03125 32.609375 43.273438 33.578125 C 43.515625 34.542969 43.636719 35.507812 43.757812 36.472656 C 44 38.769531 44.363281 42.875 44.726562 46.617188 C 43.878906 44.6875 43.03125 42.753906 41.9375 40.820312 Z M 41.9375 40.820312 "/>
<path style=" stroke:none;fill-rule:nonzero;fill:rgb(0%,0%,0%);fill-opacity:1;" d="M 38.546875 1.210938 C 35.03125 -0.960938 29.816406 -0.359375 28.363281 4.109375 C 27.757812 5.921875 27.757812 7.007812 28.484375 8.941406 C 30.183594 5.078125 33.453125 2.058594 38.546875 1.210938 Z M 38.546875 1.210938 "/>
</g>
</svg>
