<?xml version="1.0" encoding="UTF-8"?>
<svg xmlns="http://www.w3.org/2000/svg" xmlns:xlink="http://www.w3.org/1999/xlink" width="76px" height="100px" viewBox="0 0 76 100" version="1.1">
<g id="surface1">
<path style=" stroke:none;fill-rule:nonzero;fill:rgb(0%,0%,0%);fill-opacity:1;" d="M 73.292969 34.34375 C 68.144531 35.390625 64.046875 36.4375 60.417969 37.019531 C 59.832031 38.882812 58.425781 42.609375 57.492188 44.003906 C 61.585938 48.777344 63.109375 59.023438 62.523438 66.007812 C 62.171875 70.664062 60.066406 76.25 55.96875 80.210938 C 47.1875 88.824219 28.929688 86.378906 23.777344 82.1875 C 22.488281 81.140625 19.210938 77.996094 16.988281 74.390625 C 13.476562 68.566406 11.71875 51.105469 18.160156 44.121094 C 16.402344 41.09375 14.765625 37.949219 13.476562 34.691406 C 12.421875 34.574219 4.34375 33.761719 3.761719 34.109375 C 1.886719 38.648438 0.25 47.613281 0.25 50.875 C -0.6875 55.296875 0.25 66.589844 2.707031 74.039062 C 4.695312 80.324219 7.390625 86.496094 11.601562 91.035156 C 20.851562 103.257812 57.257812 104.074219 67.910156 87.777344 C 70.25 84.75 72.238281 81.488281 73.527344 77.648438 C 77.273438 66.355469 76.335938 45.984375 73.292969 34.34375 Z M 3.058594 56.113281 C 2.589844 56.808594 2.003906 57.507812 1.300781 58.207031 C 0.832031 58.207031 0.949219 55.878906 1.066406 55.296875 C 1.417969 54.714844 2.355469 53.898438 3.644531 53.316406 C 4.578125 54.367188 5.398438 55.53125 6.335938 56.695312 C 7.738281 56.113281 8.441406 54.597656 9.730469 53.667969 C 10.667969 54.25 12.070312 55.761719 13.125 56.460938 C 13.242188 56.808594 12.890625 57.742188 12.539062 58.441406 C 11.367188 57.859375 10.433594 56.925781 9.261719 56.695312 C 8.089844 57.625 7.039062 58.441406 5.984375 59.136719 C 5.046875 58.207031 3.996094 56.925781 3.058594 56.113281 Z M 6.804688 69.617188 C 5.398438 68.566406 6.453125 66.125 8.207031 66.589844 C 9.027344 66.820312 9.378906 67.753906 9.261719 68.566406 C 9.144531 69.617188 7.855469 70.429688 6.804688 69.617188 Z M 23.308594 90.804688 C 17.339844 87.195312 8.910156 76.019531 7.738281 70.78125 C 8.089844 70.664062 8.558594 70.429688 8.792969 70.3125 C 9.144531 74.15625 19.5625 88.242188 23.894531 89.640625 C 23.777344 90.105469 23.425781 90.570312 23.308594 90.804688 Z M 25.882812 92.433594 C 25.183594 92.664062 24.363281 92.316406 24.246094 91.734375 C 24.128906 91.035156 24.246094 90.335938 24.832031 89.988281 C 25.417969 89.753906 26.234375 89.871094 26.46875 90.570312 C 26.9375 91.152344 26.703125 92.199219 25.882812 92.433594 Z M 38.761719 98.253906 C 38.058594 98.253906 37.355469 98.371094 36.886719 98.253906 C 36.417969 97.324219 35.71875 95.691406 35.015625 94.644531 C 35.71875 93.828125 36.535156 92.898438 37.003906 92.199219 C 37.238281 91.96875 35.71875 90.222656 35.484375 89.171875 C 35.953125 88.476562 36.652344 87.660156 37.121094 87.078125 C 37.707031 87.195312 38.292969 87.078125 39.113281 87.195312 C 38.878906 88.242188 38.292969 88.707031 38.058594 89.523438 C 38.292969 90.570312 39.113281 91.851562 39.464844 92.898438 C 38.878906 93.597656 38.058594 94.644531 37.355469 95.34375 C 37.824219 96.160156 38.527344 97.207031 38.761719 98.253906 Z M 47.539062 92.664062 C 46.839844 92.78125 46.488281 92.433594 46.136719 91.851562 C 45.902344 91.152344 46.371094 90.335938 46.953125 90.222656 C 47.65625 90.105469 48.242188 90.335938 48.476562 91.152344 C 48.59375 91.851562 48.242188 92.664062 47.539062 92.664062 Z M 49.648438 91.617188 C 49.414062 91.152344 49.296875 90.570312 49.0625 90.105469 C 57.375 87.425781 65.332031 78.113281 66.855469 71.59375 C 67.324219 71.59375 67.558594 71.710938 67.910156 72.058594 C 65.566406 81.140625 57.257812 88.359375 49.648438 91.617188 Z M 68.609375 71.363281 C 67.910156 71.476562 67.207031 71.246094 66.972656 70.546875 C 66.738281 69.730469 67.207031 69.265625 67.441406 68.917969 C 68.144531 68.566406 68.960938 68.917969 69.3125 69.730469 C 69.664062 70.429688 69.3125 71.128906 68.609375 71.363281 Z M 72.707031 56.925781 C 71.886719 58.441406 70.953125 59.605469 69.898438 61 C 68.375 59.953125 67.441406 59.136719 66.035156 58.207031 C 65.332031 58.671875 64.515625 59.136719 63.8125 59.71875 C 63.8125 59.136719 63.578125 58.554688 63.34375 57.507812 C 64.28125 56.695312 64.746094 55.878906 65.566406 55.179688 C 66.621094 55.996094 68.144531 57.277344 69.664062 58.324219 C 71.070312 57.277344 71.886719 55.179688 73.175781 54.132812 C 73.527344 54.25 73.878906 54.597656 74.464844 54.832031 C 74.582031 55.761719 74.699219 56.578125 74.699219 57.507812 C 73.996094 57.160156 73.292969 57.160156 72.707031 56.925781 Z M 72.707031 56.925781 "/>
<path style=" stroke:none;fill-rule:nonzero;fill:rgb(0%,0%,0%);fill-opacity:1;" d="M 19.5625 38.53125 C 20.851562 37.71875 22.371094 37.019531 24.128906 36.320312 C 24.011719 33.992188 24.128906 30.964844 24.128906 28.988281 C 21.90625 27.824219 15.464844 24.332031 12.304688 21.535156 C 12.1875 17.8125 12.539062 14.667969 12.539062 11.410156 C 12.65625 10.710938 12.070312 10.359375 11.71875 11.175781 C 10.902344 13.738281 7.390625 23.75 7.273438 24.796875 C 9.847656 26.660156 14.296875 29.453125 18.742188 31.316406 C 18.976562 33.761719 19.09375 36.203125 19.5625 38.53125 Z M 19.5625 38.53125 "/>
<path style=" stroke:none;fill-rule:nonzero;fill:rgb(0%,0%,0%);fill-opacity:1;" d="M 22.019531 45.75 C 14.296875 52.386719 15.464844 66.9375 21.085938 74.738281 C 28.226562 84.75 42.742188 84.402344 50.699219 79.277344 C 52.339844 78.113281 53.746094 76.832031 54.914062 75.320312 C 62.171875 66.472656 62.054688 53.433594 56.554688 47.378906 C 46.953125 34.925781 30.917969 36.554688 22.019531 45.75 Z M 51.285156 52.503906 C 51.402344 52.851562 51.402344 53.785156 51.167969 54.367188 C 49.53125 54.367188 43.558594 54.132812 43.328125 54.132812 C 43.328125 53.433594 43.328125 52.851562 43.210938 52.152344 C 46.019531 51.804688 48.476562 52.152344 51.285156 52.503906 Z M 35.25 67.871094 C 35.953125 67.871094 40.632812 67.871094 42.15625 68.101562 C 42.15625 68.917969 42.15625 69.617188 41.921875 70.199219 C 39.464844 70.3125 37.238281 70.3125 35.25 69.964844 C 35.25 69.265625 35.132812 68.566406 35.25 67.871094 Z M 25.066406 51.570312 C 27.992188 51.804688 31.035156 51.6875 33.960938 51.921875 C 33.84375 52.734375 34.078125 53.433594 33.960938 54.25 C 31.972656 54.25 27.171875 54.25 25.300781 54.015625 C 24.949219 53.433594 25.066406 52.503906 25.066406 51.570312 Z M 25.066406 51.570312 "/>
<path style=" stroke:none;fill-rule:nonzero;fill:rgb(0%,0%,0%);fill-opacity:1;" d="M 22.488281 43.191406 C 23.894531 41.910156 25.066406 41.328125 26 40.394531 C 25.300781 39.464844 24.832031 38.300781 24.128906 37.601562 C 22.957031 38.066406 21.320312 39.117188 19.914062 39.929688 C 20.382812 40.863281 21.789062 42.609375 22.488281 43.191406 Z M 22.488281 43.191406 "/>
<path style=" stroke:none;fill-rule:nonzero;fill:rgb(0%,0%,0%);fill-opacity:1;" d="M 46.019531 26.078125 C 47.421875 23.632812 48.242188 14.550781 47.539062 7.800781 C 47.421875 5.238281 47.1875 3.492188 46.839844 1.28125 C 46.605469 -0.117188 46.136719 0 45.667969 0.816406 C 45.316406 1.746094 44.261719 7.917969 43.441406 11.058594 C 42.742188 13.503906 41.6875 15.832031 39.347656 17.347656 C 38.996094 13.039062 37.003906 2.445312 36.535156 1.28125 C 36.1875 0.464844 35.601562 0.347656 35.601562 1.398438 C 35.71875 6.867188 34.078125 16.648438 33.140625 17.695312 C 31.621094 17.460938 30.566406 16.765625 29.628906 15.367188 C 28.34375 13.738281 26.9375 6.984375 26.585938 3.144531 C 26.351562 2.445312 26.585938 1.511719 26.46875 0.816406 C 26.351562 -0.582031 25.417969 -0.464844 25.183594 0.816406 C 25.066406 1.511719 24.949219 2.09375 24.949219 2.792969 C 24.128906 9.429688 23.425781 20.023438 28.34375 26.773438 C 31.738281 31.898438 40.867188 34.691406 46.019531 26.078125 Z M 46.019531 26.078125 "/>
<path style=" stroke:none;fill-rule:nonzero;fill:rgb(0%,0%,0%);fill-opacity:1;" d="M 41.335938 33.179688 C 39.113281 32.828125 36.652344 32.710938 35.367188 32.945312 C 35.132812 34.226562 35.132812 35.621094 35.132812 36.4375 C 37.472656 36.554688 38.878906 36.4375 40.984375 36.554688 C 41.21875 35.507812 41.21875 34.109375 41.335938 33.179688 Z M 41.335938 33.179688 "/>
<path style=" stroke:none;fill-rule:nonzero;fill:rgb(0%,0%,0%);fill-opacity:1;" d="M 55.617188 39 C 54.210938 37.949219 52.574219 36.902344 51.636719 36.089844 C 51.050781 36.4375 50.117188 37.71875 49.414062 38.882812 C 50.46875 39.8125 51.519531 40.976562 52.925781 41.910156 C 54.210938 40.746094 54.914062 39.8125 55.617188 39 Z M 55.617188 39 "/>
<path style=" stroke:none;fill-rule:nonzero;fill:rgb(0%,0%,0%);fill-opacity:1;" d="M 57.023438 37.601562 C 57.140625 35.621094 57.140625 33.992188 57.023438 31.898438 C 59.011719 30.382812 65.800781 26.890625 69.078125 25.496094 C 68.261719 20.140625 66.855469 15.714844 66.152344 10.59375 C 65.917969 8.847656 65.097656 8.847656 65.097656 10.246094 C 65.097656 13.503906 64.164062 20.488281 63.695312 22.699219 C 61.351562 23.980469 55.851562 26.773438 52.691406 28.289062 C 52.691406 28.753906 52.222656 33.0625 52.222656 34.691406 C 54.328125 36.203125 55.382812 36.785156 57.023438 37.601562 Z M 57.023438 37.601562 "/>
</g>
</svg>
