<?xml version="1.0" encoding="UTF-8"?>
<svg xmlns="http://www.w3.org/2000/svg" xmlns:xlink="http://www.w3.org/1999/xlink" width="49px" height="99px" viewBox="0 0 49 99" version="1.1">
<g id="surface1">
<path style=" stroke:none;fill-rule:evenodd;fill:rgb(0%,0%,0%);fill-opacity:1;" d="M 6.519531 29.738281 C 8.242188 25.515625 10.507812 21.5625 13.585938 18.777344 C 16.304688 16.351562 19.5625 14.824219 23.640625 14.914062 C 27.988281 14.914062 32.0625 16.621094 35.140625 19.136719 C 38.222656 21.652344 40.484375 25.066406 41.210938 28.570312 L 41.574219 28.480469 C 42.839844 28.210938 44.109375 27.851562 45.105469 27.222656 C 45.828125 26.683594 46.375 26.054688 46.734375 25.246094 C 47.277344 23.898438 47.007812 22.371094 46.191406 21.113281 C 45.558594 20.125 43.746094 20.664062 42.660156 20.753906 L 42.296875 19.765625 C 43.746094 18.867188 44.925781 18.417969 44.652344 16.53125 C 43.929688 14.375 43.65625 13.65625 43.382812 13.746094 C 42.839844 13.925781 40.667969 15.363281 39.941406 15.8125 L 39.128906 15.003906 C 39.398438 14.734375 39.671875 14.464844 39.941406 14.195312 C 41.03125 13.207031 42.117188 12.21875 42.207031 10.691406 C 41.574219 8.714844 40.214844 7.636719 38.675781 6.199219 C 38.492188 6.019531 38.402344 5.929688 38.3125 5.839844 C 38.222656 5.75 38.132812 5.839844 37.679688 6.289062 C 36.863281 7.097656 36.320312 8.535156 35.777344 9.882812 C 35.6875 10.242188 35.503906 10.511719 35.414062 10.871094 L 34.054688 10.78125 L 35.324219 4.492188 C 35.234375 4.042969 35.050781 3.683594 34.691406 3.324219 C 33.785156 2.425781 30.34375 1.257812 29.253906 0.808594 L 28.441406 6.558594 L 27.171875 6.46875 L 26.808594 0.449219 C 24.726562 -0.0898438 22.28125 -0.0898438 20.199219 0 L 20.105469 6.199219 L 18.839844 6.199219 L 18.386719 0.0898438 C 16.394531 0 12.679688 1.347656 11.59375 2.875 L 13.222656 9.34375 L 12.046875 9.613281 L 9.601562 4.3125 C 7.515625 6.019531 6.160156 7.90625 4.980469 10.152344 L 8.332031 14.015625 L 7.515625 14.734375 L 3.804688 12.488281 C 3.441406 12.9375 3.078125 13.476562 2.898438 14.105469 C 2.625 14.824219 2.445312 15.632812 2.535156 16.53125 L 5.070312 19.585938 L 4.167969 20.304688 C 2.808594 19.316406 1.539062 17.519531 1.175781 19.496094 C 1.085938 20.035156 1.175781 20.664062 1.269531 21.292969 L 2.355469 22.820312 L 1.539062 23.539062 L 0.453125 23.089844 C 0.363281 23.269531 0.273438 23.359375 0.179688 23.539062 C -0.453125 25.15625 0.996094 26.59375 2.265625 27.582031 C 2.898438 28.210938 3.714844 28.75 4.527344 29.109375 C 5.164062 29.378906 5.796875 29.648438 6.519531 29.738281 Z M 6.519531 29.738281 "/>
<path style=" stroke:none;fill-rule:evenodd;fill:rgb(0%,0%,0%);fill-opacity:1;" d="M 1.175781 37.640625 L 1.175781 40.066406 C 1.175781 40.246094 1.175781 40.425781 1.175781 40.605469 C 1.175781 41.683594 1.175781 42.492188 2.71875 42.492188 C 3.804688 42.222656 4.621094 42.042969 5.433594 41.863281 C 7.335938 41.414062 9.511719 40.785156 11.230469 39.976562 C 12.136719 39.527344 12.953125 38.988281 14.039062 38.269531 L 14.492188 29.199219 L 14.492188 28.660156 L 32.425781 28.660156 L 32.515625 29.109375 L 34.144531 37.820312 C 34.871094 38.179688 35.6875 38.539062 36.773438 38.808594 C 41.121094 39.976562 44.019531 39.527344 48.457031 39.347656 L 48.003906 35.304688 L 40.304688 32.789062 L 39.941406 32.699219 L 39.941406 32.339844 C 39.671875 29.558594 39.308594 27.132812 37.769531 24.527344 C 36.773438 23 35.503906 21.472656 33.964844 20.304688 C 31.15625 18.058594 27.535156 16.53125 23.640625 16.53125 C 22.007812 16.53125 20.46875 16.800781 19.109375 17.339844 C 12.863281 19.765625 8.242188 27.492188 7.699219 33.058594 C 7.609375 33.867188 7.609375 34.675781 7.699219 35.574219 L 7.699219 36.023438 L 7.246094 36.023438 Z M 1.175781 37.640625 "/>
<path style=" stroke:none;fill-rule:evenodd;fill:rgb(0%,0%,0%);fill-opacity:1;" d="M 2.082031 43.480469 C 1.8125 43.75 1.722656 44.019531 1.722656 44.378906 C 2.355469 45.90625 3.078125 47.523438 3.714844 49.050781 C 4.890625 51.476562 5.34375 53.992188 5.433594 56.597656 L 7.699219 56.507812 L 8.152344 56.507812 L 8.152344 56.867188 L 10.960938 71.6875 C 11.59375 73.753906 12.410156 75.640625 13.40625 77.167969 C 14.402344 78.695312 15.757812 79.863281 17.300781 80.582031 C 18.839844 81.480469 20.558594 82.019531 22.28125 82.199219 C 24.09375 82.46875 25.902344 82.378906 27.898438 82.019531 C 37.585938 78.964844 39.761719 63.964844 40.578125 58.214844 C 40.847656 56.597656 40.9375 55.609375 41.390625 55.519531 C 41.664062 55.429688 42.480469 55.339844 42.480469 55.339844 L 42.570312 55.339844 L 44.378906 55.429688 C 44.109375 50.128906 45.738281 47.792969 47.550781 42.941406 C 48.003906 42.042969 47.640625 41.144531 46.917969 40.425781 C 41.753906 40.695312 37.585938 41.144531 32.878906 38.628906 L 32.605469 38.539062 L 32.605469 38.269531 L 31.699219 29.738281 L 16.03125 29.738281 L 15.214844 38.539062 L 15.214844 38.71875 L 15.035156 38.898438 C 12.226562 41.054688 9.417969 42.042969 5.796875 42.941406 C 4.980469 43.121094 4.074219 43.390625 2.898438 43.570312 L 2.71875 43.570312 C 2.445312 43.480469 2.265625 43.480469 2.082031 43.480469 Z M 2.082031 43.480469 "/>
<path style=" stroke:none;fill-rule:evenodd;fill:rgb(100%,100%,100%);fill-opacity:1;" d="M 25.632812 55.160156 C 25.632812 53.632812 33.601562 50.488281 36.320312 56.058594 C 35.59375 57.046875 34.328125 57.675781 33.058594 58.214844 C 30.160156 59.023438 25.542969 57.585938 25.632812 55.160156 Z M 25.632812 55.160156 "/>
<path style=" stroke:none;fill-rule:evenodd;fill:rgb(100%,100%,100%);fill-opacity:1;" d="M 21.375 55.25 C 21.464844 57.765625 16.847656 59.203125 13.859375 58.304688 C 12.589844 57.765625 11.320312 57.226562 10.597656 56.148438 C 13.40625 50.578125 21.375 53.722656 21.375 55.25 Z M 21.375 55.25 "/>
<path style=" stroke:none;fill-rule:evenodd;fill:rgb(100%,100%,100%);fill-opacity:1;" d="M 16.304688 75.460938 C 18.839844 75.460938 21.375 75.550781 24 75.550781 C 26.71875 75.640625 29.4375 75.640625 32.0625 75.730469 C 27.445312 79.773438 20.289062 80.671875 16.304688 75.460938 Z M 16.304688 75.460938 "/>
<path style=" stroke:none;fill-rule:evenodd;fill:rgb(0%,0%,0%);fill-opacity:1;" d="M 49 56.507812 L 42.839844 56.238281 C 42.660156 56.238281 42.117188 56.417969 41.84375 56.417969 C 41.664062 56.417969 41.933594 57.136719 41.753906 58.304688 C 40.9375 64.234375 38.675781 79.59375 28.347656 82.828125 L 28.257812 82.828125 C 24.273438 83.546875 20.378906 83.1875 16.847656 81.300781 C 15.035156 80.492188 13.675781 79.144531 12.5 77.527344 C 11.414062 75.910156 10.597656 73.933594 9.871094 71.777344 L 7.15625 57.40625 L 0.816406 57.496094 L 1.359375 63.785156 C 2.171875 71.957031 1.085938 88.398438 9.238281 94.328125 C 11.59375 96.035156 14.492188 97.292969 17.480469 98.011719 C 20.558594 98.730469 23.820312 99 26.992188 98.820312 C 32.605469 98.460938 37.949219 96.664062 41.03125 93.609375 C 45.285156 89.296875 45.921875 83.726562 46.644531 78.246094 C 47.640625 71.058594 48.277344 63.785156 49 56.507812 Z M 49 56.507812 "/>
<path style=" stroke:none;fill-rule:evenodd;fill:rgb(100%,100%,100%);fill-opacity:1;" d="M 16.210938 74.652344 C 20.46875 69.621094 27.625 70.878906 31.972656 75.101562 C 29.253906 75.011719 26.539062 74.921875 23.910156 74.921875 C 21.285156 74.832031 18.75 74.742188 16.210938 74.652344 Z M 16.210938 74.652344 "/>
<path style=" stroke:none;fill-rule:evenodd;fill:rgb(100%,100%,100%);fill-opacity:1;" d="M 26.175781 69.441406 C 27.804688 64.054688 31.339844 65.671875 31.066406 69.53125 C 29.4375 69.53125 27.804688 69.441406 26.175781 69.441406 Z M 26.175781 69.441406 "/>
<path style=" stroke:none;fill-rule:evenodd;fill:rgb(100%,100%,100%);fill-opacity:1;" d="M 20.742188 69.441406 C 19.109375 69.441406 17.480469 69.53125 15.851562 69.53125 C 15.578125 65.671875 19.109375 64.054688 20.742188 69.441406 Z M 20.742188 69.441406 "/>
<path style=" stroke:none;fill-rule:evenodd;fill:rgb(100%,100%,100%);fill-opacity:1;" d="M 25.449219 55.160156 L 26.175781 69.441406 L 20.742188 69.441406 L 21.464844 55.160156 Z M 25.449219 55.160156 "/>
<path style=" stroke:none;fill-rule:evenodd;fill:rgb(100%,100%,100%);fill-opacity:1;" d="M 26.355469 46.085938 C 30.160156 46.714844 33.785156 47.792969 37.136719 50.488281 C 37.40625 51.925781 37.585938 53.273438 37.859375 54.710938 C 34.597656 52.195312 30.792969 50.757812 26.355469 50.578125 C 26.355469 49.050781 26.355469 47.613281 26.355469 46.085938 Z M 26.355469 46.085938 "/>
<path style=" stroke:none;fill-rule:evenodd;fill:rgb(100%,100%,100%);fill-opacity:1;" d="M 21.285156 46.175781 C 21.285156 47.613281 21.285156 49.140625 21.285156 50.578125 C 16.9375 50.757812 13.132812 52.195312 9.78125 54.710938 C 10.054688 53.273438 10.234375 51.925781 10.507812 50.488281 C 13.859375 47.882812 17.570312 46.804688 21.285156 46.175781 Z M 21.285156 46.175781 "/>
</g>
</svg>
