<?xml version="1.0" encoding="UTF-8"?>
<svg xmlns="http://www.w3.org/2000/svg" xmlns:xlink="http://www.w3.org/1999/xlink" width="100px" height="100px" viewBox="0 0 100 100" version="1.1">
<g id="surface1">
<path style=" stroke:none;fill-rule:evenodd;fill:rgb(8.235294%,9.019608%,9.411765%);fill-opacity:1;" d="M 73.433594 5.507812 C 78.832031 9.828125 84.234375 14.363281 89.417969 18.898438 C 84.449219 22.570312 79.480469 26.242188 74.730469 29.914062 C 72.136719 31.859375 69.332031 33.800781 66.738281 35.960938 C 66.089844 36.394531 66.089844 36.394531 66.738281 37.257812 C 67.171875 37.6875 67.386719 38.335938 67.820312 38.984375 C 68.464844 40.066406 69.113281 41.359375 69.546875 42.441406 C 78.402344 38.554688 87.257812 34.664062 96.328125 30.992188 C 97.625 37.90625 98.703125 44.816406 100 51.726562 C 90.28125 51.078125 80.5625 50.648438 71.058594 50 C 71.058594 52.160156 70.625 54.75 69.761719 56.695312 C 79.050781 59.503906 88.335938 62.3125 97.625 65.117188 C 93.953125 71.167969 90.710938 77.214844 87.042969 83.261719 C 79.914062 76.351562 72.785156 69.871094 65.875 63.175781 C 65.011719 64.253906 64.148438 65.117188 63.066406 65.984375 C 62.636719 66.414062 61.988281 66.847656 61.339844 67.0625 C 60.691406 67.496094 60.476562 67.496094 60.90625 68.140625 C 62.636719 70.949219 64.578125 73.757812 66.308594 76.566406 C 69.761719 81.75 73.003906 86.933594 76.457031 91.902344 C 69.976562 94.277344 63.28125 96.652344 56.804688 99.027344 C 55.722656 89.308594 54.425781 79.804688 53.347656 70.085938 C 51.1875 70.519531 48.597656 70.519531 46.4375 70.085938 C 45.355469 79.804688 44.058594 89.308594 42.980469 99.027344 C 36.5 96.652344 29.804688 94.058594 23.324219 91.902344 C 26.78125 86.71875 30.023438 81.535156 33.476562 76.566406 C 35.207031 73.757812 37.148438 70.949219 38.875 68.140625 C 39.308594 67.277344 39.09375 67.496094 38.445312 67.0625 C 37.796875 66.628906 37.363281 66.414062 36.71875 65.984375 C 35.636719 65.117188 34.773438 64.253906 33.910156 63.175781 C 26.996094 69.871094 19.871094 76.351562 12.742188 83.046875 C 9.289062 76.996094 5.832031 70.949219 2.375 64.902344 C 11.664062 62.09375 20.949219 59.289062 30.238281 56.480469 C 29.804688 55.183594 29.589844 54.105469 29.375 52.808594 C 29.15625 52.160156 29.15625 51.511719 29.15625 50.648438 C 29.15625 49.785156 29.375 49.566406 28.292969 49.785156 C 25.054688 50 21.597656 50.214844 18.359375 50.433594 C 12.3125 50.863281 6.261719 51.078125 0 51.511719 C 1.078125 44.601562 2.375 37.6875 3.671875 30.777344 C 12.527344 34.449219 21.597656 38.335938 30.453125 42.226562 C 31.101562 40.066406 32.398438 37.90625 33.910156 36.175781 C 26.132812 30.34375 18.359375 24.730469 10.582031 18.683594 C 15.765625 14.148438 21.167969 9.609375 26.566406 5.292969 C 29.375 10.691406 31.964844 16.308594 34.773438 21.707031 C 36.285156 24.730469 37.796875 27.539062 39.308594 30.5625 C 39.742188 31.425781 39.742188 31.210938 40.605469 30.777344 C 41.253906 30.5625 41.902344 30.128906 42.332031 29.914062 C 43.628906 29.480469 44.925781 29.050781 46.21875 28.832031 C 43.84375 19.546875 41.683594 10.257812 39.523438 0.757812 C 46.4375 0.757812 53.5625 0.757812 60.476562 0.757812 C 58.097656 10.257812 55.941406 19.546875 53.78125 29.050781 C 55.074219 29.265625 56.371094 29.699219 57.453125 30.128906 C 58.097656 30.34375 58.746094 30.777344 59.394531 30.992188 C 60.257812 31.425781 60.257812 31.640625 60.476562 30.777344 C 61.988281 27.753906 63.5 24.730469 65.011719 21.921875 C 67.820312 16.308594 70.625 10.90625 73.433594 5.507812 M 49.890625 37.472656 C 58.097656 37.257812 63.5 45.679688 61.554688 53.238281 C 59.394531 61.230469 49.675781 64.253906 42.980469 59.933594 C 33.476562 53.457031 38.011719 37.042969 49.890625 37.472656 "/>
</g>
</svg>
