<?xml version="1.0" encoding="UTF-8"?>
<svg xmlns="http://www.w3.org/2000/svg" xmlns:xlink="http://www.w3.org/1999/xlink" width="35px" height="101px" viewBox="0 0 35 101" version="1.1">
<g id="surface1">
<path style=" stroke:none;fill-rule:nonzero;fill:rgb(0%,0%,0%);fill-opacity:1;" d="M 9.957031 8.085938 C 9.957031 8.085938 9.957031 8.210938 9.957031 8.210938 C 9.957031 8.210938 9.957031 8.332031 9.957031 8.332031 C 9.957031 8.582031 9.957031 8.832031 10.082031 9.078125 C 10.207031 9.703125 10.332031 10.324219 10.578125 10.945312 C 10.578125 11.070312 10.703125 11.320312 10.703125 11.441406 L 24.296875 11.441406 C 24.421875 11.320312 24.421875 11.070312 24.421875 10.945312 C 24.667969 10.324219 24.792969 9.703125 24.917969 9.078125 L 20.554688 9.078125 L 22.800781 6.34375 L 24.917969 8.957031 C 24.917969 8.957031 24.917969 8.957031 24.917969 9.078125 C 24.917969 9.078125 24.917969 9.078125 24.917969 8.957031 C 24.917969 8.957031 24.917969 8.832031 24.917969 8.832031 C 24.917969 8.582031 24.917969 8.457031 24.917969 8.210938 C 24.917969 8.210938 24.917969 8.210938 24.917969 8.085938 C 24.917969 8.085938 24.917969 8.085938 24.917969 7.960938 C 24.917969 7.835938 24.917969 7.585938 24.917969 7.464844 C 24.917969 7.339844 24.917969 7.339844 24.917969 7.214844 C 24.917969 7.089844 24.917969 6.964844 24.917969 6.714844 C 24.917969 6.59375 24.917969 6.59375 24.917969 6.46875 C 24.917969 6.46875 24.917969 6.34375 24.917969 6.34375 C 24.917969 6.34375 24.917969 6.34375 24.917969 6.21875 C 24.917969 6.09375 24.917969 6.09375 24.917969 5.96875 C 24.917969 5.96875 24.917969 5.847656 24.917969 5.847656 C 24.917969 5.722656 24.917969 5.597656 24.792969 5.472656 C 24.667969 5.222656 24.546875 4.976562 24.421875 4.726562 C 24.171875 4.230469 23.796875 3.855469 23.296875 3.484375 C 23.296875 3.484375 23.171875 3.359375 23.171875 3.359375 C 23.046875 3.234375 22.800781 3.109375 22.550781 2.984375 C 22.425781 2.984375 22.425781 2.859375 22.300781 2.859375 C 22.050781 2.738281 21.675781 2.613281 21.429688 2.488281 L 23.296875 0 L 11.953125 0 L 13.820312 2.488281 C 13.449219 2.613281 13.199219 2.738281 12.949219 2.859375 C 12.824219 2.859375 12.824219 2.984375 12.699219 2.984375 C 12.324219 3.234375 12.199219 3.359375 11.953125 3.484375 C 11.953125 3.484375 11.828125 3.605469 11.828125 3.605469 C 11.328125 3.980469 10.953125 4.351562 10.703125 4.851562 C 10.578125 5.101562 10.453125 5.347656 10.332031 5.597656 L 13.449219 5.597656 L 10.953125 8.707031 L 9.957031 7.464844 C 9.957031 7.464844 9.957031 7.464844 9.957031 7.585938 C 9.957031 7.710938 9.957031 7.960938 9.957031 8.085938 Z M 17.4375 9.078125 L 13.820312 9.078125 L 15.816406 6.714844 L 17.5625 8.832031 Z M 19.308594 8.210938 L 19.058594 7.960938 L 20.929688 5.597656 L 21.429688 5.597656 Z M 18.683594 7.464844 L 17.1875 5.597656 L 20.304688 5.597656 Z M 15.191406 5.96875 L 15.316406 6.21875 L 12.949219 9.078125 L 12.574219 9.078125 Z M 22.425781 5.847656 L 19.929688 8.957031 L 19.683594 8.707031 L 22.175781 5.597656 L 22.550781 5.597656 Z M 14.195312 5.597656 L 14.695312 5.597656 L 11.828125 9.078125 L 11.328125 9.078125 Z M 14.195312 5.597656 "/>
<path style=" stroke:none;fill-rule:nonzero;fill:rgb(0%,0%,0%);fill-opacity:1;" d="M 27.664062 93.164062 C 27.164062 91.671875 26.914062 88.3125 26.789062 84.707031 C 27.539062 84.582031 28.285156 84.457031 29.035156 84.332031 C 29.035156 84.332031 31.527344 68.039062 23.796875 52.988281 L 13.449219 52.988281 C 11.828125 55.601562 6.714844 65.550781 10.082031 84.332031 C 10.082031 84.332031 10.703125 84.457031 11.828125 84.707031 C 11.703125 88.3125 11.453125 91.671875 10.953125 93.164062 C 9.582031 97.144531 4.71875 97.269531 6.214844 100.253906 C 7.585938 103.113281 8.335938 97.890625 15.816406 95.898438 C 16.316406 95.777344 16.691406 95.277344 16.566406 94.65625 C 16.316406 93.039062 15.816406 89.433594 16.316406 85.328125 C 18.0625 85.453125 20.054688 85.453125 22.425781 85.328125 C 22.800781 89.433594 22.425781 93.039062 22.175781 94.78125 C 22.050781 95.277344 22.425781 95.898438 22.925781 96.023438 C 30.40625 98.140625 31.152344 103.238281 32.527344 100.378906 C 33.898438 97.269531 29.035156 97.144531 27.664062 93.164062 Z M 27.664062 93.164062 "/>
<path style=" stroke:none;fill-rule:nonzero;fill:rgb(0%,0%,0%);fill-opacity:1;" d="M 10.453125 38.683594 C 8.585938 40.671875 9.082031 44.03125 12.574219 44.28125 C 13.324219 46.269531 13.820312 50.5 13.945312 51.867188 L 23.421875 51.867188 C 23.546875 50.875 23.671875 48.386719 24.046875 46.519531 C 24.296875 44.902344 25.042969 43.90625 25.042969 43.90625 C 28.410156 43.535156 28.285156 39.925781 26.289062 38.1875 C 26.289062 38.1875 26.167969 38.0625 26.042969 37.8125 C 26.167969 37.8125 26.167969 37.8125 26.289062 37.8125 C 30.53125 34.578125 34.769531 28.734375 34.894531 26.992188 C 35.019531 25.375 29.78125 17.910156 28.535156 16.292969 C 28.410156 16.046875 28.285156 15.796875 28.285156 15.546875 C 27.539062 11.320312 25.042969 11.566406 25.042969 11.566406 C 24.667969 11.566406 24.421875 11.566406 24.171875 11.691406 C 23.421875 11.816406 23.046875 12.066406 22.925781 12.4375 L 12.074219 12.4375 C 11.953125 12.066406 11.578125 11.816406 10.828125 11.691406 C 10.578125 11.691406 10.332031 11.566406 9.957031 11.566406 C 9.957031 11.566406 7.460938 11.320312 6.839844 15.546875 C 6.839844 15.796875 6.714844 16.046875 6.589844 16.292969 C 5.34375 17.910156 0.105469 25.375 0.230469 26.992188 C 0.230469 28.609375 5.59375 35.699219 10.453125 38.683594 Z M 12.949219 34.453125 C 12.949219 34.207031 13.074219 33.957031 13.324219 33.957031 C 13.570312 33.957031 13.820312 34.207031 13.820312 34.453125 C 13.820312 34.703125 13.695312 34.953125 13.449219 34.953125 C 13.199219 34.953125 12.949219 34.703125 12.949219 34.453125 Z M 13.449219 35.324219 C 13.695312 35.324219 13.945312 35.449219 13.945312 35.824219 C 13.945312 36.070312 13.820312 36.320312 13.570312 36.320312 C 13.324219 36.320312 13.074219 36.195312 13.074219 35.824219 C 13.074219 35.574219 13.199219 35.324219 13.449219 35.324219 Z M 13.570312 36.570312 C 13.820312 36.570312 14.070312 36.691406 14.070312 36.941406 C 14.070312 37.191406 13.945312 37.441406 13.695312 37.441406 C 13.449219 37.441406 13.199219 37.316406 13.199219 37.066406 C 13.199219 36.816406 13.324219 36.570312 13.570312 36.570312 Z M 13.324219 38.433594 C 13.324219 38.1875 13.449219 37.9375 13.695312 37.9375 C 13.945312 37.9375 14.195312 38.0625 14.195312 38.308594 C 14.195312 38.558594 14.070312 38.808594 13.820312 38.808594 C 13.695312 38.933594 13.449219 38.683594 13.324219 38.433594 Z M 13.570312 39.804688 C 13.570312 39.554688 13.695312 39.304688 13.945312 39.179688 C 14.195312 39.179688 14.445312 39.304688 14.445312 39.554688 C 14.445312 39.804688 14.320312 40.050781 14.070312 40.175781 C 13.820312 40.175781 13.570312 40.050781 13.570312 39.804688 Z M 15.070312 29.105469 C 15.070312 29.105469 15.191406 29.230469 15.191406 29.230469 C 15.070312 29.230469 14.945312 29.355469 14.820312 29.355469 C 14.070312 29.355469 13.449219 28.734375 13.449219 27.988281 C 13.449219 27.613281 13.570312 27.363281 13.695312 27.117188 C 13.945312 26.742188 14.320312 26.617188 14.695312 26.617188 C 14.945312 26.617188 15.070312 26.742188 15.316406 26.742188 C 15.070312 27.363281 14.820312 27.988281 14.695312 28.734375 C 14.820312 28.734375 14.820312 28.734375 15.070312 29.105469 Z M 20.929688 42.414062 C 20.679688 42.289062 20.554688 42.042969 20.554688 41.792969 C 20.554688 41.542969 20.804688 41.421875 21.054688 41.421875 C 21.304688 41.421875 21.429688 41.667969 21.429688 42.042969 C 21.429688 42.414062 21.179688 42.539062 20.929688 42.414062 Z M 21.054688 43.410156 C 20.929688 43.660156 20.679688 43.785156 20.429688 43.660156 C 20.179688 43.535156 20.179688 43.285156 20.179688 43.035156 C 20.304688 42.789062 20.554688 42.664062 20.804688 42.789062 C 21.054688 42.789062 21.179688 43.160156 21.054688 43.410156 Z M 21.179688 41.171875 C 20.929688 41.171875 20.804688 40.921875 20.804688 40.671875 C 20.804688 40.425781 21.054688 40.300781 21.304688 40.300781 C 21.550781 40.300781 21.675781 40.550781 21.675781 40.796875 C 21.675781 41.046875 21.429688 41.296875 21.179688 41.171875 Z M 21.304688 39.925781 C 21.054688 39.925781 20.929688 39.679688 20.929688 39.429688 C 20.929688 39.179688 21.179688 38.933594 21.429688 38.933594 C 21.675781 38.933594 21.925781 39.179688 21.800781 39.429688 C 21.800781 39.804688 21.550781 39.925781 21.304688 39.925781 Z M 21.429688 38.683594 C 21.179688 38.683594 20.929688 38.433594 20.929688 38.1875 C 20.929688 37.9375 21.179688 37.6875 21.429688 37.6875 C 21.675781 37.6875 21.925781 37.9375 21.925781 38.1875 C 21.925781 38.433594 21.675781 38.683594 21.429688 38.683594 Z M 21.429688 37.441406 C 21.179688 37.441406 20.929688 37.191406 20.929688 36.941406 C 20.929688 36.691406 21.179688 36.445312 21.304688 36.445312 C 21.550781 36.445312 21.800781 36.691406 21.800781 36.941406 C 21.925781 37.191406 21.675781 37.316406 21.429688 37.441406 Z M 21.429688 36.070312 C 21.179688 36.070312 20.929688 35.945312 20.929688 35.574219 C 20.929688 35.324219 21.054688 35.078125 21.304688 35.078125 C 21.550781 35.078125 21.800781 35.199219 21.800781 35.574219 C 21.800781 35.824219 21.675781 36.070312 21.429688 36.070312 Z M 21.304688 34.828125 C 21.054688 34.828125 20.804688 34.703125 20.804688 34.453125 C 20.804688 34.207031 20.929688 33.957031 21.179688 33.957031 C 21.429688 33.957031 21.675781 34.082031 21.675781 34.328125 C 21.675781 34.578125 21.550781 34.828125 21.304688 34.828125 Z M 14.945312 36.570312 C 15.191406 36.570312 15.441406 36.691406 15.441406 36.941406 C 15.441406 37.191406 15.316406 37.441406 15.070312 37.441406 C 14.820312 37.441406 14.570312 37.316406 14.570312 37.066406 C 14.445312 36.816406 14.695312 36.570312 14.945312 36.570312 Z M 14.445312 35.824219 C 14.445312 35.574219 14.570312 35.324219 14.820312 35.324219 C 15.070312 35.324219 15.316406 35.449219 15.316406 35.699219 C 15.316406 35.945312 15.191406 36.195312 14.945312 36.195312 C 14.695312 36.320312 14.445312 36.070312 14.445312 35.824219 Z M 15.070312 37.8125 C 15.316406 37.8125 15.566406 37.9375 15.566406 38.1875 C 15.566406 38.433594 15.441406 38.683594 15.191406 38.683594 C 14.945312 38.683594 14.695312 38.558594 14.695312 38.308594 C 14.695312 38.0625 14.820312 37.8125 15.070312 37.8125 Z M 15.191406 39.058594 C 15.441406 39.058594 15.691406 39.179688 15.691406 39.429688 C 15.691406 39.679688 15.566406 39.925781 15.316406 39.925781 C 15.070312 39.925781 14.820312 39.804688 14.820312 39.554688 C 14.820312 39.429688 15.070312 39.179688 15.191406 39.058594 Z M 15.441406 40.300781 C 15.691406 40.300781 15.941406 40.425781 15.941406 40.671875 C 15.941406 40.921875 15.816406 41.171875 15.566406 41.296875 C 15.316406 41.421875 15.070312 41.171875 15.070312 40.921875 C 15.070312 40.671875 15.191406 40.425781 15.441406 40.300781 Z M 15.816406 41.542969 C 16.066406 41.421875 16.316406 41.542969 16.316406 41.792969 C 16.441406 42.042969 16.316406 42.289062 16.066406 42.414062 C 15.816406 42.539062 15.566406 42.414062 15.441406 42.167969 C 15.441406 41.917969 15.566406 41.667969 15.816406 41.542969 Z M 16.191406 42.789062 C 16.441406 42.664062 16.691406 42.789062 16.8125 43.035156 C 16.9375 43.285156 16.8125 43.535156 16.566406 43.660156 C 16.316406 43.785156 16.066406 43.660156 15.941406 43.410156 C 15.816406 43.160156 15.941406 42.914062 16.191406 42.789062 Z M 16.691406 43.90625 C 16.9375 43.785156 17.1875 43.785156 17.3125 44.03125 C 17.4375 44.15625 17.4375 44.53125 17.3125 44.652344 C 17.1875 44.902344 16.8125 44.902344 16.691406 44.652344 C 16.441406 44.40625 16.566406 44.03125 16.691406 43.90625 Z M 15.191406 34.453125 C 15.191406 34.703125 15.070312 34.953125 14.820312 34.953125 C 14.570312 34.953125 14.320312 34.828125 14.320312 34.453125 C 14.320312 34.207031 14.445312 33.957031 14.695312 33.957031 C 14.945312 33.957031 15.191406 34.207031 15.191406 34.453125 Z M 13.820312 41.046875 C 13.820312 40.796875 13.945312 40.550781 14.195312 40.425781 C 14.445312 40.425781 14.695312 40.550781 14.695312 40.796875 C 14.695312 41.046875 14.570312 41.296875 14.320312 41.421875 C 14.070312 41.542969 13.820312 41.296875 13.820312 41.046875 Z M 14.070312 42.414062 C 13.945312 42.167969 14.195312 41.917969 14.445312 41.792969 C 14.695312 41.667969 14.945312 41.917969 14.945312 42.167969 C 15.070312 42.414062 14.820312 42.664062 14.570312 42.789062 C 14.445312 42.789062 14.195312 42.664062 14.070312 42.414062 Z M 14.445312 43.660156 C 14.320312 43.410156 14.445312 43.160156 14.695312 43.035156 C 14.945312 42.914062 15.191406 43.160156 15.316406 43.410156 C 15.441406 43.660156 15.316406 43.90625 15.070312 44.03125 C 14.820312 44.15625 14.570312 43.90625 14.445312 43.660156 Z M 14.820312 45.027344 C 14.695312 44.777344 14.820312 44.53125 15.070312 44.40625 C 15.316406 44.28125 15.566406 44.40625 15.691406 44.652344 C 15.816406 44.902344 15.691406 45.152344 15.441406 45.277344 C 15.191406 45.398438 14.945312 45.277344 14.820312 45.027344 Z M 15.441406 46.269531 C 15.316406 46.023438 15.441406 45.773438 15.566406 45.648438 C 15.816406 45.523438 16.066406 45.648438 16.191406 45.898438 C 16.316406 46.148438 16.191406 46.394531 16.066406 46.519531 C 15.816406 46.519531 15.566406 46.519531 15.441406 46.269531 Z M 16.8125 47.390625 C 16.691406 47.640625 16.316406 47.640625 16.191406 47.390625 C 15.941406 47.140625 16.066406 46.894531 16.191406 46.644531 C 16.441406 46.519531 16.691406 46.519531 16.8125 46.769531 C 17.0625 46.894531 17.0625 47.265625 16.8125 47.390625 Z M 17.3125 48.386719 C 17.0625 48.261719 16.9375 47.886719 17.1875 47.640625 C 17.3125 47.390625 17.5625 47.390625 17.8125 47.515625 C 17.9375 47.640625 18.0625 47.886719 18.0625 48.136719 C 17.8125 48.386719 17.5625 48.511719 17.3125 48.386719 Z M 17.8125 45.523438 C 17.5625 45.398438 17.4375 45.027344 17.5625 44.902344 C 17.6875 44.652344 17.9375 44.652344 18.0625 44.652344 C 18.1875 44.652344 18.308594 44.902344 18.308594 45.152344 C 18.308594 45.398438 18.0625 45.648438 17.8125 45.523438 Z M 18.683594 48.632812 C 18.433594 48.632812 18.1875 48.386719 18.1875 48.136719 C 18.1875 47.886719 18.433594 47.640625 18.683594 47.640625 C 18.933594 47.640625 19.058594 47.761719 19.183594 48.011719 C 19.183594 48.386719 18.933594 48.632812 18.683594 48.632812 Z M 19.183594 45.523438 C 18.933594 45.648438 18.558594 45.398438 18.558594 45.152344 C 18.558594 44.902344 18.683594 44.652344 18.808594 44.53125 C 18.933594 44.40625 19.183594 44.53125 19.308594 44.777344 C 19.558594 45.027344 19.558594 45.398438 19.183594 45.523438 Z M 20.054688 48.261719 C 19.808594 48.386719 19.558594 48.261719 19.433594 48.011719 C 19.308594 47.761719 19.433594 47.515625 19.683594 47.390625 C 19.929688 47.265625 20.179688 47.390625 20.304688 47.515625 C 20.429688 47.886719 20.304688 48.136719 20.054688 48.261719 Z M 19.683594 44.652344 C 19.558594 44.40625 19.558594 44.15625 19.683594 44.03125 C 19.808594 43.90625 20.054688 43.785156 20.304688 43.90625 C 20.554688 44.03125 20.554688 44.40625 20.429688 44.652344 C 20.179688 44.777344 19.929688 44.777344 19.683594 44.652344 Z M 21.179688 47.390625 C 20.929688 47.640625 20.679688 47.640625 20.554688 47.390625 C 20.429688 47.140625 20.429688 46.894531 20.554688 46.769531 C 20.679688 46.644531 20.929688 46.519531 21.179688 46.769531 C 21.304688 46.894531 21.304688 47.140625 21.179688 47.390625 Z M 21.925781 46.269531 C 21.800781 46.519531 21.550781 46.644531 21.304688 46.519531 C 21.054688 46.394531 21.054688 46.148438 21.179688 45.898438 C 21.304688 45.648438 21.550781 45.523438 21.800781 45.648438 C 21.925781 45.648438 22.050781 46.023438 21.925781 46.269531 Z M 22.425781 44.902344 C 22.300781 45.152344 22.050781 45.277344 21.800781 45.152344 C 21.550781 45.027344 21.429688 44.777344 21.550781 44.53125 C 21.675781 44.28125 21.925781 44.15625 22.175781 44.15625 C 22.425781 44.40625 22.550781 44.652344 22.425781 44.902344 Z M 22.800781 43.660156 C 22.800781 43.90625 22.550781 44.15625 22.300781 44.03125 C 22.050781 43.90625 21.925781 43.660156 21.925781 43.410156 C 21.925781 43.160156 22.175781 43.035156 22.425781 43.035156 C 22.675781 43.035156 22.800781 43.285156 22.800781 43.660156 Z M 22.675781 36.070312 C 22.425781 36.070312 22.175781 35.945312 22.175781 35.574219 C 22.175781 35.324219 22.300781 35.078125 22.550781 35.078125 C 22.800781 35.078125 23.046875 35.199219 23.046875 35.574219 C 23.046875 35.824219 22.925781 36.070312 22.675781 36.070312 Z M 23.171875 36.941406 C 23.171875 37.191406 23.046875 37.441406 22.800781 37.441406 C 22.550781 37.441406 22.300781 37.191406 22.300781 36.941406 C 22.300781 36.691406 22.425781 36.445312 22.675781 36.445312 C 22.925781 36.445312 23.171875 36.570312 23.171875 36.941406 Z M 22.550781 34.828125 C 22.300781 34.828125 22.050781 34.703125 22.050781 34.453125 C 22.050781 34.207031 22.175781 33.957031 22.425781 33.957031 C 22.675781 33.957031 22.925781 34.082031 22.925781 34.328125 C 22.925781 34.578125 22.800781 34.828125 22.550781 34.828125 Z M 22.425781 42.664062 C 22.175781 42.664062 22.050781 42.414062 22.050781 42.167969 C 22.050781 41.917969 22.300781 41.667969 22.550781 41.792969 C 22.800781 41.792969 22.925781 42.042969 22.925781 42.289062 C 22.925781 42.539062 22.675781 42.789062 22.425781 42.664062 Z M 22.675781 41.421875 C 22.425781 41.421875 22.300781 41.171875 22.300781 40.921875 C 22.300781 40.671875 22.550781 40.425781 22.800781 40.425781 C 23.046875 40.425781 23.296875 40.671875 23.171875 40.921875 C 23.046875 41.171875 22.925781 41.421875 22.675781 41.421875 Z M 22.675781 40.050781 C 22.425781 40.050781 22.175781 39.804688 22.175781 39.554688 C 22.175781 39.304688 22.425781 39.058594 22.675781 39.058594 C 22.925781 39.058594 23.171875 39.304688 23.171875 39.554688 C 23.171875 39.804688 22.925781 40.050781 22.675781 40.050781 Z M 22.675781 38.683594 C 22.425781 38.683594 22.175781 38.433594 22.175781 38.1875 C 22.175781 37.9375 22.425781 37.6875 22.675781 37.6875 C 22.925781 37.6875 23.171875 37.9375 23.171875 38.1875 C 23.171875 38.558594 22.925781 38.683594 22.675781 38.683594 Z M 4.84375 27.863281 C 4.59375 27.738281 4.34375 27.363281 4.46875 27.117188 C 4.84375 25.25 6.089844 18.65625 8.710938 16.917969 C 8.832031 16.792969 10.828125 15.300781 11.703125 13.929688 C 13.074219 16.667969 14.695312 18.65625 14.695312 18.65625 L 20.179688 18.65625 C 20.179688 18.65625 21.925781 16.542969 23.296875 13.808594 C 24.171875 15.175781 26.167969 16.792969 26.289062 16.917969 C 28.910156 18.78125 30.28125 25.25 30.53125 27.117188 C 30.53125 27.488281 30.40625 27.738281 30.15625 27.863281 C 26.414062 30.101562 24.667969 31.71875 23.046875 33.582031 C 23.046875 33.582031 22.925781 33.707031 22.800781 33.707031 C 22.300781 33.582031 21.800781 33.460938 21.304688 33.460938 C 20.929688 33.210938 20.429688 32.589844 20.054688 31.964844 C 20.554688 32.089844 20.929688 32.214844 21.429688 32.214844 C 23.546875 32.464844 25.042969 26.742188 24.421875 23.632812 C 24.171875 22.636719 23.796875 21.765625 23.171875 21.019531 C 19.558594 21.394531 17.0625 23.261719 15.691406 25.871094 C 15.441406 25.746094 15.070312 25.625 14.820312 25.625 C 14.320312 25.625 13.820312 25.871094 13.449219 26.121094 C 13.074219 26.492188 12.699219 27.117188 12.699219 27.613281 C 12.699219 28.734375 13.570312 29.726562 14.820312 29.726562 C 15.191406 29.726562 15.441406 29.601562 15.816406 29.480469 C 15.941406 29.601562 16.066406 29.726562 16.316406 29.851562 C 16.316406 31.21875 15.941406 32.339844 14.695312 33.210938 C 14.320312 33.335938 14.070312 33.335938 13.695312 33.460938 C 11.703125 32.339844 8.585938 30.101562 4.84375 27.863281 Z M 4.84375 27.863281 "/>
<path style=" stroke:none;fill-rule:nonzero;fill:rgb(0%,0%,0%);fill-opacity:1;" d="M 20.304688 19.15625 C 17.5625 18.160156 14.320312 19.03125 13.324219 22.265625 C 12.949219 23.261719 12.949219 24.503906 13.324219 25.625 C 14.195312 22.511719 16.566406 19.902344 20.304688 19.15625 Z M 20.304688 19.15625 "/>
</g>
</svg>
