<?xml version="1.0" encoding="UTF-8"?>
<svg xmlns="http://www.w3.org/2000/svg" xmlns:xlink="http://www.w3.org/1999/xlink" width="100px" height="76px" viewBox="0 0 100 76" version="1.1">
<g id="surface1">
<path style=" stroke:none;fill-rule:nonzero;fill:rgb(0%,0%,0%);fill-opacity:1;" d="M 82.351562 70.996094 C 81.425781 70.644531 80.847656 69.597656 80.613281 68.550781 C 80.5 67.503906 80.152344 55.050781 80.5 52.839844 C 80.613281 51.792969 80.847656 50.628906 80.960938 49.582031 C 79.226562 51.90625 77.140625 54.121094 74.941406 56.214844 C 74.363281 63.429688 74.480469 66.339844 74.597656 67.851562 C 74.710938 69.132812 76.101562 69.367188 76.5625 69.480469 C 78.183594 69.949219 80.265625 70.296875 81.078125 71.808594 C 81.65625 72.859375 80.960938 74.253906 79.921875 74.953125 C 79.6875 75.070312 79.574219 75.183594 79.339844 75.183594 C 79.804688 75.300781 80.382812 75.417969 80.847656 75.417969 C 82.121094 75.535156 83.507812 75.652344 84.664062 74.953125 C 85.824219 74.253906 86.285156 72.390625 85.128906 71.695312 C 84.550781 70.996094 83.390625 71.34375 82.351562 70.996094 Z M 82.351562 70.996094 "/>
<path style=" stroke:none;fill-rule:nonzero;fill:rgb(0%,0%,0%);fill-opacity:1;" d="M 73.324219 69.597656 C 73.207031 69.480469 73.089844 69.367188 72.976562 69.25 C 72.164062 68.203125 72.28125 66.6875 72.398438 65.410156 C 72.511719 64.363281 72.628906 63.3125 72.628906 62.265625 C 72.859375 59.355469 72.976562 56.445312 72.976562 53.539062 C 72.398438 49.929688 70.777344 46.789062 68.460938 43.878906 C 66.609375 41.433594 64.292969 39.105469 62.09375 37.011719 C 58.96875 33.984375 55.730469 30.957031 53.414062 27.351562 C 46.46875 27.816406 37.90625 28.28125 33.160156 28.863281 C 30.265625 29.210938 27.140625 29.5625 24.710938 31.191406 C 24.015625 31.773438 23.320312 32.355469 22.742188 33.054688 C 19.5 33.054688 16.261719 35.03125 14.640625 38.058594 C 13.484375 40.269531 13.019531 42.828125 12.789062 45.390625 C 12.554688 47.949219 12.902344 50.511719 12.554688 53.070312 C 12.09375 57.027344 10.9375 59.472656 9.546875 61.21875 C 9.546875 61.21875 9.429688 61.21875 9.429688 61.101562 C 8.621094 60.753906 7.695312 60.753906 6.886719 60.984375 C 4.6875 61.566406 3.066406 63.429688 2.023438 65.410156 C 0.980469 67.386719 0.519531 69.597656 -0.0585938 71.808594 C 3.179688 70.761719 6.421875 69.714844 8.851562 67.386719 C 9.777344 66.574219 10.589844 65.410156 10.820312 64.246094 C 10.9375 63.894531 10.820312 63.429688 10.820312 63.082031 C 12.789062 61.21875 14.0625 58.425781 14.523438 55.632812 C 15.335938 51.792969 14.988281 47.71875 15.796875 43.878906 C 16.492188 40.851562 18.226562 37.824219 20.773438 36.546875 C 20.3125 38.058594 19.964844 39.6875 19.964844 41.199219 C 19.847656 45.042969 20.660156 48.765625 21.007812 52.488281 C 21.238281 54.46875 21.121094 56.5625 19.847656 57.960938 C 19.269531 58.660156 18.460938 59.007812 17.878906 59.707031 C 16.839844 60.871094 16.839844 62.617188 16.722656 64.128906 C 16.722656 67.503906 16.839844 71.34375 19.269531 73.789062 C 21.46875 76 24.941406 76.117188 28.183594 76 C 29.6875 76 31.191406 75.882812 32.347656 74.71875 C 32.464844 74.601562 32.582031 74.488281 32.695312 74.371094 C 35.011719 75.183594 37.558594 75.300781 39.757812 74.488281 C 40.566406 74.136719 41.492188 73.671875 41.609375 72.507812 C 41.609375 71.808594 41.261719 71.113281 40.683594 70.644531 C 39.523438 69.597656 37.90625 69.597656 36.515625 69.25 C 34.894531 68.785156 33.390625 67.851562 32.582031 66.457031 C 31.886719 65.410156 31.65625 64.246094 31.769531 62.964844 C 31.886719 62.265625 32.464844 61.683594 33.160156 61.453125 C 37.09375 60.402344 40.566406 58.078125 43.113281 54.933594 C 43.34375 54.703125 43.460938 54.46875 43.691406 54.234375 C 41.609375 54.003906 39.410156 53.539062 37.671875 52.722656 C 35.589844 57.378906 31.074219 60.636719 26.097656 62.382812 C 25.402344 65.410156 26.214844 68.785156 28.183594 71.226562 C 27.601562 71.226562 27.140625 71.226562 26.5625 70.996094 C 25.058594 70.414062 24.476562 68.550781 24.363281 66.921875 C 24.363281 66.222656 24.246094 65.410156 24.132812 64.59375 C 24.015625 63.199219 24.710938 61.917969 25.984375 61.21875 C 26.214844 61.101562 26.332031 60.984375 26.5625 60.871094 C 31.539062 58.308594 35.125 55.632812 36.746094 50.164062 C 38.484375 51.210938 41.722656 51.90625 45.3125 52.257812 C 50.058594 52.839844 55.265625 52.722656 57.929688 52.140625 C 58.390625 52.023438 58.738281 51.90625 59.203125 51.675781 C 59.433594 52.023438 59.550781 52.488281 59.894531 52.839844 C 61.054688 54.351562 62.789062 55.285156 63.945312 56.796875 C 66.492188 59.707031 66.378906 64.011719 66.378906 67.96875 C 66.378906 70.414062 66.609375 73.089844 68.34375 74.601562 C 69.964844 75.882812 72.164062 75.882812 74.25 75.882812 C 75.289062 75.882812 76.332031 75.765625 77.257812 75.417969 C 77.488281 75.300781 77.605469 75.300781 77.835938 75.183594 C 78.878906 74.601562 79.574219 73.207031 78.992188 72.042969 C 78.066406 69.949219 74.941406 70.996094 73.324219 69.597656 Z M 73.324219 69.597656 "/>
<path style=" stroke:none;fill-rule:nonzero;fill:rgb(0%,0%,0%);fill-opacity:1;" d="M 99.597656 19.203125 C 99.25 18.621094 98.4375 18.273438 97.628906 18.390625 C 97.398438 18.390625 97.167969 18.390625 96.933594 18.503906 C 96.355469 17.808594 95.660156 17.226562 94.96875 16.644531 C 91.496094 13.964844 88.023438 11.171875 84.550781 8.496094 C 84.433594 8.148438 84.316406 8.148438 84.203125 7.914062 C 84.203125 7.914062 83.390625 8.03125 82.929688 8.148438 C 74.132812 8.613281 70.660156 20.019531 75.175781 26.652344 C 76.796875 28.980469 78.53125 31.191406 80.035156 33.519531 C 80.152344 33.171875 78.992188 36.777344 78.992188 36.777344 C 77.257812 31.539062 71.933594 27.933594 70.890625 22.578125 C 70.660156 21.296875 70.660156 19.902344 70.890625 18.621094 C 70.890625 18.621094 70.777344 18.621094 70.777344 18.621094 C 69.851562 18.738281 68.925781 18.273438 68.34375 17.574219 C 67.1875 16.410156 66.609375 14.664062 67.074219 13.035156 C 67.535156 11.523438 69.273438 10.359375 70.890625 10.589844 C 71.933594 10.824219 72.742188 11.40625 73.4375 12.105469 C 73.785156 11.636719 74.015625 11.058594 74.363281 10.589844 C 75.984375 8.261719 78.414062 5.820312 81.191406 6.285156 C 81.539062 6.402344 82.234375 6.402344 82.582031 6.632812 C 81.078125 4.65625 79.574219 3.140625 77.722656 2.09375 C 72.050781 -1.164062 64.527344 -0.816406 59.203125 3.140625 C 53.992188 7.097656 51.332031 14.199219 52.835938 20.601562 C 53.414062 22.929688 54.457031 25.140625 55.730469 27.117188 C 58.042969 30.726562 61.285156 33.75 64.410156 36.777344 C 66.609375 38.871094 68.925781 41.199219 70.777344 43.644531 C 72.976562 46.554688 74.710938 49.695312 75.289062 53.304688 C 77.953125 49.8125 80.5 46.207031 82.582031 42.363281 C 83.046875 41.550781 83.507812 40.617188 83.855469 39.6875 C 85.476562 36.078125 86.515625 32.121094 86.515625 28.164062 C 87.445312 27.816406 88.371094 27.699219 89.527344 27.699219 C 91.261719 27.699219 93.925781 28.746094 95.429688 27.351562 C 96.703125 26.1875 97.976562 23.742188 98.324219 21.296875 C 98.785156 21.183594 100.292969 20.25 99.597656 19.203125 Z M 84.433594 13.382812 L 87.789062 13.382812 C 87.789062 14.316406 87.097656 15.015625 86.171875 15.015625 C 85.128906 15.015625 84.433594 14.316406 84.433594 13.382812 Z M 84.433594 13.382812 "/>
</g>
</svg>
