<?xml version="1.0" encoding="UTF-8"?>
<svg xmlns="http://www.w3.org/2000/svg" xmlns:xlink="http://www.w3.org/1999/xlink" width="65px" height="99px" viewBox="0 0 65 99" version="1.1">
<g id="surface1">
<path style=" stroke:none;fill-rule:nonzero;fill:rgb(0%,0%,0%);fill-opacity:1;" d="M 21.003906 99 L 43.996094 99 C 43.996094 99 53.761719 83.644531 59.921875 65.75 L 5.078125 65.75 C 11.238281 83.644531 21.003906 99 21.003906 99 Z M 21.003906 99 "/>
<path style=" stroke:none;fill-rule:nonzero;fill:rgb(0%,0%,0%);fill-opacity:1;" d="M 62.175781 58.445312 L 2.824219 58.445312 C 3.125 59.339844 3.277344 60.234375 3.578125 61.128906 L 61.273438 61.128906 C 61.722656 60.234375 61.875 59.339844 62.175781 58.445312 Z M 62.175781 58.445312 "/>
<path style=" stroke:none;fill-rule:nonzero;fill:rgb(0%,0%,0%);fill-opacity:1;" d="M 64.730469 41 C 64.730469 37.871094 64.429688 34.886719 63.828125 31.90625 L 63.828125 31.757812 C 63.675781 31.160156 63.527344 30.414062 63.226562 29.820312 L 54.664062 29.820312 L 53.761719 31.308594 L 42.941406 47.710938 L 41.890625 46.21875 L 52.707031 29.820312 L 49.554688 29.820312 L 40.386719 43.835938 L 39.335938 42.34375 L 47.601562 29.820312 L 44.445312 29.820312 L 37.832031 39.808594 L 31.074219 29.820312 L 20.40625 29.820312 L 8.382812 48.15625 L 6.429688 48.15625 L 18.453125 29.820312 L 15.296875 29.820312 L 4.476562 46.21875 L 0.269531 39.957031 C 0.269531 40.257812 0.269531 40.703125 0.269531 41 C 0.269531 41 0.269531 41 0.269531 41.152344 C 0.269531 41.449219 0.269531 41.746094 0.269531 42.046875 C 0.269531 42.046875 0.269531 42.195312 0.269531 42.195312 C 0.269531 42.492188 0.269531 42.941406 0.269531 43.238281 C 0.269531 43.089844 0.269531 43.238281 0.269531 43.238281 C 0.269531 43.386719 0.269531 43.535156 0.269531 43.683594 C 0.269531 43.835938 0.269531 43.835938 0.269531 43.984375 C 0.269531 44.429688 0.269531 45.027344 0.421875 45.472656 C 0.421875 45.625 0.421875 45.625 0.421875 45.773438 C 0.421875 45.921875 0.421875 45.921875 0.421875 46.070312 C 0.421875 46.667969 0.570312 47.414062 0.722656 48.007812 C 1.023438 49.796875 1.324219 51.585938 1.625 53.375 L 63.226562 53.375 C 63.527344 51.585938 63.976562 49.796875 64.128906 48.007812 L 45.648438 48.007812 L 55.113281 33.546875 L 64.128906 47.261719 C 64.128906 47.414062 64.128906 47.710938 64.128906 47.859375 C 64.128906 47.710938 64.128906 47.414062 64.128906 47.261719 C 64.128906 47.113281 64.128906 46.816406 64.128906 46.667969 C 64.128906 46.367188 64.277344 45.921875 64.277344 45.625 C 64.277344 45.472656 64.277344 45.472656 64.277344 45.324219 C 64.277344 44.578125 64.429688 43.835938 64.429688 43.238281 C 64.429688 43.238281 64.429688 43.089844 64.429688 43.089844 C 64.730469 42.34375 64.730469 41.597656 64.730469 41 Z M 11.539062 48.15625 L 22.507812 31.609375 L 23.410156 32.949219 L 13.34375 48.15625 Z M 16.648438 48.15625 L 25.0625 35.484375 L 32.875 47.261719 L 32.273438 48.15625 Z M 16.648438 48.15625 "/>
<path style=" stroke:none;fill-rule:nonzero;fill:rgb(0%,0%,0%);fill-opacity:1;" d="M 60.671875 24.003906 C 59.921875 22.8125 59.167969 21.617188 58.117188 20.425781 C 58.117188 20.425781 58.117188 20.425781 57.96875 20.277344 C 57.515625 19.828125 57.066406 19.382812 56.617188 18.785156 C 56.617188 18.785156 56.464844 18.636719 56.464844 18.636719 C 55.414062 17.59375 54.363281 16.699219 53.007812 15.953125 C 52.859375 15.804688 52.707031 15.804688 52.558594 15.65625 C 52.109375 15.355469 51.507812 15.058594 51.054688 14.761719 C 50.90625 14.613281 50.753906 14.613281 50.605469 14.460938 C 49.855469 14.164062 49.101562 13.867188 48.351562 13.417969 L 56.316406 0 L 8.683594 0 L 16.648438 13.417969 C 15.898438 13.71875 15.144531 14.164062 14.542969 14.460938 C 14.246094 14.613281 14.09375 14.761719 13.945312 14.761719 C 13.34375 15.058594 12.890625 15.355469 12.441406 15.65625 C 12.292969 15.804688 12.140625 15.804688 11.992188 15.953125 C 10.789062 16.847656 9.585938 17.742188 8.535156 18.636719 C 8.535156 18.636719 8.382812 18.785156 8.382812 18.785156 C 7.933594 19.234375 7.484375 19.679688 7.03125 20.277344 C 7.03125 20.277344 7.03125 20.277344 6.882812 20.425781 C 5.980469 21.46875 5.078125 22.664062 4.328125 24.003906 C 4.027344 24.75 3.578125 25.347656 3.277344 25.941406 L 61.574219 25.941406 C 61.421875 25.347656 60.972656 24.75 60.671875 24.003906 Z M 60.671875 24.003906 "/>
</g>
</svg>
