<?xml version="1.0" encoding="UTF-8"?>
<svg xmlns="http://www.w3.org/2000/svg" xmlns:xlink="http://www.w3.org/1999/xlink" width="35px" height="98px" viewBox="0 0 35 98" version="1.1">
<g id="surface1">
<path style=" stroke:none;fill-rule:evenodd;fill:rgb(25.490198%,13.725491%,7.058824%);fill-opacity:1;" d="M 33.714844 0 C 31.117188 2.757812 29.054688 8.269531 27.710938 11.828125 C 27.265625 12.894531 26.996094 13.515625 26.636719 14.230469 C 25.921875 15.296875 24.84375 15.5625 23.589844 15.652344 C 22.335938 15.652344 21.082031 15.652344 19.917969 15.5625 C 19.917969 -1.691406 16.066406 -1.511719 16.066406 15.207031 C 15.886719 16.273438 12.574219 16.097656 11.585938 16.183594 C 10.066406 16.183594 8.988281 15.382812 8.183594 14.140625 C 5.675781 10.136719 3.347656 6.046875 1.015625 1.867188 C 0.75 1.332031 0.390625 0.890625 0.210938 1.511719 C 0.210938 6.402344 0.121094 11.207031 0.300781 16.183594 C 0.300781 17.074219 0.570312 17.785156 1.105469 18.320312 C 1.644531 19.121094 2.183594 19.832031 2.71875 20.632812 C 2.898438 21.34375 2.898438 21.964844 2.808594 22.5 C 2.628906 23.386719 1.644531 24.8125 1.285156 26.054688 C 0.480469 28.902344 0.839844 30.949219 0.75 33.257812 C 1.015625 40.285156 2.898438 46.242188 4.867188 52.023438 C 6.035156 56.648438 7.289062 61.273438 8.453125 65.898438 C 8.898438 70.433594 7.46875 72.566406 5.855469 74.433594 C 3.257812 76.835938 2.539062 79.324219 3.257812 81.816406 C 3.972656 84.304688 6.210938 87.773438 8.453125 90.617188 L 8.632812 90.796875 C 8.8125 90.351562 9.078125 89.820312 9.347656 89.285156 C 10.421875 87.238281 11.410156 85.640625 11.585938 85.726562 C 11.765625 85.816406 11.140625 87.59375 10.066406 89.640625 C 9.707031 90.351562 9.4375 90.972656 9.078125 91.507812 C 10.066406 92.753906 11.050781 93.910156 12.125 94.796875 C 12.304688 94 12.664062 93.019531 13.019531 92.042969 C 14.007812 89.195312 14.992188 86.972656 15.261719 87.0625 C 15.527344 87.152344 14.992188 89.550781 14.007812 92.308594 C 13.648438 93.464844 13.199219 94.53125 12.84375 95.421875 C 16.605469 98.621094 20.546875 99.511719 25.203125 94.53125 C 24.84375 93.730469 24.488281 92.664062 24.128906 91.597656 C 23.144531 88.75 22.605469 86.4375 22.875 86.351562 C 23.144531 86.261719 24.128906 88.484375 25.113281 91.332031 C 25.382812 92.21875 25.652344 93.109375 25.921875 93.820312 C 26.011719 93.640625 26.1875 93.554688 26.277344 93.375 C 27.085938 92.128906 27.980469 90.886719 28.789062 89.550781 C 28.519531 89.105469 28.25 88.574219 27.980469 88.039062 C 26.90625 85.996094 26.277344 84.214844 26.457031 84.128906 C 26.636719 84.039062 27.710938 85.640625 28.699219 87.683594 C 28.875 88.039062 29.054688 88.394531 29.234375 88.75 C 30.308594 86.882812 31.296875 84.925781 31.742188 82.972656 C 32.371094 80.304688 32.28125 79.058594 30.9375 76.746094 C 30.21875 75.5 29.324219 74.257812 28.339844 73.101562 C 25.472656 66.609375 27.085938 60.382812 29.59375 54.15625 C 32.101562 47.488281 34.25 40.640625 34.609375 32.28125 C 34.429688 28.8125 33.804688 25.34375 32.011719 22.320312 C 31.386719 21.078125 31.027344 19.832031 31.921875 18.410156 C 33.625 16.808594 34.25 16.097656 34.25 13.871094 C 34.160156 9.425781 33.984375 5.070312 33.804688 0.710938 C 33.984375 0.179688 33.894531 0 33.714844 0 Z M 33.714844 0 "/>
<path style=" stroke:none;fill-rule:evenodd;fill:rgb(100%,100%,100%);fill-opacity:1;" d="M 28.25 34.058594 C 28.25 34.058594 28.699219 33.4375 28.789062 33.882812 C 28.875 34.414062 28.609375 35.570312 28.429688 35.925781 C 28.25 36.28125 27.265625 37.351562 27.085938 37.617188 C 26.90625 37.882812 26.636719 37.972656 26.726562 37.617188 C 26.816406 36.460938 27.53125 35.039062 28.25 34.058594 Z M 28.25 34.058594 "/>
<path style=" stroke:none;fill-rule:evenodd;fill:rgb(100%,100%,100%);fill-opacity:1;" d="M 7.109375 33.527344 C 7.109375 33.527344 7.109375 33.257812 7.378906 33.527344 C 7.644531 33.792969 8.273438 34.59375 8.542969 35.128906 C 8.8125 35.660156 9.167969 36.105469 9.347656 36.640625 C 9.527344 37.082031 9.4375 37.527344 9.347656 37.617188 C 9.257812 37.792969 8.722656 37.707031 8.363281 37.351562 C 8.09375 36.996094 7.46875 36.105469 7.289062 35.304688 C 7.199219 34.503906 7.109375 33.527344 7.109375 33.527344 Z M 7.109375 33.527344 "/>
<path style=" stroke:none;fill-rule:evenodd;fill:rgb(100%,100%,100%);fill-opacity:1;" d="M 25.742188 72.210938 C 26.996094 73.457031 26.90625 74.167969 26.90625 74.699219 C 26.90625 75.144531 26.1875 75.769531 25.832031 74.96875 C 25.472656 74.078125 25.742188 72.210938 25.742188 72.210938 Z M 25.742188 72.210938 "/>
<path style=" stroke:none;fill-rule:evenodd;fill:rgb(100%,100%,100%);fill-opacity:1;" d="M 11.765625 72.65625 C 11.765625 72.65625 12.035156 74.523438 11.675781 75.324219 C 11.320312 76.210938 10.601562 75.589844 10.601562 75.054688 C 10.601562 74.699219 10.511719 73.898438 11.765625 72.65625 Z M 11.765625 72.65625 "/>
<path style=" stroke:none;fill-rule:evenodd;fill:rgb(100%,100%,100%);fill-opacity:1;" d="M 33.625 1.332031 C 33.894531 5.425781 34.074219 9.25 34.160156 13.339844 C 34.160156 13.605469 34.339844 14.316406 33.804688 14.316406 C 31.207031 14.585938 29.863281 11.648438 30.21875 9.425781 C 30.578125 7.292969 32.28125 2.933594 33.625 1.332031 Z M 33.625 1.332031 "/>
<path style=" stroke:none;fill-rule:evenodd;fill:rgb(100%,100%,100%);fill-opacity:1;" d="M 0.570312 3.558594 C 2.003906 5.070312 3.972656 9.335938 4.421875 11.382812 C 4.867188 13.605469 3.703125 16.628906 1.105469 16.453125 C 0.660156 16.453125 0.75 15.742188 0.75 15.472656 C 0.570312 11.472656 0.570312 7.648438 0.570312 3.558594 Z M 0.570312 3.558594 "/>
</g>
</svg>
