<?xml version="1.0" encoding="UTF-8"?>
<svg xmlns="http://www.w3.org/2000/svg" xmlns:xlink="http://www.w3.org/1999/xlink" width="100px" height="100px" viewBox="0 0 100 100" version="1.1">
<g id="surface1">
<path style=" stroke:none;fill-rule:evenodd;fill:rgb(8.235294%,9.019608%,9.411765%);fill-opacity:1;" d="M 1.871094 0 C 1.621094 8.230469 1.371094 16.210938 1.121094 24.4375 C 1.121094 28.679688 0.871094 33.167969 0.871094 37.40625 C 0.871094 38.15625 0.625 42.894531 1.121094 43.140625 C 3.117188 43.640625 5.113281 44.140625 7.105469 44.886719 C 8.601562 45.386719 10.847656 46.132812 11.347656 47.878906 C 12.09375 50.125 9.601562 50.625 8.105469 50.871094 C 6.109375 51.121094 4.113281 51.371094 1.871094 51.371094 C 0.125 51.371094 0.625 51.871094 0.625 53.367188 C 0.625 54.363281 0.625 55.609375 0.625 56.609375 C 0.625 65.085938 0.625 73.566406 0.625 82.292969 C 0.625 86.285156 0.625 90.273438 0.625 94.265625 C 0.625 95.261719 0.625 96.011719 0.625 97.007812 C 0.625 98.003906 2.367188 97.507812 3.117188 97.507812 C 5.113281 97.507812 7.105469 97.507812 9.101562 97.507812 C 17.332031 97.507812 25.5625 97.507812 33.789062 97.753906 C 31.046875 89.777344 28.304688 81.796875 26.558594 73.566406 C 26.308594 71.820312 23.566406 63.339844 26.558594 63.09375 C 28.054688 63.09375 29.300781 65.835938 30.050781 67.082031 C 31.046875 68.828125 32.292969 70.574219 33.292969 72.070312 C 37.78125 79.300781 41.273438 87.03125 44.015625 94.761719 C 44.265625 95.761719 44.761719 96.757812 45.011719 97.753906 C 45.261719 98.253906 47.257812 98.003906 47.753906 98.003906 C 49.75 98.003906 51.496094 98.003906 53.492188 98.253906 C 53.988281 98.253906 55.734375 98.503906 56.234375 98.253906 C 56.734375 98.003906 57.230469 96.257812 57.730469 95.511719 C 58.726562 93.515625 59.726562 91.519531 60.722656 89.277344 C 62.46875 85.535156 64.464844 81.796875 66.957031 78.304688 C 68.203125 76.558594 69.453125 75.0625 70.699219 73.566406 C 71.695312 72.320312 73.191406 70.324219 74.6875 69.574219 C 75.933594 69.078125 77.183594 70.074219 77.183594 71.320312 C 77.183594 72.816406 75.933594 75.0625 75.4375 76.808594 C 73.941406 80.546875 71.945312 84.289062 69.949219 88.03125 C 67.957031 91.519531 65.960938 95.011719 63.964844 98.753906 C 75.4375 99.003906 86.90625 99.75 98.378906 100.25 C 98.628906 91.769531 98.378906 83.542969 98.628906 75.0625 C 98.628906 70.574219 98.628906 66.335938 98.878906 61.84375 C 98.878906 59.851562 98.878906 57.605469 98.878906 55.609375 C 98.878906 55.363281 94.140625 54.113281 93.640625 53.867188 C 90.398438 52.617188 86.410156 49.375 90.398438 46.382812 C 91.894531 45.386719 93.640625 44.636719 95.386719 44.140625 C 96.382812 43.890625 97.382812 43.640625 98.378906 43.140625 C 99.625 42.644531 99.128906 41.644531 99.128906 40.398438 C 99.128906 31.921875 99.128906 23.191406 99.375 14.714844 C 99.375 10.722656 99.375 6.734375 99.375 2.992188 C 99.375 1.746094 99.625 1.996094 98.378906 1.746094 C 97.382812 1.746094 96.382812 1.746094 95.136719 1.746094 C 93.140625 1.746094 91.398438 1.746094 89.402344 1.496094 C 81.671875 1.496094 74.191406 1.246094 66.457031 0.996094 C 70.199219 8.230469 73.441406 16.457031 75.1875 24.4375 C 75.6875 26.183594 76.683594 28.925781 75.933594 30.671875 C 75.1875 32.917969 72.941406 31.921875 71.695312 30.671875 C 68.703125 27.679688 66.957031 23.441406 64.714844 19.949219 C 62.71875 16.457031 60.722656 12.71875 59.226562 8.976562 C 58.480469 6.984375 57.980469 5.238281 57.480469 3.242188 C 57.230469 2.492188 57.230469 0.996094 56.734375 0.996094 C 55.484375 0.996094 54.238281 0.996094 52.992188 0.996094 C 51.996094 0.996094 50.996094 0.996094 50.25 0.996094 C 48.753906 0.996094 48.503906 1.496094 47.507812 2.492188 C 46.257812 3.988281 45.011719 5.734375 43.765625 7.230469 C 41.273438 10.472656 39.277344 13.714844 37.28125 17.207031 C 34.789062 20.949219 32.542969 24.6875 29.800781 28.179688 C 29.050781 29.175781 27.554688 31.671875 25.808594 30.425781 C 24.3125 29.425781 24.8125 26.683594 25.0625 25.1875 C 25.5625 16.707031 30.796875 9.226562 34.539062 1.996094 C 34.789062 1.496094 35.039062 1.246094 35.285156 0.75 C 24.066406 0.25 12.84375 0 1.871094 0 M 85.910156 63.339844 C 85.660156 65.585938 85.410156 67.832031 85.160156 70.074219 C 86.160156 70.074219 87.15625 70.074219 88.402344 70.074219 C 88.902344 70.074219 91.148438 70.324219 91.644531 70.074219 C 91.894531 69.824219 91.894531 67.332031 91.894531 66.832031 C 91.894531 65.835938 91.894531 64.589844 92.144531 63.589844 C 89.898438 63.589844 87.90625 63.589844 85.910156 63.339844 M 84.414062 74.066406 C 84.164062 76.308594 83.664062 78.804688 83.167969 81.046875 C 85.660156 81.046875 88.15625 81.046875 90.648438 81.046875 C 90.648438 81.046875 91.148438 74.8125 91.148438 74.066406 C 88.902344 74.066406 86.660156 74.066406 84.414062 74.066406 M 82.167969 86.035156 C 81.921875 87.78125 81.421875 89.527344 80.921875 91.273438 C 83.167969 91.273438 85.660156 91.273438 87.90625 91.273438 C 89.402344 91.273438 90.148438 91.769531 90.148438 90.273438 C 90.148438 88.777344 90.398438 87.53125 90.398438 86.035156 C 87.65625 86.035156 84.914062 86.035156 82.167969 86.035156 M 16.085938 61.347656 C 15.585938 61.347656 10.847656 61.097656 10.847656 61.347656 C 10.597656 63.339844 10.597656 65.085938 10.597656 66.832031 C 12.59375 66.832031 14.589844 66.832031 16.582031 66.832031 C 16.335938 65.085938 16.335938 63.339844 16.085938 61.347656 M 10.597656 71.074219 C 10.597656 71.570312 10.597656 78.304688 10.597656 78.304688 C 13.09375 78.304688 15.835938 78.304688 18.328125 78.304688 C 17.832031 76.058594 17.582031 73.816406 17.082031 71.320312 C 17.082031 70.574219 11.597656 71.074219 10.597656 71.074219 M 10.847656 83.542969 C 10.847656 84.789062 11.097656 86.035156 11.097656 87.28125 C 11.097656 88.03125 10.847656 88.527344 11.597656 88.527344 C 12.34375 88.527344 13.09375 88.527344 13.589844 88.527344 C 16.085938 88.527344 18.578125 88.527344 21.074219 88.777344 C 20.824219 87.78125 20.074219 83.542969 19.078125 83.542969 C 16.335938 83.542969 13.589844 83.542969 10.847656 83.542969 M 83.417969 25.933594 C 84.164062 25.933594 90.898438 25.933594 90.898438 25.933594 C 90.898438 27.429688 90.898438 29.175781 90.898438 30.671875 C 90.898438 31.421875 91.398438 34.164062 90.898438 34.664062 C 90.398438 35.160156 83.417969 34.414062 83.417969 34.664062 C 83.417969 31.671875 83.417969 28.925781 83.417969 25.933594 M 82.917969 13.21875 C 85.660156 13.21875 88.402344 13.21875 91.148438 13.21875 C 92.144531 13.21875 91.644531 14.714844 91.644531 15.460938 C 91.644531 15.960938 92.144531 19.203125 91.644531 19.699219 C 91.148438 19.949219 88.902344 19.699219 88.402344 19.699219 C 86.660156 19.699219 85.160156 19.699219 83.417969 19.699219 C 82.417969 19.699219 82.917969 18.203125 82.917969 17.457031 C 82.917969 15.960938 82.917969 14.464844 82.917969 13.21875 M 10.347656 25.6875 C 11.597656 25.6875 12.84375 25.6875 14.089844 25.6875 C 14.589844 25.6875 16.085938 25.1875 16.085938 25.933594 C 16.085938 27.429688 16.085938 28.679688 16.085938 30.175781 C 16.085938 30.671875 16.335938 33.167969 16.085938 33.664062 C 15.585938 34.164062 13.09375 33.664062 12.59375 33.664062 C 12.09375 33.664062 10.597656 34.164062 10.597656 33.417969 C 10.347656 30.921875 10.347656 28.179688 10.347656 25.6875 M 10.847656 10.472656 C 12.09375 10.472656 13.589844 10.472656 14.839844 10.472656 C 15.835938 10.472656 16.582031 9.976562 16.582031 11.222656 C 16.582031 12.71875 16.582031 14.464844 16.582031 15.960938 C 16.582031 16.457031 16.832031 19.203125 16.582031 19.453125 C 16.085938 19.949219 13.339844 19.453125 12.59375 19.453125 C 11.347656 19.699219 10.847656 19.949219 10.847656 18.953125 C 10.847656 16.210938 10.847656 13.21875 10.847656 10.472656 M 50.75 31.421875 C 49.003906 34.164062 47.507812 36.660156 45.761719 39.402344 C 44.515625 41.398438 43.515625 43.140625 42.269531 45.136719 C 42.019531 45.636719 40.523438 47.132812 40.523438 47.878906 C 40.523438 48.878906 42.269531 51.121094 42.769531 52.121094 C 43.515625 53.617188 44.265625 54.863281 45.011719 56.359375 C 46.507812 59.101562 48.253906 61.84375 49.75 64.589844 C 53.242188 59.101562 57.230469 53.867188 61.222656 48.878906 C 61.472656 48.378906 60.222656 46.882812 59.976562 46.382812 C 58.726562 44.390625 57.480469 42.394531 56.234375 40.398438 C 54.488281 37.40625 52.492188 34.414062 50.75 31.421875 M 26.558594 46.882812 C 35.785156 59.601562 44.515625 73.066406 51.246094 87.53125 C 56.484375 79.550781 61.71875 71.820312 66.957031 63.839844 C 69.699219 59.601562 72.445312 55.609375 75.1875 51.371094 C 75.933594 50.125 76.433594 50.125 75.4375 48.878906 C 74.191406 47.132812 72.941406 45.386719 71.695312 43.640625 C 64.714844 33.914062 57.980469 23.941406 51.996094 13.714844 C 43.515625 24.6875 35.039062 35.660156 26.558594 46.882812 M 33.789062 47.382812 C 39.027344 38.902344 44.265625 30.671875 49.25 22.195312 C 49.5 21.695312 50.25 19.699219 50.996094 19.453125 C 51.996094 19.203125 53.242188 22.445312 53.742188 23.191406 C 55.984375 26.683594 57.980469 30.425781 59.976562 33.914062 C 61.96875 37.65625 63.964844 41.398438 65.960938 45.386719 C 66.457031 46.632812 67.957031 48.128906 67.207031 49.375 C 66.457031 50.871094 65.460938 52.617188 64.714844 54.113281 C 61.96875 59.601562 58.976562 65.335938 56.234375 70.824219 C 55.238281 73.066406 53.988281 75.3125 52.992188 77.308594 C 52.742188 77.804688 52.246094 79.300781 51.746094 79.550781 C 50.996094 79.800781 48.503906 73.316406 48.003906 72.570312 C 46.507812 69.328125 45.011719 66.335938 43.265625 63.339844 C 41.769531 60.597656 40.273438 57.855469 38.527344 55.113281 C 37.53125 53.617188 36.78125 52.121094 35.785156 50.871094 C 35.285156 49.875 33.542969 48.128906 33.789062 47.382812 M 29.050781 5.238281 C 24.8125 11.96875 20.574219 19.203125 20.824219 27.429688 C 20.824219 30.175781 21.320312 36.160156 25.3125 35.660156 C 29.050781 34.914062 31.546875 29.925781 33.789062 27.183594 C 36.535156 23.941406 39.027344 20.949219 41.769531 17.957031 C 43.265625 16.210938 45.011719 14.464844 46.507812 12.96875 C 47.753906 11.96875 49.25 9.476562 50.75 8.976562 C 51.746094 8.726562 52.992188 8.976562 53.988281 8.976562 C 54.988281 8.976562 54.988281 9.226562 55.734375 10.222656 C 56.734375 11.96875 57.730469 13.964844 58.726562 15.710938 C 60.722656 19.453125 62.71875 22.941406 64.960938 26.433594 C 67.207031 29.925781 69.699219 33.664062 72.941406 36.410156 C 75.933594 38.902344 78.925781 37.90625 79.175781 33.914062 C 79.425781 29.675781 78.429688 25.4375 77.429688 21.445312 C 76.433594 17.457031 75.4375 13.21875 74.191406 9.226562 C 73.691406 7.980469 73.441406 7.230469 74.6875 6.984375 C 77.183594 6.984375 79.675781 6.734375 82.167969 6.734375 C 85.410156 6.734375 88.402344 6.484375 91.644531 6.484375 C 92.144531 6.484375 94.886719 5.984375 95.386719 6.484375 C 95.886719 7.230469 95.386719 8.726562 95.636719 9.476562 C 95.636719 11.96875 95.636719 14.714844 95.636719 17.207031 C 95.636719 23.441406 95.636719 29.425781 95.636719 35.660156 C 95.636719 37.15625 95.636719 38.402344 95.636719 39.898438 C 95.636719 40.648438 92.644531 41.148438 91.894531 41.398438 C 88.902344 42.644531 84.414062 44.636719 84.414062 48.378906 C 84.414062 52.617188 88.15625 54.363281 91.398438 55.609375 C 92.394531 56.109375 95.636719 56.609375 96.132812 57.355469 C 96.382812 58.105469 96.132812 59.351562 96.132812 60.101562 C 95.636719 70.824219 94.886719 81.796875 94.390625 92.519531 C 94.390625 93.015625 94.390625 94.015625 93.640625 93.765625 C 91.644531 93.765625 89.652344 93.515625 87.65625 93.515625 C 82.667969 93.265625 77.679688 93.015625 72.691406 92.769531 C 71.445312 92.769531 73.191406 89.777344 73.441406 89.277344 C 74.191406 87.28125 75.1875 85.285156 75.933594 83.292969 C 77.429688 79.300781 78.925781 75.3125 79.925781 71.320312 C 80.425781 69.328125 82.667969 61.347656 79.175781 61.347656 C 77.429688 61.347656 75.6875 63.339844 74.4375 64.339844 C 72.941406 65.835938 71.445312 67.082031 69.949219 68.828125 C 64.464844 74.8125 59.726562 82.042969 56.234375 89.027344 C 55.734375 89.777344 54.988281 92.769531 53.988281 92.769531 C 52.742188 92.769531 49.25 93.515625 48.503906 92.519531 C 48.003906 92.019531 47.507812 90.523438 47.257812 89.777344 C 46.757812 88.777344 46.507812 88.03125 46.011719 87.03125 C 45.261719 85.285156 44.515625 83.542969 43.765625 81.796875 C 40.273438 74.3125 36.535156 67.082031 30.796875 61.097656 C 28.804688 58.851562 24.8125 54.613281 22.816406 59.351562 C 21.320312 62.84375 21.820312 67.082031 22.570312 70.824219 C 23.066406 74.8125 24.066406 78.804688 24.8125 82.792969 C 25.3125 84.789062 25.808594 86.78125 26.308594 88.777344 C 26.558594 89.527344 27.804688 92.019531 26.308594 92.019531 C 20.824219 92.019531 15.585938 91.769531 10.101562 91.769531 C 8.851562 91.769531 6.859375 92.269531 5.859375 91.519531 C 5.363281 91.273438 5.609375 89.277344 5.609375 89.027344 C 5.363281 78.054688 5.113281 67.332031 5.113281 56.359375 C 5.113281 55.363281 4.863281 54.613281 5.859375 54.363281 C 7.855469 54.113281 9.851562 53.867188 11.84375 53.367188 C 15.835938 52.121094 17.832031 48.128906 16.085938 44.390625 C 14.339844 41.148438 10.101562 39.898438 6.859375 38.652344 C 5.859375 38.15625 5.609375 38.15625 5.609375 37.15625 C 5.609375 35.160156 5.609375 32.917969 5.609375 30.921875 C 5.609375 24.6875 5.859375 18.453125 5.859375 12.21875 C 5.859375 10.222656 5.859375 8.480469 5.859375 6.484375 C 5.859375 5.238281 6.859375 5.484375 8.105469 5.238281 C 11.84375 5.238281 15.835938 4.988281 19.824219 4.738281 C 21.820312 4.738281 23.816406 4.488281 25.808594 4.488281 C 26.308594 4.488281 29.550781 3.988281 29.050781 5.238281 "/>
</g>
</svg>
